<?xml version="1.0" encoding="utf-8"?>
<!-- Generator: Adobe Illustrator 26.1.0, SVG Export Plug-In . SVG Version: 6.00 Build 0)  -->
<svg version="1.1" id="Layer_1" xmlns="http://www.w3.org/2000/svg" xmlns:xlink="http://www.w3.org/1999/xlink" x="0px" y="0px"
	 viewBox="0 0 16 16" style="enable-background:new 0 0 16 16;" xml:space="preserve">
<style type="text/css">
	.st0{opacity:0.5;fill:#FFFFFF;enable-background:new    ;}
	.st1{fill:#6D6E71;}
	.st2{fill:#6E6F72;}
</style>
<g id="icon">
	<path class="st0" d="M15.5,8c0,4.1-3.3,7.5-7.5,7.5S0.5,12.1,0.5,8S3.9,0.5,8,0.5S15.5,3.9,15.5,8z"/>
	<path class="st1" d="M5.5,7.2L8,5.4l2.5,1.8l-0.9,3H6.5L5.5,7.2z M5.8,1.2L5.4,2.1l2.6,1l2.6-1l-0.3-0.9C8.8,0.7,7.3,0.7,5.8,1.2z
		 M13.9,3.8l-0.9-0.1l-0.2,2.7l1.7,2.2l0.7-0.6C15.2,6.6,14.8,5.2,13.9,3.8z M0.8,8.1l0.7,0.6l1.7-2.2L3.1,3.7L2.2,3.8
		C1.2,5.1,0.8,6.6,0.8,8.1z M13.8,12.3l-0.2-0.9l-2.7,0.7l-1.5,2.3l0.8,0.5C11.7,14.4,12.9,13.5,13.8,12.3z M5.9,14.9l0.8-0.5
		l-1.5-2.3l-2.7-0.7l-0.2,0.9C3.2,13.5,4.4,14.4,5.9,14.9z"/>
	<path class="st2" d="M15.4,8.4l-0.5-0.6l-0.4,0.3l-1.4-1.7l0.2-2.2l0.5,0.1l0.1-0.8l-1-0.1l-2-1.4l-0.3-0.8L9.9,1.4l0.2,0.5L8,2.7
		L6,1.9l0.2-0.5L5.4,1.1L5.1,1.9L3.2,3.3L2.1,3.4l0.1,0.8l0.5-0.1l0.2,2.2L1.5,8.1L1.1,7.8L0.6,8.4l0.7,0.5l0.9,2.4l-0.2,0.9
		l0.8,0.2l0.1-0.5L5,12.4l1.2,1.8l-0.4,0.3l0.4,0.7l0.8-0.5h2.3l0.8,0.5l0.4-0.7L10,14.3l1.2-1.8l2.2-0.6l0.1,0.5l0.8-0.2L14,11.2
		L14.7,9L15.4,8.4z M10.6,2.5l2,1.4l-0.2,2.3l-1.7,0.6L8.4,5.2V3.4L10.6,2.5z M9.3,9.8H6.8L6,7.4L8,5.9l2,1.5L9.3,9.8z M5.4,2.5
		l2.3,0.9v1.8L5.3,6.9L3.7,6.3L3.5,3.9L5.4,2.5z M2.8,11L2,8.8l1.5-1.9l1.7,0.6L6,10.2l-1,1.4L2.8,11z M9.1,14H7L5.7,12l0.9-1.4h2.7
		l1,1.5L9.1,14z M13.3,11L11,11.6l-1-1.4l0.9-2.8l1.7-0.5L14,8.8L13.3,11z"/>
	<path class="st2" d="M8,16c-4.4,0-8-3.6-8-8s3.6-8,8-8s8,3.6,8,8S12.4,16,8,16z M8,1C4.1,1,1,4.1,1,8s3.1,7,7,7s7-3.1,7-7
		S11.9,1,8,1z"/>
</g>
</svg>
