<?xml version="1.0" encoding="utf-8"?>
<!-- Generator: Adobe Illustrator 26.1.0, SVG Export Plug-In . SVG Version: 6.00 Build 0)  -->
<svg version="1.1" id="Layer_1" xmlns="http://www.w3.org/2000/svg" xmlns:xlink="http://www.w3.org/1999/xlink" x="0px" y="0px"
	 viewBox="0 0 16 16" style="enable-background:new 0 0 16 16;" xml:space="preserve">
<style type="text/css">
	.st0{opacity:0.5;fill:#FFFFFF;enable-background:new    ;}
	.st1{fill:#6486C4;}
</style>
<g id="icon">
	<circle class="st0" cx="8" cy="8" r="7.5"/>
	<path class="st1" d="M11.7,14.3c0.1-0.1,0.1-0.2,0-0.4l0-0.1c-0.1-0.5-0.2-1-0.4-1.5c-0.1-0.3-0.1-0.3-0.1-0.3
		c0-0.1-0.1-0.1-0.2-0.1c-0.1,0-0.1,0-0.3,0.1c-0.9,0.6-2,1.2-3,1.5c-0.8,0.3-1.5,0.5-2.4,0.6c-0.2,0-0.5,0-0.8,0
		c-0.4,0-0.7,0-0.9,0c-0.1,0-0.2,0-0.3,0l0,0l0,0c-0.1-0.1-0.6-0.5-1-0.9l0.1-0.2C2.8,13,2.9,13,3,13c0.5,0.1,1.1,0.2,1.7,0.2
		c0.2,0,0.4,0,0.5,0c1.5-0.1,3-0.6,4.5-1.6c0.1-0.1,0.3-0.2,0.5-0.4c0.4-0.3,0.4-0.3,0.4-0.3c0,0,0-0.1-0.3-0.5
		C10.2,10.2,10,10,9.9,9.9C9.4,9.4,8.9,9,8.3,8.7l0,0L8.1,8.6L7.9,8.7C7.6,8.9,7.2,9.2,6.8,9.3c-0.6,0.2-1.3,0.4-2,0.5
		c-0.2,0-0.4,0-0.7,0c-0.3,0-0.6,0-0.7,0C2.6,9.8,1.9,9.6,1.3,9.3C1.1,9.2,0.8,9.1,0.6,9l0,0l0-0.2c-0.1-1,0-2,0.3-3.1l0.2,0
		C1,6,1,6.2,1,6.4c0,0.3,0,1.4,0,1.6l0,0.2l0.2,0.1c0.5,0.2,1.3,0.5,2,0.6l0.3,0l0-0.5c0-0.4,0-1.9,0-2.1c0.2-1.9,0.9-3.9,1.8-5.1
		C5.5,1,5.5,0.9,5.6,0.9l0,0c0.4-0.1,0.8-0.2,1.1-0.3l0.4-0.1L6.9,0.8C6.3,1.3,5.8,1.9,5.4,2.5c-0.1,0.3-0.3,0.7-0.5,1
		c-0.4,1-0.6,1.9-0.7,3c0,0.3,0,1.2,0,1.5C4.3,8.9,4.4,8.9,4.5,9c0,0,0.1,0,0.1,0C4.7,9,5,8.9,5.2,8.9c0.4-0.1,0.9-0.2,1.3-0.4
		c0.3-0.1,0.9-0.5,1-0.6l0.1-0.1l0-0.3c0-0.2,0-0.9,0-1.2c0-0.4,0.2-0.9,0.3-1.4c0.3-1,0.8-1.8,1.5-2.6c0.3-0.4,0.9-0.8,1.3-1.2
		L11,1.1l0.1,0c0.7,0.3,1.4,0.7,2,1.3l-0.1,0.2c-0.3-0.2-0.7-0.4-1-0.6l-0.3-0.2l-0.2,0.1c-0.4,0.3-1,0.8-1.4,1.3L9.6,3.6l0.5,0.3
		c1.8,0.9,3.1,1.9,4,3c0.5,0.6,0.9,1.3,1.2,1.9L15.4,9l0,0.1c-0.1,0.4-0.1,0.8-0.3,1.2L15,10.6L15,10.3c-0.2-0.8-0.6-1.6-1.1-2.3
		c-0.9-1.3-2.2-2.4-3.8-3.2C10,4.7,9.8,4.7,9.6,4.6C9.3,4.4,9.3,4.4,9.2,4.4C9.1,4.4,9.1,4.5,9,4.8C8.9,5,8.8,5.2,8.8,5.3
		C8.6,5.9,8.5,6.5,8.5,7.1c0,0.4,0,0.5,0,0.5l0,0.2l0.2,0.1c0.8,0.3,2.1,1.6,2.6,2.4c0.4,0.6,0.6,1,0.9,1.7c0.2,0.6,0.3,1.2,0.4,1.7
		c0,0,0,0.1,0,0.1l0,0.1l-0.1,0.1c-0.1,0-0.1,0.1-0.2,0.1c-0.2,0.1-0.3,0.2-0.5,0.3L11.7,14.3z"/>
	<path class="st1" d="M8,16c-4.4,0-8-3.6-8-8s3.6-8,8-8s8,3.6,8,8S12.4,16,8,16z M8,1C4.1,1,1,4.1,1,8s3.1,7,7,7s7-3.1,7-7
		S11.9,1,8,1z"/>
</g>
</svg>
