<?xml version="1.0" encoding="utf-8"?>
<!-- Generator: Adobe Illustrator 26.1.0, SVG Export Plug-In . SVG Version: 6.00 Build 0)  -->
<svg version="1.1" id="Layer_1" xmlns="http://www.w3.org/2000/svg" xmlns:xlink="http://www.w3.org/1999/xlink" x="0px" y="0px"
	 viewBox="0 0 16 16" style="enable-background:new 0 0 16 16;" xml:space="preserve">
<style type="text/css">
	.st0{fill:#6E6F72;}
</style>
<g id="icon">
	<path class="st0" d="M11.8,8.4c-0.2,0-0.2,0-0.4,0c-0.3-0.1-0.7-0.3-1.1-0.6c-0.1,0-0.1-0.1-0.2-0.1C10,7.5,10,7.5,10,7.5
		c0,0,0,0,0,0c0,0,0,0,0,0c0,0-0.2,0.2-0.4,0.4L9.4,8L8.3,6.8l0.6-0.6L8.8,6.1C8.1,4.9,7.9,4.3,7.9,4c0-0.4,0.2-0.6,0.4-0.9l0,0l0,0
		c0.1-0.1,0.5-0.5,1-1c0.6-0.6,1.4-1.4,1.8-1.8C11.3,0.1,11.5,0,11.7,0c0.3,0,0.6,0.2,0.8,0.5c0.1,0.3,0,0.7-0.3,1L9.8,4.2l0.4,0.4
		L12.7,2c0.2-0.2,0.5-0.3,0.7-0.3c0.3,0,0.6,0.2,0.8,0.5C14.4,2.6,14.3,3,14,3.3L11.5,6l0.4,0.4l2.6-2.5c0.2-0.2,0.4-0.3,0.6-0.3
		c0.3,0,0.7,0.2,0.8,0.6c0.1,0.3,0.1,0.7-0.2,1c-0.3,0.3-0.4,0.4-0.4,0.4C15.2,5.7,15,5.8,13.9,7l0,0c-0.6,0.6-0.9,0.9-1,1l0,0l0,0
		c0,0,0,0,0,0c-0.1,0.1-0.3,0.2-0.5,0.2C12.2,8.3,12.1,8.3,11.8,8.4L11.8,8.4L11.8,8.4L11.8,8.4z"/>
	<path class="st0" d="M0.6,0.6C0.3,0.7,0,1,0,1.5C0,2,0,2.3,0.4,3c1.1,1.9,4.4,6.6,5,7.3c0.3,0.3,0.6,0.5,1,0.5c0.2,0,0.5,0,0.8,0
		c0.5-0.1,0.7-0.1,0.9,0c0.1,0,0.3,0.2,2.6,2.6c2.7,2.8,2.4,2.5,2.7,2.6c0.2,0.1,0.5,0,0.7-0.1c0.1-0.1,0.4-0.3,0.4-0.5
		c0.2-0.3,0.1-0.6,0-1c0-0.1-1.8-1.9-6.7-6.9C1.1,0.6,1.3,0.8,1.2,0.7C1.1,0.6,0.9,0.6,0.8,0.6C0.8,0.6,0.7,0.6,0.6,0.6z"/>
	<path class="st0" d="M4.5,10.6c-0.3,0.3-1,1.1-1.9,2c-1.2,1.2-1.9,2-1.9,2c-0.1,0.1-0.1,0.3-0.1,0.4c0,0.2,0,0.3,0.1,0.5
		c0.1,0.1,0.3,0.4,0.4,0.4c0.3,0.1,0.6,0.1,0.8,0C2,15.8,2.1,15.7,4,13.7c0.9-1,1.6-1.7,1.9-2"/>
</g>
</svg>
