<?xml version="1.0" encoding="utf-8"?>
<!-- Generator: Adobe Illustrator 26.1.0, SVG Export Plug-In . SVG Version: 6.00 Build 0)  -->
<svg version="1.1" id="Layer_1" xmlns="http://www.w3.org/2000/svg" xmlns:xlink="http://www.w3.org/1999/xlink" x="0px" y="0px"
	 viewBox="0 0 16 16" style="enable-background:new 0 0 16 16;" xml:space="preserve">
<style type="text/css">
	.st0{opacity:0.5;fill:#FFFFFF;enable-background:new    ;}
	.st1{fill:#6486C4;}
	.st2{fill:#6D6E71;}
</style>
<g id="icon">
	<path class="st0" d="M13.4,5.6c0,0-0.1-0.1-0.1-0.2c0-0.1-0.1-0.2-0.1-0.4h-2.4c0,0.1,0,0.2,0,0.3c0,0.1-0.1,0.1-0.1,0.2
		c0,0-0.1,0.1-0.1,0.2h2.9C13.5,5.6,13.4,5.6,13.4,5.6z"/>
	<path class="st1" d="M10.6,3.7c-0.2-0.6-0.2-0.8-0.2-1.3c0-0.4,0-0.6,0.2-0.9c0.2-0.5,0.6-1,0.9-1.2c0.2-0.1,0.4-0.1,0.6-0.1
		c0.1,0,0.2,0,0.3,0l0,0c0.1,0,0.2,0.1,0.3,0.1c0.5,0.2,0.9,0.8,1,1.5c0.1,0.3,0.1,0.9,0.1,1.1c0,0,0,0.1,0,0.3
		c-0.1,0.3-0.1,0.6-0.3,1c0,0.1-0.1,0.2-0.1,0.2c0,0.1,0,0.2,0,0.2c0,0.1-0.1,0.5-0.1,0.5c0,0,0,0,0,0h-2.4c0,0,0,0,0-0.1
		c0-0.1,0-0.3,0-0.4l-0.1-0.2C10.7,4.1,10.7,3.9,10.6,3.7z M14.8,8.9c-0.1-0.3-0.2-0.8-0.3-1.2c-0.2-0.7-0.3-1.1-0.6-1.4
		c0,0-0.2-0.4-0.4-0.6h-2.9c-0.1,0.1-0.2,0.3-0.3,0.5c-0.1,0.1-0.1,0.2-0.2,0.3L10,6.7c0.1,0.1,0.2,0.3,0.3,0.4c0,0,0,0,0,0
		c0,0,0,0,0,0c0.6,0.8,1,1.8,1.1,2.8c0,0.3,0.1,0.5,0.1,0.9c0,0.4,0,0.5-0.1,0.9c-0.1,0.9-0.4,1.7-0.9,2.4c0,0.1-0.1,0.1-0.1,0.2
		c0,0,0,0,0,0c0,0.1-0.1,0.1-0.1,0.2c0,0,0,0,0,0h0c-0.1,0.2-0.3,0.3-0.4,0.5c0.9,0,2.7,0,2.8,0c1,0,1,0,1.1,0
		c0.2-0.1,0.4-0.2,0.5-0.4c0.1-0.2,0.5-2,0.6-2.4C15,11,15,9.8,14.8,8.9z"/>
	<path class="st2" d="M10.4,10C10.2,8.3,9,6.7,7.5,6C6.9,5.8,6.4,5.6,5.8,5.5c-0.1,0-0.4,0-0.6,0c-0.1,0-0.2,0-0.2,0l0,0
		c0,0-0.1,0-0.1,0C3.8,5.6,2.8,6,2,6.7c-1,0.8-1.7,2-1.9,3.3c0,0.3,0,0.4,0,0.7c0,0.4,0,0.5,0,0.7c0.2,1.7,1.4,3.2,2.9,4
		c0.5,0.3,1.1,0.4,1.7,0.5c0.1,0,0.4,0,0.5,0c0.1,0,0.4,0,0.5,0c1-0.1,1.8-0.4,2.6-1c0.4-0.3,0.8-0.7,1.1-1.1c0.5-0.7,0.9-1.5,1-2.4
		c0-0.3,0-0.4,0-0.7S10.5,10.3,10.4,10z M3.7,10.3C3.6,10.7,3.3,10.9,3,11c-0.1,0-0.3,0-0.4,0c-0.3-0.1-0.5-0.3-0.6-0.7
		c0-0.1,0-0.3,0-0.5C2,9.7,2.1,9.6,2.2,9.4c0.1-0.1,0.3-0.2,0.4-0.2c0.1,0,0.3,0,0.4,0c0.3,0.1,0.5,0.2,0.6,0.5
		c0.1,0.1,0.1,0.2,0.1,0.4C3.7,10.2,3.7,10.2,3.7,10.3z M4.5,8.5C4.4,8.4,4.4,8.3,4.4,8.1c0-0.1,0-0.2,0.1-0.3
		c0.1-0.2,0.2-0.3,0.4-0.4C5,7.3,5.1,7.2,5.3,7.2c0.1,0,0.2,0,0.3,0c0.1,0,0.3,0.1,0.4,0.2C6,7.5,6.1,7.7,6.1,7.7c0,0.1,0,0.3,0,0.4
		C6,8.4,5.8,8.7,5.6,8.8C5.4,8.9,5.3,8.9,5.1,8.9c-0.2,0-0.2,0-0.4-0.1C4.6,8.7,4.5,8.6,4.5,8.5z M6.3,11.8
		c-0.2,0.2-0.5,0.3-0.8,0.3c-0.2,0-0.3,0-0.5-0.2c-0.2-0.1-0.3-0.3-0.3-0.5c0-0.1,0-0.3,0-0.4c0.1-0.4,0.3-0.7,0.6-0.8
		c0.2-0.1,0.3-0.1,0.5-0.1c0.1,0,0.2,0,0.2,0c0.2,0.1,0.4,0.2,0.5,0.4C6.7,10.9,6.6,11.4,6.3,11.8z"/>
	<path class="st0" d="M4.7,11.4c0-0.1,0-0.3,0-0.4c0.1-0.4,0.3-0.7,0.6-0.8c0.2-0.1,0.3-0.1,0.5-0.1c0.1,0,0.2,0,0.2,0
		c0.2,0.1,0.4,0.2,0.5,0.4c0.2,0.4,0.1,0.9-0.2,1.2c-0.2,0.2-0.5,0.3-0.8,0.3c-0.2,0-0.3,0-0.5-0.2C4.9,11.8,4.8,11.6,4.7,11.4z
		 M3,9.2c-0.1,0-0.3,0-0.4,0c-0.2,0-0.3,0.1-0.4,0.2C2.1,9.6,2,9.7,1.9,9.9c0,0.1,0,0.3,0,0.5C2,10.7,2.2,10.9,2.6,11
		c0.1,0,0.3,0,0.4,0c0.3-0.1,0.6-0.4,0.7-0.7c0-0.1,0-0.1,0-0.2c0-0.2,0-0.3-0.1-0.4C3.5,9.4,3.3,9.3,3,9.2z M5.1,8.9
		c0.2,0,0.3,0,0.4-0.1C5.8,8.7,6,8.4,6.1,8.1c0-0.1,0-0.3,0-0.4C6.1,7.7,6,7.5,6,7.5C5.9,7.3,5.7,7.3,5.6,7.2c-0.1,0-0.2,0-0.3,0
		C5.1,7.2,5,7.3,4.8,7.4C4.6,7.5,4.5,7.6,4.5,7.8C4.4,7.9,4.4,8,4.4,8.1c0,0.1,0,0.3,0.1,0.4c0.1,0.1,0.2,0.3,0.3,0.3
		C4.9,8.9,5,8.9,5.1,8.9z"/>
</g>
</svg>
