<?xml version="1.0" encoding="utf-8"?>
<!-- Generator: Adobe Illustrator 26.1.0, SVG Export Plug-In . SVG Version: 6.00 Build 0)  -->
<svg version="1.1" id="Layer_1" xmlns="http://www.w3.org/2000/svg" xmlns:xlink="http://www.w3.org/1999/xlink" x="0px" y="0px"
	 viewBox="0 0 16 16" style="enable-background:new 0 0 16 16;" xml:space="preserve">
<style type="text/css">
	.st0{opacity:0.5;fill:#FFFFFF;enable-background:new    ;}
	.st1{fill:#6D6E71;}
	.st2{fill:#6485C3;}
</style>
<g id="icon">
	<path class="st0" d="M11.3,6.4L8.4,9.2l-2,2L4.7,9.6l2.5-2.5l0,0l2.3-2.3L11.3,6.4z M14.2,3.5l1.2-1.2c0.1-0.1,0.1-0.3,0-0.4
		l-1.3-1.3c-0.1-0.1-0.3-0.1-0.4,0l-1.2,1.2L14.2,3.5z M1.8,12.5l-1.2,1.2c-0.1,0.1-0.1,0.3,0,0.4l1.3,1.3c0.1,0.1,0.3,0.1,0.4,0
		l1.2-1.2L1.8,12.5z"/>
	<path class="st0" d="M13.9,6c0.3,0.5,0.3,1.1-0.1,1.5c-0.5,0.5-1.2,0.5-1.6,0L8.5,3.8c-0.5-0.5-0.5-1.2,0-1.6
		C8.9,1.8,9.6,1.7,10,2.1c0-0.3,0.1-0.7,0.3-0.9c0.5-0.5,1.2-0.5,1.6,0L14.9,4c0.5,0.5,0.5,1.2,0,1.6C14.6,5.9,14.3,6,13.9,6z
		 M3.8,8.5c-0.5-0.5-1.2-0.5-1.6,0C1.8,8.9,1.7,9.6,2.1,10c-0.3,0-0.7,0.1-0.9,0.3c-0.5,0.5-0.5,1.2,0,1.6L4,14.9
		c0.5,0.5,1.2,0.5,1.6,0C5.9,14.6,6,14.3,6,13.9c0.5,0.3,1.1,0.3,1.5-0.1c0.5-0.5,0.5-1.2,0-1.6L3.8,8.5z"/>
	<path class="st1" d="M11.2,7.2l-4,4l-0.7-0.7l4-4L11.2,7.2z M5.5,9.5l4-4L8.8,4.8l-4,4L5.5,9.5z M2.7,14.2l-0.6,0.6l-0.9-0.9
		l0.6-0.6L1,12.6l-0.8,0.8C0.1,13.5,0,13.7,0,13.9s0.1,0.4,0.2,0.5l1.3,1.3C1.7,15.9,1.9,16,2.1,16s0.4-0.1,0.5-0.2L3.4,15L2.7,14.2
		z M15.7,1.5l-1.3-1.3C14.3,0.1,14.1,0,13.9,0s-0.4,0.1-0.5,0.2L12.6,1l0.7,0.7l0.6-0.6l0.9,0.9l-0.6,0.6L15,3.4l0.8-0.8
		C15.9,2.5,16,2.3,16,2.1S15.9,1.7,15.7,1.5z"/>
	<path class="st2" d="M4.8,15.7c-0.4,0-0.9-0.2-1.2-0.5l-2.9-2.9c-0.3-0.3-0.5-0.7-0.5-1.2s0.2-0.9,0.5-1.2c0.2-0.2,0.4-0.3,0.6-0.4
		C1.3,9.1,1.4,8.6,1.8,8.2C2.1,7.9,2.5,7.7,3,7.7c0.4,0,0.9,0.2,1.2,0.5l3.7,3.7c0.3,0.3,0.5,0.7,0.5,1.2s-0.2,0.9-0.5,1.2
		c-0.4,0.4-0.9,0.5-1.5,0.5c-0.1,0.2-0.2,0.4-0.4,0.6C5.7,15.5,5.3,15.7,4.8,15.7z M2,10.5c-0.2,0-0.3,0.1-0.5,0.2
		c-0.1,0.1-0.2,0.3-0.2,0.5s0.1,0.3,0.2,0.5l2.9,2.9c0.1,0.1,0.3,0.2,0.5,0.2s0.3-0.1,0.5-0.2c0.1-0.1,0.2-0.3,0.2-0.5l-0.1-1.1
		l0.9,0.7c0.3,0.2,0.6,0.2,0.9-0.1c0.1-0.1,0.2-0.3,0.2-0.5s-0.1-0.3-0.2-0.5L3.4,8.9C3.3,8.7,3.2,8.7,3,8.7c-0.2,0-0.3,0.1-0.5,0.2
		C2.3,9.1,2.3,9.5,2.5,9.7l0.7,0.9L2,10.5C2,10.5,2,10.5,2,10.5z M13,8.3c-0.4,0-0.9-0.2-1.2-0.5L8.2,4.2C7.9,3.8,7.7,3.4,7.7,3
		s0.2-0.9,0.5-1.2c0.4-0.4,0.9-0.5,1.5-0.5C9.7,1.1,9.8,0.9,10,0.8c0.3-0.3,0.7-0.5,1.2-0.5s0.9,0.2,1.2,0.5l2.9,2.9
		c0.3,0.3,0.5,0.7,0.5,1.2S15.5,5.7,15.2,6c-0.2,0.2-0.4,0.3-0.6,0.4c0.1,0.5-0.1,1.1-0.5,1.5C13.9,8.1,13.5,8.3,13,8.3z M9.3,2.3
		C9.2,2.3,9,2.4,8.9,2.5C8.7,2.6,8.7,2.8,8.7,3s0.1,0.3,0.2,0.5l3.7,3.7c0.1,0.1,0.3,0.2,0.5,0.2s0.3-0.1,0.5-0.2
		c0.2-0.2,0.3-0.6,0.1-0.9l-0.7-0.9L14,5.5c0.2,0,0.4-0.1,0.5-0.2c0.1-0.1,0.2-0.3,0.2-0.5s-0.1-0.3-0.2-0.5l-2.9-2.9
		c-0.1-0.1-0.3-0.2-0.5-0.2s-0.3,0.1-0.5,0.2c-0.1,0.1-0.2,0.3-0.2,0.5l0.1,1.1L9.7,2.5C9.6,2.4,9.5,2.3,9.3,2.3z"/>
	<path class="st2" d="M5.6,14.3l-3.9-3.9l0.7-0.7l3.9,3.9L5.6,14.3z M13.6,6.3L9.7,2.4l0.7-0.7l3.9,3.9L13.6,6.3z"/>
</g>
</svg>
