<?xml version="1.0" encoding="utf-8"?>
<!-- Generator: Adobe Illustrator 26.1.0, SVG Export Plug-In . SVG Version: 6.00 Build 0)  -->
<svg version="1.1" id="Layer_1" xmlns="http://www.w3.org/2000/svg" xmlns:xlink="http://www.w3.org/1999/xlink" x="0px" y="0px"
	 viewBox="0 0 16 16" style="enable-background:new 0 0 16 16;" xml:space="preserve">
<style type="text/css">
	.st0{opacity:0.5;fill:#FFFFFF;enable-background:new    ;}
	.st1{fill:#6486C4;}
	.st2{fill:#6E6F72;}
</style>
<g id="icon">
	<path class="st0" d="M14.4,9c-0.1-0.3-0.2-0.8-0.3-1.1c-0.2-0.6-0.3-1-0.5-1.3c-0.1-0.2-0.4-0.6-0.5-0.7c-0.1-0.1-0.2-0.2-0.2-0.3
		c-0.1-0.2-0.1-0.3-0.1-0.6c0-0.1,0.1-0.5,0.1-0.6c0-0.1,0-0.2,0-0.2c0,0,0-0.2,0.1-0.3c0.1-0.3,0.2-0.6,0.3-0.9c0-0.1,0-0.2,0-0.3
		c0-0.2,0-0.6-0.1-0.9c-0.1-0.5-0.5-1-0.8-1.1c-0.1,0-0.2-0.1-0.2-0.1c-0.2,0-0.4,0-0.6,0.1c-0.3,0.1-0.6,0.5-0.7,1
		c-0.1,0.3-0.1,0.4-0.1,0.8c0,0.5,0,0.6,0.2,1.2c0.1,0.2,0.1,0.4,0.2,0.6l0.1,0.3c0,0,0.1,0.3,0.1,0.5c0,0.2,0,0.4-0.1,0.5
		c0,0.1-0.1,0.3-0.2,0.4c-0.1,0.1-0.3,0.5-0.4,0.6c0,0.1-0.2,0.4-0.4,0.6c0.6,0.8,1,1.8,1.1,2.8c0,0.3,0.1,0.5,0.1,0.9
		c0,0.4,0,0.5-0.1,0.9c-0.1,1-0.5,2-1.2,2.8c0,0,0,0,0,0l1.7,0c1.2,0,1.6,0,1.7,0c0.1,0,0.1-0.1,0.2-0.2c0.1-0.1,0.5-1.8,0.6-2.3
		C14.5,11,14.5,9.9,14.4,9z"/>
	<path class="st1" d="M14.8,8.9c-0.1-0.3-0.2-0.8-0.3-1.2c-0.2-0.7-0.3-1.1-0.6-1.4c0,0-0.4-0.6-0.5-0.7c0,0-0.1-0.1-0.1-0.2
		c0-0.1-0.1-0.2-0.1-0.4c0-0.1,0-0.5,0.1-0.5c0,0,0-0.1,0-0.2c0,0,0-0.1,0.1-0.2c0.1-0.4,0.2-0.6,0.3-1c0-0.1,0-0.2,0-0.3
		c0.1-0.3,0-0.8-0.1-1.1c-0.2-0.6-0.6-1.2-1-1.5c-0.1,0-0.2-0.1-0.3-0.1l0,0c-0.1,0-0.2,0-0.3,0c-0.2,0-0.4,0.1-0.6,0.1
		c-0.4,0.2-0.8,0.7-0.9,1.2c-0.1,0.4-0.2,0.5-0.2,0.9c0,0.5,0,0.7,0.2,1.3c0.1,0.2,0.1,0.4,0.2,0.6l0.1,0.2c0,0.1,0,0.3,0,0.4
		c0,0.1,0,0.3,0,0.4c0,0.1-0.1,0.1-0.1,0.2c-0.1,0.1-0.2,0.2-0.5,0.7c-0.1,0.1-0.1,0.2-0.2,0.3L10,6.7c0.1,0.1,0.2,0.3,0.3,0.4
		c0,0,0.1,0.1,0.1,0.1l0.2,0.3l0.2-0.3c0.1-0.2,0.2-0.3,0.3-0.4c0.1-0.1,0.1-0.2,0.2-0.3h1.6c0.1,0.1,0.2,0.3,0.3,0.4
		c0.2,0.3,0.3,0.6,0.5,1.2c0.1,0.3,0.2,0.8,0.3,1.1c0.2,0.8,0.2,2,0,2.9c-0.1,0.4-0.4,1.7-0.5,2.1c-0.1,0-0.4,0-0.7,0
		c-0.2,0-0.5,0-0.7,0l-1.3,0l-0.2,0c-0.1,0.1-0.2,0.3-0.3,0.4c-0.1,0.2-0.3,0.3-0.4,0.5c0.9,0,2.7,0,2.8,0c1,0,1,0,1.1,0
		c0.2-0.1,0.4-0.2,0.5-0.4c0.1-0.2,0.5-2,0.6-2.4C15,11,15,9.8,14.8,8.9z M11.7,5.7c0,0,0.1-0.7,0.1-0.7h0.5c0,0,0.1,0.7,0.1,0.7
		H11.7z M12.8,2.6L12.8,2.6c0,0.1,0,0.2-0.1,0.3c0,0.2-0.1,0.4-0.2,0.8C12.5,4,12.4,4,12.4,4.1c0,0,0,0.1,0,0.1c0,0,0,0.1,0,0.1
		h-0.6c0,0,0-0.1,0-0.1L11.7,4c0-0.2-0.1-0.4-0.2-0.6c-0.2-0.5-0.2-0.6-0.2-1c0-0.3,0-0.4,0.1-0.6c0.1-0.3,0.4-0.6,0.5-0.7
		c0.1,0,0.1,0,0.2,0c0,0,0.1,0,0.1,0c0,0,0.1,0,0.1,0c0.2,0.1,0.4,0.4,0.5,0.8C12.8,2.2,12.9,2.5,12.8,2.6z"/>
	<path class="st0" d="M5,6c0,0-0.1,0-0.2,0C3.9,6.1,3,6.4,2.3,7c-1,0.8-1.6,1.9-1.7,3.1c0,0.3,0,0.3,0,0.7s0,0.4,0,0.7
		c0.2,1.6,1.2,3,2.7,3.6c0.5,0.2,1,0.4,1.6,0.4c0.1,0,0.7,0,0.9,0c0.9-0.1,1.7-0.4,2.4-0.9c0.3-0.3,0.7-0.6,1-1
		c0.5-0.6,0.8-1.4,0.9-2.2c0-0.3,0-0.3,0-0.7s0-0.4,0-0.7c-0.2-1.6-1.2-3-2.7-3.6C6.8,6.2,6.3,6,5.7,6C5.6,6,5.1,6,5,6z"/>
	<path class="st2" d="M10.4,10C10.2,8.3,9,6.7,7.5,6C6.9,5.8,6.4,5.6,5.8,5.5c-0.1,0-0.4,0-0.6,0c-0.1,0-0.2,0-0.2,0l0,0
		c0,0-0.1,0-0.1,0C3.8,5.6,2.8,6,2,6.7c-1,0.8-1.7,2-1.9,3.3c0,0.3,0,0.4,0,0.7c0,0.4,0,0.5,0,0.7c0.2,1.7,1.4,3.2,2.9,4
		c0.5,0.3,1.1,0.4,1.7,0.5c0.1,0,0.4,0,0.5,0c0.1,0,0.4,0,0.5,0c1-0.1,1.8-0.4,2.6-1c0.4-0.3,0.8-0.7,1.1-1.1c0.5-0.7,0.9-1.5,1-2.4
		c0-0.3,0-0.4,0-0.7S10.5,10.3,10.4,10z M9.5,11.4c-0.1,0.7-0.4,1.4-0.8,2c-0.2,0.3-0.6,0.7-0.9,0.9c-0.6,0.5-1.3,0.8-2.2,0.8
		c0,0-0.2,0-0.4,0c-0.2,0-0.4,0-0.4,0c-0.5-0.1-1-0.2-1.4-0.4C2.1,14,1.2,12.8,1,11.4c0-0.2,0-0.3,0-0.6c0-0.3,0-0.4,0-0.6
		C1.2,9,1.7,8,2.6,7.3c0.6-0.5,1.5-0.9,2.3-0.9c0.1,0,0.1,0,0.2,0c0,0,0,0,0.1,0c0.2,0,0.5,0,0.6,0c0.5,0.1,1,0.2,1.4,0.4
		c1.3,0.6,2.2,1.9,2.4,3.3c0,0.2,0,0.3,0,0.6C9.6,11.1,9.6,11.1,9.5,11.4z"/>
	<path class="st2" d="M5.4,12.2c-0.2,0-0.4-0.1-0.6-0.2c-0.2-0.1-0.4-0.4-0.4-0.7c0-0.1,0-0.4,0-0.5c0.1-0.4,0.4-0.8,0.7-1
		c0.2-0.1,0.3-0.1,0.5-0.1l0,0c0.1,0,0.2,0,0.3,0c0.3,0.1,0.5,0.3,0.6,0.5c0.2,0.5,0.1,1.1-0.3,1.5C6.1,12,5.8,12.2,5.4,12.2
		L5.4,12.2z M5,11.3c0,0.1,0.1,0.1,0.1,0.2c0.1,0.1,0.2,0.1,0.3,0.1l0,0c0.2,0,0.3-0.1,0.5-0.2c0.2-0.2,0.3-0.5,0.2-0.8
		c-0.1-0.1-0.1-0.2-0.3-0.2c0,0,0,0,0,0l-0.1,0l0,0c0,0-0.1,0-0.1,0c-0.1,0-0.1,0-0.2,0.1C5.2,10.5,5,10.7,5,10.9c0,0,0,0.1,0,0.2
		L5,11.3z M2.9,11.2c-0.1,0-0.2,0-0.3,0c-0.4-0.1-0.7-0.4-0.8-0.8c0-0.2,0-0.4,0-0.6C1.9,9.6,2,9.4,2.2,9.2C2.4,9.1,2.5,9,2.7,8.9
		c0.1,0,0.1,0,0.2,0c0.1,0,0.2,0,0.3,0C3.5,9,3.8,9.2,3.9,9.6C4,9.7,4,9.9,4,10c0,0.1,0,0.2,0,0.3c-0.1,0.4-0.4,0.7-0.8,0.9
		C3.1,11.2,3,11.2,2.9,11.2z M3,9.5C2.9,9.5,2.9,9.5,3,9.5c-0.2,0-0.3,0.1-0.3,0.1C2.5,9.7,2.5,9.8,2.5,10c0,0.1,0,0.2,0,0.3
		c0,0.2,0.2,0.3,0.4,0.4c0,0,0.1,0,0.1,0c0,0,0.1,0,0.1,0c0.2-0.1,0.3-0.2,0.4-0.4c0,0,0-0.1,0-0.1c0-0.1,0-0.2,0-0.2
		C3.3,9.7,3.2,9.6,3.1,9.5l0,0C3,9.5,3,9.5,3,9.5z M5.1,9.3c-0.2,0-0.3,0-0.5-0.1C4.4,9.1,4.2,8.9,4.2,8.7C4.1,8.6,4.1,8.4,4.1,8.2
		c0-0.2,0-0.3,0.1-0.4c0.1-0.2,0.2-0.4,0.4-0.5c0.2-0.1,0.3-0.2,0.5-0.2c0,0,0.1,0,0.1,0c0.1,0,0.2,0,0.3,0c0.2,0,0.4,0.2,0.5,0.3
		c0.1,0.1,0.2,0.3,0.2,0.4c0,0.1,0,0.4,0,0.5C6.1,8.7,5.9,9,5.6,9.1C5.4,9.2,5.3,9.3,5.1,9.3L5.1,9.3L5.1,9.3z M5.2,7.7
		c-0.1,0-0.2,0-0.3,0.1C4.8,7.9,4.8,8,4.7,8.1c0,0.1,0,0.1,0,0.2c0,0.1,0,0.1,0,0.2c0,0.1,0.1,0.1,0.1,0.1c0.1,0,0.1,0,0.2,0
		c0.1,0,0.1,0,0.3-0.1c0.2-0.1,0.3-0.2,0.3-0.4c0,0,0-0.2,0-0.2c0,0,0-0.1-0.1-0.1c0-0.1-0.1-0.1-0.2-0.1C5.3,7.7,5.3,7.7,5.2,7.7
		L5.2,7.7L5.2,7.7z"/>
</g>
</svg>
