<?xml version="1.0" encoding="utf-8"?>
<!-- Generator: Adobe Illustrator 26.1.0, SVG Export Plug-In . SVG Version: 6.00 Build 0)  -->
<svg version="1.1" id="Layer_1" xmlns="http://www.w3.org/2000/svg" xmlns:xlink="http://www.w3.org/1999/xlink" x="0px" y="0px"
	 viewBox="0 0 16 16" style="enable-background:new 0 0 16 16;" xml:space="preserve">
<style type="text/css">
	.st0{fill:#6485C3;}
	.st1{opacity:0.5;fill:#FFFFFF;enable-background:new    ;}
</style>
<g id="icon">
	<path class="st0" d="M16,13.5c0-0.5,0-0.6-0.1-1.3c-0.2-2.4-1-9.7-1.3-10.3c-0.2-0.3-0.5-0.4-0.7-0.5c-0.6-0.2-1.6-0.3-3.6-0.3
		C9.9,1,7,1,6.5,1h0c-2.2,0-3.6,0.1-4.4,0.3C1.8,1.4,1.4,1.5,1.3,1.9C1,2.5,0.3,9,0.1,11.7c0,0.5-0.1,2-0.1,2.3
		c0.1,0.3,0.3,0.5,0.4,0.6C1,15.3,2.5,15.8,4.3,16c0.4,0,1.2,0,1.6,0c0.8-0.1,1.4-0.3,1.7-0.7c0-0.1,0.1-0.2,0.2-0.3l0,0
		c0,0,0-0.1,0.1-0.4c0-0.3,0.1-0.5,0.2-1.2c0-0.1,0-0.2,0-0.3c0,0.1,0,0.2,0.1,0.3c0.1,0.6,0.1,0.9,0.2,1.2c0,0.3,0.1,0.4,0.1,0.4
		l0,0c0,0.1,0.1,0.2,0.2,0.3C9,15.8,9.8,16,10.9,16c0.5,0,1,0,1.5-0.1c0.8-0.1,1.7-0.4,2.3-0.7c0.4-0.2,0.9-0.5,1.1-0.9l0.1-0.2
		L16,13.5z M14,3.5C13.2,4,10.2,4.1,8.6,4.1l0.7,2.2C9.3,6.6,9.2,6.9,8.9,7c0,0-0.1,0-0.1,0C8.6,7,8.4,6.8,8.3,6.6L7.8,5.2L7.1,7.4
		C7,7.7,6.8,7.8,6.6,7.8c-0.1,0-0.1,0-0.2,0C6.2,7.7,6,7.4,6.1,7.1l1-3C6,4.1,5,4,4.1,3.9C2.5,3.8,2,3.6,1.8,3.4
		C1.6,3.2,1.7,2.8,1.9,2.7c0.2-0.2,0.6-0.2,0.8,0C3,2.9,4.8,3.1,8,3.1c3.2,0,5-0.2,5.3-0.4c0.3-0.2,0.6-0.1,0.8,0.1
		C14.3,3,14.2,3.3,14,3.5z"/>
	<path class="st1" d="M14.1,2.8c-0.2-0.2-0.5-0.3-0.8-0.1C13,2.8,11.2,3.1,8,3.1c-3.1,0-5-0.2-5.3-0.4c-0.2-0.2-0.5-0.2-0.8,0
		C1.7,2.8,1.6,3.2,1.8,3.4C2,3.6,2.5,3.8,4.1,3.9C5,4,6,4.1,7.2,4.1l-1,3C6,7.4,6.2,7.7,6.4,7.8c0.1,0,0.1,0,0.2,0
		c0.2,0,0.4-0.1,0.5-0.3l0.8-2.3l0.5,1.5C8.4,6.8,8.6,7,8.8,7c0,0,0.1,0,0.1,0c0.3-0.1,0.4-0.4,0.3-0.6L8.6,4.1
		c1.6,0,4.7-0.1,5.4-0.6C14.2,3.3,14.3,3,14.1,2.8z"/>
</g>
</svg>
