<?xml version="1.0" encoding="utf-8"?>
<!-- Generator: Adobe Illustrator 26.1.0, SVG Export Plug-In . SVG Version: 6.00 Build 0)  -->
<svg version="1.1" id="Layer_1" xmlns="http://www.w3.org/2000/svg" xmlns:xlink="http://www.w3.org/1999/xlink" x="0px" y="0px"
	 viewBox="0 0 16 16" style="enable-background:new 0 0 16 16;" xml:space="preserve">
<style type="text/css">
	.st0{fill:#6E6F72;}
	.st1{opacity:0.5;fill:#FFFFFF;enable-background:new    ;}
	.st2{fill:#6486C4;}
</style>
<g id="icon">
	<path class="st0" d="M8.2,15.8c-0.1,0-0.2,0-0.3-0.1c0,0-0.1,0-0.1-0.1c-0.1,0-0.2-0.1-0.3-0.1l-0.2-0.2l0.4-0.7
		c0.4-0.6,0.4-0.6,0.5-0.6c0.2,0,0.3,0.2,0.4,0.2c0,0,0.1,0.1,0.1,0.1C9,14.6,9,14.8,9,15c0,0.1-0.4,0.6-0.4,0.7
		C8.5,15.7,8.3,15.8,8.2,15.8z M10.4,13c0.2-0.3,0.3-0.4,0.2-0.6c0-0.1-0.1-0.3-0.2-0.4l0,0l0,0c0,0,0,0,0-0.1
		c0-0.1-0.2-0.3-0.4-0.3l0,0l0,0c-0.1,0-0.1,0-0.4,0.5l-0.2,0.3c-0.1,0.1-0.1,0.2-0.1,0.2L9,12.9l0.2,0.2c0.1,0.1,0.1,0.1,0.3,0.1
		c0,0,0.1,0,0.1,0c0.1,0,0.2,0.1,0.3,0.1C10.1,13.4,10.2,13.2,10.4,13z M13.5,8.3c0,0,0.1-0.2,0.2-0.3c0.2-0.2,0.2-0.3,0.2-0.4
		c0-0.2-0.1-0.3-0.2-0.4c0,0-0.1-0.1-0.1-0.1c-0.1-0.1-0.1-0.2-0.3-0.2c0,0,0,0-0.1,0c-0.1,0-0.2,0-0.4,0.4
		c-0.1,0.1-0.1,0.2-0.2,0.3l-0.1,0.2L12.4,8l0.2,0.2c0.1,0.1,0.2,0.1,0.3,0.1c0,0,0.1,0,0.1,0c0.1,0,0.2,0.1,0.3,0.1
		C13.3,8.4,13.5,8.3,13.5,8.3z M15.4,5.4c0.1,0,0.2-0.1,0.4-0.4C16,4.7,16,4.6,16,4.5c0-0.2-0.1-0.3-0.2-0.4c0,0-0.1-0.1-0.1-0.1
		c-0.1-0.1-0.2-0.2-0.4-0.2c-0.1,0-0.1,0-0.5,0.6c-0.4,0.6-0.4,0.6-0.3,0.8c0.1,0.1,0.2,0.2,0.3,0.2c0,0,0.1,0,0.1,0
		c0.1,0,0.2,0.1,0.3,0.1C15.3,5.4,15.3,5.4,15.4,5.4z"/>
	<path class="st1" d="M9.2,10.5c0.1-0.1,0.3-0.5,0.6-0.9c0.3-0.4,0.6-0.9,0.7-1.1c0.1-0.2,0.3-0.4,0.4-0.5c0.1-0.1,0.2-0.3,0.3-0.4
		c0.2-0.3,0.3-0.4,0.7-0.3l0.1,0l0.8-1.1l-0.1-0.1c-0.1-0.2-0.2-0.2-0.2-0.3c0-0.1,0-0.2,0.2-0.3c0.1-0.1,0.2-0.2,0.2-0.4
		c0.3-0.5,0.5-0.8,0.6-0.9c0.1,0,0.2,0,0.4,0c0,0,0.1,0,0.1,0l0.8-1.1c0,0,0-0.1-0.1-0.1c-0.1-0.2-0.1-0.2-0.1-0.3
		c0-0.1,0.1-0.2,0.2-0.4c0.2-0.3,0.2-0.4,0.2-0.6c-0.1-0.2-0.3-0.5-0.6-0.8l-9.5,14c0.4,0.2,0.6,0.3,0.9,0.3c0.2,0,0.3,0,0.4-0.1
		c0.1,0,0.1-0.1,0.2-0.3c0.1-0.1,0.1-0.2,0.2-0.2c0.1,0,0.1,0,0.3,0.1c0,0,0.1,0,0.1,0l0.8-1.2c0,0,0,0,0-0.1
		c-0.2-0.3-0.2-0.4,0-0.6c0.1-0.1,0.1-0.2,0.1-0.2c0.1-0.3,0.2-0.4,0.4-0.4c0.1,0,0.2,0,0.3,0.1c0,0,0,0,0,0l0.8-1.1
		C9.1,10.9,9,10.8,9,10.7C9.1,10.7,9.1,10.6,9.2,10.5z"/>
	<path class="st1" d="M4.8,14.9l9.5-14c0,0,0,0,0,0c-0.6-0.6-1.1-0.8-1.7-0.8c-0.3,0-0.7,0.2-0.9,0.4c-0.1,0.1-0.3,0.2-0.5,0.5
		C10.3,2,9.7,2.5,8.8,2.9C8.6,3,7.2,3.6,7.2,3.6l-4,1.8C2.8,5.6,2.6,5.8,2.5,6c-0.2,0.3-0.2,0.3,0,0.8c0.1,0.5,0.2,0.6,0.4,1.2
		C3,8.1,3.1,8.4,3.2,8.5l0.1,0.2l0,0.3c0,0.3,0,0.3,0,0.4c0,0.1-0.1,0.3-0.3,0.5c-0.1,0.1-0.5,0.6-0.6,0.6c-0.3,0.3-0.9,0.4-1.2,0.2
		c0,0-0.1-0.1-0.2-0.2c-0.3-0.2-0.3-0.2-0.5-0.2c-0.1,0-0.2,0.1-0.2,0.2c0,0.1,0,0.1,0,0.3c0,0.2,0,0.2,0,0.3c0,0,0.1,0.1,0.1,0.1
		c0,0,0.1,0.1,0.1,0.2c0.1,0.3,0.4,0.7,0.9,1.2c0.7,0.7,1.1,1,1.7,1.4c0.6,0.4,1,0.6,1.5,0.8C4.7,14.9,4.7,14.9,4.8,14.9z"/>
	<path class="st0" d="M5.2,7.3c-0.2,0-0.3-0.1-0.4-0.2L4.1,5.9C4,5.7,4.1,5.4,4.3,5.3C4.6,5.1,4.9,5.2,5,5.4l0.6,1.1
		c0.1,0.2,0.1,0.5-0.2,0.7C5.4,7.3,5.3,7.3,5.2,7.3z M7.1,6.5c0.2-0.1,0.3-0.4,0.2-0.7l-0.5-1C6.6,4.6,6.3,4.5,6.1,4.6
		C5.8,4.7,5.7,5,5.9,5.3l0.5,1c0.1,0.2,0.3,0.3,0.4,0.3C6.9,6.6,7,6.5,7.1,6.5z M8.7,5.7C8.9,5.5,9,5.2,8.9,5L8.4,4
		C8.2,3.7,7.9,3.7,7.7,3.8C7.4,3.9,7.3,4.2,7.5,4.5l0.5,1c0.1,0.2,0.3,0.3,0.4,0.3C8.5,5.7,8.6,5.7,8.7,5.7z"/>
	<path class="st2" d="M6,16c0,0-0.1,0-0.1,0c-0.4,0-0.7-0.1-1.3-0.4c-0.5-0.2-1-0.5-1.6-0.9c-0.7-0.4-1.1-0.8-1.8-1.5
		c-0.6-0.5-0.9-1-1-1.4c0,0,0,0,0-0.1c-0.1-0.1-0.1-0.2-0.1-0.3C0,11.4,0,11.3,0,11.1c0-0.2,0-0.3,0.1-0.4c0.1-0.2,0.3-0.4,0.5-0.5
		c0.4-0.2,0.8,0.1,1,0.2c0.1,0.1,0.1,0.1,0.2,0.1c0.1,0,0.5,0,0.6-0.2c0.1-0.1,0.4-0.4,0.5-0.5C2.9,9.6,3,9.5,3,9.4c0,0,0,0,0,0
		c0,0,0-0.1,0-0.2L3,9l0-0.1c0-0.1-0.1-0.3-0.2-0.5C2.5,7.9,2.4,7.7,2.3,7.2C2.2,6.6,2.1,6.4,2.4,6c0.2-0.3,0.5-0.5,0.8-0.7l0,0
		l4.1-1.8h0c0.3-0.1,1.3-0.6,1.5-0.7c0.8-0.4,1.4-0.8,2.1-1.7c0.3-0.3,0.4-0.5,0.6-0.6C12,0.2,12.4,0,12.8,0
		c0.8-0.1,1.4,0.2,2.1,0.9c0.4,0.4,0.6,0.7,0.7,1c0.2,0.5,0,0.8-0.3,1.1c0,0-0.1,0.1-0.1,0.1c0,0,0,0,0,0c0,0,0.1,0.1,0.1,0.1
		l0.2,0.3l-1.2,1.7L14,5.1c0,0-0.1,0-0.1,0c0,0,0,0,0,0c-0.1,0.1-0.2,0.3-0.4,0.6c-0.1,0.1-0.2,0.3-0.3,0.4c0,0,0,0,0,0l0.3,0.3
		l-1.2,1.8l-0.4-0.2c0,0,0,0,0,0c0,0,0,0,0,0.1c-0.1,0.1-0.2,0.3-0.3,0.4c0,0-0.1,0.1-0.1,0.2c-0.1,0.1-0.2,0.2-0.2,0.3
		c-0.1,0.2-0.5,0.7-0.7,1.1c-0.2,0.2-0.5,0.8-0.6,0.9c0,0,0,0.1,0.1,0.1l0.2,0.3L9,13.2L8.6,13c0,0,0,0,0,0c0,0,0,0.1-0.1,0.1
		c0,0.1-0.1,0.2-0.2,0.3c0,0,0,0,0,0c0,0,0,0,0,0c0,0,0,0,0,0.1l0.2,0.3l-1.2,1.8L7,15.5c0,0,0,0,0,0c-0.1,0.2-0.2,0.3-0.3,0.4
		C6.4,16,6.2,16,6,16z M7,15.3L7,15.3L7,15.3z M1.1,11.3c0,0.1,0.1,0.2,0.1,0.2c0.1,0.2,0.4,0.6,0.8,1c0.7,0.7,1.1,1,1.7,1.4
		c0.5,0.3,1,0.6,1.4,0.8C5.7,14.9,5.8,15,6,15c0,0,0,0,0.1,0c0,0,0.1-0.1,0.1-0.1c0.1-0.1,0.2-0.4,0.6-0.4c0.1,0,0.1,0,0.2,0
		l0.4-0.6c-0.2-0.3-0.1-0.6,0.2-1c0-0.1,0.1-0.1,0.1-0.2c0.2-0.3,0.3-0.6,0.7-0.7c0.1,0,0.2,0,0.3,0L9,11.5
		c-0.1-0.2-0.1-0.3-0.1-0.5l0,0c0-0.1,0.1-0.2,0.2-0.4c0-0.1,0.3-0.4,0.6-0.9c0.3-0.4,0.6-1,0.8-1.1c0.1-0.1,0.2-0.2,0.2-0.3
		C10.7,8.1,10.7,8,10.8,8C10.9,7.9,11,7.7,11,7.6c0.2-0.4,0.5-0.6,0.9-0.6l0.4-0.5c-0.1-0.1-0.1-0.3-0.1-0.5c0-0.2,0.1-0.4,0.3-0.6
		c0-0.1,0.1-0.2,0.2-0.3c0.5-0.8,0.7-1,0.8-1C13.7,4,13.8,4,14,4.1l0.4-0.6c-0.1-0.1-0.1-0.2-0.1-0.4c0-0.3,0.2-0.5,0.3-0.7
		c0.1-0.1,0.1-0.1,0.1-0.1c0,0,0,0,0,0c-0.1-0.2-0.2-0.3-0.4-0.6C13.7,1.2,13.4,1,12.9,1c-0.2,0-0.5,0.1-0.7,0.3
		c-0.1,0.1-0.2,0.2-0.4,0.5C11,2.7,10.3,3.2,9.4,3.7C9.2,3.7,8.8,3.9,8.4,4.1C8,4.3,7.8,4.4,7.7,4.4l0,0l-4,1.8
		C3.4,6.3,3.3,6.4,3.2,6.5c0,0,0,0.1,0,0.1c0,0.1,0.1,0.2,0.1,0.3C3.4,7.4,3.5,7.5,3.7,8c0.1,0.2,0.2,0.5,0.2,0.6L4,8.8l0,0.4
		C4,9.4,4,9.5,4,9.7c-0.1,0.2-0.2,0.4-0.3,0.6c-0.1,0.2-0.5,0.6-0.7,0.7c-0.4,0.3-1.2,0.5-1.7,0.3C1.2,11.3,1.1,11.3,1.1,11.3z
		 M14,5L14,5L14,5z"/>
	<rect x="1.2" y="7.5" transform="matrix(0.5643 -0.8256 0.8256 0.5643 -2.403 11.3391)" class="st2" width="16.6" height="0.8"/>
</g>
</svg>
