<?xml version="1.0" encoding="utf-8"?>
<!-- Generator: Adobe Illustrator 26.1.0, SVG Export Plug-In . SVG Version: 6.00 Build 0)  -->
<svg version="1.1" id="Layer_1" xmlns="http://www.w3.org/2000/svg" xmlns:xlink="http://www.w3.org/1999/xlink" x="0px" y="0px"
	 viewBox="0 0 16 16" style="enable-background:new 0 0 16 16;" xml:space="preserve">
<style type="text/css">
	.st0{opacity:0.5;fill:#FFFFFF;enable-background:new    ;}
	.st1{fill:#6486C4;}
</style>
<g id="icon">
	<path class="st0" d="M9.8,14.2c-0.2,0-0.4-0.1-0.5-0.2c-0.1-0.1-0.1-0.2-0.2-0.3c0-0.1,0-0.3,0-0.4c0-0.1,1.1-2.5,1.2-2.6
		c0,0,0-0.1,0.1-0.1c0,0,0.1-0.1,0.1-0.1c0,0,0.1-0.1,0.1-0.1c0,0,0.4-0.2,0.8-0.5c0.9-0.5,0.9-0.5,0.9-0.5c0,0,0,0-0.4-0.6
		c-0.1-0.2-0.4-0.6-0.4-0.6l0,0l0,0l0,0c0,0-0.1,0-0.2,0.1c-0.1,0.1-0.2,0.2-0.4,0.3c-0.1,0-0.1,0-0.1,0c0,0-0.1,0-0.2,0
		c0,0-0.1,0-0.2,0l-0.1,0c-0.1,0-0.2,0-0.2-0.1c-0.1,0-0.4-0.1-0.6-0.2C9.1,8,9,8,9,8C8.7,7.8,8.4,7.5,8.4,7.3
		C8.3,7.1,8.3,7,8.5,6.8c0.1-0.1,0.1-0.1,0.2-0.1c0,0,0.1,0,0.1,0c0.1,0,0.3,0,0.8,0.2l0.2,0.1C10.3,7,10.3,7,10.3,7
		c0.1,0,0.1,0,0.5-0.5c0.2-0.2,0.4-0.4,0.5-0.5c0-0.1,0.1-0.1,0.1-0.1c0.2-0.2,0.5-0.3,0.7-0.3c0,0,0.1,0,0.1,0c0.1,0,0.1,0,0.2,0
		C12.6,5.6,12.8,5.7,13,6c0.3,0.4,0.7,1,1.4,2.3c0.1,0.2,0.3,0.5,0.3,0.6c0.1,0.2,0.1,0.2,0.1,0.5c0,0.3-0.1,0.6-0.3,0.8
		c-0.1,0.1-0.1,0.1-0.2,0.2c0,0-0.1,0.1-0.2,0.1c-0.1,0-0.2,0.1-0.2,0.1c-0.1,0-0.7,0.3-1.2,0.6l-1.2,0.5L11,12.7
		c-0.4,0.7-0.6,1.2-0.7,1.2c-0.1,0.1-0.2,0.2-0.3,0.2C10,14.2,9.9,14.2,9.8,14.2L9.8,14.2z"/>
	<path class="st1" d="M15.1,8.6c0-0.1-0.2-0.3-0.3-0.5c-0.7-1.3-1.1-1.9-1.5-2.4c-0.3-0.3-0.5-0.5-0.8-0.5c-0.1,0-0.2,0-0.3,0
		c-0.1,0-0.1,0-0.1,0c-0.3,0-0.6,0.2-0.9,0.4C11.1,5.6,11,5.7,11,5.8c0,0-0.1,0.2-0.4,0.5c-0.1,0.1-0.2,0.2-0.3,0.3
		c-0.1,0-0.5-0.1-0.5-0.1C9.1,6.3,9,6.3,8.8,6.3c-0.1,0-0.2,0-0.2,0c-0.2,0-0.3,0.1-0.4,0.3C8,6.8,7.9,7.1,8,7.5
		c0.1,0.3,0.5,0.7,0.8,0.9c0,0,0.1,0.1,0.7,0.2c0.3,0.1,0.6,0.2,0.6,0.2c0.1,0,0.2,0.1,0.3,0.1l0.1,0c0.1,0,0.1,0,0.2,0
		c0.1,0,0.2,0,0.2,0c0.1,0,0.1,0,0.2,0c0.1,0,0.3-0.1,0.4-0.2c0,0.1,0.1,0.2,0.2,0.3c0.1,0.1,0.1,0.2,0.2,0.3
		c-0.1,0.1-0.3,0.2-0.5,0.3C11,9.7,10.5,10,10.4,10l0,0c0,0-0.1,0.1-0.2,0.2c0,0,0,0.1-0.1,0.1c-0.1,0-0.1,0.1-0.1,0.2
		C10,10.6,8.9,13,8.8,13.2c-0.1,0.2-0.1,0.4,0,0.6c0,0.2,0.1,0.3,0.2,0.5c0.2,0.2,0.5,0.4,0.8,0.4c0.2,0,0.3,0,0.5-0.1
		c0.1-0.1,0.3-0.2,0.4-0.3l0,0c0.1-0.1,0.6-1.1,0.7-1.3l0.6-1.1l1-0.5c0.6-0.3,1.1-0.5,1.2-0.5c0.1,0,0.2-0.1,0.2-0.1
		c0.1,0,0.1-0.1,0.2-0.1c0.1-0.1,0.2-0.1,0.3-0.3c0.2-0.3,0.3-0.6,0.3-1C15.3,9,15.2,8.9,15.1,8.6z M14.5,9.3c0,0.3-0.1,0.4-0.2,0.6
		c0,0,0,0,0,0c-0.1,0-0.2,0.1-0.2,0.1c-0.1,0-0.1,0.1-0.1,0.1c-0.1,0-0.9,0.4-1.3,0.6l-1.3,0.6l-0.7,1.3c-0.4,0.7-0.6,1.1-0.6,1.2
		c0,0-0.1,0.1-0.1,0.1c0,0-0.1,0-0.1,0c-0.1,0-0.2,0-0.2-0.1c0,0,0-0.1-0.1-0.1c0-0.1,0-0.1,0-0.2c0.1-0.2,1-2.3,1.1-2.6
		c0.1-0.1,0.1-0.2,0.2-0.2c0,0,0,0,0,0c0.1-0.1,0.4-0.2,0.8-0.5c0.4-0.2,0.6-0.4,0.8-0.4c0.1-0.1,0.3-0.2,0.3-0.4
		c0-0.2,0-0.2-0.5-0.8c-0.4-0.6-0.4-0.6-0.4-0.6l0,0l-0.2-0.1l-0.2,0c-0.3,0-0.4,0.2-0.5,0.3c-0.1,0.1-0.1,0.1-0.1,0.1c0,0,0,0,0,0
		c0,0,0,0-0.1,0c0,0-0.1,0-0.2,0l-0.1,0c0,0-0.1,0-0.2,0c-0.1-0.1-0.7-0.2-0.7-0.2C9.3,7.7,9.2,7.6,9.2,7.6C9,7.5,8.8,7.3,8.7,7.2
		c0,0,0-0.1,0-0.1c0,0,0,0,0.1,0c0,0,0,0,0,0c0.1,0,0.4,0.1,0.7,0.2l0.2,0.1c0.5,0.1,0.5,0.1,0.6,0.1c0.2,0,0.2,0,0.8-0.6
		c0.4-0.5,0.5-0.6,0.5-0.6c0,0,0.1-0.1,0.1-0.1C11.8,6,12,5.9,12.2,5.9c0,0,0,0,0,0c0,0,0.1,0,0.1,0c0.1,0,0.3,0.1,0.4,0.3
		c0.3,0.4,0.7,1,1.4,2.2c0.1,0.2,0.3,0.5,0.3,0.6C14.5,9.1,14.5,9.1,14.5,9.3z"/>
	<path class="st0" d="M9.9,5.5c-0.2,0-0.2,0-0.3,0C9.2,5.3,8.9,5,8.8,4.6c0-0.1,0-0.1,0-0.3c0-0.2,0-0.2,0-0.3
		c0.1-0.4,0.4-0.7,0.8-0.8c0.1,0,0.1,0,0.2,0c0,0,0,0,0.1,0c0,0,0.1,0,0.1,0c0.2,0,0.4,0.1,0.6,0.2C10.8,3.4,11,3.7,11.1,4
		c0,0.1,0,0.1,0,0.3c0,0.2,0,0.2,0,0.3c-0.1,0.4-0.4,0.7-0.8,0.8C10.1,5.5,10.1,5.5,9.9,5.5z"/>
	<path class="st1" d="M11.5,4.3c0-0.2,0-0.3,0-0.4c-0.1-0.4-0.3-0.7-0.7-0.9c-0.3-0.2-0.5-0.2-0.8-0.2c0,0-0.1,0-0.1,0
		c-0.1,0-0.1,0-0.1,0l0,0l0,0c0,0-0.1,0-0.2,0C9,2.9,8.6,3.3,8.4,3.9c0,0.2,0,0.2,0,0.4c0,0.2,0,0.3,0,0.4c0.2,0.6,0.6,1,1.1,1.1
		c0.1,0,0.2,0,0.4,0c0.2,0,0.3,0,0.4,0c0.5-0.2,1-0.6,1.1-1.1C11.5,4.6,11.5,4.5,11.5,4.3z M10.7,4.5c-0.1,0.3-0.3,0.5-0.6,0.6
		c-0.1,0-0.1,0-0.2,0c-0.1,0-0.1,0-0.2,0C9.4,5,9.2,4.8,9.1,4.5c0-0.1,0-0.1,0-0.2c0-0.1,0-0.1,0-0.2c0.1-0.3,0.3-0.5,0.6-0.6
		c0,0,0.1,0,0.1,0c0,0,0,0,0,0c0,0,0.1,0,0.1,0c0.2,0,0.3,0,0.4,0.1c0.2,0.1,0.3,0.3,0.3,0.5c0,0.1,0,0.1,0,0.2
		C10.7,4.4,10.7,4.4,10.7,4.5z"/>
	<path class="st0" d="M15.3,13.6c-0.1-0.1-0.3-0.4-0.4-0.7l-0.4-0.6l0.2-1.2c-0.1,0-0.2,0.1-0.3,0.1c-0.1,0-0.5,0.2-1.1,0.5L12.9,12
		c0,0.2,0,0.4,0,0.4c0,0.2,0,0.4,0.1,0.5c0.1,0.1,1.5,1.7,1.6,1.8c0.1,0.1,0.3,0.2,0.4,0.2l0,0c0.2,0,0.3-0.1,0.4-0.2
		c0.2-0.2,0.2-0.4,0.2-0.6C15.6,14,15.5,13.9,15.3,13.6z"/>
	<path class="st1" d="M16,14c-0.1-0.2-0.1-0.3-0.3-0.6c-0.1-0.1-0.3-0.4-0.4-0.7l-0.3-0.5L15,11c-0.1,0.1-0.2,0.1-0.2,0.1
		c0,0-0.1,0-0.1,0.1c-0.1,0-0.2,0.1-0.3,0.2c0,0-0.1,0-0.2,0.1l-0.1,1.1l0.5,0.7c0.2,0.2,0.4,0.5,0.4,0.7c0.2,0.3,0.2,0.3,0.2,0.4
		c0,0.1,0,0.1-0.1,0.2c-0.1,0.1-0.1,0.1-0.2,0.1c-0.1,0-0.1,0-0.2-0.1c-0.2-0.2-1.4-1.6-1.5-1.7c0-0.1-0.1-0.2,0-0.2c0,0,0,0,0-0.2
		c0-0.1,0-0.3,0.1-0.5c0,0-0.1,0-0.1,0.1l-0.7,0.3c0,0,0,0.1,0,0.1c0,0,0,0.1,0,0.1c0,0.3,0,0.5,0.2,0.8c0.1,0.2,1.5,1.8,1.7,1.9
		c0.2,0.2,0.4,0.2,0.7,0.2c0.3,0,0.5-0.1,0.7-0.3C16,14.7,16.1,14.4,16,14z"/>
	<path class="st0" d="M0.4,7c0.3-0.3,0.8-0.6,0.9-0.7C1.6,6.1,1.8,6,1.9,5.8c0-0.2,0-0.3,0-0.3l0,0c0-0.1,0-0.1,0-0.2l0,0
		c0,0,0-0.1,0-0.1c0-0.1-0.2-2.1-0.2-2.2c0-0.2-0.1-0.3-0.3-0.4C1.4,2.6,1.2,2.6,1.1,2.6c0,0-0.1,0-0.1,0c-0.2,0-0.4,0.2-0.4,0.3
		C0.5,3.1,0.4,3.1,0.4,4.3c0,0.9,0,1,0,1.1c0,0,0,0.1,0,0.2C0.4,5.6,0.4,6.4,0.4,7z"/>
	<path class="st1" d="M0,7.4L0,7.4C0.2,7.2,0.5,7,0.8,6.7c0-0.5,0-1.1,0-1.2c0-0.1,0-0.2,0-0.3c0-0.1,0-0.3,0-1c0-1,0-1.1,0.1-1.2
		C0.9,3,1,3,1,3c0,0,0,0,0,0c0.1,0,0.2,0,0.2,0c0,0,0.1,0.1,0.1,0.1c0,0.2,0.2,1.9,0.2,2.1c0,0.1,0,0.2,0,0.3c0,0.1,0,0.4,0,0.6
		c0.3-0.3,0.6-0.5,0.8-0.6c0-0.1,0-0.1,0-0.1l0,0c0,0,0,0,0,0c0-0.1,0-0.2,0-0.2c0-0.2-0.2-2.1-0.2-2.2l0,0C2,2.7,1.9,2.5,1.6,2.3
		C1.5,2.3,1.3,2.2,1.1,2.2c-0.1,0-0.1,0-0.2,0C0.6,2.3,0.3,2.5,0.2,2.8C0.1,3,0.1,3.1,0,4.2c0,1,0,1.1,0,1.1l0,0l0,0
		C0,5.6,0,6.8,0,7.4z"/>
	<path class="st0" d="M4.4,11.6c-0.1,0-0.3,0-0.4-0.1c-0.4-0.1-1.1-0.6-2.1-1.4C1.6,10,1.5,9.9,1.4,9.8L1.2,9.6
		C1,9.5,0.9,9.4,0.9,9.4c0,0-0.1-0.1-0.1-0.1C0.7,9.2,0.6,9.1,0.6,8.9C0.5,8.6,0.6,8.2,0.7,8c0.1-0.1,0.5-0.4,1.2-1
		c1.2-0.9,1.2-1,1.2-1c0,0,0.1-0.1,0.4-1.4c0.3-1.1,0.3-1.3,0.4-1.4C4,3.2,4.2,3,4.3,3c0,0,0.1,0,0.2,0c0.1,0,0.3,0,0.3,0.1
		c0.1,0,0.2,0.2,0.3,0.3c0,0,0.1,0.1,0.1,0.2c0,0.2,0,0.2-0.2,1.7C4.8,6,4.6,6.6,4.6,6.6c0,0,0,0,0,0.1c0,0-0.1,0.1-0.1,0.1
		c0,0,0,0.1-0.1,0.1c0,0-0.2,0.2-0.6,0.6C3.2,8.1,3.2,8.1,3.2,8.2l0,0l0,0c0,0,0.2,0.1,0.5,0.3c0.5,0.3,0.5,0.3,0.5,0.3
		c0.1,0,0.1-0.1,0.1-0.2c0.1-0.2,0.1-0.3,0.2-0.4c0.1-0.1,0.1-0.1,0.4-0.2C5.8,8.1,6.4,8,6.4,8c0.1,0,0.3,0,0.4,0.1
		C7,8.1,7.2,8.3,7.3,8.4c0.1,0.2,0,0.5-0.1,0.7C7.1,9.1,7,9.2,6.4,9.3L5.9,9.4L5.6,10c-0.2,0.6-0.2,0.6-0.2,0.7c0,0,0,0.2-0.1,0.2
		c0,0.1-0.2,0.3-0.3,0.4C4.8,11.5,4.6,11.6,4.4,11.6z"/>
	<path class="st1" d="M7.6,8.2C7.5,8,7.2,7.8,7,7.7C6.9,7.7,6.6,7.6,6.4,7.6C6.3,7.6,5.2,7.8,5,7.8C4.7,7.9,4.6,7.9,4.4,8.1
		C4.3,8.2,4.2,8.3,4.2,8.4c-0.1,0-0.3-0.2-0.4-0.2C3.9,8.1,4,8,4.1,7.9c0.5-0.5,0.6-0.6,0.7-0.7l0,0C4.8,7.1,4.9,7,4.9,7
		c0,0,0,0,0,0c0,0,0.1-0.1,0.1-0.1l0,0l0,0C5,6.7,5.2,6,5.3,5.3c0.3-1.6,0.3-1.6,0.2-1.9c0-0.1-0.1-0.2-0.1-0.3C5.4,3,5.2,2.8,5,2.7
		C4.9,2.6,4.7,2.6,4.5,2.6c-0.1,0-0.2,0-0.2,0C4,2.7,3.7,2.9,3.6,3.2C3.5,3.3,3.5,3.4,3.2,4.6C3,5.2,2.9,5.7,2.8,5.8
		C2.7,5.9,2.3,6.3,1.7,6.8C1,7.3,0.6,7.7,0.5,7.7l0,0l0,0C0.2,8.1,0.1,8.6,0.2,9c0.1,0.2,0.1,0.4,0.3,0.6c0,0,0.1,0.1,0.1,0.1
		c0.1,0.1,0.3,0.2,0.3,0.3l0.6,0.5c1.1,0.8,1.8,1.3,2.2,1.5C4,12,4.2,12,4.4,12c0.4,0,0.7-0.2,1-0.4c0.1-0.1,0.3-0.4,0.3-0.5
		c0-0.1,0.1-0.2,0.1-0.3c0,0,0.1-0.2,0.2-0.6l0.2-0.4l0.4-0.1c0.6-0.1,0.7-0.2,0.9-0.3C7.7,9,7.8,8.5,7.6,8.2z M6.9,8.8
		C6.9,8.8,6.9,8.8,6.9,8.8c0,0-0.4,0.1-0.5,0.1L5.6,9.1L5.2,9.9C5,10.5,5,10.6,5,10.6c0,0,0,0.1,0,0.1c0,0-0.1,0.2-0.2,0.3
		c-0.1,0.1-0.2,0.2-0.4,0.2l0,0c-0.1,0-0.2,0-0.3-0.1c-0.2-0.1-0.7-0.3-2-1.4L1.4,9.3C1.3,9.2,1.2,9.2,1.2,9.2c0,0-0.1-0.1-0.1-0.2
		C1,9,1,8.9,1,8.8c0-0.2,0-0.4,0.1-0.5c0.1-0.1,0.5-0.4,1.1-0.9c1.2-1,1.2-1,1.3-1c0.1-0.1,0.1-0.1,0.5-1.5c0.2-0.8,0.3-1.2,0.3-1.3
		c0-0.1,0.1-0.1,0.2-0.1c0,0,0,0,0.1,0c0.1,0,0.1,0,0.2,0c0,0,0.1,0.1,0.1,0.1c0,0,0,0.1,0,0.1c0,0.1,0,0.1-0.3,1.5
		C4.4,5.8,4.3,6.3,4.3,6.5c0,0.1-0.1,0.2-0.1,0.2c0,0,0,0,0,0C4.1,6.8,3.9,7,3.6,7.3C2.9,7.9,2.8,8,2.8,8.2l0,0.2L3,8.6
		c0,0,0.1,0.1,0.6,0.4c0.6,0.4,0.6,0.4,0.7,0.4c0.1,0,0.4,0,0.5-0.4c0.1-0.2,0.1-0.2,0.1-0.2c0,0,0,0,0.2-0.1C6,8.4,6.4,8.4,6.5,8.4
		c0.1,0,0.2,0,0.3,0.1c0.1,0,0.2,0.1,0.2,0.1C7,8.6,6.9,8.7,6.9,8.8z"/>
	<path class="st0" d="M7.4,12.8c-0.3,0-0.5-0.1-0.7-0.2c-0.4-0.3-0.5-0.8-0.5-1.2c0.1-0.3,0.2-0.5,0.4-0.7c0.2-0.1,0.3-0.2,0.6-0.3
		c0,0,0.1,0,0.2,0c0.1,0,0.2,0,0.3,0c0.3,0.1,0.5,0.3,0.7,0.5c0.1,0.1,0.1,0.2,0.2,0.4c0,0.1,0,0.1,0,0.3c0,0.2,0,0.2,0,0.3
		c-0.1,0.2-0.2,0.4-0.3,0.6C8,12.7,7.7,12.8,7.4,12.8C7.4,12.8,7.4,12.8,7.4,12.8z"/>
	<path class="st1" d="M8.9,11.2c-0.1-0.2-0.1-0.3-0.2-0.5c-0.2-0.3-0.5-0.6-0.9-0.7c-0.1,0-0.3,0-0.4,0c-0.1,0-0.2,0-0.3,0
		c-0.3,0.1-0.5,0.2-0.7,0.3c-0.3,0.2-0.5,0.5-0.5,0.9c-0.1,0.6,0.1,1.2,0.6,1.6c0.3,0.2,0.6,0.3,1,0.3c0.4,0,0.8-0.2,1.1-0.4
		c0.2-0.2,0.3-0.4,0.4-0.7c0-0.1,0-0.2,0-0.4C8.9,11.4,8.9,11.3,8.9,11.2z M8.2,11.6c0,0.1,0,0.1,0,0.2c0,0.2-0.1,0.3-0.2,0.4
		c-0.2,0.1-0.4,0.2-0.6,0.2c-0.2,0-0.4-0.1-0.5-0.2c-0.3-0.2-0.4-0.5-0.3-0.8c0-0.2,0.1-0.4,0.3-0.5c0.1-0.1,0.2-0.1,0.4-0.2
		c0,0,0,0,0.1,0c0.1,0,0.2,0,0.2,0c0.2,0.1,0.4,0.2,0.5,0.3c0.1,0.1,0.1,0.2,0.1,0.3C8.2,11.4,8.2,11.4,8.2,11.6z"/>
</g>
</svg>
