<?xml version="1.0" encoding="utf-8"?>
<!-- Generator: Adobe Illustrator 26.1.0, SVG Export Plug-In . SVG Version: 6.00 Build 0)  -->
<svg version="1.1" id="Layer_1" xmlns="http://www.w3.org/2000/svg" xmlns:xlink="http://www.w3.org/1999/xlink" x="0px" y="0px"
	 viewBox="0 0 16 16" style="enable-background:new 0 0 16 16;" xml:space="preserve">
<style type="text/css">
	.st0{fill:#6485C3;}
	.st1{fill:#6E6F72;}
</style>
<g id="icon">
	<path class="st0" d="M7.1,14.2c-0.3,0-0.5-0.1-0.7-0.3c-0.1-0.1-0.2-0.3-0.3-0.4c0-0.1-0.1-0.5-0.2-2.8l0-0.5L5.4,9.5
		C4.6,8.5,4.2,8,4.1,7.8C4,7.7,4,7.6,4,7.5c0,0,0-0.1,0-0.2C3.8,6.6,4.2,6,4.9,5.8c0.3-0.1,0.4-0.1,1.5-0.1c0.3,0,0.5,0,0.6,0
		C6.8,5.6,6.5,5.5,6,5.2C5.3,4.9,4.5,4.6,4.5,4.5C4.3,4.4,4.1,4.2,4.1,3.9c0-0.1,0-0.2,0-0.3C4.1,3.3,4.4,3.1,4.7,3
		c0.1,0,0.1,0,0.2,0C5,3,5.1,3,5.1,3c0.1,0,0.8,0.3,1.4,0.6C7.3,3.9,7.9,4.1,8,4.1c0.1,0,0.2,0.1,0.2,0.1c0,0,0.4,0.2,1.1,0.7L9.4,5
		c1.1,0.7,1.1,0.7,1.3,0.9C10.8,6,10.9,6.1,11,6.2C11.1,6.4,11.1,6.7,11,7c-0.1,0.3-0.2,0.6-0.3,0.8C10.4,8.2,10,8.5,9.4,8.6
		c-0.1,0-0.7,0-1.1,0c-0.3,0-0.5,0-0.7,0c-0.1,0-0.1,0-0.2,0c0,0.1,0.1,0.2,0.2,0.3C7.8,9,7.9,9.3,8,9.4c0,0.1,0,0.2,0.1,0.4
		c0,0.1,0,1,0,1.8c0,1.6,0,1.7,0,1.8C8,13.9,7.6,14.2,7.1,14.2L7.1,14.2L7.1,14.2L7.1,14.2z M0.9,12.4c-0.1,0-0.3,0-0.4-0.1
		C0.2,12.2,0,11.8,0,11.5c0-0.4,0.2-0.7,0.7-0.9c0.1,0,0.7-0.3,1.3-0.5c0.6-0.2,1-0.4,1.1-0.5c0,0,0.1-0.2,0.1-0.2l0.3-0.8L3.5,8
		l0.3,0.3C4,8.7,4.4,9.1,5,9.9l0.2,0.3l-0.1,0.1c0,0.1-0.1,0.3-0.2,0.4c0,0-0.1,0.1-0.1,0.1c0,0.1-0.2,0.3-0.3,0.4
		c-0.1,0.1-0.2,0.1-0.2,0.2c-0.2,0.1-3.2,1-3.4,1C1,12.4,0.9,12.4,0.9,12.4L0.9,12.4z M11,12.1c-0.2-0.2-0.4-0.4-0.6-0.6l-0.1-0.1
		c-0.9-0.9-0.9-0.9-1-1.1l0,0C9.2,10,9.1,9.9,9.1,9.5l0-0.3l0.2,0c0.1,0,0.2,0,0.3,0c0.5-0.1,0.8-0.2,1.1-0.5L11,8.5l0,0.4
		c0,0.1,0,0.2,0,0.3l0,0.3l0.2,0.2c0.2,0.2,0.4,0.5,0.6,0.7l0.3,0.4l-0.1,0.1c-0.3,0.3-0.5,0.7-0.6,1.1l-0.1,0.4L11,12.1z M13.5,7.8
		c-0.1,0-0.1,0-0.1,0c-0.8-0.1-1.4-0.6-1.6-1.4c0-0.2,0-0.5,0-0.7c0.2-0.7,0.7-1.3,1.4-1.4c0.1,0,0.2,0,0.3,0c0.2,0,0.3,0,0.4,0
		c0.8,0.2,1.3,0.8,1.3,1.6c0,0.8-0.5,1.6-1.4,1.8C13.8,7.7,13.7,7.8,13.5,7.8z"/>
	<path class="st1" d="M15.9,12.2c-0.2-0.8-0.8-1.3-1.5-1.5c-0.1,0-0.3-0.1-0.6-0.1c-0.1,0-0.2,0-0.3,0c-0.9,0.2-1.6,0.9-1.7,1.8
		c0,0.1,0,0.2,0,0.4c0,1.1,0.9,2,2,2c0,0,0.1,0,0.1,0c0.3,0,0.6-0.1,0.9-0.2c0.6-0.3,1-0.9,1.2-1.6C16,12.8,16,12.4,15.9,12.2z"/>
</g>
</svg>
