<?xml version="1.0" encoding="utf-8"?>
<!-- Generator: Adobe Illustrator 26.1.0, SVG Export Plug-In . SVG Version: 6.00 Build 0)  -->
<svg version="1.1" id="Layer_1" xmlns="http://www.w3.org/2000/svg" xmlns:xlink="http://www.w3.org/1999/xlink" x="0px" y="0px"
	 viewBox="0 0 16 16" style="enable-background:new 0 0 16 16;" xml:space="preserve">
<style type="text/css">
	.st0{fill:#6E6F72;}
	.st1{opacity:0.5;fill:#FFFFFF;enable-background:new    ;}
	.st2{fill:#6486C4;}
</style>
<g id="icon">
	<path class="st0" d="M0,15.5V16h8h8v-0.5V15H8H0V15.5z"/>
	<path class="st1" d="M2.4,14c-0.2,0-0.3,0-0.4,0c-0.1,0-0.2,0-0.2,0c0,0-0.1,0-0.1-0.1c0,0,0-1.2,0.1-2c0.1-1.3,0.1-1.4,0.1-1.5
		c0-0.1,0-0.2,0.1-1.6c0.1-0.7,0.1-1.5,0.1-1.7c0-0.3,0.1-0.6,0.3-0.8c0.2-0.2,0.3-0.2,0.8-0.3c0.1,0,0.2,0,0.3,0c0.2,0,0.3,0,0.4,0
		c0.4,0.1,0.7,0.3,1,0.8c0.1,0.2,0.2,0.4,0.4,0.8c0.3,0.7,0.5,1,0.7,1.5c0.2,0.4,0.2,0.6,0.5,1.1l0.2,0.5l0.2,0c0.5,0,1.5,0,2.9,0
		c0.8,0,1.7,0,2.3,0c0.5,0,0.9,0,1.2,0c0.3,0,0.4,0,0.4,0c0.1,0,0.3,0.1,0.4,0.1c0.3,0.1,0.4,0.4,0.4,0.6c0,0.3-0.1,0.5-0.4,0.6
		c-0.3,0.1-7,0.7-7.4,0.7c-0.1,0-0.2,0-0.3,0c-0.3,0-0.6,0-0.8,0c-0.1,0-0.1,0-0.1,0c-0.4-0.1-0.6-0.4-0.9-0.8c0,0-0.1-0.4-0.3-0.8
		c-0.2-0.3-0.3-0.7-0.5-0.9l-0.1-0.1L3.6,9.9l-0.1,0.3c0,0,0,0.1,0,0.2c0,0,0,0.1,0,0.2c0,0.1-0.2,0.3-0.3,1.5
		c-0.1,0.8-0.3,1.9-0.3,1.9c0,0,0,0.1-0.1,0.1C2.8,14,2.6,14,2.4,14z"/>
	<path class="st2" d="M2.4,14.5c-0.1,0-0.3,0-0.4,0c0,0-0.2,0-0.3,0c-0.2-0.1-0.4-0.2-0.4-0.5l0,0c0-0.1,0-1.2,0.1-2
		c0.1-1.1,0.1-1.4,0.1-1.4c0-0.1,0-0.2,0.1-1.7c0.1-0.9,0.1-1.5,0.1-1.6c0-0.5,0.2-0.8,0.5-1.1c0.3-0.3,0.6-0.3,1-0.4
		c0.1,0,0.3,0,0.3,0c0.1,0,0.4,0,0.5,0.1C4.6,5.8,5,6.1,5.4,6.6c0.2,0.2,0.2,0.4,0.5,0.9c0.3,0.7,0.5,1,0.7,1.5
		C6.7,9.5,6.7,9.7,7,10.1l0.1,0.2c0.5,0,1.5,0,2.8,0c0.8,0,1.6,0,2.3,0l0,0c0.5,0,0.9,0,1.2,0c0.4,0,0.4,0,0.4,0l0,0
		c0.2,0,0.4,0.1,0.5,0.2c0.4,0.2,0.7,0.6,0.7,1c0,0.5-0.2,0.8-0.7,1.1l0,0c-0.4,0.1-7.4,0.7-7.5,0.8c-0.1,0-0.2,0-0.3,0
		c-0.3,0-0.6,0-0.8,0c-0.1,0-0.2,0-0.2,0c-0.6-0.1-0.9-0.6-1.2-1c0-0.1-0.1-0.1-0.1-0.2c0-0.1-0.1-0.3-0.2-0.6
		c-0.1-0.2-0.2-0.4-0.3-0.6c0,0.2-0.1,0.5-0.2,1c-0.1,0.8-0.3,1.9-0.3,2l0,0c-0.1,0.2-0.2,0.3-0.4,0.4l0,0
		C2.9,14.5,2.8,14.5,2.4,14.5z M2.1,13.6c0.1,0,0.1,0,0.2,0c0,0,0.1,0,0.1,0c0.1-0.4,0.2-1.1,0.2-1.6C2.8,10.9,3,10.5,3,10.4l0,0
		c0,0,0-0.1,0-0.1c0-0.1,0-0.2,0.1-0.2l0.4-1.3l0.9,1.7c0.1,0.2,0.3,0.6,0.5,0.9C5,11.6,5.1,11.8,5.1,12c0,0,0,0,0,0
		c0.2,0.4,0.4,0.5,0.6,0.6c0,0,0,0,0.1,0c0.2,0,0.5,0,0.7,0c0.1,0,0.2,0,0.3,0c0.6,0,6.6-0.6,7.3-0.7c0.1-0.1,0.1-0.2,0.1-0.2
		c0-0.1,0-0.2-0.2-0.2c0,0-0.1-0.1-0.2-0.1c0,0-0.1,0-0.4,0c-0.3,0-0.7,0-1.2,0l0,0c-0.7,0-1.5,0-2.3,0c-1.4,0-2.4,0-2.9,0l-0.5,0
		l-0.4-0.7C5.9,10,5.8,9.8,5.7,9.4C5.5,8.8,5.3,8.5,5,7.9C4.8,7.5,4.7,7.3,4.6,7.1C4.3,6.8,4.1,6.6,3.9,6.6c0,0-0.2,0-0.3,0
		c-0.1,0-0.2,0-0.2,0C2.9,6.6,2.9,6.7,2.8,6.7C2.6,6.9,2.6,7,2.6,7.2c0,0.2-0.1,1.6-0.1,1.7c-0.1,0.9-0.1,1.4-0.1,1.5
		c0,0.2,0,0.2-0.1,1.6C2.2,12.5,2.1,13.2,2.1,13.6z M5.1,12C5.1,12,5.1,12,5.1,12C5.1,12,5.1,12,5.1,12z"/>
	<path class="st1" d="M4.5,4.8c-0.2,0-0.3,0-0.5-0.1C3.4,4.5,3,4,3,3.3c0-0.8,0.5-1.4,1.3-1.6c0.1,0,0.2,0,0.2,0
		c0.3,0,0.6,0.1,0.9,0.3C5.9,2.3,6.2,3,6,3.6C5.8,4.3,5.2,4.8,4.5,4.8C4.5,4.8,4.5,4.8,4.5,4.8z"/>
	<path class="st2" d="M4.5,5.2L4.5,5.2c-0.2,0-0.4,0-0.6-0.1c-0.8-0.3-1.3-1-1.4-1.8c0-1,0.7-1.9,1.7-2c0.1,0,0.2,0,0.3,0
		c0.4,0,0.8,0.1,1.1,0.3c0.7,0.5,1,1.3,0.8,2.1C6.2,4.6,5.4,5.2,4.5,5.2z M4.5,2.2c-0.1,0-0.1,0-0.2,0C3.8,2.3,3.4,2.7,3.4,3.3
		c0,0.5,0.3,0.8,0.8,1c0.1,0,0.2,0.1,0.3,0.1C5,4.3,5.4,4,5.6,3.5c0.1-0.4-0.1-0.9-0.4-1.2C4.9,2.2,4.7,2.2,4.5,2.2z"/>
</g>
</svg>
