<?xml version="1.0" encoding="utf-8"?>
<!-- Generator: Adobe Illustrator 26.1.0, SVG Export Plug-In . SVG Version: 6.00 Build 0)  -->
<svg version="1.1" id="Layer_1" xmlns="http://www.w3.org/2000/svg" xmlns:xlink="http://www.w3.org/1999/xlink" x="0px" y="0px"
	 viewBox="0 0 16 16" style="enable-background:new 0 0 16 16;" xml:space="preserve">
<style type="text/css">
	.st0{fill:#6E6F72;}
	.st1{fill:#6485C3;}
</style>
<g id="icon">
	<path class="st0" d="M11.5,12h-10C0.7,12,0,12.7,0,13.5V16h13v-2.5C13,12.7,12.3,12,11.5,12z"/>
	<path class="st0" d="M4.5,13H2v-1.2c0-0.7,0.6-1.2,1.2-1.2s1.2,0.6,1.2,1.2V13z M3,12h0.5v-0.2c0-0.1-0.1-0.2-0.2-0.2
		S3,11.6,3,11.8V12z"/>
	<path class="st0" d="M10.5,13H8v-1.2c0-0.7,0.6-1.2,1.2-1.2s1.2,0.6,1.2,1.2V13z M9,12h0.5v-0.2c0-0.1-0.1-0.2-0.2-0.2
		S9,11.6,9,11.8V12z"/>
	<path class="st1" d="M4.2,10.2C4,10.1,3.7,10,3.4,10c-0.1,0-0.2,0-0.3,0l-0.3,0l0-0.3c0-0.3,0-1.1,0-2.5c0-1.5,0-1.6,0-1.7
		c0-0.3,0.1-0.5,0.4-0.8c0.3-0.3,0.6-0.5,0.8-0.6c0.2-0.1,0.4-0.1,0.6-0.1c0.3,0,0.6,0.1,1,0.3C6,4.5,6.8,5,7.5,5.4
		C8,5.7,8.2,5.9,8.3,5.9c0.1-0.1,0.2-0.3,0.5-0.7c0.5-0.8,0.6-0.8,0.6-0.9c0,0,0.4-0.5,0.9-1.1c0.4-0.5,0.8-1.1,0.9-1.1
		c0.2-0.1,0.3-0.2,0.5-0.3c0.1,0,0.1,0,0.2,0c0.3,0,0.6,0.2,0.8,0.4c0.1,0.2,0.1,0.3,0.2,0.5c0,0.2,0,0.3-0.1,0.5
		c-0.1,0.1-1.9,2.8-2,2.9c0,0-0.2,0.4-0.5,0.7c-0.2,0.4-0.5,0.8-0.6,1C9.7,8,9.6,8.1,9.6,8.2c0,0.1-0.1,0.3-0.2,0.4
		C9.2,8.7,9,8.8,8.9,8.8C8.8,8.9,8.6,8.9,8.4,8.9c-0.3,0-0.6-0.1-0.8-0.2c-0.1,0-0.7-0.4-1.4-0.8C5.6,7.6,5.2,7.3,5,7.2
		c0,0.1,0,0.3-0.1,0.6c0,0.3-0.1,0.6-0.1,0.6c0,0.1,0,0.2,0,0.2c0,0.1-0.2,1-0.2,1.2l-0.1,0.6L4.2,10.2z M10.1,8.6
		c0-0.1,0.1-0.1,0.1-0.2l0,0l0,0c0-0.1,0.1-0.2,0.2-0.3c0.1-0.2,0.4-0.6,0.6-1c0.1-0.1,0.2-0.3,0.2-0.4l0.1-0.1l0.1,0
		c0.1,0,0.2,0,0.2,0c0.2,0,0.4,0,0.5,0c0.5,0,1,0,2,0.1c1,0,1,0,1.2,0.1c0.3,0.1,0.5,0.3,0.6,0.6c0.1,0.4-0.1,0.8-0.5,1
		c-0.2,0.1-0.3,0.1-1.6,0.2c-0.5,0-1.1,0.1-1.2,0.1l0,0c-0.1,0-0.5,0.1-0.7,0.1c-0.4,0.1-1,0.1-1.7,0.1l-0.4,0L10.1,8.6z M1.8,4.5
		c-0.5,0-0.9-0.2-1.3-0.5C0.2,3.6,0,3.2,0,2.7c0-0.8,0.6-1.5,1.5-1.6c0.1,0,0.2,0,0.2,0C2,1,2.3,1.1,2.5,1.2c0.6,0.3,1,0.8,1,1.5
		c0,0.5-0.2,1-0.6,1.4C2.7,4.3,2.3,4.5,1.8,4.5C1.8,4.5,1.8,4.5,1.8,4.5z M6.6,4.1C6.4,4,6.2,3.9,6,3.8C5.7,3.7,5.5,3.6,5.2,3.5
		L4.8,3.4l0.2-0.3c0.3-0.4,0.5-0.6,0.6-0.7c0.1-0.1,0.2-0.2,0.3-0.3c0.1-0.2,1.6-1.9,1.8-2C7.8,0.1,7.9,0.1,8.1,0c0.1,0,0.1,0,0.2,0
		c0.2,0,0.4,0.1,0.6,0.2C9,0.4,9.1,0.7,9.1,0.9c0,0.2-0.1,0.3-0.1,0.4C8.9,1.4,7.9,2.7,7.5,3.1C7.5,3.2,7.3,3.5,7.1,3.8
		C7,3.9,7,4,6.9,4.1L6.8,4.2L6.6,4.1z"/>
</g>
</svg>
