<?xml version="1.0" encoding="utf-8"?>
<!-- Generator: Adobe Illustrator 26.1.0, SVG Export Plug-In . SVG Version: 6.00 Build 0)  -->
<svg version="1.1" id="Layer_1" xmlns="http://www.w3.org/2000/svg" xmlns:xlink="http://www.w3.org/1999/xlink" x="0px" y="0px"
	 viewBox="0 0 16 16" style="enable-background:new 0 0 16 16;" xml:space="preserve">
<style type="text/css">
	.st0{fill:#EEAD56;}
	.st1{fill:#6485C3;}
	.st2{fill:#6E6F72;}
</style>
<g id="icon">
	<path class="st0" d="M2.5,10.2C2.4,9.9,2.1,9.7,1.7,9.7c-0.1,0-0.2,0-0.3,0C1.2,9.8,1,10,0.8,10.2c-0.1,0.2-0.1,0.5,0,0.8
		c0.2,0.3,0.5,0.5,0.8,0.5c0,0,0.1,0,0.1,0c0.3-0.1,0.5-0.2,0.7-0.5C2.7,10.8,2.7,10.5,2.5,10.2z"/>
	<path class="st1" d="M10.2,11.4L10.2,11.4c-0.3-0.4-0.7-1.3-1.2-2.1C8.7,8.6,8.3,8,8.2,7.8C7.9,7.3,7.8,7.1,7.8,6.9
		c0-0.2,0-0.4,0-0.5C7.8,6,8.2,5.6,8.7,5.3C9,5.1,9.3,4.9,9.6,4.8c0.1,0,0.6-0.2,1.4-0.6c0.8-0.4,1.3-0.6,1.4-0.6
		c0,0,0.1-0.1,0.2-0.1c0.1,0,0.1,0,0.2,0c0.3,0,0.5,0.1,0.7,0.3C13.6,4,15,6.5,15.1,6.7c0.1,0.3,0.1,0.7-0.2,0.9
		c-0.1,0.1-0.3,0.2-0.5,0.2c-0.2,0-0.4-0.1-0.6-0.3c-0.1-0.1-0.6-0.9-0.7-1c-0.4-0.6-0.5-0.8-0.6-0.9c-0.1,0.1-0.4,0.2-0.6,0.3
		l-0.6,0.3l0.1,0.2c0.4,0.6,1,1.5,1.6,2.3c0.7,1,1.3,1.9,1.7,2.4l0.2,0.3L10.2,11.4L10.2,11.4z M7.3,9.7c-0.1,0-0.2,0-0.3,0
		c-0.1,0-0.2-0.1-0.7-0.1l-1,0l0-0.2c0-0.2,0-0.4-0.2-0.6c0,0-0.1-0.1-0.6-0.5L4.2,7.8l0.5,0c0.8,0,2,0,2.1,0h0l0.4-0.5l0.1,0.3
		c0.1,0.2,0.2,0.3,0.3,0.6c0.1,0.1,0.2,0.3,0.5,0.8L8.2,9L8.1,9.1C8.1,9.2,8,9.2,8,9.3C7.9,9.4,7.8,9.5,7.6,9.6
		C7.5,9.6,7.4,9.7,7.3,9.7z M2.2,9C1.5,9,1.1,8.7,0.9,8.5C0.7,8.3,0.5,8,0.4,7.7c0-0.1-0.1-0.2-0.1-0.4c0-0.2,0-0.4,0-0.6l0,0
		C0.4,6,1,5.4,1.7,5.2c0.1,0,0.2,0,0.3,0c0,0,0.1,0,0.1,0c0.4,0,0.7,0.2,1.1,0.5c0.3,0.3,0.5,0.6,0.7,0.9C4,6.8,4,7,4,7.3l0,0.1
		L3.9,7.4L2.2,9L2.2,9z M7.2,5C6.9,5,6.7,5,6.5,4.9c-0.6-0.2-1-0.8-1.1-1.4c0-0.2,0-0.5,0-0.7c0.2-0.7,0.7-1.2,1.4-1.3
		c0.1,0,0.2,0,0.3,0c0.1,0,0.2,0,0.3,0c0.7,0.1,1.3,0.7,1.5,1.5c0,0.2,0,0.5,0,0.6c-0.1,0.4-0.2,0.7-0.5,1C8.2,4.7,8,4.8,7.8,4.9
		C7.6,5,7.4,5,7.2,5z"/>
	<path class="st2" d="M4.7,8.8C4.6,8.7,4.3,8.5,4,8.3C4,8.2,3.9,8.1,3.9,8.1c0,0,0,0,0-0.1c0-0.1,0-0.2,0.1-0.3C4,7.6,4,7.6,4,7.4
		l0-0.1c0-0.1,0-0.2-0.1-0.3c0,0-0.1,0-0.1,0C3.7,7,3.6,7,3.6,7.1l0,0c0,0-0.1,0.1-0.8,0.8L2,8.6C1.9,8.7,1.9,8.8,1.9,8.9
		C2,9,2.1,9.1,2.2,9.1l0.1,0c0.1,0,0.3,0,0.5-0.1c0.1,0,0.1,0,0.2,0c0,0,0,0,0,0c0,0,0,0,0.1,0c0,0,0,0,0.1,0c0,0,0.1,0.1,0.1,0.1
		c0.1,0.2,0.4,0.5,0.5,0.6c0,0,0.1,0.1,0.1,0.1c0,0,0,0,0,0C3.8,9.9,3.9,9.9,4,9.9c0,0,0,0,0,0c0.1,0,0.1,0,0.2,0
		c0.2-0.1,0.3-0.2,0.4-0.3C4.8,9.3,4.8,9,4.7,8.8z"/>
	<path class="st2" d="M0,11.9V13h1.5H2v1.5V16h1h0v-1.5V13h5h5v1.5V16h0.9H14v-1.5V13h0.5H16v-1.1V12H8H0V11.9z"/>
</g>
</svg>
