<?xml version="1.0" encoding="utf-8"?>
<!-- Generator: Adobe Illustrator 26.1.0, SVG Export Plug-In . SVG Version: 6.00 Build 0)  -->
<svg version="1.1" id="Layer_1" xmlns="http://www.w3.org/2000/svg" xmlns:xlink="http://www.w3.org/1999/xlink" x="0px" y="0px"
	 viewBox="0 0 16 16" style="enable-background:new 0 0 16 16;" xml:space="preserve">
<style type="text/css">
	.st0{opacity:0.5;fill:#FFFFFF;enable-background:new    ;}
	.st1{fill:#6E6F72;}
	.st2{fill:#6485C3;}
</style>
<g id="icon">
	<path class="st0" d="M11.1,6C11,6,11,6,10.9,5.9c-0.1-0.1-0.2-0.6-0.2-0.8c-0.1-0.5,0-0.6,0.6-1c0.3-0.2,0.4-0.3,0.6-0.3
		c0,0,0.1,0,0.2,0c0.1,0,0.2,0,0.3,0c0.4,0.1,0.7,0.4,0.9,0.8c0,0.1,0,0.1,0,0.3c0,0.2,0,0.2,0,0.3c-0.1,0.3-0.2,0.5-0.5,0.7
		C12.5,6,12.5,6,12.3,6c-0.1,0-0.1,0-0.2,0c-0.1,0-0.1-0.1-0.2-0.2l-0.3-0.3l-0.1,0.2c0,0,0,0.1-0.1,0.1C11.3,6,11.2,6,11.1,6z"/>
	<path class="st1" d="M11.1,6.4c-0.1,0-0.4,0-0.6-0.4c-0.1-0.2-0.2-0.7-0.3-0.9c-0.1-0.7,0-1,0.8-1.5c0.3-0.2,0.5-0.3,0.8-0.3
		c0.1,0,0.2,0,0.3,0c0.1,0,0.3,0,0.4,0c0.5,0.1,1,0.5,1.1,1.1c0,0.1,0.1,0.2,0.1,0.4c0,0.2,0,0.3-0.1,0.4c-0.1,0.3-0.3,0.6-0.6,0.9
		c-0.2,0.2-0.4,0.3-0.7,0.3c-0.2,0-0.2,0-0.4-0.1c-0.1,0-0.2-0.1-0.2-0.2C11.5,6.3,11.3,6.4,11.1,6.4z M11.5,4.8l0.7,0.7
		c0.1,0.1,0.1,0.1,0.1,0.1c0,0,0.1,0,0.1,0c0,0,0,0,0.1-0.1c0.2-0.1,0.3-0.3,0.3-0.5c0,0,0-0.1,0-0.2c0-0.1,0-0.1,0-0.2
		c-0.1-0.2-0.3-0.5-0.6-0.5c0,0-0.1,0-0.2,0c-0.1,0-0.1,0-0.1,0c-0.1,0-0.2,0.1-0.5,0.2C11,4.7,11,4.7,11,5c0,0.1,0.1,0.3,0.1,0.5
		L11.5,4.8z"/>
	<path class="st2" d="M7.7,16c-0.3,0-0.6-0.2-0.8-0.5c0-0.1-0.4-1-0.7-1.8c-0.6-1.4-0.7-1.7-0.7-1.8c0,0-0.2-0.3-1-1.2l-1-1.1
		L3.4,9.4C3.2,9,3.2,8.8,3.2,8.2c0-1.3,0.2-2.5,0.5-3.2c0.1-0.3,0.4-0.7,0.6-0.9c0.2-0.2,0.5-0.4,0.7-0.5c0.1,0,0.2,0,0.3,0
		c0.3,0,0.6,0.1,0.8,0.2C6.3,3.9,6.3,4,6.4,4.1C6.8,4.5,7.1,5,7.3,5.3c0.2,0.2,0.3,0.4,0.4,0.5c0.1-0.1,0.5-0.2,0.9-0.4
		C8.8,5.2,9,5.1,9.2,5l0.4-0.2l0,0.3c0,0.1,0,0.1,0,0.2c0,0.2,0.2,0.7,0.3,0.9c0,0,0,0.1,0.1,0.1l0.1,0.2L9.9,6.5
		C9.3,6.8,8,7.6,8,7.6c0,0-0.1,0.1-0.2,0.1c-0.1,0-0.2,0.1-0.3,0.1C7.2,7.7,7,7.7,6.8,7.5c0,0-0.2-0.2-0.3-0.3c0,0-0.1-0.1-0.1-0.1
		c0,0.2-0.1,0.4-0.2,0.8L5.9,8.8l0.6,0.9c0.4,0.6,0.6,1,0.7,1c0,0.1,0.1,0.1,0.1,0.2l0,0c0.1,0.1,1.3,3.6,1.3,3.9
		c0,0.2,0.1,0.4,0,0.5c-0.1,0.3-0.3,0.6-0.7,0.7C7.9,16,7.8,16,7.7,16z M1.8,15.9c-0.1,0-0.1,0-0.2,0C1.3,15.8,1,15.6,1,15.3
		c-0.1-0.3,0-0.6,0.1-0.9c0,0,0.4-0.7,0.8-1.4c0.5-0.9,0.8-1.4,0.8-1.4l0.1-0.1l0.1-0.8c0-0.1,0-0.2,0.1-0.3l0.1-0.4L4,11.1
		c0.3,0.4,0.6,0.7,0.7,0.8l0.1,0.1l0,0.1c0,0.1-0.1,0.1-0.1,0.2c0,0-0.1,0.1-0.1,0.1c0,0,0,0.1-0.1,0.1l0,0l0,0c0,0.1-0.5,0.7-1,1.5
		c-1,1.5-1.1,1.6-1.3,1.7C2.1,15.9,1.9,15.9,1.8,15.9z M7.4,3.3c-0.2,0-0.3,0-0.4,0C6.6,3.2,6.2,2.9,6,2.6C5.7,2.1,5.7,1.5,5.9,1
		C6.2,0.5,6.6,0.1,7.1,0c0.1,0,0.2,0,0.2,0c0.2,0,0.3,0,0.5,0c0.2,0,0.4,0.1,0.5,0.2C8.7,0.5,8.9,0.8,9,1.2c0.1,0.4,0.1,1-0.1,1.3
		C8.7,2.9,8.3,3.2,7.8,3.3C7.7,3.3,7.6,3.3,7.4,3.3z"/>
</g>
</svg>
