<?xml version="1.0" encoding="utf-8"?>
<!-- Generator: Adobe Illustrator 26.1.0, SVG Export Plug-In . SVG Version: 6.00 Build 0)  -->
<svg version="1.1" id="Layer_1" xmlns="http://www.w3.org/2000/svg" xmlns:xlink="http://www.w3.org/1999/xlink" x="0px" y="0px"
	 viewBox="0 0 16 16" style="enable-background:new 0 0 16 16;" xml:space="preserve">
<style type="text/css">
	.st0{opacity:0.5;fill:#FFFFFF;enable-background:new    ;}
	.st1{fill:#6486C4;}
	.st2{fill:#6E6F72;}
</style>
<g id="icon">
	<path class="st0" d="M6.1,15.6C6,15.6,6,15.6,6.1,15.6c-0.2,0-0.3,0-0.4-0.1c-0.1-0.1-0.2-0.3-0.3-0.5c0-0.1,0-0.6,0-1
		c0-0.4,0-1-0.1-1.1c0-0.1,0-0.6-0.1-1.4l0-1.3L5.1,10C5,9.8,4.9,9.6,4.9,9.3C4.9,9,5,8.7,5.2,8.5c0,0,0.1-0.1,0.2-0.2
		C5.8,8,6.1,7.5,6.3,6.7l0-0.3L5.4,5.7C5.1,5.5,4.8,5.2,4.6,5.1C4.5,5,4.4,5,4.4,4.9c-0.1,0-0.2-0.1-0.2-0.2c0-0.1-0.5-0.5-0.9-0.9
		C3.1,3.6,2.5,3.1,2.5,3C2.3,2.7,2.3,2.4,2.5,2.2c0.1-0.1,0.2-0.1,0.2-0.2c0,0,0.1,0,0.1,0c0.1,0,0.2,0,0.4,0.1c0,0,0.5,0.4,1,0.9
		c0.4,0.4,0.9,0.8,1,0.9c0.5,0.4,1.3,0.9,1.6,1c0.1,0,0.1,0,0.2,0c0,0,0.1,0,0.1,0c0.1,0,0.2,0,0.3,0c0.1,0,0.3,0,0.4,0
		C7.9,4.9,8,5,8,5c0,0,0.1,0,0.1,0c0.2,0,0.9-0.3,1.5-0.5L10,4.3l1.1-0.7c0.7-0.4,1.1-0.7,1.2-0.8c0,0,0.1,0,0.2,0c0,0,0.1,0,0.1,0
		c0,0,0,0,0.1,0c0.1,0,0.2,0.1,0.3,0.1C13,3.1,13.1,3.3,13,3.5c0,0.1-0.1,0.3-0.3,0.4c-0.2,0.2-1.7,1.3-1.7,1.4
		c-0.1,0.1-0.2,0.2-0.3,0.2l0,0c-0.1,0-0.5,0.2-0.9,0.4L8.8,6.3v0.1c0,0.1,0,0.3-0.1,0.5C8.6,7.8,8.1,8.8,7.5,9.5
		C7.4,9.6,7.1,9.9,7.1,9.9C7,10,7,10,6.9,10.1c0,0.1-0.1,2.1-0.1,3.3C6.8,15,6.8,15,6.7,15.2C6.5,15.4,6.3,15.6,6.1,15.6z"/>
	<path class="st1" d="M13.2,2.6c-0.1-0.1-0.3-0.2-0.5-0.2c-0.1,0-0.1,0-0.2,0c-0.1,0-0.1,0-0.2,0c-0.1,0-0.2,0-0.3,0.1l0,0
		c-0.1,0.1-0.9,0.6-1.2,0.8L9.8,4L9.5,4.1C8.9,4.3,8.3,4.5,8.1,4.5c0,0,0,0,0,0c0,0,0,0-0.1,0c-0.2,0-0.4-0.1-0.5-0.1
		c-0.1,0-0.2,0-0.4,0c0,0,0,0,0,0c0,0,0,0,0,0C6.7,4.4,6,3.9,5.5,3.6c0,0-0.5-0.4-1-0.9c0,0-0.9-0.8-1-0.9l0,0
		C3.3,1.7,3.1,1.6,2.9,1.6c-0.1,0-0.2,0-0.2,0c-0.2,0-0.3,0.1-0.5,0.3C1.9,2.3,1.8,2.8,2.1,3.2c0,0.1,0.1,0.2,0.9,1
		C3.5,4.6,3.8,5,3.9,5.1C3.9,5.1,4,5.2,4.1,5.3l0.2,0.2C4.5,5.6,4.8,5.8,5.1,6l0.7,0.5l0,0C5.7,7.3,5.5,7.7,5.1,8
		C5,8,4.9,8.1,4.8,8.2C4.6,8.5,4.5,8.9,4.5,9.3c0,0.3,0.1,0.6,0.2,0.9l0,0l0,1.2c0,0.6,0,1.3,0.1,1.4c0,0,0,0.2,0,1.1
		c0,0.8,0,1,0.1,1.1c0.1,0.3,0.2,0.6,0.5,0.7C5.6,15.9,5.8,16,6,16c0,0,0,0,0.1,0c0.4,0,0.8-0.2,1-0.6c0.1-0.3,0.1-0.3,0.2-1.9
		c0-1.2,0.1-2.9,0.1-3.2c0.2-0.1,0.4-0.4,0.5-0.5C8.4,9,9,8,9.2,7.1c0-0.1,0.1-0.3,0.1-0.5L10,6.3c0.4-0.2,0.8-0.4,0.9-0.4l0,0
		c0.1-0.1,0.3-0.2,0.4-0.3c0.1-0.1,1.5-1.2,1.7-1.4c0.3-0.2,0.4-0.4,0.5-0.6C13.5,3.3,13.4,2.9,13.2,2.6z M12.6,3.4
		c0,0-0.1,0.1-0.2,0.2c-0.2,0.1-1.7,1.3-1.8,1.4c0,0-0.1,0.1-0.2,0.1l0,0c-0.1,0-0.5,0.2-0.9,0.4L8.4,6.1l0,0.4c0,0,0,0.3-0.1,0.4
		C8.2,7.6,7.7,8.5,7.2,9.2C7.1,9.3,6.9,9.5,6.8,9.6c-0.2,0.1-0.3,0.3-0.3,0.5c0,0.2-0.1,2.3-0.1,3.3c0,1.4-0.1,1.4-0.1,1.6
		c0,0.1-0.1,0.2-0.2,0.2c0,0,0,0,0,0c-0.1,0-0.1,0-0.1,0c0,0-0.1-0.1-0.1-0.2c0,0,0-0.2,0-1c0-1-0.1-1.1-0.1-1.2
		c0-0.1,0-0.5-0.1-1.4l0-1.4L5.5,9.8C5.4,9.7,5.3,9.5,5.3,9.3c0-0.2,0-0.4,0.1-0.5c0,0,0.1-0.1,0.1-0.1c0.6-0.4,0.9-1,1.1-1.9
		l0.1-0.5L5.6,5.4C5.3,5.1,5,4.9,4.8,4.7C4.7,4.7,4.6,4.6,4.6,4.6c-0.1,0-0.1-0.1-0.1-0.1C4.4,4.4,3.8,3.8,3.6,3.6
		C3,2.9,2.9,2.8,2.8,2.7c-0.1-0.1,0-0.2,0-0.2c0,0,0,0,0.1,0c0,0,0,0,0,0c0,0,0.1,0,0.1,0C3.1,2.6,3.4,2.9,4,3.3c0,0,0.9,0.8,1,0.9
		c0.6,0.4,1.4,0.9,1.7,1c0.1,0,0.2,0.1,0.3,0.1c0.1,0,0.1,0,0.2,0c0.1,0,0.2,0,0.2,0c0.1,0,0.2,0,0.4,0c0.1,0,0.1,0,0.2,0
		c0.1,0,0.1,0,0.2,0c0.3,0,0.9-0.3,1.6-0.5l0.4-0.1L11.3,4c0.6-0.4,1-0.6,1.1-0.7c0,0,0,0,0.1,0c0,0,0,0,0,0c0,0,0,0,0,0
		C12.6,3.3,12.6,3.3,12.6,3.4C12.6,3.3,12.6,3.3,12.6,3.4z"/>
	<path class="st0" d="M3.9,9.4c0-0.5,0.1-1,0.4-1.4c0,0-0.1,0-0.1,0L3.5,7.6L2.7,6.9C2.2,6.4,1.8,6.1,1.8,6C1.6,5.9,1.4,5.8,1.2,5.8
		c0,0-0.1,0-0.1,0C1,5.9,0.9,6,0.8,6.1C0.5,6.3,0.6,6.7,0.8,7c0,0.1,0.5,0.5,0.9,1c0.8,0.9,0.8,0.9,0.9,1c0.1,0.1,0.7,0.3,1.3,0.6
		C3.9,9.5,3.9,9.4,3.9,9.4z"/>
	<path class="st1" d="M3.9,9.4c0-0.1,0-0.2,0-0.2C3.4,8.9,3,8.7,2.9,8.7C2.8,8.6,2.7,8.5,2,7.7c-0.4-0.5-0.8-1-0.9-1
		C1,6.5,1,6.4,1.1,6.3c0,0,0.1-0.1,0.1-0.1c0,0,0,0,0,0c0.1,0,0.2,0,0.3,0.1c0,0,0.4,0.3,0.9,0.8L3.3,8L4,8.3c0,0,0,0,0,0
		C4.2,8.1,4.3,8,4.4,7.8c0.1-0.1,0.2-0.2,0.3-0.2C4.5,7.5,4.3,7.5,4.3,7.5L3.7,7.3L2.9,6.5c0,0-0.8-0.8-0.9-0.9
		C1.8,5.5,1.5,5.4,1.2,5.4c-0.1,0-0.2,0-0.2,0C0.8,5.5,0.6,5.6,0.4,5.8c-0.4,0.4-0.3,1,0.1,1.5c0,0.1,0.5,0.5,0.9,1
		c0.8,0.9,0.8,1,1,1.1c0.2,0.1,1,0.5,1.6,0.7C3.9,9.8,3.9,9.6,3.9,9.4z"/>
	<path class="st0" d="M7.7,4C7.5,4,7.4,4,7.3,4c-0.6-0.1-1-0.6-1.1-1.1c0-0.2,0-0.5,0-0.7c0.1-0.3,0.3-0.6,0.6-0.8
		C7,1.2,7.2,1.1,7.4,1.1c0.1,0,0.2,0,0.3,0c0.1,0,0.1,0,0.2,0c0.3,0.1,0.6,0.2,0.8,0.4c0.2,0.2,0.3,0.4,0.4,0.7c0,0.2,0,0.5,0,0.7
		C9,3.4,8.6,3.8,8.1,4C7.9,4,7.9,4,7.7,4z"/>
	<path class="st1" d="M9.5,1.6C9.5,1.3,9.3,1,9,0.7C8.7,0.4,8.4,0.2,8,0.1c-0.1,0-0.2,0-0.3,0c-0.1,0-0.3,0-0.4,0
		C7,0.2,6.8,0.3,6.6,0.5C6.2,0.7,6,1.1,5.8,1.6c-0.1,0.2-0.1,0.7,0,0.9C6,3.2,6.5,3.7,7.2,3.9c0.1,0,0.2,0,0.5,0
		c0.2,0,0.3,0,0.5-0.1c0.7-0.2,1.2-0.7,1.3-1.3C9.6,2.3,9.6,1.9,9.5,1.6z M8.7,2.3C8.6,2.7,8.3,2.9,7.9,3c-0.1,0-0.1,0-0.3,0
		c-0.2,0-0.2,0-0.2,0C7,2.9,6.8,2.6,6.7,2.2c0-0.1,0-0.4,0-0.5c0.1-0.2,0.2-0.5,0.4-0.6C7.2,1.1,7.3,1,7.5,1c0,0,0.1,0,0.2,0
		c0.1,0,0.1,0,0.1,0c0.2,0,0.4,0.1,0.6,0.3c0.1,0.1,0.2,0.3,0.3,0.5C8.7,2,8.7,2.2,8.7,2.3z"/>
	<path class="st2" d="M12.9,15.9l-0.6-0.7c0.6-0.5,1-1,0.9-1.3c-0.1-0.2-0.4-0.5-1-0.6c-1.3-0.4-1.9-0.9-1.9-1.6
		c0-0.7,0.8-1.4,2.4-1.9c1.2-0.4,1.5-0.6,1.7-0.7C14.2,9.1,14,9,13.5,8.8c-1.1-0.4-1.3-0.9-1.3-1.3c0-0.6,0.6-1,1.6-1.3
		c0.7-0.2,0.8-0.4,0.9-0.4c0-0.1-0.2-0.4-1.2-1.1L14,3.9c1.1,0.8,1.7,1.3,1.6,2C15.4,6.5,14.8,6.8,14,7c-0.7,0.2-0.9,0.4-1,0.5
		c0,0.1,0.2,0.3,0.7,0.4c0.7,0.3,1.4,0.6,1.4,1.2c0,0.6-0.7,1.1-2.3,1.6c-1.4,0.5-1.8,0.9-1.8,1c0,0.1,0.2,0.4,1.3,0.7
		c1,0.3,1.5,0.7,1.7,1.3C14.2,14.4,13.8,15.1,12.9,15.9z"/>
</g>
</svg>
