<?xml version="1.0" encoding="utf-8"?>
<!-- Generator: Adobe Illustrator 26.1.0, SVG Export Plug-In . SVG Version: 6.00 Build 0)  -->
<svg version="1.1" id="Layer_1" xmlns="http://www.w3.org/2000/svg" xmlns:xlink="http://www.w3.org/1999/xlink" x="0px" y="0px"
	 viewBox="0 0 16 16" style="enable-background:new 0 0 16 16;" xml:space="preserve">
<style type="text/css">
	.st0{fill:#6E6F72;}
	.st1{opacity:0.5;fill:#FFFFFF;enable-background:new    ;}
	.st2{fill:#6486C4;}
</style>
<g id="icon">
	<path class="st0" d="M0.3,13.7C0.2,13.5,0.1,13.1,0,13l0-0.1L3.5,11c1.8-1,3.1-1.7,3.4-1.9l0.1,0l0.1,0c0.1,0.1,0.5,0.3,0.7,0.5
		l0.1,0.1L7.7,9.8c-0.9,0.5-6.4,3.6-7.2,4l-0.1,0.1L0.3,13.7z"/>
	<path class="st0" d="M13.6,6.4c-0.1,0-0.2-0.1-0.5-0.2c-0.1-0.1-0.3-0.1-0.4-0.2l-0.2-0.1l0.2-0.1c0.3-0.2,1.2-0.6,1.6-0.9l0,0
		c0.8-0.4,1.1-0.7,1.3-0.8l0.1-0.1l0.2,1l-1,0.6C14.3,6,13.8,6.4,13.6,6.4L13.6,6.4L13.6,6.4z"/>
	<path class="st1" d="M8.5,15.5c-0.2,0-0.5-0.1-0.6-0.3c-0.2-0.2-0.2-0.5-0.1-0.8c0-0.1,0.4-0.9,0.8-1.8c0.8-1.8,0.8-1.8,0.8-1.8
		c0,0,0,0-0.3-1L9,9.5C8.8,8.7,8.8,8.7,8.6,8.5l0,0C8.2,8.2,7.7,7.9,7.1,7.8C6.9,7.7,6.7,7.7,6.4,7.7L6,7.7L5.5,8.3
		C5,8.8,5,8.8,4.9,8.9C4.8,8.9,4.5,9,4.4,9c-0.1,0-0.8,0-1.7-0.1l-0.2,0C1,8.8,1,8.8,0.8,8.7l0,0C0.7,8.6,0.6,8.5,0.6,8.4
		C0.5,8.2,0.5,8,0.6,7.8c0.1-0.2,0.2-0.3,0.5-0.4c0.1,0,0.4,0,1.6,0l1.5,0l0.8-1c0.8-1,0.9-1.1,1-1.1c0,0,0.1-0.1,0.1-0.1
		C6.3,5,6.5,4.9,6.7,4.9c0.1,0,0.3,0,0.5-0.1c0.3,0,0.4-0.1,0.5-0.1c0,0,0.1,0,0.1,0c0.3,0,0.7,0.1,1.3,0.5c0.6,0.3,1.5,0.8,2.2,1.3
		c0.1,0.1,0.6,0.3,1.8,1c1.6,0.8,1.7,0.9,1.9,1c0.1,0.1,0.2,0.3,0.3,0.5c0.1,0.2,0,0.4-0.1,0.6c0,0.1-0.6,1.6-0.7,1.9
		c-0.4,1.1-0.7,1.8-0.7,1.8c0,0-0.1,0.1-0.2,0.2c-0.2,0.2-0.4,0.2-0.6,0.2l0,0c0,0,0,0-0.1,0c-0.1,0-0.2,0-0.4-0.1
		c-0.4-0.2-0.5-0.7-0.3-1.1c0-0.1,0.4-1.1,0.5-1.4c0.1-0.3,0.2-0.7,0.3-0.9c0.2-0.5,0.2-0.5,0.1-0.5l0,0c0,0-0.1,0-0.3-0.1
		c-0.2-0.1-0.4-0.2-0.7-0.3c-0.9-0.4-1-0.4-1-0.4h0l0,0c0,0-0.1,0-0.1,0.1c0,0,0,0,0,0.2c0,0.3,0.1,0.6,0.1,0.9c0,0.2,0,0.3,0,0.4
		c0,0.1,0,0.4,0,0.6c-0.1,0.2-2,4-2.1,4.1c-0.1,0.1-0.2,0.2-0.3,0.2C8.8,15.4,8.6,15.5,8.5,15.5z"/>
	<path class="st1" d="M3.4,5.3c-0.3,0-0.6-0.1-0.8-0.2C2.1,4.7,1.8,4.2,1.8,3.6c0-0.6,0.3-1.1,0.8-1.4C2.7,2,2.9,2,3.1,1.9
		c0.1,0,0.2,0,0.3,0c0.2,0,0.3,0,0.4,0C4.1,2,4.5,2.2,4.7,2.5C4.9,2.8,5,3.2,5,3.6c0,0.9-0.6,1.6-1.5,1.7C3.5,5.3,3.4,5.3,3.4,5.3z"
		/>
	<path class="st2" d="M15.7,8.9c-0.1-0.3-0.2-0.6-0.5-0.7c-0.2-0.1-0.3-0.2-2-1.1c-1.2-0.6-1.6-0.8-1.8-0.9c-0.7-0.5-1.6-1-2.2-1.3
		C8.6,4.5,8.1,4.3,7.7,4.3c-0.1,0-0.1,0-0.2,0c0,0-0.1,0-0.4,0.1c-0.2,0-0.4,0.1-0.5,0.1C6.3,4.5,6,4.7,5.9,4.9c0,0-0.1,0-0.1,0l0,0
		C5.6,5,5.6,5,4.7,6.1L4,7L2.7,7C1.3,7,1.1,7,1,7C0.6,7.1,0.4,7.3,0.2,7.6c-0.1,0.3-0.2,0.6,0,0.9C0.2,8.7,0.4,8.9,0.5,9l0,0
		c0.3,0.2,0.3,0.2,1.9,0.3l0.2,0c0.2,0,1.6,0.1,1.7,0.1c0.2,0,0.5-0.1,0.6-0.1c0.2-0.1,0.3-0.2,0.8-0.7l0.4-0.4l0.1,0
		c0.3,0,0.4,0,0.7,0.1c0.5,0.1,0.9,0.3,1.2,0.6l0,0c0.1,0.1,0.1,0.1,0.3,0.7l0.1,0.2c0.1,0.3,0.2,0.7,0.3,0.8
		c-0.1,0.2-0.3,0.7-0.7,1.6c-0.3,0.7-0.8,1.8-0.8,1.9l0,0c-0.1,0.4-0.1,0.8,0.1,1.2c0.2,0.3,0.6,0.5,1,0.5c0.2,0,0.4-0.1,0.5-0.1
		c0.2-0.1,0.3-0.2,0.4-0.4c0.1-0.2,2.1-4,2.2-4.2l0,0c0.1-0.2,0.1-0.6,0-0.8c0,0,0-0.1,0-0.3c0-0.2,0-0.4,0-0.6
		c0.2,0.1,0.3,0.1,0.5,0.2l0.7,0.3c0,0,0,0.1,0,0.1c-0.1,0.3-0.2,0.6-0.3,0.9c-0.3,0.9-0.4,1.3-0.5,1.4c-0.3,0.6-0.1,1.3,0.5,1.6
		c0.2,0.1,0.3,0.2,0.6,0.2c0,0,0.1,0,0.1,0c0.3,0,0.6-0.1,0.9-0.4c0.1-0.1,0.2-0.2,0.2-0.3c0.1-0.1,0.1-0.3,0.7-1.9
		c0.4-1.1,0.7-1.8,0.7-1.9C15.7,9.5,15.8,9.2,15.7,8.9z M14.8,9.4c0,0-0.1,0.1-0.7,1.9l0,0c-0.2,0.5-0.6,1.6-0.7,1.8
		c0,0,0,0.1-0.1,0.1c-0.1,0.1-0.2,0.1-0.3,0.1c0,0,0,0,0,0c-0.1,0-0.1,0-0.2,0c-0.2-0.1-0.2-0.3-0.1-0.5c0,0,0-0.1,0.5-1.5
		c0.1-0.3,0.2-0.7,0.3-0.9c0.1-0.3,0.1-0.4,0.1-0.5c0-0.1,0-0.3-0.1-0.4l0,0l-0.1-0.1c0,0-0.2-0.1-0.2-0.1l0,0c0,0-0.9-0.4-0.9-0.4
		c-1-0.4-1.1-0.4-1.2-0.4h0l-0.1,0c-0.4,0.1-0.5,0.3-0.5,0.5c0,0,0,0.1,0,0.3c0,0.2,0.1,0.5,0.1,0.8c0,0.2,0,0.4,0,0.5
		c0,0.1,0,0.3,0,0.3c-0.2,0.4-1.9,3.7-2,4c0,0-0.1,0.1-0.1,0.1c0,0-0.1,0-0.1,0c-0.1,0-0.2-0.1-0.3-0.1c-0.1-0.1-0.1-0.3,0-0.4
		c0-0.1,0.4-0.9,0.8-1.8c0.8-1.8,0.8-1.8,0.8-2c0-0.1,0-0.1-0.3-1.1L9.4,9.3C9.2,8.5,9.1,8.4,8.8,8.2l0,0c-0.4-0.4-1-0.6-1.6-0.8
		C6.9,7.3,6.7,7.3,6.4,7.3l-0.5,0L5.2,8C4.8,8.4,4.7,8.5,4.7,8.5c0,0-0.2,0.1-0.3,0.1c0,0-0.6,0-1.7-0.1l-0.2,0
		C1.2,8.4,1.1,8.4,1.1,8.3l0,0c0,0,0-0.1-0.1-0.1C1,8.2,1,8.1,1,8c0-0.1,0.1-0.1,0.2-0.1c0.1,0,0.8,0,1.5,0l1.7,0l1-1.1
		c0.4-0.5,0.8-1,0.9-1.1c0.1-0.1,0.2-0.2,0.2-0.2c0.1-0.1,0.2-0.1,0.3-0.2c0,0,0.2,0,0.4-0.1c0.4,0,0.5-0.1,0.5-0.1c0,0,0,0,0,0
		c0.2,0,0.6,0.1,1.2,0.4c0.6,0.3,1.5,0.8,2.1,1.3c0.2,0.1,0.6,0.3,1.9,1c1.5,0.8,1.7,0.9,1.8,1c0,0,0.1,0.1,0.1,0.2
		C14.9,9.2,14.9,9.3,14.8,9.4z"/>
	<path class="st2" d="M5,2.3C4.7,1.8,4.4,1.6,4,1.5c-0.2,0-0.5-0.1-0.6-0.1c-0.1,0-0.2,0-0.4,0C2.7,1.6,2.5,1.6,2.3,1.8
		c-0.6,0.4-1,1.1-1,1.8c0,0.8,0.4,1.5,1.1,1.9c0.3,0.2,0.7,0.3,1,0.3l0,0c0.1,0,0.1,0,0.2,0c1.1-0.1,1.9-1,1.9-2.1
		C5.5,3.1,5.3,2.6,5,2.3z M3.5,4.8C3.5,4.8,3.4,4.8,3.5,4.8C3.2,4.8,3,4.8,2.8,4.7C2.4,4.4,2.2,4,2.2,3.6c0-0.4,0.2-0.8,0.6-1
		C2.9,2.4,3,2.4,3.2,2.3c0,0,0.1,0,0.2,0c0.1,0,0.3,0,0.3,0c0.3,0.1,0.5,0.2,0.6,0.4C4.5,3,4.6,3.3,4.6,3.6C4.6,4.2,4.1,4.7,3.5,4.8
		z"/>
	<path class="st1" d="M6.3,1.9c0.1,0.1,1.1,1,1.4,1.3l0.2,0.2L7.6,3.7c0,0,0,0,0,0c0.5,0,1,0.2,1.7,0.5c0-0.1,0.2-0.3,0.2-0.4
		c0.1-0.2,0.2-0.4,0.2-0.6c0-0.2-0.1-0.4-0.2-0.5c0,0-0.6-0.5-1.3-1c-1.2-1-1.3-1-1.4-1.1c0,0-0.1,0-0.2,0c0,0,0,0-0.1,0
		c-0.1,0-0.1,0-0.2,0C6.2,0.6,6.1,0.8,6,1.1C5.9,1.4,6,1.7,6.3,1.9z"/>
	<path class="st2" d="M5.7,1.8C5.8,1.9,5.9,2,5.9,2.1c0,0,0.1,0,0.1,0.1c0.1,0.1,0.8,0.7,1.2,1.1C7.2,3.4,7,3.7,6.9,3.8
		c0.3,0,0.3,0,0.4,0c0.1,0,0.2,0,0.3,0c0.2,0,0.3,0,0.5,0.1l0.3-0.4L8,2.9C7.7,2.6,6.7,1.6,6.6,1.5C6.4,1.4,6.4,1.3,6.4,1.2
		C6.5,1.1,6.5,1,6.6,1c0,0,0,0,0,0c0,0,0,0,0.1,0c0.1,0,0.1,0,0.1,0c0.1,0,0.3,0.2,1.3,1c0.7,0.6,1.2,1,1.2,1c0,0,0.1,0.1,0.1,0.2
		c0,0.1,0,0.3-0.1,0.4C9.2,3.6,9,3.9,9,4c0,0,0,0,0,0c0.2,0.1,0.4,0.2,0.6,0.3c0.1,0,0.1,0.1,0.2,0.1c0,0,0.2-0.3,0.2-0.3
		c0.2-0.3,0.3-0.6,0.3-0.9c0-0.3-0.1-0.6-0.3-0.8C9.8,2.3,9.1,1.7,8.6,1.3C7.4,0.3,7.3,0.2,7,0.2c-0.1,0-0.2,0-0.3,0
		c0,0-0.1,0-0.1,0c-0.1,0-0.2,0-0.3,0C6,0.3,5.7,0.6,5.6,1c-0.1,0.2-0.1,0.5,0,0.7C5.6,1.7,5.7,1.7,5.7,1.8z"/>
</g>
</svg>
