<?xml version="1.0" encoding="utf-8"?>
<!-- Generator: Adobe Illustrator 26.1.0, SVG Export Plug-In . SVG Version: 6.00 Build 0)  -->
<svg version="1.1" id="Layer_1" xmlns="http://www.w3.org/2000/svg" xmlns:xlink="http://www.w3.org/1999/xlink" x="0px" y="0px"
	 viewBox="0 0 16 16" style="enable-background:new 0 0 16 16;" xml:space="preserve">
<style type="text/css">
	.st0{opacity:0.5;fill:#FFFFFF;enable-background:new    ;}
	.st1{fill:#6486C4;}
	.st2{fill:#6E6F72;}
</style>
<g id="icon">
	<path class="st0" d="M8.4,9c0.3-0.8,0.7-2.2,1-2.6C9.6,6,9.8,5.9,10.2,5.8c0.1,0,0.2,0,0.4,0c0.1,0,0.2,0,0.2,0
		c0.1,0,2,0.5,2.1,0.5l0,0l0,0l0,0c0.1,0,0.1,0,0.5-0.7c0.2-0.4,0.4-0.7,0.4-0.7c0.1-0.1,0.2-0.2,0.3-0.2c0,0,0.1,0,0.1,0
		c0,0,0,0,0,0c0.1,0,0.1,0,0.2,0c0.2,0.1,0.3,0.4,0.3,0.6c0,0-0.2,0.4-0.4,0.8c-0.2,0.4-0.4,0.8-0.5,0.9c-0.1,0.1-0.2,0.2-0.2,0.3
		c0,0-0.1,0-0.1,0.1c0,0,0,0,0,0c-0.1,0-0.2,0.1-0.3,0.1c-0.1,0-0.2,0-0.8-0.2l-0.6-0.1c-0.1,0-0.2,0-0.2,0.1l-0.1,0.3
		c-0.1,0.3-0.3,1-0.4,1.4L8.4,9L8.4,9z"/>
	<path class="st0" d="M10.9,4.8L10.9,4.8c0.4,0,0.8-0.2,1-0.6C11.9,4,12,3.9,12,3.7c0-0.2,0-0.3-0.1-0.5c-0.2-0.4-0.6-0.7-1-0.7h0
		c-0.1,0-0.2,0-0.2,0C10.2,2.7,9.9,3,9.8,3.4c0,0.2,0,0.4,0,0.5C9.9,4.4,10.3,4.8,10.9,4.8z"/>
	<path class="st0" d="M3.7,4.7c0.1,0,0.2,0,0.2,0l0,0c0.3,0,0.5-0.1,0.7-0.3c0.3-0.2,0.5-0.7,0.4-1C4.9,3,4.6,2.7,4.1,2.6
		c0,0-0.2,0-0.3,0c0,0-0.1,0-0.1,0c0,0,0,0-0.1,0C3.2,2.7,2.8,3.2,2.8,3.7C2.8,4.2,3.1,4.6,3.7,4.7z"/>
	<path class="st0" d="M2.4,8.8C2.9,9,3,9,3.9,9H4c0.1-0.4,0.2-1,0.3-1.2c0.3-0.6,0.3-0.6,0.4-0.6c0,0,0,0,0.7,0.2
		C6,7.5,6.1,7.5,6.2,7.5l0,0c0.3,0,0.5-0.1,0.6-0.4c0-0.1,0.3-0.5,0.5-0.9c0.2-0.4,0.4-0.8,0.4-0.8c0,0,0-0.1,0-0.2
		c0-0.1,0-0.1,0-0.2C7.7,4.8,7.5,4.7,7.3,4.7c0,0-0.1,0-0.1,0C7.1,4.7,7,4.8,6.9,4.8c0,0-0.2,0.3-0.5,0.7C6.2,5.9,6.1,6.2,6,6.2
		l0,0.1c0,0-0.1,0-0.1,0c0,0,0,0-1-0.2L4.7,6c-0.8-0.2-0.9-0.2-1-0.2c0,0-0.1,0-0.1,0c-0.2,0-0.3,0-0.3,0C3,5.8,2.8,5.9,2.7,6.1
		C2.5,6.2,2.5,6.3,2.3,6.6C2.1,7,1.8,7.9,1.6,8.6C1.8,8.7,2,8.7,2.4,8.8z"/>
	<path class="st1" d="M10.5,9.1l0.1-0.4c0.1-0.5,0.3-1,0.4-1.3l0.2-0.3c0.1-0.2,0.3-0.3,0.5-0.3c0,0,0.1,0,0.1,0l0.6,0.1
		c0.6,0.1,0.7,0.1,0.7,0.1c0.1,0,0.1,0,0.1,0c0,0,0,0,0,0c0,0,0.1-0.1,0.1-0.1c0-0.1,0.3-0.6,0.5-0.9c0.2-0.4,0.4-0.7,0.4-0.8
		c0-0.1,0-0.1-0.1-0.1c0,0,0,0,0,0c0,0-0.1,0-0.1,0c0,0,0,0,0,0c0,0-0.1,0-0.1,0.1c0,0-0.2,0.3-0.4,0.7c-0.5,0.7-0.5,0.8-0.8,0.8
		l-0.1,0l-0.1,0c-0.1,0-1.9-0.5-2-0.5c0,0-0.1,0-0.2,0c-0.1,0-0.2,0-0.3,0C10,6.2,9.9,6.3,9.7,6.6C9.5,7,9.1,8.2,8.8,9l0,0.1H7.9
		L8,8.7c0.3-0.9,0.7-2.1,1-2.6c0.3-0.4,0.6-0.6,1-0.7c0.1,0,0.3,0,0.5,0c0.1,0,0.2,0,0.3,0c0.1,0,1.4,0.3,1.9,0.4
		C12.8,5.7,13,5.5,13,5.4c0.1-0.2,0.4-0.7,0.5-0.7c0.1-0.1,0.3-0.3,0.5-0.3c0.1,0,0.1,0,0.3,0c0,0,0,0,0.1,0c0.2,0,0.2,0,0.4,0.1
		c0.4,0.2,0.6,0.7,0.5,1.1l0,0c0,0.1-0.4,0.8-0.5,0.9c-0.3,0.5-0.4,0.8-0.5,0.9c-0.1,0.1-0.2,0.3-0.3,0.4c0,0,0,0,0,0l-0.1,0.1
		l-0.1,0c-0.1,0.1-0.3,0.1-0.4,0.1c-0.2,0-0.3,0-0.9-0.2l-0.3-0.1c0,0,0,0,0,0c-0.1,0-0.1,0-0.1,0.1l0,0c-0.1,0.2-0.3,0.8-0.4,1.2
		l0,0.2H10.5z"/>
	<path class="st1" d="M3.7,9.1l-0.2,0l0.1-0.3c0.1-0.5,0.2-1,0.3-1.2C4.3,7,4.4,6.8,4.7,6.8c0.1,0,0.1,0,0.8,0.2
		C5.9,7,6.2,7.1,6.2,7.1c0.1,0,0.2,0,0.3-0.2C6.5,6.8,6.9,6.1,7,6c0.2-0.4,0.4-0.7,0.4-0.8c0,0,0,0,0-0.1c0,0,0,0,0,0
		c0,0-0.1,0-0.1,0c0,0,0,0-0.1,0c0,0.1-0.2,0.3-0.4,0.7C6.6,6.1,6.4,6.3,6.4,6.4L6.3,6.6L6,6.6c-0.1,0-0.1,0-1.1-0.2L4.6,6.3
		c-0.8-0.2-0.9-0.2-1-0.2c0,0-0.1,0-0.1,0c-0.2,0-0.2,0-0.2,0C3.2,6.2,3,6.3,2.9,6.4C2.9,6.5,2.8,6.5,2.6,6.8C2.5,7,2.3,7.6,2.2,8.1
		C2.1,8.3,2.1,8.5,2,8.7l0,0.1l-0.1,0c-0.2,0-0.3-0.1-0.5-0.1l-0.2,0l0.1-0.2c0.1-0.2,0.1-0.4,0.2-0.6C1.6,7.3,1.8,6.7,2,6.4
		C2.1,6.1,2.2,6,2.4,5.8c0.2-0.2,0.5-0.4,0.7-0.4c0.1,0,0.2,0,0.5,0v0c0,0,0.1,0,0.1,0c0.2,0,0.3,0,1.1,0.2l0.3,0.1
		c0.3,0.1,0.6,0.1,0.7,0.2l0.3-0.5c0-0.1,0.4-0.7,0.5-0.8C6.7,4.4,6.9,4.4,7,4.3c0.1,0,0.2,0,0.3,0c0.3,0,0.7,0.2,0.8,0.5
		C8.2,4.9,8.2,5,8.2,5.2c0,0.2,0,0.2,0,0.3l0,0c0,0.1-0.3,0.6-0.5,0.9C7.4,6.9,7.2,7.2,7.2,7.2C7,7.7,6.7,7.9,6.2,7.9c0,0,0,0,0,0
		c-0.1,0-0.3,0-0.9-0.2C5.1,7.7,5,7.6,4.8,7.6C4.8,7.7,4.7,7.9,4.7,7.9C4.6,8.1,4.5,8.6,4.4,9l0,0.2L3.7,9.1z"/>
	<path class="st1" d="M5.4,3.4C5.3,2.8,4.8,2.3,4.2,2.2c-0.1,0-0.3,0-0.4,0c-0.1,0-0.1,0-0.1,0l0,0l0,0c0,0,0,0-0.1,0
		C2.9,2.3,2.4,3,2.4,3.7c0,0.7,0.5,1.3,1.2,1.5c0.1,0,0.2,0,0.3,0c0.4,0,0.7-0.1,1-0.3C5.3,4.5,5.5,3.9,5.4,3.4z M4.4,4.2
		C4.2,4.3,4.1,4.4,3.9,4.4c-0.1,0-0.1,0-0.2,0C3.4,4.3,3.2,4,3.2,3.7C3.2,3.3,3.4,3,3.7,3c0,0,0.1,0,0.1,0l0,0C3.9,3,4,3,4,3
		C4.4,3,4.6,3.2,4.6,3.6C4.7,3.8,4.5,4,4.4,4.2z"/>
	<path class="st1" d="M12.3,3.1c-0.2-0.5-0.8-0.9-1.4-0.9c-0.1,0-0.2,0-0.3,0c-0.6,0.1-1,0.5-1.2,1.1C9.3,3.5,9.3,3.8,9.4,4
		c0.2,0.7,0.8,1.1,1.5,1.1h0c0.6,0,1.1-0.3,1.4-0.8c0.1-0.2,0.1-0.4,0.2-0.6C12.4,3.5,12.3,3.3,12.3,3.1z M11.6,3.7
		c0,0.1,0,0.2-0.1,0.3c-0.1,0.2-0.4,0.4-0.6,0.4c-0.3,0-0.6-0.2-0.7-0.5c0-0.1,0-0.3,0-0.3C10.2,3.2,10.4,3,10.7,3c0,0,0.1,0,0.1,0
		h0c0.3,0,0.5,0.2,0.6,0.4C11.6,3.5,11.6,3.6,11.6,3.7z"/>
	<path class="st0" d="M0.6,11.7c0-0.1,0-0.2,0-0.3c0-0.5,0.2-0.9,0.5-1.2C1.2,10.1,1.4,10,1.7,10c0.3,0,0.6,0,1.1,0.2
		c0.6,0.2,0.8,0.2,1.8,0.2h0.8c0,0,6.4,0,6.4,0l0,0c0.3,0,0.7-0.1,0.8-0.1h0c0,0,0.1,0,0.6-0.1c0.4-0.1,0.6-0.1,0.9-0.1
		c0,0,0.1,0,0.1,0c0.2,0,0.3,0,0.5,0.1c0.4,0.2,0.6,0.7,0.6,1.3c0,0.3,0,0.4-0.1,0.6c-0.1,0.3-0.4,0.5-0.7,0.7
		c-0.2-0.2-0.3-0.3-0.5-0.4c-0.3-0.1-0.5-0.2-0.7-0.2h0c-0.7,0-1.2,0.4-1.5,0.8c-0.2,0.2-0.3,0.3-0.4,0.4c0,0,0,0-0.1,0
		c0,0-0.1,0-0.1,0c-0.1,0-0.2-0.1-0.3-0.3c-0.3-0.3-0.5-0.6-0.8-0.7c-0.3-0.2-0.5-0.2-0.7-0.2c-0.8,0-1.2,0.4-1.5,0.9
		c-0.1,0.2-0.2,0.3-0.3,0.3c-0.1,0-0.2-0.1-0.3-0.1C7.2,13.1,7.1,13,7,12.9c-0.2-0.3-0.5-0.5-0.8-0.7c-0.3-0.1-0.5-0.2-0.7-0.2l0,0
		c-0.4,0-0.7,0.1-1,0.3c-0.1,0-0.1,0.1-0.1,0.1l0,0l0,0c-0.1,0.1-0.1,0.1-0.4,0.4c-0.2,0.2-0.2,0.3-0.3,0.3c0,0,0,0,0,0
		c-0.2-0.1-0.2-0.1-0.4-0.1c0,0-0.1-0.1-0.1-0.1c-0.3-0.4-0.6-0.6-0.8-0.7c-0.2-0.1-0.6-0.2-0.8-0.2c-0.1,0-0.2,0-0.3,0
		c-0.1,0-0.3,0.1-0.4,0.2C0.7,12.1,0.6,11.9,0.6,11.7z"/>
	<path class="st2" d="M14.6,12.9c-0.1-0.1-0.2-0.2-0.4-0.3l-0.2-0.1l0.2-0.1c0.3-0.1,0.4-0.3,0.5-0.5c0.1-0.1,0.1-0.2,0.1-0.4
		c0-0.4-0.2-0.8-0.4-0.9c-0.1,0-0.1-0.1-0.3-0.1c0,0-0.1,0-0.1,0c-0.3,0-0.4,0-0.7,0.1c-0.5,0.1-0.6,0.2-0.6,0.2
		c-0.1,0-0.4,0.1-0.8,0.1l-0.1,0H4.7c-1,0-1.2,0-1.9-0.2c-0.5-0.1-0.7-0.2-1-0.2c-0.2,0-0.3,0-0.4,0.1c-0.2,0.2-0.3,0.5-0.3,0.9
		c0,0.1,0,0.2,0,0.2c0,0.1,0.1,0.3,0.2,0.4l0.1,0.2l-0.2,0.1c-0.1,0.1-0.3,0.1-0.4,0.2l-0.1,0.1l-0.1-0.1c-0.2-0.2-0.3-0.4-0.3-0.7
		c0-0.1,0-0.2,0-0.4c0-0.6,0.2-1.2,0.6-1.5c0.3-0.2,0.5-0.3,0.9-0.3c0.3,0,0.6,0.1,1.2,0.2C3.6,10,3.7,10,4.7,10h7.1
		c0.3,0,0.7-0.1,0.8-0.1l0,0c0.1,0,0.3-0.1,0.5-0.1c0.4-0.1,0.6-0.2,0.9-0.2c0,0,0.1,0,0.1,0c0.3,0,0.4,0,0.6,0.1
		c0.5,0.3,0.8,0.9,0.9,1.6c0,0.3,0,0.5-0.1,0.7c-0.1,0.3-0.4,0.6-0.7,0.8L14.6,12.9L14.6,12.9z"/>
	<path class="st1" d="M7.5,14.9c-0.5,0-0.9-0.2-1.4-0.8C6,14,5.8,13.8,5.7,13.7c0,0,0,0-0.2,0l0,0c-0.1,0-0.1,0-0.3,0.1
		c-0.1,0-0.1,0.1-0.1,0.1c0,0-0.1,0.2-0.2,0.3c-0.4,0.5-0.7,0.8-1.3,0.8c-0.6,0-0.9-0.3-1.3-0.7c-0.3-0.3-0.4-0.4-0.5-0.4
		c0,0-0.2,0-0.3,0c-0.2,0.1-0.3,0.2-0.5,0.4c-0.1,0.1-0.2,0.2-0.3,0.3l-0.1,0.1l-0.5-0.6l0.1-0.1c0,0,0.1-0.1,0.2-0.2
		c0.3-0.4,0.6-0.6,0.9-0.7c0.1,0,0.1,0,0.2,0c0.2,0,0.5,0,0.6,0.1c0.2,0.1,0.4,0.3,0.7,0.6c0.4,0.4,0.5,0.5,0.7,0.5
		c0.2,0,0.3,0,0.7-0.5c0.2-0.3,0.3-0.3,0.3-0.4l0,0c0,0,0,0,0.1-0.1C5,13,5.2,12.9,5.5,12.9l0,0c0.2,0,0.4,0,0.6,0.1
		c0.2,0.1,0.5,0.3,0.7,0.6c0.4,0.5,0.6,0.5,0.7,0.5c0.2,0,0.3,0,0.7-0.5c0.4-0.5,0.7-0.7,1.2-0.7c0.2,0,0.4,0,0.6,0.1
		c0.2,0.1,0.4,0.3,0.7,0.6c0.2,0.2,0.3,0.3,0.5,0.4c0,0,0.1,0,0.2,0c0.1,0,0.2,0,0.2,0c0.1-0.1,0.3-0.2,0.5-0.5
		c0.4-0.5,0.7-0.7,1.2-0.7h0c0.3,0,0.4,0,0.6,0.1c0.2,0.1,0.4,0.3,0.6,0.5c0.2,0.2,0.2,0.3,0.4,0.3c0.2,0.1,0.4,0.2,0.5,0.2l0.1,0
		l-0.1,0.8l-0.1,0c-0.2,0-0.6-0.1-0.8-0.3c-0.3-0.1-0.4-0.3-0.6-0.5c-0.1-0.2-0.3-0.3-0.4-0.4c0,0,0,0-0.2,0h0c-0.2,0-0.3,0-0.6,0.4
		c-0.3,0.4-0.5,0.5-0.7,0.7c-0.2,0.1-0.5,0.1-0.6,0.1c-0.2,0-0.4,0-0.6-0.1c-0.2-0.1-0.5-0.3-0.7-0.6c-0.2-0.2-0.3-0.4-0.5-0.4
		c0,0,0,0-0.2,0c-0.2,0-0.3,0-0.6,0.4C8.4,14.6,8.1,14.9,7.5,14.9L7.5,14.9L7.5,14.9L7.5,14.9z"/>
	<path class="st2" d="M5.2,10.7c-0.1,0-0.1,0-0.2,0c-0.2-0.1-0.3-0.4-0.2-0.6l0.6-1.4C5.5,8.4,5.8,8.3,6,8.4C6.2,8.5,6.3,8.7,6.2,9
		l-0.6,1.4C5.6,10.5,5.4,10.7,5.2,10.7z"/>
	<path class="st2" d="M12.1,10.7c-0.1,0-0.1,0-0.2,0c-0.2-0.1-0.3-0.4-0.2-0.6l0.6-1.4c0.1-0.2,0.4-0.3,0.6-0.2
		c0.2,0.1,0.3,0.4,0.2,0.6l-0.6,1.4C12.5,10.5,12.3,10.7,12.1,10.7z"/>
</g>
</svg>
