<?xml version="1.0" encoding="utf-8"?>
<!-- Generator: Adobe Illustrator 26.1.0, SVG Export Plug-In . SVG Version: 6.00 Build 0)  -->
<svg version="1.1" id="Layer_1" xmlns="http://www.w3.org/2000/svg" xmlns:xlink="http://www.w3.org/1999/xlink" x="0px" y="0px"
	 viewBox="0 0 16 16" style="enable-background:new 0 0 16 16;" xml:space="preserve">
<style type="text/css">
	.st0{fill:#6E6F72;}
	.st1{fill:#6485C3;}
</style>
<g id="icon">
	<path class="st0" d="M11.7,13.4c-0.3-0.9-1.1-1.4-2-1.3c-0.8,0.1-1.5,0.7-1.7,1.5c-0.1,0.2-0.1,0.6,0,0.8c0.1,0.8,0.7,1.4,1.4,1.6
		c0.2,0,0.3,0.1,0.5,0.1c0.2,0,0.3,0,0.5-0.1c0.2-0.1,0.5-0.2,0.7-0.3C11.7,15.1,12,14.2,11.7,13.4z"/>
	<path class="st1" d="M4.8,16c-0.3,0-0.5,0-0.7-0.3c-0.3-0.2-0.3-0.5-0.2-0.8c0-0.1,0-0.1,0.1-0.2c0,0,0.6-1.3,1.5-2.9L5.9,11
		c0.3-0.6,0.6-1.1,0.7-1.4l0.1-0.2l0.2,0.1c0.7,0.4,1,0.6,1.2,0.7c0,0,0.1,0,0.1,0.1l0.2,0.1l-0.1,0.2c-0.3,0.5-0.7,1.3-1.2,2.2
		c-0.5,1-0.9,1.6-1.1,2.1c-0.4,0.8-0.4,0.8-0.5,0.9C5.4,15.9,5.2,16,4.8,16L4.8,16z M4.1,12c0,0-0.1,0-0.1,0
		c-0.5-0.1-0.7-0.5-0.7-0.8c0-0.1,0-0.3,0.1-0.5c0,0,0,0,0.4-0.7C4,9.5,4.4,8.9,4.7,8.4l0.1-0.2L5,8.4c0.2,0.1,0.6,0.3,1.3,0.7
		l0.2,0.1L6.3,9.4C6.2,9.6,6,10,5.7,10.3c-0.7,1.1-0.9,1.3-1,1.4l0,0C4.6,11.9,4.3,12,4.1,12L4.1,12z M11,10.2c-0.1,0-0.3,0-0.4-0.1
		c-0.3-0.2-0.4-0.6-0.3-0.9c0.3-0.5,0.9-1.5,1.2-1.9c0,0,0,0,0-0.1c-0.3-0.1-0.8-0.4-1.1-0.5C10.5,6.9,10.2,7.3,9.8,8
		C9.6,8.4,9,9.6,8.9,9.6l0,0c0,0-0.1,0.1-0.2,0.1c-0.1,0-0.2,0-1.6-0.8L6.9,8.8c-1.7-0.9-1.7-1-1.7-1c-0.1-0.1-0.1-0.3,0-0.4
		C5.3,7.2,5.4,7,5.8,6.5l0.5-0.7C5.5,5.7,3.9,5.6,3,5.6c-0.4,0-0.7-0.3-0.7-0.8v0c0-0.4,0.3-0.7,0.7-0.7C4.7,4.1,9.5,4,9.5,4
		c0,0,0,0,0,0C9.7,4,9.8,4,10,4c0.1,0,3.2,1.9,3.3,2c0.1,0.1,0.3,0.2,0.3,0.4c0.1,0.1,0.1,0.3,0.1,0.5c0,0.1,0,0.3-0.1,0.4
		c0,0-0.1,0.1-0.1,0.2c0,0-0.1,0.1-0.4,0.5c-0.4,0.6-1.2,1.5-1.6,2C11.4,10.1,11.2,10.2,11,10.2C11,10.2,11,10.2,11,10.2z M9.3,3.3
		C9,3.3,8.8,3.2,8.6,3.1C7.9,2.7,7.5,2,7.7,1.2C7.9,0.6,8.3,0.2,9,0c0.1,0,0.2,0,0.3,0c0.2,0,0.4,0,0.6,0.1c0.4,0.1,0.7,0.4,0.9,0.8
		c0.1,0.3,0.2,0.5,0.2,0.8c0,0.2,0,0.3-0.1,0.5C10.6,2.8,10,3.3,9.3,3.3z"/>
</g>
</svg>
