<?xml version="1.0" encoding="utf-8"?>
<!-- Generator: Adobe Illustrator 26.1.0, SVG Export Plug-In . SVG Version: 6.00 Build 0)  -->
<svg version="1.1" id="Layer_1" xmlns="http://www.w3.org/2000/svg" xmlns:xlink="http://www.w3.org/1999/xlink" x="0px" y="0px"
	 viewBox="0 0 16 16" style="enable-background:new 0 0 16 16;" xml:space="preserve">
<style type="text/css">
	.st0{fill:#6E6F72;}
	.st1{fill:#6485C3;}
</style>
<g id="icon">
	<path class="st0" d="M0.3,8.3L0.3,8.3c-0.1,0-0.2-0.1-0.2-0.1c0-0.1,0-0.2,0.1-0.3l0.1-0.2c0.5-0.5,2.2-2.1,4.1-3.7
		C7,1.9,8.6,0.6,9.2,0.2c0.1-0.1,0.2-0.1,0.3-0.1c0.1,0,0.1,0,0.2,0.1l0,0l0,0c0,0,0,0.1,0,0.2C9.3,1,6.7,3.4,4,5.6
		C3.4,6.1,2,7.3,1.2,7.8C0.7,8.2,0.4,8.3,0.3,8.3L0.3,8.3L0.3,8.3z"/>
	<path class="st1" d="M15.3,15.9c-0.3,0-0.5-0.2-0.7-0.5c0-0.1-0.3-0.7-0.5-1.2c-0.2-0.4-0.5-1.1-0.5-1.2c0,0,0-0.1,0-0.1
		c-0.2-0.1-1.9-0.6-2.4-0.7c-1.3-0.4-1.6-0.5-1.7-0.6c-0.1-0.1-0.2-0.2-0.2-0.3l0,0l0,0c0-0.1-0.2-0.7-0.4-1.4
		C8.6,9.1,8.5,8.8,8.4,8.6C8.2,8.7,7.5,9,7.4,9.1c-0.1,0-0.3,0.1-0.4,0.1c0,0,0,0-0.1,0c-0.1,0-0.3,0-0.4-0.1C6.5,9,6.4,9,5.8,8.4
		c0,0-0.9-0.8-0.9-0.9C4.7,7.4,4.6,7.3,4.5,7.2c-0.3-0.3-0.2-0.7,0.1-1C4.8,6.2,4.9,6.1,5,6.1c0.1,0,0.3,0,0.4,0.1
		c0.1,0,0.5,0.4,0.9,0.7C6.7,7.2,7,7.4,7.1,7.5c0.3-0.2,1.4-0.9,1.5-0.9c0.3-0.2,0.5-0.3,0.9-0.4c0.1,0,0.3-0.1,0.3-0.1
		c0,0,0.1,0,0.1,0c0,0,0,0,0.1,0c0.1,0,0.2,0,0.3,0.1c0.3,0.1,0.6,0.4,0.8,0.7c0,0.1,0.1,0.2,0.1,0.3c0.1,0.3,0.3,1.5,0.5,2.9
		c0,0.2,0,0.3,0.1,0.3c0,0,0.1,0,0.1,0c0.2,0.1,0.5,0.2,1,0.4c0.4,0.2,0.8,0.4,1.2,0.7c0.2,0.1,0.3,0.2,0.4,0.2
		c0.1,0,0.1,0.1,0.3,0.2c0.1,0.1,0.2,0.2,0.2,0.3c0.1,0.1,0.9,2.7,1,2.8c0.1,0.3,0,0.5-0.1,0.7C15.7,15.7,15.5,15.8,15.3,15.9
		C15.3,15.9,15.3,15.9,15.3,15.9z M6.8,15.8c-0.2,0-0.4-0.1-0.5-0.2c-0.2-0.2-0.2-0.4-0.2-0.6c0.1-0.2,0.2-0.4,0.4-0.5
		c0.1,0,0.7-0.4,1.2-0.7l1.1-0.6l0-0.2C9,12.8,9,12.6,9,12.4l0-0.3l0.2,0.1c0.3,0.1,0.7,0.2,1.4,0.5l0.2,0.1L10.9,13
		c0,0.1-0.1,0.2-0.1,0.2c-0.2,0.3-0.3,0.6-0.3,0.6c-0.1,0.1-0.2,0.4-0.3,0.5c0,0-0.1,0.1-0.2,0.2c-0.1,0.1-2.7,1.3-2.9,1.3
		C7,15.8,6.9,15.8,6.8,15.8z M15.1,7.4c-0.1,0-0.1,0-0.2,0c-0.1,0-0.7-0.2-1.1-0.4c-0.7-0.2-0.9-0.3-1-0.3c0,0-0.1,0-0.2,0.1
		c-0.1,0.1-0.3,0.2-0.5,0.2l-0.2,0.1l-0.1-0.2c0-0.1-0.1-0.3-0.1-0.4c-0.1-0.2-0.3-0.5-0.5-0.6l-0.3-0.2l0.4-0.1
		c0.1,0,0.3-0.1,0.4-0.1c0.4-0.1,0.7-0.2,0.7-0.2c0.1,0,0.1,0,0.2-0.1c0,0,0.1,0,0.2,0c0.1,0,0.1,0,0.2,0c0.2,0,2.3,1,2.5,1
		c0.2,0.1,0.3,0.3,0.4,0.5c0.1,0.2,0,0.5-0.2,0.7C15.5,7.4,15.3,7.4,15.1,7.4L15.1,7.4L15.1,7.4z M9.2,5.4c-0.4,0-0.8-0.2-1.1-0.5
		C7.6,4.4,7.6,3.6,8,3c0.2-0.3,0.6-0.5,1-0.6c0,0,0.1,0,0.2,0c0.1,0,0.2,0,0.3,0c0.7,0.1,1.2,0.7,1.2,1.4c0,0.2,0,0.4-0.1,0.6
		C10.5,4.7,10.2,5,10,5.1C9.8,5.3,9.5,5.4,9.2,5.4z"/>
</g>
</svg>
