<?xml version="1.0" encoding="utf-8"?>
<!-- Generator: Adobe Illustrator 26.1.0, SVG Export Plug-In . SVG Version: 6.00 Build 0)  -->
<svg version="1.1" id="Layer_1" xmlns="http://www.w3.org/2000/svg" xmlns:xlink="http://www.w3.org/1999/xlink" x="0px" y="0px"
	 viewBox="0 0 16 16" style="enable-background:new 0 0 16 16;" xml:space="preserve">
<style type="text/css">
	.st0{opacity:0.5;fill:#FFFFFF;enable-background:new    ;}
	.st1{fill:#6486C4;}
</style>
<g id="icon">
	<path class="st0" d="M9,15.6C9,15.6,8.9,15.6,9,15.6c-0.5-0.1-0.7-0.3-0.7-0.7c0-0.2,0-0.3,0.6-1.8c0.6-1.4,0.6-1.5,0.6-1.5
		c0,0,0.1-0.1,0.1-0.2c0.1-0.1,0.1-0.2,0.9-0.6l0.1-0.1c0.4-0.2,0.6-0.4,0.6-0.4l0.2-0.1l-0.6-0.6C10.4,9,10.4,9,10.3,9
		c-0.1,0-0.1,0-0.2,0.2C10,9.5,9.9,9.6,9.6,9.6c-0.1,0-0.1,0-0.2,0c0,0-0.1,0-0.2,0c-0.2,0-1.6-0.1-1.8-0.1c-0.1,0-0.2,0-0.6-0.2
		C6.7,9.2,5.5,8.7,5.4,8.7c0,0,0,0,0,0c-0.1,0-0.1,0-0.2,0.4L5.1,9.3L5.5,10c0.7,1.4,0.8,1.4,0.8,1.5c0,0.1,0,0.1,0,0.1
		c0,0,0,0.1,0,0.2l0,0.1l-0.2,1.4C6,15,6,15,5.8,15.3l0,0c-0.1,0.2-0.3,0.3-0.6,0.3c-0.1,0-0.3,0-0.3-0.1c-0.1-0.1-0.2-0.2-0.3-0.3
		c-0.1-0.2-0.1-0.2,0-1.8l0.1-1.3l-0.9-1.5C3.1,9.6,2.8,9.1,2.8,9c0-0.1,0-0.4,0-0.6c0-0.1,0.1-0.2,0.1-0.3c0-0.1,0.1-0.2,0.2-0.9
		c0.3-1.6,0.5-2.4,0.8-2.8C4,4.1,4.3,3.9,4.6,3.9c0.1,0,0.1,0,0.2,0c0.1,0,0.3,0,0.5,0.1C5.4,4,5.5,4.1,5.7,4.3
		c0.3,0.3,0.4,0.9,0.4,1.5c0,0.1,0,0.4,0.1,0.9c0.1,0.8,0.1,0.8,0.1,0.8c0,0,0,0,0.3,0.2l0.3,0.2l0.6,0.3l0.5,0c0.2,0,0.5,0,0.6,0
		h0.1l0.4-0.6c0.1-0.2,0.4-0.6,0.4-0.7c0.1-0.2,0.3-0.5,0.5-0.6c0.2-0.1,0.4-0.2,0.5-0.2c0.2,0,0.4,0.1,0.7,0.2
		c0.3,0.2,0.7,0.6,1.2,1.2C13.1,8.1,14,9.2,14,9.3c0,0,0.1,0.1,0.1,0.2c0.2,0.2,0.2,0.7,0,1.1c-0.1,0.1-0.2,0.3-0.2,0.3
		c-0.1,0-0.6,0.3-1.5,0.8l-1.5,0.8l-0.6,1.3c-0.4,0.9-0.6,1.3-0.6,1.4c0,0-0.1,0.1-0.1,0.2c-0.1,0.1-0.2,0.2-0.4,0.2
		C9,15.6,9,15.6,9,15.6z"/>
	<path class="st1" d="M14.5,9.2C14.4,9.2,14.4,9.2,14.5,9.2l-0.1-0.1c-0.1-0.2-1.1-1.4-1.5-1.9c-0.6-0.6-1-1.1-1.3-1.3
		c-0.3-0.2-0.6-0.3-0.9-0.3c-0.3,0-0.5,0.1-0.8,0.2C9.6,6.1,9.3,6.4,9.2,6.7c0,0.1-0.2,0.3-0.4,0.6L8.6,7.8c-0.1,0-0.2,0-0.5,0
		l-0.4,0c0,0-1-0.5-1-0.5c0-0.1,0-0.3-0.1-0.6C6.5,6.1,6.5,5.9,6.5,5.7C6.5,5,6.3,4.4,6,4C5.8,3.8,5.6,3.6,5.3,3.6
		C5.1,3.5,4.9,3.4,4.7,3.4c-0.1,0-0.2,0-0.3,0c-0.4,0.1-0.7,0.4-1,0.8C3.2,4.8,3,5.6,2.7,7.2C2.6,7.7,2.6,7.9,2.5,8
		C2.5,8.1,2.4,8.2,2.4,8.4c0,0.2-0.1,0.6,0,0.8c0,0.1,0.1,0.2,1,1.6l0.9,1.4l-0.1,1.1c-0.1,1.6-0.1,1.7,0.1,2
		c0.1,0.2,0.3,0.4,0.5,0.5c0.1,0.1,0.4,0.1,0.5,0.1c0.3,0,0.7-0.2,0.9-0.4c0.2-0.3,0.2-0.3,0.4-2L6.8,12l0-0.2c0,0,0-0.1,0-0.1
		c0-0.1,0-0.2,0-0.2c0-0.1,0-0.1-0.8-1.6L5.5,9.3l0-0.1c0.4,0.2,1,0.5,1.2,0.5C7.1,9.9,7.3,9.9,7.5,10c0.2,0,1.6,0.1,1.8,0.1
		c0.1,0,0.1,0,0.2,0c0.1,0,0.2,0,0.3,0c0.3-0.1,0.5-0.2,0.6-0.4c0.1,0.1,0.4,0.4,0.4,0.4c-0.1,0-0.5,0.3-0.5,0.3
		c-0.7,0.5-0.9,0.5-1,0.8c0,0-0.1,0.1-0.1,0.1c-0.1,0.1-0.1,0.1-0.7,1.7c-0.7,1.6-0.7,1.7-0.7,2c0,0.6,0.4,1,1,1.1c0,0,0.1,0,0.2,0
		c0.1,0,0.1,0,0.2,0c0.2,0,0.4-0.1,0.6-0.3c0,0,0.2-0.2,0.2-0.3c0-0.1,0.5-1,0.7-1.4l0.6-1.2l1.4-0.7c0.7-0.4,1.4-0.8,1.5-0.8l0,0
		l0,0c0.1-0.1,0.2-0.3,0.3-0.5C14.7,10.2,14.7,9.6,14.5,9.2z M13.7,10.4c0,0.1-0.1,0.1-0.1,0.2c-0.2,0.1-0.7,0.4-1.4,0.8l-1.6,0.9
		l-0.7,1.5c-0.4,0.8-0.6,1.2-0.6,1.3c0,0,0,0.1-0.1,0.1c-0.1,0.1-0.1,0.1-0.2,0.1c0,0,0,0,0,0c0,0,0,0,0,0c-0.1,0-0.3-0.1-0.3-0.4
		c0-0.1,0.1-0.3,0.6-1.6c0.3-0.8,0.5-1.3,0.6-1.4c0.1-0.1,0.1-0.1,0.2-0.2c0,0,0.2-0.2,0.7-0.5l0.1-0.1c0.4-0.3,0.6-0.4,0.6-0.4
		l0.6-0.4l-0.9-0.9c-0.6-0.6-0.6-0.6-0.8-0.6C10,8.6,9.9,8.9,9.8,9C9.7,9.2,9.6,9.2,9.5,9.2c0,0,0,0-0.1,0c0,0-0.1,0-0.1,0
		c-0.2,0-1.6-0.1-1.8-0.1c0,0-0.1,0-0.4-0.2c0,0-1.4-0.7-1.6-0.7c0,0-0.1,0-0.1,0C5,8.2,4.9,8.5,4.8,8.9L4.7,9.4l0.5,0.9
		c0.6,1,0.7,1.4,0.8,1.4c0,0,0,0,0,0.1c0,0.1,0,0.2,0,0.3l0,0l-0.2,1.4c-0.2,1.5-0.2,1.5-0.3,1.6c0,0.1-0.1,0.1-0.2,0.1
		c0,0-0.1,0-0.2,0C5.1,15.1,5,15,5,15c-0.1-0.1-0.1-0.2,0-1.6L5.1,12l-1-1.6C3.8,9.8,3.3,9.1,3.2,8.9c0-0.1,0-0.3,0-0.3
		c0-0.1,0-0.2,0.1-0.3c0-0.1,0.1-0.3,0.2-0.9C3.8,5.8,4,5.1,4.2,4.7c0.1-0.2,0.2-0.4,0.4-0.4c0,0,0.1,0,0.1,0c0.1,0,0.2,0,0.3,0.1
		c0.1,0,0.2,0.1,0.3,0.2c0.2,0.2,0.3,0.7,0.3,1.2c0,0.2,0,0.4,0.1,1c0.1,0.9,0.1,0.9,0.2,1C6.1,7.8,6.1,7.8,6.5,8l1,0.5l0.6,0
		c0.5,0,0.6,0,0.6,0H9l0.5-0.8C9.9,7.1,10,7,10,7c0-0.1,0.2-0.3,0.4-0.4c0.1-0.1,0.2-0.1,0.3-0.1c0.1,0,0.3,0.1,0.4,0.2
		c0.3,0.2,0.7,0.6,1.2,1.2c0.5,0.6,1.3,1.6,1.4,1.7c0,0.1,0.1,0.1,0.1,0.2C13.8,9.8,13.9,10.1,13.7,10.4z"/>
	<path class="st0" d="M14.4,13.5l-0.5-0.8l0.1-0.6c0-0.1,0-0.1,0-0.2c-0.4,0.2-0.9,0.5-1.2,0.6l-0.6,0.3c0,0,0,0,0,0.1
		c0,0.1,0,0.2,0.1,0.4c0.2,0.2,1.6,1.9,1.7,2c0.1,0.1,0.3,0.2,0.4,0.2c0.2,0,0.3-0.1,0.5-0.2c0.1-0.1,0.2-0.3,0.2-0.4
		c0-0.2-0.1-0.4-0.2-0.6C15,14.3,14.6,13.7,14.4,13.5z"/>
	<path class="st1" d="M15.3,14.1c0,0-0.2-0.4-0.6-0.8l-0.4-0.6l0.1-0.4c0-0.1,0-0.3,0-0.5l-0.1,0c-0.1,0-0.4,0.2-0.8,0.4l-0.1,0.6
		l0.6,0.9c0.2,0.4,0.5,0.8,0.6,0.8c0.1,0.1,0.1,0.3,0.1,0.3c0,0.1,0,0.1-0.1,0.2c-0.1,0.1-0.1,0.1-0.2,0.1c-0.1,0-0.1,0-0.2-0.1
		c-0.2-0.2-1.6-1.8-1.7-2c0,0,0-0.1-0.1-0.1c0-0.1,0-0.2,0-0.2l0,0c0,0,0,0,0,0c0,0,0,0,0-0.1l-0.9,0.5c0,0.2,0.2,0.4,0.2,0.5
		c0.1,0.1,1.6,1.9,1.8,2.1l0,0c0.2,0.2,0.5,0.3,0.7,0.3c0.3,0,0.5-0.1,0.8-0.3c0.2-0.2,0.3-0.4,0.3-0.7
		C15.6,14.7,15.5,14.4,15.3,14.1z"/>
	<path class="st0" d="M2.9,11.1c-0.2-0.3-0.4-0.6-0.5-0.8c0,0.1-0.1,0.2-0.1,0.3L2.2,11c-0.2,0.5-0.5,1.2-0.7,1.9
		c-0.3,0.8-0.6,1.5-0.6,1.6c-0.1,0.4-0.1,0.8,0.2,1c0.1,0.1,0.2,0.1,0.3,0.1c0,0,0.1,0,0.1,0c0,0,0,0,0.1,0c0.1,0,0.2-0.1,0.3-0.1
		C2,15.3,2,15.2,2.1,15.1c0,0,0.3-0.6,0.6-1.2l0.1-0.2c0.3-0.6,0.6-1.3,0.7-1.4c0,0,0-0.1,0.1-0.2L2.9,11.1z"/>
	<path class="st1" d="M3.6,12.3l-0.4-0.6c-0.1,0.2-0.2,0.4-0.2,0.5c-0.1,0.2-0.6,1.3-0.7,1.4l-0.1,0.2c-0.2,0.5-0.5,1.1-0.6,1.2
		c0,0.1-0.1,0.1-0.1,0.2c0,0,0,0-0.1,0c0,0,0,0,0,0c0,0,0,0,0,0c-0.1,0-0.1,0-0.2-0.1c-0.1-0.1-0.1-0.3-0.1-0.5c0,0,0.3-0.7,0.6-1.6
		c0.2-0.7,0.5-1.4,0.7-1.9l0.1-0.3c0,0,0,0,0,0c-0.3-0.4-0.4-0.7-0.5-0.9c-0.1,0.2-0.2,0.5-0.2,0.6l-0.1,0.4
		c-0.2,0.5-0.5,1.2-0.7,1.8c-0.2,0.7-0.6,1.5-0.6,1.6c-0.2,0.6,0,1.2,0.4,1.4c0.1,0.1,0.3,0.1,0.4,0.2c0.1,0,0.1,0,0.2,0
		c0.1,0,0.1,0,0.2,0c0.2,0,0.4-0.1,0.5-0.2c0.1-0.1,0.2-0.2,0.3-0.4c0,0,0.2-0.4,0.6-1.2l0.1-0.2c0.2-0.4,0.4-0.8,0.5-1L3.6,12.3z"
		/>
	<path class="st0" d="M5.8,2.8c-0.1,0-0.2,0-0.3,0C5.3,2.7,5.1,2.6,4.9,2.4C4.8,2.3,4.7,2.1,4.6,1.8c0-0.2,0-0.5,0.1-0.8
		C4.8,0.9,5,0.7,5.1,0.6c0.2-0.1,0.3-0.2,0.5-0.2c0.1,0,0.1,0,0.2,0c0.3,0,0.5,0.1,0.7,0.2c0.2,0.1,0.3,0.3,0.4,0.5
		C7,1.3,7,1.4,7,1.6c0,0.2,0,0.2,0,0.3C6.9,2.1,6.8,2.3,6.7,2.5C6.5,2.6,6.3,2.7,6.1,2.8C6,2.8,6,2.8,5.8,2.8L5.8,2.8z"/>
	<path class="st1" d="M7.3,1C7.2,0.7,7,0.4,6.7,0.3C6.5,0.1,6.1,0,5.8,0C5.7,0,5.6,0,5.5,0C5.3,0.1,5.1,0.2,4.9,0.3
		C4.7,0.4,4.5,0.7,4.4,0.9c-0.1,0.3-0.2,0.7-0.1,1c0.1,0.3,0.2,0.6,0.4,0.8c0.2,0.2,0.5,0.4,0.8,0.5c0.1,0,0.2,0,0.4,0h0l0.1,0
		c0.2,0,0.3,0,0.4,0C6.5,3.1,6.7,2.9,7,2.7C7.1,2.5,7.3,2.3,7.3,2c0-0.1,0-0.2,0-0.4C7.4,1.3,7.4,1.2,7.3,1z M6.6,1.8
		c0,0.2-0.1,0.3-0.2,0.4C6.3,2.3,6.2,2.4,6,2.4c-0.1,0-0.1,0-0.2,0l0,0c-0.1,0-0.1,0-0.2,0c-0.2,0-0.3-0.1-0.4-0.2
		C5.1,2.1,5,2,5,1.8c0-0.2,0-0.4,0.1-0.5c0-0.1,0.2-0.3,0.3-0.3c0.1-0.1,0.2-0.1,0.3-0.1c0,0,0.1,0,0.2,0c0.2,0,0.4,0.1,0.5,0.2
		C6.4,1,6.5,1.1,6.6,1.2c0.1,0.2,0.1,0.2,0.1,0.4C6.6,1.8,6.6,1.8,6.6,1.8z"/>
	<path class="st0" d="M8.5,5.8c-0.1,0-0.1,0-0.2,0c-0.5-0.1-0.9-0.5-1-1C7.2,4.4,7.4,4,7.7,3.7C7.8,3.6,8,3.5,8.3,3.4
		c0.1,0,0.1,0,0.2,0c0.4,0,0.8,0.2,1,0.5c0.2,0.3,0.3,0.6,0.2,0.9C9.6,5.1,9.4,5.4,9.1,5.6C8.9,5.8,8.7,5.8,8.5,5.8L8.5,5.8z"/>
	<path class="st1" d="M9.8,3.7C9.5,3.3,9,3,8.5,3c-0.1,0-0.2,0-0.3,0C7.9,3.1,7.6,3.3,7.4,3.5C7,3.8,6.9,4.4,7,4.9
		C7.1,5.6,7.6,6,8.2,6.2c0.1,0,0.2,0,0.2,0c0.3,0,0.6-0.1,0.8-0.3C9.7,5.7,10,5.3,10,4.9C10.1,4.5,10,4,9.8,3.7z M9.3,4.7
		c0,0.3-0.2,0.4-0.4,0.6C8.8,5.4,8.6,5.5,8.5,5.5c0,0-0.1,0-0.1,0C8,5.4,7.8,5.1,7.7,4.7C7.6,4.5,7.7,4.2,7.9,4
		C8,3.9,8.2,3.8,8.3,3.8c0,0,0.1,0,0.1,0c0.3,0,0.5,0.1,0.7,0.4C9.3,4.3,9.3,4.6,9.3,4.7z"/>
</g>
</svg>
