<?xml version="1.0" encoding="utf-8"?>
<!-- Generator: Adobe Illustrator 26.1.0, SVG Export Plug-In . SVG Version: 6.00 Build 0)  -->
<svg version="1.1" id="Layer_1" xmlns="http://www.w3.org/2000/svg" xmlns:xlink="http://www.w3.org/1999/xlink" x="0px" y="0px"
	 viewBox="0 0 16 16" style="enable-background:new 0 0 16 16;" xml:space="preserve">
<style type="text/css">
	.st0{fill:#6485C3;}
	.st1{fill:#6E6F72;}
	.st2{fill:#6486C4;}
</style>
<g id="icon">
	<path class="st0" d="M15,8.3c0,0.1,0,0.2,0,0.2C15,8.8,14.8,9,14.5,9h-4C10.2,9,10,8.8,10,8.5V2.2c0-0.2,0.1-0.3,0.2-0.4
		c0.1-0.1,0.3-0.1,0.5,0c0.4,0.2,1,0.6,1.5,0.9c1.6,1.2,2.5,2.8,2.8,4.7C15,7.7,15,7.9,15,8.3z M8.7,0C8.5,0,8.3,0,8.1,0.1
		C7.6,0.7,6.4,1.9,4.3,4.1c0,0,0,0,0,0L0.6,8.2C0.5,8.3,0.5,8.5,0.5,8.7S0.8,9,1,9h7.5C8.8,9,9,8.8,9,8.5v-8C9,0.3,8.9,0.1,8.7,0z"
		/>
	<path class="st1" d="M15.2,10l-0.1,0c-0.1,0-0.2,0-0.4,0c-0.4,0-0.9,0-1.5,0c-1.3,0-3.1,0-5,0H0.9l-0.1,0.5c-0.1,0.4-0.1,1.1,0,1.6
		c0,0.2,0.1,0.7,0.2,0.9l0.1,0.2l0.2-0.1c0.1,0,0.1,0,0.2,0c0,0,0,0,0,0c0,0,0.1,0,0.1,0c0.2,0,0.5,0,0.8,0.2
		C2.7,13.4,3,13.6,3.3,14c0.3,0.3,0.3,0.3,0.4,0.3c0.1,0,0.1,0,0.1,0c0,0,0.1-0.1,0.3-0.3c0.2-0.3,0.3-0.3,0.4-0.4l0,0l0,0
		c0,0,0,0,0.1-0.1c0.3-0.2,0.6-0.3,1-0.3l0,0c0.2,0,0.5,0,0.7,0.2c0.2,0.1,0.5,0.4,0.7,0.7c0.3,0.4,0.4,0.4,0.4,0.4
		c0,0,0.1,0,0.4-0.3c0.4-0.4,0.8-0.9,1.5-0.9c0.3,0,0.5,0,0.7,0.2c0.2,0.1,0.5,0.4,0.8,0.7c0.1,0.2,0.3,0.3,0.3,0.3c0,0,0,0,0.1,0
		c0,0,0.1,0,0.1,0c0.1-0.1,0.2-0.2,0.3-0.4c0.3-0.4,0.7-0.8,1.3-0.8l0.2,0l0,0c0.1,0,0.1,0,0.2,0c0,0,0,0,0,0c0.1,0,0.2,0,0.3,0.1
		l0.1,0l0.1-0.1c0.2-0.2,0.3-0.6,0.6-0.8c0.3-0.3,0.5-0.8,0.7-1.1c0.4-0.5,0.4-0.5,0.4-0.7C15.7,10.3,15.6,10,15.2,10z"/>
	<path class="st2" d="M7.5,15.9c-0.5,0-0.9-0.2-1.4-0.8C6,15,5.8,14.8,5.7,14.7c0,0,0,0-0.2,0l0,0c-0.1,0-0.1,0-0.3,0.1
		c-0.1,0-0.1,0.1-0.1,0.1c0,0-0.1,0.2-0.2,0.3c-0.4,0.5-0.7,0.8-1.3,0.8c-0.6,0-0.9-0.3-1.3-0.7c-0.3-0.3-0.4-0.4-0.5-0.4
		c0,0-0.2,0-0.3,0c-0.2,0.1-0.3,0.2-0.5,0.4c-0.1,0.1-0.2,0.2-0.3,0.3l-0.1,0.1l-0.5-0.6l0.1-0.1c0,0,0.1-0.1,0.2-0.2
		c0.3-0.4,0.6-0.6,0.9-0.7c0.1,0,0.1,0,0.2,0c0.2,0,0.5,0,0.6,0.1c0.2,0.1,0.4,0.3,0.7,0.6c0.4,0.4,0.5,0.5,0.7,0.5
		c0.2,0,0.3,0,0.7-0.5c0.2-0.3,0.3-0.3,0.3-0.4l0,0c0,0,0,0,0.1-0.1C5,14,5.2,13.9,5.5,13.9l0,0c0.2,0,0.4,0,0.6,0.1
		c0.2,0.1,0.5,0.3,0.7,0.6c0.4,0.5,0.6,0.5,0.7,0.5c0.2,0,0.3,0,0.7-0.5c0.4-0.5,0.7-0.7,1.2-0.7c0.2,0,0.4,0,0.6,0.1
		c0.2,0.1,0.4,0.3,0.7,0.6c0.2,0.2,0.3,0.3,0.5,0.4c0,0,0.1,0,0.2,0c0.1,0,0.2,0,0.2,0c0.1-0.1,0.3-0.2,0.5-0.5
		c0.4-0.5,0.7-0.7,1.2-0.7h0c0.3,0,0.4,0,0.6,0.1c0.2,0.1,0.4,0.3,0.6,0.5c0.2,0.2,0.2,0.3,0.4,0.3c0.2,0.1,0.4,0.2,0.5,0.2l0.1,0
		l-0.1,0.8l-0.1,0c-0.2,0-0.6-0.1-0.8-0.3c-0.3-0.1-0.4-0.3-0.6-0.5c-0.1-0.2-0.3-0.3-0.4-0.4c0,0,0,0-0.2,0h0c-0.2,0-0.3,0-0.6,0.4
		c-0.3,0.4-0.5,0.5-0.7,0.7c-0.2,0.1-0.5,0.1-0.6,0.1c-0.2,0-0.4,0-0.6-0.1c-0.2-0.1-0.5-0.3-0.7-0.6c-0.2-0.2-0.3-0.4-0.5-0.4
		c0,0,0,0-0.2,0c-0.2,0-0.3,0-0.6,0.4C8.4,15.6,8.1,15.9,7.5,15.9L7.5,15.9L7.5,15.9L7.5,15.9z"/>
</g>
</svg>
