<?xml version="1.0" encoding="utf-8"?>
<!-- Generator: Adobe Illustrator 26.1.0, SVG Export Plug-In . SVG Version: 6.00 Build 0)  -->
<svg version="1.1" id="Layer_1" xmlns="http://www.w3.org/2000/svg" xmlns:xlink="http://www.w3.org/1999/xlink" x="0px" y="0px"
	 viewBox="0 0 16 16" style="enable-background:new 0 0 16 16;" xml:space="preserve">
<style type="text/css">
	.st0{fill:#6D6E71;}
	.st1{fill:#6485C3;}
	.st2{fill:#6486C4;}
	.st3{opacity:0.5;fill:#FFFFFF;enable-background:new    ;}
</style>
<g id="icon">
	<path class="st0" d="M16,9.1c0-0.4-0.1-0.8-0.2-1.2c-0.3-1.5-1-2.8-2.2-4.1c-0.2-0.2-0.7-0.7-0.9-0.9c-1.6-1.4-3.7-2.5-5.7-2.9
		C6.6,0,6.5,0,6.3,0.1L6.2,0.2v0.2c0,0.1,0,0.1,2.1,6.2c0.5,1.5,1.1,3,1.5,4.2c0.7,2,0.7,2,0.8,2.1l0.1,0.1l0.1,0c0,0,0.1,0,0.1,0
		c0.1,0,0.3-0.1,0.9-0.6c0.4-0.3,1-0.7,1.6-1.2L16,9.5L16,9.1z M15.5,8.3c-0.1,0.1-0.2,0.1-0.3,0.1c-0.1,0-0.2,0-0.3-0.1
		c-0.7-0.7-1.6-1-2.8-1c-0.8,0-1.7,0.2-2.8,0.5c0,0-0.1,0-0.1,0C9,7.8,8.9,7.7,8.8,7.5c0-0.1,0-0.2,0-0.3C8.9,7.1,9,7,9.1,7
		c1.1-0.3,2.1-0.5,3-0.5c1.4,0,2.6,0.4,3.4,1.3c0.1,0.1,0.1,0.2,0.1,0.3C15.6,8.2,15.6,8.3,15.5,8.3z"/>
	<path class="st1" d="M8.4,13.3c-0.1,0-0.3,0-0.4-0.1c-0.1,0-0.2-0.1-1.1-1L6,11.2H4.4c-1.6,0-1.6,0-1.8,0c-0.4-0.1-0.7-0.3-0.8-0.6
		c-0.1-0.1-1.2-2.8-1.3-3c-0.1-0.2,0-0.5,0-0.7C0.8,6.4,1.1,6.1,1.5,6l0.1,0l2.7,0l0.8-0.4c0.4-0.2,0.9-0.4,0.9-0.4
		c0.1,0,0.1,0,0.2,0c0.1,0,0.2,0,0.3,0.1c0.1,0.1,0.2,0.1,0.3,0.3c0.2,0.3,0.2,0.5,0,0.8C6.9,6.4,6.8,6.4,5.9,6.9
		c-0.5,0.2-0.9,0.4-1,0.5C4.6,7.5,4.6,7.5,3.9,7.5c-0.2,0-0.3,0-0.4,0C3.6,7.7,3.8,8,3.9,8.4l0.4,0.9l1.2,0c1.1,0,1.1,0,1.2,0.1l0,0
		c0.1,0.1,0.4,0.3,1.9,1.8c0.5,0.5,0.5,0.5,0.6,0.6c0,0.1,0.1,0.2,0.1,0.2c0.1,0.4-0.1,0.9-0.5,1C8.7,13.2,8.5,13.3,8.4,13.3z
		 M1.4,5.5c-0.6,0-1.1-0.4-1.2-1c0-0.2,0-0.5,0-0.7c0.1-0.5,0.5-0.8,0.9-1c0.1,0,0.1,0,0.2,0c0,0,0.1,0,0.1,0c0.2,0,0.2,0,0.3,0.1
		C2.2,3,2.4,3.2,2.6,3.5c0.2,0.3,0.2,0.7,0.1,1C2.5,5.1,2,5.5,1.4,5.5z"/>
	<path class="st2" d="M7.6,16c-0.5,0-0.9-0.2-1.4-0.8C6,15,5.9,14.8,5.7,14.7c0,0,0,0-0.2,0l0,0c-0.1,0-0.1,0-0.3,0.1
		c-0.1,0-0.1,0.1-0.1,0.1c0,0-0.1,0.2-0.2,0.3l0,0C4.5,15.7,4.2,16,3.6,16c-0.6,0-0.9-0.3-1.3-0.8c-0.3-0.3-0.4-0.4-0.5-0.5
		c0,0-0.2,0-0.3,0c-0.2,0.1-0.3,0.2-0.5,0.4c-0.1,0.1-0.2,0.2-0.3,0.3l-0.1,0.1L0,14.9l0.1-0.1c0,0,0.1-0.1,0.2-0.2
		c0.3-0.4,0.6-0.6,0.9-0.7c0.1,0,0.1,0,0.2,0c0.2,0,0.5,0,0.7,0.1c0.2,0.1,0.5,0.3,0.7,0.7c0.4,0.4,0.5,0.5,0.7,0.5
		c0.2,0,0.3,0,0.7-0.5c0.2-0.3,0.3-0.3,0.3-0.4l0,0c0,0,0,0,0.1-0.1C5,14,5.2,13.9,5.5,13.9l0,0c0.2,0,0.4,0,0.6,0.1
		c0.2,0.1,0.5,0.4,0.7,0.6c0.4,0.5,0.6,0.5,0.8,0.5c0.2,0,0.3,0,0.7-0.5c0.4-0.5,0.7-0.8,1.3-0.8c0.2,0,0.4,0,0.6,0.1
		c0.2,0.1,0.5,0.4,0.7,0.7c0.2,0.2,0.3,0.4,0.5,0.4c0,0,0.1,0,0.2,0c0.1,0,0.2,0,0.2,0c0.1-0.1,0.3-0.2,0.5-0.5
		c0.4-0.5,0.7-0.7,1.3-0.7l0,0c0.3,0,0.4,0,0.6,0.1c0.2,0.1,0.4,0.3,0.6,0.6c0.2,0.2,0.2,0.3,0.4,0.4c0.2,0.1,0.4,0.2,0.5,0.2l0.2,0
		L15.8,16l-0.2,0c-0.2,0-0.6-0.1-0.8-0.3c-0.3-0.1-0.4-0.3-0.7-0.6c-0.1-0.2-0.3-0.3-0.4-0.4c0,0,0,0-0.2,0l0,0
		c-0.2,0-0.3,0-0.6,0.4c-0.3,0.4-0.5,0.6-0.8,0.7C12,16,11.7,16,11.6,16c-0.2,0-0.4,0-0.6-0.1c-0.2-0.1-0.5-0.3-0.7-0.6
		c-0.2-0.2-0.4-0.4-0.5-0.5c0,0,0,0-0.2,0c-0.2,0-0.3,0-0.7,0.5C8.5,15.7,8.2,16,7.6,16L7.6,16L7.6,16L7.6,16z"/>
	<path class="st3" d="M15.2,8.5c-0.1,0-0.2,0-0.3-0.1c-0.7-0.7-1.6-1-2.8-1c-0.8,0-1.7,0.2-2.8,0.5c0,0-0.1,0-0.1,0
		C9,7.8,8.9,7.7,8.8,7.5c0-0.1,0-0.2,0-0.3C8.9,7.1,9,7,9.1,7c1.1-0.3,2.1-0.5,3-0.5c1.4,0,2.6,0.4,3.4,1.3c0.1,0.1,0.1,0.2,0.1,0.3
		c0,0.1-0.1,0.2-0.1,0.3C15.4,8.4,15.3,8.5,15.2,8.5z"/>
</g>
</svg>
