<?xml version="1.0" encoding="utf-8"?>
<!-- Generator: Adobe Illustrator 26.1.0, SVG Export Plug-In . SVG Version: 6.00 Build 0)  -->
<svg version="1.1" id="Layer_1" xmlns="http://www.w3.org/2000/svg" xmlns:xlink="http://www.w3.org/1999/xlink" x="0px" y="0px"
	 viewBox="0 0 16 16" style="enable-background:new 0 0 16 16;" xml:space="preserve">
<style type="text/css">
	.st0{fill:#6E6F72;}
	.st1{opacity:0.5;fill:#FFFFFF;enable-background:new    ;}
	.st2{fill:#6486C4;}
</style>
<g id="icon">
	<path class="st0" d="M13.6,13.6c-0.2,0-0.4-0.1-0.5-0.2l-0.1,0l0-0.1c0-0.1,0-0.9,0.1-3c0-1.2,0.1-2,0.1-2.4l0-0.2l0.2,0
		c0,0,0,0,0.1,0c0.2,0,0.4,0,0.6,0.1l0.1,0l0,0.2c0,0.1-0.1,0.5-0.2,2.4c-0.1,2.6-0.1,2.9-0.2,3l0,0l0,0
		C13.8,13.6,13.7,13.6,13.6,13.6z"/>
	<path class="st0" d="M0.6,11.1L0.7,11L0.6,11.1c-0.1-0.1-0.2-0.4-0.2-0.5c0-0.1,0.1-0.2,0.1-0.2c0,0,1-0.6,2-1.2
		c0.9-0.5,1.7-1,1.9-1.1L4.6,8l0.1,0.1c0.1,0.1,0.2,0.3,0.2,0.5c0,0,0,0.1,0,0.1l0,0.1L2.8,10c-0.9,0.5-1.8,1-2,1.1l-0.1,0.1
		L0.6,11.1z"/>
	<path class="st0" d="M1,16v-1l12.6,0c0,0,0,0,0,0c0.2,0,0.9-0.5,1.2-1.1l0.8,0.5c-0.2,0.3-1.2,1.5-2.1,1.5c0,0,0,0,0,0L1,16z"/>
	<path class="st1" d="M11,14.2c-0.3,0-0.5-0.2-0.6-0.4c0-0.1-0.2-0.7-0.3-1.5c-0.1-0.6-0.3-1.4-0.3-1.5c0,0,0-0.1-0.8-0.6
		C8.5,9.7,8.2,9.5,8.1,9.5c-0.6-0.3-0.8-0.6-0.8-1c0-0.1,0.1-0.4,0.4-2.1c0.2-0.9,0.2-0.9,0.2-0.9l0,0l0,0l0,0c0,0-1,0.3-1.1,0.3
		l0,0l0,0c0,0,0,0-0.2,1c-0.1,0.7-0.1,1-0.2,1.1C6.4,8.1,6.2,8.2,6,8.2c0,0-0.1,0-0.1,0c-0.1,0-0.2-0.1-0.2-0.1
		C5.5,8,5.5,7.8,5.5,7.7c0-0.1,0.2-2.4,0.2-2.5c0-0.1,0.1-0.3,0.3-0.4c0,0,0.5-0.2,1.2-0.5c0.2-0.1,1.2-0.4,1.3-0.5
		c0.1,0,0.2-0.1,0.3-0.1c0,0,0,0,0.1,0c0.2,0,0.4,0,0.5,0c0.2,0,0.4,0.1,0.5,0.3c0.2,0.2,0.4,0.5,0.5,0.9c0,0.1,0,0.2,0,0.2
		c0,0.1-0.2,0.9-0.6,2.2c-0.3,1-0.3,1-0.2,1.1c0.3,0.3,1.2,1.1,1.3,1.1c0.1,0.1,0.2,0.2,0.3,0.4c0,0.1,0.1,0.8,0.3,1.7
		c0.2,1,0.3,1.6,0.3,1.7c0,0.3-0.1,0.5-0.3,0.6C11.2,14.1,11.1,14.2,11,14.2z"/>
	<path class="st2" d="M11.7,11.7c-0.1-0.8-0.3-1.6-0.3-1.7l0,0l0,0c-0.1-0.2-0.2-0.4-0.4-0.5c-0.1,0-0.7-0.6-1.1-1
		c0-0.2,0.1-0.4,0.2-0.8c0.6-2.1,0.6-2.2,0.6-2.3c0-0.1,0-0.2,0-0.4c-0.1-0.5-0.3-0.9-0.6-1.2C9.9,3.6,9.7,3.5,9.3,3.4
		c-0.1,0-0.4,0-0.6,0c-0.1,0-0.1,0-0.2,0l0,0c-0.2,0-0.3,0.1-0.4,0.1c0,0-0.5,0.2-1.2,0.5C6.5,4.2,5.8,4.4,5.7,4.5l0,0
		C5.5,4.6,5.3,4.9,5.2,5.1l0,0c0,0.1-0.2,2.4-0.2,2.6c0,0.3,0.1,0.5,0.2,0.7c0.1,0.1,0.3,0.2,0.4,0.3c0.1,0,0.2,0,0.2,0
		c0.4,0,0.7-0.2,0.9-0.6l0,0c0-0.1,0.1-0.8,0.2-1.1C7,6.5,7.1,6.2,7.1,6.1C7.2,6,7.3,6,7.4,6c0,0.1-0.1,0.4-0.1,0.4
		C6.9,8.3,6.9,8.4,6.9,8.5c-0.1,0.8,0.7,1.2,1,1.4c0.1,0.1,0.7,0.5,0.9,0.6c0.4,0.3,0.6,0.4,0.7,0.5c0.1,0.2,0.2,0.8,0.3,1.3
		c0.1,0.4,0.3,1.4,0.3,1.5l0,0c0.2,0.4,0.5,0.7,0.9,0.7h0c0.2,0,0.4-0.1,0.5-0.1c0.3-0.2,0.5-0.5,0.5-0.9C12,13.4,12,13.2,11.7,11.7
		z M11.1,13.7c0,0-0.1,0-0.1,0c-0.1,0-0.1-0.1-0.2-0.1c0-0.1-0.2-0.7-0.3-1.5c-0.1-0.5-0.3-1.4-0.3-1.5l0,0
		c-0.1-0.2-0.1-0.2-0.9-0.8c-0.6-0.4-0.8-0.6-1-0.7C7.7,8.8,7.7,8.6,7.7,8.5c0,0,0-0.2,0.4-2c0.2-1,0.2-1.1,0.1-1.2l0,0L8,5L7.8,5
		C7.7,5,6.6,5.3,6.5,5.4l0,0C6.3,5.6,6.3,5.6,6.2,6.8C6.1,7.4,6,7.7,6,7.7c0,0,0,0.1-0.1,0.1c0,0,0,0,0,0c0,0,0,0,0,0c0,0,0,0,0,0
		c0,0,0,0,0-0.1c0-0.1,0.1-2.2,0.2-2.4c0,0,0-0.1,0.1-0.1c0.1,0,0.5-0.2,1.1-0.4c1.2-0.4,1.3-0.5,1.3-0.5c0,0,0.1,0,0.2,0
		c0,0,0,0,0,0c0.2,0,0.4,0,0.4,0c0.2,0,0.2,0.1,0.3,0.2c0.2,0.2,0.3,0.4,0.4,0.7c0,0,0,0,0,0.1c0,0-0.1,0.3-0.6,2.2
		C9.2,7.9,9.1,8.2,9.1,8.3C9,8.4,9,8.7,9.2,8.9c0.2,0.2,1.2,1.1,1.3,1.2c0.1,0,0.1,0.1,0.1,0.1c0,0.1,0.1,0.7,0.3,1.6
		c0.1,0.4,0.2,1.6,0.3,1.7C11.2,13.6,11.2,13.7,11.1,13.7z"/>
	<path class="st1" d="M8.2,10.8c-0.3,0.6-0.4,1-0.5,1.1c0,0-0.2,0.2-0.7,0.8l-0.1,0.1c-0.4,0.4-0.8,0.8-1,1
		c-0.4,0.4-0.5,0.4-0.6,0.5c0,0,0,0-0.1,0c-0.1,0-0.3-0.1-0.4-0.2c-0.1-0.1-0.1-0.2-0.1-0.4c0-0.2,0-0.2,0.1-0.4
		c0-0.1,0.4-0.5,0.9-1.1c0.9-1,0.9-1.1,0.9-1.1c0,0,0.2-0.5,0.3-0.8c0-0.1,0.1-0.2,0.1-0.3c0.2,0.2,0.5,0.3,0.6,0.4
		C7.6,10.4,7.7,10.5,8.2,10.8z"/>
	<path class="st1" d="M14.8,6.3c-0.1-0.3-0.2-0.4-0.5-0.4c-0.1,0-0.7-0.1-1.3-0.2l-1.2-0.2l-0.4-0.3c0,0.1,0,0.1,0,0.2
		c0,0.1,0,0.1-0.3,1.1c0,0,0.1,0,0.1,0.1c0.1,0.1,0.3,0.1,0.4,0.1l0,0c0.1,0,0.8,0.1,1.4,0.1l1.3,0.1l0.1,0c0.2,0,0.4-0.2,0.4-0.3
		C14.8,6.6,14.8,6.4,14.8,6.3z"/>
	<path class="st2" d="M8.5,11c-0.1,0.3-0.3,0.6-0.3,0.7C8.1,11.9,8.1,12,8.1,12c0,0,0,0,0,0c0,0-0.1,0.1-0.8,0.8L7.2,13
		c-0.4,0.4-0.8,0.8-1,1c-0.4,0.4-0.6,0.5-0.9,0.6c0,0-0.1,0-0.1,0c-0.3,0-0.5-0.1-0.7-0.3c-0.2-0.2-0.2-0.3-0.2-0.6
		c0-0.2,0-0.4,0.2-0.6c0.1-0.1,0.7-0.9,1-1.2c0.6-0.7,0.8-0.9,0.9-1c0-0.1,0.2-0.4,0.3-0.8c0.1-0.1,0.1-0.3,0.2-0.5
		c0.2,0.3,0.5,0.5,0.7,0.6c0,0.1,0,0.1-0.1,0.2c-0.1,0.3-0.3,0.8-0.3,0.8c0,0.1,0,0.1-1,1.2c-0.6,0.7-0.8,1-0.9,1.1
		c0,0.1,0,0.1,0,0.2c0,0,0,0,0,0.1c0,0,0,0,0,0c0,0,0.1,0.1,0.1,0.1c0,0,0.1,0,0.4-0.4c0.2-0.2,0.6-0.6,1-1l0.1-0.1
		c0.5-0.4,0.6-0.6,0.7-0.7c0,0,0-0.1,0.1-0.1l0,0c0.1-0.2,0.2-0.5,0.4-0.9C7.9,10.6,8.1,10.7,8.5,11C8.4,11,8.5,11,8.5,11z"/>
	<path class="st2" d="M15.2,6.2c-0.1-0.4-0.4-0.7-0.9-0.7c-0.1,0-0.5-0.1-1.3-0.2l-1.1-0.1l-0.4-0.4c0,0-0.1-0.1-0.2-0.2
		c0,0.1,0,0.1,0,0.2c0,0.2,0.1,0.3,0,0.6c0,0,0,0.1-0.1,0.3l0.2,0.2C11.5,5.9,11.6,6,11.7,6l1.2,0.2c0,0,1.2,0.2,1.4,0.2
		c0.1,0,0.1,0,0.2,0.1c0,0,0,0,0,0c0,0-0.1,0.1-0.1,0.1l0,0L13,6.4c-0.4,0-1.3-0.1-1.4-0.1h0c-0.1,0-0.1,0-0.2,0
		c0,0-0.1-0.1-0.2-0.1c-0.1,0.2-0.1,0.5-0.2,0.8c0.2,0.1,0.4,0.2,0.6,0.2l0,0c0.1,0,0.6,0,1.4,0.1l1.3,0.1c0,0,0,0,0,0
		c0,0,0.1,0,0.1,0l0.1,0c0.3-0.1,0.6-0.3,0.7-0.5C15.2,6.6,15.2,6.4,15.2,6.2z"/>
	<path class="st1" d="M10.2,3C10,3,9.8,3,9.6,2.9C9.4,2.7,9.2,2.5,9.1,2.3C9,2.1,8.9,1.8,8.9,1.6C9,1.3,9.1,1,9.3,0.8
		C9.5,0.6,9.7,0.5,10,0.4c0.1,0,0.1,0,0.2,0c0.1,0,0.2,0,0.3,0c0.5,0.1,0.8,0.5,0.9,0.9c0,0.1,0,0.1,0,0.3c0,0.3,0,0.4-0.1,0.6
		C11.2,2.7,10.7,3,10.2,3C10.2,3,10.2,3,10.2,3z"/>
	<path class="st2" d="M11.9,1.3c-0.2-0.6-0.6-1.1-1.2-1.2c-0.1,0-0.3,0-0.4,0C10.1,0,10,0,9.9,0C9.5,0.1,9.2,0.3,9,0.5
		c-0.3,0.3-0.4,0.6-0.5,1c0,0.3,0,0.7,0.2,1c0.2,0.3,0.4,0.6,0.7,0.8c0.2,0.1,0.5,0.2,0.8,0.2c0.7,0,1.2-0.4,1.5-1
		c0.1-0.3,0.2-0.4,0.2-0.7C11.9,1.5,11.9,1.4,11.9,1.3z M11,2.1c-0.1,0.3-0.4,0.5-0.8,0.5c-0.1,0-0.3,0-0.4-0.1
		C9.7,2.4,9.5,2.3,9.4,2.1C9.4,2,9.3,1.8,9.3,1.6c0-0.2,0.1-0.4,0.2-0.5c0.1-0.1,0.3-0.2,0.5-0.3c0,0,0,0,0.1,0c0.1,0,0.2,0,0.2,0
		c0.3,0.1,0.6,0.3,0.6,0.6c0,0,0,0.1,0,0.2C11.1,1.9,11.1,1.9,11,2.1z"/>
</g>
</svg>
