<?xml version="1.0" encoding="utf-8"?>
<!-- Generator: Adobe Illustrator 26.1.0, SVG Export Plug-In . SVG Version: 6.00 Build 0)  -->
<svg version="1.1" id="Layer_1" xmlns="http://www.w3.org/2000/svg" xmlns:xlink="http://www.w3.org/1999/xlink" x="0px" y="0px"
	 viewBox="0 0 16 16" style="enable-background:new 0 0 16 16;" xml:space="preserve">
<style type="text/css">
	.st0{opacity:0.5;fill:#FFFFFF;enable-background:new    ;}
	.st1{fill:#6486C4;}
	.st2{fill:#6E6F72;}
</style>
<g id="icon">
	<path class="st0" d="M6.5,12.1c-0.1,0-0.1,0-0.2,0C6,12,5.8,11.8,5.8,11.5c-0.1-0.3,0.1-0.5,0.4-0.7c0.1,0,0.4-0.2,0.9-0.3
		c0.2-0.1,0.4-0.1,0.6-0.2c0.1,0,0.1,0,0.2-0.1c0.1,0,0.2-0.1,0.1-0.1l0,0l0,0c0,0,0,0-0.4-0.4C7.4,9.5,7.2,9.2,7.1,9.1
		C6.7,8.7,6.5,8.5,6.5,8.4c-0.2-0.3,0-0.9,0.3-1.2c0,0,0.1-0.1,0.1-0.1c0,0,0.1-0.1,0.2-0.3c0.2-0.3,0.4-0.5,0.5-0.7
		c0.3-0.5,0.3-0.6,0.3-0.6c0,0-0.1,0-0.2,0c-0.2,0-0.5,0-0.7,0l-0.2,0L5.9,5.8C5.6,5.9,5.3,6,5,6.1L4.8,6.2C4.5,6.3,4.4,6.4,4.3,6.4
		c0,0-0.1,0-0.1,0C4,6.3,3.9,6.3,3.8,6.2C3.7,6.1,3.6,5.8,3.7,5.7c0-0.1,0.1-0.3,0.3-0.3c0.1-0.1,2.2-1.1,2.3-1.1
		c0.1,0,0.2,0,1.5-0.2C8.5,4,8.7,4,8.9,4C9,4,9.2,4,9.3,4c0.5,0.1,0.9,0.2,1.1,0.4c0.4,0.3,0.5,0.7,0.3,1.3C10.6,6.2,10,7,9.1,8
		L8.9,8.2l0.8,1c0.5,0.6,0.8,0.9,0.8,1c0.1,0.2,0.1,0.5,0,0.7c-0.1,0.2-0.3,0.3-0.6,0.4c-0.1,0-0.8,0.2-1.6,0.4
		C6.8,12.1,6.8,12.1,6.5,12.1C6.6,12.1,6.5,12.1,6.5,12.1z"/>
	<path class="st1" d="M10.7,4.1c-0.3-0.3-0.8-0.4-1.3-0.5c-0.2,0-0.3,0-0.4,0c-0.2,0-0.5,0-1.2,0.1C6.3,3.8,6.3,3.8,6.2,3.8
		C6,3.9,3.9,4.9,3.7,5l0,0C3.5,5.1,3.4,5.3,3.3,5.5c-0.1,0.3,0,0.7,0.3,1c0.1,0.1,0.3,0.2,0.5,0.3c0.1,0,0.1,0,0.2,0
		c0.2,0,0.4-0.1,0.7-0.2l0.3-0.1c0.2-0.1,0.6-0.2,0.8-0.3l0.7-0.3l0.1,0c0.1,0,0.2,0,0.3,0c0,0,0,0,0,0C7.1,6.1,7,6.3,6.7,6.6
		C6.7,6.7,6.5,6.8,6.5,6.9c0,0,0,0,0,0C6,7.3,5.8,8.1,6.1,8.6c0,0.1,0.2,0.2,0.7,0.8c0.1,0.1,0.4,0.4,0.5,0.5c0,0,0,0,0,0
		c-0.1,0-0.3,0.1-0.4,0.1c-0.7,0.2-0.9,0.3-1,0.4c-0.4,0.2-0.6,0.7-0.5,1.1c0.1,0.5,0.4,0.8,0.9,0.9c0.1,0,0.2,0,0.3,0
		c0,0,0.1,0,0.1,0c0.2,0,0.3,0,1.7-0.4c0.8-0.2,1.6-0.4,1.6-0.4c0.4-0.1,0.6-0.3,0.8-0.5c0.2-0.3,0.2-0.8,0-1.1l0,0
		c-0.1-0.1-0.5-0.7-0.8-1L9.4,8.2c0.9-1,1.5-1.9,1.8-2.5C11.4,5.1,11.2,4.5,10.7,4.1z M10.4,5.5C10.2,6,9.6,6.8,8.8,7.7L8.3,8.2
		l1,1.3c0.5,0.6,0.7,0.9,0.8,0.9c0,0.1,0,0.2,0,0.2c-0.1,0.1-0.2,0.2-0.3,0.2c-0.1,0-0.8,0.2-1.6,0.4c-1.4,0.4-1.5,0.4-1.6,0.4
		c0,0-0.1,0-0.1,0c0,0,0,0-0.1,0c-0.2,0-0.2-0.1-0.3-0.2c0-0.1,0-0.2,0.2-0.3c0,0,0.2-0.1,0.9-0.3c0.2-0.1,0.4-0.2,0.6-0.2
		c0.1,0,0.1-0.1,0.2-0.1c0.5-0.2,0.4-0.5,0.4-0.6l0,0l0,0c0-0.1,0-0.1-0.5-0.5C7.7,9.2,7.5,8.9,7.4,8.8C7,8.4,6.8,8.3,6.8,8.2
		C6.7,8,6.8,7.7,7,7.6c0.1,0,0.1-0.1,0.2-0.2c0,0,0.1-0.1,0.2-0.3c0.2-0.3,0.4-0.5,0.5-0.7c0.3-0.5,0.5-0.8,0.2-1.1
		C7.9,5.1,7.8,5.1,7.6,5.1c-0.2,0-0.5,0-0.7,0l-0.3,0L5.8,5.4C5.5,5.5,5.2,5.6,4.9,5.7L4.7,5.8C4.6,5.9,4.3,6,4.3,6c0,0,0,0,0,0
		c-0.1,0-0.1,0-0.1,0c0,0-0.1-0.1,0-0.1c0,0,0-0.1,0.1-0.1c0.2-0.1,2-1,2.2-1.1c0.1,0,0.5-0.1,1.4-0.1c0.7-0.1,0.9-0.1,1.1-0.1
		c0.1,0,0.2,0,0.4,0c0.4,0,0.7,0.2,0.9,0.3C10.4,4.9,10.5,5.2,10.4,5.5z"/>
	<path class="st0" d="M15.3,8.3c0-0.1-0.1-0.2-0.2-0.3C15,7.9,14.9,7.8,14,7.3l-1.1-0.6l-0.1-0.2c-0.2-0.3-0.6-0.7-0.9-1
		c0,0.2-0.1,0.3-0.1,0.5c-0.1,0.3-0.3,0.7-0.5,1c0.3,0.3,0.7,0.7,0.8,0.8c0.1,0,0.2,0.1,0.3,0.1c0.1,0,2,0.8,2.1,0.9
		c0.2,0.1,0.3,0.1,0.5,0.1l0,0c0.1,0,0.3,0,0.3-0.1C15.3,8.6,15.4,8.4,15.3,8.3z"/>
	<path class="st1" d="M15.7,8.1c-0.1-0.2-0.1-0.3-0.3-0.4c-0.1-0.1-0.2-0.2-1.3-0.8l-1-0.6l-0.1-0.1c-0.3-0.4-0.8-0.9-1.2-1.3
		c0,0.3,0,0.7-0.1,1c0.2,0.2,0.5,0.5,0.7,0.8L12.6,7l1.2,0.7c0.8,0.5,1,0.6,1.1,0.6c0.1,0.1,0.1,0.1,0.1,0.1c0,0,0,0.1,0,0.1
		c0,0,0,0-0.1,0c0,0-0.1,0-0.3-0.1c-0.1,0-2-0.9-2.1-0.9c0,0-0.1-0.1-0.1-0.1c-0.1-0.1-0.5-0.5-0.9-0.8c-0.1,0.2-0.3,0.5-0.5,0.7
		c0.3,0.3,0.7,0.7,0.8,0.7c0.1,0.1,0.3,0.2,0.4,0.2c0.1,0,1.9,0.8,2,0.9c0.2,0.1,0.5,0.2,0.7,0.2c0.3,0,0.5-0.1,0.6-0.3
		C15.7,8.8,15.8,8.5,15.7,8.1z"/>
	<path class="st0" d="M11.8,3.5c-0.4,0-0.8-0.2-1.1-0.5c-0.2-0.3-0.4-0.6-0.4-0.9c0-0.2,0-0.4,0.1-0.6c0.1-0.2,0.3-0.5,0.5-0.6
		c0.2-0.1,0.4-0.2,0.6-0.3c0.1,0,0.2,0,0.3,0c0.1,0,0.2,0,0.3,0c0.5,0.1,1,0.5,1.2,1c0.2,0.6,0,1.1-0.4,1.5
		c-0.2,0.2-0.3,0.3-0.6,0.4C12.1,3.5,11.9,3.5,11.8,3.5z"/>
	<path class="st1" d="M13.6,1.4c-0.2-0.7-0.8-1.2-1.5-1.3c-0.1,0-0.2,0-0.3,0c-0.1,0-0.3,0-0.4,0c-0.3,0.1-0.6,0.2-0.8,0.3
		C10.4,0.6,10.1,1,10,1.3C9.9,1.5,9.8,1.8,9.8,2.1c0,0.5,0.2,0.8,0.5,1.2c0.4,0.4,0.9,0.6,1.4,0.6c0.2,0,0.4,0,0.6-0.1
		c0.3-0.1,0.5-0.2,0.7-0.4C13.6,2.8,13.8,2.1,13.6,1.4z M12.5,2.8C12.4,2.9,12.3,3,12.1,3c-0.1,0-0.2,0.1-0.4,0.1
		c-0.3,0-0.6-0.1-0.8-0.4c-0.2-0.2-0.3-0.4-0.3-0.7c0-0.1,0-0.3,0.1-0.5c0.1-0.2,0.2-0.4,0.4-0.5c0.1-0.1,0.3-0.2,0.5-0.2
		c0,0,0.1,0,0.2,0c0.1,0,0.2,0,0.2,0c0.4,0.1,0.7,0.4,0.8,0.7C12.9,2,12.8,2.5,12.5,2.8z"/>
	<path class="st2" d="M9.5,16c-0.3,0-0.6-0.1-0.9-0.2l-8.7-5l0.5-0.9l8.7,5c0.3,0.2,0.8,0.1,1.1-0.1l0.5,0.9C10.4,15.8,10,16,9.5,16
		z"/>
	<path class="st2" d="M11.4,13.2C11.4,13.2,11.4,13.2,11.4,13.2c-0.2,0-0.3-0.1-0.3-0.2c-0.1-0.1-0.1-0.2,0-0.3c0,0,0-0.1,1.4-2
		c0.8-1.1,0.8-1.2,0.9-1.3c0-0.1,0.1-0.1,0.2-0.1c0.1,0,0.3,0,0.4,0.1c0,0,0.1,0.1,0.1,0.1c0.1,0.1,0.1,0.2,0,0.3
		c0,0-2.4,3.2-2.5,3.3C11.6,13.1,11.5,13.2,11.4,13.2z"/>
	<path class="st2" d="M3.7,4.4c-0.2,0-0.2,0-1-1.5L2.6,2.5C2.1,1.6,1.7,0.8,1.6,0.7c0-0.1,0.1-0.3,0.2-0.4C1.9,0.3,2,0.3,2,0.3
		c0.1,0,0.2,0,0.2,0.1c0.1,0,0-0.1,1,1.7l0,0C3.7,3,4,3.4,4.1,3.6C4.2,3.9,4.3,4,4.2,4.1C4.2,4.2,4,4.3,3.9,4.4c0,0,0,0,0,0
		C3.8,4.4,3.8,4.4,3.7,4.4L3.7,4.4z"/>
</g>
</svg>
