<?xml version="1.0" encoding="utf-8"?>
<!-- Generator: Adobe Illustrator 26.1.0, SVG Export Plug-In . SVG Version: 6.00 Build 0)  -->
<svg version="1.1" id="Layer_1" xmlns="http://www.w3.org/2000/svg" xmlns:xlink="http://www.w3.org/1999/xlink" x="0px" y="0px"
	 viewBox="0 0 16 16" style="enable-background:new 0 0 16 16;" xml:space="preserve">
<style type="text/css">
	.st0{fill:#6E6F72;}
	.st1{opacity:0.5;fill:#FFFFFF;enable-background:new    ;}
	.st2{fill:#6486C4;}
	.st3{fill:#EEAD56;}
</style>
<g id="icon">
	<path class="st0" d="M3,6.3l0.2,0.2l0.2,0.2l0-0.3c0,0,0,0,0-0.1l0-0.2L3,6.3z"/>
	<path class="st0" d="M4.8,9.7c0-0.1-0.1-0.4-0.3-1C4.3,8.1,4.2,7.8,4.1,7.8l0,0l0,0C4.1,7.7,4.1,7.6,4,7.3C4,7,3.9,6.7,3.9,6.4
		c0-0.4,0.1-0.7,0.2-1c0.1-0.2,0.2-0.8,0.2-1c0-0.4,0-0.7-0.1-1c-0.3-1.1-1-2-1.9-2.2c-0.1,0-0.2,0-0.3-0.1l-0.1,0l0,0l-0.1,0
		c0,0-0.1,0-0.1,0C1.1,1.2,0.6,1.6,0.3,2.3c-0.2,0.5-0.2,1-0.1,1.6c0.2,0.8,0.6,1.5,1.1,2c0.1,0.1,0.3,0.2,0.3,0.2
		c0.1,0.1,0.2,0.1,0.3,0.2c0.2,0.1,0.4,0.2,0.6,0.5C2.8,7,3,7.3,3.3,7.8C3.4,8,3.4,8,3.4,8.1c0,0.1,0.1,0.2,0.3,1
		C4,9.7,4,9.9,4.1,10l0,0l0,0l0,0c0,0,0.2,0,0.3-0.1C4.7,9.8,4.8,9.8,4.8,9.7L4.8,9.7L4.8,9.7L4.8,9.7L4.8,9.7z M3.6,4.6
		c-0.1,0.5-0.4,0.9-0.8,1c-0.1,0-0.1,0-0.2,0l0,0c-0.2,0-0.2,0-0.3-0.1C1.6,5.4,1,4.6,0.9,3.6c0-0.2,0-0.6,0-0.8
		c0.1-0.6,0.4-1,0.9-1.1c0,0,0.1,0,0.1,0c0.1,0,0.2,0,0.3,0c0.1,0,0.4,0.2,0.5,0.3C2.8,2.2,3,2.4,3.1,2.5c0.3,0.3,0.5,0.8,0.5,1.3
		C3.7,4,3.7,4.4,3.6,4.6z"/>
	<path class="st1" d="M5.9,15.2c-0.2,0-0.4-0.1-0.5-0.2c-0.2-0.2-0.3-0.6-0.1-0.9c0,0,0.2-0.5,0.6-1.3c0.2-0.4,0.6-1.2,0.6-1.3
		c0-0.2,0.1-0.3,0.3-0.4c0,0,0.4-0.3,1.2-0.7c0.3-0.2,0.6-0.3,0.8-0.5C9,9.7,9,9.7,9,9.6c0,0,0,0-0.6-1.1C8.2,8,7.8,7.3,7.6,6.8
		C7.4,6.6,7.3,6.4,7.3,6.3C7.2,6,7.2,5.7,7.3,5.4C7.6,5,8.3,4.5,9,4.3c0.2,0,0.4-0.1,1.5-0.5c0.8-0.3,1.3-0.5,1.4-0.5
		c0.1,0,0.1,0,0.2,0c0.1,0,0.1,0,0.2,0c0.1,0,0.2,0.1,0.3,0.2c0.1,0.1,1,0.6,1.2,0.8c1,0.6,1.1,0.7,1.2,0.8C15,5.1,15,5.2,15.1,5.2
		c0.1,0.2,0.1,0.5-0.1,0.7c-0.1,0.1-0.2,0.2-0.4,0.2l0,0c-0.1,0-0.2,0-0.2,0c0,0-0.5-0.2-1-0.5c-0.5-0.3-1-0.6-1.1-0.6l-0.2-0.1
		l-0.8,0.4l-0.3,0.1c-0.4,0.2-0.5,0.2-0.5,0.2l0,0c-0.1,0.1-0.1,0.1,0,0.3l0,0c0.2,0.3,1,2,1.2,2.3c0.3,0.5,0.5,1,0.5,1
		c0,0.1,0,0.3,0,0.4c-0.1,0.3-0.3,0.6-0.5,0.8c-0.2,0.1-0.3,0.2-0.6,0.4c-0.3,0.2-0.4,0.2-0.4,0.2c0,0-0.1,0-1.3,0.7
		c-1.3,0.7-1.3,0.7-1.3,0.7c0,0-0.5,0.8-0.7,1.3c-0.7,1.2-0.7,1.2-0.8,1.3C6.2,15.1,6.1,15.2,5.9,15.2z"/>
	<path class="st2" d="M15.4,5c0-0.1-0.1-0.2-0.2-0.3c-0.1-0.1-0.2-0.2-1.3-0.9c-0.8-0.5-1.1-0.7-1.2-0.7c-0.1-0.1-0.3-0.2-0.5-0.3
		c-0.1,0-0.2,0-0.3,0c-0.1,0-0.2,0-0.3,0c-0.1,0-0.9,0.3-1.4,0.5C9.3,3.8,9,3.9,8.9,3.9C8.1,4.1,7.3,4.7,7,5.2
		c-0.2,0.4-0.2,0.8,0,1.3C7,6.6,7.1,6.9,7.2,7c0.2,0.5,0.6,1.2,0.9,1.7C8.3,9,8.4,9.3,8.5,9.5c0,0-0.1,0-0.1,0C8.2,9.7,8,9.8,7.7,10
		c-0.3,0.2-1.1,0.6-1.2,0.7c-0.2,0.1-0.3,0.4-0.4,0.6c0,0.1-0.3,0.6-0.6,1.2c-0.1,0.3-0.6,1.2-0.6,1.3c-0.2,0.5-0.1,1,0.2,1.3
		c0.2,0.2,0.5,0.4,0.8,0.4c0.3,0,0.6-0.1,0.8-0.4C6.8,15,6.9,15,7.5,13.8C8,13,8.1,12.7,8.2,12.6c0.1-0.1,0.4-0.2,1.2-0.7
		c0.9-0.5,1.2-0.6,1.3-0.7c0.1,0,0.2-0.1,0.5-0.2c0.3-0.2,0.5-0.3,0.7-0.4c0.3-0.3,0.6-0.6,0.7-1c0-0.2,0-0.4,0-0.6
		c0-0.2-0.4-0.9-0.5-1.1c-0.2-0.3-0.9-1.7-1.2-2.2c0.1,0,0.1-0.1,0.2-0.1l0.9-0.4l0,0c0.1,0,0.6,0.3,1.1,0.6c0,0,1,0.5,1.1,0.6l0,0
		c0.1,0,0.2,0.1,0.4,0.1c0.3,0,0.5-0.1,0.7-0.3C15.6,5.9,15.6,5.4,15.4,5z M14.7,5.6c0,0-0.1,0-0.1,0c0,0-0.1,0-0.1,0
		c-0.1,0-0.4-0.2-1-0.5c-0.5-0.3-1-0.6-1.1-0.6L12,4.3l-1,0.4l-0.3,0.1c-0.4,0.2-0.5,0.2-0.5,0.2C9.7,5.4,10,5.9,10,6
		c0.2,0.3,1,2,1.2,2.3c0.2,0.5,0.4,0.9,0.5,0.9c0,0.1,0,0.2,0,0.2c0,0.2-0.2,0.4-0.4,0.6c-0.1,0.1-0.3,0.2-0.5,0.3
		c-0.1,0-0.3,0.1-0.3,0.2c-0.1,0-0.2,0.1-1.4,0.7C7.7,12,7.7,12,7.6,12.1c0,0,0,0.1-0.7,1.3c-0.6,1.1-0.7,1.2-0.7,1.2
		C6,14.7,6,14.7,5.9,14.7c-0.1,0-0.2,0-0.2-0.1c-0.1-0.1-0.1-0.3,0-0.4c0,0,0.2-0.4,0.6-1.3c0.6-1.2,0.6-1.3,0.6-1.4
		c0-0.1,0.1-0.2,0.1-0.2c0.1,0,0.4-0.3,1.1-0.7c0.3-0.2,0.6-0.3,0.8-0.5C9.3,10,9.4,9.9,9.4,9.6c0-0.1,0-0.1-0.6-1.3
		C8.5,7.8,8.2,7.1,7.9,6.6C7.8,6.4,7.7,6.2,7.7,6.2C7.6,6,7.6,5.8,7.7,5.6c0.2-0.4,0.8-0.8,1.4-0.9c0.2,0,0.4-0.1,1.6-0.6
		c0.8-0.3,1.3-0.5,1.4-0.5c0,0,0,0,0,0c0,0,0,0,0.1,0c0.1,0,0.1,0,0.1,0.1c0,0,0.1,0.1,1.3,0.8c0.8,0.5,1.1,0.7,1.1,0.7
		c0,0,0,0.1,0.1,0.1C14.8,5.5,14.7,5.6,14.7,5.6z"/>
	<path class="st1" d="M15.5,14.4c0,0.2,0,0.4-0.1,0.5c0,0.1-0.2,0.3-0.3,0.3c-0.1,0-0.2,0.1-0.3,0.1c-0.1,0-0.3,0-0.4-0.1
		c-0.1-0.1-2.2-1.7-2.3-1.8c0,0-0.1-0.1-0.1-0.2c0-0.1-0.1-0.2-0.2-0.2c0,0-0.1-0.1-0.1-0.2c0-0.1-0.1-0.2-0.2-0.3
		c-0.1-0.2-0.3-0.5-0.5-0.8c0.1,0,0.2-0.1,0.3-0.2c0.3-0.2,0.5-0.3,0.8-0.5c0.2-0.1,0.3-0.3,0.4-0.5c0.1,0.2,0.2,0.4,0.2,0.5l0.4,1
		l1,0.9C15.4,14.2,15.4,14.2,15.5,14.4z"/>
	<path class="st1" d="M5.5,9c0.3,0,0.6,0,0.7,0c0.1,0,0.5,0,0.6,0c0,0,0.1,0,0.1,0c0,0,0.1,0,0.1,0c0.2,0,0.3-0.1,0.4-0.3
		c-0.2-0.5-0.5-1-0.7-1.4c0,0-0.1-0.1-0.1-0.2c0,0.1,0,0.1-0.1,0.1L6.3,7.5L5.1,7.7c0,0,0,0-0.1,0c0.1,0.1,0.1,0.3,0.3,0.9
		C5.4,8.7,5.4,8.9,5.5,9z"/>
	<path class="st2" d="M6.2,8.5c0.5,0,0.6,0.1,0.7,0.1c0,0,0,0,0,0c0,0,0,0,0,0c0.1,0,0.1-0.1,0.2-0.1c0,0,0-0.1,0.1-0.2
		C7.3,8.5,7.4,8.8,7.5,9c0,0,0,0.1,0,0.1C7.4,9.2,7.3,9.3,7.1,9.4c-0.1,0-0.2,0-0.2,0c-0.1,0-0.1,0-0.2,0c0,0-0.2,0-0.5,0l0,0
		c-0.1,0-0.3,0-0.5,0l-0.1,0l0-0.1c0-0.1-0.1-0.3-0.2-0.5L5.2,8.6l0.4,0C5.9,8.6,6.1,8.5,6.2,8.5L6.2,8.5z"/>
	<path class="st2" d="M14.6,12.9L13.6,12l-0.4-1c-0.1-0.2-0.2-0.5-0.3-0.8c-0.1,0.3-0.3,0.5-0.6,0.7c0.1,0.1,0.1,0.2,0.1,0.3
		l0.4,1.1l1.1,1c1,1,1,1,1.1,1.1c0,0.1,0,0.2,0,0.2c0,0-0.1,0.1-0.1,0.1c0,0-0.1,0-0.1,0c-0.1,0-0.1,0-0.2,0c-0.2-0.1-2-1.6-2.2-1.7
		c0,0,0-0.1-0.1-0.1c0-0.1-0.1-0.2-0.2-0.3c0,0-0.1-0.1-0.1-0.1c0-0.1-0.1-0.2-0.2-0.3c-0.1-0.2-0.3-0.5-0.4-0.8c0,0,0,0,0,0
		c-0.3,0.2-0.4,0.2-0.6,0.3c0,0-0.1,0-0.1,0.1c0.2,0.3,0.4,0.7,0.5,0.9c0,0.1,0.1,0.2,0.1,0.2c0,0.1,0.1,0.2,0.2,0.3
		c0,0,0.1,0.1,0.1,0.1c0,0.1,0.1,0.2,0.2,0.3c0.1,0.1,2.2,1.8,2.4,1.9c0.2,0.1,0.4,0.1,0.6,0.1c0.2,0,0.3,0,0.5-0.1
		c0.2-0.1,0.4-0.3,0.5-0.5c0.1-0.2,0.1-0.5,0.1-0.8C15.8,14,15.7,13.9,14.6,12.9z"/>
	<path class="st2" d="M4.8,7.6L4.8,7.6L4.8,7.6L4.8,7.6C4.8,7.7,4.9,7.8,5,8L5,8.1l1.6-0.3l0.2-0.3c0-0.1-0.1-0.1-0.1-0.2
		c0,0-0.2-0.4-0.3-0.6c0,0,0-0.1,0-0.1C6.2,6.9,6.1,7,6.1,7L6.1,7.1L5,7.3L4.7,7.4L4.8,7.6C4.7,7.5,4.8,7.6,4.8,7.6z"/>
	<path class="st1" d="M6.8,3.7c-0.2,0-0.5-0.1-0.7-0.2c-0.6-0.3-1-1.1-0.8-1.7c0.1-0.4,0.4-0.8,0.8-1c0.1-0.1,0.3-0.1,0.5-0.1
		c0,0,0.1,0,0.2,0l0,0c0.7,0,1.3,0.4,1.5,1c0.1,0.2,0.1,0.3,0.1,0.5c0,0.3-0.1,0.5-0.2,0.8C8,3.2,7.8,3.4,7.7,3.5
		C7.4,3.7,7.1,3.7,6.8,3.7C6.8,3.7,6.8,3.7,6.8,3.7z"/>
	<path class="st2" d="M8.6,1.6c-0.3-0.8-1-1.3-1.9-1.3l0,0c-0.1,0-0.2,0-0.2,0c-0.2,0-0.4,0.1-0.6,0.2C5.4,0.7,5,1.2,4.9,1.7
		c-0.2,0.9,0.2,1.8,1,2.2c0.3,0.1,0.6,0.2,0.9,0.2c0.4,0,0.8-0.1,1.1-0.3C8,3.7,8.3,3.4,8.4,3.3c0.2-0.3,0.3-0.6,0.3-1
		C8.8,2,8.7,1.9,8.6,1.6z M7.9,2.3c0,0.2-0.1,0.4-0.2,0.6c0,0.1-0.3,0.3-0.3,0.3C7.2,3.3,7,3.3,6.8,3.3c-0.2,0-0.4,0-0.5-0.1
		C5.8,3,5.5,2.4,5.7,1.9C5.8,1.6,6,1.4,6.3,1.2c0.1,0,0.2-0.1,0.3-0.1c0,0,0.1,0,0.2,0l0,0c0.5,0,0.9,0.3,1.1,0.8
		C7.9,2,7.9,2.1,7.9,2.3z"/>
	<path class="st1" d="M1.7,12.6c-0.2,0-0.3,0-0.5-0.1c-0.3-0.1-0.5-0.4-0.7-0.7c-0.1-0.2-0.1-0.3-0.1-0.5c0-0.2,0-0.2,0-0.3
		c0.1-0.3,0.2-0.4,0.4-0.6C1,10.1,1.2,10,1.5,9.9c0,0,0,0,0.1,0c0,0,0.1,0,0.1,0c0.3,0,0.6,0.1,0.9,0.4C3,10.7,3.1,11.4,2.8,12
		c-0.1,0.2-0.4,0.4-0.6,0.5C2,12.5,1.9,12.6,1.7,12.6L1.7,12.6z"/>
	<path class="st3" d="M1.7,13L1.7,13c-0.3,0-0.5,0-0.7-0.1c-0.4-0.2-0.7-0.5-0.9-0.9C0,11.7,0,11.5,0,11.2C0,11,0,11,0,10.8
		c0.1-0.3,0.2-0.6,0.5-0.8C0.7,9.7,1,9.6,1.4,9.5l0.1,0c0,0,0.1,0,0.1,0c0,0,0.1,0,0.1,0c0.5,0,0.8,0.2,1.2,0.5
		c0.6,0.6,0.7,1.5,0.3,2.2c-0.2,0.3-0.5,0.6-0.8,0.7C2.1,13,2,13,1.7,13z M1.6,10.4c-0.2,0-0.3,0.1-0.5,0.2C1,10.7,0.9,10.8,0.9,11
		c0,0.1,0,0.1,0,0.2c0,0.2,0,0.2,0.1,0.4C1,11.8,1.2,12,1.3,12c0.1,0.1,0.2,0.1,0.3,0.1h0c0.1,0,0.2,0,0.3-0.1
		c0.1-0.1,0.3-0.2,0.4-0.3c0.2-0.4,0.2-0.8-0.1-1.1c-0.2-0.2-0.3-0.2-0.5-0.2C1.7,10.4,1.6,10.4,1.6,10.4z"/>
</g>
</svg>
