<?xml version="1.0" encoding="utf-8"?>
<!-- Generator: Adobe Illustrator 26.1.0, SVG Export Plug-In . SVG Version: 6.00 Build 0)  -->
<svg version="1.1" id="Layer_1" xmlns="http://www.w3.org/2000/svg" xmlns:xlink="http://www.w3.org/1999/xlink" x="0px" y="0px"
	 viewBox="0 0 16 16" style="enable-background:new 0 0 16 16;" xml:space="preserve">
<style type="text/css">
	.st0{fill:#6485C3;}
	.st1{fill:#6E6F72;}
	.st2{fill:#6486C4;}
</style>
<g id="icon">
	<path class="st0" d="M8.3,9.5l0.1-0.4c0.1-0.4,0.2-1.5,0.4-2C8.8,7.1,8.8,7,8.9,7l0-0.1C9,6.6,9.1,6.4,9.3,6.3
		c0.2-0.2,0.5-0.4,0.8-0.4c0,0,0.1,0,0.1,0c0.1,0,0.4,0,0.5,0c0.1,0,3.3,0.7,3.5,0.8C14.7,6.8,15,7.1,15,7.5c0,0.2-0.1,0.4-0.3,0.6
		c-0.2,0.2-0.4,0.3-0.6,0.3c0,0,0,0-0.1,0c-0.1,0-0.4-0.1-1.2-0.2C12.3,8,12.1,8,11.9,8c0,0.1-0.1,0.2-0.1,0.3
		c0,0.1-0.1,0.2-0.1,0.3c0,0,0,0.2-0.1,0.4c0,0.1,0,0.2,0,0.3l0,0.3C11.6,9.5,8.3,9.5,8.3,9.5z M1,9.5l0.1-0.4
		c0.1-0.4,0.2-1.5,0.4-2C1.6,7.1,1.6,7,1.6,7l0-0.1C1.8,6.6,1.9,6.4,2,6.3c0.2-0.2,0.5-0.4,0.8-0.4c0,0,0.1,0,0.1,0
		c0.1,0,0.4,0,0.5,0c0.1,0,3.3,0.7,3.5,0.8c0.4,0.1,0.7,0.5,0.7,0.9c0,0.2-0.1,0.4-0.3,0.6C7.3,8.3,7.1,8.4,6.8,8.4c0,0,0,0-0.1,0
		c-0.1,0-0.4-0.1-1.2-0.2C5.1,8,4.8,8,4.7,8c0,0.1-0.1,0.2-0.1,0.3c0,0.1-0.1,0.2-0.1,0.3c0,0,0,0.2-0.1,0.4c0,0.1,0,0.2,0,0.3
		l0,0.3H1z M11,5.6c-0.8,0-1.5-0.7-1.5-1.5s0.7-1.5,1.5-1.5s1.5,0.7,1.5,1.5C12.5,4.9,11.8,5.6,11,5.6z M3.8,5.6
		c-0.8,0-1.5-0.7-1.5-1.5s0.7-1.5,1.5-1.5c0.8,0,1.5,0.7,1.5,1.5C5.3,4.9,4.6,5.6,3.8,5.6z"/>
	<path class="st1" d="M15.8,10.4L15.8,10H0.1l0.1,0.5c0,0.1,0.1,0.4,0.1,0.5c0.1,0.3,0.3,0.7,0.4,1c0.1,0.1,0.1,0.2,0.2,0.3L1,12.5
		l0.1-0.1c0,0,0.1,0,0.1-0.1c0,0,0,0,0,0c0.1,0,0.1-0.1,0.2-0.1c0.1,0,0.2,0,0.3,0c0.2,0,0.5,0,0.8,0.2c0.2,0.1,0.5,0.4,0.8,0.7
		c0.3,0.3,0.3,0.3,0.4,0.3c0.1,0,0.1,0,0.1,0c0,0,0.1-0.1,0.3-0.3c0.2-0.3,0.3-0.3,0.4-0.4l0,0l0,0c0,0,0,0,0.1-0.1
		c0.3-0.2,0.6-0.3,0.9-0.3l0,0c0.2,0,0.5,0,0.7,0.2c0.2,0.1,0.5,0.4,0.7,0.6c0.3,0.4,0.4,0.4,0.4,0.4c0,0,0.1,0,0.4-0.3
		c0.3-0.4,0.7-0.8,1.5-0.8c0.3,0,0.5,0,0.7,0.2c0.2,0.1,0.5,0.4,0.8,0.7c0.1,0.2,0.3,0.3,0.3,0.3c0,0,0,0,0.1,0c0,0,0.1,0,0.1,0
		c0.1-0.1,0.2-0.2,0.3-0.4c0.3-0.4,0.7-0.8,1.4-0.8h0c0.3,0,0.5,0,0.7,0.2c0.2,0.1,0.4,0.3,0.6,0.5l0,0l0.1,0.1
		c0,0.1,0.1,0.1,0.1,0.1c0.1,0.1,0.1,0.1,0.2,0.1c0,0,0.1,0,0.1,0.1c0,0,0,0,0,0c0,0,0,0,0,0l0.1,0l0.1-0.1c0.1-0.2,0.1-0.3,0.1-0.3
		c0-0.1,0.1-0.3,0.1-0.4c0.1-0.4,0.3-0.8,0.3-1.1C15.8,11,15.8,10.6,15.8,10.4z"/>
	<path class="st1" d="M6.1,10.6c-0.1,0-0.2,0-0.2-0.1c-0.2-0.1-0.3-0.4-0.2-0.7l0.4-0.8c0.1-0.2,0.4-0.3,0.7-0.2C7,9,7.1,9.3,7,9.5
		l-0.4,0.8C6.4,10.5,6.3,10.6,6.1,10.6z"/>
	<path class="st1" d="M13.4,10.6c-0.1,0-0.2,0-0.2-0.1c-0.2-0.1-0.3-0.4-0.2-0.7l0.4-0.8c0.1-0.2,0.4-0.3,0.7-0.2
		c0.2,0.1,0.3,0.4,0.2,0.7l-0.4,0.8C13.7,10.5,13.6,10.6,13.4,10.6z"/>
	<path class="st2" d="M7.5,15.1c-0.5,0-0.9-0.2-1.4-0.8C6,14.2,5.8,14,5.7,13.9c0,0,0,0-0.2,0l0,0c-0.1,0-0.1,0-0.3,0.1
		c-0.1,0-0.1,0.1-0.1,0.1c0,0-0.1,0.2-0.2,0.3c-0.4,0.5-0.7,0.8-1.3,0.8c-0.6,0-0.9-0.3-1.3-0.7c-0.3-0.3-0.4-0.4-0.5-0.4
		c0,0-0.2,0-0.3,0c-0.2,0.1-0.3,0.2-0.5,0.4c-0.1,0.1-0.2,0.2-0.3,0.3l-0.1,0.1l-0.5-0.6L0.3,14c0,0,0.1-0.1,0.2-0.2
		c0.3-0.4,0.6-0.6,0.9-0.7c0.1,0,0.1,0,0.2,0c0.2,0,0.5,0,0.6,0.1c0.2,0.1,0.4,0.3,0.7,0.6c0.4,0.4,0.5,0.5,0.7,0.5
		c0.2,0,0.3,0,0.7-0.5c0.2-0.3,0.3-0.3,0.3-0.4l0,0c0,0,0,0,0.1-0.1c0.3-0.2,0.4-0.3,0.8-0.3l0,0c0.2,0,0.4,0,0.6,0.1
		c0.2,0.1,0.5,0.3,0.7,0.6c0.4,0.5,0.6,0.5,0.7,0.5c0.2,0,0.3,0,0.7-0.5c0.4-0.5,0.7-0.7,1.2-0.7c0.2,0,0.4,0,0.6,0.1
		c0.2,0.1,0.4,0.3,0.7,0.6c0.2,0.2,0.3,0.3,0.5,0.4c0,0,0.1,0,0.2,0c0.1,0,0.2,0,0.2,0c0.1-0.1,0.3-0.2,0.5-0.5
		c0.4-0.5,0.7-0.7,1.2-0.7h0c0.3,0,0.4,0,0.6,0.1c0.2,0.1,0.4,0.3,0.6,0.5c0.2,0.2,0.2,0.3,0.4,0.3c0.2,0.1,0.4,0.2,0.5,0.2l0.1,0
		l-0.1,0.8l-0.1,0c-0.2,0-0.6-0.1-0.8-0.3c-0.3-0.1-0.4-0.3-0.6-0.5c-0.1-0.2-0.3-0.3-0.4-0.4c0,0,0,0-0.2,0h0c-0.2,0-0.3,0-0.6,0.4
		c-0.3,0.4-0.5,0.5-0.7,0.7c-0.2,0.1-0.5,0.1-0.6,0.1c-0.2,0-0.4,0-0.6-0.1c-0.2-0.1-0.5-0.3-0.7-0.6c-0.2-0.2-0.3-0.4-0.5-0.4
		c0,0,0,0-0.2,0c-0.2,0-0.3,0-0.6,0.4C8.4,14.8,8.1,15.1,7.5,15.1L7.5,15.1L7.5,15.1L7.5,15.1z"/>
</g>
</svg>
