<?xml version="1.0" encoding="utf-8"?>
<!-- Generator: Adobe Illustrator 26.1.0, SVG Export Plug-In . SVG Version: 6.00 Build 0)  -->
<svg version="1.1" id="Layer_1" xmlns="http://www.w3.org/2000/svg" xmlns:xlink="http://www.w3.org/1999/xlink" x="0px" y="0px"
	 viewBox="0 0 16 16" style="enable-background:new 0 0 16 16;" xml:space="preserve">
<style type="text/css">
	.st0{fill:#6E6F72;}
	.st1{opacity:0.5;fill:#FFFFFF;enable-background:new    ;}
	.st2{fill:#6486C4;}
</style>
<g id="icon">
	<path class="st0" d="M0,15v1h8h8v-1v0H8L0,15L0,15z"/>
	<path class="st1" d="M13.4,13.2c-0.1,0-0.2,0-0.3-0.1c0,0-0.6-0.3-1.2-0.6c-0.6-0.3-1.2-0.6-1.3-0.7c-0.1,0-0.8-0.3-1.5-0.6
		c-0.7-0.3-1.3-0.6-1.4-0.6c-0.1,0-0.1-0.1-0.2-0.1c-0.3-0.1-0.6-0.4-0.7-0.7C6.7,9.5,6.7,9.4,6.7,9.1c0-0.2,0-0.3,0-0.3
		c0.1-0.2,0.2-0.4,0.4-0.5c0.2-0.1,0.4-0.3,0.5-0.5c0.2-0.2,0.3-0.5,0.4-0.9C8,6.8,8,6.7,8,6.6c0-0.2,0-0.2,0-0.3l0,0
		c0,0-1.9-1.4-1.9-1.4c0,0-0.1-0.1-0.2-0.2C5.9,4.6,5.5,4.2,5,3.8C4.4,3.1,4.2,2.9,4.2,2.9C4,2.6,4.1,2.3,4.3,2.1
		C4.3,2.1,4.5,2,4.6,2c0,0,0,0,0.1,0C4.8,2,4.9,2,5,2.1c0,0,0.3,0.3,1,0.8c0.4,0.4,0.9,0.8,1,0.9C7.2,4,7.7,4.3,8,4.4
		c0.3,0.2,0.5,0.3,0.6,0.3c0.1,0,0.2,0.1,0.2,0.1c0,0,0,0,0.1,0c0,0,0.1,0,0.3,0c0.2,0,0.4,0,0.5,0c0,0,0.1,0,0.1,0c0,0,0.1,0,0.1,0
		c0.2,0,0.9-0.2,1.5-0.5l0.3-0.1l1.1-0.7C13.5,3.1,14,2.8,14,2.8c0.1,0,0.2-0.1,0.3-0.1c0.2,0,0.3,0.1,0.4,0.2
		c0.2,0.2,0.2,0.4,0.1,0.6c0,0.1-0.2,0.2-0.2,0.3c-0.1,0.1-1.7,1.3-1.8,1.5c-0.1,0.1-0.1,0.1-1.2,0.6l-0.9,0.4l0,0.2
		c0,0.3-0.1,0.6-0.2,1C10.2,8,9.8,8.6,9.4,9.1L9.3,9.3l0.8,0.4c0.4,0.2,0.8,0.4,0.8,0.4c0,0,0.2,0.1,0.5,0.3l0.2,0.1
		c0.3,0.2,0.7,0.4,1.1,0.7c0.5,0.3,0.9,0.6,1,0.6c0.2,0.1,0.3,0.4,0.3,0.6c0,0.3-0.2,0.6-0.5,0.7C13.5,13.2,13.4,13.2,13.4,13.2z"/>
	<path class="st2" d="M15,2.6c-0.2-0.2-0.4-0.3-0.7-0.3c-0.2,0-0.3,0-0.5,0.1c-0.1,0.1-1.2,0.7-1.2,0.8l-1.1,0.7L11.3,4
		C10.6,4.2,10,4.4,9.8,4.4c0,0,0,0,0,0c0,0,0,0,0,0c-0.2,0-0.4-0.1-0.6-0.1c-0.1,0-0.2,0-0.3,0c0,0,0,0-0.1,0
		C8.6,4.3,8.5,4.2,8.2,4.1C7.9,3.9,7.5,3.6,7.3,3.5c0,0-0.4-0.4-1-0.9c-0.9-0.8-1-0.9-1-0.9C5.1,1.6,4.9,1.5,4.7,1.5
		c0,0-0.1,0-0.1,0C4.3,1.6,4.1,1.7,4,1.8C3.6,2.2,3.6,2.7,3.8,3.1c0,0,0.1,0.1,0.9,0.9C5.2,4.5,5.6,4.9,5.6,5C5.7,5,5.8,5.1,5.9,5.2
		c0.1,0.1,1.3,1,1.7,1.3c0,0.1,0,0.2-0.1,0.3C7.5,7.1,7.3,7.3,7.2,7.5C7.1,7.6,7,7.8,6.8,7.9C6.5,8.1,6.4,8.4,6.3,8.7
		c0,0.1,0,0.2,0,0.5c0,0.3,0,0.5,0.1,0.8c0.2,0.5,0.6,0.9,1,1c0,0,0,0,0.1,0l0,0c0,0,0.7,0.3,1.4,0.6c0.7,0.3,1.4,0.6,1.5,0.6
		c0.1,0,0.6,0.3,1.3,0.7c0.5,0.2,1.2,0.6,1.2,0.7c0.2,0.1,0.3,0.1,0.5,0.1c0.1,0,0.2,0,0.3,0c0.5-0.1,0.9-0.6,0.9-1.1
		c0-0.4-0.2-0.8-0.5-1c-0.1,0-0.5-0.3-1-0.6c-0.4-0.2-0.8-0.5-1.1-0.7l-0.2-0.1c-0.1-0.1-0.4-0.3-0.5-0.3c0,0-0.4-0.2-0.8-0.4
		L9.9,9.2c0.3-0.5,0.6-1.1,0.8-1.6c0.1-0.3,0.2-0.7,0.3-1l0.7-0.3c1.1-0.5,1.1-0.5,1.3-0.7c0.1-0.1,1.7-1.4,1.8-1.4
		c0.1-0.1,0.3-0.3,0.4-0.4C15.4,3.3,15.3,2.9,15,2.6z M14.4,3.3c0,0-0.1,0.1-0.1,0.1c-0.1,0.1-1.7,1.3-1.8,1.5
		C12.4,5,12.4,5,11.3,5.4L10.2,6l-0.1,0.4c0,0.3-0.1,0.6-0.2,0.9C9.8,7.8,9.4,8.4,9.1,8.9L8.7,9.5l1.3,0.7c0.2,0.1,0.7,0.4,0.8,0.4
		c0,0,0.2,0.1,0.4,0.3l0.2,0.1c0.3,0.2,0.7,0.4,1.1,0.7c0.6,0.3,0.9,0.6,1,0.6c0.1,0.1,0.2,0.2,0.2,0.3c0,0.1-0.1,0.2-0.2,0.3
		c0,0,0,0-0.1,0l0,0c-0.1,0-0.1,0-0.2,0c0,0-0.5-0.2-1.2-0.6c-0.5-0.2-1.2-0.6-1.4-0.7c-0.1,0-0.8-0.3-1.5-0.6
		c-0.7-0.3-1.3-0.6-1.4-0.6c-0.1,0-0.2-0.1-0.3-0.1c-0.1,0-0.3-0.2-0.4-0.5C7.1,9.4,7.1,9.3,7.1,9.1c0-0.2,0-0.2,0-0.2
		c0-0.1,0.1-0.2,0.2-0.3C7.6,8.4,7.8,8.2,7.9,8c0.2-0.3,0.3-0.6,0.4-1c0-0.1,0.1-0.2,0.1-0.4c0-0.2,0.1-0.4-0.1-0.6l0,0
		C8.2,5.9,6.4,4.5,6.4,4.5c0,0-0.1-0.1-0.1-0.1C6.2,4.3,5.8,3.9,5.3,3.5C4.7,2.8,4.6,2.7,4.6,2.6c-0.1-0.1,0-0.2,0-0.2
		c0,0,0,0,0.1,0c0,0,0,0,0,0c0,0,0.1,0,0.1,0c0,0,0.1,0.1,0.9,0.8c0,0,0.9,0.8,1.1,0.9c0.2,0.2,0.7,0.5,1,0.6C8.1,5,8.2,5.1,8.4,5.2
		c0.1,0.1,0.2,0.1,0.4,0.1c0.1,0,0.1,0,0.2,0c0,0,0.1,0,0.1,0c0.2,0,0.3,0,0.5,0c0.1,0,0.1,0,0.2,0c0.1,0,0.1,0,0.2,0
		c0.3,0,0.9-0.2,1.6-0.5l0.3-0.1l1.1-0.7c0.7-0.4,1.1-0.7,1.1-0.7c0,0,0.1,0,0.1,0C14.3,3.2,14.4,3.2,14.4,3.3
		C14.4,3.2,14.4,3.3,14.4,3.3C14.4,3.3,14.4,3.3,14.4,3.3z"/>
	<path class="st1" d="M5.6,9.1c0-0.2,0-0.4,0.1-0.6C5.8,8.3,5.9,8.1,6,7.9c-0.1,0-0.1,0-0.2-0.1C5.2,7.6,5.2,7.6,5.2,7.6
		c0,0-0.7-0.4-1.4-0.9C2.9,6.1,2.3,5.8,2.3,5.7C2.1,5.7,2,5.6,1.9,5.6c0,0,0,0-0.1,0c-0.1,0-0.1,0-0.1,0c-0.2,0-0.3,0.1-0.3,0.3
		C1.2,6.1,1.2,6.3,1.3,6.5c0.1,0.2,0.1,0.2,1.4,1.2l0,0c0.6,0.5,1.3,1,1.4,1.1C4.3,9,4.3,9,4.9,9.2c0.2,0.1,0.5,0.2,0.8,0.3
		C5.6,9.4,5.6,9.3,5.6,9.1z"/>
	<path class="st2" d="M5.6,9.1C5.6,9.1,5.6,9.1,5.6,9.1C5.4,9,5.2,8.9,5.1,8.9C4.5,8.6,4.5,8.6,4.4,8.5C4.3,8.4,3.2,7.6,3,7.4l0,0
		c-1.1-0.9-1.3-1-1.3-1c0-0.1,0-0.1,0-0.2c0,0,0.1-0.1,0.1-0.1c0,0,0,0,0,0c0,0,0,0,0,0c0.1,0,0.1,0,0.2,0c0.1,0,0.6,0.4,1.4,0.9
		c0.7,0.5,1.4,0.9,1.4,0.9C5,8,5,8,5.7,8.2c0,0,0.1,0,0.1,0C5.9,8,6.1,7.7,6.3,7.5c-0.1,0-0.3-0.1-0.4-0.1C5.6,7.3,5.4,7.2,5.4,7.2
		C5.2,7.1,4.6,6.7,4,6.3c-0.1,0-1.4-0.9-1.5-1C2.3,5.3,2.1,5.2,1.9,5.2c0,0,0,0-0.1,0c-0.1,0-0.2,0-0.3,0C1.3,5.3,1.1,5.5,1,5.7
		C0.8,6,0.7,6.4,0.9,6.7C1,7,1,7,2.4,8.1l0,0c0.7,0.6,1.3,1,1.4,1.1C4,9.3,4.1,9.4,4.7,9.6C5,9.7,5.4,9.9,5.8,10
		C5.7,9.7,5.6,9.5,5.6,9.1z"/>
	<path class="st1" d="M9.4,3.4c0,0-0.1,0-0.1,0C8.5,3.3,8,2.7,8,2c0-0.2,0-0.4,0.1-0.6C8.2,1,8.5,0.7,8.8,0.6c0.1,0,0.3-0.1,0.4-0.1
		c0,0,0.1,0,0.2,0c0.2,0,0.5,0.1,0.7,0.2c0.6,0.3,0.9,0.9,0.8,1.5C10.8,2.6,10.5,3,10,3.3C9.9,3.3,9.6,3.4,9.4,3.4L9.4,3.4z"/>
	<path class="st2" d="M10.3,0.2C10,0.1,9.7,0,9.4,0C9.3,0,9.2,0,9.2,0C9,0.1,8.8,0.1,8.6,0.2c-0.4,0.2-0.8,0.6-1,1
		C7.6,1.5,7.5,1.7,7.5,2c0,1,0.7,1.7,1.7,1.8c0.1,0,0.1,0,0.2,0c0.3,0,0.6-0.1,0.8-0.2c0.6-0.3,0.9-0.8,1-1.4
		C11.4,1.4,11,0.6,10.3,0.2z M10.4,2.1c-0.1,0.4-0.3,0.6-0.6,0.8C9.7,2.9,9.6,3,9.4,3c0,0-0.1,0-0.1,0C8.8,2.9,8.4,2.5,8.4,2
		c0-0.2,0-0.3,0.1-0.4C8.6,1.3,8.8,1.1,9,1c0.1,0,0.2-0.1,0.3-0.1c0,0,0.1,0,0.1,0c0.2,0,0.3,0,0.5,0.1C10.3,1.2,10.5,1.6,10.4,2.1z
		"/>
</g>
</svg>
