<?xml version="1.0" encoding="utf-8"?>
<!-- Generator: Adobe Illustrator 26.1.0, SVG Export Plug-In . SVG Version: 6.00 Build 0)  -->
<svg version="1.1" id="Layer_1" xmlns="http://www.w3.org/2000/svg" xmlns:xlink="http://www.w3.org/1999/xlink" x="0px" y="0px"
	 viewBox="0 0 16 16" style="enable-background:new 0 0 16 16;" xml:space="preserve">
<style type="text/css">
	.st0{opacity:0.5;fill:#FFFFFF;enable-background:new    ;}
	.st1{fill:#6E6F72;}
	.st2{fill:#6486C4;}
</style>
<g id="icon">
	<path class="st0" d="M3,5.4c-0.4,0-0.8-0.3-0.9-0.7c0-0.1,0-0.3,0-0.5c0.1-0.4,0.4-0.6,0.8-0.6c0,0,0,0,0,0c0,0,0.1,0,0.1,0
		c0.4,0,0.7,0.3,0.9,0.7c0,0.1,0,0.4,0,0.5C3.8,5.1,3.4,5.4,3,5.4L3,5.4z"/>
	<path class="st1" d="M3,5.8L3,5.8c-0.6,0-1.2-0.4-1.3-1c0-0.2,0-0.5,0-0.7c0.2-0.5,0.6-0.9,1.2-0.9c0,0,0.1,0,0.2,0
		c0.6,0,1,0.4,1.2,1c0.1,0.2,0.1,0.5,0,0.7C4.1,5.4,3.6,5.8,3,5.8z M3,5L3,5c0.2,0,0.5-0.2,0.5-0.4c0-0.1,0-0.2,0-0.3
		C3.5,4.1,3.3,3.9,3,3.9c0,0,0,0-0.1,0l0,0c-0.2,0-0.4,0.2-0.5,0.4c0,0.1,0,0.2,0,0.3C2.5,4.8,2.7,5,3,5z"/>
	<path class="st0" d="M4.1,2.2c0-0.1,0-0.1,0-0.3c0-0.2,0-0.2,0-0.3c0.1-0.5,0.5-0.9,1.1-1c0.1,0,0.2,0,0.2,0c0.1,0,0.3,0,0.4,0
		c0.4,0.1,0.8,0.5,0.9,0.9c0.1,0.2,0.1,0.3,0.1,0.5c0,0.2,0,0.2,0,0.3C6.7,2.4,6.6,2.7,6.4,2.8C6.3,3,6,3.1,5.8,3.1
		c-0.1,0-0.1,0-0.3,0c-0.2,0-0.2,0.1-0.3,0.1C4.9,3.2,4.7,3,4.5,2.8C4.3,2.6,4.2,2.4,4.1,2.2z"/>
	<path class="st0" d="M13.1,14.1c-0.3-1.8-0.5-2.9-0.5-3c0,0,0-0.1-0.1-0.1l-0.1-0.1c0,0,0-0.1-0.1-0.1c-0.1-0.1-0.1-0.2-0.2-0.3
		c-0.1,0-0.3-0.2-0.4-0.3c-0.9-0.7-1.5-1.2-2-1.5L9.6,8.6C9.5,8.5,9.5,8.5,9.4,8.5c0,0,0,0-0.3-0.8C8.9,6.8,8.4,5.3,8.3,5
		c0-0.1-0.1-0.3-0.1-0.3C8,4.4,7.8,4.2,7.5,4.1c-0.1,0-0.1,0-0.3,0c0,0-0.1,0-0.1,0c-0.1,0-0.1,0-0.1,0c-0.2,0-0.3,0.1-0.6,0.2
		C6.3,4.4,6.1,4.5,5.9,4.6C5.8,4.6,5.7,4.7,5.5,5c0,0-0.3,0.4-0.8,1C4.5,6.2,4.4,6.4,4.2,6.6C4,6.9,4,6.9,4,6.9h0l0,0
		c0,0,0,0-0.3-0.4c0-0.1-0.1-0.1-0.1-0.1C3.4,6.4,3.2,6.5,3,6.5l0,0c-0.2,0-0.5-0.1-0.7-0.2c0,0,0,0,0,0.1c0,0,0.2,0.5,0.5,1
		c0.2,0.4,0.5,0.9,0.5,1c0.1,0.2,0.3,0.4,0.6,0.4c0,0,0,0,0,0c0.2,0,0.4-0.1,0.6-0.3c0,0,1.4-1.5,1.4-1.5l0,0h0c0.1,0,0.1,0,0.3,0.4
		c0.1,0.2,0.2,0.5,0.4,0.8c0.3,0.7,0.6,1.2,0.6,1.2c0,0.1,0.2,0.2,0.3,0.2c0.1,0,1.3,0.7,1.6,0.8c0.8,0.4,1.7,0.8,1.9,0.9l0.4,0.2
		l0.4,1.5c0.4,1.3,0.4,1.5,0.4,1.5c0,0.1,0.1,0.1,0.1,0.2c0.1,0.1,0.2,0.3,0.3,0.3c0.1,0,0.2,0.1,0.2,0.1l0,0c0.2,0,0.4-0.1,0.4-0.3
		C13.1,14.5,13.2,14.3,13.1,14.1z"/>
	<path class="st2" d="M12.6,15.3c-0.1,0-0.3,0-0.4-0.1c-0.2-0.1-0.4-0.3-0.5-0.5c0-0.1-0.1-0.2-0.1-0.3c0,0,0-0.1-0.4-1.5l-0.4-1.3
		l-0.2-0.1c-0.2-0.1-1-0.5-1.9-0.9C8,10.3,7.4,10,7.2,9.9C7.1,9.9,6.9,9.7,6.8,9.6C6.7,9.5,6.3,8.5,6.2,8.3C6.1,8,5.9,7.8,5.8,7.6
		c-0.4,0.4-1,1-1.1,1.1C4.5,9,4.2,9.1,3.9,9.1c0,0,0,0-0.1,0c-0.4,0-0.8-0.3-1-0.7c0,0-0.2-0.4-0.5-0.9c0-0.1-0.5-0.9-0.5-1
		c0-0.1-0.1-0.3-0.1-0.4l0-0.4L2.2,6c0.1,0.1,0.3,0.2,0.5,0.2l0.1,0l0,0.1c0,0.1,0.2,0.4,0.4,0.8c0,0.1,0.5,0.9,0.5,1
		c0,0.1,0.1,0.1,0.2,0.1c0.1,0,0.1,0,0.3-0.2c0,0,0.4-0.4,0.7-0.7c0.8-0.8,0.8-0.8,0.9-0.8l0.1,0h0.1c0.3,0,0.4,0.2,0.6,0.6
		C6.7,7.4,6.8,7.7,6.9,8C7.2,8.6,7.4,9,7.5,9.1c0,0,0,0,0,0c0.1,0,0.2,0.1,1.7,0.8c0.8,0.4,1.7,0.8,1.8,0.9l0.5,0.3l0.5,1.6
		c0.4,1.3,0.4,1.5,0.4,1.5c0,0,0,0.1,0.1,0.1c0,0,0.1,0.1,0.1,0.1c0,0,0,0,0,0c0,0,0.1,0,0.1,0c0-0.1,0-0.2,0-0.3
		c-0.4-2.1-0.5-2.9-0.5-2.9c0,0,0,0,0-0.1L12.1,11c0,0,0-0.1-0.1-0.1c0,0,0,0-0.1-0.1c-0.1-0.1-0.4-0.3-0.4-0.3
		C10.7,9.8,10,9.3,9.5,9L9.4,8.9C9.2,8.8,9.2,8.8,9.2,8.8C9,8.7,9,8.6,8.8,7.8C8.5,6.9,8,5.5,7.9,5.2C7.8,5,7.8,4.9,7.8,4.9
		C7.7,4.7,7.5,4.6,7.4,4.5c0,0,0,0-0.1,0c0,0-0.1,0-0.1,0c0,0,0,0,0,0c-0.2,0-0.2,0.1-0.5,0.2C6.5,4.7,6.3,4.8,6.1,4.9
		C6.1,5,6,5,5.8,5.3c0,0-0.3,0.4-0.7,0.9C4.9,6.4,4.7,6.7,4.6,6.8C4.3,7.2,4.2,7.3,4,7.3H3.9l-0.1,0C3.6,7.2,3.6,7.1,3.3,6.7
		C3.3,6.6,3.2,6.6,3.2,6.5L3.1,6.3l0.2-0.1c0.1,0,0.3-0.1,0.4-0.2L3.9,6L4,6.2c0.1-0.1,0.3-0.3,0.4-0.5c0.1-0.2,0.7-0.9,0.8-1
		c0.3-0.3,0.4-0.4,0.5-0.5C5.9,4.1,6.1,4,6.3,3.9C6.6,3.8,6.7,3.7,7,3.7l0,0l0,0c0,0,0,0,0.1,0c0,0,0.1,0,0.1,0c0.2,0,0.2,0,0.4,0.1
		C8,3.8,8.3,4.1,8.5,4.5c0,0.1,0.1,0.3,0.2,0.4c0.1,0.3,0.6,1.8,0.9,2.7c0.1,0.4,0.2,0.5,0.2,0.6L10,8.3c0.5,0.3,1.2,0.8,2.1,1.5
		c0.2,0.1,0.3,0.3,0.4,0.3c0.2,0.1,0.3,0.2,0.4,0.4c0,0.1,0,0.1,0.1,0.1l0.1,0.1c0,0.1,0.1,0.2,0.1,0.2c0,0.1,0.2,1.1,0.6,3
		c0.1,0.3,0,0.6-0.1,0.8C13.3,15.1,13,15.3,12.6,15.3z"/>
	<path class="st2" d="M7.2,1.2C7,0.7,6.5,0.2,5.9,0.1C5.8,0,5.6,0,5.4,0c-0.1,0-0.2,0-0.3,0C4.4,0.2,3.9,0.7,3.7,1.4
		c0,0.2-0.1,0.2-0.1,0.5c0,0.2,0,0.3,0.1,0.5C3.8,2.6,4,2.9,4.2,3.1C4.4,3.3,4.7,3.5,5,3.6c0.2,0,0.2,0,0.4,0c0.2,0,0.3,0,0.4,0
		c0.3-0.1,0.6-0.2,0.8-0.4c0.2-0.2,0.4-0.5,0.5-0.9c0-0.2,0-0.2,0-0.4C7.3,1.6,7.2,1.4,7.2,1.2z M6.4,1.8c0,0.1,0,0.2,0,0.2
		c0,0.2-0.2,0.4-0.3,0.5C6,2.6,5.8,2.7,5.7,2.7c-0.1,0-0.1,0-0.2,0s-0.2,0-0.2,0C5.1,2.7,4.9,2.6,4.8,2.5C4.7,2.4,4.6,2.2,4.5,2
		c0-0.1,0-0.1,0-0.2c0-0.2,0-0.2,0-0.2C4.6,1.2,4.9,1,5.3,0.9c0,0,0.1,0,0.2,0c0.1,0,0.2,0,0.3,0C6,1,6.3,1.2,6.4,1.5
		C6.4,1.6,6.4,1.7,6.4,1.8z"/>
	<path class="st0" d="M8.3,3.4C8.6,3.2,9,2.9,9.4,2.7c0.4-0.2,1-0.6,1.5-0.9c0.5-0.3,0.8-0.5,0.9-0.5c0,0,0.1,0,0.1,0
		c0,0,0.1,0,0.1,0c0.1,0,0.1,0,0.2,0.1c0.1,0.1,0.3,0.2,0.3,0.4c0,0.2-0.1,0.4-0.3,0.5c-0.4,0.3-1.6,1.1-1.6,1.2
		c-0.1,0-0.2,0.2-0.4,0.3C9.8,4,9.5,4.3,9.2,4.5c0-0.1-0.1-0.2-0.1-0.3C8.8,3.8,8.6,3.5,8.3,3.4z"/>
	<path class="st0" d="M8.5,11.2c-0.7-0.3-1.2-0.6-1.4-0.7c0,0,0,0.1,0,0.1c-0.1,0.3-0.2,1-0.3,1.4c-0.1,0.6-0.2,0.6-0.2,0.6
		c0,0-0.2,0.2-0.9,0.9c-0.6,0.5-0.9,0.9-1,0.9c-0.1,0.1-0.2,0.2-0.2,0.3c0,0.1-0.1,0.3,0,0.4c0.1,0.2,0.3,0.4,0.5,0.4
		c0.2,0,0.4-0.1,0.6-0.2c0.1-0.1,2.3-1.9,2.4-2C8,13.1,8.1,13,8.1,12.8c0-0.1,0-0.2,0.1-0.2c0-0.1,0.1-0.2,0.1-0.3
		c0-0.1,0.2-0.5,0.3-0.8C8.5,11.5,8.6,11.4,8.5,11.2C8.6,11.3,8.6,11.2,8.5,11.2z"/>
	<path class="st2" d="M7.8,3.1C8.1,3,8.5,2.7,9,2.5l0.2-0.1c0.4-0.2,1-0.6,1.5-0.9C10.8,1.4,11.4,1,11.5,1l0,0c0.1,0,0.1,0,0.2-0.1
		c0.1,0,0.1,0,0.2,0c0.1,0,0.3,0,0.4,0.1c0.3,0.1,0.5,0.4,0.5,0.7C13,2,12.8,2.4,12.5,2.6c-0.3,0.2-1.6,1.1-1.7,1.2
		c0,0-0.2,0.1-0.3,0.2c-0.4,0.3-0.8,0.6-1.2,0.8c0-0.1-0.1-0.2-0.1-0.2C9.2,4.5,9.1,4.3,9,4.2c0,0,0-0.1-0.1-0.1
		c0.3-0.2,0.6-0.4,1-0.7c0,0,0.3-0.2,0.4-0.3c0.1,0,1.2-0.8,1.6-1.1c0.1-0.1,0.1-0.1,0.1-0.1c0,0,0-0.1-0.1-0.1c0,0,0,0,0,0
		c0,0,0,0,0,0c0,0,0,0-0.1,0c-0.1,0-0.3,0.2-0.8,0.5c-0.4,0.3-1.1,0.7-1.5,0.9L9.4,3.2C9.1,3.3,8.9,3.5,8.6,3.6
		C8.4,3.4,8.1,3.2,7.8,3.1C7.8,3.1,7.8,3.1,7.8,3.1z"/>
	<path class="st2" d="M8.5,11.2c-0.1-0.1-0.2-0.1-0.3-0.1c0,0.1-0.1,0.2-0.1,0.3c-0.3,0.8-0.3,0.9-0.3,0.9c0,0.1,0,0.2,0,0.2
		c0,0.1-0.1,0.2-0.1,0.3c0,0.1-0.1,0.1-0.1,0.2c-0.2,0.2-2.2,1.8-2.3,1.9C5.1,15,5,15,4.9,15c0,0-0.1,0-0.1,0c0,0,0-0.1,0-0.1
		c0,0,0.1-0.1,0.1-0.2c0.1-0.1,0.4-0.4,0.9-0.9c0.8-0.7,0.9-0.8,1-0.9C7,12.9,7,12.8,7.2,12.1c0.1-0.3,0.3-1.1,0.3-1.4c0,0,0,0,0,0
		c-0.3-0.1-0.4-0.2-0.5-0.2c-0.1,0-0.2-0.1-0.3-0.1c0,0.1,0,0.1,0,0.2c-0.1,0.3-0.2,1-0.3,1.4c-0.1,0.3-0.1,0.4-0.1,0.5
		c-0.1,0.1-0.4,0.4-0.9,0.8c-0.1,0.1-0.9,0.8-1,0.9l0,0c-0.1,0.1-0.2,0.3-0.3,0.4C4,14.8,4,15,4.1,15.2c0.1,0.4,0.5,0.7,0.9,0.7
		c0.2,0,0.5-0.1,0.8-0.3c0.2-0.1,2.3-1.9,2.4-2l0,0c0.2-0.2,0.3-0.4,0.3-0.6c0-0.1,0-0.1,0-0.1l0,0c0-0.1,0.1-0.2,0.1-0.4
		c0-0.1,0.1-0.4,0.3-0.8c0-0.1,0-0.1,0.1-0.2C8.8,11.4,8.7,11.3,8.5,11.2z"/>
</g>
</svg>
