<?xml version="1.0" encoding="utf-8"?>
<!-- Generator: Adobe Illustrator 26.1.0, SVG Export Plug-In . SVG Version: 6.00 Build 0)  -->
<svg version="1.1" id="Layer_1" xmlns="http://www.w3.org/2000/svg" xmlns:xlink="http://www.w3.org/1999/xlink" x="0px" y="0px"
	 viewBox="0 0 16 16" style="enable-background:new 0 0 16 16;" xml:space="preserve">
<style type="text/css">
	.st0{fill:#6E6F72;}
	.st1{fill:#6485C3;}
</style>
<g id="icon">
	<path class="st0" d="M9.1,16H6.2v-1h2.9c0.2,0,0.4-0.1,0.5-0.3l0.4-0.5l0.8,0.6l-0.4,0.5C10.1,15.7,9.7,16,9.1,16z"/>
	<path class="st1" d="M7.9,14.4C7.9,14.4,7.8,14.4,7.9,14.4c-0.2,0-0.4-0.1-0.5-0.1c-0.2-0.1-0.3-0.3-0.3-0.6c0-0.1,0-0.4,0-1
		c0-0.8,0-1,0-1c0-0.1,0-0.9-0.1-1.3l0-1.1l0-0.1C6.7,9,6.6,8.7,6.6,8.4c0-0.3,0.1-0.7,0.3-0.9c0,0,0.1-0.1,0.2-0.2
		C7.5,7.1,7.7,6.7,7.9,6l0-0.1L7.1,5.3C6.8,5.1,6.6,4.9,6.4,4.7C6.3,4.6,6.2,4.6,6.2,4.6C6.1,4.5,6,4.4,6,4.4c0,0-0.4-0.4-0.8-0.8
		C4.6,3,4.5,2.8,4.4,2.7C4.2,2.4,4.2,2,4.5,1.8c0.1-0.1,0.2-0.2,0.3-0.2c0.1,0,0.1,0,0.2,0c0.1,0,0.3,0,0.4,0.1
		C5.5,1.7,6,2.2,6.4,2.5c0.4,0.4,0.9,0.8,0.9,0.8c0.5,0.3,1.2,0.8,1.5,0.9c0,0,0.1,0,0.1,0c0,0,0,0,0.1,0c0.1,0,0.2,0,0.3,0
		c0.1,0,0.3,0,0.4,0c0,0,0.1,0,0.1,0c0,0,0,0,0.1,0c0.2,0,0.8-0.2,1.3-0.4l0.3-0.1l1-0.7c0.5-0.3,1-0.7,1.1-0.7l0,0
		c0,0,0.1,0,0.2-0.1c0,0,0.1,0,0.1,0c0,0,0.1,0,0.1,0c0.1,0,0.2,0.1,0.3,0.2c0.2,0.2,0.3,0.4,0.2,0.7c-0.1,0.2-0.2,0.3-0.4,0.5
		c-0.2,0.2-1.5,1.2-1.6,1.3c-0.1,0.1-0.2,0.2-0.3,0.2l0,0c-0.1,0-0.4,0.2-0.8,0.4l-0.7,0.3c0,0.1-0.1,0.4-0.1,0.5
		C10.4,7.1,9.9,8,9.4,8.7C9.3,8.8,9,9.1,8.9,9.2c0,0,0,0,0,0c0,0,0,0,0,0c0,0.1-0.1,1.9-0.1,3c-0.1,1.4-0.1,1.4-0.2,1.7
		C8.5,14.2,8.2,14.4,7.9,14.4z M5.8,8.9c-0.4-0.1-1-0.4-1.2-0.5c-0.1-0.1-0.2-0.1-0.9-1C3.3,6.9,3,6.5,2.9,6.4
		C2.6,6.1,2.6,5.7,2.9,5.3C3,5.2,3.1,5.1,3.3,5.1c0.1,0,0.1,0,0.2,0C3.6,5,3.9,5.1,4,5.3c0,0,0.5,0.4,0.8,0.8l0.7,0.7l0.6,0.2
		c0,0,0.4,0.1,0.4,0.1L6.4,7.3C6.2,7.6,6.1,8,6.1,8.5c0,0.1,0,0.1,0,0.2l0,0.3L5.8,8.9z M9.4,3.2c-0.2,0-0.3,0-0.4,0
		C8.4,3,8,2.6,7.9,2c0-0.2,0-0.5,0-0.7C8,0.9,8.2,0.6,8.5,0.4c0.2-0.1,0.4-0.2,0.6-0.3c0.1,0,0.2,0,0.3,0c0.1,0,0.1,0,0.2,0
		c0.3,0.1,0.6,0.2,0.9,0.5c0.2,0.2,0.3,0.5,0.4,0.8c0,0.2,0,0.5,0,0.7c-0.2,0.5-0.6,1-1.1,1.1C9.6,3.2,9.6,3.2,9.4,3.2z"/>
	<path class="st0" d="M0.5,6.9L0.4,6.3c-0.1-0.5,0.1-1,0.5-1.4l2-2l0.7,0.7l-2,2C1.4,5.7,1.3,5.9,1.4,6.1l0.1,0.6L0.5,6.9z"/>
</g>
</svg>
