<?xml version="1.0" encoding="utf-8"?>
<!-- Generator: Adobe Illustrator 26.1.0, SVG Export Plug-In . SVG Version: 6.00 Build 0)  -->
<svg version="1.1" id="Layer_1" xmlns="http://www.w3.org/2000/svg" xmlns:xlink="http://www.w3.org/1999/xlink" x="0px" y="0px"
	 viewBox="0 0 16 16" style="enable-background:new 0 0 16 16;" xml:space="preserve">
<style type="text/css">
	.st0{fill:#6485C3;}
	.st1{fill:#6D6E71;}
	.st2{fill:#6E6F72;}
</style>
<g id="icon">
	<path class="st0" d="M7,13.2c-0.1,0-0.2,0-0.3-0.1l0,0c-0.1-0.1-0.2-0.2-0.3-0.3c-0.1-0.2-0.1-0.2-0.1-1.5V10L5.1,9.4L4.4,9
		C4,8.8,3.7,8.6,3.7,8.6C3.5,8.5,3.4,8.3,3.3,8c0-0.1,0-0.2,0-0.3c0-0.2,0-0.3,0.1-0.5c0.1-0.1,2-2.9,2-2.9C5.4,4.2,5.6,4.1,5.8,4
		C5.9,4,6,4,6.1,4c0.1,0,0.2,0,0.2,0c0.1,0,0.3,0.1,0.3,0.2c0,0,0,0,0,0c0.1,0.1,0.3,0.2,0.8,1l0.6,1h0.6c0.5,0,0.7,0,0.8,0
		c0.2,0,0.3,0.1,0.4,0.3c0.1,0.1,0.1,0.3,0,0.4C9.9,7,9.8,7.1,9.6,7.2l-0.1,0l-0.9,0c-0.3,0-0.4,0-0.6,0c-0.4,0-0.4,0-0.5,0
		C7.4,7.1,7.3,7,6.9,6.4C6.8,6.3,6.7,6.1,6.7,6C6.6,6.2,6.4,6.5,6.2,6.8C6,7.1,5.9,7.3,5.8,7.5c0,0.1-0.1,0.1-0.1,0.2
		c0.2,0.1,0.5,0.2,0.8,0.4c0.4,0.2,0.9,0.5,0.9,0.5l0,0c0.1,0.1,0.2,0.2,0.3,0.3l0,0c0.1,0.2,0.1,0.2,0.1,1.9v0.1c0,0.4,0,1.6,0,1.7
		C7.7,13,7.3,13.2,7,13.2z"/>
	<path class="st1" d="M5.2,2.3l0-0.2c0,0,0-0.1,0-0.4c0-0.2,0-0.3,0-0.4C5.4,0.6,6,0.2,6.7,0C6.8,0,6.9,0,7,0c0.2,0,0.4,0,0.5,0
		c0.5,0.1,1,0.5,1.2,0.9C8.8,1,8.8,1.1,8.8,1.2L9,1.4l-0.3,0c-0.1,0-0.4,0-0.7,0H7.2l-0.1,0C7,1.5,7,1.6,6.9,1.8
		C6.8,2,6.7,2.1,6.7,2.2C6.5,2.3,6.5,2.3,5.9,2.3C5.9,2.3,5.2,2.3,5.2,2.3z"/>
	<path class="st0" d="M7.2,3.9C6.6,3.9,6.1,3.6,5.8,3L5.7,2.7h0.5c0.6,0,0.6,0,0.8-0.2C7,2.5,7.1,2.4,7.1,2.2c0-0.1,0.1-0.2,0.1-0.2
		l0.1-0.1H8c0.3,0,0.5,0,0.5,0l0.2,0l0,0.2c0,0.1,0,0.1,0,0.2C8.8,3.2,8.1,3.9,7.2,3.9z"/>
	<path class="st1" d="M13.2,16c-1.5,0-2.7-1.2-2.7-2.7s1.2-2.7,2.7-2.7s2.7,1.2,2.7,2.7S14.7,16,13.2,16z M3,16
		c-1.5,0-2.7-1.2-2.7-2.7s1.2-2.7,2.7-2.7s2.7,1.2,2.7,2.7S4.5,16,3,16z"/>
	<path class="st2" d="M5.3,11.2c0,0-2.5-1.4-3.4-1.9C1.3,9,0.8,9.5,0.8,9.5L0.2,8.9c0,0,0.9-0.9,2.1-0.3c0.9,0.5,3.3,1.8,3.4,1.9
		L5.3,11.2z"/>
	<path class="st2" d="M12.2,10.2l-0.9-1.9c-0.1-0.3-0.5-0.5-0.8-0.5h-0.2V6.9h0.2c0.7,0,1.3,0.4,1.5,1L13,9.8L12.2,10.2z"/>
	<polygon class="st1" points="8.4,9.3 8.4,13.2 11.3,10 10.6,8.6 	"/>
	<path class="st2" d="M15.2,9c0,0-0.8-0.7-2.2,0l-0.4-0.7c2-1,3.1,0.2,3.2,0.2L15.2,9z"/>
</g>
</svg>
