<?xml version="1.0" encoding="utf-8"?>
<!-- Generator: Adobe Illustrator 26.1.0, SVG Export Plug-In . SVG Version: 6.00 Build 0)  -->
<svg version="1.1" id="Layer_1" xmlns="http://www.w3.org/2000/svg" xmlns:xlink="http://www.w3.org/1999/xlink" x="0px" y="0px"
	 viewBox="0 0 16 16" style="enable-background:new 0 0 16 16;" xml:space="preserve">
<style type="text/css">
	.st0{fill:#6E6F72;}
	.st1{fill:#6485C3;}
</style>
<g id="icon">
	<path class="st0" d="M6.9,13.8c0.1,0.3,0.2,0.6,0.2,0.8c-0.1,0.5-0.4,1-0.9,1.2C6,15.9,5.8,16,5.6,16c0,0-0.1,0-0.1,0
		c-0.2,0-0.4-0.1-0.5-0.1c-0.1,0-1.1-0.5-2.2-1.1c-0.9-0.5-1.5-0.7-1.8-0.9c-0.2-0.1-0.3-0.3-0.3-0.6l0-0.1c0.1-0.2,0.2-0.4,0.5-0.4
		c0.2,0,0.6,0,1.1,0l0,0c0.6,0,1.3,0,1.7,0c0,0.1,0,0.2,0,0.3c0,0.1,0,0.2,0,0.2c0,0,0,0.1,0,0.1c0,0,0,0,0,0.1c0,0,0,0.1,0,0.1
		c0,0,0,0,0,0.1c0.1,0.3,0.3,0.5,0.5,0.6c0.2,0.1,0.4,0.2,0.7,0.2c0.3,0,0.6-0.1,0.9-0.3c0,0,0.1-0.1,0.1-0.1c0,0,0.1-0.1,0.1-0.1
		c0,0,0,0,0.1-0.1c0.1-0.1,0.2-0.2,0.3-0.4l0,0.1C6.9,13.7,6.9,13.7,6.9,13.8z M13.8,14.1c-0.2-0.5-0.6-0.9-1-1c-0.1,0-0.2,0-0.3,0
		c0,0.2,0,0.3,0,0.4l0,0c0,0,0,0.1,0,0.1c0,0,0,0,0,0c0,0,0,0,0,0c0,0,0,0,0,0c0,0,0,0,0,0c0,0,0,0,0,0c0,0,0,0,0,0c0,0,0,0,0,0
		c0,0,0,0,0,0c0,0,0,0,0,0c0,0,0,0,0,0c0,0,0,0.1,0,0.1c0,0,0,0.1,0,0.1c-0.3,0.7-0.9,0.8-1.1,0.8c0,0-0.1,0-0.1,0
		c-0.4,0-0.8-0.2-1.1-0.5c0,0,0,0,0,0c0,0,0,0-0.1-0.1c0,0,0,0,0,0c0,0,0,0,0-0.1c0,0-0.1-0.1-0.1-0.1l0,0c-0.1-0.1-0.1-0.2-0.1-0.3
		c-0.1,0-0.2,0-0.3,0.1c-0.2,0.1-0.5,0.1-0.9,0.2C8.2,14,7.9,14,7.7,14.1c-0.2,0.1-0.4,0.3-0.4,0.5l0,0c0,0.2,0.2,0.4,0.4,0.5
		c0.3,0.1,1,0.2,2,0.4c1.1,0.2,2.4,0.5,2.4,0.5c0.1,0,0.1,0,0.2,0c0.2,0,0.5-0.1,0.7-0.2C13.7,15.5,14,14.8,13.8,14.1z"/>
	<path class="st1" d="M11.3,14.1c-0.3,0-0.6-0.2-0.8-0.5l0,0c-0.1-0.2-0.1-0.2-0.1-1.6l0-1.5L9.5,9.6C9.2,9.4,9,9.1,8.8,9
		c0,0-0.1-0.1-0.1-0.1L8.6,9.6c-0.2,1.1-0.2,1.1-0.3,1.4c-0.1,0.2-0.1,0.2-0.9,1.1c-0.7,0.8-1.1,1.3-1.3,1.5
		c-0.2,0.2-0.5,0.3-0.7,0.3c-0.1,0-0.3,0-0.4-0.1c-0.2-0.1-0.4-0.4-0.4-0.7c0-0.3,0.1-0.5,0.3-0.7c0.2-0.3,0.7-0.8,1.2-1.4
		c0.3-0.4,0.4-0.5,0.4-0.5c0-0.1,0.1-0.7,0.3-1.8L7,7l0.5-1.3c0.1-0.3,0.2-0.7,0.3-0.9l0-0.1C7.8,4.8,7.6,4.9,7.5,5L6.9,5.3L6.5,6.1
		C6.1,7,6.1,7,6,7.1C5.8,7.3,5.7,7.3,5.5,7.3c-0.1,0-0.1,0-0.2,0C5,7.2,4.8,7,4.7,6.7c0-0.2,0-0.2,0.5-1.3c0.2-0.5,0.5-1,0.6-1.1
		l0,0C6,4.1,6,4.1,7,3.5l0,0C7.5,3.2,8,3,8.1,2.9c0.2-0.1,0.4-0.2,0.5-0.2c0,0,0.1,0,0.1,0c0.1,0,0.2,0,0.3,0c0.1,0,1.4,0.5,1.5,0.6
		c0.1,0.1,0.3,0.1,0.3,0.2l0,0c0.1,0.1,0.1,0.1,0.7,2l0.2,0.6l0.7,0.2c0.3,0.1,0.8,0.3,0.8,0.3c0.3,0.1,0.4,0.4,0.4,0.7
		c0,0.3-0.2,0.5-0.4,0.6C13.3,8,13.2,8,13.1,8c0,0-0.1,0-0.1,0c-0.1,0-1.9-0.7-2-0.8c-0.1-0.1-0.3-0.2-0.3-0.4c0,0,0-0.1-0.1-0.3
		c0,0-0.1-0.4-0.2-0.5c0,0,0,0,0,0c-0.1,0.2-0.2,0.5-0.4,1l0,0l0.9,0.9l0.9,1l0.1,0.2c0,0.1,0.1,0.2,0.1,0.3l0,0.1v1.9
		c0,1.9,0,1.9,0,2C11.9,14,11.5,14.1,11.3,14.1C11.3,14.1,11.3,14.1,11.3,14.1z M10.8,2.7c-0.2,0-0.2,0-0.3,0
		c-0.5-0.2-0.9-0.5-1-1.1c-0.1-0.3,0-0.7,0.2-1c0.2-0.3,0.5-0.5,0.8-0.5c0.1,0,0.2,0,0.2,0c0.1,0,0.3,0,0.4,0c0.1,0,0.2,0.1,0.3,0.1
		c0.3,0.1,0.5,0.3,0.6,0.6c0.2,0.5,0.1,1.1-0.2,1.5c-0.2,0.2-0.4,0.3-0.6,0.4C11,2.7,11,2.7,10.8,2.7L10.8,2.7L10.8,2.7z"/>
</g>
</svg>
