<?xml version="1.0" encoding="utf-8"?>
<!-- Generator: Adobe Illustrator 26.1.0, SVG Export Plug-In . SVG Version: 6.00 Build 0)  -->
<svg version="1.1" id="Layer_1" xmlns="http://www.w3.org/2000/svg" xmlns:xlink="http://www.w3.org/1999/xlink" x="0px" y="0px"
	 viewBox="0 0 16 16" style="enable-background:new 0 0 16 16;" xml:space="preserve">
<style type="text/css">
	.st0{fill:#6485C3;}
</style>
<g id="icon">
	<path class="st0" d="M10.7,15.9c-0.2,0-0.3,0-0.5-0.1c-0.3-0.2-0.5-0.6-0.5-1c0-0.1,0.3-1.5,0.3-1.6c0.1-0.6,0.2-1,0.2-1.3
		C10,12,9.6,11.8,9.1,11.6C7.9,11.1,7.8,11,7.7,11c-0.1-0.1-0.2-0.1-0.4-0.3C6.8,10.4,6.6,10,6.6,9.6c0-0.2,0.1-0.8,0.7-3.4
		c-0.1,0-0.2,0-0.3,0l-0.4,0L6.2,6.9C5.6,8.1,5.6,8.1,5.5,8.2l0,0C5.4,8.4,5.1,8.5,4.9,8.5c0,0-0.1,0-0.1,0c-0.2,0-0.6-0.2-0.7-0.4
		C4,7.9,3.9,7.6,4,7.4c0-0.1,1-2.5,1-2.6c0.1-0.1,0.2-0.3,0.4-0.4c0.2-0.1,0.3-0.1,1.5-0.2l0.1,0c0.7,0,1.2-0.1,1.3-0.1
		c0.1,0,0.2,0,0.4,0c0.1,0,0.3,0,0.4,0c0.4,0.1,1,0.3,1.3,0.5c0.4,0.3,0.5,0.7,0.5,1.1c0,0.1-0.4,1.6-0.5,2C10,8.6,9.9,9.2,9.8,9.5
		c0.2,0.1,0.5,0.2,0.8,0.4l0.2,0.1c1.1,0.5,1.1,0.5,1.3,0.6l0,0c0.1,0.1,0.2,0.3,0.3,0.5c0,0.1,0.1,0.2,0.1,0.4v0.2l-0.4,1.7
		l-0.2,1.1c-0.1,0.4-0.2,0.7-0.2,0.7C11.5,15.6,11.1,15.9,10.7,15.9L10.7,15.9z M5.3,14c-0.3,0-0.7,0-1.5,0l-0.2,0
		c-1.7,0-1.9-0.1-2-0.1c-0.4-0.1-0.7-0.4-0.7-0.7c-0.1-0.3,0-0.6,0.1-0.8c0.2-0.2,0.4-0.4,0.7-0.4c0.1,0,0.4,0,1.6-0.1
		c0.8,0,1.5,0,1.5,0l0,0l0.5-0.7c0.1-0.2,0.3-0.4,0.4-0.5L6,10.4l0.2,0.2c0.2,0.2,0.4,0.5,0.7,0.7c0.2,0.1,0.2,0.2,0.3,0.2
		c0.1,0.1,0.1,0.1,0.3,0.2l0.2,0.1L7.6,12c-0.2,0.3-0.5,0.6-1.2,1.3c0,0-0.1,0.1-0.1,0.1c-0.1,0.1-0.3,0.3-0.4,0.4l0,0
		C5.7,13.9,5.6,14,5.3,14L5.3,14z M11.8,8.4c-0.3,0-0.5-0.1-0.7-0.3c0,0,0,0-0.1-0.1l-0.1-0.1l0-0.1c0.2-0.9,0.4-1.5,0.5-1.8
		l0.1-0.4l0.3,0.3L11.8,6C12,6.2,12,6.2,12.1,6.3c0.3,0,1.7-0.2,1.8-0.3c0.1,0,0.2,0,0.2,0c0,0,0.1,0,0.1,0c0.4,0,0.7,0.3,0.8,0.7
		c0.1,0.4-0.1,0.9-0.6,1.1c0,0-0.1,0-1.2,0.3c-0.6,0.1-1,0.2-1.1,0.3C12.1,8.3,11.9,8.4,11.8,8.4L11.8,8.4L11.8,8.4z M10.5,3.6
		c-0.3,0-0.5-0.1-0.8-0.2C9.1,3.1,8.8,2.5,8.8,1.9c0-0.2,0-0.4,0.1-0.6C9,0.7,9.5,0.2,10.2,0.1c0.1,0,0.2,0,0.3,0
		c0.5,0,0.9,0.2,1.3,0.6c0.1,0.2,0.2,0.2,0.3,0.4c0.1,0.3,0.2,0.4,0.2,0.8c0,0.3,0,0.5-0.2,0.8c-0.3,0.5-0.7,0.9-1.3,1
		C10.6,3.6,10.6,3.6,10.5,3.6z"/>
</g>
</svg>
