<?xml version="1.0" encoding="utf-8"?>
<!-- Generator: Adobe Illustrator 26.1.0, SVG Export Plug-In . SVG Version: 6.00 Build 0)  -->
<svg version="1.1" id="Layer_1" xmlns="http://www.w3.org/2000/svg" xmlns:xlink="http://www.w3.org/1999/xlink" x="0px" y="0px"
	 viewBox="0 0 16 16" style="enable-background:new 0 0 16 16;" xml:space="preserve">
<style type="text/css">
	.st0{opacity:0.5;fill:#FFFFFF;enable-background:new    ;}
	.st1{fill:#6486C4;}
	.st2{fill:#6E6F72;}
</style>
<g id="icon">
	<path class="st0" d="M3.8,9.4c0.1-1.1,0.3-2.3,0.6-3c0-0.1,0.1-0.2,0.1-0.3l0-0.1C4.7,5.7,4.8,5.5,5,5.3C5.2,5.1,5.4,5,5.8,5
		c0,0,0,0,0.1,0C6,5,6.3,5,6.4,5c0.1,0,4.9,1.1,5.2,1.2c0.4,0.1,0.6,0.4,0.6,0.7c0,0.2-0.1,0.3-0.2,0.5c-0.1,0.1-0.3,0.2-0.5,0.2
		l0,0c0,0,0,0-0.1,0c-0.1,0-0.8-0.2-1.9-0.4C7.8,6.7,7.8,6.7,7.8,6.7c-0.1,0-0.1,0-0.3,0.7c0,0.1-0.1,0.3-0.1,0.4
		C7.2,8.1,7.2,8.7,7.1,9.4L3.8,9.4L3.8,9.4z"/>
	<circle class="st0" cx="6.9" cy="2.4" r="1.5"/>
	<path class="st1" d="M6.7,9.4l0-0.2C6.7,8.7,6.8,8,6.9,7.7C7,7.6,7,7.4,7.1,7.3c0.2-0.7,0.3-1,0.8-1c0.1,0,0.1,0,1.9,0.4
		c0.5,0.1,1.7,0.4,1.8,0.4c0,0,0,0,0,0c0,0,0,0,0,0c0.1,0,0.1,0,0.2-0.1c0,0,0.1-0.1,0.1-0.2c0-0.2-0.2-0.2-0.3-0.3
		c-0.3-0.1-5-1.2-5.2-1.2c-0.1,0-0.3,0-0.5,0c0,0,0,0-0.1,0c-0.3,0-0.4,0.1-0.5,0.3C5.2,5.7,5.1,5.9,5,6.2l0,0.1
		c0,0.1-0.1,0.2-0.1,0.3C4.5,7.3,4.3,8.4,4.3,9.2l0,0.2H3.4l0-0.2C3.5,8.3,3.7,7,4,6.2C4,6.1,4.1,6,4.1,6l0.1-0.1
		C4.3,5.5,4.5,5.2,4.6,5c0.3-0.3,0.6-0.5,1.1-0.5c0,0,0.1,0,0.2,0c0.2,0,0.5,0,0.6,0c0.1,0,5,1.1,5.2,1.2c0.6,0.2,0.9,0.6,0.9,1.1
		c0,0.3-0.1,0.6-0.3,0.8C12.1,7.8,11.8,8,11.5,8c0,0-0.1,0-0.1,0c-0.1,0-0.3,0-1.9-0.4C8.7,7.4,8.3,7.3,8,7.2c0,0.1-0.1,0.2-0.1,0.4
		c0,0.1-0.1,0.3-0.1,0.4C7.7,8.1,7.6,8.6,7.6,9.2l0,0.2L6.7,9.4L6.7,9.4z"/>
	<path class="st1" d="M6.9,0.5C5.8,0.5,5,1.3,5,2.4c0,1.1,0.9,1.9,1.9,1.9c1.1,0,1.9-0.9,1.9-1.9C8.8,1.3,7.9,0.5,6.9,0.5z M6.9,3.4
		c-0.6,0-1-0.5-1-1s0.5-1,1-1s1,0.5,1,1C7.9,2.9,7.5,3.4,6.9,3.4z"/>
	<path class="st0" d="M0.5,10.9c0-0.1-0.1-0.4-0.1-0.5h15.4l0,0.1c0,0.1,0,0.6,0,0.8c-0.1,0.4-0.2,1-0.4,1.5
		c-0.1,0.3-0.3,0.9-0.5,1.2c0,0-0.1-0.1-0.1-0.1c-0.2-0.3-0.5-0.5-0.7-0.6c-0.3-0.1-0.5-0.2-0.7-0.2h0c-0.7,0-1.2,0.4-1.5,0.8
		c-0.2,0.2-0.3,0.3-0.4,0.4c0,0,0,0-0.1,0c0,0-0.1,0-0.1,0c-0.1,0-0.2-0.1-0.3-0.3c-0.3-0.3-0.5-0.6-0.8-0.7
		c-0.3-0.2-0.5-0.2-0.7-0.2c-0.8,0-1.2,0.4-1.5,0.9c-0.3,0.3-0.4,0.4-0.4,0.4c0,0-0.1,0-0.5-0.4c-0.2-0.3-0.5-0.5-0.8-0.7
		c-0.3-0.1-0.5-0.2-0.7-0.2l0,0c-0.4,0-0.7,0.1-1,0.3c-0.1,0-0.1,0.1-0.1,0.1l-0.1,0l0,0c-0.1,0.1-0.1,0.1-0.4,0.4
		c-0.2,0.2-0.3,0.3-0.3,0.3c0,0,0,0-0.1,0c-0.1,0-0.1,0-0.4-0.3c-0.3-0.4-0.6-0.6-0.8-0.7c-0.2-0.1-0.6-0.2-0.8-0.2c0,0,0,0,0,0
		c-0.4-0.6-0.6-0.9-0.7-1.1C0.7,11.6,0.6,11.2,0.5,10.9z"/>
	<path class="st2" d="M14.8,14.3c-0.1-0.1-0.2-0.1-0.3-0.3c0,0-0.1-0.1-0.1-0.1l-0.1-0.1l0-0.1c0.1-0.3,0.3-0.8,0.4-1
		c0.2-0.5,0.3-1,0.3-1.4c0-0.1,0-0.3,0-0.4H1c0.1,0.3,0.2,0.6,0.4,0.9C1.6,12,1.7,12.3,2.2,13l0.2,0.4L2,13.3c-0.1,0-0.2,0-0.3,0
		c-0.1,0-0.2,0-0.2,0l-0.1,0l-0.1-0.1c-0.3-0.5-0.5-0.8-0.6-1.1c-0.2-0.3-0.4-0.8-0.5-1.1c0-0.2-0.1-0.4-0.1-0.6L0,10h15.9l0.1,0.5
		c0,0.2,0,0.7,0,1c-0.1,0.5-0.2,1-0.4,1.6c-0.1,0.3-0.3,0.9-0.5,1.3L15,14.4L14.8,14.3z"/>
	<path class="st2" d="M10,10.8c-0.1,0-0.2,0-0.3-0.1c-0.3-0.2-0.4-0.5-0.3-0.8l0.7-1.4c0.2-0.3,0.5-0.4,0.8-0.3s0.4,0.5,0.3,0.8
		l-0.7,1.4C10.5,10.7,10.2,10.8,10,10.8z"/>
	<path class="st1" d="M7.5,15.9c-0.5,0-0.9-0.2-1.4-0.8C6,15,5.8,14.8,5.7,14.7c0,0,0,0-0.2,0l0,0c-0.1,0-0.1,0-0.3,0.1
		c-0.1,0-0.1,0.1-0.1,0.1c0,0-0.1,0.2-0.2,0.3c-0.4,0.5-0.7,0.8-1.3,0.8c-0.6,0-0.9-0.3-1.3-0.7c-0.3-0.3-0.4-0.4-0.5-0.4
		c0,0-0.2,0-0.3,0c-0.2,0.1-0.3,0.2-0.5,0.4c-0.1,0.1-0.2,0.2-0.3,0.3l-0.1,0.1l-0.5-0.6l0.1-0.1c0,0,0.1-0.1,0.2-0.2
		c0.3-0.4,0.6-0.6,0.9-0.7c0.1,0,0.1,0,0.2,0c0.2,0,0.5,0,0.6,0.1c0.2,0.1,0.4,0.3,0.7,0.6c0.4,0.4,0.5,0.5,0.7,0.5
		c0.2,0,0.3,0,0.7-0.5c0.2-0.3,0.3-0.3,0.3-0.4l0,0c0,0,0,0,0.1-0.1C5,14,5.2,13.9,5.5,13.9l0,0c0.2,0,0.4,0,0.6,0.1
		c0.2,0.1,0.5,0.3,0.7,0.6c0.4,0.5,0.6,0.5,0.7,0.5c0.2,0,0.3,0,0.7-0.5c0.4-0.5,0.7-0.7,1.2-0.7c0.2,0,0.4,0,0.6,0.1
		c0.2,0.1,0.4,0.3,0.7,0.6c0.2,0.2,0.3,0.3,0.5,0.4c0,0,0.1,0,0.2,0c0.1,0,0.2,0,0.2,0c0.1-0.1,0.3-0.2,0.5-0.5
		c0.4-0.5,0.7-0.7,1.2-0.7h0c0.3,0,0.4,0,0.6,0.1c0.2,0.1,0.4,0.3,0.6,0.5c0.2,0.2,0.2,0.3,0.4,0.3c0.2,0.1,0.4,0.2,0.5,0.2l0.1,0
		l-0.1,0.8l-0.1,0c-0.2,0-0.6-0.1-0.8-0.3c-0.3-0.1-0.4-0.3-0.6-0.5c-0.1-0.2-0.3-0.3-0.4-0.4c0,0,0,0-0.2,0h0c-0.2,0-0.3,0-0.6,0.4
		c-0.3,0.4-0.5,0.5-0.7,0.7c-0.2,0.1-0.5,0.1-0.6,0.1c-0.2,0-0.4,0-0.6-0.1c-0.2-0.1-0.5-0.3-0.7-0.6c-0.2-0.2-0.3-0.4-0.5-0.4
		c0,0,0,0-0.2,0c-0.2,0-0.3,0-0.6,0.4C8.4,15.6,8.1,15.9,7.5,15.9L7.5,15.9L7.5,15.9L7.5,15.9z"/>
</g>
</svg>
