<?xml version="1.0" encoding="utf-8"?>
<!-- Generator: Adobe Illustrator 26.1.0, SVG Export Plug-In . SVG Version: 6.00 Build 0)  -->
<svg version="1.1" id="Layer_1" xmlns="http://www.w3.org/2000/svg" xmlns:xlink="http://www.w3.org/1999/xlink" x="0px" y="0px"
	 viewBox="0 0 16 16" style="enable-background:new 0 0 16 16;" xml:space="preserve">
<style type="text/css">
	.st0{opacity:0.5;fill:#FFFFFF;enable-background:new    ;}
	.st1{fill:#EEAD56;}
</style>
<g id="icon">
	<path class="st0" d="M4,1.4C3.8,1.5,3.7,1.7,3.7,1.9c0,0.1,0,0.2,0,0.7c0,0.9,0.1,2.2,0.3,3.1c0.2,0.9,0.5,1.8,0.9,2.6
		c0.5,0.9,1,1.7,1.6,2.3l0.2,0.2V11c0,0.1,0,0.1,0,0.2c0,0.1,0.1,0.1,0.1,0.2c0,0.1,0.1,0.1,0.1,0.2l0.1,0.1l0,0
		c-0.3,0.3-0.4,0.8-0.2,1.1L7,13l0,0.1c-0.1,0.1-0.2,0.3-0.2,0.5c-0.1,0.1-0.3,0.3-0.5,0.5c-0.3,0.2-0.5,0.4-0.6,0.6
		c-0.1,0.2-0.1,0.4-0.1,0.5c0,0.2,0.1,0.3,0.2,0.4l0.1,0l2.1,0c2.1,0,2.1,0,2.2,0c0.1,0,0.1,0,0.2-0.1c0.1-0.1,0.2-0.3,0.1-0.5
		c-0.1-0.3-0.3-0.6-0.6-0.8c-0.2-0.2-0.5-0.4-0.6-0.5C9.2,13.4,9,13.1,9,13L9,13L9,12.8c0.1-0.2,0.1-0.4,0.1-0.6
		c0-0.2-0.1-0.3-0.2-0.4c0,0-0.1-0.1-0.1-0.1c0,0,0-0.1,0.1-0.2c0.2-0.3,0.2-0.4,0.2-0.5l0-0.1l0.1-0.2c0.5-0.6,0.8-0.9,1.2-1.4
		c0.3-0.4,0.6-0.9,0.8-1.4c0.5-1.1,0.9-2.5,1-3.6c0-0.5,0.1-2.1,0.1-2.3c0-0.2-0.1-0.5-0.3-0.5l-0.1,0L8,1.4C4.3,1.4,4.1,1.4,4,1.4z
		"/>
	<path class="st1" d="M12.8,2c0-0.4-0.2-0.8-0.6-0.9L12,1h0c0,0-5.5,0-6.1,0C4,1,4,1,3.9,1C3.4,1.2,3.3,1.7,3.3,1.9
		c0,0.1,0,0.3,0,0.8c0,0.6,0.1,2,0.3,3.2c0.2,1,0.5,1.8,1,2.7C5,9.5,5.6,10.4,6.3,11l0.1,0.1c0,0.2,0,0.2,0.1,0.4
		c0,0.1,0.1,0.2,0.1,0.2c-0.2,0.4-0.3,0.9-0.1,1.3c0,0.1-0.1,0.2-0.2,0.3c-0.1,0.1-0.2,0.3-0.4,0.4c-0.4,0.3-0.6,0.5-0.8,0.8
		C5.1,14.7,5,15,5,15.2c0,0.3,0.2,0.6,0.5,0.7L5.7,16L8,16c0.5,0,0.8,0,1.1,0c1.1,0,1.1,0,1.3,0c0.2,0,0.3-0.1,0.4-0.2
		c0.2-0.2,0.3-0.5,0.2-0.9c-0.1-0.4-0.3-0.8-0.8-1.1c-0.2-0.1-0.4-0.3-0.5-0.4c0-0.1-0.1-0.2-0.1-0.3c0.1-0.3,0.2-0.5,0.1-0.8
		c0-0.2-0.1-0.3-0.2-0.5c0.2-0.2,0.3-0.4,0.3-0.7c0.5-0.6,0.8-0.9,1.2-1.5c0.3-0.4,0.6-1,0.8-1.4c0.5-1.1,0.9-2.6,1-3.8
		C12.7,3.9,12.8,2.2,12.8,2z M11.8,4.2c-0.1,1.1-0.5,2.4-0.9,3.5c-0.2,0.4-0.5,0.9-0.7,1.3C9.8,9.5,9.5,9.8,9,10.4l-0.3,0.3L8.8,11
		c0,0-0.1,0.1-0.1,0.2c-0.2,0.2-0.3,0.5-0.1,0.7l0,0c0,0,0.1,0.1,0.1,0.1c0.1,0.1,0.1,0.2,0.1,0.2c0,0.1,0,0.2-0.1,0.3l-0.1,0.3
		l0.1,0.3c0,0.2,0.2,0.4,0.3,0.6c0.1,0.2,0.4,0.4,0.7,0.6c0.3,0.2,0.4,0.4,0.5,0.6c0,0,0,0.1,0,0.1c-0.1,0-0.5,0-0.9,0
		c-0.3,0-0.7,0-1.2,0l-2,0c0,0,0-0.2,0.1-0.2c0.1-0.1,0.1-0.2,0.5-0.5c0.2-0.2,0.5-0.4,0.6-0.6c0.1-0.2,0.2-0.4,0.3-0.6l0.1-0.3
		l-0.2-0.3c-0.1-0.2-0.1-0.4,0.1-0.6l0.3-0.3l-0.3-0.4c-0.1-0.1-0.2-0.2-0.2-0.2c0,0-0.1-0.1-0.1-0.1l0,0c0,0,0-0.4,0-0.4l-0.3-0.3
		C6.4,9.7,5.8,8.9,5.4,8.1C5,7.3,4.7,6.5,4.5,5.6c-0.2-0.8-0.3-1.9-0.3-3c0-0.5,0-0.4,0-0.5c0,0,0,0,0-0.1C4.4,2,5,2,6,2
		c0.5,0,5.9,0,5.9,0c0,0,0,0,0,0.1C11.8,2.2,11.8,3.7,11.8,4.2z"/>
	<path class="st0" d="M4.5,9.5C2.5,8.3,1,6.6,0.6,5C0.5,4.7,0.5,4.5,0.5,4.1l0-0.4l0.1-0.2c0.1-0.3,0.1-0.4,0.2-0.6
		C1,2.6,1.3,2.4,1.7,2.3c0.4-0.1,0.7,0,1,0.1c0,0,0.1,0.1,0.1,0.1c0,0,0,0.1,0,0.1c0,0.4,0,1.1,0.1,1.9C2.7,4.3,2.5,4.1,2.4,4
		C2.3,3.9,2.2,3.9,2.1,3.9S2,3.9,1.9,4c-0.1,0.1-0.1,0.4,0,0.6c0.1,0.5,0.3,1,0.6,1.5C2.8,6.5,3,6.7,3.4,7.2
		c0.2,0.5,0.4,1.1,0.7,1.6C4.2,9,4.4,9.3,4.5,9.5z"/>
	<path class="st0" d="M15.4,3.5c0-0.1-0.1-0.3-0.1-0.3c-0.1-0.3-0.3-0.5-0.5-0.6c-0.3-0.2-0.8-0.3-1.1-0.2c-0.2,0-0.4,0.1-0.5,0.2
		c0,0.6,0,1.5-0.1,1.8c0,0,0,0.1,0,0.1c0.1-0.1,0.1-0.1,0.2-0.2C13.6,4,13.7,4,13.7,3.9c0.1,0,0.2,0,0.3,0c0.2,0.1,0.2,0.7,0,1.3
		c-0.2,0.6-0.6,1.2-1.4,2c-0.1,0.4-0.3,0.8-0.4,1.1c-0.2,0.4-0.4,0.8-0.6,1.2c0.1,0,0.1-0.1,0.1-0.1c1.4-0.9,2.7-2.1,3.3-3.2
		c0.3-0.5,0.5-1,0.5-1.5c0-0.1,0-0.2,0-0.2c0-0.1,0-0.3,0-0.4V3.7L15.4,3.5z"/>
	<path class="st1" d="M16,3.6V4c0,0.1,0,0.4,0,0.5c0,0,0,0.1,0,0.2c-0.1,0.5-0.3,1.1-0.6,1.6c-0.7,1.2-1.9,2.5-3.5,3.4
		c-0.2,0.2-0.6,0.4-1,0.5c0.1-0.2,0.3-0.3,0.4-0.5c0.2-0.3,0.5-0.7,0.7-1.1c1.1-0.8,2-1.8,2.6-2.7C14.8,5.5,15,5,15,4.7
		c0-0.1,0-0.2,0-0.2l0,0c0,0,0-0.2,0-0.4V3.7l0-0.2c0-0.1-0.1-0.3-0.1-0.3c-0.1-0.2-0.2-0.3-0.3-0.4c-0.1-0.1-0.4-0.2-0.6-0.2
		c-0.1,0-0.1,0-0.2,0l0,0c-0.2,0-0.4,0.1-0.6,0.5c0-0.5,0-1,0-1.2c0.1-0.1,0.3-0.1,0.4-0.1c0.1,0,0.2,0,0.4,0c0.4,0,0.8,0.1,1.1,0.3
		c0.3,0.2,0.5,0.5,0.6,0.8c0.1,0.1,0.1,0.4,0.1,0.4L16,3.6z"/>
	<path class="st1" d="M12.9,7.5c0.9-0.9,1.3-1.5,1.5-2.2C14.6,5,14.9,4,14.3,3.5c-0.1-0.1-0.2-0.1-0.4-0.1c-0.1,0-0.3,0-0.4,0.1
		c-0.1,0.1-0.2,0.1-0.3,0.2c0,0.3,0,0.5,0,0.6c0,0.3-0.1,0.6-0.1,0.9c0.1-0.1,0.3-0.2,0.3-0.3c0,0,0.2-0.2,0.3-0.3
		c0,0.1-0.1,0.2-0.1,0.4c-0.1,0.4-0.3,0.7-0.7,1.1c-0.2,0.7-0.4,1.5-0.7,2.1c0.1-0.1,0.2-0.2,0.3-0.3C12.6,7.9,12.8,7.6,12.9,7.5z"
		/>
	<path class="st1" d="M2.7,3.7C2.5,3.5,2.3,3.4,2.1,3.4c-0.3,0-0.4,0.1-0.6,0.3C1.3,4.1,1.4,4.6,1.4,4.7c0.1,0.6,0.3,1.1,0.7,1.7
		c0.3,0.4,0.5,0.7,1,1.2C3.3,7.7,3.5,7.9,3.6,8c0.1,0.1,0.2,0.2,0.2,0.2C3.5,7.6,3.3,6.9,3.1,6.2C3,6.1,3,6,2.9,5.9
		C2.6,5.4,2.4,5.1,2.3,4.6c0.1,0.1,0.3,0.3,0.3,0.3c0,0.1,0.2,0.2,0.3,0.3c-0.1-0.5-0.1-1-0.2-1.5C2.7,3.7,2.7,3.7,2.7,3.7z"/>
	<path class="st1" d="M5,10.3c-0.4-0.5-0.7-1-1-1.6c0,0,0,0,0-0.1C2.4,7.6,1.4,6.2,1,4.9C1,4.6,0.9,4.5,0.9,4.1l0-0.3l0-0.2
		C1,3.4,1.1,3.3,1.1,3.1C1.3,3,1.4,2.8,1.7,2.8c0.1,0,0.1,0,0.2,0c0.2,0,0.3,0,0.4,0.1c0.1,0.1,0.2,0.2,0.4,0.4c0-0.2,0-0.5,0-0.6
		c0-0.3,0-0.5,0-0.6C2.5,1.9,2.2,1.9,1.9,1.9c-0.1,0-0.3,0-0.4,0C1,2,0.6,2.3,0.3,2.7C0.2,2.9,0.1,3.1,0.1,3.4L0,3.7l0,0.4
		c0,0.5,0,0.7,0.1,1c0.5,1.8,2.1,3.6,4.4,4.9C4.6,10.1,4.8,10.2,5,10.3z"/>
</g>
</svg>
