<?xml version="1.0" encoding="UTF-8"?>
<!DOCTYPE svg PUBLIC "-//W3C//DTD SVG 1.1//EN" "http://www.w3.org/Graphics/SVG/1.1/DTD/svg11.dtd">
<svg version="1.1" id="Layer_1" xmlns="http://www.w3.org/2000/svg" xmlns:xlink="http://www.w3.org/1999/xlink" x="0px" y="0px" width="16px" height="16px" viewBox="0 0 16 16" enable-background="new 0 0 16 16" xml:space="preserve">
  <g id="icon">
    <circle cx="8.017" cy="8.017" r="7.478" fill="#FFFFFF"/>
    <polygon points="5.494,7.24 8.046,5.425 10.498,7.24 9.581,10.201 6.474,10.201" fill="#C8C6C4" stroke="#383838" stroke-width="0.8" stroke-miterlimit="1" stroke-linejoin="miter"/>
    <path d="M10.251,1.227l0.332,0.868L8.029,3.111L5.43,2.077l0.369,-0.85C7.337,0.715,8.82,0.729,10.251,1.227zM13.864,3.847l-0.921,-0.098l-0.224,2.741l1.749,2.18l0.729,-0.577C15.243,6.579,14.813,5.161,13.864,3.847zM0.837,8.073l0.729,0.577l1.749,-2.18l-0.224,-2.741l-0.921,0.098C1.221,5.14,0.79,6.558,0.837,8.073zM13.811,12.284l-0.234,-0.9l-2.71,0.687l-1.473,2.323l0.794,0.477C11.738,14.393,12.936,13.521,13.811,12.284zM5.931,14.871l0.794,-0.477l-1.473,-2.323l-2.71,-0.687l-0.234,0.9C3.184,13.521,4.383,14.393,5.931,14.871z" fill="#C8C6C4"/>
    <path d="M10.269,1.246l0.314,0.85L8.029,3.111L5.43,2.077l0.369,-0.85M13.864,3.847l-0.921,-0.098l-0.224,2.741l1.749,2.18l0.717,-0.554M0.849,8.096l0.717,0.554l1.749,-2.18l-0.224,-2.741l-0.921,0.098M13.815,12.258l-0.238,-0.874l-2.71,0.687l-1.473,2.323l0.794,0.477M5.931,14.871l0.794,-0.477l-1.473,-2.323l-2.71,-0.687l-0.238,0.874" fill="none" stroke="#383838" stroke-width="0.8" stroke-miterlimit="1"/>
    <path d="M8.032,3.054V5.54M3.259,6.485l2.237,0.795M10.418,7.23l2.337,-0.746M6.491,10.163l-1.293,1.889M9.473,10.163l1.392,1.939M6.64,14.389h2.784M1.519,8.573l1.044,2.834M14.445,8.573l-0.895,2.784M3.06,3.85L5.496,2.01M10.517,2.06L12.953,3.8" fill="none" stroke="#383838" stroke-width="0.7" stroke-miterlimit="1"/>
    <circle cx="8" cy="8" r="7.5" fill="none" stroke="#383838" stroke-width="1" stroke-miterlimit="1"/>
  </g>
</svg>
