<?xml version="1.0" encoding="UTF-8"?>
<!DOCTYPE svg PUBLIC "-//W3C//DTD SVG 1.1//EN" "http://www.w3.org/Graphics/SVG/1.1/DTD/svg11.dtd">
<svg version="1.1" id="Layer_1" xmlns="http://www.w3.org/2000/svg" xmlns:xlink="http://www.w3.org/1999/xlink" x="0px" y="0px" width="16px" height="16px" viewBox="0 0 16 16" enable-background="new 0 0 16 16" xml:space="preserve">
  <g id="icon">
    <path d="M7.513,0.529c-0.032,0.003,-0.141,0.013,-0.243,0.021c-1.41,0.121,-2.835,0.696,-3.959,1.598C1.816,3.347,0.832,5.064,0.568,6.937C0.509,7.355,0.5,7.483,0.5,8.014c0,0.531,0.009,0.659,0.068,1.077c0.351,2.481,1.955,4.647,4.233,5.716c0.775,0.363,1.544,0.574,2.47,0.674c0.225,0.025,1.157,0.025,1.382,0c1.444,-0.158,2.652,-0.624,3.771,-1.456c0.545,-0.404,1.126,-0.988,1.529,-1.534c0.751,-1.018,1.229,-2.176,1.403,-3.4c0.059,-0.417,0.068,-0.546,0.068,-1.077c0,-0.531,-0.009,-0.659,-0.068,-1.077c-0.351,-2.48,-1.957,-4.648,-4.233,-5.716c-0.769,-0.36,-1.541,-0.572,-2.448,-0.673C8.532,0.533,7.631,0.517,7.513,0.529z" fill="#FFFFFF" stroke="#383838" stroke-width="1" stroke-miterlimit="1"/>
    <path d="M6.564,8.2c-0.03,-0.145,-0.031,-0.431,-0.001,-0.585c0.096,-0.506,0.44,-0.965,0.89,-1.187c0.241,-0.118,0.382,-0.15,0.657,-0.144c0.188,0.003,0.229,0.009,0.333,0.044c0.302,0.102,0.52,0.29,0.666,0.571c0.286,0.552,0.155,1.267,-0.323,1.772c-0.306,0.323,-0.675,0.487,-1.084,0.483c-0.271,-0.001,-0.462,-0.064,-0.681,-0.219C6.796,8.777,6.625,8.5,6.564,8.2zM4.166,5.035c-0.138,-0.036,-0.394,-0.038,-0.536,-0.007c-0.227,0.049,-0.446,0.169,-0.622,0.34c-0.192,0.188,-0.315,0.401,-0.388,0.674c-0.05,0.195,-0.053,0.478,-0.006,0.674c0.114,0.457,0.441,0.802,0.884,0.927c0.176,0.05,0.438,0.047,0.619,-0.007c0.475,-0.142,0.822,-0.514,0.946,-1.011c0.025,-0.102,0.033,-0.173,0.033,-0.33c0,-0.231,-0.033,-0.389,-0.115,-0.568C4.816,5.368,4.533,5.128,4.166,5.035zM7.162,4.583c0.256,-0.001,0.369,-0.027,0.6,-0.141c0.364,-0.178,0.647,-0.517,0.749,-0.896c0.041,-0.155,0.046,-0.429,0.009,-0.57c-0.034,-0.129,-0.127,-0.315,-0.206,-0.41c-0.133,-0.16,-0.343,-0.292,-0.549,-0.343c-0.111,-0.03,-0.332,-0.047,-0.425,-0.037c-0.24,0.03,-0.444,0.104,-0.638,0.231c-0.238,0.157,-0.4,0.343,-0.517,0.595c-0.08,0.17,-0.105,0.272,-0.114,0.475c-0.01,0.212,0.019,0.355,0.11,0.539c0.081,0.166,0.277,0.358,0.449,0.441C6.825,4.564,6.913,4.583,7.162,4.583z" fill="#FFFFFF"/>
    <path d="M6.564,8.2c-0.03,-0.145,-0.031,-0.431,-0.001,-0.585c0.096,-0.506,0.44,-0.965,0.89,-1.187c0.241,-0.118,0.382,-0.15,0.657,-0.144c0.188,0.003,0.229,0.009,0.333,0.044c0.302,0.102,0.52,0.29,0.666,0.571c0.286,0.552,0.155,1.267,-0.323,1.772c-0.306,0.323,-0.675,0.487,-1.084,0.483c-0.271,-0.001,-0.462,-0.064,-0.681,-0.219C6.796,8.777,6.625,8.5,6.564,8.2zM4.166,5.035c-0.138,-0.036,-0.394,-0.038,-0.536,-0.007c-0.227,0.049,-0.446,0.169,-0.622,0.34c-0.192,0.188,-0.315,0.401,-0.388,0.674c-0.05,0.195,-0.053,0.478,-0.006,0.674c0.114,0.457,0.441,0.802,0.884,0.927c0.176,0.05,0.438,0.047,0.619,-0.007c0.475,-0.142,0.822,-0.514,0.946,-1.011c0.025,-0.102,0.033,-0.173,0.033,-0.33c0,-0.231,-0.033,-0.389,-0.115,-0.568C4.816,5.368,4.533,5.128,4.166,5.035zM7.162,4.583c0.256,-0.001,0.369,-0.027,0.6,-0.141c0.364,-0.178,0.647,-0.517,0.749,-0.896c0.041,-0.155,0.046,-0.429,0.009,-0.57c-0.034,-0.129,-0.127,-0.315,-0.206,-0.41c-0.133,-0.16,-0.343,-0.292,-0.549,-0.343c-0.111,-0.03,-0.332,-0.047,-0.425,-0.037c-0.24,0.03,-0.444,0.104,-0.638,0.231c-0.238,0.157,-0.4,0.343,-0.517,0.595c-0.08,0.17,-0.105,0.272,-0.114,0.475c-0.01,0.212,0.019,0.355,0.11,0.539c0.081,0.166,0.277,0.358,0.449,0.441C6.825,4.564,6.913,4.583,7.162,4.583z" fill="none" stroke="#383838" stroke-width="0.9" stroke-miterlimit="1"/>
  </g>
</svg>
