<?xml version="1.0" encoding="UTF-8"?>
<!DOCTYPE svg PUBLIC "-//W3C//DTD SVG 1.1//EN" "http://www.w3.org/Graphics/SVG/1.1/DTD/svg11.dtd">
<svg version="1.1" id="Layer_1" xmlns="http://www.w3.org/2000/svg" xmlns:xlink="http://www.w3.org/1999/xlink" x="0px" y="0px" width="16px" height="16px" viewBox="0 0 16 16" enable-background="new 0 0 16 16" xml:space="preserve">
  <g id="icon">
    <path d="M10.246,13.019c-0.197,0,-0.384,-0.079,-0.527,-0.222c-0.166,-0.168,-0.241,-0.355,-0.241,-0.606c0,-0.075,0.032,-0.663,0.078,-1.432c0.079,-1.332,0.078,-1.333,0.034,-1.377c-0.005,-0.005,-0.006,-0.006,-0.308,-0.271l-0.508,-0.447l-0.965,-0.849l-0.017,0.3c-0.002,0.055,0.007,0.33,0.017,0.561c0.017,0.395,0.017,0.471,0.001,0.545c-0.037,0.164,-0.147,0.343,-0.268,0.433c-0.047,0.033,-0.56,0.311,-1.417,0.763c-1.226,0.644,-1.447,0.76,-1.591,0.76c-0.023,0,-0.045,-0.002,-0.071,-0.004c-0.423,-0.033,-0.731,-0.377,-0.732,-0.818c0,-0.237,0.134,-0.515,0.312,-0.645c0.044,-0.031,0.494,-0.275,1.095,-0.59c1.047,-0.551,1.056,-0.56,1.07,-0.574c0.042,-0.042,0.045,-0.045,-0.004,-1.197c-0.046,-1.089,-0.046,-1.091,-0.021,-1.207c0.075,-0.335,0.265,-0.637,0.508,-0.807c0.043,-0.03,0.505,-0.309,1.103,-0.662c1.046,-0.62,1.046,-0.624,1.054,-0.691l0.006,-0.052l-0.042,-0.042l-0.005,-0.004c-0.01,-0.008,-0.032,-0.025,-0.617,-0.239c-0.611,-0.226,-0.663,-0.251,-0.746,-0.324c-0.089,-0.096,-1.345,-1.858,-1.411,-1.982c-0.062,-0.123,-0.079,-0.291,-0.045,-0.436c0.053,-0.224,0.217,-0.4,0.428,-0.458c0.04,-0.011,0.084,-0.016,0.13,-0.016c0.156,0,0.317,0.064,0.42,0.168c0.035,0.037,0.308,0.411,0.688,0.948l0.65,0.92l1.298,0.435l0.652,0.218c0.504,0.168,0.604,0.202,0.63,0.21l-0.002,-0.001c0.256,0.084,0.559,0.335,0.596,0.37l-0.002,-0.004c0.025,0.027,0.069,0.067,0.143,0.135c0.089,0.081,0.218,0.198,0.377,0.342c0.318,0.288,0.757,0.684,1.24,1.118c1.039,0.936,1.743,1.575,1.798,1.652c0.074,0.115,0.099,0.204,0.099,0.364c0,0.162,-0.022,0.237,-0.108,0.366c-0.106,0.161,-0.284,0.256,-0.476,0.256l0,0c-0.114,0,-0.224,-0.034,-0.319,-0.098c-0.04,-0.03,-0.492,-0.431,-1.274,-1.137l-1.271,-1.148l-0.142,0.079c-0.022,0.013,-0.184,0.105,-0.407,0.232c-0.199,0.113,-0.454,0.259,-0.725,0.413c-0.278,0.158,-0.544,0.31,-0.749,0.429c-0.365,0.211,-0.365,0.211,-0.365,0.278c0,0.06,0,0.06,0.842,0.789c0.525,0.458,0.83,0.73,0.859,0.762c0.122,0.133,0.21,0.366,0.21,0.555c0,0.054,-0.044,0.8,-0.101,1.681c-0.108,1.679,-0.11,1.682,-0.201,1.856c-0.055,0.105,-0.216,0.264,-0.319,0.319C10.479,12.991,10.364,13.019,10.246,13.019z" fill="#FFFFFF"/>
    <path d="M10.246,13.446c-0.311,0,-0.605,-0.124,-0.829,-0.348c-0.246,-0.249,-0.366,-0.546,-0.366,-0.908c0,-0.131,0.065,-1.237,0.078,-1.457c0.034,-0.572,0.056,-0.95,0.062,-1.133l-0.952,-0.837c0.013,0.317,0.013,0.427,-0.013,0.549c-0.06,0.27,-0.225,0.533,-0.431,0.686l-0.011,0.008c-0.1,0.07,-0.959,0.525,-1.462,0.79c-1.425,0.749,-1.541,0.81,-1.79,0.81c-0.03,0,-0.059,-0.002,-0.092,-0.004L4.43,11.6c-0.654,-0.051,-1.128,-0.574,-1.13,-1.243c0,-0.38,0.196,-0.778,0.487,-0.991c0.118,-0.082,1.043,-0.568,1.148,-0.624c0.439,-0.231,0.717,-0.378,0.873,-0.462c-0.004,-0.179,-0.017,-0.49,-0.035,-0.913c-0.048,-1.143,-0.048,-1.143,-0.012,-1.315c0.099,-0.441,0.353,-0.839,0.682,-1.068c0.073,-0.051,0.643,-0.392,1.13,-0.68c0.165,-0.098,0.316,-0.188,0.448,-0.266c-0.607,-0.224,-0.714,-0.267,-0.863,-0.399c-0.01,-0.009,-0.02,-0.018,-0.029,-0.028c-0.113,-0.122,-1.395,-1.922,-1.475,-2.072l-0.005,-0.01c-0.106,-0.212,-0.136,-0.483,-0.079,-0.725c0.09,-0.377,0.369,-0.673,0.73,-0.772C6.379,0.011,6.46,0,6.543,0c0.269,0,0.54,0.11,0.723,0.294l0.009,0.009c0.086,0.093,0.577,0.784,0.725,0.994l0.569,0.805l1.818,0.608c0.413,0.138,0.597,0.2,0.619,0.206c0.008,0.002,0.015,0.005,0.023,0.008c0.306,0.105,0.617,0.355,0.692,0.417c0.025,0.018,0.048,0.038,0.069,0.061c0.012,0.013,0.066,0.062,0.113,0.106c0.091,0.083,0.219,0.199,0.378,0.343c0.318,0.287,0.756,0.683,1.239,1.117c1.599,1.44,1.794,1.63,1.86,1.721l0.008,0.012c0.123,0.191,0.17,0.358,0.17,0.601c0,0.246,-0.047,0.404,-0.18,0.603c-0.185,0.28,-0.496,0.447,-0.832,0.447c-0.2,0,-0.394,-0.06,-0.559,-0.173l-0.013,-0.009c-0.094,-0.07,-1.024,-0.908,-1.306,-1.164l-1.042,-0.942c-0.067,0.038,-1.004,0.572,-1.004,0.572c-0.248,0.141,-0.487,0.277,-0.68,0.389c0.123,0.107,0.282,0.245,0.475,0.412c0.375,0.327,0.833,0.73,0.895,0.797c0.197,0.213,0.324,0.544,0.324,0.844c0,0.089,-0.061,1.072,-0.102,1.708c-0.114,1.769,-0.114,1.769,-0.248,2.026c-0.097,0.183,-0.315,0.402,-0.498,0.499C10.615,13.402,10.433,13.446,10.246,13.446zM7.808,7.387c0.104,0,0.204,0.038,0.282,0.106l1.474,1.295c0.313,0.275,0.313,0.275,0.329,0.291c0.181,0.179,0.181,0.179,0.09,1.704c-0.052,0.882,-0.077,1.361,-0.077,1.407c0,0.138,0.031,0.218,0.117,0.306c0.061,0.061,0.141,0.095,0.223,0.095c0.05,0,0.098,-0.012,0.144,-0.036c0.03,-0.018,0.119,-0.108,0.138,-0.14c0.044,-0.084,0.053,-0.153,0.152,-1.683c0.06,-0.937,0.099,-1.606,0.1,-1.658c0,-0.077,-0.048,-0.207,-0.097,-0.261c-0.021,-0.021,-0.267,-0.242,-0.826,-0.73c-0.988,-0.856,-0.988,-0.856,-0.988,-1.111c0,-0.313,0.157,-0.404,0.578,-0.648c0.206,-0.12,0.473,-0.273,0.753,-0.431l0.724,-0.413c0.204,-0.116,0.38,-0.216,0.4,-0.228l0.152,-0.085c0.064,-0.036,0.136,-0.055,0.209,-0.055c0.106,0,0.208,0.039,0.287,0.11l1.271,1.148c0.765,0.69,1.156,1.037,1.239,1.108c0.021,0.012,0.044,0.018,0.067,0.018c0.048,0,0.093,-0.024,0.12,-0.065c0.037,-0.056,0.037,-0.056,0.037,-0.13c0,-0.07,-0.004,-0.088,-0.016,-0.109c-0.17,-0.177,-1.306,-1.199,-1.739,-1.589c-0.484,-0.435,-0.923,-0.831,-1.241,-1.119c-0.16,-0.144,-0.289,-0.261,-0.378,-0.343c-0.062,-0.057,-0.102,-0.093,-0.131,-0.122c-0.005,-0.005,-0.011,-0.009,-0.016,-0.014c-0.051,-0.046,-0.289,-0.226,-0.436,-0.275c-0.04,-0.013,-0.151,-0.05,-0.63,-0.21l-1.951,-0.653c-0.087,-0.029,-0.161,-0.084,-0.213,-0.159l-0.65,-0.92c-0.381,-0.539,-0.595,-0.83,-0.65,-0.901c-0.024,-0.018,-0.068,-0.035,-0.108,-0.035c-0.01,0,-0.017,0.001,-0.019,0.002c-0.057,0.016,-0.106,0.072,-0.123,0.144c-0.011,0.046,-0.005,0.107,0.008,0.139c0.109,0.175,1.141,1.625,1.332,1.872c0.057,0.031,0.264,0.11,0.594,0.232c0.649,0.238,0.669,0.253,0.735,0.306c0.018,0.014,0.03,0.025,0.042,0.037l0.041,0.041c0.094,0.094,0.138,0.223,0.122,0.355l-0.007,0.052c-0.035,0.279,-0.035,0.279,-1.26,1.006c-0.621,0.367,-1.044,0.624,-1.081,0.648c-0.149,0.104,-0.281,0.32,-0.332,0.547c-0.011,0.054,-0.011,0.099,0.031,1.096c0.058,1.341,0.058,1.341,-0.122,1.519c-0.069,0.068,-0.069,0.068,-1.172,0.649c-0.562,0.295,-0.965,0.514,-1.05,0.563c-0.06,0.051,-0.129,0.189,-0.129,0.293c0.001,0.219,0.137,0.377,0.338,0.392c0,0,0.022,0.002,0.027,0.002c0.112,-0.033,0.628,-0.304,1.4,-0.709c0.803,-0.423,1.273,-0.678,1.372,-0.736c0.033,-0.031,0.084,-0.108,0.099,-0.176c0.006,-0.036,-0.004,-0.276,-0.011,-0.434c-0.005,-0.116,-0.02,-0.503,-0.017,-0.595l0.018,-0.309c0.009,-0.162,0.112,-0.307,0.262,-0.369C7.696,7.398,7.751,7.387,7.808,7.387z" fill="#238BCB"/>
    <circle cx="13.406" cy="1.937" r="1.34" fill="#FFFFFF"/>
    <path d="M13.406,3.705c-0.975,0,-1.768,-0.793,-1.768,-1.768S12.431,0.17,13.406,0.17s1.768,0.793,1.768,1.768S14.38,3.705,13.406,3.705zM13.406,1.025c-0.503,0,-0.913,0.41,-0.913,0.913s0.41,0.913,0.913,0.913s0.913,-0.41,0.913,-0.913S13.909,1.025,13.406,1.025z" fill="#238BCB"/>
    <path d="M0.593,11.645C4.689,13.543,9.314,14.489,14.48,15.4" fill="#FFFFFF" stroke="#383838" stroke-width="1.1" stroke-linecap="round" stroke-miterlimit="1" stroke-linejoin="round"/>
    <line x1="2.856" y1="12.571" x2="0.747" y2="13.806" fill="none" stroke="#383838" stroke-width="1.1" stroke-linecap="round" stroke-miterlimit="1" stroke-linejoin="round"/>
  </g>
</svg>
