<?xml version="1.0" encoding="UTF-8"?>
<!DOCTYPE svg PUBLIC "-//W3C//DTD SVG 1.1//EN" "http://www.w3.org/Graphics/SVG/1.1/DTD/svg11.dtd">
<svg version="1.1" id="Layer_1" xmlns="http://www.w3.org/2000/svg" xmlns:xlink="http://www.w3.org/1999/xlink" x="0px" y="0px" width="16px" height="16px" viewBox="0 0 16 16" enable-background="new 0 0 16 16" xml:space="preserve">
  <g id="icon">
    <path d="M0,15.5v0.5h8h8v-0.5v-0.5H8H0V15.5z" fill="#383838"/>
    <path d="M6.538,14c-0.074,0,-0.101,-0.001,-0.108,-0.002l-0.003,0c-0.001,-0.002,-0.003,-0.006,-0.004,-0.011c-0.007,-0.043,-0.14,-0.081,-0.254,-1.369l-0.132,-1.493l0.032,-0.149c0.028,-0.13,0.11,-0.355,0.417,-1.147c0.214,-0.553,0.422,-1.096,0.463,-1.212c0.046,-0.133,0.086,-0.237,0.097,-0.262l0.058,-0.14l-0.081,-0.341c-0.114,-0.469,-0.197,-0.854,-0.426,-2.172l-0.07,-0.403l-2.039,-0.695l-0.337,-0.115c-0.952,-0.324,-1.886,-0.641,-2.174,-0.739c-0.355,-0.12,-0.597,-0.21,-0.634,-0.228c-0.07,-0.038,-0.171,-0.134,-0.21,-0.2c-0.039,-0.063,-0.081,-0.216,-0.081,-0.289c0,-0.068,0.041,-0.223,0.076,-0.29c0.068,-0.125,0.228,-0.235,0.399,-0.273l0.029,-0.007c0.038,-0.009,0.051,-0.012,0.074,-0.012c0.155,0,0.645,0.131,2.469,0.617l0.373,0.099c1.419,0.378,2.701,0.719,2.744,0.729c0.029,0.007,0.062,0.016,0.101,0.016c0.097,0,0.158,-0.047,0.228,-0.102c0.251,-0.192,4.317,-3.06,4.544,-3.205c0.035,-0.017,0.105,-0.043,0.158,-0.056c0.055,-0.013,0.112,-0.021,0.168,-0.021c0.289,0,0.505,0.186,0.565,0.486c0.016,0.083,0.016,0.083,-0.001,0.165c-0.034,0.17,-0.122,0.306,-0.271,0.416c-0.082,0.061,-3.667,2.947,-3.723,2.998c-0.125,0.118,-0.125,0.118,0.177,1.032c0.157,0.473,0.298,0.856,0.335,0.98c0.081,0.268,0.199,0.708,0.217,0.795c0.006,0.147,0.121,0.21,0.243,0.277c0.141,0.078,0.419,0.219,0.973,0.501l0.082,0.042c0.594,0.302,1.056,0.547,1.114,0.586l0.024,0.016c0.164,0.109,0.164,0.109,0.829,1.373l0.075,0.142c0.641,1.216,0.702,1.338,0.726,1.445c0.024,0.102,0.024,0.102,0.014,0.153c-0.046,0.23,-0.227,0.307,-0.371,0.331c-0.031,0.005,-0.052,0.008,-0.064,0.008c-0.013,0,-0.036,-0.005,-0.088,-0.019c-0.116,-0.03,-0.22,-0.096,-0.288,-0.181c-0.029,-0.04,-0.288,-0.443,-0.78,-1.225l-0.766,-1.219l-0.442,-0.177c-0.497,-0.196,-0.912,-0.349,-1.141,-0.418c-0.197,-0.061,-0.223,-0.063,-0.513,-0.063c-0.181,0,-0.348,0.009,-0.447,0.025c-0.285,0.046,-0.675,0.202,-0.811,0.372c-0.13,0.161,-0.359,0.568,-0.699,1.243l-0.236,0.474l-0.034,1.494c0.016,1.38,-0.036,1.297,-0.076,1.4c-0.057,0.005,-0.092,0.009,-0.259,0.014C6.65,13.998,6.627,14,6.538,14z" fill="#92CBEE" stroke="#0964B0" stroke-width="0.9" stroke-miterlimit="1"/>
    <path d="M9.748,13.156c-0.414,0,-0.799,-0.188,-1.057,-0.515c-0.255,-0.324,-0.347,-0.737,-0.252,-1.133c0.061,-0.25,0.163,-0.44,0.332,-0.617c0.205,-0.215,0.441,-0.339,0.763,-0.401c0.053,-0.01,0.113,-0.015,0.179,-0.015c0.201,0,0.429,0.048,0.594,0.125c0.299,0.138,0.552,0.398,0.677,0.697c0.212,0.513,0.09,1.11,-0.304,1.484c-0.265,0.25,-0.569,0.373,-0.93,0.374H9.748z" fill="#92CBEE" stroke="#0964B0" stroke-width="0.9" stroke-miterlimit="1"/>
  </g>
</svg>
