<?xml version="1.0" encoding="UTF-8"?>
<!DOCTYPE svg PUBLIC "-//W3C//DTD SVG 1.1//EN" "http://www.w3.org/Graphics/SVG/1.1/DTD/svg11.dtd">
<svg version="1.1" id="Layer_1" xmlns="http://www.w3.org/2000/svg" xmlns:xlink="http://www.w3.org/1999/xlink" x="0px" y="0px" width="16px" height="16px" viewBox="0 0 16 16" enable-background="new 0 0 16 16" xml:space="preserve">
  <g id="icon">
    <path d="M9.48,15.7c-0.174,0,-0.312,-0.065,-0.397,-0.188c-0.04,-0.062,-0.205,-0.586,-0.259,-0.758c-0.186,-0.596,-0.239,-0.746,-0.317,-0.89c-0.046,-0.084,-0.126,-0.241,-0.178,-0.35c-0.106,-0.224,-0.12,-0.252,-0.213,-0.252c-0.093,0,-0.104,0.024,-0.213,0.251c-0.05,0.105,-0.13,0.262,-0.178,0.35c-0.078,0.145,-0.131,0.294,-0.317,0.89c-0.054,0.172,-0.219,0.696,-0.259,0.758c-0.085,0.123,-0.223,0.187,-0.397,0.187c-0.015,0,-0.031,-0.001,-0.047,-0.002c-0.242,-0.016,-0.398,-0.137,-0.398,-0.309c0.003,-0.078,0.206,-1.451,0.228,-1.541c0.005,-0.014,0.017,-0.037,0.028,-0.054l0.004,-0.006c0.019,-0.037,0.064,-0.168,0.094,-0.269c0.077,-0.25,0.198,-0.544,0.329,-0.803l0.108,-0.216l-0.031,-0.224c-0.011,-0.082,-0.037,-0.263,-0.063,-0.447l-0.025,-0.177c-0.034,-0.226,-0.073,-0.495,-0.084,-0.587l-0.027,-0.198l-0.154,-0.119c-0.178,-0.135,-0.853,-0.814,-0.99,-0.995c-0.059,-0.08,-0.713,-1.262,-0.793,-1.432c0.002,-0.004,0.005,-0.008,0.008,-0.011c0.052,-0.005,0.204,-0.01,0.436,-0.01c0.207,0,0.405,0.008,0.405,0.008l0.395,0.556c0,0,0.374,0.552,0.395,0.589l0,-0.001c0.058,0.094,0.91,0.691,0.949,0.715l0.203,0.128l0.264,0.008c0.04,0.001,0.084,0.002,0.128,0.002c0.104,0,0.199,-0.004,0.254,-0.01c0.137,-0.015,0.187,-0.032,0.299,-0.099c0.18,-0.108,0.952,-0.654,1.001,-0.753c0.013,-0.024,0.158,-0.241,0.398,-0.594c0.105,-0.155,0.316,-0.464,0.386,-0.542c0.059,-0.004,0.201,-0.009,0.413,-0.009c0.231,0,0.38,0.006,0.427,0.01c0.003,0.003,0.007,0.008,0.009,0.012c-0.08,0.171,-0.733,1.353,-0.793,1.432c-0.141,0.188,-0.81,0.858,-1.008,1.01l-0.173,0.132L9.3,11.109c-0.01,0.09,-0.053,0.369,-0.101,0.65l-0.03,0.178c-0.084,0.491,-0.087,0.511,0.019,0.716c0.01,0.019,0.021,0.041,0.033,0.065c0.179,0.357,0.277,0.585,0.35,0.815c0.068,0.217,0.088,0.246,0.097,0.257c0.003,0.004,0.008,0.015,0.021,0.042c0.026,0.095,0.234,1.472,0.235,1.559c0,0.171,-0.156,0.293,-0.398,0.309C9.511,15.699,9.495,15.7,9.48,15.7zM6.533,13.853M8.124,9.33c-0.166,0,-0.33,-0.03,-0.487,-0.09c-0.406,-0.155,-0.62,-0.516,-0.507,-0.857c0.047,-0.144,0.117,-0.241,0.253,-0.345c0.133,-0.104,0.292,-0.175,0.473,-0.213c0.082,-0.017,0.167,-0.025,0.253,-0.025c0.215,0,0.427,0.053,0.613,0.152c0.119,0.064,0.176,0.111,0.264,0.219c0.237,0.289,0.18,0.678,-0.136,0.923C8.654,9.246,8.396,9.33,8.124,9.33L8.124,9.33z" fill="#FFFFFF"/>
    <path d="M9.48,16c-0.273,0,-0.502,-0.112,-0.643,-0.316c-0.041,-0.063,-0.084,-0.155,-0.298,-0.836c-0.178,-0.571,-0.23,-0.719,-0.296,-0.841c-0.033,-0.06,-0.082,-0.155,-0.128,-0.246c-0.044,0.088,-0.093,0.183,-0.128,0.247c-0.065,0.12,-0.117,0.269,-0.294,0.835c-0.231,0.737,-0.264,0.786,-0.295,0.834c-0.158,0.227,-0.411,0.34,-0.714,0.32c-0.399,-0.026,-0.678,-0.277,-0.678,-0.608c0,-0.004,0,-0.007,0,-0.011c0.004,-0.118,0.215,-1.516,0.236,-1.602c0.003,-0.012,0.007,-0.024,0.011,-0.035c0.011,-0.029,0.028,-0.064,0.046,-0.095c0.013,-0.031,0.044,-0.121,0.072,-0.214c0.083,-0.269,0.21,-0.579,0.349,-0.853l0.066,-0.131l-0.018,-0.132c-0.01,-0.077,-0.034,-0.24,-0.058,-0.41l-0.03,-0.212c-0.034,-0.225,-0.073,-0.496,-0.085,-0.593l-0.01,-0.072l-0.056,-0.043c-0.198,-0.15,-0.894,-0.849,-1.047,-1.053c-0.086,-0.115,-0.759,-1.344,-0.825,-1.486c-0.042,-0.09,-0.037,-0.195,0.014,-0.281c0.011,-0.018,0.026,-0.039,0.042,-0.057c0.051,-0.057,0.122,-0.093,0.198,-0.1c0.078,-0.007,0.255,-0.011,0.462,-0.011c0.211,0,0.409,0.008,0.418,0.008c0.093,0.004,0.179,0.05,0.232,0.126l0.395,0.556c0.263,0.388,0.356,0.528,0.391,0.582c0.119,0.114,0.775,0.58,0.871,0.644l0.13,0.082l0.183,0.006c0.038,0.001,0.078,0.002,0.118,0.002c0.11,0,0.187,-0.004,0.219,-0.008c0.099,-0.011,0.107,-0.015,0.179,-0.058c0.187,-0.113,0.794,-0.55,0.907,-0.664c0.067,-0.106,0.318,-0.476,0.399,-0.595c0.196,-0.287,0.341,-0.495,0.41,-0.573c0.052,-0.058,0.124,-0.094,0.202,-0.1c0.064,-0.005,0.212,-0.01,0.435,-0.01c0.205,0,0.384,0.005,0.456,0.012c0.072,0.007,0.139,0.04,0.188,0.092c0.019,0.02,0.037,0.044,0.051,0.069c0.049,0.085,0.054,0.189,0.012,0.277c-0.066,0.141,-0.739,1.37,-0.824,1.484c-0.159,0.211,-0.846,0.899,-1.066,1.068l-0.073,0.056l-0.011,0.088c-0.012,0.106,-0.061,0.415,-0.103,0.663l-0.03,0.178c-0.07,0.411,-0.07,0.411,-0.01,0.527l0.035,0.069c0.187,0.372,0.29,0.613,0.368,0.858c0.037,0.12,0.056,0.168,0.063,0.186c0.001,0.002,0.003,0.005,0.004,0.007c0.004,0.007,0.014,0.024,0.035,0.068c0.008,0.016,0.014,0.033,0.019,0.05c0.026,0.094,0.244,1.506,0.246,1.634c0,0.334,-0.279,0.584,-0.678,0.611C9.524,15.999,9.501,16,9.48,16zM9.339,15.356c0.014,0.016,0.05,0.044,0.14,0.044c0.009,0,0.018,0,0.027,-0.001c0.06,-0.004,0.097,-0.017,0.115,-0.027c-0.025,-0.216,-0.177,-1.222,-0.217,-1.437c-0.031,-0.052,-0.063,-0.133,-0.12,-0.313c-0.067,-0.212,-0.161,-0.428,-0.332,-0.77l-0.032,-0.062c-0.153,-0.294,-0.135,-0.399,-0.048,-0.904l0.03,-0.178c0.051,-0.302,0.09,-0.559,0.098,-0.633l0.027,-0.217c0.01,-0.08,0.052,-0.153,0.116,-0.202l0.173,-0.132c0.176,-0.135,0.824,-0.784,0.95,-0.951c0.045,-0.067,0.335,-0.588,0.546,-0.974c-0.086,0,-0.156,0.001,-0.21,0.003c-0.063,0.087,-0.16,0.226,-0.29,0.417c-0.256,0.375,-0.373,0.553,-0.387,0.576l0,0c-0.153,0.243,-1.095,0.853,-1.104,0.859c-0.15,0.09,-0.241,0.12,-0.421,0.14c-0.065,0.008,-0.17,0.012,-0.287,0.012c-0.047,0,-0.095,-0.001,-0.138,-0.002l-0.264,-0.008c-0.053,-0.002,-0.105,-0.018,-0.15,-0.046l-0.203,-0.128c-0.009,-0.006,-0.74,-0.5,-0.98,-0.737c-0.028,-0.023,-0.052,-0.052,-0.071,-0.086c-0.019,-0.03,-0.209,-0.314,-0.381,-0.566l-0.305,-0.429c-0.059,-0.001,-0.13,-0.003,-0.203,-0.003c0.211,0.386,0.502,0.908,0.55,0.98c0.116,0.154,0.769,0.81,0.927,0.93l0.156,0.12c0.063,0.048,0.104,0.119,0.114,0.198l0.027,0.198c0.012,0.094,0.051,0.367,0.084,0.582l0.031,0.214c0.025,0.172,0.048,0.336,0.058,0.414l0.031,0.223c0.008,0.06,-0.002,0.121,-0.029,0.176l-0.108,0.216c-0.125,0.246,-0.238,0.522,-0.311,0.757c-0.011,0.037,-0.073,0.239,-0.115,0.32c-0.002,0.004,-0.004,0.007,-0.006,0.011c-0.001,0.002,-0.003,0.004,-0.004,0.007c-0.035,0.197,-0.184,1.203,-0.211,1.426c0.018,0.01,0.055,0.023,0.114,0.027C6.732,15.4,6.742,15.4,6.75,15.4c0.087,0,0.124,-0.027,0.141,-0.046c0.019,-0.046,0.075,-0.197,0.229,-0.689c0.182,-0.585,0.245,-0.769,0.339,-0.943c0.047,-0.085,0.125,-0.238,0.171,-0.336c0.118,-0.246,0.203,-0.423,0.484,-0.423c0.283,0,0.372,0.187,0.484,0.424c0.05,0.103,0.126,0.254,0.17,0.333c0.095,0.176,0.158,0.359,0.34,0.945C9.266,15.163,9.321,15.311,9.339,15.356zM9.898,13.597C9.898,13.597,9.898,13.597,9.898,13.597C9.898,13.597,9.898,13.597,9.898,13.597zM9.397,9.312C9.397,9.312,9.397,9.312,9.397,9.312C9.397,9.312,9.397,9.312,9.397,9.312zM6.825,9.296C6.825,9.296,6.825,9.297,6.825,9.296C6.825,9.297,6.825,9.296,6.825,9.296zM9.425,9.269L9.425,9.269C9.425,9.269,9.425,9.269,9.425,9.269zM8.124,9.63L8.124,9.63c-0.203,0,-0.403,-0.037,-0.594,-0.11c-0.562,-0.215,-0.85,-0.733,-0.686,-1.231c0.065,-0.201,0.171,-0.347,0.354,-0.489c0.168,-0.131,0.369,-0.222,0.596,-0.269c0.357,-0.073,0.746,-0.016,1.068,0.156c0.155,0.084,0.24,0.154,0.354,0.292c0.162,0.198,0.236,0.44,0.209,0.682c-0.029,0.257,-0.168,0.495,-0.392,0.669C8.785,9.524,8.462,9.63,8.124,9.63zM8.108,8.1c-0.065,0,-0.13,0.006,-0.192,0.019c-0.135,0.028,-0.253,0.08,-0.349,0.155c-0.099,0.076,-0.127,0.125,-0.152,0.201c-0.061,0.185,0.078,0.388,0.329,0.484c0.317,0.121,0.687,0.079,0.921,-0.102c0.095,-0.074,0.154,-0.167,0.164,-0.262c0.009,-0.081,-0.017,-0.162,-0.076,-0.234c-0.064,-0.077,-0.09,-0.099,-0.175,-0.145C8.437,8.14,8.274,8.1,8.108,8.1z" fill="#228BCB"/>
    <path d="M4.837,7.79c-0.073,0,-0.144,-0.02,-0.206,-0.059l-2,-1.25c-0.088,-0.055,-0.15,-0.142,-0.173,-0.243s-0.006,-0.206,0.049,-0.294c0.072,-0.115,0.195,-0.183,0.331,-0.183c0.073,0,0.144,0.02,0.206,0.059l2,1.25c0.182,0.114,0.238,0.355,0.124,0.537C5.096,7.721,4.972,7.79,4.837,7.79zM10.837,7.69c-0.149,0,-0.287,-0.087,-0.352,-0.222c-0.093,-0.194,-0.011,-0.427,0.183,-0.52l2.4,-1.15c0.053,-0.025,0.11,-0.038,0.168,-0.038c0.149,0,0.287,0.087,0.352,0.222c0.045,0.094,0.051,0.2,0.016,0.298c-0.035,0.098,-0.105,0.177,-0.199,0.222l-2.4,1.15C10.952,7.677,10.896,7.69,10.837,7.69zM9.987,7.49c-0.09,0,-0.178,-0.031,-0.248,-0.089c-0.081,-0.066,-0.13,-0.16,-0.141,-0.263c-0.01,-0.104,0.021,-0.205,0.087,-0.286l1.85,-2.25c0.074,-0.09,0.184,-0.142,0.301,-0.142c0.09,0,0.178,0.031,0.248,0.089c0.166,0.137,0.19,0.383,0.054,0.549l-1.85,2.25C10.214,7.438,10.104,7.49,9.987,7.49zM5.737,7.49c-0.136,0,-0.261,-0.069,-0.332,-0.185l-1.45,-2.35c-0.113,-0.183,-0.056,-0.424,0.127,-0.537c0.062,-0.038,0.132,-0.058,0.205,-0.058c0.136,0,0.261,0.069,0.332,0.185l1.45,2.35c0.055,0.089,0.072,0.193,0.048,0.295s-0.086,0.187,-0.175,0.242C5.88,7.47,5.809,7.49,5.737,7.49zM9.187,7.39c-0.021,0,-0.042,-0.002,-0.063,-0.005c-0.212,-0.034,-0.357,-0.235,-0.323,-0.447l0.5,-3.1c0.031,-0.19,0.192,-0.328,0.385,-0.328c0.021,0,0.041,0.002,0.062,0.005c0.103,0.017,0.193,0.072,0.254,0.157s0.085,0.188,0.069,0.29l-0.5,3.1C9.541,7.252,9.379,7.39,9.187,7.39zM6.587,7.39c-0.201,0,-0.368,-0.151,-0.388,-0.352l-0.3,-3.05c-0.021,-0.214,0.136,-0.405,0.35,-0.426c0.013,-0.001,0.025,-0.002,0.038,-0.002c0.202,0,0.369,0.151,0.389,0.352l0.3,3.05c0.01,0.104,-0.021,0.205,-0.087,0.286c-0.066,0.08,-0.16,0.13,-0.263,0.141C6.612,7.389,6.599,7.39,6.587,7.39z" fill="#383838"/>
    <path d="M13.286,6.2l0.209,-0.09c0.696,-0.242,1.12,-0.761,1.233,-1.507c0.089,-0.597,-0.091,-1.196,-0.491,-1.637c-0.165,-0.182,-0.433,-0.369,-0.674,-0.472c-0.149,-0.064,-0.407,-0.133,-0.552,-0.146l-0.105,-0.01l-0.067,-0.12c-0.306,-0.542,-0.868,-0.971,-1.491,-1.136c-0.469,-0.123,-0.82,-0.132,-1.243,-0.026L9.918,1.1l-0.076,-0.078c-0.368,-0.373,-0.977,-0.597,-1.688,-0.619c-0.113,-0.004,-0.237,-0.004,-0.278,-0.001c-0.659,0.051,-1.208,0.264,-1.555,0.602c-0.091,0.089,-0.107,0.1,-0.138,0.089c-0.095,-0.037,-0.343,-0.086,-0.504,-0.101c-0.514,-0.05,-1.155,0.116,-1.603,0.416c-0.327,0.217,-0.593,0.498,-0.769,0.81l-0.067,0.12l-0.105,0.01c-0.059,0.004,-0.177,0.028,-0.267,0.051c-0.986,0.255,-1.602,1.192,-1.45,2.204c0.113,0.745,0.537,1.265,1.233,1.507L2.8,6.161l0.036,-0.011c0.004,-0.057,0.332,-0.562,0.408,-0.663c0.157,-0.208,0.868,-0.673,1.042,-0.687L4.5,4.463c0.139,-0.215,0.448,-0.403,0.826,-0.499c0.152,-0.04,0.395,-0.072,0.539,-0.072l0.421,0.057h0.05l0.267,-0.205c0.051,-0.053,0.23,-0.145,0.373,-0.193c0.505,-0.168,1.649,-0.168,2.18,-0.003c0.151,0.048,0.332,0.139,0.387,0.196l0.243,0.205h0.05l0.445,-0.057c0.144,0,0.387,0.032,0.539,0.072c0.378,0.097,0.687,0.284,0.826,0.499l0.19,0.386l0.05,0.05l0.343,0.037c0.307,0.013,0.566,0.392,0.723,0.6c0.076,0.101,0.28,0.556,0.285,0.613L13.286,6.2z" fill="#FFFFFF"/>
    <path d="M13.287,6.59c-0.104,0,-0.202,-0.041,-0.276,-0.114l-0.05,-0.05c-0.054,-0.054,-0.09,-0.121,-0.106,-0.196c-0.031,-0.091,-0.181,-0.412,-0.216,-0.461l-0.036,-0.048c-0.241,-0.323,-0.346,-0.394,-0.391,-0.396c-0.008,0,-0.016,-0.001,-0.024,-0.002l-0.343,-0.037c-0.088,-0.01,-0.172,-0.049,-0.234,-0.112l-0.05,-0.05c-0.03,-0.03,-0.055,-0.065,-0.074,-0.103l-0.178,-0.361c-0.078,-0.105,-0.286,-0.242,-0.585,-0.319c-0.111,-0.029,-0.304,-0.056,-0.42,-0.059l-0.417,0.054c-0.017,0.002,-0.033,0.003,-0.05,0.003h-0.05c-0.092,0,-0.181,-0.033,-0.252,-0.092l-0.243,-0.205c-0.006,-0.005,-0.012,-0.01,-0.018,-0.016c-0.026,-0.018,-0.127,-0.072,-0.236,-0.107c-0.209,-0.065,-0.574,-0.104,-0.975,-0.104c-0.405,0,-0.765,0.039,-0.963,0.106c-0.098,0.033,-0.203,0.089,-0.231,0.108c-0.009,0.008,-0.018,0.016,-0.028,0.024l-0.266,0.205c-0.068,0.052,-0.152,0.081,-0.238,0.081h-0.05c-0.018,0,-0.035,-0.001,-0.053,-0.004l-0.393,-0.053c-0.116,0.004,-0.308,0.03,-0.417,0.059c-0.315,0.081,-0.527,0.226,-0.596,0.334l-0.212,0.334c-0.061,0.096,-0.16,0.16,-0.273,0.177c-0.135,0.042,-0.693,0.411,-0.787,0.535c-0.067,0.09,-0.299,0.452,-0.348,0.549c-0.039,0.122,-0.135,0.217,-0.259,0.254l-0.036,0.011c-0.037,0.011,-0.074,0.016,-0.112,0.016c-0.043,0,-0.086,-0.007,-0.127,-0.021l-0.149,-0.051c-0.841,-0.292,-1.356,-0.92,-1.492,-1.817c-0.181,-1.202,0.566,-2.337,1.738,-2.64c0.059,-0.016,0.147,-0.035,0.229,-0.049c0.209,-0.348,0.505,-0.653,0.862,-0.89c0.458,-0.307,1.067,-0.49,1.629,-0.49c0.078,0,0.154,0.004,0.228,0.011c0.111,0.01,0.263,0.035,0.392,0.064c0.412,-0.368,1.025,-0.6,1.737,-0.655c0.029,-0.002,0.076,-0.003,0.13,-0.003c0.06,0,0.13,0.001,0.194,0.004c0.765,0.024,1.425,0.256,1.869,0.657c0.217,-0.052,0.422,-0.078,0.626,-0.078c0.244,0,0.494,0.036,0.785,0.112c0.705,0.188,1.336,0.659,1.7,1.269c0.18,0.03,0.413,0.096,0.571,0.164c0.289,0.123,0.606,0.346,0.807,0.567c0.481,0.53,0.695,1.243,0.588,1.958c-0.135,0.894,-0.647,1.521,-1.481,1.814l-0.192,0.083C13.392,6.579,13.34,6.59,13.287,6.59zM12.264,4.548c0.457,0.026,0.763,0.436,0.965,0.708l0.035,0.046c0.051,0.068,0.14,0.239,0.213,0.397c0.49,-0.207,0.782,-0.595,0.866,-1.155c0.072,-0.481,-0.072,-0.962,-0.394,-1.317c-0.127,-0.14,-0.349,-0.294,-0.538,-0.375c-0.113,-0.049,-0.331,-0.107,-0.434,-0.117l-0.108,-0.01c-0.127,-0.012,-0.24,-0.086,-0.302,-0.197l-0.067,-0.12c-0.253,-0.448,-0.733,-0.813,-1.251,-0.95c-0.223,-0.058,-0.409,-0.086,-0.584,-0.086c-0.15,0,-0.297,0.019,-0.464,0.061l-0.19,0.046c-0.03,0.007,-0.061,0.011,-0.092,0.011c-0.104,0,-0.206,-0.043,-0.278,-0.117l-0.076,-0.078c-0.296,-0.301,-0.814,-0.484,-1.422,-0.503c-0.064,-0.002,-0.124,-0.003,-0.17,-0.003c-0.034,0,-0.058,0,-0.068,0.001c-0.565,0.044,-1.03,0.219,-1.311,0.492c-0.082,0.081,-0.207,0.204,-0.392,0.204c-0.047,0,-0.094,-0.008,-0.142,-0.024l-0.017,-0.006c-0.045,-0.017,-0.25,-0.063,-0.399,-0.076c-0.05,-0.005,-0.101,-0.007,-0.154,-0.007c-0.402,0,-0.872,0.141,-1.197,0.359c-0.277,0.184,-0.5,0.418,-0.646,0.677l-0.067,0.119c-0.062,0.111,-0.175,0.185,-0.302,0.197l-0.105,0.01c-0.031,0.002,-0.123,0.019,-0.205,0.04c-0.797,0.206,-1.286,0.95,-1.163,1.769c0.083,0.55,0.366,0.935,0.84,1.143c0.132,-0.217,0.288,-0.434,0.29,-0.436c0.152,-0.202,0.728,-0.623,1.098,-0.778l0.14,-0.219c0.196,-0.303,0.581,-0.546,1.058,-0.668c0.184,-0.048,0.458,-0.084,0.636,-0.084c0.018,0,0.035,0.001,0.053,0.004l0.302,0.041l0.131,-0.101c0.138,-0.122,0.387,-0.227,0.501,-0.265c0.28,-0.093,0.722,-0.147,1.213,-0.147c0.48,0,0.92,0.051,1.208,0.141c0.038,0.012,0.368,0.121,0.537,0.283l0.104,0.088l0.318,-0.041c0.017,-0.002,0.033,-0.003,0.05,-0.003c0.178,0,0.452,0.036,0.637,0.084c0.476,0.122,0.861,0.364,1.056,0.665c0.008,0.013,0.016,0.026,0.023,0.04l0.118,0.24L12.264,4.548z" fill="#383838"/>
  </g>
</svg>
