<?xml version="1.0" encoding="UTF-8"?>
<!DOCTYPE svg PUBLIC "-//W3C//DTD SVG 1.1//EN" "http://www.w3.org/Graphics/SVG/1.1/DTD/svg11.dtd">
<svg version="1.1" id="Layer_1" xmlns="http://www.w3.org/2000/svg" xmlns:xlink="http://www.w3.org/1999/xlink" x="0px" y="0px" width="16px" height="16px" viewBox="0 0 16 16" enable-background="new 0 0 16 16" xml:space="preserve">
  <g id="icon">
    <path d="M6.5,11.789v0.82l0.111,0.025c0.028,0.013,0.101,0.044,0.163,0.066c0.061,0.022,0.128,0.049,0.15,0.059l0.075,0.019v1.524V16h0.416H8v-2.6v-2.097c0,-0.167,-0.136,-0.303,-0.303,-0.303H7.2h-0.397c-0.167,0,-0.303,0.136,-0.303,0.303V11.789z" fill="#383838"/>
    <path d="M12.953,11.6c-0.091,0,-0.179,-0.011,-0.241,-0.03c-0.026,-0.009,-0.248,-0.111,-1.94,-1.003l-1.869,-0.986l-0.197,-0.016l-0.951,-0.071c-0.443,-0.033,-0.963,-0.076,-1.184,-0.097c-0.259,-0.024,-0.534,-0.04,-0.718,-0.041c-0.214,-0.001,-0.307,-0.008,-0.382,-0.026c-0.468,-0.112,-0.774,-0.381,-0.886,-0.779c-0.04,-0.14,-0.039,-0.377,0.002,-0.528c0.036,-0.135,0.115,-0.304,0.208,-0.441c0.153,-0.223,0.284,-0.336,1.172,-1.005c0.871,-0.654,0.871,-0.654,0.841,-0.743c-0.014,-0.042,-0.053,-0.07,-0.099,-0.07c-0.013,0,-0.047,0,-1.651,0.302c-0.939,0.177,-1.63,0.301,-1.687,0.306c-0.017,0.001,-0.034,0.002,-0.051,0.002c-0.175,0,-0.35,-0.071,-0.467,-0.191c-0.231,-0.235,-0.243,-0.629,-0.026,-0.878c0.07,-0.08,0.215,-0.171,0.33,-0.206c0.046,-0.014,0.657,-0.167,1.564,-0.388c1.489,-0.366,1.513,-0.379,1.531,-0.388c0.088,-0.045,0.239,-0.06,1.468,-0.14c0.914,-0.059,1.304,-0.083,1.48,-0.083c0.087,0,0.118,0.006,0.146,0.013c0.046,0.011,0.118,0.023,0.165,0.025c0.306,0.011,0.56,0.288,0.679,0.741c0.036,0.141,0.04,0.179,0.04,0.342c0.001,0.154,-0.006,0.207,-0.029,0.296c-0.066,0.249,-0.21,0.482,-0.44,0.713c-0.168,0.169,-0.311,0.284,-0.768,0.617c-0.879,0.639,-0.881,0.695,-0.883,0.745l-0.002,0.047l0.039,0.036l0.003,0.002c0.022,0.016,0.034,0.025,0.699,0.124l0.627,0.095l0.138,0.07c0.185,0.097,3.557,2.071,3.68,2.155c0.045,0.031,0.12,0.096,0.164,0.143c0.252,0.272,0.307,0.62,0.148,0.93c-0.097,0.186,-0.24,0.313,-0.425,0.379C13.126,11.589,13.042,11.6,12.953,11.6zM11.453,3.677c-0.123,0,-0.245,-0.015,-0.364,-0.044c-0.567,-0.14,-1.006,-0.574,-1.147,-1.132c-0.071,-0.282,-0.069,-0.543,0.005,-0.822c0.153,-0.578,0.641,-1.022,1.244,-1.132c0.078,-0.014,0.16,-0.021,0.246,-0.021c0.285,0,0.588,0.081,0.811,0.217c0.286,0.173,0.471,0.376,0.617,0.681c0.205,0.429,0.202,0.957,-0.008,1.378C12.593,3.333,12.042,3.677,11.453,3.677C11.453,3.677,11.453,3.677,11.453,3.677z" fill="#FFFFFF"/>
    <path d="M12.953,12.03c-0.136,0,-0.268,-0.018,-0.372,-0.05l-0.012,-0.004c-0.045,-0.016,-0.152,-0.054,-2.001,-1.029l-1.79,-0.944l-0.108,-0.009l-0.948,-0.071c-0.445,-0.033,-0.969,-0.077,-1.193,-0.098c-0.247,-0.023,-0.507,-0.038,-0.679,-0.039c-0.257,-0.002,-0.37,-0.011,-0.484,-0.039c-0.618,-0.148,-1.045,-0.532,-1.199,-1.081c-0.06,-0.212,-0.06,-0.529,0.001,-0.754c0.047,-0.178,0.147,-0.391,0.266,-0.569c0.178,-0.259,0.337,-0.401,1.012,-0.913c-0.095,0.018,-0.198,0.037,-0.307,0.058c-0.065,0.012,-1.592,0.3,-1.73,0.312c-0.033,0.003,-0.061,0.004,-0.089,0.004c-0.29,0,-0.581,-0.12,-0.779,-0.321c-0.384,-0.392,-0.404,-1.046,-0.044,-1.459c0.123,-0.142,0.336,-0.277,0.531,-0.336c0.085,-0.027,1.076,-0.27,1.588,-0.394c1.054,-0.259,1.382,-0.343,1.464,-0.366c0.163,-0.076,0.34,-0.09,1.61,-0.173c0.924,-0.06,1.319,-0.084,1.508,-0.084c0.124,0,0.189,0.01,0.253,0.026c0.021,0.005,0.064,0.011,0.076,0.012c0.506,0.019,0.911,0.416,1.081,1.062c0.045,0.178,0.054,0.254,0.054,0.451c0.002,0.179,-0.008,0.269,-0.042,0.403c-0.086,0.326,-0.267,0.623,-0.552,0.908c-0.187,0.188,-0.34,0.312,-0.819,0.661c-0.096,0.07,-0.184,0.134,-0.263,0.194l0.625,0.095l0.2,0.102c0.19,0.1,3.602,2.098,3.727,2.183c0.072,0.049,0.172,0.135,0.237,0.206c0.375,0.405,0.457,0.948,0.216,1.417c-0.147,0.283,-0.377,0.486,-0.666,0.588C13.196,12.021,13.052,12.03,12.953,12.03zM12.856,11.163c0.019,0.003,0.053,0.008,0.097,0.008c0.048,0,0.081,-0.005,0.089,-0.007c0.071,-0.025,0.13,-0.08,0.176,-0.168c0.097,-0.188,0.009,-0.344,-0.082,-0.442c-0.025,-0.026,-0.076,-0.069,-0.09,-0.079c-0.153,-0.101,-3.453,-2.032,-3.637,-2.129l-0.07,-0.035l-0.558,-0.085c-0.73,-0.108,-0.774,-0.115,-0.896,-0.207l-0.028,-0.022l-0.195,-0.178l0.011,-0.247c0.012,-0.276,0.131,-0.396,1.06,-1.072c0.433,-0.315,0.567,-0.422,0.715,-0.571c0.176,-0.176,0.284,-0.346,0.33,-0.52c0.012,-0.045,0.016,-0.061,0.015,-0.183c0,-0.134,-0.001,-0.138,-0.027,-0.242c-0.07,-0.265,-0.193,-0.413,-0.274,-0.416c-0.085,-0.003,-0.187,-0.022,-0.249,-0.036c-0.008,-0.001,-0.021,-0.001,-0.046,-0.001c-0.162,0,-0.587,0.026,-1.451,0.082c-0.588,0.038,-1.197,0.078,-1.314,0.102c-0.067,0.032,-0.211,0.071,-1.608,0.415c-0.995,0.243,-1.503,0.37,-1.543,0.382c-0.041,0.013,-0.111,0.059,-0.128,0.077c-0.069,0.079,-0.065,0.22,0.01,0.296c0.036,0.037,0.098,0.061,0.156,0.061c0.003,0,0.006,0,0.01,0c0.084,-0.012,0.645,-0.111,1.647,-0.3c1.645,-0.309,1.672,-0.309,1.733,-0.309c0.233,0,0.438,0.146,0.511,0.363c0.113,0.335,-0.118,0.54,-0.205,0.617c-0.118,0.105,-0.327,0.262,-0.785,0.606c-0.867,0.654,-0.965,0.743,-1.076,0.904c-0.064,0.095,-0.123,0.22,-0.147,0.309c-0.022,0.082,-0.021,0.242,-0.004,0.302c0.069,0.247,0.256,0.403,0.57,0.478c0.046,0.011,0.168,0.014,0.283,0.014c0.196,0.002,0.485,0.018,0.755,0.043c0.219,0.021,0.736,0.064,1.176,0.097l1.24,0.095l1.949,1.028C12.436,10.957,12.78,11.126,12.856,11.163zM11.453,4.107c-0.158,0,-0.317,-0.019,-0.47,-0.057c-0.722,-0.179,-1.283,-0.733,-1.463,-1.445c-0.089,-0.355,-0.087,-0.684,0.007,-1.036c0.196,-0.738,0.818,-1.305,1.585,-1.445c0.103,-0.019,0.212,-0.029,0.325,-0.029c0.362,0,0.75,0.105,1.038,0.281c0.358,0.216,0.599,0.482,0.782,0.863c0.26,0.546,0.256,1.217,-0.011,1.753C12.91,3.669,12.206,4.107,11.453,4.107L11.453,4.107zM11.438,0.955c-0.06,0,-0.116,0.005,-0.167,0.014c-0.438,0.08,-0.793,0.401,-0.903,0.819c-0.055,0.207,-0.057,0.4,-0.004,0.609c0.102,0.403,0.42,0.717,0.831,0.819c0.085,0.021,0.172,0.032,0.259,0.032c0.424,0,0.823,-0.25,1.015,-0.636c0.153,-0.306,0.154,-0.691,0.005,-1.005c-0.11,-0.229,-0.236,-0.368,-0.451,-0.498C11.868,1.015,11.639,0.955,11.438,0.955z" fill="#228BCB"/>
    <path d="M5.736,10.383c-0.112,0.249,-0.292,0.605,-0.364,0.707c-0.093,0.132,-0.291,0.27,-0.45,0.314c-0.035,0.009,-0.723,0.169,-1.601,0.372c-0.781,0.179,-1.61,0.37,-1.701,0.392c-0.091,0.022,-0.177,0.033,-0.255,0.033c-0.187,0,-0.337,-0.061,-0.46,-0.186c-0.172,-0.176,-0.252,-0.449,-0.199,-0.68c0.055,-0.232,0.24,-0.438,0.508,-0.564c0.049,-0.022,0.596,-0.207,1.394,-0.466l1.36,-0.442l0.063,-0.21c0.001,-0.005,0.003,-0.008,0.004,-0.013c0.296,0.331,0.701,0.57,1.187,0.686C5.38,10.367,5.528,10.379,5.736,10.383zM15.143,6.612c-0.058,-0.249,-0.228,-0.413,-0.491,-0.474c-0.084,-0.021,-0.109,-0.027,-0.602,-0.027c-0.183,0,-0.429,0.001,-0.764,0.002l-1.298,0.004l-0.302,-0.265c-0.13,-0.113,-0.286,-0.249,-0.434,-0.378c-0.009,0.101,-0.026,0.192,-0.053,0.298c-0.115,0.434,-0.346,0.819,-0.708,1.182c-0.012,0.012,-0.024,0.023,-0.036,0.035c0.412,0.233,0.966,0.538,1.034,0.564c0.037,0.014,0.119,0.034,0.18,0.045c0.03,0.006,0.052,0.009,0.106,0.009c0.136,0,0.445,-0.022,1.402,-0.091c0.345,-0.025,1.395,-0.101,1.484,-0.122c0.226,-0.06,0.395,-0.209,0.464,-0.406C15.16,6.89,15.168,6.721,15.143,6.612z" fill="#FFFFFF"/>
    <path d="M15.536,7.129c-0.117,0.335,-0.395,0.583,-0.761,0.681l-0.01,0.003c-0.058,0.014,-0.124,0.03,-1.55,0.133c-0.986,0.071,-1.27,0.091,-1.424,0.092c-0.622,-0.363,-1.217,-0.709,-1.515,-0.881c0.076,-0.066,0.144,-0.131,0.216,-0.203c0.096,-0.096,0.182,-0.193,0.259,-0.293c0.365,0.205,0.799,0.444,0.897,0.491c0.02,0.006,0.063,0.017,0.099,0.023l0.012,0.002c0.002,0,0.015,0,0.017,0c0.122,0,0.486,-0.026,1.37,-0.09c1.063,-0.077,1.347,-0.104,1.418,-0.113c0.076,-0.024,0.131,-0.07,0.151,-0.127c0.007,-0.023,0.012,-0.106,0.004,-0.141c-0.017,-0.074,-0.05,-0.123,-0.168,-0.151c-0.041,-0.01,-0.062,-0.015,-0.501,-0.015c-0.183,0,-0.428,0.001,-0.763,0.002l-1.464,0.005l-0.426,-0.374c-0.077,-0.067,-0.164,-0.144,-0.255,-0.222c0.021,-0.059,0.04,-0.119,0.056,-0.18c0.048,-0.186,0.064,-0.327,0.061,-0.553c0,-0.131,-0.004,-0.227,-0.017,-0.323c0.207,0.178,0.506,0.437,0.73,0.633l0.178,0.157l1.132,-0.004c0.336,-0.001,0.582,-0.002,0.766,-0.002c0.509,0,0.568,0.005,0.706,0.04c0.419,0.098,0.714,0.388,0.809,0.795C15.609,6.703,15.597,6.955,15.536,7.129zM5.845,10.384c-0.241,-0.002,-0.403,-0.009,-0.567,-0.044c-0.096,0.204,-0.217,0.44,-0.262,0.503c-0.035,0.05,-0.148,0.129,-0.205,0.145c-0.035,0.009,-0.564,0.132,-1.589,0.369c-0.762,0.175,-1.611,0.37,-1.707,0.394c-0.057,0.014,-0.108,0.021,-0.151,0.021c-0.079,0,-0.114,-0.02,-0.148,-0.055c-0.071,-0.072,-0.108,-0.194,-0.088,-0.283c0.024,-0.1,0.122,-0.201,0.262,-0.269c0.075,-0.028,0.528,-0.183,1.353,-0.451l1.577,-0.512l0.072,-0.242c-0.285,-0.201,-0.511,-0.463,-0.664,-0.772c-0.031,0.083,-0.067,0.191,-0.112,0.338l-1.144,0.371c-0.135,0.044,-1.319,0.429,-1.445,0.486c-0.388,0.182,-0.659,0.494,-0.745,0.856c-0.086,0.372,0.035,0.794,0.31,1.075c0.205,0.21,0.465,0.316,0.772,0.316c0.114,0,0.235,-0.015,0.359,-0.046c0.087,-0.021,0.914,-0.212,1.696,-0.391c0.158,-0.037,1.549,-0.358,1.621,-0.377c0.255,-0.071,0.538,-0.27,0.688,-0.481c0.106,-0.149,0.365,-0.67,0.472,-0.937C6.064,10.39,5.938,10.385,5.845,10.384z" fill="#228BCB"/>
  </g>
</svg>
