<?xml version="1.0" encoding="UTF-8"?>
<!DOCTYPE svg PUBLIC "-//W3C//DTD SVG 1.1//EN" "http://www.w3.org/Graphics/SVG/1.1/DTD/svg11.dtd">
<svg version="1.1" id="Layer_1" xmlns="http://www.w3.org/2000/svg" xmlns:xlink="http://www.w3.org/1999/xlink" x="0px" y="0px" width="16px" height="16px" viewBox="0 0 16 16" enable-background="new 0 0 16 16" xml:space="preserve">
  <g id="icon">
    <path d="M10.148,0.537c-0.545,0.099,-0.982,0.484,-1.146,1.007c-0.058,0.185,-0.076,0.332,-0.066,0.531c0.027,0.546,0.329,1.012,0.811,1.252c0.262,0.131,0.575,0.186,0.832,0.15c0.527,-0.075,0.931,-0.362,1.151,-0.819c0.117,-0.241,0.142,-0.359,0.142,-0.656c0,-0.292,-0.025,-0.413,-0.135,-0.644c-0.081,-0.17,-0.132,-0.245,-0.251,-0.374C11.146,0.621,10.633,0.448,10.148,0.537zM8.289,4.48c-0.054,0.008,-0.609,0.038,-1.235,0.066c-1.211,0.057,-1.351,0.062,-1.492,0.143c-0.087,0.05,-0.229,0.192,-0.269,0.269c-0.057,0.111,-0.968,2.433,-0.988,2.518c-0.039,0.167,-0.021,0.347,0.052,0.489c0.07,0.141,0.354,0.266,0.545,0.304c0.187,0.038,0.404,-0.041,0.549,-0.197c0.091,-0.101,0.073,-0.063,0.645,-1.283l0.359,-0.762l0.549,0.003c0.301,0.003,0.552,0.008,0.555,0.012c0.004,0.005,-0.012,0.095,-0.036,0.203c-0.497,2.192,-0.702,3.163,-0.702,3.329c0,0.326,0.21,0.627,0.629,0.901c0.202,0.132,0.253,0.167,0.367,0.259c0.06,0.048,0.296,0.149,1.31,0.556c0.68,0.275,1.239,0.504,1.244,0.508c0.006,0.006,-0.103,0.633,-0.242,1.394c-0.139,0.761,-0.257,1.431,-0.262,1.49c-0.027,0.299,0.136,0.607,0.386,0.731c0.479,0.236,0.965,-0.026,1.102,-0.589c0.018,-0.071,0.198,-0.842,0.403,-1.714l0.37,-1.586v-0.173c0,-0.152,-0.006,-0.186,-0.042,-0.286c-0.076,-0.203,-0.139,-0.308,-0.253,-0.415c-0.124,-0.119,-0.054,-0.084,-1.368,-0.668c-0.53,-0.235,-0.962,-0.435,-0.962,-0.444c0,-0.008,0.216,-0.819,0.479,-1.801c0.266,-0.998,0.486,-1.845,0.495,-1.916c0.049,-0.371,-0.087,-0.69,-0.392,-0.922c-0.254,-0.192,-0.733,-0.371,-1.121,-0.419C8.817,4.461,8.431,4.462,8.289,4.48z" fill="#92CBEE" stroke="#0964B0" stroke-width="0.9" stroke-miterlimit="1"/>
    <path d="M7.428,11.822c-0.152,0.235,-0.468,0.58,-1.102,1.21c-0.046,0.045,-0.108,0.12,-0.136,0.165c-0.07,0.111,-0.216,0.244,-0.331,0.301c-0.201,0.099,-0.132,0.098,-2.106,0.047c-1.449,-0.038,-1.792,-0.05,-1.869,-0.069c-0.292,-0.071,-0.503,-0.272,-0.561,-0.534c-0.105,-0.462,0.168,-0.848,0.653,-0.925c0.1,-0.015,0.522,-0.03,1.524,-0.053c0.762,-0.017,1.434,-0.035,1.494,-0.039l0.108,-0.009l0.54,-0.716c0.145,-0.192,0.28,-0.37,0.382,-0.505c0.153,0.237,0.385,0.48,0.735,0.709c0.195,0.128,0.217,0.143,0.302,0.212C7.141,11.68,7.211,11.725,7.428,11.822zM14.639,6.722c-0.085,-0.329,-0.353,-0.528,-0.681,-0.502c-0.061,0.006,-0.132,0.017,-0.157,0.024c-0.045,0.017,-1.826,0.272,-1.887,0.272c-0.024,0,-0.118,-0.089,-0.322,-0.301c-0.033,-0.034,-0.062,-0.064,-0.089,-0.092c-0.051,0.214,-0.169,0.674,-0.444,1.707c0.022,0.02,0.042,0.039,0.06,0.057c0.183,0.176,0.35,0.254,0.542,0.256c0.096,0,0.242,-0.035,0.298,-0.071c0.018,-0.012,0.513,-0.131,1.102,-0.263c0.688,-0.156,1.099,-0.257,1.148,-0.281C14.546,7.368,14.721,7.039,14.639,6.722z" fill="#92CBEE"/>
    <path d="M5.324,14.018c-0.282,0,-0.729,-0.012,-1.406,-0.029l-0.176,-0.005c-1.714,-0.044,-1.844,-0.052,-1.965,-0.082c-0.45,-0.109,-0.789,-0.441,-0.884,-0.865c-0.077,-0.337,-0.019,-0.671,0.163,-0.939c0.187,-0.276,0.489,-0.46,0.851,-0.517c0.114,-0.017,0.399,-0.031,1.583,-0.058c0.68,-0.015,1.182,-0.028,1.382,-0.035l0.418,-0.554c0.17,-0.226,0.36,-0.476,0.476,-0.628l0.133,-0.174l0.079,0.205c0.073,0.189,0.186,0.369,0.337,0.536l0.068,0.076l-0.062,0.081c-0.093,0.122,-0.207,0.273,-0.329,0.435l-0.659,0.873l-0.304,0.025c-0.087,0.007,-0.857,0.026,-1.521,0.041c-0.896,0.02,-1.39,0.036,-1.468,0.048c-0.116,0.018,-0.207,0.068,-0.255,0.14c-0.056,0.082,-0.049,0.182,-0.033,0.251c0.021,0.096,0.108,0.172,0.233,0.203c0.09,0.014,0.949,0.036,1.78,0.058l0.176,0.005c0.775,0.02,1.165,0.029,1.396,0.029c0.256,0,0.282,-0.013,0.307,-0.025l0.019,-0.01c0.043,-0.022,0.127,-0.098,0.154,-0.142c0.048,-0.076,0.131,-0.177,0.201,-0.246c0.58,-0.576,0.887,-0.908,1.023,-1.108l0.068,-0.099l0.101,0.066c0.088,0.058,0.23,0.123,0.56,0.26l0.132,0.055l-0.073,0.122c-0.163,0.272,-0.476,0.621,-1.193,1.333c-0.028,0.027,-0.066,0.075,-0.074,0.088c-0.115,0.182,-0.319,0.367,-0.508,0.46L6.038,13.9C5.859,13.99,5.781,14.018,5.324,14.018zM11.66,8.583c-0.28,-0.002,-0.533,-0.105,-0.774,-0.314l-0.058,-0.05l0.256,-0.959l0.149,0.133c0.063,0.056,0.14,0.127,0.191,0.176c0.137,0.132,0.202,0.133,0.24,0.133c0.015,0,0.056,-0.008,0.079,-0.015c0.059,-0.035,0.162,-0.07,1.221,-0.308c0.81,-0.184,1.023,-0.243,1.072,-0.257c0.135,-0.071,0.205,-0.183,0.177,-0.289c-0.03,-0.116,-0.097,-0.175,-0.198,-0.175c-0.007,0,-0.015,0,-0.022,0.001c-0.035,0.003,-0.072,0.009,-0.083,0.012l0,-0.001c-0.26,0.058,-1.944,0.287,-1.995,0.287c-0.22,0,-0.351,-0.137,-0.59,-0.385l-0.047,-0.049l0.017,-0.066c0.12,-0.469,0.127,-0.521,0.13,-0.549c0.008,-0.058,0.013,-0.117,0.015,-0.176l0.009,-0.264l0.196,0.177c0.071,0.064,0.157,0.153,0.265,0.265c0.061,0.064,0.107,0.111,0.143,0.146c0.433,-0.058,1.519,-0.215,1.648,-0.24c0.067,-0.018,0.173,-0.03,0.216,-0.034c0.034,-0.003,0.065,-0.004,0.095,-0.004c0.51,0,0.924,0.327,1.055,0.834c0.136,0.524,-0.139,1.065,-0.67,1.315c-0.052,0.025,-0.119,0.058,-1.238,0.312c-0.548,0.123,-0.925,0.214,-1.032,0.243C11.977,8.552,11.786,8.583,11.66,8.583L11.66,8.583z" fill="#0964B0"/>
  </g>
</svg>
