<?xml version="1.0" encoding="UTF-8"?>
<!DOCTYPE svg PUBLIC "-//W3C//DTD SVG 1.1//EN" "http://www.w3.org/Graphics/SVG/1.1/DTD/svg11.dtd">
<svg version="1.1" id="Layer_1" xmlns="http://www.w3.org/2000/svg" xmlns:xlink="http://www.w3.org/1999/xlink" x="0px" y="0px" width="16px" height="16px" viewBox="0 0 16 16" enable-background="new 0 0 16 16" xml:space="preserve">
  <g id="icon">
    <path d="M14.466,15.5H1.534C0.963,15.5,0.5,15.037,0.5,14.466V1.534C0.5,0.963,0.963,0.5,1.534,0.5h12.931C15.037,0.5,15.5,0.963,15.5,1.534v12.931C15.5,15.037,15.037,15.5,14.466,15.5z" fill="#FFFFFF" stroke="#228BCB" stroke-width="1" stroke-miterlimit="1"/>
    <path d="M9.516,1.918c-0.436,0.079,-0.786,0.388,-0.918,0.807c-0.047,0.148,-0.061,0.266,-0.053,0.425c0.022,0.437,0.264,0.81,0.65,1.003c0.21,0.105,0.46,0.149,0.667,0.12c0.422,-0.06,0.746,-0.29,0.922,-0.656c0.094,-0.193,0.114,-0.288,0.114,-0.525c0,-0.234,-0.02,-0.331,-0.108,-0.515c-0.065,-0.136,-0.105,-0.196,-0.201,-0.3C10.316,1.986,9.905,1.847,9.516,1.918zM8.028,5.077c-0.043,0.006,-0.488,0.03,-0.989,0.053c-0.97,0.046,-1.002,0.049,-1.115,0.114c-0.07,0.04,-0.183,0.154,-0.216,0.216c-0.046,0.089,-0.776,1.949,-0.791,2.017c-0.031,0.134,-0.017,0.278,0.042,0.391c0.056,0.113,0.204,0.213,0.356,0.243c0.15,0.03,0.324,-0.033,0.44,-0.158c0.073,-0.081,0.059,-0.051,0.517,-1.027l0.288,-0.611l0.44,0.002c0.241,0.002,0.442,0.006,0.445,0.01c0.004,0.004,-0.01,0.076,-0.029,0.163c-0.398,1.756,-0.562,2.534,-0.562,2.666c0,0.261,0.168,0.502,0.504,0.721c0.162,0.106,0.203,0.134,0.294,0.207c0.048,0.039,0.237,0.119,1.049,0.446c0.544,0.22,0.993,0.403,0.996,0.407c0.005,0.005,-0.083,0.507,-0.194,1.116c-0.111,0.609,-0.206,1.146,-0.21,1.193c-0.022,0.24,0.109,0.487,0.309,0.585c0.384,0.189,0.773,-0.02,0.882,-0.472c0.014,-0.057,0.158,-0.674,0.322,-1.373l0.296,-1.271v-0.138c0,-0.122,-0.005,-0.149,-0.034,-0.229c-0.061,-0.163,-0.111,-0.247,-0.203,-0.332c-0.1,-0.095,-0.043,-0.067,-1.096,-0.535c-0.424,-0.188,-0.771,-0.348,-0.771,-0.355c0,-0.006,0.173,-0.656,0.384,-1.443c0.213,-0.8,0.39,-1.478,0.397,-1.534c0.04,-0.297,-0.07,-0.553,-0.314,-0.738c-0.204,-0.154,-0.587,-0.297,-0.898,-0.336C8.451,5.061,8.141,5.062,8.028,5.077z" fill="#FFFFFF" stroke="#228BCB" stroke-width="0.8" stroke-miterlimit="1"/>
    <path d="M7.338,10.957c-0.122,0.188,-0.375,0.465,-0.883,0.969c-0.037,0.036,-0.086,0.096,-0.109,0.132c-0.056,0.089,-0.173,0.195,-0.265,0.241c-0.161,0.079,-0.105,0.078,-1.687,0.037c-1.16,-0.03,-1.435,-0.04,-1.497,-0.055c-0.234,-0.057,-0.403,-0.218,-0.45,-0.428c-0.084,-0.37,0.134,-0.679,0.523,-0.741c0.08,-0.012,0.418,-0.024,1.22,-0.042c0.61,-0.013,1.148,-0.028,1.196,-0.031l0.086,-0.007l0.433,-0.573c0.116,-0.154,0.224,-0.297,0.306,-0.405c0.122,0.19,0.309,0.385,0.589,0.568c0.156,0.102,0.174,0.115,0.242,0.169C7.108,10.844,7.164,10.88,7.338,10.957zM13.114,6.872c-0.068,-0.264,-0.283,-0.423,-0.545,-0.402c-0.049,0.005,-0.105,0.013,-0.126,0.019c-0.036,0.013,-1.463,0.218,-1.512,0.218c-0.019,0,-0.095,-0.071,-0.258,-0.241c-0.026,-0.027,-0.05,-0.052,-0.071,-0.073c-0.041,0.171,-0.135,0.54,-0.356,1.367c0.017,0.016,0.034,0.032,0.048,0.045c0.146,0.141,0.281,0.204,0.434,0.205c0.077,0,0.194,-0.028,0.239,-0.057c0.014,-0.01,0.411,-0.105,0.882,-0.211c0.551,-0.125,0.88,-0.206,0.919,-0.225C13.039,7.39,13.18,7.126,13.114,6.872z" fill="#FFFFFF"/>
    <path d="M5.652,12.716c-0.226,0,-0.584,-0.009,-1.126,-0.023l-0.141,-0.004c-1.373,-0.036,-1.477,-0.041,-1.574,-0.066c-0.361,-0.087,-0.632,-0.353,-0.708,-0.693c-0.061,-0.27,-0.015,-0.537,0.13,-0.752c0.15,-0.221,0.392,-0.368,0.681,-0.414c0.091,-0.014,0.32,-0.025,1.268,-0.046c0.544,-0.012,0.947,-0.023,1.107,-0.028l0.335,-0.444c0.136,-0.181,0.289,-0.382,0.381,-0.503l0.107,-0.14l0.063,0.164c0.058,0.151,0.149,0.296,0.27,0.429l0.055,0.061l-0.049,0.065c-0.075,0.098,-0.166,0.218,-0.264,0.348l-0.528,0.699l-0.243,0.02c-0.069,0.005,-0.686,0.021,-1.218,0.033c-0.718,0.016,-1.113,0.029,-1.176,0.038c-0.093,0.015,-0.166,0.055,-0.205,0.112c-0.045,0.066,-0.039,0.146,-0.026,0.201c0.017,0.077,0.087,0.138,0.187,0.162c0.072,0.011,0.76,0.029,1.425,0.046l0.141,0.004c0.621,0.016,0.933,0.024,1.118,0.024c0.205,0,0.226,-0.01,0.246,-0.02l0.015,-0.008c0.035,-0.017,0.102,-0.079,0.124,-0.113c0.038,-0.061,0.105,-0.142,0.161,-0.197c0.465,-0.462,0.71,-0.727,0.82,-0.888l0.054,-0.08l0.081,0.053c0.071,0.046,0.184,0.099,0.449,0.208l0.106,0.044l-0.059,0.098c-0.131,0.218,-0.381,0.497,-0.956,1.068c-0.022,0.022,-0.053,0.06,-0.059,0.07c-0.092,0.146,-0.255,0.294,-0.407,0.369l-0.013,0.007C6.081,12.694,6.019,12.716,5.652,12.716zM10.727,8.363c-0.224,-0.002,-0.427,-0.084,-0.62,-0.251l-0.046,-0.04l0.205,-0.768l0.119,0.106c0.051,0.045,0.112,0.102,0.153,0.141c0.11,0.106,0.162,0.106,0.193,0.107c0.012,0,0.045,-0.007,0.063,-0.012c0.047,-0.028,0.129,-0.056,0.978,-0.247c0.649,-0.147,0.819,-0.194,0.859,-0.206c0.108,-0.057,0.164,-0.147,0.142,-0.232c-0.024,-0.093,-0.077,-0.14,-0.159,-0.14c-0.006,0,-0.012,0,-0.018,0.001c-0.028,0.003,-0.058,0.007,-0.067,0.009l0,-0.001c-0.208,0.046,-1.557,0.23,-1.598,0.23c-0.176,0,-0.281,-0.109,-0.472,-0.308l-0.038,-0.039l0.014,-0.053c0.096,-0.376,0.101,-0.417,0.104,-0.44c0.006,-0.047,0.01,-0.094,0.012,-0.141l0.007,-0.211l0.157,0.142c0.057,0.051,0.126,0.123,0.213,0.213c0.049,0.051,0.086,0.089,0.114,0.117c0.347,-0.047,1.217,-0.172,1.32,-0.192c0.054,-0.014,0.139,-0.024,0.173,-0.027c0.027,-0.002,0.052,-0.003,0.076,-0.003c0.408,0,0.74,0.262,0.845,0.668c0.109,0.42,-0.112,0.853,-0.536,1.053c-0.042,0.02,-0.095,0.047,-0.992,0.25c-0.439,0.099,-0.741,0.171,-0.827,0.195C10.981,8.338,10.829,8.363,10.727,8.363L10.727,8.363z" fill="#238BCB"/>
  </g>
</svg>
