<?xml version="1.0" encoding="UTF-8"?>
<!DOCTYPE svg PUBLIC "-//W3C//DTD SVG 1.1//EN" "http://www.w3.org/Graphics/SVG/1.1/DTD/svg11.dtd">
<svg version="1.1" id="Layer_1" xmlns="http://www.w3.org/2000/svg" xmlns:xlink="http://www.w3.org/1999/xlink" x="0px" y="0px" width="16px" height="16px" viewBox="0 0 16 16" enable-background="new 0 0 16 16" xml:space="preserve">
  <g id="icon">
    <path d="M4.512,11.02c-0.112,0,-0.223,-0.025,-0.32,-0.073c-0.155,-0.076,-0.287,-0.253,-0.337,-0.45c-0.011,-0.056,-0.06,-0.643,-0.132,-1.654l-0.115,-1.419L3.14,6.86c-0.828,-1.001,-1.356,-1.653,-1.527,-1.883c-0.071,-0.096,-0.071,-0.103,-0.071,-0.126c0,-0.075,-0.017,-0.114,-0.036,-0.136c-0.008,-0.015,-0.025,-0.054,-0.045,-0.107c-0.042,-0.11,-0.042,-0.11,-0.042,-0.304c0,-0.188,0.003,-0.202,0.031,-0.273c0.133,-0.35,0.433,-0.573,0.916,-0.684c0.125,-0.029,0.152,-0.03,1.427,-0.038L5.402,3.3l-0.337,-0.303l-0.158,-0.139l-1.4,-0.654c-0.87,-0.407,-1.447,-0.678,-1.506,-0.707c-0.271,-0.137,-0.415,-0.364,-0.375,-0.594c0.02,-0.118,0.065,-0.209,0.145,-0.294c0.066,-0.072,0.14,-0.117,0.24,-0.146c0.027,-0.008,0.07,-0.012,0.119,-0.012c0.094,0,0.2,0.016,0.263,0.039c0.05,0.018,0.609,0.241,1.46,0.583c0.056,0.022,1.372,0.552,1.454,0.569c0.034,0.007,0.09,0.025,0.119,0.038c0.04,0.02,0.456,0.278,1.274,0.797c0.582,0.369,1.207,0.768,1.265,0.827l0.01,0.011c0.063,0.07,0.065,0.073,0.146,0.145l0.017,0.015c0.124,0.11,0.195,0.309,0.176,0.498c-0.019,0.196,-0.138,0.572,-0.249,0.789c-0.18,0.347,-0.449,0.562,-0.822,0.657c-0.291,0.073,-0.322,0.074,-1.65,0.08c-0.347,0.002,-0.662,0.004,-0.891,0.007c-0.114,0.001,-0.207,0.002,-0.271,0.003c-0.119,0.002,-0.198,0.003,-0.198,0.104c0,0.04,0,0.04,0.427,0.639c0.238,0.336,0.406,0.588,0.425,0.629c0.024,0.058,0.035,0.112,0.067,0.343c0.006,0.045,0.02,0.485,0.031,1.51l0.002,0.174c0.016,1.546,0.015,1.549,-0.064,1.711l-0.011,0.022c-0.048,0.101,-0.172,0.245,-0.251,0.292C4.758,10.989,4.638,11.02,4.512,11.02L4.512,11.02zM10.895,4.763c-0.126,0,-0.248,-0.011,-0.327,-0.029c-0.5,-0.113,-0.917,-0.462,-1.09,-0.911c-0.089,-0.229,-0.1,-0.291,-0.1,-0.557c0,-0.226,0.005,-0.257,0.036,-0.37c0.16,-0.598,0.661,-1.037,1.277,-1.12c0.04,-0.006,0.097,-0.009,0.162,-0.009c0.123,0,0.256,0.011,0.332,0.027c0.302,0.064,0.555,0.201,0.773,0.418c0.255,0.253,0.405,0.574,0.435,0.927c0.039,0.444,-0.116,0.864,-0.435,1.182c-0.221,0.221,-0.462,0.349,-0.782,0.418C11.109,4.755,11.007,4.763,10.895,4.763z" fill="#FFFFFF" stroke="#228BCB" stroke-width="0.9" stroke-linecap="round" stroke-miterlimit="1" stroke-linejoin="round"/>
    <rect x="0.5" y="12.5" width="5" height="3" fill="#FFFFFF" stroke="#383838" stroke-width="1" stroke-miterlimit="1"/>
    <path d="M7.819,15.45c-0.432,0,-0.796,-0.182,-1.18,-0.591l-0.054,-0.058v-1.317l0.342,0.343c0.074,0.074,0.142,0.15,0.203,0.225c0.372,0.46,0.543,0.498,0.687,0.498c0.141,-0.002,0.288,-0.038,0.633,-0.464c0.4,-0.495,0.724,-0.763,1.288,-0.763c0.237,0,0.394,0.022,0.594,0.139c0.223,0.129,0.459,0.344,0.701,0.637c0.16,0.194,0.313,0.332,0.456,0.412c0.009,0.004,0.076,0.023,0.192,0.023c0.137,0,0.199,-0.025,0.199,-0.025c0.131,-0.069,0.264,-0.197,0.47,-0.455c0.375,-0.463,0.699,-0.731,1.251,-0.731l0.016,0c0.26,0,0.408,0.035,0.586,0.137c0.218,0.127,0.425,0.309,0.634,0.557c0.155,0.185,0.224,0.244,0.388,0.331c0.155,0.084,0.413,0.165,0.5,0.174l0.199,0.021l-0.093,0.895l-0.199,-0.021c-0.218,-0.023,-0.59,-0.146,-0.831,-0.276c-0.266,-0.142,-0.425,-0.275,-0.653,-0.546c-0.14,-0.167,-0.27,-0.284,-0.396,-0.357c-0.006,-0.004,-0.012,-0.007,-0.018,-0.01c-0.003,-0.001,-0.025,-0.006,-0.118,-0.006l-0.016,0c-0.133,0,-0.229,0,-0.549,0.395c-0.289,0.362,-0.501,0.556,-0.755,0.689c-0.197,0.105,-0.444,0.127,-0.616,0.127c-0.179,0,-0.436,-0.024,-0.636,-0.141c-0.236,-0.132,-0.474,-0.341,-0.705,-0.622c-0.169,-0.204,-0.332,-0.358,-0.461,-0.432c-0.009,-0.005,-0.015,-0.009,-0.021,-0.012c-0.003,-0.001,-0.028,-0.004,-0.119,-0.004c-0.145,0,-0.241,0,-0.588,0.429c-0.384,0.474,-0.757,0.792,-1.328,0.798h-0.001H7.819z" fill="#383838"/>
  </g>
</svg>
