<?xml version="1.0" encoding="UTF-8"?>
<!DOCTYPE svg PUBLIC "-//W3C//DTD SVG 1.1//EN" "http://www.w3.org/Graphics/SVG/1.1/DTD/svg11.dtd">
<svg version="1.1" id="Layer_1" xmlns="http://www.w3.org/2000/svg" xmlns:xlink="http://www.w3.org/1999/xlink" x="0px" y="0px" width="16px" height="16px" viewBox="0 0 16 16" enable-background="new 0 0 16 16" xml:space="preserve">
  <g id="icon">
    <path d="M7.392,12.564c-0.091,0,-0.271,0,-0.327,-0.013c0,-0.002,-0.001,-0.004,-0.001,-0.006c-0.006,-0.033,-0.022,-0.312,-0.035,-0.688c-0.004,-0.111,-0.024,-0.668,-0.038,-0.728c-0.005,-0.036,-0.027,-0.437,-0.049,-1.097l-0.038,-1.177l-0.079,-0.161c-0.118,-0.242,-0.167,-0.472,-0.155,-0.723c0.016,-0.338,0.117,-0.529,0.386,-0.728c0.409,-0.302,0.614,-0.615,0.758,-1.156c0.142,-0.541,0.093,-0.581,0.066,-0.603l-0.009,-0.007l-0.003,-0.002c-0.022,-0.016,-0.107,-0.079,-0.231,-0.171c-0.142,-0.105,-0.336,-0.249,-0.548,-0.406c-0.433,-0.323,-0.806,-0.598,-0.836,-0.618c-0.124,-0.085,-0.272,-0.216,-0.323,-0.277c-0.041,-0.051,-0.389,-0.404,-0.744,-0.755c-0.814,-0.807,-0.815,-0.825,-0.837,-1.048c-0.022,-0.23,0.151,-0.465,0.394,-0.536c0.01,-0.003,0.041,-0.01,0.101,-0.01c0.071,0,0.149,0.01,0.199,0.026c0.032,0.011,0.099,0.045,0.139,0.072c0.041,0.028,0.411,0.343,0.876,0.75l0.019,0.017c0.847,0.741,0.863,0.755,1.185,0.969c0.479,0.319,0.887,0.555,1.15,0.666c0.093,0.039,0.14,0.058,0.198,0.058c0.027,0,0.053,-0.004,0.083,-0.009c0.05,-0.009,0.133,-0.013,0.229,-0.013c0.126,0,0.259,0.008,0.345,0.022c0.091,0.014,0.155,0.023,0.219,0.023c0.097,0,0.182,-0.019,0.336,-0.062c0.412,-0.112,1.393,-0.441,1.513,-0.523c0.117,-0.081,1.878,-1.204,1.962,-1.252c0.051,-0.027,0.221,-0.068,0.282,-0.068c0.14,0,0.31,0.084,0.395,0.196c0.083,0.11,0.117,0.222,0.101,0.333c-0.02,0.139,-0.121,0.279,-0.29,0.404c-0.092,0.067,-1.56,1.221,-1.614,1.282c-0.038,0.041,-0.16,0.124,-0.272,0.175c-0.064,0.028,-0.556,0.253,-0.843,0.385l-0.791,0.362l-0.024,0.189c-0.092,0.723,-0.519,1.679,-1.087,2.435c-0.204,0.274,-0.395,0.469,-0.568,0.581c-0.073,0.046,-0.073,0.046,-0.19,2.925c-0.021,0.513,-0.039,0.91,-0.043,0.945l-0.001,0.008c-0.065,0.012,-0.256,0.013,-0.55,0.014l-0.11,0.001C7.574,12.563,7.474,12.564,7.392,12.564zM9.168,3.068c-0.257,0,-0.529,-0.086,-0.747,-0.236c-0.319,-0.219,-0.518,-0.56,-0.559,-0.96c-0.05,-0.48,0.196,-0.975,0.613,-1.231c0.131,-0.081,0.269,-0.135,0.435,-0.171c0.072,-0.015,0.152,-0.023,0.239,-0.023c0.165,0,0.337,0.029,0.484,0.081c0.3,0.108,0.595,0.384,0.732,0.686c0.056,0.123,0.105,0.327,0.114,0.474c0.014,0.204,-0.038,0.453,-0.135,0.649c-0.207,0.412,-0.579,0.67,-1.048,0.724C9.254,3.066,9.211,3.068,9.168,3.068z" fill="#FFFFFF"/>
    <path d="M7.392,12.981c-0.211,0,-0.333,-0.004,-0.419,-0.023l-0.253,-0.057l-0.068,-0.282l-0.001,-0.006c-0.018,-0.106,-0.039,-0.716,-0.04,-0.741c-0.013,-0.364,-0.027,-0.628,-0.032,-0.673l-0.001,-0.007c-0.012,-0.086,-0.037,-0.649,-0.053,-1.145l-0.035,-1.088l-0.039,-0.08c-0.15,-0.308,-0.213,-0.603,-0.198,-0.927c0.022,-0.466,0.182,-0.768,0.555,-1.044c0.331,-0.245,0.483,-0.479,0.602,-0.927c0.033,-0.126,0.053,-0.215,0.065,-0.277l-0.634,-0.47c-0.459,-0.342,-0.8,-0.593,-0.824,-0.61c-0.147,-0.101,-0.327,-0.257,-0.408,-0.355c-0.028,-0.033,-0.308,-0.321,-0.715,-0.724c-0.816,-0.81,-0.921,-0.914,-0.959,-1.305c-0.042,-0.43,0.256,-0.85,0.694,-0.977c0.062,-0.018,0.135,-0.027,0.218,-0.027c0.116,0,0.234,0.017,0.326,0.046c0.083,0.028,0.184,0.082,0.244,0.122c0.111,0.075,0.887,0.755,0.92,0.784l0.019,0.017c0.842,0.737,0.848,0.741,1.141,0.935c0.458,0.305,0.842,0.528,1.081,0.629c0.017,0.007,0.036,0.015,0.052,0.022c0.072,-0.012,0.172,-0.019,0.295,-0.019c0.148,0,0.302,0.01,0.41,0.027c0.068,0.011,0.118,0.017,0.154,0.017c0.039,0,0.081,-0.007,0.225,-0.047c0.439,-0.12,1.285,-0.413,1.399,-0.472c0.201,-0.135,1.885,-1.209,1.982,-1.263l0.011,-0.006c0.114,-0.059,0.349,-0.116,0.477,-0.116c0.271,0,0.563,0.145,0.728,0.36c0.152,0.201,0.214,0.424,0.182,0.646c-0.037,0.252,-0.194,0.487,-0.456,0.68c-0.075,0.054,-1.43,1.119,-1.567,1.241c-0.098,0.099,-0.272,0.204,-0.394,0.259c-0.033,0.015,-0.183,0.082,-0.842,0.384l-0.58,0.265c-0.111,0.784,-0.564,1.796,-1.162,2.591c-0.189,0.254,-0.375,0.453,-0.552,0.593c-0.025,0.271,-0.056,1.04,-0.122,2.677c-0.002,0.038,-0.036,0.888,-0.046,0.976l-0.044,0.319l-0.298,0.054c-0.096,0.017,-0.234,0.019,-0.621,0.021C7.808,12.979,7.466,12.981,7.392,12.981zM7.406,11.075c0.009,0.06,0.021,0.21,0.041,0.768c0.004,0.115,0.008,0.217,0.012,0.303c0.067,0,0.448,-0.002,0.498,-0.003c0.007,-0.153,0.015,-0.347,0.024,-0.566c0.058,-1.441,0.087,-2.164,0.111,-2.535c0.023,-0.361,0.038,-0.58,0.275,-0.727c0.122,-0.079,0.285,-0.249,0.454,-0.476C9.35,7.135,9.745,6.257,9.829,5.6l0.053,-0.419l1.002,-0.458c0.52,-0.239,0.798,-0.366,0.85,-0.388c0.062,-0.028,0.131,-0.076,0.144,-0.088c0.143,-0.141,1.65,-1.315,1.662,-1.324c0.075,-0.055,0.109,-0.1,0.12,-0.12c-0.003,-0.006,-0.008,-0.015,-0.018,-0.027c-0.008,-0.008,-0.04,-0.024,-0.058,-0.029c-0.023,0.004,-0.072,0.016,-0.098,0.024c-0.231,0.142,-1.805,1.147,-1.911,1.22c-0.217,0.149,-1.39,0.514,-1.641,0.582c-0.183,0.051,-0.303,0.077,-0.447,0.077c-0.091,0,-0.173,-0.01,-0.284,-0.028c-0.064,-0.01,-0.177,-0.017,-0.28,-0.017c-0.094,0,-0.147,0.005,-0.158,0.007c-0.042,0.007,-0.093,0.015,-0.154,0.015c-0.142,0,-0.242,-0.042,-0.359,-0.09c-0.288,-0.121,-0.722,-0.371,-1.222,-0.704c-0.344,-0.228,-0.361,-0.243,-1.229,-1.002l-0.019,-0.016c-0.489,-0.428,-0.782,-0.675,-0.84,-0.721c-0.011,-0.006,-0.024,-0.014,-0.034,-0.018c-0.013,-0.002,-0.039,-0.005,-0.066,-0.005c-0.001,0,-0.002,0,-0.003,0c-0.049,0.022,-0.078,0.071,-0.076,0.087c0.007,0.071,0.009,0.092,0.715,0.792c0.19,0.188,0.699,0.696,0.774,0.789c0.017,0.02,0.131,0.124,0.234,0.194c0.046,0.031,0.475,0.348,0.85,0.628l0.749,0.555l0.003,0.002l0.021,0.015l0.033,0.027c0.242,0.201,0.218,0.481,0.073,1.032c-0.167,0.628,-0.431,1.029,-0.913,1.385c-0.169,0.125,-0.207,0.198,-0.217,0.412c-0.009,0.184,0.025,0.34,0.113,0.521l0.118,0.24l0.041,1.267C7.381,10.648,7.4,11.007,7.406,11.075zM9.168,3.486c-0.339,0,-0.698,-0.113,-0.984,-0.31c-0.421,-0.289,-0.683,-0.737,-0.737,-1.261c-0.066,-0.636,0.259,-1.291,0.81,-1.63c0.173,-0.106,0.352,-0.177,0.565,-0.223c0.099,-0.021,0.208,-0.032,0.324,-0.032c0.215,0,0.437,0.037,0.627,0.104c0.407,0.147,0.789,0.503,0.973,0.907c0.077,0.169,0.138,0.424,0.151,0.621c0.019,0.276,-0.047,0.598,-0.178,0.861c-0.272,0.543,-0.76,0.882,-1.374,0.953C9.287,3.483,9.228,3.486,9.168,3.486zM9.148,0.865c-0.057,0,-0.107,0.005,-0.15,0.014c-0.118,0.026,-0.214,0.063,-0.304,0.118c-0.283,0.174,-0.45,0.508,-0.416,0.832c0.029,0.276,0.164,0.51,0.38,0.659c0.15,0.103,0.336,0.163,0.51,0.163c0.027,0,0.053,-0.001,0.078,-0.004c0.325,-0.038,0.582,-0.214,0.723,-0.496c0.064,-0.128,0.101,-0.302,0.092,-0.433c-0.006,-0.099,-0.042,-0.253,-0.078,-0.331c-0.091,-0.199,-0.298,-0.395,-0.494,-0.466C9.388,0.885,9.267,0.865,9.148,0.865z" fill="#228BCB"/>
    <path d="M5.637,7.922c0.019,-0.418,0.134,-0.765,0.351,-1.063c-0.162,-0.057,-0.349,-0.125,-0.378,-0.145l-0.004,-0.002l-0.003,-0.003c-0.027,-0.022,-0.648,-0.589,-0.772,-0.702c-0.435,-0.397,-0.762,-0.69,-0.795,-0.715c-0.088,-0.064,-0.23,-0.127,-0.331,-0.148c-0.059,-0.012,-0.097,-0.017,-0.13,-0.017c-0.035,0,-0.07,0.006,-0.128,0.02c-0.102,0.027,-0.206,0.089,-0.273,0.163c-0.219,0.242,-0.219,0.534,0.002,0.801c0.029,0.035,0.358,0.41,0.802,0.913c0.643,0.727,0.789,0.873,0.819,0.895c0.115,0.088,0.241,0.15,0.563,0.279c0.101,0.04,0.198,0.078,0.29,0.114C5.636,8.183,5.631,8.054,5.637,7.922z" fill="#FFFFFF"/>
    <path d="M5.637,7.922c0.001,-0.021,0.003,-0.042,0.004,-0.063c-0.047,-0.018,-0.09,-0.036,-0.127,-0.05c-0.268,-0.107,-0.377,-0.159,-0.456,-0.217c-0.026,-0.025,-0.164,-0.164,-0.768,-0.846c-0.489,-0.553,-0.772,-0.877,-0.793,-0.902c-0.108,-0.131,-0.072,-0.191,-0.014,-0.255c0.011,-0.012,0.045,-0.033,0.065,-0.038c0.013,-0.003,0.022,-0.006,0.029,-0.007c0.01,0.001,0.024,0.004,0.042,0.008c0.037,0.008,0.117,0.042,0.163,0.072c0.06,0.051,0.355,0.315,0.766,0.69c0.66,0.603,0.77,0.702,0.797,0.724l0.026,0.019c0.038,0.026,0.2,0.099,0.407,0.175c0.109,-0.269,0.28,-0.501,0.519,-0.707c-0.138,-0.045,-0.374,-0.133,-0.459,-0.166c-0.109,-0.099,-0.424,-0.385,-0.726,-0.662c-0.076,-0.069,-0.743,-0.678,-0.832,-0.745c-0.136,-0.098,-0.333,-0.186,-0.492,-0.219c-0.089,-0.018,-0.151,-0.026,-0.214,-0.026c-0.083,0,-0.154,0.013,-0.236,0.034c-0.181,0.048,-0.354,0.152,-0.476,0.286c-0.357,0.394,-0.361,0.923,-0.011,1.347c0.042,0.051,0.449,0.514,0.811,0.924c0.768,0.868,0.835,0.918,0.878,0.95c0.15,0.115,0.299,0.19,0.663,0.336c0.101,0.04,0.319,0.126,0.55,0.213C5.662,8.513,5.623,8.224,5.637,7.922z" fill="#228BCB"/>
    <polygon points="16,13.6 0,13.6 0,15 2,15 2,16 3,16 3,15 13,15 13,16 14,16 14,15 16,15" fill="#383838" stroke-linejoin="miter"/>
  </g>
</svg>
