<?xml version="1.0" encoding="UTF-8"?>
<!DOCTYPE svg PUBLIC "-//W3C//DTD SVG 1.1//EN" "http://www.w3.org/Graphics/SVG/1.1/DTD/svg11.dtd">
<svg version="1.1" id="Layer_1" xmlns="http://www.w3.org/2000/svg" xmlns:xlink="http://www.w3.org/1999/xlink" x="0px" y="0px" width="16px" height="16px" viewBox="0 0 16 16" enable-background="new 0 0 16 16" xml:space="preserve">
  <g id="icon">
    <path d="M8.005,12.967c-0.32,0,-0.585,-0.218,-0.676,-0.557c-0.023,-0.085,-0.024,-0.183,-0.02,-1.487l0.005,-1.462L5.983,8.5c-1.063,-0.77,-1.064,-0.773,-1.131,-0.908l-0.006,-0.012c-0.013,-0.026,-0.037,-0.099,-0.051,-0.16c-0.091,-0.394,-0.013,-0.733,0.279,-1.208c0.152,-0.249,0.422,-0.581,0.673,-0.826c0.106,-0.101,0.916,-0.763,1.204,-0.983c0.59,-0.449,1.021,-0.652,1.538,-0.725c0.009,-0.001,0.041,-0.004,0.116,-0.004c0.176,0,0.399,0.016,0.443,0.028c0.17,0.047,0.263,0.104,0.413,0.258c0.194,0.199,0.358,0.403,0.546,0.682c0.155,0.227,0.488,0.775,0.572,0.934l0.056,0.106l0.975,0.563c0.587,0.339,0.998,0.582,1.042,0.613c0.21,0.145,0.32,0.39,0.274,0.61c-0.04,0.192,-0.145,0.346,-0.281,0.411c-0.078,0.038,-0.149,0.056,-0.224,0.056h0c-0.106,0,-0.231,-0.035,-0.403,-0.114c-0.263,-0.12,-1.747,-0.751,-1.869,-0.794c-0.121,-0.043,-0.305,-0.162,-0.378,-0.245c-0.025,-0.029,-0.143,-0.191,-0.29,-0.403c-0.063,-0.092,-0.134,-0.196,-0.199,-0.29c-0.068,-0.099,-0.129,-0.187,-0.164,-0.24l-0.196,-0.28l-0.219,0.2c-0.33,0.304,-0.782,0.65,-1.307,0.999c-0.316,0.214,-0.316,0.214,-0.316,0.275c0,0.054,0,0.054,0.753,0.741c0.931,0.847,0.932,0.85,0.992,0.969l0.004,0.007c0.068,0.138,0.098,0.269,0.09,0.401c-0.185,3.159,-0.188,3.191,-0.278,3.382c-0.091,0.19,-0.251,0.34,-0.418,0.393C8.152,12.956,8.078,12.967,8.005,12.967zM11.393,3.881c-0.501,0,-0.962,-0.306,-1.147,-0.762c-0.17,-0.415,-0.107,-0.88,0.168,-1.244c0.175,-0.232,0.433,-0.389,0.746,-0.455c0.056,-0.012,0.143,-0.019,0.232,-0.019c0.07,0,0.136,0.005,0.184,0.013c0.262,0.042,0.483,0.157,0.677,0.351c0.266,0.266,0.378,0.555,0.361,0.935c-0.023,0.555,-0.387,1.004,-0.928,1.144C11.591,3.868,11.493,3.881,11.393,3.881L11.393,3.881z" fill="#92CBEE" stroke="#0964B0" stroke-width="0.9" stroke-miterlimit="1"/>
    <circle cx="3.275" cy="12" r="2.7" fill="#C8C6C4" stroke="#383838" stroke-width="1" stroke-miterlimit="1"/>
    <circle cx="12.725" cy="12" r="2.7" fill="#C8C6C4" stroke="#383838" stroke-width="1" stroke-miterlimit="1"/>
  </g>
</svg>
