<?xml version="1.0" encoding="UTF-8"?>
<!DOCTYPE svg PUBLIC "-//W3C//DTD SVG 1.1//EN" "http://www.w3.org/Graphics/SVG/1.1/DTD/svg11.dtd">
<svg version="1.1" id="Layer_1" xmlns="http://www.w3.org/2000/svg" xmlns:xlink="http://www.w3.org/1999/xlink" x="0px" y="0px" width="24px" height="24px" viewBox="0 0 24 24" enable-background="new 0 0 24 24" xml:space="preserve">
  <g id="icon">
    <path d="M1.9202,22.7188c0.007,-0.0198,0.6666,-1.8803,0.8055,-2.7113C1.3093,18.8621,0.5,17.2523,0.5,15.5697c0,-3.3454,3.1402,-6.0671,7,-6.0671s7,2.7217,7,6.0672c0,3.3454,-3.1402,6.0671,-7,6.0671c-0.2957,0,-0.5932,-0.0162,-0.8854,-0.0481c-0.6093,0.2237,-4.2214,1.3995,-4.3815,1.4516l-0.4831,0.1572L1.9202,22.7188z" fill="#FFFFFF" opacity="0.5"/>
    <path d="M1.5072,22.0875c0.2189,-0.6159,0.5071,-1.5048,0.6582,-2.1001C0.8509,18.7767,0.1,17.1328,0.1,15.4549C0.1,11.8405,3.4429,8.9,7.5519,8.9s7.4519,2.9405,7.4519,6.555c0,3.6143,-3.3429,6.5549,-7.4519,6.5549c-0.2534,0,-0.5096,-0.0114,-0.7625,-0.0339c-0.8585,0.2992,-3.5403,1.1727,-4.0787,1.3479l-1.8579,0.6046L1.5072,22.0875zM7.5519,10.8231c-3.0486,0,-5.5288,2.0778,-5.5288,4.6318c0,1.2862,0.65,2.5267,1.7834,3.4033l0.4246,0.3283l-0.0567,0.5339c-0.0284,0.2676,-0.1181,0.6665,-0.2671,1.1891c1.3896,-0.4564,2.2756,-0.7527,2.3996,-0.8029l0.2275,-0.092l0.2458,0.0273c0.2551,0.0299,0.5143,0.0449,0.7718,0.0449c3.0486,0,5.5288,-2.0778,5.5288,-4.6318C13.0807,12.9009,10.6005,10.8231,7.5519,10.8231z" fill="#9171B2"/>
    <path d="M3,0v6h21V0H3zM14,4h-2V2h2V4zM18,4h-2V2h2V4zM22,4h-2V2h2V4z" fill="#6485C3"/>
    <path d="M18,4h-2V2h2V4zM14,2h-2v2h2V2zM5,7.9747c0.7932,-0.2093,1.6321,-0.3222,2.5,-0.3222c4.8799,0,8.85,3.5516,8.85,7.9172c0,1.2282,-0.3142,2.3919,-0.8746,3.4303H22V6H5V7.9747zM20,2v2h2V2H20z" fill="#FFFFFF" opacity="0.5"/>
    <path d="M16.3368,16c0.0086,-0.1425,0.0132,-0.2859,0.0132,-0.4303c0,-0.1916,-0.0081,-0.3815,-0.0231,-0.5697H20v1H16.3368zM20,11h-5.2769c0.2513,0.3169,0.477,0.6511,0.6748,1H20V11zM20,13h-4.1289c0.1248,0.3244,0.2267,0.6582,0.3039,1H20V13zM10,7.9747V6H9v1.7668C9.3403,7.819,9.674,7.8887,10,7.9747zM20,9h-7.5664c0.4863,0.2932,0.9382,0.6286,1.3497,1H20V9zM22,6v13h-6.5246c-0.3978,0.7372,-0.92,1.411,-1.5415,2H24V6H22zM5,7.9747V6H3v2.755C3.622,8.4251,4.2926,8.1614,5,7.9747z" fill="#7B7B7B"/>
  </g>
</svg>
