<?xml version="1.0" encoding="UTF-8"?>
<!DOCTYPE svg PUBLIC "-//W3C//DTD SVG 1.1//EN" "http://www.w3.org/Graphics/SVG/1.1/DTD/svg11.dtd">
<svg version="1.1" id="Layer_1" xmlns="http://www.w3.org/2000/svg" xmlns:xlink="http://www.w3.org/1999/xlink" x="0px" y="0px" width="24px" height="24px" viewBox="0 0 24 24" enable-background="new 0 0 24 24" xml:space="preserve">
  <g id="icon">
    <path d="M0,3h24v18H0V3z" fill="#7AA2D5"/>
    <path d="M0,3h24v18H0V3z" opacity="0.1"/>
    <polygon points="12,4.0815 9.5415,6.375 12,6.375 12,8.625 9.4215,8.625 12,10.9935 12,12 10.659,12 7.2,8.8815 7.2,12 4.8,12 4.8,9.0315 1.341,12 0,12 0,12 0,10.9935 2.658,8.625 0,8.625 0,6.375 2.4585,6.375 0,4.0065 0,3 1.341,3 4.8,6.1185 4.8,3 7.2,3 7.2,6.1185 10.659,3 12,3" fill="#FFFFFF" stroke-linejoin="miter"/>
    <polygon points="4.53,18.0345 3.582,18.888 3.6765,17.6325 2.4,17.4435 3.465,16.7325 2.823,15.642 4.056,16.0095 4.53,14.838 5.004,16.0095 6.2385,15.642 5.595,16.7325 6.66,17.4435 5.3835,17.634 5.478,18.8895" fill="#FFFFFF" stroke-linejoin="miter"/>
    <polygon points="17.37,6.591 16.7505,7.149 16.812,6.3285 15.9765,6.204 16.674,5.739 16.254,5.025 17.061,5.2665 17.37,4.5 17.6805,5.2665 18.4875,5.025 18.066,5.739 18.7635,6.204 17.9295,6.3285 17.991,7.149" fill="#FFFFFF" stroke-linejoin="miter"/>
    <polygon points="15.3195,11.127 14.7,11.685 14.7615,10.8645 13.926,10.74 14.6235,10.275 14.2035,9.561 15.0105,9.8025 15.321,9.036 15.6315,9.8025 16.4385,9.561 16.017,10.275 16.7145,10.74 15.8805,10.8645 15.942,11.685" fill="#FFFFFF" stroke-linejoin="miter"/>
    <polygon points="21.2475,9.315 20.628,9.873 20.6895,9.0525 19.854,8.928 20.5515,8.463 20.1315,7.749 20.9385,7.9905 21.249,7.224 21.5595,7.9905 22.3665,7.749 21.945,8.463 22.6425,8.928 21.8085,9.0525 21.87,9.873" fill="#FFFFFF" stroke-linejoin="miter"/>
    <polygon points="17.37,18.2985 16.7505,18.8565 16.812,18.036 15.9765,17.9115 16.674,17.4465 16.254,16.7325 17.061,16.974 17.3715,16.2075 17.682,16.974 18.489,16.7325 18.0675,17.4465 18.765,17.9115 17.931,18.036 17.9925,18.8565" fill="#FFFFFF" stroke-linejoin="miter"/>
    <polygon points="19.7355,11.157 19.9635,11.607 20.4735,11.679 20.1045,12.0285 20.1915,12.5235 19.7355,12.2895 19.2795,12.5235 19.3665,12.0285 18.9975,11.679 19.5075,11.607" fill="#FFFFFF" stroke-linejoin="miter"/>
    <polygon points="7.386,6.375 11.106,3 12,3 8.28,6.375" fill="#F37980" stroke-linejoin="miter"/>
    <polygon points="3.72,8.625 0,12 0.894,12 4.614,8.625" fill="#F37980" stroke-linejoin="miter"/>
    <polygon points="8.895,8.625 12,11.3295 12,12 7.9995,8.625" fill="#F37980" stroke-linejoin="miter"/>
    <polygon points="0,3 0,3.7455 2.9055,6.375 3.7995,6.375" fill="#F37980" stroke-linejoin="miter"/>
    <polygon points="5.199,6.75 5.199,3 6.7995,3 6.7995,6.75 12,6.75 12,8.25 6.7995,8.25 6.7995,12 5.2005,12 5.2005,8.25 0,8.25 0,6.75 5.2005,6.75" fill="#F37980" stroke-linejoin="miter"/>
    <path d="M24,21H0V3h24V21zM1.5,19.5h21V4.5H1.5V19.5z" opacity="0.2"/>
  </g>
</svg>
