<?xml version="1.0" encoding="UTF-8"?>
<!DOCTYPE svg PUBLIC "-//W3C//DTD SVG 1.1//EN" "http://www.w3.org/Graphics/SVG/1.1/DTD/svg11.dtd">
<svg version="1.1" id="Layer_1" xmlns="http://www.w3.org/2000/svg" xmlns:xlink="http://www.w3.org/1999/xlink" x="0px" y="0px" width="24px" height="24px" viewBox="0 0 24 24" enable-background="new 0 0 24 24" xml:space="preserve">
  <g id="icon">
    <rect x="0" y="18" width="24" height="3" fill="#F37980"/>
    <rect x="0" y="6" width="24" height="12" fill="#FFFFFF"/>
    <rect x="0" y="3" width="24" height="3" fill="#F37980"/>
    <path d="M12.9915,16.2345c0.483,0,1.1685,0.3255,1.1685,0.3255s-0.8865,0.69,-2.256,0.69s-2.2155,-0.69,-2.2155,-0.69c0.201,-0.1215,0.726,-0.366,1.0875,-0.366h0.0405c0.5235,0,0.6855,0.4065,1.047,0.447C12.2265,16.6815,12.549,16.2345,12.9915,16.2345" fill="#77A1D5"/>
    <path d="M13.113,15.666c-0.5235,0.0405,-0.6855,-0.3255,-1.1685,-0.285c-0.483,0,-0.765,0.285,-1.128,0.3255c-0.363,0,-0.846,-0.366,-1.128,-0.3255c-0.2415,0,-0.927,0.285,-1.1685,0.366c0.081,0.081,0.1605,0.162,0.2415,0.2445h6.447c0.0405,-0.0405,0.081,-0.081,0.1215,-0.081c-0.201,-0.162,-0.645,-0.528,-1.1685,-0.528C13.4355,15.3,13.6365,15.5835,13.113,15.666" fill="#77A1D5"/>
    <path d="M15.2475,14.487c-0.4035,0,-0.726,0.4065,-1.047,0.4065c-0.3225,0,-0.726,-0.4065,-1.128,-0.4065c-0.4035,0,-0.8055,0.4065,-1.1685,0.4065s-0.6855,-0.4065,-1.1685,-0.4065s-0.726,0.447,-1.0875,0.4065c-0.363,-0.0405,-0.6855,-0.447,-1.047,-0.447c-0.2415,0,-0.6045,0.2445,-0.846,0.4065c0.081,0.081,0.1215,0.2025,0.201,0.285h8.0595c0.0405,-0.0405,0.081,-0.1215,0.1215,-0.162C16.0545,14.8125,15.6105,14.5275,15.2475,14.487" fill="#77A1D5"/>
    <path d="M11.904,13.797c-0.564,0,-0.9675,0.5685,-0.927,0.5685h1.893C12.87,14.325,12.4275,13.7565,11.904,13.797" fill="#77A1D5"/>
    <path d="M15.288,14.121c-0.3225,0,-0.282,-0.081,-0.4425,-0.2025c-0.081,0.162,-0.444,0.4065,-0.444,0.4065h2.2155c0.0405,-0.081,0.081,-0.2025,0.1215,-0.285c-0.1605,-0.1215,-0.3225,-0.2445,-0.483,-0.2445C15.933,13.797,15.6105,14.1615,15.288,14.121" fill="#77A1D5"/>
    <path d="M8.9625,13.959c-0.1605,0.081,-0.1215,0.162,-0.444,0.2025c-0.3225,0,-0.645,-0.366,-0.9675,-0.366c-0.1215,0,-0.2415,0.081,-0.3225,0.162c0.0405,0.1215,0.1215,0.285,0.201,0.4065H9.444C9.405,14.3655,9.042,14.121,8.9625,13.959" fill="#77A1D5"/>
    <path d="M8.721,13.0245c-0.483,-0.162,-0.846,0.3255,-1.209,0.366c-0.2415,0,-0.483,-0.162,-0.6045,-0.2445c0.0405,0.162,0.081,0.285,0.1215,0.447h1.8135C8.841,13.5525,8.721,13.3095,8.721,13.0245" fill="#77A1D5"/>
    <path d="M16.3365,13.3905c-0.3225,0,-0.726,-0.528,-1.209,-0.366c0,0.285,-0.1215,0.528,-0.1215,0.528h1.8135l0.201,-0.528C17.0205,13.0245,16.659,13.3905,16.3365,13.3905" fill="#77A1D5"/>
    <path d="M11.4195,13.5525h0.9675c0,0,0,-0.285,-0.483,-0.285C11.4195,13.2675,11.46,13.5525,11.4195,13.5525" fill="#77A1D5"/>
    <path d="M10.776,7.092c-0.201,0.1215,-0.2415,2.235,-0.2415,2.235s-0.765,-1.422,-1.047,-2.031c0.363,-0.2025,0.726,-0.3255,1.128,-0.447L10.776,7.092" fill="#F7CE73"/>
    <path d="M13.1925,8.2305c0,0,0,0.813,0,1.0965c0.4035,-0.69,0.8055,-1.422,1.2495,-2.1135c-0.081,-0.0405,-0.201,-0.081,-0.3225,-0.162c-0.201,-0.081,-0.4035,-0.162,-0.6045,-0.2025c-0.1215,-0.0405,-0.201,-0.081,-0.3225,-0.081h-0.0405c-0.1605,0.4875,-0.444,1.4625,-0.444,1.4625H13.1925" fill="#F7CE73"/>
    <polygon points="10.614,11.2365 9.768,11.2365 9.768,10.911" fill="#F7CE73" stroke-linejoin="miter"/>
    <path d="M10.614,11.1555v-0.447c-0.2415,-0.162,-0.6045,-0.528,-0.846,-0.6495v0.69L10.614,11.1555" fill="#F7CE73"/>
    <path d="M6.7455,11.4405c0,0.1215,0,0.285,0,0.4065c0,0.285,0.0405,0.528,0.0405,0.7725h1.773v-1.137L6.7455,11.4405" fill="#F7CE73"/>
    <path d="M7.1085,9.8955c-0.1605,0.366,-0.282,0.7725,-0.3225,1.179l1.773,0.162v-0.813L7.1085,9.8955" fill="#F7CE73"/>
    <path d="M7.9545,8.5545c-0.282,0.3255,-0.483,0.69,-0.6855,1.056l1.29,0.609v-1.137L7.9545,8.5545" fill="#F7CE73"/>
    <path d="M9.768,9.7335l0.8055,0.7725v-0.813L9.123,7.4985c-0.3225,0.2025,-0.645,0.4875,-0.927,0.7725c0.1605,0.2025,0.444,0.447,0.564,0.609h1.008V9.7335" fill="#F7CE73"/>
    <path d="M17.223,11.3985l-2.0145,0.162v1.0965h1.9335C17.1015,12.618,17.223,12.1305,17.223,11.3985" fill="#F7CE73"/>
    <path d="M17.142,11.0745c-0.081,-0.732,-0.3225,-1.26,-0.3225,-1.26l-1.6125,0.6495v0.813L17.142,11.0745" fill="#F7CE73"/>
    <path d="M16.659,9.489c-0.201,-0.366,-0.4035,-0.69,-0.6855,-1.0155c-0.282,0.2025,-0.5235,0.366,-0.8055,0.5685v1.179C15.6915,9.9765,16.1745,9.7335,16.659,9.489" fill="#F7CE73"/>
    <polygon points="13.1925,11.277 13.998,11.2365 13.998,10.911" fill="#F7CE73" stroke-linejoin="miter"/>
    <path d="M13.1925,10.749v0.366l0.8055,-0.366v-0.69C13.7175,10.2615,13.1925,10.749,13.1925,10.749" fill="#F7CE73"/>
    <path d="M15.087,8.8395c0,0,0.483,-0.4875,0.645,-0.6495c-0.282,-0.285,-0.645,-0.5685,-1.008,-0.7725c-0.5235,0.7725,-1.008,1.503,-1.5315,2.2755c0,0.285,0,0.5685,0,0.894c0.282,-0.2445,0.564,-0.4875,0.8055,-0.7725V8.88L15.087,8.8395" fill="#F7CE73"/>
    <path d="M11.379,13.065c-0.483,1.869,-2.1765,1.503,-2.4585,0.081V9.0825h0.6045v3.9825C9.768,13.5525,10.977,13.7145,11.379,13.065" fill="#F37980"/>
    <path d="M14.322,9.0825v3.9825c-0.282,0.447,-1.41,0.6495,-1.8135,0c0.483,1.869,2.1765,1.503,2.4585,0.081V9.0825H14.322" fill="#F37980"/>
    <path d="M10.9365,10.668l1.9335,0.4875V8.514c-0.8865,0.0405,-1.6515,-1.6245,-0.0405,-1.707c-1.5315,-0.2025,-1.7325,0.162,-1.8945,0.5685v3.2925" fill="#F37980"/>
    <path d="M9.8895,13.2675h0.8865c0.363,0,0.5235,-0.4875,0.5235,-0.4875h-0.8055C10.05,12.7395,9.8895,13.2675,9.8895,13.2675" fill="#F37980"/>
    <path d="M13.314,12.7395h-0.8055c0,0,0.1605,0.4875,0.5235,0.4875h0.8865C13.9185,13.2675,13.7565,12.7395,13.314,12.7395" fill="#F37980"/>
    <rect x="9.687" y="12.4965" width="4.4325" height="0.162" fill="#F37980"/>
    <polygon points="11.622,12.2925 11.904,12.048 12.186,12.2925 12.267,12.2115 11.985,11.967 12.267,11.682 12.186,11.601 11.9445,11.8035 11.9445,11.478 11.823,11.478 11.823,11.8035 11.622,11.601 11.541,11.682 11.823,11.967 11.541,12.2115" fill="#F37980" stroke-linejoin="miter"/>
    <polygon points="14.1195,11.6835 14.0385,11.6025 13.797,11.805 13.797,11.4795 13.6755,11.4795 13.6755,11.805 13.4745,11.6025 13.3935,11.6835 13.6755,11.9685 13.3935,12.213 13.4745,12.294 13.7565,12.0495 14.0385,12.294 14.1195,12.213 13.8375,11.9685" fill="#F37980" stroke-linejoin="miter"/>
    <polygon points="12.549,12.2925 12.831,12.048 13.113,12.2925 13.194,12.2115 12.912,11.967 13.194,11.682 13.113,11.601 12.87,11.805 12.87,11.4795 12.75,11.4795 12.75,11.805 12.549,11.6025 12.468,11.6835 12.75,11.9685 12.468,12.213" fill="#F37980" stroke-linejoin="miter"/>
    <polygon points="10.695,12.2925 10.977,12.048 11.259,12.2925 11.34,12.2115 11.058,11.967 11.34,11.682 11.259,11.601 11.0175,11.8035 11.0175,11.478 10.896,11.478 10.896,11.8035 10.695,11.601 10.614,11.682 10.896,11.967 10.614,12.2115" fill="#F37980" stroke-linejoin="miter"/>
    <polygon points="9.768,12.2925 10.05,12.0495 10.332,12.294 10.413,12.213 10.131,11.9685 10.413,11.6835 10.332,11.6025 10.0905,11.805 10.0905,11.4795 9.969,11.4795 9.969,11.805 9.768,11.6025 9.687,11.6835 9.969,11.9685 9.687,12.213" fill="#F37980" stroke-linejoin="miter"/>
    <path d="M24,21H0V3h24V21zM1.5,19.5h21V4.5H1.5V19.5z" fill="#211F20" opacity="0.20"/>
  </g>
</svg>
