<?xml version="1.0" encoding="UTF-8"?>
<!DOCTYPE svg PUBLIC "-//W3C//DTD SVG 1.1//EN" "http://www.w3.org/Graphics/SVG/1.1/DTD/svg11.dtd">
<svg version="1.1" id="Layer_1" xmlns="http://www.w3.org/2000/svg" xmlns:xlink="http://www.w3.org/1999/xlink" x="0px" y="0px" width="24px" height="24px" viewBox="0 0 24 24" enable-background="new 0 0 24 24" xml:space="preserve">
  <g id="icon">
    <rect x="0" y="9" width="24" height="6" fill="#FFFFFF"/>
    <rect x="0" y="15" width="24" height="6" fill="#77A1D5"/>
    <rect x="0" y="15" width="24" height="6" opacity="0.15"/>
    <rect x="0" y="3" width="24" height="6" fill="#F37980"/>
    <path d="M7.9274,9.5091c1.279,-0.4548,2.6911,-0.706,4.0949,-0.706c1.412,0,2.7764,0.2052,4.1885,0.706L17.25,7.4042L16.5259,6.14l-1.3184,0.5435l-0.9063,-1.0393l-1.1805,0.7241l-1.0968,-0.8587l-1.0442,0.8587l-1.2265,-0.7241l-0.8702,1.0607l-1.3102,-0.5435l-0.7372,1.2429L7.9274,9.5091z" fill="#FFFFFF"/>
    <path d="M14.5721,8.918l0.5862,-2.123l1.3283,-0.4942l0.6305,1.1247l-0.9063,1.9686C15.6639,9.1692,15.3438,9.0757,14.5721,8.918L14.5721,8.918z" fill="#77A1D5"/>
    <path d="M11.2013,8.6931c0.729,-0.0246,1.0968,-0.0246,1.6879,0.0246l0.2315,-2.2165l-1.0968,-0.8144l-0.995,0.8144L11.2013,8.6931L11.2013,8.6931z" fill="#77A1D5"/>
    <path d="M7.9766,9.3942c0.6354,-0.2512,0.9556,-0.3399,1.5467,-0.4761l-0.5418,-2.0556l-1.3628,-0.5632l-0.6354,1.0836L7.9766,9.3942L7.9766,9.3942z" fill="#77A1D5"/>
    <path d="M12.9368,8.6931l0.1823,-2.1919l1.1805,-0.6551l0.8571,0.949l-0.5845,2.123C14.0303,8.8031,13.7052,8.7374,12.9368,8.6931L12.9368,8.6931z" fill="#77A1D5"/>
    <path d="M9.5216,8.918c0.683,-0.1149,1.0968,-0.1806,1.678,-0.2003l-0.174,-2.2165l-1.2298,-0.6781l-0.8177,1.018L9.5216,8.918L9.5216,8.918z" fill="#77A1D5"/>
    <path d="M12.9368,8.6931l0.1823,-2.1919l1.1805,-0.6551l0.8571,0.949l-0.5845,2.123C14.0303,8.8031,13.7052,8.7374,12.9368,8.6931L12.9368,8.6931z" opacity="0.5"/>
    <path d="M9.5216,8.918c0.683,-0.1149,1.0968,-0.1806,1.678,-0.2003l-0.174,-2.2165l-1.2298,-0.6781l-0.8177,1.018L9.5216,8.918L9.5216,8.918z" opacity="0.5"/>
    <path d="M7.7451,8.3992c0.3251,0.0213,0.5024,0.0213,0.7815,-0.0903c0.2709,-0.1363,0.3546,-0.3185,0.4532,-0.4302c0.0443,0.2479,0.0443,0.4991,-0.2791,0.6797C8.3887,8.7374,7.9766,8.6931,7.7451,8.3992L7.7451,8.3992z" fill="#FFFFFF"/>
    <path d="M13.2077,8.2859l0.1823,0.0213c0,0.0361,0,0.046,0,0.069c0,0.0066,0,0.0131,0,0.0213c0,0,0,0.0213,-0.0443,0.0213h-0.0525h-0.0854v-0.0443L13.2077,8.2859z" fill="#F37980"/>
    <path d="M13.4786,8.4895v0.069h0.1379c0.0493,-0.046,0.0493,-0.046,0.0493,-0.069l-0.1428,-0.046L13.4786,8.4895z" fill="#F37980"/>
    <path d="M13.9761,8.3779v0.0443h0.0985c0,0,0,0,0.0394,-0.0213c0,0,0,-0.0213,0,-0.0443v-0.0246l-0.1379,-0.0213V8.3779z" fill="#F37980"/>
    <path d="M14.2519,8.4682v0.0903h0.1379c0.0443,0,0.0443,0,0.0443,-0.046v-0.0213c0,0,0,0,0,-0.046l-0.0887,-0.0213L14.2519,8.4682z" fill="#F37980"/>
    <path d="M14.6164,7.112h-0.0443c-0.0443,0.0213,-0.1822,0.0213,-0.2266,0c-0.0443,0,-0.0936,0,-0.0936,-0.046c-0.0493,0,-0.0493,0,-0.0887,-0.046l-0.0493,0.0246V7.02c0.1379,0,0.1379,0,0.2315,-0.0197c-0.0443,0.0197,-0.0936,0.0197,-0.1412,0.0197c0.0493,0,0.0969,0,0.1412,0c0.0148,-0.0066,0.0246,-0.0181,0.0328,-0.0279c0.0312,-0.0131,0.0558,-0.041,0.0558,-0.041V6.91v-0.0246h-0.0443c-0.0443,0.046,-0.0887,0.046,-0.1379,0.0246c-0.0493,0,-0.0887,0,-0.1379,-0.0246c-0.0394,0,-0.0394,0,-0.0837,0c-0.0542,0,-0.0542,-0.0213,-0.0542,-0.0213c-0.133,-0.023,-0.2217,0,-0.2709,0.0213c-0.0328,0.0082,-0.0525,0.0181,-0.0706,0.0263c0.0148,-0.0082,0.0361,-0.0181,0.0706,-0.0263c-0.0887,0,-0.0887,0.0246,-0.1823,0.0919l0.2315,0.1576c0.0443,-0.0493,0.1773,-0.0213,0.1773,-0.0213c-0.0328,0,-0.064,0.0033,-0.0919,0.0066c0.0246,0.0016,0.0542,0.0066,0.0919,0.0148c0.0443,0.0213,0.0443,0.0213,0.0443,0.0213c0,-0.0066,0,-0.0115,-0.0016,-0.0148c0.0115,0.0066,0.0246,0.0115,0.0361,0.0148c-0.0115,0,-0.0213,0,-0.0345,0c0.0296,0,0.0542,0.0066,0.0722,0.0131c0.0082,0.0033,0.0181,0.0066,0.0246,0.0115c0.1297,0.0197,0.1773,0.0657,0.2709,0.0657h0.0443c0.0887,-0.046,0.1379,-0.0657,0.1822,-0.0903c-0.0443,0,-0.0936,0.0443,-0.1822,0.0443c0.0722,0,0.1199,-0.0296,0.1822,-0.0509v0.0066l0.0115,-0.0115c0.0115,-0.0033,0.0213,-0.0082,0.0328,-0.0115V7.112H14.6164z" fill="#F37980"/>
    <path d="M13.7544,7.1349c0,0,0.0361,-0.0082,0.0854,-0.0148C13.8053,7.1169,13.779,7.1218,13.7544,7.1349z" fill="#F37980"/>
    <path d="M14.9842,7.5191c0.3596,0.069,0.6797,0.1346,0.9556,0.2249c0.3152,0.1149,0.5862,0.2036,0.862,0.3399l-0.4532,1.018c-0.2758,-0.1149,-0.55,-0.1822,-0.8177,-0.2709c-0.2758,-0.0919,-0.5467,-0.1609,-0.8209,-0.2709L14.9842,7.5191z" fill="#FFFFFF"/>
    <path d="M12.9203,7.1267l-0.0312,0.0082l0.0246,-0.0115l-0.0246,-0.0115v0.0213l0.0493,0.0657l-0.0985,0.046v0.069l-0.133,0.0246l0.0936,0.0197l-0.0936,0.0657l-0.2266,0.0263l-0.1412,-0.0263v-0.0213v-0.0197l-0.0854,-0.0443l-0.0394,-0.0919h-0.0542l-0.0328,-0.0854l-0.0115,-0.0066l0.0049,-0.0099l-0.0049,-0.0115l0.0345,-0.0525l-0.0345,-0.0148l0.0066,-0.0181l-0.0066,-0.0033l0.0443,-0.0936l0.0936,-0.0197v-0.046V6.864v-0.023v-0.0246v-0.0443v-0.069l-0.0394,-0.069l0.0394,-0.0246v0.0246l0.0854,0.0246l0.0525,0.0657v-0.0213v-0.0443c0,-0.0246,0,-0.0246,0.0887,-0.0493l0.0493,0.0131v-0.0131l0.0394,0.0246v0.046v0.0213v0.0213l0.0443,-0.0213v-0.0213v-0.0443h0.0066c0.0099,-0.0164,0.0312,-0.0246,0.0854,-0.0246h0.0936h0.0394v0.0246l-0.0394,0.1133v0.046c0,-0.0213,0.0394,0,0.0394,0V6.91l0.0493,0.041l0.0887,0.1609l-0.0394,0.0099v0.0115L12.9203,7.1267z" fill="#F7CE73"/>
    <path d="M12.0173,7.1349l0.0049,0.0197h-0.0394v0.0903h-0.0525v0.0919l-0.1264,0.0148l-0.0066,0.0049l-0.0049,-0.0049l-0.0394,0.0049l0.0443,0.0443l-0.0443,0.0493h-0.1773h-0.0443h-0.0542h-0.0443v-0.0493l-0.0443,-0.0213v0.0016l-0.0443,-0.0246h-0.0837v-0.0443l-0.0197,-0.0558l-0.023,-0.0345l-0.0148,0.023v-0.046v-0.0197v-0.0246v-0.0213V7.112v-0.0263V7.066v-0.0657l0.0985,-0.0493l-0.0394,-0.0657l0.0837,-0.0443v-0.046l-0.0837,-0.046v-0.0657v-0.023h0.0837l0.0887,0.023l0.0443,0.0657v-0.0443v-0.0213c0,0,0,0,0.0985,-0.0706l0.0887,0.0493v0.023v0.0443v0.0213h0.0394v-0.0213c0,-0.0082,0,-0.0164,0,-0.0213l0,0v-0.0213h0.0016c0.0033,-0.0246,0.0131,-0.0296,0.0476,-0.046v-0.0246h0.0936h0.0443v0.0706l-0.0936,0.0657v0.069h0.0493l0.0443,0.1149l0.0936,0.069l0.0328,0.1297l-0.0328,-0.0246v0.0066l0.023,0.0263L12.0173,7.1349z" fill="#F7CE73"/>
    <path d="M11.748,6.7458l-0.0082,-0.0066C11.7447,6.7425,11.7464,6.7442,11.748,6.7458z" fill="#F7CE73"/>
    <polygon points="12.0222,7.1349 12.0157,7.13 12.0173,7.1366" fill="#F7CE73" stroke-linejoin="miter"/>
    <polygon points="12.4787,7.946 12.4688,7.9411 12.4705,7.9477" fill="#F7CE73" stroke-linejoin="miter"/>
    <path d="M12.4721,7.9477l-0.0131,0.0033l-0.0279,-0.0246l-0.0066,-0.0082l0.046,0.023l-0.0394,-0.1084l-0.0936,-0.0903l-0.0394,-0.0903l-0.0443,-0.0246v-0.041l0.0854,-0.0919v-0.0427h-0.0394h-0.0443v0.0197c-0.064,0,-0.0837,0,-0.0903,0.0213h-0.0049v-0.0213l-0.1379,-0.0197l-0.0394,0.0427v0.046v0.0213l-0.0525,-0.069l-0.0854,-0.0213h-0.0936v0.0213v0.046l0.0936,0.0887v0.0493c0,0,-0.0493,0.0213,-0.0936,0.046v0.069v0.0099l-0.0493,0.0099l-0.0394,0.0903v0.0443l0.0394,0.0805v0.0115l0.0033,-0.0049l0.046,0.0919v0.046h0.0936l0.0854,0.046v0.046v0.0213h0.0936h0.2299v-0.0213v-0.046v-0.046l0.1379,-0.046v-0.064h0.0394l-0.0394,-0.0706l0.0887,-0.0213L12.4721,7.9477z" fill="#F7CE73"/>
    <path d="M12.1601,7.5175C12.1601,7.5175,12.1601,7.5191,12.1601,7.5175L12.1601,7.5175l0.0246,0.0197C12.1766,7.5323,12.17,7.5274,12.1601,7.5175c0,0.0066,0,0.0131,0,0.0213V7.5175z" fill="#F7CE73"/>
    <path d="M12.2127,7.5618L12.2127,7.5618L12.2127,7.5618z" fill="#F7CE73"/>
    <path d="M12.211,7.5602c-0.0016,-0.0016,-0.0066,-0.0066,-0.0164,-0.0131L12.211,7.5602z" fill="#F7CE73"/>
    <path d="M13.3324,8.1365L13.3324,8.1365L13.3324,8.1365z" fill="#F7CE73"/>
    <path d="M13.3324,8.1365c0.0049,-0.0033,0.0066,-0.0066,0.0082,-0.0082L13.3324,8.1365z" fill="#F7CE73"/>
    <path d="M13.3324,8.1365c-0.0082,0.0066,-0.0197,0.0181,-0.0394,0.0345L13.3324,8.1365z" fill="#F7CE73"/>
    <path d="M13.2077,7.02c0.0016,0.0016,0.0049,0.0033,0.0066,0.0033c0.0016,-0.0016,0.0016,-0.0049,0.0033,-0.0066C13.2077,7.02,13.2077,7.02,13.2077,7.02z" fill="#F7CE73"/>
    <path d="M14.7543,7.4042v0.0213v0.1149v0.0213c0,0.0246,-0.041,0.0443,-0.0443,0.046v0.0016v-0.0016c0,0.0033,0,0.0049,0,0.0066c0,-0.0016,0,-0.0033,0,-0.0049l0.0082,0.0164c0.0066,0.0016,0.0164,0.0016,0.0361,0.0016v0.0706c0,0.0164,-0.0213,0.0213,-0.0345,0.023c-0.0082,0.0066,-0.0164,0.0148,-0.023,0.023c-0.0099,0.0181,-0.0246,0.0427,-0.0312,0.064c-0.0016,0.0082,-0.0049,0.0148,-0.0049,0.023c0,0.0246,0,0.0936,0,0.1133v0.0213c0,0.0181,0,0.0361,0,0.069c0,0.0082,0,0.0148,0,0.0246v0.064v0.046c-0.0148,0.0082,-0.0263,0.0148,-0.0394,0.023c-0.0213,0.0328,-0.0427,0.0591,-0.0624,0.0805c-0.0082,0.0148,-0.0181,0.0263,-0.0312,0.0328v0.0903l-0.0493,0.0443l-0.133,-0.0213v-0.0213l0.0887,-0.1133c0,-0.0378,0,-0.0821,0,-0.1149c0,-0.0887,-0.0443,-0.11,-0.0887,-0.1346c-0.0443,0.0887,-0.0936,0.1346,-0.0936,0.1346c-0.0082,0,-0.0131,0.0033,-0.0181,0.0049l-0.0312,0.087c0,0.0213,0,0.0213,-0.0394,0.0213l-0.0493,0.0443l-0.1379,-0.0213l0.0542,-0.0213c0,-0.0213,0,-0.069,0,-0.069l0.133,-0.1806c-0.0493,0.0246,-0.0887,0.0246,-0.0887,0.0246c-0.0279,0,-0.0361,-0.0099,-0.041,-0.0213l-0.0033,-0.0016c-0.0509,0.023,-0.0542,0.0805,-0.0919,0.0099c-0.0049,0.0082,-0.0049,0.0148,-0.0049,0.0148h-0.0443h-0.0443c0,0.0394,-0.0493,0.0706,-0.0887,0.1166c0,0.0066,-0.0016,0.0115,-0.0033,0.0164c0.0016,-0.0049,0.0033,-0.0099,0.0033,-0.0164c-0.0197,0.023,-0.0361,0.0476,-0.0427,0.0788c0.0099,-0.0296,0.0296,-0.0427,0.0394,-0.0624c-0.0115,0.0378,-0.0443,0.0755,-0.0443,0.0936v0.1346c0,0,0,0.0213,-0.0394,0.046v0.0213l-0.1428,-0.046c0,-0.0082,0.0033,-0.0131,0.0049,-0.0213l-0.0049,-0.0016c0.0016,-0.0033,0.0049,-0.0066,0.0066,-0.0115c0.0066,-0.0181,0.0181,-0.0328,0.0312,-0.0443c0.0312,-0.0361,0.0558,-0.041,0.0558,-0.0575V8.125c0,0,0,-0.064,0.0493,-0.1133c-0.0197,0,-0.0296,-0.0033,-0.0361,-0.0082c0.0263,0.0378,-0.0115,0.0558,-0.0115,0.0558v-0.0706c-0.0099,0,-0.0197,0.0016,-0.0296,0.0033c-0.0049,0,-0.0099,0.0016,-0.0164,0.0033c-0.0049,0.0016,-0.0115,0.0033,-0.0164,0.0033c-0.0099,0.0033,-0.0213,0.0066,-0.0312,0.0115c0,0.0279,-0.0279,0.0591,-0.0525,0.0821c-0.0213,0.0394,-0.0361,0.0772,-0.0361,0.0772c0,0.046,0,0.0919,0,0.1149l-0.0443,0.0213l-0.1822,-0.0213c0,-0.069,0.0854,-0.1149,0.0854,-0.1149s0,0.0016,0,0.0049c0.0164,-0.0181,0.0296,-0.0296,0.0542,-0.0509l0,0l0,0c0,-0.064,0.0443,-0.064,0.0443,-0.1133c0,0.0131,0,0.023,-0.0016,0.0328c0,-0.0049,0.0016,-0.0082,0.0016,-0.0082c0.0131,-0.0131,0.0181,-0.0246,0.0197,-0.0345l-0.0197,0.0099c0,0,0,-0.0657,0.0443,-0.0854c-0.0443,-0.0493,-0.0443,-0.069,0,-0.1149c-0.0115,0.0049,-0.0197,0.0082,-0.0263,0.0082c-0.0213,0.0016,-0.0296,-0.0131,-0.0624,-0.0279l0.0443,-0.0493v-0.0197c-0.0263,0,-0.0345,-0.0016,-0.0296,-0.0115c-0.0049,-0.0099,0.0033,-0.023,0.0296,-0.0345c0,-0.0246,0.0443,-0.0493,0.0443,-0.0903l0.0296,-0.0312l-0.0082,-0.0033c-0.0213,0.0099,-0.023,0.0115,-0.023,0.0115v-0.0213v-0.0213v-0.0246c0,-0.0131,0,-0.0279,0,-0.0427h-0.0443c-0.0443,0,-0.0443,0,-0.0969,0c-0.0854,-0.0263,-0.0854,-0.069,-0.0854,-0.069s0,-0.0033,0.0016,-0.0099c-0.0016,-0.0082,-0.0016,-0.0148,-0.0016,-0.0148s0.0854,-0.0443,0.0854,-0.1133c0.0361,0,0.0476,-0.041,0.0509,-0.0673c-0.0525,-0.046,-0.1363,-0.0936,-0.1363,-0.0936c0,-0.0066,0,-0.0131,0,-0.0197l0,0c0,-0.0164,0,-0.0279,0.0049,-0.0361c0,-0.0016,0.0016,-0.0033,0.0016,-0.0049c0,0,0,0,0.0016,0c0.0016,-0.0033,0.0049,-0.0049,0.0082,-0.0082c-0.0016,0,-0.0049,0.0016,-0.0066,0.0016c0.0099,-0.0164,0.0312,-0.0279,0.0755,-0.0394l0.1412,0.0427c0,0,0.0131,0,0.0312,-0.0033c0.0164,-0.0131,0.0361,-0.0279,0.0575,-0.0394l0.2315,0.179h0.1625c0.0049,-0.0066,0.0099,-0.0148,0.0148,-0.0213c0,0.0082,-0.0016,0.0148,-0.0016,0.0213h0.0016c-0.0016,0.0016,-0.0016,0.0033,-0.0033,0.0049c-0.0131,0.0919,-0.0985,0.1314,-0.2233,0.1543c0.0493,0.0443,0.0936,0.11,0.1379,0.1363l0.0887,0.0197c0.0345,0,0.041,0,0.0427,0.0099c0.0066,0.0033,0.0115,0.0049,0.0197,0.0082c0.0788,-0.0181,0.0887,-0.0197,0.2085,-0.0378h0.0493h0.0493h0.0443c0,0,0.0443,0,0.0887,0h0.0936c0.0443,0,0.0443,0,0.0887,0l0.0936,-0.0493v-0.0197C14.7543,7.3829,14.7543,7.4042,14.7543,7.4042z" fill="#F7CE73"/>
    <polygon points="13.4572,7.575 13.4802,7.5618 13.4687,7.5569" fill="#F7CE73" stroke-linejoin="miter"/>
    <path d="M13.9761,8.038c0,-0.0066,0,-0.0131,0,-0.0246c-0.0164,0.0082,-0.0246,0.0164,-0.0312,0.0246H13.9761z" fill="#F7CE73"/>
    <path d="M14.0303,8.0134c-0.023,0,-0.0361,0.0099,-0.0443,0.0197C13.9941,8.0298,14.0056,8.0232,14.0303,8.0134z" fill="#F7CE73"/>
    <path d="M13.3456,8.125l-0.0033,0.0049C13.3439,8.1266,13.3456,8.1266,13.3456,8.125z" fill="#F7CE73"/>
    <path d="M8.2475,7.1563l0.1872,0.1839l-0.2315,0.0854v0.2266v0.0246v0.0213l-0.2266,-0.1806l-0.2709,0.11v-0.0197v-0.2496l-0.1872,-0.179l0.0263,0.0049l-0.0263,-0.0296l0.3251,-0.0903v-0.2036v-0.023l0.2266,0.1593l0.2266,-0.1149c-0.0525,0.0312,-0.0936,0.0558,-0.1248,0.0739l0.1248,-0.0493L8.2475,7.1563z" fill="#F7CE73"/>
    <path d="M16.3929,7.0003l-0.0985,-0.2512c0,0,0,0,-0.0296,0.0361l-0.0049,0.0066c-0.0197,0.023,-0.0493,0.0607,-0.0985,0.1182l-0.2709,-0.069l0.0493,0.2249l-0.2315,0.2249l0.2709,0.069l0.0443,0.2693l0.1872,-0.1757l0.2217,0.0427v-0.2479l0.1822,-0.1806L16.3929,7.0003z" fill="#F7CE73"/>
    <path d="M8.9798,6.841c0.2709,-0.1149,0.6305,-0.2299,0.9556,-0.2709c0.4088,-0.069,0.7241,-0.069,1.0919,-0.069l0.0394,0.5188c-0.2709,0,-0.4482,0,-0.9999,0.0657c-0.5024,0.0706,-0.6797,0.1149,-0.9556,0.2545L8.9798,6.841z" fill="#F37980"/>
    <path d="M9.2507,7.8114l0.1379,0.5648c0.2758,-0.069,0.5467,-0.1133,0.9112,-0.2052c0.2709,-0.046,0.5911,-0.046,0.9014,-0.046l-0.0854,-0.5632c-0.2709,-0.0213,-0.6387,-0.0213,-0.9539,0.0246C9.7975,7.6292,9.5216,7.7227,9.2507,7.8114L9.2507,7.8114z" fill="#F37980"/>
    <path d="M8.0242,14.883c0.133,2.0556,2.274,3.5957,4.1343,3.5021c1.8159,0.0443,3.7796,-1.4481,3.9619,-3.4759V9.7538H8.0686L8.0242,14.883z" fill="#F37980"/>
    <path d="M14.7543,8.3549c0.3152,0.0657,0.5911,0.1346,0.9112,0.2496c0.2758,0.0887,0.5467,0.179,0.7684,0.2906l0.2709,-0.5878c0,0,-0.4088,-0.1823,-0.8127,-0.3185c-0.5467,-0.133,-0.9589,-0.2479,-0.9589,-0.2479L14.7543,8.3549z" fill="#F37980"/>
    <path d="M16.5752,8.4205c0,-0.0066,0,-0.0131,-0.0016,-0.0181c0,-0.0016,0.0016,-0.0033,0.0016,-0.0033l-0.0049,-0.0049c-0.0033,-0.0049,-0.0066,-0.0099,-0.0131,-0.0115l-0.0312,-0.0279c-0.0936,0,-0.133,0,-0.2315,-0.0246c-0.0837,0,-0.133,-0.0213,-0.2217,-0.0443c0,-0.0213,-0.0493,-0.069,-0.0936,-0.1149c-0.0148,0,-0.0345,-0.0066,-0.0558,-0.0131c-0.0197,-0.0197,-0.0345,-0.0328,-0.0345,-0.0328h-0.0443h-0.3152c-0.0049,0,-0.0115,-0.0016,-0.0181,-0.0016c-0.0345,-0.0082,-0.0394,-0.0427,-0.0739,-0.0624c-0.0936,0,-0.0936,-0.0246,-0.0936,-0.0246l-0.0443,-0.0246c0,0.0033,0,0.0049,0,0.0066c-0.0066,-0.0033,-0.0115,-0.0066,-0.0197,-0.0099c0.0066,0.0016,0.0115,0.0033,0.0197,0.0033l-0.0443,-0.0213l-0.0493,-0.064h-0.1379c0,0.041,-0.0394,0.041,-0.0854,0.064v0.0213c0,0.0246,0,0.0476,0.0443,0.0706c0.0394,0,0.0887,0,0.0887,0.0427v0.046c0,0,-0.0493,0,-0.1872,-0.046v0.0197l-0.0394,-0.0197v0.046c0,0.046,0.0936,0.046,0.1379,0.046l0.0394,0.046h0.0493l0.0887,0.0213c-0.046,0,-0.0854,0,-0.1297,0.0197c-0.0148,0.0016,-0.0296,0.0033,-0.0476,0.0033c0,0.0082,0,0.0148,0,0.0213c0,0,0,0,-0.0443,0l0.0854,0.046c0,0,0,-0.023,0.0493,-0.023l0.0394,-0.0246c0.0394,0,0.1067,-0.0131,0.1543,-0.0197c0.0575,-0.0033,0.1264,-0.0033,0.2184,-0.0033l-0.0525,-0.0213h0.3202c0.0181,0,0.0345,0.0033,0.0493,0.0066c0.0443,0.0131,0.0542,0.0493,0.0887,0.0985c0.0016,0.0099,0.0049,0.0181,0.0049,0.0296h-0.0493h-0.0443v0.046c0,0,-0.0936,0,-0.1379,-0.0246c-0.0361,0,-0.0427,0.0016,-0.0443,0.0246l0,0v0.0213l0,0c0,0,0.0016,0.0016,0.0049,0.0016l0.0296,0.0115c0.0066,0.0033,0.0164,0.0066,0.0263,0.0099l0.041,0.0148c0.0213,0.0082,0.0476,0.0181,0.0805,0.0296h0.0443c0.0263,-0.0246,0.0378,-0.0493,0.0443,-0.0657c0.0049,-0.0016,0.0049,-0.0016,0.0049,-0.0016v-0.0213c0.0148,0.0082,0.0279,0.0164,0.041,0.023c0.0443,0.0673,0.0919,0.0673,0.1412,0.0673c-0.0246,0,-0.0493,-0.0115,-0.0739,-0.0263c0.0279,0.0164,0.0509,0.0263,0.0739,0.0263c0.0394,0,0.0394,0,0.0887,0.046v0.0887v0.0246v0.0197l0.0443,-0.0197l-0.0443,-0.1593c0,-0.041,-0.0394,-0.1182,-0.0476,-0.133c0.0033,0,0.0066,0.0016,0.0082,0.0016l0.0394,0.0181c0.023,0,0.0443,0.0016,0.0657,0.0049c0.046,0.0099,0.0952,0.0197,0.1576,0.0197c0.0082,0,0.0181,-0.0016,0.0279,-0.0033c0.0394,-0.0049,0.069,-0.0164,0.087,-0.0296C16.5637,8.4271,16.5752,8.4205,16.5752,8.4205z" fill="#7C7B7A"/>
    <path d="M15.26,8.0035c-0.0131,-0.0033,-0.0312,-0.0082,-0.0542,-0.0131C15.2354,7.9904,15.2469,7.9969,15.26,8.0035z" fill="#7C7B7A"/>
    <path d="M15.0696,7.946c0,0.0263,-0.0148,0.0361,-0.0361,0.041L15.0696,7.946z" fill="#7C7B7A"/>
    <path d="M14.9973,8.0462c0.0066,0.0082,0.0148,0.0148,0.0312,0.0148C15.0088,8.061,14.999,8.056,14.9973,8.0462z" fill="#7C7B7A"/>
    <rect x="9.6103" y="9.7784" width="1.6485" height="1.7388" fill="#FFFFFF"/>
    <path d="M14.5277,14.9306v1.7388h0.8177c0.5024,-0.6781,0.6797,-1.3086,0.729,-1.7388L14.5277,14.9306L14.5277,14.9306z" fill="#FFFFFF"/>
    <path d="M15.3438,16.694L15.3438,16.694c0.596,-0.839,0.729,-1.5582,0.729,-1.7634h-0.8653h-0.6797v1.7388L15.3438,16.694L15.3438,16.694z" fill="#FFFFFF"/>
    <path d="M14.5277,14.952h0.6797l0.8653,-0.0213c-0.0493,0.2052,-0.133,0.9047,-0.729,1.7388h-0.8177V14.952H14.5277z" fill="#FFFFFF"/>
    <path d="M12.8399,16.694v1.6025c0.7766,-0.1346,1.3234,-0.4975,1.6386,-0.7224v-0.8801H12.8399z" fill="#FFFFFF"/>
    <path d="M12.8399,18.3179L12.8399,18.3179c0.7766,-0.1346,1.3234,-0.4942,1.6879,-0.7438l-0.0493,-0.8801h-1.6386V18.3179L12.8399,18.3179z" fill="#FFFFFF"/>
    <path d="M14.4785,16.694v0.8801c-0.3645,0.2496,-0.862,0.5878,-1.5893,0.7224l-0.0493,-1.6025H14.4785L14.4785,16.694z" fill="#FFFFFF"/>
    <path d="M9.6645,16.694v0.8801c0.5418,0.3842,1.1822,0.6338,1.5943,0.7027V16.694H9.6645z" fill="#FFFFFF"/>
    <path d="M11.2587,18.2949v-1.6025H9.6103l0.0525,0.8801C10.2047,17.978,10.8893,18.2078,11.2587,18.2949L11.2587,18.2949L11.2587,18.2949z" fill="#FFFFFF"/>
    <path d="M11.2587,16.694v1.5828c-0.3694,-0.069,-1.0524,-0.3185,-1.5943,-0.7027v-0.8801H11.2587L11.2587,16.694z" fill="#FFFFFF"/>
    <path d="M8.0686,14.9306c0.0887,0.6797,0.3645,1.2889,0.6305,1.7174l0.9112,0.0213v-1.7388H8.0686z" fill="#FFFFFF"/>
    <path d="M9.6103,16.6694v-1.7388H8.0686c0.0887,0.7684,0.4039,1.3989,0.6305,1.7174L9.6103,16.6694L9.6103,16.6694L9.6103,16.6694z" fill="#FFFFFF"/>
    <path d="M9.6103,14.9306v1.7388l-0.9112,-0.0213c-0.2266,-0.3382,-0.5418,-0.949,-0.6305,-1.6944L9.6103,14.9306L9.6103,14.9306z" fill="#FFFFFF"/>
    <rect x="8.0686" y="11.5171" width="1.5417" height="1.6961" fill="#FFFFFF"/>
    <rect x="11.2587" y="11.5171" width="1.5811" height="1.6961" fill="#FFFFFF"/>
    <rect x="12.8399" y="9.7784" width="1.6386" height="1.7174" fill="#FFFFFF"/>
    <rect x="14.5277" y="11.5171" width="1.5467" height="1.6961" fill="#FFFFFF"/>
    <rect x="9.6103" y="13.2132" width="1.6485" height="1.7174" fill="#FFFFFF"/>
    <rect x="12.8399" y="13.2132" width="1.6386" height="1.7174" fill="#FFFFFF"/>
    <rect x="11.2587" y="14.9306" width="1.5811" height="1.7634" fill="#FFFFFF"/>
    <path d="M24,21H0V3h24V21zM1.5,19.5h21V4.5H1.5V19.5z" fill="#211F20" opacity="0.20"/>
  </g>
</svg>
