<?xml version="1.0" encoding="UTF-8"?>
<!DOCTYPE svg PUBLIC "-//W3C//DTD SVG 1.1//EN" "http://www.w3.org/Graphics/SVG/1.1/DTD/svg11.dtd">
<svg version="1.1" id="Layer_1" xmlns="http://www.w3.org/2000/svg" xmlns:xlink="http://www.w3.org/1999/xlink" x="0px" y="0px" width="24px" height="24px" viewBox="0 0 24 24" enable-background="new 0 0 24 24" xml:space="preserve">
  <g id="icon">
    <path d="M0,3h24v18H0V3z" fill="#7AA2D5"/>
    <polygon points="12,4.0815 9.5415,6.375 12,6.375 12,8.625 9.4215,8.625 12,10.9935 12,12 10.659,12 7.2,8.8815 7.2,12 4.8,12 4.8,9.0315 1.341,12 0,12 0,12 0,10.9935 2.658,8.625 0,8.625 0,6.375 2.4585,6.375 0,4.0065 0,3 1.341,3 4.8,6.1185 4.8,3 7.2,3 7.2,6.1185 10.659,3 12,3" fill="#FFFFFF" stroke-linejoin="miter"/>
    <path d="M2.4,17.4435" fill="#FFFFFF"/>
    <polygon points="7.386,6.375 11.106,3 12,3 8.28,6.375" fill="#F37980" stroke-linejoin="miter"/>
    <polygon points="3.72,8.625 0,12 0.894,12 4.614,8.625" fill="#F37980" stroke-linejoin="miter"/>
    <polygon points="8.895,8.625 12,11.3295 12,12 7.9995,8.625" fill="#F37980" stroke-linejoin="miter"/>
    <polygon points="0,3 0,3.7455 2.9055,6.375 3.7995,6.375" fill="#F37980" stroke-linejoin="miter"/>
    <polygon points="5.199,6.75 5.199,3 6.7995,3 6.7995,6.75 12,6.75 12,8.25 6.7995,8.25 6.7995,12 5.2005,12 5.2005,8.25 0,8.25 0,6.75 5.2005,6.75" fill="#F37980" stroke-linejoin="miter"/>
    <path d="M24,21H0V3h24V21zM1.5,19.5h21V4.5H1.5V19.5z" opacity="0.2"/>
    <path d="M13.5056,9.0375c0,0,0,1.5846,0,3.1105c0,3.9073,2.1774,5.3341,3.8893,6.2645c1.7118,-0.9303,3.6218,-2.3571,3.6218,-6.2645c0,-1.5259,0,-3.1105,0,-3.1105H13.5056z" fill="#FFFFFF"/>
    <path d="M17.3949,17.8837c-1.6611,-0.9281,-3.4248,-2.1937,-3.4248,-5.7357V9.4875h6.6366v2.6605C20.6067,15.69,19.0559,16.9556,17.3949,17.8837z" fill="#F7CE73"/>
    <path d="M18.7502,16.1143c-0.0471,-0.4125,-0.3889,-1.7089,-0.7896,-2.0979c-0.4008,-0.3889,-0.5657,-0.0884,-0.5657,-0.0884s-0.165,-0.3005,-0.5657,0.0884c-0.4008,0.389,-0.7425,1.6854,-0.7897,2.0979c-0.0471,0.4125,0.0471,0.5068,0.2592,0.5068c0.0943,0.2003,0.4597,0.2357,0.4597,0.2357s0.4125,0.271,0.6365,0c0.2239,0.271,0.6364,0,0.6364,0s0.3654,-0.0354,0.4597,-0.2357C18.703,16.6211,18.7973,16.5268,18.7502,16.1143z" fill="#63BF80"/>
    <path d="M17.9959,13.5435c0,0.3587,0.095,0.6497,-0.5892,0.6497c-0.6844,0,-0.5893,-0.2909,-0.5893,-0.6497c0,-0.3591,0.2637,-0.65,0.5893,-0.65C17.7322,12.8935,17.9959,13.1844,17.9959,13.5435z" fill="#F37980"/>
    <path d="M16.1338,13.0735c-0.1886,0.3182,-0.4832,0.0943,-0.6129,-0.2829c-0.1297,-0.3771,-0.6482,-0.4832,-0.8368,-0.5892c-0.1886,-0.1061,-0.2357,-0.2829,0,-0.4125c0.2357,-0.1297,0.0943,-0.2946,0.2593,-0.3418c-0.2122,-0.0471,-0.4023,0.0707,-0.4192,0c-0.017,-0.0708,0.1481,-0.2674,0.4192,-0.2987c-0.2239,-0.2788,-0.0943,-0.8681,0,-0.8799s0.2872,0.165,0.3852,0.3418c0.098,0.1768,0.3808,0.1414,0.3572,0.3889c0.059,0.059,0.2593,0.0236,0.4479,0.33C16.3224,11.6357,16.1338,13.0735,16.1338,13.0735z" fill="#F8A57E"/>
    <path d="M16.2177,13.0264c-0.2674,0.0203,-0.3668,-0.2121,-0.414,-0.5539c-0.0471,-0.3418,-0.5303,-0.2144,-0.3065,-0.726c0.2239,-0.5116,0.3079,-0.2014,0.3308,-0.5981c0.0229,-0.3967,0.1525,-0.7267,0.2703,-0.7267c0.1179,0,0.2711,0.3654,0.33,0.5186c0.0589,0.1532,0.2858,0.1179,0.3845,0.6482c0.0987,0.5303,-0.0192,0.9192,-0.1488,1.0371c-0.1297,0.1178,-0.1886,0.1348,-0.2121,0.2678C16.4284,13.0264,16.393,13.0131,16.2177,13.0264z" fill="#F8A57E"/>
    <path d="M16.2177,10.7754c0.081,0.0589,0.084,0.1414,0,0.2829c-0.084,0.1414,0.0545,0.2829,0.0618,0.5186c0.0074,0.2357,-0.1149,0.3182,-0.0891,0.4361c0.0258,0.1178,0.2144,0.3418,0.1908,0.6129c-0.0235,0.2711,-0.0796,0.3535,-0.1635,0.4007c-0.084,0.0471,-0.0486,-0.1414,-0.0309,-0.3182c0.0176,-0.1768,-0.1002,-0.3771,-0.1591,-0.5539c-0.059,-0.1768,0.0795,-0.3065,0.1163,-0.4832c0.0369,-0.1768,-0.0574,-0.3381,-0.0692,-0.5226C16.063,10.964,16.2177,10.7754,16.2177,10.7754z" fill="#7D7C7B"/>
    <path d="M18.9506,11.2232c0.0353,-0.2592,0.0235,-0.66,-0.059,-0.8014c-0.0824,-0.1414,-0.2121,-0.2239,-0.1296,-0.2475c0.0824,-0.0236,0.4714,0.3889,0.2592,1.2257C18.8092,12.2368,18.9506,11.2232,18.9506,11.2232z" fill="#787A7A"/>
    <path d="M18.9631,11.0914c-0.0958,-0.1285,-0.1304,-0.1392,-0.2011,-0.3315c-0.0708,-0.1922,0.0235,-0.3381,0,-0.3852c-0.0236,-0.0471,-0.1768,0.1886,-0.1975,0.3182c-0.0206,0.1297,0.1856,0.3654,0.3448,0.4582C18.9093,11.151,19.0588,11.2199,18.9631,11.0914z" fill="#787A7A"/>
    <path d="M18.9366,11.3293c-0.1436,-0.3182,-1.0467,-0.8839,-1.1528,-0.8367c-0.1061,0.0471,0.9436,0.7222,1.0386,0.8367C18.8224,11.3293,19.0802,11.6475,18.9366,11.3293z" fill="#787A7A"/>
    <path d="M18.91,11.4265c-0.1701,-0.3506,-1.3855,-0.4625,-1.4327,-0.4036c-0.0471,0.0589,0.9009,0.1256,1.2847,0.5068C18.762,11.5297,19.0802,11.7771,18.91,11.4265z" fill="#787A7A"/>
    <path d="M18.7789,11.6c-0.5723,-0.3539,-1.3723,-0.1174,-1.303,-0.1293c0.0692,-0.0118,0.8265,0.0354,1.2596,0.2604C18.7355,11.7311,19.3513,11.954,18.7789,11.6z" fill="#787A7A"/>
    <path d="M18.91,11.9045c-0.0876,-0.0611,-0.3955,-0.1274,-0.7137,-0.1606c-0.3182,-0.0331,-0.7779,0.3043,-0.66,0.2335c0.1178,-0.0707,0.7778,-0.1297,1.2257,0.0708C18.9181,12.1182,18.9977,11.9657,18.91,11.9045z" fill="#787A7A"/>
    <path d="M19.0228,11.1485c-0.0545,-0.2899,-0.0553,-0.534,-0.4434,-0.5046c-0.3882,0.0295,-0.4582,0.7562,-0.3617,1.7697c0.0965,1.0136,-0.0213,1.3458,-0.0391,1.4036c-0.0176,0.0578,0.2166,-0.2015,0.1997,-0.6494c-0.017,-0.4478,-0.1157,-1.4327,-0.084,-1.7947c0.0317,-0.362,0.2077,-0.6338,0.4413,-0.5624c0.2335,0.0715,0.1812,0.2534,0.1745,0.4744C18.9034,11.5061,19.0228,11.1485,19.0228,11.1485z" fill="#787A7A"/>
    <path d="M19.2806,13.0338c0,0,0.1178,-0.0663,0.271,-0.8677c0.1533,-0.8014,-0.1767,-1.1432,-0.4714,-1.1432c-0.2946,0,-0.6246,0.3418,-0.4714,1.1432c0.1533,0.8014,0.2711,0.8677,0.2711,0.8677s-0.3609,0.3433,-0.3101,0.5097s0.5104,0.1702,0.5104,0.1702s0.4597,-0.0037,0.5105,-0.1702S19.2806,13.0338,19.2806,13.0338z" fill="#787A7A"/>
    <path d="M19.2135,11.2232c-0.0354,-0.2592,-0.0236,-0.66,0.0589,-0.8014c0.0825,-0.1414,0.2122,-0.2239,0.1297,-0.2475c-0.0825,-0.0236,-0.4714,0.3889,-0.2593,1.2257C19.355,12.2368,19.2135,11.2232,19.2135,11.2232z" fill="#787A7A"/>
    <path d="M19.2548,11.151c0.1591,-0.0928,0.3653,-0.3285,0.3447,-0.4582c-0.0206,-0.1297,-0.1739,-0.3654,-0.1974,-0.3182c-0.0236,0.0471,0.0707,0.193,0,0.3852c-0.0708,0.1923,-0.1054,0.203,-0.2011,0.3315C19.1052,11.2199,19.2548,11.151,19.2548,11.151z" fill="#787A7A"/>
    <path d="M19.3417,11.3293c0.095,-0.1145,1.1447,-0.7896,1.0386,-0.8367c-0.1061,-0.0471,-1.0092,0.5186,-1.1528,0.8367C19.0839,11.6475,19.3417,11.3293,19.3417,11.3293z" fill="#787A7A"/>
    <path d="M19.4021,11.5297c0.3838,-0.3812,1.3318,-0.4479,1.2846,-0.5068s-1.2625,0.053,-1.4327,0.4036C19.0839,11.7771,19.4021,11.5297,19.4021,11.5297z" fill="#787A7A"/>
    <path d="M19.4286,11.7311c0.4332,-0.225,1.1904,-0.2721,1.2597,-0.2604c0.0692,0.0118,-0.7307,-0.2246,-1.3031,0.1293C18.8128,11.954,19.4286,11.7311,19.4286,11.7311z" fill="#787A7A"/>
    <path d="M19.4021,12.0482c0.4478,-0.2004,1.1078,-0.1414,1.2257,-0.0708c0.1178,0.0708,-0.3418,-0.2666,-0.66,-0.2335c-0.3182,0.0332,-0.6261,0.0995,-0.7138,0.1606C19.1664,11.9657,19.246,12.1182,19.4021,12.0482z" fill="#787A7A"/>
    <path d="M19.254,11.2851c-0.0066,-0.2209,-0.0589,-0.4029,0.1745,-0.4744c0.2335,-0.0714,0.4096,0.2004,0.4413,0.5624c0.0317,0.3621,-0.0671,1.3469,-0.084,1.7947c-0.017,0.4479,0.2173,0.7071,0.1996,0.6494c-0.0177,-0.0579,-0.1355,-0.39,-0.039,-1.4036c0.0965,-1.0135,0.0265,-1.7402,-0.3617,-1.7697c-0.3882,-0.0294,-0.389,0.2147,-0.4434,0.5046C19.1413,11.1485,19.2607,11.5061,19.254,11.2851z" fill="#787A7A"/>
  </g>
</svg>
