<?xml version="1.0" encoding="UTF-8"?>
<!DOCTYPE svg PUBLIC "-//W3C//DTD SVG 1.1//EN" "http://www.w3.org/Graphics/SVG/1.1/DTD/svg11.dtd">
<svg version="1.1" id="Layer_1" xmlns="http://www.w3.org/2000/svg" xmlns:xlink="http://www.w3.org/1999/xlink" x="0px" y="0px" width="24px" height="24px" viewBox="0 0 24 24" enable-background="new 0 0 24 24" xml:space="preserve">
  <g id="icon">
    <rect x="0" y="1.75" width="24" height="19.5" fill="#FFFFFF"/>
    <rect x="9.75" y="1.75" width="14.25" height="1.5" fill="#F37980"/>
    <rect x="9.75" y="4.75" width="14.25" height="1.5" fill="#F37980"/>
    <rect x="9.75" y="7.75" width="14.25" height="1.5" fill="#F37980"/>
    <rect x="9.75" y="10.75" width="14.25" height="1.5" fill="#F37980"/>
    <rect x="0" y="13.75" width="24" height="1.5" fill="#F37980"/>
    <rect x="0" y="16.75" width="24" height="1.5" fill="#F37980"/>
    <rect x="0" y="19.75" width="24" height="1.5" fill="#F37980"/>
    <rect x="0" y="1.75" width="9.75" height="10.5" fill="#77A1D5"/>
    <polygon points="5.9175,7.354 7.725,6.0625 5.5035,6.0625 4.902,3.9805 4.215,6.0625 2.0115,6.0625 3.7635,7.3375 3.1005,9.415 4.851,8.107 6.627,9.415" fill="#FFFFFF" stroke-linejoin="miter"/>
    <path d="M24,21.25H0v-19.5h24V21.25zM1.5,19.75h21v-16.5H1.5V19.75z" fill="#211F20" opacity="0.20"/>
  </g>
</svg>
