<?xml version="1.0" encoding="UTF-8"?>
<!DOCTYPE svg PUBLIC "-//W3C//DTD SVG 1.1//EN" "http://www.w3.org/Graphics/SVG/1.1/DTD/svg11.dtd">
<svg version="1.1" id="Layer_1" xmlns="http://www.w3.org/2000/svg" xmlns:xlink="http://www.w3.org/1999/xlink" x="0px" y="0px" width="24px" height="24px" viewBox="0 0 24 24" enable-background="new 0 0 24 24" xml:space="preserve">
  <g id="icon">
    <rect x="0" y="15.75" width="24" height="5.25" fill="#F37980"/>
    <rect x="0" y="8.25" width="24" height="7.5" fill="#FFFFFF"/>
    <rect x="0" y="3" width="24" height="5.25" fill="#63BF80"/>
    <polygon points="0,3 0,21 9.6,12.0195" fill="#77A1D5" stroke-linejoin="miter"/>
    <polyline points="13.8675,9.171 13.641,9.171 13.5285,9.348 13.416,9.171 13.1895,9.171 13.302,8.994 13.1895,8.817 13.416,8.817 13.5285,8.64 13.641,8.817 13.8675,8.817 13.755,8.994 13.8675,9.171" fill="#F7CE73" stroke-linejoin="miter"/>
    <polyline points="12.9255,9.2415 12.7755,9.1005 12.8505,8.889 12.624,8.925 12.474,8.784 12.399,8.9955 12.1725,9.0315 12.3225,9.1725 12.2475,9.384 12.474,9.348 12.624,9.489 12.699,9.2775 12.9255,9.2415" fill="#F7CE73" stroke-linejoin="miter"/>
    <polyline points="11.9835,9.417 11.871,9.3105 11.871,9.099 11.682,9.2055 11.493,9.099 11.4555,9.3105 11.2665,9.417 11.4555,9.5235 11.418,9.735 11.607,9.6285 11.796,9.735 11.796,9.5235 11.9835,9.417" fill="#F7CE73" stroke-linejoin="miter"/>
    <polyline points="14.13,9.171 14.3565,9.171 14.469,9.348 14.5815,9.171 14.808,9.171 14.6955,8.994 14.808,8.817 14.5815,8.817 14.469,8.64 14.3565,8.817 14.13,8.817 14.2425,8.994 14.13,9.171" fill="#F7CE73" stroke-linejoin="miter"/>
    <polyline points="15.072,9.2415 15.2985,9.2775 15.3735,9.489 15.5235,9.348 15.75,9.384 15.675,9.1725 15.825,9.0315 15.6,8.994 15.525,8.7825 15.375,8.9235 15.1485,8.8875 15.2235,9.099 15.072,9.2415" fill="#F7CE73" stroke-linejoin="miter"/>
    <polyline points="15.9765,9.417 16.1655,9.5235 16.1655,9.735 16.3545,9.6285 16.5435,9.735 16.5435,9.5235 16.7325,9.417 16.5435,9.3105 16.5435,9.099 16.3545,9.2055 16.1655,9.099 16.203,9.3105 15.9765,9.417" fill="#F7CE73" stroke-linejoin="miter"/>
    <path d="M12.0585,9.7005H15.9v3.7785c0,1.2705,-1.77,0.282,-1.9215,0.954c-0.264,-0.7065,-1.9215,0.318,-1.9215,-1.0245C12.0585,12.066,12.0585,9.7005,12.0585,9.7005" fill="#7C7B7A"/>
    <path d="M12.21,9.876h3.54v3.4605c0,1.1655,-1.62,0.282,-1.77,0.8835c-0.2265,-0.636,-1.77,0.282,-1.77,-0.954C12.21,12.066,12.21,9.876,12.21,9.876" fill="#FFFFFF"/>
    <path d="M14.469,11.2545c-0.414,0.2115,-0.489,1.236,-0.1125,2.436h-0.9045c0.3765,-0.6705,0.528,-2.2245,0.189,-2.4015l0.0375,-0.141c0.15,0.036,0.2265,0.141,0.264,0.177v-0.2475h0.189c-0.0375,0.0705,-0.0375,0.177,-0.0375,0.2475c0.15,-0.141,0.264,-0.177,0.264,-0.177L14.469,11.2545" fill="#7C7B7A"/>
    <path d="M14.5455,10.4775c0.075,-0.0705,0.075,-0.0705,0.189,-0.0705c0.0375,-0.141,0.264,-0.141,0.3015,0.036c0.189,-0.036,0.2265,0.0705,0.15,0.177c0.189,-0.036,0.3765,0,0.3015,0.2115c0.339,0.0705,0.2265,0.318,0.075,0.3525c-0.0375,0.141,-0.15,0.177,-0.339,0.141c-0.2265,0.177,-0.3765,0.1065,-0.489,-0.0705c-0.264,0.036,-0.3015,-0.036,-0.414,-0.177c-0.2265,0.0705,-0.264,0.0705,-0.414,-0.036c0,0.141,-0.075,0.1065,-0.15,0.0705c0,0.177,-0.075,0.2475,-0.2265,0.177c0.1125,0.2475,-0.189,0.3525,-0.339,0.141c-0.15,0,-0.15,-0.036,-0.2265,-0.0705c-0.075,0.177,-0.264,0.177,-0.339,0.0705c-0.264,-0.036,-0.264,-0.177,-0.0375,-0.177c0.0375,-0.141,0.15,-0.1065,0.264,-0.1065c0,-0.1065,0.075,-0.0705,0.1125,-0.0705c-0.0375,-0.0705,0,-0.1065,0.075,-0.1065c-0.1125,-0.177,-0.0375,-0.2115,0.075,-0.282c-0.075,-0.141,0.0375,-0.141,0.15,-0.141c0,-0.177,0.0375,-0.177,0.2265,-0.2115c-0.0375,-0.0705,0,-0.1065,0.1125,-0.1065c-0.075,-0.177,0.0375,-0.2115,0.189,-0.177c0.0375,-0.2475,0.5655,-0.1065,0.528,0.2115C14.4315,10.335,14.469,10.335,14.5455,10.4775" fill="#63BF80"/>
    <path d="M16.767,12.489c0.0375,0.7065,0.414,0.954,0,1.1655c0,0,0.0375,0.177,0.1125,0.318c-0.189,0.8475,-1.845,0.8835,-1.845,0.8835v0.177c0,0.318,-2.0715,0.318,-2.0715,0v-0.177c0,0,-1.6575,-0.036,-1.845,-0.8835c0.0375,-0.0705,0.075,-0.2115,0.1125,-0.318c-0.489,-0.2115,-0.1125,-0.459,-0.075,-1.1655c0.075,0.423,0.603,0.6,0.528,0.8835l-0.264,0.3525c0.1125,0.141,0.3015,0.318,0.6405,0.459c0.528,0.177,1.2435,0.0705,1.2435,0.0705l-0.0375,0.459h1.3935l-0.0375,-0.459c0,0,0.7155,0.1065,1.2435,-0.0705c0.414,-0.177,0.489,-0.282,0.603,-0.423c0,0,-0.15,-0.318,-0.2265,-0.3885C16.2015,13.0905,16.692,12.9135,16.767,12.489" fill="#B5B4B5"/>
    <path d="M24,21H0V3h24V21zM1.5,19.5h21V4.5H1.5V19.5z" fill="#211F20" opacity="0.20"/>
  </g>
</svg>
