<?xml version="1.0" encoding="UTF-8"?>
<!DOCTYPE svg PUBLIC "-//W3C//DTD SVG 1.1//EN" "http://www.w3.org/Graphics/SVG/1.1/DTD/svg11.dtd">
<svg version="1.1" id="Layer_1" xmlns="http://www.w3.org/2000/svg" xmlns:xlink="http://www.w3.org/1999/xlink" x="0px" y="0px" width="24px" height="24px" viewBox="0 0 24 24" enable-background="new 0 0 24 24" xml:space="preserve">
  <g id="icon">
    <rect x="0" y="16.5" width="24" height="4.5" fill="#63BF80"/>
    <rect x="0" y="12" width="24" height="4.5" fill="#F7CE73"/>
    <rect x="0" y="3" width="24" height="9" fill="#76B6CA"/>
    <path d="M20.5365,7.662l1.854,-0.1065c0.045,-0.003,0.045,-0.069,0,-0.072l-1.854,-0.1065l1.782,-0.6015c0.0435,-0.015,0.0255,-0.0795,-0.0195,-0.069l-1.8195,0.3855l1.5495,-1.0335c0.0375,-0.0255,0.0045,-0.0825,-0.036,-0.0615l-1.656,0.8385l1.2375,-1.4115c0.03,-0.0345,-0.018,-0.081,-0.051,-0.051L20.109,6.6345l0.8145,-1.629c0.021,-0.0405,-0.0375,-0.0735,-0.063,-0.036l-0.981,1.5225l0.3675,-1.839c0.009,-0.045,-0.0555,-0.0615,-0.069,-0.018l-0.5835,1.7715l-0.1065,-1.854c-0.003,-0.045,-0.069,-0.045,-0.072,0l-0.1065,1.854L18.705,4.635c-0.015,-0.0435,-0.0795,-0.0255,-0.069,0.0195l0.39,1.839l-1.0335,-1.572c-0.0255,-0.0375,-0.0825,-0.0045,-0.063,0.036l0.8385,1.6785l-1.3815,-1.2315c-0.0345,-0.03,-0.081,0.0165,-0.051,0.051L18.567,6.837l-1.6785,-0.8385c-0.0405,-0.021,-0.0735,0.0375,-0.036,0.063l1.572,1.0335l-1.839,-0.39c-0.045,-0.009,-0.0615,0.0555,-0.0195,0.069l1.7715,0.6045l-1.833,0.1065c-0.045,0.003,-0.045,0.069,0,0.072l1.833,0.1065l-1.713,0.564c-0.0435,0.0135,-0.0255,0.0795,0.0195,0.069l1.779,-0.3765l-1.572,1.0335c-0.0375,0.0255,-0.0045,0.0825,0.036,0.063l1.6785,-0.8385L17.334,9.5595c-0.03,0.0345,0.0165,0.081,0.051,0.051l1.3815,-1.2315l-0.8385,1.6785c-0.021,0.0405,0.0375,0.0735,0.063,0.036l1.0335,-1.572l-0.39,1.839c-0.009,0.045,0.0555,0.0615,0.069,0.0195l0.6045,-1.7715l0.1065,1.854c0.003,0.045,0.069,0.045,0.072,0l0.1065,-1.854l0.5835,1.7715c0.0135,0.0435,0.078,0.0255,0.069,-0.018l-0.3675,-1.839l0.981,1.5225c0.024,0.039,0.0825,0.0045,0.063,-0.036l-0.8145,-1.629L21.522,9.642c0.0345,0.03,0.081,-0.0165,0.051,-0.051l-1.2375,-1.4115l1.656,0.8385c0.0405,0.021,0.0735,-0.0375,0.036,-0.0615L20.478,7.923l1.758,0.372c0.045,0.009,0.0615,-0.0555,0.018,-0.069L20.5365,7.662z" fill="#F7CE73"/>
    <circle cx="19.4535" cy="7.5195" r="1.056" fill="#F7CE73"/>
    <path d="M19.4535,8.6595c-0.627,0,-1.17,-0.513,-1.17,-1.17c0,-0.627,0.513,-1.17,1.17,-1.17c0.6555,0,1.17,0.513,1.17,1.17C20.622,8.1465,20.0805,8.6595,19.4535,8.6595" fill="#76B6CA"/>
    <path d="M19.4535,6.549c-0.513,0,-0.9405,0.4275,-0.9405,0.9405c0,0.513,0.4275,0.9405,0.9405,0.9405c0.513,0,0.9405,-0.4275,0.9405,-0.9405C20.394,6.9765,19.9665,6.549,19.4535,6.549" fill="#76B6CA"/>
    <path d="M24,21H0V3h24V21zM1.5,19.5h21V4.5H1.5V19.5z" fill="#211F20" opacity="0.20"/>
  </g>
</svg>
