<?xml version="1.0" encoding="UTF-8"?>
<!DOCTYPE svg PUBLIC "-//W3C//DTD SVG 1.1//EN" "http://www.w3.org/Graphics/SVG/1.1/DTD/svg11.dtd">
<svg version="1.1" id="Layer_1" xmlns="http://www.w3.org/2000/svg" xmlns:xlink="http://www.w3.org/1999/xlink" x="0px" y="0px" width="24px" height="24px" viewBox="0 0 24 24" enable-background="new 0 0 24 24" xml:space="preserve">
  <g id="icon">
    <rect x="0" y="1.75" width="24" height="19.5" fill="#FFFFFF"/>
    <rect x="13.5" y="1.75" width="10.5" height="1.5" fill="#F37980"/>
    <rect x="13.5" y="4.75" width="10.5" height="1.5" fill="#F37980"/>
    <rect x="13.5" y="7.75" width="10.5" height="1.5" fill="#F37980"/>
    <rect x="13.5" y="10.75" width="10.5" height="1.5" fill="#F37980"/>
    <rect x="0" y="13.75" width="24" height="1.5" fill="#F37980"/>
    <rect x="0" y="16.75" width="24" height="1.5" fill="#F37980"/>
    <rect x="0" y="19.75" width="24" height="1.5" fill="#F37980"/>
    <rect x="0" y="1.75" width="13.5" height="12" fill="#77A1D5"/>
    <path d="M7.269,11.0185c-1.743,0,-3.195,-1.452,-3.195,-3.252s1.452,-3.252,3.195,-3.252c0.6975,0,1.278,0.2325,1.8,0.5805c-0.7545,-0.8715,-1.8,-1.3935,-3.0195,-1.3935C3.843,3.7,2.1,5.5,2.1,7.765s1.8,4.065,3.9495,4.065c1.2195,0,2.265,-0.522,3.0195,-1.3935C8.547,10.786,7.908,11.0185,7.269,11.0185" fill="#F7CE73"/>
    <polygon points="10.137,7.069 10.5435,6.0235 10.428,7.126 11.241,6.3715 10.6605,7.3585 11.7045,7.0105 10.776,7.591 11.88,7.765 10.776,7.9405 11.7045,8.521 10.6605,8.1715 11.241,9.16 10.428,8.404 10.5435,9.508 10.137,8.4625 9.7305,9.508 9.846,8.404 9.033,9.16 9.615,8.1715 8.5695,8.521 9.498,7.9405 8.394,7.765 9.498,7.591 8.5695,7.0105 9.615,7.3585 9.033,6.3715 9.846,7.126 9.7305,6.0235" fill="#F7CE73" stroke-linejoin="miter"/>
    <path d="M24,21.25H0v-19.5h24V21.25zM1.5,19.75h21v-16.5H1.5V19.75z" fill="#211F20" opacity="0.20"/>
  </g>
</svg>
