<?xml version="1.0" encoding="UTF-8"?>
<!DOCTYPE svg PUBLIC "-//W3C//DTD SVG 1.1//EN" "http://www.w3.org/Graphics/SVG/1.1/DTD/svg11.dtd">
<svg version="1.1" id="Layer_1" xmlns="http://www.w3.org/2000/svg" xmlns:xlink="http://www.w3.org/1999/xlink" x="0px" y="0px" width="24px" height="24px" viewBox="0 0 24 24" enable-background="new 0 0 24 24" xml:space="preserve">
  <g id="icon">
    <rect x="0" y="3" width="24" height="18" fill="#FFFFFF"/>
    <rect x="0" y="12" width="12" height="9" fill="#77A1D5"/>
    <rect x="12" y="3" width="12" height="9" fill="#F37980"/>
    <polygon points="8.7495,6.9 6.654,6.9 6.006,4.908 5.358,6.9 3.264,6.9 4.1115,7.5165 4.959,8.1315 4.311,10.125 6.006,8.8935 7.701,10.125 7.0545,8.1315 7.902,7.5165" fill="#77A1D5" stroke-linejoin="miter"/>
    <polygon points="20.7495,15.9 18.654,15.9 18.006,13.908 17.358,15.9 15.264,15.9 16.1115,16.5165 16.959,17.1315 16.311,19.125 18.006,17.8935 19.701,19.125 19.0545,17.1315 19.902,16.5165" fill="#F37980" stroke-linejoin="miter"/>
    <path d="M24,21H0V3h24V21zM1.5,19.5h21V4.5H1.5V19.5z" fill="#211F20" opacity="0.20"/>
  </g>
</svg>
