<?xml version="1.0" encoding="UTF-8"?>
<!DOCTYPE svg PUBLIC "-//W3C//DTD SVG 1.1//EN" "http://www.w3.org/Graphics/SVG/1.1/DTD/svg11.dtd">
<svg version="1.1" id="Layer_1" xmlns="http://www.w3.org/2000/svg" xmlns:xlink="http://www.w3.org/1999/xlink" x="0px" y="0px" width="24px" height="24px" viewBox="0 0 24 24" enable-background="new 0 0 24 24" xml:space="preserve">
  <g id="icon">
    <rect x="16.8" y="3" width="7.2" height="18" fill="#F37980"/>
    <rect x="7.2" y="3" width="9.6" height="18" fill="#F7CE73"/>
    <rect x="0" y="3" width="7.2" height="18" fill="#77A1D5"/>
    <path d="M16.194,11.4735c0.06,-0.0795,0.045,-0.2565,0.045,-0.402c-0.2025,0.135,-0.27,0.279,-0.363,0.3615c-0.099,0.087,-0.1695,-0.0255,-0.2685,0.1125c-0.081,0.1125,0.0315,0.258,-0.093,0.369c0,-0.666,0,-1.3305,0,-1.9965c0,-0.255,0.0645,-0.5925,-0.0165,-0.843c-0.075,-0.2295,-0.4155,-0.555,-0.621,-0.6975c-0.306,-0.2115,-0.1485,-0.195,-0.4815,-0.015c-0.18,0.0975,-0.531,0.303,-0.5985,0.471c-0.153,0.3825,0.216,0.348,-0.3165,0.546c-0.4005,0.1485,-0.7335,0.429,-0.951,-0.123c-0.1305,-0.33,0.129,-0.5415,0.129,-0.834c0.03,0.027,0.06,0.054,0.09,0.081c0.045,-0.186,0.03,-0.4005,-0.09,-0.5625c0.1155,-0.018,0.246,-0.084,0.363,-0.081c-0.48,-0.291,-1.1205,-0.4725,-1.677,-0.2805c0,-0.1485,-0.087,-0.1335,-0.1365,-0.2415c-0.0465,0.1605,-0.078,0.135,-0.2265,0.1605c0.0345,-0.144,0.0045,-0.1425,0.1815,-0.201c-0.1695,-0.141,-0.3975,-0.123,-0.5445,0.0405c0.18,0.048,0.1035,0.072,0.1815,0.1605c-0.1275,-0.048,-0.1365,0.009,-0.2265,-0.12c-0.18,0.126,-0.1875,0.3585,0,0.4815c0.084,-0.1335,0.096,-0.069,0.2265,-0.12c0,0.279,0.138,0.663,-0.2715,0.6825c0.2355,-0.027,0.408,0.096,0.408,0.321c0,-0.225,0.1725,-0.348,0.408,-0.321c0,0.294,0.048,0.5805,-0.099,0.8565c-0.237,0.444,-0.468,0.219,-0.8595,0.0495c-0.0045,-0.0015,-0.3525,-0.096,-0.357,-0.1035c-0.0645,-0.1005,0.0855,-0.321,0.0405,-0.432c-0.0645,-0.1605,-0.3255,-0.2805,-0.4845,-0.3915c-0.189,-0.132,-0.2685,-0.231,-0.4365,-0.2055c-0.1605,0.0255,-0.579,0.5175,-0.663,0.657c-0.3495,0.5775,-0.135,1.5405,-0.135,2.178c-0.0075,0.0045,-0.1365,-0.0045,-0.1365,0.12c-0.09,-0.081,-0.186,-0.09,-0.2715,-0.1605c-0.015,0.1215,-0.0435,0.288,0,0.402c-0.0435,0,-0.1335,0.009,-0.1815,0c0.006,0.4095,0.54,0.3705,0.5895,0.6825c-0.1185,-0.0525,-0.2775,-0.0495,-0.408,-0.0405c0.0195,0.048,0.09,0.108,0.09,0.1605c-0.03,0,-0.06,0,-0.09,0c0.0975,0.1215,0.42,0.2265,0.453,0.2805c0.1305,0.2145,-0.0255,0.9345,-0.0375,1.167c-0.0255,0.5205,-0.06,1.041,-0.099,1.5615c0.423,-0.3345,0.846,-0.669,1.269,-1.0035c-0.2685,0.324,-0.4245,1.0005,0.318,0.762c-0.1485,0.2565,0.1665,0.3045,0.363,0.402c-0.0645,0.057,-0.231,0.102,-0.318,0.12c0.333,0.1935,0.6645,0.3885,0.9975,0.582c0.1965,0.114,0.7545,0.582,0.9975,0.582c0.2295,0,0.7485,-0.4365,0.933,-0.5445c0.354,-0.207,0.708,-0.4125,1.062,-0.6195c-0.216,-0.0825,-0.4125,-0.2025,-0.5895,-0.3435c-0.2415,-0.1905,-1.0245,-1.0125,-0.8355,-1.3125c0.2805,-0.4485,1.182,0.837,1.335,1.0125c-0.201,0.0735,-0.138,0.291,-0.1365,0.4815c0.0525,-0.024,0.5205,-0.321,0.363,-0.321c0.363,-0.015,0.576,-0.372,0.453,-0.6825c0.2595,0.345,0.7395,0.6165,1.0875,0.8835c-0.03,-0.3885,-0.057,-0.7755,-0.0795,-1.164c-0.03,-0.507,-0.1965,-1.2105,0.057,-1.665c0.078,-0.1395,0.1875,-0.252,0.2925,-0.3615C16.032,11.805,16.1535,11.607,16.194,11.4735" opacity="0.5"/>
    <path d="M11.1615,7.7415c-0.045,0,-0.09,0,-0.09,0.0405C11.1045,7.7475,11.1705,7.7415,11.1615,7.7415" opacity="0.5"/>
    <path d="M14.019,14.202c-0.1425,-0.2535,-0.2775,-0.528,-0.453,-0.762c0.1125,-0.1005,0.2865,-0.1335,0.408,-0.2415c0.1005,0.3105,0.1995,0.6345,0.363,0.9225C14.307,14.136,14.019,14.229,14.019,14.202" opacity="0.5"/>
    <path d="M9.8025,14.2425c-0.078,-0.201,0.2715,-0.4455,0.2265,-0.762c-0.045,0.0135,-0.09,0.027,-0.1365,0.0405c0,-0.123,0.048,-0.288,0.09,-0.402c0.2775,0.246,0.459,0.1365,0.2985,0.534C10.191,13.878,9.99,14.082,9.8025,14.2425" opacity="0.5"/>
    <path d="M11.1165,8.3835c-0.0765,0,-0.0555,-0.1665,-0.045,-0.201c0.1425,0.042,0.234,0.147,0.2715,0.2805C11.271,8.439,11.184,8.4195,11.1165,8.3835" opacity="0.5"/>
    <path d="M10.3905,14.964c-0.093,-0.0285,-0.189,-0.111,-0.2715,-0.1605c0,-0.171,0.5385,-0.5925,0.648,-0.7095c0.2205,-0.2355,0.288,-0.42,0.6225,-0.213c-0.249,0.5145,-0.6,1.1385,-1.0875,1.485C10.3305,15.2325,10.3605,15.099,10.3905,14.964" opacity="0.5"/>
    <polygon points="9.9825,14.8035 10.3005,14.964 10.2105,15.3255 9.8925,15.1245" fill="#F7CE73" stroke-linejoin="miter"/>
    <polyline points="8.3955,11.5935 9.756,14.322 9.6195,14.322 8.259,11.634 8.3955,11.5935" fill="#F7CE73" stroke-linejoin="miter"/>
    <polyline points="10.029,14.7645 10.119,14.925 9.9825,14.9655 9.9375,14.8455 10.029,14.7645" fill="#F7CE73" stroke-linejoin="miter"/>
    <polyline points="15.9675,11.313 16.194,11.1525 16.194,11.394 16.149,11.394 16.149,11.4735 16.059,11.514 16.149,11.715 15.9225,11.8755 15.8325,12.0765 15.7425,12.117 15.7425,12.1575 15.6525,12.2385 14.7,13.8435 14.655,14.124 14.4735,14.205 14.5185,14.325 14.337,14.3655 14.292,14.205 14.4285,14.1645 14.3835,13.9635 14.61,13.7625 15.5625,12.1575 15.5625,12.0375 15.6075,11.997 15.5625,11.916 15.699,11.7555 15.699,11.475 15.9705,11.475 15.9705,11.3955 16.0155,11.355 15.9675,11.313" fill="#F7CE73" stroke-linejoin="miter"/>
    <polyline points="13.9275,14.925 14.0175,14.8845 14.0625,14.8845 14.1075,14.964 14.0625,15.0045 14.1075,15.084 13.836,15.285 13.836,14.964 13.926,14.964 13.926,14.925" fill="#F7CE73" stroke-linejoin="miter"/>
    <polyline points="8.805,13.7205 9.531,13.962 9.576,14.1225 9.3045,14.2035 8.805,14.0025 8.9865,13.962 8.805,13.7205" fill="#6A973F" stroke-linejoin="miter"/>
    <polyline points="9.711,13.32 9.4845,13.6005 9.666,14.1225 9.9375,13.9215 9.9825,13.6005 9.801,13.6815 9.711,13.32" fill="#6A973F" stroke-linejoin="miter"/>
    <polyline points="9.1665,13.2795 8.8035,12.918 8.532,12.918 8.7135,13.119 8.487,13.2 8.805,13.32 9.1665,13.2795" fill="#6A973F" stroke-linejoin="miter"/>
    <polyline points="9.258,12.477 8.9865,12.7185 8.9415,12.96 9.168,13.3215 9.4395,13.08 9.4395,12.639 9.303,12.72 9.258,12.477" fill="#6A973F" stroke-linejoin="miter"/>
    <polyline points="8.034,12.036 8.2155,12.117 8.034,12.1575 8.3055,12.399 8.6685,12.399 8.397,12.078 8.034,12.036" fill="#6A973F" stroke-linejoin="miter"/>
    <polyline points="8.6685,11.715 8.532,11.916 8.8035,12.4785 8.985,12.198 8.895,11.796 8.7585,11.916 8.6685,11.715" fill="#6A973F" stroke-linejoin="miter"/>
    <polyline points="7.9875,11.073 8.0325,11.3535 8.1225,11.4735 7.851,11.394 8.0325,11.6745 8.3505,11.7555 8.487,11.4345 8.3055,11.073 8.2605,11.274 7.9875,11.073" fill="#6A973F" stroke-linejoin="miter"/>
    <path d="M10.029,11.6745V10.029c0,-0.0795,-0.045,-0.1605,-0.045,-0.1605h3.99c0,0,-0.045,0.0405,-0.045,0.1605v1.6455l-1.95,0.522L10.029,11.6745" fill="#F37980"/>
    <path d="M13.8825,11.6745h-1.179H11.253h-1.179v1.284c0,0.0795,0.09,0.201,0.498,0.402c0.726,0.321,1.269,0.441,1.4055,0.642c0.1815,-0.1605,0.726,-0.321,1.4055,-0.642c0.453,-0.201,0.498,-0.321,0.498,-0.402v-1.284" fill="#77A1D5"/>
    <polyline points="10.6185,12.4365 11.208,12.6375 11.163,13.1595 10.5735,13.2795 10.2555,12.8385 10.6185,12.4365" fill="#F7CE73" stroke-linejoin="miter"/>
    <path d="M12.7035,12.918c0,0.1605,0.1815,0.321,0.363,0.3615c-0.045,-0.0405,-0.045,-0.12,-0.045,-0.1605c-0.045,-0.201,0.1365,-0.3615,0.408,-0.3615c0.045,0,0.09,0,0.1365,0c-0.09,-0.12,-0.2715,-0.201,-0.453,-0.201C12.885,12.5565,12.7035,12.717,12.7035,12.918" fill="#F7CE73"/>
    <polyline points="10.935,10.791 11.1615,10.149 10.6635,10.8315 11.343,11.5935 11.2065,11.9145 11.5695,12.0345 11.6145,13.1985 11.433,13.359 11.9775,13.6395 12.522,13.359 12.3405,13.1985 12.3855,12.0345 12.7485,11.9145 12.612,11.5935 13.2915,10.8315 12.7935,10.149 13.02,10.791 12.3855,11.3925 12.204,11.3115 11.9775,11.3925 11.751,11.3115 11.5695,11.3925 10.935,10.791" fill="#F7CE73" stroke-linejoin="miter"/>
    <polyline points="11.9325,10.1895 11.8875,10.3095 11.661,10.2285 11.751,10.4295 11.5245,10.509 11.751,10.59 11.661,10.791 11.8875,10.71 11.9325,10.911 12.0225,10.71 12.249,10.8705 12.159,10.6695 12.3855,10.5885 12.159,10.5075 12.249,10.3065 12.0225,10.386 11.9325,10.1895" fill="#F7CE73" stroke-linejoin="miter"/>
    <polyline points="10.98,11.6745 10.617,11.4735 10.209,11.6745 10.617,11.916 10.98,11.6745" fill="#F7CE73" stroke-linejoin="miter"/>
    <polyline points="13.656,11.6745 13.293,11.4735 12.93,11.6745 13.293,11.916 13.656,11.6745" fill="#F7CE73" stroke-linejoin="miter"/>
    <path d="M24,21H0V3h24V21zM1.5,19.5h21V4.5H1.5V19.5z" fill="#211F20" opacity="0.20"/>
  </g>
</svg>
