<?xml version="1.0" encoding="UTF-8"?>
<!DOCTYPE svg PUBLIC "-//W3C//DTD SVG 1.1//EN" "http://www.w3.org/Graphics/SVG/1.1/DTD/svg11.dtd">
<svg version="1.1" id="Layer_1" xmlns="http://www.w3.org/2000/svg" xmlns:xlink="http://www.w3.org/1999/xlink" x="0px" y="0px" width="24px" height="24px" viewBox="0 0 24 24" enable-background="new 0 0 24 24" xml:space="preserve">
  <g id="icon">
    <rect x="6" y="15" width="18" height="6" fill="#64C080"/>
    <rect x="6" y="3" width="18" height="12" fill="#F3797F"/>
    <rect x="0" y="3" width="6" height="18" fill="#FFFFFF"/>
    <path d="M4.6725,20.577l1.3095,-1.5765L4.545,17.562l-1.4415,1.4055L4.6725,20.577zM4.5855,18.342l0.615,0.7395l-0.615,0.6675l-0.6,-0.6885L4.5855,18.342zM1.7085,20.4765l1.242,-1.521l-1.362,-1.473L0.1005,19.032L1.7085,20.4765zM2.1885,19.0815l-0.615,0.6675l-0.6,-0.6885l0.6,-0.7185L2.1885,19.0815zM1.479,17.139l-0.615,0.6675l-0.6,-0.6885l0.6,-0.7185L1.479,17.139zM1.719,6.717l0.6,-0.7185l0.615,0.7395l-0.615,0.6675L1.719,6.717zM0.2625,6.717l0.6,-0.7185l0.615,0.7395l-0.615,0.6675L0.2625,6.717zM4.545,3.318L3.1035,4.7235l1.569,1.608L5.982,4.755L4.545,3.318zM4.5855,5.5035l-0.6,-0.6885l0.6,-0.7185l0.615,0.7395L4.5855,5.5035zM1.5885,3.237L0.1005,4.7865l1.608,1.4445l1.242,-1.521L1.5885,3.237zM1.5735,5.5035l-0.6,-0.6885l0.6,-0.7185l0.615,0.7395L1.5735,5.5035zM4.6725,6.717l0.6,-0.7185l0.615,0.7395l-0.615,0.6675L4.6725,6.717zM3.144,6.717l0.6,-0.7185l0.615,0.7395l-0.615,0.6675L3.144,6.717zM2.934,17.139l-0.615,0.6675l-0.6,-0.6885l0.6,-0.7185L2.934,17.139zM0.399,11.742L0,12.135v-0.768L0.399,11.742zM6,3v1.734l-0.0015,0.0015L6,3L6,3zM3.0285,8.6805l-1.44,-1.5585L0,8.778V9l0.2235,-0.0675l0.84,0.9405l0.585,-0.5775l-0.42,-0.3945l0.315,-0.2835l0.915,0.7995l-1.35,1.497L0,9.8865v1.4415l0.294,-0.264l0.915,0.7995L0,13.2045v0.72l1.1085,-1.029l1.35,1.497l-0.915,0.7995l-0.315,-0.2835l0.42,-0.3945l-0.585,-0.5775l-0.84,0.9405L0,14.8095v0.1785l1.6185,1.665l1.395,-1.659l1.605,1.7505l1.38,-1.6485v3.885L6,18.9795V8.58L4.65,7.164L3.0285,8.6805zM1.752,12.432l-0.0135,-0.615l0,0v-0.003v-0.003l0,0l0.0135,-0.615l1.2615,-1.434l1.3395,1.4265l-0.003,0.6255l0.0045,0.624L3.015,13.8645L1.752,12.432zM6,14.841l-0.12,0.036l-0.84,-0.9405l-0.5865,0.5775l0.42,0.3945l-0.315,0.2835l-0.9165,-0.7995l1.3515,-1.497l1.005,0.933v1.0125H6zM6,11.4525l-0.3,0.282l0.3,0.297v1.056L4.8885,11.856l0.915,-0.7995l0.1965,0.177V11.4525zM4.995,9.8745l0.84,-0.9405L6,8.9835v0.957l-1.05,0.9765L3.6,9.42l0.915,-0.7995l0.315,0.2835l-0.42,0.3945L4.995,9.8745zM4.359,17.139l-0.615,0.6675l-0.6,-0.6885l0.6,-0.7185L4.359,17.139zM5.8875,17.139l-0.615,0.6675l-0.6,-0.6885l0.6,-0.7185L5.8875,17.139z" fill="#F3797F"/>
    <path d="M24,21H0V3h24V21zM1.5,19.5h21V4.5H1.5V19.5z" fill="#211F20" opacity="0.2"/>
  </g>
</svg>
