<?xml version="1.0" encoding="UTF-8"?>
<!DOCTYPE svg PUBLIC "-//W3C//DTD SVG 1.1//EN" "http://www.w3.org/Graphics/SVG/1.1/DTD/svg11.dtd">
<svg version="1.1" id="Layer_1" xmlns="http://www.w3.org/2000/svg" xmlns:xlink="http://www.w3.org/1999/xlink" x="0px" y="0px" width="24px" height="24px" viewBox="0 0 24 24" enable-background="new 0 0 24 24" xml:space="preserve">
  <g id="icon">
    <rect x="0" y="3" width="24" height="18" fill="#FFFFFF"/>
    <rect x="0" y="18.975" width="24" height="2.025" fill="#77A1D5"/>
    <rect x="0" y="15" width="24" height="2.025" fill="#77A1D5"/>
    <rect x="10.6395" y="11.025" width="13.3605" height="2.025" fill="#77A1D5"/>
    <rect x="10.6395" y="6.975" width="13.3605" height="2.025" fill="#77A1D5"/>
    <rect x="10.6395" y="3" width="13.3605" height="2.025" fill="#77A1D5"/>
    <rect x="0" y="3" width="4.2405" height="3.975" fill="#77A1D5"/>
    <polygon points="10.6395,6.975 6.4005,6.975 6.4005,3 10.641,3 10.641,6.975" fill="#77A1D5" stroke-linejoin="miter"/>
    <rect x="0" y="9" width="4.2405" height="4.05" fill="#77A1D5"/>
    <polygon points="10.6395,13.05 6.4005,13.05 6.4005,9 10.641,9 10.641,13.05" fill="#77A1D5" stroke-linejoin="miter"/>
    <path d="M24,21H0V3h24V21zM1.5,19.5h21V4.5H1.5V19.5z" fill="#211F20" opacity="0.20"/>
  </g>
</svg>
