<?xml version="1.0" encoding="UTF-8"?>
<!DOCTYPE svg PUBLIC "-//W3C//DTD SVG 1.1//EN" "http://www.w3.org/Graphics/SVG/1.1/DTD/svg11.dtd">
<svg version="1.1" id="Layer_1" xmlns="http://www.w3.org/2000/svg" xmlns:xlink="http://www.w3.org/1999/xlink" x="0px" y="0px" width="24px" height="24px" viewBox="0 0 24 24" enable-background="new 0 0 24 24" xml:space="preserve">
  <g id="icon">
    <rect x="0" y="3" width="24" height="18" fill="#63BF80"/>
    <polyline points="11.9715,5.25 12.3075,6.2565 13.314,6.2895 12.4755,6.927 12.8115,7.9335 11.973,7.296 11.1345,7.9335 11.4705,6.927 10.632,6.2895 11.6385,6.2565 11.9715,5.25" fill="#F7CE73" stroke-linejoin="miter"/>
    <polygon points="9.522,7.6995 10.1265,7.8 9.657,7.3635 9.8925,6.759 9.3555,7.095 8.886,6.6585 9.0195,7.263 8.5155,7.5645 9.12,7.665 9.2535,8.3025" fill="#F7CE73" stroke-linejoin="miter"/>
    <polygon points="7.71,9.5115 8.3145,9.243 7.677,9.1095 7.5765,8.505 7.275,9.009 6.6705,8.8755 7.107,9.345 6.771,9.882 7.3755,9.6465 7.812,10.116" fill="#F7CE73" stroke-linejoin="miter"/>
    <polygon points="16.233,9.5115 16.1325,10.116 16.569,9.6465 17.1735,9.882 16.8375,9.345 17.274,8.8755 16.6695,9.009 16.368,8.505 16.2675,9.1095 15.63,9.243" fill="#F7CE73" stroke-linejoin="miter"/>
    <polygon points="14.421,7.6995 14.6895,8.304 14.823,7.6665 15.4275,7.566 14.9235,7.2645 15.057,6.66 14.5875,7.0965 14.0505,6.7605 14.286,7.365 13.8165,7.8" fill="#F7CE73" stroke-linejoin="miter"/>
    <path d="M13.8165,11.424c1.275,-0.369,2.886,0.402,2.886,0.402s-1.074,1.677,-2.382,2.046c-1.107,0.3015,-1.9125,-0.504,-2.2485,-0.6375c-0.033,0,-0.1005,0,-0.1335,0c-0.3015,0.1005,-1.1415,0.939,-2.2485,0.6375c-1.308,-0.369,-2.382,-2.046,-2.382,-2.046s1.5435,-0.8055,2.8515,-0.4365c0.2685,0.0675,0.504,0.201,0.705,0.336c-0.033,-0.201,-0.0675,-0.402,-0.0675,-0.6375c0,-1.1745,1.2075,-2.4825,1.2075,-2.4825s1.2075,1.275,1.2075,2.4825c0,0.2355,-0.033,0.4365,-0.0675,0.6375C13.347,11.592,13.5825,11.4915,13.8165,11.424" fill="#FFFFFF"/>
    <path d="M9.522,17.3295c0.738,0.4365,1.5435,0.6705,2.4495,0.6705s1.7115,-0.2355,2.4495,-0.6705H9.522" fill="#FFFFFF"/>
    <path d="M8.046,15.987c0.168,0.2355,0.369,0.4695,0.6045,0.6705h6.6435c0.2355,-0.201,0.4365,-0.4365,0.6045,-0.6705H8.046" fill="#FFFFFF"/>
    <path d="M16.77,14.6445h-3.591c-0.8055,0,-0.873,-0.57,-0.873,-0.6705h-0.6705c0,0.0675,-0.033,0.6705,-0.873,0.6705H7.173c0.1005,0.2355,0.201,0.4695,0.336,0.6705h3.255c0.6045,0,0.9735,-0.201,1.2075,-0.4695c0.2355,0.2685,0.6045,0.4695,1.2075,0.4695h3.255C16.5675,15.114,16.668,14.88,16.77,14.6445" fill="#FFFFFF"/>
    <path d="M24,21H0V3h24V21zM1.5,19.5h21V4.5H1.5V19.5z" fill="#211F20" opacity="0.20"/>
  </g>
</svg>
