<?xml version="1.0" encoding="UTF-8"?>
<!DOCTYPE svg PUBLIC "-//W3C//DTD SVG 1.1//EN" "http://www.w3.org/Graphics/SVG/1.1/DTD/svg11.dtd">
<svg version="1.1" id="Layer_1" xmlns="http://www.w3.org/2000/svg" xmlns:xlink="http://www.w3.org/1999/xlink" x="0px" y="0px" width="24px" height="24px" viewBox="0 0 24 24" enable-background="new 0 0 24 24" xml:space="preserve">
  <g id="icon">
    <rect x="0" y="3" width="24" height="5.25" fill="#77A1D5"/>
    <rect x="0" y="8.25" width="24" height="7.5" fill="#FFFFFF"/>
    <rect x="0" y="15.75" width="24" height="5.25" fill="#77A1D5"/>
    <polygon points="12.009,9.498 9.654,13.275 14.3655,13.275" fill="#76B6CA" stroke-linejoin="miter"/>
    <polygon points="10.8465,11.4 9.6465,13.275 14.3715,13.275 13.1715,11.4" fill="#77A1D5" stroke-linejoin="miter"/>
    <path d="M12.384,11.6355L12.384,11.6355c0,-0.075,0,-0.1125,0,-0.15c0,-0.1125,-0.075,-0.2625,-0.1875,-0.411c-0.075,-0.15,-0.1875,-0.1875,-0.3735,-0.075c-0.075,0.0375,-0.1125,0.075,-0.15,0.1875c0,0.0375,0,0.075,0,0.1125c0,0,0.075,0.0375,0.1125,-0.0375c0.0375,0,0.0375,-0.0375,0.0375,-0.0375c-0.0375,0,-0.0375,0.0375,-0.0375,0.0375c-0.0375,0.0375,-0.075,0.075,-0.1125,0.15s-0.0375,0.15,-0.0375,0.1875c0,0,0.0375,0.075,0.1125,0.075c0.075,0.0375,0.1125,0.075,0.15,0.1125s0.0375,0.075,0.0375,0.15c0,0.0375,0,0.1125,0.0375,0.1125s0.075,-0.0375,0.1125,-0.075c0,-0.075,0.0375,-0.1125,0.0375,-0.15c0.0375,-0.0375,0.0375,-0.0375,0.1125,-0.0375c0.0375,0,0.075,0,0.075,-0.0375c0,0,0,0,0,-0.0375C12.384,11.7105,12.3465,11.673,12.384,11.6355" fill="#F37980"/>
    <path d="M14.103,12.9075c-0.3735,-0.0375,-0.711,-0.3735,-0.786,-0.711c0,0,-0.0375,-0.0375,-0.075,-0.0375c-0.075,0,-0.075,0.0375,-0.075,0.0375c-0.0375,0.1125,-0.1125,0.2625,-0.225,0.3735c-0.1125,-0.1125,-0.1875,-0.2625,-0.225,-0.3735c0,0,-0.0375,-0.0375,-0.075,-0.0375c-0.075,0,-0.075,0.0375,-0.075,0.0375c-0.0375,0.1125,-0.1125,0.2625,-0.225,0.3735c-0.1125,-0.1125,-0.1875,-0.2625,-0.225,-0.3735c0,0,-0.0375,-0.0375,-0.075,-0.0375s-0.075,0.0375,-0.075,0.0375c-0.0375,0.1125,-0.1125,0.2625,-0.225,0.3735c-0.1125,-0.1125,-0.1875,-0.2625,-0.225,-0.3735c0,0,-0.0375,-0.0375,-0.075,-0.0375c-0.075,0,-0.075,0.0375,-0.075,0.0375c-0.0375,0.1125,-0.1125,0.2625,-0.225,0.3735c-0.1125,-0.1125,-0.1875,-0.2625,-0.225,-0.3735c0,0,-0.0375,-0.0375,-0.075,-0.0375c-0.075,0,-0.075,0.0375,-0.075,0.0375c-0.1125,0.336,-0.4485,0.7485,-0.8595,0.786L9.72,13.245h0.5985h0.411h0.5985h0.2985h0.2985h0.2985h1.0845h0.4485h0.5985L14.103,12.9075" fill="#63BF80"/>
    <path d="M12.009,8.6445c-1.8705,0,-3.366,1.4955,-3.366,3.366c0,1.8705,1.4955,3.366,3.366,3.366c1.8705,0,3.366,-1.4955,3.366,-3.366C15.375,10.14,13.8795,8.6445,12.009,8.6445zM12.009,14.814c-1.533,0,-2.805,-1.272,-2.805,-2.805c0,-1.533,1.272,-2.805,2.805,-2.805c1.533,0,2.805,1.272,2.805,2.805C14.814,13.542,13.542,14.814,12.009,14.814z" fill="#F7CE73"/>
    <path d="M24,21H0V3h24V21zM1.5,19.5h21V4.5H1.5V19.5z" fill="#211F20" opacity="0.2"/>
  </g>
</svg>
