<?xml version="1.0" encoding="UTF-8"?>
<!DOCTYPE svg PUBLIC "-//W3C//DTD SVG 1.1//EN" "http://www.w3.org/Graphics/SVG/1.1/DTD/svg11.dtd">
<svg version="1.1" id="Layer_1" xmlns="http://www.w3.org/2000/svg" xmlns:xlink="http://www.w3.org/1999/xlink" x="0px" y="0px" width="24px" height="24px" viewBox="0 0 24 24" enable-background="new 0 0 24 24" xml:space="preserve">
  <g id="icon">
    <rect x="9" y="3" width="15" height="6" fill="#FFFFFF"/>
    <rect x="9" y="9" width="15" height="6" fill="#F37980"/>
    <rect x="9" y="15" width="15" height="6" fill="#63BF80"/>
    <rect x="0" y="3" width="9" height="18" fill="#F37980"/>
    <path d="M7.371,11.025l-0.1245,0.0615l-0.999,-0.8535l-1.125,-1.2195c0.063,-0.1215,0.063,-0.4275,0,-0.609l0.1875,-0.183h0.1875c0.063,0.1215,0.1875,0.2445,0.375,0.2445s0.312,-0.0615,0.375,-0.2445h0.2505v0.3045h1.686v-0.915H6.4965v0.3045H6.246c-0.063,-0.1215,-0.1875,-0.2445,-0.312,-0.2445l0.063,-0.0615L7.371,4.866l-0.1875,-0.183L5.247,7.2435l0.1245,0.1215l-0.1245,0.2445h-0.312l-0.063,-0.1215h0.2505v-0.183l-0.1875,-0.0615v-0.366h0.2505l0.063,-0.183L4.749,6.573V5.3535l0.375,-0.4275L4.497,4.5l-0.624,0.4275l0.375,0.4275v1.2195l-0.4995,0.1215l0.063,0.183h0.2505v0.366l-0.1875,0.0615v0.183h0.2505l-0.063,0.1215H3.75l-0.1245,-0.2445L3.75,7.245L1.812,4.683l-0.1245,0.0615l1.374,2.7435l0.063,0.0615c-0.1245,0,-0.2505,0.1215,-0.312,0.2445H2.562v-0.3045H0.75v0.915h1.686V8.1h0.2505c0.063,0.1215,0.1875,0.2445,0.375,0.2445c0.1875,0,0.312,-0.0615,0.375,-0.2445h0.1875l0.1875,0.2445v0.1215H3.561v0.3045L2.0625,8.892l-0.063,-0.1215c0,0,-0.8115,0.1215,-0.9375,0.3045c0,0.0615,0,0.1215,0,0.183c0.1245,0.183,0.9375,0.4275,0.9375,0.4275V9.624c0,0,0.5625,0.1215,1.1865,0.183l-0.375,0.4275l-0.999,0.8535l-0.1245,-0.0615L0.813,11.88L0.75,12l0.999,-0.3045l0.687,-0.4875l-0.1245,-0.0615l1.6245,-1.341c0.063,0,0.1245,0,0.1245,0c0.1875,0,0.5625,-0.1215,0.687,-0.2445l0.1875,0.183l1.686,1.4025l-0.1245,0.0615l0.687,0.4875l0.999,0.3045l0.063,-0.1215L7.371,11.025" fill="#FFFFFF"/>
    <path d="M24,21H0V3h24V21zM1.5,19.5h21V4.5H1.5V19.5z" fill="#211F20" opacity="0.20"/>
  </g>
</svg>
