<?xml version="1.0" encoding="UTF-8"?>
<!DOCTYPE svg PUBLIC "-//W3C//DTD SVG 1.1//EN" "http://www.w3.org/Graphics/SVG/1.1/DTD/svg11.dtd">
<svg version="1.1" id="Layer_1" xmlns="http://www.w3.org/2000/svg" xmlns:xlink="http://www.w3.org/1999/xlink" x="0px" y="0px" width="24px" height="24px" viewBox="0 0 24 24" enable-background="new 0 0 24 24" xml:space="preserve">
  <g id="icon">
    <rect x="0" y="3" width="24" height="18" fill="#F37980"/>
    <rect x="0" y="3" width="12" height="9" fill="#77A1D5"/>
    <polyline points="7.875,7.9875 9.75,7.5 7.875,7.0125 9.2625,5.625 7.3875,6.1125 7.875,4.2375 6.4875,5.625 6,3.75 5.5125,5.625 4.125,4.2375 4.6125,6.1125 2.7375,5.625 4.125,7.0125 2.25,7.5 4.125,7.9875 2.7375,9.375 4.6125,8.8875 4.125,10.7625 5.5125,9.375 6,11.25 6.4875,9.375 7.875,10.7625 7.3875,8.8875 9.2625,9.375 7.875,7.9875" fill="#FFFFFF" stroke-linejoin="miter"/>
    <circle cx="6" cy="7.5" r="2.1375" fill="#77A1D5"/>
    <circle cx="6" cy="7.5" r="1.875" fill="#FFFFFF"/>
    <path d="M24,21H0V3h24V21zM1.5,19.5h21V4.5H1.5V19.5z" fill="#211F20" opacity="0.20"/>
  </g>
</svg>
