<?xml version="1.0" encoding="UTF-8"?>
<!DOCTYPE svg PUBLIC "-//W3C//DTD SVG 1.1//EN" "http://www.w3.org/Graphics/SVG/1.1/DTD/svg11.dtd">
<svg version="1.1" id="Layer_1" xmlns="http://www.w3.org/2000/svg" xmlns:xlink="http://www.w3.org/1999/xlink" x="0px" y="0px" width="24px" height="24px" viewBox="0 0 24 24" enable-background="new 0 0 24 24" xml:space="preserve">
  <g id="icon">
    <rect x="0" y="3" width="24" height="18" fill="#F37980"/>
    <circle cx="12" cy="12" r="2.9865" fill="#F7CE73"/>
    <polygon points="22.509,3 24,3 24,4.8495 12.036,12.0195 0,4.806 0,3 1.5645,3 12.036,11.6445" fill="#F7CE73" stroke-linejoin="miter"/>
    <polygon points="24,10.5855 12.036,12.0195 24,13.452" fill="#F7CE73" stroke-linejoin="miter"/>
    <polygon points="13.5,3 10.572,3 12.036,10.521" fill="#F7CE73" stroke-linejoin="miter"/>
    <polygon points="10.5795,21 13.494,21 12.0375,13.5165" fill="#F7CE73" stroke-linejoin="miter"/>
    <polygon points="0,21 1.6095,21 12.036,12.393 22.4625,21 24,21 24,19.188 12.036,12.0195 0,19.2315" fill="#F7CE73" stroke-linejoin="miter"/>
    <polygon points="0,13.461 12.036,12.018 0,10.5765" fill="#F7CE73" stroke-linejoin="miter"/>
    <path d="M12,9.0135v0.0135c0.8205,0,1.5645,0.333,2.103,0.8715c0.5385,0.5385,0.8715,1.281,0.8715,2.103c0,0.8205,-0.333,1.5645,-0.8715,2.103c-0.5385,0.5385,-1.281,0.8715,-2.103,0.8715c-0.8205,0,-1.5645,-0.333,-2.103,-0.8715c-0.5385,-0.5385,-0.8715,-1.281,-0.8715,-2.103s0.333,-1.5645,0.8715,-2.103c0.5385,-0.5385,1.281,-0.8715,2.103,-0.8715V9.0135V9c-1.6575,0,-3,1.3425,-3,3s1.3425,3,3,3s3,-1.3425,3,-3s-1.3425,-3,-3,-3V9.0135z" fill="#D1242A"/>
    <path d="M12,15.6c-1.9851,0,-3.6,-1.6149,-3.6,-3.6c0,-1.7807,1.2995,-3.2635,3,-3.55V8.4h1.2v0.05c1.7005,0.2865,3,1.7693,3,3.55C15.6,13.9851,13.9851,15.6,12,15.6zM12,9.627c-0.6339,0,-1.2301,0.2471,-1.6787,0.6957c-0.4487,0.4488,-0.6958,1.0449,-0.6958,1.6787c0,0.6339,0.2471,1.23,0.6958,1.6787c0.4486,0.4487,1.0448,0.6958,1.6787,0.6958s1.2301,-0.2471,1.6787,-0.6957c0.4487,-0.4488,0.6958,-1.0449,0.6958,-1.6788c0,-0.6338,-0.2471,-1.23,-0.6958,-1.6786C13.2301,9.8741,12.6339,9.627,12,9.627z" fill="#F37980"/>
    <path d="M24,21H0V3h24V21zM1.5,19.5h21V4.5H1.5V19.5z" fill="#211F20" opacity="0.20"/>
  </g>
</svg>
