<?xml version="1.0" encoding="UTF-8"?>
<!DOCTYPE svg PUBLIC "-//W3C//DTD SVG 1.1//EN" "http://www.w3.org/Graphics/SVG/1.1/DTD/svg11.dtd">
<svg version="1.1" id="Layer_1" xmlns="http://www.w3.org/2000/svg" xmlns:xlink="http://www.w3.org/1999/xlink" x="0px" y="0px" width="24px" height="24px" viewBox="0 0 24 24" enable-background="new 0 0 24 24" xml:space="preserve">
  <g id="icon">
    <path d="M12,0.0587C5.4007,0.0587,0.0318,4.7755,0.0318,10.5732c0,2.8052,1.2997,5.5289,3.5712,7.4951c-0.2598,1.1971,-0.9662,3.3011,-1.2265,4.0384l-0.6608,1.8718l1.8863,-0.6181c0.9675,-0.317,5.7933,-1.9002,7.0272,-2.3408c0.4531,0.0453,0.9141,0.0683,1.3709,0.0683c6.5993,0,11.9682,-4.7168,11.9682,-10.5145C23.9682,4.7755,18.5993,0.0587,12,0.0587zM8.9436,15.001H6.9965l-0.0443,-8.9601h1.9914V15.001zM17.7662,7.9962h-2.8148v7.006H12.96V7.9975h-2.6937V6.0409h7.4999V7.9962z" fill="#319C74"/>
    <path d="M12.96,15.0022V7.9975h-2.6937V6.0409h7.4999v1.9553h-2.8148v7.006H12.96zM6.9965,15.001l-0.0442,-8.9601h1.9914v8.9601H6.9965z" fill="#FFFFFF" opacity="0.5"/>
  </g>
</svg>
