<?xml version="1.0" encoding="UTF-8"?>
<!DOCTYPE svg PUBLIC "-//W3C//DTD SVG 1.1//EN" "http://www.w3.org/Graphics/SVG/1.1/DTD/svg11.dtd">
<svg version="1.1" id="Layer_1" xmlns="http://www.w3.org/2000/svg" xmlns:xlink="http://www.w3.org/1999/xlink" x="0px" y="0px" width="24px" height="24px" viewBox="0 0 24 24" enable-background="new 0 0 24 24" xml:space="preserve">
  <g id="icon">
    <path d="M3.0437,22.3667c0.0118,-0.0335,1.1435,-3.2499,1.3376,-4.5865c-2.3193,-1.8561,-3.6465,-4.4839,-3.6465,-7.2304C0.7347,5.138,5.7883,0.7352,12,0.7352s11.2653,4.4028,11.2653,9.8146S18.2117,20.3645,12,20.3645c-0.4897,0,-0.9825,-0.0277,-1.4658,-0.0824c-0.8553,0.3237,-6.9184,2.3122,-7.1834,2.3991l-0.4729,0.1551L3.0437,22.3667z" fill="#FFFFFF" opacity="0.5"/>
    <path d="M2.3509,22.1219c0.261,-0.7397,0.9693,-2.8508,1.2297,-4.0519C1.3031,16.0972,0,13.3644,0,10.5498C0,4.7326,5.3832,0,12,0s12,4.7327,12,10.5499c0,5.8172,-5.3832,10.5498,-12,10.5498c-0.458,0,-0.9202,-0.023,-1.3745,-0.0685c-1.2372,0.442,-6.0758,2.0306,-7.0458,2.3486L1.6884,24L2.3509,22.1219zM12,1.9606c-5.5365,0,-10.0408,3.8531,-10.0408,8.5892c0,2.4091,1.197,4.7238,3.2842,6.3505l0.4293,0.3346l-0.057,0.5415c-0.0779,0.7393,-0.4486,2.0348,-0.7949,3.1316c2.4523,-0.8085,5.0127,-1.6612,5.3084,-1.7829l0.235,-0.0967l0.2524,0.0297c0.455,0.0538,0.9205,0.081,1.3834,0.081c5.5365,0,10.0408,-3.8531,10.0408,-8.5892C22.0408,5.8137,17.5365,1.9606,12,1.9606z" fill="#A171A5"/>
    <path d="M15.2006,11.449c-0.1592,-0.0043,-0.3522,-0.012,-0.5772,-0.0231v3.4351h-2.0588V6.1414h0.2449c0.0554,0,0.2687,-0.0074,0.9699,-0.0425c0.5714,-0.0286,1.0395,-0.0431,1.3911,-0.0431c2.8832,0,3.4885,1.4501,3.4885,2.6666c0,0.5352,-0.1658,1.0295,-0.4928,1.4691c-0.2651,0.3563,-0.5901,0.6306,-0.9686,0.8178l2.6056,3.8505h-2.3394L15.2006,11.449zM14.6234,9.7258c0.1607,0.0105,0.2946,0.0159,0.394,0.0159c0.5813,0,1.004,-0.0754,1.2564,-0.224c0.2149,-0.1266,0.3238,-0.3998,0.3238,-0.812c0,-0.4218,-0.1957,-0.5714,-0.3429,-0.6471c-0.2759,-0.1421,-0.735,-0.2142,-1.3644,-0.2143c-0.0882,0.0007,-0.1774,0.0044,-0.267,0.011V9.7258zM8.8781,15c-1.2611,0,-2.2577,-0.4115,-2.962,-1.223c-0.6925,-0.7978,-1.0436,-1.8919,-1.0436,-3.252c0,-1.272,0.3881,-2.3525,1.1535,-3.2116C6.8014,6.4419,7.8079,6,9.0174,6c1.0249,0.0012,1.8608,0.2108,2.4849,0.6227l0.1717,0.1134l-0.8663,1.6863l-0.2432,-0.2354c-0.2887,-0.2794,-0.7776,-0.421,-1.453,-0.421c-0.6327,0,-1.1388,0.2524,-1.5471,0.7716c-0.4193,0.5332,-0.6319,1.2231,-0.6319,2.0503c0,0.8274,0.195,1.487,0.5794,1.9608c0.375,0.4619,0.8621,0.6865,1.4891,0.6865c0.7286,0,1.281,-0.2433,1.6889,-0.7439l0.226,-0.2774l0.9714,1.6355l-0.1203,0.1238C11.1055,14.6546,10.1334,15,8.8781,15z" fill="#A171A5"/>
  </g>
</svg>
