<?xml version="1.0" encoding="UTF-8"?>
<!DOCTYPE svg PUBLIC "-//W3C//DTD SVG 1.1//EN" "http://www.w3.org/Graphics/SVG/1.1/DTD/svg11.dtd">
<svg version="1.1" id="Layer_1" xmlns="http://www.w3.org/2000/svg" xmlns:xlink="http://www.w3.org/1999/xlink" x="0px" y="0px" width="24px" height="24px" viewBox="0 0 24 24" enable-background="new 0 0 24 24" xml:space="preserve">
  <g id="icon">
    <path d="M12,0.9803c-6.0864,0,-11.0204,4.2844,-11.0204,9.5695c0,2.8293,1.414,5.3719,3.6619,7.1239c-0.1354,1.2848,-1.3669,4.7746,-1.3669,4.7746s6.6682,-2.1865,7.2273,-2.4166c0.4899,0.0578,0.9899,0.0877,1.4981,0.0877c6.0864,0,11.0204,-4.2844,11.0204,-9.5696S18.0865,0.9803,12,0.9803z" fill="#FFFFFF" opacity="0.5"/>
    <path d="M2.3509,22.1219c0.261,-0.7397,0.9693,-2.8508,1.2297,-4.0519C1.3031,16.0972,0,13.3644,0,10.5498C0,4.7326,5.3832,0,12,0s12,4.7327,12,10.5499c0,5.8172,-5.3832,10.5498,-12,10.5498c-0.458,0,-0.9202,-0.023,-1.3745,-0.0685c-1.2372,0.442,-6.0758,2.0306,-7.0458,2.3486L1.6884,24L2.3509,22.1219zM12,1.9606c-5.5365,0,-10.0408,3.8531,-10.0408,8.5892c0,2.4091,1.197,4.7238,3.2842,6.3505l0.4293,0.3346l-0.057,0.5415c-0.0779,0.7393,-0.4486,2.0348,-0.7949,3.1316c2.4523,-0.8085,5.0127,-1.6612,5.3084,-1.7829l0.235,-0.0967l0.2524,0.0297c0.455,0.0538,0.9205,0.081,1.3834,0.081c5.5365,0,10.0408,-3.8531,10.0408,-8.5892C22.0408,5.8137,17.5365,1.9606,12,1.9606z" fill="#9171B2"/>
  </g>
</svg>
