<?xml version="1.0" encoding="UTF-8"?>
<!DOCTYPE svg PUBLIC "-//W3C//DTD SVG 1.1//EN" "http://www.w3.org/Graphics/SVG/1.1/DTD/svg11.dtd">
<svg version="1.1" id="Layer_1" xmlns="http://www.w3.org/2000/svg" xmlns:xlink="http://www.w3.org/1999/xlink" x="0px" y="0px" width="24px" height="24px" viewBox="0 0 24 24" enable-background="new 0 0 24 24" xml:space="preserve">
  <g id="icon">
    <polygon points="5,21 5,3 8,3 8,5 8,5 8,19 20,19 20,21" fill="#7D7C7B" stroke-linejoin="miter"/>
    <polygon points="1,24 1,6 4,6 4,8 4,8 4,22 16,22 16,24" fill="#7D7C7B" stroke-linejoin="miter"/>
    <path d="M17,6V0h0.2l5.8,5.8v0.2H17zM16,7V0H9v18h14V7H16z" fill="#7D7C7C"/>
    <polygon points="17,6 17,0 16,0 16,6 16,7 17,7 23,7 23,6" fill="#FFFFFF" stroke-linejoin="miter" opacity="0.5"/>
  </g>
</svg>
