<?xml version="1.0" encoding="UTF-8"?>
<!DOCTYPE svg PUBLIC "-//W3C//DTD SVG 1.1//EN" "http://www.w3.org/Graphics/SVG/1.1/DTD/svg11.dtd">
<svg version="1.1" id="Layer_1" xmlns="http://www.w3.org/2000/svg" xmlns:xlink="http://www.w3.org/1999/xlink" x="0px" y="0px" width="24px" height="24px" viewBox="0 0 24 24" enable-background="new 0 0 24 24" xml:space="preserve">
  <g id="icon">
    <polygon points="22,23 5,23 5,2 17,2 17,7.025 22,7" fill="#FFFFFF" stroke-linejoin="miter" opacity="0.5"/>
    <polygon points="17.525,0 4,0 4,13 6,13 6,2 17,2 17,7.025 22,7 22,22 19,22 19,24 24,24 24,6.5" fill="#7B7B7B" stroke-linejoin="miter"/>
    <path d="M14.6118,24l-0.891,-2.4847h-1.9549L10.8848,24H8.7132l3.2462,-9h1.6112L16.8,24H14.6118zM13.0581,19.542l-0.2951,-0.8584l-0.2986,0.8584H13.0581zM3.5035,24v-8.9679h2.4852c2.1671,0,3.3125,0.987,3.3125,2.8542c0,0.9533,-0.3164,1.7091,-0.9403,2.2462c-0.6128,0.5275,-1.4718,0.7949,-2.5533,0.7949h-0.2119V24H3.5035zM5.7146,18.9916c0.5709,0,0.9823,-0.0866,1.1897,-0.2504c0.1827,-0.1441,0.2753,-0.4174,0.2753,-0.8122c0,-0.3419,-0.0854,-0.585,-0.2539,-0.7225c-0.1872,-0.1526,-0.5434,-0.2332,-1.0301,-0.2332h-0.3001v2.0184H5.7146zM0.0027,24v-8.9679h1.9921V24H0.0027z" fill="#6486C4"/>
  </g>
</svg>
