<?xml version="1.0" encoding="UTF-8"?>
<!DOCTYPE svg PUBLIC "-//W3C//DTD SVG 1.1//EN" "http://www.w3.org/Graphics/SVG/1.1/DTD/svg11.dtd">
<svg version="1.1" id="Layer_1" xmlns="http://www.w3.org/2000/svg" xmlns:xlink="http://www.w3.org/1999/xlink" x="0px" y="0px" width="24px" height="24px" viewBox="0 0 24 24" enable-background="new 0 0 24 24" xml:space="preserve">
  <g id="icon">
    <polygon points="22,13 22,7 17,7.025 17,2 5,2 5,13" fill="#FFFFFF" stroke-linejoin="miter" opacity="0.5"/>
    <polygon points="6,2 17,2 17,7.025 22,7 22,13 24,13 24,6.5 17.525,0 4,0 4,13 6,13" fill="#7B7B7B" stroke-linejoin="miter"/>
    <path d="M15.544,24.0296c-0.9263,0,-1.6512,-0.4353,-2.1548,-1.2938c-0.4585,-0.7818,-0.691,-1.878,-0.691,-3.2581c0,-0.8601,0.1088,-1.6304,0.3234,-2.2895c0.2269,-0.6971,0.566,-1.2479,1.008,-1.6372c0.4592,-0.4043,1.0038,-0.6093,1.6185,-0.6093c0.6323,0,1.1968,0.1819,1.678,0.5406l0.1006,0.0752l0.1599,0.3759l-0.5318,1.6461l-0.5367,-0.385c-0.2989,-0.2144,-0.594,-0.3232,-0.8769,-0.3232c-0.38,0,-0.6636,0.187,-0.8923,0.5887c-0.2693,0.4731,-0.4058,1.1555,-0.4058,2.0283c0,0.902,0.1312,1.5924,0.3899,2.0519c0.217,0.3855,0.5034,0.5651,0.9013,0.5651c0.2896,0,0.6356,-0.0853,1.0285,-0.2536l0.6894,-0.2951v1.7676l-0.1005,0.2413l-0.1736,0.0994C16.6555,23.9069,16.1393,24.0296,15.544,24.0296zM8.9285,24.0296c-0.9271,0,-1.6523,-0.4386,-2.1557,-1.3034c-0.4579,-0.7867,-0.6901,-1.8832,-0.6901,-3.2591c0,-1.3661,0.2331,-2.4561,0.6929,-3.2396c0.5045,-0.8602,1.2312,-1.2964,2.1599,-1.2964c0.909,0,1.6269,0.4433,2.1337,1.3175c0.4611,0.7955,0.6949,1.8819,0.6949,3.2291c0,1.3434,-0.2343,2.4297,-0.6963,3.2286C10.5597,23.5844,9.84,24.0296,8.9285,24.0296zM8.9354,16.8608c-0.3794,0,-0.6488,0.1717,-0.8477,0.5402c-0.2435,0.451,-0.367,1.1497,-0.367,2.0768c0,0.9412,0.1234,1.6471,0.3669,2.0979c0.199,0.3687,0.4662,0.5403,0.8409,0.5403c0.3777,0,0.6438,-0.1697,0.8372,-0.534c0.239,-0.4504,0.3602,-1.1583,0.3602,-2.1042c0,-0.9355,-0.1206,-1.6372,-0.3586,-2.0857C9.5749,17.0296,9.3106,16.8608,8.9354,16.8608zM21.9891,23.9237l-1.0386,-2.5943l-1.0571,2.5943H18.149l0.2641,-0.6335l-0.0418,-0.0626l0.126,-0.1395l1.5718,-3.7721l-1.3736,-3.231l-0.1336,-0.2457l0.0202,-0.021l-0.3252,-0.7653h1.7776l0.9357,2.2786l0.9435,-2.2786h1.7552l-1.8149,4.2326l1.9254,4.638H21.9891zM0.0552,23.9237V15.053h2.0615c0.9567,0,1.7134,0.4148,2.2492,1.233c0.4996,0.7625,0.7529,1.815,0.7529,3.1282c0,1.3967,-0.2633,2.4966,-0.7826,3.2691c-0.5532,0.8231,-1.3502,1.2405,-2.3688,1.2405H0.0552zM1.8703,22.0206c0.546,0,0.9208,-0.1797,1.1795,-0.5657c0.2859,-0.4265,0.4309,-1.1024,0.4309,-2.0089c0,-0.8852,-0.1355,-1.5431,-0.4027,-1.9554c-0.2365,-0.3647,-0.5762,-0.5345,-1.0689,-0.5345h-0.3506v5.0645H1.8703z" fill="#6486C4"/>
  </g>
</svg>
