<?xml version="1.0" encoding="UTF-8"?>
<!DOCTYPE svg PUBLIC "-//W3C//DTD SVG 1.1//EN" "http://www.w3.org/Graphics/SVG/1.1/DTD/svg11.dtd">
<svg version="1.1" id="Layer_1" xmlns="http://www.w3.org/2000/svg" xmlns:xlink="http://www.w3.org/1999/xlink" x="0px" y="0px" width="24px" height="24px" viewBox="0 0 24 24" enable-background="new 0 0 24 24" xml:space="preserve">
  <g id="icon">
    <polygon points="22,23 5,23 5,2 17,2 17,7.025 22,7" fill="#FFFFFF" stroke-linejoin="miter" opacity="0.5"/>
    <polygon points="17.525,0 4,0 4,13 6,13 6,2 17,2 17,7.025 22,7 22,22 18.4,22 18.4,24 24,24 24,6.5" fill="#7B7B7B" stroke-linejoin="miter"/>
    <path d="M13.3676,24l-1.2434,-4.8188L10.9112,24H9.2228l-2.0577,-9.0308h2.016l0.9575,4.3699l1.103,-4.3699H12.97l1.1644,4.4349l0.9695,-4.4349h2.0172L15.0526,24H13.3676zM0,24v-9.0308h2.6482c1.2245,0,2.1976,0.4113,2.8922,1.2224c0.6701,0.7824,1.0098,1.8649,1.0098,3.2173c0,1.4377,-0.3531,2.5684,-1.0493,3.3606C4.7835,23.586,3.7568,24,2.4492,24H0zM2.3197,22.0734c0.7583,0,1.3231,-0.2057,1.6787,-0.6113c0.377,-0.4302,0.5682,-1.11,0.5682,-2.0208c0,-0.889,-0.1785,-1.5504,-0.5305,-1.9659c-0.3308,-0.3901,-0.8317,-0.5797,-1.5313,-0.5797h-0.5674v5.1777H2.3197z" fill="#6486C4"/>
  </g>
</svg>
