<?xml version="1.0" encoding="UTF-8"?>
<!DOCTYPE svg PUBLIC "-//W3C//DTD SVG 1.1//EN" "http://www.w3.org/Graphics/SVG/1.1/DTD/svg11.dtd">
<svg version="1.1" id="Layer_1" xmlns="http://www.w3.org/2000/svg" xmlns:xlink="http://www.w3.org/1999/xlink" x="0px" y="0px" width="24px" height="24px" viewBox="0 0 24 24" enable-background="new 0 0 24 24" xml:space="preserve">
  <g id="icon">
    <polygon points="22,23 5,23 5,2 17,2 17,7.025 22,7" fill="#FFFFFF" stroke-linejoin="miter" opacity="0.5"/>
    <polygon points="17.525,0 4,0 4,13 6,13 6,2 17,2 17,7.025 22,7 22,22 15,22 15,24 24,24 24,6.5" fill="#7B7B7B" stroke-linejoin="miter"/>
    <path d="M6.4761,24v-1.3627l3.1914,-5.7889H6.5857V15h5.3938v1.3628l-3.191,5.7833h3.2914V24H6.4761zM0.798,24l2.7661,-7.1516H0.1583V15h5.4578v1.3245L2.7308,24H0.798z" fill="#6486C4"/>
  </g>
</svg>
