<?xml version="1.0" encoding="UTF-8"?>
<!DOCTYPE svg PUBLIC "-//W3C//DTD SVG 1.1//EN" "http://www.w3.org/Graphics/SVG/1.1/DTD/svg11.dtd">
<svg version="1.1" id="Layer_1" xmlns="http://www.w3.org/2000/svg" xmlns:xlink="http://www.w3.org/1999/xlink" x="0px" y="0px" width="24px" height="24px" viewBox="0 0 24 24" enable-background="new 0 0 24 24" xml:space="preserve">
  <g id="icon">
    <polygon points="1,23 1,7 8,7 8,19 14,19 14,23" fill="#FFFFFF" stroke-linejoin="miter" opacity="0.5"/>
    <polygon points="0,24 0,6 8,6 8,8 2,8 2,22 13,22 13,19 15,19 15,24" fill="#7D7C7B" stroke-linejoin="miter"/>
    <path d="M9,0v18h15V5.5L18.525,0H9zM22,16H11V2h7v4.025L22,6V16z" fill="#7B7B7B"/>
    <polygon points="22,16 11,16 11,2 18,2 18,6.025 22,6" fill="#FFFFFF" stroke-linejoin="miter" opacity="0.4"/>
  </g>
</svg>
