<?xml version="1.0" encoding="UTF-8"?>
<!DOCTYPE svg PUBLIC "-//W3C//DTD SVG 1.1//EN" "http://www.w3.org/Graphics/SVG/1.1/DTD/svg11.dtd">
<svg version="1.1" id="Layer_1" xmlns="http://www.w3.org/2000/svg" xmlns:xlink="http://www.w3.org/1999/xlink" x="0px" y="0px" width="24px" height="24px" viewBox="0 0 24 24" enable-background="new 0 0 24 24" xml:space="preserve">
  <g id="icon">
    <polygon points="22,23 5,23 5,2 17,2 17,7.025 22,7" fill="#FFFFFF" stroke-linejoin="miter" opacity="0.5"/>
    <polygon points="17.525,0 4,0 4,13 6,13 6,2 17,2 17,7.025 22,7 22,22 18.5,22 18.5,24 24,24 24,6.5" fill="#7B7B7B" stroke-linejoin="miter"/>
    <path d="M14.5842,24l-2.8085,-5.1114c0,0.0224,0.0001,5.1114,0.0001,5.1114h-1.7582v-9h1.7063l2.8081,5.1027c0.0002,-0.0099,0.0005,-0.0195,0.0007,-0.0289L14.5325,15H16.3v9H14.5842zM6.995,24v-9h1.8179v9H6.995zM0,24v-9h2.4155c1.0205,0,1.7582,0.1916,2.2551,0.5856c0.527,0.4181,0.7942,1.0593,0.7942,1.9057c0,0.5819,-0.1454,1.0777,-0.432,1.4738c-0.0704,0.0973,-0.149,0.1871,-0.2353,0.269c0.5925,0.4227,0.8924,1.0872,0.8924,1.9806c0,0.8533,-0.2571,1.5388,-0.7641,2.0377C4.4215,23.7485,3.7269,24,2.861,24H0zM2.7002,22.1692c0.4013,0,0.7044,-0.0825,0.8764,-0.2386c0.1594,-0.1446,0.2402,-0.4074,0.2402,-0.7812c0,-0.3329,-0.0758,-0.5577,-0.2319,-0.6871c-0.1809,-0.15,-0.509,-0.2292,-0.9489,-0.2292h-0.818v1.9361H2.7002zM2.5854,18.4077c0.5544,0,0.7737,-0.1157,0.855,-0.1848c0.1171,-0.0992,0.1789,-0.3202,0.1789,-0.6391c0,-0.4051,-0.1443,-0.511,-0.1917,-0.5459c-0.122,-0.0895,-0.3912,-0.1963,-0.9799,-0.1963h-0.6297v1.566H2.5854z" fill="#6486C4"/>
  </g>
</svg>
