<?xml version="1.0" encoding="UTF-8"?>
<!DOCTYPE svg PUBLIC "-//W3C//DTD SVG 1.1//EN" "http://www.w3.org/Graphics/SVG/1.1/DTD/svg11.dtd">
<svg version="1.1" id="Layer_1" xmlns="http://www.w3.org/2000/svg" xmlns:xlink="http://www.w3.org/1999/xlink" x="0px" y="0px" width="24px" height="24px" viewBox="0 0 24 24" enable-background="new 0 0 24 24" xml:space="preserve">
  <g id="icon">
    <polygon points="17,7.025 17,2 6,2 6,9 6,10 6,11.8921 6,14.6499 6,23 16,23 22,23 22,7" fill="#FFFFFF" stroke-linejoin="miter" opacity="0.5"/>
    <polygon points="17.525,0 5,0 5,7.5 7,7.5 7,2 17,2 17,7.025 22,7 22,22 13.9,22 13.9,24 24,24 24,6.5" fill="#7B7B7B" stroke-linejoin="miter"/>
    <polygon points="1.7311,19.0512 6.8369,15.8709 13.4269,17.7325 13.0463,19.0797 7.0519,17.3864 2.4713,20.2396" fill="#6486C4" stroke-linejoin="miter"/>
    <rect x="6.2139" y="9.8498" width="1.4" height="6.7289" fill="#6486C4" transform="matrix(1 -0.0089 0.0089 1 -0.11725 0.06201)"/>
    <polygon points="8.1962,22.882 8.4038,14.7944 0.7194,12.6962 1.0881,11.3457 9.8315,13.7329 9.5958,22.918" fill="#6486C4" stroke-linejoin="miter"/>
    <rect x="8.9201" y="11.9469" width="5.5749" height="1.4" fill="#6486C4" transform="matrix(0.8451 -0.5345 0.5345 0.8451 -4.94731 8.21677)"/>
    <path d="M1.2306,20.2853L0.0705,11.3071l6.7362,-2.4364l8.2871,1.5263l-0.9484,8.4224L9.3083,23.934L1.2306,20.2853zM2.0406,12.5086l0.8463,6.5497l5.9942,2.7077l3.5429,-3.7459l0.6933,-6.1567l-6.157,-1.134L2.0406,12.5086z" fill="#6486C4"/>
  </g>
</svg>
