<?xml version="1.0" encoding="UTF-8"?>
<!DOCTYPE svg PUBLIC "-//W3C//DTD SVG 1.1//EN" "http://www.w3.org/Graphics/SVG/1.1/DTD/svg11.dtd">
<svg version="1.1" id="Layer_1" xmlns="http://www.w3.org/2000/svg" xmlns:xlink="http://www.w3.org/1999/xlink" x="0px" y="0px" width="32px" height="32px" viewBox="0 0 32 32" enable-background="new 0 0 32 32" xml:space="preserve">
  <g id="icon">
    <path d="M14.307,30.49c-0.843,0,-1.52,0.06,-2.174,-0.114c-0.887,-0.237,-0.536,-1.18,-0.812,-1.891c-0.41,-1.055,-2.266,-0.441,-3.076,-0.358c-0.989,0.102,-2.347,0.266,-3.046,-0.621c-0.736,-0.935,-0.102,-1.893,0.084,-2.863c0.136,-0.709,-0.502,-0.752,-0.81,-1.221c-0.324,-0.494,0.952,-0.677,0.952,-0.889c0,-0.211,-1.208,-0.493,-0.995,-1.607c0.194,-1.016,-1.459,-0.779,-1.859,-1.482c-0.441,-0.773,1.298,-2.72,1.696,-3.339c0.332,-0.517,0.901,-1.116,1.065,-1.712c0.08,-0.291,-0.269,-0.501,-0.349,-0.775c-0.117,-0.4,-0.026,-0.82,0.057,-1.216c0.583,-2.76,1.511,-5.309,3.492,-7.417c2.07,-2.203,4.905,-3.131,7.88,-3.411c5.358,-0.504,11.285,1.539,13.294,6.821c0.933,2.453,1.086,5.237,0.229,7.73c-0.417,1.214,-1.059,2.343,-1.849,3.36c-0.906,1.165,-2.398,2.032,-2.398,3.539c0,0.79,-0.123,0.559,0.137,1.666C27.17,30.411,15.035,30.49,14.307,30.49z" fill="#FFFFFF" stroke="#383838" stroke-width="1" stroke-miterlimit="1"/>
    <path d="M26.847,14.444c-1.21,3.383,-4.526,4.785,-9.035,3.226S9.309,12.183,10.519,8.8s6.58,-4.929,11.089,-3.371S28.057,11.062,26.847,14.444z" fill="#F7DA8E" stroke="#E57428" stroke-width="1" stroke-linecap="round" stroke-miterlimit="1"/>
    <path d="M14.914,11.503h8.45M21.252,15.1l-4.225,-7.194M21.463,7.906L17.238,15.1" fill="#FFFFFF" stroke="#ED8730" stroke-width="1" stroke-miterlimit="1"/>
  </g>
</svg>
