<?xml version="1.0" encoding="UTF-8"?>
<!DOCTYPE svg PUBLIC "-//W3C//DTD SVG 1.1//EN" "http://www.w3.org/Graphics/SVG/1.1/DTD/svg11.dtd">
<svg version="1.1" id="Layer_1" xmlns="http://www.w3.org/2000/svg" xmlns:xlink="http://www.w3.org/1999/xlink" x="0px" y="0px" width="32px" height="32px" viewBox="0 0 32 32" enable-background="new 0 0 32 32" xml:space="preserve">
  <g id="icon">
    <path d="M13.649,8.824c0,1.054,-0.135,1.967,-0.404,2.739c-0.269,0.773,-0.631,1.411,-1.086,1.914c-0.455,0.503,-0.987,0.878,-1.597,1.124c-0.61,0.246,-1.256,0.369,-1.938,0.369c-0.694,0,-1.346,-0.123,-1.956,-0.369c-0.61,-0.246,-1.142,-0.62,-1.597,-1.124c-0.455,-0.503,-0.814,-1.141,-1.077,-1.914C3.732,10.791,3.6,9.878,3.6,8.824c0,-1.065,0.132,-1.984,0.395,-2.757c0.263,-0.773,0.622,-1.414,1.077,-1.923c0.454,-0.509,0.987,-0.887,1.597,-1.133c0.61,-0.246,1.262,-0.369,1.956,-0.369c0.682,0,1.328,0.123,1.938,0.369c0.61,0.246,1.142,0.623,1.597,1.133c0.454,0.509,0.816,1.15,1.086,1.923C13.514,6.84,13.649,7.759,13.649,8.824zM28.4,23.227c0,1.056,-0.138,1.972,-0.414,2.746c-0.276,0.775,-0.648,1.414,-1.115,1.919c-0.467,0.505,-1.013,0.88,-1.64,1.127c-0.626,0.246,-1.29,0.37,-1.99,0.37c-0.712,0,-1.382,-0.123,-2.008,-0.37c-0.626,-0.246,-1.173,-0.622,-1.64,-1.127c-0.467,-0.504,-0.835,-1.144,-1.105,-1.919c-0.27,-0.775,-0.405,-1.69,-0.405,-2.746c0,-1.068,0.135,-1.989,0.405,-2.764c0.27,-0.775,0.638,-1.417,1.105,-1.928c0.467,-0.511,1.013,-0.889,1.64,-1.135c0.626,-0.246,1.296,-0.37,2.008,-0.37c0.7,0,1.363,0.123,1.99,0.37c0.626,0.246,1.173,0.625,1.64,1.135c0.467,0.511,0.838,1.153,1.115,1.928C28.262,21.237,28.4,22.159,28.4,23.227zM25.918,2.2L5.975,29.8" fill="none" stroke="#228BCB" stroke-width="1.2" stroke-miterlimit="1"/>
  </g>
</svg>
