<?xml version="1.0" encoding="UTF-8"?>
<!DOCTYPE svg PUBLIC "-//W3C//DTD SVG 1.1//EN" "http://www.w3.org/Graphics/SVG/1.1/DTD/svg11.dtd">
<svg version="1.1" id="Layer_1" xmlns="http://www.w3.org/2000/svg" xmlns:xlink="http://www.w3.org/1999/xlink" x="0px" y="0px" width="32px" height="32px" viewBox="0 0 32 32" enable-background="new 0 0 32 32" xml:space="preserve">
  <g id="icon">
    <path d="M28.763,1.5h-9.757L1.9,18.375L13.665,30.14l16.832,-17.149V3.234C30.497,2.276,29.721,1.5,28.763,1.5zM25.669,7.941c-0.889,0,-1.61,-0.721,-1.61,-1.61c0,-0.889,0.721,-1.61,1.61,-1.61c0.889,0,1.61,0.721,1.61,1.61C27.28,7.22,26.559,7.941,25.669,7.941z" fill="#FFFFFF" stroke="#383838" stroke-width="1" stroke-miterlimit="1"/>
    <path d="M15.3,22.389l-5.62,-5.62l0.124,-0.124c0.195,0.074,0.396,0.132,0.603,0.174c0.208,0.042,0.42,0.05,0.636,0.026c0.216,-0.025,0.435,-0.089,0.654,-0.194c0.22,-0.104,0.439,-0.266,0.657,-0.485l2.024,-2.024l0.113,-0.113l1.82,-1.82c0.347,-0.347,0.715,-0.619,1.105,-0.817c0.39,-0.198,0.785,-0.309,1.187,-0.334c0.401,-0.025,0.801,0.043,1.2,0.205c0.399,0.161,0.783,0.426,1.151,0.795c0.284,0.284,0.5,0.567,0.647,0.85c0.147,0.283,0.243,0.559,0.287,0.83c0.044,0.27,0.044,0.536,-0.001,0.796c-0.045,0.26,-0.114,0.513,-0.207,0.76M13.206,12.915l4.274,4.274" fill="none" stroke="#228BCB" stroke-width="1.2" stroke-miterlimit="1"/>
  </g>
</svg>
