<?xml version="1.0" encoding="UTF-8"?>
<!DOCTYPE svg PUBLIC "-//W3C//DTD SVG 1.1//EN" "http://www.w3.org/Graphics/SVG/1.1/DTD/svg11.dtd">
<svg version="1.1" id="Layer_1" xmlns="http://www.w3.org/2000/svg" xmlns:xlink="http://www.w3.org/1999/xlink" x="0px" y="0px" width="16px" height="16px" viewBox="0 0 16 16" enable-background="new 0 0 16 16" xml:space="preserve">
  <g id="icon">
    <path d="M8,16c-4.411,0,-8,-3.589,-8,-8S3.589,0,8,0s8,3.589,8,8S12.411,16,8,16zM8,1c-3.86,0,-7,3.14,-7,7s3.14,7,7,7s7,-3.14,7,-7S11.86,1,8,1z" fill="#383838"/>
    <path d="M9.241,6.165l1.757,-1.757l-0.637,-0.637l2.26,-0.391l-0.391,2.26l-0.637,-0.637L9.835,6.759L9.241,6.165zM3.326,12.674l2.26,-0.391l-0.637,-0.637l1.757,-1.757l-0.594,-0.594l-1.757,1.757l-0.637,-0.637L3.326,12.674z" fill="#238BCB"/>
    <circle cx="8" cy="8" r="1.3" fill="#EF3E3B"/>
  </g>
</svg>
