<?xml version="1.0" encoding="UTF-8"?>
<!DOCTYPE svg PUBLIC "-//W3C//DTD SVG 1.1//EN" "http://www.w3.org/Graphics/SVG/1.1/DTD/svg11.dtd">
<svg version="1.1" id="Layer_1" xmlns="http://www.w3.org/2000/svg" xmlns:xlink="http://www.w3.org/1999/xlink" x="0px" y="0px" width="16px" height="16px" viewBox="0 0 16 16" enable-background="new 0 0 16 16" xml:space="preserve">
  <g id="icon">
    <path d="M14.7,10.2c0.022,0,0.044,-0.001,0.066,-0.002c-0.851,1.688,-2.65,3.003,-4.879,3.539C9.895,13.659,9.9,13.58,9.9,13.5c0,-0.267,-0.048,-0.523,-0.135,-0.76c1.789,-0.453,3.241,-1.463,3.988,-2.755C14.039,10.123,14.361,10.2,14.7,10.2zM13.752,6.015c0.287,-0.138,0.609,-0.215,0.948,-0.215c0.022,0,0.044,0.001,0.066,0.002c-0.851,-1.688,-2.649,-3.003,-4.879,-3.539C9.895,2.34,9.9,2.42,9.9,2.5c0,0.267,-0.048,0.523,-0.136,0.761C11.554,3.713,13.006,4.723,13.752,6.015zM5.5,13.5c0,-0.259,0.045,-0.507,0.127,-0.737C2.947,12.118,1,10.227,1,8s1.947,-4.118,4.627,-4.763C5.545,3.007,5.5,2.759,5.5,2.5c0,-0.088,0.006,-0.175,0.016,-0.261C2.333,2.966,0,5.273,0,8s2.333,5.034,5.516,5.761C5.506,13.675,5.5,13.588,5.5,13.5z" fill="#383838"/>
    <path d="M9,13.5c0,0.718,-0.582,1.3,-1.3,1.3s-1.3,-0.582,-1.3,-1.3s0.582,-1.3,1.3,-1.3S9,12.782,9,13.5zM7.7,1.2c-0.718,0,-1.3,0.582,-1.3,1.3s0.582,1.3,1.3,1.3s1.3,-0.582,1.3,-1.3S8.418,1.2,7.7,1.2zM14.7,6.7c-0.718,0,-1.3,0.582,-1.3,1.3s0.582,1.3,1.3,1.3s1.3,-0.582,1.3,-1.3S15.418,6.7,14.7,6.7z" fill="#EF3E3B"/>
  </g>
</svg>
