<?xml version="1.0" encoding="UTF-8"?>
<!DOCTYPE svg PUBLIC "-//W3C//DTD SVG 1.1//EN" "http://www.w3.org/Graphics/SVG/1.1/DTD/svg11.dtd">
<svg version="1.1" id="Layer_1" xmlns="http://www.w3.org/2000/svg" xmlns:xlink="http://www.w3.org/1999/xlink" x="0px" y="0px" width="16px" height="16px" viewBox="0 0 16 16" enable-background="new 0 0 16 16" xml:space="preserve">
  <g id="icon">
    <polygon points="15.5,15.5 4.5,15.5 4.5,0.5 11.533,0.5 15.5,4.557" fill="#FFFFFF" stroke-linejoin="miter"/>
    <path d="M11.744,0H4v9.5h1V1h6v4h4v10h-2.5v1h3.5V4.353L11.744,0zM12,4V1.693L14.256,4H12z" fill="#383838"/>
    <path d="M1.5,11.022V16M6.693,11.944c-0.087,-0.076,-0.176,-0.142,-0.268,-0.198c-0.091,-0.056,-0.189,-0.103,-0.292,-0.139c-0.104,-0.036,-0.215,-0.063,-0.335,-0.08c-0.12,-0.018,-0.252,-0.026,-0.396,-0.026c-0.294,0,-0.559,0.046,-0.794,0.139c-0.236,0.093,-0.437,0.225,-0.603,0.397c-0.166,0.172,-0.294,0.381,-0.383,0.626c-0.089,0.245,-0.133,0.52,-0.133,0.826c0,0.307,0.045,0.583,0.134,0.828c0.09,0.245,0.218,0.454,0.385,0.626c0.167,0.172,0.371,0.304,0.611,0.395c0.24,0.092,0.512,0.137,0.815,0.137c0.14,0,0.273,-0.01,0.398,-0.031c0.125,-0.02,0.243,-0.049,0.355,-0.086c0.112,-0.037,0.219,-0.082,0.32,-0.135c0.102,-0.053,0.201,-0.111,0.297,-0.176v-1.403H5.61M8.376,14.934c0.07,0.081,0.195,0.206,0.27,0.269c0.075,0.063,0.158,0.116,0.248,0.161c0.09,0.044,0.189,0.078,0.297,0.101C9.3,15.488,9.423,15.5,9.56,15.5c0.197,0,0.373,-0.03,0.528,-0.09c0.155,-0.06,0.285,-0.142,0.391,-0.246c0.106,-0.104,0.187,-0.226,0.244,-0.366c0.056,-0.14,0.084,-0.291,0.084,-0.452c0,-0.16,-0.03,-0.292,-0.091,-0.399c-0.061,-0.106,-0.141,-0.195,-0.239,-0.268c-0.099,-0.072,-0.212,-0.132,-0.339,-0.179c-0.128,-0.047,-0.257,-0.092,-0.389,-0.134c-0.131,-0.042,-0.261,-0.086,-0.389,-0.132c-0.128,-0.046,-0.241,-0.104,-0.339,-0.173c-0.099,-0.069,-0.178,-0.155,-0.239,-0.256c-0.061,-0.101,-0.091,-0.228,-0.091,-0.38c0,-0.118,0.023,-0.232,0.068,-0.341c0.045,-0.109,0.112,-0.205,0.199,-0.287c0.087,-0.083,0.195,-0.149,0.323,-0.199c0.129,-0.05,0.276,-0.075,0.442,-0.075c0.108,0,0.204,0.009,0.287,0.027c0.083,0.018,0.157,0.04,0.22,0.068c0.064,0.027,0.118,0.057,0.164,0.089c0.045,0.032,0.084,0.062,0.115,0.089c0.031,0.027,0.135,0.129,0.155,0.147" fill="#FFFFFF" stroke="#228BCB" stroke-width="1" stroke-miterlimit="1"/>
  </g>
</svg>
