<?xml version="1.0" encoding="UTF-8"?>
<!DOCTYPE svg PUBLIC "-//W3C//DTD SVG 1.1//EN" "http://www.w3.org/Graphics/SVG/1.1/DTD/svg11.dtd">
<svg version="1.1" id="Layer_1" xmlns="http://www.w3.org/2000/svg" xmlns:xlink="http://www.w3.org/1999/xlink" x="0px" y="0px" width="16px" height="16px" viewBox="0 0 16 16" enable-background="new 0 0 16 16" xml:space="preserve">
  <g id="icon">
    <polygon points="15.5,15.5 4.5,15.5 4.5,0.5 11.533,0.5 15.5,4.557" fill="#FFFFFF" stroke-linejoin="miter"/>
    <path d="M11.744,0H4v9.5h1V1h6v4h4v10h-1.5v1h2.5V4.353L11.744,0zM12,4V1.693L14.256,4H12z" fill="#383838"/>
    <path d="M3.63,14.948c-0.08,0.08,-0.165,0.153,-0.257,0.219c-0.092,0.066,-0.192,0.122,-0.3,0.17c-0.109,0.047,-0.228,0.085,-0.359,0.111c-0.131,0.027,-0.275,0.04,-0.432,0.04c-0.256,0,-0.491,-0.046,-0.707,-0.138s-0.402,-0.224,-0.56,-0.397c-0.158,-0.173,-0.281,-0.382,-0.368,-0.628c-0.088,-0.246,-0.132,-0.523,-0.132,-0.831c0,-0.297,0.044,-0.568,0.132,-0.813c0.088,-0.245,0.212,-0.455,0.373,-0.631c0.16,-0.175,0.353,-0.311,0.576,-0.407c0.224,-0.096,0.471,-0.143,0.741,-0.143c0.125,0,0.243,0.01,0.353,0.029c0.111,0.019,0.215,0.049,0.314,0.088c0.099,0.039,0.193,0.087,0.284,0.143c0.091,0.057,0.179,0.122,0.266,0.196M8.1,13.522c0,0.307,-0.039,0.583,-0.116,0.827c-0.077,0.244,-0.185,0.452,-0.324,0.623c-0.139,0.171,-0.305,0.303,-0.498,0.394c-0.193,0.092,-0.407,0.137,-0.641,0.137c-0.232,0,-0.445,-0.046,-0.637,-0.137c-0.192,-0.092,-0.358,-0.223,-0.497,-0.394c-0.139,-0.171,-0.247,-0.379,-0.324,-0.623c-0.077,-0.244,-0.116,-0.52,-0.116,-0.827c0,-0.305,0.039,-0.581,0.116,-0.826c0.077,-0.245,0.185,-0.454,0.324,-0.626c0.139,-0.172,0.305,-0.304,0.497,-0.397c0.192,-0.093,0.405,-0.139,0.637,-0.139c0.234,0,0.447,0.046,0.641,0.137c0.193,0.092,0.359,0.223,0.498,0.396c0.139,0.172,0.247,0.381,0.324,0.626C8.061,12.938,8.1,13.214,8.1,13.522zM12,15.5H9.5v-4.5" fill="none" stroke="#228BCB" stroke-width="1" stroke-miterlimit="1"/>
  </g>
</svg>
