<?xml version="1.0" encoding="UTF-8"?>
<!DOCTYPE svg PUBLIC "-//W3C//DTD SVG 1.1//EN" "http://www.w3.org/Graphics/SVG/1.1/DTD/svg11.dtd">
<svg version="1.1" id="Layer_1" xmlns="http://www.w3.org/2000/svg" xmlns:xlink="http://www.w3.org/1999/xlink" x="0px" y="0px" width="16px" height="16px" viewBox="0 0 16 16" enable-background="new 0 0 16 16" xml:space="preserve">
  <g id="icon">
    <rect x="0.5" y="1.5" width="15" height="13" fill="#FFFFFF"/>
    <path d="M16,1v1h-1V1H16zM15,4h1V3h-1V4zM13,5.534l-2.433,2.433l0.566,0.566L13.666,6H15v8H9v-3h2v-1H7v1h1v3H1v-3h3v-1H1V5h4V4H1V2h8v2H8v0.434L5.567,6.867l0.566,0.566L8.566,5H9v1h1V1H9H0v14h16V6V5h-3V5.534zM14,1h-1v1h1V1zM12,1h-1v1h1V1z" fill="#383838"/>
  </g>
</svg>
