<?xml version="1.0" encoding="UTF-8"?>
<!DOCTYPE svg PUBLIC "-//W3C//DTD SVG 1.1//EN" "http://www.w3.org/Graphics/SVG/1.1/DTD/svg11.dtd">
<svg version="1.1" id="Layer_1" xmlns="http://www.w3.org/2000/svg" xmlns:xlink="http://www.w3.org/1999/xlink" x="0px" y="0px" width="16px" height="16px" viewBox="0 0 16 16" enable-background="new 0 0 16 16" xml:space="preserve">
  <g id="icon">
    <rect x="0.5" y="11.5" width="15" height="4" fill="#F7DA8E" stroke="#E57428" stroke-width="1" stroke-miterlimit="1"/>
    <path d="M3,12H2v2h1V12zM5,12H4v1h1V12zM7,12H6v1h1V12zM9,12H8v2h1V12zM11,12h-1v1h1V12zM13,12h-1v1h1V12z" fill="#383838"/>
    <path d="M14,10H2.5c-0.276,0,-0.5,-0.224,-0.5,-0.5V0h1v9h11V10z" fill="#383838"/>
    <path d="M9.715,5.8h1.01C10.573,3.821,8.977,2.217,7,2.054v1.054l-2.558,-1.54L7,0.034v1.021c2.532,0.167,4.568,2.212,4.723,4.745h1.063l-1.539,2.586L9.715,5.8z" fill="#238BCB"/>
  </g>
</svg>
