<?xml version="1.0" encoding="UTF-8"?>
<!DOCTYPE svg PUBLIC "-//W3C//DTD SVG 1.1//EN" "http://www.w3.org/Graphics/SVG/1.1/DTD/svg11.dtd">
<svg version="1.1" id="Layer_1" xmlns="http://www.w3.org/2000/svg" xmlns:xlink="http://www.w3.org/1999/xlink" x="0px" y="0px" width="16px" height="16px" viewBox="0 0 16 16" enable-background="new 0 0 16 16" xml:space="preserve">
  <g id="icon">
    <path d="M8.546,0.5L0.5,5.613l2.152,7.844L13.355,15.5L15.5,4.277L8.546,0.5zM12.126,13.623L3.885,12.05l-1.564,-5.7l6.285,-3.994l5.139,2.791L12.126,13.623z" fill="#92CBEE"/>
    <path d="M13.356,16c-0.031,0,-0.063,-0.003,-0.094,-0.009L2.558,13.949c-0.187,-0.036,-0.338,-0.175,-0.388,-0.359L0.018,5.746c-0.058,-0.212,0.029,-0.437,0.214,-0.554L8.278,0.078c0.153,-0.098,0.347,-0.104,0.507,-0.017l6.954,3.777c0.191,0.104,0.293,0.319,0.252,0.533l-2.145,11.223C13.801,15.833,13.591,16,13.356,16zM3.052,13.025l9.906,1.89L14.94,4.542L8.566,1.08L1.08,5.837L3.052,13.025z" fill="#0964B0"/>
    <polygon points="4.925,10.925 3.829,6.932 8.658,3.864 12.29,5.837 11.093,12.102" fill="#FFFFFF" stroke="#383838" stroke-width="1" stroke-miterlimit="1" stroke-linejoin="miter"/>
  </g>
</svg>
