<?xml version="1.0" encoding="UTF-8"?>
<!DOCTYPE svg PUBLIC "-//W3C//DTD SVG 1.1//EN" "http://www.w3.org/Graphics/SVG/1.1/DTD/svg11.dtd">
<svg version="1.1" id="Layer_1" xmlns="http://www.w3.org/2000/svg" xmlns:xlink="http://www.w3.org/1999/xlink" x="0px" y="0px" width="32px" height="32px" viewBox="0 0 32 32" enable-background="new 0 0 32 32" xml:space="preserve">
  <g id="icon">
    <path d="M27.5,5.5c0,0,-20.833,0,-22.167,0S3.5,4,3.5,4v24c0,1.381,1.119,2.5,2.5,2.5h21.5V5.5z" fill="#FFFEFF"/>
    <path d="M28,5.5H5.5c-1.105,0,-2,-0.895,-2,-2v0c0,-1.105,0.895,-2,2,-2h22.5c-1.1,0,-2.5,0.895,-2.5,2v0C25.5,4.605,26.9,5.5,28,5.5z" fill="#FFFFFF" stroke="#383838" stroke-width="1" stroke-linecap="square" stroke-miterlimit="1"/>
    <path d="M27.5,5.5v25H6c-1.381,0,-2.5,-1.119,-2.5,-2.5V3.5" fill="none" stroke="#383838" stroke-width="1" stroke-linecap="square" stroke-miterlimit="1"/>
    <path d="M7,24.5h16.5" fill="#FFFFFF" stroke="#787979" stroke-width="1" stroke-miterlimit="1"/>
    <path d="M7.106,21.626l4.22,-10.882c0.026,-0.06,0.09,-0.224,0.09,-0.224h0.073c0,0,0.06,0.164,0.086,0.224L15.8,21.626M8.547,17.502h5.448M22.504,20.161c-0.433,0.335,-1.02,0.563,-1.775,0.563c-1.283,0,-2.112,-0.785,-2.112,-2.001c0,-1.633,1.325,-2.461,3.939,-2.461c0.114,0,0.228,0.001,0.341,0.004l0.591,0.024v1.973c0,0.159,-0.048,0.409,-0.124,0.674l-0.006,0.02c-0.106,0.325,-0.293,0.658,-0.567,0.947L22.504,20.161zM23.833,21.585c-0.138,-0.312,-0.346,-1.558,-0.346,-2.492V15.77c-0.031,-2.183,-0.955,-3.27,-2.742,-3.27c-0.996,0,-1.619,0.363,-2.345,0.882" fill="#FFFFFF" stroke="#228BCB" stroke-width="1" stroke-miterlimit="1"/>
  </g>
</svg>
