<?xml version="1.0" encoding="UTF-8"?>
<!DOCTYPE svg PUBLIC "-//W3C//DTD SVG 1.1//EN" "http://www.w3.org/Graphics/SVG/1.1/DTD/svg11.dtd">
<svg version="1.1" id="Layer_1" xmlns="http://www.w3.org/2000/svg" xmlns:xlink="http://www.w3.org/1999/xlink" x="0px" y="0px" width="32px" height="32px" viewBox="0 0 32 32" enable-background="new 0 0 32 32" xml:space="preserve">
  <g id="icon">
    <rect x="1" y="4" width="30" height="24" fill="#64C080"/>
    <rect x="1" y="4" width="30" height="24" fill="#010101" opacity="0.1"/>
    <path d="M13.438,8.98c-0.024,-0.001,-0.06,0.014,-0.11,0.046c-0.113,0.082,-0.336,0.336,-0.343,0.629c-0.007,0.165,-0.035,0.164,0.064,0.269c0.071,0.112,0.143,0.101,0.287,0.019c0.083,-0.067,0.111,-0.109,0.139,-0.221c0.034,-0.187,-0.18,0.089,-0.208,-0.12c-0.048,-0.194,0.089,-0.273,0.219,-0.461C13.489,9.054,13.491,8.982,13.438,8.98L13.438,8.98zM15.536,8.993c-0.04,0.006,-0.089,0.062,-0.158,0.198c-0.049,0.142,-0.26,0.356,-0.108,0.799c0.125,0.281,0.176,0.737,0.119,1.245c-0.086,0.144,-0.106,0.194,-0.219,0.339c-0.159,0.187,-0.332,0.139,-0.464,0.069c-0.124,-0.091,-0.221,-0.138,-0.277,-0.427c0.01,-0.461,0.035,-1.215,-0.042,-1.375c-0.114,-0.248,-0.301,-0.159,-0.381,-0.084c-0.385,0.384,-0.575,1.033,-0.691,1.55c-0.107,0.376,-0.22,0.268,-0.3,0.116c-0.194,-0.199,-0.208,-1.755,-0.443,-1.499c-0.376,1.174,0.216,2.459,0.626,2.334c0.296,0.134,0.483,-0.481,0.604,-1.154c0.083,-0.189,0.146,-0.211,0.189,-0.114c-0.011,0.895,0.059,1.095,0.269,1.367c0.47,0.396,0.859,0.05,0.889,0.017s0.366,-0.4,0.366,-0.4c0.081,-0.094,0.189,-0.099,0.304,-0.017c0.112,0.111,0.097,0.302,0.337,0.435c0.201,0.088,0.632,0.021,0.731,-0.168c0.134,-0.251,0.167,-0.338,0.229,-0.433c0.096,-0.139,0.26,-0.078,0.26,-0.034c-0.015,0.078,-0.112,0.154,-0.046,0.294c0.114,0.093,0.14,0.033,0.208,0.013c0.238,-0.125,0.418,-0.69,0.418,-0.69c0.011,-0.211,-0.099,-0.195,-0.169,-0.151c-0.092,0.061,-0.097,0.082,-0.189,0.143c-0.117,0.019,-0.342,0.103,-0.454,-0.086c-0.114,-0.227,-0.115,-0.544,-0.202,-0.774c0,-0.017,-0.153,-0.361,-0.012,-0.383c0.071,0.014,0.224,0.058,0.248,-0.082c0.075,-0.136,-0.161,-0.522,-0.321,-0.717c-0.139,-0.167,-0.332,-0.187,-0.518,-0.017c-0.13,0.131,-0.111,0.278,-0.137,0.416c-0.033,0.159,-0.027,0.357,0.121,0.568c0.13,0.28,0.367,0.64,0.289,1.148c0,0,-0.137,0.242,-0.379,0.21c-0.101,-0.024,-0.265,-0.072,-0.352,-0.776c-0.066,-0.533,0.017,-1.28,-0.191,-1.63C15.643,9.111,15.603,8.983,15.536,8.993L15.536,8.993zM14.872,9.05c-0.063,0.006,-0.132,0.086,-0.189,0.24c-0.049,0.117,-0.108,0.73,-0.098,0.73c-0.039,0.182,0.174,0.26,0.271,0.025c0.145,-0.43,0.146,-0.613,0.156,-0.795C14.99,9.111,14.935,9.044,14.872,9.05L14.872,9.05zM17.325,9.098c-0.064,0.006,-0.116,0.048,-0.135,0.151c-0.026,0.244,-0.013,0.377,0.025,0.58c0.029,0.136,0.209,0.363,0.298,0.494c0.425,0.624,0.833,1.25,1.228,1.899c0.062,0.481,0.107,0.952,0.137,1.422c0.064,1.028,0.083,2.309,0.025,3.392c0.176,0.008,0.459,-0.311,0.558,-0.778c0.065,-0.646,-0.023,-1.964,-0.029,-2.345c-0.004,-0.158,-0.013,-0.347,-0.023,-0.545c0.459,0.82,0.904,1.688,1.342,2.641c0.159,-0.083,0.124,-1.063,0.031,-1.201c-0.35,-0.823,-0.833,-1.635,-0.987,-1.947c-0.056,-0.113,-0.245,-0.428,-0.47,-0.791c-0.041,-0.518,-0.086,-0.957,-0.115,-1.089c-0.072,-0.548,0.206,0.062,0.167,-0.257c-0.09,-0.547,-0.367,-0.919,-0.693,-1.419c-0.105,-0.163,-0.103,-0.196,-0.266,0.04c-0.097,0.241,-0.096,0.441,-0.067,0.629c-0.043,-0.068,-0.096,-0.148,-0.171,-0.248c-0.282,-0.264,-0.299,-0.279,-0.533,-0.494C17.572,9.175,17.432,9.087,17.325,9.098L17.325,9.098zM24.593,9.18c-0.031,-0.005,-0.065,0.012,-0.104,0.074c-0.074,0.07,-0.153,0.198,-0.15,0.362c0.018,0.289,0.065,0.584,0.083,0.873c0.006,0.039,0.013,0.077,0.019,0.116c-0.028,-0.04,-0.053,-0.07,-0.067,-0.086c-0.515,-0.591,0.237,-0.097,-0.098,-0.553c-0.283,-0.34,-0.366,-0.448,-0.608,-0.652c-0.122,-0.086,-0.195,-0.25,-0.235,0.029c-0.016,0.245,-0.032,0.529,-0.017,0.736c-0.001,0.115,0.108,0.331,0.202,0.458c0.344,0.461,0.694,0.952,1.047,1.464c0.074,1.044,0.094,2.001,0.169,3.047c-0.011,0.447,-0.137,1.041,-0.256,1.098c0,0,-0.182,0.114,-0.304,-0.013c-0.089,-0.039,-0.443,-0.646,-0.443,-0.646c-0.181,-0.182,-0.302,-0.13,-0.431,0c-0.356,0.375,-0.517,1.078,-0.758,1.562c-0.062,0.108,-0.238,0.2,-0.433,-0.008c-0.496,-0.74,-0.206,-1.793,-0.268,-1.523c-0.442,0.544,-0.246,1.444,-0.146,1.638c0.146,0.318,0.263,0.522,0.547,0.679c0.258,0.207,0.459,0.078,0.57,-0.067c0.26,-0.294,0.263,-1.046,0.385,-1.194c0.085,-0.273,0.3,-0.226,0.404,-0.105c0.101,0.159,0.221,0.263,0.37,0.349c0.242,0.233,0.531,0.276,0.816,0.063c0.195,-0.119,0.321,-0.274,0.435,-0.58c0.122,-0.357,0.062,-2.23,0.035,-3.272c0.183,0.281,0.363,0.569,0.543,0.86c0.079,0.915,0.114,1.815,0.089,2.679c-0.019,0.172,0.549,-0.513,0.545,-0.837c-0.003,-0.284,0,-0.541,0,-0.78c0.275,0.48,0.541,0.968,0.793,1.462c0.156,-0.09,0.103,-1.055,0.004,-1.188c-0.264,-0.483,-0.601,-1.005,-0.862,-1.409c-0.052,-0.51,-0.122,-1.111,-0.154,-1.295c-0.05,-0.287,-0.1,-0.719,-0.175,-1.06c-0.021,-0.133,-0.083,-0.558,-0.064,-0.599c0.031,-0.095,0.147,0.003,0.204,-0.107c0.086,-0.102,-0.297,-1.184,-0.491,-1.493c-0.07,-0.138,-0.196,-0.091,-0.352,0.135c-0.145,0.148,-0.092,0.486,-0.037,0.808c0.144,0.819,0.272,1.654,0.373,2.486c-0.188,-0.305,-0.417,-0.674,-0.643,-1.03c-0.006,-0.034,-0.029,-0.16,-0.029,-0.162c0,-0.015,-0.031,-0.67,-0.058,-0.826c-0.005,-0.063,-0.018,-0.082,0.042,-0.074c0.065,0.059,0.073,0.062,0.114,0.082c0.065,0.013,0.122,-0.107,0.083,-0.219c-0.201,-0.406,-0.403,-0.814,-0.604,-1.22C24.652,9.213,24.624,9.185,24.593,9.18L24.593,9.18zM5.835,9.201c-0.112,-0.003,-0.235,0.072,-0.187,0.219c-0.028,0.08,0.219,0.35,0.262,0.498c0.039,0.106,-0.038,0.446,0.042,0.477c0.074,0.035,0.177,-0.236,0.216,-0.486c0.022,-0.137,0.005,-0.606,-0.287,-0.702C5.866,9.204,5.851,9.201,5.835,9.201L5.835,9.201zM27.204,9.204c-0.025,0.003,-0.056,0.048,-0.104,0.158c-0.114,0.204,-0.154,0.57,-0.108,0.894c0.275,2.032,0.479,4,0.522,5.802c-0.024,0.171,-0.031,0.262,-0.104,0.477c-0.162,0.227,-0.341,0.512,-0.51,0.65c-0.169,0.137,-0.528,0.268,-0.645,0.37c-0.372,0.235,-0.374,0.505,-0.073,0.515c0.519,-0.066,1.133,-0.112,1.555,-0.81c0.113,-0.195,0.246,-0.725,0.252,-1.049c0.04,-1.901,-0.022,-3.759,-0.283,-5.133c-0.017,-0.134,-0.071,-0.441,-0.05,-0.482c0.034,-0.094,0.203,0.009,0.264,-0.099c0.089,-0.099,-0.439,-0.837,-0.624,-1.152C27.259,9.265,27.236,9.2,27.204,9.204L27.204,9.204zM21.764,9.235c-0.021,0.004,-0.053,0.04,-0.112,0.124c-0.145,0.518,-0.196,0.94,-0.141,1.262c0.372,2.122,0.754,4.055,0.693,6.075c0.177,0.001,0.381,-0.441,0.468,-0.879c0.048,-0.603,-0.032,-0.97,-0.046,-1.325s-0.367,-3.231,-0.439,-3.499c-0.086,-0.507,0.343,-0.067,0.296,-0.362c-0.149,-0.372,-0.519,-0.913,-0.635,-1.237C21.805,9.308,21.8,9.228,21.764,9.235L21.764,9.235zM8.518,9.275c-0.046,0.009,-0.09,0.05,-0.106,0.118c-0.01,0.044,0.018,0.119,-0.019,0.141c-0.021,0.023,-0.102,0.008,-0.098,-0.116c0,-0.039,-0.026,-0.08,-0.042,-0.105c-0.016,-0.011,-0.027,-0.015,-0.056,-0.015c-0.035,0.002,-0.035,0.012,-0.054,0.044c-0.009,0.033,-0.02,0.065,-0.02,0.103c-0.004,0.044,-0.02,0.059,-0.05,0.065c-0.033,0,-0.025,0.004,-0.052,-0.015c-0.016,-0.019,-0.035,-0.026,-0.035,-0.059c0,-0.034,-0.008,-0.087,-0.017,-0.109c-0.014,-0.02,-0.036,-0.031,-0.062,-0.038c-0.138,0.001,-0.148,0.174,-0.141,0.24c-0.01,0.012,-0.016,0.32,0.173,0.406c0.253,0.132,0.729,0.076,0.708,-0.37c0,-0.039,-0.008,-0.172,-0.012,-0.208C8.611,9.291,8.564,9.266,8.518,9.275L8.518,9.275zM11.918,9.279c-0.088,0.005,-0.165,0.032,-0.231,0.069c-0.168,0.176,-0.207,0.457,-0.075,0.633c0.129,0.066,0.257,0.208,0.171,0.286c-0.364,0.425,-1.311,1.134,-1.359,1.264l-0.002,0.004v0.004v0.002l0.002,0.004l0.002,0.002h0.002l0.002,0.002h0.002l0.002,0.002c0.048,0.035,0.641,0.034,0.706,0.002l0.002,-0.002h0.002v-0.002c0.204,-0.082,1.17,-1.289,1.17,-1.289c-0.05,-0.047,-0.096,-0.081,-0.146,-0.128c-0.054,-0.051,-0.048,-0.101,0,-0.151c0.239,-0.152,0.164,-0.487,0.039,-0.639C12.103,9.292,12.005,9.274,11.918,9.279L11.918,9.279zM20.803,9.284c-0.025,0.003,-0.056,0.046,-0.104,0.156c-0.114,0.204,-0.192,0.56,-0.183,0.894c0.247,1.872,0.323,3.51,0.485,5.381c0.013,0.181,-0.011,0.444,-0.121,0.549c-0.407,0.465,-0.995,1.038,-1.634,1.302c-0.069,0.084,0.171,0.444,0.481,0.444c0.519,-0.066,0.975,-0.384,1.398,-1.222c0.113,-0.195,0.312,-0.614,0.318,-0.938c0.04,-1.901,-0.088,-3.379,-0.348,-4.753c-0.017,-0.134,-0.005,-0.292,0.015,-0.332c0.034,-0.044,0.147,0.001,0.208,-0.107c0.089,-0.099,-0.237,-0.919,-0.422,-1.234C20.859,9.343,20.836,9.28,20.803,9.284L20.803,9.284zM7.038,9.341c-0.072,0.009,-0.139,0.073,-0.171,0.158c-0.012,0.3,-0.014,0.6,0.017,0.877c0.125,0.485,0.165,0.912,0.225,1.409c0.017,0.666,-0.352,0.288,-0.335,-0.042c0.085,-0.429,0.062,-1.103,-0.013,-1.274c-0.06,-0.171,-0.129,-0.213,-0.275,-0.185c-0.116,-0.008,-0.415,0.348,-0.499,0.938c0,0,-0.07,0.303,-0.1,0.572c-0.041,0.304,-0.226,0.52,-0.354,-0.042c-0.111,-0.409,-0.18,-1.415,-0.366,-1.18c-0.053,0.786,-0.117,2.169,0.495,2.311c0.739,0.078,0.331,-1.366,0.599,-1.628c0.051,-0.129,0.144,-0.132,0.152,0.032v1.226c-0.007,0.399,0.233,0.517,0.42,0.599c0.194,-0.016,0.322,-0.011,0.398,0.196c0.03,0.707,0.062,1.415,0.092,2.122c0,0,0.448,0.141,0.47,-1.192c0.021,-0.783,-0.143,-1.44,-0.046,-1.592c0.003,-0.15,0.179,-0.157,0.3,-0.084c0.193,0.149,0.279,0.332,0.579,0.259c0.457,-0.138,0.732,-0.38,0.739,-0.763c-0.027,-0.364,-0.065,-0.729,-0.21,-1.093c0.02,-0.066,-0.087,-0.239,-0.067,-0.305c0.082,0.141,0.206,0.129,0.235,0c-0.078,-0.28,-0.199,-0.548,-0.395,-0.665c-0.162,-0.156,-0.398,-0.123,-0.485,0.202c-0.04,0.374,0.124,0.817,0.373,1.18c0.053,0.142,0.127,0.377,0.094,0.589c-0.133,0.083,-0.264,0.048,-0.375,-0.08c0,0,-0.364,-0.298,-0.364,-0.364c0.097,-0.675,0.021,-0.753,-0.033,-0.94c-0.037,-0.259,-0.15,-0.341,-0.241,-0.517c-0.091,-0.105,-0.214,-0.105,-0.273,0c-0.161,0.305,-0.085,0.958,0.031,1.251c0.084,0.269,0.213,0.437,0.152,0.437c-0.05,0.152,-0.154,0.117,-0.229,-0.059c-0.107,-0.363,-0.129,-0.904,-0.129,-1.148c-0.032,-0.302,-0.068,-0.948,-0.25,-1.112C7.151,9.359,7.094,9.334,7.038,9.341L7.038,9.341zM9.635,9.345c-0.037,0.005,-0.077,0.028,-0.125,0.04c-0.157,0.055,-0.304,0.203,-0.258,0.492c0.186,1.234,0.307,2.175,0.493,3.409c0.029,0.144,-0.082,0.335,-0.225,0.315c-0.243,-0.18,-0.303,-0.543,-0.718,-0.528c-0.3,0.004,-0.643,0.361,-0.685,0.704c-0.05,0.273,-0.068,0.569,0,0.808c0.211,0.277,0.464,0.248,0.685,0.185c0.182,-0.082,0.332,-0.278,0.397,-0.231H9.2v0.002c0.04,0.076,-0.004,0.718,-0.859,1.213c-0.525,0.258,-0.943,0.319,-1.168,-0.149c-0.139,-0.293,0.01,-1.408,-0.333,-1.15c-1.015,2.858,2.378,3.257,2.757,0.118c0.025,-0.089,0.099,-0.177,0.152,-0.156c0.023,0.011,0.044,0.045,0.052,0.109c-0.079,2.842,-2.624,3.037,-3.057,2.143c-0.107,-0.211,-0.139,-0.68,-0.15,-0.961c-0.02,-0.17,-0.059,-0.268,-0.104,-0.307c-0.103,-0.085,-0.242,0.136,-0.271,0.519c-0.043,0.308,-0.031,0.393,-0.031,0.69c0.136,2.245,3.412,1.28,3.944,-0.574c0.264,-0.959,-0.005,-1.682,0.083,-1.771l0.004,-0.002l0.004,-0.002l0.004,-0.002l0.012,-0.002c0.325,0.383,0.782,0.049,0.882,-0.084c0.043,-0.066,0.15,-0.109,0.225,-0.023c0.254,0.199,0.698,0.105,0.791,-0.246c0.054,-0.344,0.099,-0.697,0.11,-1.064c-0.165,0.056,-0.299,0.098,-0.352,0.16c-0.013,0.015,-0.022,0.032,-0.025,0.05c-0.014,0.102,-0.028,0.203,-0.042,0.305c-0.002,0.008,-0.004,0.016,-0.008,0.023c-0.007,0.012,-0.019,0.024,-0.031,0.032c-0.058,0.035,-0.16,0.015,-0.166,-0.078c-0.079,-0.39,-0.402,-0.441,-0.599,0.164c-0.132,0.117,-0.373,0.14,-0.398,-0.036c0.032,-0.406,-0.118,-0.461,-0.418,-0.269c-0.096,-0.804,-0.192,-1.572,-0.289,-2.376c0.125,-0.004,0.24,0.095,0.354,-0.061c-0.124,-0.42,-0.386,-1.276,-0.533,-1.356l-0.004,-0.002c-0.007,-0.009,-0.015,-0.017,-0.021,-0.023l-0.01,-0.008l-0.01,-0.006c-0.006,-0.004,-0.013,-0.006,-0.019,-0.008C9.662,9.345,9.649,9.343,9.635,9.345L9.635,9.345zM19.758,9.351c-0.13,-0.004,-0.273,0.085,-0.218,0.263c-0.033,0.097,0.279,0.426,0.329,0.606c0.09,0.276,-0.069,0.54,0.025,0.578c0.087,0.043,0.207,-0.285,0.252,-0.589c0.052,-0.245,-0.108,-0.748,-0.335,-0.852C19.794,9.353,19.776,9.352,19.758,9.351L19.758,9.351zM11.871,9.654c0.059,-0.007,0.131,0.053,0.166,0.137c0.037,0.09,0.019,0.175,-0.042,0.191s-0.14,-0.043,-0.177,-0.132c-0.037,-0.09,-0.019,-0.177,0.042,-0.193L11.871,9.654zM26.501,10.068c-0.118,-0.005,-0.247,0.094,-0.196,0.286c-0.03,0.105,0.253,0.461,0.298,0.656c0.041,0.139,-0.063,0.585,0.023,0.627c0.079,0.046,0.19,-0.309,0.231,-0.637c0.023,-0.18,-0.099,-0.811,-0.306,-0.923C26.535,10.072,26.518,10.069,26.501,10.068L26.501,10.068zM18.413,10.287c0.011,0.053,0.022,0.106,0.029,0.16c0.024,0.117,0.045,0.232,0.067,0.347c-0.093,-0.141,-0.171,-0.254,-0.204,-0.294C18.093,10.225,18.309,10.319,18.413,10.287L18.413,10.287zM20.276,11.288c-0.046,0.009,-0.09,0.052,-0.106,0.12c-0.01,0.044,0.02,0.116,-0.017,0.139c-0.021,0.023,-0.103,0.01,-0.1,-0.114c0,-0.039,-0.026,-0.082,-0.042,-0.107c-0.016,-0.011,-0.027,-0.015,-0.056,-0.015c-0.035,0.002,-0.035,0.012,-0.054,0.044c-0.008,0.033,-0.019,0.066,-0.019,0.103c-0.004,0.044,-0.019,0.059,-0.048,0.065c-0.033,0,-0.027,0.004,-0.054,-0.015c-0.016,-0.019,-0.035,-0.026,-0.035,-0.059c0,-0.034,-0.008,-0.087,-0.017,-0.109c-0.014,-0.02,-0.036,-0.029,-0.062,-0.036c-0.138,0.001,-0.147,0.172,-0.139,0.238c-0.01,0.012,-0.017,0.322,0.171,0.408c0.253,0.132,0.73,0.074,0.71,-0.372c0,-0.039,-0.01,-0.172,-0.013,-0.208C20.369,11.304,20.322,11.279,20.276,11.288L20.276,11.288zM11.768,11.381c-0.031,-0.003,-0.072,0.009,-0.119,0.04c-0.224,0.132,-0.311,0.525,-0.171,0.755c0.13,0.202,0.336,0.128,0.364,0.128c0.22,0.03,0.35,-0.45,0.35,-0.45s0.007,-0.135,-0.254,0.12c-0.11,0.022,-0.125,-0.021,-0.152,-0.088c-0.023,-0.125,-0.018,-0.251,0.035,-0.376C11.844,11.434,11.82,11.386,11.768,11.381L11.768,11.381zM23.795,11.442c-0.124,-0.007,-0.257,0.081,-0.291,0.267c0,0.11,0.045,0.17,0.037,0.269c-0.013,0.057,-0.067,0.094,-0.194,0.027c0.02,-0.02,-0.083,-0.179,-0.083,-0.179c-0.1,-0.066,-0.233,0.004,-0.32,0.065c-0.048,0.095,-0.083,0.257,-0.029,0.423c0.143,0.289,0.634,0.782,0.868,0.787c0.004,-0.26,0.028,-0.607,0.04,-0.822c0.006,-0.081,0.023,-0.171,0.094,-0.191c0.071,-0.02,0.195,0.078,0.196,-0.006c-0.013,-0.166,-0.043,-0.41,-0.129,-0.526C23.942,11.484,23.87,11.446,23.795,11.442L23.795,11.442zM13.839,12.348l-0.01,0.006l-0.006,0.004c-0.025,0.02,-0.054,0.067,-0.119,0.118c-0.11,0.137,-0.13,0.232,-0.123,0.507c0.006,0.029,0.209,0.645,0.381,1.079c0.116,0.45,0.223,0.966,0.144,1.453c-0.271,0.644,-0.817,1.221,-1.344,1.535c-0.268,0.094,-0.5,0.062,-0.562,-0.002l-0.002,-0.002c-0.154,-0.113,-0.158,-0.315,-0.148,-0.349v-0.002l0.002,-0.002c0.444,-0.338,0.952,-0.612,1.349,-1.525c0.117,-0.349,0.153,-0.558,0.037,-1.098c-0.045,-0.201,-0.102,-0.366,-0.227,-0.509l0.002,-0.002c0.076,-0.04,0.272,0.118,0.302,0.019c-0.046,-0.258,-0.206,-0.603,-0.387,-0.78c-0.158,-0.157,-0.331,-0.175,-0.475,-0.032c-0.163,0.099,-0.198,0.456,-0.119,0.768c0.087,0.235,0.323,0.276,0.491,0.749v0.002c0.003,0.03,0.058,0.353,-0.027,0.484c-0.069,0.234,-0.95,0.993,-1.013,1.039l-0.006,0.004l-0.002,0.002l-0.002,0.002l-0.002,0.002h-0.002h-0.002l-0.002,-0.002v-0.002l-0.002,-0.004c-0.003,-0.019,0.002,-0.067,0,-0.145c-0.006,-0.142,0.048,-0.464,0.044,-0.519v-0.002l-0.002,-0.002v-0.002h-0.002c-0.291,0.206,-0.388,0.835,-0.441,1.022c-0.738,0.557,-1.575,0.971,-2.058,1.535c-0.251,0.429,1.731,-0.492,1.962,-0.604l0.006,0.006c0.044,0.053,0.048,0.236,0.179,0.402c0.206,0.305,0.644,0.493,1.07,0.376c0.715,-0.282,1.127,-0.814,1.546,-1.405c0.06,-0.095,0.154,-0.17,0.241,-0.097c0.288,0.705,1.119,1.206,2.193,1.258c0.248,-0.33,0.13,-0.492,0.029,-0.561c-0.031,-0.023,-0.534,-0.237,-0.612,-0.45c-0.049,-0.198,0.07,-0.374,0.31,-0.507c0.689,-0.091,1.367,-0.192,2.023,-0.423c0.007,-0.241,0.136,-0.601,0.223,-0.757c0.06,-0.108,0.099,-0.119,0.114,-0.135l0.002,-0.002l0.002,-0.002l0.002,-0.002v-0.004c0,-0.005,0,-0.013,-0.002,-0.021l-0.112,-0.071l-2.2,-0.011c-0.027,-0.011,-0.047,-0.023,-0.06,-0.034l-0.004,-0.004l-0.002,-0.002l-0.002,-0.002l-0.002,-0.004l-0.002,-0.002v-0.002l-0.002,-0.002v-0.002v-0.002v-0.002v-0.002v-0.002v-0.002v-0.002v-0.002l0.002,-0.002l0.002,-0.004c0.011,-0.016,0.037,-0.031,0.069,-0.044c0.525,-0.078,1.459,-0.245,1.521,-1.226c-0.01,-0.511,-0.2,-0.845,-0.774,-0.938c-0.422,0.036,-0.722,0.481,-0.674,0.972c-0.02,0.132,0.041,0.391,-0.083,0.421c-0.809,0.081,-1.691,0.634,-1.721,1.03h-0.002l-0.002,0.002l-0.004,0.002h-0.004l-0.006,0.002h-0.002h-0.004h-0.002h-0.004l-0.008,-0.002c-0.053,-0.016,-0.12,-0.111,-0.11,-0.244c-0.031,-0.685,-0.235,-1.46,-0.554,-2.057c-0.114,-0.125,-0.164,-0.175,-0.196,-0.181h-0.004h-0.006h-0.002h-0.002L13.839,12.348L13.839,12.348zM15.945,12.71c-0.046,0.009,-0.09,0.05,-0.106,0.118c-0.01,0.044,0.02,0.119,-0.017,0.141c-0.021,0.023,-0.103,0.01,-0.1,-0.114c0,-0.039,-0.026,-0.082,-0.042,-0.107c-0.016,-0.011,-0.025,-0.015,-0.054,-0.015c-0.035,0.002,-0.036,0.012,-0.056,0.044c-0.008,0.033,-0.019,0.066,-0.019,0.103c-0.004,0.044,-0.019,0.059,-0.048,0.065c-0.033,0,-0.025,0.004,-0.052,-0.015c-0.016,-0.019,-0.037,-0.026,-0.037,-0.059c0,-0.034,-0.006,-0.087,-0.015,-0.109c-0.014,-0.02,-0.038,-0.029,-0.064,-0.036c-0.138,0.001,-0.147,0.172,-0.139,0.238c-0.01,0.012,-0.017,0.322,0.171,0.408c0.253,0.132,0.857,0.054,0.71,-0.372c0,-0.039,-0.01,-0.172,-0.013,-0.208C16.039,12.726,15.991,12.701,15.945,12.71L15.945,12.71zM24.444,13.09c-0.006,-0.001,-0.014,-0.001,-0.021,0.002c0,0,-1.174,0.912,-1.203,0.944c-0.116,0.113,-0.058,0.511,0,0.465c0.084,0.035,1.266,-0.84,1.244,-0.942C24.515,13.562,24.54,13.109,24.444,13.09L24.444,13.09zM17.055,13.225c0.048,-0.006,0.111,0.012,0.171,0.05c0.088,0.055,0.142,0.139,0.135,0.2v0.006l-0.004,0.006l-0.002,0.006l-0.002,0.004l-0.002,0.004l-0.012,0.015c-0.042,0.043,-0.139,0.037,-0.231,-0.021c-0.087,-0.055,-0.14,-0.139,-0.135,-0.2l0.002,-0.006c0.001,-0.008,0.004,-0.014,0.008,-0.021l0.004,-0.008l0.002,-0.002l0.01,-0.011C17.013,13.237,17.033,13.228,17.055,13.225L17.055,13.225zM6.773,13.457c-0.608,0.012,-1.499,0.871,-1.523,1.348c0.642,-0.337,1.272,-0.661,1.925,-1.009C7.07,13.624,7.169,13.469,6.773,13.457L6.773,13.457zM8.745,13.755c0.06,0.001,0.123,0.033,0.156,0.124c0.03,0.084,0.001,0.171,-0.035,0.215v0.002L8.864,14.1c-0.026,0.036,-0.115,0.021,-0.179,0.021c-0.077,-0.004,-0.115,-0.018,-0.162,-0.086c-0.022,-0.076,0.045,-0.151,0.075,-0.208l0.002,-0.002l0.013,-0.017c0.023,-0.023,0.063,-0.045,0.106,-0.05C8.728,13.756,8.736,13.755,8.745,13.755L8.745,13.755zM24.216,14.02c-0.108,0.015,-0.211,0.126,-0.164,0.305c-0.03,0.105,0.147,0.472,0.192,0.667c0.041,0.139,-0.053,0.531,0.033,0.572c0.079,0.046,0.286,-0.233,0.279,-0.583c0.023,-0.18,-0.059,-0.842,-0.266,-0.955C24.267,14.019,24.241,14.016,24.216,14.02L24.216,14.02zM11.076,14.668c-0.096,0.007,-0.181,0.063,-0.142,0.21c-0.006,0.107,0.27,0.237,0.287,0.484c0.039,0.102,-0.059,0.428,0.023,0.458c0.075,0.034,0.18,-0.226,0.219,-0.467c0.022,-0.132,-0.095,-0.595,-0.293,-0.677C11.14,14.669,11.108,14.665,11.076,14.668L11.076,14.668zM15.009,15.254c0.007,-0.001,0.014,0,0.021,0h0.004c0.245,0.073,0.606,0.08,0.92,0.116c0.255,0.018,0.382,0.236,0.142,0.328c-0.236,0.088,-0.463,0.157,-0.464,0.53c0.031,0.185,0.024,0.281,-0.002,0.326l-0.008,0.011l-0.002,0.002l-0.002,0.002l-0.002,0.002l-0.002,0.002l-0.004,0.002l-0.012,0.006l-0.012,0.002c-0.056,0.009,-0.138,-0.049,-0.198,-0.084c-0.146,-0.114,-0.554,-0.391,-0.612,-0.984C14.769,15.381,14.861,15.266,15.009,15.254L15.009,15.254zM5.403,15.711c-0.015,0.001,-0.046,0.051,-0.087,0.107c-0.362,0.63,-0.394,1.57,-0.194,1.851c0.106,0.133,0.281,0.191,0.41,0.149c0.227,-0.108,0.327,-0.611,0.273,-0.795c-0.076,-0.13,-0.136,-0.15,-0.212,-0.04c-0.16,0.355,-0.227,0.112,-0.241,-0.086c-0.025,-0.376,0.009,-0.722,0.046,-0.997C5.419,15.759,5.418,15.71,5.403,15.711L5.403,15.711zM17.733,16.538c-0.027,-0.002,-0.056,0.003,-0.085,0.019c-0.006,0,-0.259,0.187,-0.341,0.318c-0.05,0.041,-0.044,0.077,-0.029,0.149c0.039,0.097,0.107,0.067,0.185,0.021c0.103,-0.015,0.153,0.058,0.144,0.193c-0.048,0.168,0.021,0.231,0.021,0.242s0.099,0.104,0.216,0.029c0.246,-0.102,0.399,-0.202,0.743,-0.284c0.09,-0.002,0.085,-0.266,-0.058,-0.275c-0.186,0.01,-0.358,0.021,-0.545,0.181c-0.115,0.029,-0.134,-0.047,-0.16,-0.116c-0.029,-0.17,0.066,-0.289,0.046,-0.416C17.876,16.604,17.813,16.542,17.733,16.538L17.733,16.538zM25.627,16.859c-0.046,0.002,-0.094,0.008,-0.164,0.015c-0.075,0.017,-0.102,0.054,-0.115,0.153c0.005,0.152,0.09,0.144,0.177,0.204c0.05,0.07,0.083,0.133,-0.004,0.248c-0.082,0.082,-0.141,0.128,-0.223,0.21c-0.039,0.072,-0.063,0.184,0.056,0.219c0.22,0.067,0.728,-0.293,0.728,-0.301c0.082,-0.067,0.055,-0.196,0.048,-0.196c-0.048,-0.06,-0.156,-0.024,-0.229,-0.034c-0.035,0,-0.148,-0.018,-0.094,-0.128c0.045,-0.068,0.062,-0.109,0.092,-0.193c0.034,-0.082,0.004,-0.138,-0.119,-0.183C25.716,16.862,25.673,16.858,25.627,16.859L25.627,16.859zM22.129,21.454l-0.002,0.002c-0.365,0.102,-0.354,0.516,-0.119,0.698c-3.856,0,-9.773,-0.071,-11.041,-0.071c-0.71,0,-2.956,-0.093,-2.999,-0.093c0.482,0.77,1.179,0.926,2.092,0.942c1.713,0,9.648,-0.023,11.906,-0.023c-0.161,0.311,0.015,0.812,0.141,0.904l0.01,0.006l0.015,0.006h0.006c0.15,0.039,0.215,-0.08,0.266,-0.166c0.243,0.023,1.608,0.045,1.732,-0.002l0.002,-0.002c0.085,0.136,0.168,0.264,0.329,0.242c0.281,-0.066,0.503,-0.099,0.51,-0.723c0,0,-0.029,-1.063,-0.668,-0.997c-0.151,0.025,-0.576,0.072,-0.576,0.072c-0.491,-0.064,-0.851,-0.07,-1.403,-0.093c0.051,-0.071,0.141,-0.357,0.031,-0.461c-0.029,-0.026,-0.072,-0.041,-0.131,-0.036h-0.002h-0.004l-0.002,-0.002l-0.006,-0.002l-0.01,-0.011l-0.004,-0.004c-0.028,-0.044,-0.043,-0.153,-0.062,-0.181l-0.002,-0.002l-0.002,-0.002l-0.004,-0.002h-0.002L22.129,21.454L22.129,21.454zM22.391,22.974h0.002c0.563,0.03,1.091,0.006,1.654,0.036c0.089,0.083,0.045,0.272,-0.013,0.307l-0.01,0.004h-0.008h-0.008c-0.183,-0.005,-0.289,-0.01,-0.472,-0.015c0,-0.01,-0.001,-0.021,-0.004,-0.029c-0.043,-0.14,-0.357,-0.131,-0.431,-0.021l-0.004,0.006l-0.004,0.008l-0.004,0.011l-0.002,0.015l-0.002,0.017c-0.247,0.032,-0.469,-0.009,-0.716,-0.019C22.297,23.195,22.306,23.017,22.391,22.974L22.391,22.974z" fill="#FFFFFF"/>
    <rect x="1.5" y="4.5" width="29" height="23" fill="none" stroke="#000000" stroke-width="1" stroke-miterlimit="1" opacity="0.35"/>
  </g>
</svg>
