<?xml version="1.0" encoding="UTF-8"?>
<!DOCTYPE svg PUBLIC "-//W3C//DTD SVG 1.1//EN" "http://www.w3.org/Graphics/SVG/1.1/DTD/svg11.dtd">
<svg version="1.1" id="Layer_1" xmlns="http://www.w3.org/2000/svg" xmlns:xlink="http://www.w3.org/1999/xlink" x="0px" y="0px" width="32px" height="32px" viewBox="0 0 32 32" enable-background="new 0 0 32 32" xml:space="preserve">
  <g id="icon">
    <rect x="1" y="23" width="30" height="5" fill="#F3797F"/>
    <rect x="1" y="9" width="30" height="14" fill="#FFFFFF"/>
    <rect x="1" y="4" width="30" height="5" fill="#F3797F"/>
    <path d="M22.118,18.14v-0.732c0,0,-3.482,-1.308,-1.373,-1.308c0.408,0,0.691,0,0.883,0v-0.471c0,0,-3.58,-0.523,-0.588,-0.732v-0.366c0,0,-5.394,-2.668,-1.373,-1.622v-0.523c0,0,-1.962,-0.418,-0.441,-0.628c0,0,-0.785,-1.098,-2.06,-1.098S16.086,9.3,16.086,9.3l-1.618,1.831c0,0,1.128,-0.105,-0.687,0.889c0,0,1.52,0.157,-1.912,2.302c0,0,1.275,-0.523,1.275,0.366s-2.256,2.092,-2.256,2.092l0.196,0.575c0,0,1.569,-1.308,1.471,-0.418c-0.098,0.889,-2.55,2.249,-2.55,2.249l0.245,0.418c0,0,2.011,-1.255,2.06,-0.732c0,0,0.294,0.366,-1.667,1.046l0.245,0.418c0,0,2.991,-1.569,3.776,-0.418c0.785,1.151,-2.501,2.354,-2.501,2.354l0.049,0.628c0,0,3.187,-2.249,6.914,-0.262v-0.837c0,0,-3.139,-2.197,-0.49,-2.511c2.648,-0.314,4.119,1.151,4.119,1.151v-0.732C22.755,19.709,18.244,17.146,22.118,18.14zM13.567,18.66c-0.218,0.032,-0.419,-0.132,-0.449,-0.364c-0.03,-0.233,0.123,-0.447,0.342,-0.479c0.218,-0.032,0.419,0.132,0.449,0.364C13.938,18.414,13.785,18.628,13.567,18.66zM14.787,18.054c-0.218,0.032,-0.419,-0.132,-0.449,-0.364c-0.03,-0.233,0.123,-0.447,0.342,-0.479c0.218,-0.032,0.419,0.132,0.449,0.364C15.158,17.808,15.005,18.023,14.787,18.054zM15.589,15.22c-0.218,0.032,-0.419,-0.132,-0.449,-0.364c-0.03,-0.233,0.123,-0.447,0.342,-0.479c0.218,-0.032,0.419,0.132,0.449,0.364C15.96,14.974,15.807,15.188,15.589,15.22zM16.348,16.97c-0.218,0.032,-0.419,-0.132,-0.449,-0.364c-0.03,-0.233,0.123,-0.447,0.342,-0.479c0.218,-0.032,0.419,0.132,0.449,0.364C16.719,16.724,16.566,16.939,16.348,16.97zM17.081,14.289c-0.218,0.032,-0.419,-0.132,-0.449,-0.364c-0.03,-0.233,0.123,-0.447,0.342,-0.479c0.218,-0.032,0.419,0.132,0.449,0.364C17.452,14.043,17.299,14.257,17.081,14.289zM18.397,15.148c-0.218,0.032,-0.419,-0.132,-0.449,-0.364c-0.03,-0.233,0.123,-0.447,0.342,-0.479c0.218,-0.032,0.419,0.132,0.449,0.364C18.768,14.902,18.615,15.116,18.397,15.148zM19.124,16.998c-0.218,0.032,-0.419,-0.132,-0.449,-0.364c-0.03,-0.233,0.123,-0.447,0.342,-0.479c0.218,-0.032,0.419,0.132,0.449,0.364C19.495,16.752,19.342,16.967,19.124,16.998z" fill="#64C080"/>
    <rect x="1.5" y="4.5" width="29" height="23" fill="none" stroke="#000000" stroke-width="1" stroke-miterlimit="1" opacity="0.35"/>
  </g>
</svg>
