<?xml version="1.0" encoding="UTF-8"?>
<!DOCTYPE svg PUBLIC "-//W3C//DTD SVG 1.1//EN" "http://www.w3.org/Graphics/SVG/1.1/DTD/svg11.dtd">
<svg version="1.1" id="Layer_1" xmlns="http://www.w3.org/2000/svg" xmlns:xlink="http://www.w3.org/1999/xlink" x="0px" y="0px" width="32px" height="32px" viewBox="0 0 32 32" enable-background="new 0 0 32 32" xml:space="preserve">
  <g id="icon">
    <rect x="9" y="4" width="14" height="24" fill="#FFFFFF"/>
    <path d="M31,28h-8V4h8V28zM9,4H1v24h8V4z" fill="#F3797F"/>
    <path d="M16.365,19.805c0.993,0.115,1.882,0.219,2.874,0.332l-0.253,-0.83c-0.041,-0.145,0.018,-0.305,0.132,-0.394L22,16.565l-0.597,-0.281c-0.263,-0.094,-0.19,-0.242,-0.095,-0.598l0.44,-1.604l-1.674,0.354c-0.164,0.024,-0.273,-0.08,-0.297,-0.179l-0.215,-0.755l-1.324,1.486c-0.188,0.238,-0.569,0.238,-0.451,-0.312l0.566,-3.012l-0.759,0.394c-0.213,0.119,-0.426,0.139,-0.545,-0.074l-1.047,-1.96l-0.001,0.049v-0.049l-1.048,1.96c-0.119,0.213,-0.331,0.193,-0.544,0.074l-0.759,-0.394l0.565,3.012c0.119,0.549,-0.263,0.549,-0.451,0.312l-1.324,-1.486l-0.215,0.755c-0.025,0.099,-0.134,0.203,-0.297,0.179l-1.674,-0.354l0.44,1.604c0.094,0.356,0.167,0.505,-0.096,0.598l-0.597,0.281l2.882,2.348c0.114,0.089,0.171,0.249,0.131,0.394l-0.253,0.83c0.993,-0.114,1.883,-0.217,2.876,-0.332c0.088,0,0.145,0.049,0.145,0.15l-0.177,3.069h0.793l-0.177,-3.069C16.22,19.853,16.277,19.805,16.365,19.805z" fill="#F3797F"/>
    <rect x="1.5" y="4.5" width="29" height="23" fill="none" stroke="#000000" stroke-width="1" stroke-miterlimit="1" opacity="0.35"/>
  </g>
</svg>
