<?xml version="1.0" encoding="UTF-8"?>
<!DOCTYPE svg PUBLIC "-//W3C//DTD SVG 1.1//EN" "http://www.w3.org/Graphics/SVG/1.1/DTD/svg11.dtd">
<svg version="1.1" id="Layer_1" xmlns="http://www.w3.org/2000/svg" xmlns:xlink="http://www.w3.org/1999/xlink" x="0px" y="0px" width="32px" height="32px" viewBox="0 0 32 32" enable-background="new 0 0 32 32" xml:space="preserve">
  <g id="icon">
    <rect x="1" y="20" width="30" height="8" fill="#F3797F"/>
    <rect x="1" y="4" width="30" height="16" fill="#FFFFFF"/>
    <polyline points="21.962,12.905 21.962,12.51 22.394,12.51 22.394,11.61 21.962,11.61 21.962,12.114 21.279,12.114 21.279,11.61 20.775,11.61 20.775,8.587 20.955,8.587 20.955,8.192 21.279,8.192 21.279,7.4 20.703,7.4 20.703,7.796 20.127,7.796 20.127,7.4 19.263,7.4 19.263,7.796 18.688,7.796 18.688,7.4 18.22,7.4 18.22,8.192 18.4,8.192 18.4,8.587 18.58,8.587 18.58,11.61 18.544,11.61 18.544,12.114 17.752,12.114 17.752,11.61 17.5,11.61 17.5,7.796 17.788,7.796 17.788,7.256 18.112,7.256 18.112,6.608 17.572,6.608 17.572,6.968 16.996,6.968 16.996,6.608 16.313,6.608 16.313,6.968 15.737,6.968 15.737,6.608 15.053,6.608 15.053,6.968 14.478,6.968 14.478,6.608 13.938,6.608 13.938,7.256 14.262,7.256 14.262,7.796 14.55,7.796 14.55,11.646 14.298,11.646 14.298,12.15 13.506,12.15 13.506,11.646 13.434,11.646 13.434,8.623 13.614,8.623 13.614,8.228 13.794,8.228 13.794,7.4 13.326,7.4 13.326,7.796 12.75,7.796 12.75,7.4 11.887,7.4 11.887,7.796 11.347,7.796 11.347,7.4 10.771,7.4 10.771,8.192 11.095,8.192 11.095,8.587 11.275,8.587 11.275,11.61 10.771,11.61 10.771,12.114 10.088,12.114 10.088,11.61 9.692,11.61 9.692,12.51 10.088,12.51 10.088,12.905 10.412,12.905 10.412,17.727 9.656,18.231 9.656,18.735 12.822,18.735 12.822,18.987 15.593,18.987 16.457,18.987 19.227,18.987 19.227,18.735 22.394,18.735 22.394,18.231 21.638,17.727 21.638,12.905 21.962,12.905" fill="#F3797F" stroke-linejoin="miter"/>
    <path d="M12.93,10.782v1.331h-1.151v-1.331C11.779,10.027,12.93,10.027,12.93,10.782M13.254,17.727v-1.259c0,-1.367,-1.763,-1.367,-1.763,0v1.259H13.254M17.284,17.979h-2.483v-1.763c0,-1.727,2.483,-1.727,2.483,0V17.979M20.559,17.727h-1.763v-1.259c0,-1.367,1.763,-1.367,1.763,0V17.727M19.12,12.114v-1.331c0,-0.756,1.151,-0.756,1.151,0v1.331H19.12M15.917,8.228h0.252v1.295h-0.252V8.228zM15.197,8.479h0.252v0.972h-0.252V8.479zM15.341,10.495c0,-0.828,1.367,-0.828,1.367,0v1.619h-1.367V10.495M16.601,8.479h0.252v0.972h-0.252V8.479z" fill="#78797A"/>
    <path d="M14.766,18.735h-0.252v0.396h0.252l1.008,0.576v0.36v2.483h-1.475v0.684h0.432v-0.36h0.576v0.36h0.468v0.252h-0.468v0.36h-0.576v-0.36h-0.432v0.684h1.475v0.18v0.25h0.432v-0.252V20.03v-0.36l1.008,-0.576h0.252v-0.396h-0.252l-1.223,-0.72L14.766,18.735M16.889,18.915l-0.9,0.54l-0.9,-0.54l0.9,-0.54L16.889,18.915" fill="#F7CE73"/>
    <rect x="1.5" y="4.5" width="29" height="23" fill="none" stroke="#000000" stroke-width="1" stroke-miterlimit="1" opacity="0.35"/>
  </g>
</svg>
