<?xml version="1.0" encoding="UTF-8"?>
<!DOCTYPE svg PUBLIC "-//W3C//DTD SVG 1.1//EN" "http://www.w3.org/Graphics/SVG/1.1/DTD/svg11.dtd">
<svg version="1.1" id="Layer_1" xmlns="http://www.w3.org/2000/svg" xmlns:xlink="http://www.w3.org/1999/xlink" x="0px" y="0px" width="32px" height="32px" viewBox="0 0 32 32" enable-background="new 0 0 32 32" xml:space="preserve">
  <g id="icon">
    <rect x="1" y="4" width="30" height="7" fill="#77B7C9"/>
    <rect x="1" y="21" width="30" height="7" fill="#77B7C9"/>
    <rect x="1" y="11" width="30" height="1" fill="#F3797F"/>
    <rect x="1" y="20" width="30" height="1" fill="#F3797F"/>
    <rect x="1" y="12" width="30" height="8" fill="#FFFFFF"/>
    <path d="M7.253,9.654c0.3,0,0.551,-0.05,0.801,-0.15c-0.4,0.3,-0.951,0.5,-1.501,0.5c-1.401,0,-2.502,-1.101,-2.502,-2.502C4.05,6.101,5.151,5,6.552,5c0.55,0,1.101,0.2,1.501,0.5c-0.25,-0.1,-0.501,-0.15,-0.801,-0.15C6.051,5.35,5.1,6.301,5.1,7.502S6.052,9.654,7.253,9.654M9.255,9.154h-0.551l0.45,0.3l-0.2,0.55l0.45,-0.35l0.45,0.35l-0.15,-0.55l0.45,-0.3h-0.551l-0.2,-0.551L9.255,9.154zM11.357,9.154h-0.551l0.45,0.3l-0.15,0.55l0.45,-0.35l0.45,0.35l-0.15,-0.55l0.45,-0.3h-0.601l-0.15,-0.551L11.357,9.154zM13.509,9.154h-0.551l0.45,0.3l-0.2,0.55l0.5,-0.35l0.45,0.35l-0.2,-0.55l0.45,-0.3h-0.551l-0.15,-0.551L13.509,9.154zM15.661,9.154h-0.601l0.45,0.3l-0.15,0.55l0.45,-0.35l0.45,0.35l-0.15,-0.55l0.45,-0.3h-0.55l-0.2,-0.551L15.661,9.154zM17.763,9.154h-0.55l0.45,0.3l-0.15,0.55l0.45,-0.35l0.45,0.35l-0.2,-0.55l0.501,-0.3h-0.601l-0.15,-0.551L17.763,9.154zM11.357,7.352h-0.551l0.45,0.3l-0.15,0.55l0.45,-0.35l0.45,0.35l-0.15,-0.55l0.45,-0.3h-0.601l-0.15,-0.551L11.357,7.352zM13.509,7.352h-0.551l0.45,0.3l-0.2,0.55l0.5,-0.35l0.45,0.35l-0.2,-0.55l0.45,-0.3h-0.551l-0.15,-0.551L13.509,7.352zM15.661,7.352h-0.601l0.45,0.3l-0.15,0.55l0.45,-0.35l0.45,0.35l-0.15,-0.55l0.45,-0.3h-0.55l-0.2,-0.551L15.661,7.352zM17.763,7.352h-0.55l0.45,0.3l-0.15,0.55l0.45,-0.35l0.45,0.35l-0.2,-0.55l0.501,-0.3h-0.601l-0.15,-0.551L17.763,7.352zM13.509,5.551h-0.551l0.45,0.3l-0.2,0.55l0.5,-0.35l0.45,0.35l-0.2,-0.55l0.45,-0.3h-0.551l-0.15,-0.551L13.509,5.551zM15.661,5.551h-0.601l0.45,0.3l-0.15,0.55l0.45,-0.35l0.45,0.35l-0.15,-0.55l0.45,-0.3h-0.55l-0.2,-0.551L15.661,5.551zM17.763,5.551h-0.55l0.45,0.3l-0.15,0.55l0.45,-0.35l0.45,0.35l-0.2,-0.55l0.501,-0.3h-0.601l-0.15,-0.551L17.763,5.551z" fill="#FFFFFF"/>
    <rect x="1.5" y="4.5" width="29" height="23" fill="none" stroke="#000000" stroke-width="1" stroke-miterlimit="1" opacity="0.35"/>
  </g>
</svg>
