<?xml version="1.0" encoding="UTF-8"?>
<!DOCTYPE svg PUBLIC "-//W3C//DTD SVG 1.1//EN" "http://www.w3.org/Graphics/SVG/1.1/DTD/svg11.dtd">
<svg version="1.1" id="Layer_1" xmlns="http://www.w3.org/2000/svg" xmlns:xlink="http://www.w3.org/1999/xlink" x="0px" y="0px" width="32px" height="32px" viewBox="0 0 32 32" enable-background="new 0 0 32 32" xml:space="preserve">
  <g id="icon">
    <rect x="1" y="4" width="12" height="24" fill="#64C080"/>
    <rect x="13" y="4" width="18" height="24" fill="#F3797F"/>
    <path d="M20.314,16.801c0.029,-0.26,0.044,-0.524,0.044,-0.792c0,-0.753,-0.117,-1.48,-0.332,-2.164c0.011,-0.021,0.022,-0.044,0.03,-0.071l0.06,-0.302c-0.06,-0.181,-0.181,-0.362,-0.302,-0.362l-0.073,-0.013c-1.073,-2.424,-3.438,-4.161,-6.209,-4.322v-0.013c0,-0.181,-0.121,-0.302,-0.302,-0.302h-0.302c-0.181,0,-0.302,0.121,-0.302,0.302v0.018c-2.086,0.139,-3.937,1.171,-5.173,2.714l-0.021,-0.015c-0.121,-0.121,-0.302,-0.06,-0.423,0.06l-0.181,0.242c-0.121,0.121,-0.06,0.302,0.06,0.423l0.042,0.03c-0.592,0.963,-0.964,2.074,-1.049,3.261l-0.322,0.152c-0.121,0.06,-0.242,0.242,-0.121,0.423l0.121,0.302c0.049,0.098,0.179,0.195,0.323,0.162c0.103,1.424,0.621,2.737,1.434,3.818l-0.127,0.127c-0.121,0.121,-0.121,0.302,0,0.423l0.242,0.242c0.121,0.121,0.302,0.121,0.423,0l0.077,-0.077c1.212,1.241,2.863,2.051,4.694,2.173v0.018c0,0.181,0.121,0.302,0.302,0.302h0.302c0.181,0,0.302,-0.121,0.302,-0.302v-0.013c0.536,-0.031,1.057,-0.123,1.557,-0.265l0.074,0.098c0.121,0.121,0.302,0.121,0.423,0l0.181,-0.181c0.053,-0.053,0.081,-0.117,0.088,-0.182c2.128,-0.878,3.753,-2.742,4.301,-5.016l0.021,0.004c0.181,0,0.302,-0.06,0.362,-0.242l0.06,-0.302C20.6,17.04,20.486,16.867,20.314,16.801zM17.355,20.721l-2.816,-0.189l4.402,-2.025C18.577,19.357,18.032,20.111,17.355,20.721zM15.364,21.938l-0.352,-0.465l1.179,0.08C15.926,21.7,15.65,21.829,15.364,21.938zM10.177,14.502l1.76,1.231l-0.723,0.723l-1.362,-1.799L10.177,14.502zM9.275,13.894l-0.035,-0.046l0.054,0.038L9.275,13.894zM11.787,17.212l0.84,-0.84v1.597l-0.371,-0.136L11.787,17.212zM13.533,19.519v-3.011l5.432,0.975l-5.186,2.362L13.533,19.519zM12.628,15.043l-0.049,0.049l-1.47,-1.032l1.519,-0.721L12.628,15.043zM10.611,17.06l-0.125,0.125l-3.365,-1.232l1.951,-0.926L10.611,17.06zM11.801,18.632l0.827,1.092v0.68l-3.779,-0.253l1.903,-1.903L11.801,18.632zM13.533,15.601v-2.69l5.561,0.998c0.231,0.658,0.358,1.364,0.358,2.101c0,0.213,-0.011,0.423,-0.031,0.63L13.533,15.601zM18.639,12.903l-5.106,-0.901V9.683C15.729,9.828,17.617,11.088,18.639,12.903zM12.628,9.688v2.154v0.47l-2.397,1.132L8.189,12.01C9.257,10.698,10.838,9.823,12.628,9.688zM7.531,12.992l0.962,1.271l-1.651,0.779C6.954,14.31,7.192,13.619,7.531,12.992zM6.821,16.809l2.958,1.083l-1.817,1.817C7.359,18.872,6.956,17.883,6.821,16.809zM9.312,21.088l3.316,0.224v1.019C11.389,22.238,10.25,21.791,9.312,21.088zM13.533,22.336v-0.962l0.361,0.024l0.605,0.799C14.185,22.267,13.863,22.314,13.533,22.336z" fill="#F7CE73"/>
    <path d="M13,20.7c-2.006,0,-3.6,-1.594,-3.6,-3.6v-4.629h7.2V17.1C16.6,19.106,15.006,20.7,13,20.7" fill="#FFFFFF" stroke="#797A7B" stroke-width="0.8" stroke-miterlimit="1"/>
    <path d="M13,20.7c-2.006,0,-3.6,-1.594,-3.6,-3.6v-4.629h7.2V17.1C16.6,19.106,15.006,20.7,13,20.7M11.457,14.528V17.1c0,0.874,0.669,1.543,1.543,1.543s1.543,-0.669,1.543,-1.543v-2.572H11.457" fill="#F3797F"/>
    <path d="M12.537,14.683h0.926v0.874c0,0.154,-0.103,0.257,-0.257,0.257h-0.411c-0.154,0,-0.257,-0.103,-0.257,-0.257v-0.823L12.537,14.683L12.537,14.683zM12.537,16.02v0.874c0,0.154,0.103,0.257,0.257,0.257h0.411c0.154,0,0.257,-0.103,0.257,-0.257v-0.874H12.537M11.508,16.02v0.874c0,0.154,0.103,0.257,0.257,0.257h0.411c0.154,0,0.257,-0.103,0.257,-0.257v-0.874H11.508M13.566,16.02v0.874c0,0.154,0.103,0.257,0.257,0.257h0.411c0.154,0,0.257,-0.103,0.257,-0.257v-0.874H13.566M12.537,17.254v0.874c0,0.154,0.103,0.257,0.257,0.257h0.411c0.154,0,0.257,-0.103,0.257,-0.257v-0.874H12.537" fill="#7BA3D6"/>
    <path d="M12.588,13.5v-0.514h-0.051h-0.051v-0.257h0.103v0.154h0.103v-0.154h0.154v0.154h0.103v-0.154h0.103v0.154h0.103v-0.154h0.154v0.154h0.051v-0.154h0.154v0.257h-0.103V13.5l0.103,0.514h-1.029L12.588,13.5zM9.914,14.014h1.029L10.84,13.5v-0.514h0.103v-0.257h-0.154v0.154h-0.051v-0.154h-0.154v0.154h-0.103v-0.154h-0.103v0.154h-0.103v-0.154h-0.154v0.154h-0.103v-0.154h-0.103v0.257h0.051h0.051V13.5L9.914,14.014zM9.914,17.048h1.029l-0.103,-0.514v-0.514h0.103v-0.257h-0.103v0.154h-0.103v-0.154h-0.103v0.154h-0.154v-0.154h-0.103v0.154h-0.103v-0.154h-0.103v0.154h-0.103v-0.154h-0.154v0.257h0.103h0.051v0.514L9.914,17.048zM15.057,17.1h1.029l-0.103,-0.514v-0.514h0.103v-0.206h-0.154v0.103h-0.051v-0.103h-0.154v0.103h-0.103v-0.103h-0.103v0.103h-0.103v-0.103h-0.154v0.103h-0.103v-0.103h-0.103v0.206h0.051h0.051v0.514L15.057,17.1zM15.057,14.014h1.029l-0.103,-0.514v-0.514h0.103v-0.257h-0.154v0.154h-0.051v-0.154h-0.154v0.154h-0.103v-0.154h-0.103v0.154h-0.103v-0.154h-0.154v0.154h-0.103v-0.154h-0.103v0.257h0.051h0.051V13.5L15.057,14.014zM11.56,19.98l0.72,-0.771l-0.463,-0.257l-0.36,-0.36l0.103,-0.103l-0.154,-0.154l-0.103,0.103l0.103,0.103l-0.051,0.051l-0.103,-0.103l-0.103,0.103l0.103,0.051l-0.103,0.103l-0.051,-0.103l-0.103,0.103l0.103,0.103l-0.103,0.051l-0.051,-0.103L10.84,18.9l0.051,0.103l-0.051,0.051l-0.051,-0.103l-0.103,0.103l0.154,0.154h0.051l0.051,-0.051l0.36,0.36L11.56,19.98zM14.697,19.517l0.36,-0.36l0.051,0.051h0.051l0.154,-0.154l-0.103,-0.103l-0.051,0.103l-0.103,-0.051l0.103,-0.103l-0.103,-0.103l-0.051,0.103l-0.103,-0.051l0.103,-0.103l-0.103,-0.103l-0.051,0.103l-0.103,-0.103l0.103,-0.051l-0.103,-0.103l-0.103,0.103l-0.051,-0.051l0.103,-0.103l-0.103,-0.103l-0.154,0.154l0.051,0.103l-0.36,0.36l-0.411,0.257l0.72,0.771L14.697,19.517z" fill="#F7CE73"/>
    <rect x="1.5" y="4.5" width="29" height="23" fill="none" stroke="#000000" stroke-width="1" stroke-miterlimit="1" opacity="0.35"/>
  </g>
</svg>
