<?xml version="1.0" encoding="UTF-8"?>
<!DOCTYPE svg PUBLIC "-//W3C//DTD SVG 1.1//EN" "http://www.w3.org/Graphics/SVG/1.1/DTD/svg11.dtd">
<svg version="1.1" id="Layer_1" xmlns="http://www.w3.org/2000/svg" xmlns:xlink="http://www.w3.org/1999/xlink" x="0px" y="0px" width="32px" height="32px" viewBox="0 0 32 32" enable-background="new 0 0 32 32" xml:space="preserve">
  <g id="icon">
    <path d="M1,4h30v24H1V4z" fill="#7AA2D6"/>
    <path d="M16,5.442L12.927,8.5H16v3h-3.223L16,14.658V16h-1.677L10,11.842V16H7v-3.958L2.677,16H1l0,0v-1.342L4.323,11.5H1V8.5h3.073L1,5.342V4h1.677L7,8.158V4h3v4.158L14.323,4H16V5.442z" fill="#FFFFFF"/>
    <path d="M6.768,11.5l-4.65,4.5H1l4.65,-4.5H6.768zM11.35,8.5L16,4h-1.118l-4.65,4.5H11.35zM4.882,8.5L1,4.894V4l5,4.5H4.882zM16,16v-0.994L12.368,11.5H11.25L16,16zM9.5,16H7.5v-5H1V9h6.5V4h2v5h6.5v2H9.5V16z" fill="#F3797F"/>
    <rect x="1.5" y="4.5" width="29" height="23" fill="none" stroke="#000000" stroke-width="1" stroke-miterlimit="1" opacity="0.35"/>
    <g>
      <path d="M18,12c0,0,0,2.113,0,4.147c0,5.21,2.903,7.112,5.186,8.353c2.282,-1.24,4.829,-3.143,4.829,-8.353c0,-2.035,0,-4.147,0,-4.147H18z" fill="#FFFFFF"/>
      <path d="M23.186,23.795c-2.215,-1.238,-4.566,-2.925,-4.566,-7.648V12.6h8.849v3.547C27.468,20.87,25.4,22.557,23.186,23.795z" fill="#F7CE72"/>
      <path d="M24.993,21.436c-0.063,-0.55,-0.519,-2.279,-1.053,-2.797c-0.534,-0.519,-0.754,-0.118,-0.754,-0.118s-0.22,-0.401,-0.754,0.118c-0.534,0.519,-0.99,2.247,-1.053,2.797s0.063,0.676,0.346,0.676c0.126,0.267,0.613,0.314,0.613,0.314s0.55,0.361,0.849,0c0.298,0.361,0.849,0,0.849,0s0.487,-0.047,0.613,-0.314C24.93,22.111,25.056,21.986,24.993,21.436z" fill="#63BF80"/>
      <path d="M23.987,18.008c0,0.478,0.127,0.866,-0.786,0.866c-0.912,0,-0.786,-0.388,-0.786,-0.866c0,-0.479,0.352,-0.867,0.786,-0.867C23.635,17.141,23.987,17.529,23.987,18.008z" fill="#F3797F"/>
      <path d="M21.504,17.381c-0.251,0.424,-0.644,0.126,-0.817,-0.377s-0.864,-0.644,-1.116,-0.786c-0.251,-0.141,-0.314,-0.377,0,-0.55c0.314,-0.173,0.126,-0.393,0.346,-0.456c-0.283,-0.063,-0.536,0.094,-0.559,0c-0.023,-0.094,0.197,-0.357,0.559,-0.398c-0.299,-0.372,-0.126,-1.157,0,-1.173c0.126,-0.016,0.383,0.22,0.514,0.456c0.131,0.236,0.508,0.189,0.476,0.519c0.079,0.079,0.346,0.031,0.597,0.44C21.756,15.464,21.504,17.381,21.504,17.381z" fill="#F8A57F"/>
      <path d="M21.616,17.319c-0.357,0.027,-0.489,-0.283,-0.552,-0.738c-0.063,-0.456,-0.707,-0.286,-0.409,-0.968c0.299,-0.682,0.411,-0.269,0.441,-0.797c0.03,-0.529,0.203,-0.969,0.36,-0.969c0.157,0,0.361,0.487,0.44,0.691s0.381,0.157,0.513,0.864c0.132,0.707,-0.026,1.226,-0.198,1.383c-0.173,0.157,-0.251,0.18,-0.283,0.357C21.897,17.319,21.85,17.301,21.616,17.319z" fill="#F8A57F"/>
      <path d="M21.616,14.317c0.108,0.079,0.112,0.189,0,0.377c-0.112,0.189,0.073,0.377,0.082,0.691c0.01,0.314,-0.153,0.424,-0.119,0.581c0.034,0.157,0.286,0.456,0.254,0.817c-0.031,0.361,-0.106,0.471,-0.218,0.534s-0.065,-0.189,-0.041,-0.424c0.024,-0.236,-0.134,-0.503,-0.212,-0.739c-0.079,-0.236,0.106,-0.409,0.155,-0.644c0.049,-0.236,-0.077,-0.451,-0.092,-0.697C21.41,14.569,21.616,14.317,21.616,14.317z" fill="#C8C6C4"/>
      <path d="M25.26,14.914c0.047,-0.346,0.031,-0.88,-0.079,-1.069c-0.11,-0.189,-0.283,-0.299,-0.173,-0.33c0.11,-0.031,0.629,0.519,0.346,1.634C25.071,16.266,25.26,14.914,25.26,14.914zM25.277,14.738c-0.128,-0.171,-0.174,-0.186,-0.268,-0.442c-0.094,-0.256,0.031,-0.451,0,-0.514c-0.031,-0.063,-0.236,0.251,-0.263,0.424c-0.027,0.173,0.248,0.487,0.46,0.611C25.205,14.818,25.404,14.91,25.277,14.738zM25.241,15.056c-0.191,-0.424,-1.396,-1.178,-1.537,-1.116c-0.141,0.063,1.258,0.963,1.385,1.116C25.089,15.056,25.433,15.48,25.241,15.056zM25.206,15.185c-0.227,-0.467,-1.847,-0.617,-1.91,-0.538c-0.063,0.079,1.201,0.167,1.713,0.676C25.009,15.323,25.433,15.653,25.206,15.185zM25.031,15.417c-0.763,-0.472,-1.83,-0.157,-1.737,-0.172c0.092,-0.016,1.102,0.047,1.679,0.347C24.973,15.591,25.794,15.889,25.031,15.417zM25.206,15.823c-0.117,-0.081,-0.527,-0.17,-0.952,-0.214c-0.424,-0.044,-1.037,0.406,-0.88,0.311c0.157,-0.094,1.037,-0.173,1.634,0.094C25.217,16.108,25.323,15.904,25.206,15.823zM25.356,14.815c-0.073,-0.386,-0.074,-0.712,-0.591,-0.673c-0.518,0.039,-0.611,1.008,-0.482,2.36c0.129,1.351,-0.028,1.794,-0.052,1.872c-0.024,0.077,0.289,-0.269,0.266,-0.866c-0.023,-0.597,-0.154,-1.91,-0.112,-2.393c0.042,-0.483,0.277,-0.845,0.588,-0.75c0.311,0.095,0.242,0.338,0.233,0.632C25.197,15.291,25.356,14.815,25.356,14.815zM25.7,17.328c0,0,0.157,-0.088,0.361,-1.157c0.204,-1.069,-0.236,-1.524,-0.629,-1.524c-0.393,0,-0.833,0.456,-0.629,1.524c0.204,1.069,0.361,1.157,0.361,1.157s-0.481,0.458,-0.413,0.68c0.068,0.222,0.681,0.227,0.681,0.227s0.613,-0.005,0.681,-0.227C26.181,17.786,25.7,17.328,25.7,17.328zM25.611,14.914c-0.047,-0.346,-0.031,-0.88,0.079,-1.069c0.11,-0.189,0.283,-0.299,0.173,-0.33c-0.11,-0.031,-0.629,0.519,-0.346,1.634C25.799,16.266,25.611,14.914,25.611,14.914zM25.666,14.818c0.212,-0.124,0.487,-0.438,0.46,-0.611c-0.027,-0.173,-0.232,-0.487,-0.263,-0.424c-0.031,0.063,0.094,0.257,0,0.514c-0.094,0.256,-0.14,0.271,-0.268,0.442C25.466,14.91,25.666,14.818,25.666,14.818zM25.781,15.056c0.127,-0.153,1.526,-1.053,1.385,-1.116c-0.142,-0.063,-1.346,0.691,-1.537,1.116C25.438,15.48,25.781,15.056,25.781,15.056zM25.862,15.323c0.512,-0.508,1.776,-0.597,1.713,-0.676s-1.683,0.071,-1.91,0.538C25.438,15.653,25.862,15.323,25.862,15.323zM25.897,15.591c0.578,-0.3,1.587,-0.363,1.68,-0.347c0.092,0.016,-0.974,-0.3,-1.737,0.172C25.076,15.889,25.897,15.591,25.897,15.591zM25.862,16.014c0.597,-0.267,1.477,-0.189,1.634,-0.094c0.157,0.094,-0.456,-0.356,-0.88,-0.311c-0.424,0.044,-0.835,0.133,-0.952,0.214C25.548,15.904,25.654,16.108,25.862,16.014zM25.665,14.997c-0.009,-0.295,-0.079,-0.537,0.233,-0.632c0.311,-0.095,0.546,0.267,0.588,0.75c0.042,0.483,-0.089,1.796,-0.112,2.393c-0.023,0.597,0.29,0.943,0.266,0.866c-0.024,-0.077,-0.181,-0.52,-0.052,-1.872c0.129,-1.351,0.035,-2.32,-0.482,-2.36c-0.518,-0.039,-0.519,0.286,-0.591,0.673C25.514,14.815,25.673,15.291,25.665,14.997z" fill="#78797B"/>
    </g>
  </g>
</svg>
