<?xml version="1.0" encoding="UTF-8"?>
<!DOCTYPE svg PUBLIC "-//W3C//DTD SVG 1.1//EN" "http://www.w3.org/Graphics/SVG/1.1/DTD/svg11.dtd">
<svg version="1.1" id="Layer_1" xmlns="http://www.w3.org/2000/svg" xmlns:xlink="http://www.w3.org/1999/xlink" x="0px" y="0px" width="32px" height="32px" viewBox="0 0 32 32" enable-background="new 0 0 32 32" xml:space="preserve">
  <g id="icon">
    <rect x="1" y="23" width="30" height="5" fill="#7BA3D6"/>
    <rect x="1" y="9" width="30" height="14" fill="#F3797F"/>
    <rect x="1" y="4" width="30" height="5" fill="#7BA3D6"/>
    <rect x="1" y="8" width="30" height="2" fill="#F7CE73"/>
    <rect x="1" y="22" width="30" height="2" fill="#F7CE73"/>
    <path d="M29.74,15.825c0.156,0,0.26,0.113,0.26,0.225s-0.104,0.225,-0.26,0.225H2.246c-0.156,0,-0.26,-0.113,-0.26,-0.225s0.104,-0.225,0.26,-0.225H29.74M5.787,14.079H25.99l0.937,0.338l1.406,-0.507l-1.406,-0.507l-0.937,0.338h-0.312h-0.156h-0.156H5.787c-0.104,0,-0.156,0.056,-0.156,0.169C5.631,14.022,5.735,14.079,5.787,14.079M4.485,15.036h19.579h0.156h0.156h0.312l0.937,0.338l1.406,-0.507l-1.406,-0.507l-0.937,0.338H4.485c-0.104,0,-0.156,0.056,-0.156,0.169S4.381,15.036,4.485,15.036" fill="#F7CE73"/>
    <path d="M24.064,16.051c-1.666,1.634,-3.853,4.958,-8.227,4.958c-3.853,0,-2.551,-4.958,-2.551,-4.958s-1.302,-4.958,2.551,-4.958C20.211,11.092,22.45,14.417,24.064,16.051" fill="#FFFFFF"/>
    <path d="M15.264,12.839c0.417,0.507,0.052,0.676,0.521,0.732c0.469,0.056,0.208,0.507,0.625,0.563c0.312,0,-0.052,1.183,0.26,1.521c0.26,0.394,0.521,0.113,0.521,0.394s-0.781,0.282,-0.781,1.183c0,0.507,-0.677,0.563,-0.677,0.902c-0.052,0.338,1.25,0.507,1.198,0.789c-0.052,0.282,-1.354,0.225,-1.458,0.563c0,0.225,1.927,0.507,2.083,1.296c-0.26,0.113,-1.093,0.169,-1.718,0.169c-3.853,0,-6.561,-3.268,-8.227,-4.958c1.666,-1.634,4.374,-4.958,8.227,-4.958C15.837,11.092,14.691,12.163,15.264,12.839" fill="#797A7B"/>
    <path d="M10.682,14.304h0.417V15.6h-0.417V14.304zM10.682,17.797h0.417v-1.296h-0.417V17.797zM11.463,15.6h0.417v-1.296h-0.417V15.6zM11.463,17.797h0.417v-1.296h-0.417V17.797zM12.296,15.6h0.417v-1.296h-0.417V15.6zM12.296,17.797h0.417v-1.296h-0.417V17.797zM13.077,15.6h0.417v-1.296h-0.417V15.6zM13.077,17.797h0.417v-1.296h-0.417V17.797zM13.858,15.6h0.417v-1.296h-0.417V15.6zM13.858,17.797h0.417v-1.296h-0.417V17.797zM14.691,15.6h0.417v-1.296h-0.417V15.6zM14.691,17.797h0.417v-1.296h-0.417V17.797z" fill="#FFFFFF"/>
    <path d="M16.722,14.304h0.417V15.6h-0.417V14.304zM16.722,17.797h0.417v-1.296h-0.417V17.797zM17.503,15.6h0.417v-1.296h-0.417V15.6zM17.503,17.797h0.417v-1.296h-0.417V17.797zM18.336,15.6h0.417v-1.296h-0.417V15.6zM18.336,17.797h0.417v-1.296h-0.417V17.797zM19.117,15.6h0.417v-1.296h-0.417V15.6zM19.117,17.797h0.417v-1.296h-0.417V17.797zM19.898,15.6h0.417v-1.296h-0.417V15.6zM19.898,17.797h0.417v-1.296h-0.417V17.797zM20.731,15.6h0.417v-1.296h-0.417V15.6zM20.731,17.797h0.417v-1.296h-0.417V17.797z" fill="#797A7B"/>
    <path d="M5.4,17.4c0,0.718,-0.582,1.3,-1.3,1.3s-1.3,-0.582,-1.3,-1.3s0.582,-1.3,1.3,-1.3S5.4,16.682,5.4,17.4zM13.4,12.1c-0.718,0,-1.3,0.582,-1.3,1.3c0,0.718,0.582,1.3,1.3,1.3c0.718,0,1.3,-0.582,1.3,-1.3S14.118,12.1,13.4,12.1zM27.7,16.1c-0.718,0,-1.3,0.582,-1.3,1.3s0.582,1.3,1.3,1.3s1.3,-0.582,1.3,-1.3S28.418,16.1,27.7,16.1z" fill="#7BA3D6"/>
    <rect x="1.5" y="4.5" width="29" height="23" fill="none" stroke="#000000" stroke-width="1" stroke-miterlimit="1" opacity="0.35"/>
  </g>
</svg>
