<?xml version="1.0" encoding="UTF-8"?>
<!DOCTYPE svg PUBLIC "-//W3C//DTD SVG 1.1//EN" "http://www.w3.org/Graphics/SVG/1.1/DTD/svg11.dtd">
<svg version="1.1" id="Layer_1" xmlns="http://www.w3.org/2000/svg" xmlns:xlink="http://www.w3.org/1999/xlink" x="0px" y="0px" width="32px" height="32px" viewBox="0 0 32 32" enable-background="new 0 0 32 32" xml:space="preserve">
  <g id="icon">
    <rect x="1" y="3" width="30" height="26" fill="#FFFFFF"/>
    <path d="M31,5H14V3h17V5zM31,7H14v2h17V7zM31,11H14v2h17V11zM31,15H14v2h17V15zM31,19H1v2h30V19zM31,23H1v2h30V23zM31,27H1v2h30V27z" fill="#F3797F"/>
    <rect x="1" y="3" width="13" height="14" fill="#7BA3D6"/>
    <polygon points="8.891,10.472 11.3,8.749 8.339,8.749 7.537,5.975 6.619,8.749 3.681,8.749 6.017,10.451 5.135,13.22 7.469,11.476 9.836,13.22" fill="#FFFFFF" stroke-linejoin="miter"/>
    <rect x="1.5" y="3.5" width="29" height="25" fill="none" stroke="#000000" stroke-width="1" stroke-miterlimit="1" opacity="0.35"/>
  </g>
</svg>
