<?xml version="1.0" encoding="UTF-8"?>
<!DOCTYPE svg PUBLIC "-//W3C//DTD SVG 1.1//EN" "http://www.w3.org/Graphics/SVG/1.1/DTD/svg11.dtd">
<svg version="1.1" id="Layer_1" xmlns="http://www.w3.org/2000/svg" xmlns:xlink="http://www.w3.org/1999/xlink" x="0px" y="0px" width="32px" height="32px" viewBox="0 0 32 32" enable-background="new 0 0 32 32" xml:space="preserve">
  <g id="icon">
    <path d="M10.749,15.519c0,0.537,-0.161,0.93,-0.479,1.168c-0.312,0.233,-0.793,0.347,-1.469,0.347c-0.183,0,-0.42,-0.013,-0.723,-0.039l-0.092,-0.008v-2.874l0.097,-0.003c0.351,-0.011,0.567,-0.016,0.701,-0.016l0.033,0c0.706,0,1.192,0.11,1.485,0.337C10.598,14.659,10.749,15.026,10.749,15.519zM8.79,13.209c1.008,0,1.519,-0.39,1.519,-1.16c0,-0.689,-0.468,-1.038,-1.39,-1.038c-0.228,0,-0.51,0.009,-0.838,0.028l-0.095,0.005v2.136l0.093,0.006C8.298,13.202,8.538,13.209,8.79,13.209zM16.912,11.349c-0.317,-0.166,-0.811,-0.25,-1.47,-0.25h0h0c-0.163,0.001,-0.332,0.013,-0.504,0.035l-0.087,0.011v2.438l0.092,0.008c0.27,0.022,0.479,0.034,0.622,0.034c0.631,0,1.083,-0.088,1.383,-0.269c0.313,-0.189,0.471,-0.552,0.471,-1.08C17.418,11.838,17.248,11.527,16.912,11.349zM22.077,15.454h2.243l-1.122,-3.422L22.077,15.454zM30.398,14.215c0,6.967,-6.446,12.615,-14.398,12.615c-0.664,0,-1.317,-0.039,-1.957,-0.116C13.312,27.018,4.6,29.9,4.6,29.9s1.609,-4.6,1.786,-6.294c-2.937,-2.31,-4.784,-5.661,-4.784,-9.391C1.602,7.248,8.048,1.6,16,1.6C23.952,1.6,30.398,7.248,30.398,14.215zM12.058,15.691c0,-1.058,-0.477,-1.738,-1.457,-2.077l-0.218,-0.075l0.203,-0.11c0.656,-0.357,0.975,-0.826,0.975,-1.434c0,-0.639,-0.222,-1.117,-0.678,-1.461c-0.458,-0.345,-1.108,-0.52,-1.931,-0.52c-0.434,0,-1.18,0.024,-2.218,0.073V18h2.402c0.863,0,1.576,-0.212,2.119,-0.63C11.788,16.958,12.058,16.393,12.058,15.691zM19.542,18l-2.384,-3.607l0.119,-0.045c0.414,-0.155,0.763,-0.425,1.037,-0.802c0.272,-0.375,0.41,-0.797,0.41,-1.253c0,-1.543,-0.987,-2.293,-3.016,-2.293c-0.33,0,-0.762,0.014,-1.319,0.042c-0.433,0.022,-0.706,0.034,-0.849,0.039V18h1.308v-3.398l0.106,0.006c0.369,0.021,0.687,0.034,0.918,0.038l0.053,0.001L18.109,18H19.542zM26.658,18L23.45,9.973h-0.502L19.766,18h1.395l0.57,-1.646h2.944l0.598,1.646H26.658z" fill="#899E41"/>
    <path d="M3.712,30.773l0.369,-1.055c0.015,-0.043,1.421,-4.076,1.718,-5.879c-3.021,-2.485,-4.747,-5.976,-4.747,-9.625C1.052,6.956,7.758,1.05,16,1.05s14.948,5.906,14.948,13.165S24.242,27.38,16,27.38c-0.63,0,-1.263,-0.035,-1.886,-0.104c-1.318,0.491,-9,3.033,-9.341,3.146L3.712,30.773zM16,2.15c-7.636,0,-13.848,5.412,-13.848,12.065c0,3.407,1.667,6.673,4.574,8.959l0.239,0.188l-0.032,0.302c-0.13,1.241,-0.966,3.888,-1.457,5.367c3.143,-1.042,7.853,-2.615,8.356,-2.824l0.133,-0.055l0.143,0.017c0.623,0.074,1.26,0.112,1.892,0.112c7.636,0,13.848,-5.412,13.848,-12.065S23.636,2.15,16,2.15z" fill="#5F6B2F"/>
    <path d="M25.274,18l-0.598,-1.646h-2.944l-0.57,1.646h-1.395l3.181,-8.027h0.502L26.658,18H25.274zM22.077,15.454h2.243l-1.122,-3.422L22.077,15.454zM18.109,18l-2.183,-3.352l-0.053,-0.001c-0.232,-0.004,-0.549,-0.018,-0.918,-0.038l-0.106,-0.006V18h-1.308v-7.919c0.143,-0.005,0.416,-0.018,0.849,-0.039c0.557,-0.028,0.989,-0.042,1.319,-0.042c2.029,0,3.016,0.75,3.016,2.293c0,0.456,-0.138,0.878,-0.41,1.253c-0.274,0.378,-0.623,0.647,-1.037,0.802l-0.119,0.045L19.542,18H18.109zM15.441,11.099c-0.163,0.001,-0.332,0.013,-0.504,0.035l-0.087,0.011v2.438l0.092,0.008c0.27,0.022,0.479,0.034,0.622,0.034c0.631,0,1.083,-0.088,1.383,-0.269c0.313,-0.189,0.471,-0.552,0.471,-1.08c0,-0.437,-0.17,-0.749,-0.506,-0.927C16.596,11.183,16.101,11.099,15.441,11.099L15.441,11.099L15.441,11.099zM6.734,18v-7.915c1.038,-0.048,1.784,-0.073,2.218,-0.073c0.824,0,1.474,0.175,1.931,0.52c0.456,0.344,0.678,0.822,0.678,1.461c0,0.608,-0.319,1.077,-0.975,1.434l-0.203,0.11l0.218,0.075c0.981,0.339,1.457,1.018,1.457,2.077c0,0.702,-0.27,1.267,-0.804,1.678c-0.543,0.418,-1.256,0.63,-2.119,0.63H6.734zM8.784,14.093c-0.134,0,-0.351,0.005,-0.701,0.016l-0.097,0.003v2.874l0.092,0.008c0.304,0.026,0.541,0.039,0.723,0.039c0.677,0,1.157,-0.113,1.469,-0.347c0.318,-0.238,0.479,-0.63,0.479,-1.168c0,-0.493,-0.151,-0.86,-0.447,-1.09c-0.293,-0.227,-0.779,-0.337,-1.485,-0.337L8.784,14.093zM8.919,11.011c-0.228,0,-0.51,0.009,-0.838,0.028l-0.095,0.005v2.136l0.093,0.006c0.219,0.015,0.458,0.023,0.711,0.023c1.008,0,1.519,-0.39,1.519,-1.16C10.309,11.36,9.841,11.011,8.919,11.011z" fill="#FFFFFF"/>
  </g>
</svg>
