<?xml version="1.0" encoding="UTF-8"?>
<!DOCTYPE svg PUBLIC "-//W3C//DTD SVG 1.1//EN" "http://www.w3.org/Graphics/SVG/1.1/DTD/svg11.dtd">
<svg version="1.1" id="Layer_1" xmlns="http://www.w3.org/2000/svg" xmlns:xlink="http://www.w3.org/1999/xlink" x="0px" y="0px" width="32px" height="32px" viewBox="0 0 32 32" enable-background="new 0 0 32 32" xml:space="preserve">
  <g id="icon">
    <path d="M16,1.6C8.048,1.6,1.602,7.248,1.602,14.215c0,3.73,1.847,7.081,4.784,9.391C6.209,25.3,4.6,29.9,4.6,29.9s8.712,-2.882,9.443,-3.186c0.64,0.076,1.293,0.116,1.957,0.116c7.952,0,14.398,-5.648,14.398,-12.615S23.952,1.6,16,1.6zM9.729,18.012c-1.108,0,-1.978,-0.359,-2.588,-1.067c-0.614,-0.713,-0.925,-1.702,-0.925,-2.941c0,-1.151,0.346,-2.126,1.028,-2.899c0.679,-0.769,1.56,-1.158,2.62,-1.158c0.875,0,1.585,0.167,2.119,0.496l-0.498,0.978c-0.345,-0.275,-0.86,-0.415,-1.533,-0.415c-0.711,0,-1.301,0.295,-1.754,0.876c-0.447,0.572,-0.674,1.306,-0.674,2.181c0,0.874,0.211,1.58,0.628,2.098c0.422,0.524,0.992,0.79,1.695,0.79c0.746,0,1.349,-0.247,1.795,-0.736l0.566,0.959C11.638,17.73,10.805,18.012,9.729,18.012zM19.547,17.875h-1.235v-3.601h-3.456v3.601h-1.252v-7.793h1.252v3.132h3.456v-3.132h1.235V17.875zM25.036,17.405c-0.502,0.402,-1.189,0.605,-2.041,0.605h-0.006c-0.705,0,-1.355,-0.174,-1.933,-0.517l0.456,-1.08c0.553,0.358,1.107,0.539,1.647,0.539c0.915,0,1.379,-0.327,1.379,-0.973c0,-0.296,-0.109,-0.58,-0.325,-0.843c-0.213,-0.262,-0.631,-0.543,-1.276,-0.859c-0.616,-0.301,-1.034,-0.551,-1.245,-0.742c-0.205,-0.186,-0.366,-0.412,-0.478,-0.672c-0.111,-0.257,-0.168,-0.548,-0.168,-0.866c0,-0.585,0.222,-1.077,0.661,-1.463c0.443,-0.389,1.021,-0.586,1.718,-0.586c0.877,0,1.537,0.153,1.964,0.454l-0.372,1.032c-0.494,-0.319,-1.02,-0.481,-1.563,-0.481c-0.36,0,-0.646,0.096,-0.847,0.286c-0.204,0.192,-0.308,0.443,-0.308,0.747c0,0.506,0.528,1.003,1.615,1.519c0.536,0.257,0.926,0.495,1.16,0.707c0.229,0.208,0.407,0.456,0.529,0.735c0.121,0.278,0.182,0.594,0.182,0.939C25.783,16.497,25.532,17.008,25.036,17.405z" fill="#E5B662"/>
    <path d="M3.793,30.694l0.335,-0.959c0.015,-0.043,1.437,-4.121,1.725,-5.916c-3.023,-2.477,-4.751,-5.962,-4.751,-9.604C1.102,6.983,7.785,1.1,16,1.1s14.898,5.883,14.898,13.115S24.215,27.33,16,27.33c-0.632,0,-1.267,-0.035,-1.892,-0.105c-1.278,0.478,-9.009,3.036,-9.351,3.15L3.793,30.694zM16,2.1C8.336,2.1,2.102,7.535,2.102,14.215c0,3.423,1.674,6.702,4.593,8.998l0.217,0.171l-0.029,0.274c-0.132,1.264,-1.001,3.994,-1.486,5.451c3.142,-1.042,7.945,-2.645,8.454,-2.857l0.121,-0.05l0.13,0.016c0.625,0.074,1.264,0.112,1.898,0.112c7.664,0,13.898,-5.435,13.898,-12.115S23.664,2.1,16,2.1z" fill="#AA833C"/>
    <path d="M9.729,18.012c-1.108,0,-1.978,-0.359,-2.588,-1.067c-0.614,-0.713,-0.925,-1.702,-0.925,-2.941c0,-1.151,0.346,-2.126,1.028,-2.899c0.679,-0.769,1.56,-1.158,2.62,-1.158c0.875,0,1.585,0.167,2.119,0.496l-0.498,0.978c-0.345,-0.275,-0.86,-0.415,-1.533,-0.415c-0.711,0,-1.301,0.295,-1.754,0.876c-0.447,0.572,-0.674,1.306,-0.674,2.181c0,0.874,0.211,1.58,0.628,2.098c0.422,0.524,0.992,0.79,1.695,0.79c0.746,0,1.349,-0.247,1.795,-0.736l0.566,0.959C11.638,17.73,10.805,18.012,9.729,18.012zM22.989,18.01c-0.705,0,-1.355,-0.174,-1.933,-0.517l0.456,-1.08c0.553,0.358,1.107,0.539,1.647,0.539c0.915,0,1.379,-0.327,1.379,-0.973c0,-0.296,-0.109,-0.58,-0.325,-0.843c-0.213,-0.262,-0.631,-0.543,-1.276,-0.859c-0.616,-0.301,-1.034,-0.551,-1.245,-0.742c-0.205,-0.186,-0.366,-0.412,-0.478,-0.672c-0.111,-0.257,-0.168,-0.548,-0.168,-0.866c0,-0.585,0.222,-1.077,0.661,-1.463c0.443,-0.389,1.021,-0.586,1.718,-0.586c0.877,0,1.537,0.153,1.964,0.454l-0.372,1.032c-0.494,-0.319,-1.02,-0.481,-1.563,-0.481c-0.36,0,-0.646,0.096,-0.847,0.286c-0.204,0.192,-0.308,0.443,-0.308,0.747c0,0.506,0.528,1.003,1.615,1.519c0.536,0.257,0.926,0.495,1.16,0.707c0.229,0.208,0.407,0.456,0.529,0.735c0.121,0.278,0.182,0.594,0.182,0.939c0,0.612,-0.251,1.123,-0.747,1.52c-0.502,0.402,-1.189,0.605,-2.041,0.605H22.989zM18.312,17.875v-3.601h-3.456v3.601h-1.252v-7.793h1.252v3.132h3.456v-3.132h1.235v7.793H18.312z" fill="#FFFFFF"/>
  </g>
</svg>
