<?xml version="1.0" encoding="UTF-8"?>
<!DOCTYPE svg PUBLIC "-//W3C//DTD SVG 1.1//EN" "http://www.w3.org/Graphics/SVG/1.1/DTD/svg11.dtd">
<svg version="1.1" id="Layer_1" xmlns="http://www.w3.org/2000/svg" xmlns:xlink="http://www.w3.org/1999/xlink" x="0px" y="0px" width="16px" height="16px" viewBox="0 0 16 16" enable-background="new 0 0 16 16" xml:space="preserve">
  <g id="icon">
    <rect x="0.5" y="0.5" width="15" height="14" fill="#FFFFFF" stroke="#383838" stroke-width="1" stroke-miterlimit="1"/>
    <g>
      <rect x="13.5" y="1.5" width="1" height="12" fill="#F1F2F2"/>
      <rect x="1.5" y="1.5" width="1" height="12" fill="#808285"/>
      <rect x="2.5" y="1.5" width="1" height="12" fill="#8A8C8E"/>
      <rect x="3.5" y="1.5" width="1" height="12" fill="#939598"/>
      <rect x="4.5" y="1.5" width="1" height="12" fill="#9D9FA2"/>
      <rect x="5.5" y="1.5" width="1" height="12" fill="#A7A9AC"/>
      <rect x="6.5" y="1.5" width="1" height="12" fill="#B1B3B6"/>
      <rect x="7.5" y="1.5" width="1" height="12" fill="#BCBEC0"/>
      <rect x="8.5" y="1.5" width="1" height="12" fill="#C7C8CA"/>
      <rect x="9.5" y="1.5" width="1" height="12" fill="#D1D3D4"/>
      <rect x="10.5" y="1.5" width="1" height="12" fill="#DCDDDE"/>
      <rect x="11.5" y="1.5" width="1" height="12" fill="#E2E3E4"/>
      <rect x="12.5" y="1.5" width="1" height="12" fill="#EBEBEC"/>
    </g>
  </g>
</svg>
