<?xml version="1.0" encoding="UTF-8"?>
<!DOCTYPE svg PUBLIC "-//W3C//DTD SVG 1.1//EN" "http://www.w3.org/Graphics/SVG/1.1/DTD/svg11.dtd">
<svg version="1.1" id="Layer_1" xmlns="http://www.w3.org/2000/svg" xmlns:xlink="http://www.w3.org/1999/xlink" x="0px" y="0px" width="16px" height="16px" viewBox="0 0 16 16" enable-background="new 0 0 16 16" xml:space="preserve">
  <g id="icon">
    <rect x="0.555" y="3.8" width="11.945" height="11.8" fill="#FFFFFF"/>
    <ellipse cx="9.489" cy="6.511" rx="1.093" ry="1.089" fill="#FFFFFF" stroke="#ED8730" stroke-width="1" stroke-miterlimit="1"/>
    <path d="M6.636,11.147c2.295,-2.723,3.941,-0.819,5.864,1.337M9.685,13.854C5.615,12.128,4.292,4.447,0.45,11.29" fill="none" stroke="#0BA04A" stroke-width="1" stroke-miterlimit="1"/>
    <rect x="0.5" y="3.5" width="12" height="12" fill="none" stroke="#383838" stroke-width="1" stroke-miterlimit="1"/>
    <polygon points="3.555,0.8 3.555,2 14,2 14,12.6 15.5,12.6 15.5,0.8" fill="#FFFFFF" stroke-linejoin="miter"/>
    <polygon points="3,0 3,2 4,2 4,1 15,1 15,12 14,12 14,13 16,13 16,0" fill="#383838" stroke-linejoin="miter"/>
  </g>
</svg>
