<?xml version="1.0" encoding="UTF-8"?>
<!DOCTYPE svg PUBLIC "-//W3C//DTD SVG 1.1//EN" "http://www.w3.org/Graphics/SVG/1.1/DTD/svg11.dtd">
<svg version="1.1" id="Layer_1" xmlns="http://www.w3.org/2000/svg" xmlns:xlink="http://www.w3.org/1999/xlink" x="0px" y="0px" width="16px" height="16px" viewBox="0 0 16 16" enable-background="new 0 0 16 16" xml:space="preserve">
  <g id="icon">
    <g>
      <polygon points="8.5,16 8.5,15 9,15 9,14.5 10,14.5 10,16" fill="#383838" stroke-linejoin="miter"/>
      <polygon points="6,16 6,14.5 7,14.5 7,15 7.5,15 7.5,16" fill="#383838" stroke-linejoin="miter"/>
      <path d="M6,12.875v-2.167h1v2.167H6zM6,9.083V6.917h1v2.167H6zM6,5.292V3.125h1v2.167H6z" fill="#383838"/>
      <polygon points="6,1.5 6,0 7.5,0 7.5,1 7,1 7,1.5" fill="#383838" stroke-linejoin="miter"/>
      <polygon points="8.5,1 8.5,0 10,0 10,1.5 9,1.5 9,1" fill="#383838" stroke-linejoin="miter"/>
      <path d="M9,12.875v-2.167h1v2.167H9zM9,9.083V6.917h1v2.167H9zM9,5.292V3.125h1v2.167H9z" fill="#383838"/>
    </g>
  </g>
</svg>
