<?xml version="1.0" encoding="UTF-8"?>
<!DOCTYPE svg PUBLIC "-//W3C//DTD SVG 1.1//EN" "http://www.w3.org/Graphics/SVG/1.1/DTD/svg11.dtd">
<svg version="1.1" id="Layer_1" xmlns="http://www.w3.org/2000/svg" xmlns:xlink="http://www.w3.org/1999/xlink" x="0px" y="0px" width="16px" height="16px" viewBox="0 0 16 16" enable-background="new 0 0 16 16" xml:space="preserve">
  <g id="icon">
    <path d="M15.17,4.624l-2.111,-2.113c-0.413,-0.413,-1.082,-0.413,-1.495,0L2.51,11.572c-0.413,0.413,-0.413,1.083,0,1.496l2.111,2.113c0.413,0.413,1.082,0.413,1.495,0L15.17,6.12C15.583,5.707,15.583,5.037,15.17,4.624z" fill="#FFFFFF" stroke="#ED8730" stroke-width="1" stroke-miterlimit="1"/>
    <path d="M5.665,9.995l0.554,-0.554l2.02,2.02l-0.554,0.554L5.665,9.995zM9.442,6.218l0.554,-0.554l2.02,2.02l-0.554,0.554L9.442,6.218z" fill="#787979"/>
    <path d="M8.924,10.472c-0.124,0,-0.249,-0.047,-0.343,-0.142l-0.103,-0.103c-0.19,-0.19,-0.19,-0.497,0,-0.687c0.19,-0.19,0.497,-0.19,0.687,0l0.103,0.103c0.19,0.19,0.19,0.497,0,0.687C9.173,10.425,9.048,10.472,8.924,10.472zM9.959,9.437c-0.124,0,-0.249,-0.047,-0.343,-0.142l-0.103,-0.103c-0.19,-0.19,-0.19,-0.497,0,-0.687c0.19,-0.19,0.497,-0.19,0.687,0l0.103,0.103c0.19,0.19,0.19,0.497,0,0.687C10.208,9.39,10.083,9.437,9.959,9.437zM7.889,9.437c-0.124,0,-0.249,-0.047,-0.343,-0.142l-0.103,-0.103c-0.19,-0.19,-0.19,-0.497,0,-0.687c0.19,-0.19,0.497,-0.19,0.687,0l0.103,0.103c0.19,0.19,0.19,0.497,0,0.687C8.138,9.39,8.014,9.437,7.889,9.437zM8.924,8.403c-0.124,0,-0.249,-0.047,-0.343,-0.142l-0.103,-0.103c-0.19,-0.19,-0.19,-0.497,0,-0.687c0.19,-0.19,0.497,-0.19,0.687,0l0.103,0.103c0.19,0.19,0.19,0.497,0,0.687C9.173,8.355,9.048,8.403,8.924,8.403z" fill="#787979"/>
    <path d="M4.067,1.233l0.528,1.558l1.089,-0.342l-0.342,1.089L6.9,4.067l-1.558,0.528l0.342,1.089l-1.089,-0.342L4.067,6.9l-0.528,-1.558L2.45,5.684l0.342,-1.089l-1.558,-0.528l1.558,-0.528L2.45,2.45l1.089,0.342L4.067,1.233z" fill="#FFFFFF" stroke="#ED8730" stroke-width="0.8" stroke-miterlimit="1"/>
  </g>
</svg>
