<?xml version="1.0" encoding="UTF-8"?>
<!DOCTYPE svg PUBLIC "-//W3C//DTD SVG 1.1//EN" "http://www.w3.org/Graphics/SVG/1.1/DTD/svg11.dtd">
<svg version="1.1" id="Layer_1" xmlns="http://www.w3.org/2000/svg" xmlns:xlink="http://www.w3.org/1999/xlink" x="0px" y="0px" width="16px" height="16px" viewBox="0 0 16 16" enable-background="new 0 0 16 16" xml:space="preserve">
  <g id="icon">
    <path d="M2,1H0V0h2V1zM5,1H3V0h2V1zM8,1H6V0h2V1zM11,1H9V0h2V1zM14,1h-2V0h2V1z" fill="#6D6E71"/>
    <path d="M4,16H2v-1h2V16zM7,16H5v-1h2V16zM10,16H8v-1h2V16zM13,16h-2v-1h2V16zM16,16h-2v-1h2V16z" fill="#6D6E71"/>
    <path d="M16,12v2h-1v-2H16zM16,9v2h-1V9H16zM16,6v2h-1V6H16zM16,3v2h-1V3H16zM16,0v2h-1V0H16z" fill="#6D6E71"/>
    <path d="M1,14v2H0v-2H1zM1,11v2H0v-2H1zM1,8v2H0V8H1zM1,5v2H0V5H1zM1,2v2H0V2H1z" fill="#6D6E71"/>
    <polygon points="7,12 7,7 6.3,7 6.3,6 9.7,6 9.7,7 8,7 8,11 9.9,11 9.9,12" fill="#6D6E71" stroke-linejoin="miter"/>
    <path d="M8.8236,12.0159l2.9997,-2.9997l2.0841,2.0841L10.9077,14.1L8.8236,12.0159z" fill="#6485C3"/>
    <path d="M8.8349,6.6388l2.9884,-2.9884l2.0865,2.0864l-3.07,3.0319L8.8349,6.6388z" fill="#9070B1"/>
    <path d="M2.0743,6.5004L6.479,2.0957l2.5292,2.5292L4.6035,9.0296L2.0743,6.5004z" fill="#EEAC55"/>
  </g>
</svg>
