<?xml version="1.0" encoding="UTF-8"?>
<!DOCTYPE svg PUBLIC "-//W3C//DTD SVG 1.1//EN" "http://www.w3.org/Graphics/SVG/1.1/DTD/svg11.dtd">
<svg version="1.1" id="Layer_1" xmlns="http://www.w3.org/2000/svg" xmlns:xlink="http://www.w3.org/1999/xlink" x="0px" y="0px" width="16px" height="16px" viewBox="0 0 16 16" enable-background="new 0 0 16 16" xml:space="preserve">
  <g id="icon">
    <path d="M13.4833,1.5H2.5167C1.4029,1.5,0.5,2.4029,0.5,3.5167v8.9667C0.5,13.5971,1.4029,14.5,2.5167,14.5h10.9667c1.1138,0,2.0167,-0.9029,2.0167,-2.0167V3.5167C15.5,2.4029,14.5971,1.5,13.4833,1.5z" fill="#FFFFFF" opacity="0.5"/>
    <path d="M13.4833,15H2.5167C1.129,15,0,13.871,0,12.4833V3.5167C0,2.129,1.129,1,2.5167,1h10.9667C14.871,1,16,2.129,16,3.5167v8.9667C16,13.871,14.871,15,13.4833,15zM2.5167,2C1.6804,2,1,2.6804,1,3.5167v8.9667C1,13.3196,1.6804,14,2.5167,14h10.9667c0.8363,0,1.5167,-0.6804,1.5167,-1.5167V3.5167C15,2.6804,14.3196,2,13.4833,2H2.5167z" fill="#52B250"/>
    <path d="M13,7H3V5h10V7zM13,11H3V9h10V11z" fill="#52B250"/>
  </g>
</svg>
