<?xml version="1.0" encoding="UTF-8"?>
<!DOCTYPE svg PUBLIC "-//W3C//DTD SVG 1.1//EN" "http://www.w3.org/Graphics/SVG/1.1/DTD/svg11.dtd">
<svg version="1.1" id="Layer_1" xmlns="http://www.w3.org/2000/svg" xmlns:xlink="http://www.w3.org/1999/xlink" x="0px" y="0px" width="16px" height="16px" viewBox="0 0 16 16" enable-background="new 0 0 16 16" xml:space="preserve">
  <g id="icon">
    <path d="M5.1903,13.0128c-0.0463,0,-0.0899,-0.0178,-0.1227,-0.0502l-0.1164,-0.1148c-0.0542,-0.0535,-0.0666,-0.1345,-0.031,-0.2015l1.5053,-2.8239c0.03,-0.0563,0.0888,-0.0913,0.1535,-0.0913c0.007,0,0.0141,0.0004,0.0211,0.0013l0.0335,0.004l1.5901,1.5742l0.0017,0.0376c0.003,0.0673,-0.0325,0.1285,-0.0925,0.1597l-2.862,1.4853C5.2462,13.006,5.2183,13.0128,5.1903,13.0128zM7.0916,9.1158l5.6438,-5.5621l1.7543,1.7368l-5.6438,5.5621L7.0916,9.1158zM13.2741,3.0133l0.7042,-0.6866c0.1525,-0.1505,0.312,-0.2267,0.4741,-0.2267s0.3218,0.0764,0.4745,0.2271l0.7541,0.7441c0.1412,0.1393,0.2189,0.3245,0.2189,0.5216c0,0.197,-0.0777,0.3822,-0.2189,0.5216l-0.6484,0.64L13.2741,3.0133z" fill="#6485C3"/>
    <path d="M3.938,13.3898L4.0861,13H2v1h2.0965C3.932,13.86,3.848,13.6268,3.938,13.3898zM4.8877,14H11v-1H7.4738L4.8877,14z" fill="#FFFFFF"/>
    <path d="M10.9124,4H8V0h0.3437l3.251,3.316L10.9124,4zM12.3,8.8001L12.3,8.8l-3.3495,3.3517L6.9678,13h0.506H11v1H4.8877h-0.2621c-0.1255,0.0433,-0.2497,0.0393,-0.3589,0h-0.1702H2v-1h2.0697l1.7886,-3.9376L9.9139,5H8H7V4V0H0v16h13V8.0996L12.3,8.8001z" fill="#7B7B7B"/>
    <polygon points="8,4 8,0 7,0 7,5 7.5,5 8,5 9.9,5 10.9,4" fill="#FFFFFF" stroke-linejoin="miter" opacity="0.5"/>
  </g>
</svg>
