<?xml version="1.0" encoding="UTF-8"?>
<!DOCTYPE svg PUBLIC "-//W3C//DTD SVG 1.1//EN" "http://www.w3.org/Graphics/SVG/1.1/DTD/svg11.dtd">
<svg version="1.1" id="Layer_1" xmlns="http://www.w3.org/2000/svg" xmlns:xlink="http://www.w3.org/1999/xlink" x="0px" y="0px" width="16px" height="16px" viewBox="0 0 16 16" enable-background="new 0 0 16 16" xml:space="preserve">
  <g id="icon">
    <path d="M0,3v10h7V3H0zM5.5,5.7333C5.5,5.8806,5.3806,6,5.2333,6h-0.5C4.3283,6,4,6.3283,4,6.7333v2.5333c0,0.405,0.3283,0.7333,0.7333,0.7333h0.5c0.1473,0,0.2667,0.1194,0.2667,0.2667v0.4667c0,0.1473,-0.1194,0.2667,-0.2667,0.2667h-0.5c-0.4828,0,-0.9191,-0.1977,-1.2333,-0.5161C3.1857,10.8023,2.7494,11,2.2667,11h-0.5c-0.1473,0,-0.2667,-0.1194,-0.2667,-0.2667v-0.4667c0,-0.1473,0.1194,-0.2667,0.2667,-0.2667h0.5c0.405,0,0.7333,-0.3283,0.7333,-0.7333V6.7333C3,6.3283,2.6717,6,2.2667,6h-0.5C1.6194,6,1.5,5.8806,1.5,5.7333v-0.4667C1.5,5.1194,1.6194,5,1.7667,5h0.5c0.4828,0,0.9191,0.1977,1.2333,0.5161C3.8143,5.1977,4.2506,5,4.7333,5h0.5C5.3806,5,5.5,5.1194,5.5,5.2667V5.7333z" fill="#6D6E71"/>
    <path d="M8,3v10h8V3H8zM12.0245,9.7875L9.325,7.088l0.8615,-0.8615l1.8379,1.838l1.814,-1.814L14.7,7.1119L12.0245,9.7875z" fill="#6485C3"/>
    <polygon points="12.0245,9.7875 9.325,7.088 10.1865,6.2264 12.0245,8.0644 13.8385,6.2504 14.7,7.1119" fill="#FFFFFF" stroke-linejoin="miter" opacity="0.5"/>
    <path d="M4.7333,6h0.5C5.3806,6,5.5,5.8806,5.5,5.7333v-0.4667C5.5,5.1194,5.3806,5,5.2333,5h-0.5c-0.4828,0,-0.9191,0.1977,-1.2333,0.5161C3.1857,5.1977,2.7494,5,2.2667,5h-0.5C1.6194,5,1.5,5.1194,1.5,5.2667v0.4667C1.5,5.8806,1.6194,6,1.7667,6h0.5C2.6717,6,3,6.3283,3,6.7333v2.5333c0,0.405,-0.3283,0.7333,-0.7333,0.7333h-0.5c-0.1473,0,-0.2667,0.1194,-0.2667,0.2667v0.4667c0,0.1473,0.1194,0.2667,0.2667,0.2667h0.5c0.4828,0,0.9191,-0.1977,1.2333,-0.5161c0.3143,0.3184,0.7506,0.5161,1.2333,0.5161h0.5c0.1473,0,0.2667,-0.1194,0.2667,-0.2667v-0.4667c0,-0.1473,-0.1194,-0.2667,-0.2667,-0.2667h-0.5C4.3283,10,4,9.6717,4,9.2667V6.7333C4,6.3283,4.3283,6,4.7333,6z" fill="#FFFFFF" opacity="0.5"/>
    <rect x="7" y="3" width="1" height="10" fill="#FFFFFF" opacity="0.5"/>
  </g>
</svg>
