<?xml version="1.0" encoding="UTF-8"?>
<!DOCTYPE svg PUBLIC "-//W3C//DTD SVG 1.1//EN" "http://www.w3.org/Graphics/SVG/1.1/DTD/svg11.dtd">
<svg version="1.1" id="Layer_1" xmlns="http://www.w3.org/2000/svg" xmlns:xlink="http://www.w3.org/1999/xlink" x="0px" y="0px" width="16px" height="16px" viewBox="0 0 16 16" enable-background="new 0 0 16 16" xml:space="preserve">
  <g id="icon">
    <path d="M0,12h16V5H0V12zM1.1127,8.5l2.34,-2.3061l0.702,0.7122L2.5373,8.5l1.6173,1.5939l-0.702,0.7122L1.1127,8.5zM14.939,8.5097l-2.4732,2.2129l-0.6668,-0.7452l1.662,-1.4871l-1.6716,-1.5766l0.6861,-0.7274L14.939,8.5097z" fill="#6D6E71"/>
    <path d="M3.4527,10.8061L1.1127,8.5l2.34,-2.3061l0.702,0.7122L2.5373,8.5l1.6173,1.5939L3.4527,10.8061zM12.4658,10.7226l-0.6668,-0.7452l1.662,-1.4871l-1.6716,-1.5766l0.6861,-0.7274l2.4635,2.3234L12.4658,10.7226z" fill="#FFFFFF" opacity="0.5"/>
  </g>
</svg>
