<?xml version="1.0" encoding="UTF-8"?>
<!DOCTYPE svg PUBLIC "-//W3C//DTD SVG 1.1//EN" "http://www.w3.org/Graphics/SVG/1.1/DTD/svg11.dtd">
<svg version="1.1" id="Layer_1" xmlns="http://www.w3.org/2000/svg" xmlns:xlink="http://www.w3.org/1999/xlink" x="0px" y="0px" width="16px" height="16px" viewBox="0 0 16 16" enable-background="new 0 0 16 16" xml:space="preserve">
  <g id="icon">
    <path d="M13.1236,2.55H2.8764C1.5916,2.55,0.55,3.5916,0.55,4.8764v6.2472c0,1.2848,1.0416,2.3264,2.3264,2.3264h10.2472c1.2848,0,2.3264,-1.0416,2.3264,-2.3264V4.8764C15.45,3.5916,14.4084,2.55,13.1236,2.55z" fill="#FFFFFF" opacity="0.5"/>
    <path d="M13.1236,14H2.8764C1.2903,14,0,12.7097,0,11.1236V4.8764C0,3.2903,1.2903,2,2.8764,2h10.2473C14.7097,2,16,3.2903,16,4.8764v6.2473C16,12.7097,14.7097,14,13.1236,14zM2.8764,3.1C1.8969,3.1,1.1,3.8969,1.1,4.8764v6.2473C1.1,12.1031,1.8969,12.9,2.8764,12.9h10.2473c0.9795,0,1.7764,-0.7969,1.7764,-1.7764V4.8764C14.9,3.8969,14.1031,3.1,13.1236,3.1H2.8764z" fill="#6485C3"/>
  </g>
</svg>
