<?xml version="1.0" encoding="UTF-8"?>
<!DOCTYPE svg PUBLIC "-//W3C//DTD SVG 1.1//EN" "http://www.w3.org/Graphics/SVG/1.1/DTD/svg11.dtd">
<svg version="1.1" id="Layer_1" xmlns="http://www.w3.org/2000/svg" xmlns:xlink="http://www.w3.org/1999/xlink" x="0px" y="0px" width="16px" height="16px" viewBox="0 0 16 16" enable-background="new 0 0 16 16" xml:space="preserve">
  <g id="icon">
    <path d="M9.5758,10.5046c0,0.8818,-0.7069,1.5992,-1.5757,1.5992s-1.5757,-0.7174,-1.5757,-1.5992S7.1312,8.9055,8,8.9055S9.5758,9.6229,9.5758,10.5046zM16,5v11H0V5h0.5h0.5h14h0.5H16zM12,9.9494c0,-0.0799,-0.0638,-0.1446,-0.1425,-0.1446h-0.9521c-0.1343,-0.572,-0.4283,-1.0863,-0.8532,-1.4924l0.4877,-0.8385c0.0403,-0.0694,0.0171,-0.1588,-0.0517,-0.1989l-0.9524,-0.5557c-0.0677,-0.0395,-0.1541,-0.0164,-0.1938,0.0519l-0.4889,0.8406c-0.2759,-0.083,-0.5627,-0.125,-0.8531,-0.125s-0.5771,0.042,-0.8531,0.125l-0.4625,-0.8363c-0.0388,-0.0702,-0.1266,-0.0947,-0.1953,-0.0546l-0.9524,0.5557c-0.0677,0.0395,-0.0915,0.127,-0.0532,0.1962l0.4644,0.8397c-0.4249,0.4061,-0.7189,0.9204,-0.8532,1.4924h-0.9521c-0.0787,0,-0.1425,0.0648,-0.1425,0.1446v1.1105c0,0.0799,0.0638,0.1446,0.1425,0.1446h0.9521c0.1343,0.572,0.4283,1.0863,0.8532,1.4924l-0.4667,0.8683c-0.0371,0.069,-0.0131,0.1555,0.0541,0.1947l0.9523,0.5556c0.0693,0.0405,0.1579,0.0151,0.1962,-0.0561l0.4632,-0.8619c0.2759,0.083,0.5627,0.125,0.8531,0.125s0.5771,-0.042,0.8531,-0.125l0.4896,0.8661c0.0392,0.0693,0.1264,0.0933,0.1947,0.0534l0.9524,-0.5557c0.0682,-0.0398,0.0917,-0.1281,0.0526,-0.1974l-0.4902,-0.8671c0.4249,-0.4061,0.7189,-0.9204,0.8532,-1.4924h0.9521c0.0787,0,0.1425,-0.0648,0.1425,-0.1446V9.9494z" fill="#6D6E71"/>
    <rect y="1" width="16" height="3" fill="#6485C3"/>
    <path d="M8.853,13.3975c-0.2759,0.083,-0.5627,0.125,-0.853,0.125s-0.5771,-0.042,-0.853,-0.125l-0.4632,0.8619c-0.0383,0.0712,-0.1268,0.0966,-0.1962,0.0561l-0.9523,-0.5556c-0.0672,-0.0392,-0.0912,-0.1256,-0.0541,-0.1947l0.4667,-0.8683c-0.4249,-0.4061,-0.7189,-0.9204,-0.8532,-1.4924h-0.9521c-0.0787,0,-0.1425,-0.0648,-0.1425,-0.1446V9.9494c0,-0.0799,0.0638,-0.1446,0.1425,-0.1446h0.9521c0.1343,-0.572,0.4283,-1.0863,0.8532,-1.4924l-0.4644,-0.8397c-0.0382,-0.0692,-0.0145,-0.1567,0.0533,-0.1962l0.9524,-0.5557c0.0687,-0.0401,0.1565,-0.0156,0.1953,0.0546l0.4625,0.8363c0.2759,-0.083,0.5627,-0.125,0.853,-0.125s0.5771,0.042,0.853,0.125l0.489,-0.8406c0.0397,-0.0682,0.1261,-0.0914,0.1938,-0.0519l0.9524,0.5557c0.0688,0.0401,0.092,0.1296,0.0517,0.1989l-0.4877,0.8385c0.4249,0.4061,0.7189,0.9204,0.8532,1.4924h0.9521c0.0787,0,0.1425,0.0648,0.1425,0.1446v1.1105c0,0.0799,-0.0638,0.1446,-0.1425,0.1446h-0.9521c-0.1343,0.572,-0.4283,1.0863,-0.8532,1.4924l0.4902,0.8671c0.0391,0.0692,0.0156,0.1576,-0.0526,0.1974l-0.9524,0.5557c-0.0683,0.0398,-0.1555,0.0159,-0.1947,-0.0534L8.853,13.3975zM8,8.9055c-0.8688,0,-1.5757,0.7174,-1.5757,1.5992S7.1312,12.1038,8,12.1038s1.5757,-0.7174,1.5757,-1.5992S8.8689,8.9055,8,8.9055z" fill="#FFFFFF" opacity="0.5"/>
    <rect y="4" width="16" height="1" fill="#FFFFFF" opacity="0.5"/>
  </g>
</svg>
