<?xml version="1.0" encoding="UTF-8"?>
<!DOCTYPE svg PUBLIC "-//W3C//DTD SVG 1.1//EN" "http://www.w3.org/Graphics/SVG/1.1/DTD/svg11.dtd">
<svg version="1.1" id="Layer_1" xmlns="http://www.w3.org/2000/svg" xmlns:xlink="http://www.w3.org/1999/xlink" x="0px" y="0px" width="16px" height="16px" viewBox="0 0 16 16" enable-background="new 0 0 16 16" xml:space="preserve">
  <g id="icon">
    <polygon points="11.1,0.5 3.5,0.5 3.5,7.5 3.5,15.5 10.5,15.5 15.5,15.5 15.5,4.9" fill="#FFFFFF" stroke-linejoin="miter" opacity="0.5"/>
    <path d="M11.3034,0H3v8.5h1V1h7v4h4v10h-1v1h2V4.6892L11.3034,0z" fill="#6D6E71"/>
    <polygon points="7.5,10 7.5,12.5 5.5,12.5 5.5,10 4.5,10 4.5,12.5 4.5,13 4.5,16 5.5,16 5.5,13.5 7.5,13.5 7.5,16 8.5,16 8.5,13 8.5,12.5 8.5,10" fill="#6485C3" stroke-linejoin="miter"/>
    <path d="M1,16H0v-6h1.6919c0.6905,0,1.2423,0.163,1.6402,0.4845c0.4299,0.3475,0.6478,0.8544,0.6478,1.5066c0,0.2918,-0.0597,0.567,-0.1775,0.8179c-0.1172,0.2499,-0.285,0.4676,-0.4984,0.6473c-0.2049,0.1724,-0.4487,0.3081,-0.7248,0.4032c-0.2703,0.0932,-0.5688,0.1404,-0.8873,0.1404H1V16zM1,13h0.6919c0.2073,0,0.3961,-0.0289,0.5613,-0.0858c0.1595,-0.055,0.2964,-0.13,0.4069,-0.223c0.1033,-0.087,0.1809,-0.1874,0.237,-0.307c0.0557,-0.1186,0.0828,-0.2471,0.0828,-0.393c0,-0.448,-0.1477,-0.6249,-0.2764,-0.7289c-0.2154,-0.174,-0.5558,-0.2623,-1.0116,-0.2623H1V13z" fill="#6485C3"/>
    <path d="M10.5,16H9.5v-6h1.6919c0.6905,0,1.2423,0.163,1.6402,0.4845c0.4299,0.3475,0.6478,0.8544,0.6478,1.5066c0,0.2918,-0.0597,0.567,-0.1775,0.8179c-0.1172,0.2499,-0.285,0.4676,-0.4984,0.6473c-0.2049,0.1724,-0.4487,0.3081,-0.7248,0.4032c-0.2703,0.0932,-0.5688,0.1404,-0.8873,0.1404H10.5V16zM10.5,13h0.6919c0.2073,0,0.3961,-0.0289,0.5613,-0.0858c0.1595,-0.055,0.2964,-0.13,0.4069,-0.223c0.1033,-0.087,0.1809,-0.1874,0.237,-0.307c0.0557,-0.1186,0.0828,-0.2471,0.0828,-0.393c0,-0.448,-0.1477,-0.6249,-0.2764,-0.7289c-0.2154,-0.174,-0.5558,-0.2623,-1.0116,-0.2623H10.5V13z" fill="#6485C3"/>
  </g>
</svg>
