<?xml version="1.0" encoding="UTF-8"?>
<!DOCTYPE svg PUBLIC "-//W3C//DTD SVG 1.1//EN" "http://www.w3.org/Graphics/SVG/1.1/DTD/svg11.dtd">
<svg version="1.1" id="Layer_1" xmlns="http://www.w3.org/2000/svg" xmlns:xlink="http://www.w3.org/1999/xlink" x="0px" y="0px" width="16px" height="16px" viewBox="0 0 16 16" enable-background="new 0 0 16 16" xml:space="preserve">
  <g id="icon">
    <polygon points="11.3,0.5 3.5,0.5 3.5,15.5 15.5,15.5 15.5,4.7" fill="#FFFFFF" stroke-linejoin="miter" opacity="0.5"/>
    <path d="M11.5034,0H3v6h1V1h7v4h4v10h-5v1h6V4.4892L11.5034,0z" fill="#6D6E71"/>
    <rect x="2.5" y="7.5" width="4.1" height="8" fill="#FFFFFF"/>
    <path d="M9,16H0V7h9V16zM7,15h1v-1H7V15zM3,15h3V8H3V15zM1,15h1v-1H1V15zM7,13h1v-1H7V13zM1,13h1v-1H1V13zM7,11h1v-1H7V11zM1,11h1v-1H1V11zM7,9h1V8H7V9zM1,9h1V8H1V9z" fill="#6485C3"/>
  </g>
</svg>
