<?xml version="1.0" encoding="UTF-8"?>
<!DOCTYPE svg PUBLIC "-//W3C//DTD SVG 1.1//EN" "http://www.w3.org/Graphics/SVG/1.1/DTD/svg11.dtd">
<svg version="1.1" id="Layer_1" xmlns="http://www.w3.org/2000/svg" xmlns:xlink="http://www.w3.org/1999/xlink" x="0px" y="0px" width="16px" height="16px" viewBox="0 0 16 16" enable-background="new 0 0 16 16" xml:space="preserve">
  <g id="icon">
    <polygon points="11.1,0.5 3.5,0.5 3.5,15.5 15.5,15.5 15.5,4.9" fill="#FFFFFF" stroke-linejoin="miter" opacity="0.5"/>
    <path d="M11.3034,0H3v9h1V1h7v4h4v10h-3v1h4V4.6892L11.3034,0z" fill="#6D6E71"/>
    <path d="M5.5,16.1c-1.3785,0,-2.5,-1.1215,-2.5,-2.5v-1c0,-1.3785,1.1215,-2.5,2.5,-2.5s2.5,1.1215,2.5,2.5v1C8,14.9785,6.8785,16.1,5.5,16.1zM5.5,11.1c-0.8271,0,-1.5,0.6729,-1.5,1.5v1c0,0.8271,0.6729,1.5,1.5,1.5s1.5,-0.6729,1.5,-1.5v-1C7,11.7729,6.3271,11.1,5.5,11.1zM11,16h-1v-5H9v-1h2V16zM2,16H1v-5H0v-1h2V16z" fill="#6485C3"/>
  </g>
</svg>
