<?xml version="1.0" encoding="UTF-8"?>
<!DOCTYPE svg PUBLIC "-//W3C//DTD SVG 1.1//EN" "http://www.w3.org/Graphics/SVG/1.1/DTD/svg11.dtd">
<svg version="1.1" id="Layer_1" xmlns="http://www.w3.org/2000/svg" xmlns:xlink="http://www.w3.org/1999/xlink" x="0px" y="0px" width="16px" height="16px" viewBox="0 0 16 16" enable-background="new 0 0 16 16" xml:space="preserve">
  <g id="icon">
    <path d="M14.6788,7.4384c-1.2651,1.2651,-3.1091,1.5838,-4.5398,0.9026l-6.9745,6.9745c-0.7391,0.7391,-1.8934,0.7832,-2.5783,0.0983l0,0c-0.6848,-0.6848,-0.6408,-1.8391,0.0983,-2.5783L7.659,5.8611c-0.6812,-1.4307,-0.3625,-3.2747,0.9026,-4.5398C9.8267,0.0561,11.617,-0.2088,13.0477,0.4724l-2.2214,2.2214c-0.7391,0.7391,-0.7832,1.8935,-0.0983,2.5783l0,0c0.6848,0.6848,1.8391,0.6408,2.5783,-0.0983l2.2214,-2.2214C16.2088,4.383,15.9439,6.1733,14.6788,7.4384z" fill="#6485C3"/>
  </g>
</svg>
