<?xml version="1.0" encoding="UTF-8"?>
<!DOCTYPE svg PUBLIC "-//W3C//DTD SVG 1.1//EN" "http://www.w3.org/Graphics/SVG/1.1/DTD/svg11.dtd">
<svg version="1.1" id="Layer_1" xmlns="http://www.w3.org/2000/svg" xmlns:xlink="http://www.w3.org/1999/xlink" x="0px" y="0px" width="16px" height="16px" viewBox="0 0 16 16" enable-background="new 0 0 16 16" xml:space="preserve">
  <g id="icon">
    <path d="M10.5,3l3.0121,1.4144L13.5,13.7l-3,0.85v-0.0336c0,0.0158,-0.0146,0.0275,-0.03,0.0241l-0.5189,-0.1518C10.6124,13.4243,11,12.2576,11,11c0,-3.3137,-2.6863,-6,-6,-6c-0.8925,0,-1.7387,0.1964,-2.5,0.5459V4.0528l8,-1.0498V3zM15.2,2.475l-2.6,-1.5L10.5,3l2.9095,1.2794L15.2,2.475zM0.9,2l1.5955,2.0504L10.5,3L8.75,0.6L0.9,2z" fill="#FFFFFF" opacity="0.5"/>
    <path d="M12.5239,0.3538l-1.9579,1.888L8.9699,0.0529L-0.0034,1.6532L2,4.2278v1.5769c0.3163,-0.1831,0.6505,-0.3384,1,-0.4619v-0.8513l7,-0.9186v4.111c0.6314,0.9501,1,2.0899,1,3.3161V3.7872l2.0117,0.9446l-0.0112,8.5901L11,13.8887V11c0,1.4494,-0.5139,2.7787,-1.3695,3.8158l0.6991,0.2046l0.0334,0.0085c0.0376,0.0083,0.0755,0.0123,0.1131,0.0123c0.0532,0,0.1058,-0.0081,0.1562,-0.024l0.0039,0.0138l3.3632,-0.9529l0.0126,-9.6963l2,-2.0155L12.5239,0.3538zM2.7164,3.5202l-0.913,-1.1734l6.7268,-1.1997l1.0715,1.4695L2.7164,3.5202zM13.2441,3.7361l-1.8745,-0.8801l1.3064,-1.2598l1.7117,0.9875L13.2441,3.7361z" fill="#6D6E71"/>
    <path d="M9.5455,11c0,2.5104,-2.0351,4.5455,-4.5455,4.5455S0.4545,13.5104,0.4545,11S2.4896,6.4545,5,6.4545S9.5455,8.4896,9.5455,11zM5,10.0909c-0.5021,0,-0.9091,0.407,-0.9091,0.9091s0.407,0.9091,0.9091,0.9091s0.9091,-0.407,0.9091,-0.9091S5.5021,10.0909,5,10.0909z" fill="#FFFFFF" opacity="0.5"/>
    <path d="M5,16c-2.757,0,-5,-2.243,-5,-5s2.243,-5,5,-5s5,2.243,5,5S7.757,16,5,16zM5,6.9091C2.7443,6.9091,0.9091,8.7443,0.9091,11S2.7443,15.0909,5,15.0909S9.0909,13.2557,9.0909,11S7.2557,6.9091,5,6.9091zM5,12.3636c-0.7519,0,-1.3636,-0.6117,-1.3636,-1.3636S4.2481,9.6364,5,9.6364S6.3636,10.2481,6.3636,11S5.7519,12.3636,5,12.3636zM5,10.5455c-0.2506,0,-0.4545,0.2039,-0.4545,0.4545s0.2039,0.4545,0.4545,0.4545s0.4545,-0.2039,0.4545,-0.4545S5.2506,10.5455,5,10.5455z" fill="#6485C3"/>
    <path d="M4.0578,14.0598l-0.4109,-0.1943c-0.6621,-0.3131,-1.1991,-0.8502,-1.5122,-1.5123l-0.1943,-0.4109l0.8219,-0.3886l0.1943,0.411c0.2234,0.4724,0.6066,0.8556,1.079,1.079l0.4109,0.1943L4.0578,14.0598zM7.2377,10.4466l-0.1944,-0.4109c-0.2234,-0.4721,-0.6065,-0.8552,-1.0788,-1.0785l-0.4109,-0.1943l0.3887,-0.8218l0.4109,0.1943c0.6619,0.313,1.1988,0.8498,1.5119,1.5116l0.1944,0.4109L7.2377,10.4466z" fill="#6485C3" opacity="0.6"/>
  </g>
</svg>
