<?xml version="1.0" standalone="no"?>
<!DOCTYPE svg PUBLIC "-//W3C//DTD SVG 1.1//EN" "http://www.w3.org/Graphics/SVG/1.1/DTD/svg11.dtd" >
<!--
2022-3-24: Created with FontForge (http://fontforge.org)
-->
<svg xmlns="http://www.w3.org/2000/svg" xmlns:xlink="http://www.w3.org/1999/xlink" version="1.1">
<metadata>
Created by FontForge 20201107 at Thu Mar 24 12:25:14 2022
 By Marc
Copyright (c) 2022, Marc
</metadata>
<defs>
<font id="Icons-Regular" horiz-adv-x="240" >
  <font-face 
    font-family="Icons"
    font-weight="400"
    font-stretch="normal"
    units-per-em="240"
    panose-1="2 0 5 9 0 0 0 0 0 0"
    ascent="180"
    descent="-60"
    bbox="-2.93665 -61 243.043 182.12"
    underline-thickness="50"
    underline-position="-100"
    unicode-range="U+E000-E0D8"
  />
    <missing-glyph />
    <glyph glyph-name="uniE000" unicode="&#xe000;" 
d="M180 -50v12.375c0 9.73438 7.89062 17.625 17.625 17.625h2.375v19.5302c-26.6266 17.2253 -53.7487 25.6095 -79.5391 25.6095c-25.9016 0 -54.0156 -8.45694 -80.4609 -25.8321v-19.3075h2.375c9.73438 0 17.625 -7.89062 17.625 -17.625v-12.375h-60v12.375
c0 9.73438 7.89062 17.625 17.625 17.625h2.375l3.55271e-15 150h-20v30h240v-30h-20v-150h2.375c9.73438 0 17.625 -7.89062 17.625 -17.625v-12.375h-60zM200 22.6765v107.324h-20v-97.5381c6.70998 -2.7969 13.3909 -6.05964 20 -9.78542zM170 36.2793v93.7207h-20
v-88.1576c6.64678 -1.39302 13.3273 -3.2483 20 -5.56311zM140 43.5933v86.4067h-40v-86.5213c6.91988 1.00086 13.7619 1.50279 20.4561 1.50279c6.43283 0 12.9612 -0.463601 19.5439 -1.3881zM90 41.6952v88.3048h-20v-93.8814
c6.66633 2.30848 13.3532 4.1682 20 5.57658zM60 32.3098v97.6902h-20v-107.485c6.57158 3.72553 13.2595 6.99136 20 9.79475z" />
    <glyph glyph-name="uniE001" unicode="&#xe001;" 
d="M130 10v10h40v-10h-40zM70 10v10h40v-10h-40zM130 30v10h40v-10h-40zM70 30v10h40v-10h-40zM130 50v10h40v-10h-40zM70 50v10h40v-10h-40zM130 70v10h40v-10h-40zM70 70v10h40v-10h-40zM130 90v10h40v-10h-40zM70 90v10h40v-10h-40zM130 110v10h40v-10h-40zM70 110v10h40
v-10h-40zM130 130v10h40v-10h-40zM70 130v10h40v-10h-40zM140 -50v10v20h-40v-20v-10h40zM30 -40v220h180v-220h18v-20h-18h-60h-60h-60h-17v20h17zM50 -40l40 -7.10543e-15v30h60v-30h40v200h-140v-200z" />
    <glyph glyph-name="uniE002" unicode="&#xe002;" 
d="M70 10v10h100v-10h-100zM70 30v10h100v-10h-100zM70 50v10h100v-10h-100zM70 70v10h100v-10h-100zM70 90v10h100v-10h-100zM70 110v10h100v-10h-100zM70 130v10h100v-10h-100zM140 -50v10v20h-40v-20v-10h40zM30 -40v220h180v-220h18v-20h-18h-60h-60h-60h-17v20h17z
M50 -40l40 -7.10543e-15v30h60v-30h40v200h-140v-200z" />
    <glyph glyph-name="uniE003" unicode="&#xe003;" 
d="M160 5v15h15v-15h-15zM130 5v15h15v-15h-15zM100 5v15h15v-15h-15zM70 5v15h15v-15h-15zM160 35v15h15v-15h-15zM130 35v15h15v-15h-15zM100 35v15h15v-15h-15zM70 35v15h15v-15h-15zM160 65v15h15v-15h-15zM130 65v15h15v-15h-15zM100 65v15h15v-15h-15zM70 65v15h15
v-15h-15zM160 95v15h15v-15h-15zM130 95v15h15v-15h-15zM100 95v15h15v-15h-15zM70 95v15h15v-15h-15zM160 125v15h15v-15h-15zM130 125v15h15v-15h-15zM100 125v15h15v-15h-15zM70 125v15h15v-15h-15zM140 -50v10v20h-40v-20v-10h40zM30 -40v220h180v-220h18v-20h-18h-60
h-60h-60h-17v20h17zM50 -40l40 -7.10543e-15v30h60v-30h40v200h-140v-200z" />
    <glyph glyph-name="uniE004" unicode="&#xe004;" 
d="M140 -5v15h15v-15h-15zM110 -5v15h15v-15h-15zM80 -5v15h15v-15h-15zM140 25v15h15v-15h-15zM110 25v15h15v-15h-15zM80 25v15h15v-15h-15zM140 55v15h15v-15h-15zM110 55v15h15v-15h-15zM80 55v15h15v-15h-15zM140 85v15h15v-15h-15zM110 85v15h15v-15h-15zM80 85v15h15
v-15h-15zM140 115v15h15v-15h-15zM110 115v15h15v-15h-15zM80 115v15h15v-15h-15zM170 -40v190h-110v-190h110zM30 -60v20h10v210h35v10h80v-10h35v-210h10v-20h-170z" />
    <glyph glyph-name="uniE005" unicode="&#xe005;" 
d="M134 123c0 -7.73242 -6.26758 -14 -14 -14s-14 6.26758 -14 14s6.26758 14 14 14s14 -6.26758 14 -14zM190 -20v100h-10v-100h10zM40 -40h160l-0.114258 10h-159.886v-10zM50 80v-100h10v100h-10zM119.944 153.631l-90.9785 -53.6309h181.956zM240 80h-30v-100h10
l0.226562 -10h19.7734v-30h-23.6553h-193.345h-23v30h20v10h10v100h-30v26.583l120 71.7246l120 -71.7246v-26.583zM80 80h-10v-100h10v100zM90 80v-100h10v100h-10zM150 80h-10v-100h10v100zM160 80v-100h10v100h-10zM130 80h-20v-100h20v100z" />
    <glyph glyph-name="uniE006" unicode="&#xe006;" 
d="M175 -15h-15v15h15v-15zM145 -15h-15v15h15v-15zM115 -15h-15v15h15v-15zM85 -15h-15v15h15v-15zM175 15h-15v15h15v-15zM145 15h-15v15h15v-15zM115 15h-15v15h15v-15zM85 15h-15v15h15v-15zM175 45h-15v15h15v-15zM145 105h-15v15h15v-15zM115 105h-15v15h15v-15z
M145 75h-15v15h15v-15zM115 75h-15v15h15v-15zM145 45h-15v15h15v-15zM115 45h-15v15h15v-15zM85 45h-15v15h15v-15zM15 -60v20h15v150h30v34.4873l59.7207 34.8496l60.2793 -34.8174v-34.5195h30v-150h15v-20h-15h-180h-15zM50 -40h140v130h-30v43.4805l-40.2207 22.1826
l-39.7793 -22.1504v-43.5127h-30v-130z" />
    <glyph glyph-name="uniE007" unicode="&#xe007;" 
d="M160 -20v10h40v-10h-40zM100 -20v10h40v-10h-40zM40 -20v10h40v-10h-40zM160 0v10h40v-10h-40zM100 0v10h40v-10h-40zM40 0v10h40v-10h-40zM160 20v10h40v-10h-40zM100 20v10h40v-10h-40zM40 20v10h40v-10h-40zM220 -40v121.967l-57 -37.5127v37.5029l-59 -37.5v37.3125
l-56.8652 -37.5107l-5.58789 115.741h-13.2031l-6.99707 -200h198.653zM0.652344 -60l8.36328 240h51.627l4.87402 -100.312l58.4834 38.542v-37.6885l59 37.5v-37.4971l57 37.5137v-178.059h-239.348z" />
    <glyph glyph-name="uniE008" unicode="&#xe008;" 
d="M119.999 121.67c0.347656 -0.0234375 0.705078 -0.0371094 1.07422 -0.0371094c3.3457 0 7.36035 1 12.667 2.41406c6.21582 1.6543 13.2461 3.52637 21.2549 3.52637c1.67969 0 3.35352 -0.0849609 10.0039 -0.254883v19.6055
c-6.45996 0.225586 -7.93945 0.334961 -9.47754 0.334961c-5.33301 0 -10.499 -1.3457 -15.9688 -2.76953c-5.39062 -1.4043 -11.498 -2.99414 -17.8643 -2.99414c-0.566406 0 -1.13086 0.0126953 -1.68945 0.0380859v-19.8633zM185 -10v-15h-15v15h15zM155 -10v-15h-15v15
h15zM125 -10v-15h-15v15h15zM95 -10v-15h-15v15h15zM65 -25h-15v15h15v-15zM185 20v-15h-15v15h15zM155 20v-15h-15v15h15zM125 20v-15h-15v15h15zM95 20v-15h-15v15h15zM65 5h-15v15h15v-15zM185 50v-15h-15v15h15zM155 50v-15h-15v15h15zM125 50v-15h-15v15h15zM95 50v-15
h-15v15h15zM65 35h-15v15h15v-15zM200 -40v110h-170v-110h170zM0 -60v20h10v110h-10v20h100v76h20v-8.92773c0.550781 -0.0605469 1.12207 -0.0888672 1.71777 -0.0888672c3.45508 0 7.6582 1.02246 12.793 2.35938c6.1416 1.59863 13.0986 3.40918 21.0586 3.40918
c6.28613 0 12.2051 -1.12793 18.0947 -3.44824l6.33594 -2.49512v-51.9141l-13.9062 5.90039c-3.61816 1.53516 -7.26465 2.28125 -11.1484 2.28125c-5.33984 0 -10.5449 -1.38574 -16.0557 -2.85449c-5.37109 -1.43066 -11.4561 -3.05078 -17.8262 -3.05078
c-0.356445 0 -0.710938 0.00488281 -1.06348 0.0146484v-17.1855h110v-20h-10v-110h10v-20h-230z" />
    <glyph glyph-name="uniE009" unicode="&#xe009;" 
d="M150 0v-10h-60v10h60zM150 20v-10h-60v10h60zM150 40v-10h-60v10h60zM150 60v-10h-60v10h60zM150 80v-10h-60v10h60zM150 100v-10h-60v10h60zM150 120v-10h-60v10h60zM150 130h-60v10h60v-10zM0 -60v20h15v27.3138c-8.30388 3.6802 -12.5 12.948 -12.5 27.6862
c0 13.8838 5.21387 52 22 52s22 -38.1162 22 -52c0 -14.1344 -3.85931 -23.2374 -11.5 -27.2057v-27.7943h25v220h120v-220h25v27.3138c-8.30388 3.6802 -12.5 12.948 -12.5 27.6862c0 13.8838 5.21387 52 22 52s22 -38.1162 22 -52
c0 -14.1344 -3.85931 -23.2374 -11.5 -27.2057v-27.7943h15v-20h-60h-120h-60zM21.6729 45.7285c-2.38574 -6.72266 -5.17285 -18.8047 -5.17285 -30.7285c0 -6.78516 0.850586 -11.1787 2.60156 -13.4316c1.6084 -2.06836 3.70898 -2.06836 5.39844 -2.06836
s3.79004 0 5.39746 2.06738c1.75098 2.25391 2.60254 6.64648 2.60254 13.4326c0 11.9219 -2.78711 24.0049 -5.17285 30.7285l-2.82715 7.9668zM211.673 45.7285c-2.38574 -6.72266 -5.17285 -18.8047 -5.17285 -30.7285c0 -6.78516 0.850586 -11.1787 2.60156 -13.4316
c1.6084 -2.06836 3.70898 -2.06836 5.39844 -2.06836s3.79004 0 5.39746 2.06738c1.75098 2.25391 2.60254 6.64648 2.60254 13.4326c0 11.9219 -2.78711 24.0049 -5.17285 30.7285l-2.82715 7.9668zM80 -40h80v200h-80v-200z" />
    <glyph glyph-name="uniE00A" unicode="&#xe00a;" 
d="M190 140v10h-60v-10h60zM190 120v10h-60v-10h60zM190 100v10h-60v-10h60zM190 80v10h-60v-10h60zM190 60v10h-60v-10h60zM190 40v10h-60v-10h60zM190 20v10h-60v-10h60zM190 0v10h-60v-10h60zM110 140v10h-60v-10h60zM110 120v10h-60v-10h60zM110 100v10h-60v-10h60z
M110 80v10h-60v-10h60zM110 60v10h-60v-10h60zM110 40v10h-60v-10h60zM110 20v10h-60v-10h60zM110 0v10h-60v-10h60zM210 -40h18v-20h-88v40h-40v-40h-88v20h18v220h180v-220z" />
    <glyph glyph-name="uniE00B" unicode="&#xe00b;" 
d="M180 140v10h-120v-10h120zM180 120v10h-120v-10h120zM180 100v10h-120v-10h120zM180 80v10h-120v-10h120zM180 60v10h-120v-10h120zM180 40v10h-120v-10h120zM180 20v10h-120v-10h120zM180 0v10h-120v-10h120zM210 -40h18v-20h-88v40h-40v-40h-88v20h18v220h180v-220z
" />
    <glyph glyph-name="uniE00C" unicode="&#xe00c;" 
d="M165 145v15h-15v-15h15zM165 115v15h-15v-15h15zM165 85v15h-15v-15h15zM165 55v15h-15v-15h15zM165 25v15h-15v-15h15zM165 -5v15h-15v-15h15zM135 145v15h-15v-15h15zM135 115v15h-15v-15h15zM135 85v15h-15v-15h15zM135 55v15h-15v-15h15zM135 25v15h-15v-15h15z
M135 -5v15h-15v-15h15zM105 145v15h-15v-15h15zM105 115v15h-15v-15h15zM105 85v15h-15v-15h15zM105 55v15h-15v-15h15zM105 25v15h-15v-15h15zM105 -5v15h-15v-15h15zM75 145v15h-15v-15h15zM75 115v15h-15v-15h15zM75 85v15h-15v-15h15zM75 55v15h-15v-15h15zM75 25v15
h-15v-15h15zM75 -5v15h-15v-15h15zM190 -40h18v-20h-78v40h-40v-40h-78v20h18v220h160v-220z" />
    <glyph glyph-name="uniE00D" unicode="&#xe00d;" 
d="M155 125v15h-15v-15h15zM155 95v15h-15v-15h15zM155 65v15h-15v-15h15zM155 35v15h-15v-15h15zM155 5v15h-15v-15h15zM125 125v15h-15v-15h15zM125 95v15h-15v-15h15zM125 65v15h-15v-15h15zM125 35v15h-15v-15h15zM125 5v15h-15v-15h15zM95 125v15h-15v-15h15zM95 95v15
h-15v-15h15zM95 65v15h-15v-15h15zM95 35v15h-15v-15h15zM95 5v15h-15v-15h15zM180 -40h10v-20h-150v20h10v210h35v10h60v-10h35v-210z" />
    <glyph glyph-name="uniE00E" unicode="&#xe00e;" 
d="M190 -20v100h-10v-100h10zM170 -20v100h-10v-100h10zM140 -20h10v100h-10v-100zM110 -20h20v100h-20v-100zM90 -20h10v100h-10v-100zM70 -20h10v100h-10v-100zM60 -20v100h-10v-100h10zM120 134c-9.38867 0 -17 -7.61133 -17 -17s7.61133 -17 17 -17s17 7.61133 17 17
s-7.61133 17 -17 17zM240 80h-30v-100h10l0.226562 -20h19.7734v-20h-23.6553h-193.345h-23v20h20v20h10v100h-30v16.583l120 71.7246l120 -71.7246v-16.583z" />
    <glyph glyph-name="uniE00F" unicode="&#xe00f;" 
d="M165 65v15h-15v-15h15zM165 35v15h-15v-15h15zM165 5v15h-15v-15h15zM165 -25v15h-15v-15h15zM135 125v15h-15v-15h15zM135 95v15h-15v-15h15zM135 65v15h-15v-15h15zM135 35v15h-15v-15h15zM135 5v15h-15v-15h15zM135 -25v15h-15v-15h15zM105 125v15h-15v-15h15zM105 95
v15h-15v-15h15zM105 65v15h-15v-15h15zM105 35v15h-15v-15h15zM105 5v15h-15v-15h15zM105 -25v15h-15v-15h15zM75 65v15h-15v-15h15zM75 35v15h-15v-15h15zM75 5v15h-15v-15h15zM75 -25v15h-15v-15h15zM190 -40h15v-20h-15h-160h-15v20h15v150h30v34.4873l49.7207 34.8496
l50.2793 -34.8174v-34.5195h30v-150z" />
    <glyph glyph-name="uniE010" unicode="&#xe010;" 
d="M210 20v10h-50v-10h50zM210 -20v10h-50v-10h50zM145 -20v10h-50v-10h50zM80 -20v10h-50v-10h50zM210 0v10h-50v-10h50zM145 20v10h-50v-10h50zM145 0v10h-50v-10h50zM80 20v10h-50v-10h50zM80 0v10h-50v-10h50zM180 62.4326l60 37.5137v-159.946h-239.348l5.36328 240
h42.6406l4.88867 -118.404l63.4551 38.5195v-37.6855l63 37.5v-37.4971z" />
    <glyph glyph-name="uniE011" unicode="&#xe011;" 
d="M185 35v15h-15v-15h15zM185 5v15h-15v-15h15zM185 -25v15h-15v-15h15zM155 35v15h-15v-15h15zM155 5v15h-15v-15h15zM155 -25v15h-15v-15h15zM125 35v15h-15v-15h15zM125 5v15h-15v-15h15zM125 -25v15h-15v-15h15zM95 35v15h-15v-15h15zM95 5v15h-15v-15h15zM95 -25v15
h-15v-15h15zM65 35v15h-15v-15h15zM65 5v15h-15v-15h15zM65 -25v15h-15v-15h15zM230 60h-20v-100h20v-20h-230v20h20v100h-20v20h100v80h20v-10.9277c0.550781 -0.0605469 1.12207 -0.0888672 1.71777 -0.0888672c3.45508 0 7.6582 1.02246 12.793 2.35938
c6.1416 1.59863 13.0986 3.40918 21.0586 3.40918c6.28613 0 12.2051 -1.12793 18.0947 -3.44824l6.33594 -2.49512v-51.9141l-13.9062 5.90039c-3.61816 1.53516 -7.26465 2.28125 -11.1484 2.28125c-5.33984 0 -10.5449 -1.38574 -16.0557 -2.85449
c-5.37109 -1.43066 -11.4561 -3.05078 -17.8262 -3.05078c-0.356445 0 -0.710938 0.00488281 -1.06348 0.0146484v-19.1855h110v-20z" />
    <glyph glyph-name="uniE012" unicode="&#xe012;" 
d="M0 -60v20h15v24.4731c-7.878 3.37002 -14.5 11.7797 -14.5 30.5269c0 11.6182 4.24316 55 25 55s25 -43.3818 25 -55c0 -19.5355 -7.19057 -27.8458 -15.5 -30.9256v-24.0744h25v220h120v-220h25v24.0744c-8.30943 3.07985 -15.5 11.3902 -15.5 30.9256
c0 11.6182 4.24316 55 25 55s25 -43.3818 25 -55c0 -18.7472 -6.622 -27.1569 -14.5 -30.5269v-24.4731h15v-20h-60h-120h-60zM160 150v10h-80v-10h80zM160 130v10h-80v-10h80zM160 110v10h-80v-10h80zM160 90v10h-80v-10h80zM160 70v10h-80v-10h80zM160 50v10h-80v-10h80z
M160 30v10h-80v-10h80zM160 10v10h-80v-10h80zM160 -10v10h-80v-10h80zM160 -30v10h-80v-10h80z" />
    <glyph glyph-name="uniE013" unicode="&#xe013;" 
d="M195 -10v-15h-15v15h15zM170 -10v-15h-15v15h15zM195 20v-15h-15v15h15zM170 20v-15h-15v15h15zM195 50v-15h-15v15h15zM170 50v-15h-15v15h15zM195 80v-15h-15v15h15zM170 80v-15h-15v15h15zM195 110v-15h-15v15h15zM170 110v-15h-15v15h15zM75 -10v-15h-15v15h15z
M50 -10v-15h-15v15h15zM75 20v-15h-15v15h15zM50 20v-15h-15v15h15zM75 50v-15h-15v15h15zM50 50v-15h-15v15h15zM75 80v-15h-15v15h15zM50 80v-15h-15v15h15zM75 110v-15h-15v15h15zM50 110v-15h-15v15h15zM75 140v-15h-15v15h15zM50 125h-15v15h15v-15zM90 -40v200h-70
v-200h70zM0 -60v240h110v-240h-110zM210 -40v170h-70v-170h70zM120 -60v210h110v-210h-110z" />
    <glyph glyph-name="uniE014" unicode="&#xe014;" 
d="M200 -10v-10h-40v10h40zM200 10v-10h-40v10h40zM200 30v-10h-40v10h40zM200 50v-10h-40v10h40zM200 70v-10h-40v10h40zM200 90v-10h-40v10h40zM200 100h-40v10h40v-10zM80 -10v-10h-40v10h40zM80 10v-10h-40v10h40zM80 30v-10h-40v10h40zM80 50v-10h-40v10h40zM80 70v-10
h-40v10h40zM80 90v-10h-40v10h40zM80 110v-10h-40v10h40zM80 120h-40v10h40v-10zM150 -40h60v170h-60v-170zM30 -40h60v190h-60v-190zM230 -40h10v-20h-10h-100h-20h-100h-10v20h10v210h100v-210h20v190h100v-190z" />
    <glyph glyph-name="uniE015" unicode="&#xe015;" 
d="M185 -10v-15h-15v15h15zM155 -25h-15v15h15v-15zM185 20v-15h-15v15h15zM155 5h-15v15h15v-15zM185 50v-15h-15v15h15zM155 35h-15v15h15v-15zM185 80v-15h-15v15h15zM155 65h-15v15h15v-15zM185 110v-15h-15v15h15zM155 95h-15v15h15v-15zM185 140v-15h-15v15h15z
M155 125h-15v15h15v-15zM100 -40v159.73l-50 -22v-7.73047h40v-10h-40v-10h40v-10h-40v-10h40v-10h-40v-10h40v-10h-40v-10l40 -3.55271e-15v-10l-40 -4.44089e-16v-10l40 -3.55271e-15v-10h-40v-20h50zM200 -40v200h-80v-200h80zM10 -60v20h20v151.271l70 30v38.7285h120
v-220h20v-20h-230z" />
    <glyph glyph-name="uniE016" unicode="&#xe016;" 
d="M195 -10v-15h-15v15h15zM165 -10v-15h-15v15h15zM195 20v-15h-15v15h15zM165 20v-15h-15v15h15zM195 50v-15h-15v15h15zM165 50v-15h-15v15h15zM195 80v-15h-15v15h15zM165 80v-15h-15v15h15zM195 110v-15h-15v15h15zM165 110v-15h-15v15h15zM195 140v-15h-15v15h15z
M165 140v-15h-15v15h15zM135 125h-15v15h15v-15zM105 0v-10h-60v10h60zM105 20v-10h-60v10h60zM105 40v-10h-60v10h60zM105 60v-10h-60v10h60zM105 70h-60v10h60v-10zM0 -60v20h10v160h70v60h150v-220h10v-20h-10h-100h-45h-75h-10zM30 -40h55h35v140h-90v-140zM100 117v-7
h30v-150h80v200h-110v-40v-3z" />
    <glyph glyph-name="uniE017" unicode="&#xe017;" 
d="M215 115v15h-15v-15h15zM215 85v15h-15v-15h15zM215 55v15h-15v-15h15zM215 25v15h-15v-15h15zM215 -5v15h-15v-15h15zM215 -35v15h-15v-15h15zM185 115v15h-15v-15h15zM185 85v15h-15v-15h15zM185 55v15h-15v-15h15zM185 25v15h-15v-15h15zM185 -5v15h-15v-15h15z
M185 -35v15h-15v-15h15zM155 115v15h-15v-15h15zM155 85v15h-15v-15h15zM155 55v15h-15v-15h15zM155 25v15h-15v-15h15zM155 -5v15h-15v-15h15zM155 -35v15h-15v-15h15zM120 150h110v-210h-110v210zM20 -20v-15h15v15h-15zM20 10v-15h15v15h-15zM20 40v-15h15v15h-15zM20 70
v-15h15v15h-15zM20 100v-15h15v15h-15zM20 130v-15h15v15h-15zM20 160v-15h15v15h-15zM50 -20v-15h15v15h-15zM50 10v-15h15v15h-15zM50 40v-15h15v15h-15zM50 70v-15h15v15h-15zM50 100v-15h15v15h-15zM50 130v-15h15v15h-15zM50 160v-15h15v15h-15zM80 -20v-15h15v15h-15z
M80 10v-15h15v15h-15zM80 40v-15h15v15h-15zM80 70v-15h15v15h-15zM80 100v-15h15v15h-15zM80 130v-15h15v15h-15zM80 160v-15h15v15h-15zM0 -60v240h110v-240h-110z" />
    <glyph glyph-name="uniE018" unicode="&#xe018;" 
d="M120 130h100v-190h-100v190zM10 -60v230h100v-230h-100z" />
    <glyph glyph-name="uniE019" unicode="&#xe019;" 
d="M205 145v15h-15v-15h15zM205 115v15h-15v-15h15zM205 85v15h-15v-15h15zM205 55v15h-15v-15h15zM205 25v15h-15v-15h15zM205 -5v15h-15v-15h15zM205 -35v15h-15v-15h15zM175 145v15h-15v-15h15zM175 115v15h-15v-15h15zM175 85v15h-15v-15h15zM175 55v15h-15v-15h15z
M175 25v15h-15v-15h15zM175 -5v15h-15v-15h15zM175 -35v15h-15v-15h15zM145 145v15h-15v-15h15zM145 115v15h-15v-15h15zM145 85v15h-15v-15h15zM145 55v15h-15v-15h15zM145 25v15h-15v-15h15zM145 -5v15h-15v-15h15zM145 -35v15h-15v-15h15zM80 80v10h-40v-10h40zM80 60v10
h-40v-10h40zM80 40v10h-40v-10h40zM80 20v10h-40v-10h40zM80 0v10h-40v-10h40zM80 -20v10h-40v-10h40zM220 -40h10v-20h-220v20h10v151.271l80 32v-183.271h10v220h110v-220z" />
    <glyph glyph-name="uniE01A" unicode="&#xe01a;" 
d="M215 145v15h-15v-15h15zM215 115v15h-15v-15h15zM215 85v15h-15v-15h15zM215 55v15h-15v-15h15zM215 25v15h-15v-15h15zM215 -5v15h-15v-15h15zM215 -35v15h-15v-15h15zM185 145v15h-15v-15h15zM185 115v15h-15v-15h15zM185 85v15h-15v-15h15zM185 55v15h-15v-15h15z
M185 25v15h-15v-15h15zM185 -5v15h-15v-15h15zM185 -35v15h-15v-15h15zM155 145v15h-15v-15h15zM155 115v15h-15v-15h15zM155 85v15h-15v-15h15zM155 55v15h-15v-15h15zM155 25v15h-15v-15h15zM155 -5v15h-15v-15h15zM155 -35v15h-15v-15h15zM125 145v15h-15v-15h15zM90 80
v10h-60v-10h60zM90 60v10h-60v-10h60zM90 40v10h-60v-10h60zM90 20v10h-60v-10h60zM90 0v10h-60v-10h60zM90 -20v10h-60v-10h60zM230 -40h10v-20h-240v20h10v150h100v-150h10v160h-30v60h140v-220z" />
    <glyph glyph-name="uniE01B" unicode="&#xe01b;" 
d="M160 63.3115v59.6885h-27.3789l-12.6211 -63h36.6885c1.82812 0 3.31152 1.4834 3.31152 3.31152zM92.209 -7c-8.95996 0 -16.25 -7.29004 -16.25 -16.25s7.29004 -16.25 16.25 -16.25s16.25 7.29004 16.25 16.25s-7.29004 16.25 -16.25 16.25zM92.209 -59.5
c-19.9883 0 -36.25 16.2617 -36.25 36.25c0 1.09521 0.0488213 2.17923 0.144402 3.25h-8.92708c-4.71665 -13.5059 -16.3315 -23.9459 -34.5835 -31.0664l-2.3291 -0.908203l-7.26758 18.6328l2.3291 0.90918c13.583 5.29785 21.2676 12.0889 23.4922 20.7578
c3.56152 13.8818 -5.7002 34.1572 -27.5293 60.2607l-1.60449 1.91699l15.3428 12.8301l1.60352 -1.91699c12.5499 -15.0071 21.4747 -28.6235 26.8369 -41.0029l16.5332 13.2261v18.8608c0 9.66504 7.83496 17.5 17.5 17.5h28.0913l14.7681 62.6523
c1.1875 4.3252 5.15332 7.34766 9.64062 7.34766h25h5h42.5938c9.61328 0 17.4062 -7.79297 17.4062 -17.4062v-96.2753c11.7906 -8.6516 19.459 -22.6064 19.459 -38.3185c0 -26.1914 -21.3086 -47.5 -47.5 -47.5c-22.4062 0 -41.239 15.5946 -46.2144 36.5h-17.2864
c0 -0.0832679 0.000848374 -0.166601 0.000848374 -0.25c0 -19.9883 -16.2617 -36.25 -36.25 -36.25zM191.959 15.5c-15.1641 0 -27.5 -12.3359 -27.5 -27.5s12.3359 -27.5 27.5 -27.5s27.5 12.3359 27.5 27.5s-12.3359 27.5 -27.5 27.5zM170 119.925v-53.614
c0 -12.875 -2.43652 -16.3125 -15.3135 -16.3125h-41.1865c-0.0461201 0 -0.092212 0.000976562 -0.138273 0.000976562h-33.3617v-39.1154c3.81652 1.36918 7.92725 2.11538 12.209 2.11538c12.4942 0 23.5324 -6.35383 30.0531 -16l23.0522 8.88178e-16
c4.21759 21.9029 23.5296 38.5 46.6448 38.5c3.09066 0 6.11333 -0.296715 9.04102 -0.863155v85.3632zM49.4275 -9l9.45009 -1.77636e-15c0.34611 0.806491 0.720667 1.59799 1.1224 2.37324v25.4537l-12.4651 -9.97171c1.67007 -6.29297 2.29761 -12.2365 1.8926 -17.8552
z" />
    <glyph glyph-name="uniE01C" unicode="&#xe01c;" 
d="M160 63.3115v59.6885h-27.3789l-12.6211 -63h36.6885c1.82812 0 3.31152 1.4834 3.31152 3.31152zM2.99609 -33.3418l2.3291 0.90918c13.583 5.29785 21.2676 12.0889 23.4922 20.7578c3.56152 13.8818 -4.7002 34.1572 -26.5293 60.2607l-1.60449 1.91699
l15.3428 12.8301l1.60352 -1.91699c12.4403 -14.876 21.0991 -28.3854 26.2429 -40.6781l16.1272 12.9013v18.8608c0 9.66504 7.83496 17.5 17.5 17.5h28.0913l14.7681 62.6523c1.1875 4.3252 5.15332 7.34766 9.64062 7.34766h25h5h42.5938
c9.61328 0 17.4062 -7.79297 17.4062 -17.4062v-107.772c10.0537 -5.61177 17.4739 -15.3619 19.6758 -27.1446c2.22559 -11.9102 -0.873047 -24.0078 -8.5 -33.1934c-7.64355 -9.2041 -18.8643 -14.4834 -30.7822 -14.4834h-100.787
c-11.918 0 -23.1377 5.2793 -30.7812 14.4834c-5.98729 7.21004 -9.18459 16.2159 -9.20594 25.5166h-12.4429c-4.71665 -13.5059 -16.3315 -23.9459 -34.5835 -31.0664l-2.3291 -0.908203zM149.625 -34c-7.53613 0 -13.667 6.13086 -13.667 13.667
s6.13086 13.667 13.667 13.667s13.667 -6.13086 13.667 -13.667s-6.13086 -13.667 -13.667 -13.667zM199.625 -34c-7.53613 0 -13.667 6.13086 -13.667 13.667s6.13086 13.667 13.667 13.667s13.667 -6.13086 13.667 -13.667s-6.13086 -13.667 -13.667 -13.667zM100.625 -34
c-7.53613 0 -13.667 6.13086 -13.667 13.667s6.13086 13.667 13.667 13.667s13.667 -6.13086 13.667 -13.667s-6.13086 -13.667 -13.667 -13.667zM99.2383 0c-6.05859 0 -11.6719 -2.75391 -15.4043 -7.55371c-3.72656 -4.7959 -4.98535 -10.999 -3.45117 -17.0215
c2.16504 -8.49316 9.99219 -15.4248 19.0361 -15.4248h101.163c9.04297 0 16.8711 6.93164 19.0352 15.4248c1.53418 6.02148 0.275391 12.2256 -3.45117 17.0205c-3.73145 4.80078 -9.3457 7.55469 -15.4043 7.55469h-101.523zM170 119.925v-53.614
c0 -12.875 -2.43652 -16.3125 -15.3135 -16.3125h-41.1865c-0.0461201 0 -0.092212 0.000976562 -0.138273 0.000976562h-33.3617v-35.1788c5.92742 3.30868 12.7703 5.17881 19.999 5.17881h100.002c0.333848 0 0.666873 -0.00398883 0.999023 -0.011924v100.012z
M49.4669 -9l10.5331 -1.77636e-15v27.8269l-12.2002 -9.75981c1.59052 -6.37149 2.13117 -12.3854 1.6671 -18.0671zM60 -9h1.09711c0.0599047 0.214484 0.121577 0.428174 0.184999 0.641055z" />
    <glyph glyph-name="uniE01D" unicode="&#xe01d;" 
d="M115.315 80l14.2041 58.4336c1.02539 3.89648 4.41309 6.56641 8.25684 6.56641h31.6826v-45.0176c1 -11.0195 -7.63574 -19.9824 -18.251 -19.9824h-35.8926zM135.546 -7.86719c-4.95801 19.0576 -22.1631 32.3672 -41.8369 32.3672
c-6.15234 0 -12.1143 -1.2832 -17.7217 -3.81445l-3.52832 -1.5918v0.0947465l-24.0161 -12.4901c1.4878 -5.49289 2.18436 -10.7203 2.09629 -15.6984l10.3333 1.77636e-15c4.20937 14.1506 17.3376 24.5 32.8365 24.5c18.8848 0 34.25 -15.3652 34.25 -34.25
s-15.3652 -34.25 -34.25 -34.25c-18.1289 0 -33.0143 14.1598 -34.1769 32h-10.8642c-4.36432 -14.2349 -16.153 -25.1844 -35.0751 -32.5664l-2.3291 -0.908203l-7.26758 18.6328l2.3291 0.90918c13.583 5.29785 21.2676 12.0889 23.4922 20.7578
c3.56152 13.8818 -5.7002 34.1572 -27.5293 60.2607l-1.60449 1.91699l15.3428 12.8301l1.60352 -1.91699c12.5162 -14.9668 21.4267 -28.5503 26.7936 -40.9031l28.0355 14.5805v19.9066c0 9.64941 7.85059 17.5 17.5 17.5h68.5547l0.0917969 0.359375l1.47559 0.348633
c11.8076 2.79004 17.3779 13.8398 20.3779 26.2754v48.0166h29.5938c9.59863 0 17.4062 -7.80859 17.4062 -17.4062v-91.1533l-3.82031 2.375c-8.61426 5.35449 -18.5312 8.18555 -28.6797 8.18555c-29.9121 0 -54.3574 -24.3359 -54.4941 -54.249zM93.709 -7.44629
c-6.2334 0 -11.3037 -5.07031 -11.3037 -11.3037s5.07031 -11.3037 11.3037 -11.3037s11.3037 5.07031 11.3037 11.3037s-5.07031 11.3037 -11.3037 11.3037zM194.959 14.1318c-11.9268 0 -21.6318 -9.7041 -21.6318 -21.6318s9.7041 -21.6318 21.6318 -21.6318
s21.6318 9.7041 21.6318 21.6318s-9.70508 21.6318 -21.6318 21.6318zM194.959 -52.541c-24.8359 0 -45.041 20.2051 -45.041 45.041s20.2051 45.041 45.041 45.041s45.041 -20.2051 45.041 -45.041s-20.2051 -45.041 -45.041 -45.041z" />
    <glyph glyph-name="uniE01E" unicode="&#xe01e;" 
d="M115.315 80l14.2041 53.4336c1.02539 3.89648 4.41309 6.56641 8.25684 6.56641h31.6826v-40.0176c1 -11.0195 -7.63574 -19.9824 -18.251 -19.9824h-35.8926zM95.2305 20c-8.2998 0 -16.0781 -2.24609 -22.7715 -6.14355v5.33205l-24.0161 -12.4901
c1.4878 -5.49289 2.18436 -10.7203 2.09629 -15.6984l13.3621 1.77636e-15c5.85744 11.2741 17.702 19 31.3292 19h109.539c19.4268 0 35.2305 -15.7012 35.2305 -35s-15.8037 -35 -35.2305 -35h-109.539c-19.4268 0 -35.2305 15.7012 -35.2305 35
c0 1.35239 0.0776069 2.68711 0.228629 4h-11.5607c-4.36432 -14.2349 -16.153 -25.1844 -35.0751 -32.5664l-2.3291 -0.908203l-7.26758 18.6328l2.3291 0.90918c13.583 5.29785 21.2676 12.0889 23.4922 20.7578c3.56152 13.8818 -5.7002 34.1572 -27.5293 60.2607
l-1.60449 1.91699l15.3428 12.8301l1.60352 -1.91699c12.5162 -14.9668 21.4267 -28.5503 26.7936 -40.9031l28.0355 14.5805v19.9066c0 9.64941 7.85059 17.5 17.5 17.5h68.5547l0.0917969 0.358398l1.47559 0.348633c11.8076 2.79004 17.3779 13.8398 20.3779 26.2754
v43.0176h29.5938c9.59766 0 17.4062 -7.80762 17.4062 -17.4062v-108.69c-6.6748 3.86914 -14.4229 6.09668 -22.6895 6.09668h-109.539zM205 -40c8.27148 0 15 6.72852 15 15s-6.72852 15 -15 15s-15 -6.72852 -15 -15s6.72852 -15 15 -15zM150 -40
c8.27148 0 15 6.72852 15 15s-6.72852 15 -15 15s-15 -6.72852 -15 -15s6.72852 -15 15 -15zM95 -40c8.27148 0 15 6.72852 15 15s-6.72852 15 -15 15s-15 -6.72852 -15 -15s6.72852 -15 15 -15z" />
    <glyph glyph-name="uniE01F" unicode="&#xe01f;" 
d="M13 -60v20h215v-20h-215zM116.843 153.667l-102.694 -87.9463l-13.0332 15.1699l115.344 98.8135l122.303 -98.5674l-12.5801 -15.5488zM139 49h-38v-79h-7.82617l-52.1738 70.419v-70.419h-12v90.1436l87.9678 73.5811l94.0322 -73.4326v-90.292h-12v70.9897
l-51.1582 -70.9897h-8.8418v79zM49.55 49l39.45 -54.0352v54.0352h-39.45zM151 49v-53.8896l38.9194 53.8896h-38.9194zM139 61v29h-38v-29h38zM89 61v33.5942l-40.3826 -33.5942h40.3826zM151 61h39.6681l-39.6681 30.8769v-30.8769zM97.9023 102h40.0922l-20.7124 16.1221
z" />
    <glyph glyph-name="uniE020" unicode="&#xe020;" 
d="M185 -60v20h15v30l-135.12 -1.77636e-15c5.46336 -5.23648 8.86982 -12.603 8.86982 -20.75c0 -15.8525 -12.8975 -28.75 -28.75 -28.75s-28.75 12.8975 -28.75 28.75c0 10.3599 5.50834 19.4578 13.75 24.5186v36.2314h-30v56.875
c0 18.2949 9.83008 33.125 28.125 33.125h21.875v-10h10v5.61914c0 4.82422 0.967773 9.5127 2.87695 13.9375l21.0537 50.4434h80.1504l23.0664 -50.7275c1.89258 -4.41113 2.85254 -9.08203 2.85254 -13.8828v-5.38965h40v20h10v-65h-10v25h-10v-130h15v-20h-50zM45 -22
c-4.8252 0 -8.75 -3.9248 -8.75 -8.75s3.9248 -8.75 8.75 -8.75s8.75 3.9248 8.75 8.75s-3.9248 8.75 -8.75 8.75zM30 50v50h-1.875c-7.24902 0 -8.125 -5.87598 -8.125 -13.125v-36.875h10zM107.25 20.001c-26.0947 0 -47.25 21.1543 -47.25 47.249v22.75h-10v-57v-3v-20
h150v80h-10v-22.749c0 -26.0957 -21.1553 -47.25 -47.25 -47.25h-35.5zM80.6427 120h88.6415c-0.146865 0.458755 -0.316209 0.912116 -0.507891 1.35938l-17.8584 38.6406h-53.8496l-15.8447 -38.4092c-0.223831 -0.520014 -0.41766 -1.05116 -0.580902 -1.59082z
M169.999 110h-89.999v-42.749c0 -15.0508 12.2002 -27.251 27.25 -27.251h35.499c15.0498 0 27.25 12.2002 27.25 27.25v42.75z" />
    <glyph glyph-name="uniE021" unicode="&#xe021;" 
d="M165 60v-15h-15v15h15zM195 60v-15h-15v15h15zM195 30v-15h-15v15h15zM165 30v-15h-15v15h15zM135 30v-15h-15v15h15zM105 30v-15h-15v15h15zM75 0v-15h-15v15h15zM75 15h-15v15h15v-15zM31 90h49v30h-49v-30zM20 40v108h11v-17h49v47h11v-47h59v47h11v-47h48v47h11v-88
h-11v30h-48v-30h-11v30h-59v-30h49v-11h-49v-29h-11v29h-49v-39h-11zM140 -60v50h-30v-50h-100v20h10v70h20v-70h60v40h50v-40h60v120h20v-120h10v-20h-100z" />
    <glyph glyph-name="uniE022" unicode="&#xe022;" 
d="M31 90h49v30h-49v-30zM20 40v108h11v-17h49v47h11v-47h59v47h11v-47h48v47h11v-88h-11v30h-48v-30h-11v30h-59v-30h49v-11h-49v-29h-11v29h-49v-39h-11zM205 25v15h-15v-15h15zM205 -5v15h-15v-15h15zM205 -35v15h-15v-15h15zM175 25v15h-15v-15h15zM175 -5v15h-15v-15
h15zM175 -35v15h-15v-15h15zM145 25v15h-15v-15h15zM145 -5v15h-15v-15h15zM115 -5v15h-15v-15h15zM85 -5v15h-15v-15h15zM85 -35v15h-15v-15h15zM55 -5v15h-15v-15h15zM55 -35v15h-15v-15h15zM220 -40h10v-20h-90v40h-40v-40h-90v20h10v70h70v10h30v20h30v20h70v-120z" />
    <glyph glyph-name="uniE023" unicode="&#xe023;" 
d="M39.9785 34.5c-5.90234 0 -11.5176 2.24316 -15.8096 6.31543c-4.55566 4.32324 -7.16895 10.4043 -7.16895 16.6846v0.5h16v-0.5c0 -1.93945 0.775391 -3.74316 2.18359 -5.0791c1.3252 -1.25684 2.98242 -1.92188 4.79004 -1.92188
c0.138672 0 0.277344 0.00390625 0.416016 0.0117188c3.51074 0.18457 6.41504 3.08301 6.60059 6.60059c0.154297 2.95215 -1.56348 5.70312 -4.27539 6.8457c-6.50879 2.74219 -10.7148 8.97461 -10.7148 15.8799v4.82812c-17.6279 5.25155 -28.5 27.1473 -28.5 42.835
c0 9.57408 3.70537 24.8817 26.5 28.3058v24.1942h20v-24.1942c22.7946 -3.42404 26.5 -18.7317 26.5 -28.3058c0 -15.6876 -10.8721 -37.5834 -28.5 -42.835v-5.55664l1.2002 -0.524414c8.73438 -3.81543 14.2676 -12.7812 13.7676 -22.3105
c-0.606445 -11.585 -10.1572 -21.1357 -21.7412 -21.7422c-0.417969 -0.0214844 -0.833984 -0.03125 -1.24805 -0.03125zM114 100v11h15v50h11v-50h39v50h11v-50h39v50h11v-221h-11v40h-39v-40h-11v40h-39v-40h-11v40l-39 -3.55271e-15v-40h-11v40h-39l7.10543e-15 -40h-11
v71h11v-20h39v49v11v20h11v-20h39v49h-15zM90 -9l39 1.77636e-15v49h-39v-49zM140 -9l39 5.32907e-15v49l-39 -7.10543e-15v-49zM140 51h39v49h-39v-49zM190 -9l39 5.32907e-15v49l-39 -7.10543e-15v-49zM190 51h39v49h-39v-49z" />
    <glyph glyph-name="uniE024" unicode="&#xe024;" 
d="M120 99.249c-5.34961 0 -9.70312 -4.34961 -9.70312 -9.69727c0 -5.34668 4.35352 -9.69629 9.70312 -9.69629s9.70312 4.34961 9.70312 9.69629c0 5.34766 -4.35352 9.69727 -9.70312 9.69727zM120 66c-12.9941 0 -23.5654 10.5654 -23.5654 23.5518
c0 12.9873 10.5713 23.5518 23.5654 23.5518s23.5654 -10.5645 23.5654 -23.5518c0 -12.9863 -10.5713 -23.5518 -23.5654 -23.5518zM113.678 34.2441c0.892578 -0.165039 3.3584 -0.326172 6.52344 -0.326172c2.74219 0 4.68066 0.124023 5.4502 0.25293
l0.251953 0.0683594c22.7363 5.80566 41.0166 40.5791 41.0166 65.5059c0 14.0684 -3.62305 27.8027 -46.9199 27.8027s-46.9199 -13.7344 -46.9199 -27.8037c0 -24.1992 18.0986 -58.7598 40.5977 -65.5zM117.764 -60c-18.1016 0 -32.1074 11.5508 -35.6816 29.4258
c-1.25 6.25195 -2.16699 12.6514 -3.05469 18.8398c-0.308594 2.14941 -0.613281 4.26855 -0.931641 6.38574c-0.354492 2.39746 0.34375 3.93555 0.991211 4.80273c1.02539 1.375 2.7666 2.2168 4.90625 2.37305c0.323242 0.0214844 0.625977 0.0351562 0.922852 0.0351562
c4.66211 0 8.38379 -2.61914 11.0645 -7.78613c1.25977 -2.43262 2.37207 -5.05078 3.35547 -7.36133c0.90625 -2.12793 1.83887 -4.31836 2.86133 -6.36523c2.69922 -5.4043 6.39746 -8.14453 10.9941 -8.14453c1.27637 0 2.6543 0.206055 4.09277 0.614258
c3.34277 0.948242 5.97266 3.13574 7.2168 6.00195c1.19531 2.74902 1.08789 5.97754 -0.300781 9.08984c-1.52637 3.40918 -4.11328 6.65527 -6.75293 8.47266c-6.13476 4.2187 -10.3023 10.1606 -12.2973 17.4386c-31.1951 11.0049 -54.1499 53.6306 -54.1499 85.9218
c0 21.3828 9.43164 36.1094 28.0342 43.7734c0.32093 0.132226 0.642904 0.261585 0.96582 0.388138v36.0943h20v-31.3311c7.89664 0.946351 15.0857 0.946351 20 0.946351c4.91442 0 12.1033 -0.946445 20 -0.946445v31.3312h20v-36.0943
c0.322914 -0.126538 0.644889 -0.255881 0.96582 -0.388091c18.6025 -7.66211 28.0342 -22.3906 28.0342 -43.7734c0 -31.4001 -20.9941 -71.6835 -50.1378 -84.3141c0.281321 -0.540501 0.597267 -1.04265 1.05476 -1.40366
c3.80273 -2.99902 5.96289 -6.81738 8.69727 -10.3848l0.530273 -0.692383c8.5293 -11.0996 9.87012 -24.4971 3.9873 -39.8252c-5.11816 -13.3379 -16.624 -21.709 -31.5664 -22.9648c-1.28516 -0.104492 -2.56445 -0.15918 -3.80176 -0.15918zM113.924 12.0752
c-0.193428 0.0145127 -0.384589 0.0296579 -0.573293 0.0454193l0.0340346 -0.296383z" />
    <glyph glyph-name="uniE025" unicode="&#xe025;" 
d="M100 151.837c-6.39355 -0.756836 -13.2998 -2.12305 -20 -4.58594v32.749h20v-28.1631zM140 151.837v28.1631h20v-32.749c-6.7002 2.46289 -13.6064 3.8291 -20 4.58594zM120 64.9395c12.1309 0 22 9.86816 22 22c0 12.1309 -9.86914 22 -22 22s-22 -9.86914 -22 -22
c0 -12.1318 9.86914 -22 22 -22zM159.364 138.926c17.8379 -7.35156 26.8818 -21.4844 26.8818 -42.0049c0 -32.6436 -23.582 -75.2715 -55.1436 -83.46c-3.09668 -0.885742 -8.10059 -1.02051 -10.8018 -1.02051c-4.70605 0 -9.26172 0.379883 -11.6055 0.96875
l-0.308594 0.0830078c-31.2871 9.02637 -54.6328 51.4863 -54.6328 83.4287c0 20.5205 9.04395 34.6523 26.8818 42.0049c14.2148 5.85938 30.5752 5.85938 39.3643 5.85938s25.1494 0 39.3643 -5.85938zM149.667 4.08008l0.533203 -0.695312
c8.46875 -11.0264 9.79297 -24.3545 3.93848 -39.6182c-5.0791 -13.2412 -16.501 -21.5527 -31.3389 -22.8008c-1.27637 -0.106445 -2.5498 -0.161133 -3.78223 -0.161133c-17.9658 0.000976562 -31.8662 11.4727 -35.4141 29.2246
c-1.25684 6.29004 -2.17871 12.7246 -3.07031 18.9473c-0.313477 2.18652 -0.620117 4.32324 -0.94043 6.45996c-0.330078 2.22949 0.304688 3.63867 0.894531 4.42871c0.935547 1.25488 2.54688 2.02539 4.54102 2.17285
c0.302734 0.0195312 0.598633 0.0322266 0.888672 0.0322266c4.47363 0 8.05859 -2.54102 10.6562 -7.55176c1.26953 -2.45215 2.38379 -5.07422 3.36621 -7.38867c0.916016 -2.1543 1.8584 -4.36914 2.89453 -6.44141c2.82227 -5.6543 6.71582 -8.52148 11.5752 -8.52148
c1.33789 0 2.77637 0.214844 4.27539 0.639648c3.53027 1.00293 6.31152 3.32422 7.63184 6.36719c1.2666 2.91602 1.15723 6.33008 -0.306641 9.61133c-1.49316 3.33984 -3.97656 6.53223 -6.56445 8.46387c-2.91406 2.1748 -5.52637 4.71191 -7.69629 7.59473
c3.5752 -0.362305 7.17969 -0.40332 8.55176 -0.40332c3.77734 0 9.06543 0.225586 12.8984 1.2998c3.95312 1.03223 7.76562 2.53223 11.4365 4.38965c1.88281 -1.95215 3.43066 -3.95996 5.03125 -6.0498z" />
    <glyph glyph-name="uniE026" unicode="&#xe026;" 
d="M220 70v50h-10v-40v-10h10zM11.2393 80c-3.66016 0 -7.19922 1.7041 -9.20703 4.7627c-3.12402 4.75879 -1.98535 10.8867 2.23047 14.2529l28.835 34.668c5.09277 4.07324 11.4854 6.31641 18.0029 6.31641h11.2004l67.699 34.383v5.61697h20v-5.38701l55.781 -34.613
h4.21899h30v-90h-50v30h-20v-120h13v-20h-13h-70h-13v20h13v120h-45.208v-9.39581c18.8473 -2.82794 23.124 -14.4214 23.124 -24.3542c0 -12.876 -8.47551 -31.0822 -22.049 -37.5799c11.298 -5.58169 16.6575 -18.5475 12.5333 -30.7961
c-2.4043 -7.13477 -8.09863 -12.8291 -15.2324 -15.2314c-2.74902 -0.925781 -5.5752 -1.39551 -8.39844 -1.39551c-5.25 0 -10.2832 1.62207 -14.5557 4.69141c-6.52539 4.68945 -10.4219 12.2822 -10.4219 20.3115v2.5h20v-2.5
c0 -1.63086 0.761719 -3.11328 2.09082 -4.06836c0.591797 -0.424805 1.57812 -0.931641 2.91406 -0.931641c0.635742 0 1.30566 0.117188 1.99121 0.34668c1.20703 0.407227 2.25098 1.45117 2.6582 2.66016c1.10352 3.27832 -0.62793 5.71973 -2.70312 6.60254
c-7.25977 3.08398 -11.9512 10.043 -11.9512 17.7285v0.165614c-13.4729 6.56884 -21.876 24.6752 -21.876 37.4965c0 9.70972 4.08676 21.0063 21.876 24.1505v9.59951h-23.5527zM120.603 101.116l13.9475 18.884h-27.8951zM150 160.498v-20.4977h33.0333zM130 160.93
l-41.2099 -20.93h41.2099v20.93zM59.7788 100l14.7718 20h-23.451c-2.00293 0 -3.94434 -0.681641 -5.50879 -1.93262l-15.083 -18.0674h29.271zM74.5313 100h25.4687h6.67473l-14.7718 20h-2.59985zM181.427 100h8.57273v20h-23.3445zM149.303 120l-14.7718 -20h32.1434
l-14.7718 20h-2.59985zM121.596 38.9462l28.4044 -25.121v53.5254zM149.343 -1.58381l-29.3432 25.9513v-51.4166zM123.35 -40h26.6505v23.1284zM120 54.323l25.6776 25.677h-25.6776v-25.677z" />
    <glyph glyph-name="uniE027" unicode="&#xe027;" 
d="M220 100h-20h-10h-20v-20h50v20zM220 70h-20v-20h20v20zM220 40h-50v-20h50v20zM220 10h-20v-20h20v20zM220 -20h-50v-20h20h10h18h2v20zM160 -20h-40v-20h9h11h10h10v20zM110 -20h-40v-20h20h10h10v20zM60 -20h-20v-20h3h10h7v20zM150 -10h40v20h-40v-20zM190 50v20h-40
v-20h40zM240 120v-180h-220v66.165c6.09375 -4.36621 12.835 -7.7998 20 -10.1719v-5.99316h50v7.04492c3.03906 1.15234 6.00781 2.49707 8.87695 4.04199c0.380859 0.205078 0.74707 0.428711 1.12305 0.639648v-11.7266h40v20h-20h-8.08301
c3.56738 3.03223 6.8252 6.37402 9.73242 10h38.3506v20h-26.959c0.647461 1.70996 1.25488 3.44043 1.78125 5.20996c0.47168 1.58887 0.873047 3.18848 1.23535 4.79004h3.94238v20h-2.19043c-0.170898 3.35742 -0.584961 6.69629 -1.21875 10h23.4092v20h-10h-8.89746
l15.4062 11.041c3.18848 2.28613 5.57422 5.38672 6.96582 8.95898h76.5254zM7.08398 107.476c-1.84961 3.38965 -2.2627 7.29199 -1.16504 10.9902c1.10254 3.70801 3.58887 6.7627 7.00293 8.60156l6.91211 3.71973l-16.8281 30.29l12.2373 6.79883l16.9199 -30.4541
l7.07617 3.80859c2.10156 1.13086 4.4707 1.72852 6.85254 1.72852c5.33301 0 10.2197 -2.88574 12.7539 -7.5332l4.07953 -7.47344l0.523984 0.282032l2.73242 -0.109375c22.0742 -0.888672 41.5645 -12.9863 52.1387 -32.3594
c7.93359 -14.5371 9.70898 -31.2773 4.99805 -47.1377c-4.73242 -15.9336 -15.4326 -29.0635 -30.1279 -36.9736c-9.07617 -4.88672 -19.3096 -7.46875 -29.5928 -7.46875c-22.9688 0 -44.0186 12.4258 -54.9355 32.4268
c-10.5957 19.4131 -10.4229 42.1113 0.461914 60.7207l1.41895 2.4248l0.582666 0.313617zM25.1162 84.8896c-6 -12.0059 -5.60449 -26.4131 1.09961 -38.6953c7.41211 -13.5801 21.7207 -22.0166 37.3428 -22.0176c7.00195 0 13.9697 1.75879 20.1523 5.08691
c9.97266 5.36816 17.2305 14.2666 20.4355 25.0576c3.18359 10.7178 1.98242 22.0342 -3.38184 31.8613c-6.7041 12.2832 -18.9229 20.3818 -32.7891 21.7754zM82.125 131.401c-0.439453 0 -0.880859 0.0371094 -1.31348 0.107422
c-4.35254 0.71875 -7.30762 4.84375 -6.58887 9.19629l4.03125 24.4189c0.640625 3.88086 3.9541 6.69922 7.87695 6.69922c0.439453 0 0.883789 -0.0371094 1.32031 -0.109375c4.35254 -0.717773 7.30762 -4.84277 6.58984 -9.19531l-4.03125 -24.4199
c-0.640625 -3.88086 -3.95703 -6.69727 -7.88477 -6.69727zM104.747 123.064c-1.43164 0 -2.84277 0.388672 -4.08203 1.125c-3.79102 2.25391 -5.04199 7.17285 -2.78809 10.9639l12.709 21.3789c1.43555 2.41406 4.07227 3.91309 6.88379 3.91309
c1.43262 0 2.84375 -0.389648 4.08105 -1.125c3.79199 -2.25391 5.04199 -7.17188 2.78906 -10.9639l-12.71 -21.3789c-1.43359 -2.41309 -4.07227 -3.91309 -6.88281 -3.91309zM124.635 104.798c-2.57715 0 -5.00977 1.24902 -6.50879 3.34082
c-1.24512 1.7373 -1.73828 3.85449 -1.39062 5.96289s1.49707 3.95508 3.23242 5.2002l20.2295 14.4971c1.36719 0.979492 2.97656 1.49805 4.65234 1.49805c2.57715 0 5.01074 -1.24902 6.50977 -3.33984c1.24414 -1.7373 1.73828 -3.85547 1.39062 -5.96289
c-0.347656 -2.1084 -1.49707 -3.95508 -3.2334 -5.2002l-20.2285 -14.4971c-1.36719 -0.980469 -2.97461 -1.49902 -4.65332 -1.49902zM50.598 121.317l-4.27869 7.83898l-27.2051 -14.6572l4.31829 -7.80345z" />
    <glyph glyph-name="uniE028" unicode="&#xe028;" 
d="M220 -60v20h20v-20h-20zM170 -60v20h40v-20h-40zM50 -60v20h50v-20h-50zM140 103.902l8.50879 6.09766h31.4912v-20h-40v13.9023zM20 -60v20h20v-20h-20zM210 80v-20h-40v20h40zM190 110h50v-20h-50v20zM220 60v20h20v-20h-20zM220 0v20h20v-20h-20zM190 30v20h50v-20
h-50zM190 -30v20h50v-20h-50zM110 -60v20h50v-20h-50zM70 -10v-20h-50v20h50zM40 0h-20v10.5312c6.07227 -4.31445 12.8213 -7.64355 20 -9.83105v-0.700195zM125.636 90c-0.772461 2.12891 -1.64551 4.23242 -2.63477 6.29883
c2.4209 0.00292969 4.77832 0.450195 6.99902 1.28711v-7.58594h-4.36426zM130 50v-20h-10.8945c3.31152 5.26855 5.93945 11.0088 7.75977 17.1338c0.283203 0.952148 0.540039 1.9082 0.78125 2.86621h2.35352zM160 80v-20h-30.6064
c0.670898 6.70605 0.333008 13.4297 -0.972656 20h31.5791zM210 20v-20h-40v20h40zM180 -10v-20h-40v20h40zM140 30v20h40v-20h-40zM160 20v-20h-50v18.4678c0.494141 0.501953 0.972656 1.0166 1.4502 1.53223h48.5498zM100 10.0791v-10.0791h-21.8408
c5.26172 1.39453 10.3691 3.39844 15.1836 5.98926c2.31445 1.24512 4.52734 2.61914 6.65723 4.08984zM130 -30h-50v20h50v-20zM5.04199 104.496c-1.97754 3.625 -2.41992 7.79785 -1.24609 11.7539c1.17773 3.96484 3.83691 7.23145 7.48828 9.19727l6.01734 3.23866
l-16.8191 30.2789l13.9863 7.76953l16.9225 -30.4651l6.20934 3.342c2.24707 1.20898 4.78027 1.84766 7.32617 1.84766c5.69922 0 10.9219 -3.08594 13.6318 -8.05371l2.77637 -5.08691l-53.5195 -28.9014zM60.373 9.66406c-21.0938 0 -40.4395 11.4355 -50.4883 29.8428
c-9.10352 16.6797 -9.54492 36.4561 -1.18164 52.9014l0.0712891 0.138672l57.0957 30.832l0.151367 -0.0146484c18.918 -1.7959 35.6455 -12.8223 44.7461 -29.4941c7.29199 -13.3604 8.92383 -28.7451 4.59473 -43.3203
c-4.35254 -14.6475 -14.1904 -26.7207 -27.7061 -33.9951c-8.37793 -4.50781 -17.8125 -6.89062 -27.2832 -6.89062zM88.3457 141.599c-0.640625 -3.88086 -3.95703 -6.69727 -7.88281 -6.69727c-0.438477 0 -0.880859 0.0351562 -1.3125 0.107422
c-2.10938 0.348633 -3.95508 1.49707 -5.19922 3.2334c-1.24512 1.73633 -1.73926 3.85449 -1.3916 5.96289l4.03125 24.4189c0.641602 3.88086 3.95508 6.69824 7.87988 6.69824c0.439453 0 0.881836 -0.0361328 1.31543 -0.108398
c4.35254 -0.71875 7.30859 -4.84375 6.59082 -9.19629zM127.624 109.796c-1.36719 -0.979492 -2.97559 -1.49805 -4.65332 -1.49902c-2.57617 0 -5.00879 1.24902 -6.50879 3.34082c-1.24512 1.7373 -1.73926 3.85547 -1.39062 5.96289
c0.347656 2.1084 1.49609 3.95508 3.23242 5.2002l20.2295 14.4971c1.36719 0.980469 2.97559 1.49805 4.65234 1.49805c2.57715 0 5.01172 -1.24805 6.50977 -3.33984c1.24512 -1.7373 1.73828 -3.85547 1.39062 -5.96289
c-0.347656 -2.1084 -1.49609 -3.95508 -3.2334 -5.2002zM103.082 126.564c-1.43164 0 -2.84277 0.388672 -4.08203 1.125c-3.79102 2.25391 -5.04199 7.17285 -2.78809 10.9639l12.709 21.3789c1.43555 2.41406 4.07227 3.91309 6.88379 3.91309
c1.43262 0 2.84375 -0.389648 4.08105 -1.125c3.79199 -2.25391 5.04199 -7.17188 2.78809 -10.9639l-12.709 -21.3799c-1.43359 -2.41211 -4.07129 -3.91211 -6.88281 -3.91211z" />
    <glyph glyph-name="uniE029" unicode="&#xe029;" 
d="M170 63.3115v59.6885h-27.3789l-12.6211 -63h36.6885c1.82812 0 3.31152 1.4834 3.31152 3.31152zM70 -9v61.5c0 9.66504 7.83496 17.5 17.5 17.5h0.0825353l-33.1978 60.8779l-16.3256 -49.0431c0.816796 -0.211744 1.61418 -0.468635 2.39001 -0.770329
c13.5137 -5.26367 13.3828 -18.7578 13.3389 -23.1914l-0.0253906 -2.20898c-0.114258 -9.56836 -0.214844 -17.832 3.20801 -25.1377c1.80566 -3.85352 3.0127 -7.8457 4.07715 -11.3672l0.457031 -1.50586c1.97656 -6.46289 1.18457 -12.6348 -2.22852 -17.3799
c-3.23633 -4.50098 -8.37598 -7.07129 -14.4736 -7.23633c-0.167969 -0.00683594 -0.380859 -0.00976562 -0.594727 -0.00976562c-4.90918 0 -11.8291 1.72168 -16.5322 6.55371c-7.2793 7.47852 -14.1377 15.4102 -20.3838 23.5703
c-2.92773 3.82715 -4.33105 8.07227 -5.35547 11.1738c-0.258789 0.780273 -0.525391 1.58594 -0.691406 1.98438l-1.05273 2.53906l0.291992 2.72949c1.51562 14.3438 5.01172 23.9316 11.6914 32.0615c0.922988 1.12319 1.97457 2.15967 3.12955 3.09815l23.9417 71.019
c2.1416 5.52734 7.0957 9.26855 12.9473 9.8125c0.481445 0.0429688 0.957031 0.0644531 1.42676 0.0644531c5.3623 0 10.251 -2.72168 13.0781 -7.28125l0.297852 -0.514648l41.9559 -79.8379h6.63833l14.7681 62.6523c1.1875 4.3252 5.15332 7.34766 9.64062 7.34766h25h5
h32.5938c9.61328 0 17.4062 -7.79297 17.4062 -17.4062v-107.772c10.0537 -5.61177 17.4739 -15.3619 19.6758 -27.1446c2.22559 -11.9102 -0.873047 -24.0078 -8.5 -33.1934c-7.64355 -9.2041 -18.8643 -14.4834 -30.7822 -14.4834h-90.7871
c-11.918 0 -23.1377 5.2793 -30.7812 14.4834c-7.62695 9.18457 -10.7266 21.2832 -8.50098 33.1934c0.252184 1.34913 0.572774 2.67162 0.957891 3.9643zM154.625 -34c-7.53613 0 -13.667 6.13086 -13.667 13.667s6.13086 13.667 13.667 13.667
s13.667 -6.13086 13.667 -13.667s-6.13086 -13.667 -13.667 -13.667zM199.625 -34c-7.53613 0 -13.667 6.13086 -13.667 13.667s6.13086 13.667 13.667 13.667s13.667 -6.13086 13.667 -13.667s-6.13086 -13.667 -13.667 -13.667zM110.625 -34
c-7.53613 0 -13.667 6.13086 -13.667 13.667s6.13086 13.667 13.667 13.667s13.667 -6.13086 13.667 -13.667s-6.13086 -13.667 -13.667 -13.667zM109.238 0c-6.05859 0 -11.6719 -2.75391 -15.4043 -7.55371c-3.72656 -4.7959 -4.98535 -10.999 -3.45117 -17.0215
c2.16406 -8.49316 9.99121 -15.4248 19.0352 -15.4248h91.1631c9.04297 0 16.8711 6.93164 19.0352 15.4248c1.53418 6.02148 0.275391 12.2256 -3.45117 17.0205c-3.73145 4.80078 -9.3457 7.55469 -15.4043 7.55469h-91.5225zM32.0762 64.5742
c-2.79297 0 -5.1875 -1.38184 -5.99414 -2.36328c-4.05371 -4.93457 -6.29199 -11.1104 -7.48242 -20.6504l-0.0273438 -0.227539l0.429688 -1.28223c0.739258 -2.23438 1.50391 -4.54688 2.58496 -5.95996c5.81445 -7.5957 12.2031 -14.9814 18.9883 -21.9551
c0.550781 -0.476562 1.72363 -0.859375 2.58301 -1.00977l1.5166 -0.265625l-0.374023 1.49316c0 0.00292969 -0.473633 1.56738 -0.473633 1.56738c-0.933594 3.08887 -1.89844 6.28516 -3.15527 8.96875c-5.1709 11.0371 -5.03711 22.1904 -4.90723 32.9775
l0.0253906 2.19434c0.0458984 4.65137 -0.450195 5.67578 -1.86914 6.22754c-0.490234 0.188477 -1.11035 0.285156 -1.84473 0.285156zM180 119.932v-53.6206c0 -12.875 -2.43652 -16.3125 -15.3135 -16.3125h-41.1865
c-0.0461201 0 -0.092212 0.000976562 -0.138273 0.000976562h-33.3617v-35.1788c5.92742 3.30868 12.7703 5.17881 19.999 5.17881h90.002c0.333848 0 0.666873 -0.00398883 0.999023 -0.011924v100.012z" />
    <glyph glyph-name="uniE02A" unicode="&#xe02a;" 
d="M115.315 80l14.2041 53.4336c1.02539 3.89648 4.41309 6.56641 8.25684 6.56641h31.6826v-40.0176c1 -11.0195 -7.63574 -19.9824 -18.251 -19.9824h-35.8926zM95.2305 20c-8.2998 0 -16.0781 -2.24609 -22.7715 -6.14355v38.6436
c0 8.56413 6.18396 15.7113 14.321 17.2107l-32.3982 61.1907l-18.856 -51.7914c10.0854 -4.32233 9.98407 -14.5406 9.94002 -18.9527l-0.0253906 -2.28613c-0.126953 -10.5645 -0.236328 -19.6895 3.81641 -28.3418c1.71387 -3.65918 2.91016 -7.61133 3.96387 -11.0996
l0.477539 -1.56934c1.56738 -5.13672 1.0127 -9.93555 -1.56445 -13.5186c-2.39355 -3.33105 -6.28809 -5.2334 -10.9648 -5.35938l-0.480469 -0.00976562c-4.03809 0 -9.69141 1.37695 -13.4502 5.23926c-7.41211 7.61621 -14.3955 15.6914 -20.7549 24
c-2.50781 3.27734 -3.80762 7.20703 -4.75586 10.0771c-0.308594 0.931641 -0.625 1.87402 -0.851562 2.41992l-0.586914 1.41602l0.163086 1.51953c1.45898 13.8135 4.74512 22.9463 10.9893 30.5449c0.338851 0.412295 0.699322 0.810457 1.07957 1.19367l26.7144 73.3737
c2.1416 5.52734 7.0957 9.26855 12.9463 9.8125c0.482422 0.0429688 0.957031 0.0644531 1.42773 0.0644531c5.36133 0 10.251 -2.72168 13.0771 -7.28125l0.298828 -0.514648l42.2715 -79.8379h49.2568l0.0917969 0.358398l1.47559 0.348633
c11.8076 2.79004 17.3779 13.8398 20.3779 26.2754v43.0176h29.5938c9.59766 0 17.4062 -7.80762 17.4062 -17.4062v-108.69c-6.6748 3.86914 -14.4229 6.09668 -22.6895 6.09668h-109.539zM205 -40c8.27148 0 15 6.72852 15 15s-6.72852 15 -15 15s-15 -6.72852 -15 -15
s6.72852 -15 15 -15zM150 -40c8.27148 0 15 6.72852 15 15s-6.72852 15 -15 15s-15 -6.72852 -15 -15s6.72852 -15 15 -15zM95 -40c8.27148 0 15 6.72852 15 15s-6.72852 15 -15 15s-15 -6.72852 -15 -15s6.72852 -15 15 -15zM204.77 10
c19.4268 0 35.2305 -15.7012 35.2305 -35s-15.8037 -35 -35.2305 -35h-109.539c-19.4268 0 -35.2305 15.7012 -35.2305 35s15.8037 35 35.2305 35h109.539z" />
    <glyph glyph-name="uniE02B" unicode="&#xe02b;" 
d="M108.42 50l-21.1436 -49.1982l84.9189 69.1982h-40.2617l20.2227 49.7891l-84.5625 -69.7891h40.8262zM44.9365 -59.6895c-1.43555 0 -2.81738 0.758789 -3.60645 1.97852c-0.77832 1.2041 -0.885742 2.71484 -0.289062 4.04199l36.5654 83.6689h-52.5605
c-1.66113 0 -3.26367 0.864258 -3.99609 2.35547c-0.888672 1.80957 -0.44043 3.8877 1.06055 5.15723l168.154 141.044c0.798828 0.675781 1.72949 1.02148 2.71582 1.02148c1.39551 0 2.74414 -0.731445 3.52051 -1.90918
c0.77832 -1.17969 0.900391 -2.61426 0.333984 -3.93262l-34.6885 -83.7363h53.0146c1.66797 0 3.27734 -0.873047 4.00488 -2.37305c0.881836 -1.81738 0.421875 -3.89258 -1.08887 -5.15723l-170.395 -141.135c-0.80957 -0.676758 -1.75098 -1.02441 -2.74609 -1.02441z
" />
    <glyph glyph-name="uniE02C" unicode="&#xe02c;" 
d="M44.9365 -60c-1.43555 0 -2.81738 0.745117 -3.60645 1.94336c-0.77832 1.18262 -0.885742 2.66699 -0.289062 3.97168l36.5654 84.207h-52.7432c-1.80859 0 -3.37793 1.07812 -4 2.74609s-0.131836 3.4873 1.24805 4.63477l168.153 141.493
c0.798828 0.664062 1.72852 1.00391 2.71387 1.00391c1.39648 0 2.74512 -0.71875 3.52148 -1.875c0.77832 -1.16016 0.900391 -2.56836 0.333984 -3.86426l-34.6875 -84.2734h53.1982c1.81445 0 3.38672 -1.08301 4.00488 -2.75879
c0.619141 -1.67578 0.119141 -3.49609 -1.27246 -4.63965l-170.395 -141.583c-0.80957 -0.665039 -1.75098 -1.00586 -2.74609 -1.00586z" />
    <glyph glyph-name="uniE02D" unicode="&#xe02d;" 
d="M90 80v40h-40v-30h20v-10h-30v50h110v-10h-50v-40h-10zM40 -20v80h30v-10h-20v-60h60v60h-20v10h30v-30h30v-10h-30v-30h70v30h-25v10h25v90h-25v10h35v-150h-160zM220 -40v190h-200v-190h200zM0 -60v230h240v-230h-240z" />
    <glyph glyph-name="uniE02E" unicode="&#xe02e;" 
d="M90 90v60h-70v-50h40v-10h-60v80h160v-20h-60v-60h-10zM0 -50v110h60v-10h-40v-80h90v80h-20v10h30v-30h50v-10h-50v-50h100v50h-20v10h20v120h-20v20h40v-220h-240z" />
    <glyph glyph-name="uniE02F" unicode="&#xe02f;" 
d="M185 110v-15h-15v15h15zM185 80v-15h-15v15h15zM185 140v-15h-13.8066c-0.274414 1.36719 -0.676758 2.6709 -1.19336 3.90137v11.0986h15zM125 5h-15v4.81055c3.45996 3.23828 6.76172 6.64941 9.91016 10.1895h5.08984v-15zM110 131.356l-0.000976562 8.64355h15
v-9.13965c-0.0703125 -0.0126953 -0.137695 -0.0263672 -0.208984 -0.0371094c-0.762695 -0.117188 -1.83398 -0.176758 -3.18359 -0.176758c-3.11816 0 -7.20801 0.328125 -11.6064 0.709961zM140 138.223v1.77734h3.45215
c-1.19238 -0.481445 -2.3457 -1.07812 -3.45215 -1.77734zM155 74.7002v-9.7002h-4.81543c1.70508 3.28223 3.3125 6.52637 4.81543 9.7002zM160 -20h-30v-20v-10h30v30zM238 -40v-20h-18h-50h-50h-50h-17v20h17v24.958c7.07129 2.42969 13.7373 5.6377 20 9.47363v-34.4316
h30v30h50v-30h30v200h-110v-27.3018c-1.68359 0.0488281 -3.39355 0.0820312 -5.15039 0.0820312c-5.13477 0 -10.0732 -0.253906 -14.8496 -0.751953v47.9717h150v-220h18zM155 50v-15h-15v12.1104c0.601562 0.962891 1.19434 1.92578 1.77734 2.88965h13.2227zM155 20v-15
h-15v15h15zM185 20v-15h-15v15h15zM185 35h-15v15h15v-15zM25.708 10.5547c3.03516 0 5.65723 -0.262695 7.22266 -0.419922c2.07129 -0.189453 4.17871 -0.288086 6.24121 -0.288086c49.8506 0 80.4795 55.7705 95.1924 92.3203
c-1.65723 -0.404297 -3.33105 -0.737305 -5.00879 -0.996094c-2.2959 -0.353516 -4.83301 -0.524414 -7.75781 -0.524414c-4.7627 0 -10.0537 0.460938 -15.6562 0.948242c-6.42578 0.561523 -13.6807 1.19434 -21.165 1.19434
c-13.5459 0 -24.6729 -2.04199 -35.0146 -6.42578c-27.7314 -11.7598 -33 -42.4248 -32.6895 -53.249c0.106952 -3.74878 0.69901 -9.14741 1.44514 -14.8625c6.5472 12.3374 14.4066 22.5376 23.5431 30.5286c17.2002 15.042 35.1895 18.8809 44.8545 20.9424
c2.04004 0.436523 3.77344 0.806641 4.93164 1.15137c0.650391 0.193359 1.32324 0.291016 1.99609 0.291016c3.07324 0 5.83105 -2.05859 6.70801 -5.00586c0.533203 -1.79199 0.335938 -0.68457 -0.553711 -2.3291s-2.36816 -2.84277 -4.16016 -3.37598
c-1.70703 -0.507812 -3.69629 -0.931641 -5.99902 -1.42285c-14.9561 -3.19141 -48.5488 -7.99512 -67.7002 -57.9893c-0.0644735 -0.168404 -0.107122 -0.380649 -0.132459 -0.627704c1.19037 0.0931218 2.42718 0.140399 3.70277 0.140399zM6.28484 -35.1036
l-0.166679 -0.290003l-4.66602 1.34082l0.0712729 1.85727c-0.0157342 0.0224024 -0.0313542 0.0449138 -0.0468589 0.0675338c-1.05664 1.54199 -1.44922 3.40332 -1.10645 5.24121c0.523125 2.80324 1.08107 5.55385 1.67368 8.25154l0.575342 14.9926
c0.0400391 1.52344 -1.18066 9.91406 -1.98828 15.4639c-1.5625 10.7393 -3.3252 22.8467 -3.55078 30.7197c-0.418945 14.6211 6.82715 56.1006 44.875 72.2344c12.7051 5.38672 26.7354 8.00488 42.8945 8.00488c8.35742 0 16.0254 -0.666992 22.79 -1.25684
c5.18066 -0.452148 10.0586 -0.876953 13.9678 -0.876953c1.88184 0 3.42188 0.0957031 4.70605 0.292969c8.75586 1.34766 15.0576 5.42676 17.165 7.39453c2.22363 2.07422 4.86426 3.16992 7.6416 3.16992c1.96777 0 3.95312 -0.570312 5.59082 -1.60449
c3.2041 -2.02344 6.24316 -6.60352 4.2627 -12.8486c-9.47168 -29.8408 -46.2383 -127.204 -121.686 -127.208c-2.7207 0 -5.50293 0.128906 -8.27051 0.383789c-1.9375 0.194336 -3.69629 0.291016 -5.25 0.291016c-2.81543 0 -4.35352 -0.320312 -5.06348 -0.533203
l-3.86022 -6.71635c-0.976138 -4.04365 -1.88274 -8.28178 -2.71205 -12.7241c-0.619141 -3.31055 -3.50879 -5.71582 -6.87305 -5.71582c-0.323825 0 -0.650412 0.0231896 -0.973946 0.0683234z" />
    <glyph glyph-name="uniE030" unicode="&#xe030;" 
d="M195 145v15h-15v-15h15zM195 115v15h-15v-15h15zM195 85v15h-15v-15h15zM195 55v15h-15v-15h15zM195 25v15h-15v-15h15zM195 -5v15h-15v-15h15zM165 25v15h-15v-15h15zM165 -5v15h-15v-15h15zM135 -5v15h-15v-15h15zM165 145v15h-15v-15h15zM135 145v15h-15v-15h15z
M230 -40h10v-20h-60v40h-40v-40h-60v20h10v36.1963c12.2617 7.64941 22.9785 17.6973 32.2588 28.8037h12.7412v15h-1.42676c6.31348 9.23242 11.7715 18.748 16.4268 27.9072v-12.9072h15v15h-13.9443c2.57715 5.17383 4.89355 10.2109 6.96191 15h6.98242v15h-0.941406
c2.12695 5.68652 3.79199 10.625 5.0166 14.4824c3.22266 10.166 -1.61035 18.6787 -7.82324 22.6006c-3.02148 1.91113 -6.52637 2.9209 -10.1328 2.9209c-4.89746 0 -9.66895 -1.93652 -13.4404 -5.45605c-0.911133 -0.849609 -4.34277 -3.18652 -9.51367 -4.54785
h-8.16504v-0.828125c-3.29883 0.09375 -7.36035 0.447266 -11.6426 0.821289c-5.53711 0.481445 -11.6748 1.00879 -18.3574 1.2041v48.8027h140v-220zM10.626 -36.2842c-0.441406 0.00878906 -0.911133 0.0625 -1.36621 0.15625
c-1.06152 0.217773 -2.04688 0.654297 -2.9043 1.27539l-0.985352 1.41016l-1.34375 1.25l0.00195312 0.0732422l-0.211914 0.507812c-0.576172 1.38281 -0.722656 2.86914 -0.421875 4.30176c8.13672 38.7539 22.8965 67.2168 43.8691 84.5996
c17.7227 14.6885 36 18.1572 45.8193 20.0205l1.53809 0.294922l2.64258 0.513672l-0.72168 2.64844l-0.0263672 0.0830078c-0.923828 3.11035 -3.87891 5.31543 -7.17188 5.31543c-0.720703 0 -1.43945 -0.105469 -2.13867 -0.313477
c-1.15039 -0.341797 -2.87012 -0.708984 -4.86133 -1.13379c-9.71973 -2.07422 -27.8125 -5.93457 -45.1104 -21.0625c-14.0352 -12.2744 -25.1543 -29.917 -33.0693 -52.46l-0.927734 0.0849609l-0.139648 0.957031c-1.54492 10.6133 -3.29492 22.6426 -3.5166 30.375
c-0.405273 14.1455 6.59277 54.2734 43.3525 69.8604c12.3906 5.25195 26.1016 7.80566 41.918 7.80566c8.24316 0 15.8506 -0.662109 22.5635 -1.24609c5.24512 -0.458008 10.1787 -0.888672 14.1943 -0.888672c2.0127 0 3.67676 0.105469 5.08594 0.323242
c9.33984 1.43848 16.0176 5.72949 18.4912 8.03809c1.75098 1.63379 3.80371 2.49805 5.93555 2.49805c1.50098 0 3.01172 -0.432617 4.25488 -1.21777c0.888672 -0.561523 5.21387 -3.67578 3.21582 -9.97949c-9.3418 -29.4307 -45.5527 -125.46 -119.292 -125.463
c-2.65723 0 -5.36133 0.125 -8.05078 0.373047c-1.80469 0.181641 -3.50098 0.28125 -5.02148 0.296875l-1.84961 0.0195312l-0.55957 -1.76367c-2.13867 -6.74414 -4.03125 -14.0156 -5.62598 -21.6123c-0.722656 -3.44043 -3.82324 -5.93848 -7.375 -5.94336z" />
    <glyph glyph-name="uniE031" unicode="&#xe031;" 
d="M90 -40v100h-10v-100h10zM60 -42.2891v102.577c0 8.8601 6.50515 17.8412 15 19.4556v20.2563h-15v20.2754l-0.0322266 0.124023c-0.369141 1.42188 -2.21582 5.09766 -4.31055 5.11816l-0.585938 0.0263672c-1.58789 0.128906 -3.12793 0.193359 -4.67188 0.193359
c-16.8145 0 -28.0195 -7.5 -34.0381 -11.5303c-1.67578 -1.12109 -3.60352 -1.71387 -5.5752 -1.71387c-4.03027 0 -7.6123 2.47656 -9.12695 6.30859c-1.00586 2.54199 -0.833984 5.51367 0.469727 8.14941c6.15234 12.4453 29.4512 53.0488 70.8965 53.0488h26.9746
c6.40527 0 9.68359 -5.17969 12.3184 -9.34082c1.48828 -2.35449 2.67188 -4.0293 3.51758 -4.98047l0.708008 -0.795898l0.75 0.755859c0.953125 0.959961 4.31641 2.73633 6.05176 5.27832c2.90527 4.25684 6.19824 9.08301 12.4043 9.08301h11.5
c7.03027 0 12.75 -5.71973 12.75 -12.75v-45.5352c0 -7.01074 -5.7041 -12.7148 -12.7148 -12.7148h-11.5332c-6.02148 0 -9.37988 4.75293 -12.9346 9.78613c-2.13184 3.0166 -5.67676 4.98828 -6.59277 5.8584l-0.356445 0.339844l-0.487305 -0.0761719
c-2.02539 -0.316406 -3.16504 -1.41406 -4.44824 -2.7959c-0.605469 -0.651367 -0.9375 -1.27441 -0.932617 -1.75195l0.000976562 -20.3604h-15.001v-20.2563c8.49485 -1.61448 15 -10.5956 15 -19.4556v-102.577c0 -9.78125 -7.92969 -17.7109 -17.7109 -17.7109h-14.5781
c-9.78125 0 -17.7109 7.92969 -17.7109 17.7109zM164.387 83.1406c-0.34082 0 -0.62207 -0.0117188 -0.852539 -0.0292969l-3.87793 -0.301758l2.50098 -1.97852c1.14746 -1.36719 3.66016 -4.01367 5.84375 -4.83203c10.4834 -3.92578 18.9111 -7.82227 18.999 -22.2754
v-45.4873c-0.0722656 -4.04297 0.220703 -8.21875 0.873047 -12.415c0.173828 -1.12305 1.16113 -1.94238 2.29688 -1.93945c1.14453 0.00195312 2.11523 0.829102 2.29199 1.95898c0.56543 3.61426 1.0459 7.8252 1.52637 12.1758l0.0117188 0.109375v45.6104
c-0.546875 14.4492 6.82812 18.3389 17.3066 22.2627c2.18066 0.816406 4.69141 3.46387 5.83789 4.83398l2.5 1.9834l-3.88086 0.294922c-0.227539 0.0175781 -0.503906 0.0283203 -0.839844 0.0283203c-0.366211 0 -0.712891 -0.0126953 -1.0127 -0.0244141
l-0.15625 -0.00585938l-0.583984 -0.109375h-47.4033c-0.508789 0.12207 -0.961914 0.140625 -1.38086 0.140625zM174.894 -21.6572c-0.5 1.2998 -4.89355 13.1904 -4.89355 29.7969v45.5c0 2.27051 0 3.4082 -0.84375 4.23145
c-0.874023 0.853516 -2.59277 1.51074 -6.74316 3.04688c-2.83594 1.0498 -16.9639 7.95117 -17.2637 21.3135c-0.106445 4.77637 1.70996 9.23633 5.11621 12.5576c3.57617 3.49023 8.33594 5.25879 14.1504 5.25879c0.69043 0 1.28223 -0.0224609 1.74414 -0.0419922
l0.168945 -0.00585938l47.4678 0.00488281c0.539062 0.0214844 1.11621 0.0419922 1.78613 0.0419922c5.81348 0 10.5752 -1.76953 14.1533 -5.25977c3.40332 -3.31934 5.2207 -7.77832 5.11426 -12.5547c-0.300781 -13.3643 -14.4287 -20.2646 -17.2578 -21.3125
c-4.1582 -1.54004 -5.87598 -2.19727 -6.75098 -3.05176c-0.841797 -0.820312 -0.841797 -1.95898 -0.841797 -4.22852v-45.5c0 -16.5293 -4.28125 -28.3857 -4.76855 -29.6836l-14.5322 -38.5107zM50.3887 144.122c1.90625 0 3.85059 -0.0751953 5.7793 -0.222656
c13.5059 -0.390625 22.6729 -14.0508 22.8301 -22.916l0.0166016 -0.983398h11.96l0.0429688 0.955078c0.22168 4.92969 2.40332 9.72656 6.14648 13.5068c4.91016 4.95801 12.3193 8.03809 19.3359 8.03809c7.7002 0 15.0596 -5.63086 19.7051 -11.7168l5.79492 -2.35156
v31.9932l-5.80566 -2.45996c-3.45605 -4.70703 -11.0498 -10.9648 -19.6943 -10.9648c-10.4082 0 -16.2314 9.13965 -19.3604 14.0498l-0.606445 0.950195h-23.4375c-13.2363 0 -25.7275 -5.87695 -37.123 -17.4668l-2.24414 -2.28223l3.14453 0.598633
c4.43359 0.84375 8.98047 1.27246 13.5156 1.27246z" />
    <glyph glyph-name="uniE032" unicode="&#xe032;" 
d="M60 -42.2891v104.577c0 8.8601 6.50515 16.2005 15 17.5056v20.2063h-15v19.5645c-0.301758 1.15625 -2.88965 4.32422 -4.35254 4.33887l-0.620117 0.0263672c-1.60449 0.128906 -3.13086 0.191406 -4.62793 0.191406c-16.5117 0 -27.5527 -7.33984 -33.4844 -11.2842
c-1.83887 -1.22266 -3.95801 -1.86914 -6.12891 -1.86914c-4.27734 0 -8.29395 2.53125 -10.0352 6.83594c-1.17578 2.90918 -0.892578 6.20312 0.506836 9.01172c6.39746 12.8291 29.8906 53.1846 71.7676 53.1846h26.9746c6.95605 0 10.543 -5.62891 13.1631 -9.73926
c1.76465 -2.77051 5.81348 -4.14062 6.41992 -4.81738c0.672852 0.673828 1.87012 2.09766 3.93652 5.10254c2.89648 4.21387 6.49609 9.4541 13.2305 9.4541h9.5c7.59375 0 13.75 -6.15625 13.75 -13.75v-45.5352c0 -7.57422 -6.14062 -13.7148 -13.7148 -13.7148h-9.53418
c-6.53906 0 -10.2061 5.19043 -13.751 10.209c-2.47754 3.50781 -3.78125 5.06055 -4.46387 5.71191c-1.77441 -0.277344 -6.72461 -1.25391 -7.86914 -2.48828c-0.548828 -0.59082 -0.666992 -0.966797 -0.666016 -1.06152v-19.3711h-15.001v-20.2063
c8.49485 -1.30516 15 -8.64552 15 -17.5056v-104.577c0 -9.78125 -7.92969 -17.7109 -17.7109 -17.7109h-14.5781c-9.78125 0 -17.7109 7.92969 -17.7109 17.7109zM175.027 -16.377c-0.515625 1.33887 -5.02734 13.5596 -5.02734 30.5166v38.5
c0 1.59082 -0.0107422 2.57617 -0.240234 2.7998c-0.606445 0.592773 -2.88867 1.4375 -6.04785 2.60645c-3.04199 1.12598 -18.2334 7.48438 -18.5615 22.1406c-0.119141 5.33984 1.91113 10.3232 5.71973 14.0352c3.96191 3.86621 9.19141 5.82715 15.5459 5.82715
c0.722656 0 1.3418 -0.0234375 1.8252 -0.0429688l0.0878906 -0.00585938l43.4678 0.00488281c0.480469 0.0205078 1.08398 0.0419922 1.78613 0.0419922c6.35254 0 11.584 -1.96094 15.5488 -5.8291c3.80469 -3.70996 5.83594 -8.69238 5.71777 -14.0312
c-0.330078 -14.6572 -15.5205 -21.0166 -18.5625 -22.1426c-3.15918 -1.16895 -5.44141 -2.01367 -6.04785 -2.60742c-0.229492 -0.222656 -0.240234 -1.20898 -0.240234 -2.79883v-38.5c0 -16.8789 -4.39551 -29.0547 -4.89746 -30.3877l-14.3838 -43.418z" />
    <glyph glyph-name="uniE033" unicode="&#xe033;" 
d="M160.557 37.5527l37.917 12.373l4.24805 -9.1416l-37.917 -12.373zM70.0225 45.8467c-0.241211 0 -0.482422 0.0166016 -0.719727 0.0498047c-1.35742 0.189453 -2.56152 0.900391 -3.39062 2.00195c-0.830078 1.10059 -1.18164 2.45508 -0.993164 3.81445
c7.66895 55.0479 39.6006 71.3262 52.9736 75.7695c0.52832 0.174805 1.07422 0.264648 1.62207 0.264648c2.2207 0 4.18066 -1.41992 4.87891 -3.5332c0.433594 -1.30664 0.332031 -2.7041 -0.28418 -3.93359c-0.617188 -1.23047 -1.6748 -2.14746 -2.97852 -2.58008
c-11.5488 -3.83789 -39.1533 -18.0898 -46.0234 -67.4111c-0.352539 -2.53223 -2.53906 -4.44238 -5.08496 -4.44238zM120.075 13.0576c7.41602 -0.283203 13.6738 -0.473633 20.0771 -0.473633c4.67969 0 8.92383 0.106445 12.9756 0.325195
c21.5459 1.16602 42.8428 8.49219 66.9863 23.0488c0.103516 0.192383 0.226562 0.459961 0.286133 0.637695c-0.416992 17.5449 -5.83398 34.2695 -11.085 48.3281c-12.9004 34.5371 -41.2969 54.7344 -77.917 55.4326
c-0.608398 -0.0683594 -1.26074 -0.135742 -1.97363 -0.208008c-2.85254 -0.291016 -6.40332 -0.654297 -9.79102 -1.28223c-3.23242 -0.599609 -6.59766 -1.56738 -10.001 -2.87598c-18.5908 -7.1543 -33.1387 -20.0723 -43.2393 -38.3936
c-10.9336 -19.835 -13.8174 -40.6357 -14.3125 -54.5938c-0.0400391 -1.11035 1.49121 -4.50586 3.45117 -6.59668c11.165 -11.9102 26.2744 -15.6982 31.2412 -16.9424c0.572266 -0.143555 1.04297 -0.262695 1.39941 -0.361328
c6.01855 -1.64355 16.4365 -4.02832 31.9023 -6.04492zM58.7607 -27.499c-1.45898 0 -2.89648 0.0292969 -4.27441 0.0849609c-40.957 1.66699 -51.2617 20.6348 -53.7588 31.793c-1.94438 8.69394 -2.47262 29.9623 32.0851 45.1436
c1.14915 15.7688 5.08705 36.9975 16.4276 57.5683c12.3926 22.4824 30.3486 38.3721 53.3682 47.2295c4.51465 1.73633 9.04395 3.0332 13.46 3.85254c4.18555 0.776367 8.25586 1.19141 11.2266 1.49414l0.331055 0.0341797
c0.782227 0.0800781 1.47363 0.149414 2.04785 0.219727l0.15332 0.0126953l1.11914 0.0664062l0.0878906 -0.000976562c45.4561 -0.615234 80.6768 -25.4697 96.6328 -68.1924c5.85645 -15.6738 11.9004 -34.4785 12.3301 -55.1182
c0.135742 -6.54004 -3.77539 -13.9082 -9.09863 -17.1396c-25.6901 -15.5916 -48.8149 -23.8956 -72.3738 -25.9378c-0.523208 -0.240994 -1.07483 -0.438694 -1.6516 -0.587548c-0.336914 -0.0908203 -1.27246 -0.388672 -2.45605 -0.765625l-0.839844 -0.266602
c-40.6943 -12.9336 -72.5938 -19.4902 -94.8164 -19.4902zM116.071 1.48989c-0.185869 0.719304 -0.549448 1.22206 -1.2443 1.33238c-11.4609 1.81738 -19.7002 3.75684 -24.9609 5.19629c-0.231445 0.0634766 -0.527344 0.137695 -0.883789 0.226562l-0.105469 0.0263672
c-6.35059 1.59277 -25.665 6.43555 -40.7695 22.5469c-0.715802 0.763063 -1.53209 1.74022 -2.37186 2.88846c-0.402952 -0.226438 -0.824604 -0.425925 -1.2629 -0.596472c-10.3379 -4.02637 -27.2832 -12.5557 -24.625 -24.4365
c2.18945 -9.78027 14.7744 -15.6299 35.4375 -16.4697c1.17188 -0.0488281 2.39746 -0.0732422 3.64453 -0.0732422c14.2392 0 33.3853 3.1402 57.1418 9.35903z" />
    <glyph glyph-name="uniE034" unicode="&#xe034;" 
d="M167.96 16.9971l39.9844 13.0215l-4.87891 14.9834l-39.9844 -13.0215zM129.448 113.452c0.855469 1.70508 0.996094 3.63867 0.394531 5.44922c-0.969727 2.92773 -3.69141 4.89453 -6.77344 4.89453c-0.762695 0 -1.51953 -0.123047 -2.25 -0.365234
c-13.791 -4.57324 -46.7168 -21.293 -54.5762 -77.6055c-0.264648 -1.88867 0.223633 -3.76758 1.37305 -5.28906c1.14844 -1.52246 2.82324 -2.50488 4.71191 -2.76953c0.327148 -0.0458984 0.661133 -0.0683594 0.994141 -0.0683594
c3.53711 0 6.57227 2.64453 7.06152 6.15234c6.75488 48.3828 33.6709 62.292 44.9307 66.0273c1.81055 0.599609 3.27832 1.87012 4.13379 3.57422zM239.739 31.9023l0.0117188 -0.520508l-0.0371094 -0.514648c-0.249023 -3.54785 -2.16992 -7.12891 -3.96484 -9.10352
l-1.11133 -1.22266l-1.41309 -0.854492c-26.457 -15.9912 -50.0176 -24.0469 -74.1484 -25.3496c-4.31934 -0.233398 -8.82812 -0.345703 -13.7861 -0.345703c-6.68066 0 -13.1543 0.195312 -20.8174 0.490234l-0.516602 0.0195312l-0.506836 0.0654297
c-16.3818 2.12598 -27.5469 4.68066 -34.0283 6.4502c-0.283203 0.0771484 -0.62793 0.163086 -1.12695 0.288086c-5.96387 1.49219 -24.1113 6.03223 -38.1074 20.9336c-2.5957 2.7627 -7.43945 9.77832 -7.19727 16.5518c0.549805 15.5 3.78906 38.6553 16.0957 60.9355
c11.7627 21.3008 28.7822 36.3467 50.585 44.7207c4.2041 1.61328 8.40527 2.81543 12.4863 3.57031c3.93457 0.728516 7.97461 1.1416 10.9248 1.44238c0.757812 0.0771484 1.41016 0.143555 2.0166 0.211914l0.733398 0.0839844l0.740234 -0.0126953
c42.8506 -0.748047 76.0723 -24.2812 91.1465 -64.5635c5.71094 -15.2568 11.6064 -33.5186 12.0215 -53.2764zM59.0508 -35.8789c-1.4668 0 -2.91211 0.0292969 -4.29688 0.0859375c-41.168 1.67188 -51.5254 20.7002 -54.0342 31.8926
c-1.8125 8.08691 -2.62598 28.5391 28.918 43.7393l3.69629 1.78125l-0.1875 -4.55176c-0.302734 -8.44141 4.69238 -16.8672 9.0625 -21.5195c15.3809 -16.376 35.082 -21.3047 41.5557 -22.9248l0.128906 -0.0322266
c0.291016 -0.0732422 0.540039 -0.134766 0.754883 -0.193359c6.68262 -1.82422 18.1689 -4.45605 34.9062 -6.63184l1.75293 -0.145508c7.73145 -0.295898 14.2695 -0.492188 21.0293 -0.492188l0.40332 0.00195312l0.708984 -4.82031
c-35.7383 -10.7422 -64.1338 -16.1895 -84.3984 -16.1895z" />
    <glyph glyph-name="uniE035" unicode="&#xe035;" 
d="M200 -40v130.879l-80 63.3652l-80 -63.3652v-130.879h40v60h80v-60h40zM140 -60v60h-40v-60h-80v160.551l100 79.2061l100 -79.2061v-160.551h-80z" />
    <glyph glyph-name="uniE036" unicode="&#xe036;" 
d="M0.483398 83.5742l119.465 95.7646l120.53 -95.1797l-14.1289 -18.1494l-106.281 84.0869l-105.307 -84.5537zM190 -40v93.376l-69.1543 57.1006l-70.8457 -57.1279v-93.3486h140zM30 -60v123.081l90.9023 72.8574l89.0977 -72.8848v-123.054h-180z" />
    <glyph glyph-name="uniE037" unicode="&#xe037;" 
d="M130 -60v70h-20v-70h-80v137.365l-14.3203 -11.2145l-15.1426 19.2607l119.463 93.6074l119.463 -93.6074l-15.1426 -19.2607l-14.3203 11.2145v-137.365h-80zM190 93.0273l-70 54.8184l-70 -54.8184v-133.027h40v70h60v-70h40v133.027z" />
    <glyph glyph-name="uniE038" unicode="&#xe038;" 
d="M190 -40v90.876l-70.1543 55.1006l-69.8457 -55.1279v-90.8486h40v60h60v-60h40zM130 -60v60h-20v-60h-80v120.581l89.9023 70.8574l90.0977 -70.8857v-120.553h-80zM120 146.101l-103.823 -82.1963l-15.1426 19.2607l38.9658 30.8212v56.0138h30v-32.2844l50 39.549
l118.966 -94.0996l-15.1426 -19.2607z" />
    <glyph glyph-name="uniE039" unicode="&#xe039;" 
d="M160 10.001v30h-20v-30h20zM130 0.000976562v50h40v-50h-40zM100 10.001v30h-20v-30h20zM70 0.000976562v50h40v-50h-40zM190 -39.999v99.376l-69.1543 54.1006l-70.8457 -54.1279v-99.3486h140zM30 -59.999v129.081l90 69.918l90 -69.9453v-129.054h-180zM120 152.327
l-105.571 -81.998l-13.2891 16.9023l38.8604 30.2235v52.546h30v-29.2136l50 38.8874l118.86 -92.4434l-13.2891 -16.9023z" />
    <glyph glyph-name="uniE03A" unicode="&#xe03a;" 
d="M170 -10v30h-30v-30h30zM130 -20v50h50v-50h-50zM140 70v30h-40v-30h40zM90 60v50h60v-50h-60zM100 -10v30h-30v-30h30zM60 -20v50h50v-50h-50zM50 74.6962v24.3585l-4.53516 -3.56537l-12.3613 15.7227l86.8965 68.3164l86.8965 -68.3164l-12.3613 -15.7227
l-4.53516 3.56537v-25.4605l46.0547 -35.4105l-12.1465 -15.8896l-3.9082 3.008v-85.3019h-200v85.3573l-3.87988 -3.1005l-12.1523 15.8965zM70 75.6162v-10.3027l-30 -23.9737v-81.3398h160v80.6952l-30 23.0899v11.8311v13.3555v25.8062l-50 39.3081l-50 -39.3081
v-24.2046v-14.957z" />
    <glyph glyph-name="uniE03B" unicode="&#xe03b;" 
d="M180 10v30h-40v-30h40zM130 0v50h60v-50h-60zM100 10v30h-40v-30h40zM50 0v50h60v-50h-60zM215.112 80l-22.7812 50h-146.094l-21.6016 -50h190.477zM11.5586 60c-1.50391 0 -2.99805 0.304688 -4.34277 0.977539c-5.99512 2.99707 -7.99707 9.61426 -5.66211 14.9561
l27.5195 65.0752l0.589844 1.17383c2.40723 4.79199 7.31152 7.81738 12.6748 7.81738h87.6621v30h50v-30h15.3223c5.92578 0 11.2529 -3.29199 13.9023 -8.5918l0.259766 -0.5625l28.9395 -64.8691c2.24414 -4.98145 0.607422 -11.2764 -4.73242 -14.5068
c-1.6582 -1.00293 -3.58301 -1.46973 -5.52148 -1.46973h-8.16992v-120h-90v40h-20v-40h-90v120h-8.44141zM140 150h30v20h-30v-20zM200 60h-160v-100h60v30h40v-30h60v100z" />
    <glyph glyph-name="uniE03C" unicode="&#xe03c;" 
d="M210.698 49.0371l10.8848 10.8848l-101.551 100.252l-101.395 -100.249l10.8887 -10.8877l90.5859 89.5869zM151 59v-28h39v15.9443l-12.2017 12.0557h-26.7983zM166.665 70l-19.23 19h-54.6464l-19.2304 -19h93.1068zM62.4249 59l-12.4249 -12.2761v-15.7239h39v28
h-26.5751zM136.302 100l-16.1897 15.9961l-16.1901 -15.9961h32.3798zM210 30.6173v-90.6173h-180v90.6046c-0.157577 -0.00722459 -0.315812 -0.0108565 -0.474609 -0.0108565c-2.69922 0 -5.23242 1.04785 -7.13574 2.95117l-19.2471 19.248
c-1.9043 1.90723 -2.9541 4.44141 -2.9541 7.13574c0 2.69727 1.0498 5.23242 2.95801 7.1377l110.967 109.81c1.58105 1.57324 3.68359 2.44043 5.91797 2.44043c2.23633 0 4.33789 -0.868164 5.91504 -2.44434l111.126 -109.8
c1.91113 -1.9082 2.96387 -4.44531 2.96387 -7.14355c0 -2.69434 -1.04883 -5.22852 -2.95508 -7.13477l-19.248 -19.249c-1.90234 -1.90332 -4.43652 -2.95117 -7.13477 -2.95117c-0.234084 0 -0.466932 0.00788642 -0.698242 0.0235336zM190 20h-39v-29h39v29zM190 -20
h-39v-20h39v20zM140 -40v20v11v29v11v28h-40v-28v-11v-29v-11v-20h40zM89 -40v20h-39v-20h39zM50 -9h39v29h-39v-29z" />
    <glyph glyph-name="uniE03D" unicode="&#xe03d;" 
d="M135 -60v60h-40v-60h-75v154.551l95 80.2061l95 -80.2061v-154.551h-75z" />
    <glyph glyph-name="uniE03E" unicode="&#xe03e;" 
d="M30 -60v125.081l90 70.9189l90 -70.9463v-125.054h-180zM0.483398 84.5742l119.465 94.7646l119.78 -94.4297l-14.1289 -18.1494l-105.531 83.3369l-105.307 -83.5537z" />
    <glyph glyph-name="uniE03F" unicode="&#xe03f;" 
d="M120 147.846l-104.32 -81.6953l-15.1426 19.2607l119.463 93.6074l119.463 -93.6074l-15.1426 -19.2607zM140 -60v70h-40v-70h-70v123.496l90.5 70.999l89.5 -70.999v-123.496h-70z" />
    <glyph glyph-name="uniE040" unicode="&#xe040;" 
d="M140 -60v70h-40v-70h-70v119.581l90.9023 72.8574l89.0977 -72.8848v-119.554h-70zM120 146.237l-103.359 -82.8311l-16.0703 20.4385l39.4297 31.518v54.6373h30v-30.6568l50 39.9674l119.43 -94.4658l-16.0703 -20.4385z" />
    <glyph glyph-name="uniE041" unicode="&#xe041;" 
d="M100 0v50h-40v-50h40zM180 0v50h-40v-50h40zM30 -60v126.081l90 68.9189l90 -68.9473v-126.053h-180zM120 148.101l-103.823 -81.1963l-15.1426 19.2607l38.9658 30.4937v53.3413h30v-13v-16.8641l50 39.1287l119.966 -94.0996l-15.1426 -19.2607z" />
    <glyph glyph-name="uniE042" unicode="&#xe042;" 
d="M180 -30v50h-50v-50h50zM110 -30v50h-50v-50h50zM90 90v-40h60v40h-60zM180 31.4443l30 -23.2178v-68.2266h-180v68.1602l30 24.8496v56.1338l60 43.8564l60 -43.8564v-57.6992zM119.995 145.975l-75.0967 -54.5098l-16.0635 20.4297l91.1602 66.9854l91.1602 -66.9854
l-16.0635 -20.4297zM190 36.9316v32.7725l50.249 -38.8613l-15.7949 -20.6602zM0.782227 31.8018l49.2178 39.0381v-32.8711l-33.417 -26.833z" />
    <glyph glyph-name="uniE043" unicode="&#xe043;" 
d="M11.1699 69.999c-3.81348 0 -7.32031 1.69238 -9.37891 4.52539c-2.06445 2.84082 -2.36328 6.36719 -0.802734 9.44531l27.0049 58.4502l0.211914 0.359375c2.62012 4.45312 7.80762 7.21973 13.5381 7.21973h155.033c5.73047 0 10.918 -2.7666 13.5391 -7.22168
l0.310547 -0.578125l28.334 -58.1543c1.61133 -3.04102 1.34082 -6.62793 -0.761719 -9.52148c-2.05859 -2.83301 -5.56543 -4.52441 -9.37891 -4.52441h-217.649zM130 155v25h50v-25h-50zM200 0v40h-60v-40h60zM100 0v40h-60v-40h60zM10 60h220v-120h-90v40h-40v-40h-90
v120z" />
    <glyph glyph-name="uniE044" unicode="&#xe044;" 
d="M120 140.614l-99.8857 -100.207l-19.4082 19.4697l119.203 119.416l119.384 -119.417l-19.4082 -19.4688zM30 -10v40h70v-40h-70zM140 -60v40h70v-40h-70zM140 -10v40h70v-40h-70zM156.332 90h-72.6641l29.8564 29.9521l6.47559 5.99707l6.47559 -5.99707zM166.3 80
l39.8711 -40h-172.343l39.8721 40h92.5996zM30 -20h70v-40h-70v40z" />
    <glyph glyph-name="uniE045" unicode="&#xe045;" 
d="M30 90v80h80v-20h-45.6082l62.1082 -62.1074l77.1963 77.1963l14.1426 -14.1416l-91.3389 -91.3398l-76.5 76.5008v-46.1082h-20zM0 -60v35.0459l18.7715 34.9541h17.6816l-36.3848 -70h-0.0683594zM149.715 -60l36.3857 70h17.793l-36.3848 -70h-17.7939zM192.188 -60
l36.3848 70h11.4268v-9l-29.9619 -61h-17.8496zM107.733 -60l36.3848 70h17.793l-36.3848 -70h-17.793zM65.751 -60l36.3848 70h17.793l-36.3848 -70h-17.793zM23.7676 -60l36.3857 70h17.793l-36.3857 -70h-17.793zM0 20v20h240v-20h-240z" />
    <glyph glyph-name="uniE046" unicode="&#xe046;" 
d="M199.162 -43.0908c-9.75586 0 -19.9902 8.06348 -28.8174 22.707c-8.29492 13.7578 -14.8467 32.4131 -18.4482 52.5264c-3.80762 21.251 -3.9873 41.9785 -0.505859 58.3643c3.73438 17.5791 11.7402 28.8105 21.9629 30.8145
c0.499023 0.0976562 1.00977 0.146484 1.51465 0.146484c3.73242 0 6.96484 -2.66211 7.68262 -6.33008c0.40332 -2.05371 -0.0175781 -4.1416 -1.18555 -5.87891c-1.16797 -1.73633 -2.94238 -2.91602 -4.99609 -3.31738l-0.0917969 -0.0185547l-0.0908203 -0.0263672
c-2.27148 -0.677734 -6.85059 -6.33984 -9.46484 -18.6475c-3.06934 -14.4512 -2.85547 -33.041 0.601562 -52.3418c3.27246 -18.2754 9.1123 -35.0381 16.4434 -47.2002c5.9873 -9.92969 12.2764 -15.126 15.3955 -15.126h0.28418l0.271484 0.0800781
c2.27539 0.672852 6.86133 6.33008 9.47852 18.6465c2.31055 10.8828 2.77051 24.2148 1.33008 38.5557c-0.431641 4.2998 2.71484 8.14844 7.01367 8.58008c0.264648 0.0253906 0.529297 0.0400391 0.789062 0.0400391c4.03809 0 7.3877 -3.0332 7.79199 -7.05469
c1.60059 -15.9326 1.04883 -30.9326 -1.5957 -43.3789c-3.73535 -17.5762 -11.7402 -28.8076 -21.9619 -30.8145c-1.11035 -0.21582 -2.25488 -0.326172 -3.40137 -0.326172zM188.342 92.0576c-2.48633 0 -4.86523 0.947266 -6.69922 2.66699l-2.5752 2.41602
l3.16602 1.56543c6.72266 3.32324 10.4102 10.7793 8.96973 18.1309c-1.5293 7.79297 -8.39844 13.4502 -16.334 13.4502c-1.07129 0 -2.15234 -0.105469 -3.21289 -0.313477c-4.82129 -0.944336 -9.28516 -3.2334 -13.2646 -6.80176l-2.80078 -2.51074l-1.16309 3.57715
c-0.832031 2.55859 -0.572266 5.37402 0.711914 7.72461c4.97754 9.11328 14.5273 14.7744 24.9238 14.7744c15.6426 0 28.3691 -12.6973 28.3691 -28.3057c0 -10.8154 -6.03125 -20.5283 -15.7402 -25.3496c-1.36719 -0.679688 -2.83008 -1.02441 -4.35059 -1.02441z
M14.667 -59.999c-8.08789 0 -14.667 6.57129 -14.667 14.6484v35.2422c0 3.87695 1.5 7.53223 4.22461 10.291l0.255859 0.25293c5.88672 5.80176 57.4141 56.5889 79.7324 78.8184c-1.88965 6.81836 -2.84766 13.8848 -2.84766 21.0273
c0 37.3311 26.5547 69.7539 63.1523 77.125c5.68359 1.53027 11.5312 2.3916 17.3828 2.56055c0.762695 0.0224609 1.52344 0.0332031 2.2832 0.0332031c20.3408 0 39.4463 -7.95117 53.7988 -22.3887c14.9033 -14.9941 22.707 -34.8994 21.9707 -56.0479
c-0.198242 -5.6709 -1.05469 -11.3506 -2.54688 -16.8867c-5.2998 -26.2676 -24.1914 -48.4844 -49.3174 -57.998c-2.23828 -0.847656 -4.55762 -1.60449 -6.89648 -2.25l-2.4375 -0.672852l-0.595703 2.45703c-0.823242 3.39648 -1.54883 6.84375 -2.16016 10.25
c-0.265625 1.4873 -0.504883 2.96289 -0.731445 4.43652l-0.323242 2.11328l2.05078 0.606445c1.54004 0.455078 2.89844 0.907227 4.15527 1.38281c18.9785 7.18652 33.1953 23.9736 37.1006 43.8135l0.142578 0.613281c1.1709 4.26465 1.82812 8.5459 1.97754 12.8174
c0.545898 15.6816 -5.2373 30.4385 -16.2861 41.5527c-10.6465 10.7109 -24.8232 16.6104 -39.917 16.6104c-0.567383 0 -1.13477 -0.0078125 -1.7041 -0.0253906c-4.41113 -0.126953 -8.82324 -0.788086 -13.1123 -1.96484l-0.613281 -0.145508
c-27.7246 -5.45312 -47.7822 -29.834 -47.7822 -57.9912c0 -6.99902 1.21289 -13.8477 3.60449 -20.3555l2.16016 -5.87598l-4.4248 -4.42773c-18.4561 -18.4639 -73.4375 -72.667 -82.7051 -81.7998v-28.2305h39.2969v29.3418l36.8057 -0.00878906v22.1963l2.72363 2.8418
c4.0332 4.20605 24.1084 25.1104 29.0254 29.6865l4.57617 4.26074l5.79102 -2.35938c0.665039 -0.269531 1.33789 -0.515625 2.00977 -0.760742l1.41504 -0.517578l0.175781 -1.49707c0.478516 -4.06934 1.08594 -8.16895 1.80566 -12.1855
c0.226562 -1.2627 0.464844 -2.51953 0.713867 -3.77148l0.753906 -3.79492l-3.75293 0.942383c-1.4707 0.370117 -2.9209 0.77832 -4.32812 1.2168c-5.38184 -5.4209 -14.2676 -14.6016 -21.3174 -21.9385v-19.9824c0 -8.07129 -6.06543 -13.9297 -14.4199 -13.9297
l-22.3848 0.00488281v-15.415c0 -7.67676 -6.25293 -13.9219 -13.9375 -13.9219h-49.876z" />
    <glyph glyph-name="uniE047" unicode="&#xe047;" 
d="M199.162 -43.0498c-9.74023 0 -19.9619 8.05664 -28.7832 22.6875c-8.29199 13.7539 -14.8418 32.4043 -18.4443 52.5146c-3.80566 21.2461 -3.98438 41.9678 -0.503906 58.3477c3.73047 17.5615 11.7246 28.7822 21.9316 30.7822
c0.496094 0.0976562 1.00293 0.146484 1.50684 0.146484c3.71387 0 6.92773 -2.64746 7.64258 -6.29688c0.401367 -2.04297 -0.0175781 -4.12012 -1.17871 -5.84766c-1.16211 -1.72949 -2.92676 -2.90137 -4.96973 -3.30078l-0.0957031 -0.0195312l-0.0917969 -0.0283203
c-2.28125 -0.680664 -6.875 -6.35352 -9.49316 -18.6768c-3.07031 -14.4561 -2.85742 -33.0498 0.601562 -52.3574c3.27344 -18.2812 9.11719 -35.0498 16.4502 -47.2129c5.99316 -9.94336 12.2988 -15.1465 15.4287 -15.1465h0.290039l0.277344 0.0820312
c2.28418 0.675781 6.88574 6.34375 9.50684 18.6777c2.31152 10.8867 2.77148 24.2227 1.33105 38.5674c-0.429688 4.27832 2.7002 8.10645 6.97656 8.53613c0.261719 0.0253906 0.525391 0.0400391 0.786133 0.0400391c4.0166 0 7.34863 -3.01758 7.75098 -7.01758
c1.59961 -15.9268 1.04883 -30.9229 -1.59473 -43.3672c-3.73145 -17.5596 -11.7256 -28.7783 -21.9307 -30.7822c-1.10938 -0.21875 -2.25195 -0.328125 -3.39453 -0.328125zM14.666 -60.002c-8.08691 0 -14.666 6.57422 -14.666 14.6514v35.2422
c0 3.87695 1.5 7.53223 4.22461 10.291l0.555664 0.548828c9.62891 9.48926 58.0645 57.2383 79.4326 78.5225c-1.88965 6.81738 -2.84668 13.8828 -2.84668 21.0273c0 37.332 26.5547 69.7539 63.1514 77.125c5.68359 1.53027 11.5312 2.3916 17.3828 2.56055
c0.762695 0.0224609 1.52148 0.0332031 2.28125 0.0332031c20.3418 0 39.4482 -7.95215 53.8008 -22.3906c14.9033 -14.9932 22.707 -34.8994 21.9707 -56.0479c-0.198242 -5.67188 -1.05469 -11.3516 -2.54688 -16.8867
c-5.30078 -26.2646 -24.1924 -48.4844 -49.3164 -57.9971c-2.23828 -0.847656 -4.55762 -1.60449 -6.89648 -2.25l-2.4375 -0.672852l-0.594727 2.45801c-0.290039 1.2002 -0.578125 2.45703 -0.870117 3.80469h-0.0107422l-0.407227 1.95508
c-0.28418 1.37793 -0.553711 2.7666 -0.807617 4.16602l-0.0654297 0.325195c-0.272461 1.52441 -0.505859 2.97168 -0.727539 4.41602c-2.53906 16.5625 -2.51367 32.373 0.0722656 44.5391c1.45508 6.84473 3.40527 10.4199 4.17676 11.6396l0.44043 0.697266
l0.773438 0.288086c0.289062 0.108398 0.570312 0.233398 0.851562 0.358398l1.48145 0.651367l1.20898 -1.09375l0.212891 -0.199219c1.05859 -0.994141 2.42676 -1.54102 3.85059 -1.54102c0.871094 0 1.71191 0.199219 2.49805 0.588867
c8.28516 4.11328 13.4307 12.3984 13.4307 21.6211c0 13.3125 -10.8584 24.1416 -24.2061 24.1416c-8.87207 0 -17.0225 -4.83008 -21.2705 -12.6064c-0.74707 -1.36914 -0.891602 -2.94629 -0.40625 -4.44141l0.583008 -1.79102l-1.13477 -1.06445
c-7.04688 -6.6084 -12.2578 -17.0957 -15.0693 -30.3291c-3.07422 -14.4736 -3.50391 -31.916 -1.23926 -50.4385c0.185547 -1.52051 0.385742 -3.04297 0.606445 -4.57129c0.0820312 -0.566406 0.172852 -1.13477 0.263672 -1.7041l0.141602 -0.900391
c0.214844 -1.37695 0.429688 -2.75488 0.677734 -4.13672c0.226562 -1.26172 0.464844 -2.51953 0.713867 -3.77148l0.753906 -3.79688l-3.75293 0.945312c-1.47461 0.371094 -2.9248 0.779297 -4.32715 1.21582c-5.38965 -5.42871 -14.2725 -14.6074 -21.3184 -21.9385
v-19.9824c0 -8.07129 -6.06543 -13.9297 -14.4199 -13.9297l-22.3848 0.00488281v-15.415c0 -7.67676 -6.25293 -13.9219 -13.9375 -13.9219h-49.877z" />
    <glyph glyph-name="uniE048" unicode="&#xe048;" 
d="M109.067 160.4c-31.3848 0 -55.9678 -25.5225 -55.9678 -58.1035c0 -17.75 12.1836 -32.2549 12.3066 -32.3984l0.316406 -0.388672c6.77734 -8.84375 12.9062 -27.5 12.9062 -39.1992v-5.37402c0 -3.41699 4.79102 -6.63477 8.50488 -6.63477h43.374
c4.16504 0 9.28516 3.6582 9.28516 6.63477v4.39258c0 11.0967 5.10156 29.8711 12.4238 39.0684l0.334961 0.396484c0.165039 0.189453 13.2461 15.2646 13.2461 33.502c0 32.0391 -25.4492 58.1045 -56.7305 58.1045zM108.283 -60.3047
c-7.00684 0 -13.6748 2.47754 -18.7754 6.97754l-0.100586 0.09375l-0.646484 0.637695l-18.5117 20.5186v36.409c-6.50099 4.64546 -11.2197 11.8785 -11.2197 20.6046v5.37402c0 7.19434 -4.62207 21.5654 -8.69434 27.0547
c-1.94141 2.31836 -16.835 20.8926 -16.835 44.9316c0 43.5723 33.1934 77.7031 75.5674 77.7031c42.0889 0 76.3301 -34.8584 76.3301 -77.7041c0 -24.7295 -15.8994 -43.876 -17.9678 -46.2598c-3.83984 -5.01172 -8.03809 -18.9463 -8.03809 -26.707v-4.39258
c0 -8.13265 -4.47408 -15.1517 -10.7422 -19.8774v-37.5249l-21.5898 -20.8613c-5.10059 -4.49902 -11.7686 -6.97754 -18.7764 -6.97754zM129.049 -1.29688h-39.2002v-23.2451l12.9658 -14.3701c1.46484 -1.14355 3.39941 -1.77051 5.46875 -1.77051
c2.14355 0 4.20801 0.706055 5.67578 1.93652l15.0898 14.5918v22.8574z" />
    <glyph glyph-name="uniE049" unicode="&#xe049;" 
d="M108.87 160.452c-31.3018 0 -55.8213 -25.4551 -55.8213 -57.9512c0 -17.7031 12.1514 -32.1699 12.2744 -32.3145l0.31543 -0.386719c6.75977 -8.82129 12.873 -26.4277 12.873 -38.0957v-5.36035c0 -3.4082 4.7793 -6.61719 8.4834 -6.61719h43.2598
c4.15527 0 9.26074 3.64941 9.26074 6.61719v4.38086c0 11.0684 5.08984 28.793 12.3916 37.9668l0.333984 0.395508c0.165039 0.188477 13.2109 15.2246 13.2109 33.4141c0 31.9541 -25.3828 57.9512 -56.582 57.9512zM108.889 -59.6758
c-7.13672 0 -13.9277 2.47168 -19.1221 6.95996l-0.102539 0.09375l-0.657227 0.635742l-18.8535 20.4648v37.3123c-6.48396 4.63386 -11.1904 11.8486 -11.1904 20.552v5.36035c0 7.17578 -4.61035 20.5078 -8.6709 25.9834
c-1.93652 2.3125 -16.792 20.8379 -16.792 44.8135c0 43.458 33.1064 77.5 75.3701 77.5c41.9775 0 76.1299 -34.7666 76.1299 -77.501c0 -24.665 -15.8584 -43.7607 -17.9199 -46.1387c-3.8291 -4.99902 -8.0166 -17.8975 -8.0166 -25.6377v-4.38086
c0 -7.37755 -3.69158 -13.8365 -9.06348 -18.4914v-39.7596l-21.9883 -20.8057c-5.19336 -4.48926 -11.9844 -6.96094 -19.123 -6.96094zM130.038 -20v20.1758l-39.9229 6.38378e-16v-20.1758h39.9229zM123.299 -30h-27.6606l7.6808 -8.33691
c1.49121 -1.14062 3.46289 -1.7666 5.56934 -1.7666c2.18359 0 4.28516 0.703125 5.78125 1.93164z" />
    <glyph glyph-name="uniE04A" unicode="&#xe04a;" 
d="M87.6699 -1.02734c-13.3018 0 -28.124 10.7686 -28.124 26.2197v5.37109c0 7.18945 -4.62598 21.5518 -8.69922 27.0371c-1.94238 2.31738 -16.8467 20.8809 -16.8467 44.9053c0 43.5459 33.2158 77.6572 75.6182 77.6572c42.1172 0 76.3818 -34.8379 76.3818 -77.6582
c0 -24.7148 -15.9102 -43.8496 -17.9785 -46.2314c-3.84277 -5.00977 -8.04395 -18.9355 -8.04395 -26.6914v-4.38965c0 -15.0068 -15.2598 -26.2197 -28.9043 -26.2197h-43.4033zM108.834 -60c-7.01172 0 -13.6836 2.47656 -18.7881 6.97363l-0.100586 0.0947266
l-0.646484 0.636719l-18.5244 20.5068v28.0771l3.38867 -1.40137c4.38574 -1.8125 9.05566 -2.77051 13.5068 -2.77051h43.4033c4.81836 0 9.90234 1.13086 14.7012 3.27148l3.4502 1.54004v-29.1064l-21.6025 -20.8486
c-5.10352 -4.49707 -11.7754 -6.97363 -18.7881 -6.97363z" />
    <glyph glyph-name="uniE04B" unicode="&#xe04b;" 
d="M88.1338 -1.29688c-13.293 0 -28.1045 10.7734 -28.1045 26.2334v5.37402c0 7.19434 -4.62207 21.5654 -8.69434 27.0547c-1.94141 2.31836 -16.835 20.8926 -16.835 44.9316c0 43.5723 33.1934 77.7031 75.5674 77.7031c42.0889 0 76.3301 -34.8584 76.3301 -77.7041
c0 -24.7295 -15.8994 -43.876 -17.9678 -46.2598c-3.83984 -5.01172 -8.03809 -18.9463 -8.03809 -26.707v-4.39258c0 -15.0146 -15.25 -26.2334 -28.8848 -26.2334h-43.373zM109.283 -60.3047c-7.00684 0 -13.6748 2.47754 -18.7754 6.97754l-0.100586 0.09375
l-0.646484 0.637695l-18.5117 20.5186v28.0938l3.38672 -1.40137c4.38281 -1.81445 9.0498 -2.77344 13.498 -2.77344h43.374c4.81641 0 9.89648 1.13184 14.6914 3.27441l3.44922 1.54102v-29.124l-21.5898 -20.8613
c-5.09961 -4.49805 -11.7676 -6.97656 -18.7754 -6.97656z" />
    <glyph glyph-name="uniE04C" unicode="&#xe04c;" 
d="M179.809 127.5c-4.44238 0 -8.05664 -3.58887 -8.05664 -8s3.61426 -8 8.05664 -8c4.44336 0 8.05762 3.58887 8.05762 8s-3.61426 8 -8.05762 8zM179.809 97.5c-12.2168 0 -22.1562 9.86914 -22.1562 22s9.93945 22 22.1562 22c12.2178 0 22.1572 -9.86914 22.1572 -22
s-9.93848 -22 -22.1572 -22zM59.8086 127.5c-4.44238 0 -8.05664 -3.58887 -8.05664 -8s3.61426 -8 8.05664 -8c4.44336 0 8.05762 3.58887 8.05762 8s-3.61426 8 -8.05762 8zM59.8086 97.5c-12.2168 0 -22.1562 9.86914 -22.1562 22s9.93945 22 22.1562 22
c12.2178 0 22.1572 -9.86914 22.1572 -22s-9.93848 -22 -22.1572 -22zM50.4092 149.906c-16.7754 0 -30.4219 -13.335 -30.4219 -29.7256v-0.361328c0 -16.3916 13.6465 -29.7256 30.4219 -29.7256h139.182c16.7754 0 30.4219 13.335 30.4219 29.7256v0.361328
c0 16.3916 -13.6465 29.7256 -30.4219 29.7256h-139.182zM50.4092 70c-27.7959 0 -50.4092 22.3486 -50.4092 49.8193v0.361328c0 27.4707 22.6133 49.8193 50.4092 49.8193h139.182c27.7959 0 50.4092 -22.3486 50.4092 -49.8193v-0.361328
c0 -27.4707 -22.6133 -49.8193 -50.4092 -49.8193h-139.182zM179.809 7.5c-4.44238 0 -8.05664 -3.58887 -8.05664 -8s3.61426 -8 8.05664 -8c4.44336 0 8.05762 3.58887 8.05762 8s-3.61426 8 -8.05762 8zM179.809 -22.5c-12.2168 0 -22.1562 9.86914 -22.1562 22
s9.93945 22 22.1562 22c12.2178 0 22.1572 -9.86914 22.1572 -22s-9.93848 -22 -22.1572 -22zM59.8086 7.5c-4.44238 0 -8.05664 -3.58887 -8.05664 -8s3.61426 -8 8.05664 -8c4.44336 0 8.05762 3.58887 8.05762 8s-3.61426 8 -8.05762 8zM59.8086 -22.5
c-12.2168 0 -22.1562 9.86914 -22.1562 22s9.93945 22 22.1562 22c12.2178 0 22.1572 -9.86914 22.1572 -22s-9.93848 -22 -22.1572 -22zM50.4092 29.9062c-16.7754 0 -30.4219 -13.335 -30.4219 -29.7256v-0.361328c0 -16.3916 13.6465 -29.7256 30.4219 -29.7256h139.182
c16.7754 0 30.4219 13.335 30.4219 29.7256v0.361328c0 16.3916 -13.6465 29.7256 -30.4219 29.7256h-139.182zM50.4092 -50c-27.7959 0 -50.4092 22.3486 -50.4092 49.8193v0.361328c0 27.4707 22.6133 49.8193 50.4092 49.8193h139.182
c27.7959 0 50.4092 -22.3486 50.4092 -49.8193v-0.361328c0 -27.4707 -22.6133 -49.8193 -50.4092 -49.8193h-139.182z" />
    <glyph glyph-name="uniE04D" unicode="&#xe04d;" 
d="M169.759 -5c0 -4.64648 3.93555 -8.4248 8.77246 -8.4248s8.77148 3.78027 8.77148 8.4248s-3.93457 8.4248 -8.77148 8.4248s-8.77246 -3.77832 -8.77246 -8.4248zM199 -5c0 -10.8398 -9.18164 -19.6592 -20.4678 -19.6592s-20.4678 8.81934 -20.4678 19.6592
s9.18164 19.6592 20.4678 19.6592s20.4678 -8.81934 20.4678 -19.6592zM192.546 40c26.166 0 47.4541 -20.1152 47.4541 -44.8398v-0.319336c0 -24.7256 -21.2881 -44.8408 -47.4541 -44.8418h-105.853c4.69922 5.71289 8.34766 12.3975 10.624 19.7275h95.2285
c14.8594 0 26.9482 11.2666 26.9482 25.1133v0.319336c0 13.8467 -12.0889 25.1133 -26.9482 25.1133h-92.5459v19.7275h92.5459zM192.546 170c26.166 0 47.4541 -20.1152 47.4541 -44.8398v-0.319336c0 -24.7256 -21.2881 -44.8408 -47.4541 -44.8408h-92.5459v19.7266
h92.5459c14.8594 0 26.9482 11.2666 26.9482 25.1133v0.319336c0 13.8467 -12.0889 25.1133 -26.9482 25.1133h-95.2285c-2.27637 7.33008 -5.9248 14.0146 -10.624 19.7275h105.853zM169.759 125c0 -4.64648 3.93555 -8.4248 8.77246 -8.4248
s8.77148 3.78027 8.77148 8.4248s-3.93457 8.4248 -8.77148 8.4248s-8.77246 -3.77832 -8.77246 -8.4248zM199 125c0 -10.8398 -9.18164 -19.6592 -20.4678 -19.6592s-20.4678 8.81934 -20.4678 19.6592s9.18164 19.6592 20.4678 19.6592s20.4678 -8.81934 20.4678 -19.6592
zM45 128.241c-4.64648 0 -8.4248 -3.93555 -8.4248 -8.77246s3.78027 -8.77148 8.4248 -8.77148s8.4248 3.93457 8.4248 8.77148s-3.77832 8.77246 -8.4248 8.77246zM45 99c-10.8398 0 -19.6592 9.18164 -19.6592 20.4678s8.81934 20.4688 19.6592 20.4688
s19.6592 -9.18164 19.6592 -20.4678s-8.81934 -20.4688 -19.6592 -20.4688zM45 10.2412c-4.64648 0 -8.4248 -3.93555 -8.4248 -8.77246s3.78027 -8.77148 8.4248 -8.77148s8.4248 3.93457 8.4248 8.77148s-3.77832 8.77246 -8.4248 8.77246zM45 -19
c-10.8398 0 -19.6592 9.18164 -19.6592 20.4678s8.81934 20.4678 19.6592 20.4678s19.6592 -9.18164 19.6592 -20.4678s-8.81934 -20.4678 -19.6592 -20.4678zM44.8408 159.494c-13.8467 0 -25.1133 -12.0889 -25.1133 -26.9482v-145.092
c0 -14.8594 11.2656 -26.9482 25.1133 -26.9482h0.319336c13.8467 0 25.1133 12.0889 25.1133 26.9482v145.092c0 14.8594 -11.2656 26.9482 -25.1133 26.9482h-0.319336zM44.8408 -60c-24.7256 0 -44.8408 21.2881 -44.8408 47.4541v145.092
c0 26.166 20.1152 47.4541 44.8408 47.4541h0.319336c24.7246 0 44.8398 -21.2881 44.8398 -47.4541v-145.092c0 -26.166 -20.1152 -47.4541 -44.8408 -47.4541h-0.318359z" />
    <glyph glyph-name="uniE04E" unicode="&#xe04e;" 
d="M12.4102 -60c-2.23633 0 -4.31348 0.527344 -6.00684 1.52539c-5.75488 3.38965 -7.66211 10.5039 -4.34277 16.1953l19.5205 31.7793h23.208l-18.1895 -29.5h145.81l43.0264 73.7598l9.26465 16.2402h2.80469c2.64453 0 5.06543 -0.735352 7.00391 -2.125
c4.95117 -3.5498 6.38574 -10.165 3.33789 -15.3877l-50.5811 -86.7109c-2.08008 -3.56348 -5.93359 -5.77637 -10.0576 -5.77637h-164.798zM12.4102 0c-2.23633 0 -4.31348 0.527344 -6.00684 1.52539c-5.75488 3.38965 -7.66211 10.5039 -4.34277 16.1953l19.5205 31.7793
h23.208l-18.1895 -29.5h145.81l43.0264 73.7598l9.26465 16.2402h2.80469c2.64453 0 5.06543 -0.735352 7.00391 -2.125c4.95117 -3.5498 6.38574 -10.165 3.33789 -15.3877l-50.5811 -86.7109c-2.08008 -3.56348 -5.93359 -5.77637 -10.0576 -5.77637h-164.798zM172.408 80
l40.834 70h-145.596l-40.833 -70h145.595zM12.2637 60.001c-4.15625 0 -8.02441 2.23828 -10.0957 5.84277s-2.05566 8.0752 0.0380859 11.666l50.583 86.7129c2.07715 3.56348 5.93066 5.77734 10.0566 5.77734h164.944c4.1582 0 8.02637 -2.24023 10.0967 -5.84473
c2.07129 -3.60645 2.05566 -8.07715 -0.0410156 -11.667l-50.5811 -86.7109c-2.08008 -3.56348 -5.93262 -5.77637 -10.0576 -5.77637h-164.943z" />
    <glyph glyph-name="uniE04F" unicode="&#xe04f;" 
d="M151.027 119.093c-8.65625 0 -14.7627 -2.7832 -17.3613 -5.16699c-1.72754 -1.58496 -1.72754 -4.30957 0 -5.89551c2.59863 -2.38379 8.70508 -5.16699 17.3613 -5.16699c8.65527 0 14.7617 2.78418 17.3594 5.16797c1.72852 1.58496 1.72852 4.30859 0 5.89453
c-2.59766 2.38379 -8.70312 5.16699 -17.3594 5.16699zM151.027 92.3633c-16.8115 0 -29.4883 8.00293 -29.4883 18.6143c0 10.6123 12.6768 18.6152 29.4883 18.6152c16.8105 0 29.4863 -8.00195 29.4863 -18.6152c0 -10.6123 -12.6768 -18.6143 -29.4863 -18.6143z
M90.5352 84.9736c-8.65625 0 -14.7617 -2.7832 -17.3613 -5.16699c-1.72754 -1.58496 -1.72754 -4.30957 0 -5.89453c2.59863 -2.38379 8.7041 -5.16797 17.3613 -5.16797s14.7627 2.78418 17.3613 5.16797c1.72754 1.58496 1.72754 4.30859 0 5.89453
c-2.59961 2.38379 -8.70508 5.16699 -17.3613 5.16699zM90.5352 58.2441c-16.8115 0 -29.4883 8.00293 -29.4883 18.6152c0 10.6113 12.6768 18.6143 29.4883 18.6143c16.8105 0 29.4883 -8.00293 29.4883 -18.6143c0 -10.6123 -12.6777 -18.6152 -29.4883 -18.6152z
M94.6865 -53l-94.6865 63.2549v81.1484l147.114 77.1084l92.8857 -53.1895v-78.9102zM100.525 -25.4737l119.411 73.1544v48.5188l-119.411 -69.4709v-52.2023zM89.7051 -25.6746v52.3641l-69.6416 45.7288v-50.8938zM25.2143 82.0409l69.8687 -45.8886l119.744 69.6604
l-67.3153 39.7576z" />
    <glyph glyph-name="uniE050" unicode="&#xe050;" 
d="M150 80v40h-60v-40h60zM110 30v40h-60v-40h60zM180 30v40h-60v-40h60zM80 -20v40h-60v-40h60zM150 -20v40h-60v-40h60zM220 -20v40h-60v-40h60zM0 -40v80h30v50h40v50h100v-50h30v-50h40v-80h-240z" />
    <glyph glyph-name="uniE051" unicode="&#xe051;" 
d="M179.809 -2.5c-4.44238 0 -8.05664 -3.58887 -8.05664 -8s3.61426 -8 8.05664 -8c4.44336 0 8.05762 3.58887 8.05762 8s-3.61426 8 -8.05762 8zM179.809 -32.5c-12.2168 0 -22.1562 9.86914 -22.1562 22s9.93945 22 22.1562 22c12.2178 0 22.1572 -9.86914 22.1572 -22
s-9.93848 -22 -22.1572 -22zM59.8086 -2.5c-4.44238 0 -8.05664 -3.58887 -8.05664 -8s3.61426 -8 8.05664 -8c4.44336 0 8.05762 3.58887 8.05762 8s-3.61426 8 -8.05762 8zM59.8086 -32.5c-12.2168 0 -22.1562 9.86914 -22.1562 22s9.93945 22 22.1562 22
c12.2178 0 22.1572 -9.86914 22.1572 -22s-9.93848 -22 -22.1572 -22zM50.4092 19.9062c-16.7754 0 -30.4219 -13.335 -30.4219 -29.7256v-0.361328c0 -16.3916 13.6465 -29.7256 30.4219 -29.7256h139.182c16.7754 0 30.4219 13.335 30.4219 29.7256v0.361328
c0 16.3916 -13.6465 29.7256 -30.4219 29.7256h-139.182zM50.4092 -60c-27.7959 0 -50.4092 22.3486 -50.4092 49.8193v0.361328c0 27.4707 22.6133 49.8193 50.4092 49.8193h139.182c27.7959 0 50.4092 -22.3486 50.4092 -49.8193v-0.361328
c0 -27.4707 -22.6133 -49.8193 -50.4092 -49.8193h-139.182zM41.7217 46l57.0898 33.6699c3.12695 -2.69922 6.79102 -4.76562 10.7383 -6.07617l-47.5723 -27.5938h-20.2559zM178.772 46l-47.8779 27.7881c3.88867 1.38086 7.48438 3.50195 10.5264 6.21191l57.6074 -34
h-20.2559zM119.977 80c-4.8584 0 -9.5127 1.42676 -13.459 4.12695c-5.95996 4.08008 -9.51758 10.6631 -9.51758 17.6104v0.474609h16v-0.474609c0 -2.10449 1.0459 -4.02734 2.86914 -5.27539c0.84082 -0.575195 2.23926 -1.25879 4.13184 -1.25879
c0.859375 0 1.75 0.144531 2.64844 0.429688c1.80566 0.574219 3.30273 1.97754 3.9043 3.66309c1.42188 3.97949 -0.834961 7.2627 -3.7998 8.4502c-6.5332 2.61426 -10.7539 8.51562 -10.7539 15.0371v1.04494c-13.7891 5.04065 -22.5 22.3569 -22.5 34.4385
c0 14.4219 10.2617 21.7334 30.5 21.7334s30.5 -7.31152 30.5 -21.7334c0 -12.0815 -8.71087 -29.3978 -22.5 -34.4385v-1.66701l1.20117 -0.49707c11.0459 -4.57422 16.4219 -16.291 12.5039 -27.2549c-2.20996 -6.18457 -7.43848 -11.1162 -13.9863 -13.1953
c-2.53809 -0.805664 -5.14258 -1.21387 -7.74219 -1.21387zM120 164.799c-6.55664 0 -10.751 -0.730469 -12.8223 -2.23438c-1.67773 -1.21973 -1.67773 -2.7832 -1.67773 -4.29688c0 -8.34668 7.6377 -20.665 14.5 -20.665s14.5 12.3184 14.5 20.665
c0 1.51367 0 3.07812 -1.67871 4.29785c-2.07031 1.50195 -6.26465 2.2334 -12.8213 2.2334z" />
    <glyph glyph-name="uniE052" unicode="&#xe052;" 
d="M0 -60v131.405l108.595 108.595h131.405v-131.405l-108.595 -108.595h-131.405zM180.368 78.0293l-7.23047 7.31445l47.2705 46.7257v20.0281l-89.1846 -89.1854v-57.6454l50.2129 50.2138l7.27441 -7.27441l-56.6152 -56.6143l-0.87207 0.87207v-24.9375
l89.1846 89.1846v60.8969zM111.003 101.532l-7.23535 7.31055l52.0929 51.5654h-39.1495l-89.1846 -89.1846h95.3828l89.1846 89.1846h-41.6116zM119.469 -40.4082v99.877h-99.877v-7.36029c48.3327 -6.31289 86.8268 -44.3846 93.7838 -92.5167h6.09311zM19.5918 40.24
v-20.3336c30.7629 -5.73807 55.1753 -29.7576 61.4945 -60.3147h20.396c-6.76883 41.6405 -40.0471 74.5047 -81.8904 80.6482zM19.5918 7.9099v-21.4305c13.6448 -3.25688 24.5752 -13.5893 28.6812 -26.8876h20.762c-5.92686 24.0597 -25.1771 42.9344 -49.4432 48.3181z
M19.5918 -25.7582v-14.65h16.1176c-3.15269 6.81228 -8.97552 12.1461 -16.1176 14.65z" />
    <glyph glyph-name="uniE053" unicode="&#xe053;" 
d="M55.5 134.5c-10.752 0 -19.5 -8.74805 -19.5 -19.5s8.74805 -19.5 19.5 -19.5s19.5 8.74805 19.5 19.5s-8.74805 19.5 -19.5 19.5zM184.5 134.5c-10.752 0 -19.5 -8.74805 -19.5 -19.5s8.74805 -19.5 19.5 -19.5s19.5 8.74805 19.5 19.5s-8.74805 19.5 -19.5 19.5z
M45.6338 70c-25.1631 0 -45.6338 20.1113 -45.6338 44.8301v0.339844c0 24.7188 20.4707 44.8301 45.6338 44.8301h148.731c25.1641 0 45.6348 -20.1113 45.6348 -44.8301v-0.339844c0 -24.7188 -20.4707 -44.8301 -45.6338 -44.8301h-148.732zM55.5 24.5
c-10.752 0 -19.5 -8.74805 -19.5 -19.5s8.74805 -19.5 19.5 -19.5s19.5 8.74805 19.5 19.5s-8.74805 19.5 -19.5 19.5zM184.5 24.5c-10.752 0 -19.5 -8.74805 -19.5 -19.5s8.74805 -19.5 19.5 -19.5s19.5 8.74805 19.5 19.5s-8.74805 19.5 -19.5 19.5zM45.6338 -40
c-25.1631 0 -45.6338 20.1113 -45.6338 44.8301v0.339844c0 24.7188 20.4707 44.8301 45.6338 44.8301h148.731c25.1641 0 45.6348 -20.1113 45.6348 -44.8301v-0.339844c0 -24.7188 -20.4707 -44.8301 -45.6338 -44.8301h-148.732z" />
    <glyph glyph-name="uniE054" unicode="&#xe054;" 
d="M185.033 97.5264c12.2754 0 22.2627 9.98633 22.2627 22.2627s-9.9873 22.2627 -22.2627 22.2627c-12.2764 0 -22.2637 -9.98633 -22.2637 -22.2627s9.9873 -22.2627 22.2637 -22.2627zM192.848 165.306c26 0 47.1523 -20.7979 47.1514 -46.3643v-0.333008
c0 -25.5654 -21.1523 -46.3643 -47.1523 -46.3643h-89.9902v60.6025c0 5.0791 -0.683594 10.1621 -2.03027 15.1074c-0.25293 0.929688 -0.538086 1.88086 -0.849609 2.82812l-0.233398 0.71582c-1.21094 3.5293 -2.76562 6.9375 -4.61719 10.1299l-2.13379 3.67773h99.8555
zM185.033 -22.4736c12.2754 0 22.2627 9.98633 22.2627 22.2627s-9.9873 22.2627 -22.2627 22.2627c-12.2764 0 -22.2637 -9.98633 -22.2637 -22.2627s9.9873 -22.2627 22.2637 -22.2627zM192.848 46.7549c26 0 47.1523 -20.7988 47.1523 -46.3652v-0.333008
c0 -25.5645 -21.1523 -46.3633 -47.1523 -46.3633h-99.8555l2.13379 3.67773c1.85156 3.19336 3.40625 6.60156 4.61816 10.1318l0.233398 0.71582c0.310547 0.945312 0.59668 1.89551 0.848633 2.82422c1.34766 4.94824 2.03125 10.0303 2.03125 15.1094v60.6025h89.9902z
M45.0332 97.5264c12.2754 0 22.2627 9.98633 22.2627 22.2627s-9.9873 22.2627 -22.2627 22.2627c-12.2764 0 -22.2637 -9.98633 -22.2637 -22.2627s9.9873 -22.2627 22.2637 -22.2627zM45.0332 -22.1582c12.2754 0 22.2627 9.9873 22.2627 22.2637
c0 12.2754 -9.9873 22.2627 -22.2627 22.2627c-12.2764 0 -22.2637 -9.9873 -22.2637 -22.2627c0 -12.2764 9.9873 -22.2637 22.2637 -22.2637zM45.1611 180c24.7236 0 44.8389 -20.4561 44.8389 -45.6006v-147.904c0 -25.1455 -20.1152 -45.6016 -44.8389 -45.6016
h-0.322266c-24.7236 0 -44.8389 20.4561 -44.8389 45.6016v147.904c0 25.1445 20.1152 45.6006 44.8389 45.6006h0.322266z" />
    <glyph glyph-name="uniE055" unicode="&#xe055;" 
d="M7.62891 -50c-2.20605 0 -4.3623 0.973633 -5.62305 2.7832c-1.55957 2.23633 -1.62695 5.02344 -0.226562 7.28906l24.6787 39.9277h153.551c5.62598 0 10.8223 2.81055 13.8975 7.51953l24.4902 37.4805h14.8682c1.74902 0 3.4873 -0.589844 4.74219 -1.80664
c2.37598 -2.30469 2.67285 -5.80957 0.977539 -8.40527l-53.4482 -81.7969c-1.21875 -1.86621 -3.29785 -2.99121 -5.52734 -2.99121h-172.38zM7.62891 10c-2.20605 0 -4.3623 0.973633 -5.62305 2.7832c-1.55957 2.23633 -1.62695 5.02344 -0.226562 7.28906
l24.6787 39.9277h153.551c5.62598 0 10.8223 2.81055 13.8975 7.51953l24.4902 37.4805h14.8682c1.74902 0 3.4873 -0.589844 4.74219 -1.80664c2.37598 -2.30469 2.67285 -5.80957 0.977539 -8.40527l-53.4482 -81.7969
c-1.21875 -1.86621 -3.29785 -2.99121 -5.52734 -2.99121h-172.38zM7.39355 70.001c-2.59473 0 -4.87793 1.44531 -5.99414 3.83398c-0.964844 2.06348 -0.697266 4.49609 0.5 6.43262l48.4375 76.6016c1.21191 1.96094 3.31152 3.13086 5.61621 3.13086h175.312
c1.74902 0 3.4873 -0.589844 4.74219 -1.80664c2.37598 -2.30469 2.67285 -5.80957 0.977539 -8.40527l-51.4482 -76.7969c-1.22363 -1.87305 -3.29004 -2.99023 -5.52637 -2.99023h-172.617z" />
    <glyph glyph-name="uniE056" unicode="&#xe056;" 
d="M151.782 99.791c14.6797 0 26.1777 6.8584 26.1777 15.6123s-11.498 15.6113 -26.1777 15.6113c-14.6807 0 -26.1797 -6.85742 -26.1797 -15.6113s11.499 -15.6123 26.1797 -15.6123zM92.5586 66.2168c14.6807 0 26.1787 6.8584 26.1787 15.6123
s-11.498 15.6123 -26.1787 15.6123c-14.6797 0 -26.1787 -6.85742 -26.1787 -15.6123c0 -8.75391 11.499 -15.6123 26.1787 -15.6123zM149.847 160l85.124 -41.4111l-137.718 -85.3838l-89.3545 51.1641zM102.857 23.3828l137.143 85.0293v-75.9648l-137.143 -86.0684
v77.0039zM0 -5.55664v81.3877l93.0605 -52.4082v-82.4512z" />
    <glyph glyph-name="uniE057" unicode="&#xe057;" 
d="M80 80v50h70v-50h-70zM160 -40v50h70v-50h-70zM80 -40v50h70v-50h-70zM0 -40v50h70v-50h-70zM120 20v50h70v-50h-70zM40 20v50h70v-50h-70z" />
    <glyph glyph-name="uniE058" unicode="&#xe058;" 
d="M55.5 4.5c-10.752 0 -19.5 -8.74805 -19.5 -19.5s8.74805 -19.5 19.5 -19.5s19.5 8.74805 19.5 19.5s-8.74805 19.5 -19.5 19.5zM184.5 4.5c-10.752 0 -19.5 -8.74805 -19.5 -19.5s8.74805 -19.5 19.5 -19.5s19.5 8.74805 19.5 19.5s-8.74805 19.5 -19.5 19.5z
M45.6338 -60c-25.1631 0 -45.6338 20.1113 -45.6338 44.8301v0.339844c0 24.7188 20.4707 44.8301 45.6338 44.8301h148.731c25.1641 0 45.6348 -20.1113 45.6348 -44.8301v-0.339844c0 -24.7188 -20.4707 -44.8301 -45.6338 -44.8301h-148.732zM119.977 75.7471
c-4.75293 0 -9.30566 1.46973 -13.167 4.25c-5.82812 4.2002 -9.30957 10.9766 -9.30957 18.1279h15c0 -2.37793 1.12207 -4.54883 3.07715 -5.95801c0.899414 -0.648438 2.39746 -1.41992 4.42383 -1.41992c0.913086 0 1.85742 0.161133 2.80664 0.477539
c1.95215 0.652344 3.56934 2.25 4.22168 4.16895c1.51953 4.47852 -0.902344 8.17676 -4.08008 9.5166c-6.34863 2.67383 -10.4492 8.70605 -10.4492 15.3672v1.50731c-13.4076 5.11943 -22.5 23.0964 -22.5 35.8403c0 14.8467 10.0928 22.375 30 22.375
s30 -7.52832 30 -22.375c0 -12.7439 -9.0924 -30.7209 -22.5 -35.8403v-2.49071l1.50098 -0.654297c10.8066 -4.70898 16.0645 -16.7754 12.2314 -28.0664c-2.16016 -6.36133 -7.27148 -11.4365 -13.6719 -13.5742c-2.48633 -0.832031 -5.03809 -1.25195 -7.58398 -1.25195z
M41.7217 35.5l57.0898 39.373c3.11523 -2.90625 6.78809 -5.14648 10.7383 -6.56445l-47.5723 -32.8086h-20.2559zM178.772 35.5l-47.8779 33.0176c3.88867 1.49219 7.48535 3.7832 10.5264 6.71094l57.6064 -39.7285h-20.2549z" />
    <glyph glyph-name="uniE059" unicode="&#xe059;" 
d="M0 70.9023l110.645 109.098h66.1777l-56.1523 -55.5967l6.78613 -6.85449l63.0752 62.4512h42.6484l-110.099 -109.098h-123.081zM0 -60v29.1602h2.42285c14.7432 0 26.7373 -11.9941 26.7373 -26.7363v-2.42383h-29.1602zM37.8379 -60v2.42285
c0 19.5273 -15.8867 35.4141 -35.415 35.4141h-2.42285v25.9834h2.42285c33.8555 0 61.3984 -27.543 61.3984 -61.3975v-2.42285h-25.9834zM72.499 -60v2.42285c0 38.6406 -31.4355 70.0762 -70.0762 70.0762h-2.42285v20.6045h2.42285
c50.002 0 90.6807 -40.6787 90.6807 -90.6797v-2.42383h-20.6045zM101.782 -60v2.42285c0 54.7861 -44.5723 99.3594 -99.3594 99.3594h-2.42285v18.3867h120.169v-120.169h-18.3867zM130.902 -5.02344l58.2588 55.2598l-6.82031 6.81934l-51.4375 -48.4385v54.4639
l109.097 110.099v-21.4941l-51.0234 -50.4287l6.7793 -6.85938l44.2441 43.7266v-87.4795l-109.098 -110.645v54.9766z" />
    </font>
</defs>
</svg>
