<?xml version="1.0" encoding="UTF-8"?>
<!DOCTYPE svg PUBLIC "-//W3C//DTD SVG 1.1//EN" "http://www.w3.org/Graphics/SVG/1.1/DTD/svg11.dtd">
<svg version="1.1" id="Layer_1" xmlns="http://www.w3.org/2000/svg" xmlns:xlink="http://www.w3.org/1999/xlink" x="0px" y="0px" width="24px" height="24px" viewBox="0 0 24 24" enable-background="new 0 0 24 24" xml:space="preserve">
  <g id="icon">
    <path d="M19,0H5C2.2386,0,0,2.2386,0,5v14c0,2.7614,2.2386,5,5,5h14c2.7614,0,5,-2.2386,5,-5V5C24,2.2386,21.7614,0,19,0zM20,13.5h-6.5v6.5h-3v-6.5H4v-3h6.5V4h3v6.5h6.5V13.5z" fill="#52B250"/>
    <polygon points="10.5,20 10.5,13.5 4,13.5 4,10.5 10.5,10.5 10.5,4 13.5,4 13.5,10.5 20,10.5 20,13.5 13.5,13.5 13.5,20" fill="#FFFFFF" stroke-linejoin="miter"/>
  </g>
</svg>
