<?xml version="1.0" encoding="UTF-8"?>
<!DOCTYPE svg PUBLIC "-//W3C//DTD SVG 1.1//EN" "http://www.w3.org/Graphics/SVG/1.1/DTD/svg11.dtd">
<svg version="1.1" id="Layer_1" xmlns="http://www.w3.org/2000/svg" xmlns:xlink="http://www.w3.org/1999/xlink" x="0px" y="0px" width="24px" height="24px" viewBox="0 0 24 24" enable-background="new 0 0 24 24" xml:space="preserve">
  <g id="icon">
    <path d="M11.9756,2c-2.8719,0,-4.5933,1.1217,-4.5933,2.55v13.5707c0,2.1425,1.7215,3.8793,4.5933,3.8793s4.6511,-1.7368,4.6511,-3.8793V4.55C16.6267,3.1217,14.8474,2,11.9756,2z" fill="#FFFFFF" opacity="0.5"/>
    <path d="M11.9667,23c-1.687,0,-2.6716,-0.4337,-3.8618,-1.2213C6.7476,20.8804,6,19.5813,6,18.1207V4.55C6,1.9297,8.9374,1,11.9667,1S18,1.9297,18,4.55v13.5707c0,1.4606,-0.7476,2.7597,-2.1049,3.6581C14.7049,22.5663,13.6537,23,11.9667,23zM7.96,18.1207c0,0.6021,0.4577,1.3165,1.1945,1.8643c0.8803,0.6545,1.5469,1.015,2.8211,1.015s1.9985,-0.3605,2.8788,-1.015c0.7368,-0.5478,1.1945,-1.2622,1.1945,-1.8643V4.59c-0.1167,-0.3738,-0.955,-1.59,-4.0733,-1.59S8.0767,4.2162,7.96,4.59V18.1207z" fill="#EEAC55"/>
    <path d="M12.0044,7.8c-2.4212,0,-4.4996,-0.9729,-4.7378,-3.1h0.6699c0.4058,0.8126,1.5605,1.9023,4.0679,1.9023S15.7243,5.5126,16.1301,4.7H16.8C16.5618,6.8271,14.4257,7.8,12.0044,7.8z" fill="#EEAC55"/>
    <polygon points="0.947,7.8323 0,8.7674 3.2297,12.0384 0,15.3093 0.947,16.2445 5.1,12.0384" fill="#6485C3" stroke-linejoin="miter"/>
    <polygon points="23.053,7.8323 24,8.7674 20.7703,12.0384 24,15.3093 23.053,16.2445 18.9,12.0384" fill="#6485C3" stroke-linejoin="miter"/>
  </g>
</svg>
