<?xml version="1.0" encoding="UTF-8"?>
<!DOCTYPE svg PUBLIC "-//W3C//DTD SVG 1.1//EN" "http://www.w3.org/Graphics/SVG/1.1/DTD/svg11.dtd">
<svg version="1.1" id="Layer_1" xmlns="http://www.w3.org/2000/svg" xmlns:xlink="http://www.w3.org/1999/xlink" x="0px" y="0px" width="24px" height="24px" viewBox="0 0 24 24" enable-background="new 0 0 24 24" xml:space="preserve">
  <g id="icon">
    <path d="M15,10.4498v9.8907c0,1.0954,-0.8853,2.0698,-2.4927,2.7435c-1.4094,0.5907,-3.049,0.916,-5.0468,0.916s-3.5585,-0.3253,-4.9679,-0.916C0.8853,22.4103,0,21.4359,0,20.3405v-9.8907c0.4149,0.35,1.0312,0.6941,1.9341,0.9966c1.4987,0.5021,3.4754,0.7786,5.5659,0.7786s4.0671,-0.2765,5.5659,-0.7786C13.9688,11.1439,14.5851,10.7998,15,10.4498zM7.5,6C3.3579,6,0,7.1249,0,8.5125s3.3579,2.5125,7.5,2.5125s7.5,-1.1249,7.5,-2.5125S11.6421,6,7.5,6z" fill="#EEAC55"/>
    <path d="M9,2.5125C9,1.1249,12.3579,0,16.5,0s7.5,1.1249,7.5,2.5125S20.6421,5.025,16.5,5.025S9,3.9001,9,2.5125zM9.8609,5.0052c-0.3542,-0.1797,-0.6372,-0.3666,-0.8609,-0.5554v0.4918C9.2951,4.9581,9.5826,4.979,9.8609,5.0052zM16.5,6.225c-0.8041,0,-1.5909,-0.0413,-2.3406,-0.1202C15.4257,6.7785,16.1,7.7199,16.1,8.8933v9.103c0.1186,0.0024,0.2387,0.0037,0.3605,0.0037c1.9978,0,3.6374,-0.3253,5.0468,-0.916C23.1147,16.4103,24,15.4359,24,14.3405V4.4498c-0.4149,0.35,-1.0312,0.6941,-1.9341,0.9966C20.5671,5.9485,18.5904,6.225,16.5,6.225z" fill="#EEAC55"/>
  </g>
</svg>
