<?xml version="1.0" encoding="UTF-8"?>
<!DOCTYPE svg PUBLIC "-//W3C//DTD SVG 1.1//EN" "http://www.w3.org/Graphics/SVG/1.1/DTD/svg11.dtd">
<svg version="1.1" id="Layer_1" xmlns="http://www.w3.org/2000/svg" xmlns:xlink="http://www.w3.org/1999/xlink" x="0px" y="0px" width="24px" height="24px" viewBox="0 0 24 24" enable-background="new 0 0 24 24" xml:space="preserve">
  <g id="icon">
    <polygon points="17.525,0 5,0 5,11.4 7,11.4 7,2 17,2 17,7.025 22,7 22,11.4 22,21 22,23 24,23 24,6.5" fill="#7B7B7B" stroke-linejoin="miter"/>
    <path d="M13.1394,24.0086l-0.8506,-1.109c-0.0563,0.0188,-0.1129,0.0362,-0.1702,0.0522c-0.3305,0.0928,-0.6827,0.1399,-1.0468,0.1399c-0.6137,0,-1.1877,-0.1349,-1.7061,-0.4008c-0.5115,-0.2624,-0.9548,-0.6398,-1.3175,-1.1218c-0.3438,-0.4565,-0.6117,-1.0075,-0.7962,-1.6375c-0.1773,-0.6049,-0.2673,-1.2879,-0.2673,-2.0297c0,-0.7374,0.0898,-1.419,0.2671,-2.026c0.1842,-0.6311,0.4517,-1.1836,0.795,-1.6422c0.3622,-0.4837,0.8048,-0.8631,1.3155,-1.1277c0.5192,-0.269,1.0945,-0.4055,1.7096,-0.4055c0.6163,0,1.1922,0.1346,1.7118,0.4c0.5145,0.2627,0.9595,0.642,1.3229,1.1273c0.343,0.4581,0.6104,1.0106,0.795,1.6421c0.1773,0.6074,0.2672,1.291,0.2672,2.032c0,0.5003,-0.041,0.9761,-0.1219,1.4139c-0.0827,0.4479,-0.2054,0.8675,-0.3647,1.247c-0.1659,0.3952,-0.3734,0.7535,-0.6167,1.0649c-0.0389,0.0498,-0.0788,0.0984,-0.1195,0.1459l0.7805,1.0175L13.1394,24.0086zM11.0718,14.7007c-0.2958,0,-0.5541,0.0593,-0.7896,0.1813c-0.2444,0.1266,-0.452,0.3067,-0.6345,0.5505c-0.1991,0.266,-0.3593,0.6038,-0.4761,1.004c-0.1241,0.4249,-0.187,0.9179,-0.187,1.4655c0,0.5513,0.0628,1.0449,0.1866,1.4672c0.1166,0.3981,0.2764,0.7335,0.4749,0.9972c0.182,0.2419,0.3888,0.4201,0.6324,0.545c0.2366,0.1213,0.496,0.1803,0.7933,0.1803c0.1812,0,0.3515,-0.022,0.5061,-0.0655c0.1514,-0.0425,0.2894,-0.1029,0.4219,-0.1847l0.0792,-0.051c0.1496,-0.1046,0.2876,-0.2372,0.4104,-0.3943c0.1341,-0.1716,0.2514,-0.376,0.3486,-0.6076c0.104,-0.2476,0.1854,-0.5288,0.2421,-0.836c0.0588,-0.3184,0.0886,-0.6719,0.0886,-1.0507c0,-0.5512,-0.0629,-1.0463,-0.187,-1.4714c-0.117,-0.4005,-0.2772,-0.7384,-0.4761,-1.004c-0.1813,-0.2422,-0.388,-0.4205,-0.6317,-0.5449C11.6353,14.7599,11.3729,14.7007,11.0718,14.7007zM2.9558,23.2869c-0.3565,0,-0.6856,-0.0346,-0.9784,-0.1027c-0.2859,-0.0664,-0.5493,-0.1554,-0.7823,-0.2644c-0.2324,-0.1084,-0.4391,-0.2303,-0.6135,-0.3619c-0.1461,-0.1099,-0.2771,-0.2187,-0.388,-0.3225c-0.1033,-0.0965,-0.18,-0.1714,-0.2413,-0.2355l1.4455,-1.3821c0.0233,0.0243,0.0703,0.0713,0.1617,0.1568c0.0592,0.0554,0.1349,0.1178,0.2252,0.1856c0.0445,0.0335,0.124,0.0855,0.2569,0.1475c0.1075,0.0503,0.2381,0.0934,0.3888,0.1284c0.1447,0.0337,0.3214,0.0507,0.5254,0.0507c0.2858,0,0.5339,-0.0406,0.7375,-0.1207c0.2016,-0.0793,0.3628,-0.1785,0.4931,-0.3033c0.123,-0.1179,0.2141,-0.2516,0.2783,-0.4083c0.0682,-0.1664,0.1013,-0.3411,0.1013,-0.5344c0,-0.1669,-0.028,-0.2548,-0.0447,-0.2923c-0.0333,-0.0748,-0.0754,-0.1357,-0.1284,-0.1857c-0.0781,-0.0737,-0.1742,-0.1398,-0.2854,-0.1959c-0.1589,-0.0803,-0.3333,-0.1541,-0.5186,-0.2195c-0.2063,-0.0727,-0.4201,-0.1409,-0.6346,-0.2027c-0.2562,-0.0736,-0.5103,-0.156,-0.755,-0.2446c-0.2667,-0.0963,-0.523,-0.2087,-0.7611,-0.3339c-0.2868,-0.1508,-0.5436,-0.3386,-0.7632,-0.5582c-0.2399,-0.2397,-0.4314,-0.526,-0.5689,-0.8507c-0.1395,-0.3292,-0.2103,-0.707,-0.2103,-1.1227c0,-0.4078,0.0806,-0.8043,0.2395,-1.1787c0.1604,-0.3784,0.397,-0.7163,0.703,-1.0036c0.2998,-0.2812,0.6653,-0.5049,1.0869,-0.6654c0.4136,-0.1574,0.8809,-0.2371,1.389,-0.2371c0.5614,0,1.0756,0.0924,1.5283,0.2748c0.4588,0.1848,0.8885,0.4756,1.2772,0.8643l-1.4143,1.4142c-0.1972,-0.1973,-0.4025,-0.3397,-0.6102,-0.4234c-0.214,-0.0862,-0.4768,-0.1299,-0.7811,-0.1299c-0.2643,0,-0.4922,0.0358,-0.6776,0.1063c-0.1767,0.0672,-0.3212,0.1529,-0.4296,0.2545c-0.1029,0.0966,-0.1784,0.2034,-0.2304,0.3262c-0.0543,0.1281,-0.0807,0.258,-0.0807,0.3977c0,0.182,0.0282,0.2868,0.0519,0.3426c0.0372,0.0877,0.0833,0.1583,0.1411,0.2161c0.0786,0.0786,0.1701,0.1447,0.28,0.2025c0.1572,0.0826,0.3292,0.1579,0.511,0.2235c0.2034,0.0737,0.4141,0.1419,0.6274,0.2033c0.2521,0.0726,0.5032,0.1528,0.7469,0.2386c0.2664,0.094,0.5202,0.2018,0.7552,0.3204c0.2835,0.1432,0.5382,0.3206,0.7571,0.5272c0.2453,0.2318,0.441,0.5096,0.582,0.8259c0.1446,0.3248,0.2178,0.6968,0.2178,1.1061c0,0.4521,-0.0844,0.8871,-0.2507,1.2929c-0.1699,0.4146,-0.4206,0.7826,-0.7449,1.0937c-0.3176,0.3043,-0.7027,0.5467,-1.145,0.7207C3.9877,23.1996,3.4933,23.2869,2.9558,23.2869zM21,23h-5V12.9h2v8.1h3V23z" fill="#6485C3"/>
    <polygon points="17,7.025 17,2 7,2 7,11.5 19.2,11.5 19.2,19.7 22,19.7 22,7" fill="#FFFFFF" stroke-linejoin="miter" opacity="0.4"/>
  </g>
</svg>
