<?xml version="1.0" encoding="UTF-8"?>
<!DOCTYPE svg PUBLIC "-//W3C//DTD SVG 1.1//EN" "http://www.w3.org/Graphics/SVG/1.1/DTD/svg11.dtd">
<svg version="1.1" id="Layer_1" xmlns="http://www.w3.org/2000/svg" xmlns:xlink="http://www.w3.org/1999/xlink" x="0px" y="0px" width="24px" height="24px" viewBox="0 0 24 24" enable-background="new 0 0 24 24" xml:space="preserve">
  <g id="icon">
    <path d="M17.525,0H5v8h0.43v0.0095H7V2h10v5.025L22,7v14h-6.0428c-0.087,0.778,-0.3056,1.4455,-0.6165,2H24V6.5L17.525,0z" fill="#7B7B7B"/>
    <path d="M17,7.025V2H7v6.0095h4.9975c2.2634,0,3.6141,2.069,3.9486,4.1195c0.147,0.904,-0.3423,1.7738,-1.1899,2.1156c-0.2246,0.0905,-0.4648,0.1363,-0.7142,0.1363h-0.2298c0.2206,0.6625,0.4678,1.2786,0.697,1.7233c0.0703,0.1364,0.1402,0.2705,0.2091,0.4025l0.0148,0.0284C15.3846,17.7835,16,18.9627,16,20.2322c0,0.2671,-0.0154,0.5225,-0.0428,0.7678H22V7L17,7.025z" fill="#FFFFFF" opacity="0.4"/>
    <path d="M3.5289,23.3727v-0.0624h-0.2358c-1.4329,0,-2.6899,-1.4486,-2.6899,-3.1656c0,-0.2036,0.0546,-0.4349,0.1767,-0.4924c0.0346,-0.0163,0.0941,-0.0264,0.1294,-0.0264H4.492l-0.0824,-0.3583c-0.2687,-0.9761,-0.7473,-1.9975,-1.4225,-3.036c-0.9568,-1.4715,-1.4626,-2.8101,-1.4626,-3.871c0,-1.5618,1.0502,-2.6295,2.6756,-2.7202l0.1119,-0.0062h7.6927c1.9032,0,2.3388,2.3574,2.343,2.3822c0.0244,0.1502,-0.0564,0.2938,-0.1967,0.3487c-0.0294,0.0115,-0.0617,0.0169,-0.1017,0.0169h-2.471l0.0532,0.281c0.2878,1.5208,0.9216,3.2808,1.3888,4.1874c0.0746,0.1448,0.1489,0.2872,0.2219,0.4271l0.0057,0.011c0.5809,1.1131,1.0824,2.0741,1.0824,2.9453c0,2.3032,-1.3631,3.1392,-2.2793,3.1392H3.5289z" fill="#FFFFFF" opacity="0.5"/>
    <path d="M3.4386,24C1.5747,24,0,22.1923,0,20.0525c0,-0.2133,0.0458,-0.9307,0.6343,-1.2081c0.1968,-0.0928,0.3948,-0.1029,0.4708,-0.1029h2.4118c-0.2557,-0.65,-0.621,-1.3419,-1.0884,-2.0607c-0.7105,-1.0927,-1.5574,-2.7111,-1.5574,-4.216c0,-1.0291,0.3658,-1.9079,1.0579,-2.5412C2.5893,9.3194,3.4817,9,4.5098,9h0.1948v0.0093c0.0139,0,7.1761,0,7.1761,0c1.9964,0,2.8734,2.1112,3.077,3.3588c0.0843,0.5181,-0.1959,1.0167,-0.6814,1.2124c-0.1256,0.0506,-0.2616,0.0762,-0.4042,0.0762h-1.2722c0.2805,1.0387,0.6773,2.1213,1.0346,2.8147c0.0692,0.1342,0.138,0.266,0.2057,0.3959l0.0142,0.0273c0.6148,1.178,1.1457,2.1952,1.1457,3.2407c0,2.5354,-1.5224,3.8619,-3.0263,3.8619H3.6334L3.4386,24zM1.627,20.3476c0.1211,1.0897,0.9016,2.0097,1.7604,2.0452c0.0668,-0.0364,0.2369,-0.1801,0.3772,-0.5045c0.1038,-0.2402,0.2567,-0.7489,0.1707,-1.5407H1.627zM11.9737,22.391c0.5691,0,1.4156,-0.6007,1.4156,-2.2558c0,-0.6524,-0.4464,-1.5079,-0.9634,-2.4985c-0.074,-0.1418,-0.1488,-0.2852,-0.2242,-0.4313c-0.4653,-0.903,-0.9554,-2.2807,-1.2649,-3.5488H5.9625c-0.5202,0,-0.9729,-0.3733,-1.0764,-0.8877l-0.0029,-0.0146c-0.0025,-0.0139,-0.232,-1.2341,-0.8883,-1.8146c-0.0748,-0.0662,-0.1627,-0.1441,-0.2475,-0.2331c-0.806,0.2343,-1.2655,0.8692,-1.2655,1.758c0,0.8677,0.461,2.0547,1.2982,3.3423c2.1589,3.3202,1.9453,5.4716,1.5173,6.584H11.9737zM13.2186,12.0506c-0.1862,-0.5648,-0.5941,-1.4352,-1.3379,-1.4352H5.777c0.3138,0.5244,0.497,1.0703,0.5954,1.4352H13.2186z" fill="#EEAC55"/>
    <path d="M10.2,16H5v-1h5.2V16zM11.2,17H6v1h5.2V17zM11.9,19H6.7v1h5.2V19z" fill="#7B7B7B"/>
  </g>
</svg>
