<?xml version="1.0" encoding="UTF-8"?>
<!DOCTYPE svg PUBLIC "-//W3C//DTD SVG 1.1//EN" "http://www.w3.org/Graphics/SVG/1.1/DTD/svg11.dtd">
<svg version="1.1" id="Layer_1" xmlns="http://www.w3.org/2000/svg" xmlns:xlink="http://www.w3.org/1999/xlink" x="0px" y="0px" width="24px" height="24px" viewBox="0 0 24 24" enable-background="new 0 0 24 24" xml:space="preserve">
  <g id="icon">
    <polygon points="6.1,16.1 4.9,16.1 4.9,12.9 11.4,12.9 11.4,10.2 12.6,10.2 12.6,12.9 19.1,12.9 19.1,15.6 17.9,15.6 17.9,14.1 6.1,14.1" fill="#6D6E71" stroke-linejoin="miter"/>
    <path d="M17.3,10.3H6.8V0.8h10.5V10.3z" fill="#FFFFFF" opacity="0.5"/>
    <path d="M18,11H6V0h12V11zM8,9h8V2H8V9z" fill="#6485C3"/>
    <path d="M4.8769,15.465c-2.0392,0,-3.4667,0.4471,-3.4667,1.0164v5.5739c0,0.8539,1.4275,1.5462,3.4667,1.5462s3.5077,-0.6923,3.5077,-1.5462v-5.5739C8.3846,15.9121,6.9161,15.465,4.8769,15.465z" fill="#FFFFFF" opacity="0.5"/>
    <path d="M4.9801,15C4.0464,15,1,15.1139,1,16.5797v5.3314c0,0.6524,0.4936,1.2217,1.3899,1.6028C3.1697,23.8455,3.9928,24,4.9801,24c1.0006,0,1.8609,-0.159,2.63,-0.4861C8.5064,23.1328,9,22.5636,9,21.9111v-5.3314C9,15.415,6.9235,15,4.9801,15zM4.9504,16.2156c1.9484,0,2.6171,0.3704,2.7673,0.4754v0.0909c-0.4635,0.2876,-1.4086,0.5909,-2.8203,0.5909c-1.1972,0,-2.0976,-0.2587,-2.6088,-0.5099v-0.1763C2.401,16.5993,3.0061,16.2156,4.9504,16.2156zM7.0356,22.414c-0.6018,0.2492,-1.2838,0.3703,-2.0851,0.3703c-0.7961,0,-1.427,-0.1142,-2.0455,-0.3703c-0.4865,-0.2015,-0.6163,-0.4153,-0.6163,-0.5098v-4.0264c0.7625,0.3119,1.8023,0.4381,2.6088,0.4381c0.9754,0,2.0773,-0.1412,2.8203,-0.4946v4.0829C7.7178,21.9783,7.5511,22.2006,7.0356,22.414z" fill="#EEAC55"/>
    <path d="M18.8769,15.465c-2.0392,0,-3.4667,0.4471,-3.4667,1.0164v5.5739c0,0.8539,1.4275,1.5462,3.4667,1.5462s3.5077,-0.6923,3.5077,-1.5462v-5.5739C22.3846,15.9121,20.9161,15.465,18.8769,15.465z" fill="#FFFFFF" opacity="0.5"/>
    <path d="M18.9801,15c-0.9337,0,-3.9801,0.1139,-3.9801,1.5797v5.3314c0,0.6524,0.4936,1.2217,1.3899,1.6028c0.7798,0.3316,1.6028,0.4861,2.5902,0.4861c1.0006,0,1.8609,-0.159,2.63,-0.4861c0.8963,-0.3811,1.3899,-0.9503,1.3899,-1.6028v-5.3314C23,15.415,20.9235,15,18.9801,15zM18.9504,16.2156c1.9484,0,2.6171,0.3704,2.7673,0.4754v0.0909c-0.4635,0.2876,-1.4086,0.5909,-2.8203,0.5909c-1.1972,0,-2.0976,-0.2587,-2.6088,-0.5099v-0.1763C16.401,16.5993,17.0061,16.2156,18.9504,16.2156zM21.0356,22.414c-0.6018,0.2492,-1.2838,0.3703,-2.0851,0.3703c-0.7961,0,-1.427,-0.1142,-2.0455,-0.3703c-0.4865,-0.2015,-0.6163,-0.4153,-0.6163,-0.5098v-4.0264c0.7625,0.3119,1.8023,0.4381,2.6088,0.4381c0.9754,0,2.0773,-0.1412,2.8203,-0.4946v4.0829C21.7178,21.9783,21.5511,22.2006,21.0356,22.414z" fill="#EEAC55"/>
    <path d="M15,4H9V3h6V4zM15,7H9v1h6V7zM15,5H9v1h6V5z" fill="#7B7B7B"/>
  </g>
</svg>
