<?xml version="1.0" encoding="UTF-8"?>
<!DOCTYPE svg PUBLIC "-//W3C//DTD SVG 1.1//EN" "http://www.w3.org/Graphics/SVG/1.1/DTD/svg11.dtd">
<svg version="1.1" id="Layer_1" xmlns="http://www.w3.org/2000/svg" xmlns:xlink="http://www.w3.org/1999/xlink" x="0px" y="0px" width="24px" height="24px" viewBox="0 0 24 24" enable-background="new 0 0 24 24" xml:space="preserve">
  <g id="icon">
    <path d="M22.5,22.5H1.5V5h21V22.5z" fill="#FFFFFF" opacity="0.5"/>
    <path d="M24,5v19H0V5h2v17h20V5H24z" fill="#7B7B7B"/>
    <path d="M24,5H0V0h24V5z" fill="#52B250"/>
    <path d="M5.3243,18.3097l3.0646,-3.0646l-0.0824,-0.1391c-0.4897,-0.8263,-0.7485,-1.7737,-0.7485,-2.7401c0,-2.9777,2.4226,-5.4003,5.4003,-5.4003s5.4003,2.4226,5.4003,5.4003s-2.4226,5.4003,-5.4003,5.4003c-0.9663,0,-1.9138,-0.2588,-2.7401,-0.7485l-0.1391,-0.0824L7.0145,20L5.3243,18.3097zM12.9583,8.8567c-1.935,0,-3.5093,1.5743,-3.5093,3.5093s1.5743,3.5093,3.5093,3.5093s3.5093,-1.5743,3.5093,-3.5093S14.8933,8.8567,12.9583,8.8567z" fill="#52B250"/>
  </g>
</svg>
