<?xml version="1.0" encoding="UTF-8"?>
<!DOCTYPE svg PUBLIC "-//W3C//DTD SVG 1.1//EN" "http://www.w3.org/Graphics/SVG/1.1/DTD/svg11.dtd">
<svg version="1.1" id="Layer_1" xmlns="http://www.w3.org/2000/svg" xmlns:xlink="http://www.w3.org/1999/xlink" x="0px" y="0px" width="24px" height="24px" viewBox="0 0 24 24" enable-background="new 0 0 24 24" xml:space="preserve">
  <g id="icon">
    <polygon points="11.0208,17.1366 13.0372,15.0974 16,18.028 16,1 19,1 19,17.9492 21.9834,14.9974 23.9998,17.0365 17.4604,23.5063" fill="#7B7B7B" stroke-linejoin="miter"/>
    <polygon points="0.2674,11 6.6209,1.9857 0.7,1.9857 0.7,0 10.4901,0 4.1367,9.0143 10,9.0143 10,11" fill="#CB525D" stroke-linejoin="miter"/>
    <path d="M7.3934,20.55H3.6016L2.03,23.8995l-1.7212,-0.8077l5.1198,-10.9119l5.3121,10.8979l-1.7091,0.8331L7.3934,20.55zM6.4666,18.65l-1.0053,-2.0625L4.4937,18.65H6.4666z" fill="#6485C3"/>
  </g>
</svg>
