<?xml version="1.0" encoding="UTF-8"?>
<!DOCTYPE svg PUBLIC "-//W3C//DTD SVG 1.1//EN" "http://www.w3.org/Graphics/SVG/1.1/DTD/svg11.dtd">
<svg version="1.1" id="Layer_1" xmlns="http://www.w3.org/2000/svg" xmlns:xlink="http://www.w3.org/1999/xlink" x="0px" y="0px" width="24px" height="24px" viewBox="0 0 24 24" enable-background="new 0 0 24 24" xml:space="preserve">
  <g id="icon">
    <path d="M15.9587,0.9675c-4.1087,0,-6.9848,0.9211,-6.9848,2.0939V9H14h2v10.0321c4.087,-0.0096,7.0261,-1.4317,7.0261,-3.185V3.0614C23.0261,1.8885,20.0673,0.9675,15.9587,0.9675z" fill="#FFFFFF" opacity="0.5"/>
    <path d="M15.9586,0C12.1112,0,8,0.8042,8,3.0614V9h1.9478V3.1372c0.2168,-0.2814,1.7506,-1.2022,6.0108,-1.2022c4.3322,0,5.8873,0.953,6.0935,1.2035V15.847c0,0.4284,-0.6358,0.9765,-1.6197,1.3964c-1.285,0.5484,-2.7354,0.8169,-4.4324,0.8212v1.935c2.0189,-0.0045,3.7539,-0.3364,5.3023,-1.0149C23.0419,18.2222,24,17.1079,24,15.847V3.0614C24,0.8042,19.8461,0,15.9586,0z" fill="#EEAC55"/>
    <path d="M16,5.9764c-3.464,0,-6.8507,-0.8762,-7.1914,-2.7919h0.9584c0.5805,0.7319,2.6459,1.7132,6.233,1.7132s5.7352,-0.9814,6.3157,-1.7132h0.9584C22.9333,5.1002,19.464,5.9764,16,5.9764z" fill="#EEAC55"/>
    <path d="M13.5,22.5H1.5v-8.5h12V22.5z" fill="#FFFFFF" opacity="0.5"/>
    <path d="M15,14v10H0V14h2v8h11v-8H15z" fill="#7B7B7B"/>
    <path d="M15,14H0v-4h15V14z" fill="#6485C3"/>
    <path d="M13,17v-1h-3v-2H9v2H6v-2H5v2H2v1h3v2H2v1h3v2h1v-2h3v2h1v-2h3v-1h-3v-2H13zM9,19H6v-2h3V19z" fill="#B7B7B7"/>
    <path d="M3.6089,2.7203l1.101,1.1093H2.7046c-0.9803,0,-1.775,0.7947,-1.775,1.775v3.425h1.2v-3.425c0,-0.3176,0.2574,-0.575,0.575,-0.575h2.0643l-1.16,1.1688l0.852,0.845l2.5638,-2.584l-2.5638,-2.584L3.6089,2.7203z" fill="#CB525D"/>
  </g>
</svg>
