<?xml version="1.0" encoding="UTF-8"?>
<!DOCTYPE svg PUBLIC "-//W3C//DTD SVG 1.1//EN" "http://www.w3.org/Graphics/SVG/1.1/DTD/svg11.dtd">
<svg version="1.1" id="Layer_1" xmlns="http://www.w3.org/2000/svg" xmlns:xlink="http://www.w3.org/1999/xlink" x="0px" y="0px" width="24px" height="24px" viewBox="0 0 24 24" enable-background="new 0 0 24 24" xml:space="preserve">
  <g id="icon">
    <polygon points="8,22.9 6,22.9 6,3.2458 1.8318,7.1585 0.4565,5.7329 6.3828,0.3 8,0.3" fill="#7B7B7B" stroke-linejoin="miter"/>
    <path d="M23.6,23H10.5v-1.4541l7.2764,-7.8657c0.596,-0.5953,1.172,-1.1855,1.7122,-1.7541c0.5137,-0.541,0.9716,-1.0994,1.3606,-1.6596c0.3719,-0.5359,0.6718,-1.1037,0.8911,-1.6872c0.2069,-0.5504,0.3119,-1.1581,0.3119,-1.8064c0,-0.7774,-0.1317,-1.4384,-0.3914,-1.9645c-0.2672,-0.5406,-0.6019,-0.9696,-1.0229,-1.3107c-0.4248,-0.344,-0.9198,-0.6016,-1.471,-0.7653c-0.584,-0.1734,-1.1864,-0.2614,-1.7901,-0.2614c-0.6932,0,-1.3382,0.1044,-1.9168,0.3101c-0.5714,0.2033,-1.0809,0.4944,-1.5145,0.8653c-0.4297,0.3678,-0.7885,0.8251,-1.0661,1.359c-0.2835,0.5454,-0.4739,1.1722,-0.5659,1.863L10.413,6.62c0.1208,-0.9083,0.3773,-1.7443,0.7622,-2.4848c0.3906,-0.7511,0.901,-1.3993,1.5174,-1.9268c0.6127,-0.5242,1.3258,-0.9331,2.1198,-1.2156c0.7871,-0.2799,1.6498,-0.4217,2.5644,-0.4217c0.7902,0,1.5776,0.1148,2.3403,0.3413c0.7945,0.236,1.5124,0.6108,2.134,1.1143c0.6304,0.5107,1.1456,1.1655,1.5315,1.9463c0.3893,0.7887,0.5866,1.7306,0.5866,2.7999c0,0.8755,-0.1455,1.7064,-0.4325,2.4697c-0.2743,0.7294,-0.6471,1.4363,-1.1083,2.1008c-0.4442,0.6397,-0.9636,1.2738,-1.544,1.8849c-0.5477,0.5766,-1.131,1.1743,-1.734,1.7768L13.5131,21H23.6V23z" fill="#7B7B7B"/>
  </g>
</svg>
