<?xml version="1.0" standalone="no"?>
<!DOCTYPE svg PUBLIC "-//W3C//DTD SVG 1.1//EN" "http://www.w3.org/Graphics/SVG/1.1/DTD/svg11.dtd" >
<!--
2022-2-21: Created with FontForge (http://fontforge.org)
-->
<svg xmlns="http://www.w3.org/2000/svg" xmlns:xlink="http://www.w3.org/1999/xlink" version="1.1">
<metadata>
Created by FontForge 20201107 at Mon Feb 21 15:37:02 2022
 By Marc
Copyright (c) 2022, Marc
</metadata>
<defs>
<font id="Icons-Regular" horiz-adv-x="240" >
  <font-face 
    font-family="Icons"
    font-weight="400"
    font-stretch="normal"
    units-per-em="240"
    panose-1="2 0 5 9 0 0 0 0 0 0"
    ascent="180"
    descent="-60"
    bbox="0 -60.0088 240.106 180"
    underline-thickness="50"
    underline-position="-100"
    unicode-range="U+E000-E121"
  />
    <missing-glyph />
    <glyph glyph-name="uniE000" unicode="&#xe000;" 
d="M120 -9.0791l-108.403 107.033l21.0781 21.3486l87.3252 -86.2236l87.3252 86.2236l21.0781 -21.3486z" />
    <glyph glyph-name="uniE001" unicode="&#xe001;" 
d="M157.641 -48.0889l-107.035 108.402l107.035 108.403l21.3467 -21.0781l-86.2217 -87.3252l86.2217 -87.3242z" />
    <glyph glyph-name="uniE002" unicode="&#xe002;" 
d="M82.3594 -48.0889l-21.3467 21.0781l86.2217 87.3242l-86.2217 87.3252l21.3467 21.0781l107.035 -108.403z" />
    <glyph glyph-name="uniE003" unicode="&#xe003;" 
d="M207.325 1.32617l-87.3252 86.2227l-87.3252 -86.2227l-21.0781 21.3477l108.403 107.034l108.403 -107.034z" />
    <glyph glyph-name="uniE004" unicode="&#xe004;" 
d="M120 1.46094l-103.134 101.83l10.54 10.6748l92.5938 -91.4268l92.5938 91.4268l10.54 -10.6748z" />
    <glyph glyph-name="uniE005" unicode="&#xe005;" 
d="M162.977 -42.8193l-101.83 103.133l101.83 103.134l10.6758 -10.5391l-91.4268 -92.5947l91.4268 -92.5938z" />
    <glyph glyph-name="uniE006" unicode="&#xe006;" 
d="M77.0234 -42.8193l-10.6758 10.5391l91.4268 92.5938l-91.4268 92.5947l10.6758 10.5391l101.83 -103.134z" />
    <glyph glyph-name="uniE007" unicode="&#xe007;" 
d="M212.594 6.66309l-92.5938 91.4268l-92.5938 -91.4268l-10.54 10.6738l103.134 101.831l103.134 -101.831z" />
    <glyph glyph-name="uniE008" unicode="&#xe008;" 
d="M120 15.9551l-73.7744 72.8418l10.5391 10.6738l63.2354 -62.4375l63.2354 62.4375l10.5391 -10.6738z" />
    <glyph glyph-name="uniE009" unicode="&#xe009;" 
d="M148.483 -13.4609l-72.8428 73.7744l72.8428 73.7764l10.6738 -10.541l-62.4375 -63.2354l62.4375 -63.2344z" />
    <glyph glyph-name="uniE00A" unicode="&#xe00a;" 
d="M91.5176 -13.4609l-10.6738 10.54l62.4375 63.2344l-62.4375 63.2354l10.6738 10.541l72.8418 -73.7764z" />
    <glyph glyph-name="uniE00B" unicode="&#xe00b;" 
d="M183.235 21.1572l-63.2354 62.4375l-63.2354 -62.4375l-10.5391 10.6738l73.7744 72.8438l73.7744 -72.8438z" />
    <glyph glyph-name="uniE00C" unicode="&#xe00c;" 
d="M90 -45h-75v75h15v-49.2813l170.001 169.281h-50.001v15h75v-75h-15v48.7886l-169.506 -168.789l49.5062 -7.10543e-15v-15z" />
    <glyph glyph-name="uniE00D" unicode="&#xe00d;" 
d="M225 -45h-75v15h48.8215l-168.821 168.13v-48.1304h-15v75h75v-15h-50.6609l170.661 -169.962v49.9622h15v-75z" />
    <glyph glyph-name="uniE00E" unicode="&#xe00e;" 
d="M172.5 -15h-127.5v127.5h15v-102.711l139.482 139.482l10.6064 -10.6064l-138.665 -138.665l101.076 -3.1225e-15v-15z" />
    <glyph glyph-name="uniE00F" unicode="&#xe00f;" 
d="M195 -15h-127.5v15l100.358 -1.40079e-16l-138.663 138.663l10.6074 10.6064l140.197 -140.196v103.427h15v-127.5z" />
    <glyph glyph-name="uniE010" unicode="&#xe010;" 
d="M60 7.46875h-15v127.5h127.5v-15h-101.075l138.664 -138.664l-10.6064 -10.6064l-139.482 139.482v-102.712z" />
    <glyph glyph-name="uniE011" unicode="&#xe011;" 
d="M39.8027 -29.3018l-10.6064 10.6064l138.695 138.695h-100.392v15h127.5v-127.5h-15v103.396z" />
    <glyph glyph-name="uniE012" unicode="&#xe012;" 
d="M112.5 -45.0391l-92.1807 91.0156l10.5391 10.6758l74.1416 -73.2077v196.416h15v-196.416l74.1416 73.2077l10.5391 -10.6758z" />
    <glyph glyph-name="uniE013" unicode="&#xe013;" 
d="M91.7969 -24l-91.0166 92.1807l91.0166 92.1816l10.6738 -10.541l-73.878 -74.8213h196.407v-15h-195.063l72.5339 -73.4609z" />
    <glyph glyph-name="uniE014" unicode="&#xe014;" 
d="M0 60v15h195.727l-73.8798 74.8213l10.6758 10.541l91.0156 -92.1816l-91.0156 -92.1807l-10.6758 10.5391l72.5357 73.4609h-194.383z" />
    <glyph glyph-name="uniE015" unicode="&#xe015;" 
d="M105 151.416l-74.1416 -73.206l-10.5391 10.6738l92.1807 91.0176l92.1807 -91.0176l-10.5391 -10.6738l-74.1416 73.206v-196.416h-15v196.416z" />
    <glyph glyph-name="uniE016" unicode="&#xe016;" 
d="M54.5225 14.4238l-53.0332 53.0322l53.0332 53.0342l10.6064 -10.6074l-34.8828 -34.8828h179.472l-34.882 34.8828l10.6064 10.6074l53.0322 -53.0342l-53.0322 -53.0322l-10.6064 10.6064l34.9697 34.9697h-179.647l34.9705 -34.9697z" />
    <glyph glyph-name="uniE017" unicode="&#xe017;" 
d="M112.5 -58.5176l-53.0322 53.0322l10.6064 10.6074l34.9697 -34.9705v179.646l-34.9697 -34.9697l-10.6064 10.6064l53.0322 53.0342l53.0322 -53.0342l-10.6064 -10.6064l-34.8818 34.8818v-179.471l34.8818 34.8826l10.6064 -10.6074z" />
    <glyph glyph-name="uniE018" unicode="&#xe018;" 
d="M185.442 -45.5762l-10.6064 10.6064l34.9697 34.9697l-197.806 -6.29705e-16v15l197.718 -1.77636e-15l-34.882 34.8828l10.6064 10.6074l53.0322 -53.0342zM54.5225 59.4238l-53.0332 53.0322l53.0332 53.0342l10.6064 -10.6074l-34.8828 -34.8828h197.754v-15h-197.842
l34.9705 -34.9697z" />
    <glyph glyph-name="uniE019" unicode="&#xe019;" 
d="M172.5 -58.5176l-53.0322 53.0322l10.6064 10.6074l34.9697 -34.9705v197.805h15v-197.717l34.8818 34.8826l10.6064 -10.6074zM75.0439 149.71v-197.754h-15v197.842l-34.9697 -34.9697l-10.6064 10.6064l53.0322 53.0342l53.0322 -53.0342l-10.6064 -10.6064z" />
    <glyph glyph-name="uniE01A" unicode="&#xe01a;" 
d="M111.75 89.8936l-41.3037 41.3027l10.6074 10.6074l23.9463 -23.9471v62.1433h15v-60.6433l22.4463 22.447l10.6074 -10.6074zM240 -60h-240v60v15v45h240v-45v-15v-60zM7.5 15v37.5h225v-37.5v-7.5h-225v7.5zM225 15v30h-210v-30h210z" />
    <glyph glyph-name="uniE01B" unicode="&#xe01b;" 
d="M191.196 11.1963l-41.3027 41.3037l41.3027 41.3037l10.6074 -10.6074l-23.197 -23.1963h61.3933v-15h-61.3933l23.197 -23.1963zM120 -60h-120v165v15v45h120v-45v-15v-165zM7.5 120v37.5h105v-37.5v-7.5h-105v7.5zM105 120v30h-90v-30h90z" />
    <glyph glyph-name="uniE01C" unicode="&#xe01c;" 
d="M48.8037 11.1963l-10.6074 10.6074l23.197 23.1963h-61.3933v15h61.3933l-23.197 23.1963l10.6074 10.6074l41.3027 -41.3037zM240 -60h-120v165v15v45h120v-45v-15v-165z" />
    <glyph glyph-name="uniE01D" unicode="&#xe01d;" 
d="M240 60h-240v60v15v45h240v-45v-15v-60zM120 1.39329v-61.3933h-15v62.8933l-23.9463 -23.9471l-10.6074 10.6074l41.3037 41.3027l41.3037 -41.3027l-10.6074 -10.6074zM7.5 135v37.5h225v-37.5v-7.5h-225v7.5zM225 135v30h-210v-30h210z" />
    <glyph glyph-name="uniE01E" unicode="&#xe01e;" 
d="M240 -60h-240v165v15v45h240v-45v-15v-165zM225 120h-210h210z" />
    <glyph glyph-name="uniE01F" unicode="&#xe01f;" 
d="M240 -60h-240v165v15v45h240v-45v-15v-165zM15 30h210v75h-210v-75z" />
    <glyph glyph-name="uniE020" unicode="&#xe020;" 
d="M240 -60h-240v165v15v45h240v-45v-15v-165zM120 105v-150h105v150h-105zM225 120h-210h210z" />
    <glyph glyph-name="uniE021" unicode="&#xe021;" 
d="M240 -60h-240v165v15v45h240v-45v-15v-165zM15 105v-150h105v150h-105z" />
    <glyph glyph-name="uniE022" unicode="&#xe022;" 
d="M15 -45h210v75h-210v-75zM240 -60h-240v165v15v45h240v-45v-15v-165zM225 120h-210h210z" />
    <glyph glyph-name="uniE023" unicode="&#xe023;" 
d="M120 60.6299l-86.585 85.4912l10.541 10.6738l76.0439 -75.085l76.0439 75.085l10.541 -10.6738zM120 -44.3701l-86.585 85.4912l10.541 10.6738l76.0439 -75.085l76.0439 75.085l10.541 -10.6738z" />
    <glyph glyph-name="uniE024" unicode="&#xe024;" 
d="M205.808 -26.2695l-85.4912 86.583l85.4912 86.585l10.6738 -10.5391l-75.085 -76.0459l75.085 -76.0439zM100.808 -26.2695l-85.4912 86.583l85.4912 86.585l10.6738 -10.5391l-75.085 -76.0459l75.085 -76.0439z" />
    <glyph glyph-name="uniE025" unicode="&#xe025;" 
d="M34.1924 -26.2695l-10.6738 10.5391l75.085 76.0439l-75.085 76.0459l10.6738 10.5391l85.4912 -86.585zM139.192 -26.2695l-10.6738 10.5391l75.085 76.0439l-75.085 76.0459l10.6738 10.5391l85.4912 -86.585z" />
    <glyph glyph-name="uniE026" unicode="&#xe026;" 
d="M196.044 -36.166l-76.0439 75.085l-76.0439 -75.085l-10.541 10.6738l86.585 85.4902l86.585 -85.4902zM196.044 68.834l-76.0439 75.085l-76.0439 -75.085l-10.541 10.6738l86.585 85.4902l86.585 -85.4902z" />
    <glyph glyph-name="uniE027" unicode="&#xe027;" 
d="M60.8066 149.936l58.2285 -66.5674l58.6445 66.5674h-116.873zM118.996 60.6318l-91.2383 104.304h183.127zM60.8066 29.9355l58.2285 -66.5674l58.6445 66.5674h-116.873zM118.996 -59.3682l-91.2383 104.304h183.127z" />
    <glyph glyph-name="uniE028" unicode="&#xe028;" 
d="M143.433 60.2471l66.5674 -58.6455v116.873zM225 -31.6016l-104.304 91.8877l104.304 91.2393v-183.127zM23.4326 60.2471l66.5674 -58.6455v116.873zM105 -31.6016l-104.304 91.8877l104.304 91.2393v-183.127z" />
    <glyph glyph-name="uniE029" unicode="&#xe029;" 
d="M30.0645 118.475v-116.873l66.5674 58.6445zM15.0645 -31.6016v183.127l104.304 -91.2393zM150.064 118.475v-116.873l66.5674 58.6445zM135.064 -31.6016v183.127l104.304 -91.2393z" />
    <glyph glyph-name="uniE02A" unicode="&#xe02a;" 
d="M60.8066 -30h116.873l-58.6445 66.5674zM210.885 -45h-183.127l91.2383 104.304zM60.8066 90h116.873l-58.6445 66.5674zM210.885 75h-183.127l91.2383 104.304z" />
    <glyph glyph-name="uniE02B" unicode="&#xe02b;" 
d="M118.996 60.6318l-91.2383 104.304h183.127zM118.996 -59.3682l-91.2383 104.304h183.127z" />
    <glyph glyph-name="uniE02C" unicode="&#xe02c;" 
d="M225 -31.6016l-104.304 91.8877l104.304 91.2393v-183.127zM105 -31.6016l-104.304 91.8877l104.304 91.2393v-183.127z" />
    <glyph glyph-name="uniE02D" unicode="&#xe02d;" 
d="M15.0645 -31.6016v183.127l104.304 -91.2393zM135.064 -31.6016v183.127l104.304 -91.2393z" />
    <glyph glyph-name="uniE02E" unicode="&#xe02e;" 
d="M210.885 -45h-183.127l91.2383 104.304zM210.885 75h-183.127l91.2383 104.304z" />
    <glyph glyph-name="uniE02F" unicode="&#xe02f;" 
d="M66 -60h-66v66h15v-40.4374l61.9521 61.7255l10.5879 -10.626l-61.8894 -61.6621h40.3493v-15zM240 -60h-66v15h40.3444l-61.8854 61.6582l10.5879 10.626l61.9531 -61.7265v40.4423h15v-66zM15 114h-15v66h66v-15h-40.3464l61.8835 -61.6562l-10.5869 -10.626
l-61.9502 61.7227zM240 114h-15v40.4472l-61.9541 -61.7274l-10.5869 10.626l61.8807 61.6543h-40.3397v15h66v-66z" />
    <glyph glyph-name="uniE030" unicode="&#xe030;" 
d="M200.521 75.0088h-65.5127v65.6855h15v-40.1193l61.9385 61.711l10.5869 -10.626l-61.8786 -61.6514h39.8659v-15zM104.991 75.0088h-65.5127v15h39.8581l-61.8756 61.6484l10.5869 10.626l61.9434 -61.7151v40.1262h15v-65.6855zM150.009 -20.6943h-15v65.6855h65.5127
v-15h-39.8592l61.8729 -61.6465l-10.5869 -10.626l-61.9395 61.7128v-40.1259zM104.991 -20.6943h-15v40.129l-61.9404 -61.713l-10.5869 10.626l61.8707 61.6436h-39.8561v15h65.5127v-65.6855z" />
    <glyph glyph-name="uniE031" unicode="&#xe031;" 
d="M210 75h-75v75h15v-49.4382l76.9521 76.7126l10.5898 -10.623l-76.8907 -76.6514h49.3487v-15zM105 -30h-15v49.4314l-76.9561 -76.7165l-10.5898 10.623l76.9015 76.6621h-49.3556v15h75v-75z" />
    <glyph glyph-name="uniE032" unicode="&#xe032;" 
d="M75 -60h-75v75h15v-49.4303l76.9443 76.7057l10.5908 -10.623l-76.8917 -76.6523h49.3565v-15zM240 105h-15v49.4225l-76.9482 -76.7096l-10.5908 10.623l76.9034 76.6641h-49.3644v15h75v-75z" />
    <glyph glyph-name="uniE033" unicode="&#xe033;" 
d="M225 90h-75v75h15v-60h60v-15zM90 90h-75v15h60v60h15v-75zM165 -45h-15v75h75v-15h-60v-60zM90 -45h-15v60h-60v15h75v-75z" />
    <glyph glyph-name="uniE034" unicode="&#xe034;" 
d="M66 -60h-66v66h15v-51h51v-15zM240 -60h-66v15h51v51h15v-66zM15 114h-15v66h66v-15h-51v-51zM240 114h-15v51h-51v15h66v-66z" />
    <glyph glyph-name="uniE035" unicode="&#xe035;" 
d="M60 0h120v120h-120v-120zM195 -15h-150v150h150v-150z" />
    <glyph glyph-name="uniE036" unicode="&#xe036;" 
d="M187.502 -60.0088l-0.00390625 15l37.502 0.00683594v37.502h15v-52.498zM52.498 -60l-52.498 0.0107422v52.4893h15v-37.4922l37.502 -0.0078125zM240 127.5h-15v37.4922l-37.502 0.0078125l0.00390625 15l52.498 -0.0107422v-52.4893zM15.0088 127.806h-15v52.1836
l52.4893 0.0107422l0.00390625 -15l-37.4932 -0.0078125v-37.1865zM45 -15h150v150h-150v-150zM210 -30h-180v180h180v-180z" />
    <glyph glyph-name="uniE037" unicode="&#xe037;" 
d="M75 15h90v60h-90v-60zM180 0h-120v75v15v30h120v-30v-15v-75z" />
    <glyph glyph-name="uniE038" unicode="&#xe038;" 
d="M15 -45h210v165h-210v-165zM240 -60h-240v180v15v45h240v-45v-15v-180z" />
    <glyph glyph-name="uniE039" unicode="&#xe039;" 
d="M11.3037 179.304l227.999 -228.001l-10.6064 -10.6064l-228 228zM0.696289 119.196l10.6064 10.6064l178.5 -178.5l-10.6064 -10.6064zM0.696289 71.1963l10.6064 10.6064l130.5 -130.5l-10.6064 -10.6064zM0.696289 21.6963l10.6064 10.6064l81 -81l-10.6064 -10.6064z
M11.3037 -15.6963l33 -33l-10.6064 -10.6064l-33 33z" />
    <glyph glyph-name="uniE03A" unicode="&#xe03a;" 
d="M228.696 179.304l10.6064 -10.6064l-228 -228l-10.6064 10.6064zM228.696 129.804l10.6064 -10.6064l-178.5 -178.5l-10.6064 10.6064zM228.696 81.8037l10.6064 -10.6064l-130.5 -130.5l-10.6064 10.6064zM228.696 32.3037l10.6064 -10.6064l-81 -81l-10.6064 10.6064z
M239.304 -26.3037l-33 -33l-10.6064 10.6064l33 33z" />
    <glyph glyph-name="uniE03B" unicode="&#xe03b;" 
d="M228.696 179.304l10.6064 -10.6064l-228 -228l-10.6064 10.6064zM11.3037 -9.80371l-10.6064 10.6064l178.5 178.5l10.6064 -10.6064zM11.3037 38.1963l-10.6064 10.6064l130.5 130.5l10.6064 -10.6064zM11.3037 87.6963l-10.6064 10.6064l81 81l10.6064 -10.6064z
M0.696289 146.304l33 33l10.6064 -10.6064l-33 -33z" />
    <glyph glyph-name="uniE03C" unicode="&#xe03c;" 
d="M0.696289 168.696l10.6064 10.6064l228 -228l-10.6064 -10.6064zM50.1963 168.696l10.6064 10.6064l178.5 -178.5l-10.6064 -10.6064zM98.1963 168.696l10.6064 10.6064l130.5 -130.5l-10.6064 -10.6064zM147.696 168.696l10.6064 10.6064l81 -81l-10.6064 -10.6064z
M228.696 135.696l-33 33l10.6064 10.6064l33 -33z" />
    <glyph glyph-name="uniE03D" unicode="&#xe03d;" 
d="M0 165h240v-30v-15v-180h-240v180v15v30zM15 -45h210v165h-210v-165zM135 135h15v15h-15v-15zM165 135h15v15h-15v-15zM195 135h15v15h-15v-15z" />
    <glyph glyph-name="uniE03E" unicode="&#xe03e;" 
d="M30 97.5v15h15v-15h-15zM60 97.5v15h15v-15h-15zM195 97.5v15h15v-15h-15zM120 97.5v15h15v-15h-15zM90 97.5v15h15v-15h-15zM0 165h240v-30v-15v-180h-240v180v15v30zM15 -45h210v120h-210v-120zM15 90h210v30h-210v-30zM135 135h15v15h-15v-15zM165 135h15v15h-15v-15z
M195 135h15v15h-15v-15z" />
    <glyph glyph-name="uniE03F" unicode="&#xe03f;" 
d="M0 165h240v-30v-15v-180h-240v180v15v30zM15 120v-165h45v165h-45zM75 120v-165h150v165h-150zM135 135h15v15h-15v-15zM165 135h15v15h-15v-15zM195 135h15v15h-15v-15z" />
    <glyph glyph-name="uniE040" unicode="&#xe040;" 
d="M30 97.5v15h15v-15h-15zM60 97.5v15h15v-15h-15zM195 97.5v15h15v-15h-15zM120 97.5v15h15v-15h-15zM90 97.5v15h15v-15h-15zM0 165h240v-30v-15v-180h-240v180v15v30zM60 75h-45v-120h45v120zM75 75v-120h150v120h-150zM15 90h210v30h-210v-30zM135 135h15v15h-15v-15z
M165 135h15v15h-15v-15zM195 135h15v15h-15v-15z" />
    <glyph glyph-name="uniE041" unicode="&#xe041;" 
d="M45 0v15h150v-15h-150zM45 30v15h150v-15h-150zM45 60v15h150v-15h-150zM0 165h240v-30v-15v-180h-240v180v15v30zM15 -45h210v165h-210v-165zM135 135h15v15h-15v-15zM165 135h15v15h-15v-15zM195 135h15v15h-15v-15z" />
    <glyph glyph-name="uniE042" unicode="&#xe042;" 
d="M45 0v15h150v-15h-150zM45 30v15h150v-15h-150zM30 97.5v15h15v-15h-15zM60 97.5v15h15v-15h-15zM195 97.5v15h15v-15h-15zM120 97.5v15h15v-15h-15zM90 97.5v15h15v-15h-15zM0 165h240v-30v-15v-180h-240v180v15v30zM15 -45h210v120h-210v-120zM15 90h210v30h-210v-30z
M135 135h15v15h-15v-15zM165 135h15v15h-15v-15zM195 135h15v15h-15v-15z" />
    <glyph glyph-name="uniE043" unicode="&#xe043;" 
d="M105 0v15h90v-15h-90zM105 30v15h90v-15h-90zM30 97.5v15h15v-15h-15zM60 97.5v15h15v-15h-15zM195 97.5v15h15v-15h-15zM120 97.5v15h15v-15h-15zM90 97.5v15h15v-15h-15zM0 165h240v-30v-15v-180h-240v180v15v30zM60 75h-45v-120h45v120zM75 75v-120h150v120h-150z
M15 90h210v30h-210v-30zM135 135h15v15h-15v-15zM165 135h15v15h-15v-15zM195 135h15v15h-15v-15z" />
    <glyph glyph-name="uniE044" unicode="&#xe044;" 
d="M225 -45v210h-210v-210h210zM0 180h240v-240h-240v240z" />
    <glyph glyph-name="uniE045" unicode="&#xe045;" 
d="M240 -60h-240v240h240v-240zM112.5 165h-97.5v-210h97.5v210zM127.5 165v-210h97.5v210h-97.5z" />
    <glyph glyph-name="uniE046" unicode="&#xe046;" 
d="M240 -60h-240v240h240v-240zM75 165h-60v-210h60v210zM90 165v-210h60v210h-60zM165 165v-210h60v210h-60z" />
    <glyph glyph-name="uniE047" unicode="&#xe047;" 
d="M240 -60h-240v240h240v-240zM75 165h-60v-210h60v210zM90 165v-210h135v210h-135z" />
    <glyph glyph-name="uniE048" unicode="&#xe048;" 
d="M0 180h240v-240h-240v240zM165 -45h60v210h-60v-210zM150 -45v210h-135v-210h135z" />
    <glyph glyph-name="uniE049" unicode="&#xe049;" 
d="M15 -45h210v97.5h-210v-97.5zM240 -60h-240v240h240v-240zM15 67.5h210v97.5h-210v-97.5z" />
    <glyph glyph-name="uniE04A" unicode="&#xe04a;" 
d="M15 -45h210v60h-210v-60zM240 -60h-240v240h240v-240zM15 90v-60l210 7.10543e-15v60h-210zM15 105h210v60h-210v-60z" />
    <glyph glyph-name="uniE04B" unicode="&#xe04b;" 
d="M15 -45h210v135h-210v-135zM240 -60h-240v240h240v-240zM15 105h210v60h-210v-60z" />
    <glyph glyph-name="uniE04C" unicode="&#xe04c;" 
d="M0 180h240v-240h-240v240zM15 30l210 7.10543e-15v135h-210v-135zM15 15v-60h210v60h-210z" />
    <glyph glyph-name="uniE04D" unicode="&#xe04d;" 
d="M0 180h240v-240h-240v240zM127.5 -45h97.5v97.5h-97.5v-97.5zM112.5 -45v97.5h-97.5l-1.77636e-15 -97.5h97.5zM15 67.5h97.5v97.5h-97.5v-97.5zM127.5 165v-97.5h97.5v97.5h-97.5z" />
    <glyph glyph-name="uniE04E" unicode="&#xe04e;" 
d="M150 30v60h-60v-60h60zM0 180h240v-240h-240v240zM165 -45h60v60l-60 1.77636e-15v-60zM150 -45v60h-60v-60h60zM75 -45v60l-60 -1.77636e-15v-60h60zM15 30l60 7.10543e-15v60h-60v-60zM15 105h60v60h-60v-60zM90 165v-60h60v60h-60zM165 165v-60h60v60h-60zM225 90h-60
v-60h60v60z" />
    <glyph glyph-name="uniE04F" unicode="&#xe04f;" 
d="M240 -60h-240v240h240v-240zM15 90v-135h60v135h-60zM15 105h60v60h-60v-60zM90 165v-60h135v60h-135zM225 90h-135v-135h135v135z" />
    <glyph glyph-name="uniE050" unicode="&#xe050;" 
d="M240 -60h-240v240h240v-240zM15 90v-135h60v135h-60zM15 105h210v60h-210v-60zM225 90h-135v-135h135v135z" />
    <glyph glyph-name="uniE051" unicode="&#xe051;" 
d="M0 180h240v-240h-240v240zM165 -45h60v135h-60v-135zM150 -45v135h-135l-3.55271e-15 -135h135zM15 105h135v60h-135v-60zM165 165v-60h60v60h-60z" />
    <glyph glyph-name="uniE052" unicode="&#xe052;" 
d="M0 180h240v-240h-240v240zM165 -45h60v135h-60v-135zM150 -45v135h-135l-3.55271e-15 -135h135zM15 105h210v60h-210v-60z" />
    <glyph glyph-name="uniE053" unicode="&#xe053;" 
d="M0 180h240v-240h-240v240zM90 -45h135v60l-135 1.77636e-15v-60zM75 -45v60l-60 -1.77636e-15v-60h60zM15 30l60 7.10543e-15v135h-60v-135zM90 165v-135h135v135h-135z" />
    <glyph glyph-name="uniE054" unicode="&#xe054;" 
d="M0 180h240v-240h-240v240zM15 15l3.55271e-15 -60h210v60h-210zM15 30l60 7.10543e-15v135h-60v-135zM90 165v-135h135v135h-135z" />
    <glyph glyph-name="uniE055" unicode="&#xe055;" 
d="M0 180h240v-240h-240v240zM165 -45h60v60l-60 1.77636e-15v-60zM150 -45v60l-135 -1.77636e-15l-3.55271e-15 -60h135zM15 30l135 7.10543e-15v135h-135v-135zM165 165v-135h60v135h-60z" />
    <glyph glyph-name="uniE056" unicode="&#xe056;" 
d="M0 180h240v-240h-240v240zM15 15l5.32907e-15 -60h210v60h-210zM15 30l135 7.10543e-15v135h-135v-135zM165 165v-135h60v135h-60z" />
    <glyph glyph-name="uniE057" unicode="&#xe057;" 
d="M0 180h240v-240h-240v240zM127.5 -45h97.5v135h-97.5v-135zM112.5 -45v135h-97.5l1.77636e-15 -135h97.5zM15 105h210v60h-210v-60z" />
    <glyph glyph-name="uniE058" unicode="&#xe058;" 
d="M225 165h-210v-60h210v60zM0 180h240v-240h-240v240zM225 15l-97.5 1.77636e-15v-60h97.5v60zM225 90h-97.5v-60h97.5v60zM112.5 -45v60l-97.5 -1.77636e-15v-60h97.5zM15 30l97.5 7.10543e-15v60h-97.5z" />
    <glyph glyph-name="uniE059" unicode="&#xe059;" 
d="M90 30h60v60h-60v-60zM225 165h-210v-60h210v60zM0 180h240v-240h-240v240zM225 15l-60 1.77636e-15v-60h60v60zM225 90h-60v-60h60v60zM150 -45v60h-60v-60h60zM75 -45v60l-60 -1.77636e-15v-60h60zM15 30l60 7.10543e-15v60h-60z" />
    <glyph glyph-name="uniE05A" unicode="&#xe05a;" 
d="M0 180h240v-240h-240v240zM225 30v135h-97.5v-135h97.5zM225 15h-210l5.32907e-15 -60h210v60zM15 30l97.5 7.10543e-15v135h-97.5v-135z" />
    <glyph glyph-name="uniE05B" unicode="&#xe05b;" 
d="M0 180h240v-240h-240v240zM225 90h-97.5v-60h97.5v60zM225 15h-210l5.32907e-15 -60h210v60zM225 105v60h-97.5v-60h97.5zM15 30l97.5 7.10543e-15v60h-97.5v-60zM15 105h97.5v60h-97.5v-60z" />
    <glyph glyph-name="uniE05C" unicode="&#xe05c;" 
d="M150 30v60h-60v-60h60zM0 180h240v-240h-240v240zM225 90h-60v-60h60v60zM225 15h-210l5.32907e-15 -60h210v60zM225 105v60h-60v-60h60zM15 30l60 7.10543e-15v60h-60v-60zM15 105h60v60h-60v-60zM90 165v-60h60v60h-60z" />
    <glyph glyph-name="uniE05D" unicode="&#xe05d;" 
d="M15 165v-210h60v210h-60zM0 -60v240h240v-240h-240zM90 165v-97.5h135v97.5h-135zM225 52.5h-135v-97.5h135v97.5z" />
    <glyph glyph-name="uniE05E" unicode="&#xe05e;" 
d="M15 165v-210h60v210h-60zM0 -60v240h240v-240h-240zM90 165v-97.5h60v97.5h-60zM165 165v-97.5h60v97.5h-60zM225 52.5h-60v-97.5h60v97.5zM150 -45v97.5h-60v-97.5h60z" />
    <glyph glyph-name="uniE05F" unicode="&#xe05f;" 
d="M150 30v60h-60v-60h60zM15 165v-210h60v210h-60zM0 -60v240h240v-240h-240zM90 165v-60h60v60h-60zM165 165v-60h60v60h-60zM225 90h-60v-60h60v60zM225 15l-60 1.77636e-15v-60h60v60zM150 -45v60h-60v-60h60z" />
    <glyph glyph-name="uniE060" unicode="&#xe060;" 
d="M0 -60v240h240v-240h-240zM165 165v-210l60 7.10543e-15v210h-60zM150 165h-135v-97.5h135v97.5zM150 -45v97.5h-135l-3.55271e-15 -97.5h135z" />
    <glyph glyph-name="uniE061" unicode="&#xe061;" 
d="M0 -60v240h240v-240h-240zM165 165v-210l60 7.10543e-15v210h-60zM75 165h-60v-97.5h60v97.5zM90 165v-97.5h60v97.5h-60zM150 -45v97.5h-60v-97.5h60zM75 -45v97.5h-60l-1.77636e-15 -97.5h60z" />
    <glyph glyph-name="uniE062" unicode="&#xe062;" 
d="M90 30h60v60h-60v-60zM0 -60v240h240v-240h-240zM165 165v-210l60 7.10543e-15v210h-60zM75 165h-60v-60h60v60zM90 165v-60h60v60h-60zM150 -45v60h-60v-60h60zM75 -45v60l-60 -1.77636e-15l-1.77636e-15 -60h60zM15 30l60 7.10543e-15v60h-60z" />
    <glyph glyph-name="uniE063" unicode="&#xe063;" 
d="M0 -60v240h240v-240h-240zM225 15v90h-210v-90h210zM225 -1.249e-15l-210 2.91434e-15v-45h210v45zM225 120v45h-210v-45h210z" />
    <glyph glyph-name="uniE064" unicode="&#xe064;" 
d="M0 -60v240h240v-240h-240zM112.5 105h-97.5v-90l97.5 1.77636e-15v90zM127.5 105v-90h97.5v90h-97.5zM225 -1.249e-15l-210 2.91434e-15v-45h210v45zM225 120v45h-210v-45h210z" />
    <glyph glyph-name="uniE065" unicode="&#xe065;" 
d="M150 15v90h-60v-90h60zM0 -60v240h240v-240h-240zM225 105h-60v-90l60 -1.77636e-15v90zM225 -1.249e-15l-210 2.91434e-15v-45h210v45zM225 120v45h-210v-45h210zM15 15l60 1.77636e-15v90h-60z" />
    <glyph glyph-name="uniE066" unicode="&#xe066;" 
d="M0 -60v240h240v-240h-240zM112.5 165h-97.5v-45h97.5v45zM127.5 165v-45h97.5v45h-97.5zM225 15v90h-210v-90h210zM225 -1.249e-15l-97.5 1.249e-15v-45h97.5v45zM112.5 -45v45l-97.5 1.66533e-15l1.77636e-15 -45h97.5z" />
    <glyph glyph-name="uniE067" unicode="&#xe067;" 
d="M0 -60v240h240v-240h-240zM75 165h-60v-45h60v45zM90 165v-45h60v45h-60zM165 165v-45h60v45h-60zM225 15v90h-210v-90h210zM225 -1.249e-15l-60 1.249e-15v-45h60v45zM150 -45v45h-60v-45h60zM75 -45v45l-60 1.66533e-15l-1.77636e-15 -45h60z" />
    <glyph glyph-name="uniE068" unicode="&#xe068;" 
d="M240 -60h-240v240h240v-240zM165 165h-90v-210h90v210zM180 165v-210h45v210h-45zM60 165h-45v-210h45v210z" />
    <glyph glyph-name="uniE069" unicode="&#xe069;" 
d="M240 -60h-240v240h240v-240zM180 165v-210h45v210h-45zM60 165h-45v-210h45v210zM75 165v-97.5h90v97.5h-90zM165 -45v97.5h-90v-97.5h90z" />
    <glyph glyph-name="uniE06A" unicode="&#xe06a;" 
d="M75 30h90v60h-90v-60zM240 -60h-240v240h240v-240zM180 165v-210h45v210h-45zM60 165h-45v-210h45v210zM75 165v-60h90v60h-90zM165 -45v60h-90v-60h90z" />
    <glyph glyph-name="uniE06B" unicode="&#xe06b;" 
d="M0 180h240v-240h-240v240zM75 -45h90v210h-90v-210zM60 -45v97.5h-45v-97.5h45zM180 -45h45v97.5h-45v-97.5zM15 67.5h45v97.5h-45v-97.5zM180 165v-97.5h45v97.5h-45z" />
    <glyph glyph-name="uniE06C" unicode="&#xe06c;" 
d="M240 -60h-240v240h240v-240zM15 15v-60h45v60zM15 30l45 7.10543e-15v60h-45v-60zM15 105h45v60h-45v-60zM75 165v-210h90v210h-90zM180 165v-60h45v60h-45zM225 90h-45v-60h45v60zM225 15l-45 1.77636e-15v-60h45v60z" />
    <glyph glyph-name="uniE06D" unicode="&#xe06d;" 
d="M240 -60h-240v240h240v-240zM75 165h-60v-210h60v210zM90 165v-60h135v60h-135zM225 90h-135v-135h135v135z" />
    <glyph glyph-name="uniE06E" unicode="&#xe06e;" 
d="M240 -60h-240v240h240v-240zM75 165h-60v-210h60v210zM90 165v-135h135v135h-135zM225 15l-135 1.77636e-15v-60h135v60z" />
    <glyph glyph-name="uniE06F" unicode="&#xe06f;" 
d="M0 180h240v-240h-240v240zM165 -45h60v210h-60v-210zM150 -45v135h-135l-3.55271e-15 -135h135zM15 105h135v60h-135v-60z" />
    <glyph glyph-name="uniE070" unicode="&#xe070;" 
d="M0 180h240v-240h-240v240zM165 -45h60v210h-60v-210zM150 -45v60l-135 -1.77636e-15l-3.55271e-15 -60h135zM15 30l135 7.10543e-15v135h-135v-135z" />
    <glyph glyph-name="uniE071" unicode="&#xe071;" 
d="M240 -60h-240v240h240v-240zM15 90v-135h60v135h-60zM15 105h210v60h-210v-60zM225 90h-135v-60h135v60zM225 15l-135 1.77636e-15v-60h135v60z" />
    <glyph glyph-name="uniE072" unicode="&#xe072;" 
d="M0 180h240v-240h-240v240zM165 -45h60v135h-60v-135zM150 -45v60l-135 -1.77636e-15l-3.55271e-15 -60h135zM15 30l135 7.10543e-15v60h-135zM15 105h210v60h-210v-60z" />
    <glyph glyph-name="uniE073" unicode="&#xe073;" 
d="M15 -45h210v60h-210zM240 -60h-240v240h240v-240zM15 30l60 7.10543e-15v135h-60v-135zM90 165v-60h135v60h-135zM225 90h-135v-60h135v60z" />
    <glyph glyph-name="uniE074" unicode="&#xe074;" 
d="M0 180h240v-240h-240v240zM225 30v135h-60v-135h60zM225 15h-210l5.32907e-15 -60h210v60zM15 30l135 7.10543e-15v60h-135zM15 105h135v60h-135v-60z" />
    <glyph glyph-name="uniE075" unicode="&#xe075;" 
d="M0 180h240v-240h-240v240zM225 90h-97.5v-135h97.5v135zM225 105v60h-97.5v-60h97.5zM112.5 -45v60l-97.5 -1.77636e-15l1.77636e-15 -60h97.5zM15 30l97.5 7.10543e-15v135h-97.5v-135z" />
    <glyph glyph-name="uniE076" unicode="&#xe076;" 
d="M240 180v-240h-240v240h240zM165 -45h60v97.5h-60v-97.5zM150 -45v97.5h-135l-3.55271e-15 -97.5h135zM15 67.5h60v97.5h-60v-97.5zM90 165v-97.5h135v97.5h-135z" />
    <glyph glyph-name="uniE077" unicode="&#xe077;" 
d="M240 -60h-240v240h240v-240zM15 15l-1.77636e-15 -60h60v60zM15 30l60 7.10543e-15v135h-60v-135zM90 165v-210h60v210h-60zM165 165v-60h60v60h-60zM225 90h-60v-135h60v135z" />
    <glyph glyph-name="uniE078" unicode="&#xe078;" 
d="M0 -60v240h240v-240h-240zM75 165h-60v-60h60v60zM90 165v-60h135v60h-135zM225 90h-210v-60l210 7.10543e-15v60zM225 15l-60 1.77636e-15v-60h60v60zM150 -45v60l-135 -1.77636e-15l-3.55271e-15 -60h135z" />
    <glyph glyph-name="uniE079" unicode="&#xe079;" 
d="M177.489 141.044c-16.8662 12.0508 -36.7461 18.4209 -57.4893 18.4209s-40.623 -6.37012 -57.4893 -18.4209l-3.04199 -2.17383l-0.434179 0.603487c-23.6838 -18.2902 -38.9643 -46.9588 -38.9643 -79.1289c0 -55.1006 44.8291 -99.9297 99.9297 -99.9297
s99.9297 44.8291 99.9297 99.9297c0 32.1709 -15.2812 60.8401 -38.9659 79.1302l-0.43445 -0.60381zM120 -56.8047c-64.5957 0 -117.15 52.5537 -117.15 117.149c0 37.9162 18.1068 71.6832 46.1272 93.1086l-0.507122 0.704874l3.05859 2.18652
c20.0859 14.3672 43.7637 21.96 68.4717 21.96s48.3857 -7.59277 68.4707 -21.958l3.05859 -2.1875l-0.507258 -0.705c28.0211 -21.4253 46.1284 -55.1927 46.1284 -93.1095c0 -64.5957 -52.5547 -117.149 -117.15 -117.149z" />
    <glyph glyph-name="uniE07A" unicode="&#xe07a;" 
d="M210.137 101.477c-8.58008 18.8701 -22.6113 34.3262 -40.5771 44.6973c-15.0225 8.67285 -32.0996 13.2568 -49.3838 13.2568c-3.19336 0 -6.42773 -0.15625 -9.6123 -0.466797l-3.71973 -0.361328l-0.079293 0.789269
c-48.8676 -6.49499 -86.6941 -48.4424 -86.6941 -99.0568c0 -55.1016 44.8291 -99.9307 99.9297 -99.9307s99.9297 44.8281 99.9297 99.9307c0 13.4694 -2.67875 26.325 -7.53147 38.062l-0.715605 -0.322696zM120 -56.8154c-64.5957 0 -117.15 52.5527 -117.15 117.15
c0 59.5301 44.6339 108.831 102.193 116.199l-0.0813479 0.809724l3.74219 0.366211c3.80762 0.371094 7.6748 0.558594 11.4922 0.558594c20.5781 0 40.9043 -5.45508 58.7832 -15.7783c21.3994 -12.3535 38.1064 -30.7695 48.3184 -53.251l1.55469 -3.42285
l-0.748518 -0.337538c5.82669 -13.9003 9.04735 -29.1531 9.04735 -45.1439c0 -64.5967 -52.5547 -117.15 -117.15 -117.15z" />
    <glyph glyph-name="uniE07B" unicode="&#xe07b;" 
d="M218.605 46.8418l0.361328 3.71973c2.00293 20.6318 -2.41895 41.0332 -12.792 58.998c-10.3711 17.9648 -25.8271 31.9951 -44.6973 40.5771l-3.40332 1.54785l0.321954 0.713959c-11.7367 4.85252 -24.592 7.53116 -38.0612 7.53116
c-55.1016 0 -99.9307 -44.8291 -99.9307 -99.9297s44.8291 -99.9297 99.9307 -99.9297c50.6139 0 92.561 37.8257 99.0566 86.6926zM120.335 -57.1504c-64.5967 0 -117.15 52.5547 -117.15 117.15s52.5537 117.15 117.15 117.15
c15.9905 0 31.2431 -3.22054 45.1432 -9.04704l0.338278 0.75016l3.42285 -1.55566c22.4834 -10.2119 40.8975 -26.9199 53.251 -48.3174c12.3545 -21.3994 17.6182 -45.7012 15.2197 -70.2773l-0.366211 -3.74219l-0.809733 0.0812771
c-7.36761 -57.5588 -56.669 -102.193 -116.199 -102.193z" />
    <glyph glyph-name="uniE07C" unicode="&#xe07c;" 
d="M198.871 -0.53125l2.17383 3.04199c12.0508 16.8662 18.4219 36.7461 18.4219 57.4893s-6.37109 40.623 -18.4219 57.4893l-2.17383 3.04199l0.60286 0.433728c-18.2902 23.684 -46.9589 38.9647 -79.1292 38.9647c-55.1006 0 -99.9297 -44.8291 -99.9297 -99.9297
s44.8271 -99.9297 99.9297 -99.9297c32.1708 0 60.8395 15.2806 79.1294 38.9646zM120.345 -57.1504c-64.5957 0 -117.149 52.5547 -117.149 117.15s52.5537 117.15 117.149 117.15c37.9164 0 71.6836 -18.107 93.1089 -46.1277l0.705504 0.507575l2.1875 -3.05957
c14.3652 -20.085 21.958 -43.7627 21.958 -68.4707s-7.59277 -48.3857 -21.958 -68.4707l-2.1875 -3.05859l-0.705045 0.5072c-21.4253 -28.0211 -55.1927 -46.1283 -93.1094 -46.1283z" />
    <glyph glyph-name="uniE07D" unicode="&#xe07d;" 
d="M158.076 -31.6855l3.40332 1.54785c18.8701 8.58105 34.3262 22.6123 44.6973 40.5762s14.7939 38.3652 12.79 58.998l-0.361328 3.71973l0.786406 0.0789315c-6.49471 48.8678 -48.4415 86.6945 -99.0569 86.6945c-55.1016 0 -99.9307 -44.8291 -99.9307 -99.9297
s44.8291 -99.9297 99.9307 -99.9297c13.4695 0 26.3253 2.67887 38.0624 7.53181zM120.335 -57.1504c-64.5967 0 -117.15 52.5547 -117.15 117.15s52.5537 117.15 117.15 117.15c59.5299 0 108.832 -44.6349 116.199 -102.195l0.810467 0.0813466l0.366211 -3.74219
c2.39844 -24.5771 -2.86523 -48.877 -15.2188 -70.2764c-12.3545 -21.3994 -30.7686 -38.1064 -53.252 -48.3184l-3.42285 -1.55566l-0.339057 0.752024c-13.9001 -5.82644 -29.1527 -9.04695 -45.1434 -9.04695z" />
    <glyph glyph-name="uniE07E" unicode="&#xe07e;" 
d="M120.193 -58.2725c-3.81738 0 -7.68457 0.1875 -11.4902 0.55957l-3.74219 0.366211l0.0815633 0.812626c-57.5589 7.36749 -102.193 56.6689 -102.193 116.199c0 64.5977 52.5547 117.15 117.15 117.15s117.15 -52.5537 117.15 -117.15
c0 -15.9914 -3.22092 -31.2449 -9.04807 -45.1456l0.751193 -0.338744l-1.55566 -3.42285c-10.2119 -22.4834 -26.9189 -40.8975 -48.3174 -53.251c-17.8789 -10.3223 -38.208 -15.7793 -58.7871 -15.7793zM120 159.594c-55.1006 0 -99.9297 -44.8291 -99.9297 -99.9297
c0 -50.6139 37.8258 -92.561 86.6927 -99.0567l0.0788073 0.785168l3.71973 -0.361328c3.18652 -0.310547 6.42188 -0.46582 9.61523 -0.46582c17.2852 0 34.3623 4.58496 49.3828 13.2568c17.9658 10.3721 31.9971 25.8281 40.5771 44.6963l1.54785 3.4043
l0.713421 -0.321711c4.85286 11.7371 7.5317 24.593 7.5317 38.0629c0 55.1025 -44.8291 99.9297 -99.9297 99.9297z" />
    <glyph glyph-name="uniE07F" unicode="&#xe07f;" 
d="M120 -58.3076c-24.708 0 -48.3857 7.59277 -68.4707 21.958l-3.05859 2.1875l0.508133 0.706216c-28.0216 21.4252 -46.1292 55.1927 -46.1292 93.1092c0 64.5957 52.5547 117.151 117.15 117.151s117.15 -52.5537 117.15 -117.149
c0 -37.9169 -18.1074 -71.6848 -46.1288 -93.1104l0.50865 -0.706998l-3.05957 -2.1875c-20.0869 -14.3652 -43.7627 -21.958 -68.4707 -21.958zM120 159.585c-55.1006 0 -99.9297 -44.8291 -99.9297 -99.9297c0 -32.1715 15.2818 -60.8412 38.9673 -79.1312
l0.433095 0.601927l3.04199 -2.17383c16.8662 -12.0508 36.7451 -18.4219 57.4893 -18.4219c20.7432 0 40.6221 6.37109 57.4883 18.4219l3.04102 2.17383l0.432373 -0.600976c23.6848 18.2901 38.9661 46.9594 38.9661 79.1303
c0 55.1006 -44.8291 99.9297 -99.9297 99.9297z" />
    <glyph glyph-name="uniE080" unicode="&#xe080;" 
d="M119.805 -58.2725c-20.5801 0 -40.9062 5.45703 -58.7852 15.7793c-21.3975 12.3535 -38.1055 30.7676 -48.3174 53.251l-1.55566 3.42285l0.751048 0.338679c-5.82706 13.9007 -9.04792 29.1541 -9.04792 45.1457c0 64.5977 52.5547 117.15 117.15 117.15
s117.15 -52.5537 117.15 -117.15c0 -59.5299 -44.635 -108.833 -102.195 -116.199l0.0815401 -0.812396l-3.74219 -0.366211c-3.80664 -0.37207 -7.67285 -0.55957 -11.4902 -0.55957zM120 159.594c-55.1006 0 -99.9297 -44.8291 -99.9297 -99.9297
c0 -13.4697 2.67894 -26.3256 7.53198 -38.0628l0.713136 0.321582l1.54785 -3.4043c8.58008 -18.8691 22.6113 -34.3252 40.5771 -44.6963c15.0234 -8.67285 32.0996 -13.2588 49.3838 -13.2568c3.19531 0 6.42969 0.155273 9.6123 0.46582l3.71973 0.361328
l0.0788366 -0.785459c48.8678 6.49454 86.6946 48.4406 86.6946 99.0569c0 55.1025 -44.8291 99.9297 -99.9297 99.9297z" />
    <glyph glyph-name="uniE081" unicode="&#xe081;" 
d="M70.7598 -47.2998c-22.4834 10.2119 -40.8975 26.9209 -53.252 48.3184c-12.3535 21.3975 -17.6172 45.6992 -15.2188 70.2764l0.366211 3.74219l0.810467 -0.0813466c7.36684 57.5598 56.6694 102.195 116.199 102.195c64.5967 0 117.15 -52.5547 117.15 -117.15
s-52.5537 -117.15 -117.15 -117.15c-15.9906 0 -31.2432 3.22056 -45.1433 9.04709l-0.339122 -0.752169zM81.6027 -32.3979c11.7371 -4.85293 24.5928 -7.53181 38.0624 -7.53181c55.1016 0 99.9307 44.8291 99.9307 99.9297s-44.8291 99.9297 -99.9307 99.9297
c-50.6146 0 -92.5621 -37.8267 -99.0569 -86.6945l0.786388 -0.0789298l-0.361328 -3.71973c-2.00293 -20.6328 2.41895 -41.0322 12.79 -58.998c10.373 -17.9639 25.8291 -31.9951 44.6973 -40.5762l3.40332 -1.54785z" />
    <glyph glyph-name="uniE082" unicode="&#xe082;" 
d="M23.6504 -8.4707c-14.3643 20.085 -21.957 43.7607 -21.957 68.4707s7.59277 48.3857 21.959 68.4707l2.18652 3.05859l0.706071 -0.508028c21.4251 28.0215 55.1927 46.1291 93.1103 46.1291c64.5977 0 117.149 -52.5547 117.149 -117.15
s-52.5537 -117.15 -117.149 -117.15c-37.9171 0 -71.6848 18.1076 -93.1101 46.1292l-0.706337 -0.508064zM40.526 -0.964917c18.2902 -23.6841 46.959 -38.9648 79.1293 -38.9648c55.1006 0 99.9297 44.8291 99.9297 99.9297s-44.8291 99.9297 -99.9297 99.9297
c-32.1713 0 -60.8408 -15.2816 -79.1309 -38.9668l0.602555 -0.433547l-2.17383 -3.04199c-12.0488 -16.8643 -18.4199 -36.7441 -18.4199 -57.4873s6.37109 -40.623 18.4219 -57.4893l2.17383 -3.04199z" />
    <glyph glyph-name="uniE083" unicode="&#xe083;" 
d="M2.28906 48.7031c-2.39844 24.5781 2.86523 48.8779 15.2188 70.2773c12.3545 21.3984 30.7686 38.1055 53.252 48.3174l3.42285 1.55566l0.338398 -0.75052c13.9003 5.82672 29.1532 9.04739 45.144 9.04739c64.5967 0 117.15 -52.5547 117.15 -117.15
s-52.5537 -117.15 -117.15 -117.15c-59.5292 0 -108.831 44.6339 -116.199 102.193l-0.810714 -0.0813714zM20.6084 46.7629c6.49568 -48.8669 48.4427 -86.6926 99.0566 -86.6926c55.1016 0 99.9307 44.8291 99.9307 99.9297s-44.8291 99.9297 -99.9307 99.9297
c-13.4697 0 -26.3255 -2.67893 -38.0628 -7.53197l0.321548 -0.71315l-3.40332 -1.54785c-18.8682 -8.58203 -34.3262 -22.6123 -44.6973 -40.5771c-10.3711 -17.9639 -14.7939 -38.3652 -12.79 -58.998l0.361328 -3.71973z" />
    <glyph glyph-name="uniE084" unicode="&#xe084;" 
d="M11.1465 105.814l1.55566 3.42285c10.2119 22.4834 26.9199 40.8975 48.3174 53.252c17.8789 10.3223 38.2051 15.7793 58.7822 15.7793c3.81934 0 7.68652 -0.1875 11.4932 -0.558594l3.74219 -0.366211l-0.0812456 -0.809504
c57.5597 -7.36689 102.195 -56.6694 102.195 -116.199c0 -64.5967 -52.5547 -117.15 -117.15 -117.15s-117.15 52.5527 -117.15 117.15c0 15.99 3.22024 31.242 9.04623 45.1416zM133.235 159.392l-0.0791209 -0.788333l-3.71973 0.362305
c-3.18457 0.308594 -6.41895 0.46582 -9.61328 0.46582c-17.2861 0 -34.3623 -4.58398 -49.3848 -13.2568c-17.9658 -10.3721 -31.9961 -25.8281 -40.5762 -44.6973l-1.54785 -3.40332l-0.713015 0.321465c-4.8525 -11.7367 -7.53113 -24.5918 -7.53113 -38.0607
c0 -55.1016 44.8291 -99.9307 99.9297 -99.9307s99.9297 44.8281 99.9297 99.9307c0 50.6154 -37.8266 92.5621 -86.6943 99.0569z" />
    <glyph glyph-name="uniE085" unicode="&#xe085;" 
d="M120 -56.3135c-64.5957 0 -117.15 52.5547 -117.15 117.15c0 31.2432 12.2002 60.6494 34.3506 82.7998l2.65137 2.65234l14.4639 -14.4629l-2.65234 -2.65234c-18.2832 -18.2832 -28.3535 -42.5518 -28.3535 -68.3369c0 -53.3145 43.376 -96.6895 96.6904 -96.6895
s96.6904 43.375 96.6904 96.6895c0 25.7852 -10.0703 50.0537 -28.3535 68.3369l-2.65234 2.65234l14.4639 14.4629l2.65137 -2.65234c22.1523 -22.1504 34.3506 -51.5566 34.3506 -82.7998c0 -64.5957 -52.5547 -117.15 -117.15 -117.15z" />
    <glyph glyph-name="uniE086" unicode="&#xe086;" 
d="M119.81 -57.2852c-20.4365 0 -40.625 5.41992 -58.3848 15.6719c-55.9424 32.2979 -75.1787 104.087 -42.8799 160.029c15.6221 27.0586 40.8896 46.4238 71.1475 54.5322l3.62305 0.970703l5.29492 -19.7568l-3.62305 -0.969727
c-24.9766 -6.69141 -45.8311 -22.6748 -58.7236 -45.0049c-26.6572 -46.1729 -10.7812 -105.425 35.3916 -132.082c14.6562 -8.46191 31.3154 -12.9346 48.1768 -12.9346c34.5439 0 66.6943 18.5176 83.9053 48.3252c12.8916 22.3291 16.3066 48.3809 9.61328 73.3574
l-0.969727 3.62207l19.7559 5.2959l0.970703 -3.62305c8.10742 -30.2578 3.96875 -61.8242 -11.6523 -88.8809c-20.8525 -36.1172 -59.7998 -58.5527 -101.646 -58.5527z" />
    <glyph glyph-name="uniE087" unicode="&#xe087;" 
d="M120.039 -57.1289c-41.8535 0 -80.8018 22.4395 -101.652 58.5557c-32.2979 55.9404 -13.0615 127.729 42.8809 160.028c17.7588 10.2529 37.9473 15.6729 58.3848 15.6729c10.2793 0 20.5391 -1.35352 30.498 -4.02148l3.62207 -0.970703l-5.29492 -19.7568
l-3.62207 0.970703c-8.22363 2.20312 -16.6953 3.32129 -25.1826 3.32129c-16.8613 0 -33.5205 -4.47168 -48.1758 -12.9346c-46.1729 -26.6582 -62.0488 -85.9102 -35.3916 -132.081c17.2109 -29.8096 49.3604 -48.3271 83.9053 -48.3262
c16.8613 0 33.5215 4.47363 48.1768 12.9346c22.3301 12.8926 38.3135 33.7471 45.0049 58.7236l0.969727 3.62305l19.7568 -5.29492l-0.970703 -3.62305c-8.1084 -30.2578 -27.4736 -55.5273 -54.5322 -71.1475c-17.7588 -10.2529 -37.9473 -15.6738 -58.377 -15.6738z" />
    <glyph glyph-name="uniE088" unicode="&#xe088;" 
d="M120.837 -57.1504c-64.5957 0 -117.15 52.5547 -117.15 117.15s52.5547 117.15 117.15 117.15c31.2432 0 60.6494 -12.2002 82.7998 -34.3506l2.65234 -2.65137l-14.4629 -14.4639l-2.65234 2.65234c-18.2832 18.2832 -42.5518 28.3535 -68.3369 28.3535
c-53.3145 0 -96.6895 -43.376 -96.6895 -96.6904s43.375 -96.6904 96.6895 -96.6904c25.7852 0 50.0537 10.0703 68.3369 28.3535l2.65234 2.65234l14.4629 -14.4639l-2.65234 -2.65137c-22.1504 -22.1504 -51.5566 -34.3506 -82.7998 -34.3506z" />
    <glyph glyph-name="uniE089" unicode="&#xe089;" 
d="M119.655 -57.1289c-20.4404 0 -40.6289 5.42285 -58.3877 15.6748c-55.9424 32.2979 -75.1787 104.087 -42.8809 160.029c20.8516 36.1172 59.8008 58.5527 101.645 58.5527c20.4365 0 40.625 -5.41992 58.3848 -15.6738
c27.0586 -15.623 46.4238 -40.8896 54.5322 -71.1484l0.970703 -3.62207l-19.7568 -5.29492l-0.969727 3.62207c-6.69141 24.9766 -22.6748 45.8311 -45.0049 58.7236c-14.6562 8.46191 -31.3154 12.9346 -48.1768 12.9346c-34.5439 0 -66.6943 -18.5176 -83.9053 -48.3252
c-26.6572 -46.1719 -10.7812 -105.423 35.3906 -132.081c14.6562 -8.46191 31.3154 -12.9346 48.1758 -12.9346c8.48828 0 16.96 1.11719 25.1836 3.32129l3.62207 0.969727l5.29492 -19.7559l-3.62207 -0.970703c-9.95703 -2.66699 -20.2188 -4.02148 -30.4951 -4.02148z
" />
    <glyph glyph-name="uniE08A" unicode="&#xe08a;" 
d="M89.6924 -52.9482c-30.2578 8.1084 -55.5273 27.4736 -71.1475 54.5322c-32.2988 55.9424 -13.0625 127.731 42.8799 160.029c17.7598 10.2539 37.9482 15.6719 58.3848 15.6719c41.8438 0 80.793 -22.4355 101.646 -58.5527
c15.623 -27.0586 19.7598 -58.623 11.6523 -88.8809l-0.970703 -3.62305l-19.7559 5.2959l0.969727 3.62207c6.69336 24.9766 3.2793 51.0283 -9.61328 73.3574c-17.2109 29.8076 -49.3604 48.3252 -83.9053 48.3252c-16.8613 0 -33.5205 -4.47266 -48.1768 -12.9346
c-46.1729 -26.6572 -62.0488 -85.9092 -35.3916 -132.082c12.8926 -22.3301 33.7471 -38.3135 58.7236 -45.0049l3.62305 -0.969727l-5.29492 -19.7568z" />
    <glyph glyph-name="uniE08B" unicode="&#xe08b;" 
d="M185.685 -10.3262l2.65234 2.65234c18.2832 18.2832 28.3535 42.5518 28.3535 68.3369c0 53.3145 -43.376 96.6895 -96.6904 96.6895s-96.6904 -43.375 -96.6904 -96.6895c0 -25.7852 10.0703 -50.0537 28.3535 -68.3369l2.65234 -2.65234l-14.4639 -14.4629
l-2.65137 2.65234c-22.1523 22.1504 -34.3506 51.5566 -34.3506 82.7998c0 64.5957 52.5547 117.15 117.15 117.15s117.15 -52.5547 117.15 -117.15c0 -31.2432 -12.2002 -60.6494 -34.3506 -82.7998l-2.65137 -2.65234z" />
    <glyph glyph-name="uniE08C" unicode="&#xe08c;" 
d="M141.39 -34.1621l3.62305 0.969727c24.9766 6.69141 45.8311 22.6748 58.7236 45.0049c26.6562 46.1719 10.7812 105.423 -35.3916 132.081c-14.6562 8.46191 -31.3154 12.9346 -48.1768 12.9346c-34.5439 0 -66.6943 -18.5176 -83.9053 -48.3252
c-12.8916 -22.3291 -16.3066 -48.3818 -9.61328 -73.3584l0.969727 -3.62207l-19.7559 -5.29492l-0.970703 3.62207c-8.10742 30.2588 -3.96875 61.8242 11.6523 88.8818c20.8525 36.1182 59.7998 58.5537 101.646 58.5537c20.4365 0 40.625 -5.41992 58.3848 -15.6719
c55.9424 -32.2979 75.1787 -104.088 42.8799 -160.031c-15.6221 -27.0576 -40.8896 -46.4229 -71.1475 -54.5322l-3.62305 -0.970703z" />
    <glyph glyph-name="uniE08D" unicode="&#xe08d;" 
d="M120.348 -57.1279c-10.2793 0 -20.5391 1.35352 -30.498 4.02148l-3.62207 0.970703l5.29492 19.7568l3.62207 -0.970703c8.22363 -2.20312 16.6973 -3.32129 25.1826 -3.32129c16.8613 0 33.5205 4.47363 48.1758 12.9346
c46.1709 26.6582 62.0488 85.9102 35.3906 132.081c-17.2109 29.8086 -49.3604 48.3262 -83.9053 48.3262c-16.8613 0 -33.5205 -4.47363 -48.1777 -12.9346c-22.3301 -12.8926 -38.3125 -33.7471 -45.0039 -58.7236l-0.970703 -3.62305l-19.7549 5.29492l0.970703 3.62305
c8.1084 30.2578 27.4736 55.5273 54.5322 71.1475c17.7588 10.2529 37.9473 15.6729 58.3848 15.6729c41.8457 0 80.793 -22.4375 101.646 -58.5547c32.2979 -55.9424 13.0625 -127.73 -42.8799 -160.03c-17.7607 -10.251 -37.9492 -15.6709 -58.3867 -15.6709z" />
    <glyph glyph-name="uniE08E" unicode="&#xe08e;" 
d="M119.163 -57.1504c-31.2432 0 -60.6494 12.2002 -82.7998 34.3506l-2.65234 2.65137l14.4629 14.4639l2.65234 -2.65234c18.2832 -18.2832 42.5518 -28.3535 68.3369 -28.3535c53.3145 0 96.6895 43.376 96.6895 96.6904s-43.375 96.6904 -96.6895 96.6904
c-25.7852 0 -50.0537 -10.0703 -68.3369 -28.3535l-2.65234 -2.65234l-14.4629 14.4639l2.65234 2.65137c22.1504 22.1523 51.5566 34.3506 82.7998 34.3506c64.5957 0 117.15 -52.5547 117.15 -117.15s-52.5547 -117.15 -117.15 -117.15z" />
    <glyph glyph-name="uniE08F" unicode="&#xe08f;" 
d="M119.969 -57.1279c-20.4365 0 -40.625 5.41992 -58.3848 15.6738c-27.0586 15.623 -46.4238 40.8896 -54.5322 71.1484l-0.970703 3.62109l19.7568 5.29492l0.969727 -3.62305c6.69141 -24.9766 22.6748 -45.8311 45.0049 -58.7236
c14.6562 -8.46094 31.3125 -12.9346 48.1699 -12.9346c34.5518 0.00292969 66.7012 18.5205 83.9111 48.3262c26.6562 46.1709 10.7803 105.423 -35.3906 132.081c-14.6572 8.46094 -31.3145 12.9346 -48.1758 12.9346c-8.4873 0 -16.959 -1.11816 -25.1826 -3.32129
l-3.62207 -0.970703l-5.29492 19.7568l3.62207 0.970703c9.95703 2.66699 20.2188 4.02148 30.498 4.02148c20.4375 0 40.625 -5.41992 58.3848 -15.6738c55.9424 -32.2979 75.1787 -104.088 42.8809 -160.03c-20.8516 -36.1162 -59.8008 -58.5518 -101.645 -58.5518z" />
    <glyph glyph-name="uniE090" unicode="&#xe090;" 
d="M120.19 -57.2852c-41.8438 0 -80.793 22.4355 -101.646 58.5527c-15.6211 27.0566 -19.7598 58.623 -11.6523 88.8809l0.970703 3.62305l19.7559 -5.2959l-0.969727 -3.62207c-6.69336 -24.9766 -3.2793 -51.0283 9.61328 -73.3574
c17.2109 -29.8076 49.3604 -48.3252 83.9053 -48.3252c16.8613 0 33.5205 4.47266 48.1768 12.9346c46.1729 26.6572 62.0488 85.9092 35.3916 132.08c-12.8926 22.3311 -33.7471 38.3135 -58.7236 45.0049l-3.62305 0.970703l5.29492 19.7568l3.62305 -0.970703
c30.2578 -8.10938 55.5273 -27.4746 71.1475 -54.5332c32.2988 -55.9424 13.0625 -127.73 -42.8799 -160.03c-17.7598 -10.251 -37.9482 -15.6689 -58.3848 -15.6689z" />
    <glyph glyph-name="uniE091" unicode="&#xe091;" 
d="M120 131.815c-12.2012 0 -22.127 9.92578 -22.127 22.127c0 12.2002 9.92578 22.1279 22.127 22.1279s22.127 -9.92773 22.127 -22.127s-9.92578 -22.1279 -22.127 -22.1279zM166.967 131.771c-1.67578 0 -3.33203 0.444336 -4.78711 1.28516
c-4.57617 2.64355 -6.15137 8.51758 -3.50781 13.0938c1.70703 2.95703 4.88965 4.79395 8.30664 4.79395c1.67578 0 3.33105 -0.444336 4.78613 -1.28516c2.21777 -1.28125 3.80273 -3.34668 4.46582 -5.82031c0.663086 -2.47168 0.322266 -5.05664 -0.957031 -7.27344
c-1.70801 -2.95605 -4.8916 -4.79395 -8.30664 -4.79395zM73.0439 121.266c-7.16211 0 -13.834 3.84961 -17.4121 10.0479c-2.68359 4.64648 -3.39551 10.0596 -2.00684 15.2422s4.71289 9.51465 9.36035 12.1973c3.05176 1.76172 6.52051 2.69336 10.0283 2.69336
c7.16309 0 13.835 -3.84863 17.4111 -10.0469c2.68359 -4.64648 3.39551 -10.0605 2.00684 -15.2432c-1.3877 -5.18262 -4.71289 -9.51465 -9.3584 -12.1973c-3.05273 -1.76172 -6.52051 -2.69336 -10.0293 -2.69336zM201.363 97.3848
c-3.41699 0 -6.59863 1.83691 -8.30762 4.79395c-2.64258 4.57617 -1.06738 10.4502 3.50879 13.0938c1.45703 0.84082 3.11133 1.28516 4.78613 1.28516c3.41602 0 6.59863 -1.83789 8.30762 -4.79395c2.64258 -4.57715 1.06934 -10.4502 -3.50879 -13.0938
c-1.45605 -0.839844 -3.11133 -1.28516 -4.78613 -1.28516zM38.6299 88.9258c-3.15234 0 -6.26758 0.836914 -9.00781 2.41992c-4.1748 2.40918 -7.15918 6.2998 -8.40625 10.9561c-1.24609 4.65527 -0.607422 9.51758 1.80273 13.6914
c3.21484 5.56641 9.20703 9.02441 15.6396 9.02441c3.15137 0 6.26562 -0.836914 9.00684 -2.41992c8.61621 -4.97363 11.5791 -16.0312 6.60449 -24.6475c-3.21387 -5.56641 -9.20605 -9.02441 -15.6396 -9.02441zM213.942 50.4131
c-5.28613 0 -9.58691 4.30078 -9.58691 9.58691s4.30078 9.58691 9.58691 9.58691c5.28516 0 9.58594 -4.30078 9.58594 -9.58691s-4.30078 -9.58691 -9.58594 -9.58691zM26.0576 43.999c-8.82227 0 -16.002 7.17969 -16.002 16.001s7.17969 16.001 16.002 16.001
c8.82324 0 16.001 -7.17969 16.001 -16.001s-7.17871 -16.001 -16.001 -16.001zM201.351 3.44238c-1.6748 0 -3.3291 0.444336 -4.78613 1.28516c-4.57617 2.64355 -6.15137 8.51758 -3.50879 13.0938c1.70703 2.95703 4.89062 4.79395 8.30762 4.79395
c1.6748 0 3.33105 -0.443359 4.78613 -1.28516c4.57812 -2.64355 6.15137 -8.5166 3.50879 -13.0938c-1.70703 -2.95605 -4.89062 -4.79395 -8.30762 -4.79395zM38.6523 -0.93457c-4.97754 0 -9.61426 2.67578 -12.0996 6.98242
c-3.84863 6.66797 -1.55664 15.2217 5.11035 19.0713c2.12109 1.22363 4.53223 1.87207 6.9707 1.87207c4.97754 0 9.61328 -2.67578 12.0996 -6.98242c1.86426 -3.22949 2.35938 -6.99219 1.39453 -10.5947c-0.96582 -3.60352 -3.27637 -6.61328 -6.50586 -8.47852
c-2.12012 -1.22168 -4.5293 -1.87012 -6.96973 -1.87012zM166.977 -30.9434c-3.41699 0 -6.59766 1.83691 -8.30664 4.79395c-2.64258 4.57617 -1.06836 10.4502 3.50879 13.0938c1.45605 0.84082 3.11035 1.28516 4.78613 1.28516
c3.41602 0 6.59863 -1.83789 8.30762 -4.79395c1.28027 -2.2168 1.61914 -4.7998 0.956055 -7.27344c-0.662109 -2.47363 -2.24805 -4.54102 -4.46484 -5.82031c-1.45508 -0.84082 -3.11133 -1.28516 -4.78711 -1.28516zM73.0215 -33.2773
c-2.08203 0 -4.1416 0.551758 -5.95215 1.59766c-2.75684 1.59082 -4.72949 4.16113 -5.55469 7.2373c-0.823242 3.0752 -0.400391 6.28613 1.19141 9.04297c2.12207 3.67676 6.08105 5.96094 10.3301 5.96094c2.08203 0 4.14062 -0.551758 5.95215 -1.59668
c5.69141 -3.28516 7.64844 -10.5908 4.3623 -16.2812c-2.12305 -3.67676 -6.08105 -5.96094 -10.3291 -5.96094zM120 -43.5283c-5.28613 0 -9.58691 4.30078 -9.58691 9.58594c0 5.28613 4.30078 9.58691 9.58691 9.58691s9.58691 -4.30078 9.58691 -9.58691
c0 -5.28516 -4.30078 -9.58594 -9.58691 -9.58594z" />
    <glyph glyph-name="uniE092" unicode="&#xe092;" 
d="M120 133.855c-11.0762 0 -20.0879 9.01074 -20.0879 20.0879c0 11.0781 9.01172 20.0879 20.0879 20.0879s20.0879 -9.01172 20.0879 -20.0879s-9.01172 -20.0879 -20.0879 -20.0879zM73.041 123.312c-6.43359 0 -12.4258 3.45996 -15.6387 9.02441
c-4.97461 8.61621 -2.01172 19.6729 6.60449 24.6484c2.74121 1.58203 5.85742 2.41895 9.00684 2.41895c6.43359 0 12.4268 -3.45703 15.6396 -9.02344c4.97363 -8.61621 2.01074 -19.6729 -6.60449 -24.6484c-2.73926 -1.58203 -5.85645 -2.41992 -9.00781 -2.41992z
M166.954 119.226c-3.86328 0 -7.68457 1.02832 -11.0459 2.96875c-10.5654 6.10059 -14.1982 19.6611 -8.09863 30.2266c3.94141 6.82617 11.291 11.0654 19.1807 11.0654c3.86426 0 7.68457 -1.02539 11.0459 -2.9668c10.5664 -6.10059 14.1992 -19.6602 8.09863 -30.2266
c-3.94141 -6.8252 -11.29 -11.0674 -19.1807 -11.0674zM201.363 97.3848c-3.41699 0 -6.59863 1.83691 -8.30762 4.79395c-2.64258 4.57617 -1.06738 10.4502 3.50879 13.0938c1.45703 0.84082 3.11133 1.28516 4.78613 1.28516
c3.41602 0 6.59863 -1.83789 8.30762 -4.79395c2.64258 -4.57715 1.06934 -10.4502 -3.50879 -13.0938c-1.45605 -0.839844 -3.11133 -1.28516 -4.78613 -1.28516zM38.6309 90.9678c-2.7959 0 -5.55762 0.742188 -7.98926 2.14648
c-7.64062 4.41309 -10.2686 14.2178 -5.85742 21.8574c2.85059 4.93652 8.16504 8.00293 13.8691 8.00293c2.7959 0 5.55762 -0.742188 7.98926 -2.14648c7.64258 -4.41016 10.2686 -14.2158 5.85742 -21.8584c-2.84863 -4.93457 -8.16406 -8.00195 -13.8691 -8.00195z
M213.942 50.415c-5.28516 0 -9.58496 4.30078 -9.58496 9.58496s4.29883 9.58496 9.58496 9.58496c5.28516 0 9.58496 -4.30078 9.58496 -9.58496s-4.2998 -9.58496 -9.58496 -9.58496zM26.0576 46.0381c-7.69727 0 -13.9619 6.2627 -13.9619 13.9619
s6.2627 13.9619 13.9619 13.9619c7.69824 0 13.9609 -6.2627 13.9609 -13.9619s-6.26367 -13.9619 -13.9609 -13.9619zM201.351 3.44141c-1.6748 0 -3.33105 0.443359 -4.78711 1.28516c-2.21777 1.28125 -3.80469 3.34668 -4.46777 5.82031
c-0.661133 2.47168 -0.322266 5.05566 0.958984 7.27344c1.70703 2.95605 4.88965 4.79395 8.30664 4.79395c1.67578 0 3.33203 -0.444336 4.78711 -1.28613c4.57715 -2.64258 6.15137 -8.51855 3.50781 -13.0947c-1.7041 -2.95508 -4.88672 -4.79199 -8.30566 -4.79199z
M38.6504 1.1084c-4.24902 0 -8.20801 2.28418 -10.3291 5.96289c-1.59082 2.75488 -2.01465 5.96777 -1.19043 9.04297c0.823242 3.0752 2.7959 5.64648 5.55273 7.2373c1.81152 1.0459 3.87012 1.59766 5.95215 1.59766c4.24902 0 8.20605 -2.2832 10.3291 -5.96094
c3.28613 -5.69043 1.3291 -12.9961 -4.36426 -16.2812c-1.80859 -1.04688 -3.86621 -1.59863 -5.9502 -1.59863zM166.977 -30.9434c-3.41699 0 -6.59766 1.83691 -8.30664 4.79395c-2.64258 4.57617 -1.06836 10.4502 3.50879 13.0938
c1.45605 0.84082 3.11035 1.28516 4.78613 1.28516c3.41602 0 6.59863 -1.83789 8.30762 -4.79395c2.64258 -4.57617 1.06934 -10.4502 -3.50879 -13.0938c-1.45508 -0.84082 -3.10938 -1.28516 -4.78711 -1.28516zM73.0234 -30.9434
c-1.67578 0 -3.33203 0.444336 -4.78711 1.28516c-4.57812 2.64355 -6.15137 8.51758 -3.50879 13.0947c1.70703 2.95703 4.89062 4.79492 8.30762 4.79492c1.67578 0 3.33105 -0.444336 4.78809 -1.28613c4.57812 -2.64258 6.15137 -8.5166 3.50781 -13.0938
c-1.70801 -2.95898 -4.89258 -4.79492 -8.30762 -4.79492zM120 -43.5283c-5.28418 0 -9.58496 4.30078 -9.58496 9.58496s4.30078 9.58496 9.58496 9.58496s9.58496 -4.29883 9.58496 -9.58496s-4.30078 -9.58496 -9.58496 -9.58496z" />
    <glyph glyph-name="uniE093" unicode="&#xe093;" 
d="M120 135.9c-9.94922 0 -18.0439 8.09375 -18.0439 18.043s8.09473 18.042 18.0439 18.042s18.0439 -8.09375 18.0439 -18.043c0 -9.9502 -8.09473 -18.042 -18.0439 -18.042zM73.0391 125.354c-5.70508 0 -11.0186 3.06738 -13.8682 8.00293
c-4.41211 7.64062 -1.78418 17.4463 5.85742 21.8574c2.43164 1.4043 5.19238 2.14648 7.98828 2.14648c5.70508 0 11.0195 -3.06543 13.8711 -8.00195c4.41016 -7.6416 1.78223 -17.4482 -5.85742 -21.8584c-2.43359 -1.40527 -5.19434 -2.14648 -7.99121 -2.14648z
M166.956 121.266c-3.50879 0 -6.97656 0.931641 -10.0293 2.69434c-4.64648 2.68359 -7.9707 7.01562 -9.3584 12.1982c-1.38867 5.18359 -0.676758 10.5957 2.00684 15.2432c3.57812 6.19629 10.25 10.0469 17.4111 10.0469c3.50781 0 6.97656 -0.933594 10.0283 -2.69434
c4.64746 -2.68164 7.97168 -7.01367 9.36035 -12.1963c1.38867 -5.18457 0.676758 -10.5957 -2.00684 -15.2432c-3.57812 -6.19824 -10.25 -10.0488 -17.4121 -10.0488zM38.6328 93.0088c-2.43945 0 -4.84961 0.648438 -6.9707 1.87207
c-6.66602 3.84961 -8.95996 12.4053 -5.11035 19.0713c2.48633 4.30664 7.12305 6.98242 12.1006 6.98242c2.4375 0 4.84766 -0.648438 6.96973 -1.87207c3.22949 -1.86426 5.54004 -4.875 6.50586 -8.47754c0.964844 -3.60156 0.469727 -7.36523 -1.39453 -10.5947
c-2.48633 -4.30566 -7.12207 -6.98145 -12.1006 -6.98145zM201.375 84.8418c-7.88965 0 -15.2383 4.24023 -19.1807 11.0654c-6.10059 10.5654 -2.46777 24.124 8.09863 30.2266c3.36328 1.94043 7.18164 2.96777 11.0459 2.96777
c7.88965 0 15.2383 -4.24023 19.1807 -11.0664c6.10059 -10.5664 2.46777 -24.126 -8.09863 -30.2266c-3.36328 -1.94141 -7.18164 -2.9668 -11.0459 -2.9668zM213.942 50.415c-5.28516 0 -9.58496 4.30078 -9.58496 9.58496s4.29883 9.58496 9.58496 9.58496
c5.28516 0 9.58496 -4.30078 9.58496 -9.58496s-4.2998 -9.58496 -9.58496 -9.58496zM26.0576 48.0811c-6.57227 0 -11.9189 5.3457 -11.9189 11.9189s5.34668 11.9189 11.9189 11.9189s11.9189 -5.3457 11.9189 -11.9189s-5.34668 -11.9189 -11.9189 -11.9189z
M201.351 3.44238c-1.6748 0 -3.3291 0.444336 -4.78613 1.28516c-4.57617 2.64355 -6.15137 8.51758 -3.50879 13.0938c1.70703 2.95703 4.89062 4.79395 8.30762 4.79395c1.6748 0 3.33105 -0.443359 4.78613 -1.28516c4.57812 -2.64355 6.15137 -8.5166 3.50879 -13.0938
c-1.70703 -2.95605 -4.89062 -4.79395 -8.30762 -4.79395zM38.6475 3.44141c-3.41699 0 -6.59961 1.83691 -8.30664 4.79395c-2.64355 4.57617 -1.06836 10.4512 3.50781 13.0947c1.45703 0.841797 3.11328 1.28516 4.78809 1.28516
c3.41699 0 6.60059 -1.83691 8.30762 -4.79395c1.28027 -2.21875 1.62012 -4.80176 0.958008 -7.27344c-0.663086 -2.47363 -2.25 -4.54004 -4.4668 -5.82031c-1.45703 -0.84082 -3.11133 -1.28613 -4.78809 -1.28613zM73.0234 -30.9434
c-1.67578 0 -3.33008 0.444336 -4.78711 1.28516c-4.57812 2.64355 -6.15137 8.51758 -3.50879 13.0938c1.70703 2.95605 4.89062 4.79395 8.30762 4.79395c1.67578 0 3.33105 -0.444336 4.78613 -1.28516c4.57715 -2.64355 6.15137 -8.51758 3.50879 -13.0938
c-1.70703 -2.95703 -4.8916 -4.79395 -8.30664 -4.79395zM166.977 -30.9434c-3.41699 0 -6.59961 1.83691 -8.30762 4.79395c-2.64355 4.57812 -1.06836 10.4521 3.50781 13.0947c1.45703 0.841797 3.1123 1.28613 4.78809 1.28613
c3.41699 0 6.60059 -1.83789 8.30762 -4.79492c1.28027 -2.21777 1.61914 -4.80078 0.958008 -7.27344c-0.663086 -2.47266 -2.24805 -4.54004 -4.4668 -5.82129c-1.45508 -0.84082 -3.10938 -1.28516 -4.78711 -1.28516zM120 -43.5283
c-5.28418 0 -9.58496 4.30078 -9.58496 9.58496s4.30078 9.58496 9.58496 9.58496s9.58496 -4.29883 9.58496 -9.58496s-4.30078 -9.58496 -9.58496 -9.58496z" />
    <glyph glyph-name="uniE094" unicode="&#xe094;" 
d="M120 137.941c-8.82324 0 -16.001 7.17871 -16.001 16.001s7.17969 16.002 16.001 16.002s16.001 -7.17969 16.001 -16.002s-7.17773 -16.001 -16.001 -16.001zM73.0381 127.395c-4.97754 0 -9.61328 2.67676 -12.1006 6.9834
c-3.84766 6.66699 -1.55566 15.2217 5.11035 19.0703c2.12305 1.22461 4.53125 1.87207 6.9707 1.87207c4.97656 0 9.61328 -2.67578 12.1006 -6.98242c1.86426 -3.22949 2.35938 -6.99121 1.39453 -10.5947c-0.96582 -3.60254 -3.27539 -6.61328 -6.50391 -8.47656
c-2.12207 -1.22559 -4.5332 -1.87207 -6.97168 -1.87207zM166.957 123.312c-3.15137 0 -6.2666 0.837891 -9.00684 2.41992c-8.61621 4.97363 -11.5791 16.0322 -6.60449 24.6484c3.21387 5.56641 9.20703 9.02344 15.6387 9.02344
c3.15137 0 6.26562 -0.836914 9.00781 -2.41895c8.61621 -4.97461 11.5781 -16.0322 6.60449 -24.6484c-3.21289 -5.56641 -9.20605 -9.02441 -15.6396 -9.02441zM38.6357 95.0518c-2.08398 0 -4.1416 0.551758 -5.95215 1.59766
c-2.75684 1.5918 -4.72949 4.16211 -5.55273 7.2373c-0.824219 3.0752 -0.400391 6.28711 1.19043 9.04395c2.12305 3.67676 6.08008 5.96094 10.3291 5.96094c2.08398 0 4.1416 -0.551758 5.95215 -1.59766c5.69141 -3.28516 7.65039 -10.5898 4.36328 -16.2812
c-2.12207 -3.67773 -6.08105 -5.96094 -10.3301 -5.96094zM201.372 86.8799c-7.16211 0 -13.835 3.84863 -17.4121 10.0469c-2.68359 4.64746 -3.39551 10.0605 -2.00684 15.2432s4.71289 9.51465 9.36035 12.1982c3.05176 1.7627 6.52051 2.69336 10.0283 2.69336
c7.16309 0 13.835 -3.84863 17.4121 -10.0469c2.68359 -4.64648 3.39648 -10.0605 2.00684 -15.2422c-1.3877 -5.18262 -4.71289 -9.51465 -9.3584 -12.1973c-3.05371 -1.76172 -6.52148 -2.69531 -10.0303 -2.69531zM26.0576 50.4131
c-5.28516 0 -9.58594 4.30078 -9.58594 9.58691s4.30078 9.58691 9.58594 9.58691c5.28613 0 9.58691 -4.30078 9.58691 -9.58691s-4.30078 -9.58691 -9.58691 -9.58691zM213.942 37.873c-12.2012 0 -22.127 9.92773 -22.127 22.127s9.92578 22.127 22.127 22.127
c12.2002 0 22.1279 -9.92578 22.1279 -22.127s-9.92773 -22.127 -22.1279 -22.127zM38.6494 3.44238c-3.41699 0 -6.59863 1.83789 -8.30762 4.79395c-1.28125 2.2168 -1.62012 4.7998 -0.957031 7.27344s2.24902 4.54102 4.46582 5.82031
c1.45605 0.841797 3.11133 1.28516 4.78613 1.28516c3.41602 0 6.59863 -1.83691 8.30762 -4.79395c2.64258 -4.57617 1.06738 -10.4502 -3.50879 -13.0938c-1.45703 -0.84082 -3.11133 -1.28516 -4.78613 -1.28516zM201.351 3.44238
c-1.6748 0 -3.3291 0.444336 -4.78613 1.28516c-4.57617 2.64355 -6.15137 8.51758 -3.50879 13.0938c1.70703 2.95703 4.89062 4.79395 8.30762 4.79395c1.6748 0 3.33105 -0.443359 4.78613 -1.28516c2.2168 -1.28125 3.80273 -3.34668 4.46582 -5.82031
c0.663086 -2.47168 0.322266 -5.05664 -0.957031 -7.27344c-1.70703 -2.95605 -4.89062 -4.79395 -8.30762 -4.79395zM73.0234 -30.9434c-1.67578 0 -3.33008 0.444336 -4.78711 1.28516c-2.2168 1.28125 -3.80273 3.34668 -4.46484 5.82031
c-0.663086 2.47168 -0.323242 5.05664 0.956055 7.27344c1.70703 2.95605 4.89062 4.79395 8.30762 4.79395c1.67578 0 3.33105 -0.444336 4.78613 -1.28516c4.57715 -2.64355 6.15137 -8.51758 3.50879 -13.0938c-1.70703 -2.95703 -4.8916 -4.79395 -8.30664 -4.79395z
M166.977 -30.9434c-3.41699 0 -6.59766 1.83691 -8.30664 4.79395c-2.64258 4.57617 -1.06836 10.4502 3.50879 13.0938c1.45605 0.84082 3.1123 1.28516 4.78613 1.28516c3.41602 0 6.59863 -1.83789 8.30762 -4.79395
c2.64258 -4.57617 1.06934 -10.4502 -3.50879 -13.0938c-1.45508 -0.84082 -3.11133 -1.28516 -4.78711 -1.28516zM120 -43.5283c-5.28613 0 -9.58691 4.30078 -9.58691 9.58594c0 5.28613 4.30078 9.58691 9.58691 9.58691s9.58691 -4.30078 9.58691 -9.58691
c0 -5.28516 -4.30078 -9.58594 -9.58691 -9.58594z" />
    <glyph glyph-name="uniE095" unicode="&#xe095;" 
d="M120 139.981c-7.69824 0 -13.9619 6.2627 -13.9619 13.9609c0 7.69727 6.2627 13.9619 13.9619 13.9619s13.9619 -6.2627 13.9619 -13.9619c0 -7.69727 -6.26367 -13.9609 -13.9619 -13.9609zM73.0361 129.437c-4.24902 0 -8.20801 2.28418 -10.3301 5.96094
c-1.59277 2.75684 -2.01465 5.96875 -1.19141 9.04395c0.825195 3.07422 2.79785 5.64551 5.55469 7.2373c1.81055 1.04492 3.86914 1.59766 5.9502 1.59766c4.25 0 8.20703 -2.2832 10.3291 -5.96094c3.28711 -5.69336 1.3291 -12.9961 -4.36133 -16.2812
c-1.81055 -1.0459 -3.86914 -1.59766 -5.95117 -1.59766zM166.961 125.354c-2.79492 0 -5.55762 0.742188 -7.98926 2.14648c-7.6416 4.41113 -10.2695 14.2168 -5.85742 21.8584c2.84961 4.93652 8.16406 8.00195 13.8701 8.00195
c2.79492 0 5.55762 -0.742188 7.98926 -2.14648c7.64062 -4.41113 10.2686 -14.2188 5.85742 -21.8574c-2.85156 -4.93652 -8.16602 -8.00293 -13.8701 -8.00293zM38.6367 97.3848c-1.6748 0 -3.33105 0.443359 -4.78613 1.28516
c-4.57812 2.64355 -6.15137 8.51855 -3.50879 13.0947c1.70703 2.95703 4.89062 4.79395 8.30762 4.79395c1.6748 0 3.33105 -0.443359 4.78711 -1.28516c2.21777 -1.28125 3.80469 -3.34668 4.46777 -5.82031c0.661133 -2.47168 0.322266 -5.05566 -0.958984 -7.27344
c-1.70801 -2.95801 -4.8916 -4.79492 -8.30859 -4.79492zM201.37 88.9258c-6.43359 0 -12.4238 3.45898 -15.6387 9.02441c-2.40918 4.17383 -3.0498 9.03613 -1.80273 13.6914c1.24609 4.65625 4.23242 8.5459 8.40625 10.9561
c2.74121 1.58301 5.85742 2.41992 9.00684 2.41992c6.43359 0 12.4258 -3.45801 15.6396 -9.02441c4.97363 -8.61523 2.01074 -19.6719 -6.60449 -24.6475c-2.73926 -1.58301 -5.85449 -2.41992 -9.00684 -2.41992zM26.0576 50.415
c-5.28418 0 -9.58496 4.30078 -9.58496 9.58496s4.30078 9.58496 9.58496 9.58496c5.28516 0 9.58496 -4.30078 9.58496 -9.58496s-4.2998 -9.58496 -9.58496 -9.58496zM213.942 39.9121c-11.0762 0 -20.0889 9.01172 -20.0889 20.0879s9.01074 20.0879 20.0889 20.0879
c11.0771 0 20.0889 -9.01172 20.0889 -20.0879s-9.01172 -20.0879 -20.0889 -20.0879zM38.6494 3.44238c-3.41699 0 -6.59863 1.83789 -8.30762 4.79395c-2.64258 4.57715 -1.06934 10.4502 3.50879 13.0938c1.45605 0.841797 3.11133 1.28516 4.78613 1.28516
c3.41602 0 6.59863 -1.83691 8.30762 -4.79395c2.64258 -4.57617 1.06738 -10.4502 -3.50879 -13.0938c-1.45703 -0.84082 -3.11133 -1.28516 -4.78613 -1.28516zM201.341 -9.10156c-3.86426 0 -7.68457 1.02734 -11.0459 2.96777
c-5.12012 2.95508 -8.78125 7.72656 -10.3096 13.4355c-1.53027 5.70898 -0.746094 11.6719 2.21094 16.791c3.94043 6.82715 11.29 11.0654 19.1807 11.0654c3.86328 0 7.68262 -1.02539 11.0459 -2.9668c10.5654 -6.10059 14.1982 -19.6592 8.09863 -30.2266
c-3.94238 -6.82617 -11.293 -11.0664 -19.1807 -11.0664zM166.977 -30.9434c-3.41699 0 -6.59766 1.83691 -8.30664 4.79395c-2.64258 4.57617 -1.06836 10.4502 3.50879 13.0938c1.45605 0.84082 3.11035 1.28516 4.78613 1.28516
c3.41602 0 6.59863 -1.83789 8.30762 -4.79395c1.28027 -2.2168 1.61914 -4.7998 0.956055 -7.27344c-0.662109 -2.47363 -2.24805 -4.54102 -4.46484 -5.82031c-1.45508 -0.84082 -3.11133 -1.28516 -4.78711 -1.28516zM73.0234 -30.9434
c-1.67578 0 -3.33203 0.444336 -4.78711 1.28516c-4.57812 2.64355 -6.15137 8.51758 -3.50879 13.0947c1.70703 2.95703 4.89062 4.79492 8.30762 4.79492c1.67578 0 3.33105 -0.444336 4.78809 -1.28613c2.2168 -1.28125 3.80371 -3.34668 4.4668 -5.81934
c0.663086 -2.47363 0.322266 -5.05664 -0.957031 -7.27539c-1.70996 -2.95801 -4.89453 -4.79395 -8.30957 -4.79395zM120 -43.5283c-5.28418 0 -9.58496 4.30078 -9.58496 9.58496s4.30078 9.58496 9.58496 9.58496s9.58496 -4.29883 9.58496 -9.58496
s-4.30078 -9.58496 -9.58496 -9.58496z" />
    <glyph glyph-name="uniE096" unicode="&#xe096;" 
d="M120 142.024c-6.57129 0 -11.9189 5.3457 -11.9189 11.9189s5.3457 11.9189 11.9189 11.9189s11.9189 -5.3457 11.9189 -11.9189s-5.34766 -11.9189 -11.9189 -11.9189zM73.0332 131.771c-3.41699 0 -6.59961 1.83789 -8.30664 4.79395
c-1.28125 2.21875 -1.62012 4.80176 -0.958984 7.27344c0.663086 2.47363 2.24902 4.54102 4.46777 5.82129c1.45605 0.841797 3.11035 1.28613 4.78613 1.28613c3.41699 0 6.59961 -1.83789 8.30859 -4.79395c1.28125 -2.21875 1.62012 -4.80176 0.957031 -7.27539
c-0.663086 -2.47168 -2.25 -4.53906 -4.4668 -5.82031c-1.45508 -0.84082 -3.11133 -1.28516 -4.78711 -1.28516zM166.962 127.395c-2.43848 0 -4.84961 0.648438 -6.9707 1.87207c-3.22949 1.86523 -5.53906 4.875 -6.50391 8.47656
c-0.96582 3.60156 -0.469727 7.36523 1.39551 10.5947c2.48633 4.30664 7.12305 6.98242 12.1006 6.98242c2.43848 0 4.84863 -0.647461 6.96973 -1.87207c6.66602 -3.84863 8.95801 -12.4033 5.11133 -19.0703c-2.48926 -4.30859 -7.125 -6.9834 -12.1025 -6.9834z
M38.6367 97.3848c-1.6748 0 -3.33105 0.443359 -4.78613 1.28516c-2.2168 1.28125 -3.80273 3.34668 -4.46582 5.82031c-0.663086 2.47168 -0.322266 5.05664 0.957031 7.27344c1.70703 2.95605 4.89062 4.79395 8.30762 4.79395
c1.6748 0 3.33105 -0.444336 4.78613 -1.28516c4.57617 -2.64355 6.15137 -8.51758 3.50879 -13.0938c-1.70703 -2.95703 -4.89062 -4.79395 -8.30762 -4.79395zM201.369 90.9678c-5.70508 0 -11.0195 3.06738 -13.8691 8.00195
c-4.41113 7.6416 -1.7832 17.4463 5.85742 21.8584c2.43164 1.4043 5.19336 2.14648 7.98926 2.14648c5.7041 0 11.0186 -3.06641 13.8691 -8.00293c4.41113 -7.63965 1.7832 -17.4443 -5.85742 -21.8574c-2.43164 -1.4043 -5.19531 -2.14648 -7.98926 -2.14648z
M26.0576 50.415c-5.28418 0 -9.58496 4.30078 -9.58496 9.58496s4.30078 9.58496 9.58496 9.58496c5.28516 0 9.58496 -4.30078 9.58496 -9.58496s-4.2998 -9.58496 -9.58496 -9.58496zM213.942 41.9561c-9.9502 0 -18.0439 8.09473 -18.0439 18.0439
s8.09375 18.0439 18.0439 18.0439c9.94922 0 18.043 -8.09473 18.043 -18.0439s-8.09375 -18.0439 -18.043 -18.0439zM38.6475 3.44141c-3.41699 0 -6.59961 1.83691 -8.30664 4.79395c-2.64355 4.57617 -1.06836 10.4512 3.50781 13.0947
c1.45703 0.841797 3.11328 1.28516 4.78809 1.28516c3.41699 0 6.60059 -1.83691 8.30762 -4.79395c1.28027 -2.21875 1.62012 -4.80176 0.958008 -7.27344c-0.663086 -2.47363 -2.25 -4.54004 -4.4668 -5.82031c-1.45703 -0.84082 -3.11133 -1.28613 -4.78809 -1.28613z
M201.342 -7.06152c-3.50781 0 -6.97656 0.930664 -10.0283 2.69336c-4.64746 2.68359 -7.97168 7.01562 -9.36035 12.1982s-0.676758 10.5957 2.00684 15.2432c3.57715 6.19629 10.25 10.0469 17.4121 10.0469c3.50879 0 6.97656 -0.931641 10.0293 -2.69434
c4.64648 -2.68164 7.96875 -7.01367 9.3584 -12.1963c1.38867 -5.18359 0.675781 -10.5957 -2.00684 -15.2432c-3.57617 -6.19922 -10.248 -10.0479 -17.4111 -10.0479zM73.0234 -30.9434c-1.67578 0 -3.33008 0.444336 -4.78711 1.28516
c-4.57812 2.64355 -6.15137 8.51758 -3.50879 13.0938c1.70703 2.95605 4.89062 4.79395 8.30762 4.79395c1.67578 0 3.33105 -0.444336 4.78613 -1.28516c4.57715 -2.64355 6.15137 -8.51758 3.50879 -13.0938c-1.70703 -2.95703 -4.8916 -4.79395 -8.30664 -4.79395z
M166.989 -43.4863c-7.89062 0 -15.2383 4.24023 -19.1807 11.0654c-6.09863 10.5654 -2.46777 24.124 8.09863 30.2266c3.3623 1.94043 7.18164 2.96875 11.0459 2.96875c7.88965 0 15.2383 -4.24121 19.1807 -11.0674c2.95508 -5.11914 3.74023 -11.082 2.21094 -16.791
c-1.53027 -5.70898 -5.19043 -10.4805 -10.3096 -13.4355c-3.36328 -1.94141 -7.18262 -2.9668 -11.0459 -2.9668zM120 -43.5283c-5.28418 0 -9.58496 4.30078 -9.58496 9.58496s4.30078 9.58496 9.58496 9.58496s9.58496 -4.29883 9.58496 -9.58496
s-4.30078 -9.58496 -9.58496 -9.58496z" />
    <glyph glyph-name="uniE097" unicode="&#xe097;" 
d="M120 144.357c-5.28613 0 -9.58691 4.2998 -9.58691 9.58594s4.30078 9.58691 9.58691 9.58691s9.58691 -4.30078 9.58691 -9.58691s-4.30078 -9.58594 -9.58691 -9.58594zM73.0332 131.771c-3.41699 0 -6.59863 1.83789 -8.30664 4.79395
c-1.28125 2.2168 -1.62012 4.7998 -0.957031 7.27344s2.24805 4.54102 4.46582 5.82031c1.45605 0.84082 3.11035 1.28516 4.78613 1.28516c3.41504 0 6.59863 -1.83691 8.30664 -4.79395c2.64355 -4.57617 1.06836 -10.4502 -3.50781 -13.0938
c-1.45508 -0.839844 -3.10938 -1.28516 -4.78711 -1.28516zM166.964 129.437c-2.08203 0 -4.14062 0.551758 -5.95215 1.59766c-5.69141 3.28516 -7.64844 10.5898 -4.3623 16.2812c2.12305 3.67578 6.08105 5.96094 10.3291 5.96094
c2.08203 0 4.1416 -0.552734 5.95215 -1.59766c2.75684 -1.5918 4.72949 -4.16113 5.55469 -7.2373c0.823242 -3.0752 0.400391 -6.28711 -1.19141 -9.04395c-2.12207 -3.67676 -6.08105 -5.96094 -10.3301 -5.96094zM38.6367 97.3848
c-1.6748 0 -3.33105 0.443359 -4.78613 1.28516c-4.57812 2.64355 -6.15137 8.5166 -3.50879 13.0938c1.70703 2.95605 4.89062 4.79395 8.30762 4.79395c1.6748 0 3.33105 -0.444336 4.78613 -1.28516c4.57617 -2.64355 6.15137 -8.51758 3.50879 -13.0938
c-1.70703 -2.95703 -4.89062 -4.79395 -8.30762 -4.79395zM201.366 93.0088c-4.97754 0 -9.61328 2.67578 -12.0996 6.98242c-1.86426 3.22949 -2.35938 6.99219 -1.39453 10.5947c0.96582 3.60352 3.27637 6.61328 6.50586 8.47852
c2.12207 1.22363 4.53125 1.87109 6.96973 1.87109c4.97754 0 9.61426 -2.67578 12.1006 -6.98242c3.84961 -6.66699 1.55762 -15.2217 -5.11035 -19.0703c-2.12109 -1.22754 -4.53125 -1.87402 -6.97168 -1.87402zM26.0576 50.4131
c-5.28516 0 -9.58594 4.30078 -9.58594 9.58691s4.30078 9.58691 9.58594 9.58691c5.28613 0 9.58691 -4.30078 9.58691 -9.58691s-4.30078 -9.58691 -9.58691 -9.58691zM213.942 43.999c-8.82324 0 -16.001 7.17969 -16.001 16.001s7.17871 16.001 16.001 16.001
s16.002 -7.17969 16.002 -16.001s-7.17773 -16.001 -16.002 -16.001zM38.6494 3.44238c-3.41699 0 -6.59863 1.83789 -8.30762 4.79395c-2.64258 4.57715 -1.06934 10.4502 3.50879 13.0938c1.45605 0.841797 3.11133 1.28516 4.78613 1.28516
c3.41602 0 6.59863 -1.83691 8.30762 -4.79395c2.64258 -4.57617 1.06738 -10.4502 -3.50879 -13.0938c-1.45703 -0.84082 -3.11133 -1.28516 -4.78613 -1.28516zM201.344 -5.01758c-3.15137 0 -6.26758 0.836914 -9.00781 2.41992
c-8.61621 4.97363 -11.5781 16.0312 -6.60449 24.6475c3.21484 5.56641 9.20703 9.02441 15.6387 9.02441c3.15234 0 6.26562 -0.836914 9.00781 -2.41992c4.1748 -2.40918 7.15918 -6.2998 8.40625 -10.9561c1.24609 -4.65527 0.607422 -9.51758 -1.80273 -13.6914
c-3.21191 -5.56641 -9.2041 -9.02441 -15.6377 -9.02441zM73.0234 -30.9434c-1.67578 0 -3.33008 0.444336 -4.78711 1.28516c-2.2168 1.28125 -3.80273 3.34668 -4.46484 5.82031c-0.663086 2.47168 -0.323242 5.05664 0.956055 7.27344
c1.70703 2.95605 4.89062 4.79395 8.30762 4.79395c1.67578 0 3.33105 -0.444336 4.78613 -1.28516c4.57715 -2.64355 6.15137 -8.51758 3.50879 -13.0938c-1.70703 -2.95703 -4.8916 -4.79395 -8.30664 -4.79395zM166.986 -41.4482
c-7.16309 0 -13.835 3.85059 -17.4111 10.0469c-2.68359 4.64746 -3.39551 10.0605 -2.00684 15.2432c1.3877 5.18262 4.71289 9.51465 9.3584 12.1982c3.05273 1.7627 6.52051 2.69434 10.0293 2.69434c7.16211 0 13.834 -3.84961 17.4121 -10.0479
c2.68359 -4.64648 3.39551 -10.0596 2.00684 -15.2422s-4.71289 -9.51465 -9.36035 -12.1973c-3.05176 -1.76172 -6.52051 -2.69531 -10.0283 -2.69531zM120 -56.0703c-12.2012 0 -22.127 9.92773 -22.127 22.127s9.92578 22.1279 22.127 22.1279
s22.127 -9.92578 22.127 -22.127c0 -12.2002 -9.92578 -22.1279 -22.127 -22.1279z" />
    <glyph glyph-name="uniE098" unicode="&#xe098;" 
d="M120 144.358c-5.28418 0 -9.58496 4.29883 -9.58496 9.58496s4.30078 9.58496 9.58496 9.58496s9.58496 -4.30078 9.58496 -9.58496s-4.30078 -9.58496 -9.58496 -9.58496zM73.0332 131.771c-3.41699 0 -6.59863 1.83789 -8.30664 4.79395
c-2.64258 4.57617 -1.06934 10.4502 3.50879 13.0938c1.45605 0.84082 3.11035 1.28516 4.78613 1.28516c3.41699 0 6.59961 -1.83691 8.30664 -4.79395c2.64355 -4.57617 1.06836 -10.4502 -3.50781 -13.0938c-1.45508 -0.839844 -3.10938 -1.28516 -4.78711 -1.28516z
M166.967 131.771c-1.67578 0 -3.33203 0.444336 -4.78809 1.28516c-4.57812 2.64355 -6.15137 8.51758 -3.50879 13.0938c1.70898 2.95801 4.8916 4.79395 8.30859 4.79395c1.67578 0 3.33105 -0.444336 4.78613 -1.28516
c4.57812 -2.64355 6.15137 -8.51758 3.50879 -13.0947c-1.70703 -2.95703 -4.88965 -4.79297 -8.30664 -4.79297zM38.6367 97.3848c-1.6748 0 -3.33105 0.443359 -4.78613 1.28516c-4.57812 2.64355 -6.15137 8.51855 -3.50879 13.0947
c1.70703 2.95703 4.89062 4.79395 8.30762 4.79395c1.6748 0 3.33105 -0.443359 4.78711 -1.28516c2.21777 -1.28125 3.80469 -3.34668 4.46777 -5.82031c0.661133 -2.47168 0.322266 -5.05566 -0.958984 -7.27344c-1.70801 -2.95801 -4.8916 -4.79492 -8.30859 -4.79492z
M201.364 95.0518c-4.24902 0 -8.20605 2.2832 -10.3291 5.96094c-3.28613 5.69141 -1.3291 12.9961 4.36426 16.2812c1.81055 1.0459 3.86816 1.59766 5.95117 1.59766c4.25 0 8.20801 -2.28418 10.3291 -5.96289c1.5918 -2.75488 2.01465 -5.96777 1.19141 -9.04297
s-2.7959 -5.64648 -5.55273 -7.2373c-1.81348 -1.04492 -3.87207 -1.59668 -5.9541 -1.59668zM26.0576 50.415c-5.28418 0 -9.58496 4.30078 -9.58496 9.58496s4.30078 9.58496 9.58496 9.58496c5.28516 0 9.58496 -4.30078 9.58496 -9.58496
s-4.2998 -9.58496 -9.58496 -9.58496zM213.942 46.0381c-7.69824 0 -13.9609 6.2627 -13.9609 13.9619s6.2627 13.9619 13.9609 13.9619c7.69727 0 13.9619 -6.2627 13.9619 -13.9619s-6.2627 -13.9619 -13.9619 -13.9619zM38.6494 3.44238
c-3.41699 0 -6.59863 1.83789 -8.30762 4.79395c-2.64258 4.57715 -1.06934 10.4502 3.50879 13.0938c1.45605 0.841797 3.11133 1.28516 4.78613 1.28516c3.41602 0 6.59863 -1.83691 8.30762 -4.79395c2.64258 -4.57617 1.06738 -10.4502 -3.50879 -13.0938
c-1.45703 -0.84082 -3.11133 -1.28516 -4.78613 -1.28516zM201.345 -2.97461c-2.79395 0 -5.55762 0.742188 -7.98828 2.14648c-7.6416 4.41211 -10.2695 14.2168 -5.8584 21.8584c2.85059 4.93652 8.16504 8.00195 13.8691 8.00195
c2.79492 0 5.55762 -0.742188 7.98926 -2.14648c7.64062 -4.41309 10.2695 -14.2178 5.85742 -21.8574c-2.84961 -4.93652 -8.16406 -8.00293 -13.8691 -8.00293zM166.984 -39.4033c-6.43359 0 -12.4258 3.45898 -15.6387 9.02344
c-4.97461 8.61621 -2.01172 19.6729 6.60449 24.6484c2.74219 1.58203 5.85742 2.41992 9.00684 2.41992c6.43359 0 12.4268 -3.45801 15.6396 -9.02441c4.97363 -8.61621 2.01172 -19.6729 -6.60449 -24.6484c-2.74023 -1.58105 -5.85645 -2.41895 -9.00781 -2.41895z
M73.0107 -43.4863c-3.86328 0 -7.68457 1.02539 -11.0459 2.9668c-10.5654 6.10059 -14.1992 19.6602 -8.09863 30.2266c3.94043 6.82617 11.291 11.0674 19.1807 11.0674c3.86426 0 7.68457 -1.02637 11.0459 -2.96875c10.5664 -6.10059 14.1992 -19.6611 8.09863 -30.2266
c-3.94238 -6.82617 -11.29 -11.0654 -19.1807 -11.0654zM120 -54.0312c-11.0762 0 -20.0879 9.01172 -20.0879 20.0879s9.01172 20.0879 20.0879 20.0879s20.0879 -9.01074 20.0879 -20.0879c0 -11.0781 -9.01172 -20.0879 -20.0879 -20.0879z" />
    <glyph glyph-name="uniE099" unicode="&#xe099;" 
d="M120 144.358c-5.28418 0 -9.58496 4.29883 -9.58496 9.58496s4.30078 9.58496 9.58496 9.58496s9.58496 -4.30078 9.58496 -9.58496s-4.30078 -9.58496 -9.58496 -9.58496zM166.967 131.771c-1.67578 0 -3.33203 0.444336 -4.78711 1.28516
c-4.57617 2.64355 -6.15137 8.51758 -3.50781 13.0938c1.70703 2.95703 4.88965 4.79395 8.30664 4.79395c1.67578 0 3.33105 -0.444336 4.78613 -1.28516c4.57812 -2.64355 6.15137 -8.51758 3.50879 -13.0938c-1.70801 -2.95605 -4.8916 -4.79395 -8.30664 -4.79395z
M73.0332 131.771c-3.41699 0 -6.59961 1.83789 -8.30664 4.79395c-1.28125 2.21875 -1.62012 4.80176 -0.958984 7.27344c0.663086 2.47363 2.24902 4.54102 4.46777 5.82129c1.45605 0.841797 3.11035 1.28613 4.78613 1.28613
c3.41699 0 6.59961 -1.83789 8.30859 -4.79395c2.64258 -4.57812 1.06836 -10.4521 -3.50879 -13.0957c-1.45605 -0.84082 -3.1123 -1.28516 -4.78809 -1.28516zM38.6367 97.3848c-1.6748 0 -3.33105 0.443359 -4.78613 1.28516
c-4.57812 2.64355 -6.15137 8.5166 -3.50879 13.0938c1.70703 2.95605 4.89062 4.79395 8.30762 4.79395c1.6748 0 3.33105 -0.444336 4.78613 -1.28516c4.57617 -2.64355 6.15137 -8.51758 3.50879 -13.0938c-1.70703 -2.95703 -4.89062 -4.79395 -8.30762 -4.79395z
M201.363 97.3848c-3.41699 0 -6.60059 1.83691 -8.30762 4.79395c-1.28027 2.21875 -1.62012 4.80176 -0.958008 7.27344c0.663086 2.47363 2.25 4.54004 4.4668 5.82031c1.45703 0.84082 3.1123 1.28516 4.78809 1.28516c3.41699 0 6.59961 -1.83789 8.30664 -4.79395
c2.64355 -4.57715 1.06836 -10.4521 -3.50781 -13.0947c-1.45801 -0.84082 -3.11328 -1.28418 -4.78809 -1.28418zM26.0576 50.415c-5.28418 0 -9.58496 4.30078 -9.58496 9.58496s4.30078 9.58496 9.58496 9.58496c5.28516 0 9.58496 -4.30078 9.58496 -9.58496
s-4.2998 -9.58496 -9.58496 -9.58496zM213.942 48.0811c-6.57227 0 -11.9189 5.3457 -11.9189 11.9189s5.3457 11.9189 11.9189 11.9189c6.57227 0 11.9189 -5.3457 11.9189 -11.9189s-5.34668 -11.9189 -11.9189 -11.9189zM201.347 -0.93457
c-2.43945 0 -4.84961 0.648438 -6.9707 1.87207c-3.22949 1.86426 -5.53906 4.875 -6.50586 8.47754c-0.963867 3.60156 -0.46875 7.36523 1.39551 10.5947c2.48535 4.30664 7.12305 6.98242 12.0986 6.98242c2.43945 0 4.84961 -0.647461 6.9707 -1.87207
c6.66602 -3.84863 8.95996 -12.4043 5.11035 -19.0703c-2.4834 -4.30859 -7.12012 -6.98438 -12.0986 -6.98438zM38.6592 -9.10156c-7.88965 0 -15.2383 4.24023 -19.1807 11.0664c-6.09961 10.5664 -2.4668 24.126 8.09863 30.2266
c3.36328 1.94141 7.18262 2.9668 11.0459 2.9668c7.89062 0 15.2402 -4.24023 19.1807 -11.0654c6.10059 -10.5654 2.46777 -24.124 -8.09863 -30.2266c-3.36133 -1.94238 -7.17969 -2.96777 -11.0459 -2.96777zM166.983 -37.3604
c-5.70508 0 -11.0195 3.06738 -13.8711 8.00195c-4.41113 7.6416 -1.7832 17.4473 5.85742 21.8584c2.43164 1.4043 5.19434 2.14648 7.98926 2.14648c5.7041 0 11.0186 -3.06641 13.8691 -8.00293c4.41113 -7.64062 1.7832 -17.4463 -5.85742 -21.8574
c-2.43066 -1.4043 -5.19141 -2.14648 -7.9873 -2.14648zM73.0137 -41.4482c-3.50781 0 -6.97656 0.933594 -10.0283 2.69434c-4.64746 2.68164 -7.97168 7.01367 -9.36035 12.1963c-1.38867 5.18457 -0.676758 10.5957 2.00684 15.2432
c3.57812 6.19629 10.25 10.0469 17.4121 10.0469c3.50879 0 6.97461 -0.931641 10.0293 -2.69434c4.64648 -2.68262 7.9707 -7.01465 9.3584 -12.1973c1.38867 -5.18457 0.676758 -10.5967 -2.00684 -15.2432c-3.57812 -6.19531 -10.248 -10.0459 -17.4111 -10.0459z
M120 -51.9854c-9.94922 0 -18.0439 8.09375 -18.0439 18.043c0 9.9502 8.09473 18.042 18.0439 18.042s18.0439 -8.09375 18.0439 -18.043s-8.09473 -18.042 -18.0439 -18.042z" />
    <glyph glyph-name="uniE09A" unicode="&#xe09a;" 
d="M120 144.357c-5.28613 0 -9.58691 4.2998 -9.58691 9.58594s4.30078 9.58691 9.58691 9.58691s9.58691 -4.30078 9.58691 -9.58691s-4.30078 -9.58594 -9.58691 -9.58594zM73.0332 131.771c-3.41699 0 -6.59863 1.83789 -8.30664 4.79395
c-2.64258 4.57617 -1.06934 10.4502 3.50879 13.0938c1.45605 0.84082 3.11035 1.28516 4.78613 1.28516c3.41504 0 6.59863 -1.83691 8.30664 -4.79395c2.64355 -4.57617 1.06836 -10.4502 -3.50781 -13.0938c-1.45508 -0.839844 -3.10938 -1.28516 -4.78711 -1.28516z
M166.967 131.771c-1.67578 0 -3.33203 0.444336 -4.78711 1.28516c-4.57617 2.64355 -6.15137 8.51758 -3.50781 13.0938c1.70703 2.95703 4.88965 4.79395 8.30664 4.79395c1.67578 0 3.33105 -0.444336 4.78613 -1.28516
c2.21777 -1.28125 3.80273 -3.34668 4.46582 -5.82031c0.663086 -2.47168 0.322266 -5.05664 -0.957031 -7.27344c-1.70801 -2.95605 -4.8916 -4.79395 -8.30664 -4.79395zM38.6367 97.3848c-1.6748 0 -3.33105 0.443359 -4.78613 1.28516
c-2.2168 1.28125 -3.80273 3.34668 -4.46582 5.82031c-0.663086 2.47168 -0.322266 5.05664 0.957031 7.27344c1.70703 2.95605 4.89062 4.79395 8.30762 4.79395c1.6748 0 3.33105 -0.444336 4.78613 -1.28516c4.57617 -2.64355 6.15137 -8.51758 3.50879 -13.0938
c-1.70703 -2.95703 -4.89062 -4.79395 -8.30762 -4.79395zM201.363 97.3848c-3.41699 0 -6.59863 1.83691 -8.30762 4.79395c-2.64258 4.57617 -1.06738 10.4502 3.50879 13.0938c1.45703 0.84082 3.11133 1.28516 4.78613 1.28516
c3.41602 0 6.59863 -1.83789 8.30762 -4.79395c1.28125 -2.2168 1.62012 -4.7998 0.957031 -7.27344s-2.24902 -4.54102 -4.46582 -5.82031c-1.45605 -0.839844 -3.11133 -1.28516 -4.78613 -1.28516zM213.942 50.4131c-5.28613 0 -9.58691 4.30078 -9.58691 9.58691
s4.30078 9.58691 9.58691 9.58691c5.28516 0 9.58594 -4.30078 9.58594 -9.58691s-4.30078 -9.58691 -9.58594 -9.58691zM26.0576 37.873c-12.2002 0 -22.1279 9.92578 -22.1279 22.127s9.92773 22.127 22.127 22.127s22.1279 -9.92578 22.1279 -22.127
s-9.92676 -22.127 -22.127 -22.127zM201.35 1.1084c-2.08398 0 -4.1416 0.551758 -5.95215 1.59766c-5.69141 3.28516 -7.65039 10.5898 -4.36328 16.2812c2.12207 3.67578 6.08105 5.96094 10.3291 5.96094c2.08301 0 4.1416 -0.551758 5.95215 -1.59766
c2.75684 -1.5918 4.72949 -4.16211 5.55273 -7.2373s0.400391 -6.28711 -1.19141 -9.04395c-2.11914 -3.67676 -6.07812 -5.96094 -10.3271 -5.96094zM38.6582 -7.06152c-7.16309 0 -13.835 3.84863 -17.4111 10.0469c-2.68262 4.64648 -3.39551 10.0605 -2.00684 15.2422
c1.3877 5.18262 4.71289 9.51465 9.3584 12.1973c3.05273 1.76172 6.52051 2.69336 10.0293 2.69336c7.16211 0 13.835 -3.84863 17.4121 -10.0469c2.68359 -4.64648 3.39551 -10.0605 2.00684 -15.2432c-1.38867 -5.18164 -4.71289 -9.51367 -9.36035 -12.1973
c-3.05176 -1.76172 -6.52051 -2.69238 -10.0283 -2.69238zM166.981 -35.3193c-4.97656 0 -9.61328 2.67676 -12.1006 6.98242c-1.86426 3.22949 -2.35938 6.99219 -1.39453 10.5947c0.96582 3.60352 3.27539 6.61328 6.50391 8.47656
c2.12109 1.22461 4.53125 1.87207 6.9707 1.87207c4.97656 0 9.61328 -2.67578 12.0996 -6.98242c3.84766 -6.66797 1.55566 -15.2217 -5.11035 -19.0713c-2.11914 -1.22559 -4.5293 -1.87207 -6.96875 -1.87207zM73.0156 -39.4033
c-3.15137 0 -6.26758 0.836914 -9.00781 2.41895c-8.61621 4.97461 -11.5781 16.0322 -6.60449 24.6484c3.21484 5.56641 9.20703 9.02441 15.6396 9.02441c3.15137 0 6.26465 -0.837891 9.00684 -2.41992c8.61621 -4.97363 11.5791 -16.0322 6.60449 -24.6484
c-3.21387 -5.56445 -9.20508 -9.02344 -15.6387 -9.02344zM120 -49.9443c-8.82324 0 -16.001 7.17969 -16.001 16.002c0 8.82324 7.17969 16.001 16.001 16.001s16.001 -7.17871 16.001 -16.001c0 -8.82422 -7.17773 -16.002 -16.001 -16.002z" />
    <glyph glyph-name="uniE09B" unicode="&#xe09b;" 
d="M120 144.358c-5.28418 0 -9.58496 4.29883 -9.58496 9.58496s4.30078 9.58496 9.58496 9.58496s9.58496 -4.30078 9.58496 -9.58496s-4.30078 -9.58496 -9.58496 -9.58496zM73.0332 131.771c-3.41699 0 -6.59863 1.83789 -8.30664 4.79395
c-1.28125 2.2168 -1.62012 4.7998 -0.957031 7.27344s2.24805 4.54102 4.46582 5.82031c1.45605 0.84082 3.11035 1.28516 4.78613 1.28516c3.41504 0 6.59863 -1.83691 8.30664 -4.79395c2.64355 -4.57617 1.06836 -10.4502 -3.50781 -13.0938
c-1.45508 -0.839844 -3.10938 -1.28516 -4.78711 -1.28516zM166.967 131.771c-1.67578 0 -3.33203 0.444336 -4.78809 1.28516c-4.57812 2.64355 -6.15137 8.51758 -3.50879 13.0938c1.70898 2.95801 4.8916 4.79395 8.30859 4.79395
c1.67578 0 3.33105 -0.444336 4.78613 -1.28516c4.57812 -2.64355 6.15137 -8.51758 3.50879 -13.0947c-1.70703 -2.95703 -4.88965 -4.79297 -8.30664 -4.79297zM201.363 97.3848c-3.41699 0 -6.59863 1.83691 -8.30762 4.79395
c-2.64258 4.57617 -1.06738 10.4502 3.50879 13.0938c1.45703 0.84082 3.11133 1.28516 4.78613 1.28516c3.41602 0 6.59863 -1.83789 8.30762 -4.79395c2.64258 -4.57715 1.06934 -10.4502 -3.50879 -13.0938c-1.45605 -0.839844 -3.11133 -1.28516 -4.78613 -1.28516z
M38.625 84.8418c-3.86426 0 -7.68262 1.02539 -11.0459 2.9668c-10.5664 6.10059 -14.1992 19.6592 -8.09863 30.2266c3.94043 6.82617 11.291 11.0664 19.1807 11.0664c3.86426 0 7.68457 -1.02539 11.0459 -2.96777c5.11914 -2.95508 8.78125 -7.72656 10.3096 -13.4355
c1.53027 -5.70898 0.745117 -11.6719 -2.21094 -16.791c-3.94043 -6.8252 -11.291 -11.0654 -19.1807 -11.0654zM213.942 50.415c-5.28516 0 -9.58496 4.30078 -9.58496 9.58496s4.29883 9.58496 9.58496 9.58496c5.28516 0 9.58496 -4.30078 9.58496 -9.58496
s-4.2998 -9.58496 -9.58496 -9.58496zM26.0576 39.9121c-11.0771 0 -20.0889 9.01172 -20.0889 20.0879s9.01172 20.0879 20.0879 20.0879s20.0879 -9.01172 20.0879 -20.0879s-9.01074 -20.0879 -20.0869 -20.0879zM201.351 3.44141
c-1.6748 0 -3.33105 0.443359 -4.78711 1.28516c-2.21777 1.28125 -3.80469 3.34668 -4.46777 5.82031c-0.661133 2.47168 -0.322266 5.05566 0.958984 7.27344c1.70703 2.95605 4.88965 4.79395 8.30664 4.79395c1.67578 0 3.33203 -0.444336 4.78711 -1.28613
c4.57715 -2.64258 6.15137 -8.51855 3.50781 -13.0947c-1.7041 -2.95508 -4.88867 -4.79199 -8.30566 -4.79199zM38.6562 -5.01758c-6.43359 0 -12.4258 3.45898 -15.6387 9.02441c-4.97363 8.61523 -2.01172 19.6719 6.60449 24.6475
c2.74219 1.58301 5.85742 2.41992 9.00781 2.41992c6.43359 0 12.4258 -3.45801 15.6387 -9.02441c2.40918 -4.17383 3.0498 -9.03613 1.80273 -13.6914c-1.24609 -4.65625 -4.23242 -8.5459 -8.40625 -10.9561c-2.74121 -1.58301 -5.85742 -2.41992 -9.00879 -2.41992z
M166.979 -33.2773c-4.25 0 -8.20605 2.2832 -10.3291 5.96094c-3.28613 5.69238 -1.3291 12.9961 4.3623 16.2812c1.81152 1.04492 3.87012 1.59668 5.95215 1.59668c4.24902 0 8.20801 -2.28418 10.3301 -5.96094c1.59277 -2.75684 2.01465 -5.96777 1.19141 -9.04297
c-0.825195 -3.0752 -2.79785 -5.64648 -5.55469 -7.2373c-1.81055 -1.04395 -3.86914 -1.59766 -5.95215 -1.59766zM73.0166 -37.3604c-2.79395 0 -5.55664 0.742188 -7.98828 2.14648c-7.6416 4.41113 -10.2695 14.2188 -5.85742 21.8574
c2.84961 4.93652 8.16406 8.00293 13.8682 8.00293c2.79492 0 5.55762 -0.742188 7.98926 -2.14648c7.6416 -4.41113 10.2695 -14.2168 5.85742 -21.8584c-2.84961 -4.93652 -8.16602 -8.00195 -13.8691 -8.00195zM120 -47.9043
c-7.69824 0 -13.9619 6.2627 -13.9619 13.9619c0 7.69824 6.2627 13.9609 13.9619 13.9609s13.9619 -6.2627 13.9619 -13.9609c0 -7.69922 -6.26367 -13.9619 -13.9619 -13.9619z" />
    <glyph glyph-name="uniE09C" unicode="&#xe09c;" 
d="M120 144.358c-5.28418 0 -9.58496 4.29883 -9.58496 9.58496s4.30078 9.58496 9.58496 9.58496s9.58496 -4.30078 9.58496 -9.58496s-4.30078 -9.58496 -9.58496 -9.58496zM166.967 131.771c-1.67578 0 -3.33203 0.444336 -4.78711 1.28516
c-4.57617 2.64355 -6.15137 8.51758 -3.50781 13.0938c1.70703 2.95703 4.88965 4.79395 8.30664 4.79395c1.67578 0 3.33105 -0.444336 4.78613 -1.28516c4.57812 -2.64355 6.15137 -8.51758 3.50879 -13.0938c-1.70801 -2.95605 -4.8916 -4.79395 -8.30664 -4.79395z
M73.0459 119.226c-7.89062 0 -15.2393 4.24121 -19.1807 11.0674c-2.95508 5.11914 -3.74121 11.082 -2.21094 16.791c1.5293 5.70898 5.18945 10.4805 10.3096 13.4355c3.3623 1.94141 7.18359 2.9668 11.0459 2.9668c7.88965 0 15.2383 -4.24023 19.1807 -11.0654
c6.09863 -10.5654 2.4668 -24.124 -8.09863 -30.2266c-3.36133 -1.94238 -7.18262 -2.96875 -11.0459 -2.96875zM201.363 97.3848c-3.41699 0 -6.60059 1.83691 -8.30762 4.79395c-2.64258 4.57812 -1.06738 10.4521 3.50879 13.0938
c1.45703 0.84082 3.1123 1.28516 4.78809 1.28516c3.41699 0 6.59961 -1.83789 8.30664 -4.79395c2.64355 -4.57715 1.06836 -10.4521 -3.50781 -13.0947c-1.45801 -0.84082 -3.11328 -1.28418 -4.78809 -1.28418zM38.6279 86.8799
c-3.50879 0 -6.97656 0.933594 -10.0293 2.69434c-4.64648 2.68164 -7.96875 7.01367 -9.3584 12.1963c-1.38867 5.18359 -0.675781 10.5957 2.00684 15.2432c3.57812 6.19629 10.25 10.0469 17.4121 10.0469c3.50879 0 6.97559 -0.931641 10.0293 -2.69434
c4.64746 -2.68359 7.9707 -7.01562 9.36035 -12.1973c1.38867 -5.18262 0.675781 -10.5967 -2.00781 -15.2432c-3.57812 -6.19531 -10.251 -10.0459 -17.4131 -10.0459zM213.942 50.415c-5.28516 0 -9.58496 4.30078 -9.58496 9.58496s4.29883 9.58496 9.58496 9.58496
c5.28516 0 9.58496 -4.30078 9.58496 -9.58496s-4.2998 -9.58496 -9.58496 -9.58496zM26.0576 41.9561c-9.94922 0 -18.043 8.09473 -18.043 18.0439s8.09375 18.0439 18.043 18.0439c9.9502 0 18.042 -8.09473 18.042 -18.0439s-8.09375 -18.0439 -18.042 -18.0439z
M201.351 3.44238c-1.6748 0 -3.3291 0.444336 -4.78613 1.28516c-4.57617 2.64355 -6.15137 8.51758 -3.50879 13.0938c1.70703 2.95703 4.89062 4.79395 8.30762 4.79395c1.6748 0 3.33105 -0.443359 4.78613 -1.28516c2.2168 -1.28125 3.80273 -3.34668 4.46582 -5.82031
c0.663086 -2.47168 0.322266 -5.05664 -0.957031 -7.27344c-1.70703 -2.95605 -4.89062 -4.79395 -8.30762 -4.79395zM38.6553 -2.97461c-5.70508 0 -11.0195 3.06641 -13.8691 8.00293c-4.41211 7.63965 -1.7832 17.4443 5.85742 21.8574
c2.43164 1.4043 5.19434 2.14648 7.98926 2.14648c5.7041 0 11.0186 -3.06543 13.8691 -8.00195c4.41113 -7.6416 1.7832 -17.4463 -5.8584 -21.8584c-2.43066 -1.40527 -5.19434 -2.14648 -7.98828 -2.14648zM166.977 -30.9434
c-3.41699 0 -6.59961 1.83691 -8.30762 4.79395c-1.28125 2.21875 -1.62012 4.80176 -0.957031 7.27539c0.662109 2.47168 2.25 4.53809 4.4668 5.81934c1.45605 0.841797 3.1123 1.28613 4.78809 1.28613c3.41699 0 6.59961 -1.83789 8.30664 -4.79492
c1.28125 -2.21777 1.62012 -4.80078 0.958984 -7.27344c-0.663086 -2.47266 -2.24902 -4.54004 -4.46777 -5.82129c-1.45605 -0.84082 -3.11035 -1.28516 -4.78809 -1.28516zM73.0186 -35.3193c-2.43945 0 -4.84961 0.648438 -6.9707 1.87207
c-6.66602 3.84961 -8.95801 12.4033 -5.11035 19.0713c2.4873 4.30664 7.12305 6.98242 12.1006 6.98242c2.43848 0 4.84961 -0.647461 6.9707 -1.87207c3.22949 -1.86426 5.53906 -4.875 6.50391 -8.47656c0.96582 -3.60156 0.469727 -7.36523 -1.39551 -10.5947
c-2.48535 -4.30762 -7.12012 -6.98242 -12.0986 -6.98242zM120 -45.8623c-6.57129 0 -11.9189 5.3457 -11.9189 11.9189c0 6.57129 5.3457 11.9189 11.9189 11.9189s11.9189 -5.3457 11.9189 -11.9189c0 -6.57129 -5.34766 -11.9189 -11.9189 -11.9189z" />
    <glyph glyph-name="uniE09D" unicode="&#xe09d;" 
d="M30 3.75c-14.4736 0 -26.25 11.7764 -26.25 26.25s11.7764 26.25 26.25 26.25s26.25 -11.7764 26.25 -26.25s-11.7764 -26.25 -26.25 -26.25zM90 3.75c-14.4736 0 -26.25 11.7764 -26.25 26.25s11.7764 26.25 26.25 26.25s26.25 -11.7764 26.25 -26.25
s-11.7764 -26.25 -26.25 -26.25zM150 3.75c-14.4736 0 -26.25 11.7764 -26.25 26.25s11.7764 26.25 26.25 26.25s26.25 -11.7764 26.25 -26.25s-11.7764 -26.25 -26.25 -26.25zM210 3.75c-14.4736 0 -26.25 11.7764 -26.25 26.25s11.7764 26.25 26.25 26.25
s26.25 -11.7764 26.25 -26.25s-11.7764 -26.25 -26.25 -26.25z" />
    <glyph glyph-name="uniE09E" unicode="&#xe09e;" 
d="M30 26.25c-14.4736 0 -26.25 11.7764 -26.25 26.25s11.7764 26.25 26.25 26.25s26.25 -11.7764 26.25 -26.25s-11.7764 -26.25 -26.25 -26.25zM90 3.75c-14.4736 0 -26.25 11.7764 -26.25 26.25s11.7764 26.25 26.25 26.25s26.25 -11.7764 26.25 -26.25
s-11.7764 -26.25 -26.25 -26.25zM150 3.75c-14.4736 0 -26.25 11.7764 -26.25 26.25s11.7764 26.25 26.25 26.25s26.25 -11.7764 26.25 -26.25s-11.7764 -26.25 -26.25 -26.25zM210 3.75c-14.4736 0 -26.25 11.7764 -26.25 26.25s11.7764 26.25 26.25 26.25
s26.25 -11.7764 26.25 -26.25s-11.7764 -26.25 -26.25 -26.25z" />
    <glyph glyph-name="uniE09F" unicode="&#xe09f;" 
d="M30 41.25c-14.4736 0 -26.25 11.7764 -26.25 26.25s11.7764 26.25 26.25 26.25s26.25 -11.7764 26.25 -26.25s-11.7764 -26.25 -26.25 -26.25zM90 3.75c-14.4736 0 -26.25 11.7764 -26.25 26.25s11.7764 26.25 26.25 26.25s26.25 -11.7764 26.25 -26.25
s-11.7764 -26.25 -26.25 -26.25zM150 3.75c-14.4736 0 -26.25 11.7764 -26.25 26.25s11.7764 26.25 26.25 26.25s26.25 -11.7764 26.25 -26.25s-11.7764 -26.25 -26.25 -26.25zM210 3.75c-14.4736 0 -26.25 11.7764 -26.25 26.25s11.7764 26.25 26.25 26.25
s26.25 -11.7764 26.25 -26.25s-11.7764 -26.25 -26.25 -26.25z" />
    <glyph glyph-name="uniE0A0" unicode="&#xe0a0;" 
d="M30 48.75c-14.4736 0 -26.25 11.7764 -26.25 26.25s11.7764 26.25 26.25 26.25s26.25 -11.7764 26.25 -26.25s-11.7764 -26.25 -26.25 -26.25zM90 26.25c-14.4736 0 -26.25 11.7764 -26.25 26.25s11.7764 26.25 26.25 26.25s26.25 -11.7764 26.25 -26.25
s-11.7764 -26.25 -26.25 -26.25zM150 3.75c-14.4736 0 -26.25 11.7764 -26.25 26.25s11.7764 26.25 26.25 26.25s26.25 -11.7764 26.25 -26.25s-11.7764 -26.25 -26.25 -26.25zM210 3.75c-14.4736 0 -26.25 11.7764 -26.25 26.25s11.7764 26.25 26.25 26.25
s26.25 -11.7764 26.25 -26.25s-11.7764 -26.25 -26.25 -26.25z" />
    <glyph glyph-name="uniE0A1" unicode="&#xe0a1;" 
d="M30 41.25c-14.4736 0 -26.25 11.7764 -26.25 26.25s11.7764 26.25 26.25 26.25s26.25 -11.7764 26.25 -26.25s-11.7764 -26.25 -26.25 -26.25zM90 41.25c-14.4736 0 -26.25 11.7764 -26.25 26.25s11.7764 26.25 26.25 26.25s26.25 -11.7764 26.25 -26.25
s-11.7764 -26.25 -26.25 -26.25zM150 3.75c-14.4736 0 -26.25 11.7764 -26.25 26.25s11.7764 26.25 26.25 26.25s26.25 -11.7764 26.25 -26.25s-11.7764 -26.25 -26.25 -26.25zM210 3.75c-14.4736 0 -26.25 11.7764 -26.25 26.25s11.7764 26.25 26.25 26.25
s26.25 -11.7764 26.25 -26.25s-11.7764 -26.25 -26.25 -26.25z" />
    <glyph glyph-name="uniE0A2" unicode="&#xe0a2;" 
d="M90 48.75c-14.4736 0 -26.25 11.7764 -26.25 26.25s11.7764 26.25 26.25 26.25s26.25 -11.7764 26.25 -26.25s-11.7764 -26.25 -26.25 -26.25zM30 26.25c-14.4736 0 -26.25 11.7764 -26.25 26.25s11.7764 26.25 26.25 26.25s26.25 -11.7764 26.25 -26.25
s-11.7764 -26.25 -26.25 -26.25zM150 26.25c-14.4736 0 -26.25 11.7764 -26.25 26.25s11.7764 26.25 26.25 26.25s26.25 -11.7764 26.25 -26.25s-11.7764 -26.25 -26.25 -26.25zM210 3.75c-14.4736 0 -26.25 11.7764 -26.25 26.25s11.7764 26.25 26.25 26.25
s26.25 -11.7764 26.25 -26.25s-11.7764 -26.25 -26.25 -26.25z" />
    <glyph glyph-name="uniE0A3" unicode="&#xe0a3;" 
d="M90 41.25c-14.4736 0 -26.25 11.7764 -26.25 26.25s11.7764 26.25 26.25 26.25s26.25 -11.7764 26.25 -26.25s-11.7764 -26.25 -26.25 -26.25zM150 41.25c-14.4736 0 -26.25 11.7764 -26.25 26.25s11.7764 26.25 26.25 26.25s26.25 -11.7764 26.25 -26.25
s-11.7764 -26.25 -26.25 -26.25zM30 3.75c-14.4736 0 -26.25 11.7764 -26.25 26.25s11.7764 26.25 26.25 26.25s26.25 -11.7764 26.25 -26.25s-11.7764 -26.25 -26.25 -26.25zM210 3.75c-14.4736 0 -26.25 11.7764 -26.25 26.25s11.7764 26.25 26.25 26.25
s26.25 -11.7764 26.25 -26.25s-11.7764 -26.25 -26.25 -26.25z" />
    <glyph glyph-name="uniE0A4" unicode="&#xe0a4;" 
d="M150 48.75c-14.4736 0 -26.25 11.7764 -26.25 26.25s11.7764 26.25 26.25 26.25s26.25 -11.7764 26.25 -26.25s-11.7764 -26.25 -26.25 -26.25zM90 26.25c-14.4736 0 -26.25 11.7764 -26.25 26.25s11.7764 26.25 26.25 26.25s26.25 -11.7764 26.25 -26.25
s-11.7764 -26.25 -26.25 -26.25zM210 26.25c-14.4736 0 -26.25 11.7764 -26.25 26.25s11.7764 26.25 26.25 26.25s26.25 -11.7764 26.25 -26.25s-11.7764 -26.25 -26.25 -26.25zM30 3.75c-14.4736 0 -26.25 11.7764 -26.25 26.25s11.7764 26.25 26.25 26.25
s26.25 -11.7764 26.25 -26.25s-11.7764 -26.25 -26.25 -26.25z" />
    <glyph glyph-name="uniE0A5" unicode="&#xe0a5;" 
d="M150 41.25c-14.4736 0 -26.25 11.7764 -26.25 26.25s11.7764 26.25 26.25 26.25s26.25 -11.7764 26.25 -26.25s-11.7764 -26.25 -26.25 -26.25zM210 41.25c-14.4736 0 -26.25 11.7764 -26.25 26.25s11.7764 26.25 26.25 26.25s26.25 -11.7764 26.25 -26.25
s-11.7764 -26.25 -26.25 -26.25zM30 3.75c-14.4736 0 -26.25 11.7764 -26.25 26.25s11.7764 26.25 26.25 26.25s26.25 -11.7764 26.25 -26.25s-11.7764 -26.25 -26.25 -26.25zM90 3.75c-14.4736 0 -26.25 11.7764 -26.25 26.25s11.7764 26.25 26.25 26.25
s26.25 -11.7764 26.25 -26.25s-11.7764 -26.25 -26.25 -26.25z" />
    <glyph glyph-name="uniE0A6" unicode="&#xe0a6;" 
d="M236.25 75c0 -14.4736 -11.7764 -26.25 -26.25 -26.25s-26.25 11.7764 -26.25 26.25s11.7764 26.25 26.25 26.25s26.25 -11.7764 26.25 -26.25zM176.25 52.5c0 -14.4736 -11.7764 -26.25 -26.25 -26.25s-26.25 11.7764 -26.25 26.25s11.7764 26.25 26.25 26.25
s26.25 -11.7764 26.25 -26.25zM116.25 30c0 -14.4736 -11.7764 -26.25 -26.25 -26.25s-26.25 11.7764 -26.25 26.25s11.7764 26.25 26.25 26.25s26.25 -11.7764 26.25 -26.25zM30 3.75c-14.4736 0 -26.25 11.7764 -26.25 26.25s11.7764 26.25 26.25 26.25
s26.25 -11.7764 26.25 -26.25s-11.7764 -26.25 -26.25 -26.25z" />
    <glyph glyph-name="uniE0A7" unicode="&#xe0a7;" 
d="M210 41.25c-14.4736 0 -26.25 11.7764 -26.25 26.25s11.7764 26.25 26.25 26.25s26.25 -11.7764 26.25 -26.25s-11.7764 -26.25 -26.25 -26.25zM30 3.75c-14.4736 0 -26.25 11.7764 -26.25 26.25s11.7764 26.25 26.25 26.25s26.25 -11.7764 26.25 -26.25
s-11.7764 -26.25 -26.25 -26.25zM90 3.75c-14.4736 0 -26.25 11.7764 -26.25 26.25s11.7764 26.25 26.25 26.25s26.25 -11.7764 26.25 -26.25s-11.7764 -26.25 -26.25 -26.25zM150 3.75c-14.4736 0 -26.25 11.7764 -26.25 26.25s11.7764 26.25 26.25 26.25
s26.25 -11.7764 26.25 -26.25s-11.7764 -26.25 -26.25 -26.25z" />
    <glyph glyph-name="uniE0A8" unicode="&#xe0a8;" 
d="M210 26.25c-14.4736 0 -26.25 11.7764 -26.25 26.25s11.7764 26.25 26.25 26.25s26.25 -11.7764 26.25 -26.25s-11.7764 -26.25 -26.25 -26.25zM30 3.75c-14.4736 0 -26.25 11.7764 -26.25 26.25s11.7764 26.25 26.25 26.25s26.25 -11.7764 26.25 -26.25
s-11.7764 -26.25 -26.25 -26.25zM90 3.75c-14.4736 0 -26.25 11.7764 -26.25 26.25s11.7764 26.25 26.25 26.25s26.25 -11.7764 26.25 -26.25s-11.7764 -26.25 -26.25 -26.25zM150 3.75c-14.4736 0 -26.25 11.7764 -26.25 26.25s11.7764 26.25 26.25 26.25
s26.25 -11.7764 26.25 -26.25s-11.7764 -26.25 -26.25 -26.25z" />
    <glyph glyph-name="uniE0A9" unicode="&#xe0a9;" 
d="M124.5 179.886c18.4844 -0.685547 35.9072 -5.56445 51.3506 -13.7236l-18.0146 -31.332c-10.1143 5.13672 -21.3916 8.29688 -33.3359 8.93164v36.124zM165.632 130.332l18.0127 31.3271c15.3516 -9.64453 28.3682 -22.6631 38.0146 -38.0146l-31.3271 -18.0127
c-6.41699 9.85645 -14.8438 18.2832 -24.7002 24.7002zM194.83 97.8359l31.332 18.0166c8.15918 -15.4453 13.0381 -32.8682 13.7236 -51.3525h-36.124c-0.634766 11.9434 -3.79492 23.2217 -8.93164 33.3359zM239.886 55.5
c-0.685547 -18.4844 -5.56445 -35.9072 -13.7236 -51.3506l-31.332 18.0146c5.13672 10.1143 8.29688 21.3926 8.93164 33.3359h36.124zM190.332 14.3682l31.3271 -18.0127c-9.64453 -15.3516 -22.6631 -28.3682 -38.0146 -38.0146l-18.0127 31.3271
c9.85645 6.41699 18.2832 14.8438 24.7002 24.7002zM157.836 -14.8301l18.0166 -31.332c-15.4453 -8.15918 -32.8682 -13.0381 -51.3525 -13.7236v36.124c11.9434 0.634766 23.2217 3.79492 33.3359 8.93164zM115.5 -59.8857
c-18.4844 0.685547 -35.9072 5.56445 -51.3506 13.7236l18.0146 31.332c10.1143 -5.13672 21.3916 -8.29688 33.3359 -8.93164v-36.124zM74.3682 -10.332l-18.0146 -31.3271c-15.3506 9.64453 -28.3682 22.6631 -38.0146 38.0146l31.3291 18.0127
c6.41699 -9.85645 14.8438 -18.2832 24.7002 -24.7002zM45.1699 22.1641l-31.332 -18.0166c-8.15918 15.4453 -13.0381 32.8682 -13.7236 51.3525h36.124c0.634766 -11.9434 3.79688 -23.2217 8.93164 -33.3359zM0.114258 64.5
c0.685547 18.4844 5.56445 35.9072 13.7236 51.3525l31.332 -18.0166c-5.13672 -10.1143 -8.29688 -21.3916 -8.93164 -33.3359h-36.124zM49.668 105.632l-31.3291 18.0127c9.64648 15.3525 22.6641 28.3701 38.0166 38.0166l18.0127 -31.3291
c-9.85645 -6.41699 -18.2832 -14.8438 -24.7002 -24.7002zM82.1641 134.83l-18.0166 31.332c15.4453 8.15918 32.8682 13.0381 51.3525 13.7236v-36.124c-11.9443 -0.634766 -23.2217 -3.79688 -33.3359 -8.93164z" />
    <glyph glyph-name="uniE0AA" unicode="&#xe0aa;" 
d="M124.5 179.886c18.4844 -0.685547 35.9072 -5.56445 51.3506 -13.7236l-18.0146 -31.332c-10.1143 5.13672 -21.3916 8.29688 -33.3359 8.93164v36.124zM165.632 130.332l18.0127 31.3271c15.3516 -9.64453 28.3682 -22.6631 38.0146 -38.0146l-31.3271 -18.0127
c-6.41699 9.85645 -14.8438 18.2832 -24.7002 24.7002zM194.83 97.8359l31.332 18.0166c8.15918 -15.4453 13.0381 -32.8682 13.7236 -51.3525h-36.124c-0.634766 11.9434 -3.79492 23.2217 -8.93164 33.3359zM239.886 55.5
c-0.685547 -18.4844 -5.56445 -35.9072 -13.7236 -51.3506l-31.332 18.0146c5.13672 10.1143 8.29688 21.3926 8.93164 33.3359h36.124zM190.332 14.3682l31.3271 -18.0127c-9.64453 -15.3516 -22.6631 -28.3682 -38.0146 -38.0146l-18.0127 31.3271
c9.85645 6.41699 18.2832 14.8438 24.7002 24.7002zM157.836 -14.8301l18.0166 -31.332c-15.4453 -8.15918 -32.8682 -13.0381 -51.3525 -13.7236v36.124c11.9434 0.634766 23.2217 3.79492 33.3359 8.93164zM115.5 -59.8857
c-18.4844 0.685547 -35.9072 5.56445 -51.3506 13.7236l18.0146 31.332c10.1143 -5.13672 21.3916 -8.29688 33.3359 -8.93164v-36.124zM74.3682 -10.332l-18.0146 -31.3271c-15.3506 9.64453 -28.3682 22.6631 -38.0146 38.0146l31.3291 18.0127
c6.41699 -9.85645 14.8438 -18.2832 24.7002 -24.7002zM45.1699 22.1641l-31.332 -18.0166c-8.15918 15.4453 -13.0381 32.8682 -13.7236 51.3525h36.124c0.634766 -11.9434 3.79688 -23.2217 8.93164 -33.3359zM0.114258 64.5
c0.685547 18.4844 5.56445 35.9072 13.7236 51.3525l31.332 -18.0166c-5.13672 -10.1143 -8.29688 -21.3916 -8.93164 -33.3359h-36.124zM49.668 105.632l-31.3291 18.0127c9.64648 15.3525 22.6641 28.3701 38.0166 38.0166l18.0127 -31.3291
c-9.85645 -6.41699 -18.2832 -14.8438 -24.7002 -24.7002zM82.1641 134.83l-18.0166 31.332c15.4453 8.15918 32.8682 13.0381 51.3525 13.7236v-36.124c-11.9443 -0.634766 -23.2217 -3.79688 -33.3359 -8.93164z" />
    <glyph glyph-name="uniE0AB" unicode="&#xe0ab;" 
d="M124.5 179.886c18.4844 -0.685547 35.9072 -5.56445 51.3506 -13.7236l-18.0146 -31.332c-10.1143 5.13672 -21.3916 8.29688 -33.3359 8.93164v36.124zM165.632 130.332l18.0127 31.3271c15.3516 -9.64453 28.3682 -22.6631 38.0146 -38.0146l-31.3271 -18.0127
c-6.41699 9.85645 -14.8438 18.2832 -24.7002 24.7002zM194.83 97.8359l31.332 18.0166c8.15918 -15.4453 13.0381 -32.8682 13.7236 -51.3525h-36.124c-0.634766 11.9434 -3.79492 23.2217 -8.93164 33.3359zM239.886 55.5
c-0.685547 -18.4844 -5.56445 -35.9072 -13.7236 -51.3506l-31.332 18.0146c5.13672 10.1143 8.29688 21.3926 8.93164 33.3359h36.124zM190.332 14.3682l31.3271 -18.0127c-9.64453 -15.3516 -22.6631 -28.3682 -38.0146 -38.0146l-18.0127 31.3271
c9.85645 6.41699 18.2832 14.8438 24.7002 24.7002zM157.836 -14.8301l18.0166 -31.332c-15.4453 -8.15918 -32.8682 -13.0381 -51.3525 -13.7236v36.124c11.9434 0.634766 23.2217 3.79492 33.3359 8.93164zM115.5 -59.8857
c-18.4844 0.685547 -35.9072 5.56445 -51.3506 13.7236l18.0146 31.332c10.1143 -5.13672 21.3916 -8.29688 33.3359 -8.93164v-36.124zM74.3682 -10.332l-18.0146 -31.3271c-15.3506 9.64453 -28.3682 22.6631 -38.0146 38.0146l31.3291 18.0127
c6.41699 -9.85645 14.8438 -18.2832 24.7002 -24.7002zM45.1699 22.1641l-31.332 -18.0166c-8.15918 15.4453 -13.0381 32.8682 -13.7236 51.3525h36.124c0.634766 -11.9434 3.79688 -23.2217 8.93164 -33.3359zM0.114258 64.5
c0.685547 18.4844 5.56445 35.9072 13.7236 51.3525l31.332 -18.0166c-5.13672 -10.1143 -8.29688 -21.3916 -8.93164 -33.3359h-36.124zM49.668 105.632l-31.3291 18.0127c9.64648 15.3525 22.6641 28.3701 38.0166 38.0166l18.0127 -31.3291
c-9.85645 -6.41699 -18.2832 -14.8438 -24.7002 -24.7002zM82.1641 134.83l-18.0166 31.332c15.4453 8.15918 32.8682 13.0381 51.3525 13.7236v-36.124c-11.9443 -0.634766 -23.2217 -3.79688 -33.3359 -8.93164z" />
    </font>
</defs>
</svg>
