<?xml version="1.0" encoding="UTF-8"?>
<!DOCTYPE svg PUBLIC "-//W3C//DTD SVG 1.1//EN" "http://www.w3.org/Graphics/SVG/1.1/DTD/svg11.dtd">
<svg version="1.1" id="Layer_1" xmlns="http://www.w3.org/2000/svg" xmlns:xlink="http://www.w3.org/1999/xlink" x="0px" y="0px" width="32px" height="32px" viewBox="0 0 32 32" enable-background="new 0 0 32 32" xml:space="preserve">
  <g id="icon">
    <path d="M11.212,23.371l2.753,4.831l-2.402,0.028L9.843,30l-1.609,-5.753M4.854,23.371l-2.753,4.831l2.402,0.028l1.72,1.77l1.609,-5.753M2.221,18.337c0,3.223,2.603,5.837,5.814,5.837s5.814,-2.613,5.814,-5.837S11.246,12.5,8.035,12.5S2.221,15.113,2.221,18.337z" fill="#FFFFFF" stroke="#EE3D3B" stroke-width="1" stroke-miterlimit="1"/>
    <path d="M4.5,6.5v5.417c1.049,-0.583,2.253,-0.917,3.535,-0.917c4.033,0,7.314,3.291,7.314,7.337c0,1.999,-0.832,3.922,-2.26,5.298L14.722,26.5H30.5V6.5H4.5z" fill="#FFFFFF"/>
    <path d="M4,6v6.221c0.317,-0.211,0.651,-0.397,1,-0.557V7h25v19H14.437l0.57,1H31V6H4z" fill="#383838"/>
    <path d="M4.5,1.5v5h26V1.5H4.5zM21,5H6V3h15V5zM25,5h-2V3h2V5zM29,5h-2V3h2V5z" fill="#92CBEE"/>
    <path d="M31,7H4V1h27V7zM5,6h25V2H5V6z" fill="#0964B0"/>
    <path d="M23,3h2v2h-2V3zM27,3h2v2h-2V3zM6,3h15v2H6V3z" fill="#FFFFFF"/>
    <path d="M7.5,9.5v1.522c0.177,-0.013,0.355,-0.022,0.535,-0.022c0.934,0,1.827,0.178,2.649,0.5H27.5V9.5H7.5z" fill="#C8C6C4"/>
    <path d="M7,9v2.075c0.338,-0.048,0.684,-0.075,1.035,-0.075H8v-1h19v1H8.035c1.341,0,2.598,0.366,3.68,1H28V9H7z" fill="#383838"/>
    <rect x="20.5" y="14.5" width="7" height="9" fill="#BEE2E5"/>
    <path d="M28,24h-8V14h8V24zM21,23h6v-8h-6V23z" fill="#21B4C9"/>
    <path d="M15.153,20H18v1h-3.158C14.969,20.675,15.073,20.341,15.153,20zM13.089,23.635l0.208,0.365H18v-1h-4.328C13.49,23.222,13.297,23.435,13.089,23.635zM15.341,18H18v-1h-2.775C15.285,17.327,15.325,17.66,15.341,18zM13.93,14c0.231,0.315,0.437,0.65,0.616,1H18v-1H13.93z" fill="#787979"/>
  </g>
</svg>
