<?xml version="1.0" encoding="UTF-8"?>
<!DOCTYPE svg PUBLIC "-//W3C//DTD SVG 1.1//EN" "http://www.w3.org/Graphics/SVG/1.1/DTD/svg11.dtd">
<svg version="1.1" id="Layer_1" xmlns="http://www.w3.org/2000/svg" xmlns:xlink="http://www.w3.org/1999/xlink" x="0px" y="0px" width="32px" height="32px" viewBox="0 0 32 32" enable-background="new 0 0 32 32" xml:space="preserve">
  <g id="icon">
    <path d="M24.37,4.933c-1.19,0,-2.311,0.3,-3.298,0.826C19.749,2.664,16.728,0.5,13.21,0.5C8.863,0.5,5.275,3.804,4.712,8.086C2.287,8.749,0.5,11.008,0.5,13.694C0.5,16.901,3.045,19.5,6.183,19.5H8V9h16v10.5h0.37c3.938,0,7.13,-3.261,7.13,-7.283S28.308,4.933,24.37,4.933z" fill="#92CBEE"/>
    <path d="M24.37,4.433c-1.051,0,-2.098,0.224,-3.058,0.653C19.774,1.979,16.648,0,13.21,0C8.79,0,5,3.287,4.264,7.7C1.738,8.539,0,10.958,0,13.694C0,17.171,2.774,20,6.183,20H8v-1H6.183C3.325,19,1,16.62,1,13.694c0,-2.4,1.581,-4.508,3.844,-5.126l0.321,-0.088l0.043,-0.33C5.743,4.074,9.183,1,13.21,1c3.21,0,6.116,1.945,7.402,4.956c0.413,0.967,0.636,1.99,0.668,3.044h1.001c-0.028,-1.031,-0.219,-2.036,-0.573,-2.996c0.839,-0.379,1.733,-0.571,2.662,-0.571c3.656,0,6.63,3.043,6.63,6.783S28.026,19,24.37,19H24v1h0.37c4.207,0,7.63,-3.492,7.63,-7.783S28.577,4.433,24.37,4.433z" fill="#0F65B0"/>
    <path d="M22.5,31.5H9.5V10.5h13V31.5zM9.5,15.5h13M9.5,20.5h13" fill="#FFFFFF" stroke="#383838" stroke-width="1" stroke-miterlimit="1"/>
    <ellipse cx="15.998" cy="27.015" rx="1.502" ry="1.485" fill="none" stroke="#787979" stroke-width="1" stroke-miterlimit="1"/>
    <path d="M18,13.5h2M18,18.5h2" fill="#238BCB" stroke="#228BCB" stroke-width="1" stroke-miterlimit="1"/>
  </g>
</svg>
