<?xml version="1.0" encoding="UTF-8"?>
<!DOCTYPE svg PUBLIC "-//W3C//DTD SVG 1.1//EN" "http://www.w3.org/Graphics/SVG/1.1/DTD/svg11.dtd">
<svg version="1.1" id="Layer_1" xmlns="http://www.w3.org/2000/svg" xmlns:xlink="http://www.w3.org/1999/xlink" x="0px" y="0px" width="32px" height="32px" viewBox="0 0 32 32" enable-background="new 0 0 32 32" xml:space="preserve">
  <g id="icon">
    <rect x="1.5" y="7.5" width="29" height="22" fill="#FFFFFF" stroke="#383838" stroke-width="1" stroke-miterlimit="1"/>
    <rect x="1.5" y="2.5" width="29" height="5" fill="#F3B8B8" stroke="#E42D2C" stroke-width="1" stroke-linecap="round" stroke-miterlimit="1"/>
    <rect x="4.5" y="11.5" width="17" height="5" fill="none" stroke="#787979" stroke-width="1" stroke-miterlimit="1"/>
    <path d="M6,14h11" fill="#FFFFFF" stroke="#383838" stroke-width="1" stroke-miterlimit="1"/>
    <rect x="4.5" y="20.5" width="17" height="5" fill="none" stroke="#787979" stroke-width="1" stroke-miterlimit="1"/>
    <path d="M28.3,12.5l-3,3l-2,-2M23.3,22.5l2,2l3,-3" fill="none" stroke="#17AB4F" stroke-width="1" stroke-miterlimit="1"/>
    <path d="M8,23c0,0.552,-0.448,1,-1,1s-1,-0.448,-1,-1s0.448,-1,1,-1S8,22.448,8,23zM10,22c-0.552,0,-1,0.448,-1,1s0.448,1,1,1s1,-0.448,1,-1S10.552,22,10,22zM13,22c-0.552,0,-1,0.448,-1,1s0.448,1,1,1c0.552,0,1,-0.448,1,-1S13.552,22,13,22zM16,22c-0.552,0,-1,0.448,-1,1s0.448,1,1,1s1,-0.448,1,-1S16.552,22,16,22z" fill="#383838"/>
  </g>
</svg>
