<?xml version="1.0" encoding="UTF-8"?>
<!DOCTYPE svg PUBLIC "-//W3C//DTD SVG 1.1//EN" "http://www.w3.org/Graphics/SVG/1.1/DTD/svg11.dtd">
<svg version="1.1" id="Layer_1" xmlns="http://www.w3.org/2000/svg" xmlns:xlink="http://www.w3.org/1999/xlink" x="0px" y="0px" width="32px" height="32px" viewBox="0 0 32 32" enable-background="new 0 0 32 32" xml:space="preserve">
  <g id="icon">
    <path d="M19.5,1.5c-4.839,0,-8.948,3.139,-10.42,7.5h4.103L19,14.955v8.633c0.166,0.007,0.332,0.012,0.5,0.012c6.075,0,11,-4.947,11,-11.05S25.575,1.5,19.5,1.5z" fill="#FFFFFF"/>
    <path d="M19.5,1c-5.108,0,-9.449,3.363,-10.944,8h1.056c1.245,-3.49,4.27,-6.134,7.97,-6.823C15.749,3.745,14.167,6.329,13.36,9h-0.177l0.977,1H19v4.955V15v1v6.811v1.277c0.166,0.007,0.332,0.012,0.5,0.012c6.341,0,11.5,-5.181,11.5,-11.55S25.841,1,19.5,1zM19,9h-4.589c0.9,-2.76,2.669,-5.405,4.589,-6.642V9zM29.388,9h-3.856c-0.798,-2.683,-2.366,-5.274,-4.185,-6.836C25.079,2.832,28.135,5.488,29.388,9zM20,2.39c1.878,1.243,3.602,3.867,4.482,6.61H20V2.39zM20,10h4.763c0.213,0.881,0.33,1.758,0.33,2.591c0,0.778,-0.101,1.592,-0.284,2.409H20V10zM20,22.739V16h4.546C23.686,18.827,21.92,21.532,20,22.739zM21.444,22.918c1.896,-1.612,3.388,-4.292,4.132,-6.918h3.847C28.204,19.53,25.168,22.215,21.444,22.918zM25.823,15c0.176,-0.836,0.27,-1.652,0.27,-2.409c0,-0.839,-0.107,-1.714,-0.302,-2.591h3.897c0.203,0.817,0.311,1.671,0.311,2.55c0,0.843,-0.1,1.663,-0.286,2.45H25.823z" fill="#228BCB"/>
    <polygon points="17.5,30.5 1.5,30.5 1.5,10.5 12.551,10.5 17.5,15.566" fill="#FFFFFF" stroke-linejoin="miter"/>
    <path d="M12.762,10H1v21h17V15.362L12.762,10zM13,11.675L16.248,15H13V11.675zM2,30V11h10v5h5v14H2z" fill="#383838"/>
  </g>
</svg>
