<?xml version="1.0" encoding="UTF-8"?>
<!DOCTYPE svg PUBLIC "-//W3C//DTD SVG 1.1//EN" "http://www.w3.org/Graphics/SVG/1.1/DTD/svg11.dtd">
<svg version="1.1" id="Layer_1" xmlns="http://www.w3.org/2000/svg" xmlns:xlink="http://www.w3.org/1999/xlink" x="0px" y="0px" width="32px" height="32px" viewBox="0 0 32 32" enable-background="new 0 0 32 32" xml:space="preserve">
  <g id="icon">
    <ellipse cx="15.55" cy="11.5" rx="10.95" ry="11" fill="#FFFFFF" stroke="#228BCB" stroke-width="1" stroke-miterlimit="1"/>
    <path d="M15.509,0.534c-3.272,1.504,-6.143,6.89,-6.143,11.004c0,4.066,2.7,9.447,6.015,10.902M15.598,22.441c3.315,-1.455,6.015,-6.837,6.015,-10.902c0,-4.115,-2.798,-9.5,-6.07,-11.004M5.1,14.5h20.8M5.1,8.5h20.8M15.5,0.5v22" fill="none" stroke="#228BCB" stroke-width="1" stroke-miterlimit="1"/>
    <path d="M0.5,28.5h11M19.5,28.5h11M15.5,25v-2" fill="#FFFFFF" stroke="#383838" stroke-width="1" stroke-miterlimit="1"/>
    <path d="M12.85,25.35l5.3,5.3M12.85,30.65l5.3,-5.3" fill="none" stroke="#EE3D3B" stroke-width="1" stroke-miterlimit="1"/>
  </g>
</svg>
