<?xml version="1.0" encoding="UTF-8"?>
<!DOCTYPE svg PUBLIC "-//W3C//DTD SVG 1.1//EN" "http://www.w3.org/Graphics/SVG/1.1/DTD/svg11.dtd">
<svg version="1.1" id="Layer_1" xmlns="http://www.w3.org/2000/svg" xmlns:xlink="http://www.w3.org/1999/xlink" x="0px" y="0px" width="32px" height="32px" viewBox="0 0 32 32" enable-background="new 0 0 32 32" xml:space="preserve">
  <g id="icon">
    <path d="M19.5,1.5C13.425,1.5,8.5,6.447,8.5,12.55c0,0.256,0.009,0.51,0.027,0.762c0.274,-0.024,0.551,-0.036,0.83,-0.036c2.272,0,4.674,0.998,6.543,2.623V13h3.1v3v5.8v1.788c0.166,0.007,0.332,0.012,0.5,0.012c6.075,0,11,-4.947,11,-11.05S25.575,1.5,19.5,1.5z" fill="#FFFFFF"/>
    <path d="M31,12.55c0,6.369,-5.159,11.55,-11.5,11.55c-0.168,0,-0.334,-0.004,-0.5,-0.012v-1.277V21.8v-5.8v-1v-2v-3h-4.875c-0.217,0.882,-0.337,1.759,-0.337,2.591c0,0.636,0.068,1.297,0.193,1.963c-0.356,-0.198,-0.721,-0.375,-1.092,-0.53c-0.066,-0.493,-0.101,-0.974,-0.101,-1.433c0,-0.839,0.108,-1.713,0.307,-2.591H9.311c-0.203,0.817,-0.311,1.671,-0.311,2.55c0,0.246,0.009,0.49,0.026,0.732c-0.336,0.011,-0.669,0.04,-0.997,0.086c-0.019,-0.27,-0.029,-0.543,-0.029,-0.818C8,6.181,13.159,1,19.5,1S31,6.181,31,12.55zM17.583,2.177c-3.7,0.689,-6.726,3.334,-7.97,6.823h3.747C14.167,6.329,15.749,3.745,17.583,2.177zM19,2.358C17.08,3.595,15.311,6.24,14.411,9H19V2.358zM21.347,2.164c1.818,1.563,3.387,4.153,4.185,6.836h3.856C28.135,5.488,25.079,2.832,21.347,2.164zM20,9h4.482c-0.88,-2.743,-2.604,-5.368,-4.482,-6.61V9zM20,15h4.81c0.183,-0.817,0.284,-1.631,0.284,-2.409c0,-0.832,-0.118,-1.71,-0.33,-2.591H20V15zM24.546,16H20v6.739C21.92,21.532,23.686,18.827,24.546,16zM29.423,16h-3.847c-0.744,2.626,-2.236,5.306,-4.132,6.918C25.168,22.215,28.204,19.53,29.423,16zM29.714,15c0.187,-0.787,0.286,-1.607,0.286,-2.45c0,-0.879,-0.108,-1.733,-0.311,-2.55h-3.897c0.195,0.877,0.302,1.751,0.302,2.591c0,0.758,-0.094,1.573,-0.27,2.409H29.714z" fill="#228BCB"/>
    <path d="M11.183,20.207H17.4V14M16.944,19.751c-1.26,-2.638,-4.468,-4.969,-7.6,-4.969c-4.336,0,-7.744,3.496,-7.744,7.809C1.6,26.904,5.115,30.4,9.45,30.4c3.562,0,6.57,-2.359,7.53,-5.593" fill="none" stroke="#21B4C9" stroke-width="1.1" stroke-miterlimit="1"/>
  </g>
</svg>
