<?xml version="1.0" encoding="UTF-8"?>
<!DOCTYPE svg PUBLIC "-//W3C//DTD SVG 1.1//EN" "http://www.w3.org/Graphics/SVG/1.1/DTD/svg11.dtd">
<svg version="1.1" id="Layer_1" xmlns="http://www.w3.org/2000/svg" xmlns:xlink="http://www.w3.org/1999/xlink" x="0px" y="0px" width="32px" height="32px" viewBox="0 0 32 32" enable-background="new 0 0 32 32" xml:space="preserve">
  <g id="icon">
    <rect x="2.5" y="2.5" width="27" height="27" fill="#FFFFFF" stroke="#383838" stroke-width="1" stroke-miterlimit="1"/>
    <path d="M7.466,27.02c0,-3.996,2.551,-7.661,6.056,-8.92l5.038,0.024c3.471,1.283,5.99,4.926,5.99,8.896M18.739,18.079c1.182,-0.044,2.322,-0.209,3.307,-0.905c0.205,-0.145,0.207,-0.449,-0.001,-0.591c-0.671,-0.458,-0.904,-1.184,-1.031,-1.94c-0.135,-0.804,-0.176,-1.629,-0.188,-2.446c-0.018,-1.177,-0.077,-2.337,-0.461,-3.468c-0.708,-2.085,-2.73,-2.835,-4.322,-2.718c-0.555,0.041,-1.06,0.259,-1.5,0.614c-0.11,0.088,-0.269,0.171,-0.403,0.167c-1.336,-0.042,-2.135,0.739,-2.562,1.772c-0.284,0.686,-0.432,1.41,-0.447,2.143c-0.018,0.847,0.035,1.696,0.076,2.544c0.042,0.878,-0.021,1.735,-0.446,2.529c-0.198,0.371,-0.38,0.588,-0.702,0.815c-0.206,0.146,-0.208,0.446,-0.003,0.593c0.595,0.425,1.689,0.712,3.309,0.867C15.167,18.249,16.958,18.253,18.739,18.079z" fill="#FFFFFF" stroke="#A0519F" stroke-width="1.1" stroke-miterlimit="1"/>
  </g>
</svg>
