<?xml version="1.0" encoding="UTF-8"?>
<!DOCTYPE svg PUBLIC "-//W3C//DTD SVG 1.1//EN" "http://www.w3.org/Graphics/SVG/1.1/DTD/svg11.dtd">
<svg version="1.1" id="Layer_1" xmlns="http://www.w3.org/2000/svg" xmlns:xlink="http://www.w3.org/1999/xlink" x="0px" y="0px" width="32px" height="32px" viewBox="0 0 32 32" enable-background="new 0 0 32 32" xml:space="preserve">
  <g id="icon">
    <path d="M29.1,15.5h-1.4h-0.2h0l0,-13.456c0,-0.301,-0.244,-0.544,-0.544,-0.544H5.048C4.745,1.5,4.5,1.745,4.5,2.048V12h11.361c2.282,0,4.139,1.857,4.139,4.139V26.5h5.8h0.8h2.1h0.301c0.084,0.004,0.164,0.004,0.242,0H29.4v-0.056c0.634,-0.175,1.1,-0.755,1.1,-1.444v-5.681c0,-2.159,0,-3.819,0,-3.819H29.1z" fill="#FFFFFF"/>
    <path d="M28,15V2.044c0,-0.015,-0.002,-0.029,-0.002,-0.044H28V1h-1.044H5.048H4v1h0.002C4.002,2.016,4,2.032,4,2.048v9.956c0.046,-0.002,0.092,-0.004,0.139,-0.004H5V3v-0.952V2h0.048h21.908H27v0.044V3v12v8.942V25c0,0.364,0.1,0.705,0.271,1H20v1h9c1.103,0,2,-0.897,2,-2v-1v-9H28zM30,24v1c0,0.551,-0.449,1,-1,1s-1,-0.449,-1,-1v-1.058V16h2V24z" fill="#383838"/>
    <rect x="7.5" y="7.5" width="8" height="4.5" fill="#FFFFFF"/>
    <path d="M20,23h5v-1h-5V23zM20,20h5v-1h-5V20zM7,11h7v-1H7V11zM7,4v1h18V4H7zM7,8h7V7H7V8z" fill="#787979"/>
    <path d="M16,7v5v0.004c0.346,0.011,0.681,0.065,1,0.157V12V8h7v4v4h-4.004c0.002,0.046,0.004,0.092,0.004,0.139V17h5v-4.996v-0.007V7H16z" fill="#228BCB"/>
    <path d="M15.861,30.5H4.139C2.681,30.5,1.5,29.319,1.5,27.861V16.139C1.5,14.681,2.681,13.5,4.139,13.5h11.723c1.457,0,2.639,1.181,2.639,2.639v11.723C18.5,29.319,17.319,30.5,15.861,30.5z" fill="#FFFFFF" stroke="#228BCB" stroke-width="1" stroke-miterlimit="1"/>
    <path d="M13,16.5h-1.807c-0.935,0,-1.693,0.758,-1.693,1.693V28" fill="#FFFFFF" stroke="#228BCB" stroke-width="1" stroke-miterlimit="1"/>
    <line x1="7" y1="20.5" x2="13" y2="20.5" fill="#FFFFFF" stroke="#228BCB" stroke-width="1" stroke-miterlimit="1"/>
  </g>
</svg>
