<?xml version="1.0" encoding="UTF-8"?>
<!DOCTYPE svg PUBLIC "-//W3C//DTD SVG 1.1//EN" "http://www.w3.org/Graphics/SVG/1.1/DTD/svg11.dtd">
<svg version="1.1" id="Layer_1" xmlns="http://www.w3.org/2000/svg" xmlns:xlink="http://www.w3.org/1999/xlink" x="0px" y="0px" width="32px" height="32px" viewBox="0 0 32 32" enable-background="new 0 0 32 32" xml:space="preserve">
  <g id="icon">
    <polygon points="5.5,2.5 5.5,19 24,19 24,24.5 30.5,24.5 30.5,2.5" fill="#FFFFFF" stroke-linejoin="miter"/>
    <path d="M25.015,10.225c-1.441,0,-2.613,-1.172,-2.613,-2.613S23.574,5,25.015,5c1.441,0,2.613,1.172,2.613,2.613S26.455,10.225,25.015,10.225zM25.015,6c-0.889,0,-1.613,0.723,-1.613,1.613s0.723,1.613,1.613,1.613s1.613,-0.723,1.613,-1.613S25.904,6,25.015,6z" fill="#ED8730"/>
    <path d="M24,23.289l0.817,0.817l-0.778,0.778l-0.039,-0.039V23.289zM21.927,12.334l-4.441,4.441l-6.855,-6.855l-5.52,5.52l0.778,0.778l4.742,-4.742L18.156,19h1.556l-1.447,-1.447l3.663,-3.663l8.234,8.234l0.778,-0.778L21.927,12.334z" fill="#78797A"/>
    <polygon points="5,2 5,19 6,19 6,3 30,3 30,24 24,24 24,25 31,25 31,2" fill="#383838" stroke-linejoin="miter"/>
    <rect x="1.5" y="20.5" width="21" height="10" fill="#FFFFFF" stroke="#228BCB" stroke-width="1" stroke-miterlimit="1"/>
    <path d="M6.297,29.024H4V22h2.056c0.776,0,1.353,0.164,1.765,0.5c0.43,0.352,0.657,0.869,0.657,1.497c0,0.228,-0.045,0.462,-0.134,0.694c-0.1,0.261,-0.253,0.496,-0.443,0.682c-0.011,0.01,-0.022,0.021,-0.033,0.031c0.057,0.036,0.112,0.074,0.164,0.114c0.228,0.176,0.407,0.392,0.533,0.642c0.131,0.261,0.193,0.522,0.193,0.822c0,0.323,-0.056,0.598,-0.176,0.865c-0.122,0.271,-0.302,0.5,-0.536,0.68c-0.22,0.17,-0.487,0.298,-0.793,0.381C6.969,28.984,6.647,29.024,6.297,29.024zM5,28.024h1.297c0.262,0,0.496,-0.027,0.695,-0.081c0.178,-0.048,0.328,-0.118,0.443,-0.207c0.104,-0.08,0.18,-0.178,0.235,-0.299c0.061,-0.136,0.088,-0.276,0.088,-0.455c0,-0.144,-0.025,-0.251,-0.086,-0.372c-0.059,-0.117,-0.141,-0.216,-0.251,-0.3c-0.118,-0.091,-0.268,-0.162,-0.447,-0.213c-0.196,-0.056,-0.421,-0.084,-0.668,-0.084H5V28.024zM5,25.012h1.102c0.278,0,0.509,-0.035,0.687,-0.105c0.174,-0.068,0.314,-0.152,0.415,-0.251c0.086,-0.084,0.159,-0.198,0.207,-0.322c0.045,-0.118,0.068,-0.231,0.068,-0.337c0,-0.322,-0.098,-0.565,-0.29,-0.723c-0.22,-0.179,-0.611,-0.274,-1.132,-0.274H5V25.012z" fill="#228BCB"/>
    <path d="M19.484,22.522c-0.417,-0.346,-0.996,-0.522,-1.722,-0.522H16v7h1v-2.676h0.762c0.335,0,0.648,-0.051,0.932,-0.152c0.29,-0.103,0.545,-0.249,0.759,-0.434c0.222,-0.192,0.398,-0.427,0.521,-0.697c0.123,-0.27,0.185,-0.565,0.185,-0.879C20.159,23.447,19.932,22.895,19.484,22.522zM19.07,24.604c-0.062,0.136,-0.147,0.249,-0.26,0.347c-0.119,0.103,-0.267,0.187,-0.44,0.248c-0.178,0.063,-0.381,0.095,-0.603,0.095H17v-2.265h0.766c0.489,0,0.855,0.098,1.089,0.293c0.075,0.063,0.305,0.254,0.305,0.839C19.16,24.326,19.13,24.47,19.07,24.604z" fill="#238BCB"/>
    <polygon points="14,29 14,25.402 13.845,25.37 12.932,27.662 12.23,27.662 11.155,25.297 11,25.33 11,29 10,29 10,22 10.856,22 12.573,25.893 14.14,22 15,22 15,29" fill="#238BCB" stroke-linejoin="miter"/>
  </g>
</svg>
