<?xml version="1.0" encoding="UTF-8"?>
<!DOCTYPE svg PUBLIC "-//W3C//DTD SVG 1.1//EN" "http://www.w3.org/Graphics/SVG/1.1/DTD/svg11.dtd">
<svg version="1.1" id="Layer_1" xmlns="http://www.w3.org/2000/svg" xmlns:xlink="http://www.w3.org/1999/xlink" x="0px" y="0px" width="32px" height="32px" viewBox="0 0 32 32" enable-background="new 0 0 32 32" xml:space="preserve">
  <g id="icon">
    <polygon points="5.5,2.5 5.5,19 24,19 24,24.5 30.5,24.5 30.5,2.5" fill="#FFFFFF" stroke-linejoin="miter"/>
    <path d="M25.015,10.225c-1.441,0,-2.613,-1.172,-2.613,-2.613S23.574,5,25.015,5c1.441,0,2.613,1.172,2.613,2.613S26.455,10.225,25.015,10.225zM25.015,6c-0.889,0,-1.613,0.723,-1.613,1.613s0.723,1.613,1.613,1.613s1.613,-0.723,1.613,-1.613S25.904,6,25.015,6z" fill="#ED8730"/>
    <path d="M24,23.289l0.817,0.817l-0.778,0.778l-0.039,-0.039V23.289zM21.927,12.334l-4.441,4.441l-6.855,-6.855l-5.52,5.52l0.778,0.778l4.742,-4.742L18.156,19h1.556l-1.447,-1.447l3.663,-3.663l8.234,8.234l0.778,-0.778L21.927,12.334z" fill="#78797A"/>
    <polygon points="5,2 5,19 6,19 6,3 30,3 30,24 24,24 24,25 31,25 31,2" fill="#383838" stroke-linejoin="miter"/>
    <rect x="1.5" y="20.5" width="21" height="10" fill="#FFFFFF" stroke="#228BCB" stroke-width="1" stroke-miterlimit="1"/>
    <path d="M12,22h1v7h-1V22zM18,23v-1h-3h-1v1v6h1v-3h2v-1h-2v-2H18zM9.182,28.947c0.206,-0.035,0.405,-0.086,0.593,-0.15c0.186,-0.064,0.367,-0.144,0.538,-0.236c0.163,-0.088,0.324,-0.188,0.479,-0.297l0.212,-0.149v-3.118H8.717v1h1.287v1.588c-0.055,0.034,-0.111,0.066,-0.167,0.096c-0.123,0.066,-0.253,0.124,-0.388,0.17c-0.136,0.047,-0.281,0.084,-0.434,0.109c-0.152,0.026,-0.318,0.039,-0.492,0.039c-0.373,0,-0.707,-0.058,-0.994,-0.172c-0.28,-0.112,-0.51,-0.266,-0.703,-0.473c-0.193,-0.208,-0.345,-0.467,-0.451,-0.769c-0.11,-0.315,-0.166,-0.68,-0.166,-1.085c0,-0.403,0.055,-0.767,0.165,-1.083c0.105,-0.303,0.256,-0.561,0.448,-0.769s0.419,-0.363,0.695,-0.476c0.279,-0.114,0.602,-0.172,0.959,-0.172c0.182,0,0.35,0.011,0.498,0.034c0.141,0.022,0.272,0.054,0.39,0.097c0.114,0.041,0.223,0.095,0.323,0.16c0.108,0.07,0.216,0.154,0.321,0.249l0.674,-0.739c-0.146,-0.133,-0.298,-0.251,-0.453,-0.351c-0.163,-0.105,-0.339,-0.192,-0.523,-0.259c-0.179,-0.065,-0.375,-0.114,-0.581,-0.146c-0.198,-0.03,-0.416,-0.046,-0.649,-0.046c-0.488,0,-0.938,0.083,-1.338,0.247c-0.407,0.167,-0.76,0.41,-1.049,0.722c-0.287,0.31,-0.508,0.687,-0.659,1.121c-0.146,0.421,-0.22,0.896,-0.22,1.41c0,0.518,0.075,0.994,0.223,1.416c0.152,0.434,0.375,0.811,0.663,1.12c0.292,0.313,0.65,0.556,1.065,0.721c0.405,0.161,0.864,0.243,1.364,0.243C8.752,29,8.974,28.982,9.182,28.947z" fill="#238BCB"/>
  </g>
</svg>
