<?xml version="1.0" encoding="UTF-8"?>
<!DOCTYPE svg PUBLIC "-//W3C//DTD SVG 1.1//EN" "http://www.w3.org/Graphics/SVG/1.1/DTD/svg11.dtd">
<svg version="1.1" id="Layer_1" xmlns="http://www.w3.org/2000/svg" xmlns:xlink="http://www.w3.org/1999/xlink" x="0px" y="0px" width="32px" height="32px" viewBox="0 0 32 32" enable-background="new 0 0 32 32" xml:space="preserve">
  <g id="icon">
    <path d="M12.5,5.5v3.414c0.052,0.031,0.103,0.063,0.154,0.096c0.855,0.15,1.657,0.451,2.376,0.875c3.555,0.179,6.391,3.082,6.391,6.626c0,1.841,-0.773,3.567,-2.091,4.803c0.892,0.55,1.719,1.259,2.443,2.098c0.025,0.029,0.049,0.059,0.074,0.088H31.5V5.5H12.5z" fill="#FFFFFF"/>
    <path d="M12,5v3.644c0.225,0.11,0.444,0.233,0.656,0.367c0.115,0.02,0.23,0.042,0.344,0.068V6h18v17h-9.603c0.128,0.134,0.254,0.27,0.376,0.412c0.164,0.191,0.322,0.387,0.473,0.588H32V5H12z" fill="#383838"/>
    <rect x="12.5" y="1.5" width="19" height="4" fill="#92CBEE" stroke="#0964B0" stroke-width="1" stroke-linecap="round" stroke-miterlimit="1"/>
    <polygon points="24.561,13.448 21.803,10.699 22.65,9.849 24.561,11.752 28.249,8.075 29.097,8.925" fill="#17AB4F" stroke-linejoin="miter"/>
    <polygon points="24.561,20.448 21.803,17.699 22.65,16.849 24.561,18.752 28.249,15.075 29.097,15.925" fill="#17AB4F" stroke-linejoin="miter"/>
    <path d="M19.821,16.511c0,2.781,-2.3,5.035,-5.138,5.035s-5.138,-2.254,-5.138,-5.035s2.3,-5.035,5.138,-5.035S19.821,13.73,19.821,16.511zM23,30.987c0,-4.855,-3.729,-9.42,-8.328,-9.42s-8.328,4.565,-8.328,9.42M4.91,29.082H0.668c0,-4.771,3.601,-9.261,8.091,-9.414c0.333,0.604,0.759,1.158,1.269,1.638c-0.897,0.551,-1.729,1.263,-2.456,2.106C6.194,25.01,5.267,27.007,4.91,29.082zM8.739,19.632c-0.512,-0.944,-0.795,-2.011,-0.795,-3.121c0,-2.689,1.634,-5.009,3.976,-6.049c-0.828,-0.56,-1.831,-0.89,-2.914,-0.89c-2.838,0,-5.138,2.254,-5.138,5.035C3.868,17.299,6.026,19.496,8.739,19.632z" fill="#FFFFFF"/>
    <path d="M23.6,30.987h-1.2c0,-4.698,-3.611,-8.82,-7.728,-8.82s-7.728,4.121,-7.728,8.82h-1.2c0,-2.494,0.942,-5.017,2.585,-6.922c1.044,-1.211,2.283,-2.092,3.624,-2.598c-1.79,-0.955,-3.008,-2.818,-3.008,-4.956c0,-3.107,2.574,-5.635,5.738,-5.635c3.164,0,5.738,2.528,5.738,5.635c0,2.141,-1.222,4.007,-3.017,4.96c1.337,0.507,2.571,1.386,3.612,2.593C22.658,25.97,23.6,28.493,23.6,30.987zM14.683,12.076c-2.502,0,-4.538,1.99,-4.538,4.435s2.036,4.435,4.538,4.435c2.502,0,4.538,-1.99,4.538,-4.435S17.185,12.076,14.683,12.076zM9.144,20.287c-0.286,-0.406,-0.523,-0.844,-0.711,-1.303c-2.258,-0.279,-3.947,-2.139,-3.947,-4.377c0,-2.434,2.028,-4.414,4.52,-4.414c0.798,0,1.578,0.208,2.266,0.599c0.419,-0.243,0.866,-0.443,1.336,-0.593C11.59,9.394,10.313,8.95,9.006,8.95c-3.174,0,-5.756,2.538,-5.756,5.657c0,2.065,1.138,3.952,2.976,4.952c-1.329,0.511,-2.567,1.403,-3.587,2.586C0.994,24.054,0.05,26.583,0.05,29.082v0.05h1.235v-0.05c0,-4.687,3.603,-8.798,7.71,-8.798C9.045,20.284,9.094,20.286,9.144,20.287z" fill="#383838"/>
  </g>
</svg>
