<?xml version="1.0" encoding="UTF-8"?>
<!DOCTYPE svg PUBLIC "-//W3C//DTD SVG 1.1//EN" "http://www.w3.org/Graphics/SVG/1.1/DTD/svg11.dtd">
<svg version="1.1" id="Layer_1" xmlns="http://www.w3.org/2000/svg" xmlns:xlink="http://www.w3.org/1999/xlink" x="0px" y="0px" width="32px" height="32px" viewBox="0 0 32 32" enable-background="new 0 0 32 32" xml:space="preserve">
  <g id="icon">
    <path d="M20.191,18.6c0.82,0.325,3.854,-8.751,2.082,-10.2c-1.354,-1.107,-11.7,-2.314,-12.673,-0.1c-1.315,2.994,2.212,11.438,2.372,10.2C9.888,19.501,7.914,21.32,6,23.6c6.951,4.573,13.586,4.583,19.9,0L20.191,18.6z" fill="#FCD8BB"/>
    <path d="M28.4,31c-0.067,-2.634,-0.977,-5.163,-2.381,-7.313C17.6,28.4,12.6,28.1,5.853,23.691C4.434,25.818,3.6,28.357,3.6,31" fill="#92CBEE"/>
    <path d="M19.03,19.16c-0.588,0.591,-2.293,1.13,-3.023,1.13c-0.73,0,-2.348,-0.535,-2.957,-1.13" fill="none" stroke="#AF6E41" stroke-width="1.1" stroke-linecap="round" stroke-miterlimit="1"/>
    <path d="M24.056,21.244c0.677,0.691,1.301,1.456,1.853,2.278M7.91,21.274c-0.722,0.67,-1.371,1.422,-1.934,2.236" fill="none" stroke="#AF6E41" stroke-width="1.1" stroke-linecap="round" stroke-miterlimit="1"/>
    <path d="M3.6,31c0,-2.718,0.882,-5.327,2.377,-7.49c5.993,4.673,13.89,4.687,19.894,0.042c0.013,-0.01,0.025,-0.02,0.038,-0.03c1.466,2.184,2.422,4.776,2.491,7.478" fill="#DFBCD9" stroke="#A0519F" stroke-width="1.1" stroke-miterlimit="1"/>
    <path d="M13.993,6.979c-0.057,0.083,-0.107,0.163,-0.163,0.24c-0.118,0.162,-0.242,0.32,-0.358,0.483c-0.085,0.12,-0.154,0.251,-0.243,0.369c-0.149,0.198,-0.308,0.39,-0.464,0.584c-0.222,0.275,-0.449,0.546,-0.666,0.824c-0.632,0.809,-1.37,1.52,-2.187,2.16c-0.043,0.034,-0.078,0.104,-0.077,0.156c0.038,1.861,0.55,4.421,1.71,5.946c0.377,0.496,0.891,0.962,1.411,1.326c0.099,0.069,0.062,0.164,0.013,0.27c-0.112,0.24,-0.324,0.565,-0.548,0.881c-0.481,0.68,-1.313,1.082,-2.197,1.062c-0.126,-0.003,-0.243,-0.006,-0.343,-0.009c-0.267,-0.008,-0.532,-0.046,-0.799,-0.051c-0.274,-0.006,-0.539,-0.033,-0.803,-0.115c-0.686,-0.213,-1.298,-0.529,-1.743,-1.086c-0.453,-0.567,-0.686,-1.217,-0.777,-1.914c-0.192,-1.462,0.049,-2.852,0.739,-4.182c0.536,-1.034,0.925,-2.124,1.116,-3.265c0.098,-0.589,0.135,-1.188,0.173,-1.783c0.137,-2.136,1.017,-3.935,2.703,-5.368c0.729,-0.62,1.596,-1.014,2.511,-1.321c0.703,-0.236,1.409,-0.469,2.155,-0.54c0.965,-0.091,1.923,-0.052,2.86,0.224c0.807,0.238,1.612,0.482,2.356,0.869c1.505,0.783,2.532,1.972,3.218,3.445c0.407,0.872,0.631,1.786,0.652,2.736c0.04,1.861,0.58,3.595,1.409,5.266c0.751,1.513,0.896,3.09,0.439,4.706c-0.169,0.597,-0.491,1.125,-0.994,1.528c-0.213,0.171,-0.474,0.288,-0.709,0.436c-0.332,0.211,-0.71,0.281,-1.094,0.324c-0.393,0.044,-0.788,0.075,-1.183,0.089c-0.085,0.003,-0.184,0.006,-0.289,0.009c-0.892,0.023,-1.738,-0.38,-2.217,-1.071c-0.236,-0.34,-0.461,-0.695,-0.578,-0.956c-0.031,-0.069,0.028,-0.134,0.091,-0.18c1.608,-1.169,2.431,-2.732,2.861,-4.568c0.223,-0.954,0.263,-2.759,0.188,-3.732c-0.01,-0.127,-0.056,-0.162,-0.185,-0.171c-1.169,-0.079,-2.312,-0.284,-3.41,-0.679c-0.416,-0.15,-0.82,-0.335,-1.218,-0.525c-0.387,-0.185,-0.763,-0.391,-1.135,-0.602c-0.248,-0.14,-0.492,-0.266,-0.729,-0.45c-0.491,-0.381,-1.036,-0.81,-1.38,-1.218C14.043,7.05,14.056,7.029,13.993,6.979z" fill="#F7DA8E" stroke="#E57428" stroke-width="1.1" stroke-linecap="round" stroke-miterlimit="1"/>
  </g>
</svg>
