<?xml version="1.0" encoding="UTF-8"?>
<!DOCTYPE svg PUBLIC "-//W3C//DTD SVG 1.1//EN" "http://www.w3.org/Graphics/SVG/1.1/DTD/svg11.dtd">
<svg version="1.1" id="Layer_1" xmlns="http://www.w3.org/2000/svg" xmlns:xlink="http://www.w3.org/1999/xlink" x="0px" y="0px" width="32px" height="32px" viewBox="0 0 32 32" enable-background="new 0 0 32 32" xml:space="preserve">
  <g id="icon">
    <path d="M13.2,19.5l2.1,11.5h-1.9l-2.2,-3.8l0.6,-2.2l-2,-1l0.7,-3.2L13.2,19.5zM18.9,19.5l-2.1,11.5h1.9l2.2,-3.8l-0.6,-2.2l2,-1l-0.7,-3.2L18.9,19.5z" fill="#FFFFFF"/>
    <path d="M3.75,30.95c0.33,-3.863,1.565,-7.238,4.277,-9.817l2.34,0.7L9.7,24l2,0.9l-0.5,2.3l2.3,3.8L3.75,30.95zM28.5,30.95c-0.33,-3.863,-1.565,-7.238,-4.277,-9.817l-2.34,0.7L22.55,24l-2,0.9l0.5,2.3l-2.3,3.8L28.5,30.95z" fill="#C8C6C4"/>
    <path d="M8.109,21.253C5.491,23.708,3.833,27.25,3.833,31M28.433,31c0,-3.766,-1.672,-7.321,-4.309,-9.777" fill="none" stroke="#383838" stroke-width="1.1" stroke-miterlimit="1"/>
    <path d="M19.2,20.3c-1.379,-0.527,-1.637,-1.158,-3.2,-1.158c-1.577,0,-1.411,0.523,-2.8,1.058c0.7,3,2.1,10.8,2.1,10.8h1.7C17,31,18.118,21.958,19.2,20.3z" fill="#FCD8BB"/>
    <path d="M12.851,31l-2.253,-3.7l0.598,-2.097l-2.09,-0.839l0.991,-3.306l1.056,0.305l-0.722,2.408l2.079,0.835l-0.728,2.552L14.1,31H12.851zM19.289,31l2.253,-3.7l-0.598,-2.097l2.09,-0.839l-0.991,-3.306l-1.056,0.305l0.722,2.408l-2.079,0.835l0.728,2.552L18.1,31H19.289zM17.5,31l1.945,-10.708L18.359,20.1L16.4,31H17.5zM15.8,31l-2.019,-10.9l-1.086,0.192L14.7,31H15.8z" fill="#78797A"/>
    <path d="M20.191,18.6c-2.927,3.033,-5.148,3.046,-8.219,-0.1c-1.625,-2.375,-2.161,-5.999,-2.082,-10.2c4.822,4,9.425,-1.8,12.384,0.1C22.483,12.648,21.798,16.057,20.191,18.6z" fill="#FCD8BB"/>
    <path d="M20.2,19.018c-0.409,0.461,-0.619,0.849,-1.604,1.385c-0.698,0.379,-1.643,1.013,-2.66,1.013c-1.017,0,-1.934,-0.633,-2.631,-1.013c-0.985,-0.536,-1.195,-0.924,-1.604,-1.385" fill="none" stroke="#AF6E41" stroke-width="1.1" stroke-linecap="round" stroke-miterlimit="1"/>
    <path d="M26.603,19.494c-1.208,-0.775,-1.63,-2,-1.859,-3.273c-0.245,-1.36,-0.32,-2.756,-0.342,-4.137c-0.032,-1.991,-0.139,-3.953,-0.837,-5.866c-1.287,-3.527,-4.962,-4.795,-7.856,-4.598c-1.009,0.069,-1.926,0.438,-2.727,1.038c-0.2,0.149,-0.489,0.29,-0.732,0.283c-2.429,-0.071,-3.881,1.25,-4.658,2.997c-0.516,1.161,-0.785,2.385,-0.813,3.625c-0.032,1.433,0.064,2.87,0.137,4.303c0.075,1.485,-0.039,2.935,-0.81,4.278c-0.36,0.627,-0.69,0.994,-1.275,1.378c-0.371,0.244,-0.377,0.756,-0.007,1.003c0.928,0.617,2.525,1.062,4.821,1.341h0.603c1.036,0,1.868,-0.794,1.838,-1.753c-0.014,-0.453,-0.059,-0.792,-0.137,-0.893c-1.816,-2.351,-2.431,-6.632,-2.431,-9.513c0,-2.126,0.557,1.014,4.039,1.014c2.111,0,8.655,-3.394,8.655,-0.507c0,3.987,-0.842,7.224,-2.32,9.006c-0.082,0.099,-0.123,0.449,-0.13,0.917c-0.015,0.95,0.812,1.73,1.838,1.73h1.109c1.388,-0.191,2.712,-0.575,3.91,-1.364C26.995,20.256,26.982,19.737,26.603,19.494z" fill="#F7DA8E" stroke="#E57428" stroke-width="1.1" stroke-linecap="round" stroke-miterlimit="1"/>
  </g>
</svg>
