<?xml version="1.0" encoding="UTF-8"?>
<!DOCTYPE svg PUBLIC "-//W3C//DTD SVG 1.1//EN" "http://www.w3.org/Graphics/SVG/1.1/DTD/svg11.dtd">
<svg version="1.1" id="Layer_1" xmlns="http://www.w3.org/2000/svg" xmlns:xlink="http://www.w3.org/1999/xlink" x="0px" y="0px" width="32px" height="32px" viewBox="0 0 32 32" enable-background="new 0 0 32 32" xml:space="preserve">
  <g id="icon">
    <path d="M1.708,31c0,-4.634,2.91,-8.885,6.909,-10.345l5.749,0.028C18.326,22.17,21.2,26.395,21.2,31M14.57,20.63c1.349,-0.051,2.649,-0.242,3.773,-1.05c0.234,-0.168,0.236,-0.521,-0.001,-0.685c-0.765,-0.531,-1.032,-1.374,-1.176,-2.25c-0.154,-0.932,-0.201,-1.889,-0.215,-2.836c-0.02,-1.365,-0.087,-2.71,-0.525,-4.022c-0.808,-2.418,-3.115,-3.287,-4.931,-3.152c-0.633,0.047,-1.209,0.301,-1.712,0.712c-0.125,0.102,-0.307,0.199,-0.459,0.194c-1.525,-0.049,-2.436,0.857,-2.924,2.055c-0.324,0.796,-0.493,1.635,-0.51,2.485c-0.02,0.982,0.04,1.967,0.086,2.95c0.047,1.018,-0.024,2.012,-0.509,2.933c-0.226,0.43,-0.434,0.682,-0.801,0.945c-0.235,0.169,-0.238,0.517,-0.003,0.687c0.679,0.493,1.927,0.826,3.776,1.005C10.494,20.827,12.537,20.832,14.57,20.63z" fill="#FFFFFF" stroke="#A0519F" stroke-width="1.2" stroke-miterlimit="1"/>
    <g>
      <path d="M18.86,14.19c0.017,0.646,0.06,1.408,0.181,2.146c0.136,0.826,0.31,0.946,0.384,0.998c0.616,0.427,0.988,1.131,0.994,1.883c0.006,0.754,-0.356,1.467,-0.968,1.907c-0.145,0.104,-0.293,0.202,-0.445,0.293c0.966,0.919,1.799,2.004,2.458,3.213c0.26,0.477,0.49,0.968,0.689,1.47H30.4c0,-6.014,-4.775,-12,-10.358,-12C19.643,14.1,19.249,14.131,18.86,14.19z" fill="#FFFFFF"/>
      <path d="M18.228,9.185c0.536,1.604,0.602,3.15,0.623,4.596c0.001,0.055,0.002,0.113,0.003,0.17c0.372,0.069,0.755,0.107,1.147,0.107c3.447,0,6.241,-2.789,6.241,-6.229c0,-3.44,-2.794,-6.229,-6.241,-6.229c-2.496,0,-4.649,1.463,-5.647,3.577C15.964,5.78,17.506,7.026,18.228,9.185z" fill="#FFFFFF"/>
    </g>
    <path d="M27.774,17.458c-1.384,-1.645,-3.069,-2.832,-4.851,-3.456c2.314,-1.096,3.919,-3.452,3.919,-6.174c0,-3.765,-3.069,-6.829,-6.841,-6.829c-2.758,0,-5.138,1.639,-6.219,3.991c0.377,0.106,0.756,0.246,1.126,0.422C15.815,3.515,17.757,2.2,20.001,2.2c3.11,0,5.641,2.525,5.641,5.629s-2.53,5.629,-5.641,5.629c-0.397,0,-0.784,-0.042,-1.158,-0.12c0.004,0.148,0.006,0.296,0.009,0.443c0.004,0.305,0.013,0.651,0.033,1.015c0.383,-0.063,0.77,-0.096,1.158,-0.096c2.442,0,4.925,1.287,6.814,3.531C28.727,20.455,29.8,23.323,29.8,26.1h1.2C31,23.045,29.824,19.896,27.774,17.458z" fill="#228BCB"/>
  </g>
</svg>
