<?xml version="1.0" encoding="UTF-8"?>
<!DOCTYPE svg PUBLIC "-//W3C//DTD SVG 1.1//EN" "http://www.w3.org/Graphics/SVG/1.1/DTD/svg11.dtd">
<svg version="1.1" id="Layer_1" xmlns="http://www.w3.org/2000/svg" xmlns:xlink="http://www.w3.org/1999/xlink" x="0px" y="0px" width="32px" height="32px" viewBox="0 0 32 32" enable-background="new 0 0 32 32" xml:space="preserve">
  <g id="icon">
    <path d="M28.95,1.5h-18.9C9.197,1.5,8.5,2.197,8.5,3.05v5.069c0.485,-0.109,0.988,-0.169,1.506,-0.169c1.528,0,3.028,0.52,4.222,1.465l0.646,0.511c0.265,-0.031,0.535,-0.049,0.808,-0.049c3.715,0,6.738,2.977,6.738,6.635c0,0.543,-0.069,1.075,-0.198,1.589h6.727c0.853,0,1.55,-0.698,1.55,-1.55v-13.5C30.5,2.197,29.803,1.5,28.95,1.5z" fill="#FFFFFF"/>
    <path d="M28.95,1.5h-18.9C9.197,1.5,8.5,2.197,8.5,3.05v5.069c0.485,-0.109,0.988,-0.169,1.506,-0.169c1.528,0,3.028,0.52,4.222,1.465l0.646,0.511c0.265,-0.031,0.535,-0.049,0.808,-0.049c3.715,0,6.738,2.977,6.738,6.635c0,0.543,-0.069,1.075,-0.198,1.589h6.727c0.853,0,1.55,-0.698,1.55,-1.55v-13.5C30.5,2.197,29.803,1.5,28.95,1.5z" fill="#C8C6C4" opacity="0.4"/>
    <path d="M28.95,1h-18.9C8.92,1,8,1.92,8,3.05v5.2c0.324,-0.099,0.658,-0.175,1,-0.225V3.05c0,-0.579,0.471,-1.05,1.05,-1.05h18.9c0.579,0,1.05,0.471,1.05,1.05v13.5c0,0.579,-0.471,1.05,-1.05,1.05h-6.622c-0.058,0.341,-0.142,0.675,-0.252,1h6.873c1.13,0,2.05,-0.92,2.05,-2.05v-13.5C31,1.92,30.08,1,28.95,1z" fill="#383838"/>
    <rect x="8.5" y="4.5" width="22" height="3" fill="#78797A"/>
    <path d="M8,4v4h1.192c0.267,-0.032,0.538,-0.05,0.814,-0.05c0.273,0,0.545,0.017,0.815,0.05H31V4H8zM30,7H9V5h21V7z" fill="#383838"/>
    <path d="M15.5,9.879V9h3.1v1h-1.624c-0.419,-0.08,-0.851,-0.124,-1.293,-0.124C15.622,9.876,15.561,9.877,15.5,9.879zM14,9.242V9h-0.361C13.761,9.077,13.882,9.157,14,9.242z" fill="#383838"/>
    <path d="M22.388,15.86c0.039,0.002,0.078,0.003,0.117,0.003c0.6,0,1.155,-0.197,1.601,-0.531v-4.247c-0.446,-0.333,-1.001,-0.531,-1.601,-0.531c-0.909,0,-1.711,0.452,-2.193,1.142C21.459,12.766,22.226,14.227,22.388,15.86z" fill="#F7BFBF"/>
    <path d="M22.505,16.363c-0.03,0,-0.059,-0.001,-0.088,-0.002c-0.008,-0.343,-0.042,-0.679,-0.101,-1.006c0.062,0.005,0.125,0.009,0.189,0.009c0.474,0,0.924,-0.149,1.301,-0.431c0.221,-0.165,0.534,-0.12,0.7,0.101c0.165,0.221,0.12,0.534,-0.101,0.7C23.854,16.145,23.197,16.363,22.505,16.363zM20.673,12.058c0.385,-0.602,1.062,-1.003,1.832,-1.003c0.474,0,0.924,0.149,1.301,0.431c0.221,0.165,0.534,0.12,0.7,-0.101c0.165,-0.221,0.12,-0.534,-0.101,-0.7c-0.552,-0.412,-1.209,-0.63,-1.9,-0.63c-1.058,0,-1.995,0.519,-2.571,1.314C20.197,11.58,20.445,11.81,20.673,12.058z" fill="#DB2E2A"/>
    <path d="M25.555,10.555c-0.6,0,-1.155,0.197,-1.601,0.531c-0.648,0.484,-1.067,1.255,-1.067,2.123s0.419,1.64,1.067,2.124c0.446,0.333,1.001,0.531,1.601,0.531c1.474,0,2.669,-1.189,2.669,-2.655C28.224,11.743,27.029,10.555,25.555,10.555z" fill="#F7DA8E"/>
    <path d="M25.555,10.055c-0.691,0,-1.348,0.218,-1.9,0.63c-0.806,0.602,-1.268,1.521,-1.268,2.523c0,0.988,0.474,1.932,1.268,2.525c0.552,0.412,1.209,0.63,1.9,0.63c1.747,0,3.169,-1.415,3.169,-3.155C28.724,11.469,27.302,10.055,25.555,10.055zM25.555,15.363c-0.474,0,-0.924,-0.149,-1.302,-0.431c-0.55,-0.411,-0.866,-1.039,-0.866,-1.723c0,-0.683,0.316,-1.311,0.866,-1.722l0,0c0.377,-0.282,0.827,-0.431,1.301,-0.431c1.196,0,2.169,0.966,2.169,2.153C27.724,14.396,26.751,15.363,25.555,15.363z" fill="#E57428"/>
    <path d="M20.821,16.511c0,2.781,-2.3,5.035,-5.138,5.035s-5.138,-2.254,-5.138,-5.035s2.3,-5.035,5.138,-5.035S20.821,13.73,20.821,16.511zM24,30.987c0,-4.855,-3.729,-9.42,-8.328,-9.42s-8.328,4.565,-8.328,9.42M5.91,29.082H1.668c0,-4.771,3.601,-9.261,8.091,-9.414c0.333,0.604,0.759,1.158,1.269,1.638c-0.897,0.551,-1.729,1.263,-2.456,2.106C7.194,25.01,6.267,27.007,5.91,29.082zM9.739,19.632c-0.512,-0.944,-0.795,-2.011,-0.795,-3.121c0,-2.689,1.634,-5.009,3.976,-6.049c-0.828,-0.56,-1.831,-0.89,-2.914,-0.89c-2.838,0,-5.138,2.254,-5.138,5.035C4.868,17.299,7.026,19.496,9.739,19.632z" fill="#92CBEE"/>
    <path d="M24.6,30.987h-1.2c0,-4.698,-3.611,-8.82,-7.728,-8.82s-7.728,4.121,-7.728,8.82h-1.2c0,-2.494,0.942,-5.017,2.585,-6.922c1.044,-1.211,2.283,-2.092,3.624,-2.598c-1.79,-0.955,-3.008,-2.818,-3.008,-4.956c0,-3.107,2.574,-5.635,5.738,-5.635c3.164,0,5.738,2.528,5.738,5.635c0,2.141,-1.222,4.007,-3.017,4.96c1.337,0.507,2.571,1.386,3.612,2.593C23.658,25.97,24.6,28.493,24.6,30.987zM15.683,12.076c-2.502,0,-4.538,1.99,-4.538,4.435s2.036,4.435,4.538,4.435c2.502,0,4.538,-1.99,4.538,-4.435S18.185,12.076,15.683,12.076zM10.144,20.287c-0.286,-0.406,-0.523,-0.844,-0.711,-1.303c-2.258,-0.279,-3.947,-2.139,-3.947,-4.377c0,-2.434,2.028,-4.414,4.52,-4.414c0.798,0,1.578,0.208,2.266,0.599c0.419,-0.243,0.866,-0.443,1.336,-0.593c-1.019,-0.806,-2.295,-1.249,-3.602,-1.249c-3.174,0,-5.756,2.538,-5.756,5.657c0,2.065,1.138,3.952,2.976,4.952c-1.329,0.511,-2.567,1.403,-3.587,2.586c-1.646,1.909,-2.59,4.438,-2.59,6.938v0.05h1.235v-0.05c0,-4.687,3.603,-8.798,7.71,-8.798C10.045,20.284,10.094,20.286,10.144,20.287z" fill="#0964B0"/>
  </g>
</svg>
