<?xml version="1.0" encoding="UTF-8"?>
<!DOCTYPE svg PUBLIC "-//W3C//DTD SVG 1.1//EN" "http://www.w3.org/Graphics/SVG/1.1/DTD/svg11.dtd">
<svg version="1.1" id="Layer_1" xmlns="http://www.w3.org/2000/svg" xmlns:xlink="http://www.w3.org/1999/xlink" x="0px" y="0px" width="32px" height="32px" viewBox="0 0 32 32" enable-background="new 0 0 32 32" xml:space="preserve">
  <g id="icon">
    <path d="M16.009,1.5v4.881M20.978,7.668l1.601,-4.641M28.8,6.462L25.608,10.3M11.146,7.668L9.545,3.027M3.324,6.462L6.516,10.3" fill="none" stroke="#E57428" stroke-width="1" stroke-linecap="round" stroke-miterlimit="1"/>
    <path d="M16,10.6c3.59,0,6.5,2.897,6.5,6.47s-2.91,6.47,-6.5,6.47s-6.5,-2.897,-6.5,-6.47S12.41,10.6,16,10.6zM16.219,23.756L17.98,30l1.883,-1.828l2.631,-0.031l-3.015,-5.355M12.517,22.786l-3.015,5.355l2.631,0.031L14.016,30l1.762,-6.244" fill="#F7BFBF" stroke="#DB2E2A" stroke-width="1" stroke-miterlimit="1"/>
  </g>
</svg>
