<?xml version="1.0" encoding="UTF-8"?>
<!DOCTYPE svg PUBLIC "-//W3C//DTD SVG 1.1//EN" "http://www.w3.org/Graphics/SVG/1.1/DTD/svg11.dtd">
<svg version="1.1" id="Layer_1" xmlns="http://www.w3.org/2000/svg" xmlns:xlink="http://www.w3.org/1999/xlink" x="0px" y="0px" width="32px" height="32px" viewBox="0 0 32 32" enable-background="new 0 0 32 32" xml:space="preserve">
  <g id="icon">
    <path d="M18.487,23.181c0.363,0.367,0.74,0.698,1.13,0.993c0.39,0.295,0.812,0.538,1.266,0.732c0.455,0.193,0.954,0.34,1.497,0.441c0.543,0.1,1.155,0.14,1.835,0.119l0.321,-0.01c0.942,-0.056,1.779,-0.245,2.511,-0.565c0.733,-0.32,1.347,-0.738,1.844,-1.254c0.497,-0.516,0.867,-1.106,1.111,-1.772c0.244,-0.665,0.352,-1.377,0.324,-2.133c-0.029,-0.792,-0.216,-1.443,-0.56,-1.95c-0.344,-0.508,-0.787,-0.927,-1.329,-1.257c-0.542,-0.33,-1.152,-0.598,-1.831,-0.802c-0.678,-0.204,-1.366,-0.399,-2.064,-0.585l-0.309,-0.085c-0.619,-0.17,-1.216,-0.354,-1.793,-0.553c-0.576,-0.199,-1.089,-0.453,-1.538,-0.764c-0.449,-0.311,-0.813,-0.696,-1.092,-1.156c-0.279,-0.46,-0.431,-1.028,-0.455,-1.703c-0.02,-0.558,0.07,-1.1,0.269,-1.625c0.2,-0.525,0.509,-0.992,0.927,-1.401c0.418,-0.41,0.936,-0.744,1.554,-1.002c0.618,-0.258,1.335,-0.409,2.15,-0.452l0.306,-0.01c0.778,-0.006,1.43,0.075,1.957,0.244c0.526,0.168,0.961,0.356,1.304,0.561c0.343,0.206,0.605,0.394,0.786,0.564c0.181,0.17,0.407,0.392,0.407,0.392M24.6,5v22.1" fill="none" stroke="#383838" stroke-width="1.2" stroke-miterlimit="1"/>
    <path d="M15.426,24.151c-0.353,0.421,-0.731,0.806,-1.136,1.154c-0.405,0.348,-0.847,0.647,-1.328,0.897c-0.481,0.25,-1.01,0.446,-1.587,0.588c-0.577,0.142,-1.214,0.213,-1.911,0.213c-1.13,0,-2.172,-0.243,-3.125,-0.727c-0.954,-0.485,-1.779,-1.183,-2.476,-2.094c-0.697,-0.911,-1.24,-2.016,-1.629,-3.314c-0.389,-1.298,-0.583,-2.76,-0.583,-4.387c0,-1.567,0.194,-2.998,0.583,-4.291c0.389,-1.293,0.938,-2.403,1.647,-3.329s1.559,-1.641,2.548,-2.146c0.99,-0.505,2.081,-0.757,3.275,-0.757c0.553,0,1.074,0.051,1.563,0.154c0.489,0.103,0.951,0.257,1.388,0.463c0.437,0.206,0.855,0.458,1.256,0.757c0.401,0.299,0.793,0.644,1.178,1.036" fill="none" stroke="#383838" stroke-width="1.2" stroke-miterlimit="1"/>
  </g>
</svg>
