<?xml version="1.0" encoding="UTF-8"?>
<!DOCTYPE svg PUBLIC "-//W3C//DTD SVG 1.1//EN" "http://www.w3.org/Graphics/SVG/1.1/DTD/svg11.dtd">
<svg version="1.1" id="Layer_1" xmlns="http://www.w3.org/2000/svg" xmlns:xlink="http://www.w3.org/1999/xlink" x="0px" y="0px" width="32px" height="32px" viewBox="0 0 32 32" enable-background="new 0 0 32 32" xml:space="preserve">
  <g id="icon">
    <path d="M17.657,23.162c0.391,0.395,0.796,0.751,1.216,1.068c0.42,0.317,0.874,0.579,1.363,0.787c0.489,0.208,1.026,0.366,1.611,0.474c0.585,0.108,1.243,0.151,1.975,0.128l0.345,-0.011c1.013,-0.061,1.914,-0.263,2.702,-0.608c0.788,-0.344,1.449,-0.794,1.984,-1.35c0.535,-0.555,0.933,-1.191,1.195,-1.907c0.262,-0.716,0.378,-1.481,0.349,-2.295c-0.031,-0.853,-0.232,-1.552,-0.602,-2.099c-0.37,-0.546,-0.847,-0.997,-1.43,-1.353c-0.583,-0.355,-1.24,-0.643,-1.97,-0.863c-0.73,-0.22,-1.47,-0.43,-2.22,-0.63l-0.333,-0.091c-0.666,-0.183,-1.309,-0.381,-1.929,-0.595c-0.62,-0.214,-1.172,-0.487,-1.654,-0.822c-0.483,-0.334,-0.875,-0.749,-1.175,-1.244c-0.3,-0.495,-0.464,-1.106,-0.49,-1.833c-0.022,-0.601,0.075,-1.183,0.29,-1.748c0.215,-0.565,0.547,-1.067,0.997,-1.508c0.45,-0.441,1.007,-0.8,1.672,-1.078c0.665,-0.278,1.436,-0.44,2.313,-0.487l0.329,-0.01c0.837,-0.006,1.539,0.081,2.105,0.262c0.566,0.181,1.034,0.383,1.403,0.604c0.369,0.221,0.651,0.424,0.846,0.607c0.195,0.183,0.438,0.422,0.438,0.422M24.2,3.6v23.8" fill="none" stroke="#383838" stroke-width="1.2" stroke-miterlimit="1"/>
    <path d="M1.6,15.9h4.484c1.092,0.103,2.075,-0.033,2.949,-0.306c0.874,-0.272,1.622,-0.661,2.242,-1.167c0.62,-0.506,1.097,-1.122,1.431,-1.85c0.334,-0.728,0.501,-1.553,0.501,-2.476c0,-1.9,-0.588,-3.292,-1.765,-4.176C10.265,5.042,8.574,4.6,6.37,4.6H1.6V15.9zM1.6,28.3V16.1M6.516,16.051l7.642,11.819" fill="none" stroke="#383838" stroke-width="1.2" stroke-miterlimit="1"/>
  </g>
</svg>
