<?xml version="1.0" encoding="UTF-8"?>
<!DOCTYPE svg PUBLIC "-//W3C//DTD SVG 1.1//EN" "http://www.w3.org/Graphics/SVG/1.1/DTD/svg11.dtd">
<svg version="1.1" id="Layer_1" xmlns="http://www.w3.org/2000/svg" xmlns:xlink="http://www.w3.org/1999/xlink" x="0px" y="0px" width="32px" height="32px" viewBox="0 0 32 32" enable-background="new 0 0 32 32" xml:space="preserve">
  <g id="icon">
    <polygon points="8.5,2.5 8.5,15.9 16.1,15.9 16.1,25.5 30.5,25.5 30.5,2.5" fill="#FFFFFF" stroke-linejoin="miter"/>
    <polygon points="8,2 8,15.9 9,15.9 9,3 30,3 30,25 16.1,25 16.1,26 31,26 31,2" fill="#383838" stroke-linejoin="miter"/>
    <rect x="8.5" y="1.5" width="22" height="8" fill="#92CBEE" stroke="#0964B0" stroke-width="1" stroke-miterlimit="1"/>
    <path d="M16,12h-5v3h5V12zM15,14h-3v-1h3V14zM23,12v3h5v-3H23zM27,14h-3v-1h3V14zM17,23h5v-3h-5V23zM18,21h3v1h-3V21zM17,15h5v-3h-5V15zM18,13h3v1h-3V13zM17,19h5v-3h-5V19zM18,17h3v1h-3V17z" fill="#383838"/>
    <rect x="23.5" y="16.5" width="4" height="6" fill="#C8C6C4" stroke="#383838" stroke-width="1" stroke-miterlimit="1"/>
    <path d="M7.348,20.592c0,0.508,-0.065,0.948,-0.194,1.32c-0.129,0.372,-0.303,0.68,-0.521,0.922c-0.218,0.243,-0.474,0.423,-0.767,0.542c-0.293,0.118,-0.603,0.178,-0.931,0.178c-0.333,0,-0.646,-0.059,-0.939,-0.178c-0.293,-0.118,-0.549,-0.299,-0.767,-0.542c-0.218,-0.243,-0.391,-0.55,-0.517,-0.922c-0.126,-0.372,-0.19,-0.812,-0.19,-1.32c0,-0.513,0.063,-0.956,0.19,-1.329c0.126,-0.372,0.299,-0.681,0.517,-0.927c0.218,-0.245,0.474,-0.427,0.767,-0.546c0.293,-0.118,0.606,-0.178,0.939,-0.178c0.327,0,0.638,0.059,0.931,0.178c0.293,0.118,0.549,0.3,0.767,0.546c0.218,0.245,0.392,0.554,0.521,0.927C7.284,19.636,7.348,20.079,7.348,20.592zM14.433,27.532c0,0.509,-0.066,0.95,-0.199,1.323c-0.133,0.373,-0.311,0.682,-0.535,0.925c-0.224,0.243,-0.487,0.424,-0.787,0.543c-0.301,0.119,-0.619,0.178,-0.956,0.178c-0.342,0,-0.664,-0.059,-0.964,-0.178c-0.301,-0.119,-0.563,-0.3,-0.787,-0.543c-0.224,-0.243,-0.401,-0.551,-0.531,-0.925c-0.13,-0.373,-0.195,-0.814,-0.195,-1.323c0,-0.515,0.065,-0.959,0.195,-1.332c0.13,-0.373,0.307,-0.683,0.531,-0.929c0.224,-0.246,0.487,-0.428,0.787,-0.547c0.301,-0.119,0.622,-0.178,0.964,-0.178c0.336,0,0.655,0.059,0.956,0.178c0.301,0.119,0.563,0.301,0.787,0.547c0.224,0.246,0.403,0.556,0.535,0.929C14.366,26.574,14.433,27.018,14.433,27.532zM13.241,17.4L3.663,30.7" fill="none" stroke="#009949" stroke-width="1.1" stroke-miterlimit="1"/>
    <path d="M26.767,7.5h-0.533c-0.405,0,-0.733,-0.328,-0.733,-0.733V4.233c0,-0.405,0.328,-0.733,0.733,-0.733h0.533c0.405,0,0.733,0.328,0.733,0.733v2.533C27.5,7.172,27.172,7.5,26.767,7.5zM23.5,6.767V4.233c0,-0.405,-0.328,-0.733,-0.733,-0.733h-0.533c-0.405,0,-0.733,0.328,-0.733,0.733v2.533c0,0.405,0.328,0.733,0.733,0.733h0.533C23.172,7.5,23.5,7.172,23.5,6.767zM17.5,6.767V4.233c0,-0.405,-0.328,-0.733,-0.733,-0.733h-0.533c-0.405,0,-0.733,0.328,-0.733,0.733v2.533c0,0.405,0.328,0.733,0.733,0.733h0.533C17.172,7.5,17.5,7.172,17.5,6.767zM19,7.5h1" fill="#92CBEE" stroke="#0964B0" stroke-width="1" stroke-miterlimit="1"/>
    <path d="M15,14h-3v-1h3V14zM21,13h-3v1h3V13zM27,13h-3v1h3V13zM21,17h-3v1h3V17zM21,21h-3v1h3V21z" fill="#C8C6C4"/>
  </g>
</svg>
