<?xml version="1.0" encoding="UTF-8"?>
<!DOCTYPE svg PUBLIC "-//W3C//DTD SVG 1.1//EN" "http://www.w3.org/Graphics/SVG/1.1/DTD/svg11.dtd">
<svg version="1.1" id="Layer_1" xmlns="http://www.w3.org/2000/svg" xmlns:xlink="http://www.w3.org/1999/xlink" x="0px" y="0px" width="32px" height="32px" viewBox="0 0 32 32" enable-background="new 0 0 32 32" xml:space="preserve">
  <g id="icon">
    <path d="M11.958,9.453c0,0,-0.393,-0.484,-0.745,-0.872c-0.43,-0.47,-0.894,-0.94,-1.313,-1.447c-0.71,-0.86,-1.438,-1.522,-2.061,-2.441c-0.263,-0.387,-0.37,-0.838,-0.388,-1.318c-0.029,-0.789,0.611,-1.397,1.391,-1.262c0.79,0.136,1.565,0.425,2.31,0.734c0.611,0.254,1.167,0.635,1.743,0.957c0.437,-0.479,0.843,-0.986,1.314,-1.427c0.969,-0.909,1.664,-0.901,2.626,0.021c0.455,0.436,0.855,0.928,1.242,1.352c0.992,-0.477,1.976,-0.974,2.984,-1.421c0.333,-0.148,0.724,-0.214,1.093,-0.231c0.932,-0.044,1.641,0.698,1.415,1.591c-0.169,0.669,-0.464,1.364,-0.893,1.9c-0.792,0.988,-1.76,1.744,-2.727,2.78c-0.075,0.08,-0.162,0.148,-0.345,0.311c-0.478,0.384,-0.772,0.675,-0.772,0.675s0.85,0.896,0.975,1.032c2.076,2.263,4.174,4.777,5.819,7.372c0.659,1.039,1.329,2.101,1.447,3.351c0.185,1.97,-0.522,3.698,-1.792,5.17c-2.305,2.67,-5.426,3.912,-8.928,4.097c-3.006,0.159,-5.918,-0.464,-8.437,-2.14c-2.138,-1.422,-3.579,-3.316,-3.962,-5.902c-0.155,-1.046,0.044,-2.01,0.508,-2.951c1.01,-2.047,2.393,-3.844,3.845,-5.59c0.933,-1.122,2.016,-2.488,2.979,-3.586C11.376,10.102,11.958,9.453,11.958,9.453z" fill="#FFFFFF" stroke="#383838" stroke-width="1.1" stroke-miterlimit="1"/>
    <line x1="8.5" y1="9.5" x2="22.5" y2="9.5" fill="#FFFFFF" stroke="#ED8730" stroke-width="1" stroke-miterlimit="1"/>
    <path d="M11.806,21.494c0.069,0.692,0.216,1.167,0.442,1.696c0.226,0.529,0.524,0.972,0.893,1.328c0.369,0.356,0.803,0.625,1.301,0.808c0.498,0.183,1.048,0.274,1.649,0.274c0.395,0,0.746,-0.033,1.052,-0.099c0.306,-0.066,0.577,-0.149,0.812,-0.249c0.235,-0.1,0.435,-0.209,0.601,-0.326c0.166,-0.117,0.308,-0.225,0.425,-0.325c0.117,-0.1,0.21,-0.183,0.279,-0.249M11.798,19.544c-0.012,0.132,-0.02,0.411,-0.026,0.548c-0.006,0.137,-0.009,0.276,-0.009,0.417c0,0.244,0.009,0.614,0.026,0.838M19.1,16.392c-0.063,-0.056,-0.147,-0.125,-0.253,-0.208c-0.106,-0.083,-0.238,-0.173,-0.395,-0.271c-0.158,-0.097,-0.347,-0.188,-0.567,-0.271c-0.221,-0.083,-0.477,-0.152,-0.769,-0.208c-0.292,-0.056,-0.621,-0.084,-0.988,-0.084c-0.601,0,-1.15,0.089,-1.645,0.267c-0.495,0.178,-0.928,0.441,-1.297,0.79c-0.369,0.349,-0.672,0.779,-0.906,1.291c-0.235,0.512,-0.39,1.037,-0.464,1.7M10.294,19.185h6.697M9.876,21.75h6.802" fill="none" stroke="#ED8730" stroke-width="1.1" stroke-miterlimit="1"/>
  </g>
</svg>
