<?xml version="1.0" encoding="UTF-8"?>
<!DOCTYPE svg PUBLIC "-//W3C//DTD SVG 1.1//EN" "http://www.w3.org/Graphics/SVG/1.1/DTD/svg11.dtd">
<svg version="1.1" id="Layer_1" xmlns="http://www.w3.org/2000/svg" xmlns:xlink="http://www.w3.org/1999/xlink" x="0px" y="0px" width="32px" height="32px" viewBox="0 0 32 32" enable-background="new 0 0 32 32" xml:space="preserve">
  <g id="icon">
    <path d="M6.5,6.5v7.5h9.283c0.672,0,1.217,0.545,1.217,1.217V26.5h13.5V6.5H6.5z" fill="#FFFFFF"/>
    <polygon points="6,6 6,14 7,14 7,7 30,7 30,26 17,26 17,27 31,27 31,6" fill="#383838" stroke-linejoin="miter"/>
    <rect x="6.5" y="1.5" width="24" height="5" fill="#FFFFFF"/>
    <path d="M6,1v6h25V1H6zM30,6H7V2h23V6z" fill="#238BCB"/>
    <path d="M30,12v-1h-5V7h-1v4h-5V7h-1v4h-5V7h-1v4H7v1h5v2h1v-2h5v4h-1v1h1v4h-1v1h1v4h1v-4h5v4h1v-4h5v-1h-5v-4h5v-1h-5v-4H30zM24,21h-5v-4h5V21zM24,16h-5v-4h5V16z" fill="#787979" opacity="0.6"/>
    <path d="M7.145,19.148c0,0.58,-0.075,1.083,-0.226,1.509c-0.151,0.426,-0.353,0.777,-0.607,1.054c-0.254,0.277,-0.552,0.484,-0.894,0.619c-0.341,0.135,-0.703,0.203,-1.084,0.203c-0.388,0,-0.753,-0.068,-1.095,-0.203c-0.341,-0.135,-0.639,-0.342,-0.894,-0.619c-0.254,-0.277,-0.455,-0.629,-0.602,-1.054c-0.147,-0.426,-0.221,-0.928,-0.221,-1.509c0,-0.587,0.074,-1.093,0.221,-1.518c0.147,-0.426,0.348,-0.779,0.602,-1.059c0.254,-0.28,0.552,-0.488,0.894,-0.624c0.341,-0.135,0.706,-0.203,1.095,-0.203c0.382,0,0.743,0.068,1.084,0.203c0.341,0.135,0.639,0.343,0.894,0.624c0.254,0.28,0.457,0.633,0.607,1.059C7.07,18.055,7.145,18.561,7.145,19.148zM15.4,27.08c0,0.582,-0.077,1.086,-0.232,1.512s-0.363,0.779,-0.624,1.057c-0.261,0.278,-0.567,0.485,-0.917,0.62c-0.351,0.136,-0.722,0.204,-1.113,0.204c-0.399,0,-0.773,-0.068,-1.124,-0.204c-0.35,-0.136,-0.656,-0.343,-0.917,-0.62c-0.261,-0.278,-0.467,-0.63,-0.619,-1.057c-0.151,-0.427,-0.227,-0.931,-0.227,-1.512c0,-0.588,0.076,-1.096,0.227,-1.522c0.151,-0.427,0.357,-0.78,0.619,-1.062c0.261,-0.281,0.567,-0.49,0.917,-0.625c0.351,-0.136,0.725,-0.204,1.124,-0.204c0.392,0,0.763,0.068,1.113,0.204c0.35,0.136,0.656,0.344,0.917,0.625c0.261,0.281,0.469,0.635,0.624,1.062C15.323,25.984,15.4,26.492,15.4,27.08zM14.011,15.5L2.851,30.7" fill="none" stroke="#17AB4F" stroke-width="1.2" stroke-miterlimit="1"/>
  </g>
</svg>
