<?xml version="1.0" encoding="UTF-8"?>
<!DOCTYPE svg PUBLIC "-//W3C//DTD SVG 1.1//EN" "http://www.w3.org/Graphics/SVG/1.1/DTD/svg11.dtd">
<svg version="1.1" id="Layer_1" xmlns="http://www.w3.org/2000/svg" xmlns:xlink="http://www.w3.org/1999/xlink" x="0px" y="0px" width="16px" height="16px" viewBox="0 0 16 16" enable-background="new 0 0 16 16" xml:space="preserve">
  <g id="icon">
    <path d="M1,15.5h4M6,15.5h4M11,15.5h4M1,13.5h4M6,13.5h4M11,13.5h4M1,11.5h4M6,11.5h4M11,11.5h4" fill="#FFFFFF" stroke="#228BCB" stroke-width="1" stroke-miterlimit="1"/>
    <path d="M1,9.5h4M6,9.5h4M11,9.5h4M1,7.5h4M6,7.5h4M11,7.5h4M1,5.5h4M6,5.5h4M11,5.5h4" fill="#FFFFFF" stroke="#228BCB" stroke-width="1" stroke-miterlimit="1"/>
    <path d="M6,3.5h4M11,3.5h4M6,1.5h4" fill="#FFFFFF" stroke="#228BCB" stroke-width="1" stroke-miterlimit="1"/>
  </g>
</svg>
