<?xml version="1.0" encoding="UTF-8"?>
<!DOCTYPE svg PUBLIC "-//W3C//DTD SVG 1.1//EN" "http://www.w3.org/Graphics/SVG/1.1/DTD/svg11.dtd">
<svg version="1.1" id="Layer_1" xmlns="http://www.w3.org/2000/svg" xmlns:xlink="http://www.w3.org/1999/xlink" x="0px" y="0px" width="16px" height="16px" viewBox="0 0 16 16" enable-background="new 0 0 16 16" xml:space="preserve">
  <g id="icon">
    <polygon points="15.5,15.5 4.5,15.5 4.5,0.5 11.533,0.5 15.5,4.557" fill="#FFFFFF" stroke-linejoin="miter"/>
    <path d="M11.744,0H4v9h1V1h6v4h4v10h-0.5v1h1.5V4.353L11.744,0zM12,4V1.693L14.256,4H12z" fill="#383838"/>
    <path d="M5,16H4v-3.298L2.921,14.8h-0.687L1,12.637V16H0v-6h0.846l1.723,3.159L4.15,10H5V16zM7,13.8h0.606c0.3,0,0.581,-0.045,0.835,-0.132c0.261,-0.09,0.491,-0.218,0.683,-0.38c0.202,-0.169,0.36,-0.375,0.473,-0.614c0.111,-0.238,0.168,-0.498,0.168,-0.774c0,-0.628,-0.207,-1.113,-0.614,-1.443c-0.376,-0.304,-0.896,-0.457,-1.544,-0.457H6v6h1V13.8zM7,11h0.606c0.414,0,0.723,0.079,0.916,0.235c0.06,0.049,0.243,0.196,0.243,0.665c0,0.13,-0.024,0.244,-0.073,0.349c-0.05,0.107,-0.119,0.196,-0.211,0.273c-0.098,0.083,-0.222,0.15,-0.366,0.2c-0.149,0.052,-0.321,0.078,-0.509,0.078H7V11zM12,16v-1.5H9.7v-0.654L12.11,10h0.89v3.5h1v1h-1v1.5H12zM12,13.5v-1.537L11.118,13.5H12z" fill="#238BCB"/>
  </g>
</svg>
