<?xml version="1.0" encoding="UTF-8"?>
<!DOCTYPE svg PUBLIC "-//W3C//DTD SVG 1.1//EN" "http://www.w3.org/Graphics/SVG/1.1/DTD/svg11.dtd">
<svg version="1.1" id="Layer_1" xmlns="http://www.w3.org/2000/svg" xmlns:xlink="http://www.w3.org/1999/xlink" x="0px" y="0px" width="16px" height="16px" viewBox="0 0 16 16" enable-background="new 0 0 16 16" xml:space="preserve">
  <g id="icon">
    <rect x="1" y="1.5" width="5.5" height="5" fill="#FFFFFF"/>
    <rect x="9" y="1.5" width="5.5" height="5" fill="#FFFFFF"/>
    <path d="M9,3V1h6v6H9V5h1v1h4V2h-4v1H9z" fill="#383838"/>
    <path d="M1,3V1h6v6H1V5h1v1h4V2H2v1H1z" fill="#383838"/>
    <rect x="14.8" y="3.5" width="1.2" height="1" fill="#383838"/>
    <rect x="0" y="3.5" width="3" height="1" fill="#383838"/>
    <circle cx="4" cy="4" r="1.2" fill="#0964B0"/>
    <rect x="7" y="3.5" width="4" height="1" fill="#383838"/>
    <circle cx="12" cy="4" r="1.2" fill="#0964B0"/>
    <rect x="5.5" y="13.5" width="5" height="2" fill="#C8C6C4" stroke="#383838" stroke-width="1" stroke-miterlimit="1"/>
    <path d="M0,14.5h5.5M10.5,14.5h5.5M8,13.5V7" fill="#FFFFFF" stroke="#383838" stroke-width="1" stroke-miterlimit="1"/>
  </g>
</svg>
