<?xml version="1.0" encoding="UTF-8"?>
<!DOCTYPE svg PUBLIC "-//W3C//DTD SVG 1.1//EN" "http://www.w3.org/Graphics/SVG/1.1/DTD/svg11.dtd">
<svg version="1.1" id="Layer_1" xmlns="http://www.w3.org/2000/svg" xmlns:xlink="http://www.w3.org/1999/xlink" x="0px" y="0px" width="16px" height="16px" viewBox="0 0 16 16" enable-background="new 0 0 16 16" xml:space="preserve">
  <g id="icon">
    <rect x="1" y="10.5" width="5.5" height="5" fill="#FFFFFF"/>
    <rect x="9" y="10.5" width="5.5" height="5" fill="#FFFFFF"/>
    <path d="M9,12v-2h6v6H9v-2h1v1h4v-4h-4v1H9z" fill="#383838"/>
    <path d="M1,12v-2h6v6H1v-2h1v1h4v-4H2v1H1z" fill="#383838"/>
    <rect x="14.8" y="12.5" width="1.2" height="1" fill="#383838"/>
    <path d="M3.6,4.217l3.142,3.142l6.283,-6.283" fill="none" stroke="#17AB4F" stroke-width="1" stroke-miterlimit="1"/>
    <rect x="0" y="12.5" width="3" height="1" fill="#383838"/>
    <circle cx="4" cy="13" r="1.2" fill="#238BCB"/>
    <rect x="7" y="12.5" width="4" height="1" fill="#383838"/>
    <circle cx="12" cy="13" r="1.2" fill="#238BCB"/>
  </g>
</svg>
