<?xml version="1.0" encoding="UTF-8"?>
<!DOCTYPE svg PUBLIC "-//W3C//DTD SVG 1.1//EN" "http://www.w3.org/Graphics/SVG/1.1/DTD/svg11.dtd">
<svg version="1.1" id="Layer_1" xmlns="http://www.w3.org/2000/svg" xmlns:xlink="http://www.w3.org/1999/xlink" x="0px" y="0px" width="16px" height="16px" viewBox="0 0 16 16" enable-background="new 0 0 16 16" xml:space="preserve">
  <g id="icon">
    <path d="M8.52,7.857c-1.6,-0.096,-3.215,-0.9,-4.005,-1.457C3.725,6.957,2.1,7.761,0.5,7.857c-0.005,0.424,0.072,1.256,0.168,1.956c0.203,1.472,0.643,2.735,1.239,3.555c0.833,1.146,1.652,1.846,2.608,2.133c0.956,-0.287,1.766,-0.987,2.599,-2.133c0.596,-0.82,1.036,-2.082,1.239,-3.555C8.448,9.113,8.525,8.281,8.52,7.857z" fill="#FFFFFF" stroke="#17AB4F" stroke-width="1" stroke-miterlimit="1"/>
    <path d="M2.52,10.81l1.473,1.456l2.922,-2.888" fill="none" stroke="#17AB4F" stroke-width="1" stroke-miterlimit="1"/>
    <path d="M2.5,0.5v5.235c0.439,-0.192,0.837,-0.412,1.14,-0.626l0.865,-0.611l0.865,0.611c0.528,0.373,1.879,1.099,3.211,1.179l1.394,0.084l0.016,1.396c0.007,0.622,-0.11,1.657,-0.181,2.17c-0.075,0.545,-0.181,1.068,-0.314,1.562H15.5V0.5H2.5z" fill="#FFFFFF"/>
    <path d="M2,0v5.934c0.354,-0.127,0.695,-0.279,1,-0.439V1h12v10H9.618c-0.077,0.347,-0.167,0.681,-0.27,1H16V0H2z" fill="#383838"/>
    <rect x="12" y="2" width="2" height="3" fill="#EF3E3B"/>
    <path d="M11,7H9.982l-0.007,-0.628l-1.394,-0.084c-0.476,-0.029,-0.953,-0.14,-1.396,-0.288H11V7zM9.988,8c-0.008,0.302,-0.036,0.659,-0.069,1H12V8H9.988z" fill="#787979"/>
  </g>
</svg>
