<?xml version="1.0" encoding="UTF-8"?>
<!DOCTYPE svg PUBLIC "-//W3C//DTD SVG 1.1//EN" "http://www.w3.org/Graphics/SVG/1.1/DTD/svg11.dtd">
<svg version="1.1" id="Layer_1" xmlns="http://www.w3.org/2000/svg" xmlns:xlink="http://www.w3.org/1999/xlink" x="0px" y="0px" width="16px" height="16px" viewBox="0 0 16 16" enable-background="new 0 0 16 16" xml:space="preserve">
  <g id="icon">
    <path d="M10.5,4.539V3.021C10.5,1.634,9.375,0.5,8,0.5l0,0C6.625,0.5,5.5,1.634,5.5,3.021v1.519" fill="none" stroke="#383838" stroke-width="1" stroke-miterlimit="1"/>
    <path d="M4.5,4.5h7v5H4.5V4.5zM8,6.5v1.5" fill="#FFFFFF" stroke="#ED8730" stroke-width="1" stroke-miterlimit="1"/>
    <path d="M5.328,11.871c-0.02,-0.018,-0.125,-0.121,-0.156,-0.148c-0.031,-0.027,-0.07,-0.057,-0.116,-0.089c-0.046,-0.032,-0.101,-0.062,-0.165,-0.089c-0.064,-0.027,-0.139,-0.05,-0.222,-0.068c-0.084,-0.018,-0.18,-0.027,-0.29,-0.027c-0.168,0,-0.317,0.025,-0.446,0.075c-0.13,0.05,-0.239,0.117,-0.326,0.2c-0.088,0.083,-0.155,0.179,-0.2,0.289c-0.046,0.11,-0.069,0.224,-0.069,0.343c0,0.153,0.031,0.28,0.092,0.382c0.061,0.102,0.142,0.188,0.241,0.258c0.1,0.07,0.214,0.128,0.342,0.174c0.129,0.046,0.259,0.091,0.392,0.133c0.133,0.042,0.263,0.087,0.392,0.135c0.129,0.047,0.243,0.107,0.342,0.18c0.1,0.073,0.18,0.162,0.241,0.269c0.061,0.107,0.092,0.24,0.092,0.401c0,0.162,-0.028,0.314,-0.085,0.455c-0.057,0.141,-0.139,0.263,-0.246,0.368c-0.107,0.105,-0.239,0.187,-0.395,0.248c-0.156,0.06,-0.334,0.091,-0.533,0.091c-0.139,0,-0.262,-0.012,-0.372,-0.035c-0.109,-0.024,-0.209,-0.058,-0.3,-0.102c-0.091,-0.044,-0.174,-0.098,-0.25,-0.161c-0.076,-0.063,-0.203,-0.189,-0.273,-0.27" fill="none" stroke="#383838" stroke-width="1" stroke-miterlimit="1"/>
    <path d="M9.328,11.871c-0.02,-0.018,-0.125,-0.121,-0.156,-0.148c-0.031,-0.027,-0.07,-0.057,-0.116,-0.089c-0.046,-0.032,-0.101,-0.062,-0.165,-0.089c-0.064,-0.027,-0.139,-0.05,-0.222,-0.068c-0.084,-0.018,-0.18,-0.027,-0.29,-0.027c-0.168,0,-0.317,0.025,-0.446,0.075c-0.13,0.05,-0.239,0.117,-0.326,0.2c-0.088,0.083,-0.155,0.179,-0.2,0.289c-0.046,0.11,-0.069,0.224,-0.069,0.343c0,0.153,0.031,0.28,0.092,0.382c0.061,0.102,0.142,0.188,0.241,0.258c0.1,0.07,0.214,0.128,0.342,0.174c0.129,0.046,0.259,0.091,0.392,0.133c0.133,0.042,0.263,0.087,0.392,0.135c0.129,0.047,0.243,0.107,0.342,0.18c0.1,0.073,0.18,0.162,0.241,0.269c0.061,0.107,0.092,0.24,0.092,0.401c0,0.162,-0.028,0.314,-0.085,0.455c-0.057,0.141,-0.139,0.263,-0.246,0.368c-0.107,0.105,-0.239,0.187,-0.395,0.248c-0.156,0.06,-0.334,0.091,-0.533,0.091c-0.139,0,-0.262,-0.012,-0.372,-0.035c-0.109,-0.024,-0.209,-0.058,-0.3,-0.102c-0.091,-0.044,-0.174,-0.098,-0.25,-0.161c-0.076,-0.063,-0.203,-0.189,-0.273,-0.27" fill="none" stroke="#383838" stroke-width="1" stroke-miterlimit="1"/>
    <path d="M14,15.5h-2.5v-4.5" fill="none" stroke="#383838" stroke-width="1" stroke-miterlimit="1"/>
  </g>
</svg>
