<?xml version="1.0" encoding="UTF-8"?>
<!DOCTYPE svg PUBLIC "-//W3C//DTD SVG 1.1//EN" "http://www.w3.org/Graphics/SVG/1.1/DTD/svg11.dtd">
<svg version="1.1" id="Layer_1" xmlns="http://www.w3.org/2000/svg" xmlns:xlink="http://www.w3.org/1999/xlink" x="0px" y="0px" width="16px" height="16px" viewBox="0 0 16 16" enable-background="new 0 0 16 16" xml:space="preserve">
  <g id="icon">
    <path d="M4.728,0.5L0.5,4.728v6.547L4.668,15.5h6.552L15.5,11.33V4.668L11.275,0.5H4.728z" fill="#FFFFFF" stroke="#EE3D3B" stroke-width="1" stroke-miterlimit="1"/>
    <path d="M7.535,10.003l-0.045,0.088c-0.559,1.096,-1.193,2.31,-1.374,2.657c-0.075,0.143,-0.206,0.252,-0.361,0.298c-0.056,0.017,-0.114,0.025,-0.172,0.025c-0.102,0,-0.203,-0.026,-0.293,-0.075c-1.723,-0.955,-2.828,-2.78,-2.885,-4.762c-0.005,-0.163,0.054,-0.317,0.166,-0.435c0.111,-0.117,0.261,-0.183,0.422,-0.187c0.472,-0.012,1.472,-0.016,2.97,-0.013l0.082,0c-0.032,0.142,-0.049,0.29,-0.049,0.442c0,0.17,0.021,0.334,0.061,0.492l-0.096,0c-1.172,-0.003,-2.057,0,-2.6,0.006c0.141,1.409,0.915,2.691,2.091,3.462c0.273,-0.524,0.763,-1.467,1.206,-2.335l0.046,-0.089C6.94,9.779,7.223,9.927,7.535,10.003zM6.509,6.54l0.057,0.094c0.218,-0.225,0.487,-0.398,0.788,-0.502l-0.047,-0.078c-0.612,-1.004,-1.07,-1.764,-1.346,-2.232c1.268,-0.612,2.758,-0.614,4.025,-0.005c-0.297,0.499,-0.835,1.401,-1.329,2.215l-0.051,0.084c0.304,0.096,0.577,0.263,0.801,0.482l0.049,-0.08c0.559,-0.921,1.173,-1.952,1.435,-2.392l0.077,-0.129c0.083,-0.14,0.107,-0.305,0.065,-0.463c-0.041,-0.158,-0.142,-0.29,-0.283,-0.371c-1.709,-0.982,-3.834,-0.981,-5.546,0.003c-0.289,0.166,-0.389,0.536,-0.224,0.825C5.273,4.504,5.973,5.66,6.509,6.54zM13.434,7.798c-0.111,-0.117,-0.261,-0.184,-0.421,-0.187c-0.588,-0.015,-1.937,-0.015,-2.965,-0.013l-0.082,0c0.032,0.143,0.049,0.29,0.049,0.443c0,0.17,-0.021,0.334,-0.061,0.492l0.096,0c1.17,-0.002,2.053,0,2.595,0.007c-0.141,1.409,-0.915,2.69,-2.09,3.462c-0.275,-0.527,-0.768,-1.475,-1.205,-2.333l-0.045,-0.089c-0.237,0.202,-0.521,0.35,-0.833,0.424l0.045,0.089c0.552,1.082,1.19,2.305,1.373,2.654c0.075,0.143,0.206,0.252,0.361,0.298c0.056,0.017,0.114,0.025,0.172,0.025c0.102,0,0.203,-0.026,0.293,-0.075c1.723,-0.955,2.828,-2.78,2.885,-4.762C13.604,8.07,13.545,7.916,13.434,7.798zM8.005,9.54c-0.822,0,-1.49,-0.673,-1.49,-1.499c0,-0.827,0.668,-1.499,1.49,-1.499s1.49,0.673,1.49,1.499C9.495,8.867,8.827,9.54,8.005,9.54zM8.005,7.476c-0.306,0,-0.556,0.253,-0.556,0.565s0.249,0.565,0.556,0.565s0.556,-0.253,0.556,-0.565S8.311,7.476,8.005,7.476z" fill="#EF3E3B"/>
  </g>
</svg>
