<?xml version="1.0" encoding="UTF-8"?>
<!DOCTYPE svg PUBLIC "-//W3C//DTD SVG 1.1//EN" "http://www.w3.org/Graphics/SVG/1.1/DTD/svg11.dtd">
<svg version="1.1" id="Layer_1" xmlns="http://www.w3.org/2000/svg" xmlns:xlink="http://www.w3.org/1999/xlink" x="0px" y="0px" width="16px" height="16px" viewBox="0 0 16 16" enable-background="new 0 0 16 16" xml:space="preserve">
  <g id="icon">
    <path d="M4.728,0.5L0.5,4.728v6.547L4.668,15.5h6.552L15.5,11.33V4.668L11.275,0.5H4.728z" fill="#FFFFFF" stroke="#EE3D3B" stroke-width="1" stroke-miterlimit="1"/>
    <polygon points="12.762,9.358 12.529,8.489 10.607,9.004 8.916,8.027 10.582,7.066 12.504,7.581 12.737,6.711 11.684,6.429 12.98,5.681 12.53,4.901 11.234,5.65 11.516,4.597 10.647,4.364 10.132,6.286 8.449,7.258 8.449,5.266 9.856,3.859 9.22,3.222 8.449,3.993 8.449,2.535 7.549,2.535 7.549,3.993 6.779,3.222 6.142,3.859 7.549,5.266 7.549,7.238 5.875,6.272 5.36,4.349 4.491,4.582 4.773,5.635 3.476,4.887 3.026,5.666 4.323,6.415 3.27,6.697 3.503,7.566 5.425,7.051 7.116,8.027 5.4,9.018 3.477,8.503 3.245,9.373 4.297,9.655 3.035,10.384 3.485,11.163 4.747,10.434 4.465,11.487 5.335,11.72 5.85,9.798 7.549,8.817 7.549,10.73 6.142,12.137 6.779,12.774 7.549,12.003 7.549,13.5 8.449,13.5 8.449,12.003 9.22,12.774 9.856,12.137 8.449,10.73 8.449,8.797 10.157,9.783 10.672,11.705 11.542,11.472 11.259,10.42 12.522,11.148 12.972,10.369 11.709,9.64" fill="#EF3E3B" stroke-linejoin="miter"/>
  </g>
</svg>
