<?xml version="1.0" encoding="UTF-8"?>
<!DOCTYPE svg PUBLIC "-//W3C//DTD SVG 1.1//EN" "http://www.w3.org/Graphics/SVG/1.1/DTD/svg11.dtd">
<svg version="1.1" id="Layer_1" xmlns="http://www.w3.org/2000/svg" xmlns:xlink="http://www.w3.org/1999/xlink" x="0px" y="0px" width="16px" height="16px" viewBox="0 0 16 16" enable-background="new 0 0 16 16" xml:space="preserve">
  <g id="icon">
    <path d="M3.5,15.5H1.5v-2h2V15.5zM5.5,13.5H3.5v2h2V13.5zM7.5,13.5H5.5v2h2V13.5zM14.5,13.5h-2v2h2V13.5zM12.5,13.5h-2v2h2V13.5zM10.5,13.5H8.5v2h2V13.5z" fill="#F7DA8E" stroke="#E57428" stroke-width="1" stroke-miterlimit="1"/>
    <rect x="0.5" y="0.5" width="15" height="13" fill="#FFFFFF" stroke="#383838" stroke-width="1" stroke-miterlimit="1"/>
    <path d="M4,8H2v4h2V8zM7,8H5v4h2V8zM10.5,2H8v2h2.5V2zM14,2h-2.5v2h2.5V2zM10.5,5H8v2h2.5V5zM14,5h-2.5v2h2.5V5zM10.5,8H8v4h2.5V8zM14,8h-2.5v4h2.5V8z" fill="#383838"/>
    <rect x="2.5" y="2.5" width="4" height="4" fill="#C8C6C4" stroke="#383838" stroke-width="1" stroke-miterlimit="1"/>
  </g>
</svg>
