<?xml version="1.0" encoding="UTF-8"?>
<!DOCTYPE svg PUBLIC "-//W3C//DTD SVG 1.1//EN" "http://www.w3.org/Graphics/SVG/1.1/DTD/svg11.dtd">
<svg version="1.1" id="Layer_1" xmlns="http://www.w3.org/2000/svg" xmlns:xlink="http://www.w3.org/1999/xlink" x="0px" y="0px" width="16px" height="16px" viewBox="0 0 16 16" enable-background="new 0 0 16 16" xml:space="preserve">
  <g id="icon">
    <path d="M10.637,4.834c-0.939,-1.33,-1.91,-2.705,-2.389,-4.048C8.208,0.673,8.111,0.6,8,0.6c-0.111,0,-0.208,0.073,-0.248,0.186c-0.478,1.349,-1.454,2.735,-2.399,4.075C4.04,6.725,2.8,8.484,2.8,10.164c0,1.448,0.543,2.781,1.529,3.755C5.297,14.874,6.6,15.4,8,15.4c1.403,0,2.706,-0.522,3.671,-1.471c0.986,-0.97,1.529,-2.307,1.529,-3.766C13.2,8.463,11.955,6.7,10.637,4.834z" fill="#C8C6C4" stroke="#383838" stroke-width="1" stroke-miterlimit="1"/>
    <path d="M9.1,5.774c0.188,0.439,0.488,0.845,0.637,1.043c0.299,0.417,1.572,1.866,1.434,3.13" fill="#C8C6C4" stroke="#383838" stroke-width="1" stroke-miterlimit="1"/>
  </g>
</svg>
