<?xml version="1.0" encoding="UTF-8"?>
<!DOCTYPE svg PUBLIC "-//W3C//DTD SVG 1.1//EN" "http://www.w3.org/Graphics/SVG/1.1/DTD/svg11.dtd">
<svg version="1.1" id="Layer_1" xmlns="http://www.w3.org/2000/svg" xmlns:xlink="http://www.w3.org/1999/xlink" x="0px" y="0px" width="16px" height="16px" viewBox="0 0 16 16" enable-background="new 0 0 16 16" xml:space="preserve">
  <g id="icon">
    <path d="M4.214,14.087L0.96,15.122l1.068,-3.358l1.408,-1.408L4.214,14.087zM13.246,4.362l-0.61,0.611l-1.45,-1.45l0.611,-0.611l-1.374,-1.374L8.668,3.294l0.916,0.916l-0.892,0.892l0.848,3.731l2.41,-2.41l0.992,0.992l1.679,-1.679L13.246,4.362z" fill="#C8C6C4"/>
    <path d="M4.209,14.064c-0.519,0.375,-0.888,0.475,-1.093,0.542l-0.014,0.005l-2.345,0.737l0.721,-2.368c0.094,-0.298,0.317,-0.983,1.109,-1.774l0.849,-0.849L3.7,11.619l-0.349,0.349c-0.644,0.644,-0.789,1.166,-0.842,1.334c-0.001,0.003,-0.002,0.007,-0.003,0.009l-0.119,0.392l0.389,-0.122c0.003,-0.001,0.006,-0.002,0.009,-0.003c0.154,-0.05,0.598,-0.174,1.177,-0.703L4.209,14.064zM13.323,3.523l-0.763,0.763l-0.763,-0.763l0.763,-0.763L10.27,0.47L8.674,2.067c-0.335,0.335,-0.453,0.829,-0.306,1.279l0.513,1.567l-0.156,0.156l0.254,1.272l1.134,-1.134L9.394,3.01c-0.021,-0.064,-0.004,-0.133,0.043,-0.181l0.833,-0.833l0.763,0.763l-0.143,0.143c-0.342,0.342,-0.342,0.898,0,1.24l1.049,1.049c0.342,0.342,0.898,0.342,1.24,0l0.143,-0.143l0.763,0.763l-0.833,0.833c-0.047,0.047,-0.117,0.064,-0.18,0.043l-2.197,-0.719L9.257,7.589l0.283,1.244l1.631,-1.631l1.567,0.513c0.45,0.147,0.944,0.029,1.279,-0.306l1.597,-1.597L13.323,3.523z" fill="#383838"/>
    <path d="M7.999,10.373l-0.763,-3.816l0.954,-0.954l0.763,3.816L7.999,10.373zM7.35,11.022l-0.763,-3.816l-0.954,0.954l0.763,3.816L7.35,11.022zM5.747,12.624l-0.763,-3.816l-0.954,0.954l0.763,3.816L5.747,12.624z" fill="#383838"/>
  </g>
</svg>
