<?xml version="1.0" encoding="UTF-8"?>
<!DOCTYPE svg PUBLIC "-//W3C//DTD SVG 1.1//EN" "http://www.w3.org/Graphics/SVG/1.1/DTD/svg11.dtd">
<svg version="1.1" id="Layer_1" xmlns="http://www.w3.org/2000/svg" xmlns:xlink="http://www.w3.org/1999/xlink" x="0px" y="0px" width="16px" height="16px" viewBox="0 0 16 16" enable-background="new 0 0 16 16" xml:space="preserve">
  <g id="icon">
    <path d="M12.05,5.5c1.905,0,3.45,1.871,3.45,4.051c0,2.181,-1.545,3.948,-3.45,3.948h-8.8C1.731,13.5,0.5,12.091,0.5,10.353c0,-1.456,0.865,-2.681,2.038,-3.04C2.81,4.991,4.547,3.2,6.65,3.2c2.085,0.068,3.112,0.942,4.046,2.572C11.2,5.569,11.474,5.5,12.05,5.5z" fill="#FFFFFF"/>
    <path d="M12.05,5.5c1.905,0,3.45,1.871,3.45,4.051c0,2.181,-1.545,3.948,-3.45,3.948h-8.8C1.731,13.5,0.5,12.091,0.5,10.353c0,-1.456,0.865,-2.681,2.038,-3.04C2.81,4.991,4.547,3.2,6.65,3.2c2.085,0.068,3.112,0.942,4.046,2.572C11.2,5.569,11.474,5.5,12.05,5.5z" fill="#C8C6C4" opacity="0.5"/>
    <path d="M12.05,5.5c1.905,0,3.45,1.871,3.45,4.051c0,2.181,-1.545,3.948,-3.45,3.948h-8.8C1.731,13.5,0.5,12.091,0.5,10.353c0,-1.456,0.865,-2.681,2.038,-3.04C2.81,4.991,4.547,3.2,6.65,3.2c2.085,0.068,3.112,0.942,4.046,2.572C11.2,5.569,11.474,5.5,12.05,5.5z" fill="none" stroke="#383838" stroke-width="1" stroke-miterlimit="1"/>
    <path d="M5.79,11.094c-0.061,0.06,-0.127,0.115,-0.198,0.164c-0.071,0.05,-0.148,0.092,-0.231,0.128c-0.084,0.036,-0.176,0.064,-0.277,0.084c-0.101,0.02,-0.212,0.03,-0.333,0.03c-0.197,0,-0.379,-0.035,-0.545,-0.104c-0.166,-0.069,-0.31,-0.169,-0.432,-0.299c-0.122,-0.13,-0.216,-0.287,-0.284,-0.472c-0.068,-0.185,-0.102,-0.393,-0.102,-0.625c0,-0.223,0.034,-0.427,0.102,-0.612c0.068,-0.184,0.163,-0.343,0.287,-0.475s0.272,-0.234,0.444,-0.306c0.172,-0.072,0.363,-0.108,0.571,-0.108c0.096,0,0.187,0.007,0.272,0.022c0.085,0.015,0.166,0.037,0.242,0.066c0.076,0.029,0.149,0.065,0.219,0.108c0.07,0.043,0.138,0.092,0.205,0.148M9.177,10.002c0,0.232,-0.032,0.441,-0.096,0.625c-0.064,0.185,-0.153,0.342,-0.268,0.471c-0.115,0.129,-0.252,0.229,-0.412,0.298c-0.16,0.069,-0.336,0.104,-0.529,0.104c-0.192,0,-0.367,-0.035,-0.526,-0.104c-0.159,-0.069,-0.296,-0.169,-0.411,-0.298c-0.115,-0.129,-0.204,-0.286,-0.268,-0.471c-0.064,-0.185,-0.096,-0.393,-0.096,-0.625c0,-0.231,0.032,-0.439,0.096,-0.624c0.064,-0.185,0.153,-0.343,0.268,-0.473c0.115,-0.13,0.252,-0.23,0.411,-0.3c0.159,-0.07,0.334,-0.105,0.526,-0.105c0.193,0,0.37,0.035,0.529,0.104c0.16,0.069,0.297,0.169,0.412,0.299c0.115,0.13,0.204,0.288,0.268,0.473C9.145,9.561,9.177,9.77,9.177,10.002zM10.413,8.527c0.021,-0.158,0.064,-0.3,0.129,-0.427c0.065,-0.127,0.149,-0.235,0.252,-0.323c0.102,-0.088,0.22,-0.157,0.354,-0.204c0.134,-0.048,0.279,-0.072,0.436,-0.072c0.136,0,0.271,0.02,0.402,0.059c0.132,0.039,0.249,0.101,0.351,0.185c0.102,0.084,0.185,0.19,0.249,0.32c0.063,0.13,0.095,0.286,0.095,0.468c0,0.15,-0.024,0.291,-0.072,0.42c-0.048,0.13,-0.113,0.254,-0.195,0.372c-0.082,0.118,-0.176,0.235,-0.283,0.348c-0.107,0.114,-0.219,0.23,-0.337,0.348L10.4,11.474V11.5h2.7" fill="none" stroke="#383838" stroke-width="1" stroke-miterlimit="1"/>
  </g>
</svg>
