<?xml version="1.0" encoding="UTF-8"?>
<!DOCTYPE svg PUBLIC "-//W3C//DTD SVG 1.1//EN" "http://www.w3.org/Graphics/SVG/1.1/DTD/svg11.dtd">
<svg version="1.1" id="Layer_1" xmlns="http://www.w3.org/2000/svg" xmlns:xlink="http://www.w3.org/1999/xlink" x="0px" y="0px" width="32px" height="32px" viewBox="0 0 32 32" enable-background="new 0 0 32 32" xml:space="preserve">
  <g id="icon">
    <path d="M8.962,30.391c-0.543,-0.066,-0.961,-0.462,-1.405,-0.881c-0.211,-0.2,-0.43,-0.406,-0.666,-0.579c-0.468,-0.33,-0.748,-1.281,-0.861,-2.089c-0.567,0.078,-1.123,0.093,-1.557,0.04c-0.339,-0.041,-0.597,-0.123,-0.766,-0.243c-0.244,-0.166,-0.521,-0.306,-0.789,-0.441c-0.64,-0.323,-1.244,-0.628,-1.364,-1.267c-0.124,-0.66,0.322,-1.512,1.447,-2.762c0.915,-1.14,1.857,-1.634,2.881,-1.51c0.092,0.011,0.182,0.049,0.343,0.024c0.161,-0.024,0.387,-0.117,0.488,-0.118c0.982,-0.012,2.58,-1.127,4.948,-4.18l0.032,-0.042l0.047,-0.025c0.084,-0.045,0.191,-0.058,0.326,-0.042c0.42,0.051,1.139,0.401,1.219,0.44l0.136,0.067l-0.003,1.705l1.519,0.605l-0.193,0.254c-2.566,3.374,-3.06,4.463,-2.979,4.921c0.012,0.067,0.014,0.129,0.008,0.187c1.113,1.128,1.065,2.364,-0.147,3.878C10.567,29.852,9.746,30.486,8.962,30.391zM18.847,17.536c-0.614,-0.075,-1.028,-0.473,-1.045,-0.49l-0.108,-0.106l0.59,-1.78c-0.249,-0.282,-0.762,-0.781,-1.144,-0.828c-0.032,-0.004,-0.062,-0.004,-0.089,-0.001l-0.826,0.101l0.641,-0.529c1.815,-1.498,3.263,-2.807,4.19,-3.834c0.081,-0.09,0.169,-0.175,0.261,-0.252c0.129,-0.823,0.142,-1.88,-0.199,-2.477c0,-0.001,-0.001,-0.001,-0.001,-0.002c-0.161,-0.001,-0.321,-0.005,-0.456,-0.021c-0.165,-0.02,-0.28,-0.058,-0.363,-0.119c-1.083,-0.796,-1.805,-2.691,-1.113,-3.94c0.641,-1.158,1.948,-1.798,3.328,-1.63c0.409,0.05,0.803,0.17,1.171,0.358c1.512,0.77,2.193,2.479,1.585,3.976c-0.04,0.099,-0.118,0.16,-0.456,0.327c0.32,0.762,0.901,1.624,1.916,1.83c0.07,0.015,0.145,0.027,0.23,0.037c0.219,0.027,0.467,0.037,0.729,0.049c0.287,0.012,0.584,0.025,0.875,0.061c0.491,0.06,1.187,0.205,1.567,0.77c0.338,0.503,0.367,1.235,0.089,2.236c-0.689,2.484,-2.561,2.509,-3.927,2.526c-0.399,0.005,-0.777,0.01,-1.059,0.077c-0.193,0.163,-0.422,0.307,-0.682,0.43c-1.277,0.605,-3.046,1.598,-5.273,3.196l-0.057,0.041l-0.07,0.005C19.051,17.552,18.948,17.549,18.847,17.536L18.847,17.536z" fill="#FFFFFF" stroke="#383838" stroke-width="1.1" stroke-miterlimit="1"/>
    <path d="M5.804,10.05l4.065,3.02M9.836,6.741l2.258,4.401M14.933,5.713L15.03,10.5" fill="#FFFFFF" stroke="#EE3D3B" stroke-width="1.2" stroke-miterlimit="1"/>
  </g>
</svg>
