<?xml version="1.0" encoding="UTF-8"?>
<!DOCTYPE svg PUBLIC "-//W3C//DTD SVG 1.1//EN" "http://www.w3.org/Graphics/SVG/1.1/DTD/svg11.dtd">
<svg version="1.1" id="Layer_1" xmlns="http://www.w3.org/2000/svg" xmlns:xlink="http://www.w3.org/1999/xlink" x="0px" y="0px" width="32px" height="32px" viewBox="0 0 32 32" enable-background="new 0 0 32 32" xml:space="preserve">
  <g id="icon">
    <path d="M16.763,2.891c-0.599,-0.061,-2.147,-0.424,-2.913,-0.657c-1.11,-0.338,-2.258,-0.688,-3.331,-0.688c-0.793,0,-1.474,0.197,-2.023,0.584c-0.922,0.613,-1.624,1.834,-1.928,3.356c-0.477,2.388,0.081,5.045,1.49,7.105c0.167,0.269,0.501,1.609,0.262,3.038C8.135,16.732,7.934,23.8,9.334,27.04c0.872,2.019,1.338,2.989,2.375,2.989c0.358,0,0.705,-0.151,0.953,-0.413c0.414,-0.44,0.465,-1.04,0.412,-1.923c-0.012,-0.418,0.26,-2.952,0.85,-5.481c0.909,-3.899,1.802,-4.612,1.961,-4.71l0.128,-0.005l0.093,0.004c0.168,0.136,0.973,0.99,1.567,5.125c0.378,2.632,0.464,5.24,0.442,5.608c-0.05,0.835,-0.05,1.416,0.373,1.866c0.24,0.254,0.576,0.4,0.923,0.4c0,0,0.001,0,0.001,0c0.86,-0.001,1.223,-0.751,1.417,-1.154c0.155,-0.321,0.338,-0.75,0.57,-1.293c0.095,-0.223,0.198,-0.464,0.309,-0.72C23.053,24.22,23.43,16.52,23.491,15.3c0.041,-0.829,-0.033,-2.326,0.137,-2.741" fill="#FFFFFF" stroke="#228BCB" stroke-width="1.1" stroke-miterlimit="1"/>
    <path d="M19.868,8.165c2.599,3.187,3.708,3.495,3.708,4.203c0,0.708,-0.592,0.867,-0.915,0.867c-4.407,0,-7.637,-2.718,-7.637,-6.369c0,-1.234,0.266,-2.272,0.977,-3.26C17.73,1.318,17.269,4.977,19.868,8.165z" fill="#FFFFFF" stroke="#383838" stroke-width="1.1" stroke-miterlimit="1"/>
  </g>
</svg>
