<?xml version="1.0" encoding="UTF-8"?>
<!DOCTYPE svg PUBLIC "-//W3C//DTD SVG 1.1//EN" "http://www.w3.org/Graphics/SVG/1.1/DTD/svg11.dtd">
<svg version="1.1" id="Layer_1" xmlns="http://www.w3.org/2000/svg" xmlns:xlink="http://www.w3.org/1999/xlink" x="0px" y="0px" width="32px" height="32px" viewBox="0 0 32 32" enable-background="new 0 0 32 32" xml:space="preserve">
  <g id="icon">
    <path d="M8.265,13.4h16.035c1.161,-1.852,1.682,-4.067,1.464,-6.261c-0.21,-2.117,-1.108,-3.963,-2.401,-4.939c-0.518,-0.391,-1.142,-0.589,-1.855,-0.589c-1.065,0,-2.179,0.438,-3.256,0.861c-0.757,0.298,-1.536,0.604,-2.128,0.676c-0.595,-0.063,-1.376,-0.312,-2.135,-0.554c-1.101,-0.352,-2.24,-0.715,-3.304,-0.715c-0.787,0,-1.462,0.204,-2.007,0.607c-0.915,0.637,-1.611,1.906,-1.912,3.487c-0.473,2.481,0.08,5.243,1.477,7.383C8.25,13.368,8.258,13.384,8.265,13.4z" fill="#C8C6C4" stroke="#383838" stroke-width="1.1" stroke-linecap="round" stroke-miterlimit="1"/>
    <path d="M12.754,25.644L21.3,19.119M11.936,23.178L21.8,15.606M11.218,20.712L18,15.5M13.572,28.059L19.8,23.482M14.472,30.4l4.072,-3.002M10.4,18.033L13.9,15.5" fill="#FFFFFF" stroke="#228BCB" stroke-width="1.1" stroke-linecap="round" stroke-miterlimit="1"/>
  </g>
</svg>
