<?xml version="1.0" encoding="UTF-8"?>
<!DOCTYPE svg PUBLIC "-//W3C//DTD SVG 1.1//EN" "http://www.w3.org/Graphics/SVG/1.1/DTD/svg11.dtd">
<svg version="1.1" id="Layer_1" xmlns="http://www.w3.org/2000/svg" xmlns:xlink="http://www.w3.org/1999/xlink" x="0px" y="0px" width="32px" height="32px" viewBox="0 0 32 32" enable-background="new 0 0 32 32" xml:space="preserve">
  <g id="icon">
    <path d="M21.824,14.258c-6.623,6.521,-10.418,9.426,-12.921,11.221c-1.576,1.131,-2.821,2.023,-4.512,3.689c-0.221,0.217,-0.482,0.332,-0.756,0.332c-0.438,0,-0.858,-0.297,-1.044,-0.74c-0.177,-0.42,-0.093,-0.857,0.224,-1.169c1.751,-1.724,2.674,-3.02,3.842,-4.662c1.791,-2.515,4.701,-6.317,11.095,-12.613" fill="#C8C6C4" stroke="#383838" stroke-width="1" stroke-linecap="round" stroke-miterlimit="1"/>
    <path d="M24.147,15.726c-0.518,0,-1.006,-0.199,-1.372,-0.56l-6.306,-6.21c-0.757,-0.745,-0.757,-1.958,0,-2.703c0.367,-0.361,0.854,-0.56,1.372,-0.56c0.518,0,1.006,0.199,1.372,0.56l0.39,0.384c0.076,-0.266,0.22,-0.51,0.423,-0.71c0.017,-0.017,1.721,-1.691,1.829,-1.789c1.193,-1.072,2.507,-1.638,3.8,-1.638c1.547,0,2.888,0.834,3.502,2.177c0.736,1.613,0.271,3.581,-1.245,5.263c-0.126,0.139,-1.877,1.87,-1.894,1.887c-0.204,0.201,-0.451,0.342,-0.721,0.417l0.223,0.22c0.757,0.745,0.757,1.958,0,2.703C25.153,15.527,24.666,15.726,24.147,15.726z" fill="#DFBCD9" stroke="#A0519F" stroke-width="1" stroke-linecap="round" stroke-miterlimit="1"/>
  </g>
</svg>
