<?xml version="1.0" encoding="UTF-8"?>
<!DOCTYPE svg PUBLIC "-//W3C//DTD SVG 1.1//EN" "http://www.w3.org/Graphics/SVG/1.1/DTD/svg11.dtd">
<svg version="1.1" id="Layer_1" xmlns="http://www.w3.org/2000/svg" xmlns:xlink="http://www.w3.org/1999/xlink" x="0px" y="0px" width="32px" height="32px" viewBox="0 0 32 32" enable-background="new 0 0 32 32" xml:space="preserve">
  <g id="icon">
    <path d="M22.347,12.578l-5.616,5.616l-4.153,4.153l-2.924,-2.924l5.616,-5.616l0,0l4.153,-4.153L22.347,12.578zM27.565,7.359l1.617,-1.617c0.189,-0.189,0.189,-0.496,0,-0.686l-2.239,-2.239c-0.189,-0.189,-0.496,-0.189,-0.686,0l-1.617,1.617L27.565,7.359zM4.435,24.641l-1.617,1.617c-0.189,0.189,-0.189,0.496,0,0.686l2.239,2.239c0.189,0.189,0.496,0.189,0.686,0l1.617,-1.617L4.435,24.641z" fill="#FFFFFF" stroke="#383838" stroke-width="1.1" stroke-miterlimit="1"/>
    <path d="M27.164,11.845c0.601,0.81,0.537,1.958,-0.197,2.692c-0.808,0.808,-2.117,0.808,-2.924,0l-6.58,-6.58c-0.808,-0.808,-0.808,-2.117,0,-2.924c0.734,-0.734,1.883,-0.799,2.692,-0.197c-0.047,-0.584,0.151,-1.184,0.598,-1.631c0.808,-0.808,2.117,-0.808,2.924,0l5.118,5.118c0.808,0.808,0.808,2.117,0,2.924C28.348,11.694,27.748,11.893,27.164,11.845zM7.958,17.462c-0.808,-0.808,-2.117,-0.808,-2.924,0c-0.734,0.734,-0.799,1.883,-0.197,2.692c-0.584,-0.047,-1.184,0.151,-1.631,0.598c-0.808,0.808,-0.808,2.117,0,2.924l5.118,5.118c0.808,0.808,2.117,0.808,2.924,0c0.447,-0.447,0.645,-1.047,0.598,-1.631c0.81,0.601,1.958,0.537,2.692,-0.197c0.808,-0.808,0.808,-2.117,0,-2.924L7.958,17.462z" fill="#FFFFFF" stroke="#228BCB" stroke-width="1.1" stroke-miterlimit="1"/>
    <path d="M4.733,20.12l6.998,6.998M20.12,4.833l6.998,6.998" fill="#FFFFFF" stroke="#228BCB" stroke-width="1.1" stroke-miterlimit="1"/>
  </g>
</svg>
