<?xml version="1.0" encoding="UTF-8"?>
<!DOCTYPE svg PUBLIC "-//W3C//DTD SVG 1.1//EN" "http://www.w3.org/Graphics/SVG/1.1/DTD/svg11.dtd">
<svg version="1.1" id="Layer_1" xmlns="http://www.w3.org/2000/svg" xmlns:xlink="http://www.w3.org/1999/xlink" x="0px" y="0px" width="32px" height="32px" viewBox="0 0 32 32" enable-background="new 0 0 32 32" xml:space="preserve">
  <g id="icon">
    <path d="M19.869,19.227c-1.254,-0.562,-2.614,-0.877,-4.034,-0.877c-1.434,0,-2.805,0.321,-4.068,0.892c0.711,2.522,2.154,6.496,4.036,8.143C17.805,25.512,19.288,21.495,19.869,19.227z" fill="#FFFFFF"/>
    <path d="M19.869,19.227c-1.254,-0.562,-2.614,-0.877,-4.034,-0.877c-1.434,0,-2.805,0.321,-4.068,0.892" fill="#FFFFFF" stroke="#228BCB" stroke-width="1.1" stroke-miterlimit="1"/>
    <path d="M27.2,31c0,-4.997,-2.989,-9.765,-7.212,-11.719c-0.603,2.369,-3.457,8.052,-4.153,8.052c-0.697,0,-3.556,-5.691,-4.153,-8.052C7.459,21.235,4.47,26.003,4.47,31" fill="#FFFFFF" stroke="#228BCB" stroke-width="1.1" stroke-miterlimit="1"/>
    <path d="M23.4,11.187c0,3.941,-3.313,7.136,-7.4,7.136s-7.4,-3.195,-7.4,-7.136s3.313,-7.136,7.4,-7.136S23.4,7.246,23.4,11.187z" fill="#FFFFFF" stroke="#228BCB" stroke-width="1.1" stroke-miterlimit="1"/>
    <path d="M23.794,4.81c-0.789,-1.308,-3.35,-3.196,-7.767,-3.209c-0.01,0,-0.02,-0.001,-0.03,-0.001c-0.003,0,-0.005,0,-0.008,0c-0.003,0,-0.006,0,-0.008,0c-0.011,0,-0.021,0.001,-0.032,0.001c-4.415,0.014,-6.755,1.942,-7.413,3.209C7.875,6.082,7.7,9.8,7.7,9.8s3.654,-1.359,8.231,-1.359c0.019,0,0.039,-0.002,0.058,-0.002c0.019,0.001,0.039,0.002,0.058,0.002c4.972,0,8.451,1.359,8.451,1.359S24.587,6.123,23.794,4.81z" fill="#FFFFFF" stroke="#383838" stroke-width="1.1" stroke-linecap="round" stroke-miterlimit="1" stroke-linejoin="round"/>
    <path d="M16.025,13.175c4.335,0,6.008,0.436,6.008,2.454S20.36,19.9,16.025,19.9c-4.335,0,-6.008,-2.254,-6.008,-4.271S11.69,13.175,16.025,13.175z" fill="#FFFFFF" stroke="#383838" stroke-width="1.1" stroke-miterlimit="1"/>
  </g>
</svg>
