<?xml version="1.0" encoding="UTF-8"?>
<!DOCTYPE svg PUBLIC "-//W3C//DTD SVG 1.1//EN" "http://www.w3.org/Graphics/SVG/1.1/DTD/svg11.dtd">
<svg version="1.1" id="Layer_1" xmlns="http://www.w3.org/2000/svg" xmlns:xlink="http://www.w3.org/1999/xlink" x="0px" y="0px" width="32px" height="32px" viewBox="0 0 32 32" enable-background="new 0 0 32 32" xml:space="preserve">
  <g id="icon">
    <g>
      <path d="M7.075,14.904l7.815,-7.821l-4.807,-4.811c-0.895,-0.895,-2.345,-0.895,-3.24,0L2.268,6.85c-0.895,0.895,-0.895,2.347,0,3.242L7.075,14.904z" fill="#FFFFFF"/>
      <path d="M24.896,17.096l-7.815,7.821l4.807,4.811c0.895,0.895,2.345,0.895,3.24,0l4.575,-4.578c0.895,-0.895,0.895,-2.347,0,-3.242L24.896,17.096z" fill="#FFFFFF"/>
    </g>
    <path d="M30.092,21.519c1.107,1.108,1.107,2.912,0,4.02l-4.575,4.578c-0.537,0.537,-1.25,0.833,-2.009,0.833c-0.759,0,-1.472,-0.296,-2.009,-0.833l-4.807,-4.811l0.778,-0.778l4.808,4.812c0.329,0.329,0.766,0.51,1.231,0.51c0.465,0,0.902,-0.181,1.231,-0.51l4.575,-4.578c0.679,-0.68,0.679,-1.785,0,-2.465l-4.807,-4.811l0.778,-0.778L30.092,21.519zM6.686,15.293l0.778,-0.778L2.657,9.704c-0.679,-0.68,-0.679,-1.785,0,-2.465L7.232,2.66c0.329,-0.329,0.766,-0.51,1.231,-0.51s0.902,0.181,1.231,0.51l4.808,4.812l0.778,-0.778l-4.807,-4.811c-0.537,-0.537,-1.25,-0.833,-2.009,-0.833s-1.472,0.296,-2.009,0.833L1.879,6.461c-1.107,1.108,-1.107,2.912,0,4.02L6.686,15.293z" fill="#ED8730"/>
    <path d="M29.703,6.85l-4.575,-4.578c-0.895,-0.895,-2.345,-0.895,-3.24,0L2.268,21.908c-0.895,0.895,-0.895,2.347,0,3.242l4.575,4.578c0.895,0.895,2.345,0.895,3.24,0l19.621,-19.636C30.598,9.197,30.598,7.745,29.703,6.85z" fill="#FFFFFF" stroke="#ED8730" stroke-width="1.1" stroke-miterlimit="1"/>
    <path d="M14.253,23.093l-5.371,-5.371l0.849,-0.849l5.371,5.371L14.253,23.093zM22.245,15.1l-5.371,-5.371l0.849,-0.849l5.371,5.371L22.245,15.1z" fill="#787979"/>
    <path d="M15.988,19.933c-0.192,0,-0.384,-0.073,-0.53,-0.22l-0.16,-0.16c-0.293,-0.293,-0.293,-0.768,0,-1.061c0.293,-0.293,0.768,-0.293,1.061,0l0.16,0.16c0.293,0.293,0.293,0.768,0,1.061C16.372,19.86,16.18,19.933,15.988,19.933zM17.586,18.335c-0.192,0,-0.384,-0.073,-0.53,-0.22l-0.16,-0.16c-0.293,-0.293,-0.293,-0.768,0,-1.061c0.293,-0.293,0.768,-0.293,1.061,0l0.16,0.16c0.293,0.293,0.293,0.768,0,1.061C17.97,18.262,17.778,18.335,17.586,18.335zM14.389,18.335c-0.192,0,-0.384,-0.073,-0.53,-0.22l-0.16,-0.16c-0.293,-0.293,-0.293,-0.768,0,-1.061c0.293,-0.293,0.768,-0.293,1.061,0l0.16,0.16c0.293,0.293,0.293,0.768,0,1.061C14.773,18.262,14.581,18.335,14.389,18.335zM19.185,16.736c-0.192,0,-0.384,-0.073,-0.53,-0.22l-0.16,-0.16c-0.293,-0.293,-0.293,-0.768,0,-1.061c0.293,-0.293,0.768,-0.293,1.061,0l0.16,0.16c0.293,0.293,0.293,0.768,0,1.061C19.569,16.663,19.377,16.736,19.185,16.736zM15.988,16.736c-0.192,0,-0.384,-0.073,-0.53,-0.22l-0.16,-0.16c-0.293,-0.293,-0.293,-0.768,0,-1.061c0.293,-0.293,0.768,-0.293,1.061,0l0.16,0.16c0.293,0.293,0.293,0.768,0,1.061C16.372,16.663,16.18,16.736,15.988,16.736zM12.791,16.736c-0.192,0,-0.384,-0.073,-0.53,-0.22l-0.16,-0.16c-0.293,-0.293,-0.293,-0.768,0,-1.061c0.293,-0.293,0.768,-0.293,1.061,0l0.16,0.16c0.293,0.293,0.293,0.768,0,1.061C13.175,16.663,12.983,16.736,12.791,16.736zM17.586,15.138c-0.192,0,-0.384,-0.073,-0.53,-0.22l-0.16,-0.16c-0.293,-0.293,-0.293,-0.768,0,-1.061c0.293,-0.293,0.768,-0.293,1.061,0l0.16,0.16c0.293,0.293,0.293,0.768,0,1.061C17.97,15.065,17.778,15.138,17.586,15.138zM14.389,15.138c-0.192,0,-0.384,-0.073,-0.53,-0.22l-0.16,-0.16c-0.293,-0.293,-0.293,-0.768,0,-1.061c0.293,-0.293,0.768,-0.293,1.061,0l0.16,0.16c0.293,0.293,0.293,0.768,0,1.061C14.773,15.065,14.581,15.138,14.389,15.138zM15.988,13.539c-0.192,0,-0.384,-0.073,-0.53,-0.22l-0.16,-0.16c-0.293,-0.293,-0.293,-0.768,0,-1.061c0.293,-0.293,0.768,-0.293,1.061,0l0.16,0.16c0.293,0.293,0.293,0.768,0,1.061C16.372,13.466,16.18,13.539,15.988,13.539z" fill="#787979"/>
  </g>
</svg>
