<?xml version="1.0" encoding="UTF-8"?>
<!DOCTYPE svg PUBLIC "-//W3C//DTD SVG 1.1//EN" "http://www.w3.org/Graphics/SVG/1.1/DTD/svg11.dtd">
<svg version="1.1" id="Layer_1" xmlns="http://www.w3.org/2000/svg" xmlns:xlink="http://www.w3.org/1999/xlink" x="0px" y="0px" width="32px" height="32px" viewBox="0 0 32 32" enable-background="new 0 0 32 32" xml:space="preserve">
  <g id="icon">
    <path d="M30.5,9.724L18.559,3.4L1.5,13.253v8.235l11.941,7.206L30.5,17.665V9.724z" fill="#FFFFFF" stroke="#383838" stroke-width="1" stroke-miterlimit="1"/>
    <path d="M30.5,9.724L13.441,20.312v8.382M13.441,28.694M13.441,20.312L1.5,13.253M30.5,9.724" fill="none" stroke="#383838" stroke-width="1" stroke-miterlimit="1"/>
    <path d="M19.939,9.499c0.549,-1.123,0.183,-2.073,-1.241,-1.558c-0.504,0.182,-0.922,0.556,-1.425,0.744c-0.463,0.173,-0.93,0.179,-1.355,0.161c-0.86,-0.036,-1.711,-0.364,-2.443,0.527c-0.499,0.607,0.313,1.039,-0.246,1.62c-0.175,0.182,-0.487,0.309,-0.746,0.416c-0.642,0.267,-1.138,0.498,-1.716,0.891c-1.082,0.734,-1.316,1.087,-1.33,1.575c-0.014,0.53,0.696,1.055,1.627,0.843c1.116,-0.254,1.352,-0.881,2.593,-1.162c1.047,-0.237,1.015,0.358,1.103,0.85c0.165,0.927,1.425,0.942,2.682,0.192c0.409,-0.244,1.172,-0.783,1.271,-1.152c0.08,-0.298,-0.333,-0.495,-0.474,-0.705c-0.494,-0.736,1.088,-0.931,1.983,-1.159c0.856,-0.218,2.293,-0.678,2.386,-1.607c0.032,-0.319,-0.746,-0.636,-1.177,-0.541C20.825,9.569,19.727,9.934,19.939,9.499z" fill="#FFFFFF" stroke="#228BCB" stroke-width="1" stroke-miterlimit="1"/>
  </g>
</svg>
