<?xml version="1.0" encoding="UTF-8"?>
<!DOCTYPE svg PUBLIC "-//W3C//DTD SVG 1.1//EN" "http://www.w3.org/Graphics/SVG/1.1/DTD/svg11.dtd">
<svg version="1.1" id="Layer_1" xmlns="http://www.w3.org/2000/svg" xmlns:xlink="http://www.w3.org/1999/xlink" x="0px" y="0px" width="16px" height="16px" viewBox="0 0 16 16" enable-background="new 0 0 16 16" xml:space="preserve">
  <g id="icon">
    <polygon points="11,0 11,1 5,1 5,0 4,0 4,3 5,3 5,2 11,2 11,3 12,3 12,0" fill="#6D6E71" stroke-linejoin="miter"/>
    <path d="M1,1h2v1H1v1H0V0h1V1zM15,0v1h-2v1h2v1h1V0H15z" fill="#B7B7B7"/>
    <rect x="0.5" y="4.5" width="15" height="11" fill="#FFFFFF" opacity="0.5"/>
    <path d="M16,16H0V4h16V16zM1,15h14V5H1V15z" fill="#6D6E71"/>
    <path d="M12,15h-1v-2H5v2H4v-2H1v-1h3V8H1V7h3V5h1v2h6V5h1v2h4v1h-4v4h4v1h-4V15zM5,12h6V8H5V12z" fill="#B7B7B7"/>
    <path d="M13,14H3V6h10V14zM4,13h8V7H4V13z" fill="#FFFFFF" opacity="0.5"/>
    <rect x="4.5" y="7.5" width="7" height="5" fill="#BAD2EE"/>
    <path d="M12,13H4V7h8V13zM5,12h6V8H5V12z" fill="#6485C3"/>
  </g>
</svg>
