<?xml version="1.0" encoding="UTF-8"?>
<!DOCTYPE svg PUBLIC "-//W3C//DTD SVG 1.1//EN" "http://www.w3.org/Graphics/SVG/1.1/DTD/svg11.dtd">
<svg version="1.1" id="Layer_1" xmlns="http://www.w3.org/2000/svg" xmlns:xlink="http://www.w3.org/1999/xlink" x="0px" y="0px" width="16px" height="16px" viewBox="0 0 16 16" enable-background="new 0 0 16 16" xml:space="preserve">
  <g id="icon">
    <path d="M9.5748,11.6886c-0.6577,0.5063,-1.4687,0.7851,-2.2925,0.7851c-2.0692,0,-3.7525,-1.6834,-3.7525,-3.7525c0,-1.9675,1.5183,-3.5948,3.4703,-3.7394V1.9458C5.3049,2.016,3.7066,2.72,2.4938,3.9327C1.2081,5.2185,0.5,6.919,0.5,8.7212c0,1.8022,0.7081,3.5027,1.9938,4.7884c1.2857,1.2857,2.9863,1.9938,4.7885,1.9938c1.6179,0,3.1883,-0.5827,4.422,-1.6407l0.0094,-0.0081L9.5748,11.6886z" fill="#FFFFFF" opacity="0.5"/>
    <path d="M7.2823,16.0034c-1.9357,0,-3.7618,-0.7601,-5.142,-2.1403C0.7601,12.483,0,10.6569,0,8.7211c0,-1.9357,0.7601,-3.7618,2.1402,-5.142c1.3001,-1.3,3.0187,-2.0575,4.8391,-2.1329L7.5,1.4247V5.446l-0.463,0.0343c-1.6863,0.125,-3.0072,1.5485,-3.0072,3.2408c0,1.7935,1.4591,3.2525,3.2525,3.2525c0.7109,0,1.4168,-0.2419,1.9875,-0.6813l0.3502,-0.2696l2.827,2.8628l-0.4178,0.3571C10.7056,15.3779,9.0195,16.0034,7.2823,16.0034zM6.5,2.4888c-1.374,0.173,-2.6554,0.8003,-3.6527,1.7975C1.6561,5.4775,1,7.0526,1,8.7211c0,1.6687,0.6561,3.2436,1.8473,4.4348c1.1913,1.1913,2.7663,1.8474,4.4349,1.8474c1.3234,0,2.6127,-0.4211,3.6833,-1.1947l-1.4526,-1.471c-0.6705,0.4125,-1.4478,0.636,-2.2308,0.636c-2.3449,0,-4.2525,-1.9077,-4.2525,-4.2525c0,-2.0555,1.4907,-3.8079,3.4703,-4.1779V2.4888z" fill="#6485C3"/>
    <path d="M13.5772,2.5635C12.3582,1.3094,10.7346,0.5819,9,0.5101v3.0358c1.952,0.1458,3.4703,1.7732,3.4703,3.7398c0,0.9865,-0.4002,1.953,-1.0979,2.6518l-0.1651,0.1654l2.1419,2.1419l0.1654,-0.1656C14.7764,10.8155,15.5,9.0683,15.5,7.2857C15.5,5.5161,14.8172,3.8391,13.5772,2.5635z" fill="#FFFFFF" opacity="0.5"/>
    <path d="M13.3496,12.9522l-2.8491,-2.8491l0.5182,-0.5189c0.6048,-0.6058,0.9517,-1.4436,0.9517,-2.2985c0,-1.6915,-1.3211,-3.1151,-3.0076,-3.2411L8.5,4.0099V-0.011l0.5207,0.0216c1.8625,0.0771,3.6081,0.86,4.915,2.2044l0,0C15.2669,3.5845,16,5.3853,16,7.2856c0,1.9142,-0.777,3.7901,-2.1316,5.1468L13.3496,12.9522zM11.9082,10.0965l1.4367,1.4368C14.3998,10.3812,15,8.848,15,7.2856c0,-1.6386,-0.6326,-3.1919,-1.7813,-4.3737C12.2136,1.8781,10.9086,1.229,9.5,1.0529v2.0548c1.9796,0.3709,3.4703,2.1233,3.4703,4.1779C12.9703,8.3148,12.586,9.3248,11.9082,10.0965z" fill="#EEAC55"/>
  </g>
</svg>
