<?xml version="1.0" encoding="UTF-8"?>
<!DOCTYPE svg PUBLIC "-//W3C//DTD SVG 1.1//EN" "http://www.w3.org/Graphics/SVG/1.1/DTD/svg11.dtd">
<svg version="1.1" id="Layer_1" xmlns="http://www.w3.org/2000/svg" xmlns:xlink="http://www.w3.org/1999/xlink" x="0px" y="0px" width="16px" height="16px" viewBox="0 0 16 16" enable-background="new 0 0 16 16" xml:space="preserve">
  <g id="icon">
    <path d="M2.2517,5.6425l3.1079,-3.5303l3.4358,4.94L5.3,9.4L2.2517,5.6425zM15.5,12.037V4.6291l-4.0794,3.2654L15.5,12.037z" fill="#FFFFFF" opacity="0.5"/>
    <path d="M11.1148,7.5755L16,3.5715v9.071l-1,-1.211V5.7868l-3.2238,2.5268L11.1148,7.5755zM2.6276,6.0823l2.677,-3.1579l3.0029,4.4323l0.8759,-0.509L5.4146,1.3L1.9758,5.3027L2.6276,6.0823z" fill="#EEAC55"/>
    <polygon points="0.5,15.5 0.5,3.9801 5.2279,9.5219 10.007,6.5343 15.5,12.2323 15.5,15.5" fill="#FFFFFF" stroke-linejoin="miter" opacity="0.5"/>
    <path d="M16,16H0V2.6237l5.3285,6.2457l4.7572,-2.9739L16,12.0305V16zM1,15h14v-2.566L9.9284,7.1731l-4.801,3.0013L1,5.3366V15z" fill="#6485C3"/>
  </g>
</svg>
