<?xml version="1.0" encoding="UTF-8"?>
<!DOCTYPE svg PUBLIC "-//W3C//DTD SVG 1.1//EN" "http://www.w3.org/Graphics/SVG/1.1/DTD/svg11.dtd">
<svg version="1.1" id="Layer_1" xmlns="http://www.w3.org/2000/svg" xmlns:xlink="http://www.w3.org/1999/xlink" x="0px" y="0px" width="16px" height="16px" viewBox="0 0 16 16" enable-background="new 0 0 16 16" xml:space="preserve">
  <g id="icon">
    <path d="M10.9694,11.3318l0.1822,-0.1824c0.8283,-0.8294,1.3034,-1.9766,1.3034,-3.1474c0,-2.3646,-1.8496,-4.3175,-4.2109,-4.4459L8,3.5428V0l0.2666,0.0088c2.0709,0.0686,4.0119,0.9296,5.4654,2.4244C15.1946,3.9376,16,5.9152,16,8.002c0,2.1022,-0.8536,4.1626,-2.3419,5.6528l-0.1825,0.1827L10.9694,11.3318z" fill="#EEAC55"/>
    <path d="M3.6845,9.109c-0.0909,-0.3541,-0.1394,-0.725,-0.1394,-1.107c0,-2.1064,1.4668,-3.8841,3.4549,-4.3385V0.0679C5.251,0.2885,3.6221,1.0852,2.3518,2.3552C0.8352,3.8714,0,5.8768,0,8.002c0,0.8157,0.1241,1.6134,0.3615,2.3729L3.6845,9.109z" fill="#6485C3"/>
    <path d="M10.0741,11.9384c-0.6385,0.3362,-1.352,0.5174,-2.0741,0.5174c-1.721,0,-3.2161,-0.9813,-3.9577,-2.4131L0.7206,11.3082c0.3935,0.8581,0.9409,1.6504,1.6312,2.3406C3.8684,15.165,5.8743,16,8,16c1.6674,0,3.2919,-0.5248,4.6462,-1.4896L10.0741,11.9384z" fill="#CB525D"/>
  </g>
</svg>
