<?xml version="1.0" encoding="UTF-8"?>
<!DOCTYPE svg PUBLIC "-//W3C//DTD SVG 1.1//EN" "http://www.w3.org/Graphics/SVG/1.1/DTD/svg11.dtd">
<svg version="1.1" id="Layer_1" xmlns="http://www.w3.org/2000/svg" xmlns:xlink="http://www.w3.org/1999/xlink" x="0px" y="0px" width="16px" height="16px" viewBox="0 0 16 16" enable-background="new 0 0 16 16" xml:space="preserve">
  <g id="icon">
    <path d="M16,13.8082V16H0V6.5521l5.4396,3.9042l4.6817,-2.9869L16,13.8082z" fill="#6485C3"/>
    <path d="M8.528,7.5369l-0.4218,0.2691l0,0l-0.326,0.208l-0.0958,0.0611l0,0L5.466,9.4904L2.6802,7.491l0,0l-0.4067,-0.2919l3.2154,-4.044L8.528,7.5369zM12.089,8.4146l0.341,0.3677l0,0l2.57,2.7712l0,0l1,1.0783V5.3141L12.089,8.4146z" fill="#CB525D"/>
    <path d="M3.3701,4.5345l-0.3143,0.3953l0,0L1.6228,6.7321L0.5,5.9262l-0.5,-0.3589V0.9694L3.3701,4.5345zM13.5767,6.2142L10.715,2.7521L7.8722,5.1876l0.5729,0.826l0,0l0.7578,1.0927l1.051,-0.6705l1.2895,1.3904l1.6415,-1.3013v0L13.5767,6.2142z" fill="#EEAC55"/>
  </g>
</svg>
