<?xml version="1.0" encoding="UTF-8"?>
<!DOCTYPE svg PUBLIC "-//W3C//DTD SVG 1.1//EN" "http://www.w3.org/Graphics/SVG/1.1/DTD/svg11.dtd">
<svg version="1.1" id="Layer_1" xmlns="http://www.w3.org/2000/svg" xmlns:xlink="http://www.w3.org/1999/xlink" x="0px" y="0px" width="16px" height="16px" viewBox="0 0 16 16" enable-background="new 0 0 16 16" xml:space="preserve">
  <g id="icon">
    <path d="M4.5,11.5M4.5,11.5M0.5,11.5v4h4l2,-3.2V8.5M4.5,11.5v4" fill="#FFFFFF" opacity="0.5"/>
    <polygon points="0,11.5 0,16 4.7771,16 7,12.4434 7,8.5 6,8.5 6,12.1566 5,13.7566 5,11.5 4,11.5 4,15 1,15 1,11.5" fill="#6485C3" stroke-linejoin="miter"/>
    <path d="M4.5,3.5M4.5,3.5M0.5,11.5h4l2,-3.2V0.5H2.6L0.5,3.5V11.5zM0.5,2.5M6.5,0.5L4.5,3.5v8M0.5,3.5h4M0.5,2.5" fill="#FFFFFF" opacity="0.5"/>
    <path d="M2.3397,0L7,0v8.4434L4.7771,12H0l0,-8.6576L2.3397,0zM4,11V4H1v7H4zM5.5657,1H2.8604l-1.4,2h2.7721L5.5657,1zM6,8.1566V2.1514l-1,1.5v6.1052L6,8.1566z" fill="#EEAC55"/>
    <path d="M12.5,7.5M12.5,7.5M8.5,7.5v8h4l2,-3.2V4.5M12.5,7.5v8" fill="#FFFFFF" opacity="0.5"/>
    <polygon points="8,7.5 8,16 12.7771,16 15,12.4434 15,4.5 14,4.5 14,12.1566 13,13.7566 13,7.5 12,7.5 12,15 9,15 9,7.5" fill="#6485C3" stroke-linejoin="miter"/>
    <path d="M12.5,3.5M12.5,3.5M8.5,7.5h4l2,-3.2V0.5h-3.9L8.5,3.5V7.5zM8.5,2.5M14.5,0.5l-2,3v4M8.5,3.5h4M8.5,2.5" fill="#FFFFFF" opacity="0.5"/>
    <path d="M10.3396,0L15,0v4.4434L12.7771,8H8V3.3424L10.3396,0zM12,7V4H9v3H12zM13.5657,1h-2.7054l-1.4,2h2.7721L13.5657,1zM14,4.1566V2.1514l-1,1.5v2.1052L14,4.1566z" fill="#EEAC55"/>
  </g>
</svg>
