<?xml version="1.0" encoding="UTF-8"?>
<!DOCTYPE svg PUBLIC "-//W3C//DTD SVG 1.1//EN" "http://www.w3.org/Graphics/SVG/1.1/DTD/svg11.dtd">
<svg version="1.1" id="Layer_1" xmlns="http://www.w3.org/2000/svg" xmlns:xlink="http://www.w3.org/1999/xlink" x="0px" y="0px" width="16px" height="16px" viewBox="0 0 16 16" enable-background="new 0 0 16 16" xml:space="preserve">
  <g id="icon">
    <path d="M10.5,2.5M10.5,2.5" fill="#FFFFFF" opacity="0.5"/>
    <path d="M10.3023,2l2.2,-2h2.7906l-2,2H13H10.3023zM14,2.7071V3v3.7023l2,-2.1V0.7071L14,2.7071zM13,3h-3v4h3V3z" fill="#EEAC55"/>
    <polygon points="16,0 15.2929,0 13.2929,2 13,2 10.3023,2 10,2.2834 10,3 13,3 13,7 13.7119,7 14,6.7023 14,3 14,2.7071 16,0.7071" fill="#FFFFFF" stroke-linejoin="miter" opacity="0.5"/>
    <path d="M0.3023,2l2.4,-2h8.4906l-2.2,2H8.9H0.3023zM9,3H0v4h9V3z" fill="#6485C3"/>
    <polygon points="12.4,0 11.1929,0 9.0929,2 9,2 0.3023,2 0,2.2834 0,3 9,3 9,7 10,7 10,2.3071" fill="#FFFFFF" stroke-linejoin="miter" opacity="0.5"/>
    <path d="M5.5,10.5M5.5,10.5" fill="#FFFFFF" opacity="0.5"/>
    <path d="M5.3023,10l2.2,-2h7.7906l-2,2H13H5.3023zM14,10.7071V11v3.7023l2,-2.1V8.7071L14,10.7071zM13,11H5v4h8V11z" fill="#EEAC55"/>
    <polygon points="16,8 15.2929,8 13.2929,10 13,10 5.3023,10 5,10.2834 5,11 13,11 13,15 13.7119,15 14,14.7023 14,11 14,10.7071 16,8.7071" fill="#FFFFFF" stroke-linejoin="miter" opacity="0.5"/>
    <path d="M0.3023,10l2.4,-2h3.4906l-2.2,2H3.9H0.3023zM4,11H0v4h4V11z" fill="#6485C3"/>
    <polygon points="7.4,8 6.1929,8 4.0929,10 4,10 0.3023,10 0,10.2834 0,11 4,11 4,15 5,15 5,10.3071" fill="#FFFFFF" stroke-linejoin="miter" opacity="0.5"/>
  </g>
</svg>
