<?xml version="1.0" encoding="UTF-8"?>
<!DOCTYPE svg PUBLIC "-//W3C//DTD SVG 1.1//EN" "http://www.w3.org/Graphics/SVG/1.1/DTD/svg11.dtd">
<svg version="1.1" id="Layer_1" xmlns="http://www.w3.org/2000/svg" xmlns:xlink="http://www.w3.org/1999/xlink" x="0px" y="0px" width="16px" height="16px" viewBox="0 0 16 16" enable-background="new 0 0 16 16" xml:space="preserve">
  <g id="icon">
    <polygon points="0.5,0.5 0.5,5.4832 5.3441,8.915 10.3934,7.3442 15.5,10.1597 15.5,0.5" fill="#FFFFFF" stroke-linejoin="miter" opacity="0.5"/>
    <polygon points="0,0 0,5.0789 1,5.8875 1,1.3111 1,1 15,1 15,1.1344 15,8 15,9.8473 16,10.4721 16,0" fill="#EEAC55" stroke-linejoin="miter"/>
    <polygon points="0.5,15.5 0.5,6.055 5.1016,9.2907 10.2458,7.6848 15.5,10.5926 15.5,15.5" fill="#FFFFFF" stroke-linejoin="miter" opacity="0.5"/>
    <path d="M16,16H0V5.0922L5.1877,8.74l5.1131,-1.5961L16,10.2978V16zM1,15h14v-4.1126l-4.8093,-2.6616L5.0154,9.8414L1,7.0179V15z" fill="#6485C3"/>
  </g>
</svg>
