<?xml version="1.0" encoding="UTF-8"?>
<!DOCTYPE svg PUBLIC "-//W3C//DTD SVG 1.1//EN" "http://www.w3.org/Graphics/SVG/1.1/DTD/svg11.dtd">
<svg version="1.1" id="Layer_1" xmlns="http://www.w3.org/2000/svg" xmlns:xlink="http://www.w3.org/1999/xlink" x="0px" y="0px" width="16px" height="16px" viewBox="0 0 16 16" enable-background="new 0 0 16 16" xml:space="preserve">
  <g id="icon">
    <polygon points="15,15 4,15 4,1 11,1 11,5.0125 15,5" fill="#FFFFFF" stroke-linejoin="miter" opacity="0.4"/>
    <polygon points="11.2592,16 9.3,10 10.3821,10 11.6376,13.9495 12.9104,10 13.9944,10 12.0089,16" fill="#6485C3" stroke-linejoin="miter"/>
    <path d="M2.7662,16c-0.3925,0,-0.7621,-0.071,-1.0986,-0.2112c-0.3413,-0.1421,-0.6412,-0.35,-0.8913,-0.6176c-0.2474,-0.2648,-0.4415,-0.5868,-0.5768,-0.9571C0.0672,13.8521,0,13.4436,0,13c0,-0.4298,0.0672,-0.8309,0.1998,-1.1921c0.1354,-0.3689,0.3312,-0.6919,0.582,-0.9601c0.2535,-0.2709,0.5602,-0.4828,0.9117,-0.6294c0.347,-0.1449,0.7314,-0.2184,1.1425,-0.2184c0.1881,0,0.3692,0.0148,0.5382,0.0439c0.1732,0.0298,0.3407,0.0756,0.4975,0.1361c0.1539,0.0594,0.3035,0.1332,0.4449,0.2195c0.1367,0.0836,0.2717,0.1807,0.4014,0.2889l-0.6392,0.7684c-0.0923,-0.077,-0.1873,-0.1455,-0.2824,-0.2036c-0.0902,-0.055,-0.1857,-0.1022,-0.2838,-0.14c-0.0956,-0.0368,-0.1992,-0.065,-0.3079,-0.0837C3.0914,11.0099,2.9674,11,2.836,11c-0.2784,0,-0.5335,0.0476,-0.7581,0.1413c-0.2232,0.0932,-0.4087,0.2208,-0.5671,0.3901c-0.1588,0.1698,-0.2845,0.3789,-0.3735,0.6214c-0.0919,0.2504,-0.1385,0.5354,-0.1385,0.8472c0,0.3259,0.0467,0.6187,0.1387,0.8703c0.0891,0.2437,0.2129,0.4514,0.3683,0.6177c0.1547,0.1656,0.3331,0.2891,0.5455,0.3775c0.2143,0.0893,0.4548,0.1345,0.7149,0.1345c0.1682,0,0.3216,-0.0137,0.4559,-0.0408c0.1336,-0.0269,0.2559,-0.0638,0.3635,-0.1096c0.1066,-0.0454,0.2054,-0.0998,0.2936,-0.1619c0.0948,-0.0667,0.1849,-0.1417,0.2678,-0.2227l0.6979,0.7153c-0.1211,0.1185,-0.2528,0.228,-0.3913,0.3255c-0.1456,0.1024,-0.3061,0.1913,-0.4772,0.2641c-0.1698,0.0723,-0.3573,0.1294,-0.5571,0.1697C3.2202,15.9796,3.0005,16,2.7662,16z" fill="#6485C3"/>
    <path d="M7.1095,16c-0.2074,0,-0.399,-0.0187,-0.5695,-0.0556c-0.1748,-0.0377,-0.3393,-0.0939,-0.4885,-0.167c-0.1485,-0.0727,-0.2872,-0.1624,-0.4123,-0.2666c-0.1135,-0.0944,-0.2925,-0.2716,-0.399,-0.3949l0.7554,-0.6542c0.0703,0.0814,0.2101,0.2202,0.2822,0.2801c0.0641,0.0534,0.1356,0.0995,0.2126,0.1372c0.0767,0.0375,0.1643,0.0671,0.2603,0.0878c0.1016,0.0219,0.2222,0.0331,0.3589,0.0331c0.1854,0,0.3485,-0.0268,0.4847,-0.0796c0.1325,-0.0514,0.2388,-0.1172,0.3248,-0.2013c0.0845,-0.0827,0.1476,-0.1773,0.1925,-0.2892c0.047,-0.117,0.0699,-0.2419,0.0699,-0.3817c0,-0.1095,-0.0168,-0.1964,-0.0485,-0.2516c-0.0419,-0.0728,-0.0953,-0.1325,-0.1634,-0.1822c-0.0859,-0.0628,-0.1885,-0.1164,-0.3048,-0.1591c-0.1538,-0.0564,-0.3119,-0.1107,-0.4701,-0.1615c-0.1713,-0.0549,-0.3417,-0.1128,-0.5062,-0.1721c-0.2018,-0.0726,-0.3854,-0.1665,-0.5456,-0.2792c-0.1808,-0.1271,-0.3296,-0.2863,-0.4421,-0.4732c-0.1239,-0.206,-0.1868,-0.4536,-0.1868,-0.7362c0,-0.2148,0.0419,-0.4239,0.1247,-0.6216c0.0839,-0.2007,0.2076,-0.3794,0.3676,-0.5312c0.1568,-0.1485,0.3489,-0.2673,0.5711,-0.353c0.2188,-0.0845,0.4668,-0.1273,0.737,-0.1273c0.1706,0,0.3275,0.015,0.4661,0.0447c0.1356,0.0291,0.2595,0.0673,0.3686,0.1137c0.1125,0.0479,0.2124,0.1024,0.2976,0.1622c0.0728,0.051,0.1338,0.0983,0.1868,0.1448c0.0316,0.0277,0.0831,0.0771,0.1526,0.1439c0.0233,0.0224,0.0429,0.0413,0.0516,0.0494l-0.6759,0.7362c-0.01,-0.0092,-0.0363,-0.0343,-0.0676,-0.0645c-0.0329,-0.0316,-0.1014,-0.0975,-0.1193,-0.1133c-0.0166,-0.0146,-0.0486,-0.0406,-0.1013,-0.0776c-0.0194,-0.0136,-0.0554,-0.0354,-0.1155,-0.061c-0.0503,-0.0214,-0.1132,-0.0403,-0.1866,-0.0561c-0.0699,-0.0149,-0.1565,-0.0226,-0.2572,-0.0226c-0.1468,0,-0.2738,0.0203,-0.3776,0.0604c-0.1001,0.0387,-0.1822,0.0879,-0.2438,0.1463c-0.0591,0.056,-0.1025,0.1185,-0.1328,0.191c-0.0318,0.076,-0.0472,0.1529,-0.0472,0.2355c0,0.0967,0.015,0.1728,0.0434,0.22c0.0409,0.0678,0.0934,0.1238,0.1607,0.1711c0.0872,0.0614,0.1913,0.114,0.3093,0.1564c0.1537,0.0553,0.3129,0.1094,0.4732,0.1608c0.1712,0.0549,0.3425,0.1138,0.5092,0.1749c0.2038,0.0749,0.3889,0.1726,0.5503,0.2906c0.1804,0.132,0.3282,0.297,0.4396,0.4905c0.1206,0.2097,0.1818,0.4623,0.1818,0.7507c0,0.2664,-0.0478,0.5205,-0.1421,0.755c-0.0963,0.2396,-0.238,0.452,-0.4211,0.6313c-0.1822,0.1781,-0.4049,0.3188,-0.6621,0.4185C7.7031,15.9505,7.4187,16,7.1095,16z" fill="#6485C3"/>
    <polygon points="11.3625,0 3,0 3,9 4,9 4,1 11,1 11,5.0125 15,5 15,15 14,15 14,16 15,16 16,16 16,15 16,4.65" fill="#6D6E71" stroke-linejoin="miter"/>
  </g>
</svg>
