<?xml version="1.0" encoding="UTF-8"?>
<!DOCTYPE svg PUBLIC "-//W3C//DTD SVG 1.1//EN" "http://www.w3.org/Graphics/SVG/1.1/DTD/svg11.dtd">
<svg version="1.1" id="Layer_1" xmlns="http://www.w3.org/2000/svg" xmlns:xlink="http://www.w3.org/1999/xlink" x="0px" y="0px" width="16px" height="16px" viewBox="0 0 16 16" enable-background="new 0 0 16 16" xml:space="preserve">
  <g id="icon">
    <polygon points="3.9,15.1 3.9,2.7379 1.1302,5.2461 0.3247,4.3567 4.1418,0.9 5.1,0.9 5.1,15.1" fill="#6485C3" stroke-linejoin="miter"/>
    <path d="M6.9,15.1v-0.9184l4.552,-4.9649c0.3761,-0.3792,0.7367,-0.752,1.0745,-1.1107c0.3215,-0.3416,0.6081,-0.6942,0.8517,-1.0481c0.2329,-0.3387,0.4206,-0.6972,0.5578,-1.0656c0.1295,-0.3476,0.1952,-0.7314,0.1952,-1.1409c0,-0.491,-0.0824,-0.9085,-0.245,-1.2407c-0.1649,-0.3368,-0.3804,-0.6153,-0.6402,-0.8277c-0.266,-0.2173,-0.5758,-0.38,-0.9208,-0.4834c-0.3657,-0.1096,-0.7427,-0.1651,-1.1205,-0.1651c-0.4339,0,-0.8376,0.0659,-1.1999,0.1958c-0.3576,0.1283,-0.6766,0.3122,-0.948,0.5465c-0.269,0.2323,-0.4935,0.5211,-0.6673,0.8583c-0.1774,0.3444,-0.2966,0.7403,-0.3542,1.1766l-0.0131,0.0991l-1.1896,-0.1569l0.0131,-0.0992c0.0757,-0.5737,0.2362,-1.1017,0.4771,-1.5693c0.2445,-0.4744,0.5641,-0.8838,0.9498,-1.2169c0.3835,-0.331,0.8299,-0.5893,1.327,-0.7677c0.4927,-0.1768,1.0327,-0.2664,1.6052,-0.2664c0.4947,0,0.9876,0.0725,1.465,0.2156c0.4972,0.149,0.9466,0.3858,1.3357,0.7037c0.3945,0.3226,0.7171,0.7362,0.9586,1.2293c0.2437,0.498,0.3672,1.093,0.3672,1.7684c0,0.5529,-0.0911,1.0777,-0.2708,1.5598c-0.1716,0.4607,-0.405,0.9071,-0.6937,1.3269c-0.278,0.4039,-0.6031,0.8044,-0.9665,1.1904c-0.343,0.3643,-0.7086,0.7423,-1.0867,1.1235L8.7861,13.9H15.2v1.2H6.9z" fill="#6485C3"/>
  </g>
</svg>
