<?xml version="1.0" encoding="UTF-8"?>
<!DOCTYPE svg PUBLIC "-//W3C//DTD SVG 1.1//EN" "http://www.w3.org/Graphics/SVG/1.1/DTD/svg11.dtd">
<svg version="1.1" id="Layer_1" xmlns="http://www.w3.org/2000/svg" xmlns:xlink="http://www.w3.org/1999/xlink" x="0px" y="0px" width="16px" height="16px" viewBox="0 0 16 16" enable-background="new 0 0 16 16" xml:space="preserve">
  <g id="icon">
    <path d="M14.5,15.5H3.5V0.5h11V15.5z" fill="#FFFFFF" opacity="0.5"/>
    <rect x="1" width="3" height="16" fill="#B7B7B7"/>
    <path d="M15,16H1V0h14V16zM2,15h12V1H2V15z" fill="#6D6E71"/>
    <path d="M9,4c-2.2056,0,-4,1.7944,-4,4s1.7944,4,4,4s4,-1.7944,4,-4S11.2056,4,9,4zM11.8534,6.7619h-1.3847c-0.1372,-0.6304,-0.3595,-1.2573,-0.6211,-1.7547C10.7486,5.2628,11.4843,5.9145,11.8534,6.7619zM12.1111,8c0,0.1797,-0.0162,0.3556,-0.0456,0.527h-1.4761c0.0177,-0.1773,0.0269,-0.3487,0.0269,-0.5105c0,-0.1747,-0.0107,-0.357,-0.0308,-0.5435h1.48C12.0949,7.6444,12.1111,7.8203,12.1111,8zM8.241,9.2381h1.5147c-0.174,0.7612,-0.4752,1.4686,-0.768,1.8415C8.6794,10.7045,8.3993,9.9956,8.241,9.2381zM8.1316,8.527c-0.0168,-0.1734,-0.0257,-0.3447,-0.0257,-0.5105c0,-0.1788,0.0106,-0.3611,0.0301,-0.5435h1.7343c0.0226,0.1858,0.035,0.3684,0.035,0.5435c0,0.1664,-0.0101,0.3376,-0.0288,0.5105H8.1316zM9.7394,6.7619H8.2551c0.168,-0.7431,0.455,-1.4181,0.7409,-1.795C9.2763,5.3571,9.5646,6.0408,9.7394,6.7619zM8.1297,5.0137c-0.2655,0.502,-0.4725,1.1282,-0.5982,1.7482H6.1466C6.5126,5.9216,7.2391,5.2737,8.1297,5.0137zM7.418,8.527H5.9344c-0.0294,-0.1714,-0.0456,-0.3473,-0.0456,-0.527s0.0162,-0.3556,0.0456,-0.527h1.4888c-0.0188,0.1882,-0.0285,0.3709,-0.0285,0.5435C7.3947,8.1804,7.4026,8.3516,7.418,8.527zM6.1466,9.2381h1.3704c0.1168,0.6187,0.313,1.2382,0.5688,1.7357C7.215,10.7056,6.5066,10.0646,6.1466,9.2381zM9.8846,10.9823c0.2613,-0.5027,0.4691,-1.1289,0.5954,-1.7442h1.3735C11.4893,10.0739,10.7687,10.7195,9.8846,10.9823z" fill="#6485C3"/>
  </g>
</svg>
