<?xml version="1.0" encoding="UTF-8"?>
<!DOCTYPE svg PUBLIC "-//W3C//DTD SVG 1.1//EN" "http://www.w3.org/Graphics/SVG/1.1/DTD/svg11.dtd">
<svg version="1.1" id="Layer_1" xmlns="http://www.w3.org/2000/svg" xmlns:xlink="http://www.w3.org/1999/xlink" x="0px" y="0px" width="16px" height="16px" viewBox="0 0 16 16" enable-background="new 0 0 16 16" xml:space="preserve">
  <g id="icon">
    <path d="M14.5,15.5H3.5V0.5h11V15.5z" fill="#FFFFFF" opacity="0.5"/>
    <rect x="1" width="3" height="16" fill="#B7B7B7"/>
    <path d="M15,16H1V0h14V16zM2,15h12V1H2V15z" fill="#6D6E71"/>
    <path d="M11.2471,7.4946c0.0089,-0.3373,0.0178,-0.6954,0.0268,-1.0746l0.0031,-0.1313c0.0027,-0.1141,0.0049,-0.2058,0.0065,-0.2962h1.2357v-1H5.56v1h1.4328c-0.0186,0.8597,-0.0771,1.4353,-0.1626,2.0388c-0.1071,0.7542,-0.2368,1.3725,-0.3856,1.8376c-0.1735,0.5424,-0.3252,0.8035,-0.422,0.9269c-0.0651,0.0832,-0.1769,0.1786,-0.4646,0.1786v1c0.5385,0,0.9597,-0.1891,1.2518,-0.5619c0.217,-0.2771,0.4091,-0.6823,0.5872,-1.2389c0.1659,-0.5186,0.3083,-1.192,0.4232,-2.0019c0.0915,-0.6458,0.1538,-1.2597,0.1728,-2.1792h2.2904c-0.0016,0.0828,-0.0036,0.1679,-0.0061,0.2724l-0.0031,0.1316c-0.009,0.3781,-0.0179,0.7354,-0.0267,1.0716c-0.009,0.3375,-0.0167,0.6464,-0.0234,0.9268c-0.0067,0.2841,-0.0102,0.5243,-0.0102,0.7141c0,0.5286,0.0304,0.9795,0.0879,1.3041c0.0651,0.3674,0.1629,0.6548,0.299,0.8782c0.1598,0.2628,0.3687,0.4466,0.6209,0.5464c0.238,0.0941,0.4648,0.1399,0.6933,0.1399h0.29v-1h-0.29c-0.1016,0,-0.205,-0.0222,-0.3254,-0.0698c-0.0451,-0.0178,-0.0903,-0.0636,-0.1346,-0.1364c-0.0478,-0.0784,-0.1157,-0.2344,-0.1686,-0.5327c-0.0468,-0.2642,-0.0726,-0.6654,-0.0726,-1.1297c0,-0.1819,0.0033,-0.4142,0.0099,-0.6903C11.2305,8.1393,11.2382,7.8313,11.2471,7.4946z" fill="#52B250"/>
  </g>
</svg>
