<?xml version="1.0" encoding="UTF-8"?>
<!DOCTYPE svg PUBLIC "-//W3C//DTD SVG 1.1//EN" "http://www.w3.org/Graphics/SVG/1.1/DTD/svg11.dtd">
<svg version="1.1" id="Layer_1" xmlns="http://www.w3.org/2000/svg" xmlns:xlink="http://www.w3.org/1999/xlink" x="0px" y="0px" width="16px" height="16px" viewBox="0 0 16 16" enable-background="new 0 0 16 16" xml:space="preserve">
  <g id="icon">
    <path d="M3.8771,9H14.346c-0.0247,-0.0476,-0.0493,-0.095,-0.0743,-0.1431l-0.0062,-0.012c-0.0794,-0.1527,-0.1602,-0.3081,-0.2414,-0.4663c-0.5081,-0.9898,-1.1976,-2.9114,-1.5106,-4.5718L12.4556,3.5h2.6691c0.0434,0,0.0786,-0.0059,0.1106,-0.0184c0.1526,-0.0599,0.2405,-0.2167,0.214,-0.3807C15.4447,3.0739,14.9709,0.5,12.9008,0.5H4.5479l-0.1212,0.0068C2.666,0.6053,1.5284,1.7663,1.5284,3.4644c0,1.1536,0.5478,2.609,1.5843,4.209C3.4014,8.1192,3.6556,8.5619,3.8771,9z" fill="#FFFFFF" opacity="0.5"/>
    <path d="M3.2335,9h1.2403c-0.2462,-0.4934,-0.5438,-1.0166,-0.9051,-1.5718c-0.9679,-1.4872,-1.5009,-2.874,-1.5009,-3.9049c0,-1.2218,0.7062,-2.0953,1.8909,-2.3425c0.1076,0.1374,0.2418,0.256,0.361,0.3613c0.8326,0.7357,1.0956,1.7888,1.1061,1.8319c0.0861,0.406,0.4462,0.7006,0.8565,0.7006h5.726c0.3026,1.5235,0.9306,3.3931,1.5332,4.5616c0.0637,0.1234,0.1266,0.2437,0.1893,0.3639h1.2369c-0.0666,-0.1286,-0.1343,-0.2586,-0.2034,-0.3908c-0.0808,-0.1547,-0.163,-0.3121,-0.2457,-0.4724c-0.5221,-1.0121,-1.0896,-2.6738,-1.3888,-4.0623h1.9718c0.1113,0,0.216,-0.0189,0.3111,-0.0561c0.395,-0.1543,0.6232,-0.5554,0.5549,-0.9754C15.8296,2.1966,15.0059,0,12.8812,0h-7.956c-0.127,0,-0.2851,0,-0.4339,0.0203C2.3848,0.0949,0.9695,1.5026,0.9695,3.5232c0,1.5885,0.9122,3.3235,1.6775,4.4993C2.8624,8.3537,3.0567,8.6794,3.2335,9zM12.8812,1.0932c1.2916,0,1.8,1.3714,1.9453,1.8882H6.4558c-0.1056,-0.3558,-0.3982,-1.1638,-1.0388,-1.8882H12.8812z" fill="#EEAC55"/>
    <path d="M12,8H6.3V7h5.7V8zM11.1,6H4.4V5h6.7V6z" fill="#7B7B7B"/>
    <path d="M13.7448,10.4206l-0.0077,-0.0179c-0.0107,-0.0245,-0.0308,-0.0774,-0.0313,-0.0788l-0.124,-0.3239l-0.7186,-0.001l-0.1282,0.3131c0,0,-0.0267,0.0654,-0.0378,0.0897l-2.1236,5.2158l0.9312,0.3823l0.6331,-1.5552h2.1596L14.9312,16l0.9311,-0.3826L13.7448,10.4206zM12.553,13.457l0.6641,-1.6314l0.6647,1.6314H12.553zM3.2939,16h-0.7337L0.2386,10.3397l0.9252,-0.3795l1.7652,4.3038l1.7712,-4.2877l0.9242,0.3818L3.2939,16zM10.1625,13.5019c-0.1092,-0.2194,-0.2644,-0.4087,-0.4611,-0.5624c-0.0183,-0.0143,-0.037,-0.0283,-0.056,-0.0419c0.1441,-0.1547,0.2606,-0.3438,0.3387,-0.5508c0.076,-0.2018,0.1146,-0.405,0.1146,-0.6042c0,-0.5461,-0.1967,-0.9978,-0.569,-1.3062C9.1753,10.1427,8.6829,10,8.0244,10H6v6h2.2222c0.2952,0,0.5672,-0.0336,0.8084,-0.0998c0.2625,-0.0719,0.492,-0.1837,0.6821,-0.3323c0.2028,-0.1585,0.3592,-0.3594,0.4648,-0.5971c0.1033,-0.2326,0.1514,-0.4711,0.1514,-0.7506C10.3289,13.9583,10.276,13.73,10.1625,13.5019zM7,11h1.0244c0.4044,0,0.7043,0.0714,0.8673,0.2064c0.1374,0.1138,0.207,0.2942,0.207,0.5361c0,0.0783,-0.0169,0.1629,-0.0503,0.2514c-0.0348,0.0921,-0.0879,0.1764,-0.1495,0.2373c-0.0738,0.0729,-0.1778,0.1361,-0.3091,0.1882c-0.135,0.0535,-0.3126,0.0807,-0.5279,0.0807H7V11zM9.2636,14.5649c-0.0388,0.0875,-0.0934,0.1578,-0.1667,0.2151c-0.0852,0.0666,-0.1963,0.1189,-0.3306,0.1558C8.611,14.9784,8.428,15,8.2222,15H7v-1.5h1.2297c0.1935,0,0.3688,0.0223,0.5208,0.0661c0.1355,0.0392,0.2483,0.0934,0.3353,0.1614c0.0794,0.062,0.1387,0.1339,0.1815,0.2198c0.0438,0.088,0.0616,0.167,0.0616,0.2729C9.3289,14.3588,9.3094,14.4619,9.2636,14.5649z" fill="#6485C3"/>
  </g>
</svg>
