<?xml version="1.0" encoding="UTF-8"?>
<!DOCTYPE svg PUBLIC "-//W3C//DTD SVG 1.1//EN" "http://www.w3.org/Graphics/SVG/1.1/DTD/svg11.dtd">
<svg version="1.1" id="Layer_1" xmlns="http://www.w3.org/2000/svg" xmlns:xlink="http://www.w3.org/1999/xlink" x="0px" y="0px" width="16px" height="16px" viewBox="0 0 16 16" enable-background="new 0 0 16 16" xml:space="preserve">
  <g id="icon">
    <path d="M5.5,0.5v3.518c2.116,0.23,3.711,1.986,3.711,4.186c0,0.099,-0.004,0.198,-0.011,0.297h1.3v1.65L13.882,8.5H15.5V0.5H5.5z" fill="#FFFFFF"/>
    <path d="M5,0v3.992c0.009,0,0.017,-0.001,0.025,-0.001c0.337,0,0.663,0.039,0.975,0.112V1h9v7h-1.234L11,9.35V8H9.206c0.003,0.067,0.005,0.135,0.005,0.203c0,0.27,-0.026,0.537,-0.074,0.797H10v1.95L13.997,9H16V0H5z" fill="#383838"/>
    <path d="M13,4v1h-1V4H13zM11,4h-1v1h1V4zM9,4H8v1h1V4z" fill="#238BCB"/>
    <path d="M7.711,8.203c0,1.498,-1.147,2.712,-2.686,2.712S2.34,9.701,2.34,8.203s1.147,-2.712,2.686,-2.712S7.711,6.705,7.711,8.203zM9.535,16c0,-2.615,-2.021,-5.074,-4.515,-5.074S0.505,13.385,0.505,16" fill="#FFFFFF"/>
    <path d="M10.035,16h-1c0,-2.436,-1.876,-4.574,-4.015,-4.574S1.005,13.564,1.005,16h-1c0,-1.386,0.527,-2.787,1.445,-3.845c0.505,-0.582,1.092,-1.027,1.727,-1.32c-0.814,-0.576,-1.337,-1.531,-1.337,-2.632c0,-1.801,1.399,-3.212,3.186,-3.212s3.186,1.411,3.186,3.212c0,1.103,-0.525,2.059,-1.341,2.635c0.633,0.293,1.217,0.737,1.72,1.317C9.508,13.213,10.035,14.614,10.035,16zM5.025,5.991C3.8,5.991,2.84,6.963,2.84,8.203s0.96,2.212,2.186,2.212s2.186,-0.972,2.186,-2.212S6.251,5.991,5.025,5.991z" fill="#383838"/>
  </g>
</svg>
