<?xml version="1.0" encoding="UTF-8"?>
<!DOCTYPE svg PUBLIC "-//W3C//DTD SVG 1.1//EN" "http://www.w3.org/Graphics/SVG/1.1/DTD/svg11.dtd">
<svg version="1.1" id="Layer_1" xmlns="http://www.w3.org/2000/svg" xmlns:xlink="http://www.w3.org/1999/xlink" x="0px" y="0px" width="16px" height="16px" viewBox="0 0 16 16" enable-background="new 0 0 16 16" xml:space="preserve">
  <g id="icon">
    <path d="M11,0.7L6.869,4.408c1.398,0.675,2.342,2.104,2.342,3.796c0,0.889,-0.273,1.739,-0.761,2.441c0.318,0.25,0.617,0.536,0.895,0.856c0,0,0,0,0,0H9.5V7.5h3v4h3V4.826L11,0.7z" fill="#FFFFFF"/>
    <path d="M11.004,0.025L6.352,4.2c0.349,0.114,0.677,0.271,0.977,0.467l3.668,-3.292L15,5.046V11h-2V7H9.043c0.109,0.38,0.168,0.783,0.168,1.203c0,0.459,-0.073,0.908,-0.211,1.331V11h-0.137c0.167,0.156,0.328,0.322,0.482,0.5c0.139,0.16,0.27,0.328,0.393,0.5H10V8h2v4h4V4.606L11.004,0.025z" fill="#17AB4E"/>
    <path d="M7.711,8.203c0,1.498,-1.147,2.712,-2.686,2.712S2.34,9.701,2.34,8.203s1.147,-2.712,2.686,-2.712S7.711,6.705,7.711,8.203zM9.535,16c0,-2.615,-2.021,-5.074,-4.515,-5.074S0.505,13.385,0.505,16" fill="#FFFFFF"/>
    <path d="M10.035,16h-1c0,-2.436,-1.876,-4.574,-4.015,-4.574S1.005,13.564,1.005,16h-1c0,-1.386,0.527,-2.787,1.445,-3.845c0.505,-0.582,1.092,-1.027,1.727,-1.32c-0.814,-0.576,-1.337,-1.531,-1.337,-2.632c0,-1.801,1.399,-3.212,3.186,-3.212s3.186,1.411,3.186,3.212c0,1.103,-0.525,2.059,-1.341,2.635c0.633,0.293,1.217,0.737,1.72,1.317C9.508,13.213,10.035,14.614,10.035,16zM5.025,5.991C3.8,5.991,2.84,6.963,2.84,8.203s0.96,2.212,2.186,2.212s2.186,-0.972,2.186,-2.212S6.251,5.991,5.025,5.991z" fill="#383838"/>
  </g>
</svg>
