<?xml version="1.0" encoding="UTF-8"?>
<!DOCTYPE svg PUBLIC "-//W3C//DTD SVG 1.1//EN" "http://www.w3.org/Graphics/SVG/1.1/DTD/svg11.dtd">
<svg version="1.1" id="Layer_1" xmlns="http://www.w3.org/2000/svg" xmlns:xlink="http://www.w3.org/1999/xlink" x="0px" y="0px" width="16px" height="16px" viewBox="0 0 16 16" enable-background="new 0 0 16 16" xml:space="preserve">
  <g id="icon">
    <path d="M13.155,8.612l-0.374,0.11c1.383,-0.72,2.329,-2.17,2.329,-3.842c0,-2.39,-1.93,-4.327,-4.31,-4.327c-2.172,0,-3.969,1.613,-4.266,3.712c1.581,0.597,2.678,2.115,2.678,3.939c0,0.889,-0.273,1.739,-0.761,2.441c0.318,0.25,0.617,0.536,0.895,0.856c0.179,0.206,0.343,0.424,0.496,0.65l0.808,-2.888l-0.251,-0.074c0.132,0.012,0.266,0.019,0.402,0.019c0.134,0,0.267,-0.007,0.398,-0.019l-0.25,0.073l1.193,4.265l1.275,-1.313l1.781,-0.021L13.155,8.612z" fill="#F3B8B8"/>
    <path d="M13.766,8.675c1.121,-0.885,1.844,-2.257,1.844,-3.796c0,-2.662,-2.158,-4.827,-4.81,-4.827c-2.393,0,-4.383,1.763,-4.749,4.062c0.339,0.083,0.661,0.206,0.96,0.365c0.2,-1.923,1.823,-3.427,3.79,-3.427c2.101,0,3.81,1.717,3.81,3.827S12.9,8.707,10.799,8.707c-0.568,0,-1.107,-0.126,-1.591,-0.351c-0.012,0.349,-0.067,0.69,-0.159,1.018c0.31,0.122,0.636,0.213,0.974,0.269l-0.559,2c0.278,0.339,0.524,0.706,0.733,1.093l0.602,-2.151l1.095,3.915l1.736,-1.787l2.422,-0.028L13.766,8.675zM13.201,11.717l-0.814,0.838l-0.814,-2.911c0.476,-0.078,0.929,-0.225,1.347,-0.433l1.421,2.493L13.201,11.717z" fill="#E42E2C"/>
    <path d="M7.711,8.203c0,1.498,-1.147,2.712,-2.686,2.712S2.34,9.701,2.34,8.203s1.147,-2.712,2.686,-2.712S7.711,6.705,7.711,8.203zM9.535,16c0,-2.615,-2.021,-5.074,-4.515,-5.074S0.505,13.385,0.505,16" fill="#FFFFFF"/>
    <path d="M10.035,16h-1c0,-2.436,-1.876,-4.574,-4.015,-4.574S1.005,13.564,1.005,16h-1c0,-1.386,0.527,-2.787,1.445,-3.845c0.505,-0.582,1.092,-1.027,1.727,-1.32c-0.814,-0.576,-1.337,-1.531,-1.337,-2.632c0,-1.801,1.399,-3.212,3.186,-3.212s3.186,1.411,3.186,3.212c0,1.103,-0.525,2.059,-1.341,2.635c0.633,0.293,1.217,0.737,1.72,1.317C9.508,13.213,10.035,14.614,10.035,16zM5.025,5.991C3.8,5.991,2.84,6.963,2.84,8.203s0.96,2.212,2.186,2.212s2.186,-0.972,2.186,-2.212S6.251,5.991,5.025,5.991z" fill="#383838"/>
  </g>
</svg>
