<?xml version="1.0" encoding="UTF-8"?>
<!DOCTYPE svg PUBLIC "-//W3C//DTD SVG 1.1//EN" "http://www.w3.org/Graphics/SVG/1.1/DTD/svg11.dtd">
<svg version="1.1" id="Layer_1" xmlns="http://www.w3.org/2000/svg" xmlns:xlink="http://www.w3.org/1999/xlink" x="0px" y="0px" width="16px" height="16px" viewBox="0 0 16 16" enable-background="new 0 0 16 16" xml:space="preserve">
  <g id="icon">
    <path d="M5.5,0.5v1.533v2.087c0.305,0.077,0.601,0.191,0.877,0.339l1.009,0.542c0.04,-0.001,0.081,-0.002,0.122,-0.002c2.186,0,3.899,1.736,3.899,3.952c0,0.796,-0.223,1.548,-0.632,2.182c0.254,0.212,0.494,0.449,0.718,0.711c0.178,0.207,0.341,0.427,0.49,0.656H15.5V0.533L15.5,0.5H5.5z" fill="#FFFFFF"/>
    <path d="M16,0v13h-3.723c-0.187,-0.354,-0.408,-0.689,-0.657,-1H15V1H6v1.033H5V0H16z" fill="#383838"/>
    <path d="M14,3v4h-3.088c-0.207,-0.377,-0.473,-0.715,-0.787,-1H13V4H9v1.291c-0.314,-0.128,-0.649,-0.216,-1,-0.259V3H14z" fill="#228BCB"/>
    <path d="M11.296,8H13v1h-1.596c0,-0.016,0.002,-0.032,0.002,-0.048C11.406,8.622,11.367,8.304,11.296,8zM7,4V3H4v1H7z" fill="#787979"/>
    <path d="M9.906,8.952c0,1.354,-1.025,2.452,-2.399,2.452s-2.399,-1.098,-2.399,-2.452S6.133,6.5,7.507,6.5S9.906,7.598,9.906,8.952zM11.535,16c0,-2.364,-1.805,-4.587,-4.032,-4.587S3.47,13.636,3.47,16M2.066,15H0.496c0,-2.142,1.482,-4.168,3.417,-4.529c0.092,0.229,0.202,0.449,0.334,0.656c-0.255,0.212,-0.496,0.45,-0.721,0.713C2.764,12.728,2.256,13.843,2.066,15zM3.851,10.307c-0.149,-0.426,-0.229,-0.883,-0.229,-1.355c0,-1.401,0.683,-2.61,1.736,-3.31C5.103,5.55,4.826,5.5,4.533,5.5c-1.374,0,-2.399,1.098,-2.399,2.452C2.135,9.07,2.834,10.012,3.851,10.307z" fill="#FFFFFF"/>
    <path d="M12.035,16h-1c0,-2.177,-1.651,-4.087,-3.532,-4.087S3.97,13.823,3.97,16h-1c0,-1.263,0.474,-2.54,1.301,-3.505c0.437,-0.51,0.942,-0.905,1.489,-1.173c-0.703,-0.534,-1.151,-1.389,-1.151,-2.371C4.609,7.296,5.882,6,7.507,6s2.899,1.296,2.899,2.952c0,0.983,-0.45,1.84,-1.155,2.374c0.544,0.268,1.047,0.662,1.482,1.169C11.56,13.46,12.035,14.737,12.035,16zM7.507,7c-1.065,0,-1.899,0.857,-1.899,1.952s0.834,1.952,1.899,1.952s1.899,-0.857,1.899,-1.952S8.572,7,7.507,7zM4.138,10.942c-0.214,-0.379,-0.365,-0.796,-0.446,-1.235c-0.634,-0.313,-1.062,-0.973,-1.062,-1.755C2.63,6.857,3.466,6,4.533,6c0.114,0,0.224,0.012,0.332,0.03c0.304,-0.284,0.654,-0.517,1.038,-0.69C5.498,5.123,5.032,5,4.533,5C2.91,5,1.639,6.296,1.639,7.952c0,0.981,0.447,1.837,1.149,2.37c-0.546,0.268,-1.05,0.662,-1.486,1.171C0.474,12.458,0,13.736,0,15h0.991C0.991,12.975,2.422,11.182,4.138,10.942z" fill="#383838"/>
  </g>
</svg>
