<?xml version="1.0" encoding="UTF-8"?>
<!DOCTYPE svg PUBLIC "-//W3C//DTD SVG 1.1//EN" "http://www.w3.org/Graphics/SVG/1.1/DTD/svg11.dtd">
<svg version="1.1" id="Layer_1" xmlns="http://www.w3.org/2000/svg" xmlns:xlink="http://www.w3.org/1999/xlink" x="0px" y="0px" width="32px" height="32px" viewBox="0 0 32 32" enable-background="new 0 0 32 32" xml:space="preserve">
  <g id="icon">
    <path d="M25.497,19.786c0,-2.301,0.008,-3.425,-0.001,-5.726c-0.003,-0.937,-0.03,-1.436,-0.76,-1.659c-2.268,-0.692,-6.531,-0.885,-8.553,-0.9V11.5c-0.043,0,-0.088,0,-0.133,0c-0.045,0,-0.09,0,-0.133,0v0.001c-2.029,0.015,-6.387,0.208,-8.655,0.9c-0.729,0.223,-0.756,0.722,-0.76,1.659c-0.008,2.301,-0.001,3.425,-0.001,5.726c0.001,0,0.003,0,0.004,0c0,0.798,-0.011,7.319,-0.004,8.925c0.002,0.367,0.058,0.923,0.566,1.062c0.495,0.136,5.771,0.695,8.87,0.721v0.001c0.037,0,0.074,0,0.112,0c0.037,0,0.075,0,0.112,0v-0.001c3.095,-0.026,8.273,-0.585,8.768,-0.721c0.507,-0.139,0.564,-0.695,0.566,-1.062c0.008,-1.606,-0.004,-8.127,-0.004,-8.925C25.494,19.786,25.495,19.786,25.497,19.786z" fill="#FFFFFF" stroke="#383838" stroke-width="1" stroke-miterlimit="1"/>
    <path d="M12,27.5c-1.381,0,-2.5,-1.119,-2.5,-2.5c0,-1.381,1.119,-2.5,2.5,-2.5c1.381,0,2.5,1.119,2.5,2.5C14.5,26.381,13.381,27.5,12,27.5zM19.993,27.5c-1.377,0,-2.493,-1.119,-2.493,-2.5c0,-1.381,1.116,-2.5,2.493,-2.5c1.377,0,2.493,1.119,2.493,2.5C22.486,26.381,21.37,27.5,19.993,27.5zM12,19.5c-1.381,0,-2.5,-1.119,-2.5,-2.5c0,-1.381,1.119,-2.5,2.5,-2.5c1.381,0,2.5,1.119,2.5,2.5C14.5,18.381,13.381,19.5,12,19.5zM19.993,19.5c-1.377,0,-2.493,-1.119,-2.493,-2.5c0,-1.381,1.116,-2.5,2.493,-2.5c1.377,0,2.493,1.119,2.493,2.5C22.486,18.381,21.37,19.5,19.993,19.5z" fill="#FFFFFF" stroke="#228BCB" stroke-width="1" stroke-miterlimit="1"/>
    <path d="M10.986,6.54c3.304,-2.52,6.892,-2.489,10.102,0.057M12.895,9.025c1.993,-1.52,4.312,-1.51,6.247,0.025M23.245,4.049C18.827,0.734,13.621,0.684,9.069,3.911" fill="none" stroke="#383838" stroke-width="1" stroke-miterlimit="1"/>
  </g>
</svg>
