<?xml version="1.0" encoding="UTF-8"?>
<!DOCTYPE svg PUBLIC "-//W3C//DTD SVG 1.1//EN" "http://www.w3.org/Graphics/SVG/1.1/DTD/svg11.dtd">
<svg version="1.1" id="Layer_1" xmlns="http://www.w3.org/2000/svg" xmlns:xlink="http://www.w3.org/1999/xlink" x="0px" y="0px" width="32px" height="32px" viewBox="0 0 32 32" enable-background="new 0 0 32 32" xml:space="preserve">
  <g id="icon">
    <polygon points="24.5,14.2 24.5,30.5 18.5,30.5 18.5,23.5 13.5,23.5 13.5,30.5 7.5,30.5 7.5,14.2 16,8.2" fill="#FFFFFF" stroke-linejoin="miter"/>
    <polyline points="7.5,15 7.5,30.5 13.5,30.5 13.5,23.5 18.5,23.5 18.5,30.5 24.5,30.5 24.5,15" fill="none" stroke="#383838" stroke-width="1" stroke-miterlimit="1" stroke-linejoin="miter"/>
    <polyline points="4,17.868 15.988,8 28,17.785" fill="none" stroke="#228BCB" stroke-width="1.2" stroke-miterlimit="1" stroke-linejoin="miter"/>
    <path d="M21.504,3.917c4.035,0.705,6.444,3.365,6.757,7.509M20.964,7.001c2.434,0.425,3.982,2.152,4.171,4.651M31.5,11.111c-0.615,-5.546,-4.112,-9.402,-9.526,-10.499" fill="none" stroke="#383838" stroke-width="1" stroke-miterlimit="1"/>
    <path d="M3.736,11.426c0.314,-4.144,2.722,-6.803,6.757,-7.509M6.862,11.652c0.189,-2.499,1.738,-4.225,4.171,-4.651M10.024,0.612C4.61,1.709,1.113,5.565,0.497,11.111" fill="none" stroke="#383838" stroke-width="1" stroke-miterlimit="1"/>
  </g>
</svg>
