<?xml version="1.0" encoding="UTF-8"?>
<!DOCTYPE svg PUBLIC "-//W3C//DTD SVG 1.1//EN" "http://www.w3.org/Graphics/SVG/1.1/DTD/svg11.dtd">
<svg version="1.1" id="Layer_1" xmlns="http://www.w3.org/2000/svg" xmlns:xlink="http://www.w3.org/1999/xlink" x="0px" y="0px" width="32px" height="32px" viewBox="0 0 32 32" enable-background="new 0 0 32 32" xml:space="preserve">
  <g id="icon">
    <rect x="3.5" y="20.5" width="10" height="10" fill="#FFFFFF"/>
    <path d="M4,27v3h9v-9H4v3H3v-4h11v11H3v-4H4z" fill="#020202"/>
    <rect x="18.5" y="20.5" width="10" height="10" fill="#FFFFFF"/>
    <path d="M19,27v3h9v-9h-9v3h-1v-4h11v11H18v-4H19z" fill="#020202"/>
    <path d="M22,26h-8.5v-1h8.5V26z" fill="#020202"/>
    <path d="M6.5,26H1v-1h5.5V26z" fill="#020202"/>
    <path d="M31,26h-2.5v-1h2.5V26z" fill="#020202"/>
    <path d="M23.5,23.5c1.105,0,2,0.895,2,2c0,1.105,-0.895,2,-2,2s-2,-0.895,-2,-2C21.5,24.395,22.395,23.5,23.5,23.5z" fill="#FFFFFF"/>
    <path d="M21,25.5c0,-1.379,1.121,-2.5,2.5,-2.5s2.5,1.121,2.5,2.5s-1.121,2.5,-2.5,2.5S21,26.879,21,25.5zM22,25.5c0,0.827,0.673,1.5,1.5,1.5s1.5,-0.673,1.5,-1.5s-0.673,-1.5,-1.5,-1.5S22,24.673,22,25.5z" fill="#238BCB"/>
    <path d="M8.5,23.5c1.105,0,2,0.895,2,2c0,1.105,-0.895,2,-2,2s-2,-0.895,-2,-2C6.5,24.395,7.395,23.5,8.5,23.5z" fill="#FFFFFF"/>
    <path d="M6,25.5c0,-1.379,1.121,-2.5,2.5,-2.5s2.5,1.121,2.5,2.5s-1.121,2.5,-2.5,2.5S6,26.879,6,25.5zM7,25.5c0,0.827,0.673,1.5,1.5,1.5s1.5,-0.673,1.5,-1.5s-0.673,-1.5,-1.5,-1.5S7,24.673,7,25.5z" fill="#238BCB"/>
    <path d="M26.823,19c0.692,-1.542,1.077,-3.251,1.077,-5.05C27.9,7.129,22.371,1.6,15.55,1.6S3.2,7.129,3.2,13.95c0,1.799,0.385,3.508,1.077,5.05H26.823z" fill="#FFFFFF"/>
    <path d="M4.832,19c-0.154,-0.326,-0.295,-0.659,-0.419,-1h4.312c0.099,0.334,0.21,0.667,0.33,1h1.066c-0.128,-0.332,-0.246,-0.666,-0.352,-1H15v1h1v-1h5.203c-0.105,0.334,-0.223,0.668,-0.352,1h1.066c0.12,-0.333,0.231,-0.666,0.33,-1h4.44c-0.124,0.341,-0.265,0.674,-0.419,1h1.098c0.665,-1.551,1.035,-3.258,1.035,-5.05C28.4,6.865,22.635,1.1,15.55,1.1S2.7,6.865,2.7,13.95c0,1.792,0.369,3.499,1.035,5.05H4.832zM27.4,13.95c0,1.054,-0.139,2.076,-0.399,3.05h-4.491c0.242,-1.05,0.37,-2.08,0.37,-3.041c0,-0.958,-0.124,-1.958,-0.352,-2.959h4.5C27.271,11.943,27.4,12.932,27.4,13.95zM26.722,10h-4.454c-0.895,-3.045,-2.682,-5.99,-4.75,-7.736C21.796,2.983,25.304,6.001,26.722,10zM16,2.384c2.189,1.371,4.213,4.429,5.217,7.616H16V2.384zM16,11h5.498c0.246,1.006,0.383,2.009,0.383,2.959c0,0.956,-0.137,1.988,-0.396,3.041H16V11zM15,17H9.488c-0.259,-1.052,-0.396,-2.084,-0.396,-3.041c0,-0.95,0.139,-1.953,0.39,-2.959H15V17zM15,2.417V10H9.767C10.778,6.846,12.804,3.811,15,2.417zM13.512,2.276C11.424,4.028,9.621,6.966,8.715,10H4.378C5.788,6.023,9.265,3.015,13.512,2.276zM4.072,11H8.45c-0.231,1.002,-0.358,2.002,-0.358,2.959c0,0.961,0.128,1.991,0.37,3.041H4.099c-0.26,-0.974,-0.399,-1.996,-0.399,-3.05C3.7,12.932,3.829,11.943,4.072,11z" fill="#228BCB"/>
  </g>
</svg>
