<?xml version="1.0" encoding="UTF-8"?>
<!DOCTYPE svg PUBLIC "-//W3C//DTD SVG 1.1//EN" "http://www.w3.org/Graphics/SVG/1.1/DTD/svg11.dtd">
<svg version="1.1" id="Layer_1" xmlns="http://www.w3.org/2000/svg" xmlns:xlink="http://www.w3.org/1999/xlink" x="0px" y="0px" width="32px" height="32px" viewBox="0 0 32 32" enable-background="new 0 0 32 32" xml:space="preserve">
  <g id="icon">
    <path d="M7.285,22.661c8.976,-0.584,10.462,-3.49,10.848,-3.104C18.52,19.943,15,23.2,14.1,23.6c0.257,1.458,0.637,6.438,0.743,6.817c0.133,0.477,10.436,-1.077,15.114,-5.386c0.216,-0.575,-1.801,-8.913,-6.909,-14.866c-1.296,-3.016,-5.254,-7.9,-7.557,-8.618c-1.08,0.072,-2.447,5.099,-0.432,7.11c-1.141,0.086,-3.376,1.012,-5.614,4.955c-1.943,0.287,-6.909,2.37,-7.341,3.447C1.671,18.137,3.975,22.086,7.285,22.661z" fill="#FFFFFF" stroke="#383838" stroke-width="1" stroke-miterlimit="1"/>
    <ellipse cx="13.807" cy="13.299" rx="1.268" ry="1.267" fill="#FFFFFF" stroke="#228BCB" stroke-width="1" stroke-miterlimit="1"/>
  </g>
</svg>
