<?xml version="1.0" encoding="UTF-8"?>
<!DOCTYPE svg PUBLIC "-//W3C//DTD SVG 1.1//EN" "http://www.w3.org/Graphics/SVG/1.1/DTD/svg11.dtd">
<svg version="1.1" id="Layer_1" xmlns="http://www.w3.org/2000/svg" xmlns:xlink="http://www.w3.org/1999/xlink" x="0px" y="0px" width="32px" height="32px" viewBox="0 0 32 32" enable-background="new 0 0 32 32" xml:space="preserve">
  <g id="icon">
    <path d="M3.746,6.885c0.215,-0.312,2.253,-2.857,2.499,-3.152c0.246,-0.296,0.257,-0.245,0.534,0.034c0.277,0.279,2.475,2.954,2.598,3.118S9.5,7.238,9.5,7.673v21.039c0,0.435,-0.33,0.788,-0.738,0.788H4.238c-0.408,0,-0.738,-0.353,-0.738,-0.788V7.673C3.5,7.238,3.531,7.197,3.746,6.885zM13.746,6.885c0.215,-0.312,2.253,-2.857,2.499,-3.152c0.246,-0.296,0.257,-0.245,0.534,0.034c0.277,0.279,2.475,2.954,2.598,3.118c0.123,0.164,0.123,0.353,0.123,0.788v21.039c0,0.435,-0.33,0.788,-0.738,0.788h-4.524c-0.408,0,-0.738,-0.353,-0.738,-0.788V7.673C13.5,7.238,13.531,7.197,13.746,6.885zM23.746,6.885c0.215,-0.312,2.253,-2.857,2.499,-3.152c0.246,-0.296,0.257,-0.245,0.534,0.034c0.277,0.279,2.475,2.954,2.598,3.118c0.123,0.164,0.123,0.353,0.123,0.788v21.039c0,0.435,-0.33,0.788,-0.738,0.788h-4.524c-0.408,0,-0.738,-0.353,-0.738,-0.788V7.673C23.5,7.238,23.531,7.197,23.746,6.885z" fill="#C8C6C4" stroke="#383838" stroke-width="1" stroke-miterlimit="1"/>
    <path d="M1,11.5h2.5M29.5,11.5h2.5M9.5,11.5h4M19.5,11.5h4" fill="#C8C6C4" stroke="#383838" stroke-width="1" stroke-miterlimit="1"/>
    <path d="M1,23.5h2.5M29.5,23.5h2.5M9.5,23.5h4M19.5,23.5h4" fill="#C8C6C4" stroke="#383838" stroke-width="1" stroke-miterlimit="1"/>
  </g>
</svg>
