<?xml version="1.0" encoding="UTF-8"?>
<!DOCTYPE svg PUBLIC "-//W3C//DTD SVG 1.1//EN" "http://www.w3.org/Graphics/SVG/1.1/DTD/svg11.dtd">
<svg version="1.1" id="Layer_1" xmlns="http://www.w3.org/2000/svg" xmlns:xlink="http://www.w3.org/1999/xlink" x="0px" y="0px" width="32px" height="32px" viewBox="0 0 32 32" enable-background="new 0 0 32 32" xml:space="preserve">
  <g id="icon">
    <path d="M14.5,21.5v-3.52c0,-2.468,-2.025,-4.487,-4.5,-4.487l0,0c-2.475,0,-4.5,2.019,-4.5,4.487V21.5" fill="none" stroke="#383838" stroke-width="1" stroke-miterlimit="1"/>
    <path d="M3.5,21.5h13v9H3.5V21.5zM10,26v2" fill="#FFFFFF" stroke="#ED8730" stroke-width="1" stroke-miterlimit="1"/>
    <path d="M12.5,1.6v10.72c2.177,0.961,3.7,3.136,3.7,5.66V19.8h1.183c0.451,0,0.817,0.366,0.817,0.817V27.5h10.2V1.6H12.5z" fill="#FFFFFF"/>
    <path d="M12,1v11.125c0.348,0.119,0.683,0.267,1,0.443V2h15v25h-9.8v1h10.8V1H12z" fill="#383838"/>
    <polygon points="21.2,23 19.928,23 19.4,23 19.4,25 20.05,25 21.2,25 22.5,25 22.5,23" fill="#78797A" stroke-linejoin="miter"/>
  </g>
</svg>
