<?xml version="1.0" encoding="UTF-8"?>
<!DOCTYPE svg PUBLIC "-//W3C//DTD SVG 1.1//EN" "http://www.w3.org/Graphics/SVG/1.1/DTD/svg11.dtd">
<svg version="1.1" id="Layer_1" xmlns="http://www.w3.org/2000/svg" xmlns:xlink="http://www.w3.org/1999/xlink" x="0px" y="0px" width="32px" height="32px" viewBox="0 0 32 32" enable-background="new 0 0 32 32" xml:space="preserve">
  <g id="icon">
    <rect x="1.5" y="7.5" width="29" height="22" fill="#FFFFFF" stroke="#383838" stroke-width="1" stroke-miterlimit="1"/>
    <rect x="1.5" y="2.5" width="29" height="5" fill="#FFFFFF" stroke="#EE3D3B" stroke-width="1" stroke-miterlimit="1"/>
    <path d="M5.94,23.06c-0.586,-0.586,-0.587,-1.536,-0.002,-2.121c0.585,-0.585,1.535,-0.584,2.121,0.002c0.586,0.586,0.587,1.536,0.002,2.121C7.477,23.647,6.527,23.646,5.94,23.06zM10.94,23.06c-0.586,-0.586,-0.587,-1.536,-0.002,-2.121c0.585,-0.585,1.535,-0.584,2.121,0.002c0.586,0.586,0.587,1.536,0.002,2.121C12.477,23.647,11.527,23.646,10.94,23.06zM15.94,23.06c-0.586,-0.586,-0.587,-1.536,-0.002,-2.121c0.585,-0.585,1.535,-0.584,2.121,0.002c0.586,0.586,0.587,1.536,0.002,2.121C17.477,23.647,16.527,23.646,15.94,23.06zM20.94,23.06c-0.586,-0.586,-0.587,-1.536,-0.002,-2.121c0.585,-0.585,1.535,-0.584,2.121,0.002c0.586,0.586,0.587,1.536,0.002,2.121C22.477,23.647,21.527,23.646,20.94,23.06z" fill="#FFFFFF" stroke="#ED8730" stroke-width="1" stroke-miterlimit="1"/>
    <rect x="5.5" y="13.5" width="21" height="4" fill="#FFFFFF" stroke="#787979" stroke-width="1" stroke-miterlimit="1"/>
  </g>
</svg>
