<?xml version="1.0" encoding="UTF-8"?>
<!DOCTYPE svg PUBLIC "-//W3C//DTD SVG 1.1//EN" "http://www.w3.org/Graphics/SVG/1.1/DTD/svg11.dtd">
<svg version="1.1" id="Layer_1" xmlns="http://www.w3.org/2000/svg" xmlns:xlink="http://www.w3.org/1999/xlink" x="0px" y="0px" width="32px" height="32px" viewBox="0 0 32 32" enable-background="new 0 0 32 32" xml:space="preserve">
  <g id="icon">
    <path d="M23.534,8.812c0,3.933,-3.397,9.786,-7.587,9.786s-7.587,-5.853,-7.587,-9.786S11.756,1.5,15.947,1.5S23.534,4.879,23.534,8.812zM28.228,31c0,-6.867,-5.506,-12.372,-12.297,-12.372S3.633,24.133,3.633,31" fill="#C8C6C4" stroke="#383838" stroke-width="1" stroke-miterlimit="1"/>
    <rect x="9.6" y="8.1" width="12.8" height="2.8" fill="#FCD8BB"/>
    <path d="M15.9,7.232c-3.892,0,-7.451,-0.593,-7.451,-0.593l0.37,5.71c0,0,3.493,-0.386,7.117,-0.387c3.865,-0.001,7.176,0.382,7.176,0.382l0.3,-5.704C23.413,6.639,19.689,7.232,15.9,7.232zM12.021,10.542c-1.463,0.005,-1.91,-1.872,-1.91,-1.872s0.733,0.127,2.196,0.122c1.463,-0.005,2.735,0.436,2.735,0.436S13.484,10.537,12.021,10.542zM19.973,10.542c-1.463,-0.005,-3.021,-1.314,-3.021,-1.314s1.273,-0.442,2.735,-0.436c1.463,0.005,2.196,-0.122,2.196,-0.122S21.436,10.547,19.973,10.542z" fill="#383838"/>
  </g>
</svg>
