<?xml version="1.0" encoding="UTF-8"?>
<!DOCTYPE svg PUBLIC "-//W3C//DTD SVG 1.1//EN" "http://www.w3.org/Graphics/SVG/1.1/DTD/svg11.dtd">
<svg version="1.1" id="Layer_1" xmlns="http://www.w3.org/2000/svg" xmlns:xlink="http://www.w3.org/1999/xlink" x="0px" y="0px" width="32px" height="32px" viewBox="0 0 32 32" enable-background="new 0 0 32 32" xml:space="preserve">
  <g id="icon">
    <path d="M16.482,16.121C13.493,15.942,10.475,14.441,9,13.4C7.524,14.441,4.49,15.942,1.5,16.121c-0.009,0.793,0.134,2.347,0.314,3.653c0.379,2.751,1.201,5.109,2.314,6.641C5.683,28.556,7.214,29.864,9,30.4c1.785,-0.536,3.3,-1.844,4.855,-3.985c1.113,-1.532,1.935,-3.89,2.314,-6.641C16.348,18.468,16.492,16.914,16.482,16.121z" fill="#FFFFFF" stroke="#17AB4F" stroke-width="1" stroke-miterlimit="1"/>
    <path d="M5.274,21.638l2.752,2.72l5.458,-5.395" fill="none" stroke="#17AB4F" stroke-width="1" stroke-miterlimit="1"/>
    <path d="M5.5,2.5v10.844c1.115,-0.472,2.03,-1.007,2.548,-1.373l1.009,-0.713l1.009,0.713c0.408,0.288,1.06,0.681,1.862,1.065c1.586,0.049,2.706,0.259,3.317,1.142c0.445,0.09,0.896,0.154,1.348,0.181l1.626,0.098l0.019,1.628c0.011,0.96,-0.156,2.646,-0.328,3.891c-0.072,0.521,-0.16,1.029,-0.261,1.524H30.5V2.5H5.5z" fill="#FFFFFF"/>
    <path d="M5,2v11.546c0.351,-0.135,0.686,-0.278,1,-0.423V3h24v18H17.746c-0.062,0.34,-0.131,0.673,-0.206,1H31V2H5z" fill="#383838"/>
    <rect x="23.5" y="5.5" width="4" height="5" fill="#FFFFFF"/>
    <path d="M23,5v6h5V5H23zM27,10h-3V6h3V10z" fill="#EE3D3B"/>
    <path d="M17,9H9V8h8V9zM20,6H9v1h11V6zM18.225,15l0.012,1H25v-1H18.225zM19,18h4v-1h-4V18z" fill="#787979"/>
    <path d="M15.711,13c0.212,0.316,0.397,0.65,0.55,1H21v-1H15.711z" fill="#383838"/>
  </g>
</svg>
