<?xml version="1.0" encoding="iso-8859-1"?>
<!-- Generator: Adobe Illustrator 26.3.0, SVG Export Plug-In . SVG Version: 6.00 Build 0)  -->
<svg version="1.1" id="Layer_1" xmlns="http://www.w3.org/2000/svg" xmlns:xlink="http://www.w3.org/1999/xlink" x="0px" y="0px"
	 viewBox="0 0 16 16" style="enable-background:new 0 0 16 16;" xml:space="preserve">
<g id="icon">
	<polygon style="opacity:0.5;fill:#FFFFFF;enable-background:new    ;" points="15.2,13.421 8.086,1 8.052,1 0.7,10.563 4.785,15.4 
			"/>
	<polygon style="opacity:0.5;fill:#6E6F72;enable-background:new    ;" points="15.476,13.005 9.691,9.172 8.547,0.931 7.557,1.069 
		8.662,9.033 0.636,10.068 0.764,11.059 9.106,9.984 14.924,13.838 	"/>
	<path style="fill:#6D6E71;" d="M4.591,15.946l-4.534-5.369L8.166,0.102l7.816,13.68L4.591,15.946z M1.343,10.55l3.635,4.305
		l9.44-1.793L8.04,1.898L1.343,10.55z"/>
	
		<rect x="-0.894" y="7.752" transform="matrix(0.2262 -0.9741 0.9741 0.2262 -3.0518 12.6628)" style="fill:#6D6E71;" width="14.676" height="1"/>
</g>
</svg>
