<?xml version="1.0" encoding="iso-8859-1"?>
<!-- Generator: Adobe Illustrator 26.3.0, SVG Export Plug-In . SVG Version: 6.00 Build 0)  -->
<svg version="1.1" id="Layer_1" xmlns="http://www.w3.org/2000/svg" xmlns:xlink="http://www.w3.org/1999/xlink" x="0px" y="0px"
	 viewBox="0 0 16 16" style="enable-background:new 0 0 16 16;" xml:space="preserve">
<g id="icon">
	<path style="fill:#6E6F72;" d="M9.765,2.262c2.203,0.536,3.978,1.852,4.819,3.539C14.562,5.801,14.54,5.8,14.519,5.8
		c-0.335,0-0.653,0.077-0.936,0.215c-0.737-1.292-2.171-2.302-3.938-2.754C9.73,3.023,9.778,2.767,9.778,2.5
		C9.778,2.42,9.773,2.34,9.765,2.262z"/>
	<path style="fill:#6E6F72;" d="M14.519,10.2c-0.335,0-0.653-0.077-0.936-0.215C12.571,11.757,10.251,13,7.556,13
		c-3.622,0-6.568-2.243-6.568-5c0-2.227,1.923-4.118,4.57-4.763C5.477,3.007,5.432,2.758,5.432,2.5c0-0.088,0.006-0.175,0.016-0.261
		C2.305,2.966,0,5.273,0,8c0,3.308,3.389,6,7.556,6c3.189,0,5.921-1.578,7.028-3.802C14.562,10.199,14.54,10.2,14.519,10.2z"/>
	<path style="fill:#CC525E;" d="M14.519,9.5c-0.817,0-1.481-0.673-1.481-1.5s0.665-1.5,1.481-1.5S16,7.173,16,8
		S15.335,9.5,14.519,9.5z M7.605,9.5C6.788,9.5,6.123,8.827,6.123,8s0.665-1.5,1.482-1.5S9.086,7.173,9.086,8S8.422,9.5,7.605,9.5z
		 M7.605,4C6.788,4,6.123,3.327,6.123,2.5S6.788,1,7.605,1s1.482,0.673,1.482,1.5S8.422,4,7.605,4z"/>
</g>
</svg>
