<?xml version="1.0" encoding="iso-8859-1"?>
<!-- Generator: Adobe Illustrator 26.3.0, SVG Export Plug-In . SVG Version: 6.00 Build 0)  -->
<svg version="1.1" id="Layer_1" xmlns="http://www.w3.org/2000/svg" xmlns:xlink="http://www.w3.org/1999/xlink" x="0px" y="0px"
	 viewBox="0 0 16 16" style="enable-background:new 0 0 16 16;" xml:space="preserve">
<g id="icon">
	<polygon style="opacity:0.5;fill:#FFFFFF;enable-background:new    ;" points="9.482,0.481 0.5,2.383 0.5,12.138 6.379,15.519 
		15.5,13.406 15.5,3.474 	"/>
	<polygon style="opacity:0.5;fill:#6E6F72;enable-background:new    ;" points="15.705,12.948 10,9.987 10,0.5 9,0.5 9,9.897 
		0.405,11.638 0.604,12.618 9.447,10.827 15.244,13.836 	"/>
	<path style="fill:#6D6E71;" d="M6.3,16.051L0,12.427V1.977l9.548-2.022L16,3.165v10.639L6.3,16.051z M1,11.849l5.458,3.139
		L15,13.009V3.784L9.415,1.006L1,2.788V11.849z"/>
	<polygon style="fill:#6D6E71;" points="7,15.4 6,15.4 6,5.669 0.589,2.985 1.033,2.089 7,5.048 	"/>
	
		<rect x="6.325" y="3.94" transform="matrix(0.9785 -0.2062 0.2062 0.9785 -0.6803 2.3532)" style="fill:#6D6E71;" width="9.248" height="1"/>
</g>
</svg>
