<?xml version="1.0" encoding="iso-8859-1"?>
<!-- Generator: Adobe Illustrator 26.3.0, SVG Export Plug-In . SVG Version: 6.00 Build 0)  -->
<svg version="1.1" id="Layer_1" xmlns="http://www.w3.org/2000/svg" xmlns:xlink="http://www.w3.org/1999/xlink" x="0px" y="0px"
	 viewBox="0 0 16 16" style="enable-background:new 0 0 16 16;" xml:space="preserve">
<g id="icon">
	<path style="fill:#CC525E;" d="M1.5,16C0.673,16,0,15.327,0,14.5S0.673,13,1.5,13S3,13.673,3,14.5S2.327,16,1.5,16z M8,9.5
		C7.173,9.5,6.5,8.827,6.5,8S7.173,6.5,8,6.5S9.5,7.173,9.5,8S8.827,9.5,8,9.5z"/>
	<path style="fill:#6E6F72;" d="M1,1v11.255C1.161,12.219,1.328,12.2,1.5,12.2s0.339,0.019,0.5,0.055V2h12v12H3.745
		C3.781,14.161,3.8,14.328,3.8,14.5S3.78,14.839,3.745,15H15V1H1z"/>
</g>
</svg>
