<?xml version="1.0" encoding="iso-8859-1"?>
<!-- Generator: Adobe Illustrator 26.3.0, SVG Export Plug-In . SVG Version: 6.00 Build 0)  -->
<svg version="1.1" id="Layer_1" xmlns="http://www.w3.org/2000/svg" xmlns:xlink="http://www.w3.org/1999/xlink" x="0px" y="0px"
	 viewBox="0 0 16 16" style="enable-background:new 0 0 16 16;" xml:space="preserve">
<g id="icon">
	<path style="fill:#CC525E;" d="M1.5,16C0.673,16,0,15.327,0,14.5S0.673,13,1.5,13S3,13.673,3,14.5S2.327,16,1.5,16z M12.5,14
		c-0.827,0-1.5-0.673-1.5-1.5s0.673-1.5,1.5-1.5s1.5,0.673,1.5,1.5S13.327,14,12.5,14z M3.5,5C2.673,5,2,4.327,2,3.5S2.673,2,3.5,2
		S5,2.673,5,3.5S4.327,5,3.5,5z M14.5,3C13.673,3,13,2.327,13,1.5S13.673,0,14.5,0S16,0.673,16,1.5S15.327,3,14.5,3z"/>
	<path style="fill:#6E6F72;" d="M11.933,9.212c1.231-0.636,2.109-2.409,2.716-5.518C14.6,3.698,14.55,3.7,14.5,3.7
		c-0.297,0-0.58-0.059-0.838-0.166c-0.531,2.705-1.265,4.313-2.188,4.79c-0.895,0.463-2.035-0.135-3.242-0.767
		c-1.38-0.723-2.807-1.47-4.165-0.769c-1.231,0.636-2.109,2.409-2.716,5.518C1.4,12.302,1.45,12.3,1.5,12.3
		c0.297,0,0.58,0.059,0.838,0.166c0.531-2.705,1.265-4.313,2.188-4.79c0.895-0.463,2.035,0.135,3.242,0.767
		C9.148,9.166,10.576,9.914,11.933,9.212z"/>
</g>
</svg>
