<?xml version="1.0" encoding="iso-8859-1"?>
<!-- Generator: Adobe Illustrator 26.3.0, SVG Export Plug-In . SVG Version: 6.00 Build 0)  -->
<svg version="1.1" id="Layer_1" xmlns="http://www.w3.org/2000/svg" xmlns:xlink="http://www.w3.org/1999/xlink" x="0px" y="0px"
	 viewBox="0 0 16 16" style="enable-background:new 0 0 16 16;" xml:space="preserve">
<g id="icon">
	<polygon style="opacity:0.5;fill:#FFFFFF;enable-background:new    ;" points="15.5,15.5 4.5,15.5 4.5,0.5 11.533,0.5 15.5,4.557 	
		"/>
	<polygon style="fill:#6D6E71;" points="11.744,0 4,0 4,9.5 5,9.5 5,1 11,1 11,5 15,5 15,15 13,15 13,16 16,16 16,4.353 	"/>
	<path style="fill:#6486C4;" d="M2.345,13.504l1.188,2.045l-0.865,0.502l-0.901-1.552l-0.901,1.552l-0.865-0.502l1.188-2.045
		l-1.188-2.045l0.865-0.502l0.901,1.552l0.901-1.552l0.865,0.502L2.345,13.504z M5.63,11c-1.13,0-1.572,0.764-1.607,1.419
		l0.998,0.053C5.039,12.141,5.222,12,5.63,12c0.284,0,0.61,0.058,0.61,0.51c0,0.097,0,0.392-0.658,0.496L5.3,13.051v0.898
		l0.283,0.045c0.406,0.064,0.657,0.254,0.657,0.496c0,0.452-0.326,0.51-0.61,0.51c-0.409,0-0.591-0.141-0.609-0.472l-0.998,0.053
		C4.058,15.235,4.5,16,5.63,16c1.188,0,1.61-0.814,1.61-1.51c0-0.383-0.151-0.722-0.419-0.981C7.092,13.251,7.24,12.91,7.24,12.51
		C7.24,11.814,6.819,11,5.63,11z M12.055,12.482c-0.115-0.311-0.28-0.581-0.491-0.802c-0.214-0.223-0.472-0.395-0.767-0.511
		C10.512,11.057,10.195,11,9.858,11H8v5h1.858c0.338,0,0.654-0.057,0.939-0.169c0.295-0.116,0.553-0.288,0.767-0.511
		c0.211-0.221,0.376-0.49,0.491-0.802c0.111-0.302,0.167-0.644,0.167-1.018C12.222,13.126,12.166,12.783,12.055,12.482z
		 M11.116,14.173c-0.068,0.184-0.158,0.333-0.275,0.456c-0.114,0.12-0.248,0.208-0.41,0.272C10.263,14.966,10.07,15,9.858,15H9v-3
		h0.858c0.212,0,0.405,0.033,0.574,0.1c0.161,0.063,0.295,0.152,0.41,0.272c0.117,0.122,0.207,0.271,0.275,0.456
		c0.07,0.191,0.106,0.417,0.106,0.673C11.222,13.756,11.187,13.982,11.116,14.173z"/>
</g>
</svg>
