<?xml version="1.0" encoding="iso-8859-1"?>
<!-- Generator: Adobe Illustrator 26.3.0, SVG Export Plug-In . SVG Version: 6.00 Build 0)  -->
<svg version="1.1" id="Layer_1" xmlns="http://www.w3.org/2000/svg" xmlns:xlink="http://www.w3.org/1999/xlink" x="0px" y="0px"
	 viewBox="0 0 16 16" style="enable-background:new 0 0 16 16;" xml:space="preserve">
<g id="icon">
	<polygon style="opacity:0.5;fill:#FFFFFF;enable-background:new    ;" points="15.5,15.5 4.5,15.5 4.5,0.5 11.533,0.5 15.5,4.557 	
		"/>
	<polygon style="fill:#6E6F72;" points="11.744,0 4,0 4,6 5,6 5,1 11,1 11,5 15,5 15,15 7.5,15 7.5,16 16,16 16,4.353 	"/>
	<path style="fill:#6485C3;" d="M8.212,10.8C9,10.339,10.512,8.979,10.512,8.979L7.128,5.5c0,0-1.369,1.524-1.92,2.297"/>
	<path style="fill:#6485C3;" d="M8.212,11.25c-0.155,0-0.305-0.08-0.389-0.223c-0.126-0.215-0.053-0.49,0.161-0.616
		c0.516-0.302,1.39-1.038,1.875-1.459L7.143,6.161c-0.434,0.494-1.2,1.379-1.569,1.897C5.43,8.26,5.149,8.307,4.947,8.163
		C4.744,8.019,4.697,7.737,4.842,7.535c0.56-0.784,1.895-2.273,1.951-2.336l0.322-0.358L11.161,9l-0.348,0.313
		C10.75,9.37,9.257,10.71,8.439,11.189C8.368,11.231,8.289,11.25,8.212,11.25z"/>
	<path style="fill:#FFFFFF;" d="M5.208,7.797c-0.07,0.047-1.773,1.147-3.144,1.977L1.868,9.892l0.043,0.226
		c0.036,0.191,0.054,0.407,0.054,0.644c0,1.411-0.596,3.304-1.002,3.713c-0.292,0.294-0.434,0.531-0.434,0.723
		c0,0.035,0.004,0.069,0.014,0.104c0.035,0.13,0.032,0.128,0.16,0.163c0.135,0.036,0.367,0.088,0.818-0.368
		c0.472-0.476,2.988-1.28,4.316-1.012l0.225,0.045l0.118-0.199c0.826-1.388,2.018-3.113,2.029-3.129L5.208,7.797z"/>
	<path style="fill:#6485C3;" d="M0.854,15.936c-0.099,0-0.188-0.017-0.268-0.038c-0.283-0.076-0.402-0.196-0.476-0.474
		C0.09,15.345,0.08,15.271,0.08,15.197c0-0.321,0.179-0.651,0.564-1.04c0.287-0.289,0.871-2.044,0.871-3.396
		c0-0.208-0.016-0.397-0.046-0.56L1.368,9.669l0.463-0.28c1.362-0.824,3.053-1.917,3.126-1.966l0.307-0.205l0.262,0.261l3.268,3.268
		l-0.212,0.308c-0.127,0.184-1.236,1.796-2.014,3.105l-0.281,0.473L5.75,14.524c-1.211-0.245-3.561,0.538-3.908,0.888
		C1.431,15.827,1.109,15.936,0.854,15.936z M2.367,10.116c0.032,0.197,0.048,0.414,0.048,0.646c0,1.269-0.475,3.083-0.973,3.83
		c0.865-0.562,3.074-1.186,4.397-0.965c0.615-1.028,1.41-2.213,1.79-2.772L5.147,8.372C4.594,8.728,3.405,9.486,2.367,10.116z"/>
	<path style="fill:#6485C3;" d="M0.702,15.306l2.917-2.537c0.282,0.142,0.631,0.093,0.866-0.147c0.295-0.302,0.295-0.792,0-1.094
		s-0.773-0.302-1.067,0c-0.234,0.24-0.282,0.599-0.143,0.888L0.702,15.306z"/>
	<path style="fill:#6485C3;" d="M0.998,15.646l-0.631-0.639l2.403-2.699c-0.074-0.39,0.042-0.802,0.326-1.094
		c0.228-0.234,0.532-0.362,0.856-0.362l0,0c0.324,0,0.628,0.129,0.856,0.362c0.463,0.475,0.463,1.247,0,1.722
		c-0.288,0.295-0.696,0.417-1.085,0.34L0.998,15.646z M3.728,12.32l0.094,0.047c0.114,0.057,0.251,0.033,0.341-0.059
		c0.125-0.128,0.125-0.337,0-0.465c-0.114-0.117-0.309-0.117-0.423,0c-0.097,0.099-0.121,0.252-0.059,0.379L3.728,12.32z"/>
</g>
</svg>
