<?xml version="1.0" encoding="iso-8859-1"?>
<!-- Generator: Adobe Illustrator 26.3.0, SVG Export Plug-In . SVG Version: 6.00 Build 0)  -->
<svg version="1.1" id="Layer_1" xmlns="http://www.w3.org/2000/svg" xmlns:xlink="http://www.w3.org/1999/xlink" x="0px" y="0px"
	 viewBox="0 0 16 16" style="enable-background:new 0 0 16 16;" xml:space="preserve">
<g id="icon">
	<path style="fill:#6E6F72;" d="M15,4V3h-3V0h-1v3H8V0H7v3H4V0H3v3H0v1h3v3H0v1h3v3H0v1h3v3h1v-3h3v3h1v-3h3v3h1v-3h3v-1h-3V8h3V7
		h-3V4H15z M7,11H4V8h3V11z M7,7H4V4h3V7z M11,11H8V8h3V11z M11,7H8V4h3V7z"/>
</g>
</svg>
