<?xml version="1.0" encoding="iso-8859-1"?>
<!-- Generator: Adobe Illustrator 26.3.0, SVG Export Plug-In . SVG Version: 6.00 Build 0)  -->
<svg version="1.1" id="Layer_1" xmlns="http://www.w3.org/2000/svg" xmlns:xlink="http://www.w3.org/1999/xlink" x="0px" y="0px"
	 viewBox="0 0 16 16" style="enable-background:new 0 0 16 16;" xml:space="preserve">
<g id="icon">
	<line style="fill:none;" x1="0.5" y1="2" x2="0.5" y2="9"/>
	<rect y="2" style="fill:#6E6F72;" width="1" height="7"/>
	<line style="fill:none;" x1="15.5" y1="2" x2="15.5" y2="9"/>
	<rect x="15" y="2" style="fill:#6E6F72;" width="1" height="7"/>
	<polygon style="fill:#6486C4;" points="14.3,5.5 11,3.788 11,5 5,5 5,3.788 1.7,5.5 5,7.259 5,6 11,6 11,7.259 	"/>
	<rect x="0.5" y="11.5" style="opacity:0.5;fill:#FFFFFF;enable-background:new    ;" width="15" height="4"/>
	<path style="fill:#EEAD56;" d="M16,16H0v-5h16V16z M1,15h14v-3H1V15z"/>
	<path style="fill:#7C7B7A;" d="M3,14H2v-2h1V14z M5,12H4v1h1V12z M7,12H6v1h1V12z M9,12H8v2h1V12z M11,12h-1v1h1V12z M13,12h-1v1h1
		V12z"/>
</g>
</svg>
