<?xml version="1.0" encoding="iso-8859-1"?>
<!-- Generator: Adobe Illustrator 26.3.0, SVG Export Plug-In . SVG Version: 6.00 Build 0)  -->
<svg version="1.1" id="Layer_1" xmlns="http://www.w3.org/2000/svg" xmlns:xlink="http://www.w3.org/1999/xlink" x="0px" y="0px"
	 viewBox="0 0 16 16" style="enable-background:new 0 0 16 16;" xml:space="preserve">
<g id="icon">
	<path style="fill:#FFFFFF;" d="M11.575,3.475L3.266,0.626c-0.568-0.221-0.656-0.14-0.448,0.447l2.873,8.279
		c0.237,0.612,0.546,0.614,0.93-0.013L8.07,6.97l3.004,2.976c0.311,0.31,1.403-0.813,1.092-1.123L9.191,5.85l2.371-1.446
		C12.244,3.963,12.244,3.711,11.575,3.475z"/>
	<path style="fill:#6D6E71;" d="M12.003,3.433L3.031,0.356C2.418,0.118,2.323,0.205,2.548,0.839l3.103,8.94
		c0.255,0.661,0.59,0.663,1.004-0.014l1.563-2.558l3.243,3.213c0.335,0.335,1.515-0.878,1.179-1.213l-3.212-3.21l2.561-1.562
		C12.725,3.96,12.725,3.688,12.003,3.433z"/>
	<path style="fill:#EEAD56;" d="M0,11v5h16v-5H0z M2,14H1v-2h1V14z M4,13H3v-1h1V13z M6,13H5v-1h1V13z M8,14H7v-2h1V14z M10,13H9v-1
		h1V13z M12,13h-1v-1h1V13z M14,14h-1v-2h1V14z"/>
	<path style="opacity:0.5;fill:#FFFFFF;enable-background:new    ;" d="M2,14H1v-2h1V14z M14,14h-1v-2h1V14z M14,14h-1v-2h1V14z
		 M4,12H3v1h1V12z M6,12H5v1h1V12z M8,12H7v2h1V12z M10,12H9v1h1V12z M12,12h-1v1h1V12z"/>
</g>
</svg>
