<?xml version="1.0" encoding="iso-8859-1"?>
<!-- Generator: Adobe Illustrator 26.3.0, SVG Export Plug-In . SVG Version: 6.00 Build 0)  -->
<svg version="1.1" id="Layer_1" xmlns="http://www.w3.org/2000/svg" xmlns:xlink="http://www.w3.org/1999/xlink" x="0px" y="0px"
	 viewBox="0 0 16 16" style="enable-background:new 0 0 16 16;" xml:space="preserve">
<g id="icon">
	<path style="opacity:0.5;fill:#6486C4;enable-background:new    ;" d="M8.546,0.5L0.5,5.613l2.152,7.844L13.355,15.5L15.5,4.277
		L8.546,0.5z M12.126,13.623L3.885,12.05l-1.564-5.7l6.285-3.994l5.139,2.791L12.126,13.623z"/>
	<path style="fill:#6486C4;" d="M15.739,3.838L8.785,0.061c-0.16-0.087-0.354-0.08-0.507,0.017L0.232,5.191
		C0.047,5.309-0.04,5.534,0.018,5.746L2.17,13.59c0.05,0.184,0.201,0.323,0.388,0.359l10.703,2.043
		C13.293,15.997,13.325,16,13.356,16c0.235,0,0.445-0.167,0.491-0.406l2.145-11.223C16.032,4.157,15.93,3.941,15.739,3.838z
		 M12.958,14.915l-9.906-1.89L1.08,5.837L8.566,1.08l6.374,3.462L12.958,14.915z"/>
	<polygon style="opacity:0.5;fill:#FFFFFF;enable-background:new    ;" points="4.925,10.925 3.829,6.932 8.658,3.864 12.29,5.837 
		11.093,12.102 	"/>
	<path style="fill:#6E6F72;" d="M11.49,12.687l-6.965-1.329L3.25,6.708l5.389-3.424l4.212,2.288L11.49,12.687z M5.324,10.492
		l5.371,1.025l1.035-5.416L8.678,4.444L4.409,7.156L5.324,10.492z"/>
</g>
</svg>
