<?xml version="1.0" encoding="iso-8859-1"?>
<!-- Generator: Adobe Illustrator 26.3.0, SVG Export Plug-In . SVG Version: 6.00 Build 0)  -->
<svg version="1.1" id="Layer_1" xmlns="http://www.w3.org/2000/svg" xmlns:xlink="http://www.w3.org/1999/xlink" x="0px" y="0px"
	 viewBox="0 0 16 16" style="enable-background:new 0 0 16 16;" xml:space="preserve">
<g id="icon">
	<polygon style="fill:#6E6F72;" points="7.573,-0.003 5.167,5 9.979,5 	"/>
	<polygon style="fill:#6E6F72;" points="5.162,10 7.573,14.935 9.984,10 	"/>
	<path style="fill:#6E6F72;" d="M7.5,10.9c-0.276,0-0.5-0.224-0.5-0.5V4.5C7,4.224,7.224,4,7.5,4S8,4.224,8,4.5v5.9
		C8,10.676,7.776,10.9,7.5,10.9z"/>
	<polygon style="fill:#6E6F72;" points="10,5.166 10,9.969 15.063,7.567 	"/>
	<polygon style="fill:#6E6F72;" points="-0.003,7.567 5,9.973 5,5.162 	"/>
	<path style="fill:#6E6F72;" d="M10.5,8H4.7C4.424,8,4.2,7.776,4.2,7.5S4.424,7,4.7,7h5.8C10.776,7,11,7.224,11,7.5S10.776,8,10.5,8
		z"/>
</g>
</svg>
