<?xml version="1.0" encoding="iso-8859-1"?>
<!-- Generator: Adobe Illustrator 26.3.0, SVG Export Plug-In . SVG Version: 6.00 Build 0)  -->
<svg version="1.1" id="Layer_1" xmlns="http://www.w3.org/2000/svg" xmlns:xlink="http://www.w3.org/1999/xlink" x="0px" y="0px"
	 viewBox="0 0 16 16" style="enable-background:new 0 0 16 16;" xml:space="preserve">
<g id="icon">
	<path style="opacity:0.5;fill:#FFFFFF;enable-background:new    ;" d="M10,4.3v2.505c1.823,0.941,3.264,1.685,4.034,2.089
		C14.938,8.006,15.5,6.769,15.5,5.4c0-2.706-2.194-4.9-4.9-4.9C9.215,0.5,7.965,1.076,7.073,2H7.7C8.968,2,10,3.032,10,4.3z"/>
	<path style="fill:#6486C4;" d="M7.807,2.003C8.567,1.377,9.54,1,10.6,1C13.026,1,15,2.974,15,5.4c0,1.286-0.554,2.444-1.436,3.249
		C14,8.876,14.317,9.043,14.492,9.138C15.425,8.167,16,6.85,16,5.4C16,2.422,13.578,0,10.6,0C8.91,0,7.4,0.781,6.409,2H7.7
		C7.736,2,7.772,2.001,7.807,2.003z"/>
	<path style="opacity:0.5;fill:#FFFFFF;enable-background:new    ;" d="M4,7.035c0-0.719,0.385-1.391,1.003-1.754
		c0.309-0.181,0.661-0.276,1.019-0.276c0.355,0,0.71,0.094,1.026,0.272C7.134,5.324,7.757,5.647,8.5,6.031V4.3
		c0-0.442-0.358-0.8-0.8-0.8H1.3c-0.442,0-0.8,0.358-0.8,0.8v6.4c0,0.442,0.358,0.8,0.8,0.8H4V7.035z"/>
	<path style="fill:#6486C4;" d="M4,11H1.3C1.135,11,1,10.865,1,10.7V4.3C1,4.135,1.135,4,1.3,4h6.4C7.865,4,8,4.135,8,4.3v1.472
		c0.301,0.156,0.648,0.335,1,0.517V4.3C9,3.583,8.417,3,7.7,3H1.3C0.583,3,0,3.583,0,4.3v6.4C0,11.417,0.583,12,1.3,12H4V11z"/>
	<path style="opacity:0.5;fill:#FFFFFF;enable-background:new    ;" d="M5.5,14.983c0-0.434,0-7.649,0-7.948
		c0-0.388,0.41-0.677,0.814-0.45c0.324,0.182,6.991,3.602,7.544,3.916c0.363,0.206,0.357,0.698,0,0.904
		c-0.398,0.23-7.089,3.769-7.561,4.025C5.952,15.618,5.5,15.411,5.5,14.983z"/>
	<path style="fill:#6486C4;" d="M14.105,10.066c-0.332-0.188-2.684-1.402-4.76-2.473C7.978,6.887,6.686,6.22,6.559,6.149
		c-0.338-0.19-0.731-0.192-1.05-0.005C5.195,6.328,5,6.669,5,7.035v7.948c0,0.363,0.183,0.689,0.49,0.871
		C5.653,15.951,5.839,16,6.025,16c0.176,0,0.352-0.043,0.511-0.13c0.17-0.093,1.204-0.641,2.401-1.276
		c2.686-1.425,4.93-2.616,5.17-2.755c0.327-0.189,0.521-0.522,0.52-0.891C14.627,10.581,14.431,10.251,14.105,10.066z
		 M13.608,10.972c-0.244,0.141-3.073,1.642-5.139,2.738c-1.249,0.663-2.236,1.186-2.411,1.281c-0.029,0.016-0.055,0.006-0.057,0.006
		l0,0c0,0-0.001-0.004-0.001-0.014V7.035c0-0.018,0.011-0.026,0.014-0.028c0.014-0.008,0.049,0.01,0.056,0.014
		c0.136,0.076,1.159,0.604,2.817,1.46c1.965,1.014,4.41,2.276,4.725,2.454c0.008,0.005,0.017,0.011,0.017,0.015
		C13.628,10.957,13.621,10.965,13.608,10.972z"/>
</g>
</svg>
