<?xml version="1.0" encoding="iso-8859-1"?>
<!-- Generator: Adobe Illustrator 26.3.0, SVG Export Plug-In . SVG Version: 6.00 Build 0)  -->
<svg version="1.1" id="Layer_1" xmlns="http://www.w3.org/2000/svg" xmlns:xlink="http://www.w3.org/1999/xlink" x="0px" y="0px"
	 viewBox="0 0 16 16" style="enable-background:new 0 0 16 16;" xml:space="preserve">
<g id="icon">
	<polygon style="fill:#CB535D;" points="2.9,4.1 0.4,4.1 0.4,2.9 2.9,2.9 4.1,2.9 6.6,2.9 6.6,4.1 4.1,4.1 	"/>
	<path style="fill:#6D6E71;" d="M11.078,8.033L8.045,5.155c0,0-2.156,1.417-3.973,2.512L3.578,7.965l0.108,0.568
		C3.729,8.759,3.751,9.02,3.751,9.307c0,1.859-0.801,4.203-1.21,4.614c-0.47,0.472-0.688,0.863-0.688,1.231
		c0,0.081,0.01,0.159,0.031,0.238l0.003,0.009c0.019,0.07,0.039,0.129,0.064,0.181l3.673-4.136C5.472,11,5.579,10.502,5.911,10.164
		c0.23-0.235,0.536-0.364,0.863-0.364c0.326,0,0.632,0.129,0.863,0.364c0.472,0.482,0.472,1.266,0,1.748
		c-0.23,0.234-0.536,0.364-0.861,0.364c-0.136,0-0.272-0.023-0.4-0.068l-4.257,3.57c0.066,0.044,0.149,0.077,0.257,0.106
		c0.093,0.025,0.194,0.043,0.304,0.043c0.297,0,0.666-0.134,1.161-0.631c0.491-0.494,3.659-1.566,5.351-1.225l0.572,0.115l0.3-0.502
		c1.038-1.739,2.682-3.933,2.682-3.933L11.078,8.033z"/>
	<path style="opacity:0.5;fill:#FFFFFF;enable-background:new    ;" d="M1.896,15.64l3.727-4.197
		C5.472,11,5.579,10.502,5.911,10.164c0.23-0.235,0.536-0.364,0.863-0.364c0.326,0,0.632,0.129,0.863,0.364
		c0.472,0.482,0.472,1.266,0,1.748c-0.23,0.234-0.536,0.364-0.861,0.364c-0.136,0-0.272-0.023-0.4-0.068l-4.303,3.609L1.896,15.64z"
		/>
	<path style="fill:#6485C3;" d="M16,6.794c-0.005,0.144-0.07,0.282-0.177,0.377c-0.4,0.356-1.617,1.333-2.551,1.987L8.609,4.613
		c0.71-0.921,1.771-2.22,2.143-2.637c0.097-0.109,0.236-0.173,0.382-0.176c0.148-0.003,0.288,0.055,0.39,0.16l4.325,4.445
		C15.95,6.508,16.005,6.65,16,6.794z"/>
</g>
</svg>
