<?xml version="1.0" encoding="iso-8859-1"?>
<!-- Generator: Adobe Illustrator 26.3.0, SVG Export Plug-In . SVG Version: 6.00 Build 0)  -->
<svg version="1.1" id="Layer_1" xmlns="http://www.w3.org/2000/svg" xmlns:xlink="http://www.w3.org/1999/xlink" x="0px" y="0px"
	 viewBox="0 0 16 16" style="enable-background:new 0 0 16 16;" xml:space="preserve">
<g id="icon">
	<path style="fill:#6D6E71;" d="M0.636,16C0.33,16,0,15.823,0,15.434c0-1.045,0.475-1.986,0.873-2.591l0.045-0.068l-0.056-0.059
		c-0.42-0.447-0.652-0.996-0.652-1.547c0-1.352,1.419-2.494,3.099-2.494c1.496,0,2.77,1.001,2.899,2.278l0.007,0.066L6.15,11.006
		c-0.449-0.081-0.854-0.218-1.206-0.407l-0.019-0.01l-0.006-0.02C4.76,9.998,4.186,9.708,3.215,9.708
		c-1.089,0-1.911,0.628-1.911,1.46c0,0.377,0.169,0.741,0.477,1.025l0.01,0.009l0.526,0.338l0.004,0.001
		c0.274,0.118,0.584,0.181,0.895,0.181c0.03,0,0.059-0.002,0.089-0.004l0.016-0.001l0.014,0.008c0.384,0.234,0.801,0.433,1.24,0.59
		l0.117,0.042l-0.114,0.05c-0.422,0.187-0.892,0.285-1.362,0.285c-0.419,0-0.829-0.076-1.219-0.227l-0.08-0.031L1.871,13.51
		c-0.388,0.645-0.585,1.3-0.585,1.946C1.286,15.83,0.949,16,0.636,16z M7.23,13.025c-1.944,0-3.677-0.714-4.755-1.958l-0.156-0.181
		l0.121-0.113c0.179-0.168,0.447-0.274,0.818-0.324c0.115,0.001,0.217,0.007,0.311,0.017l0.017,0.002l0.058,0.059
		c0.832,0.871,2.042,1.312,3.597,1.312c1.311,0,2.656-0.373,3.89-1.077c1.777-1.015,3.053-2.564,3.5-4.251
		c0.308-1.162,0.185-2.267-0.357-3.194c-0.784-1.343-2.323-2.114-4.223-2.114c-1.311,0-2.656,0.373-3.89,1.077
		C3.854,3.597,2.382,5.883,2.5,7.968l0.002,0.043L2.46,8.019C2.08,8.095,1.717,8.221,1.379,8.393L1.314,8.426L1.307,8.354
		C1.193,7.28,1.411,6.135,1.936,5.042c0.733-1.525,2.026-2.873,3.642-3.796C7.005,0.431,8.568,0,10.099,0
		c2.295,0,4.247,0.998,5.223,2.669c0.7,1.2,0.862,2.619,0.468,4.105c-0.535,2.016-2.02,3.846-4.075,5.02
		C10.305,12.6,8.754,13.025,7.23,13.025C7.23,13.025,7.23,13.025,7.23,13.025z"/>
</g>
</svg>
