<?xml version="1.0" encoding="iso-8859-1"?>
<!-- Generator: Adobe Illustrator 26.3.0, SVG Export Plug-In . SVG Version: 6.00 Build 0)  -->
<svg version="1.1" id="Layer_1" xmlns="http://www.w3.org/2000/svg" xmlns:xlink="http://www.w3.org/1999/xlink" x="0px" y="0px"
	 viewBox="0 0 16 16" style="enable-background:new 0 0 16 16;" xml:space="preserve">
<g id="icon">
	<path style="opacity:0.6;fill:#6E6F72;enable-background:new    ;" d="M15.556,1.643c-0.275-0.031-0.522,0.166-0.553,0.441
		l-0.868,7.718l-3.717-1.042l0.087-3.142c0.008-0.276-0.21-0.506-0.486-0.514c-0.278-0.007-0.506,0.21-0.514,0.486l-0.08,2.891
		L7.77,8.017L7.742,4.9h-1l0.029,3.22L2.05,11.039L0.996,2.954C0.96,2.681,0.709,2.488,0.435,2.523
		C0.162,2.559-0.031,2.81,0.004,3.084l1.154,8.852c0,0.002,0.001,0.004,0.001,0.007c0.001,0.006,0.003,0.012,0.004,0.018
		c0.004,0.024,0.01,0.047,0.018,0.07c0.002,0.006,0.004,0.013,0.006,0.019c0.01,0.027,0.023,0.054,0.038,0.078
		c0.001,0.002,0.002,0.004,0.003,0.006c0.004,0.006,0.008,0.011,0.012,0.016c0.006,0.009,0.013,0.019,0.02,0.028
		c0.007,0.009,0.014,0.017,0.021,0.025c0.007,0.008,0.014,0.015,0.021,0.022c0.008,0.008,0.017,0.016,0.025,0.023
		c0.007,0.006,0.014,0.012,0.022,0.018c0.009,0.007,0.019,0.014,0.029,0.021c0.008,0.005,0.016,0.01,0.024,0.015
		c0.01,0.006,0.021,0.011,0.031,0.017c0.005,0.003,0.01,0.006,0.016,0.008l8.074,3.627c0,0,0.001,0,0.002,0.001l0.002,0.001
		c0.027,0.012,0.055,0.021,0.083,0.028c0.004,0.001,0.007,0.002,0.011,0.003c0.03,0.007,0.06,0.01,0.09,0.012
		C9.712,15.999,9.715,16,9.717,16c0.005,0,0.009,0,0.014,0h0l0,0c0,0,0,0,0,0c0.068,0,0.134-0.014,0.193-0.039
		c0.007-0.003,0.012-0.007,0.019-0.01c0.023-0.011,0.046-0.022,0.067-0.036c0.009-0.006,0.018-0.014,0.027-0.021
		c0.017-0.013,0.034-0.026,0.049-0.042c0.002-0.002,0.005-0.004,0.007-0.006l4.835-5.058c0.006-0.006,0.01-0.013,0.016-0.019
		c0.008-0.009,0.016-0.019,0.023-0.028c0.012-0.016,0.022-0.032,0.031-0.049c0.005-0.009,0.011-0.018,0.016-0.028
		c0.014-0.027,0.025-0.056,0.033-0.085c0,0,0,0,0,0c0-0.001,0-0.003,0.001-0.004c0.007-0.024,0.012-0.049,0.015-0.075l0.934-8.302
		C16.028,1.921,15.83,1.673,15.556,1.643z M9.252,14.737l-6.534-2.935L7.35,8.937l2.047,0.574L9.252,14.737z M10.267,14.216
		l0.123-4.426l3.24,0.908L10.267,14.216z"/>
	<polygon style="opacity:0.5;fill:#6486C4;enable-background:new    ;" points="15.445,2.147 7.171,0.6 0.555,3.023 9.95,5.548 	"/>
	<path style="fill:#6486C4;" d="M9.95,6.048c-0.043,0-0.087-0.006-0.13-0.017L0.425,3.506c-0.211-0.057-0.36-0.243-0.37-0.461
		c-0.01-0.218,0.123-0.417,0.328-0.492l6.616-2.423C7.083,0.1,7.174,0.092,7.263,0.109l8.274,1.547c0.203,0.038,0.362,0.197,0.4,0.4
		c0.038,0.203-0.053,0.408-0.228,0.517l-5.494,3.402C10.134,6.023,10.043,6.048,9.95,6.048z M2.209,2.95l7.662,2.06l4.213-2.608
		l-6.87-1.284L2.209,2.95z"/>
</g>
</svg>
