<?xml version="1.0" encoding="iso-8859-1"?>
<!-- Generator: Adobe Illustrator 26.3.0, SVG Export Plug-In . SVG Version: 6.00 Build 0)  -->
<svg version="1.1" id="Layer_1" xmlns="http://www.w3.org/2000/svg" xmlns:xlink="http://www.w3.org/1999/xlink" x="0px" y="0px"
	 viewBox="0 0 16 16" style="enable-background:new 0 0 16 16;" xml:space="preserve">
<g id="icon">
	<polygon style="opacity:0.5;fill:#6486C4;enable-background:new    ;" points="9.732,15.445 1.648,11.792 7.274,8.389 
		14.514,10.413 	"/>
	<path style="fill:#6486C4;" d="M9.732,15.945c-0.069,0-0.14-0.014-0.206-0.044l-8.085-3.653c-0.169-0.076-0.282-0.24-0.293-0.426
		s0.082-0.362,0.24-0.458l5.627-3.402c0.118-0.071,0.26-0.091,0.393-0.054l7.24,2.024c0.169,0.047,0.301,0.179,0.347,0.349
		c0.047,0.169,0.001,0.35-0.12,0.477l-4.782,5.031C9.998,15.891,9.866,15.945,9.732,15.945z M2.72,11.727l6.894,3.115l3.965-4.171
		L7.348,8.929L2.72,11.727z"/>
	<path style="opacity:0.6;fill:#6E6F72;enable-background:new    ;" d="M15.995,1.988c-0.002-0.015-0.005-0.03-0.008-0.045
		c-0.004-0.017-0.008-0.033-0.013-0.049c-0.005-0.014-0.009-0.027-0.015-0.04c-0.007-0.017-0.016-0.033-0.025-0.05
		c-0.004-0.007-0.007-0.015-0.011-0.022c-0.003-0.005-0.007-0.008-0.01-0.013c-0.011-0.015-0.022-0.03-0.035-0.044
		c-0.009-0.01-0.018-0.021-0.027-0.031c-0.013-0.013-0.027-0.023-0.041-0.035c-0.011-0.009-0.021-0.018-0.033-0.025
		c-0.015-0.01-0.03-0.018-0.046-0.026c-0.012-0.007-0.024-0.014-0.038-0.019c-0.015-0.006-0.031-0.011-0.047-0.015
		c-0.015-0.005-0.029-0.01-0.045-0.013c-0.003-0.001-0.006-0.002-0.009-0.003l-8.297-1.55C7.266,0.003,7.238,0.001,7.209,0.001
		C7.205,0.001,7.202,0,7.199,0C7.195,0,7.191,0.001,7.187,0.001C7.159,0.002,7.131,0.005,7.104,0.01
		C7.102,0.011,7.099,0.011,7.097,0.011C7.075,0.016,7.054,0.022,7.033,0.03L0.329,2.466c-0.023,0.008-0.044,0.019-0.065,0.03
		C0.26,2.498,0.256,2.499,0.252,2.502C0.225,2.517,0.201,2.534,0.178,2.554C0.17,2.56,0.164,2.567,0.157,2.574
		C0.142,2.588,0.128,2.602,0.115,2.618C0.107,2.627,0.101,2.637,0.094,2.647c-0.011,0.015-0.021,0.031-0.03,0.047
		C0.058,2.705,0.052,2.715,0.047,2.727C0.039,2.745,0.032,2.764,0.025,2.784C0.023,2.79,0.02,2.796,0.018,2.803
		C0.017,2.807,0.017,2.811,0.016,2.815C0.01,2.837,0.007,2.859,0.005,2.882C0.004,2.891,0.002,2.9,0.001,2.908
		C0,2.938,0,2.969,0.004,3v0c0,0.001,0,0.002,0,0.003L1.157,11.9H1.16c-0.006-0.026-0.01-0.052-0.012-0.079
		c-0.011-0.185,0.082-0.362,0.24-0.458l0.655-0.396L1.092,3.616l5.653,1.547l0.026,2.946l0.245-0.148
		C7.134,7.89,7.276,7.87,7.409,7.908L7.77,8.009L7.747,5.437l1.747,0.478l-0.242,8.764l0.361,0.163l0.654-0.688l0.23-8.338
		l4.389-2.786l-0.755,6.757l0.516,0.144c0.169,0.047,0.301,0.179,0.347,0.349c0.047,0.169,0.001,0.35-0.12,0.477l-0.094,0.099
		c0.15-0.072,0.261-0.217,0.281-0.394l0.934-8.358c0.001-0.007,0-0.014,0-0.021c0.001-0.016,0.001-0.032,0.001-0.048
		C15.998,2.02,15.997,2.004,15.995,1.988z M2.149,2.868L6.71,1.211l0.026,2.912L2.149,2.868z M9.924,4.996L7.738,4.398L7.709,1.103
		l6.451,1.205L9.924,4.996z"/>
</g>
</svg>
