<?xml version="1.0" encoding="iso-8859-1"?>
<!-- Generator: Adobe Illustrator 26.3.0, SVG Export Plug-In . SVG Version: 6.00 Build 0)  -->
<svg version="1.1" id="Layer_1" xmlns="http://www.w3.org/2000/svg" xmlns:xlink="http://www.w3.org/1999/xlink" x="0px" y="0px"
	 viewBox="0 0 16 16" style="enable-background:new 0 0 16 16;" xml:space="preserve">
<g id="icon">
	<path style="opacity:0.6;fill:#6E6F72;enable-background:new    ;" d="M15.592,1.558l-8.297-1.55
		C7.266,0.003,7.238,0.001,7.209,0.001C7.205,0.001,7.202,0,7.199,0C7.195,0,7.191,0.001,7.187,0.001
		C7.159,0.002,7.131,0.005,7.104,0.01C7.102,0.011,7.099,0.011,7.097,0.011C7.075,0.016,7.054,0.022,7.033,0.03L0.329,2.466
		c-0.023,0.008-0.044,0.019-0.065,0.03C0.26,2.498,0.256,2.499,0.252,2.502C0.225,2.517,0.201,2.534,0.178,2.554
		C0.17,2.56,0.164,2.567,0.157,2.574C0.142,2.588,0.128,2.602,0.115,2.618C0.107,2.627,0.101,2.637,0.094,2.647
		c-0.011,0.015-0.021,0.031-0.03,0.047C0.058,2.705,0.052,2.715,0.047,2.727C0.039,2.745,0.032,2.764,0.025,2.784
		C0.023,2.79,0.02,2.796,0.018,2.803C0.017,2.807,0.017,2.811,0.016,2.815C0.01,2.837,0.007,2.859,0.005,2.882
		C0.004,2.891,0.002,2.9,0.001,2.908C0,2.938,0,2.969,0.004,3v0c0,0.001,0,0.002,0,0.003l1.153,8.908
		c0,0.003,0.001,0.005,0.002,0.008c0.001,0.007,0.003,0.013,0.004,0.019c0.004,0.024,0.01,0.047,0.018,0.07
		c0.002,0.006,0.004,0.012,0.006,0.018c0.01,0.027,0.023,0.054,0.039,0.079c0.001,0.002,0.002,0.005,0.003,0.007
		c0.003,0.005,0.007,0.01,0.011,0.015c0.007,0.01,0.013,0.019,0.02,0.028c0.007,0.009,0.013,0.017,0.021,0.024
		c0.007,0.008,0.014,0.015,0.021,0.022c0.008,0.008,0.017,0.016,0.025,0.023c0.007,0.006,0.014,0.012,0.022,0.018
		c0.01,0.007,0.019,0.014,0.029,0.021c0.008,0.005,0.015,0.01,0.023,0.015c0.01,0.006,0.021,0.012,0.031,0.017
		c0.005,0.002,0.01,0.005,0.015,0.008l8.077,3.653C9.592,15.986,9.662,16,9.731,16c0.19,0,0.372-0.109,0.456-0.294
		c0.114-0.252,0.002-0.548-0.25-0.662l-7.224-3.267L7.35,8.89L10,9.638V8.599L7.77,7.97L7.747,5.437l2.126,0.582
		c0.044,0.012,0.089,0.018,0.132,0.018c0.22,0,0.421-0.146,0.482-0.368c0.073-0.266-0.084-0.541-0.35-0.614L7.738,4.398L7.709,1.103
		l7.7,1.438c0.271,0.051,0.533-0.128,0.583-0.4C16.042,1.87,15.863,1.609,15.592,1.558z M6.71,1.211l0.026,2.912L2.149,2.868
		L6.71,1.211z M2.05,11.012L1.092,3.616l5.653,1.547l0.026,2.91L2.05,11.012z"/>
	<polygon style="opacity:0.5;fill:#6486C4;enable-background:new    ;" points="9.732,15.445 14.514,10.362 15.445,2.109 
		10.054,5.534 	"/>
	<path style="fill:#6486C4;" d="M9.732,15.945c-0.065,0-0.13-0.012-0.192-0.038c-0.192-0.08-0.315-0.27-0.308-0.478l0.322-9.911
		C9.56,5.352,9.646,5.2,9.786,5.111l5.391-3.424c0.163-0.103,0.37-0.104,0.533-0.002c0.163,0.102,0.253,0.289,0.232,0.48
		l-0.931,8.253c-0.012,0.107-0.059,0.208-0.133,0.287l-4.782,5.083C10,15.89,9.867,15.945,9.732,15.945z M10.545,5.814l-0.27,8.324
		l3.761-3.998l0.795-7.049L10.545,5.814z"/>
</g>
</svg>
