<?xml version="1.0" encoding="UTF-8"?>
<!DOCTYPE svg PUBLIC "-//W3C//DTD SVG 1.1//EN" "http://www.w3.org/Graphics/SVG/1.1/DTD/svg11.dtd">
<svg version="1.1" id="Layer_1" xmlns="http://www.w3.org/2000/svg" xmlns:xlink="http://www.w3.org/1999/xlink" x="0px" y="0px" width="16px" height="16px" viewBox="0 0 16 16" enable-background="new 0 0 16 16" xml:space="preserve">
  <g id="icon">
    <rect x="0.5" y="0.5" width="15" height="15" fill="#FFFFFF" opacity="0.5"/>
    <path d="M16,16H0V0h16V16zM1,15h14V1H1V15z" fill="#6D6E71"/>
    <path d="M11,15h-1V1h1V15zM6,15H5V1h1V15z" fill="#B7B7B7"/>
    <path d="M16,14H0V3h16V14zM1,13h14V4H1V13z" fill="#FFFFFF" opacity="0.5"/>
    <rect x="0.5" y="4.5" width="15" height="8" fill="#BAD2EE"/>
    <path d="M16,13H0V4h16V13zM1,12h14V5H1V12z" fill="#6485C3"/>
    <path d="M11.5669,11.8677c-0.1172,0,-0.2277,-0.0455,-0.3109,-0.128l-1.0771,-1.0677c-0.0838,-0.0831,-0.1302,-0.1938,-0.1308,-0.3118c-0.0005,-0.118,0.045,-0.2291,0.128,-0.3129L10.5206,9.7H8.7417C8.4981,9.7,8.3,9.5019,8.3,9.2583V7.7417C8.3,7.4981,8.4981,7.3,8.7417,7.3h1.7789l-0.3444,-0.3474c-0.0831,-0.0838,-0.1285,-0.1949,-0.128,-0.3129c0.0005,-0.118,0.047,-0.2287,0.1308,-0.3118l1.0771,-1.0677c0.0833,-0.0825,0.1937,-0.128,0.3109,-0.128c0.1187,0,0.2301,0.0464,0.3137,0.1307l2.9009,2.9261c0.17,0.1714,0.17,0.4504,0,0.6219l-2.9009,2.9261C11.797,11.8213,11.6856,11.8677,11.5669,11.8677z" fill="#FFFFFF" opacity="0.5"/>
    <polygon points="11.5653,11.0607 10.8552,10.3567 12.2002,9 9,9 9,8 12.2002,8 10.8552,6.6433 11.5653,5.9393 14.1041,8.5" fill="#6D6E71" stroke-linejoin="miter"/>
    <path d="M4.4421,11.8677c0.1172,0,0.2277,-0.0455,0.3109,-0.128l1.0771,-1.0677c0.0838,-0.0831,0.1302,-0.1938,0.1308,-0.3118c0.0005,-0.118,-0.045,-0.2291,-0.128,-0.3129L5.4884,9.7h1.7789c0.2435,0,0.4417,-0.1981,0.4417,-0.4417V7.7417c0,-0.2435,-0.1981,-0.4417,-0.4417,-0.4417H5.4884l0.3444,-0.3474c0.0831,-0.0838,0.1285,-0.1949,0.128,-0.3129c-0.0005,-0.118,-0.047,-0.2287,-0.1308,-0.3118L4.753,5.2603c-0.0833,-0.0825,-0.1937,-0.128,-0.3109,-0.128c-0.1187,0,-0.2301,0.0464,-0.3137,0.1307L1.2275,8.1891c-0.17,0.1714,-0.17,0.4504,0,0.6219l2.9009,2.9261C4.212,11.8213,4.3234,11.8677,4.4421,11.8677z" fill="#FFFFFF" opacity="0.5"/>
    <polygon points="4.4436,11.0607 1.9049,8.5 4.4436,5.9393 5.1538,6.6433 3.8087,8 7.009,8 7.009,9 3.8087,9 5.1538,10.3567" fill="#6D6E71" stroke-linejoin="miter"/>
  </g>
</svg>
