<?xml version="1.0" encoding="UTF-8"?>
<!DOCTYPE svg PUBLIC "-//W3C//DTD SVG 1.1//EN" "http://www.w3.org/Graphics/SVG/1.1/DTD/svg11.dtd">
<svg version="1.1" id="Layer_1" xmlns="http://www.w3.org/2000/svg" xmlns:xlink="http://www.w3.org/1999/xlink" x="0px" y="0px" width="16px" height="16px" viewBox="0 0 16 16" enable-background="new 0 0 16 16" xml:space="preserve">
  <g id="icon">
    <path d="M10.1213,7.4693L16,13.8082V16H0V6.5521l5.4396,3.9042L10.1213,7.4693zM2.6802,7.491L2.6802,7.491L5.466,9.4904l2.2183,-1.4153l0,0l0.0958,-0.0611l0.326,-0.208l0,0l0.4218,-0.2691l-3.039,-4.3818l-3.2154,4.044L2.6802,7.491zM12.089,8.4146l0.341,0.3677l0,0l2.57,2.7712l0,0l1,1.0783V5.3141L12.089,8.4146zM1.6228,6.7321l1.4329,-1.8022l0,0l0.3143,-0.3953L0,0.9694v4.5979l0.5,0.3589L1.6228,6.7321zM8.445,6.0136l0.7578,1.0927l1.051,-0.6705l1.2895,1.3904l1.6415,-1.3013v0l0.3919,-0.3107L10.715,2.7521L7.8722,5.1876L8.445,6.0136L8.445,6.0136z" fill="#6485C3"/>
  </g>
</svg>
