<?xml version="1.0" encoding="UTF-8"?>
<!DOCTYPE svg PUBLIC "-//W3C//DTD SVG 1.1//EN" "http://www.w3.org/Graphics/SVG/1.1/DTD/svg11.dtd">
<svg version="1.1" id="Layer_1" xmlns="http://www.w3.org/2000/svg" xmlns:xlink="http://www.w3.org/1999/xlink" x="0px" y="0px" width="16px" height="16px" viewBox="0 0 16 16" enable-background="new 0 0 16 16" xml:space="preserve">
  <g id="icon">
    <path d="M16.0167,5.9308l-2.2901,2.646L9.8233,4.7469l2.297,-2.6392L16.0167,5.9308zM7.5686,1.0592L5.0974,3.934l4.0762,0.5354l2.3197,-2.6652L7.5686,1.0592zM6.6148,1.1377L2.0674,2.3973L0.1313,5.0433l3.9989,-1.0155L6.6148,1.1377z" fill="#EEAC55"/>
    <path d="M10.4419,12.2232l-2.421,2.91l-3.7596,-4.5718l2.4708,-2.8495L10.4419,12.2232zM11.2368,12.4008l-2.3322,2.8033l4.577,-1.643l2.4685,-2.8523L11.2368,12.4008zM6.0048,7.4446l-3.4824,0.2441L0.181,10.541l3.3493,-0.2426L6.0048,7.4446z" fill="#6485C3"/>
  </g>
</svg>
