<?xml version="1.0" encoding="UTF-8"?>
<!DOCTYPE svg PUBLIC "-//W3C//DTD SVG 1.1//EN" "http://www.w3.org/Graphics/SVG/1.1/DTD/svg11.dtd">
<svg version="1.1" id="Layer_1" xmlns="http://www.w3.org/2000/svg" xmlns:xlink="http://www.w3.org/1999/xlink" x="0px" y="0px" width="16px" height="16px" viewBox="0 0 16 16" enable-background="new 0 0 16 16" xml:space="preserve">
  <g id="icon">
    <path d="M4.5,11.5M4.5,11.5M0.5,11.5v4h4l2,-3.2V8.5M4.5,11.5v4" fill="#FFFFFF" opacity="0.5"/>
    <polygon points="0,11.5 0,16 4.7771,16 7,12.4434 7,8.5 6,8.5 6,12.1566 5,13.7566 5,11.5 4,11.5 4,15 1,15 1,11.5" fill="#6485C3" stroke-linejoin="miter"/>
    <path d="M4.5,7.5M4.5,7.5M0.5,11.5h4l2,-3.2V4.5H2.6L0.5,7.5V11.5zM0.5,6.5M6.5,4.5L4.5,7.5v4M0.5,7.5h4M0.5,6.5" fill="#FFFFFF" opacity="0.5"/>
    <path d="M2.3397,4H7v4.4434L4.7771,12H0l0,-4.6576L2.3397,4zM4,11V8H1v3H4zM5.5657,5H2.8604l-1.4,2h2.7721L5.5657,5zM6,8.1566V6.1514l-1,1.5v2.1052L6,8.1566z" fill="#EEAC55"/>
    <path d="M12.5,8.5M12.5,8.5M8.5,8.5v7h4l2,-3.2V5.5M12.5,8.5v7" fill="#FFFFFF" opacity="0.5"/>
    <polygon points="8,8.5 8,16 12.7771,16 15,12.4434 15,5.5 14,5.5 14,12.1566 13,13.7566 13,8.5 12,8.5 12,15 9,15 9,8.5" fill="#6485C3" stroke-linejoin="miter"/>
    <path d="M12.5,3.5M12.5,3.5M8.5,8.5h4l2,-3.2V0.5h-3.9L8.5,3.5V8.5zM8.5,2.5M14.5,0.5l-2,3v5M8.5,3.5h4M8.5,2.5" fill="#FFFFFF" opacity="0.5"/>
    <path d="M10.3396,0L15,0v5.4434L12.7771,9H8V3.3424L10.3396,0zM12,8V4H9v4H12zM13.5657,1h-2.7054l-1.4,2h2.7721L13.5657,1zM14,5.1566V2.1514l-1,1.5v3.1052L14,5.1566z" fill="#EEAC55"/>
  </g>
</svg>
