<?xml version="1.0" encoding="UTF-8"?>
<!DOCTYPE svg PUBLIC "-//W3C//DTD SVG 1.1//EN" "http://www.w3.org/Graphics/SVG/1.1/DTD/svg11.dtd">
<svg version="1.1" id="Layer_1" xmlns="http://www.w3.org/2000/svg" xmlns:xlink="http://www.w3.org/1999/xlink" x="0px" y="0px" width="16px" height="16px" viewBox="0 0 16 16" enable-background="new 0 0 16 16" xml:space="preserve">
  <g id="icon">
    <path d="M8.4091,11.9067l6.8336,-6.845c0.3114,-0.3119,0.3114,-0.8177,0,-1.1296L12.0497,0.734c-0.3114,-0.3119,-0.8164,-0.3119,-1.1278,0L4.0882,7.579" fill="#FFFFFF" opacity="0.5"/>
    <path d="M8.7091,11.6067L5.0544,15.266c-0.3114,0.3119,-0.8164,0.3119,-1.1278,0l-3.193,-3.1981c-0.3114,-0.3119,-0.3114,-0.8177,0,-1.1296L4.3882,7.279" fill="#FFFFFF" opacity="0.5"/>
    <path d="M4.4906,16c-0.3467,0,-0.6727,-0.1352,-0.9178,-0.3806L0.3797,12.4212c-0.5054,-0.5063,-0.5054,-1.3299,0.5,-2.3362l2.9546,-2.9593l0.7077,0.7065l-2.9546,2.9593c-0.6165,0.6167,-0.6165,0.8064,-0.5,0.9231l3.1931,3.1981c0.1122,0.1125,0.3078,0.1125,0.4202,0l3.4546,-3.4593l0.7077,0.7065l-3.4546,3.4593C5.1632,15.8648,4.8373,16,4.4906,16z" fill="#CB525D"/>
    <rect x="7.0161" y="15" width="8.9625" height="1" fill="#6D6E71"/>
    <path d="M15.5965,3.5788L12.4035,0.3807C12.1584,0.1352,11.8325,0,11.4857,0s-0.6727,0.1352,-0.9178,0.3807L3.7762,7.1833l5.0314,5.0314l6.7889,-6.7997C16.102,4.9087,16.102,4.085,15.5965,3.5788zM14.8888,4.7084L8.807,10.7999L5.1898,7.1827l6.0858,-6.0955c0.1123,-0.1125,0.308,-0.1125,0.4202,0l3.1931,3.1981C15.0053,4.402,15.0053,4.5917,14.8888,4.7084z" fill="#6485C3"/>
  </g>
</svg>
