<?xml version="1.0" encoding="UTF-8"?>
<!DOCTYPE svg PUBLIC "-//W3C//DTD SVG 1.1//EN" "http://www.w3.org/Graphics/SVG/1.1/DTD/svg11.dtd">
<svg version="1.1" id="Layer_1" xmlns="http://www.w3.org/2000/svg" xmlns:xlink="http://www.w3.org/1999/xlink" x="0px" y="0px" width="16px" height="16px" viewBox="0 0 16 16" enable-background="new 0 0 16 16" xml:space="preserve">
  <g id="icon">
    <path d="M4.9881,14.9796l-0.7049,-0.7093L5.5616,13H2.95c-1.0752,0,-1.95,-0.8748,-1.95,-1.95V9h1v2.05c0,0.5238,0.4262,0.95,0.95,0.95h2.6633l-1.23,-1.222l0.7048,-0.7094l2.4213,2.4055L4.9881,14.9796z" fill="#CB525D"/>
    <path d="M5.429,9c0.4115,-0.6561,0.9509,-1.1855,1.571,-1.5604V6.6h2.5V3.5571L6.5333,0.5H0.5v7.5h2.5v1H5.429z" fill="#FFFFFF" opacity="0.5"/>
    <path d="M4,9h1V8h1.2566C6.7634,7.5322,7.3573,7.189,8,6.9925V6V5H7H2v3h1h1V9zM5,6h2v1H5V6zM3,7V6h1v1H3z" fill="#BAD2EE"/>
    <path d="M10,3.3533V6.6H9V4H6V1H1v7H0V0h6.7437L10,3.3533z" fill="#6D6E71"/>
    <path d="M13.1003,10.1128c-0.4123,0,-0.8007,0.1116,-1.1424,0.3078c-0.4583,-1.1529,-1.5051,-1.9591,-2.7238,-1.9591c-1.062,0,-1.9929,0.6125,-2.518,1.5329l2.4958,2.4796l-2.9884,2.9698c0.1823,0.0612,0.3758,0.0946,0.5764,0.0946h6.3005c1.3642,0,2.4701,-1.2146,2.4701,-2.7128C15.5704,11.3274,14.4645,10.1128,13.1003,10.1128z" fill="#FFFFFF" opacity="0.5"/>
    <path d="M13.0675,9.6129c-0.3005,0,-0.5978,0.0501,-0.885,0.1492C11.5613,8.6731,10.4534,8,9.2738,8c-1.174,0,-2.2428,0.6649,-2.8632,1.691l0.7609,0.756c0.4149,-0.8152,1.2102,-1.3593,2.1023,-1.3593c0.9553,0,1.8207,0.6215,2.2049,1.5832c0.0558,0.1398,0.1648,0.249,0.299,0.2995c0.0544,0.0204,0.1112,0.0308,0.1689,0.0308c0.0834,0,0.1664,-0.0222,0.2398,-0.0642c0.2744,-0.1568,0.5709,-0.2364,0.8811,-0.2364c1.0559,0,1.915,0.9447,1.915,2.1059s-0.8591,2.1059,-1.915,2.1059H6.8852c-0.0406,0,-0.0804,-0.003,-0.1201,-0.0067l-0.8704,0.8649c0.3029,0.147,0.638,0.2294,0.9905,0.2294h6.1823c1.617,0,2.9325,-1.4326,2.9325,-3.1935C16,11.0455,14.6845,9.6129,13.0675,9.6129z" fill="#6485C3"/>
  </g>
</svg>
