<?xml version="1.0" encoding="UTF-8"?>
<!DOCTYPE svg PUBLIC "-//W3C//DTD SVG 1.1//EN" "http://www.w3.org/Graphics/SVG/1.1/DTD/svg11.dtd">
<svg version="1.1" id="Layer_1" xmlns="http://www.w3.org/2000/svg" xmlns:xlink="http://www.w3.org/1999/xlink" x="0px" y="0px" width="16px" height="16px" viewBox="0 0 16 16" enable-background="new 0 0 16 16" xml:space="preserve">
  <g id="icon">
    <path d="M4,15.5H0.5V0.5h3.5V15.5z" fill="#FFFFFF" opacity="0.5"/>
    <path d="M4,5v1H1V5H4zM4,10v1H1v-1H4z" fill="#B7B7B7"/>
    <path d="M4,16H0V0h4v1H1v14h3V16z" fill="#6D6E71"/>
    <path d="M15.5,0.5v15H5.5V0.5H15.5z" fill="#BAD2EE"/>
    <path d="M16,0v16H5V0H16zM15,15V1H6v14H15z" fill="#6485C3"/>
    <path d="M12,15V1h1v14H12zM8,15h1V1H8V15z" fill="#6485C3" opacity="0.5"/>
    <polygon points="10.754,11.9533 9.2038,10.3921 10.517,9.1 6.4,9.1 6.4,6.9 10.621,6.9 9.3039,5.6046 10.8539,4.0432 14.7945,7.9482" fill="#FFFFFF" stroke-linejoin="miter" opacity="0.5"/>
    <polygon points="13.8985,7.9063 10.7111,11.0632 10.0074,10.3528 11.878,8.5 7.1,8.5 7.1,7.5 12.0669,7.5 10.1074,5.5599 10.811,4.8493" fill="#6D6E71" stroke-linejoin="miter"/>
  </g>
</svg>
