<?xml version="1.0" encoding="UTF-8"?>
<!DOCTYPE svg PUBLIC "-//W3C//DTD SVG 1.1//EN" "http://www.w3.org/Graphics/SVG/1.1/DTD/svg11.dtd">
<svg version="1.1" id="Layer_1" xmlns="http://www.w3.org/2000/svg" xmlns:xlink="http://www.w3.org/1999/xlink" x="0px" y="0px" width="16px" height="16px" viewBox="0 0 16 16" enable-background="new 0 0 16 16" xml:space="preserve">
  <g id="icon">
    <polygon points="2.5,0.5 2.5,7 12,7 12,12.5 15.5,12.5 15.5,0.5" fill="#FFFFFF" stroke-linejoin="miter" opacity="0.5"/>
    <polygon points="2,0 2,7 3,7 3,1 15,1 15,12 12,12 12,13 16,13 16,0" fill="#6D6E71" stroke-linejoin="miter"/>
    <polygon points="15,5 15,4 13,4 13,1 12,1 12,4 6,4 6,1 5,1 5,4 3,4 3,5 5,5 5,7 6,7 6,5 12,5 12,7 12,8 12,9 12,12 13,12 13,9 15,9 15,8 13,8 13,5" fill="#B7B7B7" stroke-linejoin="miter"/>
    <polygon points="4,3 4,7 5,7 5,4 13,4 13,9 12,9 12,10 14,10 14,3" fill="#FFFFFF" stroke-linejoin="miter" opacity="0.5"/>
    <polygon points="5.5,4.5 5.5,7 12,7 12,8.5 12.5,8.5 12.5,4.5" fill="#EEAC55" stroke-linejoin="miter" opacity="0.5"/>
    <polygon points="5,4 5,7 6,7 6,5 12,5 12,7 12,8 12,9 13,9 13,4" fill="#EEAC55" stroke-linejoin="miter"/>
    <rect x="0.5" y="8.5" width="10" height="7" fill="#FFFFFF" opacity="0.5"/>
    <path d="M11,16H0V8h11V16zM1,15h9V9H1V15z" fill="#6D6E71"/>
    <path d="M8,13.5H3v-1h5V13.5zM8,11.5H3v-1h5V11.5z" fill="#6485C3"/>
  </g>
</svg>
