<?xml version="1.0" encoding="UTF-8"?>
<!DOCTYPE svg PUBLIC "-//W3C//DTD SVG 1.1//EN" "http://www.w3.org/Graphics/SVG/1.1/DTD/svg11.dtd">
<svg version="1.1" id="Layer_1" xmlns="http://www.w3.org/2000/svg" xmlns:xlink="http://www.w3.org/1999/xlink" x="0px" y="0px" width="16px" height="16px" viewBox="0 0 16 16" enable-background="new 0 0 16 16" xml:space="preserve">
  <g id="icon">
    <path d="M14.5,15.5H3.5V0.5h11V15.5z" fill="#FFFFFF" opacity="0.5"/>
    <rect x="1" width="3" height="16" fill="#B7B7B7"/>
    <path d="M15,16H1V0h14V16zM2,15h12V1H2V15z" fill="#6D6E71"/>
    <path d="M13,12H5V4h2V3h1v1h2V3h1v1h2V12zM6,11h6V7H6V11zM6,6h6V5h-1v0.5h-1v-0.5H8v0.5H7v-0.5H6V6z" fill="#52B250"/>
    <path d="M8,9H7V8h1V9zM9,9H8v1h1V9zM10,8H9v1h1V8zM11,9h-1v1h1V9z" fill="#52B250"/>
  </g>
</svg>
