<?xml version="1.0" encoding="UTF-8"?>
<!DOCTYPE svg PUBLIC "-//W3C//DTD SVG 1.1//EN" "http://www.w3.org/Graphics/SVG/1.1/DTD/svg11.dtd">
<svg version="1.1" id="Layer_1" xmlns="http://www.w3.org/2000/svg" xmlns:xlink="http://www.w3.org/1999/xlink" x="0px" y="0px" width="16px" height="16px" viewBox="0 0 16 16" enable-background="new 0 0 16 16" xml:space="preserve">
  <g id="icon">
    <path d="M14.9796,2.9881l-0.7093,-0.7049L13,3.5616V1.95C13,0.873,12.127,0,11.05,0L9,0v1h2.05c0.5247,0,0.95,0.4253,0.95,0.95v1.6633l-1.222,-1.23l-0.7094,0.7048l2.4055,2.4213L14.9796,2.9881z" fill="#52B250"/>
    <polygon points="12.5333,6.5 7.5,6.5 7.5,15 9,15 9,15 15.5,15 15.5,11.5 15.5,11.5 15.5,9.5571" fill="#FFFFFF" stroke-linejoin="miter" opacity="0.5"/>
    <path d="M13,11h-1h-1h-1H9v1v1v1h1h1h1h1h1v-1v-1v-1H13zM11,13h-1v-1h1V13zM13,13h-1v-1h1V13z" fill="#BAD2EE"/>
    <path d="M12.7437,6H7v7v1v1v1h1h8v-0.9v-0.1v-3.5v-0.3V9.3533L12.7437,6zM15,11.5v3.5H8v-1v-1V7h4v3h3v1.2V11.5z" fill="#6D6E71"/>
    <path d="M6,5h1.5263V1.6271c0,-0.6546,-1.4794,-1.1688,-3.5338,-1.1688S0.5,0.9724,0.5,1.6271v5.1366c0,0.982,1.4381,1.778,3.4925,1.778c0.7644,0,1.4489,-0.1103,2.0075,-0.2993V5z" fill="#FFFFFF" opacity="0.5"/>
    <path d="M6,7.591c-0.594,0.2391,-1.2576,0.3563,-2.0207,0.3563c-0.8558,0,-1.5355,-0.1398,-2.2038,-0.4533c-0.4955,-0.2324,-0.8156,-0.5364,-0.8156,-0.7745V2.7814c0.7546,0.4826,1.972,0.6728,3.0401,0.6728c1.0643,0,2.275,-0.184,3.0401,-0.6502V5H8V1.6794C8,0.4412,5.923,0,3.9793,0C2.0556,0,0,0.4412,0,1.6794v5.0402c0,0.6921,0.4785,1.3037,1.3475,1.7222C2.138,8.8227,2.9743,9,3.9793,9c0.7445,0,1.4111,-0.0986,2.0207,-0.2976V7.591zM0.9599,1.72c0.1099,-0.1574,0.8752,-0.6673,3.0194,-0.6673c2.1474,0,2.9508,0.5173,3.0608,0.6678v0.13C6.6555,2.2086,5.6364,2.6521,4,2.6521c-1.7827,0,-2.7249,-0.5127,-3.0401,-0.8416V1.72z" fill="#EEAC55"/>
  </g>
</svg>
