<?xml version="1.0" encoding="UTF-8"?>
<!DOCTYPE svg PUBLIC "-//W3C//DTD SVG 1.1//EN" "http://www.w3.org/Graphics/SVG/1.1/DTD/svg11.dtd">
<svg version="1.1" id="Layer_1" xmlns="http://www.w3.org/2000/svg" xmlns:xlink="http://www.w3.org/1999/xlink" x="0px" y="0px" width="16px" height="16px" viewBox="0 0 16 16" enable-background="new 0 0 16 16" xml:space="preserve">
  <g id="icon">
    <polygon points="3.5,0.5 3.5,5 8,5 8,9.5 15.5,9.5 15.5,0.5" fill="#FFFFFF" stroke-linejoin="miter" opacity="0.5"/>
    <polygon points="3,0 3,5 4,5 4,1 15,1 15,9 8,9 8,10 16,10 16,0" fill="#6D6E71" stroke-linejoin="miter"/>
    <polygon points="11.4142,10.6 9.0392,13 12.7333,13 15.1083,10.6" fill="#78797A" stroke-linejoin="miter" opacity="0.2"/>
    <polygon points="13.7083,10.6 12.325,12 10.0309,12 9.0392,13 12.7417,13 15.1167,10.6" fill="#78797A" stroke-linejoin="miter" opacity="0.3"/>
    <polygon points="10.6976,9 10.5,9 8,9 8,12.7392 10.7087,10 16,10 16,9" fill="#6485C3" stroke-linejoin="miter"/>
    <polygon points="15,4 15,3 12,3 12,1 11,1 11,3 8,3 8,1 7,1 7,3 4,3 4,4 7,4 7,5 8,5 8,4 11,4 11,6 8,6 8,7 11,7 11,9 12,9 12,7 15,7 15,6 12,6 12,4" fill="#B7B7B7" stroke-linejoin="miter"/>
    <polygon points="4,1 4,5 5,5 5,2 14,2 14,8 8,8 8,9 15,9 15,1" fill="#FFFFFF" stroke-linejoin="miter" opacity="0.5"/>
    <path d="M6.5,15.5H0.5V8.5h6V15.5zM2,11.5h1M4,11.5h1M4,13.5h1M2,13.5h1" fill="#FFFFFF" opacity="0.5"/>
    <path d="M7,16H0V8h7V16zM1,15h5V9H1V15zM5,14H4v-1h1V14zM3,14H2v-1h1V14zM5,12H4v-1h1V12zM3,12H2v-1h1V12z" fill="#6D6E71"/>
    <rect y="6" width="7" height="3" fill="#6485C3"/>
  </g>
</svg>
