<?xml version="1.0" encoding="UTF-8"?>
<!DOCTYPE svg PUBLIC "-//W3C//DTD SVG 1.1//EN" "http://www.w3.org/Graphics/SVG/1.1/DTD/svg11.dtd">
<svg version="1.1" id="Layer_1" xmlns="http://www.w3.org/2000/svg" xmlns:xlink="http://www.w3.org/1999/xlink" x="0px" y="0px" width="24px" height="24px" viewBox="0 0 24 24" enable-background="new 0 0 24 24" xml:space="preserve">
  <g id="icon">
    <path d="M1,19V5h20v14H1z" fill="#FFFFFF" opacity="0.5"/>
    <path d="M0,20V4h22v5h2v6h-2v5H0zM2,6v12h18V6H2z" fill="#7B7B7B"/>
    <path d="M19,15.6159V17h-5.9166c0.2442,-0.214,0.388,-0.5227,0.388,-0.8586c0,-0.0818,-0.0088,-0.164,-0.0262,-0.2444l-0.2801,-1.294l4.919,1.1827C18.404,15.8626,18.7332,15.7996,19,15.6159zM10.4586,7.0408l8.5414,6.68V7h-8.5974C10.4215,7.0131,10.4403,7.0264,10.4586,7.0408zM3.9062,8.2653l5.0361,1.164L8.6394,8.224c-0.0231,-0.092,-0.0349,-0.1868,-0.0349,-0.2813c0,-0.3829,0.1866,-0.7306,0.4962,-0.9426H3v1.4373C3.2638,8.2558,3.5892,8.1921,3.9062,8.2653zM3,10.3325V17h8.5616L3,10.3325z" fill="#52B250"/>
    <path d="M18.3178,14.8134l-6.4669,-1.5549l0.6169,2.8501c0.0291,0.1344,-0.1257,0.2317,-0.2342,0.1472L3.5574,9.4991c-0.1243,-0.0968,-0.03,-0.2949,0.1235,-0.2594l6.6298,1.5323l-0.7015,-2.7916c-0.0341,-0.1359,0.123,-0.2381,0.2333,-0.1518l8.6002,6.726C18.5674,14.6519,18.4715,14.8504,18.3178,14.8134z" fill="#EEAC55"/>
  </g>
</svg>
