<?xml version="1.0" encoding="UTF-8"?>
<!DOCTYPE svg PUBLIC "-//W3C//DTD SVG 1.1//EN" "http://www.w3.org/Graphics/SVG/1.1/DTD/svg11.dtd">
<svg version="1.1" id="Layer_1" xmlns="http://www.w3.org/2000/svg" xmlns:xlink="http://www.w3.org/1999/xlink" x="0px" y="0px" width="24px" height="24px" viewBox="0 0 24 24" enable-background="new 0 0 24 24" xml:space="preserve">
  <g id="icon">
    <path d="M15.4558,8l-2.719,2.372V5.628L15.4558,8zM12.7368,18.372l2.719,-2.372l-2.719,-2.372V18.372zM20.8,12c0,6.6274,-1.2133,12,-8.8,12s-8.8,-5.3726,-8.8,-12C3.2,5.3726,4.4444,0,12,0S20.8,5.3726,20.8,12zM13.1295,12l4.5852,-4l-6.1266,-5.3446c-0.0365,-0.0319,-0.0804,-0.0487,-0.1269,-0.0487c-0.0973,0,-0.198,0.0747,-0.198,0.1997v7.4579L7.8216,6.9612L6.8082,8.0455l4.0927,3.9281L10.8706,12l0.0303,0.0265l-4.0927,3.9281l1.0134,1.0843l3.4416,-3.3032v7.4698c0,0.1216,0.0979,0.1943,0.1926,0.1943c0.0452,0,0.0878,-0.0164,0.1234,-0.0474L17.7147,16L13.1295,12z" fill="#6485C3"/>
    <path d="M11.4557,21.3997c-0.0947,0,-0.1926,-0.0727,-0.1926,-0.1943v-7.4698l-3.4416,3.3032l-1.0134,-1.0843l4.0927,-3.9281L10.8706,12l0.0303,-0.0265L6.8082,8.0455l1.0134,-1.0843l3.4416,3.3032V2.8065c0,-0.1251,0.1007,-0.1997,0.198,-0.1997c0.0465,0,0.0904,0.0168,0.1269,0.0487L17.7147,8l-4.5852,4l4.5852,4l-6.1355,5.3523C11.5436,21.3833,11.5009,21.3997,11.4557,21.3997zM12.7368,18.372l2.719,-2.372l-2.719,-2.372V18.372zM12.7368,10.372L15.4558,8l-2.719,-2.372V10.372z" fill="#FFFFFF" opacity="0.5"/>
  </g>
</svg>
