<?xml version="1.0" encoding="UTF-8"?>
<!DOCTYPE svg PUBLIC "-//W3C//DTD SVG 1.1//EN" "http://www.w3.org/Graphics/SVG/1.1/DTD/svg11.dtd">
<svg version="1.1" id="Layer_1" xmlns="http://www.w3.org/2000/svg" xmlns:xlink="http://www.w3.org/1999/xlink" x="0px" y="0px" width="24px" height="24px" viewBox="0 0 24 24" enable-background="new 0 0 24 24" xml:space="preserve">
  <g id="icon">
    <path d="M24,23h-3.5v-2h3.5V23zM13.5,23h-3v-2h3V23zM3.5,23H0v-2h3.5V23zM8,19.5H6v-3.7h2V19.5zM18,11.3h-2v8.2h2V11.3z" fill="#7B7B7B"/>
    <path d="M20,24h-6v-4h6V24zM10,24H4v-4h6V24z" fill="#52B250"/>
    <path d="M12.8,15.8H0.8V5.3h12V15.8zM15,11.3h8.3V0.8H10.8v3.2h4.2V11.3z" fill="#FFFFFF" opacity="0.5"/>
    <path d="M14,17H0V5h14V17zM2,15h10V7H2V15zM24,12h-9v-2h7V2H12v2h-2V0h14V12z" fill="#7B7B7B"/>
  </g>
</svg>
