<?xml version="1.0" encoding="UTF-8"?>
<!DOCTYPE svg PUBLIC "-//W3C//DTD SVG 1.1//EN" "http://www.w3.org/Graphics/SVG/1.1/DTD/svg11.dtd">
<svg version="1.1" id="Layer_1" xmlns="http://www.w3.org/2000/svg" xmlns:xlink="http://www.w3.org/1999/xlink" x="0px" y="0px" width="24px" height="24px" viewBox="0 0 24 24" enable-background="new 0 0 24 24" xml:space="preserve">
  <g id="icon">
    <path d="M21.8333,20H2.1667C1.5223,20,1,19.4777,1,18.8333V2.1667C1,1.5223,1.5223,1,2.1667,1h19.6667C22.4777,1,23,1.5223,23,2.1667v16.6667C23,19.4777,22.4777,20,21.8333,20z" fill="#FFFFFF" opacity="0.5"/>
    <path d="M2.1667,21C0.972,21,0,20.028,0,18.8333V2.1667C0,0.972,0.972,0,2.1667,0h19.6667C23.028,0,24,0.972,24,2.1667v16.6667C24,20.028,23.028,21,21.8333,21H2.1667zM2.1667,2C2.0748,2,2,2.0748,2,2.1667v16.6667c0,0.0919,0.0748,0.1667,0.1667,0.1667h19.6667c0.0919,0,0.1667,-0.0748,0.1667,-0.1667V2.1667c0,-0.0919,-0.0748,-0.1667,-0.1667,-0.1667H2.1667z" fill="#7B7B7B"/>
    <rect x="5" y="22" width="14" height="2" fill="#7B7B7B"/>
    <path d="M21,16H3V3h18V16zM4,15h16V4H4V15z" fill="#7B7B7B"/>
    <rect x="11" y="17" width="2" height="1" fill="#6485C3"/>
  </g>
</svg>
