<?xml version="1.0" encoding="UTF-8"?>
<!DOCTYPE svg PUBLIC "-//W3C//DTD SVG 1.1//EN" "http://www.w3.org/Graphics/SVG/1.1/DTD/svg11.dtd">
<svg version="1.1" id="Layer_1" xmlns="http://www.w3.org/2000/svg" xmlns:xlink="http://www.w3.org/1999/xlink" x="0px" y="0px" width="24px" height="24px" viewBox="0 0 24 24" enable-background="new 0 0 24 24" xml:space="preserve">
  <g id="icon">
    <polygon points="22,22 1,22 1,1 18.25,1 22,4.75" fill="#FFFFFF" stroke-linejoin="miter" opacity="0.5"/>
    <path d="M0,23V0h18.6643L23,4.3357V23H0zM21,21V5.1643L17.8357,2H2v19H21z" fill="#7B7B7B"/>
    <path d="M8,4H7v1.5h1V4zM10,4H9v1.5h1V4zM16,4h-1v1.5h1V4zM5.5,7H4v1h1.5V7zM5.5,9H4v1h1.5V9zM5.5,15H4v1h1.5V15zM8,17.5H7v1.5h1V17.5zM10,17.5H9v1.5h1V17.5zM12,4h-1v1.5h1V4zM12,17.5h-1v1.5h1V17.5zM14,4h-1v1.5h1V4zM14,17.5h-1v1.5h1V17.5zM16,17.5h-1v1.5h1V17.5zM19,15h-1.5v1h1.5V15zM19,9h-1.5v1h1.5V9zM5.5,11H4v1h1.5V11zM19,11h-1.5v1h1.5V11zM5.5,13H4v1h1.5V13zM19,13h-1.5v1h1.5V13zM19,7h-1.5v1h1.5V7z" fill="#EEAC55"/>
    <path d="M17,17H6V6h11V17zM7,16h9V7H7V16z" fill="#6D6E71"/>
  </g>
</svg>
