<?xml version="1.0" encoding="UTF-8"?>
<!DOCTYPE svg PUBLIC "-//W3C//DTD SVG 1.1//EN" "http://www.w3.org/Graphics/SVG/1.1/DTD/svg11.dtd">
<svg version="1.1" id="Layer_1" xmlns="http://www.w3.org/2000/svg" xmlns:xlink="http://www.w3.org/1999/xlink" x="0px" y="0px" width="24px" height="24px" viewBox="0 0 24 24" enable-background="new 0 0 24 24" xml:space="preserve">
  <g id="icon">
    <path d="M14.0684,14c0,0.0052,0.0009,0.0102,0.0009,0.0154c0,1.1869,-0.8929,2.1491,-1.9943,2.1491s-1.9943,-0.9622,-1.9943,-2.1491c0,-0.0052,0.0009,-0.0102,0.0009,-0.0154H3.3057c0.1197,5.1101,3.9985,9.2137,8.7693,9.2137s8.6496,-4.1036,8.7693,-9.2137H14.0684z" fill="#FFFFFF" opacity="0.5"/>
    <path d="M14.0684,14c0,0.0052,0.0009,0.0102,0.0009,0.0154c0,1.1869,-0.8929,2.1491,-1.9943,2.1491s-1.9943,-0.9622,-1.9943,-2.1491c0,-0.0052,0.0009,-0.0102,0.0009,-0.0154H3.3057c0.1197,5.1101,3.9985,9.2137,8.7693,9.2137s8.6496,-4.1036,8.7693,-9.2137H14.0684z" fill="#6D6E71" opacity="0.1"/>
    <path d="M20.0943,14c-0.1199,4.6463,-3.6697,8.3871,-8.0193,8.3871S4.1756,18.6463,4.0557,14h-1.5c0.1203,5.5358,4.3426,10,9.5193,10s9.399,-4.4642,9.5193,-10H20.0943z" fill="#7B7B7B"/>
    <path d="M12.075,15.293c-0.6421,0,-1.1646,-0.5801,-1.1646,-1.293h-1.5c0,1.6313,1.1953,2.9585,2.6646,2.9585s2.6646,-1.3272,2.6646,-2.9585h-1.5C13.2396,14.7129,12.7171,15.293,12.075,15.293z" fill="#7B7B7B"/>
    <rect x="2.25" y="0.75" width="19.5" height="11.5" fill="#FFFFFF" opacity="0.5"/>
    <path d="M23,13H1V0h22V13zM3,11h18V2H3V11z" fill="#7B7B7B"/>
    <path d="M9.571,20.9c-1.7059,-0.7321,-3.0469,-2.0752,-3.776,-3.7818l1.1118,-0.475c0.6064,1.4196,1.7219,2.5368,3.1409,3.1458L9.571,20.9zM10.7956,17.6992c-0.7858,-0.3717,-1.4233,-1.009,-1.7948,-1.7948l-1.0929,0.5168c0.4908,1.038,1.3328,1.88,2.3709,2.3709L10.7956,17.6992z" fill="#6485C3" opacity="0.8"/>
  </g>
</svg>
