<?xml version="1.0" encoding="UTF-8"?>
<!DOCTYPE svg PUBLIC "-//W3C//DTD SVG 1.1//EN" "http://www.w3.org/Graphics/SVG/1.1/DTD/svg11.dtd">
<svg version="1.1" id="Layer_1" xmlns="http://www.w3.org/2000/svg" xmlns:xlink="http://www.w3.org/1999/xlink" x="0px" y="0px" width="24px" height="24px" viewBox="0 0 24 24" enable-background="new 0 0 24 24" xml:space="preserve">
  <g id="icon">
    <path d="M24,23h-7v-2h7V23zM7,23H0v-2h7V23zM13,19h-2v-2.3l2,0.6V19z" fill="#7B7B7B"/>
    <path d="M16,24H8v-4h8V24z" fill="#EEAC55"/>
    <polygon points="14.7877,15.0123 17.9877,15.0123 17.9877,9.7623 19.9877,6.446 19.9877,1.0123 6.0877,1.0123 6.0877,1.6926 6.0877,2.8123 6.0877,15.242 14.7877,17.4362" fill="#FFFFFF" stroke-linejoin="miter" opacity="0.5"/>
    <polygon points="5,0 21,0 21,7.1623 19,10.0873 19,16 14.7,16 14.7,14 17,14 17,9.2533 19,6.3283 19,2 7.3094,2 5,1.2302" fill="#EEAC55" stroke-linejoin="miter"/>
    <path d="M5,0.0743l11,3.5185v15.395l-11,-2.947V0.0743zM7,14.5805l7,1.7653V5.0344L7,2.849V14.5805z" fill="#EEAC55"/>
  </g>
</svg>
