<?xml version="1.0" encoding="UTF-8"?>
<!DOCTYPE svg PUBLIC "-//W3C//DTD SVG 1.1//EN" "http://www.w3.org/Graphics/SVG/1.1/DTD/svg11.dtd">
<svg version="1.1" id="Layer_1" xmlns="http://www.w3.org/2000/svg" xmlns:xlink="http://www.w3.org/1999/xlink" x="0px" y="0px" width="24px" height="24px" viewBox="0 0 24 24" enable-background="new 0 0 24 24" xml:space="preserve">
  <g id="icon">
    <path d="M15.0063,12.4534c-0.3975,0.7572,-2.1678,2.6004,-3.0895,3.5233c-3.0925,3.0962,-9.9381,8.2039,-11.014,7.1266c-1.0758,-1.0772,4.0256,-7.9312,7.118,-11.0274C9.0468,11.0487,10.7589,9.371,11.6202,9" fill="#FFFFFF" opacity="0.5"/>
    <path d="M1.5369,24c-0.5633,0,-0.9102,-0.2291,-1.102,-0.4213c-0.6692,-0.6704,-0.9064,-1.8501,1.865,-5.9079c1.4936,-2.1867,3.5762,-4.737,5.1824,-6.3461c1.9457,-1.9488,3.0992,-2.9196,3.8571,-3.2462L11.5212,8l0.7442,1.7286l-0.1819,0.0784c-0.342,0.1474,-1.187,0.7611,-3.2703,2.8477c-1.4262,1.4287,-3.2605,3.6517,-4.673,5.6632c-1.4407,2.0519,-1.9568,3.1684,-2.1412,3.6962c0.527,-0.185,1.6415,-0.7023,3.6889,-2.1452c2.0072,-1.4145,4.2257,-3.2516,5.6518,-4.6801c1.4642,-1.4667,2.6532,-2.8083,2.8915,-3.2626l0.092,-0.1754l1.6657,0.8749l-0.0921,0.1754c-0.4855,0.9252,-2.4179,2.9081,-3.2262,3.7177C10.0644,19.1297,3.9437,24,1.5369,24z" fill="#7B7B7B"/>
    <rect x="8.3258" y="13.3299" width="3.1242" height="1.4999" fill="#6485C3" transform="matrix(0.7065 -0.7077 0.7077 0.7065 -7.06253 11.1309)"/>
    <path d="M17.2563,0.75c3.3137,0,6,2.6863,6,6s-2.6863,6,-6,6s-6,-2.6863,-6,-6S13.9426,0.75,17.2563,0.75z" fill="#6485C3" opacity="0.2"/>
    <path d="M10.5063,6.75c0,-3.7219,3.0281,-6.75,6.75,-6.75s6.75,3.0281,6.75,6.75s-3.0281,6.75,-6.75,6.75S10.5063,10.4719,10.5063,6.75zM12.2671,6.75c0,2.751,2.2381,4.9891,4.9891,4.9891S22.2454,9.501,22.2454,6.75s-2.2381,-4.9891,-4.9891,-4.9891S12.2671,3.999,12.2671,6.75z" fill="#6485C3"/>
  </g>
</svg>
