<?xml version="1.0" encoding="UTF-8"?>
<!DOCTYPE svg PUBLIC "-//W3C//DTD SVG 1.1//EN" "http://www.w3.org/Graphics/SVG/1.1/DTD/svg11.dtd">
<svg version="1.1" id="Layer_1" xmlns="http://www.w3.org/2000/svg" xmlns:xlink="http://www.w3.org/1999/xlink" x="0px" y="0px" width="24px" height="24px" viewBox="0 0 24 24" enable-background="new 0 0 24 24" xml:space="preserve">
  <g id="icon">
    <rect x="0.95" y="4" width="22" height="17" fill="#FFFFFF" opacity="0.5"/>
    <path d="M0,22V3h24v19H0zM22,20V5H2v15H22z" fill="#7B7B7B"/>
    <path d="M12,8H4V7h8V8zM12,10H4V9h8V10zM12,12H4v-1h8V12zM12,14H4v-1h8V14zM12,16H4v-1h8V16zM12,18H4v-1h8V18z" fill="#6D6E71"/>
    <polygon points="15.5917,18.3 14.7968,14.3756 16.0913,14.1133 16.37,15.4895 18.4177,11.7273 14.8608,11.7273 17.668,6.3936 18.8369,7.0087 17.0485,10.4065 20.6403,10.4065 17.5358,16.1106 19.1584,15.4686 19.6443,16.6968" fill="#EEAC55" stroke-linejoin="miter"/>
  </g>
</svg>
