<?xml version="1.0" encoding="UTF-8"?>
<!DOCTYPE svg PUBLIC "-//W3C//DTD SVG 1.1//EN" "http://www.w3.org/Graphics/SVG/1.1/DTD/svg11.dtd">
<svg version="1.1" id="Layer_1" xmlns="http://www.w3.org/2000/svg" xmlns:xlink="http://www.w3.org/1999/xlink" x="0px" y="0px" width="24px" height="24px" viewBox="0 0 24 24" enable-background="new 0 0 24 24" xml:space="preserve">
  <g id="icon">
    <path d="M18,1.5181V7.5h-3V1.5362c0,-0.7309,0.5033,-1.3641,1.1969,-1.5056c0.4417,-0.0902,0.8948,0.0209,1.2429,0.3045C17.7958,0.6252,18,1.0564,18,1.5181zM9.4398,0.3351c-0.3481,-0.2836,-0.8013,-0.3947,-1.2429,-0.3045C7.5033,0.1721,7,0.8053,7,1.5362V7.5h3V1.5181C10,1.0564,9.7958,0.6252,9.4398,0.3351z" fill="#EEAC55"/>
    <path d="M10.2957,24c-1.2365,0,-2.5837,-0.8056,-3.7933,-2.2684c-0.892,-1.0789,-2.0977,-1.8324,-2.9318,-1.8324c-0.1241,0,-0.2365,0.0175,-0.3339,0.0521c-0.6492,0.2304,-0.7461,1.3667,-0.7461,2.0234v0.174H0.65v-0.174c0,-2.5178,1.0698,-3.426,1.9672,-3.7446c0.3038,-0.1078,0.629,-0.1624,0.9668,-0.1624c1.6739,0,3.3399,1.2935,4.341,2.5039c0.8264,0.9995,1.7184,1.5961,2.3861,1.5961c0.1048,0,0.2025,-0.0158,0.2902,-0.047c0.7593,-0.2695,1.2309,-1.749,1.2309,-3.861v-0.174h1.8406v0.174c0,3.8944,-1.3334,5.1852,-2.452,5.5822C10.9255,23.9468,10.6142,24,10.2957,24z" fill="#6485C3"/>
    <path d="M14.4492,18.3h-4C7.9919,18.3,6,16.3081,6,13.8509V6.95h13v6.7992C19,16.2521,16.9521,18.3,14.4492,18.3z" fill="#FFFFFF" opacity="0.5"/>
    <path d="M5,11.5833V6h15v5.5237c0,4.379,-3.315,7.9295,-7.7174,7.824C8.1656,19.2491,5,15.7016,5,11.5833zM7,11.6763c0,3.3772,2.7661,6.0748,6.23,5.6244c2.9177,-0.3793,4.77,-2.9219,4.77,-5.8641V8H7V11.6763z" fill="#7B7B7B"/>
    <path d="M13.1312,14.9558L13.1312,14.9558c0,-0.3401,0.2266,-0.6468,0.5577,-0.7246c0.8931,-0.2101,1.5976,-0.9133,1.8082,-1.8047c0.0781,-0.3307,0.3846,-0.557,0.7245,-0.557h0c0.4824,0,0.8444,0.4503,0.7314,0.9192c-0.3443,1.4284,-1.4726,2.5552,-2.9028,2.8986C13.5812,15.7999,13.1312,15.4381,13.1312,14.9558z" fill="#B7B7B7"/>
  </g>
</svg>
