<?xml version="1.0" encoding="UTF-8"?>
<!DOCTYPE svg PUBLIC "-//W3C//DTD SVG 1.1//EN" "http://www.w3.org/Graphics/SVG/1.1/DTD/svg11.dtd">
<svg version="1.1" id="Layer_1" xmlns="http://www.w3.org/2000/svg" xmlns:xlink="http://www.w3.org/1999/xlink" x="0px" y="0px" width="24px" height="24px" viewBox="0 0 24 24" enable-background="new 0 0 24 24" xml:space="preserve">
  <g id="icon">
    <path d="M0.95,17.2448l4.0091,-8.7362L0.9852,1.6967C0.868,1.3246,1.1606,0.95,1.5686,0.95h20.874c0.4046,0,0.6968,0.3689,0.5856,0.7394l-3.8515,6.8192l3.7733,8.8655v4.9647c0,0.3928,-0.3343,0.7112,-0.7468,0.7112H1.6968c-0.4124,0,-0.7468,-0.3184,-0.7468,-0.7112V17.2448z" fill="#FFFFFF" opacity="0.5"/>
    <path d="M1.7468,24C0.7836,24,0,23.3324,0,22.3888v-5.3155l3.88,-8.459L0.1161,2.1571l-0.0346,-0.1099c-0.1506,-0.478,-0.0663,-0.9848,0.2313,-1.3906C0.6144,0.2455,1.1025,0,1.6187,0h20.8739c0.5118,0,0.9975,0.2422,1.2994,0.6479c0.2978,0.4003,0.3868,0.9029,0.244,1.3788l-0.0329,0.1101l-3.6565,6.4791L24,17.212v5.1769c0,0.9436,-0.7836,1.6112,-1.7468,1.6112H1.7468zM22,22.0021V17.538l-3.8931,-9.136L21.7762,1.9H2.3473l3.7909,6.5036L2,17.418V22L22,22.0021z" fill="#7B7B7B"/>
    <rect x="4.95" y="8" width="14.25" height="1" fill="#7B7B7B"/>
    <rect x="0.95" y="17" width="22" height="1" fill="#7B7B7B"/>
    <rect x="17" y="20" width="3" height="1" fill="#6485C3"/>
    <polygon points="18.6466,15.45 5.4034,15.45 7.281,10.45 16.919,10.45" fill="#6485C3" stroke-linejoin="miter" opacity="0.2"/>
    <path d="M19.8341,16H4.2688l2.5165,-6h10.6073L19.8341,16zM5.838,15h12.3211l-1.5138,-4H7.5768L5.838,15z" fill="#6485C3"/>
  </g>
</svg>
