<?xml version="1.0" encoding="UTF-8"?>
<!DOCTYPE svg PUBLIC "-//W3C//DTD SVG 1.1//EN" "http://www.w3.org/Graphics/SVG/1.1/DTD/svg11.dtd">
<svg version="1.1" id="Layer_1" xmlns="http://www.w3.org/2000/svg" xmlns:xlink="http://www.w3.org/1999/xlink" x="0px" y="0px" width="24px" height="24px" viewBox="0 0 24 24" enable-background="new 0 0 24 24" xml:space="preserve">
  <g id="icon">
    <path d="M24,23h-7v-2h7V23zM7,23H0v-2h7V23zM13,19.3h-2v-1.3h2V19.3z" fill="#7B7B7B"/>
    <path d="M16,24H8v-4h8V24z" fill="#EEAC55"/>
    <path d="M12.0626,0.8588c-4.104,0,-7.431,3.3094,-7.431,7.3918s3.327,7.3918,7.431,7.3918s7.431,-3.3094,7.431,-7.3918S16.1666,0.8588,12.0626,0.8588zM12.0626,12.2483c-2.2099,0,-4.0013,-1.7847,-4.0013,-3.9863s1.7914,-3.9863,4.0013,-3.9863s4.0013,1.7847,4.0013,3.9863S14.2725,12.2483,12.0626,12.2483z" fill="#FFFFFF" opacity="0.5"/>
    <path d="M7.8133,14.3495c-1.3276,0.8288,-2.2528,1.9882,-2.2528,2.8265c0,1.5588,2.7625,0.2595,6.5508,0.2595s6.4534,1.2992,6.4534,-0.2596c0,-0.8342,-0.8896,-1.9872,-2.1798,-2.8145" fill="#FFFFFF" opacity="0.5"/>
    <path d="M6.6324,19.2c-0.6455,0,-1.0851,-0.1314,-1.4254,-0.426c-0.232,-0.2009,-0.5087,-0.5721,-0.5087,-1.2001c0,-1.1514,1.043,-2.5465,2.6572,-3.5541l0.2463,-0.1537l0.9154,1.4555l-0.246,0.1537c-1.1792,0.7361,-1.7607,1.5761,-1.8393,2.006c0.0371,0.0028,0.0843,0.0047,0.1437,0.0047c0.4409,0,1.1548,-0.1004,1.7285,-0.181c1.0474,-0.1471,2.35,-0.3301,3.8073,-0.3301c1.4665,0,2.7572,0.1844,3.7943,0.3326c0.5542,0.0791,1.2423,0.1774,1.6659,0.1774c0.0491,0,0.0893,-0.0014,0.1218,-0.0035c-0.0781,-0.4246,-0.6497,-1.2782,-1.775,-1.9998l-0.2442,-0.1566l0.9332,-1.4443l0.2444,0.1567c1.5644,1.0032,2.5753,2.3914,2.5753,3.5366c0,0.5089,-0.1715,0.915,-0.5098,1.2072c-0.3308,0.2856,-0.7735,0.4187,-1.3934,0.4188c-0.5161,0,-1.1395,-0.089,-1.8612,-0.1921c-0.9841,-0.1406,-2.2085,-0.3154,-3.5512,-0.3154c-1.3379,0,-2.5732,0.1737,-3.5657,0.3133C7.8025,19.1099,7.1614,19.2,6.6324,19.2z" fill="#7B7B7B"/>
    <path d="M12.0626,16.5013c-4.5729,0,-8.2932,-3.7012,-8.2932,-8.2506S7.4897,0,12.0626,0s8.2932,3.7012,8.2932,8.2506S16.6354,16.5013,12.0626,16.5013zM12.0626,1.7176c-3.6221,0,-6.5688,2.9307,-6.5688,6.5331s2.9468,6.5331,6.5688,6.5331s6.5688,-2.9307,6.5688,-6.5331S15.6847,1.7176,12.0626,1.7176z" fill="#7B7B7B"/>
    <ellipse cx="12.0675" cy="2.8153" rx="0.7505" ry="0.7482" fill="#CB525D"/>
    <ellipse cx="12.0441" cy="8.2462" rx="3.9828" ry="3.9706" fill="#6485C3" opacity="0.2"/>
    <path d="M12.0441,12.7104c-2.4693,0,-4.4783,-2.0026,-4.4783,-4.4642c0,-2.4615,2.009,-4.4641,4.4783,-4.4641s4.4782,2.0026,4.4782,4.4641C16.5223,10.7077,14.5134,12.7104,12.0441,12.7104zM12.0441,4.7692c-1.923,0,-3.4875,1.5598,-3.4875,3.477c0,1.9173,1.5645,3.4771,3.4875,3.4771c1.923,0,3.4874,-1.5598,3.4874,-3.4771C15.5315,6.329,13.9671,4.7692,12.0441,4.7692z" fill="#6485C3"/>
    <path d="M10.395,8.8315c-0.3157,0,-0.5716,-0.255,-0.5716,-0.5695c0,-1.2553,1.0246,-2.2766,2.284,-2.2766c0.3157,0,0.5716,0.255,0.5716,0.5695c0,0.3145,-0.2559,0.5695,-0.5716,0.5695c-0.629,0,-1.1408,0.5104,-1.1408,1.1376C10.9666,8.5765,10.7107,8.8315,10.395,8.8315z" fill="#6485C3"/>
  </g>
</svg>
