<?xml version="1.0" encoding="UTF-8"?>
<!DOCTYPE svg PUBLIC "-//W3C//DTD SVG 1.1//EN" "http://www.w3.org/Graphics/SVG/1.1/DTD/svg11.dtd">
<svg version="1.1" id="Layer_1" xmlns="http://www.w3.org/2000/svg" xmlns:xlink="http://www.w3.org/1999/xlink" x="0px" y="0px" width="32px" height="32px" viewBox="0 0 32 32" enable-background="new 0 0 32 32" xml:space="preserve">
  <g id="icon">
    <path d="M10.511,1.5v7.402c3.832,0.052,6.933,3.119,6.933,6.885c0,1.951,-0.835,3.77,-2.257,5.056c0.968,0.58,1.865,1.336,2.648,2.238c0.638,0.735,1.183,1.551,1.627,2.419H30.5V1.5H10.511z" fill="#FFFFFF"/>
    <path d="M10.011,1v7.912c0.133,-0.007,0.267,-0.012,0.402,-0.012c0.201,0,0.4,0.01,0.598,0.027V2H30v11H16.841c0.146,0.321,0.268,0.655,0.362,1H30v11H19.191c0.186,0.325,0.357,0.659,0.512,1H31V1H10.011z" fill="#383838"/>
    <path d="M24,18h1v4h-8.239c-0.246,-0.217,-0.5,-0.422,-0.761,-0.614v-1.419c0.42,-0.538,0.758,-1.133,1,-1.768V21h7V18zM24,6v3h-7V6h-1v4h9V6H24z" fill="#238BCB"/>
    <path d="M15.844,15.787c0,2.92,-2.431,5.287,-5.431,5.287s-5.431,-2.367,-5.431,-5.287S7.414,10.5,10.414,10.5S15.844,12.867,15.844,15.787zM19.205,30.987c0,-5.098,-3.941,-9.891,-8.802,-9.891S1.6,25.889,1.6,30.987" fill="#FFFFFF" stroke="#383838" stroke-width="1.2" stroke-miterlimit="1"/>
  </g>
</svg>
