<?xml version="1.0" encoding="UTF-8"?>
<!DOCTYPE svg PUBLIC "-//W3C//DTD SVG 1.1//EN" "http://www.w3.org/Graphics/SVG/1.1/DTD/svg11.dtd">
<svg version="1.1" id="Layer_1" xmlns="http://www.w3.org/2000/svg" xmlns:xlink="http://www.w3.org/1999/xlink" x="0px" y="0px" width="32px" height="32px" viewBox="0 0 32 32" enable-background="new 0 0 32 32" xml:space="preserve">
  <g id="icon">
    <path d="M24.98,5c-0.921,0,-1.789,0.236,-2.553,0.652C21.403,3.209,19.063,1.5,16.34,1.5c-3.365,0,-6.144,2.608,-6.579,5.989c-1.187,0.33,-2.176,1.165,-2.743,2.27C8.025,9.212,9.183,8.9,10.414,8.9c3.877,0,7.031,3.09,7.031,6.887c0,0.24,-0.013,0.478,-0.038,0.713h7.573c3.049,0,5.52,-2.574,5.52,-5.75C30.5,7.574,28.029,5,24.98,5z" fill="#FFFFFF"/>
    <path d="M24.98,4.5c-0.793,0,-1.583,0.165,-2.313,0.48C21.442,2.546,19.011,1,16.34,1c-3.458,0,-6.425,2.603,-7.027,6.107c-1.434,0.508,-2.537,1.673,-3.03,3.112c0.48,-0.342,1.005,-0.626,1.565,-0.842c0.508,-0.67,1.216,-1.175,2.047,-1.406l0.319,-0.089l0.042,-0.329C10.665,4.387,13.28,2,16.34,2c2.438,0,4.647,1.51,5.626,3.846c0.341,0.814,0.514,1.679,0.514,2.571h1c0,-0.866,-0.142,-1.711,-0.423,-2.517c0.609,-0.266,1.253,-0.4,1.923,-0.4c2.768,0,5.02,2.355,5.02,5.25S27.748,16,24.98,16h-7.541c-0.011,0.339,-0.046,0.672,-0.106,1h7.647c3.319,0,6.02,-2.804,6.02,-6.25S28.299,4.5,24.98,4.5z" fill="#228BCB"/>
    <path d="M15.844,15.787c0,2.92,-2.431,5.287,-5.431,5.287s-5.431,-2.367,-5.431,-5.287S7.414,10.5,10.414,10.5S15.844,12.867,15.844,15.787zM19.205,30.987c0,-5.098,-3.941,-9.891,-8.802,-9.891S1.6,25.889,1.6,30.987" fill="#FFFFFF" stroke="#383838" stroke-width="1.2" stroke-miterlimit="1"/>
  </g>
</svg>
