<?xml version="1.0" encoding="UTF-8"?>
<!DOCTYPE svg PUBLIC "-//W3C//DTD SVG 1.1//EN" "http://www.w3.org/Graphics/SVG/1.1/DTD/svg11.dtd">
<svg version="1.1" id="Layer_1" xmlns="http://www.w3.org/2000/svg" xmlns:xlink="http://www.w3.org/1999/xlink" x="0px" y="0px" width="32px" height="32px" viewBox="0 0 32 32" enable-background="new 0 0 32 32" xml:space="preserve">
  <g id="icon">
    <path d="M30.399,5.21c-3.811,-0.231,-7.658,-2.168,-9.539,-3.51c-1.881,1.342,-5.749,3.279,-9.56,3.51c-0.008,0.669,0.068,1.759,0.185,2.905c0.996,0.222,1.939,0.665,2.743,1.3l0.644,0.509c0.266,-0.031,0.536,-0.048,0.81,-0.048c3.715,0,6.738,2.977,6.738,6.635c0,1.841,-0.773,3.567,-2.091,4.803c0.737,0.454,1.428,1.019,2.055,1.674c1.645,-0.888,3.139,-2.376,4.665,-4.501c1.419,-1.975,2.466,-5.017,2.95,-8.565C30.229,8.237,30.411,6.232,30.399,5.21z" fill="#F3B8B8"/>
    <path d="M30.949,5.188l-0.006,-0.495l-0.494,-0.03c-3.872,-0.235,-7.655,-2.259,-9.279,-3.418l-0.309,-0.221l-0.309,0.221c-1.624,1.158,-5.409,3.182,-9.3,3.418l-0.494,0.03l-0.006,0.495c-0.007,0.634,0.059,1.675,0.173,2.826c0.371,0.051,0.738,0.132,1.095,0.243c-0.105,-0.982,-0.176,-1.901,-0.198,-2.571c3.719,-0.362,7.263,-2.17,9.038,-3.36c1.775,1.191,5.314,2.999,9.017,3.36c-0.033,1.026,-0.182,2.634,-0.389,4.158c-0.473,3.47,-1.488,6.432,-2.86,8.342c-1.578,2.198,-3.047,3.611,-4.626,4.423c0.265,0.251,0.521,0.517,0.764,0.799c1.625,-0.906,3.135,-2.385,4.726,-4.601c1.471,-2.048,2.554,-5.18,3.05,-8.819C30.794,8.148,30.961,6.175,30.949,5.188z" fill="#E42E2C"/>
    <path d="M20.821,16.511c0,2.781,-2.3,5.035,-5.138,5.035s-5.138,-2.254,-5.138,-5.035s2.3,-5.035,5.138,-5.035S20.821,13.73,20.821,16.511zM24,30.987c0,-4.855,-3.729,-9.42,-8.328,-9.42s-8.328,4.565,-8.328,9.42M5.91,29.082H1.668c0,-4.771,3.601,-9.261,8.091,-9.414c0.333,0.604,0.759,1.158,1.269,1.638c-0.897,0.551,-1.729,1.263,-2.456,2.106C7.194,25.01,6.267,27.007,5.91,29.082zM9.739,19.632c-0.512,-0.944,-0.795,-2.011,-0.795,-3.121c0,-2.689,1.634,-5.009,3.976,-6.049c-0.828,-0.56,-1.831,-0.89,-2.914,-0.89c-2.838,0,-5.138,2.254,-5.138,5.035C4.868,17.299,7.026,19.496,9.739,19.632z" fill="#FFFFFF"/>
    <path d="M24.6,30.987h-1.2c0,-4.698,-3.611,-8.82,-7.728,-8.82s-7.728,4.121,-7.728,8.82h-1.2c0,-2.494,0.942,-5.017,2.585,-6.922c1.044,-1.211,2.283,-2.092,3.624,-2.598c-1.79,-0.955,-3.008,-2.818,-3.008,-4.956c0,-3.107,2.574,-5.635,5.738,-5.635c3.164,0,5.738,2.528,5.738,5.635c0,2.141,-1.222,4.007,-3.017,4.96c1.337,0.507,2.571,1.386,3.612,2.593C23.658,25.97,24.6,28.493,24.6,30.987zM15.683,12.076c-2.502,0,-4.538,1.99,-4.538,4.435s2.036,4.435,4.538,4.435c2.502,0,4.538,-1.99,4.538,-4.435S18.185,12.076,15.683,12.076zM10.144,20.287c-0.286,-0.406,-0.523,-0.844,-0.711,-1.303c-2.258,-0.279,-3.947,-2.139,-3.947,-4.377c0,-2.434,2.028,-4.414,4.52,-4.414c0.798,0,1.578,0.208,2.266,0.599c0.419,-0.243,0.866,-0.443,1.336,-0.593c-1.019,-0.806,-2.295,-1.249,-3.602,-1.249c-3.174,0,-5.756,2.538,-5.756,5.657c0,2.065,1.138,3.952,2.976,4.952c-1.329,0.511,-2.567,1.403,-3.587,2.586c-1.646,1.909,-2.59,4.438,-2.59,6.938v0.05h1.235v-0.05c0,-4.687,3.603,-8.798,7.71,-8.798C10.045,20.284,10.094,20.286,10.144,20.287z" fill="#383838"/>
  </g>
</svg>
