<?xml version="1.0" encoding="UTF-8"?>
<!DOCTYPE svg PUBLIC "-//W3C//DTD SVG 1.1//EN" "http://www.w3.org/Graphics/SVG/1.1/DTD/svg11.dtd">
<svg version="1.1" id="Layer_1" xmlns="http://www.w3.org/2000/svg" xmlns:xlink="http://www.w3.org/1999/xlink" x="0px" y="0px" width="32px" height="32px" viewBox="0 0 32 32" enable-background="new 0 0 32 32" xml:space="preserve">
  <g id="icon">
    <path d="M15.844,15.787c0,2.92,-2.431,5.287,-5.431,5.287s-5.431,-2.367,-5.431,-5.287S7.414,10.5,10.414,10.5S15.844,12.867,15.844,15.787zM19.205,30.987c0,-5.098,-3.941,-9.891,-8.802,-9.891S1.6,25.889,1.6,30.987" fill="#FFFFFF" stroke="#383838" stroke-width="1.2" stroke-miterlimit="1"/>
    <path d="M6.5,6.5v3.569C7.619,9.331,8.966,8.9,10.414,8.9c3.877,0,7.031,3.09,7.031,6.887c0,1.951,-0.835,3.77,-2.257,5.056c0.968,0.58,1.865,1.336,2.648,2.238c0.878,1.011,1.581,2.176,2.083,3.419H30.5V6.5H6.5z" fill="#FFFFFF"/>
    <path d="M31,6v21H20.107c-0.12,-0.339,-0.255,-0.673,-0.404,-1H30V7H7v2.769c-0.353,0.193,-0.688,0.415,-1,0.662V6H31z" fill="#383838"/>
    <path d="M30.5,1.5v5H6.5V1.5H30.5z" fill="#92CBEE"/>
    <path d="M6,1v6h25V1H6zM30,6H7V2h23V6z" fill="#0964B0"/>
    <path d="M30,12v-1h-5V7h-1v4h-5V7h-1v4h-2.539c0.304,0.307,0.579,0.642,0.821,1H18v4h-0.561c-0.011,0.339,-0.046,0.672,-0.106,1H18v4h-2.563c0.46,0.294,0.903,0.629,1.324,1H18v1.276c0.366,0.441,0.7,0.91,1,1.4V22h5v4h1v-4h5v-1h-5v-4h5v-1h-5v-4H30zM24,21h-5v-4h5V21zM24,16h-5v-4h5V16zM12,9.079V7h1v2.385C12.678,9.26,12.344,9.157,12,9.079z" fill="#787979" opacity="0.6"/>
  </g>
</svg>
