<?xml version="1.0" encoding="UTF-8"?>
<!DOCTYPE svg PUBLIC "-//W3C//DTD SVG 1.1//EN" "http://www.w3.org/Graphics/SVG/1.1/DTD/svg11.dtd">
<svg version="1.1" id="Layer_1" xmlns="http://www.w3.org/2000/svg" xmlns:xlink="http://www.w3.org/1999/xlink" x="0px" y="0px" width="32px" height="32px" viewBox="0 0 32 32" enable-background="new 0 0 32 32" xml:space="preserve">
  <g id="icon">
    <path d="M16,30c-7.72,0,-14,-6.28,-14,-14S8.28,2,16,2s14,6.28,14,14S23.72,30,16,30zM16,3.2C8.942,3.2,3.2,8.942,3.2,16s5.742,12.8,12.8,12.8s12.8,-5.742,12.8,-12.8S23.058,3.2,16,3.2z" fill="#C8C6C4" opacity="0.5"/>
    <path d="M3.042,10.204l0.041,-0.091C4.313,7.406,6.324,5.19,8.9,3.702c2.152,-1.243,4.599,-1.899,7.076,-1.899c0.46,0,0.925,0.023,1.383,0.067l0.1,0.01l-0.16,1.591l-0.099,-0.01c-0.405,-0.039,-0.816,-0.059,-1.222,-0.059c-2.198,0,-4.369,0.583,-6.278,1.685C7.416,6.407,5.632,8.372,4.542,10.77L4.5,10.861L3.042,10.204z" fill="#238BCB"/>
  </g>
</svg>
