<?xml version="1.0" encoding="UTF-8"?>
<!DOCTYPE svg PUBLIC "-//W3C//DTD SVG 1.1//EN" "http://www.w3.org/Graphics/SVG/1.1/DTD/svg11.dtd">
<svg version="1.1" id="Layer_1" xmlns="http://www.w3.org/2000/svg" xmlns:xlink="http://www.w3.org/1999/xlink" x="0px" y="0px" width="32px" height="32px" viewBox="0 0 32 32" enable-background="new 0 0 32 32" xml:space="preserve">
  <g id="icon">
    <path d="M29.123,16c0,-0.58,-0.47,-1.05,-1.05,-1.05c-0.58,0,-1.05,0.47,-1.05,1.05s0.47,1.05,1.05,1.05C28.653,17.05,29.123,16.58,29.123,16zM8.145,25.406c0.58,-1.004,1.864,-1.348,2.868,-0.769s1.348,1.864,0.769,2.868c-0.58,1.004,-1.864,1.348,-2.868,0.769C7.909,27.694,7.565,26.41,8.145,25.406zM16,29.91c1.014,0,1.837,-0.822,1.837,-1.837c0,-1.014,-0.822,-1.837,-1.837,-1.837s-1.837,0.822,-1.837,1.837C14.163,29.087,14.986,29.91,16,29.91zM22.824,27.819c0.753,-0.435,1.011,-1.398,0.576,-2.151c-0.435,-0.753,-1.398,-1.011,-2.151,-0.576c-0.753,0.435,-1.011,1.398,-0.576,2.151C21.108,27.996,22.071,28.254,22.824,27.819zM25.799,23.173c-0.628,-0.362,-0.843,-1.165,-0.48,-1.793c0.362,-0.628,1.165,-0.843,1.793,-0.48s0.843,1.165,0.48,1.793C27.23,23.32,26.427,23.535,25.799,23.173zM3.499,23.217c0.652,1.13,2.097,1.517,3.226,0.864c1.13,-0.652,1.517,-2.097,0.864,-3.226c-0.652,-1.13,-2.097,-1.517,-3.226,-0.864C3.234,20.643,2.847,22.088,3.499,23.217zM5.919,9.314c0.359,0.207,0.482,0.666,0.274,1.024c-0.207,0.359,-0.666,0.482,-1.024,0.274c-0.359,-0.207,-0.482,-0.666,-0.274,-1.024C5.102,9.23,5.561,9.107,5.919,9.314zM3.177,16c0,0.414,0.336,0.75,0.75,0.75s0.75,-0.336,0.75,-0.75s-0.336,-0.75,-0.75,-0.75S3.177,15.586,3.177,16zM22.686,5.919c-0.207,0.359,-0.666,0.482,-1.024,0.274c-0.359,-0.207,-0.482,-0.666,-0.274,-1.024c0.207,-0.359,0.666,-0.482,1.024,-0.274C22.77,5.102,22.893,5.561,22.686,5.919zM16,3.177c-0.414,0,-0.75,0.336,-0.75,0.75s0.336,0.75,0.75,0.75s0.75,-0.336,0.75,-0.75S16.414,3.177,16,3.177zM9.589,4.895c-0.359,0.207,-0.482,0.666,-0.275,1.025c0.207,0.359,0.666,0.482,1.025,0.275c0.359,-0.207,0.482,-0.666,0.275,-1.025C10.406,4.811,9.947,4.688,9.589,4.895zM27.105,9.589c-0.207,-0.359,-0.666,-0.482,-1.025,-0.275s-0.482,0.666,-0.275,1.025c0.207,0.359,0.666,0.482,1.025,0.275S27.312,9.947,27.105,9.589z" fill="#92CBEE" stroke="#0964B0" stroke-width="1" stroke-miterlimit="1"/>
  </g>
</svg>
