<?xml version="1.0" encoding="UTF-8"?>
<!DOCTYPE svg PUBLIC "-//W3C//DTD SVG 1.1//EN" "http://www.w3.org/Graphics/SVG/1.1/DTD/svg11.dtd">
<svg version="1.1" id="Layer_1" xmlns="http://www.w3.org/2000/svg" xmlns:xlink="http://www.w3.org/1999/xlink" x="0px" y="0px" width="32px" height="32px" viewBox="0 0 32 32" enable-background="new 0 0 32 32" xml:space="preserve">
  <g id="icon">
    <rect x="1.5" y="12.5" width="20" height="17" fill="#FFFFFF" stroke="#383838" stroke-width="1" stroke-miterlimit="1"/>
    <polygon points="6.5,7.5 6.5,11 23,11 23,24.5 26.5,24.5 26.5,7.5" fill="#FFFFFF" stroke-linejoin="miter"/>
    <polygon points="6,7 6,11 7,11 7,8 26,8 26,24 23,24 23,25 27,25 27,7" fill="#383838" stroke-linejoin="miter"/>
    <polygon points="11.5,2.5 11.5,6 28,6 28,19.5 31.5,19.5 31.5,2.5" fill="#FFFFFF" stroke-linejoin="miter"/>
    <polygon points="11,2 11,6 12,6 12,3 31,3 31,19 28,19 28,20 32,20 32,2" fill="#383838" stroke-linejoin="miter"/>
  </g>
</svg>
