<?xml version="1.0" encoding="UTF-8"?>
<!DOCTYPE svg PUBLIC "-//W3C//DTD SVG 1.1//EN" "http://www.w3.org/Graphics/SVG/1.1/DTD/svg11.dtd">
<svg version="1.1" id="Layer_1" xmlns="http://www.w3.org/2000/svg" xmlns:xlink="http://www.w3.org/1999/xlink" x="0px" y="0px" width="32px" height="32px" viewBox="0 0 32 32" enable-background="new 0 0 32 32" xml:space="preserve">
  <g id="icon">
    <path d="M30.5,29.5H1.5V7.5h29V29.5z" fill="#FFFFFF" stroke="#383838" stroke-width="1" stroke-miterlimit="1"/>
    <path d="M30.5,7.5H1.5V2.5h29V7.5z" fill="#FFFFFF" stroke="#228BCB" stroke-width="1" stroke-miterlimit="1"/>
    <path d="M15.5,25v4M15.5,21v3M15.5,17v3M15.5,13v3M15.5,8v4M16,29h-1v-4h1V29zM16,24h-1v-3h1V24zM16,20h-1v-3h1V20zM16,16h-1v-3h1V16zM16,12h-1V8h1V12z" fill="#78797A"/>
  </g>
</svg>
