<?xml version="1.0" encoding="UTF-8"?>
<!DOCTYPE svg PUBLIC "-//W3C//DTD SVG 1.1//EN" "http://www.w3.org/Graphics/SVG/1.1/DTD/svg11.dtd">
<svg version="1.1" id="Layer_1" xmlns="http://www.w3.org/2000/svg" xmlns:xlink="http://www.w3.org/1999/xlink" x="0px" y="0px" width="32px" height="32px" viewBox="0 0 32 32" enable-background="new 0 0 32 32" xml:space="preserve">
  <g id="icon">
    <path d="M24.5,30.5H1.5V12.5h23V30.5z" fill="#FFFFFF" stroke="#383838" stroke-width="1" stroke-miterlimit="1"/>
    <path d="M24.5,12.5H1.5V8.5h23V12.5z" fill="#92CBEE"/>
    <path d="M25,13H1V8h24V13zM2,12h22V9H2V12z" fill="#0964B0"/>
    <path d="M27,10v19h-1v-3V11v-1H27zM28,8v1v15v3h1V8H28zM30,6v1v15v3h1V6H30z" fill="#383838"/>
    <path d="M27,6v5h-1V7H3V6H27zM5,4v1h23v4h1V4H5zM7,2v1h23v4h1V2H7z" fill="#0964B0"/>
  </g>
</svg>
