<?xml version="1.0" encoding="UTF-8"?>
<!DOCTYPE svg PUBLIC "-//W3C//DTD SVG 1.1//EN" "http://www.w3.org/Graphics/SVG/1.1/DTD/svg11.dtd">
<svg version="1.1" id="Layer_1" xmlns="http://www.w3.org/2000/svg" xmlns:xlink="http://www.w3.org/1999/xlink" x="0px" y="0px" width="16px" height="16px" viewBox="0 0 16 16" enable-background="new 0 0 16 16" xml:space="preserve">
  <g id="icon">
    <path d="M13.958,14.5H2.042C1.19,14.5,0.5,13.81,0.5,12.958V4.042C0.5,3.19,1.19,2.5,2.042,2.5h11.917C14.81,2.5,15.5,3.19,15.5,4.042v8.917C15.5,13.81,14.81,14.5,13.958,14.5z" fill="#FFFFFF"/>
    <path d="M9,3H7V2h2V3zM6,2H4v1h2V2zM15,4.1v0.9h1v-0.9c0,-1.158,-0.942,-2.1,-2.1,-2.1h-0.9v1h0.9C14.507,3,15,3.493,15,4.1zM15,8h1V6h-1V8zM12,2h-2v1h2V2zM1,4.1c0,-0.607,0.493,-1.1,1.1,-1.1h0.9V2h-0.9C0.942,2,0,2.942,0,4.1v0.9h1V4.1zM1,12.9v-0.9H0v0.9c0,1.158,0.942,2.1,2.1,2.1h0.9v-1h-0.9C1.493,14,1,13.507,1,12.9zM10,15h2v-1h-2V15zM15,12v0.9c0,0.607,-0.493,1.1,-1.1,1.1h-0.9v1h0.9c1.158,0,2.1,-0.942,2.1,-2.1v-0.9H15zM7,15h2v-1H7V15zM1,8V6H0v2H1zM15,11h1V9h-1V11zM1,11V9H0v2H1zM4,15h2v-1H4V15z" fill="#78797A"/>
    <path d="M5.374,9.304c0.053,0.539,0.168,0.908,0.344,1.32c0.176,0.412,0.408,0.756,0.695,1.033c0.287,0.277,0.625,0.487,1.013,0.629c0.388,0.142,0.816,0.213,1.283,0.213c0.308,0,0.58,-0.026,0.819,-0.077c0.238,-0.051,0.449,-0.116,0.632,-0.193c0.183,-0.078,0.339,-0.162,0.468,-0.253c0.129,-0.091,0.24,-0.175,0.331,-0.253c0.091,-0.078,0.164,-0.142,0.217,-0.193M5.368,7.788c-0.009,0.102,-0.016,0.32,-0.02,0.426c-0.004,0.106,-0.007,0.214,-0.007,0.324c0,0.19,0.007,0.478,0.02,0.652M11.05,5.335c-0.049,-0.044,-0.115,-0.098,-0.197,-0.162c-0.083,-0.064,-0.185,-0.135,-0.308,-0.211c-0.123,-0.076,-0.27,-0.146,-0.441,-0.211c-0.172,-0.064,-0.371,-0.119,-0.598,-0.162c-0.227,-0.044,-0.484,-0.065,-0.769,-0.065c-0.468,0,-0.895,0.069,-1.28,0.208c-0.386,0.139,-0.722,0.343,-1.009,0.615c-0.287,0.271,-0.523,0.606,-0.705,1.005c-0.183,0.398,-0.303,0.807,-0.361,1.323M4.198,7.508h5.212M3.872,9.504h5.293" fill="#FFFFFF" stroke="#E57428" stroke-width="1" stroke-miterlimit="1"/>
  </g>
</svg>
