<?xml version="1.0" encoding="UTF-8"?>
<!DOCTYPE svg PUBLIC "-//W3C//DTD SVG 1.1//EN" "http://www.w3.org/Graphics/SVG/1.1/DTD/svg11.dtd">
<svg version="1.1" id="Layer_1" xmlns="http://www.w3.org/2000/svg" xmlns:xlink="http://www.w3.org/1999/xlink" x="0px" y="0px" width="16px" height="16px" viewBox="0 0 16 16" enable-background="new 0 0 16 16" xml:space="preserve">
  <g id="icon">
    <path d="M15.5,13.5H0.5V3.5h15V13.5z" fill="#FFFFFF" stroke="#17AB4F" stroke-width="1" stroke-miterlimit="1"/>
    <path d="M0.5,5.864V3.5h2.5l0,0.339c0,1.124,-0.959,2.036,-2.143,2.036L0.5,5.864zM15.5,5.864V3.5h-2.5l0,0.339c0,1.124,0.959,2.036,2.143,2.036L15.5,5.864zM12.986,13.5H15.5v-2.4l-0.361,0c-1.196,0,-2.165,0.921,-2.165,2.057L12.986,13.5zM0.5,11.136V13.5h2.5l0,-0.339c0,-1.124,-0.959,-2.036,-2.143,-2.036L0.5,11.136z" fill="#FFFFFF" stroke="#17AB4F" stroke-width="1" stroke-miterlimit="1"/>
    <path d="M5.86,10.499c0.113,0.111,0.229,0.211,0.35,0.301c0.121,0.089,0.42,0.331,0.561,0.39c0.141,0.059,0.296,0.103,0.464,0.133c0.168,0.03,0.358,0.042,0.569,0.036M7.903,11.356c0.292,-0.017,0.552,-0.074,0.779,-0.171c0.227,-0.097,0.418,-0.224,0.572,-0.38c0.154,-0.156,0.269,-0.335,0.344,-0.537c0.076,-0.202,0.109,-0.417,0.101,-0.646c-0.009,-0.24,-0.067,-0.437,-0.174,-0.591c-0.107,-0.154,-0.244,-0.281,-0.412,-0.381c-0.168,-0.1,-0.357,-0.181,-0.568,-0.243c-0.21,-0.062,-0.424,-0.121,-0.64,-0.177M7.911,5.58c0.241,-0.002,0.443,0.023,0.607,0.074c0.163,0.051,0.298,0.108,0.404,0.17c0.106,0.062,0.356,0.287,0.412,0.339c0.056,0.052,0.13,0.111,0.13,0.111M7.81,8.205c-0.192,-0.052,-0.377,-0.107,-0.556,-0.167c-0.179,-0.06,-0.338,-0.137,-0.477,-0.231c-0.139,-0.094,-0.252,-0.211,-0.339,-0.35c-0.087,-0.139,-0.134,-0.311,-0.141,-0.516c-0.006,-0.169,0.022,-0.333,0.084,-0.492c0.062,-0.159,0.158,-0.3,0.287,-0.424c0.13,-0.124,0.29,-0.225,0.482,-0.303c0.192,-0.078,0.414,-0.124,0.667,-0.137M8,4.6v7.8" fill="none" stroke="#0BA04A" stroke-width="1" stroke-miterlimit="1"/>
  </g>
</svg>
