<?xml version="1.0" encoding="UTF-8"?>
<!DOCTYPE svg PUBLIC "-//W3C//DTD SVG 1.1//EN" "http://www.w3.org/Graphics/SVG/1.1/DTD/svg11.dtd">
<svg version="1.1" id="Layer_1" xmlns="http://www.w3.org/2000/svg" xmlns:xlink="http://www.w3.org/1999/xlink" x="0px" y="0px" width="16px" height="16px" viewBox="0 0 16 16" enable-background="new 0 0 16 16" xml:space="preserve">
  <g id="icon">
    <path d="M13.983,13.5H2.017C1.182,13.5,0.5,12.818,0.5,11.983V4.017C0.5,3.183,1.182,2.5,2.017,2.5h11.967c0.834,0,1.517,0.683,1.517,1.517v7.967C15.5,12.818,14.818,13.5,13.983,13.5z" fill="#FFFFFF" stroke="#383838" stroke-width="1" stroke-miterlimit="1"/>
    <path d="M8,10.8c-0.576,0.44,-1.291,0.7,-2.065,0.7c-1.902,0,-3.444,-1.567,-3.444,-3.501C2.491,6.067,4.033,4.5,5.935,4.5c0.774,0,1.49,0.26,2.065,0.7c0.576,-0.44,1.291,-0.7,2.065,-0.7c1.902,0,3.444,1.567,3.444,3.499c0,1.934,-1.542,3.501,-3.444,3.501C9.291,11.5,8.576,11.24,8,10.8z" fill="#FFFFFF" stroke="#228BCB" stroke-width="1" stroke-miterlimit="1"/>
    <path d="M12.162,7.6c-0.11,-0.006,-0.216,-0.031,-0.327,-0.031c-0.107,0,-0.246,0,-0.322,0.094c-0.086,0.108,0.058,0.219,0.144,0.25c0.115,0.041,0.233,0.071,0.337,0.138c0.201,0.13,0.193,0.469,0.086,0.661c-0.128,0.229,-0.402,0.294,-0.635,0.3c-0.172,0.005,-0.352,0.005,-0.521,-0.027c-0.039,-0.007,-0.077,-0.017,-0.116,-0.027c-0.021,-0.005,-0.041,-0.013,-0.061,-0.02c-0.008,-0.003,0.002,-0.028,0.003,-0.036c0.023,-0.113,0.047,-0.225,0.07,-0.338c0.191,0.067,0.405,0.089,0.605,0.077c0.109,-0.007,0.22,-0.1,0.188,-0.228c-0.026,-0.104,-0.198,-0.139,-0.279,-0.17c-0.112,-0.044,-0.227,-0.096,-0.302,-0.198c-0.073,-0.1,-0.084,-0.226,-0.069,-0.347c0.014,-0.115,0.05,-0.241,0.132,-0.325c0.084,-0.086,0.189,-0.134,0.302,-0.159c0.275,-0.06,0.577,-0.041,0.852,0.009C12.22,7.349,12.191,7.474,12.162,7.6zM5.543,6.872c-0.195,-0.055,-0.391,-0.119,-0.596,-0.112c-0.236,0.009,-0.483,0.043,-0.684,0.185c-0.207,0.147,-0.333,0.357,-0.42,0.6c-0.081,0.227,-0.129,0.497,-0.093,0.739c0.038,0.254,0.175,0.476,0.386,0.606c0.203,0.126,0.439,0.136,0.669,0.126c0.126,-0.005,0.253,-0.024,0.358,-0.102c0.019,-0.014,0.019,-0.02,0.023,-0.044c0.009,-0.051,0.018,-0.102,0.026,-0.153c0.015,-0.088,0.031,-0.177,0.046,-0.265c-0.164,0.17,-0.447,0.158,-0.654,0.107c-0.253,-0.063,-0.364,-0.338,-0.331,-0.589c0.03,-0.229,0.116,-0.502,0.301,-0.642c0.176,-0.133,0.42,-0.133,0.624,-0.088c0.09,0.02,0.18,0.053,0.261,0.099C5.488,7.184,5.515,7.028,5.543,6.872zM6.002,9.003c0.096,-0.568,0.191,-1.136,0.287,-1.704c0.002,-0.015,0.005,-0.03,0.007,-0.044c-0.142,0,-0.284,0,-0.426,0c-0.008,0,-0.13,-0.004,-0.131,0c-0.004,0.024,-0.008,0.048,-0.012,0.072c-0.056,0.332,-0.112,0.665,-0.167,0.997c-0.038,0.227,-0.076,0.453,-0.114,0.68C5.63,9.003,5.816,9.003,6.002,9.003zM6.352,9.003c0.141,0,0.283,0,0.424,0c0.047,0,0.094,0,0.142,0c0.007,0,0.018,-0.081,0.02,-0.089c0.062,-0.318,0.124,-0.636,0.186,-0.954c0.032,-0.165,0.229,-0.279,0.378,-0.254c0.009,0.002,0.084,0.024,0.085,0.017c0.015,-0.05,0.029,-0.1,0.044,-0.15c0.035,-0.119,0.07,-0.237,0.105,-0.356c-0.227,-0.008,-0.457,0.046,-0.599,0.25c0.007,-0.078,0.014,-0.156,0.021,-0.234c-0.141,0,-0.283,0,-0.424,0c-0.018,0,-0.064,-0.013,-0.068,0.01c-0.006,0.035,-0.013,0.071,-0.019,0.106c-0.062,0.346,-0.123,0.691,-0.185,1.037C6.426,8.592,6.389,8.797,6.352,9.003zM10.795,7.254c-0.142,0,-0.283,0,-0.425,0c-0.009,0,-0.121,-0.005,-0.122,0.002c-0.007,0.045,-0.014,0.091,-0.021,0.136c-0.029,0.184,-0.058,0.367,-0.087,0.551c-0.016,0.101,-0.024,0.212,-0.063,0.307c-0.078,0.189,-0.4,0.354,-0.551,0.163c-0.065,-0.082,-0.053,-0.196,-0.038,-0.293c0.026,-0.16,0.052,-0.321,0.077,-0.481c0.021,-0.13,0.042,-0.26,0.063,-0.391c-0.142,0,-0.283,0,-0.425,0c-0.009,0,-0.121,-0.005,-0.122,0.002c-0.007,0.041,-0.013,0.082,-0.02,0.123c-0.048,0.297,-0.104,0.593,-0.145,0.891c-0.033,0.237,0.017,0.511,0.212,0.658c0.097,0.073,0.206,0.088,0.322,0.083c0.111,-0.005,0.226,-0.013,0.33,-0.059c0.098,-0.043,0.169,-0.118,0.24,-0.199c-0.014,0.086,-0.027,0.172,-0.041,0.259c0.142,0,0.283,0,0.425,0c0.008,0,0.121,0.004,0.122,-0.001c0.004,-0.025,0.008,-0.051,0.012,-0.076c0.051,-0.335,0.103,-0.671,0.154,-1.006C10.727,7.701,10.761,7.477,10.795,7.254zM7.576,9.003c0.142,0,0.284,0,0.425,0c0.009,0,0.13,0.005,0.131,-0.001c0.007,-0.037,0.015,-0.073,0.022,-0.11c0.062,-0.314,0.125,-0.628,0.187,-0.941c0.033,-0.165,0.245,-0.276,0.391,-0.242c0.011,0.003,0.069,0.024,0.073,0.013c0.016,-0.053,0.031,-0.105,0.047,-0.158c0.034,-0.115,0.068,-0.23,0.102,-0.345c-0.228,-0.008,-0.455,0.046,-0.599,0.25c0.007,-0.078,0.014,-0.156,0.02,-0.234c-0.142,0,-0.284,0,-0.425,0c-0.021,0,-0.057,-0.013,-0.062,0.012c-0.007,0.037,-0.013,0.073,-0.02,0.11c-0.062,0.347,-0.123,0.695,-0.185,1.042C7.647,8.6,7.612,8.801,7.576,9.003z" fill="#78797A"/>
  </g>
</svg>
