<?xml version="1.0" encoding="UTF-8"?>
<!DOCTYPE svg PUBLIC "-//W3C//DTD SVG 1.1//EN" "http://www.w3.org/Graphics/SVG/1.1/DTD/svg11.dtd">
<svg version="1.1" id="Layer_1" xmlns="http://www.w3.org/2000/svg" xmlns:xlink="http://www.w3.org/1999/xlink" x="0px" y="0px" width="16px" height="16px" viewBox="0 0 16 16" enable-background="new 0 0 16 16" xml:space="preserve">
  <g id="icon">
    <path d="M13.983,13.5H2.017C1.182,13.5,0.5,12.818,0.5,11.983V4.017C0.5,3.183,1.182,2.5,2.017,2.5h11.967c0.834,0,1.517,0.683,1.517,1.517v7.967C15.5,12.818,14.818,13.5,13.983,13.5z" fill="#FFFFFF" stroke="#383838" stroke-width="1" stroke-miterlimit="1"/>
    <path d="M2.023,6.053h0.629c0.378,0,0.932,0.345,0.932,0.958l0,0.007l0,0.007c0,0.613,-0.554,0.958,-0.932,0.958h-0.629V6.053L2.023,6.053zM2.386,7.662c0,0,0.808,0.092,0.808,-0.627v-0.011c0,-0.719,-0.808,-0.627,-0.808,-0.627V7.662zM3.751,7.988h0.385V6.053h-0.385V7.988zM5.522,6.249c0,0,-0.252,-0.228,-0.543,-0.228c-0.325,0,-0.614,0.193,-0.614,0.582c0,0.434,0.448,0.494,0.611,0.555c0.164,0.06,0.221,0.158,0.221,0.257c0,0.067,-0.015,0.269,-0.28,0.269c-0.265,0,-0.417,-0.257,-0.417,-0.257l-0.24,0.241c0,0,0.215,0.367,0.69,0.367c0.302,0,0.638,-0.219,0.638,-0.649c0,-0.431,-0.357,-0.504,-0.6,-0.606c-0.243,-0.102,-0.24,-0.149,-0.24,-0.231c0,-0.083,0.098,-0.196,0.268,-0.196c0.17,0,0.297,0.147,0.297,0.147L5.522,6.249zM7.186,6.122c-0.14,-0.074,-0.298,-0.115,-0.467,-0.115c-0.559,0,-1.013,0.456,-1.013,1.018c0,0.562,0.453,1.018,1.013,1.018c0.169,0,0.327,-0.041,0.467,-0.114l0,-0.456c-0.119,0.122,-0.285,0.211,-0.468,0.211c-0.362,0,-0.655,-0.295,-0.655,-0.658s0.293,-0.658,0.655,-0.658c0.184,0,0.349,0.09,0.467,0.213V6.122zM10.092,8.037h0.238l0.809,-1.984h-0.414l-0.499,1.267l-0.53,-1.267h-0.414L10.092,8.037zM12.598,6.053h0.627c0.2,0,0.599,0.11,0.599,0.57c0,0.46,-0.412,0.556,-0.412,0.556l0.588,0.809h-0.467l-0.519,-0.772h-0.04v0.772h-0.376V6.053L12.598,6.053zM12.973,6.376v0.564h0.207c0.159,0,0.26,-0.144,0.26,-0.27v-0.024c0,-0.126,-0.101,-0.27,-0.26,-0.27H12.973zM11.665,6.816v-0.421h0.684v-0.341h-1.066v1.934h1.066v-0.341h-0.684v-0.49h0.654v-0.341H11.665zM4.279,9.555h0.137V8.91c0.027,0.038,0.056,0.073,0.089,0.104l0.599,0.577v-0.963h-0.137v0.643c-0.023,-0.028,-0.041,-0.049,-0.051,-0.062c-0.011,-0.013,-0.028,-0.03,-0.05,-0.051l-0.587,-0.566V9.555zM5.569,9.555h0.515V9.42h-0.365v-0.3h0.365v-0.132h-0.365v-0.232h0.365v-0.128h-0.515V9.555zM6.761,8.75h0.202v-0.128h-0.555v0.128h0.203v0.809h0.15V8.75zM7.283,8.627l0.356,0.963l0.206,-0.526c0.016,-0.039,0.03,-0.083,0.044,-0.133c0.011,0.04,0.026,0.083,0.045,0.13l0.21,0.529l0.358,-0.963l-0.15,0l-0.174,0.472c-0.008,0.022,-0.016,0.048,-0.026,0.077c-0.009,0.028,-0.016,0.051,-0.019,0.067c-0.014,-0.05,-0.031,-0.099,-0.048,-0.147l-0.195,-0.504l-0.186,0.495l-0.019,0.056c-0.011,0.032,-0.021,0.065,-0.032,0.099c-0.008,-0.026,-0.015,-0.051,-0.023,-0.074c-0.008,-0.023,-0.016,-0.047,-0.026,-0.073l-0.175,-0.468L7.283,8.627zM9.482,8.847c-0.065,-0.068,-0.144,-0.101,-0.237,-0.101c-0.094,0,-0.165,0.025,-0.214,0.075c-0.049,0.05,-0.082,0.097,-0.098,0.139c-0.016,0.042,-0.025,0.087,-0.025,0.134c0,0.096,0.033,0.178,0.098,0.245c0.065,0.068,0.145,0.102,0.239,0.102c0.093,0,0.172,-0.034,0.238,-0.102c0.066,-0.068,0.099,-0.15,0.099,-0.245C9.582,8.997,9.549,8.915,9.482,8.847L9.482,8.847zM9.593,9.438c-0.097,0.095,-0.213,0.143,-0.348,0.143c-0.067,0,-0.13,-0.012,-0.19,-0.036c-0.059,-0.025,-0.113,-0.06,-0.16,-0.106c-0.047,-0.046,-0.083,-0.099,-0.107,-0.157c-0.024,-0.059,-0.036,-0.121,-0.036,-0.188c0,-0.136,0.048,-0.251,0.144,-0.345c0.096,-0.094,0.212,-0.142,0.35,-0.142c0.136,0,0.252,0.047,0.348,0.142c0.096,0.095,0.145,0.21,0.145,0.345S9.69,9.343,9.593,9.438zM10.266,9.023c0.073,0,0.124,-0.008,0.154,-0.024c0.029,-0.015,0.044,-0.05,0.044,-0.104c0,-0.054,-0.015,-0.091,-0.046,-0.11c-0.03,-0.019,-0.081,-0.028,-0.152,-0.028h-0.027v0.266H10.266L10.266,9.023zM10.23,9.555h-0.141v-0.928h0.209c0.056,0,0.101,0.004,0.137,0.01c0.035,0.007,0.067,0.021,0.094,0.043c0.028,0.021,0.049,0.049,0.065,0.084c0.016,0.035,0.023,0.074,0.023,0.118c0,0.15,-0.071,0.233,-0.212,0.25l0.317,0.422l-0.169,0l-0.308,-0.415l-0.017,0V9.555zM11.041,9.555h0.15v-0.473l0.365,0.473l0.194,0l-0.409,-0.515l0.365,-0.413h-0.183l-0.332,0.385v-0.385h-0.15V9.555z" fill="#383838"/>
    <ellipse cx="8.352" cy="7.23" rx="0.998" ry="1.003" fill="#E57428"/>
  </g>
</svg>
