<?xml version="1.0" encoding="UTF-8"?>
<!DOCTYPE svg PUBLIC "-//W3C//DTD SVG 1.1//EN" "http://www.w3.org/Graphics/SVG/1.1/DTD/svg11.dtd">
<svg version="1.1" id="Layer_1" xmlns="http://www.w3.org/2000/svg" xmlns:xlink="http://www.w3.org/1999/xlink" x="0px" y="0px" width="16px" height="16px" viewBox="0 0 16 16" enable-background="new 0 0 16 16" xml:space="preserve">
  <g id="icon">
    <path d="M13.983,13.5H2.017C1.182,13.5,0.5,12.818,0.5,11.983V4.017C0.5,3.183,1.182,2.5,2.017,2.5h11.967c0.834,0,1.517,0.683,1.517,1.517v7.967C15.5,12.818,14.818,13.5,13.983,13.5z" fill="#FFFFFF" stroke="#383838" stroke-width="1" stroke-miterlimit="1"/>
    <path d="M11.216,10.793c-1.535,0,-2.784,-1.24,-2.784,-2.765c0,-1.525,1.249,-2.765,2.784,-2.765c1.535,0,2.784,1.241,2.784,2.765C14,9.552,12.751,10.793,11.216,10.793zM11.216,6.157c-1.039,0,-1.884,0.839,-1.884,1.871c0,1.032,0.845,1.871,1.884,1.871S13.1,9.059,13.1,8.028C13.1,6.996,12.255,6.157,11.216,6.157zM7.461,10.746l-0.026,-0.004c-0.745,-0.766,-1.156,-1.727,-1.156,-2.726c0,-0.999,0.41,-1.966,1.156,-2.732l0.026,-0.021h1.431l-0.235,0.161C7.719,6.068,7.18,7.017,7.18,8.028c0,1.01,0.539,1.936,1.478,2.581l0.235,0.138H7.461zM5.322,10.746l-0.026,-0.004C4.55,9.976,4.14,9.015,4.14,8.016c0,-0.999,0.41,-1.966,1.156,-2.732l0.026,-0.021h1.431l-0.235,0.161C5.579,6.068,5.04,7.017,5.04,8.028c0,1.01,0.539,1.936,1.478,2.581l0.235,0.138H5.322zM3.182,10.746l-0.026,-0.004C2.41,9.976,2,9.016,2,8.016c0,-0.999,0.41,-1.966,1.156,-2.732l0.026,-0.021h1.431l-0.235,0.161C3.439,6.068,2.9,7.018,2.9,8.028c0,1.01,0.539,1.936,1.478,2.581l0.235,0.138H3.182z" fill="#78797A"/>
  </g>
</svg>
