<?xml version="1.0" encoding="UTF-8"?>
<!DOCTYPE svg PUBLIC "-//W3C//DTD SVG 1.1//EN" "http://www.w3.org/Graphics/SVG/1.1/DTD/svg11.dtd">
<svg version="1.1" id="Layer_1" xmlns="http://www.w3.org/2000/svg" xmlns:xlink="http://www.w3.org/1999/xlink" x="0px" y="0px" width="16px" height="16px" viewBox="0 0 16 16" enable-background="new 0 0 16 16" xml:space="preserve">
  <g id="icon">
    <path d="M8.888,6.673c0,1.752,-1.408,3.254,-3.145,3.254S2.597,8.425,2.597,6.673S4.005,3.5,5.742,3.5S8.888,4.921,8.888,6.673zM10.984,15.981c0,-3.063,-2.407,-6.033,-5.221,-6.033S0.5,12.917,0.5,15.981" fill="#FFFFFF" stroke="#383838" stroke-width="1" stroke-miterlimit="1"/>
    <polygon points="6.468,16 5.056,16 5.409,11.973 5.056,10.839 6.468,10.839 6.115,11.986" fill="#EF3E3B" stroke-linejoin="miter"/>
    <path d="M6.148,16l0.042,-0.191c0.086,-0.392,0.863,-3.869,1.662,-5.079l0.088,-0.134l0.624,0.382l-0.088,0.134c-0.684,1.035,-1.406,4.149,-1.544,4.763L6.904,16H6.148zM4.577,16l-0.028,-0.125c-0.138,-0.613,-0.858,-3.726,-1.541,-4.755l-0.089,-0.133l0.623,-0.384l0.089,0.133c0.801,1.206,1.574,4.68,1.66,5.072l0.042,0.191H4.577z" fill="#383838"/>
    <g>
      <path d="M9.461,9.653c0.429,0.325,0.829,0.704,1.188,1.128c0.557,0.657,1.005,1.405,1.329,2.199h3.505c0,-2.985,-2.285,-5.879,-5.006,-6.025C10.419,7.935,10.057,8.879,9.461,9.653z" fill="#FFFFFF"/>
      <path d="M10.488,6.673c0,0.081,-0.003,0.162,-0.007,0.243c1.626,-0.13,2.907,-1.572,2.907,-3.243C13.388,1.921,11.98,0.5,10.242,0.5c-1.218,0,-2.273,0.699,-2.796,1.72C9.224,2.91,10.488,4.645,10.488,6.673z" fill="#FFFFFF"/>
    </g>
    <path d="M14.31,8.492c-0.623,-0.735,-1.367,-1.293,-2.161,-1.639c1.035,-0.671,1.739,-1.859,1.739,-3.18C13.888,1.648,12.253,0,10.242,0C8.806,0,7.561,0.842,6.967,2.062c0.327,0.088,0.641,0.211,0.936,0.364C8.348,1.579,9.229,1,10.242,1c1.459,0,2.645,1.199,2.645,2.673c0,1.409,-1.08,2.611,-2.407,2.741c0.005,0.086,0.007,0.172,0.007,0.259c0,0.263,-0.023,0.524,-0.065,0.78c2.407,0.11,4.561,2.694,4.561,5.527h1C15.984,11.384,15.374,9.748,14.31,8.492z" fill="#383838"/>
    <path d="M10.342,7.839c-0.099,0.391,-0.245,0.769,-0.436,1.125l0.003,0.01l-0.085,0.975c0.293,0.253,0.57,0.531,0.826,0.832c0.047,0.056,0.093,0.114,0.138,0.171l-0.173,-1.967l0.353,-1.147H10.342z" fill="#EF3E3B"/>
    <path d="M12.44,7.596l-0.088,0.134c-0.494,0.747,-0.978,2.358,-1.297,3.574c0.199,0.278,0.38,0.57,0.542,0.87c0.283,-1.16,0.843,-3.25,1.379,-4.062l0.088,-0.134L12.44,7.596z" fill="#383838"/>
  </g>
</svg>
