<?xml version="1.0" encoding="UTF-8"?>
<!DOCTYPE svg PUBLIC "-//W3C//DTD SVG 1.1//EN" "http://www.w3.org/Graphics/SVG/1.1/DTD/svg11.dtd">
<svg version="1.1" id="Layer_1" xmlns="http://www.w3.org/2000/svg" xmlns:xlink="http://www.w3.org/1999/xlink" x="0px" y="0px" width="16px" height="16px" viewBox="0 0 16 16" enable-background="new 0 0 16 16" xml:space="preserve">
  <g id="icon">
    <path d="M2.5,2.5v2.5h7.592c0.502,0,0.908,0.407,0.908,0.908V12.5h4.5V2.5H2.5z" fill="#FFFFFF"/>
    <rect x="2.5" y="0.5" width="13" height="2" fill="#C8C6C4"/>
    <path d="M2,0v2v1v2h1V3h12v9h-4v1h5V3V2V0H2zM15,2H3V1h12V2z" fill="#383838"/>
    <polygon points="13.985,3.885 10.845,4.465 11.027,5.448 12.495,5.177 11,7.733 11,9.194 11.226,9.326 13.195,5.961 13.356,7.513 14.351,7.41" fill="#228BCB" stroke-linejoin="miter"/>
    <path d="M9.5,15.5V6.5H0.5v9H9.5z" fill="#FFFFFF" stroke="#ED8730" stroke-width="1" stroke-miterlimit="1"/>
    <rect x="3.5" y="6.5" width="3" height="3" fill="none" stroke="#787979" stroke-width="1" stroke-miterlimit="1"/>
    <path d="M2.5,14.3v-2.3M4.5,13.5v-1.5M6.5,14.3v-2.3" fill="none" stroke="#787979" stroke-width="1" stroke-miterlimit="1"/>
  </g>
</svg>
