<?xml version="1.0" encoding="UTF-8"?>
<!DOCTYPE svg PUBLIC "-//W3C//DTD SVG 1.1//EN" "http://www.w3.org/Graphics/SVG/1.1/DTD/svg11.dtd">
<svg version="1.1" id="Layer_1" xmlns="http://www.w3.org/2000/svg" xmlns:xlink="http://www.w3.org/1999/xlink" x="0px" y="0px" width="32px" height="32px" viewBox="0 0 32 32" enable-background="new 0 0 32 32" xml:space="preserve">
  <g id="icon">
    <polygon points="22.5,1.5 7.5,1.5 7.5,10 19,10 19,29 7.5,29 7.5,30.5 30.5,30.5 30.5,9.5" fill="#FFFFFF" stroke-linejoin="miter"/>
    <path d="M22.707,1H7v9h1V2h14v8h8v20H8v-1H7v2h24V9.293L22.707,1zM23,9V2.707L29.293,9H23z" fill="#383838"/>
    <rect x="1.5" y="14.5" width="16" height="13" fill="#FFFFFF" stroke="#383838" stroke-width="1" stroke-miterlimit="1"/>
    <rect x="1.5" y="11.5" width="16" height="3" fill="#92CBEE" stroke="#0964B0" stroke-width="1" stroke-miterlimit="1"/>
    <path d="M6,26H5V16h1V26zM10,16H9v10h1V16zM14,16h-1v10h1V16z" fill="#C8C6C4" opacity="0.5"/>
    <path d="M15,24H7v-2h8V24zM12,20H4v-2h8V20z" fill="#228BCB"/>
  </g>
</svg>
