<?xml version="1.0" encoding="UTF-8"?>
<!DOCTYPE svg PUBLIC "-//W3C//DTD SVG 1.1//EN" "http://www.w3.org/Graphics/SVG/1.1/DTD/svg11.dtd">
<svg version="1.1" id="Layer_1" xmlns="http://www.w3.org/2000/svg" xmlns:xlink="http://www.w3.org/1999/xlink" x="0px" y="0px" width="32px" height="32px" viewBox="0 0 32 32" enable-background="new 0 0 32 32" xml:space="preserve">
  <g id="icon">
    <rect x="1.5" y="7.5" width="29" height="22" fill="#FFFFFF" stroke="#383838" stroke-width="1" stroke-miterlimit="1"/>
    <rect x="1.5" y="2.5" width="29" height="5" fill="#92CBEE" stroke="#0964B0" stroke-width="1" stroke-miterlimit="1"/>
    <line x1="15.5" y1="8" x2="15.5" y2="29.1" fill="#FFFFFF" stroke="#383838" stroke-width="1" stroke-miterlimit="1"/>
    <path d="M18,10.5h10M18,13.5h10M18,16.5h10M18,19.5h10M18,22.5h10M18,25.5h10" fill="#FFFFFF" stroke="#787979" stroke-width="1" stroke-miterlimit="1"/>
    <rect x="3.5" y="13.5" width="10" height="10" fill="#FFFFFF" stroke="#17AB4F" stroke-width="1" stroke-miterlimit="1"/>
    <path d="M8.578,19.5H6.5v-4h2.078c1.061,0,1.922,0.86,1.922,1.922v0.157C10.5,18.64,9.64,19.5,8.578,19.5z" fill="#FFFFFF" stroke="#17AB4F" stroke-width="1" stroke-miterlimit="1"/>
    <line x1="6.5" y1="22" x2="6.5" y2="19.2" fill="none" stroke="#17AB4F" stroke-width="1" stroke-miterlimit="1"/>
  </g>
</svg>
