<?xml version="1.0" encoding="UTF-8"?>
<!DOCTYPE svg PUBLIC "-//W3C//DTD SVG 1.1//EN" "http://www.w3.org/Graphics/SVG/1.1/DTD/svg11.dtd">
<svg version="1.1" id="Layer_1" xmlns="http://www.w3.org/2000/svg" xmlns:xlink="http://www.w3.org/1999/xlink" x="0px" y="0px" width="32px" height="32px" viewBox="0 0 32 32" enable-background="new 0 0 32 32" xml:space="preserve">
  <g id="icon">
    <path d="M11.628,17.08c1.433,-1.433,3.118,-2.222,4.743,-2.222c0.806,0,1.581,0.194,2.281,0.568l1.492,-1.492c-0.233,-0.663,-0.266,-1.406,-0.09,-2.16c0.227,-0.972,0.814,-1.985,1.61,-2.781l1.061,-1.061l7.752,7.752c0.013,-0.096,0.023,-0.193,0.023,-0.292V4.617C30.5,3.448,29.552,2.5,28.383,2.5H3.617C2.448,2.5,1.5,3.448,1.5,4.617v10.775c0,1.169,0.948,2.117,2.117,2.117h7.582L11.628,17.08z" fill="#92CBEE"/>
    <path d="M11.628,17.08c0.024,-0.024,0.049,-0.047,0.074,-0.071H3.617c-0.892,0,-1.617,-0.726,-1.617,-1.617V4.617C2,3.726,2.726,3,3.617,3h24.765c0.892,0,1.617,0.726,1.617,1.617v10.59l0.9,0.9c0.065,-0.227,0.1,-0.467,0.1,-0.715V4.617C31,3.174,29.826,2,28.383,2H3.617C2.174,2,1,3.174,1,4.617v10.775c0,1.443,1.174,2.617,2.617,2.617h7.082L11.628,17.08z" fill="#0964B0"/>
    <rect x="7.967" y="26.306" width="11.039" height="1.003" fill="#383838"/>
    <path d="M12.689,18.141c1.964,-1.964,4.435,-2.43,6.117,-0.748l3.221,-3.221c-1.145,-1.145,-0.452,-2.969,0.698,-4.119l7.515,7.515c-1.151,1.151,-2.975,1.843,-4.119,0.698L22.9,21.488c1.964,1.964,0.959,4.459,-0.724,6.141L12.689,18.141z" fill="#DFBCD9" stroke="#A0519F" stroke-width="1" stroke-linecap="round" stroke-miterlimit="1"/>
  </g>
</svg>
