<?xml version="1.0" encoding="UTF-8"?>
<!DOCTYPE svg PUBLIC "-//W3C//DTD SVG 1.1//EN" "http://www.w3.org/Graphics/SVG/1.1/DTD/svg11.dtd">
<svg version="1.1" id="Layer_1" xmlns="http://www.w3.org/2000/svg" xmlns:xlink="http://www.w3.org/1999/xlink" x="0px" y="0px" width="32px" height="32px" viewBox="0 0 32 32" enable-background="new 0 0 32 32" xml:space="preserve">
  <g id="icon">
    <path d="M3.033,14.5h17.933c0.847,0,1.533,-0.686,1.533,-1.533V7.033c0,-0.847,-0.686,-1.533,-1.533,-1.533H3.033C2.186,5.5,1.5,6.186,1.5,7.033v5.933C1.5,13.814,2.186,14.5,3.033,14.5z" fill="#FFFFFF" stroke="#ED8730" stroke-width="1" stroke-miterlimit="1"/>
    <path d="M11.033,26.5h17.933c0.847,0,1.533,-0.686,1.533,-1.533v-5.933c0,-0.847,-0.686,-1.533,-1.533,-1.533H11.033c-0.847,0,-1.533,0.686,-1.533,1.533v5.933C9.5,25.814,10.186,26.5,11.033,26.5z" fill="#FFFFFF" stroke="#228BCB" stroke-width="1" stroke-miterlimit="1"/>
  </g>
</svg>
