<?xml version="1.0" encoding="UTF-8"?>
<!DOCTYPE svg PUBLIC "-//W3C//DTD SVG 1.1//EN" "http://www.w3.org/Graphics/SVG/1.1/DTD/svg11.dtd">
<svg version="1.1" id="Layer_1" xmlns="http://www.w3.org/2000/svg" xmlns:xlink="http://www.w3.org/1999/xlink" x="0px" y="0px" width="24px" height="24px" viewBox="0 0 24 24" enable-background="new 0 0 24 24" xml:space="preserve">
  <g id="icon">
    <path d="M16.4607,8.2053c1.6731,-0.2947,3.1487,-0.5162,4.5502,0.6128c1.767,1.4235,1.7334,3.9337,1.7279,4.1979c-0.0054,0.2642,0.0735,6.3527,-0.0025,6.8138c-0.076,0.461,-0.2704,2.1111,-1.2014,2.0923s-1.2426,-1.9385,-1.2887,-2.9307c-0.0385,-0.8266,0.2692,-4.6125,-0.0288,-6.4773" fill="#FFFFFF" opacity="0.5"/>
    <path d="M21.9443,22.653c-0.012,0,-0.0241,-0.0001,-0.0363,-0.0004c-1.7292,-0.0333,-2.0485,-2.4607,-2.1059,-3.6273c-0.0112,-0.228,-0.0109,-0.6318,-0.0103,-1.1907c0.0013,-1.4462,-0.3966,-3.8668,-0.6226,-5.2052l0.6057,-0.6655c0.4136,-0.113,0.8354,0.152,0.9124,0.5738c0.2681,1.4689,0.6497,3.9694,0.6485,5.2982c-0.0005,0.498,-0.0008,0.9281,0.0087,1.1215c0.0793,1.614,0.4964,2.0824,0.6177,2.218c0.0739,-0.0626,0.2814,-0.3252,0.4514,-1.3579l0.0178,-0.1065c0.0494,-0.4027,0.0136,-4.2284,0.0001,-5.6685c-0.0063,-0.6712,-0.009,-0.9709,-0.0075,-1.0414c0.0054,-0.2458,0.0075,-2.4354,-1.5382,-3.6139c-1.165,-0.8882,-2.3599,-0.7672,-4.1894,-0.4622l-0.2678,-1.4392c1.7019,-0.2837,3.631,-0.6052,5.4258,0.7635c2.0757,1.5827,2.1246,4.2611,2.1133,4.7819c-0.0011,0.0598,0.003,0.4948,0.0077,0.9985c0.0381,4.0647,0.0326,5.6136,-0.0205,5.9191l-0.0157,0.0938C23.8325,20.6906,23.5096,22.653,21.9443,22.653z" fill="#6485C3"/>
    <path d="M9.3525,4.8224l-8.2394,7.718c-0.1994,0.1901,-0.3123,0.446,-0.3179,0.7204c-0.0057,0.2745,0.0966,0.5348,0.2881,0.7328l8.0128,8.2905c0.1969,0.2038,0.4621,0.3161,0.7465,0.3161c0.2684,0,0.5228,-0.1017,0.7165,-0.2863l9.364,-8.9301c0.1994,-0.1901,0.3123,-0.446,0.3179,-0.7204c0.0056,-0.2745,-0.0967,-0.5348,-0.2881,-0.7328l-8.2623,-8.4234" fill="#FFFFFF" opacity="0.5"/>
    <path d="M13.8794,11.3549c0,1.2015,-0.9679,2.179,-2.1576,2.179s-2.1576,-0.9775,-2.1576,-2.179c0,-0.7759,0.4049,-1.4565,1.0113,-1.8427L8.8326,0.2746L10.247,0l1.7346,9.1933C13.049,9.3235,13.8794,10.2423,13.8794,11.3549zM12.4392,11.3549c0,-0.3959,-0.3219,-0.718,-0.7174,-0.718s-0.7174,0.3221,-0.7174,0.718c0,0.3959,0.3219,0.7181,0.7174,0.7181S12.4392,11.7508,12.4392,11.3549z" fill="#7B7B7B"/>
    <path d="M9.6577,23.2c-0.5426,0,-1.0484,-0.2174,-1.4243,-0.612L0.5867,14.5621c-0.3661,-0.384,-0.5617,-0.8891,-0.5508,-1.422c0.0107,-0.5324,0.2265,-1.0288,0.6079,-1.3975l7.8006,-7.4124l0.4383,2.3233L2.013,13.1812l7.644,8.0229l8.9377,-8.645l-6.1229,-6.3265l-0.6695,-3.5485l8.2107,8.4916c0.3698,0.3878,0.5667,0.894,0.556,1.427c-0.0108,0.5326,-0.2266,1.029,-0.6076,1.3977l-8.9366,8.6452C10.655,23.0031,10.1695,23.2,9.6577,23.2z" fill="#7B7B7B"/>
  </g>
</svg>
