<?xml version="1.0" encoding="UTF-8"?>
<!DOCTYPE svg PUBLIC "-//W3C//DTD SVG 1.1//EN" "http://www.w3.org/Graphics/SVG/1.1/DTD/svg11.dtd">
<svg version="1.1" id="Layer_1" xmlns="http://www.w3.org/2000/svg" xmlns:xlink="http://www.w3.org/1999/xlink" x="0px" y="0px" width="24px" height="24px" viewBox="0 0 24 24" enable-background="new 0 0 24 24" xml:space="preserve">
  <g id="icon">
    <path d="M19.7531,16.2605c-1.4247,2.0002,-4.6366,5.924,-5.8836,6.7325c-2.8198,1.8284,-15.6639,-6.5473,-12.9518,-7.6327s5.6547,-4.8469,7.3414,-7.215" fill="#FFFFFF" opacity="0.4"/>
    <path d="M18.9658,17.4423c-1.4247,2.0002,-3.8494,4.7421,-5.0963,5.5507c-2.8198,1.8284,-15.5719,-6.3406,-12.9518,-7.6327c0.571,-0.2816,0.8859,-0.4392,1.2008,-0.7543" fill="#6485C3" opacity="0.4"/>
    <path d="M19.674,16.0196L8.7647,8.165c0.2694,-0.3665,0.256,-0.3469,1.5111,-1.9192c0,0,3.7704,2.7825,4.4388,1.7257c0.871,-1.3774,1.1647,-3.0663,1.8152,-4.5418c0.6646,-1.5075,1.9487,-3.0112,3.7767,-2.6113c0.5805,0.127,1.0617,0.3477,1.4574,0.6451c0.4259,0.2864,0.7781,0.659,1.0885,1.1651c0.9776,1.5938,-0.0239,3.3,-1.2317,4.4214c-1.1823,1.0976,-2.6845,1.9306,-3.7017,3.2042c-0.7804,0.9772,3.1973,3.8119,3.1973,3.8119S19.9071,15.6819,19.674,16.0196z" fill="#FFFFFF" opacity="0.5"/>
    <path d="M12.7856,24c-2.3662,0,-5.8392,-1.9101,-7.2225,-2.7313c-1.72,-1.021,-5.7049,-3.5953,-5.5592,-5.4445c0.0198,-0.2509,0.1479,-0.867,0.9088,-1.1704c1.9818,-0.79,4.5033,-3.1798,6.918,-6.5566L8.1147,7.7l1.4218,1.0103l-0.2839,0.3971c-2.5215,3.5262,-5.1385,6.0139,-7.3959,7.0363c0.309,0.4567,1.209,1.3668,2.8295,2.4943c1.4479,-0.6706,3.8775,-2.2117,3.9025,-2.2276l0.2603,0.2837c-0.0676,0.0871,-1.5677,2.0163,-2.5907,2.9603c0.0653,0.0395,0.1313,0.0791,0.1984,0.119c0.6792,0.4032,1.3643,0.7743,2.038,1.1039c1.7451,-0.8715,5.3054,-3.2236,5.3417,-3.2477l0.2521,0.2949c-0.0245,0.0264,-2.3286,2.5053,-3.7325,3.7609c1.0078,0.3745,1.8511,0.5715,2.4521,0.5715c0.3531,0,0.5155,-0.0709,0.5809,-0.1132c1.0134,-0.6545,3.7486,-4.2761,5.205,-6.3128l0.284,-0.3973L20.3,16.4442l-0.2839,0.397c-1.5366,2.1488,-4.3174,5.8849,-5.6774,6.7632C13.9323,23.8669,13.4098,24,12.7856,24z" fill="#6485C3"/>
    <path d="M7.6462,8.4067l0.6327,-0.8658c0.2457,-0.3363,0.2629,-0.358,1.1632,-1.4922l0.9377,-1.1812l0.8185,0.6069c1.1229,0.8327,2.3322,1.484,2.8856,1.6441c0.3421,-0.6331,0.5791,-1.3569,0.829,-2.1205c0.1938,-0.592,0.394,-1.2037,0.6541,-1.7972C16.4589,1.1667,17.9197,0,19.5749,0c0.2594,0,0.5238,0.0292,0.7859,0.0869c0.6764,0.1487,1.276,0.4162,1.7822,0.7949c0.5189,0.3541,0.953,0.8214,1.3204,1.4237c1.0486,1.7194,0.5416,3.8039,-1.3564,5.576c-0.4736,0.4422,-0.9824,0.8323,-1.4745,1.2095c-0.6373,0.4888,-1.2412,0.952,-1.7248,1.485c0.3359,0.4994,1.3945,1.5134,2.6129,2.3874l0.8812,0.6321l-0.6485,0.8717c-0.3182,0.4278,-1.1814,1.5924,-1.3514,1.8403L19.7895,17.2L7.6462,8.4067zM18.6978,14.8229c0.0444,-0.0603,0.6891,-0.7209,0.7333,-0.7808c-1.6759,-1.3363,-2.5873,-2.4593,-2.7095,-3.3395c-0.0619,-0.4457,0.0458,-0.858,0.3113,-1.1924c0.6773,-0.8528,1.5113,-1.4924,2.3179,-2.1109c0.4743,-0.3638,0.9217,-0.7071,1.3184,-1.0774c0.5294,-0.4943,1.6858,-1.7667,0.9925,-2.9036c-0.2121,-0.3477,-0.4429,-0.5989,-0.7265,-0.7907l-0.0379,-0.0269c-0.2718,-0.2054,-0.6027,-0.3508,-0.9878,-0.4355c-0.1104,-0.0242,-0.2204,-0.0365,-0.3272,-0.0365c-1.1143,0,-1.8265,1.3503,-2.0809,1.9308c-0.2187,0.4988,-0.3943,1.0354,-0.5803,1.6034c-0.3169,0.968,-0.6446,1.969,-1.2244,2.8913c-0.2316,0.3684,-0.5896,0.6076,-1.0354,0.6919c-0.105,0.0199,-0.2182,0.0299,-0.3364,0.0299c-1.0438,0,-2.4759,-0.7949,-3.5453,-1.5037c-0.0516,0.065,-0.6988,0.7246,-0.7422,0.7794L18.6978,14.8229z" fill="#7B7B7B"/>
  </g>
</svg>
