<?xml version="1.0" encoding="UTF-8"?>
<!DOCTYPE svg PUBLIC "-//W3C//DTD SVG 1.1//EN" "http://www.w3.org/Graphics/SVG/1.1/DTD/svg11.dtd">
<svg version="1.1" id="Layer_1" xmlns="http://www.w3.org/2000/svg" xmlns:xlink="http://www.w3.org/1999/xlink" x="0px" y="0px" width="24px" height="24px" viewBox="0 0 24 24" enable-background="new 0 0 24 24" xml:space="preserve">
  <g id="icon">
    <polygon points="5,17 2,17 2,2 11,2 11,5.025 14,5 14,9 16,9 16,4.5 11.525,0 0,0 0,19 5,19" fill="#7B7B7B" stroke-linejoin="miter"/>
    <polygon points="5,9 14,9 14,5 11,5.025 11,2 2,2 2,17 5,17" fill="#FFFFFF" stroke-linejoin="miter" opacity="0.5"/>
    <path d="M5,10H3v1h2V10zM5,12H3v1h2V12zM5,14H3v1h2V14z" fill="#B7B7B7"/>
    <path d="M10,5H3V4h7V5zM10,6H3v1h7V6z" fill="#6485C3"/>
    <path d="M23,11H7v12h16V11z" fill="#FFFFFF" opacity="0.5"/>
    <path d="M6,24V10h18v14H6zM22,22V12H8v10H22z" fill="#EEAC55"/>
    <path d="M21,17h-3v-3h3V17zM19,16h1v-1h-1V16z" fill="#CB525D"/>
    <path d="M16.5,15H9v-1h7.5V15zM17,17h-7v1h7V17zM16,19h-6v1h6V19z" fill="#6D6E71"/>
  </g>
</svg>
