<?xml version="1.0" encoding="UTF-8"?>
<!DOCTYPE svg PUBLIC "-//W3C//DTD SVG 1.1//EN" "http://www.w3.org/Graphics/SVG/1.1/DTD/svg11.dtd">
<svg version="1.1" id="Layer_1" xmlns="http://www.w3.org/2000/svg" xmlns:xlink="http://www.w3.org/1999/xlink" x="0px" y="0px" width="24px" height="24px" viewBox="0 0 24 24" enable-background="new 0 0 24 24" xml:space="preserve">
  <g id="icon">
    <rect x="4.3" y="6.2" width="18.5" height="15.5" fill="#FFFFFF" opacity="0.5" transform="matrix(-1.83697e-16 1 -1 -1.83697e-16 27.5 0.4)"/>
    <path d="M5,24V4h17v20H5zM20,22V6H7v16H20z" fill="#7B7B7B"/>
    <path d="M2,4h2v1H3v18h1v1H2H1v-1h1V5H1V4H2zM21,0v1H6V0H5v1v2h1V2h15v1h1V1V0H21z" fill="#6485C3"/>
  </g>
</svg>
