<?xml version="1.0" encoding="UTF-8"?>
<!DOCTYPE svg PUBLIC "-//W3C//DTD SVG 1.1//EN" "http://www.w3.org/Graphics/SVG/1.1/DTD/svg11.dtd">
<svg version="1.1" id="Layer_1" xmlns="http://www.w3.org/2000/svg" xmlns:xlink="http://www.w3.org/1999/xlink" x="0px" y="0px" width="24px" height="24px" viewBox="0 0 24 24" enable-background="new 0 0 24 24" xml:space="preserve">
  <g id="icon">
    <path d="M2.2873,20.8766l1.3523,-1.3479H2.4088C1.0806,19.5287,0,18.4437,0,17.1102v-3.9278h1.9448v3.9278c0,0.2569,0.2081,0.4658,0.4639,0.4658h1.1106l-1.2322,-1.2282l1.3703,-1.3858l3.6618,3.6503l-3.6619,3.6502L2.2873,20.8766zM6.6246,7.2762H3.2472l-1.211,2.9234L0.3637,9.5013L4.009,0.7034c0.0179,-0.0385,0.062,-0.1447,0.062,-0.1447L4.3037,0l1.2818,0.0015l0.2251,0.5781c0.0065,0.0166,0.0354,0.0917,0.0507,0.1254l0.0123,0.028l3.6356,8.7678L7.837,10.2L6.6246,7.2762zM5.8705,5.4575l-0.9354,-2.2558l-0.9344,2.2558H5.8705zM11.8855,13.7015l0.2251,0.5781c0.0065,0.0166,0.0354,0.0917,0.0507,0.1254l0.0123,0.028l3.6356,8.7678L14.137,23.9l-1.2123,-2.9238H9.5472l-1.211,2.9234l-1.6725,-0.6984l3.6453,-8.7979c0.0179,-0.0385,0.062,-0.1447,0.062,-0.1447l0.2327,-0.5587M12.1705,19.1575l-0.9354,-2.2558l-0.9344,2.2558H12.1705z" fill="#7B7B7B"/>
    <path d="M10.4142,10.0043V0.0013h3.0437c1.1161,0,1.9529,0.2379,2.5582,0.7271c0.6467,0.5229,0.9885,1.2892,0.9885,2.216c0,0.3399,-0.0671,0.6862,-0.1996,1.0292c-0.121,0.3129,-0.2949,0.6017,-0.5085,0.8461c0.0019,0.0015,0.0038,0.0029,0.0057,0.0044c0.3401,0.2594,0.6084,0.579,0.7977,0.9503c0.1983,0.3892,0.2907,0.7786,0.2907,1.2256c0,0.4741,-0.0838,0.879,-0.2637,1.2745c-0.1834,0.4031,-0.4545,0.7432,-0.8057,1.011c-0.3252,0.248,-0.7169,0.4344,-1.164,0.554c-0.4087,0.1093,-0.8688,0.1648,-1.3676,0.1648H10.4142zM13.7896,8.1856c0.3415,0,0.6447,-0.0348,0.9013,-0.1035c0.2183,-0.0583,0.3982,-0.1408,0.5349,-0.2449c0.112,-0.0854,0.195,-0.1896,0.2537,-0.3185c0.069,-0.1516,0.0998,-0.3116,0.0998,-0.5186c0,-0.1561,-0.0257,-0.2673,-0.0918,-0.3969c-0.0654,-0.1282,-0.1571,-0.2362,-0.2805,-0.3303c-0.1397,-0.1065,-0.3224,-0.192,-0.5432,-0.2542c-0.2511,-0.0706,-0.541,-0.1064,-0.8617,-0.1064h-1.5766v2.2734H13.7896zM13.5207,4.0935c0.3556,0,0.648,-0.0433,0.8692,-0.1288c0.2126,-0.0822,0.3799,-0.1811,0.4971,-0.294c0.0945,-0.0909,0.1759,-0.2169,0.2292,-0.3548c0.0511,-0.132,0.0769,-0.257,0.0769,-0.3713c0,-0.3625,-0.1053,-0.6314,-0.3131,-0.7994c-0.2593,-0.2096,-0.7644,-0.325,-1.4222,-0.325h-1.2323v2.2734H13.5207z" fill="#6485C3"/>
    <path d="M20.3441,23.9223c-0.6621,0,-1.1861,-0.1216,-1.7544,-0.3616c-0.5767,-0.2436,-1.083,-0.5992,-1.5049,-1.0571c-0.4165,-0.4519,-0.7429,-1.0008,-0.9704,-1.6315c-0.222,-0.6152,-0.3346,-1.3087,-0.3346,-2.0611c0,-0.7293,0.1127,-1.4103,0.3349,-2.0241c0.2275,-0.6285,0.5569,-1.1791,0.979,-1.6365c0.4276,-0.4634,0.9452,-0.8257,1.5385,-1.0769c0.5859,-0.2479,1.2344,-0.3737,1.9275,-0.3737c0.3162,0,0.6213,0.0252,0.9067,0.0751c0.2938,0.0514,0.577,0.13,0.8416,0.2336c0.2592,0.1013,0.5118,0.2276,0.7506,0.3753c0.2306,0.1429,0.4576,0.3086,0.675,0.4926l0.1735,0.1469l-1.1701,1.3945l-0.1736,-0.1468c-0.1497,-0.1266,-0.3038,-0.2393,-0.4581,-0.335c-0.1452,-0.0898,-0.2988,-0.1666,-0.4565,-0.2283c-0.153,-0.0599,-0.3191,-0.1057,-0.4937,-0.1362c-0.1828,-0.0319,-0.3832,-0.048,-0.5955,-0.048c-0.4495,0,-0.8606,0.0776,-1.222,0.2305c-0.3589,0.1519,-0.657,0.3599,-0.9116,0.6358c-0.2566,0.2782,-0.46,0.6215,-0.6044,1.0203c-0.1497,0.4133,-0.2257,0.8847,-0.2257,1.401c0,0.54,0.076,1.0246,0.226,1.4402c0.1444,0.4006,0.3448,0.7417,0.5958,1.0139c0.2485,0.2697,0.535,0.4707,0.8759,0.6146c0.3442,0.1453,0.6313,0.219,1.0504,0.219c0.2727,0,0.521,-0.0224,0.738,-0.0667c0.2152,-0.044,0.4122,-0.1042,0.5852,-0.1788c0.1714,-0.0741,0.3299,-0.1627,0.4709,-0.2633c0.1537,-0.1097,0.2998,-0.2328,0.4341,-0.366l0.1615,-0.1601l1.2761,1.2975l-0.1616,0.1602c-0.2038,0.202,-0.4252,0.3887,-0.6582,0.5549c-0.2453,0.1751,-0.5164,0.3272,-0.8058,0.4521c-0.2871,0.1239,-0.6035,0.2216,-0.9403,0.2904C21.1082,23.8876,20.7382,23.9223,20.3441,23.9223z" fill="#CB525D"/>
  </g>
</svg>
