<?xml version="1.0" encoding="UTF-8"?>
<!DOCTYPE svg PUBLIC "-//W3C//DTD SVG 1.1//EN" "http://www.w3.org/Graphics/SVG/1.1/DTD/svg11.dtd">
<svg version="1.1" id="Layer_1" xmlns="http://www.w3.org/2000/svg" xmlns:xlink="http://www.w3.org/1999/xlink" x="0px" y="0px" width="24px" height="24px" viewBox="0 0 24 24" enable-background="new 0 0 24 24" xml:space="preserve">
  <g id="icon">
    <g>
      <rect x="2.5" width="11" height="8.5" fill="#FFFFFF" opacity="0.5"/>
      <path d="M13,13.5136c-0.1145,-0.3146,-0.2126,-0.635,-0.2932,-0.9604c-0.1736,-0.7006,-0.3398,-1.6519,-0.0821,-2.5533H4v5h9V13.5136z" fill="#FFFFFF" opacity="0.5"/>
    </g>
    <path d="M12,2H4v1h8V2zM12,4H4v1h8V4z" fill="#CB525D"/>
    <path d="M5,14v-3h2v3H5zM12,16H4h-0.9402L0,12.9913V0h3v1v7h10V1V0h3v8.1041c-0.2158,-0.0634,-0.4591,-0.1038,-0.7317,-0.1038c-0.1442,0,-0.2922,0.0116,-0.4396,0.0345c-0.7656,0.1183,-1.4165,0.528,-1.833,1.1535c-0.1729,0.2598,-0.2915,0.5334,-0.371,0.8116H4v5h9v-1.4864c0.1967,0.5405,0.4424,1.0637,0.7354,1.5641c-0.0811,0.301,-0.1739,0.6082,-0.2777,0.9223H12zM2,2H1v1h1V2z" fill="#7B7B7B"/>
    <path d="M10.5786,24.0473c-0.442,0,-0.8283,-0.1682,-1.117,-0.4865c-0.2571,-0.2834,-0.3812,-0.6295,-0.359,-1.001c0.045,-0.7521,0.6557,-1.3413,1.2245,-1.8346l0.0634,-0.0552c0.8307,-0.7275,1.837,-1.3356,3.1642,-1.912c0.0769,-0.1751,0.1506,-0.3469,0.2221,-0.5134c0.5192,-1.2102,0.8913,-2.3042,1.1398,-3.3495c-0.0532,-0.081,-0.1049,-0.1626,-0.1551,-0.2451c-0.4493,-0.7374,-0.7813,-1.5318,-0.9868,-2.3614c-0.1771,-0.7149,-0.3556,-1.7508,0.137,-2.4909c0.2467,-0.3706,0.622,-0.6043,1.0853,-0.676c0.092,-0.0143,0.1833,-0.0215,0.2715,-0.0215c0.447,0,0.7558,0.1843,0.936,0.3389c0.5838,0.5008,0.6583,1.3577,0.658,2.0483c-0.0005,0.8638,-0.0507,1.6329,-0.1535,2.3511c-0.0333,0.2335,-0.0735,0.4729,-0.1194,0.7121c0.6697,0.8709,1.5,1.6447,2.3647,2.4241c0.2122,-0.0529,0.4289,-0.1056,0.6507,-0.1582c0.5265,-0.1246,1.1809,-0.2795,1.8579,-0.2795c0.4892,0,0.919,0.0788,1.3143,0.2408c0.8582,0.3519,1.1438,0.8903,1.2322,1.2801c0.0932,0.4102,0.0249,0.8194,-0.1921,1.1523c-0.2202,0.3376,-0.5746,0.5688,-0.9979,0.651c-0.257,0.05,-0.5246,0.0753,-0.7953,0.0753c-1.5943,0,-2.9246,-0.8485,-3.4602,-1.2462c-1.1082,0.2968,-2.0974,0.6102,-3.0228,0.9576c-0.3172,0.1191,-0.5773,0.2198,-0.8146,0.3152c-0.4687,1.0064,-1.1453,2.2721,-2.232,3.2187c-0.6406,0.5581,-1.3209,0.8654,-1.9156,0.8654H10.5786zM12.1384,21.291c-0.2596,0.1785,-0.5,0.3644,-0.7182,0.5555l-0.0688,0.0598c-0.2724,0.2363,-0.4376,0.4037,-0.5376,0.5207c0.1662,-0.0695,0.3986,-0.2019,0.6536,-0.424C11.7019,21.7988,11.9237,21.5636,12.1384,21.291zM20.85,18.1534c0.4123,0.1432,0.8181,0.218,1.1891,0.218h0.0001c0.1287,0,0.2545,-0.0089,0.3754,-0.0266c-0.0455,-0.0319,-0.1178,-0.0741,-0.2306,-0.1203c-0.2032,-0.0833,-0.4393,-0.1238,-0.7217,-0.1238C21.2792,18.1007,21.0798,18.1177,20.85,18.1534zM16.1223,16.411c-0.1548,0.504,-0.3375,1.0272,-0.5446,1.5603c0.5103,-0.1794,1.0341,-0.3482,1.5911,-0.5126C16.7645,17.0782,16.4263,16.7397,16.1223,16.411zM15.2078,10.6739c-0.0289,0.0579,-0.1355,0.3513,0.0844,1.239c0.0006,0.0023,0.0012,0.0046,0.0017,0.0069c0.0033,-0.1418,0.0049,-0.2864,0.005,-0.433C15.2991,10.9843,15.2436,10.7638,15.2078,10.6739z" fill="#CB525D"/>
  </g>
</svg>
