<?xml version="1.0" encoding="UTF-8"?>
<!DOCTYPE svg PUBLIC "-//W3C//DTD SVG 1.1//EN" "http://www.w3.org/Graphics/SVG/1.1/DTD/svg11.dtd">
<svg version="1.1" id="Layer_1" xmlns="http://www.w3.org/2000/svg" xmlns:xlink="http://www.w3.org/1999/xlink" x="0px" y="0px" width="24px" height="24px" viewBox="0 0 24 24" enable-background="new 0 0 24 24" xml:space="preserve">
  <g id="icon">
    <path d="M21.4068,24c-0.3642,0,-0.9429,-0.1014,-1.6316,-0.5843c-0.396,-0.2778,-0.9912,-0.7916,-1.6272,-2.0546c-0.5416,0.3299,-1.0027,0.5776,-1.3444,0.7612c-1.1155,0.5993,-2.2846,1.1194,-3.4766,1.5471l-0.2061,0.0739l-0.6537,-1.8185l0.2062,-0.0738c1.1021,-0.3955,2.1831,-0.8764,3.2126,-1.4295c0.3903,-0.2096,0.9202,-0.4942,1.5503,-0.8941c-0.1343,-0.4475,-0.2572,-0.9293,-0.3657,-1.4333c-0.1857,-0.8618,-0.3177,-1.7404,-0.4035,-2.686c-0.0068,-0.075,-0.0133,-0.1501,-0.0194,-0.2254h-4.1542v-1.9322h4.0707c-0.0045,-0.8214,0.0301,-1.6545,0.1028,-2.4781l0.0192,-0.2179l1.9261,0.1697l-0.0192,0.218c-0.0676,0.7686,-0.0996,1.5446,-0.0952,2.3083h2.4018l-1.3153,-1.5215l1.4636,-1.2628l1.5724,1.819l-1.1189,0.9653h1.751v1.9322h-4.6641c0.0015,0.0169,0.003,0.0339,0.0045,0.0508c0.0787,0.8666,0.1991,1.6693,0.3681,2.4542c0.0468,0.2174,0.0974,0.4332,0.1509,0.6436c0.8196,-0.6552,1.5937,-1.3849,2.301,-2.1692l0.1464,-0.1625l1.4368,1.2933l-0.1467,0.1625c-0.7854,0.871,-1.6464,1.6813,-2.5591,2.4083c-0.1719,0.137,-0.3479,0.2727,-0.524,0.4042c0.0077,0.0166,0.0154,0.033,0.0231,0.0491c0.478,1.0059,0.8548,1.3477,1.0967,1.5173c0.3238,0.2271,0.5043,0.2336,0.5238,0.2336c0.1284,-0.0105,0.2612,-0.0875,0.3982,-0.2351c0.2587,-0.2789,0.2624,-0.6736,0.2573,-0.788l-0.0098,-0.2187l1.9319,-0.0857l0.0096,0.2187c0.0173,0.3891,-0.0232,1.3813,-0.7711,2.1875c-0.591,0.6364,-1.2284,0.8119,-1.6591,0.847C21.5169,23.9976,21.4636,24,21.4068,24z" fill="#7B7B7B"/>
    <path d="M8.0553,8.9563H3.2702L1.755,12.601l-1.7858,-0.7412L4.8994,0h1.4297l5.0813,11.8856l-1.7782,0.7589L8.0553,8.9563zM7.2294,7.0241L5.6292,3.2814L4.0733,7.0241H7.2294z" fill="#7B7B7B"/>
    <path d="M5.5866,22.5763l1.6271,-1.6157H3.8203c-1.238,0,-2.2452,-1.0063,-2.2452,-2.2433v-3.1746h1.5337v3.1746c0,0.3921,0.3191,0.711,0.7114,0.711h3.2744l-1.5081,-1.4976l1.0812,-1.0868l3.4333,3.4095l-3.4333,3.4096L5.5866,22.5763z" fill="#6485C3"/>
    <path d="M21.0202,8.5068V5.3306c0,-0.3912,-0.3185,-0.7095,-0.71,-0.7095h-3.3236l1.5857,1.5747l-1.081,1.0867L14.0579,3.873l3.4334,-3.4096l1.081,1.0868L17.0228,3.089h3.2875c1.2372,0,2.2438,1.0056,2.2438,2.2416v3.1762H21.0202z" fill="#6485C3"/>
  </g>
</svg>
