<?xml version="1.0" encoding="UTF-8"?>
<!DOCTYPE svg PUBLIC "-//W3C//DTD SVG 1.1//EN" "http://www.w3.org/Graphics/SVG/1.1/DTD/svg11.dtd">
<svg version="1.1" id="Layer_1" xmlns="http://www.w3.org/2000/svg" xmlns:xlink="http://www.w3.org/1999/xlink" x="0px" y="0px" width="16px" height="16px" viewBox="0 0 16 16" enable-background="new 0 0 16 16" xml:space="preserve">
  <g id="icon">
    <polygon points="15.5,15.5 3.5,15.5 3.5,0.5 11.1333,0.5 15.5,4.9571" fill="#FFFFFF" stroke-linejoin="miter" opacity="0.5"/>
    <polygon points="11.3437,0 3,0 3,8.5 4,8.5 4,1 11,1 11,5 15,5 15,15 7,15 7,16 16,16 16,4.7533" fill="#6E6F72" stroke-linejoin="miter"/>
    <path d="M3.3366,15.9101c-0.7515,0,-1.3414,-0.2693,-1.7532,-0.8003c-0.3986,-0.514,-0.6007,-1.2448,-0.6007,-2.172c0,-0.5793,0.096,-1.0962,0.2854,-1.5362c0.1941,-0.4509,0.4803,-0.8047,0.8506,-1.0514c0.3723,-0.2479,0.8144,-0.3736,1.314,-0.3736c0.5241,0,0.9905,0.1132,1.3864,0.3364l0.1458,0.0823l-0.3787,0.8865l-0.1925,-0.1044c-0.3231,-0.1753,-0.6487,-0.2642,-0.9675,-0.2642c-0.4524,0,-0.7994,0.1688,-1.0607,0.5161c-0.272,0.3614,-0.41,0.8714,-0.41,1.5159c0,0.6646,0.1328,1.1799,0.3945,1.5315c0.2506,0.3367,0.6005,0.5005,1.0698,0.5005c0.3041,0,0.6592,-0.0652,1.0555,-0.1936l0.2573,-0.0834v0.9327l-0.1148,0.0497C4.2695,15.8336,3.8384,15.9101,3.3366,15.9101z" fill="#6486C4"/>
    <path d="M3.3366,15.9538c-0.7249,0,-1.2931,-0.2696,-1.689,-0.8015c-0.3881,-0.5213,-0.5849,-1.2665,-0.5849,-2.2147c0,-0.593,0.094,-1.121,0.2793,-1.5696c0.1881,-0.4553,0.4648,-0.8119,0.8223,-1.06c0.3586,-0.2488,0.7854,-0.375,1.2684,-0.375c0.5096,0,0.9625,0.1142,1.3459,0.3395l0.086,0.0505l-0.3179,0.7754l-0.1135,-0.0642c-0.3353,-0.1895,-0.6741,-0.2856,-1.0068,-0.2856c-0.4799,0,-0.8481,0.1867,-1.1256,0.5707c-0.2821,0.3904,-0.4251,0.9374,-0.4251,1.626c0,0.7093,0.1377,1.2617,0.4094,1.6419c0.2667,0.3733,0.6379,0.5548,1.1349,0.5548c0.3127,0,0.6764,-0.0692,1.0811,-0.2059l0.1518,-0.0512v0.8085l-0.0677,0.0306C4.247,15.8765,3.827,15.9538,3.3366,15.9538z" fill="#6486C4"/>
  </g>
</svg>
