<?xml version="1.0" encoding="UTF-8"?>
<!DOCTYPE svg PUBLIC "-//W3C//DTD SVG 1.1//EN" "http://www.w3.org/Graphics/SVG/1.1/DTD/svg11.dtd">
<svg version="1.1" id="Layer_1" xmlns="http://www.w3.org/2000/svg" xmlns:xlink="http://www.w3.org/1999/xlink" x="0px" y="0px" width="16px" height="16px" viewBox="0 0 16 16" enable-background="new 0 0 16 16" xml:space="preserve">
  <g id="icon">
    <polygon points="15.5,15.5 3.5,15.5 3.5,0.5 11.1333,0.5 15.5,4.9571" fill="#FFFFFF" stroke-linejoin="miter" opacity="0.5"/>
    <polygon points="11.3437,0 3,0 3,8.5 4,8.5 4,1 11,1 11,5 15,5 15,15 13.5,15 13.5,16 16,16 16,4.7533" fill="#6E6F72" stroke-linejoin="miter"/>
    <path d="M5.4476,15.9053c-0.5864,0,-1.0494,-0.0915,-1.3761,-0.2722l-0.0952,-0.0526v-1.0093l0.2761,0.1347c0.1786,0.0871,0.3763,0.1569,0.5876,0.2075c0.2101,0.0504,0.4209,0.076,0.6268,0.076c0.3128,0,0.5459,-0.0645,0.6927,-0.1916c0.1431,-0.1239,0.2127,-0.2968,0.2127,-0.5285c0,-0.1568,-0.0256,-0.2833,-0.0761,-0.376c-0.0503,-0.0923,-0.1399,-0.1816,-0.2663,-0.2654c-0.1414,-0.0936,-0.3647,-0.2034,-0.6635,-0.3264c-0.4656,-0.1923,-0.8063,-0.4279,-1.0126,-0.7003c-0.2101,-0.2772,-0.3166,-0.6381,-0.3166,-1.0726c0,-0.4668,0.1568,-0.8461,0.4661,-1.1274c0.3065,-0.2786,0.7125,-0.4198,1.2069,-0.4198c0.4945,0,0.9564,0.1066,1.3729,0.3168l0.1383,0.0697l-0.2792,0.9003l-0.2029,-0.0984c-0.3579,-0.1735,-0.7084,-0.2615,-1.0418,-0.2615c-0.2378,0,-0.422,0.056,-0.5474,0.1665c-0.1224,0.1079,-0.1819,0.2587,-0.1819,0.4611c0,0.159,0.0239,0.2874,0.071,0.3816c0.0458,0.0917,0.1278,0.1795,0.2437,0.2609c0.1299,0.0915,0.3367,0.1959,0.6146,0.3106c0.5263,0.2167,0.8827,0.4482,1.0896,0.7077c0.2098,0.2633,0.3162,0.6043,0.3162,1.0133c0,0.5265,-0.1713,0.946,-0.5092,1.247C6.4602,15.7545,6.0072,15.9053,5.4476,15.9053zM8.081,15.8314v-5.7723h1.625c0.7839,0,1.4042,0.2573,1.8438,0.7649c0.4309,0.4975,0.6493,1.1938,0.6493,2.0695c0,0.9331,-0.2271,1.6617,-0.6749,2.1656c-0.4554,0.5125,-1.1134,0.7723,-1.9559,0.7723H8.081zM9.4785,14.9229c0.5878,0,1.0317,-0.1645,1.3191,-0.4888c0.2952,-0.333,0.4448,-0.8438,0.4448,-1.5184c0,-0.6585,-0.1401,-1.1558,-0.4164,-1.4783c-0.271,-0.3161,-0.6699,-0.4698,-1.2194,-0.4698h-0.6012v3.9553H9.4785zM0.0311,15.8314v-5.7723h1.404c1.2727,0,1.9453,0.6079,1.9453,1.758c0,0.597,-0.1832,1.0664,-0.5445,1.3954c-0.3584,0.3265,-0.8696,0.492,-1.5193,0.492H0.9556v2.1268H0.0311zM1.2557,12.7998c0.4332,0,0.7437,-0.0758,0.9228,-0.2253c0.1713,-0.1429,0.2582,-0.3878,0.2582,-0.7278c0,-0.3019,-0.0812,-0.525,-0.2414,-0.6633c-0.166,-0.1432,-0.4423,-0.2158,-0.8211,-0.2158H0.9556v1.8323H1.2557z" fill="#6486C4"/>
  </g>
</svg>
