<?xml version="1.0" encoding="UTF-8"?>
<!DOCTYPE svg PUBLIC "-//W3C//DTD SVG 1.1//EN" "http://www.w3.org/Graphics/SVG/1.1/DTD/svg11.dtd">
<svg version="1.1" id="Layer_1" xmlns="http://www.w3.org/2000/svg" xmlns:xlink="http://www.w3.org/1999/xlink" x="0px" y="0px" width="16px" height="16px" viewBox="0 0 16 16" enable-background="new 0 0 16 16" xml:space="preserve">
  <g id="icon">
    <path d="M16,15h-5.5v-1h5.5V15zM5.5,15H0v-1h5.5V15zM8.5,13.5H7.5v-2.5h1V13.5z" fill="#6D6E71"/>
    <path d="M10,16H6v-2h4V16z" fill="#EEAC55"/>
    <polygon points="14,5 10,5 10,1 9,1 9,6 9.4,6 10,6 14,6" fill="#FFFFFF" stroke-linejoin="miter" opacity="0.5"/>
    <path d="M10,1h0.05L14,4.9375V5h-4V1zM10,6h-0.6h-0.4V1H2v10h12V6H10z" fill="#6D6E71"/>
  </g>
</svg>
