<?xml version="1.0" encoding="UTF-8"?>
<!DOCTYPE svg PUBLIC "-//W3C//DTD SVG 1.1//EN" "http://www.w3.org/Graphics/SVG/1.1/DTD/svg11.dtd">
<svg version="1.1" id="Layer_1" xmlns="http://www.w3.org/2000/svg" xmlns:xlink="http://www.w3.org/1999/xlink" x="0px" y="0px" width="16px" height="16px" viewBox="0 0 16 16" enable-background="new 0 0 16 16" xml:space="preserve">
  <g id="icon">
    <polygon points="15.5,15.5 3.5,15.5 3.5,0.5 11.1333,0.5 15.5,4.9571" fill="#FFFFFF" stroke-linejoin="miter" opacity="0.5"/>
    <polygon points="11.3437,0 3,0 3,8.5 4,8.5 4,1 11,1 11,5 15,5 15,15 15,15 15,16 16,16 16,4.7533" fill="#6E6F72" stroke-linejoin="miter"/>
    <path d="M13.3967,15.8356l-0.583,-1.7199h-1.5934l-0.5766,1.7199h-0.962l1.9791,-5.8041h0.741l1.9688,5.8041H13.3967zM12.5205,13.1755c0,0,-0.4818,-1.4819,-0.49,-1.5076c-0.0072,0.024,-0.0146,0.0482,-0.0221,0.0725l-0.4719,1.4351H12.5205zM8.0201,15.8356v-1.2428H5.7427v-0.7741l2.306,-3.7945h0.8707V13.66h0.6951v0.9329h-0.6951v1.2428H8.0201zM8.0201,13.66v-1.6104c0,-0.1222,0.0013,-0.2508,0.0039,-0.3848L6.8092,13.66H8.0201zM4.1197,15.8356c0,0,0,-3.7046,0,-3.7213l-1.2452,3.7213h-0.7236L0.9188,12.1182c0.0001,0.03,0.0001,3.7174,0.0001,3.7174H0.0261v-5.7818h1.1574l1.3542,4.0729l1.3658,-4.0729h1.1506v5.7818H4.1197z" fill="#6486C4"/>
  </g>
</svg>
