<?xml version="1.0" encoding="UTF-8"?>
<!DOCTYPE svg PUBLIC "-//W3C//DTD SVG 1.1//EN" "http://www.w3.org/Graphics/SVG/1.1/DTD/svg11.dtd">
<svg version="1.1" id="Layer_1" xmlns="http://www.w3.org/2000/svg" xmlns:xlink="http://www.w3.org/1999/xlink" x="0px" y="0px" width="16px" height="16px" viewBox="0 0 16 16" enable-background="new 0 0 16 16" xml:space="preserve">
  <g id="icon">
    <path d="M9.1505,12.3517l-4.5047,1.7419c-0.441,0.1705,-0.8758,-0.2617,-0.7078,-0.7037l1.7203,-4.5274l5.5832,-5.5925L8.5333,0.5H0.5v15h12V9L9.1505,12.3517z" fill="#FFFFFF" opacity="0.5"/>
    <polygon points="12,9.5003 12,15 1,15 1,1 8,1 8,5 9.5143,5 11.5947,2.916 8.7437,0 0,0 0,16 13,16 13,8.4996" fill="#6E6F72" stroke-linejoin="miter"/>
    <path d="M6.9466,9.6951l6.9581,-6.9697c0.2999,-0.3007,0.786,-0.3006,1.0858,0.0002l0.2846,0.2856c0.3001,0.3011,0.2999,0.7894,-0.0005,1.0903L8.3137,11.067L6.1,11.923L6.9466,9.6951z" fill="#FFFFFF" opacity="0.5"/>
    <path d="M5.2342,12.7938l1.2829,-3.3763l7.0336,-7.0453c0.2394,-0.2399,0.5579,-0.3722,0.8967,-0.3722c0.0001,0,0.0001,0,0.0002,0c0.3389,0,0.6575,0.1324,0.8969,0.3728l0.2847,0.2856c0.4938,0.4955,0.4935,1.3014,-0.0009,1.7964l-7.0357,7.0404L5.2342,12.7938zM7.3759,9.9727l-0.4102,1.0794l1.069,-0.4134l6.8861,-6.8906c0.1055,-0.1057,0.1056,-0.2779,0,-0.3838l-0.2847,-0.2857c-0.0505,-0.0507,-0.1175,-0.0786,-0.1888,-0.0786c0,0,0,0,0,0c-0.0712,0,-0.1383,0.0279,-0.1888,0.0786L7.3759,9.9727z" fill="#6486C4"/>
    <rect x="12.7487" y="3.7793" width="1" height="1.8903" fill="#6486C4" transform="matrix(0.7179 -0.6962 0.6962 0.7179 0.4487 10.5561)"/>
  </g>
</svg>
