<?xml version="1.0" encoding="UTF-8"?>
<!DOCTYPE svg PUBLIC "-//W3C//DTD SVG 1.1//EN" "http://www.w3.org/Graphics/SVG/1.1/DTD/svg11.dtd">
<svg version="1.1" id="Layer_1" xmlns="http://www.w3.org/2000/svg" xmlns:xlink="http://www.w3.org/1999/xlink" x="0px" y="0px" width="16px" height="16px" viewBox="0 0 16 16" enable-background="new 0 0 16 16" xml:space="preserve">
  <g id="icon">
    <polygon points="11.5333,0.5 3.5,0.5 3.5,3 6,3 6,5 12.0366,5 10.3395,9.4691 12.0176,14 3.5,14 3.5,15.5 15.5,15.5 15.5,4.5571" fill="#FFFFFF" stroke-linejoin="miter" opacity="0.5"/>
    <polygon points="11.3437,0 3,0 3,3 4,3 4,1 11,1 11,5 12.0366,5 15,5 15,15 4,15 4,14 3,14 3,16 16,16 16,4.7533" fill="#6E6F72" stroke-linejoin="miter"/>
    <rect x="0.5" y="4.5" width="4" height="6" fill="#FFFFFF" opacity="0.5"/>
    <path d="M5,11H0V4h5V11zM1,10h3V5H1V10z" fill="#CC525E"/>
    <polygon points="9.8625,6.5 4.5,6.5 4.5,12.5 9.8625,12.5 8.7375,9.4625" fill="#FFFFFF" stroke-linejoin="miter" opacity="0.5"/>
    <path d="M10.5809,13H4V6h6.5872L9.2715,9.4647L10.5809,13zM5,12h4.1441l-0.9406,-2.5397L9.1378,7H5V12z" fill="#CC525E"/>
    <rect y="4" width="1" height="12" fill="#CB525D"/>
  </g>
</svg>
