<?xml version="1.0" encoding="UTF-8"?>
<!DOCTYPE svg PUBLIC "-//W3C//DTD SVG 1.1//EN" "http://www.w3.org/Graphics/SVG/1.1/DTD/svg11.dtd">
<svg version="1.1" id="Layer_1" xmlns="http://www.w3.org/2000/svg" xmlns:xlink="http://www.w3.org/1999/xlink" x="0px" y="0px" width="16px" height="16px" viewBox="0 0 16 16" enable-background="new 0 0 16 16" xml:space="preserve">
  <g id="icon">
    <polygon points="6.5,9.5 0.5,9.5 0.5,0.5 4.5333,0.5 6.5,2.5571" fill="#FFFFFF" stroke-linejoin="miter" opacity="0.5"/>
    <path d="M7,2.3544V10H0V0h4.7448L7,2.3544zM6,9V3H4V1H1v8H6z" fill="#6E6F72"/>
    <polygon points="15.5,9.5 9.5,9.5 9.5,0.5 13.5333,0.5 15.5,2.5571" fill="#FFFFFF" stroke-linejoin="miter" opacity="0.5"/>
    <path d="M16,2.3544V10H9V0h4.7448L16,2.3544zM15,9V3h-2V1h-3v8H15z" fill="#6E6F72"/>
    <path d="M12,16H4v-1h8V16zM12,12H4v1h8V12z" fill="#54B14E"/>
  </g>
</svg>
