<?xml version="1.0" encoding="UTF-8"?>
<!DOCTYPE svg PUBLIC "-//W3C//DTD SVG 1.1//EN" "http://www.w3.org/Graphics/SVG/1.1/DTD/svg11.dtd">
<svg version="1.1" id="Layer_1" xmlns="http://www.w3.org/2000/svg" xmlns:xlink="http://www.w3.org/1999/xlink" x="0px" y="0px" width="16px" height="16px" viewBox="0 0 16 16" enable-background="new 0 0 16 16" xml:space="preserve">
  <g id="icon">
    <polygon points="10.6541,10.9561 9.9492,11.6653 11.2923,13 2,13 2,14 11.219,14 9.9492,15.2619 10.6541,15.9711 13.1774,13.4636" fill="#CB525D" stroke-linejoin="miter"/>
    <path d="M5.5,3.5h6.5V2h-0.3L9.4892,0.5H5.5V3.5z" fill="#FFFFFF" opacity="0.5"/>
    <path d="M11.8546,1.5l-1.95,-1.5H5v8h11V1.5H11.8546zM9.4892,1l1.7694,1.361L10.3667,3H6V1H9.4892z" fill="#EEAC55"/>
    <rect x="1" y="3" width="3" height="2" fill="#FFFFFF" opacity="0.3"/>
    <polygon points="4,9 4,5 1,5 1,3 4,3 4,2 0,2 0,10 11,10 11,9" fill="#EEAC55" stroke-linejoin="miter" opacity="0.4"/>
  </g>
</svg>
