<?xml version="1.0" encoding="UTF-8"?>
<!DOCTYPE svg PUBLIC "-//W3C//DTD SVG 1.1//EN" "http://www.w3.org/Graphics/SVG/1.1/DTD/svg11.dtd">
<svg version="1.1" id="Layer_1" xmlns="http://www.w3.org/2000/svg" xmlns:xlink="http://www.w3.org/1999/xlink" x="0px" y="0px" width="16px" height="16px" viewBox="0 0 16 16" enable-background="new 0 0 16 16" xml:space="preserve">
  <g id="icon">
    <path d="M0.5,8.5h6.5V7h-0.3L4.4892,5.5H0.5V8.5z" fill="#FFFFFF" opacity="0.5"/>
    <path d="M6.8546,6.5l-1.95,-1.5H0v11h12V6.5H6.8546zM4.4892,6l1.7694,1.361L5.3667,8H1V6H4.4892z" fill="#EEAC55"/>
    <polygon points="11,2 10.7,2 8.4892,0.5 4.5,0.5 4.5,3.5 11,3.5" fill="#FFFFFF" stroke-linejoin="miter" opacity="0.5"/>
    <path d="M10.8546,1.5l-1.95,-1.5H4v4h1.2447l1.95,1.5H13v5.5h3V1.5H10.8546zM9.3667,3H5V1h3.4892l1.7694,1.361L9.3667,3z" fill="#EEAC55"/>
  </g>
</svg>
