<?xml version="1.0" encoding="UTF-8"?>
<!DOCTYPE svg PUBLIC "-//W3C//DTD SVG 1.1//EN" "http://www.w3.org/Graphics/SVG/1.1/DTD/svg11.dtd">
<svg version="1.1" id="Layer_1" xmlns="http://www.w3.org/2000/svg" xmlns:xlink="http://www.w3.org/1999/xlink" x="0px" y="0px" width="16px" height="16px" viewBox="0 0 16 16" enable-background="new 0 0 16 16" xml:space="preserve">
  <g id="icon">
    <path d="M12,16H4v-1h8V16zM12,12H4v1h8V12z" fill="#54B14E"/>
    <path d="M5.5,3.5h6.5V2h-0.3L9.4892,0.5H5.5V3.5z" fill="#FFFFFF" opacity="0.5"/>
    <path d="M11.8546,1.5l-1.95,-1.5H5v8h11V1.5H11.8546zM9.4892,1l1.7694,1.361L10.3667,3H6V1H9.4892z" fill="#EEAC55"/>
    <rect x="0.5" y="3.5" width="3.5" height="3" fill="#FFFFFF" opacity="0.5"/>
    <polygon points="4,9 4,6 1,6 1,4 4,4 4,3 0,3 0,11 11,11 11,9" fill="#EEAC55" stroke-linejoin="miter"/>
  </g>
</svg>
