<?xml version="1.0" encoding="UTF-8"?>
<!DOCTYPE svg PUBLIC "-//W3C//DTD SVG 1.1//EN" "http://www.w3.org/Graphics/SVG/1.1/DTD/svg11.dtd">
<svg version="1.1" id="Layer_1" xmlns="http://www.w3.org/2000/svg" xmlns:xlink="http://www.w3.org/1999/xlink" x="0px" y="0px" width="16px" height="16px" viewBox="0 0 16 16" enable-background="new 0 0 16 16" xml:space="preserve">
  <g id="icon">
    <path d="M16,15H0V1h7.2046l1.95,2H16V15zM1,14h14V4H8.7392l-1.95,-2H1V14z" fill="#EEAC55"/>
    <path d="M1,14h14V4H8.7392l-1.95,-2H1V14z" fill="#FFFFFF" opacity="0.5"/>
    <rect x="7" y="6" width="3" height="1" fill="#EEAD56"/>
    <rect x="7" y="4" width="3" height="1" fill="#EEAD56"/>
    <polygon points="9,8.7 8,8.7 8,2.8 9,3.5" fill="#EEAD56" stroke-linejoin="miter"/>
    <path d="M8.5,12.5L8.5,12.5c-0.7496,0,-1.3353,-0.6472,-1.2607,-1.3931L7.5,8.5h2l0.2607,2.6069C9.8353,11.8528,9.2496,12.5,8.5,12.5z" fill="#FFFFFF"/>
    <path d="M8.5,13c-0.4983,0,-0.9758,-0.2119,-1.3102,-0.5813c-0.3343,-0.3695,-0.4977,-0.8657,-0.448,-1.3615L7.0475,8h2.905l0.3057,3.0572c0.0496,0.4958,-0.1137,0.992,-0.448,1.3615C9.4758,12.7881,8.9983,13,8.5,13zM7.9525,9l-0.2157,2.1567c-0.0218,0.2184,0.0472,0.4282,0.1945,0.591S8.2805,12,8.5,12s0.4214,-0.0896,0.5687,-0.2523s0.2163,-0.3726,0.1945,-0.591L9.0475,9H7.9525z" fill="#EEAD56"/>
  </g>
</svg>
