<?xml version="1.0" encoding="UTF-8"?>
<!DOCTYPE svg PUBLIC "-//W3C//DTD SVG 1.1//EN" "http://www.w3.org/Graphics/SVG/1.1/DTD/svg11.dtd">
<svg version="1.1" id="Layer_1" xmlns="http://www.w3.org/2000/svg" xmlns:xlink="http://www.w3.org/1999/xlink" x="0px" y="0px" width="16px" height="16px" viewBox="0 0 16 16" enable-background="new 0 0 16 16" xml:space="preserve">
  <g id="icon">
    <path d="M0.5,15.5h11V7.5H7.7L5.4892,5.5H0.5V15.5z" fill="#FFFFFF" opacity="0.5"/>
    <path d="M12,16H0V5h5.9046l1.95,2H12V16zM1,15h10V8H7.4392l-1.95,-2H1V15z" fill="#EEAC55"/>
    <polygon points="11.7,2.5 9.4892,0.5 4.5,0.5 4.5,4 6.3262,4 8.2762,6 13,6 13,10.5 15.5,10.5 15.5,2.5" fill="#FFFFFF" stroke-linejoin="miter" opacity="0.5"/>
    <polygon points="11.8546,2 9.9046,0 4,0 4,4 5,4 5,1 9.4892,1 11.4392,3 15,3 15,10 13,10 13,11 16,11 16,2" fill="#EEAC55" stroke-linejoin="miter"/>
  </g>
</svg>
