<?xml version="1.0" encoding="UTF-8"?>
<!DOCTYPE svg PUBLIC "-//W3C//DTD SVG 1.1//EN" "http://www.w3.org/Graphics/SVG/1.1/DTD/svg11.dtd">
<svg version="1.1" id="Layer_1" xmlns="http://www.w3.org/2000/svg" xmlns:xlink="http://www.w3.org/1999/xlink" x="0px" y="0px" width="16px" height="16px" viewBox="0 0 16 16" enable-background="new 0 0 16 16" xml:space="preserve">
  <g id="icon">
    <path d="M3.239,16c-0.867,0,-1.681,-0.336,-2.292,-0.947c-0.612,-0.612,-0.948,-1.426,-0.947,-2.294c0.001,-0.868,0.338,-1.683,0.951,-2.296c0.612,-0.612,1.426,-0.949,2.293,-0.949c0.867,0,1.681,0.337,2.293,0.949c0.895,0.895,1.187,2.243,0.742,3.433l-0.051,0.135l-0.108,-0.096c-0.031,-0.028,-0.061,-0.056,-0.091,-0.086c-0.253,-0.253,-0.442,-0.568,-0.546,-0.912l-0.005,-0.017l0.001,-0.018c0.041,-0.642,-0.198,-1.272,-0.654,-1.729c-0.426,-0.426,-0.989,-0.66,-1.587,-0.66c-0.596,0,-1.157,0.233,-1.581,0.657c-0.874,0.874,-0.874,2.297,0,3.171c0.425,0.425,0.988,0.658,1.585,0.658c0.597,0,1.16,-0.234,1.585,-0.658l0.079,-0.079l0.069,0.088c0.083,0.106,0.17,0.205,0.259,0.293c0.088,0.088,0.187,0.175,0.292,0.259l0.087,0.069l-0.079,0.079C4.923,15.663,4.108,16,3.239,16z" fill="#238BCB"/>
    <path d="M7.569,15.55c-0.867,0,-1.681,-0.336,-2.292,-0.947c-0.894,-0.894,-1.185,-2.241,-0.741,-3.432l0.051,-0.136l0.108,0.097c0.03,0.027,0.06,0.055,0.089,0.084c0.254,0.254,0.443,0.57,0.547,0.915l0.005,0.017l-0.001,0.018c-0.04,0.642,0.198,1.271,0.653,1.726c0.425,0.425,0.988,0.658,1.585,0.658c0.598,0,1.161,-0.234,1.585,-0.658c0.743,-0.743,0.866,-1.921,0.294,-2.801l-0.06,-0.092l0.098,-0.05c0.233,-0.118,0.452,-0.264,0.651,-0.435l0.085,-0.073l0.061,0.094c0.833,1.278,0.655,2.987,-0.423,4.065C9.254,15.212,8.438,15.55,7.569,15.55zM5.838,10.714c-0.083,-0.106,-0.17,-0.204,-0.259,-0.293c-0.088,-0.088,-0.186,-0.175,-0.292,-0.259L5.2,10.093l0.078,-0.079c0.614,-0.614,1.428,-0.951,2.295,-0.951c0.622,0,1.225,0.176,1.745,0.508l0.118,0.076l-0.111,0.086c-0.307,0.237,-0.673,0.387,-1.057,0.434l-0.021,0.003l-0.02,-0.006c-0.216,-0.067,-0.438,-0.1,-0.659,-0.1c-0.596,0,-1.157,0.233,-1.581,0.657l-0.079,0.079L5.838,10.714z" fill="#ED8730"/>
    <path d="M7.998,11.244c-0.622,0,-1.225,-0.176,-1.745,-0.508l-0.118,-0.076l0.111,-0.086c0.307,-0.237,0.673,-0.387,1.057,-0.434l0.021,-0.003l0.02,0.006c0.216,0.067,0.438,0.1,0.659,0.1c0.596,0,1.157,-0.233,1.581,-0.657l0.079,-0.079l0.07,0.086c0.084,0.107,0.171,0.205,0.259,0.293c0.088,0.088,0.187,0.175,0.292,0.259l0.087,0.069l-0.079,0.079C9.679,10.907,8.865,11.244,7.998,11.244zM5.282,9.774c-0.833,-1.278,-0.655,-2.987,0.423,-4.065c0.613,-0.613,1.429,-0.95,2.298,-0.95c0.867,0,1.681,0.336,2.292,0.947c0.894,0.894,1.185,2.242,0.741,3.433l-0.051,0.136l-0.108,-0.096c-0.031,-0.027,-0.061,-0.055,-0.09,-0.085c-0.254,-0.254,-0.443,-0.57,-0.546,-0.915l-0.005,-0.017l0.001,-0.018c0.04,-0.642,-0.198,-1.271,-0.653,-1.727c-0.425,-0.425,-0.988,-0.658,-1.585,-0.658c-0.598,0,-1.161,0.234,-1.585,0.658c-0.743,0.743,-0.866,1.921,-0.294,2.801l0.06,0.092l-0.098,0.05c-0.233,0.118,-0.452,0.264,-0.651,0.435l-0.085,0.073L5.282,9.774z" fill="#78797A"/>
    <path d="M12.762,6.488c-0.611,0,-1.233,-0.181,-1.751,-0.51l-0.119,-0.076l0.112,-0.086c0.306,-0.235,0.669,-0.385,1.051,-0.432l0.021,-0.003l0.02,0.006c0.215,0.066,0.436,0.099,0.656,0.099c0.431,0,0.852,-0.125,1.217,-0.361c0.505,-0.326,0.853,-0.826,0.98,-1.409c0.127,-0.583,0.017,-1.182,-0.308,-1.687c-0.415,-0.644,-1.12,-1.029,-1.884,-1.029c-0.43,0,-0.85,0.124,-1.215,0.359c-0.505,0.325,-0.852,0.826,-0.978,1.411s-0.017,1.184,0.309,1.689l0.059,0.092l-0.097,0.051c-0.231,0.117,-0.45,0.263,-0.649,0.433l-0.086,0.074l-0.061,-0.095l0.075,-0.066l-0.083,0.054c-0.97,-1.505,-0.537,-3.518,0.966,-4.487C11.52,0.178,12.126,0,12.747,0c1.112,0,2.135,0.556,2.735,1.488c0.469,0.727,0.626,1.594,0.443,2.442c-0.183,0.848,-0.684,1.573,-1.411,2.041C13.99,6.309,13.384,6.488,12.762,6.488L12.762,6.488z" fill="#EF3E3B"/>
    <path d="M12.325,10.793c-0.867,0,-1.681,-0.336,-2.292,-0.947c-0.894,-0.894,-1.185,-2.242,-0.741,-3.433l0.051,-0.136l0.108,0.096c0.031,0.027,0.061,0.056,0.09,0.085c0.254,0.254,0.443,0.57,0.546,0.915l0.005,0.017l-0.001,0.018c-0.04,0.642,0.198,1.272,0.653,1.727c0.425,0.425,0.988,0.658,1.585,0.658c0.598,0,1.161,-0.234,1.585,-0.658c0.742,-0.743,0.866,-1.92,0.295,-2.8l-0.06,-0.092l0.098,-0.05c0.103,-0.052,0.203,-0.11,0.299,-0.171c0.12,-0.077,0.239,-0.166,0.353,-0.263l0.085,-0.073l0.061,0.094c0.831,1.277,0.653,2.986,-0.424,4.063C14.01,10.455,13.194,10.793,12.325,10.793zM10.595,5.957c-0.083,-0.107,-0.17,-0.205,-0.259,-0.294c-0.088,-0.088,-0.187,-0.175,-0.292,-0.259l-0.087,-0.069l0.079,-0.079c0.613,-0.613,1.427,-0.95,2.294,-0.95c0.621,0,1.223,0.175,1.743,0.507l0.119,0.076l-0.113,0.086c-0.051,0.039,-0.097,0.071,-0.142,0.1c-0.279,0.18,-0.588,0.292,-0.917,0.333l-0.021,0.003l-0.02,-0.006c-0.215,-0.066,-0.435,-0.099,-0.654,-0.099c-0.596,0,-1.157,0.233,-1.581,0.657l-0.079,0.079L10.595,5.957z" fill="#17AB4E"/>
  </g>
</svg>
