<?xml version="1.0" encoding="UTF-8"?>
<!DOCTYPE svg PUBLIC "-//W3C//DTD SVG 1.1//EN" "http://www.w3.org/Graphics/SVG/1.1/DTD/svg11.dtd">
<svg version="1.1" id="Layer_1" xmlns="http://www.w3.org/2000/svg" xmlns:xlink="http://www.w3.org/1999/xlink" x="0px" y="0px" width="16px" height="16px" viewBox="0 0 16 16" enable-background="new 0 0 16 16" xml:space="preserve">
  <g id="icon">
    <ellipse cx="8.05" cy="5.85" rx="3.15" ry="4.05" fill="#FFFFFF"/>
    <path d="M9.568,9.311c-0.332,0.33,-1.131,0.579,-1.543,0.579s-1.162,-0.246,-1.505,-0.579M9.073,3.866c0.119,0.115,0.231,0.235,0.358,0.341c0.1,0.083,0.219,0.147,0.329,0.22c0.052,0.035,0.1,0.074,0.155,0.105c0.391,0.223,0.714,0.375,1.17,0.444c0.057,0.009,0.07,0.031,0.074,0.077c0.047,0.531,0.018,1.478,-0.122,1.996c-0.237,0.876,-0.589,1.633,-1.394,2.194c-0.017,0.012,-0.028,0.05,-0.02,0.067c0.048,0.106,0.099,0.212,0.156,0.315c0.215,0.393,0.481,0.751,0.864,1.03c0,0,0.674,0.525,1.294,0.544c0.058,0.002,0.189,0.006,0.312,-0.064c0.072,-0.041,0.117,-0.094,0.155,-0.14c0.054,-0.065,0.084,-0.129,0.143,-0.255c0.113,-0.24,0.126,-0.331,0.129,-0.377c0.007,-0.117,0.008,-0.234,0.011,-0.351c0.005,-0.157,0.022,-0.314,0.013,-0.47c-0.039,-0.662,-0.073,-1.324,-0.133,-1.984c-0.056,-0.62,-0.034,-1.239,-0.117,-1.857c-0.06,-0.45,-0.13,-0.898,-0.148,-1.353c-0.017,-0.44,-0.19,-0.875,-0.328,-1.299c-0.21,-0.649,-0.572,-1.212,-1.149,-1.651c-0.468,-0.356,-1.016,-0.569,-1.592,-0.736c-0.547,-0.159,-1.105,-0.194,-1.67,-0.139c-0.418,0.04,-0.816,0.161,-1.206,0.3c-1.107,0.394,-1.845,1.101,-2.205,2.129c-0.182,0.52,-0.348,1.056,-0.375,1.597c-0.009,0.178,-0.016,0.357,-0.039,0.534c-0.035,0.273,-0.092,0.544,-0.124,0.817c-0.08,0.675,-0.062,1.35,-0.122,2.027c-0.068,0.763,-0.148,1.526,-0.072,2.293c0.006,0.06,-0.003,0.197,0.051,0.363c0.065,0.196,0.173,0.325,0.247,0.413c0.061,0.073,0.104,0.11,0.155,0.14c0.04,0.024,0.139,0.081,0.261,0.07c0.015,-0.001,0.033,0.002,0.062,-0.011c0.066,-0.029,0.142,-0.038,0.213,-0.059c0.506,-0.143,0.962,-0.363,1.326,-0.722c0.318,-0.315,0.538,-0.683,0.723,-1.072c0.026,-0.054,0.023,-0.083,-0.033,-0.121c-0.282,-0.188,-0.522,-0.416,-0.726,-0.674c-0.671,-0.852,-0.822,-2.232,-0.781,-3.265c0.001,-0.021,0.026,-0.052,0.048,-0.059c0.543,-0.18,0.876,-0.5,1.258,-0.881c0.139,-0.138,0.269,-0.285,0.387,-0.439c0.144,-0.187,0.271,-0.384,0.406,-0.576c0.016,-0.023,0.031,-0.046,0.05,-0.075c0.649,0.641,1.001,1.228,1.893,1.524c-0.011,-0.03,-0.031,-0.054,-0.047,-0.081c-0.099,-0.167,0.031,-0.82,0.055,-0.933C9.007,3.802,9.04,3.834,9.073,3.866z" fill="#FFFFFF" stroke="#383838" stroke-width="1" stroke-miterlimit="1"/>
    <path d="M14.47,16c0,-3.385,-2.908,-6.099,-6.494,-6.099S1.481,12.615,1.481,16" fill="#FFFFFF" stroke="#383838" stroke-width="1" stroke-miterlimit="1"/>
    <path d="M3.944,16h8.111c-0.098,-1.024,-0.314,-2.688,-0.208,-4.908c-0.405,-0.329,-0.852,-0.513,-1.332,-0.73c-0.928,2.177,-1.886,2.359,-2.314,2.358c-0.143,0,-0.238,0,-0.253,0c0.001,0,0.001,0,0.002,0c-0.427,0.001,-1.533,-0.209,-2.46,-2.377c-0.481,0.221,-0.93,0.409,-1.336,0.743C4.258,13.294,4.042,14.971,3.944,16z" fill="#FFFFFF"/>
    <path d="M3.442,16h1.004c0.011,-0.114,0.023,-0.237,0.037,-0.369c0.1,-0.993,0.25,-2.473,0.181,-4.327c0.179,-0.123,0.37,-0.224,0.576,-0.323c0.955,1.907,2.089,2.208,2.708,2.208c0.001,0,0.002,0,0.004,0c0.011,0,0.048,0,0.105,0c0.04,0,0.089,0.002,0.146,0c0.992,0,1.853,-0.737,2.566,-2.191c0.204,0.096,0.392,0.194,0.569,0.314c-0.071,1.864,0.079,3.336,0.18,4.324c0.013,0.13,0.026,0.251,0.036,0.363h1.004c-0.013,-0.139,-0.028,-0.29,-0.045,-0.453c-0.102,-1.004,-0.257,-2.521,-0.166,-4.434l0.011,-0.228l-0.183,-0.149c-0.415,-0.337,-0.863,-0.538,-1.297,-0.733l-0.627,-0.283l-0.199,0.467c-0.567,1.331,-1.224,2.063,-1.849,2.063c0,0,-0.001,0,-0.001,0c-0.142,0,-0.238,0,-0.254,0c-0.262,0,-1.168,-0.154,-1.993,-2.082l-0.2,-0.468l-0.617,0.283c-0.439,0.2,-0.893,0.406,-1.311,0.75l-0.181,0.149l0.011,0.226c0.089,1.901,-0.065,3.426,-0.167,4.435C3.471,15.708,3.455,15.86,3.442,16z" fill="#A0519F"/>
  </g>
</svg>
