<?xml version="1.0" encoding="UTF-8"?>
<!DOCTYPE svg PUBLIC "-//W3C//DTD SVG 1.1//EN" "http://www.w3.org/Graphics/SVG/1.1/DTD/svg11.dtd">
<svg version="1.1" id="Layer_1" xmlns="http://www.w3.org/2000/svg" xmlns:xlink="http://www.w3.org/1999/xlink" x="0px" y="0px" width="16px" height="16px" viewBox="0 0 16 16" enable-background="new 0 0 16 16" xml:space="preserve">
  <g id="icon">
    <path d="M14.5,16c0,-3.608,-2.91,-6.501,-6.5,-6.501S1.5,12.392,1.5,16" fill="#FCD8BB"/>
    <path d="M14.5,16c0,-3.608,-2.91,-6.501,-6.5,-6.501S1.5,12.392,1.5,16" fill="none" stroke="#AF6E41" stroke-width="1" stroke-miterlimit="1"/>
    <path d="M11.949,4.324c0,2.057,-1.775,5.118,-3.965,5.118S4.02,6.381,4.02,4.324S5.795,0.5,7.985,0.5S11.949,2.267,11.949,4.324z" fill="#FCD8BB"/>
    <path d="M11.949,4.324c0,2.057,-1.775,5.118,-3.965,5.118S4.02,6.381,4.02,4.324S5.795,0.5,7.985,0.5S11.949,2.267,11.949,4.324z" fill="none" stroke="#AF6E41" stroke-width="1" stroke-linecap="round" stroke-miterlimit="1"/>
    <path d="M11.953,3.667C9.888,1.785,9,3.212,7.958,3.212c-1.043,0,-1.828,-1.462,-3.895,0.46C4.4,1.906,6.038,0.5,8.008,0.5C9.977,0.5,11.614,1.903,11.953,3.667z" fill="#999999" stroke="#383838" stroke-width="1" stroke-linecap="round" stroke-miterlimit="1" stroke-linejoin="round"/>
    <path d="M3.944,16h8.111c-0.098,-1.09,-0.314,-2.86,-0.208,-5.223c-0.405,-0.35,-0.852,-0.546,-1.332,-0.777c-0.928,2.316,-1.886,2.51,-2.314,2.51c-0.143,0,-0.238,0,-0.253,0c0.001,0,0.001,0,0.002,0c-0.427,0.001,-1.533,-0.222,-2.46,-2.529c-0.481,0.235,-0.93,0.435,-1.336,0.79C4.258,13.12,4.042,14.905,3.944,16z" fill="#92CBEE"/>
    <path d="M3.442,16h1.004c0.011,-0.122,0.023,-0.252,0.037,-0.393c0.1,-1.057,0.25,-2.631,0.181,-4.605c0.179,-0.131,0.37,-0.238,0.576,-0.343c0.955,2.03,2.089,2.35,2.708,2.35c0.001,0,0.002,0,0.004,0c0.011,0,0.048,0,0.105,0c0.04,0,0.089,0.002,0.146,0c0.992,0,1.853,-0.784,2.566,-2.332c0.204,0.102,0.392,0.207,0.569,0.334c-0.071,1.984,0.079,3.551,0.18,4.602c0.013,0.138,0.026,0.267,0.036,0.387h1.004c-0.013,-0.148,-0.028,-0.308,-0.045,-0.482c-0.102,-1.068,-0.257,-2.683,-0.166,-4.718l0.011,-0.242l-0.183,-0.159c-0.415,-0.358,-0.863,-0.573,-1.297,-0.78l-0.627,-0.302l-0.199,0.497c-0.567,1.416,-1.224,2.196,-1.849,2.196c0,0,-0.001,0,-0.001,0c-0.142,0,-0.238,0,-0.254,0c-0.262,0,-1.168,-0.163,-1.993,-2.216l-0.2,-0.498l-0.617,0.301c-0.439,0.212,-0.893,0.432,-1.311,0.798l-0.181,0.158l0.011,0.24c0.089,2.023,-0.065,3.646,-0.167,4.72C3.471,15.689,3.455,15.851,3.442,16z" fill="#0964B0"/>
  </g>
</svg>
