<?xml version="1.0" encoding="UTF-8"?>
<!DOCTYPE svg PUBLIC "-//W3C//DTD SVG 1.1//EN" "http://www.w3.org/Graphics/SVG/1.1/DTD/svg11.dtd">
<svg version="1.1" id="Layer_1" xmlns="http://www.w3.org/2000/svg" xmlns:xlink="http://www.w3.org/1999/xlink" x="0px" y="0px" width="16px" height="16px" viewBox="0 0 16 16" enable-background="new 0 0 16 16" xml:space="preserve">
  <g id="icon">
    <path d="M14.536,16c0,-3.585,-2.894,-6.459,-6.463,-6.459S1.609,12.415,1.609,16" fill="#FFFFFF"/>
    <path d="M10.805,10.143c2.204,1.025,3.731,3.253,3.731,5.857H8.569l1.037,-3.3L10.805,10.143zM6.463,12.752l-1.105,-2.618C3.145,11.155,1.609,13.389,1.609,16h5.828L6.463,12.752z" fill="#C8C6C4"/>
    <path d="M14.536,16c0,-3.585,-2.894,-6.459,-6.463,-6.459S1.609,12.415,1.609,16" fill="none" stroke="#383838" stroke-width="1.1" stroke-miterlimit="1"/>
    <polygon points="8.82,16 7.325,16 7.699,11.722 7.325,10.517 8.82,10.517 8.446,11.735" fill="#EF3E3B" stroke-linejoin="miter"/>
    <path d="M7.01,16l-0.045,-0.134c-0.052,-0.157,-0.12,-0.369,-0.2,-0.619c-0.433,-1.356,-1.24,-3.881,-1.926,-4.921l-0.112,-0.17l0.81,-0.461l0.104,0.156c0.774,1.161,1.614,3.805,2.065,5.225c0.073,0.23,0.135,0.425,0.183,0.57l0.097,0.293l0.127,-0.396c0.384,-1.199,1.402,-4.386,2.273,-5.699l0.104,-0.156l0.811,0.459l-0.112,0.17c-0.783,1.192,-1.773,4.267,-2.146,5.425L8.961,16H7.01z" fill="#383838"/>
    <path d="M11.963,4.387c0,2.037,-1.759,5.068,-3.929,5.068S4.106,6.424,4.106,4.387S5.865,0.6,8.035,0.6S11.963,2.35,11.963,4.387z" fill="#FCD8BB"/>
    <path d="M11.963,4.387c0,2.037,-1.759,5.068,-3.929,5.068S4.106,6.424,4.106,4.387S5.865,0.6,8.035,0.6S11.963,2.35,11.963,4.387z" fill="none" stroke="#AF6E41" stroke-width="1.1" stroke-linecap="round" stroke-miterlimit="1"/>
    <path d="M4.267,3.324C4.75,1.777,6.253,0.6,8.032,0.6c1.944,0,3.558,1.406,3.872,3.164C7.034,1.497,7.293,4.929,4.267,3.324z" fill="#999999" stroke="#383838" stroke-width="1.1" stroke-linecap="round" stroke-miterlimit="1" stroke-linejoin="round"/>
  </g>
</svg>
