<?xml version="1.0" encoding="UTF-8"?>
<!DOCTYPE svg PUBLIC "-//W3C//DTD SVG 1.1//EN" "http://www.w3.org/Graphics/SVG/1.1/DTD/svg11.dtd">
<svg version="1.1" id="Layer_1" xmlns="http://www.w3.org/2000/svg" xmlns:xlink="http://www.w3.org/1999/xlink" x="0px" y="0px" width="16px" height="16px" viewBox="0 0 16 16" enable-background="new 0 0 16 16" xml:space="preserve">
  <g id="icon">
    <path d="M8.33,6.836c-0.144,0,-0.281,-0.052,-0.398,-0.151c-0.124,-0.108,-0.165,-0.227,-0.217,-0.51c-0.05,-0.276,-0.058,-0.332,-0.025,-0.457c0.031,-0.112,0.088,-0.205,0.175,-0.286c0.108,-0.099,0.248,-0.153,0.394,-0.153c0.147,0,0.291,0.055,0.406,0.155l0.02,0.018l0.45,-0.084c0.48,-0.091,0.547,-0.091,0.575,-0.091h0.009l0.009,0.001c0.102,-0.007,0.889,-0.188,2.583,-0.68c1.09,-0.316,2.163,-0.595,2.391,-0.623c0.032,-0.004,0.129,-0.007,0.2,-0.008l0.01,0c0.153,0,0.368,0.03,0.511,0.113c0.221,0.127,0.355,0.375,0.375,0.696c0.011,0.155,-0.03,0.324,-0.105,0.442l-0.003,-0.002c-0.092,0.166,-0.358,0.356,-0.658,0.409l-0.009,0.002l-0.009,0.001c-0.087,0.007,-0.259,0.033,-0.497,0.068c-0.44,0.065,-1.105,0.164,-2.06,0.275c-0.478,0.056,-0.883,0.102,-1.221,0.141c-0.729,0.083,-1.217,0.139,-1.312,0.162l-0.012,0.004c-0.062,0.021,-0.321,0.073,-0.55,0.115c-0.212,0.039,-0.401,0.075,-0.481,0.09l-0.007,0.001c-0.001,0.001,-0.001,0.003,-0.002,0.004c-0.02,0.053,-0.066,0.117,-0.121,0.171C8.636,6.772,8.486,6.836,8.33,6.836z" fill="#383838"/>
    <path d="M3.387,2.283c-0.024,-0.094,-0.03,-0.144,-0.03,-0.343c0,-0.21,0.004,-0.238,0.036,-0.355c0.09,-0.319,0.271,-0.586,0.521,-0.772c0.188,-0.139,0.397,-0.23,0.64,-0.276c0.051,-0.009,0.124,-0.015,0.205,-0.015c0.143,0,0.293,0.016,0.393,0.041c0.509,0.132,0.906,0.524,1.034,1.022c0.043,0.166,0.057,0.336,0.041,0.478c-0.071,0.612,-0.479,1.092,-1.066,1.252c-0.1,0.027,-0.26,0.045,-0.407,0.045h0c-0.073,0,-0.138,-0.004,-0.189,-0.012C3.983,3.255,3.531,2.847,3.387,2.283zM6.837,11.152c-0.024,-0.031,-0.077,-0.083,-0.112,-0.11c-0.111,-0.084,-1.376,-1.42,-1.455,-1.536c-0.206,-0.301,-0.331,-0.77,-0.419,-1.566c-0.05,-0.451,-0.103,-1.315,-0.104,-1.714v-0.219l1.193,0.332c0.577,0.16,1.038,0.297,1.293,0.358c-0.051,-0.131,-0.082,-0.269,-0.109,-0.415c-0.054,-0.297,-0.084,-0.46,-0.015,-0.717c0.024,-0.088,0.059,-0.168,0.1,-0.246c-0.384,-0.127,-0.944,-0.311,-1.478,-0.482c-1.405,-0.452,-1.611,-0.522,-1.696,-0.577c-0.1,-0.065,-0.183,-0.095,-0.353,-0.129c-0.249,-0.051,-0.503,-0.081,-0.682,-0.081c-0.048,0,-0.088,0.002,-0.119,0.007c-0.276,0.039,-0.434,0.13,-0.562,0.323c-0.155,0.233,-0.237,0.528,-0.314,1.128c-0.085,0.653,-0.07,1.231,0.049,1.933c0.07,0.414,0.26,1.26,0.356,1.589c0.08,0.277,0.181,0.492,0.283,0.605c0.032,0.035,0.086,0.097,0.119,0.137c0.043,0.047,0.597,0.53,1.452,1.259l1.41,1.2l1.071,1.513c0.951,1.342,1.11,1.544,1.134,1.569c0.142,0.139,0.323,0.216,0.51,0.216c0.182,0,0.357,-0.074,0.493,-0.207c0.209,-0.206,0.254,-0.519,0.119,-0.814C8.933,14.383,6.934,11.278,6.837,11.152z" fill="#FFFFFF"/>
    <path d="M4.498,3.769c0.074,0.012,0.16,0.018,0.256,0.018c0.188,0,0.383,-0.022,0.521,-0.06c0.759,-0.208,1.286,-0.826,1.378,-1.615c0.022,-0.192,0.003,-0.416,-0.052,-0.632C6.434,0.831,5.92,0.322,5.258,0.15c-0.133,-0.034,-0.32,-0.054,-0.499,-0.054c-0.075,0,-0.186,0.004,-0.286,0.022c-0.308,0.059,-0.574,0.175,-0.815,0.353c-0.328,0.242,-0.562,0.588,-0.679,1.002c-0.044,0.161,-0.051,0.226,-0.051,0.466c0,0.213,0.006,0.303,0.044,0.448C3.159,3.12,3.744,3.649,4.498,3.769zM3.806,1.7c0.064,-0.228,0.191,-0.417,0.365,-0.546c0.135,-0.1,0.286,-0.165,0.462,-0.199c0.002,0,0.042,-0.008,0.127,-0.008c0.105,0,0.222,0.011,0.284,0.027c0.359,0.093,0.638,0.367,0.727,0.715c0.029,0.115,0.041,0.236,0.031,0.325c-0.05,0.436,-0.339,0.777,-0.753,0.89c-0.053,0.014,-0.174,0.03,-0.294,0.03c-0.07,0,-0.108,-0.005,-0.121,-0.007c-0.411,-0.065,-0.729,-0.353,-0.831,-0.75c-0.013,-0.051,-0.017,-0.066,-0.017,-0.238C3.786,1.773,3.786,1.773,3.806,1.7zM9.387,14.329c0.213,0.466,0.134,0.961,-0.205,1.296c-0.216,0.214,-0.498,0.331,-0.795,0.331c-0.301,0,-0.589,-0.121,-0.811,-0.34c-0.042,-0.043,-0.109,-0.112,-1.183,-1.627l-1.04,-1.47l-1.369,-1.165c-0.325,-0.277,-1.393,-1.19,-1.49,-1.296l-0.01,-0.012c-0.032,-0.038,-0.081,-0.096,-0.108,-0.125c-0.15,-0.167,-0.277,-0.427,-0.377,-0.774c-0.099,-0.339,-0.294,-1.211,-0.367,-1.636c-0.127,-0.746,-0.142,-1.361,-0.051,-2.058c0.086,-0.672,0.186,-1.014,0.381,-1.308c0.197,-0.296,0.461,-0.453,0.859,-0.51c0.052,-0.007,0.111,-0.011,0.18,-0.011c0.206,0,0.493,0.033,0.768,0.09c0.223,0.045,0.354,0.095,0.501,0.189c0.077,0.041,0.78,0.267,1.595,0.529c0.534,0.171,1.217,0.394,1.63,0.532c-0.012,0.01,-0.024,0.019,-0.036,0.03c-0.17,0.157,-0.286,0.347,-0.348,0.571c-0.015,0.057,-0.025,0.109,-0.031,0.16c-0.383,-0.127,-0.958,-0.315,-1.479,-0.482c-1.6,-0.515,-1.668,-0.541,-1.798,-0.625c-0.043,-0.028,-0.069,-0.042,-0.206,-0.07c-0.219,-0.045,-0.448,-0.072,-0.597,-0.072c-0.033,0,-0.051,0.001,-0.058,0.002c-0.193,0.028,-0.224,0.073,-0.265,0.136c-0.114,0.172,-0.179,0.42,-0.246,0.947c-0.079,0.61,-0.065,1.15,0.046,1.808c0.068,0.402,0.252,1.223,0.345,1.541c0.096,0.333,0.186,0.435,0.19,0.44c0.03,0.033,0.081,0.092,0.117,0.135c0.073,0.068,0.539,0.476,1.413,1.222l1.45,1.234L7.094,13.5c0.87,1.227,1.058,1.474,1.096,1.522c0.059,0.053,0.128,0.082,0.197,0.082c0.068,0,0.136,-0.03,0.19,-0.083c0.078,-0.077,0.091,-0.194,0.037,-0.322c-0.153,-0.258,-2.016,-3.151,-2.12,-3.292c-0.001,-0.001,-0.02,-0.019,-0.027,-0.025c-0.144,-0.109,-1.449,-1.487,-1.552,-1.638c-0.247,-0.361,-0.393,-0.887,-0.489,-1.758c-0.051,-0.462,-0.105,-1.349,-0.107,-1.758v-0.782l1.737,0.484c0.206,0.057,0.41,0.115,0.596,0.168c0.157,0.045,0.323,0.092,0.462,0.13c0.003,0.018,0.006,0.036,0.01,0.055c0.06,0.321,0.132,0.607,0.418,0.855c0.004,0.003,0.007,0.006,0.011,0.009c-0.038,0.007,-0.08,0.011,-0.129,0.011c-0.143,0,-0.426,-0.078,-1.052,-0.255c-0.164,-0.046,-0.347,-0.098,-0.547,-0.153l-0.64,-0.178c0.017,0.427,0.056,0.996,0.092,1.321c0.078,0.704,0.188,1.141,0.347,1.374c0.083,0.111,1.251,1.344,1.369,1.444c0.059,0.045,0.139,0.123,0.185,0.185c0.109,0.142,2.124,3.273,2.199,3.417L9.387,14.329z" fill="#228BCB"/>
    <path d="M3.593,11.808c-0.43,-0.367,-0.737,-0.631,-0.959,-0.823c0.003,0.13,0.01,0.247,0.022,0.332l0.108,0.744l-0.971,1.155c-0.52,0.617,-0.973,1.158,-1.01,1.206c-0.153,0.198,-0.217,0.416,-0.18,0.614c0.033,0.175,0.141,0.321,0.312,0.424c0.094,0.056,0.194,0.085,0.299,0.085c0.147,0,0.301,-0.057,0.445,-0.166c0.133,-0.102,2.392,-2.398,2.491,-2.531c0.054,-0.084,0.098,-0.19,0.111,-0.271c0.007,-0.042,0.025,-0.098,0.041,-0.133c0.002,-0.005,0.005,-0.014,0.008,-0.026L3.593,11.808z" fill="#FFFFFF"/>
    <path d="M3.935,12.099c-0.016,0.099,-0.028,0.166,-0.035,0.198c-0.026,0.064,-0.049,0.141,-0.061,0.209c-0.002,0.013,-0.016,0.054,-0.039,0.095c-0.228,0.259,-2.22,2.282,-2.407,2.445c-0.065,0.048,-0.128,0.074,-0.178,0.074c-0.027,0,-0.051,-0.007,-0.077,-0.023c-0.097,-0.059,-0.109,-0.119,-0.112,-0.138c-0.014,-0.076,0.022,-0.177,0.099,-0.277c0.028,-0.036,0.399,-0.481,0.999,-1.192l1.094,-1.301L3.1,11.386c-0.504,-0.432,-0.761,-0.657,-0.895,-0.778c-0.005,0.354,0.005,0.608,0.028,0.77l0.081,0.556l-0.848,1.008c-0.382,0.453,-0.969,1.151,-1.021,1.219c-0.229,0.295,-0.322,0.633,-0.262,0.952c0.056,0.297,0.232,0.543,0.511,0.71c0.161,0.097,0.337,0.146,0.521,0.146c0.242,0,0.486,-0.088,0.706,-0.255c0.164,-0.126,2.449,-2.448,2.578,-2.62l0.013,-0.02c0.071,-0.112,0.125,-0.237,0.155,-0.355L3.935,12.099z" fill="#228BCB"/>
  </g>
</svg>
