<?xml version="1.0" encoding="UTF-8"?>
<!DOCTYPE svg PUBLIC "-//W3C//DTD SVG 1.1//EN" "http://www.w3.org/Graphics/SVG/1.1/DTD/svg11.dtd">
<svg version="1.1" id="Layer_1" xmlns="http://www.w3.org/2000/svg" xmlns:xlink="http://www.w3.org/1999/xlink" x="0px" y="0px" width="16px" height="16px" viewBox="0 0 16 16" enable-background="new 0 0 16 16" xml:space="preserve">
  <g id="icon">
    <path d="M0.284,8.348l-0.015,-0.003c-0.11,-0.012,-0.146,-0.065,-0.158,-0.096c-0.034,-0.085,0.009,-0.207,0.112,-0.319l0.139,-0.152c0.466,-0.502,2.224,-2.094,4.13,-3.728C7.034,1.874,8.598,0.585,9.2,0.207c0.095,-0.062,0.215,-0.132,0.319,-0.132c0.068,0,0.124,0.029,0.171,0.087l0.012,0.015l0.006,0.018c0.015,0.046,0.014,0.148,-0.033,0.228c-0.367,0.607,-2.979,3,-5.7,5.21c-0.554,0.45,-2.022,1.653,-2.745,2.168c-0.579,0.414,-0.806,0.547,-0.933,0.547H0.284z" fill="#383838"/>
    <path d="M15.112,15.475c-0.202,0,-0.387,-0.146,-0.52,-0.411c-0.017,-0.033,-0.169,-0.406,-0.464,-1.146c-0.102,-0.257,-0.438,-1.103,-0.477,-1.197c-0.042,-0.108,-0.07,-0.181,-0.164,-0.197c-0.079,-0.017,-1.832,-0.519,-2.366,-0.68c-1.031,-0.309,-1.502,-0.468,-1.627,-0.55c-0.058,-0.039,-0.124,-0.112,-0.157,-0.174c-0.02,-0.065,-0.157,-0.587,-0.347,-1.337c-0.336,-1.326,-0.344,-1.341,-0.346,-1.347l-0.007,-0.015l-0.041,-0.041l-0.042,0c-0.062,0,-1.125,0.526,-1.133,0.531c-0.032,0.022,-0.193,0.075,-0.275,0.084c-0.01,0.001,-0.021,0.002,-0.032,0.002c-0.091,0,-0.212,-0.031,-0.307,-0.079c-0.074,-0.036,-0.225,-0.171,-0.79,-0.687c0,0,-0.843,-0.772,-0.905,-0.828c-0.103,-0.096,-0.215,-0.209,-0.249,-0.252c-0.178,-0.233,-0.146,-0.485,0.085,-0.673c0.066,-0.054,0.153,-0.082,0.25,-0.082c0.099,0,0.203,0.03,0.301,0.086c0.036,0.023,0.384,0.295,0.822,0.65c0.779,0.628,0.787,0.634,0.833,0.634c0,0,0.027,0,0.027,0l0.023,-0.013c0.118,-0.066,1.424,-0.876,1.536,-0.952c0.254,-0.173,0.447,-0.258,0.861,-0.38c0.087,-0.026,0.261,-0.079,0.301,-0.096c0.022,-0.01,0.062,-0.022,0.087,-0.026c0.008,-0.001,0.02,-0.002,0.034,-0.002c0.058,0,0.141,0.015,0.232,0.042c0.268,0.079,0.518,0.297,0.638,0.555c0.019,0.039,0.055,0.154,0.078,0.261c0.07,0.317,0.27,1.443,0.498,2.804c0.063,0.384,0.072,0.398,0.085,0.417c0.016,0.026,0.025,0.041,0.231,0.104c0.223,0.067,0.423,0.153,0.892,0.384c0.403,0.198,0.726,0.369,1.194,0.628c0.146,0.081,0.304,0.166,0.352,0.189c0.061,0.029,0.085,0.046,0.199,0.169c0.067,0.072,0.135,0.167,0.172,0.243c0.059,0.12,0.906,2.543,0.934,2.673c0.044,0.217,0.018,0.409,-0.073,0.54c-0.065,0.094,-0.159,0.15,-0.279,0.168C15.155,15.473,15.133,15.475,15.112,15.475L15.112,15.475zM9.204,5.302c-0.344,0,-0.663,-0.138,-0.899,-0.389c-0.41,-0.437,-0.447,-1.107,-0.088,-1.591c0.196,-0.264,0.478,-0.428,0.84,-0.486c0.026,-0.004,0.067,-0.007,0.114,-0.007c0.094,0,0.201,0.009,0.268,0.023c0.578,0.12,0.97,0.578,0.999,1.169c0.009,0.176,-0.016,0.328,-0.086,0.507c-0.08,0.207,-0.264,0.437,-0.447,0.559C9.696,5.228,9.453,5.302,9.204,5.302C9.204,5.302,9.204,5.302,9.204,5.302z" fill="#92CBEE"/>
    <path d="M15.112,15.885c-0.365,0,-0.68,-0.226,-0.887,-0.637c-0.028,-0.055,-0.193,-0.463,-0.479,-1.179c-0.151,-0.38,-0.407,-1.026,-0.465,-1.169l-0.004,-0.009l-0.009,-0.003c-0.457,-0.126,-1.855,-0.529,-2.266,-0.653c-1.276,-0.382,-1.585,-0.502,-1.735,-0.6c-0.116,-0.078,-0.228,-0.201,-0.293,-0.323l-0.02,-0.037l-0.011,-0.037c-0.027,-0.089,-0.185,-0.697,-0.352,-1.357c-0.113,-0.445,-0.189,-0.744,-0.24,-0.943l-0.006,-0.023l-0.022,0.01c-0.28,0.133,-0.643,0.311,-0.711,0.346c-0.113,0.064,-0.322,0.118,-0.422,0.129c-0.026,0.003,-0.052,0.004,-0.079,0.004c-0.157,0,-0.336,-0.045,-0.491,-0.123c-0.118,-0.058,-0.209,-0.135,-0.882,-0.75l-0.905,-0.829c-0.078,-0.073,-0.228,-0.218,-0.293,-0.299c-0.313,-0.409,-0.252,-0.922,0.148,-1.246c0.14,-0.114,0.316,-0.174,0.508,-0.174c0.171,0,0.346,0.049,0.505,0.14l0.013,0.008c0.088,0.056,0.619,0.481,0.863,0.679c0.255,0.206,0.456,0.368,0.585,0.47l0.011,0.009l0.012,-0.007c0.389,-0.238,1.244,-0.769,1.322,-0.822c0.292,-0.198,0.52,-0.3,0.976,-0.435c0.134,-0.04,0.243,-0.075,0.263,-0.082c0.046,-0.02,0.115,-0.04,0.168,-0.05c0.036,-0.006,0.069,-0.009,0.107,-0.009c0.099,0,0.217,0.02,0.349,0.059c0.381,0.113,0.723,0.41,0.893,0.775c0.038,0.077,0.082,0.233,0.107,0.347c0.071,0.322,0.273,1.456,0.502,2.823c0.013,0.077,0.023,0.138,0.031,0.185l0.002,0.012l0.012,0.004c0.242,0.074,0.453,0.165,0.94,0.404c0.41,0.202,0.738,0.375,1.212,0.638c0.154,0.086,0.297,0.162,0.327,0.176c0.133,0.063,0.198,0.124,0.325,0.26c0.094,0.102,0.184,0.229,0.239,0.339c0.074,0.149,0.933,2.608,0.968,2.77c0.068,0.331,0.019,0.638,-0.138,0.862c-0.131,0.187,-0.322,0.304,-0.554,0.339C15.196,15.882,15.154,15.885,15.112,15.885zM8.974,8.179l0.035,0.072c0.028,0.056,0.031,0.062,0.377,1.43c0.177,0.699,0.287,1.119,0.325,1.257l0.001,0.005l0.012,0.011c0.043,0.026,0.272,0.124,1.51,0.495c0.573,0.173,2.231,0.646,2.342,0.674c0.305,0.059,0.406,0.32,0.455,0.446c0.044,0.105,0.344,0.861,0.471,1.181l0.006,0.016c0.309,0.775,0.439,1.09,0.454,1.122c0.065,0.129,0.126,0.166,0.137,0.172l0.021,0.011l0.008,-0.022c0.007,-0.021,0.023,-0.083,0.001,-0.196c-0.06,-0.214,-0.82,-2.388,-0.904,-2.586c-0.023,-0.043,-0.066,-0.102,-0.103,-0.142c-0.037,-0.039,-0.061,-0.065,-0.073,-0.075c-0.086,-0.043,-0.272,-0.144,-0.378,-0.203c-0.46,-0.255,-0.779,-0.423,-1.175,-0.618c-0.446,-0.219,-0.632,-0.299,-0.83,-0.359c-0.198,-0.06,-0.354,-0.107,-0.46,-0.278c-0.061,-0.094,-0.076,-0.165,-0.142,-0.569c-0.227,-1.354,-0.425,-2.472,-0.494,-2.781c-0.018,-0.084,-0.043,-0.16,-0.05,-0.178c-0.07,-0.151,-0.228,-0.288,-0.383,-0.334c-0.038,-0.011,-0.068,-0.018,-0.088,-0.021l-0.005,-0.001l-0.005,0.002c-0.068,0.026,-0.212,0.07,-0.322,0.102c-0.375,0.111,-0.529,0.178,-0.748,0.327c-0.121,0.083,-1.438,0.899,-1.566,0.971l-0.116,0.065l-0.134,0c-0.191,0,-0.191,0,-1.09,-0.725c-0.396,-0.321,-0.7,-0.559,-0.781,-0.62c-0.03,-0.015,-0.056,-0.023,-0.078,-0.025l-0.008,-0.001l-0.006,0.006c-0.011,0.01,-0.02,0.02,-0.026,0.029l-0.006,0.009l0.004,0.01c0.003,0.008,0.011,0.023,0.027,0.043c0.013,0.015,0.099,0.105,0.203,0.201c0.06,0.055,0.902,0.826,0.902,0.826c0.28,0.256,0.627,0.574,0.701,0.625c0.044,0.021,0.09,0.031,0.109,0.033c0.028,-0.005,0.078,-0.02,0.107,-0.03l0.001,0.002l0.018,-0.009c0.044,-0.024,1.092,-0.58,1.323,-0.58l0.212,0L8.974,8.179zM9.204,5.712c-0.459,0,-0.884,-0.184,-1.198,-0.518c-0.546,-0.582,-0.596,-1.472,-0.118,-2.116c0.261,-0.353,0.633,-0.571,1.104,-0.647c0.048,-0.008,0.109,-0.012,0.179,-0.012c0.122,0,0.256,0.012,0.35,0.031c0.767,0.159,1.288,0.767,1.327,1.55c0.012,0.233,-0.023,0.442,-0.113,0.675c-0.111,0.287,-0.348,0.582,-0.602,0.752C9.856,5.614,9.534,5.712,9.204,5.712zM9.172,3.239c-0.027,0,-0.045,0.001,-0.052,0.002c-0.258,0.042,-0.439,0.145,-0.573,0.325c-0.242,0.325,-0.217,0.774,0.057,1.067c0.157,0.167,0.37,0.259,0.6,0.259c0.168,0,0.332,-0.05,0.475,-0.146c0.112,-0.075,0.243,-0.239,0.293,-0.366c0.048,-0.125,0.065,-0.22,0.058,-0.338c-0.02,-0.398,-0.284,-0.708,-0.673,-0.789C9.329,3.248,9.251,3.239,9.172,3.239z" fill="#0964B0"/>
    <path d="M11.31,5.774c0.128,-0.039,0.258,-0.078,0.382,-0.114c0.317,-0.091,0.664,-0.192,0.726,-0.212c0.059,-0.02,0.13,-0.04,0.155,-0.046c0.031,-0.007,0.065,-0.011,0.102,-0.011c0.045,0,0.092,0.006,0.137,0.016c0.125,0.034,2.242,0.91,2.359,0.976c0.143,0.087,0.227,0.193,0.263,0.332c0.036,0.141,-0.028,0.334,-0.148,0.45c-0.066,0.063,-0.186,0.103,-0.313,0.103c0,0,0,0,0,0c-0.051,0,-0.101,-0.006,-0.148,-0.018c-0.05,-0.013,-0.503,-0.166,-1.077,-0.362c-0.887,-0.306,-1,-0.339,-1.026,-0.342l0.006,0l-0.006,-0.001l-0.007,0c-0.025,0,-0.047,0,-0.296,0.135c-0.139,0.077,-0.297,0.152,-0.449,0.219c-0.022,-0.095,-0.073,-0.298,-0.145,-0.448C11.703,6.193,11.525,5.962,11.31,5.774zM9.262,12.323c-0.036,0.212,-0.068,0.444,-0.081,0.635l-0.021,0.304l-1.156,0.597c-0.626,0.322,-1.143,0.593,-1.186,0.621c-0.171,0.112,-0.301,0.266,-0.34,0.402c-0.041,0.147,0,0.31,0.105,0.415c0.085,0.085,0.2,0.129,0.34,0.129h0c0.08,0,0.17,-0.014,0.266,-0.042c0.171,-0.05,2.591,-1.178,2.728,-1.272c0.051,-0.034,0.116,-0.088,0.14,-0.114c0.069,-0.076,0.182,-0.269,0.223,-0.382c0.026,-0.071,0.174,-0.37,0.303,-0.617c0.03,-0.058,0.063,-0.132,0.096,-0.211C9.921,12.559,9.514,12.425,9.262,12.323z" fill="#92CBEE"/>
    <path d="M6.923,15.836c-0.249,0,-0.467,-0.086,-0.629,-0.249c-0.208,-0.208,-0.29,-0.528,-0.21,-0.815c0.067,-0.235,0.253,-0.466,0.51,-0.635c0.109,-0.07,1.212,-0.637,1.223,-0.642l0.95,-0.49l0.005,-0.074c0.014,-0.201,0.055,-0.507,0.105,-0.787c0.012,0.009,0.025,0.018,0.037,0.026c0.133,0.088,0.297,0.168,0.737,0.316c-0.031,0.193,-0.051,0.362,-0.061,0.501l-0.037,0.534l-1.361,0.703c-0.67,0.344,-1.111,0.577,-1.159,0.606c-0.087,0.058,-0.14,0.127,-0.155,0.155l-0.014,0.025l0.029,0.004c0.006,0.001,0.017,0.002,0.031,0.002c0.029,0,0.078,-0.005,0.153,-0.026c0.182,-0.06,2.458,-1.123,2.619,-1.223c0.021,-0.014,0.056,-0.043,0.065,-0.052c0.023,-0.026,0.109,-0.167,0.136,-0.241c0.048,-0.134,0.297,-0.613,0.325,-0.667c0.017,-0.032,0.036,-0.074,0.057,-0.123c0.159,0.049,0.338,0.103,0.54,0.163c0.063,0.019,0.149,0.044,0.25,0.074c-0.044,0.107,-0.084,0.196,-0.119,0.264c-0.157,0.301,-0.268,0.533,-0.282,0.568c-0.06,0.167,-0.201,0.405,-0.307,0.52c-0.049,0.054,-0.141,0.13,-0.217,0.18c-0.212,0.136,-2.626,1.262,-2.839,1.323C7.17,15.816,7.042,15.836,6.923,15.836zM14.972,7.679c-0.086,0,-0.17,-0.011,-0.251,-0.031c-0.087,-0.023,-0.73,-0.242,-1.106,-0.37c-0.424,-0.146,-0.717,-0.246,-0.873,-0.297l-0.008,-0.003l-0.007,0.004c-0.029,0.015,-0.065,0.034,-0.112,0.06c-0.148,0.081,-0.344,0.176,-0.543,0.262c-0.031,-0.166,-0.057,-0.293,-0.075,-0.374c-0.013,-0.06,-0.06,-0.263,-0.13,-0.431c0.131,-0.059,0.25,-0.118,0.354,-0.175c0.253,-0.138,0.355,-0.186,0.494,-0.186l0.224,0.014l-0.004,0.031l0.016,0.005c0.146,0.046,0.432,0.143,0.93,0.315c0.655,0.224,1.015,0.344,1.052,0.354c0.005,0.001,0.019,0.004,0.04,0.004c0.012,0,0.023,-0.001,0.032,-0.003l0.01,-0.002l0.005,-0.009c0.005,-0.01,0.01,-0.022,0.013,-0.033l0.002,-0.007L15.03,6.8c-0.009,-0.019,-0.028,-0.037,-0.061,-0.058c-0.193,-0.093,-2.03,-0.854,-2.262,-0.936c-0.013,-0.002,-0.023,-0.003,-0.032,-0.003c-0.025,0.004,-0.078,0.019,-0.124,0.035c-0.094,0.03,-0.594,0.174,-0.745,0.218c-0.054,0.015,-0.11,0.032,-0.167,0.049c-0.177,-0.242,-0.406,-0.447,-0.663,-0.593c0.02,-0.024,0.038,-0.05,0.057,-0.075l0.004,-0.005c0.23,-0.072,0.455,-0.139,0.544,-0.164c0.356,-0.103,0.656,-0.19,0.713,-0.208c0.062,-0.021,0.145,-0.045,0.19,-0.055c0.059,-0.014,0.124,-0.021,0.192,-0.021c0.078,0,0.158,0.009,0.232,0.027l0.01,0.003c0.154,0.042,2.312,0.934,2.455,1.015l0.009,0.005c0.236,0.143,0.387,0.339,0.449,0.583c0.073,0.286,-0.032,0.626,-0.262,0.847C15.428,7.598,15.205,7.679,14.972,7.679L14.972,7.679z" fill="#0964B0"/>
  </g>
</svg>
