<?xml version="1.0" encoding="UTF-8"?>
<!DOCTYPE svg PUBLIC "-//W3C//DTD SVG 1.1//EN" "http://www.w3.org/Graphics/SVG/1.1/DTD/svg11.dtd">
<svg version="1.1" id="Layer_1" xmlns="http://www.w3.org/2000/svg" xmlns:xlink="http://www.w3.org/1999/xlink" x="0px" y="0px" width="16px" height="16px" viewBox="0 0 16 16" enable-background="new 0 0 16 16" xml:space="preserve">
  <g id="icon">
    <path d="M12.199,7.368c-0.211,0.026,-0.455,0.106,-0.626,0.207c-0.278,0.164,-0.519,0.511,-0.624,0.899c-0.027,0.097,-0.032,0.14,-0.032,0.274c-0.001,0.136,0.002,0.168,0.026,0.234c0.064,0.186,0.189,0.303,0.394,0.372c0.089,0.029,0.107,0.03,0.317,0.03c0.195,0.001,0.237,-0.002,0.334,-0.027c0.467,-0.116,0.742,-0.335,0.955,-0.759c0.254,-0.509,0.195,-0.975,-0.148,-1.147C12.646,7.376,12.404,7.342,12.199,7.368z" fill="#FFFFFF" stroke="#383838" stroke-width="0.8" stroke-miterlimit="1"/>
    <path d="M10.389,15.575c-0.15,0,-0.297,-0.049,-0.428,-0.142c-0.123,-0.088,-0.216,-0.23,-0.254,-0.391c-0.043,-0.179,-0.036,-0.227,0.238,-1.722c0.266,-1.443,0.266,-1.443,0.248,-1.479l-0.014,-0.028l-0.028,-0.014c-0.005,-0.003,-0.005,-0.003,-0.499,-0.2l-0.753,-0.302c-0.862,-0.346,-1.271,-0.516,-1.367,-0.57c-0.271,-0.156,-0.558,-0.402,-0.715,-0.61c-0.19,-0.253,-0.28,-0.561,-0.236,-0.803c0.029,-0.159,0.247,-0.734,0.899,-2.366c0.343,-0.862,0.343,-0.865,0.343,-0.89c0,-0.081,0,-0.081,-0.551,-0.237c-0.494,-0.14,-0.523,-0.14,-0.537,-0.14h-0.049l-0.03,0.04l0.004,-0.005c-0.018,0.024,-0.098,0.141,-0.597,0.868c-0.616,0.9,-0.647,0.932,-0.784,1.006c-0.093,0.05,-0.182,0.074,-0.272,0.074c-0.043,0,-0.087,-0.006,-0.13,-0.017c-0.334,-0.085,-0.515,-0.392,-0.429,-0.728c0.014,-0.054,0.039,-0.122,0.051,-0.146c0.018,-0.034,0.302,-0.517,0.696,-1.18c0.549,-0.921,0.673,-1.124,0.741,-1.192c0.086,-0.086,0.212,-0.154,0.336,-0.182c0.035,-0.008,0.093,-0.014,0.136,-0.014c0.007,0,0.013,0,0.019,0c0.054,0.003,0.804,0.086,1.207,0.13c0.606,0.068,1.195,0.13,1.288,0.134c0.182,0.011,0.497,0.071,0.671,0.129c0.07,0.023,0.221,0.087,0.33,0.14c0.449,0.219,0.724,0.461,0.841,0.741c0.019,0.045,0.045,0.141,0.057,0.211c0.019,0.121,0.019,0.128,-0.001,0.257c-0.013,0.078,-0.04,0.189,-0.059,0.246c-0.02,0.054,-0.343,0.786,-0.728,1.646c-0.191,0.423,-0.364,0.809,-0.488,1.089c-0.062,0.14,-0.113,0.254,-0.147,0.333c-0.072,0.165,-0.08,0.182,-0.033,0.229c0.013,0.013,0.016,0.016,1.037,0.552c0.953,0.501,1.066,0.563,1.078,0.57c0.085,0.047,0.189,0.142,0.245,0.224c0.057,0.083,0.145,0.284,0.17,0.391l0.003,0.013c0.039,0.166,0.04,0.169,-0.354,1.861l-0.034,0.146c-0.244,1.05,-0.411,1.75,-0.425,1.796C10.974,15.366,10.701,15.575,10.389,15.575L10.389,15.575z" fill="#FFFFFF"/>
    <path d="M10.389,15.985c-0.235,0,-0.465,-0.075,-0.665,-0.218c-0.203,-0.145,-0.354,-0.374,-0.415,-0.63c-0.064,-0.267,-0.053,-0.328,0.233,-1.889c0.107,-0.581,0.176,-0.953,0.213,-1.168l-1.009,-0.405c-1.045,-0.419,-1.316,-0.538,-1.415,-0.593c-0.322,-0.186,-0.652,-0.469,-0.841,-0.72c-0.26,-0.347,-0.376,-0.767,-0.312,-1.123c0.032,-0.176,0.167,-0.555,0.922,-2.444c0.089,-0.224,0.16,-0.403,0.213,-0.538c-0.047,-0.013,-0.098,-0.028,-0.153,-0.043c-0.127,-0.036,-0.222,-0.062,-0.292,-0.081C6.782,6.259,6.4,6.816,6.4,6.816c-0.625,0.913,-0.691,1.008,-0.929,1.135c-0.154,0.082,-0.306,0.122,-0.465,0.122c-0.077,0,-0.155,-0.01,-0.232,-0.03c-0.555,-0.142,-0.866,-0.669,-0.724,-1.226c0.018,-0.068,0.051,-0.168,0.082,-0.229c0.044,-0.086,0.683,-1.16,0.71,-1.206c0.615,-1.032,0.698,-1.168,0.807,-1.275c0.138,-0.138,0.333,-0.244,0.532,-0.289c0.065,-0.014,0.154,-0.024,0.227,-0.024c0.015,0,0.028,0,0.041,0.001c0.043,0.002,0.245,0.023,1.229,0.132c0.686,0.077,1.197,0.129,1.262,0.132c0.222,0.013,0.571,0.08,0.78,0.149c0.1,0.033,0.271,0.107,0.381,0.161c0.543,0.264,0.883,0.575,1.04,0.951c0.036,0.084,0.069,0.216,0.083,0.303c0.027,0.166,0.026,0.217,-0.001,0.388c-0.018,0.103,-0.049,0.233,-0.075,0.311l-0.004,0.01c-0.032,0.087,-0.45,1.028,-0.739,1.673c-0.191,0.423,-0.364,0.808,-0.488,1.088c-0.031,0.069,-0.059,0.132,-0.083,0.187c0.157,0.083,0.399,0.21,0.757,0.398c0.662,0.348,1.017,0.536,1.087,0.575c0.139,0.077,0.29,0.214,0.383,0.35c0.086,0.125,0.194,0.372,0.231,0.528l0.003,0.015c0.061,0.261,0.061,0.261,-0.354,2.046l-0.034,0.146c-0.148,0.637,-0.406,1.737,-0.433,1.824l-0.003,0.01C11.305,15.666,10.88,15.985,10.389,15.985zM6.734,5.271c0.071,0,0.1,0,0.649,0.155c0.301,0.085,0.439,0.124,0.533,0.164c0.207,0.089,0.317,0.25,0.317,0.467c0,0.106,0,0.106,-0.371,1.042c-0.296,0.741,-0.846,2.119,-0.877,2.288c-0.023,0.127,0.043,0.326,0.161,0.484c0.122,0.162,0.371,0.373,0.592,0.501c0.072,0.04,0.515,0.224,1.314,0.544l0.754,0.302c0.51,0.205,0.51,0.205,0.532,0.216l0.148,0.074l0.075,0.15c0.073,0.146,0.052,0.272,0.02,0.463c-0.032,0.188,-0.098,0.55,-0.231,1.271c-0.242,1.32,-0.265,1.465,-0.243,1.555c0.015,0.063,0.052,0.123,0.093,0.153c0.06,0.043,0.126,0.066,0.19,0.066c0.131,0,0.25,-0.096,0.304,-0.246c0.02,-0.078,0.161,-0.667,0.417,-1.766l0.034,-0.146c0.333,-1.435,0.37,-1.607,0.354,-1.675l-0.003,-0.014c-0.014,-0.059,-0.082,-0.213,-0.108,-0.251c-0.022,-0.032,-0.079,-0.083,-0.106,-0.098l-0.011,-0.006c-0.003,-0.002,-0.091,-0.051,-1.059,-0.56c-1.076,-0.565,-1.076,-0.565,-1.136,-0.624c-0.246,-0.246,-0.135,-0.499,-0.054,-0.684c0.035,-0.079,0.086,-0.194,0.148,-0.335c0.125,-0.281,0.298,-0.667,0.489,-1.091c0.379,-0.844,0.675,-1.518,0.716,-1.615c0.012,-0.039,0.032,-0.121,0.041,-0.177c0.01,-0.064,0.01,-0.064,0.001,-0.124c-0.007,-0.044,-0.024,-0.102,-0.029,-0.116c-0.077,-0.185,-0.288,-0.359,-0.644,-0.533c-0.105,-0.051,-0.237,-0.105,-0.277,-0.119c-0.144,-0.047,-0.42,-0.101,-0.569,-0.109c-0.122,-0.006,-0.84,-0.083,-1.309,-0.136l-0.025,-0.003c-0.294,-0.032,-1.062,-0.117,-1.157,-0.125c-0.019,0,-0.041,0.003,-0.048,0.004c-0.046,0.01,-0.102,0.04,-0.134,0.072c-0.052,0.06,-0.343,0.547,-0.679,1.111c-0.383,0.645,-0.634,1.07,-0.681,1.153c-0.005,0.014,-0.016,0.044,-0.023,0.07c-0.029,0.113,0.02,0.196,0.135,0.225c0.011,0.003,0.021,0.004,0.03,0.004l0,0c0.013,0,0.035,-0.003,0.078,-0.026c0.049,-0.026,0.134,-0.138,0.639,-0.876c0,0,0.424,-0.619,0.503,-0.732l-0.004,-0.003l0.256,-0.346H6.734z" fill="#228BCB"/>
    <path d="M10.496,0.465c-0.326,0.063,-0.621,0.217,-0.85,0.445c-0.536,0.539,-0.621,1.374,-0.202,2.01l0.07,0.106l0.114,-0.018c0.213,-0.033,0.191,-0.042,0.22,0.081c0.063,0.263,0.191,0.41,0.408,0.47c0.046,0.014,0.205,0.071,0.35,0.129c0.298,0.117,0.617,0.235,0.992,0.366l0.252,0.088l0.054,-0.072c0.177,-0.234,0.38,-0.556,0.451,-0.713c0.047,-0.104,0.046,-0.138,-0.01,-0.21c-0.07,-0.09,-0.07,-0.09,-0.305,0.065l-0.215,0.142l-0.425,-0.142c-0.234,-0.078,-0.426,-0.143,-0.426,-0.146c0,-0.003,0.011,-0.054,0.026,-0.114c0.025,-0.106,0.025,-0.114,0.001,-0.222c-0.014,-0.063,-0.032,-0.175,-0.042,-0.253l-0.017,-0.14l0.046,-0.078c0.109,-0.181,0.339,-0.339,0.564,-0.388c0.229,-0.051,0.517,-0.004,0.716,0.117c0.086,0.051,0.091,0.053,0.095,0.025c0.003,-0.017,-0.001,-0.089,-0.011,-0.163c-0.084,-0.658,-0.549,-1.186,-1.197,-1.357C10.986,0.446,10.666,0.433,10.496,0.465z" fill="#FFFFFF" stroke="#383838" stroke-width="0.8" stroke-miterlimit="1"/>
    <path d="M14.697,7.756c0,0.198,-0.096,0.439,-0.213,0.539c-0.192,0.163,-0.78,0.705,-0.911,0.84c-0.111,0.114,-0.146,0.14,-0.201,0.164c-0.042,0.019,-0.096,0.036,-0.151,0.05c0.088,-0.118,0.169,-0.248,0.24,-0.391c0.457,-0.914,0.244,-1.851,-0.507,-2.228c-0.228,-0.115,-0.517,-0.178,-0.814,-0.178c-0.082,0,-0.164,0.005,-0.242,0.015c-0.07,0.009,-0.141,0.021,-0.213,0.037c0.013,-0.032,0.023,-0.057,0.028,-0.07l0.006,-0.019c0.036,-0.107,0.075,-0.268,0.099,-0.408c0.024,-0.151,0.033,-0.253,0.026,-0.367c0.927,0.522,2.441,1.372,2.576,1.463C14.581,7.312,14.697,7.544,14.697,7.756zM6.007,10.726c-0.056,-0.075,-0.106,-0.152,-0.152,-0.23c-0.107,0.153,-0.218,0.312,-0.319,0.456c-0.628,0.889,-0.632,0.893,-0.643,0.904c-0.039,0.039,-0.044,0.044,-1.621,0.081c-1.622,0.041,-1.656,0.043,-1.822,0.112c-0.333,0.139,-0.505,0.478,-0.417,0.824c0.072,0.276,0.263,0.451,0.569,0.518c0.07,0.016,0.612,0.033,1.726,0.062c0.947,0.024,1.45,0.035,1.747,0.035c0.281,0,0.364,-0.011,0.42,-0.03c0.183,-0.064,0.35,-0.196,0.437,-0.344c0.028,-0.048,0.082,-0.118,0.127,-0.152c0.022,-0.016,0.063,-0.058,0.085,-0.086c0.04,-0.055,0.187,-0.189,0.259,-0.253c0.346,-0.304,0.645,-0.624,0.871,-0.896c-0.134,-0.059,-0.192,-0.089,-0.239,-0.115C6.636,11.38,6.244,11.042,6.007,10.726z" fill="#FFFFFF"/>
    <path d="M14.652,6.864c-0.121,-0.082,-0.99,-0.572,-2.208,-1.257c-0.264,-0.149,-0.507,-0.285,-0.698,-0.393c0.045,0.142,0.07,0.279,0.075,0.312c0.037,0.233,0.037,0.347,-0.001,0.582c-0.004,0.026,-0.01,0.053,-0.015,0.079l0.246,0.138c0.141,0.079,0.3,0.169,0.465,0.262c0.159,0.03,0.309,0.078,0.439,0.143c0.176,0.088,0.321,0.209,0.436,0.351c0.417,0.236,0.75,0.426,0.8,0.46c0.043,0.029,0.096,0.134,0.096,0.214c0,0.092,-0.051,0.206,-0.069,0.227c-0.118,0.1,-0.371,0.33,-0.589,0.533c-0.039,0.147,-0.094,0.295,-0.168,0.443c-0.17,0.34,-0.384,0.604,-0.653,0.804l0.038,0.011c0.044,0.013,0.088,0.018,0.148,0.018h0.002l0.02,0c0.153,-0.002,0.373,-0.051,0.524,-0.118c0.122,-0.055,0.199,-0.122,0.326,-0.253c0.12,-0.123,0.705,-0.663,0.882,-0.813c0.211,-0.179,0.358,-0.529,0.358,-0.851C15.106,7.408,14.924,7.05,14.652,6.864zM6.903,11.529c-0.183,0.215,-0.442,0.496,-0.771,0.785c-0.088,0.077,-0.246,0.221,-0.311,0.308c-0.004,0.005,-0.012,0.013,-0.017,0.017c-0.097,0.076,-0.181,0.187,-0.227,0.267c-0.037,0.064,-0.123,0.129,-0.212,0.162c-0.016,0.003,-0.079,0.009,-0.291,0.009c-0.293,0,-0.794,-0.011,-1.743,-0.035c-0.571,-0.015,-1.52,-0.04,-1.652,-0.054c-0.181,-0.042,-0.227,-0.129,-0.25,-0.216c-0.038,-0.149,0.032,-0.284,0.178,-0.345c0.091,-0.038,0.2,-0.043,1.673,-0.08c1.741,-0.041,1.741,-0.041,1.901,-0.2c0.04,-0.04,0.04,-0.04,0.689,-0.959c0.047,-0.067,0.141,-0.201,0.236,-0.337c-0.036,-0.041,-0.069,-0.083,-0.1,-0.124c-0.156,-0.208,-0.273,-0.433,-0.349,-0.664l-0.087,0.124c-0.122,0.175,-0.254,0.363,-0.37,0.529c-0.291,0.411,-0.458,0.648,-0.546,0.771c-0.217,0.012,-0.707,0.024,-1.395,0.04c-1.697,0.043,-1.729,0.044,-1.968,0.144c-0.525,0.22,-0.795,0.756,-0.655,1.305c0.11,0.425,0.421,0.715,0.873,0.814c0.097,0.022,0.287,0.032,1.807,0.072c0.952,0.024,1.457,0.036,1.758,0.036c0.309,0,0.439,-0.012,0.555,-0.053c0.275,-0.096,0.52,-0.292,0.657,-0.526c0.006,-0.01,0.02,-0.028,0.028,-0.037c0.051,-0.04,0.113,-0.103,0.155,-0.158c0.015,-0.018,0.098,-0.1,0.203,-0.193c0.346,-0.304,0.715,-0.691,0.994,-1.038c-0.447,-0.184,-0.554,-0.237,-0.632,-0.281C6.991,11.584,6.946,11.557,6.903,11.529z" fill="#228BCB"/>
  </g>
</svg>
