<?xml version="1.0" encoding="UTF-8"?>
<!DOCTYPE svg PUBLIC "-//W3C//DTD SVG 1.1//EN" "http://www.w3.org/Graphics/SVG/1.1/DTD/svg11.dtd">
<svg version="1.1" id="Layer_1" xmlns="http://www.w3.org/2000/svg" xmlns:xlink="http://www.w3.org/1999/xlink" x="0px" y="0px" width="16px" height="16px" viewBox="0 0 16 16" enable-background="new 0 0 16 16" xml:space="preserve">
  <g id="icon">
    <path d="M8.425,13.016c-0.104,0,-0.21,-0.027,-0.326,-0.082c-0.073,-0.035,-0.217,-0.175,-0.99,-0.949l-0.954,-0.952H4.511c-1.501,0,-1.596,-0.001,-1.7,-0.027c-0.31,-0.074,-0.57,-0.262,-0.714,-0.516C2.033,10.373,0.91,7.738,0.871,7.613c-0.043,-0.148,-0.031,-0.434,0.026,-0.613c0.125,-0.397,0.381,-0.652,0.784,-0.778l0.115,-0.037l2.7,-0.009l0.862,-0.408c0.548,-0.259,0.878,-0.411,0.909,-0.423c0.033,-0.013,0.073,-0.019,0.118,-0.019c0.076,0,0.156,0.018,0.226,0.051c0.113,0.055,0.159,0.093,0.213,0.178c0.121,0.19,0.131,0.401,0.028,0.595c-0.074,0.139,-0.077,0.145,-1.014,0.581c-0.471,0.219,-0.929,0.436,-1.008,0.476c-0.219,0.113,-0.219,0.113,-0.815,0.118c-0.577,0.007,-0.577,0.007,-0.619,0.065c-0.02,0.028,-0.025,0.064,-0.014,0.097l0.002,0.005c0,0,0.021,0.049,0.05,0.115c0.072,0.168,0.218,0.505,0.382,0.886l0.446,1.033l1.291,0.005c0.993,0.005,0.993,0.005,1.134,0.079l0.026,0.014c0.09,0.049,0.789,0.735,1.809,1.749c0.475,0.472,0.475,0.472,0.524,0.581c0.032,0.072,0.06,0.152,0.066,0.181c0.066,0.32,-0.089,0.663,-0.359,0.797C8.638,12.988,8.53,13.016,8.425,13.016L8.425,13.016z" fill="#FFFFFF" stroke="#228BCB" stroke-width="0.9" stroke-miterlimit="1"/>
    <path d="M6.676,0.576c0,0.009,4.202,11.931,4.206,11.936c0.001,0.003,1.044,-0.724,2.314,-1.613l2.309,-1.619l-0.009,-0.136c-0.023,-0.35,-0.088,-0.789,-0.172,-1.157c-0.319,-1.384,-0.99,-2.643,-2.036,-3.814c-0.177,-0.199,-0.626,-0.646,-0.824,-0.823C10.927,1.985,8.948,0.995,7.027,0.632C6.794,0.588,6.676,0.569,6.676,0.576z" fill="#FFFFFF" stroke="#383838" stroke-width="0.9" stroke-miterlimit="1"/>
    <path d="M1.527,5.018c-0.492,0,-0.901,-0.329,-1.04,-0.838c-0.033,-0.121,-0.033,-0.421,0,-0.543c0.107,-0.411,0.395,-0.707,0.791,-0.813c0.082,-0.021,0.119,-0.028,0.193,-0.028c0.025,0,0.054,0.001,0.089,0.002c0.137,0.004,0.18,0.011,0.289,0.045c0.292,0.095,0.493,0.269,0.631,0.547c0.143,0.292,0.163,0.58,0.064,0.882C2.393,4.726,1.995,5.018,1.527,5.018z" fill="#FFFFFF" stroke="#228BCB" stroke-width="0.9" stroke-miterlimit="1"/>
    <path d="M7.622,15.933c-0.507,0,-0.909,-0.242,-1.39,-0.837c-0.135,-0.166,-0.311,-0.327,-0.438,-0.4c-0.035,-0.02,-0.045,-0.026,-0.167,-0.026l-0.036,0c-0.127,0,-0.145,0.003,-0.271,0.101c-0.061,0.049,-0.101,0.078,-0.128,0.098c-0.04,0.046,-0.128,0.154,-0.207,0.25l-0.013,0.015c-0.43,0.528,-0.74,0.779,-1.34,0.779c-0.581,0,-0.918,-0.268,-1.335,-0.762c-0.26,-0.309,-0.41,-0.417,-0.479,-0.454c-0.033,-0.011,-0.168,-0.039,-0.274,-0.039c-0.157,0.062,-0.317,0.196,-0.502,0.419c-0.055,0.066,-0.192,0.227,-0.276,0.304l-0.114,0.104L0.1,14.876l0.114,-0.104c0.018,-0.016,0.094,-0.098,0.196,-0.22c0.298,-0.36,0.585,-0.578,0.905,-0.685c0.063,-0.021,0.136,-0.031,0.228,-0.031c0.194,0,0.486,0.044,0.646,0.127c0.217,0.111,0.459,0.327,0.738,0.658c0.361,0.427,0.486,0.47,0.706,0.47c0.209,0,0.315,0,0.703,-0.478c0.243,-0.295,0.276,-0.334,0.329,-0.378l0.034,-0.024c0.011,-0.007,0.038,-0.027,0.115,-0.088c0.266,-0.207,0.463,-0.276,0.781,-0.276l0.036,0c0.218,0,0.374,0.021,0.571,0.133c0.218,0.124,0.469,0.347,0.671,0.597c0.396,0.491,0.586,0.532,0.747,0.532c0.159,-0.002,0.322,-0.04,0.691,-0.497c0.402,-0.497,0.725,-0.766,1.284,-0.766c0.235,0,0.39,0.021,0.585,0.136c0.224,0.13,0.463,0.346,0.708,0.643c0.168,0.204,0.331,0.351,0.483,0.436c0.013,0.007,0.088,0.03,0.222,0.03c0.132,0,0.209,-0.022,0.226,-0.03c0.145,-0.076,0.286,-0.212,0.503,-0.483c0.376,-0.464,0.7,-0.732,1.247,-0.732l0.016,0c0.26,0,0.4,0.033,0.577,0.134c0.219,0.127,0.428,0.311,0.638,0.561c0.165,0.196,0.238,0.259,0.414,0.353c0.17,0.092,0.44,0.175,0.533,0.185l0.153,0.016l-0.085,0.818l-0.153,-0.016c-0.218,-0.023,-0.593,-0.147,-0.836,-0.278c-0.268,-0.143,-0.427,-0.276,-0.656,-0.549c-0.148,-0.176,-0.286,-0.3,-0.42,-0.378c-0.031,-0.018,-0.041,-0.024,-0.166,-0.024l-0.016,0c-0.161,0,-0.277,0.021,-0.604,0.425c-0.293,0.367,-0.506,0.562,-0.76,0.695c-0.204,0.109,-0.469,0.125,-0.61,0.125c-0.178,0,-0.432,-0.024,-0.629,-0.138c-0.238,-0.133,-0.478,-0.344,-0.711,-0.628c-0.177,-0.215,-0.351,-0.377,-0.488,-0.456c-0.035,-0.021,-0.041,-0.024,-0.17,-0.024c-0.158,0,-0.272,0,-0.645,0.461c-0.386,0.477,-0.759,0.795,-1.326,0.802H7.622L7.622,15.933z" fill="#238BCB"/>
    <path d="M15.2,8.475c-0.116,0,-0.229,-0.045,-0.309,-0.125c-0.665,-0.659,-1.601,-0.993,-2.783,-0.993c-0.795,0,-1.714,0.151,-2.73,0.449c-0.041,0.012,-0.084,0.018,-0.127,0.018c-0.183,0,-0.345,-0.11,-0.403,-0.273c-0.035,-0.099,-0.028,-0.206,0.02,-0.3c0.051,-0.1,0.144,-0.176,0.257,-0.209c1.101,-0.323,2.108,-0.487,2.993,-0.487c1.419,0,2.56,0.418,3.392,1.243c0.08,0.079,0.121,0.183,0.116,0.292c-0.005,0.11,-0.056,0.21,-0.143,0.283C15.404,8.439,15.304,8.475,15.2,8.475z" fill="#383838"/>
  </g>
</svg>
