<?xml version="1.0" encoding="UTF-8"?>
<!DOCTYPE svg PUBLIC "-//W3C//DTD SVG 1.1//EN" "http://www.w3.org/Graphics/SVG/1.1/DTD/svg11.dtd">
<svg version="1.1" id="Layer_1" xmlns="http://www.w3.org/2000/svg" xmlns:xlink="http://www.w3.org/1999/xlink" x="0px" y="0px" width="16px" height="16px" viewBox="0 0 16 16" enable-background="new 0 0 16 16" xml:space="preserve">
  <g id="icon">
    <path d="M4.415,3.076c-0.065,0.324,-0.198,0.898,-0.326,0.923C3.183,4.177,2.5,4.953,2.5,5.885v7.692C2.5,14.639,3.388,15.5,4.483,15.5h6.033c1.095,0,1.983,-0.861,1.983,-1.923V5.885c0,-0.93,-0.68,-1.705,-1.585,-1.884c-0.129,-0.025,-0.265,-0.55,-0.313,-0.924" fill="#FFFFFF"/>
    <path d="M4.415,3.076c-0.065,0.324,-0.198,0.898,-0.326,0.923C3.183,4.177,2.5,4.953,2.5,5.885v7.692C2.5,14.639,3.388,15.5,4.483,15.5h6.033c1.095,0,1.983,-0.861,1.983,-1.923V5.885c0,-0.93,-0.68,-1.705,-1.585,-1.884c-0.129,-0.025,-0.265,-0.55,-0.313,-0.924" fill="#C8C6C4" opacity="0.3"/>
    <path d="M4.415,3.076c-0.065,0.324,-0.198,0.898,-0.326,0.923C3.183,4.177,2.5,4.953,2.5,5.885v7.692C2.5,14.639,3.388,15.5,4.483,15.5h6.033c1.095,0,1.983,-0.861,1.983,-1.923V5.885c0,-0.93,-0.68,-1.705,-1.585,-1.884c-0.129,-0.025,-0.265,-0.55,-0.313,-0.924" fill="none" stroke="#383838" stroke-width="1" stroke-miterlimit="1"/>
    <path d="M3.396,0.5h8.208c0.219,0,0.396,0.174,0.396,0.388v1.723c0,0.214,-0.177,0.388,-0.396,0.388H3.396C3.177,3,3,2.826,3,2.612V0.888C3,0.674,3.177,0.5,3.396,0.5z" fill="#92CBEE" stroke="#0964B0" stroke-width="1" stroke-miterlimit="1"/>
    <path d="M6.461,13.078c0.021,0.134,0.159,0.213,0.265,0.151c0.029,-0.018,0.635,-0.761,1.347,-1.654c1.135,-1.421,1.294,-1.63,1.303,-1.694c0.016,-0.104,-0.003,-0.189,-0.055,-0.241c-0.024,-0.026,-0.394,-0.235,-0.822,-0.466l-0.779,-0.419l0.014,-0.052c0.006,-0.028,0.154,-0.656,0.327,-1.397c0.255,-1.088,0.313,-1.359,0.305,-1.419c-0.01,-0.072,-0.075,-0.177,-0.111,-0.177c-0.01,0,-0.032,-0.004,-0.05,-0.008c-0.043,-0.01,-0.088,0.006,-0.136,0.048c-0.022,0.02,-0.648,0.803,-1.388,1.74C5.259,9.287,5.297,9.233,5.321,9.383c0.021,0.124,0.037,0.132,0.935,0.482c0.468,0.181,0.861,0.335,0.87,0.343c0.011,0.01,-0.082,0.413,-0.292,1.254C6.443,13.032,6.45,13.006,6.461,13.078z" fill="#F7DA8E" stroke="#E57428" stroke-width="0.9" stroke-miterlimit="1"/>
  </g>
</svg>
