<?xml version="1.0" encoding="UTF-8"?>
<!DOCTYPE svg PUBLIC "-//W3C//DTD SVG 1.1//EN" "http://www.w3.org/Graphics/SVG/1.1/DTD/svg11.dtd">
<svg version="1.1" id="Layer_1" xmlns="http://www.w3.org/2000/svg" xmlns:xlink="http://www.w3.org/1999/xlink" x="0px" y="0px" width="16px" height="16px" viewBox="0 0 16 16" enable-background="new 0 0 16 16" xml:space="preserve">
  <g id="icon">
    <path d="M41.349,1033.81c-1.601,-0.563,-2.352,-2.632,-2.834,-5.057c-0.198,-1.068,-0.227,-1.92,-0.156,-6.93c0.128,-9.385,0.963,-21.708,2.947,-30.92c2.054,-9.5,4.874,-17.716,8.983,-26.147c4.364,-8.952,9.975,-17.239,15.869,-23.433L68,939.39v-1.4c0,-1.271,0.043,-1.473,0.453,-2.325c0.255,-0.52,0.836,-1.401,1.275,-1.964c0.453,-0.563,1.048,-1.357,1.303,-1.776l0.482,-0.765l-0.453,-0.433c-2.876,-2.743,-3.542,-7.508,-1.573,-11.175l0.567,-1.054l-0.368,-1.054c-0.524,-1.487,-1.459,-3.335,-2.338,-4.591c-1.02,-1.473,-3.046,-3.48,-4.732,-4.692c-3.344,-2.397,-4.746,-3.884,-5.88,-6.208c-0.765,-1.574,-1.318,-3.783,-1.218,-4.837c0.17,-1.819,0.864,-2.917,2.324,-3.638l0.949,-0.476l20.615,-0.043c20.558,-0.029,20.615,-0.029,21.593,0.274c0.793,0.245,1.105,0.433,1.7,1.039c1.19,1.213,1.488,2.816,0.935,5.025c-0.85,3.465,-2.451,5.631,-6.22,8.432c-2.38,1.747,-4.449,3.783,-5.526,5.385c-0.765,1.141,-1.884,3.451,-2.224,4.548l-0.255,0.823l0.595,1.198c1.048,2.094,1.332,3.884,0.949,5.949c-0.283,1.588,-1.048,3.277,-1.998,4.461c-0.383,0.462,-0.751,0.924,-0.822,1.025c-0.085,0.13,0.312,0.808,1.318,2.209c1.998,2.83,2.38,3.826,1.955,5.227l-0.198,0.65l1.431,1.574c5.115,5.631,7.835,9.125,11.108,14.222c2.536,3.956,5.341,9.255,7.325,13.803c4.789,11.031,8.345,24.863,9.351,36.312c0.411,4.851,0.808,21.405,0.609,23.34c-0.198,2.094,-1.162,4.552,-2.777,5.216l-0.808,0.332l-37.688,0.029C44.126,1034.06,42.029,1034.04,41.349,1033.81z" fill="#F7DA8E"/>
    <path d="M7.971,16l-2.166,-0.005l-0.19,-0.095c-0.285,-0.141,-0.447,-0.385,-0.478,-0.724c-0.021,-0.221,0.068,-0.522,0.165,-0.722c0.147,-0.302,0.338,-0.509,0.73,-0.789c0.125,-0.09,0.293,-0.255,0.365,-0.359c0.051,-0.072,0.108,-0.179,0.149,-0.276c-0.195,-0.425,-0.166,-0.928,0.071,-1.318c-0.052,-0.071,-0.108,-0.159,-0.144,-0.231c-0.072,-0.148,-0.089,-0.238,-0.091,-0.39l-0.06,-0.063c-0.618,-0.65,-1.21,-1.522,-1.665,-2.455c-0.424,-0.871,-0.721,-1.733,-0.933,-2.715c-0.252,-1.17,-0.297,-2.613,-0.305,-3.179c-0.008,-0.53,-0.004,-0.632,0.023,-0.781c0.032,-0.162,0.116,-0.686,0.576,-0.848C4.147,1.005,4.162,1,5.996,1c0.512,0,5.827,0,5.827,0l0.04,0l0.163,0.067c0.317,0.13,0.519,0.52,0.555,0.895c0.023,0.229,-0.019,1.922,-0.061,2.414c-0.104,1.188,-0.476,2.633,-0.97,3.771c-0.209,0.479,-0.503,1.032,-0.766,1.444c-0.34,0.529,-0.63,0.902,-1.148,1.472c0.008,0.238,-0.101,0.434,-0.251,0.651c0.089,0.151,0.154,0.324,0.184,0.491c0.052,0.283,0.017,0.546,-0.11,0.823c0.038,0.085,0.095,0.199,0.134,0.257c0.08,0.119,0.255,0.287,0.445,0.426c0.461,0.342,0.683,0.65,0.793,1.099c0.117,0.468,-0.049,0.761,-0.209,0.925c-0.111,0.113,-0.208,0.172,-0.358,0.219c-0.136,0.042,-0.157,0.049,-1.22,0.049C8.765,16.001,8.415,16.001,7.971,16zM7.991,15.004c0.476,0.001,0.841,0.001,1.123,0.001c0.398,0,0.739,-0.001,0.857,-0.007c-0.001,-0.015,-0.005,-0.038,-0.013,-0.068c-0.053,-0.215,-0.131,-0.351,-0.454,-0.591c-0.274,-0.201,-0.52,-0.444,-0.658,-0.649c-0.099,-0.147,-0.231,-0.42,-0.279,-0.573l-0.079,-0.255l0.14,-0.281c0.062,-0.124,0.076,-0.202,0.056,-0.313c-0.015,-0.085,-0.06,-0.186,-0.108,-0.246c-0.001,-0.001,-0.077,-0.094,-0.099,-0.125l-0.007,-0.01c-0.184,-0.281,-0.004,-0.531,0.141,-0.733c0.067,-0.095,0.1,-0.148,0.116,-0.177l-0.08,-0.262l0.315,-0.347c0.491,-0.541,0.75,-0.872,1.065,-1.362c0.24,-0.374,0.507,-0.879,0.699,-1.317c0.458,-1.056,0.803,-2.393,0.899,-3.491c0.045,-0.535,0.075,-2.02,0.062,-2.149c-0.002,-0.025,-0.006,-0.041,-0.009,-0.051c0,0,-5.12,-0.004,-5.631,-0.004c-0.903,0,-1.496,0.001,-1.709,0.008c-0.004,0.015,-0.008,0.034,-0.013,0.058c-0.01,0.056,-0.014,0.023,-0.007,0.499c0.015,1.124,0.122,2.247,0.285,3.004c0.197,0.909,0.471,1.708,0.863,2.512c0.416,0.853,0.952,1.645,1.508,2.23l0.308,0.324c0,0,0,0.342,0,0.356c0,0,0,0,0,0c0.005,0.011,0.044,0.073,0.077,0.116c0.002,0.003,0.106,0.131,0.16,0.22l0.241,0.382l-0.311,0.297c-0.142,0.135,-0.173,0.39,-0.072,0.579l0.15,0.28l-0.102,0.293c-0.068,0.192,-0.179,0.41,-0.29,0.569c-0.13,0.188,-0.368,0.425,-0.579,0.577c-0.323,0.232,-0.384,0.326,-0.446,0.453c-0.046,0.094,-0.071,0.205,-0.077,0.248L7.991,15.004z" fill="#E57428"/>
    <path d="M4.674,9.522C2.686,8.283,1.3,6.636,0.903,5.023C0.826,4.705,0.806,4.528,0.8,4.097l-0.006,-0.393l0.055,-0.229c0.062,-0.266,0.119,-0.417,0.213,-0.579c0.178,-0.305,0.455,-0.498,0.829,-0.579c0.338,-0.073,0.681,-0.022,0.949,0.14c0.043,0.026,0.084,0.055,0.124,0.087c0,0.028,0.001,0.058,0.001,0.088c0.005,0.364,0.025,1.081,0.104,1.865c-0.15,-0.168,-0.363,-0.393,-0.481,-0.505c-0.084,-0.08,-0.158,-0.113,-0.248,-0.113c-0.09,0,-0.126,0.022,-0.175,0.103c-0.061,0.102,-0.079,0.379,-0.04,0.63c0.082,0.51,0.284,1.003,0.616,1.492c0.236,0.347,0.436,0.59,0.874,1.053c0.175,0.541,0.384,1.06,0.638,1.582C4.383,9.007,4.525,9.268,4.674,9.522zM15.147,3.47c-0.03,-0.123,-0.075,-0.278,-0.1,-0.341c-0.1,-0.258,-0.265,-0.477,-0.455,-0.608c-0.284,-0.197,-0.722,-0.283,-1.063,-0.208c-0.189,0.041,-0.346,0.113,-0.495,0.232c-0.009,0.631,-0.039,1.502,-0.066,1.827c-0.003,0.03,-0.006,0.06,-0.009,0.09c0.048,-0.054,0.1,-0.11,0.15,-0.162c0.307,-0.319,0.335,-0.346,0.409,-0.386c0.078,-0.044,0.199,-0.046,0.249,-0.008c0.179,0.141,0.164,0.672,-0.036,1.263c-0.212,0.63,-0.595,1.192,-1.346,1.984c-0.128,0.4,-0.272,0.788,-0.427,1.146c-0.172,0.394,-0.399,0.836,-0.622,1.217c0.051,-0.031,0.1,-0.062,0.144,-0.09c1.393,-0.887,2.559,-2.086,3.165,-3.248c0.26,-0.5,0.45,-1.045,0.509,-1.461c0.009,-0.067,0.023,-0.165,0.03,-0.216c0.009,-0.051,0.015,-0.255,0.015,-0.45v-0.356L15.147,3.47z" fill="#F7DA8E"/>
    <path d="M15.7,3.641v0.409c0,0.118,-0.002,0.405,-0.021,0.521c-0.007,0.048,-0.02,0.142,-0.029,0.206c-0.066,0.465,-0.274,1.065,-0.556,1.607c-0.646,1.24,-1.857,2.487,-3.322,3.42c-0.24,0.154,-0.621,0.375,-0.936,0.547c0.124,-0.17,0.243,-0.344,0.368,-0.539c0.211,-0.329,0.439,-0.743,0.633,-1.143c1.076,-0.789,1.973,-1.767,2.458,-2.7c0.237,-0.457,0.411,-0.949,0.463,-1.317c0.009,-0.066,0.023,-0.166,0.031,-0.218l0.002,-0.01c0.002,-0.018,0.009,-0.167,0.009,-0.374v-0.303l-0.041,-0.172c-0.033,-0.132,-0.069,-0.251,-0.079,-0.274c-0.07,-0.18,-0.177,-0.328,-0.294,-0.409c-0.137,-0.095,-0.351,-0.156,-0.546,-0.156c-0.06,0,-0.115,0.006,-0.165,0.016l-0.007,0.002c-0.173,0.038,-0.339,0.105,-0.599,0.479c0.014,-0.478,0.021,-0.967,0.016,-1.222c0.122,-0.061,0.252,-0.106,0.398,-0.138c0.113,-0.025,0.233,-0.037,0.358,-0.037c0.382,0,0.768,0.115,1.057,0.315c0.266,0.183,0.485,0.473,0.618,0.815c0.049,0.119,0.111,0.368,0.118,0.396L15.7,3.641zM12.724,7.502c0.829,-0.868,1.245,-1.482,1.483,-2.188c0.105,-0.31,0.408,-1.352,-0.115,-1.764c-0.103,-0.079,-0.234,-0.121,-0.379,-0.121c-0.127,0,-0.255,0.032,-0.359,0.09c-0.1,0.054,-0.155,0.097,-0.303,0.247c-0.01,0.256,-0.022,0.476,-0.033,0.607c-0.025,0.281,-0.064,0.576,-0.116,0.877c0.144,-0.104,0.241,-0.239,0.285,-0.303c0.027,-0.038,0.145,-0.175,0.271,-0.308c-0.021,0.111,-0.054,0.241,-0.104,0.388c-0.125,0.369,-0.32,0.718,-0.638,1.124c-0.176,0.73,-0.413,1.459,-0.687,2.1c0.074,-0.078,0.155,-0.165,0.246,-0.266C12.388,7.858,12.59,7.642,12.724,7.502zM2.853,3.667c-0.168,-0.16,-0.35,-0.237,-0.558,-0.237c-0.247,0,-0.431,0.105,-0.561,0.322c-0.184,0.308,-0.114,0.83,-0.098,0.933c0.094,0.581,0.319,1.128,0.688,1.673c0.264,0.388,0.484,0.652,0.981,1.174c0.149,0.156,0.356,0.379,0.463,0.496c0.081,0.09,0.156,0.17,0.226,0.244c-0.296,-0.677,-0.523,-1.362,-0.699,-2.108c-0.078,-0.101,-0.15,-0.201,-0.226,-0.312c-0.273,-0.402,-0.446,-0.801,-0.527,-1.214c0.13,0.141,0.247,0.272,0.27,0.305c0.048,0.068,0.152,0.214,0.308,0.32c-0.077,-0.509,-0.125,-1.028,-0.154,-1.484C2.923,3.736,2.885,3.697,2.853,3.667zM5.131,10.318c-0.351,-0.49,-0.675,-1.034,-0.951,-1.598c-0.011,-0.022,-0.02,-0.044,-0.031,-0.066C2.651,7.559,1.605,6.209,1.29,4.925c-0.068,-0.28,-0.084,-0.426,-0.09,-0.82l-0.005,-0.334l0.042,-0.175c0.051,-0.218,0.091,-0.328,0.162,-0.451c0.113,-0.194,0.282,-0.309,0.532,-0.363c0.068,-0.015,0.137,-0.022,0.205,-0.022c0.153,0,0.295,0.037,0.408,0.106c0.126,0.078,0.237,0.194,0.375,0.395c-0.01,-0.246,-0.015,-0.453,-0.017,-0.601c-0.004,-0.308,-0.006,-0.483,0.001,-0.615c-0.231,-0.116,-0.494,-0.177,-0.769,-0.177c-0.131,0,-0.263,0.014,-0.392,0.042c-0.498,0.108,-0.872,0.372,-1.114,0.786c-0.118,0.203,-0.189,0.392,-0.26,0.695L0.3,3.673l0.007,0.446c0.007,0.461,0.03,0.67,0.116,1.019c0.444,1.807,1.988,3.599,4.236,4.917C4.764,10.117,4.949,10.221,5.131,10.318z" fill="#E57428"/>
  </g>
</svg>
