<?xml version="1.0" encoding="UTF-8"?>
<!DOCTYPE svg PUBLIC "-//W3C//DTD SVG 1.1//EN" "http://www.w3.org/Graphics/SVG/1.1/DTD/svg11.dtd">
<svg version="1.1" id="Layer_1" xmlns="http://www.w3.org/2000/svg" xmlns:xlink="http://www.w3.org/1999/xlink" x="0px" y="0px" width="32px" height="32px" viewBox="0 0 32 32" enable-background="new 0 0 32 32" xml:space="preserve">
  <g id="icon">
    <path d="M5.5,29.25c-1.516,0,-2.75,-1.234,-2.75,-2.75c0,-1.516,1.234,-2.75,2.75,-2.75s2.75,1.234,2.75,2.75C8.25,28.016,7.016,29.25,5.5,29.25zM22.9,25.75c-1.516,0,-2.75,-1.234,-2.75,-2.75s1.234,-2.75,2.75,-2.75s2.75,1.234,2.75,2.75S24.416,25.75,22.9,25.75zM9,11.75c-1.516,0,-2.75,-1.234,-2.75,-2.75S7.484,6.25,9,6.25s2.75,1.234,2.75,2.75S10.516,11.75,9,11.75zM26.5,8.25c-1.516,0,-2.75,-1.234,-2.75,-2.75s1.234,-2.75,2.75,-2.75c1.516,0,2.75,1.234,2.75,2.75S28.016,8.25,26.5,8.25z" fill="#EF3E3B"/>
  </g>
</svg>
