<?xml version="1.0" encoding="UTF-8"?>
<!DOCTYPE svg PUBLIC "-//W3C//DTD SVG 1.1//EN" "http://www.w3.org/Graphics/SVG/1.1/DTD/svg11.dtd">
<svg version="1.1" id="Layer_1" xmlns="http://www.w3.org/2000/svg" xmlns:xlink="http://www.w3.org/1999/xlink" x="0px" y="0px" width="32px" height="32px" viewBox="0 0 32 32" enable-background="new 0 0 32 32" xml:space="preserve">
  <g id="icon">
    <path d="M18.385,13.151l-0.103,-11.556l-1,0.009l0.104,11.65l-2.489,1.55c0.497,0.022,0.974,0.125,1.417,0.296l1.651,-1.028l5.872,1.659l0.074,-0.043c0.468,-0.275,1.036,-0.047,1.224,0.41l3.695,1.044l0.272,-0.962L18.385,13.151z" fill="#92CBEE"/>
    <polygon points="17.74,1.084 7.053,4.949 8.326,14.8 9.334,14.8 8.147,5.616 17.825,2.116 29.851,4.331 28.488,16.438 25.2,19.914 25.2,21.369 29.444,16.882 30.949,3.517" fill="#228BCB" stroke-linejoin="miter"/>
    <polygon points="21.33,17.203 22.346,16.606 22.528,9.494 30.667,4.347 30.133,3.501 21.944,8.681 7.732,4.8 7.468,5.765 21.525,9.603" fill="#228BCB" stroke-linejoin="miter"/>
    <polyline points="17.5,21.423 23.5,17.9 23.5,29.1 17.5,25.577" fill="#FFFFFF" stroke="#383838" stroke-width="1" stroke-miterlimit="1" stroke-linejoin="miter"/>
    <path d="M14.7,30.5H4.3c-1.546,0,-2.8,-1.254,-2.8,-2.8v-8.4c0,-1.546,1.254,-2.8,2.8,-2.8h10.4c1.546,0,2.8,1.254,2.8,2.8v8.4C17.5,29.246,16.246,30.5,14.7,30.5z" fill="#FFFFFF" stroke="#383838" stroke-width="1" stroke-miterlimit="1"/>
  </g>
</svg>
