<?xml version="1.0" encoding="UTF-8"?>
<!DOCTYPE svg PUBLIC "-//W3C//DTD SVG 1.1//EN" "http://www.w3.org/Graphics/SVG/1.1/DTD/svg11.dtd">
<svg version="1.1" id="Layer_1" xmlns="http://www.w3.org/2000/svg" xmlns:xlink="http://www.w3.org/1999/xlink" x="0px" y="0px" width="32px" height="32px" viewBox="0 0 32 32" enable-background="new 0 0 32 32" xml:space="preserve">
  <g id="icon">
    <polygon points="30.5,30.5 8.5,30.5 8.5,1.5 22.5,1.5 30.5,9.5" fill="#FFFFFF" stroke-linejoin="miter"/>
    <path d="M22.707,1H8v12h1V2h13v8h8v20H9v-2H8v3h23V9.293L22.707,1zM23,9V2.707L29.293,9H23z" fill="#383838"/>
    <rect x="1.5" y="15.5" width="24" height="10" fill="#FFFFFF" stroke="#228BCB" stroke-width="1" stroke-miterlimit="1"/>
    <path d="M9.231,20.5c0,0.474,-0.067,0.897,-0.201,1.269c-0.134,0.371,-0.321,0.686,-0.562,0.943c-0.241,0.257,-0.529,0.453,-0.864,0.587c-0.335,0.134,-0.705,0.201,-1.111,0.201H4.5v-6h1.994c0.405,0,0.776,0.067,1.111,0.201c0.335,0.134,0.623,0.33,0.864,0.587c0.241,0.257,0.428,0.571,0.562,0.943C9.164,19.603,9.231,20.026,9.231,20.5zM17.522,17.034l-1.6,6.466h-0.044l-1.594,-6h-0.043l-1.571,6h-0.044l-1.587,-6.452M22.4,20.5h-2.9v3.5M23,17.5h-3.5v3.1" fill="none" stroke="#228BCB" stroke-width="1" stroke-miterlimit="1"/>
  </g>
</svg>
