<?xml version="1.0" encoding="UTF-8"?>
<!DOCTYPE svg PUBLIC "-//W3C//DTD SVG 1.1//EN" "http://www.w3.org/Graphics/SVG/1.1/DTD/svg11.dtd">
<svg version="1.1" id="Layer_1" xmlns="http://www.w3.org/2000/svg" xmlns:xlink="http://www.w3.org/1999/xlink" x="0px" y="0px" width="32px" height="32px" viewBox="0 0 32 32" enable-background="new 0 0 32 32" xml:space="preserve">
  <g id="icon">
    <rect x="0.5" y="22.5" width="30" height="8" fill="#FFFFFF" stroke="#ED8730" stroke-width="1" stroke-miterlimit="1"/>
    <path d="M3,27H2v-4h1V27zM5,23H4v2h1V23zM7,23H6v2h1V23zM9,23H8v2h1V23zM11,23h-1v2h1V23zM13,27h-1v-4h1V27zM15,23h-1v2h1V23zM17,23h-1v2h1V23zM19,23h-1v2h1V23zM21,27h-1v-4h1V27zM29,27h-1v-4h1V27zM23,23h-1v2h1V23zM25,23h-1v2h1V23zM27,23h-1v2h1V23z" fill="#78797A"/>
    <path d="M13,4.352v1.972L8.044,3.556L13,0.8v2.052" fill="#238BCB"/>
    <path d="M23.3,13h1.945l-2.768,5.011L19.721,13H21.8" fill="#238BCB"/>
    <path d="M27,19.5H6.5V0" fill="none" stroke="#383838" stroke-width="1" stroke-miterlimit="1"/>
    <path d="M12.6,3.5c5.44,0,9.85,4.41,9.85,9.85" fill="none" stroke="#228BCB" stroke-width="1.1" stroke-miterlimit="1"/>
  </g>
</svg>
