<?xml version="1.0" encoding="UTF-8"?>
<!DOCTYPE svg PUBLIC "-//W3C//DTD SVG 1.1//EN" "http://www.w3.org/Graphics/SVG/1.1/DTD/svg11.dtd">
<svg version="1.1" id="Layer_1" xmlns="http://www.w3.org/2000/svg" xmlns:xlink="http://www.w3.org/1999/xlink" x="0px" y="0px" width="16px" height="16px" viewBox="0 0 16 16" enable-background="new 0 0 16 16" xml:space="preserve">
  <g id="icon">
    <rect x="6.5" y="0.5" width="9" height="15" fill="#FFFFFF"/>
    <circle cx="12.516" cy="4.511" r="1.084" fill="#F7DA8E" stroke="#E57428" stroke-width="0.8" stroke-linecap="round" stroke-miterlimit="1"/>
    <path d="M15.6,15.633H6.4v-4.997c1.563,-3.054,3.168,-2.907,4.809,0c0.966,-1.759,2.55,-1.634,4.391,1.032V15.633z" fill="#ACD8B1"/>
    <path d="M11.177,10.452c1.668,-2.06,2.985,-0.619,4.382,1.012M13.392,12.5c-2.958,-1.306,-4.1,-7.117,-6.892,-1.94" fill="none" stroke="#0BA04A" stroke-width="1" stroke-miterlimit="1"/>
    <rect x="6.5" y="0.5" width="9" height="15" fill="none" stroke="#383838" stroke-width="1" stroke-miterlimit="1"/>
    <path d="M0,0.5h5M0,15.5h5" fill="none" stroke="#787979" stroke-width="1" stroke-miterlimit="1"/>
    <path d="M2.5,6.5V2.117M4.7,4.345L2.498,2.117L0.397,4.245" fill="none" stroke="#228BCB" stroke-width="1" stroke-miterlimit="1"/>
    <path d="M2.5,13.9V9.517M0.397,11.771L2.498,13.9L4.7,11.671" fill="none" stroke="#228BCB" stroke-width="1" stroke-miterlimit="1"/>
  </g>
</svg>
