<?xml version="1.0" encoding="UTF-8"?>
<!DOCTYPE svg PUBLIC "-//W3C//DTD SVG 1.1//EN" "http://www.w3.org/Graphics/SVG/1.1/DTD/svg11.dtd">
<svg version="1.1" id="Layer_1" xmlns="http://www.w3.org/2000/svg" xmlns:xlink="http://www.w3.org/1999/xlink" x="0px" y="0px" width="16px" height="16px" viewBox="0 0 16 16" enable-background="new 0 0 16 16" xml:space="preserve">
  <g id="icon">
    <path d="M2.5,2.5H0.5V0.5h2V2.5zM2.5,11.5H0.5V9.5h2V11.5zM11.5,0.5H9.5v2h2V0.5zM15.5,13.5h-2v2h2V13.5zM15.5,5.5h-2v2h2V5.5zM7.5,13.5H5.5v2h2V13.5zM7.5,5.5H5.5v2h2V5.5z" fill="#C8C6C4" stroke="#383838" stroke-width="1" stroke-linecap="round" stroke-miterlimit="1"/>
    <polygon points="12.5,8.5 12.5,6.5 8.5,6.5 8.5,8.5 6.5,8.5 6.5,12.5 8.5,12.5 8.5,14.5 12.5,14.5 12.5,12.5 14.5,12.5 14.5,8.5" fill="#F7DA8E" stroke-linejoin="miter"/>
    <path d="M6,8.5h1v4H6V8.5zM8.5,7h4V6H8.5V7zM14,8.5v4h1V8.5H14zM8.5,15h4v-1H8.5V15z" fill="#E57428"/>
    <polygon points="8.5,3.5 8.5,1.5 3.5,1.5 3.5,3.5 1.5,3.5 1.5,8.5 3.5,8.5 3.5,10.5 5.5,10.5 5.5,8.5 4.5,8.5 4.5,4.5 8.5,4.5 8.5,5.5 10.5,5.5 10.5,3.5" fill="#FFFFFF" stroke-linejoin="miter"/>
    <path d="M1,8.5V3.5h1v5H1zM8.5,1H3.5v1h5V1zM3.5,11h2v-1H3.5V11zM10,3.5v2h1V3.5H10z" fill="#383838"/>
  </g>
</svg>
