<?xml version="1.0" encoding="UTF-8"?>
<!DOCTYPE svg PUBLIC "-//W3C//DTD SVG 1.1//EN" "http://www.w3.org/Graphics/SVG/1.1/DTD/svg11.dtd">
<svg version="1.1" id="Layer_1" xmlns="http://www.w3.org/2000/svg" xmlns:xlink="http://www.w3.org/1999/xlink" x="0px" y="0px" width="16px" height="16px" viewBox="0 0 16 16" enable-background="new 0 0 16 16" xml:space="preserve">
  <g id="icon">
    <path d="M11.236,7.032c-3.679,3.623,-5.788,5.237,-7.178,6.234c-0.876,0.628,-1.567,1.124,-2.507,2.049c-0.123,0.121,-0.268,0.185,-0.42,0.185c-0.243,0,-0.477,-0.165,-0.58,-0.411c-0.098,-0.233,-0.052,-0.476,0.124,-0.65c0.973,-0.958,1.485,-1.678,2.135,-2.59c0.995,-1.397,2.612,-3.509,6.164,-7.007" fill="#FFFFFF" stroke="#383838" stroke-width="1" stroke-miterlimit="1"/>
    <path d="M12.526,7.848c-0.288,0,-0.559,-0.11,-0.762,-0.311L8.26,4.087c-0.42,-0.414,-0.42,-1.088,0,-1.502c0.204,-0.201,0.474,-0.311,0.762,-0.311c0.288,0,0.559,0.11,0.762,0.311l0.216,0.213c0.042,-0.148,0.122,-0.283,0.235,-0.395c0.009,-0.009,0.956,-0.94,1.016,-0.994c0.663,-0.595,1.393,-0.91,2.111,-0.91c0.859,0,1.605,0.463,1.945,1.209c0.409,0.896,0.151,1.989,-0.692,2.924c-0.07,0.077,-1.043,1.039,-1.052,1.048c-0.113,0.111,-0.251,0.19,-0.401,0.231l0.124,0.122c0.42,0.414,0.42,1.088,0,1.502C13.085,7.737,12.814,7.848,12.526,7.848z" fill="#FFFFFF" stroke="#228BCB" stroke-width="1" stroke-miterlimit="1"/>
  </g>
</svg>
