<?xml version="1.0" encoding="UTF-8"?>
<!DOCTYPE svg PUBLIC "-//W3C//DTD SVG 1.1//EN" "http://www.w3.org/Graphics/SVG/1.1/DTD/svg11.dtd">
<svg version="1.1" id="Layer_1" xmlns="http://www.w3.org/2000/svg" xmlns:xlink="http://www.w3.org/1999/xlink" x="0px" y="0px" width="16px" height="16px" viewBox="0 0 16 16" enable-background="new 0 0 16 16" xml:space="preserve">
  <g id="icon">
    <path d="M15.19,4.629l-2.114,-2.116c-0.413,-0.414,-1.084,-0.414,-1.497,0l-9.067,9.074c-0.413,0.414,-0.413,1.085,0,1.498l2.114,2.116c0.413,0.414,1.084,0.414,1.497,0l9.067,-9.074C15.603,5.713,15.603,5.043,15.19,4.629z" fill="#F7DA8E" stroke="#E57428" stroke-width="1" stroke-linecap="round" stroke-miterlimit="1"/>
    <path d="M5.672,10.008l0.554,-0.554l2.023,2.023l-0.554,0.554L5.672,10.008zM9.454,6.225l0.554,-0.554l2.023,2.023l-0.554,0.554L9.454,6.225z" fill="#383838"/>
    <path d="M8.935,10.485c-0.124,0,-0.249,-0.047,-0.344,-0.142l-0.104,-0.104c-0.19,-0.19,-0.19,-0.498,0,-0.688c0.19,-0.19,0.498,-0.19,0.688,0l0.104,0.104c0.19,0.19,0.19,0.498,0,0.688C9.184,10.438,9.06,10.485,8.935,10.485zM9.972,9.449c-0.124,0,-0.249,-0.047,-0.344,-0.142l-0.104,-0.104c-0.19,-0.19,-0.19,-0.498,0,-0.688c0.19,-0.19,0.498,-0.19,0.688,0l0.104,0.104c0.19,0.19,0.19,0.498,0,0.688C10.22,9.402,10.096,9.449,9.972,9.449zM7.899,9.449c-0.124,0,-0.249,-0.047,-0.344,-0.142l-0.104,-0.104c-0.19,-0.19,-0.19,-0.498,0,-0.688c0.19,-0.19,0.498,-0.19,0.688,0l0.104,0.104c0.19,0.19,0.19,0.498,0,0.688C8.148,9.402,8.023,9.449,7.899,9.449zM8.935,8.413c-0.124,0,-0.249,-0.047,-0.344,-0.142l-0.104,-0.104c-0.19,-0.19,-0.19,-0.498,0,-0.688c0.19,-0.19,0.498,-0.19,0.688,0l0.104,0.104c0.19,0.19,0.19,0.498,0,0.688C9.184,8.365,9.06,8.413,8.935,8.413z" fill="#383838"/>
    <path d="M4.071,1.233L4.6,2.794l1.091,-0.343l-0.343,1.091l1.561,0.529L5.348,4.6L5.69,5.69L4.6,5.348l-0.529,1.561l-0.529,-1.561L2.451,5.69L2.794,4.6l-1.561,-0.529l1.561,-0.529l-0.343,-1.091l1.091,0.343L4.071,1.233z" fill="#FFFFFF" stroke="#ED8730" stroke-width="0.8" stroke-miterlimit="1"/>
  </g>
</svg>
