<?xml version="1.0" encoding="UTF-8"?>
<!DOCTYPE svg PUBLIC "-//W3C//DTD SVG 1.1//EN" "http://www.w3.org/Graphics/SVG/1.1/DTD/svg11.dtd">
<svg version="1.1" id="Layer_1" xmlns="http://www.w3.org/2000/svg" xmlns:xlink="http://www.w3.org/1999/xlink" x="0px" y="0px" width="16px" height="16px" viewBox="0 0 16 16" enable-background="new 0 0 16 16" xml:space="preserve">
  <g id="icon">
    <path d="M3.236,10.833l-0.289,0.288C2.67,11.397,1.1,14.9,1.1,14.9s3.471,-1.602,3.747,-1.878l0.246,-0.245L3.236,10.833z" fill="#FFFFFF"/>
    <path d="M13.401,0.693L3.236,10.833l1.858,1.944L15.307,2.599C15.84,2.066,13.934,0.16,13.401,0.693z" fill="#C8C6C4"/>
    <path d="M-0.002,16.013l0.546,-1.218c0.743,-1.659,1.69,-3.696,1.975,-3.981l0,0L13.12,0.241c0.468,-0.468,1.265,-0.253,2.079,0.561c0.814,0.814,1.029,1.611,0.561,2.079L5.152,13.45c-0.283,0.283,-2.3,1.246,-3.943,2.004L-0.002,16.013zM3.162,11.63c-0.207,0.357,-0.661,1.297,-1.144,2.341c1.036,-0.493,1.968,-0.955,2.321,-1.164L3.162,11.63zM3.848,10.901l1.22,1.22l6.055,-6.034l-1.23,-1.217L3.848,10.901zM10.601,4.165l1.231,1.217l3.161,-3.15c-0.034,-0.127,-0.187,-0.409,-0.502,-0.724c-0.315,-0.315,-0.598,-0.468,-0.724,-0.502L10.601,4.165z" fill="#383838"/>
    <path d="M13.093,0.977l-2.304,0.16c-0.314,0.022,-0.624,0.169,-0.859,0.409L6.682,4.798c0.511,0.284,1.115,-0.373,1.074,-0.99" fill="none" stroke="#383838" stroke-width="1" stroke-miterlimit="1"/>
  </g>
</svg>
