<?xml version="1.0" encoding="UTF-8"?>
<!DOCTYPE svg PUBLIC "-//W3C//DTD SVG 1.1//EN" "http://www.w3.org/Graphics/SVG/1.1/DTD/svg11.dtd">
<svg version="1.1" id="Layer_1" xmlns="http://www.w3.org/2000/svg" xmlns:xlink="http://www.w3.org/1999/xlink" x="0px" y="0px" width="16px" height="16px" viewBox="0 0 16 16" enable-background="new 0 0 16 16" xml:space="preserve">
  <g id="icon">
    <path d="M5.5,2.7v2.3224c3.0751,0.2551,5.5,2.8377,5.5,5.9776c0,1.0535,-0.2738,2.0438,-0.7527,2.9053c2.385,0.0898,4.8265,-0.6602,5.2527,-2.2053V2.7C14.2311,-0.4441,6.336,0.1604,5.5,2.7z" fill="#FFFFFF" opacity="0.5"/>
    <path d="M16,2.8415C16,1.2216,13.6435,0,10.5185,0C9.1068,0,7.7718,0.2602,6.7593,0.7327c-1.1337,0.5291,-1.758,1.278,-1.758,2.1087c0,0.0244,0.0005,0.0488,0.0016,0.073H5V5c0.0947,0,0.1887,0.0028,0.2823,0.0072c0.0345,0.0016,0.0688,0.0044,0.1032,0.0065c0.0579,0.0037,0.1157,0.0078,0.1731,0.0132c0.0421,0.0039,0.0841,0.0085,0.126,0.0133c0.049,0.0056,0.0979,0.0119,0.1466,0.0187c0.0445,0.0062,0.0889,0.0125,0.1331,0.0196c0.0119,0.0019,0.024,0.0033,0.0359,0.0053v-0.6295c0.2243,0.1521,0.4845,0.2905,0.7786,0.413C7.7587,5.2753,9.0869,5.5,10.5185,5.5c1.4297,0,2.7521,-0.225,3.7236,-0.6334c0.2855,-0.1201,0.5388,-0.2555,0.7579,-0.4043v1.3039c0,0.2378,-0.3685,0.6687,-1.1776,1.0528c-0.9117,0.4328,-2.122,0.681,-3.3206,0.681c-0.2165,0,-0.4335,-0.0084,-0.6491,-0.0242c0.0136,0.0187,0.026,0.0382,0.0394,0.057c0.038,0.0534,0.0756,0.1071,0.1118,0.1617c0.0185,0.0279,0.0362,0.0563,0.0543,0.0846c0.0345,0.0539,0.0685,0.1081,0.1013,0.1631c0.018,0.0303,0.0353,0.0611,0.0528,0.0918c0.031,0.0542,0.0615,0.1086,0.0908,0.1638c0.0172,0.0325,0.0337,0.0653,0.0503,0.0982c0.0278,0.0547,0.0551,0.1097,0.0812,0.1654c0.006,0.0128,0.0128,0.0252,0.0187,0.0381c0.0161,0.0001,0.0322,0.0006,0.0484,0.0006c1.8111,0,3.4846,-0.4883,4.4982,-1.2055v1.5013c0,0.4903,-1.5081,1.5685,-4.0221,1.6922c0.0031,0.0361,0.0046,0.0726,0.007,0.1089c0.0027,0.0412,0.0061,0.0821,0.008,0.1235c0.0044,0.0927,0.0071,0.1858,0.0071,0.2796c0,0.0929,-0.0028,0.1852,-0.007,0.277c-0.0016,0.0354,-0.0042,0.0706,-0.0065,0.1059c-0.0023,0.0352,-0.0036,0.0706,-0.0065,0.1057c1.6245,-0.0762,3.0963,-0.5346,4.02,-1.181v1.4882c0,0.5206,-1.6994,1.7042,-4.4982,1.7042c-0.0159,0,-0.0319,-0.0005,-0.0478,-0.0006c-0.0063,0.0137,-0.0135,0.0269,-0.0199,0.0406c-0.0236,0.0503,-0.0482,0.0999,-0.0731,0.1494c-0.0184,0.0365,-0.0368,0.073,-0.0559,0.1091c-0.0253,0.0477,-0.0514,0.0949,-0.0779,0.1418c-0.0209,0.037,-0.0419,0.0738,-0.0635,0.1102c-0.0265,0.0447,-0.0538,0.0889,-0.0815,0.1329c-0.0236,0.0375,-0.0473,0.0748,-0.0717,0.1117c-0.0278,0.0422,-0.0563,0.0838,-0.0851,0.1253c-0.014,0.0201,-0.027,0.0408,-0.0413,0.0607c0.2036,0.0123,0.4097,0.0188,0.6177,0.0188c2.929,0,5.4982,-1.2636,5.4982,-2.7042V8.8271h-0.0004c0.0002,-0.0104,0.0004,-0.0208,0.0004,-0.0313V2.9145h-0.0016C15.9995,2.8902,16,2.8659,16,2.8415zM10.5185,4.5c-2.7901,0,-4.5171,-0.8609,-4.5171,-1.6585C6.0013,1.9722,7.9331,1,10.5185,1C13.1595,1,15,1.9705,15,2.8415C15,3.6391,13.2866,4.5,10.5185,4.5z" fill="#EEAD56"/>
    <circle cx="5" cy="11" r="4.5" fill="#FFFFFF" opacity="0.5"/>
    <path d="M5,6C2.243,6,0,8.243,0,11s2.243,5,5,5c2.757,0,5,-2.243,5,-5S7.757,6,5,6zM5,15c-2.2056,0,-4,-1.7944,-4,-4s1.7944,-4,4,-4s4,1.7944,4,4S7.2056,15,5,15z" fill="#EEAD56"/>
    <path d="M6.3256,12.7708c-0.0548,0.036,-0.1261,0.0715,-0.2117,0.1055c-0.0896,0.0355,-0.1977,0.0661,-0.3213,0.0908c-0.1205,0.0241,-0.2651,0.0364,-0.4298,0.0364c-0.2453,0,-0.4693,-0.0341,-0.6659,-0.1013c-0.1664,-0.0569,-0.3364,-0.1972,-0.4809,-0.327c-0.0198,-0.0178,-0.0429,-0.0415,-0.0684,-0.0717h1.4597v-1H3.7181c-0.0037,-0.0266,-0.0073,-0.0536,-0.0104,-0.0825l-0.0072,-0.057c-0.0068,-0.0902,-0.0104,-0.2408,-0.0104,-0.341c0,-0.0585,0.0012,-0.116,0.0038,-0.1728l0.0022,-0.0529c0.0022,-0.0557,0.0048,-0.1288,0.0084,-0.1717l0.0079,-0.0624c0.0025,-0.0207,0.0065,-0.0396,0.0094,-0.0598h2.0986v-1H4.1627c0.0268,-0.031,0.0507,-0.0554,0.071,-0.0731c0.1455,-0.1279,0.3163,-0.2661,0.4795,-0.3208c0.1962,-0.0657,0.4206,-0.099,0.6668,-0.099c0.1533,0,0.2905,0.0106,0.4077,0.0315c0.1195,0.0214,0.2234,0.0474,0.3083,0.0771c0.0811,0.0285,0.1485,0.0581,0.2004,0.088l0.4993,-0.8664c-0.1053,-0.0607,-0.2293,-0.1163,-0.369,-0.1653c-0.1354,-0.0474,-0.2911,-0.087,-0.463,-0.1178c-0.1752,-0.0313,-0.3716,-0.0471,-0.5836,-0.0471c-0.3544,0,-0.6855,0.0507,-0.9844,0.1508c-0.3318,0.1112,-0.6018,0.3242,-0.8223,0.5181c-0.2082,0.1831,-0.3956,0.4476,-0.5731,0.8083c-0.0026,0.0053,-0.0044,0.0106,-0.007,0.0158h-0.5481v1h0.2672l-0.0027,0.0215c-0.0051,0.0542,-0.0096,0.1558,-0.0126,0.2322l-0.002,0.0483c-0.0032,0.0712,-0.0048,0.1438,-0.0048,0.2175c0,0.123,0.0046,0.311,0.0146,0.433l0.0057,0.0475h-0.5142v1h0.7917c0.1675,0.3607,0.3507,0.6281,0.5598,0.8158c0.2194,0.1971,0.489,0.4141,0.8254,0.5291c0.301,0.1029,0.6339,0.1551,0.9895,0.1551c0.2305,0,0.4413,-0.0188,0.6262,-0.0559c0.1823,-0.0365,0.3483,-0.0842,0.4937,-0.1418c0.1485,-0.0589,0.2803,-0.1259,0.3917,-0.199L6.3256,12.7708z" fill="#EEAD56"/>
  </g>
</svg>
