<?xml version="1.0" encoding="UTF-8"?>
<!DOCTYPE svg PUBLIC "-//W3C//DTD SVG 1.1//EN" "http://www.w3.org/Graphics/SVG/1.1/DTD/svg11.dtd">
<svg version="1.1" id="Layer_1" xmlns="http://www.w3.org/2000/svg" xmlns:xlink="http://www.w3.org/1999/xlink" x="0px" y="0px" width="16px" height="16px" viewBox="0 0 16 16" enable-background="new 0 0 16 16" xml:space="preserve">
  <g id="icon">
    <rect x="0.5" y="6.5" width="9" height="9" fill="#FFFFFF" opacity="0.5"/>
    <path d="M10,16H0V6h10V16zM1,15h8V7H1V15z" fill="#6486C4"/>
    <polygon points="7.6104,8 2.3896,8 2.0256,9.0919 2.9744,9.4081 3.1104,9 4.5,9 4.5,13 3.75,13 3.75,14 6.2,14 6.2,13 5.5,13 5.5,9 6.8896,9 7.0256,9.4081 7.9744,9.0919" fill="#6486C4" stroke-linejoin="miter"/>
    <path d="M3,5V1h7v4H3zM11,5.0094V15h3V5L11,5.0094z" fill="#FFFFFF" opacity="0.4"/>
    <polygon points="10.3625,0 2,0 2,5 3,5 3,1 10,1 10,5 11,5 11,5.0094 14,5 14,15 11,15 11,16 15,16 15,4.65" fill="#6D6E71" stroke-linejoin="miter"/>
  </g>
</svg>
