<?xml version="1.0" encoding="UTF-8"?>
<!DOCTYPE svg PUBLIC "-//W3C//DTD SVG 1.1//EN" "http://www.w3.org/Graphics/SVG/1.1/DTD/svg11.dtd">
<svg version="1.1" id="Layer_1" xmlns="http://www.w3.org/2000/svg" xmlns:xlink="http://www.w3.org/1999/xlink" x="0px" y="0px" width="16px" height="16px" viewBox="0 0 16 16" enable-background="new 0 0 16 16" xml:space="preserve">
  <g id="icon">
    <rect x="1.5" y="0.5" width="13" height="10" fill="#FFFFFF" opacity="0.5"/>
    <path d="M15,11H1V0h14V11zM2,10h12V1H2V10z" fill="#6E6F72"/>
    <path d="M5.5,15H0v-1h5.5V15zM16,14h-5.5v1h5.5V14zM8.5,11H7.5v2.5h1V11z" fill="#6E6F72"/>
    <rect x="5" y="13" width="6" height="3" fill="#EEAC55"/>
    <path d="M13,5V2H9v1H6V2H3v3h3V4h1v4h2v1h4V6H9v1H8V4h1v1H13zM5,4H4V3h1V4zM10,7h2v1h-2V7zM10,3h2v1h-2V3z" fill="#6D6E71"/>
  </g>
</svg>
