<?xml version="1.0" encoding="UTF-8"?>
<!DOCTYPE svg PUBLIC "-//W3C//DTD SVG 1.1//EN" "http://www.w3.org/Graphics/SVG/1.1/DTD/svg11.dtd">
<svg version="1.1" id="Layer_1" xmlns="http://www.w3.org/2000/svg" xmlns:xlink="http://www.w3.org/1999/xlink" x="0px" y="0px" width="16px" height="16px" viewBox="0 0 16 16" enable-background="new 0 0 16 16" xml:space="preserve">
  <g id="icon">
    <rect x="2.5" y="3.5" width="3" height="1.5" fill="#FFFFFF" opacity="0.5"/>
    <polygon points="5.5,3.5 5.5,5 11,5 11,13.5 15.5,13.5 15.5,3.5" fill="#FFFFFF" stroke-linejoin="miter" opacity="0.5"/>
    <polygon points="2,3 2,5 3,5 3,4 15,4 15,13 11,13 11,14 16,14 16,3" fill="#6E6F72" stroke-linejoin="miter"/>
    <rect x="2" width="14" height="4" fill="#6486C4"/>
    <rect x="5" y="4" width="1" height="1" fill="#CC525E"/>
    <rect x="12" y="5" width="1" height="7" fill="#B7B7B7"/>
    <rect x="11" y="10" width="3" height="1" fill="#6486C4"/>
    <rect x="11" y="8" width="1" height="1" fill="#6486C4"/>
    <polygon points="11,5 11,6 13,6 14,7.1 14,6 14,5.5 14,5" fill="#6D6E71" stroke-linejoin="miter"/>
    <rect x="0.5" y="6.5" width="9" height="9" fill="#FFFFFF" opacity="0.5"/>
    <path d="M10,16H0V6h10V16zM1,15h8V7H1V15z" fill="#6486C4"/>
    <polygon points="7.6104,8 2.3896,8 2.0256,9.0919 2.9744,9.4081 3.1104,9 4.5,9 4.5,13 3.75,13 3.75,14 6.2,14 6.2,13 5.5,13 5.5,9 6.8896,9 7.0256,9.4081 7.9744,9.0919" fill="#6486C4" stroke-linejoin="miter"/>
    <rect x="3" y="4" width="2" height="1" fill="#CC525E" opacity="0.3"/>
  </g>
</svg>
