<?xml version="1.0" encoding="UTF-8"?>
<!DOCTYPE svg PUBLIC "-//W3C//DTD SVG 1.1//EN" "http://www.w3.org/Graphics/SVG/1.1/DTD/svg11.dtd">
<svg version="1.1" id="Layer_1" xmlns="http://www.w3.org/2000/svg" xmlns:xlink="http://www.w3.org/1999/xlink" x="0px" y="0px" width="16px" height="16px" viewBox="0 0 16 16" enable-background="new 0 0 16 16" xml:space="preserve">
  <g id="icon">
    <rect x="0.5" y="4.5" width="15" height="11" fill="#FFFFFF" opacity="0.5"/>
    <polygon points="15,15 1,15 1,5 0,5 0,16 16,16 16,5 15,5" fill="#6E6F72" stroke-linejoin="miter"/>
    <rect y="1" width="16" height="4" fill="#6485C3"/>
    <polygon points="5,5 5,7 1,7 1,8 5,8 5,10 1,10 1,11 5,11 5,13 1,13 1,14 5,14 5,15 6,15 6,5" fill="#CC525E" stroke-linejoin="miter"/>
    <rect x="1" y="5" width="4" height="10" fill="#CC525E" opacity="0.3"/>
  </g>
</svg>
