<?xml version="1.0" encoding="UTF-8"?>
<!DOCTYPE svg PUBLIC "-//W3C//DTD SVG 1.1//EN" "http://www.w3.org/Graphics/SVG/1.1/DTD/svg11.dtd">
<svg version="1.1" id="Layer_1" xmlns="http://www.w3.org/2000/svg" xmlns:xlink="http://www.w3.org/1999/xlink" x="0px" y="0px" width="16px" height="16px" viewBox="0 0 16 16" enable-background="new 0 0 16 16" xml:space="preserve">
  <g id="icon">
    <rect x="6.5" y="6.5" width="9" height="9" fill="#FFFFFF" opacity="0.5"/>
    <path d="M16,16H6V6h10V16zM7,15h8V7H7V15z" fill="#6486C4"/>
    <polygon points="12.7424,14 11.9189,14 11.0446,10.4958 10.1828,14 9.3571,14 8.0231,8.1104 8.9984,7.8896 9.793,11.3976 10.6323,7.9848 11.4487,7.9848 12.3068,11.4236 13.1126,7.9064 14.0874,8.1297" fill="#6486C4" stroke-linejoin="miter"/>
    <path d="M3.0881,10.0686l-0.7048,0.7094l1.23,1.222H1.95c-0.5238,0,-0.95,-0.4262,-0.95,-0.95V9H0v2.05C0,12.1252,0.8748,13,1.95,13h1.6116l-1.2783,1.2704l0.7049,0.7093l2.5212,-2.5055L3.0881,10.0686z" fill="#CC525E"/>
    <polygon points="0.5,2.5 0.5,8 5,8 5,5 10.5,5 10.5,2.5" fill="#FFFFFF" stroke-linejoin="miter" opacity="0.5"/>
    <polygon points="0,2 0,8 1,8 1,3 10,3 10,5 11,5 11,2" fill="#6E6F72" stroke-linejoin="miter"/>
    <rect width="11" height="3" fill="#6485C3"/>
    <polygon points="3,3 3,5 1,5 1,6 3,6 3,8 4,8 4,3" fill="#CC525E" stroke-linejoin="miter"/>
    <rect x="1" y="3" width="2" height="5" fill="#CC525E" opacity="0.3"/>
  </g>
</svg>
