<?xml version="1.0" encoding="UTF-8"?>
<!DOCTYPE svg PUBLIC "-//W3C//DTD SVG 1.1//EN" "http://www.w3.org/Graphics/SVG/1.1/DTD/svg11.dtd">
<svg version="1.1" id="Layer_1" xmlns="http://www.w3.org/2000/svg" xmlns:xlink="http://www.w3.org/1999/xlink" x="0px" y="0px" width="16px" height="16px" viewBox="0 0 16 16" enable-background="new 0 0 16 16" xml:space="preserve">
  <g id="icon">
    <path d="M15.6479,9.9955l-4.2184,-4.2184c-0.4021,-0.4021,-1.0566,-0.4021,-1.459,0L5.7521,9.9955c-0.4021,0.4022,-0.4021,1.0567,0,1.459l4.2184,4.2184c0.2011,0.2011,0.4653,0.3016,0.7295,0.3016c0.2642,0,0.5284,-0.1005,0.7295,-0.3016l4.2184,-4.2184C16.05,11.0522,16.05,10.3978,15.6479,9.9955zM10.7077,14c-0.3205,0,-0.5812,-0.2608,-0.5812,-0.5812s0.2608,-0.5812,0.5812,-0.5812s0.5812,0.2608,0.5812,0.5812S11.0282,14,10.7077,14zM12.5265,10.4181c-0.0935,0.2081,-0.2141,0.3942,-0.3586,0.5534c-0.131,0.1443,-0.2757,0.2739,-0.4304,0.3857c-0.1201,0.0868,-0.2314,0.1688,-0.3336,0.2462c-0.0617,0.0467,-0.1148,0.0925,-0.1584,0.1369v0.3574h-1.1191l0.0002,-0.4441c0.0064,-0.2312,0.0948,-0.4484,0.2555,-0.6282c0.0967,-0.1079,0.2131,-0.2135,0.3465,-0.3144c0.108,-0.0818,0.226,-0.1687,0.3534,-0.2608c0.092,-0.0664,0.1785,-0.144,0.2573,-0.2308c0.0652,-0.0718,0.1212,-0.1593,0.1664,-0.2599c0.0368,-0.0819,0.0555,-0.1888,0.0555,-0.3177c0,-0.0964,-0.0168,-0.1753,-0.0514,-0.2413c-0.0412,-0.0787,-0.0938,-0.1432,-0.1609,-0.1973c-0.1158,-0.0932,-0.2615,-0.1532,-0.4452,-0.1832c-0.025,-0.004,-0.0522,-0.0067,-0.0803,-0.0079c-0.1315,-0.0054,-0.2486,0.0045,-0.3478,0.0296c-0.0855,0.0217,-0.164,0.0506,-0.2333,0.086c-0.0737,0.0376,-0.1404,0.0799,-0.1982,0.1255c-0.0568,0.0448,-0.225,0.2038,-0.2903,0.2705l-0.8001,-0.7825c0.065,-0.0664,0.2785,-0.2729,0.3972,-0.3667c0.1152,-0.0908,0.2438,-0.1727,0.3825,-0.2435c0.1437,-0.0733,0.3008,-0.1319,0.467,-0.174c0.2044,-0.0518,0.4298,-0.0732,0.6699,-0.063c0.0725,0.0031,0.144,0.0103,0.213,0.0215c0.3751,0.0613,0.7005,0.2012,0.9676,0.4163c0.1866,0.1505,0.338,0.3352,0.4501,0.5495c0.1188,0.2267,0.1791,0.4827,0.1791,0.7605C12.6803,9.9298,12.6286,10.191,12.5265,10.4181z" fill="#EEAC55"/>
    <path d="M11.2456,12.0976h-1.1191l0.0002,-0.4441c0.0064,-0.2312,0.0948,-0.4485,0.2555,-0.6282c0.0967,-0.1079,0.2131,-0.2135,0.3465,-0.3144c0.108,-0.0818,0.226,-0.1687,0.3534,-0.2608c0.092,-0.0664,0.1785,-0.144,0.2573,-0.2308c0.0652,-0.0718,0.1212,-0.1593,0.1664,-0.2599c0.0368,-0.0819,0.0555,-0.1888,0.0555,-0.3177c0,-0.0964,-0.0168,-0.1753,-0.0514,-0.2413c-0.0412,-0.0787,-0.0938,-0.1432,-0.1609,-0.1973c-0.1158,-0.0932,-0.2615,-0.1532,-0.4452,-0.1832c-0.025,-0.004,-0.0522,-0.0067,-0.0803,-0.0079c-0.1315,-0.0054,-0.2486,0.0045,-0.3478,0.0296c-0.0855,0.0217,-0.164,0.0506,-0.2333,0.086c-0.0737,0.0376,-0.1404,0.0799,-0.1982,0.1255c-0.0568,0.0448,-0.225,0.2038,-0.2903,0.2705l-0.8001,-0.7825c0.065,-0.0664,0.2785,-0.2729,0.3972,-0.3667c0.1152,-0.0908,0.2438,-0.1727,0.3825,-0.2435c0.1437,-0.0733,0.3008,-0.1319,0.467,-0.174c0.2044,-0.0518,0.4298,-0.0732,0.6699,-0.0629c0.0725,0.0031,0.144,0.0103,0.2131,0.0215c0.3751,0.0613,0.7005,0.2012,0.9676,0.4163c0.1866,0.1505,0.338,0.3352,0.4501,0.5495c0.1188,0.2267,0.1791,0.4827,0.1791,0.7605c0,0.2881,-0.0517,0.5494,-0.1538,0.7765c-0.0935,0.2081,-0.2141,0.3942,-0.3586,0.5534c-0.131,0.1443,-0.2757,0.2739,-0.4304,0.3857c-0.1201,0.0868,-0.2314,0.1688,-0.3336,0.2462c-0.0617,0.0467,-0.1147,0.0925,-0.1584,0.1369V12.0976zM11.289,13.4188c0,-0.3205,-0.2608,-0.5812,-0.5812,-0.5812s-0.5812,0.2608,-0.5812,0.5812c0,0.3205,0.2608,0.5812,0.5812,0.5812S11.289,13.7392,11.289,13.4188z" fill="#48484A"/>
    <path d="M13.9667,0H2.0333C0.9122,0,0,0.9122,0,2.0333v5.9333C0,9.0878,0.9122,10,2.0333,10h2.5522c0.0679,-0.1783,0.1629,-0.3482,0.2822,-0.5053c0.0205,-0.0269,0.0419,-0.0533,0.0636,-0.0796c0.0363,-0.0431,0.0729,-0.086,0.1135,-0.1266L9.2633,5.07c0.3838,-0.3834,0.894,-0.5945,1.4368,-0.5945c0.5429,0,1.0531,0.2111,1.4364,0.5944L15,7.9334l0,0l0.3375,0.3375l0.1055,0.1055l0,0l0.3918,0.3918c0.106,-0.2461,0.1652,-0.5169,0.1652,-0.8015V2.0333C16,0.9122,15.0878,0,13.9667,0z" fill="#6486C4"/>
  </g>
</svg>
