<?xml version="1.0" encoding="UTF-8"?>
<!DOCTYPE svg PUBLIC "-//W3C//DTD SVG 1.1//EN" "http://www.w3.org/Graphics/SVG/1.1/DTD/svg11.dtd">
<svg version="1.1" id="Layer_1" xmlns="http://www.w3.org/2000/svg" xmlns:xlink="http://www.w3.org/1999/xlink" x="0px" y="0px" width="16px" height="16px" viewBox="0 0 16 16" enable-background="new 0 0 16 16" xml:space="preserve">
  <g id="icon">
    <path d="M6,3.0623c0,-0.3268,0.3769,-0.5096,0.6335,-0.3073l8.2076,6.4703c0.398,-0.277,0.659,-0.7371,0.659,-1.2587V2.0333C15.5,1.1865,14.8135,0.5,13.9667,0.5H2.0333C1.1865,0.5,0.5,1.1865,0.5,2.0333v5.9333C0.5,8.8135,1.1865,9.5,2.0333,9.5H6V3.0623z" fill="#6486C4"/>
    <path d="M6,9H2.0333C1.4636,9,1,8.5364,1,7.9667V2.0333C1,1.4636,1.4636,1,2.0333,1h11.9333C14.5364,1,15,1.4636,15,2.0333v5.9333c0,0.4069,-0.237,0.7586,-0.5797,0.927l0.826,0.6512c0.4593,-0.3731,0.7537,-0.9417,0.7537,-1.5782V2.0333C16,0.9122,15.0878,0,13.9667,0H2.0333C0.9122,0,0,0.9122,0,2.0333v5.9333C0,9.0878,0.9122,10,2.0333,10H6V9z" fill="#6486C4"/>
    <polygon points="7,4.5412 7.0154,14.5004 9.5378,12.6547 11.2682,16 13.3446,14.9618 11.7296,11.5011 14.7442,10.6936" fill="#6D6E71" stroke-linejoin="miter"/>
  </g>
</svg>
