<?xml version="1.0" encoding="UTF-8"?>
<!DOCTYPE svg PUBLIC "-//W3C//DTD SVG 1.1//EN" "http://www.w3.org/Graphics/SVG/1.1/DTD/svg11.dtd">
<svg version="1.1" id="Layer_1" xmlns="http://www.w3.org/2000/svg" xmlns:xlink="http://www.w3.org/1999/xlink" x="0px" y="0px" width="16px" height="16px" viewBox="0 0 16 16" enable-background="new 0 0 16 16" xml:space="preserve">
  <g id="icon">
    <polygon points="12.9291,5.212 12.4055,5.4977 7.3904,14.052 15.3669,9.4194" fill="#FFFFFF" stroke-linejoin="miter" opacity="0.5"/>
    <polygon points="13.1173,4.5397 12.8966,4.6602 11.9145,6.3353 12.7408,5.8844 14.6838,9.2379 7.9044,13.1753 6.8764,14.9288 16.05,9.6009" fill="#EEAC55" stroke-linejoin="miter"/>
    <path d="M6.8,12.4886l5.1576,-8.7974l-4.316,-2.4494L6.8,2.6121V12.4886z" fill="#FFFFFF" opacity="0.5"/>
    <path d="M6.8,1.6567l0.6684,-1.0882l5.1771,2.9381L6.8,13.4773V11.5l4.4699,-7.6242L7.8149,1.915L6.8,3.5675V1.6567z" fill="#52B250"/>
    <rect x="0.5" y="0.6" width="4.9" height="14.8" fill="#FFFFFF" opacity="0.5"/>
    <path d="M6,16H0V0h6V16zM1,15h4V1H1V15z" fill="#6485C3"/>
    <path d="M4.3,13.55c0,0.4142,-0.3358,0.75,-0.75,0.75s-0.75,-0.3358,-0.75,-0.75s0.3358,-0.75,0.75,-0.75S4.3,13.1358,4.3,13.55z" fill="#6D6E71"/>
  </g>
</svg>
