<?xml version="1.0" encoding="UTF-8"?>
<!DOCTYPE svg PUBLIC "-//W3C//DTD SVG 1.1//EN" "http://www.w3.org/Graphics/SVG/1.1/DTD/svg11.dtd">
<svg version="1.1" id="Layer_1" xmlns="http://www.w3.org/2000/svg" xmlns:xlink="http://www.w3.org/1999/xlink" x="0px" y="0px" width="16px" height="16px" viewBox="0 0 16 16" enable-background="new 0 0 16 16" xml:space="preserve">
  <g id="icon">
    <path d="M7.0734,2h-0.6646C7.3997,0.7808,8.9101,0,10.6,0c2.9776,0,5.4,2.4224,5.4,5.4c0,1.4496,-0.5753,2.7667,-1.5081,3.7376c-0.1064,-0.0576,-0.2662,-0.1423,-0.4727,-0.2506c-0.0319,-0.0167,-0.0657,-0.0344,-0.0998,-0.0523c-0.0154,-0.0081,-0.0299,-0.0157,-0.0458,-0.024c-0.0494,-0.0258,-0.1008,-0.0527,-0.1544,-0.0807c-0.0149,-0.0078,-0.0311,-0.0162,-0.0463,-0.0241c-0.8183,-0.4268,-2.1033,-1.0906,-3.6729,-1.9006V4.3c0,-1.2682,-1.0318,-2.3,-2.3,-2.3H7.0734zM6.0219,5.0054c0.3548,0,0.7097,0.0939,1.0263,0.2716c0.0753,0.0417,0.5638,0.295,1.184,0.6156c0.0034,0.0018,0.007,0.0036,0.0105,0.0054c0.0837,0.0433,0.1696,0.0876,0.2573,0.133v0c0.1624,0.0839,0.3303,0.1706,0.5,0.2582V4.3c0,-0.7168,-0.5832,-1.3,-1.3,-1.3H1.3C0.5832,3,0,3.5832,0,4.3v6.4c0,0.7168,0.5832,1.3,1.3,1.3h2.7v-0.5v-0.5V7.035c0,-0.7193,0.3845,-1.3912,1.0034,-1.7537C5.3121,5.1007,5.6642,5.0054,6.0219,5.0054zM14.1048,10.066c-0.3316,-0.1882,-2.6841,-1.4022,-4.7597,-2.4733C7.9776,6.887,6.686,6.2204,6.5588,6.1491c-0.3384,-0.1899,-0.7309,-0.1916,-1.0501,-0.0048C5.1949,6.328,5,6.6693,5,7.035v7.9482c0,0.3631,0.183,0.6886,0.4895,0.8707c0.1635,0.0971,0.3492,0.1458,0.5356,0.1458c0.1757,0,0.3521,-0.0433,0.5113,-0.13c0.1703,-0.0926,1.2042,-0.6411,2.4014,-1.2762c2.6865,-1.4252,4.9299,-2.6163,5.1704,-2.7554c0.3271,-0.189,0.5214,-0.5221,0.52,-0.8912C14.6269,10.5806,14.4312,10.2513,14.1048,10.066z" fill="#6485C3"/>
  </g>
</svg>
