<?xml version="1.0" encoding="UTF-8"?>
<!DOCTYPE svg PUBLIC "-//W3C//DTD SVG 1.1//EN" "http://www.w3.org/Graphics/SVG/1.1/DTD/svg11.dtd">
<svg version="1.1" id="Layer_1" xmlns="http://www.w3.org/2000/svg" xmlns:xlink="http://www.w3.org/1999/xlink" x="0px" y="0px" width="16px" height="16px" viewBox="0 0 16 16" enable-background="new 0 0 16 16" xml:space="preserve">
  <g id="icon">
    <rect x="0.5" y="6.5" width="15" height="9" fill="#FFFFFF" opacity="0.4"/>
    <path d="M12.4842,11.0433c-0.8271,0,-1.5,-0.6729,-1.5,-1.5s0.6729,-1.5,1.5,-1.5s1.5,0.6729,1.5,1.5S13.3113,11.0433,12.4842,11.0433zM12.4842,9.0433c-0.2757,0,-0.5,0.2243,-0.5,0.5s0.2243,0.5,0.5,0.5s0.5,-0.2243,0.5,-0.5S12.7599,9.0433,12.4842,9.0433z" fill="#EEAC55"/>
    <polygon points="10.3745,15.8672 4.7564,10.1811 0.9253,14.0323 0.2164,13.3271 4.7588,8.7606 8.6695,12.7188 10.5649,10.8 14.8121,15.0914 14.1013,15.7948 10.5656,12.2223 9.3724,13.4302 11.0858,15.1644" fill="#52B4C0" stroke-linejoin="miter"/>
    <path d="M16,16H0V6h16V16zM1,15h14V7H1V15z" fill="#6D6E71"/>
    <path d="M16,5h-1V0h1V5zM1,5H0V0h1V5z" fill="#6D6E71"/>
    <polygon points="11.9786,5.0832 11.2758,4.3718 12.6644,3 9.5,3 9.5,2 12.6116,2 11.3759,0.7799 12.0785,0.0683 14.5673,2.5257" fill="#6485C3" stroke-linejoin="miter"/>
    <polygon points="3.9497,5.0832 1.3609,2.5257 3.8498,0.0683 4.5524,0.7799 3.3167,2 6.5,2 6.5,3 3.264,3 4.6525,4.3718" fill="#6485C3" stroke-linejoin="miter"/>
  </g>
</svg>
