<?xml version="1.0" encoding="UTF-8"?>
<!DOCTYPE svg PUBLIC "-//W3C//DTD SVG 1.1//EN" "http://www.w3.org/Graphics/SVG/1.1/DTD/svg11.dtd">
<svg version="1.1" id="Layer_1" xmlns="http://www.w3.org/2000/svg" xmlns:xlink="http://www.w3.org/1999/xlink" x="0px" y="0px" width="16px" height="16px" viewBox="0 0 16 16" enable-background="new 0 0 16 16" xml:space="preserve">
  <g id="icon">
    <polygon points="9.5,15.5 0.5,15.5 0.5,4.5 6.5333,4.5 9.5,7.5571" fill="#FFFFFF" stroke-linejoin="miter" opacity="0.5"/>
    <path d="M6.3437,4H0v12h10V7.6533L6.3437,4zM1,15V5h5v3h3v7H1z" fill="#6D6E71"/>
    <path d="M8,9H2v1h6V9zM8,11H2v1h6V11zM8,13H2v1h6V13zM5,7H2v1h3V7z" fill="#B7B7B7"/>
    <rect x="2" y="10.5" width="3" height="2" fill="#CB525D"/>
    <polygon points="12.5333,0.5 6.5,0.5 6.5,3 7.1666,3 11,6.9477 11,11.5 15.5,11.5 15.5,3.5571" fill="#FFFFFF" stroke-linejoin="miter" opacity="0.5"/>
    <path d="M12.3437,0H6v3h1V1h5v3h3v7h-4v1h5V3.6533L12.3437,0z" fill="#6D6E71"/>
    <path d="M8,3.8583V3h3v1H8.1376L8,3.8583zM11,10h3V9h-3V10zM11,8h3V7h-3V8zM9.1087,5l0.9711,1H14V5H9.1087z" fill="#B7B7B7"/>
    <polygon points="11,6.5 11,7.4477 11,8.5 14,8.5 14,6.5" fill="#CB525D" stroke-linejoin="miter"/>
  </g>
</svg>
