<?xml version="1.0" encoding="UTF-8"?>
<!DOCTYPE svg PUBLIC "-//W3C//DTD SVG 1.1//EN" "http://www.w3.org/Graphics/SVG/1.1/DTD/svg11.dtd">
<svg version="1.1" id="Layer_1" xmlns="http://www.w3.org/2000/svg" xmlns:xlink="http://www.w3.org/1999/xlink" x="0px" y="0px" width="16px" height="16px" viewBox="0 0 16 16" enable-background="new 0 0 16 16" xml:space="preserve">
  <g id="icon">
    <path d="M0.5,0.5v15h15V0.5H0.5zM12.5,13.4H3.5V2.5h9V13.4z" fill="#6485C3" opacity="0.1"/>
    <path d="M16,16H0V0h16V16zM1,15h14V1H1V15z" fill="#6485C3"/>
    <rect x="3.5" y="2.5" width="9" height="11" fill="#FFFFFF" opacity="0.5"/>
    <path d="M13,14H3V2h10V14zM4,13h8V3H4V13z" fill="#6D6E71"/>
    <path d="M11,11H5v-1h6V11zM11,9H5V8h6V9zM11,7H5V6h6V7zM11,5H5V4h6V5z" fill="#B7B7B7"/>
  </g>
</svg>
