<?xml version="1.0" encoding="UTF-8"?>
<!DOCTYPE svg PUBLIC "-//W3C//DTD SVG 1.1//EN" "http://www.w3.org/Graphics/SVG/1.1/DTD/svg11.dtd">
<svg version="1.1" id="Layer_1" xmlns="http://www.w3.org/2000/svg" xmlns:xlink="http://www.w3.org/1999/xlink" x="0px" y="0px" width="16px" height="16px" viewBox="0 0 16 16" enable-background="new 0 0 16 16" xml:space="preserve">
  <g id="icon">
    <path d="M9.215,6.801c0.319,-0.29,0.831,-0.658,1.171,-0.811c0.341,-0.153,0.737,-0.229,1.188,-0.229c0.332,0,0.619,0.046,0.86,0.138c0.241,0.092,0.442,0.224,0.601,0.396c0.159,0.172,0.277,0.381,0.352,0.628c0.075,0.247,0.113,0.525,0.113,0.834V11.8l0,0M13.482,8.558c-1.394,0.038,-2.475,0.215,-3.154,0.477c-0.68,0.262,-1.019,0.632,-1.019,1.11c0,0.226,0.043,0.42,0.129,0.582c0.086,0.163,0.2,0.296,0.342,0.401c0.142,0.105,0.303,0.184,0.485,0.235c0.181,0.052,0.367,0.077,0.558,0.077c0.305,0,0.582,-0.031,0.83,-0.092c0.248,-0.061,0.477,-0.143,0.687,-0.247c0.21,-0.103,0.405,-0.223,0.584,-0.358c0.179,-0.136,0.394,-0.287,0.558,-0.436" fill="none" stroke="#383838" stroke-width="1" stroke-miterlimit="1"/>
    <path d="M2.552,11.637l2.87,-6.961l2.959,6.984M3.574,9.155h3.649" fill="none" stroke="#383838" stroke-width="1" stroke-miterlimit="1"/>
  </g>
</svg>
