<?xml version="1.0" encoding="UTF-8"?>
<!DOCTYPE svg PUBLIC "-//W3C//DTD SVG 1.1//EN" "http://www.w3.org/Graphics/SVG/1.1/DTD/svg11.dtd">
<svg version="1.1" id="Layer_1" xmlns="http://www.w3.org/2000/svg" xmlns:xlink="http://www.w3.org/1999/xlink" x="0px" y="0px" width="16px" height="16px" viewBox="0 0 16 16" enable-background="new 0 0 16 16" xml:space="preserve">
  <g id="icon">
    <path d="M15.5,7.5H4.5v8h11V7.5z" fill="#F7DA8E" stroke="#E57428" stroke-width="1" stroke-linecap="round" stroke-miterlimit="1"/>
    <rect x="11.5" y="9.5" width="2" height="2" fill="#F3B8B8" stroke="#E42D2C" stroke-width="1" stroke-linecap="round" stroke-miterlimit="1"/>
    <path d="M6,13.5h6" fill="#FFFFFF" stroke="#383838" stroke-width="1" stroke-miterlimit="1"/>
    <path d="M6,9.5h3" fill="none" stroke="#787979" stroke-width="1" stroke-miterlimit="1"/>
    <g>
      <path d="M3.864,6h2.934c0.856,-0.53,1.431,-1.502,1.431,-2.576C8.229,1.809,6.931,0.5,5.33,0.5S2.432,1.809,2.432,3.424C2.432,4.498,3.007,5.47,3.864,6z" fill="#FFFFFF"/>
      <path d="M3,7.215C1.531,8.226,0.5,10.092,0.5,12h2.5V7.215z" fill="#FFFFFF"/>
    </g>
    <path d="M3.061,6H7.6c0.688,-0.645,1.129,-1.569,1.129,-2.576C8.729,1.536,7.204,0,5.33,0S1.932,1.536,1.932,3.424C1.932,4.431,2.372,5.355,3.061,6zM5.33,1c1.322,0,2.398,1.087,2.398,2.424c0,1.354,-1.098,2.498,-2.398,2.498S2.932,4.778,2.932,3.424C2.932,2.087,4.008,1,5.33,1zM3,7.849C1.83,8.797,1,10.371,1,12H0c0,-2.237,1.269,-4.333,3,-5.373V7.849z" fill="#383838"/>
  </g>
</svg>
