<?xml version="1.0" encoding="iso-8859-1"?>
<!-- Generator: Adobe Illustrator 26.3.0, SVG Export Plug-In . SVG Version: 6.00 Build 0)  -->
<svg version="1.1" id="Layer_1" xmlns="http://www.w3.org/2000/svg" xmlns:xlink="http://www.w3.org/1999/xlink" x="0px" y="0px"
	 viewBox="0 0 24 24" style="enable-background:new 0 0 24 24;" xml:space="preserve">
<g id="icon">
	<path style="fill:#7B7B7B;" d="M19.147,16.182v-3.599l-2.411-3.426l1.387-0.976l1.879,2.67l1.921-2.676L23.3,9.163l-2.457,3.423
		v3.595H19.147z M11.206,6.688L9.54,9.215L8.125,8.281l2.066-3.134L8.125,2.014L9.54,1.081l1.665,2.526l1.665-2.526l1.416,0.933
		l-2.066,3.134l2.066,3.134l-1.416,0.933L11.206,6.688z"/>
	<polygon style="fill:#7B7B7B;" points="3,21 3,6.5 5,6.5 5,19 17.9,19 17.9,21 	"/>
	<path style="fill:#6486C4;" d="M17,16.571l6.702,3.343L17,23.386V16.571z M0.624,7l3.34-6.809L7.433,7H0.624z"/>
</g>
</svg>
