<?xml version="1.0" encoding="iso-8859-1"?>
<!-- Generator: Adobe Illustrator 26.3.0, SVG Export Plug-In . SVG Version: 6.00 Build 0)  -->
<svg version="1.1" id="Layer_1" xmlns="http://www.w3.org/2000/svg" xmlns:xlink="http://www.w3.org/1999/xlink" x="0px" y="0px"
	 viewBox="0 0 24 24" style="enable-background:new 0 0 24 24;" xml:space="preserve">
<g id="icon">
	<path style="fill:#CC525E;" d="M21.75,23.7c-1.185,0-2.15-0.965-2.15-2.15s0.965-2.15,2.15-2.15s2.15,0.965,2.15,2.15
		S22.935,23.7,21.75,23.7z M2.25,23.7c-1.186,0-2.15-0.965-2.15-2.15s0.964-2.15,2.15-2.15s2.15,0.965,2.15,2.15
		S3.435,23.7,2.25,23.7z"/>
	<rect x="6" y="20.8" style="fill:#6D6E71;" width="12" height="1.5"/>
	<path style="fill:#6486C4;" d="M10.371,16.3H12V16h0.018c0.223-3.012,2.67-5.459,5.682-5.682V10.3l0.3-0.002V8.632l3.981,2.421
		L18,13.428v-1.627c-2.445,0.078-4.42,2.053-4.498,4.499h1.664l-2.42,3.982L10.371,16.3z"/>
	<path style="fill:#6D6E71;" d="M21,1.3c-9.853,0-18.021,7.346-19.319,16.848C1.866,18.117,2.056,18.1,2.25,18.1
		c0.324,0,0.637,0.046,0.934,0.13C4.436,9.518,11.947,2.8,21,2.8h0.9V1.3H21z"/>
</g>
</svg>
