<?xml version="1.0" encoding="iso-8859-1"?>
<!-- Generator: Adobe Illustrator 26.3.0, SVG Export Plug-In . SVG Version: 6.00 Build 0)  -->
<svg version="1.1" id="Layer_1" xmlns="http://www.w3.org/2000/svg" xmlns:xlink="http://www.w3.org/1999/xlink" x="0px" y="0px"
	 viewBox="0 0 24 24" style="enable-background:new 0 0 24 24;" xml:space="preserve">
<g id="icon">
	<polygon style="opacity:0.5;fill:#FFFFFF;enable-background:new    ;" points="13.952,0.75 21.75,3.4 21.75,18.678 19.576,22.159 
		10.068,23.25 2.25,20.789 2.25,5.477 4.564,1.842 	"/>
	<polygon style="opacity:0.5;fill:#6E6F72;enable-background:new    ;" points="14.708,15.731 14.708,0.75 13.208,0.75 
		13.208,15.599 5.31,16.52 5.31,1.844 3.81,1.844 3.81,17.107 1.782,20.066 3.019,20.914 4.969,18.07 13.852,17.035 21.486,19.434 
		21.936,18.003 	"/>
	<path style="fill:#6D6E71;" d="M9.995,24.014L1.5,21.34V5.258l2.623-4.12l9.91-1.153L22.5,2.863v16.029l-2.48,3.97L9.995,24.014z
		 M3,20.239l7.142,2.248l8.989-1.032L21,18.463V3.938l-7.129-2.423L5.005,2.546L3,5.695V20.239z"/>
	<polygon style="fill:#6D6E71;" points="9.978,8.703 2.22,6.15 2.688,4.725 10.125,7.172 19.052,6.039 21.087,2.99 22.335,3.823 
		19.92,7.441 	"/>
	<rect x="9.294" y="7.938" style="fill:#6D6E71;" width="1.5" height="15.078"/>
	<rect x="18.69" y="6.844" style="fill:#6D6E71;" width="1.5" height="15.234"/>
</g>
</svg>
