<?xml version="1.0" encoding="iso-8859-1"?>
<!-- Generator: Adobe Illustrator 26.3.0, SVG Export Plug-In . SVG Version: 6.00 Build 0)  -->
<svg version="1.1" id="Layer_1" xmlns="http://www.w3.org/2000/svg" xmlns:xlink="http://www.w3.org/1999/xlink" x="0px" y="0px"
	 viewBox="0 0 24 24" style="enable-background:new 0 0 24 24;" xml:space="preserve">
<g id="icon">
	<path style="opacity:0.5;fill:#6486C4;enable-background:new    ;" d="M12.564,9.805l-0.08-8.92l1.5-0.013l0.078,8.778l3.908,1.104
		l-1.792,1.052l-2.745-0.776l-0.326,0.203c-0.508-0.347-1.093-0.588-1.724-0.693L12.564,9.805z"/>
	<polygon style="opacity:0.5;fill:#6486C4;enable-background:new    ;" points="19.513,11.19 19.513,12.749 21.786,13.391 
		22.194,11.948 	"/>
	<path style="fill:#6486C4;" d="M13.17,0.105L4.442,3.262l0.932,7.218h1.512L6.151,4.782l9.648,2.634l-0.12,4.684l1.523-0.895
		l0.101-3.945l4.889-3.092l-0.92,8.168l-1.76,1.861v2.183l3.194-3.378l1.229-10.915L13.17,0.105z M16.435,6.035l-8.69-2.373
		l5.554-2.009l7.794,1.436L16.435,6.035z"/>
	<polyline style="opacity:0.5;fill:#FFFFFF;enable-background:new    ;" points="12.763,16.422 17.263,13.779 17.263,22.179 
		12.763,19.537 	"/>
	<polygon style="fill:#6D6E71;" points="18.013,23.489 12.383,20.183 13.142,18.89 16.513,20.869 16.513,15.089 13.142,17.068 
		12.383,15.775 18.013,12.469 	"/>
	<path style="opacity:0.5;fill:#FFFFFF;enable-background:new    ;" d="M12.763,21.829v-7.7c0-0.773-0.627-1.4-1.4-1.4h-9.2
		c-0.773,0-1.4,0.627-1.4,1.4v7.7c0,0.773,0.627,1.4,1.4,1.4h9.2C12.136,23.229,12.763,22.602,12.763,21.829z"/>
	<path style="fill:#6D6E71;" d="M10.663,23.979h-7.8c-1.571,0-2.85-1.278-2.85-2.85v-6.3c0-1.571,1.278-2.85,2.85-2.85h7.8
		c1.571,0,2.85,1.278,2.85,2.85v6.3C13.513,22.701,12.234,23.979,10.663,23.979z M2.863,13.479c-0.744,0-1.35,0.606-1.35,1.35v6.3
		c0,0.744,0.606,1.35,1.35,1.35h7.8c0.744,0,1.35-0.606,1.35-1.35v-6.3c0-0.744-0.606-1.35-1.35-1.35H2.863z"/>
</g>
</svg>
