<?xml version="1.0" encoding="iso-8859-1"?>
<!-- Generator: Adobe Illustrator 26.3.0, SVG Export Plug-In . SVG Version: 6.00 Build 0)  -->
<svg version="1.1" id="Layer_1" xmlns="http://www.w3.org/2000/svg" xmlns:xlink="http://www.w3.org/1999/xlink" x="0px" y="0px"
	 viewBox="0 0 24 24" style="enable-background:new 0 0 24 24;" xml:space="preserve">
<g id="icon">
	<polygon style="opacity:0.5;fill:#FFFFFF;enable-background:new    ;" points="0.75,3.866 0.75,20.042 6.648,23.197 23.25,20.042 
		23.25,3.759 17.289,0.863 	"/>
	<polygon style="opacity:0.5;fill:#6E6F72;enable-background:new    ;" points="18,16.272 18,0.884 16.5,0.884 16.5,16.104 
		0.603,19.292 0.897,20.762 17.134,17.507 22.842,20.682 23.571,19.371 	"/>
	<path style="fill:#6D6E71;" d="M6.528,23.983L0,20.492V3.24l17.396-3.16L24,3.289v17.374L6.528,23.983z M1.5,19.593l5.268,2.817
		L22.5,19.421V4.228l-5.318-2.584L1.5,4.493V19.593z"/>
	<polygon style="fill:#6D6E71;" points="6.52,7.653 0.493,4.549 1.18,3.216 6.753,6.085 22.808,3.145 23.078,4.62 	"/>
	<rect x="6" y="6.884" style="fill:#6D6E71;" width="1.5" height="16.35"/>
</g>
</svg>
