<?xml version="1.0" encoding="iso-8859-1"?>
<!-- Generator: Adobe Illustrator 26.3.0, SVG Export Plug-In . SVG Version: 6.00 Build 0)  -->
<svg version="1.1" id="Layer_1" xmlns="http://www.w3.org/2000/svg" xmlns:xlink="http://www.w3.org/1999/xlink" x="0px" y="0px"
	 viewBox="0 0 24 24" style="enable-background:new 0 0 24 24;" xml:space="preserve">
<g id="icon">
	<path style="fill:#6E6F72;" d="M7.271,13.643l0.26,0.124l-2.914,2.914c-0.228-0.373-0.535-0.693-0.898-0.935l2.59-2.59l0.133,0.07
		C6.712,13.369,6.99,13.509,7.271,13.643z"/>
	<path style="fill:#6E6F72;" d="M15.747,3.719l-6.674,6.674l1.361,0.473l6.248-6.248C16.309,4.389,15.989,4.082,15.747,3.719z"/>
	<path style="fill:#CC525E;" d="M2.063,20.296C0.926,20.296,0,19.371,0,18.233s0.925-2.063,2.063-2.063s2.063,0.925,2.063,2.063
		S3.201,20.296,2.063,20.296z M18.234,4.126c-1.137,0-2.063-0.925-2.063-2.063S17.096,0,18.234,0c1.137,0,2.063,0.925,2.063,2.063
		S19.371,4.126,18.234,4.126z"/>
	<path style="fill:#6E6F72;" d="M12.604,13.586l-8.303-1.833l-1.65-1.662l15.864,3.507l-0.113,1.279l-4.405-0.981l1.001,4.497
		l-1.316,0.073L12.604,13.586z M13.66,11.998l-0.541-2.274l-1.025,1.033l0.234,0.92L13.66,11.998z M11.082,6.867l1.026-1.034
		l-0.505-1.956L9.927,2.189L11.082,6.867z"/>
	<path style="fill:#6486C4;" d="M20.63,18.111L20.63,18.111c-0.889,0-1.724-0.347-2.35-0.978c-1.296-1.305-1.288-3.437,0.018-4.753
		c0.638-0.642,1.484-0.996,2.383-0.996c0,0,0,0,0,0c0.889,0,1.724,0.347,2.35,0.978c1.296,1.305,1.288,3.437-0.018,4.752
		C22.376,17.758,21.529,18.111,20.63,18.111z M20.681,12.866c-0.501,0-0.974,0.198-1.332,0.558c-0.734,0.74-0.742,1.935-0.018,2.665
		c0.346,0.348,0.807,0.54,1.299,0.54c0.501,0,0.974-0.198,1.332-0.558c0.734-0.74,0.742-1.935,0.018-2.665
		C21.634,13.058,21.173,12.866,20.681,12.866z"/>
	<path style="fill:#6486C4;" d="M14.785,24c-0.889,0-1.724-0.347-2.35-0.978v0c-1.296-1.305-1.288-3.437,0.018-4.753
		c0.638-0.642,1.484-0.996,2.383-0.996c0.889,0,1.724,0.347,2.35,0.978c1.296,1.305,1.288,3.437-0.018,4.753
		C16.53,23.646,15.684,24,14.785,24z M13.486,21.978c0.346,0.348,0.807,0.54,1.299,0.54c0.501,0,0.974-0.198,1.332-0.558
		c0.734-0.74,0.742-1.935,0.018-2.665c-0.346-0.348-0.807-0.54-1.299-0.54c-0.501,0-0.974,0.198-1.332,0.558
		C12.769,20.053,12.761,21.249,13.486,21.978L13.486,21.978z"/>
</g>
</svg>
