<?xml version="1.0" encoding="iso-8859-1"?>
<!-- Generator: Adobe Illustrator 26.3.0, SVG Export Plug-In . SVG Version: 6.00 Build 0)  -->
<svg version="1.1" id="Layer_1" xmlns="http://www.w3.org/2000/svg" xmlns:xlink="http://www.w3.org/1999/xlink" x="0px" y="0px"
	 viewBox="0 0 24 24" style="enable-background:new 0 0 24 24;" xml:space="preserve">
<g id="icon">
	<path style="fill:#CC525E;" d="M3.75,22.8c-1.406,0-2.55-1.144-2.55-2.55s1.144-2.55,2.55-2.55s2.55,1.144,2.55,2.55
		S5.156,22.8,3.75,22.8z M17.712,19.754c-1.406,0-2.55-1.144-2.55-2.55s1.144-2.55,2.55-2.55s2.55,1.144,2.55,2.55
		S19.118,19.754,17.712,19.754z M6.542,9.346c-1.406,0-2.55-1.144-2.55-2.55s1.144-2.55,2.55-2.55s2.55,1.144,2.55,2.55
		S7.948,9.346,6.542,9.346z M20.25,6.3c-1.406,0-2.55-1.144-2.55-2.55s1.144-2.55,2.55-2.55s2.55,1.144,2.55,2.55
		S21.656,6.3,20.25,6.3z"/>
</g>
</svg>
