<?xml version="1.0" encoding="iso-8859-1"?>
<!-- Generator: Adobe Illustrator 26.3.0, SVG Export Plug-In . SVG Version: 6.00 Build 0)  -->
<svg version="1.1" id="Layer_1" xmlns="http://www.w3.org/2000/svg" xmlns:xlink="http://www.w3.org/1999/xlink" x="0px" y="0px"
	 viewBox="0 0 24 24" style="enable-background:new 0 0 24 24;" xml:space="preserve">
<g id="icon">
	<polygon style="opacity:0.5;fill:#FFFFFF;enable-background:new    ;" points="23.23,23.25 6.73,23.25 6.73,0.75 17.28,0.75 
		23.23,6.836 	"/>
	<polygon style="fill:#7B7B7B;" points="17.615,0 6,0 6,13.5 8,13.5 8,2 17,2 17,7 22,7 22,22 22,22 22,24 24,24 24,6.53 	"/>
	<path style="fill:#6486C4;" d="M3.987,23.976c-0.564,0-1.096-0.107-1.581-0.319c-0.492-0.215-0.924-0.528-1.284-0.931
		c-0.354-0.396-0.63-0.877-0.823-1.428c-0.187-0.536-0.282-1.139-0.282-1.791c0-0.633,0.095-1.226,0.282-1.76
		c0.193-0.55,0.472-1.032,0.83-1.433c0.364-0.408,0.805-0.727,1.311-0.948c0.499-0.218,1.052-0.329,1.641-0.329
		c0.269,0,0.528,0.022,0.771,0.066c0.25,0.045,0.492,0.115,0.719,0.206c0.221,0.09,0.437,0.201,0.64,0.33
		c0.194,0.125,0.386,0.269,0.571,0.43l-1.136,1.364c-0.119-0.104-0.241-0.196-0.362-0.274c-0.113-0.072-0.233-0.134-0.355-0.184
		c-0.117-0.047-0.245-0.084-0.38-0.108c-0.143-0.026-0.3-0.039-0.467-0.039c-0.357,0-0.669,0.061-0.953,0.185
		c-0.279,0.122-0.51,0.288-0.707,0.509c-0.204,0.228-0.359,0.499-0.474,0.829c-0.119,0.34-0.179,0.728-0.179,1.155
		c0,0.447,0.06,0.847,0.18,1.188c0.114,0.326,0.271,0.603,0.467,0.823c0.192,0.215,0.414,0.376,0.677,0.491
		c0.27,0.118,0.563,0.175,0.895,0.175c0.215,0,0.411-0.018,0.58-0.054c0.168-0.035,0.321-0.084,0.455-0.143
		c0.133-0.059,0.255-0.13,0.364-0.21c0.121-0.089,0.236-0.19,0.342-0.298l1.238,1.267c-0.173,0.177-0.36,0.34-0.557,0.485
		c-0.21,0.155-0.442,0.289-0.688,0.399c-0.245,0.109-0.515,0.195-0.801,0.256C4.634,23.946,4.32,23.976,3.987,23.976z
		 M12.406,23.672c0.456-0.221,0.852-0.542,1.177-0.952c0.311-0.393,0.554-0.868,0.722-1.412c0.161-0.523,0.243-1.113,0.243-1.753
		c0-0.639-0.082-1.229-0.243-1.754c-0.167-0.545-0.41-1.021-0.721-1.416c-0.325-0.413-0.722-0.734-1.179-0.956
		c-0.455-0.221-0.958-0.333-1.497-0.333c-0.537,0-1.04,0.113-1.495,0.337c-0.453,0.223-0.848,0.545-1.172,0.956
		c-0.311,0.395-0.554,0.871-0.721,1.416c-0.161,0.525-0.243,1.113-0.243,1.749c0,0.64,0.082,1.229,0.243,1.753
		c0.168,0.544,0.411,1.019,0.722,1.412c0.325,0.41,0.72,0.73,1.174,0.951c0.454,0.221,0.956,0.333,1.491,0.333
		C11.447,24.005,11.951,23.893,12.406,23.672z M11.656,17.049c0.22,0.107,0.405,0.258,0.566,0.462
		c0.173,0.219,0.312,0.498,0.413,0.828c0.108,0.351,0.162,0.76,0.162,1.216c0,0.456-0.054,0.864-0.162,1.213
		c-0.101,0.328-0.24,0.605-0.412,0.822c-0.161,0.203-0.347,0.354-0.567,0.461c-0.222,0.108-0.466,0.16-0.747,0.16
		c-0.277,0-0.519-0.052-0.739-0.159c-0.22-0.107-0.405-0.258-0.566-0.462c-0.172-0.218-0.311-0.494-0.412-0.823
		C9.084,20.42,9.03,20.012,9.03,19.556c0-0.453,0.055-0.861,0.162-1.211c0.101-0.33,0.241-0.609,0.413-0.828
		c0.162-0.205,0.348-0.358,0.568-0.467c0.219-0.108,0.46-0.16,0.736-0.16C11.19,16.889,11.434,16.942,11.656,17.049z M20,22.206
		h-3.001v-7.169h-1.751v8.962H20V22.206z"/>
</g>
</svg>
