<?xml version="1.0" encoding="iso-8859-1"?>
<!-- Generator: Adobe Illustrator 26.3.0, SVG Export Plug-In . SVG Version: 6.00 Build 0)  -->
<svg version="1.1" id="Layer_1" xmlns="http://www.w3.org/2000/svg" xmlns:xlink="http://www.w3.org/1999/xlink" x="0px" y="0px"
	 viewBox="0 0 24 24" style="enable-background:new 0 0 24 24;" xml:space="preserve">
<g id="icon">
	<polygon style="opacity:0.5;fill:#FFFFFF;enable-background:new    ;" points="23.243,23.25 6.743,23.25 6.743,0.75 17.293,0.75 
		23.243,6.836 	"/>
	<polygon style="opacity:0.5;fill:#FFFFFF;enable-background:new    ;" points="8.895,22.95 1.859,19.772 0.856,12.008 6.683,9.9 
		13.906,11.23 13.085,18.52 	"/>
	<polygon style="fill:#6486C4;" points="2.255,20.408 1.462,19.135 6.629,15.917 13.289,17.798 12.881,19.242 6.859,17.541 	"/>
	
		<rect x="5.964" y="9.9" transform="matrix(1 -0.0089 0.0089 1 -0.1182 0.0603)" style="fill:#6486C4;" width="1.5" height="6.829"/>
	<polygon style="fill:#6486C4;" points="9.645,22.969 8.145,22.931 8.353,14.832 0.658,12.731 1.053,11.284 9.882,13.695 	"/>
	
		<rect x="8.67" y="11.996" transform="matrix(0.8451 -0.5346 0.5346 0.8451 -5.0317 8.1264)" style="fill:#6486C4;" width="5.675" height="1.5"/>
	<path style="fill:#6486C4;" d="M9.073,23.853l-7.904-3.57l-1.134-8.776l6.585-2.382l8.11,1.494l-0.927,8.234L9.073,23.853z
		 M2.549,19.261l6.168,2.786l3.651-3.86l0.715-6.346l-6.334-1.167l-5.071,1.834L2.549,19.261z"/>
	<polygon style="fill:#7B7B7B;" points="17.615,0 6,0 6,8 8,8 8,2 17,2 17,7 22,7 22,22 13,22 13,24 24,24 24,6.53 	"/>
</g>
</svg>
