<?xml version="1.0" encoding="iso-8859-1"?>
<!-- Generator: Adobe Illustrator 26.3.0, SVG Export Plug-In . SVG Version: 6.00 Build 0)  -->
<svg version="1.1" id="Layer_1" xmlns="http://www.w3.org/2000/svg" xmlns:xlink="http://www.w3.org/1999/xlink" x="0px" y="0px"
	 viewBox="0 0 24 24" style="enable-background:new 0 0 24 24;" xml:space="preserve">
<g id="icon">
	<polygon style="opacity:0.5;fill:#FFFFFF;enable-background:new    ;" points="23.23,23.25 6.73,23.25 6.73,0.75 17.28,0.75 
		23.23,6.836 	"/>
	<polygon style="fill:#7B7B7B;" points="17.615,0 6,0 6,13.5 8,13.5 8,2 17,2 17,7 22,7 22,22 22,22 22,24 24,24 24,6.53 	"/>
	<path style="fill:#6486C4;" d="M4.163,19.541l2.108,3.631l-1.535,0.892l-1.6-2.755l-1.6,2.755l-1.535-0.892l2.108-3.631
		L0.001,15.91l1.535-0.892l1.6,2.755l1.6-2.755l1.535,0.892L4.163,19.541z M9.987,15.096c-2.007,0-2.792,1.357-2.854,2.519
		l1.773,0.095c0.031-0.588,0.355-0.839,1.081-0.839c0.504,0,1.083,0.103,1.083,0.906c0,0.172,0,0.696-1.167,0.881L9.4,18.737v1.595
		l0.502,0.08c0.72,0.114,1.167,0.451,1.167,0.881c0,0.803-0.579,0.906-1.083,0.906c-0.726,0-1.049-0.251-1.081-0.839l-1.773,0.095
		c0.062,1.162,0.847,2.52,2.854,2.52c2.11,0,2.858-1.444,2.858-2.681c0-0.68-0.268-1.281-0.743-1.742
		c0.481-0.457,0.743-1.062,0.743-1.773C12.845,16.54,12.096,15.096,9.987,15.096z M20.718,17.637
		c-0.204-0.554-0.498-1.034-0.873-1.427c-0.38-0.398-0.84-0.704-1.365-0.91c-0.508-0.199-1.071-0.3-1.672-0.3H14v9h2.807
		c0.601,0,1.164-0.101,1.672-0.301c0.525-0.206,0.985-0.512,1.365-0.91c0.376-0.393,0.669-0.873,0.873-1.427
		c0.198-0.537,0.298-1.147,0.298-1.813C21.015,18.885,20.915,18.175,20.718,17.637z M19.039,20.739
		c-0.12,0.326-0.278,0.589-0.485,0.805c-0.202,0.211-0.439,0.368-0.724,0.48c-0.298,0.117-0.639,0.176-1.014,0.176H15.8v-5.4h1.016
		c0.375,0,0.716,0.059,1.014,0.176c0.285,0.112,0.522,0.269,0.724,0.48c0.207,0.216,0.366,0.479,0.485,0.805
		c0.124,0.337,0.187,0.837,0.187,1.289C19.226,20.002,19.163,20.402,19.039,20.739z"/>
</g>
</svg>
