<?xml version="1.0" encoding="iso-8859-1"?>
<!-- Generator: Adobe Illustrator 26.3.0, SVG Export Plug-In . SVG Version: 6.00 Build 0)  -->
<svg version="1.1" id="Layer_1" xmlns="http://www.w3.org/2000/svg" xmlns:xlink="http://www.w3.org/1999/xlink" x="0px" y="0px"
	 viewBox="0 0 24 24" style="enable-background:new 0 0 24 24;" xml:space="preserve">
<g id="icon">
	<path style="fill:#7D7C7B;" d="M17,23v-4h-4v4h-2v-4H7v4H5v-4H1v-2h4v-4H1v-2h4V7H1V5h4V1h2v4h4V1h2v4h4V1h2v4h4v2h-4v4h4v2h-4v4h4
		v2h-4v4H17z M17,17v-4h-4v4H17z M11,17v-4H7v4H11z M17,11V7h-4v4H17z M11,11V7H7v4H11z"/>
</g>
</svg>
