<?xml version="1.0" encoding="iso-8859-1"?>
<!-- Generator: Adobe Illustrator 26.3.0, SVG Export Plug-In . SVG Version: 6.00 Build 0)  -->
<svg version="1.1" id="Layer_1" xmlns="http://www.w3.org/2000/svg" xmlns:xlink="http://www.w3.org/1999/xlink" x="0px" y="0px"
	 viewBox="0 0 24 24" style="enable-background:new 0 0 24 24;" xml:space="preserve">
<g id="icon">
	<path style="fill:#7B7B7B;" d="M17.926,22.697l4.772-4.772L24,19.228L19.228,24L17.926,22.697z M11.95,22.697L22.697,11.95
		L24,13.253L13.253,24L11.95,22.697z M5.975,22.697L22.697,5.975L24,7.278L7.278,24L5.975,22.697z M0,22.697L22.697,0L24,1.303
		L1.303,24L0,22.697z M0,16.722L16.722,0l1.303,1.303L1.303,18.025L0,16.722z M0,10.747L10.747,0l1.303,1.303L1.303,12.05L0,10.747z
		 M0,4.772L4.772,0l1.303,1.303L1.303,6.074L0,4.772z"/>
</g>
</svg>
