<?xml version="1.0" encoding="iso-8859-1"?>
<!-- Generator: Adobe Illustrator 26.3.0, SVG Export Plug-In . SVG Version: 6.00 Build 0)  -->
<svg version="1.1" id="Layer_1" xmlns="http://www.w3.org/2000/svg" xmlns:xlink="http://www.w3.org/1999/xlink" x="0px" y="0px"
	 viewBox="0 0 24 24" style="enable-background:new 0 0 24 24;" xml:space="preserve">
<g id="icon">
	<path style="fill:#EEAD56;" d="M18.163-0.011L-0.01,18.144l5.847,5.867L24.01,5.856L18.163-0.011z M4.906,20.323l-2.578-2.587
		l0.763-0.759l2.578,2.587L4.906,20.323z M6.07,17.602l-1.791-1.697l0.762-0.759l1.791,1.697L6.07,17.602z M7.77,15.702
		l-1.691-1.697l0.762-0.759l1.691,1.697L7.77,15.702z M9.57,13.902l-1.691-1.697l0.763-0.759l1.691,1.697L9.57,13.902z
		 M12.289,12.918l-2.578-2.587l0.762-0.759l2.578,2.587L12.289,12.918z M13.47,10.202l-1.791-1.697l0.762-0.759l1.791,1.697
		L13.47,10.202z M15.17,8.302l-1.691-1.697l0.762-0.759l1.691,1.697L15.17,8.302z M16.97,6.502l-1.691-1.697l0.762-0.759
		l1.691,1.697L16.97,6.502z M17.03,3.073l0.763-0.759l2.578,2.587l-0.763,0.759L17.03,3.073z"/>
	<path style="opacity:0.5;fill:#FFFFFF;enable-background:new    ;" d="M5.669,19.564l-2.578-2.587l-0.763,0.759l2.578,2.587
		L5.669,19.564z M17.732,5.743l-1.691-1.697l-0.762,0.759l1.691,1.697L17.732,5.743z M15.932,7.543l-1.691-1.697l-0.762,0.759
		l1.691,1.697L15.932,7.543z M14.232,9.443l-1.791-1.697l-0.762,0.759l1.791,1.697L14.232,9.443z M10.332,13.143l-1.691-1.697
		l-0.762,0.759l1.691,1.697L10.332,13.143z M8.532,14.943l-1.691-1.697l-0.762,0.759l1.691,1.697L8.532,14.943z M6.832,16.843
		l-1.791-1.697l-0.762,0.759l1.791,1.697L6.832,16.843z M13.052,12.159l-2.578-2.587l-0.762,0.759l2.578,2.587L13.052,12.159z
		 M20.37,4.901l-2.578-2.587L17.03,3.073l2.578,2.587L20.37,4.901z"/>
</g>
</svg>
