<?xml version="1.0" encoding="iso-8859-1"?>
<!-- Generator: Adobe Illustrator 26.3.0, SVG Export Plug-In . SVG Version: 6.00 Build 0)  -->
<svg version="1.1" id="Layer_1" xmlns="http://www.w3.org/2000/svg" xmlns:xlink="http://www.w3.org/1999/xlink" x="0px" y="0px"
	 viewBox="0 0 24 24" style="enable-background:new 0 0 24 24;" xml:space="preserve">
<g id="icon">
	<polygon style="opacity:0.6;fill:#6486C4;enable-background:new    ;" points="22.701,16.984 12.32,11.393 12.32,1.143 
		10.78,1.143 10.78,11.465 0.406,16.902 1.134,18.23 11.619,12.735 21.959,18.304 	"/>
	<polygon style="fill:#6486C4;" points="11.548,12.784 0.401,6.832 1.139,5.51 11.552,11.07 21.965,5.576 22.695,6.902 	"/>
	<rect x="10.78" y="11.927" style="fill:#6486C4;" width="1.54" height="11.236"/>
	<path style="fill:#6486C4;" d="M11.548,24L0,17.995V5.792L11.552,0L23.1,5.862v12.202L11.548,24z M1.54,17.09l10.012,5.206
		l10.008-5.142V6.778L11.548,1.695L1.54,6.713V17.09z"/>
	<path style="fill:none;stroke:#228BCB;stroke-miterlimit:10;" d="M11.55,23.014"/>
</g>
</svg>
