<?xml version="1.0" encoding="iso-8859-1"?>
<!-- Generator: Adobe Illustrator 26.3.0, SVG Export Plug-In . SVG Version: 6.00 Build 0)  -->
<svg version="1.1" id="Layer_1" xmlns="http://www.w3.org/2000/svg" xmlns:xlink="http://www.w3.org/1999/xlink" x="0px" y="0px"
	 viewBox="0 0 24 24" style="enable-background:new 0 0 24 24;" xml:space="preserve">
<g id="icon">
	<path style="fill:#6E6F72;" d="M24,24.001h-1.5c0-2.9-0.463-4.712-1.377-5.385c-1.079-0.795-3.031-0.191-5.29,0.509
		c-1.093,0.339-2.304,0.711-3.546,0.958c0.008-0.093,0.012-0.187,0.012-0.282c0-0.424-0.077-0.83-0.218-1.205
		c1.123-0.228,2.229-0.569,3.307-0.903c2.538-0.786,4.935-1.529,6.624-0.284C23.369,18.407,24,20.502,24,24.001z M5.4,19.801
		c0-0.516,0.115-1.006,0.319-1.445c-1.906-1.347-4.318-5.57-4.216-18.349l-1.5-0.012c-0.091,11.307,1.726,18.001,5.4,19.927
		C5.402,19.882,5.4,19.841,5.4,19.801z"/>
	<circle style="fill:#CC525E;" cx="8.85" cy="19.801" r="2.25"/>
	<path style="opacity:0.5;fill:#FFFFFF;enable-background:new    ;" d="M10.636,11.937l6.137-11.021
		c0.326-0.596,2.458,0.569,2.131,1.166L12.761,13.1c-0.169,0.309-2.411,1.927-2.411,1.927S10.467,12.246,10.636,11.937z"/>
	<path style="fill:#6486C4;" d="M9.536,16.539l0.065-1.544c0.124-2.955,0.301-3.279,0.377-3.418l0.003-0.005l6.137-11.021
		c0.107-0.196,0.451-0.65,1.279-0.531c0.319,0.046,0.691,0.179,1.047,0.373c0.356,0.195,0.668,0.436,0.879,0.68
		c0.547,0.632,0.35,1.167,0.24,1.368l-6.146,11.023c-0.072,0.132-0.247,0.452-2.627,2.17L9.536,16.539z M11.321,12.248
		c-0.042,0.178-0.089,0.648-0.13,1.217c0.453-0.349,0.819-0.646,0.94-0.775l5.977-10.722c-0.194-0.174-0.566-0.377-0.816-0.445
		L11.321,12.248z M12.108,12.731c-0.002,0.003-0.003,0.005-0.005,0.008L12.108,12.731z M12.148,12.671L12.148,12.671L12.148,12.671z
		 M17.43,1.276l-0.003,0.006C17.428,1.28,17.429,1.278,17.43,1.276z"/>
	
		<rect x="16.175" y="1.923" transform="matrix(0.4748 -0.8801 0.8801 0.4748 6.164 16.5223)" style="fill:#6486C4;" width="1.5" height="2.348"/>
</g>
</svg>
