<?xml version="1.0" encoding="iso-8859-1"?>
<!-- Generator: Adobe Illustrator 26.3.0, SVG Export Plug-In . SVG Version: 6.00 Build 0)  -->
<svg version="1.1" id="Layer_1" xmlns="http://www.w3.org/2000/svg" xmlns:xlink="http://www.w3.org/1999/xlink" x="0px" y="0px"
	 viewBox="0 0 24 24" style="enable-background:new 0 0 24 24;" xml:space="preserve">
<g id="icon">
	<path style="fill:#6D6E71;" d="M5.62,21.251c0.054-0.242,0.083-0.492,0.083-0.75s-0.029-0.508-0.083-0.75h6.016
		c-0.054,0.242-0.083,0.492-0.083,0.75s0.029,0.508,0.083,0.75H5.62z"/>
	<path style="fill:#6D6E71;" d="M22.2,8.937c-0.999-1.171-2.319-1.99-3.775-2.374c0.018,0.143,0.029,0.29,0.029,0.438
		c0,0.378-0.062,0.741-0.174,1.081c1.069,0.33,2.036,0.957,2.78,1.829c1.153,1.351,1.631,3.077,1.347,4.86
		c-0.355,2.224-2.002,4.019-4.112,4.693c0.104,0.328,0.16,0.676,0.16,1.038c0,0.166-0.012,0.328-0.035,0.488
		c2.792-0.757,5.005-3.077,5.469-5.982C24.236,12.815,23.622,10.603,22.2,8.937z"/>
	<path style="fill:#CC525E;" d="M15.003,22.751c-1.241,0-2.25-1.009-2.25-2.25s1.009-2.25,2.25-2.25s2.25,1.009,2.25,2.25
		S16.244,22.751,15.003,22.751z M2.253,22.751c-1.241,0-2.25-1.009-2.25-2.25s1.009-2.25,2.25-2.25s2.25,1.009,2.25,2.25
		S3.494,22.751,2.253,22.751z M15.003,9.251c-1.241,0-2.25-1.009-2.25-2.25s1.009-2.25,2.25-2.25s2.25,1.009,2.25,2.25
		S16.244,9.251,15.003,9.251z"/>
	<path style="opacity:0.5;fill:#FFFFFF;enable-background:new    ;" d="M3.609,12.969l6.565-11.791
		c0.349-0.638,2.629,0.609,2.28,1.247L5.883,14.212c-0.181,0.33-2.579,2.061-2.579,2.061S3.428,13.299,3.609,12.969z"/>
	<path style="fill:#6486C4;" d="M2.489,17.786l0.065-1.544c0.132-3.149,0.318-3.488,0.397-3.633l0.003-0.005L9.519,0.812
		c0.381-0.696,1.308-0.755,2.417-0.148c0.375,0.205,0.704,0.459,0.926,0.716c0.563,0.651,0.363,1.199,0.251,1.404L6.538,14.577
		c-0.076,0.138-0.259,0.474-2.796,2.304L2.489,17.786z M4.293,13.282c-0.048,0.198-0.103,0.762-0.151,1.434
		c0.535-0.41,0.975-0.765,1.109-0.91l6.418-11.513c-0.214-0.207-0.677-0.459-0.965-0.526L4.293,13.282z M5.236,13.832
		c-0.004,0.007-0.008,0.015-0.012,0.021L5.236,13.832z M10.832,1.537l-0.003,0.006C10.83,1.541,10.831,1.539,10.832,1.537z"/>
	
		<rect x="9.588" y="2.254" transform="matrix(0.4748 -0.8801 0.8801 0.4748 2.3405 10.9421)" style="fill:#6486C4;" width="1.5" height="2.512"/>
</g>
</svg>
