<?xml version="1.0" encoding="iso-8859-1"?>
<!-- Generator: Adobe Illustrator 26.3.0, SVG Export Plug-In . SVG Version: 6.00 Build 0)  -->
<svg version="1.1" id="Layer_1" xmlns="http://www.w3.org/2000/svg" xmlns:xlink="http://www.w3.org/1999/xlink" x="0px" y="0px"
	 viewBox="0 0 24 24" style="enable-background:new 0 0 24 24;" xml:space="preserve">
<g id="icon">
	<rect x="6.75" y="6.75" style="opacity:0.5;fill:#FFFFFF;enable-background:new    ;" width="10.5" height="10.5"/>
	<path style="fill:#7D7C7B;" d="M18,18H6V6h12V18z M8,16h8V8H8V16z"/>
	<rect x="0.75" y="6.75" style="opacity:0.5;fill:#6486C4;enable-background:new    ;" width="3.5" height="10.5"/>
	<path style="fill:#6486C4;" d="M5,18H0V6h5V18z M1.5,16.5h2v-9h-2V16.5z"/>
	<rect x="19.75" y="6.75" style="opacity:0.5;fill:#6486C4;enable-background:new    ;" width="3.5" height="10.5"/>
	<path style="fill:#6486C4;" d="M24,18h-5V6h5V18z M20.5,16.5h2v-9h-2V16.5z"/>
	<rect x="6.75" y="0.75" style="opacity:0.5;fill:#6486C4;enable-background:new    ;" width="10.5" height="3.5"/>
	<path style="fill:#6486C4;" d="M18,5H6V0h12V5z M7.5,3.5h9v-2h-9V3.5z"/>
	<rect x="6.75" y="19.75" style="opacity:0.5;fill:#6486C4;enable-background:new    ;" width="10.5" height="3.5"/>
	<path style="fill:#6486C4;" d="M18,24H6v-5h12V24z M7.5,22.5h9v-2h-9V22.5z"/>
</g>
</svg>
