<?xml version="1.0" encoding="iso-8859-1"?>
<!-- Generator: Adobe Illustrator 26.3.0, SVG Export Plug-In . SVG Version: 6.00 Build 0)  -->
<svg version="1.1" id="Layer_1" xmlns="http://www.w3.org/2000/svg" xmlns:xlink="http://www.w3.org/1999/xlink" x="0px" y="0px"
	 viewBox="0 0 24 24" style="enable-background:new 0 0 24 24;" xml:space="preserve">
<g id="icon">
	<rect x="6.75" y="3.75" style="opacity:0.5;fill:#FFFFFF;enable-background:new    ;" width="10.5" height="6"/>
	<path style="fill:#7D7C7B;" d="M18,11H6V3h12V11z M8,9h8V5H8V9z"/>
	<polygon style="fill:#6486C4;" points="6,24 1,24 1,0 6,0 6,2 3,2 3,22 6,22 	"/>
	<polygon style="fill:#6486C4;" points="23,24 18,24 18,22 21,22 21,2 18,2 18,0 23,0 	"/>
	<circle style="opacity:0.5;fill:#FFFFFF;enable-background:new    ;" cx="12" cy="17.25" r="4.5"/>
	<path style="fill:#7D7C7B;" d="M12,22.75c-3.033,0-5.5-2.467-5.5-5.5s2.467-5.5,5.5-5.5s5.5,2.467,5.5,5.5S15.033,22.75,12,22.75z
		 M12,13.75c-1.93,0-3.5,1.57-3.5,3.5s1.57,3.5,3.5,3.5s3.5-1.57,3.5-3.5S13.93,13.75,12,13.75z"/>
</g>
</svg>
