<?xml version="1.0" encoding="iso-8859-1"?>
<!-- Generator: Adobe Illustrator 26.3.0, SVG Export Plug-In . SVG Version: 6.00 Build 0)  -->
<svg version="1.1" id="Layer_1" xmlns="http://www.w3.org/2000/svg" xmlns:xlink="http://www.w3.org/1999/xlink" x="0px" y="0px"
	 viewBox="0 0 24 24" style="enable-background:new 0 0 24 24;" xml:space="preserve">
<g id="icon">
	<path style="fill:#6486C4;" d="M10.61,3H9.613C11.1,1.171,13.365,0,15.9,0C20.367,0,24,3.634,24,8.1
		c0,2.175-0.863,4.15-2.262,5.606c-0.16-0.086-0.399-0.213-0.709-0.376c-0.048-0.025-0.098-0.052-0.15-0.078
		c-0.023-0.012-0.045-0.024-0.069-0.036c-0.074-0.039-0.151-0.079-0.232-0.121c-0.022-0.012-0.047-0.024-0.069-0.036
		c-1.227-0.64-3.155-1.636-5.509-2.851V6.45C15,4.548,13.453,3,11.55,3H10.61z M9.033,7.508c0.532,0,1.064,0.141,1.54,0.407
		c0.113,0.062,0.846,0.443,1.776,0.923c0.005,0.003,0.011,0.005,0.016,0.008c0.125,0.065,0.254,0.132,0.386,0.199l0,0
		c0.244,0.126,0.495,0.256,0.75,0.387V6.45c0-1.075-0.875-1.95-1.95-1.95h-9.6C0.875,4.5,0,5.375,0,6.45v9.6
		C0,17.125,0.875,18,1.95,18H6v-0.75V16.5v-5.948c0-1.079,0.577-2.087,1.505-2.63C7.968,7.651,8.496,7.508,9.033,7.508z
		 M21.157,15.099c-0.497-0.282-4.026-2.103-7.139-3.71c-2.051-1.059-3.989-2.058-4.179-2.165C9.331,8.939,8.742,8.936,8.263,9.216
		C7.792,9.492,7.5,10.004,7.5,10.552v11.922c0,0.545,0.274,1.033,0.734,1.306C8.48,23.927,8.758,24,9.038,24
		c0.264,0,0.528-0.065,0.767-0.195c0.255-0.139,1.806-0.962,3.602-1.914c4.03-2.138,7.395-3.924,7.756-4.133
		c0.491-0.283,0.782-0.783,0.78-1.337C21.94,15.871,21.647,15.377,21.157,15.099z"/>
</g>
</svg>
