<?xml version="1.0" encoding="iso-8859-1"?>
<!-- Generator: Adobe Illustrator 26.3.0, SVG Export Plug-In . SVG Version: 6.00 Build 0)  -->
<svg version="1.1" id="Layer_1" xmlns="http://www.w3.org/2000/svg" xmlns:xlink="http://www.w3.org/1999/xlink" x="0px" y="0px"
	 viewBox="0 0 24 24" style="enable-background:new 0 0 24 24;" xml:space="preserve">
<g id="icon">
	<polygon style="fill:#6486C4;" points="11.245,9.034 11.245,7.534 7.874,7.534 7.345,7.534 6.239,7.534 1.908,17.493 0.026,16.59 
		0.623,22.331 5.102,18.966 3.284,18.091 7.222,9.034 	"/>
	<circle style="opacity:0.5;fill:#FFFFFF;enable-background:new    ;" cx="17.245" cy="8.284" r="6"/>
	<path style="fill:#7B7B7B;" d="M17,15c-3.86,0-7-3.14-7-7s3.14-7,7-7s7,3.14,7,7S20.86,15,17,15z M17,2.826
		c-2.853,0-5.174,2.321-5.174,5.174s2.321,5.174,5.174,5.174S22.174,10.853,22.174,8S19.853,2.826,17,2.826z"/>
</g>
</svg>
