<?xml version="1.0" encoding="iso-8859-1"?>
<!-- Generator: Adobe Illustrator 26.3.0, SVG Export Plug-In . SVG Version: 6.00 Build 0)  -->
<svg version="1.1" id="Layer_1" xmlns="http://www.w3.org/2000/svg" xmlns:xlink="http://www.w3.org/1999/xlink" x="0px" y="0px"
	 viewBox="0 0 24 24" style="enable-background:new 0 0 24 24;" xml:space="preserve">
<g id="icon">
	<path style="fill:#7B7B7B;" d="M1.095,24c-0.525,0-1.091-0.312-1.091-0.996c0-2.794,1.729-5.006,2.259-5.617l0.165-0.19
		l0.585,0.821L4.15,18.32l-0.205,0.24c-0.521,0.609-1.733,2.264-1.733,4.484C2.212,23.672,1.65,24,1.095,24z"/>
	<path style="fill:#7B7B7B;" d="M5.512,20.564C2.524,20.564,0,18.454,0,15.957c0-2.467,2.601-4.552,5.679-4.552
		c1.391,0,2.709,0.454,3.711,1.278c1.009,0.83,1.589,1.943,1.631,3.134l0.01,0.292l-2.627-0.94l-0.024-0.107
		c-0.214-0.978-1.179-1.474-2.87-1.474c-1.824,0-3.199,1.019-3.199,2.369c0,1.397,1.435,2.534,3.199,2.534
		c0.211,0,0.419-0.023,0.621-0.068l0.062-0.014l2.736,1.149l-0.347,0.2C7.667,20.285,6.604,20.564,5.512,20.564z"/>
	<path style="opacity:0.5;fill:#FFFFFF;enable-background:new    ;" d="M10.585,8.108c1.075,0.392,2.433,0.704,3.518,0.834
		c-0.098,0.787-0.213,1.884-0.312,2.409c-1.337-0.201-2.646-0.585-3.664-1.133L10.585,8.108z M10.689,4.28
		c1.07-0.429,2.47-0.659,3.583-0.789c-0.106-0.777-0.314-1.933-0.418-2.425c-1.444,0.228-2.813,0.542-3.776,0.974L10.689,4.28z"/>
	<path style="fill:#7B7B7B;" d="M14.343,12.127l-0.655-0.099c-1.496-0.226-2.84-0.643-3.887-1.208l-0.453-0.244l0.733-3.379
		l0.739,0.27c0.993,0.362,2.282,0.668,3.364,0.797l0.684,0.082l-0.085,0.682C14.757,9.244,14.729,9.485,14.7,9.73
		c-0.078,0.661-0.159,1.345-0.234,1.747L14.343,12.127z M10.911,9.841c0.663,0.298,1.453,0.543,2.306,0.715
		c0.04-0.309,0.082-0.659,0.12-0.986c0.002-0.016,0.004-0.031,0.005-0.047c-0.744-0.124-1.533-0.309-2.249-0.526L10.911,9.841z
		 M10.229,5.202L9.262,1.657l0.534-0.24c0.916-0.411,2.245-0.757,3.95-1.026l0.643-0.102l0.135,0.635
		c0.104,0.49,0.317,1.669,0.427,2.475l0.094,0.691l-0.694,0.081C12.9,4.34,11.754,4.59,10.944,4.915L10.229,5.202z M10.9,2.451
		l0.257,0.944c0.657-0.198,1.437-0.362,2.332-0.491c-0.058-0.359-0.123-0.731-0.182-1.051C12.34,2.028,11.535,2.228,10.9,2.451z"/>
	<path style="opacity:0.5;fill:#FFFFFF;enable-background:new    ;" d="M15.818,0.737c-0.753,0.072-1.454,0.165-2.107,0.281
		c0.133,0.632,0.278,1.616,0.389,2.486c0.537-0.055,1.04-0.089,1.468-0.111c2.879-0.21,4.6,0.165,4.6,2.719
		c0,2.555-1.471,3.125-4.632,2.914c-0.409-0.022-0.909-0.053-1.453-0.104c-0.123,0.952-0.281,1.807-0.421,2.464
		c0.692,0.13,1.415,0.206,2.155,0.22c4.415,0.087,7.496-1.97,7.496-5.525C23.314,3.568,21.235,0.223,15.818,0.737z"/>
	<path style="fill:#CB535D;" d="M16.082,12.294c-0.092,0-0.185-0.001-0.278-0.003c-0.763-0.015-1.526-0.093-2.268-0.232
		l-0.689-0.129l0.145-0.685c0.171-0.809,0.31-1.62,0.412-2.41l0.084-0.656l0.66,0.062c0.439,0.041,0.906,0.075,1.425,0.102
		c1.828,0.122,2.87-0.04,3.389-0.524c0.35-0.327,0.521-0.885,0.521-1.707c0-0.737-0.16-1.244-0.49-1.549
		c-0.508-0.471-1.548-0.621-3.374-0.488c-0.538,0.029-1.007,0.064-1.447,0.11l-0.667,0.069L13.42,3.59
		c-0.129-1.013-0.267-1.899-0.38-2.432l-0.145-0.691l0.696-0.124c0.67-0.119,1.397-0.216,2.162-0.289l0,0
		c3.306-0.314,5.253,0.757,6.305,1.711C23.274,2.87,24,4.483,24,6.082c0,1.609-0.577,3.023-1.668,4.09
		C20.928,11.545,18.716,12.294,16.082,12.294z M14.475,10.823c0.448,0.058,0.902,0.092,1.356,0.101
		c2.385,0.046,4.352-0.567,5.54-1.729c0.834-0.815,1.256-1.863,1.256-3.113c0-1.22-0.558-2.454-1.493-3.303
		c-1.214-1.101-3.031-1.572-5.252-1.361c-0.474,0.045-0.932,0.1-1.37,0.163c0.068,0.401,0.13,0.825,0.18,1.182
		c0.266-0.021,0.544-0.039,0.838-0.054c1.667-0.122,3.365-0.104,4.395,0.851c0.625,0.579,0.928,1.414,0.928,2.552
		c0,1.221-0.312,2.107-0.955,2.707c-0.83,0.774-2.148,1.04-4.408,0.891c-0.284-0.015-0.556-0.032-0.817-0.051
		C14.615,10.043,14.549,10.433,14.475,10.823z"/>
	<path style="fill:#7B7B7B;" d="M19.988,22.416c-0.195,0-0.398-0.028-0.603-0.083l-0.034-0.01c-2.58-0.922-9.065-3.265-11.733-4.23
		l-1.351-0.567l-0.133,0.031L4.72,17.045l-0.381-2.009l0.181-0.08c0.298-0.131,0.649-0.2,1.018-0.2c0.277,0,0.523,0.022,0.733,0.065
		l0.158,0.032l0.129,0.622l12.903,4.619l1.029-7.213l2.165-1.101l-1.347,9.683l-0.002,0.009
		C21.171,22.063,20.677,22.416,19.988,22.416z M3.51,10.657c-0.605-3.196-1.289-6.81-1.623-8.582
		C1.774,1.498,1.938,1.14,2.096,0.942C2.293,0.695,2.588,0.56,2.928,0.56c0.14,0,0.288,0.023,0.439,0.068l4.619,1.265l0.388,2.153
		L3.921,2.783l1.616,7.777l-0.232,0.011c-0.525,0.026-1.046,0.107-1.55,0.241L3.55,10.867L3.51,10.657z"/>
</g>
</svg>
