<?xml version="1.0" encoding="iso-8859-1"?>
<!-- Generator: Adobe Illustrator 26.3.0, SVG Export Plug-In . SVG Version: 6.00 Build 0)  -->
<svg version="1.1" id="Layer_1" xmlns="http://www.w3.org/2000/svg" xmlns:xlink="http://www.w3.org/1999/xlink" x="0px" y="0px"
	 viewBox="0 0 24 24" style="enable-background:new 0 0 24 24;" xml:space="preserve">
<g id="icon">
	<polygon style="opacity:0.5;fill:#6486C4;enable-background:new    ;" points="21.833,15.536 10.947,12.505 10.87,0.846 
		23.145,3.178 	"/>
	<path style="fill:#6486C4;" d="M21.833,16.286c-0.067,0-0.135-0.009-0.201-0.028l-10.886-3.031
		c-0.323-0.09-0.547-0.383-0.549-0.718L10.12,0.851c-0.002-0.224,0.097-0.438,0.27-0.581c0.172-0.144,0.4-0.203,0.62-0.161
		l12.276,2.332c0.384,0.073,0.647,0.428,0.606,0.816l-1.312,12.358c-0.023,0.219-0.142,0.417-0.324,0.541
		C22.129,16.242,21.982,16.286,21.833,16.286z M11.693,11.934l9.488,2.642l1.146-10.79L11.625,1.753L11.693,11.934z"/>
	<path style="opacity:0.6;fill:#7D7C7B;enable-background:new    ;" d="M22.579,15.615c-0.023,0.219-0.142,0.417-0.324,0.541
		c-0.126,0.085-0.273,0.13-0.421,0.13c-0.067,0-0.135-0.009-0.201-0.028l-1.147-0.319l-5.066,5.352L15.763,8.73l6.476-4.122
		l0.087-0.822l-1.224-0.233l-6.2,3.947L3.3,4.315l6.826-2.488L10.12,0.851c-0.002-0.224,0.097-0.438,0.27-0.581
		c0.056-0.046,0.118-0.083,0.183-0.111l-0.084-0.06L0.576,3.711C0.54,3.724,0.507,3.74,0.474,3.758
		C0.47,3.76,0.465,3.762,0.461,3.764c-0.04,0.023-0.077,0.049-0.112,0.079C0.339,3.851,0.331,3.861,0.322,3.87
		c-0.024,0.022-0.046,0.045-0.067,0.07C0.244,3.953,0.234,3.967,0.224,3.982C0.207,4.005,0.192,4.029,0.178,4.053
		C0.169,4.069,0.161,4.085,0.154,4.102C0.141,4.129,0.13,4.158,0.121,4.187c-0.003,0.01-0.009,0.019-0.011,0.03
		C0.108,4.222,0.108,4.228,0.106,4.234C0.098,4.267,0.093,4.301,0.089,4.335C0.088,4.348,0.085,4.361,0.084,4.374
		C0.082,4.419,0.083,4.465,0.089,4.511l0,0.001c0,0.001,0,0.003,0.001,0.004l1.722,13.34c0.001,0.004,0.002,0.008,0.003,0.013
		c0.001,0.01,0.004,0.019,0.006,0.029c0.007,0.036,0.016,0.071,0.028,0.105c0.003,0.009,0.005,0.017,0.009,0.026
		c0.016,0.041,0.035,0.08,0.058,0.118c0.002,0.003,0.003,0.007,0.005,0.011c0.005,0.008,0.011,0.015,0.016,0.023
		c0.01,0.014,0.019,0.028,0.03,0.042c0.01,0.013,0.02,0.025,0.031,0.037c0.01,0.011,0.02,0.022,0.031,0.033
		c0.012,0.012,0.025,0.024,0.038,0.035c0.011,0.009,0.021,0.018,0.032,0.027c0.014,0.011,0.029,0.021,0.044,0.031
		c0.011,0.008,0.023,0.015,0.035,0.022c0.016,0.009,0.031,0.017,0.047,0.025c0.007,0.004,0.014,0.008,0.021,0.011l12.056,5.469
		c0.002,0.001,0.003,0.001,0.005,0.002c0.041,0.018,0.083,0.032,0.125,0.043c0.006,0.001,0.011,0.003,0.017,0.004
		c0.045,0.01,0.09,0.015,0.135,0.017c0.003,0,0.007,0.001,0.01,0.001c0.007,0,0.014,0,0.02,0c0,0,0,0,0,0c0,0,0,0,0,0c0,0,0,0,0,0
		c0.103,0,0.201-0.021,0.29-0.059c0.011-0.005,0.021-0.012,0.033-0.017c0.033-0.016,0.066-0.032,0.096-0.053
		c0.014-0.01,0.027-0.022,0.041-0.033c0.025-0.02,0.05-0.04,0.073-0.062c0.003-0.004,0.008-0.006,0.011-0.01l7.219-7.626
		c0.143-0.151,0.211-0.347,0.205-0.54L22.579,15.615z M13.896,22.081L4.14,17.655l6.942-4.334l-0.336-0.094
		c-0.323-0.09-0.547-0.383-0.549-0.718l-0.003-0.403L3.15,16.505L1.721,5.437l12.538,3.442L13.896,22.081z"/>
</g>
</svg>
