<?xml version="1.0" encoding="UTF-8"?>
<!DOCTYPE svg PUBLIC "-//W3C//DTD SVG 1.1//EN" "http://www.w3.org/Graphics/SVG/1.1/DTD/svg11.dtd">
<svg version="1.1" id="Layer_1" xmlns="http://www.w3.org/2000/svg" xmlns:xlink="http://www.w3.org/1999/xlink" x="0px" y="0px" width="24px" height="24px" viewBox="0 0 24 24" enable-background="new 0 0 24 24" xml:space="preserve">
  <g id="icon">
    <path d="M18.9074,3.5166c-0.7005,0,-1.3603,0.1769,-1.9408,0.488c-0.7786,-1.828,-2.5569,-3.1062,-4.6272,-3.1062c-2.5581,0,-4.6702,1.951,-5.0011,4.4803C6.4641,5.6182,5.7315,6.2118,5.2944,7H18v5.1193h0.9074c2.3175,0,4.1962,-1.9258,4.1962,-4.3013S21.2249,3.5166,18.9074,3.5166z" fill="#FFFFFF" opacity="0.5"/>
    <path d="M18.9168,2.6146c-0.5168,0,-1.0283,0.0803,-1.5225,0.2388C16.3169,1.0898,14.4008,0,12.3611,0C9.6127,0,7.1955,1.9714,6.5805,4.7002C5.5597,5.1425,4.7628,5.9842,4.3385,7h2.0697c0.3106,-0.3614,0.7216,-0.6328,1.197,-0.7631c0.3486,-0.0955,0.6042,-0.3894,0.6512,-0.7489c0.2753,-2.1057,2.0399,-3.6935,4.1046,-3.6935c1.6445,0,3.1344,1.0037,3.7957,2.557c0.0982,0.2307,0.2899,0.4108,0.5259,0.4941c0.0957,0.0338,0.1956,0.0509,0.297,0.0509c0.1467,0,0.2926,-0.0367,0.4219,-0.1061c0.4719,-0.253,0.9817,-0.3813,1.5152,-0.3813c1.8161,0,3.2936,1.5244,3.2936,3.3982s-1.4775,3.3982,-3.2936,3.3982H18V13h0.9168C21.7197,13,24,10.6706,24,7.8073C24,4.9441,21.7197,2.6146,18.9168,2.6146z" fill="#6485C3"/>
    <rect x="2" y="12" width="13" height="10" fill="#FFFFFF" opacity="0.4"/>
    <polygon points="15,12 15,14 15,22 6,22 5,22 2,22 2,14 2,12 0,12 0,24 17,24 17,12" fill="#7B7B7B" stroke-linejoin="miter"/>
    <path d="M0,8v4h17V8H0z" fill="#52B250"/>
    <path d="M4.5773,20.8644l-0.6495,-0.9368l2.6809,-2.0444c-0.6759,-1.4509,-0.2298,-3.2255,1.1292,-4.1679c0.7357,-0.5101,1.626,-0.7034,2.5068,-0.5437c0.8809,0.1595,1.647,0.6524,2.157,1.388l0,0c0.5101,0.7357,0.7032,1.6259,0.5437,2.5068c-0.1595,0.8809,-0.6524,1.6469,-1.388,2.157c-0.7356,0.5101,-1.626,0.7032,-2.5068,0.5437c-0.691,-0.1251,-1.3113,-0.4554,-1.7929,-0.947L4.5773,20.8644zM9.6445,14.2586c-0.4347,0,-0.8735,0.1275,-1.257,0.3935c-0.4854,0.3366,-0.8107,0.8421,-0.9159,1.4234c-0.1052,0.5813,0.0222,1.1687,0.3588,1.6542c0.3366,0.4854,0.8421,0.8107,1.4233,0.9159c0.5812,0.1051,1.1687,-0.0222,1.6542,-0.3588c0.4854,-0.3366,0.8107,-0.8421,0.9159,-1.4233c0.1052,-0.5813,-0.0222,-1.1687,-0.3588,-1.6542l0,0C11.0361,14.5906,10.3457,14.2586,9.6445,14.2586z" fill="#52B250"/>
  </g>
</svg>
