<?xml version="1.0" encoding="UTF-8"?>
<!DOCTYPE svg PUBLIC "-//W3C//DTD SVG 1.1//EN" "http://www.w3.org/Graphics/SVG/1.1/DTD/svg11.dtd">
<svg version="1.1" id="Layer_1" xmlns="http://www.w3.org/2000/svg" xmlns:xlink="http://www.w3.org/1999/xlink" x="0px" y="0px" width="24px" height="24px" viewBox="0 0 24 24" enable-background="new 0 0 24 24" xml:space="preserve">
  <g id="icon">
    <path d="M18.9074,3.5166c-0.7005,0,-1.3603,0.1769,-1.9408,0.488c-0.7786,-1.828,-2.5569,-3.1062,-4.6272,-3.1062c-2.5581,0,-4.6702,1.951,-5.0011,4.4803c-0.4171,0.1143,-0.8017,0.3096,-1.1378,0.5677c0.7169,-0.2925,1.5541,-0.4449,2.5012,-0.4464h0.083c2.9171,0.0045,4.7979,1.4304,5.2978,4.0149c0.0547,0.2827,0.1175,0.6587,0.1175,1.0597c0,0.523,-0.0459,1.0372,-0.1372,1.5446h4.8446c2.3175,0,4.1962,-1.9258,4.1962,-4.3013S21.2249,3.5166,18.9074,3.5166z" fill="#6485C3"/>
    <path d="M18.9168,2.6146c-0.5168,0,-1.0283,0.0803,-1.5225,0.2388C16.3169,1.0898,14.4008,0,12.3611,0C9.6127,0,7.1955,1.9714,6.5805,4.7002C5.3484,5.2341,4.4427,6.35,4.1247,7.6514c0.8292,-1.2959,2.2399,-2.035,4.1265,-2.138c0.0014,-0.0086,0.0041,-0.0167,0.0052,-0.0253c0.2753,-2.1057,2.0399,-3.6935,4.1046,-3.6935c1.6445,0,3.1344,1.0037,3.7957,2.557c0.0982,0.2307,0.2899,0.4108,0.5259,0.4941c0.0957,0.0338,0.1956,0.0509,0.297,0.0509c0.1467,0,0.2926,-0.0367,0.4219,-0.1061c0.4719,-0.253,0.9817,-0.3813,1.5152,-0.3813c1.8161,0,3.2936,1.5244,3.2936,3.3982s-1.4775,3.3982,-3.2936,3.3982h-4.7395c-0.0434,0.6083,-0.1502,1.2055,-0.3213,1.7945h5.0608C21.7197,13,24,10.6706,24,7.8073C24,4.9441,21.7197,2.6146,18.9168,2.6146z" fill="#6485C3"/>
    <path d="M11.9583,16.7083c-0.0797,0,-0.0066,0.0013,-0.0731,0.0038c-0.009,0.5923,-2.1892,4.4441,-3.1352,4.4441c-0.9436,0,-3.1151,-3.764,-3.1349,-4.4384c-0.1219,-0.0064,-0.1207,-0.0095,-0.2921,-0.0095C1.6771,16.7083,0,19.5983,0,21.6512C0,24,4.375,24,8.75,24s8.75,0,8.75,-2.3488C17.5,19.5761,15.8958,16.7083,11.9583,16.7083z" fill="#6485C3"/>
    <path d="M11.0974,16.2171c-0.6977,0.7465,-1.5017,1.1475,-2.3312,1.1475c-0.8342,0,-1.6427,-0.4054,-2.3431,-1.16c-0.2633,0.1512,-0.8086,0.4685,-0.8086,0.5038c0,0.6563,2.1875,4.4479,3.1354,4.4479s3.1354,-3.8646,3.1354,-4.4479C11.8854,16.6774,11.3675,16.3735,11.0974,16.2171z" fill="#FFFFFF" opacity="0.6"/>
    <path d="M12.5923,11.2353c0,2.6881,-1.713,5.749,-3.826,5.749s-3.826,-3.0608,-3.826,-5.749s1.713,-4.1353,3.826,-4.1353S12.5923,8.5472,12.5923,11.2353z" fill="#FFFFFF" opacity="0.5"/>
    <path d="M8.7662,17.5833c-1.1928,0,-2.3276,-0.7602,-3.1954,-2.1405c-0.7601,-1.209,-1.2139,-2.7819,-1.2139,-4.2075c0,-1.4378,0.4479,-2.6492,1.2954,-3.5033c0.7877,-0.7939,1.8936,-1.2311,3.114,-1.2311s2.3263,0.4372,3.114,1.2311c0.8474,0.8541,1.2954,2.0655,1.2954,3.5033c0,1.4256,-0.4538,2.9986,-1.2139,4.2075C11.0938,16.8231,9.959,17.5833,8.7662,17.5833zM8.7662,7.699c-1.9699,0,-3.2427,1.3881,-3.2427,3.5362c0,2.3182,1.4963,5.1499,3.2427,5.1499s3.2427,-2.8317,3.2427,-5.1499C12.0089,9.0871,10.7361,7.699,8.7662,7.699z" fill="#6485C3"/>
    <path d="M5.7604,8.9264c-0.2917,1.1704,0.4375,1.618,1.8958,1.618s1.6042,-0.6889,2.9896,-0.6889s1.4583,0.8737,1.4583,0.8737l-0.1458,-2.5257L9.9167,7.1563H7.4375C7.4375,7.1563,6.0521,7.7559,5.7604,8.9264z" fill="#6485C3"/>
    <path d="M9.6979,18.3125v-0.1458H7.8021v0.1458c0,0.3873,0.2019,0.9369,0.4557,1.067l-0.3609,2.1413h1.7063l-0.3569,-2.1146C9.5362,19.2869,9.6979,18.7284,9.6979,18.3125z" fill="#6485C3"/>
  </g>
</svg>
