<?xml version="1.0" encoding="UTF-8"?>
<!DOCTYPE svg PUBLIC "-//W3C//DTD SVG 1.1//EN" "http://www.w3.org/Graphics/SVG/1.1/DTD/svg11.dtd">
<svg version="1.1" id="Layer_1" xmlns="http://www.w3.org/2000/svg" xmlns:xlink="http://www.w3.org/1999/xlink" x="0px" y="0px" width="24px" height="24px" viewBox="0 0 24 24" enable-background="new 0 0 24 24" xml:space="preserve">
  <g id="icon">
    <path d="M17.4594,12.0062c0,5.0837,4.7024,11.5407,-5.3528,11.5407s-5.3528,-6.457,-5.3528,-11.5407s-0.7004,-9.2048,5.3528,-9.2048S17.4594,6.9226,17.4594,12.0062z" fill="#FFFFFF" opacity="0.5"/>
    <path d="M9.337,14.0004c0.7753,0.7374,1.6735,1.2006,2.6659,1.2006c0.9913,0,1.8887,-0.4622,2.6635,-1.1982c3.1049,1.4049,3.8665,2.7665,3.6145,-6.8583C17.9555,1.3586,15.1177,0,12.0009,0C8.8842,0,6.0072,1.3586,5.6818,7.1446C5.4297,16.7749,6.2178,15.4057,9.337,14.0004zM7.8857,6.2874c0,-2.0082,4.2543,0.3528,5.6268,0.3528c2.2635,0,2.6259,-2.1846,2.6259,-0.7056c0,3.0225,-1.4878,7.6489,-4.1732,7.6489C9.8229,13.5835,7.8857,10.9417,7.8857,6.2874z" fill="#9070B1"/>
    <path d="M17.4425,14.6318c-0.4332,-0.104,-1.2408,-0.1761,-1.471,-0.2032c0.3541,1.2518,-3.1386,7.7007,-3.9233,7.7007c-0.8641,0,-4.2762,-6.4549,-3.9205,-7.7097c-0.2391,0.0156,-1.0708,0.093,-1.5673,0.2122c-3.375,0.8102,-5.9706,3.6506,-5.9706,6.1622c0,3.6544,5.4301,3.1526,11.4117,3.1521c5.9816,0.0005,11.4117,0.5023,11.4117,-3.1521C23.4132,18.2824,20.8175,15.4421,17.4425,14.6318z" fill="#9070B1"/>
  </g>
</svg>
