<?xml version="1.0" encoding="UTF-8"?>
<!DOCTYPE svg PUBLIC "-//W3C//DTD SVG 1.1//EN" "http://www.w3.org/Graphics/SVG/1.1/DTD/svg11.dtd">
<svg version="1.1" id="Layer_1" xmlns="http://www.w3.org/2000/svg" xmlns:xlink="http://www.w3.org/1999/xlink" x="0px" y="0px" width="24px" height="24px" viewBox="0 0 24 24" enable-background="new 0 0 24 24" xml:space="preserve">
  <g id="icon">
    <polygon points="22,22 6,22 6,2 17,2 17,7.025 22,7" fill="#FFFFFF" stroke-linejoin="miter" opacity="0.5"/>
    <path d="M17.525,0H5v4.4136c0.618,-0.4107,1.2888,-0.7477,2,-0.9986V2h10v5.025L22,7v15H7v-1.4441c-0.2324,-0.082,-0.4617,-0.1733,-0.6871,-0.2744L5,21.5944V24h19V6.5L17.525,0z" fill="#7B7B7B"/>
    <path d="M9.9911,18.3235c-3.51,0,-6.3555,-2.8455,-6.3555,-6.3555s2.8455,-6.3555,6.3555,-6.3555s6.3555,2.8455,6.3555,6.3555S13.5012,18.3235,9.9911,18.3235z" fill="#FFFFFF" opacity="0.4"/>
    <path d="M1.7659,22L0,20.2341l4.2031,-4.2032c-0.8332,-1.1921,-1.2729,-2.5884,-1.2729,-4.0461C2.9302,8.0783,6.1085,4.9,10.0151,4.9S17.1,8.0783,17.1,11.9849s-3.1783,7.0849,-7.0849,7.0849c-1.4576,0,-2.8539,-0.4397,-4.0461,-1.2729L1.7659,22zM4.7345,11.9849c0,2.9117,2.3689,5.2806,5.2806,5.2806s5.2806,-2.3689,5.2806,-5.2806s-2.3689,-5.2806,-5.2806,-5.2806S4.7345,9.0732,4.7345,11.9849z" fill="#6485C3"/>
  </g>
</svg>
