<?xml version="1.0" encoding="UTF-8"?>
<!DOCTYPE svg PUBLIC "-//W3C//DTD SVG 1.1//EN" "http://www.w3.org/Graphics/SVG/1.1/DTD/svg11.dtd">
<svg version="1.1" id="Layer_1" xmlns="http://www.w3.org/2000/svg" xmlns:xlink="http://www.w3.org/1999/xlink" x="0px" y="0px" width="24px" height="24px" viewBox="0 0 24 24" enable-background="new 0 0 24 24" xml:space="preserve">
  <g id="icon">
    <path d="M0,4v18h24V4H0zM3,7h9v1H3V7zM3,9h11v1H3V9zM5,16h12.5v1H5V16zM12.5,19H5v-1h7.5V19zM19.5,19h-5.5v-1h5.5V19zM19.5,15H5v-1h14.5V15zM22,10h-3V6h3V10z" fill="#7B7B7B"/>
    <path d="M22,10h-3V6h3V10zM12,8H3V7h9V8zM14,10H3V9h11V10zM5,16v1h12.5v-1H5zM5,18v1h7.5v-1H5zM14,18v1h5.5v-1H14zM19.5,14v1H5v-1H19.5z" fill="#FFFFFF" opacity="0.5"/>
  </g>
</svg>
