<?xml version="1.0" encoding="UTF-8"?>
<!DOCTYPE svg PUBLIC "-//W3C//DTD SVG 1.1//EN" "http://www.w3.org/Graphics/SVG/1.1/DTD/svg11.dtd">
<svg version="1.1" id="Layer_1" xmlns="http://www.w3.org/2000/svg" xmlns:xlink="http://www.w3.org/1999/xlink" x="0px" y="0px" width="24px" height="24px" viewBox="0 0 24 24" enable-background="new 0 0 24 24" xml:space="preserve">
  <g id="icon">
    <rect x="0.75" y="0.75" width="22.35" height="22.35" fill="#FFFFFF" opacity="0.5"/>
    <path d="M0,24V0h24v24H0zM22,22V2H2v20H22z" fill="#7B7B7B"/>
    <path d="M15.0009,13.4163c0,0.5667,-2.078,4.321,-2.9785,4.321s-2.9785,-3.6835,-2.9785,-4.321c0,-0.0343,0.5179,-0.3425,0.7681,-0.4894c0.6654,0.7331,1.4334,1.1269,2.2258,1.1269c0.7879,0,1.5517,-0.3896,2.2145,-1.1148C14.509,13.091,15.0009,13.3862,15.0009,13.4163zM12.0379,13.6844c2.0073,0,3.6345,-2.9735,3.6345,-5.585c0,-2.6114,-1.6272,-4.0174,-3.6345,-4.0174S8.4034,5.488,8.4034,8.0994C8.4034,10.7108,10.0306,13.6844,12.0379,13.6844z" fill="#FFFFFF" opacity="0.5"/>
    <path d="M20.3345,18.2182c0,2.2818,-4.156,2.2818,-8.312,2.2818s-8.312,0,-8.312,-2.2818c0,-1.9944,1.5931,-4.8019,5.0564,-4.8019c0.1629,0,0.1617,0.003,0.2775,0.0092c0.015,0.5187,1.3106,2.9177,2.2946,3.8953l0.2158,-1.3095c-0.2412,-0.1264,-0.4329,-0.6604,-0.4329,-1.0366v-0.1417h1.8009v0.1417c0,0.404,-0.1536,0.9466,-0.429,1.0626l0.2109,1.2778c0.9873,-0.9951,2.2892,-3.4391,2.296,-3.895c0.0632,-0.0025,-0.0063,-0.0037,0.0695,-0.0037C18.8106,13.4163,20.3345,16.2023,20.3345,18.2182zM9.0024,12.1869c-0.7221,-1.1745,-1.1531,-2.7025,-1.1531,-4.0875c0,-1.3968,0.4255,-2.5736,1.2305,-3.4034C9.8281,3.9247,10.8786,3.5,12.0379,3.5s2.2098,0.4247,2.9581,1.196c0.805,0.8297,1.2305,2.0066,1.2305,3.4034c0,1.385,-0.4311,2.913,-1.1531,4.0875c-0.8244,1.341,-1.9024,2.0795,-3.0355,2.0795S9.8268,13.5278,9.0024,12.1869zM8.9576,8.0994c0,2.2521,1.4214,5.003,3.0804,5.003s3.0804,-2.7509,3.0804,-5.003c0,-0.3103,-0.0273,-0.6038,-0.079,-0.8795c-0.1728,-0.2237,-0.5199,-0.461,-1.2159,-0.461c-1.3161,0,-1.4546,0.6693,-2.8399,0.6693c-0.9848,0,-1.6191,-0.2201,-1.8043,-0.7556C9.0345,7.0949,8.9576,7.5736,8.9576,8.0994z" fill="#6485C3"/>
  </g>
</svg>
