<?xml version="1.0" encoding="UTF-8"?>
<!DOCTYPE svg PUBLIC "-//W3C//DTD SVG 1.1//EN" "http://www.w3.org/Graphics/SVG/1.1/DTD/svg11.dtd">
<svg version="1.1" id="Layer_1" xmlns="http://www.w3.org/2000/svg" xmlns:xlink="http://www.w3.org/1999/xlink" x="0px" y="0px" width="24px" height="24px" viewBox="0 0 24 24" enable-background="new 0 0 24 24" xml:space="preserve">
  <g id="icon">
    <path d="M4.8,1.8v5.3975c0.9776,-0.9019,2.2877,-1.3967,3.7158,-1.3967c1.5078,0,2.8847,0.5508,3.8769,1.5508c1.051,1.0592,1.6065,2.5282,1.6065,4.2483c0,1.4092,-0.3945,2.9462,-1.0708,4.22c1.3192,0.2151,2.4017,0.753,3.236,1.48H23.3V1.8H4.8z" fill="#FFFFFF" opacity="0.5"/>
    <path d="M24,1v17h-7.1528c-0.7438,-0.9018,-1.7884,-1.6242,-3.1142,-2H22V3H6v3.3744c-0.5042,0.2498,-0.9639,0.5768,-1.3611,0.9771c-0.2394,0.2412,-0.4517,0.5047,-0.6389,0.7866V1H24z" fill="#7B7B7B"/>
    <path d="M20,9h-3V5h3V9z" fill="#CB525D"/>
    <path d="M13.8775,13H16.5v1h-2.8473C13.7459,13.6698,13.8211,13.3349,13.8775,13zM12.3926,7.3516c0.2,0.2016,0.3818,0.4182,0.5456,0.6484H13.5V7h-1.4945C12.1401,7.1102,12.2694,7.2274,12.3926,7.3516z" fill="#B7B7B7"/>
    <path d="M8,5.8234V5h6.5v1h-4.4617c-0.4844,-0.1304,-0.9951,-0.1992,-1.5225,-0.1992C8.3419,5.8008,8.17,5.8089,8,5.8234zM13.9752,11c0.0155,0.1964,0.0239,0.3963,0.0239,0.6c0,0.1322,-0.0046,0.2659,-0.0115,0.4H18.5v-1H13.9752z" fill="#6D6E71"/>
    <path d="M11.5458,16.9167c0,0.5667,-2.125,4.3208,-3.0458,4.3208s-3.0458,-3.6833,-3.0458,-4.3208c0,-0.0343,0.5296,-0.3425,0.7855,-0.4894c0.6804,0.7331,1.4658,1.1269,2.2761,1.1269c0.8058,0,1.5868,-0.3895,2.2646,-1.1147C11.0428,16.5914,11.5458,16.8866,11.5458,16.9167zM8.5158,17.1847c2.0527,0,3.7167,-2.9734,3.7167,-5.5847c0,-2.6113,-1.664,-4.0172,-3.7167,-4.0172S4.7991,8.9887,4.7991,11.6C4.7991,14.2113,6.4631,17.1847,8.5158,17.1847z" fill="#FFFFFF" opacity="0.5"/>
    <path d="M17,21.7183C17,24,12.75,24,8.5,24s-8.5,0,-8.5,-2.2817c0,-1.9943,1.6292,-4.8017,5.1708,-4.8017c0.1666,0,0.1653,0.003,0.2838,0.0092c0.0153,0.5186,1.3403,2.9176,2.3465,3.8951l0.2207,-1.3094c-0.2466,-0.1264,-0.4427,-0.6603,-0.4427,-1.0366v-0.1417h1.8417v0.1417c0,0.404,-0.1571,0.9465,-0.4387,1.0625l0.2156,1.2778c1.0097,-0.9951,2.341,-3.4389,2.3479,-3.8949c0.0646,-0.0025,-0.0064,-0.0037,0.071,-0.0037C15.4417,16.9167,17,19.7025,17,21.7183zM5.4116,15.6873C4.6732,14.5129,4.2324,12.9849,4.2324,11.6c0,-1.3967,0.4351,-2.5735,1.2584,-3.4032c0.7652,-0.7712,1.8395,-1.196,3.025,-1.196s2.2598,0.4247,3.025,1.196c0.8232,0.8297,1.2584,2.0065,1.2584,3.4032c0,1.3849,-0.4408,2.9129,-1.1792,4.0873c-0.843,1.3409,-1.9455,2.0794,-3.1041,2.0794S6.2547,17.0282,5.4116,15.6873zM5.3657,11.6c0,2.252,1.4536,5.0027,3.15,5.0027s3.15,-2.7508,3.15,-5.0027c0,-0.3103,-0.028,-0.6038,-0.0808,-0.8794c-0.1767,-0.2237,-0.5317,-0.461,-1.2434,-0.461c-1.3458,0,-1.4875,0.6693,-2.9042,0.6693c-1.0071,0,-1.6557,-0.2201,-1.8451,-0.7556C5.4444,10.5955,5.3657,11.0742,5.3657,11.6z" fill="#6485C3"/>
  </g>
</svg>
