<?xml version="1.0" encoding="UTF-8"?>
<!DOCTYPE svg PUBLIC "-//W3C//DTD SVG 1.1//EN" "http://www.w3.org/Graphics/SVG/1.1/DTD/svg11.dtd">
<svg version="1.1" id="Layer_1" xmlns="http://www.w3.org/2000/svg" xmlns:xlink="http://www.w3.org/1999/xlink" x="0px" y="0px" width="24px" height="24px" viewBox="0 0 24 24" enable-background="new 0 0 24 24" xml:space="preserve">
  <g id="icon">
    <path d="M0,6v16h20V6H0zM2,9h6v1H2V9zM2,11h8v1H2V11zM14.5,19H4v-1h10.5V19zM16.5,17H4v-1h12.5V17zM18,12h-3V8h3V12z" fill="#7B7B7B"/>
    <polygon points="4,2 4,3 6,3 23,3 23,16 23,18 24,18 24,2" fill="#7B7B7B" stroke-linejoin="miter"/>
    <polygon points="2,4 2,5 4,5 21,5 21,18 21,20 22,20 22,4" fill="#7B7B7B" stroke-linejoin="miter"/>
    <path d="M18,12h-3V8h3V12zM8,10H2V9h6V10zM10,12H2v-1h8V12zM4,18v1h10.5v-1H4zM16.5,16v1H4v-1H16.5z" fill="#FFFFFF" opacity="0.5"/>
  </g>
</svg>
