<?xml version="1.0" encoding="UTF-8"?>
<!DOCTYPE svg PUBLIC "-//W3C//DTD SVG 1.1//EN" "http://www.w3.org/Graphics/SVG/1.1/DTD/svg11.dtd">
<svg version="1.1" id="Layer_1" xmlns="http://www.w3.org/2000/svg" xmlns:xlink="http://www.w3.org/1999/xlink" x="0px" y="0px" width="24px" height="24px" viewBox="0 0 24 24" enable-background="new 0 0 24 24" xml:space="preserve">
  <g id="icon">
    <polygon points="16,5 16,4 14,4 14,5 8,5 8,18 22,18 22,5" fill="#FFFFFF" stroke-linejoin="miter" opacity="0.5"/>
    <path d="M6,3v17h18V3H6zM22,18H8V5h6V4h2v1h6V18z" fill="#EEAC55"/>
    <path d="M13,3v6h4V3H13zM16,8h-2V4h2V8z" fill="#7B7B7B"/>
    <rect x="14" y="4" width="2" height="4" fill="#7B7B7B" opacity="0.3"/>
    <path d="M12.5649,13.9259c0.0064,0.0087,0.0002,0.0209,-0.0106,0.0209h-1.0522v2.9238c0,0.0421,-0.0341,0.0762,-0.0762,0.0762h-1.3477c-0.0421,0,-0.0762,-0.0341,-0.0762,-0.0762v-2.9238H8.924l1.8281,-2.9812L12.5649,13.9259zM15.2521,10.9656l-1.8281,2.9812h1.0781v2.9238c0,0.0421,0.0341,0.0762,0.0762,0.0762h1.3477c0.0421,0,0.0762,-0.0341,0.0762,-0.0762v-2.9238h1.0522c0.0108,0,0.017,-0.0122,0.0106,-0.0209L15.2521,10.9656z" fill="#7B7B7B"/>
    <path d="M2.1,11h2.9v1H2.1V11zM2.7,13h2.3v1H2.7V13zM3.5,15h1.5v1H3.5V15zM1.4,9h3.6v1H1.4V9zM0.7,7h4.3v1H0.7V7zM0,5h5v1H0L0,5z" fill="#CB525D"/>
  </g>
</svg>
