<?xml version="1.0" encoding="utf-8"?>
<!-- Generator: Adobe Illustrator 26.1.0, SVG Export Plug-In . SVG Version: 6.00 Build 0)  -->
<svg version="1.1" id="Layer_1" xmlns="http://www.w3.org/2000/svg" xmlns:xlink="http://www.w3.org/1999/xlink" x="0px" y="0px"
	 viewBox="0 0 24 24" style="enable-background:new 0 0 24 24;" xml:space="preserve">
<style type="text/css">
	.st0{fill:#7B7B7B;}
	.st1{opacity:0.5;fill:#FFFFFF;enable-background:new    ;}
</style>
<g id="icon">
	<path class="st0" d="M17.6,8.5c-0.1-0.8,0.1-1.8,0.6-2.3c0.3-0.3,0.5-0.4,0.8-0.4c0.2,0,0.2,0,0.3,0.1c0.3,0.1,0.5,0.5,0.6,0.9
		c0.1,0.3,0.1,0.9,0,1.2c-0.1,0.5-0.3,0.9-0.5,1.2c-0.1,0.2-0.3,0.3-0.5,0.4c-0.1,0.1-0.2,0.1-0.4,0.1c-0.2,0-0.2,0-0.4-0.1
		C18,9.5,17.7,9.1,17.6,8.5z M14,15.5c0.5,0.2,1.1-0.1,1.5-0.7c0.7-1.1,0.6-2.7-0.1-3c-0.1-0.1-0.3-0.1-0.5,0
		c-0.2,0-0.4,0.2-0.7,0.4c-0.4,0.4-0.7,0.9-0.8,1.6C13.3,14.5,13.6,15.2,14,15.5z M11.6,17.7c-0.1-0.1-0.2-0.1-0.4-0.1
		c-0.3,0-0.4,0-0.6,0.1C10,18,9.4,18.9,9.2,19.8c-0.1,0.7,0.1,1.2,0.5,1.4c0.1,0,0.2,0.1,0.4,0c1-0.1,2-1.4,2-2.5
		C12.1,18.2,11.9,17.8,11.6,17.7z M17.3,17.8c-0.5-0.1-1,0.1-1.5,0.6c-0.5,0.5-0.8,1.2-0.8,1.8c0,0.5,0.1,0.7,0.3,1
		c0.2,0.2,0.3,0.2,0.6,0.2c0.5,0,1-0.4,1.4-0.9c0.2-0.3,0.4-0.7,0.5-1c0.1-0.3,0.1-0.8,0.1-1C17.8,18.1,17.6,17.9,17.3,17.8z M24,12
		c0,6.6-5.4,12-12,12S0,18.6,0,12S5.4,0,12,0S24,5.4,24,12z M17.5,10.2c1,0.3,2-0.2,2.6-1.2c0.4-0.7,0.4-1.6,0.2-2.3
		c-0.1-0.4-0.4-0.8-0.7-1.1c-0.2-0.2-0.6-0.4-0.8-0.4c-0.2,0-0.6-0.1-0.8,0c-0.8,0.2-1.5,0.9-1.8,1.9C15.8,8.4,16.4,9.8,17.5,10.2z
		 M10.9,16.6c-0.2,0-0.7,0-0.9,0c-0.9,0.2-1.7,1-2.1,1.9c-0.2,0.7-0.2,1.4,0.1,1.9c0.2,0.5,0.6,0.9,1.2,1c0.3,0.1,0.8,0.1,1.1,0
		c0.5-0.1,0.9-0.4,1.2-0.8c0.5-0.5,0.8-1.1,0.9-1.8C12.5,17.8,11.9,16.8,10.9,16.6z M13.8,16c0.4,0,0.8-0.1,1.2-0.3
		c0.3-0.2,0.7-0.6,0.9-0.9c0.5-0.7,0.6-1.7,0.3-2.5c-0.2-0.6-0.6-1.1-1.2-1.4c-0.3-0.1-0.7-0.2-1-0.1c-0.5,0.1-0.9,0.3-1.3,0.7
		c-0.9,0.9-1.1,2.2-0.6,3.3C12.5,15.5,13.1,15.9,13.8,16z M18.2,18.4c-0.1-0.8-0.6-1.3-1.3-1.6c-0.3-0.1-0.8-0.1-1.1,0
		c-1,0.2-1.9,1.2-2.1,2.3c-0.1,0.3-0.1,0.8,0,1.1c0.2,0.7,0.6,1.3,1.3,1.5c0.2,0.1,0.2,0.1,0.6,0.1c0.3,0,0.4,0,0.6-0.1
		c1-0.3,1.7-1.1,2-2.1C18.2,19.3,18.2,18.7,18.2,18.4z M21.7,14.3c0.3-0.8,0.2-1.6-0.2-2.3c-0.1-0.3-0.5-0.6-0.7-0.7
		C20.4,11.1,20,11,19.6,11c-0.3,0-0.7,0.2-1,0.4c-1,0.7-1.4,2-1.1,3.2c0.1,0.3,0.3,0.7,0.4,0.9C19,16.8,21,16.2,21.7,14.3z
		 M20.8,11.9c-0.3-0.1-0.6-0.1-0.9,0.2c-0.4,0.3-0.8,0.9-1,1.6c-0.1,0.2-0.1,0.3-0.1,0.7c0,0.3,0,0.4,0,0.6c0.3,1,1.1,1.1,1.8,0.4
		c0.5-0.5,0.8-1.3,0.8-2c0-0.4,0-0.6-0.2-0.9C21.2,12.1,21,12,20.8,11.9z"/>
	<path class="st1" d="M20.3,6.6c-0.1-0.4-0.4-0.8-0.7-1.1c-0.2-0.2-0.6-0.4-0.8-0.4c-0.2,0-0.6-0.1-0.8,0c-0.8,0.2-1.5,0.9-1.8,1.9
		c-0.4,1.4,0.3,2.8,1.4,3.2c1,0.3,2-0.2,2.6-1.2C20.5,8.3,20.5,7.4,20.3,6.6z M20,8.1c-0.1,0.5-0.3,0.9-0.5,1.2
		c-0.1,0.2-0.3,0.3-0.5,0.4c-0.1,0.1-0.2,0.1-0.4,0.1c-0.2,0-0.2,0-0.4-0.1c-0.3-0.2-0.6-0.6-0.7-1.2c-0.1-0.8,0.1-1.8,0.6-2.3
		c0.3-0.3,0.5-0.4,0.8-0.4c0.2,0,0.2,0,0.3,0.1c0.3,0.1,0.5,0.5,0.6,0.9C20.1,7.1,20.1,7.7,20,8.1z M16.2,12.3
		c-0.2-0.6-0.6-1.1-1.2-1.4c-0.3-0.1-0.7-0.2-1-0.1c-0.5,0.1-0.9,0.3-1.3,0.7c-0.9,0.9-1.1,2.2-0.6,3.3c0.3,0.7,0.9,1.1,1.6,1.1
		c0.4,0,0.8-0.1,1.2-0.3c0.3-0.2,0.7-0.6,0.9-0.9C16.3,14,16.5,13.1,16.2,12.3z M15.5,14.7c-0.4,0.7-1,0.9-1.5,0.7
		c-0.5-0.2-0.7-1-0.6-1.8c0.1-0.7,0.4-1.2,0.8-1.6c0.2-0.2,0.4-0.4,0.7-0.4c0.1,0,0.4,0,0.5,0C16.2,12.1,16.2,13.6,15.5,14.7z
		 M21.5,12c-0.1-0.3-0.5-0.6-0.7-0.7C20.4,11.1,20,11,19.6,11c-0.3,0-0.7,0.2-1,0.4c-1,0.7-1.4,2-1.1,3.2c0.1,0.3,0.3,0.7,0.4,0.9
		c1.1,1.3,3.1,0.7,3.7-1.2C21.9,13.5,21.9,12.7,21.5,12z M20.7,15.3c-0.7,0.7-1.5,0.5-1.8-0.4c0-0.1,0-0.3,0-0.6
		c0-0.4,0-0.4,0.1-0.7c0.2-0.7,0.5-1.3,1-1.6c0.3-0.2,0.6-0.3,0.9-0.2c0.2,0.1,0.4,0.2,0.5,0.5c0.1,0.3,0.2,0.5,0.2,0.9
		C21.5,14,21.2,14.8,20.7,15.3z M10.9,16.6c-0.2,0-0.7,0-0.9,0c-0.9,0.2-1.7,1-2.1,1.9c-0.2,0.7-0.2,1.4,0.1,1.9
		c0.2,0.5,0.6,0.9,1.2,1c0.3,0.1,0.8,0.1,1.1,0c0.5-0.1,0.9-0.4,1.2-0.8c0.5-0.5,0.8-1.1,0.9-1.8C12.5,17.8,11.9,16.8,10.9,16.6z
		 M10.1,21.2c-0.2,0-0.2,0-0.4,0c-0.5-0.2-0.7-0.7-0.5-1.4c0.2-0.9,0.8-1.7,1.5-2.1c0.2-0.1,0.3-0.1,0.6-0.1c0.2,0,0.2,0,0.4,0.1
		c0.3,0.2,0.5,0.5,0.5,1C12.1,19.9,11.1,21.2,10.1,21.2z M18.2,18.4c-0.1-0.8-0.6-1.3-1.3-1.6c-0.3-0.1-0.8-0.1-1.1,0
		c-1,0.2-1.9,1.2-2.1,2.3c-0.1,0.3-0.1,0.8,0,1.1c0.2,0.7,0.6,1.3,1.3,1.5c0.2,0.1,0.2,0.1,0.6,0.1c0.3,0,0.4,0,0.6-0.1
		c1-0.3,1.7-1.1,2-2.1C18.2,19.3,18.2,18.7,18.2,18.4z M17.8,19.5c-0.1,0.3-0.3,0.7-0.5,1c-0.4,0.6-0.9,0.9-1.4,0.9
		c-0.3,0-0.5,0-0.6-0.2c-0.2-0.2-0.3-0.5-0.3-1c0-0.6,0.3-1.3,0.8-1.8c0.5-0.5,1-0.7,1.5-0.6c0.3,0.1,0.5,0.3,0.6,0.7
		C17.9,18.7,17.9,19.2,17.8,19.5z"/>
</g>
</svg>
