<?xml version="1.0" encoding="utf-8"?>
<!-- Generator: Adobe Illustrator 26.1.0, SVG Export Plug-In . SVG Version: 6.00 Build 0)  -->
<svg version="1.1" id="Layer_1" xmlns="http://www.w3.org/2000/svg" xmlns:xlink="http://www.w3.org/1999/xlink" x="0px" y="0px"
	 viewBox="0 0 24 24" style="enable-background:new 0 0 24 24;" xml:space="preserve">
<style type="text/css">
	.st0{opacity:0.5;fill:#FFFFFF;enable-background:new    ;}
	.st1{fill:#EEAD56;}
</style>
<g id="icon">
	<path class="st0" d="M18.5,2.2L18.6,2c-0.4-0.3-0.8-0.5-1.2-0.7c0,0.1-0.1,0.2-0.1,0.2c-0.1,0.2-0.3,0.7-0.4,1
		c-0.3,0.9-0.4,1.7-0.4,2.6c0,0.8,0,0.9,0.7,3.3c0.4,1.7,0.5,2,0.6,2.5c0.1,0.6,0,1.4-0.2,2c-0.1,0.6-0.5,1.3-0.8,1.7
		c-0.8,1.3-2.1,2.2-3.5,2.6c-0.6,0.2-0.8,0.2-1.5,0.2c-0.6,0-0.9,0-1.4-0.2c-1.8-0.4-3.3-1.7-4-3.3c-0.2-0.4-0.3-0.7-0.7-2.4
		c-0.3-1.1-0.5-1.8-0.5-1.9C4.6,8.1,3.8,6.8,2.7,6C2.5,5.8,2.2,5.6,2,5.4C1.7,5.8,1.5,6.3,1.2,6.7l0.1,0c1.1,0.7,1.8,1.6,2.3,2.8
		c0.1,0.3,0.1,0.3,0.7,2.3l0,0c0.2,0.9,0.5,1.8,0.5,1.9c0.4,1.2,1.2,2.3,2.1,3.1c1.2,1,2.6,1.6,4.1,1.8c0.2,0,0.4,0,0.7,0
		c0.4,0,0.9,0,1.1-0.1c1.6-0.3,3.1-1,4.2-2.1c0.4-0.4,0.6-0.6,0.9-1.1c0.7-1,1-1.9,1.2-3.1c0-0.3,0.1-0.4,0.1-1c0-1,0-1.1-0.6-3.4
		C18.1,6.2,18,6,17.9,5.6c0-0.3,0-1.2,0-1.5C18,3.4,18.2,2.8,18.5,2.2z"/>
	<path class="st1" d="M2,5.4C4.1,2.2,7.8,0,12,0c1.9,0,3.7,0.5,5.4,1.3c0,0.1-0.1,0.2-0.1,0.2c-0.1,0.2-0.3,0.7-0.4,1
		c-0.3,0.9-0.4,1.7-0.4,2.6c0,0.8,0,0.9,0.7,3.3c0.4,1.7,0.5,2,0.6,2.5c0.1,0.6,0,1.4-0.2,2c-0.1,0.6-0.5,1.3-0.8,1.7
		c-0.8,1.3-2.1,2.2-3.5,2.6c-0.6,0.2-0.8,0.2-1.5,0.2c-0.6,0-0.9,0-1.4-0.2c-1.8-0.4-3.3-1.7-4-3.3c-0.2-0.4-0.3-0.7-0.7-2.4
		c-0.3-1.1-0.5-1.8-0.5-1.9C4.6,8.1,3.8,6.8,2.7,6C2.5,5.8,2.2,5.6,2,5.4z M18.6,2l-0.1,0.2C18.2,2.8,18,3.4,17.9,4
		c0,0.3,0,1.2,0,1.5C18,6,18.1,6.2,18.5,7.9c0.6,2.3,0.6,2.4,0.6,3.4c0,0.6,0,0.7-0.1,1c-0.2,1.2-0.6,2.1-1.2,3.1
		c-0.3,0.4-0.5,0.7-0.9,1.1c-1.1,1.1-2.6,1.9-4.2,2.1c-0.3,0-0.7,0.1-1.1,0.1c-0.3,0-0.5,0-0.7,0c-1.5-0.2-2.9-0.8-4.1-1.8
		c-0.9-0.8-1.7-1.9-2.1-3.1c-0.1-0.1-0.3-1-0.5-1.9l0,0C3.7,9.9,3.7,9.9,3.6,9.5C3.1,8.4,2.4,7.5,1.3,6.7l-0.1,0
		C0.4,8.3,0,10.1,0,12c0,6.6,5.4,12,12,12s12-5.4,12-12C24,7.8,21.9,4.1,18.6,2z"/>
</g>
</svg>
