<?xml version="1.0" encoding="utf-8"?>
<!-- Generator: Adobe Illustrator 26.1.0, SVG Export Plug-In . SVG Version: 6.00 Build 0)  -->
<svg version="1.1" id="Layer_1" xmlns="http://www.w3.org/2000/svg" xmlns:xlink="http://www.w3.org/1999/xlink" x="0px" y="0px"
	 viewBox="0 0 24 24" style="enable-background:new 0 0 24 24;" xml:space="preserve">
<style type="text/css">
	.st0{opacity:0.5;fill:#FFFFFF;enable-background:new    ;}
	.st1{fill:#7D7C7B;}
</style>
<g id="icon">
	<path class="st0" d="M23.2,12c0,6.2-5,11.2-11.2,11.2S0.8,18.2,0.8,12S5.8,0.8,12,0.8S23.2,5.8,23.2,12z"/>
	<path class="st1" d="M23.1,12.6l-0.7-0.9l-0.6,0.5l-2.1-2.6L20,6.3l0.8,0.1l0.1-1.2L19.4,5l-2.9-2.1L16,1.7l-1.1,0.4l0.3,0.7L12,4
		L8.9,2.8l0.3-0.7L8.1,1.6L7.6,2.8L4.8,5L3.2,5.1l0.1,1.2l0.8-0.1l0.3,3.3l-2.1,2.6l-0.6-0.5l-0.7,0.9l1,0.8L3.2,17l-0.3,1.3L4,18.5
		l0.2-0.7l3.3,0.8l1.8,2.8l-0.7,0.4l0.6,1l1.2-0.7h3.4l1.2,0.7l0.6-1l-0.7-0.4l1.8-2.8l3.3-0.8l0.2,0.7l1.2-0.3l-0.4-1.4l1.1-3.3
		L23.1,12.6z M15.9,3.8l2.9,2.1l-0.3,3.5l-2.6,0.8l-3.3-2.4V5.1L15.9,3.8z M13.9,14.7h-3.8l-1.2-3.6l3.1-2.2l3,2.2L13.9,14.7z
		 M8.1,3.8l3.4,1.3v2.7L8,10.3L5.5,9.4L5.3,5.9L8.1,3.8z M4.2,16.6L3,13.2l2.2-2.8l2.6,0.9l1.3,4l-1.5,2.1L4.2,16.6z M13.7,21.1
		h-3.3l-2-3.1l1.4-2.1H14l1.6,2.2L13.7,21.1z M19.9,16.6l-3.5,0.9L15,15.4l1.3-4.2l2.6-0.8l2.2,2.8L19.9,16.6z"/>
	<path class="st1" d="M12,24C5.4,24,0,18.6,0,12S5.4,0,12,0s12,5.4,12,12S18.6,24,12,24z M12,1.5C6.2,1.5,1.5,6.2,1.5,12
		S6.2,22.5,12,22.5S22.5,17.8,22.5,12S17.8,1.5,12,1.5z"/>
</g>
</svg>
