<?xml version="1.0" encoding="utf-8"?>
<!-- Generator: Adobe Illustrator 26.1.0, SVG Export Plug-In . SVG Version: 6.00 Build 0)  -->
<svg version="1.1" id="Layer_1" xmlns="http://www.w3.org/2000/svg" xmlns:xlink="http://www.w3.org/1999/xlink" x="0px" y="0px"
	 viewBox="0 0 24 24" style="enable-background:new 0 0 24 24;" xml:space="preserve">
<style type="text/css">
	.st0{opacity:0.5;fill:#FFFFFF;enable-background:new    ;}
	.st1{fill:#6E6F72;}
</style>
<g id="icon">
	<path class="st0" d="M23.2,12c0,6.2-5,11.2-11.2,11.2S0.8,18.2,0.8,12S5.8,0.8,12,0.8S23.2,5.8,23.2,12z"/>
	<path class="st1" d="M12,24C5.4,24,0,18.6,0,12S5.4,0,12,0s12,5.4,12,12S18.6,24,12,24z M12,1.5C6.2,1.5,1.5,6.2,1.5,12
		S6.2,22.5,12,22.5S22.5,17.8,22.5,12S17.8,1.5,12,1.5z"/>
	<path class="st1" d="M12,19.4c-4.1,0-7.4-3.3-7.4-7.4S7.9,4.6,12,4.6s7.4,3.3,7.4,7.4S16.1,19.4,12,19.4z M12,5.9
		c-3.3,0-6.1,2.7-6.1,6.1s2.7,6.1,6.1,6.1s6.1-2.7,6.1-6.1S15.3,5.9,12,5.9z"/>
	<path class="st1" d="M15.1,13.7c-0.1-0.3-0.3-0.6-0.5-0.9c-0.2-0.3-0.8-0.6-1.2-0.9c-0.2-0.1-0.2-0.1-0.2-0.2c0,0,0-0.1,0.1-0.1
		c0.2-0.1,0.4-0.3,0.6-0.4c0.4-0.3,0.7-0.7,0.9-1.1c0.2-0.6,0.1-1.3-0.2-1.8c-0.3-0.5-1-0.9-1.7-1c-0.2,0-0.7-0.1-0.8-0.1
		c0,0,0,0,0,0c0,0-0.2,0-0.3,0C10.3,7.3,9.4,8,9.2,9c0,0.1,0,0.3,0,0.5c0,0.3,0,0.4,0.1,0.6c0.2,0.6,0.6,1.1,1.3,1.6l0.3,0.2
		L10.4,12c-0.9,0.5-1.4,1-1.6,1.8c-0.1,0.3-0.1,0.7,0,1c0.2,1.3,1.2,2,3,2c0.1,0,0.2,0,0.2,0h0c1.1,0,1.9-0.3,2.5-0.9
		c0.3-0.3,0.5-0.6,0.6-1c0-0.2,0-0.2,0-0.6C15.2,13.9,15.2,13.9,15.1,13.7z M10.7,10.3c-0.3-0.5-0.3-1.2,0.1-1.6
		c0.3-0.3,0.7-0.4,1.2-0.4c0,0,0.1,0,0.1,0c0.1,0,0.3,0,0.4,0.1c0.5,0.1,0.9,0.5,1,0.9c0,0.2,0,0.6-0.1,0.7
		c-0.1,0.4-0.5,0.8-1.2,1.1L12,11.2l-0.3-0.1C11.2,10.8,10.9,10.6,10.7,10.3z M12.7,15.7c-0.2,0-0.3,0.1-0.7,0.1
		c-0.6,0-0.7,0-1.1-0.2c-0.5-0.3-0.8-0.7-0.8-1.3c0-0.5,0.2-0.8,0.5-1.2c0.2-0.2,0.5-0.4,0.8-0.6l0.3-0.1l0.3,0.1
		c0.1,0.1,0.3,0.2,0.5,0.2c0.3,0.2,0.6,0.4,0.8,0.6c0.3,0.3,0.5,0.6,0.5,1C13.8,15,13.4,15.5,12.7,15.7z"/>
</g>
</svg>
