<?xml version="1.0" encoding="utf-8"?>
<!-- Generator: Adobe Illustrator 26.1.0, SVG Export Plug-In . SVG Version: 6.00 Build 0)  -->
<svg version="1.1" id="Layer_1" xmlns="http://www.w3.org/2000/svg" xmlns:xlink="http://www.w3.org/1999/xlink" x="0px" y="0px"
	 viewBox="0 0 24 24" style="enable-background:new 0 0 24 24;" xml:space="preserve">
<style type="text/css">
	.st0{opacity:0.5;fill:#FFFFFF;enable-background:new    ;}
	.st1{fill:#6484C3;}
	.st2{fill:#6485C3;}
</style>
<g id="icon">
	<path class="st0" d="M23.2,12c0,6.2-5,11.2-11.2,11.2S0.8,18.2,0.8,12S5.8,0.8,12,0.8S23.2,5.8,23.2,12z"/>
	<path class="st1" d="M12,24C5.4,24,0,18.6,0,12S5.4,0,12,0s12,5.4,12,12S18.6,24,12,24z M12,1.5C6.2,1.5,1.5,6.2,1.5,12
		S6.2,22.5,12,22.5S22.5,17.8,22.5,12S17.8,1.5,12,1.5z"/>
	<path class="st2" d="M5.9,20.9l-1.1-1C8.3,15.9,8,7.9,4.1,4l1.1-1c2.1,2.2,3.4,5.5,3.5,9C8.8,15.5,7.8,18.8,5.9,20.9z"/>
	<path class="st2" d="M5.2,7.6C5,7.6,4.8,7.5,4.7,7.4c-0.2-0.3-0.2-0.7,0.1-1l2.4-2c0.3-0.2,0.7-0.2,1,0.1c0.2,0.3,0.2,0.7-0.1,1
		l-2.4,2C5.5,7.6,5.4,7.6,5.2,7.6z"/>
	<path class="st2" d="M6,10.1c-0.3,0-0.5-0.2-0.6-0.5C5.2,9.3,5.4,8.9,5.8,8.8L9,7.7c0.4-0.1,0.7,0.1,0.9,0.4C10,8.5,9.8,8.9,9.4,9
		l-3.2,1.1C6.2,10.1,6.1,10.1,6,10.1z"/>
	<path class="st2" d="M9.7,12.7H6.3c-0.4,0-0.7-0.3-0.7-0.7s0.3-0.7,0.7-0.7h3.4c0.4,0,0.7,0.3,0.7,0.7S10.1,12.7,9.7,12.7z"/>
	<path class="st2" d="M9.4,16c0,0-0.1,0-0.1,0l-3.3-0.7c-0.4-0.1-0.6-0.4-0.5-0.8c0.1-0.4,0.4-0.6,0.8-0.5l3.3,0.7
		c0.4,0.1,0.6,0.4,0.5,0.8C9.9,15.8,9.7,16,9.4,16z"/>
	<path class="st2" d="M8.3,19.6c-0.1,0-0.2,0-0.3-0.1l-3-1.6c-0.3-0.2-0.4-0.6-0.3-0.9s0.6-0.4,0.9-0.3l3,1.6
		c0.3,0.2,0.4,0.6,0.3,0.9C8.8,19.5,8.6,19.6,8.3,19.6z"/>
	<path class="st2" d="M18.2,20.9c-1.9-2.1-2.9-5.4-2.8-8.9c0.1-3.6,1.4-6.9,3.5-9l1.1,1c-3.8,3.9-4.1,11.9-0.6,15.9L18.2,20.9z"/>
	<path class="st2" d="M18.9,7.6c-0.2,0-0.3-0.1-0.4-0.2l-2.4-2c-0.3-0.2-0.3-0.7-0.1-1s0.7-0.3,1-0.1l2.4,2c0.3,0.2,0.3,0.7,0.1,1
		C19.2,7.5,19,7.6,18.9,7.6z"/>
	<path class="st2" d="M18.1,10.1c-0.1,0-0.1,0-0.2,0L14.7,9c-0.4-0.1-0.5-0.5-0.4-0.9c0.1-0.4,0.5-0.5,0.9-0.4l3.2,1.1
		c0.4,0.1,0.5,0.5,0.4,0.9C18.6,9.9,18.4,10.1,18.1,10.1z"/>
	<path class="st2" d="M17.8,12.7h-3.4c-0.4,0-0.7-0.3-0.7-0.7s0.3-0.7,0.7-0.7h3.4c0.4,0,0.7,0.3,0.7,0.7S18.1,12.7,17.8,12.7z"/>
	<path class="st2" d="M14.7,16c-0.3,0-0.6-0.2-0.7-0.5c-0.1-0.4,0.2-0.7,0.5-0.8l3.3-0.7c0.4-0.1,0.7,0.2,0.8,0.5
		c0.1,0.4-0.2,0.7-0.5,0.8L14.9,16C14.8,16,14.8,16,14.7,16z"/>
	<path class="st2" d="M15.7,19.6c-0.2,0-0.5-0.1-0.6-0.3c-0.2-0.3-0.1-0.7,0.3-0.9l3-1.6c0.3-0.2,0.7-0.1,0.9,0.3s0.1,0.7-0.3,0.9
		l-3,1.6C16,19.6,15.8,19.6,15.7,19.6z"/>
</g>
</svg>
