<?xml version="1.0" encoding="utf-8"?>
<!-- Generator: Adobe Illustrator 26.1.0, SVG Export Plug-In . SVG Version: 6.00 Build 0)  -->
<svg version="1.1" id="Layer_1" xmlns="http://www.w3.org/2000/svg" xmlns:xlink="http://www.w3.org/1999/xlink" x="0px" y="0px"
	 viewBox="0 0 24 24" style="enable-background:new 0 0 24 24;" xml:space="preserve">
<style type="text/css">
	.st0{opacity:0.5;fill:#FFFFFF;enable-background:new    ;}
	.st1{fill:#7B7B7B;}
	.st2{fill:#6485C3;}
</style>
<g id="icon">
	<path class="st0" d="M16.4,10.1l-3.3,3.3l-3,3l-2.5-2.5l3.8-3.8l0,0l2.5-2.5L16.4,10.1z M20.8,5.7L23,3.5c0.2-0.2,0.2-0.4,0-0.6
		L21.1,1c-0.2-0.2-0.4-0.2-0.6,0l-2.7,1.7L20.8,5.7z M3.2,18.3L1,20.5c-0.2,0.2-0.2,0.4,0,0.6L2.9,23c0.2,0.2,0.4,0.2,0.6,0l2.2-2.2
		L3.2,18.3z"/>
	<path class="st0" d="M21,10.1c0.5,0.7,0.5,1.6-0.2,2.3c-0.7,0.7-1.8,0.7-2.5,0l-6.6-6.6c-0.7-0.7-0.7-1.8,0-2.5
		c0.6-0.6,1.6-0.7,2.3-0.2c0-0.5,0.1-1,0.5-1.4C15.2,1,16.3,1,17,1.7l5.4,5.4c0.7,0.7,0.7,1.8,0,2.5C22,9.9,21.5,10.1,21,10.1z
		 M5.6,11.7c-0.7-0.7-1.8-0.7-2.5,0c-0.6,0.6-0.7,1.6-0.2,2.3c-0.5,0-1,0.1-1.4,0.5c-0.7,0.7-0.7,1.8,0,2.5l5.5,5.5
		c0.7,0.7,1.8,0.7,2.5,0c0.4-0.4,0.5-0.9,0.5-1.4c0.7,0.5,1.6,0.5,2.3-0.2c0.7-0.7,0.7-1.8,0-2.5L5.6,11.7z"/>
	<path class="st1" d="M16.3,11.2l-5,5l-1.1-1.1l5-5L16.3,11.2z M8.8,13.8l5-5l-1.1-1.1l-5,5L8.8,13.8z M4.5,20.9l-1.2,1.2l-1.4-1.4
		l1.2-1.2l-1.1-1.1L0.5,20c-0.2,0.2-0.3,0.5-0.3,0.8s0.1,0.6,0.3,0.8l1.9,1.9c0.2,0.2,0.5,0.3,0.8,0.3s0.6-0.1,0.8-0.3l1.6-1.6
		L4.5,20.9z M23.5,2.4l-1.9-1.9c-0.2-0.2-0.5-0.3-0.8-0.3S20.2,0.3,20,0.5l-1.6,1.6l1.1,1.1l1.3-1.3l1.4,1.4l-1.3,1.3l1.1,1.1
		L23.5,4c0.2-0.2,0.3-0.5,0.3-0.8S23.7,2.6,23.5,2.4z"/>
	<path class="st2" d="M23.9,8.3c0-0.7-0.3-1.4-0.8-1.9L17.7,1c-0.5-0.5-1.2-0.8-1.9-0.8S14.3,0.5,13.8,1c-0.2,0.2-0.4,0.5-0.5,0.8
		c-0.1,0-0.2,0-0.3,0c-0.7,0-1.4,0.3-1.9,0.8c-0.5,0.5-0.8,1.2-0.8,1.9s0.3,1.4,0.8,1.9l6.6,6.6c0.5,0.5,1.2,0.8,1.9,0.8
		c0.7,0,1.4-0.3,1.9-0.8c0.6-0.6,0.9-1.4,0.8-2.2c0.3-0.1,0.5-0.3,0.8-0.5C23.6,9.8,23.9,9.1,23.9,8.3z M20.3,11.4
		c-0.1,0.1-0.5,0.4-0.7,0.4c-0.2,0-0.4-0.1-0.5-0.2L12.5,5c-0.1-0.1-0.2-0.3-0.2-0.5c0-0.2,0.2-0.5,0.3-0.6c0.1-0.1,0.4-0.3,0.6-0.3
		c0.2,0,0.3,0,0.4,0.1l0.1,0l0,0l6.7,6.7l0.1-0.1l-0.1,0.2C20.6,10.7,20.6,11.2,20.3,11.4z M21.7,8.5c0,0.2-0.2,0.5-0.3,0.6
		c-0.1,0.1-0.3,0.2-0.5,0.2l-6.1-6.1c0-0.2,0.2-0.5,0.3-0.6c0.1-0.1,0.4-0.3,0.6-0.3c0.2,0,0.5,0,0.6,0.1l5.4,5.4
		C21.8,8,21.7,8.3,21.7,8.5z"/>
	<path class="st2" d="M0.2,15.6c0,0.7,0.9,2,1.4,2.5L6.5,23c0.5,0.5,1.2,0.8,1.9,0.8c0.7,0,1.4-0.3,1.9-0.8c0.2-0.2,0.4-0.5,0.5-0.8
		c0.1,0,0.2,0,0.3,0c0.7,0,1.4-0.3,1.9-0.8c0.5-0.5,0.8-1.2,0.8-1.9s-0.3-1.4-0.8-1.9l-6.7-6.7c-0.5-0.5-1.2-0.8-1.9-0.8
		S3,10.4,2.5,10.9c-0.6,0.6-0.9,1.4-0.8,2.2c-0.3,0.1-0.5,0.3-0.8,0.5C0.5,14.2,0.2,14.9,0.2,15.6z M3.7,12.5
		c0.1-0.1,0.5-0.4,0.7-0.4c0.2,0,0.4,0.1,0.5,0.2l6.7,6.7c0.1,0.1,0.2,0.3,0.2,0.5c0,0.2-0.2,0.5-0.3,0.6c-0.1,0.1-0.4,0.3-0.6,0.3
		c-0.2,0-0.3,0-0.4-0.1l-0.1,0l0,0l-6.8-6.8l-0.1,0.1l0.1-0.2C3.4,13.2,3.5,12.8,3.7,12.5z M2.4,15.4c0-0.2,0.2-0.5,0.3-0.6
		c0.1-0.1,0.3-0.2,0.5-0.2l6.2,6.2c0,0.2-0.2,0.5-0.3,0.6c-0.1,0.1-0.4,0.3-0.6,0.3c-0.2,0-0.5,0-0.6-0.1l-5.5-5.5
		C2.2,16,2.4,15.6,2.4,15.4z"/>
</g>
</svg>
