<?xml version="1.0" encoding="utf-8"?>
<!-- Generator: Adobe Illustrator 26.1.0, SVG Export Plug-In . SVG Version: 6.00 Build 0)  -->
<svg version="1.1" id="Layer_1" xmlns="http://www.w3.org/2000/svg" xmlns:xlink="http://www.w3.org/1999/xlink" x="0px" y="0px"
	 viewBox="0 0 24 24" style="enable-background:new 0 0 24 24;" xml:space="preserve">
<style type="text/css">
	.st0{fill:#6485C3;}
</style>
<g id="icon">
	<path class="st0" d="M23.6,4.7c-0.2-0.2-4.6-3.3-5.4-4c-0.7-0.5-0.9-0.6-1.3-0.7c-0.4-0.1-1.3-0.1-1.7,0c-0.2,0.1-0.8,0.2-1,0.7
		c0,0.1-0.1,0.2-0.1,0.5c0,0.4-0.5,1.1-1.1,1.4c-0.6,0.3-1.2,0.3-1.8,0c-0.6-0.3-1.1-1-1.1-1.4C9.8,0.4,9.3,0.2,8.8,0.1
		C8.6,0,8.4,0,8,0C7.9,0,7.5,0,7.4,0l0,0C7.3,0,6.9,0.1,6.6,0.2c-0.3,0.2-2,1.4-2.2,1.5c-1.1,0.8-3.9,2.9-4.1,3C0.1,5-0.1,5.4,0,5.8
		C0,5.9,0.1,6,1.3,8.2l0.1,0.2c0.6,1,0.9,1.5,1,1.8c0.1,0.2,0.4,0.6,1,0.6c0.2,0,0.2,0,1-0.6v12.5c0,0.7,0.6,1.3,1.3,1.3h12.4
		c0.7,0,1.3-0.6,1.3-1.3l0-12.5c0.7,0.5,0.8,0.5,1,0.6c0.6,0.1,0.9-0.3,1-0.6c0.2-0.3,0.4-0.7,1-1.8l0.1-0.2C23.9,6,23.9,5.9,24,5.8
		C24,5.4,23.9,5,23.6,4.7z"/>
</g>
</svg>
