<?xml version="1.0" encoding="utf-8"?>
<!-- Generator: Adobe Illustrator 26.1.0, SVG Export Plug-In . SVG Version: 6.00 Build 0)  -->
<svg version="1.1" id="Layer_1" xmlns="http://www.w3.org/2000/svg" xmlns:xlink="http://www.w3.org/1999/xlink" x="0px" y="0px"
	 viewBox="0 0 24 24" style="enable-background:new 0 0 24 24;" xml:space="preserve">
<style type="text/css">
	.st0{fill:#6E6F72;}
	.st1{fill:#7D7C7B;}
	.st2{fill:#CC525E;}
</style>
<g id="icon">
	<path class="st0" d="M12,23.9c-1.1,0-2.2-0.6-2.7-1.7c-0.2-0.4,0-0.8,0.3-1c0.4-0.2,0.8,0,1,0.3c0.4,0.7,1.3,1,2,0.7
		c0.4-0.2,0.6-0.5,0.8-0.8c0.1-0.4,0.1-0.8-0.1-1.1c-0.2-0.4,0-0.8,0.3-1c0.4-0.2,0.8,0,1,0.3c0.3,0.7,0.4,1.5,0.1,2.3
		c-0.3,0.8-0.8,1.4-1.5,1.7C12.9,23.8,12.4,23.9,12,23.9z"/>
	<path class="st1" d="M22.5,6.3L23.1,6l-2.2-4.5L14,4.8l0.4,0.8l-1.3,0.6l-0.4-0.8L5.6,8.9C3.8,9.7,2.5,11.2,1.9,13
		c-0.6,1.8-0.5,3.8,0.3,5.5c1.2,2.6,3.8,4,6.5,4c1.1,0,2.1-0.2,3.1-0.7c1.7-0.8,3.1-2.3,3.7-4.1c0.6-1.8,0.5-3.8-0.3-5.5
		c-0.1-0.1-0.1-0.3-0.2-0.4C17,9.6,21.2,7.1,22.5,6.3z M10,18c-1.5,0.7-3.3,0.1-4-1.4s-0.1-3.3,1.4-4c1.5-0.7,3.3-0.1,4,1.4
		C12.1,15.5,11.5,17.3,10,18z"/>
	<path class="st2" d="M12.4,4c-0.3,0-0.5-0.2-0.7-0.4l-1.1-2.2c-0.2-0.4,0-0.8,0.3-1c0.4-0.2,0.8,0,1,0.3L13.1,3
		c0.2,0.4,0,0.8-0.3,1C12.6,4,12.5,4,12.4,4z"/>
	<path class="st2" d="M14.5,4c-0.1,0-0.1,0-0.2,0c-0.4-0.1-0.6-0.5-0.5-0.9l0.6-2.2c0.1-0.4,0.5-0.6,0.9-0.5
		c0.4,0.1,0.6,0.5,0.5,0.9l-0.6,2.2C15.1,3.8,14.8,4,14.5,4z"/>
	<path class="st2" d="M10.9,5.5c-0.1,0-0.2,0-0.3-0.1l-2.1-1c-0.4-0.2-0.5-0.6-0.3-1C8.3,3,8.7,2.9,9.1,3l2.1,1
		c0.4,0.2,0.5,0.6,0.3,1C11.4,5.3,11.1,5.5,10.9,5.5z"/>
</g>
</svg>
