<?xml version="1.0" encoding="utf-8"?>
<!-- Generator: Adobe Illustrator 26.1.0, SVG Export Plug-In . SVG Version: 6.00 Build 0)  -->
<svg version="1.1" id="Layer_1" xmlns="http://www.w3.org/2000/svg" xmlns:xlink="http://www.w3.org/1999/xlink" x="0px" y="0px"
	 viewBox="0 0 24 24" style="enable-background:new 0 0 24 24;" xml:space="preserve">
<style type="text/css">
	.st0{fill:#6486C4;}
	.st1{fill:#EEAD56;}
	.st2{fill:#7C7B7A;}
	.st3{fill:#CC525E;}
	.st4{fill:#15AB4D;}
</style>
<g id="icon">
	<path class="st0" d="M4.9,24c-1.3,0-2.5-0.5-3.4-1.4C0.5,21.7,0,20.4,0,19.1c0-1.3,0.5-2.5,1.4-3.4c0.9-0.9,2.1-1.4,3.4-1.4
		s2.5,0.5,3.4,1.4c1.3,1.3,1.8,3.4,1.1,5.1L9.3,21l-0.2-0.1c0,0-0.1-0.1-0.1-0.1c-0.4-0.4-0.7-0.9-0.8-1.4l0,0l0,0
		c0.1-1-0.3-1.9-1-2.6c-0.6-0.6-1.5-1-2.4-1c-0.9,0-1.7,0.3-2.4,1c-1.3,1.3-1.3,3.4,0,4.8c0.6,0.6,1.5,1,2.4,1c0.9,0,1.7-0.4,2.4-1
		l0.1-0.1l0.1,0.1c0.1,0.2,0.3,0.3,0.4,0.4c0.1,0.1,0.3,0.3,0.4,0.4l0.1,0.1l-0.1,0.1C7.4,23.5,6.2,24,4.9,24z"/>
	<path class="st1" d="M11.4,23.3c-1.3,0-2.5-0.5-3.4-1.4c-1.3-1.3-1.8-3.4-1.1-5.1l0.1-0.2L7,16.7c0,0,0.1,0.1,0.1,0.1
		c0.4,0.4,0.7,0.9,0.8,1.4l0,0l0,0c-0.1,1,0.3,1.9,1,2.6c0.6,0.6,1.5,1,2.4,1c0.9,0,1.7-0.4,2.4-1c1.1-1.1,1.3-2.9,0.4-4.2l-0.1-0.1
		l0.1-0.1c0.3-0.2,0.7-0.4,1-0.7l0.1-0.1l0.1,0.1c1.2,1.9,1,4.5-0.6,6.1C13.9,22.8,12.7,23.3,11.4,23.3z"/>
	<path class="st1" d="M8.8,16.1c-0.1-0.2-0.3-0.3-0.4-0.4c-0.1-0.1-0.3-0.3-0.4-0.4l-0.1-0.1L7.9,15c0.9-0.9,2.1-1.4,3.4-1.4
		c0.9,0,1.8,0.3,2.6,0.8l0.2,0.1L14,14.6c-0.5,0.4-1,0.6-1.6,0.7l0,0l0,0c-0.3-0.1-0.7-0.2-1-0.2c-0.9,0-1.7,0.3-2.4,1l-0.1,0.1
		L8.8,16.1z"/>
	<path class="st2" d="M12,16.9c-0.9,0-1.8-0.3-2.6-0.8L9.2,16l0.2-0.1c0.5-0.4,1-0.6,1.6-0.7l0,0l0,0c0.3,0.1,0.7,0.2,1,0.2
		c0.9,0,1.7-0.4,2.4-1l0.1-0.1l0.1,0.1c0.1,0.2,0.3,0.3,0.4,0.4c0.1,0.1,0.3,0.3,0.4,0.4l0.1,0.1l-0.1,0.1
		C14.5,16.4,13.3,16.9,12,16.9z"/>
	<path class="st2" d="M7.9,14.7c-1.2-1.9-1-4.5,0.6-6.1c0.9-0.9,2.1-1.4,3.4-1.4c1.3,0,2.5,0.5,3.4,1.4c1.3,1.3,1.8,3.4,1.1,5.1
		l-0.1,0.2l-0.2-0.1c0,0-0.1-0.1-0.1-0.1c-0.4-0.4-0.7-0.9-0.8-1.4l0,0l0,0c0.1-1-0.3-1.9-1-2.6c-0.6-0.6-1.5-1-2.4-1
		c-0.9,0-1.7,0.4-2.4,1c-1.1,1.1-1.3,2.9-0.4,4.2L9.3,14L9.1,14c-0.3,0.2-0.7,0.4-1,0.7L8,14.8L7.9,14.7z"/>
	<path class="st3" d="M19.1,9.7c-0.9,0-1.8-0.3-2.6-0.8l-0.2-0.1l0.2-0.1c0.5-0.4,1-0.6,1.6-0.6l0,0l0,0c0.3,0.1,0.7,0.1,1,0.1
		c0.6,0,1.3-0.2,1.8-0.5c0.8-0.5,1.3-1.2,1.5-2.1c0.2-0.9,0-1.8-0.5-2.5c-0.6-1-1.7-1.5-2.8-1.5c-0.6,0-1.3,0.2-1.8,0.5
		c-0.8,0.5-1.3,1.2-1.5,2.1s0,1.8,0.5,2.5l0.1,0.1l-0.1,0.1c-0.3,0.2-0.7,0.4-1,0.7l-0.1,0.1l-0.1-0.1l0.1-0.1L15,7.5
		c-1.5-2.3-0.8-5.3,1.4-6.7C17.3,0.3,18.2,0,19.1,0c1.7,0,3.2,0.8,4.1,2.2c0.7,1.1,0.9,2.4,0.7,3.7c-0.3,1.3-1,2.4-2.1,3.1
		C21,9.5,20.1,9.7,19.1,9.7L19.1,9.7L19.1,9.7z"/>
	<path class="st4" d="M18.5,16.2c-1.3,0-2.5-0.5-3.4-1.4c-1.3-1.3-1.8-3.4-1.1-5.1L14,9.4l0.2,0.1c0,0,0.1,0.1,0.1,0.1
		c0.4,0.4,0.7,0.9,0.8,1.4l0,0l0,0c-0.1,1,0.3,1.9,1,2.6c0.6,0.6,1.5,1,2.4,1c0.9,0,1.7-0.4,2.4-1c1.1-1.1,1.3-2.9,0.4-4.2l-0.1-0.1
		l0.1-0.1c0.2-0.1,0.3-0.2,0.4-0.3c0.2-0.1,0.4-0.2,0.5-0.4l0.1-0.1l0.1,0.1c1.2,1.9,1,4.5-0.6,6.1C21,15.7,19.8,16.2,18.5,16.2z"/>
	<path class="st4" d="M15.9,8.9c-0.1-0.2-0.3-0.3-0.4-0.4c-0.1-0.1-0.3-0.3-0.4-0.4L14.9,8l0.1-0.1C16,7,17.2,6.5,18.5,6.5
		c0.9,0,1.8,0.3,2.6,0.8l0.2,0.1l-0.2,0.1C21,7.5,21,7.6,20.9,7.6c-0.4,0.3-0.9,0.4-1.4,0.5l0,0l0,0C19.1,8,18.8,8,18.5,8
		c-0.9,0-1.7,0.3-2.4,1L16,9.1L15.9,8.9z"/>
</g>
</svg>
