<?xml version="1.0" encoding="utf-8"?>
<!-- Generator: Adobe Illustrator 26.1.0, SVG Export Plug-In . SVG Version: 6.00 Build 0)  -->
<svg version="1.1" id="Layer_1" xmlns="http://www.w3.org/2000/svg" xmlns:xlink="http://www.w3.org/1999/xlink" x="0px" y="0px"
	 viewBox="0 0 24 24" style="enable-background:new 0 0 24 24;" xml:space="preserve">
<style type="text/css">
	.st0{fill:#6484C3;}
	.st1{fill:#6D6E71;}
</style>
<g id="icon">
	<path class="st0" d="M9.8,24c-0.7,0-1.2-0.5-1.3-1.1c0-0.1,0-0.4-0.1-1.6c0-0.6-0.1-1.4-0.1-1.5l0.2,0l-0.2,0
		c0-0.1-0.1-1.1-0.1-1.9l-0.1-1.8l-0.1-0.2c-0.2-0.3-0.2-0.6-0.3-1c0-0.5,0.1-1,0.4-1.4c0.1-0.1,0.2-0.2,0.3-0.3
		c0.5-0.4,0.8-0.8,1-1.4c0.1-0.2,0.1-0.5,0.2-0.9c0,0-2.6-2-2.7-2C7,8.7,6.8,8.6,6.8,8.5C6.7,8.5,6.2,8,5.5,7.3
		C4.4,6.1,4.3,6.1,4.2,5.9C4,5.4,4.1,4.9,4.4,4.6c0.2-0.2,0.3-0.3,0.5-0.3c0.1,0,0.2,0,0.3,0c0.2,0,0.5,0.1,0.7,0.2
		C6,4.5,6.7,5.1,7.3,5.6C8,6.2,8.6,6.7,8.7,6.8c0.4,0.3,1.5,1,2,1.3c0.3,0.2,0.4,0.2,0.5,0.2c0,0,0,0,0.1,0c0.1,0,0.3,0,0.4,0
		c0.2,0,0.4,0,0.6,0c0.1,0,0.3,0,0.4,0c0.2,0,0.9-0.2,2.2-0.7l0.4-0.2l1.3-0.8c0.4-0.2,0.7-0.5,1.1-0.8l0.2-0.2l0.2,0.2
		c0.4,0.4,1,0.6,1.6,0.7l0.7,0.1l-0.6,0.5c-0.8,0.7-2.5,2.1-2.6,2.2c-0.2,0.1-0.4,0.3-0.6,0.4c-0.2,0.1-2,0.9-2.4,1.1
		c0,0,0,0.1,0,0.2c-0.1,0.7-0.4,1.5-0.8,2.4c-0.6,1.1-1.3,2.1-1.8,2.5c0,0-0.1,0-0.1,0.1c0,0,0,0,0,0c0,0.2-0.1,3.1-0.1,3.4
		c0,0.5-0.1,3.2-0.1,3.3C11,23.5,10.5,24,9.8,24L9.8,24L9.8,24z M6.4,15.4c-0.4-0.1-0.7-0.3-1.1-0.4c-0.5-0.2-0.8-0.4-0.9-0.5
		c-0.1-0.1-2.5-2.8-2.6-3c-0.1-0.2-0.2-0.4-0.2-0.6C1.5,10.3,2,9.7,2.5,9.6c0.1,0,0.2,0,0.3,0c0.1,0,0.2,0,0.3,0
		c0.2,0.1,0.4,0.1,0.6,0.3c0.1,0.1,1,0.8,1.4,1.2c0.7,0.7,1.1,1,1.2,1.1c0.1,0,0.3,0.1,0.9,0.3l0.4,0.1L7.4,13
		c-0.4,0.5-0.6,1.2-0.5,1.9c0,0.1,0,0.2,0,0.2l0.1,0.5L6.4,15.4z M12.2,6.8c-0.1,0-0.2,0-0.3,0c-1.2-0.2-2.1-1.2-2.1-2.4
		c0-1.2,0.9-2.2,2.1-2.4c0.1,0,0.2,0,0.3,0c0.8,0,1.6,0.4,2,1.1c0.2,0.2,0.3,0.5,0.3,0.7c0.3,1.3-0.4,2.6-1.7,2.9
		C12.7,6.8,12.4,6.8,12.2,6.8z"/>
	<path class="st1" d="M20.5,0c-1.6,0-2.9,1.3-2.9,2.8s1.3,2.8,2.9,2.8s2.9-1.3,2.9-2.8C23.3,1.3,22,0,20.5,0z"/>
</g>
</svg>
