<?xml version="1.0" encoding="utf-8"?>
<!-- Generator: Adobe Illustrator 26.1.0, SVG Export Plug-In . SVG Version: 6.00 Build 0)  -->
<svg version="1.1" id="Layer_1" xmlns="http://www.w3.org/2000/svg" xmlns:xlink="http://www.w3.org/1999/xlink" x="0px" y="0px"
	 viewBox="0 0 24 24" style="enable-background:new 0 0 24 24;" xml:space="preserve">
<style type="text/css">
	.st0{fill:#6E6F72;}
	.st1{opacity:0.5;fill:#FFFFFF;enable-background:new    ;}
	.st2{fill:#6486C4;}
	.st3{fill:#FFFFFF;}
</style>
<g id="icon">
	<path class="st0" d="M8.8,7.5C8.4,7.2,3.9,4.1,3.7,3.9C3.5,3.7,3.5,3.4,3.6,3.2c0.1-0.1,0.2-0.3,0.3-0.3c0,0,0.1,0,0.2,0
		c0,0,0,0,0,0c0.2,0,0.3,0.1,3.1,2l0,0c2,1.4,2.7,1.9,2.8,2l0.1,0.1l0,0.1c0,0.1,0,0.1,0,0.2l0,0.1l-0.1,0c0,0-0.1,0-0.4,0.1
		c-0.2,0-0.4,0.1-0.5,0.1C9,7.5,9,7.5,9,7.5L8.8,7.5L8.8,7.5z"/>
	<path class="st1" d="M8,16.2c0,0-0.1,0-0.1,0c-0.5-0.1-0.8-0.4-0.9-0.9c0-0.2,0-0.5,0.1-0.7c0.1-0.2,0.3-0.4,0.4-0.5
		c0.2-0.1,0.4-0.2,1.3-0.4c0.9-0.2,0.9-0.2,0.9-0.4c0-0.1,0-0.1-0.9-0.8c-0.5-0.4-0.9-0.6-0.9-0.7c-0.1-0.1-0.2-0.3-0.2-0.5
		c-0.2-0.6-0.1-1,0.2-1.5c0.1-0.1,0.1-0.2,0.4-0.4c0.2-0.1,0.4-0.3,0.5-0.4c0.4-0.3,1-0.5,1.5-0.7c0.4-0.1,2.4-0.5,3.1-0.6
		c0.2,0,1.2-0.1,1.6-0.1c0,0,0.2,0,0.4,0c0,0,0.1,0,0.1,0c0.4,0.1,0.6,0.1,0.9,0.3c0.4,0.3,0.9,0.9,1,1.3c0.1,0.4,0.1,1.4-0.1,2.4
		l0,0.2c0,0.3-0.1,0.5-0.1,0.5l0,0.2l1.3,0.6c1.1,0.5,1.3,0.6,1.4,0.6c0.1,0.1,0.3,0.3,0.4,0.4c0,0.1,0.1,0.4,0.1,0.5
		c0,0.1-0.1,0.4-0.2,0.5c-0.1,0.2-0.3,0.3-0.5,0.3c-0.1,0-0.2,0-0.3,0c-0.1,0-0.2,0-0.3-0.1c-0.1,0-1-0.3-1.9-0.6l-0.1,0
		c-1.7-0.6-1.7-0.6-1.9-0.7l0,0c-0.2-0.2-0.3-0.4-0.3-0.7c0-0.1,0-0.5,0-0.9c0-0.6,0-0.7,0-0.7l0,0l0-0.1l-0.1,0c0,0,0,0-0.6,0.1
		c-0.3,0-0.7,0.1-0.9,0.1c-0.4,0-0.4,0.1-0.5,0.1l0,0.1l0.1,0.1l0,0c0.1,0.1,0.6,0.6,0.8,0.7c0.4,0.3,0.7,0.7,0.6,1.3
		c0,0.3-0.1,0.5-0.3,0.7c-0.2,0.2-0.4,0.3-0.6,0.4c-0.1,0-1.1,0.2-2.4,0.5C8.7,16.1,8.3,16.2,8,16.2z"/>
	<path class="st2" d="M20.6,14.1c-0.1-0.2-0.3-0.5-0.6-0.7c-0.1-0.1-0.3-0.2-1.5-0.7l-0.9-0.4c0-0.1,0.1-0.4,0.1-0.4
		c0.1-0.4,0.3-2,0.1-2.7c-0.2-0.6-0.7-1.3-1.3-1.6c-0.4-0.2-0.7-0.3-1.2-0.4l-0.1,0c-0.1,0-0.4,0-0.5,0l0,0c-0.4,0-1.4,0.1-1.6,0.1
		c-0.7,0.1-2.7,0.5-3.2,0.6C9.4,8.1,8.8,8.3,8.4,8.6C8.2,8.7,8,8.9,7.8,9C7.5,9.2,7.4,9.3,7.3,9.6c-0.4,0.6-0.5,1.2-0.3,1.9
		c0.1,0.3,0.2,0.6,0.4,0.7l0,0c0.1,0.1,0.9,0.7,1,0.7c0,0,0.1,0.1,0.1,0.1c-0.9,0.2-1.2,0.3-1.4,0.5c-0.3,0.2-0.5,0.5-0.6,0.8
		c-0.1,0.3-0.2,0.7-0.1,1.1c0.1,0.7,0.6,1.2,1.4,1.4c0.1,0,0.1,0,0.2,0c0,0,0.1,0,0.1,0c0.3,0,0.8-0.1,2.7-0.5
		c1.2-0.2,2.3-0.5,2.4-0.5l0,0c0.3-0.1,0.7-0.3,0.9-0.6c0.2-0.2,0.3-0.4,0.4-0.7c0,0,0,0,0,0c0.3,0.3,0.3,0.3,2.2,0.9l0.1,0
		c1,0.3,1.8,0.6,1.8,0.6c0.1,0,0.3,0.1,0.4,0.1c0.1,0,0.1,0,0.2,0c0.1,0,0.1,0,0.2,0c0.4-0.1,0.7-0.3,0.9-0.6
		c0.1-0.2,0.3-0.5,0.3-0.7C20.8,14.7,20.7,14.3,20.6,14.1z M14.1,12.5c-0.1-0.1-0.1-0.1-0.2-0.2c0.1,0,0.2,0,0.2,0
		C14.1,12.4,14.1,12.5,14.1,12.5z M19.5,14.9C19.4,15,19.4,15,19.5,14.9C19.4,15,19.4,15,19.5,14.9c-0.1,0-0.2,0-0.2,0
		c-0.1,0-0.2,0-0.2,0c-0.1,0-1.7-0.5-1.9-0.6l-0.1,0c-1.5-0.5-1.6-0.5-1.7-0.6c-0.1-0.1-0.1-0.1-0.1-0.4c0-0.1,0-0.4,0-0.8
		c0-0.6,0-0.7,0-0.8c0,0,0-0.1,0-0.1l0-0.1c-0.1-0.2-0.3-0.4-0.5-0.4l-0.1,0c0,0,0,0-0.1,0c-0.1,0-0.2,0-0.6,0.1
		c-0.3,0-0.6,0.1-0.8,0.1c-0.4,0-0.8,0.1-1,0.5l0,0.1c-0.1,0.2-0.1,0.4,0.1,0.6l0.1,0.1c0,0,0,0,0,0c0.1,0.2,0.7,0.6,0.9,0.7
		c0.3,0.2,0.4,0.4,0.3,0.7c0,0.2-0.1,0.3-0.2,0.4c-0.1,0.1-0.2,0.2-0.3,0.2c-0.1,0-1,0.2-2.4,0.5c-1.5,0.3-2.3,0.5-2.5,0.5
		c0,0,0,0,0,0c0,0,0,0-0.1,0c-0.3-0.1-0.4-0.2-0.5-0.4c0-0.1,0-0.3,0-0.4c0-0.1,0.1-0.2,0.2-0.2c0.1-0.1,0.3-0.1,1.1-0.4
		C9.4,14.1,9.6,14,9.8,14c0.3-0.1,0.5-0.3,0.5-0.6c0-0.4-0.1-0.6-0.3-0.7c-0.1-0.1-0.4-0.3-0.8-0.6c-0.4-0.3-0.7-0.5-0.8-0.6
		c0-0.1-0.1-0.2-0.1-0.2c-0.1-0.5-0.1-0.7,0.1-1c0-0.1,0-0.1,0.3-0.2C8.7,9.8,8.9,9.7,9,9.6C9.4,9.4,9.9,9.2,10.4,9
		c0.4-0.1,2.4-0.5,3-0.6c0.2,0,1.1-0.1,1.5-0.1c0.1,0,0.2,0,0.3,0l0.1,0c0.3,0,0.5,0.1,0.7,0.2c0.3,0.2,0.7,0.6,0.8,0.9
		c0.1,0.2,0.1,1-0.1,2.2l0,0.2c-0.1,0.4-0.1,0.5-0.1,0.5l0,0.2c0,0.3,0.1,0.5,0.3,0.6l1.3,0.6c1.1,0.5,1.3,0.6,1.3,0.6h0
		c0.1,0,0.1,0.1,0.2,0.2c0,0,0,0.1,0,0.2C19.5,14.8,19.5,14.9,19.5,14.9z"/>
	<path class="st0" d="M14.6,23.4c-0.5,0-1-0.1-1.5-0.4L0.1,14.7l0.8-1.3L14,21.8c0.4,0.3,1.1,0.2,1.7-0.1l0.6,1.4
		C15.8,23.3,15.2,23.4,14.6,23.4z"/>
	<path class="st3" d="M20.7,12.7c-0.3,0-0.4,0-0.5-0.1c-0.4-0.2-0.8-0.5-1-0.8c-0.5-0.8-0.4-1.8,0.2-2.5c0.4-0.4,1-0.7,1.6-0.7
		c0.1,0,0.2,0,0.2,0c0,0,0.1,0,0.2,0c0.4,0.1,0.7,0.2,1,0.5c0.4,0.4,0.7,0.9,0.7,1.5c0,0.6-0.2,1.1-0.5,1.5
		c-0.3,0.4-0.8,0.6-1.3,0.7C21,12.7,21,12.7,20.7,12.7z"/>
	<path class="st2" d="M23.9,9.7c0-0.7-0.4-1.4-0.9-1.9c-0.4-0.3-0.7-0.5-1.2-0.6c-0.1,0-0.2,0-0.3,0c-0.1,0-0.2,0-0.3,0
		c-0.8,0-1.5,0.3-2,0.9c-0.8,0.9-0.9,2.2-0.3,3.3c0.3,0.5,0.8,0.9,1.3,1.1c0.2,0.1,0.3,0.1,0.7,0.2c0.2,0,0.3,0,0.4,0
		c0.1,0,0.2,0,0.3,0c0.6-0.1,1.2-0.4,1.6-0.8C23.7,11.2,24,10.5,23.9,9.7z M22.3,10.9c-0.2,0.3-0.5,0.4-0.9,0.5c-0.1,0-0.1,0-0.1,0
		c0,0-0.1,0-0.3,0c-0.3,0-0.3,0-0.4-0.1c-0.3-0.1-0.6-0.3-0.7-0.6c-0.4-0.6-0.3-1.3,0.2-1.8c0.3-0.3,0.7-0.5,1.1-0.5
		c0,0,0.1,0,0.1,0c0,0,0.1,0,0.1,0c0,0,0.1,0,0.1,0c0.3,0.1,0.5,0.2,0.7,0.3c0.3,0.3,0.5,0.6,0.5,1C22.7,10.2,22.6,10.6,22.3,10.9z"
		/>
</g>
</svg>
