<?xml version="1.0" encoding="utf-8"?>
<!-- Generator: Adobe Illustrator 26.1.0, SVG Export Plug-In . SVG Version: 6.00 Build 0)  -->
<svg version="1.1" id="Layer_1" xmlns="http://www.w3.org/2000/svg" xmlns:xlink="http://www.w3.org/1999/xlink" x="0px" y="0px"
	 viewBox="0 0 24 24" style="enable-background:new 0 0 24 24;" xml:space="preserve">
<style type="text/css">
	.st0{opacity:0.5;fill:#FFFFFF;enable-background:new    ;}
	.st1{fill:#6486C4;}
	.st2{fill:#7D7C7B;}
</style>
<g id="icon">
	<path class="st0" d="M12,19.4c-0.5,0-0.9-0.3-1-0.8c0-0.1,0-0.3,0-2.2l0-2.2l-2-1.4c-1.6-1.2-1.6-1.2-1.7-1.4l0,0
		c0,0-0.1-0.1-0.1-0.2c-0.1-0.6,0-1.1,0.4-1.8c0.2-0.4,0.6-0.9,1-1.2c0.2-0.2,1.4-1.1,1.8-1.5c0.9-0.7,1.5-1,2.3-1.1
		c0,0,0.1,0,0.2,0c0.3,0,0.6,0,0.7,0c0.3,0.1,0.4,0.2,0.6,0.4c0.3,0.3,0.5,0.6,0.8,1c0.2,0.3,0.7,1.2,0.9,1.4L16,8.5l1.5,0.8
		c0.9,0.5,1.5,0.9,1.6,0.9c0.3,0.2,0.5,0.6,0.4,0.9c-0.1,0.3-0.2,0.5-0.4,0.6c-0.1,0.1-0.2,0.1-0.3,0.1l0,0c-0.2,0-0.3-0.1-0.6-0.2
		c-0.4-0.2-2.6-1.1-2.8-1.2c-0.2-0.1-0.5-0.2-0.6-0.4c0,0-0.2-0.3-0.4-0.6c-0.1-0.1-0.2-0.3-0.3-0.4c-0.1-0.1-0.2-0.3-0.2-0.4
		l-0.3-0.4l-0.3,0.3c-0.5,0.5-1.2,1-2,1.5c-0.5,0.3-0.5,0.3-0.5,0.4c0,0.1,0,0.1,1.1,1.1c1.4,1.3,1.4,1.3,1.5,1.5l0,0
		c0.1,0.2,0.1,0.4,0.1,0.6c-0.3,4.7-0.3,4.8-0.4,5.1c-0.1,0.3-0.4,0.5-0.6,0.6C12.2,19.4,12.1,19.4,12,19.4z"/>
	<path class="st1" d="M12,20.1c-0.8,0-1.5-0.5-1.7-1.3c-0.1-0.2-0.1-0.3-0.1-2.4l0-1.8l-1.7-1.2C6.8,12,6.8,12,6.7,11.6l0,0
		c-0.1-0.1-0.1-0.3-0.1-0.4c-0.2-0.8,0-1.5,0.5-2.3c0.3-0.4,0.7-1,1.1-1.4C8.3,7.4,9.6,6.4,10,6c1-0.7,1.7-1.1,2.6-1.2
		c0.1,0,0.2,0,0.3,0c0,0,0.6,0,0.8,0.1c0.4,0.1,0.6,0.3,0.9,0.6c0.3,0.3,0.6,0.7,0.9,1.1c0.2,0.4,0.7,1.2,0.9,1.4l1.3,0.7
		c0.1,0,1.5,0.8,1.6,1c0.5,0.4,0.8,1,0.7,1.6c-0.1,0.5-0.4,0.9-0.8,1.1c-0.2,0.1-0.4,0.2-0.6,0.2c-0.3,0-0.5-0.1-0.9-0.2
		c-0.4-0.2-2.6-1.1-2.8-1.2c-0.3-0.1-0.6-0.3-0.8-0.6c-0.1-0.1-0.4-0.6-0.5-0.7c-0.1-0.1-0.2-0.3-0.3-0.4l0,0c0,0,0-0.1-0.1-0.1
		c-0.5,0.4-1,0.8-1.7,1.3c0.2,0.1,0.4,0.3,0.6,0.6c1.5,1.4,1.5,1.4,1.6,1.6l0,0c0.2,0.3,0.2,0.6,0.2,0.9c-0.3,4.9-0.3,4.9-0.5,5.3
		c-0.2,0.5-0.6,0.8-1,0.9C12.4,20.1,12.2,20.1,12,20.1z M7.9,11.1c0.1,0.1,0.6,0.5,1.5,1.1l2.3,1.6l0,2.5c0,1.3,0,2,0,2.1
		c0,0.1,0.1,0.3,0.4,0.3c0,0,0.1,0,0.1,0c0,0,0.1-0.1,0.2-0.2c0.1-0.2,0.1-0.7,0.4-4.8c0,0,0-0.1-0.1-0.3l0,0
		c-0.1-0.1-0.5-0.5-1.3-1.2c-1.4-1.2-1.4-1.2-1.4-1.6c0-0.4,0.2-0.6,0.8-1c0.8-0.5,1.4-1,1.9-1.4l0.9-0.8l0.7,1
		c0.1,0.1,0.1,0.2,0.2,0.3l0,0c0.1,0.1,0.2,0.3,0.3,0.4c0.2,0.3,0.3,0.5,0.4,0.5c0.1,0.1,0.2,0.1,0.3,0.2c0.2,0.1,2.5,1,2.9,1.2
		c0.2,0.1,0.3,0.1,0.3,0.1c0,0,0,0,0,0c0,0,0-0.1,0.1-0.2c0,0,0-0.1-0.1-0.2c-0.1,0-0.6-0.4-1.5-0.9L15.4,9l-0.2-0.3
		c-0.1-0.2-0.6-1-0.8-1.3c-0.3-0.4-0.5-0.7-0.7-0.9c-0.1-0.2-0.2-0.2-0.3-0.2c-0.1,0-0.3,0-0.5,0c0,0-0.1,0-0.1,0
		c-0.6,0.1-1.2,0.4-2,1c-0.4,0.3-1.6,1.3-1.7,1.4C8.8,8.9,8.4,9.3,8.2,9.6c-0.4,0.6-0.4,1-0.3,1.3C7.9,11,7.9,11,7.9,11.1L7.9,11.1z
		 M18.7,11.2C18.7,11.2,18.7,11.2,18.7,11.2C18.7,11.2,18.7,11.2,18.7,11.2z M7.9,11L7.9,11C7.9,11,7.9,11,7.9,11z M13.4,6.2
		C13.4,6.2,13.4,6.2,13.4,6.2C13.4,6.2,13.4,6.2,13.4,6.2z"/>
	<path class="st0" d="M17.1,5.8c-0.8,0-1.4-0.5-1.7-1.1c-0.3-0.6-0.2-1.3,0.3-1.9c0.3-0.3,0.7-0.6,1.1-0.7c0.1,0,0.2,0,0.3,0
		c0.1,0,0.2,0,0.3,0c0.4,0.1,0.7,0.2,1,0.5C18.8,3,18.9,3.4,18.9,4c0,0.8-0.6,1.5-1.4,1.7C17.4,5.8,17.2,5.8,17.1,5.8L17.1,5.8z"/>
	<path class="st1" d="M17.1,6.5L17.1,6.5c-1,0-2-0.6-2.3-1.6c-0.3-0.8-0.2-1.8,0.3-2.5c0.4-0.5,0.9-0.8,1.5-0.9c0.2,0,0.4,0,0.5,0
		c0.1,0,0.3,0,0.4,0c0.5,0.1,1,0.3,1.4,0.7c0.5,0.5,0.8,1.2,0.7,1.9c0,1.1-0.8,2.1-1.9,2.3C17.5,6.4,17.3,6.5,17.1,6.5z M17.1,2.7
		c-0.1,0-0.2,0-0.2,0c-0.3,0.1-0.6,0.2-0.7,0.4C15.9,3.5,15.8,4,16,4.4c0.2,0.4,0.6,0.7,1.1,0.7c0.1,0,0.2,0,0.3,0
		c0.5-0.1,0.9-0.6,0.9-1.1c0-0.4-0.1-0.6-0.3-0.9c-0.2-0.2-0.4-0.3-0.6-0.3C17.2,2.7,17.2,2.7,17.1,2.7z"/>
	<circle class="st0" cx="4.9" cy="18" r="4.1"/>
	<path class="st2" d="M4.9,22.8c-2.6,0-4.8-2.2-4.8-4.8s2.2-4.8,4.8-4.8s4.8,2.2,4.8,4.8S7.6,22.8,4.9,22.8z M4.9,14.7
		c-1.8,0-3.3,1.5-3.3,3.3s1.5,3.3,3.3,3.3s3.3-1.5,3.3-3.3S6.7,14.7,4.9,14.7z"/>
	<circle class="st0" cx="19.1" cy="18" r="4.1"/>
	<path class="st2" d="M19.1,22.8c-2.6,0-4.8-2.2-4.8-4.8s2.2-4.8,4.8-4.8s4.8,2.2,4.8,4.8S21.7,22.8,19.1,22.8z M19.1,14.7
		c-1.8,0-3.3,1.5-3.3,3.3s1.5,3.3,3.3,3.3s3.3-1.5,3.3-3.3S20.9,14.7,19.1,14.7z"/>
</g>
</svg>
