<?xml version="1.0" encoding="utf-8"?>
<!-- Generator: Adobe Illustrator 26.1.0, SVG Export Plug-In . SVG Version: 6.00 Build 0)  -->
<svg version="1.1" id="Layer_1" xmlns="http://www.w3.org/2000/svg" xmlns:xlink="http://www.w3.org/1999/xlink" x="0px" y="0px"
	 viewBox="0 0 24 24" style="enable-background:new 0 0 24 24;" xml:space="preserve">
<style type="text/css">
	.st0{opacity:0.5;fill:#FFFFFF;enable-background:new    ;}
	.st1{fill:#6486C4;}
	.st2{fill:#6E6F72;}
</style>
<g id="icon">
	<path class="st0" d="M13,19.2c-0.4,0-0.7-0.2-0.9-0.6c0-0.1-0.1-0.2-0.1-0.2c0-0.1-0.1-1.2-0.2-2.3c-0.1-1.8-0.2-1.8-0.2-1.8
		c-0.6-0.8-2-2.5-2.3-3c-0.3-0.3-0.3-0.3-0.3-0.5c0-0.1,0-0.2-0.1-0.3C9,10.4,9,10,9,9.9c0.1-0.2,0.2-0.4,0.3-0.5
		C9.6,9.1,9.7,9,10,9l0,0c0.4-0.1,0.4-0.1,2-0.1l1.9,0l-0.4-0.3c-0.1-0.1-0.4-0.2-2-1L9.6,6.6L9.5,6.4C9.2,6.2,9.2,6,9.2,5.8
		c0-0.3,0.2-0.6,0.5-0.7c0.1,0,0.1,0,0.2,0c0.1,0,0.2,0,0.3,0.1c0.1,0,0.8,0.3,1.9,0.8c0.6,0.3,1.8,0.7,1.9,0.8
		c0.1,0,0.2,0.1,0.2,0.1c0.2,0.1,3.1,2,3.2,2.1c0,0,0.1,0.1,0.1,0.1l0.1,0.1c0.2,0.2,0.3,0.4,0.3,0.7c0,0.4-0.2,0.9-0.6,1.4
		c-0.4,0.5-1,0.8-1.7,0.9c-0.1,0-0.2,0-0.5,0c-0.2,0-0.4,0-0.8,0c-0.7,0-1.2,0-1.3,0l-0.4,0l0.6,0.9c0.4,0.6,0.5,0.7,0.5,0.7
		c0,0.1,0.1,0.2,0.1,0.5c0,0.2,0.1,3.7,0.1,4.1c0,0.4-0.1,0.6-0.3,0.8c-0.1,0.1-0.3,0.2-0.5,0.2C13.1,19.2,13,19.2,13,19.2z"/>
	<path class="st1" d="M18.1,8.6L18.1,8.6c-0.1-0.1-0.2-0.2-0.2-0.2l0,0l0,0c-0.2-0.2-3.1-2.1-3.3-2.2c-0.1,0-0.2-0.1-0.3-0.1
		c-0.1,0-0.8-0.3-1.8-0.7c-0.8-0.3-1.8-0.7-1.9-0.8c-0.2-0.1-0.3-0.1-0.5-0.1c-0.1,0-0.3,0-0.4,0.1C9,4.7,8.6,5.2,8.6,5.7
		c0,0.4,0.1,0.8,0.4,1.1L9.3,7c0,0,2.3,1.1,2.5,1.2c-1.4,0-1.5,0-1.9,0.2C9.5,8.5,9.2,8.7,9,8.9C8.7,9.1,8.6,9.4,8.5,9.7
		c-0.1,0.3-0.1,0.8,0,1.1c0,0,0,0.1,0,0.2c0,0.3,0.1,0.4,0.4,0.8c0.3,0.4,1.6,2.1,2.3,2.9c0,0.2,0.1,0.8,0.1,1.6
		c0,0.3,0.1,0.8,0.1,1.3c0,0.7,0.1,0.9,0.1,1c0,0.1,0.1,0.2,0.1,0.3c0.2,0.6,0.8,1,1.4,1c0.1,0,0.2,0,0.3,0c0.3-0.1,0.5-0.2,0.8-0.4
		c0.3-0.3,0.5-0.7,0.5-1.2c0-0.3,0-4-0.1-4.2c0-0.3-0.1-0.4-0.1-0.6l0,0c0-0.1-0.1-0.2-0.5-0.8c0.2,0,0.3,0,0.5,0c0.4,0,0.6,0,0.8,0
		c0.4,0,0.5,0,0.6,0c0.8-0.1,1.5-0.5,2-1.1c0.5-0.6,0.7-1.2,0.7-1.8C18.5,9.3,18.4,8.9,18.1,8.6z M16.9,10.7
		c-0.3,0.4-0.8,0.6-1.3,0.7c-0.1,0-0.1,0-0.4,0c-0.2,0-0.4,0-0.8,0c-0.6,0-1.2,0-1.2,0l-1.7-0.1l1.3,1.9c0.3,0.4,0.4,0.5,0.4,0.6
		c0,0.1,0,0.2,0.1,0.3c0,0.2,0.1,3.7,0.1,4c0,0.3-0.1,0.3-0.1,0.4c-0.1,0.1-0.1,0.1-0.2,0.1c0,0,0,0-0.1,0c-0.1,0-0.2-0.1-0.3-0.2
		c0,0,0-0.1,0-0.1c0,0,0-0.2,0-0.4c0-0.4-0.1-1.1-0.1-1.8c-0.2-2-0.2-2-0.3-2.1c-0.6-0.8-2-2.5-2.3-2.9c-0.1-0.1-0.1-0.1-0.1-0.2
		c0-0.1,0-0.3-0.1-0.4c0-0.1,0-0.3,0-0.4c0-0.1,0.1-0.2,0.2-0.3c0.1-0.1,0.2-0.2,0.4-0.2c0.3-0.1,0.3-0.1,1.8-0.1l3.4,0l-1.5-1.3
		c-0.2-0.2-0.3-0.2-2.2-1.1L10,6.1L9.9,6C9.8,5.9,9.8,5.9,9.8,5.8c0-0.1,0-0.1,0.1-0.2c0,0,0,0,0.1,0c0.1,0,0.1,0,0.1,0
		c0,0,0.5,0.2,1.8,0.8c1.1,0.5,1.8,0.7,2,0.8c0,0,0.1,0,0.1,0c0.3,0.2,2.8,1.8,3.1,2c0,0,0.2,0.2,0.2,0.2c0.1,0.1,0.1,0.1,0.1,0.3
		C17.3,10,17.2,10.4,16.9,10.7z"/>
	<path class="st0" d="M21.4,10.7c-1.1,0-2-0.9-2-2s0.9-2,2-2s2,0.9,2,2S22.5,10.7,21.4,10.7z"/>
	<path class="st1" d="M21.4,6.1c-1.4,0-2.6,1.2-2.6,2.6s1.2,2.6,2.6,2.6S24,10.1,24,8.7S22.8,6.1,21.4,6.1z M21.4,10.1
		c-0.8,0-1.4-0.6-1.4-1.4c0-0.8,0.6-1.4,1.4-1.4s1.4,0.6,1.4,1.4C22.8,9.5,22.2,10.1,21.4,10.1z"/>
	<path class="st0" d="M8.2,12.3c-0.1-0.2-0.2-0.3-0.3-0.5c-0.3,0.4-0.6,0.9-0.7,1l-0.1,0.2L5,14.2c-1.2,0.8-1.3,0.8-1.4,1
		c-0.2,0.2-0.3,0.4-0.3,0.7c0,0.2,0.1,0.5,0.3,0.6c0.1,0.1,0.2,0.1,0.2,0.2c0.1,0,0.2,0.1,0.3,0.1l0,0c0.2,0,0.3-0.1,0.7-0.2
		c0.2-0.1,1.7-0.9,2.4-1.2c1.2-0.6,1.3-0.6,1.5-0.8c0.1-0.1,0.2-0.2,0.3-0.2c0.1-0.1,0.2-0.2,0.4-0.4C8.9,13.1,8.4,12.5,8.2,12.3z"
		/>
	<path class="st1" d="M9.1,13.3c-0.2,0.3-0.3,0.4-0.4,0.4c0,0-0.3,0.2-0.4,0.3c-0.1,0.1-0.1,0.1-1.3,0.7c-0.4,0.2-1.3,0.6-1.8,0.9
		c-0.3,0.1-0.5,0.2-0.5,0.3c-0.3,0.1-0.4,0.2-0.5,0.2c0,0,0,0-0.1,0c0,0,0,0-0.1,0c0,0-0.1-0.1-0.1-0.2c0-0.1,0-0.2,0.1-0.2
		c0.1-0.1,0.2-0.2,1.3-0.9l2.2-1.3l0.4-0.6c0.1-0.1,0.2-0.3,0.3-0.4c0,0,0,0,0,0c-0.3-0.4-0.5-0.7-0.5-1.2c-0.2,0.3-0.5,0.7-0.7,1
		l-0.3,0.4l-1.2,0.8c-0.5,0.3-0.9,0.6-1.3,0.8c-0.7,0.4-0.9,0.6-1.1,0.7c-0.3,0.3-0.5,0.7-0.5,1.1c0,0.4,0.2,0.8,0.5,1.1
		c0.2,0.1,0.3,0.2,0.4,0.3c0.2,0.1,0.4,0.1,0.5,0.1c0.3,0,0.6-0.1,1-0.3c0.1,0,0.3-0.1,0.5-0.3C6.2,16.4,7,16,7.5,15.8
		c1.2-0.6,1.4-0.6,1.7-0.9c0,0,0.1-0.1,0.2-0.2c0.1-0.1,0.3-0.2,0.5-0.5C9.6,14,9.3,13.6,9.1,13.3z"/>
	<path class="st2" d="M13.9,21.9h-3.1v-1.5h3.1c0.3,0,0.6-0.2,0.8-0.4l0.2-0.3l1.2,0.9L16,20.8C15.5,21.5,14.8,21.9,13.9,21.9z"/>
	<path class="st2" d="M3.8,19.7l-0.3,0c-0.8-0.1-1.5-0.6-1.9-1.3L0,15.7L1.4,15l1.5,2.7C3,18,3.3,18.2,3.6,18.2l0.3,0L3.8,19.7z"/>
</g>
</svg>
