<?xml version="1.0" encoding="utf-8"?>
<!-- Generator: Adobe Illustrator 26.1.0, SVG Export Plug-In . SVG Version: 6.00 Build 0)  -->
<svg version="1.1" id="Layer_1" xmlns="http://www.w3.org/2000/svg" xmlns:xlink="http://www.w3.org/1999/xlink" x="0px" y="0px"
	 viewBox="0 0 24 24" style="enable-background:new 0 0 24 24;" xml:space="preserve">
<style type="text/css">
	.st0{fill:#7B7B7B;}
	.st1{fill:#6484C3;}
</style>
<g id="icon">
	<path class="st0" d="M17.6,20.1c-0.4-1.3-1.7-2.1-3.1-2c-1.2,0.1-2.3,1-2.6,2.2c-0.1,0.3-0.1,0.8-0.1,1.2c0.2,1.1,1,2.1,2.1,2.4
		c0.3,0.1,0.4,0.1,0.7,0.1c0.4,0,0.5,0,0.7-0.1c0.3-0.1,0.8-0.3,1-0.5C17.6,22.6,18,21.3,17.6,20.1z"/>
	<path class="st1" d="M7.2,24c-0.5,0-0.7-0.1-1.1-0.4c-0.4-0.4-0.4-0.7-0.3-1.1c0-0.1,0-0.2,0.1-0.3c0,0,0.9-2,2.2-4.3l0.7-1.4
		c0.5-0.9,0.9-1.6,1.1-2.1l0.1-0.3l0.3,0.2c1,0.6,1.6,0.9,1.9,1c0.1,0,0.1,0.1,0.2,0.1l0.3,0.1l-0.2,0.3c-0.4,0.8-1,1.9-1.8,3.4
		c-0.8,1.5-1.3,2.4-1.6,3.1c-0.6,1.2-0.7,1.2-0.8,1.4C8.1,23.9,7.7,24,7.2,24L7.2,24z M6.1,18C6.1,18,6,18,6,18
		c-0.8-0.1-1-0.7-1-1.3c0-0.2,0-0.5,0.1-0.7c0,0,0-0.1,0.6-1c0.4-0.7,1-1.6,1.4-2.3l0.2-0.3l0.3,0.2c0.3,0.2,0.9,0.5,1.9,1.1
		l0.3,0.2l-0.2,0.3c-0.2,0.4-0.5,0.9-0.8,1.4c-1,1.7-1.3,1.9-1.5,2.1l0,0C6.8,17.9,6.5,18,6.1,18L6.1,18z M16.5,15.3
		c-0.2,0-0.4-0.1-0.6-0.2c-0.5-0.3-0.6-0.9-0.4-1.4c0.4-0.8,1.4-2.2,1.8-2.9c0,0,0-0.1,0.1-0.1c-0.4-0.2-1.2-0.6-1.6-0.7
		c-0.2,0.3-0.6,1-1.2,2c-0.3,0.5-1.3,2.3-1.4,2.4l0,0c0,0-0.1,0.2-0.3,0.2c-0.2,0-0.3-0.1-2.4-1.3l-0.3-0.2
		c-2.5-1.4-2.5-1.4-2.6-1.5c-0.2-0.2-0.1-0.4,0-0.6c0.1-0.2,0.3-0.6,0.9-1.3l0.8-1.1c-1.1,0-3.6-0.1-4.9-0.2c-0.6,0-1.1-0.5-1.1-1.1
		v0c0-0.6,0.5-1.1,1.1-1.1c2.5-0.1,9.7-0.2,9.7-0.2c0,0,0,0,0,0c0.2,0,0.4,0.1,0.6,0.1c0.1,0.1,4.8,2.8,5,2.9
		c0.2,0.1,0.4,0.3,0.5,0.5c0.1,0.2,0.2,0.5,0.2,0.7c0,0.2-0.1,0.5-0.2,0.7c0,0.1-0.1,0.2-0.2,0.2c0,0-0.1,0.2-0.6,0.7
		c-0.7,0.8-1.8,2.2-2.4,3C17.1,15.1,16.8,15.3,16.5,15.3C16.5,15.3,16.5,15.3,16.5,15.3z M13.9,4.9c-0.4,0-0.7-0.1-1.1-0.3
		c-1-0.5-1.6-1.6-1.3-2.7c0.2-0.9,0.9-1.6,1.9-1.8c0.1,0,0.3,0,0.5,0c0.3,0,0.6,0.1,0.9,0.1c0.5,0.2,1,0.6,1.3,1.2
		c0.2,0.4,0.3,0.7,0.3,1.1c0,0.3,0,0.5-0.1,0.8C15.9,4.2,15,4.9,13.9,4.9z"/>
</g>
</svg>
