<?xml version="1.0" encoding="utf-8"?>
<!-- Generator: Adobe Illustrator 26.1.0, SVG Export Plug-In . SVG Version: 6.00 Build 0)  -->
<svg version="1.1" id="Layer_1" xmlns="http://www.w3.org/2000/svg" xmlns:xlink="http://www.w3.org/1999/xlink" x="0px" y="0px"
	 viewBox="0 0 24 24" style="enable-background:new 0 0 24 24;" xml:space="preserve">
<style type="text/css">
	.st0{fill:#6485C3;}
	.st1{fill:#7B7B7B;}
</style>
<g id="icon">
	<path class="st0" d="M10.4,19.9c-0.2,0-0.3-0.1-0.4-0.1l0,0c-0.2-0.1-0.3-0.3-0.4-0.4C9.4,19,9.4,19,9.4,17v-2l-1.8-1l-1-0.6
		c-0.6-0.3-1-0.6-1-0.6c-0.3-0.2-0.5-0.5-0.7-0.8c-0.1-0.2-0.1-0.2-0.1-0.5c0-0.3,0-0.5,0.1-0.7c0.1-0.2,3-4.4,3-4.4
		C8.1,6.3,8.4,6.1,8.7,6C8.9,6,9,6,9.1,6c0.1,0,0.3,0,0.4,0C9.6,6,9.9,6.2,10,6.3c0,0,0,0,0,0c0.2,0.1,0.4,0.2,1.2,1.5l0.9,1.5h0.9
		c0.7,0,1.1,0,1.2,0c0.3,0.1,0.5,0.2,0.6,0.5c0.1,0.2,0.1,0.5,0,0.7c-0.1,0.2-0.3,0.3-0.4,0.4l-0.2,0.1l-1.4,0c-0.4,0-0.6,0-0.9,0
		c-0.5,0-0.6,0-0.7-0.1c-0.3-0.1-0.4-0.3-0.9-1.2c-0.1-0.2-0.3-0.4-0.4-0.6c-0.2,0.2-0.4,0.7-0.8,1.2c-0.2,0.3-0.4,0.7-0.6,0.9
		c-0.1,0.1-0.1,0.2-0.2,0.3c0.2,0.1,0.7,0.4,1.1,0.6c0.6,0.3,1.3,0.7,1.4,0.7l0,0c0.2,0.1,0.3,0.3,0.4,0.5l0,0
		c0.1,0.3,0.1,0.3,0.1,2.8v0.1c0,0.6,0,2.4,0,2.6C11.5,19.4,11,19.9,10.4,19.9z"/>
	<path class="st1" d="M7.8,3.4L7.8,3.2c0,0,0-0.1,0-0.6c0-0.4,0-0.4,0.1-0.7C8.1,1,9,0.2,10.1,0c0.1,0,0.3,0,0.4,0
		c0.3,0,0.6,0,0.8,0.1c0.8,0.2,1.5,0.7,1.8,1.3c0.1,0.1,0.1,0.3,0.2,0.3l0.2,0.4l-0.5,0c-0.2,0-0.6,0-1,0h-1.2l-0.1,0
		c-0.1,0.1-0.2,0.1-0.4,0.5C10.1,3,10.1,3.2,10,3.2C9.7,3.4,9.7,3.4,8.8,3.4L7.8,3.4L7.8,3.4z"/>
	<path class="st0" d="M10.8,5.9c-0.9,0-1.7-0.5-2.1-1.3L8.5,4.1h0.7c0.9,0,0.9,0,1.2-0.2c0.1-0.1,0.2-0.3,0.3-0.5
		c0.1-0.2,0.1-0.3,0.2-0.3L11,2.9H12c0.4,0,0.7,0,0.8,0l0.3,0l0,0.3c0,0.1,0,0.2,0,0.3C13.2,4.8,12.1,5.9,10.8,5.9z"/>
	<path class="st1" d="M19.8,24c-2.2,0-4-1.8-4-4s1.8-4,4-4s4,1.8,4,4S22,24,19.8,24z M4.5,24c-2.2,0-4-1.8-4-4s1.8-4,4-4s4,1.8,4,4
		S6.7,24,4.5,24z"/>
	<path class="st1" d="M8,16.8c0,0-3.7-2.1-5.1-2.8c-0.9-0.5-1.7,0.2-1.8,0.3l-0.9-0.9c0.1-0.1,1.4-1.4,3.2-0.5
		c1.4,0.7,5,2.7,5.1,2.8L8,16.8z"/>
	<path class="st1" d="M18.3,15.3L17,12.3c-0.2-0.5-0.7-0.8-1.2-0.8h-0.3v-1.2h0.3c1,0,1.9,0.6,2.3,1.5l1.3,2.9L18.3,15.3z"/>
	<polygon class="st1" points="12.6,14 12.6,19.7 16.9,15 15.9,13 	"/>
	<path class="st1" d="M22.8,13.5c0,0-1.2-1.1-3.3-0.1L19,12.3c3-1.5,4.7,0.2,4.7,0.3L22.8,13.5z"/>
</g>
</svg>
