<?xml version="1.0" encoding="utf-8"?>
<!-- Generator: Adobe Illustrator 26.1.0, SVG Export Plug-In . SVG Version: 6.00 Build 0)  -->
<svg version="1.1" id="Layer_1" xmlns="http://www.w3.org/2000/svg" xmlns:xlink="http://www.w3.org/1999/xlink" x="0px" y="0px"
	 viewBox="0 0 24 24" style="enable-background:new 0 0 24 24;" xml:space="preserve">
<style type="text/css">
	.st0{opacity:0.5;fill:#FFFFFF;enable-background:new    ;}
	.st1{fill:#6486C4;}
	.st2{fill:#6E6F72;}
</style>
<g id="icon">
	<path class="st0" d="M14.5,23.1c-0.1,0-0.2,0-0.3,0c-0.1,0-0.3-0.2-0.4-0.3c0-0.1-0.4-0.6-0.9-1.4L12.2,20l-0.3-0.3
		c-0.4-0.4-1-1-1.2-1.1c-0.2-0.2-0.4-0.3-0.5-0.3c-0.1,0-0.3-0.1-0.4-0.2c-0.2-0.1-0.2-0.1-0.4-0.1c-0.1,0-0.2,0-0.3,0
		c-0.4,0-1,0.1-1.7,0.1C6.9,18,6.8,18,5.4,18.4c-0.8,0.2-1.5,0.4-1.5,0.4c0,0-0.1,0-0.1,0c-0.2,0-0.5-0.1-0.6-0.2
		c-0.2-0.2-0.3-0.6-0.1-0.9c0-0.1,0.2-0.3,0.3-0.3c0.1,0,0.6-0.2,1.3-0.5c0.5-0.2,1.3-0.4,1.4-0.5c0.2-0.1,0.4-0.1,1.8-0.4l1.3-0.2
		l0.1-0.3c0.2-1,0.3-2,0.3-3.1c0-0.2,0-0.6-0.1-0.7c0-0.2,0-0.3,0-0.5c0-0.1,0-0.2,0-0.2c0-0.1-0.2-1.1-0.3-1.7
		c-0.2-1-0.3-1.6-0.3-1.7c0-0.2,0.1-0.5,0.2-0.6c0,0,0,0,0.1,0c0,0,0,0,0,0c0.1,0,1.4,0.7,1.6,0.8c0,0.1,0.1,0.3,0.2,0.6
		c0,0.2,0.1,0.3,0.1,0.4C11,8.8,11,8.9,11.1,8.9h0.1l0-0.1c0-0.3,0.1-1.9,0.1-2c0,0,0-0.1,0.1-0.1c0,0,0,0,0,0
		c0.2,0.1,1.6,0.6,1.7,0.7c0,0,0,0,0,0c0,0.1,0,0.5,0,1.6l0,0.3c0,0.8,0,1.8,0,2.3c0,0.6,0,1.1,0,1.3c-0.1,1.5-0.5,2.8-1,3.7
		C12,16.8,12,16.8,12,16.9c0,0.1,0,0.1,0.9,1.1c0.3,0.3,0.5,0.6,0.7,0.8c0.1,0.2,0.2,0.3,0.2,0.3c0.1,0.1,0.2,0.3,0.2,0.4
		c0,0.1,0.9,1.9,1.1,2.3c0.2,0.5,0.3,0.7,0.2,0.9C15.2,22.9,14.9,23.1,14.5,23.1z"/>
	<path class="st1" d="M15.6,21.5c-0.2-0.5-1-2-1-2.2c-0.1-0.1-0.2-0.4-0.3-0.5c0,0-0.9-1.1-0.9-1.1c-0.3-0.4-0.5-0.6-0.6-0.8
		c0.6-1,0.9-2.3,1.1-3.9c0-0.2,0-0.8,0-1.3c0-0.5,0-1.5,0-2.3l0-0.3c0-1.5,0-1.7-0.1-1.9L13.7,7l-0.2-0.1l0,0
		c-0.2-0.1-1.7-0.7-1.9-0.8l-0.1,0l-0.1,0c0,0-0.1,0-0.2,0l0,0c-0.2,0.1-0.3,0.2-0.3,0.4l0,0.1l0,0.1c0,0.1,0,0.2,0,0.4
		c-0.4-0.2-1.3-0.7-1.5-0.8c-0.1,0-0.1,0-0.2,0c-0.2,0-0.3,0.1-0.5,0.2l0,0l0,0c-0.2,0.2-0.3,0.7-0.3,1c0,0.1,0,0.4,0.3,1.8
		c0.2,1.2,0.3,1.5,0.3,1.6c0,0,0,0.1,0,0.2c0,0.2,0,0.3,0,0.6c0,0.2,0,0.5,0,0.7c0,1-0.1,2-0.2,2.9l-0.9,0.2
		c-1.5,0.3-1.7,0.3-1.9,0.4c-0.1,0-0.6,0.2-1.3,0.5c-0.6,0.2-1.2,0.4-1.3,0.5l0,0c-0.2,0.1-0.4,0.4-0.6,0.6
		c-0.3,0.5-0.2,1.1,0.2,1.6c0.2,0.3,0.6,0.4,1,0.4c0.1,0,0.1,0,0.2,0c0.1,0,0.9-0.2,1.6-0.4c1.3-0.4,1.4-0.4,1.8-0.4
		C8,18.4,8.6,18.4,9,18.4c0.1,0,0.2,0,0.2,0c0.1,0,0.1,0,0.2,0.1c0.2,0.1,0.4,0.2,0.6,0.3c0,0,0.1,0,0.3,0.2
		c0.2,0.2,0.7,0.7,1.1,1.1l0.3,0.3l0.8,1.3c0.1,0.1,0.8,1.3,0.9,1.5c0.2,0.2,0.4,0.4,0.6,0.5c0.2,0.1,0.3,0.1,0.5,0.1
		c0.6,0,1.1-0.4,1.3-0.9C15.9,22.3,15.8,22,15.6,21.5z M14.7,22.4c0,0-0.1,0.1-0.1,0.1c0,0,0,0-0.1,0c0,0-0.1-0.1-0.1-0.1
		c-0.1-0.1-0.3-0.6-0.8-1.4l-0.8-1.4l-0.4-0.4c-0.5-0.5-1-1-1.2-1.2c-0.3-0.3-0.5-0.4-0.8-0.4c0,0-0.1,0-0.3-0.2
		c-0.3-0.2-0.4-0.2-0.7-0.2c-0.1,0-0.2,0-0.4,0c-0.4,0-1.1,0.1-1.8,0.1c-0.5,0.1-0.6,0.1-1.9,0.5c-0.8,0.2-1.3,0.4-1.5,0.4
		c-0.1,0-0.1,0-0.2-0.1c-0.1-0.1-0.1-0.1,0-0.2c0,0,0.1-0.1,0.1-0.1c0.2-0.1,0.6-0.2,1.2-0.4c0.6-0.2,1.3-0.4,1.4-0.5
		c0.1,0,0.5-0.1,1.6-0.3l1.7-0.3l0.2-0.7c0.2-1,0.3-2.1,0.3-3.2c0-0.2,0-0.6-0.1-0.8c0-0.2,0-0.3,0-0.3c0-0.1,0-0.2,0-0.3
		c0-0.1,0-0.1-0.3-1.8C9.6,8.8,9.4,8,9.4,7.7C9.6,7.8,9.9,8,10.1,8.1c0,0.1,0.1,0.2,0.1,0.4c0,0.2,0.1,0.3,0.1,0.4
		c0.1,0.2,0.2,0.7,0.7,0.7h0.7l0-0.7c0-0.2,0-0.8,0.1-1.3c0.3,0.1,0.5,0.2,0.7,0.3c0,0.3,0,0.7,0,1.2l0,0.3c0,0.8,0,1.8,0,2.3
		c0,0.6,0,1.1,0,1.3c-0.1,1.4-0.4,2.6-0.9,3.5c-0.2,0.3-0.2,0.4-0.2,0.6c0,0.3,0,0.3,1,1.5c0,0,0.9,1.1,0.9,1.1c0,0,0.1,0.2,0.1,0.2
		l0.1,0.2l0,0c0.3,0.6,1,2.2,1,2.2C14.7,22.3,14.7,22.4,14.7,22.4C14.7,22.4,14.7,22.4,14.7,22.4z"/>
	<path class="st0" d="M8.4,23.4c-0.8,0-1.4-0.5-1.7-1.1c-0.2-0.6-0.2-1.2,0.1-1.7c0.3-0.5,0.8-0.8,1.4-0.9c0.1,0,0.1,0,0.2,0
		c0.5,0,1,0.2,1.3,0.5c0.6,0.6,0.7,1.6,0.2,2.4c-0.2,0.3-0.6,0.6-1,0.7C8.7,23.4,8.6,23.4,8.4,23.4C8.4,23.4,8.4,23.4,8.4,23.4z"/>
	<path class="st1" d="M10.1,19.8c-0.4-0.4-1.1-0.7-1.7-0.7c-0.1,0-0.2,0-0.2,0c-0.8,0.1-1.4,0.5-1.8,1.1c-0.4,0.7-0.5,1.4-0.2,2.2
		C6.5,23.4,7.4,24,8.4,24c0.2,0,0.4,0,0.6-0.1c0.5-0.1,1-0.5,1.3-0.9C11,22,10.9,20.7,10.1,19.8z M9.4,22.3
		c-0.2,0.2-0.4,0.4-0.7,0.5c-0.1,0-0.2,0-0.3,0c-0.5,0-1-0.3-1.1-0.8c-0.2-0.4-0.1-0.8,0.1-1.1c0.2-0.3,0.5-0.5,0.9-0.6
		c0,0,0.1,0,0.1,0c0.3,0,0.7,0.1,0.9,0.4C9.7,21.1,9.8,21.8,9.4,22.3z"/>
	<path class="st2" d="M21,8.9c-0.1-0.6-0.4-1.2-0.8-1.4L6.8,1.2L7.3,0l13.4,6.3c0.9,0.4,1.4,1.5,1.6,2.4l0,0.2L21,9.1L21,8.9z"/>
	<path class="st2" d="M18.2,10.8c-0.1-0.6-0.4-1.2-0.8-1.4L14.6,8l0-0.2c0-0.6,0-0.8-0.1-0.9l-0.2-0.5L18,8.2
		c0.9,0.4,1.4,1.5,1.6,2.4l0,0.2L18.3,11L18.2,10.8z"/>
	<path class="st2" d="M4,3.1l0.6-1.2l6.9,3.1l-0.7,0.1c0,0-0.1,0-0.1,0l0,0l-0.1,0l0,0c-0.2,0.1-0.3,0.2-0.4,0.4l-0.1,0.2L4,3.1z"/>
</g>
</svg>
