<?xml version="1.0" encoding="utf-8"?>
<!-- Generator: Adobe Illustrator 26.1.0, SVG Export Plug-In . SVG Version: 6.00 Build 0)  -->
<svg version="1.1" id="Layer_1" xmlns="http://www.w3.org/2000/svg" xmlns:xlink="http://www.w3.org/1999/xlink" x="0px" y="0px"
	 viewBox="0 0 24 24" style="enable-background:new 0 0 24 24;" xml:space="preserve">
<style type="text/css">
	.st0{opacity:0.5;fill:#FFFFFF;enable-background:new    ;}
	.st1{fill:#6486C4;}
	.st2{fill:#6E6F72;}
</style>
<g id="icon">
	<path class="st0" d="M1.9,13.6l0-0.3c0.1-1,0.4-2.3,0.6-2.9c0-0.1,0.1-0.2,0.1-0.3l0-0.1c0.2-0.4,0.3-0.6,0.5-0.8
		c0.3-0.3,0.6-0.4,1.1-0.5c0,0,0.1,0,0.2,0c0.2,0,0.5,0,0.7,0c0.2,0,4.9,1,5.2,1.1c0.5,0.1,0.9,0.5,0.9,1c0,0.3-0.1,0.5-0.3,0.7
		c-0.2,0.2-0.4,0.3-0.7,0.3c0,0,0,0-0.1,0c-0.2,0-0.6-0.1-1.8-0.3c-0.9-0.2-1.3-0.3-1.5-0.3l-0.1,0c0,0.1-0.1,0.3-0.3,0.7
		c-0.1,0.2-0.1,0.3-0.1,0.4c0,0.1-0.1,0.6-0.2,1.1l0,0.2L1.9,13.6L1.9,13.6z"/>
	<path class="st0" d="M5.7,7.6c-1.1,0-1.9-0.9-1.9-1.9s0.9-1.9,1.9-1.9s1.9,0.9,1.9,1.9S6.7,7.6,5.7,7.6z"/>
	<path class="st1" d="M5.4,13.6l0-0.3c0.1-0.5,0.1-1.1,0.2-1.3c0-0.1,0.1-0.3,0.1-0.4c0.3-0.8,0.4-1.2,0.9-1.2c0,0,0.1,0,0.1,0
		c0.1,0,0.3,0,1.8,0.4c0.7,0.1,1.6,0.3,1.7,0.3l0,0c0.1,0,0.1,0,0.2,0c0,0,0.1-0.1,0.1-0.1c0-0.1-0.2-0.2-0.3-0.2
		C9.9,10.6,5.2,9.6,5,9.5c-0.1,0-0.3,0-0.5,0c0,0,0,0-0.1,0C4.2,9.5,4,9.6,3.9,9.8c-0.1,0.1-0.2,0.3-0.3,0.6l0,0.1
		c0,0.1-0.1,0.2-0.1,0.3c-0.3,0.7-0.5,2.1-0.5,2.6l0,0.2H1.6l0-0.3c0.1-0.6,0.3-2.1,0.6-3c0-0.1,0.1-0.2,0.1-0.3l0.1-0.2
		C2.6,9.5,2.8,9.2,3,9c0.3-0.4,0.7-0.5,1.3-0.6c0,0,0.1,0,0.2,0c0.2,0,0.6,0,0.7,0c0.2,0,4.9,1.1,5.3,1.1c0.7,0.2,1.1,0.7,1.1,1.4
		c0,0.4-0.1,0.7-0.4,1c-0.3,0.3-0.6,0.4-1,0.4c0,0-0.1,0-0.1,0l0,0c-0.1,0-0.4,0-1.8-0.3c-0.8-0.2-1.1-0.2-1.2-0.3
		C7,11.7,7,11.8,6.9,12c-0.1,0.2-0.1,0.3-0.2,0.4c0,0.1-0.1,0.6-0.1,1l0,0.2L5.4,13.6L5.4,13.6z"/>
	<path class="st1" d="M5.7,3.4c-1.3,0-2.3,1-2.3,2.3S4.4,8,5.7,8S8,7,8,5.7S7,3.4,5.7,3.4z M5.7,6.8c-0.6,0-1.1-0.5-1.1-1.1
		s0.5-1.1,1.1-1.1s1.1,0.5,1.1,1.1S6.3,6.8,5.7,6.8z"/>
	<path class="st0" d="M12.8,13.6l0-0.3c0.1-1,0.4-2.3,0.6-2.9c0-0.1,0.1-0.2,0.1-0.3l0-0.1c0.2-0.4,0.3-0.6,0.5-0.8
		c0.3-0.3,0.6-0.4,1.1-0.5c0,0,0.1,0,0.2,0c0.2,0,0.5,0,0.7,0c0.2,0,4.9,1,5.2,1.1c0.5,0.1,0.9,0.5,0.9,1c0,0.3-0.1,0.5-0.3,0.7
		c-0.2,0.2-0.4,0.3-0.7,0.3c0,0,0,0-0.1,0c-0.2,0-0.6-0.1-1.8-0.3c-0.9-0.2-1.3-0.3-1.5-0.3l-0.1,0c0,0.1-0.1,0.3-0.3,0.7
		c-0.1,0.2-0.1,0.3-0.1,0.4c0,0.1-0.1,0.6-0.2,1.1l0,0.2L12.8,13.6L12.8,13.6z"/>
	<path class="st0" d="M16.6,7.6c-1.1,0-1.9-0.9-1.9-1.9s0.9-1.9,1.9-1.9s1.9,0.9,1.9,1.9S17.6,7.6,16.6,7.6z"/>
	<path class="st1" d="M16.3,13.6l0-0.3c0.1-0.5,0.1-1.1,0.2-1.3c0-0.1,0.1-0.3,0.1-0.4c0.3-0.8,0.4-1.2,0.9-1.2c0,0,0.1,0,0.1,0
		c0.1,0,0.3,0,1.8,0.4c0.7,0.1,1.6,0.3,1.7,0.3l0,0c0.1,0,0.1,0,0.2,0c0,0,0.1-0.1,0.1-0.1c0-0.1-0.2-0.2-0.3-0.2
		c-0.3-0.1-4.9-1.1-5.2-1.1c-0.1,0-0.3,0-0.5,0c0,0,0,0-0.1,0c-0.3,0-0.4,0.1-0.6,0.3c-0.1,0.1-0.2,0.3-0.3,0.6l0,0.1
		c0,0.1-0.1,0.2-0.1,0.3c-0.3,0.7-0.5,2.1-0.6,2.6l0,0.2h-1.2l0-0.3c0.1-0.6,0.3-2.1,0.6-3c0-0.1,0.1-0.2,0.1-0.3l0.1-0.2
		c0.2-0.4,0.3-0.7,0.6-0.9c0.3-0.4,0.7-0.5,1.3-0.6c0,0,0.1,0,0.2,0c0.2,0,0.6,0,0.7,0c0.2,0,4.9,1.1,5.3,1.1
		c0.7,0.2,1.1,0.7,1.1,1.4c0,0.4-0.1,0.7-0.4,1c-0.3,0.3-0.6,0.4-1,0.4c0,0-0.1,0-0.1,0l0,0c-0.1,0-0.4,0-1.8-0.3
		c-0.8-0.2-1.1-0.2-1.2-0.3c0,0.1-0.1,0.2-0.1,0.4c-0.1,0.2-0.1,0.3-0.2,0.4c0,0.1-0.1,0.6-0.1,1l0,0.2
		C17.5,13.6,16.3,13.6,16.3,13.6z"/>
	<path class="st1" d="M16.6,3.4c-1.3,0-2.3,1-2.3,2.3s1,2.3,2.3,2.3s2.3-1,2.3-2.3S17.8,3.4,16.6,3.4z M16.6,6.8
		c-0.6,0-1.1-0.5-1.1-1.1s0.5-1.1,1.1-1.1c0.6,0,1.1,0.5,1.1,1.1S17.2,6.8,16.6,6.8z"/>
	<path class="st0" d="M1.6,17.7c0.1,0.1,0.1,0.3,0.2,0.4C2,18.1,2.1,18,2.2,18c0.1,0,0.3-0.1,0.5-0.1c0.2,0,0.8,0,1.1,0.2
		c0.4,0.2,0.8,0.5,1.2,1.1c0.4,0.5,0.5,0.5,0.6,0.5c0.1,0,0.1,0,0.1,0c0.1,0,0.2-0.1,0.5-0.5c0.4-0.4,0.4-0.5,0.5-0.6l0,0l0.1,0
		c0,0,0,0,0.1-0.1c0.5-0.4,0.9-0.5,1.4-0.5l0.1,0c0.4,0,0.7,0,1.1,0.3c0.4,0.2,0.8,0.6,1.1,1c0.4,0.5,0.6,0.6,0.7,0.6
		c0.1,0,0.2,0,0.6-0.5c0.5-0.6,1.1-1.3,2.2-1.3c0.4,0,0.7,0,1.1,0.3c0.4,0.2,0.7,0.6,1.1,1c0.2,0.3,0.4,0.4,0.5,0.5c0,0,0.1,0,0.1,0
		c0.1,0,0.1,0,0.1,0c0.1-0.1,0.3-0.2,0.5-0.5c0.5-0.6,1.1-1.2,2.2-1.2l0,0c0.4,0,0.7,0,1.1,0.3c0.4,0.2,0.7,0.5,1,0.9
		c0.2,0.2,0.3,0.3,0.4,0.4c0.1,0,0.1,0.1,0.2,0.1c0.1-0.2,0.2-0.4,0.2-0.6c0.2-0.7,0.4-1.5,0.5-2.2c0-0.3,0.1-1,0-1.2l0-0.1H0.8
		c0,0.2,0.1,0.6,0.2,0.7C1.1,16.7,1.3,17.2,1.6,17.7z"/>
	<path class="st2" d="M22.4,19.5c-0.1,0-0.2-0.1-0.3-0.1c-0.2-0.1-0.2-0.1-0.4-0.3L21.6,19l0.1-0.1c0.1-0.1,0.1-0.2,0.1-0.3
		c0.1-0.2,0.1-0.4,0.2-0.6c0.2-0.5,0.4-1,0.4-1.5c0-0.1,0-0.1,0-0.2c0-0.1,0.1-0.3,0.1-0.4h-21c0.1,0.4,0.3,0.9,0.6,1.3
		c0.1,0.2,0.2,0.3,0.3,0.4l0.1,0.2l-0.3,0.1l0,0C2,18,1.8,18.1,1.7,18.2l-0.2,0.1l-0.1-0.2c-0.1-0.2-0.2-0.3-0.2-0.4
		c-0.3-0.5-0.5-1.1-0.7-1.6c-0.1-0.2-0.2-0.6-0.2-0.8l-0.1-0.7h23.6l0.1,0.6c0,0.2,0,0.9-0.1,1.4c-0.1,0.5-0.3,1.1-0.5,1.7
		c-0.1,0.2-0.1,0.4-0.2,0.6c0,0.1-0.1,0.3-0.2,0.5l-0.1,0.2L22.4,19.5z"/>
	<path class="st2" d="M9.2,15.5c-0.1,0-0.2,0-0.4-0.1c-0.4-0.2-0.5-0.6-0.3-1l0.7-1.2c0.2-0.4,0.6-0.5,1-0.3c0.4,0.2,0.5,0.6,0.3,1
		l-0.7,1.2C9.7,15.4,9.4,15.5,9.2,15.5z"/>
	<path class="st2" d="M20.1,15.5c-0.1,0-0.2,0-0.4-0.1c-0.4-0.2-0.5-0.6-0.3-1l0.7-1.2c0.2-0.4,0.6-0.5,1-0.3c0.4,0.2,0.5,0.6,0.3,1
		l-0.7,1.2C20.7,15.4,20.4,15.5,20.1,15.5z"/>
	<path class="st1" d="M11.3,22.3c-0.7,0-1.3-0.4-2-1.2c-0.2-0.2-0.5-0.5-0.6-0.6c-0.1,0-0.1,0-0.2,0l-0.1,0c-0.2,0-0.2,0-0.4,0.1
		c-0.1,0.1-0.1,0.1-0.2,0.1c-0.1,0.1-0.2,0.2-0.3,0.4c-0.6,0.8-1.1,1.1-2,1.1c-0.8,0-1.3-0.4-1.9-1.1c-0.4-0.5-0.6-0.6-0.7-0.7
		c0,0-0.2-0.1-0.4-0.1c-0.2,0.1-0.5,0.3-0.7,0.6c-0.1,0.1-0.3,0.3-0.4,0.4l-0.2,0.2l-0.8-0.9l0.2-0.2c0,0,0.1-0.1,0.3-0.3
		c0.4-0.5,0.9-0.8,1.3-1c0.1,0,0.2,0,0.3,0c0.3,0,0.7,0.1,0.9,0.2c0.3,0.2,0.7,0.5,1.1,1c0.5,0.6,0.7,0.7,1,0.7c0.3,0,0.5,0,1-0.7
		C6.8,20,6.9,19.9,7,19.8l0,0c0,0,0.1,0,0.2-0.1c0.4-0.3,0.7-0.4,1.1-0.4l0.1,0c0.3,0,0.5,0,0.8,0.2c0.3,0.2,0.7,0.5,1,0.9
		c0.6,0.7,0.9,0.8,1.1,0.8c0.2,0,0.5-0.1,1-0.7c0.6-0.7,1.1-1.1,1.9-1.1c0.3,0,0.6,0,0.9,0.2c0.3,0.2,0.7,0.5,1,0.9
		c0.2,0.3,0.5,0.5,0.7,0.6c0,0,0.1,0,0.3,0c0.2,0,0.3,0,0.3,0c0.2-0.1,0.4-0.3,0.7-0.7c0.5-0.7,1-1.1,1.8-1.1l0,0
		c0.4,0,0.6,0,0.8,0.2c0.3,0.2,0.6,0.5,0.9,0.8c0.2,0.3,0.3,0.4,0.6,0.5c0.2,0.1,0.6,0.3,0.8,0.3l0.2,0l-0.1,1.2l-0.2,0
		c-0.3,0-0.9-0.2-1.2-0.4c-0.4-0.2-0.6-0.4-1-0.8c-0.2-0.3-0.4-0.4-0.6-0.6c0,0-0.1,0-0.2,0l0,0c-0.2,0-0.4,0-0.9,0.6
		c-0.4,0.5-0.7,0.8-1.1,1c-0.3,0.2-0.7,0.2-0.9,0.2c-0.3,0-0.6,0-0.9-0.2c-0.3-0.2-0.7-0.5-1-0.9c-0.3-0.3-0.5-0.5-0.7-0.7
		c-0.1,0-0.1,0-0.2,0c-0.2,0-0.4,0-0.9,0.7C12.7,21.8,12.1,22.3,11.3,22.3L11.3,22.3C11.3,22.3,11.3,22.3,11.3,22.3z"/>
</g>
</svg>
