<?xml version="1.0" encoding="utf-8"?>
<!-- Generator: Adobe Illustrator 26.1.0, SVG Export Plug-In . SVG Version: 6.00 Build 0)  -->
<svg version="1.1" id="Layer_1" xmlns="http://www.w3.org/2000/svg" xmlns:xlink="http://www.w3.org/1999/xlink" x="0px" y="0px"
	 viewBox="0 0 24 24" style="enable-background:new 0 0 24 24;" xml:space="preserve">
<style type="text/css">
	.st0{fill:#7B7B7B;}
	.st1{fill:#6484C3;}
	.st2{fill:#6486C4;}
	.st3{opacity:0.5;fill:#FFFFFF;enable-background:new    ;}
</style>
<g id="icon">
	<path class="st0" d="M24,13.6c0-0.6-0.1-1.3-0.3-1.9c-0.5-2.2-1.6-4.2-3.2-6.1c-0.3-0.3-1-1-1.3-1.3c-2.4-2.2-5.5-3.7-8.5-4.3
		C10,0,9.8-0.1,9.5,0.2L9.3,0.4v0.3c0,0.1,0,0.1,3.2,9.3c0.8,2.3,1.6,4.5,2.2,6.2c1,3,1,3,1.2,3.1l0.1,0.1l0.2,0c0.1,0,0.1,0,0.2,0
		c0.2,0,0.4-0.2,1.4-0.9c0.6-0.4,1.5-1.1,2.5-1.7l3.8-2.7L24,13.6z M23.3,12.5c-0.1,0.1-0.3,0.2-0.4,0.2c-0.2,0-0.3-0.1-0.5-0.2
		c-1-1-2.4-1.5-4.2-1.5c-1.2,0-2.6,0.2-4.1,0.7c-0.1,0-0.1,0-0.2,0c-0.3,0-0.5-0.2-0.6-0.4c-0.1-0.2,0-0.3,0-0.5
		c0.1-0.2,0.2-0.3,0.4-0.3c1.7-0.5,3.2-0.7,4.5-0.7c2.1,0,3.9,0.6,5.1,1.9c0.1,0.1,0.2,0.3,0.2,0.4C23.5,12.3,23.4,12.4,23.3,12.5z"
		/>
	<path class="st1" d="M12.6,19.9c-0.2,0-0.4-0.1-0.6-0.2c-0.2-0.1-0.3-0.2-1.6-1.5L9,16.9H6.7c-2.3,0-2.4,0-2.6,0
		c-0.5-0.1-1-0.5-1.3-0.9c-0.1-0.2-1.8-4.2-1.9-4.4c-0.1-0.3-0.1-0.8,0-1.1C1.1,9.7,1.6,9.2,2.3,9l0.2-0.1l4.1,0l1.2-0.6
		C8.4,8,9.1,7.7,9.2,7.6c0.1,0,0.2,0,0.3,0c0.2,0,0.3,0,0.5,0.1c0.2,0.1,0.3,0.2,0.4,0.4c0.2,0.4,0.3,0.8,0.1,1.2
		c-0.2,0.3-0.2,0.3-1.7,1C8.1,10.6,7.4,11,7.3,11c-0.4,0.2-0.4,0.2-1.4,0.2c-0.3,0-0.5,0-0.6,0c0.1,0.3,0.3,0.8,0.6,1.3L6.5,14
		l1.8,0c1.6,0,1.6,0,1.9,0.2l0,0c0.1,0.1,0.6,0.5,2.8,2.7c0.7,0.7,0.8,0.8,0.9,1c0,0.1,0.1,0.3,0.1,0.3c0.1,0.6-0.2,1.3-0.7,1.5
		C13,19.8,12.8,19.9,12.6,19.9z M2.2,8.2c-0.9,0-1.6-0.6-1.9-1.5c-0.1-0.2-0.1-0.7,0-1C0.5,5,1,4.5,1.7,4.3c0.1,0,0.2-0.1,0.4-0.1
		c0,0,0.1,0,0.1,0c0.2,0,0.3,0,0.5,0.1c0.5,0.2,0.9,0.5,1.1,1c0.2,0.5,0.3,1,0.1,1.6C3.7,7.7,3,8.2,2.2,8.2z"/>
	<path class="st2" d="M11.4,24c-0.8,0-1.4-0.4-2.1-1.3c-0.2-0.3-0.5-0.5-0.7-0.6c-0.1,0-0.1,0-0.3,0l-0.1,0c-0.2,0-0.2,0-0.4,0.2
		c-0.1,0.1-0.2,0.1-0.2,0.1c-0.1,0.1-0.2,0.2-0.3,0.4l0,0c-0.6,0.8-1.1,1.2-2,1.2c-0.9,0-1.4-0.4-2-1.2c-0.4-0.5-0.6-0.6-0.7-0.7
		c-0.1,0-0.3-0.1-0.4-0.1c-0.2,0.1-0.5,0.3-0.8,0.6C1.3,22.8,1.1,23,1,23.2l-0.2,0.2L0,22.4l0.2-0.2c0,0,0.1-0.1,0.3-0.3
		c0.4-0.5,0.9-0.9,1.4-1c0.1,0,0.2,0,0.3,0c0.3,0,0.7,0.1,1,0.2c0.3,0.2,0.7,0.5,1.1,1c0.5,0.6,0.7,0.7,1.1,0.7c0.3,0,0.5,0,1.1-0.7
		c0.4-0.4,0.4-0.5,0.5-0.6l0.1,0c0,0,0.1,0,0.2-0.1c0.4-0.3,0.7-0.4,1.2-0.4l0.1,0c0.3,0,0.6,0,0.9,0.2c0.3,0.2,0.7,0.5,1,0.9
		c0.6,0.7,0.9,0.8,1.1,0.8c0.2,0,0.5-0.1,1-0.8c0.6-0.8,1.1-1.2,1.9-1.2c0.4,0,0.6,0,0.9,0.2c0.3,0.2,0.7,0.5,1.1,1
		c0.3,0.3,0.5,0.5,0.7,0.7c0,0,0.1,0,0.3,0c0.2,0,0.3,0,0.3,0c0.2-0.1,0.4-0.3,0.8-0.7c0.6-0.7,1.1-1.1,1.9-1.1l0,0
		c0.4,0,0.6,0,0.9,0.2c0.3,0.2,0.6,0.5,1,0.9c0.2,0.3,0.4,0.4,0.6,0.5c0.3,0.1,0.7,0.3,0.8,0.3l0.2,0L23.8,24l-0.2,0
		c-0.3,0-0.9-0.2-1.3-0.4c-0.4-0.2-0.6-0.4-1-0.8c-0.2-0.3-0.4-0.5-0.6-0.6c0,0-0.1,0-0.3,0l0,0c-0.2,0-0.4,0-0.9,0.6
		c-0.4,0.6-0.8,0.9-1.1,1.1C18,23.9,17.6,24,17.4,24c-0.3,0-0.7,0-1-0.2c-0.4-0.2-0.7-0.5-1.1-1c-0.3-0.3-0.5-0.6-0.7-0.7
		c-0.1,0-0.1,0-0.3,0c-0.2,0-0.4,0-1,0.7C12.8,23.5,12.2,24,11.4,24L11.4,24L11.4,24L11.4,24z"/>
	<path class="st3" d="M22.8,12.7c-0.2,0-0.3-0.1-0.5-0.2c-1-1-2.4-1.5-4.2-1.5c-1.2,0-2.6,0.2-4.1,0.7c-0.1,0-0.1,0-0.2,0
		c-0.3,0-0.5-0.2-0.6-0.4c-0.1-0.2,0-0.3,0-0.5c0.1-0.2,0.2-0.3,0.4-0.3c1.7-0.5,3.2-0.7,4.5-0.7c2.1,0,3.9,0.6,5.1,1.9
		c0.1,0.1,0.2,0.3,0.2,0.4c0,0.2-0.1,0.3-0.2,0.4C23.1,12.6,23,12.7,22.8,12.7z"/>
</g>
</svg>
