<?xml version="1.0" encoding="utf-8"?>
<!-- Generator: Adobe Illustrator 26.1.0, SVG Export Plug-In . SVG Version: 6.00 Build 0)  -->
<svg version="1.1" id="Layer_1" xmlns="http://www.w3.org/2000/svg" xmlns:xlink="http://www.w3.org/1999/xlink" x="0px" y="0px"
	 viewBox="0 0 24 24" style="enable-background:new 0 0 24 24;" xml:space="preserve">
<style type="text/css">
	.st0{opacity:0.5;fill:#FFFFFF;enable-background:new    ;}
	.st1{fill:#7D7C7B;}
	.st2{fill:#6E6F72;}
	.st3{fill:#6486C4;}
</style>
<g id="icon">
	<path class="st0" d="M5.6,9.8l0-1.4c0-1.8,0-1.7,0.1-1.8l0,0c0.2-0.7,0.8-1.3,1.5-1.4c0.1,0,0.2,0,0.4,0c0.8,0,1.4,0.4,1.8,1.1
		l0,0.1c0.1,0.2,0.1,0.2,0.1,0.6c0,0.1,0,2.6,0,2.8v0.1C9.5,9.8,5.6,9.8,5.6,9.8z"/>
	<path class="st0" d="M7.6,4.1C7.2,4.1,6.8,4,6.4,3.7C5.8,3.3,5.6,2.5,5.7,1.8c0.2-0.7,0.7-1.2,1.5-1.4c0.1,0,0.2,0,0.4,0
		c0.3,0,0.6,0.1,0.8,0.2C8.8,0.7,9.1,1,9.3,1.3c0.2,0.3,0.3,0.7,0.2,1.1C9.5,3.3,8.8,4,7.9,4.1C7.8,4.1,7.7,4.1,7.6,4.1z"/>
	<path class="st0" d="M23,8.3c-0.1-0.1-0.5-0.3-1.7-1.1c-0.9-0.5-1.6-1-1.6-1s0-0.3,0.1-0.7c0,0,0-0.1,0-0.1c0-0.2-0.2-0.4-0.4-0.2
		c-0.5,0.5-1.3,1.3-2.6,2.6l-3,3.4c0,0-0.1,0.1-0.2,0.1l-5.1,0l-3.8,0c-0.5,0-1,0.4-1,1l0,1.6l0,1.9c0,0,0,0.1,0,0.1l-0.3,0.6
		L3.1,17c0,0,0,0.1,0,0.1v2.6c0,2.3,0,2.7,0,2.8c0.1,0.5,0.8,0.8,1.3,0.7c0.3-0.1,0.7-0.3,0.8-0.5l0-0.1c0,0,0-0.1,0-0.1l0-2.4
		l0-2.3c0,0,0-0.1,0-0.1L5.8,17l0-0.1c0.1-0.2,0.4-0.1,0.4,0.1l0,0l0,0.7c0,0,0,0.1,0,0.1l1.1,2.4c0.8,1.8,1.1,2.5,1.2,2.6
		c0,0.1,0.1,0.1,0.2,0.2c0.6,0.4,1.6,0.1,1.7-0.6c0-0.2,0-0.4-0.1-0.6c-0.1-0.2-1.9-4.2-1.9-4.3c0-0.1,0,0,0.4-0.7l0.2-0.2
		c0-0.1,0.1-0.1,0.2-0.1l2.1,0h2.5c0.1,0,0.2,0.1,0.2,0.2l0,2.5l0,3.2c0,0,0,0.1,0,0.1l0.1,0.1c0.4,0.7,1.5,0.7,1.9,0l0.1-0.1
		c0,0,0-0.1,0-0.1l0-3.1l0-3.1c0,0,0-0.1,0-0.1l1-2c0.6-1.1,1.1-2.1,1.2-2.2l0.1-0.2c0,0,0.4-0.8,0.7-1.4c0.4-0.8,0.5-0.9,0.5-0.9
		c0,0,0.4,0.1,0.8,0.1l0.8,0.1l0.9,0.1c0,0,0,0,0,0c0.2,0,0.4,0,0.6-0.1C23.4,9.6,23.5,8.8,23,8.3z"/>
	<path class="st1" d="M4.1,24c-0.3,0-0.6-0.1-0.9-0.2c-0.4-0.2-0.7-0.6-0.9-1c0-0.2-0.1-0.3-0.1-3v-2.6c0-0.2,0.1-0.4,0.2-0.5
		l0.4-0.5l0.2-0.5l0-3.3c0-0.9,0.7-1.7,1.6-1.7l8.7,0l2.9-3.3c1.3-1.3,2.1-2.2,2.6-2.6c0.3-0.3,0.7-0.3,1-0.2s0.6,0.5,0.5,0.9l0,0.1
		c0,0.1,0,0.2,0,0.3c0.3,0.2,0.8,0.5,1.2,0.8c1.4,0.9,1.7,1.1,1.8,1.2l0,0C23.9,8.2,24,8.7,24,9.2c-0.1,0.5-0.4,1-0.9,1.2
		c-0.3,0.2-0.6,0.2-0.9,0.2c0,0-0.1,0-0.1,0l-0.9-0.1l-0.8-0.1c-0.1,0-0.2,0-0.4-0.1c-0.1,0.1-0.2,0.3-0.2,0.4
		c-0.3,0.6-0.7,1.4-0.7,1.4L19,12.3c0,0-0.2,0.4-1.1,2.2l-0.9,1.9l0,6.1c0,0.1,0,0.3-0.1,0.4L16.8,23c-0.3,0.6-0.9,1-1.6,1
		c0,0,0,0,0,0c-0.7,0-1.3-0.4-1.5-0.9l-0.1-0.1c-0.1-0.1-0.1-0.3-0.1-0.4l0-5.3l-4,0l0,0c-0.1,0.2-0.2,0.3-0.2,0.4
		c0.4,0.9,1.7,3.8,1.8,4c0.2,0.3,0.2,0.7,0.2,1c-0.1,0.5-0.5,1-1,1.2C9.6,24,8.9,24,8.4,23.7c-0.1-0.1-0.3-0.2-0.4-0.3
		c-0.1-0.1-0.1-0.2-1.3-2.7l-0.8-1.8l0,3.7c0,0.1,0,0.3-0.1,0.4l0,0.1c-0.3,0.6-1.1,0.9-1.3,0.9C4.4,24,4.3,24,4.1,24z M3.7,22.4
		c0,0,0.1,0.1,0.2,0.1c0.1,0.1,0.2,0.1,0.3,0c0.2,0,0.3-0.1,0.4-0.2l0-4.6c0-0.2,0.1-0.4,0.2-0.5l0.5-0.7c0.2-0.3,0.6-0.5,1-0.4
		c0.4,0.1,0.7,0.5,0.7,0.9l0,0.6L8,20.1c0.3,0.7,1,2.1,1.1,2.4c0,0,0,0,0,0c0.1,0.1,0.3,0.1,0.5,0c0,0,0.2-0.1,0.2-0.2
		c0,0,0-0.1,0-0.2c0,0-1.9-4.2-1.9-4.3c-0.1-0.4,0-0.6,0.1-0.8c0.1-0.1,0.2-0.2,0.3-0.5l0.2-0.2c0.2-0.3,0.5-0.4,0.8-0.4l4.6,0
		c0.5,0,0.9,0.4,0.9,0.9l0,5.6l0,0c0.1,0.2,0.3,0.2,0.3,0.2c0.1,0,0.3-0.1,0.4-0.2l0,0l0-6.1c0-0.1,0-0.3,0.1-0.4l1-2
		c1.1-2.1,1.1-2.2,1.2-2.2l0.1-0.2c0,0,0.4-0.8,0.7-1.4c0.2-0.4,0.3-0.6,0.4-0.7c0.2-0.4,0.5-0.5,0.8-0.5c0.1,0,0.4,0.1,0.8,0.1
		l0.8,0.1l0.9,0.1c0.1,0,0.1,0,0.2,0c0.1-0.1,0.2-0.2,0.2-0.2c0-0.1,0-0.2-0.1-0.2c-0.1-0.1-0.8-0.5-1.6-1l-1.1-0.7
		c-0.5-0.3-0.7-0.4-0.7-0.6c-0.5,0.5-1,1.1-1.8,1.8l-3,3.5c-0.2,0.2-0.4,0.3-0.7,0.3l-8.9,0c-0.2,0-0.3,0.1-0.3,0.3l0,1.6l0,1.9
		c0,0.2,0,0.3-0.1,0.5L4,16.8l-0.3,0.5v2.5C3.7,21.3,3.7,22.2,3.7,22.4z M15.6,22.3C15.6,22.3,15.6,22.3,15.6,22.3L15.6,22.3z
		 M6.9,17.6L6.9,17.6C6.9,17.6,6.9,17.6,6.9,17.6z M9.7,17L9.7,17C9.6,17,9.7,17,9.7,17z M19.6,10.2C19.6,10.2,19.6,10.2,19.6,10.2
		L19.6,10.2z M19.5,10.2C19.6,10.2,19.6,10.2,19.5,10.2L19.5,10.2z M22.3,9.3L22.3,9.3C22.3,9.3,22.3,9.3,22.3,9.3z"/>
	<path class="st2" d="M1.5,17.3H0.1v-3.5c0-1.4,1.1-2.5,2.5-2.5h1.2v1.4H2.6c-0.6,0-1.1,0.5-1.1,1.1V17.3z"/>
	<path class="st3" d="M9.6,1.2C9.4,0.8,9,0.4,8.6,0.2C8.3,0.1,7.9,0,7.6,0c-0.2,0-0.3,0-0.5,0C6.3,0.2,5.6,0.9,5.4,1.7
		C5.2,2.6,5.5,3.5,6.2,4c0.4,0.3,0.9,0.5,1.4,0.5c0.1,0,0.2,0,0.3,0c1.1-0.1,1.9-1,2-2.1C10,2,9.8,1.5,9.6,1.2z M7.7,3.2
		c0,0-0.1,0-0.1,0C7.4,3.2,7.2,3.1,7,3C6.7,2.8,6.5,2.4,6.6,2C6.7,1.7,7,1.4,7.4,1.3c0,0,0.1,0,0.2,0c0.2,0,0.4,0,0.4,0.1
		c0.2,0.1,0.4,0.3,0.5,0.4c0.1,0.1,0.1,0.4,0.1,0.5C8.6,2.8,8.2,3.2,7.7,3.2z"/>
	<path class="st3" d="M9.9,9.8H8.6l0-1.4c0-1.1,0-1.6,0-1.7l0,0.1C8.5,6.4,8.1,6.1,7.8,6C7.7,6,7.6,6,7.6,6C7.5,6,7.5,6,7.4,6
		C7,6.1,6.7,6.4,6.6,6.7l0-0.1c0,0.1,0,0.6,0,1.7l0,1.4H5.3l0-1.4c0-1.8,0-1.7,0.1-1.9l0,0c0.2-0.8,0.9-1.5,1.8-1.7
		c0.1,0,0.2,0,0.4,0v0c0,0,0,0,0,0c0,0,0,0,0,0c0,0,0,0,0,0c0,0,0,0,0,0v0c0.1,0,0.2,0,0.4,0c0.9,0.2,1.6,0.8,1.8,1.7l0,0
		c0.1,0.2,0.1,0.1,0.1,1.9L9.9,9.8z"/>
	<path class="st3" d="M12.3,9.5c-0.1,0-0.3,0-0.4-0.1l-3-1.9c-0.3-0.2-0.4-0.7-0.2-1c0.2-0.3,0.7-0.4,1-0.2l3,1.9
		c0.3,0.2,0.4,0.7,0.2,1C12.8,9.3,12.5,9.5,12.3,9.5z"/>
</g>
</svg>
