<?xml version="1.0" encoding="utf-8"?>
<!-- Generator: Adobe Illustrator 26.1.0, SVG Export Plug-In . SVG Version: 6.00 Build 0)  -->
<svg version="1.1" id="Layer_1" xmlns="http://www.w3.org/2000/svg" xmlns:xlink="http://www.w3.org/1999/xlink" x="0px" y="0px"
	 viewBox="0 0 24 24" style="enable-background:new 0 0 24 24;" xml:space="preserve">
<style type="text/css">
	.st0{fill:#6484C3;}
	.st1{fill:#7B7B7B;}
	.st2{fill:#6486C4;}
</style>
<g id="icon">
	<path class="st0" d="M4,14.1c-0.1-0.3-0.2-0.6-0.3-1c0-0.1-0.2-1.6-0.4-2.9C3.1,8,3.1,7.9,3.1,7.7c0,0,0,0,0-0.1
		c0.1-1.1,0.9-2,2-2.2c0.1,0,0.2,0,0.3,0c0.1,0,0.1,0,0.2,0c0.6,0.1,1,0.3,1.4,0.7c0.3,0.3,0.5,0.7,0.6,1.1c0,0,0,0.1,0,0.1
		c0,0.1,0,0.3,0.1,0.8l0.1,1c0,0,0.1,0,0.2,0c0.2,0,0.3,0,0.5,0l0,0C9.6,9.1,10,9,10.2,9c0.2,0,0.3,0,0.4,0.1
		c0.2,0.1,0.4,0.3,0.5,0.5c0.1,0.2,0.1,0.4,0.1,0.6c0,0.5-0.3,0.8-0.8,1c-0.1,0-0.3,0.1-1.7,0.2c-0.2,0-0.3,0-0.4,0
		c-0.1,0-0.1,0-0.2,0c0,0,0,0,0,0c0,0,0,0,0,0l0,0c0,0.1,0,0.4,0.1,0.6c0,0.2,0.1,0.4,0.1,0.5c0.1,0.1,0.5,0.3,0.9,0.5l0.8,0.4
		l-0.9,0.1c-1.1,0.2-1.7,0.2-1.8,0.3l0,0c-0.1,0-0.5,0.1-2.1,0.3c-0.3,0-1.1,0.2-1.1,0.2L4,14.1z M5.8,4.7c-0.2,0-0.4,0-0.5-0.1
		C4.9,4.6,4.5,4.4,4.2,4.1C3.6,3.4,3.4,2.6,3.7,1.8c0.3-0.8,0.9-1.4,1.8-1.6c0.1,0,0.2,0,0.3,0c0.2,0,0.5,0,0.6,0.1
		c0.5,0.1,1,0.5,1.3,0.9c0.4,0.6,0.5,1.4,0.2,2.1C7.6,4,7.1,4.5,6.4,4.7C6.2,4.7,6,4.7,5.8,4.7z"/>
	<path class="st1" d="M23.6,15.6c-0.1,0-0.1-0.1-3.9-2.3l-3.6-2.1L15.3,10c-1-1.5-1.1-1.5-1.2-1.6c-0.2-0.1-0.5-0.2-0.7-0.2
		c-0.1,0-0.3,0-0.4,0.1l0,0c-0.1,0-0.2,0.1-0.3,0.2C12.2,8.7,12,9.5,12.3,10l0,0c0.1,0.1,0.4,0.7,0.8,1.2l0.5,0.7l0,0
		c-0.1,0.1-0.2,0.5-0.4,1l-0.4,1.3l-2.5,0.4C8.6,14.9,7.5,15,7.4,15l0,0c-0.1,0-0.5,0.1-2.1,0.3c-0.5,0.1-1,0.1-1.4,0.2
		c-0.8,0.1-0.8,0.1-1,0.3c-0.1,0.1-0.1,0.1-0.7,1.6c-0.3,0.6-0.7,1.7-0.8,2l-0.2,0.5l0.5-0.2c0,0,0,0,0.1,0c0.1,0,1-0.3,1-0.3
		c0.2,0,0.5,0.1,0.7,0.2c0.4,0.2,0.8,0.6,1.3,1.1c0.4,0.5,0.5,0.5,0.6,0.5c0.1,0,0.1,0,0.2,0c0.1,0,0.2-0.2,0.5-0.5
		c0.4-0.5,0.4-0.5,0.6-0.7l0,0L6.7,20c0,0,0.1,0,0.1-0.1c0.5-0.4,0.9-0.5,1.5-0.5l0.1,0c0.4,0,0.7,0,1.1,0.3c0.4,0.2,0.8,0.6,1.2,1
		c0.5,0.6,0.6,0.6,0.7,0.6c0.1,0,0.2,0,0.6-0.6c0.6-0.7,1.2-1.4,2.4-1.4c0.4,0,0.7,0,1.1,0.3c0,0,0.6,0.7,0.8,1l0.1,0.1l1.5-0.5
		c2.6-0.9,4.8-1.9,5.6-2.7c0.3-0.3,0.4-0.6,0.5-1C24,16.2,23.9,15.8,23.6,15.6z"/>
	<path class="st2" d="M11.4,24c-0.8,0-1.4-0.4-2.1-1.3c-0.2-0.3-0.5-0.5-0.7-0.6c0,0-0.1,0-0.2,0l-0.1,0c-0.2,0-0.2,0-0.4,0.1
		c-0.1,0.1-0.2,0.1-0.2,0.1c-0.1,0.1-0.2,0.2-0.3,0.4l0,0c-0.7,0.8-1.1,1.2-2,1.2c-0.9,0-1.4-0.4-2-1.2c-0.4-0.5-0.6-0.6-0.7-0.7
		c-0.1,0-0.2-0.1-0.4-0.1c-0.2,0.1-0.5,0.3-0.7,0.6C1.4,22.8,1.2,23,1,23.1l-0.2,0.2L0,22.3l0.2-0.2c0,0,0.1-0.1,0.3-0.3
		c0.5-0.5,0.9-0.9,1.4-1c0.1,0,0.2,0,0.3,0c0.3,0,0.7,0.1,1,0.2c0.3,0.2,0.7,0.5,1.1,1c0.5,0.6,0.7,0.7,1.1,0.7c0.3,0,0.5,0,1-0.7
		c0.4-0.4,0.4-0.5,0.5-0.6l0.1,0c0,0,0.1,0,0.2-0.1c0.4-0.3,0.7-0.4,1.2-0.4l0.1,0c0.3,0,0.6,0,0.9,0.2c0.3,0.2,0.7,0.5,1,0.9
		c0.6,0.7,0.9,0.8,1.1,0.8c0.2,0,0.5-0.1,1-0.7c0.6-0.8,1.1-1.2,1.9-1.2c0.4,0,0.6,0,0.9,0.2c0.3,0.2,0.7,0.5,1.1,1
		c0.3,0.3,0.5,0.5,0.7,0.7c0,0,0.1,0,0.3,0c0.2,0,0.3,0,0.3,0c0.2-0.1,0.4-0.3,0.8-0.7c0.6-0.7,1.1-1.1,1.9-1.1l0,0
		c0.4,0,0.6,0.1,0.9,0.2c0.3,0.2,0.6,0.5,1,0.9c0.2,0.3,0.4,0.4,0.6,0.5c0.3,0.1,0.7,0.3,0.8,0.3l0.2,0l-0.1,1.3l-0.2,0
		c-0.3,0-0.9-0.2-1.3-0.4c-0.4-0.2-0.6-0.4-1-0.8c-0.2-0.3-0.4-0.5-0.6-0.6c0,0-0.1,0-0.2,0l0,0c-0.2,0-0.4,0-0.9,0.6
		c-0.4,0.6-0.8,0.9-1.2,1.1c-0.3,0.2-0.7,0.2-0.9,0.2c-0.3,0-0.7,0-1-0.2c-0.4-0.2-0.7-0.5-1.1-1c-0.3-0.3-0.5-0.6-0.7-0.7
		c-0.1,0-0.1,0-0.2,0c-0.2,0-0.4,0-1,0.7C12.8,23.5,12.2,24,11.4,24L11.4,24L11.4,24L11.4,24z"/>
</g>
</svg>
