<?xml version="1.0" encoding="utf-8"?>
<!-- Generator: Adobe Illustrator 26.1.0, SVG Export Plug-In . SVG Version: 6.00 Build 0)  -->
<svg version="1.1" id="Layer_1" xmlns="http://www.w3.org/2000/svg" xmlns:xlink="http://www.w3.org/1999/xlink" x="0px" y="0px"
	 viewBox="0 0 24 24" style="enable-background:new 0 0 24 24;" xml:space="preserve">
<style type="text/css">
	.st0{opacity:0.5;fill:#FFFFFF;enable-background:new    ;}
	.st1{fill:#7D7C7B;}
	.st2{fill:#6486C4;}
</style>
<g id="icon">
	<path class="st0" d="M4.7,8.1C4,8.1,3.5,7.6,3.3,7c0-0.2,0-0.5,0-0.7c0.2-0.5,0.7-0.9,1.2-1c0,0,0,0,0.1,0c0,0,0.1,0,0.1,0
		c0.6,0,1.1,0.4,1.3,1c0.1,0.2,0.1,0.5,0,0.7C5.9,7.7,5.3,8.1,4.7,8.1L4.7,8.1z"/>
	<path class="st1" d="M4.7,8.7L4.7,8.7c-1,0-1.8-0.7-2-1.6c-0.1-0.3-0.1-0.7,0-1C3,5.3,3.7,4.8,4.5,4.7c0.1,0,0.2,0,0.3,0
		c0.9,0.1,1.6,0.6,1.8,1.5c0.1,0.3,0.1,0.8,0,1.1C6.4,8.1,5.6,8.7,4.7,8.7z M4.7,7.5L4.7,7.5c0.4,0,0.7-0.2,0.8-0.6
		c0-0.1,0-0.3,0-0.4C5.4,6.1,5.1,5.9,4.7,5.9c0,0-0.1,0-0.1,0l0,0C4.3,5.9,4,6.1,3.9,6.4c0,0.1,0,0.3,0,0.4C4,7.2,4.3,7.5,4.7,7.5z"
		/>
	<path class="st0" d="M6.4,3.3c0-0.2-0.1-0.2-0.1-0.5c0-0.3,0-0.3,0.1-0.5C6.6,1.4,7.2,0.9,8,0.7c0.1,0,0.2,0,0.4,0
		c0.2,0,0.4,0,0.5,0.1c0.7,0.2,1.2,0.7,1.4,1.3c0.1,0.3,0.1,0.4,0.1,0.7c0,0.3,0,0.3-0.1,0.5c-0.1,0.4-0.3,0.8-0.6,1
		C9.6,4.5,9.2,4.7,8.9,4.7c-0.2,0-0.2,0-0.5,0C8.1,4.8,8.1,5,8,5c-0.4-0.1-0.7-0.5-1-0.7C6.7,4,6.5,3.6,6.4,3.3z"/>
	<path class="st0" d="M19.9,21.1c-0.5-2.7-0.8-4.3-0.8-4.4c0-0.1-0.1-0.2-0.1-0.2l-0.1-0.2c0,0,0-0.1-0.1-0.2
		c-0.1-0.2-0.2-0.3-0.3-0.4c-0.1-0.1-0.4-0.3-0.6-0.5c-1.3-1-2.3-1.8-3-2.3l-0.2-0.1c-0.2-0.1-0.2-0.2-0.3-0.2c0,0-0.1-0.1-0.4-1.2
		c-0.4-1.4-1.2-3.5-1.3-4c-0.1-0.2-0.2-0.4-0.2-0.5c-0.2-0.4-0.6-0.7-0.9-0.8c-0.1,0-0.2,0-0.4-0.1c-0.1,0-0.1,0-0.2,0
		c-0.1,0-0.1,0-0.1,0c-0.3,0.1-0.5,0.1-0.9,0.3C9.6,6.6,9.3,6.7,9.1,6.9C8.9,7,8.8,7.1,8.4,7.5C8.4,7.5,7.9,8.1,7.3,8.9
		C7,9.3,6.7,9.6,6.6,9.9c-0.3,0.5-0.3,0.5-0.4,0.5h0l0,0c-0.1,0-0.1,0-0.4-0.6C5.6,9.7,5.6,9.6,5.6,9.6C5.3,9.7,5,9.7,4.7,9.7l0,0
		c-0.4,0-0.7-0.1-1-0.2c0,0,0,0.1,0,0.1c0,0.1,0.3,0.7,0.7,1.5c0.3,0.6,0.7,1.4,0.7,1.5c0.1,0.3,0.5,0.6,0.9,0.6c0,0,0,0,0.1,0
		c0.3,0,0.5-0.2,0.8-0.5c0,0,2.1-2.2,2.2-2.2l0,0h0c0.1,0,0.1,0,0.4,0.6c0.2,0.3,0.4,0.8,0.6,1.2c0.5,1,0.8,1.8,0.9,1.8
		c0.1,0.1,0.2,0.2,0.4,0.3c0.1,0,2,1,2.4,1.2c1.2,0.6,2.5,1.3,2.8,1.4l0.5,0.3l0.6,2.2c0.5,1.9,0.6,2.2,0.6,2.3
		c0,0.1,0.1,0.2,0.1,0.3c0.1,0.2,0.3,0.4,0.4,0.4c0.1,0.1,0.2,0.1,0.4,0.1l0,0c0.3,0,0.5-0.2,0.7-0.4C19.9,21.8,19.9,21.4,19.9,21.1
		z"/>
	<path class="st2" d="M19.1,23c-0.2,0-0.4-0.1-0.6-0.2c-0.2-0.1-0.5-0.5-0.7-0.7c-0.1-0.1-0.1-0.3-0.2-0.4c0,0,0-0.1-0.7-2.3
		l-0.5-1.9l-0.3-0.1c-0.3-0.1-1.5-0.8-2.8-1.4c-1.2-0.6-2.1-1.1-2.3-1.1c-0.3-0.1-0.6-0.3-0.7-0.5c-0.1-0.2-0.8-1.6-0.9-1.9
		c-0.2-0.4-0.4-0.8-0.5-1.1c-0.6,0.6-1.5,1.6-1.6,1.7c-0.4,0.4-0.8,0.6-1.2,0.7c0,0-0.1,0-0.1,0c-0.6,0-1.2-0.4-1.5-1
		c0-0.1-0.3-0.7-0.7-1.4C3.8,11.2,3.1,10,3.1,9.8C3,9.5,3,9.4,3,9.2l0-0.5L3.4,9c0.2,0.2,0.5,0.3,0.7,0.4l0.1,0l0.1,0.1
		c0.1,0.1,0.2,0.5,0.6,1.2c0.1,0.1,0.7,1.4,0.8,1.5c0,0.1,0.2,0.2,0.3,0.2c0.1,0,0.2,0,0.4-0.3c0,0,0.5-0.6,1.1-1.1
		c1.1-1.2,1.2-1.2,1.3-1.3l0.1-0.1h0.2c0.5,0,0.6,0.3,0.9,1c0.2,0.3,0.4,0.8,0.6,1.2c0.4,0.9,0.7,1.6,0.8,1.8c0,0,0,0,0,0
		c0.1,0,0.3,0.1,2.5,1.2c1.2,0.6,2.5,1.2,2.8,1.4l0.8,0.4l0.7,2.5c0.5,2,0.6,2.2,0.6,2.2c0,0,0.1,0.1,0.1,0.2c0,0.1,0.1,0.2,0.2,0.2
		c0,0,0,0,0,0c0,0,0.1,0,0.1-0.1c0-0.1,0.1-0.3,0-0.5c-0.6-3.1-0.8-4.3-0.8-4.4c0,0,0-0.1,0-0.1l-0.1-0.2c0,0-0.1-0.1-0.1-0.2
		c0,0,0-0.1-0.1-0.1c-0.2-0.1-0.6-0.5-0.7-0.5c-1.3-1-2.3-1.7-3-2.2l-0.2-0.1C14,13.3,14,13.2,14,13.2c-0.2-0.2-0.2-0.2-0.6-1.5
		c-0.4-1.3-1.1-3.5-1.3-4c-0.1-0.2-0.2-0.4-0.2-0.4c-0.1-0.3-0.3-0.5-0.6-0.5c-0.1,0-0.1,0-0.2,0c-0.1,0-0.1,0-0.1,0c0,0,0,0-0.1,0
		c-0.2,0-0.3,0.1-0.7,0.2C9.9,7.1,9.6,7.3,9.4,7.4C9.3,7.5,9.3,7.5,8.9,7.9c0,0-0.4,0.6-1.1,1.4c-0.3,0.4-0.5,0.7-0.7,1
		C6.6,10.8,6.5,11,6.1,11H6l-0.1,0c-0.3-0.1-0.3-0.2-0.7-0.8C5.1,10,5,9.9,5,9.8L4.8,9.5l0.4-0.1c0.2,0,0.4-0.1,0.6-0.2L6,9l0.2,0.3
		c0.2-0.2,0.4-0.5,0.6-0.8C7,8.3,7.8,7.2,8,7c0.4-0.4,0.5-0.5,0.7-0.7C9,6.2,9.3,6,9.6,5.9c0.5-0.2,0.6-0.3,1-0.3l0.1,0l0,0
		c0,0,0.1,0,0.2,0c0.1,0,0.1,0,0.2,0c0.2,0,0.4,0,0.6,0.1c0.5,0.2,1,0.6,1.3,1.1c0.1,0.1,0.2,0.4,0.3,0.6c0.2,0.5,0.9,2.7,1.3,4
		c0.2,0.5,0.3,0.8,0.3,0.9l0.3,0.2c0.8,0.5,1.8,1.2,3.1,2.3c0.3,0.2,0.5,0.4,0.6,0.4c0.3,0.2,0.4,0.4,0.6,0.6c0,0.1,0.1,0.2,0.1,0.2
		l0.1,0.2c0.1,0.1,0.1,0.2,0.1,0.3c0,0.1,0.3,1.6,0.8,4.5c0.1,0.4,0,0.9-0.1,1.3C20.1,22.7,19.7,23,19.1,23z"/>
	<path class="st2" d="M10.9,1.8c-0.3-0.8-1-1.5-1.9-1.7C8.9,0.1,8.6,0.1,8.4,0.1c-0.1,0-0.3,0-0.5,0c-1,0.2-1.8,0.9-2.1,2
		C5.7,2.3,5.7,2.4,5.7,2.7c0,0.4,0,0.4,0.1,0.7c0.1,0.5,0.4,0.9,0.7,1.3C6.9,5,7.2,5.2,7.7,5.4C8,5.4,8.1,5.4,8.4,5.4
		c0.3,0,0.4,0,0.7-0.1C9.5,5.2,9.9,5,10.2,4.7c0.3-0.3,0.6-0.8,0.8-1.3c0.1-0.2,0.1-0.4,0.1-0.6C11.1,2.4,11,2.2,10.9,1.8z M9.8,2.8
		c0,0.2,0,0.2,0,0.3C9.7,3.3,9.5,3.6,9.4,3.8C9.2,3.9,9,4.1,8.7,4.1c-0.1,0-0.1,0-0.3,0s-0.2,0-0.3,0C7.8,4.1,7.6,4,7.4,3.8
		C7.2,3.6,7.1,3.4,7,3.1C7,3,7,3,7,2.7c0-0.2,0-0.2,0-0.4c0.2-0.6,0.6-0.9,1.1-1.1c0,0,0.1,0,0.2,0c0.1,0,0.3,0,0.4,0
		c0.5,0.1,0.8,0.5,1,0.9C9.8,2.5,9.8,2.5,9.8,2.8z"/>
	<path class="st0" d="M12.6,5.1c0.5-0.3,1.1-0.6,1.7-1c0.5-0.3,1.5-0.9,2.2-1.3c0.7-0.4,1.2-0.7,1.3-0.7C17.8,2,17.9,2,18,2
		c0.1,0,0.1,0,0.2,0c0.1,0,0.2,0,0.3,0.1c0.2,0.1,0.4,0.4,0.4,0.6c0,0.3-0.1,0.6-0.4,0.8c-0.6,0.4-2.3,1.7-2.4,1.8
		c-0.1,0.1-0.3,0.2-0.5,0.4c-0.6,0.5-1.2,0.9-1.6,1.1c-0.1-0.2-0.1-0.3-0.2-0.4C13.4,5.8,13,5.3,12.6,5.1z"/>
	<path class="st0" d="M13,16.9c-1-0.5-1.7-0.9-2.1-1c0,0.1,0,0.1,0,0.2c-0.1,0.4-0.4,1.6-0.5,2.1c-0.2,0.9-0.3,0.9-0.3,1
		c0,0-0.3,0.3-1.4,1.3c-0.8,0.8-1.4,1.3-1.5,1.3C7.1,21.8,7,22,6.9,22.2c-0.1,0.2-0.1,0.4,0,0.5C7,23,7.3,23.2,7.6,23.2
		c0.2,0,0.6-0.1,0.8-0.3c0.2-0.1,3.4-2.8,3.6-3c0.2-0.2,0.3-0.4,0.4-0.6c0-0.1,0.1-0.2,0.1-0.3c0-0.1,0.1-0.3,0.1-0.4
		c0-0.1,0.3-0.8,0.4-1.2c0-0.1,0.1-0.3,0.1-0.4C13.1,16.9,13,16.9,13,16.9z"/>
	<path class="st2" d="M11.9,4.7c0.4-0.3,1-0.6,1.8-1l0.3-0.2c0.5-0.3,1.5-0.9,2.2-1.3c0.3-0.2,1.2-0.7,1.4-0.8l0,0
		c0.1,0,0.2-0.1,0.3-0.1c0.1,0,0.2,0,0.3,0c0.2,0,0.4,0,0.6,0.1c0.4,0.2,0.7,0.6,0.8,1.1c0.1,0.5-0.2,1.1-0.6,1.4
		c-0.5,0.4-2.3,1.7-2.5,1.8c0,0-0.2,0.2-0.5,0.3c-0.6,0.5-1.2,0.9-1.8,1.2c0-0.1-0.1-0.3-0.1-0.3c-0.1-0.2-0.2-0.5-0.3-0.7
		c0,0-0.1-0.1-0.1-0.1c0.4-0.2,0.9-0.6,1.5-1.1c0,0,0.4-0.3,0.6-0.4c0.1-0.1,1.8-1.3,2.4-1.7c0.1-0.1,0.2-0.2,0.2-0.2
		c0-0.1-0.1-0.1-0.1-0.2c0,0,0,0-0.1,0c0,0,0,0-0.1,0c0,0-0.1,0-0.1,0c-0.1,0.1-0.5,0.3-1.2,0.7c-0.7,0.4-1.7,1-2.2,1.3l-0.3,0.2
		c-0.4,0.2-0.8,0.5-1.2,0.7C12.8,5.1,12.4,4.9,11.9,4.7C11.9,4.7,11.9,4.7,11.9,4.7z"/>
	<path class="st2" d="M13,16.9c-0.2-0.1-0.3-0.2-0.4-0.2c-0.1,0.2-0.1,0.4-0.2,0.5c-0.4,1.1-0.4,1.3-0.4,1.3c0,0.1-0.1,0.2-0.1,0.3
		c-0.1,0.1-0.1,0.4-0.1,0.4c0,0.1-0.1,0.2-0.2,0.3c-0.3,0.2-3.3,2.8-3.5,2.9c-0.2,0.1-0.4,0.2-0.5,0.2c0,0-0.1,0-0.1-0.1
		c0,0,0-0.1,0-0.1c0-0.1,0.1-0.2,0.2-0.3c0.1-0.1,0.6-0.6,1.4-1.3c1.2-1.1,1.4-1.3,1.4-1.3c0.2-0.2,0.2-0.3,0.5-1.3
		c0.1-0.5,0.4-1.7,0.5-2.1c0,0,0,0,0,0c-0.4-0.2-0.6-0.3-0.7-0.4c-0.1-0.1-0.3-0.1-0.4-0.2c0,0.1,0,0.2-0.1,0.3
		c-0.1,0.4-0.3,1.5-0.5,2.1c-0.1,0.4-0.2,0.6-0.2,0.7c-0.2,0.2-0.6,0.6-1.3,1.2c-0.1,0.1-1.4,1.2-1.5,1.4l0,0
		c-0.2,0.2-0.3,0.5-0.4,0.7c-0.1,0.2-0.1,0.6-0.1,0.9c0.2,0.6,0.7,1,1.3,1c0.4,0,0.8-0.2,1.2-0.4c0.2-0.2,3.5-2.8,3.6-3l0,0
		c0.3-0.3,0.4-0.6,0.5-0.9c0-0.1,0-0.2,0-0.2l0,0c0-0.1,0.1-0.3,0.2-0.6c0-0.1,0.2-0.6,0.4-1.1c0-0.1,0.1-0.2,0.1-0.3
		C13.5,17.1,13.2,17,13,16.9z"/>
</g>
</svg>
