<?xml version="1.0" encoding="utf-8"?>
<!-- Generator: Adobe Illustrator 26.1.0, SVG Export Plug-In . SVG Version: 6.00 Build 0)  -->
<svg version="1.1" id="Layer_1" xmlns="http://www.w3.org/2000/svg" xmlns:xlink="http://www.w3.org/1999/xlink" x="0px" y="0px"
	 viewBox="0 0 24 24" style="enable-background:new 0 0 24 24;" xml:space="preserve">
<style type="text/css">
	.st0{fill:#6E6F72;}
	.st1{opacity:0.5;fill:#FFFFFF;enable-background:new    ;}
	.st2{fill:#6486C4;}
</style>
<g id="icon">
	<path class="st0" d="M0,22.5V24h12h12v-1.5v0H12L0,22.5L0,22.5z"/>
	<path class="st1" d="M20.1,19.8c-0.2,0-0.4,0-0.5-0.1c-0.1,0-0.8-0.4-1.8-1c-1-0.5-1.8-1-2-1c-0.1-0.1-1.2-0.5-2.2-1
		c-1.1-0.5-2-0.9-2.1-0.9c-0.1,0-0.2-0.1-0.2-0.1c-0.4-0.1-0.9-0.6-1.1-1.1C10,14.2,10,14.1,10,13.7c0-0.3,0-0.4,0-0.5
		c0.1-0.4,0.3-0.6,0.6-0.8c0.3-0.2,0.6-0.5,0.7-0.7c0.2-0.3,0.4-0.8,0.6-1.3c0-0.1,0.1-0.3,0.1-0.5c0.1-0.3,0.1-0.4,0-0.4l0,0
		c0,0-2.8-2.1-2.8-2.1C9.1,7.2,9,7.1,8.9,7C8.8,6.9,8.2,6.3,7.5,5.6c-1-1-1.2-1.3-1.2-1.3C6.1,3.9,6.1,3.5,6.4,3.2
		C6.5,3.1,6.7,3,6.9,2.9c0,0,0.1,0,0.1,0c0.2,0,0.4,0.1,0.6,0.2C7.6,3.2,8,3.5,9,4.4c0.7,0.6,1.4,1.2,1.5,1.3c0.3,0.2,1,0.7,1.4,0.9
		c0.5,0.3,0.7,0.4,1,0.5c0.2,0.1,0.2,0.1,0.3,0.1c0,0,0.1,0,0.1,0c0,0,0.1,0,0.4,0c0.3,0,0.6,0,0.8,0.1c0.1,0,0.1,0,0.2,0
		c0.1,0,0.1,0,0.2,0c0.3-0.1,1.3-0.4,2.3-0.7l0.4-0.2l1.7-1.1c1-0.6,1.7-1.1,1.7-1.1c0.1-0.1,0.3-0.1,0.5-0.1c0.2,0,0.4,0.1,0.6,0.2
		c0.3,0.3,0.3,0.6,0.1,0.9c-0.1,0.1-0.2,0.3-0.4,0.4c-0.2,0.1-2.5,2-2.7,2.2C18.9,8,18.9,8,17.3,8.7L16,9.4l0,0.3
		c-0.1,0.4-0.2,1-0.4,1.4c-0.3,0.9-0.9,1.9-1.4,2.6L14,14l1.3,0.7c0.5,0.3,1.2,0.6,1.2,0.6c0,0,0.4,0.2,0.7,0.4l0.3,0.2
		c0.4,0.3,1.1,0.7,1.7,1c0.7,0.5,1.4,0.8,1.5,0.9c0.3,0.2,0.5,0.6,0.5,0.9c0,0.5-0.3,0.9-0.8,1C20.2,19.8,20.2,19.8,20.1,19.8z"/>
	<path class="st2" d="M22.5,3.9c-0.3-0.3-0.7-0.4-1.1-0.4c-0.3,0-0.5,0.1-0.8,0.2c-0.2,0.1-1.7,1.1-1.8,1.1l-1.6,1l-0.4,0.1
		c-1.1,0.4-2,0.7-2.2,0.7c0,0,0,0-0.1,0c0,0,0,0,0,0c-0.2-0.1-0.6-0.1-0.9-0.1c-0.2,0-0.3,0-0.5,0c0,0-0.1,0-0.1,0
		c-0.3-0.1-0.4-0.2-0.9-0.5c-0.4-0.2-1-0.7-1.3-0.9c-0.1-0.1-0.7-0.6-1.5-1.3C8.1,2.7,7.9,2.6,7.9,2.6C7.6,2.4,7.3,2.3,7,2.3
		c-0.1,0-0.1,0-0.2,0c-0.3,0-0.6,0.2-0.8,0.4C5.4,3.3,5.3,4,5.8,4.7c0,0.1,0.1,0.2,1.3,1.4c0.6,0.7,1.3,1.3,1.3,1.4
		c0.1,0.1,0.3,0.2,0.4,0.3c0.1,0.1,1.9,1.4,2.6,1.9c0,0.2-0.1,0.3-0.1,0.4c-0.1,0.4-0.3,0.8-0.5,1.1c-0.1,0.2-0.4,0.4-0.6,0.6
		c-0.4,0.3-0.7,0.7-0.8,1.2c-0.1,0.2-0.1,0.4-0.1,0.7c0,0.5,0,0.7,0.2,1.1c0.3,0.7,0.9,1.4,1.5,1.5c0,0,0.1,0,0.1,0l0,0
		c0.1,0,1,0.4,2.1,0.9c1,0.5,2,0.9,2.2,1c0.1,0,0.8,0.4,2,1c0.7,0.4,1.8,0.9,1.9,1c0.2,0.1,0.5,0.2,0.8,0.2c0.1,0,0.3,0,0.4,0
		c0.7-0.2,1.3-0.9,1.3-1.7c0-0.6-0.3-1.1-0.8-1.5c-0.1-0.1-0.8-0.5-1.5-0.9c-0.6-0.3-1.2-0.8-1.7-1l-0.3-0.2
		c-0.2-0.1-0.7-0.4-0.8-0.5c-0.1,0-0.5-0.3-1.2-0.6l-0.6-0.3c0.5-0.7,1-1.7,1.3-2.5c0.2-0.5,0.3-1.1,0.4-1.5l1-0.5
		c1.7-0.8,1.7-0.8,2-1c0.2-0.2,2.5-2,2.7-2.2c0.2-0.1,0.4-0.4,0.5-0.6C23.1,5,23,4.4,22.5,3.9z M21.6,4.9c0,0-0.1,0.2-0.2,0.2
		c-0.2,0.1-2.5,2-2.8,2.2c-0.1,0.1-0.1,0.1-1.7,0.8l-1.6,0.8l-0.1,0.6c0,0.4-0.2,0.9-0.3,1.3c-0.3,0.8-0.8,1.8-1.3,2.5L13,14.2
		l1.9,1c0.2,0.1,1.1,0.6,1.2,0.7c0,0,0.3,0.2,0.7,0.4l0.3,0.2c0.4,0.3,1.1,0.7,1.7,1c0.8,0.5,1.4,0.8,1.4,0.9
		c0.1,0.1,0.2,0.2,0.2,0.4c0,0.2-0.1,0.4-0.3,0.4c0,0-0.1,0-0.1,0c0,0,0,0,0,0c-0.1,0-0.2,0-0.2,0c-0.1,0-0.7-0.4-1.8-0.9
		c-0.7-0.4-1.8-1-2-1.1c-0.1-0.1-1.2-0.5-2.2-1c-1.1-0.5-2-0.9-2.1-0.9c-0.1,0-0.3-0.1-0.4-0.1c-0.1,0-0.5-0.3-0.6-0.7
		c-0.1-0.3-0.1-0.4-0.1-0.7c0-0.3,0-0.3,0-0.3c0.1-0.2,0.1-0.3,0.3-0.5c0.3-0.2,0.7-0.6,0.9-0.9c0.3-0.4,0.5-0.9,0.6-1.5
		c0-0.1,0.1-0.3,0.1-0.5c0.1-0.4,0.1-0.7-0.2-1l0,0c-0.1-0.1-2.9-2.2-2.9-2.2c0,0-0.1-0.1-0.2-0.2C9.3,6.5,8.7,5.9,8,5.2
		C7.1,4.3,6.9,4,6.8,4c-0.1-0.2,0-0.3,0-0.3c0,0,0.1,0,0.1-0.1c0,0,0,0,0,0c0.1,0,0.1,0,0.2,0.1c0,0,0.2,0.1,1.4,1.2
		c0.1,0,1.4,1.2,1.6,1.4c0.3,0.2,1.1,0.7,1.5,1c0.5,0.3,0.7,0.4,1,0.6c0.2,0.1,0.4,0.1,0.6,0.1c0.1,0,0.2,0,0.3,0c0,0,0.1,0,0.2,0
		c0.2,0,0.5,0,0.7,0.1c0.1,0,0.2,0,0.3,0c0.1,0,0.2,0,0.3,0c0.4-0.1,1.3-0.4,2.4-0.8L17.9,7l1.7-1.1c1-0.7,1.6-1,1.7-1.1
		c0.1,0,0.1,0,0.2,0c0.1,0,0.1,0,0.1,0C21.6,4.8,21.6,4.9,21.6,4.9C21.6,4.9,21.6,4.9,21.6,4.9z"/>
	<path class="st1" d="M8.4,13.7c0-0.4,0-0.6,0.1-0.9c0.1-0.4,0.3-0.7,0.5-1c-0.1,0-0.2-0.1-0.3-0.1c-0.9-0.3-1-0.3-1-0.3
		c0,0-1-0.6-2.1-1.4C4.4,9.2,3.5,8.6,3.4,8.6C3.2,8.5,3.1,8.5,2.8,8.4c0,0-0.1,0-0.1,0c-0.1,0-0.1,0-0.2,0C2.3,8.5,2.2,8.7,2,8.9
		C1.8,9.2,1.8,9.5,1.9,9.8C2.1,10,2.1,10,4.1,11.6l0,0c0.9,0.7,2,1.5,2.1,1.6c0.2,0.2,0.3,0.2,1.2,0.6c0.2,0.1,0.7,0.3,1.1,0.4
		C8.5,14.1,8.5,13.9,8.4,13.7z"/>
	<path class="st2" d="M8.4,13.7c0,0,0-0.1,0-0.1c-0.3-0.1-0.6-0.2-0.8-0.3c-0.8-0.3-0.8-0.4-1-0.5c-0.2-0.2-1.8-1.4-2.1-1.7l0,0
		C2.8,9.8,2.6,9.6,2.5,9.5c0-0.1,0-0.2,0.1-0.3c0-0.1,0.1-0.1,0.2-0.1c0,0,0,0,0,0c0,0,0,0,0,0c0.1,0,0.2,0,0.3,0.1
		C3.2,9.2,4,9.7,5.3,10.5c1.1,0.7,2.1,1.3,2.1,1.4C7.5,12,7.5,12,8.5,12.3c0.1,0,0.1,0,0.2,0.1c0.2-0.4,0.4-0.8,0.8-1.1
		c-0.2-0.1-0.4-0.1-0.6-0.2c-0.6-0.2-0.8-0.3-0.9-0.3C7.8,10.7,7,10.1,6,9.5C5.9,9.4,3.9,8.1,3.7,8C3.4,7.9,3.2,7.8,2.9,7.8
		c0,0-0.1,0-0.1,0c-0.1,0-0.3,0-0.4,0C2,7.9,1.7,8.2,1.5,8.5C1.2,9,1.1,9.6,1.3,10.1c0.2,0.4,0.2,0.4,2.3,2l0,0c1.1,0.9,2,1.5,2,1.6
		c0.3,0.3,0.4,0.4,1.4,0.8c0.3,0.1,1.1,0.4,1.6,0.6C8.5,14.6,8.5,14.2,8.4,13.7z"/>
	<path class="st1" d="M14.1,5.1c-0.1,0-0.1,0-0.2,0C12.8,4.9,12,4.1,12,3c0-0.3,0-0.6,0.1-0.9c0.2-0.5,0.6-1,1.1-1.2
		c0.1-0.1,0.5-0.2,0.6-0.2c0.1,0,0.1,0,0.2,0c0.3,0,0.7,0.1,1,0.2c0.8,0.4,1.3,1.4,1.2,2.3c-0.1,0.8-0.5,1.3-1.2,1.7
		C14.8,5,14.4,5.1,14.1,5.1L14.1,5.1z"/>
	<path class="st2" d="M15.4,0.3C15,0.1,14.5,0,14.1,0c-0.1,0-0.2,0-0.3,0c-0.2,0-0.6,0.1-0.8,0.2c-0.7,0.3-1.2,0.9-1.5,1.6
		c-0.1,0.4-0.2,0.7-0.2,1.1c0.1,1.4,1.1,2.5,2.5,2.7c0.1,0,0.2,0,0.3,0c0.4,0,0.9-0.1,1.2-0.3c0.9-0.4,1.4-1.2,1.6-2.1
		C17.1,2.1,16.5,0.9,15.4,0.3z M15.7,3.1c-0.1,0.6-0.4,1-0.9,1.2c-0.2,0.1-0.4,0.2-0.7,0.2c0,0-0.1,0-0.1,0
		c-0.8-0.1-1.4-0.7-1.4-1.5c0-0.2,0-0.4,0.1-0.6c0.1-0.3,0.4-0.7,0.8-0.8c0.1,0,0.3-0.1,0.4-0.1c0,0,0.1,0,0.1,0
		c0.2,0,0.5,0.1,0.7,0.2C15.4,1.8,15.8,2.5,15.7,3.1z"/>
</g>
</svg>
