<?xml version="1.0" standalone="no"?>
<!DOCTYPE svg PUBLIC "-//W3C//DTD SVG 1.1//EN" "http://www.w3.org/Graphics/SVG/1.1/DTD/svg11.dtd" >
<!--
2022-7-26: Created with FontForge (http://fontforge.org)
-->
<svg xmlns="http://www.w3.org/2000/svg" xmlns:xlink="http://www.w3.org/1999/xlink" version="1.1">
<metadata>
Created by FontForge 20220308 at Tue Jul 26 13:57:12 2022
 By emile
Copyright (c) 2022, emile
</metadata>
<defs>
<font id="Icons-Regular" horiz-adv-x="240" >
  <font-face 
    font-family="Icons"
    font-weight="400"
    font-stretch="normal"
    units-per-em="240"
    panose-1="2 0 5 9 0 0 0 0 0 0"
    ascent="180"
    descent="-60"
    bbox="-1.29102 -63 243 180.663"
    underline-thickness="50"
    underline-position="-100"
    unicode-range="U+E000-E0CB"
  />
    <missing-glyph />
    <glyph glyph-name="uniE000" unicode="&#xe000;" 
d="M240 -60h-15v93.1504l-32.5518 -70.6504h-11.0078l-31.4404 70.0264v-92.5264h-15v133.5h13.0459l39.0039 -86.8721l40.0264 86.8721h12.9238v-133.5zM105 -60v135h15v-135h-15zM70.707 -31.9307c1.33301 3.05762 1.92871 6.1875 1.92871 10.1465
c0 3.26562 -0.576172 5.83789 -1.92578 8.59961c-1.30957 2.67676 -3.11133 4.9043 -5.50977 6.81152c-2.4834 1.97363 -5.62793 3.5293 -9.34668 4.62109c-3.96387 1.16211 -8.48926 1.75195 -13.4453 1.75195h-3.95703h-23.4512v-45h27.2314
c5.22852 0 9.91895 0.568359 13.9395 1.69043c3.70898 1.03516 6.83496 2.54883 9.29395 4.50293c2.30859 1.83594 4.02441 4.08594 5.24219 6.87598zM15 60v-45h23.4512c5.6084 0 10.3164 0.75293 13.998 2.23633c3.62988 1.46387 6.56348 3.30273 8.7207 5.46777
c1.89941 1.90625 3.51758 4.50293 4.56055 7.3125c0.979492 2.64551 1.47656 5.22461 1.47656 7.66211c0 7.2373 -2.18164 12.7451 -6.48535 16.3721c-4.68457 3.94824 -12.4746 5.94922 -23.1553 5.94922h-22.5664zM84.1855 -6.5957
c2.35352 -4.81641 3.4502 -9.6416 3.45215 -15.1885c0 -6.04199 -1.0127 -11.1719 -3.18359 -16.1465c-2.19238 -5.02051 -5.44043 -9.26562 -9.65527 -12.6162c-4.03613 -3.20996 -8.94922 -5.63574 -14.5977 -7.21094
c-5.33105 -1.4873 -11.3779 -2.24219 -17.9697 -2.24219h-42.2314v60v15v60h37.5664c14.3154 0 25.3584 -3.18945 32.8223 -9.48047c7.73145 -6.5166 11.8184 -16.1436 11.8184 -27.8408c0 -4.22168 -0.810547 -8.55273 -2.41113 -12.875
c-1.80078 -4.85352 -4.56445 -9.23926 -7.99805 -12.6855c-1.01172 -1.01562 -2.1123 -1.97363 -3.28418 -2.88379c2.16895 -1.1377 4.19434 -2.41504 6.01953 -3.86621c4.12695 -3.27832 7.37305 -7.30469 9.65234 -11.9639zM30 150v-33.3438l15 10.3252v23.0186h-15z
M120 178.605l119.753 -82.4287l-8.50586 -12.3555l-111.247 76.5732l-111.247 -76.5713l-8.50586 12.3555l14.7529 10.1533v58.668h45v-27.6943z" />
    <glyph glyph-name="uniE001" unicode="&#xe001;" 
d="M7.5 120l29.4346 60l30.5654 -60h-22.5v-135h135v22.5l60 -29.4346l-60 -30.5654v22.5h-150v150h-22.5zM232.992 80.6172l-22.9922 -32.0303v-33.5869h-15v33.626l-22.5566 32.0469l12.2666 8.63379l17.8496 -25.3613l18.2461 25.4189zM139.763 171.672
l-19.3994 -29.4268l19.3975 -29.4268l-12.5244 -8.25684l-15.8564 24.0557l-15.8564 -24.0557l-12.5254 8.25684l19.3994 29.4268l-19.3994 29.4268l12.5254 8.25586l15.8574 -24.0557l15.8564 24.0557z" />
    <glyph glyph-name="uniE002" unicode="&#xe002;" 
d="M7.5 120l29.4346 60l30.5654 -60h-22.5v-135h135v22.5l60 -29.4346l-60 -30.5654v22.5h-150v150h-22.5z" />
    <glyph glyph-name="uniE003" unicode="&#xe003;" 
d="M208.5 105h-52.4072l31.5 60h-28.5928v15h53.4072l-31.5 -60h27.5928v-15zM232.992 74.6172l-22.9922 -32.0303v-33.5869h-15v33.626l-22.5566 32.0469l12.2666 8.63379l17.8496 -25.3613l18.2461 25.4189zM66.2627 74.1719l-19.3994 -29.4268l19.3975 -29.4268
l-12.5244 -8.25684l-15.8564 24.0557l-15.8584 -24.0557l-12.5254 8.25684l19.4014 29.4268l-19.3994 29.4268l12.5254 8.25586l15.8574 -24.0557l15.8584 24.0557zM90 94.5l29.4346 60l30.5654 -60h-22.377v-85.2676l60.1054 -32.9789l9.82139 20.3148l41.207 -52.6162
l-67.3232 -1.40332l9.7573 20.1823l-61.0698 33.5072l-61.9013 -33.9642l9.53704 -19.7252l-67.3232 1.40332l41.2061 52.6143l10.0425 -20.7707l60.9409 33.4358v85.2686h-22.623z" />
    <glyph glyph-name="uniE004" unicode="&#xe004;" 
d="M90 120l29.4346 60l30.5654 -60h-22.377v-85.2676l60.1054 -32.9789l9.82139 20.3148l41.207 -52.6162l-67.3232 -1.40332l9.7573 20.1823l-61.0698 33.5072l-61.9013 -33.9642l9.53704 -19.7252l-67.3232 1.40332l41.2061 52.6143l10.0425 -20.7707l60.9409 33.4358
v85.2686h-22.623z" />
    <glyph glyph-name="uniE005" unicode="&#xe005;" 
d="M130.013 93.168c0.696289 -3.19238 1.0498 -6.88965 1.0498 -10.9902c0 -4.09961 -0.352539 -7.79004 -1.04883 -10.9648c-0.655273 -2.99316 -1.55078 -5.51172 -2.65918 -7.48242c-0.925781 -1.64551 -1.97266 -2.87402 -3.10938 -3.65137
c-0.897461 -0.611328 -1.78027 -0.884766 -2.86328 -0.884766c-1.06055 0 -1.92773 0.270508 -2.8125 0.87793c-1.13477 0.77832 -2.18164 2.00781 -3.1084 3.65625c-1.11133 1.97461 -2.00684 4.49316 -2.66113 7.48438
c-0.696289 3.17383 -1.04785 6.8623 -1.04785 10.9648c0 4.0752 0.351562 7.75879 1.04785 10.9482c0.657227 3.00781 1.55371 5.54297 2.66699 7.53125c0.933594 1.66699 1.98633 2.91309 3.12793 3.70508c0.878906 0.609375 1.73828 0.880859 2.78516 0.880859
c1.06836 0 1.97754 -0.282227 2.8623 -0.884766c1.13379 -0.774414 2.17773 -2.00586 3.10352 -3.65723c1.11328 -1.98926 2.00977 -4.52441 2.66699 -7.5332zM202.2 93.168c0.696289 -3.19238 1.0498 -6.88965 1.0498 -10.9902
c0 -4.09961 -0.352539 -7.79004 -1.04883 -10.9648c-0.655273 -2.99316 -1.55078 -5.51172 -2.65918 -7.48242c-0.925781 -1.64551 -1.97266 -2.87402 -3.10938 -3.65137c-0.897461 -0.611328 -1.78027 -0.884766 -2.86328 -0.884766
c-1.06055 0 -1.92773 0.270508 -2.8125 0.87793c-1.13477 0.77832 -2.18164 2.00781 -3.1084 3.65625c-1.11133 1.97461 -2.00684 4.49316 -2.66113 7.48438c-0.696289 3.17383 -1.04785 6.8623 -1.04785 10.9648c0 4.0752 0.351562 7.75879 1.04785 10.9482
c0.657227 3.00781 1.55371 5.54297 2.66699 7.53125c0.933594 1.66699 1.98633 2.91309 3.12793 3.70508c0.878906 0.609375 1.73828 0.880859 2.78516 0.880859c1.06836 0 1.97754 -0.282227 2.8623 -0.884766c1.13379 -0.774414 2.17773 -2.00586 3.10352 -3.65723
c1.11328 -1.98926 2.00977 -4.52441 2.66699 -7.5332zM215.39 68.3232c0.90332 4.12207 1.36035 8.78418 1.36035 13.8545c0 5.06641 -0.457031 9.7334 -1.36035 13.8691c-0.94043 4.3125 -2.31152 8.09668 -4.07715 11.25
c-1.95312 3.4873 -4.39844 6.24902 -7.26855 8.21094c-3.14551 2.14746 -6.6709 3.23633 -10.4766 3.23633s-7.3291 -1.10547 -10.4756 -3.28418c-2.84473 -1.97266 -5.27246 -4.7334 -7.21875 -8.20703c-1.76367 -3.1543 -3.13574 -6.9375 -4.07617 -11.248
c-0.902344 -4.13477 -1.35938 -8.78613 -1.35938 -13.8271c0 -5.07324 0.457031 -9.7334 1.36035 -13.8545c0.942383 -4.2998 2.31641 -8.07227 4.08496 -11.2168c1.95117 -3.46387 4.38574 -6.21191 7.2373 -8.16699c3.13965 -2.15332 6.6543 -3.24512 10.4492 -3.24512
c3.80664 0 7.33008 1.08887 10.4775 3.2373c2.86426 1.95703 5.30664 4.70801 7.25977 8.17676c1.7666 3.14062 3.14062 6.91309 4.08301 11.2148zM158.259 38.1904l7.36328 26.5059l-13.0059 3.61328l-7.36328 -26.5059zM143.202 68.3232
c0.90332 4.12207 1.36035 8.78418 1.36035 13.8545c0 5.06641 -0.457031 9.7334 -1.36035 13.8691c-0.94043 4.3125 -2.31152 8.09668 -4.07715 11.25c-1.95312 3.4873 -4.39844 6.24902 -7.26855 8.21094c-3.14551 2.14746 -6.6709 3.23633 -10.4766 3.23633
s-7.3291 -1.10547 -10.4756 -3.28418c-2.84473 -1.97266 -5.27246 -4.7334 -7.21875 -8.20703c-1.76367 -3.1543 -3.13574 -6.9375 -4.07617 -11.248c-0.902344 -4.13477 -1.35938 -8.78613 -1.35938 -13.8271c0 -5.07324 0.457031 -9.7334 1.36035 -13.8545
c0.942383 -4.2998 2.31641 -8.07227 4.08496 -11.2168c1.95117 -3.46387 4.38574 -6.21191 7.2373 -8.16699c3.13965 -2.15332 6.6543 -3.24512 10.4492 -3.24512c3.80664 0 7.33008 1.08887 10.4775 3.2373c2.86426 1.95703 5.30664 4.70801 7.25977 8.17676
c1.7666 3.14062 3.14062 6.91309 4.08301 11.2148zM224.876 135c8.35254 0 15.124 -6.77148 15.124 -15.124v-74.752c0 -8.35156 -6.77246 -15.124 -15.126 -15.124h-134.75c-8.35156 0 -15.124 6.77246 -15.124 15.126v74.75c0 8.35254 6.77148 15.124 15.124 15.124
h134.752zM7.5 120l29.4346 60l30.5654 -60h-22.5v-135h135v22.5l60 -29.4346l-60 -30.5654v22.5h-150v150h-22.5z" />
    <glyph glyph-name="uniE006" unicode="&#xe006;" 
d="M27.0059 -23.9463c3.54883 -7.2627 35.2969 -21.2412 93.627 -21.2412c26.3418 0 50.9072 3.01074 69.1699 8.47754c16.4767 4.93239 22.16 10.1272 23.5641 12.8019c-0.016224 0.0434381 -0.0329934 0.0869389 -0.0503075 0.130501l-0.899954 1.65474
c-6.79337 9.90161 -39.7211 21.9832 -92.2047 21.9832c-48.1005 0 -80.2393 -9.97096 -90.5927 -18.9815zM42.0226 3.77961c21.3555 7.51732 50.7269 11.0798 78.1893 11.0798c28.0746 0 57.2183 -3.59901 78.225 -11.2779l-78.4232 144.196zM225.569 -14.9065
c0.416004 -0.680306 0.793215 -1.37299 1.13024 -2.07812l2.05111 -3.77128v-1.90723c0 -25.7822 -56.0449 -37.5244 -108.115 -37.5244c-50.2404 0 -104.149 10.7616 -108.658 34.3009c-0.67744 1.42173 -0.914405 3.06779 -0.573286 4.7294
c0.792203 3.85913 2.79554 7.39052 5.79825 10.6025l102.785 189.777z" />
    <glyph glyph-name="uniE007" unicode="&#xe007;" 
d="M94.502 -60.7578l-94.502 54.3486v156.747l143.225 30.3252l96.7754 -48.1348v-159.579zM105 93.2475v-67.7827l30 6.07426v68.0304zM98.9111 107.294l36.0889 7.60509v48.691l-104.843 -22.2007zM15 132.163l-1.77636e-15 -124.921l75 15.1857v72.5421zM209.992 130.702
l-59.9916 29.8385v-42.4806zM225 118.535l-75 -15.8048v-72.54l75 -38.9324v127.277zM105 -42.9279l105.996 24.5558l-69.2852 35.9659l-36.7109 -7.43305v-53.0886zM90 -40.8644v47.9879l-61.7155 -12.4958z" />
    <glyph glyph-name="uniE008" unicode="&#xe008;" 
d="M112.165 101.367c-24.5859 0 -47.793 3.33594 -65.3936 9.40527c-7.0303 2.4239 -12.5528 5.05816 -16.8681 7.77612l0.195097 -118.445c18.23 11.1808 50.381 16.9772 82.2834 17.0293c24.8623 0.0957031 48.165 -3.30176 65.752 -9.40918
c7.10291 -2.46707 12.6528 -5.15428 16.9655 -7.92702l-0.197061 119.202c-17.8375 -11.5748 -50.1886 -17.5779 -82.284 -17.6302c-0.151367 -0.000976562 -0.303711 -0.000976562 -0.453125 -0.000976562zM113.166 165.003h-0.461914
c-23.3262 -0.0371094 -45.1475 -3.18164 -61.4385 -8.84863c-14.79 -5.14453 -21.4053 -11.2725 -21.3994 -15.0625c0 -0.430981 0.00212967 -0.861963 0.00212967 -1.29294c0.187441 0 0.374882 0.00095185 0.562323 0.00095185
c0.00585938 -3.74805 6.57324 -9.79199 21.2305 -14.8467c16.1689 -5.57422 37.8486 -8.6582 60.9316 -8.58496c53.4287 0.0888672 81.3516 15.4756 81.3389 23.7002c0.31191 0 0.623819 0.00158392 0.935729 0.00158392
c0 0.430462 -0.00213488 0.860923 -0.00213488 1.29138c-0.0136719 8.27441 -28.083 23.6416 -81.6992 23.6416zM14.9443 -21.5938c0 0.91682 0.061439 1.81792 0.18631 2.70324l-0.264435 159.957c-0.0136719 8.3457 5.43457 20.1953 31.4707 29.2539
c17.8271 6.20312 41.3877 9.64062 66.3418 9.68262h0.431641c48.126 0 96.7139 -13.2344 96.7559 -38.6162l0.268555 -162.45c0.0410156 -25.4541 -48.7959 -38.8545 -97.0605 -38.9336h-0.4375c-48.3627 0 -97.1897 13.1612 -97.5005 38.4036
c-0.0639652 0 -0.12793 -0.000299837 -0.191896 -0.000299837zM30.1321 -20.3053c0 -0.350712 0.00173303 -0.701424 0.00173303 -1.05214c0.0146484 -9.4375 32.9053 -23.6396 82.4873 -23.6396h0.427734c53.4607 0.0881183 81.6179 15.3518 82.0792 23.6988
c-0.311232 0 -0.622464 -0.00158047 -0.933696 -0.00158047c-0.00585938 3.76758 -6.49609 9.82031 -20.9814 14.8525c-16.0381 5.57129 -37.6133 8.67285 -60.8076 8.58008c-47.4127 -0.0784221 -79.5499 -13.0948 -82.2732 -22.4381z" />
    <glyph glyph-name="uniE009" unicode="&#xe009;" 
d="M99.9541 -60.1338l-84.9541 26.7412v160.812l26.2305 41.2002l99.1016 11.5264l84.668 -28.7734v-160.294l-24.7998 -39.7041zM107.941 94.008v-72.8141l24.1367 2.81384v73.0645zM186.898 104.032l-39.8203 -5.05537v-76.2872l39.8203 -12.5174v93.8599z
M201.898 109.637v-104.18l8.10156 -2.54669v118.866zM92.9414 95.2213l-39.8398 13.1089v-93.5295l39.8398 4.6445v75.776zM30 115.932v-118.816l8.10156 11.8175v104.333zM34.566 130.222l3.53553 -1.16341v6.71674zM205.555 142.137l-58.4772 19.8721v-47.9117
l43.4443 5.51555zM201.898 -17.595l3.82503 6.12405l-3.82503 1.20251v-7.32656zM107.941 -44.1172l78.957 9.0613v29.5032l-48.3809 15.21l-30.5762 -3.56501v-50.2094zM92.9414 -42.1992v46.5425l-43.2568 -5.0435l-15.724 -22.935zM132.078 164.084l-78.9766 -9.18492
v-30.7763l48.1465 -15.8431l30.8301 3.91408v51.8903z" />
    <glyph glyph-name="uniE00A" unicode="&#xe00a;" 
d="M16.8887 -26.5391l-9.8125 13.2646l216.021 159.806l9.8125 -13.2646z" />
    <glyph glyph-name="uniE00B" unicode="&#xe00b;" 
d="M119.685 -60.1738l-119.799 128.82l120.436 111.365l119.788 -125.114zM110.154 20.1998l7.42725 -29.1144l4.27657 31.8152zM109.851 35.5227l14.1419 3.26369l6.11552 45.4958l-14.1588 -2.90021zM94.9007 36.8933l5.4922 41.3021l-65.3744 -13.391zM94.5998 20.4848
l-51.9692 24.2234l63.0986 -67.8498zM109.939 149.981l-75.734 -70.0314l68.2812 13.9853zM204.988 42.0832l-67.5112 -15.5785l-7.54584 -56.1429zM198.616 76.5443l-64.5575 67.4279l11.3683 -44.5659zM122.322 129.297l-4.27899 -32.1761l11.8674 2.43068z
M139.612 42.391l65.3777 15.088l-59.8899 25.7427z" />
    <glyph glyph-name="uniE00C" unicode="&#xe00c;" 
d="M178.323 -60c-22.8711 0 -61.5771 5.07031 -61.5771 24.0752v0.389207l-0.239258 0.0482933c0.0679275 0.336408 0.147777 0.668385 0.239258 0.995972v27.4327c0 34.7949 -28.4277 63.1035 -63.3701 63.1035h-29.5947c-17.5537 0 -23.7812 33.2031 -23.7812 61.6357
c0 23.1006 5.00879 62.1953 23.7812 62.1953h29.7119c102.783 -0.0664062 186.447 -83.876 186.507 -186.825v-28.9756c0 -19.0049 -38.7686 -24.0752 -61.6768 -24.0752zM38.1677 71.0449h15.2083c43.2139 0 78.3701 -35.0371 78.3701 -78.1035v-13.5768
c12.4548 5.33473 30.4264 7.47327 46.3516 7.47327c16.0946 0 34.4611 -2.27313 46.9023 -7.98939v14.1974c-0.0556641 94.6846 -76.9951 171.769 -171.512 171.83h-15.0947c5.43667 -12.5376 7.6113 -30.8015 7.6113 -46.9668
c0 -16.0556 -2.23264 -34.3587 -7.83718 -46.8643zM22.8026 162.583c-3.24794 -5.80342 -7.80265 -20.9786 -7.80265 -44.9028c0 -23.4108 4.41813 -38.3058 7.63684 -44.1641c3.54413 5.58766 8.36804 20.2504 8.36804 44.3906c0 24.0194 -4.7279 38.9005 -8.20224 44.6763
zM133.347 -36.6175c5.13294 -3.32915 20.335 -8.38252 44.9759 -8.38252c23.8368 0 38.8669 4.71699 44.5066 8.04218c-4.93484 3.53723 -19.6782 8.79669 -44.7332 8.79669c-24.453 0 -39.3443 -4.96287 -44.7493 -8.45635z" />
    <glyph glyph-name="uniE00D" unicode="&#xe00d;" 
d="M27.6094 70.6602l47.4219 -61.3105l128.61 26.9531l-71.0234 50.3252zM68.9141 -7.25684l-68.7734 88.9141l136.209 20.7129l104.008 -73.6963z" />
    <glyph glyph-name="uniE00E" unicode="&#xe00e;" 
d="M96.2361 20.6973h48.1976l-24.4834 108.301zM212.255 6.42617l-68.3824 106.511l29.1642 -93.8033zM127.135 166.774l112.424 -175.111l-3.8477 -2.9164c-0.934189 -1.3815 -2.29481 -2.39284 -3.83748 -2.90865l-60.723 -46.0255h-101.045l-61.9237 45.6383
c-1.52165 0.495928 -2.87052 1.47255 -3.81316 2.81033l-3.82756 2.82094l111.991 175.682l0.119152 0.396125c0.447661 1.48898 1.32951 2.75793 2.48227 3.68476l4.67691 7.33673l4.73423 -7.374c1.12769 -0.904006 1.99869 -2.13053 2.44936 -3.58206zM96.6382 113.924
l-68.7655 -107.872l40.2093 12.9358zM27.1898 -9.92436l40.4577 -29.8178l9.94968 45.4395h-1.84909zM163.203 5.69727l10.246 -45.3213l39.6073 30.0221l-47.2137 15.2992zM92.9516 5.69727l-11.142 -50.8848h77.5186l-11.5035 50.8848h-54.8731z" />
    <glyph glyph-name="uniE00F" unicode="&#xe00f;" 
d="M68.8633 -59.1855l-68.0068 80.5293l121.634 157.125l117.236 -205.197zM107.022 133.983l-79.4837 -102.676l57.3578 7.39475zM81.6748 -41.4842l126.815 24.0922l-71.9058 47.6352l-39.4335 -5.0843zM67.8444 -34.7288l13.4316 57.8409l-56.1633 -7.24134z
M205.834 2.36039l-72.5275 126.942l12.0538 -86.8809zM119.348 120.75l-18.5775 -80.0008l29.156 3.75888z" />
    <glyph glyph-name="uniE010" unicode="&#xe010;" 
d="M65.2783 -59.9863l-65.2783 34.9111v172.512l173.961 31.5957l66.0391 -32.083v-173.74zM75 105.107v-104.352l90 18.0453v102.791zM60 105.992l-45 23.1748v-140.441l45 9.02267v108.244zM30.9702 137.815l36.5571 -18.8257l97.4727 17.8526v25.3185zM209.645 145.019
l-29.6453 14.4035v-19.8332zM225 132.582l-45 -8.24248v-107.221l45 -25.032v140.496zM75 -42.8715l135.654 25.7728l-39.3158 21.8721l-96.3379 -19.3163v-28.3287zM60 -40.1532v22.6028l-30.74 -6.16353z" />
    <glyph glyph-name="uniE011" unicode="&#xe011;" 
d="M120 -60c-66.168 0 -120 53.832 -120 120s53.832 120 120 120s120 -53.832 120 -120s-53.832 -120 -120 -120zM119.611 164.482c-27.6865 0 -51.0781 -47.8467 -51.0781 -104.482s23.3916 -104.482 51.0781 -104.482c27.6875 0 51.0781 47.8467 51.0781 104.482
s-23.3906 104.482 -51.0781 104.482zM157.966 -37.9001c39.1884 15.2494 67.0344 53.3839 67.0344 97.9001c0 44.5162 -27.8459 82.6507 -67.0344 97.9001c16.8854 -21.4368 27.7238 -56.9576 27.7238 -97.9001c0 -40.9425 -10.8384 -76.4633 -27.7238 -97.9001z
M80.909 157.455c-38.5951 -15.5366 -65.909 -53.3658 -65.909 -97.4547c0 -44.0889 27.3139 -81.918 65.909 -97.4547c-16.6862 21.4818 -27.3758 56.7953 -27.3758 97.4547c0 40.6594 10.6896 75.9728 27.3758 97.4547z" />
    <glyph glyph-name="uniE012" unicode="&#xe012;" 
d="M70.5703 60.165c7.93848 -4.09375 26.876 -9.78125 50.0977 -9.78125c23.7148 0 41.251 5.5 48.6553 9.37598c-7.94531 4.74805 -26.2432 12.0254 -48.6553 12.0254c-23.7002 0 -42.416 -7.125 -50.0977 -11.6201zM120.668 35.3838
c-21.0322 0 -37.167 4.16699 -44.9131 6.65039c-4.48184 1.43682 -8.0927 2.89496 -11.0019 4.33106c-5.11446 -12.1273 -16.8288 -20.6463 -30.4492 -20.725c3.0079 -2.42424 6.34778 -4.74345 10.0058 -6.93805c20.0986 -12.0605 46.9805 -18.7021 75.6904 -18.7021
s55.5918 6.6416 75.6904 18.7021c3.65822 2.19474 6.9983 4.51412 10.0064 6.93853c-13.4763 0.106483 -25.0779 8.47621 -30.2499 20.4217c-13.6426 -7.02122 -36.5118 -10.6786 -54.7789 -10.6786zM120 120c-28.71 0 -55.5918 -6.6416 -75.6904 -18.7021
c-3.6458 -2.18729 -6.97561 -4.49836 -9.97569 -6.91383c13.4645 -0.0901663 25.0623 -8.42891 30.2558 -20.3448c3.03701 1.66758 6.65152 3.28175 10.839 4.83868c7.94238 2.95312 24.3809 7.90625 45.2373 7.90625c20.3848 0 36.79 -5.37305 44.7539 -8.5752
c3.7761 -1.51836 7.06805 -3.0562 9.87233 -4.61048c5.08891 12.1298 16.7751 20.6651 30.3745 20.785c-3.00026 2.41566 -6.33029 4.72691 -9.97636 6.91436c-20.0986 12.0605 -46.9805 18.7021 -75.6904 18.7021zM120 -15c-31.3887 0 -61.0107 7.40137 -83.4072 20.8398
c-23.5967 14.1562 -36.5928 33.3916 -36.5928 54.1602s12.9961 40.0039 36.5928 54.1602c22.3965 13.4385 52.0186 20.8398 83.4072 20.8398s61.0107 -7.40137 83.4072 -20.8398c23.5967 -14.1562 36.5928 -33.3916 36.5928 -54.1602s-12.9961 -40.0039 -36.5928 -54.1602
c-22.3965 -13.4385 -52.0186 -20.8398 -83.4072 -20.8398zM205.957 79.3828c-10.1367 0 -18.3838 -8.68945 -18.3838 -19.3721c0 -10.6836 8.24707 -19.373 18.3838 -19.373c10.1377 0 18.3848 8.68945 18.3848 19.373c0 10.6826 -8.24707 19.3721 -18.3848 19.3721z
M34.1133 79.3828c-10.1377 0 -18.3848 -8.68945 -18.3848 -19.3721c0 -10.6836 8.24707 -19.373 18.3848 -19.373c10.1367 0 18.3838 8.68945 18.3838 19.373c0 10.6826 -8.24707 19.3721 -18.3838 19.3721z" />
    <glyph glyph-name="uniE013" unicode="&#xe013;" 
d="M1.33496 -8.69727l70.8389 123.02l96.6875 49.8271l70.5615 -154.022l-96.7969 -57.4727zM86.1989 104.608l25.3555 -56.2395l39.1058 89.4604zM145.927 -27.871l64.2977 38.1755l-91.6515 24.0676l-0.589699 -0.263276zM129.538 -28.154l-25.304 56.1241
l-68.3382 -30.5101zM75.9503 90.7028l-45.629 -79.2407l67.7233 30.2357zM216.387 24.2543l-50.6308 110.516l-38.1218 -87.2086z" />
    <glyph glyph-name="uniE014" unicode="&#xe014;" 
d="M15 -59.29v105.784l71.3584 132.285l153.645 -184.614zM61.6205 101.323l-26.9877 -50.0297l11.0313 -2.47126zM91.7465 148.856l-31.4031 -103.323l144.296 -32.3256zM34.584 -39.2205l162.811 38.6799l-141.426 31.6826zM30 -2.71687l11.2901 37.1473l-11.2901 2.52923
v-39.6766z" />
    <glyph glyph-name="uniE015" unicode="&#xe015;" 
d="M217.5 135c-12.4062 0 -22.5 10.0938 -22.5 22.5s10.0938 22.5 22.5 22.5s22.5 -10.0938 22.5 -22.5s-10.0938 -22.5 -22.5 -22.5zM75 82.5c-12.4062 0 -22.5 10.0938 -22.5 22.5s10.0938 22.5 22.5 22.5s22.5 -10.0938 22.5 -22.5s-10.0938 -22.5 -22.5 -22.5zM22.5 -60
c-12.4062 0 -22.5 10.0938 -22.5 22.5s10.0938 22.5 22.5 22.5s22.5 -10.0938 22.5 -22.5s-10.0938 -22.5 -22.5 -22.5zM47.6084 84.0586c3.08398 -4.02344 7.03223 -7.34668 11.5635 -9.69922c-15.4053 -22.8389 -25.4756 -49.5596 -28.3301 -78.3857
c-2.67285 0.667969 -5.46582 1.02637 -8.3418 1.02637c-2.28711 0 -4.52148 -0.229492 -6.68555 -0.655273c3.00488 32.3369 14.3281 62.292 31.7939 87.7139zM183.655 164.184c-0.425781 -2.16211 -0.655273 -4.39648 -0.655273 -6.68359
c0 -2.87598 0.358398 -5.66895 1.02637 -8.3418c-28.8262 -2.85449 -55.5469 -12.9248 -78.3857 -28.3301c-2.35059 4.5332 -5.6748 8.47949 -9.69727 11.5635c25.4199 17.4648 55.375 28.7881 87.7119 31.792z" />
    <glyph glyph-name="uniE016" unicode="&#xe016;" 
d="M210 165h9v-15h-9c-90.5264 0 -165.645 -67.1758 -178.156 -154.296c-2.97461 0.838867 -6.10547 1.2959 -9.34375 1.2959c-1.93848 0 -3.83691 -0.167969 -5.68945 -0.476562c12.9805 95.0205 94.6621 168.477 193.189 168.477zM108.71 15h11.29v3h0.179688
c2.22754 30.1201 26.7002 54.5928 56.8203 56.8203v0.179688l3 0.0146484v11.6699l39.8066 -19.207l-39.8066 -18.7559v11.2695c-24.4502 -0.780273 -44.1963 -20.5342 -44.9756 -44.9912h11.6367l-19.2012 -39.8193zM60 -45v15h120v-15h-120zM22.5 -60
c-12.4062 0 -22.5 10.0938 -22.5 22.5s10.0938 22.5 22.5 22.5s22.5 -10.0938 22.5 -22.5s-10.0938 -22.5 -22.5 -22.5zM217.5 -60c-12.4062 0 -22.5 10.0938 -22.5 22.5s10.0938 22.5 22.5 22.5s22.5 -10.0938 22.5 -22.5s-10.0938 -22.5 -22.5 -22.5z" />
    <glyph glyph-name="uniE017" unicode="&#xe017;" 
d="M60 -45v15h120v-15h-120zM217.5 135c-12.4062 0 -22.5 10.0938 -22.5 22.5s10.0938 22.5 22.5 22.5s22.5 -10.0938 22.5 -22.5s-10.0938 -22.5 -22.5 -22.5zM22.5 -60c-12.4062 0 -22.5 10.0938 -22.5 22.5s10.0938 22.5 22.5 22.5s22.5 -10.0938 22.5 -22.5
s-10.0938 -22.5 -22.5 -22.5zM217.5 -60c-12.4062 0 -22.5 10.0938 -22.5 22.5s10.0938 22.5 22.5 22.5s22.5 -10.0938 22.5 -22.5s-10.0938 -22.5 -22.5 -22.5zM183 157.5c0 -2.87598 0.358398 -5.66895 1.02637 -8.3418
c-80.7666 -7.99609 -145.188 -72.418 -153.185 -153.185c-2.67285 0.667969 -5.46582 1.02637 -8.3418 1.02637c-2.28711 0 -4.52148 -0.229492 -6.68359 -0.655273c8.24512 88.7461 79.0928 159.594 167.839 167.839
c-0.425781 -2.16211 -0.655273 -4.39648 -0.655273 -6.68359z" />
    <glyph glyph-name="uniE018" unicode="&#xe018;" 
d="M68.4043 25.2529l7.83203 -7.7627l99.6084 98.1631l-7.82812 7.76074l39.0527 13.8271l-13.7881 -38.873l-7.84863 7.7793l-99.6084 -98.1631l7.84375 -7.77734l-39.0527 -13.8271zM210 165h9v-15h-9c-90.5264 0 -165.645 -67.1758 -178.156 -154.296
c-2.97461 0.838867 -6.10547 1.2959 -9.34375 1.2959c-1.93848 0 -3.83691 -0.167969 -5.68945 -0.476562c12.9805 95.0205 94.6621 168.477 193.189 168.477zM60 -45v15h120v-15h-120zM22.5 -60c-12.4062 0 -22.5 10.0938 -22.5 22.5s10.0938 22.5 22.5 22.5
s22.5 -10.0938 22.5 -22.5s-10.0938 -22.5 -22.5 -22.5zM217.5 -60c-12.4062 0 -22.5 10.0938 -22.5 22.5s10.0938 22.5 22.5 22.5s22.5 -10.0938 22.5 -22.5s-10.0938 -22.5 -22.5 -22.5z" />
    <glyph glyph-name="uniE019" unicode="&#xe019;" 
d="M15 55.2656v82.7344h-10.6846l18.1846 39l18.8906 -39h-11.3906v-53.3096c-5.77051 -9.32422 -10.793 -19.1611 -15 -29.4248zM217.5 135c-12.4062 0 -22.5 10.0938 -22.5 22.5s10.0938 22.5 22.5 22.5s22.5 -10.0938 22.5 -22.5s-10.0938 -22.5 -22.5 -22.5zM22.5 -60
c-12.4062 0 -22.5 10.0938 -22.5 22.5s10.0938 22.5 22.5 22.5s22.5 -10.0938 22.5 -22.5s-10.0938 -22.5 -22.5 -22.5zM183 157.5c0 -2.87598 0.358398 -5.66895 1.02637 -8.3418c-80.7666 -7.99609 -145.188 -72.418 -153.185 -153.185
c-2.67285 0.667969 -5.46582 1.02637 -8.3418 1.02637c-2.28711 0 -4.52148 -0.229492 -6.68359 -0.655273c8.24512 88.7461 79.0928 159.594 167.839 167.839c-0.425781 -2.16211 -0.655273 -4.39648 -0.655273 -6.68359z" />
    <glyph glyph-name="uniE01A" unicode="&#xe01a;" 
d="M215.206 -24.7939l-9.5459 -9.5459l-93.4092 92.4873l-7.84766 -7.7793l-13.7881 38.873l39.0527 -13.8271l-7.8291 -7.76074zM217.5 135c-12.4062 0 -22.5 10.0938 -22.5 22.5s10.0938 22.5 22.5 22.5s22.5 -10.0938 22.5 -22.5s-10.0938 -22.5 -22.5 -22.5zM22.5 -60
c-12.4062 0 -22.5 10.0938 -22.5 22.5s10.0938 22.5 22.5 22.5s22.5 -10.0938 22.5 -22.5s-10.0938 -22.5 -22.5 -22.5zM183 157.5c0 -2.87598 0.358398 -5.66895 1.02637 -8.3418c-80.7666 -7.99609 -145.188 -72.418 -153.185 -153.185
c-2.67285 0.667969 -5.46582 1.02637 -8.3418 1.02637c-2.28711 0 -4.52148 -0.229492 -6.68359 -0.655273c8.24512 88.7461 79.0928 159.594 167.839 167.839c-0.425781 -2.16211 -0.655273 -4.39648 -0.655273 -6.68359z" />
    <glyph glyph-name="uniE01B" unicode="&#xe01b;" 
d="M217.5 135c-12.4062 0 -22.5 10.0938 -22.5 22.5s10.0938 22.5 22.5 22.5s22.5 -10.0938 22.5 -22.5s-10.0938 -22.5 -22.5 -22.5zM22.5 -60c-12.4062 0 -22.5 10.0938 -22.5 22.5s10.0938 22.5 22.5 22.5s22.5 -10.0938 22.5 -22.5s-10.0938 -22.5 -22.5 -22.5z
M183 157.5c0 -2.87598 0.358398 -5.66895 1.02637 -8.3418c-80.7666 -7.99609 -145.188 -72.418 -153.185 -153.185c-2.67285 0.667969 -5.46582 1.02637 -8.3418 1.02637c-2.28711 0 -4.52148 -0.229492 -6.68359 -0.655273
c8.24512 88.7461 79.0928 159.594 167.839 167.839c-0.425781 -2.16211 -0.655273 -4.39648 -0.655273 -6.68359z" />
    <glyph glyph-name="uniE01C" unicode="&#xe01c;" 
d="M210 -30v180h-180v-180h180zM240 150h-15v-180h15v-15h-15v-15h-15v15h-180v-15h-15v15h-15v15h15v180h-15v15h15v15h15v-15h180v15h15v-15h15v-15z" />
    <glyph glyph-name="uniE01D" unicode="&#xe01d;" 
d="M207 109.5c-12.4062 0 -22.5 10.0938 -22.5 22.5s10.0938 22.5 22.5 22.5s22.5 -10.0938 22.5 -22.5s-10.0938 -22.5 -22.5 -22.5zM33 -34.5c-12.4062 0 -22.5 10.0938 -22.5 22.5s10.0938 22.5 22.5 22.5s22.5 -10.0938 22.5 -22.5s-10.0938 -22.5 -22.5 -22.5z
M217.416 99.1113c4.93359 1.56543 9.38867 4.21582 13.0879 7.66602c6.11035 -14.3818 9.49609 -30.1914 9.49609 -46.7773c0 -66.168 -53.832 -120 -120 -120c-24.6123 0 -47.5107 7.45801 -66.5742 20.2188c4.09766 3.02246 7.50879 6.9248 9.94434 11.4316
c16.3535 -10.5186 35.7832 -16.6504 56.6299 -16.6504c57.8975 0 105 47.1025 105 105c0 13.8213 -2.71094 27.0137 -7.58398 39.1113zM9.49609 13.2227c-6.11035 14.3818 -9.49609 30.1914 -9.49609 46.7773c0 66.168 53.832 120 120 120
c24.6123 0 47.5107 -7.45801 66.5742 -20.2188c-4.09961 -3.02246 -7.50879 -6.9248 -9.94434 -11.4316c-16.3535 10.5186 -35.7832 16.6504 -56.6299 16.6504c-57.8975 0 -105 -47.1025 -105 -105c0 -13.8213 2.71094 -27.0137 7.58398 -39.1113
c-4.93359 -1.56543 -9.38867 -4.21582 -13.0879 -7.66602z" />
    <glyph glyph-name="uniE01E" unicode="&#xe01e;" 
d="M224.267 72.21c5.27246 0.574219 10.1875 2.34473 14.4775 5.02832c0.813477 -5.63281 1.25586 -11.3838 1.25586 -17.2383c0 -66.168 -53.832 -120 -120 -120c-5.85449 0 -11.6055 0.442383 -17.2383 1.25684c2.68359 4.28906 4.45215 9.20605 5.02832 14.4766
c4.00977 -0.467773 8.07715 -0.733398 12.21 -0.733398c57.8975 0 105 47.1025 105 105c0 4.13281 -0.265625 8.2002 -0.733398 12.21zM48.4834 -16.7803c-3.51172 -3.70215 -6.21484 -8.17676 -7.81836 -13.1436c-24.9121 22.0049 -40.665 54.1504 -40.665 89.9238
c0 17.3818 3.74512 33.8975 10.4238 48.8232c3.61133 -3.52441 7.99121 -6.2627 12.8633 -7.94238c-5.33398 -12.5713 -8.28711 -26.3877 -8.28711 -40.8809c0 -30.2852 12.9043 -57.5986 33.4834 -76.7803zM55.3125 160.992
c18.6826 12.0088 40.877 19.0078 64.6875 19.0078c35.7734 0 67.9189 -15.7529 89.9238 -40.665c-4.9668 -1.60352 -9.44141 -4.30664 -13.1436 -7.81836c-19.1816 20.5791 -46.4951 33.4834 -76.7803 33.4834c-20.1211 0 -38.9307 -5.7002 -54.9209 -15.5537
c-2.37305 4.53125 -5.71973 8.47559 -9.7666 11.5459zM34.5 111c-12.4062 0 -22.5 10.0938 -22.5 22.5s10.0938 22.5 22.5 22.5s22.5 -10.0938 22.5 -22.5s-10.0938 -22.5 -22.5 -22.5zM220.5 84c-12.4062 0 -22.5 10.0938 -22.5 22.5s10.0938 22.5 22.5 22.5
s22.5 -10.0938 22.5 -22.5s-10.0938 -22.5 -22.5 -22.5zM73.5 -63c-12.4062 0 -22.5 10.0938 -22.5 22.5s10.0938 22.5 22.5 22.5s22.5 -10.0938 22.5 -22.5s-10.0938 -22.5 -22.5 -22.5z" />
    <glyph glyph-name="uniE01F" unicode="&#xe01f;" 
d="M97.5 60c0 12.4268 10.0732 22.5 22.5 22.5s22.5 -10.0732 22.5 -22.5s-10.0732 -22.5 -22.5 -22.5s-22.5 10.0732 -22.5 22.5zM49.8926 -10.1074l5.8623 33.8945l9.56152 -9.56152l26.3535 26.3525l8.9082 -8.9082l-26.3525 -26.3535l9.56152 -9.56152zM138.618 87.5283
l26.3516 26.3516l-9.56055 9.56152l33.8936 5.86133l-5.86133 -33.8936l-9.56152 9.56055l-26.3516 -26.3516zM120 -45c57.8975 0 105 47.1025 105 105s-47.1025 105 -105 105s-105 -47.1025 -105 -105s47.1025 -105 105 -105zM120 180c66.168 0 120 -53.832 120 -120
s-53.832 -120 -120 -120s-120 53.832 -120 120s53.832 120 120 120z" />
    <glyph glyph-name="uniE020" unicode="&#xe020;" 
d="M97.5 60c0 12.4268 10.0732 22.5 22.5 22.5s22.5 -10.0732 22.5 -22.5s-10.0732 -22.5 -22.5 -22.5s-22.5 10.0732 -22.5 22.5zM138.618 87.5283l26.3516 26.3516l-9.56055 9.56152l33.8936 5.86133l-5.86133 -33.8936l-9.56152 9.56055l-26.3516 -26.3516zM120 165
c-57.8975 0 -105 -47.1025 -105 -105s47.1025 -105 105 -105s105 47.1025 105 105s-47.1025 105 -105 105zM120 -60c-66.168 0 -120 53.832 -120 120s53.832 120 120 120s120 -53.832 120 -120s-53.832 -120 -120 -120z" />
    <glyph glyph-name="uniE021" unicode="&#xe021;" 
d="M97.5 60c0 12.4268 10.0732 22.5 22.5 22.5s22.5 -10.0732 22.5 -22.5s-10.0732 -22.5 -22.5 -22.5s-22.5 10.0732 -22.5 22.5zM120 -45c57.8975 0 105 47.1025 105 105s-47.1025 105 -105 105s-105 -47.1025 -105 -105s47.1025 -105 105 -105zM120 180
c66.168 0 120 -53.832 120 -120s-53.832 -120 -120 -120s-120 53.832 -120 120s53.832 120 120 120z" />
    <glyph glyph-name="uniE022" unicode="&#xe022;" 
d="M134.854 -39.7832c3.45898 -3.48438 8.07129 -5.40234 12.9883 -5.40234c5.01465 0 9.74414 1.98242 13.3184 5.58301c7.34473 7.39746 7.42383 19.3545 0.180664 26.6514c-3.45898 3.48438 -8.07227 5.40137 -12.9893 5.40137
c-5.0127 0 -9.74316 -1.98242 -13.3184 -5.58301c-7.34375 -7.39648 -7.4248 -19.3525 -0.179688 -26.6504zM147.845 -60c-8.89551 0 -17.2412 3.47266 -23.5039 9.78027c-12.958 13.0527 -12.877 34.3721 0.180664 47.5254
c3.01889 3.04108 6.50562 5.43567 10.2949 7.11421l-8.77631 39.7208l-83.0322 18.334l-16.501 16.6221l149.53 -33.0592c1.62909 3.68215 3.9431 7.13276 6.94131 10.1529c6.37695 6.42285 14.8418 9.96094 23.832 9.96094c8.89355 0 17.2412 -3.47363 23.501 -9.78125
c12.958 -13.0527 12.8789 -34.373 -0.179688 -47.5264c-6.375 -6.4209 -14.8398 -9.95996 -23.8311 -9.95996c-8.89453 0 -17.2412 3.47461 -23.502 9.78027c-6.79586 6.84554 -10.0059 15.9648 -9.6383 24.9875l-33.1957 7.39137l7.52283 -33.7863
c0.287709 0.00728193 0.576015 0.0109337 0.864867 0.0109337c8.89551 0 17.2412 -3.47266 23.5029 -9.78027c12.958 -13.0527 12.877 -34.374 -0.180664 -47.5254c-6.37598 -6.4248 -14.8389 -9.96191 -23.8301 -9.96191zM206.811 51.3379
c-5.0127 0 -9.74316 -1.9834 -13.3184 -5.58496c-7.34375 -7.39746 -7.42285 -19.3525 -0.179688 -26.6523c3.45898 -3.48438 8.07129 -5.40137 12.9883 -5.40137c5.01367 0 9.74414 1.9834 13.3184 5.58496c7.34473 7.39746 7.42383 19.3525 0.180664 26.6504
c-3.45898 3.4834 -8.07227 5.40332 -12.9893 5.40332zM110.821 111.327l-11.5586 46.7822l16.7666 -16.8887l5.05371 -19.5576zM136.598 60.0195l-13.3232 3.20801l-2.3418 9.20117l10.2529 10.3291zM182.334 138.744c-11.374 0 -20.6279 9.25293 -20.6279 20.6279
c0 11.374 9.25391 20.6279 20.6279 20.6279c11.375 0 20.6279 -9.25391 20.6279 -20.6279c0 -11.375 -9.25293 -20.6279 -20.6279 -20.6279zM20.6279 -22.9639c-11.374 0 -20.6279 9.25488 -20.6279 20.6299c0 11.374 9.25391 20.6279 20.6279 20.6279
c11.375 0 20.6279 -9.25391 20.6279 -20.6279c0 -11.375 -9.25293 -20.6299 -20.6279 -20.6299zM157.463 142.809c2.42383 -3.62988 5.61816 -6.70312 9.35254 -8.97852l-62.4844 -62.4854l-13.6064 4.72754zM72.7109 43.5664l2.59668 -1.24414l-29.1377 -29.1377
c-2.27734 3.73438 -5.35059 6.92871 -8.97852 9.35254l25.9004 25.9014l1.3291 -0.702148c2.69238 -1.42188 5.48047 -2.82617 8.29004 -4.16992z" />
    <glyph glyph-name="uniE023" unicode="&#xe023;" 
d="M195.555 60c0 12.4268 9.94922 22.5 22.2227 22.5s22.2227 -10.0732 22.2227 -22.5s-9.94922 -22.5 -22.2227 -22.5s-22.2227 10.0732 -22.2227 22.5zM91.8506 142.5c0 12.4268 9.9502 22.5 22.2227 22.5c12.2734 0 22.2227 -10.0732 22.2227 -22.5
s-9.94922 -22.5 -22.2227 -22.5c-12.2725 0 -22.2227 10.0732 -22.2227 22.5zM91.8506 -22.5c0 12.4268 9.9502 22.5 22.2227 22.5c12.2734 0 22.2227 -10.0732 22.2227 -22.5s-9.94922 -22.5 -22.2227 -22.5c-12.2725 0 -22.2227 10.0732 -22.2227 22.5zM81.4814 -22.5
c0 -1.32422 0.0859375 -2.62695 0.237305 -3.91016c-47.1514 10.8975 -81.7188 45.498 -81.7188 86.4102s34.5674 75.5127 81.7188 86.4102c-0.150391 -1.2832 -0.237305 -2.58594 -0.237305 -3.91016c0 -3.87793 0.668945 -7.59863 1.88867 -11.0576
c-39.7158 -9.67676 -68.5547 -38.0391 -68.5547 -71.4424s28.8389 -61.7656 68.5547 -71.4424c-1.21973 -3.45898 -1.88867 -7.17969 -1.88867 -11.0576zM203.734 89.7754c-11.0576 19.3828 -32.5635 34.5264 -59.0771 41.3154
c1.29883 3.55859 2.00977 7.40137 2.00977 11.4092c0 1.2041 -0.0693359 2.39355 -0.193359 3.56543c33.0371 -8.03809 59.6758 -27.7725 72.2793 -53.0908c-0.324219 0.0107422 -0.648438 0.0253906 -0.975586 0.0253906c-5.02441 0 -9.78711 -1.15918 -14.043 -3.22461z
M217.777 27c0.327148 0 0.651367 0.0146484 0.975586 0.0253906c-12.6035 -25.3164 -39.252 -45.04 -72.2793 -53.083c0.124023 1.16992 0.191406 2.35645 0.191406 3.55762c0 4.00488 -0.708984 7.84473 -2.00684 11.4004c26.5098 6.79004 48.0166 21.9414 59.0752 41.3242
c4.25684 -2.06543 9.01953 -3.22461 14.0439 -3.22461z" />
    <glyph glyph-name="uniE024" unicode="&#xe024;" 
d="M114.073 37.5c-12.2529 0 -22.2227 10.0938 -22.2227 22.5s9.96973 22.5 22.2227 22.5c12.2539 0 22.2227 -10.0938 22.2227 -22.5s-9.96875 -22.5 -22.2227 -22.5zM217.777 37.5c-12.2529 0 -22.2227 10.0938 -22.2227 22.5s9.96973 22.5 22.2227 22.5
c12.2539 0 22.2227 -10.0938 22.2227 -22.5s-9.96875 -22.5 -22.2227 -22.5zM114.073 -45c-12.2529 0 -22.2227 10.0938 -22.2227 22.5s9.96973 22.5 22.2227 22.5c12.2539 0 22.2227 -10.0938 22.2227 -22.5s-9.96875 -22.5 -22.2227 -22.5zM217.777 93
c-5.02441 0 -9.78711 -1.15918 -14.043 -3.22461c-15.165 26.5811 -49.9697 45.2246 -90.4004 45.2246c-54.3242 0 -98.5186 -33.6445 -98.5186 -75c0 -33.4033 28.8408 -61.7656 68.5547 -71.4424c-1.21973 -3.45898 -1.88867 -7.17969 -1.88867 -11.0576
c0 -1.32422 0.0869141 -2.62695 0.237305 -3.91016c-47.1514 10.8975 -81.7188 45.498 -81.7188 86.4102c0 49.626 50.8408 90 113.334 90c47.8369 0 88.8154 -23.6699 105.42 -57.0254c-0.325195 0.0107422 -0.649414 0.0253906 -0.976562 0.0253906z" />
    <glyph glyph-name="uniE025" unicode="&#xe025;" 
d="M114.073 120c-12.2529 0 -22.2227 10.0938 -22.2227 22.5s9.96973 22.5 22.2227 22.5c12.2539 0 22.2227 -10.0938 22.2227 -22.5s-9.96875 -22.5 -22.2227 -22.5zM114.073 37.5c-12.2529 0 -22.2227 10.0938 -22.2227 22.5s9.96973 22.5 22.2227 22.5
c12.2539 0 22.2227 -10.0938 22.2227 -22.5s-9.96875 -22.5 -22.2227 -22.5zM217.777 37.5c-12.2529 0 -22.2227 10.0938 -22.2227 22.5s9.96973 22.5 22.2227 22.5c12.2539 0 22.2227 -10.0938 22.2227 -22.5s-9.96875 -22.5 -22.2227 -22.5zM217.777 27
c0.327148 0 0.651367 0.0146484 0.976562 0.0253906c-16.6045 -33.3555 -57.583 -57.0254 -105.42 -57.0254c-62.4932 0 -113.334 40.374 -113.334 90c0 40.9121 34.5674 75.5127 81.7188 86.4102c-0.150391 -1.2832 -0.237305 -2.58594 -0.237305 -3.91016
c0 -3.87793 0.668945 -7.59863 1.88867 -11.0576c-39.7139 -9.67676 -68.5547 -38.0391 -68.5547 -71.4424c0 -41.3555 44.1943 -75 98.5186 -75c40.4307 0 75.2354 18.6436 90.4004 45.2246c4.25586 -2.06543 9.01855 -3.22461 14.043 -3.22461zM146.474 146.065
c33.0371 -8.03809 59.6758 -27.7725 72.2793 -53.0908c-0.324219 0.00878906 -0.648438 0.0253906 -0.975586 0.0253906c-5.02441 0 -9.78711 -1.15918 -14.043 -3.22461c-11.0576 19.3828 -32.5635 34.5264 -59.0771 41.3154
c1.29883 3.55859 2.00977 7.40137 2.00977 11.4092c0 1.2041 -0.0693359 2.39355 -0.193359 3.56543z" />
    <glyph glyph-name="uniE026" unicode="&#xe026;" 
d="M97.5 60c0 12.4268 10.0732 22.5 22.5 22.5s22.5 -10.0732 22.5 -22.5s-10.0732 -22.5 -22.5 -22.5s-22.5 10.0732 -22.5 22.5zM120 -15c57.8975 0 105 33.6445 105 75s-47.1025 75 -105 75s-105 -33.6445 -105 -75s47.1025 -75 105 -75zM120 150
c66.168 0 120 -40.374 120 -90s-53.832 -90 -120 -90s-120 40.374 -120 90s53.832 90 120 90z" />
    <glyph glyph-name="uniE027" unicode="&#xe027;" 
d="M45 135h150v-15v-15v-15v-15v-15v-15v-15v-15v-15v-15h-150v15v15v15v15v15v15v15v15v15v15zM210 -30v180h-180v-180h180zM240 150h-15v-180h15v-15h-15v-15h-15v15h-180v-15h-15v15h-15v15h15v180h-15v15h15v15h15v-15h180v15h15v-15h15v-15z" />
    <glyph glyph-name="uniE028" unicode="&#xe028;" 
d="M45 127.606l7.39355 7.39355h21.2129l-28.6064 -28.6064v21.2129zM178.606 135l-133.606 -133.606v21.2129l112.394 112.394h21.2129zM195 -6.10645l-8.89355 -8.89355h-21.2129l30.1064 30.1064v-21.2129zM112.394 -15l82.6064 82.6064v-21.2129l-61.3936 -61.3936
h-21.2129zM126.106 135l-81.1064 -81.1064v21.2129l59.8936 59.8936h21.2129zM195 120.106v-21.2129l-113.894 -113.894h-21.2129zM210 -30v180h-180v-180h180zM240 150h-15v-180h15v-15h-15v-15h-15v15h-180v-15h-15v15h-15v15h15v180h-15v15h15v15h15v-15h180v15h15v-15
h15v-15z" />
    <glyph glyph-name="uniE029" unicode="&#xe029;" 
d="M195 90v30h45v-30h-45zM135 90v30h30v-30h-30zM75 90v30h30v-30h-30zM135 30v30h105v-30h-105zM0 150v30h240v-30h-240zM180 -30v30h60v-30h-60zM105 -30v30h45v-30h-45zM0 -30v30h75v-30h-75zM0 30v30h105v-30h-105zM0 90v30h45v-30h-45z" />
    <glyph glyph-name="uniE02A" unicode="&#xe02a;" 
d="M202.38 49.2734l-86.3516 -86.3516l-10.6064 10.6064l86.3516 86.3516l-10.3486 10.3506l43.8516 12.5459l-12.5459 -43.8516zM7.5 -30c0 12.4268 10.0732 22.5 22.5 22.5s22.5 -10.0732 22.5 -22.5s-10.0732 -22.5 -22.5 -22.5s-22.5 10.0732 -22.5 22.5z
M218.398 169.005c2.71777 -4.26172 6.34473 -7.88867 10.6084 -10.6045l-169.905 -169.905c-2.71777 4.26172 -6.34375 7.88867 -10.6064 10.6064z" />
    <glyph glyph-name="uniE02B" unicode="&#xe02b;" 
d="M210 127.5c-12.4062 0 -22.5 10.0938 -22.5 22.5s10.0938 22.5 22.5 22.5s22.5 -10.0938 22.5 -22.5s-10.0938 -22.5 -22.5 -22.5zM30 -52.5c-12.4062 0 -22.5 10.0938 -22.5 22.5s10.0938 22.5 22.5 22.5s22.5 -10.0938 22.5 -22.5s-10.0938 -22.5 -22.5 -22.5z
M180.898 131.505c2.71777 -4.26172 6.34473 -7.88867 10.6064 -10.6064l-132.405 -132.405c-2.71777 4.26172 -6.34277 7.88867 -10.6064 10.6064z" />
    <glyph glyph-name="uniE02C" unicode="&#xe02c;" 
d="M75 60c0 24.8525 20.1475 45 45 45s45 -20.1475 45 -45s-20.1475 -45 -45 -45s-45 20.1475 -45 45z" />
    <glyph glyph-name="uniE02D" unicode="&#xe02d;" 
d="M202.5 117c-14.0605 0 -25.5 11.4395 -25.5 25.5s11.4395 25.5 25.5 25.5s25.5 -11.4395 25.5 -25.5s-11.4395 -25.5 -25.5 -25.5zM65.4229 86.5381c-14.0615 0 -25.5 11.4385 -25.5 25.5c0 14.0605 11.4385 25.5 25.5 25.5c14.0605 0 25.5 -11.4395 25.5 -25.5
c0 -14.0615 -11.4395 -25.5 -25.5 -25.5zM177.115 -17.5381c-14.0605 0 -25.5 11.4395 -25.5 25.5c0 14.0615 11.4395 25.5 25.5 25.5c14.0615 0 25.5 -11.4385 25.5 -25.5c0 -14.0605 -11.4385 -25.5 -25.5 -25.5zM37.5 -48c-14.0605 0 -25.5 11.4395 -25.5 25.5
s11.4395 25.5 25.5 25.5s25.5 -11.4395 25.5 -25.5s-11.4395 -25.5 -25.5 -25.5z" />
    <glyph glyph-name="uniE02E" unicode="&#xe02e;" 
d="M76.5 -37.5c0 -12.4062 -10.0938 -22.5 -22.5 -22.5s-22.5 10.0938 -22.5 22.5s10.0938 22.5 22.5 22.5s22.5 -10.0938 22.5 -22.5zM120 42c-12.4062 0 -22.5 10.0938 -22.5 22.5s10.0938 22.5 22.5 22.5s22.5 -10.0938 22.5 -22.5s-10.0938 -22.5 -22.5 -22.5z
M121.026 179.184l117.859 -85.6299l-45.0186 -138.554h-106.198c0.538086 2.41602 0.831055 4.9248 0.831055 7.5s-0.292969 5.08398 -0.831055 7.5h95.3008l38.2832 117.825l-100.227 72.8184l-100.228 -72.8184l29.5723 -91.0176
c-5.15918 -0.541016 -9.9834 -2.22266 -14.2148 -4.79102l-32.9912 101.537z" />
    <glyph glyph-name="uniE02F" unicode="&#xe02f;" 
d="M59.0898 -30h124.105l38.3506 118.032l-100.404 72.9482l-100.404 -72.9482zM194.093 -45h-145.902l-45.0869 138.761l118.038 85.7588l118.038 -85.7588zM97.5 64.5c0 12.4268 10.0732 22.5 22.5 22.5s22.5 -10.0732 22.5 -22.5s-10.0732 -22.5 -22.5 -22.5
s-22.5 10.0732 -22.5 22.5z" />
    <glyph glyph-name="uniE030" unicode="&#xe030;" 
d="M150 105c-12.4062 0 -22.5 10.0938 -22.5 22.5s10.0938 22.5 22.5 22.5s22.5 -10.0938 22.5 -22.5s-10.0938 -22.5 -22.5 -22.5zM22.5 -30c-12.4062 0 -22.5 10.0938 -22.5 22.5s10.0938 22.5 22.5 22.5s22.5 -10.0938 22.5 -22.5s-10.0938 -22.5 -22.5 -22.5zM150 -30
c-12.4062 0 -22.5 10.0938 -22.5 22.5s10.0938 22.5 22.5 22.5s22.5 -10.0938 22.5 -22.5s-10.0938 -22.5 -22.5 -22.5zM221.966 108.138c14.2148 -16.6621 20.3633 -38.7852 16.8691 -60.6953c-4.63281 -29.0449 -26.7607 -52.2539 -54.6855 -59.8193
c0.226562 1.59473 0.350586 3.2207 0.350586 4.87695c0 3.61328 -0.560547 7.09766 -1.5957 10.374c21.1035 6.73926 37.5732 24.6914 41.1191 46.9307c2.84277 17.8262 -1.94141 35.085 -13.4688 48.5967c-7.43945 8.71973 -17.1055 14.9863 -27.7979 18.291
c1.125 3.40234 1.74316 7.0332 1.74316 10.8076c0 1.4834 -0.105469 2.94336 -0.288086 4.37891c14.5596 -3.84473 27.7607 -12.0293 37.7539 -23.7412zM56.1689 -15c0.538086 2.41602 0.831055 4.9248 0.831055 7.5s-0.292969 5.08398 -0.831055 7.5h60.1621
c-0.538086 -2.41602 -0.831055 -4.9248 -0.831055 -7.5s0.292969 -5.08398 0.831055 -7.5h-60.1621z" />
    <glyph glyph-name="uniE031" unicode="&#xe031;" 
d="M217.5 105c-12.4062 0 -22.5 10.0938 -22.5 22.5s10.0938 22.5 22.5 22.5s22.5 -10.0938 22.5 -22.5s-10.0938 -22.5 -22.5 -22.5zM22.5 -30c-12.4062 0 -22.5 10.0938 -22.5 22.5s10.0938 22.5 22.5 22.5s22.5 -10.0938 22.5 -22.5s-10.0938 -22.5 -22.5 -22.5z
M217.5 93c2.5752 0 5.08398 0.292969 7.5 0.831055v-108.831h-168.831c0.538086 2.41602 0.831055 4.9248 0.831055 7.5s-0.292969 5.08398 -0.831055 7.5h153.831v93.8311c2.41602 -0.538086 4.9248 -0.831055 7.5 -0.831055zM15 26.1689v108.831h168.831
c-0.538086 -2.41602 -0.831055 -4.9248 -0.831055 -7.5s0.292969 -5.08398 0.831055 -7.5h-153.831v-93.8311c-2.41602 0.538086 -4.9248 0.831055 -7.5 0.831055s-5.08398 -0.292969 -7.5 -0.831055z" />
    <glyph glyph-name="uniE032" unicode="&#xe032;" 
d="M30 0h180v120h-180v-120zM225 -15h-210v150h210v-150zM97.5 60c0 12.4268 10.0732 22.5 22.5 22.5s22.5 -10.0732 22.5 -22.5s-10.0732 -22.5 -22.5 -22.5s-22.5 10.0732 -22.5 22.5z" />
    <glyph glyph-name="uniE033" unicode="&#xe033;" 
d="M120 90c-16.542 0 -30 -13.458 -30 -30s13.458 -30 30 -30s30 13.458 30 30s-13.458 30 -30 30zM120 15c-24.8135 0 -45 20.1865 -45 45s20.1865 45 45 45s45 -20.1865 45 -45s-20.1865 -45 -45 -45zM15 -30h169.631l40.3691 40.5947v139.405h-169.217l-40.7832 -44.1826
v-135.817zM190.869 -45h-190.869v156.683l49.2168 53.3174h190.783v-160.595z" />
    <glyph glyph-name="uniE034" unicode="&#xe034;" 
d="M178.99 41.8154c-20.3545 -10.5195 -41.7646 0.694336 -62.4707 11.541c-18.1035 9.48145 -35.2002 18.4395 -48.623 11.502c-13.8457 -7.15527 -24.8477 -31.2822 -32.8203 -71.8545c-3.87793 1.60547 -8.12402 2.49609 -12.5762 2.49609
c-0.75293 0 -1.49707 -0.0341797 -2.23535 -0.0859375c9.10547 46.6328 22.2803 73.2256 40.7461 82.7686c20.3564 10.5186 41.7646 -0.694336 62.4697 -11.5391c18.1035 -9.48145 35.2012 -18.4414 48.623 -11.502c13.8457 7.15527 24.8477 31.2822 32.8203 71.8545
c3.87793 -1.60547 8.12402 -2.49609 12.5762 -2.49609c0.75293 0 1.49707 0.0341797 2.23633 0.0839844c-9.10449 -46.6318 -22.2793 -73.2256 -40.7461 -82.7686zM217.5 135c-12.4062 0 -22.5 10.0938 -22.5 22.5s10.0938 22.5 22.5 22.5s22.5 -10.0938 22.5 -22.5
s-10.0938 -22.5 -22.5 -22.5zM52.5 105c-12.4062 0 -22.5 10.0938 -22.5 22.5s10.0938 22.5 22.5 22.5s22.5 -10.0938 22.5 -22.5s-10.0938 -22.5 -22.5 -22.5zM187.5 -30c-12.4062 0 -22.5 10.0938 -22.5 22.5s10.0938 22.5 22.5 22.5s22.5 -10.0938 22.5 -22.5
s-10.0938 -22.5 -22.5 -22.5zM22.5 -60c-12.4062 0 -22.5 10.0938 -22.5 22.5s10.0938 22.5 22.5 22.5s22.5 -10.0938 22.5 -22.5s-10.0938 -22.5 -22.5 -22.5z" />
    <glyph glyph-name="uniE035" unicode="&#xe035;" 
d="M162.188 19.6436c-3.39648 -4.05859 -5.83496 -8.94238 -6.9707 -14.3008c-12.9736 12.1445 -26.5938 30.4727 -41.2383 50.1875c-10.5283 14.1699 -23.1279 31.1309 -34.6123 43.2178c3.6123 3.78711 6.33301 8.42676 7.82715 13.5859
c12.249 -12.0967 25.0859 -29.3643 38.8262 -47.8613c11.0068 -14.8154 24.2744 -32.6738 36.168 -44.8291zM28.4131 102.684c3.1377 -4.50391 7.36816 -8.18945 12.3057 -10.6748c-0.996094 -3.45801 -1.97266 -7.43164 -2.90332 -12.0273
c-4.06836 -20.0684 -6.55566 -48.75 -7.44238 -85.4385c-2.52441 0.621094 -5.15918 0.957031 -7.87305 0.957031c-2.4541 0 -4.8418 -0.277344 -7.14258 -0.789062c0.885742 37.9229 3.44629 66.9766 7.75781 88.25c1.5293 7.55371 3.29395 14.0889 5.29785 19.7227z
M224.645 125.287c-0.886719 -37.9229 -3.44727 -66.9766 -7.75781 -88.249c-1.29297 -6.38086 -2.75098 -12.0361 -4.37988 -17.043c-3.46191 4.02246 -7.87402 7.2002 -12.8867 9.1875c0.878906 3.17285 1.73828 6.76074 2.56445 10.834
c4.06738 20.0693 6.55566 48.75 7.44238 85.4385c2.52441 -0.619141 5.15918 -0.955078 7.87305 -0.955078c2.4541 0 4.8418 0.277344 7.14453 0.787109zM217.5 135c-12.4062 0 -22.5 10.0938 -22.5 22.5s10.0938 22.5 22.5 22.5s22.5 -10.0938 22.5 -22.5
s-10.0938 -22.5 -22.5 -22.5zM55.5 99c-12.4062 0 -22.5 10.0938 -22.5 22.5s10.0938 22.5 22.5 22.5s22.5 -10.0938 22.5 -22.5s-10.0938 -22.5 -22.5 -22.5zM187.5 -24c-12.4062 0 -22.5 10.0938 -22.5 22.5s10.0938 22.5 22.5 22.5s22.5 -10.0938 22.5 -22.5
s-10.0938 -22.5 -22.5 -22.5zM22.5 -60c-12.4062 0 -22.5 10.0938 -22.5 22.5s10.0938 22.5 22.5 22.5s22.5 -10.0938 22.5 -22.5s-10.0938 -22.5 -22.5 -22.5z" />
    <glyph glyph-name="uniE036" unicode="&#xe036;" 
d="M15 165h210v-210h-168.831c0.538086 2.41602 0.831055 4.9248 0.831055 7.5s-0.292969 5.08398 -0.831055 7.5h153.831v180h-180v-153.831c-2.41602 0.538086 -4.9248 0.831055 -7.5 0.831055s-5.08398 -0.292969 -7.5 -0.831055v168.831zM120 37.5
c-12.4062 0 -22.5 10.0938 -22.5 22.5s10.0938 22.5 22.5 22.5s22.5 -10.0938 22.5 -22.5s-10.0938 -22.5 -22.5 -22.5zM22.5 -60c-12.4062 0 -22.5 10.0938 -22.5 22.5s10.0938 22.5 22.5 22.5s22.5 -10.0938 22.5 -22.5s-10.0938 -22.5 -22.5 -22.5z" />
    <glyph glyph-name="uniE037" unicode="&#xe037;" 
d="M30 -30h180v180h-180v-180zM225 -45h-210v210h210v-210zM97.5 60c0 12.4268 10.0732 22.5 22.5 22.5s22.5 -10.0732 22.5 -22.5s-10.0732 -22.5 -22.5 -22.5s-22.5 10.0732 -22.5 22.5z" />
    <glyph glyph-name="uniE038" unicode="&#xe038;" 
d="M24.4307 79.9736l46.957 -43.4023c1.90234 -1.75781 2.76172 -4.37207 2.27539 -6.91504l-12.04 -63.0371l55.1592 31.6035c2.28516 1.30957 5.08789 1.32422 7.38477 0.0400391l55.5 -30.9932l-12.7227 62.9043c-0.513672 2.53809 0.317383 5.16016 2.2002 6.9375
l46.4834 43.9199l-63.1572 7.21387c-2.59961 0.296875 -4.85547 1.92578 -5.95508 4.30078l-26.8652 58.0225l-26.2363 -58.3184c-1.07422 -2.38477 -3.3125 -4.03906 -5.90723 -4.36523zM51.1963 -55.5c-1.53125 0 -3.05859 0.467773 -4.35547 1.39453
c-2.38574 1.70117 -3.56152 4.63574 -3.01074 7.5127l14.3193 74.9746l-55.7402 51.5205c-2.14258 1.97949 -2.94141 5.02344 -2.05078 7.7998c0.892578 2.77832 3.31348 4.78613 6.20898 5.14941l74.8965 9.39453l31.249 69.4619
c1.20605 2.67871 3.8623 4.40723 6.7998 4.42383c2.99707 0.0283203 5.61328 -1.68457 6.8457 -4.34863l32 -69.1113l74.9922 -8.56445c2.89746 -0.332031 5.34277 -2.31348 6.26367 -5.08105s0.15625 -5.81836 -1.96484 -7.82227l-55.1787 -52.1338l15.1318 -74.8125
c0.580078 -2.87109 -0.5625 -5.81738 -2.92969 -7.54492c-2.36523 -1.72559 -5.52148 -1.91699 -8.0791 -0.491211l-66.0371 36.876l-65.6338 -37.6045c-1.15723 -0.665039 -2.44434 -0.993164 -3.72656 -0.993164zM97.5 49.5c0 12.4268 10.0732 22.5 22.5 22.5
s22.5 -10.0732 22.5 -22.5s-10.0732 -22.5 -22.5 -22.5s-22.5 10.0732 -22.5 22.5z" />
    <glyph glyph-name="uniE039" unicode="&#xe039;" 
d="M97.5 60c0 12.4268 10.0732 22.5 22.5 22.5s22.5 -10.0732 22.5 -22.5s-10.0732 -22.5 -22.5 -22.5s-22.5 10.0732 -22.5 22.5zM120 0c33.084 0 60 26.916 60 60s-26.916 60 -60 60s-60 -26.916 -60 -60s26.916 -60 60 -60zM120 135c41.3555 0 75 -33.6445 75 -75
s-33.6445 -75 -75 -75s-75 33.6445 -75 75s33.6445 75 75 75zM120 -45c57.8975 0 105 47.1025 105 105s-47.1025 105 -105 105s-105 -47.1025 -105 -105s47.1025 -105 105 -105zM120 180c66.168 0 120 -53.832 120 -120s-53.832 -120 -120 -120s-120 53.832 -120 120
s53.832 120 120 120z" />
    <glyph glyph-name="uniE03A" unicode="&#xe03a;" 
d="M28.5 45c-7.44336 0 -13.5 -6.05664 -13.5 -13.5v-63c0 -7.44336 6.05664 -13.5 13.5 -13.5h78c7.44336 0 13.5 6.05664 13.5 13.5v63c0 7.44336 -6.05664 13.5 -13.5 13.5h-78zM106.5 -60h-78c-15.7158 0 -28.5 12.7842 -28.5 28.5v63c0 15.7158 12.7842 28.5 28.5 28.5
h78c15.7158 0 28.5 -12.7842 28.5 -28.5v-2.82303l45 26.4236v-110.201l-45 26.4236v-2.82303c0 -15.7158 -12.7842 -28.5 -28.5 -28.5zM164.219 119.44l46.5762 29.46l-70.9982 13.0771l0.320012 -35.9565zM131.575 178.744l107.66 -19.8301l-12.291 -109.148
l-31.9443 -33.7773v21.8311l10.8087 11.4294l-10.8087 3.05298v15.5869l18.3077 -5.17141l8.4902 75.395l-48.8916 -30.9238l-0.842469 -32.8198l7.51044 -2.12165l-9.70682 -5.69969l-13.2072 -7.75636l0.110576 4.31156l-22.5715 6.37594l-3.26074 -2.03125
c-5.08398 3.4668 -10.9326 5.87891 -17.2402 6.93457l11.8125 7.35645l-0.29233 32.8013l-63.8385 17.4301l7.36035 -56.9697h-15.124l-9.32617 72.1758zM135 11.2824v-22.5648l30 -17.617v57.7988zM157.168 78.5768l0.693738 27.0501l-17.6059 4.80701l0.241615 -27.1478z
M124.81 160.346l-47.4957 -17.1778l47.765 -13.0413z" />
    <glyph glyph-name="uniE03B" unicode="&#xe03b;" 
d="M124.312 15v15h18.75v-15h-18.75zM83.0625 27.375c-13.957 0 -25.3125 -11.3555 -25.3125 -25.3125s11.3555 -25.3125 25.3125 -25.3125s25.3125 11.3555 25.3125 25.3125s-11.3555 25.3125 -25.3125 25.3125zM83.0625 -38.25
c-22.2285 0 -40.3125 18.084 -40.3125 40.3125s18.084 40.3125 40.3125 40.3125s40.3125 -18.084 40.3125 -40.3125s-18.084 -40.3125 -40.3125 -40.3125zM15 -45h135v90h-32.4238l-7.03223 15h-50.4648l-7.03125 -15h-38.0479v-90zM165 -60h-165v120h43.5137l7.03223 15
h69.5332l7.03223 -15h37.8887v-120zM164.219 119.44l46.5762 29.46l-70.9982 13.0771l0.320008 -35.9565zM131.575 178.744l107.66 -19.8301l-12.291 -109.148l-46.9443 -49.6377v21.8311l25.8092 27.2898l-25.8092 7.29028v15.5869l33.3078 -9.4087l8.49009 75.3941
l-48.8916 -30.9248l-0.826172 -32.1865h-2.25293h-12.752h-20.4297l-7.03027 15h-4.17773l-0.218817 24.5395l-63.8388 17.4302l5.42285 -41.9697h-15.125l-7.3877 57.1758zM157.167 78.5758l0.694349 27.0511l-17.6059 4.80702l0.241629 -27.1498zM124.81 160.346
l-47.4958 -17.1778l47.7652 -13.0414z" />
    <glyph glyph-name="uniE03C" unicode="&#xe03c;" 
d="M31.0518 14.416c0.0166016 -1.17871 0.1875 -3.24707 0.839844 -6.73047c1.23633 -6.61328 6.9043 -15.7695 17.4961 -13.8984c4.25488 0.753906 7.11719 2.15234 8.50293 4.15625c1.4375 2.07812 1.74219 5.40918 0.902344 9.90332
c-1.18262 6.32129 -2.10352 9.15918 -2.65137 10.417c-1.01465 -0.185547 -2.47266 -0.556641 -3.7207 -0.873047c-2.14355 -0.543945 -4.81055 -1.22168 -7.93652 -1.77539c-4.0791 -0.72168 -7.57715 -0.886719 -10.3877 -1.01758
c-0.956055 -0.0449219 -2.11816 -0.0986328 -3.04492 -0.181641zM46.5146 -21.4756c-15.9131 0 -26.835 12.8564 -29.3682 26.4062c-1.55664 8.33105 -1.8418 14.8291 1.8252 19.4619c3.71094 4.6875 9.1582 4.94336 14.4248 5.18848
c2.50488 0.117188 5.34277 0.250977 8.46973 0.804688c2.58301 0.457031 4.85449 1.03516 6.8584 1.54297c5.15527 1.31152 10.4863 2.66406 15.4639 -0.515625c5.21094 -3.33008 7.30469 -9.88379 9.34766 -20.8115c1.60156 -8.57227 0.487305 -15.7031 -3.3125 -21.1934
c-3.74805 -5.41602 -9.87891 -8.91309 -18.2217 -10.3906c-1.88672 -0.333984 -3.71875 -0.493164 -5.4873 -0.493164zM35.9238 104.991c-0.801758 0 -1.63379 -0.0722656 -2.50098 -0.226562c-4.26758 -0.755859 -8.71973 -4.08789 -12.2178 -9.1416
c-5.23145 -7.56152 -7.3252 -17.5898 -5.59863 -26.8271c1.38672 -7.42383 3.24707 -16.248 5.71777 -21.5684c4.4873 1.69336 9.4082 3.06934 13.8613 3.85938c4.97656 0.881836 11.1611 1.16699 16.9531 0.799805c3.12988 9.14844 3.5293 20.9072 2.21484 27.9404
c-1.46191 7.82715 -6.09961 25.1641 -18.4297 25.1641zM19.9141 31.4355c-3.92383 0 -7.70215 1.92773 -9.94043 5.36426c-3.67969 5.64551 -6.23438 13.8428 -9.11133 29.2402c-2.48242 13.2832 0.438477 27.1777 8.00977 38.1201
c5.84473 8.44336 13.6338 13.9053 21.9346 15.375c14.6914 2.60254 32.46 -5.74219 38.292 -36.9541c1.80957 -9.67676 1.34766 -25.9004 -3.9375 -38.6553c-1.95215 -4.71094 -6.94336 -7.65137 -12.1094 -7.1582c-5.07422 0.488281 -10.918 0.31543 -15.249 -0.451172
c-4.19629 -0.744141 -9.13184 -2.21289 -13.2002 -3.92871c-1.52539 -0.643555 -3.11816 -0.952148 -4.68848 -0.952148zM92.7559 -21.4961c-0.365234 -1.35352 -0.870117 -4.27734 -1.17383 -10.4873c-0.443359 -9.07031 2.53809 -12.4678 11.3926 -12.9854
c3.88281 -0.229492 7.16602 0.842773 9.76953 3.18359c3.19824 2.87207 5.33105 7.65723 5.56641 12.4902c0.180664 3.66699 0.0546875 5.7627 -0.0986328 6.91211c-0.954102 -0.0214844 -2.18262 -0.108398 -3.18262 -0.178711
c-2.80664 -0.196289 -6.29883 -0.442383 -10.4385 -0.199219c-3.1748 0.185547 -5.91016 0.546875 -8.10938 0.837891c-1.24512 0.164062 -2.69531 0.355469 -3.72559 0.426758zM103.996 -60c-0.626953 0 -1.25781 0.0195312 -1.89551 0.0556641
c-17.0488 0.996094 -26.3428 11.4541 -25.5 28.6934c0.542969 11.0986 1.7373 17.8652 6.48633 21.8262c4.55469 3.80176 10.0479 3.0752 15.3594 2.37305c2.05957 -0.272461 4.39258 -0.580078 7.01855 -0.733398c3.18164 -0.188477 6.01562 0.0117188 8.51758 0.1875
c5.2373 0.369141 10.6572 0.74707 14.917 -3.4248c4.21777 -4.12793 4.80762 -10.584 4.39551 -19.0049c-0.430664 -8.81641 -4.36719 -17.3828 -10.5273 -22.917c-5.1582 -4.63574 -11.6162 -7.05566 -18.7715 -7.05566zM106.039 13.6172
c1.11816 0 2.20215 -0.0302734 3.24023 -0.0898438c4.5 -0.264648 9.53906 -1.04883 14.1943 -2.19629c1.69043 5.55762 2.32812 14.4346 2.69238 21.8926c0.916992 18.75 -12.9307 33.1709 -22.7129 33.7441c-3.61133 0.213867 -6.58594 -0.771484 -9.07324 -3.00488
c-4.71875 -4.23926 -7.62109 -12.7695 -8.17188 -24.0205c-0.349609 -7.16699 1.66602 -18.8721 6.06348 -27.6113c4.55176 0.833008 9.41309 1.28613 13.7676 1.28613zM125.427 -4.29102c-1.11426 0 -2.24805 0.155273 -3.37207 0.477539
c-4.27637 1.23242 -9.37793 2.11523 -13.6514 2.36621c-4.4043 0.258789 -10.2197 -0.250977 -15.1855 -1.3252c-5.10742 -1.1084 -10.2725 1.14355 -12.8506 5.5957c-6.96484 12.0146 -9.62012 28.0439 -9.1416 37.8506c0.757812 15.501 5.29883 27.4131 13.1318 34.4473
c5.46289 4.90723 12.375 7.26367 19.9707 6.82129c18.4678 -1.08008 38.1387 -22.458 36.8203 -49.4521c-0.763672 -15.623 -2.18848 -24.0664 -5.08008 -30.1162c-1.99219 -4.16699 -6.16699 -6.66504 -10.6416 -6.66504zM164.219 119.44l46.5762 29.46l-70.9982 13.0771
l0.320008 -35.9565zM131.575 178.744l107.66 -19.8281l-12.291 -109.149l-62.7031 -66.2998l-17.4307 7.87402c1.07129 1.41016 2.01172 2.93652 2.79004 4.56543c1.3252 2.77051 2.39844 5.74121 3.2793 9.15137l2.37305 -1.07227l0.581055 22.6055
c0.107422 1.64941 0.208008 3.35547 0.296875 5.16699c0.109375 2.24316 0.107422 4.44922 0.00585938 6.61621l0.634066 24.7261l-7.75223 2.18994c-5.64551 11.0225 -14.1191 19.748 -23.5859 25.2324l-0.214095 24.0171l-63.8386 17.4302l0.788086 -6.0957
c-5.56543 4.29102 -11.2695 6.58984 -16.1328 7.80273l-1.74512 13.499zM140.255 110.434l0.241629 -27.1498l16.6705 -4.70936l0.693715 27.0521zM124.81 160.346l-47.4957 -17.1778l47.7651 -13.0413zM171.668 58.8918l-1.20582 -47.0198l35.3463 37.3753z
M213.308 62.7155l8.49029 75.3958l-48.8916 -30.9248l-0.841669 -32.82z" />
    <glyph glyph-name="uniE03D" unicode="&#xe03d;" 
d="M165 -60h-136.363l-28.6367 28.3301v91.6699h90v-45h75v-75zM176.155 180l63.8447 -65.2998v-174.7h-60v15h45v150h-60v60h-90v-90h-15v105h116.155zM15 15h60v30h-60v-30zM15 -9.26342e-16v-25.4082l19.8027 -19.5918h40.1973v45zM90 0v-45h60v45h-60z" />
    <glyph glyph-name="uniE03E" unicode="&#xe03e;" 
d="M90.7969 -58.5332l-79.041 35.7031l-11.3408 87.7578l65.8486 23.8154l81.0967 -14.9375l-9.27148 -82.3359zM176.155 180l63.8447 -65.2998v-174.7h-100.5v15h85.5v150h-60v60h-90v-67.5h-15v82.5h116.155zM129.924 53.0108l-31.2812 -19.7877l-0.547999 -21.3551
l26.358 -7.44566zM118.914 63.7956l-44.4265 8.18259l0.198522 -22.3188l15.2845 -4.17305zM97.0167 -30.1268l19.9376 21.0806l-19.2571 5.43969zM33.4391 60.9208l26.2088 -7.15564l-0.147495 16.582zM17.5057 49.7231l7.09341 -54.9035l35.377 22.0353l-0.189668 21.3233
zM81.8083 -38.0145l0.990928 38.6164l-14.1352 3.99288l-34.1263 -21.2571zM74.8242 34.0721l0.139383 -15.6701l8.23276 -2.3256l0.400317 15.6003z" />
    <glyph glyph-name="uniE03F" unicode="&#xe03f;" 
d="M123.176 17.9941c11.8213 6.91602 34.5088 27.3242 34.5088 27.3242l-50.7646 52.1816s-20.5293 -22.8662 -28.8018 -34.4502zM35.5078 28.2598c0.477539 -2.95605 0.71875 -6.20801 0.71875 -9.68652c0 -10.6271 -2.22412 -23.8074 -5.48834 -35.3256l10.8008 12.1294
c-1.11523 5.85645 0.631836 12.0312 4.89648 16.4043c3.41992 3.50391 7.97852 5.43262 12.8359 5.43262c4.85645 0 9.41309 -1.92871 12.834 -5.43262c6.9502 -7.12207 6.9502 -18.7109 0 -25.833c-4.3252 -4.43164 -10.4482 -6.25098 -16.2744 -5.09473l-11.7701 -10.235
c14.3959 4.31622 31.4298 7.00596 43.5318 4.98985c9.22949 15.4141 21.1523 33.1934 26.8486 41.5723l-37.2383 37.2393c-8.30078 -5.33984 -26.1279 -16.7109 -41.6953 -26.1602zM12.8174 -59.043c-1.48926 0 -2.82324 0.25 -4.02148 0.573242
c-4.24219 1.14453 -6.02832 2.93652 -7.13672 7.1123c-0.31543 1.18066 -0.461914 2.28906 -0.461914 3.39648c0 4.81445 2.6875 9.76953 8.46094 15.5938c4.30273 4.34082 13.0654 30.6602 13.0654 50.9414c0 3.12598 -0.234375 5.9541 -0.696289 8.40137l-1.51172 7.99219
l6.94141 4.20215c18.4655 11.1766 40.9735 25.6431 45.9351 28.8588c8.78468 11.9862 27.6835 33.0633 28.5073 33.9801l4.8252 5.375l60.6934 -62.3896l-5.21875 -4.69336c-0.914091 -0.822682 -21.7977 -19.567 -34.2888 -27.3304
c-3.95807 -5.76806 -18.7307 -27.4657 -29.3772 -45.3679l-4.22266 -7.0957l-8.06836 1.62695c-18.168 3.66895 -53.415 -8.07422 -58.6133 -13.3193c-6.16504 -6.2207 -10.9971 -7.85742 -14.8115 -7.85742zM176.155 180l63.8447 -65.2998v-174.7h-127.5v15h112.5v150h-60
v60h-90v-75h-15v90h116.155zM87.0355 63.6813l37.061 -37.061c7.67526 5.32519 17.7482 13.8307 23.799 19.0789l-40.7441 41.8848c-5.36888 -6.10747 -14.1044 -16.1954 -20.1158 -23.9027z" />
    <glyph glyph-name="uniE040" unicode="&#xe040;" 
d="M108.593 -22.5479c0 3.8252 -0.533203 7.2168 -1.58594 10.0771c-1.01367 2.75488 -2.35938 4.98535 -4.10938 6.81543c-1.71094 1.78809 -3.71582 3.11719 -6.13281 4.06543c-2.52539 0.990234 -5.41797 1.49219 -8.5918 1.49219h-12.8369v-44.9023h12.8369
c3.17578 0 6.06738 0.50293 8.59375 1.49414c2.41504 0.946289 4.41992 2.27734 6.12891 4.06348c1.75195 1.83105 3.09766 4.06152 4.11133 6.81934c1.05176 2.8584 1.58594 6.24902 1.58594 10.0752zM121.085 -7.28711
c1.66309 -4.53125 2.50586 -9.66309 2.50586 -15.2598c0 -5.59766 -0.842773 -10.7305 -2.50586 -15.2529c-1.71777 -4.66504 -4.19043 -8.70508 -7.35059 -12.0088c-3.20117 -3.34668 -7.06836 -5.92578 -11.4912 -7.65918
c-4.27832 -1.67871 -9.01172 -2.5293 -14.0703 -2.5293h-27.8369v74.9053h27.8369c5.05664 0 9.78906 -0.850586 14.0684 -2.52832c4.42871 -1.7373 8.29395 -4.31445 11.4951 -7.66113c3.1582 -3.30273 5.63184 -7.34375 7.34863 -12.0059zM178.9 -25.3682
c1.57324 -2.74512 2.37207 -6.02051 2.36816 -9.73438c0 -3.37988 -0.607422 -6.60938 -1.80566 -9.59863c-1.22852 -3.06738 -3.03711 -5.78613 -5.37695 -8.08105c-2.32715 -2.2793 -5.16309 -4.07812 -8.43359 -5.34766
c-3.18555 -1.23828 -6.77344 -1.86719 -10.6631 -1.86719c-2.58887 0 -4.98926 0.235352 -7.13379 0.700195c-2.21191 0.478516 -4.29492 1.19336 -6.19238 2.12402c-1.88379 0.925781 -3.64551 2.06738 -5.23633 3.39453
c-1.43164 1.19238 -3.60645 3.34961 -4.94727 4.90723l11.3643 9.79004c0.78418 -0.912109 2.39551 -2.51562 3.19141 -3.17969c0.685547 -0.571289 1.41504 -1.04297 2.23535 -1.44629c0.805664 -0.394531 1.73438 -0.708008 2.75977 -0.929688
c1.10547 -0.239258 2.4375 -0.360352 3.95996 -0.360352c2.02246 0 3.7832 0.285156 5.23047 0.847656c1.3877 0.540039 2.4873 1.21973 3.36523 2.0791c0.857422 0.839844 1.49805 1.80469 1.95508 2.94727c0.491211 1.22363 0.729492 2.53906 0.729492 4.02051
c0 1.49023 -0.292969 2.11621 -0.382812 2.27246c-0.392578 0.681641 -0.893555 1.24414 -1.53223 1.71289c-0.912109 0.668945 -2.01074 1.24121 -3.26562 1.7041c-1.83008 0.671875 -3.70117 1.31641 -5.55664 1.91211
c-2.05762 0.661133 -4.10938 1.36035 -6.10059 2.0791c-2.54199 0.916016 -4.85938 2.10547 -6.88574 3.53516c-2.33301 1.6416 -4.25391 3.7041 -5.71094 6.12598c-1.62402 2.70508 -2.44629 5.93164 -2.44629 9.59082c0 2.77051 0.540039 5.46777 1.60352 8.02051
c1.08398 2.60156 2.68164 4.91406 4.74707 6.87793c2.01953 1.91699 4.48535 3.44727 7.3291 4.54785c2.79492 1.08203 5.94629 1.63086 9.36719 1.63086c2.14746 0 4.13184 -0.19043 5.89355 -0.568359c1.72363 -0.37207 3.29883 -0.860352 4.69141 -1.4541
c1.44238 -0.616211 2.73145 -1.31934 3.83691 -2.09668c0.917969 -0.646484 1.69141 -1.24805 2.36621 -1.8418c0.349609 -0.30957 1.21387 -1.13477 1.87793 -1.77441l0.594727 -0.572266l-10.1807 -11.0176c-0.123047 0.114258 -0.442383 0.420898 -0.825195 0.789062
c-0.486328 0.469727 -1.11035 1.07422 -1.3877 1.32324c-0.165039 0.142578 -0.499023 0.416016 -1.07227 0.820312c-0.137695 0.0976562 -0.472656 0.306641 -1.10059 0.575195c-0.500977 0.212891 -1.17773 0.415039 -1.9502 0.582031
c-0.713867 0.152344 -1.66699 0.235352 -2.74512 0.235352c-1.56152 0 -2.8916 -0.208984 -3.95215 -0.620117c-1.00977 -0.390625 -1.82129 -0.873047 -2.41211 -1.43555c-0.548828 -0.523438 -0.954102 -1.10352 -1.23438 -1.77539
c-0.301758 -0.723633 -0.449219 -1.45996 -0.449219 -2.24707c0 -1.29297 0.254883 -1.78223 0.306641 -1.86621c0.37793 -0.62793 0.866211 -1.15039 1.49219 -1.58984c0.932617 -0.658203 2.05469 -1.22559 3.33594 -1.6875
c1.8252 -0.658203 3.71094 -1.30078 5.60254 -1.9082c2.05078 -0.658203 4.11719 -1.37109 6.14355 -2.11523c2.57715 -0.949219 4.91699 -2.18848 6.95996 -3.68652c2.32812 -1.70703 4.23535 -3.8418 5.67188 -6.34375zM47.7725 -7.65332
c0 -6.00293 -2.21777 -11.1182 -6.2793 -14.9756c4.0127 -3.89258 6.2793 -8.96973 6.2793 -14.7178c0 -10.4512 -6.32422 -22.6533 -24.1475 -22.6533c-16.9561 0 -23.585 11.4658 -24.1084 21.2852l14.9775 0.799805c0.267578 -4.96582 2.99707 -7.08496 9.13086 -7.08496
c4.25879 0 9.14746 0.870117 9.14746 7.65332c0 3.625 -3.78027 6.47559 -9.86328 7.43848l-1.90918 0.302734v14.2109l1.90918 0.302734c9.86328 1.56348 9.86328 5.98535 9.86328 7.43848c0 6.7832 -4.88867 7.65332 -9.14746 7.65332
c-6.13379 0 -8.86523 -2.11914 -9.13086 -7.08594l-14.9775 0.799805c0.525391 9.82031 7.1543 21.2861 24.1084 21.2861c17.8232 0 24.1475 -12.2021 24.1475 -22.6533zM176.155 180l63.8447 -65.2998v-174.7h-45v15h30v150h-60v60h-90v-127.5h-15v142.5h116.155z" />
    <glyph glyph-name="uniE041" unicode="&#xe041;" 
d="M163.854 -22.5c0 3.91016 -0.496094 7.37988 -1.47363 10.3125c-0.920898 2.75684 -2.18555 5.07422 -3.75781 6.88477c-1.5 1.72852 -3.24023 3.00488 -5.31934 3.9043c-2.17578 0.941406 -4.57129 1.39844 -7.32129 1.39844h-10.9814v-45h10.9814
c2.75 0 5.14551 0.457031 7.32129 1.39844c2.08105 0.898438 3.81934 2.17578 5.31934 3.9043c1.57324 1.81152 2.83789 4.12793 3.75879 6.8877c0.976562 2.92969 1.47266 6.39746 1.47266 10.3096zM178.854 -22.5c0 -5.5293 -0.753906 -10.5947 -2.24512 -15.0596
c-1.5498 -4.63965 -3.78906 -8.66699 -6.6582 -11.9717c-2.96387 -3.41602 -6.5625 -6.05273 -10.6934 -7.83887c-4.03516 -1.74512 -8.50195 -2.62988 -13.2734 -2.62988h-25.9834v75h25.9814c4.77051 0 9.23535 -0.884766 13.2734 -2.62988
c4.13379 -1.78809 7.73242 -4.4248 10.6963 -7.83984c2.86816 -3.30469 5.10742 -7.33105 6.65723 -11.9688c1.48926 -4.4668 2.24512 -9.53418 2.24512 -15.0615zM89.5322 -24l-3.25488 9.34473l-3.25195 -9.34473h6.50684zM94.0049 8.75684l22.0576 -63.3223
l-14.1641 -4.93359l-7.1416 20.499h-16.9521l-7.13184 -20.4971l-14.166 4.92871l22.2041 63.7646c0.114258 0.273438 0.366211 0.943359 0.370117 0.956055l1.83203 4.84766h10.8691l1.76562 -5.00586c0.00585938 -0.0175781 0.197266 -0.566406 0.307617 -0.839844z
M42.3916 -39.1621l11.2188 -9.95801c-1.33691 -1.50684 -2.79492 -2.90332 -4.33203 -4.14941c-1.66211 -1.34668 -3.49707 -2.51562 -5.4541 -3.47363c-1.96094 -0.961914 -4.11914 -1.71973 -6.41602 -2.25293c-2.30859 -0.53418 -4.82715 -0.804688 -7.49512 -0.804688
c-4.54395 0 -8.82422 0.950195 -12.7246 2.82031c-3.88477 1.86328 -7.28125 4.56445 -10.0938 8.03125c-2.69824 3.32715 -4.80762 7.34375 -6.26562 11.9395c-1.40625 4.43164 -2.11914 9.41895 -2.11914 14.8232c0 5.24121 0.713867 10.1396 2.12207 14.5586
c1.45996 4.58008 3.58691 8.61035 6.32129 11.9775c2.84277 3.50098 6.30957 6.25098 10.3018 8.17285c4.0127 1.92871 8.4502 2.90625 13.1885 2.90625c2.16016 0 4.24805 -0.196289 6.2041 -0.585938c2.01465 -0.400391 3.96387 -1.01465 5.79004 -1.82422
c1.76367 -0.78418 3.4707 -1.75488 5.08203 -2.88574c1.51758 -1.06836 3.0166 -2.31055 4.45508 -3.68848l-10.3877 -10.8232c-0.892578 0.856445 -1.7998 1.61133 -2.69727 2.24316c-0.8125 0.571289 -1.66895 1.06055 -2.54102 1.44727
c-0.808594 0.358398 -1.69336 0.635742 -2.625 0.820312c-0.99707 0.198242 -2.09961 0.298828 -3.28027 0.298828c-2.50488 0 -4.69238 -0.466797 -6.6875 -1.42676c-2.0127 -0.967773 -3.7002 -2.31152 -5.1582 -4.1084
c-1.5498 -1.9082 -2.78418 -4.28809 -3.67383 -7.07715c-0.9375 -2.94434 -1.41406 -6.31152 -1.41406 -10.0049c0 -3.86426 0.476562 -7.32422 1.41602 -10.2852c0.887695 -2.80078 2.10645 -5.16504 3.61816 -7.0293c1.42188 -1.75195 3.03418 -3.04688 4.93066 -3.95508
c1.88867 -0.90625 3.92773 -1.3457 6.23926 -1.3457c1.53223 0 2.91504 0.139648 4.10938 0.415039c1.17969 0.274414 2.25977 0.649414 3.2002 1.11035c0.948242 0.464844 1.82617 1.02148 2.61035 1.65723c0.900391 0.735352 1.76074 1.56055 2.55762 2.45703z
M176.155 180l63.8447 -65.2998v-174.7h-45v15h30v150h-60v60h-90v-127.5h-15v142.5h116.155z" />
    <glyph glyph-name="uniE042" unicode="&#xe042;" 
d="M180 -45v-15h-45v75h15v-60h30zM104.219 -1.84473c-1.90234 0.899414 -3.99512 1.33789 -6.39648 1.33887c-2.36523 0 -4.42773 -0.439453 -6.30566 -1.3418c-1.88672 -0.908203 -3.48047 -2.1875 -4.86719 -3.90625
c-1.48242 -1.83594 -2.67383 -4.16895 -3.54297 -6.93164c-0.922852 -2.93262 -1.39062 -6.34375 -1.39062 -10.1367c0 -3.81934 0.46582 -7.23438 1.38672 -10.1504c0.867188 -2.74707 2.05566 -5.0625 3.5332 -6.88379
c1.38281 -1.70508 2.96973 -2.96875 4.85254 -3.86523c1.88477 -0.897461 3.95703 -1.33398 6.33301 -1.33398c2.4043 0 4.49805 0.438477 6.39844 1.33984c1.89062 0.893555 3.48047 2.1582 4.86035 3.85938c1.47754 1.82129 2.66504 4.13574 3.53223 6.88184
c0.919922 2.91797 1.3877 6.33496 1.3877 10.1523c0 3.82031 -0.467773 7.24512 -1.39062 10.1807c-0.868164 2.76074 -2.06055 5.09375 -3.54297 6.92969c-1.37793 1.70996 -2.96387 2.97461 -4.84766 3.86719zM110.643 -57.2715
c-3.89844 -1.84766 -8.21191 -2.78418 -12.8213 -2.78125c-4.5918 0 -8.89062 0.9375 -12.7783 2.78906c-3.8916 1.85254 -7.27539 4.5293 -10.0576 7.95996c-2.66895 3.29004 -4.75098 7.2666 -6.1875 11.8154c-1.38379 4.37891 -2.08398 9.31348 -2.08398 14.667
c0 5.32227 0.700195 10.248 2.08203 14.6387c1.43457 4.56055 3.5127 8.5459 6.17676 11.8486c2.77832 3.44141 6.15625 6.13477 10.041 8.00391c3.89844 1.87402 8.20703 2.82324 12.8076 2.82324c4.60938 0 8.92285 -0.9375 12.8213 -2.78418
c3.91211 -1.85547 7.30957 -4.54785 10.0986 -8.00293c2.66406 -3.30078 4.74121 -7.28809 6.17676 -11.8477c1.38184 -4.39551 2.08203 -9.33301 2.08203 -14.6807c0 -5.35254 -0.700195 -10.2871 -2.08398 -14.667c-1.43652 -4.55078 -3.51855 -8.52637 -6.1875 -11.8174
c-2.78516 -3.43359 -6.17969 -6.11426 -10.0859 -7.96484zM34.2197 -59.8203c-4.83203 0 -9.38867 0.897461 -13.5439 2.66699c-4.21582 1.7959 -7.91699 4.41797 -11.001 7.79395c-3.03027 3.31641 -5.40137 7.33789 -7.05176 11.9551
c-1.60156 4.4834 -2.41406 9.53027 -2.41406 14.9932c0 5.30078 0.8125 10.2568 2.41797 14.7295c1.65137 4.60059 4.04395 8.63379 7.11426 11.9912c3.11816 3.41113 6.89844 6.08105 11.2334 7.93457c4.27832 1.82715 9.00879 2.75391 14.0605 2.75391
c2.30176 0 4.52441 -0.185547 6.60352 -0.551758c2.14355 -0.37793 4.21777 -0.958008 6.16016 -1.72461c1.89746 -0.75 3.74121 -1.68066 5.48242 -2.7666c1.66699 -1.04199 3.3125 -2.25293 4.89355 -3.60156l-9.7334 -11.4111
c-1.02148 0.871094 -2.06543 1.64258 -3.10547 2.29004c-0.96875 0.604492 -1.99316 1.12207 -3.04199 1.53613c-1.00488 0.395508 -2.10254 0.702148 -3.25781 0.904297c-1.22266 0.21582 -2.56934 0.325195 -4.00098 0.325195
c-3.05664 0 -5.72852 -0.506836 -8.16699 -1.54785c-2.38672 -1.01953 -4.36816 -2.41309 -6.05762 -4.2627c-1.74512 -1.90918 -3.07422 -4.17773 -4.06445 -6.93457c-1.02051 -2.84277 -1.53613 -6.09473 -1.53613 -9.66406
c0 -3.74023 0.517578 -7.08594 1.54102 -9.94531c0.974609 -2.73047 2.32129 -5.04785 4.00195 -6.88672c1.64844 -1.80469 3.5459 -3.14844 5.80273 -4.10938c2.31738 -0.989258 4.82617 -1.46875 7.66504 -1.46875c1.8457 0 3.51953 0.151367 4.97461 0.451172
c1.43652 0.295898 2.74902 0.700195 3.89941 1.20117c1.1377 0.495117 2.1875 1.08789 3.12305 1.75977c1.03418 0.746094 2.02246 1.58594 2.93164 2.49609l10.6064 -10.6064c-1.47754 -1.47754 -3.08398 -2.84375 -4.77441 -4.06152
c-1.80176 -1.29688 -3.78516 -2.41797 -5.89648 -3.33984c-2.09863 -0.913086 -4.40918 -1.63281 -6.86426 -2.13965c-2.45117 -0.50293 -5.14258 -0.759766 -8.00098 -0.759766zM176.155 180l63.8447 -65.2998v-174.7h-45v15h30v150h-60v60h-90v-127.5h-15v142.5h116.155z
" />
    <glyph glyph-name="uniE043" unicode="&#xe043;" 
d="M157.744 0v-14.667h21.3467v-15h-21.3467v-30.333h-15v35.834v9.49902v29.667h41.7559v-15h-26.7559zM120.735 16.5752l14.665 -3.15137l-15.7734 -73.4238h-12.3633l-8.68848 35.9668l-8.56348 -35.9668h-12.3867l-15.6514 73.2949l14.6689 3.13184l7.63379 -35.751
l8.12695 34.1338h12.2188l8.32617 -34.4688zM41.2129 -32.8691c0.955078 2.94824 1.44141 6.43652 1.44141 10.3672c0 3.93359 -0.486328 7.42285 -1.44336 10.3711c-0.898438 2.76953 -2.13184 5.09277 -3.66309 6.90625
c-1.44238 1.70996 -3.1123 2.97168 -5.10254 3.85645c-2.07031 0.920898 -4.35059 1.36816 -6.96973 1.36816h-10.4756v-45h10.4775c2.61914 0 4.89941 0.448242 6.96875 1.36816c1.99023 0.884766 3.65918 2.14453 5.10352 3.85645
c1.53125 1.81152 2.7627 4.13574 3.66309 6.90625zM49.0107 4.45215c2.78906 -3.30469 4.96484 -7.32422 6.4668 -11.9521c1.44434 -4.44727 2.17676 -9.49512 2.17676 -15.002c0 -5.50781 -0.732422 -10.5547 -2.17578 -15.001
c-1.50098 -4.62793 -3.67773 -8.64746 -6.46777 -11.9521c-2.89746 -3.43359 -6.4209 -6.08691 -10.4727 -7.88672c-3.97168 -1.76465 -8.36719 -2.66016 -13.0625 -2.66016h-25.4756v75h25.4756c4.69434 0 9.08887 -0.893555 13.0605 -2.65918
c4.05371 -1.80176 7.57715 -4.45508 10.4746 -7.88672zM176.155 180l63.8447 -65.2998v-174.7h-45v15h30v150h-60v60h-90v-127.5h-15v142.5h116.155z" />
    <glyph glyph-name="uniE044" unicode="&#xe044;" 
d="M161.449 -59.5605c-2.06543 -0.397461 -4.25781 -0.59668 -6.52148 -0.598633c-4.93848 0 -9.49219 0.922852 -13.5352 2.74023c-4.12793 1.85547 -7.68066 4.56641 -10.5566 8.05664c-2.75977 3.34863 -4.88672 7.39355 -6.32129 12.0225
c-1.36914 4.41211 -2.0625 9.37793 -2.0625 14.7607c0 5.34375 0.685547 10.2881 2.03711 14.6963c1.4209 4.63086 3.5332 8.67773 6.2793 12.0293c2.84668 3.47363 6.3418 6.18555 10.3877 8.05859c4.00293 1.85449 8.49414 2.79492 13.3438 2.79492
c2.2666 0 4.40527 -0.170898 6.36133 -0.508789c2.07422 -0.358398 4.05176 -0.920898 5.87891 -1.6709c1.87793 -0.772461 3.66406 -1.77246 5.31543 -2.97266c1.51562 -1.10254 2.99414 -2.39551 4.40137 -3.84277l-10.7598 -10.4521
c-0.8125 0.837891 -1.64355 1.56738 -2.4668 2.16602c-0.682617 0.498047 -1.4209 0.912109 -2.19336 1.22852c-0.813477 0.333008 -1.73145 0.59082 -2.72852 0.763672c-1.11328 0.191406 -2.39746 0.289062 -3.81055 0.289062
c-2.69336 0 -4.99609 -0.460938 -7.03906 -1.40723c-2.00391 -0.928711 -3.66895 -2.22168 -5.08984 -3.95508c-1.50391 -1.83594 -2.69531 -4.16406 -3.54004 -6.91992c-0.915039 -2.98145 -1.37793 -6.44629 -1.37793 -10.2988
c0 -3.87402 0.466797 -7.34668 1.38867 -10.3184c0.853516 -2.75879 2.05469 -5.08691 3.56836 -6.92383c1.41797 -1.7207 3.09668 -3 5.13184 -3.91504c2.09668 -0.943359 4.58105 -1.4209 7.38477 -1.4209c1.31641 0 2.55859 0.109375 3.68945 0.327148
c1.14746 0.220703 2.23926 0.532227 3.24316 0.923828c1.01367 0.396484 1.99805 0.884766 2.9248 1.45117c0.0722656 0.0429688 0.145508 0.0878906 0.217773 0.132812v9.87012h-7.82129v15h22.8213v-32.3535l-2.83203 -2.25098
c-1.46387 -1.16309 -2.99512 -2.23828 -4.55664 -3.19434c-1.68164 -1.02734 -3.46191 -1.90918 -5.29688 -2.62598c-1.85254 -0.722656 -3.8252 -1.28906 -5.86523 -1.68164zM125.478 13.4834l-15.2031 -73.6455h-12.4521l-8.09375 34.877l-7.97852 -34.877h-12.4756
l-15.082 73.5107l14.6934 3.01465l7.08496 -34.5293l7.54199 32.9678h12.3135l7.73047 -33.3145l7.23145 35.0273zM15 -45.1572h9.81348c2.44336 0 4.56738 0.433594 6.49609 1.32617c1.875 0.866211 3.4541 2.11133 4.82715 3.80371
c1.47852 1.82422 2.6709 4.16699 3.54297 6.96289c0.931641 2.9834 1.40234 6.5127 1.40234 10.4863c0 3.97168 -0.470703 7.50195 -1.40234 10.4883c-0.87207 2.79395 -2.06445 5.13574 -3.54297 6.96094c-1.37305 1.69238 -2.95215 2.9375 -4.82715 3.80566
c-1.92773 0.892578 -4.05273 1.32617 -6.49609 1.32617h-9.81348v-45.1602zM24.8135 -60.1572h-24.8135v75.1572h24.8135c4.59961 0 8.90527 -0.912109 12.7949 -2.71191c3.94434 -1.82715 7.36914 -4.50781 10.1768 -7.96973
c2.68262 -3.30566 4.77344 -7.32422 6.21289 -11.9424c1.38184 -4.43555 2.08398 -9.46582 2.08398 -14.9541s-0.700195 -10.5195 -2.08203 -14.9521c-1.44043 -4.62012 -3.53125 -8.63867 -6.21484 -11.9443c-2.80957 -3.46387 -6.23242 -6.14355 -10.1768 -7.96973
c-3.88867 -1.80078 -8.19336 -2.71289 -12.7949 -2.71289zM176.155 180l63.8447 -65.2998v-174.7h-45v15h30v150h-60v60h-90v-127.5h-15v142.5h116.155z" />
    <glyph glyph-name="uniE045" unicode="&#xe045;" 
d="M145.001 0v-15h24.499v-15h-24.499v-30h-15v35.501v9.49902v30h45.499v-15h-30.499zM120.318 8.12109l-17.8125 -30.6768l17.8125 -30.6768l-12.9707 -7.53125l-13.5156 23.2744l-13.5146 -23.2744l-12.9707 7.53125l17.8125 30.6768l-17.8125 30.6768l12.9707 7.53125
l13.5146 -23.2734l13.5156 23.2734zM46.7441 -32.5947c1.05469 2.86328 1.58887 6.25879 1.58887 10.0967c0 3.83398 -0.53418 7.22949 -1.58887 10.0947c-1.0166 2.7627 -2.36328 4.99805 -4.12012 6.83398c-1.71289 1.79102 -3.72461 3.12402 -6.14355 4.07422
c-2.53223 0.992188 -5.42871 1.49512 -8.6123 1.49512h-12.8682v-45h12.8672c3.18262 0 6.08105 0.503906 8.61133 1.49707c2.4209 0.948242 4.42969 2.28125 6.14551 4.07422c1.75684 1.83398 3.10352 4.07031 4.12012 6.83398zM53.4629 4.79883
c3.16504 -3.30957 5.63965 -7.35449 7.35938 -12.0225c1.66602 -4.5293 2.51074 -9.66895 2.51074 -15.2764c0 -5.6084 -0.844727 -10.7471 -2.51074 -15.2764c-1.71973 -4.66895 -4.19434 -8.71289 -7.35938 -12.0225
c-3.20703 -3.35352 -7.07812 -5.93359 -11.5049 -7.66895c-4.28223 -1.68066 -9.02441 -2.53223 -14.0898 -2.53223h-27.8682v75h27.8682c5.06445 0 9.80469 -0.851562 14.0879 -2.53223c4.42969 -1.73828 8.30176 -4.31836 11.5068 -7.66895zM176.155 180l63.8447 -65.2998
v-174.7h-45v15h30v150h-60v60h-90v-127.5h-15v142.5h116.155z" />
    <glyph glyph-name="uniE046" unicode="&#xe046;" 
d="M175.863 7.91504l-19.0215 -30.4717l19.0215 -30.4727l-12.7246 -7.94238l-15.1377 24.25l-15.1387 -24.25l-12.7246 7.94238l19.0215 30.4727l-19.0215 30.4717l12.7246 7.94336l15.1387 -24.251l15.1377 24.251zM96.666 -37.1426
c0 1.05371 -0.157227 1.7666 -0.583984 2.62793c-0.40625 0.824219 -0.975586 1.51758 -1.74121 2.12109c-0.876953 0.691406 -2.04297 1.25098 -3.45996 1.66309c-1.66699 0.484375 -3.60449 0.730469 -5.76074 0.730469h-1.99805h-8.12207v-15h10.0322
c2.30859 0 4.3457 0.240234 6.05566 0.712891c1.39746 0.384766 2.53418 0.920898 3.38672 1.59082c0.683594 0.539062 1.17188 1.17676 1.53711 2.00586c0.324219 0.733398 0.654297 1.72754 0.654297 3.54785zM75 -15h8.12402c2.36133 0 4.2793 0.288086 5.7002 0.855469
c1.36816 0.545898 2.43164 1.19043 3.16016 1.91699c0.577148 0.574219 1.09961 1.41602 1.43555 2.31152c0.335938 0.896484 0.505859 1.74121 0.505859 2.50488c0 3.68652 -1.45117 4.89844 -1.92773 5.2959c-1.63184 1.36523 -4.94238 2.11523 -9.32129 2.11523h-7.67676
v-15zM109.534 -27.874c1.43555 -2.90918 2.13184 -5.94043 2.13184 -9.26855c0 -3.5625 -0.612305 -6.6123 -1.92773 -9.5957c-1.35742 -3.08008 -3.37012 -5.68555 -5.9834 -7.74219c-2.42676 -1.91016 -5.3457 -3.3457 -8.6748 -4.26562
c-3.00684 -0.832031 -6.38965 -1.25391 -10.0498 -1.25391h-25.0303v30v15v30h22.6768c8.11328 0 14.4844 -1.88379 18.9346 -5.59961c4.78516 -3.99609 7.31445 -9.80859 7.31445 -16.8115c0 -2.56543 -0.491211 -5.17676 -1.45801 -7.7627
c-0.805664 -2.15234 -1.93945 -4.15332 -3.31934 -5.89941c2.26465 -1.90039 4.08887 -4.1748 5.38574 -6.80078zM0 15h42.499v-15h-27.499v-15h21.499v-15h-21.499v-30h-15v35.501v9.49902v30zM176.155 180l63.8447 -65.2998v-174.7h-45v15h30v150h-60v60h-90v-127.5h-15
v142.5h116.155z" />
    <glyph glyph-name="uniE047" unicode="&#xe047;" 
d="M167.236 -25.4639c1.57031 -2.73438 2.36523 -6.00293 2.36426 -9.70801c0 -3.37109 -0.606445 -6.59082 -1.7998 -9.57129c-1.22559 -3.05762 -3.03027 -5.76953 -5.36426 -8.05859c-2.31934 -2.27246 -5.14648 -4.06445 -8.40625 -5.33203
c-3.18164 -1.23633 -6.75879 -1.86133 -10.6328 -1.86133c-2.58008 0 -4.97266 0.233398 -7.1123 0.697266c-2.21387 0.481445 -4.29102 1.19434 -6.17676 2.11914c-1.87793 0.920898 -3.63574 2.06152 -5.22168 3.38574
c-1.42773 1.18945 -3.59375 3.33887 -4.92871 4.88672l11.3643 9.79102c0.77832 -0.904297 2.38184 -2.50098 3.17676 -3.16406c0.666992 -0.557617 1.41309 -1.03906 2.2168 -1.43359c0.800781 -0.393555 1.72266 -0.703125 2.74707 -0.925781
c1.09473 -0.235352 2.41895 -0.356445 3.93457 -0.356445c2.00977 0 3.75977 0.283203 5.20117 0.842773c1.37402 0.53418 2.4668 1.20898 3.33789 2.0625c0.850586 0.833984 1.48633 1.79199 1.93945 2.9248c0.487305 1.21484 0.724609 2.52344 0.724609 3.99316
c0 1.47559 -0.286133 2.09277 -0.375 2.24512c-0.391602 0.679688 -0.887695 1.23633 -1.51953 1.7002c-0.90625 0.662109 -1.99805 1.23438 -3.24414 1.69336c-1.8291 0.671875 -3.69238 1.31348 -5.53223 1.9043c-2.03906 0.654297 -4.08496 1.35156 -6.07812 2.07031
c-2.54004 0.916992 -4.84766 2.10156 -6.86719 3.52539c-2.32812 1.63965 -4.24609 3.69727 -5.69727 6.11328c-1.61914 2.69629 -2.44043 5.91504 -2.44043 9.56445c0 2.7627 0.539062 5.45508 1.60059 8.00098c1.08008 2.59082 2.67285 4.90039 4.73535 6.85938
c2.01465 1.91113 4.47168 3.43652 7.30859 4.53418c2.79102 1.08008 5.93359 1.62598 9.3418 1.62598c2.14355 0 4.12012 -0.191406 5.87891 -0.568359c1.71094 -0.367188 3.2832 -0.854492 4.6748 -1.44824c1.43164 -0.611328 2.7168 -1.3125 3.82227 -2.08984
c0.920898 -0.649414 1.69043 -1.24707 2.3623 -1.83789c0.349609 -0.308594 1.21094 -1.13184 1.87207 -1.76953l0.592773 -0.567383l-10.1777 -11.0186c-0.123047 0.112305 -0.442383 0.417969 -0.823242 0.786133c-0.483398 0.46582 -1.10254 1.06641 -1.37988 1.31543
c-0.164062 0.142578 -0.498047 0.415039 -1.06934 0.818359c-0.132812 0.0917969 -0.46582 0.300781 -1.08496 0.564453c-0.50293 0.214844 -1.1748 0.416992 -1.9375 0.580078c-0.495117 0.106445 -1.37402 0.234375 -2.72852 0.234375
c-1.55176 0 -2.87305 -0.207031 -3.92871 -0.615234c-0.999023 -0.386719 -1.80469 -0.865234 -2.3916 -1.42188c-0.542969 -0.515625 -0.943359 -1.09082 -1.21875 -1.75488c-0.300781 -0.719727 -0.446289 -1.44727 -0.446289 -2.22949
c0 -1.27734 0.250977 -1.75879 0.300781 -1.84277c0.373047 -0.623047 0.856445 -1.1377 1.47559 -1.57422c0.925781 -0.652344 2.04004 -1.21582 3.31641 -1.67676c1.8252 -0.658203 3.70215 -1.29883 5.57715 -1.90039
c2.03516 -0.654297 4.09375 -1.36328 6.12012 -2.10742c2.56641 -0.943359 4.89844 -2.17969 6.9375 -3.67383c2.32324 -1.70508 4.22656 -3.83398 5.65918 -6.33105zM84.1533 -32.1572v15.002h25.4004v-32.5322l-3.30859 -2.23047
c-1.66797 -1.12305 -3.41309 -2.16016 -5.1875 -3.08105c-1.87207 -0.970703 -3.85938 -1.80566 -5.90332 -2.48242c-2.03906 -0.674805 -4.21875 -1.2041 -6.47168 -1.57227c-2.25977 -0.369141 -4.67383 -0.556641 -7.17285 -0.556641
c-5.44141 0 -10.4531 0.859375 -14.8965 2.55371c-4.61523 1.75879 -8.61133 4.35449 -11.875 7.71289c-3.2373 3.32715 -5.74219 7.37793 -7.44629 12.0371c-1.63965 4.48633 -2.47168 9.53223 -2.47168 15.002c0 5.43164 0.821289 10.4561 2.44336 14.9365
c1.6875 4.66211 4.17773 8.71484 7.39941 12.0479c3.23242 3.3457 7.16699 5.94336 11.6943 7.7207c4.39746 1.72559 9.32617 2.59961 14.6543 2.59961c2.51465 0 4.87988 -0.15918 7.03223 -0.473633c2.26758 -0.333008 4.4248 -0.853516 6.41406 -1.54688
c2.05469 -0.716797 4.02637 -1.65137 5.85449 -2.7793c1.71582 -1.05957 3.40039 -2.30762 5.00879 -3.71094l-9.86621 -11.2998c-0.988281 0.864258 -2.00391 1.61816 -3.01758 2.24414c-0.904297 0.557617 -1.88672 1.02246 -2.91895 1.38281
c-1.09375 0.380859 -2.32227 0.673828 -3.65137 0.868164c-1.43262 0.208984 -3.06738 0.31543 -4.85645 0.31543c-3.44531 0 -6.53125 -0.526367 -9.17383 -1.56348c-2.54785 -1 -4.63867 -2.36914 -6.3916 -4.18262c-1.76855 -1.83008 -3.10254 -4.03125 -4.0791 -6.72754
c-1.02734 -2.83984 -1.54785 -6.14746 -1.54785 -9.83301c0 -3.70508 0.525391 -7.01855 1.56055 -9.84863c0.986328 -2.7002 2.33203 -4.90234 4.1123 -6.7334c1.75684 -1.80664 3.87012 -3.16406 6.46387 -4.15234c2.7334 -1.04102 5.94629 -1.56934 9.55469 -1.56934
c1.69238 0 3.29297 0.12207 4.75977 0.360352c1.47559 0.240234 2.87695 0.579102 4.16992 1.00781c1.29785 0.428711 2.54297 0.953125 3.70996 1.55762c0.134766 0.0703125 0.269531 0.140625 0.40332 0.212891v9.31445h-10.3994zM15 14.6641h15v-74.6641h-15v74.6641z
M176.155 180l63.8447 -65.2998v-174.7h-45v15h30v150h-60v60h-90v-127.5h-15v142.5h116.155z" />
    <glyph glyph-name="uniE048" unicode="&#xe048;" 
d="M172.5 15v-48.2715c0 -4.03516 -0.537109 -7.68555 -1.5957 -10.8447c-1.13477 -3.38281 -2.80078 -6.29883 -4.95215 -8.66895c-2.23926 -2.46582 -4.95605 -4.33301 -8.0752 -5.55176c-2.90723 -1.13184 -6.08594 -1.70703 -9.45215 -1.70703
c-2.44922 0 -6.31445 1.03223 -15.9043 4.24414l-1.1084 0.370117l4.69824 14.2461l1.17383 -0.391602c7.54688 -2.52734 10.3896 -3.29004 11.417 -3.46387c1.38477 0.0273438 2.63672 0.253906 3.72559 0.679688c0.953125 0.37207 1.74512 0.913086 2.41797 1.65625
c0.749023 0.823242 1.36719 1.95215 1.83594 3.35547c0.542969 1.62012 0.819336 3.66406 0.819336 6.07812v48.2695h15zM111.622 -40.6484c0.324219 0.724609 0.65625 1.70801 0.65625 3.50586c0 1.03613 -0.15918 1.73633 -0.584961 2.58594
c-0.413086 0.823242 -0.996094 1.51953 -1.7793 2.12695c-0.907227 0.702148 -2.11035 1.27148 -3.57617 1.69043c-1.71582 0.490234 -3.70898 0.739258 -5.92383 0.739258h-2.03027h-8.38379v-15h10.3262c2.36816 0 4.46094 0.241211 6.2207 0.719727
c1.44238 0.393555 2.62207 0.9375 3.50391 1.62012c0.700195 0.542969 1.2002 1.18262 1.57129 2.01172zM90 0v-15h8.38379c2.43164 0 4.41016 0.293945 5.87988 0.871094c1.41113 0.553711 2.50977 1.20801 3.2627 1.94629
c0.587891 0.574219 1.11816 1.41406 1.45801 2.30469c0.335938 0.885742 0.506836 1.71777 0.506836 2.46777c0 3.64941 -1.47363 4.86035 -1.95801 5.25781c-0.977539 0.803711 -3.52734 2.15234 -9.60254 2.15234h-7.93066zM119.667 -21.0615
c2.28125 -1.89258 4.12207 -4.15527 5.43262 -6.7666c1.46582 -2.92383 2.17871 -5.96973 2.17871 -9.31348c0 -3.5293 -0.643555 -6.68262 -1.96875 -9.63867c-1.37988 -3.08105 -3.42285 -5.68359 -6.07324 -7.73535
c-2.45215 -1.90039 -5.39844 -3.32617 -8.75684 -4.23828c-3.03906 -0.826172 -6.45703 -1.24609 -10.1553 -1.24609h-25.3242v30v15v30h22.9307c8.31152 0 14.5664 -1.81836 19.123 -5.56152c4.86621 -3.99609 7.4375 -9.82227 7.4375 -16.8496
c0 -2.58008 -0.500977 -5.2041 -1.48828 -7.80078c-0.811523 -2.13379 -1.95312 -4.11523 -3.33594 -5.84961zM48.5596 -32.7266c0.96582 2.91602 1.45605 6.33398 1.45801 10.1562c0 3.8252 -0.490234 7.25195 -1.45801 10.1865
c-0.915039 2.77441 -2.1748 5.12207 -3.74414 6.97656c-1.48828 1.75781 -3.21191 3.06445 -5.26953 3.99414c-2.10254 0.951172 -4.41895 1.41309 -7.0752 1.41309c-2.61816 0 -4.90234 -0.463867 -6.98242 -1.41797c-2.05859 -0.943359 -3.78809 -2.2627 -5.28613 -4.0332
c-1.56934 -1.85254 -2.8291 -4.19824 -3.74219 -6.97168c-0.969727 -2.93457 -1.45996 -6.34668 -1.45996 -10.1465c0 -3.82422 0.489258 -7.24121 1.45508 -10.1562c0.913086 -2.75977 2.16895 -5.08984 3.7334 -6.92871
c1.49219 -1.75488 3.21777 -3.05957 5.27246 -3.99316c2.08789 -0.947266 4.37988 -1.4082 7.00781 -1.4082c2.6582 0 4.97266 0.461914 7.07715 1.41309c2.0625 0.931641 3.79102 2.23633 5.28027 3.98828c1.56445 1.83887 2.82129 4.16992 3.7334 6.92773z
M56.2637 4.28125c2.81836 -3.3291 5.01758 -7.35449 6.54004 -11.9668c1.46875 -4.45215 2.21387 -9.46094 2.21387 -14.8867c0 -5.42676 -0.74707 -10.4307 -2.2168 -14.8721c-1.52246 -4.59961 -3.72656 -8.61426 -6.54785 -11.9316
c-2.91602 -3.42676 -6.45898 -6.09863 -10.5283 -7.9375c-4.03027 -1.81934 -8.48828 -2.74316 -13.2539 -2.74316c-4.74512 0 -9.1875 0.924805 -13.208 2.74902c-4.05078 1.83887 -7.58398 4.50781 -10.498 7.93359c-2.82324 3.31836 -5.02539 7.33398 -6.54785 11.9326
c-1.47168 4.43555 -2.2168 9.44043 -2.2168 14.8711c0 5.39941 0.745117 10.3936 2.21387 14.8457c1.51953 4.60742 3.71875 8.63379 6.53711 11.9639c2.91016 3.4375 6.43652 6.12305 10.4834 7.97852c4.0293 1.84668 8.48145 2.78223 13.2344 2.78223
c4.76562 0 9.22363 -0.923828 13.2539 -2.74316c4.07715 -1.84375 7.62305 -4.52734 10.541 -7.97559zM176.155 180l63.8447 -65.2998v-174.7h-45v15h30v150h-60v60h-90v-127.5h-15v142.5h116.155z" />
    <glyph glyph-name="uniE049" unicode="&#xe049;" 
d="M163.986 -9.2207c0 4.16602 -1.23047 5.70508 -2.43457 6.66211c-2.10645 1.67383 -5.72168 2.55859 -10.4521 2.55859h-6.0918v-18.9775h6.0918c2.17676 0 4.14453 0.291992 5.84863 0.871094c1.61719 0.547852 2.98926 1.28223 4.07812 2.18555
c0.742188 0.615234 1.54688 1.75977 2.20703 3.14062c0.506836 1.0625 0.75293 2.22656 0.75293 3.55957zM178.986 -9.2207c0 -3.56836 -0.746094 -6.93848 -2.21582 -10.0195c-1.12305 -2.35352 -3.1084 -5.69531 -6.18164 -8.23828
c-2.5 -2.07031 -5.4707 -3.69727 -8.82324 -4.83496c-3.25879 -1.10547 -6.84668 -1.66406 -10.666 -1.66406h-6.0918v-26.0225h-15v75h21.0918c8.27051 0 14.9277 -1.95605 19.7832 -5.81543c5.37598 -4.27344 8.10352 -10.4658 8.10352 -18.4053zM61.8047 0v15h49.9482
v-15h-17.3037v-59.6592h-15v59.6592h-17.6445zM49.5527 -26.0371c1.59277 -2.77832 2.39941 -6.0957 2.39941 -9.86426c0 -3.42969 -0.616211 -6.70801 -1.83008 -9.73926c-1.24902 -3.11523 -3.08496 -5.87207 -5.45801 -8.19922
c-2.3584 -2.31152 -5.23535 -4.13477 -8.55273 -5.4248c-3.23926 -1.25879 -6.88281 -1.89648 -10.833 -1.89648c-2.63086 0 -5.07031 0.240234 -7.25 0.710938c-2.25391 0.489258 -4.36914 1.21484 -6.28906 2.15723c-1.9082 0.935547 -3.69629 2.09375 -5.31152 3.44238
c-1.45801 1.21484 -3.66895 3.4082 -5.0332 4.99316l11.3643 9.78906c0.820312 -0.952148 2.44336 -2.56738 3.27734 -3.26367c0.698242 -0.582031 1.47461 -1.08398 2.31348 -1.49512c0.833984 -0.410156 1.79199 -0.733398 2.85742 -0.962891
c1.13574 -0.246094 2.50684 -0.37207 4.07227 -0.37207c2.08496 0 3.90137 0.294922 5.40039 0.875977c1.43359 0.557617 2.57422 1.2627 3.48535 2.15625c0.891602 0.875 1.55762 1.87695 2.03418 3.06445c0.506836 1.2666 0.75293 2.62891 0.75293 4.16113
c0 1.51953 -0.286133 2.18262 -0.40918 2.39746c-0.412109 0.71875 -0.939453 1.30762 -1.60938 1.79785c-0.942383 0.692383 -2.07715 1.28418 -3.375 1.76172c-1.86328 0.685547 -3.77734 1.34375 -5.67871 1.95605c-2.12012 0.680664 -4.21387 1.39453 -6.22559 2.12109
c-2.58105 0.929688 -4.93359 2.13672 -6.99023 3.58789c-2.36523 1.66504 -4.3125 3.75586 -5.78613 6.20996c-1.64258 2.73535 -2.47559 6.00098 -2.47559 9.70898c0 2.80859 0.547852 5.54297 1.625 8.12695c1.09766 2.63477 2.71582 4.97852 4.81055 6.96777
c2.0459 1.94434 4.54492 3.49512 7.42871 4.61133c2.83887 1.09766 6.03516 1.6543 9.50781 1.6543c2.18164 0 4.19531 -0.195312 5.98633 -0.577148c1.74414 -0.375 3.34277 -0.87207 4.75879 -1.47461c1.45801 -0.623047 2.76465 -1.33691 3.88867 -2.12598
c0.93457 -0.658203 1.71777 -1.26758 2.40137 -1.86719c0.356445 -0.313477 1.23438 -1.15332 1.90918 -1.80469l0.610352 -0.586914l-10.1738 -11.0215c-0.125977 0.115234 -0.455078 0.430664 -0.84668 0.808594c-0.498047 0.479492 -1.13379 1.09668 -1.41602 1.34961
c-0.170898 0.150391 -0.518555 0.435547 -1.1123 0.852539c-0.144531 0.101562 -0.49707 0.320312 -1.14648 0.598633c-0.53418 0.227539 -1.21484 0.431641 -2.02051 0.604492c-0.753906 0.160156 -1.71094 0.244141 -2.83887 0.244141
c-1.61426 0 -2.99316 -0.21582 -4.09375 -0.641602c-1.04688 -0.407227 -1.89355 -0.911133 -2.5127 -1.49902c-0.577148 -0.548828 -1.00195 -1.15918 -1.2959 -1.86621c-0.316406 -0.758789 -0.469727 -1.52832 -0.469727 -2.35449
c0 -1.32812 0.256836 -1.85742 0.334961 -1.9873c0.395508 -0.660156 0.90918 -1.20801 1.56738 -1.66992c0.962891 -0.677734 2.11914 -1.2627 3.44043 -1.74023c1.84863 -0.666992 3.77441 -1.32324 5.72559 -1.9502c2.09863 -0.674805 4.20605 -1.40039 6.26758 -2.15625
c2.61914 -0.964844 4.99316 -2.22363 7.06641 -3.74316c2.35645 -1.72656 4.29102 -3.88965 5.74805 -6.42578zM176.155 180l63.8447 -65.2998v-174.7h-45v15h30v150h-60v60h-90v-127.5h-15v142.5h116.155z" />
    <glyph glyph-name="uniE04A" unicode="&#xe04a;" 
d="M166.744 -32.5947c1.05469 2.86328 1.58887 6.25879 1.58887 10.0967c0 3.83398 -0.53418 7.22949 -1.58887 10.0947c-1.0166 2.7627 -2.36328 4.99805 -4.12012 6.83398c-1.71289 1.79102 -3.72461 3.12402 -6.14355 4.07422
c-2.53223 0.992188 -5.42871 1.49512 -8.6123 1.49512h-12.8682v-45h12.8672c3.18262 0 6.08105 0.503906 8.61133 1.49707c2.4209 0.948242 4.42969 2.28125 6.14551 4.07422c1.75684 1.83398 3.10352 4.07031 4.12012 6.83398zM180.822 -7.22363
c1.66602 -4.5293 2.51074 -9.66895 2.51074 -15.2744c0 -5.60938 -0.844727 -10.748 -2.51074 -15.2764c-1.71973 -4.66992 -4.19434 -8.71387 -7.35938 -12.0225c-3.20703 -3.35449 -7.07812 -5.93457 -11.5049 -7.66992
c-4.28223 -1.67969 -9.02441 -2.53125 -14.0898 -2.53125h-27.8682v75h27.8682c5.0625 0 9.80469 -0.852539 14.0879 -2.53223c4.42969 -1.73828 8.30176 -4.31836 11.5068 -7.66992c3.16504 -3.30859 5.63965 -7.35449 7.35938 -12.0234zM84.457 15
c17.8232 0 24.1455 -12.2021 24.1455 -22.6504c0 -6.00391 -2.2168 -11.1172 -6.27832 -14.9756c4.01367 -3.89258 6.27832 -8.96973 6.27832 -14.7178c0 -10.4512 -6.32324 -22.6533 -24.1465 -22.6533c-16.9541 0 -23.583 11.4658 -24.1084 21.2852l14.9775 0.799805
c0.265625 -4.9668 2.99707 -7.08594 9.13086 -7.08594c4.25879 0 9.14648 0.869141 9.14648 7.65234c0 3.62402 -3.77832 6.47461 -9.8623 7.43848l-4.24023 0.671875v13.4717l4.24219 0.673828c9.8623 1.56152 9.8623 5.98438 9.8623 7.43848
c0 6.7832 -4.88867 7.65332 -9.14746 7.65332c-6.13281 0 -8.86426 -2.12012 -9.12988 -7.08691l-14.9775 0.799805c0.523438 9.81934 7.15234 21.2852 24.1074 21.2852zM35.1738 -22.5566l17.8125 -30.6768l-12.9707 -7.53125l-13.5137 23.2734l-13.5146 -23.2734
l-12.9707 7.53125l17.8125 30.6768l-17.8145 30.6777l12.9707 7.53125l13.5156 -23.2734l13.5127 23.2734l12.9707 -7.53125zM176.155 180l63.8447 -65.2998v-174.7h-45v15h30v150h-60v60h-90v-127.5h-15v142.5h116.155z" />
    <glyph glyph-name="uniE04B" unicode="&#xe04b;" 
d="M180 165v-15h-15v15h15zM210 165v-15h-15v15h15zM195 96.9854v8.01465h45v-15v-135h-240v210h135h15v-75h-15v15h-6.51465l-36.4932 -36.4922l-8.48535 8.48535l36.4932 36.4922v6.51465h15v30h-120v-30h60v-15h-60v-75h45v-15h-45v-45h105v45h-15v15h60v-15h-30v-45h90
v120h-20.0146l-37.9932 -37.9932l-8.48535 8.48535zM225 120v15h15v-15h-15zM240 165v-15h-15v15h15z" />
    <glyph glyph-name="uniE04C" unicode="&#xe04c;" 
d="M45 157.5c0 -12.4062 -10.0938 -22.5 -22.5 -22.5s-22.5 10.0938 -22.5 22.5s10.0938 22.5 22.5 22.5s22.5 -10.0938 22.5 -22.5zM135 157.5c0 -12.4062 -10.0938 -22.5 -22.5 -22.5s-22.5 10.0938 -22.5 22.5s10.0938 22.5 22.5 22.5s22.5 -10.0938 22.5 -22.5z
M225 157.5c0 -12.4062 -10.0938 -22.5 -22.5 -22.5s-22.5 10.0938 -22.5 22.5s10.0938 22.5 22.5 22.5s22.5 -10.0938 22.5 -22.5zM45 67.5c0 -12.4062 -10.0938 -22.5 -22.5 -22.5s-22.5 10.0938 -22.5 22.5s10.0938 22.5 22.5 22.5s22.5 -10.0938 22.5 -22.5zM135 67.5
c0 -12.4062 -10.0938 -22.5 -22.5 -22.5s-22.5 10.0938 -22.5 22.5s10.0938 22.5 22.5 22.5s22.5 -10.0938 22.5 -22.5zM225 67.5c0 -12.4062 -10.0938 -22.5 -22.5 -22.5s-22.5 10.0938 -22.5 22.5s10.0938 22.5 22.5 22.5s22.5 -10.0938 22.5 -22.5zM45 -22.5
c0 -12.4062 -10.0938 -22.5 -22.5 -22.5s-22.5 10.0938 -22.5 22.5s10.0938 22.5 22.5 22.5s22.5 -10.0938 22.5 -22.5zM135 -22.5c0 -12.4062 -10.0938 -22.5 -22.5 -22.5s-22.5 10.0938 -22.5 22.5s10.0938 22.5 22.5 22.5s22.5 -10.0938 22.5 -22.5zM202.5 -45
c-12.4062 0 -22.5 10.0938 -22.5 22.5s10.0938 22.5 22.5 22.5s22.5 -10.0938 22.5 -22.5s-10.0938 -22.5 -22.5 -22.5z" />
    <glyph glyph-name="uniE04D" unicode="&#xe04d;" 
d="M160.273 57.75c-0.907227 0 -1.81641 0.00878906 -2.7334 0.0273438c-7.51172 0.148438 -15.0225 0.917969 -22.3223 2.28906l-6.78516 1.27441l0.104478 0.494645c-11.4415 2.37341 -21.7226 5.93725 -30.0781 10.4556l-4.45996 2.41016l7.2168 33.3438
l7.27637 -2.66113c8.51552 -3.11365 19.2437 -5.80168 28.9099 -7.28742l3.83324 -0.35906c4.32617 -0.407227 8.91309 -0.735352 14.0254 -1.00684c17.9922 -1.19824 28.2461 0.397461 33.3477 5.16895c3.44727 3.22461 5.12402 8.73633 5.12402 16.8467
c0 7.26855 -1.57812 12.2686 -4.82422 15.2861c-4.99805 4.64453 -15.2334 6.12793 -33.2051 4.8125c-3.85613 -0.206845 -7.35114 -0.448872 -10.6383 -0.737754l-1.82948 -0.213418c-14.2803 -1.66699 -25.5586 -4.13574 -33.5254 -7.33984l-7.03906 -2.83008
l-9.5166 34.9785l5.25293 2.36719c7.48188 3.36976 17.7616 6.28891 30.6332 8.70275l-0.139066 0.662484l6.85449 1.21973c6.59375 1.17188 13.752 2.12891 21.2773 2.8457c32.5371 3.09766 51.6992 -7.47266 62.0479 -16.8838
c11.9688 -10.8838 19.1143 -26.8008 19.1143 -42.5732c0 -15.8711 -5.67578 -29.8242 -16.4131 -40.3516c-13.8174 -13.5498 -35.5869 -20.9414 -61.5088 -20.9414zM109.276 154.872l2.53223 -9.3125c6.08441 1.83589 13.2364 3.37638 21.3892 4.61175
c-0.52665 3.79222 -1.05537 7.29353 -1.56247 10.3528c-8.9315 -1.66567 -16.4118 -3.55645 -22.359 -5.65207zM90 0v45h-45v-45h45zM165 0h30v-15h-30v-30h-15v30h-45v-30h-15v30h-45v-30h-15v30h-30v15h30v45h-30v15h30v45h-30v15h30v30h15v-30h43.4531l-3.24609 -15
h-40.207v-45h44.6533l1.66992 -0.901367c5.86035 -3.16992 12.415 -5.89648 19.5928 -8.15527l-0.318359 -1.51074l21.8506 -4.10742c0.648438 -0.121094 1.30664 -0.210938 1.95801 -0.325195h-29.4062v-45h45v43.1133
c2.41211 -0.162109 4.8252 -0.285156 7.24023 -0.333008c1.01758 -0.0214844 2.02637 -0.0302734 3.0332 -0.0302734c1.58984 0 3.16211 0.0390625 4.72656 0.0898438v-42.8398zM146.167 163.64c0.653524 -3.537 1.38543 -7.7417 2.02145 -11.7372
c2.13339 0.155176 4.34705 0.294098 6.66448 0.416768c16.4072 1.20312 33.1113 1.02441 43.248 -8.39746c6.14648 -5.71289 9.13379 -13.9473 9.13379 -25.1748c0 -12.0508 -3.0752 -20.7861 -9.40234 -26.7041c-8.16895 -7.64258 -21.1396 -10.2646 -43.3789 -8.78516
c-2.6771 0.141982 -5.23716 0.301832 -7.70752 0.480407c-0.0271177 -0.230553 -0.0543013 -0.461707 -0.0815472 -0.693298c-0.440074 -3.74483 -0.889481 -7.56336 -1.33326 -10.8881c4.12654 -0.504332 8.29942 -0.800279 12.4749 -0.88147
c23.4766 -0.450195 42.834 5.59375 54.5254 17.0566c8.20312 8.04297 12.3643 18.377 12.3643 30.7129c0 12.0342 -5.49414 24.2168 -14.6973 32.5859c-11.9482 10.8672 -29.8252 15.5107 -51.6846 13.4307c-4.18795 -0.398727 -8.25007 -0.874518 -12.1469 -1.42173z
M132.963 85.1436c-7.21899 1.22561 -14.8478 3.02304 -21.7833 5.1279l-1.80078 -8.32227c6.30703 -2.83996 13.7942 -5.19399 21.8704 -6.88101c0.632235 3.37314 1.20438 6.73719 1.71364 10.0754z" />
    <glyph glyph-name="uniE04E" unicode="&#xe04e;" 
d="M219.081 161.616c11.9688 -10.8838 19.1143 -26.8008 19.1143 -42.5732c0 -15.8711 -5.67578 -29.8242 -16.4131 -40.3516c-13.8174 -13.5479 -35.5869 -20.9395 -61.5088 -20.9395c-0.907227 0 -1.81641 0.00878906 -2.7334 0.0263672
c-7.51172 0.147461 -15.0225 0.917969 -22.3223 2.28906l-1.52734 0.286133l7.47754 37.3906l0.0673828 -0.00585938c4.32617 -0.404297 8.91309 -0.734375 14.0254 -1.00586c17.9922 -1.19922 28.2451 0.397461 33.3477 5.16895
c3.44727 3.22461 5.12402 8.73535 5.12402 16.8457c0 7.26953 -1.57812 12.2686 -4.82422 15.2871c-4.99609 4.64258 -15.2334 6.12695 -33.2051 4.81152c-5.29785 -0.283203 -9.91406 -0.633789 -14.2461 -1.08105l-0.375 -0.0390625l-5.88379 37.8301l0.557617 0.0986328
c6.59375 1.17188 13.752 2.12891 21.2773 2.8457c32.5371 3.09766 51.6992 -7.47266 62.0479 -16.8838zM129.296 99.5742l-7.24414 -36.2139c-8.84375 2.27832 -16.8535 5.28711 -23.5947 8.93262l-4.45996 2.41016l7.2168 33.3438l7.27637 -2.66113
c6.18652 -2.2627 13.5391 -4.2959 20.8057 -5.81152zM109.71 130.554l-7.03809 -2.83008l-9.51562 34.9785l5.25293 2.36719c6.37207 2.86914 14.7871 5.41211 25.0938 7.59375l5.73145 -36.8438c-7.8291 -1.4375 -14.3779 -3.19531 -19.5244 -5.26562zM90 0v45h-45v-45h45z
M165 0h30v-15h-30v-30h-15v30h-45v-30h-15v30h-45v-30h-15v30h-30v15h30v45h-30v15h30v45h-30v15h30v30h15v-30h43.4531l-3.24609 -15h-40.207v-45h44.6533l1.66992 -0.901367c5.86035 -3.16992 12.415 -5.89648 19.5928 -8.15527l-0.318359 -1.51074l21.8506 -4.10742
c0.648438 -0.121094 1.30664 -0.210938 1.95801 -0.325195h-29.4062v-45h45v43.1133c2.41211 -0.162109 4.8252 -0.285156 7.24023 -0.333008c1.01758 -0.0214844 2.02637 -0.0302734 3.0332 -0.0302734c1.58984 0 3.16211 0.0390625 4.72656 0.0898438v-42.8398z" />
    <glyph glyph-name="uniE04F" unicode="&#xe04f;" 
d="M165 75v45h-45v-45h45zM165 15v45h-45v-45h45zM105 75v45h-45v-45h45zM105 15v45h-45v-45h45zM225 120h-45v-45h45v-15h-45v-45h45v-15h-45v-45h-15v45h-45v-45h-15v45h-45v-45h-15v45h-45v15h45v45h-45v15h45v45h-45v15h45v45h15v-45h45v45h15v-45h45v45h15v-45h45v-15z
" />
    <glyph glyph-name="uniE050" unicode="&#xe050;" 
d="M239.084 -12.584l-46.5 -46.5l-11.668 11.668l46.5 46.5zM239.084 47.416l-106.5 -106.5l-11.668 11.668l106.5 106.5zM239.084 107.416l-166.5 -166.5l-11.668 11.668l166.5 166.5zM239.084 167.416l-226.5 -226.5l-11.668 11.668l226.5 226.5zM179.084 167.416
l-166.5 -166.5l-11.668 11.668l166.5 166.5zM119.084 167.416l-106.5 -106.5l-11.668 11.668l106.5 106.5zM12.584 120.916l-11.668 11.668l46.5 46.5l11.668 -11.668z" />
    <glyph glyph-name="uniE051" unicode="&#xe051;" 
d="M29.5078 59.9639l90.1621 -41.4717l90.7383 41.4717l-90.7383 41.9023zM119.653 115.5l120.387 -55.5928l-120.387 -55.0244l-119.622 55.0244z" />
    <glyph glyph-name="uniE052" unicode="&#xe052;" 
d="M0.03125 -4.97559l53.0811 24.6689l14.752 -6.78613l-38.3545 -17.8262l90.1602 -41.4717l90.7383 41.4717l-38.625 17.8369l14.8301 6.77734l53.4268 -24.6709l-120.387 -55.0244zM0.03125 59.7148l53.0811 24.6689l14.752 -6.78613l-38.3545 -17.8252l90.1602 -41.4727
l90.7383 41.4727l-38.625 17.8359l14.8301 6.77734l53.4268 -24.6709l-120.387 -55.0244zM29.5078 124.464l90.1621 -41.4717l90.7383 41.4717l-90.7383 41.9023zM119.653 180l120.387 -55.5928l-120.387 -55.0244l-119.622 55.0244z" />
    <glyph glyph-name="uniE053" unicode="&#xe053;" 
d="M119.653 115.5l120.387 -55.5928l-120.387 -55.0244l-119.622 55.0244z" />
    <glyph glyph-name="uniE054" unicode="&#xe054;" 
d="M171.783 12.918l14.8301 6.77734l53.4268 -24.6709l-120.387 -55.0244l-119.622 55.0244l53.0791 24.6689l14.7529 -6.78613l51.7793 -24.8701zM171.783 77.6084l14.8301 6.77734l53.4268 -24.6709l-120.387 -55.0244l-119.622 55.0244l53.0791 24.6689l14.7529 -6.78613
l51.7793 -24.8701zM119.653 69.3828l-119.622 55.0244l119.622 55.5928l120.387 -55.5928z" />
    <glyph glyph-name="uniE055" unicode="&#xe055;" 
d="M29.5078 124.464l90.1621 -41.4717l90.7383 41.4717l-90.7383 41.9023zM119.653 180l120.387 -55.5928l-120.387 -55.0244l-119.622 55.0244zM119.653 4.69238l-119.622 55.0225l53.0811 24.6689l14.752 -6.78613l-38.3564 -17.8242l90.1621 -41.4736l90.7383 41.4736
l-38.625 17.835l14.8301 6.77832l53.4268 -24.6719zM186.613 19.6953l53.4268 -24.6709l-120.387 -55.0244l-119.622 55.0244l53.0811 24.6689l14.752 -6.78711l-1.13867 -0.52832l52.917 -24.3418l53.2832 24.3535l-1.14258 0.52832z" />
    <glyph glyph-name="uniE056" unicode="&#xe056;" 
d="M29.5078 124.464l90.1621 -41.4717l90.7383 41.4717l-90.7383 41.9023zM119.653 180l120.387 -55.5928l-120.387 -55.0244l-119.622 55.0244zM186.613 84.3867l53.4268 -24.6719l-120.387 -55.0225l-119.622 55.0225l53.0811 24.6689l14.752 -6.78613l-1.13867 -0.529297
l52.917 -24.3408l53.2832 24.3525l-1.14258 0.52832zM119.653 -60l-119.622 55.0244l53.0811 24.6689l14.752 -6.78613l-38.3564 -17.8262l90.1621 -41.4717l90.7383 41.4717l-38.625 17.8369l14.8301 6.77734l53.4268 -24.6709z" />
    <glyph glyph-name="uniE057" unicode="&#xe057;" 
d="M119.653 180l120.387 -55.5928l-120.387 -55.0244l-119.622 55.0244zM119.653 4.69238l-119.622 55.0225l53.0811 24.6689l14.752 -6.78613l-38.3564 -17.8242l90.1621 -41.4736l90.7383 41.4736l-38.625 17.835l14.8301 6.77832l53.4268 -24.6719zM119.653 -60
l-119.622 55.0244l53.0811 24.6689l14.752 -6.78613l-38.3564 -17.8262l90.1621 -41.4717l90.7383 41.4717l-38.625 17.8369l14.8301 6.77734l53.4268 -24.6709z" />
    <glyph glyph-name="uniE058" unicode="&#xe058;" 
d="M240 0v-60h-240v60h240zM240 75v-45h-240v45h240zM240 135v-30h-240v30h240zM240 165h-240v15h240v-15z" />
    <glyph glyph-name="uniE059" unicode="&#xe059;" 
d="M145.724 93h15.1436c-2.2793 29.6787 -26.2061 53.7402 -55.8672 56.1885v-15.8086l-38.3672 23.1006l38.3672 23.0049v-15.3164c37.9756 -2.5 68.5156 -33.1797 70.8438 -71.167h15.9434l-23.0791 -38.7861zM210 30h-172.5c-4.1416 0 -7.5 3.3584 -7.5 7.5v142.5h15
v-135h165v-15zM45 -30h-15v30h-15v-45h210v45h-30v-15h-15v15h-15v-15h-15v15h-15v-30h-15v30h-15v-15h-15v15h-15v-15h-15v15h-15v-30zM240 -60h-240v75h240v-75z" />
    <glyph glyph-name="uniE05A" unicode="&#xe05a;" 
d="M45 -30h-15v30h-15v-45h210v45h-30v-15h-15v15h-15v-15h-15v15h-15v-30h-15v30h-15v-15h-15v15h-15v-15h-15v15h-15v-30zM240 -60h-240v75h240v-75zM45 45h135v115.078l-135 -31.0498v-84.0283zM195 30h-165v110.97l165 37.9502v-148.92z" />
    <glyph glyph-name="uniE05B" unicode="&#xe05b;" 
d="M45 -30h-15v30h-15v-45h210v45h-30v-15h-15v15h-15v-15h-15v15h-15v-30h-15v30h-15v-15h-15v15h-15v-15h-15v15h-15v-30zM240 -60h-240v75h240v-75zM214.5 97.5l-49.5 -26.3906v18.8906h-90v-18.8906l-49.5 26.3906l49.5 25.6846v-18.1846h90v18.1846zM225 45v105h15
v-105h-15zM0 45v105h15v-105h-15z" />
    <glyph glyph-name="uniE05C" unicode="&#xe05c;" 
d="M21.1006 -1.4668l37.291 -37.4209l160.508 160.354l-37.291 37.4209l-10.8667 -10.8564l21.9615 -22.0372l-10.624 -10.5889l-21.949 22.0247l-9.8154 -9.80602l13.0085 -13.0536l-10.626 -10.5869l-12.9945 13.0387l-9.99283 -9.98329l13.1875 -13.2332
l-10.624 -10.5889l-13.175 13.2206l-11.2727 -11.2619l21.6899 -21.7663l-10.624 -10.5869l-21.6773 21.752l-10.6391 -10.6289l13.5585 -13.6055l-10.624 -10.5879l-13.5459 13.5921l-11.2274 -11.2167l13.331 -13.3764l-10.624 -10.5879l-13.318 13.3634
l-11.2727 -11.2619l21.8328 -21.9081l-10.624 -10.5889l-21.8208 21.8952zM58.3682 -60.1143l-58.4688 58.6709l181.732 181.558l58.4688 -58.6709z" />
    </font>
</defs>
</svg>
