<?xml version="1.0" encoding="UTF-8"?>
<!DOCTYPE svg PUBLIC "-//W3C//DTD SVG 1.1//EN" "http://www.w3.org/Graphics/SVG/1.1/DTD/svg11.dtd">
<svg version="1.1" id="Layer_1" xmlns="http://www.w3.org/2000/svg" xmlns:xlink="http://www.w3.org/1999/xlink" x="0px" y="0px" width="16px" height="16px" viewBox="0 0 16 16" enable-background="new 0 0 16 16" xml:space="preserve">
  <g id="icon">
    <path d="M6,5.5H0.5V0.5h5.5V5.5zM15.5,0.5h-5v5.5h5V0.5zM15.5,10.5h-5.5v5h5.5V10.5zM5.5,10H0.5v5.5h5V10z" fill="#FFFFFF"/>
    <rect x="12.5" y="4" width="1" height="6.5" fill="#383838"/>
    <polygon points="10,0 10,6 12,6 12,5 11,5 11,1 15,1 15,5 14,5 14,6 16,6 16,0" fill="#383838" stroke-linejoin="miter"/>
    <rect x="5.5" y="12.5" width="6.5" height="1" fill="#383838"/>
    <polygon points="10,10 10,12 11,12 11,11 15,11 15,15 11,15 11,14 10,14 10,16 16,16 16,10" fill="#383838" stroke-linejoin="miter"/>
    <polygon points="4,10 4,11 5,11 5,15 1,15 1,11 2,11 2,10 0,10 0,16 6,16 6,10" fill="#383838" stroke-linejoin="miter"/>
    <rect x="2.5" y="5.5" width="1" height="6.5" fill="#383838"/>
    <polygon points="5,5 1,5 1,1 5,1 5,2 6,2 6,0 0,0 0,6 6,6 6,4 5,4" fill="#383838" stroke-linejoin="miter"/>
    <rect x="4" y="2.5" width="6.5" height="1" fill="#383838"/>
    <circle cx="3" cy="3" r="1.2" fill="#0964B0"/>
    <circle cx="13" cy="3" r="1.2" fill="#0964B0"/>
    <circle cx="13" cy="13" r="1.2" fill="#0964B0"/>
    <circle cx="3" cy="13" r="1.2" fill="#0964B0"/>
  </g>
</svg>
