<?xml version="1.0" encoding="UTF-8"?>
<!DOCTYPE svg PUBLIC "-//W3C//DTD SVG 1.1//EN" "http://www.w3.org/Graphics/SVG/1.1/DTD/svg11.dtd">
<svg version="1.1" id="Layer_1" xmlns="http://www.w3.org/2000/svg" xmlns:xlink="http://www.w3.org/1999/xlink" x="0px" y="0px" width="16px" height="16px" viewBox="0 0 16 16" enable-background="new 0 0 16 16" xml:space="preserve">
  <g id="icon">
    <path d="M0,11.5h1.5v4.5M9.5,16v-4.5H8M7,13.75l0,-0.5c0,-0.966,-0.784,-1.75,-1.75,-1.75h0c-0.966,0,-1.75,0.784,-1.75,1.75v0.5c0,0.966,0.784,1.75,1.75,1.75h0C6.216,15.5,7,14.716,7,13.75zM15,13.75v-0.5c0,-0.966,-0.784,-1.75,-1.75,-1.75h0c-0.966,0,-1.75,0.784,-1.75,1.75v0.5c0,0.966,0.784,1.75,1.75,1.75h0C14.216,15.5,15,14.716,15,13.75z" fill="none" stroke="#383838" stroke-width="1" stroke-miterlimit="1"/>
    <path d="M10.5,4.539V3.021C10.5,1.634,9.375,0.5,8,0.5l0,0C6.625,0.5,5.5,1.634,5.5,3.021v1.519" fill="none" stroke="#383838" stroke-width="1" stroke-miterlimit="1"/>
    <path d="M4.5,4.5h7v5H4.5V4.5zM8,6.5v1.5" fill="#F7DA8E" stroke="#E57428" stroke-width="1" stroke-miterlimit="1"/>
  </g>
</svg>
