<?xml version="1.0" encoding="UTF-8"?>
<!DOCTYPE svg PUBLIC "-//W3C//DTD SVG 1.1//EN" "http://www.w3.org/Graphics/SVG/1.1/DTD/svg11.dtd">
<svg version="1.1" id="Layer_1" xmlns="http://www.w3.org/2000/svg" xmlns:xlink="http://www.w3.org/1999/xlink" x="0px" y="0px" width="16px" height="16px" viewBox="0 0 16 16" enable-background="new 0 0 16 16" xml:space="preserve">
  <g id="icon">
    <path d="M3.5,12.5V8.021c0,-2.405,1.859,-4.441,4.261,-4.565C10.355,3.322,12.5,5.385,12.5,7.95V12.5" fill="#F7BFBF" stroke="#DB2E2A" stroke-width="1" stroke-miterlimit="1"/>
    <path d="M14.146,15.5H1.854c-0.18,0,-0.312,-0.169,-0.268,-0.344l0.612,-2.447c0.031,-0.123,0.141,-0.21,0.268,-0.21h11.068c0.127,0,0.238,0.086,0.268,0.21l0.612,2.447C14.458,15.331,14.326,15.5,14.146,15.5z" fill="#C8C6C4" stroke="#383838" stroke-width="1" stroke-miterlimit="1"/>
    <path d="M10,7.96c0,-2.519,-1.5,-3.061,-1.5,-3.061s2.5,0.251,2.5,3.902c0,0.335,0,2.016,0,2.016l-1,0.255C10,11.073,10,9.57,10,7.96z" fill="#EF3E3B"/>
    <path d="M8,2.5L8,2.5c-0.276,0,-0.5,-0.224,-0.5,-0.5V0.5c0,-0.276,0.224,-0.5,0.5,-0.5h0c0.276,0,0.5,0.224,0.5,0.5v1.5C8.5,2.276,8.276,2.5,8,2.5zM2,7.5H0.5c-0.276,0,-0.5,0.224,-0.5,0.5v0c0,0.276,0.224,0.5,0.5,0.5h1.5c0.276,0,0.5,-0.224,0.5,-0.5v0C2.5,7.724,2.276,7.5,2,7.5zM5.408,2.5L4.658,1.2c-0.138,-0.239,-0.444,-0.321,-0.683,-0.183l0,0c-0.239,0.138,-0.321,0.444,-0.183,0.683L4.542,3c0.138,0.239,0.444,0.321,0.683,0.183l0,0C5.464,3.044,5.546,2.739,5.408,2.5zM2.992,4.492l-1.299,-0.75c-0.239,-0.138,-0.545,-0.056,-0.683,0.183l0,0c-0.138,0.239,-0.056,0.545,0.183,0.683l1.299,0.75c0.239,0.138,0.545,0.056,0.683,-0.183l0,0C3.313,4.936,3.231,4.63,2.992,4.492zM14,8.5h1.5c0.276,0,0.5,-0.224,0.5,-0.5v0c0,-0.276,-0.224,-0.5,-0.5,-0.5h-1.5c-0.276,0,-0.5,0.224,-0.5,0.5v0C13.5,8.276,13.724,8.5,14,8.5zM11.458,3l0.75,-1.299c0.138,-0.239,0.056,-0.545,-0.183,-0.683l0,0c-0.239,-0.138,-0.545,-0.056,-0.683,0.183L10.592,2.5c-0.138,0.239,-0.056,0.545,0.183,0.683l0,0C11.014,3.321,11.32,3.239,11.458,3zM13.508,5.358l1.299,-0.75c0.239,-0.138,0.321,-0.444,0.183,-0.683v0c-0.138,-0.239,-0.444,-0.321,-0.683,-0.183l-1.299,0.75c-0.239,0.138,-0.321,0.444,-0.183,0.683v0C12.963,5.414,13.269,5.496,13.508,5.358z" fill="#EF3E3B"/>
  </g>
</svg>
