<?xml version="1.0" encoding="UTF-8"?>
<!DOCTYPE svg PUBLIC "-//W3C//DTD SVG 1.1//EN" "http://www.w3.org/Graphics/SVG/1.1/DTD/svg11.dtd">
<svg version="1.1" id="Layer_1" xmlns="http://www.w3.org/2000/svg" xmlns:xlink="http://www.w3.org/1999/xlink" x="0px" y="0px" width="16px" height="16px" viewBox="0 0 16 16" enable-background="new 0 0 16 16" xml:space="preserve">
  <g id="icon">
    <rect x="6.5" y="6.5" width="9" height="9" fill="#FFFFFF" stroke="#228BCB" stroke-width="1" stroke-miterlimit="1"/>
    <path d="M11,8.009c-0.557,0.419,-1.054,1.881,-1.054,3.005c0,1.11,0.454,2.558,1.02,2.977M11.024,13.991c0.533,-0.419,1.04,-1.867,1.04,-2.977c0,-1.123,-0.55,-2.585,-1.054,-3.005M8.171,10.005h5.657M8.214,11.995h5.614" fill="none" stroke="#228BCB" stroke-width="0.8" stroke-miterlimit="1"/>
    <circle cx="11" cy="11" r="3" fill="none" stroke="#228BCB" stroke-width="0.8" stroke-miterlimit="1"/>
    <path d="M4.8,12.5H1.95C1.149,12.5,0.5,11.851,0.5,11.05V9M2.736,10.423M4.8,12.474M2.636,14.625M4.8,12.474M2.636,14.625L4.8,12.474l-2.064,-2.051" fill="none" stroke="#DB2E2A" stroke-width="1" stroke-miterlimit="1"/>
    <polygon points="0.5,2.5 0.5,8 5,8 5,5 10.5,5 10.5,2.5" fill="#FFFFFF" stroke-linejoin="miter"/>
    <polygon points="0,2 0,8 1,8 1,3 10,3 10,5 11,5 11,2" fill="#383838" stroke-linejoin="miter"/>
    <rect x="0.5" y="0.5" width="10" height="2" fill="#92CBEE" stroke="#0964B0" stroke-width="1" stroke-miterlimit="1"/>
    <rect x="1" y="3" width="2" height="5" fill="#FFFFFF"/>
    <rect x="1" y="3" width="2" height="5" fill="#F7BFBF" opacity="0.7"/>
    <path d="M3.5,3v5M1,5.5h2.5" fill="none" stroke="#DB2E2A" stroke-width="1" stroke-miterlimit="1" opacity="0.8"/>
  </g>
</svg>
