<?xml version="1.0" encoding="UTF-8"?>
<!DOCTYPE svg PUBLIC "-//W3C//DTD SVG 1.1//EN" "http://www.w3.org/Graphics/SVG/1.1/DTD/svg11.dtd">
<svg version="1.1" id="Layer_1" xmlns="http://www.w3.org/2000/svg" xmlns:xlink="http://www.w3.org/1999/xlink" x="0px" y="0px" width="16px" height="16px" viewBox="0 0 16 16" enable-background="new 0 0 16 16" xml:space="preserve">
  <g id="icon">
    <path d="M4.8,12.5H1.95C1.149,12.5,0.5,11.851,0.5,11.05V9M2.736,10.423M4.8,12.474M2.636,14.625M4.8,12.474M2.636,14.625L4.8,12.474l-2.064,-2.051" fill="none" stroke="#EE3D3B" stroke-width="1" stroke-miterlimit="1"/>
    <polygon points="0.5,2.5 0.5,8 5,8 5,5 10.5,5 10.5,2.5" fill="#FFFFFF" stroke-linejoin="miter"/>
    <polygon points="0,2 0,8 1,8 1,3 10,3 10,5 11,5 11,2" fill="#383838" stroke-linejoin="miter"/>
    <rect x="0.5" y="0.5" width="10" height="2" fill="#FFFFFF" stroke="#228BCB" stroke-width="1" stroke-miterlimit="1"/>
    <path d="M3.5,3v5M1,5.5h2.5" fill="#FFFFFF" stroke="#EE3D3B" stroke-width="1" stroke-miterlimit="1" opacity="0.8"/>
    <rect x="6.5" y="6.5" width="9" height="9" fill="#FFFFFF" stroke="#ED8730" stroke-width="1" stroke-miterlimit="1"/>
    <path d="M12.404,8.857c-0.026,-0.024,-0.169,-0.163,-0.211,-0.2c-0.042,-0.037,-0.094,-0.077,-0.156,-0.121c-0.062,-0.043,-0.136,-0.084,-0.224,-0.121c-0.087,-0.037,-0.187,-0.068,-0.301,-0.092c-0.113,-0.024,-0.244,-0.036,-0.392,-0.036c-0.227,0,-0.428,0.034,-0.603,0.101c-0.175,0.068,-0.322,0.158,-0.441,0.27c-0.119,0.112,-0.209,0.243,-0.271,0.391c-0.062,0.148,-0.093,0.303,-0.093,0.463c0,0.207,0.042,0.379,0.125,0.517c0.083,0.138,0.192,0.254,0.326,0.348c0.135,0.094,0.289,0.173,0.463,0.235c0.174,0.063,0.351,0.123,0.53,0.18c0.179,0.057,0.356,0.118,0.53,0.182c0.174,0.064,0.328,0.145,0.463,0.243c0.135,0.098,0.243,0.22,0.326,0.364c0.083,0.144,0.125,0.325,0.125,0.542c0,0.22,-0.038,0.424,-0.115,0.615c-0.077,0.19,-0.187,0.356,-0.332,0.498c-0.145,0.142,-0.323,0.253,-0.534,0.335c-0.211,0.082,-0.451,0.123,-0.72,0.123c-0.187,0,-0.355,-0.016,-0.502,-0.048c-0.148,-0.032,-0.283,-0.078,-0.406,-0.138c-0.123,-0.06,-0.235,-0.133,-0.338,-0.218c-0.103,-0.085,-0.274,-0.255,-0.369,-0.365" fill="#FFFFFF" stroke="#ED8730" stroke-width="1" stroke-miterlimit="1"/>
  </g>
</svg>
