<?xml version="1.0" encoding="UTF-8"?>
<!DOCTYPE svg PUBLIC "-//W3C//DTD SVG 1.1//EN" "http://www.w3.org/Graphics/SVG/1.1/DTD/svg11.dtd">
<svg version="1.1" id="Layer_1" xmlns="http://www.w3.org/2000/svg" xmlns:xlink="http://www.w3.org/1999/xlink" x="0px" y="0px" width="16px" height="16px" viewBox="0 0 16 16" enable-background="new 0 0 16 16" xml:space="preserve">
  <g id="icon">
    <path d="M15,3.5h-1V1h-1V0h3v1h-1V3.5zM8.5,3.5H7.5V1H6.5V0h3v1H8.5V3.5zM2,3.5H1V1H0V0h3v1H2V3.5z" fill="#383838"/>
    <rect x="0.5" y="4.5" width="15" height="10" fill="#FFFFFF"/>
    <path d="M16,15H0V4h16V15zM1,14h14V5H1V14z" fill="#383838"/>
    <rect x="1.5" y="5.5" width="13" height="8" fill="#C8C6C4" opacity="0.5"/>
    <path d="M2.967,8.5h6.067c0.258,0,0.467,-0.209,0.467,-0.467V6.967c0,-0.258,-0.209,-0.467,-0.467,-0.467H2.967C2.709,6.5,2.5,6.709,2.5,6.967v1.067C2.5,8.291,2.709,8.5,2.967,8.5z" fill="#92CBEE" stroke="#0964B0" stroke-width="1" stroke-miterlimit="1"/>
    <path d="M5.967,12.5h6.067c0.258,0,0.467,-0.209,0.467,-0.467v-1.067c0,-0.258,-0.209,-0.467,-0.467,-0.467H5.967c-0.258,0,-0.467,0.209,-0.467,0.467v1.067C5.5,12.291,5.709,12.5,5.967,12.5z" fill="#92CBEE" stroke="#0964B0" stroke-width="1" stroke-miterlimit="1"/>
  </g>
</svg>
