<?xml version="1.0" encoding="utf-8"?>
<!-- Generator: Adobe Illustrator 26.3.0, SVG Export Plug-In . SVG Version: 6.00 Build 0)  -->
<svg version="1.1" id="Layer_1" xmlns="http://www.w3.org/2000/svg" xmlns:xlink="http://www.w3.org/1999/xlink" x="0px" y="0px"
	 viewBox="0 0 16 16" style="enable-background:new 0 0 16 16;" xml:space="preserve">
<style type="text/css">
	.st0{fill:#6E6F72;}
	.st1{fill:#6486C4;}
	.st2{opacity:0.5;fill:#FFFFFF;enable-background:new    ;}
</style>
<g id="icon">
	<path class="st0" d="M5.2,14.3c0,0-0.1,0.1-0.1,0.2c-0.4,0.3-0.8,0.6-1.3,0.7c-0.2,0-0.7,0-0.9,0c-0.7-0.2-1.3-0.6-1.7-1.3
		c-0.3-0.7-0.3-1.5,0-2.2c0.1-0.2,0.2-0.4,0.4-0.6c0.1-0.1,0.2-0.2,0.2-0.2"/>
	<path class="st1" d="M15.9,2.4c-0.1,0.2-0.1,0.3-0.3,0.4c-0.1,0.1-0.2,0.2-1.1,0.9c-1.1,0.8-1.9,1.5-2.4,2
		c-0.5-0.6-1.1-1.3-1.8-1.8c0,0-0.1,0-0.1-0.1c0.4-0.4,0.9-1.1,1.6-1.9c0.9-1.2,1-1.3,1.3-1.5C13.4,0.2,13.7,0.1,14,0
		c0.1,0,0.2,0,0.4,0c0.2,0,0.4,0.1,0.6,0.2C15.8,0.6,16.2,1.6,15.9,2.4z"/>
	<path class="st0" d="M12,7.9c0-0.4-0.1-0.7-0.3-1.1c-0.3-0.7-1.1-1.5-1.9-2.1c-0.4-0.3-0.7-0.4-1-0.6C8.6,4,8.4,4,8.1,4
		C7.9,4,7.7,4,7.7,4C7.4,4,7.1,4.1,6.8,4.3C6.3,4.5,6,4.6,5.3,5.2C4.8,5.6,4.4,5.9,4,6.1c-0.7,0.4-1.5,0.8-2.2,1
		c-0.4,0.1-0.4,0.1-0.6,0C0.9,6.9,0.6,6.8,0.3,6.9C0.2,6.9,0.1,7.1,0,7.2c0,0.1,0,0.1,0,0.2c0,0.1,0,0.2,0.1,0.3
		c0,0.1,0.1,0.2,0.1,0.2c0,0,1.8,1.8,4,4c2.7,2.7,3.9,3.9,4,4C8.3,16,8.4,16,8.6,16c0.2,0,0.2,0,0.3,0c0.1-0.1,0.2-0.2,0.3-0.3
		c0.1-0.2,0-0.6-0.2-0.8c-0.1-0.1-0.2-0.2-0.1-0.4c0-0.1,0.1-0.4,0.2-0.7c0.2-0.4,0.5-1.1,0.8-1.6c0.3-0.6,0.6-0.9,1.1-1.6
		c0.7-0.9,1-1.4,1.1-2C12,8.4,12,8.2,12,7.9z M8.9,6.8C8.9,7,8.6,7.1,8.4,7.1c0,0,0,0-0.1,0c-0.3,0-0.6,0.1-1,0.2
		C6.8,7.5,6.5,7.7,5.7,8.2C5.1,8.5,4.8,8.7,4.5,8.9c-0.1,0-0.1,0.1-0.1,0.1C4.3,9,4.2,9.1,4.1,9.1C4,9.1,3.8,9,3.8,8.9
		c-0.2-0.2-0.2-0.5,0-0.6c0.1-0.1,0.2-0.1,0.4-0.2c0.2-0.1,0.5-0.3,1.1-0.7C6,6.9,6.5,6.6,7,6.4c0.6-0.2,1.3-0.3,1.6-0.2
		C8.8,6.3,9,6.5,8.9,6.8z"/>
	<path class="st2" d="M4.1,9.1C4,9.1,3.8,9,3.8,8.9c-0.2-0.2-0.2-0.5,0-0.6c0.1-0.1,0.2-0.1,0.4-0.2c0.2-0.1,0.5-0.3,1.1-0.7
		C6,6.9,6.5,6.6,7,6.4c0.6-0.2,1.3-0.3,1.6-0.2C8.8,6.3,9,6.5,8.9,6.8C8.9,7,8.6,7.1,8.4,7.1l0,0c0,0,0,0-0.1,0
		c-0.3,0-0.6,0.1-1,0.2C6.8,7.5,6.5,7.7,5.7,8.2C5.1,8.5,4.8,8.7,4.5,8.9c-0.1,0-0.1,0.1-0.1,0.1C4.3,9,4.2,9.1,4.1,9.1z"/>
</g>
</svg>
