<?xml version="1.0" encoding="utf-8"?>
<!-- Generator: Adobe Illustrator 26.3.0, SVG Export Plug-In . SVG Version: 6.00 Build 0)  -->
<svg version="1.1" id="Layer_1" xmlns="http://www.w3.org/2000/svg" xmlns:xlink="http://www.w3.org/1999/xlink" x="0px" y="0px"
	 viewBox="0 0 16 16" style="enable-background:new 0 0 16 16;" xml:space="preserve">
<style type="text/css">
	.st0{fill:#6486C4;}
	.st1{fill:#6E6F72;}
</style>
<g id="icon">
	<path class="st0" d="M13.6,16c-0.8,0-0.9,0-1.1-0.1c0,0-0.1-0.1-0.1-0.1l0,0c0,0-0.1-0.2-1.1-2.1c-0.2-0.5-0.4-0.8-0.6-1.1h2.9
		l0,0.1c0.3,0.6,0.7,1.4,1,1.9l0,0.1c0.2,0.3,0.3,0.5,0.3,0.6l0,0l0,0c0,0,0,0.1,0,0.2l0,0c0,0.3-0.2,0.5-0.5,0.6l0,0l0,0
		C14.4,16,14.1,16,13.6,16z M2.4,16c-0.4,0-0.7,0-0.8,0l0,0l0,0c-0.2-0.1-0.4-0.2-0.4-0.4C1,15.5,1,15.3,1,15.2l0-0.1
		C1.1,15,2,13.4,2.4,12.6h2.9c-1.4,2.6-1.7,3.1-1.7,3.2l0,0c0,0-0.1,0.1-0.1,0.1C3.2,16,3.2,16,2.4,16z"/>
	<path class="st1" d="M15,11V2.5C15,1.7,14.3,1,13.5,1h-11C1.7,1,1,1.7,1,2.5V11H0v1h1h14h1v-1H15z"/>
</g>
</svg>
