<?xml version="1.0" encoding="utf-8"?>
<!-- Generator: Adobe Illustrator 26.3.0, SVG Export Plug-In . SVG Version: 6.00 Build 0)  -->
<svg version="1.1" id="Layer_1" xmlns="http://www.w3.org/2000/svg" xmlns:xlink="http://www.w3.org/1999/xlink" x="0px" y="0px"
	 viewBox="0 0 16 16" style="enable-background:new 0 0 16 16;" xml:space="preserve">
<style type="text/css">
	.st0{opacity:0.5;fill:#FFFFFF;enable-background:new    ;}
	.st1{fill:#6486C4;}
</style>
<g id="icon">
	<path class="st0" d="M12.7,7.4v3.2c-2.1,2.6-7.8,2.5-9.8,0V7.2l0,0L0.4,6.3L8,3.6l7.6,2.6L12.7,7.4z"/>
	<path class="st1" d="M15.7,5.9L8.1,3.2c0,0-0.1,0-0.1,0c-0.1,0-0.1,0-0.2,0L0.3,5.9C0.1,6,0,6.2,0,6.3c0,0.2,0.1,0.4,0.3,0.4L1,7
		v3.2c-0.3,0.2-0.5,0.5-0.5,0.8l-0.1,2l0,0c0,0.5,0.4,0.8,0.8,0.8h0.4c0.5,0,0.8-0.4,0.8-0.8l-0.1-2c0-0.3-0.2-0.6-0.5-0.8V7.3
		l0.6,0.2v3.1c0,0.1,0,0.2,0.1,0.3c0.5,0.7,1.3,1.2,2.3,1.6c0.9,0.3,1.9,0.5,2.9,0.5l0,0c2.2,0,4.1-0.8,5.2-2.1
		c0.1-0.1,0.1-0.2,0.1-0.3V7.7l2.6-1C15.9,6.6,16,6.5,16,6.3C16,6.1,15.9,5.9,15.7,5.9z M12.2,10.4c-0.9,1-2.5,1.6-4.4,1.7h0
		c-1.9,0-3.6-0.6-4.5-1.7V7.8l4.6,1.6c0,0,0.1,0,0.1,0c0.1,0,0.1,0,0.2,0l4-1.5C12.2,8,12.2,10.4,12.2,10.4z M12.6,6.9
		c-0.1,0-0.1,0-0.2,0.1L8,8.6L1.8,6.3L8,4.1l6.2,2.2L12.6,6.9z"/>
</g>
</svg>
