<?xml version="1.0" encoding="utf-8"?>
<!-- Generator: Adobe Illustrator 26.3.0, SVG Export Plug-In . SVG Version: 6.00 Build 0)  -->
<svg version="1.1" id="Layer_1" xmlns="http://www.w3.org/2000/svg" xmlns:xlink="http://www.w3.org/1999/xlink" x="0px" y="0px"
	 viewBox="0 0 16 16" style="enable-background:new 0 0 16 16;" xml:space="preserve">
<style type="text/css">
	.st0{opacity:0.5;fill:#FFFFFF;enable-background:new    ;}
	.st1{fill:#9070B1;}
	.st2{fill:#9171B2;}
</style>
<g id="icon">
	<path class="st0" d="M12.3,15.4H3.6c-1.7,0-3.1-1.4-3.1-3.1V3.6c0-1.7,1.4-3.1,3.1-3.1h8.8c1.7,0,3.1,1.4,3.1,3.1v8.8
		C15.4,14,14,15.4,12.3,15.4z"/>
	<path class="st1" d="M0,12.4V3.6C0,1.6,1.6,0,3.6,0h8.8c2,0,3.6,1.6,3.6,3.6v8.8c0,2-1.6,3.6-3.6,3.6H3.6C1.6,16,0,14.4,0,12.4z
		 M1.1,3.6v8.8c0,1.4,1.1,2.5,2.5,2.5h8.8c1.4,0,2.5-1.1,2.5-2.5V3.6c0-1.4-1.1-2.5-2.5-2.5H3.6C2.2,1.1,1.1,2.2,1.1,3.6z"/>
	<path class="st2" d="M8.4,8.2C8.2,8.1,8,8,7.9,7.9C8,7.8,8.1,7.7,8.2,7.6c0.2-0.2,0.4-0.6,0.6-0.9c0.1-0.3,0.2-0.6,0.2-0.9
		c0-0.8-0.3-1.5-0.8-2C7.5,3.4,6.7,3.2,5.7,3.2H3v4.3v1v4.3h3c0.5,0,0.9-0.1,1.3-0.2c0.4-0.1,0.8-0.3,1-0.5c0.3-0.2,0.5-0.5,0.7-0.9
		c0.2-0.4,0.2-0.7,0.2-1.1C9.3,9.7,9.2,9.4,9,9C8.9,8.7,8.7,8.4,8.4,8.2z M4,4.2h1.7c0.8,0,1.4,0.1,1.7,0.4c0.3,0.3,0.5,0.7,0.5,1.2
		c0,0.2,0,0.4-0.1,0.6C7.7,6.6,7.6,6.8,7.4,6.9C7.3,7.1,7.1,7.2,6.8,7.3c-0.3,0.1-0.6,0.2-1,0.2H4V4.2z M8.2,10.8
		c-0.1,0.2-0.2,0.4-0.4,0.5c-0.2,0.1-0.4,0.3-0.7,0.3c-0.3,0.1-0.6,0.1-1,0.1H4V8.5h1.8H6c0.4,0,0.7,0,1,0.1C7.3,8.7,7.6,8.8,7.7,9
		c0.2,0.1,0.3,0.3,0.4,0.5c0.1,0.2,0.1,0.4,0.1,0.6C8.3,10.4,8.3,10.6,8.2,10.8z M14,8.5h-1.5V10h-1V8.5H10v-1h1.5V6h1v1.5H14V8.5z"
		/>
</g>
</svg>
