<?xml version="1.0" encoding="utf-8"?>
<!-- Generator: Adobe Illustrator 26.3.0, SVG Export Plug-In . SVG Version: 6.00 Build 0)  -->
<svg version="1.1" id="Layer_1" xmlns="http://www.w3.org/2000/svg" xmlns:xlink="http://www.w3.org/1999/xlink" x="0px" y="0px"
	 viewBox="0 0 16 16" style="enable-background:new 0 0 16 16;" xml:space="preserve">
<style type="text/css">
	.st0{fill:#6486C4;}
	.st1{opacity:0.5;fill:#FFFFFF;enable-background:new    ;}
</style>
<g id="icon">
	<path class="st0" d="M12.4,0H3.6C1.6,0,0,1.6,0,3.6v8.9c0,2,1.6,3.6,3.6,3.6h8.9c2,0,3.6-1.6,3.6-3.6V3.6C16,1.6,14.4,0,12.4,0z
		 M9.1,13.5H8V4.3L6,6.2L5.3,5.4l3-2.9h0.8L9.1,13.5L9.1,13.5z"/>
	<polygon class="st1" points="9.1,13.5 8,13.5 8,4.3 6,6.2 5.3,5.4 8.2,2.5 9.1,2.5 	"/>
</g>
</svg>
