<?xml version="1.0" encoding="utf-8"?>
<!-- Generator: Adobe Illustrator 26.3.0, SVG Export Plug-In . SVG Version: 6.00 Build 0)  -->
<svg version="1.1" id="Layer_1" xmlns="http://www.w3.org/2000/svg" xmlns:xlink="http://www.w3.org/1999/xlink" x="0px" y="0px"
	 viewBox="0 0 16 16" style="enable-background:new 0 0 16 16;" xml:space="preserve">
<style type="text/css">
	.st0{fill:#6486C4;}
	.st1{opacity:0.5;fill:#FFFFFF;enable-background:new    ;}
</style>
<g id="icon">
	<path class="st0" d="M12.4,0H3.6C1.6,0,0,1.6,0,3.6v8.9c0,2,1.6,3.6,3.6,3.6h8.9c2,0,3.6-1.6,3.6-3.6V3.6C16,1.6,14.4,0,12.4,0z
		 M8.2,12.9H4.8v-1.1h3.3c1.5,0,1.8-0.9,1.8-1.6S9.7,8.6,8.2,8.6H5l0.8-5.5h5.3v1.1H6.7L6.3,7.4h1.9c2.2,0,2.9,1.4,2.9,2.7
		S10.3,12.9,8.2,12.9z"/>
	<path class="st1" d="M8.2,12.9H4.8v-1.1h3.3c1.5,0,1.8-0.9,1.8-1.6c0-0.8-0.3-1.6-1.8-1.6H5l0.8-5.5h5.3v1.1H6.7L6.3,7.4h1.9
		c2.2,0,2.9,1.4,2.9,2.7S10.3,12.9,8.2,12.9z"/>
</g>
</svg>
