<?xml version="1.0" encoding="utf-8"?>
<!-- Generator: Adobe Illustrator 26.3.0, SVG Export Plug-In . SVG Version: 6.00 Build 0)  -->
<svg version="1.1" id="Layer_1" xmlns="http://www.w3.org/2000/svg" xmlns:xlink="http://www.w3.org/1999/xlink" x="0px" y="0px"
	 viewBox="0 0 16 16" style="enable-background:new 0 0 16 16;" xml:space="preserve">
<style type="text/css">
	.st0{opacity:0.5;fill:#FFFFFF;enable-background:new    ;}
	.st1{fill:#6486C4;}
</style>
<g id="icon">
	<path class="st0" d="M12.3,15.4H3.6c-1.7,0-3.1-1.4-3.1-3.1V3.6c0-1.7,1.4-3.1,3.1-3.1h8.8c1.7,0,3.1,1.4,3.1,3.1v8.8
		C15.4,14,14,15.4,12.3,15.4z"/>
	<path class="st1" d="M0,12.4V3.6C0,1.6,1.6,0,3.6,0h8.8c2,0,3.6,1.6,3.6,3.6v8.8c0,2-1.6,3.6-3.6,3.6H3.6C1.6,16,0,14.4,0,12.4z
		 M1.1,3.6v8.8c0,1.4,1.1,2.5,2.5,2.5h8.8c1.4,0,2.5-1.1,2.5-2.5V3.6c0-1.4-1.1-2.5-2.5-2.5H3.6C2.2,1.1,1.1,2.2,1.1,3.6z"/>
	<path class="st1" d="M10.4,12.6c-2.7,0-2.7-3.2-2.7-4.5s0-4.5,2.7-4.5c2.7,0,2.7,3.2,2.7,4.5S13.2,12.6,10.4,12.6z M10.4,4.5
		C9.4,4.5,8.7,5.1,8.7,8s0.7,3.5,1.7,3.5c1,0,1.7-0.6,1.7-3.5S11.5,4.5,10.4,4.5z M6,3.5H5.2L2.8,5.9l0.7,0.7L5,5.1v7.4h1V3.5z"/>
</g>
</svg>
