<?xml version="1.0" encoding="utf-8"?>
<!-- Generator: Adobe Illustrator 26.3.0, SVG Export Plug-In . SVG Version: 6.00 Build 0)  -->
<svg version="1.1" id="Layer_1" xmlns="http://www.w3.org/2000/svg" xmlns:xlink="http://www.w3.org/1999/xlink" x="0px" y="0px"
	 viewBox="0 0 16 16" style="enable-background:new 0 0 16 16;" xml:space="preserve">
<style type="text/css">
	.st0{fill:#9171B2;}
	.st1{opacity:0.5;fill:#FFFFFF;enable-background:new    ;}
</style>
<g id="icon">
	<path class="st0" d="M6.3,4.8L8,9.1H4.5L6.3,4.8z M16,3.6v8.9c0,2-1.6,3.6-3.6,3.6H3.6c-2,0-3.6-1.6-3.6-3.6V3.6C0,1.6,1.6,0,3.6,0
		h8.9C14.4,0,16,1.6,16,3.6z M10.6,12.7L6.9,3.5l0,0c0,0-0.1-0.2-0.1-0.2L6.7,3H5.9L5.7,3.3c0,0-0.1,0.1-0.1,0.2l-3.8,9.2l1,0.4
		l1.2-3h4.3l1.2,3L10.6,12.7z M14.6,7.5H13V5.9h-1.1v1.6h-1.6v1.1h1.6v1.6H13V8.5h1.6V7.5z"/>
	<path class="st1" d="M6.9,3.5c0,0-0.1-0.2-0.1-0.2L6.7,3H5.9L5.7,3.3c0,0-0.1,0.1-0.1,0.2l-3.8,9.2l1,0.4l1.2-3h4.3l1.2,3l1-0.4
		L6.9,3.5L6.9,3.5z M4.5,9.1l1.7-4.2L8,9.1H4.5z M14.6,8.5H13v1.6h-1.1V8.5h-1.6V7.5h1.6V5.9H13v1.6h1.6V8.5z"/>
</g>
</svg>
