<?xml version="1.0" encoding="utf-8"?>
<!-- Generator: Adobe Illustrator 26.3.0, SVG Export Plug-In . SVG Version: 6.00 Build 0)  -->
<svg version="1.1" id="Layer_1" xmlns="http://www.w3.org/2000/svg" xmlns:xlink="http://www.w3.org/1999/xlink" x="0px" y="0px"
	 viewBox="0 0 16 16" style="enable-background:new 0 0 16 16;" xml:space="preserve">
<style type="text/css">
	.st0{opacity:0.5;fill:#FFFFFF;enable-background:new    ;}
	.st1{fill:#53B4C0;}
	.st2{fill:#52B4C0;}
	.st3{fill:#6E6F72;}
</style>
<g id="icon">
	<path class="st0" d="M10,0.5C9.8,0.6,9.6,0.7,9.5,0.7c-0.7,0.4-1.1,1-1.3,1.8c0,0.2-0.1,0.4-0.1,0.7c0,0.3,0,0.3,0.1,0.4
		c0,0,0.1,0,0.1,0c0,0,0.3-0.1,0.4-0.1C9.2,3.3,9.6,3,9.9,2.6c0.4-0.5,0.5-1.1,0.5-1.9c0-0.2,0-0.3-0.1-0.3
		C10.3,0.4,10.2,0.4,10,0.5z"/>
	<path class="st1" d="M8.3,4.1C8.3,4.1,8.3,4.1,8.3,4.1C8.2,4,8.1,4,8,4C7.7,3.8,7.7,3.5,7.7,3.3c0-0.3,0-0.5,0.1-0.8
		C8,1.5,8.5,0.8,9.3,0.4c0.1-0.1,0.3-0.2,0.5-0.3l0,0c0.2-0.1,0.5-0.2,0.7,0c0.3,0.2,0.3,0.5,0.3,0.7c0,0.9-0.2,1.6-0.6,2.1
		c-0.3,0.5-0.8,0.8-1.4,1C8.8,3.9,8.5,4.1,8.3,4.1z M10,0.9C9.9,1,9.7,1,9.7,1.1C9.1,1.4,8.7,1.9,8.6,2.6c0,0.2-0.1,0.3-0.1,0.5
		C9,3,9.3,2.7,9.6,2.4C9.8,2,10,1.5,10,0.9z"/>
	<path class="st0" d="M10.2,3.1c-0.2,0-0.4,0.1-0.6,0.1C9.4,3.3,9,3.5,8.7,3.6C8.5,3.7,8.4,3.8,8.2,3.8c-0.2,0-0.3,0-0.7-0.2
		C7.1,3.4,6.9,3.3,6.6,3.2C6.3,3.1,6.2,3.1,6,3.1C5.6,3.1,5.4,3.1,5,3.3C4.8,3.4,4.6,3.5,4.4,3.7C4.2,4,4.1,4.1,3.9,4.4
		C3.8,4.8,3.7,5.2,3.7,5.6c0,0.3,0.1,0.6,0.2,1c0.3,1.2,1,2.2,2,2.8c0.4,0.3,0.7,0.4,1.1,0.5C7.2,9.9,7.6,10,8,10c0.1,0,0.2,0,0.2,0
		c0,0,0.9,0,1.1-0.1c0.6-0.1,1.2-0.4,1.9-1.1C12,8,12.5,7.1,12.6,6c0.1-0.7,0-1.2-0.2-1.7c-0.2-0.4-0.6-0.8-1.1-1
		c-0.2-0.1-0.4-0.2-0.6-0.2C10.6,3.1,10.4,3.1,10.2,3.1z"/>
	<path class="st2" d="M8.3,10.5c-0.1,0-0.1,0-0.2,0l0,0c0,0,0,0-0.1,0c0,0-0.1,0-0.1,0c-0.1,0-0.1,0-0.2,0c-0.4,0-0.7,0-1-0.1
		C6.4,10.3,6,10.1,5.6,9.8C4.5,9.1,3.8,8.1,3.4,6.7C3.3,6.3,3.2,6,3.2,5.6c0-0.5,0.1-1,0.3-1.4C3.6,3.9,3.8,3.6,4,3.4
		C4.3,3.1,4.5,3,4.8,2.8c0.4-0.2,0.7-0.3,1.1-0.3c0,0,0.1,0,0.1,0c0.3,0,0.4,0,0.8,0.2c0.3,0.1,0.6,0.2,1,0.4C8,3.3,8.1,3.3,8.2,3.3
		c0.1,0,0.2,0,0.3-0.1c0.3-0.2,0.7-0.4,1-0.5c0.2-0.1,0.5-0.1,0.7-0.1c0.1,0,0.1,0,0.2,0l0,0c0.1,0,0.3,0,0.4,0
		c0.3,0,0.5,0.1,0.8,0.3c0.6,0.3,1,0.7,1.3,1.3c0.3,0.6,0.4,1.2,0.3,2c-0.2,1.2-0.7,2.2-1.5,3.1c-0.7,0.7-1.4,1.1-2.1,1.2
		c-0.1,0-0.4,0-0.7,0.1C8.6,10.5,8.4,10.5,8.3,10.5z M8.3,9.5c0.2,0,0.8,0,1-0.1c0.5-0.1,1-0.4,1.6-0.9C11.5,7.8,12,6.9,12.1,6
		c0.1-0.6,0-1-0.2-1.4c-0.2-0.3-0.4-0.6-0.8-0.8c-0.1-0.1-0.3-0.1-0.5-0.2c-0.1,0-0.2,0-0.3,0c0,0-0.1,0-0.1,0c-0.1,0-0.3,0-0.5,0.1
		C9.6,3.7,9.3,3.9,9,4.1C8.7,4.2,8.5,4.3,8.2,4.3C7.9,4.3,7.7,4.2,7.3,4C6.9,3.8,6.7,3.8,6.5,3.7C6.2,3.6,6.1,3.6,6,3.6
		c0,0,0,0-0.1,0c-0.2,0-0.4,0-0.7,0.2C5.1,3.8,4.9,3.9,4.7,4.1C4.6,4.3,4.5,4.4,4.4,4.6c-0.1,0.3-0.2,0.6-0.2,1c0,0.3,0,0.5,0.1,0.9
		c0.3,1.1,0.9,2,1.8,2.5C6.5,9.2,6.7,9.3,7,9.4c0.2,0,0.5,0.1,0.8,0.1c0,0,0.1,0,0.1,0c0,0,0.1,0,0.1,0C8.1,9.5,8.2,9.5,8.3,9.5
		L8.3,9.5z"/>
	<path class="st2" d="M11.3,6.2c0,0-0.1,0-0.1,0C11,6.1,11,5.9,10.9,5.8c-0.1-0.3-0.1-0.5-0.3-0.6C10.5,5,10.3,4.9,10,4.8
		c-0.2,0-0.3-0.1-0.3-0.2c0-0.1,0-0.1,0-0.1c0-0.1,0.1-0.2,0.2-0.3c0,0,0.1,0,0.1,0c0.1,0,0.2,0,0.3,0c0.2,0,0.3,0.1,0.5,0.2
		c0.3,0.2,0.6,0.6,0.7,0.9c0.1,0.2,0.1,0.4,0.1,0.5C11.5,6,11.4,6.2,11.3,6.2z"/>
	<path class="st0" d="M14.3,13.5c0-0.6,0.2-1.1,0.5-1.5H3.1C2.5,12,2,12.5,2,13.1v0.8C2,14.5,2.5,15,3.1,15h11.7
		C14.5,14.6,14.3,14.1,14.3,13.5z"/>
	<path class="st3" d="M15,16H3.1C1.9,16,1,15.1,1,13.9v-0.8C1,11.9,1.9,11,3.1,11H15v1H3.1C2.5,12,2,12.5,2,13.1v0.8
		C2,14.5,2.5,15,3.1,15H15V16z"/>
	<path class="st3" d="M14.3,13.5c0-0.2,0-0.3,0.1-0.5H2.9c0,0,0,0.1,0,0.1v0.8c0,0,0,0.1,0,0.1h11.4C14.3,13.8,14.3,13.7,14.3,13.5z
		"/>
</g>
</svg>
