<?xml version="1.0" encoding="utf-8"?>
<!-- Generator: Adobe Illustrator 26.3.0, SVG Export Plug-In . SVG Version: 6.00 Build 0)  -->
<svg version="1.1" id="Layer_1" xmlns="http://www.w3.org/2000/svg" xmlns:xlink="http://www.w3.org/1999/xlink" x="0px" y="0px"
	 viewBox="0 0 16 16" style="enable-background:new 0 0 16 16;" xml:space="preserve">
<style type="text/css">
	.st0{opacity:0.5;fill:#FFFFFF;enable-background:new    ;}
	.st1{fill:#6E6F72;}
	.st2{fill:#52B4C0;}
</style>
<g id="icon">
	<path class="st0" d="M14.3,13.5c0-0.6,0.2-1.1,0.5-1.5H3.1C2.5,12,2,12.5,2,13.1v0.8C2,14.5,2.5,15,3.1,15h11.7
		C14.5,14.6,14.3,14.1,14.3,13.5z"/>
	<path class="st1" d="M15,16H3.1C1.9,16,1,15.1,1,13.9v-0.8C1,11.9,1.9,11,3.1,11H15v1H3.1C2.5,12,2,12.5,2,13.1v0.8
		C2,14.5,2.5,15,3.1,15H15V16z"/>
	<path class="st1" d="M14.3,13.5c0-0.2,0-0.3,0.1-0.5H2.9c0,0,0,0.1,0,0.1v0.8c0,0,0,0.1,0,0.1h11.4C14.3,13.8,14.3,13.7,14.3,13.5z
		"/>
	<path class="st2" d="M7.9,3.1c0.1,0,0.2,0,0.3-0.1C8.6,2.8,9,2.7,9.4,2.5c0.1,0,0.2-0.1,0.2-0.1c0,0,0-0.1,0.1-0.1
		c0.4-0.5,0.6-1.2,0.6-2c0-0.2,0-0.3-0.1-0.3C10.1,0,10,0,9.8,0.1C9.6,0.2,9.3,0.3,9.2,0.3C8.5,0.7,8,1.4,7.9,2.3
		C7.8,2.5,7.8,2.8,7.8,3.1c0,0,0,0,0,0.1C7.8,3.1,7.9,3.1,7.9,3.1z"/>
	<path class="st2" d="M12.7,4.3c-0.2-0.5-0.6-0.9-1.2-1.1C11.3,3.1,11.1,3,10.8,3c-0.1,0-0.4,0-0.5,0C10.1,3,9.9,3,9.7,3.1
		C9.4,3.2,9,3.3,8.6,3.5C8.4,3.7,8.2,3.7,8,3.7c-0.2,0-0.4,0-0.8-0.2c-0.4-0.2-0.6-0.3-1-0.4C5.9,3,5.8,2.9,5.5,2.9
		C5.2,2.9,4.9,3,4.5,3.2C4.2,3.3,4,3.4,3.8,3.7C3.5,3.9,3.4,4.1,3.3,4.4C3.1,4.8,3,5.2,3,5.7c0,0.4,0.1,0.7,0.2,1.1
		c0.4,1.3,1.1,2.4,2.2,3.1c0.4,0.3,0.8,0.4,1.2,0.5c0.3,0.1,0.7,0.1,1.1,0.1c0.2,0,0.3,0,0.3,0c0,0,1,0,1.3-0.1
		c0.7-0.1,1.4-0.5,2.1-1.2c0.9-0.8,1.4-1.9,1.6-3.1C13,5.4,13,4.8,12.7,4.3z M11.9,5.9c0,0.2-0.2,0.3-0.3,0.3c0,0-0.1,0-0.1,0
		c-0.1-0.1-0.2-0.2-0.2-0.4c-0.1-0.3-0.2-0.5-0.3-0.7c-0.2-0.2-0.4-0.3-0.7-0.3c-0.2,0-0.3-0.1-0.4-0.2c0-0.1,0-0.1,0-0.1
		c0-0.2,0.1-0.3,0.2-0.3c0,0,0.1,0,0.2,0c0.1,0,0.2,0,0.3,0c0.2,0,0.4,0.1,0.5,0.2c0.4,0.2,0.7,0.6,0.8,1C11.9,5.6,12,5.8,11.9,5.9z
		"/>
	<path class="st0" d="M11.6,6.2c0,0-0.1,0-0.1,0c-0.1-0.1-0.2-0.2-0.2-0.4c-0.1-0.3-0.2-0.5-0.3-0.7c-0.2-0.2-0.4-0.3-0.7-0.3
		c-0.2,0-0.3-0.1-0.4-0.2c0-0.1,0-0.1,0-0.1c0-0.2,0.1-0.3,0.2-0.3c0,0,0.1,0,0.2,0c0.1,0,0.2,0,0.3,0c0.2,0,0.4,0.1,0.5,0.2
		c0.4,0.2,0.7,0.6,0.8,1c0.1,0.2,0.1,0.4,0.1,0.5C11.9,6.1,11.8,6.2,11.6,6.2z"/>
</g>
</svg>
