<?xml version="1.0" encoding="utf-8"?>
<!-- Generator: Adobe Illustrator 26.3.0, SVG Export Plug-In . SVG Version: 6.00 Build 0)  -->
<svg version="1.1" id="Layer_1" xmlns="http://www.w3.org/2000/svg" xmlns:xlink="http://www.w3.org/1999/xlink" x="0px" y="0px"
	 viewBox="0 0 16 16" style="enable-background:new 0 0 16 16;" xml:space="preserve">
<style type="text/css">
	.st0{opacity:0.5;fill:#FFFFFF;enable-background:new    ;}
	.st1{fill:#6485C3;}
	.st2{fill:#6D6E71;}
</style>
<g id="icon">
	<path class="st0" d="M15.5,15.3c-0.1-1.1-0.4-2.1-1-3c-0.7-1-2.1-2.2-3.5-2.7c0,0-0.5-0.6-0.8-0.7c-0.6,0.7-1.4,1-2.1,1
		c-0.8,0-1.5-0.4-2.1-1.1C5.6,9,5,9.5,5,9.5c-3.4,1.4-4.4,4.3-4.5,5.8l0,0.1h14.9L15.5,15.3z"/>
	<path class="st0" d="M11.5,4.3c0,2.4-1.6,5.2-3.5,5.2S4.5,6.7,4.5,4.3S6.1,0.5,8,0.5S11.5,1.8,11.5,4.3z"/>
	<path class="st1" d="M8,10.7c-0.7,0-0.8-0.1-0.8,0.5c0,0.3,0.1,0.4,0.3,0.7c0,0.5-0.2,2.7-0.3,3.8c0.3,0,0.5,0,0.8,0
		c0.3,0,0.5,0,0.8,0c-0.1-1-0.3-3.3-0.3-3.8c0.3-0.3,0.3-0.4,0.3-0.7C8.9,10.6,8.8,10.7,8,10.7z"/>
	<path class="st2" d="M16,15.3c-0.1-1.5-0.9-4.3-4.5-5.7L11,9.4c-0.1,0.1-0.2,0.2-0.2,0.3c-0.2,0.3-0.5,0.5-0.8,0.7h0l-1.1,4.3H7.1
		L6,10.4c0,0,0,0,0,0C5.8,10.2,5.5,10,5.3,9.7C5.2,9.6,5.1,9.5,5.1,9.4L4.6,9.6c-3.7,1.5-4.4,4.2-4.5,5.7l0,0.4
		C0,15.9,0.1,16,0.3,16h15.5c0.1,0,0.3-0.1,0.3-0.3L16,15.3z"/>
	<path class="st2" d="M8,10.1c-1.1,0-2.2-0.7-3-1.9C4.4,7,3.9,5.6,3.9,4.3c0-1.3,0.4-2.4,1.2-3.2C5.9,0.4,6.9,0,8,0s2.2,0.4,2.9,1.1
		c0.8,0.8,1.2,1.9,1.2,3.2c0,1.3-0.4,2.7-1.1,3.8C10.2,9.4,9.1,10.1,8,10.1z M8,1.1c-1.8,0-3,1.3-3,3.2C5,6.4,6.4,9,8,9s3-2.6,3-4.7
		C11,2.3,9.8,1.1,8,1.1z"/>
	<path class="st1" d="M11.7,4l-0.5-0.5c-0.2,0.2-0.3,0.2-0.6,0.2c-0.2-0.3-0.5-0.5-0.9-0.5H9.2c-0.4,0-0.7,0.2-0.8,0.5H7.6
		C7.4,3.4,7.1,3.2,6.7,3.2H6.2c-0.4,0-0.7,0.2-0.9,0.5c-0.3,0-0.4,0-0.6-0.2L4.3,4c0.3,0.3,0.6,0.4,0.9,0.4c0,0,0.1,0,0.1,0
		c0.1,0.4,0.5,0.8,0.9,0.8h0.6c0.5,0,0.9-0.4,1-0.8h0.6c0.1,0.5,0.5,0.8,1,0.8h0.6c0.5,0,0.9-0.3,0.9-0.8c0,0,0.1,0,0.1,0
		C11.1,4.4,11.4,4.3,11.7,4z M7,4.2c0,0.2-0.1,0.3-0.3,0.3H6.2C6,4.5,5.9,4.4,5.9,4.2V4.1C5.9,4,6,3.9,6.2,3.9h0.6
		C6.9,3.9,7,4,7,4.2C7,4.1,7,4.2,7,4.2z M10.1,4.2c0,0.2-0.1,0.3-0.3,0.3H9.2C9.1,4.5,9,4.4,9,4.2V4.1C9,4,9.1,3.9,9.2,3.9h0.6
		C10,3.9,10.1,4,10.1,4.2L10.1,4.2z"/>
</g>
</svg>
