<?xml version="1.0" encoding="utf-8"?>
<!-- Generator: Adobe Illustrator 26.3.0, SVG Export Plug-In . SVG Version: 6.00 Build 0)  -->
<svg version="1.1" id="Layer_1" xmlns="http://www.w3.org/2000/svg" xmlns:xlink="http://www.w3.org/1999/xlink" x="0px" y="0px"
	 viewBox="0 0 16 16" style="enable-background:new 0 0 16 16;" xml:space="preserve">
<style type="text/css">
	.st0{opacity:0.5;fill:#FFFFFF;enable-background:new    ;}
	.st1{fill:#52B4C0;}
	.st2{fill:#53B4C0;}
</style>
<g id="icon">
	<path class="st0" d="M8,0.5C3.9,0.5,0.5,3.4,0.5,7c0,1.9,1,3.7,2.5,4.8c-0.1,0.9-0.9,3.2-0.9,3.2s4.5-1.5,4.9-1.6
		c0.3,0,0.7,0.1,1,0.1c4.1,0,7.5-2.9,7.5-6.5S12.1,0.5,8,0.5z"/>
	<path class="st1" d="M1.6,14.9c0.2-0.5,0.7-2,0.9-2.8C0.9,10.8,0,8.9,0,7c0-3.9,3.6-7,8-7s8,3.2,8,7s-3.6,7-8,7c-0.3,0-0.6,0-0.9,0
		c-0.8,0.3-4.4,1.5-4.8,1.6L1.2,16L1.6,14.9z M8,1.1c-3.8,0-6.9,2.7-6.9,6c0,1.7,0.8,3.3,2.3,4.4l0.2,0.2l0,0.3
		c-0.1,0.5-0.4,1.5-0.6,2.3c1.7-0.6,3.6-1.2,3.8-1.3l0.1-0.1l0.1,0C7.4,13,7.7,13,8,13c3.8,0,6.9-2.7,6.9-6S11.8,1.1,8,1.1z"/>
	<path class="st2" d="M8.5,9h-1l0-0.8c0-0.3,0.1-0.5,0.3-0.7C7.9,7.3,8.1,7.2,8.2,7c0.2-0.1,0.3-0.2,0.5-0.4
		c0.2-0.1,0.3-0.2,0.4-0.4C9.3,6.2,9.4,6,9.5,5.8c0.1-0.2,0.1-0.4,0.1-0.6c0-0.2,0-0.4-0.1-0.5C9.4,4.6,9.3,4.5,9.2,4.3
		C9,4.2,8.9,4.1,8.7,4.1C8.5,4,8.3,4,8.1,4C7.9,4,7.8,4,7.6,4c-0.1,0-0.3,0.1-0.4,0.2C7.1,4.3,7,4.3,6.9,4.4
		C6.8,4.5,6.5,4.7,6.4,4.8L5.7,4.1C5.8,4,6.1,3.8,6.2,3.6c0.2-0.1,0.3-0.2,0.5-0.3c0.2-0.1,0.4-0.2,0.6-0.2C7.6,3,7.8,3,8.1,3
		C8.4,3,8.7,3,9,3.1c0.3,0.1,0.6,0.2,0.8,0.4C10,3.8,10.2,4,10.4,4.3c0.1,0.3,0.2,0.6,0.2,1c0,0.4-0.1,0.7-0.2,1
		C10.3,6.5,10.1,6.7,9.9,7C9.7,7.2,9.5,7.3,9.3,7.5C9.2,7.6,9,7.7,8.8,7.8C8.7,7.9,8.6,8,8.5,8.1c0,0,0,0.1,0,0.1
		C8.5,8.2,8.5,9,8.5,9z M8,9.7c-0.4,0-0.6,0.3-0.6,0.6S7.7,11,8,11s0.6-0.3,0.6-0.6S8.4,9.7,8,9.7z"/>
</g>
</svg>
