<?xml version="1.0" encoding="utf-8"?>
<!-- Generator: Adobe Illustrator 26.3.0, SVG Export Plug-In . SVG Version: 6.00 Build 0)  -->
<svg version="1.1" id="Layer_1" xmlns="http://www.w3.org/2000/svg" xmlns:xlink="http://www.w3.org/1999/xlink" x="0px" y="0px"
	 viewBox="0 0 16 16" style="enable-background:new 0 0 16 16;" xml:space="preserve">
<style type="text/css">
	.st0{opacity:0.5;fill:#FFFFFF;enable-background:new    ;}
	.st1{fill:#6E6F72;}
	.st2{fill:#6486C4;}
</style>
<g id="icon">
	<polygon class="st0" points="10.5,9.5 10.5,5.7 7.5,4.3 4.4,5.7 4.4,9.5 0.5,9.5 0.5,16 14.5,16 14.5,9.5 	"/>
	<path class="st0" d="M11.5,2.9c-1.6-0.7-2.8,0.7-4,0v-2c1.2,0.7,2.4-0.6,4,0V2.9z"/>
	<path class="st1" d="M11.7,0.4c-1-0.4-1.8-0.2-2.5,0C8.7,0.6,8.3,0.7,8,0.6V0H7v0v3.1v1.3h1V3.6c0.5,0.1,1-0.1,1.4-0.2
		c0.6-0.2,1.2-0.3,1.9,0L12,3.7V0.6L11.7,0.4z M11,2.2c-0.7-0.1-1.3,0-1.9,0.2C8.6,2.6,8.3,2.6,8,2.6v-1c0.5,0.1,1-0.1,1.4-0.2
		c0.5-0.1,1-0.3,1.6-0.1V2.2z"/>
	<path class="st2" d="M11,14h-1v-1h1V14z M9,13H8v1h1V13z M7,13H6v1h1V13z M5,13H4v1h1V13z M3,13H2v1h1V13z M11,11h-1v1h1V11z
		 M13,13h-1v1h1V13z M13,11h-1v1h1V11z M9,11H8v1h1V11z M7,11H6v1h1V11z M5,11H4v1h1V11z M3,11H2v1h1V11z"/>
	<polygon class="st1" points="11,9 11,6 10,6 10,10 10.5,10 11,10 14,10 14,15 1,15 1,10 4,10 4.5,10 5,10 5,6 4,6 4,9 0,9 0,10 
		0,15 0,16 1,16 14,16 15,16 15,15 15,10 15,9 	"/>
	<polygon class="st2" points="11.8,7.4 7.5,5.1 3.2,7.4 2.8,6.6 7.5,3.9 12.2,6.6 	"/>
	<path class="st1" d="M7.5,9.6C6.7,9.6,6,8.9,6,8.1s0.7-1.5,1.5-1.5S9,7.3,9,8.1S8.3,9.6,7.5,9.6z M7.5,7.4c-0.4,0-0.7,0.3-0.7,0.7
		c0,0.4,0.3,0.7,0.7,0.7s0.7-0.3,0.7-0.7S7.9,7.4,7.5,7.4z"/>
</g>
</svg>
