<?xml version="1.0" encoding="utf-8"?>
<!-- Generator: Adobe Illustrator 26.3.0, SVG Export Plug-In . SVG Version: 6.00 Build 0)  -->
<svg version="1.1" id="Layer_1" xmlns="http://www.w3.org/2000/svg" xmlns:xlink="http://www.w3.org/1999/xlink" x="0px" y="0px"
	 viewBox="0 0 16 16" style="enable-background:new 0 0 16 16;" xml:space="preserve">
<style type="text/css">
	.st0{fill:#6D6E71;}
	.st1{fill:#52B4C0;}
</style>
<g id="icon">
	<path class="st0" d="M10.2,4H6.8c0,0,0,0,0,0C6.5,3.7,6.3,3.3,6.2,3h4V4z M4.7,13h4.2c-0.1-0.4-0.3-0.7-0.6-1c0,0-0.1,0-0.1,0H5.1
		L4.7,13z M6,2h4.4V1H5.9C6,1.2,6,1.4,6,1.6C6,1.8,6,1.9,6,2z M9.1,14H4.4v1h4.8c-0.1-0.2-0.1-0.4-0.1-0.6C9.1,14.2,9.1,14.1,9.1,14
		z"/>
	<path class="st1" d="M2.2,14.7c0-3.9,2.4-5.9,4.4-7.6c1.9-1.6,3.6-3,3.6-5.8c0-0.7,0.6-1.2,1.3-1.2s1.3,0.5,1.3,1.2
		c0,3.9-2.4,5.9-4.4,7.6c-1.9,1.6-3.6,3-3.6,5.8c0,0.7-0.6,1.2-1.3,1.2C2.8,15.9,2.2,15.4,2.2,14.7z M10.1,14.7
		c0-1.5-0.5-2.7-1.6-3.9l-0.1-0.1l0.1-0.1C8.8,10.4,9,10.2,9.3,10c0.4-0.3,0.8-0.6,1.2-1L10.5,9L10.6,9c1.5,1.7,2.3,3.5,2.3,5.7
		c0,0.7-0.6,1.3-1.4,1.3C10.8,16,10.1,15.4,10.1,14.7z M4.5,7L4.5,7C2.9,5.3,2.1,3.5,2.1,1.3C2.1,0.6,2.7,0,3.5,0
		c0.8,0,1.4,0.6,1.4,1.3c0,1.5,0.5,2.7,1.6,3.9l0.1,0.1L6.4,5.4C6.2,5.6,6,5.8,5.7,6C5.4,6.3,5,6.6,4.5,7L4.5,7z"/>
</g>
</svg>
