<?xml version="1.0" encoding="utf-8"?>
<!-- Generator: Adobe Illustrator 26.3.0, SVG Export Plug-In . SVG Version: 6.00 Build 0)  -->
<svg version="1.1" id="Layer_1" xmlns="http://www.w3.org/2000/svg" xmlns:xlink="http://www.w3.org/1999/xlink" x="0px" y="0px"
	 viewBox="0 0 16 16" style="enable-background:new 0 0 16 16;" xml:space="preserve">
<style type="text/css">
	.st0{fill:#6E6F72;}
	.st1{fill:#6486C4;}
</style>
<g id="icon">
	<path class="st0" d="M8,2.2c-0.3,0-0.5-0.2-0.5-0.5V0.5C7.5,0.2,7.7,0,8,0c0.3,0,0.5,0.2,0.5,0.5v1.2C8.5,1.9,8.3,2.2,8,2.2z"/>
	<path class="st0" d="M13.1,16c-0.2,0-0.4-0.1-0.4-0.3l-4.1-10c-0.1-0.2,0-0.5,0.3-0.6C8.9,5,8.9,5,9,5c0.2,0,0.4,0.1,0.4,0.3
		l4.1,10c0,0.1,0,0.2,0,0.4c0,0.1-0.1,0.2-0.3,0.3C13.2,16,13.1,16,13.1,16z"/>
	<path class="st0" d="M3,15.9c-0.1,0-0.1,0-0.2,0c-0.1,0-0.2-0.1-0.3-0.3c0-0.1-0.1-0.2,0-0.4l4-9.9C6.6,5.1,6.8,5,7,5
		c0.1,0,0.1,0,0.2,0c0.1,0,0.2,0.1,0.3,0.3c0,0.1,0.1,0.2,0,0.4l-4,9.9C3.4,15.8,3.2,15.9,3,15.9z"/>
	<path class="st1" d="M8,11.3c-0.2,0-0.4-0.2-0.4-0.4V10H6.4l0.4-0.8h0.7V8.2C7.6,8,7.8,7.8,8,7.8S8.4,8,8.4,8.2v0.9h0.7L9.6,10H8.4
		v0.9C8.4,11.1,8.2,11.3,8,11.3z"/>
	<path class="st1" d="M13.3,10.5c-0.2,0-0.4-0.2-0.4-0.4V10h-0.7l-0.4-0.8h1.1V9c0-0.2,0.2-0.4,0.4-0.4h1.1c0.5,0,0.9,0.4,0.9,0.9
		s-0.4,0.9-0.9,0.9L13.3,10.5L13.3,10.5z"/>
	<path class="st1" d="M1.6,10.5c-0.5,0-0.9-0.4-0.9-0.9s0.4-0.9,0.9-0.9h1.1C3,8.6,3.1,8.8,3.1,9v0.1h1.1L3.9,10H3.1v0.1
		c0,0.2-0.2,0.4-0.4,0.4L1.6,10.5L1.6,10.5z"/>
	<circle class="st0" cx="8" cy="3.6" r="2.3"/>
</g>
</svg>
