<?xml version="1.0" encoding="utf-8"?>
<!-- Generator: Adobe Illustrator 26.3.0, SVG Export Plug-In . SVG Version: 6.00 Build 0)  -->
<svg version="1.1" id="Layer_1" xmlns="http://www.w3.org/2000/svg" xmlns:xlink="http://www.w3.org/1999/xlink" x="0px" y="0px"
	 viewBox="0 0 16 16" style="enable-background:new 0 0 16 16;" xml:space="preserve">
<style type="text/css">
	.st0{opacity:0.5;fill:#FFFFFF;enable-background:new    ;}
	.st1{fill:#6485C3;}
</style>
<g id="icon">
	<polygon class="st0" points="16,7.5 8.5,7.5 8.5,0 7.5,0 7.5,7.5 0,7.5 0,8.5 7.5,8.5 7.5,16 8.5,16 8.5,8.5 16,8.5 	"/>
	<path class="st1" d="M8.5,7.5H16V3c0-1.7-1.4-3-3-3H8.5V7.5z M14,3.5v1h-4v-1H14z M8.5,8.5V16H13c1.7,0,3-1.4,3-3V8.5H8.5z
		 M13.9,13.2L13.2,14L12,12.7L10.8,14L10,13.2l1.2-1.2L10,10.8l0.7-0.7l1.2,1.2l1.2-1.2l0.7,0.7L12.7,12L13.9,13.2z M7.5,8.5H0V13
		c0,1.7,1.4,3,3,3h4.5V8.5z M3.5,9.8c0.3-0.3,0.7-0.3,0.9,0c0.3,0.3,0.3,0.7,0,0.9c-0.3,0.3-0.7,0.3-0.9,0
		C3.2,10.5,3.2,10.1,3.5,9.8z M4.4,14.2c-0.3,0.3-0.7,0.3-0.9,0s-0.3-0.7,0-0.9s0.7-0.3,0.9,0C4.6,13.5,4.6,13.9,4.4,14.2z
		 M1.8,12.5v-1H6v1H1.8z M7.5,7.5V0H3C1.4,0,0,1.4,0,3v4.5H7.5z M2,3.5h1.5V2h1v1.5h1.6v1H4.5v1.6h-1V4.5H2V3.5z"/>
	<polygon class="st0" points="16.4,7.5 8.5,7.5 8.5,-0.3 7.5,-0.3 7.5,7.5 -0.3,7.5 -0.3,8.5 7.5,8.5 7.5,16.4 8.5,16.4 8.5,8.5 
		16.4,8.5 	"/>
	<path class="st0" d="M4.5,3.5h1.6v1H4.5v1.6h-1V4.5H2v-1h1.5V2h1V3.5z M13.2,10.1L12,11.3l-1.2-1.2L10,10.8l1.2,1.2L10,13.2
		l0.7,0.7l1.2-1.2l1.2,1.2l0.7-0.7L12.7,12l1.2-1.2L13.2,10.1z M10,3.5v1h4v-1H10z M4.4,10.8c0.3-0.3,0.3-0.7,0-0.9s-0.7-0.3-0.9,0
		s-0.3,0.7,0,0.9C3.7,11,4.1,11,4.4,10.8z M3.5,13.3c-0.3,0.3-0.3,0.7,0,0.9s0.7,0.3,0.9,0c0.3-0.3,0.3-0.7,0-0.9
		C4.1,13,3.7,13,3.5,13.3z M1.8,12.5H6v-1H1.8V12.5z"/>
</g>
</svg>
