<?xml version="1.0" encoding="UTF-8"?>
<!DOCTYPE svg PUBLIC "-//W3C//DTD SVG 1.1//EN" "http://www.w3.org/Graphics/SVG/1.1/DTD/svg11.dtd">
<svg version="1.1" id="Layer_1" xmlns="http://www.w3.org/2000/svg" xmlns:xlink="http://www.w3.org/1999/xlink" x="0px" y="0px" width="32px" height="32px" viewBox="0 0 32 32" enable-background="new 0 0 32 32" xml:space="preserve">
  <g id="icon">
    <path d="M24.37,4.933c-1.19,0,-2.311,0.3,-3.298,0.826C19.749,2.664,16.728,0.5,13.21,0.5C8.863,0.5,5.275,3.804,4.712,8.086C2.287,8.749,0.5,11.008,0.5,13.694c0,3.144,2.446,5.702,5.5,5.801l18.998,-0.025c3.644,-0.325,6.502,-3.447,6.502,-7.254C31.5,8.194,28.308,4.933,24.37,4.933z" fill="#FFFFFF"/>
    <path d="M23.495,12.937v13.77c0,1.904,-3.581,3.793,-7.998,3.793S7.5,28.611,7.5,26.707v-13.77" fill="#FFFFFF" stroke="#ED8730" stroke-width="1" stroke-miterlimit="1"/>
    <ellipse cx="15.498" cy="12.799" rx="7.998" ry="2.299" fill="#FFFFFF" stroke="#ED8730" stroke-width="1" stroke-miterlimit="1"/>
    <path d="M24.37,4.433c-1.051,0,-2.098,0.224,-3.058,0.653C19.774,1.979,16.648,0,13.21,0C8.79,0,5,3.287,4.264,7.7C1.738,8.539,0,10.958,0,13.694c0,3.414,2.675,6.201,6,6.301v-1c-2.773,-0.099,-5,-2.438,-5,-5.301c0,-2.4,1.581,-4.508,3.844,-5.126l0.321,-0.088l0.043,-0.33C5.743,4.074,9.183,1,13.21,1c3.21,0,6.116,1.945,7.402,4.956c0.447,1.046,0.674,2.158,0.674,3.305h1c0,-1.123,-0.195,-2.216,-0.579,-3.257c0.839,-0.379,1.733,-0.571,2.662,-0.571c3.656,0,6.63,3.043,6.63,6.783c0,3.524,-2.64,6.427,-6.002,6.752l0,1.003c3.914,-0.327,7.002,-3.679,7.002,-7.755C32,7.925,28.577,4.433,24.37,4.433z" fill="#383838"/>
  </g>
</svg>
