<?xml version="1.0" encoding="UTF-8"?>
<!DOCTYPE svg PUBLIC "-//W3C//DTD SVG 1.1//EN" "http://www.w3.org/Graphics/SVG/1.1/DTD/svg11.dtd">
<svg version="1.1" id="Layer_1" xmlns="http://www.w3.org/2000/svg" xmlns:xlink="http://www.w3.org/1999/xlink" x="0px" y="0px" width="32px" height="32px" viewBox="0 0 32 32" enable-background="new 0 0 32 32" xml:space="preserve">
  <g id="icon">
    <rect x="1.5" y="14.5" width="24" height="16" fill="#FFFFFF" stroke="#383838" stroke-width="1" stroke-miterlimit="1"/>
    <rect x="1.5" y="9.5" width="24" height="5" fill="#92CBEE" stroke="#0964B0" stroke-width="1" stroke-linecap="round" stroke-miterlimit="1"/>
    <polygon points="7.5,6.5 7.5,8 27,8 27,22.5 30.5,22.5 30.5,6.5" fill="#FFFFFF" stroke-linejoin="miter"/>
    <polygon points="7,6 7,8 8,8 8,7 30,7 30,22 27,22 27,23 31,23 31,6" fill="#383838" stroke-linejoin="miter"/>
    <rect x="7.5" y="1.5" width="23" height="5" fill="#92CBEE" stroke="#0964B0" stroke-width="1" stroke-linecap="round" stroke-miterlimit="1"/>
    <path d="M2,18.5h23M2,22.5h23M2,26.5h23M7.5,15v15M13.5,15v15M19.5,15v15" fill="none" stroke="#787979" stroke-width="1" stroke-miterlimit="1" opacity="0.6"/>
    <path d="M27,10.5h3M27,14.5h3M27,18.5h3M12.5,7v1M18.5,7v1M24.5,7v1" fill="none" stroke="#787979" stroke-width="1" stroke-miterlimit="1" opacity="0.6"/>
  </g>
</svg>
