<?xml version="1.0" encoding="UTF-8"?>
<!DOCTYPE svg PUBLIC "-//W3C//DTD SVG 1.1//EN" "http://www.w3.org/Graphics/SVG/1.1/DTD/svg11.dtd">
<svg version="1.1" id="Layer_1" xmlns="http://www.w3.org/2000/svg" xmlns:xlink="http://www.w3.org/1999/xlink" x="0px" y="0px" width="32px" height="32px" viewBox="0 0 32 32" enable-background="new 0 0 32 32" xml:space="preserve">
  <g id="icon">
    <path d="M3.5,3.5v5.692c0.31,-0.08,0.631,-0.128,0.961,-0.139c0.055,-0.002,0.11,-0.003,0.164,-0.003c1.171,0,2.222,0.418,3.04,1.208C8.59,11.152,9.1,12.419,9.1,13.825V17.8h3v6.683h18.4V3.5H3.5z" fill="#FFFFFF"/>
    <polyline points="3.5,4.059 17,14.311 30.5,4.059" fill="none" stroke="#383838" stroke-width="1" stroke-miterlimit="1" stroke-linejoin="miter"/>
    <path d="M3,3v6.353c0.319,-0.123,0.653,-0.212,1,-0.26V4h26v19.983H12.1v1h18.9V3H3z" fill="#383838"/>
    <path d="M10.55,18.8v7.26c0,2.163,-1.567,4.04,-3.708,4.345c-3.011,0.429,-5.292,-1.896,-5.292,-4.824l0,-11.849c0,-1.665,1.299,-3.075,2.963,-3.131c1.832,-0.062,3.037,1.405,3.037,3.223l0,10.847c0,0.685,-0.466,1.296,-1.135,1.44c-1.066,0.229,-1.865,-0.581,-1.865,-1.611V15.8" fill="none" stroke="#228BCB" stroke-width="1.1" stroke-miterlimit="1"/>
  </g>
</svg>
