<?xml version="1.0" encoding="UTF-8"?>
<!DOCTYPE svg PUBLIC "-//W3C//DTD SVG 1.1//EN" "http://www.w3.org/Graphics/SVG/1.1/DTD/svg11.dtd">
<svg version="1.1" id="Layer_1" xmlns="http://www.w3.org/2000/svg" xmlns:xlink="http://www.w3.org/1999/xlink" x="0px" y="0px" width="32px" height="32px" viewBox="0 0 32 32" enable-background="new 0 0 32 32" xml:space="preserve">
  <g id="icon">
    <path d="M19.5,1.5C13.425,1.5,8.5,6.447,8.5,12.55c0,0.151,0.004,0.301,0.01,0.45H20v10.588c5.843,-0.263,10.5,-5.104,10.5,-11.038C30.5,6.447,25.575,1.5,19.5,1.5z" fill="#FFFFFF"/>
    <path d="M19.5,1C13.159,1,8,6.181,8,12.55c0,0.151,0.004,0.301,0.01,0.45h1.001c-0.006,-0.149,-0.011,-0.299,-0.011,-0.45c0,-0.879,0.108,-1.733,0.311,-2.55h3.784c-0.199,0.878,-0.307,1.752,-0.307,2.591c0,0.134,0.004,0.271,0.01,0.409h1c-0.006,-0.137,-0.01,-0.274,-0.01,-0.409c0,-0.832,0.12,-1.709,0.337,-2.591H19v3h1v-3h4.763c0.213,0.881,0.33,1.758,0.33,2.591c0,0.778,-0.101,1.592,-0.284,2.409H20v1h4.546c-0.859,2.827,-2.625,5.532,-4.546,6.739v1.349c6.11,-0.264,11,-5.338,11,-11.538C31,6.181,25.841,1,19.5,1zM13.36,9H9.612c1.245,-3.49,4.27,-6.134,7.97,-6.823C15.749,3.745,14.167,6.329,13.36,9zM19,9h-4.589c0.9,-2.76,2.669,-5.405,4.589,-6.642V9zM20,9V2.39c1.878,1.243,3.602,3.867,4.482,6.61H20zM21.347,2.164c3.732,0.668,6.788,3.325,8.041,6.836h-3.856C24.734,6.317,23.165,3.726,21.347,2.164zM21.444,22.918c1.896,-1.612,3.388,-4.292,4.132,-6.918h3.847C28.204,19.53,25.168,22.215,21.444,22.918zM25.823,15c0.176,-0.836,0.27,-1.652,0.27,-2.409c0,-0.839,-0.107,-1.714,-0.302,-2.591h3.897c0.203,0.817,0.311,1.671,0.311,2.55c0,0.843,-0.1,1.663,-0.286,2.45H25.823z" fill="#228BCB"/>
    <rect x="1.5" y="17.5" width="17" height="13" fill="#FFFFFF" stroke="#383838" stroke-width="1" stroke-miterlimit="1"/>
    <rect x="1.5" y="14.5" width="17" height="3" fill="#F3B8B8" stroke="#E42D2C" stroke-width="1" stroke-linecap="round" stroke-miterlimit="1"/>
    <path d="M4.367,24.833c-0.489,-0.489,-0.489,-1.28,-0.002,-1.768c0.488,-0.488,1.279,-0.487,1.768,0.002c0.489,0.489,0.489,1.28,0.002,1.768C5.647,25.322,4.856,25.322,4.367,24.833zM9.167,24.833c-0.489,-0.489,-0.489,-1.28,-0.002,-1.768c0.488,-0.488,1.279,-0.487,1.768,0.002c0.489,0.489,0.489,1.28,0.002,1.768C10.447,25.322,9.656,25.322,9.167,24.833zM13.867,24.833c-0.489,-0.489,-0.489,-1.28,-0.002,-1.768c0.488,-0.488,1.279,-0.487,1.768,0.002c0.489,0.489,0.489,1.28,0.002,1.768C15.147,25.322,14.356,25.322,13.867,24.833z" fill="#FFFFFF" stroke="#EE3D3B" stroke-width="1" stroke-miterlimit="1"/>
  </g>
</svg>
