<?xml version="1.0" encoding="UTF-8"?>
<!DOCTYPE svg PUBLIC "-//W3C//DTD SVG 1.1//EN" "http://www.w3.org/Graphics/SVG/1.1/DTD/svg11.dtd">
<svg version="1.1" id="Layer_1" xmlns="http://www.w3.org/2000/svg" xmlns:xlink="http://www.w3.org/1999/xlink" x="0px" y="0px" width="32px" height="32px" viewBox="0 0 32 32" enable-background="new 0 0 32 32" xml:space="preserve">
  <g id="icon">
    <polygon points="27,15 27,19.6 22.8,19.6 21.467,23.5 10.567,23.5 9.133,19.6 5,19.6 5,15 1.5,19.5 1.5,30.5 30.5,30.5 30.5,19.5" fill="#FFFFFF" stroke-linejoin="miter"/>
    <polygon points="27,14.186 27,15.814 30,19.672 30,30 2,30 2,19.672 5,15.814 5,14.186 1,19.328 1,31 31,31 31,19.328" fill="#383838" stroke-linejoin="miter"/>
    <polygon points="21.853,24 10.145,24 8.753,20 1.5,20 1.5,19 9.464,19 10.855,23 21.147,23 22.573,19 30.5,19 30.5,20 23.278,20" fill="#383838" stroke-linejoin="miter"/>
    <path d="M20.63,15.355l-5.165,1.99c-0.488,0.188,-0.969,-0.291,-0.783,-0.78l1.975,-5.181L25.5,2.559V1.5H6.5v16.5h3.733l1.5,4H20.4l1.467,-4H25.5v-7.501L20.63,15.355z" fill="#FFFFFF"/>
    <path d="M25,2H7v16H6V1h20v1.06l-1,0.998V2zM25,10.997V18h1v-8L25,10.997z" fill="#383838"/>
    <path d="M17.945,12.22l9.414,-9.398c0.406,-0.405,1.063,-0.405,1.469,0l0.385,0.385c0.406,0.406,0.406,1.064,-0.001,1.47l-9.418,9.392L16.8,15.224L17.945,12.22zM25.582,4.602l1.78,1.83" fill="#FFFFFF" stroke="#228BCB" stroke-width="1" stroke-miterlimit="1"/>
  </g>
</svg>
