<?xml version="1.0" encoding="UTF-8"?>
<!DOCTYPE svg PUBLIC "-//W3C//DTD SVG 1.1//EN" "http://www.w3.org/Graphics/SVG/1.1/DTD/svg11.dtd">
<svg version="1.1" id="Layer_1" xmlns="http://www.w3.org/2000/svg" xmlns:xlink="http://www.w3.org/1999/xlink" x="0px" y="0px" width="32px" height="32px" viewBox="0 0 32 32" enable-background="new 0 0 32 32" xml:space="preserve">
  <g id="icon">
    <rect x="1.5" y="7.5" width="29" height="23" fill="#FFFFFF" stroke="#383838" stroke-width="1" stroke-miterlimit="1"/>
    <path d="M1.5,2.5v5h29V2.5H1.5zM21,6H3V4h18V6zM25,6h-2V4h2V6zM29,6h-2V4h2V6z" fill="#92CBEE"/>
    <path d="M31,8H1V2h30V8zM2,7h28V3H2V7z" fill="#0964B0"/>
    <path d="M23,4h2v2h-2V4zM27,4h2v2h-2V4zM3,4h18v2H3V4z" fill="#FFFFFF"/>
    <rect x="4.5" y="10.5" width="23" height="2" fill="#C8C6C4" stroke="#383838" stroke-width="1" stroke-linecap="round" stroke-miterlimit="1"/>
    <rect x="19.5" y="15.5" width="8" height="12" fill="#BEE2E5" stroke="#21B4C9" stroke-width="1" stroke-linecap="round" stroke-miterlimit="1"/>
    <path d="M4,15.5h13M4,18.5h13M4,21.5h13M4,24.5h13M4,27.5h13" fill="none" stroke="#787979" stroke-width="1" stroke-miterlimit="1"/>
  </g>
</svg>
