<?xml version="1.0" encoding="UTF-8"?>
<!DOCTYPE svg PUBLIC "-//W3C//DTD SVG 1.1//EN" "http://www.w3.org/Graphics/SVG/1.1/DTD/svg11.dtd">
<svg version="1.1" id="Layer_1" xmlns="http://www.w3.org/2000/svg" xmlns:xlink="http://www.w3.org/1999/xlink" x="0px" y="0px" width="32px" height="32px" viewBox="0 0 32 32" enable-background="new 0 0 32 32" xml:space="preserve">
  <g id="icon">
    <rect x="1.5" y="7.5" width="29" height="23" fill="#FFFFFF" stroke="#383838" stroke-width="1" stroke-miterlimit="1"/>
    <path d="M1.5,2.5v5h29V2.5H1.5zM21,6H3V4h18V6zM25,6h-2V4h2V6zM29,6h-2V4h2V6z" fill="#92CBEE"/>
    <path d="M31,8H1V2h30V8zM2,7h28V3H2V7z" fill="#0964B0"/>
    <path d="M23,4h2v2h-2V4zM27,4h2v2h-2V4zM3,4h18v2H3V4z" fill="#FFFFFF"/>
    <path d="M25.444,22l-1.177,-3.78l-1.16,3.78h-0.888l-1.654,-6h1.114l1.018,3.69l1.13,-3.681h0.875l1.153,3.704L26.889,16h1.057l0.053,0.012L26.33,22H25.444zM17.162,22l-1.177,-3.78l-1.16,3.78h-0.888l-1.654,-6h1.114l1.018,3.69l1.13,-3.681h0.875l1.153,3.704L18.607,16h1.057l0.053,0.012L18.048,22H17.162zM8.88,22l-1.177,-3.78L6.543,22h-0.888L4,16h1.114l1.018,3.69l1.13,-3.681h0.875l1.153,3.704L10.325,16h1.057l0.053,0.012L9.766,22H8.88z" fill="#78797A"/>
  </g>
</svg>
