<?xml version="1.0" encoding="iso-8859-1"?>
<!-- Generator: Adobe Illustrator 26.3.0, SVG Export Plug-In . SVG Version: 6.00 Build 0)  -->
<svg version="1.1" id="Layer_1" xmlns="http://www.w3.org/2000/svg" xmlns:xlink="http://www.w3.org/1999/xlink" x="0px" y="0px"
	 viewBox="0 0 16 16" style="enable-background:new 0 0 16 16;" xml:space="preserve">
<g id="icon">
	<rect x="1.5" y="1.5" style="opacity:0.5;fill:#FFFFFF;enable-background:new    ;" width="13" height="12.9"/>
	<path style="fill:#6E6F72;" d="M16,2V1h-1V0h-1v1H2V0H1v1H0v1h1v12H0v1h1v1h1v-1h12v1h1v-1h1v-1h-1V2H16z M14,14H2V2h12V14z"/>
	<polygon style="fill:#6486C4;" points="13,3.993 13,5.407 5.407,13 3.993,13 	"/>
	<polygon style="fill:#6486C4;" points="8.407,3 6.993,3 3,6.993 3,8.407 	"/>
	<polygon style="fill:#6486C4;" points="7.493,13 8.907,13 13,8.907 13,7.493 	"/>
	<polygon style="fill:#6486C4;" points="13,12.407 13,10.993 10.993,13 12.407,13 	"/>
	<polygon style="fill:#6486C4;" points="11.907,3 10.493,3 3,10.493 3,11.907 	"/>
	<polygon style="fill:#6486C4;" points="3,3.493 3,4.907 4.907,3 3.493,3 	"/>
</g>
</svg>
