<?xml version="1.0" encoding="iso-8859-1"?>
<!-- Generator: Adobe Illustrator 26.3.0, SVG Export Plug-In . SVG Version: 6.00 Build 0)  -->
<svg version="1.1" id="Layer_1" xmlns="http://www.w3.org/2000/svg" xmlns:xlink="http://www.w3.org/1999/xlink" x="0px" y="0px"
	 viewBox="0 0 16 16" style="enable-background:new 0 0 16 16;" xml:space="preserve">
<g id="icon">
	<ellipse style="opacity:0.6;fill:#FFFFFF;enable-background:new    ;" cx="8" cy="8" rx="7.5" ry="4.5"/>
	<path style="opacity:0.6;fill:#FFFFFF;enable-background:new    ;" d="M8.045,9.141C5.843,9.141,4.013,8.403,4.013,8
		c0-0.392,1.83-1.286,4.032-1.286s3.943,1,3.943,1.286C11.987,8.436,10.247,9.141,8.045,9.141z"/>
	<path style="opacity:0.5;fill:#6D6E71;enable-background:new    ;" d="M2.274,10.291c-1.227,0-2.226-1.028-2.226-2.292
		s0.998-2.292,2.226-2.292S4.5,6.736,4.5,7.999S3.501,10.291,2.274,10.291z M2.274,6.708c-0.676,0-1.226,0.579-1.226,1.292
		s0.55,1.292,1.226,1.292S3.5,8.712,3.5,7.999S2.95,6.708,2.274,6.708z"/>
	<path style="opacity:0.5;fill:#6D6E71;enable-background:new    ;" d="M13.731,10.291c-1.227,0-2.226-1.028-2.226-2.292
		s0.998-2.292,2.226-2.292s2.226,1.028,2.226,2.292S14.958,10.291,13.731,10.291z M13.731,6.708c-0.676,0-1.226,0.579-1.226,1.292
		s0.55,1.292,1.226,1.292s1.226-0.579,1.226-1.292S14.406,6.708,13.731,6.708z"/>
	<path style="fill:#6E6F72;" d="M8,13c-2.093,0-4.067-0.493-5.561-1.389C0.866,10.667,0,9.385,0,8s0.866-2.667,2.44-3.611
		C3.933,3.493,5.907,3,8,3s4.067,0.493,5.561,1.389C15.134,5.333,16,6.615,16,8s-0.866,2.667-2.439,3.611
		C12.067,12.507,10.093,13,8,13z M8,4C6.086,4,4.294,4.443,2.954,5.247C1.694,6.003,1,6.981,1,8s0.694,1.997,1.954,2.753
		C4.294,11.557,6.086,12,8,12s3.706-0.443,5.046-1.247C14.306,9.997,15,9.019,15,8s-0.694-1.997-1.954-2.753
		C11.706,4.443,9.914,4,8,4z"/>
	<path style="fill:#6E6F72;" d="M8.045,9.641c-1.402,0-2.478-0.278-2.994-0.443C3.513,8.705,3.513,8.174,3.513,8
		c0-0.461,0.51-0.885,1.516-1.259c0.53-0.197,1.625-0.527,3.016-0.527c1.359,0,2.453,0.358,2.984,0.572
		C11.996,7.175,12.487,7.584,12.487,8C12.487,9.071,9.907,9.641,8.045,9.641z M4.705,7.989c0.529,0.273,1.792,0.652,3.34,0.652
		c1.581,0,2.75-0.367,3.244-0.625c-0.53-0.317-1.75-0.802-3.244-0.802C6.464,7.214,5.217,7.689,4.705,7.989z"/>
</g>
</svg>
