<?xml version="1.0" encoding="iso-8859-1"?>
<!-- Generator: Adobe Illustrator 26.3.0, SVG Export Plug-In . SVG Version: 6.00 Build 0)  -->
<svg version="1.1" id="Layer_1" xmlns="http://www.w3.org/2000/svg" xmlns:xlink="http://www.w3.org/1999/xlink" x="0px" y="0px"
	 viewBox="0 0 16 16" style="enable-background:new 0 0 16 16;" xml:space="preserve">
<g id="icon">
	<polygon style="opacity:0.5;fill:#FFFFFF;enable-background:new    ;" points="15.5,15.5 4.5,15.5 4.5,0.5 11.533,0.5 15.5,4.557 	
		"/>
	<polygon style="fill:#6D6E71;" points="11.744,0 4,0 4,9.5 5,9.5 5,1 11,1 11,5 15,5 15,15 13,15 13,16 16,16 16,4.353 	"/>
	<path style="fill:#6485C3;" d="M1.654,16.01H0V11h1.654c0.307,0,0.594,0.061,0.853,0.181c0.263,0.122,0.491,0.3,0.678,0.531
		c0.179,0.22,0.318,0.488,0.414,0.796c0.092,0.296,0.139,0.631,0.139,0.997S3.692,14.206,3.6,14.502
		c-0.096,0.308-0.235,0.576-0.414,0.796c-0.187,0.231-0.415,0.41-0.678,0.531C2.248,15.95,1.961,16.01,1.654,16.01z M1,15.01h0.654
		c0.163,0,0.304-0.029,0.433-0.088c0.125-0.058,0.23-0.141,0.322-0.254c0.099-0.122,0.178-0.278,0.236-0.464
		c0.062-0.199,0.093-0.434,0.093-0.699c0-0.265-0.031-0.5-0.093-0.699c-0.058-0.186-0.138-0.342-0.236-0.464
		c-0.092-0.113-0.197-0.196-0.322-0.254C1.959,12.029,1.817,12,1.654,12H1V15.01z M8.365,11.101l-0.979-0.202l-0.482,2.335
		l-0.515-2.221H5.568l-0.503,2.198l-0.472-2.302l-0.98,0.201l1.005,4.901H5.45l0.532-2.325l0.54,2.325h0.83L8.365,11.101z
		 M10.763,15.971c0.136-0.026,0.267-0.064,0.391-0.112c0.122-0.048,0.241-0.107,0.353-0.175c0.104-0.064,0.206-0.135,0.304-0.213
		L12,15.321v-2.157h-1.521v1H11v0.658c-0.005,0.003-0.01,0.006-0.014,0.009c-0.062,0.038-0.127,0.07-0.195,0.097
		c-0.067,0.026-0.14,0.047-0.216,0.062c-0.075,0.014-0.158,0.022-0.246,0.022c-0.187,0-0.352-0.032-0.492-0.095
		C9.7,14.855,9.588,14.77,9.494,14.655c-0.101-0.123-0.181-0.278-0.238-0.462c-0.061-0.198-0.093-0.43-0.093-0.688
		c0-0.257,0.031-0.488,0.092-0.687c0.056-0.184,0.136-0.339,0.236-0.461c0.095-0.116,0.206-0.202,0.339-0.264
		C9.967,12.031,10.12,12,10.3,12c0.094,0,0.18,0.007,0.254,0.019c0.066,0.012,0.128,0.029,0.182,0.051
		c0.052,0.021,0.101,0.049,0.146,0.082c0.055,0.04,0.11,0.089,0.165,0.144l0.717-0.697c-0.094-0.097-0.192-0.183-0.293-0.256
		c-0.11-0.08-0.229-0.147-0.354-0.198c-0.122-0.05-0.254-0.087-0.392-0.111C10.594,11.011,10.451,11,10.3,11
		c-0.323,0-0.623,0.063-0.89,0.186c-0.27,0.125-0.503,0.306-0.693,0.537c-0.183,0.223-0.324,0.493-0.419,0.802
		c-0.09,0.294-0.136,0.623-0.136,0.98c0,0.359,0.046,0.69,0.137,0.984c0.096,0.309,0.237,0.578,0.421,0.802
		c0.192,0.233,0.429,0.413,0.704,0.537c0.269,0.121,0.573,0.183,0.902,0.183C10.479,16.01,10.626,15.997,10.763,15.971z"/>
</g>
</svg>
