<?xml version="1.0" encoding="iso-8859-1"?>
<!-- Generator: Adobe Illustrator 26.3.0, SVG Export Plug-In . SVG Version: 6.00 Build 0)  -->
<svg version="1.1" id="Layer_1" xmlns="http://www.w3.org/2000/svg" xmlns:xlink="http://www.w3.org/1999/xlink" x="0px" y="0px"
	 viewBox="0 0 16 16" style="enable-background:new 0 0 16 16;" xml:space="preserve">
<g id="icon">
	<polygon style="opacity:0.5;fill:#FFFFFF;enable-background:new    ;" points="15.5,15.5 4.5,15.5 4.5,0.5 11.533,0.5 15.5,4.557 	
		"/>
	<polygon style="fill:#6D6E71;" points="11.744,0 4,0 4,9.5 5,9.5 5,1 11,1 11,5 15,5 15,15 13,15 13,16 16,16 16,4.353 	"/>
	<path style="fill:#6485C3;" d="M3.751,11.715c-0.194-0.23-0.431-0.409-0.703-0.532C2.78,11.062,2.482,11,2.165,11
		c-0.317,0-0.614,0.062-0.882,0.186c-0.27,0.124-0.505,0.303-0.699,0.532c-0.188,0.222-0.335,0.49-0.436,0.798
		C0.05,12.812,0,13.145,0,13.505c0,0.362,0.05,0.696,0.148,0.991c0.102,0.307,0.248,0.574,0.437,0.795
		c0.194,0.228,0.43,0.406,0.7,0.529c0.268,0.122,0.564,0.183,0.881,0.183c0.318,0,0.615-0.062,0.884-0.183
		c0.271-0.123,0.507-0.301,0.702-0.529c0.188-0.221,0.335-0.489,0.436-0.795c0.098-0.296,0.148-0.63,0.148-0.991
		c0-0.362-0.05-0.696-0.148-0.992C4.085,12.205,3.939,11.936,3.751,11.715z M3.237,14.182c-0.061,0.184-0.145,0.339-0.249,0.462
		c-0.099,0.117-0.214,0.204-0.352,0.266c-0.14,0.063-0.295,0.094-0.472,0.094c-0.175,0-0.328-0.031-0.467-0.094
		c-0.137-0.062-0.252-0.149-0.352-0.266c-0.104-0.123-0.188-0.278-0.249-0.462C1.033,13.987,1,13.76,1,13.505
		c0-0.253,0.033-0.481,0.097-0.676c0.061-0.185,0.145-0.341,0.25-0.465c0.1-0.118,0.215-0.206,0.352-0.269
		C1.838,12.031,1.99,12,2.165,12c0.177,0,0.332,0.031,0.472,0.094c0.137,0.062,0.252,0.149,0.351,0.266
		c0.105,0.124,0.189,0.28,0.25,0.465c0.065,0.196,0.097,0.424,0.097,0.679C3.334,13.759,3.302,13.987,3.237,14.182z M7.978,13.404
		c0.092-0.116,0.168-0.248,0.222-0.39c0.066-0.173,0.099-0.348,0.099-0.52c0-0.469-0.171-0.857-0.496-1.123
		C7.5,11.121,7.083,11,6.529,11H5v2v1v2h1.688c0.247,0,0.474-0.028,0.677-0.083c0.224-0.061,0.42-0.156,0.584-0.283
		c0.177-0.137,0.313-0.31,0.405-0.516c0.088-0.197,0.131-0.407,0.131-0.643c0-0.223-0.047-0.426-0.145-0.621
		C8.253,13.681,8.13,13.53,7.978,13.404z M6,12h0.529c0.405,0,0.575,0.09,0.64,0.144c0.032,0.026,0.13,0.107,0.13,0.351
		c0,0.05-0.011,0.106-0.034,0.165c-0.023,0.059-0.058,0.115-0.097,0.154c-0.05,0.049-0.123,0.093-0.218,0.13
		C6.853,12.98,6.721,13,6.559,13H6V12z M7.442,14.71c-0.025,0.055-0.058,0.098-0.105,0.134c-0.059,0.045-0.137,0.082-0.234,0.108
		C6.986,14.984,6.846,15,6.688,15H6v-1h0.559h0.135c0.148,0,0.28,0.017,0.395,0.049c0.098,0.028,0.178,0.066,0.238,0.113
		c0.052,0.04,0.091,0.087,0.119,0.142c0.028,0.057,0.039,0.103,0.039,0.172C7.485,14.596,7.463,14.662,7.442,14.71z M11.5,11v3.218
		c0,0.269-0.036,0.512-0.106,0.723c-0.076,0.226-0.187,0.42-0.33,0.578c-0.149,0.164-0.33,0.289-0.538,0.37
		c-0.194,0.075-0.406,0.114-0.63,0.114c-0.163,0-0.421-0.069-1.06-0.283l-0.074-0.025l0.313-0.95l0.078,0.026
		c0.503,0.168,0.693,0.219,0.761,0.231c0.092-0.002,0.176-0.017,0.248-0.045c0.064-0.025,0.116-0.061,0.161-0.11
		c0.05-0.055,0.091-0.13,0.122-0.224c0.036-0.108,0.055-0.244,0.055-0.405V11H11.5z"/>
</g>
</svg>
