<?xml version="1.0" encoding="iso-8859-1"?>
<!-- Generator: Adobe Illustrator 26.3.0, SVG Export Plug-In . SVG Version: 6.00 Build 0)  -->
<svg version="1.1" id="Layer_1" xmlns="http://www.w3.org/2000/svg" xmlns:xlink="http://www.w3.org/1999/xlink" x="0px" y="0px"
	 viewBox="0 0 16 16" style="enable-background:new 0 0 16 16;" xml:space="preserve">
<g id="icon">
	<polygon style="opacity:0.5;fill:#FFFFFF;enable-background:new    ;" points="12.132,10.898 15.015,12.23 7.977,15.446 
		0.985,12.23 3.849,10.899 7.976,12.798 	"/>
	<polygon style="fill:#6D6E71;" points="7.977,16 16.003,12.332 12.441,10.687 11.452,11.139 14.027,12.328 7.978,15.093 
		1.967,12.328 4.524,11.139 3.541,10.687 0.002,12.332 	"/>
	<polygon style="opacity:0.5;fill:#FFFFFF;enable-background:new    ;" points="12.132,6.586 15.015,7.917 7.977,11.134 
		0.985,7.917 3.849,6.586 7.976,8.485 	"/>
	<polygon style="fill:#6D6E71;" points="7.977,11.687 16.003,8.019 12.441,6.374 11.452,6.826 14.027,8.015 7.978,10.78 
		1.967,8.015 4.524,6.827 3.541,6.374 0.002,8.019 	"/>
	<polygon style="fill:#6485C3;" points="7.977,0 0.002,3.706 7.977,7.374 16.003,3.706 	"/>
</g>
</svg>
