<?xml version="1.0" encoding="iso-8859-1"?>
<!-- Generator: Adobe Illustrator 26.3.0, SVG Export Plug-In . SVG Version: 6.00 Build 0)  -->
<svg version="1.1" id="Layer_1" xmlns="http://www.w3.org/2000/svg" xmlns:xlink="http://www.w3.org/1999/xlink" x="0px" y="0px"
	 viewBox="0 0 16 16" style="enable-background:new 0 0 16 16;" xml:space="preserve">
<g id="icon">
	<path style="fill:#6D6E71;" d="M3.745,14C3.781,13.839,3.8,13.672,3.8,13.5S3.78,13.161,3.745,13h4.011
		C7.719,13.161,7.7,13.328,7.7,13.5s0.019,0.339,0.055,0.5H3.745z"/>
	<path style="fill:#6D6E71;" d="M14.798,5.791c-0.666-0.781-1.546-1.326-2.517-1.583C12.293,4.304,12.3,4.401,12.3,4.5
		c0,0.252-0.041,0.494-0.116,0.72c0.713,0.22,1.357,0.638,1.853,1.219c0.769,0.901,1.087,2.051,0.898,3.24
		c-0.236,1.483-1.334,2.679-2.741,3.129c0.069,0.218,0.106,0.451,0.106,0.692c0,0.11-0.008,0.219-0.023,0.325
		c1.862-0.504,3.337-2.052,3.646-3.988C16.155,8.377,15.745,6.902,14.798,5.791z"/>
	<path style="fill:#CC525E;" d="M10,15c-0.827,0-1.5-0.673-1.5-1.5S9.173,12,10,12s1.5,0.673,1.5,1.5S10.827,15,10,15z M1.5,15
		C0.673,15,0,14.327,0,13.5S0.673,12,1.5,12S3,12.673,3,13.5S2.327,15,1.5,15z M10,6C9.173,6,8.5,5.327,8.5,4.5S9.173,3,10,3
		s1.5,0.673,1.5,1.5S10.827,6,10,6z"/>
	<path style="opacity:0.5;fill:#FFFFFF;enable-background:new    ;" d="M2.404,8.479l4.377-7.861
		c0.233-0.425,1.753,0.406,1.52,0.831L3.92,9.308c-0.12,0.22-1.72,1.374-1.72,1.374S2.283,8.699,2.404,8.479z"/>
	<path style="fill:#6486C4;" d="M1.657,11.69l0.043-1.029c0.088-2.099,0.212-2.326,0.265-2.422l0.002-0.003l4.377-7.861
		c0.254-0.464,0.872-0.503,1.611-0.099c0.25,0.137,0.469,0.306,0.617,0.477C8.948,1.187,8.814,1.552,8.74,1.689L4.356,9.551
		c-0.05,0.092-0.173,0.316-1.864,1.536L1.657,11.69z M2.859,8.688C2.827,8.82,2.791,9.196,2.759,9.644
		c0.357-0.273,0.65-0.51,0.739-0.607l4.279-7.675C7.634,1.224,7.326,1.056,7.134,1.011L2.859,8.688z M3.489,9.054
		c-0.003,0.005-0.005,0.01-0.008,0.014L3.489,9.054z M7.219,0.858L7.217,0.862C7.218,0.86,7.219,0.859,7.219,0.858z"/>
	
		<rect x="6.39" y="1.336" transform="matrix(0.4748 -0.8801 0.8801 0.4748 1.7062 7.205)" style="fill:#6486C4;" width="1" height="1.675"/>
</g>
</svg>
