<?xml version="1.0" encoding="iso-8859-1"?>
<!-- Generator: Adobe Illustrator 26.3.0, SVG Export Plug-In . SVG Version: 6.00 Build 0)  -->
<svg version="1.1" id="Layer_1" xmlns="http://www.w3.org/2000/svg" xmlns:xlink="http://www.w3.org/1999/xlink" x="0px" y="0px"
	 viewBox="0 0 16 16" style="enable-background:new 0 0 16 16;" xml:space="preserve">
<g id="icon">
	<path style="fill:#CC525E;" d="M2,15.5c-0.827,0-1.5-0.673-1.5-1.5s0.673-1.5,1.5-1.5s1.5,0.673,1.5,1.5S2.827,15.5,2,15.5z
		 M14,3.5c-0.827,0-1.5-0.673-1.5-1.5s0.673-1.5,1.5-1.5s1.5,0.673,1.5,1.5S14.827,3.5,14,3.5z"/>
	<polygon style="fill:#6486C4;" points="4.56,8.917 5.482,9.834 9.823,5.59 8.901,4.672 12.305,3.751 11.385,7.142 10.462,6.223 
		6.122,10.468 7.044,11.386 3.641,12.308 	"/>
</g>
</svg>
