<?xml version="1.0" encoding="iso-8859-1"?>
<!-- Generator: Adobe Illustrator 26.3.0, SVG Export Plug-In . SVG Version: 6.00 Build 0)  -->
<svg version="1.1" id="Layer_1" xmlns="http://www.w3.org/2000/svg" xmlns:xlink="http://www.w3.org/1999/xlink" x="0px" y="0px"
	 viewBox="0 0 16 16" style="enable-background:new 0 0 16 16;" xml:space="preserve">
<g id="icon">
	<rect x="4.5" y="4.5" style="opacity:0.5;fill:#FFFFFF;enable-background:new    ;" width="7" height="7"/>
	<path style="fill:#6E6F72;" d="M12,12H4V4h8V12z M5,11h6V5H5V11z"/>
	<rect x="0.5" y="4.5" style="fill:#6486C4;" width="2" height="7"/>
	<path style="fill:#6486C4;" d="M3,12H0V4h3V12z M1,11h1V5H1V11z"/>
	<rect x="13.5" y="4.5" style="fill:#6486C4;" width="2" height="7"/>
	<path style="fill:#6486C4;" d="M16,12h-3V4h3V12z M14,11h1V5h-1V11z"/>
	<rect x="4.5" y="0.5" style="fill:#6486C4;" width="7" height="2"/>
	<path style="fill:#6486C4;" d="M12,3H4V0h8V3z M5,2h6V1H5V2z"/>
	<rect x="4.5" y="13.5" style="fill:#6486C4;" width="7" height="2"/>
	<path style="fill:#6486C4;" d="M12,16H4v-3h8V16z M5,15h6v-1H5V15z"/>
</g>
</svg>
