<?xml version="1.0" encoding="iso-8859-1"?>
<!-- Generator: Adobe Illustrator 26.3.0, SVG Export Plug-In . SVG Version: 6.00 Build 0)  -->
<svg version="1.1" id="Layer_1" xmlns="http://www.w3.org/2000/svg" xmlns:xlink="http://www.w3.org/1999/xlink" x="0px" y="0px"
	 viewBox="0 0 16 16" style="enable-background:new 0 0 16 16;" xml:space="preserve">
<g id="icon">
	<path style="fill:#6D6E71;" d="M10.451,7.027l-3.42-3.244c0,0-2.431,1.597-4.479,2.832L1.995,6.95l0.121,0.64
		C2.165,7.846,2.19,8.14,2.19,8.463c0,2.096-0.903,4.738-1.364,5.201c-0.53,0.532-0.776,0.973-0.776,1.388
		c0,0.091,0.012,0.179,0.036,0.269l0.003,0.011c0.021,0.079,0.044,0.146,0.072,0.204l4.141-4.663c-0.171-0.5-0.05-1.061,0.324-1.443
		c0.26-0.265,0.605-0.411,0.972-0.411S6.31,9.164,6.57,9.429c0.532,0.543,0.532,1.427,0,1.971c-0.259,0.264-0.604,0.41-0.971,0.41
		c-0.153,0-0.306-0.026-0.451-0.077l-4.799,4.025c0.074,0.049,0.168,0.087,0.29,0.119c0.105,0.028,0.218,0.049,0.343,0.049
		c0.335,0,0.751-0.151,1.309-0.711c0.554-0.557,4.125-1.765,6.033-1.382l0.645,0.13l0.338-0.566c1.17-1.96,3.024-4.434,3.024-4.434
		L10.451,7.027z"/>
	<path style="opacity:0.5;fill:#FFFFFF;enable-background:new    ;" d="M0.1,15.604l4.202-4.731c-0.171-0.5-0.05-1.061,0.324-1.443
		c0.26-0.265,0.605-0.411,0.972-0.411S6.31,9.165,6.57,9.429c0.532,0.543,0.532,1.427,0,1.971c-0.259,0.264-0.604,0.41-0.971,0.41
		c-0.153,0-0.306-0.026-0.451-0.077l-4.851,4.068L0.1,15.604z"/>
	<path style="fill:#6485C3;" d="M16,5.631c-0.006,0.162-0.079,0.317-0.2,0.425c-0.451,0.401-1.823,1.503-2.876,2.24L7.668,3.172
		c0.801-1.038,1.997-2.503,2.416-2.973C10.193,0.076,10.35,0.004,10.514,0c0.167-0.004,0.325,0.062,0.44,0.18l4.876,5.011
		C15.944,5.308,16.005,5.468,16,5.631z"/>
</g>
</svg>
