<?xml version="1.0" encoding="UTF-8"?>
<!DOCTYPE svg PUBLIC "-//W3C//DTD SVG 1.1//EN" "http://www.w3.org/Graphics/SVG/1.1/DTD/svg11.dtd">
<svg version="1.1" id="Layer_1" xmlns="http://www.w3.org/2000/svg" xmlns:xlink="http://www.w3.org/1999/xlink" x="0px" y="0px" width="24px" height="24px" viewBox="0 0 24 24" enable-background="new 0 0 24 24" xml:space="preserve">
  <g id="icon">
    <path d="M0.2638,1.8983c0.1312,-0.0488,0.2692,-0.0301,0.3793,0.0453L11,8.8446V2.3463c0,-0.1739,0.1,-0.3399,0.2631,-0.4c0.1295,-0.0477,0.2655,-0.029,0.3741,0.0457L21,8.1587V2.1h1h2v19.8h-2h-1v-6.0158l-9.3636,6.1057c-0.1085,0.074,-0.2446,0.0925,-0.3738,0.0448c-0.163,-0.0603,-0.2627,-0.2265,-0.2627,-0.4004v-6.4454L0.6422,22.0551c-0.0688,0.0469,-0.1486,0.0718,-0.2308,0.0718c-0.1415,0,-0.274,-0.0719,-0.3532,-0.1982C0.017,21.8628,0,21.7845,0,21.7067L0,2.2987C0,2.1245,0.1006,1.959,0.2638,1.8983z" fill="#6485C3"/>
  </g>
</svg>
