<?xml version="1.0" encoding="UTF-8"?>
<!DOCTYPE svg PUBLIC "-//W3C//DTD SVG 1.1//EN" "http://www.w3.org/Graphics/SVG/1.1/DTD/svg11.dtd">
<svg version="1.1" id="Layer_1" xmlns="http://www.w3.org/2000/svg" xmlns:xlink="http://www.w3.org/1999/xlink" x="0px" y="0px" width="24px" height="24px" viewBox="0 0 24 24" enable-background="new 0 0 24 24" xml:space="preserve">
  <g id="icon">
    <path d="M12,23.25C5.7868,23.25,0.75,18.2132,0.75,12S5.7868,0.75,12,0.75S23.25,5.7868,23.25,12S18.2132,23.25,12,23.25z" fill="#FFFFFF" opacity="0.5"/>
    <path d="M12,0c6.6168,0,12,5.3832,12,12s-5.3832,12,-12,12S0,18.6168,0,12S5.3832,0,12,0zM12,2.0609c-5.4804,0,-9.9391,4.4587,-9.9391,9.9391S6.5196,21.9391,12,21.9391s9.9391,-4.4587,9.9391,-9.9391S17.4804,2.0609,12,2.0609z" fill="#6485C3"/>
    <path d="M14,4.9978v4.0014L18.9988,9L19,15.0006L14,15v4.0019l-9.5213,-7.002L14,4.9978zM12.5,13.4993L17.5007,13.5L17.5,10.5006L12.5,10.5V7.799l-5.3151,4.201L12.5,16.2011V13.4993z" fill="#6485C3"/>
  </g>
</svg>
