<?xml version="1.0" encoding="UTF-8"?>
<!DOCTYPE svg PUBLIC "-//W3C//DTD SVG 1.1//EN" "http://www.w3.org/Graphics/SVG/1.1/DTD/svg11.dtd">
<svg version="1.1" id="Layer_1" xmlns="http://www.w3.org/2000/svg" xmlns:xlink="http://www.w3.org/1999/xlink" x="0px" y="0px" width="24px" height="24px" viewBox="0 0 24 24" enable-background="new 0 0 24 24" xml:space="preserve">
  <g id="icon">
    <path d="M21.3403,14c0.3035,-0.9456,0.468,-1.9535,0.468,-3c0,-5.417,-4.3913,-9.8083,-9.8083,-9.8083S2.1917,5.583,2.1917,11c0,1.0465,0.1645,2.0544,0.468,3H21.3403z" fill="#FFFFFF" opacity="0.5"/>
    <path d="M3.4762,14c-0.3315,-0.9392,-0.5126,-1.9488,-0.5126,-3c0,-4.9827,4.0537,-9.0364,9.0364,-9.0364S21.0364,6.0173,21.0364,11c0,1.0512,-0.1811,2.0608,-0.5126,3h2.0603c0.2708,-0.954,0.4159,-1.9604,0.4159,-3C23,4.9346,18.0654,0,12,0S1,4.9346,1,11c0,1.0396,0.1451,2.046,0.4159,3H3.4762z" fill="#7B7B7B"/>
    <path d="M13.649,7.5068l0.5314,-1.1233c1.0667,0.5046,1.9319,1.3697,2.4363,2.4359l-1.1233,0.5314C15.1116,8.5436,14.4566,7.8887,13.649,7.5068zM17.646,8.5909l1.1427,-0.4882c-0.7476,-1.7499,-2.1221,-3.1286,-3.8702,-3.8822l-0.4919,1.1412C15.8809,5.9885,17.0242,7.1353,17.646,8.5909zM9.5689,14c-0.4479,-0.3635,-0.8137,-0.8246,-1.0627,-1.3512L7.3829,13.18c0.1369,0.2894,0.3011,0.5634,0.4879,0.82H9.5689zM6.6462,14c-0.1069,-0.1911,-0.2052,-0.3881,-0.2922,-0.5918l-1.1427,0.4882c0.015,0.035,0.0318,0.0689,0.0472,0.1037H6.6462z" fill="#6485C3" opacity="0.8"/>
    <path d="M12,13.6577c-1.4658,0,-2.6583,-1.1925,-2.6583,-2.6583S10.5342,8.341,12,8.341s2.6583,1.1925,2.6583,2.6583S13.4658,13.6577,12,13.6577zM12,9.5327c-0.8087,0,-1.4667,0.658,-1.4667,1.4667s0.658,1.4667,1.4667,1.4667s1.4667,-0.658,1.4667,-1.4667S12.8087,9.5327,12,9.5327z" fill="#7B7B7B"/>
    <path d="M11.1782,24H8.2286v-8.9997h2.9496c0.6144,0,1.1898,0.1022,1.71,0.3039c0.5347,0.2081,1.0007,0.5162,1.3862,0.9159c0.3801,0.3934,0.6786,0.877,0.8869,1.4367c0.2025,0.5464,0.3049,1.1663,0.3049,1.8437c0,0.6778,-0.1025,1.2976,-0.3047,1.8424c-0.2083,0.5598,-0.5067,1.0434,-0.8871,1.438c-0.3863,0.3997,-0.8522,0.7074,-1.3852,0.9148C12.3703,23.8976,11.7946,24,11.1782,24zM9.7524,22.5h1.4258c0.4239,0,0.8111,-0.067,1.1509,-0.1992c0.3303,-0.1286,0.6054,-0.3095,0.8407,-0.5531c0.2358,-0.2445,0.4246,-0.5544,0.5608,-0.9201c0.1406,-0.3788,0.2119,-0.8255,0.2119,-1.3272c0,-0.5015,-0.0714,-0.9486,-0.2123,-1.3287c-0.1358,-0.365,-0.3245,-0.6742,-0.5604,-0.9185c-0.2355,-0.2442,-0.5103,-0.4252,-0.8408,-0.5538c-0.3406,-0.132,-0.7282,-0.1991,-1.1507,-0.1991H9.7524V22.5zM4.1737,23.9997c-0.5907,0,-1.1471,-0.1059,-1.6536,-0.3147c-0.5149,-0.2131,-0.9669,-0.5239,-1.3445,-0.924c-0.3748,-0.3978,-0.6685,-0.8809,-0.8733,-1.4364c-0.1229,-0.3333,-0.2087,-0.6928,-0.2567,-1.0745H0v-1.5h0.0481c0.0485,-0.367,0.1336,-0.7155,0.2546,-1.0418c0.2054,-0.5546,0.502,-1.0396,0.8815,-1.4412c0.382,-0.4052,0.8446,-0.722,1.3744,-0.9412c0.5235,-0.2163,1.1023,-0.326,1.7207,-0.326c0.2819,0,0.5543,0.022,0.8097,0.0655c0.2569,0.0436,0.5086,0.1118,0.7478,0.2026c0.2341,0.09,0.459,0.2,0.6713,0.3281c0.2105,0.1279,0.4145,0.2736,0.6079,0.4341l0.2272,0.2106l-0.8237,1.217l-0.9317,-0.6203l0.0208,-0.0308c-0.0966,-0.051,-0.1969,-0.0967,-0.2992,-0.136c-0.1469,-0.0557,-0.3051,-0.0985,-0.4677,-0.1261C4.6676,16.515,4.4785,16.5,4.2793,16.5c-0.4238,0,-0.8127,0.0719,-1.1559,0.2138c-0.3389,0.1402,-0.6206,0.3323,-0.861,0.5873c-0.2407,0.2547,-0.4307,0.5681,-0.5656,0.9321c-0.1385,0.3736,-0.2087,0.7998,-0.2087,1.267c0,0.4876,0.0703,0.9256,0.2091,1.3018c0.1363,0.3697,0.3185,0.6725,0.557,0.9257c0.2351,0.2492,0.5069,0.4356,0.8302,0.5694c0.3259,0.1343,0.6926,0.2027,1.0892,0.2027c0.2551,0,0.4886,-0.0208,0.6939,-0.0618c0.2035,-0.0404,0.39,-0.0961,0.555,-0.1654c0.162,-0.0689,0.3129,-0.1514,0.4459,-0.2442c0.1449,-0.1011,0.2813,-0.2135,0.4055,-0.3343l0.3124,-0.2956l1.033,1.0797l-0.3124,0.2956c-0.1819,0.1768,-0.3809,0.3409,-0.5915,0.4879c-0.217,0.1515,-0.4584,0.284,-0.7173,0.394c-0.2593,0.1091,-0.5417,0.1941,-0.842,0.2538C4.8565,23.9693,4.5257,23.9997,4.1737,23.9997zM21.3542,20.0078c0.3256,-0.1157,0.6156,-0.2728,0.8636,-0.4678c0.2624,-0.2063,0.4836,-0.4982,0.6761,-0.8923c0.1458,-0.2982,0.2167,-0.599,0.2167,-1.0738c0,-0.8171,-0.3656,-1.5659,-0.9792,-2.0038c-0.7237,-0.5143,-1.8804,-0.5698,-2.3441,-0.5698h-3.1778V24h1.5238v-3.7499h1.5459c0.5062,0.7328,1.709,2.5025,2.5684,3.7499H24C22.9205,22.433,21.7672,20.6064,21.3542,20.0078zM20.8021,18.6396c-0.2143,0.0681,-0.4605,0.1052,-0.7317,0.1105l-1.9371,0.0229v-2.2728h1.671c0.7287,0,1.2713,0.1498,1.4658,0.288c0.2206,0.1575,0.3522,0.4553,0.3522,0.7968c0,0.3406,-0.051,0.4714,-0.0668,0.5035c-0.1133,0.2318,-0.2021,0.2558,-0.2566,0.2987C21.1659,18.4919,20.9984,18.577,20.8021,18.6396z" fill="#9070B1"/>
  </g>
</svg>
