<?xml version="1.0" encoding="UTF-8"?>
<!DOCTYPE svg PUBLIC "-//W3C//DTD SVG 1.1//EN" "http://www.w3.org/Graphics/SVG/1.1/DTD/svg11.dtd">
<svg version="1.1" id="Layer_1" xmlns="http://www.w3.org/2000/svg" xmlns:xlink="http://www.w3.org/1999/xlink" x="0px" y="0px" width="24px" height="24px" viewBox="0 0 24 24" enable-background="new 0 0 24 24" xml:space="preserve">
  <g id="icon">
    <polygon points="17.525,0 5,0 5,13 7,13 7,2 17,2 17,7.025 22,7 22,21 22,21 22,13 24,13 24,6.5" fill="#7B7B7B" stroke-linejoin="miter"/>
    <path d="M22,7v14h-6h-0.8l-8.2,-0.0128V9V2h10v5.025L22,7z" fill="#FFFFFF" opacity="0.4"/>
    <path d="M18.6967,24l-3.0824,-9h1.7025l1.9753,5.9243L21.2946,15H23l-3.1237,9H18.6967zM8.0714,15H6.7361l-2.1711,4.7387L2.3293,15H1v9h1.5714v-5.0439L4.0381,22.2H5.118L6.5,19.0525V24h1.5714V15zM15.9176,24l-4.0969,-4.875L15.2105,15H13.212l-1.9977,2.4338V15H9.6429v9h1.5714v-3.1838L13.9192,24H15.9176z" fill="#9070B1"/>
  </g>
</svg>
