<?xml version="1.0" encoding="UTF-8"?>
<!DOCTYPE svg PUBLIC "-//W3C//DTD SVG 1.1//EN" "http://www.w3.org/Graphics/SVG/1.1/DTD/svg11.dtd">
<svg version="1.1" id="Layer_1" xmlns="http://www.w3.org/2000/svg" xmlns:xlink="http://www.w3.org/1999/xlink" x="0px" y="0px" width="24px" height="24px" viewBox="0 0 24 24" enable-background="new 0 0 24 24" xml:space="preserve">
  <g id="icon">
    <path d="M12,1.2188c-5.9448,0,-10.7813,4.8364,-10.7813,10.7812c0,5.9449,4.8364,10.7813,10.7813,10.7813c5.9448,0,10.7812,-4.8364,10.7812,-10.7813C22.7813,6.0552,17.9448,1.2188,12,1.2188zM9.3007,4.792c0.1319,-0.2794,0.4044,-0.4782,0.8573,-0.6253c0.8406,-0.2063,1.4101,-0.2905,1.9641,-0.2905c0.5327,0,1.0716,0.0824,1.6954,0.2591c0.4553,0.1736,0.7857,0.3534,0.9195,0.663c0.1386,0.321,0.0732,0.7979,-0.1981,1.4537c-0.6703,1.5166,-1.1793,1.6804,-1.367,1.6804c-0.0548,0,-0.106,-0.0133,-0.1521,-0.0396c-0.2521,-0.1435,-0.7138,-0.165,-0.9666,-0.165c-0.4174,0,-0.8407,0.0533,-1.1323,0.1425c-0.0811,0.0248,-0.1528,0.0369,-0.2191,0.0369c-0.2693,0,-0.6574,-0.1889,-1.2726,-1.6578C9.1822,5.625,9.1389,5.1347,9.3007,4.792zM4.0007,11.357c0.0912,-1.4059,0.2756,-2.2904,1.0705,-3.4996c0.3334,-0.4209,0.6157,-0.6815,0.9883,-0.6815c0.3336,0,0.7428,0.2071,1.2473,0.6301c1.0453,0.9198,1.2065,1.4453,1.2095,1.6767c0.0015,0.1124,-0.0326,0.2018,-0.1014,0.2655c-0.339,0.3143,-0.6473,1.3774,-0.6525,1.9949c-0.0032,0.3813,-0.1602,0.7676,-1.9945,0.9353c-0.1042,0.0075,-0.2051,0.0112,-0.3001,0.0112C4.1873,12.6896,4.0063,12.0172,4.0007,11.357zM10.7772,18.1001c-0.2969,1.2444,-0.8364,1.3882,-1.2165,1.3882c-0.1668,0,-0.355,-0.0327,-0.5751,-0.1001c-1.3134,-0.5097,-2.1015,-0.9516,-3.0157,-2.0734c-0.2733,-0.4034,-0.4409,-0.7403,-0.3729,-1.0705c0.0706,-0.3424,0.3977,-0.6955,0.9961,-1.0771c0.9264,-0.5601,1.4606,-0.6777,1.7457,-0.6777c0.1564,0,0.3597,0.0356,0.4398,0.2048c0.1977,0.4178,1.1189,1.0315,1.7064,1.2223C10.8476,16.0344,11.1688,16.3003,10.7772,18.1001zM10.5625,12c0,-0.7927,0.6448,-1.4375,1.4375,-1.4375c0.7927,0,1.4376,0.6448,1.4376,1.4375c0,0.7927,-0.6448,1.4375,-1.4376,1.4375C11.2074,13.4374,10.5625,12.7926,10.5625,12zM17.884,17.257c-0.9282,1.0599,-1.613,1.6493,-2.9799,2.1247c-0.1931,0.0487,-0.4411,0.1035,-0.6617,0.1035c-0.4295,0,-0.8653,-0.1729,-1.1432,-1.4236c-0.2694,-1.366,-0.0773,-1.8811,0.0611,-2.0665c0.0673,-0.0901,0.1487,-0.1402,0.2422,-0.1489c0.4601,-0.0429,1.3519,-0.6987,1.732,-1.1854c0.1385,-0.1773,0.2776,-0.2497,0.4801,-0.2497c0.3557,0,0.9036,0.2367,1.6716,0.7217c0.5605,0.3699,0.8772,0.7468,0.9413,1.1201C18.2798,16.5575,18.1706,16.8767,17.884,17.257zM18.5993,12.7111c-0.1309,0,-0.2749,-0.0067,-0.423,-0.0195c-1.3838,-0.1539,-1.8172,-0.492,-1.9524,-0.6798c-0.0657,-0.0913,-0.089,-0.184,-0.0693,-0.2757c0.0974,-0.4518,-0.2598,-1.4995,-0.6097,-2.0084c-0.2161,-0.3142,-0.3091,-0.7206,1.0972,-1.9101c0.4651,-0.3777,0.8778,-0.5692,1.2267,-0.5692c0.3622,0,0.6644,0.1969,0.9788,0.638c0.7318,1.2039,1.088,2.0343,1.1304,3.4808C19.932,12.1546,19.8029,12.7111,18.5993,12.7111z" fill="#FFFFFF" opacity="0.5"/>
    <path d="M9.5193,20.1462c-0.2234,0,-0.4656,-0.0409,-0.7402,-0.125l-0.0436,-0.0152c-1.388,-0.5388,-2.2793,-1.0382,-3.2795,-2.2655l-0.0329,-0.0446c-0.3007,-0.444,-0.568,-0.9372,-0.4547,-1.4866c0.1037,-0.5031,0.5001,-0.9594,1.2476,-1.4358l0.0129,-0.0081c0.8381,-0.5067,1.5278,-0.7644,2.0477,-0.7644c0.4351,0,0.773,0.1866,0.9271,0.512l0.0071,0.0136c0.1429,0.2501,0.8975,0.7845,1.4125,0.9516c0.984,0.3197,0.9723,1.3659,0.652,2.8384l-0.0028,0.0125C10.9809,19.551,10.4072,20.1462,9.5193,20.1462zM8.1625,15.0723c-0.1911,0.0281,-0.6243,0.1433,-1.3786,0.5984c-0.6459,0.4131,-0.7574,0.6643,-0.7755,0.7533c-0.0173,0.0843,-0.001,0.2352,0.2804,0.6558l0.0054,0.0081l0.0062,0.0076c0.8442,1.0281,1.5754,1.436,2.7998,1.9128l0.0078,0.003l0.0081,0.0024c0.1609,0.0476,0.2928,0.0707,0.4033,0.0707c0.3272,0,0.5557,-0.3167,0.719,-0.9968c0.1877,-0.8654,0.187,-1.2698,0.1534,-1.4574l-0.0207,-0.1159l-0.1114,-0.0381c-0.6178,-0.2115,-1.5216,-0.7767,-1.9044,-1.321l-0.0708,-0.1008L8.1625,15.0723zM14.2804,20.1431c-0.8761,0,-1.3945,-0.5748,-1.6808,-1.8635l-0.0034,-0.0156c-0.2418,-1.227,-0.1902,-2.0519,0.1583,-2.5187c0.1576,-0.211,0.3787,-0.3397,0.6226,-0.3625l0.0077,-0.0007l0.0076,-0.0013c0.2836,-0.0488,1.0435,-0.5751,1.3767,-1.0017c0.2408,-0.3082,0.5375,-0.458,0.9067,-0.458c0.4782,0,1.0899,0.2517,1.9835,0.816l0.0106,0.0068c0.6957,0.4592,1.0955,0.9613,1.1864,1.4914c0.0785,0.4576,-0.0683,0.9255,-0.4486,1.4304l-0.0293,0.0358c-0.981,1.1201,-1.7551,1.7867,-3.2507,2.3069l-0.0531,0.0157C14.8588,20.0783,14.565,20.1431,14.2804,20.1431zM15.5812,15.0639c-0.4104,0.5078,-1.2502,1.163,-1.8912,1.336l-0.1182,0.0319l-0.0253,0.1198c-0.0483,0.2283,-0.0718,0.674,0.0905,1.5012c0.1324,0.5917,0.2806,0.8368,0.3817,0.9391c0.0749,0.0755,0.1468,0.0893,0.2616,0.0893c0.1234,0,0.2906,-0.0265,0.5111,-0.0811l0.0093,-0.0023l0.009,-0.0032c1.2554,-0.4417,1.8888,-0.9894,2.7556,-1.9767l0.0057,-0.0064l0.005,-0.0069c0.2717,-0.3687,0.2431,-0.5351,0.2337,-0.5898c-0.0221,-0.1284,-0.1449,-0.4006,-0.7201,-0.7815c-0.7402,-0.4668,-1.1246,-0.6057,-1.3174,-0.6405l-0.1166,-0.021L15.5812,15.0639zM12,13.9928c-1.0988,0,-1.9928,-0.894,-1.9928,-1.9928c0,-1.0988,0.8939,-1.9928,1.9928,-1.9928c1.0989,0,1.9929,0.894,1.9929,1.9928S13.0989,13.9928,12,13.9928L12,13.9928zM12,11.069c-0.5133,0,-0.9309,0.4176,-0.9309,0.931c0,0.5133,0.4176,0.9309,0.931,0.931c0.5133,0,0.931,-0.4176,0.931,-0.931S12.5134,11.069,12,11.069zM18.7111,13.2541c-0.1491,0,-0.3093,-0.0073,-0.476,-0.0218l-0.0146,-0.0015c-1.2444,-0.1384,-2.0156,-0.4356,-2.3559,-0.9086c-0.1539,-0.2139,-0.2102,-0.4634,-0.1585,-0.7026l0.0027,-0.0152c0.0388,-0.2852,-0.2346,-1.1683,-0.5413,-1.6144c-0.5864,-0.8524,0.0598,-1.6753,1.2104,-2.6486l0.0096,-0.0079c0.5767,-0.4684,1.0942,-0.6965,1.5808,-0.6965c0.8066,0,1.2741,0.6559,1.4277,0.8714l0.0255,0.0388c0.773,1.2722,1.1761,2.2109,1.2226,3.7936l0.0006,0.0232l-0.0014,0.0233C20.6079,11.9933,20.5341,13.2541,18.7111,13.2541zM17.9684,7.6988c-0.1286,0,-0.4175,0.0592,-0.907,0.4553c-0.6752,0.5717,-0.9209,0.8931,-1.0088,1.0625l-0.0542,0.1046l0.0652,0.0981c0.3615,0.5441,0.7345,1.5429,0.7068,2.2076l-0.0051,0.1223l0.1065,0.0602c0.203,0.1147,0.6209,0.2712,1.4588,0.3652c0.137,0.0117,0.2667,0.0176,0.3806,0.0176c0.7214,0,0.8271,-0.1014,0.8703,-0.8342l0.0005,-0.0092l-0.0003,-0.0092c-0.0439,-1.3305,-0.3758,-2.0994,-1.0569,-3.2231l-0.0043,-0.0072l-0.005,-0.0068C18.2551,7.7447,18.0863,7.6988,17.9684,7.6988zM5.3572,13.2322c-1.3317,0,-2.0124,-0.633,-2.023,-1.8815l-0.0001,-0.0194l0.0013,-0.0197c0.0968,-1.4927,0.3051,-2.4928,1.1748,-3.816l0.0327,-0.0449c0.4199,-0.5299,0.8243,-0.8874,1.4161,-0.8874c0.4758,0,0.9873,0.243,1.6096,0.7648l0.0114,0.0098c0.9396,0.8267,1.4008,1.5125,1.4083,2.0953c0.0035,0.2634,-0.0935,0.5,-0.273,0.6664l-0.0109,0.0109c-0.1955,0.2113,-0.4781,1.0915,-0.4826,1.6329c-0.0088,1.0348,-1.0101,1.3382,-2.5109,1.4754C5.5859,13.2276,5.469,13.2322,5.3572,13.2322zM5.9589,7.6251c-0.1012,0,-0.2401,0.0564,-0.5683,0.4659l-0.0062,0.0077l-0.0053,0.0082c-0.7268,1.1147,-0.8959,1.9352,-0.9824,3.2468l-0.0004,0.015c0.0052,0.5543,0.1451,0.8017,0.9609,0.8017c0.0842,0,0.1742,-0.0034,0.2673,-0.01c0.8751,-0.0801,1.2596,-0.2025,1.4288,-0.2912l0.1042,-0.0546l0.0029,-0.1177c0.0158,-0.653,0.2831,-1.685,0.6872,-2.2136l0.0744,-0.0973l-0.0528,-0.1104c-0.1007,-0.2106,-0.3535,-0.5786,-0.9857,-1.136C6.3276,7.6749,6.0519,7.6251,5.9589,7.6251zM13.1917,8.3944c-0.1472,0,-0.2917,-0.0381,-0.4179,-0.1101l-0.0116,-0.0062c-0.1128,-0.0549,-0.3974,-0.0917,-0.7082,-0.0917c-0.3692,0,-0.7509,0.0466,-0.9961,0.1216c-0.1338,0.0409,-0.2576,0.0608,-0.3782,0.0608c-0.8271,0,-1.3462,-0.9669,-1.7838,-2.0117c-0.3095,-0.7822,-0.3507,-1.4274,-0.1211,-1.9139c0.1982,-0.4199,0.5867,-0.719,1.1879,-0.9143l0.0446,-0.0125c0.8921,-0.2188,1.5075,-0.3088,2.117,-0.3088c0.5923,0,1.1862,0.0901,1.8688,0.2836l0.0527,0.0177c0.5006,0.1911,1.0023,0.4417,1.225,0.9567c0.2036,0.4716,0.1406,1.0729,-0.1982,1.892l-0.0062,0.0145C14.4652,7.732,13.8516,8.3944,13.1917,8.3944zM12.1242,4.2695c-0.5133,0,-1.0473,0.0792,-1.8431,0.2732l-0.0083,0.002l-0.0081,0.0027c-0.4338,0.1461,-0.5059,0.2988,-0.5296,0.349c-0.056,0.1182,-0.1117,0.4134,0.1442,1.0604c0.3513,0.8386,0.5937,1.1571,0.7069,1.2727l0.0836,0.0853l0.1147,-0.0332c0.3451,-0.0998,0.8078,-0.157,1.2694,-0.157c0.4298,0,0.7826,0.0495,1.0485,0.147l0.1154,0.0424l0.0899,-0.0838c0.0383,-0.0357,0.082,-0.0814,0.1307,-0.1398l-0.0656,0.1388l0.1321,-0.2104l-0.0063,-0.004c0.1579,-0.2067,0.3594,-0.5376,0.5938,-1.0664c0.2897,-0.7034,0.2395,-0.9749,0.2045,-1.0591c-0.0356,-0.082,-0.1355,-0.1962,-0.6072,-0.3793l-0.0091,-0.0036l-0.0094,-0.0026C13.0989,4.3439,12.6073,4.2695,12.1242,4.2695z" fill="#9070B1"/>
    <path d="M12,24C5.3832,24,0,18.6168,0,11.9999C0,5.3831,5.3832,0,12,0s12,5.3831,12,11.9999C24,18.6168,18.6168,24,12,24zM12,2.072c-5.4743,0,-9.928,4.4536,-9.928,9.9279c0,5.4743,4.4537,9.9281,9.928,9.9281s9.928,-4.4537,9.928,-9.9281C21.928,6.5257,17.4743,2.072,12,2.072z" fill="#9070B1"/>
  </g>
</svg>
