<?xml version="1.0" encoding="UTF-8"?>
<!DOCTYPE svg PUBLIC "-//W3C//DTD SVG 1.1//EN" "http://www.w3.org/Graphics/SVG/1.1/DTD/svg11.dtd">
<svg version="1.1" id="Layer_1" xmlns="http://www.w3.org/2000/svg" xmlns:xlink="http://www.w3.org/1999/xlink" x="0px" y="0px" width="24px" height="24px" viewBox="0 0 24 24" enable-background="new 0 0 24 24" xml:space="preserve">
  <g id="icon">
    <path d="M4.4864,23.9056l-1.2728,-1.2728l19.5,-19.5l1.2728,1.2728L4.4864,23.9056z" fill="#CB525D"/>
    <g>
      <path d="M17.3,13.2134l-3.6927,3.6927l0,0l-1.4757,1.4757l5.0532,4.5172c0.1162,0.1162,0.2799,0.1654,0.4447,0.1281c0.2213,-0.0501,0.3705,-0.2583,0.3705,-0.4852c0,-1.0607,0,-5.4892,0,-10.0285L17.3,13.2134L17.3,13.2134z" fill="#6485C3"/>
      <path d="M17.6295,1.0729c-0.1648,-0.0373,-0.3285,0.0119,-0.4447,0.1281L10.5857,7H4v10h2.7251l2,-2h0L16,7.7251v0l2,-2c0,-2.0311,0,-3.5929,0,-4.1671C18,1.3312,17.8508,1.1229,17.6295,1.0729z" fill="#6485C3"/>
    </g>
  </g>
</svg>
