<?xml version="1.0" encoding="UTF-8"?>
<!DOCTYPE svg PUBLIC "-//W3C//DTD SVG 1.1//EN" "http://www.w3.org/Graphics/SVG/1.1/DTD/svg11.dtd">
<svg version="1.1" id="Layer_1" xmlns="http://www.w3.org/2000/svg" xmlns:xlink="http://www.w3.org/1999/xlink" x="0px" y="0px" width="24px" height="24px" viewBox="0 0 24 24" enable-background="new 0 0 24 24" xml:space="preserve">
  <g id="icon">
    <path d="M23.25,19.25H0.75v-16.5h22.5V19.25z" fill="#FFFFFF" opacity="0.5"/>
    <path d="M24,20V2H0v18h11.25v1.5H6v1.5h12v-1.5h-5.25v-1.5H24zM2,4h20v14H2V4z" fill="#7B7B7B"/>
    <path d="M18.404,14.0875L17.4987,15l-3.2243,-3.1989v3.0524H12.989v-3.2135v-1.2854V7.1412h1.2854v3.0397l2.9892,-3.1626l0.9342,0.883l-2.9179,3.0868L18.404,14.0875zM11.1768,12.5855c0,0.3534,-0.0716,0.6822,-0.213,0.977c-0.1404,0.2932,-0.3391,0.5462,-0.5905,0.7518c-0.2396,0.1963,-0.5236,0.3487,-0.8437,0.4528c-0.3079,0.1,-0.6462,0.1508,-1.0056,0.1508c-0.3596,0,-0.698,-0.0508,-1.0057,-0.1508c-0.3197,-0.1039,-0.6037,-0.2563,-0.8439,-0.4528c-0.2513,-0.2057,-0.45,-0.4587,-0.5904,-0.7519c-0.1412,-0.2944,-0.2128,-0.6232,-0.2128,-0.9768c0,-0.3053,0.0444,-0.5838,0.1319,-0.8279c0.0878,-0.2445,0.2099,-0.4624,0.363,-0.6479c0.1022,-0.1239,0.2169,-0.2334,0.3407,-0.3295c-0.1885,-0.1978,-0.3352,-0.4244,-0.4326,-0.6766c-0.1007,-0.2608,-0.1518,-0.5363,-0.1518,-0.8184c0,-0.3072,0.0574,-0.6001,0.1706,-0.8708c0.1164,-0.2784,0.287,-0.5216,0.5073,-0.7228c0.2125,-0.1944,0.4703,-0.3479,0.7659,-0.4561c0.288,-0.1052,0.6101,-0.1585,0.9578,-0.1585s0.6699,0.0533,0.9575,0.1584c0.2958,0.1083,0.5535,0.2618,0.7663,0.4563c0.2201,0.2012,0.3907,0.4444,0.5072,0.7227c0.1132,0.2708,0.1706,0.5637,0.1706,0.8709c0,0.2822,-0.0511,0.5577,-0.1518,0.8186c-0.0973,0.2521,-0.244,0.4785,-0.4326,0.6764c0.1239,0.0962,0.2386,0.2057,0.3407,0.3295c0.1531,0.1855,0.2752,0.4034,0.3629,0.6477C11.1324,12.0014,11.1768,12.28,11.1768,12.5855zM7.4079,9.2852c0,0.1249,0.0215,0.2412,0.0657,0.3556c0.0397,0.1029,0.0987,0.1922,0.1806,0.273c0.0846,0.0836,0.1973,0.1538,0.3352,0.2089c0.1419,0.0567,0.3218,0.0854,0.5348,0.0854c0.2103,0,0.3899,-0.0289,0.5338,-0.086c0.1388,-0.055,0.2519,-0.1252,0.3362,-0.2084c0.0817,-0.0808,0.1408,-0.1701,0.1805,-0.2729c0.0441,-0.1143,0.0656,-0.2306,0.0656,-0.3556c0,-0.138,-0.0232,-0.2606,-0.071,-0.3749c-0.0445,-0.1063,-0.1062,-0.1947,-0.1886,-0.27c-0.0898,-0.0821,-0.2012,-0.1468,-0.3406,-0.1978c-0.1454,-0.0532,-0.3191,-0.0801,-0.5159,-0.0801s-0.3706,0.027,-0.5164,0.0803c-0.1371,0.0502,-0.2516,0.1167,-0.3401,0.1976c-0.0826,0.0755,-0.1442,0.1637,-0.1887,0.27C7.4311,9.0246,7.4079,9.1472,7.4079,9.2852zM9.8914,12.5855c0,-0.157,-0.019,-0.2895,-0.0564,-0.3938c-0.0375,-0.1043,-0.086,-0.1931,-0.1445,-0.264c-0.0617,-0.0747,-0.1292,-0.1341,-0.2062,-0.1816c-0.096,-0.0591,-0.1968,-0.1069,-0.2994,-0.1422c-0.1079,-0.037,-0.2181,-0.0635,-0.3276,-0.0785c-0.1222,-0.0166,-0.2344,-0.0251,-0.3332,-0.0251c-0.1017,0,-0.2145,0.0084,-0.3351,0.025c-0.108,0.0149,-0.2177,0.0414,-0.3258,0.0785c-0.1027,0.0353,-0.2034,0.0832,-0.2995,0.1423c-0.077,0.0474,-0.1444,0.1068,-0.2061,0.1816c-0.0584,0.0709,-0.107,0.1597,-0.1445,0.264c-0.0374,0.1043,-0.0564,0.2369,-0.0564,0.3938c0,0.1619,0.0284,0.2998,0.0866,0.4213c0.0593,0.1239,0.1395,0.226,0.2454,0.3127c0.1161,0.0951,0.2597,0.1707,0.427,0.2251c0.1794,0.0583,0.384,0.0879,0.6084,0.0879c0.2243,0,0.4289,-0.0296,0.6083,-0.0879c0.1674,-0.0544,0.311,-0.13,0.4267,-0.2248c0.1061,-0.0869,0.1863,-0.189,0.2456,-0.3127C9.863,12.8852,9.8914,12.7474,9.8914,12.5855z" fill="#9070B1"/>
  </g>
</svg>
