<?xml version="1.0" encoding="UTF-8"?>
<!DOCTYPE svg PUBLIC "-//W3C//DTD SVG 1.1//EN" "http://www.w3.org/Graphics/SVG/1.1/DTD/svg11.dtd">
<svg version="1.1" id="Layer_1" xmlns="http://www.w3.org/2000/svg" xmlns:xlink="http://www.w3.org/1999/xlink" x="0px" y="0px" width="32px" height="32px" viewBox="0 0 32 32" enable-background="new 0 0 32 32" xml:space="preserve">
  <g id="icon">
    <path d="M4.5,6.5v6.14c1.711,-1.161,3.776,-1.84,6,-1.84c5.909,0,10.7,4.791,10.7,10.7c0,2.224,-0.679,4.289,-1.84,6H30.5V6.5H4.5z" fill="#FFFFFF"/>
    <path d="M4,6v7.001c0.32,-0.245,0.653,-0.472,1,-0.68V7h6v3.812c0.338,0.016,0.671,0.047,1,0.093V7h18v20H19.68c-0.208,0.347,-0.436,0.68,-0.68,1H31V6H4z" fill="#383838"/>
    <path d="M20.906,19H28v1h-6.905C21.047,19.661,20.984,19.328,20.906,19zM20.21,17H28v-1h-8.32C19.873,16.323,20.05,16.656,20.21,17zM18.131,14H28v-1H16.999C17.399,13.307,17.778,13.641,18.131,14zM14,10v1h14v-1H14z" fill="#787979"/>
    <path d="M21,23.566V25h-0.386C20.774,24.536,20.904,24.057,21,23.566zM23,23v2h4v-2H23z" fill="#787979"/>
    <rect x="4.5" y="1.5" width="26" height="5" fill="#92CBEE"/>
    <path d="M31,7H4V1h27V7zM5,6h25V2H5V6z" fill="#0964B0"/>
    <path d="M26,3h2v2h-2V3zM22,5h2V3h-2V5zM18,5h2V3h-2V5z" fill="#383838"/>
    <path d="M19.5,21.5c0,4.971,-4.029,9,-9,9s-9,-4.029,-9,-9s4.029,-9,9,-9S19.5,16.529,19.5,21.5zM10.5,19.7c-0.994,0,-1.8,0.806,-1.8,1.8s0.806,1.8,1.8,1.8s1.8,-0.806,1.8,-1.8S11.494,19.7,10.5,19.7z" fill="#C8C6C4" stroke="#383838" stroke-width="1" stroke-linecap="round" stroke-miterlimit="1"/>
    <path d="M7.929,27.5c-1.54,-0.661,-2.774,-1.897,-3.433,-3.438M16.504,18.938c-0.657,-1.538,-1.888,-2.772,-3.423,-3.434M6.584,23.349c0.428,0.906,1.162,1.639,2.067,2.067M14.416,19.651c-0.428,-0.905,-1.161,-1.638,-2.067,-2.067" fill="#C8C6C4" stroke="#383838" stroke-width="1" stroke-linecap="square" stroke-miterlimit="1"/>
  </g>
</svg>
