<?xml version="1.0" encoding="UTF-8"?>
<!DOCTYPE svg PUBLIC "-//W3C//DTD SVG 1.1//EN" "http://www.w3.org/Graphics/SVG/1.1/DTD/svg11.dtd">
<svg version="1.1" id="Layer_1" xmlns="http://www.w3.org/2000/svg" xmlns:xlink="http://www.w3.org/1999/xlink" x="0px" y="0px" width="32px" height="32px" viewBox="0 0 32 32" enable-background="new 0 0 32 32" xml:space="preserve">
  <g id="icon">
    <path d="M4.5,6.5v7.884c0.933,-0.348,1.693,-0.391,2.005,-0.391c0.715,0,1.31,0.119,1.809,0.27c0.07,-0.392,0.184,-0.831,0.368,-1.282c0.55,-1.349,1.827,-3.077,4.791,-3.649l1.823,-0.352l0.19,1.847c0.022,0.212,0.146,1.717,-0.513,3.253c2.286,0.427,3.793,2.305,3.976,2.544l1.253,1.629l-1.827,0.922c-0.061,0.033,-1.21,0.68,-1.21,2.154c0,1.75,1.477,2.42,1.645,2.49l1.589,0.646l-0.663,1.586c-0.095,0.226,-0.336,0.773,-0.7,1.452H30.5V6.5H4.5z" fill="#FFFFFF"/>
    <path d="M31,6v22H18.759c0.209,-0.363,0.389,-0.704,0.537,-1H30V7H12v2.756c-0.369,0.147,-0.701,0.315,-1,0.498V7H5v7.22c-0.309,0.088,-0.646,0.209,-1,0.375V6H31z" fill="#383838"/>
    <path d="M18.718,19H28v1H17.536c0.341,-0.548,0.801,-0.807,0.839,-0.827L18.718,19zM18.95,16.623l0.29,0.377H28v-1h-9.607C18.7,16.307,18.891,16.547,18.95,16.623zM15.401,10l0.085,0.826c0.003,0.031,0.009,0.091,0.013,0.174h12.5v-1H15.401zM15.006,14H28v-1H15.323C15.249,13.322,15.146,13.659,15.006,14z" fill="#787979"/>
    <path d="M17.745,23H21v2h-0.825l0.225,-0.537l-1.589,-0.646C18.713,23.776,18.179,23.534,17.745,23zM23,23v2h4v-2H23z" fill="#787979"/>
    <rect x="4.5" y="1.5" width="26" height="5" fill="#92CBEE"/>
    <path d="M31,7H4V1h27V7zM5,6h25V2H5V6z" fill="#0964B0"/>
    <path d="M26,3h2v2h-2V3zM22,5h2V3h-2V5zM18,5h2V3h-2V5z" fill="#383838"/>
    <path d="M15.466,21.326c0,-2.59,2.136,-3.668,2.136,-3.668s-1.512,-1.966,-3.554,-1.966c-1.947,0,-2.647,0.87,-3.97,0.87c-1.153,0,-1.909,-0.87,-3.573,-0.87c-1.701,0,-4.991,1.607,-4.991,6.05c0,3.081,2.59,8.753,5.369,8.753c1.853,0,1.493,-0.851,3.441,-0.851c1.872,0,1.815,0.852,3.252,0.852c2.439,0,4.594,-5.105,4.594,-5.105S15.466,24.313,15.466,21.326zM13.795,11c-4.31,0.832,-3.876,4.651,-3.876,4.651C14.249,15.405,13.795,11,13.795,11z" fill="#FFFFFF" stroke="#383838" stroke-width="1" stroke-miterlimit="1"/>
  </g>
</svg>
