<?xml version="1.0" encoding="UTF-8"?>
<!DOCTYPE svg PUBLIC "-//W3C//DTD SVG 1.1//EN" "http://www.w3.org/Graphics/SVG/1.1/DTD/svg11.dtd">
<svg version="1.1" id="Layer_1" xmlns="http://www.w3.org/2000/svg" xmlns:xlink="http://www.w3.org/1999/xlink" x="0px" y="0px" width="32px" height="32px" viewBox="0 0 32 32" enable-background="new 0 0 32 32" xml:space="preserve">
  <g id="icon">
    <path d="M13.5,5.6H6.067C3.6,5.6,1.6,7.6,1.6,10.067v11.867C1.6,24.4,3.6,26.4,6.067,26.4H13.5V5.6z" fill="#C8C6C4"/>
    <path d="M13,25.8H6.067C3.935,25.8,2.2,24.065,2.2,21.933V10.067C2.2,7.935,3.935,6.2,6.067,6.2H13V5H6.067C3.273,5,1,7.273,1,10.067v11.867C1,24.727,3.273,27,6.067,27H13V25.8z" fill="#383838"/>
    <path d="M25.933,5.6H13.5v20.8h12.433C28.4,26.4,30.4,24.4,30.4,21.933V10.067C30.4,7.6,28.4,5.6,25.933,5.6z" fill="#92CBEE"/>
    <polygon points="22.057,19.777 16.426,14.146 17.274,13.297 22.057,18.08 26.776,13.361 27.624,14.21" fill="#0964B0" stroke-linejoin="miter"/>
    <path d="M25.933,5H13v1.2v19.6v1.2h12.933c2.794,0,5.067,-2.273,5.067,-5.067V10.067C31,7.273,28.727,5,25.933,5zM29.8,21.933c0,2.132,-1.735,3.867,-3.867,3.867H14V6.2h11.933C28.065,6.2,29.8,7.935,29.8,10.067V21.933z" fill="#0964B0"/>
  </g>
</svg>
