<?xml version="1.0" encoding="UTF-8"?>
<!DOCTYPE svg PUBLIC "-//W3C//DTD SVG 1.1//EN" "http://www.w3.org/Graphics/SVG/1.1/DTD/svg11.dtd">
<svg version="1.1" id="Layer_1" xmlns="http://www.w3.org/2000/svg" xmlns:xlink="http://www.w3.org/1999/xlink" x="0px" y="0px" width="32px" height="32px" viewBox="0 0 32 32" enable-background="new 0 0 32 32" xml:space="preserve">
  <g id="icon">
    <polygon points="16,18 26.5,18 26.5,8.5 19.5,1.5 4.5,1.5 4.5,28.5 16,28.5" fill="#FFFFFF" stroke-linejoin="miter"/>
    <path d="M16,28H5v-6.1v-0.9v-9v-0.6V2h14v7h7v2.5v0.5v6h1v-6v-0.5V8.293L19.707,1H4v10.4v0.6v9v0.9v7.1h12V28zM20,2.707L25.293,8H20V2.707z" fill="#383838"/>
    <path d="M14.5,16.5h-4v-4h4V16.5zM21.5,12.5h-4v4h4V12.5zM14.5,19.5h-4v4h4V19.5z" fill="none" stroke="#787979" stroke-width="1" stroke-miterlimit="1"/>
    <path d="M21.5,23.5h-4v-4h4V23.5zM28.5,19.5h-4v4h4V19.5zM21.5,26.5h-4v4h4V26.5z" fill="#92CBEE" stroke="#0964B0" stroke-width="1" stroke-linecap="round" stroke-miterlimit="1"/>
  </g>
</svg>
