<?xml version="1.0" encoding="UTF-8"?>
<!DOCTYPE svg PUBLIC "-//W3C//DTD SVG 1.1//EN" "http://www.w3.org/Graphics/SVG/1.1/DTD/svg11.dtd">
<svg version="1.1" id="Layer_1" xmlns="http://www.w3.org/2000/svg" xmlns:xlink="http://www.w3.org/1999/xlink" x="0px" y="0px" width="32px" height="32px" viewBox="0 0 32 32" enable-background="new 0 0 32 32" xml:space="preserve">
  <g id="icon">
    <polygon points="4.5,6.5 4.5,13 10.165,13 15,17.946 15,27.5 30.5,27.5 30.5,6.5" fill="#FFFFFF" stroke-linejoin="miter"/>
    <polygon points="4,6 4,13 5,13 5,7 30,7 30,27 15,27 15,28 31,28 31,6" fill="#383838" stroke-linejoin="miter"/>
    <rect x="4.5" y="1.5" width="26" height="5" fill="#BEE2E5"/>
    <path d="M4,1v6h27V1H4zM30,6H5V2h25V6z" fill="#19AAB5"/>
    <path d="M15,24h5.5v1h-5.5V24zM14.5,16h6v-1h-6V16zM15,19h5.5v-1h-5.5V19zM15,22h5.5v-1h-5.5V22zM12.5,13v-1H7v1h3.165H12.5zM12.5,9H7v1h5.5V9zM12.12,15l0.38,0.389V15H12.12zM22.5,22h5.5v-1h-5.5V22zM22.5,13h5.5v-1h-5.5V13zM22.5,9v1h5.5V9H22.5zM22.5,16h5.5v-1h-5.5V16zM22.5,19h5.5v-1h-5.5V19zM14.5,10h6V9h-6V10zM14.5,13h6v-1h-6V13zM22.5,25h5.5v-1h-5.5V25z" fill="#787979" opacity="0.7"/>
    <polygon points="13.5,30.5 1.5,30.5 1.5,14.5 9.533,14.5 13.5,18.557" fill="#FFFFFF" stroke="#383838" stroke-width="1" stroke-miterlimit="1" stroke-linejoin="miter"/>
    <polyline points="13.5,18.5 9.5,18.5 9.5,14.5" fill="none" stroke="#383838" stroke-width="1" stroke-miterlimit="1" stroke-linejoin="miter"/>
  </g>
</svg>
