<?xml version="1.0" encoding="UTF-8"?>
<!DOCTYPE svg PUBLIC "-//W3C//DTD SVG 1.1//EN" "http://www.w3.org/Graphics/SVG/1.1/DTD/svg11.dtd">
<svg version="1.1" id="Layer_1" xmlns="http://www.w3.org/2000/svg" xmlns:xlink="http://www.w3.org/1999/xlink" x="0px" y="0px" width="32px" height="32px" viewBox="0 0 32 32" enable-background="new 0 0 32 32" xml:space="preserve">
  <g id="icon">
    <path d="M4.5,6.5v6.383C6.201,11.696,8.269,11,10.5,11c5.799,0,10.5,4.701,10.5,10.5c0,2.231,-0.696,4.299,-1.883,6H30.5V6.5H4.5z" fill="#FFFFFF"/>
    <path d="M31,6v22H18.746c0.252,-0.319,0.485,-0.653,0.699,-1H30V7H5v5.555c-0.347,0.214,-0.681,0.447,-1,0.699V6H31z" fill="#383838"/>
    <path d="M30.5,1.5v5H4.5V1.5H30.5z" fill="#BEE2E5"/>
    <path d="M4,1v6h27V1H4zM30,6H5V2h25V6z" fill="#19AAB5"/>
    <path d="M20.5,18v0.292c-0.031,-0.098,-0.064,-0.195,-0.098,-0.292H20.5zM12.5,9H7v1h5.5V9zM20.402,25H20.5v-0.292C20.469,24.806,20.436,24.903,20.402,25zM20.5,15h-1.754c0.252,0.319,0.485,0.653,0.699,1H20.5V15zM20.5,9h-6v1h6V9zM20.5,12h-5.524c0.596,0.281,1.16,0.617,1.688,1H20.5V12zM22.5,13h5.5v-1h-5.5V13zM22.5,9v1h5.5V9H22.5zM22.5,16h5.5v-1h-5.5V16zM22.5,19h5.5v-1h-5.5V19zM22.5,25h5.5v-1h-5.5V25zM22.5,22h5.5v-1h-5.5V22z" fill="#787979" opacity="0.7"/>
    <path d="M19.5,21.5c0,4.971,-4.029,9,-9,9s-9,-4.029,-9,-9s4.029,-9,9,-9S19.5,16.529,19.5,21.5zM10.5,19.7c-0.994,0,-1.8,0.806,-1.8,1.8s0.806,1.8,1.8,1.8s1.8,-0.806,1.8,-1.8S11.494,19.7,10.5,19.7z" fill="#C8C6C4" stroke="#383838" stroke-width="1" stroke-linecap="round" stroke-miterlimit="1"/>
    <path d="M7.929,27.5c-1.54,-0.661,-2.774,-1.897,-3.433,-3.438M16.504,18.938c-0.657,-1.538,-1.888,-2.772,-3.423,-3.434M6.584,23.349c0.428,0.906,1.162,1.639,2.067,2.067M14.416,19.651c-0.428,-0.905,-1.161,-1.638,-2.067,-2.067" fill="#C8C6C4" stroke="#383838" stroke-width="1" stroke-linecap="square" stroke-miterlimit="1"/>
  </g>
</svg>
