<?xml version="1.0" encoding="UTF-8"?>
<!DOCTYPE svg PUBLIC "-//W3C//DTD SVG 1.1//EN" "http://www.w3.org/Graphics/SVG/1.1/DTD/svg11.dtd">
<svg version="1.1" id="Layer_1" xmlns="http://www.w3.org/2000/svg" xmlns:xlink="http://www.w3.org/1999/xlink" x="0px" y="0px" width="32px" height="32px" viewBox="0 0 32 32" enable-background="new 0 0 32 32" xml:space="preserve">
  <g id="icon">
    <path d="M1.5,4.5v20h6v4.852L17.028,24.5H30.5V4.5H1.5z" fill="#FFFFFF" stroke="#383838" stroke-width="1" stroke-miterlimit="1"/>
    <path d="M9.7,20.3h-0.526c-0.285,0,-0.547,-0.044,-0.786,-0.133c-0.239,-0.089,-0.443,-0.211,-0.613,-0.366c-0.169,-0.155,-0.301,-0.337,-0.395,-0.545c-0.094,-0.208,-0.141,-0.432,-0.141,-0.672c0,-0.262,0.028,-0.515,0.085,-0.762s0.12,-0.489,0.19,-0.728c0.07,-0.239,0.133,-0.48,0.19,-0.722c0.056,-0.242,0.085,-0.493,0.085,-0.755c0,-0.151,-0.035,-0.29,-0.105,-0.419c-0.07,-0.129,-0.167,-0.239,-0.29,-0.333c-0.124,-0.093,-0.27,-0.166,-0.439,-0.219c-0.169,-0.053,-0.354,-0.08,-0.552,-0.08v-0.133c0.199,0,0.383,-0.025,0.552,-0.076c0.169,-0.051,0.316,-0.123,0.439,-0.216c0.124,-0.093,0.22,-0.204,0.29,-0.333c0.07,-0.129,0.105,-0.27,0.105,-0.426c0,-0.257,-0.028,-0.508,-0.085,-0.752c-0.056,-0.244,-0.12,-0.486,-0.19,-0.725c-0.07,-0.239,-0.133,-0.482,-0.19,-0.728c-0.056,-0.246,-0.085,-0.5,-0.085,-0.762c0,-0.239,0.047,-0.463,0.141,-0.672c0.094,-0.208,0.226,-0.39,0.395,-0.545c0.169,-0.155,0.374,-0.277,0.613,-0.366c0.239,-0.089,0.501,-0.133,0.786,-0.133H9.7M22.7,8.7h0.326c0.285,0,0.547,0.044,0.786,0.133c0.239,0.089,0.443,0.211,0.613,0.366c0.169,0.155,0.301,0.337,0.395,0.545c0.094,0.208,0.141,0.432,0.141,0.672c0,0.262,-0.028,0.515,-0.085,0.762c-0.056,0.246,-0.12,0.489,-0.19,0.728c-0.07,0.239,-0.133,0.481,-0.19,0.725c-0.056,0.244,-0.085,0.495,-0.085,0.752c0,0.155,0.035,0.297,0.105,0.426c0.07,0.129,0.167,0.239,0.29,0.333c0.124,0.093,0.27,0.165,0.439,0.216c0.169,0.051,0.354,0.076,0.552,0.076v0.133c-0.199,0,-0.383,0.027,-0.552,0.08c-0.169,0.053,-0.316,0.126,-0.439,0.219c-0.124,0.093,-0.22,0.204,-0.29,0.333c-0.07,0.129,-0.105,0.268,-0.105,0.419c0,0.262,0.028,0.513,0.085,0.755c0.056,0.242,0.12,0.482,0.19,0.722c0.07,0.239,0.133,0.482,0.19,0.728c0.056,0.246,0.085,0.5,0.085,0.762c0,0.239,-0.047,0.463,-0.141,0.672c-0.094,0.208,-0.226,0.39,-0.395,0.545c-0.169,0.155,-0.374,0.277,-0.613,0.366c-0.239,0.089,-0.501,0.133,-0.786,0.133H22.7M11.2,14.5h1.9M15.1,14.5h1.9M19,14.5h1.9" fill="#FFFFFF" stroke="#A0519F" stroke-width="1.1" stroke-miterlimit="1"/>
  </g>
</svg>
