<?xml version="1.0" encoding="UTF-8"?>
<!DOCTYPE svg PUBLIC "-//W3C//DTD SVG 1.1//EN" "http://www.w3.org/Graphics/SVG/1.1/DTD/svg11.dtd">
<svg version="1.1" id="Layer_1" xmlns="http://www.w3.org/2000/svg" xmlns:xlink="http://www.w3.org/1999/xlink" x="0px" y="0px" width="32px" height="32px" viewBox="0 0 32 32" enable-background="new 0 0 32 32" xml:space="preserve">
  <g id="icon">
    <path d="M7.29,23.5h-0.56c-0.383,0,-0.736,-0.061,-1.057,-0.184c-0.322,-0.122,-0.596,-0.291,-0.824,-0.505c-0.228,-0.214,-0.405,-0.465,-0.531,-0.752c-0.127,-0.288,-0.19,-0.596,-0.19,-0.927c0,-0.361,0.038,-0.711,0.114,-1.05s0.161,-0.674,0.255,-1.005c0.094,-0.33,0.179,-0.662,0.255,-0.995c0.076,-0.333,0.114,-0.68,0.114,-1.041c0,-0.208,-0.047,-0.401,-0.141,-0.578c-0.094,-0.177,-0.224,-0.33,-0.39,-0.459c-0.166,-0.128,-0.363,-0.229,-0.591,-0.303c-0.228,-0.073,-0.475,-0.11,-0.743,-0.11v-0.183c0.267,0,0.515,-0.035,0.743,-0.106c0.228,-0.07,0.425,-0.17,0.591,-0.298c0.166,-0.128,0.296,-0.281,0.39,-0.459c0.094,-0.177,0.141,-0.373,0.141,-0.587c0,-0.355,-0.038,-0.7,-0.114,-1.037c-0.076,-0.336,-0.161,-0.67,-0.255,-1c-0.094,-0.33,-0.179,-0.665,-0.255,-1.005c-0.076,-0.339,-0.114,-0.69,-0.114,-1.05c0,-0.33,0.063,-0.639,0.19,-0.927c0.126,-0.287,0.304,-0.538,0.531,-0.752c0.228,-0.214,0.502,-0.382,0.824,-0.505C5.995,7.561,6.347,7.5,6.73,7.5h0.56M24.71,7.5h0.56c0.383,0,0.736,0.061,1.057,0.183c0.322,0.122,0.596,0.291,0.824,0.505c0.228,0.214,0.405,0.465,0.531,0.752c0.127,0.288,0.19,0.596,0.19,0.927c0,0.361,-0.038,0.711,-0.114,1.05c-0.076,0.339,-0.161,0.674,-0.255,1.005c-0.094,0.33,-0.179,0.664,-0.255,1c-0.076,0.336,-0.114,0.682,-0.114,1.037c0,0.214,0.047,0.41,0.141,0.587c0.094,0.177,0.224,0.33,0.39,0.459c0.166,0.128,0.363,0.228,0.591,0.298c0.228,0.07,0.475,0.106,0.743,0.106v0.183c-0.267,0,-0.515,0.037,-0.743,0.11c-0.228,0.073,-0.425,0.174,-0.591,0.303c-0.166,0.128,-0.296,0.281,-0.39,0.459c-0.094,0.177,-0.141,0.37,-0.141,0.578c0,0.361,0.038,0.708,0.114,1.041c0.076,0.333,0.161,0.665,0.255,0.995c0.094,0.33,0.179,0.665,0.255,1.005c0.076,0.339,0.114,0.69,0.114,1.05c0,0.33,-0.063,0.639,-0.19,0.927c-0.126,0.287,-0.304,0.538,-0.531,0.752c-0.228,0.214,-0.502,0.382,-0.824,0.505c-0.322,0.122,-0.674,0.184,-1.057,0.184h-0.56M9,15.5h2M15.02,15.5h1.93M21,15.5h2" fill="none" stroke="#A0519F" stroke-width="1.2" stroke-miterlimit="1"/>
  </g>
</svg>
