<?xml version="1.0" encoding="UTF-8"?>
<!DOCTYPE svg PUBLIC "-//W3C//DTD SVG 1.1//EN" "http://www.w3.org/Graphics/SVG/1.1/DTD/svg11.dtd">
<svg version="1.1" id="Layer_1" xmlns="http://www.w3.org/2000/svg" xmlns:xlink="http://www.w3.org/1999/xlink" x="0px" y="0px" width="24px" height="24px" viewBox="0 0 24 24" enable-background="new 0 0 24 24" xml:space="preserve">
  <g id="icon">
    <polygon points="1.0059,19.2467 14.8213,6.1763 22.8293,15.226 21.3092,16.5897 14.6919,9.1117 2.4001,20.7407" fill="#EEAC55" stroke-linejoin="miter"/>
    <polygon points="7.4416,8.561 2.5285,14.9071 0.9227,13.6468 7.5491,5.0876 14.5905,15.4561 21.1464,3.6895 22.9221,4.6925 14.7613,19.3395" fill="#6485C3" stroke-linejoin="miter"/>
    <path d="M14.9697,19.2764c-1.0817,0,-1.9618,-0.8955,-1.9618,-1.9962c0,-1.1007,0.8801,-1.9961,1.9618,-1.9961c1.0818,0,1.9619,0.8955,1.9619,1.9961C16.9315,18.3809,16.0514,19.2764,14.9697,19.2764zM1.9619,16.0387C0.8801,16.0387,0,15.1432,0,14.0425s0.8801,-1.9961,1.9619,-1.9961c1.0818,0,1.9618,0.8955,1.9618,1.9961S3.0436,16.0387,1.9619,16.0387zM7.7341,8.8164c-1.0818,0,-1.9619,-0.8955,-1.9619,-1.9962S6.6523,4.824,7.7341,4.824c1.0817,0,1.9618,0.8955,1.9618,1.9962S8.8158,8.8164,7.7341,8.8164zM21.7129,6.3258c-1.0818,0,-1.9619,-0.8955,-1.9619,-1.9961s0.8801,-1.9962,1.9619,-1.9962c1.0818,0,1.9618,0.8955,1.9618,1.9962S22.7947,6.3258,21.7129,6.3258z" fill="#6485C3"/>
    <path d="M1.9619,21.8499C0.8801,21.8499,0,20.9544,0,19.8536c0,-1.1007,0.8801,-1.9961,1.9619,-1.9961c1.0818,0,1.9618,0.8955,1.9618,1.9961C3.9237,20.9544,3.0436,21.8499,1.9619,21.8499zM22.0381,17.6161c-1.0818,0,-1.9618,-0.8955,-1.9618,-1.9962c0,-1.1007,0.8801,-1.9962,1.9618,-1.9962c1.0818,0,1.9619,0.8955,1.9619,1.9962C24,16.7206,23.1199,17.6161,22.0381,17.6161zM7.7341,16.4539c-1.0818,0,-1.9619,-0.8955,-1.9619,-1.9962c0,-1.1007,0.8801,-1.9962,1.9619,-1.9962c1.0817,0,1.9618,0.8955,1.9618,1.9962C9.6959,15.5583,8.8158,16.4539,7.7341,16.4539zM15.051,9.6465c-1.0818,0,-1.9619,-0.8955,-1.9619,-1.9962s0.8801,-1.9962,1.9619,-1.9962c1.0818,0,1.9619,0.8955,1.9619,1.9962S16.1328,9.6465,15.051,9.6465z" fill="#EEAC55"/>
  </g>
</svg>
