<?xml version="1.0" encoding="UTF-8"?>
<!DOCTYPE svg PUBLIC "-//W3C//DTD SVG 1.1//EN" "http://www.w3.org/Graphics/SVG/1.1/DTD/svg11.dtd">
<svg version="1.1" id="Layer_1" xmlns="http://www.w3.org/2000/svg" xmlns:xlink="http://www.w3.org/1999/xlink" x="0px" y="0px" width="24px" height="24px" viewBox="0 0 24 24" enable-background="new 0 0 24 24" xml:space="preserve">
  <g id="icon">
    <path d="M10.9379,22.9782c-2.8997,0,-5.6454,-0.835,-7.7313,-2.351c-2.0236,-1.4707,-3.1842,-3.458,-3.1842,-5.4526c0,-0.0073,-0.0001,-0.0199,-0.0001,-0.0374c0.6113,1.0092,1.4996,1.9307,2.6331,2.7133c2.2331,1.5418,5.187,2.3909,8.3177,2.3909c2.8076,0,5.0555,-0.5013,7.0127,-1.5715v2.5185C16.0853,22.3925,13.779,22.9782,10.9379,22.9782z" fill="#6485C3"/>
    <path d="M10.973,19.0608c-2.9383,0,-5.6994,-0.7891,-7.7745,-2.2218C1.1359,15.4148,0,13.5256,0,11.5193c0,-1.9812,1.0953,-3.8512,3.0841,-5.2654c1.9321,-1.3738,4.4831,-2.1299,7.3832,-2.1891l-0.0015,8.1373l7.4504,5.1806C16.0148,18.527,13.8036,19.0608,10.973,19.0608z" fill="#6485C3"/>
    <polygon points="13.6202,12.176 13.6202,9.0986 20.1828,13.8036 20.1664,16.6118" fill="#EEAC55" stroke-linejoin="miter"/>
    <path d="M13.6214,7.8846V0.1488C19.4456,0.3002,24,3.5849,24,7.6576c0,1.7797,-1.2502,3.7498,-3.3489,5.2834L13.6214,7.8846z" fill="#EEAC55"/>
    <path d="M21.2315,13.7261c1.1555,-0.8655,2.0917,-1.875,2.7353,-2.9225v1.4783c-0.2917,1.6611,-1.2584,3.1788,-2.7353,4.302V13.7261z" fill="#EEAC55"/>
  </g>
</svg>
