<?xml version="1.0" encoding="UTF-8"?>
<!DOCTYPE svg PUBLIC "-//W3C//DTD SVG 1.1//EN" "http://www.w3.org/Graphics/SVG/1.1/DTD/svg11.dtd">
<svg version="1.1" id="Layer_1" xmlns="http://www.w3.org/2000/svg" xmlns:xlink="http://www.w3.org/1999/xlink" x="0px" y="0px" width="24px" height="24px" viewBox="0 0 24 24" enable-background="new 0 0 24 24" xml:space="preserve">
  <g id="icon">
    <path d="M17.9667,1.8167l0.7922,2.3375l1.6335,-0.5132l-0.5132,1.6335l2.3375,0.7922l-2.3375,0.7922l0.5132,1.6335l-1.6335,-0.5132l-0.7922,2.3375l-0.7922,-2.3375l-1.6335,0.5132l0.5132,-1.6335l-2.3375,-0.7922l2.3375,-0.7922L15.541,3.641l1.6335,0.5132L17.9667,1.8167z" fill="#FFFFFF" opacity="0.5"/>
    <path d="M17.9666,12.1861l-1.1721,-3.4586l-2.1705,0.6819l0.682,-2.1706l-3.4587,-1.1721l3.4586,-1.1721L14.624,2.724l2.1705,0.6819l1.1721,-3.3586l1.1721,3.3587l2.1706,-0.682l-0.6819,2.1705l3.3586,1.1721l-3.3587,1.1721l0.682,2.1706l-2.1706,-0.682L17.9666,12.1861zM17.5545,7.2308l0.4121,1.2164l0.4123,-1.2163l1.0964,0.3445l-0.3445,-1.0964l1.2163,-0.4123l-1.2164,-0.4121l0.3445,-1.0965l-1.0964,0.3445l-0.4123,-1.2163l-0.4121,1.2164L16.458,4.558l0.3445,1.0965l-1.2164,0.4121l1.2163,0.4123l-0.3445,1.0964L17.5545,7.2308z" fill="#EEAC55"/>
    <path d="M13.809,8H1.5V3h11.9529l0.3565,1.1347L9.2371,5.6842c-0.3656,0.1239,-0.3656,0.641,0,0.7649l4.5723,1.5494L13.809,8zM1.5,22.5h19v-3.5H1.5V22.5z" fill="#FFFFFF" opacity="0.5"/>
    <path d="M2,8H0V4V3V2h13.1387l0.6283,2H2V8zM20,22H2v-3H0v5h22v-5h-2V22z" fill="#7B7B7B"/>
    <path d="M11,5.0868V4h1v0.7479L11,5.0868zM6,22h1v-3H6V22zM6,8h1V4H6V8zM16,22h1v-3h-1V22zM11,7.0466V8h1v-0.6146L11,7.0466zM11,22h1v-3h-1V22z" fill="#B7B7B7"/>
    <polygon points="21,10.57 21,18 1,18 1,9 13.4948,9 13.809,8 0,8 0,19 22,19 22,10.8842" fill="#6485C3" stroke-linejoin="miter"/>
    <path d="M19.8986,10.224l-1.5494,4.5723c-0.1239,0.3656,-0.641,0.3656,-0.7649,0l-1.5495,-4.5723l-2.5064,0.7874c-0.3114,0.0978,-0.6041,-0.195,-0.5063,-0.5063L13.4948,9H1v9h20v-7.43L19.8986,10.224z" fill="#BAD2EE"/>
    <path d="M13.809,8H0V7h10.8626l2.9468,0.9986L13.809,8zM0,20h22v-1H0V20z" fill="#FFFFFF" opacity="0.5"/>
    <path d="M17.3144,14H1v-1h15.9755L17.3144,14zM18.619,14H21v-1h-2.0421L18.619,14z" fill="#6485C3" opacity="0.5"/>
  </g>
</svg>
