<?xml version="1.0" encoding="UTF-8"?>
<!DOCTYPE svg PUBLIC "-//W3C//DTD SVG 1.1//EN" "http://www.w3.org/Graphics/SVG/1.1/DTD/svg11.dtd">
<svg version="1.1" id="Layer_1" xmlns="http://www.w3.org/2000/svg" xmlns:xlink="http://www.w3.org/1999/xlink" x="0px" y="0px" width="24px" height="24px" viewBox="0 0 24 24" enable-background="new 0 0 24 24" xml:space="preserve">
  <g id="icon">
    <rect x="1.5" y="2.5" width="21" height="20.5" fill="#FFFFFF" opacity="0.5"/>
    <path d="M18,18v-6H6v6H18zM17,17H7v-4h10V17z" fill="#EEAC55"/>
    <path d="M17,17H7v-4h10V17z" fill="#EEAC55" opacity="0.5"/>
    <path d="M19,19H5v-8h14V19zM6,18h12v-6H6V18z" fill="#FFFFFF" opacity="0.5"/>
    <path d="M17,7H7V3h10V7z" fill="#EEAC55" opacity="0.5"/>
    <path d="M19,9H5V1h14V9zM6,8h12V2H6V8z" fill="#FFFFFF" opacity="0.5"/>
    <path d="M12,18h1v4h-1V18zM2,7v1h4V7H2zM6,12h1V8H6V12zM2,17v1h4v-1H2zM6,22h1v-4H6V22zM2,13h4v-1H2V13zM12,12h1V8h-1V12zM22,7h-4v1h4V7zM22,13v-1h-4v1H22zM17,8v4h1V8H17zM18,18h4v-1h-4V18zM17,22h1v-4h-1V22z" fill="#B7B7B7"/>
    <path d="M18,8V2H6v6H18zM17,7H7V3h10V7z" fill="#EEAC55"/>
    <path d="M24,24v-1v-1V1H0v21v1v1H24zM22,22H2V3h20V22z" fill="#7B7B7B"/>
  </g>
</svg>
