<?xml version="1.0" encoding="UTF-8"?>
<!DOCTYPE svg PUBLIC "-//W3C//DTD SVG 1.1//EN" "http://www.w3.org/Graphics/SVG/1.1/DTD/svg11.dtd">
<svg version="1.1" id="Layer_1" xmlns="http://www.w3.org/2000/svg" xmlns:xlink="http://www.w3.org/1999/xlink" x="0px" y="0px" width="24px" height="24px" viewBox="0 0 24 24" enable-background="new 0 0 24 24" xml:space="preserve">
  <g id="icon">
    <polygon points="3.5,1 3.5,10 18,10 18,18.5 22.5,18.5 22.5,1" fill="#FFFFFF" stroke-linejoin="miter" opacity="0.5"/>
    <path d="M24,0v1v1v18h-6v-2h4V2H4v8H2V2V1V0H24z" fill="#7B7B7B"/>
    <path d="M18,11h1v3h3v1h-3v3h-1v-3v-1V11zM7,5H4v1h3V5zM14,2h-1v3h1V2zM8,2H7v3h1V2zM19,11h3v-1h-3V11zM19,5v1h3V5H19zM18,2v3h1V2H18z" fill="#B7B7B7"/>
    <polygon points="7,5 7,10 8,10 8,6 18,6 18,10 18,11 19,11 19,5" fill="#EEAC55" stroke-linejoin="miter"/>
    <rect x="8" y="6" width="10" height="4" fill="#EEAC55" opacity="0.5"/>
    <polygon points="6,4 6,10 7,10 7,5 19,5 19,11 18,11 18,12 20,12 20,4" fill="#FFFFFF" stroke-linejoin="miter" opacity="0.5"/>
    <rect x="1.2" y="12.3" width="15" height="10.6" fill="#FFFFFF" opacity="0.5"/>
    <path d="M17,24H0V11h17V24zM2,22h13v-9H2V22z" fill="#7B7B7B"/>
    <path d="M6.7864,21.0505l-3.7909,-3.5481l3.8722,-3.5413l1.0123,1.1068l-2.6759,2.4472l2.6072,2.4403L6.7864,21.0505zM13.5,20H9v-1.5h4.5V20zM13.5,16.5H9v-1.5h4.5V16.5z" fill="#6485C3"/>
  </g>
</svg>
