<?xml version="1.0" encoding="UTF-8"?>
<!DOCTYPE svg PUBLIC "-//W3C//DTD SVG 1.1//EN" "http://www.w3.org/Graphics/SVG/1.1/DTD/svg11.dtd">
<svg version="1.1" id="Layer_1" xmlns="http://www.w3.org/2000/svg" xmlns:xlink="http://www.w3.org/1999/xlink" x="0px" y="0px" width="24px" height="24px" viewBox="0 0 24 24" enable-background="new 0 0 24 24" xml:space="preserve">
  <g id="icon">
    <path d="M14.5372,22.9992c-2.822,0,-5.4155,-1.1791,-7.3026,-3.32c-1.1051,-1.2539,-1.9298,-2.2995,-2.3968,-4.0474H1.8097v-2.6253h2.6154c-0.0086,-0.1441,-0.0131,-0.472,-0.0131,-0.6582s0.0045,-1.2106,0.0131,-1.3548H2.5615V8.3682h2.2763c0.467,-1.7479,1.2917,-2.7936,2.3968,-4.0474c1.8872,-2.1409,4.4807,-3.32,7.3027,-3.32c2.4212,0,4.786,0.8878,6.6588,2.4998l0.5002,0.4303l-1.716,1.9866l-0.4962,-0.427c-1.417,-1.2197,-3.1276,-1.8644,-4.9469,-1.8644c-2.04,0,-5.6712,1.4734,-6.7834,4.7422h9.3197v2.6253H7.0529c-0.0108,0.1465,-0.0163,1.1653,-0.0163,1.3548c0,0.1895,0.0054,0.5117,0.0163,0.6582h9.4358v2.6253H7.7538c0.9459,2.78,4.4317,4.7422,6.7834,4.7422c1.938,0,3.8032,-0.7604,5.2521,-2.141l0.4738,-0.4519l1.8148,1.8976l-0.4784,0.4552C19.6608,21.9815,17.1526,22.9992,14.5372,22.9992z" fill="#6485C3"/>
  </g>
</svg>
