<?xml version="1.0" encoding="UTF-8"?>
<!DOCTYPE svg PUBLIC "-//W3C//DTD SVG 1.1//EN" "http://www.w3.org/Graphics/SVG/1.1/DTD/svg11.dtd">
<svg version="1.1" id="Layer_1" xmlns="http://www.w3.org/2000/svg" xmlns:xlink="http://www.w3.org/1999/xlink" x="0px" y="0px" width="24px" height="24px" viewBox="0 0 24 24" enable-background="new 0 0 24 24" xml:space="preserve">
  <g id="icon">
    <path d="M21,22H6V2h15V22z" fill="#FFFFFF" opacity="0.5"/>
    <rect x="4" y="2" width="2" height="20" fill="#B7B7B7"/>
    <path d="M23,24H2V0h21V24zM4,22h17V2H4V22z" fill="#7B7B7B"/>
    <path d="M17.7,13.35c-0.7444,0,-1.35,-0.6056,-1.35,-1.35s0.6056,-1.35,1.35,-1.35s1.35,0.6056,1.35,1.35S18.4444,13.35,17.7,13.35zM13.3,13.35c-0.7444,0,-1.35,-0.6056,-1.35,-1.35s0.6056,-1.35,1.35,-1.35s1.35,0.6056,1.35,1.35S14.0444,13.35,13.3,13.35zM8.9,13.35c-0.7444,0,-1.35,-0.6056,-1.35,-1.35s0.6056,-1.35,1.35,-1.35s1.35,0.6056,1.35,1.35S9.6443,13.35,8.9,13.35z" fill="#F1876B"/>
  </g>
</svg>
