<?xml version="1.0" encoding="UTF-8"?>
<!DOCTYPE svg PUBLIC "-//W3C//DTD SVG 1.1//EN" "http://www.w3.org/Graphics/SVG/1.1/DTD/svg11.dtd">
<svg version="1.1" id="Layer_1" xmlns="http://www.w3.org/2000/svg" xmlns:xlink="http://www.w3.org/1999/xlink" x="0px" y="0px" width="24px" height="24px" viewBox="0 0 24 24" enable-background="new 0 0 24 24" xml:space="preserve">
  <g id="icon">
    <path d="M21,22H6V2h15V22z" fill="#FFFFFF" opacity="0.5"/>
    <rect x="4" y="2" width="2" height="20" fill="#B7B7B7"/>
    <path d="M23,24H2V0h21V24zM4,22h17V2H4V22z" fill="#7B7B7B"/>
    <path d="M13.4,6c-3.3084,0,-6,2.6916,-6,6s2.6916,6,6,6s6,-2.6916,6,-6S16.7084,6,13.4,6zM17.6801,10.1428h-2.0771c-0.2058,-0.9456,-0.5392,-1.886,-0.9317,-2.632C16.0228,7.8941,17.1264,8.8717,17.6801,10.1428zM18.0667,12c0,0.2695,-0.0242,0.5333,-0.0683,0.7905h-2.2141c0.0265,-0.266,0.0403,-0.523,0.0403,-0.7658c0,-0.262,-0.016,-0.5355,-0.0462,-0.8152h2.2199C18.0424,11.4667,18.0667,11.7305,18.0667,12zM12.2615,13.8572h2.272c-0.2611,1.1418,-0.7128,2.2029,-1.152,2.7622C12.9191,16.0568,12.499,14.9934,12.2615,13.8572zM12.0974,12.7905c-0.0252,-0.26,-0.0386,-0.517,-0.0386,-0.7658c0,-0.2682,0.0159,-0.5416,0.0452,-0.8152h2.6014c0.0339,0.2787,0.0525,0.5525,0.0525,0.8152c0,0.2495,-0.0152,0.5064,-0.0432,0.7658H12.0974zM14.5091,10.1428h-2.2264c0.252,-1.1146,0.6825,-2.1271,1.1113,-2.6924C13.8145,8.0356,14.2469,9.0612,14.5091,10.1428zM12.0945,7.5205c-0.3983,0.7529,-0.7088,1.6923,-0.8973,2.6223H9.1199C9.6689,8.8824,10.7586,7.9105,12.0945,7.5205zM11.027,12.7905H8.8017c-0.0441,-0.2571,-0.0683,-0.521,-0.0683,-0.7905s0.0242,-0.5333,0.0683,-0.7905h2.2332c-0.0281,0.2824,-0.0427,0.5563,-0.0427,0.8152C10.9921,12.2706,11.004,12.5273,11.027,12.7905zM9.1199,13.8572h2.0555c0.1752,0.928,0.4694,1.8573,0.8531,2.6035C10.7225,16.0583,9.6599,15.0969,9.1199,13.8572zM14.7268,16.4734c0.392,-0.754,0.7036,-1.6934,0.8931,-2.6162h2.0602C17.134,15.1109,16.0531,16.0793,14.7268,16.4734z" fill="#6485C3"/>
  </g>
</svg>
