<?xml version="1.0" encoding="UTF-8"?>
<!DOCTYPE svg PUBLIC "-//W3C//DTD SVG 1.1//EN" "http://www.w3.org/Graphics/SVG/1.1/DTD/svg11.dtd">
<svg version="1.1" id="Layer_1" xmlns="http://www.w3.org/2000/svg" xmlns:xlink="http://www.w3.org/1999/xlink" x="0px" y="0px" width="24px" height="24px" viewBox="0 0 24 24" enable-background="new 0 0 24 24" xml:space="preserve">
  <g id="icon">
    <path d="M21,22H6V2h15V22z" fill="#FFFFFF" opacity="0.5"/>
    <rect x="4" y="2" width="2" height="20" fill="#B7B7B7"/>
    <path d="M23,24H2V0h21V24zM4,22h17V2H4V22z" fill="#7B7B7B"/>
    <path d="M18.3154,18.4796l-3.2388,-3.2361c-0.8499,0.6291,-1.9009,1.0013,-3.0374,1.0013c-2.82,0,-5.1143,-2.2925,-5.1143,-5.1104s2.2942,-5.1104,5.1143,-5.1104s5.1143,2.2925,5.1143,5.1104c0,1.1425,-0.3773,2.1989,-1.0137,3.0509l3.236,3.2331L18.3154,18.4796zM12.0391,7.5241c-1.9929,0,-3.6143,1.6196,-3.6143,3.6104s1.6214,3.6104,3.6143,3.6104s3.6143,-1.6196,3.6143,-3.6104S14.0321,7.5241,12.0391,7.5241z" fill="#6485C3"/>
  </g>
</svg>
