<?xml version="1.0" encoding="UTF-8"?>
<!DOCTYPE svg PUBLIC "-//W3C//DTD SVG 1.1//EN" "http://www.w3.org/Graphics/SVG/1.1/DTD/svg11.dtd">
<svg version="1.1" id="Layer_1" xmlns="http://www.w3.org/2000/svg" xmlns:xlink="http://www.w3.org/1999/xlink" x="0px" y="0px" width="24px" height="24px" viewBox="0 0 24 24" enable-background="new 0 0 24 24" xml:space="preserve">
  <g id="icon">
    <g>
      <path d="M6.8107,1.6497c1.1049,1.3311,1.6178,2.8942,1.6222,2.9154C8.4834,4.8176,8.6958,5,8.9417,5H18.58h4.894c0.0639,0,0.1284,-0.0099,0.1879,-0.0345c0.2465,-0.1018,0.3706,-0.3583,0.3308,-0.6047C23.9608,4.1641,23.0162,0,19.7856,0H6.5133c-0.7616,0,-1.0377,0.0817,-0.9528,0.3099C6.0326,0.7252,6.4483,1.1789,6.8107,1.6497z" fill="#EEAC55"/>
    </g>
    <path d="M16.9819,10H7.2V9h9.7819V10zM15.5819,8H5.7V7h9.8819V8zM18.5858,12H8.452v-1h10.1339V12z" fill="#FFFFFF" opacity="0.5"/>
    <path d="M20.5919,15.686l-0.0116,-0.0267c-0.0161,-0.0365,-0.0462,-0.1154,-0.047,-0.1175l-0.186,-0.4827l-1.0779,-0.0015l-0.1922,0.4665c0,0,-0.0401,0.0974,-0.0567,0.1337l-3.1854,7.7722l1.3968,0.5697l0.9496,-2.3174h3.2395L22.3715,24l1.3967,-0.5701L20.5919,15.686zM18.8043,20.2106l0.9961,-2.431l0.9971,2.431H18.8043zM4.9156,24H3.8151L0.3327,15.5655L1.7205,15l2.6479,6.4132l2.6569,-6.3893l1.3863,0.569L4.9156,24zM15.2186,20.2774c-0.1638,-0.327,-0.3965,-0.609,-0.6916,-0.838c-0.0275,-0.0213,-0.0555,-0.0422,-0.084,-0.0625c0.2162,-0.2306,0.3909,-0.5124,0.508,-0.8207c0.1141,-0.3006,0.1719,-0.6035,0.1719,-0.9004c0,-0.8137,-0.2951,-1.4868,-0.8535,-1.9464c-0.5317,-0.4375,-1.2703,-0.6502,-2.2579,-0.6502H8.9748V24h3.3333c0.4427,0,0.8508,-0.0501,1.2127,-0.1486c0.3938,-0.1072,0.7381,-0.2738,1.0231,-0.4951c0.3042,-0.2362,0.5388,-0.5355,0.6972,-0.8898c0.1549,-0.3466,0.2271,-0.702,0.2271,-1.1185C15.4681,20.9575,15.3889,20.6174,15.2186,20.2774zM10.4748,16.5494h1.5367c0.6066,0,1.0565,0.1064,1.301,0.3076c0.206,0.1696,0.3105,0.4384,0.3105,0.7989c0,0.1167,-0.0254,0.2428,-0.0754,0.3746c-0.0521,0.1373,-0.1318,0.2629,-0.2243,0.3535c-0.1107,0.1086,-0.2667,0.2029,-0.4637,0.2804c-0.2025,0.0797,-0.4689,0.1202,-0.7919,0.1202h-1.5929V16.5494zM13.8702,21.8616c-0.0583,0.1303,-0.1401,0.2352,-0.2501,0.3206c-0.1277,0.0992,-0.2945,0.1772,-0.4959,0.2321c-0.2328,0.0634,-0.5074,0.0956,-0.8161,0.0956h-1.8333v-2.2352h1.8445c0.2902,0,0.5532,0.0332,0.7812,0.0984c0.2033,0.0584,0.3725,0.1392,0.503,0.2405c0.1191,0.0923,0.2081,0.1995,0.2722,0.3276c0.0657,0.1311,0.0925,0.2489,0.0925,0.4067C13.9681,21.5544,13.9388,21.7081,13.8702,21.8616z" fill="#6485C3"/>
    <path d="M4.9655,13h16.8007c-0.0653,-0.1279,-0.131,-0.2562,-0.197,-0.385c-0.9893,-1.9323,-2.0122,-4.4539,-2.4533,-6.1715C19.0524,6.1961,18.8338,6,18.58,6H8.3388c-0.3502,0,-0.6545,-0.2181,-0.74,-0.56C7.2092,3.8807,6.0793,1.8139,4.2019,0.512c-0.1507,-0.1045,-0.3423,-0.1304,-0.5132,-0.0644c-0.9056,0.3497,-2.4195,1.3773,-2.4195,4.3328c0,1.9364,1.3769,4.2841,2.8346,6.7696C4.3866,12.0321,4.6788,12.5173,4.9655,13zM18.5858,11v1H8.452v-1H18.5858zM16.9819,10H7.2V9h9.7819V10zM5.7,7h9.8819v1H5.7V7z" fill="#EEAC55"/>
  </g>
</svg>
