<?xml version="1.0" encoding="UTF-8"?>
<!DOCTYPE svg PUBLIC "-//W3C//DTD SVG 1.1//EN" "http://www.w3.org/Graphics/SVG/1.1/DTD/svg11.dtd">
<svg version="1.1" id="Layer_1" xmlns="http://www.w3.org/2000/svg" xmlns:xlink="http://www.w3.org/1999/xlink" x="0px" y="0px" width="24px" height="24px" viewBox="0 0 24 24" enable-background="new 0 0 24 24" xml:space="preserve">
  <g id="icon">
    <rect x="0.5" y="0.5" width="22" height="19" fill="#FFFFFF" opacity="0.5"/>
    <path d="M24,20H0V0h24V20zM2,19h20V2H2V19z" fill="#7B7B7B"/>
    <polygon points="11.4142,21.6 9.0392,24 16.7333,24 19.1083,21.6" fill="#78797A" stroke-linejoin="miter" opacity="0.2"/>
    <polygon points="17.7083,21.6 16.325,23 10.0309,23 9.0392,24 16.7417,24 19.1167,21.6" fill="#78797A" stroke-linejoin="miter" opacity="0.3"/>
    <polygon points="12.6976,19 10.5,19 0,19 0,24 7.7421,24 10.7087,21 24,21 24,19" fill="#6485C3" stroke-linejoin="miter"/>
    <path d="M22,19H2V2h20V19zM3,18h18V3H3V18z" fill="#FFFFFF" opacity="0.5"/>
    <polygon points="6,8 7,8 7,6 11,6 11,8 12,8 12,6 16,6 16,8 17,8 17,6 22,6 22,5 17,5 17,2 16,2 16,5 12,5 12,2 11,2 11,5 7,5 7,2 6,2 6,5 2,5 2,6 6,6" fill="#B7B7B7" stroke-linejoin="miter"/>
    <path d="M5.0063,17.006c-0.3457,0,-0.6858,-0.0212,-1.0147,-0.0651c-0.2027,-0.027,-0.3751,-0.1612,-0.4511,-0.3511c-0.0759,-0.1899,-0.0437,-0.4059,0.0844,-0.5653l0.2108,-0.2622c0.5744,-0.7058,1.4857,-1.3655,2.3951,-1.9309c-0.237,-0.0709,-0.4472,-0.1891,-0.609,-0.3812c-0.1642,-0.1951,-0.3339,-0.5429,-0.2097,-1.0924c0.3651,-1.615,3.1011,-2.3566,4.6996,-2.6548c1.4187,-0.2647,2.4004,-0.3282,2.9105,0.1723c0.1783,0.175,0.3726,0.4929,0.2855,1.0131c-0.1057,0.6315,-0.596,0.9819,-1.0286,1.2909c-0.2226,0.1591,-0.4329,0.3094,-0.5933,0.4895c-0.2081,0.2337,-0.5662,0.2543,-0.7998,0.0463c-0.2337,-0.2081,-0.2544,-0.5661,-0.0463,-0.7998c0.2447,-0.2747,0.5294,-0.4783,0.7807,-0.6578c0.2784,-0.199,0.5415,-0.3869,0.5697,-0.5562c0.0019,-0.0115,0.0033,-0.0215,0.0041,-0.0301c-0.1322,-0.0467,-0.5564,-0.1006,-1.8748,0.1455c-2.0885,0.3897,-3.6521,1.1261,-3.8024,1.7908c-0.0136,0.0601,-0.0157,0.0982,-0.0153,0.1193c0.1756,0.097,0.7884,0.0657,1.0892,0.0503c0.2408,-0.0123,0.4682,-0.0241,0.6717,-0.0136c0.2527,0.0128,0.4662,0.1917,0.5232,0.4382c0.0569,0.2465,-0.0565,0.5009,-0.278,0.6233c-0.9444,0.5219,-2.2742,1.2568,-3.1895,2.0445c1.4305,-0.0539,2.9177,-0.5079,3.8969,-1.2304c0.2034,-0.1503,0.482,-0.1473,0.6825,0.0073c0.2003,0.1546,0.2738,0.4233,0.1801,0.6583c-0.0021,0.0053,-0.0039,0.0102,-0.0054,0.0145c0.0666,0.0392,0.2381,0.0903,0.502,0.0665c0.2167,-0.0195,0.9619,-0.1425,1.4512,-0.9058c0.1331,-0.2077,0.3857,-0.3055,0.624,-0.2414c0.2384,0.064,0.4078,0.2752,0.4189,0.5218c0.0174,0.3891,0.1432,0.4369,0.1845,0.4526c0.4614,0.1748,1.6659,-0.429,2.2281,-1.008c0.1559,-0.1606,0.3919,-0.2142,0.6018,-0.1372c0.2101,0.0772,0.3551,0.2708,0.37,0.4941c0.0145,0.2181,0.0669,0.2895,0.0801,0.2968c0.3235,0.1758,1.6278,-0.55,2.119,-0.8232c0.4288,-0.2385,0.7674,-0.4269,1.0302,-0.5038c0.1447,-0.0423,0.3001,-0.0253,0.4321,0.0472c0.1321,0.0726,0.2297,0.1947,0.2714,0.3395c0.2782,0.9648,0.0223,1.3458,-0.4931,1.9899c-0.1954,0.2442,-0.554,0.2864,-0.7983,0.0909c-0.2442,-0.1955,-0.2859,-0.5494,-0.0904,-0.7937l0.004,-0.005c0.0346,-0.0432,0.0663,-0.0829,0.0954,-0.1195c-1.0248,0.5691,-2.2683,1.2319,-3.1118,0.7729c-0.1185,-0.0644,-0.2486,-0.162,-0.3626,-0.3092c-0.7912,0.5485,-1.9311,1.049,-2.778,0.7276c-0.1623,-0.0617,-0.3817,-0.1817,-0.5652,-0.4114c-0.8707,0.693,-2.0013,0.8407,-2.718,0.4724c-0.168,-0.0863,-0.3048,-0.1973,-0.4079,-0.3261C7.9775,16.6383,6.4456,17.006,5.0063,17.006z" fill="#CB525D"/>
  </g>
</svg>
