<?xml version="1.0" encoding="UTF-8"?>
<!DOCTYPE svg PUBLIC "-//W3C//DTD SVG 1.1//EN" "http://www.w3.org/Graphics/SVG/1.1/DTD/svg11.dtd">
<svg version="1.1" id="Layer_1" xmlns="http://www.w3.org/2000/svg" xmlns:xlink="http://www.w3.org/1999/xlink" x="0px" y="0px" width="32px" height="32px" viewBox="0 0 32 32" enable-background="new 0 0 32 32" xml:space="preserve">
  <g id="icon">
    <path d="M27.365,9.439c-0.29,-0.502,-0.932,-0.674,-1.434,-0.384c-0.502,0.29,-0.674,0.932,-0.384,1.434c0.29,0.502,0.932,0.674,1.434,0.384S27.655,9.941,27.365,9.439zM13.9,28.073c0,-1.16,0.94,-2.1,2.1,-2.1s2.1,0.94,2.1,2.1c0,1.16,-0.94,2.1,-2.1,2.1S13.9,29.233,13.9,28.073zM22.955,28.046c0.879,-0.507,1.18,-1.631,0.672,-2.509s-1.631,-1.18,-2.509,-0.672c-0.879,0.507,-1.18,1.631,-0.672,2.509C20.953,28.253,22.076,28.554,22.955,28.046zM27.819,22.824c0.435,-0.753,0.177,-1.716,-0.576,-2.151c-0.753,-0.435,-1.716,-0.177,-2.151,0.576c-0.435,0.753,-0.177,1.716,0.576,2.151C26.421,23.835,27.384,23.577,27.819,22.824zM28.073,17.312c-0.725,0,-1.312,-0.588,-1.312,-1.312s0.588,-1.312,1.312,-1.312s1.312,0.588,1.312,1.312S28.798,17.312,28.073,17.312zM8.783,28.501c1.13,0.652,2.574,0.265,3.226,-0.864c0.652,-1.13,0.265,-2.574,-0.864,-3.226c-1.13,-0.652,-2.574,-0.265,-3.226,0.864C7.266,26.404,7.653,27.849,8.783,28.501zM3.927,15.25c0.414,0,0.75,0.336,0.75,0.75s-0.336,0.75,-0.75,0.75s-0.75,-0.336,-0.75,-0.75S3.513,15.25,3.927,15.25zM4.895,22.411c0.207,0.359,0.666,0.482,1.024,0.274c0.359,-0.207,0.482,-0.666,0.274,-1.024c-0.207,-0.359,-0.666,-0.482,-1.024,-0.274C4.811,21.594,4.688,22.053,4.895,22.411zM16.75,3.927c0,0.414,-0.336,0.75,-0.75,0.75s-0.75,-0.336,-0.75,-0.75s0.336,-0.75,0.75,-0.75S16.75,3.513,16.75,3.927zM9.589,4.895c-0.359,0.207,-0.482,0.666,-0.274,1.024c0.207,0.359,0.666,0.482,1.024,0.274c0.359,-0.207,0.482,-0.666,0.274,-1.024C10.406,4.811,9.947,4.688,9.589,4.895zM4.895,9.589c-0.207,0.359,-0.084,0.817,0.275,1.025c0.359,0.207,0.817,0.084,1.025,-0.275c0.207,-0.359,0.084,-0.817,-0.275,-1.025C5.561,9.107,5.102,9.23,4.895,9.589zM22.411,4.895c-0.359,-0.207,-0.817,-0.084,-1.025,0.275c-0.207,0.359,-0.084,0.817,0.275,1.025c0.359,0.207,0.817,0.084,1.025,-0.275C22.893,5.561,22.77,5.102,22.411,4.895z" fill="#92CBEE" stroke="#0964B0" stroke-width="1" stroke-miterlimit="1"/>
  </g>
</svg>
