<?xml version="1.0" encoding="UTF-8"?>
<!DOCTYPE svg PUBLIC "-//W3C//DTD SVG 1.1//EN" "http://www.w3.org/Graphics/SVG/1.1/DTD/svg11.dtd">
<svg version="1.1" id="Layer_1" xmlns="http://www.w3.org/2000/svg" xmlns:xlink="http://www.w3.org/1999/xlink" x="0px" y="0px" width="32px" height="32px" viewBox="0 0 32 32" enable-background="new 0 0 32 32" xml:space="preserve">
  <g id="icon">
    <path d="M27.365,22.561c0.29,-0.502,0.118,-1.144,-0.384,-1.434c-0.502,-0.29,-1.144,-0.118,-1.434,0.384c-0.29,0.502,-0.118,1.144,0.384,1.434C26.433,23.236,27.075,23.064,27.365,22.561zM4.495,20.218c1.004,-0.58,2.288,-0.236,2.868,0.769c0.58,1.004,0.236,2.288,-0.769,2.868s-2.288,0.236,-2.868,-0.769C3.146,22.082,3.49,20.798,4.495,20.218zM9.045,28.046c0.879,0.507,2.002,0.206,2.509,-0.672c0.507,-0.879,0.206,-2.002,-0.672,-2.509c-0.879,-0.507,-2.002,-0.206,-2.509,0.672C7.865,26.416,8.166,27.539,9.045,28.046zM16,29.647c0.87,0,1.574,-0.705,1.574,-1.574c0,-0.87,-0.705,-1.574,-1.574,-1.574s-1.574,0.705,-1.574,1.574C14.426,28.943,15.13,29.647,16,29.647zM20.9,27.112c-0.362,-0.628,-0.147,-1.43,0.48,-1.793c0.628,-0.362,1.43,-0.147,1.793,0.48c0.362,0.628,0.147,1.43,-0.48,1.793C22.065,27.954,21.262,27.739,20.9,27.112zM1.565,16c0,1.304,1.057,2.362,2.362,2.362S6.289,17.304,6.289,16s-1.057,-2.362,-2.362,-2.362S1.565,14.696,1.565,16zM10.613,5.17c0.207,0.359,0.084,0.817,-0.274,1.024c-0.359,0.207,-0.817,0.084,-1.024,-0.274c-0.207,-0.359,-0.084,-0.817,0.274,-1.024C9.947,4.688,10.406,4.811,10.613,5.17zM4.895,9.589c-0.207,0.359,-0.084,0.817,0.274,1.024c0.359,0.207,0.817,0.084,1.024,-0.274c0.207,-0.359,0.084,-0.817,-0.274,-1.024C5.561,9.107,5.102,9.23,4.895,9.589zM26.83,10.613c-0.359,0.207,-0.817,0.084,-1.024,-0.274c-0.207,-0.359,-0.084,-0.817,0.274,-1.024c0.359,-0.207,0.817,-0.084,1.024,0.274C27.312,9.947,27.189,10.406,26.83,10.613zM22.411,4.895c-0.359,-0.207,-0.817,-0.084,-1.024,0.274c-0.207,0.359,-0.084,0.817,0.274,1.024c0.359,0.207,0.817,0.084,1.024,-0.274C22.893,5.561,22.77,5.102,22.411,4.895zM16,3.177c-0.414,0,-0.75,0.336,-0.75,0.75s0.336,0.75,0.75,0.75s0.75,-0.336,0.75,-0.75S16.414,3.177,16,3.177zM28.823,16c0,-0.414,-0.336,-0.75,-0.75,-0.75c-0.414,0,-0.75,0.336,-0.75,0.75s0.336,0.75,0.75,0.75C28.487,16.75,28.823,16.414,28.823,16z" fill="#92CBEE" stroke="#0964B0" stroke-width="1" stroke-miterlimit="1"/>
  </g>
</svg>
