<?xml version="1.0" encoding="UTF-8"?>
<!DOCTYPE svg PUBLIC "-//W3C//DTD SVG 1.1//EN" "http://www.w3.org/Graphics/SVG/1.1/DTD/svg11.dtd">
<svg version="1.1" id="Layer_1" xmlns="http://www.w3.org/2000/svg" xmlns:xlink="http://www.w3.org/1999/xlink" x="0px" y="0px" width="32px" height="32px" viewBox="0 0 32 32" enable-background="new 0 0 32 32" xml:space="preserve">
  <g id="icon">
    <path d="M16,30c-7.72,0,-14,-6.28,-14,-14S8.28,2,16,2s14,6.28,14,14S23.72,30,16,30zM16,3.2C8.942,3.2,3.2,8.942,3.2,16s5.742,12.8,12.8,12.8s12.8,-5.742,12.8,-12.8S23.058,3.2,16,3.2z" fill="#C8C6C4" opacity="0.5"/>
    <path d="M27.458,10.77C26.367,8.371,24.584,6.407,22.3,5.088c-1.91,-1.103,-4.081,-1.685,-6.278,-1.685c-0.406,0,-0.817,0.02,-1.222,0.059l-0.099,0.01l-0.16,-1.591l0.1,-0.01c0.458,-0.045,0.924,-0.067,1.384,-0.067c2.477,0,4.924,0.657,7.076,1.899c2.576,1.487,4.587,3.704,5.816,6.41l0.042,0.091L27.5,10.861L27.458,10.77z" fill="#238BCB"/>
  </g>
</svg>
