<?xml version="1.0" encoding="UTF-8"?>
<!DOCTYPE svg PUBLIC "-//W3C//DTD SVG 1.1//EN" "http://www.w3.org/Graphics/SVG/1.1/DTD/svg11.dtd">
<svg version="1.1" id="Layer_1" xmlns="http://www.w3.org/2000/svg" xmlns:xlink="http://www.w3.org/1999/xlink" x="0px" y="0px" width="32px" height="32px" viewBox="0 0 32 32" enable-background="new 0 0 32 32" xml:space="preserve">
  <g id="icon">
    <rect x="10.5" y="12.5" width="20" height="17" fill="#FFFFFF" stroke="#383838" stroke-width="1" stroke-miterlimit="1"/>
    <polygon points="25.5,7.5 25.5,11 9,11 9,24.5 5.5,24.5 5.5,7.5" fill="#FFFFFF" stroke-linejoin="miter"/>
    <polygon points="26,7 26,11 25,11 25,8 6,8 6,24 9,24 9,25 5,25 5,7" fill="#383838" stroke-linejoin="miter"/>
    <polygon points="20.5,2.5 20.5,6 4,6 4,19.5 0.5,19.5 0.5,2.5" fill="#FFFFFF" stroke-linejoin="miter"/>
    <polygon points="21,2 21,6 20,6 20,3 1,3 1,19 4,19 4,20 0,20 0,2" fill="#383838" stroke-linejoin="miter"/>
  </g>
</svg>
