<?xml version="1.0" encoding="UTF-8"?>
<!DOCTYPE svg PUBLIC "-//W3C//DTD SVG 1.1//EN" "http://www.w3.org/Graphics/SVG/1.1/DTD/svg11.dtd">
<svg version="1.1" id="Layer_1" xmlns="http://www.w3.org/2000/svg" xmlns:xlink="http://www.w3.org/1999/xlink" x="0px" y="0px" width="16px" height="16px" viewBox="0 0 16 16" enable-background="new 0 0 16 16" xml:space="preserve">
  <g id="icon">
    <polygon points="6,11 10.7,11 10.7,9.283 12,8 13.5,8 13.5,4.5 0.5,4.5 0.5,14.5 6,14.5" fill="#FFFFFF" stroke-linejoin="miter"/>
    <rect x="0.5" y="1.5" width="13" height="3" fill="#C8C6C4"/>
    <path d="M6,14H1V5h12v3h1V5V4V1h-3V0h-1v1H4V0H3v1H0v3v1v10h6V14zM1,2h2v1h1V2h6v1h1V2h2v2H1V2z" fill="#383838"/>
    <polygon points="6,11 10.7,11 10.7,9.283 11.5,8.494 11.5,6.5 8.5,6.5 5.5,6.5 5.5,8.5 2.5,8.5 2.5,10.5 2.5,12.5 5.5,12.5 6,12.5" fill="#F7BFBF" stroke-linejoin="miter"/>
    <path d="M6,12v-1h2h1h1.7v-1H9V9h1.987L12,8V6H5v2H2v5h4V12zM9,7h2v1H9V7zM6,7h2v1H6V7zM6,9h2v1H6V9zM5,12H3v-1h2V12zM5,10H3V9h2V10z" fill="#DB2E2A"/>
    <polygon points="12.57,15.914 11.859,15.21 14.051,13 7,13 7,12 14.15,12 11.859,9.69 12.57,8.986 16.004,12.45" fill="#A0519F" stroke-linejoin="miter"/>
  </g>
</svg>
