<?xml version="1.0" encoding="UTF-8"?>
<!DOCTYPE svg PUBLIC "-//W3C//DTD SVG 1.1//EN" "http://www.w3.org/Graphics/SVG/1.1/DTD/svg11.dtd">
<svg version="1.1" id="Layer_1" xmlns="http://www.w3.org/2000/svg" xmlns:xlink="http://www.w3.org/1999/xlink" x="0px" y="0px" width="16px" height="16px" viewBox="0 0 16 16" enable-background="new 0 0 16 16" xml:space="preserve">
  <g id="icon">
    <polygon points="11.533,0.5 3.5,0.5 3.5,5 11,5 11,15.5 15.5,15.5 15.5,4.557" fill="#FFFFFF" stroke-linejoin="miter"/>
    <path d="M11.744,0H3v5h1V1h7v4h4v10h-4v1h5V4.353L11.744,0zM12,4V1.693L14.256,4H12z" fill="#383838"/>
    <rect x="0.5" y="8.5" width="9" height="7" fill="#FFFFFF" stroke="#383838" stroke-width="1" stroke-miterlimit="1"/>
    <rect x="3" y="9.6" width="1" height="4.9" fill="#C8C6C4" opacity="0.5"/>
    <rect x="6" y="9.6" width="1" height="4.9" fill="#C8C6C4" opacity="0.5"/>
    <rect x="0.5" y="6.5" width="9" height="2" fill="#92CBEE" stroke="#0964B0" stroke-width="1" stroke-miterlimit="1"/>
    <line x1="2" y1="11" x2="6" y2="11" fill="#FFFFFF" stroke="#228BCB" stroke-width="1" stroke-miterlimit="1"/>
    <line x1="4" y1="13" x2="8" y2="13" fill="#FFFFFF" stroke="#228BCB" stroke-width="1" stroke-miterlimit="1"/>
  </g>
</svg>
