<?xml version="1.0" encoding="UTF-8"?>
<!DOCTYPE svg PUBLIC "-//W3C//DTD SVG 1.1//EN" "http://www.w3.org/Graphics/SVG/1.1/DTD/svg11.dtd">
<svg version="1.1" id="Layer_1" xmlns="http://www.w3.org/2000/svg" xmlns:xlink="http://www.w3.org/1999/xlink" x="0px" y="0px" width="16px" height="16px" viewBox="0 0 16 16" enable-background="new 0 0 16 16" xml:space="preserve">
  <g id="icon">
    <path d="M7.406,0.746L0.746,7.406c-0.328,0.328,-0.328,0.859,0,1.187l6.661,6.661C7.57,15.418,7.785,15.5,8,15.5V0.5C7.785,0.5,7.57,0.582,7.406,0.746z" fill="#FFFFFF"/>
    <path d="M15.254,7.406L8.594,0.746C8.43,0.582,8.215,0.5,8,0.5v15c0.215,0,0.43,-0.082,0.594,-0.246l6.661,-6.661C15.582,8.266,15.582,7.734,15.254,7.406z" fill="#C8C6C4"/>
    <path d="M15.254,7.406L8.594,0.746c-0.328,-0.328,-0.859,-0.328,-1.187,0L0.746,7.406c-0.328,0.328,-0.328,0.859,0,1.187l6.661,6.661c0.328,0.328,0.859,0.328,1.187,0l6.661,-6.661C15.582,8.266,15.582,7.734,15.254,7.406z" fill="none" stroke="#383838" stroke-width="1" stroke-miterlimit="1"/>
  </g>
</svg>
