<?xml version="1.0" encoding="UTF-8"?>
<!DOCTYPE svg PUBLIC "-//W3C//DTD SVG 1.1//EN" "http://www.w3.org/Graphics/SVG/1.1/DTD/svg11.dtd">
<svg version="1.1" id="Layer_1" xmlns="http://www.w3.org/2000/svg" xmlns:xlink="http://www.w3.org/1999/xlink" x="0px" y="0px" width="16px" height="16px" viewBox="0 0 16 16" enable-background="new 0 0 16 16" xml:space="preserve">
  <g id="icon">
    <rect x="0.5" y="8.5" width="15" height="7" fill="#FFFFFF" stroke="#0964B0" stroke-width="1" stroke-linecap="round" stroke-miterlimit="1"/>
    <path d="M6.639,3.528c0,0.353,-0.04,0.658,-0.12,0.915c-0.08,0.258,-0.189,0.471,-0.325,0.64c-0.137,0.169,-0.297,0.294,-0.481,0.375c-0.184,0.081,-0.378,0.122,-0.583,0.122c-0.205,0,-0.399,-0.041,-0.583,-0.122c-0.184,-0.081,-0.344,-0.206,-0.481,-0.375c-0.137,-0.169,-0.245,-0.382,-0.325,-0.64c-0.08,-0.258,-0.12,-0.563,-0.12,-0.915c0,-0.353,0.04,-0.658,0.12,-0.915c0.08,-0.258,0.189,-0.471,0.325,-0.641c0.137,-0.17,0.297,-0.296,0.481,-0.378c0.184,-0.082,0.378,-0.124,0.583,-0.124c0.205,0,0.399,0.041,0.583,0.124c0.184,0.082,0.344,0.208,0.481,0.378c0.137,0.17,0.245,0.383,0.325,0.641C6.599,2.87,6.639,3.175,6.639,3.528zM9.284,2.414c0,0.163,-0.018,0.305,-0.054,0.424c-0.036,0.12,-0.084,0.219,-0.144,0.296c-0.06,0.078,-0.131,0.136,-0.212,0.174c-0.081,0.038,-0.167,0.057,-0.257,0.057c-0.092,0,-0.179,-0.019,-0.26,-0.057c-0.081,-0.038,-0.152,-0.096,-0.212,-0.174c-0.06,-0.078,-0.108,-0.177,-0.143,-0.296c-0.035,-0.12,-0.052,-0.261,-0.052,-0.424c0,-0.165,0.017,-0.307,0.052,-0.427c0.035,-0.12,0.083,-0.219,0.143,-0.298c0.06,-0.079,0.131,-0.137,0.212,-0.175c0.081,-0.038,0.168,-0.057,0.26,-0.057c0.091,0,0.176,0.019,0.257,0.057c0.081,0.038,0.152,0.097,0.212,0.175c0.06,0.079,0.108,0.178,0.144,0.298C9.266,2.106,9.284,2.249,9.284,2.414zM12.45,4.644c0,0.164,-0.018,0.305,-0.055,0.425s-0.086,0.219,-0.148,0.297c-0.062,0.078,-0.135,0.136,-0.218,0.174c-0.083,0.038,-0.171,0.057,-0.264,0.057c-0.095,0,-0.183,-0.019,-0.267,-0.057c-0.083,-0.038,-0.156,-0.096,-0.218,-0.174c-0.062,-0.078,-0.111,-0.177,-0.147,-0.297c-0.036,-0.12,-0.054,-0.262,-0.054,-0.425c0,-0.165,0.018,-0.308,0.054,-0.428c0.036,-0.12,0.085,-0.219,0.147,-0.299c0.062,-0.079,0.135,-0.138,0.218,-0.176c0.083,-0.038,0.172,-0.057,0.267,-0.057c0.093,0,0.181,0.019,0.264,0.057c0.083,0.038,0.156,0.097,0.218,0.176c0.062,0.079,0.111,0.179,0.148,0.299S12.45,4.479,12.45,4.644zM11.665,1.1l-2.97,4.85" fill="none" stroke="#383838" stroke-width="0.9" stroke-miterlimit="1"/>
    <rect x="0.5" y="8.5" width="15" height="7" fill="#FFFFFF" stroke="#0964B0" stroke-width="1" stroke-miterlimit="1"/>
  </g>
</svg>
