<?xml version="1.0" encoding="UTF-8"?>
<!DOCTYPE svg PUBLIC "-//W3C//DTD SVG 1.1//EN" "http://www.w3.org/Graphics/SVG/1.1/DTD/svg11.dtd">
<svg version="1.1" id="Layer_1" xmlns="http://www.w3.org/2000/svg" xmlns:xlink="http://www.w3.org/1999/xlink" x="0px" y="0px" width="16px" height="16px" viewBox="0 0 16 16" enable-background="new 0 0 16 16" xml:space="preserve">
  <g id="icon">
    <path d="M4.8,12.5H1.95C1.149,12.5,0.5,11.851,0.5,11.05V9M2.736,10.423M4.8,12.474M2.636,14.625M4.8,12.474M2.636,14.625L4.8,12.474l-2.064,-2.051" fill="none" stroke="#EE3D3B" stroke-width="1" stroke-miterlimit="1"/>
    <polygon points="0.5,2.5 0.5,8 5,8 5,5 10.5,5 10.5,2.5" fill="#FFFFFF" stroke-linejoin="miter"/>
    <polygon points="0,2 0,8 1,8 1,3 10,3 10,5 11,5 11,2" fill="#383838" stroke-linejoin="miter"/>
    <rect x="0.5" y="0.5" width="10" height="2" fill="#FFFFFF" stroke="#228BCB" stroke-width="1" stroke-miterlimit="1"/>
    <path d="M3.5,3v5M1,5.5h2.5" fill="#FFFFFF" stroke="#EE3D3B" stroke-width="1" stroke-miterlimit="1" opacity="0.8"/>
    <rect x="6.5" y="6.5" width="9" height="9" fill="#FFFFFF" stroke="#787979" stroke-width="1" stroke-miterlimit="1"/>
    <path d="M8,8.5h6M8,10.5h6M8,12.5h4" fill="none" stroke="#787979" stroke-width="1" stroke-miterlimit="1"/>
  </g>
</svg>
