<?xml version="1.0" encoding="UTF-8"?>
<!DOCTYPE svg PUBLIC "-//W3C//DTD SVG 1.1//EN" "http://www.w3.org/Graphics/SVG/1.1/DTD/svg11.dtd">
<svg version="1.1" id="Layer_1" xmlns="http://www.w3.org/2000/svg" xmlns:xlink="http://www.w3.org/1999/xlink" x="0px" y="0px" width="16px" height="16px" viewBox="0 0 16 16" enable-background="new 0 0 16 16" xml:space="preserve">
  <g id="icon">
    <path d="M6.5,15.5H0.5v-0.055C0.5,15.424,4.134,11.5,4.134,11.5S0.5,7.576,0.5,7.555V7.5h6" fill="none" stroke="#383838" stroke-width="1" stroke-miterlimit="1"/>
    <path d="M15.5,6.258v1.483c0,0.419,-0.34,0.758,-0.758,0.758H7.5V6H5.546c0.106,-0.291,0.384,-0.5,0.712,-0.5h8.483C15.16,5.5,15.5,5.84,15.5,6.258zM14.742,0.5H6.258C5.84,0.5,5.5,0.84,5.5,1.258v1.483C5.5,3.16,5.84,3.5,6.258,3.5h8.483c0.419,0,0.758,-0.34,0.758,-0.758V1.258C15.5,0.84,15.16,0.5,14.742,0.5z" fill="#FFFFFF"/>
    <path d="M14.742,0H6.258C5.565,0,5,0.565,5,1.258v1.483C5,3.435,5.565,4,6.258,4h8.483c0.694,0,1.258,-0.565,1.258,-1.258V1.258C16,0.565,15.435,0,14.742,0zM15,2.742c0,0.142,-0.116,0.258,-0.258,0.258H6.258C6.116,3,6,2.884,6,2.742V1.258c0,-0.142,0.116,-0.258,0.258,-0.258h8.483c0.142,0,0.258,0.116,0.258,0.258V2.742zM16,6.258v1.483c0,0.694,-0.565,1.258,-1.258,1.258H7.5V8h7.242c0.142,0,0.258,-0.116,0.258,-0.258V6.258c0,-0.142,-0.116,-0.258,-0.258,-0.258H7.5H6.258H5.027c0.12,-0.57,0.626,-1,1.231,-1h8.483C15.435,5,16,5.565,16,6.258z" fill="#228BCB"/>
  </g>
</svg>
