<?xml version="1.0" encoding="UTF-8"?>
<!DOCTYPE svg PUBLIC "-//W3C//DTD SVG 1.1//EN" "http://www.w3.org/Graphics/SVG/1.1/DTD/svg11.dtd">
<svg version="1.1" id="Layer_1" xmlns="http://www.w3.org/2000/svg" xmlns:xlink="http://www.w3.org/1999/xlink" x="0px" y="0px" width="16px" height="16px" viewBox="0 0 16 16" enable-background="new 0 0 16 16" xml:space="preserve">
  <g id="icon">
    <path d="M2.033,12.5h11.933c0.847,0,1.533,-0.686,1.533,-1.533V5.033c0,-0.847,-0.686,-1.533,-1.533,-1.533H2.033C1.186,3.5,0.5,4.186,0.5,5.033v5.933C0.5,11.814,1.186,12.5,2.033,12.5z" fill="#FFFFFF"/>
    <path d="M13.967,3.5H8v9h5.967c0.847,0,1.533,-0.686,1.533,-1.533V5.033C15.5,4.186,14.814,3.5,13.967,3.5z" fill="#92CBEE"/>
    <path d="M13.967,13H2.033C0.912,13,0,12.088,0,10.967V5.033C0,3.912,0.912,3,2.033,3h11.933C15.088,3,16,3.912,16,5.033v5.933C16,12.088,15.088,13,13.967,13zM2.033,4C1.464,4,1,4.464,1,5.033v5.933c0,0.57,0.464,1.033,1.033,1.033h11.933c0.57,0,1.033,-0.464,1.033,-1.033V5.033c0,-0.57,-0.464,-1.033,-1.033,-1.033H2.033z" fill="#0964B0"/>
  </g>
</svg>
