<?xml version="1.0" encoding="UTF-8"?>
<!DOCTYPE svg PUBLIC "-//W3C//DTD SVG 1.1//EN" "http://www.w3.org/Graphics/SVG/1.1/DTD/svg11.dtd">
<svg version="1.1" id="Layer_1" xmlns="http://www.w3.org/2000/svg" xmlns:xlink="http://www.w3.org/1999/xlink" x="0px" y="0px" width="16px" height="16px" viewBox="0 0 16 16" enable-background="new 0 0 16 16" xml:space="preserve">
  <g id="icon">
    <rect x="15" y="1" width="1" height="15" fill="#6E6F72"/>
    <rect x="12" y="1" width="1" height="15" fill="#6E6F72"/>
    <rect x="9" y="1" width="1" height="15" fill="#6E6F72"/>
    <rect x="6" y="7" width="1" height="9" fill="#6E6F72"/>
    <rect x="3" y="11" width="1" height="5" fill="#6E6F72"/>
    <rect x="3.55" y="12" width="11.95" height="1" fill="#6E6F72"/>
    <rect x="5.05" y="8" width="10.45" height="1" fill="#6E6F72"/>
    <rect x="8.05" y="4" width="7.45" height="1" fill="#6E6F72"/>
    <path d="M2,2C0.6729,2,0,2.5047,0,3.5c0,0.9953,0.7977,2.5,2,2.5s2,-1.5047,2,-2.5C4,2.5047,3.3271,2,2,2z" fill="#9070B1"/>
    <path d="M1.9986,9c-0.3859,0,-0.7494,-0.1446,-1.031,-0.4119C0.6704,8.3062,0.5,7.9096,0.5,7.5h1c0,0.1385,0.0554,0.2674,0.156,0.3628c0.1004,0.0953,0.2319,0.1445,0.3717,0.1365c0.2513,-0.0132,0.4584,-0.2203,0.4716,-0.4716c0.011,-0.2107,-0.1117,-0.4072,-0.3054,-0.4889C1.7724,6.8613,1.5,6.4578,1.5,6.0108V5.5h1v0.5108c0,0.053,0.0425,0.0897,0.0822,0.1064c0.5808,0.2448,0.9487,0.8326,0.9157,1.4627c-0.0396,0.7555,-0.6624,1.3783,-1.4179,1.4179C2.0528,8.9993,2.0256,9,1.9986,9z" fill="#9171B2"/>
    <rect x="1.5" width="1" height="2.5" fill="#9171B2"/>
  </g>
</svg>
