<?xml version="1.0" encoding="UTF-8"?>
<!DOCTYPE svg PUBLIC "-//W3C//DTD SVG 1.1//EN" "http://www.w3.org/Graphics/SVG/1.1/DTD/svg11.dtd">
<svg version="1.1" id="Layer_1" xmlns="http://www.w3.org/2000/svg" xmlns:xlink="http://www.w3.org/1999/xlink" x="0px" y="0px" width="16px" height="16px" viewBox="0 0 16 16" enable-background="new 0 0 16 16" xml:space="preserve">
  <g id="icon">
    <path d="M6.5543,8.8303L3.5943,3.1952L1.9661,7.6674l-0.9396,-0.3421l1.743,-4.7872c0.1186,-0.306,0.3952,-0.5148,0.7219,-0.5452c0.3271,-0.0295,0.6371,0.1241,0.81,0.4029l0.0169,0.0295l3.1199,5.9371L6.5543,8.8303z" fill="#6E6F72"/>
    <path d="M2.8101,12.1964c-0.2108,0,-0.5003,-0.079,-0.672,-0.2555c-0.4691,-0.482,-0.9107,-0.9926,-1.3125,-1.5175c-0.1335,-0.1744,-0.2058,-0.3929,-0.2639,-0.5686c-0.0215,-0.0649,-0.0418,-0.1263,-0.0616,-0.1741l-0.0114,-0.0275l0.0031,-0.0296c0.0878,-0.8313,0.2812,-1.3758,0.6465,-1.8203c0.188,-0.2287,0.5267,-0.3766,0.8631,-0.3766c0.1239,0,0.2386,0.0202,0.3407,0.06c0.427,0.1663,0.5114,0.5124,0.5068,0.9811l-0.0017,0.1463c-0.0082,0.6818,-0.016,1.3257,0.2705,1.9372c0.102,0.2179,0.1728,0.4519,0.2412,0.6783l0.0302,0.0996c0.0759,0.2482,0.054,0.4735,-0.0616,0.6341c-0.0734,0.1022,-0.2188,0.2255,-0.4941,0.233C2.8258,12.1963,2.818,12.1964,2.8101,12.1964L2.8101,12.1964z" fill="#FFFFFF" opacity="0.5"/>
    <path d="M2.8102,12.6964L2.8102,12.6964c-0.3068,0,-0.7386,-0.1068,-1.0305,-0.4067c-0.4827,-0.4959,-0.9373,-1.0216,-1.3512,-1.5624c-0.1847,-0.2414,-0.2753,-0.5154,-0.3415,-0.7155c-0.0179,-0.0541,-0.036,-0.1089,-0.0487,-0.1394l-0.0604,-0.1456l0.0167,-0.1565c0.0988,-0.9351,0.3252,-1.5587,0.7573,-2.0846c0.2834,-0.3449,0.7622,-0.5591,1.2494,-0.5591c0.186,0,0.3616,0.0316,0.522,0.0939c0.8366,0.3258,0.8286,1.1439,0.8255,1.452l-0.0017,0.1471c-0.0078,0.6505,-0.0146,1.2117,0.2233,1.7194c0.1175,0.2508,0.1969,0.5138,0.267,0.7458l0.0301,0.0991c0.1223,0.4,0.0748,0.7808,-0.1341,1.0712c-0.197,0.2741,-0.5119,0.4307,-0.8864,0.4408C2.8364,12.6962,2.8233,12.6964,2.8102,12.6964zM0.9991,9.5871c0.0124,0.0354,0.0245,0.0719,0.037,0.1095c0.0491,0.1485,0.1043,0.3154,0.1866,0.423c0.3899,0.5094,0.8185,1.0049,1.2737,1.4727c0.054,0.0555,0.2006,0.1042,0.3138,0.1042l0.0076,-0.0001c0.0609,-0.0017,0.0961,-0.0142,0.104,-0.025c0.009,-0.0125,0.0263,-0.0753,-0.0106,-0.1961l-0.0305,-0.1006c-0.0634,-0.2098,-0.1288,-0.4261,-0.2155,-0.6113c-0.335,-0.715,-0.3262,-1.447,-0.3176,-2.1548l0.0017,-0.1464c0.0042,-0.4345,-0.0807,-0.4676,-0.1883,-0.5095c-0.0441,-0.0171,-0.0978,-0.0259,-0.1593,-0.0259c-0.2083,0,-0.3976,0.0976,-0.4768,0.194C1.2384,8.4689,1.0793,8.9109,0.9991,9.5871z" fill="#6486C4"/>
    <path d="M14.5,12H5.5V8.5h6l0.0167,-4h2.5c0.2669,0,0.4833,0.2164,0.4833,0.4833V12z" fill="#FFFFFF" opacity="0.5"/>
    <path d="M6,12.4H5V9c0,-0.5514,0.4486,-1,1,-1h3.3836v1H6V12.4z" fill="#6E6F72"/>
    <path d="M15,12.2h-1V4.9938L11.5,5V4h2.5063c0.5479,0,0.9938,0.4458,0.9938,0.9938V12.2z" fill="#6E6F72"/>
    <path d="M6.25,15.5h7.5c0.9665,0,1.75,-0.7835,1.75,-1.75v0c0,-0.9665,-0.7835,-1.75,-1.75,-1.75h-7.5c-0.9665,0,-1.75,0.7835,-1.75,1.75v0C4.5,14.7165,5.2835,15.5,6.25,15.5z" fill="#FFFFFF" opacity="0.5"/>
    <path d="M13.75,16h-7.5C5.0093,16,4,14.9907,4,13.75S5.0093,11.5,6.25,11.5h7.5c1.2407,0,2.25,1.0093,2.25,2.25S14.9907,16,13.75,16zM6.25,12.5c-0.6893,0,-1.25,0.5607,-1.25,1.25S5.5607,15,6.25,15h7.5c0.6893,0,1.25,-0.5607,1.25,-1.25s-0.5607,-1.25,-1.25,-1.25H6.25z" fill="#6E6F72"/>
    <path d="M6.2444,13.0111c0.4111,0,0.7444,0.3333,0.7444,0.7444S6.6556,14.5,6.2444,14.5c-0.4111,0,-0.7444,-0.3333,-0.7444,-0.7444S5.8333,13.0111,6.2444,13.0111zM13,13.7556c0,0.4111,0.3333,0.7444,0.7444,0.7444s0.7444,-0.3333,0.7444,-0.7444s-0.3333,-0.7444,-0.7444,-0.7444S13,13.3444,13,13.7556zM10.5,13.7556c0,0.4111,0.3333,0.7444,0.7444,0.7444c0.4111,0,0.7444,-0.3333,0.7444,-0.7444s-0.3333,-0.7444,-0.7444,-0.7444C10.8333,13.0111,10.5,13.3444,10.5,13.7556zM8,13.7556c0,0.4111,0.3333,0.7444,0.7444,0.7444c0.4111,0,0.7444,-0.3333,0.7444,-0.7444s-0.3333,-0.7444,-0.7444,-0.7444C8.3333,13.0111,8,13.3444,8,13.7556z" fill="#6E6F72"/>
    <path d="M11.5,4.5v3.1125c0,0.4902,-0.3973,0.8875,-0.8875,0.8875H8.4l1.1,-4H11.5z" fill="#FFFFFF" opacity="0.5"/>
    <path d="M10.6125,9H8.4c-0.156,0,-0.3031,-0.0729,-0.3977,-0.1969s-0.1258,-0.2852,-0.0844,-0.4356l1.1,-4C9.0776,4.1504,9.2749,4,9.5,4h2c0.2761,0,0.5,0.2239,0.5,0.5v3.1125C12,8.3776,11.3776,9,10.6125,9zM9.0561,8h1.5564c0.2137,0,0.3875,-0.1738,0.3875,-0.3875V5H9.8811L9.0561,8z" fill="#6486C4"/>
  </g>
</svg>
