<?xml version="1.0" encoding="UTF-8"?>
<!DOCTYPE svg PUBLIC "-//W3C//DTD SVG 1.1//EN" "http://www.w3.org/Graphics/SVG/1.1/DTD/svg11.dtd">
<svg version="1.1" id="Layer_1" xmlns="http://www.w3.org/2000/svg" xmlns:xlink="http://www.w3.org/1999/xlink" x="0px" y="0px" width="16px" height="16px" viewBox="0 0 16 16" enable-background="new 0 0 16 16" xml:space="preserve">
  <g id="icon">
    <polyline points="3.5,4.4 3.5,1.5 4.5,1.5 4.5,3.75" fill="#6486C4" stroke-linejoin="miter"/>
    <polygon points="4,4.4 3,4.4 3,1 5,1 5,3.75 4,3.75" fill="#6486C4" stroke-linejoin="miter"/>
    <polygon points="8,1.7268 0.9731,7.2512 0.1696,6.2292 8,0.0732 15.8304,6.2292 15.0269,7.2512" fill="#6486C4" stroke-linejoin="miter"/>
    <path d="M8.0264,2.783L2,7.509V16h12V7.5104L8.0264,2.783zM7,12H4V8h3V12zM12,12H9V8h3V12z" fill="#6D6E71"/>
    <path d="M4,8h3v4H4V8zM9,8v4h3V8H9z" fill="#FFFFFF" opacity="0.5"/>
  </g>
</svg>
