<?xml version="1.0" encoding="UTF-8"?>
<!DOCTYPE svg PUBLIC "-//W3C//DTD SVG 1.1//EN" "http://www.w3.org/Graphics/SVG/1.1/DTD/svg11.dtd">
<svg version="1.1" id="Layer_1" xmlns="http://www.w3.org/2000/svg" xmlns:xlink="http://www.w3.org/1999/xlink" x="0px" y="0px" width="16px" height="16px" viewBox="0 0 16 16" enable-background="new 0 0 16 16" xml:space="preserve">
  <g id="icon">
    <path d="M0.825,8.8163C2.4,9.6426,4.0896,9.27,5.6111,9.0749c2.4479,-0.3139,4.8918,-0.6607,7.3343,-1.0153c0.4193,-0.0609,0.6902,0.0189,0.9212,0.4032c0.2437,0.4056,0.5467,0.7813,0.8669,1.1291c0.1178,0.1279,0.36,0.1849,0.543,0.1802c0.0729,-0.0019,0.2135,-0.2679,0.1973,-0.3975c-0.2058,-1.6414,-0.4313,-3.2804,-0.6635,-4.9183c-0.0183,-0.129,-0.0182,-0.5819,-0.281,-0.5413c-0.2628,0.0406,-0.4956,0.5669,-0.5582,0.8391c-0.2725,1.1845,-0.9863,1.6076,-2.1616,1.7258c-2.7312,0.2747,-5.6045,0.6559,-8.3156,1.0929C2.6643,7.7065,1.2567,8.2861,0.825,8.8163z" fill="#FFFFFF" opacity="0.5"/>
    <path d="M15.2548,10.2724c-0.284,0,-0.6566,-0.0891,-0.8893,-0.3418c-0.3882,-0.4217,-0.6917,-0.8176,-0.9276,-1.2103c-0.0974,-0.1621,-0.1381,-0.2071,-0.4208,-0.1659c-2.1814,0.3167,-4.7597,0.6852,-7.3425,1.0164c-0.1733,0.0222,-0.3489,0.0468,-0.5262,0.0716c-1.4155,0.1981,-3.0197,0.4226,-4.5558,-0.3833L0.0511,8.975l0.3862,-0.4743c0.5467,-0.6715,2.1024,-1.2805,2.977,-1.4215c2.7799,-0.448,5.6655,-0.8273,8.3451,-1.0968c1.0703,-0.1076,1.5215,-0.4583,1.7245,-1.3404c0.0025,-0.0111,0.2637,-1.1121,0.969,-1.2211c0.1873,-0.029,0.3709,0.0177,0.5166,0.1314c0.2792,0.2181,0.3134,0.5904,0.3317,0.7905c0.0016,0.0172,0.0027,0.0322,0.0043,0.0438c0.2809,1.9808,0.4858,3.5,0.6646,4.9257c0.036,0.2882,-0.1307,0.6018,-0.2516,0.7423c-0.15,0.1743,-0.3161,0.2144,-0.4291,0.2172C15.2779,10.2722,15.2664,10.2724,15.2548,10.2724zM13.1728,7.5412c0.3674,0,0.797,0.1226,1.1224,0.6641c0.1658,0.276,0.3748,0.5581,0.6353,0.8573c-0.1489,-1.1708,-0.318,-2.4255,-0.534,-3.9612c-0.4408,1.4749,-1.5787,1.7797,-2.537,1.8761c-2.6601,0.2675,-5.5254,0.6441,-8.286,1.0891c-0.5217,0.0841,-1.2125,0.3409,-1.7242,0.6134c1.0265,0.2707,2.1079,0.1195,3.1608,-0.0278c0.1812,-0.0253,0.3604,-0.0504,0.5375,-0.0731c2.5756,-0.3303,5.1487,-0.698,7.3261,-1.0142C12.9654,7.5514,13.0665,7.5412,13.1728,7.5412z" fill="#6E6F72"/>
    <path d="M7.4643,0.6269c0.0805,-0.2535,0.4861,-0.052,0.6098,-0.0111c1.5703,0.5203,3.1386,1.047,4.7004,1.5925c0.1232,0.0431,0.299,0.2873,0.2683,0.3535c-0.0772,0.166,-0.2359,0.3577,-0.4028,0.4063c-0.4539,0.1322,-0.9251,0.2365,-1.3968,0.2744c-0.4469,0.0359,-0.6388,0.2432,-0.7707,0.6458c-0.167,0.5099,-0.3347,1.0196,-0.5027,1.5292L8.055,5.5484c0.1647,-0.452,0.3303,-0.9017,0.4973,-1.3449C8.9691,3.0982,8.9075,2.2707,7.9677,1.5C7.7518,1.3229,7.3838,0.8804,7.4643,0.6269z" fill="#FFFFFF" opacity="0.5"/>
    <path d="M6.4249,10.2803c-0.2027,0.6232,-0.4004,1.2438,-0.5909,1.8575c-0.2491,0.8024,-0.3558,2.3209,-0.0728,2.9434c1.4404,-1.0434,1.8579,-2.7224,2.3596,-4.172c0.0879,-0.2539,0.1741,-0.5084,0.2613,-0.7626L6.4249,10.2803z" fill="#FFFFFF" opacity="0.5"/>
    <path d="M6.9368,0.4824c0.0576,-0.1811,0.1813,-0.325,0.3482,-0.4049c0.3207,-0.1535,0.671,-0.0177,0.8593,0.0552c0.0163,0.0063,0.0304,0.012,0.0417,0.0158c1.9142,0.6349,3.3778,1.1314,4.7453,1.6096c0.275,0.0962,0.4825,0.3862,0.5548,0.5577c0.0896,0.2122,0.0515,0.379,0.0038,0.4816c-0.122,0.2623,-0.3752,0.5784,-0.72,0.6787c-0.5546,0.1613,-1.0479,0.2576,-1.5081,0.2945c-0.192,0.0154,-0.2515,0.0321,-0.342,0.3083c-0.1087,0.3313,-0.3209,0.9229,-0.4356,1.2715c-0.3619,0.0395,-0.7268,0.0809,-1.0938,0.1239c0.1654,-0.5013,0.4257,-1.2389,0.5792,-1.707c0.1296,-0.3952,0.3963,-0.928,1.2124,-0.9934c0.3275,-0.0262,0.6802,-0.0894,1.0727,-0.1925c-1.1322,-0.3938,-2.3494,-0.8068,-3.8465,-1.3051c1.1479,1.0614,0.9124,2.2296,0.5686,3.1405c-0.1133,0.3002,-0.3265,0.8539,-0.4394,1.1602c-0.371,0.0458,-0.7436,0.0931,-1.1171,0.1422c0.173,-0.475,0.4469,-1.1942,0.621,-1.6555c0.3837,-1.0166,0.2691,-1.5826,-0.4379,-2.1627C7.5945,1.8935,6.7196,1.1657,6.9368,0.4824z" fill="#6E6F72"/>
    <path d="M7.8838,10.1016c-0.0614,0.1783,-0.1229,0.3566,-0.1847,0.5349c-0.0589,0.1701,-0.2167,0.5432,-0.275,0.7181c-0.3406,1.0205,-0.6903,2.0686,-1.4003,2.8754c-0.0177,-0.5865,0.0603,-1.3314,0.2194,-1.8435c0.2026,-0.652,0.5117,-1.5076,0.7256,-2.1628c-0.3549,0.0468,-0.7107,0.0933,-1.0668,0.1389c-0.0103,0.0013,-0.0208,0.0028,-0.0312,0.0042c-0.1642,0.5086,-0.4253,1.2169,-0.5826,1.7229c-0.2649,0.8522,-0.4128,2.5286,-0.0522,3.3225l0.253,0.5568l0.4954,-0.3586c1.4155,-1.0246,1.9323,-2.573,2.3882,-3.9393c0.0572,-0.1712,0.2137,-0.5408,0.2714,-0.7072c0.1171,-0.338,0.2335,-0.6761,0.349,-1.0136C8.6263,10.0009,8.2562,10.0514,7.8838,10.1016z" fill="#6E6F72"/>
  </g>
</svg>
