<?xml version="1.0" encoding="UTF-8"?>
<!DOCTYPE svg PUBLIC "-//W3C//DTD SVG 1.1//EN" "http://www.w3.org/Graphics/SVG/1.1/DTD/svg11.dtd">
<svg version="1.1" id="Layer_1" xmlns="http://www.w3.org/2000/svg" xmlns:xlink="http://www.w3.org/1999/xlink" x="0px" y="0px" width="16px" height="16px" viewBox="0 0 16 16" enable-background="new 0 0 16 16" xml:space="preserve">
  <g id="icon">
    <path d="M6.5521,0.3085C6.1276,-0.0212,5.6836,-0.0072,5.4658,0l-0.0177,0.0006L1.5476,0.0004L1.53,-0.0001C1.3167,-0.0069,0.8725,-0.0213,0.4479,0.3085c-0.2836,0.2203,-0.4407,0.54,-0.4312,0.8773c0.0278,0.9853,1.26,1.3595,1.3123,1.3749c0.1361,0.0401,0.5501,0.1622,0.6388,0.2517C1.9731,2.8179,2,2.858,2,3.1146v8.938c0,0.9914,0.2756,1.6161,0.4444,1.907l1.0707,2.0101l1.0579,-2.0295c-0.0018,0.0036,-0.0037,0.0074,-0.0056,0.0108c0.1616,-0.2834,0.4327,-0.9069,0.4327,-1.8984v-8.938c0,-0.2566,0.0269,-0.2968,0.0322,-0.3022c0.0886,-0.0895,0.5027,-0.2115,0.6388,-0.2517c0.0524,-0.0155,1.2844,-0.3901,1.3122,-1.3748C6.9928,0.8486,6.8357,0.5288,6.5521,0.3085z" fill="#6D6E71"/>
    <path d="M11,10.7894l3,2.0025v0.0242l-0.0753,0.1458c-0.0967,0.5429,-0.2625,0.8336,-0.3499,1.0046l-0.0061,0.012L12.515,16l-1.0791,-2.0262c-0.089,-0.1712,-0.2521,-0.4932,-0.3516,-0.9945L11,12.8161v-0.7335v-1.1914V10.7894zM11,9.5379l3,2.0025v-1.4511l-3,-2.0025V9.5379zM11,6.8352l3,2.0025V7.4867l-3,-2.0025V6.8352zM13,0v1.0013h-1V0H9v2.0946c0,0.4392,0.2466,0.8412,0.6378,1.0398L11,3.8259v0.2049v0.2018l3,2.0025v-0.2018V3.8259l1.3622,-0.6915c0.3912,-0.1986,0.6378,-0.6005,0.6378,-1.0397V0H13z" fill="#6D6E71"/>
    <path d="M14,7.4867l-3,-2.0025V4.2326l3,2.0025V7.4867zM14,8.8377l-3,-2.0025v1.2516l3,2.0025V8.8377zM14,11.5404l-3,-2.0025v1.2516l3,2.0025V11.5404z" fill="#FFFFFF" opacity="0.5"/>
  </g>
</svg>
