<?xml version="1.0" encoding="UTF-8"?>
<!DOCTYPE svg PUBLIC "-//W3C//DTD SVG 1.1//EN" "http://www.w3.org/Graphics/SVG/1.1/DTD/svg11.dtd">
<svg version="1.1" id="Layer_1" xmlns="http://www.w3.org/2000/svg" xmlns:xlink="http://www.w3.org/1999/xlink" x="0px" y="0px" width="16px" height="16px" viewBox="0 0 16 16" enable-background="new 0 0 16 16" xml:space="preserve">
  <g id="icon">
    <path d="M8,0.5c-3.5898,0,-6.5,0.6722,-6.5,1.5013c0,0.0269,0.0034,0.0536,0.0094,0.0801c0.0005,3.1202,0.0015,9.5767,0.0015,10.9593C1.511,16.3242,14.5001,16.3242,14.5,13.014c0,-1.486,0,-11.0127,0,-11.0127C14.5,1.1722,11.5898,0.5,8,0.5z" fill="#FFFFFF"/>
    <path d="M7.986,16c-3.2176,0,-6.975,-0.775,-6.9751,-2.9593c0,-1.3888,-0.001,-7.8983,-0.0016,-11.0021l1,-0.0002c0.0005,3.1038,0.0016,9.6134,0.0016,11.0022C2.0109,14.1394,4.6355,15,7.986,15c3.3723,0,6.014,-0.8724,6.014,-1.986V2.0013h1V13.014c0,0.6993,-0.4123,1.6726,-2.3763,2.3384C11.3919,15.77,9.7449,16,7.986,16z" fill="#6486C4"/>
    <path d="M8,4.0026c-0.7165,0,-7,-0.0562,-7,-2.0013C1,0.0562,7.2835,0,8,0s7,0.0562,7,2.0013C15,3.9464,8.7165,4.0026,8,4.0026zM2.0273,2.0013C2.3847,2.385,4.5339,3.0026,8,3.0026s5.6153,-0.6176,5.9727,-1.0013C13.6154,1.6176,11.4662,1,8,1S2.3846,1.6176,2.0273,2.0013z" fill="#6486C4"/>
    <path d="M4.1754,12.0095c-0.4189,0,-0.8214,-0.2329,-1.0624,-0.6193c-0.2009,-0.3222,-0.3264,-0.6867,-0.3533,-1.0265c-0.0485,-0.6143,-0.0855,-1.237,-0.1212,-1.8392c-0.0483,-0.813,-0.0983,-1.6538,-0.1768,-2.4744c-0.0068,-0.0707,-0.0125,-0.1421,-0.0183,-0.2139c-0.0573,-0.7146,-0.0918,-1.1458,-1.045,-1.3436l0.2031,-0.9792c1.687,0.35,1.7783,1.4891,1.8387,2.2428c0.0053,0.0667,0.0106,0.133,0.0169,0.1986c0.0802,0.8386,0.1308,1.6884,0.1796,2.5103c0.0355,0.5974,0.0722,1.2152,0.1199,1.8197c0.0143,0.1801,0.0889,0.3901,0.2049,0.576c0.0717,0.1148,0.1645,0.1525,0.2212,0.1483c0.0188,-0.0011,0.063,-0.0036,0.1022,-0.0864c0.2719,-0.5735,0.3972,-1.2309,0.4933,-1.802c0.0697,-0.4142,0.1077,-0.8288,0.1479,-1.2677c0.039,-0.4253,0.0793,-0.8651,0.1511,-1.3034c0.1155,-0.7046,0.4848,-1.0113,0.7743,-1.1445c0.3316,-0.1525,0.8962,-0.2313,1.7039,0.2593c0.2202,0.1337,0.3953,0.2978,0.5498,0.4425c0.0814,0.0763,0.1584,0.1483,0.2364,0.2116c0.3993,0.3232,0.6596,0.3102,0.9943,-0.0504c0.1907,-0.2053,0.3644,-0.421,0.5482,-0.6493l0.094,-0.1166c0.5604,-0.6932,1.3508,-1.1473,2.3492,-1.3496c0.4653,-0.0943,0.892,-0.2005,1.3439,-0.3129c0.2267,-0.0564,0.4612,-0.1147,0.7128,-0.1748l0.232,0.9727c-0.2483,0.0593,-0.4797,0.1168,-0.7034,0.1725c-0.4628,0.1152,-0.9,0.224,-1.3869,0.3226c-0.775,0.157,-1.3541,0.4835,-1.7701,0.9982l-0.0928,0.1151c-0.1866,0.2318,-0.3796,0.4714,-0.5943,0.7026c-0.6924,0.7454,-1.5511,0.799,-2.3563,0.1471c-0.1062,-0.0859,-0.2,-0.1739,-0.2908,-0.259c-0.1306,-0.1223,-0.2539,-0.2378,-0.3853,-0.3176c-0.3855,-0.2342,-0.6488,-0.2599,-0.7667,-0.2055c-0.132,0.0607,-0.1854,0.2753,-0.2055,0.3978c-0.0661,0.4032,-0.103,0.8062,-0.1421,1.233c-0.0401,0.438,-0.0816,0.891,-0.1576,1.3423c-0.1073,0.6374,-0.249,1.3751,-0.5757,2.0644c-0.1836,0.3875,-0.5381,0.6329,-0.9483,0.6565C4.2186,12.0089,4.1969,12.0095,4.1754,12.0095z" fill="#6486C4"/>
  </g>
</svg>
