<?xml version="1.0" encoding="UTF-8"?>
<!DOCTYPE svg PUBLIC "-//W3C//DTD SVG 1.1//EN" "http://www.w3.org/Graphics/SVG/1.1/DTD/svg11.dtd">
<svg version="1.1" id="Layer_1" xmlns="http://www.w3.org/2000/svg" xmlns:xlink="http://www.w3.org/1999/xlink" x="0px" y="0px" width="16px" height="16px" viewBox="0 0 16 16" enable-background="new 0 0 16 16" xml:space="preserve">
  <g id="icon">
    <path d="M14.5811,13.0192c-0.0634,0,-0.1232,-0.0208,-0.1685,-0.0585L8.0112,7.5776l-6.401,5.3828c-0.0449,0.0373,-0.1056,0.0587,-0.1696,0.0587c-0.0631,0,-0.1227,-0.0207,-0.1678,-0.0583l-0.0084,-0.007L0.1957,11.5897l-0.0137,-0.0143c-0.0384,-0.0405,-0.0596,-0.0924,-0.0596,-0.146c0,-0.0625,0.029,-0.1226,0.0796,-0.1648l7.719,-6.4286c0.0302,-0.0252,0.0625,-0.0305,0.0844,-0.0305c0.0218,0,0.0541,0.0053,0.0845,0.0306l7.7304,6.4285c0.0506,0.0421,0.0797,0.1022,0.0797,0.1648c0,0.0537,-0.0212,0.1056,-0.0596,0.146l-0.0136,0.0143l-1.0688,1.3641l-0.0085,0.007C14.7043,12.9984,14.6445,13.0192,14.5811,13.0192z" fill="#6486C4"/>
    <path d="M4,16H3v-3l1,-0.95V16zM13,13l-1,-0.95V16h1V13z" fill="#6E6F72"/>
    <path d="M5.6851,0.1063l0.9578,0.2875L5.0103,5.8336l-3.409,-1.3175l0.4709,1.0643l-0.9145,0.4047L-0.004,3.3597L2.6214,2.198l0.4047,0.9145l-1.0643,0.4709l2.4012,0.928L5.6851,0.1063zM13.3682,2.2333l-0.4047,0.9145l1.0398,0.4601l-2.3526,0.9092L10.3431,0.0593l-0.9596,0.2814l1.6137,5.501l3.3667,-1.3012l-0.4601,1.0398l0.9145,0.4047l1.1509,-2.6009L13.3682,2.2333z" fill="#CB525D"/>
  </g>
</svg>
