<?xml version="1.0" encoding="UTF-8"?>
<!DOCTYPE svg PUBLIC "-//W3C//DTD SVG 1.1//EN" "http://www.w3.org/Graphics/SVG/1.1/DTD/svg11.dtd">
<svg version="1.1" id="Layer_1" xmlns="http://www.w3.org/2000/svg" xmlns:xlink="http://www.w3.org/1999/xlink" x="0px" y="0px" width="16px" height="16px" viewBox="0 0 16 16" enable-background="new 0 0 16 16" xml:space="preserve">
  <g id="icon">
    <circle cx="11.5315" cy="4.4685" r="3.9685" fill="#FFFFFF" opacity="0.5"/>
    <path d="M11.5315,8.937c-2.4639,0,-4.4685,-2.0045,-4.4685,-4.4685C7.0631,2.0045,9.0676,0,11.5315,0S16,2.0045,16,4.4685C16,6.9324,13.9955,8.937,11.5315,8.937zM11.5315,1C9.619,1,8.0631,2.556,8.0631,4.4685c0,1.9125,1.556,3.4685,3.4685,3.4685S15,6.381,15,4.4685C15,2.556,13.444,1,11.5315,1z" fill="#6486C4"/>
    <circle cx="11.5315" cy="4.4685" r="0.9726" fill="#FFFFFF" opacity="0.5"/>
    <path d="M11.5315,5.9411c-0.812,0,-1.4726,-0.6606,-1.4726,-1.4726c0,-0.812,0.6606,-1.4726,1.4726,-1.4726c0.812,0,1.4726,0.6606,1.4726,1.4726C13.0041,5.2805,12.3435,5.9411,11.5315,5.9411zM11.5315,3.9959c-0.2606,0,-0.4726,0.212,-0.4726,0.4726c0,0.2605,0.212,0.4726,0.4726,0.4726c0.2605,0,0.4726,-0.212,0.4726,-0.4726C12.0041,4.2079,11.7921,3.9959,11.5315,3.9959z" fill="#6E6F72"/>
    <path d="M4.417,8.9109L2.226,6.7201c-0.242,-0.242,-0.242,-0.6343,0,-0.8763l0,0c0.242,-0.242,0.6343,-0.242,0.8763,0l2.1911,2.1911" fill="#FFFFFF" opacity="0.5"/>
    <path d="M4.0635,9.2645l-2.191,-2.1907c-0.4366,-0.4366,-0.4366,-1.1469,-0.0001,-1.5834c0.4366,-0.4365,1.1468,-0.4365,1.5833,0l2.1911,2.1911l-0.7071,0.7071L2.7486,6.1974c-0.0465,-0.0465,-0.1225,-0.0466,-0.1692,0c-0.0466,0.0466,-0.0466,0.1226,0.0001,0.1692l2.191,2.1907L4.0635,9.2645z" fill="#6E6F72"/>
    <path d="M8.7994,9.6278l-5.37,5.3696c-0.3239,0.3242,-0.7547,0.5027,-1.213,0.5027c-0.4584,0,-0.8894,-0.1786,-1.2138,-0.5031C0.6785,14.6731,0.5,14.2422,0.5,13.7838c0,-0.4584,0.1785,-0.8894,0.5028,-1.2136l5.3694,-5.3689" fill="#FFFFFF" opacity="0.5"/>
    <path d="M2.2165,16c-0.592,0,-1.1487,-0.2307,-1.5674,-0.6497C0.2306,14.9323,0,14.3759,0,13.7838s0.2306,-1.1486,0.6493,-1.5672l5.3694,-5.3688l0.707,0.7071l-5.3694,5.3689C1.1266,13.1535,1,13.459,1,13.7838c0,0.3248,0.1265,0.6299,0.356,0.8593c0.2301,0.2302,0.5356,0.3568,0.8604,0.3568c0.3247,0,0.6299,-0.1265,0.8593,-0.3561l5.3702,-5.3697l0.707,0.7071l-5.37,5.3695C3.3649,15.7694,2.8084,16,2.2165,16z" fill="#6E6F72"/>
    <path d="M11.5289,10.7216c-1.6014,0,-3.2028,-0.6095,-4.422,-1.8285c-2.438,-2.4383,-2.438,-6.4057,0,-8.8439l0.7071,0.707c-2.0481,2.0484,-2.0481,5.3814,0,7.4298c2.0484,2.048,5.3814,2.048,7.4298,0l0.707,0.7071C14.7317,10.1121,13.1303,10.7216,11.5289,10.7216z" fill="#6E6F72"/>
  </g>
</svg>
