<?xml version="1.0" encoding="UTF-8"?>
<!DOCTYPE svg PUBLIC "-//W3C//DTD SVG 1.1//EN" "http://www.w3.org/Graphics/SVG/1.1/DTD/svg11.dtd">
<svg version="1.1" id="Layer_1" xmlns="http://www.w3.org/2000/svg" xmlns:xlink="http://www.w3.org/1999/xlink" x="0px" y="0px" width="16px" height="16px" viewBox="0 0 16 16" enable-background="new 0 0 16 16" xml:space="preserve">
  <g id="icon">
    <path d="M12.8776,2.155c-0.4322,0,-0.8392,0.1094,-1.1974,0.3018c-0.4804,-1.1305,-1.5775,-1.9209,-2.8548,-1.9209c-1.5782,0,-2.8813,1.2065,-3.0855,2.7707c-0.3925,0.1078,-0.7383,0.3319,-1.0018,0.6336C4.9714,3.9143,5.2149,3.9,5.4708,3.9h0.0391c1.557,0,2.6976,0.4776,3.39,1.4196c0.5202,0.7078,0.6612,1.5131,0.6948,2.1554h3.2829c1.4298,0,2.5889,-1.1909,2.5889,-2.66C15.4665,3.346,14.3074,2.155,12.8776,2.155z" fill="#FFFFFF" opacity="0.5"/>
    <path d="M12.8835,1.6169c-0.3084,0,-0.6148,0.0469,-0.9106,0.1395l-0.0373,0.0116l-0.0206,-0.0333C11.2532,0.6648,10.0744,0,8.8388,0C7.1674,0,5.677,1.2096,5.295,2.8763l-0.0057,0.0247l-0.0232,0.0102c-0.5306,0.2344,-0.9622,0.6503,-1.2371,1.1563C4.4609,3.9569,4.9411,3.9,5.4708,3.9h0.0391c0.0539,0,0.1061,0.002,0.159,0.0031c0.0738,-0.0341,0.1507,-0.0629,0.2307,-0.0849c0.2074,-0.057,0.3596,-0.2323,0.3875,-0.4466c0.1711,-1.312,1.2682,-2.3013,2.5518,-2.3013c1.0224,0,1.9487,0.6254,2.3598,1.5933c0.0584,0.1376,0.1724,0.245,0.3129,0.2947c0.0569,0.0201,0.1163,0.0304,0.1767,0.0304c0.0873,0,0.1741,-0.0219,0.2512,-0.0633c0.2939,-0.158,0.6115,-0.2381,0.944,-0.2381c1.1313,0,2.0516,0.9516,2.0516,2.1212c0,1.1696,-0.9203,2.1212,-2.0516,2.1212H9.539c0.0533,0.3424,0.0655,0.6635,0.0655,0.9333c0,0.0458,-0.0025,0.0913,-0.0035,0.137h3.2824C14.6019,8,16,6.5683,16,4.8085C16,3.0487,14.6019,1.6169,12.8835,1.6169z" fill="#7B7B7B"/>
    <path d="M10.1982,15.3504c0.089,0,0.1593,-0.0708,0.1526,-0.1538l-0.0206,-0.2548c-0.0725,-0.8954,-0.5266,-2.5262,-2.7541,-3.3886c-0.5119,-0.2047,-0.7554,-0.6493,-0.5119,-0.9727c0.6087,-0.768,0.8511,-1.7547,0.8511,-2.6548c0,-1.3939,-0.4402,-2.2769,-2.4052,-2.2769h-0.0382c-1.9573,0,-2.3958,0.883,-2.3958,2.2769c0,0.9001,0.2415,1.8867,0.8478,2.6548c0.2425,0.3234,0,0.768,-0.5099,0.9727c-2.2188,0.8624,-2.6712,2.4933,-2.7434,3.3886L0.65,15.1966c-0.0067,0.083,0.0633,0.1538,0.152,0.1538H10.1982z" fill="#FFFFFF" opacity="0.5"/>
    <path d="M0.6866,15.993c-0.191,0,-0.3743,-0.0799,-0.5028,-0.2191c-0.1258,-0.1363,-0.1894,-0.32,-0.1747,-0.504l0.0211,-0.261c0.0837,-1.0389,0.603,-2.929,3.1401,-3.9164c0.1562,-0.0631,0.232,-0.144,0.2573,-0.1758l0.0271,-0.0341l-0.0263,-0.0346c-0.6032,-0.7922,-0.9354,-1.8523,-0.9354,-2.9849c0,-1.2261,0.3087,-2.856,2.9779,-2.856h0.0391c2.6779,0,2.9875,1.63,2.9875,2.856c0,1.1301,-0.3332,2.19,-0.9383,2.9845l-0.0267,0.0351l0.0279,0.0341c0.0326,0.0399,0.1095,0.1158,0.2586,0.1758c2.5457,0.9868,3.0668,2.8771,3.1508,3.9161l0.0211,0.2611c0.0149,0.1838,-0.0487,0.3675,-0.1745,0.5038c-0.1286,0.1394,-0.3122,0.2194,-0.5036,0.2194H0.6866zM5.4708,6.0539c-1.642,0,-1.931,0.5834,-1.931,1.8091c0,0.9272,0.2685,1.7779,0.756,2.3954l0.0072,0.0095c0.1918,0.2558,0.2501,0.5674,0.1637,0.8767c-0.1097,0.392,-0.4496,0.7361,-0.9092,0.9205c-1.8907,0.7349,-2.3525,2.0803,-2.4599,2.817l-0.0093,0.0639h8.8234l-0.0094,-0.064c-0.108,-0.7366,-0.5717,-2.0816,-2.4648,-2.8146c-0.4648,-0.1858,-0.8081,-0.5312,-0.9178,-0.9237c-0.0864,-0.3093,-0.0281,-0.6204,0.1642,-0.8758l0.0075,-0.0096c0.4894,-0.6176,0.7592,-1.4684,0.7592,-2.3952c0,-1.2258,-0.2904,-1.8091,-1.9406,-1.8091H5.4708z" fill="#6485C3"/>
  </g>
</svg>
