<?xml version="1.0" encoding="UTF-8"?>
<!DOCTYPE svg PUBLIC "-//W3C//DTD SVG 1.1//EN" "http://www.w3.org/Graphics/SVG/1.1/DTD/svg11.dtd">
<svg version="1.1" id="Layer_1" xmlns="http://www.w3.org/2000/svg" xmlns:xlink="http://www.w3.org/1999/xlink" x="0px" y="0px" width="16px" height="16px" viewBox="0 0 16 16" enable-background="new 0 0 16 16" xml:space="preserve">
  <g id="icon">
    <path d="M12.9868,8.3599l0.4872,1.0281l-0.2165,0.1025C12.5542,9.8239,11.675,10,10.7152,10c-0.4903,0,-0.9631,-0.0614,-1.4077,-0.1794c0.1131,-0.3586,0.1931,-0.7329,0.2418,-1.1155c0.3598,0.1022,0.7502,0.1572,1.1659,0.1572c0.7924,0,1.5031,-0.1382,2.0552,-0.3998L12.9868,8.3599zM16,4.3126c0,0.9138,-0.2553,1.7704,-0.7189,2.412c-0.4711,0.6519,-1.1132,1.0257,-1.7618,1.0257h-0.0484l-0.0477,-0.0082c-0.2454,-0.0421,-0.6919,-0.151,-0.925,-0.4067c-0.1197,-0.1313,-0.269,-0.3226,-0.3954,-0.5691c-0.5666,0.5708,-1.2344,0.881,-1.9118,0.881c-0.21,0,-0.4081,-0.0268,-0.5918,-0.0768c-0.0247,-0.6566,-0.1529,-1.5076,-0.6992,-2.2509c-0.146,-0.1986,-0.3131,-0.3753,-0.4986,-0.5325c0.432,-1.4802,1.8165,-2.5665,3.4542,-2.5665c0.597,0,0.9933,0.1007,1.2207,0.1852l0.6036,0.2246l-0.5442,2.3173c-0.0294,0.1392,-0.0751,0.2901,-0.1347,0.4442c-0.1049,0.5489,0.136,0.9424,0.3086,1.1438c0.0442,0.0189,0.1435,0.0517,0.2545,0.0751c0.5506,-0.0442,1.2983,-0.9224,1.2983,-2.2983c0,-2.0177,-1.231,-3.1749,-3.3774,-3.1749c-2.0574,0,-3.6535,1.2189,-4.1695,3.0368c-0.3378,-0.1186,-0.7116,-0.1977,-1.1185,-0.2394C6.8165,1.5845,8.8506,0,11.4849,0c1.3427,0,2.4761,0.4018,3.2774,1.1621C15.572,1.9302,16,3.0196,16,4.3126zM12.3329,3.3893c-0.1424,-0.0206,-0.3021,-0.031,-0.4775,-0.031c-1.3548,0,-2.457,1.0804,-2.457,2.4083c0,0.4792,0.2815,0.7431,0.7925,0.7431c0.7169,0,1.4164,-0.7428,1.7175,-1.4486l0.048,-0.212l0.0284,0.0057c0.0161,-0.0516,0.0292,-0.1017,0.0393,-0.1501L12.3329,3.3893z" fill="#7B7B7B"/>
    <path d="M10.1982,15.3504c0.089,0,0.1593,-0.0708,0.1526,-0.1538l-0.0206,-0.2548c-0.0725,-0.8954,-0.5266,-2.5262,-2.7541,-3.3886c-0.5119,-0.2047,-0.7554,-0.6493,-0.5119,-0.9727c0.6087,-0.768,0.8511,-1.7547,0.8511,-2.6548c0,-1.3939,-0.4402,-2.2769,-2.4052,-2.2769h-0.0382c-1.9573,0,-2.3958,0.883,-2.3958,2.2769c0,0.9001,0.2415,1.8867,0.8478,2.6548c0.2425,0.3234,0,0.768,-0.5099,0.9727c-2.2188,0.8624,-2.6712,2.4933,-2.7434,3.3886L0.65,15.1966c-0.0067,0.083,0.0633,0.1538,0.152,0.1538H10.1982z" fill="#FFFFFF" opacity="0.5"/>
    <path d="M0.6866,15.993c-0.191,0,-0.3743,-0.0799,-0.5028,-0.2191c-0.1258,-0.1363,-0.1894,-0.32,-0.1747,-0.504l0.0211,-0.261c0.0837,-1.0389,0.603,-2.929,3.1401,-3.9164c0.1562,-0.0631,0.232,-0.144,0.2573,-0.1758l0.0271,-0.0341l-0.0263,-0.0346c-0.6032,-0.7922,-0.9354,-1.8523,-0.9354,-2.9849c0,-1.2261,0.3087,-2.856,2.9779,-2.856h0.0391c2.6779,0,2.9875,1.63,2.9875,2.856c0,1.1301,-0.3332,2.19,-0.9383,2.9845l-0.0267,0.0351l0.0279,0.0341c0.0326,0.0399,0.1095,0.1158,0.2586,0.1758c2.5457,0.9868,3.0668,2.8771,3.1508,3.9161l0.0211,0.2611c0.0149,0.1838,-0.0487,0.3675,-0.1745,0.5038c-0.1286,0.1394,-0.3122,0.2194,-0.5036,0.2194H0.6866zM5.4708,6.0539c-1.642,0,-1.931,0.5834,-1.931,1.8091c0,0.9272,0.2685,1.7779,0.756,2.3954l0.0072,0.0095c0.1918,0.2558,0.2501,0.5674,0.1637,0.8767c-0.1097,0.392,-0.4496,0.7361,-0.9092,0.9205c-1.8907,0.7349,-2.3525,2.0803,-2.4599,2.817l-0.0093,0.0639h8.8234l-0.0094,-0.064c-0.108,-0.7366,-0.5717,-2.0816,-2.4648,-2.8146c-0.4648,-0.1858,-0.8081,-0.5312,-0.9178,-0.9237c-0.0864,-0.3093,-0.0281,-0.6204,0.1642,-0.8758l0.0075,-0.0096c0.4894,-0.6176,0.7592,-1.4684,0.7592,-2.3952c0,-1.2258,-0.2904,-1.8091,-1.9406,-1.8091H5.4708z" fill="#6485C3"/>
  </g>
</svg>
