<?xml version="1.0" encoding="UTF-8"?>
<!DOCTYPE svg PUBLIC "-//W3C//DTD SVG 1.1//EN" "http://www.w3.org/Graphics/SVG/1.1/DTD/svg11.dtd">
<svg version="1.1" id="Layer_1" xmlns="http://www.w3.org/2000/svg" xmlns:xlink="http://www.w3.org/1999/xlink" x="0px" y="0px" width="16px" height="16px" viewBox="0 0 16 16" enable-background="new 0 0 16 16" xml:space="preserve">
  <g id="icon">
    <path d="M15.4915,9.535v1.9565h-2.3259v-1.1958h-1.1982V9.0999h-0.8677c-0.0082,-0.177,-0.0249,-0.3439,-0.0486,-0.5025v-0.4538l-0.1325,-0.1355c-0.4713,-1.5187,-1.7456,-1.9919,-2.8009,-2.1083c-0.0617,-0.6809,-0.2573,-1.253,-0.5773,-1.7094c0.3914,-0.1184,0.6764,-0.4809,0.6764,-0.9102c0,-0.5253,-0.4267,-0.9512,-0.9531,-0.9512c-0.5053,0,-0.9176,0.3927,-0.95,0.8889c-0.4545,-0.1917,-0.9895,-0.2984,-1.6005,-0.3152C5.255,1.3721,6.812,0.3166,8.5817,0.5375c1.6314,0.2036,2.9309,1.5093,3.1154,3.1397c0.0719,0.6353,-0.024,1.2419,-0.2486,1.7821c1.0163,1.0109,3.9763,3.9139,3.9763,3.9139C15.4676,9.4163,15.4915,9.4744,15.4915,9.535z" fill="#FFFFFF" opacity="0.5"/>
    <path d="M8.7252,3.2802c0,0.6167,-0.3856,1.1442,-0.9281,1.3576c-0.1756,-0.3797,-0.4173,-0.7003,-0.7225,-0.9585c0.0576,0.0272,0.1212,0.0436,0.189,0.0436c0.2451,0,0.4445,-0.1986,0.4445,-0.4427c0,-0.2441,-0.1994,-0.4426,-0.4445,-0.4426c-0.2452,0,-0.4446,0.1986,-0.4446,0.4426c0,0.1064,0.0395,0.2029,0.1025,0.2793c-0.3106,-0.2271,-0.6778,-0.3977,-1.0998,-0.5081c0.1105,-0.6963,0.7141,-1.231,1.4419,-1.231C8.0695,1.8205,8.7252,2.4753,8.7252,3.2802zM15.785,9.0142l-0.0194,-0.019c-0.2687,-0.2636,-2.6364,-2.5866,-3.728,-3.6677c0.1727,-0.5451,0.2297,-1.1345,0.1648,-1.7075C11.9933,1.7726,10.497,0.264,8.6446,0.0329C8.4696,0.0111,8.2923,0,8.1176,0c-1.0788,0,-2.098,0.4107,-2.8698,1.1564c-0.5094,0.4921,-0.8736,1.0958,-1.0725,1.7536C4.2908,2.9033,4.4027,2.9,4.5085,2.9h0.0313c0.2461,0,0.48,0.0146,0.7025,0.0423c0.1589,-0.3919,0.3984,-0.7515,0.712,-1.0545c0.5812,-0.5615,1.3499,-0.8707,2.1644,-0.8707c0.1326,0,0.2671,0.0084,0.3999,0.025c1.392,0.1737,2.5162,1.3059,2.6731,2.6922c0.0601,0.5307,-0.0115,1.0453,-0.2128,1.5296l-0.131,0.3151l0.242,0.2407c0.895,0.8903,3.3531,3.3025,3.893,3.8323v1.3308h-1.3089V9.7871h-1.1982V8.5914h-0.9163v-0.655L10.557,6.9108l-0.13,0.1378c0.4089,0.5221,0.6792,1.2656,0.6792,2.3199c0,0.0803,-0.002,0.1602,-0.0053,0.2399h0.3578v1.1958h1.1982V12H16V9.535C16,9.3388,15.9239,9.1541,15.785,9.0142z" fill="#EEAC55"/>
    <path d="M3.5969,15.5302c-0.074,0,-0.1323,-0.0588,-0.1268,-0.1278l0.0171,-0.2117c0.0602,-0.7439,0.4375,-2.0988,2.2882,-2.8153c0.4253,-0.1701,0.6276,-0.5395,0.4253,-0.8082c-0.5057,-0.6381,-0.7071,-1.4578,-0.7071,-2.2057c0,-1.1581,0.3657,-1.8917,1.9983,-1.8917h0.0317c1.6262,0,1.9905,0.7336,1.9905,1.8917c0,0.7478,-0.2006,1.5675,-0.7044,2.2057c-0.2015,0.2687,0,0.6381,0.4237,0.8082c1.8435,0.7165,2.2193,2.0714,2.2793,2.8153l0.0171,0.2117c0.0056,0.069,-0.0526,0.1278,-0.1263,0.1278H3.5969zM4.7645,11.4921c-0.3012,-0.6355,-0.4625,-1.3664,-0.4625,-2.1235c0,-1.9853,1.0577,-2.7425,2.2117,-2.9777c0.0001,-0.0097,0.0005,-0.0196,0.0005,-0.0293c0,-1.1581,-0.3643,-1.8917,-1.9905,-1.8917H4.492c-1.6326,0,-1.9983,0.7336,-1.9983,1.8917c0,0.7478,0.2014,1.5675,0.7071,2.2057c0.2023,0.2687,0,0.6381,-0.4253,0.8082c-1.8507,0.7165,-2.228,2.0715,-2.2882,2.8153l-0.0171,0.2117c-0.0056,0.069,0.0528,0.1278,0.1268,0.1278h2.7896C3.7288,12.1509,4.1769,11.7925,4.7645,11.4921z" fill="#FFFFFF" opacity="0.5"/>
    <path d="M3.6233,16c-0.1843,0,-0.3612,-0.0771,-0.4853,-0.2116c-0.1218,-0.132,-0.1834,-0.3099,-0.169,-0.4881l0.0169,-0.2094c0.0695,-0.8592,0.4993,-2.4219,2.597,-3.2351c0.059,-0.0238,0.0997,-0.0507,0.1262,-0.0726c-0.478,-0.6509,-0.7406,-1.5057,-0.7406,-2.4146c0,-1.0309,0.2599,-2.4015,2.5069,-2.4015h0.0314c2.2402,0,2.4992,1.3706,2.4992,2.4015c0,0.9108,-0.2619,1.7659,-0.7384,2.4151c0.0258,0.0213,0.0662,0.0483,0.1253,0.0722c2.0904,0.8135,2.5188,2.3761,2.588,3.2351l0.0169,0.2094c0.0144,0.1783,-0.0473,0.3562,-0.1691,0.4882c-0.1239,0.1343,-0.3006,0.2114,-0.4847,0.2114H3.6233zM10.8928,14.9388c-0.1031,-0.5796,-0.4898,-1.5519,-1.887,-2.095c-0.4058,-0.1628,-0.7028,-0.4661,-0.8001,-0.8134c-0.0789,-0.2821,-0.0257,-0.5661,0.1496,-0.7999l0.0067,-0.0087c0.3761,-0.4764,0.583,-1.1344,0.583,-1.8532c0,-0.9452,-0.1998,-1.3403,-1.438,-1.3403h-0.0314c-1.2449,0,-1.4458,0.3951,-1.4458,1.3403c0,0.7185,0.2078,1.3765,0.5853,1.8527l0.0069,0.0089c0.176,0.2337,0.2292,0.5175,0.1503,0.7996c-0.0972,0.3478,-0.397,0.6522,-0.8021,0.8141c-1.4037,0.5434,-1.7922,1.5156,-1.8958,2.095H10.8928zM3.9969,11.9718H1.1074c0.1036,-0.5794,0.492,-1.5516,1.8958,-2.095c0.4051,-0.1619,0.7049,-0.4662,0.8021,-0.8141c0.0789,-0.2821,0.0257,-0.5658,-0.1503,-0.7996l-0.0069,-0.0089c-0.3774,-0.4763,-0.5853,-1.1342,-0.5853,-1.8527c0,-0.9452,0.2009,-1.3403,1.4458,-1.3403h0.0314c1.2382,0,1.438,0.3951,1.438,1.3403c0,0.0477,-0.0018,0.0959,-0.0038,0.1442c0.3404,-0.1299,0.7046,-0.1988,1.0643,-0.2279C7.0237,5.298,6.72,4,4.5399,4h-0.0314c-2.2471,0,-2.5069,1.3706,-2.5069,2.4015c0,0.9089,0.2626,1.7637,0.7406,2.4146c-0.0265,0.0219,-0.0672,0.0488,-0.1262,0.0726C0.5183,9.7019,0.0885,11.2646,0.019,12.1238l-0.0169,0.2094c-0.0145,0.1782,0.0471,0.3561,0.169,0.4881c0.124,0.1345,0.3009,0.2116,0.4853,0.2116h2.3415C3.2393,12.6643,3.5636,12.3005,3.9969,11.9718z" fill="#6485C3"/>
  </g>
</svg>
