<?xml version="1.0" encoding="UTF-8"?>
<!DOCTYPE svg PUBLIC "-//W3C//DTD SVG 1.1//EN" "http://www.w3.org/Graphics/SVG/1.1/DTD/svg11.dtd">
<svg version="1.1" id="Layer_1" xmlns="http://www.w3.org/2000/svg" xmlns:xlink="http://www.w3.org/1999/xlink" x="0px" y="0px" width="16px" height="16px" viewBox="0 0 16 16" enable-background="new 0 0 16 16" xml:space="preserve">
  <g id="icon">
    <path d="M11.5,0.519c-2.0866,0,-3.7972,1.6109,-3.9672,3.6609c0.3244,0.4581,0.5227,1.0337,0.5848,1.7198c1.3218,0.1458,2.9886,0.8495,2.9886,3.4688c0,0.3848,-0.0397,0.7631,-0.1142,1.1283c0.306,0.4027,0.508,0.6673,0.508,0.6673s2.5531,-3.332,3.2723,-4.3705c0.4476,-0.6463,0.71,-1.4315,0.71,-2.2782C15.4822,2.3083,13.6993,0.519,11.5,0.519zM11.5,6.1643c-0.8967,0,-1.6237,-0.732,-1.6237,-1.6351s0.727,-1.6351,1.6237,-1.6351s1.6237,0.732,1.6237,1.6351S12.3967,6.1643,11.5,6.1643z" fill="#FFFFFF" opacity="0.5"/>
    <path d="M11.5,0C9.3024,0,7.4689,1.5893,7.0781,3.6824c0.5977,0.5074,0.9523,1.2539,1.0396,2.2174c0.0719,0.0079,0.1449,0.0179,0.2185,0.0293c-0.1963,-0.4417,-0.3006,-0.9202,-0.3006,-1.4136c0,-1.9175,1.5542,-3.4774,3.4645,-3.4774s3.4645,1.56,3.4645,3.4774c0,0.7134,-0.2135,1.3989,-0.6175,1.9822c-0.5346,0.7719,-2.1326,2.876,-2.8463,3.8119c-0.1159,-0.1524,-0.2554,-0.3362,-0.4098,-0.5398c-0.0331,0.4717,-0.1237,0.93,-0.2683,1.3603c0.1499,0.197,0.2474,0.3247,0.2663,0.3495l0.0728,0.0953c0.1494,0.1104,0.2875,0.2246,0.4146,0.3417l0.3347,-0.4368c0.263,-0.3433,2.5895,-3.3836,3.2866,-4.3902c0.5249,-0.758,0.8024,-1.6481,0.8024,-2.5742C16,2.0257,13.9813,0,11.5,0z" fill="#CB525D"/>
    <path d="M11.5,6.4191c1.0358,0,1.8786,-0.8478,1.8786,-1.8899S12.5358,2.6393,11.5,2.6393s-1.8786,0.8478,-1.8786,1.8899S10.4642,6.4191,11.5,6.4191zM11.5,3.3957c0.6197,0,1.1238,0.5085,1.1238,1.1335S12.1197,5.6628,11.5,5.6628s-1.1238,-0.5085,-1.1238,-1.1336S10.8803,3.3957,11.5,3.3957z" fill="#CB525D"/>
    <path d="M3.4425,15.9992c-0.0826,0,-0.1477,-0.0657,-0.1415,-0.1427l0.0191,-0.2364c0.0672,-0.8305,0.4885,-2.3433,2.5548,-3.1433c0.4749,-0.1899,0.7007,-0.6023,0.4749,-0.9023c-0.5647,-0.7125,-0.7895,-1.6277,-0.7895,-2.4626c0,-1.293,0.4083,-2.1121,2.2311,-2.1121h0.0354c1.8156,0,2.2224,0.819,2.2224,2.1121c0,0.8349,-0.224,1.7502,-0.7864,2.4626c-0.225,0.3,0,0.7125,0.473,0.9023c2.0582,0.8,2.4779,2.3128,2.5448,3.1433l0.019,0.2364c0.0062,0.077,-0.0587,0.1427,-0.141,0.1427H3.4425z" fill="#6485C3"/>
    <path d="M0.3203,12.6203c0.0672,-0.8305,0.4885,-2.3433,2.5548,-3.1433c0.4749,-0.1899,0.7007,-0.6023,0.4749,-0.9023c-0.5647,-0.7125,-0.7895,-1.6277,-0.7895,-2.4626C2.5605,4.819,2.9688,4,4.7916,4h0.0354c1.8156,0,2.2224,0.819,2.2224,2.1121c0,0.0369,-0.0009,0.0741,-0.0019,0.1112c-1.5538,0.217,-2.3122,1.1675,-2.3122,2.8886c0,0.9776,0.2568,1.8995,0.7296,2.6402c-0.8216,0.3357,-1.4162,0.7774,-1.8478,1.2473H0.4427c-0.0826,0,-0.1477,-0.0657,-0.1415,-0.1427L0.3203,12.6203z" fill="#6485C3"/>
  </g>
</svg>
