<?xml version="1.0" encoding="UTF-8"?>
<!DOCTYPE svg PUBLIC "-//W3C//DTD SVG 1.1//EN" "http://www.w3.org/Graphics/SVG/1.1/DTD/svg11.dtd">
<svg version="1.1" id="Layer_1" xmlns="http://www.w3.org/2000/svg" xmlns:xlink="http://www.w3.org/1999/xlink" x="0px" y="0px" width="16px" height="16px" viewBox="0 0 16 16" enable-background="new 0 0 16 16" xml:space="preserve">
  <g id="icon">
    <path d="M14.5,0.5H6.5c-0.55,0,-1,0.45,-1,1v2.4h0.0099c1.557,0,2.6976,0.4776,3.39,1.4196c0.6315,0.8593,0.7046,1.8631,0.7046,2.5434c0,0.5594,-0.0704,1.1119,-0.2054,1.637H14.5c0.55,0,1,-0.45,1,-1V1.5C15.5,0.95,15.05,0.5,14.5,0.5z" fill="#FFFFFF" opacity="0.5"/>
    <path d="M14.5,0H6.5c-0.8271,0,-1.5,0.6729,-1.5,1.5v2.4168C5.1528,3.9064,5.309,3.9,5.4708,3.9h0.0391c0.1686,0,0.3313,0.0067,0.4901,0.0179V1.5c0,-0.2757,0.2243,-0.5,0.5,-0.5h8c0.2757,0,0.5,0.2243,0.5,0.5v7c0,0.2757,-0.2243,0.5,-0.5,0.5H9.5051c-0.0597,0.3438,-0.1464,0.6786,-0.259,1H14.5c0.8271,0,1.5,-0.6729,1.5,-1.5V1.5C16,0.6729,15.3271,0,14.5,0z" fill="#6D6E71"/>
    <path d="M5,2v1.9168C5.1528,3.9064,5.309,3.9,5.4708,3.9h0.0391c0.4099,0,0.7901,0.034,1.1417,0.1H16V2H5z" fill="#6D6E71"/>
    <path d="M9.6041,7.8041C9.8956,8.0509,10.2705,8.2,10.6794,8.2c0.3666,0,0.715,-0.1176,1.0076,-0.3401l-0.5042,-0.6796c-0.146,0.111,-0.32,0.1697,-0.5033,0.1697c-0.4631,0,-0.8399,-0.3815,-0.8399,-0.8503c0,-0.4685,0.3767,-0.8497,0.8399,-0.8497c0.1833,0,0.3573,0.0587,0.5033,0.1697l0.5042,-0.6796C11.3945,4.9176,11.046,4.8,10.6794,4.8c-0.6636,0,-1.2368,0.3925,-1.5094,0.9592C9.5396,6.4796,9.6004,7.242,9.6041,7.8041z" fill="#CB525D"/>
    <path d="M12.3705,8.2c-0.3667,0,-0.715,-0.1176,-1.0076,-0.3401c-0.4202,-0.3193,-0.6712,-0.8279,-0.6712,-1.3602c0,-0.5398,0.2447,-1.0353,0.6712,-1.3595l0,0c0.2925,-0.2225,0.6409,-0.3401,1.0076,-0.3401c0.9261,0,1.6795,0.7625,1.6795,1.6997C14.05,7.4372,13.2966,8.2,12.3705,8.2zM12.3705,5.65c-0.1833,0,-0.3573,0.0587,-0.5032,0.1697l-0.0002,0.0001c-0.2134,0.1622,-0.3358,0.41,-0.3358,0.6798c0,0.2703,0.1224,0.5183,0.3358,0.6805c0.1461,0.1111,0.3201,0.1698,0.5034,0.1698c0.4631,0,0.8399,-0.3815,0.8399,-0.8503C13.2104,6.0312,12.8337,5.65,12.3705,5.65z" fill="#EEAC55"/>
    <path d="M10.1982,15.3504c0.089,0,0.1593,-0.0708,0.1526,-0.1538l-0.0206,-0.2548c-0.0725,-0.8954,-0.5266,-2.5262,-2.7541,-3.3886c-0.5119,-0.2047,-0.7554,-0.6493,-0.5119,-0.9727c0.6087,-0.768,0.8511,-1.7547,0.8511,-2.6548c0,-1.3939,-0.4402,-2.2769,-2.4052,-2.2769h-0.0382c-1.9573,0,-2.3958,0.883,-2.3958,2.2769c0,0.9001,0.2415,1.8867,0.8478,2.6548c0.2425,0.3234,0,0.768,-0.5099,0.9727c-2.2188,0.8624,-2.6712,2.4933,-2.7434,3.3886L0.65,15.1966c-0.0067,0.083,0.0633,0.1538,0.152,0.1538H10.1982z" fill="#FFFFFF" opacity="0.5"/>
    <path d="M0.6866,15.993c-0.191,0,-0.3743,-0.0799,-0.5028,-0.2191c-0.1258,-0.1363,-0.1894,-0.32,-0.1747,-0.504l0.0211,-0.261c0.0837,-1.0389,0.603,-2.929,3.1401,-3.9164c0.1562,-0.0631,0.232,-0.144,0.2573,-0.1758l0.0271,-0.0341l-0.0263,-0.0346c-0.6032,-0.7922,-0.9354,-1.8523,-0.9354,-2.9849c0,-1.2261,0.3087,-2.856,2.9779,-2.856h0.0391c2.6779,0,2.9875,1.63,2.9875,2.856c0,1.1301,-0.3332,2.19,-0.9383,2.9845l-0.0267,0.0351l0.0279,0.0341c0.0326,0.0399,0.1095,0.1158,0.2586,0.1758c2.5457,0.9868,3.0668,2.8771,3.1508,3.9161l0.0211,0.2611c0.0149,0.1838,-0.0487,0.3675,-0.1745,0.5038c-0.1286,0.1394,-0.3122,0.2194,-0.5036,0.2194H0.6866zM5.4708,6.0539c-1.642,0,-1.931,0.5834,-1.931,1.8091c0,0.9272,0.2685,1.7779,0.756,2.3954l0.0072,0.0095c0.1918,0.2558,0.2501,0.5674,0.1637,0.8767c-0.1097,0.392,-0.4496,0.7361,-0.9092,0.9205c-1.8907,0.7349,-2.3525,2.0803,-2.4599,2.817l-0.0093,0.0639h8.8234l-0.0094,-0.064c-0.108,-0.7366,-0.5717,-2.0816,-2.4648,-2.8146c-0.4648,-0.1858,-0.8081,-0.5312,-0.9178,-0.9237c-0.0864,-0.3093,-0.0281,-0.6204,0.1642,-0.8758l0.0075,-0.0096c0.4894,-0.6176,0.7592,-1.4684,0.7592,-2.3952c0,-1.2258,-0.2904,-1.8091,-1.9406,-1.8091H5.4708z" fill="#6485C3"/>
  </g>
</svg>
