<?xml version="1.0" encoding="UTF-8"?>
<!DOCTYPE svg PUBLIC "-//W3C//DTD SVG 1.1//EN" "http://www.w3.org/Graphics/SVG/1.1/DTD/svg11.dtd">
<svg version="1.1" id="Layer_1" xmlns="http://www.w3.org/2000/svg" xmlns:xlink="http://www.w3.org/1999/xlink" x="0px" y="0px" width="16px" height="16px" viewBox="0 0 16 16" enable-background="new 0 0 16 16" xml:space="preserve">
  <g id="icon">
    <path d="M15.4705,15.3228c-0.082,-1.1176,-0.428,-2.1241,-1.0284,-2.9917c-0.7233,-1.0453,-2.0204,-2.2206,-3.4375,-2.798c0,0,-0.6863,-0.3903,-0.9332,-0.5333c-0.6378,0.6824,-1.2933,0.9332,-2.0516,0.9332c-0.7626,0,-1.3743,-0.2433,-2.0146,-0.9332c-0.2407,0.1382,-0.9332,0.4666,-0.9332,0.4666c-3.4137,1.4048,-4.4221,4.4069,-4.5325,5.8559l-0.0109,0.1435H15.481L15.4705,15.3228z" fill="#FFFFFF" opacity="0.5"/>
    <path d="M11.1379,4.9661c0,2.101,-1.3961,4.4933,-3.1182,4.4933S4.9016,7.067,4.9016,4.9661S6.2976,1.734,8.0198,1.734S11.1379,2.8651,11.1379,4.9661z" fill="#FFFFFF" opacity="0.5"/>
    <path d="M15.9696,15.3096c-0.1189,-1.511,-0.864,-4.2631,-4.5184,-5.7186l-0.4466,-0.1245c0,1.2622,-2.1331,5.7019,-2.9997,5.7019c-0.8666,0,-2.933,-4.4353,-2.933,-5.7685l-0.4935,0.1911C0.9239,11.0464,0.1788,13.7986,0.06,15.3096l-0.0338,0.4301c-0.011,0.1401,0.1042,0.2596,0.2503,0.2596h15.4767c0.1461,0,0.2613,-0.1195,0.2503,-0.2596L15.9696,15.3096z" fill="#52B250"/>
    <path d="M7.9759,10.1998c-0.8022,0,-1.6941,-0.5074,-2.2814,-1.2955h-0.1525c-1.1586,-0.107,-1.8689,-0.4259,-2.3821,-0.7542c-0.0979,-0.0626,-0.1539,-0.1601,-0.1536,-0.2674c0.0003,-0.1079,0.0572,-0.2057,0.1561,-0.2683c0.2425,-0.1535,0.3838,-0.3006,0.5399,-0.5621c0.358,-0.5997,0.3769,-1.2356,0.3483,-1.7786c-0.0049,-0.0936,-0.0101,-0.1873,-0.0153,-0.281c-0.0281,-0.5075,-0.0572,-1.0324,-0.0453,-1.549c0.0125,-0.5408,0.135,-1.0666,0.3642,-1.5627C4.7508,1.0221,5.455,0.5683,6.3904,0.5683c0.0276,0,0.0556,0.0004,0.0837,0.0012c0,0,0.0001,0,0.0002,0c0.0809,0,0.1875,-0.0417,0.2771,-0.1063c0.3775,-0.2719,0.7947,-0.4246,1.2402,-0.4538c0.0862,-0.0057,0.1744,-0.0085,0.2624,-0.0085c1.1591,0,2.7115,0.5245,3.272,2.0028c0.3197,0.8429,0.3596,1.7019,0.3731,2.5095c0.0081,0.482,0.0324,1.1157,0.1499,1.7442c0.09,0.4814,0.2547,1.018,0.7945,1.3479c0.0985,0.0602,0.1556,0.1565,0.1565,0.2642c0.0009,0.1077,-0.057,0.2091,-0.155,0.2711c-0.5637,0.3568,-1.2432,0.6904,-2.1385,0.7636l-0.3481,0.0002C9.802,9.6567,8.8061,10.1998,7.9759,10.1998zM5.2417,4.3468c-0.0288,0.1796,-0.0434,0.3655,-0.0434,0.5529c0,1.7588,1.0819,4.3137,2.7774,4.3137c1.6586,0,2.677,-2.5124,2.677,-4.3137c0,-0.157,-0.01,-0.3127,-0.0297,-0.4628c-0.2003,-0.355,-1.1188,-0.42,-2.0072,-0.4828c-0.81,-0.0573,-1.6476,-0.1165,-2.1684,-0.3783c-0.0612,-0.0308,-0.1272,-0.0463,-0.1963,-0.0463c-0.1001,0,-0.2,0.0342,-0.2814,0.0965C5.6153,3.897,5.3835,4.1264,5.2417,4.3468z" fill="#52B250"/>
  </g>
</svg>
