<?xml version="1.0" encoding="UTF-8"?>
<!DOCTYPE svg PUBLIC "-//W3C//DTD SVG 1.1//EN" "http://www.w3.org/Graphics/SVG/1.1/DTD/svg11.dtd">
<svg version="1.1" id="Layer_1" xmlns="http://www.w3.org/2000/svg" xmlns:xlink="http://www.w3.org/1999/xlink" x="0px" y="0px" width="16px" height="16px" viewBox="0 0 16 16" enable-background="new 0 0 16 16" xml:space="preserve">
  <g id="icon">
    <path d="M6.5,0.5v1.5v1.9743c1.0583,0.1666,1.864,0.6162,2.3999,1.3453c0.6315,0.8593,0.7046,1.8631,0.7046,2.5434c0,0.9105,-0.1848,1.803,-0.5351,2.588c0.5773,0.3115,1.0432,0.6705,1.4211,1.049H15.5V0.5333L15.5,0.5H6.5z" fill="#FFFFFF" opacity="0.5"/>
    <path d="M6,0v2h1V1h8v10H9.9208c0.4102,0.3144,0.7422,0.6541,1.0121,1H16V0H6z" fill="#6D6E71"/>
    <rect x="5" y="2.5" width="3" height="1" fill="#B7B7B7"/>
    <path d="M9,2v3.4651c0.1142,0.1749,0.2073,0.3544,0.2828,0.5349H14V2H9zM13,5h-3V3h3V5z" fill="#6485C3"/>
    <path d="M13,9h-3v1h3V9z" fill="#7B7B7B"/>
    <path d="M11.1265,16c0.101,0,0.1806,-0.0766,0.173,-0.1665l-0.0234,-0.2758c-0.0822,-0.969,-0.597,-3.2341,-3.1225,-4.1675c-0.5804,-0.2215,-0.8565,-0.7028,-0.5804,-1.0528c0.6901,-0.8312,0.965,-1.8991,0.965,-2.8732C8.5382,5.9556,8.0391,5,5.8113,5h-0.0433c-2.2191,0,-2.7162,0.9556,-2.7162,2.4643c0,0.9742,0.2738,2.042,0.9612,2.8732c0.275,0.35,0,0.8313,-0.5781,1.0528c-2.5156,0.9334,-3.0285,3.1984,-3.1103,4.1675l-0.0233,0.2758C0.2937,15.9234,0.373,16,0.4736,16H11.1265z" fill="#6485C3"/>
  </g>
</svg>
