<?xml version="1.0" encoding="UTF-8"?>
<!DOCTYPE svg PUBLIC "-//W3C//DTD SVG 1.1//EN" "http://www.w3.org/Graphics/SVG/1.1/DTD/svg11.dtd">
<svg version="1.1" id="Layer_1" xmlns="http://www.w3.org/2000/svg" xmlns:xlink="http://www.w3.org/1999/xlink" x="0px" y="0px" width="16px" height="16px" viewBox="0 0 16 16" enable-background="new 0 0 16 16" xml:space="preserve">
  <g id="icon">
    <path d="M14.7305,6.0705c-0.0536,-0.1031,-0.1082,-0.2081,-0.163,-0.3148c-0.3431,-0.6683,-0.8086,-1.9658,-1.02,-3.087l-0.0391,-0.2072h1.8023c0.0293,0,0.053,-0.0039,0.0747,-0.0125c0.1031,-0.0404,0.1624,-0.1463,0.1445,-0.257c-0.0031,-0.0182,-0.323,-1.7562,-1.7208,-1.7562H8.1691l-0.0818,0.0046c-1.1888,0.0665,-1.957,0.8504,-1.957,1.9971c0,0.4505,0.1245,0.9696,0.3643,1.536c1.061,0.1659,1.8685,0.6157,2.4054,1.3461c0.6315,0.8593,0.7046,1.8631,0.7046,2.5434c0,0.9105,-0.1848,1.803,-0.5351,2.588c0.0685,0.037,0.1349,0.0749,0.2003,0.1131h4.5859c0.6729,0,1.674,-0.6163,1.674,-2.3143c0,-0.6423,-0.3683,-1.3507,-0.795,-2.1713L14.7305,6.0705z" fill="#FFFFFF" opacity="0.5"/>
    <path d="M15.153,5.8629c-0.054,-0.1034,-0.109,-0.2085,-0.1642,-0.3156c-0.3323,-0.6442,-0.6968,-1.6967,-0.9026,-2.5997h1.209c0.0876,0,0.1703,-0.015,0.2458,-0.0446c0.3102,-0.1212,0.4895,-0.4362,0.4359,-0.766C15.8799,1.5427,15.299,0,13.7959,0H8.4238c-0.0874,0,-0.1958,0,-0.3013,0.014C6.6461,0.0683,5.6546,1.0577,5.6546,2.4772c0,0.4747,0.1173,0.9667,0.2924,1.4375c0.3945,0.0246,0.7594,0.0826,1.0934,0.1748c-0.2917,-0.6098,-0.4478,-1.1639,-0.4478,-1.6123c0,-0.7538,0.4254,-1.3003,1.1415,-1.4727c0.0689,0.0786,0.146,0.1468,0.2159,0.2086c0.5394,0.4766,0.7095,1.1577,0.7158,1.1837c0.0677,0.3192,0.3513,0.5509,0.6744,0.5509h3.786c0.2112,1.0205,0.6293,2.2535,1.0283,3.0269c0.0565,0.1095,0.1126,0.2171,0.168,0.3229c0.3968,0.7597,0.7395,1.4157,0.7395,1.9387c0,1.3421,-0.7177,1.8293,-1.2001,1.8293H9.2232c-0.0475,0.1308,-0.0977,0.26,-0.1538,0.3856c0.3157,0.1704,0.5981,0.3549,0.8513,0.549h3.9412c0.8594,0,2.1381,-0.7361,2.1381,-2.7639C16,7.4844,15.6082,6.7343,15.153,5.8629zM9.5297,2.0131c-0.0743,-0.2291,-0.2436,-0.6608,-0.5654,-1.0785h4.8316c0.7135,0,1.0463,0.6781,1.1805,1.0785H9.5297z" fill="#EEAC55"/>
    <path d="M9.2,5.8164V5h3.5v1H9.2828C9.2571,5.9386,9.2298,5.8774,9.2,5.8164zM10,7v1h3.5V7H10z" fill="#6D6E71"/>
    <path d="M11.1265,16c0.101,0,0.1806,-0.0766,0.173,-0.1665l-0.0234,-0.2758c-0.0822,-0.969,-0.597,-3.2341,-3.1225,-4.1675c-0.5804,-0.2215,-0.8565,-0.7028,-0.5804,-1.0528c0.6901,-0.8312,0.965,-1.8991,0.965,-2.8732C8.5382,5.9556,8.0391,5,5.8113,5h-0.0433c-2.2191,0,-2.7162,0.9556,-2.7162,2.4643c0,0.9742,0.2738,2.042,0.9612,2.8732c0.275,0.35,0,0.8313,-0.5781,1.0528c-2.5156,0.9334,-3.0285,3.1984,-3.1103,4.1675l-0.0233,0.2758C0.2937,15.9234,0.373,16,0.4736,16H11.1265z" fill="#6485C3"/>
  </g>
</svg>
