<?xml version="1.0" encoding="UTF-8"?>
<!DOCTYPE svg PUBLIC "-//W3C//DTD SVG 1.1//EN" "http://www.w3.org/Graphics/SVG/1.1/DTD/svg11.dtd">
<svg version="1.1" id="Layer_1" xmlns="http://www.w3.org/2000/svg" xmlns:xlink="http://www.w3.org/1999/xlink" x="0px" y="0px" width="16px" height="16px" viewBox="0 0 16 16" enable-background="new 0 0 16 16" xml:space="preserve">
  <g id="icon">
    <path d="M8.5,0.5v4.3739c0.1463,0.135,0.2802,0.2829,0.3999,0.4457c0.6315,0.8593,0.7046,1.8631,0.7046,2.5434c0,0.9105,-0.1848,1.803,-0.5351,2.588c0.0297,0.016,0.0576,0.0327,0.0867,0.049H15.5V0.5H8.5z" fill="#FFFFFF" opacity="0.5"/>
    <path d="M14,2.5h-2V1.5h2V2.5z" fill="#6485C3"/>
    <path d="M13.4,7c0,0.7732,-0.6268,1.4,-1.4,1.4s-1.4,-0.6268,-1.4,-1.4s0.6268,-1.4,1.4,-1.4S13.4,6.2268,13.4,7z" fill="#6D6E71" opacity="0.5"/>
    <path d="M8,0v4.4979c0.3544,0.2161,0.6556,0.4894,0.8999,0.8217c0.0353,0.048,0.0682,0.0966,0.1001,0.1454V4h6v2v4H9.2461c-0.0537,0.1533,-0.1113,0.3046,-0.1767,0.451c0.3157,0.1704,0.5981,0.3549,0.8513,0.549H16V0H8zM15,3H9V1h6V3z" fill="#6D6E71"/>
    <path d="M11.1265,16c0.101,0,0.1806,-0.0766,0.173,-0.1665l-0.0234,-0.2758c-0.0822,-0.969,-0.597,-3.2341,-3.1225,-4.1675c-0.5804,-0.2215,-0.8565,-0.7028,-0.5804,-1.0528c0.6901,-0.8312,0.965,-1.8991,0.965,-2.8732C8.5382,5.9556,8.0391,5,5.8113,5h-0.0433c-2.2191,0,-2.7162,0.9556,-2.7162,2.4643c0,0.9742,0.2738,2.042,0.9612,2.8732c0.275,0.35,0,0.8313,-0.5781,1.0528c-2.5156,0.9334,-3.0285,3.1984,-3.1103,4.1675l-0.0233,0.2758C0.2937,15.9234,0.373,16,0.4736,16H11.1265z" fill="#6485C3"/>
  </g>
</svg>
