<?xml version="1.0" encoding="UTF-8"?>
<!DOCTYPE svg PUBLIC "-//W3C//DTD SVG 1.1//EN" "http://www.w3.org/Graphics/SVG/1.1/DTD/svg11.dtd">
<svg version="1.1" id="Layer_1" xmlns="http://www.w3.org/2000/svg" xmlns:xlink="http://www.w3.org/1999/xlink" x="0px" y="0px" width="16px" height="16px" viewBox="0 0 16 16" enable-background="new 0 0 16 16" xml:space="preserve">
  <g id="icon">
    <path d="M5.5,3v0.9h0.0099c1.557,0,2.6976,0.4776,3.39,1.4196c0.6315,0.8593,0.7046,1.8631,0.7046,2.5434c0,0.5594,-0.0704,1.1119,-0.2054,1.637H15.5V3H5.5z" fill="#FFFFFF" opacity="0.5"/>
    <path d="M16,3v7H9.2461c0.1125,-0.3214,0.1993,-0.6562,0.259,-1H15V3H16zM5.4708,3.9h0.0391c0.1686,0,0.3313,0.0067,0.4901,0.0179V3H5v0.9168C5.1528,3.9064,5.309,3.9,5.4708,3.9z" fill="#6D6E71"/>
    <rect x="5" width="11" height="3" fill="#52B250"/>
    <path d="M11.1265,16c0.101,0,0.1806,-0.0766,0.173,-0.1665l-0.0234,-0.2758c-0.0822,-0.969,-0.597,-3.2341,-3.1225,-4.1675c-0.5804,-0.2215,-0.8565,-0.7028,-0.5804,-1.0528c0.6901,-0.8312,0.965,-1.8991,0.965,-2.8732C8.5382,5.9556,8.0391,5,5.8113,5h-0.0433c-2.2191,0,-2.7162,0.9556,-2.7162,2.4643c0,0.9742,0.2738,2.042,0.9612,2.8732c0.275,0.35,0,0.8313,-0.5781,1.0528c-2.5156,0.9334,-3.0285,3.1984,-3.1103,4.1675l-0.0233,0.2758C0.2937,15.9234,0.373,16,0.4736,16H11.1265z" fill="#6485C3"/>
  </g>
</svg>
