<?xml version="1.0" encoding="UTF-8"?>
<!DOCTYPE svg PUBLIC "-//W3C//DTD SVG 1.1//EN" "http://www.w3.org/Graphics/SVG/1.1/DTD/svg11.dtd">
<svg version="1.1" id="Layer_1" xmlns="http://www.w3.org/2000/svg" xmlns:xlink="http://www.w3.org/1999/xlink" x="0px" y="0px" width="16px" height="16px" viewBox="0 0 16 16" enable-background="new 0 0 16 16" xml:space="preserve">
  <g id="icon">
    <path d="M3.7276,15.9761C1.6951,16.1054,0,14.4886,0,12.4833l0,-4.9401c0,-1.2756,1.0363,-2.449,2.3083,-2.5444C3.773,4.8891,5,6.0498,5,7.4917l0,4.2845c0,0.7688,-0.5618,1.444,-1.3257,1.5306C2.7696,13.4093,2,12.7012,2,11.8167V8h1l0,3.7971c0,0.24,0.1602,0.4609,0.3954,0.5089c0.3212,0.0655,0.6046,-0.1795,0.6046,-0.4893l0,-4.2845c0,-0.7688,-0.5618,-1.444,-1.3257,-1.5306C1.7696,5.899,1,6.6072,1,7.4917l0,4.9401c0,1.2756,1.0363,2.449,2.3083,2.5444C4.773,15.086,6,13.9253,6,12.4833V10h1v2.4205C7,14.2764,5.5798,15.8583,3.7276,15.9761z" fill="#6485C3"/>
    <path d="M2.5,0.5v3.2917c2.0402,0,3.7,1.6598,3.7,3.7V8.8h2v2.7h7.3V0.5H2.5z" fill="#FFFFFF" opacity="0.5"/>
    <path d="M2,0v3.8265c0.0723,-0.0101,0.1451,-0.0188,0.2186,-0.0243c0.0935,-0.007,0.1881,-0.0105,0.2814,-0.0105c0.1696,0,0.3363,0.0125,0.5,0.0347V1h12v10H8.2v1h7.8V0H2z" fill="#6D6E71"/>
    <polygon points="15.2043,0.3968 9,5.68 2.7957,0.3968 2.2043,1.2032 9,6.92 15.7957,1.2032" fill="#6D6E71" stroke-linejoin="miter"/>
  </g>
</svg>
