<?xml version="1.0" encoding="UTF-8"?>
<!DOCTYPE svg PUBLIC "-//W3C//DTD SVG 1.1//EN" "http://www.w3.org/Graphics/SVG/1.1/DTD/svg11.dtd">
<svg version="1.1" id="Layer_1" xmlns="http://www.w3.org/2000/svg" xmlns:xlink="http://www.w3.org/1999/xlink" x="0px" y="0px" width="16px" height="16px" viewBox="0 0 16 16" enable-background="new 0 0 16 16" xml:space="preserve">
  <g id="icon">
    <path d="M13,2.1128c-0.4266,0,-0.8284,0.1116,-1.182,0.3078C11.3438,1.2677,10.2608,0.4615,9,0.4615c-1.5543,0,-2.838,1.2248,-3.0441,2.8146C7.4998,3.845,8.6,5.29,8.6,6.9794v0.5591h4.4c1.4114,0,2.5556,-1.2146,2.5556,-2.7128C15.5556,3.3274,14.4114,2.1128,13,2.1128z" fill="#FFFFFF" opacity="0.5"/>
    <path d="M12.9508,1.611c-0.3101,0,-0.617,0.0495,-0.9136,0.147C11.3911,0.6715,10.2411,0,9.0164,0C7.3664,0,5.9156,1.2146,5.5479,2.8956c-0.1173,0.0521,-0.2296,0.1134,-0.3364,0.1825c0.4641,0.0788,0.9014,0.2331,1.2981,0.4496c0.0207,-0.0476,0.0352,-0.0987,0.042,-0.1523c0.1655,-1.2997,1.2251,-2.2797,2.4648,-2.2797c0.987,0,1.8815,0.6192,2.2789,1.5774c0.0584,0.1411,0.1729,0.2513,0.3142,0.3024c0.0576,0.0208,0.1177,0.0314,0.1788,0.0314c0.0883,0,0.1761,-0.0226,0.2538,-0.0654c0.2831,-0.1558,0.5888,-0.2349,0.9088,-0.2349c1.0908,0,1.9782,0.9415,1.9782,2.0988c0,1.1573,-0.8874,2.0988,-1.9782,2.0988H8.598c0.0005,0.0251,0.002,0.0499,0.002,0.0751V8h1.4h2.9508C14.6321,8,16,6.5669,16,4.8055C16,3.0441,14.6321,1.611,12.9508,1.611z" fill="#6485C3"/>
    <path d="M6.5,9V6.9794c0,-1.0505,-0.8785,-1.8734,-2,-1.8734s-2,0.8229,-2,1.8734V9H1.4V6.9794c0,-1.6334,1.3907,-2.9623,3.1,-2.9623S7.6,5.346,7.6,6.9794V9H6.5z" fill="#6D6E71"/>
    <rect x="1" y="10" width="7" height="5" fill="#FFFFFF" opacity="0.5"/>
    <path d="M0,9v7h9V9H0zM8,15H1v-5h7V15z" fill="#EEAC55"/>
    <rect x="4" y="12" width="1" height="2" fill="#EEAC55"/>
  </g>
</svg>
