<?xml version="1.0" encoding="UTF-8"?>
<!DOCTYPE svg PUBLIC "-//W3C//DTD SVG 1.1//EN" "http://www.w3.org/Graphics/SVG/1.1/DTD/svg11.dtd">
<svg version="1.1" id="Layer_1" xmlns="http://www.w3.org/2000/svg" xmlns:xlink="http://www.w3.org/1999/xlink" x="0px" y="0px" width="16px" height="16px" viewBox="0 0 16 16" enable-background="new 0 0 16 16" xml:space="preserve">
  <g id="icon">
    <polygon points="11.86,9 11.1474,11 4.8554,11 4.1595,9 0,9 0,16 16,16 16,9" fill="#EEAC55" stroke-linejoin="miter"/>
    <circle cx="8.0703" cy="4.5022" r="3.8163" fill="#FFFFFF" opacity="0.5"/>
    <path d="M8.0022,9c-1.2015,0,-2.3309,-0.4679,-3.1804,-1.3174c-0.8495,-0.8495,-1.3174,-1.979,-1.3174,-3.1804c0,-2.4801,2.0177,-4.4978,4.4978,-4.4978c1.2014,0,2.3309,0.4679,3.1804,1.3174C12.0321,2.1713,12.5,3.3008,12.5,4.5022C12.5,6.9823,10.4823,9,8.0022,9zM6.1826,7.2012c0.5364,0.3634,1.1637,0.5551,1.8196,0.5551c1.7943,0,3.2541,-1.4598,3.2541,-3.2541c0,-0.6558,-0.1917,-1.2832,-0.5551,-1.8196L6.1826,7.2012zM8.0022,1.2481c-1.7943,0,-3.2541,1.4598,-3.2541,3.2541c0,0.6558,0.1917,1.2832,0.5551,1.8196l4.5186,-4.5186C9.2854,1.4398,8.658,1.2481,8.0022,1.2481z" fill="#CB525D"/>
  </g>
</svg>
