<?xml version="1.0" encoding="UTF-8"?>
<!DOCTYPE svg PUBLIC "-//W3C//DTD SVG 1.1//EN" "http://www.w3.org/Graphics/SVG/1.1/DTD/svg11.dtd">
<svg version="1.1" id="Layer_1" xmlns="http://www.w3.org/2000/svg" xmlns:xlink="http://www.w3.org/1999/xlink" x="0px" y="0px" width="16px" height="16px" viewBox="0 0 16 16" enable-background="new 0 0 16 16" xml:space="preserve">
  <g id="icon">
    <polygon points="13.5,5.2172 13.5,8.2 11.1167,10.5 4.7667,10.5 2.5,8.2 2.5,5.2228 0.5,6.5 0.5,15.4892 15.5,15.4892 15.5,6.5" fill="#FFFFFF" stroke-linejoin="miter" opacity="0.5"/>
    <polygon points="13.5,4.6231 13.5,5.8112 15,6.7733 15,14.9892 1,14.9892 1,6.774 2.5,5.8161 2.5,4.6296 0,6.226 0,15.9892 16,15.9892 16,6.2267" fill="#6D6E71" stroke-linejoin="miter"/>
    <polygon points="11.1525,11 4.8475,11 0.2209,7.2148 0.7791,6.3852 5.1525,10 10.8475,10 15.2209,6.3852 15.7791,7.2148" fill="#6D6E71" stroke-linejoin="miter"/>
    <path d="M3.5,7.513V0.5h9v7.013L10.6949,9H5.3051L3.5,7.513z" fill="#FFFFFF" opacity="0.5"/>
    <path d="M3,7.1766V0h10v7.1766l-1,0.6727V1H4v6.8493L3,7.1766z" fill="#6D6E71"/>
    <path d="M11,4H5v1h6V4zM11,2H5v1h6V2zM11,6H5v1h6V6z" fill="#6485C3"/>
  </g>
</svg>
