<?xml version="1.0" encoding="UTF-8"?>
<!DOCTYPE svg PUBLIC "-//W3C//DTD SVG 1.1//EN" "http://www.w3.org/Graphics/SVG/1.1/DTD/svg11.dtd">
<svg version="1.1" id="Layer_1" xmlns="http://www.w3.org/2000/svg" xmlns:xlink="http://www.w3.org/1999/xlink" x="0px" y="0px" width="16px" height="16px" viewBox="0 0 16 16" enable-background="new 0 0 16 16" xml:space="preserve">
  <g id="icon">
    <path d="M3.5,0.5v1.6785C3.9357,2.0415,4.3657,2,4.7238,2c2.0324,0,3.2813,1.2307,3.5173,3.4655c0.4125,0.1666,0.7853,0.4116,1.0984,0.7272c0.6636,0.6688,1.0144,1.5896,1.0144,2.6629c0,0.5452,-0.0922,1.1081,-0.2625,1.6444H15.5V0.5H3.5z" fill="#FFFFFF" opacity="0.5"/>
    <path d="M3,0v2.3823c0.3319,-0.1688,0.6751,-0.2682,1,-0.3229V1h11v9h-4.7743c-0.0753,0.3422,-0.1835,0.6788,-0.32,1H16V0H3z" fill="#6D6E71"/>
    <path d="M14,4.5h-2V2h2V4.5z" fill="#CB525D"/>
    <path d="M8.1741,5H11v1H9.1294c-0.2653,-0.2238,-0.5642,-0.4036,-0.8882,-0.5345C8.2242,5.3049,8.2014,5.1501,8.1741,5zM10.2727,8H12V7H9.9274C10.0869,7.306,10.2025,7.6409,10.2727,8z" fill="#6D6E71"/>
    <path d="M7.8853,4H9V3H7.2575C7.5133,3.2781,7.7233,3.6124,7.8853,4z" fill="#B7B7B7"/>
    <path d="M2.6197,12.0553c0.4158,-0.3395,0.9964,-0.6522,1.781,-0.7559c-0.3972,-0.734,-0.6296,-1.6266,-0.6296,-2.4438c0,-0.9796,0.3159,-1.8158,0.9135,-2.4181c0.558,-0.5625,1.3308,-0.8743,2.1781,-0.8806c-0.1748,-0.8646,-0.6809,-1.4193,-2.096,-1.4193c-2.4582,0,-2.1738,1.6736,-2.1738,3.738C2.593,9.3851,1.5726,11.1925,2.6197,12.0553z" fill="#FFFFFF" opacity="0.5"/>
    <path d="M2.2248,12.4323c0.3793,-0.4245,1.0035,-0.9133,1.9482,-1.0953c-0.4821,-0.7661,-1.0527,-1.9891,-1.0313,-2.4143c0.1474,-0.0693,0.3135,-0.153,0.5004,-0.2372c0.0425,0.0404,0.086,0.0786,0.1303,0.1148c0.0029,-0.2385,0.0246,-0.4683,0.0648,-0.688c-0.4611,-0.4727,-0.7845,-1.3476,-0.7845,-2.559c0,-0.8155,1.7277,0.1433,2.2851,0.1433c0.9192,0,1.0664,-0.8872,1.0664,-0.2866c0,0.059,-0.0018,0.1199,-0.0046,0.1816c0.1596,-0.0231,0.3229,-0.0352,0.4892,-0.0352c0.1213,0,0.2408,0.0069,0.3587,0.0193C7.0301,3.5011,5.9286,3,4.7238,3c-1.2657,0,-2.434,0.5517,-2.5662,2.9014c-0.0513,1.958,0.0034,2.7963,0.2297,3.0737c-1.3081,0.3676,-2.2976,1.4811,-2.2976,2.4693c0,0.8819,0.7787,1.1677,1.9204,1.2545C2.0775,12.6066,2.1488,12.5173,2.2248,12.4323z" fill="#9070B1"/>
    <path d="M8.6326,11.9156c0,0.3261,-1.223,2.4868,-1.753,2.4868c-0.53,0,-1.753,-2.1199,-1.753,-2.4868c0,-0.0197,0.3048,-0.1971,0.4521,-0.2817c0.3916,0.4219,0.8436,0.6486,1.31,0.6486c0.4637,0,0.9133,-0.2242,1.3034,-0.6416C8.343,11.7284,8.6326,11.8983,8.6326,11.9156zM6.8886,12.0698c1.1814,0,2.1391,-1.7113,2.1391,-3.2142c0,-1.5029,-0.9577,-2.312,-2.1391,-2.312s-2.1391,0.8091,-2.1391,2.312C4.7495,10.3585,5.7073,12.0698,6.8886,12.0698z" fill="#FFFFFF" opacity="0.5"/>
    <path d="M11.7716,14.6791c0,1.3132,-2.446,1.3132,-4.8921,1.3132s-4.8921,0,-4.8921,-1.3132c0,-1.1478,0.9376,-2.7635,2.976,-2.7635c0.0959,0,0.0952,0.0017,0.1633,0.0053c0.0088,0.2985,0.7714,1.6792,1.3505,2.2418l0.127,-0.7536c-0.1419,-0.0728,-0.2548,-0.38,-0.2548,-0.5966v-0.0815h1.0599v0.0815c0,0.2325,-0.0904,0.5448,-0.2525,0.6115l0.1241,0.7354c0.5811,-0.5727,1.3473,-1.9792,1.3513,-2.2416c0.0372,-0.0014,-0.0037,-0.0022,0.0409,-0.0022C10.8748,11.9156,11.7716,13.5189,11.7716,14.6791zM5.1021,11.208c-0.425,-0.6759,-0.6787,-1.5553,-0.6787,-2.3524c0,-0.8039,0.2504,-1.4811,0.7242,-1.9587c0.4404,-0.4439,1.0587,-0.6883,1.741,-0.6883s1.3006,0.2444,1.741,0.6883c0.4738,0.4775,0.7242,1.1548,0.7242,1.9587c0,0.7971,-0.2537,1.6765,-0.6787,2.3524c-0.4852,0.7717,-1.1197,1.1968,-1.7866,1.1968S5.5873,11.9798,5.1021,11.208zM5.0757,8.8556c0,1.2961,0.8366,2.8793,1.813,2.8793s1.813,-1.5832,1.813,-2.8793c0,-0.1786,-0.0161,-0.3475,-0.0465,-0.5061c-0.1017,-0.1287,-0.306,-0.2653,-0.7156,-0.2653c-0.7746,0,-0.8561,0.3852,-1.6715,0.3852c-0.5796,0,-0.9529,-0.1266,-1.0619,-0.4349C5.121,8.2775,5.0757,8.553,5.0757,8.8556z" fill="#6485C3"/>
  </g>
</svg>
