<?xml version="1.0" encoding="UTF-8"?>
<!DOCTYPE svg PUBLIC "-//W3C//DTD SVG 1.1//EN" "http://www.w3.org/Graphics/SVG/1.1/DTD/svg11.dtd">
<svg version="1.1" id="Layer_1" xmlns="http://www.w3.org/2000/svg" xmlns:xlink="http://www.w3.org/1999/xlink" x="0px" y="0px" width="16px" height="16px" viewBox="0 0 16 16" enable-background="new 0 0 16 16" xml:space="preserve">
  <g id="icon">
    <path d="M1.5,15h1.5v1H1.5V15zM1,13h2v1H1V13zM0.5,11h2.5v1H0.5V11z" fill="#CB525D"/>
    <path d="M14.5,5h-1.5V4h1.5V5zM15,3h-2V2h2V3zM15.5,1h-2.5V0l2.5,0V1z" fill="#52B250"/>
    <path d="M11.5,0.5H0.5v8h11V0.5zM15.5,7.5v8H4.5v-5.5h8.5V7.5H15.5z" fill="#FFFFFF" opacity="0.5"/>
    <path d="M12,9H0V0h12V9zM1,8h10V1H1V8zM13,7v1h2v7H5v-5H4v6h12V7H13z" fill="#6D6E71"/>
    <path d="M10,4H8V2h2V4zM13,9v1h-1v1h2V9H13z" fill="#CB525D"/>
    <path d="M8,7H6V6h2V7zM5,7H2V6h3V7zM7,5H2V4h5V5zM12,14h-2v-1h2V14zM9,14H6v-1h3V14zM11,12H6v-1h5V12z" fill="#B7B7B7"/>
  </g>
</svg>
