<?xml version="1.0" encoding="UTF-8"?>
<!DOCTYPE svg PUBLIC "-//W3C//DTD SVG 1.1//EN" "http://www.w3.org/Graphics/SVG/1.1/DTD/svg11.dtd">
<svg version="1.1" id="Layer_1" xmlns="http://www.w3.org/2000/svg" xmlns:xlink="http://www.w3.org/1999/xlink" x="0px" y="0px" width="24px" height="24px" viewBox="0 0 24 24" enable-background="new 0 0 24 24" xml:space="preserve">
  <g id="icon">
    <path d="M7.5,9c-4.1355,0,-7.5,3.3645,-7.5,7.5s3.3645,7.5,7.5,7.5s7.5,-3.3645,7.5,-7.5S11.6355,9,7.5,9zM8.4848,15.921v1.2597H6.4213v1.2353c0,0.1918,-0.0195,0.3735,-0.0579,0.5402l-0.0931,0.4041h4.1062V20.62H4.3017v-1.163l0.3797,-0.1643c0.0183,-0.0079,0.0367,-0.0162,0.0551,-0.0248l0.0998,-0.0469l0.0516,-0.0973c0.0287,-0.0542,0.0631,-0.1057,0.1023,-0.1533c0.0499,-0.0605,0.0916,-0.1356,0.124,-0.2233c0.0216,-0.0591,0.0473,-0.1643,0.0473,-0.3312v-1.2353h-0.8599V15.921h0.8599v-1.3046c0,-0.3999,0.0594,-0.7783,0.1765,-1.1247c0.1234,-0.3646,0.3106,-0.6854,0.5563,-0.9536c0.2498,-0.2727,0.5611,-0.4864,0.9255,-0.6353c0.3538,-0.1446,0.7599,-0.2179,1.207,-0.2179c0.3437,0,0.6561,0.0421,0.9286,0.125c0.2751,0.0837,0.5211,0.1999,0.7312,0.3454c0.214,0.1482,0.3975,0.3262,0.5456,0.529c0.0845,0.1158,0.1622,0.2376,0.2317,0.3628l-1.1441,0.5375c-0.0329,-0.0542,-0.0681,-0.1071,-0.1051,-0.1578c-0.0657,-0.09,-0.146,-0.1673,-0.2455,-0.2361c-0.1021,-0.0708,-0.23,-0.1298,-0.3804,-0.1756c-0.1537,-0.0468,-0.3427,-0.0705,-0.5619,-0.0705c-0.2831,0,-0.5289,0.0417,-0.7306,0.1241c-0.1935,0.0791,-0.3481,0.1837,-0.4729,0.3198c-0.1291,0.1413,-0.2247,0.307,-0.2923,0.5068c-0.0729,0.2156,-0.1099,0.4581,-0.1099,0.7209v1.3046H8.4848z" fill="#EEAD56"/>
    <path d="M4.3017,20.62v-1.163l0.3797,-0.1643c0.0183,-0.0079,0.0367,-0.0162,0.0551,-0.0248l0.0998,-0.0469l0.0516,-0.0973c0.0287,-0.0542,0.0631,-0.1057,0.1023,-0.1533c0.0499,-0.0605,0.0916,-0.1356,0.124,-0.2233c0.0216,-0.0591,0.0473,-0.1643,0.0473,-0.3312v-1.2353h-0.8599V15.921h0.8599v-1.3046c0,-0.3999,0.0594,-0.7783,0.1765,-1.1247c0.1234,-0.3646,0.3106,-0.6854,0.5563,-0.9536c0.2498,-0.2727,0.5611,-0.4864,0.9255,-0.6353c0.3538,-0.1446,0.7599,-0.2179,1.207,-0.2179c0.3437,0,0.6561,0.0421,0.9286,0.125c0.2751,0.0837,0.5211,0.1999,0.7312,0.3454c0.214,0.1482,0.3975,0.3262,0.5456,0.529c0.0845,0.1158,0.1622,0.2376,0.2317,0.3628l-1.1441,0.5375c-0.0329,-0.0542,-0.0681,-0.1071,-0.1051,-0.1578c-0.0657,-0.09,-0.146,-0.1673,-0.2455,-0.2361c-0.1021,-0.0708,-0.23,-0.1298,-0.3804,-0.1756c-0.1537,-0.0468,-0.3427,-0.0705,-0.5619,-0.0705c-0.2831,0,-0.5289,0.0417,-0.7306,0.1241c-0.1935,0.0791,-0.3481,0.1837,-0.4729,0.3198c-0.1291,0.1413,-0.2247,0.307,-0.2923,0.5068c-0.0729,0.2156,-0.1099,0.4581,-0.1099,0.7209v1.3046h2.0635v1.2597H6.4213v1.2353c0,0.1918,-0.0195,0.3735,-0.0579,0.5402l-0.0931,0.4041h4.1062V20.62H4.3017z" fill="#FFFFFF" opacity="0.5"/>
    <path d="M16.3344,18.2135c0.086,-0.444,0.1387,-0.9005,0.1565,-1.3567l0,0c1.8313,-0.0903,3.5938,-0.5028,4.9626,-1.1616c0.6742,-0.3245,1.2282,-0.6934,1.6465,-1.0966v1.7164c-0.323,0.2126,-0.6801,0.4134,-1.0612,0.5968C20.4518,17.6755,18.4259,18.1378,16.3344,18.2135L16.3344,18.2135zM15.8996,13.2734c-0.1813,-0.4704,-0.403,-0.9271,-0.6588,-1.3575c0.195,0.0065,0.3557,0.0095,0.5058,0.0095c2.0681,0,4.1482,-0.4302,5.7069,-1.1803c0.6742,-0.3245,1.2282,-0.6934,1.6465,-1.0966v1.7164c-0.323,0.2126,-0.6801,0.4134,-1.0612,0.5968C20.3503,12.7743,18.1126,13.2524,15.8996,13.2734L15.8996,13.2734zM15.7445,8.2348c-3.1687,0,-5.8915,-0.8,-7.4705,-2.195V4.3946l0.1476,0.1521c0.6458,0.6679,0.8409,0.8696,1.8343,1.3309c1.3959,0.6481,3.3452,1.0051,5.4886,1.0051c4.6835,0,6.6451,-1.5445,7.3975,-2.4651l0,1.6434C21.5683,7.4424,18.872,8.2348,15.7445,8.2348z" fill="#FFFFFF" opacity="0.5"/>
    <path d="M15.7466,21.8255c-0.3096,0,-0.6373,-0.0109,-0.974,-0.0326c0.7846,-1.075,1.31,-2.2793,1.5618,-3.5794h0c2.0916,-0.0757,4.1174,-0.538,5.7044,-1.3019c0.3351,-0.1612,0.653,-0.3367,0.9449,-0.5217l0.1162,-0.0736v-1.6821l-0.4025,0.3099c-0.3506,0.2699,-0.7692,0.5227,-1.244,0.7511c-1.3689,0.6588,-3.1313,1.0713,-4.9626,1.1616c0.005,-0.125,0.0091,-0.2382,0.0091,-0.3567c0,-1.1074,-0.202,-2.1929,-0.6004,-3.2266l0,0c2.2131,-0.021,4.4508,-0.4992,6.1393,-1.3118c0.3351,-0.1612,0.653,-0.3368,0.9449,-0.5217l0.1162,-0.0736V9.6842l-0.4025,0.3099c-0.3506,0.2699,-0.7692,0.5227,-1.244,0.7511c-1.5587,0.7501,-3.6388,1.1803,-5.7069,1.1803c-0.15,0,-0.3107,-0.003,-0.5058,-0.0095C13.6216,9.1921,10.6555,7.5,7.5,7.5V4.386h0.012v-0.1422h0.0011l0.0329,-0.2116c0.1688,-1.0856,1.0182,-2.08,2.3917,-2.8C11.4535,0.4376,13.5295,0,15.7834,0c2.2395,0,4.3024,0.4377,5.8085,1.2326c1.3643,0.7199,2.2082,1.7141,2.3762,2.7995l0.031,0.2001l0.0005,0.0188L24,4.5004v13.1435c0,0.0992,-0.0077,0.2001,-0.0228,0.3001l-0.0013,0.01c-0.1108,1.006,-1.0066,1.9617,-2.5224,2.6911C19.8948,21.3953,17.8147,21.8255,15.7466,21.8255zM8.4,6.1455l0.0939,0.075c1.6015,1.2801,4.2442,2.0143,7.2506,2.0143c2.9797,0,5.6954,-0.7711,7.2644,-2.0628L23.1,6.097V4.5198l-0.4175,0.3767c-1.0042,0.9061,-3.0231,1.9862,-6.938,1.9862c-2.1435,0,-4.0927,-0.3569,-5.4886,-1.005c-0.7943,-0.3689,-1.0727,-0.5741,-1.4318,-0.9225L8.4,4.5438V6.1455z" fill="#EEAD56"/>
  </g>
</svg>
