<?xml version="1.0" encoding="UTF-8"?>
<!DOCTYPE svg PUBLIC "-//W3C//DTD SVG 1.1//EN" "http://www.w3.org/Graphics/SVG/1.1/DTD/svg11.dtd">
<svg version="1.1" id="Layer_1" xmlns="http://www.w3.org/2000/svg" xmlns:xlink="http://www.w3.org/1999/xlink" x="0px" y="0px" width="24px" height="24px" viewBox="0 0 24 24" enable-background="new 0 0 24 24" xml:space="preserve">
  <g id="icon">
    <path d="M1,6v16h22V6H1z" fill="#FFFFFF" opacity="0.4"/>
    <path d="M19,4h-2V0h2V4zM7,4H5V0h2V4z" fill="#7B7B7B"/>
    <polygon points="20,2 20,5 16,5 16,2 8,2 8,5 4,5 4,2 0,2 0,7 24,7 24,2" fill="#7B7B7B" stroke-linejoin="miter"/>
    <polygon points="22,7 22,21 2,21 2,7 0,7 0,23 24,23 24,7" fill="#7B7B7B" stroke-linejoin="miter"/>
    <path d="M12,19.3c-0.579,0,-1.05,-0.471,-1.05,-1.05S11.421,17.2,12,17.2s1.05,0.471,1.05,1.05S12.579,19.3,12,19.3zM11.1,16.4l0.0003,-0.9464c0.0112,-0.4046,0.1593,-0.7703,0.4402,-1.0841c0.1739,-0.194,0.3844,-0.3849,0.6254,-0.5672c0.1973,-0.1492,0.4181,-0.3122,0.6563,-0.4844c0.1792,-0.1294,0.3481,-0.2809,0.502,-0.4502c0.1313,-0.1447,0.244,-0.3204,0.3349,-0.5222c0.0769,-0.171,0.1158,-0.39,0.1158,-0.6508c0,-0.2034,-0.0367,-0.3722,-0.1122,-0.5162c-0.0861,-0.1645,-0.1962,-0.2995,-0.3367,-0.4126c-0.227,-0.1828,-0.5071,-0.3021,-0.8564,-0.3645c-0.0787,-0.0141,-0.1628,-0.0225,-0.2499,-0.025c-0.0317,-0.001,-0.0627,-0.0014,-0.0933,-0.0014c-0.204,0,-0.3903,0.021,-0.5537,0.0624c-0.1699,0.0431,-0.3262,0.1007,-0.4646,0.1714c-0.1457,0.0744,-0.278,0.1582,-0.3932,0.2491c-0.1153,0.0909,-0.4274,0.3863,-0.5549,0.5167l-0.1049,0.1072l-1.2869,-1.2586l0.1049,-0.1072c0.1232,-0.126,0.5075,-0.4982,0.7271,-0.6715c0.2077,-0.1637,0.4397,-0.3113,0.6895,-0.4388c0.2574,-0.1315,0.5402,-0.2368,0.8406,-0.3131c0.3075,-0.0779,0.6448,-0.1174,1.0025,-0.1174c0.0459,0,0.0922,0.0007,0.1389,0.002c0.1763,0.0052,0.3496,0.0229,0.5147,0.0524c0.6453,0.1152,1.2067,0.3624,1.6689,0.7347c0.332,0.2675,0.6018,0.5969,0.8019,0.979c0.2108,0.4024,0.3177,0.8571,0.3177,1.3516c0,0.5165,-0.0922,0.9838,-0.274,1.3888c-0.1686,0.3746,-0.3853,0.7091,-0.6441,0.9943c-0.2378,0.2618,-0.5004,0.497,-0.7806,0.6992c-0.2327,0.1683,-0.4369,0.319,-0.6244,0.4609c-0.126,0.0952,-0.2349,0.1902,-0.3237,0.2822l-0.028,0.0291V16.4H11.1z" fill="#CB525D"/>
  </g>
</svg>
