<?xml version="1.0" encoding="UTF-8"?>
<!DOCTYPE svg PUBLIC "-//W3C//DTD SVG 1.1//EN" "http://www.w3.org/Graphics/SVG/1.1/DTD/svg11.dtd">
<svg version="1.1" id="Layer_1" xmlns="http://www.w3.org/2000/svg" xmlns:xlink="http://www.w3.org/1999/xlink" x="0px" y="0px" width="24px" height="24px" viewBox="0 0 24 24" enable-background="new 0 0 24 24" xml:space="preserve">
  <g id="icon">
    <path d="M3,3H1V1h2V3zM3,7H1V5h2V7zM3,11H1V9h2V11zM3,15H1v-2h2V15zM3,19H1v-2h2V19zM13,5h-2V3h2V5zM13,9h-2V7h2V9zM13,17h-2v-2h2V17zM13,21h-2v-2h2V21zM23,7h-2V5h2V7zM23,11h-2V9h2V11zM23,15h-2v-2h2V15zM23,19h-2v-2h2V19zM7,1H5v2h2V1zM11,1H9v2h2V1zM15,1h-2v2h2V1zM19,1h-2v2h2V1zM5,11H3v2h2V11zM9,11H7v2h2V11zM13,11h-2v2h2V11zM17,11h-2v2h2V11zM21,11h-2v2h2V11zM23,1h-2v2h2V1zM3,23H1v-2h2V23zM7,21H5v2h2V21zM11,21H9v2h2V21zM15,21h-2v2h2V21zM19,21h-2v2h2V21zM23,21h-2v2h2V21z" fill="#7B7B7B"/>
  </g>
</svg>
