<?xml version="1.0" encoding="UTF-8"?>
<!DOCTYPE svg PUBLIC "-//W3C//DTD SVG 1.1//EN" "http://www.w3.org/Graphics/SVG/1.1/DTD/svg11.dtd">
<svg version="1.1" id="Layer_1" xmlns="http://www.w3.org/2000/svg" xmlns:xlink="http://www.w3.org/1999/xlink" x="0px" y="0px" width="24px" height="24px" viewBox="0 0 24 24" enable-background="new 0 0 24 24" xml:space="preserve">
  <g id="icon">
    <rect x="3.25" y="2.75" width="17.5" height="22.5" fill="#FFFFFF" opacity="0.5" transform="matrix(-1.83697e-16 1 -1 -1.83697e-16 26 2)"/>
    <path d="M0,24V4.5h24v19.5H0zM2,22h20V6H2V22z" fill="#7D7C7B"/>
    <rect width="24" height="6" fill="#6486C4"/>
    <path d="M15,10V9h6v1H15zM15,12v-1h6v1H15zM15,14v-1h6v1H15zM15,16v-1h6v1H15zM15,18v-1h6v1H15zM15,20v-1h6v1H15z" fill="#7D7C7B"/>
    <rect x="13" y="6" width="1" height="17.25" fill="#7D7C7B"/>
    <path d="M4,19.5V9h3.8677C9.8706,9,11.5,10.6294,11.5,12.6323v0.2354C11.5,14.8706,9.8706,16.5,7.8677,16.5H5.5v3H4zM5.5,15h2.3677C9.0435,15,10,14.0435,10,12.8677v-0.2354C10,11.4565,9.0435,10.5,7.8677,10.5H5.5V15z" fill="#54B14C"/>
  </g>
</svg>
