<?xml version="1.0" encoding="UTF-8"?>
<!DOCTYPE svg PUBLIC "-//W3C//DTD SVG 1.1//EN" "http://www.w3.org/Graphics/SVG/1.1/DTD/svg11.dtd">
<svg version="1.1" id="Layer_1" xmlns="http://www.w3.org/2000/svg" xmlns:xlink="http://www.w3.org/1999/xlink" x="0px" y="0px" width="24px" height="24px" viewBox="0 0 24 24" enable-background="new 0 0 24 24" xml:space="preserve">
  <g id="icon">
    <path d="M11.8987,23.2653c-1.9149,0,-3.359,-1.3534,-3.359,-3.1481h6.7628C15.3026,21.9119,13.8392,23.2653,11.8987,23.2653z" fill="#FFFFFF" opacity="0.5"/>
    <path d="M11.8987,24c-2.2197,0,-3.8936,-1.5833,-3.8936,-3.6829v-0.0449h1.5591v0.0449c0,1.3942,1.1744,2.1237,2.3345,2.1237c1.1824,0,2.3794,-0.7295,2.3794,-2.1237v-0.0449h1.559v0.0449C15.8372,22.4167,14.144,24,11.8987,24z" fill="#7D7C7B"/>
    <path d="M11.991,20.3265c-1.4279,0,-4.0639,-0.1478,-6.3393,-0.4303c-4.0067,-0.4974,-4.6979,-1.092,-4.8692,-1.4961c-0.0582,-0.1372,-0.1121,-0.4113,0.174,-0.7143c0.228,-0.2914,0.4807,-0.5925,0.748,-0.9112c1.4799,-1.7641,3.3218,-3.9596,3.3218,-7.2481c0,-2.7687,1.8305,-5.2098,4.5764,-6.1337c-0.0028,-0.0462,-0.0042,-0.0905,-0.0042,-0.1341c0,-1.3918,1.1043,-2.5241,2.4617,-2.5241c1.3574,0,2.4617,1.1323,2.4617,2.5241c0,0.0754,-0.0037,0.1519,-0.0113,0.2306c2.5842,0.9897,4.3064,3.3918,4.3064,6.0372c0,2.8235,2.7493,6.5207,4.203,8.0813c0.3018,0.324,0.2707,0.6092,0.1915,0.7914c-0.1061,0.2439,-0.4291,0.9863,-4.9003,1.5245C16.0124,20.2005,13.4235,20.3265,11.991,20.3265z" fill="#FFFFFF" opacity="0.5"/>
    <path d="M11.991,21.0612c-1.4505,0,-4.1248,-0.1497,-6.4298,-0.4359c-4.0588,-0.5039,-5.1161,-1.1393,-5.4551,-1.9383c-0.1009,-0.238,-0.2737,-0.8571,0.2908,-1.4781c0.2299,-0.2927,0.4792,-0.5898,0.7429,-0.9043c1.4054,-1.6752,3.1518,-3.7571,3.1518,-6.7781c0,-2.9096,1.7979,-5.5039,4.5941,-6.6502C9.0732,1.2512,10.439,0,12.0603,0c1.6873,0,3.0589,1.3069,3.1866,3.0029c2.6202,1.2077,4.3048,3.7523,4.3048,6.5237c0,2.4066,2.3956,5.8519,4.0058,7.5805c0.6259,0.6718,0.4376,1.3324,0.3276,1.5853c-0.3101,0.7127,-1.1894,1.4436,-5.4861,1.9608C16.0702,20.9335,13.4448,21.0612,11.991,21.0612zM2.2837,17.9915c0.5431,0.192,1.6414,0.4699,3.813,0.7251c2.1522,0.253,4.5944,0.3854,5.8944,0.3854c1.3165,0,3.7286,-0.1137,5.9135,-0.3635c2.1979,-0.2512,3.2904,-0.5353,3.8244,-0.7347c-1.9581,-2.2401,-4.1363,-5.7009,-4.1363,-8.4772c0,-2.1896,-1.4769,-4.1792,-3.6751,-4.9507l-0.7795,-0.2735l0.1381,-0.8145c0.0144,-0.0849,0.0214,-0.1599,0.0214,-0.2291c0,-0.7166,-0.5551,-1.2996,-1.2373,-1.2996c-0.6823,0,-1.2373,0.583,-1.2373,1.2996c0,0.049,0.0045,0.106,0.0141,0.1794l0.1078,0.8215l-0.7923,0.2425c-2.3338,0.7146,-3.9018,2.7337,-3.9018,5.0244c0,3.7341,-2.0854,6.22,-3.6082,8.0351C2.5173,17.711,2.3978,17.8536,2.2837,17.9915z" fill="#EEAD56"/>
    <path d="M11.9838,16.2719c-1.4483,0,-6.256,-0.3015,-8.4556,-1.2179l0.4789,-1.0563c1.8159,0.7424,6.046,1.1149,7.9767,1.1149c1.8744,0,6.2,-0.3329,8.0006,-1.0997l0.4988,1.0472C18.4048,15.9651,13.8091,16.2719,11.9838,16.2719z" fill="#EEAD56"/>
  </g>
</svg>
