<?xml version="1.0" encoding="UTF-8"?>
<!DOCTYPE svg PUBLIC "-//W3C//DTD SVG 1.1//EN" "http://www.w3.org/Graphics/SVG/1.1/DTD/svg11.dtd">
<svg version="1.1" id="Layer_1" xmlns="http://www.w3.org/2000/svg" xmlns:xlink="http://www.w3.org/1999/xlink" x="0px" y="0px" width="24px" height="24px" viewBox="0 0 24 24" enable-background="new 0 0 24 24" xml:space="preserve">
  <g id="icon">
    <path d="M15,17.2703c-1.7935,0,-3.5,-0.5649,-4.935,-1.6336l-0.2381,-0.1773L11.8,13.6l-0.8378,-4.5568H6.7297V9c0,-4.5602,3.71,-8.2703,8.2703,-8.2703s8.2703,3.71,8.2703,8.2703S19.5602,17.2703,15,17.2703z" fill="#FFFFFF" opacity="0.5"/>
    <polygon points="14.0473,9.7089 14.0473,2.9852 15.4933,2.9852 15.4933,9.0591 18.8293,12.0205 17.8693,13.1017" fill="#6484C3" stroke-linejoin="miter"/>
    <path d="M15,0c-4.9626,0,-9,4.0374,-9,9h1.9459c0,-3.8896,3.1644,-7.0541,7.0541,-7.0541S22.0541,5.1104,22.0541,9S18.8896,16.0541,15,16.0541c-1.4742,0,-2.8886,-0.4539,-4.0903,-1.3126l-0.159,-0.1135l-1.4681,1.3213l0.231,0.1782C11.1016,17.3525,12.9987,18,15,18c4.9626,0,9,-4.0374,9,-9C24,4.0374,19.9626,0,15,0z" fill="#6484C3"/>
    <path d="M0,24v-1.9241l4.1938,-5.1466L0.2213,11.6743V10h9.563c0.1649,0,0.3035,0.13,0.3155,0.296l0.0445,0.6171c0.003,0.0405,0.0135,0.1143,0.0303,0.2309c0.0396,0.2737,0.0994,0.6868,0.1589,1.4069l0.0417,0.503l-1.8163,0.1909l-0.0426,-0.5162c-0.0073,-0.0883,-0.0148,-0.1738,-0.0225,-0.2614c-0.0153,-0.1755,-0.0311,-0.3563,-0.0481,-0.5868l-0.0019,-0.0266H2.6626l3.894,5.1221l-4.2222,5.1701h6.4249l0.4871,-2.1041l1.7536,0.549l-0.7807,3.1668c-0.0354,0.1427,-0.1616,0.2421,-0.307,0.2421H0z" fill="#7B7B7B"/>
  </g>
</svg>
