<?xml version="1.0" encoding="UTF-8"?>
<!DOCTYPE svg PUBLIC "-//W3C//DTD SVG 1.1//EN" "http://www.w3.org/Graphics/SVG/1.1/DTD/svg11.dtd">
<svg version="1.1" id="Layer_1" xmlns="http://www.w3.org/2000/svg" xmlns:xlink="http://www.w3.org/1999/xlink" x="0px" y="0px" width="24px" height="24px" viewBox="0 0 24 24" enable-background="new 0 0 24 24" xml:space="preserve">
  <g id="icon">
    <path d="M15,18c-2.0143,0,-3.9214,-0.6554,-5.515,-1.8954l1.4743,-1.9667v0.112h7.6893v-1.5541h-5.2683l0.1197,-0.4081c0.0724,-0.2472,0.1091,-0.5233,0.1091,-0.8207V9.8676h2.6293V8.3136H13.609V6.6256c0,-0.3375,0.0476,-0.6493,0.1413,-0.9266c0.0875,-0.2582,0.2111,-0.4724,0.3778,-0.6547c0.1612,-0.1762,0.3613,-0.3117,0.6116,-0.414c0.2601,-0.1062,0.5767,-0.1601,0.9407,-0.1601c0.2819,0,0.5253,0.0306,0.7233,0.0908c0.1941,0.0591,0.3597,0.1355,0.4921,0.2272c0.1292,0.0896,0.2334,0.1899,0.3187,0.3068l0.1297,0.1802l1.4143,-0.6645l-0.1567,-0.2406c-0.0424,-0.0651,-0.0864,-0.129,-0.132,-0.1913c-0.1867,-0.2559,-0.4185,-0.4806,-0.6889,-0.668c-0.2655,-0.1839,-0.5766,-0.3309,-0.9247,-0.4367c-0.345,-0.1049,-0.7406,-0.1582,-1.1757,-0.1582c-0.5663,0,-1.0805,0.0928,-1.5283,0.2757c-0.4608,0.1883,-0.8545,0.4585,-1.1701,0.8031c-0.3107,0.3393,-0.5474,0.745,-0.7035,1.206c-0.1483,0.4389,-0.2236,0.9182,-0.2236,1.4248v1.6879h-1.0957V8.7H6.0076c0.0771,-2.337,1.0476,-4.5244,2.7326,-6.159C10.4293,0.9024,12.6524,0,15,0c4.9626,0,9,4.0374,9,9S19.9626,18,15,18zM11.55,9.8676h0.5049v1.5995c0,0.2284,-0.0388,0.3678,-0.0619,0.4306c-0.0422,0.1146,-0.0968,0.2129,-0.1623,0.2923c-0.0561,0.068,-0.1037,0.1417,-0.1419,0.2191l-0.0479,0.0972l-0.091,0.0448V9.8676z" fill="#EEAD56"/>
    <path d="M10.9593,14.2499v-0.112l0.5907,-0.7879v-0.799l0.0908,-0.0447l0.048,-0.0971c0.0382,-0.0776,0.0859,-0.1513,0.1419,-0.2193c0.0654,-0.0792,0.1201,-0.1776,0.1623,-0.2923c0.0282,-0.0767,0.0619,-0.2137,0.0619,-0.4305V9.8676H11.55V8.7h-0.5907v-0.3864h1.0957V6.6256c0,-0.5066,0.0752,-0.986,0.2236,-1.4248c0.156,-0.4608,0.3927,-0.8666,0.7035,-1.206c0.3156,-0.3446,0.7093,-0.6148,1.1702,-0.8031c0.4478,-0.1829,0.962,-0.2757,1.5283,-0.2757c0.4352,0,0.8308,0.0532,1.1757,0.1582c0.348,0.1059,0.6591,0.2528,0.9247,0.4367c0.2704,0.1873,0.5022,0.4121,0.689,0.668c0.1017,0.1393,0.1959,0.2859,0.2802,0.4357l-1.4125,0.6637c-0.0384,-0.0624,-0.0798,-0.124,-0.123,-0.1832c-0.0853,-0.1169,-0.1896,-0.2173,-0.3188,-0.3069c-0.1323,-0.0917,-0.2979,-0.1682,-0.4919,-0.2272c-0.198,-0.0603,-0.4414,-0.0908,-0.7233,-0.0908c-0.364,0,-0.6805,0.0539,-0.9407,0.1601c-0.2504,0.1024,-0.4503,0.2378,-0.6116,0.414c-0.1667,0.1823,-0.2903,0.3965,-0.3778,0.6547c-0.0938,0.2774,-0.1413,0.5892,-0.1413,0.9266v1.6879h2.6293v1.5541H13.609v1.5995c0,0.2973,-0.0367,0.5734,-0.1091,0.8207l-0.1198,0.408h5.2685v1.5541H10.9593z" fill="#FFFFFF" opacity="0.5"/>
    <path d="M0,24v-1.9241l4.1938,-5.1466L0.2213,11.6743V10h9.563c0.1649,0,0.3035,0.13,0.3155,0.296l0.0445,0.6171c0.003,0.0405,0.0135,0.1143,0.0303,0.2309c0.0396,0.2737,0.0994,0.6868,0.1589,1.4069l0.0417,0.503l-1.8163,0.1909l-0.0426,-0.5162c-0.0073,-0.0883,-0.0148,-0.1738,-0.0225,-0.2614c-0.0153,-0.1755,-0.0311,-0.3563,-0.0481,-0.5868l-0.0019,-0.0266H2.6626l3.894,5.1221l-4.2222,5.1701h6.4249l0.4871,-2.1041l1.7536,0.549l-0.7807,3.1668c-0.0354,0.1427,-0.1616,0.2421,-0.307,0.2421H0z" fill="#7B7B7B"/>
  </g>
</svg>
