<?xml version="1.0" encoding="UTF-8"?>
<!DOCTYPE svg PUBLIC "-//W3C//DTD SVG 1.1//EN" "http://www.w3.org/Graphics/SVG/1.1/DTD/svg11.dtd">
<svg version="1.1" id="Layer_1" xmlns="http://www.w3.org/2000/svg" xmlns:xlink="http://www.w3.org/1999/xlink" x="0px" y="0px" width="24px" height="24px" viewBox="0 0 24 24" enable-background="new 0 0 24 24" xml:space="preserve">
  <g id="icon">
    <path d="M1.9,10C0.8523,10,0,9.1477,0,8.1V2.9c0,-1.0477,0.8523,-1.9,1.9,-1.9h13.2c1.0477,0,1.9,0.8523,1.9,1.9v5.2c0,1.0477,-0.8523,1.9,-1.9,1.9H1.9z" fill="#EEAD56"/>
    <path d="M8.9,22c-1.0477,0,-1.9,-0.8523,-1.9,-1.9v-5.2c0,-1.0477,0.8523,-1.9,1.9,-1.9h13.2c1.0477,0,1.9,0.8523,1.9,1.9v5.2c0,1.0477,-0.8523,1.9,-1.9,1.9H8.9z" fill="#6486C4"/>
  </g>
</svg>
