<?xml version="1.0" encoding="UTF-8"?>
<!DOCTYPE svg PUBLIC "-//W3C//DTD SVG 1.1//EN" "http://www.w3.org/Graphics/SVG/1.1/DTD/svg11.dtd">
<svg version="1.1" id="Layer_1" xmlns="http://www.w3.org/2000/svg" xmlns:xlink="http://www.w3.org/1999/xlink" x="0px" y="0px" width="24px" height="24px" viewBox="0 0 24 24" enable-background="new 0 0 24 24" xml:space="preserve">
  <g id="icon">
    <g>
      <path d="M18.25,2h-12.5C4.7835,2,4,2.7835,4,3.75v1.5C4,6.2165,4.7835,7,5.75,7h12.5c0.9665,0,1.75,-0.7835,1.75,-1.75v-1.5C20,2.7835,19.2165,2,18.25,2z" fill="#6485C3"/>
      <path d="M18.25,8h-12.5C4.7835,8,4,8.7835,4,9.75v1.5c0,0.9665,0.7835,1.75,1.75,1.75h12.5c0.9665,0,1.75,-0.7835,1.75,-1.75v-1.5C20,8.7835,19.2165,8,18.25,8z" fill="#6485C3"/>
      <path d="M18.25,14h-12.5c-0.9665,0,-1.75,0.7835,-1.75,1.75v1.5c0,0.9665,0.7835,1.75,1.75,1.75h12.5c0.9665,0,1.75,-0.7835,1.75,-1.75v-1.5C20,14.7835,19.2165,14,18.25,14z" fill="#6485C3"/>
    </g>
    <path d="M4.625,23C2.623,23,1,21.377,1,19.375V13.3h2v6.075c0,0.8975,0.7275,1.625,1.625,1.625h14.75c0.8975,0,1.625,-0.7275,1.625,-1.625V13.3h2v6.075c0,2.002,-1.623,3.625,-3.625,3.625H4.625z" fill="#7D7C7B"/>
  </g>
</svg>
