<?xml version="1.0" encoding="UTF-8"?>
<!DOCTYPE svg PUBLIC "-//W3C//DTD SVG 1.1//EN" "http://www.w3.org/Graphics/SVG/1.1/DTD/svg11.dtd">
<svg version="1.1" id="Layer_1" xmlns="http://www.w3.org/2000/svg" xmlns:xlink="http://www.w3.org/1999/xlink" x="0px" y="0px" width="24px" height="24px" viewBox="0 0 24 24" enable-background="new 0 0 24 24" xml:space="preserve">
  <g id="icon">
    <path d="M15.4996,20.49c0,2.1249,-1.7631,3.51,-3.8045,3.51c-2.0415,0,-3.7505,-1.385,-3.7505,-3.51" fill="#6D6E71"/>
    <g>
      <path d="M23.2981,19.6211c0.3178,-0.2289,0.4806,-0.4638,0.5829,-0.6969c0.2348,-0.535,0.1135,-1.1385,-0.3243,-1.6143v0c-1.6065,-1.7458,-3.9965,-5.2258,-3.9965,-7.6574c0,-2.8125,-1.699,-5.3789,-4.297,-6.5954c-0.1303,-1.6993,-1.5169,-3.041,-3.2026,-3.041c-1.6431,0,-3.002,1.2747,-3.1903,2.9128c-0.5232,0.218,-1.011,0.4895,-1.46,0.8044L23.2981,19.6211z" fill="#EEAC55"/>
      <path d="M4.4508,8.1278c-0.1087,0.4938,-0.1663,1.0039,-0.1663,1.5247c0,3.0525,-1.7425,5.1553,-3.1426,6.8449c-0.2639,0.3185,-0.5137,0.62,-0.744,0.9167c-0.3947,0.4424,-0.5023,1.0004,-0.2868,1.5042c0.2786,0.6512,0.9535,1.3933,5.4638,1.9596c2.3007,0.2889,4.9694,0.44,6.4166,0.44c1.2366,0,3.3233,-0.0939,5.3526,-0.297L4.4508,8.1278z" fill="#EEAC55"/>
    </g>
    <rect x="11.375" y="-3.0753" width="2.0001" height="30.9006" fill="#CB525D" transform="matrix(0.7071 -0.7071 0.7071 0.7071 -5.12589 12.375)"/>
  </g>
</svg>
