<?xml version="1.0" encoding="UTF-8"?>
<!DOCTYPE svg PUBLIC "-//W3C//DTD SVG 1.1//EN" "http://www.w3.org/Graphics/SVG/1.1/DTD/svg11.dtd">
<svg version="1.1" id="Layer_1" xmlns="http://www.w3.org/2000/svg" xmlns:xlink="http://www.w3.org/1999/xlink" x="0px" y="0px" width="24px" height="24px" viewBox="0 0 24 24" enable-background="new 0 0 24 24" xml:space="preserve">
  <g id="icon">
    <path d="M12,0C5.3726,0,0,5.3726,0,12s5.3726,12,12,12s12,-5.3726,12,-12S18.6274,0,12,0zM17.3965,15.4978L13.5,11.6255V21h-3v-9.3745l-3.8965,3.8723L4.7941,13.664L11.5143,7H6V5h12v2h-5.5143l6.7202,6.664L17.3965,15.4978z" fill="#CB525D"/>
    <polygon points="12.4857,7 18,7 18,5 6,5 6,7 11.5143,7 4.7941,13.664 6.6035,15.4978 10.5,11.6255 10.5,21 13.5,21 13.5,11.6255 17.3965,15.4978 19.2059,13.664" fill="#FFFFFF" stroke-linejoin="miter"/>
  </g>
</svg>
