<?xml version="1.0" encoding="UTF-8"?>
<!DOCTYPE svg PUBLIC "-//W3C//DTD SVG 1.1//EN" "http://www.w3.org/Graphics/SVG/1.1/DTD/svg11.dtd">
<svg version="1.1" id="Layer_1" xmlns="http://www.w3.org/2000/svg" xmlns:xlink="http://www.w3.org/1999/xlink" x="0px" y="0px" width="24px" height="24px" viewBox="0 0 24 24" enable-background="new 0 0 24 24" xml:space="preserve">
  <g id="icon">
    <path d="M1,6v16h22V6H1z" fill="#FFFFFF" opacity="0.4"/>
    <path d="M19,4h-2V0h2V4zM7,4H5V0h2V4z" fill="#7B7B7B"/>
    <polygon points="20,2 20,5 16,5 16,2 8,2 8,5 4,5 4,2 0,2 0,7 24,7 24,2" fill="#9070B1" stroke-linejoin="miter"/>
    <polygon points="22,7 22,21 2,21 2,7 0,7 0,23 24,23 24,7" fill="#7B7B7B" stroke-linejoin="miter"/>
    <path d="M16,9h-1h-3h-1H7v3H4v3v1v3h3h1h3h1h3h1h4v-3v-1v-2v-1V9H16zM12,10h3v2h-3V10zM15,15h-3v-2h3V15zM8,13h3v2H8V13zM8,10h3v2H8V10zM5,13h2v2H5V13zM7,18H5v-2h2V18zM11,18H8v-2h3V18zM15,18h-3v-2h3V18zM19,18h-3v-2h3V18zM19,15h-3v-2h3V15zM16,12v-2h3v2H16z" fill="#CB525D"/>
    <path d="M11,12H8v-2h3V12zM15,12h-3v-2h3V12zM19,12h-3v-2h3V12zM19,15h-3v-2h3V15zM15,15h-3v-2h3V15zM11,15H8v-2h3V15zM7,15H5v-2h2V15zM7,18H5v-2h2V18zM11,18H8v-2h3V18zM15,18h-3v-2h3V18zM19,18h-3v-2h3V18z" fill="#CB525D" opacity="0.3"/>
  </g>
</svg>
