<?xml version="1.0" encoding="UTF-8"?>
<!DOCTYPE svg PUBLIC "-//W3C//DTD SVG 1.1//EN" "http://www.w3.org/Graphics/SVG/1.1/DTD/svg11.dtd">
<svg version="1.1" id="Layer_1" xmlns="http://www.w3.org/2000/svg" xmlns:xlink="http://www.w3.org/1999/xlink" x="0px" y="0px" width="24px" height="24px" viewBox="0 0 24 24" enable-background="new 0 0 24 24" xml:space="preserve">
  <g id="icon">
    <path d="M6,6v18h18V6H6zM20.6174,18.8659l-1.7515,1.7515L15,16.7515l-3.8659,3.8659l-1.7515,-1.7515L13.2485,15l-3.8659,-3.8659l1.7515,-1.7515L15,13.2485l3.8659,-3.8659l1.7515,1.7515L16.7515,15L20.6174,18.8659z" fill="#CB525D"/>
    <polygon points="15,16.7515 11.1341,20.6174 9.3826,18.8659 13.2485,15 9.3826,11.1341 11.1341,9.3826 15,13.2485 18.8659,9.3826 20.6174,11.1341 16.7515,15 20.6174,18.8659 18.8659,20.6174" fill="#FFFFFF" stroke-linejoin="miter"/>
    <polygon points="5,5 21,5 21,3 3,3 3,21 5,21" fill="#CB525D" stroke-linejoin="miter"/>
    <polygon points="2,2 18,2 18,0 0,0 0,18 2,18" fill="#CB525D" stroke-linejoin="miter"/>
  </g>
</svg>
