<?xml version="1.0" encoding="UTF-8"?>
<!DOCTYPE svg PUBLIC "-//W3C//DTD SVG 1.1//EN" "http://www.w3.org/Graphics/SVG/1.1/DTD/svg11.dtd">
<svg version="1.1" id="Layer_1" xmlns="http://www.w3.org/2000/svg" xmlns:xlink="http://www.w3.org/1999/xlink" x="0px" y="0px" width="24px" height="24px" viewBox="0 0 24 24" enable-background="new 0 0 24 24" xml:space="preserve">
  <g id="icon">
    <polygon points="4.7,18.3 0.7,18.3 0.7,2.8 23.2,2.8 23.2,18.3 11.6298,18.3 4.7,22.3162" fill="#FFFFFF" stroke-linejoin="miter" opacity="0.5"/>
    <path d="M4,19H0V2h24v17H11.8919L4,23.608V19zM6,17v3.0298L11.3262,17H22V4H2v13H6z" fill="#7B7B7B"/>
    <path d="M20,7H4V6h16V7zM20,8H4v1h16V8zM20,10H4v1h16V10zM20,12H4v1h16V12zM15,14H4v1h11V14z" fill="#6485C3"/>
  </g>
</svg>
