<?xml version="1.0" encoding="UTF-8"?>
<!DOCTYPE svg PUBLIC "-//W3C//DTD SVG 1.1//EN" "http://www.w3.org/Graphics/SVG/1.1/DTD/svg11.dtd">
<svg version="1.1" id="Layer_1" xmlns="http://www.w3.org/2000/svg" xmlns:xlink="http://www.w3.org/1999/xlink" x="0px" y="0px" width="24px" height="24px" viewBox="0 0 24 24" enable-background="new 0 0 24 24" xml:space="preserve">
  <g id="icon">
    <path d="M4.4939,12.6002c0,-4.525,3.683,-8.2063,8.21,-8.2063c4.527,0,8.2099,3.6813,8.2099,8.2063c0,1.4314,-0.3654,2.8119,-1.0634,4.0388l1.561,1.561H22.2V1.7H0.7v16.5h6.0103C5.3371,16.7324,4.4939,14.7634,4.4939,12.6002z" fill="#FFFFFF" opacity="0.5"/>
    <path d="M5.779,17H2V3h19v14h-0.7887l2,2H23V1H0v18h7.5733C6.8715,18.4367,6.2646,17.7609,5.779,17z" fill="#7B7B7B"/>
    <polygon points="17.9887,21 3,21 3,23 19.9887,23" fill="#7B7B7B" stroke-linejoin="miter"/>
    <path d="M6.6939,12.6002c0,-3.3172,2.6907,-6.0063,6.0099,-6.0063s6.0099,2.6891,6.0099,6.0063s-2.6907,6.0063,-6.0099,6.0063S6.6939,15.9174,6.6939,12.6002zM16.9928,16.8928l6.0012,6.0012" fill="#FFFFFF" opacity="0.5"/>
    <path d="M16.877,18.474c-1.2241,0.8728,-2.6612,1.3326,-4.173,1.3326c-3.9756,0,-7.21,-3.2327,-7.21,-7.2063s3.2344,-7.2063,7.21,-7.2063c3.9755,0,7.2099,3.2327,7.2099,7.2063c0,1.5142,-0.4618,2.953,-1.3383,4.1781l5.4791,5.4792l-1.6971,1.6971L16.877,18.474zM12.7039,7.7939c-2.6522,0,-4.81,2.1561,-4.81,4.8063s2.1577,4.8063,4.81,4.8063c2.6521,0,4.8099,-2.1561,4.8099,-4.8063S15.3561,7.7939,12.7039,7.7939z" fill="#6485C3"/>
  </g>
</svg>
