<?xml version="1.0" encoding="UTF-8"?>
<!DOCTYPE svg PUBLIC "-//W3C//DTD SVG 1.1//EN" "http://www.w3.org/Graphics/SVG/1.1/DTD/svg11.dtd">
<svg version="1.1" id="Layer_1" xmlns="http://www.w3.org/2000/svg" xmlns:xlink="http://www.w3.org/1999/xlink" x="0px" y="0px" width="24px" height="24px" viewBox="0 0 24 24" enable-background="new 0 0 24 24" xml:space="preserve">
  <g id="icon">
    <path d="M2,0v24h20V6.5L15.525,0H2zM20,22H4V2h11v5.025L20,7V22z" fill="#7B7B7B"/>
    <polygon points="20,22 4,22 4,2 15,2 15,7.025 20,7" fill="#FFFFFF" stroke-linejoin="miter" opacity="0.4"/>
    <g>
      <path d="M16.2,20H7.6v-0.9695c0,-0.3546,0.1551,-0.5241,0.4367,-0.8317c0.1284,-0.1402,0.3119,-0.3391,0.532,-0.577c0.438,-0.4734,1.0221,-1.102,1.6061,-1.7297c0.6566,-0.7059,1.3133,-1.4105,1.7621,-1.892c-0.4488,-0.4815,-1.1055,-1.1862,-1.7621,-1.892c-0.584,-0.6277,-1.1681,-1.2563,-1.6061,-1.7297c-0.2202,-0.2379,-0.4036,-0.4368,-0.532,-0.577C7.7551,9.4936,7.6,9.3242,7.6,8.9695V8h8.6v1.8h-5.7129c0.9758,1.0512,2.3138,2.4876,3.3385,3.5861l0.5727,0.6139l-0.5727,0.6139c-1.0248,1.0985,-2.3627,2.5349,-3.3385,3.5861H16.2V20z" fill="#17AB4F"/>
    </g>
  </g>
</svg>
