<?xml version="1.0" encoding="UTF-8"?>
<!DOCTYPE svg PUBLIC "-//W3C//DTD SVG 1.1//EN" "http://www.w3.org/Graphics/SVG/1.1/DTD/svg11.dtd">
<svg version="1.1" id="Layer_1" xmlns="http://www.w3.org/2000/svg" xmlns:xlink="http://www.w3.org/1999/xlink" x="0px" y="0px" width="24px" height="24px" viewBox="0 0 24 24" enable-background="new 0 0 24 24" xml:space="preserve">
  <g id="icon">
    <rect x="1" y="1" width="21" height="21" fill="#FFFFFF" opacity="0.5"/>
    <path d="M17,0H6H0v6v11v6h6h11h6v-6V6V0H17zM12,2h4v4h-4V2zM17,11V7h4v4H17zM21,12v4h-4v-4H21zM12,7h4v4h-4V7zM12,12h4v4h-4V12zM7,2h4v4H7V2zM7,7h4v4H7V7zM7,12h4v4H7V12zM2,2h4v4H2V2zM6,12v4H2v-4H6zM2,11V7h4v4H2zM6,21H2v-4h4V21zM11,21H7v-4h4V21zM16,21h-4v-4h4V21zM21,21h-4v-4h4V21zM17,6V2h4v4H17z" fill="#7B7B7B"/>
  </g>
</svg>
