<?xml version="1.0" encoding="UTF-8"?>
<!DOCTYPE svg PUBLIC "-//W3C//DTD SVG 1.1//EN" "http://www.w3.org/Graphics/SVG/1.1/DTD/svg11.dtd">
<svg version="1.1" id="Layer_1" xmlns="http://www.w3.org/2000/svg" xmlns:xlink="http://www.w3.org/1999/xlink" x="0px" y="0px" width="24px" height="24px" viewBox="0 0 24 24" enable-background="new 0 0 24 24" xml:space="preserve">
  <g id="icon">
    <path d="M15.0992,0.0638c-3.5648,0.4449,-6.4045,3.2981,-6.8078,6.8607c-0.1572,1.3883,0.0524,2.7137,0.5433,3.8941c-2.2208,2.2089,-8.6889,8.5525,-8.6889,8.5525C0.0523,19.4653,0,19.5924,0,19.7248V24h5.0826v-2.613h2.6183v-2.613h2.0022v-2.0896l1.0653,-1.0897l0.3704,0.3927c0.1942,0.1951,0.4996,0.1997,0.6996,0.0105c0,0,0.5353,-0.5505,1.0432,-1.027c1.1329,0.5081,2.4084,0.7579,3.7505,0.6736c3.8421,-0.2414,6.9917,-3.2679,7.3355,-7.0943C24.4158,3.5617,20.1518,-0.5667,15.0992,0.0638zM17.9794,8.9219c-1.5854,0,-2.8706,-1.2826,-2.8706,-2.8648c0,-1.5822,1.2852,-2.8648,2.8706,-2.8648c1.5854,0,2.8706,1.2826,2.8706,2.8648C20.85,7.6393,19.5648,8.9219,17.9794,8.9219z" fill="#EEAC55"/>
  </g>
</svg>
