<?xml version="1.0" encoding="UTF-8"?>
<!DOCTYPE svg PUBLIC "-//W3C//DTD SVG 1.1//EN" "http://www.w3.org/Graphics/SVG/1.1/DTD/svg11.dtd">
<svg version="1.1" id="Layer_1" xmlns="http://www.w3.org/2000/svg" xmlns:xlink="http://www.w3.org/1999/xlink" x="0px" y="0px" width="24px" height="24px" viewBox="0 0 24 24" enable-background="new 0 0 24 24" xml:space="preserve">
  <g id="icon">
    <path d="M6,5H2V1h4V5zM6,10H2v4h4V10zM6,19H2v4h4V19z" fill="#FFFFFF" opacity="0.5"/>
    <path d="M24,4H9V2h15V4zM7,0H1v6h6V0zM3,2h2v2H3V2zM24,11H9v2h15V11zM7,9H1v6h6V9zM3,11h2v2H3V11zM24,20H9v2h15V20zM7,18H1v6h6V18zM3,20h2v2H3V20z" fill="#7B7B7B"/>
  </g>
</svg>
