<?xml version="1.0" encoding="UTF-8"?>
<!DOCTYPE svg PUBLIC "-//W3C//DTD SVG 1.1//EN" "http://www.w3.org/Graphics/SVG/1.1/DTD/svg11.dtd">
<svg version="1.1" id="Layer_1" xmlns="http://www.w3.org/2000/svg" xmlns:xlink="http://www.w3.org/1999/xlink" x="0px" y="0px" width="24px" height="24px" viewBox="0 0 24 24" enable-background="new 0 0 24 24" xml:space="preserve">
  <g id="icon">
    <path d="M2.5,20.0333V22.5h18V1.5333L20.5,0.5H2.5v2.5" fill="#FFFFFF" opacity="0.5"/>
    <polygon points="22,24 2,24 2,20.0333 4,20.0333 4,22 20,22 20,2 4,2 4,4 2,4 2,0 22,0" fill="#7B7B7B" stroke-linejoin="miter"/>
    <path d="M5,7H0V5h5V7zM5,10H0V8h5V10zM5,13H0v-2h5V13zM5,16H0v-2h5V16zM5,19H0v-2h5V19z" fill="#9070B1"/>
    <path d="M18,5H7V4h11V5zM18,6H7v1h11V6zM18,8H7v1h11V8zM18,10H7v1h11V10zM18,12H7v1h11V12zM18,14H7v1h11V14zM18,16H7v1h11V16zM14,18H7v1h7V18z" fill="#6D6E71"/>
  </g>
</svg>
