<?xml version="1.0" encoding="UTF-8"?>
<!DOCTYPE svg PUBLIC "-//W3C//DTD SVG 1.1//EN" "http://www.w3.org/Graphics/SVG/1.1/DTD/svg11.dtd">
<svg version="1.1" id="Layer_1" xmlns="http://www.w3.org/2000/svg" xmlns:xlink="http://www.w3.org/1999/xlink" x="0px" y="0px" width="24px" height="24px" viewBox="0 0 24 24" enable-background="new 0 0 24 24" xml:space="preserve">
  <g id="icon">
    <path d="M12,24C5.3832,24,0,18.6168,0,12S5.3832,0,12,0s12,5.3832,12,12S18.6168,24,12,24zM7.372,19.1116c1.3792,0.9012,2.9741,1.3763,4.628,1.3763c4.6802,0,8.4878,-3.8076,8.4878,-8.4878c0,-1.6539,-0.4751,-3.2489,-1.3763,-4.628L7.372,19.1116zM12,3.5122c-4.6802,0,-8.4878,3.8076,-8.4878,8.4878c0,1.6539,0.4751,3.2489,1.3763,4.628L16.628,4.8884C15.2489,3.9873,13.6539,3.5122,12,3.5122z" fill="#CB525D"/>
  </g>
</svg>
