<?xml version="1.0" encoding="UTF-8"?>
<!DOCTYPE svg PUBLIC "-//W3C//DTD SVG 1.1//EN" "http://www.w3.org/Graphics/SVG/1.1/DTD/svg11.dtd">
<svg version="1.1" id="Layer_1" xmlns="http://www.w3.org/2000/svg" xmlns:xlink="http://www.w3.org/1999/xlink" x="0px" y="0px" width="24px" height="24px" viewBox="0 0 24 24" enable-background="new 0 0 24 24" xml:space="preserve">
  <g id="icon">
    <path d="M23.3486,2.3995L23.3486,2.3995c-0.8059,-0.7207,-2.0453,-0.6536,-2.7681,0.1499l-8.8883,9.2745c1.0083,0.4968,1.8927,1.2767,2.4954,2.2502c0.1033,0.1668,0.1944,0.3372,0.2782,0.5095l9.0332,-9.4244C24.2219,4.3558,24.1545,3.1202,23.3486,2.3995z" fill="#7B7B7B"/>
    <path d="M13.0892,18.5912c-1.5318,3.0758,-3.3024,3.4845,-12.9587,3.3432c-0.1436,-0.0021,-0.1815,-0.1952,-0.0488,-0.2489c3.3812,-1.3683,2.8181,-1.1067,5.4084,-6.355C8.2415,9.756,15.2723,14.2077,13.0892,18.5912z" fill="#6485C3"/>
  </g>
</svg>
