<?xml version="1.0" encoding="UTF-8"?>
<!DOCTYPE svg PUBLIC "-//W3C//DTD SVG 1.1//EN" "http://www.w3.org/Graphics/SVG/1.1/DTD/svg11.dtd">
<svg version="1.1" id="Layer_1" xmlns="http://www.w3.org/2000/svg" xmlns:xlink="http://www.w3.org/1999/xlink" x="0px" y="0px" width="24px" height="24px" viewBox="0 0 24 24" enable-background="new 0 0 24 24" xml:space="preserve">
  <g id="icon">
    <path d="M22.5,20.5H1.5V4.5h21V20.5z" fill="#FFFFFF" opacity="0.5"/>
    <path d="M24,22H0V3h24V22zM2,20h20V5H2V20z" fill="#7B7B7B"/>
    <path d="M20,12h-6v-1h6V12zM20,18h-6v-1h6V18zM20,10h-6V9h6V10zM20,8h-6V7h6V8z" fill="#6D6E71"/>
    <path d="M12.5513,15.9531c-0.2411,-1.3844,-0.6698,-1.4075,-3.0145,-2.3497c-0.3423,-0.1463,-0.439,-0.3569,-0.4134,-0.6573c0.6614,-0.8996,1.0599,-2.355,1.0599,-3.3724C10.1833,7.998,9.7108,7,7.7755,7c-0.008,0,0.0026,0,0,0c-1.9353,0,-2.3689,0.998,-2.3689,2.5736c0,1.0174,0.3969,2.4699,1.0583,3.3696c0.0256,0.3005,-0.0718,0.5124,-0.4141,0.6587c-2.3447,0.9422,-2.7739,0.966,-3.0149,2.3505c-0.0725,0.5565,-0.0845,0.7898,0.1084,1.4064c0.2172,0.6941,3.2873,0.6033,4.6312,0.6033c0.0054,0,-0.0092,0,0,0c1.3439,0,4.45,0.0911,4.6672,-0.6029C12.6357,16.7425,12.6238,16.5096,12.5513,15.9531z" fill="#6485C3"/>
  </g>
</svg>
