<?xml version="1.0" encoding="UTF-8"?>
<!DOCTYPE svg PUBLIC "-//W3C//DTD SVG 1.1//EN" "http://www.w3.org/Graphics/SVG/1.1/DTD/svg11.dtd">
<svg version="1.1" id="Layer_1" xmlns="http://www.w3.org/2000/svg" xmlns:xlink="http://www.w3.org/1999/xlink" x="0px" y="0px" width="24px" height="24px" viewBox="0 0 24 24" enable-background="new 0 0 24 24" xml:space="preserve">
  <g id="icon">
    <path d="M22,19.9H2V5h20V19.9z" fill="#FFFFFF" opacity="0.4"/>
    <path d="M24,24H0V6h24V24zM2,22h20V7H2V22z" fill="#7B7B7B"/>
    <path d="M24,7H0V2h24V7z" fill="#6485C3"/>
    <path d="M7,12H5v-2h2V12zM13,10H8v2h5V10zM19,10h-5v2h5V10zM7,13H5v2h2V13zM7,16H5v3h2V16z" fill="#78797A" opacity="0.15"/>
    <path d="M20,20V9H4v11H20zM14,10h5v2h-5V10zM14,13h5v2h-5V13zM14,16h5v3h-5V16zM8,10h5v2H8V10zM8,13h5v2H8V13zM8,16h5v3H8V16zM5,10h2v2H5V10zM5,13h2v2H5V13zM5,16h2v3H5V16z" fill="#7B7B7B"/>
  </g>
</svg>
