<?xml version="1.0" encoding="UTF-8"?>
<!DOCTYPE svg PUBLIC "-//W3C//DTD SVG 1.1//EN" "http://www.w3.org/Graphics/SVG/1.1/DTD/svg11.dtd">
<svg version="1.1" id="Layer_1" xmlns="http://www.w3.org/2000/svg" xmlns:xlink="http://www.w3.org/1999/xlink" x="0px" y="0px" width="16px" height="16px" viewBox="0 0 16 16" enable-background="new 0 0 16 16" xml:space="preserve">
  <g id="icon">
    <path d="M12.5,7.0977V4.5979l-3.5,2.5V6.611c-1.7844,2.4215,-3.9879,3.6992,-6.3873,3.6993c-0.0003,0,-0.0003,0,-0.0006,0c-0.202,0,-0.4078,-0.0094,-0.6122,-0.0272V16h14V4.5968L12.5,7.0977zM6.5,14H4v-1h2.5V14zM6.5,12H4v-1h2.5V12zM10.6667,14H7.3333v-1h3.3333V14zM10.6667,12H7.3333v-1h3.3333V12zM14,14h-2.5v-1h2.5V14zM14,12h-2.5v-1h2.5V12z" fill="#6485C3"/>
    <path d="M4,13h2.5v1H4V13zM4,12h2.5v-1H4V12zM7.3333,14h3.3333v-1H7.3333V14zM11.5,11v1h2.5v-1H11.5zM7.3333,12h3.3333v-1H7.3333V12zM11.5,14h2.5v-1h-2.5V14z" fill="#FFFFFF" opacity="0.5"/>
    <path d="M0.685,8.6891l-0.4294,-0.7872C0.784,6.3768,1.5261,5.1872,2.4763,4.3562c1.1532,-1.0085,2.358,-1.2656,3.0053,-1.4038c0.1338,-0.0286,0.2494,-0.0532,0.3261,-0.076c0.2646,-0.0787,0.5431,0.0721,0.6218,0.3367c0.0183,0.0614,0.023,0.1234,0.018,0.1836c-0.0693,0.0153,-0.1535,0.0314,-0.2477,0.0493c-0.6546,0.1242,-1.8732,0.3554,-3.0547,1.3347C2.0807,5.6629,1.2572,6.9742,0.685,8.6891z" fill="#FFFFFF" opacity="0.5"/>
    <path d="M10.3525,0.081c-0.1617,-0.1021,-0.4367,-0.1412,-0.6793,0.0853c-0.1649,0.154,-0.6102,0.44,-1.2328,0.5359c-0.3083,0.0474,-0.7603,0.0081,-1.2837,-0.0375c-1.1444,-0.0997,-2.7118,-0.2363,-4.3003,0.4371C0.4057,2.1408,-0.0609,4.816,-0.0339,5.7591c0.0147,0.5152,0.1315,1.3172,0.2345,2.0249c0.0091,0.0629,0.0186,0.1281,0.0281,0.1939c0.53,-1.5621,1.2815,-2.7768,2.2476,-3.6218c1.1532,-1.0085,2.358,-1.2656,3.0053,-1.4038c0.1338,-0.0286,0.2494,-0.0532,0.3261,-0.076c0.2646,-0.0787,0.5431,0.0721,0.6218,0.3367c0.0183,0.0614,0.023,0.1234,0.018,0.1836c-0.0693,0.0153,-0.1535,0.0314,-0.2477,0.0493c-0.6546,0.1242,-1.8732,0.3554,-3.0547,1.3347c-1.3983,1.1589,-2.3822,3.0564,-2.9246,5.64c-0.0236,0.1122,-0.005,0.2224,0.0423,0.3179l-0.0053,0.138l0.0422,-0.0734c0.071,0.1018,0.1795,0.1783,0.3118,0.2054c0.0311,0.0064,0.0621,0.0098,0.0928,0.0104c0.2377,0.0048,0.4526,-0.1579,0.5026,-0.3961c0.1199,-0.571,0.2586,-1.0873,0.4121,-1.5555c0.1163,-0.0046,0.2658,-0.0011,0.4584,0.0182c5.2679,0.4852,7.8297,-6.2604,8.4896,-8.3394C10.6702,0.4204,10.516,0.1842,10.3525,0.081z" fill="#54B14E"/>
  </g>
</svg>
