<?xml version="1.0" encoding="UTF-8"?>
<!DOCTYPE svg PUBLIC "-//W3C//DTD SVG 1.1//EN" "http://www.w3.org/Graphics/SVG/1.1/DTD/svg11.dtd">
<svg version="1.1" id="Layer_1" xmlns="http://www.w3.org/2000/svg" xmlns:xlink="http://www.w3.org/1999/xlink" x="0px" y="0px" width="16px" height="16px" viewBox="0 0 16 16" enable-background="new 0 0 16 16" xml:space="preserve">
  <g id="icon">
    <rect x="0.5" y="2.5" width="6" height="6" fill="#EEAD56"/>
    <path d="M7,9H0V2h7V9zM1,8h5V3H1V8z" fill="#EEAD56"/>
    <rect x="2.5" y="2.5" width="2" height="2" fill="#6E6F72"/>
    <path d="M5,5H2V2h3V5zM3,4h1V3H3V4z" fill="#6E6F72"/>
    <rect x="9.5" y="2.5" width="6" height="6" fill="#EEAD56"/>
    <path d="M16,9H9V2h7V9zM10,8h5V3h-5V8z" fill="#EEAD56"/>
    <rect x="11.5" y="2.5" width="2" height="2" fill="#6E6F72"/>
    <path d="M14,5h-3V2h3V5zM12,4h1V3h-1V4z" fill="#6E6F72"/>
    <path d="M13.3,13c0,0.4411,-0.3589,0.8,-0.8,0.8s-0.8,-0.3589,-0.8,-0.8s0.3589,-0.8,0.8,-0.8S13.3,12.5589,13.3,13zM8,12.2c-0.4411,0,-0.8,0.3589,-0.8,0.8s0.3589,0.8,0.8,0.8s0.8,-0.3589,0.8,-0.8S8.4411,12.2,8,12.2zM3.5,12.2c-0.4411,0,-0.8,0.3589,-0.8,0.8s0.3589,0.8,0.8,0.8s0.8,-0.3589,0.8,-0.8S3.9411,12.2,3.5,12.2zM16,13c0,1.6542,-1.3458,3,-3,3H3c-1.6542,0,-3,-1.3458,-3,-3s1.3458,-3,3,-3h10C14.6542,10,16,11.3458,16,13zM5.3,13c0,-0.9925,-0.8075,-1.8,-1.8,-1.8s-1.8,0.8075,-1.8,1.8c0,0.9925,0.8075,1.8,1.8,1.8S5.3,13.9925,5.3,13zM9.8,13c0,-0.9925,-0.8075,-1.8,-1.8,-1.8s-1.8,0.8075,-1.8,1.8c0,0.9925,0.8075,1.8,1.8,1.8S9.8,13.9925,9.8,13zM14.3,13c0,-0.9925,-0.8075,-1.8,-1.8,-1.8s-1.8,0.8075,-1.8,1.8c0,0.9925,0.8075,1.8,1.8,1.8S14.3,13.9925,14.3,13z" fill="#6D6E71"/>
    <path d="M3.5,14.8c-0.9925,0,-1.8,-0.8075,-1.8,-1.8s0.8075,-1.8,1.8,-1.8s1.8,0.8075,1.8,1.8S4.4925,14.8,3.5,14.8zM3.5,12.2c-0.4411,0,-0.8,0.3589,-0.8,0.8s0.3589,0.8,0.8,0.8s0.8,-0.3589,0.8,-0.8S3.9411,12.2,3.5,12.2zM8,14.8c-0.9925,0,-1.8,-0.8075,-1.8,-1.8s0.8075,-1.8,1.8,-1.8s1.8,0.8075,1.8,1.8S8.9925,14.8,8,14.8zM8,12.2c-0.4411,0,-0.8,0.3589,-0.8,0.8s0.3589,0.8,0.8,0.8s0.8,-0.3589,0.8,-0.8S8.4411,12.2,8,12.2zM12.5,14.8c-0.9925,0,-1.8,-0.8075,-1.8,-1.8s0.8075,-1.8,1.8,-1.8s1.8,0.8075,1.8,1.8S13.4925,14.8,12.5,14.8zM12.5,12.2c-0.4411,0,-0.8,0.3589,-0.8,0.8s0.3589,0.8,0.8,0.8s0.8,-0.3589,0.8,-0.8S12.9411,12.2,12.5,12.2z" fill="#FFFFFF" opacity="0.5"/>
  </g>
</svg>
