<?xml version="1.0" encoding="UTF-8"?>
<!DOCTYPE svg PUBLIC "-//W3C//DTD SVG 1.1//EN" "http://www.w3.org/Graphics/SVG/1.1/DTD/svg11.dtd">
<svg version="1.1" id="Layer_1" xmlns="http://www.w3.org/2000/svg" xmlns:xlink="http://www.w3.org/1999/xlink" x="0px" y="0px" width="16px" height="16px" viewBox="0 0 16 16" enable-background="new 0 0 16 16" xml:space="preserve">
  <g id="icon">
    <polygon points="4.7278,0.5 0.5,4.7279 0.5,11.2746 4.6675,15.5 11.2195,15.5 15.5,11.3302 15.5,4.6676 11.2746,0.5" fill="#FFFFFF" stroke-linejoin="miter" opacity="0.5"/>
    <path d="M11.4796,0H4.5207L0,4.5208v6.9589L4.4584,16h6.9644L16,11.5411V4.4584L11.4796,0zM15,11.1192L11.0162,15H4.8767L1,11.0695V4.935L4.935,1h6.1345L15,4.8767V11.1192z" fill="#CC525E"/>
    <path d="M10.6335,13.6771l-2.1052,-2.9666l-3.8328,1.7253l1.8966,-3.154L1.7765,7.4605l4.9454,-0.4089L4.3527,2.8897l4.3592,3.1901l2.2036,-2.4852l-0.2617,3.7641l3.1663,1.4239L10.8642,9.802L10.6335,13.6771zM8.8339,9.5861l1.0532,1.4841l0.1145,-1.9227l1.3783,-0.4753l-1.6674,-0.7499l0.1218,-1.7516l-0.9926,1.1194L7.216,6.1004l0.9858,1.7319L5.8235,8.029l2.0956,0.7926l-0.9698,1.6129L8.8339,9.5861z" fill="#CC525E"/>
  </g>
</svg>
