<?xml version="1.0" encoding="UTF-8"?>
<!DOCTYPE svg PUBLIC "-//W3C//DTD SVG 1.1//EN" "http://www.w3.org/Graphics/SVG/1.1/DTD/svg11.dtd">
<svg version="1.1" id="Layer_1" xmlns="http://www.w3.org/2000/svg" xmlns:xlink="http://www.w3.org/1999/xlink" x="0px" y="0px" width="16px" height="16px" viewBox="0 0 16 16" enable-background="new 0 0 16 16" xml:space="preserve">
  <g id="icon">
    <path d="M0.0507,15.1714l2.6614,-2.6613c-0.1469,-0.2739,-0.2244,-0.5822,-0.2244,-0.8944c0,-0.9862,0.7606,-1.8091,1.7388,-1.89L6.0994,0.4841l1.0781,0.2185L5.3021,9.9564c0.6047,0.3354,0.9787,0.9677,0.9787,1.6593c0,1.0458,-0.8508,1.8966,-1.8965,1.8966c-0.3122,0,-0.6205,-0.0775,-0.8944,-0.2244L0.8286,15.9493L0.0507,15.1714zM11.5657,6.3308c-1.0457,0,-1.8965,-0.8508,-1.8965,-1.8965c0,-1.0458,0.8508,-1.8966,1.8965,-1.8966c0.3122,0,0.6205,0.0775,0.8944,0.2244l2.6113,-2.6114l0.7778,0.7778l-2.6114,2.6113c0.1469,0.2739,0.2244,0.5822,0.2244,0.8944C13.4623,5.48,12.6115,6.3308,11.5657,6.3308z" fill="#6E6F72"/>
  </g>
</svg>
