<?xml version="1.0" encoding="UTF-8"?>
<!DOCTYPE svg PUBLIC "-//W3C//DTD SVG 1.1//EN" "http://www.w3.org/Graphics/SVG/1.1/DTD/svg11.dtd">
<svg version="1.1" id="Layer_1" xmlns="http://www.w3.org/2000/svg" xmlns:xlink="http://www.w3.org/1999/xlink" x="0px" y="0px" width="16px" height="16px" viewBox="0 0 16 16" enable-background="new 0 0 16 16" xml:space="preserve">
  <g id="icon">
    <path d="M10.7071,0H4.2929L2,2.2929V5h11V2.2929L10.7071,0zM7.45,4C6.7596,4,6.2,3.4404,6.2,2.75C6.2,2.0596,6.7596,1.5,7.45,1.5C8.1404,1.5,8.7,2.0596,8.7,2.75C8.7,3.4404,8.1404,4,7.45,4z" fill="#6E6F72"/>
    <circle cx="7.45" cy="2.75" r="1.25" fill="#FFFFFF" opacity="0.5"/>
    <path d="M5,16H4v-2l-0.5,-0.5v-1.5h2v1.4833l-0.5,0.5333V16zM8,14.0166l0.5,-0.5333V12H6.5v1.5l0.5,0.5v2h1V14.0166zM11,14.0166l0.5,-0.5333V12H9.5v1.5l0.5,0.5v2h1V14.0166z" fill="#6E6F72"/>
    <rect x="2" y="5.5" width="11" height="6" fill="#6486C4"/>
  </g>
</svg>
