<?xml version="1.0" encoding="UTF-8"?>
<!DOCTYPE svg PUBLIC "-//W3C//DTD SVG 1.1//EN" "http://www.w3.org/Graphics/SVG/1.1/DTD/svg11.dtd">
<svg version="1.1" id="Layer_1" xmlns="http://www.w3.org/2000/svg" xmlns:xlink="http://www.w3.org/1999/xlink" x="0px" y="0px" width="16px" height="16px" viewBox="0 0 16 16" enable-background="new 0 0 16 16" xml:space="preserve">
  <g id="icon">
    <path d="M13.975,0H2.025C0.9084,0,0,0.9084,0,2.025v11.95C0,15.0916,0.9084,16,2.025,16h11.95c1.1166,0,2.025,-0.9084,2.025,-2.025V2.025C16,0.9084,15.0916,0,13.975,0zM11.2533,7.5955l-5.0962,6.4489c-0.0281,0.035,-0.0675,0.0556,-0.109,0.0556c-0.0222,0,-0.0443,-0.0058,-0.0659,-0.0172c-0.0646,-0.0341,-0.0954,-0.1115,-0.0733,-0.1839l1.7096,-4.9226l-2.7627,-0.309l-0.0095,-0.0006c-0.049,-0.0033,-0.0926,-0.0325,-0.1166,-0.0781c-0.0282,-0.0535,-0.0247,-0.115,0.0093,-0.1644l4.5588,-6.4992c0.0286,-0.0412,0.0708,-0.0641,0.1166,-0.0641c0.0173,0,0.0347,0.0034,0.0515,0.01c0.0645,0.0255,0.1013,0.0899,0.0929,0.1615l-0.0036,0.0188l-1.155,4.9241l2.5022,0.3412l0.2407,0.0269l0.01,0.0006c0.0517,0.0034,0.0949,0.0337,0.1187,0.0831C11.2979,7.4815,11.2904,7.5491,11.2533,7.5955z" fill="#EEAD56"/>
    <path d="M11.2717,7.4272c-0.0237,-0.0494,-0.0669,-0.0797,-0.1187,-0.0831l-0.01,-0.0006l-0.2407,-0.0269l-2.5022,-0.3412l1.155,-4.9241l0.0036,-0.0188c0.0084,-0.0716,-0.0284,-0.136,-0.0929,-0.1615c-0.0168,-0.0067,-0.0342,-0.01,-0.0515,-0.01c-0.0458,0,-0.088,0.0229,-0.1166,0.0641L4.739,8.4242c-0.034,0.0495,-0.0374,0.1109,-0.0093,0.1644c0.0239,0.0455,0.0675,0.0747,0.1166,0.0781l0.0095,0.0006l2.7627,0.309l-1.7096,4.9226c-0.0221,0.0725,0.0087,0.1498,0.0733,0.1839c0.0216,0.0114,0.0438,0.0172,0.0659,0.0172c0.0415,0,0.0809,-0.0206,0.109,-0.0556l5.0962,-6.4488C11.2904,7.5491,11.2979,7.4815,11.2717,7.4272z" fill="#FFFFFF" opacity="0.5"/>
  </g>
</svg>
