<?xml version="1.0" encoding="UTF-8"?>
<!DOCTYPE svg PUBLIC "-//W3C//DTD SVG 1.1//EN" "http://www.w3.org/Graphics/SVG/1.1/DTD/svg11.dtd">
<svg version="1.1" id="Layer_1" xmlns="http://www.w3.org/2000/svg" xmlns:xlink="http://www.w3.org/1999/xlink" x="0px" y="0px" width="16px" height="16px" viewBox="0 0 16 16" enable-background="new 0 0 16 16" xml:space="preserve">
  <g id="icon">
    <g>
      <path d="M13.975,0H2.025C0.9084,0,0,0.9084,0,2.025v11.95C0,15.0916,0.9084,16,2.025,16h11.95c1.1166,0,2.025,-0.9084,2.025,-2.025V2.025C16,0.9084,15.0916,0,13.975,0zM11.2222,12.807C10.3839,13.5763,9.256,14,8.0461,14c-1.2077,0,-2.3359,-0.4268,-3.1769,-1.2018c-0.87,-0.8016,-1.3491,-1.9003,-1.3491,-3.0936c0,-1.3884,1.0185,-2.737,2.0967,-4.1647c0.7207,-0.9545,1.4654,-1.9406,1.816,-2.8644c0.0996,-0.2622,0.3404,-0.6383,0.6135,-0.6383c0.2727,0,0.5132,0.3756,0.613,0.637c0.3512,0.9192,1.0918,1.898,1.808,2.8445l0.0006,0.0009c1.082,1.43,2.1041,2.7807,2.1041,4.185C12.5721,10.9062,12.0927,12.008,11.2222,12.807z" fill="#6E6F72"/>
      <path d="M9.0757,6.0612l-0.7979,0.4302c0.1943,0.385,0.5251,0.8084,0.8754,1.2567c0.5548,0.7101,1.2453,1.5938,1.18,2.1509l0.8935,0.1118c0.111,-0.9474,-0.6775,-1.9567,-1.3732,-2.8471C9.5321,6.7526,9.2286,6.3642,9.0757,6.0612z" fill="#6E6F72"/>
    </g>
    <path d="M10.468,5.5196l-0.0006,-0.0009c-0.7162,-0.9465,-1.4568,-1.9253,-1.808,-2.8445c-0.0998,-0.2614,-0.3403,-0.637,-0.613,-0.637c-0.2731,0,-0.514,0.3761,-0.6135,0.6383c-0.3506,0.9238,-1.0953,1.91,-1.816,2.8644C4.5386,6.9676,3.5201,8.3161,3.5201,9.7045c0,1.1934,0.4791,2.292,1.3491,3.0936C5.7102,13.5732,6.8384,14,8.0461,14c1.2099,0,2.3378,-0.4237,3.1761,-1.193c0.8705,-0.799,1.3499,-1.9007,1.3499,-3.1024C12.5721,8.3003,11.55,6.9496,10.468,5.5196zM11.2266,10.0109l-0.8935,-0.1118c0.0653,-0.5571,-0.6251,-1.4408,-1.18,-2.1509c-0.3502,-0.4483,-0.6811,-0.8717,-0.8754,-1.2567l0.7979,-0.4302c0.1529,0.3029,0.4564,0.6913,0.7777,1.1026C10.5491,8.0542,11.3376,9.0635,11.2266,10.0109z" fill="#FFFFFF" opacity="0.5"/>
  </g>
</svg>
