<?xml version="1.0" encoding="UTF-8"?>
<!DOCTYPE svg PUBLIC "-//W3C//DTD SVG 1.1//EN" "http://www.w3.org/Graphics/SVG/1.1/DTD/svg11.dtd">
<svg version="1.1" id="Layer_1" xmlns="http://www.w3.org/2000/svg" xmlns:xlink="http://www.w3.org/1999/xlink" x="0px" y="0px" width="16px" height="16px" viewBox="0 0 16 16" enable-background="new 0 0 16 16" xml:space="preserve">
  <g id="icon">
    <circle cx="8" cy="8" r="7.5" fill="#FFFFFF" opacity="0.5"/>
    <path d="M8.2919,6.0859c-0.432,-0.0659,-0.8639,0.0073,-1.242,0.2067L4.0506,3.3397l-0.7016,0.7126l2.9598,2.9139c-0.1493,0.2297,-0.249,0.4902,-0.2915,0.7687c-0.164,1.0756,0.5895,2.0859,1.6796,2.2522c0.1036,0.0158,0.207,0.0236,0.3098,0.0236c0.4198,0,0.8272,-0.1304,1.1718,-0.379c0.4317,-0.3115,0.7134,-0.7709,0.7931,-1.2937C10.1356,7.2625,9.3821,6.2521,8.2919,6.0859zM8.983,8.1873c-0.039,0.2553,-0.1773,0.4803,-0.3896,0.6335c-0.2152,0.1552,-0.48,0.2183,-0.7457,0.1778c-0.5451,-0.0831,-0.9228,-0.5824,-0.8418,-1.1128c0.039,-0.2553,0.1773,-0.4803,0.3897,-0.6335c0.1726,-0.1245,0.3771,-0.1897,0.5885,-0.1897c0.0521,0,0.1046,0.004,0.1571,0.012h0C8.6863,7.1576,9.0639,7.6568,8.983,8.1873z" fill="#6E6F72"/>
    <path d="M8,0C3.5888,0,0,3.5888,0,8c0,4.4112,3.5888,8,8,8c4.4112,0,8,-3.5888,8,-8C16,3.5888,12.4112,0,8,0zM8,15c-3.8598,0,-7,-3.1402,-7,-7s3.1402,-7,7,-7s7,3.1402,7,7S11.8598,15,8,15z" fill="#6E6F72"/>
    <path d="M5.277,12.1556l-0.5431,0.8396C3.022,11.888,2,10.0113,2,7.975c0,-1.1976,0.3544,-2.3138,0.9635,-3.2498l0.7301,0.7188C3.2533,6.186,3,7.0514,3,7.975C3,9.6706,3.8512,11.2334,5.277,12.1556z" fill="#9070B1"/>
    <path d="M7.975,2c-1.1944,0,-2.308,0.3525,-3.2425,0.9587l0.7334,0.722C6.203,3.2483,7.0605,3,7.975,3c2.7432,0,4.975,2.2318,4.975,4.975c0,1.6734,-0.8341,3.225,-2.2312,4.1507l0.5523,0.8336C12.9486,11.8479,13.95,9.9847,13.95,7.975C13.95,4.6804,11.2696,2,7.975,2z" fill="#9070B1"/>
  </g>
</svg>
