<?xml version="1.0" encoding="UTF-8"?>
<!DOCTYPE svg PUBLIC "-//W3C//DTD SVG 1.1//EN" "http://www.w3.org/Graphics/SVG/1.1/DTD/svg11.dtd">
<svg version="1.1" id="Layer_1" xmlns="http://www.w3.org/2000/svg" xmlns:xlink="http://www.w3.org/1999/xlink" x="0px" y="0px" width="16px" height="16px" viewBox="0 0 16 16" enable-background="new 0 0 16 16" xml:space="preserve">
  <g id="icon">
    <path d="M10.1992,11.8205l-1.0996,-0.6733c-0.0169,-0.0104,-0.0262,-0.0296,-0.0239,-0.0493c0.034,-0.2962,0.0332,-0.6009,-0.0064,-0.9093c-0.0025,-0.0194,0.0062,-0.0386,0.0225,-0.0493l1.1013,-0.7223c0.0208,-0.0137,0.0288,-0.0404,0.0189,-0.0632l-0.5355,-1.238c-0.0099,-0.0229,-0.0348,-0.0353,-0.0591,-0.0295l-1.248,0.3001c-0.0196,0.0047,-0.04,-0.0026,-0.0523,-0.0185c-0.1984,-0.2568,-0.4288,-0.4858,-0.684,-0.6824c-0.0155,-0.012,-0.0229,-0.0316,-0.0189,-0.0508l0.2681,-1.2901c0.0051,-0.0244,-0.0081,-0.0489,-0.0313,-0.0581l-1.2541,-0.4968c-0.0232,-0.0092,-0.0496,-0.0004,-0.0626,0.0209l-0.6726,1.0986c-0.0105,0.0172,-0.0301,0.0264,-0.05,0.0239c-0.2983,-0.0378,-0.6055,-0.0401,-0.9167,-0.0031c-0.0193,0.0023,-0.0382,-0.0064,-0.0488,-0.0226l-0.7153,-1.0906c-0.0137,-0.0208,-0.0404,-0.0288,-0.0632,-0.0189l-1.238,0.5355c-0.0229,0.0099,-0.0353,0.0348,-0.0295,0.0591l0.292,1.2142c0.0048,0.0198,-0.0028,0.0404,-0.019,0.0526c-0.2704,0.2039,-0.5109,0.4427,-0.7161,0.7087c-0.012,0.0155,-0.0316,0.0229,-0.0507,0.0189l-1.2479,-0.2593c-0.0244,-0.0051,-0.0489,0.0081,-0.0581,0.0313L0.5036,9.4128c-0.0092,0.0232,-0.0004,0.0496,0.0209,0.0626l1.0568,0.6471c0.0172,0.0106,0.0265,0.0302,0.0239,0.0503c-0.0415,0.3146,-0.0436,0.6392,-0.0018,0.9681c0.0025,0.0194,-0.0062,0.0385,-0.0225,0.0492l-1.0503,0.6888c-0.0208,0.0137,-0.0288,0.0404,-0.0189,0.0632l0.5355,1.238c0.0099,0.0229,0.0348,0.0353,0.0591,0.0295l1.1807,-0.2839c0.0197,-0.0047,0.0402,0.0027,0.0525,0.0188c0.2115,0.2777,0.46,0.5237,0.7369,0.7317c0.0158,0.0119,0.0234,0.0317,0.0194,0.0511l-0.2544,1.224c-0.0051,0.0244,0.0081,0.0489,0.0313,0.0581l1.2541,0.4967c0.0232,0.0092,0.0496,0.0004,0.0626,-0.0209l0.6477,-1.0578c0.0104,-0.0171,0.0298,-0.0263,0.0497,-0.0239c0.3125,0.0375,0.6345,0.0369,0.9606,-0.0078c0.0195,-0.0027,0.0389,0.006,0.0497,0.0225l0.6958,1.0609c0.0137,0.0208,0.0404,0.0288,0.0632,0.0189l1.238,-0.5355c0.0229,-0.0099,0.0353,-0.0348,0.0295,-0.0591l-0.2923,-1.2153c-0.0047,-0.0195,0.0025,-0.0398,0.0183,-0.0521c0.2639,-0.206,0.4986,-0.4454,0.698,-0.7114c0.0119,-0.0159,0.0318,-0.0235,0.0512,-0.0195l1.2664,0.2632c0.0244,0.0051,0.0489,-0.0081,0.0581,-0.0313l0.4968,-1.254C10.2293,11.86,10.2205,11.8335,10.1992,11.8205zM6.3085,11.4404c-0.4143,0.592,-1.1916,0.681,-1.7337,0.3029c-0.5581,-0.398,-0.7076,-1.1612,-0.3076,-1.7323c0.4214,-0.6018,1.2103,-0.6804,1.7444,-0.2945C6.5544,10.1086,6.7091,10.868,6.3085,11.4404z" fill="#FFFFFF" opacity="0.5"/>
    <path d="M4.1461,16.0101c-0.0681,0,-0.1371,-0.0126,-0.2037,-0.0391l-1.2539,-0.4967c-0.2498,-0.0988,-0.3915,-0.3616,-0.3367,-0.6248l0.1985,-0.9552c-0.1497,-0.1291,-0.2901,-0.2683,-0.4204,-0.4167l-0.9068,0.2181c-0.2614,0.0629,-0.5286,-0.0708,-0.635,-0.3175l-0.5353,-1.2377c-0.1068,-0.2462,-0.0212,-0.5324,0.2037,-0.6798l0.8244,-0.5407c-0.0104,-0.1728,-0.0104,-0.3457,0.0001,-0.5177l-0.8175,-0.5005c-0.2292,-0.1406,-0.3235,-0.4236,-0.2247,-0.673l0.4968,-1.2542c0.0998,-0.2503,0.3626,-0.3911,0.625,-0.3367l0.9827,0.2042c0.1237,-0.14,0.2562,-0.2716,0.3967,-0.3939l-0.2258,-0.939c-0.0625,-0.2612,0.0707,-0.528,0.3167,-0.6347l1.2385,-0.5357c0.2461,-0.1067,0.532,-0.0212,0.6795,0.2032l0.5688,0.8673c0.1543,-0.0082,0.3092,-0.0079,0.4634,0.0009l0.5271,-0.8607c0.1396,-0.229,0.4229,-0.3237,0.673,-0.2247l1.2542,0.4968c0.2498,0.0988,0.3914,0.3616,0.3367,0.6248L8.159,7.4712c0.1291,0.1139,0.2511,0.2354,0.3654,0.3637l0.9763,-0.2348c0.261,-0.0629,0.5278,0.0706,0.6346,0.3167l0.5357,1.2385c0.1064,0.2471,0.0207,0.5327,-0.2037,0.6798l-0.8752,0.5741c0.0093,0.1518,0.0104,0.3039,0.0035,0.4555l0.8647,0.5294c0.229,0.1403,0.3235,0.4233,0.2247,0.673l-0.4968,1.2542c-0.099,0.2499,-0.3617,0.3919,-0.6248,0.3367l-0.9976,-0.2073c-0.1191,0.1382,-0.2473,0.2689,-0.3834,0.3911l0.2272,0.9449c0.063,0.2609,-0.0703,0.528,-0.317,0.6348l-1.2381,0.5355c-0.2471,0.1064,-0.5327,0.0207,-0.6798,-0.2037l-0.5462,-0.8328c-0.1696,0.0116,-0.3398,0.0131,-0.5098,0.0043l-0.5029,0.8214C4.5128,15.9145,4.3331,16.0101,4.1461,16.0101zM7.4373,15.0202c0.0001,0.0002,0.0001,0.0005,0.0002,0.0007L7.4373,15.0202zM3.4077,14.6836l0.5523,0.2188l0.4506,-0.7359c0.1124,-0.1833,0.3223,-0.285,0.5358,-0.2593c0.2772,0.0334,0.5575,0.031,0.833,-0.0067c0.2094,-0.0288,0.4195,0.0668,0.5355,0.2433l0.4891,0.7457l0.5452,-0.2358l-0.204,-0.8484c-0.0504,-0.2094,0.0269,-0.4304,0.1968,-0.5631c0.2286,-0.1784,0.4323,-0.386,0.6057,-0.6172c0.1286,-0.1708,0.3453,-0.2526,0.5536,-0.2089l0.8963,0.1863l0.2188,-0.5523l-0.7778,-0.4762c-0.1817,-0.111,-0.2838,-0.32,-0.2596,-0.5322c0.03,-0.2617,0.0281,-0.5271,-0.0055,-0.7891c-0.0267,-0.2076,0.0691,-0.416,0.244,-0.5309l0.786,-0.5156l-0.2358,-0.5452l-0.8811,0.2119c-0.2104,0.0509,-0.4325,-0.0273,-0.5652,-0.1995c-0.1706,-0.2207,-0.3702,-0.4199,-0.593,-0.5914c-0.1661,-0.128,-0.2459,-0.3431,-0.2036,-0.5481l0.1915,-0.9212l-0.5523,-0.2188l-0.4756,0.7767c-0.1126,0.1844,-0.3246,0.2861,-0.5396,0.2588c-0.2622,-0.0332,-0.5295,-0.0341,-0.7946,-0.0026c-0.2099,0.0239,-0.4106,-0.0694,-0.5257,-0.2447l-0.5084,-0.7753l-0.5453,0.2358l0.2038,0.8473c0.0515,0.2125,-0.0284,0.4359,-0.2036,0.5684c-0.2334,0.176,-0.4425,0.3829,-0.6217,0.6153c-0.1277,0.166,-0.3431,0.246,-0.5488,0.2029l-0.878,-0.1825l-0.2188,0.5523l0.735,0.45c0.1861,0.1144,0.2872,0.3273,0.2583,0.543c-0.0365,0.2763,-0.037,0.5588,-0.0014,0.8387c0.0266,0.207,-0.0691,0.4154,-0.244,0.5302l-0.7349,0.482l0.2358,0.5453l0.8137,-0.1957c0.2118,-0.0513,0.4343,0.0281,0.5667,0.2015c0.1828,0.2401,0.3979,0.4537,0.6398,0.6354c0.1699,0.128,0.2517,0.3445,0.2088,0.5521L3.4077,14.6836zM8.2971,13.3949c0.0003,0,0.0006,0.0001,0.0009,0.0002L8.2971,13.3949zM9.9371,12.2463c0.0003,0.0002,0.0007,0.0004,0.001,0.0006L9.9371,12.2463zM0.9704,11.7431l0.0003,0.0008C0.9706,11.7437,0.9705,11.7434,0.9704,11.7431zM1.1073,11.2034c0,0.0004,0.0001,0.0008,0.0001,0.0012C1.1074,11.2042,1.1073,11.2038,1.1073,11.2034zM1.1094,10.1073c-0.0001,0.0006,-0.0001,0.0012,-0.0002,0.0018C1.1093,10.1084,1.1093,10.1079,1.1094,10.1073zM1.9615,8.062c-0.0002,0.0003,-0.0004,0.0005,-0.0007,0.0008C1.9611,8.0625,1.9613,8.0623,1.9615,8.062zM8.712,8.0609c0.0003,0.0004,0.0006,0.0007,0.0009,0.0011C8.7126,8.0617,8.7123,8.0613,8.712,8.0609zM8.2531,7.9001c-0.0003,0.0001,-0.0007,0.0001,-0.0011,0.0002L8.2531,7.9001zM2.606,7.7229c0,0.0004,0.0001,0.0008,0.0002,0.0011L2.606,7.7229zM5.4356,6.6477c-0.0001,0.0002,-0.0003,0.0005,-0.0005,0.0008L5.4356,6.6477zM4.2667,6.2564l-0.0008,0.0004C4.2662,6.2567,4.2664,6.2566,4.2667,6.2564zM6.9613,6.071l-0.0007,0.0011C6.9608,6.0718,6.9611,6.0714,6.9613,6.071z" fill="#6E6F72"/>
    <path d="M15.5145,4.424l-0.8989,-0.4209c-0.0163,-0.0076,-0.0266,-0.024,-0.0267,-0.042c-0.0024,-0.382,-0.0909,-0.7638,-0.2662,-1.114c-0.0079,-0.0158,-0.0064,-0.0346,0.0041,-0.0487l0.5898,-0.7927c0.0127,-0.017,0.0127,-0.0404,-0.0004,-0.0571c-0.2005,-0.2566,-0.4475,-0.5172,-0.6964,-0.7276c-0.0163,-0.0138,-0.0398,-0.0146,-0.0573,-0.0024l-0.8011,0.5599c-0.0148,0.0103,-0.0341,0.0111,-0.0498,0.0021c-0.3448,-0.1962,-0.7264,-0.3049,-1.1124,-0.3257c-0.0177,-0.001,-0.0333,-0.0117,-0.0404,-0.028l-0.3877,-0.8982c-0.0084,-0.0195,-0.0286,-0.0311,-0.0497,-0.0282c-0.3225,0.0453,-0.6717,0.1289,-0.9783,0.2392c-0.0201,0.0072,-0.0326,0.0272,-0.0308,0.0486l0.0842,0.9719c0.0015,0.0179,-0.0073,0.0349,-0.0227,0.044c-0.1621,0.0963,-0.316,0.2123,-0.4581,0.3483c-0.1451,0.139,-0.27,0.2912,-0.3747,0.4528c-0.0097,0.0149,-0.0268,0.0231,-0.0445,0.021l-0.9762,-0.1146c-0.0211,-0.0025,-0.0413,0.0092,-0.0493,0.0289c-0.1222,0.3018,-0.2247,0.646,-0.2827,0.9666c-0.0038,0.021,0.0073,0.0419,0.0266,0.0509l0.8952,0.4192c0.0162,0.0076,0.0264,0.0237,0.0267,0.0415c0.0062,0.3799,0.0976,0.759,0.2748,1.1062c0.0081,0.0158,0.0067,0.0348,-0.004,0.0491l-0.5964,0.8003c-0.0127,0.017,-0.0127,0.0404,0.0004,0.0571c0.2003,0.2568,0.4471,0.5176,0.6958,0.7282c0.0163,0.0138,0.0398,0.0147,0.0573,0.0024l0.822,-0.5736c0.0147,-0.0102,0.0338,-0.011,0.0494,-0.0024c0.3359,0.1867,0.7059,0.2913,1.0802,0.3129c0.0176,0.001,0.0331,0.0117,0.0401,0.0279l0.3993,0.9268c0.0084,0.0195,0.0286,0.0312,0.0496,0.0282c0.3225,-0.0451,0.6718,-0.1284,0.9785,-0.2385c0.0201,-0.0072,0.0326,-0.0272,0.0308,-0.0485l-0.0859,-1.0006c-0.0015,-0.0179,0.0073,-0.0348,0.0227,-0.044c0.1622,-0.0964,0.3162,-0.2124,0.4583,-0.3485c0.1377,-0.1318,0.2571,-0.2755,0.3584,-0.4279c0.0097,-0.0147,0.0267,-0.0227,0.0442,-0.0206l0.9966,0.1169c0.0211,0.0025,0.0413,-0.0092,0.0493,-0.0289c0.1222,-0.3018,0.2247,-0.646,0.2827,-0.9667C15.545,4.4539,15.5339,4.4331,15.5145,4.424zM12.2804,4.8719c-0.4864,0.1191,-0.9772,-0.1787,-1.0963,-0.6651c-0.1191,-0.4864,0.1787,-0.9772,0.6651,-1.0963s0.9772,0.1787,1.0963,0.6651C13.0646,4.262,12.7668,4.7528,12.2804,4.8719z" fill="#FFFFFF" opacity="0.5"/>
    <path d="M12.3996,7.9326c-0.196,0,-0.3777,-0.1167,-0.4569,-0.3005l-0.3055,-0.7093c-0.2718,-0.0394,-0.5385,-0.1165,-0.7889,-0.2281l-0.6257,0.4366c-0.1852,0.1291,-0.434,0.1173,-0.6058,-0.0282c-0.2656,-0.2249,-0.5354,-0.5072,-0.7597,-0.7947c-0.1373,-0.1764,-0.1396,-0.4243,-0.006,-0.6032l0.4537,-0.6087c-0.1049,-0.2594,-0.1732,-0.5343,-0.2021,-0.8131l-0.6783,-0.3176c-0.2042,-0.0959,-0.3186,-0.3173,-0.2786,-0.5386c0.0621,-0.3426,0.1716,-0.7174,0.3084,-1.0554c0.0837,-0.2068,0.2971,-0.3336,0.5191,-0.3068l0.7389,0.0867c0.0893,-0.1148,0.1872,-0.2232,0.2925,-0.3241c0.1013,-0.097,0.2093,-0.1868,0.3229,-0.2684l-0.0634,-0.7321c-0.0195,-0.2245,0.1149,-0.4347,0.327,-0.5108c0.3272,-0.1177,0.7065,-0.2105,1.0678,-0.2614c0.2212,-0.031,0.4375,0.0908,0.5257,0.296l0.2933,0.6793c0.2846,0.0402,0.5635,0.1215,0.8243,0.2406l0.6026,-0.4212c0.1853,-0.1289,0.4339,-0.1175,0.6055,0.0274c0.2661,0.225,0.5361,0.5071,0.7607,0.7945c0.1372,0.175,0.1403,0.4229,0.0072,0.6023l-0.4492,0.6037c0.1037,0.2618,0.1703,0.5393,0.1969,0.8208l0.6796,0.3183c0.2042,0.0956,0.3187,0.3169,0.2786,0.5386c-0.0621,0.3426,-0.1716,0.7174,-0.3084,1.0554c-0.0836,0.2068,-0.2975,0.3334,-0.5191,0.3068l-0.7624,-0.0895c-0.084,0.1057,-0.1753,0.2058,-0.2729,0.2992c-0.1014,0.0971,-0.2095,0.1869,-0.3232,0.2687l0.0653,0.7609c0.0195,0.2244,-0.1151,0.4346,-0.3273,0.5106c-0.3273,0.1175,-0.7067,0.2101,-1.068,0.2605C12.445,7.931,12.4222,7.9326,12.3996,7.9326zM12.9664,7.2333c0,0.0002,0,0.0005,0.0001,0.0008L12.9664,7.2333zM10.814,5.731c0.0832,0,0.1665,0.0206,0.2412,0.0621c0.2701,0.1501,0.577,0.239,0.8874,0.2569c0.189,0.011,0.3527,0.1257,0.4274,0.2992l0.2735,0.635c0.0998,-0.0208,0.1989,-0.0447,0.2955,-0.0714l-0.0583,-0.6797c-0.0165,-0.1879,0.0781,-0.3724,0.241,-0.4692c0.1357,-0.0807,0.2625,-0.1771,0.3772,-0.2868c0.111,-0.1063,0.2102,-0.2247,0.2947,-0.3519c0.1041,-0.1566,0.2845,-0.2405,0.4715,-0.2185l0.6811,0.0799c0.0319,-0.0968,0.0607,-0.1946,0.0858,-0.2916l-0.6071,-0.2843c-0.1727,-0.0809,-0.2849,-0.2564,-0.2859,-0.4471c-0.002,-0.3167,-0.0776,-0.6333,-0.2186,-0.9151c-0.0844,-0.1694,-0.0668,-0.368,0.0457,-0.5189l0.4,-0.5376c-0.068,-0.076,-0.1384,-0.1498,-0.2098,-0.22l-0.537,0.3753c-0.1557,0.1093,-0.3643,0.119,-0.5304,0.0242c-0.2769,-0.1575,-0.593,-0.25,-0.9137,-0.2673c-0.19,-0.0105,-0.3543,-0.1251,-0.4294,-0.2992l-0.2618,-0.6063c-0.0997,0.0208,-0.1988,0.0449,-0.2954,0.0717l0.0564,0.651c0.0165,0.1882,-0.0781,0.3727,-0.241,0.4696c-0.1357,0.0807,-0.2625,0.1771,-0.377,0.2867c-0.117,0.1121,-0.2207,0.2374,-0.3082,0.3724c-0.1037,0.1602,-0.2856,0.2455,-0.4752,0.2233l-0.66,-0.0775c-0.0319,0.0968,-0.0607,0.1946,-0.0858,0.2916l0.6035,0.2826c0.1705,0.0798,0.2827,0.2532,0.2858,0.4417c0.0051,0.3155,0.0832,0.6298,0.2257,0.909c0.0868,0.1694,0.07,0.37,-0.0442,0.5229l-0.4063,0.5453c0.0678,0.076,0.1382,0.1499,0.2096,0.2201l0.5578,-0.3892C10.614,5.7608,10.7139,5.731,10.814,5.731zM9.5729,6.2427l-0.0005,0.0008C9.5725,6.2433,9.5727,6.243,9.5729,6.2427zM13.7772,6.1553l0.0001,0.0012C13.7772,6.1562,13.7772,6.1558,13.7772,6.1553zM9.4107,5.3293c0.0002,0.0003,0.0004,0.0007,0.0006,0.0011C9.4111,5.3301,9.4109,5.3297,9.4107,5.3293zM15.0389,3.9575c0,0.0002,0,0.0005,0,0.0008C15.0389,3.958,15.0389,3.9578,15.0389,3.9575zM14.5614,2.2253c0.0002,0.0002,0.0004,0.0005,0.0006,0.0008C14.5618,2.2258,14.5616,2.2255,14.5614,2.2253zM9.9481,2.1793l0.001,0.0001C9.9487,2.1794,9.9484,2.1793,9.9481,2.1793zM10.3482,1.7988c0,0.0002,0,0.0004,0,0.0006L10.3482,1.7988zM13.1042,1.4091c-0.0004,0.0003,-0.0009,0.0006,-0.0013,0.0009L13.1042,1.4091zM13.5334,1.389c0.0002,0.0001,0.0005,0.0003,0.0007,0.0004C13.5339,1.3893,13.5336,1.3891,13.5334,1.389zM11.358,0.707c0.0001,0.0003,0.0003,0.0007,0.0004,0.001L11.358,0.707z" fill="#6E6F72"/>
    <path d="M12.0648,5.148c-0.5344,0,-0.9964,-0.3626,-1.1236,-0.8818c-0.1516,-0.6196,0.2291,-1.247,0.8486,-1.3986c0.0914,-0.0224,0.1848,-0.0337,0.2775,-0.0337c0.2094,0,0.416,0.0582,0.5976,0.1683c0.2641,0.1603,0.45,0.4138,0.5235,0.7139c0.0734,0.3001,0.0256,0.6109,-0.1347,0.875c-0.1602,0.2642,-0.4138,0.45,-0.7139,0.5236C12.2495,5.1368,12.1569,5.148,12.0648,5.148zM12.0657,3.3343c-0.0526,0,-0.1055,0.0064,-0.157,0.019c-0.3517,0.086,-0.5678,0.4422,-0.4817,0.794c0.0417,0.1704,0.1473,0.3143,0.2973,0.4053c0.1028,0.0625,0.2204,0.0955,0.3397,0.0955c0.0527,0,0.1056,-0.0064,0.1571,-0.0191c0.17,-0.0416,0.3139,-0.1472,0.4049,-0.2973c0.0911,-0.15,0.1183,-0.3265,0.0767,-0.4967c-0.0417,-0.1704,-0.1473,-0.3143,-0.2972,-0.4053C12.3026,3.3673,12.1851,3.3343,12.0657,3.3343z" fill="#6E6F72"/>
    <path d="M5.2888,12.368c-0.3386,0,-0.6646,-0.1026,-0.9428,-0.2967c-0.7513,-0.5357,-0.9302,-1.5418,-0.4064,-2.2897c0.2554,-0.3647,0.6338,-0.6057,1.0655,-0.6786c0.089,-0.015,0.1803,-0.0226,0.2712,-0.0226c0.3467,0,0.6911,0.1107,0.9695,0.3118c0.7391,0.5339,0.9105,1.5343,0.3904,2.2775C6.3302,12.107,5.8265,12.368,5.2888,12.368zM5.2784,9.8802c-0.0471,0,-0.0943,0.004,-0.1402,0.0117c-0.1548,0.0261,-0.3747,0.1078,-0.5433,0.3486c-0.2687,0.3836,-0.1754,0.9007,0.2123,1.1771c0.1422,0.0992,0.3166,0.1535,0.492,0.1535c0.273,0,0.5214,-0.1312,0.6817,-0.3601c0.2667,-0.3812,0.1774,-0.8953,-0.2034,-1.1703C5.6339,9.9372,5.4567,9.8802,5.2784,9.8802z" fill="#6E6F72"/>
  </g>
</svg>
