<?xml version="1.0" encoding="UTF-8"?>
<!DOCTYPE svg PUBLIC "-//W3C//DTD SVG 1.1//EN" "http://www.w3.org/Graphics/SVG/1.1/DTD/svg11.dtd">
<svg version="1.1" id="Layer_1" xmlns="http://www.w3.org/2000/svg" xmlns:xlink="http://www.w3.org/1999/xlink" x="0px" y="0px" width="16px" height="16px" viewBox="0 0 16 16" enable-background="new 0 0 16 16" xml:space="preserve">
  <g id="icon">
    <path d="M10.6374,4.8338c-0.9391,-1.33,-1.9102,-2.7052,-2.3891,-4.0481C8.2081,0.6729,8.1108,0.6,8.0003,0.6c-0.1107,0,-0.2081,0.0732,-0.2482,0.1864c-0.4779,1.3494,-1.4544,2.735,-2.3987,4.075C4.0403,6.7245,2.8,8.4844,2.8,10.1635c0,1.4476,0.543,2.7811,1.5291,3.7548C5.2967,14.8738,6.6003,15.4,8,15.4c1.4028,0,2.7065,-0.5222,3.6707,-1.4706c0.9862,-0.9699,1.5293,-2.3073,1.5293,-3.7659C13.2,8.4629,11.9553,6.7001,10.6374,4.8338z" fill="#FFFFFF" opacity="0.5"/>
    <path d="M8,15.95c-1.5454,0,-2.9863,-0.5825,-4.0574,-1.6403C2.8511,13.2319,2.25,11.7594,2.25,10.1635c0,-1.8535,1.2891,-3.6826,2.6538,-5.619c0.9229,-1.3096,1.8773,-2.6638,2.3298,-3.9417C7.3508,0.2722,7.6589,0.05,8.0003,0.05c0.3407,0,0.6485,0.2214,0.7661,0.5509c0.4488,1.2588,1.3828,2.5878,2.2914,3.8748l0.0289,0.0408c1.3697,1.9397,2.6633,3.7717,2.6633,5.647c0,1.6072,-0.6015,3.0839,-1.6937,4.1581C10.9886,15.3717,9.548,15.95,8,15.95zM8.0011,1.634c-0.5443,1.1975,-1.3846,2.3897,-2.1979,3.5438C4.5415,6.9681,3.35,8.6588,3.35,10.1635c0,1.2994,0.485,2.4939,1.3656,3.3635C5.5794,14.3802,6.7459,14.85,8,14.85c1.2577,0,2.4244,-0.4662,3.285,-1.3127c0.8802,-0.8657,1.365,-2.0639,1.365,-3.3738c0,-1.5261,-1.1958,-3.2196,-2.4619,-5.0124l-0.0289,-0.0409h0C9.3602,3.9784,8.5384,2.8098,8.0011,1.634z" fill="#6E6F72"/>
    <path d="M10.5283,9.8493c0.0651,-0.9208,-0.8172,-2.0654,-1.1979,-2.5592c-0.0636,-0.0824,-0.1167,-0.1515,-0.1554,-0.2051c-0.1261,-0.1677,-0.4521,-0.6007,-0.6689,-1.0879l0.8276,-0.354c0.1755,0.3893,0.4551,0.7607,0.5629,0.9039l0.0062,0.0085c0.0315,0.0438,0.075,0.1003,0.127,0.1676l0.0134,0.0174c0.4858,0.6303,1.49,1.9332,1.3802,3.2066L10.5283,9.8493z" fill="#6E6F72"/>
  </g>
</svg>
