<?xml version="1.0" encoding="UTF-8"?>
<!DOCTYPE svg PUBLIC "-//W3C//DTD SVG 1.1//EN" "http://www.w3.org/Graphics/SVG/1.1/DTD/svg11.dtd">
<svg version="1.1" id="Layer_1" xmlns="http://www.w3.org/2000/svg" xmlns:xlink="http://www.w3.org/1999/xlink" x="0px" y="0px" width="16px" height="16px" viewBox="0 0 16 16" enable-background="new 0 0 16 16" xml:space="preserve">
  <g id="icon">
    <path d="M9.5,0.5l6.2,6.1l-2.1,2.1L7.3,2.4L9.5,0.5zM10.5172,9.1828L12.1,7.6l-0.4,-0.3L8.7,4.2l-0.2,-0.4l-0.9727,0.9727L10.5172,9.1828zM1.4173,10.8827L0.4,11.9v1.8l1.7,1.8l1.9,0.2l0.3622,-0.3622L1.4173,10.8827z" fill="#FFFFFF" opacity="0.5"/>
    <path d="M15.6987,5.9346L10.0654,0.3013c-0.3964,-0.3964,-1.0414,-0.3964,-1.4378,0L6.5181,2.4108l1.6642,1.6642l-0.6684,0.6684l0.5853,0.8289l0.7902,-0.7902l2.3284,2.3284L9.963,8.3654l0.5714,0.8428l1.3905,-1.3905l1.6642,1.6642l2.1096,-2.1096C16.0951,6.976,16.0951,6.331,15.6987,5.9346zM14.9916,6.6652l-1.4024,1.4024l-0.9571,-0.9571l0,0l-1.8713,-1.8713L7.9323,2.4108l1.4024,-1.4024c0.0064,-0.0065,0.0171,-0.0065,0.0235,0l5.6333,5.6333C14.9981,6.6482,14.9981,6.6587,14.9916,6.6652zM4.3792,15.3634l-0.6388,0.6388l-1.8167,-0.0153L0.013,14.0763l-0.0153,-1.8167l1.4026,-1.4026l0.5628,0.8514l-0.962,0.962l0.0083,0.9882l1.3319,1.3319l0.9882,0.0083l0.4868,-0.4868L4.3792,15.3634zM1.962,10.2953l0.7505,-0.7505l3.012,4.4733l-0.7505,0.7505L1.962,10.2953zM3.3762,8.8811l0.7505,-0.7505l3.012,4.4733l-0.7505,0.7505L3.3762,8.8811zM4.7904,7.4669l0.7505,-0.7505l3.012,4.4733l-0.7505,0.7505L4.7904,7.4669zM6.2047,6.0527l0.7505,-0.7505l3.012,4.4733l-0.7505,0.7505L6.2047,6.0527z" fill="#6485C3"/>
  </g>
</svg>
