<?xml version="1.0" encoding="UTF-8"?>
<!DOCTYPE svg PUBLIC "-//W3C//DTD SVG 1.1//EN" "http://www.w3.org/Graphics/SVG/1.1/DTD/svg11.dtd">
<svg version="1.1" id="Layer_1" xmlns="http://www.w3.org/2000/svg" xmlns:xlink="http://www.w3.org/1999/xlink" x="0px" y="0px" width="16px" height="16px" viewBox="0 0 16 16" enable-background="new 0 0 16 16" xml:space="preserve">
  <g id="icon">
    <path d="M12.05,5.5003c1.9054,0,3.45,1.8707,3.45,4.0513C15.5,11.7323,13.9554,13.5,12.05,13.5h-8.8C1.7312,13.5,0.5,12.0909,0.5,10.3528c0,-1.4564,0.8646,-2.6812,2.0382,-3.0402C2.8103,4.9909,4.5468,3.2,6.65,3.2c2.0848,0.0677,3.112,0.9425,4.0458,2.5717C11.2,5.569,11.4741,5.5003,12.05,5.5003z" fill="#FFFFFF" opacity="0.5"/>
    <path d="M12.05,14h-8.8C1.458,14,0,12.3639,0,10.3528c0,-1.519,0.8432,-2.8719,2.086,-3.4061C2.5045,4.5049,4.4197,2.7,6.65,2.7l0.0162,0.0002c2.2236,0.0723,3.3473,1.0226,4.2458,2.4587c0.3411,-0.1104,0.6504,-0.1586,1.138,-0.1586c1.0661,0,2.0682,0.4921,2.8217,1.3855C15.5993,7.2486,16,8.3729,16,9.5517C16,12.0045,14.228,14,12.05,14zM6.642,3.7c-1.8124,0.0046,-3.3623,1.5812,-3.6072,3.6708l-0.038,0.3244l-0.3124,0.0956C1.6927,8.0941,1,9.1477,1,10.3528C1,11.8125,2.0093,13,3.25,13h8.8c1.6266,0,2.95,-1.5469,2.95,-3.4483c0,-1.925,-1.3509,-3.5513,-2.95,-3.5513c-0.5061,0,-0.7143,0.053,-1.1676,0.2353l-0.4039,0.1624l-0.2165,-0.3776C9.4484,4.6008,8.5948,3.7657,6.642,3.7z" fill="#6D6E71"/>
    <path d="M4.7505,12c-0.2623,0,-0.5102,-0.0478,-0.7368,-0.1421c-0.2313,-0.0962,-0.4347,-0.237,-0.6046,-0.4186c-0.1671,-0.1787,-0.2978,-0.3947,-0.3883,-0.6422c-0.0876,-0.2392,-0.132,-0.5074,-0.132,-0.7971c0,-0.2816,0.0445,-0.5455,0.1323,-0.7843c0.0906,-0.2466,0.2223,-0.4632,0.3914,-0.6438c0.1716,-0.1833,0.3792,-0.3265,0.6166,-0.4255C4.2621,8.0493,4.5189,8,4.7924,8c0.1244,0,0.2446,0.0099,0.3574,0.0293c0.117,0.0201,0.2304,0.0512,0.3368,0.0921c0.1038,0.04,0.2045,0.0896,0.2995,0.1476c0.09,0.0549,0.1792,0.1189,0.2648,0.1902l-0.6398,0.7686c-0.0481,-0.0401,-0.0972,-0.0754,-0.1457,-0.105c-0.044,-0.0269,-0.0906,-0.0498,-0.1385,-0.0683c-0.045,-0.0174,-0.0944,-0.0307,-0.1469,-0.0397C4.923,9.005,4.86,9,4.7924,9c-0.1427,0,-0.2665,0.0227,-0.3784,0.0694c-0.1075,0.0448,-0.1963,0.1057,-0.2716,0.1861c-0.0781,0.0834,-0.1378,0.1832,-0.1827,0.3052c-0.0471,0.1281,-0.0709,0.2758,-0.0709,0.4393c0,0.172,0.0239,0.3246,0.0711,0.4534c0.0449,0.1226,0.1036,0.2216,0.1795,0.3028c0.0731,0.0781,0.1576,0.1365,0.2584,0.1784c0.1058,0.044,0.2211,0.0654,0.3527,0.0654c0.0878,0,0.1667,-0.0069,0.2345,-0.0206c0.0668,-0.0135,0.1273,-0.0316,0.1796,-0.0538c0.0511,-0.0217,0.098,-0.0475,0.1393,-0.0766c0.0484,-0.034,0.0942,-0.0721,0.1363,-0.1132l0.6988,0.7153c-0.0804,0.0785,-0.1678,0.1511,-0.2599,0.2158c-0.0986,0.0693,-0.2074,0.1296,-0.3233,0.1789c-0.1147,0.0487,-0.2403,0.087,-0.3735,0.1138C5.0496,11.9865,4.9043,12,4.7505,12zM8.6009,11.8549c0.2265,-0.0982,0.4239,-0.2412,0.5867,-0.4248c0.158,-0.1781,0.2812,-0.3933,0.3663,-0.6396c0.0816,-0.2364,0.1229,-0.5017,0.1229,-0.7883c0,-0.2864,-0.0413,-0.5518,-0.1228,-0.7888c-0.0848,-0.2467,-0.2078,-0.4625,-0.3655,-0.6413c-0.1631,-0.1849,-0.3608,-0.3286,-0.5876,-0.4269C8.3788,8.0488,8.1337,8,7.8727,8c-0.2606,0,-0.5055,0.0495,-0.7277,0.1473c-0.2252,0.0991,-0.4218,0.2427,-0.5841,0.4269c-0.1578,0.1789,-0.2808,0.3946,-0.3656,0.6413c-0.0814,0.2369,-0.1227,0.5015,-0.1227,0.7867c0,0.2868,0.0414,0.552,0.1229,0.7884c0.085,0.2462,0.2083,0.4614,0.3662,0.6394c0.1627,0.1836,0.3596,0.3265,0.5851,0.4247c0.2217,0.0965,0.4659,0.1454,0.7259,0.1454C8.1337,12,8.3788,11.9512,8.6009,11.8549zM8.2031,9.0626c0.0923,0.04,0.1694,0.0959,0.2355,0.1709c0.0706,0.0801,0.1278,0.1827,0.1698,0.3049c0.0454,0.1321,0.0685,0.2881,0.0685,0.4637c0,0.1754,-0.0229,0.3309,-0.0682,0.462c-0.0419,0.1214,-0.0988,0.2231,-0.1692,0.3025c-0.0662,0.0747,-0.1435,0.1306,-0.2363,0.1708C8.106,10.9795,7.9979,11,7.8727,11c-0.1236,0,-0.2305,-0.0204,-0.3267,-0.0623c-0.0924,-0.0403,-0.1696,-0.0962,-0.2362,-0.1713c-0.0704,-0.0793,-0.1272,-0.181,-0.1691,-0.3022c-0.0453,-0.1311,-0.0682,-0.2866,-0.0682,-0.4621c0,-0.1743,0.023,-0.3295,0.0684,-0.4615c0.042,-0.1222,0.0992,-0.2248,0.17,-0.305c0.0667,-0.0756,0.1441,-0.1322,0.2367,-0.1729C7.6434,9.0205,7.7497,9,7.8727,9C7.9979,9,8.106,9.0205,8.2031,9.0626zM13.1,11h-1.5521l0.6016,-0.6264c0.1207,-0.1217,0.236,-0.2409,0.3459,-0.3577c0.1239,-0.1316,0.2352,-0.2687,0.331,-0.4078c0.1044,-0.1519,0.189,-0.3137,0.2513,-0.4811c0.0689,-0.1851,0.1039,-0.3852,0.1039,-0.5948c0,-0.2583,-0.0492,-0.4898,-0.1462,-0.6882c-0.0952,-0.1942,-0.2235,-0.3582,-0.3814,-0.4873c-0.1531,-0.1251,-0.3294,-0.2182,-0.524,-0.2766c-0.3842,-0.1152,-0.8027,-0.104,-1.1512,0.021c-0.1912,0.0686,-0.3634,0.1684,-0.5119,0.2966c-0.1506,0.13,-0.275,0.289,-0.3694,0.4725c-0.0916,0.1777,-0.1523,0.3765,-0.1806,0.5909l0.9914,0.1309c0.0132,-0.0999,0.0395,-0.1886,0.0782,-0.2638c0.0361,-0.0701,0.0798,-0.1268,0.1339,-0.1734c0.0559,-0.0483,0.12,-0.085,0.1961,-0.1123c0.149,-0.0535,0.3449,-0.0586,0.5263,-0.0044c0.0687,0.0206,0.127,0.051,0.1784,0.093c0.0463,0.0378,0.0844,0.0879,0.1161,0.1527c0.029,0.0593,0.0443,0.1452,0.0443,0.2484c0,0.0913,-0.0134,0.1717,-0.041,0.2457c-0.0337,0.0906,-0.0802,0.1792,-0.1381,0.2634c-0.0668,0.0971,-0.1459,0.1944,-0.2352,0.2892c-0.1042,0.1107,-0.2135,0.2237,-0.3334,0.3447L9.9,11.2723V12h3.2V11z" fill="#6D6E71"/>
  </g>
</svg>
