<?xml version="1.0" encoding="UTF-8"?>
<!DOCTYPE svg PUBLIC "-//W3C//DTD SVG 1.1//EN" "http://www.w3.org/Graphics/SVG/1.1/DTD/svg11.dtd">
<svg version="1.1" id="Layer_1" xmlns="http://www.w3.org/2000/svg" xmlns:xlink="http://www.w3.org/1999/xlink" x="0px" y="0px" width="16px" height="16px" viewBox="0 0 16 16" enable-background="new 0 0 16 16" xml:space="preserve">
  <g id="icon">
    <path d="M15.4,5.5084l-0.7122,-0.7012L12.4572,7.965l-1.7281,-0.6965c-0.1981,-0.9985,-0.9806,-1.7866,-1.9763,-1.9927l-0.7184,-1.7333l3.1582,-2.2305L10.4912,0.6L6.4368,2.3236l-0.2675,3.9588c-0.3007,0.4177,-0.4784,0.9299,-0.4784,1.4838c0,0.1533,0.0143,0.3031,0.0403,0.4489L0.5519,11.5552l0.0519,2.2838l0.5191,0.9343l0.8825,0.6229l2.4917,0.0519l3.2422,-5.1871c0.1602,0.0316,0.3257,0.0486,0.4952,0.0486c0.5541,0,1.0663,-0.1777,1.4841,-0.4784l3.9577,-0.2687L15.4,5.5084z" fill="#FFFFFF" opacity="0.5"/>
    <polygon points="9.5379,10.3445 9.4702,9.3468 13.3362,9.0843 14.8067,5.6259 14.7565,5.5765 12.6373,8.5767 10.4335,7.6886 10.8074,6.761 12.2771,7.3534 14.6191,4.0378 15.9933,5.3908 14.0163,10.0405" fill="#6E6F72" stroke-linejoin="miter"/>
    <polygon points="6.6537,6.5305 5.656,6.4631 5.9586,1.9835 10.6086,0.0067 11.9619,1.3808 8.6493,3.7204 9.2379,5.1405 8.3141,5.5234 7.4194,3.3647 10.423,1.2434 10.3737,1.1933 6.915,2.6636" fill="#6E6F72" stroke-linejoin="miter"/>
    <path d="M4.8306,16H2.6007C1.1667,16,0,14.8334,0,13.3995l0.0059,-2.1354l5.3282,-3.4603l0.5446,0.8387L1,11.8108v1.5887C1,14.282,1.7181,15,2.6007,15h1.6792l3.0798,-4.8705l0.8452,0.5345L4.8306,16z" fill="#6E6F72"/>
    <path d="M8.2345,10.8095c-1.6782,0,-3.0436,-1.3652,-3.0436,-3.0433c0,-1.6781,1.3653,-3.0434,3.0436,-3.0434s3.0436,1.3652,3.0436,3.0434C11.2781,9.4443,9.9127,10.8095,8.2345,10.8095zM8.2345,5.7229c-1.1268,0,-2.0436,0.9167,-2.0436,2.0434s0.9167,2.0433,2.0436,2.0433s2.0436,-0.9166,2.0436,-2.0433S9.3613,5.7229,8.2345,5.7229zM8.2345,6.9876c-0.43,0,-0.7786,0.3486,-0.7786,0.7786s0.3486,0.7786,0.7786,0.7786c0.43,0,0.7786,-0.3486,0.7786,-0.7786S8.6645,6.9876,8.2345,6.9876z" fill="#6486C4"/>
  </g>
</svg>
