<?xml version="1.0" encoding="UTF-8"?>
<!DOCTYPE svg PUBLIC "-//W3C//DTD SVG 1.1//EN" "http://www.w3.org/Graphics/SVG/1.1/DTD/svg11.dtd">
<svg version="1.1" id="Layer_1" xmlns="http://www.w3.org/2000/svg" xmlns:xlink="http://www.w3.org/1999/xlink" x="0px" y="0px" width="16px" height="16px" viewBox="0 0 16 16" enable-background="new 0 0 16 16" xml:space="preserve">
  <g id="icon">
    <rect x="9" y="13" width="7" height="3" fill="#FFFFFF" opacity="0.5"/>
    <path d="M0,1v15h9v-3h7V1H0zM7.4307,12.7359c-0.0073,0.0168,-0.0251,0.0264,-0.0432,0.0237l-0.8401,-0.1223c-0.0152,-0.0022,-0.0302,0.0044,-0.0389,0.0171c-0.0943,0.137,-0.2057,0.2654,-0.3343,0.382c-0.1259,0.114,-0.2615,0.2105,-0.4038,0.2898c-0.0135,0.0075,-0.0216,0.022,-0.0207,0.0375l0.0494,0.8411c0.0011,0.0184,-0.0102,0.0354,-0.0277,0.0412c-0.2674,0.0879,-0.5709,0.1517,-0.8504,0.1831c-0.0182,0.002,-0.0354,-0.0085,-0.0422,-0.0255l-0.3133,-0.7847c-0.0057,-0.0142,-0.0189,-0.0239,-0.0342,-0.0251c-0.3327,-0.0272,-0.6596,-0.1302,-0.9526,-0.3078c-0.0133,-0.0081,-0.03,-0.0079,-0.043,0.0007l-0.7051,0.4642c-0.0154,0.0101,-0.0357,0.0089,-0.0495,-0.0034c-0.2098,-0.1876,-0.4168,-0.4185,-0.5838,-0.6449c-0.0109,-0.0148,-0.0103,-0.0349,0.001,-0.0493l0.5282,-0.6703c0.0094,-0.012,0.0112,-0.0282,0.0047,-0.042c-0.143,-0.3066,-0.2103,-0.6383,-0.2032,-0.9682c0.0003,-0.0156,-0.0082,-0.0299,-0.0221,-0.0369l-0.766,-0.3849c-0.0165,-0.0083,-0.0256,-0.0265,-0.0218,-0.0446c0.0578,-0.2755,0.1545,-0.5701,0.2672,-0.8278c0.0073,-0.0168,0.0251,-0.0264,0.0432,-0.0237l0.8577,0.1248c0.0151,0.0022,0.0299,-0.0043,0.0387,-0.0167c0.0911,-0.1291,0.1976,-0.2504,0.3197,-0.3609c0.126,-0.1141,0.2617,-0.2106,0.404,-0.2899c0.0135,-0.0075,0.0216,-0.022,0.0207,-0.0374l-0.0502,-0.866c-0.0011,-0.0185,0.0102,-0.0354,0.0278,-0.0412c0.2675,-0.0877,0.571,-0.1513,0.8505,-0.1825c0.0182,-0.002,0.0354,0.0085,0.0422,0.0256l0.3225,0.8097c0.0056,0.0142,0.0188,0.0238,0.034,0.0251c0.3226,0.0276,0.6395,0.1268,0.9251,0.296c0.0133,0.0079,0.0298,0.0076,0.0427,-0.0008l0.7234,-0.4755c0.0154,-0.0101,0.0357,-0.0088,0.0495,0.0035c0.2097,0.1878,0.4165,0.4189,0.5833,0.6453c0.0109,0.0148,0.0103,0.0349,-0.001,0.0493l-0.5341,0.6767c-0.0095,0.0121,-0.0112,0.0284,-0.0046,0.0423c0.1447,0.304,0.2145,0.6335,0.2108,0.9616c-0.0002,0.0154,0.0083,0.0296,0.0221,0.0365l0.7628,0.3834c0.0165,0.0083,0.0256,0.0265,0.0218,0.0446C7.6401,12.1836,7.5434,12.4783,7.4307,12.7359zM13.9467,5.6847l-0.9099,0.5613c-0.0142,0.0087,-0.022,0.0248,-0.0203,0.0413c0.0279,0.2808,0.0184,0.557,-0.0243,0.8237c-0.0027,0.017,0.0047,0.0339,0.0191,0.0433l0.8839,0.5755c0.0178,0.0116,0.0247,0.0343,0.0163,0.0538l-0.4522,1.0553c-0.0084,0.0195,-0.0295,0.0302,-0.0502,0.0253l-1.0556,-0.2501c-0.0162,-0.0038,-0.0331,0.002,-0.0436,0.0149c-0.1809,0.2215,-0.3911,0.419,-0.626,0.5861c-0.0141,0.01,-0.021,0.0274,-0.0174,0.0443l0.2198,1.04c0.0044,0.0208,-0.0068,0.0417,-0.0265,0.0495l-1.066,0.4264c-0.0197,0.0079,-0.0422,0.0005,-0.0534,-0.0176l-0.5829,-0.9448c-0.0087,-0.014,-0.0245,-0.0219,-0.041,-0.0204c-0.2657,0.0241,-0.527,0.0149,-0.7799,-0.0243c-0.0169,-0.0026,-0.0338,0.0048,-0.0431,0.0192l-0.5982,0.9188c-0.0116,0.0178,-0.0343,0.0247,-0.0538,0.0163l-1.0553,-0.4522c-0.0195,-0.0084,-0.0302,-0.0295,-0.0253,-0.0502l0.2586,-1.0914c0.0038,-0.0162,-0.002,-0.0331,-0.0149,-0.0437c-0.2125,-0.1733,-0.4031,-0.3736,-0.5659,-0.5967c-0.0101,-0.0139,-0.0273,-0.0206,-0.0441,-0.017l-1.0689,0.2259c-0.0208,0.0044,-0.0417,-0.0068,-0.0495,-0.0265l-0.4264,-1.066c-0.0079,-0.0197,-0.0005,-0.0422,0.0176,-0.0534l0.9541,-0.5886c0.0142,-0.0088,0.022,-0.0248,0.0203,-0.0414c-0.0264,-0.2633,-0.0199,-0.5226,0.016,-0.7738c0.0024,-0.0167,-0.005,-0.0333,-0.0192,-0.0425l-0.9197,-0.5988c-0.0178,-0.0116,-0.0247,-0.0343,-0.0163,-0.0538l0.4522,-1.0553c0.0084,-0.0195,0.0295,-0.0302,0.0502,-0.0253l1.0713,0.2538c0.0164,0.0039,0.0335,-0.0021,0.044,-0.0153c0.176,-0.2216,0.3813,-0.4198,0.6107,-0.5888c0.0137,-0.0101,0.0204,-0.0272,0.0168,-0.0439l-0.22,-1.041c-0.0044,-0.0208,0.0068,-0.0417,0.0265,-0.0495l1.066,-0.4264c0.0197,-0.0079,0.0422,-0.0005,0.0534,0.0176l0.567,0.9191c0.0088,0.0143,0.0251,0.0221,0.0418,0.0203c0.2785,-0.0303,0.5525,-0.0232,0.8175,0.016c0.0168,0.0025,0.0335,-0.0049,0.0428,-0.0192l0.576,-0.8847c0.0116,-0.0178,0.0343,-0.0247,0.0538,-0.0163l1.0553,0.4522c0.0195,0.0084,0.0302,0.0295,0.0253,0.0502l-0.2453,1.0354c-0.0039,0.0164,0.0021,0.0335,0.0153,0.0439c0.2308,0.1835,0.4364,0.3986,0.6098,0.6399c0.0101,0.014,0.0273,0.0208,0.0442,0.0173l1.0112,-0.2137c0.0208,-0.0044,0.0417,0.0068,0.0495,0.0265l0.4264,1.066C13.9721,5.651,13.9647,5.6735,13.9467,5.6847zM13,14h3v2h-3V14zM5.4737,11.2421c0.0912,0.4228,-0.1777,0.8394,-0.6005,0.9306c-0.4228,0.0912,-0.8394,-0.1777,-0.9306,-0.6005c-0.0911,-0.4228,0.1777,-0.8394,0.6005,-0.9306C4.9659,10.5505,5.3825,10.8193,5.4737,11.2421zM10.7803,7.4022c-0.4414,0.5946,-1.2385,0.6518,-1.7659,0.2481c-0.536,-0.4102,-0.6707,-1.1797,-0.251,-1.7453c0.434,-0.585,1.2197,-0.653,1.7554,-0.2568C11.0699,6.0648,11.1992,6.838,10.7803,7.4022zM10,14h2v2h-2V14z" fill="#6485C3"/>
    <path d="M5.7188,5.5063l0.9197,0.5988c0.0142,0.0092,0.0216,0.0258,0.0192,0.0425c-0.0359,0.2512,-0.0424,0.5105,-0.016,0.7738c0.0017,0.0166,-0.0062,0.0327,-0.0203,0.0414l-0.9541,0.5886c-0.0181,0.0111,-0.0255,0.0337,-0.0176,0.0534l0.4264,1.066c0.0079,0.0197,0.0288,0.0309,0.0495,0.0265l1.0689,-0.2259c0.0168,-0.0035,0.034,0.0032,0.0441,0.017c0.1628,0.2232,0.3534,0.4234,0.5659,0.5967c0.0129,0.0105,0.0188,0.0274,0.0149,0.0437l-0.2586,1.0914c-0.0049,0.0206,0.0058,0.0418,0.0253,0.0502l1.0553,0.4522c0.0195,0.0084,0.0422,0.0015,0.0538,-0.0163l0.5982,-0.9188c0.0094,-0.0144,0.0262,-0.0218,0.0431,-0.0192c0.2529,0.0392,0.5142,0.0484,0.7799,0.0243c0.0164,-0.0015,0.0323,0.0063,0.041,0.0204l0.5829,0.9448c0.0111,0.0181,0.0337,0.0255,0.0534,0.0176l1.066,-0.4264c0.0197,-0.0079,0.0309,-0.0288,0.0265,-0.0495l-0.2198,-1.04c-0.0036,-0.017,0.0033,-0.0343,0.0174,-0.0443c0.2349,-0.1671,0.4451,-0.3646,0.626,-0.5861c0.0105,-0.0129,0.0274,-0.0187,0.0436,-0.0149l1.0556,0.2501c0.0206,0.0049,0.0418,-0.0058,0.0502,-0.0253l0.4522,-1.0553c0.0084,-0.0195,0.0015,-0.0422,-0.0163,-0.0538l-0.8839,-0.5755c-0.0144,-0.0094,-0.0218,-0.0263,-0.0191,-0.0433c0.0427,-0.2667,0.0522,-0.5428,0.0243,-0.8237c-0.0016,-0.0166,0.0062,-0.0326,0.0203,-0.0413l0.9099,-0.5613c0.0181,-0.0111,0.0255,-0.0337,0.0176,-0.0534l-0.4264,-1.066c-0.0079,-0.0197,-0.0288,-0.0309,-0.0495,-0.0265l-1.0112,0.2137c-0.0169,0.0036,-0.0341,-0.0032,-0.0442,-0.0173c-0.1734,-0.2413,-0.379,-0.4564,-0.6098,-0.6399c-0.0132,-0.0105,-0.0192,-0.0275,-0.0153,-0.044l0.2453,-1.0354c0.0049,-0.0206,-0.0058,-0.0418,-0.0253,-0.0502l-1.0553,-0.4522c-0.0195,-0.0084,-0.0422,-0.0015,-0.0538,0.0163l-0.576,0.8847c-0.0093,0.0143,-0.026,0.0217,-0.0428,0.0192c-0.265,-0.0393,-0.539,-0.0464,-0.8175,-0.016c-0.0167,0.0018,-0.0329,-0.006,-0.0418,-0.0203l-0.567,-0.9191c-0.0111,-0.0181,-0.0337,-0.0255,-0.0534,-0.0176l-1.066,0.4264c-0.0197,0.0079,-0.0309,0.0288,-0.0265,0.0495l0.22,1.041c0.0035,0.0167,-0.0031,0.0338,-0.0168,0.0439c-0.2294,0.169,-0.4347,0.3672,-0.6107,0.5888c-0.0105,0.0132,-0.0276,0.0192,-0.044,0.0153L6.2049,4.372c-0.0206,-0.0049,-0.0418,0.0058,-0.0502,0.0253l-0.4522,1.0553C5.6942,5.4721,5.7011,5.4948,5.7188,5.5063zM8.7633,5.905c0.434,-0.585,1.2197,-0.653,1.7554,-0.2568c0.5512,0.4166,0.6806,1.1898,0.2616,1.7541c-0.4414,0.5946,-1.2385,0.6518,-1.7659,0.2481C8.4783,7.24,8.3437,6.4705,8.7633,5.905zM1.7401,10.951l0.766,0.3849c0.0139,0.007,0.0224,0.0213,0.0221,0.0369c-0.0071,0.3298,0.0602,0.6616,0.2032,0.9682c0.0064,0.0138,0.0047,0.03,-0.0047,0.042l-0.5282,0.6703c-0.0113,0.0144,-0.0119,0.0346,-0.001,0.0493c0.1669,0.2263,0.374,0.4573,0.5838,0.6449c0.0138,0.0123,0.034,0.0136,0.0495,0.0034l0.7051,-0.4642c0.013,-0.0086,0.0297,-0.0087,0.043,-0.0007c0.293,0.1776,0.6199,0.2807,0.9526,0.3078c0.0153,0.0012,0.0285,0.0109,0.0342,0.0251l0.3133,0.7847c0.0068,0.017,0.024,0.0276,0.0422,0.0255c0.2795,-0.0314,0.583,-0.0952,0.8504,-0.1831c0.0176,-0.0058,0.0288,-0.0227,0.0277,-0.0412l-0.0494,-0.8411c-0.0009,-0.0155,0.0071,-0.0299,0.0207,-0.0375c0.1423,-0.0793,0.2779,-0.1758,0.4038,-0.2898c0.1286,-0.1165,0.2401,-0.2449,0.3343,-0.382c0.0087,-0.0127,0.0237,-0.0193,0.0389,-0.0171l0.8401,0.1223c0.0181,0.0026,0.0359,-0.007,0.0432,-0.0237c0.1127,-0.2577,0.2094,-0.5523,0.2672,-0.8278c0.0038,-0.0181,-0.0053,-0.0363,-0.0218,-0.0446l-0.7628,-0.3834c-0.0138,-0.0069,-0.0223,-0.0211,-0.0221,-0.0365c0.0037,-0.3281,-0.0661,-0.6576,-0.2108,-0.9616c-0.0066,-0.0139,-0.0049,-0.0302,0.0046,-0.0423l0.5341,-0.6767c0.0114,-0.0144,0.0119,-0.0345,0.001,-0.0493c-0.1668,-0.2265,-0.3736,-0.4576,-0.5833,-0.6453c-0.0137,-0.0123,-0.034,-0.0136,-0.0494,-0.0035l-0.7234,0.4755c-0.0129,0.0085,-0.0294,0.0087,-0.0427,0.0009c-0.2856,-0.1692,-0.6025,-0.2684,-0.9251,-0.296c-0.0152,-0.0013,-0.0283,-0.0109,-0.034,-0.0251l-0.3225,-0.8097c-0.0068,-0.017,-0.024,-0.0276,-0.0422,-0.0256c-0.2795,0.0312,-0.5831,0.0948,-0.8505,0.1825c-0.0176,0.0058,-0.0288,0.0227,-0.0278,0.0412l0.0502,0.866c0.0009,0.0155,-0.0072,0.0299,-0.0207,0.0374c-0.1424,0.0793,-0.2781,0.1758,-0.404,0.2899c-0.122,0.1105,-0.2286,0.2317,-0.3197,0.3609c-0.0088,0.0124,-0.0236,0.0189,-0.0387,0.0167l-0.8577,-0.1248c-0.0181,-0.0026,-0.0359,0.0069,-0.0432,0.0237c-0.1127,0.2577,-0.2094,0.5523,-0.2672,0.8278C1.7146,10.9244,1.7236,10.9427,1.7401,10.951zM4.5431,10.6416c0.4228,-0.0912,0.8394,0.1777,0.9306,0.6005c0.0912,0.4228,-0.1777,0.8394,-0.6005,0.9306c-0.4228,0.0912,-0.8394,-0.1777,-0.9306,-0.6005C3.8515,11.1494,4.1203,10.7328,4.5431,10.6416z" fill="#FFFFFF" opacity="0.5"/>
  </g>
</svg>
