<?xml version="1.0" encoding="UTF-8"?>
<!DOCTYPE svg PUBLIC "-//W3C//DTD SVG 1.1//EN" "http://www.w3.org/Graphics/SVG/1.1/DTD/svg11.dtd">
<svg version="1.1" id="Layer_1" xmlns="http://www.w3.org/2000/svg" xmlns:xlink="http://www.w3.org/1999/xlink" x="0px" y="0px" width="16px" height="16px" viewBox="0 0 16 16" enable-background="new 0 0 16 16" xml:space="preserve">
  <g id="icon">
    <path d="M14.4875,12.2531c0.0006,-0.3345,0.0019,-0.6711,0.0031,-1.0081c0.0037,-1.0134,0.0076,-2.0613,-0.0069,-3.0484c-0.0585,-3.9952,-3.187,-7.1561,-7.1224,-7.1962c-1.9379,-0.0216,-3.7599,0.6955,-5.1261,2.0141C0.869,4.3331,0.0831,6.1348,0.0222,8.0876c-0.0303,0.9712,-0.0231,1.9977,-0.0161,2.9906c0.0023,0.3277,0.0046,0.6523,0.0055,0.9706c0.006,2.133,0.7605,2.89,2.8835,2.8929c1.1937,0.0016,2.3875,0.0015,3.5814,0.0013c2.1608,-0.0004,4.3956,-0.0005,6.5927,0.0102c0.121,0.0006,0.3029,0.0426,0.4149,0.0821c0.1016,0.3093,0.2702,0.5355,0.5029,0.6739c0.1849,0.1099,0.3787,0.1481,0.5674,0.1481c0.2495,0,0.4899,-0.0666,0.6885,-0.1217c0.0905,-0.0251,0.1761,-0.0488,0.2411,-0.0603l0.3555,-0.0628l0.052,-0.3552C16.1987,13.1578,15.8909,12.646,14.4875,12.2531zM7.246,13.2411c-2.8229,0,-5.1195,-2.2752,-5.1195,-5.0717S4.4231,3.0976,7.246,3.0976c2.8229,0,5.1195,2.2752,5.1195,5.0718S10.069,13.2411,7.246,13.2411z" fill="#7B7B7B"/>
    <path d="M7.246,13.2411c-2.8229,0,-5.1195,-2.2752,-5.1195,-5.0718S4.4231,3.0976,7.246,3.0976c2.8229,0,5.1195,2.2752,5.1195,5.0718S10.069,13.2411,7.246,13.2411z" fill="#FFFFFF" opacity="0.5"/>
    <path d="M8.8219,9.9066c-0.114,0.2554,-0.2711,0.4755,-0.4669,0.6544c-0.1935,0.1766,-0.4199,0.3128,-0.6727,0.4045C7.4364,11.0548,7.176,11.1,6.9081,11.1c-0.1506,0,-0.2987,-0.0128,-0.4402,-0.038c-0.1355,-0.0241,-0.2649,-0.0565,-0.3849,-0.096c-0.1221,-0.0403,-0.2365,-0.0875,-0.3402,-0.1403c-0.1322,-0.0673,-0.4965,-0.3219,-0.4998,-0.3243l-0.0168,-0.0122l0.6493,-0.8654c0.0689,0.0495,0.3122,0.2129,0.3685,0.2442c0.0487,0.0247,0.1114,0.0503,0.1809,0.0733c0.0711,0.0235,0.1501,0.043,0.2347,0.0581c0.0782,0.014,0.1618,0.021,0.2484,0.021c0.1424,0,0.2738,-0.0226,0.4017,-0.069c0.1199,-0.0435,0.2215,-0.1043,0.3107,-0.1857c0.0866,-0.079,0.1549,-0.1761,0.2088,-0.2969c0.0525,-0.1178,0.0792,-0.2605,0.0792,-0.4239c0,-0.1364,-0.02,-0.2597,-0.0595,-0.3666c-0.0339,-0.0917,-0.0818,-0.1669,-0.1465,-0.2298c-0.0677,-0.0658,-0.1545,-0.1176,-0.2651,-0.1581c-0.1955,-0.0716,-0.4706,-0.085,-0.7973,-0.042c-0.1268,0.0168,-0.2661,0.0446,-0.4139,0.0826l-0.8201,0.2111l0.5677,-3.1449h2.8431v1.0796H6.8821l-0.1219,0.6751c0.4,-0.0268,0.7516,0.0153,1.0525,0.1254c0.2537,0.0929,0.4721,0.2273,0.6491,0.3994c0.1802,0.1752,0.3169,0.387,0.4065,0.6294c0.0836,0.2265,0.126,0.4751,0.126,0.7388C8.9944,9.3601,8.9364,9.65,8.8219,9.9066z" fill="#6486C4"/>
  </g>
</svg>
