<?xml version="1.0" encoding="UTF-8"?>
<!DOCTYPE svg PUBLIC "-//W3C//DTD SVG 1.1//EN" "http://www.w3.org/Graphics/SVG/1.1/DTD/svg11.dtd">
<svg version="1.1" id="Layer_1" xmlns="http://www.w3.org/2000/svg" xmlns:xlink="http://www.w3.org/1999/xlink" x="0px" y="0px" width="16px" height="16px" viewBox="0 0 16 16" enable-background="new 0 0 16 16" xml:space="preserve">
  <g id="icon">
    <path d="M14.8908,7.8441c-0.1605,-0.5562,-0.6153,-1.0424,-1.0165,-1.4713c-0.0986,-0.1055,-0.2258,-0.2414,-0.3246,-0.3588c0.0055,-0.0007,0.0111,-0.0013,0.0168,-0.002c0.5487,-0.0634,1.2054,-0.0362,1.2119,-0.0359l1.1989,0.0515l-0.8075,-0.8875c-0.6466,-0.7106,-1.4984,-1.5909,-2.3632,-2.1067l-0.0339,-0.0201c-0.5083,-0.2773,-1.174,-0.2968,-1.7613,-0.314c-0.1418,-0.0042,-0.3241,-0.0095,-0.4753,-0.0216c0.0021,-0.0026,0.0042,-0.0053,0.0063,-0.008c0.3431,-0.4327,0.8267,-0.8778,0.8315,-0.8823l0.8842,-0.8114l-1.1985,-0.0566c-0.9652,-0.0455,-2.1989,-0.0656,-3.1782,0.1859l-0.0446,0.0126l-0.0101,0.0044c-0.5416,0.1701,-1.0151,0.6146,-1.4338,1.0078c-0.1036,0.0972,-0.2367,0.2221,-0.3523,0.3201c-0.0005,-0.0046,-0.0011,-0.0092,-0.0017,-0.014c-0.0634,-0.5486,-0.0362,-1.2053,-0.0359,-1.2119l0.0515,-1.1988L5.1668,0.833c-0.7106,0.6465,-1.5909,1.4983,-2.1067,2.3632L3.04,3.2301c-0.2773,0.5082,-0.2968,1.1739,-0.314,1.7613c-0.0042,0.1419,-0.0095,0.3241,-0.0216,0.4753c-0.0027,-0.0021,-0.0053,-0.0042,-0.008,-0.0063c-0.4327,-0.3431,-0.8779,-0.8267,-0.8824,-0.8315l-0.8114,-0.8841L0.9461,4.9434C0.895,6.0268,0.879,7.153,1.1017,8.0639l0.017,0.0722c0.1605,0.5562,0.6153,1.0424,1.0165,1.4713c0.0986,0.1055,0.2258,0.2414,0.3246,0.3588c-0.0055,0.0006,-0.0111,0.0013,-0.0168,0.002c-0.5486,0.0634,-1.2054,0.0361,-1.2119,0.0359L0.0321,9.9526l0.8075,0.8875c0.6463,0.7103,1.4977,1.59,2.3618,2.1058l0.0354,0.021c0.5083,0.2773,1.174,0.2968,1.7613,0.314c0.1418,0.0042,0.3241,0.0095,0.4753,0.0216c-0.0021,0.0026,-0.0042,0.0053,-0.0063,0.008c-0.3431,0.4327,-0.8267,0.8778,-0.8315,0.8823l-0.8842,0.8114l1.1985,0.0566c1.4253,0.0673,2.405,0.0089,3.1771,-0.1895l0.0301,-0.0086c0.5484,-0.1652,1.0287,-0.6143,1.4527,-1.011c0.1055,-0.0986,0.2414,-0.2257,0.3587,-0.3245c0.0006,0.0055,0.0013,0.0111,0.002,0.0168c0.0634,0.5486,0.0362,1.2053,0.036,1.2118l-0.0515,1.1989l0.8875,-0.8075c0.7102,-0.6462,1.5899,-1.4975,2.1058,-2.3618l0.021,-0.0354c0.2773,-0.5083,0.2968,-1.174,0.3141,-1.7613c0.0042,-0.1418,0.0095,-0.3241,0.0216,-0.4753c0.0026,0.0021,0.0053,0.0042,0.008,0.0063c0.4327,0.3431,0.8779,0.8267,0.8824,0.8315l0.8113,0.8841l0.0566,-1.1985c0.0511,-1.0834,0.0671,-2.2096,-0.1556,-3.1206L14.8908,7.8441zM8.014,9.7906c-0.9982,0,-1.8073,-0.8092,-1.8073,-1.8073c0,-0.9982,0.8092,-1.8073,1.8073,-1.8073s1.8073,0.8092,1.8073,1.8073C9.8213,8.9814,9.0121,9.7906,8.014,9.7906z" fill="#6E6F72"/>
  </g>
</svg>
