<?xml version="1.0" encoding="utf-8"?>
<!-- Generator: Adobe Illustrator 26.3.0, SVG Export Plug-In . SVG Version: 6.00 Build 0)  -->
<svg version="1.1" id="Layer_1" xmlns="http://www.w3.org/2000/svg" xmlns:xlink="http://www.w3.org/1999/xlink" x="0px" y="0px"
	 viewBox="0 0 24 24" style="enable-background:new 0 0 24 24;" xml:space="preserve">
<style type="text/css">
	.st0{fill:#7B7B7B;}
	.st1{opacity:0.5;fill:#FFFFFF;enable-background:new    ;}
	.st2{fill:#6485C3;}
</style>
<g id="icon">
	<path class="st0" d="M23,0v21h-5c-0.6-1.7-2.1-3.6-5.1-4.8c-0.1,0-0.1-0.1-0.2-0.1c0,0,0.1-0.1,0.1-0.1H14v-1h-0.7
		c0.2-0.3,0.3-0.7,0.4-1H14v-0.9c0.2-0.7,0.2-1.4,0.2-2.1c0-1-0.1-2.1-0.6-3H14V7h-1.2c-0.5-0.4-1.2-0.8-2.1-1H14V5H7v1
		C5.4,6.3,4.5,7,4,7.9V0H23z M14,3H7v1h7V3z M20,17h-4v1h4V17z M20,15h-4v1h4V15z M20,13h-4v1h4V13z M20,11h-4v1h4V11z M20,9h-4v1h4
		V9z M20,7h-4v1h4V7z M20,5h-4v1h4V5z M20,3h-4v1h4V3z"/>
	<path class="st1" d="M14,4H7V3h7V4z M16,16h4v-1h-4V16z M8.8,5.8L8.8,5.8c0.8,0,1.5,0.1,2,0.2H14V5H7v1C7.5,5.9,8.1,5.8,8.8,5.8z
		 M13.6,8H14V7h-1.2C13.2,7.3,13.4,7.6,13.6,8z M14,15h-0.7c-0.2,0.4-0.4,0.7-0.6,1H14V15z M14,13.1c-0.1,0.3-0.2,0.6-0.2,0.9H14
		V13.1z M16,18h4v-1h-4V18z M16,6h4V5h-4V6z M16,14h4v-1h-4V14z M16,3v1h4V3H16z M16,8h4V7h-4V8z M16,10h4V9h-4V10z M16,12h4v-1h-4
		V12z"/>
	<path class="st2" d="M17,24c0.2,0,0.3-0.1,0.3-0.3l0-0.4c-0.1-1.6-0.9-4.4-4.8-5.9c-0.9-0.4-1.3-1.1-0.9-1.7
		c1.1-1.3,1.5-3.1,1.5-4.7c0-2.4-0.8-4-4.2-4H8.8c-3.4,0-4.2,1.5-4.2,4c0,1.6,0.4,3.3,1.5,4.7c0.4,0.6,0,1.3-0.9,1.7
		c-3.9,1.5-4.7,4.4-4.8,5.9l0,0.4c0,0.1,0.1,0.3,0.3,0.3H17z"/>
</g>
</svg>
