<?xml version="1.0" encoding="utf-8"?>
<!-- Generator: Adobe Illustrator 26.3.0, SVG Export Plug-In . SVG Version: 6.00 Build 0)  -->
<svg version="1.1" id="Layer_1" xmlns="http://www.w3.org/2000/svg" xmlns:xlink="http://www.w3.org/1999/xlink" x="0px" y="0px"
	 viewBox="0 0 24 24" style="enable-background:new 0 0 24 24;" xml:space="preserve">
<style type="text/css">
	.st0{opacity:0.5;fill:#FFFFFF;enable-background:new    ;}
	.st1{fill:#7B7B7B;}
	.st2{fill:#6D6E71;}
	.st3{fill:#CB535D;}
	.st4{fill:#6485C3;}
</style>
<g id="icon">
	<path class="st0" d="M7,2v3.9c0.5-0.1,0.9-0.1,1.5-0.1h0.1c2.3,0,3.9,0.7,4.9,2c0.9,1.2,1,2.7,1,3.7c0,1.5-0.3,2.9-0.9,4.1
		c1.9,0.9,3,2.2,3.7,3.4H22V2H7z"/>
	<path class="st1" d="M24,0v21h-6.1c-0.2-0.6-0.4-1.3-0.8-2H22V2H7v3.9C6.2,6,5.6,6.2,5,6.6V0H24z"/>
	<path class="st2" d="M15,9h-1c-0.1-0.3-0.3-0.7-0.5-1H15V9z M15,10h-0.7c0.1,0.4,0.1,0.7,0.1,1H15V10z M15,12h-0.6
		c0,0.3-0.1,0.7-0.1,1H15V12z M15,14h-1c-0.1,0.3-0.2,0.7-0.3,1H15V14z M15,4H9v1h6V4z M14.2,16c0.3,0.2,0.6,0.4,0.8,0.6V16H14.2z
		 M15,6h-4.5c0.9,0.2,1.6,0.5,2.2,1H15V6z"/>
	<path class="st3" d="M17,10h3v1h-3V10z M17,13h3v-1h-3V13z M17,15h3v-1h-3V15z M17,17h3v-1h-3V17z M17,9h3V8h-3V9z M17,4v1h3V4H17z
		 M17,7h3V6h-3V7z"/>
	<path class="st0" d="M15.8,23c0.1,0,0.2-0.1,0.2-0.2l0-0.4c-0.1-1.4-0.8-3.9-4.3-5.2c-0.8-0.3-1.2-1-0.8-1.5
		c0.9-1.2,1.3-2.7,1.3-4.1c0-2.2-0.7-3.5-3.7-3.5H8.5c-3,0-3.7,1.4-3.7,3.5c0,1.4,0.4,2.9,1.3,4.1c0.4,0.5,0,1.2-0.8,1.5
		C1.8,18.5,1.1,21,1,22.4l0,0.4C1,22.9,1.1,23,1.2,23H15.8z"/>
	<path class="st4" d="M1.1,24c-0.3,0-0.6-0.1-0.8-0.4C0.1,23.4,0,23.1,0,22.8l0-0.4c0.1-1.6,0.9-4.5,4.9-6.1
		c0.2-0.1,0.3-0.2,0.4-0.2c-0.9-1.2-1.5-2.9-1.5-4.6C3.8,9.5,4.3,7,8.5,7h0.1c4.2,0,4.7,2.5,4.7,4.5c0,1.8-0.5,3.4-1.5,4.6
		c0.1,0.1,0.2,0.2,0.4,0.2c3.9,1.5,4.7,4.5,4.9,6.1l0,0.4c0,0.3-0.1,0.6-0.3,0.8c-0.2,0.2-0.5,0.4-0.8,0.4L1.1,24L1.1,24z
		 M15.2,22.2C15,21,14.2,19.1,11.4,18c-0.7-0.3-1.3-0.8-1.5-1.5c-0.1-0.5,0-1,0.3-1.4l0,0c0.7-0.9,1.1-2.2,1.1-3.6
		c0-1.9-0.4-2.7-2.9-2.7H8.5c-2.5,0-2.9,0.8-2.9,2.7c0,1.4,0.4,2.7,1.1,3.6l0,0C7,15.5,7.1,16,7,16.5c-0.2,0.6-0.7,1.2-1.4,1.5l0,0
		c-2.8,1.1-3.5,3-3.7,4.2C1.8,22.2,15.2,22.2,15.2,22.2z"/>
</g>
</svg>
