<?xml version="1.0" encoding="utf-8"?>
<!-- Generator: Adobe Illustrator 26.3.0, SVG Export Plug-In . SVG Version: 6.00 Build 0)  -->
<svg version="1.1" id="Layer_1" xmlns="http://www.w3.org/2000/svg" xmlns:xlink="http://www.w3.org/1999/xlink" x="0px" y="0px"
	 viewBox="0 0 24 24" style="enable-background:new 0 0 24 24;" xml:space="preserve">
<style type="text/css">
	.st0{opacity:0.5;fill:#FFFFFF;enable-background:new    ;}
	.st1{fill:#7B7B7B;}
	.st2{fill:#52B250;}
</style>
<g id="icon">
	<polygon class="st0" points="0.8,0.8 0.8,6.8 3,6.8 3,6.8 3,4.9 21,4.9 21,6.8 23.2,6.8 23.2,0.8 	"/>
	<polygon class="st1" points="24,8 21,8 21,6 22,6 22,2 2,2 2,6 3,6 3,8 0,8 0,0 24,0 	"/>
	<rect x="3" y="3" class="st1" width="18" height="1"/>
	<rect x="5" y="6" class="st0" width="14" height="17"/>
	<polygon class="st2" points="18,6 18,22 6,22 6,6 4,6 4,24 20,24 20,6 	"/>
	<path class="st2" d="M16.9,12c0,2.3-2.2,4.1-4.9,4.1S7.1,14.3,7.1,12S9.3,7.9,12,7.9S16.9,9.7,16.9,12z M8.1,12
		c0,1.7,1.8,3.1,3.9,3.1s3.9-1.4,3.9-3.1S14.2,8.9,12,8.9S8.1,10.3,8.1,12z"/>
	<path class="st2" d="M14.5,22L14.5,22l0.9,0l0,0c0-1.4,1.2-2.5,2.5-2.5v-1C16.1,18.5,14.5,20.1,14.5,22z M9.5,22L9.5,22
		c0-1.9-1.6-3.5-3.5-3.5v1c1.3,0,2.5,1.1,2.5,2.5l0,0L9.5,22L9.5,22z"/>
</g>
</svg>
