<?xml version="1.0" encoding="utf-8"?>
<!-- Generator: Adobe Illustrator 26.3.0, SVG Export Plug-In . SVG Version: 6.00 Build 0)  -->
<svg version="1.1" id="Layer_1" xmlns="http://www.w3.org/2000/svg" xmlns:xlink="http://www.w3.org/1999/xlink" x="0px" y="0px"
	 viewBox="0 0 24 24" style="enable-background:new 0 0 24 24;" xml:space="preserve">
<style type="text/css">
	.st0{fill:#52B250;}
	.st1{opacity:0.5;fill:#FFFFFF;enable-background:new    ;}
</style>
<g id="icon">
	<path class="st0" d="M0,4v16h24V4H0z M5.5,6c0,1.9-1.6,3.5-3.5,3.5l0,0l0,0L2,6H5.5z M2,18l0-3.5l0,0l0,0c1.9,0,3.5,1.6,3.5,3.5H2z
		 M13.3,11.2v1.2h-2.6v1.7c0,0.3,0,0.5-0.1,0.8c0,0.1-0.1,0.2-0.1,0.3H15v1.2H8.5v-1.1L8.9,15c0.1,0,0.2-0.1,0.3-0.2
		c0.1,0,0.1-0.1,0.2-0.2c0.1-0.1,0.1-0.1,0.1-0.2c0-0.1,0.1-0.2,0.1-0.4v-1.7H8.7v-1.2h0.9v-1c0-0.4,0.1-0.8,0.2-1.1
		c0.1-0.4,0.3-0.7,0.6-1c0.3-0.3,0.6-0.5,0.9-0.6c0.4-0.1,0.8-0.2,1.2-0.2c0.3,0,0.7,0,0.9,0.1c0.3,0.1,0.5,0.2,0.7,0.3
		c0.2,0.1,0.4,0.3,0.5,0.5c0.1,0.2,0.2,0.4,0.3,0.6l0,0.1L14,9.5l0-0.1c-0.1-0.1-0.1-0.3-0.2-0.4c-0.1-0.1-0.2-0.2-0.3-0.3
		c-0.1-0.1-0.2-0.1-0.4-0.2c-0.2,0-0.4-0.1-0.6-0.1c-0.3,0-0.6,0-0.8,0.1c-0.2,0.1-0.4,0.2-0.5,0.3c-0.1,0.1-0.2,0.3-0.3,0.5
		c-0.1,0.2-0.1,0.5-0.1,0.8v1L13.3,11.2L13.3,11.2z M18.5,18c0-1.9,1.6-3.5,3.5-3.5l0,0l0,0l0,3.5H18.5z M22,9.5L22,9.5L22,9.5
		c-1.9,0-3.5-1.6-3.5-3.5H22L22,9.5z"/>
	<path class="st1" d="M2,9.5L2,9.5c1.9,0,3.5-1.6,3.5-3.5H2L2,9.5L2,9.5z M22,9.5L22,6h-3.5C18.5,7.9,20.1,9.5,22,9.5L22,9.5L22,9.5
		z M2,14.5L2,18h3.5C5.5,16.1,3.9,14.5,2,14.5L2,14.5L2,14.5z M22,14.5L22,14.5c-1.9,0-3.5,1.6-3.5,3.5H22L22,14.5L22,14.5z"/>
	<path class="st1" d="M8.5,16.3v-1.1L8.9,15c0.1,0,0.2-0.1,0.3-0.2c0.1,0,0.1-0.1,0.2-0.2c0.1-0.1,0.1-0.1,0.1-0.2
		c0-0.1,0.1-0.2,0.1-0.4v-1.7H8.7v-1.2h0.9v-1c0-0.4,0.1-0.8,0.2-1.1c0.1-0.4,0.3-0.7,0.6-1c0.3-0.3,0.6-0.5,0.9-0.6
		c0.4-0.1,0.8-0.2,1.2-0.2c0.3,0,0.7,0,0.9,0.1c0.3,0.1,0.5,0.2,0.7,0.3c0.2,0.1,0.4,0.3,0.5,0.5c0.1,0.2,0.2,0.4,0.3,0.6l0,0.1
		L14,9.5l0-0.1c-0.1-0.1-0.1-0.3-0.2-0.4c-0.1-0.1-0.2-0.2-0.3-0.3c-0.1-0.1-0.2-0.1-0.4-0.2c-0.2,0-0.4-0.1-0.6-0.1
		c-0.3,0-0.6,0-0.8,0.1c-0.2,0.1-0.4,0.2-0.5,0.3c-0.1,0.1-0.2,0.3-0.3,0.5c-0.1,0.2-0.1,0.5-0.1,0.8v1h2.6v1.2h-2.6v1.7
		c0,0.3,0,0.5-0.1,0.8c0,0.1-0.1,0.2-0.1,0.3H15v1.2H8.5z"/>
</g>
</svg>
