<?xml version="1.0" encoding="utf-8"?>
<!-- Generator: Adobe Illustrator 26.3.0, SVG Export Plug-In . SVG Version: 6.00 Build 0)  -->
<svg version="1.1" id="Layer_1" xmlns="http://www.w3.org/2000/svg" xmlns:xlink="http://www.w3.org/1999/xlink" x="0px" y="0px"
	 viewBox="0 0 24 24" style="enable-background:new 0 0 24 24;" xml:space="preserve">
<style type="text/css">
	.st0{fill:#CB535D;}
	.st1{fill:#EEAD56;}
	.st2{opacity:0.5;fill:#FFFFFF;enable-background:new    ;}
	.st3{fill:#EEAC55;}
	.st4{fill:#7B7B7B;}
	.st5{fill:#FFFFFF;}
</style>
<g id="icon">
	<path class="st0" d="M5.6,2.5h4.2V1H5.6C4.1,1,3,2.1,3,3.6v2.7L1.5,4.7L0.4,5.8l3.3,3.3l3.3-3.3L6,4.7L4.5,6.2V3.6
		C4.5,3,5,2.5,5.6,2.5z"/>
	<path class="st1" d="M16,12h1"/>
	<path class="st1" d="M13.5,14L13.5,14c-0.1-0.8-0.6-1.5-1.6-2c-1-0.5-2.3-0.8-3.8-0.8c-1.5,0-2.8,0.3-3.8,0.8c-1,0.5-1.5,1.2-1.6,2
		h0v0.1c0,0,0,0,0,0h0v2.3c0,0.7,0.6,1.4,1.6,1.9c1,0.5,2.4,0.8,3.7,0.8c1.3,0,2.7-0.3,3.7-0.8c1-0.5,1.6-1.1,1.6-1.7
		c0-0.1,0-0.1,0-0.2v-2.1L13.5,14z M12.9,15.2c-0.9,0.8-2.7,1.4-4.8,1.4c-2.2,0-3.9-0.6-4.8-1.4v-1.1c0.5,0.5,0.6,0.6,1.3,1
		c0.9,0.4,2.2,0.7,3.6,0.7c2.7,0,4.1-0.8,4.8-1.6V15.2z M10.7,19.4v1.9c0,0.1,0,0.1,0,0.2c-0.1,0.7-0.6,1.3-1.6,1.7
		C8,23.7,6.7,24,5.3,24c-1.3,0-2.7-0.3-3.7-0.8C0.6,22.7,0,22.1,0,21.4v-2.2h0c0,0,0,0,0,0v-0.1h0c0.1-0.8,0.6-1.4,1.6-1.9
		C1.8,17,2,16.9,2.2,16.8c0.1,0.6,0.6,1.4,2,2.1c1.1,0.5,2.5,0.8,4,0.8c0.5,0,1.1,0,1.6-0.1c-0.8,0.7-2.2,1.2-4.4,1.2
		c-1.4,0-2.6-0.2-3.6-0.6c-0.7-0.3-0.8-0.4-1.3-1v1.1c1,0.9,2.7,1.4,4.8,1.4c2.1,0,3.8-0.6,4.8-1.4v-0.8
		C10.3,19.5,10.5,19.5,10.7,19.4z"/>
	<path class="st2" d="M8.2,16.6c-2.2,0-3.9-0.6-4.8-1.4v-1.1c0.5,0.5,0.6,0.6,1.3,1c0.9,0.4,2.2,0.7,3.6,0.7c2.7,0,4.1-0.8,4.8-1.6
		v1.1C12,16,10.3,16.6,8.2,16.6z M9.8,19.6c-0.8,0.7-2.2,1.2-4.4,1.2c-1.4,0-2.6-0.2-3.6-0.6c-0.7-0.3-0.8-0.4-1.3-1v1.1
		c1,0.9,2.7,1.4,4.8,1.4c2.1,0,3.8-0.6,4.8-1.4v-0.8C10,19.6,9.9,19.6,9.8,19.6z"/>
	<path class="st2" d="M20.6,14.4V6.7l3.1,0.1L23.5,6l-7.9-4.4L7.7,6v0.7l2.7,0.1v3.7c0.7,0.2,1.4,0.4,2,0.7c0.9,0.5,1.5,1.1,1.9,1.8
		l0.2,0.6l0,0.4l0,1.3h7l-0.2-0.8L20.6,14.4z"/>
	<path class="st3" d="M14,9v3.5c0.1,0.2,0.2,0.3,0.3,0.5l0.2,0.6l0,0.4h0h2H17V9H14z"/>
	<path class="st4" d="M24,8V5.8L15.5,0L7.7,5.3l0.5,0.5L7,7v1h2v2.3c0.7,0,1.4,0.2,2,0.3V8h1v3c0.1,0.1,0.3,0.1,0.4,0.2
		c0.2,0.1,0.4,0.2,0.6,0.4V8h5v6h-3.5l0,0l0,2.3c0,0.1,0,0.2,0,0.3c0,0.1,0,0.3-0.1,0.4h7.5H24v-2h-1l0-1h-1V8H24z M15.5,6
		c-0.8,0-1.4-0.6-1.4-1.4s0.6-1.4,1.4-1.4c0.8,0,1.4,0.6,1.4,1.4S16.3,6,15.5,6z M20,14h-1V8h1V14z"/>
	<path class="st5" d="M16.9,4.6c0,0.8-0.6,1.4-1.4,1.4s-1.4-0.6-1.4-1.4s0.6-1.4,1.4-1.4C16.3,3.2,16.9,3.8,16.9,4.6z"/>
</g>
</svg>
