<?xml version="1.0" encoding="utf-8"?>
<!-- Generator: Adobe Illustrator 26.3.0, SVG Export Plug-In . SVG Version: 6.00 Build 0)  -->
<svg version="1.1" id="Layer_1" xmlns="http://www.w3.org/2000/svg" xmlns:xlink="http://www.w3.org/1999/xlink" x="0px" y="0px"
	 viewBox="0 0 24 24" style="enable-background:new 0 0 24 24;" xml:space="preserve">
<style type="text/css">
	.st0{opacity:0.5;fill:#FFFFFF;enable-background:new    ;}
	.st1{fill:#52B250;}
</style>
<g id="icon">
	<path class="st0" d="M23,19H1V5h22V19z"/>
	<path class="st1" d="M24,20H0V4h24V20z M2,18h20V6H2V18z"/>
	<path class="st1" d="M22,14.5v0.9h0c-1.4,0-2.5,1.2-2.5,2.6h-1C18.5,16.1,20,14.5,22,14.5L22,14.5z M2,14.5L2,14.5l0,0.9l0,0
		c1.4,0,2.5,1.2,2.5,2.5h1C5.5,16.1,3.9,14.5,2,14.5z M22,8.5c-1.4,0-2.5-1.2-2.5-2.5h-1c0,1.9,1.6,3.5,3.5,3.5h0l0,0L22,8.5L22,8.5
		z M2,9.5L2,9.5c1.9,0,3.5-1.6,3.5-3.5h-1c0,1.3-1.1,2.5-2.5,2.5l0,0L2,9.5L2,9.5z"/>
	<path class="st1" d="M12.1,17.1v-1h-0.6v1h-1.2v-1H9.1V7.9h1.2v-1h1.2v1h0.6v-1h1.2v1c1.1,0.2,1.8,1.1,1.8,2.2
		c0,0.6-0.3,1.2-0.7,1.7c0.6,0.4,0.9,1.1,0.9,1.8c0,1.2-0.9,2.2-2,2.3v1H12.1z M13,14.9c0.6,0,1.1-0.5,1.1-1.1s-0.5-1.1-1.1-1.1
		h-2.7v2.3C10.3,14.9,13,14.9,13,14.9z M12.8,11.4L12.8,11.4L12.8,11.4c0.6-0.1,1.1-0.6,1.1-1.2c0-0.6-0.5-1.1-1.1-1.1h-2.4v2.3
		H12.8z"/>
</g>
</svg>
