<?xml version="1.0" encoding="utf-8"?>
<!-- Generator: Adobe Illustrator 26.3.0, SVG Export Plug-In . SVG Version: 6.00 Build 0)  -->
<svg version="1.1" id="Layer_1" xmlns="http://www.w3.org/2000/svg" xmlns:xlink="http://www.w3.org/1999/xlink" x="0px" y="0px"
	 viewBox="0 0 24 24" style="enable-background:new 0 0 24 24;" xml:space="preserve">
<style type="text/css">
	.st0{opacity:0.5;fill:#FFFFFF;enable-background:new    ;}
	.st1{fill:#EEAD56;}
</style>
<g id="icon">
	<path class="st0" d="M12.1,14c6.2,0,9.5-1.7,11-3.5V12c-2.2,1.8-6.1,3.1-11,3.1c-5,0-8.9-1.2-11.1-3.1v-1.5c1.1,1.1,1.4,1.4,3,2.1
		C6,13.5,8.9,14,12.1,14z"/>
	<path class="st1" d="M24,10.1L24,10.1c-0.1-1.7-1.4-3.2-3.5-4.3c-2.2-1.1-5.2-1.8-8.4-1.8c-3.3,0-6.3,0.6-8.5,1.8
		C1.4,6.9,0.2,8.4,0,10.1h0v0.2c0,0,0,0,0,0h0v4c0,1.6,1.3,3,3.7,4.1C6,19.5,9,20,12,20c3,0,6-0.5,8.3-1.5c2.2-1.1,3.5-2.4,3.7-3.9
		c0-0.1,0-0.3,0-0.4v-3.7L24,10.1z M23.1,12c-2.2,1.8-6.1,3.1-11,3.1c-5,0-8.9-1.2-11.1-3.1v-1.5c1.1,1.1,1.4,1.4,3,2.1
		c2.1,0.9,5,1.4,8.2,1.4c6.2,0,9.5-1.7,11-3.5V12z"/>
</g>
</svg>
