<?xml version="1.0" encoding="utf-8"?>
<!-- Generator: Adobe Illustrator 26.3.0, SVG Export Plug-In . SVG Version: 6.00 Build 0)  -->
<svg version="1.1" id="Layer_1" xmlns="http://www.w3.org/2000/svg" xmlns:xlink="http://www.w3.org/1999/xlink" x="0px" y="0px"
	 viewBox="0 0 24 24" style="enable-background:new 0 0 24 24;" xml:space="preserve">
<style type="text/css">
	.st0{opacity:0.5;fill:#FFFFFF;enable-background:new    ;}
	.st1{fill:#EEAD56;}
</style>
<g id="icon">
	<path class="st0" d="M7.5,23.4c-1.8,0-3.6-0.4-5-1c-1.1-0.6-1.9-1.3-1.9-1.9v0.5h0l0-0.8v-9.5h0l0-0.7c0,0,0,0,0-0.1
		c0-1.7,3-3.1,6.8-3.1l0.1,0c3.7,0,6.8,1.4,6.8,3.1c0,0,0,0,0,0.1l0,0.7h0v9.5l0,0.1l0,0.1v0.1c0,0.6-0.7,1.4-1.9,1.9
		C11.1,23,9.3,23.4,7.5,23.4L7.5,23.4L7.5,23.4z"/>
	<path class="st1" d="M7.5,24c-1.9,0-3.8-0.4-5.2-1.1C0.8,22.2,0,21.2,0,20.2V9.9h0C0.1,7.7,3.3,6,7.5,6h0c4.3,0,7.5,1.7,7.5,4
		c0,0,0,0,0,0.1l0,0.1v10.4c0,0,0,0.1,0,0.1l0,0l0-0.5c0,1-0.8,2-2.3,2.7C11.3,23.6,9.4,24,7.5,24L7.5,24L7.5,24z M3.2,21.5
		c1.2,0.6,2.7,0.9,4.2,0.9h0c1.5,0,3.1-0.3,4.3-0.9l0.1-0.1l0,0c0.9-0.5,1.2-0.9,1.2-1.2v-1.5c-1.5,0.9-3.5,1.4-5.7,1.4
		c-2.1,0-4.2-0.5-5.7-1.4v1.5c0,0.2,0.3,0.7,1.2,1.2l0,0L3.2,21.5z M1.8,17.1c0.2,0.4,0.7,0.8,1.3,1.1C4.3,18.7,5.9,19,7.5,19h0
		c1.6,0,3.2-0.3,4.4-0.9c0.8-0.4,1.2-0.8,1.3-1.1v-1.8c-1.5,0.9-3.5,1.4-5.7,1.4c-2.1,0-4.2-0.5-5.7-1.4L1.8,17.1L1.8,17.1z
		 M1.8,13.4c0,0.2,0.2,0.7,1.3,1.2c1.2,0.6,2.7,0.9,4.3,0.9h0c1.6,0,3.1-0.3,4.3-0.9c1.1-0.5,1.3-1.1,1.3-1.2v-1.5
		c0,0-0.1,0-0.1,0.1c-0.2,0.1-0.3,0.2-0.5,0.3c-1.3,0.6-3.1,0.9-5,0.9h0c-1.9,0-3.6-0.3-4.9-0.9c-0.2-0.1-0.5-0.2-0.7-0.4
		C1.8,11.9,1.8,13.4,1.8,13.4z M7.5,12c1.7,0,3.2-0.2,4.3-0.7c0.9-0.4,1.5-0.9,1.5-1.3c0-0.5-0.6-1-1.5-1.5C10.6,8,9.1,7.7,7.5,7.7
		h0C5.9,7.7,4.4,8,3.3,8.5c-1,0.4-1.5,1-1.5,1.5c0,0.4,0.5,0.9,1.5,1.3C4.3,11.8,5.8,12,7.5,12L7.5,12L7.5,12z"/>
	<path class="st0" d="M23.2,4C23.2,4,23.2,4,23.2,4c0-1.8-3-3.2-6.6-3.2l-0.1,0c-3.7,0-6.6,1.4-6.6,3.1c0,0,0,0,0,0.1l0,0.7h0V5
		c3.8,0.5,6.4,2.4,6.4,4.9c0,0,0,0.1,0,0.1l0,0v10.2c0,0,0,0.1,0,0.1l0,0l0,0.1c0,0.3,0,0.5-0.1,0.8c0.1,0,0.3,0,0.4,0h0
		c1.8,0,3.5-0.4,4.8-1c0.9-0.4,1.8-1.4,1.8-2.6v-3V14V4.8h0L23.2,4z"/>
	<path class="st1" d="M24,4c0-2.3-3.2-4-7.5-4h0C12.3,0,9.1,1.7,9,3.9h0v1c2.5,0.2,4.6,1,5.9,2.2c0.5,0.1,1.1,0.1,1.6,0.1h0
		c1.9,0,3.7-0.3,5-0.9c0.2-0.1,0.3-0.2,0.5-0.3c0,0,0.1,0,0.1-0.1v1.5c0,0.2-0.2,0.7-1.3,1.2c-1.2,0.6-2.8,0.9-4.3,0.9h0
		c-0.1,0-0.2,0-0.3,0c0,0.1,0,0.2,0,0.3c0,0,0,0.1,0,0.1l0,0v0.7c0.1,0,0.2,0,0.3,0c2.1,0,4.2-0.5,5.7-1.4v1.9
		c-0.1,0.2-0.5,0.7-1.3,1.1c-1.2,0.6-2.8,0.9-4.4,0.9h0c-0.1,0-0.2,0-0.3,0v1.1c0.1,0,0.2,0,0.3,0c2.1,0,4.2-0.5,5.7-1.4v1.8
		c0,0.2-0.3,0.7-1.2,1.2l0,0l-0.1,0.1c-1.2,0.6-2.7,0.9-4.3,0.9h0c-0.1,0-0.2,0-0.3,0v1.1c0.1,0,0.2,0,0.3,0c0.2,0,0.4,0,0.6,0
		l0.1,0l0.4,0c1.7-0.1,3.3-0.6,4.5-1.4v1.8c0,0.2-0.4,0.7-1.4,1.2c-1.2,0.6-2.7,0.9-4.3,0.9c-0.1,0-0.2,0-0.3,0l0,0.1
		c0,0.6-0.2,1.1-0.5,1.7c0.3,0,0.5,0,0.8,0h0c1.9,0,3.8-0.4,5.2-1.1c1.5-0.7,2.3-1.7,2.3-2.7l0-3.5l0,0c0,0,0-0.1,0-0.1V4.1L24,4
		C24,4.1,24,4,24,4z M20.8,5.3C19.7,5.8,18.2,6,16.5,6l0,0l0,0c-1.7,0-3.2-0.2-4.3-0.7C11.3,5,10.7,4.5,10.7,4c0-0.5,0.6-1,1.5-1.5
		c1.1-0.5,2.6-0.8,4.2-0.8h0c1.6,0,3.1,0.3,4.2,0.8c1,0.4,1.5,1,1.5,1.5C22.3,4.5,21.7,5,20.8,5.3z"/>
</g>
</svg>
