<?xml version="1.0" encoding="utf-8"?>
<!-- Generator: Adobe Illustrator 26.3.0, SVG Export Plug-In . SVG Version: 6.00 Build 0)  -->
<svg version="1.1" id="Layer_1" xmlns="http://www.w3.org/2000/svg" xmlns:xlink="http://www.w3.org/1999/xlink" x="0px" y="0px"
	 viewBox="0 0 24 24" style="enable-background:new 0 0 24 24;" xml:space="preserve">
<style type="text/css">
	.st0{fill:#EEAD56;}
	.st1{opacity:0.5;fill:#FFFFFF;enable-background:new    ;}
</style>
<g id="icon">
	<path class="st0" d="M7.2,9.5c-4,0-7.2,3.3-7.2,7.2S3.3,24,7.2,24s7.2-3.3,7.2-7.2S11.2,9.5,7.2,9.5z M10.2,20.5
		c-0.1,0.1-0.2,0.2-0.4,0.3c-0.2,0.1-0.4,0.2-0.6,0.3c-0.2,0.1-0.5,0.2-0.8,0.2c-0.3,0.1-0.6,0.1-1,0.1c-0.5,0-1.1-0.1-1.5-0.3
		c-0.5-0.2-0.9-0.4-1.3-0.8c-0.4-0.3-0.6-0.8-0.9-1.3c-0.1-0.2-0.2-0.2-0.3-0.5h-1v-1.3h0.8c0-0.1,0-0.2,0-0.3c0-0.1,0-0.8,0-0.9
		l0,0H2.9v-1.3h0.7c0.1-0.3,0.2-0.3,0.3-0.5c0.2-0.5,0.5-0.9,0.9-1.2c0.4-0.3,0.8-0.6,1.3-0.8c0.5-0.2,1-0.2,1.5-0.2
		c0.3,0,0.6,0,0.9,0.1c0.3,0.1,0.5,0.1,0.7,0.2c0.2,0.1,0.4,0.2,0.6,0.3c0.1,0.1,0.3,0.2,0.4,0.3c0.1,0.1,0.2,0.1,0.2,0.2l-0.9,1
		c0,0-0.1-0.1-0.2-0.1c-0.1,0-0.1-0.1-0.2-0.2c-0.1-0.1-0.2-0.1-0.3-0.2c-0.1-0.1-0.3-0.1-0.5-0.1c-0.2,0-0.4-0.1-0.6-0.1
		c-0.4,0-0.8,0.1-1.1,0.2c-0.3,0.1-0.6,0.3-0.8,0.5c-0.2,0.2-0.3,0.2-0.4,0.5c0,0.1-0.1,0.1-0.1,0.2h3v1.3H4.8l0,0.1
		c0,0.1,0,0.7,0,0.8c0,0.1,0,0.2,0,0.3h3.2v1.3H5.1c0,0.1,0.1,0.1,0.1,0.2c0.1,0.3,0.2,0.3,0.4,0.6c0.2,0.2,0.5,0.4,0.8,0.5
		c0.3,0.1,0.7,0.2,1.1,0.2c0.3,0,0.5,0,0.7-0.1c0.2,0,0.4-0.1,0.5-0.2c0.1-0.1,0.3-0.1,0.3-0.2c0.1-0.1,0.2-0.2,0.3-0.2
		c0.1-0.1,0.1-0.1,0.2-0.2l0.9,1C10.4,20.3,10.3,20.4,10.2,20.5z"/>
	<path class="st1" d="M9.5,19.3c0,0-0.1,0.1-0.2,0.2c-0.1,0.1-0.2,0.1-0.3,0.2c-0.1,0.1-0.2,0.1-0.3,0.2C8.5,19.9,8.4,20,8.2,20
		c-0.2,0-0.4,0.1-0.7,0.1c-0.4,0-0.7-0.1-1.1-0.2c-0.3-0.1-0.6-0.3-0.8-0.5c-0.2-0.2-0.3-0.2-0.4-0.6c0-0.1-0.1-0.1-0.1-0.2h2.8
		v-1.3H4.8c0-0.1,0-0.2,0-0.3c0-0.1,0-0.7,0-0.8l0-0.1h3.4v-1.3h-3c0-0.1,0.1-0.1,0.1-0.2c0.1-0.3,0.2-0.3,0.4-0.5
		c0.2-0.2,0.5-0.4,0.8-0.5c0.3-0.1,0.7-0.2,1.1-0.2c0.2,0,0.5,0,0.6,0.1c0.2,0,0.4,0.1,0.5,0.1c0.1,0,0.2,0.1,0.3,0.2
		c0.1,0.1,0.2,0.1,0.2,0.2C9.3,14,9.4,14,9.4,14l0.9-1c-0.1-0.1-0.1-0.1-0.2-0.2c-0.1-0.1-0.2-0.2-0.4-0.3c-0.2-0.1-0.3-0.2-0.6-0.3
		c-0.2-0.1-0.4-0.1-0.7-0.2c-0.3-0.1-0.6-0.1-0.9-0.1c-0.5,0-1.1,0.1-1.5,0.2c-0.5,0.2-0.9,0.4-1.3,0.8c-0.4,0.3-0.6,0.7-0.9,1.2
		c-0.1,0.3-0.2,0.2-0.3,0.5H2.9v1.3h0.5l0,0c0,0.1,0,0.8,0,0.9c0,0.1,0,0.2,0,0.3H2.6v1.3h1c0.1,0.3,0.2,0.2,0.3,0.5
		c0.2,0.5,0.5,0.9,0.9,1.3C5.1,20.7,5.5,21,6,21.2c0.5,0.2,1,0.3,1.5,0.3c0.4,0,0.7,0,1-0.1c0.3-0.1,0.5-0.1,0.8-0.2
		c0.2-0.1,0.4-0.2,0.6-0.3c0.1-0.1,0.3-0.2,0.4-0.3c0.1-0.1,0.2-0.2,0.2-0.2L9.5,19.3z"/>
	<path class="st1" d="M23.6,3.7H9.4L9,4.1v4.4c3.8,0.8,6.7,4.2,6.7,8.3c0,1.1-0.2,2.1-0.6,3H21l2.9-2.6V3.9L23.6,3.7z"/>
	<path class="st0" d="M24,12.4v1.8c0,0.1,0,0.2,0,0.3c-0.1,0.9-0.9,1.8-2.3,2.5c-1.4,0.7-3.3,1-5.2,1c-0.3,0-0.6,0-0.9,0
		c0.1-0.4,0.1-0.8,0.1-1.2c0-0.6-0.1-1.1-0.2-1.7c0.3,0,0.6,0,1,0c2.1,0,4.1-0.4,5.5-1.1C22.9,13.6,23.5,13,24,12.4z M22,17.8
		c-1.4,0.7-3.4,1.1-5.5,1.1c-0.4,0-0.7,0-1.1,0c-0.3,1.1-0.8,2.1-1.4,2.9c0.8,0.1,1.6,0.2,2.5,0.2c1.9,0,3.8-0.3,5.2-1
		c1.4-0.7,2.2-1.6,2.3-2.5c0-0.1,0-0.2,0-0.3v-1.9C23.5,16.8,22.9,17.4,22,17.8z M22,10.1c-1.4,0.7-3.4,1.1-5.5,1.1
		c-1.1,0-2.2-0.1-3.1-0.3c0.9,0.9,1.5,2,1.9,3.2c0.4,0,0.8,0,1.2,0c1.9,0,3.8-0.3,5.2-1c1.4-0.7,2.2-1.6,2.3-2.5c0-0.1,0-0.2,0-0.3
		V8.6C23.5,9.1,22.9,9.7,22,10.1z M24,4.2v2.3c0,0.1,0,0.2,0,0.3c-0.1,0.9-0.9,1.8-2.3,2.5c-1.4,0.7-3.3,1-5.2,1
		c-1.9,0-3.8-0.3-5.2-1C9.8,8.5,9,7.6,9,6.6V4.1h0c0,0,0,0,0,0V4h0c0.1-1.1,0.9-2.1,2.2-2.8C12.6,0.4,14.5,0,16.5,0
		c2,0,3.9,0.4,5.3,1.2C23.1,1.9,23.9,2.9,24,4h0L24,4.2z M23.4,4.1c-1,1.2-3,2.3-6.9,2.3c-2,0-3.8-0.3-5.1-0.9
		c-1-0.5-1.1-0.7-1.8-1.4v1.2c1.4,1.2,3.8,2.1,7,2.1c3.1,0,5.5-0.8,6.9-2V4.1z"/>
</g>
</svg>
