<?xml version="1.0" encoding="utf-8"?>
<!-- Generator: Adobe Illustrator 26.3.0, SVG Export Plug-In . SVG Version: 6.00 Build 0)  -->
<svg version="1.1" id="Layer_1" xmlns="http://www.w3.org/2000/svg" xmlns:xlink="http://www.w3.org/1999/xlink" x="0px" y="0px"
	 viewBox="0 0 24 24" style="enable-background:new 0 0 24 24;" xml:space="preserve">
<style type="text/css">
	.st0{opacity:0.5;fill:#FFFFFF;enable-background:new    ;}
	.st1{fill:#EEAD56;}
</style>
<g id="icon">
	<polygon class="st0" points="14.2,11.5 13.9,10.8 0.4,10.8 0,11.5 0,20.1 2.6,22 11.4,22 14.2,20.1 	"/>
	<path class="st1" d="M14.2,11L14.2,11c-0.1-1-0.8-1.9-2.1-2.6c-1.3-0.7-3.1-1.1-5-1.1c-1.9,0-3.7,0.4-5,1.1C0.8,9.1,0.1,10,0,11h0
		v0.1c0,0,0,0,0,0h0v2.3c0,0.9,0.8,1.8,2.2,2.5c1.3,0.6,3.1,0.9,4.9,0.9c1.8,0,3.6-0.3,4.9-0.9c1.3-0.6,2.1-1.5,2.2-2.3
		c0-0.1,0-0.2,0-0.3v-2.1L14.2,11z M13.7,12.3c-1.3,1.1-3.6,1.9-6.5,1.9c-3,0-5.3-0.8-6.6-1.9v-1.1c0.7,0.7,0.8,0.9,1.8,1.3
		c1.2,0.6,3,0.9,4.9,0.9c3.7,0,5.6-1.1,6.5-2.1L13.7,12.3L13.7,12.3z M14.2,15.4v1.4c0,0.1,0,0.2,0,0.3c-0.1,0.9-0.9,1.7-2.2,2.3
		c-1.3,0.7-3.1,0.9-4.9,0.9c-1.8,0-3.6-0.3-4.9-0.9C0.8,18.8,0,17.9,0,17v-1.5c0.4,0.5,1.1,1,1.9,1.4c1.3,0.6,3.2,1,5.2,1
		c2,0,3.9-0.4,5.2-1C13.2,16.5,13.8,15.9,14.2,15.4z M14.2,19v1.4c0,0.1,0,0.2,0,0.3c-0.1,0.9-0.9,1.7-2.2,2.3
		C10.7,23.7,8.9,24,7.1,24c-1.8,0-3.6-0.3-4.9-0.9C0.8,22.4,0,21.5,0,20.6V19c0.4,0.5,1.1,1,1.9,1.4c1.3,0.6,3.2,1,5.2,1
		c2,0,3.9-0.4,5.2-1C13.2,20.1,13.8,19.5,14.2,19z"/>
	<path class="st0" d="M23.6,3.4H10.1L9.8,4.1v2c1.2,0.2,2.2,0.6,3.1,1c1.2,0.6,2,1.5,2.5,2.4l0.4,0.7l0,0.7l0,7.3h5.4l2.8-1.9V4.1
		L23.6,3.4z"/>
	<path class="st1" d="M24,11.7v1.4c0,0.1,0,0.2,0,0.3c-0.1,0.9-0.9,1.7-2.2,2.3c-1.3,0.7-3.1,0.9-4.9,0.9c-0.4,0-0.8,0-1.1,0l0-2.5
		c0.4,0,0.7,0,1.1,0c2,0,3.9-0.4,5.2-1C22.9,12.7,23.6,12.2,24,11.7z M22.1,16.7c-1.3,0.6-3.2,1-5.2,1c-0.4,0-0.8,0-1.1,0l0,2.7
		c0.4,0,0.7,0,1.1,0c1.8,0,3.6-0.3,4.9-0.9c1.3-0.6,2.1-1.5,2.2-2.3c0-0.1,0-0.2,0-0.3v-1.6C23.6,15.7,22.9,16.2,22.1,16.7z
		 M22.1,9.5c-1.3,0.6-3.2,1-5.2,1c-0.4,0-0.8,0-1.1,0l0,0.5l0,2c0.4,0,0.7,0,1.1,0c1.8,0,3.6-0.3,4.9-0.9c1.3-0.6,2.1-1.5,2.2-2.3
		c0-0.1,0-0.2,0-0.3V8.1C23.6,8.6,22.9,9.1,22.1,9.5z M24,3.8V6c0,0.1,0,0.2,0,0.3c-0.1,0.9-0.9,1.7-2.2,2.3
		c-1.3,0.7-3.1,0.9-4.9,0.9c-0.5,0-1,0-1.6-0.1c-0.5-0.9-1.3-1.7-2.4-2.3c-0.9-0.5-2-0.8-3.1-1c0,0,0,0,0,0V3.8h0c0,0,0,0,0,0V3.7h0
		c0.1-1,0.8-1.9,2.1-2.6C13.2,0.4,15,0,16.9,0c1.9,0,3.7,0.4,5,1.1c1.3,0.7,2,1.6,2.1,2.6h0L24,3.8z M23.5,3.8
		c-0.9,1.1-2.9,2.1-6.5,2.1c-1.9,0-3.6-0.3-4.9-0.9c-0.9-0.4-1.1-0.6-1.8-1.3v1.1c1.3,1.1,3.6,1.9,6.6,1.9c2.9,0,5.3-0.8,6.5-1.9
		L23.5,3.8L23.5,3.8z"/>
</g>
</svg>
