<?xml version="1.0" encoding="utf-8"?>
<!-- Generator: Adobe Illustrator 26.3.0, SVG Export Plug-In . SVG Version: 6.00 Build 0)  -->
<svg version="1.1" id="Layer_1" xmlns="http://www.w3.org/2000/svg" xmlns:xlink="http://www.w3.org/1999/xlink" x="0px" y="0px"
	 viewBox="0 0 24 24" style="enable-background:new 0 0 24 24;" xml:space="preserve">
<style type="text/css">
	.st0{opacity:0.5;fill:#FFFFFF;enable-background:new    ;}
	.st1{fill:#7B7B7B;}
	.st2{fill:#CB535D;}
	.st3{fill:#EEAC55;}
	.st4{fill:#6D6E71;}
</style>
<g id="icon">
	<path class="st0" d="M22,20H2c-0.5,0-1-0.5-1-1V5c0-0.6,0.5-1,1-1h20c0.5,0,1,0.4,1,1v14C23,19.5,22.5,20,22,20z"/>
	<path class="st1" d="M0,18.5v-13C0,4.1,1.1,3,2.5,3h19C22.9,3,24,4.1,24,5.5v13c0,1.4-1.1,2.5-2.5,2.5h-19C1.1,21,0,19.9,0,18.5z
		 M2,5.5v13C2,18.8,2.2,19,2.5,19h19c0.3,0,0.5-0.2,0.5-0.5v-13C22,5.2,21.8,5,21.5,5h-19C2.2,5,2,5.2,2,5.5z"/>
	<path class="st1" d="M23.7,10H0.2V7h23.5V10z"/>
	<path class="st2" d="M14.8,17c-1.7,0-3-1.3-3-3c0-1.7,1.3-3,3-3c0.7,0,1.3,0.2,1.8,0.6l-0.9,1.2c-0.3-0.2-0.6-0.3-0.9-0.3
		c-0.8,0-1.5,0.7-1.5,1.5c0,0.8,0.7,1.5,1.5,1.5c0.3,0,0.6-0.1,0.9-0.3l0.9,1.2C16,16.8,15.4,17,14.8,17z"/>
	<path class="st3" d="M17.8,17c-0.7,0-1.3-0.2-1.8-0.6c-0.8-0.6-1.2-1.5-1.2-2.4c0-1,0.4-1.8,1.2-2.4l0,0c0.5-0.4,1.1-0.6,1.8-0.6
		c1.7,0,3,1.3,3,3C20.8,15.7,19.4,17,17.8,17z M17.8,12.5c-0.3,0-0.6,0.1-0.9,0.3l0,0c-0.4,0.3-0.6,0.7-0.6,1.2
		c0,0.5,0.2,0.9,0.6,1.2c0.3,0.2,0.6,0.3,0.9,0.3c0.8,0,1.5-0.7,1.5-1.5C19.3,13.2,18.6,12.5,17.8,12.5z"/>
	<path class="st4" d="M10.5,17H4v-1h6.5V17z M9,14H4v1h5V14z"/>
</g>
</svg>
