<?xml version="1.0" encoding="utf-8"?>
<!-- Generator: Adobe Illustrator 26.3.0, SVG Export Plug-In . SVG Version: 6.00 Build 0)  -->
<svg version="1.1" id="Layer_1" xmlns="http://www.w3.org/2000/svg" xmlns:xlink="http://www.w3.org/1999/xlink" x="0px" y="0px"
	 viewBox="0 0 24 24" style="enable-background:new 0 0 24 24;" xml:space="preserve">
<style type="text/css">
	.st0{fill:#6485C3;}
</style>
<g id="icon">
	<path class="st0" d="M19.5,3V1H9.3H4.1H4v2h0.1h5.2c1.8,0,3.2,0.3,4.1,1c0.6,0.4,1,1.2,1.1,2H4v2h10.6c-0.1,0.3-0.2,0.7-0.3,0.9
		c-0.2,0.5-0.6,0.9-1,1.2c-0.5,0.4-1.1,0.6-1.7,0.8c-0.7,0.2-1.5,0.3-2.4,0.3H8.2H7.7H5.1l11.5,11.9l1.4-1.4l-8.2-8.5
		c0.8,0,1.6-0.2,2.2-0.4c0.9-0.3,1.7-0.7,2.4-1.2c0.7-0.5,1.2-1.2,1.6-1.9c0.3-0.5,0.4-1.1,0.5-1.8h2.9V6h-2.9
		c-0.2-1.2-0.6-2.2-1.2-3H19.5z"/>
</g>
</svg>
