<?xml version="1.0" encoding="utf-8"?>
<!-- Generator: Adobe Illustrator 26.3.0, SVG Export Plug-In . SVG Version: 6.00 Build 0)  -->
<svg version="1.1" id="Layer_1" xmlns="http://www.w3.org/2000/svg" xmlns:xlink="http://www.w3.org/1999/xlink" x="0px" y="0px"
	 viewBox="0 0 24 24" style="enable-background:new 0 0 24 24;" xml:space="preserve">
<style type="text/css">
	.st0{fill:#6485C3;}
</style>
<g id="icon">
	<path class="st0" d="M17.8,19.1c-1.6,1.3-3.7,2.1-5.8,2.1c-2.1,0-4.1-0.7-5.8-2l-2.8,2.8l-1.3-1.3l2.8-2.8c-1.3-1.6-2-3.7-2-5.8
		c0-2.1,0.7-4.2,2.1-5.8L2.1,3.4L3.5,2l2.8,2.8c1.6-1.3,3.6-2,5.7-2c2.1,0,4.1,0.7,5.8,2L20.6,2L22,3.4l-2.9,2.9
		c1.3,1.6,2,3.7,2,5.8c0,2.1-0.7,4.1-2,5.7l2.8,2.8l-1.3,1.3L17.8,19.1z M12,4.7C8,4.7,4.8,8,4.8,12S8,19.2,12,19.2s7.3-3.3,7.3-7.3
		S16,4.7,12,4.7z"/>
</g>
</svg>
