<?xml version="1.0" encoding="utf-8"?>
<!-- Generator: Adobe Illustrator 26.3.0, SVG Export Plug-In . SVG Version: 6.00 Build 0)  -->
<svg version="1.1" id="Layer_1" xmlns="http://www.w3.org/2000/svg" xmlns:xlink="http://www.w3.org/1999/xlink" x="0px" y="0px"
	 viewBox="0 0 24 24" style="enable-background:new 0 0 24 24;" xml:space="preserve">
<style type="text/css">
	.st0{fill:#6485C3;}
</style>
<g id="icon">
	<path class="st0" d="M5.9,23c-1.4,0-2.7-0.4-3.3-0.6l-0.2-0.1l0.1-0.2L3,20.5l0.2,0.1c0.6,0.2,1.6,0.5,2.7,0.5
		c0.9,0,1.6-0.2,2.2-0.6c1.9-1.3,2.8-4.4,2.8-9.3C11,6.1,12,3,14,1.7C14.8,1.2,15.6,1,16.5,1c1.4,0,2.8,0.5,3.9,0.9
		c0.4,0.1,0.6,0.2,0.9,0.3l0.2,0.1l-0.6,1.8L20.7,4c-0.3-0.1-0.6-0.2-1-0.4c-0.9-0.4-2.1-0.8-3.1-0.8c-0.6,0-1,0.1-1.4,0.4
		C13.7,4.2,13,6.9,13,11.2c0,5.5-1.2,9.2-3.6,10.8C8.4,22.7,7.2,23,5.9,23L5.9,23z"/>
	<rect x="5.2" y="10" class="st0" width="13.7" height="2"/>
</g>
</svg>
