<?xml version="1.0" encoding="utf-8"?>
<!-- Generator: Adobe Illustrator 26.3.0, SVG Export Plug-In . SVG Version: 6.00 Build 0)  -->
<svg version="1.1" id="Layer_1" xmlns="http://www.w3.org/2000/svg" xmlns:xlink="http://www.w3.org/1999/xlink" x="0px" y="0px"
	 viewBox="0 0 24 24" style="enable-background:new 0 0 24 24;" xml:space="preserve">
<style type="text/css">
	.st0{fill:#54B14C;}
	.st1{fill:#54B14E;}
	.st2{fill:#7B7B7B;}
	.st3{opacity:0.5;fill:#FFFFFF;enable-background:new    ;}
</style>
<g id="icon">
	<path class="st0" d="M3.1,17.6c-0.4,0-0.8-0.1-1.2-0.2c-0.4-0.2-0.7-0.4-1-0.7c-0.3-0.3-0.5-0.7-0.6-1.1C0.1,15.1,0,14.6,0,14.1
		c0-0.6,0.1-1.1,0.2-1.5c0.2-0.4,0.4-0.8,0.6-1.1c0.3-0.3,0.6-0.6,1-0.7c0.4-0.1,0.8-0.2,1.2-0.2c0.4,0,0.8,0.1,1.2,0.2
		c0.4,0.2,0.7,0.4,1,0.7c0.3,0.3,0.5,0.7,0.6,1.1C6,13,6.1,13.5,6.1,14.1c0,0.6-0.1,1.1-0.2,1.5c-0.2,0.4-0.4,0.8-0.6,1.1
		c-0.3,0.3-0.6,0.5-1,0.7C3.9,17.5,3.5,17.6,3.1,17.6z M3.1,12c-0.2,0-0.4,0-0.6,0.1c-0.2,0.1-0.3,0.2-0.4,0.3
		c-0.1,0.2-0.3,0.4-0.3,0.6c-0.1,0.3-0.1,0.6-0.1,1c0,0.4,0,0.7,0.1,1c0.1,0.2,0.2,0.5,0.3,0.6c0.1,0.1,0.3,0.2,0.5,0.3
		c0.2,0.1,0.4,0.1,0.6,0.1c0.2,0,0.4,0,0.6-0.1c0.2-0.1,0.3-0.2,0.5-0.3c0.1-0.2,0.3-0.4,0.3-0.6c0.1-0.3,0.1-0.6,0.1-1
		c0-0.4,0-0.7-0.1-1c-0.1-0.3-0.2-0.5-0.3-0.6c-0.1-0.1-0.3-0.2-0.4-0.3C3.5,12.1,3.3,12,3.1,12z"/>
	<path class="st0" d="M10.9,24.1c-0.4,0-0.8-0.1-1.2-0.2c-0.4-0.2-0.7-0.4-1-0.7c-0.3-0.3-0.5-0.7-0.7-1.1c-0.2-0.4-0.2-0.9-0.2-1.5
		c0-0.6,0.1-1.1,0.2-1.5c0.2-0.4,0.4-0.8,0.7-1.1c0.3-0.3,0.6-0.5,1-0.7c0.4-0.1,0.8-0.2,1.2-0.2c0.4,0,0.8,0.1,1.2,0.2
		c0.4,0.2,0.7,0.4,1,0.7c0.3,0.3,0.5,0.7,0.7,1.1c0.2,0.4,0.2,0.9,0.2,1.5c0,0.6-0.1,1.1-0.2,1.5c-0.2,0.4-0.4,0.8-0.7,1.1
		c-0.3,0.3-0.6,0.5-1,0.7C11.7,24,11.3,24.1,10.9,24.1z M10.9,18.5c-0.2,0-0.4,0-0.6,0.1c-0.2,0.1-0.3,0.2-0.5,0.3
		c-0.1,0.2-0.3,0.4-0.3,0.6c-0.1,0.3-0.1,0.6-0.1,1c0,0.4,0,0.7,0.1,1c0.1,0.2,0.2,0.5,0.3,0.6c0.1,0.1,0.3,0.3,0.5,0.3
		c0.2,0.1,0.4,0.1,0.6,0.1c0.2,0,0.4,0,0.6-0.1c0.2-0.1,0.3-0.2,0.5-0.3c0.1-0.2,0.3-0.4,0.3-0.6c0.1-0.3,0.1-0.6,0.1-1
		c0-0.4,0-0.7-0.1-1c-0.1-0.3-0.2-0.5-0.4-0.6c-0.1-0.1-0.3-0.3-0.5-0.3C11.3,18.6,11.1,18.5,10.9,18.5z"/>
	<rect x="-0.7" y="16.6" transform="matrix(0.589 -0.8081 0.8081 0.589 -11.1108 12.7654)" class="st1" width="15.4" height="1.5"/>
	<path class="st2" d="M22.1,13.1l-0.1,0c-0.8,0.1-1.6,0.1-2.4,0.2v0.9c0,0.4,0.4,0.8,0.9,0.8h1.2c0.5,0,0.9-0.4,0.9-0.8V13
		C22.4,13,22.3,13.1,22.1,13.1z"/>
	<path class="st2" d="M15,0C9.1,0,9.2,0.4,8.4,4c1.3,0.3,2.7,0.4,4.1,0.4c0.6,0,1.8,0,2.5,0H15c0.7,0,1.9,0,2.5,0
		c1.4,0,2.8-0.1,4.1-0.4C20.8,0.4,20.9,0,15,0z"/>
	<path class="st2" d="M24,5.7c-0.1-0.3-0.4-0.9-0.8-0.9c-0.1,0-0.3,0-0.4,0.1c-1.7,0.6-3.5,0.6-5.2,0.7c-0.6,0-1.8,0-2.5,0h-0.1
		c-0.7,0-1.9,0-2.5,0c-1.7,0-3.5-0.1-5.2-0.7C7.1,4.8,7,4.8,6.8,4.8C6.4,4.8,6.2,5.4,6,5.7C5.9,6,6,6.5,6.7,6.7
		c0.2,0,0.3,0.1,0.5,0.1c0,0.1-0.4,0.6-0.5,1.1C6.6,8.3,6.6,8.6,6.5,9h2.2c0-0.2,0.1-0.5,0.2-0.6c0.1-0.1,0.4-0.2,0.7-0.2
		c0.6,0,1.5,0.4,2,0.8h3.5v3.5c3.9,0,6.6-0.3,7-0.3c0.8-0.1,0.9-0.3,1.1-1c0.3-1,0.3-2.4,0-3.3c-0.2-0.5-0.5-1-0.5-1.1
		c0.1,0,0.3-0.1,0.5-0.1C24,6.5,24.1,6,24,5.7z M21.3,9.3c0,0,0,0.1,0,0.1c0,0.7-0.7,1.3-1.6,1.3c-1,0-1.7-0.4-1.7-1.1
		c0-0.8,1.6-1.5,2.4-1.5c0.3,0,0.5,0.1,0.7,0.2C21.3,8.6,21.3,8.9,21.3,9.3z"/>
	<path class="st3" d="M8.7,9c0-0.2,0.1-0.5,0.2-0.6c0.1-0.1,0.4-0.2,0.7-0.2c0.6,0,1.5,0.4,2,0.8H8.7z M21,8.4
		c-0.1-0.1-0.4-0.2-0.7-0.2c-0.9,0-2.4,0.8-2.4,1.5c0,0.7,0.7,1.1,1.7,1.1c0.9,0,1.6-0.6,1.6-1.3c0-0.1,0-0.1,0-0.1
		C21.3,8.9,21.3,8.6,21,8.4z"/>
</g>
</svg>
