<?xml version="1.0" encoding="utf-8"?>
<!-- Generator: Adobe Illustrator 26.3.0, SVG Export Plug-In . SVG Version: 6.00 Build 0)  -->
<svg version="1.1" id="Layer_1" xmlns="http://www.w3.org/2000/svg" xmlns:xlink="http://www.w3.org/1999/xlink" x="0px" y="0px"
	 viewBox="0 0 24 24" style="enable-background:new 0 0 24 24;" xml:space="preserve">
<style type="text/css">
	.st0{fill:#54B14C;}
	.st1{fill:#54B14E;}
	.st2{opacity:0.5;fill:#FFFFFF;enable-background:new    ;}
	.st3{fill:#7D7C7B;}
	.st4{fill:#EEAD56;}
</style>
<g id="icon">
	<path class="st0" d="M3.1,17.6c-0.4,0-0.8-0.1-1.2-0.2c-0.4-0.2-0.7-0.4-1-0.7c-0.3-0.3-0.5-0.7-0.6-1.1C0.1,15.1,0,14.6,0,14.1
		c0-0.6,0.1-1.1,0.2-1.5c0.2-0.4,0.4-0.8,0.6-1.1c0.3-0.3,0.6-0.6,1-0.7c0.4-0.1,0.8-0.2,1.2-0.2c0.4,0,0.8,0.1,1.2,0.2
		c0.4,0.2,0.7,0.4,1,0.7c0.3,0.3,0.5,0.7,0.6,1.1C6,13,6.1,13.5,6.1,14.1c0,0.6-0.1,1.1-0.2,1.5c-0.2,0.4-0.4,0.8-0.6,1.1
		c-0.3,0.3-0.6,0.5-1,0.7C3.9,17.5,3.5,17.6,3.1,17.6z M3.1,12c-0.2,0-0.4,0-0.6,0.1c-0.2,0.1-0.3,0.2-0.4,0.3
		c-0.1,0.2-0.3,0.4-0.3,0.6c-0.1,0.3-0.1,0.6-0.1,1c0,0.4,0,0.7,0.1,1c0.1,0.2,0.2,0.5,0.3,0.6c0.1,0.1,0.3,0.2,0.5,0.3
		c0.2,0.1,0.4,0.1,0.6,0.1c0.2,0,0.4,0,0.6-0.1c0.2-0.1,0.3-0.2,0.5-0.3c0.1-0.2,0.3-0.4,0.3-0.6c0.1-0.3,0.1-0.6,0.1-1
		c0-0.4,0-0.7-0.1-1c-0.1-0.3-0.2-0.5-0.3-0.6c-0.1-0.1-0.3-0.2-0.4-0.3C3.5,12.1,3.3,12,3.1,12z"/>
	<path class="st0" d="M10.9,24.1c-0.4,0-0.8-0.1-1.2-0.2c-0.4-0.2-0.7-0.4-1-0.7c-0.3-0.3-0.5-0.7-0.7-1.1c-0.2-0.4-0.2-0.9-0.2-1.5
		c0-0.6,0.1-1.1,0.2-1.5c0.2-0.4,0.4-0.8,0.7-1.1c0.3-0.3,0.6-0.5,1-0.7c0.4-0.1,0.8-0.2,1.2-0.2c0.4,0,0.8,0.1,1.2,0.2
		c0.4,0.2,0.7,0.4,1,0.7c0.3,0.3,0.5,0.7,0.7,1.1c0.2,0.4,0.2,0.9,0.2,1.5c0,0.6-0.1,1.1-0.2,1.5c-0.2,0.4-0.4,0.8-0.7,1.1
		c-0.3,0.3-0.6,0.5-1,0.7C11.7,24,11.3,24.1,10.9,24.1z M10.9,18.5c-0.2,0-0.4,0-0.6,0.1c-0.2,0.1-0.3,0.2-0.5,0.3
		c-0.1,0.2-0.3,0.4-0.3,0.6c-0.1,0.3-0.1,0.6-0.1,1c0,0.4,0,0.7,0.1,1c0.1,0.2,0.2,0.5,0.3,0.6c0.1,0.1,0.3,0.3,0.5,0.3
		c0.2,0.1,0.4,0.1,0.6,0.1c0.2,0,0.4,0,0.6-0.1c0.2-0.1,0.3-0.2,0.5-0.3c0.1-0.2,0.3-0.4,0.3-0.6c0.1-0.3,0.1-0.6,0.1-1
		c0-0.4,0-0.7-0.1-1c-0.1-0.3-0.2-0.5-0.4-0.6c-0.1-0.1-0.3-0.3-0.5-0.3C11.4,18.5,11.2,18.5,10.9,18.5z"/>
	<rect x="-0.7" y="16.5" transform="matrix(0.589 -0.8081 0.8081 0.589 -11.096 12.7697)" class="st1" width="15.4" height="1.5"/>
	<path class="st2" d="M22.6,6.6c-0.1,0-0.3,0.1-0.4,0.1c0,0.1,0.3,0.6,0.5,1c0.3,0.8,0.2,2.2,0,3.2c-0.2,0.7-0.3,0.9-1,1
		c-0.4,0-2.9,0.3-6.5,0.3h0V9H7.2c0-0.4,0.1-0.8,0.1-1.2c0.1-0.5,0.5-1,0.5-1c-0.1,0-0.3-0.1-0.4-0.1C6.7,6.3,6.6,5.9,6.7,5.6
		c0.1-0.3,0.4-0.9,0.7-0.9c0.1,0,0.3,0,0.4,0.1c1.5,0.5,3.2,0.6,4.8,0.6c0.5,0,1.7,0,2.3,0H15c0.7,0,1.8,0,2.3,0
		c1.6,0,3.2-0.1,4.8-0.6c0.1,0,0.3-0.1,0.4-0.1c0.3,0,0.6,0.6,0.7,0.9C23.3,5.9,23.3,6.3,22.6,6.6z M21.4,4.8c-1.2-3.4-0.5-4-6.5-4
		s-5.2,0.7-6.3,4C12.8,5.5,17.1,5.5,21.4,4.8z M18.8,13.6c0,0.4,0.4,0.7,0.9,0.7h1.6c0.5,0,0.9-0.3,0.9-0.7V12l-3.3,0.4
		C18.8,12.4,18.8,13.6,18.8,13.6z"/>
	<path class="st3" d="M23.9,5.4c-0.1-0.4-0.5-1.3-1.4-1.3c-0.2,0-0.4,0-0.6,0.1c-0.1-0.3-0.2-0.6-0.2-0.8C21.3,2.2,21,1.2,20,0.7
		C19.2,0.2,17.9,0,15,0c-2.9,0-4.2,0.2-5,0.6c-1,0.6-1.3,1.5-1.6,2.7C8.3,3.6,8.2,3.9,8.1,4.2c0,0,0,0,0,0C7.9,4.1,7.6,4.1,7.4,4.1
		C6.6,4.1,6.2,5,6.1,5.4C5.9,6,6,6.7,6.8,7.1C6.8,7.2,6.7,7.4,6.6,7.6C6.6,8.1,6.5,8.5,6.5,9h1.4c0-0.4,0.1-0.7,0.1-1.1
		C8,7.6,8.2,7.3,8.3,7.1C8.4,7.1,8.4,7,8.4,7l0.3-0.7L8,6.1C7.9,6,7.7,6,7.6,6c-0.1,0-0.2-0.1-0.2-0.1c0,0,0,0,0,0
		c0.1-0.2,0.1-0.3,0.2-0.4c0,0,0,0,0,0C9.3,6,11,6,12.6,6.1c0.5,0,1.7,0,2.3,0H15c0.6,0,1.8,0,2.3,0c1.6,0,3.3-0.1,5-0.7
		c0,0,0,0,0,0c0.1,0.1,0.1,0.2,0.2,0.4c0,0,0,0,0,0c0,0-0.1,0.1-0.2,0.1c-0.1,0-0.3,0.1-0.4,0.1l-0.7,0.2L21.5,7c0,0,0,0.1,0.1,0.1
		c0.1,0.2,0.3,0.5,0.4,0.9c0.2,0.6,0.2,1.9,0,2.8c-0.1,0.3-0.1,0.4-0.2,0.4c0,0-0.1,0-0.3,0.1l-0.1,0c-2.5,0.2-4.9,0.3-6.4,0.3h0
		v1.3h0c0.8,0,1.9,0,3.1-0.1v0.8c0,0.8,0.7,1.4,1.5,1.4h1.6c0.9,0,1.5-0.6,1.5-1.4v-1.5c0.2-0.2,0.4-0.6,0.5-1c0.3-1,0.3-2.5,0-3.5
		c-0.1-0.2-0.1-0.3-0.2-0.5C23.9,6.7,24,6,23.9,5.4z M17.3,4.8c-0.5,0-1.7,0-2.3,0h-0.1c-0.6,0-1.8,0-2.3,0c-1.1,0-2.2-0.1-3.2-0.2
		C9.5,4.2,9.6,4,9.7,3.7c0.3-1.2,0.5-1.6,1-1.9c0.7-0.4,2.2-0.5,4.3-0.5c2.1,0,3.7,0.1,4.4,0.5c0.5,0.3,0.7,0.8,1,2
		c0.1,0.2,0.1,0.5,0.2,0.8C19.5,4.7,18.4,4.8,17.3,4.8z M21.4,13.6c0,0-0.1,0.1-0.2,0.1h-1.6c-0.1,0-0.2-0.1-0.2-0.1v-0.9
		c0.6,0,1.3-0.1,2-0.1V13.6z"/>
	<path class="st4" d="M8.4,9h1.4c0,0,0-0.1,0-0.1c0-0.1,0-0.2,0-0.3c0,0,0,0,0,0c0.3,0,0.8,0.2,1.1,0.4h1.7c-0.3-1-1.9-1.7-2.8-1.7
		c-0.4,0-0.8,0.1-1,0.3C8.4,8,8.4,8.5,8.4,9L8.4,9z"/>
	<path class="st4" d="M19.4,10.7c-1.3,0-2.1-0.6-2.1-1.5c0-1.1,1.9-1.9,2.8-1.9c0.4,0,0.8,0.1,1,0.3c0.4,0.4,0.4,0.8,0.4,1.2l0,0.1
		C21.5,9.9,20.6,10.7,19.4,10.7z M18.6,9.3c0.1,0.1,0.3,0.2,0.8,0.2c0.4,0,0.7-0.2,0.7-0.4c0,0,0-0.1,0-0.1c0-0.1,0-0.2,0-0.3
		c0,0,0,0,0,0C19.6,8.6,18.8,9,18.6,9.3z"/>
</g>
</svg>
