<?xml version="1.0" encoding="utf-8"?>
<!-- Generator: Adobe Illustrator 26.3.0, SVG Export Plug-In . SVG Version: 6.00 Build 0)  -->
<svg version="1.1" id="Layer_1" xmlns="http://www.w3.org/2000/svg" xmlns:xlink="http://www.w3.org/1999/xlink" x="0px" y="0px"
	 viewBox="0 0 24 24" style="enable-background:new 0 0 24 24;" xml:space="preserve">
<style type="text/css">
	.st0{opacity:0.5;fill:#FFFFFF;enable-background:new    ;}
	.st1{fill:#6484C3;}
	.st2{fill:#EEAD56;}
</style>
<g id="icon">
	<path class="st0" d="M12.7,11.9c-2.4-0.1-4.8-1.3-6-2.2c-1.2,0.8-3.6,2-6,2.2c0,0.6,0.1,1.9,0.3,2.9c0.3,2.2,1,4.1,1.9,5.3
		c1.2,1.7,2.5,2.7,3.9,3.2c1.4-0.4,2.6-1.5,3.9-3.2c0.9-1.2,1.5-3.1,1.9-5.3C12.6,13.8,12.8,12.5,12.7,11.9z"/>
	<path class="st1" d="M6.6,23.9c-1.6-0.5-2.9-1.6-4.3-3.5c-1-1.3-1.7-3.3-2-5.6c-0.1-0.9-0.3-2.3-0.3-3L0,11l0.9-0.1
		c2-0.1,4.2-1.1,5.4-2l0.5-0.4L7.4,9c1,0.7,3.2,1.8,5.4,2l0.9,0.1l0,0.9c0,0.7-0.1,2.1-0.3,3c-0.3,2.3-1,4.3-2,5.6
		c-1.4,1.9-2.8,3-4.3,3.5L6.9,24L6.6,23.9z M1.9,12.7c0,0.6,0.1,1.3,0.2,1.9c0.3,2,0.9,3.7,1.7,4.8c1.1,1.4,2,2.3,3.1,2.7
		c1.1-0.4,2-1.2,3.1-2.7c0.8-1.1,1.4-2.8,1.7-4.8c0.1-0.6,0.2-1.3,0.2-1.9c-2.3-0.4-4.2-1.4-4.9-1.8C6.2,11.3,4.2,12.3,1.9,12.7z"/>
	<path class="st0" d="M23.2,9.8C23.2,9.7,23.2,9.7,23.2,9.8c0-1-1.3-2.2-3.3-2.6l0,0c0,0,0,0,0,0c0-0.3,0-3.2,0-3.2h0c0,0,0,0,0,0
		c0-1.7-3-3.1-6.6-3.1c-3.7,0-6.6,1.4-6.6,3.1c0,0,0,0,0,0h0c0,0,0,2.5,0,3.1l0,0L8,7.9c0.8,0.6,2.8,1.6,4.8,1.8L15,9.8l0,2.1
		c0,0.9-0.2,2.5-0.3,3.2c0,0.2,0,0.3-0.1,0.5c0.6,0.1,1.3,0.2,2,0.2c3.6,0,6.6-1.5,6.6-2.8C23.2,12.6,23.2,9.8,23.2,9.8L23.2,9.8
		L23.2,9.8z"/>
	<path class="st2" d="M24,9.8C24,9.7,24,9.7,24,9.8c0-1.4-1.3-2.6-3.3-3.2V3.9h0c0,0,0,0,0,0c0-2.2-3.2-3.9-7.4-3.9
		C9.1,0,6,1.7,6,3.9c0,0,0,0,0,0h0v3.2c0,0.1,0,0.3,0,0.4L6.8,7L8,7.9c0.8,0.6,2.8,1.6,4.8,1.8L15,9.8l0,0.8
		c2.6-0.3,4.7-1.3,5.4-2.6c1.4,0.5,2.1,1.2,2.1,1.7c0,1-2.4,2.1-5.9,2.1c-0.6,0-1.1,0-1.6-0.1l0,0.1c0,0.4,0,0.4-0.1,0.9
		c0.5,0.1,1.1,0.1,1.7,0.1c2.5,0,4.6-0.5,5.9-1.3v1.4c0,0.6-2.3,2.1-5.9,2.1c-0.7,0-1.3-0.1-1.9-0.1c0,0.1,0,0.2,0,0.3
		c-0.1,0.4-0.1,0.8-0.2,1.2c0.7,0.1,1.4,0.2,2.1,0.2c3.9,0,7.4-1.7,7.4-3.6L24,9.8L24,9.8z M13.3,1.5c3.4,0,5.9,1.3,5.9,2.4
		c0,1-2.4,2.1-5.9,2.1C9.8,6,7.5,4.9,7.5,3.9C7.5,2.8,10,1.5,13.3,1.5z M19.2,7.1c0,0.6-2.3,2.1-5.9,2.1c-3.6,0-5.8-1.5-5.8-2.1V5.7
		C8.8,6.5,10.8,7,13.3,7c2.5,0,4.6-0.5,5.9-1.3V7.1z"/>
</g>
</svg>
