<?xml version="1.0" encoding="utf-8"?>
<!-- Generator: Adobe Illustrator 26.3.0, SVG Export Plug-In . SVG Version: 6.00 Build 0)  -->
<svg version="1.1" id="Layer_1" xmlns="http://www.w3.org/2000/svg" xmlns:xlink="http://www.w3.org/1999/xlink" x="0px" y="0px"
	 viewBox="0 0 24 24" style="enable-background:new 0 0 24 24;" xml:space="preserve">
<style type="text/css">
	.st0{opacity:0.5;fill:#FFFFFF;enable-background:new    ;}
	.st1{fill:#7B7B7B;}
	.st2{fill:#F1876B;}
</style>
<g id="icon">
	<path class="st0" d="M22,20H2c-0.5,0-1-0.5-1-1V5c0-0.6,0.5-1,1-1h20c0.5,0,1,0.4,1,1v14C23,19.5,22.5,20,22,20z"/>
	<path class="st1" d="M0,18.5v-13C0,4.1,1.1,3,2.5,3h19C22.9,3,24,4.1,24,5.5v13c0,1.4-1.1,2.5-2.5,2.5h-19C1.1,21,0,19.9,0,18.5z
		 M2,5.5v13C2,18.8,2.2,19,2.5,19h19c0.3,0,0.5-0.2,0.5-0.5v-13C22,5.2,21.8,5,21.5,5h-19C2.2,5,2,5.2,2,5.5z"/>
	<path class="st2" d="M16.5,9v3.4c0,0.9,0.5,1.4,1.2,1.4c0.7,0,1.1-0.5,1.1-1.4V9h1.7v3.3c0,1.9-1,2.8-2.8,2.8
		c-1.7,0-2.8-0.9-2.8-2.8V9H16.5z M14.2,12.2V9h-0.4l-0.4,2.3c-0.1,0.7-0.2,1.4-0.3,2.1h0c-0.1-0.7-0.2-1.3-0.3-2L12.3,9h-1.9
		L10,11.2c-0.1,0.7-0.3,1.5-0.4,2.2h0c-0.1-0.6-0.2-1.4-0.3-2.1L8.9,9H7L8.5,15h2l0.5-2.4c0.1-0.5,0.2-1.1,0.3-1.8h0
		c0.1,0.7,0.2,1.3,0.3,1.8L12,15h1.9l0.4-1.7C14.2,13,14.2,12.6,14.2,12.2z M5.9,9H5.2L6.7,15h0.7L5.9,9z M4.2,9H3.5L4.9,15h0.7
		L4.2,9z"/>
</g>
</svg>
