<?xml version="1.0" encoding="utf-8"?>
<!-- Generator: Adobe Illustrator 26.3.0, SVG Export Plug-In . SVG Version: 6.00 Build 0)  -->
<svg version="1.1" id="Layer_1" xmlns="http://www.w3.org/2000/svg" xmlns:xlink="http://www.w3.org/1999/xlink" x="0px" y="0px"
	 viewBox="0 0 24 24" style="enable-background:new 0 0 24 24;" xml:space="preserve">
<style type="text/css">
	.st0{fill:#EEAD56;}
	.st1{opacity:0.5;fill:#FFFFFF;enable-background:new    ;}
	.st2{fill:#7B7B7B;}
	.st3{fill:#6485C3;}
</style>
<g id="icon">
	<path class="st0" d="M7.5,9C3.4,9,0,12.4,0,16.5S3.4,24,7.5,24s7.5-3.4,7.5-7.5S11.6,9,7.5,9z M10.5,20.4c-0.1,0.1-0.2,0.2-0.4,0.3
		C10,20.8,9.8,20.9,9.5,21c-0.2,0.1-0.5,0.2-0.8,0.2c-0.3,0.1-0.6,0.1-1,0.1c-0.6,0-1.1-0.1-1.6-0.3c-0.5-0.2-0.9-0.5-1.3-0.8
		C4.5,19.9,4.2,19.5,4,19c-0.1-0.2-0.2-0.2-0.3-0.5h-1v-1.4h0.8c0-0.1,0-0.2,0-0.3c0-0.1,0-0.8,0-0.9l0,0H3v-1.4h0.7
		C3.8,14.2,3.9,14.2,4,14c0.2-0.5,0.5-0.9,0.9-1.3c0.4-0.3,0.8-0.6,1.3-0.8c0.5-0.2,1-0.3,1.6-0.3c0.3,0,0.7,0,0.9,0.1
		c0.3,0.1,0.5,0.1,0.7,0.2c0.2,0.1,0.4,0.2,0.6,0.3c0.2,0.1,0.3,0.2,0.4,0.3c0.1,0.1,0.2,0.1,0.2,0.2l-0.9,1c0,0-0.1-0.1-0.2-0.1
		c-0.1-0.1-0.2-0.1-0.3-0.2c-0.1-0.1-0.2-0.1-0.3-0.2c-0.1-0.1-0.3-0.1-0.5-0.1C8.3,13.1,8,13,7.8,13c-0.4,0-0.8,0.1-1.1,0.2
		c-0.3,0.1-0.6,0.3-0.8,0.5c-0.2,0.2-0.3,0.2-0.4,0.6c0,0.1-0.1,0.1-0.1,0.2h3.2v1.4H4.9l0,0.1c0,0.1,0,0.8,0,0.9c0,0.1,0,0.2,0,0.3
		h3.3v1.4H5.3c0,0.1,0.1,0.1,0.1,0.2c0.1,0.3,0.2,0.4,0.4,0.6c0.2,0.2,0.5,0.4,0.8,0.5C7,19.9,7.3,20,7.7,20c0.3,0,0.5,0,0.7-0.1
		c0.2,0,0.4-0.1,0.5-0.2c0.1-0.1,0.3-0.1,0.4-0.2c0.1-0.1,0.2-0.2,0.3-0.2c0.1-0.1,0.1-0.1,0.2-0.2l1,1
		C10.7,20.2,10.7,20.3,10.5,20.4z"/>
	<path class="st1" d="M9.8,19.1c0,0-0.1,0.1-0.2,0.2c-0.1,0.1-0.2,0.1-0.3,0.2c-0.1,0.1-0.2,0.1-0.4,0.2c-0.1,0.1-0.3,0.1-0.5,0.2
		C8.3,19.9,8,20,7.7,20c-0.4,0-0.8-0.1-1.1-0.2c-0.3-0.1-0.6-0.3-0.8-0.5c-0.2-0.2-0.3-0.2-0.4-0.6c0-0.1-0.1-0.1-0.1-0.2h2.9v-1.4
		H4.9c0-0.1,0-0.2,0-0.3c0-0.1,0-0.8,0-0.9l0-0.1h3.5v-1.4H5.3c0-0.1,0.1-0.1,0.1-0.2c0.2-0.3,0.2-0.3,0.4-0.6
		c0.2-0.2,0.5-0.4,0.8-0.5C7,13.1,7.4,13,7.8,13c0.3,0,0.5,0,0.7,0.1c0.2,0,0.4,0.1,0.5,0.1c0.1,0.1,0.3,0.1,0.3,0.2
		c0.1,0.1,0.2,0.1,0.3,0.2c0.1,0.1,0.1,0.1,0.2,0.1l0.9-1c-0.1-0.1-0.1-0.1-0.2-0.2c-0.1-0.1-0.2-0.2-0.4-0.3
		c-0.2-0.1-0.4-0.2-0.6-0.3c-0.2-0.1-0.5-0.1-0.7-0.2c-0.3-0.1-0.6-0.1-0.9-0.1c-0.6,0-1.1,0.1-1.6,0.3c-0.5,0.2-0.9,0.4-1.3,0.8
		C4.5,13,4.2,13.5,4,14c-0.1,0.3-0.2,0.3-0.3,0.5H3v1.4h0.5l0,0c0,0.1,0,0.8,0,0.9c0,0.1,0,0.2,0,0.3H2.7v1.4h1
		C3.8,18.8,3.9,18.8,4,19c0.2,0.5,0.5,1,0.9,1.3c0.4,0.4,0.8,0.6,1.3,0.8c0.5,0.2,1,0.3,1.6,0.3c0.4,0,0.7,0,1-0.1
		C9,21.2,9.3,21.1,9.5,21c0.2-0.1,0.4-0.2,0.6-0.3c0.2-0.1,0.3-0.2,0.4-0.3c0.1-0.1,0.2-0.2,0.3-0.2L9.8,19.1z"/>
	<path class="st1" d="M8.8,0.8v7.1c4.2,0.6,7.5,4.2,7.5,8.6c0,1.8-0.5,3.4-1.4,4.8h8.5V0.8H8.8z"/>
	<path class="st2" d="M8,0v7.8c0.7,0,1.4,0.2,2,0.4V2h12v18h-6.5c-0.3,0.7-0.7,1.4-1.2,2H18h6V0H8z"/>
	<path class="st3" d="M18,17v2h-2v-0.6c0.1-0.4,0.2-0.9,0.2-1.4H18z M18,3h-4v1h4V3z"/>
</g>
</svg>
