<?xml version="1.0" encoding="utf-8"?>
<!-- Generator: Adobe Illustrator 26.3.0, SVG Export Plug-In . SVG Version: 6.00 Build 0)  -->
<svg version="1.1" id="Layer_1" xmlns="http://www.w3.org/2000/svg" xmlns:xlink="http://www.w3.org/1999/xlink" x="0px" y="0px"
	 viewBox="0 0 24 24" style="enable-background:new 0 0 24 24;" xml:space="preserve">
<style type="text/css">
	.st0{fill:#EEAD56;}
	.st1{opacity:0.5;fill:#FFFFFF;enable-background:new    ;}
	.st2{fill:#7B7B7B;}
	.st3{fill:#6485C3;}
</style>
<g id="icon">
	<path class="st0" d="M6.7,13.4c0.1,0,0.1,0,0.2-0.1v1.9c0,0-0.1,0-0.1,0c-0.2-0.1-0.4-0.1-0.5-0.2c-0.1-0.1-0.2-0.2-0.3-0.3
		c-0.1-0.1-0.1-0.2-0.1-0.4c0-0.1,0-0.3,0.1-0.4c0-0.1,0.1-0.2,0.2-0.3C6.3,13.6,6.5,13.5,6.7,13.4z M8.8,17.3
		c-0.2-0.1-0.3-0.2-0.6-0.2v2.4c0,0,0,0,0,0c0.2-0.1,0.4-0.2,0.6-0.4C9,19,9.1,18.8,9.1,18.6c0.1-0.2,0.1-0.4,0.1-0.6
		c0-0.2,0-0.3-0.1-0.4C9,17.5,8.9,17.4,8.8,17.3z M15,16.5c0,4.1-3.4,7.5-7.5,7.5S0,20.6,0,16.5S3.4,9,7.5,9S15,12.4,15,16.5z
		 M10.6,18c0-0.5-0.1-0.8-0.4-1.2c-0.2-0.3-0.5-0.5-0.8-0.7c-0.3-0.2-0.6-0.3-0.9-0.4c-0.1,0-0.2-0.1-0.3-0.1v-2.3
		c0.1,0.1,0.2,0.1,0.3,0.1c0.1,0.1,0.2,0.1,0.2,0.1L9.1,14l0.9-1l-0.4-0.4c-0.1-0.1-0.3-0.2-0.5-0.3C9,12.2,8.8,12.1,8.5,12
		c-0.1,0-0.2,0-0.3-0.1V11H6.8v0.9c-0.3,0-0.5,0.1-0.7,0.2c-0.3,0.1-0.6,0.3-0.9,0.5c-0.3,0.2-0.4,0.5-0.6,0.8
		c-0.1,0.3-0.2,0.6-0.2,0.9c0,0.4,0.1,0.7,0.3,1C5,15.7,5.2,16,5.5,16.1c0.2,0.2,0.5,0.3,0.8,0.4c0.2,0.1,0.3,0.1,0.5,0.2v3
		c-0.1,0-0.1,0-0.2,0c-0.2,0-0.4-0.1-0.5-0.1c-0.1-0.1-0.3-0.1-0.4-0.2c-0.1-0.1-0.3-0.2-0.4-0.3l-0.9,1c0.2,0.2,0.4,0.3,0.6,0.5
		c0.2,0.2,0.4,0.3,0.7,0.4c0.2,0.1,0.5,0.2,0.8,0.2c0.1,0,0.3,0,0.4,0V22h1.4v-1c0.2,0,0.4-0.1,0.6-0.2c0.4-0.2,0.7-0.4,1-0.7
		c0.3-0.3,0.5-0.6,0.6-1C10.5,18.8,10.6,18.4,10.6,18z"/>
	<path class="st1" d="M10.2,16.8c-0.2-0.3-0.5-0.5-0.8-0.7c-0.3-0.2-0.6-0.3-0.9-0.4c-0.1,0-0.2-0.1-0.3-0.1v-2.3
		c0.1,0.1,0.2,0.1,0.3,0.1c0.1,0.1,0.2,0.1,0.2,0.1L9.1,14l0.9-1l-0.4-0.4c-0.1-0.1-0.3-0.2-0.5-0.3C9,12.2,8.8,12.1,8.5,12
		c-0.1,0-0.2,0-0.3-0.1V11H6.8v0.9c-0.3,0-0.5,0.1-0.7,0.2c-0.3,0.1-0.6,0.3-0.9,0.5c-0.3,0.2-0.4,0.5-0.6,0.8
		c-0.1,0.3-0.2,0.6-0.2,0.9c0,0.4,0.1,0.7,0.3,1C5,15.7,5.2,16,5.5,16.1c0.2,0.2,0.5,0.3,0.8,0.4c0.2,0.1,0.3,0.1,0.5,0.2v3
		c-0.1,0-0.1,0-0.2,0c-0.2,0-0.4-0.1-0.5-0.1c-0.1-0.1-0.3-0.1-0.4-0.2c-0.1-0.1-0.3-0.2-0.4-0.3l-0.9,1c0.2,0.2,0.4,0.3,0.6,0.5
		c0.2,0.2,0.4,0.3,0.7,0.4c0.2,0.1,0.5,0.2,0.8,0.2c0.1,0,0.3,0,0.4,0V22h1.4v-1c0.2,0,0.4-0.1,0.6-0.2c0.4-0.2,0.7-0.4,1-0.7
		c0.3-0.3,0.5-0.6,0.6-1c0.1-0.4,0.2-0.7,0.2-1.1C10.6,17.5,10.5,17.1,10.2,16.8z M6.8,15.2c-0.2-0.1-0.4-0.1-0.5-0.2
		c-0.1-0.1-0.2-0.2-0.3-0.3c-0.1-0.1-0.1-0.2-0.1-0.4c0-0.1,0-0.3,0.1-0.4c0-0.1,0.1-0.2,0.2-0.3c0.1-0.1,0.3-0.2,0.5-0.3
		c0.1,0,0.1,0,0.2-0.1L6.8,15.2C6.8,15.2,6.8,15.2,6.8,15.2z M9.1,18.6C9.1,18.8,9,19,8.8,19.1c-0.1,0.1-0.3,0.3-0.6,0.4
		c0,0,0,0,0,0v-2.4c0.2,0.1,0.4,0.1,0.6,0.2c0.1,0.1,0.3,0.2,0.4,0.3c0.1,0.1,0.1,0.2,0.1,0.4C9.2,18.3,9.2,18.5,9.1,18.6z"/>
	<path class="st1" d="M8.8,0.8v7.1c4.2,0.6,7.5,4.2,7.5,8.6c0,1.8-0.5,3.4-1.4,4.8h8.5V0.8H8.8z"/>
	<path class="st2" d="M8,0v7.8c0.7,0,1.4,0.2,2,0.4V2h12v18h-6.5c-0.3,0.7-0.7,1.4-1.2,2H18h6V0H8z"/>
	<path class="st3" d="M18,17v2h-2v-0.6c0.1-0.4,0.2-0.9,0.2-1.4H18z M18,3h-4v1h4V3z"/>
</g>
</svg>
