<?xml version="1.0" encoding="utf-8"?>
<!-- Generator: Adobe Illustrator 26.3.0, SVG Export Plug-In . SVG Version: 6.00 Build 0)  -->
<svg version="1.1" id="Layer_1" xmlns="http://www.w3.org/2000/svg" xmlns:xlink="http://www.w3.org/1999/xlink" x="0px" y="0px"
	 viewBox="0 0 24 24" style="enable-background:new 0 0 24 24;" xml:space="preserve">
<style type="text/css">
	.st0{fill:#EEAD56;}
	.st1{opacity:0.5;fill:#FFFFFF;enable-background:new    ;}
	.st2{fill:#7B7B7B;}
	.st3{fill:#6485C3;}
</style>
<g id="icon">
	<path class="st0" d="M7.5,9C3.4,9,0,12.4,0,16.5S3.4,24,7.5,24s7.5-3.4,7.5-7.5S11.6,9,7.5,9z M9.5,11.4c0.4,0.2,0.8,0.4,1.2,0.6
		l-0.8,1.1C9.6,13,9.3,12.8,9,12.7L9.5,11.4z M2,16.5c0-3,2.4-5.5,5.5-5.5c0.5,0,0.9,0.1,1.4,0.2l-0.3,1.3c-0.3-0.1-0.7-0.1-1-0.1
		c-2.3,0-4.1,1.8-4.1,4.1H2z M5.4,21.6c-0.4-0.2-0.8-0.4-1.1-0.6l0.8-1.1C5.4,20,5.7,20.2,6,20.3L5.4,21.6z M7.5,22
		c-0.5,0-0.9-0.1-1.4-0.2l0.3-1.3c0.3,0.1,0.7,0.1,1,0.1c2.3,0,4.1-1.8,4.1-4.1H13C13,19.5,10.5,22,7.5,22z"/>
	<path class="st1" d="M9.9,13.2C9.6,13,9.3,12.8,9,12.7l0.5-1.3c0.4,0.2,0.8,0.4,1.2,0.6L9.9,13.2z M7.5,12.4c0.3,0,0.7,0,1,0.1
		l0.3-1.3C8.4,11.1,8,11,7.5,11c-3,0-5.5,2.4-5.5,5.5h1.4C3.4,14.2,5.2,12.4,7.5,12.4z M6,20.3c-0.3-0.1-0.6-0.3-0.9-0.5l-0.8,1.1
		c0.4,0.3,0.7,0.5,1.1,0.6L6,20.3z M13,16.5h-1.4c0,2.3-1.8,4.1-4.1,4.1c-0.4,0-0.7,0-1-0.1l-0.3,1.3C6.6,21.9,7,22,7.5,22
		C10.5,22,13,19.5,13,16.5z"/>
	<path class="st1" d="M8.8,0.8v7.1c4.2,0.6,7.5,4.2,7.5,8.6c0,1.8-0.5,3.4-1.4,4.8h8.5V0.8H8.8z"/>
	<path class="st2" d="M8,0v7.8c0.7,0,1.4,0.2,2,0.4V2h12v18h-6.5c-0.3,0.7-0.7,1.4-1.2,2H18h6V0H8z"/>
	<path class="st3" d="M18,17v2h-2v-0.6c0.1-0.4,0.2-0.9,0.2-1.4H18z M18,3h-4v1h4V3z"/>
</g>
</svg>
