<?xml version="1.0" encoding="utf-8"?>
<!-- Generator: Adobe Illustrator 26.3.0, SVG Export Plug-In . SVG Version: 6.00 Build 0)  -->
<svg version="1.1" id="Layer_1" xmlns="http://www.w3.org/2000/svg" xmlns:xlink="http://www.w3.org/1999/xlink" x="0px" y="0px"
	 viewBox="0 0 24 24" style="enable-background:new 0 0 24 24;" xml:space="preserve">
<style type="text/css">
	.st0{opacity:0.5;fill:#FFFFFF;enable-background:new    ;}
	.st1{fill:#6486C4;}
	.st2{fill:#7D7C7B;}
	.st3{fill:#EEAD56;}
</style>
<g id="icon">
	<path class="st0" d="M7.1,6C7,5.9,6.8,5.8,6.7,5.7C6,5.3,5.3,5,4.5,4.8C3.8,4.6,3.9,5.7,4.2,6.1c0.3,0.4,0.9,0.9,1,1.4
		c0.1,0.6-0.6,1-0.9,1.3c-0.4,0.4-0.6,0.9-0.9,1.4c-0.3,0.5-0.6,0.9-1.3,1c-0.7,0.1-1,0.2-1.2,0.9c-0.2,0.8-0.1,1.7-0.1,2.5
		c0,0.5,0,1.1,0.2,1.7c0.4,0.9,1.8,0.6,2.5,1.1c0.6,0.4,1.1,1,1.6,1.5c0.4,0.4,0.9,0.6,1.2,1c0.5,0.7-0.3,2.9,0.6,3.2
		c0.6,0.2,1.7,0,2.3,0c0.6,0,0.9-0.1,1.1-0.6c0.2-0.4,0.2-1,0.7-1c0.6-0.1,1.2,0.1,1.8,0.1c0.7,0,1.4-0.1,2.1-0.2
		c0.6-0.1,0.6,0.7,0.5,1c-0.1,1.2,2,0.8,2.9,0.8c0.9,0,1.3-0.2,1.8-0.9c0.4-0.5,0.8-1,1.1-1.5c0.7-1,1.2-2.1,1.6-3.3
		c0.2-0.9,0.3-1.9,0.3-2.7c0-1.5-0.2-3.2-1-4.5c-0.9-1.5-2.1-2.7-3.6-3.5"/>
	<path class="st1" d="M22.8,9.7c-1.1-1.7-2.3-2.9-3.9-3.8l-0.2-0.1l-0.4,0.7c-0.1,0.4-0.3,0.7-0.4,1l0.1,0c1.4,0.7,2.4,1.7,3.2,3.2
		c0.6,1,0.9,2.3,0.9,4c0,0.9-0.1,1.8-0.3,2.4c-0.3,0.9-0.7,1.9-1.4,3c-0.3,0.5-0.7,1-1,1.4C19,22,18.9,22,18.3,22
		c-0.2,0-0.4,0-0.7,0c-0.2,0-0.6,0-0.9,0c-0.2,0-0.3,0-0.3,0c0-0.4,0-1.1-0.5-1.5c-0.1-0.1-0.4-0.3-0.9-0.3c-0.1,0-0.2,0-0.3,0
		c-0.6,0.1-1.2,0.2-1.8,0.2l0,0c-0.2,0-0.4,0-0.6,0c-0.3,0-0.6-0.1-0.8-0.1c-0.2,0-0.3,0-0.5,0c-1,0.1-1.3,1-1.4,1.4
		c0,0.1,0,0.1-0.1,0.2c0,0-0.1,0-0.3,0c-0.2,0-0.5,0-0.7,0c-0.2,0-0.5,0-0.8,0c-0.1,0-0.2,0-0.3,0c0-0.2,0-0.6,0-0.8
		c0-0.8,0.1-1.5-0.4-2.1c-0.3-0.3-0.6-0.6-0.9-0.8c-0.2-0.1-0.3-0.2-0.4-0.3c-0.1-0.1-0.2-0.2-0.4-0.3c-0.4-0.4-0.9-0.9-1.4-1.2
		c-0.5-0.3-1-0.4-1.5-0.5c-0.2,0-0.6-0.1-0.7-0.2c-0.1-0.3-0.1-0.7-0.1-1.1v0c0-0.1,0-0.1,0-0.2c0-0.2,0-0.4,0-0.6
		c0-0.6,0-1.2,0.1-1.7c0-0.1,0-0.1,0-0.1c0,0,0.3-0.1,0.3-0.1c1.3-0.1,1.8-1.2,2-1.5c0.2-0.5,0.4-0.8,0.7-1.2c0,0,0.1-0.1,0.2-0.2
		c0.4-0.3,1.1-1,0.9-1.9C6.1,6.9,5.9,6.5,5.6,6.2c0.2,0.1,0.5,0.2,0.7,0.4l0.1,0c0.1,0.1,0.2,0.1,0.3,0.2l0.2,0.1l0.4-0.7
		C7.2,5.7,7.1,5.3,7.1,4.8C6.4,4.4,5.7,4.1,4.9,3.9c-0.1,0-0.3-0.1-0.4-0.1C4,3.9,3.7,4.1,3.4,4.4C2.9,5.1,3.2,6.2,3.6,6.7
		c0.1,0.1,0.2,0.3,0.3,0.4C4,7.2,4.2,7.4,4.3,7.6C4.3,7.6,4.1,7.7,4.1,7.8C4,7.9,3.8,8,3.7,8.1c-0.5,0.5-0.7,1-1,1.6
		c-0.2,0.4-0.4,0.5-0.5,0.5c-0.8,0.1-1.7,0.4-2,1.6C0,12.6,0,13.3,0,14c0,0.2,0,0.4,0,0.5c0,0.1,0,0.1,0,0.2c0,0.6,0,1.2,0.3,1.8
		c0.4,1,1.4,1.2,2.1,1.3C2.6,17.9,3,18,3.1,18c0.4,0.3,0.8,0.6,1.1,1c0.1,0.1,0.2,0.2,0.4,0.4c0.2,0.2,0.4,0.3,0.6,0.5
		c0.2,0.1,0.4,0.3,0.5,0.4c0,0.2,0,0.7,0,0.9c-0.1,0.9-0.1,2.2,1,2.6C7,23.9,7.4,24,7.8,24c0.3,0,0.6,0,0.9,0c0.2,0,0.4,0,0.6,0
		c0.5,0,1.5,0,2-1.2c0-0.1,0.1-0.2,0.1-0.4c0,0,0-0.1,0-0.1c0,0,0,0,0.1,0c0.2,0,0.4,0,0.7,0c0.3,0,0.5,0.1,0.8,0.1h0
		c0.6,0,1.1-0.1,1.6-0.1c0,0.6,0.2,1,0.5,1.2c0.5,0.5,1.3,0.6,1.8,0.6c0.3,0,0.7,0,1-0.1c0.2,0,0.4,0,0.5,0c1.2,0,1.8-0.3,2.5-1.3
		c0.4-0.5,0.8-1,1.1-1.6c0.8-1.3,1.3-2.4,1.7-3.5c0.3-1.1,0.3-2.3,0.3-2.9C24,12.7,23.6,11,22.8,9.7z"/>
	<path class="st2" d="M7,13.1c-1,0-1.8-0.8-1.8-1.7S6,9.7,7,9.7s1.8,0.8,1.8,1.7C8.8,12.4,8,13.1,7,13.1z M7,10.9
		c-0.3,0-0.6,0.2-0.6,0.5c0,0.3,0.3,0.5,0.6,0.5s0.6-0.2,0.6-0.5C7.6,11.1,7.3,10.9,7,10.9z"/>
	<path class="st0" d="M10.6,8.1C9.6,7.3,8.9,6.1,8.9,4.8c0-2.2,1.8-4,4-4s4,1.8,4,4c0,1.3-0.6,2.4-1.5,3.2"/>
	<path class="st3" d="M10.2,8.7C8.9,7.8,8.1,6.3,8.1,4.8c0-2.6,2.1-4.8,4.7-4.8s4.7,2.1,4.7,4.8c0,1.5-0.7,2.8-1.8,3.8l-0.9-1.2
		c0.8-0.6,1.3-1.6,1.3-2.6c0-1.8-1.5-3.3-3.2-3.3S9.6,3,9.6,4.8c0,1.1,0.5,2.1,1.4,2.7L10.2,8.7z"/>
	<path class="st1" d="M8.6,9.3L8,8.1c2.7-1.2,8-1,10.1,0l-0.6,1.2C15.8,8.4,10.8,8.3,8.6,9.3z"/>
</g>
</svg>
