<?xml version="1.0" encoding="utf-8"?>
<!-- Generator: Adobe Illustrator 26.3.0, SVG Export Plug-In . SVG Version: 6.00 Build 0)  -->
<svg version="1.1" id="Layer_1" xmlns="http://www.w3.org/2000/svg" xmlns:xlink="http://www.w3.org/1999/xlink" x="0px" y="0px"
	 viewBox="0 0 24 24" style="enable-background:new 0 0 24 24;" xml:space="preserve">
<style type="text/css">
	.st0{opacity:0.5;fill:#FFFFFF;enable-background:new    ;}
	.st1{fill:#6485C3;}
	.st2{fill:#6D6E71;}
</style>
<g id="icon">
	<path class="st0" d="M23.1,9.8h-1.4V5.6c0-1.1-0.6-1.7-1.6-1.7H2.6C1.5,4,0.9,4.5,0.9,5.6v12.8c0,1.1,0.6,1.7,1.6,1.7h17.5
		c1.1,0,1.6-0.6,1.6-1.7V15v-0.7h1.4c0.2,0,0.3-0.2,0.3-0.3v-3.8C23.5,9.9,23.3,9.8,23.1,9.8z"/>
	<path class="st1" d="M2.6,21C1,21,0,20,0,18.4V5.6C0,4,1,3,2.6,3h17.8C22,3,23,4,23,5.6v4h-2V5.7C21.1,5.2,20.8,5,20.3,5H2.7
		C2.2,5,2,5.2,2,5.7v12.6C2,18.8,2.2,19,2.7,19h17.6c0.5,0,0.8-0.2,0.7-0.7v-3.8h2v3.9c0,1.6-1,2.6-2.6,2.6H2.6z"/>
	<path class="st2" d="M14.8,15c-1.5-0.2-2.8-1.5-2.8-3s1.3-2.8,2.8-3h8.3c0.5,0.2,0.9,0.6,0.9,1.1v3.8c0,0.5-0.4,0.9-0.9,1.1
		C23.1,15,14.8,15,14.8,15z M14.8,10.1c-0.9,0.2-1.7,1-1.7,1.9s0.8,1.7,1.7,1.9h8.1v-3.8C22.9,10.1,14.8,10.1,14.8,10.1z"/>
	<rect x="15.8" y="11.2" class="st2" width="2.3" height="1.5"/>
</g>
</svg>
