<?xml version="1.0" encoding="utf-8"?>
<!-- Generator: Adobe Illustrator 26.3.0, SVG Export Plug-In . SVG Version: 6.00 Build 0)  -->
<svg version="1.1" id="Layer_1" xmlns="http://www.w3.org/2000/svg" xmlns:xlink="http://www.w3.org/1999/xlink" x="0px" y="0px"
	 viewBox="0 0 24 24" style="enable-background:new 0 0 24 24;" xml:space="preserve">
<style type="text/css">
	.st0{opacity:0.5;fill:#FFFFFF;enable-background:new    ;}
	.st1{fill:#6485C3;}
	.st2{fill:#6D6E71;}
	.st3{fill:#EEAD56;}
</style>
<g id="icon">
	<path class="st0" d="M23.1,6.8h-1.4V2.6c0-1.1-0.6-1.7-1.6-1.7H7.6c-1.1,0-1.6,0.6-1.6,1.7v5.3c0.5-0.1,1-0.1,1.6-0.1
		c4.8,0,8.7,3.9,8.7,8.7c0,0.2,0,0.4,0,0.5h3.9c1.1,0,1.6-0.6,1.6-1.7V12v-0.7h1.4c0.2,0,0.3-0.2,0.3-0.3V7.1
		C23.5,6.9,23.3,6.8,23.1,6.8z"/>
	<path class="st1" d="M23,2.6v4h-2V2.7C21.1,2.2,20.8,2,20.3,2H7.7C7.2,2,7,2.2,7,2.7v5.1C6.3,7.9,5.6,8,5,8.2V2.6C5,1,6,0,7.6,0
		h12.8C22,0,23,1,23,2.6z M21,15.3c0.1,0.6-0.2,0.7-0.7,0.7h-4.1c0,0.2,0,0.3,0,0.5c0,0.5,0,1-0.1,1.5h4.3c1.6,0,2.6-1,2.6-2.6v-3.9
		h-2V15.3z"/>
	<path class="st2" d="M23.1,6h-6.3C15.3,6.2,14,7.5,14,9s1.3,2.8,2.8,3h6.3c0.5-0.2,0.9-0.6,0.9-1.1V7.1C24,6.6,23.6,6.2,23.1,6z
		 M22.9,10.9h-6.1c-0.9-0.2-1.7-1-1.7-1.9s0.8-1.7,1.7-1.9h6.1V10.9z"/>
	<rect x="17.8" y="8.2" class="st2" width="2.3" height="1.5"/>
	<circle class="st0" cx="7.5" cy="16.5" r="6.8"/>
	<path class="st3" d="M7.5,9C3.4,9,0,12.4,0,16.5S3.4,24,7.5,24s7.5-3.4,7.5-7.5S11.6,9,7.5,9z M7.5,22.5c-3.3,0-6-2.7-6-6
		s2.7-6,6-6s6,2.7,6,6S10.8,22.5,7.5,22.5z M9.2,16.2C9,16,8.7,15.9,8.4,15.8c-0.1,0-0.2,0-0.3-0.1v-2c0.1,0,0.2,0.1,0.3,0.1
		C8.5,13.9,8.6,14,8.6,14l0.4,0.3l0.8-0.9l-0.4-0.3C9.3,13,9.1,12.9,9,12.8c-0.2-0.1-0.4-0.2-0.6-0.3c-0.1,0-0.2,0-0.2-0.1v-0.8H6.9
		v0.8c-0.2,0-0.4,0.1-0.6,0.2c-0.3,0.1-0.6,0.3-0.8,0.5c-0.2,0.2-0.4,0.4-0.5,0.7c-0.1,0.3-0.2,0.5-0.1,0.8c0,0.3,0.1,0.7,0.3,0.9
		c0.2,0.2,0.3,0.4,0.6,0.6c0.2,0.1,0.5,0.3,0.7,0.3c0.1,0,0.3,0.1,0.5,0.1v2.6c-0.1,0-0.1,0-0.2,0c-0.2,0-0.3-0.1-0.4-0.1
		C6.2,19.1,6.1,19,6,18.9c-0.1-0.1-0.2-0.2-0.4-0.3l-0.8,0.9c0.2,0.2,0.3,0.3,0.5,0.4c0.2,0.1,0.4,0.2,0.6,0.3
		c0.2,0.1,0.4,0.1,0.7,0.2c0.1,0,0.3,0,0.4,0v0.8h1.2v-0.9c0.2,0,0.3-0.1,0.5-0.2c0.3-0.1,0.6-0.3,0.9-0.6c0.2-0.2,0.4-0.5,0.6-0.8
		c0.1-0.3,0.2-0.7,0.2-1c0-0.4-0.1-0.7-0.3-1C9.7,16.5,9.5,16.3,9.2,16.2z M6.8,15.4c-0.2-0.1-0.3-0.1-0.4-0.2
		c-0.1-0.1-0.2-0.1-0.2-0.2c0-0.1-0.1-0.2-0.1-0.3c0-0.1,0-0.2,0.1-0.3c0-0.1,0.1-0.2,0.2-0.3c0.1-0.1,0.2-0.2,0.4-0.2
		c0.1,0,0.1,0,0.2-0.1L6.8,15.4C6.9,15.4,6.9,15.4,6.8,15.4z M8.9,18.4c-0.1,0.2-0.2,0.3-0.3,0.4c-0.1,0.1-0.3,0.2-0.5,0.3
		c0,0,0,0,0,0V17c0.2,0.1,0.3,0.1,0.5,0.2c0.1,0.1,0.2,0.2,0.3,0.3C9,17.6,9,17.7,9,17.9C9,18,9,18.2,8.9,18.4z"/>
</g>
</svg>
