<?xml version="1.0" encoding="UTF-8"?>
<!DOCTYPE svg PUBLIC "-//W3C//DTD SVG 1.1//EN" "http://www.w3.org/Graphics/SVG/1.1/DTD/svg11.dtd">
<svg version="1.1" id="Layer_1" xmlns="http://www.w3.org/2000/svg" xmlns:xlink="http://www.w3.org/1999/xlink" x="0px" y="0px" width="32px" height="32px" viewBox="0 0 32 32" enable-background="new 0 0 32 32" xml:space="preserve">
  <g id="icon">
    <path d="M2,29v1H1v-1H2zM1,27v1h1v-1H1zM1,25v1h1v-1H1zM1,23v1h1v-1H1zM1,21v1h1v-1H1zM1,19v1h1v-1H1zM1,17v1h1v-1H1zM1,15v1h1v-1H1zM1,13v1h1v-1H1zM1,11v1h1v-1H1zM1,9v1h1V9H1zM1,7v1h1V7H1zM1,5v1h1V5H1zM1,3v1h1V3H1zM1,1v1h1V1H1zM16,29v1h-1v-1H16zM15,27v1h1v-1H15zM15,25v1h1v-1H15zM15,23v1h1v-1H15zM15,21v1h1v-1H15zM15,19v1h1v-1H15zM15,17v1h1v-1H15zM15,15v1h1v-1H15zM15,13v1h1v-1H15zM15,11v1h1v-1H15zM15,9v1h1V9H15zM15,7v1h1V7H15zM15,5v1h1V5H15zM15,3v1h1V3H15zM15,1v1h1V1H15zM13,30h1v-1h-1V30zM11,30h1v-1h-1V30zM9,30h1v-1H9V30zM7,30h1v-1H7V30zM5,30h1v-1H5V30zM3,30h1v-1H3V30zM13,16h1v-1h-1V16zM11,16h1v-1h-1V16zM9,16h1v-1H9V16zM7,16h1v-1H7V16zM5,16h1v-1H5V16zM3,16h1v-1H3V16zM13,2h1V1h-1V2zM11,2h1V1h-1V2zM9,2h1V1H9V2zM7,2h1V1H7V2zM5,2h1V1H5V2zM3,2h1V1H3V2zM27,2h1V1h-1V2zM25,2h1V1h-1V2zM23,2h1V1h-1V2zM21,2h1V1h-1V2zM19,2h1V1h-1V2zM17,2h1V1h-1V2zM27,16h1v-1h-1V16zM25,16h1v-1h-1V16zM23,16h1v-1h-1V16zM21,16h1v-1h-1V16zM19,16h1v-1h-1V16zM17,16h1v-1h-1V16zM27,30h1v-1h-1V30zM25,30h1v-1h-1V30zM23,30h1v-1h-1V30zM21,30h1v-1h-1V30zM19,30h1v-1h-1V30zM17,30h1v-1h-1V30z" fill="#383838" opacity="0.6"/>
    <path d="M30,1v29h-2V1H30z" fill="#383838"/>
  </g>
</svg>
