<?xml version="1.0" encoding="UTF-8"?>
<!DOCTYPE svg PUBLIC "-//W3C//DTD SVG 1.1//EN" "http://www.w3.org/Graphics/SVG/1.1/DTD/svg11.dtd">
<svg version="1.1" id="Layer_1" xmlns="http://www.w3.org/2000/svg" xmlns:xlink="http://www.w3.org/1999/xlink" x="0px" y="0px" width="32px" height="32px" viewBox="0 0 32 32" enable-background="new 0 0 32 32" xml:space="preserve">
  <g id="icon">
    <path d="M26.467,1.5H4.533C3.963,1.5,3.5,1.963,3.5,2.533V6.5h24V2.533C27.5,1.963,27.037,1.5,26.467,1.5z" fill="#92CBEE" stroke="#0964B0" stroke-width="1" stroke-linecap="round" stroke-miterlimit="1"/>
    <path d="M3.5,8.5v20.624c0,0.76,0.616,1.376,1.376,1.376h21.248c0.76,0,1.376,-0.616,1.376,-1.376V8.5H3.5zM15.5,27.5c-4.418,0,-8,-3.582,-8,-8s3.582,-8,8,-8s8,3.582,8,8S19.918,27.5,15.5,27.5z" fill="#92CBEE"/>
    <path d="M26.124,31H4.876C3.842,31,3,30.158,3,29.124V8h25v21.124C28,30.158,27.158,31,26.124,31zM4,9v20.124c0,0.483,0.393,0.876,0.876,0.876h21.248c0.483,0,0.876,-0.393,0.876,-0.876V9H4z" fill="#0964B0"/>
    <path d="M23,19.789c-0.153,4.008,-3.451,7.211,-7.5,7.211s-7.347,-3.203,-7.5,-7.211c0.279,0.492,0.807,0.825,1.413,0.825c0.699,0,1.293,-0.442,1.522,-1.062c0.228,0.619,0.823,1.062,1.522,1.062c0.699,0,1.293,-0.442,1.522,-1.062c0.228,0.619,0.823,1.062,1.522,1.062s1.293,-0.442,1.522,-1.062c0.228,0.619,0.823,1.062,1.522,1.062s1.293,-0.442,1.522,-1.062c0.228,0.619,0.823,1.062,1.522,1.062C22.193,20.614,22.721,20.281,23,19.789z" fill="#FFFFFF"/>
    <path d="M15.55,11.5c-4.391,0,-7.95,3.559,-7.95,7.95c0,4.391,3.559,7.95,7.95,7.95s7.95,-3.559,7.95,-7.95C23.5,15.059,19.941,11.5,15.55,11.5zM17.898,26.607c-0.001,0,-0.001,0,-0.002,0.001c-0.104,0.035,-0.209,0.068,-0.315,0.098c-0.012,0.003,-0.024,0.007,-0.036,0.01c-0.096,0.027,-0.193,0.053,-0.29,0.076c-0.023,0.006,-0.047,0.01,-0.07,0.016c-0.088,0.02,-0.176,0.04,-0.265,0.057c-0.036,0.007,-0.072,0.012,-0.107,0.019c-0.078,0.014,-0.157,0.028,-0.236,0.039c-0.049,0.007,-0.099,0.012,-0.149,0.018c-0.068,0.008,-0.135,0.017,-0.203,0.024c-0.068,0.007,-0.136,0.01,-0.205,0.015c-0.051,0.004,-0.103,0.008,-0.154,0.011c-0.121,0.006,-0.243,0.009,-0.366,0.009s-0.245,-0.003,-0.366,-0.009c-0.052,-0.002,-0.103,-0.007,-0.154,-0.011c-0.068,-0.005,-0.137,-0.009,-0.205,-0.015c-0.068,-0.007,-0.135,-0.016,-0.203,-0.024c-0.05,-0.006,-0.099,-0.011,-0.149,-0.018c-0.079,-0.011,-0.158,-0.025,-0.236,-0.039c-0.036,-0.006,-0.072,-0.012,-0.107,-0.019c-0.089,-0.017,-0.177,-0.036,-0.265,-0.057c-0.023,-0.005,-0.047,-0.01,-0.07,-0.016c-0.098,-0.023,-0.194,-0.049,-0.29,-0.076c-0.012,-0.003,-0.024,-0.007,-0.036,-0.01c-0.106,-0.031,-0.211,-0.063,-0.315,-0.098c-0.001,0,-0.001,0,-0.002,-0.001c-2.882,-0.971,-4.981,-3.64,-5.102,-6.818c0.275,0.487,0.795,0.817,1.392,0.824c0.474,-0.061,0.911,-0.261,1.247,-0.561c0.126,-0.146,0.228,-0.315,0.296,-0.5c0.228,0.619,0.823,1.062,1.522,1.062c0.699,0,1.293,-0.442,1.522,-1.062c0.228,0.619,0.823,1.062,1.522,1.062s1.293,-0.442,1.522,-1.062c0.228,0.619,0.823,1.062,1.522,1.062c0.699,0,1.293,-0.442,1.522,-1.062c0.068,0.185,0.17,0.353,0.296,0.5c0.336,0.3,0.772,0.5,1.247,0.561c0.598,-0.008,1.117,-0.338,1.392,-0.824C22.879,22.967,20.78,25.636,17.898,26.607z" fill="#78797A"/>
    <circle cx="15.5" cy="19.5" r="8" fill="none" stroke="#383838" stroke-width="1" stroke-miterlimit="1"/>
    <path d="M9,5H6V3h3V5zM14,3h-3v2h3V3z" fill="#FFFFFF"/>
  </g>
</svg>
