<?xml version="1.0" encoding="UTF-8"?>
<!DOCTYPE svg PUBLIC "-//W3C//DTD SVG 1.1//EN" "http://www.w3.org/Graphics/SVG/1.1/DTD/svg11.dtd">
<svg version="1.1" id="Layer_1" xmlns="http://www.w3.org/2000/svg" xmlns:xlink="http://www.w3.org/1999/xlink" x="0px" y="0px" width="32px" height="32px" viewBox="0 0 32 32" enable-background="new 0 0 32 32" xml:space="preserve">
  <g id="icon">
    <polygon points="30.5,30.5 8.5,30.5 8.5,1.5 22.5,1.5 30.5,9.5" fill="#FFFFFF" stroke-linejoin="miter"/>
    <path d="M22.707,1H8v12h1V2h13v8h8v20H9v-2H8v3h23V9.293L22.707,1zM23,9V2.707L29.293,9H23z" fill="#383838"/>
    <rect x="1.5" y="15.5" width="25" height="10" fill="#FFFFFF" stroke="#228BCB" stroke-width="1" stroke-miterlimit="1"/>
    <path d="M17.1,24v-7h4.6v1h-3.6v2h2.9v1h-2.9v3H17.1zM14.1,24v-7h1v7H14.1zM7,24v-7h2.523c0.473,0,0.913,0.08,1.311,0.236c0.407,0.161,0.762,0.399,1.055,0.708c0.291,0.306,0.518,0.681,0.677,1.116c0.155,0.425,0.234,0.909,0.234,1.44c0,0.531,-0.079,1.015,-0.234,1.44c-0.159,0.434,-0.386,0.81,-0.677,1.116c-0.294,0.309,-0.649,0.547,-1.055,0.708c-0.397,0.157,-0.838,0.236,-1.311,0.236H7zM8,23h1.523c0.346,0,0.664,-0.056,0.943,-0.167c0.274,-0.108,0.502,-0.261,0.698,-0.467c0.196,-0.206,0.351,-0.465,0.463,-0.77c0.115,-0.315,0.173,-0.684,0.173,-1.097c0,-0.413,-0.058,-0.782,-0.173,-1.097c-0.112,-0.305,-0.267,-0.564,-0.463,-0.77c-0.195,-0.206,-0.424,-0.358,-0.698,-0.466c-0.28,-0.11,-0.597,-0.166,-0.943,-0.166H8V23z" fill="#238BCB"/>
  </g>
</svg>
