<?xml version="1.0" encoding="UTF-8"?>
<!DOCTYPE svg PUBLIC "-//W3C//DTD SVG 1.1//EN" "http://www.w3.org/Graphics/SVG/1.1/DTD/svg11.dtd">
<svg version="1.1" id="Layer_1" xmlns="http://www.w3.org/2000/svg" xmlns:xlink="http://www.w3.org/1999/xlink" x="0px" y="0px" width="32px" height="32px" viewBox="0 0 32 32" enable-background="new 0 0 32 32" xml:space="preserve">
  <g id="icon">
    <path d="M1.5,8V2.5h28v5.5H1.5z" fill="#FFFFFF"/>
    <path d="M8.5,3v5M15.5,3v5M22.5,3v5" fill="none" stroke="#787979" stroke-width="1" stroke-miterlimit="1" opacity="0.6"/>
    <path d="M1,8V2h29v6h-1V3H2v5H1z" fill="#383838"/>
    <path d="M29.5,29.5H1.5V9.5h28V29.5z" fill="#92CBEE" stroke="#0964B0" stroke-width="1" stroke-linecap="round" stroke-miterlimit="1"/>
    <path d="M2,14.5h27M2,19.5h27M2,24.5h27" fill="#FFFFFF" stroke="#228BCB" stroke-width="1" stroke-miterlimit="1" opacity="0.3"/>
    <path d="M12.333,19.004l1.767,1.78v-9.368c0,-0.175,0.142,-0.317,0.317,-0.317h2.166c0.175,0,0.317,0.142,0.317,0.317v9.471l1.771,-1.784c0.123,-0.124,0.324,-0.125,0.448,-0.002l1.537,1.526c0.124,0.123,0.125,0.324,0.002,0.448l-4.881,4.917c-0.124,0.125,-0.326,0.125,-0.45,0l-4.981,-5.017c-0.123,-0.124,-0.123,-0.325,0.002,-0.448l1.537,-1.526C12.009,18.88,12.209,18.88,12.333,19.004z" fill="#FFFFFF" opacity="0.7"/>
    <path d="M15.5,12.1v12.1M11.792,20.359l3.802,3.829l3.702,-3.729" fill="none" stroke="#383838" stroke-width="1.1" stroke-miterlimit="1"/>
  </g>
</svg>
