<?xml version="1.0" encoding="UTF-8"?>
<!DOCTYPE svg PUBLIC "-//W3C//DTD SVG 1.1//EN" "http://www.w3.org/Graphics/SVG/1.1/DTD/svg11.dtd">
<svg version="1.1" id="Layer_1" xmlns="http://www.w3.org/2000/svg" xmlns:xlink="http://www.w3.org/1999/xlink" x="0px" y="0px" width="32px" height="32px" viewBox="0 0 32 32" enable-background="new 0 0 32 32" xml:space="preserve">
  <g id="icon">
    <path d="M28.5,30.5H7.5V1.5h21V30.5z" fill="#FFFFFF" stroke="#383838" stroke-width="1" stroke-miterlimit="1"/>
    <rect x="3.5" y="1.5" width="4" height="29" fill="#C8C6C4" stroke="#383838" stroke-width="1" stroke-linecap="round" stroke-miterlimit="1"/>
    <path d="M19.446,9.111c-0.095,-0.113,-0.28,-0.302,-0.57,-0.436c-0.129,-0.059,-0.415,-0.188,-0.784,-0.145c-0.369,0.042,-0.617,0.232,-0.784,0.363c-0.382,0.3,-0.56,0.668,-0.642,0.799c-0.619,0.995,-0.998,3.28,-0.998,3.28c-0.202,1.571,-0.396,2.646,-0.784,4.796c0,0,-0.161,0.895,-0.927,3.342c-0.068,0.217,-0.254,0.795,-0.713,1.381c-0.415,0.53,-0.791,0.732,-0.927,0.799c-0.221,0.109,-0.523,0.254,-0.927,0.218c-0.431,-0.038,-0.731,-0.259,-0.856,-0.363M13.3,13.5h4.2M19.255,20.599l6.212,-7.08M24.649,20.599l-4.168,-7.08" fill="none" stroke="#228BCB" stroke-width="1.2" stroke-linecap="square" stroke-miterlimit="1"/>
  </g>
</svg>
