<?xml version="1.0" encoding="UTF-8"?>
<!DOCTYPE svg PUBLIC "-//W3C//DTD SVG 1.1//EN" "http://www.w3.org/Graphics/SVG/1.1/DTD/svg11.dtd">
<svg version="1.1" id="Layer_1" xmlns="http://www.w3.org/2000/svg" xmlns:xlink="http://www.w3.org/1999/xlink" x="0px" y="0px" width="32px" height="32px" viewBox="0 0 32 32" enable-background="new 0 0 32 32" xml:space="preserve">
  <g id="icon">
    <path d="M1.5,2.5v22h29V2.5H1.5zM23.713,12.417c-0.362,2.619,-1.172,4.9,-2.281,6.421c-1.593,2.185,-3.18,3.456,-4.994,3.999l-0.227,0.068c-0.133,0.04,-0.274,0.04,-0.407,0l-0.227,-0.068c-1.827,-0.547,-3.419,-1.818,-5.009,-3.999c-1.109,-1.521,-1.919,-3.801,-2.281,-6.42c-0.15,-1.083,-0.296,-2.549,-0.286,-3.382l0.009,-0.736c0.004,-0.372,0.295,-0.677,0.667,-0.699l0.735,-0.044c2.395,-0.143,4.798,-1.425,5.734,-2.083l0.455,-0.32c0.245,-0.172,0.571,-0.172,0.815,0l0.455,0.32c0.936,0.658,3.337,1.941,5.719,2.083l0.735,0.044c0.371,0.022,0.662,0.327,0.667,0.699l0.009,0.736C24.009,9.869,23.863,11.335,23.713,12.417z" fill="#FFFFFF"/>
    <path d="M1,2v23h30V2H1zM30,24H2V3h28V24z" fill="#383838"/>
    <polygon points="1.5,28.5 12.533,28.5 16.5,24.5 1.5,24.5" fill="#92CBEE" stroke-linejoin="miter"/>
    <path d="M29.908,25.6l-3.375,3.4h-5.694l3.375,-3.4H29.908zM17.414,25.6l-3.375,3.4h5.694l3.375,-3.4H17.414z" fill="#78797A" opacity="0.2"/>
    <path d="M23.117,25.6l-3.375,3.4h-5.703l0.992,-1h4.294l2.383,-2.4H23.117zM28.508,25.6l-2.383,2.4h-4.294l-0.992,1h5.703l3.375,-3.4H28.508z" fill="#78797A" opacity="0.3"/>
    <path d="M17.7,24h-2.2H1v5h11.742l3.967,-4H31v-1H17.7zM12.325,28H2v-3h13.3L12.325,28z" fill="#0964B0"/>
    <path d="M16,5.025V3h1v2.562c-0.046,-0.031,-0.09,-0.061,-0.13,-0.089l-0.455,-0.32C16.291,5.066,16.145,5.023,16,5.025zM10.568,18.838c-0.188,-0.258,-0.366,-0.539,-0.536,-0.838H9v-2.397c-0.314,-0.975,-0.556,-2.048,-0.713,-3.185c-0.15,-1.083,-0.296,-2.549,-0.286,-3.382l0.009,-0.736c0.004,-0.372,0.295,-0.677,0.667,-0.699L9,7.58V3H8v5H2v1h6v4H2v1h6v4H2v1h6v5h1v-5h1.69C10.649,18.946,10.609,18.893,10.568,18.838zM16.437,22.837l-0.227,0.068c-0.069,0.021,-0.14,0.03,-0.211,0.029V24h1v-1.36C16.815,22.713,16.627,22.78,16.437,22.837zM30,9V8h-6V3h-1v4.58l0.324,0.019c0.371,0.022,0.662,0.327,0.667,0.699l0.009,0.736c0.01,0.834,-0.137,2.3,-0.286,3.382c-0.157,1.137,-0.399,2.21,-0.713,3.185V18h-1.032c-0.17,0.299,-0.349,0.58,-0.536,0.838c-0.04,0.055,-0.081,0.108,-0.121,0.162H23v5h1v-5h6v-1h-6v-4h6v-1h-6V9H30z" fill="#787979" opacity="0.6"/>
    <path d="M2,3v21h28V3H2zM29,23H3V4h26V23z" fill="#FFFFFF" opacity="0.5"/>
    <path d="M22.5,9.053C19.906,8.898,17.288,7.6,16.007,6.7c-1.28,0.9,-3.913,2.198,-6.507,2.353c-0.008,0.685,0.116,2.03,0.272,3.159c0.329,2.379,1.042,4.418,2.008,5.742c1.35,1.852,2.678,2.982,4.227,3.446c1.549,-0.464,2.863,-1.594,4.213,-3.446c0.966,-1.324,1.679,-3.364,2.008,-5.742C22.383,11.083,22.508,9.739,22.5,9.053z" fill="#ACD8B1" stroke="#0BA04A" stroke-width="1" stroke-linecap="round" stroke-miterlimit="1"/>
    <path d="M12.5,13.937l2.682,2.682L20.5,11.3" fill="none" stroke="#17AB4F" stroke-width="1" stroke-miterlimit="1"/>
    <path d="M12.5,13.937l2.682,2.682L20.5,11.3" fill="none" stroke="#383838" stroke-width="1" stroke-miterlimit="1" opacity="0.3"/>
  </g>
</svg>
