<?xml version="1.0" encoding="UTF-8"?>
<!DOCTYPE svg PUBLIC "-//W3C//DTD SVG 1.1//EN" "http://www.w3.org/Graphics/SVG/1.1/DTD/svg11.dtd">
<svg version="1.1" id="Layer_1" xmlns="http://www.w3.org/2000/svg" xmlns:xlink="http://www.w3.org/1999/xlink" x="0px" y="0px" width="24px" height="24px" viewBox="0 0 24 24" enable-background="new 0 0 24 24" xml:space="preserve">
  <g id="icon">
    <path d="M22.5,20.5H1.5V4.5h21V20.5z" fill="#FFFFFF" opacity="0.5"/>
    <path d="M24,22H0V3h24V22zM2,20h20V5H2V20z" fill="#7B7B7B"/>
    <path d="M20,12h-5v-1h5V12zM20,18h-5v-1h5V18zM20,10h-5V9h5V10zM20,8h-5V7h5V8z" fill="#6D6E71"/>
    <path d="M10.9954,13.7311c-0.917,-0.2201,-0.6107,-0.1311,-1.2423,0.8689c-0.6128,0.9703,-1.2082,2.8647,-1.2607,2.9881c-0.0526,-0.1234,-0.6479,-2.0177,-1.2608,-2.9881c-0.6316,-1,-0.3253,-1.089,-1.2423,-0.8689c-1.5526,0.3727,-2.9995,1.8058,-2.9995,2.9612c0,1.6811,2.7508,1.3239,5.5026,1.3237c2.7517,0.0002,5.5026,0.3575,5.5026,-1.3237C13.9949,15.5369,12.5479,14.1038,10.9954,13.7311z" fill="#9070B1"/>
    <path d="M11.3815,10.2867C11.2318,7.625,9.9083,7,8.4745,7s-2.7393,0.625,-2.889,3.2867c-0.1159,4.4277,0.2344,3.8013,1.6628,3.155c0.3564,0.3386,0.7692,0.5512,1.2253,0.5512c0.4566,0,0.8698,-0.2131,1.2264,-0.5523C11.1349,14.0871,11.4975,14.717,11.3815,10.2867zM8.491,13.2488c-1.2354,0,-1.9198,-2.1283,-1.9198,-3.5187c0,-0.6804,0.1667,0.3246,1.208,0.3246c0.6314,0,2.5885,-1.0861,2.5885,-0.1623C10.3677,12.0335,9.4765,13.2488,8.491,13.2488z" fill="#9070B1"/>
  </g>
</svg>
