<?xml version="1.0" encoding="UTF-8"?>
<!DOCTYPE svg PUBLIC "-//W3C//DTD SVG 1.1//EN" "http://www.w3.org/Graphics/SVG/1.1/DTD/svg11.dtd">
<svg version="1.1" id="Layer_1" xmlns="http://www.w3.org/2000/svg" xmlns:xlink="http://www.w3.org/1999/xlink" x="0px" y="0px" width="24px" height="24px" viewBox="0 0 24 24" enable-background="new 0 0 24 24" xml:space="preserve">
  <g id="icon">
    <path d="M22.5,20.5H1.5V5.5h21V20.5z" fill="#FFFFFF" opacity="0.5"/>
    <path d="M20,13h-5v-1h5V13zM20,11h-5v-1h5V11z" fill="#6D6E71"/>
    <polygon points="15,4 15,6 22,6 22,20 2,20 2,6 9,6 9,4 0,4 0,22 24,22 24,4" fill="#7B7B7B" stroke-linejoin="miter"/>
    <path d="M13.5,6.5h-3V2c0,-0.8284,0.6716,-1.5,1.5,-1.5h0c0.8284,0,1.5,0.6716,1.5,1.5V6.5z" fill="#FFFFFF"/>
    <path d="M14,7h-4V2c0,-1.1028,0.8972,-2,2,-2s2,0.8972,2,2V7zM11,6h2V2c0,-0.5514,-0.4486,-1,-1,-1s-1,0.4486,-1,1V6z" fill="#6D6E71"/>
    <path d="M10.9954,14.7311c-0.917,-0.2201,-0.6107,-0.1311,-1.2423,0.8689c-0.6128,0.9703,-1.2082,2.8647,-1.2607,2.9881c-0.0526,-0.1234,-0.6479,-2.0177,-1.2608,-2.9881c-0.6316,-1,-0.3253,-1.089,-1.2423,-0.8689c-1.5526,0.3727,-2.9995,1.8058,-2.9995,2.9612c0,1.6811,2.7508,1.3239,5.5026,1.3237c2.7517,0.0002,5.5026,0.3575,5.5026,-1.3237C13.9949,16.5369,12.5479,15.1038,10.9954,14.7311z" fill="#9070B1"/>
    <path d="M11.3815,11.2867C11.2318,8.625,9.9083,8,8.4745,8s-2.7393,0.625,-2.889,3.2867c-0.1159,4.4277,0.2344,3.8013,1.6628,3.155c0.3564,0.3386,0.7692,0.5512,1.2253,0.5512c0.4566,0,0.8698,-0.2131,1.2264,-0.5523C11.1349,15.0871,11.4975,15.717,11.3815,11.2867zM8.491,14.2488c-1.2354,0,-1.9198,-2.1283,-1.9198,-3.5187c0,-0.6804,0.1667,0.3246,1.208,0.3246c0.6314,0,2.5885,-1.0861,2.5885,-0.1623C10.3677,13.0335,9.4765,14.2488,8.491,14.2488z" fill="#9070B1"/>
  </g>
</svg>
