<?xml version="1.0" encoding="UTF-8"?>
<!DOCTYPE svg PUBLIC "-//W3C//DTD SVG 1.1//EN" "http://www.w3.org/Graphics/SVG/1.1/DTD/svg11.dtd">
<svg version="1.1" id="Layer_1" xmlns="http://www.w3.org/2000/svg" xmlns:xlink="http://www.w3.org/1999/xlink" x="0px" y="0px" width="24px" height="24px" viewBox="0 0 24 24" enable-background="new 0 0 24 24" xml:space="preserve">
  <g id="icon">
    <path d="M12,0C5.3832,0,0,5.3832,0,12s5.3832,12,12,12s12,-5.3832,12,-12S18.6168,0,12,0zM15.8816,2.7799c0.6481,0.2732,1.2686,0.6161,1.8471,1.0209l-0.6111,0.8426c-0.5089,-0.3547,-1.0543,-0.6561,-1.6239,-0.8976L15.8816,2.7799zM3.0409,11.8308H2C2.0911,6.4,6.5557,1.9986,12,1.9986c0.7834,0,1.5637,0.091,2.3209,0.2707l-0.2579,1.0086c-0.6721,-0.1584,-1.3656,-0.2386,-2.0629,-0.2386C7.1296,3.0393,3.1316,6.9738,3.0409,11.8308zM8.0611,21.1958c-0.6312,-0.2708,-1.2359,-0.608,-1.8002,-1.0039l0.6123,-0.8419c0.4962,0.3468,1.0275,0.643,1.5819,0.8822L8.0611,21.1958zM7.9594,14.9385c-0.142,-0.3321,-0.2612,-0.6562,-0.3504,-1.0353H6.2016v-1.2674h1.2398c-0.008,-0.2025,-0.0117,-0.425,-0.0117,-0.5904c0,-0.1486,0.003,-0.296,0.009,-0.4379l0.004,-0.1045c0.0016,-0.0411,0.0032,-0.085,0.0049,-0.1295h-0.8333v-1.2674h1.0025c0.0896,-0.3789,0.2141,-0.7383,0.3788,-1.0974c0.2645,-0.5766,0.6126,-1.0712,1.0349,-1.4698c0.4265,-0.4025,0.9312,-0.7102,1.5,-0.9146c0.5553,-0.1995,1.1732,-0.3007,1.8367,-0.3007c0.3995,0,0.7675,0.0317,1.0938,0.0943c0.322,0.0619,0.612,0.1409,0.8618,0.2348c0.2547,0.0959,0.4799,0.2038,0.6695,0.321c0.1771,0.1098,0.3229,0.21,0.4466,0.3066c0.1154,0.0905,0.2068,0.1657,0.2802,0.2308l-0.8409,0.9483c-0.0533,-0.0472,-0.1274,-0.1081,-0.2203,-0.1809c-0.0854,-0.0667,-0.1977,-0.1434,-0.3329,-0.2272c-0.1193,-0.0738,-0.2704,-0.1454,-0.4485,-0.2123c-0.1826,-0.0687,-0.4029,-0.128,-0.6545,-0.1764c-0.2477,-0.0475,-0.5353,-0.0716,-0.8549,-0.0716c-0.517,0,-0.9907,0.0761,-1.4081,0.226c-0.4037,0.1451,-0.7599,0.3616,-1.0587,0.6436c-0.3032,0.2863,-0.5565,0.6485,-0.7528,1.0765c-0.0871,0.19,-0.1594,0.3773,-0.2186,0.5691h4.2902v1.2674H8.7161c-0.0026,0.0619,-0.0049,0.1249,-0.0069,0.1768l-0.0043,0.1101c-0.0053,0.1248,-0.0079,0.2542,-0.0079,0.385c0,0.167,0.0045,0.3995,0.0128,0.5904h4.1998v1.2674H8.9226c0.0572,0.183,0.1248,0.3563,0.2021,0.537c0.1886,0.4412,0.4369,0.8119,0.7381,1.1021c0.2989,0.2881,0.6563,0.5096,1.0624,0.6587c0.4188,0.1537,0.8927,0.2317,1.4083,0.2317c0.3436,0,0.6479,-0.028,0.9046,-0.0832c0.2615,-0.0562,0.4922,-0.1264,0.6857,-0.2088c0.1892,-0.0806,0.3495,-0.1667,0.4762,-0.256c0.1477,-0.104,0.2733,-0.2,0.3735,-0.2853c0.1049,-0.0893,0.1882,-0.1634,0.2482,-0.2207l0.8763,0.9156c-0.0777,0.0744,-0.1796,0.1652,-0.3029,0.2701c-0.1292,0.11,-0.2858,0.23,-0.465,0.3563c-0.1996,0.1407,-0.4384,0.2706,-0.7098,0.3862c-0.2676,0.1139,-0.5757,0.2087,-0.9157,0.2817c-0.3439,0.074,-0.738,0.1115,-1.171,0.1115c-0.6651,0,-1.2858,-0.1041,-1.845,-0.3093c-0.5724,-0.2101,-1.0787,-0.525,-1.505,-0.9358C8.5595,16.0465,8.2149,15.5363,7.9594,14.9385zM12,22.0014c-0.8117,0,-1.6185,-0.0975,-2.3998,-0.2899l0.2662,-1.0063c0.6945,0.1696,1.4117,0.2555,2.1336,0.2555c4.8704,0,8.8684,-3.9345,8.9591,-8.7915H22C21.9089,17.6,17.4443,22.0014,12,22.0014z" fill="#EEAC55"/>
    <path d="M12,22.0014c-0.8117,0,-1.6185,-0.0975,-2.3998,-0.2899l0.2662,-1.0063c0.6945,0.1696,1.4117,0.2555,2.1336,0.2555c4.8704,0,8.8684,-3.9345,8.9591,-8.7915H22C21.9089,17.6,17.4443,22.0014,12,22.0014zM8.0611,21.1958c-0.6312,-0.2708,-1.2359,-0.608,-1.8002,-1.0039l0.6123,-0.8419c0.4962,0.3468,1.0275,0.643,1.5819,0.8822L8.0611,21.1958zM2,11.8308C2.0911,6.4,6.5557,1.9986,12,1.9986c0.7834,0,1.5637,0.091,2.3209,0.2707l-0.2579,1.0086c-0.6721,-0.1584,-1.3656,-0.2386,-2.0629,-0.2386c-4.8704,0,-8.8684,3.9345,-8.9591,8.7915H2zM17.1176,4.6434c-0.5089,-0.3547,-1.0543,-0.6561,-1.6239,-0.8976l0.3879,-0.9659c0.6481,0.2732,1.2686,0.6161,1.8471,1.0209L17.1176,4.6434z" fill="#FFFFFF" opacity="0.5"/>
    <path d="M12.3334,17.7c-0.6651,0,-1.2858,-0.1041,-1.845,-0.3093c-0.5724,-0.2101,-1.0787,-0.525,-1.505,-0.9358c-0.424,-0.4084,-0.7685,-0.9186,-1.0241,-1.5164c-0.142,-0.3321,-0.2612,-0.6561,-0.3504,-1.0353H6.2016v-1.2674h1.2398c-0.008,-0.2025,-0.0117,-0.425,-0.0117,-0.5904c0,-0.1486,0.003,-0.296,0.009,-0.4379l0.004,-0.1045c0.0015,-0.0412,0.0032,-0.085,0.005,-0.1295h-0.8333v-1.2674h1.0025c0.0896,-0.3789,0.2141,-0.7383,0.3788,-1.0974c0.2645,-0.5766,0.6126,-1.0712,1.0349,-1.4698c0.4265,-0.4025,0.9312,-0.7102,1.5,-0.9146c0.5553,-0.1995,1.1732,-0.3007,1.8368,-0.3007c0.3995,0,0.7675,0.0317,1.0938,0.0943c0.322,0.0619,0.612,0.1408,0.8618,0.2348c0.2547,0.0959,0.4799,0.2038,0.6695,0.321c0.177,0.1098,0.3229,0.21,0.4466,0.3066c0.1154,0.0905,0.2068,0.1657,0.2802,0.2308l-0.8409,0.9483c-0.0533,-0.0472,-0.1274,-0.1081,-0.2203,-0.1809c-0.0854,-0.0667,-0.1977,-0.1434,-0.3329,-0.2272c-0.1193,-0.0738,-0.2704,-0.1454,-0.4485,-0.2123c-0.1826,-0.0687,-0.4029,-0.128,-0.6545,-0.1764c-0.2477,-0.0475,-0.5353,-0.0716,-0.8549,-0.0716c-0.517,0,-0.9907,0.0761,-1.4081,0.226c-0.4037,0.1451,-0.7599,0.3616,-1.0587,0.6436c-0.3032,0.2863,-0.5565,0.6485,-0.7528,1.0765c-0.0871,0.19,-0.1593,0.3773,-0.2186,0.5691h4.2902v1.2674H8.7161c-0.0026,0.0619,-0.005,0.1249,-0.0069,0.1768l-0.0043,0.1101c-0.0053,0.1248,-0.0079,0.2542,-0.0079,0.385c0,0.167,0.0045,0.3995,0.0128,0.5904h4.1998v1.2674H8.9226c0.0572,0.183,0.1248,0.3563,0.2021,0.537c0.1886,0.4412,0.4369,0.8119,0.7381,1.1021c0.2989,0.2881,0.6563,0.5096,1.0623,0.6587c0.4188,0.1537,0.8927,0.2317,1.4083,0.2317c0.3436,0,0.6479,-0.028,0.9046,-0.0832c0.2615,-0.0562,0.4922,-0.1264,0.6857,-0.2088c0.1892,-0.0806,0.3495,-0.1667,0.4762,-0.256c0.1477,-0.104,0.2733,-0.2,0.3735,-0.2853c0.105,-0.0893,0.1882,-0.1634,0.2482,-0.2207l0.8763,0.9156c-0.0777,0.0744,-0.1796,0.1652,-0.3029,0.2701c-0.1292,0.11,-0.2858,0.23,-0.465,0.3563c-0.1996,0.1407,-0.4384,0.2706,-0.7098,0.3862c-0.2676,0.1139,-0.5757,0.2087,-0.9157,0.2817C13.1604,17.6625,12.7664,17.7,12.3334,17.7z" fill="#FFFFFF" opacity="0.5"/>
  </g>
</svg>
