<?xml version="1.0" encoding="UTF-8"?>
<!DOCTYPE svg PUBLIC "-//W3C//DTD SVG 1.1//EN" "http://www.w3.org/Graphics/SVG/1.1/DTD/svg11.dtd">
<svg version="1.1" id="Layer_1" xmlns="http://www.w3.org/2000/svg" xmlns:xlink="http://www.w3.org/1999/xlink" x="0px" y="0px" width="24px" height="24px" viewBox="0 0 24 24" enable-background="new 0 0 24 24" xml:space="preserve">
  <g id="icon">
    <path d="M11.3938,10.7375c-0.1129,-0.0359,-0.2237,-0.0729,-0.3321,-0.1106c-0.2346,-0.0817,-0.4434,-0.1858,-0.6207,-0.3097c-0.1539,-0.1076,-0.2746,-0.2364,-0.3693,-0.3939c-0.0827,-0.1375,-0.1288,-0.3239,-0.1371,-0.554c-0.0071,-0.1978,0.0237,-0.3847,0.0942,-0.5714c0.0681,-0.1805,0.172,-0.3382,0.3176,-0.4822c0.152,-0.1505,0.3485,-0.2771,0.584,-0.3763c0.1381,-0.0582,0.2938,-0.1034,0.4634,-0.1346V10.7375zM24,12c0,6.6168,-5.3832,12,-12,12S0,18.6168,0,12S5.3832,0,12,0S24,5.3832,24,12zM15.4937,3.7457c0.5696,0.2415,1.1149,0.543,1.6239,0.8976l0.6111,-0.8426c-0.5785,-0.4048,-1.1989,-0.7477,-1.8471,-1.0209L15.4937,3.7457zM12,3.0393c0.6973,0,1.3908,0.0802,2.0629,0.2386l0.2579,-1.0086c-0.7572,-0.1797,-1.5375,-0.2707,-2.3209,-0.2707c-5.4443,0,-9.9089,4.4014,-10,9.8322h1.0409C3.1316,6.9738,7.1296,3.0393,12,3.0393zM8.4551,20.2323c-0.5544,-0.2391,-1.0857,-0.5354,-1.5819,-0.8822l-0.6123,0.8419c0.5643,0.3959,1.169,0.7331,1.8002,1.0039L8.4551,20.2323zM9.0711,16.6385c0.235,0.1793,0.4929,0.3299,0.7667,0.4473c0.2682,0.1153,0.5647,0.2038,0.8812,0.2628c0.2077,0.0386,0.4345,0.0622,0.6748,0.0701V18.4h1.245v-1.0774c0.2778,-0.0578,0.5403,-0.1408,0.7808,-0.2469c0.4408,-0.1945,0.8191,-0.4553,1.1243,-0.7753c0.309,-0.3238,0.5429,-0.7008,0.6951,-1.1206c0.1501,-0.4139,0.2177,-0.8595,0.201,-1.3242c-0.0186,-0.5213,-0.1496,-0.9667,-0.3894,-1.324c-0.2227,-0.3315,-0.5118,-0.608,-0.8594,-0.8218c-0.3158,-0.1942,-0.6732,-0.3526,-1.0623,-0.4709c-0.1617,-0.0491,-0.3256,-0.0975,-0.4902,-0.1448v-3.27c0.0281,0.0073,0.0551,0.0151,0.0806,0.0233c0.2178,0.0704,0.3943,0.1461,0.5246,0.225c0.1752,0.1061,0.256,0.1739,0.2886,0.2048c0.0913,0.0866,0.4879,0.4599,0.4879,0.4599l0.0394,0.037l0.8425,-0.9354c0,0,-0.4316,-0.4063,-0.5225,-0.4924c-0.1247,-0.1182,-0.2884,-0.238,-0.5005,-0.3664c-0.2154,-0.1304,-0.472,-0.2428,-0.7842,-0.3437c-0.1409,-0.0455,-0.2942,-0.0811,-0.4563,-0.106V5.6h-1.245v0.9202c-0.342,0.0442,-0.6576,0.1266,-0.9387,0.2449c-0.3818,0.1611,-0.7101,0.3759,-0.9755,0.6386c-0.2741,0.2713,-0.4803,0.5868,-0.6127,0.9376c-0.1303,0.3451,-0.1897,0.7066,-0.1764,1.0745c0.0161,0.4512,0.1238,0.8456,0.32,1.1719c0.1854,0.3084,0.43,0.57,0.727,0.7776c0.2706,0.1891,0.5809,0.3452,0.9224,0.4639c0.2341,0.0816,0.4808,0.1602,0.734,0.2341v4.0842c-0.1632,-0.007,-0.3147,-0.0233,-0.4513,-0.0488c-0.227,-0.0423,-0.4362,-0.1041,-0.6217,-0.1838c-0.1807,-0.0776,-0.3505,-0.1765,-0.5046,-0.2942c-0.1707,-0.1299,-0.3386,-0.2789,-0.4992,-0.4428l-0.0378,-0.0386l-0.8788,0.8997l0.0362,0.037C8.6394,16.2832,8.8529,16.4725,9.0711,16.6385zM22,12.1692h-1.0409c-0.0907,4.857,-4.0886,8.7915,-8.9591,8.7915c-0.7219,0,-1.4391,-0.0859,-2.1336,-0.2555l-0.2662,1.0063c0.7813,0.1924,1.5881,0.2899,2.3998,0.2899C17.4443,22.0014,21.9089,17.6,22,12.1692zM13.6519,15.4142c0.1896,-0.1987,0.3268,-0.4195,0.4195,-0.6752c0.0933,-0.2573,0.1352,-0.5389,0.1245,-0.837c-0.0099,-0.2773,-0.0679,-0.4967,-0.1723,-0.6523c-0.1229,-0.183,-0.2782,-0.3307,-0.4749,-0.4518c-0.226,-0.1389,-0.4868,-0.2537,-0.775,-0.3414c-0.0448,-0.0136,-0.0897,-0.0271,-0.1348,-0.0406v3.5991c0.1003,-0.0302,0.1965,-0.0656,0.2867,-0.1054C13.2162,15.7814,13.4606,15.6147,13.6519,15.4142z" fill="#EEAC55"/>
    <path d="M12,22.0014c-0.8117,0,-1.6185,-0.0975,-2.3998,-0.2899l0.2662,-1.0063c0.6945,0.1696,1.4117,0.2555,2.1336,0.2555c4.8704,0,8.8684,-3.9345,8.9591,-8.7915H22C21.9089,17.6,17.4443,22.0014,12,22.0014zM8.0611,21.1958c-0.6312,-0.2708,-1.2359,-0.608,-1.8002,-1.0039l0.6123,-0.8419c0.4962,0.3468,1.0275,0.643,1.5819,0.8822L8.0611,21.1958zM2,11.8308C2.0911,6.4,6.5557,1.9986,12,1.9986c0.7834,0,1.5637,0.091,2.3209,0.2707l-0.2579,1.0086c-0.6721,-0.1584,-1.3656,-0.2386,-2.0629,-0.2386c-4.8704,0,-8.8684,3.9345,-8.9591,8.7915H2zM17.1176,4.6434c-0.5089,-0.3547,-1.0543,-0.6561,-1.6239,-0.8976l0.3879,-0.9659c0.6481,0.2732,1.2686,0.6161,1.8471,1.0209L17.1176,4.6434z" fill="#FFFFFF" opacity="0.5"/>
    <path d="M11.3938,18.4v-0.9813c-0.2403,-0.0079,-0.467,-0.0315,-0.6748,-0.0701c-0.3165,-0.059,-0.613,-0.1475,-0.8812,-0.2628c-0.2738,-0.1174,-0.5317,-0.2679,-0.7667,-0.4473c-0.2182,-0.1661,-0.4317,-0.3553,-0.6346,-0.5624l-0.0362,-0.037l0.8788,-0.8997l0.0378,0.0386c0.1606,0.1638,0.3286,0.3129,0.4992,0.4428c0.1541,0.1177,0.3239,0.2166,0.5046,0.2942c0.1855,0.0798,0.3947,0.1416,0.6217,0.1838c0.1366,0.0255,0.2881,0.0418,0.4513,0.0488v-4.0842c-0.2532,-0.0739,-0.4999,-0.1525,-0.734,-0.2341c-0.3415,-0.1188,-0.6518,-0.2748,-0.9224,-0.4639c-0.297,-0.2076,-0.5416,-0.4692,-0.727,-0.7776c-0.1962,-0.3263,-0.3039,-0.7206,-0.32,-1.1718c-0.0132,-0.3679,0.0461,-0.7294,0.1764,-1.0745c0.1324,-0.3508,0.3385,-0.6663,0.6127,-0.9376c0.2654,-0.2628,0.5937,-0.4776,0.9755,-0.6386c0.2811,-0.1184,0.5967,-0.2007,0.9387,-0.2449V5.6h1.245v0.9301c0.1621,0.0249,0.3154,0.0606,0.4563,0.106c0.3123,0.1009,0.5688,0.2133,0.7842,0.3437c0.2121,0.1284,0.3758,0.2482,0.5005,0.3664c0.0909,0.0861,0.5225,0.4924,0.5225,0.4924l-0.8425,0.9354l-0.0394,-0.037c0,0,-0.3966,-0.3733,-0.4879,-0.4599c-0.0326,-0.0309,-0.1134,-0.0987,-0.2886,-0.2048c-0.1303,-0.0789,-0.3068,-0.1546,-0.5246,-0.225c-0.0256,-0.0082,-0.0525,-0.016,-0.0806,-0.0233v3.27c0.1646,0.0473,0.3285,0.0957,0.4902,0.1448c0.3892,0.1183,0.7466,0.2768,1.0623,0.4709c0.3475,0.2138,0.6366,0.4903,0.8593,0.8218c0.2398,0.3572,0.3708,0.8026,0.3894,1.324c0.0167,0.4648,-0.0509,0.9103,-0.201,1.3242c-0.1523,0.4198,-0.3862,0.7968,-0.6951,1.1206c-0.3053,0.32,-0.6836,0.5808,-1.1243,0.7753c-0.2405,0.1061,-0.5029,0.1891,-0.7808,0.2469V18.4H11.3938zM12.6388,16.015c0.1003,-0.0302,0.1965,-0.0656,0.2867,-0.1054c0.2907,-0.1282,0.535,-0.2949,0.7263,-0.4955c0.1896,-0.1987,0.3268,-0.4195,0.4195,-0.6752c0.0933,-0.2573,0.1352,-0.5389,0.1245,-0.837c-0.0099,-0.2773,-0.0679,-0.4967,-0.1723,-0.6523c-0.1229,-0.183,-0.2782,-0.3307,-0.4749,-0.4518c-0.226,-0.1389,-0.4868,-0.2537,-0.7751,-0.3414c-0.0448,-0.0136,-0.0897,-0.0271,-0.1348,-0.0406V16.015zM11.3938,7.8049c-0.1697,0.0312,-0.3253,0.0764,-0.4634,0.1346c-0.2355,0.0993,-0.432,0.2259,-0.584,0.3763c-0.1456,0.144,-0.2494,0.3017,-0.3176,0.4822c-0.0705,0.1867,-0.1013,0.3737,-0.0942,0.5714c0.0083,0.2302,0.0544,0.4165,0.1371,0.554c0.0946,0.1574,0.2154,0.2862,0.3693,0.3939c0.1773,0.1238,0.3861,0.228,0.6207,0.3097c0.1084,0.0377,0.2193,0.0746,0.3321,0.1106V7.8049z" fill="#FFFFFF" opacity="0.5"/>
  </g>
</svg>
