<?xml version="1.0" encoding="UTF-8"?>
<!DOCTYPE svg PUBLIC "-//W3C//DTD SVG 1.1//EN" "http://www.w3.org/Graphics/SVG/1.1/DTD/svg11.dtd">
<svg version="1.1" id="Layer_1" xmlns="http://www.w3.org/2000/svg" xmlns:xlink="http://www.w3.org/1999/xlink" x="0px" y="0px" width="24px" height="24px" viewBox="0 0 24 24" enable-background="new 0 0 24 24" xml:space="preserve">
  <g id="icon">
    <polygon points="11,6 11,5 9,5 9,6 2,6 2,22 18,22 18,6" fill="#FFFFFF" stroke-linejoin="miter" opacity="0.5"/>
    <path d="M0,4v20h20V4H0zM18,22H2V6h7V5h2v1h7V22z" fill="#EEAC55"/>
    <path d="M9,21H8v-4h1V21zM11,21h-1v-4h1V21zM4,21H3v-4h1V21zM7,21H5v-4h2V21z" fill="#7B7B7B"/>
    <path d="M8,4v7h4V4H8zM11,10H9V5h2V10z" fill="#7B7B7B"/>
    <polygon points="21,2 2,2 2,3 21,3 21,22 22,22 22,3 22,2" fill="#EEAC55" stroke-linejoin="miter"/>
    <polygon points="23,0 4,0 4,1 23,1 23,20 24,20 24,1 24,0" fill="#EEAC55" stroke-linejoin="miter"/>
  </g>
</svg>
