<?xml version="1.0" encoding="UTF-8"?>
<!DOCTYPE svg PUBLIC "-//W3C//DTD SVG 1.1//EN" "http://www.w3.org/Graphics/SVG/1.1/DTD/svg11.dtd">
<svg version="1.1" id="Layer_1" xmlns="http://www.w3.org/2000/svg" xmlns:xlink="http://www.w3.org/1999/xlink" x="0px" y="0px" width="24px" height="24px" viewBox="0 0 24 24" enable-background="new 0 0 24 24" xml:space="preserve">
  <g id="icon">
    <path d="M6,4v2.3684c0.6924,-0.2307,1.5186,-0.3445,2.4883,-0.3445c1.9278,0,3.293,0.4547,4.1735,1.39c0.7773,0.8258,1.1393,1.9632,1.1393,3.5796c0,1.4064,-0.4946,3.1375,-1.2939,4.538c0.1665,0.0342,0.3501,0.0772,0.5576,0.127c0.9711,0.2326,1.8364,0.7153,2.5617,1.3414H22V4H6z" fill="#FFFFFF" opacity="0.4"/>
    <path d="M4,7.8047V4h2v2.3684c-0.6959,0.2318,-1.2567,0.5817,-1.6921,1.053C4.1959,7.5428,4.0941,7.6708,4,7.8047zM22,4v13h-6.3735c0.6637,0.5729,1.2096,1.2658,1.6096,2H24V4H22z" fill="#7B7B7B"/>
    <rect x="4" width="20" height="4" fill="#6485C3"/>
    <path d="M20.3859,5.3l-4.6773,0.7648l0.1885,1.1773l2.5939,-0.432l-3.1045,4.5996l-1.5938,-0.8085c0.005,0.128,0.0085,0.258,0.0085,0.3925c0,0.2932,-0.0227,0.601,-0.064,0.9165l2.0487,1.0393l3.6642,-5.4289l0.3259,2.5267l1.1841,-0.1415L20.3859,5.3z" fill="#52B250"/>
    <path d="M12.0429,16.4222c2.2393,0.8004,4.6602,2.999,4.6602,4.878c0,0.5629,-0.1937,1.0318,-0.5755,1.3934c-0.8733,0.8271,-2.5465,0.9933,-4.963,0.9933c-0.0001,0,-0.0003,0,-0.0004,0c-0.4295,0,-0.8648,-0.0046,-1.3256,-0.0095c-0.4499,-0.0047,-0.912,-0.0096,-1.3686,-0.0096c-0.5965,0,-1.1978,0.0128,-1.7793,0.0252c-0.578,0.0123,-1.1222,0.0239,-1.6478,0.0239c-1.6715,0,-3.3369,-0.1112,-4.1984,-0.918c-0.4032,-0.3776,-0.6076,-0.8818,-0.6076,-1.4985c0,-1.1573,0.9607,-2.2574,1.7667,-2.9765c0.8478,-0.7564,1.9103,-1.4288,2.9442,-1.8665" fill="#FFFFFF" opacity="0.5"/>
    <path d="M8.52,17.6449c-0.7798,0,-0.8559,-0.1357,-0.884,0.5652c0,0.3242,0.1291,0.4312,0.343,0.76c-0.0143,0.5177,-0.2337,2.8489,-0.3425,4.019c0.2801,0.0124,0.5635,0.0192,0.8499,0.0192c0.2857,0,0.5682,-0.0067,0.8476,-0.019c-0.114,-1.0853,-0.2849,-3.5097,-0.2786,-4.0179c0.2835,-0.3117,0.312,-0.4453,0.3048,-0.7626C9.3883,17.5092,9.2998,17.6449,8.52,17.6449z" fill="#6485C3"/>
    <path d="M11.9374,16.087c-0.1479,0.205,-0.3045,0.4096,-0.4711,0.6138c-0.0052,0.0063,-0.0107,0.0122,-0.0159,0.0185l-0.1468,0.4921c2.125,0.5814,4.3727,2.6831,4.3727,4.0887c0,0.3046,-0.0874,0.5292,-0.2751,0.707c-0.7913,0.7494,-3.2111,0.7237,-5.551,0.6988c-0.4507,-0.0048,-0.9168,-0.0097,-1.3802,-0.0097c-0.6079,0,-1.2152,0.0129,-1.8024,0.0254c-2.1373,0.0454,-4.3472,0.0924,-5.1006,-0.6133c-0.1302,-0.1219,-0.3032,-0.3383,-0.3032,-0.8083c0,-1.4056,2.4828,-3.4064,4.5384,-4.1258l-0.0886,-0.2321c-0.0741,-0.0773,-0.1465,-0.157,-0.2154,-0.2414c-0.16,-0.1961,-0.3108,-0.3925,-0.4535,-0.5894c-1.115,0.4405,-2.3013,1.1725,-3.2297,2.0008c-0.8492,0.7576,-1.8614,1.9257,-1.8614,3.1879c0,0.6982,0.2346,1.272,0.6973,1.7053C1.5492,23.8469,3.1353,24,5.0428,24c0.5291,0,1.083,-0.0118,1.6538,-0.0239c0.5801,-0.0123,1.18,-0.0251,1.7733,-0.0251c0.4561,0,0.9185,0.0049,1.3656,0.0096c2.8474,0.0303,5.3066,0.0564,6.4868,-1.0613c0.4406,-0.4173,0.664,-0.9553,0.664,-1.5991C16.9864,19.218,14.3323,16.8599,11.9374,16.087z" fill="#7B7B7B"/>
    <path d="M8.4741,16.353h0.0161c0.5717,-0.0057,1.0937,-0.2631,1.4645,-0.7249c1.2469,-1.5529,1.853,-3.0985,1.853,-4.7252c0,-0.2258,-0.0428,-0.4738,-0.0802,-0.6646c-0.3019,-1.5435,-1.3506,-2.2952,-3.206,-2.2981h-0.0786c-1.8551,0.0028,-2.9041,0.7545,-3.2061,2.2981c-0.0373,0.1908,-0.0802,0.4388,-0.0802,0.6646c0,1.6267,0.6061,3.1723,1.853,4.7253C7.3804,16.0898,7.9004,16.3472,8.4741,16.353z" fill-rule="evenodd" fill="#FFFFFF" opacity="0.5"/>
    <path d="M8.4662,17.2708c-0.9134,-0.008,-1.7335,-0.4013,-2.3094,-1.1073c-1.3933,-1.7079,-2.0705,-3.4259,-2.0705,-5.2523c0,-0.3031,0.0524,-0.6055,0.098,-0.835C4.5835,8.0673,6.0559,7.0036,8.442,7h0.0803c2.3862,0.0036,3.8585,1.0673,4.2577,3.0762c0.0456,0.2294,0.098,0.5316,0.098,0.835c0,1.8264,-0.6772,3.5444,-2.0705,5.2523c-0.5753,0.7052,-1.3963,1.0985,-2.3115,1.1073l-0.0245,0L8.4662,17.2708zM8.443,8.0648c-1.8162,0.0027,-2.8422,0.7242,-3.1366,2.2056c-0.0367,0.1846,-0.0789,0.4242,-0.0789,0.6408c0,1.5846,0.601,3.0917,1.8374,4.6074c0.3571,0.4378,0.8579,0.6819,1.4099,0.6874h0.0154c0.5513,-0.0054,1.052,-0.2495,1.4093,-0.6875c1.2363,-1.5156,1.8373,-3.0227,1.8373,-4.6073c0,-0.2164,-0.0421,-0.4561,-0.0788,-0.6408c-0.2944,-1.4814,-1.3204,-2.2029,-3.1366,-2.2056H8.443z" fill="#7B7B7B"/>
    <path d="M4.3769,11.9473c-0.051,-0.3457,-0.0768,-0.6964,-0.0768,-1.0445c0,-0.291,0.0504,-0.586,0.0943,-0.8104c0.3779,-1.9316,1.7776,-2.9544,4.048,-2.9579h0.08c2.27,0.0035,3.6698,1.0263,4.0477,2.9579c0.0439,0.2245,0.0943,0.5195,0.0943,0.8104c0,0.2554,-0.0142,0.5143,-0.0423,0.7718h-0.6791c-0.0664,-0.1567,-0.1947,-0.3033,-0.3134,-0.386c-0.2941,-0.2051,-0.6549,-0.3979,-1.0038,-0.5843c-0.2666,-0.1425,-0.5422,-0.2898,-0.7755,-0.4366l-0.0914,-0.0575l-0.0957,0.051c-0.2093,0.1114,-0.4213,0.2326,-0.6263,0.3498c-0.472,0.2698,-0.96,0.5487,-1.4756,0.7463c-0.5029,0.1928,-1.1212,0.3262,-1.7193,0.4553c-0.2118,0.0457,-0.4122,0.0889,-0.6084,0.1348H4.3769z" fill="#7B7B7B"/>
  </g>
</svg>
