<?xml version="1.0" encoding="UTF-8"?>
<!DOCTYPE svg PUBLIC "-//W3C//DTD SVG 1.1//EN" "http://www.w3.org/Graphics/SVG/1.1/DTD/svg11.dtd">
<svg version="1.1" id="Layer_1" xmlns="http://www.w3.org/2000/svg" xmlns:xlink="http://www.w3.org/1999/xlink" x="0px" y="0px" width="24px" height="24px" viewBox="0 0 24 24" enable-background="new 0 0 24 24" xml:space="preserve">
  <g id="icon">
    <rect x="10.05" y="6" width="12.95" height="11.55" fill="#FFFFFF" opacity="0.5"/>
    <path d="M15.125,16c-2.2056,0,-4,-1.7944,-4,-4s1.7944,-4,4,-4H23V5.4103C23,3.9236,22.0843,3,20.6101,3H2.3899C0.9157,3,0,3.9236,0,5.4103v13.1795C0,20.0764,0.9157,21,2.3899,21h18.2202c1.4741,0,2.3899,-0.9236,2.3899,-2.4103V16H15.125z" fill="#EEAC55"/>
    <path d="M22.9012,9H15.125c-1.6542,0,-3,1.3458,-3,3s1.3458,3,3,3h7.7762c0.6059,0,1.0988,-0.4929,1.0988,-1.0988v-3.8024C24,9.4929,23.5071,9,22.9012,9zM17.4375,13h-1.875c-0.3107,0,-0.5625,-0.2518,-0.5625,-0.5625v-0.875c0,-0.3107,0.2518,-0.5625,0.5625,-0.5625h1.875c0.3107,0,0.5625,0.2518,0.5625,0.5625v0.875C18,12.7482,17.7482,13,17.4375,13z" fill="#7B7B7B"/>
  </g>
</svg>
