<?xml version="1.0" encoding="UTF-8"?>
<!DOCTYPE svg PUBLIC "-//W3C//DTD SVG 1.1//EN" "http://www.w3.org/Graphics/SVG/1.1/DTD/svg11.dtd">
<svg version="1.1" id="Layer_1" xmlns="http://www.w3.org/2000/svg" xmlns:xlink="http://www.w3.org/1999/xlink" x="0px" y="0px" width="24px" height="24px" viewBox="0 0 24 24" enable-background="new 0 0 24 24" xml:space="preserve">
  <g id="icon">
    <path d="M1.4491,22.5513c0.2287,-0.6434,0.5311,-1.5751,0.6913,-2.2064l0.0366,-0.1444l-0.1096,-0.1009C0.7536,18.8896,0,17.2384,0,15.5696c0,-3.6211,3.3645,-6.5671,7.5,-6.5671s7.5,2.946,7.5,6.5672c0,3.6211,-3.3645,6.5671,-7.5,6.5671c-0.2557,0,-0.515,-0.0115,-0.7708,-0.0342l-0.0536,-0.0047l-0.0508,0.0177c-0.8849,0.3084,-3.6847,1.2205,-4.2369,1.4001l-1.4492,0.4716L1.4491,22.5513z" fill="#9171B2"/>
    <polygon points="17,7 17,0 17.6155,0 18,0.3932 18,6 23.4818,6 24,6.53 24,7" fill="#FFFFFF" stroke-linejoin="miter" opacity="0.5"/>
    <path d="M23.4818,6H18V0.3932L23.4818,6zM17,7V0H6v7.8679c0.4875,-0.0756,0.9886,-0.1154,1.5,-0.1154c4.8248,0,8.75,3.5068,8.75,7.8172c0,2.6626,-1.4982,5.0181,-3.7806,6.4303H16h1h7V7H17z" fill="#7D7C7B"/>
  </g>
</svg>
