<?xml version="1.0" encoding="UTF-8"?>
<!DOCTYPE svg PUBLIC "-//W3C//DTD SVG 1.1//EN" "http://www.w3.org/Graphics/SVG/1.1/DTD/svg11.dtd">
<svg version="1.1" id="Layer_1" xmlns="http://www.w3.org/2000/svg" xmlns:xlink="http://www.w3.org/1999/xlink" x="0px" y="0px" width="24px" height="24px" viewBox="0 0 24 24" enable-background="new 0 0 24 24" xml:space="preserve">
  <g id="icon">
    <path d="M1.4491,22.5513c0.2287,-0.6434,0.5311,-1.5751,0.6913,-2.2064l0.0366,-0.1444l-0.1096,-0.1009C0.7536,18.8896,0,17.2384,0,15.5696c0,-3.6211,3.3645,-6.5671,7.5,-6.5671s7.5,2.946,7.5,6.5672c0,3.6211,-3.3645,6.5671,-7.5,6.5671c-0.2557,0,-0.515,-0.0115,-0.7708,-0.0342l-0.0536,-0.0047l-0.0508,0.0177c-0.8849,0.3084,-3.6847,1.2205,-4.2369,1.4001l-1.4492,0.4716L1.4491,22.5513z" fill="#9171B2"/>
    <polygon points="17,7 17,0 17.6155,0 18,0.3932 18,6 23.4818,6 24,6.53 24,7" fill="#FFFFFF" stroke-linejoin="miter" opacity="0.5"/>
    <g>
      <polygon points="18,0.3932 18,6 23.4818,6" fill="#7D7C7B" stroke-linejoin="miter"/>
      <path d="M17,7V0H6v7.9184c0.4874,-0.0759,0.9886,-0.1159,1.5,-0.1159c0.6714,0,1.3252,0.0683,1.9532,0.1975H15v1h-2.8642c0.5123,0.2891,0.9884,0.6247,1.4213,1H22v1h-7.4697c0.2586,0.3162,0.4912,0.6503,0.6947,1H22v1h-6.29c0.1277,0.3242,0.2324,0.6579,0.3114,1H22v1h-5.8235c0.0154,0.1882,0.0235,0.3781,0.0235,0.5697c0,0.1444,-0.0048,0.2878,-0.0136,0.4303H22v1h-5.9484c-0.0715,0.3417,-0.1682,0.6755,-0.2882,1H22v1h-6.696c-0.671,1.2117,-1.6853,2.2459,-2.9294,3H16h1h7V7H17zM15,7H8V6h7V7zM15,5H8V4h7V5z" fill="#7D7C7B"/>
    </g>
    <path d="M15,7H8V6h7V7zM15,8H9.4532c0.9651,0.1984,1.8691,0.5408,2.6826,1H15V8zM15,4H8v1h7V4zM15.304,19H22v-1h-6.2367C15.6359,18.3446,15.4821,18.6785,15.304,19zM16.1765,15H22v-1h-5.9786C16.0967,14.3264,16.1488,14.6602,16.1765,15zM15.71,13H22v-1h-6.7749C15.4119,12.3209,15.5741,12.655,15.71,13zM16.0516,17H22v-1h-5.8136C16.1656,16.3396,16.12,16.6733,16.0516,17zM13.5571,10c0.355,0.3078,0.6808,0.6424,0.9732,1H22v-1H13.5571z" fill="#FFFFFF" opacity="0.5"/>
  </g>
</svg>
