<?xml version="1.0" encoding="UTF-8"?>
<!DOCTYPE svg PUBLIC "-//W3C//DTD SVG 1.1//EN" "http://www.w3.org/Graphics/SVG/1.1/DTD/svg11.dtd">
<svg version="1.1" id="Layer_1" xmlns="http://www.w3.org/2000/svg" xmlns:xlink="http://www.w3.org/1999/xlink" x="0px" y="0px" width="24px" height="24px" viewBox="0 0 24 24" enable-background="new 0 0 24 24" xml:space="preserve">
  <g id="icon">
    <rect x="0" y="3" width="24" height="5.25" fill="#76B6CA"/>
    <rect x="0" y="8.25" width="24" height="7.5" fill="#FFFFFF"/>
    <rect x="0" y="15.75" width="24" height="5.25" fill="#76B6CA"/>
    <path d="M15.4001,12.0606l-1.5774,0.3021l1.3416,0.8825c0.0568,0.0374,0.0202,0.1257,-0.0464,0.1119l-1.573,-0.3249l0.9011,1.3281c0.0382,0.0562,-0.0294,0.1238,-0.0856,0.0856l-1.3281,-0.9011l0.3249,1.573c0.0138,0.0666,-0.0746,0.1032,-0.1119,0.0464l-0.8825,-1.3416l-0.3021,1.5774c-0.0128,0.0668,-0.1083,0.0668,-0.1211,0l-0.3021,-1.5774l-0.8825,1.3416c-0.0374,0.0568,-0.1257,0.0202,-0.1119,-0.0464l0.3249,-1.573l-1.3295,0.9018c-0.0563,0.0382,-0.1238,-0.0294,-0.0856,-0.0857l0.9025,-1.3288l-1.5732,0.3249c-0.0666,0.0138,-0.1031,-0.0745,-0.0464,-0.1119l1.3409,-0.8825l-1.5773,-0.302c-0.0668,-0.0128,-0.0668,-0.1083,0,-0.1211l1.5782,-0.3021l-1.3416,-0.8825c-0.0568,-0.0374,-0.0202,-0.1257,0.0464,-0.1119l1.573,0.3249l-0.9025,-1.3288c-0.0382,-0.0562,0.0294,-0.1238,0.0856,-0.0857l1.3295,0.9018l-0.3249,-1.573c-0.0138,-0.0666,0.0746,-0.1031,0.1119,-0.0464l0.8825,1.3416L11.9396,8.6c0.0128,-0.0668,0.1083,-0.0668,0.1211,0l0.302,1.5766l0.8825,-1.3409c0.0374,-0.0568,0.1256,-0.0202,0.1119,0.0464l-0.3249,1.5732l1.3288,-0.9018c0.0562,-0.0382,0.1238,0.0294,0.0856,0.0856l-0.9018,1.3288l1.573,-0.3249c0.0666,-0.0138,0.1032,0.0746,0.0464,0.1119l-1.3416,0.8825l1.5774,0.3021C15.4668,11.9522,15.4668,12.0478,15.4001,12.0606z" fill="#EEAD56"/>
    <path d="M12.0001,15.6c-0.103,0,-0.1885,-0.0706,-0.2079,-0.1718l-0.2325,-1.2144l-0.6794,1.0328c-0.0567,0.0861,-0.1625,0.1187,-0.2579,0.0791c-0.0951,-0.0394,-0.1471,-0.1375,-0.1261,-0.2383l0.25,-1.2111l-1.0236,0.6944c-0.0853,0.0576,-0.1957,0.0473,-0.2686,-0.0256c-0.0729,-0.0729,-0.0833,-0.1834,-0.0253,-0.2686l0.6946,-1.0228l-1.2109,0.2501c-0.1011,0.0208,-0.1989,-0.0311,-0.2383,-0.1262c-0.0395,-0.0952,-0.0069,-0.2012,0.0792,-0.2579l1.0323,-0.6794l-1.2144,-0.2326c-0.1011,-0.0193,-0.1718,-0.1047,-0.1718,-0.2077c-0.0001,-0.1031,0.0705,-0.1886,0.1718,-0.208l1.2152,-0.2326l-1.0328,-0.6793c-0.086,-0.0565,-0.1187,-0.1625,-0.0792,-0.2577c0.0393,-0.0952,0.137,-0.1477,0.2383,-0.1265l1.2108,0.2501l-0.6946,-1.0228c-0.0579,-0.0852,-0.0475,-0.1956,0.0253,-0.2686c0.0727,-0.073,0.1833,-0.0832,0.2686,-0.0256l1.0236,0.6944l-0.2501,-1.2111c-0.0209,-0.1009,0.0311,-0.1989,0.1263,-0.2383c0.095,-0.0395,0.2011,-0.0068,0.2578,0.0793l0.6794,1.0328l0.2326,-1.2145c0.0193,-0.1011,0.1048,-0.1719,0.2079,-0.1719l0,0c0.1031,0.0001,0.1885,0.0708,0.2079,0.172l0.2325,1.2137l0.6795,-1.0323c0.0565,-0.0861,0.1626,-0.1187,0.2577,-0.0792c0.0952,0.0394,0.1473,0.1374,0.1265,0.2383l-0.2502,1.2112l1.0229,-0.6943c0.0853,-0.0578,0.1958,-0.0473,0.2687,0.0256c0.0728,0.0729,0.0832,0.1833,0.0252,0.2685l-0.694,1.0228l1.2109,-0.2501c0.1011,-0.0201,0.199,0.0311,0.2383,0.1264c0.0394,0.0951,0.0068,0.2011,-0.0792,0.2577l-1.0328,0.6794l1.2144,0.2325c0.1012,0.0194,0.1718,0.1049,0.1718,0.2079s-0.0706,0.1885,-0.1718,0.2079h-0.0001l-1.2144,0.2325l1.0327,0.6794c0.0861,0.0567,0.1187,0.1627,0.0792,0.2579s-0.1375,0.1469,-0.2384,0.1263l-1.2109,-0.2501l0.6936,1.0222c0.0579,0.0853,0.0473,0.1958,-0.0256,0.2686c-0.073,0.0728,-0.1835,0.0831,-0.2686,0.0253l-1.0221,-0.6935l0.2501,1.2111c0.0209,0.1008,-0.0311,0.1988,-0.1263,0.2383c-0.0951,0.0396,-0.2011,0.007,-0.2579,-0.0791l-0.6794,-1.0328l-0.2325,1.2143c-0.0193,0.1011,-0.1047,0.1718,-0.2077,0.1719C12.0002,15.6,12.0002,15.6,12.0001,15.6z" fill="#EEAD56"/>
    <polygon points="11.7153,13.4313 12.0001,14.9186 12.285,13.4313 13.1169,14.696 12.8106,13.2131 14.063,14.0629 13.2133,12.8104 14.6962,13.1167 13.4314,12.2848 14.9188,12 13.4314,11.7152 14.6962,10.8833 13.2133,11.1896 14.0634,9.9367 12.8106,10.787 13.117,9.3035 12.285,10.5677 12.0002,9.0813 11.7153,10.5687 10.8835,9.3042 11.1896,10.7868 9.9363,9.9367 10.7873,11.1896 9.3042,10.8833 10.5689,11.7152 9.0808,12 10.5679,12.2848 9.3037,13.1168 10.7873,12.8104 9.9363,14.0633 11.1896,13.2132 10.8834,14.696" fill="#EEAD56" stroke-linejoin="miter"/>
    <path d="M15.3718,11.9133L15.3718,11.9133L15.3718,11.9133z" fill="#EEAD56"/>
    <path d="M13.7146,12c0,0.9464,-0.7672,1.7145,-1.7145,1.7145c-0.9464,0,-1.7145,-0.7681,-1.7145,-1.7145c0,-0.9473,0.7681,-1.7145,1.7145,-1.7145C12.9473,10.2855,13.7146,11.0527,13.7146,12z" fill="#EEAD56"/>
    <path d="M12.0001,13.8645c-1.0281,0,-1.8645,-0.8364,-1.8645,-1.8645s0.8364,-1.8645,1.8645,-1.8645s1.8645,0.8364,1.8645,1.8645S13.0282,13.8645,12.0001,13.8645z" fill="#EEAD56"/>
    <path d="M12.0001,10.4355c-0.8626,0,-1.5645,0.7019,-1.5645,1.5645s0.7019,1.5645,1.5645,1.5645s1.5645,-0.7019,1.5645,-1.5645S12.8627,10.4355,12.0001,10.4355z" fill="#EEAD56"/>
    <path d="M11.33,12.0462c-0.2769,0,-0.5006,-0.1072,-0.5006,-0.24c0,-0.1329,0.2237,-0.24,0.5006,-0.24c0.276,0,0.4998,0.1072,0.4998,0.24C11.8297,11.9391,11.606,12.0462,11.33,12.0462z" fill="#AF5D41"/>
    <path d="M12.0094,12.5529c-0.2589,0,-0.4698,0.0883,-0.4698,0.1963s0.2109,0.1963,0.4698,0.1963c0.2597,0,0.4706,-0.0883,0.4706,-0.1963S12.2692,12.5529,12.0094,12.5529z" fill="#AF5D41"/>
    <ellipse cx="12.6522" cy="11.7857" rx="0.5088" ry="0.2503" fill="#AF5D41"/>
    <path d="M24,21H0V3h24V21zM1.5,19.5h21V4.5H1.5V19.5z" fill="#211F20" opacity="0.20"/>
    <line x1="23.25" y1="8.25" x2="23.25" y2="15.75" fill="#FFFFFF"/>
    <rect x="22.5" y="8.25" width="1.5" height="7.5" fill="#7D7C7B"/>
    <line x1="0.75" y1="8.25" x2="0.75" y2="15.75" fill="#FFFFFF"/>
    <rect x="0" y="8.25" width="1.5" height="7.5" fill="#7D7C7B"/>
  </g>
</svg>
