<?xml version="1.0" encoding="UTF-8"?>
<!DOCTYPE svg PUBLIC "-//W3C//DTD SVG 1.1//EN" "http://www.w3.org/Graphics/SVG/1.1/DTD/svg11.dtd">
<svg version="1.1" id="Layer_1" xmlns="http://www.w3.org/2000/svg" xmlns:xlink="http://www.w3.org/1999/xlink" x="0px" y="0px" width="24px" height="24px" viewBox="0 0 24 24" enable-background="new 0 0 24 24" xml:space="preserve">
  <g id="icon">
    <rect x="0" y="3" width="24" height="3" fill="#7C7B7A"/>
    <rect x="0" y="6" width="24" height="3" fill="#F7CE73"/>
    <rect x="0" y="9" width="24" height="3" fill="#F37980"/>
    <rect x="0" y="12" width="24" height="3" fill="#7C7B7A"/>
    <rect x="0" y="15" width="24" height="3" fill="#F7CE73"/>
    <rect x="0" y="18" width="24" height="3" fill="#F37980"/>
    <circle cx="12" cy="12" r="4.5" fill="#FFFFFF"/>
    <path d="M14.097,14.9535c0,0.0045,0,0.0075,0,0.012C14.0955,14.9655,14.0955,14.961,14.097,14.9535z" fill="#7C7B7A"/>
    <path d="M14.097,14.9535c-0.003,-0.819,-0.3705,-1.4985,-1.1895,-1.4985c-0.0105,0,-0.0195,0,-0.0285,0c0.144,0.2265,0.291,0.4545,0.441,0.687c0.0915,0.183,0,0.366,-0.2295,0.366c-0.324,0,-0.6015,-0.0405,-0.87,-0.087v1.059l0.2295,-0.057v0.4575h-0.2295h-0.2295h-0.4575v-0.2295l0.429,-0.108l-0.099,-1.185c-0.1785,-0.03,-0.3615,-0.057,-0.5595,-0.0705v0.4485h-0.2295l-0.2295,-0.915h0.4575v0.2295c0.192,0,0.3645,0,0.534,0l-0.0615,-0.7605c-1.74,-0.6045,-1.0695,-2.715,-0.744,-3.5115c-0.1185,-0.078,-0.2175,-0.183,-0.2895,-0.3075H9.702l0.915,-0.4575c0,-0.5055,0.4095,-0.915,0.915,-0.915s0.915,0.4095,0.915,0.915c0,0.387,-0.24,0.717,-0.5805,0.8505c-0.4125,1.5615,0.525,1.7715,0.9915,1.941C14.973,12.555,14.1255,14.781,14.097,14.9535z" fill="#7C7B7A"/>
    <path d="M12.288,13.413c-0.0225,-0.003,-0.045,-0.0075,-0.0675,-0.0105v0.648c0.141,0,0.2895,0,0.4575,0C12.5475,13.833,12.4185,13.6215,12.288,13.413z" fill="#7C7B7A"/>
    <path d="M13.365,12.036v1.5105c0,0,0.732,0.321,0.4125,1.419l0.504,0.2295C14.28,15.1935,15.1035,12.9975,13.365,12.036" fill="#F37980"/>
    <path d="M11.763,11.7615c1.602,0,1.1445,1.1895,1.1445,1.1895C11.763,12.951,11.763,11.7615,11.763,11.7615" fill="#B5B4B5"/>
    <path d="M10.848,11.6235c0,0.405,0.1845,0.732,0.4125,0.732c0.228,0,0.4125,-0.3285,0.4125,-0.732c0,-0.4035,-0.1845,-0.732,-0.4125,-0.732C11.0325,10.8915,10.848,11.22,10.848,11.6235z" fill="#B5B4B5"/>
    <path d="M24,21H0V3h24V21zM1.5,19.5h21V4.5H1.5V19.5z" fill="#211F20" opacity="0.20"/>
  </g>
</svg>
