<?xml version="1.0" encoding="UTF-8"?>
<!DOCTYPE svg PUBLIC "-//W3C//DTD SVG 1.1//EN" "http://www.w3.org/Graphics/SVG/1.1/DTD/svg11.dtd">
<svg version="1.1" id="Layer_1" xmlns="http://www.w3.org/2000/svg" xmlns:xlink="http://www.w3.org/1999/xlink" x="0px" y="0px" width="24px" height="24px" viewBox="0 0 24 24" enable-background="new 0 0 24 24" xml:space="preserve">
  <g id="icon">
    <rect x="0" y="3" width="24" height="18" fill="#F7CE73"/>
    <polygon points="24,18.2308 0,12.6923 0,9.2308 24,14.7692" fill="#787A7A" stroke-linejoin="miter"/>
    <polygon points="24,14.7692 0,9.2308 0,5.7692 24,11.3077" fill="#FFFFFF" stroke-linejoin="miter"/>
    <path d="M15.6932,12.3117c0,2.3044,-1.6865,4.1725,-3.7668,4.1725c-2.0804,0,-3.7668,-1.8681,-3.7668,-4.1725c0,-1.0951,0.3811,-2.0911,1.0039,-2.8358c-0.3282,0.5664,-0.519,1.2402,-0.519,1.9633c0,2.0079,1.4692,3.6357,3.282,3.6357c1.8127,0,3.2815,-1.6278,3.2815,-3.6357c0,-0.7231,-0.19,-1.3969,-0.5193,-1.9633C15.3117,10.2206,15.6932,11.2166,15.6932,12.3117z" fill="#F16976"/>
    <path d="M5.4987,10.8128c0.0606,0.5371,0.4867,1.0963,0.6887,1.253c0.2017,0.1567,0.3475,0.3913,0.3475,0.3913v1.7114c0,0,-0.1171,0.2241,-0.218,0.4925c-0.1008,0.2676,-0.0965,0.6259,0.651,0.6259c0.7472,0,0.8048,-0.38,0.7036,-0.6492c-0.1009,-0.2676,-0.0562,-0.4692,-0.0562,-0.4692s0,-1.4543,0,-1.991c0,-0.5372,-0.1915,-0.7151,-0.4342,-0.8047c-0.2423,-0.0896,-0.3735,-0.3126,-0.515,-0.5363c-0.1411,-0.2238,-0.3441,-0.2672,-0.3441,-0.2672c0.0203,-0.3576,-0.0682,-0.5267,-0.4672,-0.6236C5.3246,9.8173,5.4378,10.2761,5.4987,10.8128z" fill="#F16976"/>
    <path d="M17.9303,9.9458c-0.3989,0.0968,-0.4875,0.266,-0.4671,0.6236c0,0,-0.2031,0.0434,-0.3446,0.2672c-0.1414,0.2237,-0.1988,0.4467,-0.4411,0.5363c-0.2422,0.0896,-0.3605,0.2676,-0.3605,0.8047c0,0.5367,0,1.991,0,1.991s-0.029,0.2017,-0.1306,0.4692c-0.1008,0.2691,-0.0798,0.6492,0.6673,0.6492c0.7472,0,0.8074,-0.3583,0.7065,-0.6259c-0.1008,-0.2684,-0.1624,-0.4925,-0.1624,-0.4925v-1.7114c0,0,0.0718,-0.2347,0.2734,-0.3913c0.2024,-0.1567,0.5912,-0.7159,0.6522,-1.253C18.3844,10.2761,18.4598,9.8173,17.9303,9.9458z" fill="#F16976"/>
    <path d="M16.0552,17.5416c0,0,0.2415,-0.5368,-0.021,-0.6484c-0.2626,-0.1117,-0.7877,0,-0.7877,0s0.4373,-0.6147,0.0195,-0.8726c-0.4171,-0.2579,-0.7036,0.3801,-1.0692,0.671c-0.3649,0.2908,-0.7326,0.4515,-1.178,0.6154c-0.444,0.1639,-1.0239,0.2347,-1.0239,0.2347s-0.6499,-0.0708,-1.0942,-0.2347c-0.4446,-0.1639,-0.8828,-0.3246,-1.248,-0.6154c-0.3652,-0.2908,-0.6513,-0.9288,-1.0688,-0.671c-0.4171,0.2579,0.0206,0.8726,0.0206,0.8726s-0.5248,-0.1117,-0.787,0c-0.2629,0.1116,-0.0196,0.6484,-0.0196,0.6484c-0.5853,0.09,-0.3811,0.4925,-0.3811,0.4925s0.1454,-0.2081,0.7515,-0.2081s0.8566,0.6557,1.2606,0.6557c0.4041,0,0.4008,-0.425,0.4008,-0.425c0.7478,0.6933,2.1652,0.6933,2.1652,0.6933s1.3474,0,2.0946,-0.6933c0,0,-0.0377,0.425,0.3663,0.425c0.4041,0,0.6369,-0.6557,1.2433,-0.6557c0.6057,0,0.7428,0.2081,0.7428,0.2081S16.6413,17.6316,16.0552,17.5416z" fill="#F16976"/>
    <path d="M14.4507,8.8439c-0.444,-0.1342,-0.9198,-0.7605,-1.5458,-0.7605c-0.6259,0,-0.91,0.5371,-0.91,0.5371s-0.347,-0.5371,-0.973,-0.5371s-1.1657,0.6263,-1.61,0.7605c-0.4443,0.1346,-0.8682,0,-0.8682,0c0.1012,0.5146,0.6201,0.632,0.6201,0.632c0.0547,0.319,0.4893,0.3302,0.4893,0.3302c0.0588,0.3804,0.6888,0.1181,0.6888,0.1181s-0.0392,0.374,0.284,0.3294c0.3231,-0.0446,0.8705,-0.6713,0.8705,-0.6713s-0.1571,0.1791,-0.1367,0.3419c0.0203,0.1627,0.2709,0.1502,0.2709,0.1502c-0.2219,0.2463,0.1788,0.5371,0.1788,0.5371l0.1857,-0.1567l0.1226,0.1567c0,0,0.3689,-0.2908,0.1465,-0.5371c0,0,0.235,0.0124,0.2554,-0.1502c0.0203,-0.1627,-0.1451,-0.3419,-0.1451,-0.3419s0.5436,0.6267,0.8664,0.6713c0.3235,0.0446,0.2822,-0.3294,0.2822,-0.3294s0.6288,0.2623,0.6883,-0.1181c0,0,0.4338,-0.0112,0.4882,-0.3302c0,0,0.5193,-0.1173,0.6201,-0.632C15.3197,8.8439,14.8953,8.9785,14.4507,8.8439z" fill="#F16976"/>
    <ellipse cx="11.9265" cy="6.8306" rx="0.6363" ry="0.179" fill="#F16976"/>
    <path d="M12.6731,7.1887c-0.0203,-0.1567,-0.1055,-0.1792,-0.1055,-0.1792s-0.3333,0.0952,-0.6412,0.0952c-0.308,0,-0.6362,-0.0952,-0.6362,-0.0952s-0.0809,0.0225,-0.1012,0.1792c-0.0204,0.1567,-0.1614,0.6376,-0.1614,0.6376l0.2626,-0.319l0.2219,0.319l0.2224,-0.319l0.1919,0.319l0.1969,-0.319l0.2248,0.319l0.2231,-0.319l0.2633,0.319C12.8346,7.8263,12.6935,7.3454,12.6731,7.1887z" fill="#F16976"/>
    <polygon points="11.9949,5.276 11.9949,6.1482 12.5364,6.4057 12.3272,6.0478 12.7523,5.8236" fill="#F16976" stroke-linejoin="miter"/>
    <rect x="11.7648" y="7.8263" width="0.3337" height="0.9397" fill="#F16976"/>
    <path d="M12.3709,14.4707c0,0,0.2187,-0.3351,0.173,-0.5874c-0.0454,-0.2515,-0.2568,-0.6492,-0.3174,-0.9032c-0.0605,-0.2546,0.1469,-0.4897,0.1469,-0.4897l-0.1614,-0.0333c0,0,0.2169,-0.2181,0.1614,-0.4532c-0.0555,-0.235,-0.1614,-0.5367,-0.1915,-0.8051c-0.0305,-0.2688,0.1915,-0.5874,0.1915,-0.5874l-0.2876,0.1845l-0.1564,-0.1845l-0.152,0.1845l-0.2825,-0.1845c0,0,0.2223,0.3186,0.1919,0.5874c-0.0302,0.2684,-0.1364,0.5701,-0.1919,0.8051c-0.0555,0.2351,0.1617,0.4532,0.1617,0.4532l-0.1617,0.0333c0,0,0.2071,0.2351,0.1465,0.4897c-0.0605,0.2539,-0.2727,0.6516,-0.3181,0.9032c-0.0453,0.2523,0.1716,0.5874,0.1716,0.5874l-0.4342,-0.1005c0.2372,0.5367,0.5143,0.6034,0.8686,0.6034c0.354,0,0.6358,-0.0667,0.873,-0.6034L12.3709,14.4707z" fill="#F16976"/>
    <path d="M24,21H0V3h24V21zM1.5,19.5h21V4.5H1.5V19.5z" opacity="0.3"/>
  </g>
</svg>
