<?xml version="1.0" encoding="UTF-8"?>
<!DOCTYPE svg PUBLIC "-//W3C//DTD SVG 1.1//EN" "http://www.w3.org/Graphics/SVG/1.1/DTD/svg11.dtd">
<svg version="1.1" id="Layer_1" xmlns="http://www.w3.org/2000/svg" xmlns:xlink="http://www.w3.org/1999/xlink" x="0px" y="0px" width="24px" height="24px" viewBox="0 0 24 24" enable-background="new 0 0 24 24" xml:space="preserve">
  <g id="icon">
    <path d="M0,3h24v18H0V3z" fill="#76B6CA"/>
    <path d="M0,3h12v9H0V3z" fill="#77A1D5"/>
    <path d="M12,4.0815L9.5415,6.375H12v2.25H9.4215L12,10.9935V12h-1.341L7.2,8.8815V12H4.8V9.0315L1.341,12H0l0,0v-1.0065L2.658,8.625H0v-2.25h2.4585L0,4.0065V3h1.341L4.8,6.1185V3h2.4v3.1185L10.659,3H12V4.0815z" fill="#FFFFFF"/>
    <polygon points="3.72,6.375 0,3 0.894,3 4.614,6.375" fill="#F37980" stroke-linejoin="miter"/>
    <polygon points="7.386,8.625 11.106,12 12,12 8.28,8.625" fill="#F37980" stroke-linejoin="miter"/>
    <polygon points="4.0005,8.625 0,12 0,11.3295 3.105,8.625" fill="#F37980" stroke-linejoin="miter"/>
    <polygon points="8.2005,6.375 9.0945,6.375 12,3.7455 12,3" fill="#F37980" stroke-linejoin="miter"/>
    <polygon points="6.7995,6.75 12,6.75 12,8.25 6.7995,8.25 6.7995,12 5.2005,12 5.2005,8.25 0,8.25 0,6.75 5.2005,6.75 5.2005,3 6.801,3 6.801,6.75" fill="#F37980" stroke-linejoin="miter"/>
    <polygon points="9.8265,18.681 8.934,19.239 9.2805,20.2155 8.4375,19.611 7.545,20.2155 7.8915,19.239 6.999,18.681 8.0895,18.681 8.436,17.7045 8.733,18.681" fill="#F7CE73" stroke-linejoin="miter"/>
    <polygon points="13.149,17.9385 13.446,16.962 12.603,17.5665 11.76,16.962 12.057,17.9385 11.214,18.4965 12.255,18.4965 12.6015,19.473 12.948,18.4965 13.989,18.4965" fill="#F7CE73" stroke-linejoin="miter"/>
    <polygon points="14.0055,13.0905 13.1625,13.695 12.3195,13.0905 12.6165,14.0205 11.775,14.625 12.816,14.625 13.1625,15.6015 13.509,14.625 14.55,14.625 13.707,14.0205" fill="#F7CE73" stroke-linejoin="miter"/>
    <polygon points="16.8165,17.055 17.163,16.125 16.2705,16.7295 15.4275,16.125 15.774,17.055 14.8815,17.6595 15.972,17.6595 16.269,18.5895 16.6155,17.6595 17.706,17.6595" fill="#F7CE73" stroke-linejoin="miter"/>
    <polygon points="15.255,10.362 15.552,11.292 15.8985,10.362 16.989,10.362 16.0965,9.7575 16.443,8.8275 15.5505,9.432 14.7075,8.8275 15.054,9.7575 14.1615,10.362" fill="#F7CE73" stroke-linejoin="miter"/>
    <polygon points="19.0485,14.499 18.702,13.569 18.405,14.499 17.3145,14.499 18.1575,15.1035 17.8605,16.0335 18.7035,15.4755 19.596,16.0335 19.2495,15.1035 20.0925,14.499" fill="#F7CE73" stroke-linejoin="miter"/>
    <polygon points="19.0485,9.387 19.395,10.317 19.7415,9.387 20.7825,9.387 19.9395,8.7825 20.286,7.806 19.3935,8.4105 18.5505,7.806 18.8475,8.7825 18.0045,9.387" fill="#F7CE73" stroke-linejoin="miter"/>
    <polygon points="22.1715,12.639 21.825,11.6625 21.4785,12.639 20.4375,12.639 21.2805,13.197 20.9835,14.1735 21.8265,13.569 22.719,14.1735 22.3725,13.197 23.2155,12.639" fill="#F7CE73" stroke-linejoin="miter"/>
    <polygon points="21.279,6.783 20.982,7.713 21.825,7.155 22.7175,7.713 22.371,6.783 23.214,6.1785 22.173,6.1785 21.8265,5.2485 21.48,6.1785 20.439,6.1785" fill="#F7CE73" stroke-linejoin="miter"/>
    <path d="M24,21H0V3h24V21zM1.5,19.5h21V4.5H1.5V19.5z" fill="#211F20" opacity="0.20"/>
  </g>
</svg>
