<?xml version="1.0" encoding="UTF-8"?>
<!DOCTYPE svg PUBLIC "-//W3C//DTD SVG 1.1//EN" "http://www.w3.org/Graphics/SVG/1.1/DTD/svg11.dtd">
<svg version="1.1" id="Layer_1" xmlns="http://www.w3.org/2000/svg" xmlns:xlink="http://www.w3.org/1999/xlink" x="0px" y="0px" width="24px" height="24px" viewBox="0 0 24 24" enable-background="new 0 0 24 24" xml:space="preserve">
  <g id="icon">
    <polygon points="20.202,11.2542 3.3615,1.2942 3.3615,6.3897 3.3615,11.3292 3.3615,23.2542 20.202,23.2542 8.0295,11.2542" fill="#F37980" stroke-linejoin="miter"/>
    <polygon points="22.0305,24.0042 2.6115,24.0042 2.6115,-0.0213 22.9425,12.0042 9.858,12.0042" fill="#77A1D5" stroke-linejoin="miter"/>
    <polygon points="4.1115,22.5042 18.372,22.5042 6.1995,10.5042 17.46,10.5042 4.1115,2.6082" fill="#77A1D5" stroke-linejoin="miter"/>
    <path d="M8.955,7.9557c0.12,-0.1995,0.159,-0.477,0.159,-0.7155c0,-0.8745,-0.7155,-1.5915,-1.5915,-1.5915c-0.8745,0,-1.5915,0.7155,-1.5915,1.5915c0,0.279,0.0795,0.5175,0.159,0.7155c-0.756,-0.318,-1.353,-0.7155,-1.353,-0.7155s0.597,2.3865,2.784,2.3865c2.2275,0,2.784,-2.3865,2.784,-2.3865S9.711,7.6377,8.955,7.9557" fill="#FFFFFF"/>
    <polygon points="7.6335,16.0272 8.3595,15.2997 8.6325,16.2987 9.63,16.0272 9.3585,17.0247 10.356,17.2977 9.63,18.0237 10.356,18.7497 9.3585,19.0212 9.63,20.0202 8.6325,19.7472 8.3595,20.7462 7.6335,20.0202 6.9075,20.7462 6.636,19.7472 5.637,20.0202 5.9085,19.0212 4.911,18.7497 5.637,18.0237 4.911,17.2977 5.9085,17.0247 5.637,16.0272 6.636,16.2987 6.9075,15.2997" fill="#FFFFFF" stroke-linejoin="miter"/>
  </g>
</svg>
