<?xml version="1.0" encoding="UTF-8"?>
<!DOCTYPE svg PUBLIC "-//W3C//DTD SVG 1.1//EN" "http://www.w3.org/Graphics/SVG/1.1/DTD/svg11.dtd">
<svg version="1.1" id="Layer_1" xmlns="http://www.w3.org/2000/svg" xmlns:xlink="http://www.w3.org/1999/xlink" x="0px" y="0px" width="24px" height="24px" viewBox="0 0 24 24" enable-background="new 0 0 24 24" xml:space="preserve">
  <g id="icon">
    <path d="M12,0.0587C5.4007,0.0587,0.0318,4.7755,0.0318,10.5732c0,2.8052,1.2997,5.5289,3.5712,7.4951c-0.2598,1.1971,-0.9662,3.3011,-1.2265,4.0384l-0.6608,1.8718l1.8863,-0.6181c0.9675,-0.317,5.7933,-1.9002,7.0272,-2.3408c0.4531,0.0453,0.9141,0.0683,1.3709,0.0683c6.5993,0,11.9682,-4.7168,11.9682,-10.5145C23.9682,4.7755,18.5993,0.0587,12,0.0587zM7.0853,14.9961H5.0091V6.0501l0.2299,-0.0084c1.1418,-0.0416,1.9095,-0.0636,2.2199,-0.0636c1.2674,0,2.2902,0.3894,3.04,1.1574c0.7483,0.7664,1.1277,1.7915,1.1277,3.0469C11.6266,13.3765,10.0987,14.9961,7.0853,14.9961zM18.8137,7.8497H14.997v1.5105h2.7362v1.7568H14.997v2.0648h3.7544v1.8143h-5.7018V6.0355h5.764V7.8497zM9.6231,10.2752c0,0.9342,-0.1956,1.6648,-0.5811,2.1714c-0.377,0.4939,-0.8856,0.7339,-1.5551,0.7339c-0.1873,0,-0.3649,-0.0053,-0.5306,-0.0158V7.8135c0.1765,-0.0141,0.3219,-0.0212,0.4341,-0.0212C8.9137,7.7923,9.6231,8.5813,9.6231,10.2752z" fill="#7456A4"/>
    <path d="M13.0497,14.9961V6.0355h5.764v1.8142H14.997v1.5105h2.7362v1.7568H14.997v2.0648h3.7544v1.8143H13.0497zM5.0091,14.9961V6.0501l0.2299,-0.0084c1.1418,-0.0416,1.9095,-0.0636,2.2199,-0.0636c1.2674,0,2.2902,0.3894,3.04,1.1574c0.7483,0.7664,1.1277,1.7915,1.1277,3.0469c0,3.1941,-1.5279,4.8136,-4.5413,4.8136H5.0091zM6.9564,13.1648c0.1656,0.0105,0.3433,0.0158,0.5306,0.0158c0.6694,0,1.1781,-0.2401,1.5551,-0.7339c0.3855,-0.5066,0.5811,-1.2373,0.5811,-2.1714c0,-1.6939,-0.7094,-2.4829,-2.2326,-2.4829c-0.1122,0,-0.2576,0.0071,-0.4341,0.0212V13.1648z" fill="#FFFFFF" opacity="0.5"/>
  </g>
</svg>
