<?xml version="1.0" encoding="UTF-8"?>
<!DOCTYPE svg PUBLIC "-//W3C//DTD SVG 1.1//EN" "http://www.w3.org/Graphics/SVG/1.1/DTD/svg11.dtd">
<svg version="1.1" id="Layer_1" xmlns="http://www.w3.org/2000/svg" xmlns:xlink="http://www.w3.org/1999/xlink" x="0px" y="0px" width="24px" height="24px" viewBox="0 0 24 24" enable-background="new 0 0 24 24" xml:space="preserve">
  <g id="icon">
    <path d="M3.0437,22.3667c0.0118,-0.0335,1.1435,-3.2499,1.3376,-4.5865c-2.3193,-1.8561,-3.6465,-4.4839,-3.6465,-7.2304C0.7347,5.138,5.7883,0.7352,12,0.7352s11.2653,4.4028,11.2653,9.8146S18.2117,20.3645,12,20.3645c-0.4897,0,-0.9825,-0.0277,-1.4658,-0.0824c-0.8553,0.3237,-6.9184,2.3122,-7.1834,2.3991l-0.4729,0.1551L3.0437,22.3667z" fill="#FFFFFF" opacity="0.5"/>
    <path d="M2.3509,22.1219c0.261,-0.7397,0.9693,-2.8508,1.2297,-4.0519C1.3031,16.0972,0,13.3644,0,10.5498C0,4.7326,5.3832,0,12,0s12,4.7327,12,10.5499c0,5.8172,-5.3832,10.5498,-12,10.5498c-0.458,0,-0.9202,-0.023,-1.3745,-0.0685c-1.2372,0.442,-6.0758,2.0306,-7.0458,2.3486L1.6884,24L2.3509,22.1219zM12,1.9606c-5.5365,0,-10.0408,3.8531,-10.0408,8.5892c0,2.4091,1.197,4.7238,3.2842,6.3505l0.4293,0.3346l-0.057,0.5415c-0.0779,0.7393,-0.4486,2.0348,-0.7949,3.1316c2.4523,-0.8085,5.0127,-1.6612,5.3084,-1.7829l0.235,-0.0967l0.2524,0.0297c0.455,0.0538,0.9205,0.081,1.3834,0.081c5.5365,0,10.0408,-3.8531,10.0408,-8.5892C22.0408,5.8137,17.5365,1.9606,12,1.9606z" fill="#2C7EA0"/>
    <path d="M15.3869,15c-1.0296,0,-1.8412,-0.2599,-2.4123,-0.7725c-0.5764,-0.5162,-0.8688,-1.2583,-0.8688,-2.2054V6.073h1.974v5.8702c0,0.3871,0.1122,0.6895,0.3429,0.9245c0.2278,0.233,0.5395,0.3461,0.9531,0.3461c0.469,0,0.8337,-0.1166,1.0841,-0.3465c0.2504,-0.2299,0.3721,-0.5416,0.3721,-0.9529V6.073h1.974v5.9551c0,0.9225,-0.3197,1.6587,-0.95,2.188C17.2365,14.7362,16.4058,15,15.3869,15zM5.1473,14.8589V6.0901l0.2331,-0.0109C6.5057,6.0266,7.3068,6,7.7614,6c0.919,0,1.6543,0.2027,2.1853,0.6025c0.5496,0.4137,0.8283,1.0085,0.8283,1.7678c0,0.6107,-0.2639,1.1192,-0.7858,1.5167c0.859,0.4406,1.2937,1.2011,1.2937,2.2666c0,0.8283,-0.3209,1.4969,-0.9538,1.987c-0.6183,0.4767,-1.4186,0.7182,-2.379,0.7182H5.1473zM7.1212,13.1656c0.1925,0.0137,0.3554,0.0207,0.4861,0.0207c0.6043,0,1.0388,-0.096,1.2913,-0.2853c0.2371,-0.1777,0.3523,-0.4797,0.3523,-0.9231c0,-0.4001,-0.1062,-0.6771,-0.3247,-0.8467c-0.1592,-0.1235,-0.5144,-0.2709,-1.3028,-0.2709l-0.0388,-0.0001c-0.1039,0,-0.2538,0.0029,-0.4633,0.0092V13.1656zM7.1212,9.263c0.1505,0.0064,0.309,0.0096,0.4738,0.0096c1.0678,0,1.2048,-0.4521,1.2048,-0.846c0,-0.3354,-0.1221,-0.7205,-1.0741,-0.7205c-0.1688,0,-0.368,0.0052,-0.6044,0.0157V9.263z" fill="#2C7EA0"/>
  </g>
</svg>
