<?xml version="1.0" encoding="UTF-8"?>
<!DOCTYPE svg PUBLIC "-//W3C//DTD SVG 1.1//EN" "http://www.w3.org/Graphics/SVG/1.1/DTD/svg11.dtd">
<svg version="1.1" id="Layer_1" xmlns="http://www.w3.org/2000/svg" xmlns:xlink="http://www.w3.org/1999/xlink" x="0px" y="0px" width="24px" height="24px" viewBox="0 0 24 24" enable-background="new 0 0 24 24" xml:space="preserve">
  <g id="icon">
    <path d="M3.0674,22.3507c0.0118,-0.0333,1.1405,-3.2391,1.334,-4.5711c-2.3132,-1.8499,-3.6369,-4.4689,-3.6369,-7.2063C0.7645,5.1796,5.8047,0.7915,12,0.7915s11.2355,4.3881,11.2355,9.7818S18.1953,20.3551,12,20.3551c-0.4885,0,-0.9799,-0.0276,-1.4619,-0.0821c-0.853,0.3226,-6.9001,2.3045,-7.1644,2.3911l-0.4716,0.1546L3.0674,22.3507z" fill="#FFFFFF" opacity="0.5"/>
    <path d="M2.3765,22.1067c0.2603,-0.7372,0.9667,-2.8413,1.2264,-4.0384c-2.2715,-1.9662,-3.5712,-4.6898,-3.5712,-7.4951C0.0317,4.7755,5.4007,0.0587,12,0.0587s11.9682,4.7168,11.9682,10.5146c0,5.7977,-5.3689,10.5145,-11.9682,10.5145c-0.4568,0,-0.9178,-0.0229,-1.3709,-0.0683c-1.2339,0.4406,-6.0597,2.0238,-7.0272,2.3408l-1.8863,0.6181L2.3765,22.1067zM12,2.0127c-5.5219,0,-10.0143,3.8403,-10.0143,8.5605c0,2.4011,1.1939,4.708,3.2755,6.3293l0.4282,0.3335l-0.0569,0.5397c-0.0777,0.7368,-0.4474,2.028,-0.7928,3.1211c2.4458,-0.8058,4.9994,-1.6556,5.2944,-1.777l0.2344,-0.0964l0.2517,0.0296c0.4538,0.0536,0.918,0.0808,1.3798,0.0808c5.5219,0,10.0143,-3.8403,10.0143,-8.5605C22.0143,5.853,17.5219,2.0127,12,2.0127z" fill="#249992"/>
    <path d="M15.6595,14.9961c-1.0029,0,-1.7935,-0.2609,-2.3497,-0.7755c-0.5615,-0.5182,-0.8463,-1.2631,-0.8463,-2.214v-5.972h1.9229v5.8928c0,0.3886,0.1092,0.6922,0.3339,0.928c0.2219,0.2339,0.5255,0.3475,0.9283,0.3475c0.4568,0,0.812,-0.117,1.0559,-0.3477c0.2439,-0.2308,0.3625,-0.5437,0.3625,-0.9565v-5.864h1.9229v5.978c0,0.9261,-0.3113,1.6651,-0.9254,2.1964C17.4611,14.7313,16.6519,14.9961,15.6595,14.9961zM5.1452,14.8544V6.0491l0.2299,-0.0084c1.1392,-0.0415,1.8738,-0.0626,2.1832,-0.0626c1.2474,0,2.2542,0.3833,2.9924,1.1393c0.7366,0.7544,1.1101,1.7635,1.1101,2.9992c0,3.1437,-1.5039,4.7377,-4.4699,4.7377H5.1452zM7.0681,13.0458c0.1618,0.0102,0.3352,0.0153,0.5178,0.0153c0.657,0,1.1562,-0.2356,1.5261,-0.7203c0.3786,-0.4974,0.5707,-1.2151,0.5707,-2.1329c0,-1.6632,-0.6964,-2.4378,-2.1916,-2.4378c-0.1085,0,-0.2502,0.0069,-0.423,0.0206V13.0458z" fill="#249992"/>
  </g>
</svg>
