<?xml version="1.0" encoding="UTF-8"?>
<!DOCTYPE svg PUBLIC "-//W3C//DTD SVG 1.1//EN" "http://www.w3.org/Graphics/SVG/1.1/DTD/svg11.dtd">
<svg version="1.1" id="Layer_1" xmlns="http://www.w3.org/2000/svg" xmlns:xlink="http://www.w3.org/1999/xlink" x="0px" y="0px" width="24px" height="24px" viewBox="0 0 24 24" enable-background="new 0 0 24 24" xml:space="preserve">
  <g id="icon">
    <path d="M16.9754,8.7428c0,0.4189,-0.106,0.6965,-0.3151,0.8252c-0.2455,0.1511,-0.6569,0.2277,-1.2227,0.2277c-0.0966,0,-0.2269,-0.0055,-0.3832,-0.0162V7.8786c0.0871,-0.0068,0.1739,-0.0105,0.2595,-0.0112c0.6127,0.0001,1.0595,0.0733,1.328,0.2177C16.785,8.1622,16.9754,8.3141,16.9754,8.7428zM23.9682,10.5733c0,5.7977,-5.3689,10.5145,-11.9682,10.5145c-0.4568,0,-0.9177,-0.0229,-1.3709,-0.0683c-1.2339,0.4406,-6.0597,2.0238,-7.0272,2.3408l-1.8863,0.6181l0.6608,-1.8718c0.2603,-0.7372,0.9667,-2.8413,1.2265,-4.0384c-2.2715,-1.9662,-3.5712,-4.6898,-3.5712,-7.4951C0.0318,4.7755,5.4007,0.0587,12,0.0587S23.9682,4.7755,23.9682,10.5733zM12.136,14.9988l-3.2458,-4.956l2.7682,-3.907H9.4001L6.9463,9.6327V6.1358H4.9981V15h1.9482v-2.4578l0.6727,-0.932l2.1575,3.3886H12.136zM20.0949,14.9988l-2.5361,-3.9143c0.3684,-0.1904,0.6846,-0.469,0.9426,-0.8312c0.3183,-0.447,0.4797,-0.9494,0.4797,-1.4935c0,-1.2367,-0.5891,-2.7109,-3.3956,-2.7109c-0.3428,0,-0.7984,0.0147,-1.354,0.0438c-0.6821,0.0357,-0.8899,0.0431,-0.944,0.0431h-0.2386V15h2.0044v-3.4919c0.2184,0.0113,0.4061,0.0192,0.5613,0.0235l2.1846,3.4671H20.0949z" fill="#E87631"/>
    <path d="M15.6145,11.5316c-0.1552,-0.0043,-0.3429,-0.0122,-0.5613,-0.0235V15h-2.0044V6.1358h0.2386c0.0542,0,0.2619,-0.0075,0.944,-0.0431c0.5556,-0.0291,1.0112,-0.0438,1.354,-0.0438c2.8065,0,3.3956,1.4742,3.3956,2.7109c0,0.5441,-0.1614,1.0465,-0.4797,1.4935c-0.258,0.3622,-0.5741,0.6408,-0.9426,0.8312l2.5361,3.9143h-2.2958L15.6145,11.5316zM15.0544,9.7795c0.1563,0.0106,0.2866,0.0162,0.3832,0.0162c0.5658,0,0.9771,-0.0766,1.2227,-0.2277c0.2091,-0.1286,0.3151,-0.4062,0.3151,-0.8252c0,-0.4287,-0.1903,-0.5806,-0.3335,-0.6576c-0.2684,-0.1444,-0.7152,-0.2176,-1.328,-0.2177c-0.0856,0.0007,-0.1724,0.0044,-0.2595,0.0112V9.7795zM7.619,11.6102l-0.6727,0.932V15H4.9981V6.1358h1.9482v3.4969l2.4538,-3.4969h2.2583l-2.7682,3.907l3.2458,4.956H9.7765L7.619,11.6102z" fill="#FFFFFF" opacity="0.5"/>
  </g>
</svg>
