<?xml version="1.0" encoding="UTF-8"?>
<!DOCTYPE svg PUBLIC "-//W3C//DTD SVG 1.1//EN" "http://www.w3.org/Graphics/SVG/1.1/DTD/svg11.dtd">
<svg version="1.1" id="Layer_1" xmlns="http://www.w3.org/2000/svg" xmlns:xlink="http://www.w3.org/1999/xlink" x="0px" y="0px" width="24px" height="24px" viewBox="0 0 24 24" enable-background="new 0 0 24 24" xml:space="preserve">
  <g id="icon">
    <path d="M3.0674,22.3507c0.0118,-0.0333,1.1405,-3.2391,1.334,-4.5711c-2.3132,-1.8499,-3.6369,-4.4689,-3.6369,-7.2063C0.7645,5.1796,5.8047,0.7915,12,0.7915s11.2355,4.3881,11.2355,9.7818S18.1953,20.3551,12,20.3551c-0.4885,0,-0.9799,-0.0276,-1.4619,-0.0821c-0.853,0.3226,-6.9001,2.3045,-7.1644,2.3911l-0.4716,0.1546L3.0674,22.3507z" fill="#FFFFFF" opacity="0.5"/>
    <path d="M2.3765,22.1067c0.2603,-0.7372,0.9667,-2.8413,1.2264,-4.0384c-2.2715,-1.9662,-3.5712,-4.6898,-3.5712,-7.4951C0.0317,4.7755,5.4007,0.0587,12,0.0587s11.9682,4.7168,11.9682,10.5146c0,5.7977,-5.3689,10.5145,-11.9682,10.5145c-0.4568,0,-0.9178,-0.0229,-1.3709,-0.0683c-1.2339,0.4406,-6.0597,2.0238,-7.0272,2.3408l-1.8863,0.6181L2.3765,22.1067zM12,2.0127c-5.5219,0,-10.0143,3.8403,-10.0143,8.5605c0,2.4011,1.1939,4.708,3.2755,6.3293l0.4282,0.3335l-0.0569,0.5397c-0.0777,0.7368,-0.4474,2.028,-0.7928,3.1211c2.4458,-0.8058,4.9994,-1.6556,5.2944,-1.777l0.2344,-0.0964l0.2517,0.0296c0.4538,0.0536,0.918,0.0808,1.3798,0.0808c5.5219,0,10.0143,-3.8403,10.0143,-8.5605C22.0143,5.853,17.5219,2.0127,12,2.0127z" fill="#497E50"/>
    <path d="M9.2438,15L5.9946,6h2.1168l1.7379,5.1882L11.6845,6h2.0861l-3.3913,9H9.2438zM17.0227,14.985V6h-1.9371l0.0386,8.985H17.0227z" fill="#497E50"/>
  </g>
</svg>
