<?xml version="1.0" encoding="UTF-8"?>
<!DOCTYPE svg PUBLIC "-//W3C//DTD SVG 1.1//EN" "http://www.w3.org/Graphics/SVG/1.1/DTD/svg11.dtd">
<svg version="1.1" id="Layer_1" xmlns="http://www.w3.org/2000/svg" xmlns:xlink="http://www.w3.org/1999/xlink" x="0px" y="0px" width="24px" height="24px" viewBox="0 0 24 24" enable-background="new 0 0 24 24" xml:space="preserve">
  <g id="icon">
    <path d="M3.0674,22.3507c0.0118,-0.0333,1.1405,-3.2391,1.334,-4.5711c-2.3132,-1.8499,-3.6369,-4.4689,-3.6369,-7.2063C0.7645,5.1796,5.8047,0.7915,12,0.7915s11.2355,4.3881,11.2355,9.7818S18.1953,20.3551,12,20.3551c-0.4885,0,-0.9799,-0.0276,-1.4619,-0.0821c-0.853,0.3226,-6.9001,2.3045,-7.1644,2.3911l-0.4716,0.1546L3.0674,22.3507z" fill="#FFFFFF" opacity="0.5"/>
    <path d="M2.3765,22.1067c0.2603,-0.7372,0.9667,-2.8413,1.2264,-4.0384c-2.2715,-1.9662,-3.5712,-4.6898,-3.5712,-7.4951C0.0317,4.7755,5.4007,0.0587,12,0.0587s11.9682,4.7168,11.9682,10.5146c0,5.7977,-5.3689,10.5145,-11.9682,10.5145c-0.4568,0,-0.9178,-0.0229,-1.3709,-0.0683c-1.2339,0.4406,-6.0597,2.0238,-7.0272,2.3408l-1.8863,0.6181L2.3765,22.1067zM12,2.0127c-5.5219,0,-10.0143,3.8403,-10.0143,8.5605c0,2.4011,1.1939,4.708,3.2755,6.3293l0.4282,0.3335l-0.0569,0.5397c-0.0777,0.7368,-0.4474,2.028,-0.7928,3.1211c2.4458,-0.8058,4.9994,-1.6556,5.2944,-1.777l0.2344,-0.0964l0.2517,0.0296c0.4538,0.0536,0.918,0.0808,1.3798,0.0808c5.5219,0,10.0143,-3.8403,10.0143,-8.5605C22.0143,5.853,17.5219,2.0127,12,2.0127z" fill="#DB6672"/>
    <path d="M8.0618,15.2397c-0.8115,0,-1.5561,-0.2194,-2.2129,-0.6522l-0.163,-0.1073l0.7308,-1.8148l0.247,0.1773c0.5375,0.3859,1.0681,0.5815,1.5771,0.5815c1.058,0,1.058,-0.4834,1.058,-0.6898c0,-0.2381,-0.0836,-0.4615,-0.2557,-0.683c-0.1821,-0.2344,-0.5792,-0.5098,-1.1805,-0.8185c-0.6636,-0.3408,-1.1024,-0.6174,-1.3415,-0.8459c-0.2442,-0.232,-0.4349,-0.5125,-0.5661,-0.8332c-0.1303,-0.3183,-0.1964,-0.6726,-0.1964,-1.0531c0,-0.7241,0.2634,-1.3335,0.7829,-1.8112c0.5128,-0.4727,1.1764,-0.7125,1.972,-0.7125c1.0114,0,1.773,0.2033,2.2636,0.6043l0.1288,0.1052l-0.6074,1.7625l-0.2611,-0.1914c-0.4733,-0.3468,-0.9765,-0.5227,-1.4957,-0.5227c-0.2773,0,-0.4811,0.0677,-0.6232,0.207c-0.1403,0.1376,-0.2085,0.3163,-0.2085,0.5464c0,0.2665,0.2513,0.7093,1.4482,1.3057c0.5826,0.2926,0.9942,0.557,1.2593,0.8088c0.2679,0.2546,0.4753,0.5575,0.6165,0.9006c0.1394,0.3384,0.2101,0.7192,0.2101,1.1318c0,0.7594,-0.2967,1.3927,-0.8819,1.8821c-0.5713,0.4792,-1.3407,0.7223,-2.2865,0.7223H8.0618zM12.0695,15.0978V6.1376l0.2282,-0.0099c0.6679,-0.0291,1.5107,-0.0639,1.7327,-0.0639c1.3732,0,2.3574,0.2156,3.0089,0.6591c0.6723,0.4568,1.0133,1.1722,1.0133,2.1263c0,1.4426,-0.6252,3.1623,-3.6038,3.1623c-0.1168,0,-0.2606,-0.0063,-0.4293,-0.0189v3.1052H12.0695zM14.0195,10.1753c0.1418,0.0121,0.2594,0.0182,0.351,0.0182c0.6169,0,1.0645,-0.1002,1.3305,-0.2979c0.248,-0.1842,0.3685,-0.4889,0.3685,-0.9314c0,-0.268,0,-1.0837,-1.8409,-1.0837c-0.0708,0,-0.1407,0.0022,-0.2091,0.0066V10.1753z" fill="#DB6672"/>
  </g>
</svg>
