<?xml version="1.0" encoding="UTF-8"?>
<!DOCTYPE svg PUBLIC "-//W3C//DTD SVG 1.1//EN" "http://www.w3.org/Graphics/SVG/1.1/DTD/svg11.dtd">
<svg version="1.1" id="Layer_1" xmlns="http://www.w3.org/2000/svg" xmlns:xlink="http://www.w3.org/1999/xlink" x="0px" y="0px" width="16px" height="16px" viewBox="0 0 16 16" enable-background="new 0 0 16 16" xml:space="preserve">
  <g id="icon">
    <path d="M4.6154,13.8815v1.0332c0,0.3271,-0.2778,0.5923,-0.6205,0.5923h-0.8744c-0.3427,0,-0.6205,-0.2652,-0.6205,-0.5923v-1.3563M11.3846,13.8815v1.0332c0,0.3271,0.2778,0.5923,0.6205,0.5923h0.8744c0.3427,0,0.6205,-0.2652,0.6205,-0.5923v-1.3563" fill="#FFFFFF"/>
    <path d="M12.8795,16.0069h-0.8744c-0.6179,0,-1.1205,-0.49,-1.1205,-1.0923v-1.0332h1v1.0332c0,0.0446,0.0484,0.0923,0.1205,0.0923h0.8744c0.0721,0,0.1205,-0.0477,0.1205,-0.0923v-1.3563h1v1.3563C14,15.5169,13.4974,16.0069,12.8795,16.0069zM3.9949,16.0069h-0.8744c-0.6179,0,-1.1205,-0.49,-1.1205,-1.0923v-1.3563h1v1.3563c0,0.0446,0.0484,0.0923,0.1205,0.0923h0.8744c0.0721,0,0.1205,-0.0477,0.1205,-0.0923v-1.0332h1v1.0332C5.1154,15.5169,4.6127,16.0069,3.9949,16.0069z" fill="#6D6E71"/>
    <path d="M14.3305,8.7901c-0.0805,-0.2544,-0.2869,-0.689,-0.5522,-0.689c-0.0958,0,-0.1997,0.0197,-0.3086,0.0586c-0.2005,0.0715,-0.4035,0.1312,-0.6082,0.1823C12.0586,5.5577,12.527,5.007,8,5.007c-4.5307,0,-4.0168,0.5515,-4.821,3.3417c-0.2134,-0.0524,-0.4249,-0.1143,-0.6338,-0.1889c-0.109,-0.0389,-0.2128,-0.0586,-0.3086,-0.0586c-0.2653,0,-0.4717,0.4346,-0.5522,0.689c-0.0747,0.236,-0.0485,0.5545,0.4996,0.7319c0.1102,0.0356,0.222,0.0687,0.3278,0.0992c-0.0274,0.058,-0.3087,0.4485,-0.3773,0.8137c-0.2044,1.0875,-0.099,1.9295,0.0162,2.4702c0.1229,0.5768,0.2637,0.7224,0.7967,0.7675c0.276,0.0234,2.2603,0.219,5.0103,0.219h0.0995c2.75,0,4.7343,-0.1957,5.0103,-0.219c0.533,-0.0451,0.6522,-0.1952,0.7967,-0.7675c0.1829,-0.7245,0.2304,-1.8217,0.0162,-2.4702c-0.1168,-0.3539,-0.3499,-0.7557,-0.3773,-0.8137c0.1058,-0.0304,0.2176,-0.0635,0.3278,-0.0992C14.379,9.3447,14.4051,9.0262,14.3305,8.7901z" fill="#FFFFFF" opacity="0.5"/>
    <path d="M12.4316,8.3946c-0.1202,-0.3745,-0.213,-0.7066,-0.2949,-0.9996c-0.2568,-0.9192,-0.3767,-1.301,-0.7708,-1.5218c-0.5426,-0.304,-1.738,-0.3663,-3.3659,-0.3663c-1.6153,0,-2.801,0.0611,-3.3371,0.3596c-0.3855,0.2146,-0.5009,0.5875,-0.7475,1.4852c-0.0836,0.3046,-0.1785,0.65,-0.3046,1.0429l-0.9521,-0.3056c0.1196,-0.3728,0.2115,-0.7072,0.2925,-1.0022c0.2658,-0.9676,0.4578,-1.6667,1.2253,-2.094C4.829,4.6295,5.7938,4.5069,8,4.5069c2.2229,0,3.1955,0.1246,3.8546,0.4939c0.7724,0.4327,0.9707,1.1426,1.2452,2.1251c0.0794,0.2844,0.1695,0.6067,0.2839,0.9631L12.4316,8.3946z" fill="#6D6E71"/>
    <path d="M8.0572,14.3916h-0.0995c-1.1791,0,-2.9992,-0.0371,-4.9747,-0.214l-0.0778,-0.0069c-0.8484,-0.0717,-1.0984,-0.4802,-1.2436,-1.1615c-0.1833,-0.8603,-0.1895,-1.7575,-0.0186,-2.6668c0.029,-0.1539,0.0829,-0.3052,0.1437,-0.4417c-0.6198,-0.3015,-0.7145,-0.8331,-0.5791,-1.2613c0.0771,-0.2436,0.3789,-1.0382,1.0289,-1.0382c0.1534,0,0.3138,0.0295,0.4769,0.0878c1.1036,0.3938,2.3243,0.4272,3.5048,0.4596c0.41,0.0112,1.2727,0.0163,1.7544,0.0163h0.0697c0.4817,0,1.3444,-0.005,1.7543,-0.0163c1.1806,-0.0324,2.4013,-0.0659,3.5051,-0.4597c0.1629,-0.0582,0.3233,-0.0877,0.4766,-0.0877c0.65,0,0.9519,0.7947,1.0289,1.0382c0.1369,0.4326,0.0388,0.9707,-0.5982,1.2705c0.0533,0.1177,0.1054,0.2443,0.1463,0.3682c0.256,0.7752,0.1906,1.97,-0.0063,2.7494c-0.1777,0.7038,-0.4182,1.0739,-1.2394,1.1433l-0.0777,0.0068C11.0563,14.3544,9.2362,14.3916,8.0572,14.3916zM2.156,8.9599c0.0231,0.0189,0.0785,0.053,0.1819,0.0864c0.1049,0.034,0.2115,0.0654,0.3123,0.0944l0.5652,0.1627l-0.2517,0.5317c-0.0176,0.0373,-0.0375,0.0691,-0.0677,0.1174c-0.0634,0.1016,-0.2319,0.3713,-0.2701,0.5746c-0.1484,0.7895,-0.1439,1.5332,0.0138,2.2737c0.0566,0.2658,0.0973,0.3212,0.1049,0.3296c0.0014,0.0002,0.0476,0.0271,0.245,0.0438l0.0826,0.0073c1.9388,0.1735,3.7269,0.21,4.8855,0.21h0.0995c1.1586,0,2.9468,-0.0364,4.8855,-0.21l0.0826,-0.0073c0.1865,-0.0158,0.2313,-0.041,0.2357,-0.0438c0.0102,-0.0119,0.0497,-0.0759,0.1184,-0.3479c0.1792,-0.7094,0.1909,-1.6922,0.0262,-2.191c-0.0815,-0.2469,-0.2407,-0.5424,-0.3086,-0.6686c-0.0231,-0.0428,-0.039,-0.0734,-0.0458,-0.0878l-0.2517,-0.5317l0.5652,-0.1627c0.1008,-0.029,0.2073,-0.0604,0.3122,-0.0944c0.1035,-0.0334,0.1588,-0.0675,0.1819,-0.0864c-0.0011,-0.005,-0.0027,-0.0113,-0.0051,-0.0189c-0.0448,-0.1416,-0.1094,-0.2633,-0.1563,-0.3285c-0.0176,0.0043,-0.0374,0.0103,-0.0596,0.0182c-1.2537,0.4473,-2.5552,0.483,-3.8138,0.5175c-0.4195,0.0115,-1.2945,0.0167,-1.7818,0.0167h-0.0697c-0.4874,0,-1.3624,-0.0052,-1.7816,-0.0167c-1.2588,-0.0345,-2.5603,-0.0702,-3.8138,-0.5175c-0.0223,-0.008,-0.0422,-0.0139,-0.0598,-0.0182c-0.0469,0.0652,-0.1115,0.1869,-0.1563,0.3285C2.1587,8.9485,2.1571,8.9548,2.156,8.9599z" fill="#6D6E71"/>
    <path d="M11.2669,12.502c-0.7847,0,-1.2721,-0.3249,-1.2721,-0.8479c0,-0.6037,1.1313,-1.1934,1.788,-1.1934c0.2421,0,0.4181,0.0589,0.538,0.18c0.1838,0.1856,0.1813,0.452,0.1785,0.734c-0.0003,0.0349,-0.0007,0.0705,-0.0007,0.1066C12.4986,12.0441,11.9461,12.502,11.2669,12.502zM4.7331,12.502c-0.6792,0,-1.2317,-0.4579,-1.2317,-1.0206c0,-0.0361,-0.0003,-0.0717,-0.0007,-0.1066c-0.0028,-0.282,-0.0054,-0.5483,0.1785,-0.734c0.1199,-0.1211,0.2959,-0.18,0.538,-0.18c0.6567,0,1.788,0.5897,1.788,1.1934C6.0052,12.1771,5.5177,12.502,4.7331,12.502z" fill="#EEAC55"/>
    <rect x="7.4986" y="3.5069" width="1" height="1.5" fill="#6D6E71"/>
    <circle cx="7.9986" cy="2.507" r="1" fill="#FFFFFF"/>
    <path d="M1.0064,5.9919C-0.3671,4.082,-0.3323,1.8396,1.0993,-0.0064l0.7902,0.6128C0.7274,2.1049,0.7014,3.855,1.8183,5.4081L1.0064,5.9919zM2.7562,5.103c-1.0155,-1.3119,-1,-2.8535,0.0414,-4.124l0.7733,0.634c-0.736,0.8979,-0.7447,1.9468,-0.024,2.8779L2.7562,5.103zM14.9738,5.9919l-0.8119,-0.5838c1.1168,-1.5531,1.0909,-3.3032,-0.0713,-4.8017l0.7902,-0.6128C16.3125,1.8396,16.3473,4.0819,14.9738,5.9919zM13.224,5.103l-0.7907,-0.6121c0.7208,-0.9311,0.712,-1.98,-0.024,-2.8779l0.7733,-0.634C14.224,2.2495,14.2395,3.7912,13.224,5.103zM7.9986,4.0069c-0.8271,0,-1.5,-0.6729,-1.5,-1.5s0.6729,-1.5,1.5,-1.5s1.5,0.6729,1.5,1.5S8.8257,4.0069,7.9986,4.0069zM7.9986,2.0069c-0.2757,0,-0.5,0.2243,-0.5,0.5s0.2243,0.5,0.5,0.5s0.5,-0.2243,0.5,-0.5S8.2743,2.0069,7.9986,2.0069z" fill="#6485C3"/>
  </g>
</svg>
