<?xml version="1.0" encoding="UTF-8"?>
<!DOCTYPE svg PUBLIC "-//W3C//DTD SVG 1.1//EN" "http://www.w3.org/Graphics/SVG/1.1/DTD/svg11.dtd">
<svg version="1.1" id="Layer_1" xmlns="http://www.w3.org/2000/svg" xmlns:xlink="http://www.w3.org/1999/xlink" x="0px" y="0px" width="16px" height="16px" viewBox="0 0 16 16" enable-background="new 0 0 16 16" xml:space="preserve">
  <g id="icon">
    <path d="M9.5313,13H5.981v1h3.5503c0.2323,1.1397,1.2424,2,2.4497,2c1.3785,0,2.5,-1.1215,2.5,-2.5s-1.1215,-2.5,-2.5,-2.5C10.7736,11,9.7635,11.8603,9.5313,13zM4.981,14h-2v-1h2V14zM1.981,13v1h-2v-1H1.981z" fill="#6D6E71"/>
    <ellipse cx="12.0158" cy="3.975" rx="1.9921" ry="1.9875" fill="#FFFFFF" opacity="0.5"/>
    <path d="M7.981,3.9795c0,0.8431,0.2642,1.625,0.7148,2.2685C9.4199,7.2821,11.9905,10.6,11.9905,10.6s2.5536,-3.3084,3.2794,-4.3302c0.46,-0.6476,0.7302,-1.4376,0.7302,-2.2903C16,1.7817,14.2049,0,11.9905,0S7.981,1.7817,7.981,3.9795zM10.3557,3.9932c0,-0.8992,0.7319,-1.6281,1.6348,-1.6281s1.6348,0.7289,1.6348,1.6281s-0.7319,1.6281,-1.6348,1.6281S10.3557,4.8924,10.3557,3.9932z" fill="#CB525D"/>
  </g>
</svg>
