<?xml version="1.0" encoding="UTF-8"?>
<!DOCTYPE svg PUBLIC "-//W3C//DTD SVG 1.1//EN" "http://www.w3.org/Graphics/SVG/1.1/DTD/svg11.dtd">
<svg version="1.1" id="Layer_1" xmlns="http://www.w3.org/2000/svg" xmlns:xlink="http://www.w3.org/1999/xlink" x="0px" y="0px" width="16px" height="16px" viewBox="0 0 16 16" enable-background="new 0 0 16 16" xml:space="preserve">
  <g id="icon">
    <path d="M15.4705,15.323c-0.082,-1.1176,-0.428,-2.1241,-1.0284,-2.9917c-0.7233,-1.0453,-2.0871,-2.4873,-3.5041,-3.0646c0,0,-0.4197,-0.457,-0.6666,-0.5999c-0.6378,0.6824,-1.4933,1.2665,-2.2516,1.2665c-0.7626,0,-1.641,-0.6433,-2.2813,-1.3332c-0.2407,0.1382,-0.5999,0.5333,-0.5999,0.5333c-3.4137,1.4048,-4.4888,4.7402,-4.5991,6.1892l-0.0109,0.1435H15.481L15.4705,15.323z" fill="#FFFFFF" opacity="0.5"/>
    <path d="M11.5175,4.273c0,2.4251,-1.566,5.1865,-3.4977,5.1865S4.522,6.6981,4.522,4.273S6.088,0.5422,8.0198,0.5422S11.5175,1.8479,11.5175,4.273z" fill="#FFFFFF" opacity="0.5"/>
    <path d="M15.9696,15.3098c-0.1134,-1.4408,-0.7961,-4.01,-4.0275,-5.5075l-0.9375,-0.8022c0,0,-2.5429,2.8701,-2.9992,3.5607c-0.4564,-0.6906,-2.9335,-3.6274,-2.9335,-3.6274l-1.0278,0.8894C0.8502,11.3232,0.1728,13.8755,0.06,15.3098l-0.0338,0.4301c-0.011,0.1401,0.1042,0.2596,0.2503,0.2596h15.4767c0.1461,0,0.2613,-0.1195,0.2503,-0.2596L15.9696,15.3098z" fill="#52B250"/>
    <path d="M8.0047,3.1642c0.7691,0,1.9809,0.4146,2.8666,1.1783c-0.0239,-0.0008,-0.0482,-0.0028,-0.0732,-0.0068c-0.0132,0.0327,-0.0263,0.0657,-0.0387,0.0992c-0.5502,1.4323,-1.2765,0.0807,-2.7521,0.0605c-0.0129,0,-0.0248,-0.0014,-0.0373,-0.002c-0.0126,0.0006,-0.0248,0.002,-0.0377,0.002c-1.4756,0.0202,-2.2019,1.3718,-2.7521,-0.0605c-0.0124,-0.0334,-0.0239,-0.0656,-0.0354,-0.0978C6.0298,3.5769,7.2375,3.1642,8.0047,3.1642z" fill="#52B250"/>
    <path d="M10.8666,1.1124C10.1464,0.3962,9.1354,0.0017,8.0198,0.0017S5.8931,0.3962,5.173,1.1124C4.3983,1.883,3.9888,2.9759,3.9888,4.273c0,1.2862,0.4149,2.7052,1.1098,3.7959C5.8919,9.3142,6.9293,10,8.0198,10s2.1279,-0.6858,2.9213,-1.9311c0.6949,-1.0907,1.1098,-2.5097,1.1098,-3.7959C12.0508,2.9759,11.6413,1.883,10.8666,1.1124zM8.0198,8.919c-1.5965,0,-2.9644,-2.5546,-2.9644,-4.646c0,-0.1415,0.0505,-0.556,0.1073,-0.6156c0.7457,-0.8172,1.97,-1.2053,2.8287,-1.2053c0.8587,0,2.1343,0.3881,2.88,1.2053c0.0643,0.0837,0.1129,0.465,0.1129,0.6156C10.9842,6.3644,9.6163,8.919,8.0198,8.919z" fill="#52B250"/>
  </g>
</svg>
