<?xml version="1.0" encoding="UTF-8"?>
<!DOCTYPE svg PUBLIC "-//W3C//DTD SVG 1.1//EN" "http://www.w3.org/Graphics/SVG/1.1/DTD/svg11.dtd">
<svg version="1.1" id="Layer_1" xmlns="http://www.w3.org/2000/svg" xmlns:xlink="http://www.w3.org/1999/xlink" x="0px" y="0px" width="16px" height="16px" viewBox="0 0 16 16" enable-background="new 0 0 16 16" xml:space="preserve">
  <g id="icon">
    <rect x="1" y="4" width="14" height="11" fill="#FFFFFF" opacity="0.4"/>
    <path d="M0,1v3h16V1H0z" fill="#6485C3"/>
    <polygon points="15,4 15,15 1,15 1,4 0,4 0,16 16,16 16,4" fill="#6D6E71" stroke-linejoin="miter"/>
    <path d="M9,8H4V7h5V8zM12,11H6v1h6V11z" fill="#CB525D"/>
    <path d="M10,6H2V5h8V6zM13,9H4v1h9V9zM14,13H8v1h6V13z" fill="#6485C3"/>
  </g>
</svg>
