<?xml version="1.0" encoding="UTF-8"?>
<!DOCTYPE svg PUBLIC "-//W3C//DTD SVG 1.1//EN" "http://www.w3.org/Graphics/SVG/1.1/DTD/svg11.dtd">
<svg version="1.1" id="Layer_1" xmlns="http://www.w3.org/2000/svg" xmlns:xlink="http://www.w3.org/1999/xlink" x="0px" y="0px" width="16px" height="16px" viewBox="0 0 16 16" enable-background="new 0 0 16 16" xml:space="preserve">
  <g id="icon">
    <path d="M2,14.5h3v0.5167c0,0.5422,-0.4411,0.9833,-0.9833,0.9833H2.9833c-0.5422,0,-0.9833,-0.4411,-0.9833,-0.9833V14.5zM11,14.5v0.5167c0,0.5422,0.4411,0.9833,0.9833,0.9833h1.0333c0.5422,0,0.9833,-0.4411,0.9833,-0.9833V14.5H11z" fill="#6D6E71"/>
    <path d="M14.2,6h-0.7V5h0.5V3h-0.5V2h0.7c0.4411,0,0.8,0.3589,0.8,0.8v2.4C15,5.6411,14.6411,6,14.2,6zM2.5,6h-0.7c-0.4411,0,-0.8,-0.3589,-0.8,-0.8V2.8c0,-0.4411,0.3589,-0.8,0.8,-0.8h0.7v1h-0.5v2h0.5V6z" fill="#6D6E71"/>
    <path d="M9,13v1H7v-1v-2.4V9.4091l0.9851,-0.332L9,9.4116V10.6V13zM15,7.9363v5.072c0,0.5468,-0.4449,0.9917,-0.9917,0.9917H10V8.6884l-2.0184,-0.6654L6,8.6909V14H1.9917c-0.5468,0,-0.9917,-0.4449,-0.9917,-0.9917V7.9315l1,-0.4667V0.9917C2,0.4449,2.4449,0,2.9917,0h10.0167C13.5551,0,14,0.4449,14,0.9917V7.453L15,7.9363zM5,10.5c0,-0.8271,-0.6729,-1.5,-1.5,-1.5s-1.5,0.6729,-1.5,1.5s0.6729,1.5,1.5,1.5S5,11.3271,5,10.5zM13,7V2H3v5H13zM14,10.5c0,-0.8271,-0.6729,-1.5,-1.5,-1.5s-1.5,0.6729,-1.5,1.5s0.6729,1.5,1.5,1.5S14,11.3271,14,10.5z" fill="#6D6E71"/>
    <path d="M5,10.5c0,0.8271,-0.6729,1.5,-1.5,1.5s-1.5,-0.6729,-1.5,-1.5s0.6729,-1.5,1.5,-1.5S5,9.6729,5,10.5zM12.5,9c-0.8271,0,-1.5,0.6729,-1.5,1.5s0.6729,1.5,1.5,1.5s1.5,-0.6729,1.5,-1.5S13.3271,9,12.5,9z" fill="#FFFFFF" opacity="0.5"/>
    <path d="M13,7H3V2h10V7zM4,6h8V3H4V6z" fill="#FFFFFF" opacity="0.5"/>
    <polygon points="7.9816,8.0229 6,8.6909 6,14 7,14 7,13 7,10.6 7,9.4091 7.9851,9.0771 9,9.4116 9,10.6 9,13 9,14 10,14 10,8.6884" fill="#FFFFFF" stroke-linejoin="miter" opacity="0.5"/>
    <rect x="4" y="3" width="8" height="3" fill="#6485C3"/>
  </g>
</svg>
