<?xml version="1.0" encoding="UTF-8"?>
<!DOCTYPE svg PUBLIC "-//W3C//DTD SVG 1.1//EN" "http://www.w3.org/Graphics/SVG/1.1/DTD/svg11.dtd">
<svg version="1.1" id="Layer_1" xmlns="http://www.w3.org/2000/svg" xmlns:xlink="http://www.w3.org/1999/xlink" x="0px" y="0px" width="24px" height="24px" viewBox="0 0 24 24" enable-background="new 0 0 24 24" xml:space="preserve">
  <g id="icon">
    <rect x="11" y="6.7385" width="2" height="17.25" fill="#7B7B7B"/>
    <path d="M11,19.6385v-0.25c0,-1.6804,-1.2625,-2.9,-3.0018,-2.9H7.25v-2h0.7482c2.8515,0,5.0018,2.1065,5.0018,4.9v0.25H11z" fill="#7B7B7B"/>
    <path d="M11,19.6385v-0.25c0,-2.7935,2.1503,-4.9,5.0018,-4.9h0.7482v2h-0.7482c-1.7394,0,-3.0018,1.2196,-3.0018,2.9v0.25H11z" fill="#7B7B7B"/>
    <path d="M16.75,11.4628l5.8208,4.0247L16.75,19.3802V11.4628zM1.4292,15.4875L7.25,11.4628v7.9174L1.4292,15.4875zM8.0661,7.2385l3.8927,-5.8208l4.0247,5.8208H8.0661z" fill="#FFFFFF" opacity="0.5"/>
    <path d="M16,10.0593l7.9359,5.4386L16,20.7583V10.0593zM18,17.0835l2.2955,-1.6135L18,13.8019V17.0835zM0.0641,15.4979L8,10.0593v10.6989L0.0641,15.4979zM6,17.0835v-3.2816l-2.2955,1.6682L6,17.0835zM6.688,7.9885l5.2603,-7.9359l5.4386,7.9359H6.688zM13.6444,5.9885L11.9762,3.693l-1.6135,2.2955H13.6444z" fill="#6485C3"/>
  </g>
</svg>
