<?xml version="1.0" encoding="UTF-8"?>
<!DOCTYPE svg PUBLIC "-//W3C//DTD SVG 1.1//EN" "http://www.w3.org/Graphics/SVG/1.1/DTD/svg11.dtd">
<svg version="1.1" id="Layer_1" xmlns="http://www.w3.org/2000/svg" xmlns:xlink="http://www.w3.org/1999/xlink" x="0px" y="0px" width="24px" height="24px" viewBox="0 0 24 24" enable-background="new 0 0 24 24" xml:space="preserve">
  <g id="icon">
    <rect x="1.75" y="0.75" width="19.5" height="22.5" fill="#FFFFFF" opacity="0.5"/>
    <path d="M22,24H1V0h21V24zM3,22h17V2H3V22z" fill="#7B7B7B"/>
    <rect x="6" y="8" width="11" height="1" fill="#6485C3"/>
    <path d="M10,13H5v-1h5V13zM10,14H5v1h5V14zM10,16H5v1h5V16zM10,18H5v1h5V18z" fill="#6D6E71"/>
    <rect x="5" y="4" width="13" height="2" fill="#6485C3"/>
    <path d="M16.4885,20.9138c-0.5356,0,-1.037,-0.0929,-1.4902,-0.276c-0.4645,-0.1876,-0.8747,-0.4679,-1.2189,-0.8331c-0.3363,-0.3568,-0.6083,-0.799,-0.8084,-1.3144c-0.0662,-0.1703,-0.1222,-0.3316,-0.1695,-0.4903H11.35v-1.5h1.2216c-0.005,-0.1556,-0.0073,-0.32,-0.0073,-0.4449c0,-0.1239,0.0023,-0.3457,0.0069,-0.4653l0.0028,-0.0814c0.0001,-0.0028,0.0002,-0.0056,0.0003,-0.0083H11.65v-1.5h1.1394c0.0576,-0.2035,0.1274,-0.3028,0.2105,-0.5021c0.2073,-0.4975,0.482,-0.9259,0.8164,-1.2735c0.3445,-0.3579,0.7534,-0.6321,1.2155,-0.8149c0.4496,-0.1779,0.9483,-0.2681,1.482,-0.2681c0.319,0,0.6148,0.0283,0.8791,0.0841c0.2581,0.0546,0.492,0.1248,0.6954,0.209c0.2087,0.0865,0.394,0.1845,0.5512,0.2916c0.1403,0.0957,0.2568,0.1838,0.3568,0.27c0.0927,0.0799,0.166,0.1467,0.2208,0.2003l-1.0487,1.0726c-0.0376,-0.0368,-0.0881,-0.082,-0.1512,-0.1365c-0.0558,-0.048,-0.1309,-0.1043,-0.2226,-0.1669c-0.0721,-0.0491,-0.1666,-0.098,-0.2802,-0.1451c-0.1182,-0.0489,-0.2637,-0.0918,-0.4317,-0.1273c-0.1624,-0.0343,-0.354,-0.0517,-0.5692,-0.0517c-0.344,0,-0.657,0.0548,-0.9302,0.1629c-0.2647,0.1047,-0.4893,0.2552,-0.6865,0.4602c-0.2047,0.2128,-0.3772,0.3854,-0.5126,0.7104c-0.0034,0.0083,-0.007,0.0168,-0.0104,0.0251h2.976v1.5h-3.2749c-0.0007,0.0204,-0.0014,0.0404,-0.002,0.0591l-0.0031,0.0875c-0.004,0.1017,-0.0058,0.3043,-0.0058,0.4086c0,0.126,0.0028,0.2979,0.0082,0.4449h3.1274v1.5h-2.8097c0.1269,0.3111,0.2884,0.5718,0.4806,0.7757c0.1976,0.2095,0.4231,0.3638,0.6894,0.4714c0.2738,0.1106,0.5861,0.1667,0.9283,0.1667c0.2305,0,0.4319,-0.02,0.5988,-0.0595c0.1736,-0.0409,0.3248,-0.0914,0.4499,-0.1499c0.1208,-0.0567,0.2216,-0.116,0.2993,-0.1762c0.103,-0.0799,0.19,-0.153,0.2586,-0.2173c0.073,-0.0683,0.1309,-0.1248,0.1734,-0.1697l1.0881,1.0326c-0.0582,0.0613,-0.1367,0.1389,-0.2361,0.2319c-0.1037,0.0972,-0.2231,0.198,-0.3647,0.3078c-0.1649,0.1279,-0.3608,0.2454,-0.5821,0.3491c-0.2186,0.1024,-0.4679,0.187,-0.7413,0.2515C17.1529,20.8802,16.8352,20.9138,16.4885,20.9138z" fill="#EEAC55"/>
  </g>
</svg>
