<?xml version="1.0" encoding="UTF-8"?>
<!DOCTYPE svg PUBLIC "-//W3C//DTD SVG 1.1//EN" "http://www.w3.org/Graphics/SVG/1.1/DTD/svg11.dtd">
<svg version="1.1" id="Layer_1" xmlns="http://www.w3.org/2000/svg" xmlns:xlink="http://www.w3.org/1999/xlink" x="0px" y="0px" width="24px" height="24px" viewBox="0 0 24 24" enable-background="new 0 0 24 24" xml:space="preserve">
  <g id="icon">
    <path d="M12.8176,23.9159c-0.9992,0,-2.0705,-0.2649,-3.2751,-0.81c-0.3175,-0.1436,-0.6093,-0.2739,-0.8819,-0.3958c-1.4008,-0.6258,-2.3263,-1.0391,-3.6596,-1.8916c-0.771,-0.4929,-1.4962,-1.0229,-2.1974,-1.5356c-0.6777,-0.4953,-1.3784,-1.0075,-2.1175,-1.4837L0.67,17.7888c-0.0759,-0.0485,-0.1704,-0.109,-0.2247,-0.2058c-0.026,-0.0463,-0.0809,-0.0837,-0.1444,-0.1271c-0.1625,-0.1109,-0.408,-0.2785,-0.2499,-0.7459c0.1089,-0.3222,0.3343,-0.4925,0.6517,-0.4925c0.1323,0,0.259,0.0282,0.3608,0.0509l0.0538,0.0118c0.5628,0.1189,1.1074,0.3354,1.6341,0.5447c0.0891,0.0354,0.1782,0.0708,0.2672,0.1057c0.4166,0.1632,0.6575,0.3259,0.9126,0.4981c0.1901,0.1284,0.3867,0.2611,0.675,0.4046c0.3194,0.1589,0.6291,0.669,0.7379,0.9636c0.1904,0.5157,1.0233,1.0843,1.6504,1.1267l-0.0017,0.0262c0.5057,0.0894,3.1601,0.3905,5.7816,0.3905c0.0002,0,0.0005,0,0.0007,0c0.4809,0,0.9427,-0.0101,1.3726,-0.0301c0.2727,-0.0126,0.5907,-0.1319,0.8102,-0.3038c0.0683,-0.0535,0.1331,-0.3481,0.0937,-0.4259c-0.1548,-0.1893,-0.4424,-0.3997,-0.6858,-0.4255c-0.237,-0.0252,-0.5002,-0.0375,-0.8045,-0.0375c-0.1989,0,-0.383,0.0051,-0.5455,0.0096c-0.1225,0.0034,-0.2304,0.0063,-0.3188,0.0064c-0.379,0.0199,-0.7689,0.0296,-1.1918,0.0296c-0.4595,0,-0.8954,-0.0113,-1.3171,-0.0222c-0.4005,-0.0104,-0.7788,-0.0201,-1.1577,-0.0201c-0.1828,0,-0.3502,0.0023,-0.5117,0.0069c-0.0505,0.0015,-0.1014,0.0022,-0.1525,0.0022c-0.4538,0,-0.892,-0.0604,-1.2672,-0.1748c-0.4246,-0.1295,-0.974,-0.3898,-0.8439,-1.1528c0.1015,-0.5954,0.5636,-0.9569,1.2678,-0.9919c0.5204,-0.0259,1.041,-0.0501,1.5615,-0.0743c1.3937,-0.0649,2.8348,-0.132,4.249,-0.2305c0.8207,-0.0571,1.6515,-0.2104,2.5012,-0.3759c0.3719,-0.0724,0.7452,-0.1092,1.1093,-0.1092c1.2431,0,2.4319,0.4123,3.6344,1.2603c1.0363,0.7309,2.045,1.4783,2.9807,2.177c0.563,0.4205,0.5458,0.6209,0.1791,1.1946c-0.288,0.4504,-0.5751,0.8365,-0.8528,1.21c-0.3347,0.4501,-0.6508,0.8753,-0.9683,1.4037c-0.051,0.0848,-0.206,0.3429,-0.474,0.3429c-0.1012,0,-0.2064,-0.0376,-0.3127,-0.1119c-0.5373,-0.3748,-1.1179,-0.5495,-1.827,-0.5495c-0.5253,0,-1.0623,0.0943,-1.7071,0.2361c-0.9069,0.1992,-2.0123,0.3685,-2.9004,0.5044c-0.3638,0.0557,-0.6779,0.1038,-0.9312,0.1466C13.4428,23.8894,13.133,23.9159,12.8176,23.9159z" fill="#6485C3"/>
    <g>
      <path d="M18,5v9.904c0.8048,0.1274,1.59,0.4036,2.369,0.8322l1.631,-1.564V0.7071l-4,4V5z" fill="#EEAC55"/>
      <path d="M3.1946,15.7098c0.0875,0.0348,0.1746,0.0693,0.2616,0.1035c0.5401,0.2116,0.8621,0.4289,1.146,0.6206c0.173,0.1167,0.3216,0.2171,0.5385,0.325c0.0631,0.0314,0.1244,0.0667,0.1835,0.1052c0.3978,-0.7337,1.1747,-1.2042,2.1392,-1.2521c0.5217,-0.0259,1.0434,-0.0502,1.5652,-0.0745c1.3916,-0.0648,2.8233,-0.1315,4.2214,-0.2289c0.7527,-0.0524,1.5436,-0.1986,2.3552,-0.3566c0.4472,-0.0871,0.8977,-0.1313,1.3387,-0.1313c0.0187,0,0.0372,0.001,0.0559,0.0011V5H2v10.2733C2.4234,15.4042,2.8259,15.5632,3.1946,15.7098z" fill="#EEAC55"/>
      <polygon points="17.2929,4 21.2929,0 7.3163,0 3.0483,4 17,4" fill="#EEAC55" stroke-linejoin="miter"/>
    </g>
    <path d="M17,14.8218c0.3372,0.0027,0.6703,0.03,1,0.0822V5v-0.2929l3.9982,-3.9982L22,0.7l-0.7,-0.6l-0.1326,0.0255L17.2929,4H17H3.0483l0.0125,-0.0117L3,4L2,5h15V14.8218z" fill="#FFFFFF" opacity="0.5"/>
    <path d="M12,10H8V5.0393L12.4393,0h3.8177L12,5.0143V10z" fill="#7B7B7B"/>
  </g>
</svg>
