<?xml version="1.0" encoding="UTF-8"?>
<!DOCTYPE svg PUBLIC "-//W3C//DTD SVG 1.1//EN" "http://www.w3.org/Graphics/SVG/1.1/DTD/svg11.dtd">
<svg version="1.1" id="Layer_1" xmlns="http://www.w3.org/2000/svg" xmlns:xlink="http://www.w3.org/1999/xlink" x="0px" y="0px" width="24px" height="24px" viewBox="0 0 24 24" enable-background="new 0 0 24 24" xml:space="preserve">
  <g id="icon">
    <path d="M12.0381,1c-4.5629,0,-8.2619,3.6642,-8.2619,8.1843c0,1.7535,0.5567,3.3782,1.5045,4.7102C6.7761,15.9959,12.0381,22.8,12.0381,22.8s5.2969,-6.8236,6.789,-8.9503C19.7557,12.5262,20.3,10.9182,20.3,9.1843C20.3,4.6642,16.601,1,12.0381,1zM12,12.5c-1.933,0,-3.5,-1.567,-3.5,-3.5s1.567,-3.5,3.5,-3.5s3.5,1.567,3.5,3.5S13.933,12.5,12,12.5z" fill="#FFFFFF" opacity="0.5"/>
    <path d="M12,13c-2.2056,0,-4,-1.7944,-4,-4c0,-2.2056,1.7944,-4,4,-4s4,1.7944,4,4C16,11.2056,14.2056,13,12,13zM12,6.0394c-1.6355,0,-2.9661,1.3281,-2.9661,2.9606s1.3306,2.9606,2.9661,2.9606s2.966,-1.3281,2.966,-2.9606S13.6355,6.0394,12,6.0394z" fill="#52B250"/>
    <path d="M11.2314,22.9971c-0.0511,-0.0668,-5.1329,-6.7102,-6.5894,-8.7792C3.5678,12.692,3,10.8951,3,9.0216C3,4.0471,7.0374,0,12,0c4.9626,0,9,4.0471,9,9.0216c0,1.852,-0.5559,3.6317,-1.6075,5.147c-1.4414,2.0766,-6.4139,8.5551,-6.6249,8.8299L11.9986,24L11.2314,22.9971zM12,1.9646c-3.891,0,-7.0566,3.1658,-7.0566,7.057c0,1.4629,0.4433,2.8659,1.282,4.0573c1.0882,1.5458,4.3301,5.8137,5.7758,7.7108c1.4536,-1.9019,4.7155,-6.1866,5.8003,-7.7494c0.821,-1.183,1.255,-2.5726,1.255,-4.0187C19.0566,5.1304,15.891,1.9646,12,1.9646z" fill="#52B250"/>
  </g>
</svg>
