<?xml version="1.0" encoding="UTF-8"?>
<!DOCTYPE svg PUBLIC "-//W3C//DTD SVG 1.1//EN" "http://www.w3.org/Graphics/SVG/1.1/DTD/svg11.dtd">
<svg version="1.1" id="Layer_1" xmlns="http://www.w3.org/2000/svg" xmlns:xlink="http://www.w3.org/1999/xlink" x="0px" y="0px" width="24px" height="24px" viewBox="0 0 24 24" enable-background="new 0 0 24 24" xml:space="preserve">
  <g id="icon">
    <circle cx="11.981" cy="9" r="4.5" fill="#FFFFFF" opacity="0.5"/>
    <path d="M12.0381,0C7.036,0,2.981,4.034,2.981,9.0102c0,1.9305,0.6103,3.7191,1.6493,5.1855C6.2697,16.5093,12.0381,24,12.0381,24s5.8067,-7.5122,7.4424,-9.8535c1.018,-1.4571,1.6147,-3.2274,1.6147,-5.1363C21.0952,4.034,17.0402,0,12.0381,0zM12.0381,12.7275c-2.0395,0,-3.6929,-1.6504,-3.6929,-3.6864s1.6534,-3.6864,3.6929,-3.6864s3.6929,1.6504,3.6929,3.6864S14.0776,12.7275,12.0381,12.7275z" fill="#EEAC55"/>
  </g>
</svg>
