<?xml version="1.0" encoding="UTF-8"?>
<!DOCTYPE svg PUBLIC "-//W3C//DTD SVG 1.1//EN" "http://www.w3.org/Graphics/SVG/1.1/DTD/svg11.dtd">
<svg version="1.1" id="Layer_1" xmlns="http://www.w3.org/2000/svg" xmlns:xlink="http://www.w3.org/1999/xlink" x="0px" y="0px" width="24px" height="24px" viewBox="0 0 24 24" enable-background="new 0 0 24 24" xml:space="preserve">
  <g id="icon">
    <rect x="0.7" y="1.7" width="22.5" height="17.5" fill="#FFFFFF" opacity="0.5"/>
    <path d="M0,20V1h24v19H0zM22,18V3H2v15H22z" fill="#7B7B7B"/>
    <rect x="3" y="22" width="18" height="2" fill="#7B7B7B"/>
    <polygon points="11.4971,6.1499 7.4025,15.5291 10.783,14.6398 10.783,14.6411 11.5188,14.4404 12.1833,14.6352 12.1833,14.6298 15.5881,15.5129" fill="#FFFFFF" stroke-linejoin="miter" opacity="0.5"/>
    <path d="M11.4904,4.5l5.2045,11.9667l-3.8701,-1.0027v0.0216l-1.3027,-0.3717l-1.3952,0.3907l0.0002,-0.0151L6.3,16.5L11.4904,4.5zM8.5082,14.5592l2.1826,-0.5662l0.8268,-0.2263l0.5282,0.159l2.4332,0.6326l-2.9762,-6.7653L8.5082,14.5592z" fill="#6485C3"/>
  </g>
</svg>
