<?xml version="1.0" encoding="UTF-8"?>
<!DOCTYPE svg PUBLIC "-//W3C//DTD SVG 1.1//EN" "http://www.w3.org/Graphics/SVG/1.1/DTD/svg11.dtd">
<svg version="1.1" id="Layer_1" xmlns="http://www.w3.org/2000/svg" xmlns:xlink="http://www.w3.org/1999/xlink" x="0px" y="0px" width="24px" height="24px" viewBox="0 0 24 24" enable-background="new 0 0 24 24" xml:space="preserve">
  <g id="icon">
    <path d="M0.4816,23.9326l-0.4486,-1.4444c0.5413,-0.18,1.0533,-0.3646,1.5218,-0.5485l0.52,1.4185C1.5829,23.5513,1.0468,23.7446,0.4816,23.9326zM6.1104,21.0879l-0.9597,-1.1469c-0.5698,0.5107,-1.3762,1.011,-2.3967,1.487l0.6023,1.3832C4.5227,22.2671,5.4235,21.7034,6.1104,21.0879zM7.8112,17.3698c0,-0.2976,-0.0207,-0.621,-0.0632,-0.989l-1.4556,0.1803c0.0356,0.3075,0.0529,0.572,0.0529,0.8087c0,0.6773,-0.1376,1.2019,-0.4463,1.7012l1.2348,0.8177C7.5896,19.1514,7.8112,18.3275,7.8112,17.3698zM7.5451,14.9831c-0.0721,-0.4859,-0.1388,-1.0085,-0.1388,-1.5386c0,-0.4511,0.0485,-0.8607,0.1483,-1.2522l-1.4174,-0.387c-0.1325,0.5195,-0.1968,1.0558,-0.1968,1.6392c0,0.6318,0.0748,1.2234,0.1557,1.7688L7.5451,14.9831zM9.8111,8.9872l-0.9261,-1.176c-0.9729,0.8206,-1.6819,1.6492,-2.1674,2.5331l1.2744,0.7498C8.3862,10.3763,8.9813,9.6871,9.8111,8.9872zM12.2,7.3332l-0.7231,-1.3197c-0.5216,0.3061,-1.0101,0.6178,-1.4521,0.9264l0.8199,1.2577C11.2553,7.9109,11.7113,7.62,12.2,7.3332z" fill="#6485C3"/>
    <polygon points="8.7,1.262 11.8486,4.7088 11.8318,4.7175 13.0484,6.0106 13.4029,7.6485 13.427,7.6354 14.5423,12.2531 24,0" fill="#6485C3" stroke-linejoin="miter"/>
  </g>
</svg>
