<?xml version="1.0" encoding="UTF-8"?>
<!DOCTYPE svg PUBLIC "-//W3C//DTD SVG 1.1//EN" "http://www.w3.org/Graphics/SVG/1.1/DTD/svg11.dtd">
<svg version="1.1" id="Layer_1" xmlns="http://www.w3.org/2000/svg" xmlns:xlink="http://www.w3.org/1999/xlink" x="0px" y="0px" width="24px" height="24px" viewBox="0 0 24 24" enable-background="new 0 0 24 24" xml:space="preserve">
  <g id="icon">
    <path d="M4.4313,6.7132c0.0013,-0.0518,0.0024,-0.0896,0.0035,-0.0991c0.0175,-0.1482,0.0144,-0.2975,0.0359,-0.4458c0.0857,-0.5929,0.2651,-1.1868,0.5156,-1.7371c0.4968,-1.0917,1.2475,-2.0979,2.2573,-2.8304c1.0468,-0.7594,2.269,-1.2899,3.5828,-1.4837c1.337,-0.1972,2.7139,-0.0165,3.9753,0.4241c0.3066,0.1071,0.5948,0.2508,0.8804,0.3991c0.287,0.149,0.5639,0.3077,0.8243,0.4948c0.5217,0.375,1.0004,0.7977,1.4193,1.2736c0.2067,0.2349,0.3702,0.5005,0.5556,0.7497c0.1786,0.2402,0.3089,0.5064,0.44,0.7708c0.2784,0.5613,0.475,1.1645,0.5792,1.775c0.0275,0.1613,0.0456,0.3231,0.0597,0.4858c0.0021,0.0239,0.0035,0.1122,0.0049,0.2133c0.464,0.1946,0.7877,0.6286,0.7877,1.1339v2.4069c0,0.6868,-0.5969,1.2436,-1.3332,1.2436c-0.7363,0,-1.3332,-0.5568,-1.3332,-1.2436V7.8371c0,-0.4715,0.2814,-0.8816,0.696,-1.0925c-0.0035,-0.0845,-0.0064,-0.155,-0.0082,-0.1662c-0.012,-0.0753,-0.0203,-0.1512,-0.0306,-0.2268c-0.0845,-0.6184,-0.2662,-1.2086,-0.5394,-1.7774c-0.1302,-0.271,-0.3076,-0.5248,-0.4776,-0.7753c-0.1727,-0.2545,-0.3743,-0.4874,-0.5963,-0.7058c-0.4521,-0.4448,-0.9483,-0.8356,-1.5181,-1.1434c-0.5629,-0.3041,-1.1976,-0.5553,-1.8381,-0.6679c-0.3209,-0.0564,-0.6466,-0.1054,-0.9725,-0.1279c-0.3434,-0.0237,-0.6703,-0.0202,-1.0123,0.0186c-0.3253,0.0369,-0.6586,0.0614,-0.9747,0.1458c-0.313,0.0836,-0.6205,0.1699,-0.9186,0.2926c-0.6102,0.251,-1.1808,0.5697,-1.6841,0.9806c-0.9895,0.8079,-1.7256,1.8853,-2.0429,3.0802c-0.0796,0.2996,-0.1397,0.5977,-0.1622,0.906c-0.0031,0.0432,-0.0059,0.0864,-0.0092,0.1297c-0.0002,0.0021,-0.0003,0.0096,-0.0005,0.0195c0.4355,0.2046,0.735,0.6243,0.735,1.1102v2.4069c0,0.1446,-0.0278,0.2827,-0.0764,0.4118c0.0358,0.0339,0.0914,0.0559,0.1324,0.0763c0.2958,0.1469,0.5896,0.3066,0.906,0.4122c0.3052,0.1019,0.6182,0.1895,0.9327,0.2631c0.1583,0.0371,0.3184,0.0498,0.4793,0.0723c0.098,0.0137,0.3698,0.0463,0.5372,0.0525c0.1414,-0.1731,0.3641,-0.2853,0.6154,-0.2853h0.9462c0.4275,0,0.7741,0.3233,0.7741,0.7221s-0.3466,0.7221,-0.7741,0.7221h-0.9462c-0.3257,0,-0.6039,-0.1879,-0.7182,-0.4536c-0.0933,-0.0035,-0.1884,-0.0051,-0.2154,-0.0076c-0.168,-0.0156,-0.3363,-0.0317,-0.5031,-0.0563c-0.3168,-0.0466,-0.648,-0.1128,-0.9542,-0.2021c-0.318,-0.0927,-0.6437,-0.1932,-0.9435,-0.3297c-0.2548,-0.1161,-0.4937,-0.2587,-0.7337,-0.399c-0.2216,0.1531,-0.4949,0.2447,-0.7918,0.2447c-0.7363,0,-1.3332,-0.5568,-1.3332,-1.2436V7.8371C3.6658,7.3399,3.9793,6.9122,4.4313,6.7132z" fill="#6485C3"/>
    <path d="M22.2669,23.0422c-0.1128,-1.5276,-0.5885,-2.9034,-1.4141,-4.0892c-0.9945,-1.4287,-2.4868,-2.5533,-4.4353,-3.3425l-0.4624,-0.1612c0.0512,-0.1388,0.0794,-0.2488,0.0794,-0.3208c0,-0.0387,-0.7427,-0.6918,-1.0822,-0.8872c-0.877,0.9328,-1.8877,1.4339,-2.9304,1.4339c-1.0486,0,-2.0649,-0.5065,-2.9454,-1.4495c-0.331,0.1889,-1.1081,0.8588,-1.1081,0.9029c0,0.0555,0.0134,0.1282,0.0381,0.2146l-0.4694,0.1881c-4.6939,1.9202,-5.6492,5.5298,-5.8009,7.5104l-0.015,0.1961h20.5602L22.2669,23.0422z" fill="#FFFFFF" opacity="0.5"/>
    <path d="M22.9532,23.024c-0.1628,-2.0574,-1.1806,-5.798,-6.1556,-7.7932c0,0,-0.6879,-0.27,-0.7747,-0.2651l-0.4033,0.3942c-1.1926,1.1071,-2.3864,1.6736,-3.5573,1.682c-0.009,0.0001,-0.0177,0.0001,-0.0267,0.0001c-1.178,0,-2.394,-0.5633,-3.6235,-1.6725l-0.4201,-0.3986c-0.0821,0.0191,-0.7965,0.2751,-0.7965,0.2751c-4.9427,1.999,-5.956,5.7259,-6.1184,7.7781l-0.0465,0.5879c-0.0151,0.1915,0.1433,0.3548,0.3442,0.3548h21.2809c0.2009,0,0.3593,-0.1633,0.3442,-0.3548L22.9532,23.024z" fill="#6485C3"/>
    <path d="M12.022,2.8388c-2.6562,0,-4.8095,1.7846,-4.8095,5.0995c0,0.8103,0.1294,1.6479,0.3627,2.4513c0.0005,0.0002,0.001,0.0004,0.0015,0.0005c0.2722,0.0909,0.5596,0.1719,0.8541,0.2408c0.0669,0.0157,0.151,0.026,0.2484,0.038c0.0503,0.0062,0.1007,0.0124,0.1512,0.0195c0.031,0.0043,0.0756,0.01,0.1257,0.0158c0.2631,-0.1665,0.5748,-0.2572,0.9028,-0.2572h0.9462c0.894,0,1.6213,0.6828,1.6213,1.5221s-0.7273,1.5221,-1.6213,1.5221h-0.9462c-0.3138,0,-0.61,-0.0851,-0.8626,-0.2342c0.8265,1.0663,1.8789,1.7707,3.0257,1.7707c2.6562,0,4.8095,-3.7744,4.8095,-7.0893S14.6782,2.8388,12.022,2.8388z" fill="#FFFFFF" opacity="0.5"/>
    <path d="M16.8391,10.244V7.8371c0,-0.5221,0.2139,-1.0127,0.58,-1.3845c-0.2299,-1.1264,-0.7304,-2.0907,-1.4827,-2.8345C14.9462,2.6392,13.556,2.1,12.022,2.1c-1.534,0,-2.9242,0.5392,-3.9144,1.5182c-0.7564,0.7479,-1.2582,1.7188,-1.4864,2.8533c0.3543,0.3679,0.5583,0.8495,0.5583,1.3657v2.3852c0.1368,0.0662,0.269,0.125,0.3972,0.1678c0.2722,0.0909,0.5596,0.1719,0.8541,0.2408c0.0008,0.0002,0.0016,0.0003,0.0024,0.0005c-0.3094,-0.8779,-0.4874,-1.8153,-0.4874,-2.6932c0,-0.2966,0.0211,-0.5807,0.0602,-0.8528c1.2859,-1.0448,1.9411,-0.7583,2.6887,-0.4313c0.3815,0.1669,0.7761,0.3394,1.2445,0.3394c0.4615,0,0.8582,-0.1657,1.2418,-0.326c0.7662,-0.32,1.4931,-0.6229,2.8713,0.5207c0.03,0.2406,0.0458,0.4906,0.0458,0.75c0,2.8586,-1.8809,6.3505,-4.0762,6.3505c-0.6434,0,-1.2594,-0.3016,-1.8093,-0.7977h-0.3537c-0.4595,0,-0.8836,-0.179,-1.1837,-0.4809c-0.1274,-0.0127,-0.2543,-0.027,-0.3835,-0.046c-0.1488,-0.0219,-0.2921,-0.0475,-0.4322,-0.075c0.0477,0.0801,0.0958,0.1597,0.1457,0.2375c1.0909,1.7021,2.5175,2.6396,4.0168,2.6396c1.4994,0,2.9259,-0.9374,4.0168,-2.6396c0.4003,-0.6246,0.7319,-1.3284,0.9834,-2.0642C16.9048,10.8117,16.8391,10.535,16.8391,10.244z" fill="#6485C3"/>
  </g>
</svg>
