<?xml version="1.0" encoding="UTF-8"?>
<!DOCTYPE svg PUBLIC "-//W3C//DTD SVG 1.1//EN" "http://www.w3.org/Graphics/SVG/1.1/DTD/svg11.dtd">
<svg version="1.1" id="Layer_1" xmlns="http://www.w3.org/2000/svg" xmlns:xlink="http://www.w3.org/1999/xlink" x="0px" y="0px" width="24px" height="24px" viewBox="0 0 24 24" enable-background="new 0 0 24 24" xml:space="preserve">
  <g id="icon">
    <rect y="11" width="19.7" height="2" fill="#6485C3"/>
    <path d="M0.5089,11.0032l0.2493,-0.0008c3.0154,-0.0103,6.6043,-2.2541,8.8236,-4.4733l0.0378,-0.0378l3.0092,-3.1305l1.428,1.4004l-3.0574,3.1786c-2.9746,2.9747,-7.088,4.9782,-10.239,4.9889l-0.2507,0.0008L0.5089,11.0032z" fill="#6485C3"/>
    <path d="M8.6775,16.3604c-2.2505,-2.2486,-4.9131,-3.3938,-7.9143,-3.404l-0.2491,-0.0009v-1.9428l0.2508,0.0008c3.5917,0.0123,6.7311,1.3368,9.331,3.9369l0.0648,0.0659l4.1222,4.591l-1.4617,1.365L8.6775,16.3604z" fill="#6485C3"/>
    <polygon points="23.9653,12.1225 16.9295,8.3749 17.5517,11.3753 17.5517,12.6197 16.9295,15.735" fill="#6485C3" stroke-linejoin="miter"/>
    <polygon points="17.2827,0.1652 9.6577,2.4903 12.2192,4.1719 13.0991,5.0518 14.8621,7.6947" fill="#6485C3" stroke-linejoin="miter"/>
    <polygon points="17.2827,23.8947 9.6577,21.5696 12.2192,19.888 13.0991,19.0081 14.8621,16.3652" fill="#6485C3" stroke-linejoin="miter"/>
  </g>
</svg>
