<?xml version="1.0" encoding="UTF-8"?>
<!DOCTYPE svg PUBLIC "-//W3C//DTD SVG 1.1//EN" "http://www.w3.org/Graphics/SVG/1.1/DTD/svg11.dtd">
<svg version="1.1" id="Layer_1" xmlns="http://www.w3.org/2000/svg" xmlns:xlink="http://www.w3.org/1999/xlink" x="0px" y="0px" width="24px" height="24px" viewBox="0 0 24 24" enable-background="new 0 0 24 24" xml:space="preserve">
  <g id="icon">
    <path d="M5.3673,8.0063H4.3254l-0.5544,4.3759c-0.0211,0.347,-0.3132,0.6178,-0.6664,0.6178H0.1044l-0.0282,0.1188h0.1245c-0.0355,0.1525,-0.0695,0.3007,-0.1013,0.4416c-0.0223,0.0988,-0.06,0.2682,-0.082,0.4397h3.4886c0.695,0,1.2666,-0.5391,1.2964,-1.2226L5.3673,8.0063z" fill="#FFFFFF" opacity="0.5"/>
    <circle cx="4.6" cy="19.7" r="1.7" fill="#FFFFFF" opacity="0.5"/>
    <circle cx="19.6" cy="19.7" r="1.7" fill="#FFFFFF" opacity="0.5"/>
    <path d="M19.6111,22.8924c-1.7462,0,-3.1668,-1.414,-3.1668,-3.1521s1.4206,-3.1521,3.1668,-3.1521s3.1668,1.414,3.1668,3.1521S21.3572,22.8924,19.6111,22.8924zM19.6094,18.4727c-0.6965,0,-1.2631,0.5659,-1.2631,1.2616s0.5666,1.2616,1.2631,1.2616s1.2631,-0.5659,1.2631,-1.2616S20.3059,18.4727,19.6094,18.4727zM4.4991,22.8924c-1.758,0,-3.1882,-1.414,-3.1882,-3.1521s1.4302,-3.1521,3.1882,-3.1521s3.1882,1.414,3.1882,3.1521S6.2571,22.8924,4.4991,22.8924zM4.5142,18.4727c-0.7026,0,-1.2742,0.5659,-1.2742,1.2616s0.5716,1.2616,1.2742,1.2616s1.2742,-0.5659,1.2742,-1.2616S5.2168,18.4727,4.5142,18.4727z" fill="#7B7B7B"/>
    <path d="M8.6,15v4.0063l6.9267,-0.0145c0.2745,-1.999,1.995,-3.5444,4.0711,-3.5444c2.0812,0,3.8048,1.5528,4.073,3.5589H24V15H8.6zM4.8024,12.7774C4.7727,13.4609,4.2011,14,3.5061,14H0.0174C0.0072,14.08,0,14.1605,0,14.2345c0,1.7985,0,4.2704,0,4.2704c0,0.212,0.1629,0.385,0.3635,0.4604c0.2876,-1.9862,2.012,-3.5179,4.0905,-3.5179c1.5041,0,2.8228,0.8022,3.5459,1.998V9.0406c0,-0.5713,-0.4631,-1.0344,-1.0344,-1.0344H5.3673L4.8024,12.7774z" fill="#7B7B7B"/>
    <path d="M3.1046,13H0.1044l0.9123,-3.8463c0.099,-0.3409,0.3087,-0.6277,0.5837,-0.8279c0.223,-0.2267,0.534,-0.3195,0.7703,-0.3195h1.9548l-0.5544,4.3759C3.7498,12.7292,3.4578,13,3.1046,13z" fill="#6485C3"/>
  </g>
</svg>
