<?xml version="1.0" encoding="UTF-8"?>
<!DOCTYPE svg PUBLIC "-//W3C//DTD SVG 1.1//EN" "http://www.w3.org/Graphics/SVG/1.1/DTD/svg11.dtd">
<svg version="1.1" id="Layer_1" xmlns="http://www.w3.org/2000/svg" xmlns:xlink="http://www.w3.org/1999/xlink" x="0px" y="0px" width="24px" height="24px" viewBox="0 0 24 24" enable-background="new 0 0 24 24" xml:space="preserve">
  <g id="icon">
    <path d="M19.373,22.2c-2.1188,0,-3.8425,-1.7237,-3.8425,-3.8424s1.7238,-3.8425,3.8425,-3.8425s3.8424,1.7238,3.8424,3.8425S21.4918,22.2,19.373,22.2zM8.4652,18.3576c0,-2.1188,-1.7237,-3.8425,-3.8424,-3.8425S0.7803,16.2388,0.7803,18.3576S2.504,22.2,4.6228,22.2S8.4652,20.4763,8.4652,18.3576z" fill="#FFFFFF" opacity="0.5"/>
    <g>
      <path d="M19.3339,13.665c-0.7509,0,-1.4603,0.1804,-2.0894,0.4986l1.2556,1.3218c0.2647,-0.0779,0.5443,-0.1204,0.8337,-0.1204c1.6408,0,2.9757,1.3424,2.9757,2.9925c0,1.65,-1.3349,2.9924,-2.9757,2.9924c-1.6409,0,-2.9758,-1.3424,-2.9758,-2.9924c0,-0.3578,0.063,-0.701,0.178,-1.0193l-1.2481,-1.3139c-0.3938,0.6878,-0.6203,1.4842,-0.6203,2.3332c0,2.5874,2.0933,4.6924,4.6662,4.6924c2.5729,0,4.6661,-2.105,4.6661,-4.6924C24,15.7701,21.9068,13.665,19.3339,13.665z" fill="#6485C3"/>
      <path d="M7.2225,14.4348l-0.4964,1.7662c0.5638,0.5449,0.9158,1.3099,0.9158,2.1566c0,1.65,-1.3349,2.9924,-2.9757,2.9924c-1.6409,0,-2.9758,-1.3424,-2.9758,-2.9924c0,-1.4706,1.0605,-2.6959,2.4527,-2.9453l0.4909,-1.7464C2.0759,13.6834,0,15.781,0,18.3576C0,20.945,2.0933,23.05,4.6662,23.05c2.5729,0,4.6661,-2.105,4.6661,-4.6924C9.3324,16.7187,8.492,15.2743,7.2225,14.4348z" fill="#6485C3"/>
    </g>
    <path d="M10.925,17.8646v-0.3528c0,-3.0225,-2.3506,-5.5526,-5.4676,-5.8853c-0.2122,-0.0226,-0.9325,-0.0364,-1.1925,-0.0364h-0.5205l0.1928,-0.4835c0.0951,-0.2384,0.1688,-0.6485,0.2469,-1.0826c0.2104,-1.1696,0.4722,-2.6253,1.5267,-2.6253c1.128,0,2.5645,0.3598,3.9537,0.7077c1.3477,0.3376,2.7413,0.6866,3.7822,0.6866h8.1378l0.1052,0.1522c0.4225,0.6111,0.5153,1.1524,0.2759,1.609c-0.5279,1.0068,-2.5107,1.0358,-2.735,1.0358c-3.3934,0,-6.1541,2.6565,-6.1541,5.9217v0.3528H10.925z" fill="#FFFFFF" opacity="0.5"/>
    <path d="M4.7551,19.0759c-0.0773,0,-0.1548,-0.0107,-0.2303,-0.0319c-0.2186,-0.0614,-0.4002,-0.2043,-0.5113,-0.4023c-0.1111,-0.198,-0.1385,-0.4274,-0.0771,-0.646l1.5487,-5.5099c-0.0392,-0.0051,-0.0785,-0.0099,-0.1179,-0.0141c-0.1496,-0.0159,-0.8061,-0.0314,-1.1023,-0.0314h-0.5204c-0.2823,0,-0.5453,-0.1395,-0.7036,-0.3731c-0.1583,-0.2335,-0.1905,-0.5294,-0.0859,-0.7917l0.1928,-0.4835c0.0632,-0.1584,0.1389,-0.5792,0.1997,-0.9173c0.2382,-1.3249,0.598,-3.3257,2.3634,-3.3257c0.0016,0,0.0031,0,0.0047,0v-0.0225c0,-1.2162,0.9624,-2.5763,2.2504,-2.5763h1.859c0.4687,0,0.85,0.3813,0.85,0.85s-0.3813,0.85,-0.85,0.85h-1.859c-0.1914,0,-0.5504,0.4642,-0.5504,0.8763v0.1986c0.8039,0.1434,1.6431,0.3536,2.4556,0.5571c1.2977,0.325,2.6394,0.6611,3.5757,0.6611h8.1378c0.2791,0,0.5404,0.1371,0.6991,0.3666l0.1052,0.1522c0.7678,1.1106,0.603,1.9656,0.3295,2.4872c-0.7255,1.3836,-2.853,1.4911,-3.4878,1.4911c-1.1872,0,-2.3471,0.3857,-3.2791,1.0882l3.9059,4.1117c0.3228,0.3399,0.309,0.879,-0.0308,1.2018c-0.1588,0.1507,-0.3667,0.2337,-0.5854,0.2337c-0.2354,0,-0.4543,-0.0939,-0.6164,-0.2646l-3.8477,-4.0505c-0.557,0.821,-0.8507,1.7696,-0.8507,2.7512v0.3528c0,0.4687,-0.3813,0.85,-0.85,0.85H10.925c-0.4687,0,-0.85,-0.3813,-0.85,-0.85v-0.3528c0,-1.9306,-1.1569,-3.7051,-2.9573,-4.5522l-1.5448,5.496C5.4703,18.8208,5.134,19.0759,4.7551,19.0759zM12.2452,17.0146c0.2657,-3.526,3.3154,-6.2744,6.9854,-6.2744c0.9252,0,1.8144,-0.2604,1.9822,-0.5806c0.0748,-0.1426,-0.001,-0.351,-0.0896,-0.5165h-7.6764c-1.1463,0,-2.5913,-0.362,-3.9888,-0.7121c-1.339,-0.3354,-2.7236,-0.6823,-3.7472,-0.6823c-0.3438,0,-0.5954,1.399,-0.6901,1.9257c-0.0367,0.2038,-0.0714,0.3974,-0.1083,0.5759c0.2308,0.006,0.4938,0.0158,0.6353,0.0309c3.3687,0.3595,5.9651,2.9738,6.2089,6.2333H12.2452z" fill="#7B7B7B"/>
  </g>
</svg>
