<?xml version="1.0" encoding="UTF-8"?>
<!DOCTYPE svg PUBLIC "-//W3C//DTD SVG 1.1//EN" "http://www.w3.org/Graphics/SVG/1.1/DTD/svg11.dtd">
<svg version="1.1" id="Layer_1" xmlns="http://www.w3.org/2000/svg" xmlns:xlink="http://www.w3.org/1999/xlink" x="0px" y="0px" width="16px" height="16px" viewBox="0 0 16 16" enable-background="new 0 0 16 16" xml:space="preserve">
  <g id="icon">
    <path d="M10.307,9.628C9.59,9.323,8.813,9.152,8,9.152c-0.82,0,-1.604,0.174,-2.327,0.484c0.407,1.367,1.232,3.404,2.308,4.297C9.127,12.917,9.975,10.857,10.307,9.628z" fill="#FFFFFF"/>
    <path d="M10.307,9.628C9.59,9.323,8.813,9.152,8,9.152c-0.82,0,-1.604,0.174,-2.327,0.484" fill="#FFFFFF" stroke="#A0519F" stroke-width="1" stroke-miterlimit="1"/>
    <path d="M14.5,16.011c0,-2.709,-1.71,-5.295,-4.125,-6.354c-0.345,1.285,-1.977,4.248,-2.375,4.248c-0.399,0,-2.034,-2.968,-2.375,-4.248C3.21,10.716,1.5,13.301,1.5,16.011" fill="#FFFFFF" stroke="#A0519F" stroke-width="1" stroke-miterlimit="1"/>
    <path d="M12.026,4.332c0,2.061,-1.8,5.128,-4.02,5.128s-4.02,-3.067,-4.02,-5.128S5.785,0.5,8.005,0.5S12.026,2.271,12.026,4.332z" fill="#FFFFFF" stroke="#A0519F" stroke-width="1" stroke-miterlimit="1"/>
    <path d="M4.06,3.703c2.106,-1.978,2.843,-0.499,3.895,-0.499s1.842,-1.446,3.948,0.499" fill="#FFFFFF" stroke="#A0519F" stroke-width="1" stroke-miterlimit="1"/>
  </g>
</svg>
