<?xml version="1.0" encoding="UTF-8"?>
<!DOCTYPE svg PUBLIC "-//W3C//DTD SVG 1.1//EN" "http://www.w3.org/Graphics/SVG/1.1/DTD/svg11.dtd">
<svg version="1.1" id="Layer_1" xmlns="http://www.w3.org/2000/svg" xmlns:xlink="http://www.w3.org/1999/xlink" x="0px" y="0px" width="16px" height="16px" viewBox="0 0 16 16" enable-background="new 0 0 16 16" xml:space="preserve">
  <g id="icon">
    <path d="M11.99,4.361c0,2.063,-1.794,5.134,-4.007,5.134s-4.007,-3.07,-4.007,-5.134S5.771,0.525,7.984,0.525S11.99,2.297,11.99,4.361zM14.47,16c0,-3.602,-2.908,-6.49,-6.494,-6.49S1.481,12.398,1.481,16" fill="#FFFFFF" stroke="#383838" stroke-width="1" stroke-miterlimit="1"/>
    <path d="M4.052,3.731c2.098,-1.98,2.833,-0.499,3.882,-0.499s1.836,-1.448,3.935,0.499" fill="#FFFFFF" stroke="#383838" stroke-width="1" stroke-miterlimit="1"/>
    <polygon points="10.601,13.403 7.942,12.467 5.319,13.403 5.319,10.908 7.942,11.896 10.601,10.908" fill="#238BCB" stroke-linejoin="miter"/>
  </g>
</svg>
