<?xml version="1.0" encoding="UTF-8"?>
<!DOCTYPE svg PUBLIC "-//W3C//DTD SVG 1.1//EN" "http://www.w3.org/Graphics/SVG/1.1/DTD/svg11.dtd">
<svg version="1.1" id="Layer_1" xmlns="http://www.w3.org/2000/svg" xmlns:xlink="http://www.w3.org/1999/xlink" x="0px" y="0px" width="16px" height="16px" viewBox="0 0 16 16" enable-background="new 0 0 16 16" xml:space="preserve">
  <g id="icon">
    <path d="M10.349,10.182c-0.725,-0.278,-1.51,-0.433,-2.331,-0.433c-0.828,0,-1.621,0.158,-2.351,0.441" fill="none" stroke="#AF6E41" stroke-width="1" stroke-linecap="round" stroke-miterlimit="1"/>
    <path d="M10.349,10.182c-0.725,-0.278,-1.51,-0.433,-2.331,-0.433c-0.828,0,-1.621,0.158,-2.351,0.441c0.994,1.186,1.984,4.115,2.332,5.238C8.294,14.348,9.659,11.243,10.349,10.182z" fill="#FCD8BB"/>
    <path d="M10.22,9.463c-1.402,1.458,-2.841,1.466,-4.319,-0.053c-0.854,-1.252,-1.136,-3.162,-1.094,-5.378c2.534,2.109,4.952,-0.949,6.507,0.053C11.424,6.324,11.064,8.122,10.22,9.463z" fill="#FCD8BB"/>
    <path d="M10.225,9.578c-0.215,0.243,-0.325,0.448,-0.843,0.73c-0.366,0.2,-0.863,0.429,-1.398,0.429s-1.016,-0.229,-1.383,-0.429c-0.518,-0.282,-0.628,-0.487,-0.843,-0.73" fill="none" stroke="#AF6E41" stroke-width="1" stroke-linecap="round" stroke-miterlimit="1"/>
    <path d="M14.586,16c0,-2.47,-1.728,-4.826,-4.168,-5.792c-0.946,0.969,-2.285,4.493,-2.4,5.193c-0.153,-0.701,-1.438,-4.224,-2.4,-5.193C3.178,11.174,1.45,13.53,1.45,16" fill="#DFBCD9"/>
    <path d="M14.586,16c0,-2.47,-1.728,-4.826,-4.168,-5.792c-0.946,0.969,-2.285,4.493,-2.4,5.193c-0.153,-0.701,-1.438,-4.224,-2.4,-5.193C3.178,11.174,1.45,13.53,1.45,16" fill="none" stroke="#A0519F" stroke-width="1" stroke-miterlimit="1" stroke-linejoin="round"/>
    <path d="M13.589,9.934c-0.635,-0.408,-0.856,-1.054,-0.977,-1.726c-0.129,-0.717,-0.168,-1.453,-0.18,-2.181c-0.017,-1.05,-0.073,-2.084,-0.44,-3.093C11.316,1.075,9.385,0.406,7.865,0.51c-0.53,0.036,-1.012,0.231,-1.433,0.547c-0.105,0.079,-0.257,0.153,-0.384,0.149C4.771,1.169,4.008,1.866,3.6,2.787c-0.271,0.612,-0.413,1.257,-0.427,1.911c-0.017,0.756,0.034,1.513,0.072,2.269c0.04,0.783,-0.02,1.547,-0.426,2.255c-0.189,0.331,-0.363,0.524,-0.67,0.727c-0.195,0.129,-0.198,0.399,-0.004,0.529c0.488,0.325,1.327,0.56,2.533,0.707h0.317c0.545,0,0.981,-0.419,0.965,-0.924c-0.008,-0.239,-0.031,-0.417,-0.072,-0.471C4.935,8.55,4.612,6.293,4.612,4.774c0,-1.121,0.293,0.535,2.122,0.535c1.109,0,4.547,-1.789,4.547,-0.267c0,2.102,-0.443,3.809,-1.219,4.748c-0.043,0.052,-0.064,0.237,-0.068,0.483c-0.008,0.501,0.426,0.912,0.966,0.912h0.583c0.729,-0.101,1.425,-0.303,2.054,-0.719C13.795,10.336,13.788,10.062,13.589,9.934z" fill="#999999" stroke="#383838" stroke-width="1" stroke-linecap="round" stroke-miterlimit="1" stroke-linejoin="round"/>
  </g>
</svg>
