<?xml version="1.0" encoding="UTF-8"?>
<!DOCTYPE svg PUBLIC "-//W3C//DTD SVG 1.1//EN" "http://www.w3.org/Graphics/SVG/1.1/DTD/svg11.dtd">
<svg version="1.1" id="Layer_1" xmlns="http://www.w3.org/2000/svg" xmlns:xlink="http://www.w3.org/1999/xlink" x="0px" y="0px" width="16px" height="16px" viewBox="0 0 16 16" enable-background="new 0 0 16 16" xml:space="preserve">
  <g id="icon">
    <path d="M14.8,16c0,-3.396,-2.926,-6.589,-6.536,-6.589S1.727,12.604,1.727,16" fill="#DFBCD9"/>
    <path d="M10.584,9.864c-0.721,-0.29,-1.503,-0.452,-2.32,-0.452c-0.825,0,-1.613,0.165,-2.34,0.46c0.409,1.3,1.239,2.319,2.321,3.168C9.397,12.073,10.25,11.033,10.584,9.864z" fill="#FCD8BB"/>
    <path d="M10.584,9.857c-0.721,-0.29,-1.503,-0.452,-2.32,-0.452c-0.825,0,-1.613,0.165,-2.34,0.46" fill="none" stroke="#AF6E41" stroke-width="1.1" stroke-linecap="round" stroke-miterlimit="1"/>
    <path d="M8.892,14.196c0,0.296,-0.272,0.535,-0.609,0.535s-0.609,-0.24,-0.609,-0.535c0,-0.296,0.272,-0.535,0.609,-0.535S8.892,13.9,8.892,14.196zM8.284,15.445c-0.336,0,-0.609,0.24,-0.609,0.535h1.217C8.892,15.685,8.62,15.445,8.284,15.445z" fill="#A0519F"/>
    <path d="M14.8,16c0,-2.605,-1.719,-5.09,-4.148,-6.109c-0.347,1.235,-1.988,3.155,-2.388,3.155c-0.401,0,-2.045,-1.924,-2.389,-3.155C3.447,10.91,1.727,13.395,1.727,16" fill="none" stroke="#A0519F" stroke-width="1.1" stroke-miterlimit="1"/>
    <path d="M12.189,4.369c0,2.027,-1.754,5.045,-3.917,5.045S4.355,6.397,4.355,4.369S6.108,0.6,8.272,0.6S12.189,2.342,12.189,4.369z" fill="#FCD8BB"/>
    <path d="M12.189,4.369c0,2.027,-1.754,5.045,-3.917,5.045S4.355,6.397,4.355,4.369S6.108,0.6,8.272,0.6S12.189,2.342,12.189,4.369z" fill="none" stroke="#AF6E41" stroke-width="1.1" stroke-linecap="round" stroke-miterlimit="1"/>
    <path d="M12.119,3.676c-1.277,-0.051,-2.597,-0.841,-3.045,-1.521c-0.039,-0.06,-0.124,-0.06,-0.165,-0.001c-0.498,0.729,-1.654,1.905,-4.538,1.879C4.552,2.153,6.229,0.6,8.272,0.6C10.183,0.6,11.774,1.961,12.119,3.676z" fill="#999999" stroke="#383838" stroke-width="1" stroke-linecap="round" stroke-miterlimit="1"/>
  </g>
</svg>
