<?xml version="1.0" encoding="UTF-8"?>
<!DOCTYPE svg PUBLIC "-//W3C//DTD SVG 1.1//EN" "http://www.w3.org/Graphics/SVG/1.1/DTD/svg11.dtd">
<svg version="1.1" id="Layer_1" xmlns="http://www.w3.org/2000/svg" xmlns:xlink="http://www.w3.org/1999/xlink" x="0px" y="0px" width="16px" height="16px" viewBox="0 0 16 16" enable-background="new 0 0 16 16" xml:space="preserve">
  <g id="icon">
    <path d="M14.5,16c0,-3.608,-2.91,-6.501,-6.5,-6.501S1.5,12.392,1.5,16" fill="#FFFFFF" stroke="#383838" stroke-width="1" stroke-miterlimit="1"/>
    <path d="M11.949,4.324c0,2.057,-1.775,5.118,-3.965,5.118S4.02,6.381,4.02,4.324S5.795,0.5,7.985,0.5S11.949,2.267,11.949,4.324z" fill="#FCD8BB"/>
    <path d="M11.949,4.324c0,2.057,-1.775,5.118,-3.965,5.118S4.02,6.381,4.02,4.324S5.795,0.5,7.985,0.5S11.949,2.267,11.949,4.324z" fill="none" stroke="#AF6E41" stroke-width="1" stroke-linecap="round" stroke-miterlimit="1"/>
    <path d="M11.953,3.667C9.888,1.785,9,3.212,7.958,3.212c-1.043,0,-1.828,-1.462,-3.895,0.46C4.4,1.906,6.038,0.5,8.008,0.5C9.977,0.5,11.614,1.903,11.953,3.667z" fill="#999999" stroke="#383838" stroke-width="1" stroke-linecap="round" stroke-miterlimit="1" stroke-linejoin="round"/>
    <polygon points="10.628,13.398 7.967,12.462 5.341,13.398 5.341,10.9 7.967,11.889 10.628,10.9" fill="#238BCB" stroke-linejoin="miter"/>
  </g>
</svg>
