<?xml version="1.0" encoding="UTF-8"?>
<!DOCTYPE svg PUBLIC "-//W3C//DTD SVG 1.1//EN" "http://www.w3.org/Graphics/SVG/1.1/DTD/svg11.dtd">
<svg version="1.1" id="Layer_1" xmlns="http://www.w3.org/2000/svg" xmlns:xlink="http://www.w3.org/1999/xlink" x="0px" y="0px" width="16px" height="16px" viewBox="0 0 16 16" enable-background="new 0 0 16 16" xml:space="preserve">
  <g id="icon">
    <path d="M15.126,4.987h-1.143c-0.21,-0.789,-0.623,-1.505,-1.203,-2.085l0.589,-0.979c0.051,-0.087,0.065,-0.188,0.039,-0.285c-0.026,-0.097,-0.088,-0.178,-0.174,-0.228l-1.429,-0.826c-0.057,-0.033,-0.121,-0.05,-0.187,-0.05c-0.132,0,-0.256,0.071,-0.323,0.185L10.704,1.7c-0.391,-0.105,-0.796,-0.158,-1.204,-0.158c-0.408,0,-0.811,0.053,-1.201,0.157l-0.552,-0.972c-0.066,-0.118,-0.191,-0.192,-0.327,-0.192c-0.065,0,-0.13,0.017,-0.187,0.05l-1.429,0.826c-0.176,0.102,-0.238,0.328,-0.139,0.506L6.222,2.9c-0.329,0.329,-0.603,0.703,-0.818,1.109c0.944,0.082,1.789,0.465,2.441,1.057c0.36,-0.53,0.968,-0.879,1.655,-0.879c1.103,0,2,0.897,2,2c0,1.103,-0.897,2,-2,2c-0.099,0,-0.195,-0.01,-0.29,-0.023c0,0.013,0.001,0.027,0.001,0.04c0,0.889,-0.273,1.739,-0.761,2.441c0.037,0.029,0.073,0.061,0.11,0.091c0.308,0.063,0.623,0.097,0.94,0.097c0.408,0,0.812,-0.053,1.203,-0.158l0.592,1.018c0.066,0.116,0.191,0.189,0.325,0.189c0.065,0,0.13,-0.017,0.187,-0.05l1.429,-0.826c0.177,-0.103,0.239,-0.331,0.138,-0.509l-0.595,-1.023c0.58,-0.58,0.994,-1.297,1.204,-2.086h1.143c0.206,0,0.374,-0.168,0.374,-0.374V5.36C15.5,5.154,15.332,4.987,15.126,4.987z" fill="#FFFFFF"/>
    <path d="M16,5.36v1.652c0,0.482,-0.392,0.874,-0.874,0.874h-0.774c-0.212,0.605,-0.536,1.167,-0.955,1.654l0.409,0.703c0.24,0.42,0.095,0.953,-0.32,1.193l-1.429,0.826c-0.133,0.077,-0.284,0.117,-0.437,0.117c-0.313,0,-0.604,-0.169,-0.759,-0.441l-0.406,-0.697c-0.418,0.079,-0.847,0.104,-1.273,0.078c-0.231,-0.248,-0.475,-0.474,-0.732,-0.676c0.088,-0.126,0.168,-0.257,0.242,-0.392c0.62,0.122,1.272,0.102,1.881,-0.061l0.369,-0.099l0.723,1.243l1.21,-0.7l-0.723,-1.243l0.273,-0.272c0.516,-0.516,0.888,-1.159,1.074,-1.861l0.099,-0.371H15v-1.4h-1.402L13.5,5.115c-0.187,-0.701,-0.558,-1.344,-1.073,-1.86l-0.276,-0.276l0.722,-1.201l-1.21,-0.7l-0.723,1.202l-0.364,-0.098c-0.697,-0.187,-1.45,-0.187,-2.147,-0.001l-0.373,0.1l-0.681,-1.2l-1.21,0.7l0.683,1.202l-0.27,0.269c-0.251,0.25,-0.466,0.531,-0.644,0.833c-0.291,-0.062,-0.594,-0.096,-0.906,-0.096c-0.059,0,-0.117,0.002,-0.175,0.004c0.198,-0.42,0.452,-0.814,0.757,-1.167l-0.377,-0.664c-0.233,-0.418,-0.087,-0.948,0.324,-1.186l1.429,-0.826c0.133,-0.077,0.284,-0.117,0.437,-0.117c0.317,0,0.609,0.172,0.763,0.448l0.367,0.646c0.628,-0.118,1.284,-0.117,1.912,0.002l0.404,-0.672c0.154,-0.262,0.442,-0.427,0.751,-0.427c0.153,0,0.304,0.041,0.437,0.117l1.429,0.826c0.203,0.117,0.348,0.307,0.408,0.534c0.06,0.227,0.027,0.463,-0.091,0.665l-0.398,0.662c0.417,0.486,0.74,1.046,0.95,1.649h0.774C15.608,4.487,16,4.879,16,5.36zM9.5,8.687c1.379,0,2.5,-1.121,2.5,-2.5c0,-1.379,-1.121,-2.5,-2.5,-2.5c-0.845,0,-1.593,0.422,-2.046,1.066c0.277,0.196,0.529,0.425,0.75,0.683c0.26,-0.447,0.743,-0.749,1.296,-0.749c0.827,0,1.5,0.673,1.5,1.5c0,0.827,-0.673,1.5,-1.5,1.5c-0.111,0,-0.22,-0.013,-0.324,-0.036c0.023,0.181,0.035,0.365,0.035,0.553c0,0.156,-0.009,0.31,-0.025,0.463C9.289,8.679,9.393,8.687,9.5,8.687z" fill="#383838"/>
    <path d="M7.711,8.203c0,1.498,-1.147,2.712,-2.686,2.712S2.34,9.701,2.34,8.203s1.147,-2.712,2.686,-2.712S7.711,6.705,7.711,8.203zM9.535,16c0,-2.615,-2.021,-5.074,-4.515,-5.074S0.505,13.385,0.505,16" fill="#FFFFFF"/>
    <path d="M10.035,16h-1c0,-2.436,-1.876,-4.574,-4.015,-4.574S1.005,13.564,1.005,16h-1c0,-1.386,0.527,-2.787,1.445,-3.845c0.505,-0.582,1.092,-1.027,1.727,-1.32c-0.814,-0.576,-1.337,-1.531,-1.337,-2.632c0,-1.801,1.399,-3.212,3.186,-3.212s3.186,1.411,3.186,3.212c0,1.103,-0.525,2.059,-1.341,2.635c0.633,0.293,1.217,0.737,1.72,1.317C9.508,13.213,10.035,14.614,10.035,16zM5.025,5.991C3.8,5.991,2.84,6.963,2.84,8.203s0.96,2.212,2.186,2.212s2.186,-0.972,2.186,-2.212S6.251,5.991,5.025,5.991z" fill="#383838"/>
  </g>
</svg>
