<?xml version="1.0" encoding="UTF-8"?>
<!DOCTYPE svg PUBLIC "-//W3C//DTD SVG 1.1//EN" "http://www.w3.org/Graphics/SVG/1.1/DTD/svg11.dtd">
<svg version="1.1" id="Layer_1" xmlns="http://www.w3.org/2000/svg" xmlns:xlink="http://www.w3.org/1999/xlink" x="0px" y="0px" width="16px" height="16px" viewBox="0 0 16 16" enable-background="new 0 0 16 16" xml:space="preserve">
  <g id="icon">
    <path d="M9.336,5.189c-0.014,-0.059,0.006,-0.125,0.061,-0.164c0.135,-0.097,0.212,-0.19,0.296,-0.348c0.179,-0.339,0.205,-0.705,0.188,-1.08c-0.017,-0.362,-0.039,-0.725,-0.032,-1.086c0.006,-0.313,0.069,-0.622,0.188,-0.915c0.18,-0.441,0.516,-0.775,1.079,-0.757c0.056,0.002,0.123,-0.034,0.17,-0.071c0.186,-0.151,0.398,-0.245,0.632,-0.262c0.671,-0.05,1.522,0.27,1.82,1.161c0.162,0.483,0.187,0.978,0.194,1.481c0.005,0.349,0.023,0.701,0.079,1.044c0.053,0.323,0.152,0.633,0.434,0.829c0.087,0.06,0.087,0.191,0,0.252c-0.415,0.297,-0.895,0.368,-1.393,0.387c-0.071,0.007,-0.143,0.013,-0.214,0.019L11,5.668c-0.07,-0.006,-0.14,-0.013,-0.21,-0.02c-0.274,-0.026,-0.51,-0.062,-0.713,-0.107C9.847,5.396,9.599,5.277,9.336,5.189zM11,5.668l-0.145,-0.001c-0.131,0.048,-0.258,0.104,-0.382,0.167c0.45,0.387,0.798,0.894,0.998,1.491c0.237,0.707,0.278,1.404,0.288,2.052c0,0.032,0.001,0.066,0.002,0.1H15.5c0,-1.696,-1.061,-3.251,-2.523,-3.799l-0.139,-0.001C12.228,5.726,11.615,5.724,11,5.668zM5.252,5.659c0.498,-0.019,0.978,-0.089,1.393,-0.387c0.086,-0.062,0.087,-0.192,0,-0.252c-0.282,-0.195,-0.381,-0.506,-0.434,-0.829c-0.057,-0.343,-0.074,-0.696,-0.079,-1.044c-0.007,-0.503,-0.032,-0.998,-0.194,-1.481c-0.298,-0.89,-1.15,-1.211,-1.82,-1.161c-0.234,0.017,-0.446,0.111,-0.632,0.262c-0.046,0.038,-0.113,0.073,-0.17,0.071c-0.563,-0.018,-0.899,0.316,-1.079,0.757c-0.12,0.293,-0.182,0.602,-0.188,0.915c-0.007,0.362,0.015,0.724,0.032,1.086c0.017,0.375,-0.009,0.741,-0.188,1.08c-0.083,0.158,-0.16,0.251,-0.296,0.348c-0.087,0.062,-0.088,0.19,-0.001,0.253c0.251,0.182,0.711,0.304,1.394,0.37c0.07,0.008,0.14,0.014,0.21,0.02l1.839,0.009C5.11,5.671,5.181,5.666,5.252,5.659zM0.505,9.477h3.747c-0.011,-0.252,-0.018,-0.512,-0.013,-0.782c0.011,-0.532,0.118,-1.05,0.318,-1.54c0.225,-0.551,0.574,-0.995,1.007,-1.304c-0.125,-0.065,-0.254,-0.123,-0.386,-0.173l-0.139,-0.001c-0.61,0.049,-1.223,0.047,-1.839,-0.009l-0.145,-0.001C1.579,6.205,0.505,7.771,0.505,9.477z" fill="#FFFFFF"/>
    <path d="M3.168,6.168c0.628,0.056,1.264,0.059,1.897,0.009l0.017,0c0.024,0.01,0.048,0.022,0.072,0.033c0.414,-0.443,0.951,-0.729,1.555,-0.821c0.161,-0.096,0.328,-0.173,0.501,-0.233c0,-0.005,0.001,-0.011,0.001,-0.016c-0.002,-0.212,-0.107,-0.411,-0.281,-0.531c-0.115,-0.079,-0.18,-0.224,-0.225,-0.499c-0.044,-0.269,-0.067,-0.568,-0.073,-0.97c-0.007,-0.494,-0.031,-1.068,-0.22,-1.632C6.034,0.379,4.968,-0.059,4.08,0.006c-0.31,0.023,-0.599,0.135,-0.859,0.332c-0.653,0.02,-1.177,0.404,-1.448,1.068c-0.142,0.348,-0.218,0.716,-0.225,1.094c-0.007,0.323,0.009,0.643,0.024,0.952l0.008,0.168c0.017,0.371,-0.022,0.617,-0.131,0.823c-0.052,0.099,-0.08,0.129,-0.144,0.175c-0.171,0.123,-0.274,0.322,-0.274,0.532c0,0.21,0.101,0.409,0.271,0.532c0.107,0.078,0.234,0.145,0.383,0.204C0.656,6.733,0.004,8.066,0.004,9.477h1c0,-1.435,0.896,-2.812,2.141,-3.309L3.168,6.168zM3.037,5.15c-0.346,-0.033,-0.593,-0.078,-0.769,-0.124c0.023,-0.036,0.044,-0.075,0.066,-0.116c0.25,-0.475,0.262,-0.964,0.245,-1.336l-0.008,-0.17c-0.015,-0.306,-0.029,-0.595,-0.023,-0.883c0.005,-0.255,0.056,-0.503,0.151,-0.737c0.166,-0.407,0.409,-0.452,0.6,-0.446c0.233,0.007,0.414,-0.112,0.502,-0.184c0.113,-0.092,0.229,-0.142,0.353,-0.151c0.375,-0.028,1.072,0.114,1.309,0.821c0.143,0.428,0.162,0.891,0.168,1.33c0.005,0.306,0.018,0.709,0.086,1.118c0.037,0.225,0.104,0.513,0.273,0.775c-0.241,0.079,-0.502,0.102,-0.757,0.112l-0.03,0.002c-0.059,0.006,-0.117,0.011,-0.176,0.016l-1.812,-0.009c-0.057,-0.005,-0.115,-0.011,-0.172,-0.017L3.037,5.15zM14.34,5.906c0.134,-0.06,0.267,-0.135,0.396,-0.227c0.173,-0.124,0.276,-0.325,0.274,-0.539c-0.002,-0.212,-0.107,-0.411,-0.281,-0.531c-0.115,-0.079,-0.18,-0.224,-0.225,-0.499c-0.044,-0.269,-0.067,-0.568,-0.073,-0.97c-0.007,-0.494,-0.031,-1.068,-0.22,-1.632C13.834,0.379,12.768,-0.059,11.88,0.006c-0.31,0.023,-0.599,0.135,-0.859,0.332c-0.653,0.02,-1.177,0.404,-1.448,1.068c-0.142,0.348,-0.218,0.716,-0.225,1.094c-0.007,0.323,0.009,0.643,0.024,0.952l0.008,0.168c0.017,0.371,-0.022,0.617,-0.131,0.823c-0.052,0.099,-0.08,0.129,-0.144,0.175c-0.147,0.105,-0.243,0.267,-0.268,0.443c0.803,0.146,1.505,0.552,2.009,1.151c0.033,-0.015,0.065,-0.031,0.099,-0.044l0.022,0c0.628,0.056,1.264,0.059,1.897,0.009l0.017,0c1.251,0.511,2.118,1.854,2.118,3.3h1C16,8.08,15.356,6.754,14.34,5.906zM13.034,5.159l-0.03,0.002c-0.059,0.006,-0.117,0.011,-0.176,0.016l-1.812,-0.009c-0.057,-0.005,-0.115,-0.011,-0.172,-0.017l-0.006,-0.001c-0.346,-0.033,-0.593,-0.078,-0.769,-0.124c0.023,-0.036,0.044,-0.075,0.066,-0.116c0.25,-0.475,0.262,-0.964,0.245,-1.336l-0.008,-0.17c-0.015,-0.306,-0.029,-0.595,-0.023,-0.883c0.005,-0.255,0.056,-0.503,0.151,-0.737c0.166,-0.407,0.409,-0.452,0.6,-0.446c0.231,0.007,0.414,-0.112,0.502,-0.184c0.113,-0.092,0.229,-0.142,0.353,-0.151c0.375,-0.028,1.072,0.114,1.309,0.821c0.143,0.428,0.162,0.891,0.168,1.33c0.005,0.306,0.018,0.709,0.086,1.118c0.037,0.225,0.104,0.513,0.273,0.775C13.549,5.127,13.288,5.149,13.034,5.159z" fill="#A0519F"/>
    <path d="M11.819,16c0,-1.795,-1.123,-3.441,-2.67,-4.021l-2.246,-0.011c-1.562,0.569,-2.699,2.226,-2.699,4.031M6.834,11.948c-0.722,-0.07,-1.21,-0.2,-1.475,-0.392c-0.092,-0.066,-0.091,-0.202,0.001,-0.268c0.143,-0.103,0.224,-0.201,0.313,-0.368c0.189,-0.359,0.217,-0.746,0.199,-1.143c-0.018,-0.383,-0.041,-0.767,-0.034,-1.15c0.007,-0.331,0.073,-0.658,0.199,-0.968c0.19,-0.467,0.546,-0.82,1.142,-0.801c0.06,0.002,0.131,-0.036,0.179,-0.076c0.196,-0.16,0.421,-0.259,0.669,-0.277c0.71,-0.053,1.611,0.286,1.926,1.228c0.171,0.511,0.197,1.035,0.205,1.567c0.005,0.369,0.024,0.742,0.084,1.105c0.056,0.342,0.161,0.67,0.459,0.877c0.092,0.064,0.092,0.202,0,0.267c-0.439,0.315,-0.947,0.389,-1.474,0.409C8.435,12.038,7.637,12.036,6.834,11.948z" fill="#FFFFFF" stroke="#A0519F" stroke-width="1" stroke-miterlimit="1"/>
  </g>
</svg>
