<?xml version="1.0" encoding="UTF-8"?>
<!DOCTYPE svg PUBLIC "-//W3C//DTD SVG 1.1//EN" "http://www.w3.org/Graphics/SVG/1.1/DTD/svg11.dtd">
<svg version="1.1" id="Layer_1" xmlns="http://www.w3.org/2000/svg" xmlns:xlink="http://www.w3.org/1999/xlink" x="0px" y="0px" width="16px" height="16px" viewBox="0 0 16 16" enable-background="new 0 0 16 16" xml:space="preserve">
  <g id="icon">
    <polygon points="9.5,15.5 0.5,15.5 0.5,4.5 6.533,4.5 9.5,7.557" fill="#FFFFFF" stroke-linejoin="miter"/>
    <path d="M6.744,4H0v12h10V7.353L6.744,4zM7,5.693L8.256,7H7V5.693zM1,15V5h5v3h3v7H1z" fill="#383838"/>
    <path d="M8,9H2v1h6V9zM8,11H2v1h6V11zM8,13H2v1h6V13zM5,7H2v1h3V7z" fill="#78797A" opacity="0.5"/>
    <rect x="2" y="10" width="3" height="2" fill="#EF3E3B"/>
    <polygon points="12.533,0.5 6.5,0.5 6.5,3 7.167,3 11,6.948 11,11.5 15.5,11.5 15.5,3.557" fill="#FFFFFF" stroke-linejoin="miter"/>
    <path d="M12.744,0H6v3h1V1h5v3h3v7h-4v1h5V3.353L12.744,0zM13,3V1.693L14.256,3H13z" fill="#383838"/>
    <path d="M8,3.858V3h3v1H8.138L8,3.858zM11,10h3V9h-3V10zM11,8h3V7h-3V8zM9.109,5l0.971,1H14V5H9.109z" fill="#78797A" opacity="0.5"/>
    <polygon points="11,6 11,6.948 11,8 14,8 14,6" fill="#EF3E3B" stroke-linejoin="miter"/>
  </g>
</svg>
