<?xml version="1.0" encoding="UTF-8"?>
<!DOCTYPE svg PUBLIC "-//W3C//DTD SVG 1.1//EN" "http://www.w3.org/Graphics/SVG/1.1/DTD/svg11.dtd">
<svg version="1.1" id="Layer_1" xmlns="http://www.w3.org/2000/svg" xmlns:xlink="http://www.w3.org/1999/xlink" x="0px" y="0px" width="16px" height="16px" viewBox="0 0 16 16" enable-background="new 0 0 16 16" xml:space="preserve">
  <g id="icon">
    <rect x="0.5" y="0.5" width="15" height="15" fill="#FFFFFF" stroke="#383838" stroke-width="1" stroke-miterlimit="1"/>
    <path d="M8.374,3.963l0.763,2.34h2.481c0.369,0,0.523,0.471,0.225,0.689l-2.011,1.47l0.766,2.351c0.114,0.351,-0.288,0.644,-0.587,0.426l-2,-1.455l-2,1.455c-0.299,0.217,-0.701,-0.075,-0.587,-0.426l0.766,-2.351L4.18,6.993c-0.298,-0.218,-0.144,-0.689,0.225,-0.689h2.481l0.763,-2.34C7.763,3.612,8.26,3.612,8.374,3.963z" fill="#238BCB"/>
    <path d="M5,12.5h6M5,2.5h6M2.5,5v5M13.5,5v5" fill="none" stroke="#787979" stroke-width="1" stroke-miterlimit="1" opacity="0.5"/>
    <path d="M4,4H2V2h2V4zM14,2h-2v2h2V2zM14,11h-2v2h2V11zM4,11H2v2h2V11z" fill="#238BCB"/>
  </g>
</svg>
