<?xml version="1.0" encoding="utf-8"?>
<!-- Generator: Adobe Illustrator 26.1.0, SVG Export Plug-In . SVG Version: 6.00 Build 0)  -->
<svg version="1.1" id="Layer_1" xmlns="http://www.w3.org/2000/svg" xmlns:xlink="http://www.w3.org/1999/xlink" x="0px" y="0px"
	 viewBox="0 0 16 16" style="enable-background:new 0 0 16 16;" xml:space="preserve">
<style type="text/css">
	.st0{opacity:0.5;fill:#FFFFFF;enable-background:new    ;}
	.st1{fill:#6D6E71;}
</style>
<g id="icon">
	<path class="st0" d="M15.5,8c0,4.1-3.4,7.5-7.5,7.5S0.5,12.1,0.5,8S3.9,0.5,8,0.5S15.5,3.9,15.5,8z"/>
	<path class="st1" d="M8,16c-4.4,0-8-3.6-8-8s3.6-8,8-8s8,3.6,8,8S12.4,16,8,16z M8,1C4.1,1,1,4.1,1,8s3.1,7,7,7s7-3.1,7-7
		S11.9,1,8,1z"/>
	<path class="st1" d="M8,12.9c-2.7,0-4.9-2.2-4.9-4.9S5.3,3,8,3s4.9,2.2,4.9,4.9S10.7,12.9,8,12.9z M8,4C5.8,4,3.9,5.8,3.9,8
		s1.8,4.1,4.1,4.1s4.1-1.8,4.1-4.1S10.2,4,8,4z"/>
	<path class="st1" d="M10.1,9.1C10,8.9,9.9,8.7,9.7,8.5C9.6,8.4,9.2,8.1,8.9,7.9C8.8,7.9,8.8,7.8,8.8,7.8c0,0,0,0,0.1-0.1
		c0.1,0,0.3-0.2,0.4-0.3C9.6,7.3,9.8,7,9.9,6.7C10,6.3,9.9,5.9,9.7,5.5C9.5,5.2,9.1,5,8.6,4.9c-0.1,0-0.4,0-0.6,0c0,0,0,0,0,0
		c0,0-0.1,0-0.2,0C6.9,4.9,6.3,5.3,6.1,6c0,0.1,0,0.2,0,0.3c0,0.2,0,0.3,0,0.4c0.1,0.4,0.4,0.7,0.9,1l0.2,0.1L7,8
		C6.4,8.3,6,8.7,5.9,9.2c0,0.2-0.1,0.5,0,0.7c0.1,0.8,0.8,1.3,2,1.3c0.1,0,0.1,0,0.2,0l0,0c0.7,0,1.3-0.2,1.7-0.6
		c0.2-0.2,0.3-0.4,0.4-0.7c0-0.1,0-0.2,0-0.4C10.1,9.3,10.1,9.2,10.1,9.1z M7.1,6.8c-0.2-0.3-0.2-0.8,0.1-1C7.4,5.6,7.6,5.5,8,5.5
		c0,0,0.1,0,0.1,0c0.1,0,0.2,0,0.3,0C8.7,5.6,8.9,5.9,9,6.2c0,0.1,0,0.4,0,0.5C8.9,6.9,8.6,7.2,8.2,7.4L8,7.5L7.8,7.4
		C7.5,7.2,7.3,7,7.1,6.8z M8.4,10.5c-0.1,0-0.2,0-0.4,0c-0.4,0-0.5,0-0.7-0.1c-0.4-0.2-0.5-0.5-0.5-0.9c0-0.3,0.1-0.5,0.4-0.8
		c0.2-0.1,0.3-0.2,0.6-0.4l0.2-0.1l0.2,0.1c0.1,0,0.2,0.1,0.3,0.1c0.2,0.1,0.4,0.2,0.5,0.4C9.1,9,9.2,9.2,9.2,9.5
		C9.2,10,9,10.3,8.4,10.5z"/>
</g>
</svg>
