<?xml version="1.0" encoding="utf-8"?>
<!-- Generator: Adobe Illustrator 26.1.0, SVG Export Plug-In . SVG Version: 6.00 Build 0)  -->
<svg version="1.1" id="Layer_1" xmlns="http://www.w3.org/2000/svg" xmlns:xlink="http://www.w3.org/1999/xlink" x="0px" y="0px"
	 viewBox="0 0 16 16" style="enable-background:new 0 0 16 16;" xml:space="preserve">
<style type="text/css">
	.st0{opacity:0.5;fill:#FFFFFF;enable-background:new    ;}
	.st1{fill:#F1876B;}
</style>
<g id="icon">
	<path class="st0" d="M16,7.1c-0.2-0.3-0.8-1-1.1-1.3c-0.3-0.3-1.8-1.7-2.1-1.8c-0.3-0.2-0.4-0.3-0.4-0.3c0,0,0,0,0,0c0,0,0,0,0,0
		l0,0c0,0,0.1-0.1,0.2-0.2c0,0,0.3-0.2,0.4-0.3c0.3-0.2,0.5-0.3,0.6-0.4l0.2-0.1c-0.3-0.3-0.5-0.5-0.8-0.8l-0.1,0
		c-0.1,0-0.1,0.1-0.2,0.1l-0.1,0c-0.4,0.2-0.6,0.3-0.9,0.6C11.6,2.9,11.5,3,11.4,3c0,0-0.1,0-0.4-0.2c-0.5-0.3-0.5-0.3-0.9-0.4
		C9.9,2.2,9.8,2.2,9.8,2.2c0,0,0,0,0,0l0,0c0,0,0,0,0,0c0.1-0.1,0.9-0.9,1.3-1.3l0.2-0.2c-0.4-0.2-0.7-0.3-1.1-0.4l0,0
		c-0.1,0-0.2,0.1-0.2,0.2C9.7,0.7,9.5,0.9,9,1.4L8.9,1.5C8.7,1.7,8.7,1.7,8.7,1.7c0,0,0,0-0.1,0l0,0C8.4,1.7,8.2,1.7,8,1.6
		C7.5,1.4,7.1,1.4,6.8,1.4c-0.1,0-0.2,0-0.2,0c0,0,0,0-0.1,0c0-0.1,0-0.2,0-0.2c0-0.1,0-0.3,0.1-0.5c0-0.1,0-0.2,0-0.3l0-0.2
		C6.3,0.2,6,0.3,5.6,0.4l0,0.1c0,0.2-0.1,0.6-0.2,0.7c0,0,0,0,0,0.1c0,0,0,0,0,0c0,0,0,0-0.1,0l0,0c0,0-0.1,0-0.1,0L5,1.2
		c-0.1,0-0.1,0-0.2,0c-0.1,0-0.3,0-0.7,0c-0.2,0-0.3,0-0.4,0C3.1,1.6,2.6,2.1,2.1,2.6l0.6-0.1c0.5-0.1,1-0.1,1.3-0.2
		c0.1,0,0.2,0,0.3,0c0.3,0,0.5,0,0.6,0c0,0,0,0,0,0c0,0.1-0.1,0.3-0.5,0.7C4,3.7,3.5,4.1,2.2,5.1c-0.7,0.5-1,0.7-1.3,1
		C0.7,6.3,0.3,6.7,0.1,6.9l0,0.1C0,7.3,0,7.6,0,8c0,0.3,0,0.6,0,0.8l0.4-0.5c0.4-0.6,1-1.2,2.1-2c0.2-0.2,0.6-0.5,0.8-0.6
		c1.5-1.2,2.3-2,2.8-3c0-0.1,0.1-0.2,0.1-0.3c0,0,0.1,0,0.1,0c0.1,0,0.7,0.1,0.9,0.1c0.2,0,0.4,0.1,0.5,0.1c0.1,0,0.2,0.1,0.2,0.1
		c0,0.1-0.1,0.2-0.1,0.2L7.7,3.1l0,0c0,0.1-0.1,0.1-0.2,0.2C7.3,3.6,6.7,4.5,6.4,5C5.9,5.9,5.4,7.1,5,8.4c-0.2,0.5-0.4,1.5-0.5,1.8
		c-0.1,0.7-0.2,1.4-0.1,2.1c0,0.9,0.1,1.6,0.4,2.8l0.1,0.3c0.4,0.2,0.8,0.3,1.2,0.4l-0.1-0.2c-0.2-0.7-0.4-1.7-0.5-2.6
		c0-0.4,0-1.4,0-1.7c0.1-0.9,0.3-2,0.3-2.2C6,9,6,8.9,6.1,8.5c0.1-0.4,0.3-0.8,0.5-1.3C6.8,6.7,6.9,6.5,7.2,6
		c0.1-0.2,0.3-0.6,0.4-0.7c0.2-0.5,0.3-0.6,0.9-1.5c0.4-0.6,0.5-0.6,0.6-0.6c0,0,0,0,0.1,0l0,0c0.1,0,0.1,0,0.8,0.3l0.1,0
		c0.6,0.3,0.7,0.3,0.6,0.5c0,0,0,0.1-0.1,0.3C10.2,4.8,9.9,5.4,9.8,6C9.5,7,9.6,7.8,9.9,9c0.1,0.3,0.3,1.1,0.5,1.5
		c0.5,1.3,0.7,1.7,0.8,2.1c0.2,0.8,0.3,1.4,0.3,2c0,0.1,0,0.3,0,0.4l0,0.2c0.4-0.2,0.8-0.4,1.1-0.6c0-0.6-0.2-1.7-0.5-2.6
		c-0.1-0.4-0.2-0.7-0.5-1.4c-0.5-1.4-0.7-1.9-0.8-2.7c0-0.3,0-0.9,0-1.2c0.1-0.5,0.1-0.6,0.2-1c0.2-0.5,0.3-0.7,0.4-0.9
		c0.1-0.2,0.2-0.3,0.2-0.3c0,0,0.1,0,0.4,0.2c0.2,0.2,0.3,0.3,0.8,0.6c0.6,0.5,1.6,1.5,1.8,1.8c0.4,0.6,0.7,1,0.9,1.4l0.3,0.5
		C16,8.8,16,8.4,16,8C16,7.7,16,7.4,16,7.1z"/>
	<path class="st1" d="M6.7,0.1C7.1,0,7.6,0,8,0c0.8,0,1.5,0.1,2.2,0.3l0,0c-0.1,0-0.2,0.1-0.2,0.2C9.7,0.7,9.5,0.9,9,1.4L8.9,1.5
		C8.7,1.7,8.7,1.7,8.7,1.7c0,0,0,0-0.1,0l0,0C8.4,1.7,8.2,1.7,8,1.6C7.5,1.4,7.1,1.4,6.8,1.4c-0.1,0-0.2,0-0.2,0c0,0,0,0-0.1,0
		c0-0.1,0-0.2,0-0.2c0-0.1,0-0.3,0.1-0.5c0-0.1,0-0.2,0-0.3L6.7,0.1z M11,2.8C11.3,2.9,11.4,3,11.4,3c0.1,0,0.2-0.1,0.4-0.3
		c0.3-0.3,0.5-0.4,0.9-0.6l0.1,0C12.9,1.9,13,1.9,13,1.8l0.1,0C12.5,1.4,12,1,11.3,0.7l-0.2,0.2c-0.5,0.4-1.3,1.2-1.3,1.3
		c0,0,0,0,0,0l0,0c0,0,0,0,0,0c0,0,0.1,0,0.3,0.1C10.5,2.5,10.5,2.5,11,2.8z M12.8,4c0.3,0.2,1.8,1.5,2.1,1.8c0.3,0.3,0.9,1,1.1,1.3
		c-0.2-1.8-0.9-3.3-2.1-4.6l-0.2,0.1c-0.2,0.1-0.4,0.2-0.6,0.4c-0.1,0.1-0.4,0.3-0.4,0.3c-0.1,0.1-0.2,0.1-0.2,0.2l0,0c0,0,0,0,0,0
		c0,0,0,0,0,0C12.4,3.7,12.5,3.8,12.8,4z M0.1,6.9c0.2-0.2,0.6-0.6,0.8-0.8c0.3-0.3,0.6-0.5,1.3-1C3.5,4.1,4,3.7,4.5,3
		C4.8,2.6,4.9,2.4,5,2.3c0,0,0,0,0,0c-0.1,0-0.3,0-0.6,0c-0.1,0-0.2,0-0.3,0c-0.3,0-0.9,0.1-1.3,0.2L2.1,2.6C1,3.7,0.3,5.3,0.1,6.9
		L0.1,6.9z M4.8,15.1c-0.3-1.2-0.4-1.8-0.4-2.8c0-0.7,0-1.4,0.1-2.1C4.6,9.9,4.9,8.9,5,8.4C5.4,7.1,5.9,5.9,6.4,5
		c0.3-0.6,0.9-1.4,1.2-1.8c0.1-0.1,0.1-0.1,0.2-0.2l0,0l0.1-0.1c0,0,0.1-0.2,0.1-0.2c-0.1,0-0.1,0-0.2-0.1c-0.1,0-0.3-0.1-0.5-0.1
		C7,2.5,6.4,2.4,6.3,2.4c0,0-0.1,0-0.1,0c0,0-0.1,0.2-0.1,0.3c-0.5,1-1.2,1.8-2.8,3C3.1,5.8,2.7,6.1,2.5,6.3c-1.1,0.9-1.7,1.4-2.1,2
		L0,8.8c0.3,3,2.2,5.4,4.9,6.6L4.8,15.1z M15.6,8.7c-0.2-0.4-0.5-0.8-0.9-1.4c-0.3-0.4-1.2-1.4-1.8-1.8c-0.4-0.3-0.6-0.4-0.8-0.6
		c-0.3-0.2-0.3-0.2-0.4-0.2c0,0-0.1,0-0.2,0.3c-0.1,0.2-0.2,0.5-0.4,0.9c-0.2,0.4-0.2,0.5-0.2,1c0,0.3,0,0.9,0,1.2
		c0.1,0.8,0.2,1.3,0.8,2.7c0.3,0.7,0.4,1,0.5,1.4c0.3,0.9,0.5,2,0.5,2.6c1.8-1.2,3-3.2,3.4-5.4L15.6,8.7z M5.3,1.2L5.3,1.2
		C5.3,1.2,5.4,1.2,5.3,1.2c0.1,0,0.1,0,0.1,0c0,0,0,0,0-0.1C5.5,1,5.6,0.6,5.6,0.4l0-0.1C4.9,0.6,4.3,0.9,3.7,1.3c0.1,0,0.3,0,0.4,0
		c0.3,0,0.5,0,0.7,0c0.1,0,0.1,0,0.2,0l0.2,0C5.2,1.2,5.3,1.2,5.3,1.2z M11.5,15c0-0.1,0-0.2,0-0.4c0-0.7-0.1-1.3-0.3-2
		c-0.1-0.5-0.3-0.8-0.8-2.1C10.2,10.1,9.9,9.3,9.9,9C9.6,7.8,9.5,7,9.8,6c0.2-0.6,0.4-1.2,0.7-1.7C10.6,4.1,10.6,4,10.6,4
		c0-0.2-0.1-0.2-0.6-0.5l-0.1,0C9.3,3.2,9.3,3.2,9.2,3.2l0,0c0,0,0,0-0.1,0c-0.1,0-0.2,0-0.6,0.6C7.9,4.6,7.8,4.7,7.5,5.2
		C7.5,5.4,7.3,5.7,7.2,6C6.9,6.5,6.8,6.7,6.6,7.2C6.4,7.7,6.2,8.1,6.1,8.5C6,8.9,6,9,5.9,9.1c-0.1,0.2-0.2,1.3-0.3,2.2
		c0,0.3,0,1.3,0,1.7c0.1,0.9,0.3,1.9,0.5,2.6l0.1,0.2C6.7,15.9,7.4,16,8,16c1.2,0,2.4-0.3,3.4-0.8L11.5,15z"/>
</g>
</svg>
