<?xml version="1.0" encoding="utf-8"?>
<!-- Generator: Adobe Illustrator 26.1.0, SVG Export Plug-In . SVG Version: 6.00 Build 0)  -->
<svg version="1.1" id="Layer_1" xmlns="http://www.w3.org/2000/svg" xmlns:xlink="http://www.w3.org/1999/xlink" x="0px" y="0px"
	 viewBox="0 0 16 16" style="enable-background:new 0 0 16 16;" xml:space="preserve">
<style type="text/css">
	.st0{fill:#EEAD56;}
	.st1{opacity:0.5;fill:#FFFFFF;enable-background:new    ;}
	.st2{fill:#EEAC55;}
	.st3{opacity:0.37;enable-background:new    ;}
</style>
<g id="icon">
	<g>
		<path class="st0" d="M0.5,9.5C0.4,9.7,0.3,10,0.3,10.2c-0.5,2.2-0.3,4,0.6,4.9C1.4,15.7,2.4,16,3.6,16c0.7,0,1.4-0.1,2.1-0.3
			c0.3-0.1,0.5-0.1,0.8-0.2C4.2,13.9,2,11.7,0.5,9.5z"/>
		<path class="st0" d="M8.6,0.8C6.8,1.4,5.2,2.5,3.8,3.8c-1.3,1.3-2.4,3-3.1,4.8c1.7,2.5,4.1,4.9,6.7,6.7c1.8-0.7,3.4-1.7,4.8-3.1
			c1.3-1.3,2.4-3,3.1-4.7C13.6,5,11.1,2.5,8.6,0.8z M11.4,5.4l-1,1l0.5,0.5c0.2,0.2,0.2,0.5,0,0.7c-0.1,0.1-0.2,0.1-0.4,0.1
			c-0.1,0-0.3,0-0.4-0.1L9.7,7.1l-1,1l0.5,0.5c0.2,0.2,0.2,0.5,0,0.7C9.1,9.3,9,9.3,8.9,9.3s-0.3,0-0.4-0.1L8,8.7l-1,1l0.5,0.5
			c0.2,0.2,0.2,0.5,0,0.7C7.4,11,7.3,11,7.2,11s-0.3,0-0.4-0.1l-0.5-0.5l-0.9,0.9c-0.1,0.1-0.2,0.1-0.4,0.1s-0.3,0-0.4-0.1
			c-0.2-0.2-0.2-0.5,0-0.7l0.9-0.9L5.2,9.2C5,9,5,8.7,5.2,8.5s0.5-0.2,0.7,0L6.4,9l1-1L6.8,7.5C6.6,7.3,6.6,7,6.8,6.8s0.5-0.2,0.7,0
			L8,7.3l1-1L8.5,5.9c-0.2-0.2-0.2-0.5,0-0.7C8.7,5,9,5,9.2,5.2l0.5,0.5l1-1c0.2-0.2,0.5-0.2,0.7,0C11.6,4.8,11.6,5.2,11.4,5.4z"/>
		<path class="st0" d="M15.1,0.9c-0.9-0.9-2.8-1.1-4.9-0.6C9.9,0.3,9.7,0.4,9.4,0.5c2.3,1.7,4.5,3.9,6.1,6.1
			c0.1-0.3,0.1-0.5,0.2-0.8C16.2,3.6,16,1.7,15.1,0.9z"/>
	</g>
	<path class="st1" d="M15.5,6.6c-0.1,0.3-0.2,0.6-0.3,0.9C13.6,5,11.1,2.5,8.6,0.8c0.3-0.1,0.6-0.2,0.9-0.3
		C11.8,2.1,13.9,4.3,15.5,6.6z M6.5,15.5c0.3-0.1,0.6-0.2,0.9-0.3c-2.6-1.8-5-4.2-6.7-6.7C0.6,8.9,0.5,9.2,0.5,9.5
		C2,11.7,4.2,13.9,6.5,15.5z"/>
	<path class="st2" d="M11.4,4.6c-0.2-0.2-0.5-0.2-0.7,0l-1,1L9.2,5.2C9,5,8.7,5,8.5,5.2c-0.2,0.2-0.2,0.5,0,0.7L9,6.3l-1,1L7.5,6.8
		C7.3,6.6,7,6.6,6.8,6.8C6.6,7,6.6,7.3,6.8,7.5L7.3,8l-1,1L5.9,8.5c-0.2-0.2-0.5-0.2-0.7,0C5,8.7,5,9,5.2,9.2l0.5,0.5l-0.9,0.9
		c-0.2,0.2-0.2,0.5,0,0.7c0.1,0.1,0.2,0.1,0.4,0.1s0.3,0,0.4-0.1l0.9-0.9l0.5,0.5C6.9,11,7.1,11,7.2,11s0.3,0,0.4-0.1
		c0.2-0.2,0.2-0.5,0-0.7L7.1,9.7l1-1l0.5,0.5c0.1,0.1,0.2,0.1,0.4,0.1s0.3,0,0.4-0.1c0.2-0.2,0.2-0.5,0-0.7L8.7,8l1-1l0.5,0.5
		c0.1,0.1,0.2,0.1,0.4,0.1c0.1,0,0.3,0,0.4-0.1c0.2-0.2,0.2-0.5,0-0.7l-0.5-0.5l1-1C11.6,5.2,11.6,4.8,11.4,4.6z"/>
	<path class="st3" d="M11.4,4.6c-0.2-0.2-0.5-0.2-0.7,0l-1,1L9.2,5.2C9,5,8.7,5,8.5,5.2c-0.2,0.2-0.2,0.5,0,0.7L9,6.3l-1,1L7.5,6.8
		C7.3,6.6,7,6.6,6.8,6.8C6.6,7,6.6,7.3,6.8,7.5L7.3,8l-1,1L5.9,8.5c-0.2-0.2-0.5-0.2-0.7,0C5,8.7,5,9,5.2,9.2l0.5,0.5l-0.9,0.9
		c-0.2,0.2-0.2,0.5,0,0.7c0.1,0.1,0.2,0.1,0.4,0.1s0.3,0,0.4-0.1l0.9-0.9l0.5,0.5C6.9,11,7.1,11,7.2,11s0.3,0,0.4-0.1
		c0.2-0.2,0.2-0.5,0-0.7L7.1,9.7l1-1l0.5,0.5c0.1,0.1,0.2,0.1,0.4,0.1s0.3,0,0.4-0.1c0.2-0.2,0.2-0.5,0-0.7L8.7,8l1-1l0.5,0.5
		c0.1,0.1,0.2,0.1,0.4,0.1c0.1,0,0.3,0,0.4-0.1c0.2-0.2,0.2-0.5,0-0.7l-0.5-0.5l1-1C11.6,5.2,11.6,4.8,11.4,4.6z"/>
</g>
</svg>
