<?xml version="1.0" encoding="utf-8"?>
<!-- Generator: Adobe Illustrator 26.1.0, SVG Export Plug-In . SVG Version: 6.00 Build 0)  -->
<svg version="1.1" id="Layer_1" xmlns="http://www.w3.org/2000/svg" xmlns:xlink="http://www.w3.org/1999/xlink" x="0px" y="0px"
	 viewBox="0 0 16 16" style="enable-background:new 0 0 16 16;" xml:space="preserve">
<style type="text/css">
	.st0{fill:#6485C3;}
	.st1{opacity:0.5;fill:#FFFFFF;enable-background:new    ;}
</style>
<g id="icon">
	<path class="st0" d="M15.9,6.9c-0.4-2.6-2.1-5-4.5-6.1C10.6,0.4,9.7,0.1,8.8,0C8.6,0,7.7,0,7.5,0l0,0c0,0-0.1,0-0.2,0
		C5.7,0.2,4.2,0.8,3,1.7C1.4,3,0.4,4.8,0.1,6.9C0,7.3,0,7.5,0,8s0,0.7,0.1,1.1c0.4,2.6,2.1,5,4.5,6.1c0.8,0.4,1.7,0.6,2.6,0.7
		c0.1,0,0.4,0,0.8,0c0.3,0,0.6,0,0.7,0c1.5-0.2,2.8-0.7,4-1.6c0.6-0.4,1.2-1,1.6-1.6c0.8-1.1,1.3-2.3,1.5-3.6C16,8.7,16,8.6,16,8
		S16,7.3,15.9,6.9z M5.1,6.6c-0.1,0.5-0.5,0.9-1,1C4,7.7,3.7,7.7,3.5,7.6C3.1,7.5,2.7,7.2,2.6,6.7c0-0.2,0-0.5,0-0.7
		C2.7,5.8,2.8,5.5,3,5.4C3.2,5.2,3.4,5.1,3.6,5C3.8,5,4,5,4.2,5C4.6,5.1,4.8,5.4,5,5.7C5.1,5.9,5.1,6,5.1,6.3
		C5.1,6.4,5.1,6.5,5.1,6.6z M6.2,4C6.1,3.8,6.1,3.7,6.1,3.5c0-0.2,0-0.3,0.1-0.5c0.1-0.3,0.3-0.4,0.5-0.6c0.2-0.1,0.4-0.2,0.6-0.2
		c0.1,0,0.3,0,0.4,0C8,2.3,8.2,2.4,8.4,2.5C8.4,2.6,8.5,2.8,8.6,3c0,0.1,0,0.4,0,0.6C8.4,3.9,8.2,4.2,7.8,4.4
		C7.6,4.5,7.5,4.6,7.2,4.6c-0.2,0-0.3,0-0.5-0.1C6.5,4.4,6.3,4.2,6.2,4z M8.8,8.7C8.5,9,8.2,9.1,7.7,9.1c-0.3,0-0.5-0.1-0.7-0.2
		C6.8,8.8,6.7,8.5,6.6,8.2c0-0.1,0-0.4,0-0.6c0.1-0.5,0.4-1,0.9-1.2c0.2-0.1,0.4-0.1,0.7-0.1c0.2,0,0.2,0,0.3,0
		C8.8,6.4,9,6.6,9.2,6.9C9.4,7.4,9.3,8.2,8.8,8.7z"/>
	<path class="st1" d="M6.6,8.2c0-0.1,0-0.4,0-0.6c0.1-0.5,0.4-1,0.9-1.2c0.2-0.1,0.4-0.1,0.7-0.1c0.2,0,0.2,0,0.3,0
		C8.8,6.4,9,6.6,9.2,6.9c0.3,0.6,0.2,1.3-0.3,1.8C8.5,9,8.2,9.1,7.7,9.1c-0.3,0-0.5-0.1-0.7-0.2C6.8,8.8,6.7,8.5,6.6,8.2z M4.2,5
		C4,5,3.8,5,3.6,5C3.4,5.1,3.2,5.2,3,5.4C2.8,5.5,2.7,5.8,2.6,6c-0.1,0.2-0.1,0.5,0,0.7c0.1,0.5,0.4,0.8,0.9,0.9
		c0.2,0.1,0.4,0,0.6,0c0.5-0.1,0.8-0.5,1-1c0-0.1,0-0.2,0-0.3c0-0.2,0-0.4-0.1-0.6C4.8,5.4,4.6,5.1,4.2,5z M7.2,4.6
		c0.3,0,0.4,0,0.6-0.1c0.4-0.2,0.7-0.5,0.8-0.9c0-0.2,0-0.4,0-0.6c0-0.1-0.1-0.3-0.2-0.4C8.2,2.4,8,2.3,7.8,2.2c-0.1,0-0.3,0-0.4,0
		c-0.2,0-0.4,0.1-0.6,0.2C6.5,2.6,6.3,2.7,6.2,3C6.1,3.2,6.1,3.3,6.1,3.5c0,0.2,0,0.4,0.1,0.5c0.1,0.2,0.3,0.4,0.5,0.4
		C6.9,4.5,6.9,4.6,7.2,4.6z"/>
</g>
</svg>
