<?xml version="1.0" encoding="utf-8"?>
<!-- Generator: Adobe Illustrator 26.1.0, SVG Export Plug-In . SVG Version: 6.00 Build 0)  -->
<svg version="1.1" id="Layer_1" xmlns="http://www.w3.org/2000/svg" xmlns:xlink="http://www.w3.org/1999/xlink" x="0px" y="0px"
	 viewBox="0 0 16 16" style="enable-background:new 0 0 16 16;" xml:space="preserve">
<style type="text/css">
	.st0{opacity:0.5;fill:#FFFFFF;enable-background:new    ;}
	.st1{fill:#EEAC55;}
	.st2{fill:#6D6E71;}
</style>
<g id="icon">
	<path class="st0" d="M15.1,3.2l-2.4-2.4c-0.5-0.5-1.2-0.5-1.7,0L0.8,11.1c-0.5,0.5-0.5,1.2,0,1.7l2.4,2.4c0.5,0.5,1.2,0.5,1.7,0
		L15.1,4.9C15.6,4.5,15.6,3.7,15.1,3.2z"/>
	<path class="st1" d="M4.1,16c-0.5,0-0.9-0.2-1.2-0.5l-2.4-2.4c-0.7-0.7-0.7-1.8,0-2.5L10.7,0.5C11,0.2,11.4,0,11.9,0
		c0.5,0,0.9,0.2,1.2,0.5l2.4,2.4c0.7,0.7,0.7,1.8,0,2.5L5.3,15.5C5,15.8,4.6,16,4.1,16z M11.9,1.1c-0.2,0-0.3,0.1-0.5,0.2L1.3,11.4
		c-0.2,0.2-0.2,0.7,0,0.9l2.4,2.4c0.1,0.1,0.3,0.2,0.5,0.2s0.3-0.1,0.5-0.2L14.7,4.6c0.2-0.2,0.2-0.7,0-0.9l-2.4-2.4
		C12.2,1.2,12.1,1.1,11.9,1.1z"/>
	<path class="st0" d="M15.2,11.1c0.5,0.5,0.5,1.2,0,1.7l-2.4,2.4c-0.5,0.5-1.2,0.5-1.7,0l-2-2l4.1-4.1L15.2,11.1z M2.9,6.9l4.1-4.1
		l-2-2c-0.5-0.5-1.2-0.5-1.7,0L0.9,3.2c-0.5,0.5-0.5,1.2,0,1.7L2.9,6.9z"/>
	<path class="st1" d="M0.5,5.3c-0.7-0.7-0.7-1.8,0-2.5l2.4-2.4C3.2,0.2,3.6,0,4.1,0S5,0.2,5.3,0.5l2,2L6.5,3.2l-2-2
		C4.4,1.2,4.3,1.1,4.1,1.1S3.8,1.2,3.7,1.3L1.3,3.7C1,3.9,1,4.3,1.3,4.6l2,2L2.5,7.3L0.5,5.3z M13.5,8.7l-0.8,0.8l2,2
		c0.2,0.2,0.2,0.7,0,0.9l-2.4,2.4c-0.1,0.1-0.3,0.2-0.5,0.2s-0.3-0.1-0.5-0.2l-2-2l-0.8,0.8l2,2c0.3,0.3,0.8,0.5,1.2,0.5
		s0.9-0.2,1.2-0.5l2.4-2.4c0.7-0.7,0.7-1.8,0-2.5L13.5,8.7z"/>
	<path class="st2" d="M4.4,9.3L5,8.7l2.3,2.3l-0.6,0.6L4.4,9.3z M8.7,5l0.6-0.6l2.3,2.3l-0.6,0.6L8.7,5z"/>
	<path class="st2" d="M8.1,9.8c-0.1,0-0.3-0.1-0.4-0.2L7.6,9.6C7.4,9.3,7.4,9,7.6,8.8c0.2-0.2,0.6-0.2,0.8,0l0.1,0.1
		c0.2,0.2,0.2,0.6,0,0.8C8.4,9.8,8.2,9.8,8.1,9.8z M9.3,8.7C9.1,8.7,9,8.6,8.9,8.5L8.7,8.4c-0.2-0.2-0.2-0.6,0-0.8
		c0.2-0.2,0.6-0.2,0.8,0l0.1,0.1c0.2,0.2,0.2,0.6,0,0.8C9.5,8.6,9.4,8.7,9.3,8.7z M6.9,8.7c-0.1,0-0.3-0.1-0.4-0.2L6.4,8.4
		c-0.2-0.2-0.2-0.6,0-0.8c0.2-0.2,0.6-0.2,0.8,0l0.1,0.1c0.2,0.2,0.2,0.6,0,0.8C7.2,8.6,7.1,8.7,6.9,8.7z M8.1,7.5
		c-0.1,0-0.3-0.1-0.4-0.2L7.6,7.2C7.4,7,7.4,6.7,7.6,6.4c0.2-0.2,0.6-0.2,0.8,0l0.1,0.1c0.2,0.2,0.2,0.6,0,0.8
		C8.4,7.4,8.2,7.5,8.1,7.5z"/>
</g>
</svg>
