<?xml version="1.0" encoding="utf-8"?>
<!-- Generator: Adobe Illustrator 26.1.0, SVG Export Plug-In . SVG Version: 6.00 Build 0)  -->
<svg version="1.1" id="Layer_1" xmlns="http://www.w3.org/2000/svg" xmlns:xlink="http://www.w3.org/1999/xlink" x="0px" y="0px"
	 viewBox="0 0 16 16" style="enable-background:new 0 0 16 16;" xml:space="preserve">
<style type="text/css">
	.st0{opacity:0.5;fill:#FFFFFF;enable-background:new    ;}
	.st1{fill:#6486C4;}
	.st2{fill:#F1876B;}
	.st3{opacity:0.15;fill:#211F20;enable-background:new    ;}
</style>
<g id="icon">
	<path class="st0" d="M9.5,5.3c-0.1-0.3-0.5-1.1-0.8-2C8.8,3,8.9,2.7,9,2.4l0.8-1.9h1.9c1,0,1.9,0,1.9,0c0,0-0.6,1.5-1.3,3.2
		c-0.6,1.6-1,2.4-1.1,2.8c-0.1,0-0.1-0.1-0.2-0.1C10.6,6.2,10.2,6,9.7,5.8L9.5,5.3z M7.6,5.5c0.1,0,0.3,0,0.4,0c0.1,0,0.2,0,0.3,0
		c-0.2-0.5-0.5-1.4-1-2.4L6.2,0.5H4.3c-1,0-1.9,0-1.9,0c0,0,1.9,4.6,2.4,6C5.6,6,6.6,5.6,7.6,5.5z"/>
	<path class="st1" d="M14.1,0.5c0,0.1,0,0.1-0.4,1.1c-0.2,0.6-0.6,1.4-0.9,2.3c-0.7,1.8-1.1,2.6-1.2,2.9c-0.2-0.1-0.4-0.3-0.5-0.4
		c-0.1,0-0.1-0.1-0.2-0.1c0.2-0.5,0.6-1.4,1.1-2.8c0.4-1.1,0.8-2,1.1-2.6c-0.3,0-0.7,0-1.2,0h-1.6L9.4,2.6C9.2,3.1,9,3.5,8.9,3.8
		C8.8,3.4,8.6,3.1,8.5,2.7l0-0.1c0-0.1,0.1-0.2,0.2-0.4L9.5,0h2.2c0.5,0,1,0,1.3,0c0.2,0,0.3,0,0.4,0c0.1,0,0.1,0,0.1,0
		C13.9,0,14.1,0.2,14.1,0.5z M3.3,3.8c0.6,1.5,1,2.5,1.2,3C4.7,6.6,5,6.4,5.2,6.2C4.8,5.2,3.6,2.2,3.1,0.9c0.3,0,0.7,0,1.2,0h1.6
		l1,2.4C7.3,4.2,7.6,5,7.8,5.5c0.1,0,0.1,0,0.2,0c0.3,0,0.5,0,0.8,0.1l0,0C8.6,5.2,8.2,4.1,7.7,3L6.5,0H4.3C3.8,0,3.3,0,3,0
		C2.8,0,2.6,0,2.6,0C2.5,0,2.5,0,2.4,0C2.1,0,2,0.2,2,0.5c0,0.1,0,0.1,0.4,1.2C2.6,2.2,3,3,3.3,3.8z"/>
	<path class="st0" d="M7.7,6.9C6.8,7,6,7.3,5.3,7.8C5.1,8,4.8,8.3,4.6,8.5C4.4,8.8,4.1,9.3,4,9.7c-0.1,0.3-0.2,0.7-0.3,1.1
		c0,0.3,0,0.8,0,1.1c0.1,0.8,0.4,1.5,0.9,2.1c0.1,0.2,0.5,0.5,0.7,0.7c1.4,1.1,3.3,1.2,4.8,0.4c0.4-0.2,0.7-0.4,1-0.7
		c0.3-0.3,0.6-0.7,0.8-1.1c0.1-0.3,0.2-0.5,0.3-0.9c0.1-0.4,0.1-0.6,0.1-1.1c0-0.4,0-0.6-0.1-0.9c-0.2-1.1-0.9-2.1-1.9-2.7
		C9.5,7.1,8.6,6.8,7.7,6.9z"/>
	<path class="st2" d="M8,16c-1.1,0-2.1-0.4-3-1.1c-0.2-0.2-0.6-0.5-0.8-0.8c-0.5-0.7-0.9-1.4-1-2.3c0-0.3-0.1-0.9,0-1.2
		c0-0.4,0.1-0.8,0.3-1.2C3.7,9.1,4,8.6,4.2,8.2C4.4,8,4.8,7.6,5,7.4c0.8-0.6,1.7-1,2.7-1c1-0.1,2,0.2,2.9,0.7
		c1.1,0.7,1.9,1.8,2.1,3.1c0.1,0.4,0.1,0.6,0.1,1c0,0.5,0,0.7-0.1,1.2c-0.1,0.4-0.2,0.6-0.4,1c-0.2,0.5-0.5,0.9-0.9,1.3
		c-0.3,0.3-0.7,0.6-1.1,0.8C9.6,15.8,8.8,16,8,16z M8,7.4c-0.1,0-0.2,0-0.3,0h0C7,7.4,6.2,7.7,5.6,8.2C5.5,8.3,5.1,8.7,5,8.8
		c-0.2,0.3-0.5,0.7-0.6,1c-0.1,0.3-0.2,0.6-0.2,0.9c0,0.2,0,0.7,0,1C4.3,12.4,4.6,13,5,13.6c0.1,0.1,0.4,0.5,0.6,0.6
		c1.2,0.9,2.9,1.1,4.2,0.4c0.3-0.2,0.6-0.4,0.9-0.7c0.3-0.3,0.5-0.6,0.7-1c0.1-0.3,0.2-0.5,0.3-0.8c0.1-0.4,0.1-0.5,0.1-0.9
		c0-0.4,0-0.5-0.1-0.8c-0.2-1-0.8-1.9-1.7-2.4C9.4,7.6,8.7,7.4,8,7.4z"/>
	<path class="st3" d="M8,16c-1.1,0-2.1-0.4-3-1.1c-0.2-0.2-0.6-0.5-0.8-0.8c-0.5-0.7-0.9-1.4-1-2.3c0-0.3-0.1-0.9,0-1.2
		c0-0.4,0.1-0.8,0.3-1.2C3.7,9.1,4,8.6,4.2,8.2C4.4,8,4.8,7.6,5,7.4c0.8-0.6,1.7-1,2.7-1c1-0.1,2,0.2,2.9,0.7
		c1.1,0.7,1.9,1.8,2.1,3.1c0.1,0.4,0.1,0.6,0.1,1c0,0.5,0,0.7-0.1,1.2c-0.1,0.4-0.2,0.6-0.4,1c-0.2,0.5-0.5,0.9-0.9,1.3
		c-0.3,0.3-0.7,0.6-1.1,0.8C9.6,15.8,8.8,16,8,16z M8,7.4c-0.1,0-0.2,0-0.3,0h0C7,7.4,6.2,7.7,5.6,8.2C5.5,8.3,5.1,8.7,5,8.8
		c-0.2,0.3-0.5,0.7-0.6,1c-0.1,0.3-0.2,0.6-0.2,0.9c0,0.2,0,0.7,0,1C4.3,12.4,4.6,13,5,13.6c0.1,0.1,0.4,0.5,0.6,0.6
		c1.2,0.9,2.9,1.1,4.2,0.4c0.3-0.2,0.6-0.4,0.9-0.7c0.3-0.3,0.5-0.6,0.7-1c0.1-0.3,0.2-0.5,0.3-0.8c0.1-0.4,0.1-0.5,0.1-0.9
		c0-0.4,0-0.5-0.1-0.8c-0.2-1-0.8-1.9-1.7-2.4C9.4,7.6,8.7,7.4,8,7.4z"/>
</g>
</svg>
