<?xml version="1.0" encoding="utf-8"?>
<!-- Generator: Adobe Illustrator 26.1.0, SVG Export Plug-In . SVG Version: 6.00 Build 0)  -->
<svg version="1.1" id="Layer_1" xmlns="http://www.w3.org/2000/svg" xmlns:xlink="http://www.w3.org/1999/xlink" x="0px" y="0px"
	 viewBox="0 0 16 16" style="enable-background:new 0 0 16 16;" xml:space="preserve">
<style type="text/css">
	.st0{opacity:0.5;fill:#FFFFFF;enable-background:new    ;}
	.st1{fill:#6D6E71;}
	.st2{fill:#CB535D;}
</style>
<g id="icon">
	<path class="st0" d="M15.5,15.3c-0.1-1.1-0.4-2.1-1-3c-0.7-1-2.1-2.2-3.5-2.7c0,0-0.5-0.6-0.8-0.7c-0.6,0.7-1.4,1-2.1,1
		c-0.8,0-1.5-0.4-2.1-1.1C5.6,9,5,9.5,5,9.5c-3.4,1.4-4.4,4.3-4.5,5.8l0,0.1h14.9L15.5,15.3z"/>
	<path class="st0" d="M11.5,4.3c0,2.4-1.6,5.2-3.5,5.2S4.5,6.7,4.5,4.3S6.1,0.5,8,0.5S11.5,1.9,11.5,4.3z"/>
	<path class="st1" d="M8,10c-1.1,0-2.2-0.7-3-1.9C4.4,7,3.9,5.6,3.9,4.3c0-1.3,0.4-2.4,1.2-3.2C5.9,0.4,6.9,0,8,0s2.2,0.4,2.9,1.1
		c0.8,0.8,1.2,1.9,1.2,3.2c0,1.3-0.4,2.7-1.1,3.8C10.2,9.3,9.1,10,8,10z M8,1.3c-1.7,0-2.8,1.2-2.8,3c0,2,1.3,4.5,2.8,4.5
		s2.8-2.5,2.8-4.5C10.8,2.5,9.7,1.3,8,1.3z"/>
	<path class="st2" d="M8,10.7c-0.7,0-0.8-0.1-0.8,0.5c0,0.3,0.1,0.4,0.3,0.7c0,0.5-0.2,2.7-0.3,3.8c0.3,0,0.5,0,0.8,0
		c0.3,0,0.5,0,0.8,0c-0.1-1-0.3-3.3-0.3-3.8c0.3-0.3,0.3-0.4,0.3-0.7C8.9,10.6,8.8,10.7,8,10.7z"/>
	<path class="st1" d="M16,15.3c-0.1-1.5-0.9-4.3-4.5-5.7L11,9.4c-0.1,0.1-0.2,0.2-0.2,0.3c-0.2,0.3-0.5,0.5-0.8,0.7
		c0.4,0.1,1.3,0.5,1.6,0.6c2,1,2.8,2.4,3,3.7H1.5c0.3-1.3,1-2.7,3-3.7c0.2-0.1,1.2-0.5,1.5-0.6C5.8,10.2,5.5,10,5.3,9.7
		C5.2,9.6,5.1,9.5,5.1,9.4L4.6,9.6c-3.7,1.5-4.4,4.2-4.5,5.7l0,0.4C0,15.9,0.1,16,0.3,16h15.5c0.1,0,0.3-0.1,0.3-0.3L16,15.3z"/>
	<polygon class="st1" points="7.2,15 6.4,15 5.2,10.4 6,10.4 	"/>
	<polygon class="st1" points="8.8,15 9.6,15 10.8,10.4 10,10.4 	"/>
	<path class="st1" d="M11.2,4C10,2.9,9.4,3.2,8.8,3.4C8.6,3.5,8.3,3.7,7.9,3.7C7.6,3.7,7.3,3.5,7,3.4C6.4,3.1,5.9,2.9,4.8,4L4.3,3.5
		c1.5-1.4,2.4-1,3.1-0.7c0.2,0.1,0.4,0.2,0.6,0.2c0.2,0,0.4-0.1,0.6-0.2c0.7-0.3,1.6-0.7,3.1,0.7L11.2,4z"/>
</g>
</svg>
