<?xml version="1.0" encoding="utf-8"?>
<!-- Generator: Adobe Illustrator 26.1.0, SVG Export Plug-In . SVG Version: 6.00 Build 0)  -->
<svg version="1.1" id="Layer_1" xmlns="http://www.w3.org/2000/svg" xmlns:xlink="http://www.w3.org/1999/xlink" x="0px" y="0px"
	 viewBox="0 0 16 16" style="enable-background:new 0 0 16 16;" xml:space="preserve">
<style type="text/css">
	.st0{fill:#6E6F72;}
</style>
<g id="icon">
	<path class="st0" d="M7.2,8H0.5C0.3,8,0.1,7.9,0,7.7c-0.1-0.2,0-0.4,0.1-0.5L6,1H0.6C0.3,1,0.1,0.8,0.1,0.5S0.3,0,0.6,0h6.6
		c0.2,0,0.4,0.1,0.5,0.3c0.1,0.2,0,0.4-0.1,0.5L1.7,7h5.5c0.3,0,0.5,0.2,0.5,0.5S7.5,8,7.2,8z"/>
	<path class="st0" d="M15.5,12H9.8c-0.2,0-0.4-0.1-0.5-0.3c-0.1-0.2,0-0.4,0.1-0.5L14.3,6H9.9C9.6,6,9.4,5.8,9.4,5.5S9.6,5,9.9,5
		h5.6c0.2,0,0.4,0.1,0.5,0.3c0.1,0.2,0,0.4-0.1,0.5L11,11h4.5c0.3,0,0.5,0.2,0.5,0.5S15.8,12,15.5,12z"/>
	<path class="st0" d="M6.4,16H2.7c-0.2,0-0.4-0.1-0.5-0.3c-0.1-0.2,0-0.4,0.1-0.5l3-3.2H2.8c-0.3,0-0.5-0.2-0.5-0.5S2.5,11,2.8,11
		h3.6c0.2,0,0.4,0.1,0.5,0.3c0.1,0.2,0,0.4-0.1,0.5l-3,3.2h2.6c0.3,0,0.5,0.2,0.5,0.5S6.7,16,6.4,16z"/>
</g>
</svg>
