<?xml version="1.0" encoding="utf-8"?>
<!-- Generator: Adobe Illustrator 26.1.0, SVG Export Plug-In . SVG Version: 6.00 Build 0)  -->
<svg version="1.1" id="Layer_1" xmlns="http://www.w3.org/2000/svg" xmlns:xlink="http://www.w3.org/1999/xlink" x="0px" y="0px"
	 viewBox="0 0 16 16" style="enable-background:new 0 0 16 16;" xml:space="preserve">
<style type="text/css">
	.st0{opacity:0.5;fill:#FFFFFF;enable-background:new    ;}
	.st1{fill:#6486C4;}
	.st2{fill:#6E6F72;}
</style>
<g id="icon">
	<path class="st0" d="M8,8.1C7.6,7.8,7.3,7.6,7.1,7.6C6.9,7.5,6.8,7.4,6.5,7.1c-0.2-0.2-1-1-1.3-1.3L5,5.5l0.3-0.9
		C5.4,4.4,5.6,4,5.7,3.8C5.5,3.7,5.3,3.5,5.2,3.4C4.8,3.1,4.6,2.7,4.5,2.3C4.2,3.2,3.3,5.4,3.3,5.6c0,0.1,0,0.1,0,0.2
		c0,0.1,0,0.3,0.1,0.4c0,0.1,0.1,0.1,0.2,0.3c0.8,0.9,1.6,1.8,2,2.3C5.7,8.9,5.8,9,5.8,9.1c0,0,0,0-0.2,0.6
		c-0.3,1.2-0.7,2.5-0.9,3.3c0.3-0.2,0.5-0.2,0.8-0.2l0,0c0.2,0,0.5,0,0.7,0.2c0.3,0.1,0.5,0.4,0.8,0.7c0.3,0.4,0.4,0.4,0.5,0.4
		c0,0,0.1,0,0.4-0.4c0.1-0.1,0.1-0.2,0.2-0.3c0.1-0.9,0.3-2,0.4-2.4c0.2-0.8,0.3-1.2,0.3-1.5C8.9,9,8.6,8.6,8,8.1z"/>
	<path class="st1" d="M5.9,8.5c0.2,0.3,0.3,0.5,0.3,0.6c0,0.1,0,0.1-0.2,0.8c-0.2,0.7-0.4,1.4-0.5,2L5.2,13l-0.1,0
		c-0.1,0-0.3,0.1-0.4,0.2c-0.1,0-0.1,0.1-0.1,0.1l0,0c0,0,0,0,0,0l-0.4,0.4l0.1-0.6c0.1-0.3,0.2-0.8,0.4-1.6
		c0.2-0.7,0.4-1.4,0.5-2.1c0.1-0.3,0.1-0.4,0.1-0.5c0,0-0.1-0.1-0.1-0.2C4.9,8.5,4.1,7.6,3.3,6.7C3.1,6.5,3,6.4,3,6.3
		C2.9,6.1,2.8,5.9,2.8,5.7c0-0.1,0-0.2,0-0.2c0,0,0,0,0,0c0.1-0.2,1.3-3.6,1.4-3.7c0-0.1,0.1-0.2,0.2-0.3c-0.1,0.5,0,1,0.3,1.4
		c-0.4,1-1,2.6-1.1,2.8c0,0,0,0.1,0,0.1c0,0,0,0.1,0.1,0.2c0,0,0,0.1,0.2,0.2C4.7,7,5.6,8,5.9,8.5z"/>
	<path class="st1" d="M9.3,9.5c0-0.7-0.3-1.2-1.1-1.8c-0.4-0.3-0.7-0.5-1-0.6c-0.1,0-0.2-0.1-0.5-0.4c-0.2-0.2-1-1-1.2-1.3L5.5,5.4
		l0.2-0.7C5.8,4.5,6,4.2,6.1,3.9C5.8,3.8,5.6,3.7,5.3,3.5C5.2,3.8,5,4.2,4.9,4.5L4.6,5.4c0,0.1,0,0.3,0.1,0.4l0.2,0.3
		C5.2,6.4,6,7.2,6.2,7.4C6.5,7.7,6.7,7.9,6.9,8C7.1,8,7.4,8.2,7.7,8.4c0.6,0.4,0.8,0.7,0.8,1.1c0,0.3-0.1,0.6-0.3,1.3
		C8.1,11.2,8,11.7,8,12.3c-0.1,0.5-0.1,1-0.2,1.3l0,0.1l0.3,0.1l0,0c0.2-0.2,0.3-0.4,0.5-0.5l0.1,0l0-0.1c0-0.2,0.1-0.4,0.1-0.7
		c0.1-0.5,0.1-1.1,0.2-1.3C9.3,10.4,9.4,9.9,9.3,9.5z"/>
	<path class="st0" d="M6.7,3C6.4,3,6.1,2.9,5.9,2.6C5.5,2.2,5.4,1.6,5.7,1.1C5.8,1,5.9,0.8,6.1,0.7c0.2-0.1,0.3-0.2,0.5-0.2
		c0,0,0.1,0,0.1,0c0.2,0,0.4,0,0.6,0.1C7.7,0.8,8,1.3,8,1.8c0,0.4-0.2,0.7-0.5,0.9C7.3,2.9,7,3,6.7,3L6.7,3z"/>
	<path class="st2" d="M7.5,0.2C7.2,0.1,7,0.1,6.7,0.1c-0.1,0-0.1,0-0.2,0C6.3,0.1,6,0.2,5.8,0.3C5.7,0.5,5.4,0.7,5.3,0.9
		C4.9,1.5,5,2.4,5.6,2.9c0.3,0.3,0.7,0.5,1.2,0.5c0.4,0,0.7-0.1,1-0.3c0.4-0.3,0.6-0.8,0.7-1.3C8.4,1.1,8.1,0.5,7.5,0.2z M7.2,2.4
		C7.1,2.5,6.9,2.6,6.7,2.6c-0.2,0-0.4-0.1-0.6-0.2c-0.3-0.3-0.3-0.7-0.1-1c0-0.1,0.2-0.2,0.2-0.2C6.4,1,6.5,0.9,6.7,0.9
		c0,0,0,0,0.1,0C6.8,0.9,7,1,7.1,1c0.3,0.1,0.5,0.4,0.5,0.8C7.5,2,7.4,2.2,7.2,2.4z"/>
	<path class="st2" d="M7.8,15.8c-0.5,0-0.9-0.2-1.4-0.8c-0.1-0.2-0.3-0.3-0.4-0.4c0,0,0,0-0.1,0l0,0c-0.1,0-0.1,0-0.2,0.1
		c-0.1,0-0.1,0.1-0.1,0.1c0,0-0.1,0.2-0.2,0.2l0,0c-0.4,0.5-0.7,0.8-1.3,0.8c-0.6,0-0.9-0.3-1.3-0.8c-0.3-0.3-0.4-0.4-0.5-0.4
		c0,0-0.2,0-0.2,0c-0.1,0.1-0.3,0.2-0.5,0.4c-0.1,0.1-0.2,0.2-0.3,0.3L1,15.4l-0.6-0.6l0.1-0.1c0,0,0.1-0.1,0.2-0.2
		c0.3-0.4,0.6-0.6,0.9-0.7c0.1,0,0.1,0,0.2,0c0.2,0,0.5,0,0.6,0.1c0.2,0.1,0.5,0.3,0.7,0.6C3.6,14.9,3.7,15,3.9,15
		c0.2,0,0.3,0,0.7-0.5c0.2-0.3,0.3-0.3,0.3-0.4l0,0c0,0,0,0,0.1-0.1c0.3-0.2,0.5-0.3,0.8-0.3l0,0c0.2,0,0.4,0,0.6,0.1
		c0.2,0.1,0.5,0.3,0.7,0.6C7.4,14.9,7.6,15,7.8,15c0.1,0,0.3,0,0.6-0.5c0.4-0.5,0.7-0.8,1.3-0.8c0.2,0,0.4,0,0.6,0.1
		c0.2,0.1,0.5,0.3,0.7,0.6c0.2,0.2,0.3,0.3,0.5,0.4c0,0,0.1,0,0.2,0c0.1,0,0.2,0,0.2,0c0.1-0.1,0.3-0.2,0.5-0.5
		c0.4-0.5,0.7-0.7,1.2-0.7h0c0.3,0,0.4,0,0.6,0.1c0.2,0.1,0.4,0.3,0.6,0.6c0.2,0.2,0.2,0.2,0.4,0.3c0.2,0.1,0.4,0.2,0.5,0.2l0.2,0
		l-0.1,0.9l-0.2,0c-0.2,0-0.6-0.1-0.8-0.3c-0.3-0.1-0.4-0.3-0.6-0.5c-0.1-0.2-0.3-0.3-0.4-0.4c0,0,0,0-0.1,0h0c-0.2,0-0.3,0-0.6,0.4
		c-0.3,0.4-0.5,0.6-0.7,0.7c-0.2,0.1-0.5,0.1-0.6,0.1c-0.2,0-0.4,0-0.6-0.1c-0.2-0.1-0.5-0.3-0.7-0.6c-0.2-0.2-0.3-0.4-0.5-0.4
		c0,0,0,0,0,0c0,0,0,0-0.1,0c-0.2,0-0.3,0-0.6,0.4C8.7,15.5,8.3,15.8,7.8,15.8L7.8,15.8L7.8,15.8L7.8,15.8z"/>
	<path class="st0" d="M9.4,7C9,7,8.5,6.8,8.2,6.5C8.1,6.3,7.9,6.1,7.8,5.9C7.7,5.4,7.7,5,7.9,4.6c0.2-0.5,0.7-0.8,1.2-0.9
		c0.1,0,0.2,0,0.3,0c0.2,0,0.4,0,0.5,0.1c0.5,0.2,0.9,0.5,1.1,1c0.2,0.4,0.2,0.8,0,1.2C10.7,6.5,10.2,7,9.4,7C9.5,7,9.4,7,9.4,7z"/>
	<path class="st1" d="M11.4,4.5c-0.2-0.6-0.7-1-1.3-1.2C9.9,3.2,9.6,3.2,9.4,3.2c-0.1,0-0.2,0-0.3,0C8.4,3.3,7.8,3.7,7.5,4.4
		C7.3,4.9,7.2,5.5,7.4,6c0.1,0.3,0.3,0.6,0.5,0.8c0.4,0.4,1,0.6,1.5,0.6c0,0,0.1,0,0.1,0c0.9,0,1.6-0.6,1.9-1.4
		C11.6,5.6,11.6,5,11.4,4.5z M10.6,5.8C10.4,6.2,10,6.5,9.5,6.6c0,0,0,0-0.1,0c-0.3,0-0.7-0.1-0.9-0.4C8.4,6.1,8.3,5.9,8.2,5.7
		C8.1,5.4,8.2,5,8.3,4.7c0.2-0.4,0.5-0.6,0.9-0.7c0.1,0,0.1,0,0.2,0c0.1,0,0.3,0,0.4,0.1c0.4,0.1,0.6,0.4,0.8,0.7
		C10.7,5.1,10.7,5.5,10.6,5.8z"/>
	<path class="st0" d="M14.4,10.4c-0.1-0.1-0.3-0.1-0.3-0.1c-0.1,0-1.2-0.3-1.7-0.4l-1.6-0.4l-0.8-0.4C10,9,9.9,9,9.9,9
		c0,0.2,0.1,0.4,0.1,0.5c0,0.4,0,0.7-0.2,1.3c0,0,0.1,0,0.1,0c0.1,0,0.5,0.1,0.7,0.1c0.1,0,1,0.2,1.7,0.4l0.2,0
		c1,0.2,1.3,0.3,1.5,0.3l0,0c0.1,0,0.1,0,0.2,0l0,0c0.3-0.1,0.5-0.2,0.5-0.5C14.8,10.8,14.7,10.5,14.4,10.4z"/>
	<path class="st1" d="M14.6,10c-0.1-0.1-0.4-0.1-0.5-0.1c-0.1,0-0.3-0.1-1.6-0.4L11,9.1l-0.7-0.4c-0.2-0.1-0.4-0.2-0.6-0.3
		c0.2,0.3,0.3,0.7,0.3,1.1l0.7,0.4c0,0,0.1,0,0.1,0l1.6,0.4c1.5,0.4,1.7,0.4,1.8,0.4c0,0,0.1,0,0.1,0c0.1,0.1,0.2,0.2,0.1,0.3
		c0,0,0,0.1-0.2,0.2l0,0c0,0,0,0,0,0c-0.1,0-0.5-0.1-1.4-0.3l-0.2,0c-0.1,0-1.6-0.3-1.8-0.4c-0.2,0-0.6-0.1-0.6-0.1l0,0
		c-0.1,0-0.1,0-0.1-0.1c0,0.2-0.1,0.5-0.2,0.8c0,0,0,0,0,0l0,0c0.2,0.1,0.6,0.2,0.8,0.2c0.1,0,0.8,0.2,1.7,0.3l0.2,0
		c1.1,0.2,1.4,0.3,1.6,0.3l0,0c0.1,0,0.2,0,0.3,0l0,0c0.4-0.1,0.7-0.4,0.8-0.8C15.3,10.8,15.1,10.2,14.6,10z"/>
</g>
</svg>
