<?xml version="1.0" encoding="utf-8"?>
<!-- Generator: Adobe Illustrator 26.1.0, SVG Export Plug-In . SVG Version: 6.00 Build 0)  -->
<svg version="1.1" id="Layer_1" xmlns="http://www.w3.org/2000/svg" xmlns:xlink="http://www.w3.org/1999/xlink" x="0px" y="0px"
	 viewBox="0 0 16 16" style="enable-background:new 0 0 16 16;" xml:space="preserve">
<style type="text/css">
	.st0{fill:#6E6F72;}
	.st1{fill:#6485C3;}
</style>
<g id="icon">
	<path class="st0" d="M13,7.1C12.8,7,12.4,6.9,12.1,7c-0.3,0-0.6,0.1-0.8,0.3c-0.4,0.2-0.7,0.7-0.8,1.1c0,0.1,0,0.2,0,0.4
		c0,0.2,0,0.2,0,0.4c0.1,0.3,0.3,0.5,0.6,0.6c0.2,0.1,0.2,0.1,0.4,0.1c0,0,0,0,0.1,0c0.2,0,0.2,0,0.4,0c0.6-0.1,1-0.4,1.2-1
		C13.7,8.1,13.5,7.4,13,7.1z"/>
	<path class="st1" d="M10.4,15.8c-0.2,0-0.4-0.1-0.5-0.2c-0.2-0.1-0.3-0.3-0.3-0.5c-0.1-0.2,0-0.3,0.2-1.8c0.1-0.8,0.2-1.2,0.2-1.3
		c-0.1,0-1.2-0.5-1.2-0.5c-1-0.4-1.3-0.5-1.4-0.6c-0.3-0.2-0.6-0.4-0.8-0.7c-0.2-0.3-0.3-0.7-0.3-1c0-0.2,0.2-0.5,0.9-2.4
		c0.2-0.4,0.3-0.6,0.3-0.8C7.5,6.1,7.4,6.1,7.2,6C7,5.9,6.8,5.9,6.8,5.9C6.7,6,6.6,6.2,6.2,6.7l0,0c-0.6,0.9-0.7,1-0.9,1.1
		C5.2,7.8,5.1,7.9,5,7.9c-0.1,0-0.1,0-0.2,0c-0.4-0.1-0.7-0.5-0.6-1c0-0.1,0-0.1,0.1-0.2C4.3,6.6,4.7,6,5,5.5c0.6-1,0.7-1.1,0.8-1.2
		C5.9,4.1,6.1,4.1,6.2,4c0,0,0.1,0,0.2,0c0,0,0,0,0,0c0,0,0.5,0.1,1.2,0.1c0.7,0.1,1.2,0.1,1.3,0.1c0.2,0,0.5,0.1,0.7,0.1
		c0.1,0,0.2,0.1,0.4,0.1c0.5,0.2,0.8,0.5,0.9,0.8C11,5.5,11,5.6,11,5.7c0,0.1,0,0.2,0,0.3c0,0.1,0,0.2-0.1,0.3
		c0,0.1-0.4,0.9-0.7,1.7C10,8.3,9.9,8.7,9.7,9C9.7,9.1,9.6,9.3,9.6,9.3c0,0,0,0,0,0c0.1,0.1,0.4,0.2,0.9,0.5c0.5,0.2,1,0.5,1.1,0.6
		c0.1,0.1,0.2,0.2,0.3,0.3c0.1,0.1,0.2,0.3,0.2,0.5l0,0c0.1,0.2,0.1,0.2-0.4,2l0,0.1c-0.2,0.8-0.4,1.7-0.4,1.8
		C11.1,15.5,10.8,15.8,10.4,15.8z"/>
	<path class="st0" d="M12.7,2.9c-0.3-0.4-0.6-0.2-0.8,0l-0.1,0l-0.2-0.1c0,0-0.1,0-0.1,0c0,0,0-0.1,0-0.2c0,0,0-0.1,0-0.2
		c0.1-0.1,0.2-0.1,0.3-0.2c0.1,0,0.3,0,0.4,0.1c0.1,0.1,0.3,0.2,0.5,0.1c0.1,0,0.2-0.1,0.2-0.3c0,0,0-0.1,0-0.3
		c-0.1-0.8-0.7-1.5-1.5-1.7C11,0,10.6,0,10.4,0.1l0,0C10,0.2,9.6,0.3,9.4,0.6C8.7,1.3,8.6,2.3,9.1,3.1l0.2,0.3l0.2,0
		c0.1,0.3,0.3,0.4,0.6,0.5c0,0,0.2,0.1,0.3,0.1c0.3,0.1,0.6,0.2,1,0.4L12,4.6l0.2-0.3c0.2-0.2,0.4-0.6,0.5-0.8
		C12.8,3.4,12.9,3.1,12.7,2.9z"/>
	<path class="st1" d="M13.4,9.1c0.1-0.1,0.2-0.2,0.2-0.4c0.4-0.8,0.2-1.6-0.4-2c-0.2-0.1-0.5-0.2-0.7-0.2c-0.1,0-0.1,0-0.2,0
		c-0.1,0-0.1,0-0.2,0l-0.4,0.1l0.1-0.4c0,0,0,0,0-0.1l0,0c0-0.1,0.1-0.2,0.1-0.4c0-0.1,0-0.2,0-0.3l0-0.4l0.7,0.4
		c1.2,0.7,2.1,1.2,2.2,1.3c0.2,0.1,0.4,0.4,0.4,0.7c0,0.3-0.1,0.6-0.3,0.7C14.7,8.5,14.1,9,14,9.2c-0.1,0.1-0.2,0.2-0.3,0.2
		c-0.1,0-0.1,0-0.2,0.1L13,9.6L13.4,9.1z"/>
	<path class="st1" d="M5.1,13.7c-0.3,0-0.8,0-1.8,0c-1.4,0-1.7,0-1.8-0.1c-0.4-0.1-0.6-0.3-0.7-0.7c-0.1-0.4,0.1-0.9,0.5-1.1
		c0.2-0.1,0.2-0.1,1.9-0.1c0.9,0,1.4,0,1.5,0c0.1-0.1,0.2-0.3,0.6-0.9c0.1-0.1,0.5-0.7,0.5-0.7L6,10.4c0,0.1,0.1,0.1,0.1,0.2
		c0.2,0.3,0.6,0.6,1,0.8c0,0,0.1,0,0.2,0.1l0.2,0.1l-0.2,0.2c-0.2,0.2-0.5,0.6-0.9,0.9C6.4,12.9,6.3,13,6.3,13c0,0-0.1,0.1-0.1,0.1
		c0,0-0.1,0.1-0.1,0.1c-0.1,0.2-0.3,0.4-0.5,0.4C5.5,13.7,5.4,13.7,5.1,13.7z"/>
</g>
</svg>
