<?xml version="1.0" encoding="utf-8"?>
<!-- Generator: Adobe Illustrator 26.1.0, SVG Export Plug-In . SVG Version: 6.00 Build 0)  -->
<svg version="1.1" id="Layer_1" xmlns="http://www.w3.org/2000/svg" xmlns:xlink="http://www.w3.org/1999/xlink" x="0px" y="0px"
	 viewBox="0 0 16 16" style="enable-background:new 0 0 16 16;" xml:space="preserve">
<style type="text/css">
	.st0{opacity:0.5;fill:#FFFFFF;enable-background:new    ;}
	.st1{fill:#6486C4;}
	.st2{fill:#6E6F72;}
</style>
<g id="icon">
	<path class="st0" d="M6,11.9c-0.2,0-0.5-0.2-0.6-0.4c0,0-0.2-0.5-0.3-1.2C4.6,9.1,4.6,9.1,4.6,9.1c0,0-2-1.2-2-1.2
		C2.3,7.7,2.2,7.6,2.1,7.4c0-0.1-0.1-0.4-0.4-1.6c-0.1-0.6-0.2-1-0.3-1.2c0-0.1,0-0.2,0-0.2c0-0.1,0.1-0.3,0.2-0.4
		c0.1-0.1,0.2-0.2,0.4-0.2c0,0,0.8,0,2.1,0c0.2,0,1.1,0,1.1,0c1.9,0,2,0,2.1,0.1c0,0,0,0,0,0C7.5,4,7.6,4.5,7.6,4.7c0,0,0,0.1,0,0.1
		C7.5,4.9,7.4,5,7.3,5l0,0C7.2,5.1,7.2,5.1,5.7,5.1l-0.2,0c-0.8,0-1.2,0-1.4,0c-0.3,0-0.3,0-0.4,0.1l0,0l0,0c0,0,0,0,0,0
		C3.7,5.5,3.8,5.7,3.9,6c0.2,0.9,0.2,0.7,0.3,0.7c0,0,1.3,0.8,1.3,0.8c0.1,0.1,0.3,0.2,0.3,0.4C5.9,8,6.6,11,6.7,11.2
		c0,0.2-0.1,0.5-0.3,0.6C6.3,11.9,6.1,11.9,6,11.9z"/>
	<path class="st1" d="M6,12.4c-0.4,0-0.9-0.3-1.1-0.7l0,0c0-0.1-0.2-0.8-0.4-1.3c-0.1-0.2-0.2-0.8-0.3-1.1C3.8,9.1,2.4,8.3,2.3,8.2
		C2,8.1,1.8,7.9,1.7,7.6C1.6,7.5,1.6,7.3,1.3,5.9C1.1,5.3,1,4.9,1,4.7c0-0.1,0-0.2-0.1-0.2l0,0l0,0c0-0.3,0.1-0.5,0.3-0.7
		c0.2-0.2,0.4-0.3,0.7-0.3l0,0c0.1,0,1.7,0,2.1,0l1.1,0c2.2,0,2.2,0,2.4,0.2c0,0,0,0,0,0C7.9,3.8,8.1,4.4,8,4.8C8,4.8,8,5,7.9,5
		C7.9,5.2,7.7,5.4,7.6,5.4l0,0C7.3,5.6,7.3,5.6,5.7,5.6l-0.2,0c-0.6,0-1,0-1.2,0c0,0.1,0.1,0.2,0.1,0.3c0.1,0.3,0.1,0.4,0.1,0.5
		c0.2,0.1,1,0.6,1.3,0.8c0.2,0.1,0.4,0.4,0.5,0.6l0,0c0.1,0.2,0.8,3.2,0.9,3.4l0,0c0,0.4-0.2,0.8-0.4,1C6.4,12.3,6.2,12.4,6,12.4z
		 M5.7,11.4c0,0.1,0.2,0.1,0.2,0.1c0,0,0.1,0,0.2-0.1c0,0,0.1-0.1,0.1-0.2c-0.1-0.3-0.7-2.8-0.8-3.2c0-0.1-0.1-0.1-0.2-0.2
		C4.5,7.5,4.1,7.2,4,7.1c0,0,0,0,0,0C3.7,7,3.6,6.8,3.4,6.1C3.4,5.8,3.3,5.6,3.2,5.5c0,0,0,0,0-0.1l0-0.1L3.2,5.1l0.2-0.2
		C3.5,4.7,3.7,4.7,4,4.7c0.2,0,0.6,0,1.4,0l0.2,0c0.9,0,1.3,0,1.5,0l0,0c0,0,0,0,0,0c0,0,0,0,0,0c0-0.1,0-0.3-0.1-0.3
		c-0.2,0-0.8,0-1.9,0L4,4.3c-1.2,0-1.9,0-2.1,0c-0.1,0-0.1,0-0.1,0.1c0,0,0,0,0,0.1c0,0,0,0,0,0.1C1.9,4.7,2,5,2.2,5.7
		c0.2,0.8,0.3,1.4,0.4,1.5c0.1,0.1,0.1,0.2,0.3,0.3c0,0,2,1.2,2.1,1.3l0,0C5,8.9,5,8.9,5.4,10.2C5.6,10.8,5.7,11.2,5.7,11.4z
		 M2.5,7.2C2.5,7.2,2.5,7.2,2.5,7.2C2.5,7.2,2.5,7.2,2.5,7.2z M4.5,6.4L4.5,6.4C4.5,6.4,4.5,6.4,4.5,6.4z M7.1,4.6
		C7.1,4.6,7.1,4.6,7.1,4.6L7.1,4.6z M7,4.2L7,4.2L7,4.2z"/>
	<path class="st0" d="M2.2,2.8c-0.4,0-0.8-0.3-1-0.7C1.1,1.9,1.1,1.8,1.1,1.6c0-0.2,0-0.3,0.1-0.5C1.4,0.8,1.6,0.6,2,0.5
		c0,0,0.1,0,0.2,0c0.1,0,0.2,0,0.3,0c0.4,0.1,0.7,0.4,0.8,0.8c0,0.1,0,0.4,0,0.6C3.2,2.2,3,2.5,2.7,2.7C2.5,2.7,2.4,2.8,2.2,2.8
		L2.2,2.8z"/>
	<path class="st1" d="M2.2,3.2L2.2,3.2c-0.6,0-1.2-0.4-1.4-0.9C0.7,2.1,0.6,1.9,0.6,1.6c0-0.3,0-0.4,0.1-0.7C1,0.5,1.4,0.2,1.9,0.1
		c0.1,0,0.2,0,0.3,0c0.2,0,0.3,0,0.4,0c0.6,0.1,1,0.6,1.1,1.1c0.1,0.2,0.1,0.6,0,0.8c-0.1,0.5-0.4,0.8-0.9,1
		C2.6,3.2,2.4,3.2,2.2,3.2z M2.2,0.9C2.1,0.9,2.1,1,2.2,0.9C1.9,1,1.7,1.1,1.6,1.3c0,0.1-0.1,0.1-0.1,0.3c0,0.2,0,0.2,0.1,0.3
		C1.7,2.2,2,2.3,2.2,2.3c0.1,0,0.2,0,0.3-0.1C2.7,2.2,2.8,2,2.8,1.8c0-0.1,0-0.3,0-0.3C2.8,1.2,2.6,1,2.4,1C2.3,1,2.3,0.9,2.2,0.9z"
		/>
	<path class="st2" d="M9,4.4v0.4h3.5H16V4.4V4h-3.5H9V4.4z"/>
	<path class="st1" d="M7.5,16c-0.5,0-0.9-0.2-1.4-0.8C6,15,5.8,14.9,5.7,14.8c0,0,0,0-0.2,0l0,0c-0.1,0-0.1,0-0.3,0.1
		c-0.1,0-0.1,0.1-0.1,0.1c0,0-0.1,0.2-0.2,0.3C4.5,15.8,4.2,16,3.6,16c-0.6,0-0.9-0.3-1.3-0.7c-0.3-0.3-0.4-0.4-0.5-0.4
		c0,0-0.2,0-0.3,0c-0.2,0.1-0.3,0.2-0.5,0.4c-0.1,0.1-0.2,0.2-0.3,0.3l-0.1,0.1L0.2,15l0.1-0.1c0,0,0.1-0.1,0.2-0.2
		c0.3-0.4,0.6-0.6,0.9-0.7c0.1,0,0.1,0,0.2,0c0.2,0,0.5,0,0.6,0.1c0.2,0.1,0.4,0.3,0.7,0.6c0.4,0.4,0.5,0.5,0.7,0.5
		c0.2,0,0.3,0,0.7-0.5c0.2-0.3,0.3-0.3,0.3-0.4l0,0c0,0,0,0,0.1-0.1C5,14.1,5.2,14,5.5,14l0,0c0.2,0,0.4,0,0.6,0.1
		c0.2,0.1,0.5,0.3,0.7,0.6c0.4,0.5,0.6,0.5,0.7,0.5c0.2,0,0.3,0,0.7-0.5C8.6,14.3,8.9,14,9.4,14c0.2,0,0.4,0,0.6,0.1
		c0.2,0.1,0.4,0.3,0.7,0.6c0.2,0.2,0.3,0.3,0.5,0.4c0,0,0.1,0,0.2,0c0.1,0,0.2,0,0.2,0c0.1-0.1,0.3-0.2,0.5-0.5
		c0.4-0.5,0.7-0.7,1.2-0.7h0c0.3,0,0.4,0,0.6,0.1c0.2,0.1,0.4,0.3,0.6,0.5c0.2,0.2,0.2,0.3,0.4,0.3c0.2,0.1,0.4,0.2,0.5,0.2l0.1,0
		L15.5,16l-0.1,0c-0.2,0-0.6-0.1-0.8-0.3c-0.3-0.1-0.4-0.3-0.6-0.5c-0.1-0.2-0.3-0.3-0.4-0.4c0,0,0,0-0.2,0h0c-0.2,0-0.3,0-0.6,0.4
		c-0.3,0.4-0.5,0.5-0.7,0.7C11.8,16,11.5,16,11.4,16c-0.2,0-0.4,0-0.6-0.1c-0.2-0.1-0.5-0.3-0.7-0.6c-0.2-0.2-0.3-0.4-0.5-0.4
		c0,0,0,0-0.2,0c-0.2,0-0.3,0-0.6,0.4C8.4,15.7,8.1,16,7.5,16L7.5,16C7.5,16,7.5,16,7.5,16z"/>
	<path class="st2" d="M3.4,14.1C3.3,14,3.2,14,3.1,13.8c-0.1-0.1-0.1-0.2-0.2-0.2l-0.2-0.2L4.6,13l0.1,0.3c0,0,0,0,0,0
		c-0.1,0-0.1,0.1-0.1,0.1l-0.1,0l0,0c-0.1,0.1-0.1,0.1-0.3,0.4C4.1,13.9,4,14,4,14l0,0L3.4,14.1L3.4,14.1z"/>
	<path class="st2" d="M6.6,13.5c-0.1-0.1-0.3-0.2-0.4-0.3C6.1,13.1,6,13.1,5.9,13l0-0.3l6.5-1.3c0.3-0.1,0.7-0.5,0.8-0.9l0.1-0.1
		l0.8,0.3l-0.1,0.1c-0.2,0.6-0.7,1.3-1.5,1.4L9.2,13l0,0c-0.1,0-0.1,0-0.2,0l0,0L6.6,13.5L6.6,13.5z"/>
</g>
</svg>
