<?xml version="1.0" encoding="utf-8"?>
<!-- Generator: Adobe Illustrator 26.1.0, SVG Export Plug-In . SVG Version: 6.00 Build 0)  -->
<svg version="1.1" id="Layer_1" xmlns="http://www.w3.org/2000/svg" xmlns:xlink="http://www.w3.org/1999/xlink" x="0px" y="0px"
	 viewBox="0 0 16 16" style="enable-background:new 0 0 16 16;" xml:space="preserve">
<style type="text/css">
	.st0{opacity:0.5;fill:#FFFFFF;enable-background:new    ;}
	.st1{fill:#6486C4;}
	.st2{fill:#6E6F72;}
</style>
<g id="icon">
	<path class="st0" d="M4.2,12.2c-0.1,0-0.3,0-0.3-0.1c-0.1,0-0.2-0.2-0.3-0.3c0-0.1-0.1-0.2-0.1-0.3c0-0.1,0-0.2,0.1-0.3
		c0.1-0.1,2.5-4.3,2.6-4.4c0.1-0.1,0.2-0.2,0.3-0.3c0,0,0.5-0.3,1.2-0.7l2.1-1.2l1.1-1.8c0.6-1,1.1-1.8,1.1-1.9
		c0.1-0.1,0.3-0.2,0.5-0.3c0.1,0,0.1,0,0.2,0c0.3,0,0.5,0.1,0.7,0.3c0.1,0.2,0.2,0.5,0.1,0.7C13.3,1.7,13,2.3,12,4
		c-0.7,1.2-1.3,2.2-1.4,2.3c-0.1,0.2-0.2,0.2-0.9,0.6c-0.3,0.2-3.2,2-3.2,2l-0.9,1.5c-0.6,1-0.9,1.5-0.9,1.5c0,0.1-0.2,0.2-0.2,0.2
		C4.4,12.1,4.2,12.2,4.2,12.2z"/>
	<path class="st1" d="M4.2,12.6c-0.2,0-0.4-0.1-0.5-0.1c-0.2-0.1-0.4-0.3-0.5-0.5C3.1,11.9,3,11.6,3,11.5c0-0.2,0.1-0.4,0.1-0.5
		c0.1-0.2,2.5-4.3,2.6-4.4l0,0c0.1-0.1,0.3-0.3,0.4-0.4c0,0,0.4-0.2,1.2-0.7l2-1.2l1-1.7c0.5-0.8,1.1-1.8,1.2-1.9l0,0
		c0.2-0.2,0.4-0.4,0.7-0.5c0.1,0,0.2,0,0.3,0c0.4,0,0.8,0.2,1,0.5c0.2,0.3,0.3,0.7,0.2,1.1c0,0.1-0.1,0.2-1.4,2.4
		c-0.1,0.1-1.3,2.2-1.4,2.3c-0.2,0.2-0.3,0.3-1,0.8C9.7,7.4,7.3,8.9,6.8,9.2L6,10.6c-0.4,0.7-0.9,1.5-0.9,1.6l0,0
		c-0.1,0.1-0.3,0.3-0.4,0.3C4.5,12.6,4.3,12.6,4.2,12.6z M4.1,11.7c0,0,0.1,0,0.1,0c0,0,0.1,0,0.1,0c0,0,0,0,0.1,0
		c0.1-0.1,0.3-0.5,0.9-1.5l0.9-1.6l0.1-0.1c0,0,3-1.8,3.2-2c0.7-0.4,0.7-0.4,0.8-0.5c0-0.1,0.6-1,1.4-2.3c0.7-1.1,1.2-2.1,1.3-2.2
		c0-0.1,0-0.2-0.1-0.3C12.8,1.1,12.6,1,12.5,1c-0.1,0-0.2,0.1-0.2,0.1C12.2,1.3,11.8,2,11.2,3L10,4.9L7.8,6.2
		C7.3,6.6,6.7,6.9,6.7,6.9c0,0-0.1,0.1-0.2,0.1C6.4,7.3,4.1,11.1,4,11.4c0,0,0,0.1,0,0.1C3.9,11.5,4,11.6,4.1,11.7
		C4,11.6,4,11.7,4.1,11.7z"/>
	<path class="st0" d="M3.7,7.6c0,0-0.1,0-0.1,0c-0.3,0-0.5-0.1-0.7-0.3C2.7,7.1,2.6,6.9,2.5,6.7c0-0.2,0-0.3,0-0.5
		C2.6,6,2.7,5.8,2.9,5.6C3,5.5,3.2,5.4,3.4,5.3c0.1,0,0.2,0,0.3,0h0c0.6,0,1.1,0.5,1.1,1.1c0,0.4-0.2,0.8-0.6,1
		C4,7.5,3.8,7.6,3.7,7.6z"/>
	<path class="st1" d="M3.7,8C3.6,8,3.5,8,3.5,8C3.1,8,2.8,7.8,2.6,7.6C2.3,7.4,2.2,7.1,2.1,6.8C2,6.5,2,6.3,2.1,6.1
		c0.1-0.3,0.2-0.6,0.4-0.8C2.8,5.1,3,5,3.3,4.9c0.1,0,0.2,0,0.4,0l0,0c0.9,0,1.6,0.7,1.6,1.6c0,0.6-0.3,1.1-0.8,1.4
		C4.2,8,3.9,8,3.7,8z M3.7,5.8L3.7,5.8c-0.1,0-0.1,0-0.2,0C3.4,5.8,3.3,5.9,3.2,6C3.1,6.1,3,6.2,3,6.3c0,0.1,0,0.2,0,0.3
		c0,0.2,0.1,0.2,0.2,0.3C3.3,7,3.4,7.1,3.6,7.1c0,0,0,0,0,0c0.1,0,0.2,0,0.3-0.1c0.2-0.1,0.4-0.3,0.4-0.6C4.4,6.1,4.1,5.8,3.7,5.8z"
		/>
	<path class="st2" d="M7.6,15.7c-0.5,0-0.9-0.3-1.4-1c-0.1-0.2-0.3-0.4-0.4-0.4c0,0,0,0-0.1,0l0,0c-0.1,0-0.1,0-0.2,0.1
		c-0.1,0.1-0.1,0.1-0.1,0.1c0,0.1-0.1,0.2-0.2,0.3l0,0c-0.4,0.6-0.8,0.9-1.4,0.9c-0.6,0-1-0.3-1.4-0.9c-0.3-0.3-0.4-0.5-0.5-0.5
		c0,0-0.2,0-0.2,0c-0.1,0.1-0.3,0.2-0.5,0.5C1,14.8,0.9,15,0.8,15.1l-0.2,0.2L0,14.4l0.2-0.2c0,0,0.1-0.1,0.2-0.2
		c0.3-0.4,0.6-0.7,0.9-0.8c0.1,0,0.1,0,0.2,0c0.2,0,0.5,0.1,0.7,0.2c0.2,0.1,0.5,0.4,0.8,0.8c0.4,0.5,0.5,0.5,0.7,0.5
		c0.2,0,0.3,0,0.7-0.5c0.2-0.3,0.3-0.4,0.3-0.4l0,0l0,0c0,0,0,0,0.1-0.1c0.3-0.2,0.5-0.3,0.8-0.3l0,0c0.2,0,0.4,0,0.6,0.2
		c0.2,0.1,0.5,0.4,0.7,0.7c0.4,0.5,0.6,0.6,0.7,0.6c0.1,0,0.3,0,0.7-0.5c0.4-0.6,0.7-0.9,1.3-0.9c0.2,0,0.4,0,0.6,0.2
		c0.2,0.2,0.5,0.4,0.7,0.7c0.2,0.2,0.3,0.4,0.5,0.5c0,0,0.1,0,0.2,0c0.1,0,0.2,0,0.2,0c0.1-0.1,0.3-0.2,0.5-0.5
		c0.4-0.5,0.7-0.9,1.3-0.9l0,0c0.3,0,0.4,0,0.6,0.2c0.2,0.1,0.4,0.4,0.7,0.6c0.2,0.2,0.2,0.3,0.4,0.4c0.2,0.1,0.4,0.2,0.5,0.2l0.2,0
		l-0.1,1l-0.2,0c-0.2,0-0.6-0.2-0.9-0.3c-0.3-0.2-0.4-0.3-0.7-0.6c-0.1-0.2-0.3-0.3-0.4-0.4c0,0,0,0,0,0c0,0,0,0-0.1,0l0,0
		c-0.1,0-0.2,0-0.6,0.5c-0.3,0.4-0.5,0.6-0.8,0.8c-0.2,0.1-0.5,0.1-0.6,0.1c-0.2,0-0.4,0-0.7-0.2c-0.2-0.2-0.5-0.4-0.7-0.7
		c-0.2-0.2-0.3-0.4-0.5-0.5c0,0,0,0,0,0c0,0,0,0-0.1,0c-0.1,0-0.2,0-0.6,0.5C8.6,15.3,8.2,15.7,7.6,15.7L7.6,15.7L7.6,15.7L7.6,15.7
		z"/>
</g>
</svg>
