<?xml version="1.0" encoding="utf-8"?>
<!-- Generator: Adobe Illustrator 26.1.0, SVG Export Plug-In . SVG Version: 6.00 Build 0)  -->
<svg version="1.1" id="Layer_1" xmlns="http://www.w3.org/2000/svg" xmlns:xlink="http://www.w3.org/1999/xlink" x="0px" y="0px"
	 viewBox="0 0 16 16" style="enable-background:new 0 0 16 16;" xml:space="preserve">
<style type="text/css">
	.st0{fill:#6E6F72;}
	.st1{fill:#6485C3;}
</style>
<g id="icon">
	<path class="st0" d="M0,0.9L0,0.9L8,1h8V0.9V0H8H0V0.9z"/>
	<path class="st1" d="M8,15.1c-0.2,0-0.7,0-0.9-0.1c-0.3-0.1-6.2-2.9-6.3-2.9l0,0c-0.1-0.1-0.3-0.3-0.4-0.4
		c-0.2-0.4-0.1-0.8,0.1-1.1c0.2-0.2,0.4-0.3,0.7-0.3c0.2,0,0.3,0,0.5,0.1c0,0,0.6,0.2,1.3,0.5l1.1,0.4l2.2,0.8l0-0.3
		c-0.1-0.6-0.1-1.2-0.1-1.6l0-0.3L6.1,9.8c0-0.1-0.1-0.2-0.2-0.3c0,0-0.1-0.1-0.2-0.2c-0.2-0.2-0.6-0.6-0.9-1C4.4,7.9,4,7.4,3.9,7.3
		c0-0.1-0.1-0.2-0.2-0.3c0,0-0.1-0.1-0.3-2.5C3.3,3.4,3.2,2.1,3.2,2l0,0l0,0c0-0.1,0.1-0.1,0.1-0.1l0.1,0l0.1,0c0.1,0,0.3,0,0.6,0
		l0.2,0c0.3,0,0.4,0,0.5,0l0.1,0l0,0.1c0,0,0,0,0,0c0,0,0,0.1,0.7,4.4l0.2,0.2c0.2,0.2,0.7,0.6,1,0.9c0.2,0.1,0.3,0.3,0.4,0.3
		C7.4,8,7.4,8,7.7,8.1c0.1,0,0.2,0,0.3,0c0.2,0,0.4,0,0.5-0.1C8.6,8,8.7,8,8.9,7.8C9,7.7,9.1,7.6,9.3,7.4c0.4-0.3,0.9-0.7,1-0.9
		l0.2-0.2c0.1-0.7,0.7-4.2,0.7-4.3c0-0.1,0-0.2,0.2-0.3l0,0c0,0,0.1,0,0.4,0c0.1,0,0.1,0,0.2,0l0.6,0l0.1,0.1c0,0,0.1,0.1,0.1,0.2
		l0,0c0,0.1-0.5,4.8-0.5,4.8c-0.1,0.2-0.2,0.3-0.4,0.7c-0.2,0.2-0.4,0.5-0.8,0.9c-0.3,0.3-0.6,0.7-0.8,0.9c-0.1,0.1-0.2,0.2-0.2,0.3
		c0,0.1-0.1,0.2-0.2,0.3L9.8,9.9l0,0.2c0,0.5,0,0.8-0.1,1.6c0,0.1,0,0.3,0,0.4c0.3-0.1,1.1-0.4,2.3-0.9c0.9-0.3,2.4-0.9,2.5-1
		c0.1,0,0.2,0,0.3,0c0.2,0,0.3,0,0.5,0.1c0.1,0.1,0.3,0.3,0.4,0.4c0.1,0.1,0.1,0.3,0.1,0.5c0,0.3-0.1,0.5-0.3,0.7
		c-0.1,0.1-0.2,0.1-0.2,0.2l0,0l0,0c-0.1,0-6,2.8-6.3,2.9C8.7,15.1,8.2,15.1,8,15.1z M8.4,6.8C9,6.6,9.6,6.1,9.7,5.4
		c0-0.2,0-0.2,0.1-0.4c0-0.2,0-0.3,0-0.4C9.6,4,9.1,3.5,8.5,3.3C8.3,3.3,8.2,3.3,8,3.3c-0.1,0-0.2,0-0.3,0C7.3,3.4,7.1,3.5,6.8,3.8
		C6.4,4.1,6.2,4.7,6.3,5.2c0.1,0.6,0.4,1.1,0.8,1.4C7.4,6.7,7.7,6.8,8,6.8C8.1,6.8,8.3,6.8,8.4,6.8z"/>
</g>
</svg>
