<?xml version="1.0" encoding="utf-8"?>
<!-- Generator: Adobe Illustrator 26.1.0, SVG Export Plug-In . SVG Version: 6.00 Build 0)  -->
<svg version="1.1" id="Layer_1" xmlns="http://www.w3.org/2000/svg" xmlns:xlink="http://www.w3.org/1999/xlink" x="0px" y="0px"
	 viewBox="0 0 16 16" style="enable-background:new 0 0 16 16;" xml:space="preserve">
<style type="text/css">
	.st0{fill:#6E6F72;}
	.st1{opacity:0.5;fill:#FFFFFF;enable-background:new    ;}
	.st2{fill:#6486C4;}
</style>
<g id="icon">
	<path class="st0" d="M0,15.5V16h8h8v-0.5V15H8H0V15.5z"/>
	<path class="st1" d="M6.5,14c-0.1,0-0.1,0-0.1,0l0,0c0,0,0,0,0,0c0,0-0.1-0.1-0.3-1.4L6,11.1l0-0.1c0-0.1,0.1-0.4,0.4-1.1
		c0.2-0.6,0.4-1.1,0.5-1.2C7,8.5,7,8.4,7,8.4l0.1-0.1L7,7.9C6.9,7.4,6.8,7,6.6,5.7L6.5,5.3l-2-0.7L4.2,4.5C3.2,4.2,2.3,3.8,2,3.8
		C1.6,3.6,1.4,3.5,1.3,3.5c-0.1,0-0.2-0.1-0.2-0.2c0-0.1-0.1-0.2-0.1-0.3c0-0.1,0-0.2,0.1-0.3c0.1-0.1,0.2-0.2,0.4-0.3l0,0
		c0,0,0.1,0,0.1,0c0.2,0,0.6,0.1,2.5,0.6l0.4,0.1c1.4,0.4,2.7,0.7,2.7,0.7c0,0,0.1,0,0.1,0c0.1,0,0.2,0,0.2-0.1
		c0.3-0.2,4.3-3.1,4.5-3.2c0,0,0.1,0,0.2-0.1c0.1,0,0.1,0,0.2,0c0.3,0,0.5,0.2,0.6,0.5c0,0.1,0,0.1,0,0.2c0,0.2-0.1,0.3-0.3,0.4
		C12.6,1.7,9,4.5,9,4.6c-0.1,0.1-0.1,0.1,0.2,1c0.2,0.5,0.3,0.9,0.3,1c0.1,0.3,0.2,0.7,0.2,0.8c0,0.1,0.1,0.2,0.2,0.3
		c0.1,0.1,0.4,0.2,1,0.5l0.1,0c0.6,0.3,1.1,0.5,1.1,0.6l0,0c0.2,0.1,0.2,0.1,0.8,1.4l0.1,0.1c0.6,1.2,0.7,1.3,0.7,1.4
		c0,0.1,0,0.1,0,0.2c0,0.2-0.2,0.3-0.4,0.3c0,0-0.1,0-0.1,0c0,0,0,0-0.1,0c-0.1,0-0.2-0.1-0.3-0.2c0,0-0.3-0.4-0.8-1.2l-0.8-1.2
		L11,9.5C10.5,9.3,10.1,9.1,9.9,9C9.7,9,9.6,9,9.3,9C9.2,9,9,9,8.9,9C8.6,9,8.2,9.2,8.1,9.4C8,9.5,7.7,9.9,7.4,10.6l-0.2,0.5l0,1.5
		c0,1.4,0,1.3-0.1,1.4c-0.1,0-0.1,0-0.3,0C6.7,14,6.6,14,6.5,14z"/>
	<path class="st2" d="M6.5,14.4c-0.1,0-0.1,0-0.1,0l0,0l-0.2,0L6,14.2c0,0,0,0,0,0c-0.1-0.2-0.2-0.5-0.3-1.5l-0.1-1.6l0-0.2
		c0-0.2,0.1-0.4,0.4-1.2c0.2-0.6,0.4-1.1,0.5-1.2c0,0,0.1-0.2,0.1-0.3l0,0l0-0.2C6.5,7.5,6.4,7.1,6.2,5.8l0-0.1L3.9,4.9
		C3,4.6,2.1,4.3,1.8,4.2C1.6,4.1,1.2,4,1.1,3.9l0,0C1,3.8,0.8,3.7,0.7,3.6C0.7,3.4,0.6,3.2,0.6,3c0-0.2,0.1-0.4,0.1-0.5
		C0.9,2.3,1.1,2.1,1.4,2l0,0c0,0,0.1,0,0.2,0c0.2,0,0.5,0.1,2.6,0.6l0.4,0.1C5.9,3.1,7,3.4,7.3,3.4c0.3-0.3,4.3-3.1,4.6-3.2l0,0
		c0.1,0,0.2-0.1,0.2-0.1c0.6-0.2,1.2,0.2,1.3,0.8c0,0.1,0,0.2,0,0.3C13.4,1.5,13.2,1.8,13,2c-0.1,0.1-3,2.4-3.6,2.9
		c0,0.1,0.1,0.4,0.2,0.6c0.1,0.2,0.2,0.5,0.2,0.6c0.1,0.2,0.1,0.3,0.1,0.4c0.1,0.2,0.2,0.6,0.2,0.8c0,0,0,0,0,0
		c0.1,0.1,0.4,0.2,1,0.5l0.1,0c0.4,0.2,1,0.5,1.2,0.6l0,0c0.3,0.2,0.3,0.2,1,1.5l0.1,0.1c0.7,1.3,0.7,1.4,0.8,1.6c0,0.1,0,0.2,0,0.3
		c-0.1,0.4-0.3,0.6-0.7,0.7c-0.1,0-0.1,0-0.1,0c-0.1,0-0.1,0-0.2,0c-0.2-0.1-0.4-0.2-0.5-0.3l0,0c-0.1-0.1-0.7-1.1-0.8-1.3L11.1,10
		l-0.3-0.1c-0.5-0.2-0.9-0.3-1.1-0.4c-0.1,0-0.1,0-0.4,0c-0.2,0-0.3,0-0.4,0c-0.2,0-0.5,0.2-0.5,0.2C8.4,9.7,8.2,10,7.8,10.8
		l-0.2,0.4l0,1.4c0,1.3,0,1.4-0.1,1.6l-0.1,0.3l-0.3,0c-0.1,0-0.1,0-0.3,0l-0.1,0C6.6,14.4,6.6,14.4,6.5,14.4z M6.5,11.2l0.1,1.4
		c0,0.2,0,0.4,0.1,0.5c0-0.1,0-0.3,0-0.5l0,0l0,0l0-1.6L7,10.4c0.5-0.9,0.6-1.2,0.8-1.3C8,8.8,8.6,8.6,8.8,8.6c0.1,0,0.3,0,0.5,0
		c0.3,0,0.4,0,0.6,0.1c0.2,0.1,0.7,0.2,1.2,0.4l0.6,0.2l0.8,1.3c0.3,0.5,0.5,0.8,0.6,1c-0.1-0.2-0.3-0.6-0.5-1l-0.1-0.1
		c-0.4-0.7-0.6-1.1-0.7-1.2c0,0,0,0,0,0l0,0c0,0-0.4-0.2-1.1-0.6l-0.1,0c-0.6-0.3-0.8-0.4-1-0.5C9.6,8,9.3,7.8,9.3,7.5
		c0-0.1-0.1-0.5-0.2-0.7C9.1,6.7,9,6.6,9,6.4C8.9,6.2,8.8,6,8.7,5.8c-0.3-1-0.4-1.2-0.1-1.5l0,0c0.1-0.1,3.7-3,3.8-3
		c0.1,0,0.1-0.1,0.1-0.1C12.5,1,12.5,1,12.4,1c0,0,0,0-0.1,0c0,0,0,0-0.1,0c-0.4,0.3-4.2,3-4.5,3.2C7.7,4.2,7.6,4.4,7.3,4.4
		c-0.1,0-0.2,0-0.2,0c-0.1,0-1.7-0.4-2.7-0.7L4,3.5C2.5,3.1,1.8,2.9,1.6,2.9l0,0c0,0-0.1,0-0.1,0.1c0,0,0,0.1,0,0.1c0,0,0,0,0,0.1
		c0,0,0,0,0,0c0.1,0,0.2,0.1,0.6,0.2c0.3,0.1,1.1,0.4,2,0.7L6.9,5L7,5.6C7.3,7,7.4,7.3,7.5,7.8l0.1,0.5L7.5,8.5c0,0,0,0.1-0.1,0.2
		c0,0.1-0.2,0.7-0.5,1.2C6.7,10.6,6.5,11,6.5,11.2L6.5,11.2z"/>
	<path class="st1" d="M9.7,13.2c-0.4,0-0.8-0.2-1.1-0.5c-0.3-0.3-0.3-0.7-0.3-1.1c0.1-0.2,0.2-0.4,0.3-0.6c0.2-0.2,0.4-0.3,0.8-0.4
		c0.1,0,0.1,0,0.2,0c0.2,0,0.4,0,0.6,0.1c0.3,0.1,0.6,0.4,0.7,0.7c0.2,0.5,0.1,1.1-0.3,1.5C10.4,13,10.1,13.2,9.7,13.2L9.7,13.2
		L9.7,13.2z"/>
	<path class="st2" d="M9.8,13.6L9.8,13.6c-0.6,0-1.1-0.3-1.4-0.7c-0.3-0.4-0.5-1-0.3-1.5c0.1-0.3,0.2-0.6,0.4-0.8
		c0.3-0.3,0.6-0.5,1-0.5c0.3-0.1,0.7,0,1,0.1c0.4,0.2,0.7,0.5,0.9,0.9c0.3,0.7,0.1,1.5-0.4,2C10.6,13.4,10.2,13.6,9.8,13.6L9.8,13.6
		z M9.7,10.9C9.7,10.9,9.6,10.9,9.7,10.9c-0.3,0.1-0.5,0.1-0.6,0.3c-0.1,0.1-0.2,0.2-0.2,0.4c-0.1,0.3,0,0.5,0.2,0.7
		c0.2,0.2,0.4,0.3,0.7,0.3h0c0.2,0,0.4-0.1,0.6-0.3c0.3-0.2,0.3-0.6,0.2-1c-0.1-0.2-0.3-0.4-0.4-0.5C10,11,9.8,10.9,9.7,10.9z"/>
</g>
</svg>
