<?xml version="1.0" encoding="utf-8"?>
<!-- Generator: Adobe Illustrator 26.1.0, SVG Export Plug-In . SVG Version: 6.00 Build 0)  -->
<svg version="1.1" id="Layer_1" xmlns="http://www.w3.org/2000/svg" xmlns:xlink="http://www.w3.org/1999/xlink" x="0px" y="0px"
	 viewBox="0 0 16 16" style="enable-background:new 0 0 16 16;" xml:space="preserve">
<style type="text/css">
	.st0{opacity:0.5;fill:#FFFFFF;enable-background:new    ;}
	.st1{fill:#6486C4;}
</style>
<g id="icon">
	<path class="st0" d="M10.1,0.5C9.6,0.6,9.2,1,9,1.5C8.9,1.7,8.9,1.9,8.9,2.1c0,0.5,0.3,1,0.8,1.3c0.3,0.1,0.6,0.2,0.8,0.2
		c0.5-0.1,0.9-0.4,1.2-0.8c0.1-0.2,0.1-0.4,0.1-0.7c0-0.3,0-0.4-0.1-0.6c-0.1-0.2-0.1-0.2-0.3-0.4C11.1,0.6,10.6,0.4,10.1,0.5z"/>
	<path class="st1" d="M10.4,3.9c-0.3,0-0.6-0.1-0.9-0.2c-0.6-0.3-1-0.9-1.1-1.6c0-0.3,0-0.5,0.1-0.7c0.2-0.7,0.8-1.2,1.5-1.3
		c0.6-0.1,1.3,0.1,1.7,0.6C12,0.8,12,1,12.1,1.2c0.1,0.3,0.2,0.5,0.2,0.8c0,0.4,0,0.5-0.2,0.9c-0.3,0.6-0.8,1-1.5,1.1
		C10.6,3.9,10.5,3.9,10.4,3.9z M10.4,1c-0.1,0-0.1,0-0.2,0h0C9.9,1,9.5,1.3,9.4,1.7c0,0.1-0.1,0.2,0,0.4c0,0.4,0.2,0.7,0.6,0.9
		C10.1,3,10.3,3.1,10.5,3c0.4-0.1,0.7-0.2,0.8-0.6c0.1-0.2,0.1-0.2,0.1-0.5c0-0.2,0-0.3-0.1-0.5c-0.1-0.1-0.1-0.2-0.2-0.3
		C11,1.1,10.7,1,10.4,1z"/>
	<path class="st0" d="M8.3,4.5c-0.1,0-0.6,0-1.2,0.1C5.8,4.6,5.7,4.6,5.6,4.7C5.5,4.7,5.3,4.9,5.3,5c-0.1,0.1-1,2.4-1,2.5
		c0,0.2,0,0.3,0.1,0.5c0.1,0.1,0.4,0.3,0.5,0.3c0.2,0,0.4,0,0.5-0.2C5.5,8,5.5,8,6.1,6.8L6.5,6L7,6c0.3,0,0.6,0,0.6,0
		c0,0,0,0.1,0,0.2C7,8.4,6.8,9.4,6.8,9.6c0,0.3,0.2,0.6,0.6,0.9c0.2,0.1,0.3,0.2,0.4,0.3c0.1,0,0.3,0.1,1.3,0.6
		c0.7,0.3,1.2,0.5,1.2,0.5c0,0-0.1,0.6-0.2,1.4C10,14,9.9,14.6,9.9,14.7c0,0.3,0.1,0.6,0.4,0.7c0.5,0.2,1,0,1.1-0.6
		c0-0.1,0.2-0.8,0.4-1.7l0.4-1.6v-0.2c0-0.2,0-0.2,0-0.3c-0.1-0.2-0.1-0.3-0.3-0.4c-0.1-0.1-0.1-0.1-1.4-0.7c-0.5-0.2-1-0.4-1-0.4
		c0,0,0.2-0.8,0.5-1.8c0.3-1,0.5-1.8,0.5-1.9c0-0.4-0.1-0.7-0.4-0.9C9.8,4.7,9.4,4.5,9,4.5C8.8,4.5,8.4,4.5,8.3,4.5z"/>
	<path class="st1" d="M10.6,15.9c-0.2,0-0.4,0-0.6-0.1c-0.4-0.2-0.7-0.7-0.6-1.2c0-0.1,0.2-1.1,0.3-1.5c0.1-0.5,0.1-0.8,0.2-1
		C9.7,12,9.3,11.9,9,11.7c-1.2-0.5-1.3-0.5-1.4-0.6C7.4,11,7.4,11,7.2,10.9c-0.6-0.4-0.8-0.8-0.8-1.3c0-0.2,0-0.5,0.6-3.1
		c0,0,0,0,0,0l-0.3,0L6.5,7C5.9,8.2,5.9,8.2,5.8,8.4l0,0c-0.3,0.3-0.6,0.4-1,0.3c0,0-0.7-0.1-0.9-0.5C3.8,7.9,3.8,7.6,3.9,7.4
		c0-0.2,1-2.6,1-2.6C5,4.6,5.2,4.4,5.3,4.3c0.2-0.1,0.3-0.1,1.6-0.2l0.1,0C7.7,4.1,8.2,4,8.2,4c0,0,0,0,0,0l0,0c0,0,0,0,0,0l0,0
		C8.4,4,8.8,4,9,4c0.5,0.1,1,0.3,1.3,0.5c0.4,0.3,0.6,0.8,0.6,1.3c0,0.1-0.2,0.8-0.5,2C10.3,8.5,10.1,9,10,9.3
		c0.2,0.1,0.4,0.2,0.6,0.3l0.2,0.1c1.1,0.5,1.1,0.5,1.3,0.7l0,0c0.2,0.2,0.3,0.4,0.4,0.6c0.1,0.2,0.1,0.3,0.1,0.4v0.2L12,14.2
		c-0.1,0.4-0.2,0.7-0.2,0.7c-0.1,0.4-0.4,0.7-0.7,0.9C10.9,15.9,10.8,15.9,10.6,15.9z M10.3,14.7c0,0.1,0.1,0.2,0.1,0.3
		c0.1,0,0.2,0.1,0.3,0c0.1,0,0.2-0.2,0.2-0.3c0,0,0.1-0.3,0.2-0.7l0.6-2.6v-0.1c0-0.1,0-0.1,0-0.1c0,0,0,0,0,0
		c-0.1-0.2-0.1-0.2-0.1-0.2l0,0c0,0,0,0,0,0c-0.1,0-0.4-0.2-1-0.5l-0.2-0.1c-0.3-0.1-0.5-0.2-0.7-0.3C9.2,9.9,9.1,9.8,9.1,9.5
		c0-0.1,0-0.1,0.5-1.9C9.8,6.5,10,5.9,10,5.8c0-0.2,0-0.4-0.2-0.5C9.6,5.1,9.3,5,8.9,4.9c-0.1,0-0.5,0-0.6,0l0,0
		C8.2,4.9,7.1,5,7.1,5L7,5C6.3,5,5.9,5.1,5.8,5.1c0,0-0.1,0.1-0.1,0.1C5.6,5.4,4.8,7.4,4.7,7.6c0,0.1,0,0.1,0,0.1
		c0,0,0.2,0.1,0.2,0.1c0,0,0.1,0,0.1-0.1l0,0c0-0.1,0.2-0.4,0.5-1.1l0.5-1.1l0.8,0c0.2,0,0.3,0,0.4,0c0.2,0,0.4,0,0.5,0.2
		C8.1,5.9,8,6.1,8,6.3c-0.2,0.7-0.7,3-0.7,3.2c0,0.2,0.2,0.4,0.4,0.5c0.2,0.1,0.3,0.2,0.4,0.3c0.1,0.1,0.6,0.3,1.2,0.5
		c1.3,0.5,1.3,0.5,1.4,0.6c0.2,0.2,0.2,0.3,0.1,0.8c0,0.3-0.1,0.6-0.2,1C10.4,14.1,10.3,14.6,10.3,14.7z M4.8,7.8
		C4.8,7.8,4.8,7.8,4.8,7.8C4.8,7.8,4.8,7.8,4.8,7.8z M4.7,7.6C4.7,7.6,4.7,7.6,4.7,7.6C4.7,7.6,4.7,7.6,4.7,7.6z M10,5.8
		C10,5.8,10,5.8,10,5.8C10,5.8,10,5.8,10,5.8z"/>
	<path class="st0" d="M7.4,11.8C7.3,12.1,7,12.4,6.3,13c0,0-0.1,0.1-0.1,0.2c-0.1,0.1-0.2,0.2-0.3,0.3c-0.2,0.1-0.1,0.1-2.1,0
		c-1.4,0-1.8,0-1.9-0.1c-0.3-0.1-0.5-0.3-0.6-0.5C1.2,12.5,1.5,12.1,2,12c0.1,0,0.5,0,1.5-0.1c0.8,0,1.4,0,1.5,0l0.1,0l0.5-0.7
		C5.8,11,5.9,10.8,6,10.7c0.2,0.2,0.4,0.5,0.7,0.7C7,11.5,7,11.5,7.1,11.6C7.1,11.7,7.2,11.7,7.4,11.8z"/>
	<path class="st0" d="M14.6,6.7c-0.1-0.3-0.4-0.5-0.7-0.5c-0.1,0-0.1,0-0.2,0c0,0-1.8,0.3-1.9,0.3c0,0-0.1-0.1-0.3-0.3
		c0,0-0.1-0.1-0.1-0.1c-0.1,0.2-0.2,0.7-0.4,1.7c0,0,0,0,0.1,0.1c0.2,0.2,0.4,0.3,0.5,0.3c0.1,0,0.2,0,0.3-0.1c0,0,0.5-0.1,1.1-0.3
		c0.7-0.2,1.1-0.3,1.1-0.3C14.5,7.4,14.7,7,14.6,6.7z"/>
	<path class="st1" d="M5.3,14c-0.3,0-0.7,0-1.4,0l-0.2,0c-1.7,0-1.8-0.1-2-0.1C1.3,13.8,1,13.5,0.9,13c-0.1-0.3,0-0.7,0.2-0.9
		c0.2-0.3,0.5-0.5,0.9-0.5c0.1,0,0.4,0,1.6-0.1c0.7,0,1.2,0,1.4,0l0.4-0.6c0.2-0.2,0.4-0.5,0.5-0.6l0.1-0.2L6,10.3
		c0.1,0.2,0.2,0.4,0.3,0.5l0.1,0.1L6.3,11c-0.1,0.1-0.2,0.3-0.3,0.4l-0.7,0.9l-0.3,0c-0.1,0-0.9,0-1.5,0c-0.9,0-1.4,0-1.5,0
		c-0.1,0-0.2,0.1-0.3,0.1c-0.1,0.1,0,0.2,0,0.3C1.8,12.9,1.9,13,2,13c0.1,0,0.9,0,1.8,0.1l0.2,0c0.8,0,1.2,0,1.4,0
		c0.3,0,0.3,0,0.3,0l0,0c0,0,0.1-0.1,0.2-0.1c0-0.1,0.1-0.2,0.2-0.2c0.6-0.6,0.9-0.9,1-1.1l0.1-0.1l0.1,0.1c0.1,0.1,0.2,0.1,0.6,0.3
		l0.1,0.1L7.8,12c-0.2,0.3-0.5,0.6-1.2,1.3c0,0-0.1,0.1-0.1,0.1c-0.1,0.2-0.3,0.4-0.5,0.5l0,0C5.9,14,5.8,14,5.3,14z"/>
	<path class="st1" d="M11.7,8.6c-0.3,0-0.5-0.1-0.8-0.3l-0.1-0.1l0.3-1l0.1,0.1c0.1,0.1,0.1,0.1,0.2,0.2c0.1,0.1,0.2,0.1,0.2,0.1
		c0,0,0.1,0,0.1,0c0.1,0,0.2-0.1,1.2-0.3c0.8-0.2,1-0.2,1.1-0.3c0.1-0.1,0.2-0.2,0.2-0.3c0-0.1-0.1-0.2-0.2-0.2c0,0,0,0,0,0
		c0,0-0.1,0-0.1,0l0,0C13.6,6.7,12,7,11.9,7c-0.2,0-0.4-0.1-0.6-0.4l0,0l0-0.1c0.1-0.5,0.1-0.5,0.1-0.5c0-0.1,0-0.1,0-0.2l0-0.3
		l0.2,0.2c0.1,0.1,0.2,0.2,0.3,0.3C12,6,12,6,12.1,6.1c0.4-0.1,1.5-0.2,1.6-0.2c0.1,0,0.2,0,0.2,0c0,0,0.1,0,0.1,0
		c0.5,0,0.9,0.3,1.1,0.8c0.1,0.5-0.1,1.1-0.7,1.3c-0.1,0-0.1,0.1-1.2,0.3c-0.5,0.1-0.9,0.2-1,0.2C12,8.6,11.8,8.6,11.7,8.6L11.7,8.6
		z"/>
</g>
</svg>
