<?xml version="1.0" encoding="utf-8"?>
<!-- Generator: Adobe Illustrator 26.1.0, SVG Export Plug-In . SVG Version: 6.00 Build 0)  -->
<svg version="1.1" id="Layer_1" xmlns="http://www.w3.org/2000/svg" xmlns:xlink="http://www.w3.org/1999/xlink" x="0px" y="0px"
	 viewBox="0 0 16 16" style="enable-background:new 0 0 16 16;" xml:space="preserve">
<style type="text/css">
	.st0{fill:#6485C3;}
	.st1{fill:#6E6F72;}
	.st2{fill:#6486C4;}
</style>
<g id="icon">
	<path class="st0" d="M8.1,9l0.1-0.4C8.5,7.7,9,6.4,9.3,5.9c0.3-0.4,0.5-0.6,0.9-0.7c0.1,0,0.3,0,0.4,0c0.1,0,0.2,0,0.3,0
		c0.1,0,1.7,0.4,2.1,0.5c0.1-0.1,0.2-0.4,0.4-0.6c0.2-0.3,0.4-0.7,0.5-0.7c0.1-0.1,0.2-0.2,0.4-0.3c0.1,0,0.1,0,0.2,0c0,0,0,0,0,0
		c0.1,0,0.2,0,0.3,0.1c0.3,0.2,0.5,0.5,0.4,0.9c0,0.1-0.3,0.6-0.5,0.9c-0.2,0.5-0.5,0.8-0.5,0.9C14.1,7,14,7.2,13.9,7.3
		c0,0,0,0-0.1,0.1l0,0l-0.1,0c-0.1,0.1-0.2,0.1-0.4,0.1c-0.2,0-0.3,0-0.9-0.2l-0.6-0.1l-0.2,0.3c-0.1,0.2-0.3,0.8-0.4,1.3L11.2,9
		L8.1,9L8.1,9z M3.8,9c-1,0-1.1,0-1.7-0.2C1.8,8.7,1.5,8.7,1.3,8.6l-0.2,0l0.1-0.2C1.2,8.2,1.3,8,1.4,7.7c0.2-0.6,0.3-1.2,0.5-1.5
		c0.2-0.3,0.3-0.4,0.4-0.6C2.5,5.5,2.7,5.3,3,5.3c0.1,0,0.2,0,0.4,0c0,0,0.1,0,0.1,0c0.2,0,0.3,0,1.1,0.2l0.3,0.1
		c0.5,0.1,0.8,0.2,0.9,0.2C5.9,5.6,6,5.4,6.2,5.1c0.2-0.3,0.4-0.7,0.5-0.8C6.8,4.3,6.9,4.2,7,4.1c0.1,0,0.1,0,0.2,0
		c0.3,0,0.6,0.2,0.7,0.4c0,0.1,0,0.1,0,0.3C8,5,8,5,7.9,5.1l0,0c0,0.1-0.3,0.5-0.5,0.9C7.2,6.5,7,6.8,7,6.9C6.8,7.3,6.5,7.4,6.1,7.5
		c0,0,0,0,0,0c-0.1,0-0.2,0-0.9-0.2C4.9,7.2,4.7,7.2,4.6,7.1C4.5,7.2,4.4,7.5,4.4,7.6C4.3,7.8,4.2,8.3,4.1,8.7L4,9H3.8z M3.7,4.6
		c-0.1,0-0.2,0-0.3,0c-0.6-0.2-1-0.7-1-1.3c0-0.6,0.4-1.2,1-1.3c0.1,0,0.1,0,0.1,0l0,0l0,0c0,0,0.1,0,0.1,0c0.1,0,0.3,0,0.3,0
		c0.6,0.1,1,0.5,1.1,1.1C5.2,3.5,5,4,4.6,4.3C4.4,4.5,4.1,4.6,3.7,4.6z M11,4.6c-0.6,0-1.2-0.4-1.3-1c-0.1-0.2-0.1-0.5,0-0.7
		c0.1-0.5,0.5-0.9,1-1c0.1,0,0.2,0,0.3,0l0,0c0.5,0,1,0.3,1.2,0.8c0.1,0.2,0.1,0.4,0.1,0.6c0,0.2,0,0.4-0.1,0.6
		C11.9,4.3,11.5,4.6,11,4.6L11,4.6L11,4.6z"/>
	<path class="st1" d="M15.6,11.4c0-0.7-0.4-1.4-0.9-1.6c-0.2-0.1-0.4-0.1-0.6-0.1c0,0-0.1,0-0.1,0c-0.3,0-0.5,0-0.9,0.2
		c-0.2,0-0.4,0.1-0.5,0.1l0,0c-0.1,0-0.5,0.1-0.8,0.1H4.7c-1,0-1.1,0-1.7-0.2C2.5,9.7,2.2,9.6,1.8,9.6c-0.4,0-0.6,0.1-0.9,0.3
		c-0.4,0.3-0.6,0.8-0.6,1.5c0,0.2,0,0.3,0,0.4c0,0.2,0.1,0.5,0.3,0.7l0.1,0.1l0.6-0.5c0.1,0,0.1,0,0.2,0c0.2,0,0.5,0,0.8,0.2
		c0.3,0.1,0.5,0.4,0.8,0.7c0,0.1,0.1,0.1,0.1,0.1c0.1,0,0.2,0.1,0.4,0.1c0,0,0,0,0,0c0,0,0.1-0.1,0.3-0.3c0.2-0.3,0.3-0.4,0.4-0.4
		l0,0l0,0c0,0,0,0,0.1-0.1c0.3-0.2,0.6-0.3,1-0.3l0,0c0.2,0,0.5,0,0.7,0.2c0.3,0.1,0.5,0.4,0.8,0.7c0.1,0.1,0.2,0.2,0.2,0.2
		c0.1,0,0.2,0.1,0.3,0.1c0.1,0,0.2-0.1,0.3-0.3c0.4-0.4,0.8-0.9,1.5-0.9c0.3,0,0.5,0,0.7,0.2c0.3,0.1,0.5,0.4,0.8,0.7
		c0.1,0.2,0.3,0.3,0.3,0.3c0,0,0,0,0.1,0c0,0,0.1,0,0.1,0c0.1-0.1,0.2-0.2,0.4-0.4c0.3-0.4,0.7-0.8,1.5-0.8h0c0.3,0,0.5,0,0.7,0.2
		c0.1,0,0.1,0.1,0.2,0.1c0,0,0.3,0.4,0.4,0.6l0.1,0.1l0.1-0.1c0.3-0.2,0.6-0.5,0.7-0.8C15.6,11.9,15.6,11.7,15.6,11.4z"/>
	<path class="st2" d="M7.5,14.9c-0.5,0-0.9-0.2-1.4-0.8C6,14,5.8,13.8,5.7,13.7c0,0,0,0-0.2,0l0,0c-0.1,0-0.1,0-0.3,0.1
		c-0.1,0-0.1,0.1-0.1,0.1c0,0-0.1,0.2-0.2,0.3c-0.4,0.5-0.7,0.8-1.3,0.8c-0.6,0-0.9-0.3-1.3-0.7c-0.3-0.3-0.4-0.4-0.5-0.4
		c0,0-0.2,0-0.3,0c-0.2,0.1-0.3,0.2-0.5,0.4c-0.1,0.1-0.2,0.2-0.3,0.3l-0.1,0.1l-0.5-0.6l0.1-0.1c0,0,0.1-0.1,0.2-0.2
		c0.3-0.4,0.6-0.6,0.9-0.7c0.1,0,0.1,0,0.2,0c0.2,0,0.5,0,0.6,0.1c0.2,0.1,0.4,0.3,0.7,0.6c0.4,0.4,0.5,0.5,0.7,0.5
		c0.2,0,0.3,0,0.7-0.5c0.2-0.3,0.3-0.3,0.3-0.4l0,0c0,0,0,0,0.1-0.1C5,13,5.2,12.9,5.5,12.9l0,0c0.2,0,0.4,0,0.6,0.1
		c0.2,0.1,0.5,0.3,0.7,0.6c0.4,0.5,0.6,0.5,0.7,0.5c0.2,0,0.3,0,0.7-0.5c0.4-0.5,0.7-0.7,1.2-0.7c0.2,0,0.4,0,0.6,0.1
		c0.2,0.1,0.4,0.3,0.7,0.6c0.2,0.2,0.3,0.3,0.5,0.4c0,0,0.1,0,0.2,0c0.1,0,0.2,0,0.2,0c0.1-0.1,0.3-0.2,0.5-0.5
		c0.4-0.5,0.7-0.7,1.2-0.7h0c0.3,0,0.4,0,0.6,0.1c0.2,0.1,0.4,0.3,0.6,0.5c0.2,0.2,0.2,0.3,0.4,0.3c0.2,0.1,0.4,0.2,0.5,0.2l0.1,0
		l-0.1,0.8l-0.1,0c-0.2,0-0.6-0.1-0.8-0.3c-0.3-0.1-0.4-0.3-0.6-0.5c-0.1-0.2-0.3-0.3-0.4-0.4c0,0,0,0-0.2,0h0c-0.2,0-0.3,0-0.6,0.4
		c-0.3,0.4-0.5,0.5-0.7,0.7c-0.2,0.1-0.5,0.1-0.6,0.1c-0.2,0-0.4,0-0.6-0.1c-0.2-0.1-0.5-0.3-0.7-0.6c-0.2-0.2-0.3-0.4-0.5-0.4
		c0,0,0,0-0.2,0c-0.2,0-0.3,0-0.6,0.4C8.4,14.6,8.1,14.9,7.5,14.9L7.5,14.9L7.5,14.9L7.5,14.9z"/>
	<path class="st1" d="M5.2,10.7c-0.1,0-0.1,0-0.2,0c-0.2-0.1-0.3-0.4-0.2-0.6l0.6-1.4C5.5,8.4,5.8,8.3,6,8.4C6.2,8.5,6.3,8.7,6.2,9
		l-0.6,1.4C5.6,10.5,5.4,10.7,5.2,10.7z"/>
	<path class="st1" d="M12.1,10.7c-0.1,0-0.1,0-0.2,0c-0.2-0.1-0.3-0.4-0.2-0.6l0.6-1.4c0.1-0.2,0.4-0.3,0.6-0.2
		c0.2,0.1,0.3,0.4,0.2,0.6l-0.6,1.4C12.5,10.5,12.3,10.7,12.1,10.7z"/>
</g>
</svg>
