<?xml version="1.0" encoding="utf-8"?>
<!-- Generator: Adobe Illustrator 26.1.0, SVG Export Plug-In . SVG Version: 6.00 Build 0)  -->
<svg version="1.1" id="Layer_1" xmlns="http://www.w3.org/2000/svg" xmlns:xlink="http://www.w3.org/1999/xlink" x="0px" y="0px"
	 viewBox="0 0 16 16" style="enable-background:new 0 0 16 16;" xml:space="preserve">
<style type="text/css">
	.st0{opacity:0.5;fill:#FFFFFF;enable-background:new    ;}
	.st1{fill:#6E6F72;}
	.st2{fill:#6486C4;}
</style>
<g id="icon">
	<path class="st0" d="M2.8,3.1c-0.7,0-1.3-0.6-1.3-1.3c0-0.6,0.4-1.2,1-1.3c0.1,0,0.2,0,0.3,0c0.6,0,1.1,0.4,1.2,0.9
		c0.1,0.2,0.1,0.5,0,0.6C4,2.7,3.5,3.1,2.8,3.1z"/>
	<path class="st1" d="M2.8,3.5c-0.9,0-1.7-0.8-1.7-1.7c0-0.8,0.6-1.5,1.4-1.7c0.1,0,0.2,0,0.3,0c0.7,0,1.4,0.5,1.6,1.2
		c0.1,0.3,0.1,0.6,0.1,0.9C4.3,3,3.6,3.5,2.8,3.5z M2.8,0.9c-0.1,0-0.1,0-0.2,0C2.2,1,1.9,1.4,1.9,1.8c0,0.5,0.4,0.9,0.9,0.9
		c0.4,0,0.8-0.3,0.9-0.7c0-0.1,0-0.3,0-0.4C3.6,1.2,3.2,0.9,2.8,0.9z"/>
	<path class="st0" d="M11.7,9.9c0-0.3-0.2-0.5-0.4-0.6c-0.1-0.1-0.2-0.1-0.4-0.1l0,0c-0.1,0-0.6,0-1-0.1C9.1,9,9.1,9,9,9l0,0l0,0
		l0,0c0-0.1,0.1-0.4,0.2-0.7c0.1-0.4,0.2-0.8,0.2-0.9c0.2-0.5,0.2-0.9,0.2-1.2c0-0.3,0-0.5-0.2-0.7c0,0-0.1-0.1-0.3-0.2
		C9.1,5.2,8.9,5.1,8.9,5.1C8.8,5,8.5,5,8.3,5C8.2,5,7.9,4.9,7.7,4.9C7.3,4.8,6.8,4.7,6,4.6c-0.4,0-0.7-0.1-0.7-0.1
		c-0.1,0-0.1,0-0.6-0.8C4.6,3.7,4.5,3.6,4.4,3.5C4.2,3.8,3.8,4,3.4,4.1c0.1,0.1,0.1,0.2,0.2,0.4l0,0c0.3,0.5,0.6,1,0.7,1
		c0.1,0.2,0.3,0.3,0.4,0.3c0,0,0.1,0,0.3,0.1C5.6,6,6.2,6.1,6.5,6.2c0,0,0.4,0.3,0.4,0.4l0,0l0,0c0,0,0,0-0.2,1.5L6.5,9.6l0,0.2
		c0,0.1,0,0.2,0,0.3c0.1,0.3,0.4,0.5,0.7,0.5c0.2,0,0.3,0.1,0.7,0.1c0.2,0,0.6,0,1.1,0c0.4,0,0.8,0,1,0c0.1,0,0.2,0,0.2,0
		c0,0,0,0.1,0,0.4c0,0.2-0.1,0.5-0.1,0.8c-0.1,0.6-0.2,1.2-0.2,1.2c0,0,0,0.3,0.1,0.3c0,0.1,0.1,0.2,0.2,0.2
		c0.1,0.1,0.3,0.2,0.4,0.2c0.1,0,0.1,0,0.2,0c0.2-0.1,0.3-0.2,0.4-0.4c0-0.1,0.2-0.7,0.4-1.7C11.7,10.1,11.7,10,11.7,9.9z"/>
	<path class="st2" d="M12.2,9.8c0-0.4-0.3-0.8-0.7-1c-0.2-0.1-0.3-0.1-0.5-0.1l0,0c-0.1,0-0.4,0-0.9-0.1c-0.2,0-0.3,0-0.5,0
		c0-0.1,0.1-0.2,0.1-0.4c0.1-0.4,0.2-0.8,0.2-0.9c0.2-0.6,0.2-0.9,0.3-1.3c0-0.3,0-0.7-0.3-1C9.7,5,9.6,4.9,9.4,4.8
		C9.3,4.8,9.1,4.7,9,4.7C8.8,4.6,8.5,4.6,8.3,4.5C8.2,4.5,8,4.5,7.8,4.5C7.4,4.4,6.8,4.3,6,4.2c-0.2,0-0.4-0.1-0.6-0.1
		C5.3,4,5.1,3.7,5,3.5C4.9,3.4,4.8,3.2,4.7,3.1C4.6,3.4,4.4,3.6,4.1,3.8C4.2,3.8,4.2,3.9,4.3,4c0.6,0.9,0.6,0.9,0.9,1l0,0
		C5.2,5,5.6,5,5.9,5.1c0.8,0.1,1.4,0.2,1.8,0.2c0.2,0,0.4,0.1,0.6,0.1c0.2,0,0.4,0.1,0.5,0.1c0,0,0.1,0.1,0.3,0.1
		c0.1,0.1,0.1,0.1,0.2,0.1c0,0,0.1,0.2,0,0.3c0,0.3-0.1,0.6-0.2,1.1c0,0.1-0.2,0.6-0.2,1C8.7,8.4,8.6,8.6,8.6,8.7l0,0L8.5,9l0.1,0.2
		c0.2,0.2,0.2,0.2,1.2,0.3c0.1,0,0.9,0.1,1,0.1l0,0c0.1,0,0.1,0,0.2,0c0.1,0,0.2,0.1,0.2,0.2c0,0.1-0.1,0.6-0.3,1.6
		c-0.2,1-0.3,1.6-0.4,1.7c0,0.1-0.1,0.2-0.1,0.2c0,0,0,0,0,0c-0.1,0-0.1,0-0.2-0.1c0,0,0-0.1,0-0.1c0,0,0-0.1,0-0.1
		c0-0.1,0.1-0.6,0.2-1.1c0.1-0.3,0.1-0.6,0.1-0.8c0.1-0.4,0.1-0.6-0.1-0.8c-0.1-0.1-0.3-0.1-0.5-0.1c-0.2,0-0.6,0-1,0
		c-0.5,0-0.9,0-1.1,0c-0.3,0-0.4,0-0.6-0.1C7.1,10.1,6.9,10,6.9,10c0,0,0-0.1,0-0.2l0-0.2l0.2-1.4c0.3-1.6,0.3-1.6,0.2-1.7l0,0
		l0-0.1C7.2,6.2,6.8,5.8,6.7,5.8c-0.4-0.1-1-0.3-1.6-0.4c-0.2,0-0.3,0-0.3,0c0,0-0.1,0-0.2-0.2c0,0-0.3-0.5-0.6-1l0,0
		C3.9,4.1,3.8,4,3.8,3.9C3.5,4.1,3.2,4.1,2.9,4.1C3,4.3,3.1,4.4,3.2,4.7l0,0c0.2,0.4,0.6,1,0.7,1.1C4.1,6,4.3,6.2,4.5,6.2
		c0,0,0.1,0,0.4,0.1C5.5,6.4,6,6.5,6.3,6.6c0,0,0.1,0.1,0.2,0.1c0,0.3-0.1,0.9-0.2,1.3L6,9.6l0,0.2c0,0.1,0,0.3,0,0.4
		c0.1,0.3,0.3,0.7,1,0.8c0.2,0.1,0.3,0.1,0.8,0.1c0.2,0,0.6,0,1.1,0c0.3,0,0.5,0,0.7,0c0,0.2-0.1,0.5-0.1,0.8
		C9.5,12.4,9.4,13,9.4,13c0,0.2,0,0.5,0.1,0.6c0.1,0.1,0.2,0.3,0.3,0.4c0.2,0.2,0.5,0.3,0.7,0.3c0.1,0,0.2,0,0.3,0
		c0.3-0.1,0.6-0.4,0.7-0.7c0-0.1,0.3-1.5,0.4-1.8C12.2,10,12.2,10,12.2,9.8z"/>
	<path class="st0" d="M7.5,11.7c-0.1,0.5-0.3,1.1-0.5,1.6c-0.1,0.2-0.1,0.3-0.3,0.4c-0.2,0.1-2.9,1.7-3,1.8c-0.1,0-0.2,0.1-0.3,0.1
		c-0.2,0-0.4-0.1-0.5-0.3c-0.1-0.2-0.1-0.4,0-0.6c0.1-0.1,0.2-0.2,0.3-0.3c0,0,0.5-0.3,1.3-0.8l1.2-0.8l0.2-0.6
		c0.1-0.4,0.2-0.7,0.2-1c0.2,0.2,0.5,0.4,0.9,0.5C7.1,11.7,7.3,11.7,7.5,11.7z"/>
	<path class="st0" d="M14.2,6.9c-0.1-0.1-2-1.1-2.1-1.2c0,0-0.1,0-0.1,0c-0.1,0-1-0.3-1.4-0.4c0.1,0.3,0.1,0.6,0.1,0.9
		c0,0.2,0,0.4-0.1,0.6l0.8,0.1l1.1,0.5c0.9,0.5,1.1,0.5,1.2,0.5c0,0,0.1,0,0.1,0c0.1,0,0.2,0,0.2-0.1c0.2-0.1,0.3-0.3,0.3-0.6
		C14.4,7.1,14.3,6.9,14.2,6.9z"/>
	<path class="st2" d="M7.9,11.7c-0.1,0.5-0.3,1.2-0.5,1.7C7.3,13.7,7.2,13.9,7,14c-0.2,0.1-2.9,1.7-3.1,1.8l0,0
		C3.7,15.9,3.5,16,3.4,16c-0.4,0-0.7-0.2-0.9-0.4c-0.2-0.3-0.2-0.7-0.1-1c0.1-0.2,0.3-0.4,0.5-0.5c0,0,0.2-0.1,1.3-0.8l1.1-0.7
		l0.1-0.5l0.2-0.7c0.1-0.2,0.1-0.4,0.1-0.6C5.8,11,6,11.2,6.4,11.4l-0.2,0.8L6,13.1l-1.4,0.9c-1.1,0.7-1.3,0.8-1.3,0.8
		c-0.1,0-0.1,0.1-0.1,0.1c0,0,0,0.1,0,0.1c0,0,0,0.1,0.1,0.1c0.1,0,0.1,0,0.2,0c0.2-0.1,2.8-1.6,2.9-1.7c0,0,0.1,0,0.1-0.2
		c0.2-0.5,0.3-1.1,0.5-1.5C7.3,11.7,7.4,11.7,7.9,11.7C7.9,11.7,7.9,11.7,7.9,11.7z"/>
	<path class="st2" d="M14.4,6.5c-0.2-0.1-2-1.2-2.2-1.2l0,0l0,0c-0.1,0-0.1,0-0.2,0c-0.1,0-0.4-0.1-0.5-0.2l-0.1,0.2l0-0.2
		c-0.3-0.1-0.6-0.2-0.8-0.2l-0.4-0.1l0,0c0.3,0.3,0.4,0.7,0.4,1c0.2,0,0.4,0.1,0.5,0.2C11.8,6,11.8,6,11.9,6c0,0,0,0,0,0
		c0.3,0.2,1.8,1,2,1.1c0,0,0,0,0,0.1c0,0.1-0.1,0.2-0.1,0.2c0,0,0,0,0,0c0,0,0,0,0,0c-0.1,0-0.4-0.2-1.1-0.5l-1.1-0.6l-0.9-0.2
		c0,0.3-0.1,0.5-0.1,0.9l0.8,0.1l1,0.5c1,0.5,1.1,0.5,1.3,0.6c0.1,0,0.1,0,0.2,0c0.1,0,0.3,0,0.4-0.1c0.3-0.2,0.6-0.6,0.6-1
		C14.8,7,14.6,6.7,14.4,6.5z"/>
	<path class="st0" d="M8.9,3.7c-0.3,0-0.6-0.1-0.8-0.3C7.7,3.2,7.4,2.6,7.6,2c0.1-0.5,0.6-1,1.1-1.1c0.1,0,0.1,0,0.2,0
		c0.2,0,0.4,0,0.6,0.1c0.4,0.2,0.7,0.6,0.8,1c0,0.2,0,0.5,0,0.6C10.2,3,10.1,3.2,9.9,3.3C9.7,3.6,9.4,3.7,9.1,3.7
		C9,3.7,9,3.7,8.9,3.7z"/>
	<path class="st2" d="M10.7,2c-0.1-0.6-0.5-1.1-1.1-1.3C9.5,0.5,9.2,0.5,8.9,0.5c-0.1,0-0.2,0-0.3,0C7.9,0.6,7.3,1.2,7.2,1.9
		C7,2.6,7.3,3.4,7.9,3.8c0.3,0.2,0.7,0.3,1,0.3c0.1,0,0.1,0,0.2,0c0.4,0,0.8-0.2,1.1-0.5c0.2-0.2,0.4-0.5,0.5-0.8
		C10.8,2.6,10.8,2.2,10.7,2z M9.9,2.6c0,0.2-0.1,0.3-0.3,0.4C9.4,3.2,9.3,3.3,9,3.3c0,0-0.1,0-0.1,0c-0.2,0-0.4-0.1-0.6-0.2
		C8.1,2.9,7.9,2.5,8,2.1c0.1-0.4,0.4-0.7,0.8-0.7c0,0,0.1,0,0.1,0c0.1,0,0.3,0,0.4,0.1c0.3,0.1,0.5,0.4,0.6,0.7
		C9.9,2.3,9.9,2.5,9.9,2.6z"/>
</g>
</svg>
