<?xml version="1.0" encoding="utf-8"?>
<!-- Generator: Adobe Illustrator 26.1.0, SVG Export Plug-In . SVG Version: 6.00 Build 0)  -->
<svg version="1.1" id="Layer_1" xmlns="http://www.w3.org/2000/svg" xmlns:xlink="http://www.w3.org/1999/xlink" x="0px" y="0px"
	 viewBox="0 0 16 16" style="enable-background:new 0 0 16 16;" xml:space="preserve">
<style type="text/css">
	.st0{fill:#6485C3;}
	.st1{fill:#6E6F72;}
</style>
<g id="icon">
	<path class="st0" d="M10.4,13.2c-0.3,0-0.5-0.1-0.7-0.3c-0.2-0.2-0.3-0.5-0.3-0.8c0-0.1,0-0.9,0.1-1.5c0-0.7,0.1-1.1,0.1-1.3
		c0,0-1.5-1.3-1.5-1.3c0,0.1,0,0.3,0,0.4c0,0.4,0,0.5,0,0.6c0,0.2-0.2,0.4-0.4,0.6C7.7,9.8,7,10.2,6.3,10.5
		c-1.4,0.7-1.5,0.8-1.7,0.8c0,0-0.1,0-0.1,0c-0.5,0-0.9-0.5-0.9-1c0-0.3,0.2-0.7,0.4-0.8c0.1,0,0.6-0.4,1.1-0.6
		c0.6-0.3,0.9-0.5,1-0.5c0-0.1,0-0.5,0-1.1C6,6.1,6,6.1,6,6C6.1,5.6,6.4,5.2,6.6,5c0.1,0,0.6-0.3,1.1-0.7c0.4-0.2,0.7-0.4,0.9-0.5
		c-0.1,0-0.2-0.1-0.4-0.2C7.6,3.4,7.5,3.4,7.4,3.3l0,0l0,0C7.3,3.2,6,1.4,5.9,1.2C5.8,1.1,5.8,0.8,5.8,0.6C5.9,0.3,6.1,0.1,6.4,0
		c0.1,0,0.1,0,0.2,0C6.8,0,7,0.1,7.2,0.2c0.1,0.1,0.4,0.6,0.7,1l0.6,0.9l1.3,0.4l0.7,0.2C11,2.9,11.1,3,11.1,3l0,0.1l0-0.1
		c0.3,0.1,0.7,0.4,0.7,0.4l0,0l0,0c0,0,0.1,0.1,0.1,0.1c0.1,0.1,0.2,0.2,0.4,0.3c0.3,0.3,0.8,0.7,1.3,1.1c1.5,1.4,1.8,1.6,1.9,1.7
		c0.1,0.2,0.1,0.3,0.1,0.5c0,0.2,0,0.3-0.1,0.5C15.3,7.9,15.1,8,14.8,8c-0.2,0-0.3,0-0.4-0.1c-0.1-0.1-0.7-0.6-1.3-1.2l-1.2-1.1l0,0
		c0,0-0.2,0.1-0.4,0.2l-0.7,0.4c-0.3,0.2-0.6,0.3-0.8,0.4c-0.1,0-0.2,0.1-0.2,0.1C9.8,7,10,7.2,10.4,7.5c0.1,0.1,0.8,0.7,0.9,0.8
		c0.2,0.2,0.3,0.5,0.3,0.7c0,0.1,0,0.9-0.1,1.7c-0.1,1.8-0.1,1.8-0.2,2c-0.1,0.1-0.3,0.3-0.4,0.4C10.7,13.2,10.6,13.2,10.4,13.2z
		 M13.6,3.3c-0.9,0-1.6-0.7-1.6-1.6s0.7-1.6,1.6-1.6c0.9,0,1.6,0.7,1.6,1.6S14.5,3.3,13.6,3.3z"/>
	<path class="st1" d="M14.5,16C14.4,16,14.4,15.9,14.5,16c-5.1-0.9-9.9-1.8-14.1-3.8C0.1,12,0,11.7,0.1,11.4
		c0.1-0.3,0.5-0.4,0.7-0.3C5,13.1,9.7,14,14.6,14.9c0.3,0.1,0.5,0.3,0.4,0.6C15,15.8,14.7,16,14.5,16z"/>
	<path class="st1" d="M0.7,14.4c-0.2,0-0.4-0.1-0.5-0.3c-0.2-0.3-0.1-0.6,0.2-0.8l2.1-1.2c0.3-0.2,0.6-0.1,0.8,0.2
		c0.2,0.3,0.1,0.6-0.2,0.8L1,14.3C0.9,14.3,0.8,14.4,0.7,14.4z"/>
</g>
</svg>
