<?xml version="1.0" encoding="utf-8"?>
<!-- Generator: Adobe Illustrator 26.1.0, SVG Export Plug-In . SVG Version: 6.00 Build 0)  -->
<svg version="1.1" id="Layer_1" xmlns="http://www.w3.org/2000/svg" xmlns:xlink="http://www.w3.org/1999/xlink" x="0px" y="0px"
	 viewBox="0 0 16 16" style="enable-background:new 0 0 16 16;" xml:space="preserve">
<style type="text/css">
	.st0{fill:#6485C3;}
</style>
<g id="icon">
	<path class="st0" d="M6.5,16c-0.2,0-0.3,0-0.5-0.1c-0.3-0.2-0.4-0.5-0.4-0.9c0-0.1,0-0.7,0.1-1.4c0.1-0.7,0.1-1.3,0.1-1.4
		c0,0,0-0.2,0.1-1.2L6,10l0,0l0,0c0,0-0.1-0.1-0.1-0.1c0,0-0.2-0.2-0.3-0.4C5.2,9.1,4.8,8.7,4.3,8C4.1,7.9,4,7.7,3.9,7.6
		c0,0.1-0.1,0.1-0.1,0.2c0,0-0.1,0.1-0.1,0.1c0.1,0,0.2,0.1,0.7,0.7l0.1,0.1C4.9,9.2,5,9.3,5.1,9.3l0,0.1v0.1c0,0,0,0,0,0l0,0.1
		L5,9.7c-0.1,0-0.1,0-0.3,0c-0.1,0-0.8,0-1.5,0c-1,0-1.3,0-1.4-0.1C1.5,9.5,1.3,9.3,1.1,9c0-0.1,0-0.2,0-0.3c0-0.2,0-0.4,0.2-0.6
		c0-0.1,0.3-0.6,0.7-1.1L2,6.8c0.9-1.5,0.9-1.5,1-1.7C3.2,5,3.4,4.8,3.5,4.7c0.2-0.1,0.5-0.2,0.7-0.3c0.1,0,0.1,0,0.2,0
		c0.3,0,0.7,0.1,1,0.2C5.7,4.8,5.8,4.9,6,5.1c0.3,0.4,1.9,2.5,2.2,3L9,8c0.5,0,0.9-0.1,1-0.1c0.1,0,1-0.1,2.2-0.2
		c1.6-0.1,2-0.2,2.2-0.2c0,0,0.1,0,0.1,0c0.5,0.1,0.8,0.3,0.9,0.8c0.1,0.5-0.2,1-0.7,1.2c-0.1,0-1.1,0.2-2,0.3c-1.1,0.1-2,0.3-2,0.3
		c-0.1,0-0.7,0.1-1.2,0.2c-0.6,0.1-0.9,0.1-1,0.1c0,0.1-0.1,0.4-0.2,0.9c-0.2,0.8-0.2,1-0.2,1.1c0,0.1,0,0.3-0.3,1.5l0,0.1
		c-0.3,1.4-0.3,1.4-0.3,1.5c-0.1,0.2-0.3,0.3-0.4,0.4C6.8,16,6.6,16,6.5,16z M4.2,3.6C4.7,3.5,5.1,3.3,5.3,3
		c0.2-0.2,0.3-0.4,0.4-0.7c0-0.2,0-0.2,0-0.4c0-0.2,0-0.3,0-0.4C5.6,1,5.4,0.8,5.2,0.5C5,0.3,4.7,0.1,4.4,0C4.2,0,4.1,0,4,0
		c0,0-0.1,0-0.1,0C3.7,0,3.7,0,3.7,0l0,0C3.6,0,3.3,0.1,3.2,0.1c-0.6,0.2-1,0.8-1.1,1.4c0,0.1,0,0.2,0,0.4c0,0.8,0.6,1.5,1.4,1.7
		c0.1,0,0.3,0.1,0.5,0.1C4,3.7,4.1,3.6,4.2,3.6z M7.8,6.5l0.1,0c0.1,0,0.2,0,0.3-0.1c0.1,0,0.1,0,0.2,0c0,0,0,0,0.1,0c0,0,0,0,0.1,0
		c0.1,0,0.1,0,0.2,0c0.1,0,0.6-0.1,1.3-0.1c1.2-0.1,1.2-0.1,1.3-0.2c0.5-0.2,0.8-0.6,0.7-1c-0.1-0.2-0.3-0.5-0.5-0.6
		c-0.1-0.1-0.3-0.1-0.5-0.1c-0.1,0-0.1,0-0.2,0c0,0-0.3,0-1,0.1c-0.8,0-1.1,0-1.9,0.1c-0.3,0-0.8,0-1.3,0l-0.4,0l0.2,0.3
		c0.2,0.3,0.7,0.9,1.1,1.5L7.8,6.5z"/>
</g>
</svg>
