<?xml version="1.0" encoding="utf-8"?>
<!-- Generator: Adobe Illustrator 26.1.0, SVG Export Plug-In . SVG Version: 6.00 Build 0)  -->
<svg version="1.1" id="Layer_1" xmlns="http://www.w3.org/2000/svg" xmlns:xlink="http://www.w3.org/1999/xlink" x="0px" y="0px"
	 viewBox="0 0 16 16" style="enable-background:new 0 0 16 16;" xml:space="preserve">
<style type="text/css">
	.st0{fill:#6E6F72;}
	.st1{opacity:0.5;fill:#FFFFFF;enable-background:new    ;}
	.st2{fill:#6486C4;}
</style>
<g id="icon">
	<path class="st0" d="M6.5,11.8v0.8l0.1,0c0,0,0.1,0,0.2,0.1c0.1,0,0.1,0,0.2,0.1l0.1,0v1.5V16h0.4H8v-2.6v-2.1
		C8,11.1,7.9,11,7.7,11H7.2H6.8c-0.2,0-0.3,0.1-0.3,0.3V11.8z"/>
	<path class="st1" d="M13,11.6c-0.1,0-0.2,0-0.2,0c0,0-0.2-0.1-1.9-1l-1.9-1l-0.2,0l-1-0.1c-0.4,0-1-0.1-1.2-0.1c-0.3,0-0.5,0-0.7,0
		c-0.2,0-0.3,0-0.4,0C5,9.2,4.7,8.9,4.6,8.5c0-0.1,0-0.4,0-0.5c0-0.1,0.1-0.3,0.2-0.4c0.2-0.2,0.3-0.3,1.2-1
		c0.9-0.7,0.9-0.7,0.8-0.7c0,0-0.1-0.1-0.1-0.1c0,0,0,0-1.7,0.3C4.1,6.2,3.4,6.4,3.4,6.4c0,0,0,0-0.1,0C3.1,6.4,3,6.3,2.9,6.2
		c-0.2-0.2-0.2-0.6,0-0.9C2.9,5.2,3,5.1,3.2,5.1c0,0,0.7-0.2,1.6-0.4c1.5-0.4,1.5-0.4,1.5-0.4c0.1,0,0.2-0.1,1.5-0.1
		C8.6,4.1,9,4.1,9.2,4.1c0.1,0,0.1,0,0.1,0c0,0,0.1,0,0.2,0c0.3,0,0.6,0.3,0.7,0.7c0,0.1,0,0.2,0,0.3c0,0.2,0,0.2,0,0.3
		C10.1,5.8,10,6,9.8,6.2C9.6,6.4,9.4,6.5,9,6.8C8.1,7.5,8.1,7.5,8.1,7.6l0,0l0,0l0,0c0,0,0,0,0.7,0.1l0.6,0.1L9.6,8
		c0.2,0.1,3.6,2.1,3.7,2.2c0,0,0.1,0.1,0.2,0.1c0.3,0.3,0.3,0.6,0.1,0.9c-0.1,0.2-0.2,0.3-0.4,0.4C13.1,11.6,13,11.6,13,11.6z"/>
	<path class="st1" d="M11.5,3.7c-0.1,0-0.2,0-0.4,0c-0.6-0.1-1-0.6-1.1-1.1C9.9,2.2,9.9,2,9.9,1.7c0.2-0.6,0.6-1,1.2-1.1
		c0.1,0,0.2,0,0.2,0c0.3,0,0.6,0.1,0.8,0.2c0.3,0.2,0.5,0.4,0.6,0.7c0.2,0.4,0.2,1,0,1.4C12.6,3.3,12,3.7,11.5,3.7
		C11.5,3.7,11.5,3.7,11.5,3.7z"/>
	<path class="st2" d="M13.8,10c-0.1-0.1-0.2-0.2-0.2-0.2C13.4,9.7,10,7.7,9.8,7.6L9.6,7.5L9,7.4c0.1-0.1,0.2-0.1,0.3-0.2
		c0.5-0.3,0.6-0.5,0.8-0.7c0.3-0.3,0.5-0.6,0.6-0.9c0-0.1,0-0.2,0-0.4c0-0.2,0-0.3-0.1-0.5c-0.2-0.6-0.6-1-1.1-1.1c0,0-0.1,0-0.1,0
		c-0.1,0-0.1,0-0.3,0c-0.2,0-0.6,0-1.5,0.1C6.4,3.8,6.2,3.8,6.1,3.9C6,3.9,5.7,4,4.6,4.3C4.1,4.4,3.1,4.7,3,4.7
		C2.8,4.7,2.6,4.9,2.5,5c-0.4,0.4-0.3,1.1,0,1.5C2.7,6.7,3,6.8,3.3,6.8c0,0,0.1,0,0.1,0c0.1,0,1.7-0.3,1.7-0.3c0.1,0,0.2,0,0.3-0.1
		c-0.7,0.5-0.8,0.7-1,0.9C4.3,7.5,4.2,7.7,4.2,7.9c-0.1,0.2-0.1,0.5,0,0.8c0.2,0.5,0.6,0.9,1.2,1.1c0.1,0,0.2,0,0.5,0
		c0.2,0,0.4,0,0.7,0c0.2,0,0.7,0.1,1.2,0.1L8.7,10l0.1,0l1.8,0.9c1.8,1,2,1,2,1l0,0c0.1,0,0.2,0.1,0.4,0.1c0.1,0,0.2,0,0.4-0.1
		c0.3-0.1,0.5-0.3,0.7-0.6C14.2,10.9,14.1,10.4,13.8,10z M13.2,11c0,0.1-0.1,0.1-0.2,0.2c0,0,0,0-0.1,0c0,0-0.1,0-0.1,0
		c-0.1,0-0.4-0.2-1.9-1L9,9.2L7.8,9.1C7.3,9,6.8,9,6.6,9c-0.3,0-0.6,0-0.8,0c-0.1,0-0.2,0-0.3,0C5.3,8.8,5.1,8.7,5,8.4
		c0-0.1,0-0.2,0-0.3C5,8,5.1,7.9,5.2,7.8c0.1-0.2,0.2-0.3,1.1-0.9C6.7,6.6,6.9,6.4,7,6.3C7.1,6.2,7.3,6,7.2,5.7
		C7.1,5.5,6.9,5.3,6.7,5.3c-0.1,0-0.1,0-1.7,0.3C4,5.8,3.4,5.9,3.3,5.9c0,0,0,0,0,0c-0.1,0-0.1,0-0.2-0.1c-0.1-0.1-0.1-0.2,0-0.3
		c0,0,0.1-0.1,0.1-0.1c0,0,0.5-0.1,1.5-0.4c1.4-0.3,1.5-0.4,1.6-0.4c0.1,0,0.7-0.1,1.3-0.1C8.6,4.6,9,4.5,9.2,4.5c0,0,0,0,0,0
		c0.1,0,0.2,0,0.2,0c0.1,0,0.2,0.2,0.3,0.4c0,0.1,0,0.1,0,0.2c0,0.1,0,0.1,0,0.2c0,0.2-0.2,0.3-0.3,0.5C9.3,6.1,9.2,6.2,8.7,6.5
		c-0.9,0.7-1,0.8-1.1,1.1l0,0.2L7.9,8l0,0C8,8.1,8.1,8.1,8.8,8.2l0.6,0.1l0.1,0c0.2,0.1,3.5,2,3.6,2.1c0,0,0.1,0.1,0.1,0.1
		C13.2,10.7,13.3,10.8,13.2,11z"/>
	<path class="st2" d="M13.3,1.2c-0.2-0.4-0.4-0.6-0.8-0.9c-0.3-0.2-0.7-0.3-1-0.3c-0.1,0-0.2,0-0.3,0c-0.8,0.1-1.4,0.7-1.6,1.4
		c-0.1,0.4-0.1,0.7,0,1C9.7,3.3,10.3,3.9,11,4c0.2,0,0.3,0.1,0.5,0.1l0,0c0.8,0,1.5-0.4,1.8-1.1C13.5,2.5,13.5,1.8,13.3,1.2z
		 M12.5,2.6c-0.2,0.4-0.6,0.6-1,0.6c-0.1,0-0.2,0-0.3,0c-0.4-0.1-0.7-0.4-0.8-0.8c-0.1-0.2-0.1-0.4,0-0.6C10.5,1.4,10.8,1,11.3,1
		c0.1,0,0.1,0,0.2,0C11.6,1,11.9,1,12,1.1c0.2,0.1,0.3,0.3,0.5,0.5C12.6,1.9,12.6,2.3,12.5,2.6z"/>
	<path class="st1" d="M5.7,10.4c-0.1,0.2-0.3,0.6-0.4,0.7c-0.1,0.1-0.3,0.3-0.5,0.3c0,0-0.7,0.2-1.6,0.4c-0.8,0.2-1.6,0.4-1.7,0.4
		c-0.1,0-0.2,0-0.3,0c-0.2,0-0.3-0.1-0.5-0.2c-0.2-0.2-0.3-0.4-0.2-0.7c0.1-0.2,0.2-0.4,0.5-0.6c0,0,0.6-0.2,1.4-0.5L4,9.9L4,9.7
		c0,0,0,0,0,0c0.3,0.3,0.7,0.6,1.2,0.7C5.4,10.4,5.5,10.4,5.7,10.4z"/>
	<path class="st1" d="M15.1,6.6c-0.1-0.2-0.2-0.4-0.5-0.5c-0.1,0-0.1,0-0.6,0c-0.2,0-0.4,0-0.8,0l-1.3,0l-0.3-0.3
		c-0.1-0.1-0.3-0.2-0.4-0.4c0,0.1,0,0.2-0.1,0.3c-0.1,0.4-0.3,0.8-0.7,1.2c0,0,0,0,0,0c0.4,0.2,1,0.5,1,0.6c0,0,0.1,0,0.2,0
		c0,0,0.1,0,0.1,0c0.1,0,0.4,0,1.4-0.1c0.3,0,1.4-0.1,1.5-0.1c0.2-0.1,0.4-0.2,0.5-0.4C15.2,6.9,15.2,6.7,15.1,6.6z"/>
	<path class="st2" d="M15.5,7.1c-0.1,0.3-0.4,0.6-0.8,0.7l0,0c-0.1,0-0.1,0-1.6,0.1C12.2,8,11.9,8,11.8,8c-0.6-0.4-1.2-0.7-1.5-0.9
		C10.4,7.1,10.4,7,10.5,7c0.1-0.1,0.2-0.2,0.3-0.3c0.4,0.2,0.8,0.4,0.9,0.5c0,0,0.1,0,0.1,0l0,0c0,0,0,0,0,0c0.1,0,0.5,0,1.4-0.1
		C14.2,7,14.5,7,14.6,7c0.1,0,0.1-0.1,0.2-0.1c0,0,0-0.1,0-0.1c0-0.1-0.1-0.1-0.2-0.2c0,0-0.1,0-0.5,0c-0.2,0-0.4,0-0.8,0l-1.5,0
		l-0.4-0.4C11.3,6.1,11.2,6,11.1,6c0-0.1,0-0.1,0.1-0.2c0-0.2,0.1-0.3,0.1-0.6c0-0.1,0-0.2,0-0.3c0.2,0.2,0.5,0.4,0.7,0.6l0.2,0.2
		l1.1,0c0.3,0,0.6,0,0.8,0c0.5,0,0.6,0,0.7,0c0.4,0.1,0.7,0.4,0.8,0.8C15.6,6.7,15.6,7,15.5,7.1z"/>
	<path class="st2" d="M5.8,10.4c-0.2,0-0.4,0-0.6,0c-0.1,0.2-0.2,0.4-0.3,0.5c0,0-0.1,0.1-0.2,0.1c0,0-0.6,0.1-1.6,0.4
		c-0.8,0.2-1.6,0.4-1.7,0.4c-0.1,0-0.1,0-0.2,0c-0.1,0-0.1,0-0.1-0.1c-0.1-0.1-0.1-0.2-0.1-0.3c0-0.1,0.1-0.2,0.3-0.3
		c0.1,0,0.5-0.2,1.4-0.5l1.6-0.5L4.4,10C4.1,9.8,3.9,9.5,3.7,9.2c0,0.1-0.1,0.2-0.1,0.3L2.5,9.9c-0.1,0-1.3,0.4-1.4,0.5
		c-0.4,0.2-0.7,0.5-0.7,0.9c-0.1,0.4,0,0.8,0.3,1.1c0.2,0.2,0.5,0.3,0.8,0.3c0.1,0,0.2,0,0.4,0c0.1,0,0.9-0.2,1.7-0.4
		c0.2,0,1.5-0.4,1.6-0.4c0.3-0.1,0.5-0.3,0.7-0.5c0.1-0.1,0.4-0.7,0.5-0.9C6.1,10.4,5.9,10.4,5.8,10.4z"/>
</g>
</svg>
