<?xml version="1.0" encoding="utf-8"?>
<!-- Generator: Adobe Illustrator 26.1.0, SVG Export Plug-In . SVG Version: 6.00 Build 0)  -->
<svg version="1.1" id="Layer_1" xmlns="http://www.w3.org/2000/svg" xmlns:xlink="http://www.w3.org/1999/xlink" x="0px" y="0px"
	 viewBox="0 0 16 16" style="enable-background:new 0 0 16 16;" xml:space="preserve">
<style type="text/css">
	.st0{opacity:0.5;fill:#FFFFFF;enable-background:new    ;}
	.st1{fill:#6486C4;}
	.st2{fill:#6E6F72;}
</style>
<g id="icon">
	<path class="st0" d="M13.9,12.1C13.9,12.1,13.8,12.1,13.9,12.1c-0.1,0-0.5-0.1-0.9-0.3c-0.1,0-0.3-0.1-0.6-0.2l-0.2-0.1
		c-0.4-0.2-0.7-0.3-0.8-0.3c-0.1,0-0.1-0.1-0.2-0.2c-0.1-0.1-0.1-0.2-0.4-0.5L10.5,10l-0.2-0.1C9.8,9.7,6.5,8.4,6.4,8.4
		C6.2,8.3,6.1,8.2,5.9,8.1C5.8,7.9,5.7,7.7,5.6,7.6c0-0.1-0.9-1.6-1.7-3c-1.1-1.9-1.7-2.9-1.7-3C2.1,1.5,2.1,1.2,2.2,1
		c0.1-0.2,0.3-0.4,0.5-0.4c0.1,0,0.1,0,0.2,0c0.1,0,0.1,0,0.2,0c0.2,0,0.3,0.1,0.4,0.2l0.1,0.1l1.4,2.4l1.4,2.4l1.9,0.8
		c1,0.4,1.9,0.8,1.9,0.8c0,0,0.1,0.1,0.2,0.1c0.1,0.1,0.1,0.2,0.8,1.4l0.8,1.4l1,0.4c0.6,0.2,1,0.4,1.1,0.4c0.1,0.1,0.2,0.2,0.2,0.4
		c0,0,0,0.1,0,0.2C14.4,11.9,14.2,12.1,13.9,12.1L13.9,12.1z"/>
	<path class="st1" d="M13.9,12.5C13.8,12.5,13.8,12.5,13.9,12.5c-0.3,0-0.8-0.2-1-0.3c-0.1,0-0.3-0.1-0.6-0.2L12,11.9
		c0,0-0.7-0.3-0.8-0.3c-0.1-0.1-0.2-0.1-0.3-0.2c-0.1-0.1-0.2-0.2-0.5-0.6l-0.2-0.4l-0.1,0c-0.5-0.2-3.8-1.5-3.9-1.5
		C6,8.7,5.8,8.6,5.6,8.4C5.5,8.2,5.3,8,5.2,7.8C5.2,7.7,4.3,6.3,3.5,4.9C2,2.2,1.8,1.9,1.8,1.8c-0.1-0.3-0.1-0.7,0.1-1
		C2,0.5,2.3,0.3,2.6,0.2c0.1,0,0.2,0,0.3,0c0.1,0,0.2,0,0.3,0c0.2,0.1,0.4,0.2,0.6,0.3L4,0.7l2.8,4.7l1.8,0.7c0.5,0.2,1.9,0.8,2,0.8
		l0,0c0.1,0,0.2,0.1,0.2,0.2c0.1,0.1,0.2,0.2,0.9,1.5l0.7,1.2l0.9,0.3c0.4,0.1,1,0.4,1.1,0.5l0,0c0.2,0.1,0.4,0.4,0.4,0.6
		c0,0.1,0,0.2,0,0.3C14.8,12.1,14.4,12.5,13.9,12.5z M2.6,1.5c0.1,0.2,1.1,1.9,1.7,2.9C4.5,4.7,6,7.3,6,7.4c0,0.1,0.1,0.2,0.2,0.3
		C6.3,7.8,6.4,7.9,6.6,8C6.7,8,10,9.3,10.5,9.5l0.3,0.1l0.4,0.6c0.2,0.4,0.3,0.4,0.3,0.4c0,0,0.1,0.1,0.1,0.1c0,0,0.3,0.1,0.8,0.3
		l0.2,0.1c0.3,0.1,0.5,0.2,0.6,0.2c0.3,0.1,0.6,0.2,0.7,0.2c0,0,0.1-0.1,0.1-0.1c0,0,0,0,0-0.1c0,0,0,0,0,0c-0.1,0-0.4-0.2-1-0.4
		l-1.2-0.5l-0.8-1.5c-0.5-0.9-0.7-1.3-0.8-1.3c0,0,0,0-0.1-0.1C10,7.7,9.2,7.3,8.2,6.9l-2-0.8L3.3,1.2L3.2,1.1C3.2,1.1,3.1,1,3.1,1
		C3,1,3,1,3,1c0,0-0.1,0-0.1,0c-0.1,0-0.2,0.1-0.2,0.2C2.6,1.3,2.6,1.4,2.6,1.5z"/>
	<path class="st0" d="M13.4,8.8c-0.1,0-0.1,0-0.2,0c-0.5-0.1-0.9-0.5-1.1-1c0-0.1,0-0.5,0-0.6c0.1-0.4,0.4-0.7,0.7-0.9
		c0.1-0.1,0.2-0.1,0.4-0.1c0.1,0,0.1,0,0.2,0c0.1,0,0.3,0,0.4,0.1c0.5,0.1,0.8,0.5,0.9,1c0,0.2,0,0.4,0,0.6c-0.1,0.5-0.5,0.8-0.9,1
		C13.7,8.7,13.6,8.8,13.4,8.8z"/>
	<path class="st1" d="M13.4,9.2c-0.1,0-0.2,0-0.3,0c-0.7-0.1-1.2-0.6-1.4-1.3c-0.1-0.2-0.1-0.6,0-0.9c0.1-0.5,0.5-0.9,1-1.2
		c0.2-0.1,0.3-0.1,0.5-0.2c0.2,0,0.5,0,0.8,0.1c0.6,0.2,1.1,0.7,1.2,1.3c0.1,0.2,0,0.6,0,0.8C15,8.5,14.6,9,14,9.2
		C13.8,9.2,13.6,9.2,13.4,9.2z M13.5,6.6c0,0-0.1,0-0.1,0c-0.1,0-0.2,0-0.2,0.1c-0.3,0.1-0.4,0.3-0.5,0.6c0,0.1,0,0.3,0,0.4
		C12.7,8,13,8.2,13.3,8.3c0,0,0.1,0,0.1,0c0.1,0,0.2,0,0.3,0C14,8.2,14.3,8,14.3,7.6c0-0.1,0-0.3,0-0.4c-0.1-0.3-0.3-0.6-0.6-0.7
		C13.7,6.6,13.6,6.6,13.5,6.6z"/>
	<path class="st2" d="M13.3,15.9c-0.3,0-0.5-0.1-0.8-0.2L0,10.6l0.4-1l12.5,5.2c0.1,0,0.2,0.1,0.4,0.1c0.3,0,0.8-0.1,1.1-0.4
		l0.2-0.1l0.6,0.9L15,15.4C14.5,15.7,13.8,15.9,13.3,15.9z"/>
	<path class="st2" d="M2.2,9.3l0.4-1l6.6,2.8l0.2,0.3c0.3,0.4,0.3,0.5,0.5,0.7c0,0,0,0,0,0l0,0l0.4,0.5L2.2,9.3z"/>
</g>
</svg>
