<?xml version="1.0" encoding="utf-8"?>
<!-- Generator: Adobe Illustrator 26.1.0, SVG Export Plug-In . SVG Version: 6.00 Build 0)  -->
<svg version="1.1" id="Layer_1" xmlns="http://www.w3.org/2000/svg" xmlns:xlink="http://www.w3.org/1999/xlink" x="0px" y="0px"
	 viewBox="0 0 16 16" style="enable-background:new 0 0 16 16;" xml:space="preserve">
<style type="text/css">
	.st0{opacity:0.5;fill:#FFFFFF;enable-background:new    ;}
	.st1{fill:#6486C4;}
	.st2{fill:#6E6F72;}
</style>
<g id="icon">
	<path class="st0" d="M8.1,9.1c0,0,0-0.1,0-0.2C8.1,8.8,8,8.8,8,8.7C7.8,8.5,7.7,8.2,7.5,7.9C7.1,7.2,6.9,6.7,6.9,6.7
		C6.8,6.5,6.8,6.4,6.8,6.3c0-0.1,0-0.1,0-0.2C6.9,5.9,7,5.7,7.2,5.6l0.1,0l2.4-0.4l2.4-0.4l0.1,0c0.2,0,0.2,0,0.4,0.1
		c0.2,0.1,0.4,0.3,0.4,0.5c0,0.1,0,0.1,0,0.2c0,0.2-0.1,0.4-0.2,0.6c-0.1,0.1-0.2,0.2-0.4,0.2c-0.1,0-0.9,0.2-1.7,0.3
		c-0.3,0-1.6,0.3-1.6,0.3l0,0l0,0c0,0,0,0,0.1,0.3c0.1,0.1,0.2,0.3,0.3,0.5c0.3,0.5,0.6,1.1,0.9,1.7c0.6,1,1.2,2.3,1.5,2.9
		c-0.1,0.1-0.2,0.2-0.2,0.3c-0.2,0.2-0.3,0.3-0.4,0.4c0,0,0,0-0.1,0c0,0-0.1,0-0.1,0c-0.1,0-0.2-0.1-0.3-0.3
		c-0.3-0.3-0.5-0.6-0.8-0.7c-0.3-0.2-0.5-0.2-0.7-0.2c-0.8,0-1.2,0.4-1.5,0.9c-0.3,0.3-0.4,0.4-0.4,0.4c0,0-0.1,0-0.5-0.4
		c-0.2-0.3-0.5-0.5-0.8-0.7c-0.3-0.1-0.5-0.2-0.7-0.2l0,0c-0.4,0-0.7,0.1-1,0.3c-0.1,0-0.1,0.1-0.1,0.1l0,0l0,0
		c-0.1,0.1-0.1,0.1-0.4,0.4c-0.2,0.2-0.3,0.3-0.3,0.3c0,0,0,0-0.1,0c-0.1,0-0.1,0-0.4-0.3c-0.2-0.2-0.3-0.3-0.4-0.4
		c0.9-0.5,2.3-1.4,3.1-1.8c1-0.6,1.9-1,2.2-1.2C8.1,9.1,8.1,9.1,8.1,9.1L8.1,9.1z"/>
	<path class="st1" d="M11.5,12.2c-0.3-0.6-0.9-1.7-1.4-2.6C9.8,9,9.4,8.4,9.2,7.9C9.1,7.7,9,7.6,8.9,7.4C8.8,7.2,8.7,7,8.8,6.8
		l0.1-0.2l0.2-0.1c0,0,0,0,1.6-0.3C12,6,12.3,5.9,12.3,5.9c0.1,0,0.1,0,0.2-0.1c0.1-0.1,0.1-0.1,0.1-0.3c0-0.1,0-0.1,0-0.1
		c0-0.1-0.1-0.2-0.2-0.3c-0.1,0-0.1,0-0.2,0l-0.1,0L9.8,5.6L7.4,6l0,0C7.3,6,7.3,6.1,7.2,6.2c0,0,0,0,0,0.1c0,0.1,0,0.1,0,0.2
		c0,0,0.2,0.4,0.6,1.2C8.1,8,8.2,8.2,8.3,8.4c0.1,0.1,0.1,0.2,0.1,0.2c0.1,0.1,0.2,0.4,0,0.7L8.4,9.4L8.2,9.5
		C7.8,9.7,7,10.2,6.1,10.7c-0.7,0.4-2.1,1.2-3,1.8l-0.1,0.1l-0.1-0.1c-0.1-0.1-0.3-0.2-0.4-0.3L2.2,12l0.4-0.2
		c0.9-0.5,2.3-1.4,3-1.8c0.8-0.5,1.6-0.9,2-1.1l0,0C7.5,8.7,7.3,8.4,7.1,8.1C7,7.9,6.5,6.9,6.5,6.8C6.4,6.6,6.4,6.5,6.4,6.3
		c0-0.2,0-0.2,0.1-0.3C6.5,5.6,6.7,5.4,7,5.2l0.1-0.1L12,4.3l0.2,0c0.2,0,0.3,0,0.5,0.1c0.3,0.2,0.6,0.5,0.7,0.8c0,0.1,0,0.2,0,0.3
		c0,0.3-0.1,0.6-0.4,0.9c-0.2,0.2-0.3,0.3-0.5,0.3c-0.1,0-0.2,0.1-1.7,0.3c-0.4,0.1-0.8,0.1-1.1,0.2c0,0.1,0.1,0.2,0.2,0.3
		c0.3,0.5,0.6,1.1,0.9,1.7c0.5,0.9,1.1,2,1.4,2.6l0.2,0.3l-0.1,0.1c-0.1,0.1-0.2,0.2-0.3,0.4l-0.2,0.2L11.5,12.2z"/>
	<path class="st0" d="M13.6,10.6C13.6,10.6,13.6,10.6,13.6,10.6c-0.5,0-0.8-0.2-1.1-0.4c-0.2-0.2-0.4-0.5-0.4-0.8c0-0.1,0-0.4,0-0.5
		c0.1-0.6,0.6-1.1,1.3-1.2c0,0,0.1,0,0.2,0c0.1,0,0.3,0,0.4,0c0.3,0.1,0.5,0.2,0.7,0.4c0.3,0.3,0.5,0.7,0.5,1.1
		c0,0.3-0.1,0.6-0.3,0.9C14.6,10.4,14.1,10.6,13.6,10.6z"/>
	<path class="st1" d="M15,7.7c-0.3-0.2-0.6-0.4-0.9-0.5c-0.2,0-0.4,0-0.5,0c-0.1,0-0.2,0-0.3,0c-0.8,0.1-1.5,0.8-1.6,1.6
		c0,0.2,0,0.5,0,0.7c0.1,0.4,0.2,0.8,0.5,1c0.4,0.4,0.8,0.5,1.3,0.6c0,0,0.1,0,0.1,0c0.6,0,1.2-0.3,1.6-0.8c0.2-0.3,0.3-0.7,0.3-1.1
		C15.6,8.5,15.4,8.1,15,7.7z M14.5,9.7c-0.2,0.3-0.5,0.5-0.9,0.5c0,0,0,0,0,0c-0.3,0-0.5-0.1-0.7-0.3c-0.2-0.2-0.3-0.4-0.3-0.6
		c0-0.1,0-0.3,0-0.4C12.6,8.5,13,8.1,13.5,8c0,0,0,0,0.1,0c0.1,0,0.2,0,0.3,0c0.2,0,0.4,0.1,0.5,0.3c0.2,0.2,0.3,0.5,0.3,0.8
		C14.7,9.3,14.6,9.5,14.5,9.7z"/>
	<path class="st2" d="M7.5,14.9c-0.5,0-0.9-0.2-1.4-0.8c-0.1-0.2-0.3-0.3-0.4-0.4c0,0,0,0-0.1,0l0,0c-0.1,0-0.1,0-0.2,0.1
		c-0.1,0-0.1,0.1-0.1,0.1c0,0-0.1,0.2-0.2,0.2c-0.4,0.5-0.7,0.8-1.3,0.8c-0.6,0-0.9-0.3-1.3-0.8c-0.3-0.3-0.4-0.4-0.5-0.4
		c0,0-0.2,0-0.2,0c-0.1,0.1-0.3,0.2-0.5,0.4c-0.1,0.1-0.2,0.2-0.3,0.3l-0.1,0.1l-0.6-0.6l0.1-0.1c0,0,0.1-0.1,0.2-0.2
		C0.7,13.2,1,13,1.3,12.9c0.1,0,0.1,0,0.2,0c0.2,0,0.5,0,0.6,0.1c0.2,0.1,0.5,0.3,0.7,0.6c0.4,0.4,0.5,0.4,0.7,0.4
		c0.2,0,0.3,0,0.7-0.5c0.2-0.3,0.3-0.3,0.3-0.4l0,0c0,0,0,0,0.1-0.1c0.3-0.2,0.5-0.3,0.8-0.3l0,0c0.2,0,0.4,0,0.6,0.1
		c0.2,0.1,0.5,0.3,0.7,0.6c0.4,0.5,0.6,0.5,0.7,0.5c0.1,0,0.3,0,0.6-0.5c0.4-0.5,0.7-0.8,1.3-0.8c0.2,0,0.4,0,0.6,0.1
		c0.2,0.1,0.5,0.3,0.7,0.6c0.2,0.2,0.3,0.3,0.5,0.4c0,0,0.1,0,0.2,0c0.1,0,0.2,0,0.2,0c0.1-0.1,0.3-0.2,0.5-0.5
		c0.4-0.5,0.7-0.7,1.2-0.7h0c0.3,0,0.4,0,0.6,0.1c0.2,0.1,0.4,0.3,0.6,0.6c0.2,0.2,0.2,0.2,0.4,0.3C15,14,15.3,14,15.4,14l0.2,0
		l-0.1,0.9l-0.2,0c-0.2,0-0.6-0.1-0.8-0.3c-0.3-0.1-0.4-0.3-0.6-0.5c-0.1-0.2-0.3-0.3-0.4-0.4c0,0,0,0-0.1,0h0c-0.2,0-0.3,0-0.6,0.4
		c-0.3,0.4-0.5,0.6-0.7,0.7c-0.2,0.1-0.5,0.1-0.6,0.1c-0.2,0-0.4,0-0.6-0.1c-0.2-0.1-0.5-0.3-0.7-0.6c-0.2-0.2-0.3-0.4-0.5-0.4
		c0,0,0,0,0,0c0,0,0,0-0.1,0c-0.2,0-0.3,0-0.6,0.4C8.4,14.6,8,14.9,7.5,14.9L7.5,14.9L7.5,14.9L7.5,14.9z"/>
</g>
</svg>
