<?xml version="1.0" encoding="utf-8"?>
<!-- Generator: Adobe Illustrator 26.1.0, SVG Export Plug-In . SVG Version: 6.00 Build 0)  -->
<svg version="1.1" id="Layer_1" xmlns="http://www.w3.org/2000/svg" xmlns:xlink="http://www.w3.org/1999/xlink" x="0px" y="0px"
	 viewBox="0 0 16 16" style="enable-background:new 0 0 16 16;" xml:space="preserve">
<style type="text/css">
	.st0{opacity:0.5;fill:#FFFFFF;enable-background:new    ;}
	.st1{fill:#6486C4;}
	.st2{fill:#6E6F72;}
</style>
<g id="icon">
	<path class="st0" d="M8.4,7C8,7.1,7.7,7.4,7.6,7.8c0,0.1,0,0.2,0,0.4c0,0.2,0,0.4,0.1,0.5C7.7,8.9,7.8,8.9,8,9
		c0.1,0,1.7,0.2,1.8,0.2c0.1,0,0.1-0.1,0.1-0.4c0-0.2,0-0.3,0-0.5c-0.1-0.4-0.2-0.8-0.5-1C9.2,7.2,9.1,7.1,8.9,7C8.7,7,8.5,7,8.4,7z
		"/>
	<path class="st1" d="M9.8,9.5c-0.4,0-1.8-0.2-1.8-0.2C7.6,9.3,7.5,9.1,7.3,8.8C7.2,8.6,7.2,8.4,7.2,8.1c0-0.2,0-0.3,0.1-0.5
		c0.2-0.5,0.5-0.9,1-1l0,0c0.2,0,0.5,0,0.7,0c0.3,0.1,0.5,0.2,0.7,0.4c0.3,0.3,0.5,0.7,0.6,1.2c0,0.2,0,0.3,0,0.5
		c0,0.3,0,0.6-0.4,0.7C9.8,9.5,9.8,9.5,9.8,9.5z M8.4,7.4C8.2,7.4,8,7.6,7.9,7.9c0,0.1,0,0.1,0,0.3c0,0.2,0,0.3,0.1,0.4
		C8,8.6,8,8.6,8.1,8.7c0.1,0,1,0.1,1.4,0.1c0,0,0,0,0,0c0-0.2,0-0.3,0-0.4C9.4,8,9.3,7.8,9.1,7.6C9,7.5,8.9,7.4,8.8,7.4
		C8.7,7.4,8.5,7.4,8.4,7.4z"/>
	<path class="st0" d="M6,8L6,8C6,8,6,8,6,8L6,8z"/>
	<path class="st0" d="M15.6,13.4c-0.1-0.3-0.3-0.5-0.4-0.6c-0.1-0.1-0.3-0.2-0.5-0.3c-0.3-0.2-0.3-0.2-0.1-0.5
		c0.1-0.2,0.1-0.2,0.1-0.3c0,0,0-0.1-0.1-0.1c-0.1-0.1-0.2-0.1-0.5-0.3c-0.9-0.5-1.2-0.6-1.7-0.7c-0.4-0.1-0.5-0.1-0.9-0.1l-0.1,0
		c-0.4,0-0.6,0-1.2,0.1c-0.1,0-0.2,0-0.3,0c-0.3,0-0.4-0.1-0.6-0.2C8.8,10.1,8.7,10,7.8,9.9c-1-0.1-1.1-0.2-1.2-0.3c0,0,0-0.1,0-0.8
		c0-0.4,0-0.7,0-0.7c0,0,0,0,0,0c0,0-0.1,0-0.2,0C6.2,8,6,8,6,8l0,0c0,0,0,0,0,0c0,0,0,0-0.1,0c-0.2,0-0.4,0.1-0.6,0.2
		C5.1,8.3,5,8.4,4.5,9c-0.7,0.9-0.8,0.9-0.9,1c-0.2,0.1-0.3,0.1-0.6,0.2c0,0-0.1,0-0.1,0c0,0-0.8,0-0.9-0.1c-0.1,0-0.1-0.1-0.1-0.1
		c0-0.2,0.2-0.3,0.6-0.3C2.9,9.5,3,9.5,3,9.5c0-0.1,0.1-0.6,0.1-0.9c0-0.3,0-0.3-0.1-0.3c0,0,0,0-0.2,0c-0.1,0-0.3,0-0.5,0
		c-0.8,0-0.9,0.1-1,0.1C1.2,8.4,1.1,8.5,1,8.8c-0.3,0.7-0.4,1-0.6,1.8c-0.1,0.6-0.1,0.8,0.1,1.1c0,0,0,0,0,0
		c0.4-0.5,0.9-0.8,1.5-0.8c1.1,0,1.9,0.9,1.9,2c0,0.1,0,0.2,0,0.2c0.2,0,0.6,0,1.5,0c0.3,0,0.7,0,1.2,0l2.6,0c0-0.1,0-0.2,0-0.2
		c0-1.1,0.9-2,1.9-2s1.9,0.9,1.9,2c0,0.2,0,0.4-0.1,0.5c0,0,0.1,0.1,0.1,0.1c0,0,0,0,0,0c0.1,0.1,0.1,0.1,0.8,0.1l0.5,0
		c0.7,0,1,0,1,0c0,0,0,0,0,0C15.7,13.6,15.7,13.5,15.6,13.4z"/>
	<path class="st2" d="M9.4,13.4L9.4,13.4c0,0-3.5,0-3.9,0c-0.4,0-1.5,0-1.6,0l0,0l0,0C4,13.3,4,13.1,4,12.9c0,0,0-0.1,0-0.1
		c0.2,0,0.6,0,1.5,0c0.3,0,0.7,0,1.2,0l2.6,0c0,0,0,0.1,0,0.1C9.3,13.1,9.3,13.3,9.4,13.4z"/>
	<path class="st2" d="M15.9,13.3c-0.1-0.3-0.3-0.6-0.5-0.7c-0.1-0.1-0.4-0.2-0.5-0.3c0,0,0,0,0,0c0,0,0,0,0-0.1
		c0.1-0.2,0.1-0.3,0.1-0.5c0-0.1-0.1-0.2-0.2-0.3c-0.1-0.1-0.2-0.2-0.6-0.4c-0.9-0.5-1.2-0.6-1.8-0.8c-0.4-0.1-0.6-0.1-1-0.1l-0.1,0
		c-0.4,0-0.7,0-1.2,0.1c-0.1,0-0.2,0-0.3,0c-0.2,0-0.2,0-0.4-0.1C9,9.7,8.8,9.7,7.8,9.6C7.5,9.5,7,9.5,6.9,9.4c0-0.1,0-0.3,0-0.6
		c0-0.7,0-0.8-0.1-0.9l0,0l0,0c0,0,0,0-0.1,0l0,0l-0.1,0c0,0-0.1,0-0.3,0c-0.1,0-0.2,0-0.2,0v0H6l-0.1,0l0,0c0,0,0,0-0.1,0
		c-0.2,0-0.5,0.1-0.7,0.2C4.9,8,4.8,8.1,4.3,8.8C3.6,9.6,3.5,9.6,3.4,9.7c-0.1,0-0.1,0.1-0.3,0.1c0.1-0.1,0.2-0.1,0.2-0.2
		c0-0.1,0.1-0.7,0.2-1c0-0.2,0-0.5-0.3-0.7l0,0c-0.1,0-0.1,0-0.4,0c-0.1,0-0.3,0-0.5,0C1.5,8,1.4,8,1.2,8.1C0.9,8.2,0.8,8.3,0.7,8.6
		c-0.3,0.7-0.4,1-0.6,1.9c-0.2,0.7-0.1,1,0.2,1.3c0,0,0,0.1,0,0.1l0,0.1h0c0.1-0.2,0.3-0.4,0.4-0.6c-0.1-0.1-0.1-0.2,0-0.7
		C0.9,9.9,1,9.6,1.3,8.9c0.1-0.2,0.1-0.2,0.2-0.2c0.1,0,0.4-0.1,0.9-0.1c0.2,0,0.3,0,0.4,0c0,0.2-0.1,0.5-0.1,0.6
		c-0.1,0-0.2,0-0.3,0.1C2.1,9.3,1.6,9.5,1.6,10c0,0.2,0.1,0.4,0.3,0.4c0.2,0.1,0.7,0.1,1,0.1c0.1,0,0.1,0,0.1,0
		c0.3,0,0.6-0.1,0.8-0.2c0.2-0.1,0.3-0.2,1-1.1c0.5-0.6,0.5-0.6,0.7-0.7c0.1-0.1,0.3-0.1,0.5-0.1c0,0,0,0,0,0c0,0,0.1,0,0.2,0
		c0,0.1,0,0.3,0,0.4c0,0.8,0,0.8,0.1,0.9c0.2,0.4,0.5,0.4,1.5,0.5c0.9,0.1,1,0.1,1.3,0.4c0.2,0.2,0.4,0.3,0.8,0.3c0.1,0,0.2,0,0.3,0
		c0.6,0,0.8-0.1,1.2-0.1l0.1,0c0.4,0,0.5,0,0.9,0.1c0.5,0.1,0.8,0.2,1.6,0.7c0.2,0.1,0.3,0.2,0.4,0.2c0,0,0,0,0,0
		c-0.2,0.4-0.2,0.7,0.3,1c0.3,0.1,0.4,0.2,0.4,0.3c0,0,0.1,0.1,0.2,0.2c-0.1,0-0.3,0-0.5,0c0,0-0.5,0-0.5,0c-0.2,0-0.5,0-0.6,0
		c0,0,0,0,0,0c-0.1-0.1-0.2-0.2-0.3-0.2c0,0.3-0.1,0.5-0.2,0.7c0,0,0,0,0,0l0,0c0.2,0.2,0.3,0.2,1.1,0.2l0,0l0.5,0
		c1,0,1.1,0,1.2-0.1l0.1,0l0,0c0,0,0,0,0-0.1C16,13.7,16,13.5,15.9,13.3z"/>
	<path class="st2" d="M6.2,11.3l-0.8,1.1L4.8,12l0.8-1.1L6.2,11.3z M6.9,10.9L6.1,12l0.6,0.4l0.8-1.1L6.9,10.9z M8.2,10.9L7.4,12
		l0.6,0.4l0.8-1.1L8.2,10.9z"/>
	<ellipse class="st0" cx="2.1" cy="12.9" rx="1.2" ry="1.2"/>
	<path class="st2" d="M2.1,14.5c-0.9,0-1.6-0.7-1.6-1.6s0.7-1.6,1.6-1.6s1.6,0.7,1.6,1.6S2.9,14.5,2.1,14.5z M2.1,12.1
		c-0.4,0-0.8,0.4-0.8,0.8s0.4,0.8,0.8,0.8s0.8-0.4,0.8-0.8C2.8,12.4,2.5,12.1,2.1,12.1z"/>
	<ellipse class="st0" cx="11.2" cy="12.9" rx="1.2" ry="1.2"/>
	<path class="st2" d="M11.2,14.5c-0.9,0-1.6-0.7-1.6-1.6s0.7-1.6,1.6-1.6s1.6,0.7,1.6,1.6S12.1,14.5,11.2,14.5z M11.2,12.1
		c-0.4,0-0.8,0.4-0.8,0.8s0.4,0.8,0.8,0.8c0.4,0,0.8-0.4,0.8-0.8S11.7,12.1,11.2,12.1z"/>
</g>
</svg>
