<?xml version="1.0" encoding="utf-8"?>
<!-- Generator: Adobe Illustrator 26.1.0, SVG Export Plug-In . SVG Version: 6.00 Build 0)  -->
<svg version="1.1" id="Layer_1" xmlns="http://www.w3.org/2000/svg" xmlns:xlink="http://www.w3.org/1999/xlink" x="0px" y="0px"
	 viewBox="0 0 16 16" style="enable-background:new 0 0 16 16;" xml:space="preserve">
<style type="text/css">
	.st0{fill:#6485C3;}
	.st1{fill:#6D6E71;}
</style>
<g id="icon">
	<path class="st0" d="M9.4,16c-0.2,0-0.4-0.1-0.5-0.3c0-0.1-0.1-0.1-0.3-0.8c-0.2-0.6-0.2-0.8-0.3-0.9c0-0.1-0.1-0.3-0.2-0.4
		c0,0,0,0,0-0.1c0,0,0,0,0,0.1C8,13.7,8,13.9,7.9,14c-0.1,0.1-0.1,0.3-0.3,0.9c-0.2,0.7-0.2,0.8-0.3,0.8C7.2,15.9,7,16,6.8,16
		c0,0,0,0-0.1,0c-0.3,0-0.6-0.2-0.6-0.5c0-0.1,0.2-1.5,0.2-1.6l0,0l0,0c0,0,0-0.1,0-0.1c0,0,0-0.1,0.1-0.2c0.1-0.3,0.2-0.6,0.3-0.9
		l0.1-0.2l0-0.2c0-0.1,0-0.2-0.1-0.4l0-0.2c0-0.2-0.1-0.5-0.1-0.6l0-0.1l-0.1-0.1c-0.2-0.1-0.9-0.9-1-1.1C5.5,9.7,4.9,8.4,4.8,8.3
		l0-0.1l0.1-0.1c0,0,0,0,0,0L4.9,8L5,8c0.1,0,0.2,0,0.4,0c0.2,0,0.4,0,0.4,0l0.1,0l0.4,0.7c0.2,0.2,0.3,0.5,0.4,0.6
		c0.1,0.1,0.8,0.6,0.9,0.7L7.8,10L8,10c0,0,0.1,0,0.1,0c0.1,0,0.2,0,0.2,0c0.1,0,0.1,0,0.2-0.1c0.2-0.1,0.8-0.6,0.9-0.7
		c0.1-0.1,0.4-0.6,0.4-0.6C10,8.3,10.2,8.1,10.3,8L10.3,8l0.1,0c0.1,0,0.2,0,0.4,0c0.2,0,0.4,0,0.4,0l0.1,0L11.4,8c0,0,0,0,0,0.1
		l0.1,0.1l0,0.1c-0.1,0.2-0.7,1.4-0.8,1.5c-0.1,0.2-0.8,0.9-1,1.1l-0.1,0.1l0,0.1c0,0.1-0.1,0.4-0.1,0.7l0,0.2
		c-0.1,0.5-0.1,0.5,0,0.6l0,0.1c0.2,0.4,0.3,0.6,0.4,0.9c0,0.1,0.1,0.2,0.1,0.2l0,0c0,0,0,0,0,0.1l0,0l0,0c0,0.1,0.2,1.5,0.2,1.7
		C10.1,15.8,9.8,16,9.4,16C9.5,16,9.5,16,9.4,16z"/>
	<path class="st0" d="M8.1,9.4c-0.2,0-0.4,0-0.5-0.1C7.1,9.1,6.8,8.6,7,8.2C7,8,7.1,7.9,7.3,7.7c0.2-0.1,0.3-0.2,0.5-0.3
		c0.1,0,0.2,0,0.3,0c0.2,0,0.5,0.1,0.7,0.2C8.9,7.7,9,7.8,9.1,7.9c0.1,0.2,0.2,0.4,0.2,0.6C9.3,8.8,9.1,9,9,9.1
		C8.7,9.3,8.4,9.4,8.1,9.4z"/>
	<path class="st1" d="M5,7.4c-0.1,0-0.1,0-0.2-0.1L2.9,6.1C2.9,6,2.8,5.9,2.8,5.8c0-0.1,0-0.2,0-0.3C2.9,5.4,3,5.3,3.1,5.3
		c0.1,0,0.1,0,0.2,0.1l1.9,1.3c0.2,0.1,0.2,0.4,0.1,0.6C5.3,7.4,5.2,7.4,5,7.4z M10.8,7.3l2.3-1.2c0.1,0,0.2-0.1,0.2-0.2
		c0-0.1,0-0.2,0-0.3c-0.1-0.1-0.2-0.2-0.3-0.2c-0.1,0-0.1,0-0.2,0l-2.3,1.2c-0.2,0.1-0.3,0.3-0.2,0.5c0.1,0.1,0.2,0.2,0.3,0.2
		C10.7,7.3,10.8,7.3,10.8,7.3z M10.2,7l1.7-2.3C12,4.5,12,4.2,11.8,4.1C11.8,4,11.7,4,11.6,4c-0.1,0-0.2,0.1-0.3,0.1L9.6,6.5
		C9.5,6.5,9.5,6.6,9.5,6.8C9.5,6.9,9.6,7,9.6,7c0.1,0.1,0.1,0.1,0.2,0.1C10,7.1,10.1,7.1,10.2,7z M6.1,7.1C6.1,7,6.2,6.9,6.2,6.8
		s0-0.2,0-0.3L4.8,4.1C4.8,4,4.6,3.9,4.5,3.9c-0.1,0-0.1,0-0.2,0.1C4.1,4.1,4.1,4.3,4.2,4.5l1.4,2.4C5.6,7,5.7,7.1,5.9,7.1
		C5.9,7.1,6,7.1,6.1,7.1z M9.5,6.7L10,3.5c0-0.1,0-0.2-0.1-0.3S9.7,3,9.6,3c0,0,0,0-0.1,0C9.4,3,9.3,3.2,9.2,3.3L8.8,6.5
		C8.7,6.8,8.9,7,9.1,7c0,0,0,0,0.1,0C9.3,7,9.5,6.9,9.5,6.7z M6.7,7C6.8,7,6.9,7,7,6.9S7,6.7,7,6.6L6.8,3.4c0-0.2-0.2-0.4-0.4-0.4
		c0,0,0,0,0,0C6.2,3.1,6,3.3,6,3.5l0.3,3.1C6.3,6.9,6.5,7,6.7,7C6.7,7,6.7,7,6.7,7z"/>
	<path class="st1" d="M13.2,6l0.2-0.1c0.7-0.2,1.1-0.8,1.2-1.6c0.1-0.6-0.1-1.2-0.5-1.7c-0.2-0.2-0.4-0.4-0.7-0.5
		C13.3,2.1,13,2,12.9,2l-0.1,0l-0.1-0.1c-0.3-0.6-0.8-1-1.5-1.2c-0.5-0.1-0.8-0.1-1.2,0l-0.2,0L9.8,0.6C9.4,0.3,8.8,0,8.2,0
		C8,0,7.9,0,7.9,0C7.2,0.1,6.7,0.3,6.4,0.6C6.3,0.7,6.3,0.7,6.2,0.7c-0.1,0-0.3-0.1-0.5-0.1C5.2,0.6,4.6,0.7,4.2,1
		C3.8,1.3,3.6,1.6,3.4,1.9L3.3,2L3.2,2C3.2,2,3.1,2,3,2.1C2,2.3,1.4,3.3,1.6,4.3c0.1,0.8,0.5,1.3,1.2,1.6l0.1,0.1l0,0
		c0-0.1,0.3-0.6,0.4-0.7c0.2-0.2,0.8-0.7,1-0.7l0.2-0.3C4.7,4,5,3.8,5.4,3.7c0.1,0,0.4-0.1,0.5-0.1l0.4,0.1h0l0.3-0.2
		C6.7,3.4,6.9,3.3,7,3.3c0.5-0.2,1.6-0.2,2.1,0c0.1,0,0.3,0.1,0.4,0.2l0.2,0.2h0l0.4-0.1c0.1,0,0.4,0,0.5,0.1
		c0.4,0.1,0.7,0.3,0.8,0.5l0.2,0.4l0,0.1l0.3,0c0.3,0,0.6,0.4,0.7,0.6C12.9,5.4,13.1,5.9,13.2,6L13.2,6z"/>
</g>
</svg>
