<?xml version="1.0" encoding="utf-8"?>
<!-- Generator: Adobe Illustrator 26.1.0, SVG Export Plug-In . SVG Version: 6.00 Build 0)  -->
<svg version="1.1" id="Layer_1" xmlns="http://www.w3.org/2000/svg" xmlns:xlink="http://www.w3.org/1999/xlink" x="0px" y="0px"
	 viewBox="0 0 16 16" style="enable-background:new 0 0 16 16;" xml:space="preserve">
<style type="text/css">
	.st0{fill:#6D6E71;}
	.st1{fill:#6485C3;}
</style>
<g id="icon">
	<path class="st0" d="M3.2,3.4H2.9v-1h0.2C3.5,2.4,4,2.2,4,1.7C4,1,3.4,1,3.2,1C2.6,1,2.3,1.2,2.3,1.7l-1-0.1C1.3,0.8,1.9,0,3.2,0
		C4.5,0,5,0.9,5,1.7C5,2.6,4.4,3.3,3.2,3.4L3.2,3.4z"/>
	<path class="st0" d="M3.2,5.9c-1.3,0-1.8-0.8-1.9-1.6l1-0.1c0,0.5,0.3,0.7,0.9,0.7c0.2,0,0.9,0,0.9-0.7c0-0.3-0.3-0.6-0.9-0.7H2.9
		v-1h0.3l0,0C4.3,2.6,5,3.3,5,4.2C5,5,4.5,5.9,3.2,5.9z"/>
	<path class="st1" d="M11.8,15.9c-0.1,0-0.3,0-0.4-0.1c-0.3-0.1-0.5-0.5-0.5-0.9c0-0.1,0.2-1.3,0.2-1.4c0.1-0.5,0.2-0.9,0.2-1.1
		c-0.2-0.1-0.5-0.2-1-0.4c-1-0.4-1.2-0.5-1.2-0.5c-0.1-0.1-0.1-0.1-0.3-0.2c-0.4-0.3-0.7-0.6-0.7-1c0-0.1,0.1-0.7,0.6-3
		c-0.1,0-0.2,0-0.3,0l-0.4,0L8,8C7.5,9,7.5,9,7.4,9.1l0,0C7.2,9.3,7,9.4,6.8,9.4c0,0-0.1,0-0.1,0C6.5,9.4,6.1,9.2,6,9
		C5.9,8.8,5.9,8.6,6,8.4c0-0.1,0.9-2.2,0.9-2.3C6.9,6,7.1,5.8,7.2,5.8c0.2-0.1,0.3-0.1,1.3-0.2l0.1,0c0.6,0,1-0.1,1.1-0.1
		c0.1,0,0.2,0,0.3,0c0.1,0,0.2,0,0.3,0c0.4,0,0.8,0.2,1.1,0.4c0.3,0.3,0.5,0.6,0.4,1c0,0.1-0.3,1.3-0.5,1.8
		c-0.2,0.7-0.3,1.2-0.4,1.5c0.1,0.1,0.4,0.2,0.7,0.3l0.2,0.1c1,0.4,1,0.4,1.1,0.6l0,0c0.1,0.1,0.2,0.2,0.3,0.4
		c0,0.1,0.1,0.2,0.1,0.3v0.2l-0.3,1.5l-0.2,0.9c-0.1,0.4-0.1,0.6-0.1,0.6C12.6,15.6,12.3,15.9,11.8,15.9
		C11.8,15.9,11.8,15.9,11.8,15.9z M6.9,14.3c-0.2,0-0.6,0-1.3,0l-0.2,0c-1.5,0-1.6,0-1.7-0.1c-0.3-0.1-0.6-0.3-0.7-0.6
		c-0.1-0.3,0-0.5,0.1-0.7c0.1-0.2,0.4-0.3,0.6-0.4c0.1,0,0.4,0,1.4,0c0.7,0,1.3,0,1.3,0l0,0L7,11.8c0.1-0.2,0.3-0.3,0.3-0.5l0.2-0.2
		l0.2,0.2c0.1,0.2,0.3,0.4,0.6,0.6c0.2,0.1,0.2,0.1,0.3,0.2c0.1,0,0.1,0.1,0.3,0.2l0.2,0.1l-0.1,0.2c-0.1,0.2-0.4,0.5-1,1.1
		c0,0-0.1,0.1-0.1,0.1c-0.1,0.1-0.2,0.3-0.4,0.3l0,0C7.3,14.3,7.2,14.3,6.9,14.3L6.9,14.3z M13,9.3c-0.2,0-0.4-0.1-0.6-0.3l-0.1-0.1
		l0-0.1c0.2-0.8,0.3-1.3,0.4-1.5l0.1-0.4l0.3,0.4c0.1,0.1,0.2,0.2,0.2,0.2c0.3,0,1.5-0.2,1.6-0.2c0.1,0,0.2,0,0.2,0c0,0,0,0,0.1,0
		c0.4,0,0.7,0.2,0.8,0.6c0.1,0.4-0.1,0.8-0.5,1c0,0-0.1,0-1.1,0.3c-0.5,0.1-0.9,0.2-1,0.2C13.2,9.2,13.1,9.3,13,9.3L13,9.3L13,9.3z
		 M11.7,5.1c-0.2,0-0.5-0.1-0.7-0.2c-0.5-0.2-0.8-0.7-0.8-1.3c0-0.2,0-0.4,0.1-0.6c0.2-0.5,0.6-0.9,1.2-1c0.1,0,0.2,0,0.3,0
		c0.4,0,0.8,0.2,1.1,0.5C12.9,2.6,13,2.7,13,2.9c0.1,0.2,0.1,0.4,0.1,0.7c0,0.3,0,0.4-0.1,0.7c-0.2,0.5-0.7,0.8-1.2,0.9
		C11.8,5.1,11.7,5.1,11.7,5.1z"/>
</g>
</svg>
