<?xml version="1.0" encoding="utf-8"?>
<!-- Generator: Adobe Illustrator 26.1.0, SVG Export Plug-In . SVG Version: 6.00 Build 0)  -->
<svg version="1.1" id="Layer_1" xmlns="http://www.w3.org/2000/svg" xmlns:xlink="http://www.w3.org/1999/xlink" x="0px" y="0px"
	 viewBox="0 0 16 16" style="enable-background:new 0 0 16 16;" xml:space="preserve">
<style type="text/css">
	.st0{fill:#6E6F72;}
	.st1{opacity:0.5;fill:#FFFFFF;enable-background:new    ;}
	.st2{fill:#6486C4;}
</style>
<g id="icon">
	<path class="st0" d="M0.7,11.1C0.7,11.1,0.7,11.1,0.7,11.1c-0.1,0-0.1-0.1-0.2-0.3l-0.2-0.3c0-0.1,0-0.1,0-0.1c0,0,0,0,0,0l0,0
		c0.2-0.1,3.5-1.9,7.7-4.2L16,1.9l0,0.4c0,0.3,0,0.4,0,0.5C15.6,3,12.1,5,8.2,7.1C2.1,10.4,0.9,11.1,0.7,11.1z"/>
	<path class="st1" d="M4.2,2.2c0-0.1,0-0.1,0-0.4c0-0.2,0-0.2,0-0.3C4.3,1.2,4.4,1,4.6,0.9C4.8,0.6,5,0.5,5.3,0.4c0.1,0,0.1,0,0.2,0
		c0.1,0,0.3,0,0.4,0c0.6,0.2,1,0.7,1,1.3c0,0.6-0.3,1.1-0.9,1.3C5.9,3.2,5.8,3.2,5.6,3.2l-0.1,0c-0.2,0-0.2,0-0.3,0
		C5.1,3.1,5,3.1,5,3.1C4.6,2.9,4.3,2.6,4.2,2.2z"/>
	<path class="st1" d="M2.5,8.6c0-0.2-0.1-0.4-0.1-0.6C2.3,7.2,2.3,7.2,2.3,7.2c0,0,1.3-0.8,1.4-0.8h0l0,0c0,0,0,0.1,0,0.3
		c0,0.4,0,0.9-0.1,1.3c1.2-0.6,2.5-1.4,4-2.2C7.5,5.6,7.3,5.5,7.2,5.3C6.6,4.9,6.4,4.7,6.4,4.7C6.2,4.4,5.8,4.3,5.3,4.2
		c-0.1,0-0.2,0-0.3,0c-0.1,0-0.1,0-0.2,0c-0.3,0-0.5,0.1-0.7,0.2C4,4.4,3.2,4.9,2.3,5.6C1.7,6,1.2,6.4,1.1,6.4c0,0-0.1,0.1-0.1,0.1
		c0,0.1-0.1,0.2-0.1,0.3C1,7,1.2,8.4,1.4,9.2C1.7,9.1,2.1,8.9,2.5,8.6z"/>
	<path class="st1" d="M10.8,13.6c0-0.1-1.6-3.3-1.7-3.4c0-0.1-0.1-0.1-0.1-0.2C8.8,9.9,8.8,9.9,7.5,9.6l0,0C6.3,9.3,6.3,9.3,6.2,9.3
		c0,0,0-0.1,0-0.3c0,0,0-0.1,0-0.2C5.3,9.4,4.6,9.8,4,10.1c0,0,0,0,0,0c0.2,0.2,0.6,0.3,1.1,0.5c0.3,0.1,0.4,0.1,1.6,0.4l1.2,0.3
		l0.8,1.4c0.2,0.3,0.3,0.6,0.4,0.8c0.2,0.4,0.3,0.6,0.4,0.7c0.1,0.2,0.2,0.3,0.4,0.4c0.1,0,0.1,0,0.2,0l0,0c0.1,0,0.2,0,0.3-0.1
		c0.2-0.1,0.4-0.4,0.3-0.7C10.8,13.7,10.8,13.6,10.8,13.6z"/>
	<path class="st2" d="M4.2,6.7c0,0.3,0,0.7,0,1C3.9,7.9,3.6,8,3.3,8.2c0-0.2,0-0.7,0-1.2C3.1,7.2,2.9,7.3,2.7,7.4
		c0,0.1,0,0.3,0.1,0.6c0,0.1,0,0.3,0.1,0.4C2.6,8.6,2.3,8.7,2.1,8.9C2,8.6,2,8.3,1.9,8.1C1.9,7.7,1.9,7.5,1.8,7.3
		c0-0.2,0-0.3,0.2-0.5c0.1-0.1,0.5-0.3,0.5-0.3c0,0,1-0.6,1.2-0.6l0.3,0L4.1,6C4.3,6.2,4.3,6.4,4.2,6.7z"/>
	<path class="st2" d="M1,9.5C1.2,9.3,1.5,9.2,1.8,9C1.6,8.3,1.4,7.1,1.4,6.9c0,0,0-0.1,0-0.1c0,0,0,0,0,0c0.1-0.1,0.5-0.4,1.1-0.8
		c0.7-0.5,1.6-1.1,1.7-1.1c0.1-0.1,0.3-0.1,0.6-0.1c0,0,0,0,0.1,0c0.1,0,0.2,0,0.3,0C5.8,4.7,6,4.8,6,4.9C6.1,5,6.2,5.1,6.9,5.7
		C7,5.8,7.1,5.9,7.3,6c0.2-0.1,0.3-0.2,0.5-0.2l0.4-0.2C7.8,5.3,7.6,5.1,7.5,5C6.9,4.5,6.8,4.4,6.7,4.4C6.5,4.1,6,3.9,5.4,3.8
		c-0.1,0-0.3,0-0.4,0c-0.1,0-0.2,0-0.2,0C4.4,3.8,4.1,3.9,3.9,4C3.8,4,3,4.5,2.1,5.2c0,0-1.1,0.8-1.2,0.9l0,0
		C0.7,6.2,0.7,6.3,0.6,6.3l0,0C0.6,6.5,0.5,6.7,0.5,6.9l0,0l0,0C0.5,7.1,0.8,8.7,1,9.5z"/>
	<path class="st2" d="M6,0.1C5.9,0,5.7,0,5.5,0C5.4,0,5.3,0,5.3,0c-0.4,0.1-0.7,0.3-1,0.5C4,0.8,3.9,1,3.8,1.4
		c0,0.2-0.1,0.2-0.1,0.5c0,0.2,0,0.3,0.1,0.5c0.1,0.5,0.5,0.9,1,1.2c0.1,0,0.2,0.1,0.3,0.1c0.1,0,0.2,0.1,0.4,0.1h0l0.1,0
		c0.3,0,0.4,0,0.7-0.1c0.7-0.3,1.1-0.9,1.1-1.7C7.4,1,6.8,0.3,6,0.1z M5.9,2.7C5.8,2.8,5.8,2.8,5.6,2.8l-0.1,0c-0.1,0-0.1,0-0.2,0
		c0,0-0.1,0-0.2-0.1C4.9,2.6,4.7,2.3,4.6,2.1c0-0.1,0-0.1,0-0.2c0-0.2,0-0.2,0-0.2c0.1-0.2,0.1-0.3,0.2-0.4C5,1,5.2,0.9,5.4,0.9
		c0,0,0,0,0.1,0c0.1,0,0.2,0,0.3,0C6.2,1,6.5,1.4,6.5,1.8C6.5,2.2,6.3,2.6,5.9,2.7z"/>
	<path class="st2" d="M11.2,13.5L11.2,13.5c-0.1-0.2-1.6-3.4-1.7-3.5C9.4,9.9,9.3,9.8,9.2,9.7C9,9.5,9,9.5,7.6,9.2l0,0
		C7.2,9.1,6.9,9,6.7,9c0,0,0-0.2,0-0.3C6.4,8.8,6.1,9,5.8,9.1c0,0.2,0,0.3,0.1,0.5C6,9.7,6,9.7,7.4,10l0,0c1.1,0.2,1.1,0.3,1.2,0.3
		c0,0,0,0.1,0.1,0.1c0.1,0.2,1.5,3,1.6,3.3c0,0,0,0.1,0,0.1c0,0.1,0,0.2-0.1,0.2c-0.1,0-0.1,0-0.1,0c0,0,0,0-0.1,0
		c0,0-0.1,0-0.2-0.2c0,0-0.2-0.3-0.3-0.6l-0.5-0.9l-0.9-1.5l-1.4-0.3c-1.2-0.3-1.3-0.3-1.6-0.4C4.8,10.1,4.6,10,4.4,9.9
		c-0.3,0.2-0.6,0.3-0.9,0.5c0.1,0.1,0.2,0.1,0.2,0.1C4,10.7,4.4,10.9,5,11c0.3,0.1,0.4,0.1,1.6,0.4l1,0.2l0.7,1.2l0.4,0.8
		C9,14,9.1,14.3,9.1,14.3c0.2,0.3,0.4,0.5,0.7,0.6C9.9,15,10,15,10.1,15h0c0.2,0,0.3,0,0.5-0.1c0.4-0.2,0.7-0.7,0.6-1.1
		C11.2,13.6,11.2,13.5,11.2,13.5z"/>
	<path class="st1" d="M4.8,11.6c-0.5-0.2-0.9-0.3-1.2-0.5c0,0.2-0.1,0.4-0.1,0.5c-0.1,0.7-0.2,1-0.2,1c0,0,0,0-1.2,0.8
		c-0.4,0.3-1.1,0.7-1.2,0.8c-0.1,0.1-0.3,0.2-0.3,0.3c-0.1,0.2-0.1,0.3-0.1,0.5c0.1,0.3,0.3,0.5,0.6,0.5c0.1,0,0.2,0,0.3-0.1
		c0.1,0,2.7-1.5,2.8-1.6c0.1,0,0.2-0.2,0.2-0.3c0-0.1,0.1-0.3,0.1-0.3c0-0.1,0-0.1,0-0.2c0,0,0-0.1,0.1-0.1c0-0.1,0.1-0.2,0.1-0.3
		C5,12.4,5.1,12,5.2,11.7C5.1,11.7,5,11.7,4.8,11.6z"/>
	<path class="st2" d="M4.8,11.6C4.8,11.6,4.8,11.6,4.8,11.6c-0.1,0.3-0.2,0.6-0.3,0.9c0,0.1-0.1,0.3-0.1,0.4c0,0,0,0.1,0,0.1
		c0,0.1-0.1,0.2-0.1,0.3c0,0,0,0.1,0,0.1c0,0-0.1,0.1-0.1,0.1C4,13.6,1.5,15,1.4,15c0,0-0.1,0-0.2,0C1.1,15.1,1,15,1,14.9
		c0,0,0-0.1,0-0.1c0,0,0.1-0.1,0.1-0.1c0.1,0,0.7-0.4,1.2-0.8c1.3-0.8,1.3-0.8,1.3-1l0,0c0,0,0-0.1,0.2-1.1C4,11.6,4,11.5,4,11.3
		c-0.3-0.1-0.5-0.2-0.6-0.4c0,0-0.1-0.1-0.2-0.1c0,0.2-0.1,0.5-0.1,0.7C3,12,2.9,12.3,2.9,12.5c-0.1,0.1-0.4,0.3-1,0.6l0,0
		c-0.7,0.4-1.1,0.7-1.2,0.7c-0.2,0.1-0.4,0.3-0.5,0.5c-0.1,0.2-0.2,0.5-0.1,0.8c0.1,0.5,0.5,0.8,1.1,0.8c0.2,0,0.4,0,0.5-0.1
		c0.1-0.1,2.8-1.5,2.9-1.6C4.7,14.2,4.9,14,5,13.8c0.1-0.1,0.1-0.3,0.1-0.5c0,0,0,0,0,0c0-0.1,0.1-0.2,0.1-0.2c0,0,0-0.1,0.1-0.3
		c0.1-0.3,0.2-0.7,0.3-1C5.2,11.7,5.1,11.7,4.8,11.6z"/>
</g>
</svg>
