<?xml version="1.0" encoding="utf-8"?>
<!-- Generator: Adobe Illustrator 26.1.0, SVG Export Plug-In . SVG Version: 6.00 Build 0)  -->
<svg version="1.1" id="Layer_1" xmlns="http://www.w3.org/2000/svg" xmlns:xlink="http://www.w3.org/1999/xlink" x="0px" y="0px"
	 viewBox="0 0 16 16" style="enable-background:new 0 0 16 16;" xml:space="preserve">
<style type="text/css">
	.st0{fill:#6485C3;}
	.st1{fill:#6E6F72;}
	.st2{fill:#6D6E71;}
</style>
<g id="icon">
	<path class="st0" d="M3.1,14.5c-0.2,0-0.2,0-0.3,0c-0.2-0.1-0.4-0.1-0.5-0.4C2.3,14,2.3,14,2.3,13.8c0-0.2,0-0.5,0.1-0.6l0,0
		c0,0,0-0.1,0.2-0.3c0.2-0.3,0.6-0.8,1.1-1.6l1.5-2.2l0.2,0.2c0.3,0.3,0.8,0.7,1,1l0.1,0.1l-0.1,0.1c-0.3,0.5-0.7,1.1-1.1,1.6
		c-0.5,0.7-0.8,1.2-1,1.4c-0.1,0.1-0.1,0.2-0.2,0.2c-0.2,0.3-0.3,0.4-0.5,0.5C3.5,14.5,3.4,14.5,3.1,14.5L3.1,14.5L3.1,14.5z
		 M7.5,12.8c-0.1,0-0.2,0-0.4-0.1l-0.1,0l0-0.1c0-0.1,0-0.3,0.1-0.4l0,0l0,0c0-0.1,0.2-0.3,0.4-0.5L7.9,11c0,0,0,0,0,0
		c-0.1-0.1-0.3-0.3-0.6-0.6L6.8,9.9C6.2,9.3,5.6,8.8,5.5,8.8C5.4,8.6,5.2,8.3,5.2,8.1c0-0.1,0-0.2,0-0.3c0-0.2,0-0.4,0.1-0.6l0,0
		c0.1-0.2,0.4-0.7,0.7-1.2l0.5-0.8L3,5.1l-0.1,0C2.7,5,2.6,4.8,2.5,4.6c-0.1-0.2-0.1-0.8,0-1C2.6,3.5,2.8,3.4,3,3.3
		c0.1,0,0.2,0,4.5,0l2.5,0c2.5,0,3.4,0,3.5,0l0,0l0,0c0.1,0,0.4,0.1,0.5,0.3c0.2,0.3,0.1,1-0.1,1.3c-0.1,0.1-0.2,0.1-0.3,0.2l0,0
		l0,0c-0.1,0-0.8,0-2.1,0l-2,0L8.8,6.5C8.7,6.8,8.5,7.1,8.4,7.3C8.3,7.4,8.3,7.5,8.2,7.6C8.1,7.8,8.1,7.9,8,8c0.1,0.1,0.4,0.4,1,0.9
		c0.5,0.4,1,0.9,1.1,1c0.1,0.1,0.2,0.3,0.2,0.4c0,0.1,0,0.2,0,0.3c0,0.2,0,0.3-0.1,0.5l0,0c0,0,0,0.1-0.3,0.4
		c-0.2,0.2-0.4,0.4-0.5,0.7c-0.2,0.2-0.3,0.4-0.5,0.6l-0.1,0.1L7.5,12.8L7.5,12.8z M9.1,2.7c-0.1,0-0.2,0-0.3,0
		C8.4,2.6,8.2,2.4,8,2.1C7.8,1.9,7.7,1.6,7.7,1.3c0-0.2,0-0.3,0.1-0.5c0.2-0.4,0.5-0.7,1-0.7C8.9,0,9,0,9.1,0c0.1,0,0.2,0,0.3,0
		c0.6,0.1,1.1,0.6,1.1,1.2c0.1,0.7-0.4,1.3-1,1.5C9.4,2.7,9.2,2.7,9.1,2.7z"/>
	<path class="st0" d="M6.1,10.6c-0.3,0.4-0.7,1.1-1.1,1.6c-0.7,1-1,1.5-1.1,1.7c-0.2,0.3-0.3,0.4-0.4,0.5c-0.1,0.1-0.2,0.1-0.4,0.1
		c-0.2,0-0.2,0-0.3,0c-0.2-0.1-0.3-0.1-0.4-0.3c0-0.1,0-0.1,0-0.3c0-0.2,0-0.4,0.1-0.5c0,0,0.4-0.6,1.2-1.8l1.3-1.9
		C5.4,9.9,5.9,10.4,6.1,10.6z M8.7,2.7c0.1,0,0.2,0,0.3,0c0.1,0,0.2,0,0.3,0c0.6-0.2,0.9-0.7,0.9-1.2c0-0.5-0.4-0.9-0.9-1
		c-0.1,0-0.1,0-0.2,0c-0.1,0-0.2,0-0.2,0C8.4,0.5,8.1,0.8,8,1.1C7.9,1.3,7.9,1.4,7.9,1.5c0,0.3,0,0.5,0.2,0.7
		C8.2,2.5,8.4,2.7,8.7,2.7z M6,6.2C5.7,6.8,5.4,7.4,5.4,7.4C5.3,7.6,5.3,7.7,5.3,7.9c0,0.1,0,0.2,0,0.3c0.1,0.2,0.2,0.4,0.3,0.6
		c0,0,0.6,0.6,1.3,1.2l0.5,0.4C7.9,10.9,8,11,8,11l0.1,0.1l-0.6,0.8c-0.2,0.2-0.4,0.4-0.4,0.4c0,0.1-0.1,0.2-0.1,0.3
		c0.1,0,0.2,0,0.3,0h1.2c0.1-0.2,0.3-0.4,0.5-0.6c0.4-0.5,0.8-1,0.8-1.1c0.1-0.1,0.1-0.2,0.1-0.4c0-0.1,0-0.2,0-0.2
		c0-0.1-0.1-0.2-0.2-0.3c0,0-0.5-0.4-1-0.9c-0.9-0.8-1-0.9-1-0.9l0,0c0-0.1,0-0.1,0.2-0.5c0.1-0.2,0.3-0.7,0.6-1.1l0.8-1.4l2,0
		c0.9,0,1.9,0,2,0c0.1,0,0.2-0.1,0.2-0.1c0.2-0.2,0.2-0.8,0.1-1c-0.1-0.1-0.2-0.2-0.4-0.2c-0.1,0-1.4,0-3.4,0c-0.5,0-2.5,0-2.5,0
		c-3.8,0-4.3,0-4.4,0C2.9,3.8,2.8,3.8,2.7,4c-0.1,0.1-0.1,0.6,0,0.8C2.7,4.9,2.8,5,3,5.1l0.1,0l3.6,0L6,6.2z"/>
	<path class="st1" d="M11.3,14.4h-4c-0.9,0-1.7-0.4-2.2-1.1l0.6-0.5c0.4,0.5,0.9,0.8,1.5,0.8h4c0.6,0,1.1-0.3,1.4-0.8l0.7,0.4
		C13,14,12.2,14.4,11.3,14.4z"/>
	<path class="st2" d="M8.5,14.8C8.5,15.4,8,16,7.3,16s-1.2-0.5-1.2-1.2s0.5-1.2,1.2-1.2S8.5,14.1,8.5,14.8z M11.4,13.6
		c-0.7,0-1.2,0.5-1.2,1.2s0.5,1.2,1.2,1.2s1.2-0.5,1.2-1.2S12,13.6,11.4,13.6z"/>
</g>
</svg>
