<?xml version="1.0" encoding="utf-8"?>
<!-- Generator: Adobe Illustrator 26.1.0, SVG Export Plug-In . SVG Version: 6.00 Build 0)  -->
<svg version="1.1" id="Layer_1" xmlns="http://www.w3.org/2000/svg" xmlns:xlink="http://www.w3.org/1999/xlink" x="0px" y="0px"
	 viewBox="0 0 16 16" style="enable-background:new 0 0 16 16;" xml:space="preserve">
<style type="text/css">
	.st0{fill:#6E6F72;}
	.st1{opacity:0.5;fill:#FFFFFF;enable-background:new    ;}
	.st2{fill:#6486C4;}
</style>
<g id="icon">
	<path class="st0" d="M11.9,15.7L11.9,15.7c-0.1,0-0.3-0.1-0.3-0.2c0-0.2,0.6-6.2,0.6-6.8l0-0.1l0.1,0c0,0,0,0,0,0
		c0.1,0,0.2,0,0.4,0c0.1,0,0.2,0,0.2,0l0.1,0l0,0.1c0,0.3-0.1,1.8-0.3,3.4l-0.3,3.4l0,0c0,0-0.1,0.1-0.1,0.1
		C12.1,15.7,12,15.7,11.9,15.7L11.9,15.7z"/>
	<path class="st1" d="M9.8,15.5c-0.1,0-0.2,0-0.3-0.1c-0.1,0-0.2-0.1-0.2-0.2c0,0-0.4-0.6-0.8-1.4c-0.4-0.7-0.8-1.3-0.9-1.4
		c-0.1-0.1-1.6-2.6-1.7-2.7C5.8,9.6,5.8,9.6,5.8,8.7c0-1.4,0.1-2.6,0.1-3.1c0-0.3,0.1-0.5,0.2-0.7C6.4,4.6,6.6,4.5,7,4.4
		c0,0,0.1,0,0.1,0c0.2,0,0.4,0,0.6,0.1c0.4,0.2,0.6,0.5,0.7,0.9c0.1,0.2,0.1,0.2-0.2,2.3l0,0.1C8.1,9.2,8,9.4,8,9.6l0,0.2l0.4,0.9
		l0.4,0.9L9.6,13c0.5,0.9,0.8,1.5,0.9,1.6c0,0,0,0.1,0,0.2c0,0.1,0,0.3-0.1,0.4C10.3,15.4,10.1,15.5,9.8,15.5
		C9.9,15.5,9.9,15.5,9.8,15.5z"/>
	<path class="st2" d="M10.9,14.7c0-0.1,0-0.2-0.1-0.3l0,0c0-0.1-0.6-1.1-0.9-1.6l-0.8-1.5L8.4,9.7l0,0c0-0.2,0.1-0.3,0.3-1.8l0-0.1
		c0.3-2.1,0.3-2.1,0.2-2.4c-0.1-0.5-0.5-1-1-1.2C7.7,4.1,7.4,4,7.1,4C7.1,4,7,4,6.9,4C6.5,4.1,6.1,4.3,5.8,4.6
		C5.7,4.9,5.6,5.1,5.5,5.5C5.4,6,5.4,7.2,5.4,8.7c0,1,0,1.1,0.1,1.3c0.1,0.1,1.6,2.6,1.7,2.8c0,0,0.4,0.6,0.9,1.4
		c0.1,0.1,0.8,1.3,0.9,1.4l0,0c0.1,0.1,0.3,0.2,0.4,0.3c0.1,0.1,0.3,0.1,0.5,0.1h0c0,0,0,0,0.1,0c0.4,0,0.7-0.3,0.9-0.6
		C10.9,15.2,10.9,14.9,10.9,14.7z M10,15c0,0.1-0.1,0.1-0.2,0.1c0,0-0.1,0-0.1,0c0,0-0.1-0.1-0.1-0.1c-0.1-0.1-0.4-0.6-0.8-1.3
		c-0.3-0.5-0.8-1.3-0.9-1.4c-0.1-0.1-1.6-2.5-1.7-2.7c0-0.1,0-0.1,0-0.9c0-1.4,0.1-2.5,0.1-3c0-0.3,0.1-0.4,0.2-0.5
		C6.6,5,6.8,4.9,7,4.9c0,0,0,0,0.1,0c0.1,0,0.3,0,0.4,0.1C7.8,5.1,8,5.3,8,5.6c0,0.2,0,0.2-0.2,2.1l0,0.1C7.6,9.1,7.6,9.3,7.6,9.5
		L7.5,9.8l0.8,1.9l0.8,1.5C9.7,14,10,14.6,10,14.7c0,0,0,0.1,0,0.1C10.1,14.9,10.1,14.9,10,15z"/>
	<path class="st1" d="M6.6,13c-0.2,0.2-0.4,0.5-0.7,1c-0.3,0.4-0.5,0.7-0.7,1C5.1,15.2,5,15.3,5,15.3c-0.1,0.1-0.2,0.2-0.4,0.2
		c0,0-0.1,0-0.1,0l0,0c-0.2,0-0.3-0.1-0.4-0.2c-0.2-0.2-0.2-0.5-0.1-0.8c0-0.1,0.3-0.6,0.8-1.3c0,0,0.6-1.1,0.7-1.1
		c0,0,0.1-0.3,0.3-0.8C6,12,6.5,12.7,6.6,13z"/>
	<path class="st1" d="M13,7c-0.1-0.3-0.3-0.4-0.6-0.4c-0.1,0-1.7-0.3-1.8-0.3c0,0-0.5-0.3-0.5-0.3C9.9,5.7,9.7,5.6,9.5,5.5
		c0,0.2,0,0.6-0.1,1.5c0.2,0.1,0.5,0.2,0.6,0.3c0.2,0.1,0.3,0.1,0.4,0.2c0.1,0,0.6,0.1,1,0.1c0.6,0.1,0.8,0.1,0.9,0.1c0,0,0,0,0,0
		c0.3,0,0.4-0.1,0.5-0.3C13,7.3,13,7.1,13,7z"/>
	<path class="st2" d="M6.9,13.4c-0.1,0.2-0.3,0.5-0.6,0.9c-0.3,0.4-1,1.3-1,1.3c-0.1,0.2-0.4,0.3-0.6,0.4c-0.1,0-0.2,0-0.2,0
		c-0.3,0-0.5-0.1-0.7-0.3c-0.3-0.3-0.4-0.8-0.2-1.3c0.1-0.1,0.8-1.3,0.8-1.3c0.1-0.2,0.5-0.8,0.6-1c0-0.1,0.1-0.3,0.2-0.8
		c0-0.2,0.1-0.3,0.1-0.5c0.2,0.3,0.4,0.7,0.7,1.1c-0.1,0.2-0.1,0.4-0.2,0.5c0,0.1-0.7,1.2-0.7,1.2c-0.5,0.7-0.7,1.2-0.8,1.3
		c-0.1,0.1-0.1,0.3,0,0.3c0.1,0,0.1,0.1,0.1,0.1c0,0,0,0,0,0c0,0,0.1,0,0.1-0.1c0,0,0.7-0.9,1-1.3c0.4-0.6,0.7-0.9,0.8-1.2
		c0.2,0.3,0.3,0.5,0.3,0.5v0C6.8,13.1,6.8,13.2,6.9,13.4z"/>
	<path class="st2" d="M13.4,6.8c-0.1-0.3-0.3-0.7-0.9-0.7c-0.1,0-1.4-0.2-1.7-0.3c-0.1-0.1-0.2-0.2-0.4-0.3C10,5.3,9.6,5,9.3,4.9
		c0,0.1,0.1,0.2,0.1,0.3C9.5,5.4,9.5,5.5,9.5,6c0.1,0.1,0.2,0.1,0.3,0.2c0.5,0.3,0.5,0.4,0.6,0.4l0,0c0.2,0.1,1.9,0.4,2,0.4
		c0.2,0,0.2,0.1,0.2,0.1c0,0.1,0,0.1,0,0.1c0,0-0.1,0.1-0.2,0.1c-0.1,0-0.5-0.1-0.9-0.1c-0.3,0-1-0.1-1.1-0.1c-0.1,0-0.1,0-0.2-0.1
		c0,0-0.1-0.1-0.7-0.4c0,0.2-0.1,0.5-0.1,0.9c0.2,0.1,0.3,0.2,0.4,0.2c0.2,0.1,0.4,0.2,0.7,0.2c0,0,0.4,0,1,0.1
		c0.7,0.1,0.9,0.1,1,0.1c0.1,0,0.1,0,0.1,0c0.4-0.1,0.7-0.2,0.8-0.5C13.4,7.4,13.4,7.1,13.4,6.8z"/>
	<path class="st1" d="M7.7,3.2c-0.3,0-0.6-0.1-0.8-0.3C6.6,2.8,6.4,2.5,6.3,2.2c0-0.1,0-0.1,0-0.4c0-0.2,0-0.2,0-0.3
		c0.1-0.5,0.6-0.9,1.1-1c0.1,0,0.1,0,0.2,0c0.1,0,0.3,0,0.3,0c0.4,0.1,0.7,0.4,0.9,0.7C9,1.4,9,1.6,9,1.8C9,2,9,2.2,8.9,2.4
		C8.8,2.7,8.5,3,8.1,3.2C8,3.2,7.8,3.2,7.7,3.2L7.7,3.2z"/>
	<path class="st2" d="M9.3,1C9,0.5,8.6,0.2,8.1,0.1C8,0,7.8,0,7.6,0C7.6,0,7.4,0,7.3,0C6.6,0.2,6.1,0.7,5.9,1.4c0,0.2,0,0.2,0,0.5
		c0,0.2,0,0.3,0,0.5C6,2.7,6.2,3,6.6,3.3c0.3,0.2,0.7,0.4,1.1,0.4c0.2,0,0.4,0,0.6-0.1c0.5-0.2,0.9-0.6,1.1-1
		c0.1-0.2,0.1-0.4,0.1-0.7C9.5,1.5,9.4,1.3,9.3,1z M8.5,2.2C8.4,2.5,8.2,2.7,8,2.7c-0.1,0-0.2,0-0.3,0c-0.2,0-0.4-0.1-0.6-0.2
		C6.9,2.5,6.8,2.3,6.7,2.1c0-0.1,0-0.1,0-0.2c0-0.2,0-0.2,0-0.2C6.8,1.2,7.1,1,7.5,0.9c0,0,0.1,0,0.1,0c0.1,0,0.2,0,0.2,0
		C8.2,1,8.4,1.1,8.5,1.4c0.1,0.2,0.1,0.2,0.1,0.4C8.6,2,8.6,2.1,8.5,2.2z"/>
	<path class="st1" d="M4,9.5c-0.1,0-0.7,0-0.8-0.1C3.1,9.4,3.1,9.3,3,9.2c0-0.1-0.2-3.4-0.2-3.6c0-0.1,0.1-0.2,0.2-0.2
		c0,0,0.1,0,0.1,0c0.1,0,0.2-0.1,0.7-0.3c0.3-0.1,0.5-0.2,0.6-0.2c0,0,0.1,0,0.2,0.1C4.6,5,4.6,5.1,4.6,5.2c0,0.1-0.2,3.9-0.2,4
		C4.3,9.4,4.2,9.5,4,9.5z"/>
	<path class="st0" d="M4,9.9c-0.1,0-0.8,0-0.9-0.1l0,0C2.9,9.8,2.7,9.5,2.6,9.3c0-0.2-0.3-3.6-0.3-3.7l0-0.1c0-0.2,0.2-0.4,0.4-0.5
		l0,0C2.9,5,2.9,5,3,5c0.1,0,0.4-0.2,0.6-0.2c0.2-0.1,0.5-0.2,0.6-0.3l0.1,0l0.1,0c0.1,0,0.3,0.1,0.4,0.2C4.9,4.8,5,5,5,5.2
		c0,0.1-0.2,3.9-0.2,4.1C4.7,9.6,4.4,9.9,4,9.9z M3.4,9.1c0.1,0,0.4,0,0.5,0c0-0.4,0.2-3,0.2-3.8C4.1,5.4,4,5.4,3.9,5.4
		C3.5,5.6,3.3,5.7,3.2,5.7C3.2,6.3,3.4,8.6,3.4,9.1z"/>
</g>
</svg>
