<?xml version="1.0" encoding="utf-8"?>
<!-- Generator: Adobe Illustrator 26.1.0, SVG Export Plug-In . SVG Version: 6.00 Build 0)  -->
<svg version="1.1" id="Layer_1" xmlns="http://www.w3.org/2000/svg" xmlns:xlink="http://www.w3.org/1999/xlink" x="0px" y="0px"
	 viewBox="0 0 16 16" style="enable-background:new 0 0 16 16;" xml:space="preserve">
<style type="text/css">
	.st0{fill:#6E6F72;}
	.st1{fill:#6485C3;}
</style>
<g id="icon">
	<path class="st0" d="M14.7,4.6c-0.2-0.7-0.7-1.1-1.3-1.3c-0.1,0-0.4,0-0.5,0c-0.1,0-0.1,0-0.2,0c-0.6,0.1-1.1,0.4-1.4,1
		c-0.2,0.5-0.3,1,0,1.5c0.2,0.5,0.6,0.9,1.2,1c0.1,0,0.3,0.1,0.5,0.1l0,0c0.1,0,0.2,0,0.3,0c0.7-0.1,1.2-0.6,1.4-1.3
		c0-0.2,0-0.2,0-0.4C14.7,4.8,14.7,4.7,14.7,4.6z"/>
	<path class="st1" d="M9.7,16c-0.1,0-0.3,0-0.4-0.1c-0.2-0.1-0.2-0.1-1.4-1.9l0,0c-0.5-0.8-1-1.5-1-1.7c-0.1-0.1-0.5-0.4-1.2-0.8
		c-0.6-0.4-1.2-0.8-1.4-0.9c-0.6-0.3-0.8-0.5-1-0.8c-0.2-0.2-0.2-0.6-0.1-1c0.2-0.9,1-3,1.6-3.9C5,4.8,5.1,4.7,5.3,4.6
		C5.5,4.3,5.9,4.1,6.2,4c0.1,0,0.1,0,0.2,0C6.5,4,6.6,4,6.7,4c0.4,0.1,0.8,0.4,1,0.8c0,0,0.1,0.1,0.1,0.1l0,0c0,0.1,0.4,0.5,0.6,0.8
		C8.8,6.3,9,6.5,9,6.5c0.1,0,0.2,0.1,0.9,0.4c0.4,0.2,0.9,0.4,1,0.4c0.4,0.1,0.7,0.5,0.6,0.9c-0.1,0.4-0.3,0.6-0.7,0.6
		c-0.1,0-0.1,0-0.2,0c0,0-0.1,0-0.1,0c-0.1,0-0.2,0-1.2-0.4c-0.5-0.2-1-0.4-1.1-0.4C8.1,8.1,7.9,8,7.7,7.8C7.6,7.7,7.4,7.5,7.3,7.3
		c0,0-0.1-0.1-0.1-0.1c0,0,0,0.1-0.1,0.1L7.1,7.6C7,7.8,6.9,8.1,6.7,8.4L6.5,8.9C6.4,9.1,6.3,9.2,6.3,9.2l0,0l1,0.7
		c0.4,0.3,1,0.8,1.1,0.9c0.1,0.1,0.1,0.1,0.1,0.2c0,0,0.1,0.1,0.1,0.1l0,0l0,0c0.1,0.1,1.8,3.2,1.9,3.4c0.1,0.3,0.1,0.7,0,0.9
		c-0.1,0.1-0.2,0.3-0.4,0.4C10,16,9.9,16,9.7,16z"/>
	<path class="st1" d="M7.7,3.4c-0.3,0-0.5-0.1-0.8-0.2C6.4,3,6,2.4,6,1.7C6,1.5,6.1,1.2,6.2,1c0.1-0.2,0.4-0.5,0.6-0.7
		C7,0.2,7.3,0.1,7.5,0c0.1,0,0.2,0,0.2,0C8,0,8.3,0.1,8.5,0.2C8.9,0.4,9.1,0.6,9.3,1c0.1,0.2,0.2,0.4,0.2,0.7c0,0.4-0.1,0.8-0.3,1.1
		C9,2.9,8.8,3.1,8.6,3.2C8.4,3.4,8.1,3.4,7.7,3.4z"/>
	<path class="st1" d="M2,15.7c-0.2,0-0.4-0.1-0.5-0.2c-0.3-0.2-0.4-0.5-0.3-0.9c0-0.2,0.1-0.3,0.2-0.4c0-0.1,0.6-0.6,1.1-1.2l1-1
		l-0.1-1l0.4,0.2c0,0,0.1,0,0.1,0.1c0.1,0,0.6,0.3,1.3,0.9l0.4,0.2l0,0.1c0,0,0,0,0,0.1c0,0.2-0.1,0.3-0.3,0.5
		c-0.1,0.1-0.7,0.7-1.3,1.2c-0.7,0.6-1.3,1.1-1.3,1.2C2.4,15.6,2.2,15.7,2,15.7z"/>
</g>
</svg>
