<?xml version="1.0" encoding="utf-8"?>
<!-- Generator: Adobe Illustrator 26.1.0, SVG Export Plug-In . SVG Version: 6.00 Build 0)  -->
<svg version="1.1" id="Layer_1" xmlns="http://www.w3.org/2000/svg" xmlns:xlink="http://www.w3.org/1999/xlink" x="0px" y="0px"
	 viewBox="0 0 16 16" style="enable-background:new 0 0 16 16;" xml:space="preserve">
<style type="text/css">
	.st0{fill:#6D6E71;}
	.st1{opacity:0.5;fill:#FFFFFF;enable-background:new    ;}
	.st2{fill:#6486C4;}
</style>
<g id="icon">
	<path class="st0" d="M11.2,4.2c0,0,0-0.2,0-0.3H3.8c0,0.1,0,0.2,0,0.3C2.7,4.5,2,5.4,2,6.5v7.1C2,14.9,3.1,16,4.5,16h6
		c1.4,0,2.5-1.1,2.5-2.4V6.5C13,5.4,12.3,4.5,11.2,4.2z M9.6,9.9c0,0.1-0.2,0.3-1.5,1.9c-0.8,1-1.5,1.8-1.5,1.9
		c-0.1,0.1-0.3,0-0.3-0.2c0-0.1,0-0.1,0.4-1.8c0.2-0.9,0.3-1.4,0.3-1.4c0,0-0.5-0.2-1-0.4c-1-0.4-1-0.4-1-0.5c0-0.2-0.1-0.1,1.5-2.1
		c0.8-1,1.5-1.9,1.6-1.9c0.1,0,0.1-0.1,0.2-0.1c0,0,0,0,0.1,0c0,0,0.1,0.1,0.1,0.2c0,0.1-0.1,0.4-0.3,1.6C8,7.9,7.8,8.6,7.8,8.6
		l0,0.1l0.9,0.5c0.5,0.3,0.9,0.5,0.9,0.5C9.6,9.7,9.6,9.8,9.6,9.9z"/>
	<path class="st1" d="M6.4,13.5c0,0.2,0.2,0.2,0.3,0.2c0,0,0.7-0.9,1.5-1.9c1.3-1.6,1.4-1.8,1.5-1.9c0-0.1,0-0.2-0.1-0.3
		c0,0-0.4-0.3-0.9-0.5L7.8,8.7l0-0.1c0,0,0.2-0.7,0.4-1.6c0.3-1.2,0.3-1.5,0.3-1.6c0-0.1-0.1-0.2-0.1-0.2c0,0,0,0-0.1,0
		c0,0-0.1,0-0.2,0.1c0,0-0.7,0.9-1.6,1.9C5,9.3,5.1,9.2,5.1,9.4c0,0.1,0,0.1,1,0.5c0.5,0.2,1,0.4,1,0.4c0,0-0.1,0.5-0.3,1.4
		C6.3,13.5,6.3,13.4,6.4,13.5z"/>
	<path class="st2" d="M11.6,0H3.4C2.9,0,2.5,0.3,2.5,0.8v1.5C2.5,2.7,2.9,3,3.4,3h8.2c0.5,0,0.9-0.3,0.9-0.8V0.8
		C12.5,0.3,12.1,0,11.6,0z"/>
</g>
</svg>
