<?xml version="1.0" encoding="UTF-8"?>
<!DOCTYPE svg PUBLIC "-//W3C//DTD SVG 1.1//EN" "http://www.w3.org/Graphics/SVG/1.1/DTD/svg11.dtd">
<svg version="1.1" id="Layer_1" xmlns="http://www.w3.org/2000/svg" xmlns:xlink="http://www.w3.org/1999/xlink" x="0px" y="0px" width="16px" height="16px" viewBox="0 0 16 16" enable-background="new 0 0 16 16" xml:space="preserve">
  <g id="icon">
    <path d="M15.431,2.112c0.01,-0.039,0.017,-0.078,0.017,-0.118c0,-0.825,-2.227,-1.494,-4.974,-1.494S5.5,1.169,5.5,1.994c0,0.04,0.007,0.079,0.017,0.118H5.5v1.012c2.001,0.458,3.5,2.258,3.5,4.404V8h0.258c0.41,0,0.742,0.332,0.742,0.742v4.745c0.164,0.009,0.331,0.014,0.5,0.014c2.761,0,5,-1.228,5,-2.466V2.112H15.431z" fill="#FFFFFF"/>
    <path d="M15.94,2.112c0.005,-0.039,0.008,-0.078,0.008,-0.118C15.948,0.624,13.11,0,10.474,0S5,0.624,5,1.994c0,0.04,0.003,0.079,0.008,0.118H5v0.926c0.347,0.039,0.681,0.117,1,0.23v-0.06c1.06,0.53,2.806,0.78,4.474,0.78c1.695,0,3.473,-0.259,4.526,-0.807v7.853c0,0.783,-1.795,1.966,-4.5,1.966c-0.17,0,-0.337,-0.005,-0.5,-0.014v1c0.165,0.008,0.332,0.013,0.5,0.013c2.981,0,5.5,-1.358,5.5,-2.966V2.112H15.94zM10.474,2.989c-2.878,0,-4.37,-0.713,-4.472,-0.994C6.104,1.713,7.596,1,10.474,1s4.37,0.713,4.472,0.994C14.843,2.276,13.352,2.989,10.474,2.989z" fill="#E57428"/>
    <path d="M0.5,9.5h8v6H0.5V9.5zM4.5,12v2" fill="#FFFFFF" stroke="#383838" stroke-width="1" stroke-miterlimit="1"/>
    <path d="M7.5,9.5V7.528c0,-1.66,-1.35,-3.018,-3,-3.018l0,0c-1.65,0,-3,1.358,-3,3.018V9.5" fill="none" stroke="#383838" stroke-width="1" stroke-miterlimit="1"/>
  </g>
</svg>
