<?xml version="1.0" encoding="UTF-8"?>
<!DOCTYPE svg PUBLIC "-//W3C//DTD SVG 1.1//EN" "http://www.w3.org/Graphics/SVG/1.1/DTD/svg11.dtd">
<svg version="1.1" id="Layer_1" xmlns="http://www.w3.org/2000/svg" xmlns:xlink="http://www.w3.org/1999/xlink" x="0px" y="0px" width="16px" height="16px" viewBox="0 0 16 16" enable-background="new 0 0 16 16" xml:space="preserve">
  <g id="icon">
    <path d="M4.5,10.683v3.582c0,0.571,-0.895,1.234,-2,1.234s-2,-0.663,-2,-1.234v-3.582" fill="#FFFFFF" stroke="#ED8730" stroke-width="1" stroke-miterlimit="1"/>
    <path d="M4.5,10.49c0,0.552,-0.895,1.01,-2,1.01s-2,-0.457,-2,-1.01c0,-0.552,0.895,-0.99,2,-0.99S4.5,9.938,4.5,10.49z" fill="#FFFFFF" stroke="#ED8730" stroke-width="1" stroke-miterlimit="1"/>
    <path d="M15.5,10.683v3.582c0,0.571,-0.895,1.234,-2,1.234s-2,-0.663,-2,-1.234v-3.582" fill="#FFFFFF" stroke="#ED8730" stroke-width="1" stroke-miterlimit="1"/>
    <path d="M15.5,10.49c0,0.552,-0.895,1.01,-2,1.01s-2,-0.457,-2,-1.01c0,-0.552,0.895,-0.99,2,-0.99S15.5,9.938,15.5,10.49z" fill="#FFFFFF" stroke="#ED8730" stroke-width="1" stroke-miterlimit="1"/>
    <path d="M11.5,1.911v4.943C11.5,7.616,9.933,8.5,8,8.5s-3.5,-0.884,-3.5,-1.646V1.911" fill="#FFFFFF" stroke="#383838" stroke-width="1" stroke-miterlimit="1"/>
    <path d="M11.5,1.821c0,0.736,-1.567,1.346,-3.5,1.346s-3.5,-0.61,-3.5,-1.346S6.067,0.5,8,0.5S11.5,1.084,11.5,1.821z" fill="#FFFFFF" stroke="#383838" stroke-width="1" stroke-miterlimit="1"/>
    <path d="M3.476,6.481L1.985,7.955L0.495,6.481M2,7.9l0,-3.925c0,-0.262,0.213,-0.475,0.475,-0.475H3.6" fill="none" stroke="#228BCB" stroke-width="1" stroke-miterlimit="1"/>
    <path d="M15.5,6.481l-1.491,1.474l-1.491,-1.474M12.4,3.5h1.125c0.262,0,0.475,0.213,0.475,0.475L14,7.9" fill="none" stroke="#228BCB" stroke-width="1" stroke-miterlimit="1"/>
  </g>
</svg>
