<?xml version="1.0" encoding="UTF-8"?>
<!DOCTYPE svg PUBLIC "-//W3C//DTD SVG 1.1//EN" "http://www.w3.org/Graphics/SVG/1.1/DTD/svg11.dtd">
<svg version="1.1" id="Layer_1" xmlns="http://www.w3.org/2000/svg" xmlns:xlink="http://www.w3.org/1999/xlink" x="0px" y="0px" width="16px" height="16px" viewBox="0 0 16 16" enable-background="new 0 0 16 16" xml:space="preserve">
  <g id="icon">
    <rect x="0.5" y="0.5" width="15" height="15" fill="#FFFFFF"/>
    <path d="M16,16H0V0h16V16zM1,15h14V1H1V15z" fill="#383838"/>
    <path d="M16,5v1h-3V5H16zM13,11h3v-1h-3V11z" fill="#787979" opacity="0.6"/>
    <path d="M14,16H7V0h7V16zM8,15h5V1H8V15z" fill="#FFFFFF" opacity="0.5"/>
    <rect x="8.5" y="0.5" width="4" height="15" fill="#92CBEE"/>
    <path d="M13,16H8V0h5V16zM9,15h3V1H9V15z" fill="#0964B0"/>
    <path d="M4.69,9.709L2.5,7.5l2.19,-2.209M7.5,7.5l-4.912,0" fill="#FFFFFF" stroke="#228BCB" stroke-width="1" stroke-miterlimit="1"/>
  </g>
</svg>
