<?xml version="1.0" encoding="UTF-8"?>
<!DOCTYPE svg PUBLIC "-//W3C//DTD SVG 1.1//EN" "http://www.w3.org/Graphics/SVG/1.1/DTD/svg11.dtd">
<svg version="1.1" id="Layer_1" xmlns="http://www.w3.org/2000/svg" xmlns:xlink="http://www.w3.org/1999/xlink" x="0px" y="0px" width="16px" height="16px" viewBox="0 0 16 16" enable-background="new 0 0 16 16" xml:space="preserve">
  <g id="icon">
    <path d="M2.15,0.574c-0.373,0,-0.676,0.303,-0.676,0.676v13.572c0,0.43,0.338,0.778,0.754,0.778h11.644c0.416,0,0.754,-0.349,0.754,-0.778V1.25c0,-0.373,-0.303,-0.676,-0.676,-0.676H2.15zM8.05,13.486c-2.421,0,-4.384,-1.963,-4.384,-4.384S5.629,4.718,8.05,4.718s4.384,1.963,4.384,4.384S10.471,13.486,8.05,13.486z" fill="#92CBEE"/>
    <path d="M12.16,9.26c-0.084,2.196,-1.891,3.952,-4.11,3.952S4.024,11.457,3.94,9.26c0.153,0.27,0.442,0.452,0.774,0.452c0.383,0,0.709,-0.242,0.834,-0.582c0.125,0.339,0.451,0.582,0.834,0.582s0.709,-0.242,0.834,-0.582c0.125,0.339,0.451,0.582,0.834,0.582s0.709,-0.242,0.834,-0.582c0.125,0.339,0.451,0.582,0.834,0.582c0.383,0,0.709,-0.242,0.834,-0.582c0.125,0.339,0.451,0.582,0.834,0.582C11.718,9.713,12.007,9.53,12.16,9.26z" fill="#FFFFFF"/>
    <path d="M8.077,4.718c-2.406,0,-4.357,1.951,-4.357,4.357c0,2.406,1.951,4.357,4.357,4.357s4.357,-1.951,4.357,-4.357C12.434,6.669,10.483,4.718,8.077,4.718zM9.364,12.997C9.364,12.997,9.363,12.997,9.364,12.997c-0.058,0.019,-0.115,0.038,-0.173,0.054c-0.007,0.002,-0.013,0.004,-0.02,0.005c-0.053,0.015,-0.106,0.029,-0.159,0.042c-0.013,0.003,-0.026,0.006,-0.039,0.009c-0.048,0.011,-0.096,0.022,-0.145,0.031c-0.02,0.004,-0.039,0.007,-0.059,0.01c-0.043,0.008,-0.086,0.015,-0.129,0.021c-0.027,0.004,-0.054,0.007,-0.081,0.01c-0.037,0.005,-0.074,0.01,-0.111,0.013c-0.037,0.004,-0.075,0.006,-0.112,0.008c-0.028,0.002,-0.056,0.005,-0.085,0.006c-0.067,0.003,-0.133,0.005,-0.201,0.005s-0.134,-0.002,-0.201,-0.005c-0.028,-0.001,-0.056,-0.004,-0.085,-0.006c-0.037,-0.003,-0.075,-0.005,-0.112,-0.008c-0.037,-0.004,-0.074,-0.009,-0.111,-0.013c-0.027,-0.003,-0.054,-0.006,-0.081,-0.01c-0.043,-0.006,-0.086,-0.014,-0.129,-0.021c-0.02,-0.003,-0.039,-0.006,-0.059,-0.01c-0.049,-0.009,-0.097,-0.02,-0.145,-0.031c-0.013,-0.003,-0.026,-0.006,-0.039,-0.009c-0.053,-0.013,-0.106,-0.027,-0.159,-0.042c-0.007,-0.002,-0.013,-0.004,-0.02,-0.005c-0.058,-0.017,-0.116,-0.035,-0.172,-0.054c0,0,-0.001,0,-0.001,0c-1.579,-0.532,-2.73,-1.995,-2.796,-3.736c0.151,0.267,0.435,0.448,0.763,0.452c0.26,-0.033,0.499,-0.143,0.683,-0.308c0.069,-0.08,0.125,-0.173,0.162,-0.274c0.125,0.339,0.451,0.582,0.834,0.582c0.383,0,0.709,-0.242,0.834,-0.582c0.125,0.339,0.451,0.582,0.834,0.582s0.709,-0.242,0.834,-0.582c0.125,0.339,0.451,0.582,0.834,0.582c0.383,0,0.709,-0.242,0.834,-0.582c0.037,0.101,0.093,0.194,0.162,0.274c0.184,0.165,0.423,0.274,0.683,0.308c0.328,-0.004,0.612,-0.185,0.763,-0.452C12.094,11.002,10.943,12.465,9.364,12.997z" fill="#78797A"/>
    <circle cx="8.05" cy="9.102" r="4.384" fill="none" stroke="#383838" stroke-width="1" stroke-miterlimit="1"/>
    <path d="M13.8,0.5H2.2c-0.387,0,-0.7,0.313,-0.7,0.7v14.3h13V1.2C14.5,0.813,14.187,0.5,13.8,0.5z" fill="none" stroke="#0964B0" stroke-width="1" stroke-linecap="round" stroke-miterlimit="1"/>
    <line x1="1.5" y1="2.5" x2="14.5" y2="2.5" fill="none" stroke="#0964B0" stroke-width="1" stroke-linecap="round" stroke-miterlimit="1"/>
  </g>
</svg>
