<?xml version="1.0" encoding="UTF-8"?>
<!DOCTYPE svg PUBLIC "-//W3C//DTD SVG 1.1//EN" "http://www.w3.org/Graphics/SVG/1.1/DTD/svg11.dtd">
<svg version="1.1" id="Layer_1" xmlns="http://www.w3.org/2000/svg" xmlns:xlink="http://www.w3.org/1999/xlink" x="0px" y="0px" width="16px" height="16px" viewBox="0 0 16 16" enable-background="new 0 0 16 16" xml:space="preserve">
  <g id="icon">
    <path d="M12,1.5h3.5v14h-3.5V1.5z" fill="#FFFFFF"/>
    <path d="M15,6.5h-3M15,10.5h-3" fill="none" stroke="#787979" stroke-width="1" stroke-miterlimit="1" opacity="0.6"/>
    <path d="M12,1h4v15h-4v-1h3V2h-3V1z" fill="#383838"/>
    <path d="M0.5,15.5V1.5h10v14H0.5z" fill="#92CBEE" stroke="#0964B0" stroke-width="1" stroke-linecap="round" stroke-miterlimit="1"/>
    <path d="M7.5,2v13M3.5,2v13" fill="#FFFFFF" stroke="#228BCB" stroke-width="1" stroke-miterlimit="1" opacity="0.3"/>
    <path d="M5.246,4.547l1.55,1.561L5.483,7.4H9.6v2.2H5.379l1.317,1.295l-1.55,1.561L1.205,8.552L5.246,4.547z" fill="#FFFFFF" opacity="0.5"/>
    <path d="M8.9,8.5H2.8M5.591,5.742L2.762,8.544l2.729,2.702" fill="none" stroke="#383838" stroke-width="1" stroke-miterlimit="1"/>
  </g>
</svg>
