<?xml version="1.0" encoding="UTF-8"?>
<!DOCTYPE svg PUBLIC "-//W3C//DTD SVG 1.1//EN" "http://www.w3.org/Graphics/SVG/1.1/DTD/svg11.dtd">
<svg version="1.1" id="Layer_1" xmlns="http://www.w3.org/2000/svg" xmlns:xlink="http://www.w3.org/1999/xlink" x="0px" y="0px" width="16px" height="16px" viewBox="0 0 16 16" enable-background="new 0 0 16 16" xml:space="preserve">
  <g id="icon">
    <path d="M14.5,15.5H3.5V0.5h11V15.5z" fill="#FFFFFF" stroke="#383838" stroke-width="1" stroke-miterlimit="1"/>
    <rect x="1.5" y="0.5" width="2" height="15" fill="#C8C6C4" stroke="#383838" stroke-width="1" stroke-linecap="round" stroke-miterlimit="1"/>
    <path d="M12.519,5.493H5.56M7.499,5.506c-0.004,1.111,-0.062,1.81,-0.174,2.596c-0.111,0.785,-0.246,1.425,-0.404,1.92c-0.158,0.494,-0.326,0.855,-0.505,1.083c-0.178,0.228,-0.446,0.37,-0.858,0.37M12.205,11.478c0,0,-0.174,0,-0.29,0c-0.192,0,-0.36,-0.046,-0.509,-0.105c-0.149,-0.059,-0.275,-0.173,-0.378,-0.341c-0.103,-0.168,-0.18,-0.404,-0.234,-0.706s-0.08,-0.727,-0.08,-1.217c0,-0.188,0.003,-0.422,0.01,-0.702c0.007,-0.28,0.014,-0.588,0.023,-0.925c0.009,-0.337,0.018,-0.695,0.027,-1.073c0.009,-0.378,0.013,-0.513,0.013,-0.903" fill="none" stroke="#17AB4F" stroke-width="1" stroke-miterlimit="1"/>
  </g>
</svg>
