<?xml version="1.0" encoding="UTF-8"?>
<!DOCTYPE svg PUBLIC "-//W3C//DTD SVG 1.1//EN" "http://www.w3.org/Graphics/SVG/1.1/DTD/svg11.dtd">
<svg version="1.1" id="Layer_1" xmlns="http://www.w3.org/2000/svg" xmlns:xlink="http://www.w3.org/1999/xlink" x="0px" y="0px" width="32px" height="32px" viewBox="0 0 32 32" enable-background="new 0 0 32 32" xml:space="preserve">
  <g id="icon">
    <path d="M9.5,5.5H5.5V1.5h4V5.5zM17.5,1.5h-4v4h4V1.5zM25.5,1.5h-4v4h4V1.5zM9.5,9.5H5.5v4h4V9.5zM17.5,9.5h-4v4h4V9.5zM25.5,9.5h-4v4h4V9.5zM9.5,17.5H5.5v4h4V17.5zM17.5,17.5h-4v4h4V17.5zM17.5,25.5h-4v4h4V25.5zM25.5,17.5h-4v4h4V17.5z" fill="#92CBEE" stroke="#0964B0" stroke-width="1" stroke-linecap="round" stroke-miterlimit="5"/>
  </g>
</svg>
