<?xml version="1.0" encoding="UTF-8"?>
<!DOCTYPE svg PUBLIC "-//W3C//DTD SVG 1.1//EN" "http://www.w3.org/Graphics/SVG/1.1/DTD/svg11.dtd">
<svg version="1.1" id="Layer_1" xmlns="http://www.w3.org/2000/svg" xmlns:xlink="http://www.w3.org/1999/xlink" x="0px" y="0px" width="32px" height="32px" viewBox="0 0 32 32" enable-background="new 0 0 32 32" xml:space="preserve">
  <g id="icon">
    <path d="M6.964,19.801c1.562,4.563,5.876,7.843,10.956,7.843c0.365,0,0.726,-0.018,1.083,-0.051M25.907,24.439c2.214,-2.116,3.593,-5.101,3.593,-8.41c0,-3.321,-1.39,-6.317,-3.618,-8.434M18.989,4.463c-0.352,-0.032,-0.709,-0.05,-1.07,-0.05c-5.059,0,-9.359,3.254,-10.936,7.788" fill="none" stroke="#383838" stroke-width="1.1" stroke-miterlimit="5"/>
    <path d="M6.983,12.202c1.825,0.306,3.216,1.89,3.216,3.798c0,1.915,-1.401,3.503,-3.235,3.801M6.983,12.202c-0.21,-0.035,-0.425,-0.054,-0.644,-0.054c-2.132,0,-3.86,1.725,-3.86,3.852c0,2.128,1.728,3.852,3.86,3.852c0.213,0,0.421,-0.018,0.625,-0.051M25.882,7.596c0.454,-0.632,0.723,-1.406,0.723,-2.243c0,-2.128,-1.728,-3.852,-3.86,-3.852c-1.825,0,-3.353,1.265,-3.756,2.963M18.989,4.463c-0.068,0.286,-0.104,0.583,-0.104,0.889c0,2.128,1.728,3.852,3.86,3.852c1.293,0,2.437,-0.635,3.137,-1.609M19.002,27.594c0.423,1.67,1.938,2.906,3.743,2.906c2.132,0,3.86,-1.725,3.86,-3.852c0,-0.822,-0.259,-1.583,-0.698,-2.208M25.907,24.439c-0.698,-0.994,-1.854,-1.644,-3.162,-1.644c-2.132,0,-3.86,1.725,-3.86,3.852c0,0.326,0.041,0.643,0.118,0.946" fill="#FFFFFF" stroke="#383838" stroke-width="1" stroke-miterlimit="5"/>
  </g>
</svg>
