<?xml version="1.0" encoding="UTF-8"?>
<!DOCTYPE svg PUBLIC "-//W3C//DTD SVG 1.1//EN" "http://www.w3.org/Graphics/SVG/1.1/DTD/svg11.dtd">
<svg version="1.1" id="Layer_1" xmlns="http://www.w3.org/2000/svg" xmlns:xlink="http://www.w3.org/1999/xlink" x="0px" y="0px" width="32px" height="32px" viewBox="0 0 32 32" enable-background="new 0 0 32 32" xml:space="preserve">
  <g id="icon">
    <rect x="1.5" y="7.5" width="29" height="22" fill="#FFFFFF" stroke="#383838" stroke-width="1" stroke-miterlimit="5"/>
    <rect x="1.5" y="2.5" width="29" height="5" fill="#92CBEE" stroke="#0964B0" stroke-width="1" stroke-linecap="round" stroke-miterlimit="5"/>
    <path d="M17.813,24.543c-0.586,0.173,-1.196,0.261,-1.813,0.261s-1.226,-0.088,-1.813,-0.261l-0.984,1.796c-0.081,0.149,-0.27,0.201,-0.417,0.117l-2.024,-1.158c-0.143,-0.082,-0.194,-0.262,-0.115,-0.406l0.992,-1.81c-0.903,-0.846,-1.528,-1.919,-1.813,-3.111H7.803c-0.167,0,-0.303,-0.135,-0.303,-0.301v-2.315c0,-0.167,0.136,-0.301,0.303,-0.301h2.023c0.285,-1.192,0.91,-2.264,1.813,-3.111l-0.987,-1.75c-0.081,-0.144,-0.031,-0.327,0.113,-0.409l2.024,-1.158c0.146,-0.084,0.333,-0.032,0.415,0.114l0.983,1.743c0.586,-0.173,1.196,-0.261,1.813,-0.261s1.226,0.088,1.813,0.261l1.039,-1.752c0.084,-0.142,0.268,-0.19,0.412,-0.108l2.024,1.158c0.146,0.084,0.196,0.27,0.11,0.415l-1.036,1.748c0.903,0.846,1.528,1.919,1.813,3.111h2.023c0.167,0,0.303,0.135,0.303,0.301v2.315c0,0.167,-0.136,0.301,-0.303,0.301h-2.023c-0.285,1.192,-0.91,2.264,-1.813,3.111l1.042,1.807c0.083,0.144,0.033,0.328,-0.112,0.411l-2.024,1.158c-0.145,0.083,-0.33,0.033,-0.414,-0.111L17.813,24.543zM16,15.304c-1.778,0,-3.224,1.44,-3.224,3.209s1.446,3.209,3.224,3.209s3.224,-1.44,3.224,-3.209S17.778,15.304,16,15.304z" fill="#C8C6C4" stroke="#383838" stroke-width="1" stroke-linecap="round" stroke-miterlimit="5"/>
  </g>
</svg>
