<?xml version="1.0" encoding="UTF-8"?>
<!DOCTYPE svg PUBLIC "-//W3C//DTD SVG 1.1//EN" "http://www.w3.org/Graphics/SVG/1.1/DTD/svg11.dtd">
<svg version="1.1" id="Layer_1" xmlns="http://www.w3.org/2000/svg" xmlns:xlink="http://www.w3.org/1999/xlink" x="0px" y="0px" width="16px" height="16px" viewBox="0 0 16 16" enable-background="new 0 0 16 16" xml:space="preserve">
  <g id="icon">
    <path d="M3.5,0.5v6.344c1.308,0.458,2.492,1.196,3.476,2.183c0.979,0.982,1.712,2.166,2.17,3.473H15.5V0.5H3.5z" fill="#FFFFFF"/>
    <path d="M4.5,16l0,-0.223c0,-1.3,-0.4,-2.384,-1.156,-3.134C2.589,11.895,1.499,11.5,0.191,11.5H0v-1.2h0.29c1.607,0,2.967,0.522,3.935,1.51C5.19,12.796,5.7,14.18,5.7,15.812l0,0.188L4.5,16zM7.5,16v-0.227C7.5,11.627,4.357,8.5,0.188,8.5H0V7.3h0.246c2.319,0,4.458,0.864,6.021,2.433C7.836,11.307,8.7,13.466,8.7,15.813V16H7.5zM1.355,15.959c-0.729,0,-1.323,-0.599,-1.323,-1.336c0,-0.738,0.593,-1.338,1.323,-1.338c0.73,0,1.324,0.6,1.324,1.338C2.679,15.359,2.085,15.959,1.355,15.959z" fill="#ED8730"/>
    <path d="M16,0v13H9.308c-0.099,-0.341,-0.218,-0.675,-0.353,-1H15V1H4v6.044c-0.325,-0.135,-0.659,-0.253,-1,-0.353V0H16z" fill="#383838"/>
    <path d="M9.5,4v5h4.5V4H9.5zM13,8h-2.5V5h2.5V8z" fill="#238BCB"/>
    <path d="M14,11H8.467c-0.196,-0.347,-0.415,-0.681,-0.655,-1H14V11zM14,3H5V2h9V3zM6.94,9c-0.372,-0.369,-0.773,-0.703,-1.198,-1H8.5v1H6.94zM5,4h3.5v1H5V4zM5,6h3.5v1H5V6z" fill="#78797A"/>
  </g>
</svg>
