<?xml version="1.0" encoding="UTF-8"?>
<!DOCTYPE svg PUBLIC "-//W3C//DTD SVG 1.1//EN" "http://www.w3.org/Graphics/SVG/1.1/DTD/svg11.dtd">
<svg version="1.1" id="Layer_1" xmlns="http://www.w3.org/2000/svg" xmlns:xlink="http://www.w3.org/1999/xlink" x="0px" y="0px" width="16px" height="16px" viewBox="0 0 16 16" enable-background="new 0 0 16 16" xml:space="preserve">
  <g id="icon">
    <path d="M10.855,8.378l0.539,1.654h1.75c0.084,0,0.119,0.107,0.051,0.157l-1.417,1.036l0.541,1.663c0.026,0.08,-0.066,0.147,-0.134,0.097l-1.414,-1.029l-1.414,1.029c-0.068,0.05,-0.16,-0.017,-0.134,-0.097l0.541,-1.663L8.349,10.19c-0.068,-0.05,-0.033,-0.157,0.051,-0.157h1.75l0.539,-1.654C10.716,8.298,10.829,8.298,10.855,8.378z" fill="#ED8730"/>
    <path d="M5.355,8.378l0.539,1.654h1.75c0.084,0,0.119,0.107,0.051,0.157l-1.417,1.036l0.541,1.663c0.026,0.08,-0.066,0.147,-0.134,0.097l-1.414,-1.029l-1.414,1.029c-0.068,0.05,-0.16,-0.017,-0.134,-0.097l0.541,-1.663L2.849,10.19c-0.068,-0.05,-0.033,-0.157,0.051,-0.157h1.75l0.539,-1.654C5.216,8.298,5.329,8.298,5.355,8.378z" fill="#ED8730"/>
    <path d="M13.605,2.378l0.539,1.654h1.75c0.084,0,0.119,0.107,0.051,0.157l-1.417,1.036l0.541,1.663c0.026,0.08,-0.066,0.147,-0.134,0.097l-1.414,-1.029l-1.414,1.029c-0.068,0.05,-0.16,-0.017,-0.134,-0.097l0.541,-1.663L11.099,4.19c-0.068,-0.05,-0.033,-0.157,0.051,-0.157h1.75l0.539,-1.654C13.466,2.298,13.579,2.298,13.605,2.378z" fill="#ED8730"/>
    <path d="M8.105,2.378l0.539,1.654h1.75c0.084,0,0.119,0.107,0.051,0.157L9.029,5.226l0.541,1.663c0.026,0.08,-0.066,0.147,-0.134,0.097L8.023,5.958L6.609,6.986c-0.068,0.05,-0.16,-0.017,-0.134,-0.097l0.541,-1.663L5.599,4.19c-0.068,-0.05,-0.033,-0.157,0.051,-0.157h1.75l0.539,-1.654C7.966,2.298,8.079,2.298,8.105,2.378z" fill="#ED8730"/>
    <path d="M2.605,2.378l0.539,1.654h1.75c0.084,0,0.119,0.107,0.051,0.157L3.529,5.226l0.541,1.663c0.026,0.08,-0.066,0.147,-0.134,0.097L2.523,5.958L1.109,6.986c-0.068,0.05,-0.16,-0.017,-0.134,-0.097l0.541,-1.663L0.099,4.19c-0.068,-0.05,-0.033,-0.157,0.051,-0.157h1.75l0.539,-1.654C2.466,2.298,2.579,2.298,2.605,2.378z" fill="#ED8730"/>
  </g>
</svg>
