<?xml version="1.0" encoding="UTF-8"?>
<!DOCTYPE svg PUBLIC "-//W3C//DTD SVG 1.1//EN" "http://www.w3.org/Graphics/SVG/1.1/DTD/svg11.dtd">
<svg version="1.1" id="Layer_1" xmlns="http://www.w3.org/2000/svg" xmlns:xlink="http://www.w3.org/1999/xlink" x="0px" y="0px" width="24px" height="24px" viewBox="0 0 24 24" enable-background="new 0 0 24 24" xml:space="preserve">
  <g id="icon">
    <path d="M5.5914,23.9683C2.5426,24.1622,0,21.737,0,18.7292l0,-7.4101c0,-1.9133,1.5544,-3.6736,3.4624,-3.8166C5.6595,7.3378,7.5,9.0788,7.5,11.2417l0,6.4267c0,1.1532,-0.8427,2.166,-1.9886,2.2959C4.1543,20.1181,3,19.0559,3,17.7291v-5.725h1.5l0,5.6956c0,0.36,0.2403,0.6914,0.5931,0.7633c0.4819,0.0983,0.9069,-0.2692,0.9069,-0.734l0,-6.4267c0,-1.1532,-0.8427,-2.166,-1.9886,-2.2959C2.6543,8.8527,1.5,9.9149,1.5,11.2417l0,7.4101c0,1.9133,1.5544,3.6736,3.4624,3.8166C7.1595,22.6331,9,20.8921,9,18.7292v-3.725h1.5v3.6307C10.5,21.4187,8.3696,23.7916,5.5914,23.9683z" fill="#6485C3"/>
    <polygon points="23.9332,0 13.5,8.52 3.0668,0 3,0 3,1.572 13.5,10.18 24,1.572 24,0" fill="#FFFFFF" stroke-linejoin="miter" opacity="0.5"/>
    <path d="M13.5,8.52L3.0668,0h20.8663L13.5,8.52zM13.5,10.18L3,1.572v4.6775c0.1206,-0.0186,0.2422,-0.0341,0.3652,-0.0434c0.1278,-0.0096,0.2573,-0.0144,0.3848,-0.0144c2.7846,0,5.05,2.2654,5.05,5.05v2.4625h3V18h12.2V1.572L13.5,10.18z" fill="#7B7B7B"/>
  </g>
</svg>
