<?xml version="1.0" encoding="UTF-8"?>
<!DOCTYPE svg PUBLIC "-//W3C//DTD SVG 1.1//EN" "http://www.w3.org/Graphics/SVG/1.1/DTD/svg11.dtd">
<svg version="1.1" id="Layer_1" xmlns="http://www.w3.org/2000/svg" xmlns:xlink="http://www.w3.org/1999/xlink" x="0px" y="0px" width="24px" height="24px" viewBox="0 0 24 24" enable-background="new 0 0 24 24" xml:space="preserve">
  <g id="icon">
    <path d="M23.9332,0L13.5,8.52L3.0668,0H3v1.572l4.9926,4.093c2.1695,0.4802,3.9592,1.9792,4.8404,3.9682L13.5,10.18L24,1.572V0H23.9332z" fill="#FFFFFF" opacity="0.5"/>
    <path d="M3,6.449V1.572l4.9926,4.093C7.5097,5.5581,7.0087,5.5,6.4942,5.5C5.2204,5.5,4.0267,5.8469,3,6.449zM23.9332,0H3.0668L13.5,8.52L23.9332,0zM13.5,10.18l-0.667,-0.5468c0.3792,0.856,0.5916,1.8018,0.5916,2.7967c0,1.7665,-0.6643,3.3806,-1.7563,4.6058l0.5529,0.9643H24V1.572L13.5,10.18z" fill="#7B7B7B"/>
    <path d="M10.7207,17.7957l2.2754,3.968l-3.0021,0.0346L7.8418,24l-1.3061,-4.6425L5.2295,24l-2.1521,-2.2017l-3.0021,-0.0346l2.2495,-3.9231c1.1538,0.8903,2.5992,1.4212,4.1693,1.4212C8.0904,19.2618,9.5576,18.7129,10.7207,17.7957zM6.4942,6.7C3.3293,6.7,0.7637,9.2654,0.7637,12.4299s2.5656,5.7299,5.7305,5.7299s5.7305,-2.5654,5.7305,-5.7299S9.659,6.7,6.4942,6.7z" fill="#CB525D"/>
  </g>
</svg>
