<?xml version="1.0" encoding="UTF-8"?>
<!DOCTYPE svg PUBLIC "-//W3C//DTD SVG 1.1//EN" "http://www.w3.org/Graphics/SVG/1.1/DTD/svg11.dtd">
<svg version="1.1" id="Layer_1" xmlns="http://www.w3.org/2000/svg" xmlns:xlink="http://www.w3.org/1999/xlink" x="0px" y="0px" width="24px" height="24px" viewBox="0 0 24 24" enable-background="new 0 0 24 24" xml:space="preserve">
  <g id="icon">
    <path d="M13.4669,1.0245c-4.0985,0,-7.5866,2.6085,-8.8924,6.2539c1.049,-0.926,2.3757,-1.1978,3.57,-1.1978c1.5394,0,2.7292,0.4117,3.6373,1.2587c1.0852,1.012,1.6719,2.5586,1.7939,4.7283l0.0012,0.03c0.0637,2.4338,0.0381,3.8575,-0.1223,4.7626c1.2658,0.5696,2.3322,1.493,2.9996,2.5456c3.7508,-1.2486,6.4551,-4.7834,6.4551,-8.9496C22.9094,5.2472,18.6818,1.0245,13.4669,1.0245z" fill="#FFFFFF" opacity="0.5"/>
    <path d="M13.5,0C7.8975,0,3.3059,4.4107,3.0149,9.942c0.5383,-1.9483,1.6342,-2.9667,2.8562,-3.4581c1.1742,-2.2217,3.2886,-3.8719,5.8115,-4.4153c-0.8344,1.1352,-1.5116,2.6296,-1.9714,4.1822c0.3697,0.0881,0.7121,0.2116,1.0301,0.3693c0.6123,-2.0449,1.6141,-3.8865,2.6846,-4.744c0.0104,-0.0001,0.0206,-0.0007,0.031,-0.0008c1.1627,0.9194,2.247,2.9383,2.8609,5.1246h-4.9489c0.1434,0.1044,0.2815,0.2168,0.4129,0.3393c0.2532,0.2362,0.4782,0.5027,0.6776,0.7982h4.1307c0.1593,0.8014,0.2492,1.6037,0.2492,2.3627c0,0.7618,-0.0885,1.5637,-0.2454,2.3623h-2.9992c0.0081,0.4109,0.0129,0.7891,0.0142,1.1375h2.7154c-0.3764,1.35,-0.932,2.628,-1.5738,3.6141c0.3117,0.2272,0.6012,0.4765,0.8641,0.7426c0.8047,-1.2321,1.4388,-2.7863,1.8373,-4.3567h3.929c-1.0146,2.2754,-2.9851,4.0336,-5.3991,4.7604c0.4305,0.5145,0.7636,1.0768,0.9719,1.6555C21.0517,18.9844,24,15.0803,24,10.5C24,4.7103,19.2897,0,13.5,0zM17.4472,7c-0.4649,-1.8219,-1.2468,-3.6334,-2.2457,-4.9563c2.7669,0.5558,5.0574,2.4402,6.1793,4.9563H17.4472zM17.6986,12.8625c0.1476,-0.8192,0.2271,-1.6218,0.2271,-2.3623c0,-0.7381,-0.0804,-1.541,-0.2299,-2.3627h4.0983c0.2144,0.7514,0.3316,1.5433,0.3316,2.3625s-0.1173,1.6111,-0.3316,2.3625H17.6986z" fill="#6485C3"/>
    <path d="M11.9975,15.5554c0,3.5884,3.3193,8.1462,-3.7783,8.1462s-3.7783,-4.5578,-3.7783,-8.1462s-0.4944,-6.4973,3.7783,-6.4973S11.9975,11.967,11.9975,15.5554z" fill="#FFFFFF" opacity="0.5"/>
    <path d="M12.1913,17.4623c0.3852,-0.4864,0.4749,-1.9449,0.386,-5.3386c-0.2297,-4.0841,-2.2328,-5.0431,-4.4328,-5.0431s-4.2308,0.959,-4.4604,5.0431c-0.0891,3.4033,0.0059,4.8604,0.3992,5.3426c-2.2737,0.639,-3.9935,2.5745,-3.9935,4.2921c0,2.5795,3.8329,2.2253,8.0551,2.225c4.2222,0.0003,8.0551,0.3546,8.0551,-2.225C16.2,20.037,14.4724,18.097,12.1913,17.4623zM9.2115,11.7677c1.5977,0,1.8535,-1.542,1.8535,-0.4981c0,2.1335,-1.0502,5.3991,-2.9457,5.3991c-1.5121,0,-2.8795,-1.8648,-2.8795,-5.1501C5.2397,10.1012,8.2426,11.7677,9.2115,11.7677zM8.1779,22.7009c-0.5871,0,-2.8389,-4.219,-2.7834,-5.3256c0.2561,-0.1204,0.5449,-0.266,0.8697,-0.4123c0.5472,0.5205,1.1812,0.8475,1.8818,0.8475c0.6998,0,1.3332,-0.3262,1.8801,-0.8457c0.3544,0.1604,0.6652,0.3197,0.9371,0.4458C10.9746,18.5567,8.7065,22.7009,8.1779,22.7009z" fill="#9070B1"/>
  </g>
</svg>
