<?xml version="1.0" encoding="UTF-8"?>
<!DOCTYPE svg PUBLIC "-//W3C//DTD SVG 1.1//EN" "http://www.w3.org/Graphics/SVG/1.1/DTD/svg11.dtd">
<svg version="1.1" id="Layer_1" xmlns="http://www.w3.org/2000/svg" xmlns:xlink="http://www.w3.org/1999/xlink" x="0px" y="0px" width="24px" height="24px" viewBox="0 0 24 24" enable-background="new 0 0 24 24" xml:space="preserve">
  <g id="icon">
    <path d="M15.7206,0.6112C12.704,0.6112,10.1,2.391,8.8824,4.9663c0.0656,-0.0021,0.1311,-0.0045,0.1973,-0.0045c1.5301,0,2.9254,0.5553,3.929,1.5637c1.0668,1.0717,1.6308,2.5644,1.6308,4.3166c0,1.5714,-0.478,3.2967,-1.2854,4.6661c0.0523,0.0173,0.1043,0.0351,0.1571,0.0513c0.4253,0.0572,0.828,0.1454,1.2068,0.2626c0.3283,0.0438,0.6625,0.0687,1.0026,0.0687c4.1823,0,7.5726,-3.4205,7.5726,-7.6398S19.9029,0.6112,15.7206,0.6112z" fill="#FFFFFF" opacity="0.5"/>
    <path d="M21.7925,2.4819l0.0017,-0.0015l-0.2041,-0.2041l-0.0638,-0.063l-0.0011,0.001C20.0307,0.7857,18.0721,0,16,0c-3.3438,0,-6.2133,2.0629,-7.4071,4.9821c0.1606,-0.0126,0.3227,-0.0203,0.4868,-0.0203c0.4983,0,0.9819,0.0599,1.4427,0.1742C11.557,3.1635,13.6234,1.8142,16,1.8142c1.3459,0,2.6175,0.4203,3.6845,1.2166l-5.4439,5.445c0.243,0.66,0.376,1.3895,0.3949,2.173l6.3323,-6.3337c0.7953,1.0671,1.215,2.3388,1.215,3.6849c0,3.4109,-2.7736,6.1859,-6.1829,6.1859c-0.6563,0,-1.2947,-0.1007,-1.9005,-0.2954c-0.2034,0.5808,-0.4595,1.1382,-0.7614,1.6457c0.6308,0.0707,1.2112,0.2124,1.7425,0.4098c0.3032,0.0345,0.6097,0.054,0.9195,0.054c4.4112,0,8,-3.5888,8,-8C24,5.931,23.2169,3.9755,21.7925,2.4819z" fill="#CB525D"/>
    <path d="M12.3053,16.4837c0,0.6013,-2.2621,4.5849,-3.2424,4.5849s-3.2424,-3.9085,-3.2424,-4.5849c0,-0.0363,0.5638,-0.3634,0.8361,-0.5193c0.7243,0.7779,1.5604,1.1958,2.423,1.1958c0.8578,0,1.6892,-0.4133,2.4107,-1.1828C11.7697,16.1386,12.3053,16.4518,12.3053,16.4837zM9.0797,16.7681c2.1851,0,3.9565,-3.1551,3.9565,-5.926c0,-2.7709,-1.7714,-4.2627,-3.9565,-4.2627s-3.9565,1.4918,-3.9565,4.2627C5.1231,13.613,6.8945,16.7681,9.0797,16.7681z" fill="#FFFFFF" opacity="0.5"/>
    <path d="M18.1114,21.5789C18.1114,24,13.5872,24,9.0629,24s-9.0485,0,-9.0485,-2.4211c0,-2.1162,1.7343,-5.0952,5.5045,-5.0952c0.1773,0,0.176,0.0032,0.3021,0.0098c0.0163,0.5503,1.4267,3.0959,2.498,4.1332l0.235,-1.3895c-0.2625,-0.1342,-0.4713,-0.7007,-0.4713,-1.0999v-0.1503h1.9605v0.1503c0,0.4287,-0.1672,1.0044,-0.4671,1.1274l0.2296,1.3559c1.0748,-1.0559,2.492,-3.6491,2.4994,-4.1329c0.0688,-0.0026,-0.0068,-0.004,0.0756,-0.004C16.4525,16.4837,18.1114,19.4398,18.1114,21.5789zM5.7752,15.1792c-0.786,-1.2462,-1.2553,-2.8676,-1.2553,-4.3371c0,-1.4821,0.4632,-2.7308,1.3396,-3.6112c0.8146,-0.8184,1.9582,-1.2691,3.2202,-1.2691s2.4056,0.4507,3.2202,1.2691c0.8764,0.8804,1.3396,2.1291,1.3396,3.6112c0,1.4696,-0.4693,3.0909,-1.2553,4.3371c-0.8975,1.4229,-2.071,2.2065,-3.3045,2.2065S6.6727,16.602,5.7752,15.1792zM5.7264,10.8421c0,2.3896,1.5474,5.3085,3.3533,5.3085s3.3533,-2.9189,3.3533,-5.3085c0,-0.3292,-0.0298,-0.6407,-0.086,-0.9332c-0.1881,-0.2373,-0.566,-0.4892,-1.3236,-0.4892c-1.4327,0,-1.5835,0.7102,-3.0916,0.7102c-1.0721,0,-1.7626,-0.2335,-1.9642,-0.8017C5.8101,9.7762,5.7264,10.2842,5.7264,10.8421z" fill="#7B7B7B"/>
  </g>
</svg>
