<?xml version="1.0" encoding="UTF-8"?>
<!DOCTYPE svg PUBLIC "-//W3C//DTD SVG 1.1//EN" "http://www.w3.org/Graphics/SVG/1.1/DTD/svg11.dtd">
<svg version="1.1" id="Layer_1" xmlns="http://www.w3.org/2000/svg" xmlns:xlink="http://www.w3.org/1999/xlink" x="0px" y="0px" width="24px" height="24px" viewBox="0 0 24 24" enable-background="new 0 0 24 24" xml:space="preserve">
  <g id="icon">
    <polygon points="4,2 4,3 6,3 23,3 23,16 23,18 24,18 24,2" fill="#7B7B7B" stroke-linejoin="miter"/>
    <polygon points="2,4 2,5 4,5 21,5 21,18 21,20 22,20 22,4" fill="#7B7B7B" stroke-linejoin="miter"/>
    <polygon points="19.9332,6 10,14.1066 0.0668,6 0,6 0,7.3973 10,15.5822 20,7.3973 20,6" fill="#FFFFFF" stroke-linejoin="miter" opacity="0.5"/>
    <path d="M20,7.3973V22H0V7.3973l10,8.1849L20,7.3973zM19.9332,6H0.0668L10,14.1066L19.9332,6z" fill="#7B7B7B"/>
  </g>
</svg>
