<?xml version="1.0" encoding="UTF-8"?>
<!DOCTYPE svg PUBLIC "-//W3C//DTD SVG 1.1//EN" "http://www.w3.org/Graphics/SVG/1.1/DTD/svg11.dtd">
<svg version="1.1" id="Layer_1" xmlns="http://www.w3.org/2000/svg" xmlns:xlink="http://www.w3.org/1999/xlink" x="0px" y="0px" width="24px" height="24px" viewBox="0 0 24 24" enable-background="new 0 0 24 24" xml:space="preserve">
  <g id="icon">
    <path d="M3.9686,17.964c0.6375,-0.5205,1.5277,-1,2.7306,-1.1589c-0.609,-1.1254,-0.9652,-2.4938,-0.9652,-3.7468c0,-1.5019,0.4843,-2.7839,1.4005,-3.7073c0.8556,-0.8624,2.0403,-1.3405,3.3395,-1.3501c-0.268,-1.3255,-1.0439,-2.176,-3.2136,-2.176c-3.7688,0,-3.3327,2.5659,-3.3327,5.731C3.9276,13.8701,2.3632,16.6411,3.9686,17.964z" fill="#FFFFFF" opacity="0.5"/>
    <path d="M3.3631,18.5419c0.5816,-0.6508,1.5385,-1.4002,2.987,-1.6792c-0.7391,-1.1746,-1.6139,-3.0497,-1.5812,-3.7015c0.2259,-0.1062,0.4806,-0.2346,0.7671,-0.3637c0.0651,0.062,0.1318,0.1205,0.1997,0.176c0.0045,-0.3656,0.0377,-0.718,0.0994,-1.0549c-0.7069,-0.7247,-1.2027,-2.0662,-1.2027,-3.9234c0,-1.2503,2.6488,0.2197,3.5034,0.2197c1.4093,0,1.6349,-1.3602,1.6349,-0.4393c0,0.0904,-0.0028,0.1838,-0.0071,0.2784c0.2447,-0.0354,0.4951,-0.054,0.7501,-0.054c0.1859,0,0.3692,0.0107,0.5499,0.0296c-0.3331,-3.1806,-2.0218,-3.949,-3.8689,-3.949c-1.9405,0,-3.7318,0.8459,-3.9344,4.4483c-0.0786,3.0019,0.0052,4.2872,0.3521,4.7125c-2.0055,0.5636,-3.5225,2.2708,-3.5225,3.7859c0,1.3521,1.194,1.7903,2.9443,1.9233C3.1373,18.8091,3.2467,18.6722,3.3631,18.5419z" fill="#6485C3"/>
    <path d="M13.1873,17.7497c0,0.5,-1.8751,3.8127,-2.6876,3.8127S7.812,18.3122,7.812,17.7497c0,-0.0302,0.4674,-0.3022,0.6931,-0.4318c0.6004,0.6469,1.2934,0.9944,2.0085,0.9944c0.711,0,1.4002,-0.3437,1.9983,-0.9836C12.7434,17.4627,13.1873,17.7232,13.1873,17.7497zM10.5136,17.9862c1.8113,0,3.2796,-2.6237,3.2796,-4.9279c0,-2.3042,-1.4683,-3.5447,-3.2796,-3.5447S7.234,10.7541,7.234,13.0583C7.234,15.3625,8.7023,17.9862,10.5136,17.9862z" fill="#FFFFFF" opacity="0.5"/>
    <path d="M18,21.9867C18,24,14.2498,24,10.4996,24s-7.5004,0,-7.5004,-2.0133c0,-1.7598,1.4376,-4.237,4.5627,-4.237c0.147,0,0.1459,0.0026,0.2504,0.0082c0.0135,0.4576,1.1826,2.5745,2.0706,3.437l0.1948,-1.1554c-0.2176,-0.1116,-0.3907,-0.5827,-0.3907,-0.9147v-0.125h1.6251v0.125c0,0.3565,-0.1386,0.8352,-0.3871,0.9375l0.1903,1.1275c0.8909,-0.878,2.0657,-3.0345,2.0718,-3.4368c0.057,-0.0022,-0.0057,-0.0033,0.0627,-0.0033C16.6249,17.7497,18,20.2079,18,21.9867zM7.7745,16.6649c-0.6516,-1.0363,-1.0405,-2.3846,-1.0405,-3.6066c0,-1.2324,0.384,-2.2708,1.1104,-3.003C8.5195,9.3748,9.4675,9,10.5136,9s1.9941,0.3748,2.6693,1.0553c0.7264,0.7321,1.1104,1.7705,1.1104,3.003c0,1.222,-0.389,2.5703,-1.0405,3.6066c-0.7439,1.1832,-1.7167,1.8348,-2.7391,1.8348S8.5184,17.8481,7.7745,16.6649zM7.734,13.0583c0,1.9871,1.2826,4.4144,2.7796,4.4144s2.7796,-2.4273,2.7796,-4.4144c0,-0.2738,-0.0247,-0.5328,-0.0713,-0.776c-0.1559,-0.1974,-0.4692,-0.4068,-1.0971,-0.4068c-1.1876,0,-1.3126,0.5905,-2.5626,0.5905c-0.8886,0,-1.461,-0.1942,-1.6281,-0.6667C7.8034,12.1719,7.734,12.5944,7.734,13.0583z" fill="#6485C3"/>
    <path d="M11.3665,5c0.468,0.7678,0.7683,1.738,0.8904,2.9046l0.0204,0.1944c0.665,0.2378,1.2634,0.6132,1.7574,1.1111c0.9542,0.9617,1.4585,2.2923,1.4585,3.8481c0,1.2027,-0.32,2.5091,-0.873,3.6179c1.1188,0.2151,2.0423,0.6912,2.7597,1.3238H23V5H11.3665z" fill="#FFFFFF" opacity="0.4"/>
    <path d="M11,3H9V0h2V3zM18,0v3h2V0H18z" fill="#7B7B7B"/>
    <path d="M5,3.2805V1h3v1.9267c-0.2576,-0.0306,-0.5261,-0.0461,-0.8055,-0.0461C6.4802,2.8806,5.7158,2.9842,5,3.2805zM21,1v3h-4V1h-5v3h-1.4617c0.5677,0.5024,1.0037,1.1712,1.3024,2H24V1H21z" fill="#9070B1"/>
    <path d="M22,6v11h-6.2639c1.098,0.4343,1.9453,1.1498,2.527,2H24V6H22z" fill="#7B7B7B"/>
    <path d="M15,8h-2.7331l0.0104,0.099c0.5676,0.2029,1.0859,0.507,1.5329,0.901H15v1.6205c0.3247,0.7196,0.4932,1.541,0.4932,2.4378c0,0.6332,-0.0895,1.295,-0.2542,1.9417H16h3h1v-1v-2v-1V9V8H15zM19,14h-3v-2h3V14zM19,11h-3V9h3V11z" fill="#B7B7B7"/>
  </g>
</svg>
