<?xml version="1.0" encoding="UTF-8"?>
<!DOCTYPE svg PUBLIC "-//W3C//DTD SVG 1.1//EN" "http://www.w3.org/Graphics/SVG/1.1/DTD/svg11.dtd">
<svg version="1.1" id="Layer_1" xmlns="http://www.w3.org/2000/svg" xmlns:xlink="http://www.w3.org/1999/xlink" x="0px" y="0px" width="24px" height="24px" viewBox="0 0 24 24" enable-background="new 0 0 24 24" xml:space="preserve">
  <g id="icon">
    <path d="M22.5,13h-2.5v-1h2.5V13zM22,15h-2v-1h2V15zM21.5,17h-1.5v-1h1.5V17zM23,11h-3v-1h3V11zM23.5,9h-3.5V8h3.5V9zM24,7h-4V6h4V7z" fill="#52B250"/>
    <path d="M18.25,5.25H0.75v13.5h17.5V5.25z" fill="#FFFFFF" opacity="0.5"/>
    <polygon points="9.5,13.3446 0.2748,6.1988 1.2252,5.0383 9.5,11.4057 17.7748,5.0383 18.7252,6.1988" fill="#6D6E71" stroke-linejoin="miter"/>
    <path d="M19,20H0V4h19V20zM2,18h15V6H2V18z" fill="#7B7B7B"/>
  </g>
</svg>
