<?xml version="1.0" encoding="UTF-8"?>
<!DOCTYPE svg PUBLIC "-//W3C//DTD SVG 1.1//EN" "http://www.w3.org/Graphics/SVG/1.1/DTD/svg11.dtd">
<svg version="1.1" id="Layer_1" xmlns="http://www.w3.org/2000/svg" xmlns:xlink="http://www.w3.org/1999/xlink" x="0px" y="0px" width="24px" height="24px" viewBox="0 0 24 24" enable-background="new 0 0 24 24" xml:space="preserve">
  <g id="icon">
    <path d="M1.5,12h2.5v1H1.5V12zM2,14h2v1H2V14zM2.5,16h1.5v1H2.5V16zM1,10h3v1H1V10zM0.5,8h3.5v1H0.5V8zM0,6h4v1H0L0,6z" fill="#CB525D"/>
    <polygon points="23.9365,4 14.5,12.1066 5.0635,4 5,4 5,5.3973 14.5,13.5822 24,5.3973 24,4" fill="#FFFFFF" stroke-linejoin="miter" opacity="0.5"/>
    <path d="M24,5.3973V20H5V5.3973l9.5,8.185L24,5.3973zM23.9365,4H5.0635L14.5,12.1066L23.9365,4z" fill="#7B7B7B"/>
  </g>
</svg>
