<?xml version="1.0" encoding="UTF-8"?>
<!DOCTYPE svg PUBLIC "-//W3C//DTD SVG 1.1//EN" "http://www.w3.org/Graphics/SVG/1.1/DTD/svg11.dtd">
<svg version="1.1" id="Layer_1" xmlns="http://www.w3.org/2000/svg" xmlns:xlink="http://www.w3.org/1999/xlink" x="0px" y="0px" width="24px" height="24px" viewBox="0 0 24 24" enable-background="new 0 0 24 24" xml:space="preserve">
  <g id="icon">
    <polygon points="14.0311,3.3234 10.7077,0 9.5622,1.1455 12.8856,4.4689 9.5622,7.7923 10.7077,8.9378 14.0311,5.6144 17.3545,8.9378 18.5,7.7923 15.1766,4.4689 18.5,1.1455 17.3545,0" fill="#CB525D" stroke-linejoin="miter"/>
    <path d="M9.4045,18.4711c1.2478,0,2.2594,1.0126,2.2594,2.2617c0,1.2491,-1.0116,2.2617,-2.2594,2.2617s-2.2594,-1.0126,-2.2594,-2.2617C7.1451,19.4837,8.1567,18.4711,9.4045,18.4711zM15.5451,20.7328c0,1.2491,1.0116,2.2617,2.2594,2.2617s2.2594,-1.0126,2.2594,-2.2617c0,-1.2491,-1.0116,-2.2617,-2.2594,-2.2617S15.5451,19.4837,15.5451,20.7328z" fill="#FFFFFF" opacity="0.5"/>
    <path d="M17.8045,23.9945c-1.7972,0,-3.2594,-1.4632,-3.2594,-3.2617s1.4622,-3.2617,3.2594,-3.2617s3.2594,1.4632,3.2594,3.2617S19.6017,23.9945,17.8045,23.9945zM17.8045,19.4711c-0.6944,0,-1.2594,0.566,-1.2594,1.2617s0.5649,1.2617,1.2594,1.2617s1.2594,-0.566,1.2594,-1.2617S18.4989,19.4711,17.8045,19.4711zM9.4045,23.9945c-1.7972,0,-3.2594,-1.4632,-3.2594,-3.2617s1.4622,-3.2617,3.2594,-3.2617s3.2594,1.4632,3.2594,3.2617S11.2017,23.9945,9.4045,23.9945zM9.4045,19.4711c-0.6944,0,-1.2594,0.566,-1.2594,1.2617s0.5649,1.2617,1.2594,1.2617s1.2594,-0.566,1.2594,-1.2617S10.0989,19.4711,9.4045,19.4711z" fill="#7B7B7B"/>
    <path d="M23.2,7h-3.7953l0.7924,0.7924l-2.8426,2.8424l-3.3234,-3.3233l-3.3234,3.3234L7.8651,7.7923L8.6575,7H6.3l-0.7931,-2.3647C5.2417,3.6694,4.3636,3,3.362,3H0.5375C0.2406,3,0,3.2406,0,3.5375v0.925C0,4.7594,0.2406,5,0.5375,5h2.8244c0.1007,0,0.1898,0.0679,0.2165,0.165L6.8287,17h13.6705L23.9,8C24.1453,7.3212,23.5193,7,23.2,7z" fill="#6485C3"/>
  </g>
</svg>
