<?xml version="1.0" encoding="UTF-8"?>
<!DOCTYPE svg PUBLIC "-//W3C//DTD SVG 1.1//EN" "http://www.w3.org/Graphics/SVG/1.1/DTD/svg11.dtd">
<svg version="1.1" id="Layer_1" xmlns="http://www.w3.org/2000/svg" xmlns:xlink="http://www.w3.org/1999/xlink" x="0px" y="0px" width="24px" height="24px" viewBox="0 0 24 24" enable-background="new 0 0 24 24" xml:space="preserve">
  <g id="icon">
    <path d="M13.8007,19.9429c0.1813,0.315,0.2731,0.6938,0.2731,1.1262c0,0.3994,-0.0718,0.7803,-0.2133,1.1323c-0.1447,0.3597,-0.3576,0.6784,-0.6327,0.9472c-0.2733,0.267,-0.6078,0.4781,-0.9942,0.6277c-0.3782,0.1464,-0.8053,0.2206,-1.2695,0.2206c-0.3115,0,-0.5993,-0.0281,-0.8552,-0.0833c-0.2626,-0.0565,-0.5095,-0.1408,-0.7337,-0.2505c-0.2229,-0.1091,-0.4313,-0.2436,-0.6193,-0.3999c-0.1702,-0.1414,-0.4392,-0.4072,-0.5993,-0.5924l1.1345,-0.9812c0.1057,0.1222,0.3155,0.3302,0.4236,0.42c0.0965,0.0802,0.2038,0.1494,0.3194,0.206c0.1152,0.0563,0.2468,0.1006,0.391,0.1318c0.1525,0.0329,0.3338,0.0496,0.539,0.0496c0.2783,0,0.5232,-0.0402,0.728,-0.1195c0.1989,-0.077,0.3584,-0.1757,0.4875,-0.3018c0.1271,-0.1241,0.2218,-0.2661,0.2892,-0.4339c0.0706,-0.1756,0.105,-0.3629,0.105,-0.5726c0,-0.1641,-0.0252,-0.2947,-0.0729,-0.3775c-0.0628,-0.1091,-0.1432,-0.1986,-0.2453,-0.2732c-0.1291,-0.0943,-0.2831,-0.1746,-0.4577,-0.2386c-0.2314,-0.0848,-0.469,-0.1663,-0.706,-0.2422c-0.2574,-0.0824,-0.5132,-0.1693,-0.7603,-0.2581c-0.303,-0.1088,-0.5788,-0.2497,-0.8194,-0.4186c-0.2719,-0.191,-0.4953,-0.4299,-0.6642,-0.7102c-0.1861,-0.3086,-0.2805,-0.6802,-0.2805,-1.1041c0,-0.322,0.063,-0.6357,0.1871,-0.9324c0.126,-0.301,0.3118,-0.5692,0.5522,-0.7968c0.2353,-0.2227,0.5239,-0.4009,0.8577,-0.5296c0.3284,-0.1267,0.7009,-0.1909,1.1066,-0.1909c0.2564,0,0.4919,0.0226,0.7,0.067c0.2035,0.0436,0.3895,0.1009,0.5534,0.1705c0.169,0.072,0.3192,0.1537,0.4471,0.2434c0.1097,0.077,0.2013,0.1479,0.2805,0.2172c0.0474,0.0417,0.1246,0.1155,0.2286,0.2154c0.0352,0.0338,0.0649,0.0624,0.078,0.0746l-1.015,1.1044c-0.0152,-0.0139,-0.0547,-0.0517,-0.102,-0.0971c-0.0494,-0.0475,-0.1523,-0.1463,-0.179,-0.1698c-0.0245,-0.0215,-0.0724,-0.0604,-0.1521,-0.1163c-0.0289,-0.0202,-0.0829,-0.0529,-0.1732,-0.0913c-0.0756,-0.0321,-0.1701,-0.0605,-0.2803,-0.0841c-0.1049,-0.0224,-0.235,-0.0338,-0.3862,-0.0338c-0.2205,0,-0.4113,0.0305,-0.567,0.0905c-0.1505,0.058,-0.2736,0.1318,-0.3662,0.2194c-0.0888,0.0841,-0.1542,0.1778,-0.1996,0.2865c-0.0478,0.114,-0.0709,0.2295,-0.0709,0.3532c0,0.1449,0.0226,0.2591,0.0653,0.3298c0.0614,0.1019,0.1403,0.1858,0.2415,0.2569c0.131,0.0919,0.2873,0.1709,0.4645,0.2345c0.2308,0.083,0.4698,0.1641,0.7106,0.2412c0.2566,0.0822,0.5138,0.1704,0.7646,0.2624c0.3062,0.1123,0.5842,0.2589,0.8265,0.4359C13.4114,19.4052,13.6334,19.6526,13.8007,19.9429zM20.5507,19.9429c0.1813,0.315,0.2731,0.6938,0.2731,1.1262c0,0.3994,-0.0718,0.7803,-0.2133,1.1323c-0.1447,0.3597,-0.3576,0.6784,-0.6327,0.9472c-0.2733,0.267,-0.6078,0.4781,-0.9942,0.6277c-0.3782,0.1464,-0.8053,0.2206,-1.2695,0.2206c-0.3115,0,-0.5993,-0.0281,-0.8552,-0.0833c-0.2626,-0.0565,-0.5095,-0.1408,-0.7337,-0.2505c-0.2229,-0.1091,-0.4313,-0.2436,-0.6193,-0.3999c-0.1702,-0.1414,-0.4392,-0.4072,-0.5993,-0.5924l1.1345,-0.9812c0.1057,0.1222,0.3155,0.3302,0.4236,0.42c0.0965,0.0802,0.2038,0.1494,0.3194,0.206c0.1152,0.0563,0.2468,0.1006,0.391,0.1318c0.1525,0.0329,0.3338,0.0496,0.539,0.0496c0.2783,0,0.5232,-0.0402,0.728,-0.1195c0.1989,-0.077,0.3584,-0.1757,0.4875,-0.3018c0.1271,-0.1241,0.2218,-0.2661,0.2892,-0.4339c0.0706,-0.1756,0.105,-0.3629,0.105,-0.5726c0,-0.1641,-0.0252,-0.2947,-0.0729,-0.3775c-0.0628,-0.1091,-0.1432,-0.1986,-0.2453,-0.2732c-0.1291,-0.0943,-0.2831,-0.1746,-0.4577,-0.2386c-0.2314,-0.0848,-0.469,-0.1663,-0.706,-0.2422c-0.2574,-0.0824,-0.5132,-0.1693,-0.7603,-0.2581c-0.303,-0.1088,-0.5788,-0.2497,-0.8194,-0.4186c-0.2719,-0.191,-0.4953,-0.4299,-0.6642,-0.7102c-0.1861,-0.3086,-0.2805,-0.6802,-0.2805,-1.1041c0,-0.322,0.063,-0.6357,0.1871,-0.9324c0.126,-0.301,0.3118,-0.5692,0.5522,-0.7968c0.2353,-0.2227,0.5239,-0.4009,0.8577,-0.5296c0.3284,-0.1267,0.7009,-0.1909,1.1066,-0.1909c0.2564,0,0.4919,0.0226,0.7,0.067c0.2035,0.0436,0.3895,0.1009,0.5534,0.1705c0.169,0.072,0.3192,0.1537,0.4471,0.2434c0.1097,0.077,0.2013,0.1479,0.2805,0.2172c0.0474,0.0417,0.1246,0.1155,0.2286,0.2154c0.0352,0.0338,0.0649,0.0624,0.078,0.0746l-1.015,1.1044c-0.0152,-0.0139,-0.0547,-0.0517,-0.102,-0.0971c-0.0494,-0.0475,-0.1523,-0.1463,-0.179,-0.1698c-0.0245,-0.0215,-0.0724,-0.0604,-0.1521,-0.1163c-0.0289,-0.0202,-0.0829,-0.0529,-0.1732,-0.0913c-0.0756,-0.0321,-0.1701,-0.0605,-0.2803,-0.0841c-0.1049,-0.0224,-0.235,-0.0338,-0.3862,-0.0338c-0.2205,0,-0.4113,0.0305,-0.567,0.0905c-0.1505,0.058,-0.2736,0.1318,-0.3662,0.2194c-0.0888,0.0841,-0.1542,0.1778,-0.1996,0.2865c-0.0478,0.114,-0.0709,0.2295,-0.0709,0.3532c0,0.1449,0.0226,0.2591,0.0653,0.3298c0.0614,0.1019,0.1403,0.1858,0.2415,0.2569c0.131,0.0919,0.2873,0.1709,0.4645,0.2345c0.2308,0.083,0.4698,0.1641,0.7106,0.2412c0.2566,0.0822,0.5138,0.1704,0.7646,0.2624c0.3062,0.1123,0.5842,0.2589,0.8265,0.4359C20.1614,19.4052,20.3834,19.6526,20.5507,19.9429zM5.2726,23.906c0.3006,-0.0605,0.5827,-0.1463,0.8384,-0.255c0.2576,-0.1096,0.4991,-0.2431,0.7179,-0.3968c0.2084,-0.1465,0.4066,-0.3111,0.5891,-0.4893l-1.0482,-1.073c-0.1249,0.1221,-0.2606,0.2347,-0.4033,0.3351c-0.1328,0.0933,-0.2816,0.1753,-0.4422,0.2436c-0.1624,0.069,-0.3467,0.1246,-0.5475,0.165c-0.2025,0.0407,-0.4336,0.0614,-0.6869,0.0614c-0.3918,0,-0.7542,-0.0681,-1.077,-0.2024c-0.32,-0.1331,-0.5888,-0.3189,-0.8219,-0.568c-0.234,-0.2503,-0.4207,-0.5629,-0.5549,-0.9295c-0.1386,-0.3786,-0.2089,-0.8191,-0.2089,-1.3094c0,-0.469,0.0702,-0.8977,0.2087,-1.2745c0.1341,-0.365,0.3234,-0.6796,0.5628,-0.9352c0.2384,-0.2547,0.5179,-0.4466,0.8543,-0.587c0.3383,-0.1411,0.7226,-0.2126,1.142,-0.2126c0.1978,0,0.3847,0.0149,0.5552,0.0442c0.1642,0.0283,0.3203,0.0708,0.4642,0.1262c0.1477,0.0568,0.2916,0.1278,0.4273,0.2106c0.1433,0.0875,0.2865,0.1905,0.4254,0.3063l0.9601,-1.1525c-0.195,-0.1625,-0.3981,-0.3085,-0.6042,-0.4343c-0.2128,-0.1298,-0.4381,-0.2407,-0.6693,-0.3298c-0.2356,-0.0908,-0.4876,-0.1597,-0.7489,-0.2047c-0.2544,-0.0438,-0.5269,-0.066,-0.8098,-0.066c-0.6186,0,-1.1971,0.1104,-1.7194,0.3282c-0.5291,0.2207,-0.9906,0.539,-1.3719,0.9461c-0.3774,0.403,-0.6721,0.8885,-0.8758,1.443c-0.1995,0.5429,-0.3007,1.1458,-0.3007,1.7919c0,0.6667,0.1011,1.2807,0.3003,1.825c0.2036,0.5565,0.4957,1.0405,0.8681,1.4386c0.3764,0.4023,0.8276,0.7146,1.3412,0.9283c0.5064,0.2106,1.0626,0.3174,1.6531,0.3174C4.6421,23.9969,4.9727,23.9664,5.2726,23.906z" fill="#6485C3"/>
    <path d="M7.7645,13h14.1152c-0.1403,-0.277,-0.2874,-0.5602,-0.4385,-0.8509l-0.0084,-0.0161c-0.1068,-0.2053,-0.2154,-0.4142,-0.3245,-0.6268c-0.6831,-1.3306,-1.6099,-3.9137,-2.0306,-6.1457L19,4.9481h3.613c0.0584,0,0.1056,-0.0079,0.1486,-0.0248c0.2052,-0.0805,0.3234,-0.2913,0.2876,-0.5117c-0.0061,-0.0363,-0.643,-3.4963,-3.4258,-3.4963H8.3754l-0.1636,0.0092c-2.3766,0.133,-3.9122,1.7001,-3.9122,3.9923c0,1.5571,0.7395,3.5217,2.1385,5.6814C6.9627,11.408,7.4052,12.2106,7.7645,13z" fill="#FFFFFF" opacity="0.5"/>
    <path d="M6.7631,13h2.0242c-0.3889,-0.8859,-0.9047,-1.8492,-1.58,-2.8918C5.92,8.1211,5.2111,6.2757,5.2111,4.912c0,-1.5601,0.8545,-2.6372,2.2906,-2.9785c0.1483,0.1779,0.3211,0.3312,0.4669,0.4608c1.0593,0.9404,1.4125,2.8193,1.427,2.8988l0.0037,0.0195c0.1281,0.6385,0.6871,1.102,1.3292,1.102h7.6981c0.4444,1.9043,1.1973,4.083,1.9281,5.5065c0.1128,0.2196,0.2249,0.4354,0.3352,0.6474c0.0759,0.146,0.1504,0.2895,0.2238,0.4316h2.054c-0.2022,-0.4132,-0.4228,-0.8376,-0.6514,-1.2772c-0.1088,-0.2093,-0.2195,-0.4222,-0.3308,-0.6389c-0.6088,-1.1858,-1.2537,-3.0156,-1.6721,-4.6693h2.2888c0.1765,0,0.3438,-0.0315,0.4972,-0.0935l0.0002,-0.0001c0.6011,-0.2433,0.9481,-0.8629,0.8436,-1.5075c-0.2907,-1.7883,-1.5298,-4.8148,-4.3304,-4.8148H8.9014c-0.1059,0,-0.2264,0,-0.3536,0.0064v-0.0204c-1.469,0,-2.7403,0.4546,-3.6766,1.3146C3.8944,2.1965,3.378,3.4457,3.378,4.912c0,2.1957,1.2457,4.5796,2.2907,6.1928C6.1057,11.7793,6.4665,12.4107,6.7631,13zM19.6128,1.8318c1.4743,0,2.1522,1.8238,2.4012,2.7496H11.117c-0.1496,-0.6204,-0.4997,-1.766,-1.2087,-2.7496H19.6128z" fill="#EEAC55"/>
    <path d="M10,11h9v1h-9V11zM16,9H9v1h7V9z" fill="#7B7B7B"/>
  </g>
</svg>
