<?xml version="1.0" encoding="UTF-8"?>
<!DOCTYPE svg PUBLIC "-//W3C//DTD SVG 1.1//EN" "http://www.w3.org/Graphics/SVG/1.1/DTD/svg11.dtd">
<svg version="1.1" id="Layer_1" xmlns="http://www.w3.org/2000/svg" xmlns:xlink="http://www.w3.org/1999/xlink" x="0px" y="0px" width="32px" height="32px" viewBox="0 0 32 32" enable-background="new 0 0 32 32" xml:space="preserve">
  <g id="icon">
    <path d="M27.5,13v17.4h-7.986v-5.9h-5.994v5.9H5.4V18h6.657l0,0h-0.006v-2h6.994v-3H27.5z" fill="#FFFFFF"/>
    <path d="M27.5,13v17.4h-7.986v-5.9h-5.994v5.9H5.4V18h6.657l0,0h-0.006v-2h6.994v-3H27.5z" fill="#C8C6C4" opacity="0.4"/>
    <path d="M27.5,13v17.5h-8v-6h-6v6H5.5V18M3,30.5h2.6M27.5,30.5h2.5" fill="none" stroke="#383838" stroke-width="1" stroke-miterlimit="1"/>
    <path d="M5.5,17V7M10.5,17V6M21.5,12V1M27.5,12V1M16.5,15V2M5.5,9.5h22M5.5,13.5h12.5" fill="#FFFFFF" stroke="#787979" stroke-width="1" stroke-miterlimit="1"/>
    <path d="M24.5,21.5h-1v-1h1V21.5zM24.5,23.5h-1v1h1V23.5zM24.5,26.5h-1v1h1V26.5zM24.5,17.5h-1v1h1V17.5zM24.5,14.5h-1v1h1V14.5zM21.5,14.5h-1v1h1V14.5zM21.5,17.5h-1v1h1V17.5zM18.5,17.5h-1v1h1V17.5zM15.5,17.5h-1v1h1V17.5zM18.5,20.5h-1v1h1V20.5zM21.5,20.5h-1v1h1V20.5zM15.5,20.5h-1v1h1V20.5zM12.5,20.5h-1v1h1V20.5zM9.5,20.5H8.5v1h1V20.5zM9.5,23.5H8.5v1h1V23.5zM9.5,26.5H8.5v1h1V26.5z" fill="#92CBEE" stroke="#0964B0" stroke-width="1" stroke-miterlimit="1"/>
    <line x1="14" y1="5.5" x2="27.5" y2="5.5" fill="none" stroke="#787979" stroke-width="1" stroke-miterlimit="1"/>
  </g>
</svg>
