<?xml version="1.0" encoding="UTF-8"?>
<!DOCTYPE svg PUBLIC "-//W3C//DTD SVG 1.1//EN" "http://www.w3.org/Graphics/SVG/1.1/DTD/svg11.dtd">
<svg version="1.1" id="Layer_1" xmlns="http://www.w3.org/2000/svg" xmlns:xlink="http://www.w3.org/1999/xlink" x="0px" y="0px" width="32px" height="32px" viewBox="0 0 32 32" enable-background="new 0 0 32 32" xml:space="preserve">
  <g id="icon">
    <path d="M20.37,13c0.05,-0.279,0.078,-0.566,0.078,-0.86c0,-2.691,-2.21,-4.872,-4.935,-4.872s-4.935,2.181,-4.935,4.872c0,0.294,0.028,0.581,0.078,0.86H20.37z" fill="#FFFFFF"/>
    <path d="M23.2,13v-1.1h3.8v1.1H23.2zM20.038,13c0.027,-0.202,0.04,-0.406,0.038,-0.611c-0.019,-2.335,-1.913,-4.263,-4.311,-4.389c-0.084,-0.004,-0.168,-0.007,-0.251,-0.007c-2.516,0,-4.563,1.988,-4.563,4.432c0,0.193,0.013,0.385,0.038,0.575H9.77c-0.021,-0.193,-0.032,-0.385,-0.032,-0.575c0,-3.077,2.591,-5.581,5.776,-5.581s5.776,2.504,5.776,5.581c0,0.189,-0.011,0.382,-0.032,0.575H20.038zM4,13v-1.1h3.9v1.1H4zM6.887,4.748l0.748,-0.722l2.64,2.563l-0.748,0.722L6.887,4.748zM20.753,6.589l2.539,-2.563l0.748,0.722L21.501,7.31L20.753,6.589zM15,4.9V1h1.1v3.9H15z" fill="#ED8730"/>
    <polygon points="29.5,30.5 1.519,30.5 7.488,15.5 23.531,15.5" fill="#FFFFFF" stroke-linejoin="miter"/>
    <path d="M9.906,30.406l3.362,-15.019M17.844,15.387l3.362,15.019M4.1,24.5h22.8M6.3,19.5h18.6" fill="#FFFFFF" stroke="#787979" stroke-width="1" stroke-miterlimit="1"/>
    <polygon points="29.5,30.5 1.519,30.5 7.488,15.5 23.531,15.5" fill="none" stroke="#383838" stroke-width="1" stroke-miterlimit="1" stroke-linejoin="round"/>
  </g>
</svg>
