<?xml version="1.0" encoding="UTF-8"?>
<!DOCTYPE svg PUBLIC "-//W3C//DTD SVG 1.1//EN" "http://www.w3.org/Graphics/SVG/1.1/DTD/svg11.dtd">
<svg version="1.1" id="Layer_1" xmlns="http://www.w3.org/2000/svg" xmlns:xlink="http://www.w3.org/1999/xlink" x="0px" y="0px" width="32px" height="32px" viewBox="0 0 32 32" enable-background="new 0 0 32 32" xml:space="preserve">
  <g id="icon">
    <path d="M13.72,15.455L6.953,8.676c0,0,16.912,-6.577,18.117,-6.948c0.454,-0.14,0.898,-0.211,1.322,-0.211c0.947,0,1.778,0.344,2.47,1.023l0.108,0.106c0.754,0.736,1.608,1.57,1.524,2.811c-0.059,0.878,-0.29,1.85,-0.708,2.974c-0.851,2.29,-6.593,16.313,-6.593,16.313l-6.738,-6.631" fill="#FFFFFF" stroke="#383838" stroke-width="1" stroke-miterlimit="1" stroke-linejoin="round"/>
    <path d="M12.145,21.899c0.087,-0.063,3.044,-3.15,3.96,-4.057l2.693,-4.618l-4.818,2.492c-0.415,0.436,-4.057,4.057,-4.057,4.057" fill="#FFFFFF" stroke="#383838" stroke-width="1" stroke-miterlimit="1" stroke-linejoin="round"/>
    <path d="M5.114,30.497c-0.037,0,-0.072,-0.002,-0.107,-0.006c-1.716,-0.159,-3.576,-2.216,-3.486,-3.86c0.023,-0.43,0.26,-0.949,0.603,-1.323c2.246,-2.446,3.82,-3.638,6.583,-5.446c0.298,-0.195,0.569,-0.29,0.828,-0.29c0.303,0,0.581,0.127,0.827,0.379c0.153,0.156,0.305,0.314,0.456,0.472c0.351,0.366,0.715,0.744,1.088,1.093c0.552,0.517,0.612,1.255,0.149,1.836c-1.426,1.793,-1.869,2.516,-3.307,4.232c-0.612,0.73,-1.324,1.382,-2.013,2.013l-0.198,0.181C6.048,30.241,5.541,30.497,5.114,30.497z" fill="#FFFFFF" stroke="#228BCB" stroke-width="1" stroke-miterlimit="1" stroke-linejoin="round"/>
  </g>
</svg>
