<?xml version="1.0" encoding="UTF-8"?>
<!DOCTYPE svg PUBLIC "-//W3C//DTD SVG 1.1//EN" "http://www.w3.org/Graphics/SVG/1.1/DTD/svg11.dtd">
<svg version="1.1" id="Layer_1" xmlns="http://www.w3.org/2000/svg" xmlns:xlink="http://www.w3.org/1999/xlink" x="0px" y="0px" width="32px" height="32px" viewBox="0 0 32 32" enable-background="new 0 0 32 32" xml:space="preserve">
  <g id="icon">
    <circle cx="4.5" cy="26.5" r="3" fill="#C8C6C4" stroke="#383838" stroke-width="1" stroke-miterlimit="1"/>
    <polygon points="7.2,12.3 22.9,12.2 19.433,6.633 13.6,9.867 11.6,7.533" fill="#92CBEE" stroke-linejoin="miter"/>
    <path d="M6.6,12.5l5,-5.1l4.1,5M23.3,12.4l-3.8,-5.9l-5.8,3.1" fill="none" stroke="#0964B0" stroke-width="1" stroke-miterlimit="1"/>
    <polygon points="2.6,12.6 26.267,12.633 24.233,20 10.633,24.367 2.3,12.9" fill="#C8C6C4" stroke-linejoin="miter"/>
    <path d="M10.666,24.19L2.549,12.85c-0.113,-0.141,-0.013,-0.35,0.168,-0.35H25.8M15.7,22.9l1.473,4.613c0,0,0.721,1.939,2.535,1.939s2.533,-1.935,2.533,-1.935l4.346,-16.38c0.254,-0.958,1.224,-1.636,2.341,-1.636H31M7.2,25.4l16.8,-5.4" fill="none" stroke="#383838" stroke-width="1" stroke-miterlimit="1"/>
  </g>
</svg>
