<?xml version="1.0" encoding="UTF-8"?>
<!DOCTYPE svg PUBLIC "-//W3C//DTD SVG 1.1//EN" "http://www.w3.org/Graphics/SVG/1.1/DTD/svg11.dtd">
<svg version="1.1" id="Layer_1" xmlns="http://www.w3.org/2000/svg" xmlns:xlink="http://www.w3.org/1999/xlink" x="0px" y="0px" width="32px" height="32px" viewBox="0 0 32 32" enable-background="new 0 0 32 32" xml:space="preserve">
  <g id="icon">
    <path d="M5.463,7.155c-0.295,7.262,0.944,11.451,-3.83,18.697c-0.252,0.368,0.012,0.853,0.475,0.853c2.325,0.083,7.335,-3.078,10.131,-3.724l-0.123,0.194c-0.66,1.636,-1.685,3.158,-3.315,5.469c-0.252,0.368,0.012,0.853,0.475,0.853c2.325,0.083,5.175,-3.078,7.97,-3.724h0.295c2.795,0.646,4.664,2.876,6.988,2.793c0.462,0,0.727,-0.486,0.475,-0.853c-1.326,-1.879,-2.251,-3.237,-2.906,-4.559l0.057,-0.173c2.795,0.646,5.412,1.014,7.736,0.931c0.462,0,0.727,-0.486,0.475,-0.853c-4.774,-7.246,-3.793,-8.643,-4.087,-15.904" fill="#92CBEE"/>
    <path d="M26.28,7.155c0.295,7.262,-0.687,8.658,4.087,15.904c0.252,0.368,-0.012,0.853,-0.475,0.853c-2.325,0.083,-4.941,-0.285,-7.736,-0.931M5.463,7.155c-0.295,7.262,0.944,11.451,-3.83,18.697c-0.252,0.368,0.012,0.853,0.475,0.853c2.325,0.083,7.335,-3.078,10.131,-3.724M13.319,15.534c-0.295,6.796,-0.982,8.1,-4.518,13.111c-0.252,0.368,0.012,0.853,0.475,0.853c2.325,0.083,5.175,-3.078,7.97,-3.724h0.295c2.795,0.646,4.664,2.876,6.988,2.793c0.462,0,0.727,-0.486,0.475,-0.853c-3.536,-5.012,-4.223,-6.315,-4.518,-13.111" fill="none" stroke="#0964B0" stroke-width="1" stroke-miterlimit="1"/>
    <ellipse cx="15.872" cy="7.155" rx="10.408" ry="4.655" fill="#92CBEE" stroke="#0964B0" stroke-width="1" stroke-miterlimit="1"/>
    <ellipse cx="15.773" cy="7.155" rx="5.597" ry="2.048" fill="#92CBEE" stroke="#0964B0" stroke-width="1" stroke-miterlimit="1" opacity="0.6"/>
  </g>
</svg>
