<?xml version="1.0" encoding="UTF-8"?>
<!DOCTYPE svg PUBLIC "-//W3C//DTD SVG 1.1//EN" "http://www.w3.org/Graphics/SVG/1.1/DTD/svg11.dtd">
<svg version="1.1" id="Layer_1" xmlns="http://www.w3.org/2000/svg" xmlns:xlink="http://www.w3.org/1999/xlink" x="0px" y="0px" width="24px" height="24px" viewBox="0 0 24 24" enable-background="new 0 0 24 24" xml:space="preserve">
  <g id="icon">
    <path d="M11.9747,23.8126c-6.4995,0,-11.7873,-5.2878,-11.7873,-11.7873C0.1874,5.5258,5.4752,0.238,11.9747,0.238c6.4996,0,11.7873,5.2878,11.7873,11.7873C23.762,18.5248,18.4742,23.8126,11.9747,23.8126zM11.9747,2.5374c-5.2316,0,-9.4878,4.2562,-9.4878,9.4878s4.2562,9.4878,9.4878,9.4878s9.4879,-4.2562,9.4879,-9.4878S17.2063,2.5374,11.9747,2.5374z" fill="#6E6F72" opacity="0.2"/>
    <path d="M17.4966,19.5463c2.3895,-1.7591,3.8141,-4.5663,3.8141,-7.521c0,-5.129,-4.1579,-9.3053,-9.2799,-9.3358V0.0863c6.5573,0.0306,11.883,5.3746,11.883,11.939c0,3.7836,-1.8269,7.3781,-4.8901,9.6272L17.4966,19.5463z" fill="#52B250"/>
    <path d="M15.4651,16.5758c-1.114,0,-1.937,-0.5315,-2.3801,-1.5371c-0.3059,-0.6941,-0.4423,-1.6126,-0.4423,-2.9781s0.1364,-2.2841,0.4423,-2.9782c0.4431,-1.0056,1.2661,-1.5371,2.3801,-1.5371c1.1136,0,1.9366,0.5315,2.3799,1.5371c0.306,0.6941,0.4424,1.6126,0.4424,2.9782c0,1.3655,-0.1365,2.284,-0.4424,2.9782C17.4018,16.0443,16.5788,16.5758,15.4651,16.5758zM15.4651,8.9579c-1.0146,0,-1.4098,0.8699,-1.4098,3.1027s0.3953,3.1027,1.4098,3.1027s1.4098,-0.8699,1.4098,-3.1027S16.4796,8.9579,15.4651,8.9579zM8.7068,16.5758v-1.7071H5.2927v-1.0053L8.903,7.4718h1.226v5.9749h1.7071v1.4221H10.129v1.7071H8.7068zM7.1613,13.4466h1.5455v-2.7362L7.1613,13.4466z" fill="#7B7B7B"/>
  </g>
</svg>
