<?xml version="1.0" encoding="UTF-8"?>
<!DOCTYPE svg PUBLIC "-//W3C//DTD SVG 1.1//EN" "http://www.w3.org/Graphics/SVG/1.1/DTD/svg11.dtd">
<svg version="1.1" id="Layer_1" xmlns="http://www.w3.org/2000/svg" xmlns:xlink="http://www.w3.org/1999/xlink" x="0px" y="0px" width="24px" height="24px" viewBox="0 0 24 24" enable-background="new 0 0 24 24" xml:space="preserve">
  <g id="icon">
    <path d="M12,23.9742c-6.5976,0,-11.965,-5.3674,-11.965,-11.9649S5.4024,0.0442,12,0.0442c6.5975,0,11.965,5.3675,11.965,11.965S18.5975,23.9742,12,23.9742zM12,2.2662c-5.3723,0,-9.743,4.3707,-9.743,9.743s4.3707,9.743,9.743,9.743s9.743,-4.3707,9.743,-9.743S17.3723,2.2662,12,2.2662z" fill="#7D7C7B" opacity="0.3"/>
    <path d="M11.9803,24.0529c-2.1016,0,-4.1775,-0.5572,-6.0033,-1.6114c-2.1852,-1.2615,-3.8915,-3.1421,-4.9345,-5.4383l-0.2591,-0.5706l2.1727,-0.9796l0.2579,0.5671c0.8363,1.8392,2.204,3.3458,3.955,4.3567c1.4643,0.8454,3.1286,1.2922,4.813,1.2922c0.312,0,0.6273,-0.0153,0.9376,-0.0454l0.6201,-0.0602l0.238,2.3712l-0.6237,0.061c-0.389,0.0379,-0.7837,0.0571,-1.1733,0.0571H11.9803z" fill="#6486C4"/>
  </g>
</svg>
