<?xml version="1.0" encoding="UTF-8"?>
<!DOCTYPE svg PUBLIC "-//W3C//DTD SVG 1.1//EN" "http://www.w3.org/Graphics/SVG/1.1/DTD/svg11.dtd">
<svg version="1.1" id="Layer_1" xmlns="http://www.w3.org/2000/svg" xmlns:xlink="http://www.w3.org/1999/xlink" x="0px" y="0px" width="24px" height="24px" viewBox="0 0 24 24" enable-background="new 0 0 24 24" xml:space="preserve">
  <g id="icon">
    <path d="M8.8957,23.5919c-3.0991,-0.8308,-5.6871,-2.8153,-7.2871,-5.5879c-1.6,-2.7725,-2.0238,-6.007,-1.1934,-9.1076s2.814,-5.6898,5.5853,-7.2904C7.8194,0.5553,9.8874,0,11.9808,0c4.2857,0,8.2747,2.299,10.4104,5.9999c1.6001,2.7726,2.024,6.0071,1.1936,9.1076l-0.1623,0.6057l-2.4656,-0.661l0.1623,-0.6056c0.6538,-2.441,0.3203,-4.9872,-0.939,-7.1695c-1.6813,-2.9132,-4.8222,-4.723,-8.1971,-4.723c-1.6469,0,-3.2742,0.4371,-4.7059,1.2641c-2.1814,1.26,-3.7429,3.2982,-4.3966,5.7392s-0.3202,4.9872,0.9392,7.1695c1.2594,2.1823,3.2967,3.7443,5.7367,4.3983l0.6055,0.1624l-0.6608,2.4667L8.8957,23.5919z" fill="#6486C4"/>
  </g>
</svg>
