<?xml version="1.0" encoding="UTF-8"?>
<!DOCTYPE svg PUBLIC "-//W3C//DTD SVG 1.1//EN" "http://www.w3.org/Graphics/SVG/1.1/DTD/svg11.dtd">
<svg version="1.1" id="Layer_1" xmlns="http://www.w3.org/2000/svg" xmlns:xlink="http://www.w3.org/1999/xlink" x="0px" y="0px" width="24px" height="24px" viewBox="0 0 24 24" enable-background="new 0 0 24 24" xml:space="preserve">
  <g id="icon">
    <path d="M12.0095,23.965C5.412,23.965,0.0445,18.5975,0.0445,12C0.0445,5.4024,5.412,0.035,12.0095,0.035S23.9745,5.4024,23.9745,12C23.9745,18.5975,18.607,23.965,12.0095,23.965zM12.0095,2.257c-5.3723,0,-9.743,4.3707,-9.743,9.743s4.3707,9.743,9.743,9.743s9.743,-4.3707,9.743,-9.743S17.3818,2.257,12.0095,2.257z" fill="#7D7C7B" opacity="0.3"/>
    <path d="M19.5138,18.1106l0.3622,-0.5069c1.1747,-1.6438,1.7955,-3.5815,1.7955,-5.6035s-0.6208,-3.9597,-1.7955,-5.6035l-0.3622,-0.5069l1.9346,-1.3919l0.3646,0.5098c1.467,2.0513,2.2425,4.4692,2.2425,6.9925c0,2.5233,-0.7755,4.9413,-2.2426,6.9925l-0.3645,0.5098L19.5138,18.1106z" fill="#6486C4"/>
  </g>
</svg>
