<?xml version="1.0" encoding="UTF-8"?>
<!DOCTYPE svg PUBLIC "-//W3C//DTD SVG 1.1//EN" "http://www.w3.org/Graphics/SVG/1.1/DTD/svg11.dtd">
<svg version="1.1" id="Layer_1" xmlns="http://www.w3.org/2000/svg" xmlns:xlink="http://www.w3.org/1999/xlink" x="0px" y="0px" width="24px" height="24px" viewBox="0 0 24 24" enable-background="new 0 0 24 24" xml:space="preserve">
  <g id="icon">
    <rect x="2" y="5" width="20" height="17" fill="#FFFFFF" opacity="0.5"/>
    <polygon points="22,5 22,22 2,22 2,5 0,5 0,24 24,24 24,5" fill="#7B7B7B" stroke-linejoin="miter"/>
    <path d="M24,5H0V1h24V5z" fill="#52B250"/>
    <rect x="2" y="5" width="20" height="17" fill="#FFFFFF" opacity="0.5"/>
    <polygon points="22,5 22,22 2,22 2,5 0,5 0,24 24,24 24,5" fill="#7B7B7B" stroke-linejoin="miter"/>
    <path d="M24,5H0V1h24V5z" fill="#52B250"/>
    <polygon points="18.5,19.6 5.5549,19.6 5.5549,7.6 16.2,7.6 18.5,10.0167" fill="#FFFFFF" stroke-linejoin="miter" opacity="0.5"/>
    <path d="M19,20H5V7h10.9713L19,9.9905V20zM6,19h12v-8.6905L15.662,8H6V19z" fill="#6D6E71"/>
    <path d="M14.05,12.7c-0.9098,0,-1.65,-0.7402,-1.65,-1.65S13.1402,9.4,14.05,9.4s1.65,0.7402,1.65,1.65S14.9598,12.7,14.05,12.7z" fill="#EEAC55"/>
    <path d="M6,19v-4.2567L8.3357,12.4l6.5786,6.6H6zM12.1718,15.4739L15.6661,19H18v-1.5329l-4.0286,-3.7987L12.1718,15.4739z" fill="#52B4C0"/>
  </g>
</svg>
