<?xml version="1.0" encoding="UTF-8"?>
<!DOCTYPE svg PUBLIC "-//W3C//DTD SVG 1.1//EN" "http://www.w3.org/Graphics/SVG/1.1/DTD/svg11.dtd">
<svg version="1.1" id="Layer_1" xmlns="http://www.w3.org/2000/svg" xmlns:xlink="http://www.w3.org/1999/xlink" x="0px" y="0px" width="24px" height="24px" viewBox="0 0 24 24" enable-background="new 0 0 24 24" xml:space="preserve">
  <g id="icon">
    <rect x="2" y="5" width="20" height="17" fill="#FFFFFF" opacity="0.5"/>
    <polygon points="22,5 22,22 2,22 2,5 0,5 0,24 24,24 24,5" fill="#7B7B7B" stroke-linejoin="miter"/>
    <path d="M24,5H0V1h24V5z" fill="#52B250"/>
    <polygon points="7.5,10.5 4.5,10.5 4.5,7.5 6.48,7.5 7.5,8.525" fill="#FFFFFF" stroke-linejoin="miter" opacity="0.5"/>
    <path d="M8,11H4V7h2.6878L8,8.3186V11zM5,10h2V8.7314L6.2722,8H5V10z" fill="#6E6F72"/>
    <polygon points="7.5,13.525 6.48,12.5 4.5,12.5 4.5,15.5 7.5,15.5" fill="#FFFFFF" stroke-linejoin="miter" opacity="0.5"/>
    <path d="M8,16H4v-4h2.6878L8,13.3186V16zM5,15h2v-1.2686L6.2722,13H5V15z" fill="#6E6F72"/>
    <polygon points="7.5,18.525 6.48,17.5 4.5,17.5 4.5,20.5 7.5,20.5" fill="#FFFFFF" stroke-linejoin="miter" opacity="0.5"/>
    <path d="M8,21H4v-4h2.6878L8,18.3186V21zM5,20h2v-1.2686L6.2722,18H5V20z" fill="#6E6F72"/>
    <rect x="5" y="9" width="2" height="1" fill="#6486C4"/>
    <rect x="5" y="19" width="2" height="1" fill="#6486C4"/>
    <rect x="5" y="14" width="2" height="1" fill="#54B14E"/>
    <polygon points="16.5,8.525 15.48,7.5 13.5,7.5 13.5,10.5 16.5,10.5" fill="#FFFFFF" stroke-linejoin="miter" opacity="0.5"/>
    <path d="M17,11h-4V7h2.6878L17,8.3186V11zM14,10h2V8.7314L15.2722,8H14V10z" fill="#6E6F72"/>
    <polygon points="16.5,13.525 15.48,12.5 13.5,12.5 13.5,15.5 16.5,15.5" fill="#FFFFFF" stroke-linejoin="miter" opacity="0.5"/>
    <path d="M17,16h-4v-4h2.6878L17,13.3186V16zM14,15h2v-1.2686L15.2722,13H14V15z" fill="#6E6F72"/>
    <rect x="14" y="14" width="2" height="1" fill="#6486C4"/>
    <rect x="14" y="9" width="2" height="1" fill="#54B14E"/>
    <polygon points="16.5,18.525 15.48,17.5 13.5,17.5 13.5,20.5 16.5,20.5" fill="#FFFFFF" stroke-linejoin="miter" opacity="0.5"/>
    <path d="M17,21h-4v-4h2.6878L17,18.3186V21zM14,20h2v-1.2686L15.2722,18H14V20z" fill="#6E6F72"/>
    <rect x="14" y="19" width="2" height="1" fill="#54B14E"/>
    <path d="M11,10H9V9h2V10zM11,14H9v1h2V14zM11,19H9v1h2V19zM20,19h-2v1h2V19zM20,14h-2v1h2V14zM20,9h-2v1h2V9z" fill="#6E6F72"/>
  </g>
</svg>
