<?xml version="1.0" encoding="UTF-8"?>
<!DOCTYPE svg PUBLIC "-//W3C//DTD SVG 1.1//EN" "http://www.w3.org/Graphics/SVG/1.1/DTD/svg11.dtd">
<svg version="1.1" id="Layer_1" xmlns="http://www.w3.org/2000/svg" xmlns:xlink="http://www.w3.org/1999/xlink" x="0px" y="0px" width="16px" height="16px" viewBox="0 0 16 16" enable-background="new 0 0 16 16" xml:space="preserve">
  <g id="icon">
    <path d="M12.5,15.5H3.5V2.5h9V15.5zM9.5,2.5V0.5H6.5v2" fill="#FFFFFF" stroke="#383838" stroke-width="1" stroke-miterlimit="1"/>
    <polygon points="7.955,13.485 6.936,13.072 8.384,9.5 5.92,9.5 8.019,4.412 9.036,4.831 7.564,8.4 10.016,8.4" fill="#ED8730" stroke-linejoin="miter"/>
    <path d="M9.8,4.5h0.7v3.3H8.461l1.347,-3.265c0.004,-0.01,0.002,-0.019,0,-0.025C9.806,4.507,9.803,4.503,9.8,4.5zM7.334,4.5H5.5v4.446L7.334,4.5zM6.185,13.415c-0.017,-0.007,-0.025,-0.026,-0.018,-0.043L7.493,10.1H5.5v3.4h0.894L6.185,13.415zM8.597,13.5H10.5V8.804L8.597,13.5z" fill="#ACD8B1"/>
    <path d="M7.628,14H5V4h2.54l-0.413,1H6v2.733l-0.958,2.321c-0.004,0.011,-0.003,0.021,0.003,0.031s0.016,0.015,0.027,0.015H6v2.9h0.318l-0.151,0.373c-0.007,0.017,0.001,0.036,0.018,0.043L7.628,14zM8.595,4l1.194,0.493c0.01,0.004,0.015,0.012,0.018,0.018c0.002,0.006,0.004,0.015,0,0.025L9.616,5H10v2.8h0.858c0.012,0,0.021,0.005,0.027,0.014s0.008,0.02,0.003,0.031L10,10.038V13H8.799l-0.405,1H11V4H8.595z" fill="#0BA04A"/>
  </g>
</svg>
