<?xml version="1.0" encoding="UTF-8"?>
<!DOCTYPE svg PUBLIC "-//W3C//DTD SVG 1.1//EN" "http://www.w3.org/Graphics/SVG/1.1/DTD/svg11.dtd">
<svg version="1.1" id="Layer_1" xmlns="http://www.w3.org/2000/svg" xmlns:xlink="http://www.w3.org/1999/xlink" x="0px" y="0px" width="16px" height="16px" viewBox="0 0 16 16" enable-background="new 0 0 16 16" xml:space="preserve">
  <g id="icon">
    <path d="M15.5,5.15c0,-0.365,-0.135,-0.542,-0.528,-0.674c-1.189,-0.397,-2.415,-0.673,-3.663,-0.874c-0.329,-0.053,-0.526,-0.225,-0.624,-0.504c-0.072,-0.205,-0.151,-0.409,-0.231,-0.612c-0.141,-0.359,-0.424,-0.498,-0.878,-0.482C8.51,2.042,7.442,2,6.375,2.001c-0.389,0,-0.654,0.141,-0.786,0.464c-0.09,0.219,-0.169,0.442,-0.252,0.664c-0.099,0.262,-0.295,0.422,-0.607,0.472c-1.255,0.202,-2.487,0.481,-3.683,0.879C0.672,4.605,0.5,4.845,0.5,5.2c0,2.26,0,5.3,0,7.55c0,0.437,0.327,0.75,0.776,0.75c2.276,0,11.276,0,13.448,0c0.415,0,0.776,-0.301,0.776,-0.75C15.5,10.491,15.5,7.41,15.5,5.15z" fill="#FFFFFF" stroke="#383838" stroke-width="1" stroke-miterlimit="1"/>
    <line x1="2" y1="11.5" x2="4" y2="11.5" fill="none" stroke="#787979" stroke-width="1" stroke-miterlimit="1"/>
    <path d="M8.004,4.5C9.935,4.5,11.5,6.061,11.5,7.987s-1.565,3.487,-3.496,3.487S4.508,9.913,4.508,7.987S6.074,4.5,8.004,4.5z" fill="#92CBEE" stroke="#0964B0" stroke-width="1" stroke-linecap="round" stroke-miterlimit="1"/>
    <path d="M7.999,6.081c-1.034,0,-1.872,0.849,-1.872,1.896" fill="#92CBEE" stroke="#0964B0" stroke-width="1" stroke-linecap="round" stroke-miterlimit="1"/>
  </g>
</svg>
