<?xml version="1.0" encoding="UTF-8"?>
<!DOCTYPE svg PUBLIC "-//W3C//DTD SVG 1.1//EN" "http://www.w3.org/Graphics/SVG/1.1/DTD/svg11.dtd">
<svg version="1.1" id="Layer_1" xmlns="http://www.w3.org/2000/svg" xmlns:xlink="http://www.w3.org/1999/xlink" x="0px" y="0px" width="16px" height="16px" viewBox="0 0 16 16" enable-background="new 0 0 16 16" xml:space="preserve">
  <g id="icon">
    <polyline points="7.5,8.6 7.5,15.5 1.5,15.5 1.5,8.8" fill="#FFFFFF" stroke="#383838" stroke-width="1" stroke-miterlimit="1" stroke-linejoin="miter"/>
    <polyline points="1.5,3.5 1.5,0.5 7.5,0.5 7.5,3.6" fill="#FFFFFF" stroke="#383838" stroke-width="1" stroke-miterlimit="1" stroke-linejoin="miter"/>
    <path d="M8.5,2.5h6.033c0.534,0,0.967,0.433,0.967,0.967v5.067c0,0.534,-0.433,0.967,-0.967,0.967H8.5" fill="#FFFFFF" stroke="#383838" stroke-width="1" stroke-miterlimit="1"/>
    <line x1="3" y1="13.5" x2="6" y2="13.5" fill="none" stroke="#787979" stroke-width="1" stroke-miterlimit="1"/>
    <ellipse cx="4.5" cy="5.958" rx="4" ry="3.992" fill="#92CBEE" stroke="#0964B0" stroke-width="1" stroke-linecap="round" stroke-miterlimit="1"/>
    <path d="M3.184,3.954c0.374,-0.24,0.819,-0.379,1.298,-0.379c1.32,0,2.391,1.062,2.391,2.371c0,0.534,-0.178,1.026,-0.478,1.423" fill="#92CBEE" stroke="#0964B0" stroke-width="1" stroke-linecap="round" stroke-miterlimit="1"/>
  </g>
</svg>
