<?xml version="1.0" encoding="UTF-8"?>
<!DOCTYPE svg PUBLIC "-//W3C//DTD SVG 1.1//EN" "http://www.w3.org/Graphics/SVG/1.1/DTD/svg11.dtd">
<svg version="1.1" id="Layer_1" xmlns="http://www.w3.org/2000/svg" xmlns:xlink="http://www.w3.org/1999/xlink" x="0px" y="0px" width="16px" height="16px" viewBox="0 0 16 16" enable-background="new 0 0 16 16" xml:space="preserve">
  <g id="icon">
    <path d="M3.566,2.758L2.524,10.72c-0.169,2.85,0.697,4.372,2.433,4.78l5.21,-0.037c1.722,-0.318,2.622,-1.924,2.249,-5.527l-0.752,-8.461" fill="#FFFFFF"/>
    <path d="M2.647,9.525c1.917,0.784,7.594,0.784,9.732,0" fill="none" stroke="#787979" stroke-width="1" stroke-miterlimit="1"/>
    <path d="M3.566,2.758l-0.899,6.868l-0.143,1.094c-0.169,2.85,0.697,4.372,2.433,4.78h5.136c1.722,-0.318,2.696,-1.962,2.323,-5.564l-0.029,-0.327l-0.722,-8.134" fill="none" stroke="#383838" stroke-width="1" stroke-miterlimit="1"/>
    <path d="M11.668,1.475c0.126,0.819,-1.585,1.77,-3.822,2.124s-4.153,-0.023,-4.28,-0.841S5.151,0.987,7.388,0.633S11.542,0.656,11.668,1.475z" fill="#FFFFFF"/>
    <path d="M6.208,4.234c-1.134,0,-2.072,-0.208,-2.613,-0.603c-0.373,-0.272,-0.49,-0.584,-0.523,-0.798c-0.2,-1.296,1.981,-2.336,4.238,-2.694c1.874,-0.297,3.533,-0.12,4.329,0.461c0.373,0.272,0.49,0.584,0.523,0.798l0,0l0,0c0.2,1.296,-1.981,2.336,-4.238,2.694C7.322,4.187,6.743,4.234,6.208,4.234zM9.001,1.001c-0.464,0,-0.982,0.038,-1.535,0.126C5.154,1.493,4.016,2.393,4.06,2.681c0.004,0.028,0.039,0.081,0.124,0.143c0.475,0.346,1.858,0.554,3.583,0.281c2.312,-0.366,3.451,-1.266,3.406,-1.554l0,0c-0.004,-0.028,-0.039,-0.081,-0.124,-0.143C10.727,1.173,9.985,1.001,9.001,1.001z" fill="#383838"/>
  </g>
</svg>
