<?xml version="1.0" encoding="UTF-8"?>
<!DOCTYPE svg PUBLIC "-//W3C//DTD SVG 1.1//EN" "http://www.w3.org/Graphics/SVG/1.1/DTD/svg11.dtd">
<svg version="1.1" id="Layer_1" xmlns="http://www.w3.org/2000/svg" xmlns:xlink="http://www.w3.org/1999/xlink" x="0px" y="0px" width="16px" height="16px" viewBox="0 0 16 16" enable-background="new 0 0 16 16" xml:space="preserve">
  <g id="icon">
    <path d="M8.5,9.5H1.5V6.5h7V9.5zM8.5,9.5H1.5v6h7V9.5z" fill="#FFFFFF" stroke="#383838" stroke-width="1" stroke-miterlimit="1"/>
    <path d="M7,8.5H5V7.5h2V8.5z" fill="#238BCB"/>
    <circle cx="5" cy="13" r="1" fill="#78797A"/>
    <polygon points="7.5,0.5 7.5,3.5 7.5,5 10,5 10,9.5 14.5,9.5 14.5,3.5 14.5,0.5" fill="#FFFFFF" stroke-linejoin="miter"/>
    <path d="M7,0v5h1V4h6v5h-4v1h5V0H7zM14,3H8V1h6V3z" fill="#383838"/>
    <path d="M13,2.5h-2V1.5h2V2.5z" fill="#238BCB"/>
    <circle cx="11" cy="7" r="1" fill="#78797A"/>
  </g>
</svg>
