<?xml version="1.0" encoding="UTF-8"?>
<!DOCTYPE svg PUBLIC "-//W3C//DTD SVG 1.1//EN" "http://www.w3.org/Graphics/SVG/1.1/DTD/svg11.dtd">
<svg version="1.1" id="Layer_1" xmlns="http://www.w3.org/2000/svg" xmlns:xlink="http://www.w3.org/1999/xlink" x="0px" y="0px" width="16px" height="16px" viewBox="0 0 16 16" enable-background="new 0 0 16 16" xml:space="preserve">
  <g id="icon">
    <path d="M2.5,0.5v5.732l0.676,-0.299c0.232,-0.102,0.503,0.002,0.605,0.234l0.496,1.123c0.032,-0.001,0.065,-0.001,0.097,-0.001c0.038,0,0.075,0,0.113,0.002L4.99,6.19c0.105,-0.23,0.377,-0.332,0.608,-0.227l2.076,0.948c0.23,0.105,0.332,0.377,0.227,0.608l-0.47,1.029c0.016,0.016,0.017,0.017,0.033,0.033l1.076,-0.475c0.232,-0.102,0.503,0.002,0.605,0.234l0.923,2.087c0.102,0.232,-0.002,0.503,-0.234,0.605l-1.124,0.497c0.001,0.064,0.001,0.128,0,0.192l1.142,0.505c0.232,0.102,0.337,0.373,0.234,0.605L9.789,13.5H15.5V0.5H2.5z" fill="#FFFFFF"/>
    <polygon points="2,0 2,6.453 3,6.011 3,1 15,1 15,13 10.01,13 9.568,14 16,14 16,0" fill="#020202" stroke-linejoin="miter"/>
    <path d="M8,6h6v1H8V6zM9.5,9.145l0.378,0.855H14V9H9.5V9.145zM8,3v1h6V3H8z" fill="#78797A"/>
    <circle cx="4.35" cy="11.65" r="2.65" fill="#C8C6C4"/>
    <circle cx="5.5" cy="3.5" r="1.2" fill="#238BCB"/>
    <path d="M2.214,15.451l0.541,-1.231c-0.389,-0.253,-0.724,-0.587,-0.976,-0.974l-1.212,0.533L0.084,12.68l1.232,-0.542c-0.102,-0.467,-0.102,-0.956,0.001,-1.424l-1.251,-0.55l0.483,-1.099l1.231,0.541c0.252,-0.389,0.586,-0.723,0.973,-0.975l-0.566,-1.28l1.098,-0.485l0.575,1.301c0.235,-0.052,0.475,-0.078,0.714,-0.078c0.241,0,0.483,0.027,0.72,0.08l0.581,-1.271l1.092,0.499L6.4,8.635c0.39,0.254,0.715,0.58,0.968,0.97l1.279,-0.565l0.485,1.098l-1.301,0.575c0.103,0.469,0.104,0.959,0,1.428l1.318,0.583l-0.485,1.098l-1.297,-0.573c-0.252,0.388,-0.587,0.723,-0.975,0.975l0.533,1.212l-1.099,0.483l-0.541,-1.232c-0.233,0.051,-0.471,0.077,-0.709,0.077c-0.24,0,-0.481,-0.026,-0.716,-0.078l-0.55,1.251L2.214,15.451zM4.574,9.29c-0.28,0,-0.555,0.055,-0.817,0.164c-1.088,0.45,-1.606,1.702,-1.155,2.789c0.332,0.801,1.107,1.318,1.975,1.318c0.28,0,0.554,-0.055,0.814,-0.163c0.527,-0.218,0.937,-0.629,1.155,-1.155c0.218,-0.527,0.218,-1.107,0,-1.634c-0.218,-0.527,-0.629,-0.937,-1.155,-1.155C5.129,9.345,4.854,9.29,4.574,9.29z" fill="#010101"/>
  </g>
</svg>
