<?xml version="1.0" encoding="UTF-8"?>
<!DOCTYPE svg PUBLIC "-//W3C//DTD SVG 1.1//EN" "http://www.w3.org/Graphics/SVG/1.1/DTD/svg11.dtd">
<svg version="1.1" id="Layer_1" xmlns="http://www.w3.org/2000/svg" xmlns:xlink="http://www.w3.org/1999/xlink" x="0px" y="0px" width="16px" height="16px" viewBox="0 0 16 16" enable-background="new 0 0 16 16" xml:space="preserve">
  <g id="icon">
    <polygon points="7,8 13.5,8 13.5,3.42 10.588,0.5 1.5,0.5 1.5,13.5 7,13.5" fill="#FFFFFF" stroke-linejoin="miter"/>
    <path d="M10.5,11.5H8.5V9.5h2V11.5zM14.5,11.5h-2V9.5h2V11.5zM10.5,15.5H8.5v-2h2V15.5z" fill="#92CBEE" stroke="#0964B0" stroke-width="1" stroke-linecap="round" stroke-miterlimit="1"/>
    <path d="M6.5,7.5H4.5V5.5h2V7.5zM6.5,11.5H4.5V9.5h2V11.5zM10.5,5.5H8.5v2h2V5.5z" fill="none" stroke="#787979" stroke-width="1" stroke-miterlimit="1"/>
    <path d="M10.795,0H1v14h6v-1H2V1h8v3h3v4h1V3.214L10.795,0zM11,1.622L12.375,3H11V1.622z" fill="#383838"/>
  </g>
</svg>
