<?xml version="1.0" encoding="UTF-8"?>
<!DOCTYPE svg PUBLIC "-//W3C//DTD SVG 1.1//EN" "http://www.w3.org/Graphics/SVG/1.1/DTD/svg11.dtd">
<svg version="1.1" id="Layer_1" xmlns="http://www.w3.org/2000/svg" xmlns:xlink="http://www.w3.org/1999/xlink" x="0px" y="0px" width="16px" height="16px" viewBox="0 0 16 16" enable-background="new 0 0 16 16" xml:space="preserve">
  <g id="icon">
    <path d="M1.5,15.474c0,-0.982,0.009,-3.064,0.009,-3.064s0.224,-0.016,0.348,-0.025c1.232,-0.085,2.189,-0.663,2.773,-1.642c0.75,-1.26,1.388,-2.584,2.012,-3.908c0.693,-1.47,1.346,-2.955,2.486,-4.179C10.429,1.259,12.551,0.542,14.5,0.485c0,0.099,-0.004,2.952,-0.004,3.144c-2.248,0.13,-3.751,1.872,-4.184,3.371c0.553,0,3.188,0.013,3.188,0.013V10l-4.438,0.012c0,0,-0.149,0.28,-0.213,0.428c-0.564,1.325,-1.128,2.145,-2.213,3.177C5.237,14.949,3.514,15.492,1.5,15.474z" fill="#F3B8B8" stroke="#E42D2C" stroke-width="1" stroke-linecap="round" stroke-miterlimit="1"/>
  </g>
</svg>
