<?xml version="1.0" encoding="UTF-8"?>
<!DOCTYPE svg PUBLIC "-//W3C//DTD SVG 1.1//EN" "http://www.w3.org/Graphics/SVG/1.1/DTD/svg11.dtd">
<svg version="1.1" id="Layer_1" xmlns="http://www.w3.org/2000/svg" xmlns:xlink="http://www.w3.org/1999/xlink" x="0px" y="0px" width="16px" height="16px" viewBox="0 0 16 16" enable-background="new 0 0 16 16" xml:space="preserve">
  <g id="icon">
    <path d="M2.5,3.5v1.234C3.398,4.266,4.418,4,5.5,4c3.59,0,6.5,2.91,6.5,6.5c0,1.082,-0.266,2.102,-0.734,3H15.5V3.5H2.5z" fill="#FFFFFF"/>
    <path d="M2,3v2.024c0.316,-0.202,0.65,-0.379,1,-0.525V4h12v9h-3.499c-0.146,0.35,-0.323,0.684,-0.525,1H16V3H2z" fill="#383838"/>
    <rect x="2.5" y="0.5" width="13" height="3" fill="#BEE2E5"/>
    <path d="M2,0v4h14V0H2zM15,3H3V1h12V3z" fill="#19AAB5"/>
    <path d="M11.824,9H14v1h-2.021C11.953,9.659,11.901,9.325,11.824,9zM11.824,12H14v-1h-2.021C11.953,11.341,11.901,11.675,11.824,12zM11.501,8H14V7h-3.024C11.178,7.316,11.355,7.65,11.501,8zM10,5v0.812c0.064,0.061,0.127,0.124,0.188,0.188H14V5H10z" fill="#787979" opacity="0.7"/>
    <circle cx="5.5" cy="10.5" r="5" fill="#FFFFFF" stroke="#228BCB" stroke-width="1" stroke-miterlimit="1"/>
    <path d="M5.482,5.516c-1.142,0.684,-1.857,3.132,-1.857,5.002c0,1.848,0.656,4.294,1.812,4.956M5.516,15.473c1.127,-0.661,1.859,-3.108,1.859,-4.956c0,-1.87,-0.765,-4.318,-1.877,-5.002M0.75,11.813h9.5M0.75,9.188h9.5" fill="none" stroke="#228BCB" stroke-width="0.9" stroke-miterlimit="1"/>
  </g>
</svg>
