<?xml version="1.0" encoding="UTF-8"?>
<!DOCTYPE svg PUBLIC "-//W3C//DTD SVG 1.1//EN" "http://www.w3.org/Graphics/SVG/1.1/DTD/svg11.dtd">
<svg version="1.1" id="Layer_1" xmlns="http://www.w3.org/2000/svg" xmlns:xlink="http://www.w3.org/1999/xlink" x="0px" y="0px" width="32px" height="32px" viewBox="0 0 32 32" enable-background="new 0 0 32 32" xml:space="preserve">
  <g id="icon">
    <path d="M30.5,6.5H5.5v24h25V6.5z" fill="#FFFFFF" stroke="#383838" stroke-width="1" stroke-miterlimit="1"/>
    <path d="M30.5,6.5H1.5V2.5h29V6.5z" fill="#FFFFFF" stroke="#228BCB" stroke-width="1" stroke-miterlimit="1"/>
    <path d="M13.5,5H4.5c-0.276,0,-0.5,-0.224,-0.5,-0.5v0c0,-0.276,0.224,-0.5,0.5,-0.5h9c0.276,0,0.5,0.224,0.5,0.5v0C14,4.776,13.776,5,13.5,5zM22,4.5L22,4.5c0,-0.276,-0.224,-0.5,-0.5,-0.5h-5c-0.276,0,-0.5,0.224,-0.5,0.5v0c0,0.276,0.224,0.5,0.5,0.5h5C21.776,5,22,4.776,22,4.5z" fill="#6D6E71"/>
    <path d="M6,14v5h24v-5H6zM18.5,17H8.5c-0.276,0,-0.5,-0.224,-0.5,-0.5s0.224,-0.5,0.5,-0.5h10c0.276,0,0.5,0.224,0.5,0.5S18.776,17,18.5,17zM26.5,17h-5c-0.276,0,-0.5,-0.224,-0.5,-0.5s0.224,-0.5,0.5,-0.5h5c0.276,0,0.5,0.224,0.5,0.5S26.776,17,26.5,17z" fill="#3E79B4"/>
    <path d="M18.5,17H8.5c-0.276,0,-0.5,-0.224,-0.5,-0.5l0,0c0,-0.276,0.224,-0.5,0.5,-0.5h10c0.276,0,0.5,0.224,0.5,0.5l0,0C19,16.776,18.776,17,18.5,17zM27,16.5L27,16.5c0,-0.276,-0.224,-0.5,-0.5,-0.5h-5c-0.276,0,-0.5,0.224,-0.5,0.5l0,0c0,0.276,0.224,0.5,0.5,0.5h5C26.776,17,27,16.776,27,16.5z" fill="#FFFFFF"/>
    <path d="M5.5,10.5h25M5.5,22.5h25M5.5,26.5h25" fill="none" stroke="#383838" stroke-width="1" stroke-miterlimit="1"/>
    <path d="M30.5,18.5H5.5v-4h25V18.5z" fill="#FFFFFF" stroke="#228BCB" stroke-width="1" stroke-miterlimit="1"/>
    <path d="M8,16.5h12M22,16.5h4" fill="none" stroke="#228BCB" stroke-width="1" stroke-miterlimit="1"/>
    <path d="M4,4.5h10M16,4.5h6" fill="#FFFFFF" stroke="#228BCB" stroke-width="1" stroke-miterlimit="1"/>
    <path d="M8,8.5h8M18,8.5h6M8,28.5h8M18,28.5h6M8,24.5h11M21,24.5h6M8,20.5h6M16,20.5h6M8,12.5h12M22,12.5h6" fill="none" stroke="#787979" stroke-width="1" stroke-miterlimit="1"/>
  </g>
</svg>
