<?xml version="1.0" encoding="UTF-8"?>
<!DOCTYPE svg PUBLIC "-//W3C//DTD SVG 1.1//EN" "http://www.w3.org/Graphics/SVG/1.1/DTD/svg11.dtd">
<svg version="1.1" id="Layer_1" xmlns="http://www.w3.org/2000/svg" xmlns:xlink="http://www.w3.org/1999/xlink" x="0px" y="0px" width="32px" height="32px" viewBox="0 0 32 32" enable-background="new 0 0 32 32" xml:space="preserve">
  <g id="icon">
    <polygon points="30.5,30.5 8.5,30.5 8.5,1.5 23.5,1.5 30.5,8.5" fill="#FFFFFF" stroke-linejoin="miter"/>
    <path d="M23.707,1H8v8.5h1V2h14v7h7v21H9v-3H8v4h23V8.293L23.707,1zM24,8V2.707L29.293,8H24z" fill="#383838"/>
    <path d="M1.5,19.607l11.084,7.096l5.916,-3.5v-5.298L7.716,11.779L1.5,14.498V19.607z" fill="#FFFFFF" stroke="#228BCB" stroke-width="1" stroke-miterlimit="1"/>
    <path d="M12.5,26.7v-5.404L1.491,14.529M12.51,26.652M18.387,17.912l-5.877,3.383M1.501,14.529" fill="none" stroke="#228BCB" stroke-width="1" stroke-miterlimit="1"/>
  </g>
</svg>
