<?xml version="1.0" encoding="UTF-8"?>
<!DOCTYPE svg PUBLIC "-//W3C//DTD SVG 1.1//EN" "http://www.w3.org/Graphics/SVG/1.1/DTD/svg11.dtd">
<svg version="1.1" id="Layer_1" xmlns="http://www.w3.org/2000/svg" xmlns:xlink="http://www.w3.org/1999/xlink" x="0px" y="0px" width="32px" height="32px" viewBox="0 0 32 32" enable-background="new 0 0 32 32" xml:space="preserve">
  <g id="icon">
    <path d="M21.154,12.5H3.846C2.551,12.5,1.5,13.551,1.5,14.846v13.307C1.5,29.449,2.551,30.5,3.846,30.5h17.307c1.296,0,2.346,-1.051,2.346,-2.346V14.846C23.5,13.551,22.449,12.5,21.154,12.5z" fill="#C8C6C4" stroke="#383838" stroke-width="1" stroke-linecap="round" stroke-miterlimit="1"/>
    <path d="M28.254,1.6H10.846C9.551,1.6,8.5,2.651,8.5,3.946V11h12.654c2.121,0,3.846,1.725,3.846,3.846V19.5h3.254c1.296,0,2.346,-1.051,2.346,-2.346V3.946C30.6,2.651,29.549,1.6,28.254,1.6z" fill="#C8C6C4"/>
    <path d="M24.9,20v-1h3.262c1.013,0,1.838,-0.828,1.838,-1.846V3.946C30,2.928,29.176,2.1,28.162,2.1H10.838C9.824,2.1,9,2.928,9,3.946V11H8V3.875C8,2.29,9.277,1,10.848,1h17.306C29.723,1,31,2.284,31,3.862v13.277c0,1.578,-1.277,2.862,-2.846,2.862H24.9z" fill="#383838"/>
    <path d="M12.494,26.091V28M12.494,24.621c0,0,0,-1.299,0,-1.875c0.13,-1.658,3.704,-1.687,3.704,-4.427c0,-1.925,-2.463,-2.765,-3.667,-2.765c-1.204,0,-3.675,0.371,-3.675,2.76" fill="none" stroke="#383838" stroke-width="1.1" stroke-miterlimit="1"/>
  </g>
</svg>
