<?xml version="1.0" encoding="UTF-8"?>
<!DOCTYPE svg PUBLIC "-//W3C//DTD SVG 1.1//EN" "http://www.w3.org/Graphics/SVG/1.1/DTD/svg11.dtd">
<svg version="1.1" id="Layer_1" xmlns="http://www.w3.org/2000/svg" xmlns:xlink="http://www.w3.org/1999/xlink" x="0px" y="0px" width="24px" height="24px" viewBox="0 0 24 24" enable-background="new 0 0 24 24" xml:space="preserve">
  <g id="icon">
    <polygon points="3.8,23.3 3.8,7.8 6.8,7.8 6.8,4.0128 12.0243,1.0041 17.3,4.012 17.3,7.8 20.3,7.8 20.3,23.3" fill="#FFFFFF" stroke-linejoin="miter" opacity="0.5"/>
    <path d="M3,24V7h3V3.5513l5.9721,-3.485L18,3.548V7h3v17H3zM19,22V9h-3V4.652l-4.0221,-2.2183L8,4.6487V9H5v13H19z" fill="#6484C3"/>
    <rect x="1.5" y="22" width="21" height="2" fill="#6484C3"/>
    <path d="M8.5,13.5H7v-1.5h1.5V13.5zM11.5,13.5h-1.5v-1.5h1.5V13.5zM14.5,13.5h-1.5v-1.5h1.5V13.5zM11.5,10.5h-1.5V9h1.5V10.5zM14.5,10.5h-1.5V9h1.5V10.5zM11.5,7.5h-1.5V6h1.5V7.5zM14.5,7.5h-1.5V6h1.5V7.5zM17.5,13.5h-1.5v-1.5h1.5V13.5zM8.5,16.5H7v-1.5h1.5V16.5zM11.5,16.5h-1.5v-1.5h1.5V16.5zM14.5,16.5h-1.5v-1.5h1.5V16.5zM17.5,16.5h-1.5v-1.5h1.5V16.5zM8.5,19.5H7v-1.5h1.5V19.5zM11.5,19.5h-1.5v-1.5h1.5V19.5zM14.5,19.5h-1.5v-1.5h1.5V19.5zM17.5,19.5h-1.5v-1.5h1.5V19.5z" fill="#6484C3"/>
  </g>
</svg>
