<?xml version="1.0" encoding="UTF-8"?>
<!DOCTYPE svg PUBLIC "-//W3C//DTD SVG 1.1//EN" "http://www.w3.org/Graphics/SVG/1.1/DTD/svg11.dtd">
<svg version="1.1" id="Layer_1" xmlns="http://www.w3.org/2000/svg" xmlns:xlink="http://www.w3.org/1999/xlink" x="0px" y="0px" width="24px" height="24px" viewBox="0 0 24 24" enable-background="new 0 0 24 24" xml:space="preserve">
  <g id="icon">
    <path d="M6.8,7.2V5.9626c0,-0.3889,-0.532,-1.1563,-1.1751,-1.1627l-0.0088,-0.0001l-0.0088,-0.0007c-0.1699,-0.0137,-0.3412,-0.0207,-0.5093,-0.0207c-1.8773,0,-3.1483,0.8448,-3.7592,1.2509l-0.0113,0.0075c-0.0547,0.0364,-0.1179,0.0557,-0.1826,0.0557c-0.1132,0,-0.2209,-0.0603,-0.2811,-0.1572c-0.0603,-0.0971,-0.0658,-0.2167,-0.0148,-0.3199C1.4201,4.4622,3.5763,0.7,7.352,0.7h2.6567c0.2867,0,0.4646,0.2791,0.6898,0.6325c0.25,0.3923,0.5612,0.8806,0.9746,0.8806c0.419,0,0.9574,-0.4923,1.2293,-0.8879C13.1424,0.9759,13.332,0.7,13.613,0.7h1.162c0.3452,0,0.625,0.2798,0.625,0.625v4.5534c0,0.3433,-0.2783,0.6216,-0.6216,0.6216H13.625c-0.28,0,-0.4881,-0.2578,-0.7761,-0.6145C12.5813,5.554,12.0147,5.1,11.7,5.1c-0.3997,0,-0.7379,0.1696,-1.0165,0.4321c-0.1309,0.1234,-0.3863,0.3263,-0.3835,0.5923V7.2H6.8z" fill="#FFFFFF" opacity="0.5"/>
    <path d="M6,8V5.9725l-0.0032,-0.0124c-0.0369,-0.1422,-0.2216,-0.5098,-0.4311,-0.5119l-0.0586,-0.0026c-0.1588,-0.0129,-0.3128,-0.0193,-0.4672,-0.0193c-1.6814,0,-2.8019,0.75,-3.4038,1.153c-0.1675,0.1121,-0.3603,0.1714,-0.5575,0.1714c-0.403,0,-0.7612,-0.2477,-0.9127,-0.6309c-0.1006,-0.2542,-0.0834,-0.5513,0.047,-0.8149C0.8281,4.0604,3.158,0,7.3025,0H10c0.6405,0,0.9684,0.518,1.2318,0.9341c0.1489,0.2354,0.2672,0.4029,0.3518,0.498l0.0708,0.0796l0.075,-0.0756c0.0953,-0.096,0.4316,-0.2736,0.6052,-0.5278C12.6251,0.4826,12.9544,0,13.575,0h1.15C15.428,0,16,0.572,16,1.275v4.5535C16,6.5296,15.4296,7.1,14.7285,7.1h-1.1533c-0.6022,0,-0.938,-0.4753,-1.2935,-0.9786c-0.2131,-0.3017,-0.5676,-0.4988,-0.6592,-0.5859l-0.0357,-0.0339l-0.0487,0.0076c-0.2026,0.0316,-0.3165,0.1414,-0.4448,0.2796c-0.0606,0.0651,-0.0938,0.1274,-0.0933,0.1752L11.0001,8H6zM5.0389,3.5878c0.1906,0,0.385,0.0075,0.5779,0.0223c1.3506,0.039,2.2673,1.405,2.283,2.2916L7.9015,6h1.196l0.0043,-0.0955c0.0221,-0.493,0.2403,-0.9727,0.6146,-1.3507c0.491,-0.4958,1.2319,-0.8038,1.9336,-0.8038c0.77,0,1.506,0.5631,1.9705,1.1717L14.2,5.1568V1.9575l-0.5806,0.246C13.2738,2.6742,12.5145,3.3,11.65,3.3c-1.0408,0,-1.6231,-0.914,-1.936,-1.405L9.6533,1.8H7.3096c-1.3237,0,-2.5728,0.5877,-3.7123,1.7467l-0.2244,0.2282l0.3144,-0.0599C4.1307,3.6307,4.5854,3.5878,5.0389,3.5878z" fill="#7B7B7B"/>
    <path d="M18.0559,20.0205c-0.0187,-0.0481,-0.4559,-1.1948,-0.4559,-2.7845v-4.55c0,-0.735,-0.1266,-0.8744,-1.1286,-1.243c-0.1381,-0.0508,-1.3497,-0.625,-1.3724,-1.6283c-0.0073,-0.3251,0.1164,-0.628,0.3484,-0.8529c0.2509,-0.2432,0.5968,-0.3666,1.0283,-0.3666c0.058,0,0.1097,0.002,0.1528,0.0037l0.0263,0.001l4.7952,0l0.0216,-0.0009c0.0429,-0.0017,0.0946,-0.0037,0.1525,-0.0037c0.4316,0,0.7777,0.1233,1.0285,0.3666c0.232,0.2249,0.3558,0.5278,0.3484,0.8529c-0.0227,1.0028,-1.2342,1.5774,-1.3723,1.6283C20.6266,11.8116,20.5,11.951,20.5,12.686v4.55c0,1.5827,-0.4268,2.7295,-0.445,2.7776l-0.9407,2.4771L18.0559,20.0205z" fill="#FFFFFF" opacity="0.5"/>
    <path d="M17.4894,20.1657c-0.05,-0.13,-0.4894,-1.319,-0.4894,-2.9797v-4.55c0,-0.227,0,-0.3408,-0.0844,-0.4231c-0.0874,-0.0854,-0.2593,-0.1511,-0.6743,-0.3047c-0.2836,-0.105,-1.6964,-0.7951,-1.7264,-2.1313c-0.0106,-0.4777,0.171,-0.9237,0.5117,-1.2558c0.3576,-0.349,0.8336,-0.5259,1.415,-0.5259c0.069,0,0.1282,0.0023,0.1744,0.0042L16.6329,8l4.7468,-0.0005c0.0539,-0.0021,0.1116,-0.0042,0.1786,-0.0042c0.5813,0,1.0575,0.177,1.4153,0.526c0.3404,0.3319,0.5221,0.7778,0.5115,1.2555c-0.0301,1.3364,-1.4429,2.0264,-1.7258,2.1312c-0.4158,0.154,-0.5876,0.2197,-0.6751,0.3052C21,12.2952,21,12.4091,21,12.636v4.55c0,1.653,-0.4281,2.8386,-0.4769,2.9684l-1.4532,3.8511L17.4894,20.1657zM16.4387,9.6859c-0.0341,0,-0.0622,0.0012,-0.0853,0.003l-0.3878,0.0301l0.2501,0.1979c0.1148,0.1367,0.366,0.4014,0.5844,0.4832c1.0483,0.3926,1.8911,0.7822,1.8999,2.2275v4.5488c-0.0072,0.4043,0.0221,0.8218,0.0873,1.2415c0.0174,0.1123,0.1161,0.1942,0.2297,0.1939h0c0.1144,-0.0002,0.2115,-0.0829,0.2292,-0.1959c0.0565,-0.3614,0.1046,-0.7825,0.1526,-1.2176l0.0012,-0.0109v-4.561c-0.0547,-1.445,0.6828,-1.8339,1.7307,-2.2263c0.218,-0.0816,0.4691,-0.3464,0.5838,-0.4834l0.25,-0.1983l-0.3881,-0.0295c-0.0228,-0.0018,-0.0504,-0.0029,-0.084,-0.0029c-0.0366,0,-0.0713,0.0013,-0.1013,0.0025l-0.0156,0.0006L21.3171,9.7h-4.7403C16.5259,9.6878,16.4806,9.6859,16.4387,9.6859z" fill="#7B7B7B"/>
    <rect x="7.5" y="7" width="2" height="4.6" fill="#7B7B7B"/>
    <path d="M7.8211,23.3C7.2581,23.3,6.8,22.8419,6.8,22.2789V12.0211C6.8,11.4581,7.2581,10.8,7.8211,10.8h1.4577c0.563,0,1.0211,0.6581,1.0211,1.2211v10.2577c0,0.563,-0.4581,1.0211,-1.0211,1.0211H7.8211z" fill="#FFFFFF" opacity="0.5"/>
    <path d="M6,22.2289V11.9712C6,10.993,6.793,10,7.7712,10h1.4576c0.9782,0,1.7712,0.993,1.7712,1.9712v10.2577C11,23.207,10.207,24,9.2289,24H7.7711C6.793,24,6,23.207,6,22.2289zM9,22V12H8v10H9z" fill="#6486C4"/>
  </g>
</svg>
