<?xml version="1.0" encoding="UTF-8"?>
<!DOCTYPE svg PUBLIC "-//W3C//DTD SVG 1.1//EN" "http://www.w3.org/Graphics/SVG/1.1/DTD/svg11.dtd">
<svg version="1.1" id="Layer_1" xmlns="http://www.w3.org/2000/svg" xmlns:xlink="http://www.w3.org/1999/xlink" x="0px" y="0px" width="24px" height="24px" viewBox="0 0 24 24" enable-background="new 0 0 24 24" xml:space="preserve">
  <g id="icon">
    <path d="M4,24v-1.0623c-0.1351,-0.0131,-0.2629,-0.0305,-0.382,-0.052c-0.3645,-0.0657,-0.7073,-0.1646,-1.0189,-0.2943c-0.293,-0.1217,-0.63,-0.3717,-1.0401,-0.6858l-0.0193,-0.0148c-0.0512,-0.0392,-0.0961,-0.0736,-0.1316,-0.0998c-0.2488,-0.1833,-0.4917,-0.3916,-0.7219,-0.6191l-0.1778,-0.1757l1.4054,-1.4228l0.1779,0.1757c0.1623,0.1603,0.3317,0.3058,0.5036,0.4324c0.0481,0.0355,0.1097,0.0825,0.1799,0.1363c0.4391,0.3364,0.5668,0.4152,0.6039,0.4323c0.1752,0.0726,0.3875,0.132,0.621,0.1722c0,0,0,0,0.0001,-0.0001l0,-3.6667c-0.1841,-0.0551,-0.3432,-0.1054,-0.4912,-0.1552c-0.397,-0.1336,-0.7587,-0.31,-1.0753,-0.5241c-0.3598,-0.2431,-0.6565,-0.5505,-0.882,-0.9135c-0.2437,-0.392,-0.3772,-0.8608,-0.397,-1.3932c-0.016,-0.4318,0.056,-0.8561,0.214,-1.2612c0.1613,-0.4136,0.4113,-0.7843,0.7431,-1.1018c0.3169,-0.3035,0.7062,-0.5506,1.157,-0.7344c0.2198,-0.0896,0.465,-0.1616,0.7314,-0.2148V10h2v0.9436c0.1226,0.0239,0.2345,0.0517,0.3386,0.0842c0.3618,0.1132,0.661,0.2405,0.915,0.3893c0.2596,0.1521,0.6697,0.5155,0.891,0.7186c0.0755,0.0693,0.1774,0.1514,0.1785,0.1522l0.1954,0.157L7.2617,14.001l-0.1944,-0.1565c-0.0061,-0.0049,-0.1512,-0.1219,-0.2744,-0.2349c-0.2555,-0.2343,-0.5042,-0.4385,-0.5566,-0.4707c-0.062,-0.0363,-0.142,-0.074,-0.2362,-0.1115v2.7074c0.1245,0.0352,0.248,0.0707,0.3703,0.1067c0.4462,0.1312,0.8575,0.3078,1.2224,0.5248c0.4166,0.248,0.7636,0.5695,1.0315,0.9555c0.2969,0.4278,0.4588,0.955,0.4814,1.5668c0.0197,0.5318,-0.0607,1.0426,-0.2389,1.5183c-0.1813,0.4839,-0.4596,0.9182,-0.8271,1.2906c-0.3602,0.3652,-0.8042,0.662,-1.3197,0.8822c-0.2186,0.0933,-0.4601,0.1715,-0.72,0.2332V24H4zM6,20.6642c0.2461,-0.1128,0.453,-0.2533,0.6159,-0.4184c0.1711,-0.1734,0.2947,-0.3657,0.378,-0.5878c0.0861,-0.23,0.1231,-0.4729,0.1131,-0.7427c-0.0082,-0.2205,-0.0517,-0.3936,-0.1259,-0.5007c-0.1053,-0.1516,-0.2397,-0.275,-0.4111,-0.377c-0.1699,-0.101,-0.3609,-0.1889,-0.57,-0.2623V20.6642zM4,12.9863c-0.206,0.0867,-0.3759,0.1934,-0.5053,0.3174c-0.1216,0.1164,-0.2076,0.2418,-0.2629,0.3838c-0.0588,0.1507,-0.0845,0.3013,-0.0786,0.4605c0.0065,0.1778,0.0401,0.3202,0.0971,0.4119c0.0772,0.1243,0.1764,0.2264,0.3033,0.3122c0.1302,0.088,0.2798,0.1657,0.4464,0.2317V12.9863z" fill="#EEAD56"/>
    <path d="M17.7565,20.2703v-6h-3.8v-0.0171h-1.75v6h-2.15v-8c0,-1.6266,-0.9234,-2.95,-2.55,-2.95h-0.8V7.6723l8.235,-6.5462l8.265,6.5468v12.5974H17.7565z" fill="#FFFFFF" opacity="0.5"/>
    <polygon points="17,21 17,15 14,15 14,15 13,15 13,21 10,21 10,19 11,19 11,13 18.2,13 18.2,13 19,13 19,19 22,19 22,8.2681 14.9816,2.7397 8,8.2706 8,9 6,9 6,7.3092 14.9869,0.1598 24,7.3117 24,21" fill="#7B7B7B" stroke-linejoin="miter"/>
  </g>
</svg>
