<?xml version="1.0" encoding="UTF-8"?>
<!DOCTYPE svg PUBLIC "-//W3C//DTD SVG 1.1//EN" "http://www.w3.org/Graphics/SVG/1.1/DTD/svg11.dtd">
<svg version="1.1" id="Layer_1" xmlns="http://www.w3.org/2000/svg" xmlns:xlink="http://www.w3.org/1999/xlink" x="0px" y="0px" width="24px" height="24px" viewBox="0 0 24 24" enable-background="new 0 0 24 24" xml:space="preserve">
  <g id="icon">
    <path d="M10.9659,24c-0.4404,0,-0.8634,-0.0773,-1.2574,-0.2297c-0.4184,-0.162,-0.7875,-0.4112,-1.0969,-0.7405c-0.3011,-0.3201,-0.538,-0.7198,-0.7039,-1.1878c-0.1575,-0.4442,-0.2373,-0.9605,-0.2373,-1.5345c0,-0.5791,0.0799,-1.098,0.2373,-1.5422c0.1651,-0.4659,0.4007,-0.8656,0.7003,-1.1878c0.3102,-0.3339,0.6805,-0.5856,1.1004,-0.7482c0.3937,-0.1525,0.8169,-0.2298,1.2576,-0.2298c0.4354,0,0.8558,0.0773,1.2495,0.2298c0.4194,0.1624,0.7896,0.4141,1.1002,0.748c0.2981,0.321,0.5343,0.7184,0.7022,1.1814c0.1618,0.4461,0.2438,0.9672,0.2438,1.5488c0,0.5764,-0.0821,1.095,-0.2439,1.5412c-0.1685,0.4649,-0.406,0.8624,-0.7058,1.1813c-0.3098,0.3295,-0.6788,0.5785,-1.0967,0.7403C11.8213,23.9227,11.401,24,10.9659,24zM10.9659,18.5536c-0.1974,0,-0.3746,0.0314,-0.5417,0.0961c-0.1408,0.0546,-0.2614,0.1372,-0.3685,0.2526c-0.1169,0.1258,-0.2146,0.2978,-0.2902,0.5114c-0.0835,0.2355,-0.1258,0.5363,-0.1258,0.894c0,0.3525,0.0423,0.6508,0.1258,0.8863c0.0751,0.2119,0.1714,0.3812,0.2861,0.5031c0.1081,0.1151,0.23,0.1978,0.3727,0.253c0.1671,0.0646,0.3443,0.0961,0.5416,0.0961c0.1919,0,0.3664,-0.0314,0.5335,-0.0961c0.1425,-0.0552,0.2644,-0.1379,0.3725,-0.2529c0.1165,-0.1238,0.215,-0.2954,0.2927,-0.5098c0.0847,-0.2336,0.1277,-0.5295,0.1277,-0.8797c0,-0.3553,-0.0429,-0.6538,-0.1276,-0.8873c-0.0783,-0.2161,-0.1782,-0.3904,-0.2968,-0.5182c-0.1073,-0.1153,-0.2278,-0.1979,-0.3683,-0.2523C11.3325,18.585,11.158,18.5536,10.9659,18.5536zM1.6988,22.8265l9.2248,-12.5585l1.5914,1.1508L3.2902,23.9773L1.6988,22.8265zM3.2357,17.6458c-0.4349,0,-0.8526,-0.0781,-1.2415,-0.2321c-0.412,-0.1634,-0.7748,-0.4141,-1.0784,-0.7451c-0.2936,-0.3195,-0.5243,-0.7178,-0.6855,-1.1838C0.0775,15.0435,0,14.5305,0,13.9601c0,-0.5756,0.0775,-1.0912,0.2303,-1.5325c0.1605,-0.4638,0.39,-0.8622,0.682,-1.1839c0.3042,-0.3354,0.6681,-0.5886,1.0816,-0.7526c0.3891,-0.1541,0.8068,-0.2322,1.2418,-0.2322c0.4297,0,0.8447,0.0781,1.2335,0.2322c0.4132,0.1638,0.7773,0.4171,1.0819,0.7527c0.2902,0.3198,0.5201,0.7158,0.6836,1.177c0.157,0.4435,0.2366,0.9613,0.2366,1.5392c0,0.5727,-0.0796,1.0879,-0.2365,1.5312c-0.1643,0.4635,-0.3956,0.8597,-0.6875,1.1777c-0.304,0.331,-0.6667,0.5815,-1.0781,0.7446C4.0804,17.5676,3.6654,17.6458,3.2357,17.6458zM3.2357,12.2129c-0.1863,0,-0.3535,0.0304,-0.5111,0.0928c-0.1326,0.0525,-0.2466,0.1328,-0.3487,0.2454c-0.1139,0.1254,-0.2091,0.2973,-0.283,0.5112c-0.0819,0.2366,-0.1235,0.5386,-0.1235,0.8977c0,0.354,0.0415,0.6534,0.1234,0.8899c0.0735,0.2121,0.1673,0.3813,0.2789,0.5027c0.1032,0.1125,0.2187,0.1931,0.3531,0.2463c0.1576,0.0624,0.3247,0.0928,0.511,0.0928c0.1808,0,0.3453,-0.0303,0.5029,-0.0928c0.1343,-0.0532,0.2497,-0.1337,0.3529,-0.246c0.1132,-0.1233,0.2092,-0.2948,0.2854,-0.5097c0.083,-0.2344,0.1251,-0.5316,0.1251,-0.8832c0,-0.3567,-0.0421,-0.6566,-0.1252,-0.8912c-0.0767,-0.2164,-0.174,-0.3906,-0.2892,-0.5176c-0.1023,-0.1127,-0.2165,-0.193,-0.3491,-0.2456C3.581,12.2432,3.4165,12.2129,3.2357,12.2129z" fill="#EEAD56"/>
    <path d="M16.9459,21v-5.8721h-2.1892v-2.0719c0,-2.1047,-1.7022,-3.8169,-3.7946,-3.8169H6V7.2906L15.0359,0L24,7.293V21H16.9459z" fill="#7B7B7B"/>
  </g>
</svg>
