<?xml version="1.0" encoding="UTF-8"?>
<!DOCTYPE svg PUBLIC "-//W3C//DTD SVG 1.1//EN" "http://www.w3.org/Graphics/SVG/1.1/DTD/svg11.dtd">
<svg version="1.1" id="Layer_1" xmlns="http://www.w3.org/2000/svg" xmlns:xlink="http://www.w3.org/1999/xlink" x="0px" y="0px" width="24px" height="24px" viewBox="0 0 24 24" enable-background="new 0 0 24 24" xml:space="preserve">
  <g id="icon">
    <path d="M11.385,16.2l0.1838,-0.0629c0.2781,-0.5492,0.4313,-1.1813,0.4313,-1.7801V10.2h6v5.1196c-0.0056,0.3145,-0.0295,0.3367,-0.0712,0.6622l-0.028,0.2182H11.385zM0.9999,6V5h6l-0.0008,1H0.9999z" fill="#FFFFFF" opacity="0.5"/>
    <path d="M9.3633,23.7204c-4.8189,0,-8.3593,-3.3583,-8.3633,-8.3565V6h6l-0.0022,9.2059c-0.0626,0.7165,0.141,1.3721,0.5731,1.8458c0.3991,0.4376,1.269,0.6786,1.9049,0.6786c0.7152,0,1.7132,-0.8347,2.1669,-1.7303h6.3896C17.4899,20.2303,13.592,23.7204,9.3633,23.7204zM12,11v-0.6935C12,6.4142,15.5461,3,19.5886,3H20l0.0001,6l-0.3746,0.0007c-0.736,0.0068,-1.5274,0.4252,-1.5274,1.3277l0.0018,0.0522L18.0999,11H12z" fill="#6486C4"/>
    <path d="M0,4.325v-1.65C0,2.3022,0.3022,2,0.675,2h6.65c0.3728,0,0.675,0.3022,0.675,0.675v1.65c0,0.3728,-0.3022,0.675,-0.675,0.675H0.675C0.3022,5,0,4.6978,0,4.325z" fill="#6486C4"/>
    <path d="M21.675,2h1.65c0.3728,0,0.675,0.3022,0.675,0.675v6.65c0,0.3728,-0.3022,0.675,-0.675,0.675h-1.65c-0.3728,0,-0.675,-0.3022,-0.675,-0.675v-6.65C21,2.3022,21.3022,2,21.675,2z" fill="#6486C4"/>
    <path d="M11,14.325v-1.65c0,-0.3728,0.3022,-0.675,0.675,-0.675h6.65c0.3728,0,0.675,0.3022,0.675,0.675v1.65c0,0.3728,-0.3022,0.675,-0.675,0.675h-6.65C11.3022,15,11,14.6978,11,14.325z" fill="#6486C4"/>
    <rect x="20" y="3" width="1" height="6" fill="#FFFFFF" opacity="0.5"/>
  </g>
</svg>
