<?xml version="1.0" encoding="UTF-8"?>
<!DOCTYPE svg PUBLIC "-//W3C//DTD SVG 1.1//EN" "http://www.w3.org/Graphics/SVG/1.1/DTD/svg11.dtd">
<svg version="1.1" id="Layer_1" xmlns="http://www.w3.org/2000/svg" xmlns:xlink="http://www.w3.org/1999/xlink" x="0px" y="0px" width="24px" height="24px" viewBox="0 0 24 24" enable-background="new 0 0 24 24" xml:space="preserve">
  <g id="icon">
    <path d="M17,21.2453v-6h-0.75v-1.467c0,-0.082,-0.0037,-0.168,-0.0114,-0.2629c-0.0955,-1.1887,-0.8646,-2.268,-2.1658,-3.0391c-1.3395,-0.7938,-3.1877,-1.231,-5.2045,-1.231c-0.4895,0,-0.9858,0.0274,-1.4754,0.0814c-0.0581,0.0063,-0.1159,0.0127,-0.1731,0.0198c-0.1267,0.0158,-0.2523,0.0332,-0.3763,0.0525c-0.2763,0.043,-0.5413,0.0934,-0.7876,0.15l-0.306,0.0703V7.2374L15.0369,-0.212L24.25,7.2398v14.0054H17z" fill="#7B7B7B"/>
    <path d="M5.9351,23.9782c-1.4894,0,-2.9873,-0.292,-4.1096,-0.8012C0.6483,22.643,0,21.9418,0,21.2025v-2.3645l0.0035,-0.0969l0.0399,-0.2014c0.1422,-0.7172,0.7499,-1.3751,1.7109,-1.8525c0.2104,-0.1044,0.442,-0.2022,0.6886,-0.2906c0.1568,0.6054,0.6665,1.4747,2.2042,2.1774c1.2146,0.5551,2.823,0.8734,4.4129,0.8734c0.5951,0,1.1974,-0.0448,1.7899,-0.1332v0c-0.7248,0.5879,-2.1661,1.2888,-4.9165,1.2888c-1.5428,0,-2.9456,-0.2435,-3.9501,-0.6854c-0.5554,-0.2444,-0.7678,-0.3912,-1.0086,-0.6093L0.557,18.93v1.1016l0.0954,0.0751c1.1463,0.9021,3.0712,1.4195,5.2811,1.4195c2.1448,0,4.0991,-0.5252,5.2276,-1.4051l0.0963,-0.0751v-0.8005c0.2098,-0.0389,0.4175,-0.0833,0.6175,-0.1323l0,2.0131c0,0.0672,-0.0054,0.1355,-0.0162,0.2031l-0.0014,0.0101c-0.0815,0.6953,-0.7092,1.3293,-1.8152,1.8337C8.9206,23.6848,7.4235,23.9782,5.9351,23.9782zM9.0601,18.6724c-1.4894,0,-2.9872,-0.2942,-4.1096,-0.8072c-1.1772,-0.538,-1.8255,-1.2445,-1.8255,-1.9893v-2.384l0.0036,-0.0977l0.0396,-0.2019c0.1419,-0.723,0.7497,-1.3862,1.7111,-1.8674c1.091,-0.546,2.5852,-0.8468,4.2072,-0.8468c1.6117,0,3.0963,0.3008,4.1804,0.8469c0.9552,0.4812,1.5589,1.1443,1.7001,1.867l0.0318,0.1627l0.001,0.0446L15,15.7992c0,0.0676,-0.0054,0.1365,-0.0162,0.2047l-0.0014,0.0099c-0.0815,0.7005,-0.7092,1.3394,-1.8152,1.8476C12.0456,18.3768,10.5486,18.6724,9.0601,18.6724zM3.682,14.6306l0.0946,0.075c1.1464,0.9093,3.0715,1.4308,5.2819,1.4308c2.1453,0,4.0998,-0.5294,5.2284,-1.4162l0.0956,-0.0751v-1.0692l-0.4078,0.3316c-0.729,0.593,-2.1737,1.2999,-4.9162,1.2999c-1.5427,0,-2.9455,-0.2453,-3.9501,-0.6906c-0.555,-0.246,-0.7672,-0.3938,-1.0079,-0.6133l-0.4185,-0.3816V14.6306z" fill="#EEAD56"/>
    <path d="M5.9335,21.5262c-2.2804,0,-4.2401,-0.5456,-5.3765,-1.497v-1.123l0.1066,0.1041c0.4646,0.4553,0.605,0.5928,1.3198,0.9074c1.0045,0.442,2.4074,0.6854,3.9501,0.6854c2.7503,0,4.1917,-0.7009,4.9165,-1.2888l0,0c0.1248,-0.0186,0.2581,-0.0411,0.4075,-0.0688v0.798C10.1249,20.9858,8.1844,21.5262,5.9335,21.5262zM9.0585,16.1365c-2.2805,0,-4.2401,-0.5497,-5.3765,-1.5082v-1.1305l0.1066,0.1048c0.4646,0.4587,0.6049,0.5973,1.3198,0.9142c1.0046,0.4454,2.4075,0.6906,3.9501,0.6906c3.3707,0,4.7824,-1.0612,5.3239,-1.6938v1.1292C13.2499,15.592,11.3094,16.1365,9.0585,16.1365z" fill="#FFFFFF" opacity="0.5"/>
  </g>
</svg>
