<?xml version="1.0" encoding="UTF-8"?>
<!DOCTYPE svg PUBLIC "-//W3C//DTD SVG 1.1//EN" "http://www.w3.org/Graphics/SVG/1.1/DTD/svg11.dtd">
<svg version="1.1" id="Layer_1" xmlns="http://www.w3.org/2000/svg" xmlns:xlink="http://www.w3.org/1999/xlink" x="0px" y="0px" width="24px" height="24px" viewBox="0 0 24 24" enable-background="new 0 0 24 24" xml:space="preserve">
  <g id="icon">
    <path d="M3.0667,24c-0.8201,0,-1.5903,-0.3181,-2.1685,-0.8958C0.319,22.5255,0,21.7561,0,20.9377c0,-0.8184,0.319,-1.5878,0.8982,-2.1665l8.7017,-8.6933c0.8719,-0.871,1.2912,-1.9743,1.4579,-2.5253c0,0,0.0867,-0.9606,0.0917,-1.2484c0.0582,-3.3082,2.6885,-6.0709,5.9881,-6.2898C17.2825,0.0049,17.4295,0,17.5744,0c1.0096,0,1.9771,0.2283,2.8756,0.6784c0.0448,0.0225,0.0764,0.0656,0.0844,0.1153c0.0082,0.0504,-0.0085,0.102,-0.0444,0.1379l-3.8937,3.8899c-0.3563,0.356,-0.5476,0.8292,-0.5386,1.3327c0.0089,0.5032,0.2174,0.9697,0.587,1.3135c0.3334,0.3103,0.7722,0.4811,1.2356,0.481c0.5021,0,0.9943,-0.2039,1.3503,-0.5596l3.8531,-3.8494c0.0304,-0.0304,0.0693,-0.0465,0.1124,-0.0465c0.0615,0,0.1143,0.0326,0.1414,0.0872c0.5027,1.0161,0.7264,2.1561,0.6469,3.2967c-0.2293,3.2877,-2.9967,5.9062,-6.3001,5.9613c-0.0368,0.0006,-0.073,0.0009,-0.1096,0.0009c-0.2443,0,-1.1245,0.0946,-1.1245,0.0946c-0.5443,0.1737,-1.6405,0.6051,-2.4999,1.4636l-8.7149,8.7065C4.657,23.6819,3.8869,24,3.0667,24z" fill="#7D7C7B"/>
  </g>
</svg>
