<?xml version="1.0" encoding="UTF-8"?>
<!DOCTYPE svg PUBLIC "-//W3C//DTD SVG 1.1//EN" "http://www.w3.org/Graphics/SVG/1.1/DTD/svg11.dtd">
<svg version="1.1" id="Layer_1" xmlns="http://www.w3.org/2000/svg" xmlns:xlink="http://www.w3.org/1999/xlink" x="0px" y="0px" width="24px" height="24px" viewBox="0 0 24 24" enable-background="new 0 0 24 24" xml:space="preserve">
  <g id="icon">
    <path d="M10.8687,14.9197c0.5863,0.4301,2.0073,1.5885,2.2361,1.8228c0.4306,0.4413,0.6273,0.8284,0.6188,1.2185c-0.0083,0.3802,-0.2074,0.7407,-0.6267,1.1346c-0.9545,0.8967,-1.776,1.6044,-2.5853,2.227c-1.1798,0.9075,-2.6395,1.8519,-4.5208,1.975c-0.4854,0.0318,-0.9434,0.0566,-1.3918,0.0566c-0.7989,0,-1.5677,-0.079,-2.4087,-0.339c-0.3217,-0.0995,-0.5925,-0.2658,-0.8053,-0.4943c-0.2296,-0.2119,-0.3966,-0.4817,-0.4964,-0.802c-0.4076,-1.3075,-0.3722,-2.44,-0.2835,-3.7846c0.1235,-1.8736,1.0719,-3.3272,1.9832,-4.5021c0.625,-0.8057,1.3357,-1.6238,2.2363,-2.5746c0.3955,-0.4176,0.7575,-0.6158,1.1393,-0.6241c0.3882,-0.0104,0.7804,0.1873,1.2235,0.6162c0.2655,0.257,1.4477,1.8076,1.8725,2.385l-1.5417,3.1784L10.8687,14.9197z" fill="#FFFFFF" opacity="0.5"/>
    <path d="M4.5908,23.9c-0.9583,0,-1.7487,-0.1122,-2.5629,-0.3639c-0.4056,-0.1254,-0.751,-0.3359,-1.0267,-0.6255l-0.0075,-0.0075c-0.2908,-0.2745,-0.5021,-0.6185,-0.628,-1.0224c-0.4355,-1.3968,-0.3994,-2.5802,-0.307,-3.9821c0.1332,-2.0196,1.1344,-3.5596,2.0963,-4.7997c0.6364,-0.8202,1.3582,-1.6513,2.2714,-2.6154c0.496,-0.5236,0.9951,-0.7837,1.5258,-0.7951l0.0373,-0.0003c0.702,0,1.2379,0.4399,1.5797,0.7708c0.3272,0.3167,1.6293,2.0415,1.9325,2.4537l0.0294,0.04L8.246,13.89l-0.0294,-0.04c-0.5107,-0.6941,-1.5726,-2.0702,-1.7589,-2.2547c-0.1828,-0.177,-0.3073,-0.2554,-0.3797,-0.2903l-0.0946,-0.0456l-0.0912,0.052c-0.06,0.0342,-0.1619,0.1072,-0.3071,0.2605c-0.8766,0.9253,-1.566,1.7187,-2.1695,2.4967c-0.815,1.0507,-1.6622,2.3396,-1.7673,3.9338c-0.0843,1.2767,-0.1164,2.2684,0.2388,3.4078c0.0453,0.1454,0.1165,0.2632,0.2117,0.3499l0.0561,0.0561c0.081,0.0885,0.1992,0.1594,0.3452,0.2045c0.6548,0.2025,1.301,0.2929,2.0952,0.2929c0.4038,0,0.8225,-0.022,1.3269,-0.055c1.6011,-0.1047,2.8954,-0.9485,3.9502,-1.7601c0.7804,-0.6003,1.5771,-1.2868,2.5072,-2.1604c0.1553,-0.1459,0.2285,-0.2479,0.2626,-0.3078l0.0518,-0.091l-0.0461,-0.094c-0.0348,-0.0709,-0.1139,-0.1939,-0.2927,-0.3772c-0.1634,-0.1665,-1.5155,-1.2769,-2.1066,-1.7104l-0.0401,-0.0294l0.9448,-1.2774l0.0401,0.0294c0.5955,0.4368,2.0258,1.5969,2.3041,1.8819c0.3395,0.3479,0.7892,0.8932,0.7736,1.6103c-0.0115,0.5285,-0.2726,1.0255,-0.7984,1.5195c-0.9682,0.9095,-1.8027,1.6283,-2.6264,2.262c-1.2451,0.9579,-2.7914,1.955,-4.8197,2.0876C5.5638,23.872,5.0695,23.9,4.5908,23.9z" fill="#7B7B7B"/>
    <path d="M7.044,17.3517c-0.1292,0,-0.2324,-0.0374,-0.3065,-0.1112c-0.131,-0.1304,-0.4036,-0.4018,1.5171,-3.4464l0.0129,-0.0206l0.0168,-0.0177c0.0428,-0.0452,4.2966,-4.5344,5.6308,-5.8624c0.214,-0.2132,0.2155,-0.3128,0.108,-0.5957c-0.1637,-0.3853,-0.2682,-0.7079,-0.3788,-1.0494c-0.062,-0.1915,-0.1262,-0.3896,-0.2041,-0.6074c-0.3905,-1.0929,-0.1914,-2.1433,0.5759,-3.0377c0.4502,-0.5247,0.9691,-1.0063,1.427,-1.4312c0.4331,-0.4019,0.9867,-0.6232,1.5587,-0.6232c0.609,0,1.1907,0.2457,1.6379,0.6917c0.6315,0.6298,3.4817,3.4682,4.1142,4.097c0.8999,0.8948,0.9295,2.2633,0.0687,3.1833c-0.4267,0.456,-0.9103,0.9727,-1.4371,1.421c-0.5985,0.5092,-1.262,0.7674,-1.9721,0.7674c-0.0001,0,-0.0001,0,-0.0002,0c-0.3523,0,-0.715,-0.0653,-1.078,-0.1939c-0.2188,-0.0776,-0.4177,-0.1415,-0.61,-0.2032c-0.3429,-0.1101,-0.6668,-0.2142,-1.0625,-0.3807c-0.1184,-0.0444,-0.2056,-0.0658,-0.274,-0.0658c-0.0715,0,-0.1591,0.0214,-0.3153,0.1769c-1.3306,1.3257,-5.6875,5.7062,-5.7314,5.7503l-0.0217,0.0218l-0.0264,0.0159C9.8724,16.0846,7.7345,17.3517,7.044,17.3517z" fill="#FFFFFF" opacity="0.5"/>
    <path d="M6.9294,18.1c-0.3037,0,-0.5419,-0.0963,-0.7497,-0.303c-0.5508,-0.5485,-0.2823,-1.2869,0.5279,-2.7347c0.439,-0.7844,0.894,-1.5046,0.8986,-1.5118l0.0467,-0.0741l0.0604,-0.0637c0.0407,-0.043,4.095,-4.3223,5.543,-5.775l0.0458,-0.046l-0.0244,-0.06c-0.1491,-0.3655,-0.2508,-0.6797,-0.3492,-0.9836c-0.061,-0.1882,-0.1237,-0.3818,-0.1984,-0.5906c-0.4661,-1.3044,-0.2197,-2.6091,0.6937,-3.6737c0.4748,-0.5534,1.0069,-1.047,1.4764,-1.4825C15.4573,0.2846,16.1688,0,16.9035,0c0.7788,0,1.5226,0.3142,2.0944,0.8846c0.6314,0.6297,3.4811,3.4675,4.1134,4.0963c1.1526,1.1459,1.1892,2.9,0.085,4.0802c-0.438,0.4682,-0.9345,0.9989,-1.4902,1.4718c-0.707,0.6014,-1.537,0.9192,-2.4001,0.9192c-0.4266,0,-0.8599,-0.0769,-1.2877,-0.2286c-0.2087,-0.0739,-0.3983,-0.1349,-0.5816,-0.1938c-0.3125,-0.1004,-0.6325,-0.2033,-0.999,-0.3514l-0.0611,-0.0247l-0.0465,0.0464c-1.1959,1.1929,-4.282,4.2939,-5.5533,5.5718l-0.1527,0.1536l-0.095,0.0572c-0.0308,0.0186,-0.7638,0.4597,-1.5548,0.8708C8.0876,17.8144,7.4364,18.0999,6.9294,18.1zM9.0729,14.5832c-0.142,0.2268,-0.2878,0.4668,-0.4337,0.7136l-0.1844,0.3121l0.3183,-0.1766c0.247,-0.137,0.4903,-0.2767,0.7231,-0.4153l0.0107,-0.0064l0.0212,-0.0213c0.7289,-0.7327,4.4262,-4.4489,5.6351,-5.6534c0.3405,-0.3388,0.7183,-0.5106,1.1231,-0.5106c0.2797,0,0.528,0.0814,0.6904,0.1427l0.0288,0.0114c0.3525,0.1483,0.638,0.24,0.9685,0.3461c0.2013,0.0646,0.4094,0.1315,0.6451,0.2151c0.2409,0.0854,0.475,0.1287,0.6959,0.1287c0.4341,0,0.8353,-0.1618,1.2265,-0.4947c0.4787,-0.4074,0.9377,-0.8982,1.3427,-1.3313c0.4377,-0.4678,0.4211,-1.1397,-0.0396,-1.5979c-0.6326,-0.6291,-3.4837,-3.4683,-4.1153,-4.0982c-0.2312,-0.2306,-0.5246,-0.3576,-0.8261,-0.3576c-0.2859,0,-0.5554,0.1099,-0.7793,0.3178c-0.4351,0.4035,-0.9279,0.8606,-1.3371,1.3375c-0.4993,0.5821,-0.6195,1.2081,-0.3674,1.9135c0.0841,0.2352,0.1499,0.4385,0.2136,0.6351c0.108,0.3333,0.2012,0.6211,0.3488,0.9689l0.0118,0.0292c0.171,0.45,0.318,1.1251,-0.3686,1.8089c-1.2484,1.2427,-5.1045,5.308,-5.5401,5.7674l-0.0068,0.0072L9.0729,14.5832z" fill="#6486C4"/>
    <path d="M20.1378,7.7625c-0.2127,0,-0.4128,-0.0825,-0.5632,-0.2323l-3.0617,-3.049c-0.1505,-0.1498,-0.2333,-0.349,-0.2333,-0.5609c0,-0.2119,0.0828,-0.4111,0.2333,-0.5609c0.1505,-0.1498,0.3505,-0.2323,0.5632,-0.2323c0.2127,0,0.4128,0.0825,0.5632,0.2323l3.0617,3.049c0.3106,0.3093,0.3106,0.8126,0,1.1218C20.5506,7.68,20.3505,7.7625,20.1378,7.7625z" fill="#6486C4"/>
  </g>
</svg>
