<?xml version="1.0" encoding="UTF-8"?>
<!DOCTYPE svg PUBLIC "-//W3C//DTD SVG 1.1//EN" "http://www.w3.org/Graphics/SVG/1.1/DTD/svg11.dtd">
<svg version="1.1" id="Layer_1" xmlns="http://www.w3.org/2000/svg" xmlns:xlink="http://www.w3.org/1999/xlink" x="0px" y="0px" width="24px" height="24px" viewBox="0 0 24 24" enable-background="new 0 0 24 24" xml:space="preserve">
  <g id="icon">
    <path d="M15.6173,17.7296c-0.0014,-0.2146,-0.0026,-0.4188,-0.0029,-0.6229c-0.0012,-1.2552,0.25,-2.4678,0.7466,-3.6041c0.3793,-0.8673,0.3639,-1.7602,-0.0435,-2.514c-0.39,-0.7212,-1.0986,-1.2167,-1.9443,-1.3595c-0.1133,-0.0192,-0.2292,-0.0289,-0.3442,-0.0289c-0.9757,0,-1.8836,0.6772,-2.3131,1.7253c-0.1005,0.245,-0.2042,0.4916,-0.3094,0.7375h0c-0.4645,-0.5144,-1.0694,-0.7862,-1.7494,-0.7862c-0.0969,0,-0.1968,0.0062,-0.2967,0.0183c-1.1329,0.1402,-1.9577,1.0095,-2.102,2.2148c-0.0685,0.5728,0.0653,1.0836,0.1896,1.4112l0.0236,0.0624c0.2279,0.601,0.4245,1.1197,0.5013,1.6438l0.0157,0.1057c0.0149,0.0999,0.0291,0.1958,0.0393,0.2824l0,0c-0.4643,-0.0299,-0.8226,-0.0613,-1.0622,-0.1172c-1.4871,-0.347,-2.5856,-1.1073,-3.2652,-2.2598l-0.0518,-0.0879l-0.0986,-0.0265c-0.9385,-0.2525,-1.7585,-0.7212,-2.4373,-1.393C-0.1543,11.877,-0.3616,9.9089,0.6201,8.4514c0.2901,-0.4309,0.6602,-0.8135,1.0997,-1.1372l0.1505,-0.1108l-0.0637,-0.1757c-0.1116,-0.3077,-0.1779,-0.6246,-0.1973,-0.9418c-0.0819,-1.3372,0.4749,-2.4963,1.6101,-3.352c1.0323,-0.7781,2.196,-1.1727,3.459,-1.1727c0.465,0,0.9513,0.0541,1.4455,0.1607l0.1355,0.0292l0.0966,-0.0995c0.2069,-0.2132,0.4529,-0.4577,0.7536,-0.6604c0.9774,-0.6588,2.0561,-0.9929,3.206,-0.9929c0.4432,0,0.9033,0.05,1.3677,0.1487c1.4899,0.3167,2.5989,1.0361,3.2961,2.1384l0.0851,0.1345l0.1579,-0.0201c0.2684,-0.0342,0.5367,-0.0516,0.7974,-0.0516c0.2485,0,0.5005,0.0156,0.7489,0.0464c1.3269,0.1645,2.3982,0.6625,3.2752,1.5225c1.2113,1.1877,1.4993,2.902,0.7336,4.3671l-0.0847,0.162l0.1288,0.1298c0.1527,0.154,0.2729,0.287,0.3784,0.4188c1.1741,1.4654,1.035,3.5816,-0.3237,4.9226c-0.6736,0.6648,-1.4899,1.1305,-2.4263,1.384l-0.0982,0.0266L20.3,15.4157c-0.6577,1.1146,-1.7299,1.8714,-3.1869,2.2493c-0.2902,0.0752,-0.8212,0.1226,-1.4954,0.1333L15.6173,17.7296z" fill="#54B14C"/>
    <path d="M12.8541,24.0003c-0.114,0,-0.2247,-0.0317,-0.3288,-0.0942c-0.1238,-0.074,-0.2483,-0.1461,-0.3728,-0.2182c-0.2192,-0.1268,-0.4412,-0.2552,-0.6604,-0.3949l-0.0425,-0.0271L11.4,23.2575c-0.0413,-0.0071,-0.0913,-0.0107,-0.1484,-0.0107c-0.5901,0,-1.6084,0.3575,-2.1555,0.5496c-0.1272,0.0447,-0.2334,0.0818,-0.3122,0.1074l-0.0986,0.032l-0.1027,-0.0145c-0.4404,-0.0619,-0.7387,-0.3613,-0.7788,-0.7814c-0.0258,-0.2713,0.0999,-0.6071,0.2988,-0.7985c0.5014,-0.482,1.02,-0.9805,1.0945,-1.6536c0.0883,-0.7983,0.0673,-1.9888,0.056,-2.6284c-0.0049,-0.2807,-0.01,-0.5708,-0.0105,-0.8525c-0.0003,-0.2057,-0.0327,-0.4218,-0.0669,-0.6505l-0.0157,-0.1052c-0.0954,-0.6513,-0.3242,-1.2548,-0.5666,-1.8937l-0.0232,-0.0614c-0.0628,-0.1657,-0.1619,-0.4952,-0.1203,-0.8437c0.0788,-0.6581,0.4742,-1.094,1.0577,-1.1663c0.0504,-0.0062,0.1008,-0.0093,0.1495,-0.0093c0.4601,0,0.8365,0.2496,1.0884,0.7216c0.0509,0.0954,0.0998,0.1927,0.1485,0.29c0.1025,0.2049,0.1995,0.3987,0.3108,0.5645c0.039,0.058,0.0778,0.1083,0.1154,0.1497l0.1707,0.1876l0.1851,-0.1733c0.0358,-0.0335,0.0732,-0.0739,0.111,-0.12c0.0597,-0.0727,0.1076,-0.1487,0.1388,-0.2199l0.0586,-0.1336c0.2807,-0.6403,0.571,-1.3023,0.8417,-1.9628c0.2,-0.488,0.6494,-0.9804,1.2027,-0.9804c0.0482,0,0.0966,0.0041,0.1438,0.012c0.4793,0.081,0.8762,0.3533,1.0891,0.7471c0.2279,0.4216,0.2278,0.941,-0.0003,1.4625c-0.5635,1.2892,-0.8485,2.6639,-0.8471,4.086c0.0002,0.2104,0.0016,0.4209,0.0029,0.6314c0.0033,0.513,0.0066,1.0402,-0.0067,1.5622c-0.0172,0.673,0.1565,1.6336,0.5834,2.2626c0.0288,0.0423,0.0605,0.0824,0.0924,0.1225l0.0147,0.0185c0.0932,0.117,0.1987,0.2495,0.274,0.4226c0.1013,0.2331,0.1003,0.5602,-0.0023,0.7953c-0.1331,0.3046,-0.381,0.4794,-0.6801,0.4794c-0.1099,0,-0.2199,-0.0254,-0.3271,-0.0756c-0.158,-0.0739,-0.2928,-0.1114,-0.4008,-0.1114c-0.1842,0,-0.2838,0.1223,-0.4439,0.3384C13.3811,23.7422,13.1897,24.0003,12.8541,24.0003z" fill="#6E6F72"/>
  </g>
</svg>
