<?xml version="1.0" encoding="UTF-8"?>
<!DOCTYPE svg PUBLIC "-//W3C//DTD SVG 1.1//EN" "http://www.w3.org/Graphics/SVG/1.1/DTD/svg11.dtd">
<svg version="1.1" id="Layer_1" xmlns="http://www.w3.org/2000/svg" xmlns:xlink="http://www.w3.org/1999/xlink" x="0px" y="0px" width="16px" height="16px" viewBox="0 0 16 16" enable-background="new 0 0 16 16" xml:space="preserve">
  <g id="icon">
    <rect x="1.5" y="0.5" width="13" height="15" fill="#FFFFFF" stroke="#383838" stroke-width="1" stroke-miterlimit="1"/>
    <line x1="3.5" y1="5.5" x2="12.5" y2="5.5" fill="#FFFFFF" stroke="#228BCB" stroke-width="1" stroke-miterlimit="1"/>
    <line x1="3.5" y1="8.5" x2="7" y2="8.5" fill="#FFFFFF" stroke="#787979" stroke-width="1" stroke-miterlimit="1"/>
    <line x1="3.5" y1="10.5" x2="7" y2="10.5" fill="#FFFFFF" stroke="#787979" stroke-width="1" stroke-miterlimit="1"/>
    <line x1="3.5" y1="12.5" x2="7" y2="12.5" fill="#FFFFFF" stroke="#787979" stroke-width="1" stroke-miterlimit="1"/>
    <rect x="3.5" y="2.5" width="9" height="1" fill="#FFFFFF" stroke="#228BCB" stroke-width="1" stroke-miterlimit="1"/>
    <path d="M8.55,12.3c0.103,0.102,0.403,0.378,0.514,0.46c0.111,0.082,0.231,0.149,0.36,0.203c0.129,0.054,0.271,0.094,0.425,0.122c0.154,0.028,0.328,0.039,0.521,0.033M10.46,13.115c0.267,-0.016,0.505,-0.068,0.713,-0.157c0.208,-0.089,0.382,-0.205,0.524,-0.348c0.141,-0.143,0.246,-0.307,0.315,-0.492c0.069,-0.185,0.1,-0.382,0.092,-0.592c-0.008,-0.22,-0.061,-0.4,-0.159,-0.541c-0.098,-0.141,-0.224,-0.257,-0.377,-0.349c-0.154,-0.092,-0.327,-0.166,-0.52,-0.222c-0.193,-0.057,-0.388,-0.111,-0.586,-0.162M10.468,7.826c0.221,-0.002,0.406,0.021,0.556,0.068c0.149,0.047,0.273,0.099,0.37,0.156c0.097,0.057,0.222,0.109,0.273,0.156c0.052,0.047,0.483,0.344,0.483,0.344M10.374,10.229c-0.176,-0.047,-0.345,-0.098,-0.509,-0.153c-0.164,-0.055,-0.309,-0.126,-0.437,-0.212c-0.127,-0.086,-0.231,-0.193,-0.31,-0.321c-0.079,-0.128,-0.122,-0.285,-0.129,-0.472c-0.006,-0.155,0.02,-0.305,0.077,-0.451c0.057,-0.146,0.144,-0.275,0.263,-0.389c0.119,-0.114,0.266,-0.206,0.441,-0.278c0.176,-0.072,0.379,-0.113,0.611,-0.125M10.5,6.8v7.35" fill="#FFFFFF" stroke="#ED8730" stroke-width="1" stroke-miterlimit="1"/>
  </g>
</svg>
