<?xml version="1.0" encoding="UTF-8"?>
<!DOCTYPE svg PUBLIC "-//W3C//DTD SVG 1.1//EN" "http://www.w3.org/Graphics/SVG/1.1/DTD/svg11.dtd">
<svg version="1.1" id="Layer_1" xmlns="http://www.w3.org/2000/svg" xmlns:xlink="http://www.w3.org/1999/xlink" x="0px" y="0px" width="16px" height="16px" viewBox="0 0 16 16" enable-background="new 0 0 16 16" xml:space="preserve">
  <g id="icon">
    <path d="M3.68,11.005c-0.255,-0.007,-0.453,-0.162,-0.526,-0.229c-0.027,-0.024,-0.096,-0.087,-0.196,-0.178c-0.484,-0.441,-1.619,-1.473,-2.315,-2.094l-0.004,-0.004c-0.129,-0.128,-0.121,-0.306,-0.095,-0.464c0.008,-0.053,0.024,-0.087,0.282,-0.28c0.151,-0.113,0.216,-0.16,0.252,-0.178c0.153,-0.106,0.318,-0.157,0.492,-0.152c0.291,0.008,0.56,0.166,0.821,0.319c0.074,0.043,0.144,0.084,0.214,0.122l0.066,0.035c0.337,0.18,0.685,0.366,1.036,0.517c0.013,0.006,0.031,0.009,0.052,0.01c0.065,0.002,0.155,-0.023,0.237,-0.065c0.622,-0.319,1.27,-0.663,1.98,-1.051c0.113,-0.062,0.217,-0.14,0.328,-0.223c0.044,-0.033,0.089,-0.067,0.134,-0.099c0.006,-0.009,0.013,-0.017,0.018,-0.025c0.004,-0.006,0.011,-0.014,0.015,-0.02c-0.004,-0.007,-0.014,-0.022,-0.039,-0.044c-0.049,-0.044,-0.136,-0.116,-0.257,-0.215c-0.259,-0.213,-0.694,-0.569,-1.229,-1.054c-0.703,-0.636,-1.668,-1.017,-1.668,-1.017l-0.018,-0.013c-0.111,-0.079,-0.279,-0.199,-0.289,-0.394c-0.009,-0.187,0.185,-0.331,0.377,-0.448l0.009,-0.005c0.158,-0.097,0.205,-0.116,0.405,-0.195l0.055,-0.022c0.138,-0.055,0.285,-0.081,0.437,-0.076c0.152,0.004,0.31,0.039,0.468,0.102c0.211,0.085,0.421,0.171,0.631,0.258c0.456,0.188,0.928,0.383,1.397,0.555c0.682,0.251,1.591,0.543,2.004,0.669c0.325,0.099,0.601,0.15,0.843,0.157c0.22,0.006,0.412,-0.026,0.57,-0.095c0.301,-0.132,0.904,-0.421,1.543,-0.728c0.737,-0.354,1.498,-0.719,1.778,-0.833c0.263,-0.106,0.551,-0.158,0.833,-0.151c0.611,0.017,1.053,0.306,1.153,0.754c0.193,0.863,-0.79,1.481,-0.903,1.548c-0.371,0.223,-4.87,2.51,-10.646,5.264l-0.006,0.003C3.842,10.993,3.763,11.008,3.68,11.005z" fill="#92CBEE" stroke="#0964B0" stroke-width="1" stroke-miterlimit="1"/>
    <line x1="0" y1="15.5" x2="16" y2="15.5" fill="#FFFFFF" stroke="#383838" stroke-width="1" stroke-miterlimit="1"/>
  </g>
</svg>
