<?xml version="1.0" encoding="UTF-8"?>
<!DOCTYPE svg PUBLIC "-//W3C//DTD SVG 1.1//EN" "http://www.w3.org/Graphics/SVG/1.1/DTD/svg11.dtd">
<svg version="1.1" id="Layer_1" xmlns="http://www.w3.org/2000/svg" xmlns:xlink="http://www.w3.org/1999/xlink" x="0px" y="0px" width="16px" height="16px" viewBox="0 0 16 16" enable-background="new 0 0 16 16" xml:space="preserve">
  <g id="icon">
    <path d="M9,0.2C6.015,0.2,3.481,2.125,2.566,4.8H8.2v1h1v2.463c0.605,0.215,1.082,0.653,1.309,1.217c0.25,0.619,0.17,1.323,-0.213,1.888c-0.077,0.132,-0.504,0.943,-0.951,2.057c0.14,0.098,0.272,0.211,0.395,0.335C13.147,13.391,15.8,10.506,15.8,7C15.8,3.244,12.756,0.2,9,0.2z" fill="#FFFFFF"/>
    <path d="M9.303,0.008C6.063,-0.149,3.271,1.911,2.312,4.8H8.2v0.7h3.166c0.09,0.522,0.137,1.041,0.137,1.53c0,0.478,-0.042,0.975,-0.122,1.47H9.683c0.373,0.239,0.663,0.577,0.826,0.98c0.003,0.007,0.005,0.013,0.007,0.02h0.65c-0.106,0.396,-0.236,0.78,-0.387,1.141c-0.247,0.592,-0.544,1.096,-0.874,1.497c-0.163,0.345,-0.36,0.784,-0.562,1.286c0.203,0.142,0.388,0.314,0.554,0.51c3.472,-0.47,6.145,-3.493,6.055,-7.112C15.863,3.181,12.943,0.186,9.303,0.008zM5.755,4.5H3.502c0.723,-1.572,2.107,-2.779,3.792,-3.266c-0.465,0.569,-0.804,1.215,-1.038,1.767C6.055,3.474,5.887,3.981,5.755,4.5zM6.792,4.5c0.416,-1.483,1.172,-2.843,2.174,-3.422c1.003,0.58,1.758,1.939,2.174,3.422H6.792zM10.644,1.242C12.318,1.733,13.69,2.937,14.41,4.5h-2.233c-0.131,-0.519,-0.299,-1.026,-0.5,-1.499C11.442,2.451,11.106,1.809,10.644,1.242zM10.704,12.74c0.698,-0.867,1.201,-2.031,1.495,-3.24h2.21C13.699,11.044,12.351,12.238,10.704,12.74zM12.393,8.5c0.073,-0.5,0.11,-0.996,0.11,-1.47c0,-0.496,-0.042,-1.013,-0.123,-1.53h2.386c0.124,0.48,0.19,0.982,0.19,1.5s-0.066,1.02,-0.19,1.5H12.393z" fill="#78797A"/>
    <polygon points="0.517,10.1 2.15,14.867 3.017,15.5 4.5,14.7 5.4,14.8 6.1,15.6 6.9,15 8.933,10.2 6.483,9.55 2.6,9.6" fill="#C8C6C4" stroke-linejoin="miter"/>
    <polygon points="6.6,7.6 6.6,6.7 3,6.7 3,7.6 2.1,7.6 2.1,9.4 7.2,9.4 7.2,7.6" fill="#FFFFFF" stroke-linejoin="miter"/>
    <path d="M7.046,14.879c0.614,-2.165,1.657,-4.199,1.84,-4.461c0.182,-0.262,-0.024,-0.516,-0.369,-0.585c-2.498,-0.436,-4.969,-0.427,-7.653,0.015c-0.344,0.068,-0.502,0.353,-0.32,0.612c0.182,0.26,1.023,2.177,1.635,4.324M2,9.7V7.5h1V6.5h3.5v1h1v2.2" fill="none" stroke="#383838" stroke-width="1" stroke-miterlimit="1"/>
    <path d="M0.6,15.178c0.539,-0.947,1.374,-0.525,1.693,-0.169c0.514,0.575,1.027,0.662,1.562,0.032c0.146,-0.172,0.334,-0.297,0.517,-0.373c0.392,-0.163,0.754,-0.019,1.065,0.346c0.519,0.609,1.034,0.62,1.559,0.024c0.048,-0.054,0.105,-0.091,0.153,-0.145c0.337,-0.373,1.092,-0.416,1.552,0.268" fill="#FFFFFF" stroke="#228BCB" stroke-width="1" stroke-miterlimit="1"/>
  </g>
</svg>
