<?xml version="1.0" encoding="UTF-8"?>
<!DOCTYPE svg PUBLIC "-//W3C//DTD SVG 1.1//EN" "http://www.w3.org/Graphics/SVG/1.1/DTD/svg11.dtd">
<svg version="1.1" id="Layer_1" xmlns="http://www.w3.org/2000/svg" xmlns:xlink="http://www.w3.org/1999/xlink" x="0px" y="0px" width="16px" height="16px" viewBox="0 0 16 16" enable-background="new 0 0 16 16" xml:space="preserve">
  <g id="icon">
    <path d="M14.992,15.5H1.008C0.728,15.5,0.5,15.272,0.5,14.992V1.008C0.5,0.728,0.728,0.5,1.008,0.5h13.983c0.281,0,0.508,0.228,0.508,0.508v13.983C15.5,15.272,15.272,15.5,14.992,15.5z" fill="#FFFFFF" stroke="#383838" stroke-width="1" stroke-miterlimit="1"/>
    <path d="M8.503,3.275c2.732,0.191,4.908,1.875,4.985,4.126l0.001,0.07c0.001,0.077,-0.065,0.295,-0.145,0.295c-0.16,0,-0.143,-0.128,-0.145,-0.286l-0.001,-0.065c-0.014,-0.498,-0.866,-0.92,-1.625,-0.92c-0.759,0,-1.611,0.423,-1.625,0.923l-0.001,0.084c-0.002,0.159,0.014,0.288,-0.149,0.288c-0.164,0,-0.148,-0.129,-0.15,-0.288l-0.001,-0.068c-0.014,-0.494,-0.866,-0.913,-1.625,-0.913c-0.759,0,-1.611,0.419,-1.625,0.916l-0.001,0.054c-0.002,0.172,0.002,0.312,-0.174,0.312c-0.177,0,-0.173,-0.14,-0.175,-0.312l-0.001,-0.074c-0.013,-0.498,-0.866,-0.92,-1.625,-0.92c-0.759,0,-1.611,0.423,-1.625,0.923l-0.001,0.063c-0.002,0.158,0.016,0.286,-0.145,0.286c-0.08,0,-0.146,-0.218,-0.145,-0.295l0.001,-0.067c0.077,-2.254,2.253,-3.937,4.985,-4.129H8.503z" fill="#92CBEE" stroke="#0964B0" stroke-width="1" stroke-miterlimit="1"/>
    <path d="M8,6.575v5.998c0,0.561,-0.423,0.952,-1.029,0.952c-0.614,0,-0.968,-0.425,-0.979,-1.006" fill="none" stroke="#0964B0" stroke-width="1" stroke-miterlimit="1"/>
    <line x1="8" y1="2.075" x2="8" y2="3.175" fill="none" stroke="#0964B0" stroke-width="1" stroke-miterlimit="1"/>
  </g>
</svg>
