<?xml version="1.0" encoding="UTF-8"?>
<!DOCTYPE svg PUBLIC "-//W3C//DTD SVG 1.1//EN" "http://www.w3.org/Graphics/SVG/1.1/DTD/svg11.dtd">
<svg version="1.1" id="Layer_1" xmlns="http://www.w3.org/2000/svg" xmlns:xlink="http://www.w3.org/1999/xlink" x="0px" y="0px" width="16px" height="16px" viewBox="0 0 16 16" enable-background="new 0 0 16 16" xml:space="preserve">
  <g id="icon">
    <path d="M14.992,15.5H1.008C0.728,15.5,0.5,15.272,0.5,14.992V1.008C0.5,0.728,0.728,0.5,1.008,0.5h13.983c0.281,0,0.508,0.228,0.508,0.508v13.983C15.5,15.272,15.272,15.5,14.992,15.5z" fill="#FFFFFF" stroke="#383838" stroke-width="1" stroke-miterlimit="1"/>
    <path d="M14,5h-2.5V4h2.5V5zM14,7h-2.5V6h2.5V7zM14,3h-2.5V2h2.5V3z" fill="#78797A"/>
    <path d="M4,8.5v5.5H2V8.5H4zM7,8.5v5.5h2V8.5H7zM6,8.5H5v5.5h1V8.5zM12,8.5h-2v5.5h2V8.5zM14,8.5h-1v5.5h1V8.5z" fill="#383838"/>
    <path d="M2,2.5h4M4,2.5v4.509" fill="#FFFFFF" stroke="#228BCB" stroke-width="1" stroke-miterlimit="1"/>
    <path d="M10,4.533c0,0.31,-0.037,0.589,-0.11,0.836c-0.073,0.247,-0.176,0.457,-0.308,0.63c-0.132,0.173,-0.29,0.306,-0.474,0.398c-0.184,0.093,-0.387,0.139,-0.61,0.139c-0.221,0,-0.423,-0.046,-0.606,-0.139c-0.183,-0.093,-0.341,-0.225,-0.473,-0.398c-0.132,-0.173,-0.235,-0.383,-0.308,-0.63c-0.073,-0.247,-0.11,-0.525,-0.11,-0.836c0,-0.309,0.037,-0.587,0.11,-0.834c0.073,-0.248,0.176,-0.459,0.308,-0.632c0.132,-0.174,0.29,-0.308,0.473,-0.401c0.183,-0.093,0.385,-0.14,0.606,-0.14c0.223,0,0.426,0.046,0.61,0.139c0.184,0.093,0.342,0.226,0.474,0.4c0.132,0.174,0.235,0.385,0.308,0.632C9.963,3.944,10,4.223,10,4.533z" fill="#FFFFFF" stroke="#228BCB" stroke-width="1" stroke-miterlimit="1"/>
  </g>
</svg>
