<?xml version="1.0" encoding="UTF-8"?>
<!DOCTYPE svg PUBLIC "-//W3C//DTD SVG 1.1//EN" "http://www.w3.org/Graphics/SVG/1.1/DTD/svg11.dtd">
<svg version="1.1" id="Layer_1" xmlns="http://www.w3.org/2000/svg" xmlns:xlink="http://www.w3.org/1999/xlink" x="0px" y="0px" width="16px" height="16px" viewBox="0 0 16 16" enable-background="new 0 0 16 16" xml:space="preserve">
  <g id="icon">
    <ellipse cx="8" cy="12.95" rx="6.5" ry="2.55" fill="#FFFFFF"/>
    <path d="M12.776,10.806c-0.3,-0.115,-0.624,-0.217,-0.965,-0.306c-0.212,0.281,-0.432,0.571,-0.652,0.858c1.808,0.402,2.841,1.108,2.841,1.665c0,0.829,-2.283,1.984,-6,1.984c-3.717,0,-6,-1.156,-6,-1.984c0,-0.557,1.03,-1.261,2.832,-1.663c-0.219,-0.288,-0.44,-0.578,-0.651,-0.858c-0.338,0.089,-0.659,0.191,-0.957,0.304C1.79,11.354,1,12.141,1,13.023s0.79,1.67,2.224,2.217c1.284,0.49,2.98,0.76,4.776,0.76s3.492,-0.27,4.776,-0.76c1.434,-0.547,2.224,-1.335,2.224,-2.217S14.21,11.354,12.776,10.806z" fill="#383838"/>
    <path d="M12.592,5.08c0,0.97,-0.303,1.87,-0.819,2.611C10.942,8.881,7.996,12.7,7.996,12.7S5.069,8.892,4.237,7.716C3.71,6.971,3.4,6.062,3.4,5.08C3.4,2.551,5.458,0.5,7.996,0.5S12.592,2.551,12.592,5.08z" fill="#FFFFFF" stroke="#228BCB" stroke-width="1" stroke-miterlimit="1"/>
    <circle cx="7.996" cy="5.096" r="2.089" fill="#FFFFFF" stroke="#228BCB" stroke-width="1" stroke-miterlimit="1"/>
  </g>
</svg>
