<?xml version="1.0" encoding="UTF-8"?>
<!DOCTYPE svg PUBLIC "-//W3C//DTD SVG 1.1//EN" "http://www.w3.org/Graphics/SVG/1.1/DTD/svg11.dtd">
<svg version="1.1" id="Layer_1" xmlns="http://www.w3.org/2000/svg" xmlns:xlink="http://www.w3.org/1999/xlink" x="0px" y="0px" width="16px" height="16px" viewBox="0 0 16 16" enable-background="new 0 0 16 16" xml:space="preserve">
  <g id="icon">
    <path d="M4,10v4.5H2v-4.5H4zM7,10v4.5h2v-4.5H7zM6,10H5v4.5h1V10zM12,10h-2v4.5h2V10zM14,10h-1v4.5h1V10z" fill="#383838"/>
    <path d="M4,2.5v4.5H2V2.5H4zM7,2.5v4.5h2V2.5H7zM6,2.5H5v4.5h1V2.5zM12,2.5h-2v4.5h2V2.5zM14,2.5h-1v4.5h1V2.5z" fill="#383838"/>
    <line x1="0" y1="8.5" x2="16" y2="8.5" fill="#FFFFFF" stroke="#EE3D3B" stroke-width="1" stroke-miterlimit="1"/>
  </g>
</svg>
