<?xml version="1.0" encoding="UTF-8"?>
<!DOCTYPE svg PUBLIC "-//W3C//DTD SVG 1.1//EN" "http://www.w3.org/Graphics/SVG/1.1/DTD/svg11.dtd">
<svg version="1.1" id="Layer_1" xmlns="http://www.w3.org/2000/svg" xmlns:xlink="http://www.w3.org/1999/xlink" x="0px" y="0px" width="16px" height="16px" viewBox="0 0 16 16" enable-background="new 0 0 16 16" xml:space="preserve">
  <g id="icon">
    <path d="M2.375,9.634c0.053,-0.219,0.134,-0.398,0.234,-0.48c0.299,-0.25,0.833,-0.25,1.055,0.004c0.639,0.732,1.227,1.997,1.784,2.792c0.235,0.336,0.348,1.52,0.381,1.949c0.055,0.723,-0.014,0.817,-0.014,1.602H2.485c0.081,-1.199,-0.771,-1.909,-1.396,-2.723c-0.426,-0.555,-0.655,-1.109,-0.624,-1.829c0.051,-1.172,0.012,-3.535,0.015,-4.71c0.001,-0.508,0.534,-0.822,0.901,-0.822c0.364,0,0.895,0.312,0.9,0.829c0.006,0.669,-0.037,2.528,0.017,3.192c0.03,0.365,0.004,1.3,0.191,1.614c0.271,0.454,0.179,0.316,0.526,0.717c0.046,0.053,0.112,0.087,0.186,0.114" fill="#FFFFFF" stroke="#ED8730" stroke-width="1" stroke-miterlimit="1"/>
    <path d="M12.88,11.882c0.074,-0.027,0.14,-0.061,0.186,-0.114c0.347,-0.401,0.255,-0.262,0.526,-0.717c0.187,-0.314,0.162,-1.249,0.191,-1.614c0.054,-0.664,0.011,-2.523,0.017,-3.192c0.004,-0.516,0.536,-0.829,0.9,-0.829c0.368,0,0.9,0.314,0.901,0.822c0.003,1.175,-0.036,3.537,0.015,4.71c0.031,0.72,-0.198,1.274,-0.624,1.829c-0.625,0.814,-1.477,1.524,-1.396,2.723h-3.329c0,-0.784,-0.069,-0.878,-0.014,-1.602c0.033,-0.429,0.146,-1.613,0.381,-1.949c0.557,-0.795,1.145,-2.06,1.784,-2.792c0.221,-0.254,0.755,-0.255,1.055,-0.004c0.099,0.083,0.181,0.261,0.234,0.48" fill="#FFFFFF" stroke="#ED8730" stroke-width="1" stroke-miterlimit="1"/>
    <polygon points="11.945,6.699 8.027,8.633 4.167,6.699 4.167,1.922 7.998,0.5 11.945,1.922" fill="#FFFFFF" stroke="#ED8730" stroke-width="1" stroke-miterlimit="1" stroke-linejoin="miter"/>
    <path d="M4.115,1.926L8.03,0.529l3.915,1.424v4.738L8.03,8.663L4.115,6.664V1.926zM7.977,8.697V3.563l-3.936,-1.68M7.967,3.563l3.936,-1.625" fill="#FFFFFF" stroke="#ED8730" stroke-width="1" stroke-miterlimit="1"/>
  </g>
</svg>
