<?xml version="1.0" encoding="UTF-8"?>
<!DOCTYPE svg PUBLIC "-//W3C//DTD SVG 1.1//EN" "http://www.w3.org/Graphics/SVG/1.1/DTD/svg11.dtd">
<svg version="1.1" id="Layer_1" xmlns="http://www.w3.org/2000/svg" xmlns:xlink="http://www.w3.org/1999/xlink" x="0px" y="0px" width="16px" height="16px" viewBox="0 0 16 16" enable-background="new 0 0 16 16" xml:space="preserve">
  <g id="icon">
    <rect x="0.5549" y="3.8" width="11.9451" height="11.8" fill="#FFFFFF" opacity="0.5"/>
    <path d="M9.4894,8.1c-0.8782,0,-1.5926,-0.7129,-1.5926,-1.5893s0.7145,-1.5893,1.5926,-1.5893s1.5926,0.7129,1.5926,1.5893S10.3676,8.1,9.4894,8.1zM9.4894,5.9214c-0.3268,0,-0.5926,0.2644,-0.5926,0.5893S9.1626,7.1,9.4894,7.1s0.5926,-0.2644,0.5926,-0.5893S9.8162,5.9214,9.4894,5.9214z" fill="#EEAC55"/>
    <path d="M9.4662,14.3698c-1.5331,-0.6501,-2.6666,-2.025,-3.6667,-3.2379C4.921,10.0666,4.0913,9.0603,3.35,9.0603c-0.0233,0,-0.0466,0.001,-0.0698,0.0031c-0.655,0.0584,-1.4429,0.8997,-2.3419,2.5007l-0.0293,0.0523l-0.9766,-0.5483l0.0294,-0.0523c1.1214,-1.9973,2.1443,-2.9721,3.219,-3.0679c0.059,-0.0053,0.1188,-0.008,0.1775,-0.008c1.2438,0,2.22,1.1635,3.248,2.4101c0.7328,-0.7355,1.4616,-1.0985,2.2265,-1.1091l0.0339,-0.0002c1.4924,0,2.7057,1.361,3.9902,2.802l0.101,0.1133l-0.8359,0.7454l-0.101,-0.1133c-1.1128,-1.2483,-2.1638,-2.4274,-3.154,-2.4274l-0.0186,0.0001c-0.4807,0.0066,-0.9783,0.2855,-1.5199,0.8522c0.7033,0.8138,1.557,1.694,2.575,2.1258l0.0552,0.0234l-0.4373,1.0311L9.4662,14.3698z" fill="#52B250"/>
    <path d="M13,16H0V3h13V16zM1,15h11V4H1V15z" fill="#6D6E71"/>
    <polygon points="3.5549,0.8 3.5549,2 14,2 14,12.6 15.5,12.6 15.5,0.8" fill="#FFFFFF" stroke-linejoin="miter" opacity="0.5"/>
    <polygon points="3,0 3,2 4,2 4,1 15,1 15,12 14,12 14,13 16,13 16,0" fill="#6D6E71" stroke-linejoin="miter"/>
  </g>
</svg>
