<?xml version="1.0" encoding="UTF-8"?>
<!DOCTYPE svg PUBLIC "-//W3C//DTD SVG 1.1//EN" "http://www.w3.org/Graphics/SVG/1.1/DTD/svg11.dtd">
<svg version="1.1" id="Layer_1" xmlns="http://www.w3.org/2000/svg" xmlns:xlink="http://www.w3.org/1999/xlink" x="0px" y="0px" width="16px" height="16px" viewBox="0 0 16 16" enable-background="new 0 0 16 16" xml:space="preserve">
  <g id="icon">
    <path d="M5,13h3v3H5V13zM0,3h3V0H0V3zM0,12h3V9H0V12zM13,5v3h3V5H13zM13,16h3v-3h-3V16zM9,3h3V0H9V3zM5,8h3V5H5V8z" fill="#6D6E71"/>
    <polygon points="14.5,8.5 14,8.5 12.5,8.5 12.5,7 12.5,6.5 12.5,6 8.5,6 8.5,6.5 8.5,7 8.5,8.5 7,8.5 6.5,8.5 6,8.5 6,12.5 6.5,12.5 7,12.5 8.5,12.5 8.5,14 8.5,14.5 8.5,15 12.5,15 12.5,14.5 12.5,14 12.5,12.5 14,12.5 14.5,12.5 15,12.5 15,8.5" fill="#EEAC55" stroke-linejoin="miter"/>
    <polygon points="10.5,3.5 10,3.5 8.5,3.5 8.5,2 8.5,1.5 8.5,1 3.5,1 3.5,1.5 3.5,2 3.5,3.5 2,3.5 1.5,3.5 1,3.5 1,8.5 1.5,8.5 2,8.5 3.5,8.5 3.5,10 3.5,10.5 3.5,11 5.5,11 5.5,10.5 5.5,10 5.5,8.5 4.5,8.5 4.5,4.5 8.5,4.5 8.5,5.5 10,5.5 10.5,5.5 11,5.5 11,3.5" fill="#B7B7B7" stroke-linejoin="miter"/>
  </g>
</svg>
