<?xml version="1.0" encoding="UTF-8"?>
<!DOCTYPE svg PUBLIC "-//W3C//DTD SVG 1.1//EN" "http://www.w3.org/Graphics/SVG/1.1/DTD/svg11.dtd">
<svg version="1.1" id="Layer_1" xmlns="http://www.w3.org/2000/svg" xmlns:xlink="http://www.w3.org/1999/xlink" x="0px" y="0px" width="16px" height="16px" viewBox="0 0 16 16" enable-background="new 0 0 16 16" xml:space="preserve">
  <g id="icon">
    <path d="M0,0h3v3H0V0zM0,16h3v-3H0V16zM13,16h3v-3h-3V16zM13,0v3h3V0H13z" fill="#6D6E71"/>
    <polygon points="6,6 6,15 12,15 12,14.5 12,14 12,12 14,12 14.5,12 15,12 15,6" fill="#EEAC55" stroke-linejoin="miter"/>
    <polygon points="4,1 4,1.5 4,2 4,4 2,4 1.5,4 1,4 1,10 5,10 5,9.5 5,9 5,5 9,5 9.5,5 10,5 10,1" fill="#B7B7B7" stroke-linejoin="miter"/>
  </g>
</svg>
