<?xml version="1.0" encoding="UTF-8"?>
<!DOCTYPE svg PUBLIC "-//W3C//DTD SVG 1.1//EN" "http://www.w3.org/Graphics/SVG/1.1/DTD/svg11.dtd">
<svg version="1.1" id="Layer_1" xmlns="http://www.w3.org/2000/svg" xmlns:xlink="http://www.w3.org/1999/xlink" x="0px" y="0px" width="16px" height="16px" viewBox="0 0 16 16" enable-background="new 0 0 16 16" xml:space="preserve">
  <g id="icon">
    <path d="M2.2727,8c0,-3.1631,2.5642,-5.7273,5.7273,-5.7273S13.7273,4.8369,13.7273,8S11.1631,13.7273,8,13.7273S2.2727,11.1631,2.2727,8zM4.5062,12.538M11.5223,12.5162" fill="#FFFFFF" opacity="0.3"/>
    <path d="M8,15c-3.8598,0,-7,-3.1402,-7,-7s3.1402,-7,7,-7s7,3.1402,7,7S11.8598,15,8,15zM8,2.34c-3.1209,0,-5.66,2.5391,-5.66,5.66s2.5391,5.66,5.66,5.66s5.66,-2.5391,5.66,-5.66S11.1209,2.34,8,2.34z" fill="#7B7B7B" opacity="0.3"/>
  </g>
</svg>
