<?xml version="1.0" encoding="UTF-8"?>
<!DOCTYPE svg PUBLIC "-//W3C//DTD SVG 1.1//EN" "http://www.w3.org/Graphics/SVG/1.1/DTD/svg11.dtd">
<svg version="1.1" id="Layer_1" xmlns="http://www.w3.org/2000/svg" xmlns:xlink="http://www.w3.org/1999/xlink" x="0px" y="0px" width="16px" height="16px" viewBox="0 0 16 16" enable-background="new 0 0 16 16" xml:space="preserve">
  <g id="icon">
    <path d="M4.5605,1.3522l0.5843,1.724l1.2047,-0.3785L5.971,3.9025l1.724,0.5843L5.971,5.071l0.3785,1.2047l-1.2047,-0.3785l-0.5843,1.724l-0.5843,-1.724l-1.2047,0.3785L3.15,5.071l-1.724,-0.5843l1.724,-0.5843l-0.3785,-1.2047l1.2047,0.3785L4.5605,1.3522z" fill="#FFFFFF" opacity="0.5"/>
    <path d="M4.5605,9L3.696,6.4492l-1.6008,0.5029l0.503,-1.6009L0.0473,4.4867l2.5508,-0.8645l-0.5029,-1.6008l1.6008,0.5029l0.8645,-2.4771l0.8645,2.4771l1.6009,-0.503l-0.5029,1.6008L9,4.4867l-2.4771,0.8645l0.503,1.6009l-1.6009,-0.503L4.5605,9zM4.2565,5.3453l0.304,0.8971l0.3041,-0.8971l0.8087,0.254l-0.254,-0.8087l0.8971,-0.3041l-0.8971,-0.304l0.2541,-0.8087l-0.8087,0.254l-0.3041,-0.8971l-0.304,0.8971l-0.8087,-0.2541l0.2541,0.8087l-0.8971,0.304l0.8971,0.3041l-0.254,0.8087L4.2565,5.3453z" fill="#EEAC55"/>
    <path d="M15.6502,3.7343l-2.3846,-2.3846c-0.4663,-0.4663,-1.2224,-0.4663,-1.6888,0L9.2915,3.6352l1.4113,0.4925c0.3399,0.1186,0.3399,0.5994,0,0.718l-0.7116,0.2483l2.0967,2.0952l-0.6253,0.6249l-2.282,-2.2802l0.2414,-0.2412l-1.779,0.6208l0.3613,1.1499c0.0237,-0.0415,0.0511,-0.0813,0.0865,-0.1167c0.2142,-0.214,0.5614,-0.214,0.7756,0.0001l0.1169,0.1168c0.2141,0.214,0.2141,0.561,-0.0001,0.775c-0.107,0.107,-0.2474,0.1604,-0.3877,0.1604c-0.1404,0,-0.2807,-0.0535,-0.3879,-0.1606l-0.015,-0.015c-0.0432,0.2073,-0.259,0.357,-0.4862,0.2856l-0.0257,-0.0081c0.0054,0.005,0.0116,0.0085,0.0168,0.0137l0.1169,0.1168c0.2142,0.214,0.2142,0.561,0,0.775c-0.1071,0.107,-0.2474,0.1605,-0.3878,0.1605c-0.1404,0,-0.2807,-0.0535,-0.3878,-0.1605l-0.1169,-0.1168c-0.2142,-0.214,-0.2142,-0.561,0,-0.775c0.0882,-0.0882,0.1992,-0.1379,0.314,-0.1534l-1.2409,-0.3898l-0.587,1.7322l0.132,-0.1319l2.282,2.2802l-0.6254,0.6249l-2.0382,-2.0366l-0.2376,0.7012c-0.1167,0.3443,-0.6036,0.3443,-0.7202,0l-0.5101,-1.5051l-2.3406,2.3406c-0.4663,0.4663,-0.4663,1.2224,0,1.6888l2.3846,2.3846c0.4663,0.4663,1.2224,0.4663,1.6888,0L15.6502,5.4231C16.1166,4.9567,16.1166,4.2007,15.6502,3.7343zM8.983,10.1746c-0.107,0.107,-0.2474,0.1604,-0.3877,0.1604c-0.1404,0,-0.2807,-0.0535,-0.3879,-0.1606l-0.1169,-0.1168c-0.2141,-0.214,-0.2141,-0.561,0.0001,-0.775c0.2142,-0.214,0.5614,-0.2139,0.7756,0.0001l0.1169,0.1168C9.1973,9.6137,9.1973,9.9606,8.983,10.1746zM10.152,9.0066c-0.1071,0.107,-0.2474,0.1605,-0.3878,0.1605s-0.2807,-0.0535,-0.3878,-0.1605l-0.1169,-0.1168c-0.2142,-0.214,-0.2142,-0.561,0,-0.775c0.2142,-0.214,0.5614,-0.214,0.7756,0l0.1169,0.1168C10.3662,8.4456,10.3662,8.7926,10.152,9.0066z" fill="#EEAC55"/>
    <path d="M8.1924,7.8236c0.0126,-0.0602,0.0113,-0.1251,-0.0095,-0.1911l-0.1788,-0.569c0.0237,-0.0415,0.0511,-0.0813,0.0865,-0.1167c0.2142,-0.214,0.5614,-0.214,0.7756,0.0001l0.1169,0.1168c0.2141,0.214,0.2141,0.561,-0.0001,0.775c-0.107,0.107,-0.2474,0.1604,-0.3877,0.1604c-0.1404,0,-0.2807,-0.0535,-0.3879,-0.1605L8.1924,7.8236zM5.4078,9.3037l-0.2496,0.7366l2.0382,2.0366l0.6254,-0.6249l-2.282,-2.2802L5.4078,9.3037zM7.0386,9.0066c0.1071,0.107,0.2474,0.1605,0.3878,0.1605c0.1404,0,0.2807,-0.0535,0.3878,-0.1605c0.2142,-0.214,0.2142,-0.561,0,-0.775l-0.1169,-0.1168c-0.0052,-0.0052,-0.0114,-0.0087,-0.0168,-0.0137l-0.4448,-0.1397c-0.1148,0.0155,-0.2258,0.0653,-0.314,0.1534c-0.2142,0.214,-0.2142,0.561,0,0.775L7.0386,9.0066zM9.9912,5.094l-0.5692,0.1986l-0.2414,0.2412l2.282,2.2802l0.6253,-0.6249L9.9912,5.094zM8.8663,9.2828c-0.2142,-0.214,-0.5614,-0.2141,-0.7756,-0.0001c-0.2142,0.214,-0.2143,0.561,-0.0001,0.775l0.1169,0.1168c0.1071,0.1071,0.2475,0.1606,0.3879,0.1606c0.1403,0,0.2807,-0.0535,0.3877,-0.1604c0.2142,-0.214,0.2143,-0.561,0.0001,-0.775L8.8663,9.2828zM10.0351,8.1148c-0.2142,-0.214,-0.5614,-0.214,-0.7756,0c-0.2142,0.214,-0.2142,0.561,0,0.775l0.1169,0.1168c0.1071,0.107,0.2474,0.1605,0.3878,0.1605s0.2807,-0.0535,0.3878,-0.1605c0.2142,-0.214,0.2142,-0.561,0,-0.775L10.0351,8.1148z" fill="#6D6E71"/>
  </g>
</svg>
