<?xml version="1.0" encoding="UTF-8"?>
<!DOCTYPE svg PUBLIC "-//W3C//DTD SVG 1.1//EN" "http://www.w3.org/Graphics/SVG/1.1/DTD/svg11.dtd">
<svg version="1.1" id="Layer_1" xmlns="http://www.w3.org/2000/svg" xmlns:xlink="http://www.w3.org/1999/xlink" x="0px" y="0px" width="16px" height="16px" viewBox="0 0 16 16" enable-background="new 0 0 16 16" xml:space="preserve">
  <g id="icon">
    <path d="M15.2908,4.7155L4.766,15.2403L0.8473,11.3216L11.3721,0.7968L15.2908,4.7155z" fill="#FFFFFF" opacity="0.5"/>
    <path d="M4.6673,16L0,11.3327L11.3327,0L16,4.6673L4.6673,16zM1.427,11.3327l3.2403,3.2404l9.9057,-9.9057l-3.2403,-3.2404L1.427,11.3327z" fill="#6485C3"/>
    <path d="M4.3929,12.9368l-1.5706,-1.5706l0.7071,-0.7071L5.1,12.2296L4.3929,12.9368zM5.0298,10.9129l-0.8521,-0.8521l0.7071,-0.7071l0.8521,0.8521L5.0298,10.9129zM6.3744,9.6021l-0.8521,-0.8521l0.7071,-0.7071l0.8521,0.8521L6.3744,9.6021zM8.3429,8.9868L6.7723,7.4162l0.7071,-0.7071L9.05,8.2796L8.3429,8.9868zM8.9798,6.9629l-0.8521,-0.8521l0.7071,-0.7071l0.8521,0.8521L8.9798,6.9629zM10.2244,5.7021l-0.8521,-0.8521l0.7071,-0.7071l0.8521,0.8521L10.2244,5.7021zM12.1929,5.1868l-1.5706,-1.5706l0.7071,-0.7071L12.9,4.4796L12.1929,5.1868z" fill="#6485C3"/>
  </g>
</svg>
