<?xml version="1.0" encoding="UTF-8"?>
<!DOCTYPE svg PUBLIC "-//W3C//DTD SVG 1.1//EN" "http://www.w3.org/Graphics/SVG/1.1/DTD/svg11.dtd">
<svg version="1.1" id="Layer_1" xmlns="http://www.w3.org/2000/svg" xmlns:xlink="http://www.w3.org/1999/xlink" x="0px" y="0px" width="24px" height="24px" viewBox="0 0 24 24" enable-background="new 0 0 24 24" xml:space="preserve">
  <g id="icon">
    <rect x="8.25" y="15.25" width="13.5" height="8" fill="#FFFFFF" opacity="0.5"/>
    <path d="M23,3H7V1h16V3zM23,8H7v2h16V8zM23,14H7v10h16V14zM9,16h12v6H9V16z" fill="#7B7B7B"/>
    <path d="M3.0423,18.9739c-1.3035,0,-1.8138,-0.8665,-1.8547,-1.6086l1.2368,-0.0681c0.0125,0.2275,0.096,0.438,0.6178,0.438c0.4397,0,0.619,-0.1372,0.619,-0.4738c0,-0.1839,-0.2633,-0.35,-0.6599,-0.4194h-0.0956v-1.2387h0.0957c0.3111,-0.0535,0.6597,-0.1698,0.6597,-0.4219c0,-0.3365,-0.1793,-0.4737,-0.619,-0.4737c-0.5218,0,-0.6053,0.2105,-0.6178,0.438l-1.2368,-0.0681c0.0408,-0.7421,0.5511,-1.6085,1.8547,-1.6085c1.2833,0,1.8577,0.8601,1.8577,1.7124c0,0.4141,-0.1502,0.7715,-0.4274,1.0504c0.274,0.2801,0.4274,0.6336,0.4274,1.0297C4.9,18.1138,4.3256,18.9739,3.0423,18.9739zM4.6095,11.945H1.1179l0.0218,-1.0529c0.0083,-0.4002,0.1948,-0.7835,0.5117,-1.0517l1.7696,-1.4977c0.0408,-0.0564,0.0542,-0.0948,0.0542,-0.1459c0,-0.1715,-0.2242,-0.3625,-0.5459,-0.3625c-0.3114,0,-0.5376,0.1852,-0.5457,0.3514L1.1463,8.125c0.0421,-0.8576,0.8252,-1.5295,1.7829,-1.5295c0.9841,0,1.7846,0.7183,1.7846,1.6012c0,0.5218,-0.2734,0.8577,-0.3633,0.9681l-0.0363,0.0446l-1.7686,1.497h2.0639V11.945zM4.3902,5.0062h-2.631V3.7675h0.6962V1.2757l-0.6932,0.0033L1.7563,0.0403L3.6941,0.031v3.7365h0.6961V5.0062z" fill="#6485C3"/>
    <polygon points="18.6053,18.0178 17.5447,16.9572 15.075,19.4268 12.5678,16.9197 11.5072,17.9803 15.075,21.5482" fill="#6485C3" stroke-linejoin="miter"/>
  </g>
</svg>
