<?xml version="1.0" encoding="UTF-8"?>
<!DOCTYPE svg PUBLIC "-//W3C//DTD SVG 1.1//EN" "http://www.w3.org/Graphics/SVG/1.1/DTD/svg11.dtd">
<svg version="1.1" id="Layer_1" xmlns="http://www.w3.org/2000/svg" xmlns:xlink="http://www.w3.org/1999/xlink" x="0px" y="0px" width="24px" height="24px" viewBox="0 0 24 24" enable-background="new 0 0 24 24" xml:space="preserve">
  <g id="icon">
    <path d="M0,1v5h24V1H0z" fill="#6485C3"/>
    <g>
      <rect y="7" width="16" height="9" fill="#7B7B7B"/>
      <path d="M0,24h16v-7H0V24zM11.7891,19.0523l0.8132,-0.8132l2.3359,2.3359l-2.3359,2.3359l-0.8132,-0.8133l1.5227,-1.5227L11.7891,19.0523zM3.3977,18.1391l0.8133,0.8132L2.6882,20.475l1.5228,1.5227l-0.8133,0.8133L1.0617,20.475L3.3977,18.1391z" fill="#7B7B7B"/>
      <path d="M17,7v17h7V7H17zM20.45,22.9632l-2.3359,-2.3359l0.8133,-0.8132l1.5227,1.5227l1.5227,-1.5227l0.8132,0.8132L20.45,22.9632zM22.0727,11.2359L20.55,9.7132l-1.5227,1.5228l-0.8133,-0.8133L20.55,8.0867l2.3359,2.3359L22.0727,11.2359z" fill="#7B7B7B"/>
    </g>
    <path d="M20.45,22.9632l2.3359,-2.3359l-0.8132,-0.8132L20.45,21.3368l-1.5227,-1.5227l-0.8133,0.8132L20.45,22.9632zM19.0273,11.2359L20.55,9.7132l1.5227,1.5228l0.8132,-0.8133L20.55,8.0867l-2.3359,2.3359L19.0273,11.2359z" fill="#FFFFFF" opacity="0.5"/>
    <path d="M14.9382,20.575l-2.3359,-2.3359l-0.8132,0.8132l1.5227,1.5227l-1.5227,1.5227l0.8132,0.8133L14.9382,20.575zM4.2109,21.9976L2.6882,20.475l1.5228,-1.5227l-0.8133,-0.8132L1.0617,20.475l2.3359,2.3359L4.2109,21.9976z" fill="#FFFFFF" opacity="0.5"/>
    <polygon points="0,6 0,7 16,7 16,24 17,24 17,7 24,7 24,6" fill="#FFFFFF" stroke-linejoin="miter" opacity="0.5"/>
    <path d="M16,17H0v-1h16V17z" fill="#FFFFFF" opacity="0.5"/>
  </g>
</svg>
