<?xml version="1.0" encoding="UTF-8"?>
<!DOCTYPE svg PUBLIC "-//W3C//DTD SVG 1.1//EN" "http://www.w3.org/Graphics/SVG/1.1/DTD/svg11.dtd">
<svg version="1.1" id="Layer_1" xmlns="http://www.w3.org/2000/svg" xmlns:xlink="http://www.w3.org/1999/xlink" x="0px" y="0px" width="24px" height="24px" viewBox="0 0 24 24" enable-background="new 0 0 24 24" xml:space="preserve">
  <g id="icon">
    <path d="M3,6v3.0567c0.3855,-0.2339,0.7907,-0.4385,1.2122,-0.611c0.0106,-0.0043,0.0213,-0.0084,0.0319,-0.0127c0.0713,-0.0289,0.143,-0.0569,0.2152,-0.0839c0.0152,-0.0057,0.0306,-0.0112,0.0458,-0.0168c0.0692,-0.0254,0.1388,-0.0501,0.2088,-0.0738c0.0149,-0.0051,0.0299,-0.0101,0.0448,-0.015c0.0727,-0.0242,0.1458,-0.0474,0.2193,-0.0698C5.7767,7.9312,6.6232,7.8,7.5,7.8c4.7972,0,8.7,3.9028,8.7,8.7c0,0.8769,-0.1312,1.7235,-0.3737,2.5222c-0.0222,0.0733,-0.0454,0.1462,-0.0695,0.2186c-0.005,0.0151,-0.0101,0.0303,-0.0152,0.0454c-0.0237,0.0698,-0.0482,0.1392,-0.0736,0.2082c-0.0057,0.0155,-0.0113,0.031,-0.017,0.0464c-0.0268,0.0717,-0.0547,0.143,-0.0833,0.2138c-0.0045,0.0111,-0.0088,0.0223,-0.0133,0.0334c-0.1725,0.4214,-0.377,0.8265,-0.6109,1.2119H24V6H3z" fill="#7B7B7B"/>
    <rect x="3" width="21" height="5" fill="#6485C3"/>
    <path d="M7.5,24c-4.1355,0,-7.5,-3.3645,-7.5,-7.5c0,-4.1355,3.3645,-7.5,7.5,-7.5s7.5,3.3645,7.5,7.5C15,20.6355,11.6355,24,7.5,24z" fill="#CB525D"/>
    <rect x="3" y="5" width="21" height="1" fill="#FFFFFF" opacity="0.5"/>
  </g>
</svg>
