<?xml version="1.0" encoding="UTF-8"?>
<!DOCTYPE svg PUBLIC "-//W3C//DTD SVG 1.1//EN" "http://www.w3.org/Graphics/SVG/1.1/DTD/svg11.dtd">
<svg version="1.1" id="Layer_1" xmlns="http://www.w3.org/2000/svg" xmlns:xlink="http://www.w3.org/1999/xlink" x="0px" y="0px" width="24px" height="24px" viewBox="0 0 24 24" enable-background="new 0 0 24 24" xml:space="preserve">
  <g id="icon">
    <polygon points="17,7.025 17,2 7,2 7,9 7,11 7,21 15,21 22,21 22,7" fill="#FFFFFF" stroke-linejoin="miter" opacity="0.4"/>
    <polygon points="17.525,0 5,0 5,13 7,13 7,2 17,2 17,7.025 22,7 22,21 10.5,21 10.5,23 24,23 24,6.5" fill="#7B7B7B" stroke-linejoin="miter"/>
    <path d="M5.2291,24.0185c-0.5906,0,-1.1466,-0.1068,-1.6527,-0.3174c-0.5134,-0.2136,-0.9646,-0.5258,-1.3408,-0.928c-0.3723,-0.3979,-0.6642,-0.8818,-0.8678,-1.4383c-0.1991,-0.5439,-0.3002,-1.1577,-0.3002,-1.8243c0,-0.6459,0.1011,-1.2486,0.3007,-1.7913c0.2036,-0.5544,0.4982,-1.0398,0.8755,-1.4427c0.3812,-0.407,0.8426,-0.7252,1.3714,-0.9458c0.5221,-0.2177,1.1005,-0.3281,1.7189,-0.3281c0.2828,0,0.5552,0.0222,0.8096,0.0661c0.2605,0.0448,0.5124,0.1136,0.7485,0.2045c0.231,0.089,0.4562,0.2,0.6691,0.3297c0.2058,0.1257,0.4088,0.2716,0.604,0.4342l-0.9598,1.1527c-0.1392,-0.1159,-0.2823,-0.2189,-0.4253,-0.3062c-0.1359,-0.0828,-0.2798,-0.1537,-0.4273,-0.2105c-0.1441,-0.0555,-0.3001,-0.0979,-0.4637,-0.126c-0.1707,-0.0294,-0.3575,-0.0443,-0.5552,-0.0443c-0.4192,0,-0.8033,0.0715,-1.1416,0.2125c-0.3362,0.1403,-0.6155,0.3322,-0.8539,0.5867c-0.2392,0.2555,-0.4284,0.5699,-0.5624,0.9347c-0.1384,0.3767,-0.2086,0.8052,-0.2086,1.274c0,0.4901,0.0702,0.9303,0.2088,1.3087c0.1341,0.3666,0.3207,0.6791,0.5546,0.9292c0.233,0.249,0.5017,0.4348,0.8216,0.5678c0.3226,0.1343,0.6847,0.2023,1.0765,0.2023c0.2532,0,0.4842,-0.0207,0.6866,-0.0614c0.2007,-0.0404,0.3849,-0.0959,0.5474,-0.1649c0.1603,-0.0681,0.3091,-0.1501,0.4419,-0.2435c0.1428,-0.1004,0.2785,-0.2131,0.4031,-0.3349l1.0484,1.0729c-0.182,0.1778,-0.3801,0.3424,-0.5888,0.4892c-0.2191,0.154,-0.4607,0.2875,-0.718,0.3968c-0.256,0.1088,-0.538,0.1945,-0.8382,0.255C5.912,23.9879,5.5814,24.0185,5.2291,24.0185z" fill="#6485C3"/>
  </g>
</svg>
