<?xml version="1.0" encoding="UTF-8"?>
<!DOCTYPE svg PUBLIC "-//W3C//DTD SVG 1.1//EN" "http://www.w3.org/Graphics/SVG/1.1/DTD/svg11.dtd">
<svg version="1.1" id="Layer_1" xmlns="http://www.w3.org/2000/svg" xmlns:xlink="http://www.w3.org/1999/xlink" x="0px" y="0px" width="24px" height="24px" viewBox="0 0 24 24" enable-background="new 0 0 24 24" xml:space="preserve">
  <g id="icon">
    <polygon points="17.525,0 5,0 5,8 7,8 7,2 17,2 17,7.025 22,7 22,21 17,21 17,23 24,23 24,6.5" fill="#7B7B7B" stroke-linejoin="miter"/>
    <polygon points="17,7.025 17,2 7,2 7,9 7,11 7,13 2,13 2,22 14,22 14,21 15,21 22,21 22,7" fill="#FFFFFF" stroke-linejoin="miter" opacity="0.5"/>
    <path d="M6,22H5v-8h1V22z" fill="#7B7B7B"/>
    <path d="M0,10v4h15v-4H0zM9,12.6H8v-1.2h1V12.6zM11,12.6h-1v-1.2h1V12.6zM13,12.6h-1v-1.2h1V12.6z" fill="#6485C3"/>
    <path d="M13,12.6h-1v-1.2h1V12.6zM11,12.6h-1v-1.2h1V12.6zM9,12.6H8v-1.2h1V12.6z" fill="#FFFFFF" opacity="0.5"/>
    <polygon points="13,14 13,22 2,22 2,14 0,14 0,24 15,24 15,14" fill="#7B7B7B" stroke-linejoin="miter"/>
  </g>
</svg>
