<?xml version="1.0" encoding="UTF-8"?>
<!DOCTYPE svg PUBLIC "-//W3C//DTD SVG 1.1//EN" "http://www.w3.org/Graphics/SVG/1.1/DTD/svg11.dtd">
<svg version="1.1" id="Layer_1" xmlns="http://www.w3.org/2000/svg" xmlns:xlink="http://www.w3.org/1999/xlink" x="0px" y="0px" width="24px" height="24px" viewBox="0 0 24 24" enable-background="new 0 0 24 24" xml:space="preserve">
  <g id="icon">
    <polygon points="17,7.025 17,2 7,2 7,9 7,11 7,21 15,21 22,21 22,7" fill="#FFFFFF" stroke-linejoin="miter" opacity="0.4"/>
    <polygon points="17.525,0 5,0 5,13 7,13 7,2 17,2 17,7.025 22,7 22,21 11,21 11,23 24,23 24,6.5" fill="#7B7B7B" stroke-linejoin="miter"/>
    <polygon points="7,15 7,18.8 2.5,18.8 2.5,15 1,15 1,18.75 1,19.5 1,24 2.5,24 2.5,20.2 7,20.2 7,24 8.5,24 8.5,19.5 8.5,18.75 8.5,15" fill="#6485C3" stroke-linejoin="miter"/>
  </g>
</svg>
