<?xml version="1.0" encoding="UTF-8"?>
<!DOCTYPE svg PUBLIC "-//W3C//DTD SVG 1.1//EN" "http://www.w3.org/Graphics/SVG/1.1/DTD/svg11.dtd">
<svg version="1.1" id="Layer_1" xmlns="http://www.w3.org/2000/svg" xmlns:xlink="http://www.w3.org/1999/xlink" x="0px" y="0px" width="24px" height="24px" viewBox="0 0 24 24" enable-background="new 0 0 24 24" xml:space="preserve">
  <g id="icon">
    <path d="M22,21.9H2V7h20V21.9z" fill="#FFFFFF" opacity="0.4"/>
    <path d="M24,7H0V2h24V7z" fill="#9070B1"/>
    <path d="M22,20.2731V7h2v14.9082L22,20.2731zM16.3443,22H2V7H0v17h18.7907L16.3443,22z" fill="#7B7B7B"/>
    <path d="M12.726,15.9914l1.1147,-0.4515l8.2477,6.7035c0.4106,0.3345,0.472,0.9386,0.1372,1.3489l0,0c-0.3344,0.4098,-0.9376,0.4712,-1.3477,0.1371l-8.3612,-6.7961L12.726,15.9914z" fill="#6D6E71"/>
    <path d="M9.0505,10.6783l2.8381,-2.5082l0.2666,3.7702l3.2651,1.9142l-3.5127,1.4228l-0.8203,3.6913l-2.4375,-2.8907l-0.0001,0l-3.772,0.3672l2.0062,-3.2094l-1.511,-3.4644l3.6773,0.9073C9.0503,10.6784,9.0504,10.6784,9.0505,10.6783z" fill="#EEAC55"/>
  </g>
</svg>
