<?xml version="1.0" encoding="UTF-8"?>
<!DOCTYPE svg PUBLIC "-//W3C//DTD SVG 1.1//EN" "http://www.w3.org/Graphics/SVG/1.1/DTD/svg11.dtd">
<svg version="1.1" id="Layer_1" xmlns="http://www.w3.org/2000/svg" xmlns:xlink="http://www.w3.org/1999/xlink" x="0px" y="0px" width="24px" height="24px" viewBox="0 0 24 24" enable-background="new 0 0 24 24" xml:space="preserve">
  <g id="icon">
    <path d="M18.4417,2H2v20h20V5.5883L18.4417,2zM16.5,9c-0.8284,0,-1.5,-0.6716,-1.5,-1.5c0,-0.8284,0.6716,-1.5,1.5,-1.5s1.5,0.6716,1.5,1.5C18,8.3284,17.3284,9,16.5,9z" fill="#7B7B7B"/>
    <path d="M18,7.5c0,0.8284,-0.6716,1.5,-1.5,1.5s-1.5,-0.6716,-1.5,-1.5s0.6716,-1.5,1.5,-1.5S18,6.6716,18,7.5z" fill="#FFFFFF" opacity="0.5"/>
    <g>
      <rect y="6" width="1.6" height="1.5" fill="#7B7B7B"/>
      <rect y="9" width="1.6" height="1.5" fill="#7B7B7B"/>
      <rect x="4.5" width="1.5" height="1.6" fill="#7B7B7B"/>
      <rect y="18" width="1.6" height="1.5" fill="#7B7B7B"/>
      <rect y="15" width="1.6" height="1.5" fill="#7B7B7B"/>
      <rect y="12" width="1.6" height="1.5" fill="#7B7B7B"/>
      <rect x="16.5" width="1.5" height="1.6" fill="#7B7B7B"/>
      <rect x="13.5" width="1.5" height="1.6" fill="#7B7B7B"/>
      <rect x="10.5" width="1.5" height="1.6" fill="#7B7B7B"/>
      <rect x="7.5" width="1.5" height="1.6" fill="#7B7B7B"/>
      <rect x="22.4" y="6" width="1.6" height="1.5" fill="#7B7B7B"/>
      <rect x="4.5" y="22.4" width="1.5" height="1.6" fill="#7B7B7B"/>
      <rect x="22.4" y="12" width="1.6" height="1.5" fill="#7B7B7B"/>
      <rect x="22.4" y="18" width="1.6" height="1.5" fill="#7B7B7B"/>
      <rect x="22.4" y="9" width="1.6" height="1.5" fill="#7B7B7B"/>
      <rect x="22.4" y="15" width="1.6" height="1.5" fill="#7B7B7B"/>
      <rect x="10.5" y="22.4" width="1.5" height="1.6" fill="#7B7B7B"/>
      <rect x="16.5" y="22.4" width="1.5" height="1.6" fill="#7B7B7B"/>
      <rect x="7.5" y="22.4" width="1.5" height="1.6" fill="#7B7B7B"/>
      <rect x="13.5" y="22.4" width="1.5" height="1.6" fill="#7B7B7B"/>
    </g>
  </g>
</svg>
