<?xml version="1.0" encoding="UTF-8"?>
<!DOCTYPE svg PUBLIC "-//W3C//DTD SVG 1.1//EN" "http://www.w3.org/Graphics/SVG/1.1/DTD/svg11.dtd">
<svg version="1.1" id="Layer_1" xmlns="http://www.w3.org/2000/svg" xmlns:xlink="http://www.w3.org/1999/xlink" x="0px" y="0px" width="24px" height="24px" viewBox="0 0 24 24" enable-background="new 0 0 24 24" xml:space="preserve">
  <g id="icon">
    <path d="M9.9119,21.7813c-0.5636,0.1696,-1.1492,0.2555,-1.7423,0.2555s-1.1787,-0.0859,-1.7423,-0.2555l-0.946,1.7614c-0.0782,0.1456,-0.2591,0.1974,-0.4007,0.1147l-1.945,-1.1355c-0.1372,-0.0801,-0.1862,-0.2568,-0.1105,-0.3978l0.9532,-1.7746c-0.8678,-0.83,-1.4684,-1.8811,-1.7426,-3.0499H0.2911c-0.1608,0,-0.2911,-0.1323,-0.2911,-0.2956v-2.2695c0,-0.1633,0.1303,-0.2956,0.2911,-0.2956h1.9446c0.2743,-1.1689,0.8748,-2.22,1.7426,-3.0499l-0.9485,-1.716c-0.0781,-0.1413,-0.0296,-0.3202,0.1088,-0.4009l1.9451,-1.1356c0.1404,-0.082,0.3197,-0.0318,0.3989,0.1116l0.9446,1.7091c0.5635,-0.1696,1.1492,-0.2555,1.7423,-0.2555s1.1788,0.0859,1.7423,0.2555l0.9986,-1.7179c0.0811,-0.1394,0.2575,-0.1867,0.3958,-0.106l1.9451,1.1356c0.1405,0.082,0.188,0.2648,0.1056,0.4065l-0.9961,1.7136c0.8678,0.83,1.4684,1.8811,1.7426,3.0499h1.9447c0.1608,0,0.2911,0.1323,0.2911,0.2956v2.2695c0,0.1633,-0.1303,0.2956,-0.2911,0.2956h-1.9447c-0.2742,1.1689,-0.8748,2.22,-1.7426,3.0499l1.0011,1.7722c0.0799,0.1415,0.0319,0.322,-0.1074,0.4034l-1.9451,1.1356c-0.1395,0.0814,-0.3175,0.0325,-0.3976,-0.1092L9.9119,21.7813zM8.1698,12.8655c-1.631,0,-2.9578,1.3474,-2.9578,3.0037s1.3269,3.0037,2.9578,3.0037s2.9578,-1.3474,2.9578,-3.0037S9.8007,12.8655,8.1698,12.8655z" fill="#9070B1"/>
    <path d="M18.9553,10.9001c-0.4423,0.1326,-0.902,0.1997,-1.3675,0.1997s-0.9251,-0.0672,-1.3675,-0.1997l-0.7425,1.3769c-0.0614,0.1138,-0.2033,0.1543,-0.3145,0.0897l-1.5266,-0.8877c-0.1077,-0.0626,-0.1462,-0.2007,-0.0867,-0.311l0.7481,-1.3873c-0.6811,-0.6488,-1.1525,-1.4705,-1.3678,-2.3843H11.404c-0.1262,0,-0.2285,-0.1035,-0.2285,-0.2311V5.3913c0,-0.1276,0.1023,-0.2311,0.2285,-0.2311h1.5263c0.2153,-0.9138,0.6866,-1.7355,1.3678,-2.3843l-0.7444,-1.3415c-0.0613,-0.1105,-0.0232,-0.2503,0.0854,-0.3134l1.5267,-0.8877c0.1102,-0.0641,0.2509,-0.0249,0.3131,0.0872l0.7414,1.3361c0.4423,-0.1326,0.902,-0.1997,1.3675,-0.1997s0.9252,0.0672,1.3675,0.1997l0.7838,-1.343c0.0636,-0.109,0.2021,-0.146,0.3106,-0.0829l1.5267,0.8877c0.1103,0.0641,0.1475,0.207,0.0829,0.3178l-0.7818,1.3396c0.6811,0.6488,1.1525,1.4705,1.3677,2.3843h1.5263c0.1262,0,0.2285,0.1035,0.2285,0.2311v1.7741c0,0.1276,-0.1023,0.2311,-0.2285,0.2311h-1.5263c-0.2152,0.9138,-0.6866,1.7355,-1.3677,2.3843l0.7857,1.3854c0.0627,0.1106,0.025,0.2518,-0.0843,0.3153l-1.5267,0.8878c-0.1095,0.0637,-0.2492,0.0254,-0.3121,-0.0854L18.9553,10.9001zM17.5878,3.9302c-1.2801,0,-2.3216,1.0534,-2.3216,2.3481s1.0414,2.3481,2.3216,2.3481c1.2801,0,2.3216,-1.0534,2.3216,-2.3481S18.868,3.9302,17.5878,3.9302z" fill="#7B7B7B"/>
  </g>
</svg>
