<?xml version="1.0" encoding="UTF-8"?>
<!DOCTYPE svg PUBLIC "-//W3C//DTD SVG 1.1//EN" "http://www.w3.org/Graphics/SVG/1.1/DTD/svg11.dtd">
<svg version="1.1" id="Layer_1" xmlns="http://www.w3.org/2000/svg" xmlns:xlink="http://www.w3.org/1999/xlink" x="0px" y="0px" width="24px" height="24px" viewBox="0 0 24 24" enable-background="new 0 0 24 24" xml:space="preserve">
  <g id="icon">
    <path d="M5.5605,0.3099C5.4755,0.0817,5.7517,0,6.5133,0h13.2723c3.2306,0,4.1752,4.1641,4.207,4.3608c0.0398,0.2464,-0.0844,0.5029,-0.3308,0.6047c-0.0594,0.0246,-0.124,0.0345,-0.1879,0.0345H18.58H8.9417c-0.2459,0,-0.4583,-0.1824,-0.5088,-0.4349c-0.0043,-0.0212,-0.5173,-1.5843,-1.6222,-2.9154C6.4483,1.1789,6.0326,0.7252,5.5605,0.3099zM3.8708,22.4456c0.0801,-0.0667,0.1669,-0.1389,0.254,-0.2156l0.042,-0.0371c0.3638,-0.3366,1.6456,-1.6469,1.9944,-3.6894c0.0341,-0.3408,-0.0279,-0.7403,-0.1585,-1.1787c-0.0572,-0.1922,-0.2335,-0.3249,-0.434,-0.3249l-5.023,0c-0.069,0,-0.1387,0.0092,-0.2023,0.0359c-0.2612,0.1095,-0.3851,0.3763,-0.3311,0.6258c0.0301,0.1389,1.1646,4.018,3.1664,5.3204C3.3,23.1,3.6488,22.6305,3.8708,22.4456zM23.8411,18.5206c0,4.9418,-3.7803,5.4794,-3.9526,5.4794c-0.0756,0,-10.3635,0,-13.7114,0c-0.4685,0,-1.8015,-0.068,-2.059,-0.3273c-0.0948,-0.0955,0.2845,-0.3545,0.668,-0.6925c0.0011,-0.0008,0.0025,-0.0009,0.0035,-0.0018c0.4242,-0.3787,1.9566,-1.894,2.3628,-4.338c0.2159,-1.893,-1.5499,-4.5352,-3.0485,-7.0904C2.6461,9.0645,1.2693,6.7168,1.2693,4.7804c0,-2.9556,1.5139,-3.9831,2.4195,-4.3328c0.1708,-0.066,0.3625,-0.0401,0.5132,0.0644C6.0793,1.8139,7.2092,3.8807,7.5988,5.44c0.0854,0.3419,0.3897,0.56,0.74,0.56H18.58c0.2538,0,0.4724,0.1961,0.536,0.4435c0.4411,1.7176,1.464,4.2392,2.4533,6.1715C22.7325,14.8871,23.8312,17.0331,23.8411,18.5206zM15.5819,9V8H5.7v1H15.5819zM7.2,11h9.7819v-1H7.2V11zM8.452,13h10.1339v-1H8.452V13zM10.4787,14v1h7.8819v-1H10.4787zM16.6984,20H9.6906v1h7.0079V20zM20.1622,18h-9.0079v1h9.0079V18zM20.5,16h-9.0079v1H20.5V16z" fill="#EEAC55"/>
    <path d="M16.9819,11H7.2v-1h9.7819V11zM15.5819,9H5.7V8h9.8819V9zM18.5858,13H8.452v-1h10.1339V13zM18.3606,15h-7.8819v-1h7.8819V15zM20.5,17h-9.0079v-1H20.5V17zM20.1622,19h-9.0079v-1h9.0079V19zM16.6984,21H9.6906v-1h7.0079V21z" fill="#FFFFFF" opacity="0.5"/>
  </g>
</svg>
