<?xml version="1.0" encoding="UTF-8"?>
<!DOCTYPE svg PUBLIC "-//W3C//DTD SVG 1.1//EN" "http://www.w3.org/Graphics/SVG/1.1/DTD/svg11.dtd">
<svg version="1.1" id="Layer_1" xmlns="http://www.w3.org/2000/svg" xmlns:xlink="http://www.w3.org/1999/xlink" x="0px" y="0px" width="24px" height="24px" viewBox="0 0 24 24" enable-background="new 0 0 24 24" xml:space="preserve">
  <g id="icon">
    <path d="M12.0134,17.702c-1.5704,-0.0095,-3.0483,-0.398,-4.3926,-1.1549c-1.2191,-0.6864,-2.2318,-1.605,-3.0102,-2.7303c-0.2334,-0.3373,-0.4473,-0.6907,-0.6543,-1.0324c-0.096,-0.1586,-0.1921,-0.3172,-0.29,-0.4744L1.2161,8.381C0.8368,7.7729,0.4575,7.1648,0.0768,6.5575c-0.1343,-0.2143,-0.0903,-0.4362,0.1147,-0.5792c0.5629,-0.3931,1.1244,-0.7884,1.6858,-1.1836l0.6952,-0.4892c0.0727,-0.0511,0.1599,-0.1056,0.2748,-0.1056c0.2061,0,0.3063,0.1677,0.3491,0.2393l0.7799,1.3059c0.4799,0.804,0.9599,1.608,1.4412,2.4113c0.1904,0.3177,0.3789,0.6367,0.5674,0.9556c0.4623,0.7821,0.9403,1.5908,1.4382,2.3653c0.8285,1.2887,2.0017,2.0993,3.487,2.4092c0.3869,0.0807,0.7733,0.1217,1.1483,0.1217c0.9683,0,1.9076,-0.2728,2.7915,-0.8109l0.0289,-0.0176l0.0111,-0.0037l0.2169,-0.1156l0.1585,0.2109c0.0522,0.0766,0.1034,0.155,0.1526,0.2368c0.2743,0.4566,0.5472,0.9136,0.826,1.3805l0.7795,1.3037l-0.258,0.1493c-0.6684,0.3868,-1.5662,0.7938,-2.1346,0.9676c-0.8384,0.2565,-1.718,0.3887,-2.6142,0.3928h-0.0016H12.0134zM21.0394,9.8558c-0.5467,-0.8825,-1.2063,-1.6741,-1.9606,-2.3529l-0.1903,-0.1712l0.1435,-0.2122c0.1682,-0.2489,0.347,-0.51,0.5262,-0.7719c0.4785,-0.699,0.9733,-1.4217,1.2567,-1.8977c0.1061,-0.1782,0.2435,-0.2157,0.3401,-0.2157c0.1259,0,0.2215,0.0674,0.2529,0.0896c0.8009,0.5653,1.6032,1.1284,2.4057,1.6912c0.197,0.1382,0.242,0.359,0.1146,0.5625c-0.3485,0.5565,-0.8961,1.3455,-1.4256,2.1085c-0.3107,0.4476,-0.6218,0.8959,-0.8966,1.3024l-0.2531,0.3742L21.0394,9.8558z" fill="#6485C3"/>
    <path d="M2.8481,19.8c-0.1231,0,-0.2122,-0.0625,-0.3066,-0.1286l-0.7793,-0.5467c-0.5227,-0.3668,-1.0454,-0.7336,-1.5688,-1.0993c-0.2042,-0.143,-0.2512,-0.3707,-0.12,-0.5804c0.4115,-0.658,0.9718,-1.5623,1.5251,-2.4553l0.9625,-1.5523l0.2476,0.4053c0.1506,0.2465,0.3323,0.5386,0.5379,0.8358c0.4255,0.6152,0.9235,1.1894,1.4802,1.7064l0.175,0.1626l-0.3309,0.5493c-0.3161,0.5249,-0.6307,1.0473,-0.8118,1.3498c-0.2138,0.3572,-0.4275,0.7145,-0.6401,1.0726C3.1438,19.646,3.0524,19.8,2.8481,19.8zM21.1487,19.7701c-0.2034,0,-0.3006,-0.1625,-0.3473,-0.2406l-3.2254,-5.3946c-0.28,-0.4692,-0.56,-0.9383,-0.8414,-1.4066c-0.8422,-1.4012,-2.0629,-2.2822,-3.6281,-2.6184c-0.3732,-0.0802,-0.7495,-0.1208,-1.1182,-0.1208c-0.738,0,-1.4753,0.1626,-2.1915,0.4832c-0.0837,0.0374,-0.3194,0.1752,-0.608,0.366l-0.2407,0.1591l-0.1623,-0.2389l-0.0228,-0.0318c-0.0162,-0.0222,-0.0323,-0.0445,-0.0476,-0.0683c-0.4807,-0.7477,-0.9483,-1.5387,-1.4005,-2.3037l-0.3066,-0.5174l0.2442,-0.1518c0.8472,-0.5266,2.2399,-1.176,3.3823,-1.2772c0.3126,-0.0477,0.6286,-0.0731,0.9342,-0.0977c0.1398,-0.0113,0.2796,-0.0224,0.419,-0.0358l0.0172,-0.0016l0.0172,0.0004c1.5001,0.0343,2.8997,0.3899,4.1602,1.0568c1.4731,0.7794,2.6677,1.8973,3.5505,3.3228c0.4782,0.7722,0.9553,1.5451,1.4324,2.318c0.4278,0.6932,0.8556,1.3863,1.2843,2.0789c0.5299,0.8563,1.0119,1.6289,1.4735,2.3618c0.051,0.081,0.1917,0.3628,-0.1358,0.5921c-0.2707,0.1894,-2.0471,1.4371,-2.3654,1.6601C21.3621,19.7063,21.2711,19.7701,21.1487,19.7701L21.1487,19.7701z" fill="#6485C3"/>
  </g>
</svg>
