<?xml version="1.0" encoding="UTF-8"?>
<!DOCTYPE svg PUBLIC "-//W3C//DTD SVG 1.1//EN" "http://www.w3.org/Graphics/SVG/1.1/DTD/svg11.dtd">
<svg version="1.1" id="Layer_1" xmlns="http://www.w3.org/2000/svg" xmlns:xlink="http://www.w3.org/1999/xlink" x="0px" y="0px" width="24px" height="24px" viewBox="0 0 24 24" enable-background="new 0 0 24 24" xml:space="preserve">
  <g id="icon">
    <path d="M21.7292,19.95H2.2042c-0.6904,0,-1.25,-0.5596,-1.25,-1.25V5.2c0,-0.6904,0.5596,-1.25,1.25,-1.25h19.525c0.6904,0,1.25,0.5596,1.25,1.25v13.5C22.9792,19.3904,22.4195,19.95,21.7292,19.95z" fill="#FFFFFF" opacity="0.5"/>
    <path d="M0,18.125V5.875C0,4.2872,1.2872,3,2.875,3h18.25C22.7128,3,24,4.2872,24,5.875v12.25c0,1.5878,-1.2872,2.875,-2.875,2.875H2.875C1.2872,21,0,19.7128,0,18.125zM2,5.875v12.25c0,0.4832,0.3918,0.875,0.875,0.875h18.25c0.4832,0,0.875,-0.3918,0.875,-0.875V5.875c0,-0.4832,-0.3918,-0.875,-0.875,-0.875H2.875C2.3918,5,2,5.3918,2,5.875z" fill="#52B250"/>
    <path d="M10.9808,17.41l-1.4242,-0.4709L13.0275,6.44l1.4242,0.4709L10.9808,17.41zM16.0861,16.7732l-1.0585,-1.0629l3.7636,-3.7478l-3.7636,-3.7478l1.0585,-1.0629l4.8309,4.8107L16.0861,16.7732zM8.0327,16.773l-4.9271,-4.8105L8.0327,7.152l1.0479,1.0732l-3.8279,3.7373l3.8279,3.7373L8.0327,16.773z" fill="#52B250"/>
  </g>
</svg>
