<?xml version="1.0" encoding="UTF-8"?>
<!DOCTYPE svg PUBLIC "-//W3C//DTD SVG 1.1//EN" "http://www.w3.org/Graphics/SVG/1.1/DTD/svg11.dtd">
<svg version="1.1" id="Layer_1" xmlns="http://www.w3.org/2000/svg" xmlns:xlink="http://www.w3.org/1999/xlink" x="0px" y="0px" width="32px" height="32px" viewBox="0 0 32 32" enable-background="new 0 0 32 32" xml:space="preserve">
  <g id="icon">
    <path d="M30.5,16.5H9.5v14h21V16.5z" fill="#F7DA8E" stroke="#E57428" stroke-width="1" stroke-linecap="round" stroke-miterlimit="1"/>
    <rect x="25.5" y="18.5" width="3" height="4" fill="#F3B8B8" stroke="#E42D2C" stroke-width="1" stroke-linecap="round" stroke-miterlimit="1"/>
    <path d="M12,19.5h10M12,21.5h7M13,27.5h5M20,27.5h6" fill="none" stroke="#787979" stroke-width="1" stroke-miterlimit="1"/>
    <path d="M13,25.5h9" fill="none" stroke="#383838" stroke-width="1" stroke-miterlimit="1"/>
    <polygon points="8,15 22.5,15 22.5,1.5 1.5,1.5 1.5,28.5 8,28.5" fill="#FFFFFF" stroke-linejoin="miter"/>
    <polygon points="8,28 2,28 2,2 22,2 22,15 23,15 23,1 1,1 1,29 8,29" stroke-linejoin="miter"/>
    <path d="M10.5,7.5H4.5V4.5h6V7.5zM19.5,10.5h-6v3h6V10.5zM19.5,4.5h-6v3h6V4.5zM8,22.5H4.5v3h3.5V22.5zM8,16.5H4.5v3h3.5V16.5zM10.5,10.5H4.5v3h6V10.5z" fill="#92CBEE"/>
    <path d="M20,10h-7v4h7V10zM19,13h-5v-2h5V13zM20,4h-7v4h7V4zM19,7h-5V5h5V7zM8,26H4v-4h4v1H5v2h3V26zM8,20H4v-4h4v1H5v2h3V20zM11,4H4v4h7V4zM10,7H5V5h5V7zM11,10H4v4h7V10zM10,13H5v-2h5V13z" fill="#0964B0"/>
  </g>
</svg>
