<?xml version="1.0" encoding="UTF-8"?>
<!DOCTYPE svg PUBLIC "-//W3C//DTD SVG 1.1//EN" "http://www.w3.org/Graphics/SVG/1.1/DTD/svg11.dtd">
<svg version="1.1" id="Layer_1" xmlns="http://www.w3.org/2000/svg" xmlns:xlink="http://www.w3.org/1999/xlink" x="0px" y="0px" width="32px" height="32px" viewBox="0 0 32 32" enable-background="new 0 0 32 32" xml:space="preserve">
  <g id="icon">
    <path d="M30.5,16.5H9.5v14h21V16.5z" fill="#F7DA8E" stroke="#E57428" stroke-width="1" stroke-linecap="round" stroke-miterlimit="1"/>
    <rect x="25.5" y="18.5" width="3" height="4" fill="#F3B8B8" stroke="#E42D2C" stroke-width="1" stroke-linecap="round" stroke-miterlimit="1"/>
    <path d="M12,19.5h10M12,21.5h7M13,27.5h5M20,27.5h6" fill="none" stroke="#787979" stroke-width="1" stroke-miterlimit="1"/>
    <path d="M13,25.5h9" fill="none" stroke="#383838" stroke-width="1" stroke-miterlimit="1"/>
    <polygon points="8,15 23.5,15 23.5,1.5 7.5,1.5 7.5,20.5 8,20.5" fill="#FFFFFF" stroke-linejoin="miter"/>
    <polygon points="8,20 8,15 8,2 23,2 23,15 24,15 24,1 7,1 7,21 8,21" fill="#383838" stroke-linejoin="miter"/>
    <polygon points="8,15 20.5,15 20.5,4.5 4.5,4.5 4.5,23.5 8,23.5" fill="#FFFFFF" stroke-linejoin="miter"/>
    <polygon points="8,23 5,23 5,5 20,5 20,15 21,15 21,4 4,4 4,24 8,24" fill="#383838" stroke-linejoin="miter"/>
    <polygon points="8,15 17.5,15 17.5,7.5 1.5,7.5 1.5,26.5 8,26.5" fill="#FFFFFF" stroke-linejoin="miter"/>
    <polygon points="8,26 2,26 2,8 17,8 17,15 18,15 18,7 1,7 1,27 8,27" fill="#383838" stroke-linejoin="miter"/>
  </g>
</svg>
