<?xml version="1.0" encoding="UTF-8"?>
<!DOCTYPE svg PUBLIC "-//W3C//DTD SVG 1.1//EN" "http://www.w3.org/Graphics/SVG/1.1/DTD/svg11.dtd">
<svg version="1.1" id="Layer_1" xmlns="http://www.w3.org/2000/svg" xmlns:xlink="http://www.w3.org/1999/xlink" x="0px" y="0px" width="32px" height="32px" viewBox="0 0 32 32" enable-background="new 0 0 32 32" xml:space="preserve">
  <g id="icon">
    <path d="M12.875,5.5l-0.9,0.9l3.945,3.945c0.312,0.312,0.312,0.819,0,1.131l-1.344,1.344c-0.312,0.312,-0.819,0.312,-1.131,0L9.5,8.875L5.555,12.82c-0.312,0.312,-0.819,0.312,-1.131,0L3.08,11.477c-0.312,-0.312,-0.312,-0.819,0,-1.131L7.025,6.4l-0.9,-0.9H1.5v24h29V5.5H12.875z" fill="#FFFFFF"/>
    <polygon points="13.375,5 12.375,6 30,6 30,29 2,29 2,6 6.625,6 5.625,5 1,5 1,30 31,30 31,5" fill="#383838" stroke-linejoin="miter"/>
    <path d="M3.603,12H2v-1h0.851c0.019,0.174,0.095,0.343,0.229,0.477L3.603,12zM24,12v5h6v1h-6v5h6v1h-6v5h-1v-5h-6v5h-1v-5H9v5H8v-5H2v-1h6v-5H2v-1h6v-5H6.375l1,-1H8v-0.625l1,-1V11h2.625l1,1H9v5h7v-5h-0.603l0.523,-0.523c0.283,-0.283,0.309,-0.724,0.08,-1.037V6h1v5h6V6h1v5h6v1H24zM16,18H9v5h7V18zM23,18h-6v5h6V18zM23,12h-6v5h6V12z" fill="#787979" opacity="0.6"/>
    <path d="M12.875,5.5l-0.9,0.9l3.945,3.945c0.312,0.312,0.312,0.819,0,1.131l-1.344,1.344c-0.312,0.312,-0.819,0.312,-1.131,0L9.5,8.875l-2,2V29.5h10V5.5H12.875z" fill="none" stroke="#FFFFFF" stroke-width="1" stroke-miterlimit="1" opacity="0.5"/>
    <path d="M12.875,5.5l-0.9,0.9l3.945,3.945c0.312,0.312,0.312,0.819,0,1.131l-1.344,1.344c-0.312,0.312,-0.819,0.312,-1.131,0L9.5,8.875l-1,1V29.5h8V5.5H12.875z" fill="#92CBEE"/>
    <path d="M13.375,5l-1,1H16v4.44c0.205,0.28,0.205,0.662,0,0.942V29H9V9.375l-1,1V30h9V5H13.375z" fill="#0964B0"/>
    <polygon points="14.789,1.889 14.011,1.111 9.5,5.622 4.989,1.111 4.211,1.889 8.722,6.4 4.211,10.911 4.989,11.689 9.5,7.178 14.011,11.689 14.789,10.911 10.278,6.4" fill="#EE3D3B" stroke-linejoin="miter"/>
  </g>
</svg>
