<?xml version="1.0" encoding="UTF-8"?>
<!DOCTYPE svg PUBLIC "-//W3C//DTD SVG 1.1//EN" "http://www.w3.org/Graphics/SVG/1.1/DTD/svg11.dtd">
<svg version="1.1" id="Layer_1" xmlns="http://www.w3.org/2000/svg" xmlns:xlink="http://www.w3.org/1999/xlink" x="0px" y="0px" width="32px" height="32px" viewBox="0 0 32 32" enable-background="new 0 0 32 32" xml:space="preserve">
  <g id="icon">
    <rect x="1.5" y="4.5" width="29" height="24" fill="#FFFFFF"/>
    <path d="M1,4h30v25H1V4zM30,5H2v23h28V5z" fill="#383838"/>
    <path d="M30,11v-1h-5V5h-1v5h-7V5h-1v5H9V5H8v5H2v1h6h1h7v5v1v5H9H8H2v1h6v5h1v-5h7v5h1v-5h7v5h1v-5h5v-1h-5v-5h5v-1h-5v-5H30zM24,22h-7v-5h7V22zM24,16h-7v-5h7V16z" fill="#787979" opacity="0.6"/>
    <path d="M15,4h11v25H15V4zM25,5h-9v23h9V5z" fill="#FFFFFF" opacity="0.5"/>
    <rect x="16.5" y="4.5" width="8" height="24" fill="#92CBEE"/>
    <path d="M16,4h9v25h-9V4zM24,5h-7v23h7V5z" fill="#0964B0"/>
    <path d="M8.649,20.281L4.9,16.5l3.749,-3.781M15,16.5l-9.949,0" fill="#FFFFFF" stroke="#228BCB" stroke-width="1.2" stroke-miterlimit="1"/>
  </g>
</svg>
