<?xml version="1.0" encoding="UTF-8"?>
<!DOCTYPE svg PUBLIC "-//W3C//DTD SVG 1.1//EN" "http://www.w3.org/Graphics/SVG/1.1/DTD/svg11.dtd">
<svg version="1.1" id="Layer_1" xmlns="http://www.w3.org/2000/svg" xmlns:xlink="http://www.w3.org/1999/xlink" x="0px" y="0px" width="32px" height="32px" viewBox="0 0 32 32" enable-background="new 0 0 32 32" xml:space="preserve">
  <g id="icon">
    <rect x="2.5" y="2.5" width="27" height="27" fill="#FFFFFF" stroke="#383838" stroke-width="1" stroke-miterlimit="1"/>
    <path d="M13.4,24H5v-1h8.4V24zM27,27H5v-1h22V27zM27,9H5V8h22V9zM27,6H5V5h22V6z" fill="#78797A" opacity="0.65"/>
    <path d="M20.441,11.076l1.38,4.233h4.488c0.667,0,0.945,0.853,0.407,1.246l-3.637,2.659l1.385,4.253c0.207,0.636,-0.521,1.164,-1.061,0.771l-3.617,-2.631l-3.617,2.631c-0.541,0.393,-1.268,-0.136,-1.061,-0.771l1.385,-4.253l-3.637,-2.659c-0.538,-0.394,-0.26,-1.246,0.407,-1.246h4.488l1.38,-4.233C19.336,10.441,20.234,10.441,20.441,11.076z" fill="#238BCB"/>
  </g>
</svg>
