<?xml version="1.0" encoding="UTF-8"?>
<!DOCTYPE svg PUBLIC "-//W3C//DTD SVG 1.1//EN" "http://www.w3.org/Graphics/SVG/1.1/DTD/svg11.dtd">
<svg version="1.1" id="Layer_1" xmlns="http://www.w3.org/2000/svg" xmlns:xlink="http://www.w3.org/1999/xlink" x="0px" y="0px" width="16px" height="16px" viewBox="0 0 16 16" enable-background="new 0 0 16 16" xml:space="preserve">
  <g id="icon">
    <path d="M5.45,14.2v0.837c0,0.283,-0.257,0.513,-0.573,0.513H3.823c-0.317,0,-0.573,-0.23,-0.573,-0.513V13.9" fill="#FFFFFF" stroke="#787979" stroke-width="0.9" stroke-miterlimit="1"/>
    <path d="M10.55,14.2v0.837c0,0.283,0.257,0.513,0.573,0.513h1.053c0.317,0,0.573,-0.23,0.573,-0.513V13.9" fill="#FFFFFF" stroke="#787979" stroke-width="0.9" stroke-miterlimit="1"/>
    <path d="M12.297,8.858c-0.797,-2.361,-0.301,-2.819,-4.296,-2.819s-3.462,0.458,-4.169,2.819C6.585,9.361,9.408,9.351,12.297,8.858z" fill="#FFFFFF"/>
    <path d="M12.252,8.913C11.5,6.476,11.996,6,8.001,6s-3.462,0.476,-4.214,2.913" fill="none" stroke="#383838" stroke-width="0.9" stroke-miterlimit="1"/>
    <path d="M8.051,14.05c2.379,0,4.095,-0.176,4.334,-0.197c0.461,-0.041,0.564,-0.176,0.689,-0.69c0.158,-0.651,0.199,-1.638,0.014,-2.221c-0.101,-0.318,-0.303,-0.68,-0.326,-0.732c0.092,-0.027,0.188,-0.057,0.284,-0.089c0.474,-0.159,0.497,-0.446,0.432,-0.658c-0.07,-0.229,-0.248,-0.62,-0.478,-0.62c-0.083,0,-0.173,0.018,-0.267,0.053c-1.02,0.378,-2.11,0.409,-3.166,0.439c-0.35,0.01,-1.097,0.015,-1.529,0.015h-0.06c-0.433,0,-1.179,-0.005,-1.529,-0.015c-1.055,-0.03,-2.146,-0.061,-3.166,-0.439c-0.094,-0.035,-0.184,-0.053,-0.267,-0.053c-0.229,0,-0.408,0.391,-0.478,0.62c-0.065,0.212,-0.042,0.499,0.432,0.658c0.095,0.032,0.192,0.062,0.284,0.089c-0.024,0.052,-0.267,0.403,-0.326,0.732c-0.177,0.978,-0.086,1.735,0.014,2.221c0.106,0.519,0.228,0.65,0.689,0.69c0.239,0.021,1.955,0.197,4.334,0.197H8.051z" fill="#FFFFFF" stroke="#383838" stroke-width="0.9" stroke-miterlimit="1"/>
    <path d="M6.012,11.985c0,0.408,-0.455,0.583,-0.971,0.583c-0.516,0,-0.935,-0.331,-0.935,-0.739c0,-0.408,-0.049,-0.739,0.467,-0.739C5.09,11.091,6.012,11.577,6.012,11.985zM9.989,11.985c0,0.408,0.455,0.583,0.971,0.583c0.516,0,0.935,-0.331,0.935,-0.739c0,-0.408,0.049,-0.739,-0.467,-0.739C10.911,11.091,9.989,11.577,9.989,11.985z" fill="#FFFFFF" stroke="#ED8730" stroke-width="0.9" stroke-miterlimit="1"/>
    <path d="M8.035,0.5v2.44M10.52,3.584l0.8,-2.32M14.431,2.981L12.835,4.9M5.604,3.584l-0.8,-2.32M1.693,2.981L3.289,4.9" fill="#FFFFFF" stroke="#ED8730" stroke-width="1" stroke-linecap="round" stroke-miterlimit="1"/>
  </g>
</svg>
