<?xml version="1.0" encoding="UTF-8"?>
<!DOCTYPE svg PUBLIC "-//W3C//DTD SVG 1.1//EN" "http://www.w3.org/Graphics/SVG/1.1/DTD/svg11.dtd">
<svg version="1.1" id="Layer_1" xmlns="http://www.w3.org/2000/svg" xmlns:xlink="http://www.w3.org/1999/xlink" x="0px" y="0px" width="16px" height="16px" viewBox="0 0 16 16" enable-background="new 0 0 16 16" xml:space="preserve">
  <g id="icon">
    <path d="M5.607,4.552c0,0,-0.21,-0.253,-0.398,-0.456c-0.23,-0.246,-0.478,-0.491,-0.702,-0.756c-0.379,-0.45,-0.768,-0.795,-1.102,-1.276c-0.14,-0.202,-0.198,-0.438,-0.207,-0.689c-0.016,-0.412,0.327,-0.73,0.743,-0.66c0.422,0.071,0.837,0.222,1.235,0.384c0.327,0.133,0.624,0.332,0.931,0.5c0.233,-0.25,0.451,-0.515,0.702,-0.746c0.518,-0.475,0.889,-0.471,1.404,0.011c0.243,0.228,0.457,0.485,0.664,0.707c0.53,-0.249,1.056,-0.509,1.595,-0.743c0.178,-0.077,0.387,-0.112,0.584,-0.121c0.498,-0.023,0.877,0.365,0.756,0.832c-0.09,0.35,-0.248,0.713,-0.477,0.993c-0.423,0.516,-0.941,0.911,-1.457,1.453c-0.04,0.042,-0.087,0.077,-0.184,0.163c-0.255,0.201,-0.413,0.353,-0.413,0.353s0.454,0.468,0.521,0.539c1.109,1.183,2.231,2.497,3.11,3.853c0.352,0.543,0.71,1.098,0.773,1.752c0.099,1.03,-0.279,1.933,-0.958,2.702c-1.232,1.395,-2.9,2.045,-4.772,2.141c-1.606,0.083,-3.163,-0.243,-4.509,-1.118c-1.142,-0.743,-1.913,-1.733,-2.118,-3.085c-0.083,-0.547,0.024,-1.05,0.272,-1.542c0.54,-1.07,1.279,-2.009,2.055,-2.922c0.499,-0.586,1.078,-1.3,1.592,-1.874C5.296,4.891,5.607,4.552,5.607,4.552z" fill="#FFFFFF" stroke="#383838" stroke-width="1" stroke-miterlimit="1"/>
    <line x1="3.5" y1="4.5" x2="11.5" y2="4.5" fill="#FFFFFF" stroke="#ED8730" stroke-width="1" stroke-miterlimit="1"/>
    <path d="M9.319,12.499H5.562v-0.08c0.09,-0.039,0.176,-0.084,0.259,-0.137c0.083,-0.053,0.157,-0.118,0.221,-0.195c0.064,-0.077,0.115,-0.168,0.154,-0.271c0.038,-0.104,0.058,-0.225,0.058,-0.365v-1.381v-0.072V8.833c0,-0.222,0.032,-0.427,0.096,-0.615c0.064,-0.188,0.159,-0.35,0.284,-0.486c0.125,-0.136,0.281,-0.242,0.468,-0.318C7.288,7.337,7.505,7.3,7.75,7.3c0.189,0,0.356,0.022,0.499,0.065c0.143,0.043,0.267,0.101,0.372,0.174c0.105,0.072,0.193,0.157,0.265,0.255c0.072,0.098,0.133,0.201,0.184,0.309M5.346,9.907h2.85" fill="none" stroke="#ED8730" stroke-width="0.9" stroke-miterlimit="1"/>
  </g>
</svg>
