<?xml version="1.0" encoding="UTF-8"?>
<!DOCTYPE svg PUBLIC "-//W3C//DTD SVG 1.1//EN" "http://www.w3.org/Graphics/SVG/1.1/DTD/svg11.dtd">
<svg version="1.1" id="Layer_1" xmlns="http://www.w3.org/2000/svg" xmlns:xlink="http://www.w3.org/1999/xlink" x="0px" y="0px" width="16px" height="16px" viewBox="0 0 16 16" enable-background="new 0 0 16 16" xml:space="preserve">
  <g id="icon">
    <path d="M13.983,13.5H2.017C1.182,13.5,0.5,12.818,0.5,11.983V4.017C0.5,3.183,1.182,2.5,2.017,2.5h11.967c0.834,0,1.517,0.683,1.517,1.517v7.967C15.5,12.818,14.818,13.5,13.983,13.5z" fill="#FFFFFF" stroke="#383838" stroke-width="1" stroke-miterlimit="1"/>
    <path d="M6.047,5.79l-1.642,4.425H3.301l-0.933,-3.883c-0.318,-0.203,-0.68,-0.36,-1.085,-0.472l0.009,-0.069h1.683c0.226,0,0.41,0.094,0.472,0.372l0.365,2.014l0,0.002l0.109,0.604L4.943,5.79H6.047zM6.979,10.215l0.653,-4.425H6.588l-0.652,4.425H6.979zM10.886,5.886c-0.207,-0.089,-0.534,-0.186,-0.939,-0.186c-1.037,0,-1.87,0.598,-1.876,1.453c-0.007,0.635,0.521,0.988,0.918,1.199c0.409,0.216,0.649,0.354,0.648,0.547c-0.004,0.294,-0.327,0.429,-0.628,0.429c-0.419,0,-0.642,-0.066,-0.985,-0.231l-0.137,-0.069l-0.146,0.986c0.245,0.125,0.697,0.23,1.169,0.236c1.1,0,1.816,-0.592,1.825,-1.506c0.005,-0.502,-0.275,-0.883,-0.881,-1.198c-0.365,-0.204,-0.592,-0.339,-0.588,-0.546c0,-0.183,0.19,-0.378,0.602,-0.378c0.343,-0.008,0.589,0.078,0.784,0.169l0.094,0.051L10.886,5.886zM12.385,8.68c0.205,0,0.707,0,0.87,0c-0.041,-0.222,-0.243,-1.293,-0.243,-1.293l-0.07,-0.392c-0.054,0.165,-0.146,0.449,-0.139,0.437C12.803,7.432,12.473,8.383,12.385,8.68L12.385,8.68zM14.517,10.215h-0.908c0,0,-0.102,-0.558,-0.137,-0.722c-0.163,0,-1.301,0.007,-1.43,0.007c-0.043,0.127,-0.235,0.715,-0.235,0.715h-1.037l1.548,-4.039c0.111,-0.285,0.298,-0.385,0.547,-0.385h0.806L14.517,10.215z" fill="#238BCB"/>
  </g>
</svg>
