<?xml version="1.0" encoding="UTF-8"?>
<!DOCTYPE svg PUBLIC "-//W3C//DTD SVG 1.1//EN" "http://www.w3.org/Graphics/SVG/1.1/DTD/svg11.dtd">
<svg version="1.1" id="Layer_1" xmlns="http://www.w3.org/2000/svg" xmlns:xlink="http://www.w3.org/1999/xlink" x="0px" y="0px" width="32px" height="32px" viewBox="0 0 32 32" enable-background="new 0 0 32 32" xml:space="preserve">
  <g id="icon">
    <path d="M5.35,24.019L0.888,19.5l4.462,-4.519M17,19.5H0.997" fill="none" stroke="#228BCB" stroke-width="1.2" stroke-miterlimit="1"/>
    <path d="M12.538,21.981L17,26.5l-4.462,4.519M16.891,26.5H0.888" fill="none" stroke="#EE3D3B" stroke-width="1.2" stroke-miterlimit="1"/>
    <path d="M17.55,0.5C10.099,0.5,4.012,6.363,3.62,13.743l1.289,-1.305L9.812,17H20v9.9l-1.663,1.577C25.675,28.067,31.5,21.967,31.5,14.5C31.5,6.768,25.254,0.5,17.55,0.5z" fill="#FFFFFF"/>
    <path d="M17.55,0C9.66,0,3.227,6.379,3.103,14.268l1.06,-1.074C4.82,6.36,10.573,1,17.55,1C24.966,1,31,7.056,31,14.5c0,6.982,-5.308,12.743,-12.087,13.431l-1.123,1.066C25.647,28.868,32,22.415,32,14.5C32,6.505,25.518,0,17.55,0z" fill="#383838"/>
    <path d="M31.189,15v-1h-5.424c-0.094,-2.16,-0.717,-4.469,-1.683,-6.593c1.697,-0.535,3.081,-1.171,4.008,-1.652l-0.46,-0.888c-0.916,0.475,-2.296,1.108,-3.989,1.63c-1.504,-2.923,-3.643,-5.376,-5.889,-6.409L17.564,0.5h-0.084l-0.189,-0.411c-2.058,0.946,-4.138,3.124,-5.706,5.977c-0.077,0.14,-0.152,0.281,-0.226,0.422c-1.57,-0.495,-2.924,-1.108,-3.991,-1.67l-0.467,0.884c1.078,0.569,2.438,1.186,4.013,1.693C9.892,9.608,9.281,11.932,9.186,14H6.588l1.075,1H9.18c0.017,0.501,0.065,1.016,0.139,1.541l0.494,0.459h0.592c-0.124,-0.684,-0.201,-1.355,-0.224,-2H17v2h1v-2h6.77c-0.074,1.997,-0.646,4.246,-1.614,6.374c-1.062,-0.309,-2.115,-0.532,-3.156,-0.671v1.01c0.895,0.126,1.799,0.315,2.712,0.573c-0.041,0.079,-0.082,0.157,-0.124,0.235c-0.757,1.414,-1.644,2.637,-2.589,3.598V26.9l-2.065,1.959c2.053,-0.947,4.014,-3.023,5.535,-5.865c0.073,-0.135,0.144,-0.272,0.213,-0.409c1.271,0.421,2.558,0.969,3.853,1.641l0.46,-0.888c-1.303,-0.675,-2.598,-1.23,-3.88,-1.662c0.995,-2.224,1.581,-4.578,1.653,-6.676H31.189zM17,14h-6.813c0.1,-2.049,0.732,-4.275,1.695,-6.316c1.549,0.427,3.274,0.729,5.118,0.776V14zM17,7.46c-1.67,-0.045,-3.239,-0.309,-4.66,-0.687c1.246,-2.328,2.909,-4.323,4.66,-5.395V7.46zM18,1.353c1.748,1.061,3.409,3.073,4.65,5.427c-1.402,0.366,-2.976,0.634,-4.65,0.68V1.353zM18,14V8.46c1.848,-0.048,3.577,-0.354,5.102,-0.766c0.944,2.036,1.564,4.257,1.662,6.306H18z" fill="#383838"/>
  </g>
</svg>
