<?xml version="1.0" encoding="UTF-8"?>
<!DOCTYPE svg PUBLIC "-//W3C//DTD SVG 1.1//EN" "http://www.w3.org/Graphics/SVG/1.1/DTD/svg11.dtd">
<svg version="1.1" id="Layer_1" xmlns="http://www.w3.org/2000/svg" xmlns:xlink="http://www.w3.org/1999/xlink" x="0px" y="0px" width="32px" height="32px" viewBox="0 0 32 32" enable-background="new 0 0 32 32" xml:space="preserve">
  <g id="icon">
    <polygon points="2.4,13 5.1,14.9 2.3,16.4 4.9,18.3 2.2,19.9 4.8,21.9 2.3,23.4 11.6,29.6 30,18 27.1,16.4 30,14.4 27.1,12.9 30,10.9 27,9.4 29.9,7.6 20.5,3.1" fill="#ACD8B1" stroke-linejoin="miter"/>
    <path d="M11.657,18.895l-9.532,-5.923L20.509,3.1l9.532,4.607L11.657,18.895zM5,15l-2.875,1.462l9.532,6.123l18.384,-11.588L27.1,9.5M5,18.4l-2.875,1.562l9.532,6.123l18.384,-11.588L27.1,13M5.1,21.9l-2.975,1.562l9.532,6.123l18.384,-11.588L27.1,16.5" fill="none" stroke="#0BA04A" stroke-width="1" stroke-linecap="round" stroke-miterlimit="1"/>
    <path d="M22.5,22.761l0.011,-10.113c-0.003,-0.413,-0.115,-1.092,-0.46,-1.335l-8.106,-4.697L9.378,9.083l8.584,5.388c0.339,0.246,0.538,0.631,0.538,1.04l0.004,9.775L22.5,22.761z" fill="#C8C6C4" stroke="#383838" stroke-width="1" stroke-linecap="round" stroke-miterlimit="1"/>
  </g>
</svg>
