<?xml version="1.0" encoding="UTF-8"?>
<!DOCTYPE svg PUBLIC "-//W3C//DTD SVG 1.1//EN" "http://www.w3.org/Graphics/SVG/1.1/DTD/svg11.dtd">
<svg version="1.1" id="Layer_1" xmlns="http://www.w3.org/2000/svg" xmlns:xlink="http://www.w3.org/1999/xlink" x="0px" y="0px" width="32px" height="32px" viewBox="0 0 32 32" enable-background="new 0 0 32 32" xml:space="preserve">
  <g id="icon">
    <circle cx="16" cy="16" r="14.45" fill="#FFFFFF" stroke="#ED8730" stroke-width="1.1" stroke-miterlimit="1"/>
    <path d="M11.322,21.356c0.27,0.27,0.55,0.513,0.841,0.729c0.29,0.217,0.604,0.395,0.942,0.537c0.338,0.142,0.709,0.25,1.114,0.324c0.404,0.074,0.859,0.103,1.365,0.087l0.238,-0.007c0.7,-0.041,1.323,-0.18,1.868,-0.415c0.545,-0.235,1.002,-0.542,1.372,-0.921c0.37,-0.379,0.645,-0.813,0.826,-1.302c0.181,-0.489,0.262,-1.011,0.241,-1.567c-0.021,-0.582,-0.16,-1.06,-0.416,-1.433c-0.256,-0.373,-0.586,-0.681,-0.989,-0.923c-0.403,-0.242,-0.857,-0.439,-1.362,-0.589c-0.505,-0.15,-1.016,-0.293,-1.535,-0.43l-0.23,-0.062c-0.46,-0.125,-0.905,-0.26,-1.334,-0.406c-0.428,-0.146,-0.81,-0.333,-1.144,-0.561c-0.334,-0.228,-0.605,-0.511,-0.812,-0.849c-0.208,-0.338,-0.321,-0.755,-0.339,-1.251c-0.015,-0.41,0.052,-0.808,0.2,-1.193c0.149,-0.385,0.378,-0.728,0.689,-1.029c0.311,-0.301,0.696,-0.546,1.156,-0.736c0.46,-0.189,0.993,-0.3,1.599,-0.332l0.228,-0.007c0.579,-0.004,1.064,0.055,1.456,0.179c0.392,0.124,0.715,0.261,0.97,0.412c0.255,0.151,0.45,0.289,0.585,0.414c0.135,0.125,0.721,0.665,0.721,0.665M16,6.9v18.4" fill="none" stroke="#ED8730" stroke-width="1.2" stroke-miterlimit="1"/>
    <path d="M20.469,4.86c0.918,0.369,1.78,0.847,2.569,1.42M18.982,4.373C18.029,4.13,17.029,4,16,4C9.373,4,4,9.373,4,16M8.949,25.711c0.773,0.562,1.615,1.034,2.512,1.401M12.924,27.602c0.982,0.26,2.013,0.398,3.076,0.398c6.627,0,12,-5.373,12,-12" fill="none" stroke="#ED8730" stroke-width="1" stroke-miterlimit="1"/>
  </g>
</svg>
