<?xml version="1.0" encoding="UTF-8"?>
<!DOCTYPE svg PUBLIC "-//W3C//DTD SVG 1.1//EN" "http://www.w3.org/Graphics/SVG/1.1/DTD/svg11.dtd">
<svg version="1.1" id="Layer_1" xmlns="http://www.w3.org/2000/svg" xmlns:xlink="http://www.w3.org/1999/xlink" x="0px" y="0px" width="32px" height="32px" viewBox="0 0 32 32" enable-background="new 0 0 32 32" xml:space="preserve">
  <g id="icon">
    <path d="M7.649,22.002l4.475,-7.036L5,3.799V1l13.408,20.992l-1.175,0.982l-4.182,-6.555l-4.212,6.648L7.649,22.002z" fill="#383838"/>
    <path d="M15.583,25.988c0,-2.423,1.984,-4.388,4.43,-4.388s4.43,1.964,4.43,4.388c0,2.423,-1.984,4.388,-4.43,4.388S15.583,28.411,15.583,25.988z" fill="none" stroke="#228BCB" stroke-width="1.2" stroke-miterlimit="1"/>
    <path d="M1.583,25.988c0,-2.423,1.984,-4.388,4.43,-4.388s4.43,1.964,4.43,4.388c0,2.423,-1.984,4.388,-4.43,4.388S1.583,28.411,1.583,25.988z" fill="none" stroke="#228BCB" stroke-width="1.2" stroke-miterlimit="1"/>
    <path d="M7.099,1.5l10.219,16H30.5V1.5H7.099z" fill="#FFFFFF"/>
    <path d="M6.78,1l0.639,1H30v15H16.999l0.639,1H31V1H6.78z" fill="#17AB4F"/>
    <path d="M29.883,12.807H31V18h-5.283l-0.037,-1.099C25.68,14.644,27.565,12.807,29.883,12.807zM30,13.807h-0.117c-1.763,0,-3.198,1.384,-3.203,3.086l0.004,0.107H30V13.807zM8.173,3.181c0.095,-0.344,0.147,-0.705,0.147,-1.078V1H6.78L8.173,3.181zM25.316,10.828c-0.752,0,-1.364,-0.62,-1.364,-1.383s0.612,-1.383,1.364,-1.383c0.752,0,1.364,0.62,1.364,1.383S26.068,10.828,25.316,10.828zM25.68,9.445c0,-0.211,-0.163,-0.383,-0.364,-0.383c-0.201,0,-0.364,0.172,-0.364,0.383s0.163,0.383,0.364,0.383C25.517,9.828,25.68,9.656,25.68,9.445zM17.054,2.766c-2.677,0,-4.856,2.997,-4.873,6.69l1.206,1.888c-0.133,-0.579,-0.207,-1.199,-0.207,-1.844c0,-3.162,1.738,-5.734,3.874,-5.734S20.928,6.338,20.928,9.5s-1.738,5.734,-3.874,5.734c-0.512,0,-1.001,-0.149,-1.449,-0.418l0.875,1.37c0.189,0.031,0.38,0.048,0.575,0.048c2.688,0,4.874,-3.021,4.874,-6.734S19.742,2.766,17.054,2.766zM31,1v5.186l-1.109,0.036h-0.008c-2.317,0,-4.203,-1.848,-4.203,-4.119V1H31zM30,2h-3.32v0.103c0,1.717,1.433,3.115,3.195,3.119l0.125,-0.004V2z" fill="#17AB4F"/>
  </g>
</svg>
