<?xml version="1.0" encoding="UTF-8"?>
<!DOCTYPE svg PUBLIC "-//W3C//DTD SVG 1.1//EN" "http://www.w3.org/Graphics/SVG/1.1/DTD/svg11.dtd">
<svg version="1.1" id="Layer_1" xmlns="http://www.w3.org/2000/svg" xmlns:xlink="http://www.w3.org/1999/xlink" x="0px" y="0px" width="32px" height="32px" viewBox="0 0 32 32" enable-background="new 0 0 32 32" xml:space="preserve">
  <g id="icon">
    <polygon points="21.793,24 15,28.024 15,24 12,24 12,7 26.5,7 26.5,1.5 1.5,1.5 1.5,30.5 26.5,30.5 26.5,24" fill="#FFFFFF" stroke-linejoin="miter"/>
    <polygon points="26,24 26,30 2,30 2,2 26,2 26,7 27,7 27,1 1,1 1,31 27,31 27,24" fill="#383838" stroke-linejoin="miter"/>
    <path d="M12,12H5v-1h7V12zM11,9H5v1h6V9zM12,13H5v1h7V13zM12,15H5v1h7V15z" fill="#383838"/>
    <path d="M24,24v4h-8.959l1.688,-1H23v-3H24zM15,27H5v-5h7v-1H4v7h11V27z" fill="#787979"/>
    <rect x="4.5" y="4.5" width="19" height="2" fill="#BEE2E5"/>
    <path d="M24,7V4H4v3h8H24zM5,5h18v1H5V5z" fill="#21B4C9"/>
    <path d="M13.5,8.5v14h3v2.892L21.382,22.5H30.5V8.5H13.5z" fill="#FFFFFF" stroke="#383838" stroke-width="1" stroke-miterlimit="1"/>
    <path d="M19.916,18.392c0.15,0.148,0.305,0.282,0.466,0.401c0.161,0.119,0.335,0.218,0.522,0.296c0.187,0.078,0.393,0.138,0.617,0.178c0.224,0.04,0.476,0.057,0.757,0.048l0.132,-0.004c0.388,-0.023,0.734,-0.099,1.036,-0.228c0.302,-0.129,0.555,-0.298,0.76,-0.507c0.205,-0.208,0.357,-0.447,0.458,-0.716c0.1,-0.269,0.145,-0.556,0.134,-0.862c-0.012,-0.32,-0.089,-0.583,-0.231,-0.788c-0.142,-0.205,-0.325,-0.375,-0.548,-0.508c-0.224,-0.133,-0.475,-0.241,-0.755,-0.324c-0.28,-0.083,-0.564,-0.161,-0.851,-0.236l-0.128,-0.034c-0.255,-0.069,-0.502,-0.143,-0.739,-0.223c-0.238,-0.08,-0.449,-0.183,-0.634,-0.309c-0.185,-0.126,-0.335,-0.281,-0.45,-0.467c-0.115,-0.186,-0.178,-0.416,-0.188,-0.688c-0.008,-0.226,0.029,-0.444,0.111,-0.657c0.082,-0.212,0.21,-0.401,0.382,-0.566c0.172,-0.166,0.386,-0.301,0.641,-0.405c0.255,-0.104,0.551,-0.165,0.887,-0.183l0.126,-0.004c0.321,-0.002,0.59,0.03,0.807,0.098c0.217,0.068,0.396,0.144,0.538,0.227c0.141,0.083,0.25,0.159,0.324,0.228c0.075,0.069,0.4,0.366,0.4,0.366M22.5,10.2v10.6" fill="#FFFFFF" stroke="#228BCB" stroke-width="1.1" stroke-miterlimit="1"/>
  </g>
</svg>
