<?xml version="1.0" encoding="UTF-8"?>
<!DOCTYPE svg PUBLIC "-//W3C//DTD SVG 1.1//EN" "http://www.w3.org/Graphics/SVG/1.1/DTD/svg11.dtd">
<svg version="1.1" id="Layer_1" xmlns="http://www.w3.org/2000/svg" xmlns:xlink="http://www.w3.org/1999/xlink" x="0px" y="0px" width="32px" height="32px" viewBox="0 0 32 32" enable-background="new 0 0 32 32" xml:space="preserve">
  <g id="icon">
    <path d="M30.5,6.5v20H16.8v-0.986c0.137,-0.054,0.272,-0.111,0.403,-0.17c1.932,-0.863,2.997,-2.098,2.997,-3.478v-2.799c0.019,-0.14,0.029,-0.283,0.029,-0.425c0,-0.892,-0.385,-2.568,-2.962,-3.764c-1.498,-0.696,-3.46,-1.079,-5.525,-1.079c-1.931,0,-3.777,0.334,-5.242,0.944V6.5H30.5z" fill="#FFFFFF"/>
    <path d="M31,6v21H16.8v-1h13.2V7H7v7.553c-0.278,0.099,-0.547,0.206,-0.801,0.323c-0.069,0.032,-0.133,0.064,-0.199,0.096V6H31z" fill="#383838"/>
    <path d="M30.5,1.5v5H6.5V1.5H30.5z" fill="#92CBEE"/>
    <path d="M6,1v6h25V1H6zM30,6H7V2h23V6z" fill="#0964B0"/>
    <path d="M19,24.229V26h-1v-1.061C18.38,24.719,18.715,24.481,19,24.229zM25,12v4h5v1h-5v4h5v1h-5v4h-1v-4h-3.803c0.002,-0.044,0.003,-0.089,0.003,-0.133V21h3.8v-4h-4.212c-0.324,-0.576,-0.874,-1.187,-1.788,-1.734V12h-5v1.849c-0.329,-0.025,-0.663,-0.041,-1,-0.046V12H7v-1h5V7h1v4h5V7h1v4h5V7h1v4h5v1H25zM24,12h-5v4h5V12z" fill="#787979" opacity="0.6"/>
    <path d="M15.1,24.5c0,0,0,2.836,0,3.174c0,1.305,-3.041,2.821,-6.798,2.821c-3.757,0,-6.802,-1.516,-6.802,-2.806C1.5,27.4,1.5,24.5,1.5,24.5M15.123,24.493c0,1.713,-3.012,2.859,-6.786,2.859c-3.775,0,-6.835,-1.146,-6.835,-2.859c0,-1.012,1.304,-2.137,3.404,-2.589M18.5,18.7c0,0,0,2.825,0,3.167c0,1.323,-3.041,2.859,-6.798,2.859c-3.757,0,-6.802,-1.536,-6.802,-2.843c0,-0.293,0,-3.182,0,-3.182M11.742,15.5c3.775,0,6.786,1.407,6.786,3.143s-3.012,2.897,-6.786,2.897c-3.775,0,-6.835,-1.162,-6.835,-2.897S7.968,15.5,11.742,15.5z" fill="#FFFFFF" stroke="#ED8730" stroke-width="1" stroke-miterlimit="1"/>
  </g>
</svg>
