<?xml version="1.0" encoding="UTF-8"?>
<!DOCTYPE svg PUBLIC "-//W3C//DTD SVG 1.1//EN" "http://www.w3.org/Graphics/SVG/1.1/DTD/svg11.dtd">
<svg version="1.1" id="Layer_1" xmlns="http://www.w3.org/2000/svg" xmlns:xlink="http://www.w3.org/1999/xlink" x="0px" y="0px" width="32px" height="32px" viewBox="0 0 32 32" enable-background="new 0 0 32 32" xml:space="preserve">
  <g id="icon">
    <path d="M1,4h30v24H1V4z" fill="#7BA3D6"/>
    <path d="M16,14.558L12.927,11.5H16V8.5h-3.223L16,5.342V4h-1.677L10,8.158V4H7v3.958L2.677,4H1l0,0v1.342L4.323,8.5H1v3h3.073L1,14.658V16h1.677L7,11.842V16h3v-4.158L14.323,16H16V14.558z" fill="#FFFFFF"/>
    <path d="M6.768,11.5l-4.65,4.5H1l4.65,-4.5H6.768zM11.35,8.5L16,4h-1.118l-4.65,4.5H11.35zM4.882,8.5L1,4.894V4l5,4.5H4.882zM16,16v-0.994L12.368,11.5H11.25L16,16zM9.5,16H7.5v-5H1V9h6.5V4h2v5h6.5v2H9.5V16z" fill="#F3797F"/>
    <path d="M20,13h7v5.746c0,0.923,-0.253,1.533,-0.773,1.867c-0.203,0.13,-0.421,0.264,-0.651,0.405c-0.623,0.383,-1.267,0.779,-1.673,1.133c-0.123,0.107,-0.272,0.242,-0.404,0.365c-0.133,-0.122,-0.282,-0.258,-0.405,-0.365c-0.407,-0.355,-1.052,-0.752,-1.675,-1.136c-0.222,-0.137,-0.442,-0.272,-0.644,-0.402c-0.686,-0.44,-0.774,-1.165,-0.774,-1.747L20,13L20,13z" fill="#F3797F"/>
    <path d="M20.774,20.613c0.203,0.13,0.422,0.265,0.644,0.402c0.623,0.384,1.268,0.782,1.675,1.136c0.123,0.107,0.272,0.242,0.405,0.365c0.133,-0.122,0.281,-0.258,0.404,-0.365c0.407,-0.354,1.051,-0.75,1.673,-1.133c0.23,-0.142,0.447,-0.275,0.651,-0.405c0.52,-0.334,0.773,-0.944,0.773,-1.867v-3.394c-0.284,0.175,-0.406,0.495,-0.847,0.495c-0.608,0,-0.773,-0.607,-1.38,-0.607c-0.608,0,-0.807,0.607,-1.415,0.607c-0.513,0,-0.94,-0.607,-1.408,-0.607c-0.468,0,-0.985,0.607,-1.406,0.607c-0.208,0,-0.376,-0.149,-0.542,-0.299v3.318C20,19.448,20.088,20.173,20.774,20.613z" fill="#FFFFFF"/>
    <path d="M20,18.249v-1.345c0.167,0.151,0.334,0.3,0.542,0.3c0.421,0,0.939,-0.608,1.406,-0.608c0.469,0,0.895,0.608,1.408,0.608c0.609,0,0.808,-0.608,1.415,-0.608c0.608,0,0.773,0.608,1.38,0.608c0.441,0,0.563,-0.32,0.847,-0.496v1.214c-0.292,0.137,-0.495,0.45,-0.898,0.45c-0.514,0,-1.027,-0.513,-1.355,-0.513s-0.982,0.513,-1.497,0.513c-0.514,0,-0.84,-0.513,-1.214,-0.513c-0.375,0,-1.075,0.513,-1.636,0.513C20.221,18.372,20.098,18.32,20,18.249zM27,18.716c-0.343,0.155,-0.409,0.545,-0.895,0.545c-0.609,0,-0.749,-0.608,-1.356,-0.608c-0.609,0,-0.796,0.608,-1.403,0.608c-0.515,0,-0.936,-0.608,-1.405,-0.608c-0.466,0,-0.981,0.608,-1.401,0.608c-0.173,0,-0.354,-0.103,-0.537,-0.224c0.017,0.467,0.115,0.993,0.527,1.385c0.535,-0.067,1.159,-0.505,1.506,-0.505c0.374,0,0.7,0.514,1.214,0.514c0.515,0,1.169,-0.514,1.497,-0.514c0.327,0,0.84,0.514,1.355,0.514c0.218,0,0.378,-0.093,0.525,-0.2c0.25,-0.352,0.373,-0.842,0.373,-1.485V18.716zM23.903,22.151c0.322,-0.28,0.793,-0.587,1.284,-0.893c-0.122,-0.074,-0.26,-0.127,-0.438,-0.127c-0.609,0,-0.796,0.608,-1.403,0.608c-0.515,0,-0.936,-0.608,-1.404,-0.608c-0.083,0,-0.167,0.02,-0.251,0.052c0.533,0.331,1.055,0.665,1.403,0.968c0.123,0.107,0.272,0.242,0.405,0.365C23.631,22.394,23.78,22.258,23.903,22.151z" fill="#7BA3D6"/>
    <path d="M23.499,23.889l-0.344,-0.326c-0.004,-0.004,-0.441,-0.418,-0.717,-0.657c-0.346,-0.301,-0.955,-0.677,-1.544,-1.04c-0.227,-0.14,-0.451,-0.278,-0.659,-0.411C19,20.663,19,19.31,19,18.866V12h9v6.746c0,1.272,-0.415,2.184,-1.234,2.709c-0.211,0.135,-0.442,0.277,-0.666,0.415c-0.588,0.362,-1.197,0.736,-1.541,1.036c-0.275,0.24,-0.712,0.654,-0.717,0.658L23.499,23.889zM20,13v5.866c0,0.582,0.088,1.307,0.774,1.747c0.203,0.13,0.422,0.265,0.644,0.402c0.623,0.384,1.268,0.782,1.675,1.136c0.123,0.107,0.272,0.242,0.405,0.365c0.133,-0.122,0.281,-0.258,0.404,-0.365c0.407,-0.354,1.051,-0.75,1.673,-1.133c0.23,-0.142,0.447,-0.275,0.651,-0.405c0.52,-0.334,0.773,-0.944,0.773,-1.867V13H20z" fill="#FFFFFF"/>
    <rect x="1.5" y="4.5" width="29" height="23" fill="none" stroke="#000000" stroke-width="1" stroke-miterlimit="1" opacity="0.35"/>
  </g>
</svg>
