<?xml version="1.0" encoding="UTF-8"?>
<!DOCTYPE svg PUBLIC "-//W3C//DTD SVG 1.1//EN" "http://www.w3.org/Graphics/SVG/1.1/DTD/svg11.dtd">
<svg version="1.1" id="Layer_1" xmlns="http://www.w3.org/2000/svg" xmlns:xlink="http://www.w3.org/1999/xlink" x="0px" y="0px" width="32px" height="32px" viewBox="0 0 32 32" enable-background="new 0 0 32 32" xml:space="preserve">
  <g id="icon">
    <rect x="1" y="4" width="30" height="7" fill="#7BA3D6"/>
    <rect x="1" y="21" width="30" height="7" fill="#7BA3D6"/>
    <rect x="1" y="11" width="30" height="10" fill="#FFFFFF"/>
    <path d="M15.079,17.479l0.349,-1.146l-0.897,-0.697h1.146l0.349,-1.146l0.349,1.146h1.146l-0.897,0.697l0.349,1.146l-0.946,-0.697L15.079,17.479zM11.044,14.291l0.946,0.697l-0.349,-1.146l0.897,-0.697h-1.146L11.044,12l-0.349,1.146H9.55l0.897,0.697l-0.349,1.146L11.044,14.291zM21.006,14.291l0.946,0.697l-0.349,-1.146l0.897,-0.697h-1.146L21.006,12l-0.349,1.146h-1.146l0.897,0.697l-0.349,1.146L21.006,14.291zM11.044,19.272l0.946,0.697l-0.349,-1.146l0.897,-0.697h-1.146l-0.349,-1.146l-0.349,1.146H9.55l0.897,0.697l-0.349,1.146L11.044,19.272zM21.006,19.272l0.946,0.697l-0.349,-1.146l0.897,-0.697h-1.146l-0.349,-1.146l-0.349,1.146H19.51l0.897,0.697l-0.349,1.146L21.006,19.272z" fill="#7BA3D6"/>
    <rect x="1.5" y="4.5" width="29" height="23" fill="none" stroke="#000000" stroke-width="1" stroke-miterlimit="1" opacity="0.35"/>
  </g>
</svg>
