<?xml version="1.0" encoding="UTF-8"?>
<!DOCTYPE svg PUBLIC "-//W3C//DTD SVG 1.1//EN" "http://www.w3.org/Graphics/SVG/1.1/DTD/svg11.dtd">
<svg version="1.1" id="Layer_1" xmlns="http://www.w3.org/2000/svg" xmlns:xlink="http://www.w3.org/1999/xlink" x="0px" y="0px" width="32px" height="32px" viewBox="0 0 32 32" enable-background="new 0 0 32 32" xml:space="preserve">
  <g id="icon">
    <rect x="1" y="20" width="30" height="8" fill="#64C080"/>
    <rect x="1" y="12" width="30" height="8" fill="#F3797F"/>
    <rect x="1" y="4" width="30" height="8" fill="#77B7C9"/>
    <path d="M16.374,19.354c-1.825,0,-3.304,-1.479,-3.304,-3.304s1.479,-3.304,3.304,-3.304c0.722,0,1.388,0.234,1.931,0.627c-0.742,-0.839,-1.824,-1.372,-3.033,-1.372c-2.236,0,-4.049,1.813,-4.049,4.049s1.813,4.05,4.049,4.05c1.209,0,2.291,-0.533,3.033,-1.373C17.763,19.12,17.097,19.354,16.374,19.354M22.031,16.177l-1.343,0.309l-0.122,1.373l-0.709,-1.182l-1.344,0.309l0.905,-1.04l-0.709,-1.182l1.268,0.54l0.905,-1.04l-0.121,1.373L22.031,16.177z" fill="#FFFFFF"/>
    <rect x="1.5" y="4.5" width="29" height="23" fill="none" stroke="#000000" stroke-width="1" stroke-miterlimit="1" opacity="0.35"/>
  </g>
</svg>
