<?xml version="1.0" encoding="UTF-8"?>
<!DOCTYPE svg PUBLIC "-//W3C//DTD SVG 1.1//EN" "http://www.w3.org/Graphics/SVG/1.1/DTD/svg11.dtd">
<svg version="1.1" id="Layer_1" xmlns="http://www.w3.org/2000/svg" xmlns:xlink="http://www.w3.org/1999/xlink" x="0px" y="0px" width="32px" height="32px" viewBox="0 0 32 32" enable-background="new 0 0 32 32" xml:space="preserve">
  <g id="icon">
    <path d="M1,4h30v24H1V4z" fill="#7AA2D6"/>
    <path d="M16,5.442L12.927,8.5H16v3h-3.223L16,14.658V16h-1.677L10,11.842V16H7v-3.958L2.677,16H1l0,0v-1.342L4.323,11.5H1V8.5h3.073L1,5.342V4h1.677L7,8.158V4h3v4.158L14.323,4H16V5.442z" fill="#FFFFFF"/>
    <path d="M6.768,11.5l-4.65,4.5H1l4.65,-4.5H6.768zM11.35,8.5L16,4h-1.118l-4.65,4.5H11.35zM4.882,8.5L1,4.894V4l5,4.5H4.882zM16,16v-0.994L12.368,11.5H11.25L16,16zM9.5,16H7.5v-5H1V9h6.5V4h2v5h6.5v2H9.5V16z" fill="#F3797F"/>
    <rect x="1.5" y="4.5" width="29" height="23" fill="none" stroke="#000000" stroke-width="1" stroke-miterlimit="1" opacity="0.35"/>
    <path d="M23.389,24.828c-0.033,-0.018,-0.067,-0.036,-0.103,-0.055c-0.39,-0.206,-0.981,-0.518,-2.293,-1.818c-1.479,-1.464,-1.907,-3.364,-1.907,-8.473v-0.452l0.43,0.139c0.102,0.033,0.196,0.064,0.286,0.094c0.527,0.176,0.845,0.282,1.507,0.282c0.095,0,0.198,-0.002,0.306,-0.007c0.829,-0.027,1.295,-0.254,1.642,-0.472l0.149,-0.094l0.161,0.072c0.797,0.358,1.398,0.539,1.787,0.539c0.034,0,0.066,-0.001,0.096,-0.004l0.016,-0.002l0.036,0c0.745,0,1.157,-0.121,2.018,-0.486l0.457,-0.193v0.496c0,5.608,-0.689,7.352,-1.961,8.608c-1.275,1.259,-1.834,1.563,-2.283,1.807l-0.187,0.102L23.389,24.828z" fill="#F7CE72"/>
    <path d="M19.663,14.802c0,1.565,-0.094,3.697,0.241,4.93c0.336,1.239,0.413,1.42,0.666,1.853l5.887,-0.043c0.364,-0.622,0.382,-1.008,0.652,-2.003c0.269,-0.991,0.337,-3.2,0.344,-4.846c-0.592,0.296,-1.367,0.507,-2.12,0.414c-0.603,-0.043,-1.161,-0.173,-1.81,-0.519c-0.563,0.318,-0.759,0.463,-1.689,0.5C21.111,15.123,20.524,15.179,19.663,14.802L19.663,14.802z" fill="#FFFFFF"/>
    <path d="M20.582,21.551c0.419,0.831,2.394,2.423,2.972,2.752c0.659,-0.376,2.402,-1.949,2.888,-2.752H20.582L20.582,21.551z" fill="#76B6C9"/>
    <path d="M22.04,18.231c-0.041,0.219,-0.019,0.811,0.135,0.637v0c0.3,-0.348,0.449,-1.058,0.582,-1.299c0.307,0.07,0.304,0.116,0.68,-0.101c-0.506,-0.135,-0.544,-0.123,-0.602,-0.343c0.212,-0.651,1.378,-0.784,1.787,-0.536c0.422,0.24,0.154,0.292,0.732,0.68c0.084,-0.351,-0.325,-0.506,-0.386,-0.769c0.087,-0.203,0.476,-0.161,0.691,-0.392c-0.134,-0.192,-0.555,0.048,-0.738,0.079c-0.659,0.139,-1.56,-0.55,-2.114,-0.332c-0.199,-0.141,-0.24,-0.36,-0.231,-0.656c-0.432,0.36,-0.216,0.733,-0.314,0.911c-0.254,0.433,-0.579,0.866,-0.407,1.436C21.984,17.978,22.081,17.892,22.04,18.231zM21.989,17.531c0.047,-0.024,0.106,-0.007,0.131,0.038c0.025,0.045,0.007,0.1,-0.041,0.124c-0.047,0.024,-0.106,0.007,-0.131,-0.038S21.941,17.555,21.989,17.531zM24.105,19.551c0.22,-0.08,0.746,-0.404,0.509,-0.439l0,0c-0.471,-0.062,-1.193,0.185,-1.481,0.203c-0.096,-0.284,-0.052,-0.305,-0.443,-0.496c0.139,0.478,0.169,0.502,0,0.663c-0.701,0.165,-1.425,-0.706,-1.411,-1.163c0,-0.465,0.186,-0.275,0.239,-0.941c-0.363,0.114,-0.292,0.524,-0.499,0.709c-0.229,0.035,-0.392,-0.3,-0.713,-0.354c-0.105,0.208,0.331,0.422,0.454,0.554c0.467,0.46,0.307,1.543,0.792,1.877c-0.025,0.233,-0.204,0.38,-0.476,0.526c0.55,0.162,0.778,-0.205,0.99,-0.218c0.525,-0.019,1.086,0.018,1.515,-0.415C23.904,19.728,23.776,19.694,24.105,19.551zM23.63,19.924c-0.028,0.043,-0.087,0.057,-0.133,0.031c-0.046,-0.026,-0.061,-0.082,-0.033,-0.126c0.028,-0.043,0.087,-0.057,0.133,-0.031C23.642,19.824,23.657,19.88,23.63,19.924zM26.216,18.477c-0.288,-0.414,-0.543,-0.887,-1.157,-1.009c-0.467,-0.093,-0.432,0.028,-0.731,-0.164c-0.186,-0.137,-0.752,-0.395,-0.661,-0.185l0,0c0.186,0.413,0.783,0.868,0.947,1.091c-0.209,0.223,-0.251,0.199,-0.223,0.614c0.363,-0.358,0.37,-0.395,0.603,-0.341c0.512,0.481,0.092,1.514,-0.331,1.739c-0.423,0.24,-0.346,-0.008,-0.98,0.292c0.291,0.234,0.627,-0.034,0.902,0.037c0.149,0.167,-0.071,0.472,0.045,0.758c0.243,-0.022,0.214,-0.484,0.27,-0.652c0.178,-0.614,1.245,-1.043,1.3,-1.606c0.225,-0.1,0.45,-0.031,0.724,0.114C26.788,18.636,26.337,18.642,26.216,18.477zM24.912,17.679c-0.054,0,-0.097,-0.041,-0.097,-0.092c0,-0.051,0.044,-0.092,0.097,-0.092c0.054,0,0.097,0.041,0.097,0.092C25.009,17.638,24.966,17.679,24.912,17.679z" fill="#F8991D"/>
  </g>
</svg>
