<?xml version="1.0" encoding="UTF-8"?>
<!DOCTYPE svg PUBLIC "-//W3C//DTD SVG 1.1//EN" "http://www.w3.org/Graphics/SVG/1.1/DTD/svg11.dtd">
<svg version="1.1" id="Layer_1" xmlns="http://www.w3.org/2000/svg" xmlns:xlink="http://www.w3.org/1999/xlink" x="0px" y="0px" width="32px" height="32px" viewBox="0 0 32 32" enable-background="new 0 0 32 32" xml:space="preserve">
  <g id="icon">
    <rect x="1" y="4" width="15" height="24" fill="#F7CE73"/>
    <rect x="16" y="4" width="15" height="24" fill="#FFFFFF"/>
    <path d="M22.28,9.729l-0.234,-1.124l0.702,0.562l0.702,-0.562l0.702,0.562l0.702,-0.562l-0.234,1.124H22.28zM23.45,9.822l-0.702,0.656l-0.702,-0.656v1.311h1.405h1.405V9.822l-0.702,0.656L23.45,9.822zM23.45,11.134l-0.702,0.702l-0.702,-0.702v1.405h2.81v-1.405l-0.702,0.702L23.45,11.134zM23.685,7.902c0,-0.388,-0.105,-0.702,-0.234,-0.702s-0.234,0.314,-0.234,0.702s0.105,0.702,0.234,0.702C23.58,8.605,23.685,8.29,23.685,7.902z" fill="#F7CE73"/>
    <path d="M25.932,12.445c0.047,-0.14,0.562,-0.656,1.077,-1.077l-0.562,-0.749c-0.375,0.281,-1.264,1.03,-1.405,1.592c-0.094,0.468,0.14,0.983,0.375,1.499c0.14,0.281,0.375,0.749,0.328,0.89c-0.047,0.14,-0.187,0.375,-0.328,0.515c-0.278,-0.278,-0.601,-1.333,-0.789,-2.397c0.143,-0.051,0.227,-0.113,0.227,-0.178c0,-0.181,-0.629,-0.328,-1.405,-0.328c-0.776,0,-1.405,0.147,-1.405,0.328c0,0.071,0.098,0.137,0.264,0.191c-0.192,1.091,-0.552,2.157,-0.779,2.385c-0.14,-0.14,-0.281,-0.375,-0.328,-0.515c0,-0.187,0.187,-0.609,0.328,-0.89c0.234,-0.562,0.468,-1.03,0.375,-1.499c-0.14,-0.515,-1.03,-1.311,-1.405,-1.592l-0.562,0.749c0.515,0.375,1.03,0.89,1.077,1.077c0,0.14,-0.187,0.656,-0.328,0.89c-0.234,0.515,-0.468,0.983,-0.375,1.452c0.047,0.328,0.562,1.311,1.218,1.311c0.047,0,0.094,0,0.14,-0.047c0.913,-0.137,1.381,-2.009,1.577,-3.188c0.066,0.002,0.133,0.004,0.202,0.004c0.082,0,0.162,-0.002,0.241,-0.005c0.191,1.175,0.613,3.097,1.585,3.236c0.047,0,0.047,0,0.094,0c0.656,0,1.124,-0.983,1.264,-1.358c0.094,-0.421,-0.14,-0.937,-0.375,-1.452C26.12,13.053,25.886,12.585,25.932,12.445z" fill="#B5B5B5"/>
    <path d="M26.447,12.538l-5.104,5.432c-0.656,-0.421,-1.499,-0.328,-2.107,0.281c-0.656,0.749,-0.656,1.92,0,2.622c0.656,0.749,1.779,0.749,2.435,0c0.562,-0.609,0.656,-1.545,0.281,-2.248l4.495,-4.776l0.609,0.656l0.609,-0.656L26.447,12.538zM21.343,19.844c-0.187,0.14,-0.421,0.14,-0.562,0c0.14,0.187,0.187,0.421,0,0.562c-0.187,0.14,-0.421,0.14,-0.562,0c-0.14,-0.187,-0.14,-0.421,0,-0.562c-0.187,0.14,-0.421,0.14,-0.562,0c-0.14,-0.187,-0.14,-0.421,0,-0.562c0.187,-0.14,0.421,-0.14,0.562,0c-0.14,-0.187,-0.14,-0.421,0,-0.562c0.187,-0.14,0.421,-0.187,0.562,0c0.14,0.187,0.14,0.421,0,0.562c0.14,-0.14,0.375,-0.14,0.562,0C21.484,19.469,21.484,19.703,21.343,19.844z" fill="#DBB472"/>
    <path d="M27.665,18.251c-0.609,-0.609,-1.452,-0.702,-2.107,-0.281l-5.104,-5.432l-1.217,1.311l0.609,0.656l0.609,-0.656l4.495,4.776c-0.375,0.702,-0.281,1.639,0.281,2.248c0.656,0.749,1.779,0.749,2.435,0C28.321,20.171,28.321,19.001,27.665,18.251zM27.244,19.844c-0.14,0.14,-0.375,0.14,-0.562,0c0.14,0.14,0.14,0.375,0,0.562c-0.14,0.14,-0.375,0.14,-0.562,0s-0.14,-0.375,0,-0.562c-0.14,0.14,-0.375,0.14,-0.562,0c-0.14,-0.14,-0.14,-0.375,0,-0.562c0.187,-0.14,0.421,-0.14,0.562,0c-0.14,-0.14,-0.14,-0.375,0,-0.562c0.14,-0.14,0.375,-0.14,0.562,0c0.14,0.14,0.14,0.375,0,0.562c0.14,-0.14,0.375,-0.14,0.562,0C27.384,19.422,27.384,19.656,27.244,19.844z" fill="#B5B5B5"/>
    <path d="M25.511,19.469c-0.602,0.083,-1.214,0.127,-1.826,0.137v-1.721c0.508,0.568,1.074,1.087,1.686,1.538c0.14,0.14,0.281,-0.094,0.094,-0.234c-0.658,-0.475,-1.258,-1.037,-1.779,-1.661v-0.202c0.063,-0.081,0.127,-0.162,0.187,-0.244h0.843v-0.468h-1.03V15.35h-0.468v0.749h-0.468v1.592h0.329c-0.488,0.559,-1.04,1.065,-1.64,1.499c-0.187,0.14,-0.047,0.375,0.094,0.234c0.612,-0.451,1.178,-0.969,1.686,-1.538v1.721c-0.613,-0.009,-1.224,-0.053,-1.826,-0.137c-0.281,-0.047,-0.375,0.281,-0.094,0.328c0.64,0.103,1.28,0.158,1.92,0.17v0.86c-0.281,0,-0.468,0.187,-0.468,0.468V22.7h0.937v-0.421h0.468v-1.405c0,-0.281,-0.187,-0.468,-0.468,-0.468v-0.437c0.656,-0.01,1.311,-0.066,1.967,-0.171C25.932,19.703,25.792,19.422,25.511,19.469z" fill="#F3797F"/>
    <path d="M21.858,17.643c0.31,0,0.562,0.252,0.562,0.562s-0.252,0.562,-0.562,0.562c-0.31,0,-0.562,-0.252,-0.562,-0.562S21.548,17.643,21.858,17.643zM18.58,20.921c0,0.31,0.252,0.562,0.562,0.562s0.562,-0.252,0.562,-0.562s-0.252,-0.562,-0.562,-0.562S18.58,20.61,18.58,20.921zM18.58,18.205c0,0.31,0.252,0.562,0.562,0.562s0.562,-0.252,0.562,-0.562s-0.252,-0.562,-0.562,-0.562S18.58,17.894,18.58,18.205zM21.296,20.921c0,0.31,0.252,0.562,0.562,0.562c0.31,0,0.562,-0.252,0.562,-0.562s-0.252,-0.562,-0.562,-0.562C21.548,20.359,21.296,20.61,21.296,20.921z" fill="#B5B5B5"/>
    <path d="M27.197,18.205c0,-0.31,0.252,-0.562,0.562,-0.562s0.562,0.252,0.562,0.562c0,0.31,-0.252,0.562,-0.562,0.562C27.448,18.766,27.197,18.515,27.197,18.205zM25.043,20.359c-0.31,0,-0.562,0.252,-0.562,0.562s0.252,0.562,0.562,0.562c0.31,0,0.562,-0.252,0.562,-0.562S25.353,20.359,25.043,20.359zM25.043,17.643c-0.31,0,-0.562,0.252,-0.562,0.562c0,0.31,0.252,0.562,0.562,0.562c0.31,0,0.562,-0.252,0.562,-0.562C25.605,17.894,25.353,17.643,25.043,17.643zM27.759,20.359c-0.31,0,-0.562,0.252,-0.562,0.562s0.252,0.562,0.562,0.562s0.562,-0.252,0.562,-0.562S28.069,20.359,27.759,20.359zM19.751,11.649h0.937v-1.03h-0.937V11.649zM26.213,11.649h0.937v-1.03h-0.937V11.649zM22.748,13.241h-0.281v0.375h-0.421v0.281h0.421v0.094h0.281v-0.094h0.375v-0.281h-0.375V13.241zM24.668,13.756v-0.281h-0.234v-0.281h-0.281v0.281h-0.234v0.281h0.234v0.515h0.281v-0.515H24.668z" fill="#F7CE73"/>
    <polygon points="26.494,13.99 25.698,14.692 25.183,13.241 25.979,12.819" fill="#B5B5B5" stroke-linejoin="miter"/>
    <polygon points="20.407,13.99 21.203,14.692 21.718,13.241 20.922,12.819" fill="#B5B5B5" stroke-linejoin="miter"/>
    <path d="M21.296,13.475l0.187,0.047l-0.047,0.281l-0.234,-0.047l-0.14,0.515l-0.234,-0.094l0.094,-0.515l-0.187,-0.047l0.094,-0.281l0.187,0.047l0.047,-0.234l0.281,0.094L21.296,13.475zM26.166,13.615l-0.094,-0.281l-0.187,0.047l-0.047,-0.234l-0.281,0.094l0.047,0.234l-0.187,0.047l0.047,0.281l0.234,-0.047l0.14,0.515l0.234,-0.094l-0.094,-0.515L26.166,13.615z" fill="#F7CE73"/>
    <rect x="1.5" y="4.5" width="29" height="23" fill="none" stroke="#000000" stroke-width="1" stroke-miterlimit="1" opacity="0.35"/>
  </g>
</svg>
