<?xml version="1.0" encoding="UTF-8"?>
<!DOCTYPE svg PUBLIC "-//W3C//DTD SVG 1.1//EN" "http://www.w3.org/Graphics/SVG/1.1/DTD/svg11.dtd">
<svg version="1.1" id="Layer_1" xmlns="http://www.w3.org/2000/svg" xmlns:xlink="http://www.w3.org/1999/xlink" x="0px" y="0px" width="32px" height="32px" viewBox="0 0 32 32" enable-background="new 0 0 32 32" xml:space="preserve">
  <g id="icon">
    <rect x="1" y="4" width="30" height="24" fill="#F3797F"/>
    <rect x="1" y="4" width="30" height="11.996" fill="#7BA3D6"/>
    <polygon points="1,4 1,28 16,15.996" fill="#FFFFFF" stroke-linejoin="miter"/>
    <path d="M3.973,7.117l-0.382,0.668l0.525,0.525L3.4,8.214l-0.382,0.668l-0.095,-0.715l-0.715,-0.095l0.668,-0.381l-0.095,-0.715l0.525,0.525L3.973,7.117zM3.353,23.712l-0.381,-0.668l-0.095,0.763l-0.763,0.143l0.715,0.286L2.733,25l0.525,-0.572l0.668,0.286l-0.381,-0.62l0.525,-0.572L3.353,23.712zM11.603,15.653v-0.715l-0.477,0.572l-0.715,-0.191l0.477,0.572l-0.477,0.572l0.715,-0.191l0.477,0.572v-0.715l0.715,-0.238L11.603,15.653zM9.075,15.176l-0.286,-0.238l-3.1,0.668h0.048l2.909,-0.763l-0.381,-0.238l-2.48,0.954l2.051,-1.717l-0.048,-0.429l-2.146,2.194h-0.048l2.146,-2.384l-0.048,-0.334l-0.334,0.048l-1.907,2.48v-0.048l1.764,-2.527l-0.429,0.048l-1.288,2.337l0.477,-2.67l-0.286,-0.286l-0.286,3.1v0.048l0.095,-3.243l-0.238,-0.238l-0.238,0.238l0.095,3.243v-0.048l-0.238,-3.052l-0.286,0.286l0.477,2.67l-1.288,-2.337l-0.429,-0.048l1.764,2.527v0.048L3.162,12.89l-0.334,-0.048l-0.048,0.334l2.146,2.384h-0.048l-2.146,-2.194l-0.048,0.429l2.051,1.717l-2.48,-0.954l-0.334,0.238l2.909,0.763h0.048l-3.147,-0.62l-0.286,0.191l0.191,0.286l3.147,0.429h-0.048l-3.004,-0.286l0.238,0.334l2.67,-0.048l-2.48,1.001l-0.095,0.429l2.718,-1.335h0.048l-2.814,1.526L1.921,17.8l0.334,0.095l2.718,-1.717v0.048l-2.48,1.764l0.382,0.095l2.003,-1.764l-1.383,2.337l0.191,0.382l1.24,-2.766l0.048,-0.048L3.782,19.23l0.143,0.334l0.334,-0.143l1.001,-3.1v0.048l-0.811,2.957l0.382,-0.191l0.429,-2.671l0.429,2.671l0.381,0.191l-0.811,-2.957v-0.048l1.001,3.1l0.334,0.143l0.143,-0.334l-1.192,-3.004l0.048,0.048l1.24,2.766l0.191,-0.382l-1.335,-2.337l2.003,1.764l0.381,-0.095l-2.48,-1.764v-0.048l2.718,1.717l0.334,-0.095l-0.095,-0.334L5.736,15.94h0.048l2.718,1.335l-0.143,-0.429l-2.527,-0.906l2.67,0.048l0.238,-0.334l-3.004,0.286h-0.048l3.147,-0.429L9.075,15.176M3.114,15.892c0,1.185,0.961,2.146,2.146,2.146s2.146,-0.961,2.146,-2.146c0,-1.185,-0.961,-2.146,-2.146,-2.146S3.114,14.707,3.114,15.892z" fill="#F7CE73"/>
    <rect x="1.5" y="4.5" width="29" height="23" fill="none" stroke="#000000" stroke-width="1" stroke-miterlimit="1" opacity="0.35"/>
  </g>
</svg>
