<?xml version="1.0" encoding="UTF-8"?>
<!DOCTYPE svg PUBLIC "-//W3C//DTD SVG 1.1//EN" "http://www.w3.org/Graphics/SVG/1.1/DTD/svg11.dtd">
<svg version="1.1" id="Layer_1" xmlns="http://www.w3.org/2000/svg" xmlns:xlink="http://www.w3.org/1999/xlink" x="0px" y="0px" width="32px" height="32px" viewBox="0 0 32 32" enable-background="new 0 0 32 32" xml:space="preserve">
  <g id="icon">
    <rect x="1" y="20" width="30" height="8" fill="#64C080"/>
    <rect x="1" y="12" width="30" height="8" fill="#FFFFFF"/>
    <rect x="1" y="4" width="30" height="8" fill="#F7A57F"/>
    <path d="M16,12.5c-1.933,0,-3.5,1.567,-3.5,3.5s1.567,3.5,3.5,3.5s3.5,-1.567,3.5,-3.5S17.933,12.5,16,12.5zM19.003,16.603c-0.012,0.061,-0.026,0.121,-0.042,0.18l-1.78,-0.564l-0.536,-0.099c0.004,-0.023,0.007,-0.047,0.009,-0.071l0.527,0.039l1.881,-0.088l-1.881,-0.131l-0.529,0.059c-0.002,-0.016,-0.004,-0.031,-0.007,-0.047l0.536,-0.099l1.78,-0.564c0.015,0.057,0.029,0.115,0.04,0.173c-0.009,-0.001,-0.017,-0.002,-0.027,-0.002c-0.087,0.044,-0.175,0.131,-0.175,0.263c0.043,0.086,0.129,0.172,0.257,0.175c0.003,0.058,0.005,0.117,0.005,0.175c0,0.059,-0.002,0.117,-0.005,0.176c-0.118,0.003,-0.213,0.099,-0.213,0.218C18.844,16.494,18.911,16.577,19.003,16.603zM18.844,16.962c-0.121,0,-0.219,0.098,-0.219,0.219c0,0.082,0.046,0.153,0.113,0.19c-0.026,0.051,-0.053,0.102,-0.082,0.151l-1.563,-1.042l-0.493,-0.217c0.007,-0.016,0.013,-0.033,0.019,-0.05l0.518,0.179l1.823,0.391c-0.017,0.063,-0.036,0.126,-0.057,0.188C18.885,16.966,18.865,16.962,18.844,16.962zM18.554,17.69c-0.031,-0.017,-0.066,-0.027,-0.104,-0.027c-0.121,0,-0.219,0.098,-0.219,0.219c0,0.058,0.023,0.111,0.06,0.15c-0.034,0.038,-0.069,0.076,-0.104,0.112l-1.268,-1.399l-0.409,-0.331c0.007,-0.009,0.014,-0.018,0.02,-0.027l0.432,0.314l1.693,0.825C18.623,17.581,18.59,17.636,18.554,17.69zM18.45,14.337c0.038,0,0.073,-0.01,0.104,-0.027c0.036,0.054,0.069,0.109,0.102,0.165L16.963,15.3l-0.432,0.314c-0.007,-0.009,-0.013,-0.018,-0.02,-0.027l0.409,-0.331l1.268,-1.399c0.036,0.036,0.07,0.074,0.104,0.112c-0.037,0.039,-0.06,0.092,-0.06,0.15C18.231,14.24,18.329,14.337,18.45,14.337zM18.844,15.038c0.021,0,0.041,-0.004,0.06,-0.009c0.021,0.062,0.04,0.124,0.057,0.188l-1.823,0.391l-0.518,0.179c-0.006,-0.017,-0.012,-0.033,-0.019,-0.05l0.493,-0.217l1.563,-1.042c0.029,0.05,0.056,0.1,0.082,0.151c-0.067,0.037,-0.113,0.108,-0.113,0.19C18.625,14.94,18.723,15.038,18.844,15.038zM18.187,13.857l-1.399,1.224l-0.361,0.421c-0.013,-0.011,-0.027,-0.022,-0.041,-0.032l0.314,-0.432l0.825,-1.693c0.056,0.032,0.111,0.066,0.165,0.102c-0.017,0.031,-0.027,0.066,-0.027,0.104c0,0.121,0.098,0.219,0.219,0.219c0.058,0,0.111,-0.023,0.15,-0.06C18.085,13.756,18.137,13.806,18.187,13.857zM17.181,18.625c-0.121,0,-0.219,0.098,-0.219,0.219c0,0.021,0.004,0.041,0.009,0.06c-0.062,0.021,-0.124,0.04,-0.187,0.056l-0.347,-1.867l-0.194,-0.485c0.014,-0.005,0.027,-0.012,0.04,-0.018l0.241,0.503l0.998,1.563c-0.05,0.029,-0.1,0.056,-0.152,0.082C17.334,18.671,17.263,18.625,17.181,18.625zM16.244,15.391l0.194,-0.485l0.388,-1.855c0.044,0.012,0.088,0.026,0.131,0.04c-0.032,0.124,0.013,0.243,0.137,0.284c0.122,0.041,0.242,0.005,0.294,-0.105c0.046,0.023,0.091,0.048,0.135,0.073l-0.998,1.606l-0.232,0.464C16.277,15.405,16.261,15.398,16.244,15.391zM16.165,12.942c-0.011,0.113,0.07,0.214,0.185,0.214c0.125,0.042,0.249,-0.037,0.26,-0.158c0.072,0.015,0.142,0.032,0.212,0.052l-0.604,1.769l-0.099,0.536c-0.015,-0.003,-0.031,-0.005,-0.047,-0.007l0.059,-0.529L16,12.938l-0.088,1.881l0.039,0.527c-0.016,0.001,-0.032,0.003,-0.048,0.005l-0.079,-0.533l-0.608,-1.78c0.057,-0.015,0.114,-0.029,0.172,-0.04c-0.001,0.009,-0.002,0.017,-0.002,0.026c0.044,0.088,0.131,0.175,0.262,0.175c0.086,-0.043,0.172,-0.129,0.175,-0.257c0.058,-0.003,0.117,-0.005,0.175,-0.005C16.055,12.938,16.11,12.939,16.165,12.942zM14.863,18.625c-0.089,0,-0.166,0.054,-0.2,0.131c-0.063,-0.031,-0.125,-0.064,-0.186,-0.099l1.042,-1.606l0.208,-0.454c0.017,0.008,0.034,0.015,0.051,0.021l-0.172,0.477l-0.391,1.867c-0.05,-0.013,-0.099,-0.028,-0.148,-0.043c0.008,-0.023,0.014,-0.048,0.014,-0.074C15.081,18.723,14.983,18.625,14.863,18.625zM15.736,15.4l-0.217,-0.493l-1.042,-1.563c0.061,-0.035,0.122,-0.068,0.186,-0.099c0.034,0.077,0.111,0.131,0.2,0.131c0.121,0,0.219,-0.098,0.219,-0.219c0,-0.026,-0.005,-0.051,-0.014,-0.074c0.049,-0.016,0.098,-0.03,0.148,-0.043l0.391,1.867l0.172,0.477C15.764,15.388,15.75,15.393,15.736,15.4zM14.163,13.769c0.121,0,0.219,-0.098,0.219,-0.219c0,-0.046,-0.015,-0.089,-0.039,-0.124c0.044,-0.028,0.088,-0.055,0.133,-0.081l0.868,1.693l0.287,0.42c-0.015,0.01,-0.029,0.021,-0.043,0.032l-0.331,-0.409l-1.399,-1.268c0.044,-0.043,0.09,-0.085,0.137,-0.126C14.034,13.737,14.094,13.769,14.163,13.769zM13.728,18.053c0.051,-0.04,0.085,-0.102,0.085,-0.172c0,-0.121,-0.098,-0.219,-0.219,-0.219c-0.051,0,-0.097,0.018,-0.135,0.048c-0.07,-0.103,-0.132,-0.211,-0.189,-0.323c0.086,-0.029,0.149,-0.11,0.149,-0.206c0,-0.121,-0.098,-0.219,-0.219,-0.219c-0.036,0,-0.069,0.009,-0.099,0.025c-0.042,-0.122,-0.076,-0.248,-0.102,-0.376c0.113,-0.009,0.201,-0.102,0.201,-0.217c0,-0.121,-0.098,-0.219,-0.219,-0.219c-0.013,0,-0.026,0.002,-0.038,0.004c-0.003,-0.059,-0.006,-0.119,-0.006,-0.179c0,-0.06,0.002,-0.12,0.006,-0.179c0.012,0.002,0.025,0.004,0.038,0.004c0.121,0,0.219,-0.098,0.219,-0.219c0,-0.115,-0.089,-0.208,-0.201,-0.217c0.026,-0.129,0.061,-0.254,0.102,-0.376c0.03,0.015,0.063,0.025,0.099,0.025c0.121,0,0.219,-0.098,0.219,-0.219c0,-0.096,-0.062,-0.177,-0.149,-0.206c0.057,-0.111,0.119,-0.219,0.189,-0.323c0.037,0.029,0.084,0.048,0.135,0.048c0.121,0,0.219,-0.098,0.219,-0.219c0,-0.07,-0.034,-0.132,-0.085,-0.172c0.042,-0.046,0.085,-0.09,0.129,-0.134l1.268,1.443l0.375,0.319c-0.011,0.013,-0.021,0.026,-0.03,0.039l-0.432,-0.314l-1.662,-0.831l1.575,1.05l0.454,0.208c-0.008,0.017,-0.015,0.034,-0.021,0.051l-0.477,-0.172l-1.838,-0.394l1.794,0.569l0.493,0.095c-0.005,0.024,-0.008,0.049,-0.01,0.074l-0.484,-0.037L12.937,16l1.925,0.088l0.484,-0.037c0.002,0.025,0.005,0.05,0.01,0.074l-0.493,0.095l-1.794,0.569l1.838,-0.394l0.477,-0.172c0.006,0.017,0.013,0.034,0.021,0.051l-0.454,0.208l-1.575,1.05l1.662,-0.831l0.432,-0.314c0.01,0.013,0.02,0.027,0.03,0.039l-0.375,0.319l-1.269,1.4l1.4,-1.225l0.331,-0.409c0.014,0.011,0.028,0.022,0.043,0.032l-0.287,0.42l-0.868,1.693c-0.045,-0.026,-0.09,-0.053,-0.133,-0.081c0.025,-0.035,0.039,-0.078,0.039,-0.124c0,-0.121,-0.098,-0.219,-0.219,-0.219c-0.068,0,-0.129,0.032,-0.169,0.081C13.9,18.231,13.811,18.145,13.728,18.053zM15.821,19.057c0.002,-0.012,0.004,-0.025,0.004,-0.038c0,-0.121,-0.098,-0.219,-0.219,-0.219c-0.115,0,-0.208,0.089,-0.217,0.201c-0.058,-0.012,-0.115,-0.025,-0.172,-0.04l0.608,-1.78l0.079,-0.533c0.016,0.002,0.032,0.004,0.048,0.005l-0.039,0.527l0.088,1.881l0.131,-1.881l-0.059,-0.529c0.016,-0.002,0.031,-0.004,0.047,-0.007l0.099,0.536l0.564,1.78c-0.042,0.011,-0.085,0.021,-0.128,0.031c0,-0.006,0.001,-0.011,0.001,-0.017c-0.044,-0.088,-0.131,-0.175,-0.263,-0.175c-0.085,0.043,-0.17,0.128,-0.174,0.254c-0.073,0.005,-0.146,0.009,-0.219,0.009C15.94,19.062,15.88,19.06,15.821,19.057zM18.031,18.291c-0.039,-0.037,-0.092,-0.06,-0.15,-0.06c-0.121,0,-0.219,0.098,-0.219,0.219c0,0.038,0.01,0.073,0.027,0.104c-0.054,0.036,-0.109,0.069,-0.165,0.102L16.7,16.962l-0.314,-0.432c0.014,-0.01,0.028,-0.021,0.041,-0.032l0.361,0.421l1.399,1.224C18.137,18.194,18.085,18.244,18.031,18.291z" fill="#458DC1"/>
    <rect x="1.5" y="4.5" width="29" height="23" fill="none" stroke="#000000" stroke-width="1" stroke-miterlimit="1" opacity="0.35"/>
  </g>
</svg>
