<?xml version="1.0" encoding="UTF-8"?>
<!DOCTYPE svg PUBLIC "-//W3C//DTD SVG 1.1//EN" "http://www.w3.org/Graphics/SVG/1.1/DTD/svg11.dtd">
<svg version="1.1" id="Layer_1" xmlns="http://www.w3.org/2000/svg" xmlns:xlink="http://www.w3.org/1999/xlink" x="0px" y="0px" width="32px" height="32px" viewBox="0 0 32 32" enable-background="new 0 0 32 32" xml:space="preserve">
  <g id="icon">
    <path d="M1,4h30v24H1V4z" fill="#77B7C9"/>
    <path d="M1,4h15v12H1V4z" fill="#7AA2D6"/>
    <path d="M16,14.558L12.927,11.5H16V8.5h-3.223L16,5.342V4h-1.677L10,8.158V4H7v3.958L2.677,4H1l0,0v1.342L4.323,8.5H1v3h3.073L1,14.658V16h1.677L7,11.842V16h3v-4.158L14.323,16H16V14.558z" fill="#FFFFFF"/>
    <path d="M6.768,11.5l-4.65,4.5H1l4.65,-4.5H6.768zM11.35,8.5L16,4h-1.118l-4.65,4.5H11.35zM4.882,8.5L1,4.894V4l5,4.5H4.882zM16,16v-0.994L12.368,11.5H11.25L16,16zM9.5,16H7.5v-5H1V9h6.5V4h2v5h6.5v2H9.5V16z" fill="#F3797F"/>
    <path d="M19,12v7.42c0,2.435,4.5,3.908,4.5,3.908s4.5,-1.473,4.5,-3.908V12H19z" fill="#FFFFFF"/>
    <polygon points="28,14.889 28,12 19,12 19,14.889 22.865,14.889 22.865,17.947 19,17.947 19,19.193 22.865,19.193 22.865,23.101 23.5,23.328 24.135,23.101 24.135,19.193 28,19.193 28,17.947 24.135,17.947 24.135,14.889" fill="#F3797F" stroke-linejoin="miter"/>
    <path d="M27.712,14.096c0,-0.057,-0.173,-0.057,-0.231,-0.17c-0.058,-0.283,-0.115,-0.396,-0.288,-0.396c-0.173,-0.057,-0.231,0,-0.231,0c-0.058,0.057,-0.288,0.057,-0.404,0.057c-0.115,0,-0.404,-0.283,-0.404,-0.34c0.173,0,0.288,-0.057,0.462,-0.283c0.231,-0.227,0.346,-0.113,0.346,-0.113c-0.115,0.17,0.058,0.17,0.058,0.17c0.288,-0.113,-0.058,-0.623,-0.115,-0.623c-0.346,0.51,-0.346,-0.057,-0.865,-0.113c-0.288,0,-0.865,0.113,-1.096,0.227c-0.231,0.057,-0.865,-0.113,-1.212,-0.057c-0.865,0.113,-0.865,-0.34,-0.865,-0.34s-0.519,0.453,0.519,0.906c0,0,-0.404,-0.396,1.558,-0.283c0.462,-0.057,1.212,-0.396,1.442,-0.17c0,0,0,0.17,0.115,0.17c0,0,0,0.17,-0.577,0.113c-1.442,-0.057,-3.404,0.623,-3.692,0.113c-0.173,-0.283,0.404,-0.397,0.404,-0.397c-0.115,-0.17,-0.404,-0.057,-0.404,-0.057c0,-0.17,-0.058,-0.396,-0.058,-0.396c-0.288,0.057,-0.404,0.227,-0.404,0.227c0,-0.227,-0.288,-0.34,-0.288,-0.34c0.115,0.113,0.058,1.133,-0.692,0.85c0,0,-0.404,-0.227,-0.519,-0.227c-0.115,0,-0.865,0.34,-0.692,0.51c0,0,0.577,-0.34,0.865,-0.057c0.346,0.34,0.865,0.34,0.865,0.34c-0.058,0.17,-0.288,0.623,-0.288,0.623s-0.288,0.113,-0.462,0.227c0,0,-0.981,-0.793,-1.038,0c0,0.17,0.808,0.453,1.385,0.227c0.346,-0.057,0.462,-0.227,0.462,-0.227c0.115,0,1.615,0.113,3.231,-0.68c0.346,-0.453,0.808,-0.227,0.808,-0.227s-0.808,0,-0.75,0.51c0,0.113,0.346,0.227,0.288,0.34c-0.173,0.227,-0.577,-0.227,-0.75,-0.283c-0.115,0,-0.404,0.057,-0.115,0.34c0.288,0.34,0.75,0.736,1.558,-0.057c0.115,-0.113,-0.173,-0.227,-0.231,-0.283c-0.058,-0.057,0,-0.057,0,-0.057c0.231,0.113,0.288,-0.283,0.288,-0.283c0,0.227,0.231,0.283,0.231,0.283c0.115,-0.113,0.058,-0.396,0.058,-0.396c0.288,0.566,0.519,0.453,0.519,0.453c-0.173,-0.113,-0.058,-0.227,-0.058,-0.227c0.173,0.566,0.75,0.057,0.75,0.057c-0.058,0.057,0,0.113,0.058,0.17c0.058,0.057,0.115,0.057,0.115,0.17c0,0.113,-0.462,0.227,-0.462,0.227s-0.288,0,-0.231,0.227C26.673,14.605,27.712,14.662,27.712,14.096" fill="#F7CE73"/>
    <path d="M22.462,22.025C22.462,22.082,22.462,22.082,22.462,22.025" fill="#D0CFCE"/>
    <path d="M21.942,21.459c0,-0.17,-0.231,-0.566,-0.231,-0.566c0.635,0.057,0.865,-0.566,0.865,-0.566c-0.173,0.057,-0.519,-0.113,-0.519,-0.113c0.577,-0.057,0.519,-0.623,0.519,-0.623c-0.115,0.396,-0.808,0.34,-0.808,0.34c0.231,-0.113,0.346,-0.51,0.346,-0.51c-0.058,0.17,-0.462,0.283,-0.692,0.396c-0.231,0.113,-0.115,0.566,-0.115,0.566c-0.058,-0.057,-0.231,-0.283,-0.231,-0.453s-0.115,-0.283,-0.288,-0.283s-0.288,0.17,-0.288,0.17l-0.346,0.17h0.288c0,0,0.173,0.057,0.173,0.227s-0.173,0.736,0.115,1.076c0.173,0.227,0.865,0.34,0.865,0.34l0.231,0.623l0.231,-0.227h0.462C22.404,21.968,21.942,21.459,21.942,21.459" fill="#B5B5B5"/>
    <path d="M27.308,19.533c0,0,-0.173,-0.057,-0.462,-0.17c-0.288,-0.113,-0.577,0.283,-0.577,0.283c-0.115,0.227,0.231,0.227,0.231,0.17s0.115,-0.17,0.231,-0.227c0.115,-0.057,0.288,0.17,0.404,0.17C27.308,19.816,27.308,19.533,27.308,19.533" fill="#F3797F"/>
    <path d="M25.288,20.099c0,0,0,-0.51,0.519,-0.566c0.288,0,0.981,0.34,1.038,0.623c0.058,0.283,-0.173,0.51,-0.346,0.623" fill="#F7CE73"/>
    <path d="M27.135,15.682h0.519c-0.115,-0.227,-0.577,-0.227,-0.981,-0.17c0.231,-0.057,0.519,-0.17,0.577,-0.17c-0.115,-0.057,-0.577,-0.397,-1.212,0.227c-0.577,-0.566,-1.096,-0.283,-1.212,-0.227c0.058,0,0.346,0.113,0.577,0.17c-0.346,-0.057,-0.808,-0.057,-0.981,0.17h0.519c-0.231,0.113,-0.346,0.113,-0.404,0.396c0,0,0.288,-0.057,0.577,-0.17c-0.173,0.057,-0.288,0.17,-0.346,0.283c0.231,0,0.462,-0.057,0.635,-0.113c-0.115,0.113,-0.173,0.283,-0.173,0.34c0.115,0,0.231,-0.113,0.346,-0.227c-0.058,0.227,-0.058,0.51,0,0.566c0.115,-0.057,0.173,-0.227,0.231,-0.34v0.17h0.231v-0.227c0.058,0.17,0.115,0.34,0.231,0.396c0.058,-0.113,0.058,-0.34,0,-0.566c0.115,0.113,0.231,0.227,0.346,0.227c0,-0.057,-0.058,-0.227,-0.173,-0.34c0.173,0.057,0.404,0.17,0.635,0.113c-0.058,-0.113,-0.173,-0.17,-0.346,-0.283c0.288,0.057,0.577,0.17,0.577,0.17C27.481,15.795,27.365,15.795,27.135,15.682" fill="#64C080"/>
    <rect x="25.923" y="16.135" width="0.346" height="1.586" fill="#CB4948"/>
    <path d="M25.288,20.099c-0.346,0,-0.058,0.793,-0.231,0.68c-0.231,-0.113,-0.346,0.623,0,0.85c0.577,0.396,1.038,-0.113,0.981,-0.227c-0.115,-0.227,0.519,-0.34,0.519,-0.51C26.558,20.439,25.635,20.099,25.288,20.099" fill="#64C080"/>
    <path d="M21.769,16.191C21.712,16.135,21.712,16.135,21.769,16.191c0,-0.17,-0.058,-0.283,-0.173,-0.283c-0.115,-0.17,-0.288,-0.057,-0.404,0.113c-0.058,0.057,-0.115,0.113,-0.173,0.113c0,-0.51,0.058,-0.963,0.75,-0.34c0,0,0,-0.227,-0.346,-0.51c-0.404,-0.283,-0.519,0.057,-0.577,0.51c-0.058,-0.057,-0.173,-0.227,-0.404,-0.34c-0.462,-0.17,-0.519,0.227,-0.462,0.623c-0.173,-0.227,-0.404,-0.34,-0.635,0c-0.231,0.34,-0.115,0.51,-0.115,0.51c0.404,-0.793,0.635,-0.283,0.865,0.057c-0.288,-0.227,-0.635,-0.396,-0.692,0c-0.058,0.283,0.058,0.34,0.058,0.34c0.058,-0.906,0.692,0.057,0.865,-0.057c0,0,0,0,0,-0.057c0.058,-0.113,0.058,-0.34,0.115,-0.566c0.173,0.113,0.404,0.51,0.519,0.453c0,0,0,0,0,-0.057c0.058,-0.057,0.115,-0.227,0.173,-0.397c0.231,-0.057,0.231,0.566,0.346,0.566c0.231,-0.113,0.692,-0.963,0.692,-0.113c0,0,0.115,-0.113,0.058,-0.396c-0.058,-0.397,-0.346,-0.17,-0.577,0.113c0.173,-0.453,0.404,-0.963,0.692,-0.227c0,0,0.115,-0.17,-0.115,-0.51C22.173,15.568,21.942,15.795,21.769,16.191M20.327,16.135c-0.058,0,-0.115,0,-0.173,0.057c0,-0.057,0,-0.113,0,-0.17c0.173,-0.17,0.288,-0.17,0.404,-0.057C20.442,15.908,20.385,16.021,20.327,16.135M20.212,16.361C20.269,16.361,20.269,16.361,20.212,16.361c0.058,0,0,0.057,0,0.113C20.269,16.418,20.269,16.418,20.212,16.361M21.077,16.191c0,0.057,-0.058,0.113,-0.058,0.17c0,-0.057,0,-0.057,0,-0.113C21.077,16.191,21.077,16.191,21.077,16.191M20.846,15.851C20.788,15.851,20.788,15.851,20.846,15.851M20.5,16.191c0.058,-0.057,0.115,-0.057,0.173,-0.057c0.058,0.113,0.058,0.227,0.058,0.283C20.673,16.361,20.615,16.305,20.5,16.191M21.25,16.248c0.058,-0.057,0.115,-0.17,0.115,-0.17c0.231,0,0.173,0.34,0.115,0.566C21.423,16.474,21.365,16.305,21.25,16.248" fill="#64C080"/>
    <path d="M25.058,21.742l0.058,-0.057c0,-0.057,-0.058,-0.057,-0.058,-0.057s-0.058,0.113,-0.058,0.057c-0.346,-0.227,-0.577,0.736,-0.577,0.736S25.462,22.025,25.058,21.742" fill="#F3797F"/>
    <polygon points="20.154,16.814 20.269,17.607 20.442,17.551 20.327,16.758" fill="#F3797F" stroke-linejoin="miter"/>
    <rect x="20.442" y="16.984" width="0.923" height="0.17" fill="#F3797F"/>
    <polygon points="21.135,17.494 21.308,17.551 21.654,16.871 21.481,16.814" fill="#F3797F" stroke-linejoin="miter"/>
    <rect x="1.5" y="4.5" width="29" height="23" fill="none" stroke="#000000" stroke-width="1" stroke-miterlimit="1" opacity="0.35"/>
  </g>
</svg>
