<?xml version="1.0" encoding="UTF-8"?>
<!DOCTYPE svg PUBLIC "-//W3C//DTD SVG 1.1//EN" "http://www.w3.org/Graphics/SVG/1.1/DTD/svg11.dtd">
<svg version="1.1" id="Layer_1" xmlns="http://www.w3.org/2000/svg" xmlns:xlink="http://www.w3.org/1999/xlink" x="0px" y="0px" width="32px" height="32px" viewBox="0 0 32 32" enable-background="new 0 0 32 32" xml:space="preserve">
  <g id="icon">
    <rect x="1" y="4" width="30" height="24" fill="#F3797F"/>
    <polyline points="25.2,9.984 22.563,9.829 22.356,9.674 21.787,10.14 21.89,10.553 21.684,11.225 20.546,13.708 20.443,14.225 20.494,14.742 20.236,14.845 17.598,13.449 17.495,13.552 17.598,13.449 16.719,10.76 15.582,8.847 14.599,8.743 13.824,9.312 10.359,10.76 9.532,10.502 8.187,9.26 7.773,9.467 9.118,11.743 9.118,12.001 9.79,12.208 10.1,11.898 10.721,11.691 13.462,11.329 13.927,11.122 14.392,10.76 14.599,10.915 14.858,13.759 12.893,15.724 11.755,17.638 12.117,18.568 12.996,18.93 15.84,21.361 15.995,22.188 15.53,23.998 15.892,24.257 17.288,22.033 17.495,21.93 17.392,21.206 16.978,21.102 16.513,20.637 14.961,18.362 14.496,18 14.03,17.793 14.082,17.534 16.461,15.983 16.513,15.983 19.202,16.759 21.425,16.862 22.046,16.035 21.994,15.104 22.666,11.432 23.338,10.915 25.148,10.45 25.2,9.984" fill="#FFFFFF" stroke-linejoin="miter"/>
    <path d="M16.461,15.983l-0.052,0.052v0.052h0.259L16.461,15.983M14.806,13.552l-0.103,0.31l0.103,-0.103V13.552M17.598,13.087l-0.103,0.052l0.103,0.31l-0.103,0.103l0.103,-0.103l0.052,0.052l0.052,-0.052L17.598,13.087M9.79,11.639l0.259,0.776h0.827l-0.672,0.465l0.259,0.776l-0.672,-0.465l-0.672,0.465l0.259,-0.776l-0.672,-0.465h0.827L9.79,11.639zM12.014,18l0.259,0.103l0.465,-0.207l0.517,0.052l0.207,0.207l0.31,-0.052l-0.052,-0.776l-0.207,-0.052l-0.207,0.259l-0.31,0.155l-0.879,-0.052L12.014,18zM16.719,22.705l-0.103,0.31l-0.879,0.259l0.103,-0.414L16.719,22.705M23.752,9.933l0.621,0.621l-0.414,0.103l-0.569,-0.672L23.752,9.933M20.856,14.794l0.207,0.259l-0.103,0.31l0.259,0.465l0.155,0.103l0.207,0.207l0.052,0.31L21.27,16.5l-0.414,-0.776l-0.31,-0.207l-0.31,-0.052v-0.259L20.856,14.794M8.704,9.829l0.31,0.259l-0.207,0.827l-0.259,-0.207L8.704,9.829M15.116,8.898l0.31,0.259l-0.465,0.776v0.362l0.155,0.259l-0.207,0.207l-0.672,-0.31l0.052,-0.31l0.31,-0.103l0.259,-0.465l0.052,-0.465L15.116,8.898M17.495,13.139l0.103,0.31l-0.103,0.103l0.103,-0.103l0.052,0.052l-1.086,0.931l0.207,1.655h-0.052l-0.207,-0.103h-0.052l-0.052,0.052l-0.362,-1.603l-1.293,-0.569l0.103,-0.103l-0.052,-0.207l1.5,0.517L17.495,13.139M21.27,8.795l0.259,0.776h0.827l-0.672,0.517l0.259,0.776l-0.672,-0.517l-0.672,0.517l0.259,-0.776l-0.672,-0.517h0.827L21.27,8.795zM17.909,19.654l0.259,0.776h0.827l-0.672,0.517l0.259,0.776l-0.672,-0.465l-0.621,0.465l0.207,-0.776l-0.621,-0.517h0.827L17.909,19.654z" fill="#F7CE73"/>
    <rect x="1.5" y="4.5" width="29" height="23" fill="none" stroke="#000000" stroke-width="1" stroke-miterlimit="1" opacity="0.35"/>
  </g>
</svg>
