<?xml version="1.0" encoding="UTF-8"?>
<!DOCTYPE svg PUBLIC "-//W3C//DTD SVG 1.1//EN" "http://www.w3.org/Graphics/SVG/1.1/DTD/svg11.dtd">
<svg version="1.1" id="Layer_1" xmlns="http://www.w3.org/2000/svg" xmlns:xlink="http://www.w3.org/1999/xlink" x="0px" y="0px" width="32px" height="32px" viewBox="0 0 32 32" enable-background="new 0 0 32 32" xml:space="preserve">
  <g id="icon">
    <rect x="1" y="4" width="30" height="24" fill="#7AA2D6"/>
    <path d="M6.808,5.483l0.872,-0.642l0.871,0.642l-0.333,-1.037L8.826,4H6.533l0.608,0.447L6.808,5.483zM24.145,27.059h-1.078l-0.333,-1.037l-0.333,1.037h-1.078l0.871,0.642l-0.096,0.299h1.27l-0.096,-0.299L24.145,27.059zM9.575,5.676l0.333,1.037h1.078l-0.871,0.641l0.332,1.037l-0.871,-0.641l-0.872,0.641l0.333,-1.037l-0.871,-0.641h1.078L9.575,5.676zM11.464,8.583l0.333,1.037h1.078l-0.871,0.641l0.332,1.037l-0.871,-0.641l-0.872,0.641l0.333,-1.037l-0.871,-0.641h1.078L11.464,8.583zM13.337,11.489l0.333,1.037h1.078l-0.871,0.642l0.333,1.037l-0.872,-0.642l-0.872,0.642l0.333,-1.037l-0.871,-0.642h1.078L13.337,11.489zM15.218,14.396l0.333,1.037h1.078l-0.871,0.641l0.333,1.037l-0.872,-0.641l-0.872,0.641l0.333,-1.037l-0.871,-0.641h1.078L15.218,14.396zM17.099,17.303l0.333,1.038h1.078l-0.871,0.64l0.333,1.038l-0.872,-0.642l-0.871,0.642l0.332,-1.038l-0.871,-0.64h1.078L17.099,17.303zM18.98,20.209l0.333,1.037h1.078l-0.871,0.642l0.333,1.036l-0.872,-0.641l-0.871,0.641l0.332,-1.036l-0.871,-0.642h1.078L18.98,20.209zM20.853,23.116l0.333,1.038h1.078l-0.871,0.641l0.333,1.037l-0.872,-0.641l-0.872,0.641l0.333,-1.037l-0.871,-0.641h1.078L20.853,23.116z" fill="#FFFFFF"/>
    <path d="M26,4v23.9L10.489,4H26z" fill="#F7CE73"/>
    <rect x="1.5" y="4.5" width="29" height="23" fill="none" stroke="#000000" stroke-width="1" stroke-miterlimit="1" opacity="0.35"/>
  </g>
</svg>
