<?xml version="1.0" encoding="UTF-8"?>
<!DOCTYPE svg PUBLIC "-//W3C//DTD SVG 1.1//EN" "http://www.w3.org/Graphics/SVG/1.1/DTD/svg11.dtd">
<svg version="1.1" id="Layer_1" xmlns="http://www.w3.org/2000/svg" xmlns:xlink="http://www.w3.org/1999/xlink" x="0px" y="0px" width="32px" height="32px" viewBox="0 0 32 32" enable-background="new 0 0 32 32" xml:space="preserve">
  <g id="icon">
    <rect x="1" y="4" width="30" height="24" fill="#FFFFFF"/>
    <path d="M7.322,6.072h0.511l0.757,2.225l0.752,-2.225h0.507v2.632h-0.34V7.15c0,-0.054,0.001,-0.143,0.004,-0.267c0.002,-0.124,0.004,-0.258,0.004,-0.4l-0.752,2.22h-0.353l-0.759,-2.22v0.081c0,0.065,0.002,0.163,0.005,0.295c0.004,0.132,0.005,0.229,0.005,0.291v1.553h-0.34V6.072zM11.523,6.072h0.402l0.955,2.632h-0.391l-0.275,-0.788h-1.033l-0.285,0.788h-0.366L11.523,6.072zM12.114,7.625l-0.405,-1.163l-0.421,1.163H12.114zM12.729,6.072h0.416l0.757,1.265l0.757,-1.265h0.419l-0.997,1.571v1.061h-0.357V7.643L12.729,6.072zM17.547,6.448c0.174,0.233,0.262,0.531,0.262,0.894c0,0.393,-0.1,0.72,-0.299,0.98c-0.235,0.306,-0.568,0.459,-1.002,0.459c-0.405,0,-0.723,-0.134,-0.955,-0.401c-0.206,-0.258,-0.31,-0.584,-0.31,-0.978c0,-0.356,0.088,-0.661,0.265,-0.914c0.227,-0.325,0.563,-0.487,1.007,-0.487C16.979,6,17.323,6.149,17.547,6.448zM17.232,8.125c0.14,-0.225,0.211,-0.484,0.211,-0.777c0,-0.31,-0.082,-0.559,-0.243,-0.748c-0.162,-0.189,-0.383,-0.284,-0.664,-0.284c-0.272,0,-0.495,0.094,-0.667,0.281c-0.172,0.187,-0.258,0.463,-0.258,0.827c0,0.292,0.074,0.538,0.221,0.738c0.147,0.2,0.387,0.301,0.718,0.301C16.864,8.464,17.092,8.351,17.232,8.125zM20.147,6.072v0.314h-0.887v2.318H18.9V6.385h-0.887v-0.314H20.147zM22.534,6.072v0.314h-0.887v2.318h-0.36V6.385H20.4v-0.314H22.534zM23.116,6.072h1.91v0.323h-1.562v0.799h1.444v0.305h-1.444v0.892h1.589v0.314h-1.937V6.072z" fill="#F3797F"/>
    <path d="M15.785,21.664c-0.172,0,-0.313,-0.14,-0.315,-0.312c-0.001,-0.103,-0.033,-0.605,-0.603,-0.605h-1.835c-1.133,0,-1.895,-0.864,-1.895,-2.149v-7.75c0,-0.173,0.141,-0.315,0.315,-0.315h8.644c0.173,0,0.315,0.141,0.315,0.315v7.75c0,1.286,-0.754,2.149,-1.875,2.149h-1.835c-0.57,0,-0.602,0.502,-0.603,0.603C16.098,21.524,15.957,21.664,15.785,21.664z" fill="#78797B"/>
    <path d="M11.568,10.962v7.636c0,0.856,0.453,1.72,1.465,1.72h1.835c0.506,0,0.781,0.26,0.917,0.542c0.136,-0.282,0.411,-0.542,0.917,-0.542h1.835c0.878,0,1.446,-0.675,1.446,-1.72v-7.636H11.568z" fill="#EEEDEE"/>
    <path d="M19.454,13.772c0,-0.283,-0.143,-0.524,-0.354,-0.688c0.21,-0.164,0.354,-0.405,0.354,-0.688c0,-0.494,-0.411,-0.894,-0.917,-0.894c-0.27,0,-0.506,0.118,-0.674,0.298c-0.168,-0.205,-0.414,-0.344,-0.702,-0.344c-0.28,0,-0.521,0.13,-0.689,0.325c-0.168,-0.195,-0.409,-0.325,-0.687,-0.325c-0.279,0,-0.52,0.131,-0.688,0.327c-0.168,-0.196,-0.409,-0.327,-0.688,-0.327c-0.279,0,-0.52,0.131,-0.688,0.327c-0.168,-0.196,-0.409,-0.327,-0.688,-0.327c-0.507,0,-0.917,0.411,-0.917,0.917c0,0.279,0.131,0.52,0.327,0.688c-0.196,0.168,-0.327,0.409,-0.327,0.688s0.131,0.52,0.327,0.688c-0.196,0.168,-0.327,0.409,-0.327,0.688c0,0.507,0.41,1.147,0.917,1.147c0.336,0,5.163,0,5.504,0c0.506,0,0.917,-0.515,0.917,-1.009c0,-0.283,-0.143,-0.582,-0.354,-0.745C19.311,14.354,19.454,14.055,19.454,13.772z" fill="#7AA2D6"/>
    <path d="M19.454,16.066c0,-0.178,-0.055,-0.343,-0.147,-0.482h-7.046c-0.092,0.139,-0.147,0.304,-0.147,0.482c0,0.279,0.133,0.524,0.339,0.688c-0.205,0.164,-0.339,0.409,-0.339,0.688s0.133,0.524,0.339,0.688c-0.205,0.164,-0.339,0.409,-0.339,0.688c0,0.494,0.411,0.894,0.918,0.894c0.275,0,0.52,-0.121,0.688,-0.308c0.168,0.187,0.412,0.308,0.688,0.308c0.275,0,0.52,-0.121,0.688,-0.308c0.168,0.187,0.412,0.308,0.688,0.308c0.275,0,0.52,-0.121,0.688,-0.308c0.168,0.187,0.412,0.308,0.688,0.308c0.275,0,0.52,-0.121,0.688,-0.308c0.168,0.187,0.412,0.308,0.688,0.308c0.506,0,0.917,-0.4,0.917,-0.894c0,-0.279,-0.133,-0.524,-0.339,-0.688c0.205,-0.164,0.339,-0.409,0.339,-0.688s-0.133,-0.524,-0.339,-0.688C19.321,16.59,19.454,16.344,19.454,16.066z" fill="#F3797F"/>
    <path d="M15.785,14.208c-0.854,0,-1.565,-0.586,-1.77,-1.376c-0.038,0.147,-0.064,0.299,-0.064,0.459c0,1.013,0.821,1.835,1.835,1.835c1.013,0,1.835,-0.821,1.835,-1.835c0,-0.159,-0.027,-0.311,-0.065,-0.459C17.35,13.622,16.639,14.208,15.785,14.208z" fill="#FFFFFF"/>
    <path d="M15.133,17.969c-0.051,0.088,-0.305,0.036,-0.568,-0.116c-0.092,-0.054,-0.168,-0.112,-0.232,-0.169c0.018,0.084,0.03,0.178,0.03,0.285c0,0.305,-0.082,0.551,-0.183,0.551c-0.102,0,-0.184,-0.246,-0.184,-0.551c0,-0.107,0.013,-0.201,0.03,-0.285c-0.064,0.057,-0.139,0.115,-0.232,0.169c-0.263,0.152,-0.518,0.204,-0.568,0.116c-0.051,-0.087,0.121,-0.281,0.385,-0.434c0.092,-0.053,0.18,-0.089,0.262,-0.117c-0.082,-0.027,-0.169,-0.063,-0.262,-0.117c-0.264,-0.152,-0.436,-0.346,-0.385,-0.434c0.051,-0.088,0.305,-0.036,0.568,0.116c0.093,0.053,0.168,0.111,0.232,0.169c-0.018,-0.084,-0.03,-0.178,-0.03,-0.285c0,-0.305,0.082,-0.551,0.184,-0.551c0.101,0,0.183,0.246,0.183,0.551c0,0.107,-0.013,0.201,-0.03,0.285c0.064,-0.057,0.139,-0.115,0.231,-0.169c0.263,-0.152,0.518,-0.204,0.569,-0.116c0.05,0.088,-0.122,0.282,-0.385,0.434c-0.092,0.053,-0.18,0.089,-0.262,0.117c0.082,0.027,0.17,0.063,0.262,0.117C15.011,17.686,15.183,17.881,15.133,17.969zM17.958,17.535c-0.092,-0.053,-0.18,-0.089,-0.262,-0.117c0.082,-0.027,0.17,-0.063,0.262,-0.117c0.263,-0.151,0.435,-0.346,0.385,-0.434c-0.051,-0.088,-0.305,-0.036,-0.569,0.116c-0.092,0.053,-0.167,0.111,-0.231,0.168c0.018,-0.084,0.03,-0.178,0.03,-0.285c0,-0.305,-0.082,-0.551,-0.184,-0.551c-0.101,0,-0.184,0.246,-0.184,0.551c0,0.107,0.013,0.201,0.03,0.285c-0.064,-0.057,-0.139,-0.115,-0.232,-0.169c-0.263,-0.152,-0.518,-0.204,-0.569,-0.116c-0.05,0.088,0.122,0.281,0.385,0.434c0.093,0.053,0.18,0.089,0.262,0.117c-0.082,0.027,-0.17,0.063,-0.262,0.117c-0.263,0.152,-0.435,0.347,-0.385,0.434c0.051,0.088,0.305,0.036,0.569,-0.116c0.093,-0.053,0.168,-0.111,0.232,-0.169c-0.018,0.084,-0.03,0.178,-0.03,0.285c0,0.305,0.082,0.551,0.184,0.551c0.101,0,0.184,-0.246,0.184,-0.551c0,-0.106,-0.013,-0.2,-0.03,-0.284c0.064,0.057,0.139,0.115,0.231,0.169c0.263,0.151,0.518,0.203,0.569,0.116C18.394,17.881,18.222,17.686,17.958,17.535z" fill="#F8A57F"/>
    <path d="M7.694,24.902c0,0,2.199,-1.191,2.905,-1.351c0.707,-0.162,1.514,-0.182,1.191,0.302c-0.323,0.484,0.06,1.07,-0.444,1.009c-0.504,-0.061,-1.655,0.464,-2.078,0.647c-0.424,0.181,-1.05,0.504,-1.05,0.504L7.694,24.902zM24.182,24.902c0,0,-2.199,-1.191,-2.907,-1.351c-0.705,-0.162,-1.513,-0.182,-1.191,0.302c0.324,0.484,-0.06,1.07,0.445,1.009c0.505,-0.061,1.654,0.464,2.078,0.647c0.424,0.181,1.05,0.504,1.05,0.504L24.182,24.902z" fill="#C8C6C4"/>
    <path d="M11.065,24.298c-0.064,-0.134,0.174,-0.328,0.414,-0.437c0.277,-0.125,0.355,-0.309,0.355,-0.309s0.159,0.302,0.28,0.605C12.114,24.156,11.153,24.486,11.065,24.298zM20.811,24.298c0.064,-0.134,-0.173,-0.328,-0.413,-0.437c-0.277,-0.125,-0.356,-0.309,-0.356,-0.309s-0.159,0.302,-0.28,0.605C19.762,24.156,20.724,24.486,20.811,24.298z" fill="#78797B"/>
    <path d="M19.42,23.692c-0.546,-0.182,-2.038,-0.283,-2.524,-0.283c-0.426,0,-0.853,0,-0.949,0c0,0,-0.007,0,-0.02,0c-0.096,0,-0.522,0,-0.949,0c-0.485,0,-1.977,0.101,-2.523,0.283c-0.545,0.182,-1.017,0.616,-1.392,0.606c0.028,0.115,0.06,0.262,0.202,0.706c0.141,0.444,0.525,0.424,0.968,0.202c0.444,-0.223,1.09,-0.364,1.696,-0.364c0.564,0,1.826,0,1.998,0c0.012,0,0.02,0,0.02,0c0.172,0,1.434,0,1.998,0c0.606,0,1.252,0.141,1.696,0.364c0.443,0.221,0.828,0.242,0.969,-0.202c0.141,-0.444,0.173,-0.591,0.201,-0.706C20.435,24.308,19.964,23.874,19.42,23.692z" fill="#C8C6C4"/>
    <path d="M15.155,24.591h-1.587v-0.752h1.587V24.591zM18.653,23.84h-2.705v0.752h2.705V23.84z" fill="#78797B"/>
    <path d="M5.202,10.424l0.908,0.229l0.764,-0.611c0,0,0.918,-0.344,1.415,-0.077c0.497,0.268,0.076,0.229,-0.383,0.344c-0.459,0.115,-0.556,0.57,-0.439,0.745c0.172,0.258,0.697,0.279,0.631,-0.115c-0.029,-0.172,0.727,0.21,0.65,0.631c-0.077,0.421,-0.077,0.421,-0.077,0.421s-0.038,0.955,0.573,1.147c0.611,0.191,0.545,0.764,-0.029,0.726c-0.573,-0.038,-1.539,-0.764,-1.539,-0.764s-0.497,0.344,-0.611,0.115c0,0,-1.185,-0.268,-1.032,-1.338c0,0,-0.373,1.185,0.373,1.586c1.074,0.578,1.207,0.18,2.112,0.899c1.07,0.85,1.911,2.427,1.643,4.606c-0.268,2.179,-0.879,3.641,-3.325,3.641c-1.433,0,-2.207,-1.071,-2.207,-2.121c0,-1.051,0.946,-1.691,1.548,-1.691c0.717,0,0.946,0.688,0.86,0.86c-0.288,0.576,-0.564,0.178,-0.344,-0.086c0.143,-0.172,-0.144,-0.444,-0.487,-0.43c-0.688,0.029,-1.061,0.697,-1.061,1.347c0,0.65,0.736,1.634,1.653,1.634s1.949,-0.84,1.949,-2.14s-0.536,-2.14,-1.415,-2.867l-0.439,0.85c0,0,-1.682,-0.239,-2.637,-1.233c-0.955,-0.993,-0.863,-2.259,-0.688,-2.121c0.401,0.315,1.357,0.363,1.357,0.363s-0.382,-0.802,-0.649,-0.955c-0.268,-0.153,-0.813,-0.975,-0.392,-1.931c0.421,-0.955,1.042,-1.242,1.195,-0.936c0.153,0.305,0.554,0.095,0.439,-0.211C5.403,10.634,5.202,10.424,5.202,10.424zM26.315,10.424l-0.907,0.229l-0.765,-0.611c0,0,-0.917,-0.344,-1.414,-0.077c-0.497,0.268,-0.077,0.229,0.382,0.344c0.459,0.115,0.557,0.57,0.44,0.745c-0.172,0.258,-0.696,0.279,-0.631,-0.115c0.029,-0.172,-0.727,0.21,-0.649,0.631c0.076,0.421,0.076,0.421,0.076,0.421s0.039,0.955,-0.573,1.147c-0.612,0.191,-0.545,0.764,0.029,0.726c0.573,-0.038,1.538,-0.764,1.538,-0.764s0.497,0.344,0.612,0.115c0,0,1.185,-0.268,1.032,-1.338c0,0,0.373,1.185,-0.373,1.586c-1.074,0.578,-1.207,0.18,-2.111,0.899c-1.071,0.85,-1.912,2.427,-1.644,4.606s0.879,3.641,3.325,3.641c1.433,0,2.207,-1.071,2.207,-2.121c0,-1.051,-0.946,-1.691,-1.548,-1.691c-0.717,0,-0.946,0.688,-0.86,0.86c0.288,0.576,0.564,0.178,0.344,-0.086c-0.143,-0.172,0.144,-0.444,0.487,-0.43c0.688,0.029,1.061,0.697,1.061,1.347c0,0.65,-0.735,1.634,-1.653,1.634c-0.917,0,-1.949,-0.84,-1.949,-2.14s0.536,-2.14,1.414,-2.867l0.44,0.85c0,0,1.681,-0.239,2.637,-1.233c0.956,-0.993,0.863,-2.259,0.688,-2.121c-0.401,0.315,-1.357,0.363,-1.357,0.363s0.382,-0.802,0.65,-0.955c0.267,-0.153,0.812,-0.975,0.391,-1.931c-0.42,-0.955,-1.042,-1.242,-1.194,-0.936c-0.153,0.305,-0.555,0.095,-0.44,-0.211C26.114,10.634,26.315,10.424,26.315,10.424z" fill="#C8C6C4"/>
    <path d="M4.915,14.093c0.487,0.516,1.548,1.405,2.322,2.179c0.774,0.774,1.921,2.207,1.921,3.526c0,1.319,-0.659,2.523,-2.437,2.523c-1.204,0,-1.933,-1.243,-1.806,-2.007c0.143,-0.86,0.803,-1.003,0.803,-1.003s-0.602,0.373,-0.602,1.061c0,0.688,0.545,1.749,1.682,1.749c1.137,0,1.987,-1.061,1.987,-2.322c0,-1.261,-1.061,-2.523,-1.978,-3.01C5.89,16.3,5.259,15.326,4.715,14.58C4.715,14.58,4.428,13.577,4.915,14.093zM26.601,14.093c-0.487,0.516,-1.548,1.405,-2.322,2.179c-0.774,0.774,-1.921,2.207,-1.921,3.526c0,1.319,0.659,2.523,2.437,2.523c1.204,0,1.933,-1.243,1.806,-2.007c-0.143,-0.86,-0.803,-1.003,-0.803,-1.003s0.602,0.373,0.602,1.061c0,0.688,-0.545,1.749,-1.681,1.749c-1.138,0,-1.988,-1.061,-1.988,-2.322c0,-1.261,1.061,-2.523,1.978,-3.01c0.917,-0.487,1.548,-1.462,2.093,-2.207C26.802,14.58,27.089,13.577,26.601,14.093z" fill="#78797B"/>
    <rect x="1.5" y="4.5" width="29" height="23" fill="none" stroke="#000000" stroke-width="1" stroke-miterlimit="1" opacity="0.35"/>
  </g>
</svg>
