<?xml version="1.0" encoding="UTF-8"?>
<!DOCTYPE svg PUBLIC "-//W3C//DTD SVG 1.1//EN" "http://www.w3.org/Graphics/SVG/1.1/DTD/svg11.dtd">
<svg version="1.1" id="Layer_1" xmlns="http://www.w3.org/2000/svg" xmlns:xlink="http://www.w3.org/1999/xlink" x="0px" y="0px" width="32px" height="32px" viewBox="0 0 32 32" enable-background="new 0 0 32 32" xml:space="preserve">
  <g id="icon">
    <path d="M1,4h30v24H1V4z" fill="#7BA3D6"/>
    <path d="M1,4h30v24H1V4z" fill="#010101" opacity="0.15"/>
    <rect x="11" y="4" width="5" height="12" fill="#F3797F"/>
    <rect x="6" y="4" width="5" height="12" fill="#FFFFFF"/>
    <rect x="1" y="4" width="5" height="12" fill="#7BA3D6"/>
    <path d="M24.106,18.967v-2.142h0.866l0.638,-1.048h-1.549v-0.684h1.959l0.684,-1.094h-6.471l0.684,1.094h1.959v3.828l-1.458,-2.324l-2.005,3.144h0.957l0.182,-0.365h1.641l1.276,2.278l1.276,-2.278h1.641l0.182,0.365h0.957l-2.005,-3.144L24.106,18.967M21.008,18.694l0.41,-0.729l0.41,0.729H21.008M25.2,18.694l0.41,-0.729l0.41,0.729H25.2M24.562,23.251l-0.638,0.501l0.228,0.775l-0.638,-0.501l-0.684,0.501l0.273,-0.775l-0.684,-0.501h0.82l0.273,-0.775l0.228,0.775H24.562zM22.147,21.428l-0.638,0.501l0.228,0.775l-0.638,-0.501l-0.684,0.501l0.273,-0.775l-0.684,-0.501h0.82l0.273,-0.775l0.228,0.775H22.147zM26.977,21.428l-0.638,0.501l0.228,0.775l-0.638,-0.501l-0.684,0.501l0.273,-0.775l-0.684,-0.501h0.82l0.273,-0.775l0.228,0.775H26.977zM18.41,17.281l0.228,-0.775l-0.638,-0.501h0.82l0.228,-0.775l0.273,0.775h0.82l-0.684,0.501l0.273,0.775l-0.684,-0.501L18.41,17.281zM28.618,17.281l-0.638,-0.501l-0.684,0.501l0.273,-0.775l-0.684,-0.501h0.82l0.273,-0.775l0.228,0.775h0.82l-0.638,0.501L28.618,17.281z" fill="#FFFFFF"/>
    <rect x="1.5" y="4.5" width="29" height="23" fill="none" stroke="#000000" stroke-width="1" stroke-miterlimit="1" opacity="0.35"/>
  </g>
</svg>
