<?xml version="1.0" encoding="UTF-8"?>
<!DOCTYPE svg PUBLIC "-//W3C//DTD SVG 1.1//EN" "http://www.w3.org/Graphics/SVG/1.1/DTD/svg11.dtd">
<svg version="1.1" id="Layer_1" xmlns="http://www.w3.org/2000/svg" xmlns:xlink="http://www.w3.org/1999/xlink" x="0px" y="0px" width="32px" height="32px" viewBox="0 0 32 32" enable-background="new 0 0 32 32" xml:space="preserve">
  <g id="icon">
    <path d="M24.711,15.433c0,0.529,-0.161,0.916,-0.479,1.15c-0.312,0.23,-0.793,0.342,-1.469,0.342c-0.183,0,-0.42,-0.013,-0.723,-0.038l-0.092,-0.008v-2.83l0.097,-0.003c0.357,-0.011,0.566,-0.016,0.701,-0.016l0.033,0c0.706,0,1.192,0.108,1.485,0.331C24.56,14.586,24.711,14.947,24.711,15.433zM22.752,13.159c1.008,0,1.519,-0.384,1.519,-1.142c0,-0.678,-0.468,-1.022,-1.39,-1.022c-0.228,0,-0.51,0.009,-0.838,0.027l-0.095,0.005v2.103l0.093,0.006C22.26,13.152,22.5,13.159,22.752,13.159zM30.398,14.215c0,6.967,-6.446,12.615,-14.398,12.615c-0.664,0,-1.317,-0.039,-1.957,-0.116C13.312,27.018,4.6,29.9,4.6,29.9s1.609,-4.6,1.786,-6.294c-2.937,-2.31,-4.784,-5.661,-4.784,-9.391C1.602,7.248,8.048,1.6,16,1.6C23.952,1.6,30.398,7.248,30.398,14.215zM12.314,10.082h-1.235v3.132H7.623v-3.132H6.371v7.793h1.252v-3.601h3.456v3.601h1.235V10.082zM19.212,10.081H14.19v7.793h4.96v-1.06h-3.708v-2.595h2.703v-1.006h-2.703v-2.072h3.77V10.081zM26.02,15.602c0,-1.042,-0.477,-1.71,-1.457,-2.044l-0.218,-0.074l0.203,-0.109c0.656,-0.352,0.975,-0.813,0.975,-1.412c0,-0.629,-0.222,-1.1,-0.678,-1.439c-0.458,-0.34,-1.107,-0.512,-1.931,-0.512c-0.434,0,-1.18,0.024,-2.218,0.071v7.792h2.402c0.863,0,1.576,-0.209,2.119,-0.621C25.75,16.849,26.02,16.293,26.02,15.602z" fill="#6AC1E8"/>
    <path d="M3.712,30.773l0.369,-1.055c0.015,-0.043,1.421,-4.076,1.718,-5.879c-3.021,-2.485,-4.747,-5.976,-4.747,-9.625C1.052,6.956,7.758,1.05,16,1.05s14.948,5.906,14.948,13.165S24.242,27.38,16,27.38c-0.63,0,-1.263,-0.035,-1.886,-0.104c-1.318,0.491,-9,3.033,-9.341,3.146L3.712,30.773zM16,2.15c-7.636,0,-13.848,5.412,-13.848,12.065c0,3.407,1.667,6.673,4.574,8.959l0.239,0.188l-0.032,0.302c-0.13,1.241,-0.966,3.888,-1.457,5.367c3.143,-1.042,7.853,-2.615,8.356,-2.824l0.133,-0.055l0.143,0.017c0.623,0.074,1.26,0.112,1.892,0.112c7.636,0,13.848,-5.412,13.848,-12.065S23.636,2.15,16,2.15z" fill="#3F89AA"/>
    <path d="M20.696,17.875v-7.792c1.038,-0.047,1.784,-0.071,2.218,-0.071c0.824,0,1.474,0.172,1.931,0.512c0.456,0.339,0.678,0.809,0.678,1.439c0,0.598,-0.319,1.06,-0.975,1.412l-0.203,0.109l0.218,0.074c0.981,0.334,1.457,1.003,1.457,2.044c0,0.691,-0.27,1.247,-0.804,1.652c-0.543,0.412,-1.256,0.621,-2.119,0.621H20.696zM22.746,14.029c-0.135,0,-0.345,0.005,-0.701,0.016l-0.097,0.003v2.83l0.092,0.008c0.304,0.026,0.541,0.038,0.723,0.038c0.677,0,1.157,-0.112,1.469,-0.342c0.318,-0.234,0.479,-0.621,0.479,-1.15c0,-0.486,-0.151,-0.847,-0.447,-1.073c-0.293,-0.223,-0.779,-0.331,-1.485,-0.331L22.746,14.029zM22.881,10.995c-0.228,0,-0.51,0.009,-0.838,0.027l-0.095,0.005v2.103l0.093,0.006c0.219,0.015,0.458,0.022,0.711,0.022c1.008,0,1.519,-0.384,1.519,-1.142C24.271,11.339,23.803,10.995,22.881,10.995zM11.079,17.875v-3.601H7.623v3.601H6.371v-7.793h1.252v3.132h3.456v-3.132h1.235v7.793H11.079zM14.19,17.874v-7.793h5.022v1.06h-3.77v2.072h2.703v1.006h-2.703v2.595h3.708v1.06H14.19z" fill="#FFFFFF"/>
  </g>
</svg>
