<?xml version="1.0" encoding="UTF-8"?>
<!DOCTYPE svg PUBLIC "-//W3C//DTD SVG 1.1//EN" "http://www.w3.org/Graphics/SVG/1.1/DTD/svg11.dtd">
<svg version="1.1" id="Layer_1" xmlns="http://www.w3.org/2000/svg" xmlns:xlink="http://www.w3.org/1999/xlink" x="0px" y="0px" width="32px" height="32px" viewBox="0 0 32 32" enable-background="new 0 0 32 32" xml:space="preserve">
  <g id="icon">
    <path d="M9.482,12.24c0,0.52,-0.158,0.877,-0.471,1.063c-0.3,0.178,-0.753,0.265,-1.383,0.265c-0.143,0,-0.352,-0.011,-0.622,-0.033l-0.092,-0.008v-2.4l0.087,-0.011c0.172,-0.022,0.341,-0.034,0.504,-0.035h0h0c0.659,0,1.154,0.083,1.47,0.246C9.312,11.502,9.482,11.809,9.482,12.24zM15.621,10.999c-0.68,0,-1.209,0.271,-1.574,0.805c-0.357,0.522,-0.537,1.231,-0.537,2.106c0,0.95,0.169,1.699,0.501,2.224c0.342,0.541,0.846,0.816,1.498,0.816c0.756,0,1.342,-0.267,1.742,-0.792c0.393,-0.517,0.592,-1.273,0.592,-2.249C17.843,11.978,17.095,10.999,15.621,10.999zM30.398,14.215c0,6.967,-6.446,12.615,-14.398,12.615c-0.664,0,-1.317,-0.039,-1.957,-0.116C13.312,27.018,4.6,29.9,4.6,29.9s1.609,-4.6,1.786,-6.294c-2.937,-2.31,-4.784,-5.661,-4.784,-9.391C1.602,7.248,8.048,1.6,16,1.6C23.952,1.6,30.398,7.248,30.398,14.215zM11.607,17.875l-2.384,-3.551l0.119,-0.044c0.414,-0.152,0.763,-0.418,1.037,-0.79c0.272,-0.369,0.41,-0.784,0.41,-1.234c0,-1.519,-0.987,-2.257,-3.016,-2.257c-0.33,0,-0.762,0.013,-1.319,0.041c-0.433,0.021,-0.706,0.034,-0.849,0.039v7.795h1.307V14.53l0.106,0.006c0.369,0.021,0.687,0.034,0.918,0.038l0.053,0.001l2.183,3.3H11.607zM19.152,13.91c0,-1.257,-0.306,-2.244,-0.908,-2.935c-0.599,-0.687,-1.481,-1.035,-2.623,-1.035c-1.031,0,-1.867,0.385,-2.483,1.144c-0.621,0.766,-0.936,1.716,-0.936,2.826c0,1.274,0.289,2.289,0.86,3.015c0.564,0.72,1.387,1.086,2.448,1.086c1.159,0,2.064,-0.37,2.691,-1.1C18.832,16.177,19.152,15.167,19.152,13.91zM26.394,10.083h-1.196v5.008l-4.013,-5.008h-0.55v7.798h1.196v-5.143l4.12,5.247h0.443V10.083z" fill="#CCBF46"/>
    <path d="M3.712,30.773l0.369,-1.055c0.015,-0.043,1.421,-4.076,1.718,-5.879c-3.021,-2.485,-4.747,-5.976,-4.747,-9.625C1.052,6.956,7.758,1.05,16,1.05s14.948,5.906,14.948,13.165S24.242,27.38,16,27.38c-0.63,0,-1.263,-0.035,-1.886,-0.104c-1.318,0.491,-9,3.033,-9.341,3.146L3.712,30.773zM16,2.15c-7.636,0,-13.848,5.412,-13.848,12.065c0,3.407,1.667,6.673,4.574,8.959l0.239,0.188l-0.032,0.302c-0.13,1.241,-0.966,3.888,-1.457,5.367c3.143,-1.042,7.853,-2.615,8.356,-2.824l0.133,-0.055l0.143,0.017c0.623,0.074,1.26,0.112,1.892,0.112c7.636,0,13.848,-5.412,13.848,-12.065S23.636,2.15,16,2.15z" fill="#7C772F"/>
    <path d="M15.51,18.011c-1.061,0,-1.885,-0.365,-2.448,-1.086c-0.571,-0.727,-0.86,-1.741,-0.86,-3.015c0,-1.11,0.315,-2.06,0.936,-2.826c0.616,-0.759,1.452,-1.144,2.483,-1.144c1.141,0,2.024,0.348,2.623,1.035c0.603,0.691,0.908,1.679,0.908,2.935c0,1.257,-0.32,2.267,-0.951,3.001C17.574,17.641,16.669,18.011,15.51,18.011zM15.621,10.999c-0.68,0,-1.209,0.271,-1.574,0.805c-0.357,0.522,-0.537,1.231,-0.537,2.106c0,0.95,0.169,1.699,0.501,2.224c0.342,0.541,0.846,0.816,1.498,0.816c0.756,0,1.342,-0.267,1.742,-0.792c0.393,-0.517,0.592,-1.273,0.592,-2.249C17.843,11.978,17.095,10.999,15.621,10.999zM25.951,17.985l-4.12,-5.247v5.143h-1.196v-7.798h0.55l4.013,5.008v-5.008h1.196v7.902H25.951zM10.173,17.875l-2.183,-3.3l-0.053,-0.001c-0.232,-0.004,-0.549,-0.017,-0.918,-0.038l-0.106,-0.006v3.345H5.606V10.08c0.143,-0.005,0.416,-0.017,0.849,-0.039c0.558,-0.027,0.989,-0.041,1.319,-0.041c2.029,0,3.016,0.738,3.016,2.257c0,0.449,-0.138,0.865,-0.41,1.234c-0.274,0.372,-0.623,0.637,-1.037,0.79l-0.119,0.044l2.384,3.551H10.173zM7.505,11.081c-0.163,0.001,-0.332,0.013,-0.504,0.035l-0.087,0.011v2.4l0.092,0.008c0.27,0.022,0.479,0.033,0.622,0.033c0.631,0,1.083,-0.087,1.383,-0.265c0.312,-0.186,0.471,-0.543,0.471,-1.063c0,-0.431,-0.17,-0.738,-0.506,-0.913C8.66,11.164,8.165,11.081,7.505,11.081L7.505,11.081L7.505,11.081z" fill="#FFFFFF"/>
  </g>
</svg>
