<?xml version="1.0" encoding="UTF-8"?>
<!DOCTYPE svg PUBLIC "-//W3C//DTD SVG 1.1//EN" "http://www.w3.org/Graphics/SVG/1.1/DTD/svg11.dtd">
<svg version="1.1" id="Layer_1" xmlns="http://www.w3.org/2000/svg" xmlns:xlink="http://www.w3.org/1999/xlink" x="0px" y="0px" width="32px" height="32px" viewBox="0 0 32 32" enable-background="new 0 0 32 32" xml:space="preserve">
  <g id="icon">
    <path d="M16,1.6C8.048,1.6,1.602,7.248,1.602,14.215c0,3.73,1.847,7.081,4.784,9.391C6.209,25.3,4.6,29.9,4.6,29.9s8.712,-2.882,9.443,-3.186c0.64,0.076,1.293,0.116,1.957,0.116c7.952,0,14.398,-5.648,14.398,-12.615S23.952,1.6,16,1.6z" fill="#FFFFFF"/>
    <path d="M3.712,30.773l0.369,-1.055c0.015,-0.043,1.421,-4.076,1.718,-5.879c-3.021,-2.485,-4.747,-5.976,-4.747,-9.625C1.052,6.956,7.758,1.05,16,1.05s14.948,5.906,14.948,13.165S24.242,27.38,16,27.38c-0.63,0,-1.263,-0.035,-1.886,-0.104c-1.318,0.491,-9,3.033,-9.341,3.146L3.712,30.773zM16,2.15c-7.636,0,-13.848,5.412,-13.848,12.065c0,3.407,1.667,6.673,4.574,8.959l0.239,0.188l-0.032,0.302c-0.13,1.241,-0.966,3.888,-1.457,5.367c3.143,-1.042,7.853,-2.615,8.356,-2.824l0.133,-0.055l0.143,0.017c0.623,0.074,1.26,0.112,1.892,0.112c7.636,0,13.848,-5.412,13.848,-12.065S23.636,2.15,16,2.15z" fill="#E2627A"/>
    <path d="M16.241,18.011c-1.061,0,-1.885,-0.365,-2.448,-1.086c-0.571,-0.728,-0.86,-1.742,-0.86,-3.015c0,-1.11,0.315,-2.06,0.936,-2.826c0.616,-0.759,1.452,-1.144,2.483,-1.144c1.141,0,2.024,0.348,2.623,1.035c0.603,0.691,0.908,1.679,0.908,2.935c0,1.257,-0.32,2.267,-0.951,3.001C18.305,17.641,17.4,18.011,16.241,18.011zM16.352,10.999c-0.68,0,-1.209,0.271,-1.574,0.805c-0.357,0.522,-0.537,1.231,-0.537,2.106c0,0.95,0.169,1.699,0.501,2.224c0.342,0.541,0.846,0.816,1.498,0.816c0.756,0,1.342,-0.267,1.742,-0.792c0.393,-0.517,0.592,-1.273,0.592,-2.249C18.574,11.978,17.826,10.999,16.352,10.999zM6.611,17.875v-7.791c0.904,-0.037,1.442,-0.056,1.598,-0.056c1.266,0,2.201,0.19,2.78,0.565c0.572,0.37,0.85,0.936,0.85,1.73c0,1.783,-1.052,2.65,-3.217,2.65c-0.17,-0.001,-0.389,-0.014,-0.65,-0.039l-0.109,-0.01v2.951H6.611zM8.403,11.087c-0.158,0.001,-0.31,0.011,-0.453,0.029l-0.087,0.011v2.738l0.09,0.009c0.255,0.026,0.448,0.038,0.591,0.038c0.691,0,1.185,-0.112,1.51,-0.344c0.332,-0.235,0.5,-0.618,0.5,-1.138C10.554,11.539,9.831,11.087,8.403,11.087L8.403,11.087L8.403,11.087zM21.367,17.874v-7.792h1.252v6.732h3.697v1.06H21.367z" fill="#E2627A"/>
  </g>
</svg>
