<?xml version="1.0" encoding="UTF-8"?>
<!DOCTYPE svg PUBLIC "-//W3C//DTD SVG 1.1//EN" "http://www.w3.org/Graphics/SVG/1.1/DTD/svg11.dtd">
<svg version="1.1" id="Layer_1" xmlns="http://www.w3.org/2000/svg" xmlns:xlink="http://www.w3.org/1999/xlink" x="0px" y="0px" width="32px" height="32px" viewBox="0 0 32 32" enable-background="new 0 0 32 32" xml:space="preserve">
  <g id="icon">
    <path d="M16,1.6C8.048,1.6,1.602,7.248,1.602,14.215c0,3.73,1.847,7.081,4.784,9.391C6.209,25.3,4.6,29.9,4.6,29.9s8.712,-2.882,9.443,-3.186c0.64,0.076,1.293,0.116,1.957,0.116c7.952,0,14.398,-5.648,14.398,-12.615S23.952,1.6,16,1.6zM10.446,17.405c-0.502,0.402,-1.189,0.605,-2.041,0.605h-0.006c-0.706,0,-1.356,-0.174,-1.933,-0.517l0.456,-1.08c0.553,0.358,1.107,0.539,1.647,0.539c0.915,0,1.379,-0.327,1.379,-0.973c0,-0.296,-0.109,-0.58,-0.325,-0.843c-0.213,-0.262,-0.631,-0.543,-1.277,-0.859c-0.616,-0.301,-1.034,-0.551,-1.245,-0.742c-0.205,-0.186,-0.366,-0.412,-0.479,-0.672c-0.111,-0.257,-0.168,-0.548,-0.168,-0.866c0,-0.585,0.222,-1.077,0.661,-1.463c0.443,-0.389,1.021,-0.586,1.718,-0.586c0.877,0,1.537,0.153,1.964,0.454l-0.372,1.032c-0.494,-0.319,-1.02,-0.481,-1.563,-0.481c-0.36,0,-0.646,0.096,-0.848,0.286c-0.204,0.192,-0.307,0.443,-0.307,0.747c0,0.506,0.528,1.003,1.615,1.519c0.536,0.257,0.926,0.495,1.16,0.707c0.229,0.208,0.407,0.456,0.529,0.735c0.121,0.278,0.182,0.594,0.182,0.939C11.193,16.497,10.942,17.008,10.446,17.405zM17.628,17.874h-4.949v-7.792h1.252v6.732h3.697V17.874zM24.609,16.911c-0.627,0.73,-1.532,1.1,-2.691,1.1c-1.061,0,-1.885,-0.365,-2.448,-1.086c-0.571,-0.728,-0.86,-1.742,-0.86,-3.015c0,-1.11,0.315,-2.06,0.936,-2.826c0.616,-0.759,1.452,-1.144,2.483,-1.144c1.141,0,2.024,0.348,2.623,1.035c0.603,0.691,0.908,1.679,0.908,2.935C25.56,15.167,25.24,16.177,24.609,16.911zM24.251,13.909c0,0.975,-0.199,1.732,-0.592,2.249c-0.4,0.526,-0.986,0.792,-1.742,0.792c-0.651,0,-1.155,-0.274,-1.498,-0.816c-0.333,-0.526,-0.501,-1.274,-0.501,-2.224c0,-0.875,0.181,-1.584,0.537,-2.106c0.364,-0.534,0.894,-0.805,1.574,-0.805C23.503,10.999,24.251,11.978,24.251,13.909z" fill="#ACC672"/>
    <path d="M3.712,30.773l0.369,-1.055c0.015,-0.043,1.421,-4.076,1.718,-5.879c-3.021,-2.485,-4.747,-5.976,-4.747,-9.625C1.052,6.956,7.758,1.05,16,1.05s14.948,5.906,14.948,13.165S24.242,27.38,16,27.38c-0.63,0,-1.263,-0.035,-1.886,-0.104c-1.318,0.491,-9,3.033,-9.341,3.146L3.712,30.773zM16,2.15c-7.636,0,-13.848,5.412,-13.848,12.065c0,3.407,1.667,6.673,4.574,8.959l0.239,0.188l-0.032,0.302c-0.13,1.241,-0.966,3.888,-1.457,5.367c3.143,-1.042,7.853,-2.615,8.356,-2.824l0.133,-0.055l0.143,0.017c0.623,0.074,1.26,0.112,1.892,0.112c7.636,0,13.848,-5.412,13.848,-12.065S23.636,2.15,16,2.15z" fill="#677746"/>
    <path d="M21.918,18.011c-1.061,0,-1.885,-0.365,-2.448,-1.086c-0.571,-0.728,-0.86,-1.742,-0.86,-3.015c0,-1.11,0.315,-2.06,0.936,-2.826c0.616,-0.759,1.452,-1.144,2.483,-1.144c1.141,0,2.024,0.348,2.623,1.035c0.603,0.691,0.908,1.679,0.908,2.935c0,1.257,-0.32,2.267,-0.951,3.001C23.982,17.641,23.077,18.011,21.918,18.011zM22.029,10.999c-0.68,0,-1.209,0.271,-1.574,0.805c-0.357,0.522,-0.537,1.231,-0.537,2.106c0,0.95,0.169,1.699,0.501,2.224c0.342,0.541,0.846,0.816,1.498,0.816c0.756,0,1.342,-0.267,1.742,-0.792c0.393,-0.517,0.592,-1.273,0.592,-2.249C24.251,11.978,23.503,10.999,22.029,10.999zM8.399,18.01c-0.706,0,-1.356,-0.174,-1.933,-0.517l0.456,-1.08c0.553,0.358,1.107,0.539,1.647,0.539c0.915,0,1.379,-0.327,1.379,-0.973c0,-0.296,-0.109,-0.58,-0.325,-0.843c-0.213,-0.262,-0.631,-0.543,-1.277,-0.859c-0.616,-0.301,-1.034,-0.551,-1.245,-0.742c-0.205,-0.186,-0.366,-0.412,-0.479,-0.672c-0.111,-0.257,-0.168,-0.548,-0.168,-0.866c0,-0.585,0.222,-1.077,0.661,-1.463c0.443,-0.389,1.021,-0.586,1.718,-0.586c0.877,0,1.537,0.153,1.964,0.454l-0.372,1.032c-0.494,-0.319,-1.02,-0.481,-1.563,-0.481c-0.36,0,-0.646,0.096,-0.848,0.286c-0.204,0.192,-0.307,0.443,-0.307,0.747c0,0.506,0.528,1.003,1.615,1.519c0.536,0.257,0.926,0.495,1.16,0.707c0.229,0.208,0.407,0.456,0.529,0.735c0.121,0.278,0.182,0.594,0.182,0.939c0,0.612,-0.251,1.123,-0.747,1.52c-0.502,0.402,-1.189,0.605,-2.041,0.605H8.399zM12.679,17.874v-7.792h1.252v6.732h3.697v1.06H12.679z" fill="#FFFFFF"/>
  </g>
</svg>
