<?xml version="1.0" encoding="UTF-8"?>
<!DOCTYPE svg PUBLIC "-//W3C//DTD SVG 1.1//EN" "http://www.w3.org/Graphics/SVG/1.1/DTD/svg11.dtd">
<svg version="1.1" id="Layer_1" xmlns="http://www.w3.org/2000/svg" xmlns:xlink="http://www.w3.org/1999/xlink" x="0px" y="0px" width="32px" height="32px" viewBox="0 0 32 32" enable-background="new 0 0 32 32" xml:space="preserve">
  <g id="icon">
    <path d="M16,1.6C8.048,1.6,1.602,7.248,1.602,14.215c0,3.73,1.847,7.081,4.784,9.391C6.209,25.3,4.6,29.9,4.6,29.9s8.712,-2.882,9.443,-3.186c0.64,0.076,1.293,0.116,1.957,0.116c7.952,0,14.398,-5.648,14.398,-12.615S23.952,1.6,16,1.6zM12.072,11.142h-2.72v6.732H8.1v-6.732H5.497v-1.06h6.575V11.142zM19.164,17.875h-1.235v-3.601h-3.456v3.601h-1.252v-7.793h1.252v3.132h3.456v-3.132h1.235V17.875zM25.785,17.875l-0.598,-1.62h-2.944l-0.57,1.62h-1.394l3.181,-7.902h0.502l3.209,7.902H25.785zM23.71,12l1.122,3.369h-2.243L23.71,12z" fill="#8AC18A"/>
    <path d="M3.712,30.773l0.369,-1.055c0.015,-0.043,1.421,-4.076,1.718,-5.879c-3.021,-2.485,-4.747,-5.976,-4.747,-9.625C1.052,6.956,7.758,1.05,16,1.05s14.948,5.906,14.948,13.165S24.242,27.38,16,27.38c-0.63,0,-1.263,-0.035,-1.886,-0.104c-1.318,0.491,-9,3.033,-9.341,3.146L3.712,30.773zM16,2.15c-7.636,0,-13.848,5.412,-13.848,12.065c0,3.407,1.667,6.673,4.574,8.959l0.239,0.188l-0.032,0.302c-0.13,1.241,-0.966,3.888,-1.457,5.367c3.143,-1.042,7.853,-2.615,8.356,-2.824l0.133,-0.055l0.143,0.017c0.623,0.074,1.26,0.112,1.892,0.112c7.636,0,13.848,-5.412,13.848,-12.065S23.636,2.15,16,2.15z" fill="#476647"/>
    <path d="M25.785,17.875l-0.598,-1.62h-2.944l-0.57,1.62h-1.394l3.181,-7.902h0.502l3.209,7.902H25.785zM22.588,15.369h2.243L23.71,12L22.588,15.369zM17.929,17.875v-3.601h-3.456v3.601h-1.252v-7.793h1.252v3.132h3.456v-3.132h1.235v7.793H17.929zM8.1,17.874v-6.732H5.497v-1.06h6.575v1.06h-2.72v6.732H8.1z" fill="#FFFFFF"/>
  </g>
</svg>
