<?xml version="1.0" encoding="UTF-8"?>
<!DOCTYPE svg PUBLIC "-//W3C//DTD SVG 1.1//EN" "http://www.w3.org/Graphics/SVG/1.1/DTD/svg11.dtd">
<svg version="1.1" id="Layer_1" xmlns="http://www.w3.org/2000/svg" xmlns:xlink="http://www.w3.org/1999/xlink" x="0px" y="0px" width="32px" height="32px" viewBox="0 0 32 32" enable-background="new 0 0 32 32" xml:space="preserve">
  <g id="icon">
    <path d="M16,1.6C8.048,1.6,1.602,7.248,1.602,14.215c0,3.73,1.847,7.081,4.784,9.391C6.209,25.3,4.6,29.9,4.6,29.9s8.712,-2.882,9.443,-3.186c0.64,0.076,1.293,0.116,1.957,0.116c7.952,0,14.398,-5.648,14.398,-12.615S23.952,1.6,16,1.6z" fill="#FFFFFF"/>
    <path d="M3.712,30.773l0.369,-1.055c0.015,-0.043,1.421,-4.076,1.718,-5.879c-3.021,-2.485,-4.747,-5.976,-4.747,-9.625C1.052,6.956,7.758,1.05,16,1.05s14.948,5.906,14.948,13.165S24.242,27.38,16,27.38c-0.63,0,-1.263,-0.035,-1.886,-0.104c-1.318,0.491,-9,3.033,-9.341,3.146L3.712,30.773zM16,2.15c-7.636,0,-13.848,5.412,-13.848,12.065c0,3.407,1.667,6.673,4.574,8.959l0.239,0.188l-0.032,0.302c-0.13,1.241,-0.966,3.888,-1.457,5.367c3.143,-1.042,7.853,-2.615,8.356,-2.824l0.133,-0.055l0.143,0.017c0.623,0.074,1.26,0.112,1.892,0.112c7.636,0,13.848,-5.412,13.848,-12.065S23.636,2.15,16,2.15z" fill="#F26868"/>
    <path d="M15.697,18.011c-1.061,0,-1.885,-0.365,-2.448,-1.086c-0.571,-0.727,-0.86,-1.741,-0.86,-3.015c0,-1.11,0.315,-2.06,0.936,-2.826c0.616,-0.759,1.452,-1.144,2.483,-1.144c1.141,0,2.024,0.348,2.623,1.035c0.603,0.691,0.908,1.679,0.908,2.935c0,1.257,-0.32,2.267,-0.951,3.001C17.761,17.641,16.856,18.011,15.697,18.011zM15.808,10.999c-0.68,0,-1.209,0.271,-1.574,0.805c-0.357,0.522,-0.537,1.231,-0.537,2.106c0,0.95,0.169,1.699,0.501,2.224c0.342,0.541,0.846,0.816,1.498,0.816c0.755,0,1.341,-0.267,1.742,-0.792c0.393,-0.517,0.592,-1.273,0.592,-2.249C18.03,11.978,17.282,10.999,15.808,10.999zM25.389,17.875l-2.183,-3.3l-0.053,-0.001c-0.232,-0.004,-0.549,-0.017,-0.918,-0.038l-0.106,-0.006v3.345h-1.308V10.08c0.143,-0.005,0.416,-0.017,0.849,-0.039c0.557,-0.028,0.989,-0.041,1.319,-0.041c2.029,0,3.016,0.738,3.016,2.257c0,0.449,-0.138,0.865,-0.41,1.234c-0.274,0.372,-0.623,0.637,-1.037,0.79l-0.119,0.044l2.384,3.551H25.389zM22.721,11.081c-0.163,0.001,-0.332,0.013,-0.504,0.035l-0.087,0.011v2.4l0.092,0.008c0.27,0.022,0.479,0.033,0.622,0.033c0.622,0,1.087,-0.089,1.383,-0.265c0.313,-0.186,0.471,-0.543,0.471,-1.063c0,-0.431,-0.17,-0.738,-0.506,-0.913C23.876,11.164,23.381,11.081,22.721,11.081L22.721,11.081L22.721,11.081zM6.067,17.875v-7.791c0.905,-0.037,1.442,-0.056,1.598,-0.056c1.266,0,2.201,0.19,2.78,0.565c0.572,0.37,0.85,0.936,0.85,1.73c0,1.783,-1.052,2.65,-3.217,2.65c-0.169,-0.001,-0.394,-0.014,-0.65,-0.039l-0.109,-0.01v2.951H6.067zM7.859,11.087c-0.159,0.001,-0.311,0.011,-0.453,0.029l-0.087,0.011v2.737l0.09,0.009c0.255,0.026,0.448,0.038,0.591,0.038c0.691,0,1.185,-0.112,1.51,-0.344c0.332,-0.235,0.5,-0.618,0.5,-1.138C10.01,11.539,9.287,11.087,7.859,11.087L7.859,11.087L7.859,11.087z" fill="#F26868"/>
  </g>
</svg>
