<?xml version="1.0" encoding="UTF-8"?>
<!DOCTYPE svg PUBLIC "-//W3C//DTD SVG 1.1//EN" "http://www.w3.org/Graphics/SVG/1.1/DTD/svg11.dtd">
<svg version="1.1" id="Layer_1" xmlns="http://www.w3.org/2000/svg" xmlns:xlink="http://www.w3.org/1999/xlink" x="0px" y="0px" width="32px" height="32px" viewBox="0 0 32 32" enable-background="new 0 0 32 32" xml:space="preserve">
  <g id="icon">
    <path d="M16,1.6C8.048,1.6,1.602,7.248,1.602,14.215c0,3.73,1.847,7.081,4.784,9.391C6.209,25.3,4.6,29.9,4.6,29.9s8.712,-2.882,9.443,-3.186c0.64,0.076,1.293,0.116,1.957,0.116c7.952,0,14.398,-5.648,14.398,-12.615S23.952,1.6,16,1.6zM9.32,17.405c-0.502,0.402,-1.189,0.605,-2.041,0.605h-0.006c-0.705,0,-1.355,-0.174,-1.933,-0.517l0.456,-1.08c0.553,0.358,1.107,0.539,1.647,0.539c0.915,0,1.379,-0.327,1.379,-0.973c0,-0.296,-0.109,-0.58,-0.325,-0.843c-0.213,-0.262,-0.631,-0.543,-1.277,-0.859c-0.615,-0.301,-1.034,-0.551,-1.245,-0.742c-0.205,-0.186,-0.366,-0.412,-0.478,-0.672c-0.111,-0.257,-0.168,-0.548,-0.168,-0.866c0,-0.585,0.222,-1.077,0.661,-1.463c0.443,-0.389,1.021,-0.586,1.718,-0.586c0.877,0,1.537,0.153,1.964,0.454L9.3,11.433c-0.494,-0.319,-1.02,-0.481,-1.563,-0.481c-0.36,0,-0.646,0.096,-0.848,0.286c-0.204,0.192,-0.308,0.443,-0.308,0.747c0,0.506,0.528,1.003,1.615,1.519c0.536,0.257,0.926,0.494,1.16,0.707c0.229,0.208,0.407,0.456,0.529,0.735c0.121,0.278,0.182,0.594,0.182,0.939C10.067,16.497,9.816,17.008,9.32,17.405zM17.977,17.984h-0.455l-1.859,-5.244l-1.807,5.244h-0.454l-2.62,-7.902h1.302l1.605,5.041l1.734,-5.041h0.494l1.739,5.041l1.599,-5.041h1.303L17.977,17.984zM26.685,11.141h-3.77v2.072h2.703v1.006h-2.703v2.595h3.708v1.06h-4.96v-7.793h5.022V11.141z" fill="#73C18D"/>
    <path d="M3.712,30.773l0.369,-1.055c0.015,-0.043,1.421,-4.076,1.718,-5.879c-3.021,-2.485,-4.747,-5.976,-4.747,-9.625C1.052,6.956,7.758,1.05,16,1.05s14.948,5.906,14.948,13.165S24.242,27.38,16,27.38c-0.63,0,-1.263,-0.035,-1.886,-0.104c-1.318,0.491,-9,3.033,-9.341,3.146L3.712,30.773zM16,2.15c-7.636,0,-13.848,5.412,-13.848,12.065c0,3.407,1.667,6.673,4.574,8.959l0.239,0.188l-0.032,0.302c-0.13,1.241,-0.966,3.888,-1.457,5.367c3.143,-1.042,7.853,-2.615,8.356,-2.824l0.133,-0.055l0.143,0.017c0.623,0.074,1.26,0.112,1.892,0.112c7.636,0,13.848,-5.412,13.848,-12.065S23.636,2.15,16,2.15z" fill="#487A5A"/>
    <path d="M7.273,18.01c-0.705,0,-1.355,-0.174,-1.933,-0.517l0.456,-1.08c0.553,0.358,1.107,0.539,1.647,0.539c0.915,0,1.379,-0.327,1.379,-0.973c0,-0.296,-0.109,-0.58,-0.325,-0.843c-0.213,-0.262,-0.631,-0.543,-1.277,-0.859c-0.615,-0.301,-1.034,-0.551,-1.245,-0.742c-0.205,-0.186,-0.366,-0.412,-0.478,-0.672c-0.111,-0.257,-0.168,-0.548,-0.168,-0.866c0,-0.585,0.222,-1.077,0.661,-1.463c0.443,-0.389,1.021,-0.586,1.718,-0.586c0.877,0,1.537,0.153,1.964,0.454L9.3,11.433c-0.494,-0.319,-1.02,-0.481,-1.563,-0.481c-0.36,0,-0.646,0.096,-0.848,0.286c-0.204,0.192,-0.308,0.443,-0.308,0.747c0,0.506,0.528,1.003,1.615,1.519c0.536,0.257,0.926,0.494,1.16,0.707c0.229,0.208,0.407,0.456,0.529,0.735c0.121,0.278,0.182,0.594,0.182,0.939c0,0.612,-0.251,1.123,-0.747,1.52c-0.502,0.402,-1.189,0.605,-2.041,0.605H7.273zM17.523,17.984l-1.859,-5.244l-1.807,5.244h-0.454l-2.62,-7.902h1.302l1.605,5.041l1.734,-5.041h0.494l1.739,5.041l1.599,-5.041h1.303l-2.583,7.902H17.523zM21.663,17.874v-7.793h5.022v1.06h-3.77v2.072h2.703v1.006h-2.703v2.595h3.708v1.06H21.663z" fill="#FFFFFF"/>
  </g>
</svg>
