<?xml version="1.0" encoding="UTF-8"?>
<!DOCTYPE svg PUBLIC "-//W3C//DTD SVG 1.1//EN" "http://www.w3.org/Graphics/SVG/1.1/DTD/svg11.dtd">
<svg version="1.1" id="Layer_1" xmlns="http://www.w3.org/2000/svg" xmlns:xlink="http://www.w3.org/1999/xlink" x="0px" y="0px" width="32px" height="32px" viewBox="0 0 32 32" enable-background="new 0 0 32 32" xml:space="preserve">
  <g id="icon">
    <path d="M16,1.6C8.048,1.6,1.602,7.248,1.602,14.215c0,3.73,1.847,7.081,4.784,9.391C6.209,25.3,4.6,29.9,4.6,29.9s8.712,-2.882,9.443,-3.186c0.64,0.076,1.293,0.116,1.957,0.116c7.952,0,14.398,-5.648,14.398,-12.615S23.952,1.6,16,1.6z" fill="#FFFFFF"/>
    <path d="M3.712,30.773l0.369,-1.055c0.015,-0.043,1.421,-4.076,1.718,-5.879c-3.021,-2.485,-4.747,-5.976,-4.747,-9.625C1.052,6.956,7.758,1.05,16,1.05s14.948,5.906,14.948,13.165S24.242,27.38,16,27.38c-0.63,0,-1.263,-0.035,-1.886,-0.104c-1.318,0.491,-9,3.033,-9.341,3.146L3.712,30.773zM16,2.15c-7.636,0,-13.848,5.412,-13.848,12.065c0,3.407,1.667,6.673,4.574,8.959l0.239,0.188l-0.032,0.302c-0.13,1.241,-0.966,3.888,-1.457,5.367c3.143,-1.042,7.853,-2.615,8.356,-2.824l0.133,-0.055l0.143,0.017c0.623,0.074,1.26,0.112,1.892,0.112c7.636,0,13.848,-5.412,13.848,-12.065S23.636,2.15,16,2.15z" fill="#7356A4"/>
    <path d="M22.861,18.011c-0.92,0,-1.637,-0.221,-2.132,-0.657c-0.49,-0.433,-0.739,-1.064,-0.739,-1.878v-5.394h1.252V15.4c0,0.454,0.145,0.83,0.431,1.118c0.287,0.288,0.683,0.434,1.177,0.434c0.548,0,0.983,-0.142,1.293,-0.422c0.313,-0.283,0.471,-0.672,0.471,-1.157v-5.29h1.252v5.399c0,0.787,-0.272,1.411,-0.81,1.854C24.514,17.784,23.776,18.011,22.861,18.011zM6.134,17.875v-7.79c1.096,-0.038,1.797,-0.057,2.084,-0.057c1.159,0,2.089,0.335,2.764,0.995c0.675,0.659,1.017,1.548,1.017,2.642c0,2.833,-1.357,4.21,-4.15,4.21H6.134zM8.133,11.089c-0.154,0,-0.368,0.012,-0.656,0.037l-0.091,0.008v5.639l0.091,0.008c0.237,0.022,0.496,0.033,0.769,0.033c0.762,0,1.368,-0.275,1.801,-0.818c0.428,-0.536,0.645,-1.291,0.645,-2.244c0,-1.768,-0.855,-2.664,-2.541,-2.664L8.133,11.089zM13.483,17.874v-7.793h5.022v1.06h-3.77v2.072h2.703v1.006h-2.703v2.595h3.708v1.06H13.483z" fill="#7356A4"/>
  </g>
</svg>
