<?xml version="1.0" standalone="no"?>
<!DOCTYPE svg PUBLIC "-//W3C//DTD SVG 1.1//EN" "http://www.w3.org/Graphics/SVG/1.1/DTD/svg11.dtd" >
<!--
2021-9-17: Created with FontForge (http://fontforge.org)
-->
<svg xmlns="http://www.w3.org/2000/svg" xmlns:xlink="http://www.w3.org/1999/xlink" version="1.1">
<metadata>
Created by FontForge 20201107 at Fri Sep 17 12:41:25 2021
 By Marc
Copyright (c) 2021, Marc
</metadata>
<defs>
<font id="Icons-Regular" horiz-adv-x="240" >
  <font-face 
    font-family="Icons"
    font-weight="400"
    font-stretch="normal"
    units-per-em="240"
    panose-1="2 0 5 9 0 0 0 0 0 0"
    ascent="180"
    descent="-60"
    bbox="-0.0136719 -60.3643 240.252 180.042"
    underline-thickness="50"
    underline-position="-100"
    unicode-range="U+E000-E118"
  />
    <missing-glyph />
    <glyph glyph-name="uniE000" unicode="&#xe000;" 
d="M125.481 83.0322c-18.6738 0 -33.8662 -15.4082 -33.8662 -34.3467c0 -6.48145 3.3877 -9.76758 10.0684 -9.76758c11.4609 0 22.8701 15.3311 24.9707 25.668l0.0478516 0.22168l4.08301 17.9492c-1.49414 0.167969 -3.25391 0.275391 -5.30371 0.275391zM109.178 -15
c-19.3252 0 -36.8145 6.7334 -49.248 18.9629c-12.5293 12.3223 -19.4297 29.7012 -19.4297 48.9346c0 22.8643 8.02246 43.7324 22.5898 58.7598c14.5918 15.0527 34.8672 23.3428 57.0928 23.3428c39.9824 0 65.8174 -25.4561 65.8174 -64.8535
c0 -32.082 -19.0664 -51.9414 -36.7324 -51.9414h-0.807617l-0.796875 0.141602c-4.48828 0.794922 -10.5537 2.55273 -13.9619 6.41211c-1.56445 1.77148 -3.41016 4.18359 -5.07129 7.2002c-7.32617 -7.13379 -16.5938 -12.2324 -26.9463 -12.2324
c-16.9922 0 -28.8604 11.9082 -28.8604 28.96c0 29.5225 23.6221 53.5381 52.6592 53.5381c8.73926 0 14.5713 -1.53418 17.9248 -2.82129l9.61816 -3.69141l-7.99512 -35.1436c-0.431641 -2.08496 -1.07812 -4.28516 -1.92285 -6.53711
c-1.33496 -7.1416 1.25391 -12.3838 3.95996 -15.7197c0.716797 -0.291016 1.9082 -0.637695 2.92969 -0.873047c7.27051 0.800781 17.2129 13.3711 17.2129 32.709c0 28.5928 -17.5801 45.6631 -47.0254 45.6631c-35.2812 0 -60.8906 -26.459 -60.8906 -62.9102
c0 -29.1328 20.0469 -48.7061 49.8848 -48.7061c11.1299 0 21.0918 1.99512 28.8096 5.76855l8.11621 -17.3086c-10.2373 -5.00781 -23.0059 -7.6543 -36.9268 -7.6543zM30 -45h165v210h-165v-210zM210 -60h-195v240h195v-15h15v-45h-15v-15h15v-45h-15v-15h15v-45h-15v-60z
" />
    <glyph glyph-name="uniE001" unicode="&#xe001;" 
d="M212.559 73.7744c0.542969 -3.80859 0.631836 -5.40137 -0.8125 -9.61914c-1.63086 -4.75098 -24.9297 -4.12695 -35.0117 -4.12695c-10.0811 0 -33.1123 -0.621094 -34.7412 4.12793c-1.44727 4.21973 -1.35645 5.81543 -0.813477 9.62402
c1.80762 9.47461 5.02637 9.63574 22.6162 16.085c2.56738 1 3.29785 2.45117 3.10645 4.50684c-4.96191 6.15625 -7.93945 16.0967 -7.93945 23.0586c0 10.7822 3.25195 17.6113 17.7705 17.6113c14.5166 0 18.0615 -6.8291 18.0615 -17.6113
c0 -6.96191 -2.99023 -16.9219 -7.9502 -23.0781c-0.192383 -2.05566 0.532227 -3.49609 3.10059 -4.49805c17.5889 -6.44824 20.8047 -6.60645 22.6133 -16.0801zM100.059 73.7744c0.542969 -3.80859 0.631836 -5.40137 -0.8125 -9.61914
c-1.63086 -4.75098 -24.9297 -4.12695 -35.0117 -4.12695c-10.0811 0 -33.1123 -0.621094 -34.7412 4.12793c-1.44727 4.21973 -1.35645 5.81543 -0.813477 9.62402c1.80762 9.47461 5.02637 9.63574 22.6162 16.085c2.56738 1 3.29785 2.45117 3.10645 4.50684
c-4.96191 6.15625 -7.93945 16.0967 -7.93945 23.0586c0 10.7822 3.25195 17.6113 17.7705 17.6113c14.5166 0 18.0615 -6.8291 18.0615 -17.6113c0 -6.96191 -2.99023 -16.9219 -7.9502 -23.0781c-0.192383 -2.05566 0.532227 -3.49609 3.10059 -4.49805
c17.5889 -6.44824 20.8047 -6.60645 22.6133 -16.0801zM97.5 30h-67.5v15h67.5v-15zM210 30h-67.5v15h67.5v-15zM97.5 0h-67.5v15h67.5v-15zM210 0h-67.5v15h67.5v-15zM225 -30v180h-97.5v-180h97.5zM15 150v-180h97.5v180h-97.5zM0 165h240v-210h-240v210z" />
    <glyph glyph-name="uniE002" unicode="&#xe002;" 
d="M31.915 41.8428c3.0293 0 5.82227 -1.67871 7.28906 -4.38184c1.83398 -3.37988 3.2627 -6.74121 4.64355 -9.99316c1.35742 -3.19629 2.64062 -6.21582 4.28125 -9.26074c9.27441 -17.2246 19.1074 -33.6406 28.6152 -49.5146
c2.06445 -3.44629 4.1123 -6.86426 6.13379 -10.2578l0.256836 -0.429688l0.485352 0.0771484c0.961914 0.155273 2.47852 0.900391 3.53711 2.1709c0.768555 0.923828 1.05762 1.79688 0.836914 2.52344c-2.67285 8.75488 -5.83887 17.6084 -8.90234 26.1689
c-1.41602 3.95996 -3.11816 8.02637 -4.76562 11.959c-2.44434 5.84082 -4.97363 11.8818 -6.75586 17.9346c-1.46973 4.99512 -3.0791 8.05957 -4.78809 9.10742c-1.74609 1.07227 -2.91992 2.48828 -3.39258 4.0918c-0.849609 2.88184 -0.453125 5.71387 1.11621 7.97168
c1.4873 2.14062 3.82324 3.4375 6.40918 3.55957l6.65723 0.313477v58.8672h-6.62109c-9.43359 0 -22.4082 -0.955078 -31.5527 -2.32324l-0.196289 -0.0302734l-0.154297 -0.125977c-1.24707 -1.01074 -3.34277 -3.14258 -6.22949 -6.33594
c-0.310547 -0.34375 -0.707031 -0.780273 -1.18262 -1.24023c-7.79395 -9.0293 -12.1689 -22.083 -11.0967 -33.21c0.697266 -7.23926 3.58984 -13.209 8.59961 -17.7412l0.22168 -0.202148l6.1709 0.289062c0.125977 0.00976562 0.254883 0.0126953 0.383789 0.0126953z
M83.6025 -58.8643c-6.09766 0 -11.3848 3.00293 -14.5098 8.23926c-11.5898 19.4336 -22.3799 39.4707 -33.8057 60.6865c-2.51172 4.66895 -5.05566 9.3916 -7.6543 14.1982l-0.22168 0.408203l-4.98633 -0.236328
c-0.133789 -0.00683594 -0.265625 -0.00976562 -0.398438 -0.00976562c-2.12402 0 -4.15039 0.823242 -5.70508 2.31836c-0.557617 0.539062 -1.04102 1.15234 -1.43262 1.82129l-0.0615234 0.104492l-0.0878906 0.078125c-8.3623 7.39062 -13.377 17.4619 -14.499 29.126
c-1.53027 15.9062 4.31543 33.6045 15.2588 46.1953c0.223633 0.259766 0.462891 0.500977 0.712891 0.725586l0.640625 0.701172c6.39258 7.0752 10.4434 10.8047 14.8262 11.5361c10.207 1.7041 25.1396 2.31152 35.709 2.31152
c2.43457 0 4.75293 -0.03125 6.89062 -0.0917969l0.240234 -0.00292969c0.375977 0 0.806641 0.0244141 1.25098 0.0498047l0.324219 0.0185547c0.836914 0.0449219 1.74414 0.0927734 2.69531 0.0927734c1.63475 0 3.55541 -0.12687 5.44581 -0.832016
c0.489346 0.134608 1.00665 0.232136 1.55028 0.291977c33.5312 3.68945 82.2041 20.5107 109.027 55.7725c1.0752 1.41309 2.4043 2.43164 3.84277 2.94336c0.958984 0.341797 1.94434 0.514648 2.92871 0.514648c1.9209 0 3.75977 -0.657227 5.32129 -1.90234
c2.11328 -1.68555 3.07324 -5.80664 3.08008 -8.19238c0.0176923 -7.24024 0.0100536 -29.609 0.0100536 -56.1017c1.081 -1.46129 2.75655 -1.6373 4.93819 -1.8661c22.8857 -2.40625 23.373 -22.5752 23.5322 -29.2041
c0.157227 -6.54004 0.640625 -26.4434 -21.7656 -31.1875c-3.66836 -0.776649 -5.84081 -1.64564 -6.72384 -4.89125c-0.0076779 -29.9516 0.00899967 -56.0006 0.00899967 -64.2494c0.00683594 -3.17871 -1.01465 -5.33789 -3.21777 -6.7959
c-1.44043 -0.952148 -3.0752 -1.45605 -4.73145 -1.45605h-0.03125c-2.64258 0.0273438 -5.12988 1.28125 -6.66113 3.35742c-25.823 34.9986 -79.4167 50.6339 -109.389 52.6556c-0.715582 -0.409784 -1.51699 -0.693296 -2.39109 -0.83231l-0.868164 -0.137695
l0.285156 -0.84668c0.306641 -0.913086 0.583008 -1.81152 0.839844 -2.68066c1.66895 -5.67383 4.10547 -11.4629 6.45996 -17.0596c1.63867 -3.8916 3.33203 -7.91699 4.72656 -11.8164c3.13672 -8.76465 6.37793 -17.8281 9.18652 -27.0225
c2.93066 -9.60156 -2.32129 -20.2754 -12.2168 -24.8271c-2.74316 -1.2627 -5.56055 -1.9043 -8.37402 -1.9043zM89.7592 102.233c0 -4.96964 -0.00800093 -10.7682 -0.0130657 -16.8365c-0.0107792 -14.5802 -0.0234174 -30.5021 -0.0135473 -40.387
c29.3393 -2.47787 78.5661 -14.6413 102.573 -39.5701l1.27344 -1.32227v112.093c-0.114852 1.86485 -0.0791208 3.4775 -0.0537109 4.6271c0.0055695 0.251279 0.0236813 0.499405 0.0537109 0.743816v25.0365l-1.61621 -1.7168
c-25.1299 -26.9476 -76.4906 -39.4733 -102.204 -42.6674zM209.991 95.6473c0 -6.52931 -0.00575069 -13.1658 -0.00575069 -19.7655c0 -4.17187 -0.00379286 -8.35803 -0.00379286 -12.5246c1.11373 0.365786 2.30621 0.686895 3.58289 0.957216
c6.74512 1.42773 10.1182 4.31934 9.83203 16.1562c-0.282227 11.6582 -3.32715 13.9404 -10.0469 14.6475c-1.18892 0.124906 -2.30703 0.303112 -3.35851 0.529124z" />
    <glyph glyph-name="uniE003" unicode="&#xe003;" 
d="M239.964 76.0801c0.256836 -10.251 -0.918945 -24.1924 -18.4756 -28.6455v55.29c16.5254 -3.24805 18.2236 -16.5986 18.4756 -26.6445zM102.367 -30.792c3.1709 -10.5117 1.54785 -22.1689 -9.0791 -27.1152c-2.95508 -1.37988 -6.00293 -2.0791 -9.06055 -2.08105
c-6.70898 0 -12.5273 3.3457 -15.9639 9.17773c-11.417 19.3779 -22.0352 39.3369 -33.2773 60.4688c-2.37305 4.46777 -4.75488 8.94141 -7.18262 13.4863l-3.66895 -0.173828c-0.151367 -0.00683594 -0.317383 -0.0117188 -0.485352 -0.0117188
c-2.60156 0 -5.0791 1.0166 -6.97656 2.86621c-0.633789 0.618164 -1.18359 1.3125 -1.6416 2.06836c-8.52539 7.69824 -13.6299 18.125 -14.7764 30.1787c-1.55566 16.3633 4.37891 34.5645 15.4844 47.501c0.243164 0.283203 0.509766 0.5625 0.793945 0.826172
l0.569336 0.631836c6.58887 7.38086 10.8301 11.2842 15.7158 12.1104c10.1641 1.71777 24.9795 2.33008 35.4561 2.33008c2.40723 0 4.70703 -0.0302734 6.83496 -0.0917969l0.212891 -0.00292969c0.299805 0 0.678711 0.0224609 1.06934 0.0449219l0.337891 0.0195312
c0.829102 0.0449219 1.76562 0.0957031 2.76172 0.0957031c2.74219 0 10.5107 0.456055 10.5107 0.456055v-95.9893s-5.52539 1.17285 -8.11133 0.31543c0.15332 -0.494141 0.298828 -0.981445 0.438477 -1.45996c1.61133 -5.54395 3.98535 -11.2529 6.28027 -16.7744
c1.62305 -3.90137 3.29688 -7.93066 4.69238 -11.875c3.09473 -8.75781 6.29102 -17.8037 9.06543 -27.002zM209.976 -18.7861c0.00976562 -3.84473 -0.314453 -6.60254 -3.0459 -8.43262c-1.7373 -1.16406 -2.7207 -1.78027 -4.7373 -1.78027h-0.03125
c-3.22949 0.0322266 -5.26367 1.58496 -7.13379 4.15137c-21.3408 29.2939 -60.8691 44.748 -90.5264 49.8828v98.2363c30.9756 6.29883 67.6348 22.6797 90.0225 52.4863c1.29004 1.71777 2.90918 2.96289 4.68555 3.60156
c1.15625 0.416992 1.34668 0.628906 2.53809 0.628906c2.33887 0 3.57324 -0.805664 5.45996 -2.32812c2.75391 -2.22461 2.7627 -7.02734 2.76855 -9.71387c0.0263672 -10.6875 0.0107422 -55.6338 -0.000976562 -91.749v-2.24023
c-0.0117188 -40.291 -0.0244141 -81.9561 0.000976562 -92.7432z" />
    <glyph glyph-name="uniE004" unicode="&#xe004;" 
d="M75 90h135v-105h-45v15h30v30h-30v15h30v30h-45v-15h-15v15h-45v-15h-15v30zM60 -15h-30v60h30v-15h-15v-30h15v-15zM75 45h75v-60h-75v60zM210 165h30v-45v-15v-150h-240v150v15v45h30v-30h15v45h15v-45h15v30h90v-30h15v45h15v-45h15v30zM15 -30h210v135h-210v-135z
" />
    <glyph glyph-name="uniE005" unicode="&#xe005;" 
d="M130.586 49.3467c-16.1738 0 -29.3311 -12.9414 -29.3311 -28.8506c0 -5.44531 2.93359 -8.20508 8.71875 -8.20508c9.92578 0 19.8076 12.8789 21.626 21.5605l0.0419922 0.1875l3.53711 15.0781c-1.29297 0.138672 -2.81738 0.229492 -4.59277 0.229492zM116.466 -33
c-16.7354 0 -31.8838 5.65625 -42.6523 15.9287c-10.8525 10.3516 -16.8281 24.9492 -16.8281 41.1055c0 19.2061 6.94727 36.7354 19.5645 49.3574c12.6387 12.6436 30.1992 19.6084 49.4473 19.6084c34.627 0 57.0029 -21.3838 57.0029 -54.4766
c0 -26.9492 -16.5137 -43.6309 -31.8115 -43.6309h-0.701172l-0.689453 0.118164c-3.88672 0.667969 -9.13965 2.14355 -12.0918 5.38672c-1.35449 1.48828 -2.95215 3.51465 -4.39355 6.04785c-6.34473 -5.99219 -14.3711 -10.2744 -23.3369 -10.2744
c-14.7168 0 -24.9941 10.0029 -24.9941 24.3252c0 24.7979 20.458 44.9717 45.6055 44.9717c7.56738 0 12.6191 -1.28906 15.5254 -2.37012l8.3291 -3.10059l-6.92383 -29.5205c-0.374023 -1.75195 -0.93457 -3.59766 -1.66699 -5.49121
c-1.15625 -5.99805 1.08594 -10.4023 3.42969 -13.2061c0.621094 -0.244141 1.65234 -0.535156 2.53809 -0.733398c6.29688 0.671875 14.9082 11.2305 14.9082 27.4756c0 24.0176 -15.2246 38.3564 -40.7266 38.3564c-30.5566 0 -52.7354 -22.2236 -52.7354 -52.8447
c0 -24.4717 17.3623 -40.9141 43.2041 -40.9141c9.63965 0 18.2676 1.67578 24.9512 4.84473l7.0293 -14.5391c-8.86816 -4.20215 -19.9258 -6.4248 -31.9834 -6.4248zM0 105v60h240v-60h-15v-165h-210v165h-15zM210 105h-180v-150h180v150z" />
    <glyph glyph-name="uniE006" unicode="&#xe006;" 
d="M0 105v60h240v-60h-240zM180 23.1162c0 31.5186 -21.3105 51.8838 -54.2881 51.8838c-18.3311 0 -35.0566 -6.63184 -47.0928 -18.6738c-12.0146 -12.0225 -18.6328 -28.7158 -18.6328 -47.0068c0 -15.3867 5.69141 -29.29 16.0264 -39.1484
c10.2549 -9.7832 24.6826 -15.1709 40.6211 -15.1709c11.4824 0 22.0146 2.11621 30.458 6.12012l-6.69434 13.8467c-6.36621 -3.01953 -14.583 -4.61426 -23.7637 -4.61426c-24.6113 0 -41.1465 15.6582 -41.1465 38.9658c0 29.1611 21.123 50.3281 50.2246 50.3281
c24.2881 0 38.7871 -13.6562 38.7871 -36.5303c0 -15.4707 -8.2002 -25.5264 -14.1973 -26.167c-0.842773 0.188477 -1.82617 0.464844 -2.41699 0.697266c-2.23145 2.66992 -4.36621 6.86426 -3.26562 12.5762c0.698242 1.80176 1.23145 3.5625 1.58691 5.23047
l6.59473 28.1143l-7.93359 2.9541c-2.7666 1.03027 -7.57812 2.25684 -14.7861 2.25684c-23.9502 0 -43.4336 -19.2129 -43.4336 -42.8311c0 -13.6406 9.78906 -23.167 23.8047 -23.167c8.54004 0 16.1836 4.07812 22.2275 9.78613
c1.37207 -2.41406 2.89355 -4.34277 4.18359 -5.76074c2.81055 -3.08691 7.81348 -4.49414 11.5156 -5.12988l0.65625 -0.112305h0.667969c14.5693 0 30.2969 15.8877 30.2969 41.5527zM225 94.5v-154.5h-210v154.5h15h180h15zM130.081 33.4258
c1.69238 0 3.14453 -0.0869141 4.37402 -0.220703l-3.36719 -14.3594l-0.0390625 -0.177734c-1.73047 -8.26953 -11.1436 -20.5352 -20.5967 -20.5352c-5.51074 0 -8.30371 2.62891 -8.30371 7.81445c-0.000976562 15.1514 12.5293 27.4785 27.9326 27.4785z" />
    <glyph glyph-name="uniE007" unicode="&#xe007;" 
d="M102.507 68.4014c0 6.85352 6.3125 12.4092 17.7471 12.4092s17.7461 -5.55566 17.7461 -12.4092s-6.31152 -12.4092 -17.7461 -12.4092s-17.7471 5.55566 -17.7471 12.4092zM47.5068 66.2344c-8.4873 0 -25.0068 5.96973 -25.0068 16.9102v35.8447
c0 5.15723 3.21582 9.91211 8.60254 12.7217c0.169922 0.0957031 0.380859 0.209961 0.604492 0.317383c3.32715 1.5957 14.9854 3.87305 18.7637 3.87305c12.1758 0 15.0088 -8.27051 16.5312 -12.7158l0.498047 -1.44434v-41.3477l-0.40625 -1.18262
c-0.274867 -0.800549 -0.593712 -1.56931 -0.954264 -2.30477c1.96056 -1.20844 4.26775 -1.90617 6.73454 -1.90617h23.4056c2.86143 7.19206 10.6176 13.3096 23.9743 13.3096c17.3457 0 25.2461 -10.3184 25.2461 -19.9082s-7.90039 -19.9092 -25.2461 -19.9092
c-12.2246 0 -19.7578 5.12492 -23.1408 11.5078h-24.2391c-7.1447 0 -13.6582 2.71015 -18.5892 7.15127c-2.09361 -0.6026 -4.36601 -0.916891 -6.77799 -0.916891zM192.493 66.2344c-9.47559 0 -16.7969 4.85059 -19.5869 12.9746l-0.40625 1.18457v41.3477
l0.496094 1.44434c1.52246 4.44336 4.35645 12.7158 16.5322 12.7158c3.77832 0 15.4375 -2.27539 18.7588 -3.87012c0.229492 -0.109375 0.44043 -0.223633 0.651367 -0.341797l-0.0419922 0.0214844c5.38574 -2.80957 8.60156 -7.56445 8.60156 -12.7217v-35.8447
c0.00195312 -10.9404 -16.5176 -16.9102 -25.0049 -16.9102zM120.254 73.3105c-6.03223 0 -10.2471 -2.01855 -10.2471 -4.90723c0 -2.89062 4.21387 -4.91016 10.2471 -4.91016c6.03223 0 10.2461 2.01953 10.2461 4.91016c0 2.88867 -4.21387 4.90723 -10.2461 4.90723z
M165.124 68.0986c1.5293 -2.29688 3.34863 -4.33984 5.4082 -6.11426c-4.20605 -7.25195 -9.20898 -14.4629 -15.0693 -21.6602c-8.74512 -10.7393 -21.2217 -16.7275 -35.1348 -16.8623h-0.37207h-0.0820312c-13.8838 0.121094 -26.3506 6.11035 -35.1025 16.8623
c-2.62695 3.22559 -5.07324 6.45215 -7.36426 9.68457h11.9062c6.06738 -7.88574 16.458 -13.5186 30.9404 -13.5186c24.4521 0 37.2461 16.0537 37.2461 31.9102c0 1.56152 -0.12793 3.12305 -0.375 4.67188c1.00195 1.86328 1.9541 3.72656 2.83496 5.59375v-0.274414
l0.811523 -2.36719c1.0166 -2.96289 2.50098 -5.61426 4.35254 -7.92578zM59.0645 146.824c9.47461 21.6406 30.085 33.0098 60.4404 33.0557h1.2207c30.332 -0.0458984 50.9346 -11.3955 60.4209 -33.001c-6.02637 -1.55469 -10.9014 -4.91016 -14.5908 -10.0459
c-6.11914 17.9785 -21.168 26.793 -45.8447 26.8301h-1.19238c-24.7773 -0.0371094 -39.8477 -8.92285 -45.918 -27.0488c-3.66113 5.20215 -8.52148 8.60938 -14.5361 10.21zM172.156 45.9072c32.7891 -11.4355 67.7236 -42.1172 67.7236 -69.3174
c0 -8.69629 -3.14355 -15.9648 -9.34668 -21.6016c-16.6133 -15.0996 -51.2305 -14.7471 -91.3105 -14.3369c-6.29395 0.0644531 -12.8027 0.129883 -19.2227 0.129883c-8.35156 0 -16.7959 -0.171875 -24.9619 -0.338867
c-8.03516 -0.163086 -15.8311 -0.322266 -23.2793 -0.322266c-26.8506 0 -49.1777 2.06836 -61.8242 13.4355c-6.5127 5.85254 -9.81445 13.6035 -9.81445 23.0352c0 17.0508 14.248 32.8311 26.2031 43.0664c12.1475 10.4014 27.4326 19.6738 42.1318 25.709
c2.64648 -3.79102 5.49805 -7.57031 8.57031 -11.3447c0.77832 -0.955078 1.58691 -1.87012 2.41113 -2.76465c-28.293 -10.5059 -60.8721 -36.3311 -60.8721 -54.6641c0 -6.34863 2.43555 -9.27148 4.2666 -10.9189c10.6074 -9.53418 41.7129 -8.89746 71.7979 -8.28418
c8.2666 0.168945 16.8135 0.34375 25.3711 0.34375c6.52344 0 13.083 -0.0683594 19.4277 -0.132812c32.9355 -0.333984 66.998 -0.681641 78.1367 9.44141c2.64258 2.40137 3.87305 5.43555 3.87305 9.55078c0 18.7451 -30.8369 46.6406 -60.4062 54.9072
c0.745117 0.816406 1.47266 1.65332 2.17969 2.51953c3.21875 3.95312 6.19434 7.91406 8.94531 11.8877z" />
    <glyph glyph-name="uniE008" unicode="&#xe008;" 
d="M117.499 -7.5c19.2998 0 35 -11.7764 35 -26.25s-15.7002 -26.25 -35 -26.25c-19.2988 0 -34.999 11.7764 -34.999 26.25s15.7002 26.25 34.999 26.25zM213.414 104.27c17.1445 -4.65039 26.5859 -13.2842 26.5859 -24.3105v-54.4248
c0 -17.3965 -21.2578 -25.501 -35.625 -25.501c-16.002 0 -24.375 10.3135 -24.375 20.502v64.4238c0 6.63281 3.91797 12.6494 10.749 16.5068c0.286133 0.176758 0.545898 0.327148 0.819336 0.469727l0.339844 0.176758c3.30469 1.72266 6.42285 3.34863 12.4668 3.34863
c3.08203 0 6.12402 -0.401367 9.03906 -1.19141zM60 84.959v-64.4238c0 -10.1885 -8.37305 -20.502 -24.375 -20.502c-14.3672 0 -35.625 8.10449 -35.625 25.501v54.4248c0 11.0264 9.44141 19.6602 26.5859 24.3105c2.91504 0.790039 5.95508 1.19141 9.03711 1.19141
c6.04395 0 9.16211 -1.62598 12.4658 -3.34668l0.344727 -0.180664c0.269531 -0.138672 0.529297 -0.291016 0.78418 -0.446289c6.86426 -3.87891 10.7822 -9.89551 10.7822 -16.5283zM70.5 -33.75c0 -2.56641 0.318359 -5.07324 0.912109 -7.5h-1.23145
c-17.1074 0 -35.2334 9.46191 -42.249 29.8291c2.64258 -0.366211 5.23145 -0.547852 7.69336 -0.547852c4.12793 0 7.91504 0.522461 11.3682 1.44922c5.3252 -9.29395 14.7256 -12.9521 23.1875 -12.9521h2.05664c-1.12402 -3.27344 -1.7373 -6.71777 -1.7373 -10.2783z
M26.8438 116.622c8.51172 39.0791 43.1836 63.3779 93.1562 63.3779s84.6445 -24.2988 93.1562 -63.3779c-2.87695 0.548828 -5.81543 0.838867 -8.78125 0.838867c-3.73535 0 -6.81348 -0.474609 -9.41504 -1.16602c-9.24023 33.4609 -43.0234 45.9268 -74.96 45.9268
s-65.7197 -12.4658 -74.96 -45.9277c-2.60156 0.692383 -5.67969 1.16504 -9.41504 1.16504c-2.96582 0.00195312 -5.9043 -0.288086 -8.78125 -0.836914z" />
    <glyph glyph-name="uniE009" unicode="&#xe009;" 
d="M30 180h210v-180h-117v15h102v136.912l-90 -75.7113l-90 75.7113v-29.308c-2.45508 0.333008 -4.95605 0.520508 -7.5 0.520508c-1.39941 0 -2.81836 -0.0517578 -4.2207 -0.157227c-1.10254 -0.0820312 -2.19434 -0.212891 -3.2793 -0.364258v57.3975zM55.9141 -59.6416
c-30.4873 -1.93945 -55.9141 22.3125 -55.9141 52.3926v74.1006c0 19.1348 15.5449 36.7354 34.624 38.166c21.9707 1.64551 40.376 -15.7646 40.376 -37.3936v-64.2666c0 -11.5322 -8.42676 -21.6602 -19.8857 -22.959
c-13.5703 -1.53809 -25.1143 9.08398 -25.1143 22.3506v57.251h15v-56.9561c0 -3.60059 2.40332 -6.91406 5.93066 -7.63379c4.81836 -0.982422 9.06934 2.69238 9.06934 7.33887v64.2676c0 11.5322 -8.42676 21.6602 -19.8857 22.959
c-13.5703 1.53906 -25.1143 -9.08398 -25.1143 -22.3516v-74.1006c0 -19.1348 15.5449 -36.7354 34.624 -38.166c21.9707 -1.64746 40.376 15.7627 40.376 37.3936v37.249h15v-36.3076c0 -27.8389 -21.3027 -51.5664 -49.0859 -53.334zM52.5608 165l82.4392 -70.2002
l82.4392 70.2002h-164.878z" />
    <glyph glyph-name="uniE00A" unicode="&#xe00a;" 
d="M75 120v15h75v-15h-75zM135 45h-15h-30v15h45v-15zM89.4551 75c-0.759766 5.29395 -2.30957 10.335 -4.53125 15h80.0762v-15h-75.5449zM150 60h30v-15h-30v15zM30 180h210v-180h-120v15h105v150h-180v-45.5449c-2.45117 0.352539 -4.95312 0.544922 -7.5 0.544922
s-5.04883 -0.192383 -7.5 -0.544922v60.5449zM210 112.5h-30v37.5h30v-37.5zM55.9141 -59.6416c-30.4873 -1.93945 -55.9141 22.3125 -55.9141 52.3926v74.1006c0 19.1348 15.5449 36.7354 34.624 38.166c21.9707 1.64551 40.376 -15.7646 40.376 -37.3936v-64.2666
c0 -11.5322 -8.42676 -21.6602 -19.8857 -22.959c-13.5703 -1.53809 -25.1143 9.08398 -25.1143 22.3506v57.251h15v-56.9561c0 -3.60059 2.40332 -6.91406 5.93066 -7.63379c4.81836 -0.982422 9.06934 2.69238 9.06934 7.33887v64.2676
c0 11.5322 -8.42676 21.6602 -19.8857 22.959c-13.5703 1.53906 -25.1143 -9.08398 -25.1143 -22.3516v-74.1006c0 -19.1348 15.5449 -36.7354 34.624 -38.166c21.9707 -1.64746 40.376 15.7627 40.376 37.3936v37.249h15v-36.3076
c0 -27.8389 -21.3027 -51.5664 -49.0859 -53.334z" />
    <glyph glyph-name="uniE00B" unicode="&#xe00b;" 
d="M135 76.2002l105 85.0801v-161.28h-117v48h-30v19.624c0 30.6035 -24.8975 55.5 -55.5 55.5c-1.39941 0 -2.81836 -0.0517578 -4.2207 -0.157227c-1.10254 -0.0820312 -2.19434 -0.212891 -3.2793 -0.364258v38.6777zM135 94.7998l-104.331 85.2002h208.663z
M55.9141 -59.6416c-30.4873 -1.93945 -55.9141 22.3125 -55.9141 52.3926v74.1006c0 19.1348 15.5449 36.7354 34.624 38.166c21.9707 1.64551 40.376 -15.7646 40.376 -37.3936v-64.2666c0 -11.5322 -8.42676 -21.6602 -19.8857 -22.959
c-13.5703 -1.53809 -25.1143 9.08398 -25.1143 22.3506v57.251h15v-56.9561c0 -3.60059 2.40332 -6.91406 5.93066 -7.63379c4.81836 -0.982422 9.06934 2.69238 9.06934 7.33887v64.2676c0 11.5322 -8.42676 21.6602 -19.8857 22.959
c-13.5703 1.53906 -25.1143 -9.08398 -25.1143 -22.3516v-74.1006c0 -19.1348 15.5449 -36.7354 34.624 -38.166c21.9707 -1.64746 40.376 15.7627 40.376 37.3936v37.249h15v-36.3076c0 -27.8389 -21.3027 -51.5664 -49.0859 -53.334z" />
    <glyph glyph-name="uniE00C" unicode="&#xe00c;" 
d="M210 112.5v37.5h-30v-37.5h30zM180 45v15h-30v-15h30zM89.4551 75h75.5449v15h-80.0762c2.22168 -4.66309 3.77148 -9.70605 4.53125 -15zM60 135h75v15h-75v-15zM30 180h210v-165h-120v7.5v18.251c0 2.34668 -1.90332 4.24902 -4.24902 4.24902h4.24902h15v15h-45
v7.62402c0 24.7695 -20.7598 47.8174 -45 51.8691v-0.0380859c-2.45117 0.352539 -4.95312 0.544922 -7.5 0.544922s-5.04883 -0.192383 -7.5 -0.544922v60.5449zM55.9141 -59.6416c-30.4873 -1.93945 -55.9141 22.3125 -55.9141 52.3926v74.1006
c0 19.1348 15.5449 36.7354 34.624 38.166c21.9707 1.64551 40.376 -15.7646 40.376 -37.3936v-64.2666c0 -11.5322 -8.42676 -21.6602 -19.8857 -22.959c-13.5703 -1.53809 -25.1143 9.08398 -25.1143 22.3506v57.251h15v-56.9561
c0 -3.60059 2.40332 -6.91406 5.93066 -7.63379c4.81836 -0.982422 9.06934 2.69238 9.06934 7.33887v64.2676c0 11.5322 -8.42676 21.6602 -19.8857 22.959c-13.5703 1.53906 -25.1143 -9.08398 -25.1143 -22.3516v-74.1006c0 -19.1348 15.5449 -36.7354 34.624 -38.166
c21.9707 -1.64746 40.376 15.7627 40.376 37.3936v37.249h15v-36.3076c0 -27.8389 -21.3027 -51.5664 -49.0859 -53.334z" />
    <glyph glyph-name="uniE00D" unicode="&#xe00d;" 
d="M114.069 -59.3369c-13.0215 0 -25.002 4.4209 -34.6484 12.7832c-12.3428 10.7051 -19.4209 26.8193 -19.4209 44.2148v139.529c0 22.8252 16.165 40.584 37.6035 41.3076c0.464844 0.0166016 0.929688 0.0263672 1.3916 0.0263672
c9.65723 0 18.6621 -3.56543 25.3574 -10.04c7.83301 -7.5752 12.1475 -18.3926 12.1475 -30.4619v-127.905c0 -12.1426 -6.73926 -21.625 -17.1689 -24.1572c-2.02344 -0.492188 -4.05762 -0.741211 -6.04785 -0.741211c-5.15527 0 -10.001 1.66699 -14.0098 4.81934
c-5.89355 4.63379 -9.27344 11.9004 -9.27344 19.9365v108.525h16.5v-108.525c0 -2.89746 1.11035 -5.50195 2.96973 -6.96387c1.08789 -0.855469 2.37598 -1.28906 3.83105 -1.28906c0.670898 0 1.38965 0.09375 2.13477 0.273438c4.11914 1 4.5625 6.01367 4.5625 8.12402
v127.905c0 7.44531 -2.59277 14.2256 -7.11523 18.5977c-3.65625 3.5332 -8.46484 5.40234 -13.9072 5.40234c-0.269531 0 -0.541016 -0.00488281 -0.81543 -0.0136719c-12.3486 -0.419922 -21.6602 -11.0898 -21.6602 -24.8203v-139.529
c0 -12.6084 5.00391 -24.1807 13.7314 -31.7471c6.59668 -5.71973 14.8643 -8.74512 23.9062 -8.74512c1.93945 0 3.92285 0.144531 5.89355 0.425781c19.6738 2.81445 29.9688 22.5645 29.9688 40.6201v90.2852h16.5v-90.2852
c0 -29.3428 -18.5605 -53.2949 -44.1318 -56.9531c-2.77344 -0.397461 -5.56445 -0.598633 -8.29883 -0.598633z" />
    <glyph glyph-name="uniE00E" unicode="&#xe00e;" 
d="M77.0938 -58.2627c-16.6123 0 -32.2119 6.45117 -43.9277 18.166c-24.2197 24.2227 -24.2197 63.6348 0 87.8555l117.688 117.687c8.41992 8.41797 19.6113 13.0547 31.5166 13.0547s23.0986 -4.63672 31.5176 -13.0547
c8.41992 -8.41895 13.0547 -19.6104 13.0547 -31.5166c0 -11.9053 -4.63672 -23.0986 -13.0547 -31.5176l-109.414 -109.415c-5.0957 -5.09473 -11.8818 -7.90137 -19.1074 -7.90137c-7.22656 0 -14.0107 2.80469 -19.1064 7.90137
c-10.5361 10.5361 -10.5361 27.6797 -0.00195312 38.2148l94.46 94.4609l13.3945 -13.3955l-94.459 -94.459c-3.15039 -3.15039 -3.15039 -8.27637 0 -11.4258c1.52246 -1.52246 3.55176 -2.36133 5.71191 -2.36133s4.18945 0.838867 5.71289 2.3623l109.413 109.415
c4.84082 4.84082 7.50781 11.2754 7.50781 18.123c0 6.8457 -2.66504 13.2822 -7.50781 18.1211c-4.83984 4.84082 -11.2754 7.50781 -18.123 7.50781c-6.8457 0 -13.2803 -2.66602 -18.1211 -7.50781l-117.686 -117.688c-8.1416 -8.1416 -12.627 -18.9854 -12.627 -30.5322
s4.48535 -22.3906 12.627 -30.5322c8.1416 -8.14258 18.9844 -12.626 30.5312 -12.626s22.3906 4.4834 30.5342 12.626l77.9121 77.9131l13.3955 -13.3955l-77.9131 -77.9131c-11.7168 -11.7148 -27.3164 -18.166 -43.9277 -18.166z" />
    <glyph glyph-name="uniE00F" unicode="&#xe00f;" 
d="M120 105h90v-15h-90v15zM120 67.4951v7.50488h90v-15h-87.123c-0.800781 2.57422 -1.77441 5.07031 -2.87695 7.49512zM125.64 45h84.3604v-15h-85.0947c0.583008 3.49219 0.890625 7.0752 0.890625 10.7314c0 1.43457 -0.0644531 2.85547 -0.15625 4.26855zM30 180h210
v-30v-15v-165h-110.034l-8.60059 15h103.635v150h-180v-31.293c-5.28418 -1.33008 -10.3154 -3.30469 -15 -5.84375v37.1367v15v30zM62.1748 72.1768c-18.4111 0 -33.3887 -15.0195 -33.3887 -33.4814s14.9775 -33.4795 33.3887 -33.4795s33.3887 15.0195 33.3887 33.4795
c0 18.4609 -14.9775 33.4814 -33.3887 33.4814zM34.4561 -24.4678l6.01953 -0.0703125l4.70117 -3.95898l5.47852 18.7549c-2.32422 0.552734 -4.58105 1.27148 -6.7666 2.1416zM73.6738 -9.74805l5.47656 -18.749l4.70117 3.95898l6.01953 0.0703125l-9.42773 16.8594
c-2.18555 -0.869141 -4.44629 -1.58496 -6.76953 -2.13965zM70.5137 -57.0859l-8.34961 28.584l-8.34863 -28.584l-19.3721 16.3096l-27.6064 0.326172l23.0908 41.293c-10.6738 9.13965 -17.4473 22.7188 -17.4473 37.8525c0 27.4531 22.293 49.79 49.6963 49.79
s49.6963 -22.335 49.6963 -49.79c0 -15.1426 -6.78125 -28.7266 -17.4619 -37.8662l23.084 -41.2793l-27.6064 -0.326172zM150 150h15v15h-15v-15zM180 150h15v15h-15v-15zM210 150h15v15h-15v-15z" />
    <glyph glyph-name="uniE010" unicode="&#xe010;" 
d="M62.1748 72.1768c-18.4111 0 -33.3887 -15.0195 -33.3887 -33.4814s14.9775 -33.4795 33.3887 -33.4795s33.3887 15.0195 33.3887 33.4795c0 18.4609 -14.9775 33.4814 -33.3887 33.4814zM34.4561 -24.4678l6.01953 -0.0703125l4.70117 -3.95898l5.47852 18.7549
c-2.32422 0.552734 -4.58105 1.27148 -6.7666 2.1416zM73.6738 -9.74805l5.47656 -18.749l4.70117 3.95898l6.01953 0.0703125l-9.42773 16.8594c-2.18555 -0.869141 -4.44629 -1.58496 -6.76953 -2.13965zM70.5137 -57.0859l-8.34961 28.584l-8.34863 -28.584
l-19.3721 16.3096l-27.6064 0.326172l23.0908 41.293c-10.6738 9.13965 -17.4473 22.7188 -17.4473 37.8525c0 27.4531 22.293 49.79 49.6963 49.79s49.6963 -22.335 49.6963 -49.79c0 -15.1426 -6.78125 -28.7266 -17.4619 -37.8662l23.084 -41.2793l-27.6064 -0.326172z
M176.688 45c3.06445 9.96289 4.82227 20.124 4.82227 29.6562c0 9.70703 -1.86328 20.1182 -5.09863 30.3438h-33.9121v-60h34.1885zM142.5 -8.97852c11.1289 8.67578 21.3467 22.9619 28.5312 38.9785h-28.5312v-38.9785zM142.5 158.608v-38.6084h28.127
c-7.15234 15.6689 -17.1885 29.7461 -28.127 38.6084zM127.5 120v38.9785c-11.2637 -8.86328 -21.6221 -23.1113 -28.9814 -38.9785h28.9814zM135 180c57.8975 0 105 -47.1025 105 -105s-47.1025 -105 -105 -105c-1.71289 0 -3.41406 0.0478516 -5.10938 0.128906
l-1.0448 1.82221l-0.000121126 5.75783e-05l-16.6562 29.0479c0.628906 0.808594 1.23047 1.63672 1.81934 2.47461c4.24512 -5.2334 8.79004 -9.75586 13.4912 -13.252v39.7783h-2.59473c0.583008 3.49219 0.890625 7.0752 0.890625 10.7314
c0 1.43457 -0.0644531 2.85547 -0.15625 4.26855h1.86035v60h-34.8643c-0.709961 -2.20605 -1.34082 -4.4209 -1.91699 -6.63281c-4.41309 2.2959 -9.11621 4.10645 -14.0459 5.3457c0.118164 0.428711 0.224609 0.858398 0.347656 1.28711h-6.91016
c-3.02539 0.433594 -6.11621 0.670898 -9.25977 0.670898c-3.14453 0 -6.23242 -0.237305 -9.25781 -0.670898h-1.42953c-0.0281573 -0.0793763 -0.0562062 -0.158803 -0.0841467 -0.238281c-6.05664 -1.01562 -11.835 -2.86035 -17.2031 -5.43359
c11.0068 46.2002 52.6016 80.6719 102.124 80.6719zM57.1018 120h25.155c6.30145 15.2934 15.2052 29.6388 25.4233 40.7597c-21.4708 -6.85955 -39.4598 -21.5804 -50.5783 -40.7597zM219.859 105h-27.9823c2.99512 -10.5566 4.63184 -20.9658 4.63184 -30.3438
c0 -9.23633 -1.48926 -19.3906 -4.25781 -29.6562h27.6083c3.32851 9.38741 5.14075 19.4861 5.14075 30s-1.81224 20.6126 -5.14075 30zM161.739 160.945c10.3224 -11.3284 18.9301 -25.855 24.9993 -40.9453h26.1834c-11.2215 19.3558 -29.4467 34.1686 -51.1827 40.9453z
M212.921 29.998h-25.6051c-5.8301 -14.9739 -14.2034 -29.3499 -24.4515 -40.5844c21.2388 6.93143 39.0292 21.5644 50.0566 40.5844z" />
    <glyph glyph-name="uniE011" unicode="&#xe011;" 
d="M111.426 81.4062c-5.0127 6.21973 -11.1445 11.4922 -18.0898 15.5205l-63.3359 54.3416v-53.4071c-5.53027 -2.99805 -10.5811 -6.77539 -15 -11.1855v93.3242h225v-195h-118.635l-8.60156 15h112.236v151.269l-97.5 -83.6541zM62.1748 72.1768
c-18.4111 0 -33.3887 -15.0195 -33.3887 -33.4814s14.9775 -33.4795 33.3887 -33.4795s33.3887 15.0195 33.3887 33.4795c0 18.4609 -14.9775 33.4814 -33.3887 33.4814zM34.4561 -24.4678l6.01953 -0.0703125l4.70117 -3.95898l5.47852 18.7549
c-2.32422 0.552734 -4.58105 1.27148 -6.7666 2.1416zM73.6738 -9.74805l5.47656 -18.749l4.70117 3.95898l6.01953 0.0703125l-9.42773 16.8594c-2.18555 -0.869141 -4.44629 -1.58496 -6.76953 -2.13965zM70.5137 -57.0859l-8.34961 28.584l-8.34863 -28.584
l-19.3721 16.3096l-27.6064 0.326172l23.0908 41.293c-10.6738 9.13965 -17.4473 22.7188 -17.4473 37.8525c0 27.4531 22.293 49.79 49.6963 49.79s49.6963 -22.335 49.6963 -49.79c0 -15.1426 -6.78125 -28.7266 -17.4619 -37.8662l23.084 -41.2793l-27.6064 -0.326172z
M37.0323 165l90.4677 -77.6201l90.4656 77.6201h-180.933z" />
    <glyph glyph-name="uniE012" unicode="&#xe012;" 
d="M165 0v75h45v-75h-45zM60 120h150v-30h-106.911c-11.3652 9.75586 -26.1191 15.6709 -42.2373 15.6709c-0.286133 0 -0.566406 -0.0185547 -0.851562 -0.0214844v14.3506zM115.981 75h34.0186v-15h-27.123c-1.65918 5.32812 -3.99707 10.3564 -6.89551 15z
M112.189 1.00098c3.31641 4.27344 6.10156 8.97559 8.28027 13.999h29.5303v-15h-37.2363zM125.64 45h24.3604v-15h-25.0947c0.583008 3.49219 0.890625 7.0752 0.890625 10.7314c0 1.43457 -0.0644531 2.85547 -0.15625 4.26855zM30 180h210v-30v-15v-165h-110.034
l-8.60059 15h103.635v150h-180v-31.293c-5.28418 -1.33008 -10.3154 -3.30469 -15 -5.84375v37.1367v15v30zM62.1748 72.1768c-18.4111 0 -33.3887 -15.0195 -33.3887 -33.4814s14.9775 -33.4795 33.3887 -33.4795s33.3887 15.0195 33.3887 33.4795
c0 18.4609 -14.9775 33.4814 -33.3887 33.4814zM34.4561 -24.4678l6.01953 -0.0703125l4.70117 -3.95898l5.47852 18.7549c-2.32422 0.552734 -4.58105 1.27148 -6.7666 2.1416zM73.6738 -9.74805l5.47656 -18.749l4.70117 3.95898l6.01953 0.0703125l-9.42773 16.8594
c-2.18555 -0.869141 -4.44629 -1.58496 -6.76953 -2.13965zM70.5137 -57.0859l-8.34961 28.584l-8.34863 -28.584l-19.3721 16.3096l-27.6064 0.326172l23.0908 41.293c-10.6738 9.13965 -17.4473 22.7188 -17.4473 37.8525c0 27.4531 22.293 49.79 49.6963 49.79
s49.6963 -22.335 49.6963 -49.79c0 -15.1426 -6.78125 -28.7266 -17.4619 -37.8662l23.084 -41.2793l-27.6064 -0.326172zM150 150h15v15h-15v-15zM180 150h15v15h-15v-15zM210 150h15v15h-15v-15z" />
    <glyph glyph-name="uniE013" unicode="&#xe013;" 
d="M60.5674 88.749c26.7686 0 48.4688 -21.6992 48.4688 -48.4648c0 -26.7666 -21.7002 -48.4648 -48.4688 -48.4648c-26.7695 0 -48.4697 21.6982 -48.4697 48.4648c0 26.7656 21.7002 48.4648 48.4697 48.4648zM96.3154 -5.09961l19.2441 -33.5625l-25.3916 -0.292969
l-18.2021 -18.6221l-11.0479 39.2666l-11.0479 -39.2666l-18.2021 18.6221l-25.3916 0.292969l19.0254 33.1807c9.75879 -7.5293 21.9844 -12.0205 35.2656 -12.0205c13.501 0.000976562 25.9102 4.64355 35.748 12.4023zM225 150v15h-15v-15h15zM195 150v15h-15v-15h15z
M165 150v15h-15v-15h15zM30 180h210v-45h-210v45zM225 75v15h-105v-15h105zM105 120h135v-135h-119.274l-8.99707 15.6904c3.38281 4.36035 6.21094 9.16797 8.40234 14.3096h104.869v15h-100.539c0.537109 3.35059 0.826172 6.78418 0.826172 10.2842
c0 1.58789 -0.0771484 3.15723 -0.19043 4.71582h99.9033v15h-102.794c-3.37109 10.5137 -9.36523 19.8574 -17.2061 27.2734v32.7266zM60.5674 105c-11.0498 0 -21.458 -2.78809 -30.5674 -7.69043v22.6904h60v-22.1084c-8.83789 4.5332 -18.8369 7.1084 -29.4326 7.1084z
" />
    <glyph glyph-name="uniE014" unicode="&#xe014;" 
d="M60.5674 88.749c26.7686 0 48.4688 -21.6992 48.4688 -48.4648c0 -26.7666 -21.7002 -48.4648 -48.4688 -48.4648c-26.7695 0 -48.4697 21.6982 -48.4697 48.4648c0 26.7656 21.7002 48.4648 48.4697 48.4648zM96.3154 -5.09961l19.2441 -33.5625l-25.3916 -0.292969
l-18.2021 -18.6221l-11.0479 39.2666l-11.0479 -39.2666l-18.2021 18.6221l-25.3916 0.292969l19.0254 33.1807c9.75879 -7.5293 21.9844 -12.0205 35.2656 -12.0205c13.501 0.000976562 25.9102 4.64355 35.748 12.4023zM176.688 45
c3.06445 9.96289 4.82227 20.124 4.82227 29.6562c0 9.70703 -1.86328 20.1182 -5.09863 30.3438h-33.9121v-60h34.1885zM142.5 -8.97852c11.1289 8.67578 21.3467 22.9619 28.5312 38.9785h-28.5312v-38.9785zM142.5 158.608v-38.6084h28.127
c-7.15234 15.6689 -17.1885 29.7461 -28.127 38.6084zM127.5 120v38.9785c-11.2637 -8.86328 -21.6221 -23.1113 -28.9814 -38.9785h28.9814zM135 180c57.8975 0 105 -47.1025 105 -105s-47.1025 -105 -105 -105c-1.93457 0 -3.85645 0.0615234 -5.76758 0.165039
l-1.26893 2.21308l-0.00157605 0.000782589l-16.2334 28.3096c0.746094 0.961914 1.4541 1.9502 2.14551 2.95215c4.28223 -5.30371 8.875 -9.88477 13.626 -13.4189v39.7783h-3.03906c0.537109 3.35059 0.826172 6.78418 0.826172 10.2842
c0 1.58789 -0.0771484 3.15723 -0.19043 4.71582h2.40332v60h-34.8633c-0.790039 -2.45215 -1.49414 -4.91504 -2.11621 -7.37598c-4.4082 2.31152 -9.1084 4.13867 -14.0371 5.38965c0.178711 0.663086 0.347656 1.3252 0.537109 1.98633h-26.8527
c-0.106326 -0.299735 -0.211109 -0.600193 -0.314337 -0.901367c-6.02637 -1.00977 -11.7793 -2.84277 -17.123 -5.40039c10.7773 46.5166 52.5234 81.3018 102.27 81.3018zM57.1063 120h25.1505c6.30133 15.2931 15.2049 29.6382 25.4227 40.7591
c-21.469 -6.8599 -39.4557 -21.5807 -50.5733 -40.7591zM219.859 105h-27.9823c2.99512 -10.5566 4.63184 -20.9658 4.63184 -30.3438c0 -9.23633 -1.48926 -19.3906 -4.25781 -29.6562h27.6083c3.32851 9.38741 5.14075 19.4861 5.14075 30s-1.81224 20.6126 -5.14075 30z
M161.739 160.945c10.3224 -11.3284 18.9301 -25.855 24.9993 -40.9453h26.1834c-11.2215 19.3558 -29.4467 34.1686 -51.1827 40.9453zM212.92 29.9971h-25.6045c-5.82976 -14.973 -14.2024 -29.3486 -24.4497 -40.5829c21.2377 6.93155 39.0271 21.5639 50.0542 40.5829z
" />
    <glyph glyph-name="uniE015" unicode="&#xe015;" 
d="M135 69.7168l105 88.7539v-173.471h-119.274l-8.99707 15.6904c8.49609 10.9512 13.5586 24.6924 13.5586 39.5938c0 35.6846 -29.0332 64.7158 -64.7197 64.7158c-11.0498 0 -21.458 -2.78809 -30.5674 -7.69043v61.1611zM239.331 180l-104.331 -87.7998
l-104.331 87.7998h208.662zM60.5674 88.749c26.7686 0 48.4688 -21.6992 48.4688 -48.4648c0 -26.7666 -21.7002 -48.4648 -48.4688 -48.4648c-26.7695 0 -48.4697 21.6982 -48.4697 48.4648c0 26.7656 21.7002 48.4648 48.4697 48.4648zM96.3154 -5.09961l19.2441 -33.5625
l-25.3916 -0.292969l-18.2021 -18.6221l-11.0479 39.2666l-11.0479 -39.2666l-18.2021 18.6221l-25.3916 0.292969l19.0254 33.1807c9.75879 -7.5293 21.9844 -12.0205 35.2656 -12.0205c13.501 0.000976562 25.9102 4.64355 35.748 12.4023z" />
    <glyph glyph-name="uniE016" unicode="&#xe016;" 
d="M60.5674 88.749c26.7686 0 48.4688 -21.6992 48.4688 -48.4648c0 -26.7666 -21.7002 -48.4648 -48.4688 -48.4648c-26.7695 0 -48.4697 21.6982 -48.4697 48.4648c0 26.7656 21.7002 48.4648 48.4697 48.4648zM96.3154 -5.09961l19.2441 -33.5625l-25.3916 -0.292969
l-18.2021 -18.6221l-11.0479 39.2666l-11.0479 -39.2666l-18.2021 18.6221l-25.3916 0.292969l19.0254 33.1807c9.75879 -7.5293 21.9844 -12.0205 35.2656 -12.0205c13.501 0.000976562 25.9102 4.64355 35.748 12.4023zM225 150v15h-15v-15h15zM195 150v15h-15v-15h15z
M165 150v15h-15v-15h15zM30 180h210v-45h-210v45zM210 15v45h-45v-45h45zM30 120h210v-135h-119.274l-8.99707 15.6904c3.38281 4.36035 6.21094 9.16797 8.40234 14.3096h29.8691v15h-25.5391c0.537109 3.35059 0.826172 6.78418 0.826172 10.2842
c0 1.58789 -0.0771484 3.15723 -0.19043 4.71582h24.9033v15h-27.7939c-1.70996 5.33594 -4.10059 10.3652 -7.05957 15h94.8535v30h-150v-0.0146484c-10.8379 -0.09375 -21.0479 -2.85742 -30 -7.67578v22.6904z" />
    <glyph glyph-name="uniE017" unicode="&#xe017;" 
d="M135 30v-15h-105v15h105zM135 45h-105v15h105v-15zM15 -15h30v-20.2451l41.4932 20.2451h63.5068v105h-135v-105zM30 -59.2549v29.2549h-30v135h165v-135h-75.0439zM240 180v-150h-30v-41.5361l-30 19.4111v17.8662l15 -9.70605v28.9648h30v120h-165v-45h-15v60h195z" />
    <glyph glyph-name="uniE018" unicode="&#xe018;" 
d="M100.001 106.673c-26.2119 0 -48.6113 -20.127 -52.1016 -46.8164c-0.466797 -3.55957 -3.0166 -6.49414 -6.4707 -7.43848c-13.9248 -3.81641 -23.6504 -16.8691 -23.6504 -31.7432c0 -18.1133 14.2891 -32.8486 31.8525 -32.8486h130.369
c23.2812 0 42.2217 19.5039 42.2217 43.4775c0 23.9727 -18.9404 43.4785 -42.2217 43.4785c-6.84863 0 -13.3916 -1.64551 -19.4492 -4.8916c-2.19727 -1.17871 -4.78809 -1.37695 -7.13867 -0.546875c-2.35059 0.829102 -4.24609 2.6084 -5.22363 4.90625
c-8.3916 19.6963 -27.3066 32.4229 -48.1875 32.4229zM180 -30h-130.371c-27.3662 0 -49.6289 22.7324 -49.6289 50.6748c0 20.8838 12.582 39.4678 31.2197 47.0654c6.88672 32.7266 35.5332 56.7598 68.7812 56.7598c25.0449 0 47.9453 -13.5674 60.5137 -35.2188
c6.25195 2.19043 12.8584 3.32715 19.4854 3.32715c33.084 0 60 -27.501 60 -61.3047c0 -33.8047 -26.916 -61.3037 -60 -61.3037z" />
    <glyph glyph-name="uniE019" unicode="&#xe019;" 
d="M120 -30h-45v15h45v-15zM120 0h-45v15h45v-15zM120 30h-45v15h45v-15zM0 105h150v-30v-15v-120h-150v120v15v30zM15 -45h30v105h-30v-105zM194.262 155.835c25.2197 0 45.7383 -21.4961 45.7383 -47.917c0 -26.4219 -20.5186 -47.918 -45.7383 -47.918h-29.2617v16.4365
h29.2637c16.3623 0 29.6729 14.123 29.6729 31.4824s-13.3105 31.4824 -29.6729 31.4824c-4.7998 0 -9.38574 -1.18652 -13.6318 -3.52344c-1.16602 -0.642578 -2.48242 -0.981445 -3.80762 -0.981445c-0.916016 0 -1.81738 0.15918 -2.68164 0.470703
c-2.11914 0.766602 -3.83691 2.41992 -4.71289 4.53613c-5.96094 14.373 -19.3789 23.6611 -34.1836 23.6611c-18.5957 0 -34.4893 -14.7002 -36.9717 -34.1953c-0.420898 -3.29004 -2.71094 -5.98242 -5.83496 -6.86133c-2 -0.5625 -3.86621 -1.42285 -5.58203 -2.50781
h-21.5508c4.08301 7.26172 10.2998 13.1846 17.9121 16.5664c5.51562 25.2148 27.2773 43.4336 52.0273 43.4336c18.3701 0 35.6201 -10.0723 45.3115 -26.3701c4.44922 1.46289 9.05273 2.20508 13.7041 2.20508zM60 60v-105h75v105h-75zM90 75h15v15h-15v-15zM120 75h15
v15h-15v-15z" />
    <glyph glyph-name="uniE01A" unicode="&#xe01a;" 
d="M30 -60v15h90v-15h-90zM135 -15v90h-120v-90h120zM0 90h150v-120h-150v120zM194.262 155.835c25.2197 0 45.7383 -21.4961 45.7383 -47.917c0 -26.4219 -20.5186 -47.918 -45.7383 -47.918h-29.2617v16.4365h29.2637c16.3623 0 29.6729 14.123 29.6729 31.4824
s-13.3105 31.4824 -29.6729 31.4824c-4.7998 0 -9.38574 -1.18652 -13.6318 -3.52344c-1.16602 -0.642578 -2.48242 -0.981445 -3.80762 -0.981445c-0.916016 0 -1.81738 0.15918 -2.68164 0.470703c-2.11914 0.766602 -3.83691 2.41992 -4.71289 4.53613
c-5.96094 14.373 -19.3789 23.6611 -34.1836 23.6611c-18.5957 0 -34.4893 -14.7002 -36.9717 -34.1953c-0.420898 -3.29004 -2.71094 -5.98242 -5.83496 -6.86133c-8.04492 -2.26465 -14.0498 -9.12891 -15.8223 -17.5078h-16.2725
c1.75781 13.8271 10.4736 26.0576 22.874 31.5664c5.51562 25.2148 27.2773 43.4336 52.0273 43.4336c18.3701 0 35.6201 -10.0723 45.3115 -26.3701c4.44922 1.46289 9.05273 2.20508 13.7041 2.20508z" />
    <glyph glyph-name="uniE01B" unicode="&#xe01b;" 
d="M85.3291 39.4648c-10.1084 0 -18.333 -8.22266 -18.333 -18.333c0 -10.1084 8.22266 -18.3311 18.333 -18.3311c10.1084 0 18.3311 8.22266 18.3311 18.3311s-8.22266 18.333 -18.3311 18.333zM85.3291 -11.9912c-18.2637 0 -33.125 14.8594 -33.125 33.123
c0 18.2646 14.8594 33.125 33.125 33.125s33.123 -14.8594 33.123 -33.125c0 -18.2637 -14.8594 -33.123 -33.123 -33.123zM113.533 -43.7686l13.9033 8.03516l-9.19141 15.8018l4.03027 4.02539c6.52051 6.51367 11.2139 14.6406 13.5703 23.502l1.46289 5.49512h17.8066
v16.0811h-17.8066l-1.46289 5.49414c-2.35645 8.8584 -7.04395 16.9805 -13.5566 23.4902l-4.08887 4.08789l9.17383 15.2529l-13.9023 8.03418l-9.1875 -15.2773l-5.38184 1.44629c-4.38281 1.17578 -8.9502 1.77246 -13.5732 1.77246
c-4.6123 0 -9.16992 -0.59375 -13.5439 -1.76367l-5.52148 -1.47754l-8.6543 15.2402l-13.9023 -8.03613l8.67285 -15.2725l-3.99023 -3.98438c-6.52441 -6.5127 -11.2197 -14.6426 -13.5791 -23.5107l-1.46289 -5.49414h-17.8066v-16.082h17.8066l1.46289 -5.49414
c2.36133 -8.87305 7.06055 -17.0059 13.5918 -23.5234l3.93457 -3.92383l-8.68848 -15.8203l13.9004 -8.03418l8.65332 15.7549l5.60156 -1.49707c4.36914 -1.16895 8.91992 -1.75977 13.5254 -1.75977c4.61719 0 9.17871 0.59375 13.5566 1.76855l5.46289 1.46387z
M112.596 -59.5039c-4.37402 0 -8.43555 2.36035 -10.6016 6.15625l-4.87402 8.37598c-3.86914 -0.686523 -7.83008 -1.0332 -11.7939 -1.0332c-3.9043 0 -7.80469 0.336914 -11.6162 1.00195l-4.46094 -8.12109c-2.12207 -3.91309 -6.22949 -6.35059 -10.7119 -6.35059
c-2.13672 0 -4.24805 0.56543 -6.10059 1.63477l-18.3838 10.627c-5.76562 3.33203 -7.79688 10.5273 -4.62305 16.3838l4.70703 8.57031c-5.18945 6.12305 -9.1875 13.0244 -11.9033 20.5576h-9.2793c-6.72949 0 -12.2041 5.47559 -12.2041 12.2041v21.2578
c0 6.72949 5.47461 12.2041 12.2041 12.2041h9.28223c2.70312 7.49902 6.67773 14.375 11.8379 20.4814l-4.51367 7.9502c-3.24902 5.82422 -1.21484 13.2471 4.52539 16.5625l18.3799 10.625c1.85352 1.07031 3.96582 1.6377 6.10352 1.6377
c4.41992 0 8.50293 -2.39746 10.6572 -6.25488l4.38184 -7.71582c3.84375 0.677734 7.77734 1.01953 11.7158 1.01953c4.00098 0 7.99707 -0.352539 11.8984 -1.05176l4.85645 8.0752c2.1543 3.66699 6.17773 5.95801 10.4873 5.95801
c2.13867 0 4.24902 -0.566406 6.10352 -1.63867l18.3818 -10.624c2.83691 -1.63965 4.8584 -4.28613 5.69238 -7.4541c0.835938 -3.16797 0.381836 -6.46875 -1.27637 -9.29199l-4.77148 -7.93555c5.10352 -6.07031 9.03809 -12.8994 11.7217 -20.3408h9.28125
c6.72949 0 12.2041 -5.47559 12.2041 -12.2041v-21.2568c0 -6.72852 -5.47461 -12.2041 -12.2041 -12.2041h-9.28125c-2.69434 -7.47266 -6.6543 -14.3291 -11.79 -20.4219l4.91504 -8.4502c3.33789 -5.84863 1.33008 -13.3184 -4.46289 -16.666l-18.3838 -10.626
c-1.85059 -1.07617 -3.96094 -1.6416 -6.10059 -1.6416zM194.262 155.835c25.2197 0 45.7383 -21.4961 45.7383 -47.917c0 -26.4219 -20.5186 -47.918 -45.7363 -47.916h-36.6289c-0.931641 1.7334 -1.90918 3.44043 -2.96387 5.10449
c1.98633 3.53516 3.1084 7.3916 3.39355 11.3301h36.1992c16.3623 0 29.6729 14.123 29.6729 31.4824s-13.3105 31.4824 -29.6729 31.4824c-4.7998 0 -9.38574 -1.18652 -13.6318 -3.52344c-1.16602 -0.642578 -2.48242 -0.981445 -3.80762 -0.981445
c-0.916016 0 -1.81738 0.15918 -2.68164 0.470703c-2.11914 0.766602 -3.83691 2.41992 -4.71289 4.53613c-5.96094 14.373 -19.3789 23.6611 -34.1836 23.6611c-18.5957 0 -34.4893 -14.7002 -36.9717 -34.1953c-0.420898 -3.29004 -2.71094 -5.98242 -5.83496 -6.86133
c-6.91406 -1.94531 -12.3154 -7.29297 -14.8281 -14.0742c-3.91309 3.83203 -8.91895 6.41406 -14.3564 7.36621c3.8623 9.16504 10.9287 16.7539 19.9639 20.7666c5.51562 25.2148 27.2773 43.4336 52.0273 43.4336c18.3701 0 35.6201 -10.0723 45.3115 -26.3701
c4.44922 1.46289 9.05273 2.20508 13.7041 2.20508z" />
    <glyph glyph-name="uniE01C" unicode="&#xe01c;" 
d="M194.262 155.835c25.2197 0 45.7383 -21.4961 45.7383 -47.917c0 -26.4219 -20.5186 -47.918 -45.7383 -47.918h-44.2617v16.4365h44.2637c16.3623 0 29.6729 14.123 29.6729 31.4824s-13.3105 31.4824 -29.6729 31.4824c-4.7998 0 -9.38574 -1.18652 -13.6318 -3.52344
c-1.16602 -0.642578 -2.48242 -0.981445 -3.80762 -0.981445c-0.916016 0 -1.81738 0.15918 -2.68164 0.470703c-2.11914 0.766602 -3.83691 2.41992 -4.71289 4.53613c-5.96094 14.373 -19.3789 23.6611 -34.1836 23.6611c-18.5957 0 -34.4893 -14.7002 -36.9717 -34.1953
c-0.420898 -3.29004 -2.71094 -5.98242 -5.83496 -6.86133c-8.04492 -2.26465 -14.0498 -9.12891 -15.8223 -17.5078h-16.2725c1.75781 13.8271 10.4736 26.0576 22.874 31.5664c5.51562 25.2148 27.2773 43.4336 52.0273 43.4336
c18.3701 0 35.6201 -10.0723 45.3115 -26.3701c4.44922 1.46289 9.05273 2.20508 13.7041 2.20508zM120 45v30h-105v-30h105zM120 0v30h-105v-30h105zM120 -45v30h-105v-30h105zM0 90h135v-60v-30v-15v-45h-135v45v15v30v60zM105 -22.5v-15h-30v15h30zM105 67.5v-15h-30v15
h30zM105 22.5v-15h-30v15h30z" />
    <glyph glyph-name="uniE01D" unicode="&#xe01d;" 
d="M105.039 -37.4111c8.36133 3.48535 13.7637 8.04688 13.7637 11.6152v88.7363c-12.9121 -6.99316 -33.3428 -9.75391 -51.3027 -9.75391c-18.0244 0 -38.5684 2.85352 -51.3018 10.0928v-89.0732c0 -3.57129 5.40332 -8.13184 13.7646 -11.6172
c11.2783 -4.70312 22.7471 -6.7998 37.1895 -6.7998c14.5215 0 26.9131 2.22461 37.8867 6.7998zM67.1504 89.21c-36.1826 0 -49.0977 -7.64746 -50.9531 -10.0098v-1.35742c5.32031 -4.93359 21.2188 -12.624 51.3027 -12.624c27.6152 0 44.8105 6.65234 51.3018 12.0234
v1.9502c-1.85742 2.25781 -15.4131 10.0176 -51.6514 10.0176zM67.1504 105c32.8008 0 67.8496 -6.61816 67.8496 -25.1914v-105.603c0 -10.3818 -8.07617 -19.5557 -22.7402 -25.833c-13.1582 -5.63379 -27.9131 -8.37305 -45.1094 -8.37305
c-16.959 0 -31.0713 2.65918 -44.4102 8.37305c-14.6641 6.27734 -22.7402 15.4512 -22.7402 25.833v105.603c0 18.5732 34.6875 25.1914 67.1504 25.1914zM194.262 155.835c25.2197 0 45.7383 -21.4961 45.7383 -47.917c0 -26.4219 -20.5186 -47.918 -45.7363 -47.918
h-43.8672v16.4365h43.8672c16.3623 0 29.6729 14.123 29.6729 31.4824s-13.3105 31.4824 -29.6729 31.4824c-4.7998 0 -9.38574 -1.18652 -13.6318 -3.52344c-1.16602 -0.642578 -2.48242 -0.981445 -3.80762 -0.981445c-0.916016 0 -1.81738 0.15918 -2.68164 0.470703
c-2.11914 0.766602 -3.83691 2.41992 -4.71289 4.53613c-5.96094 14.373 -19.3789 23.6611 -34.1836 23.6611c-18.5957 0 -34.4893 -14.7002 -36.9717 -34.1953c-0.420898 -3.29004 -2.71094 -5.98242 -5.83496 -6.86133
c-2.08398 -0.585938 -4.02051 -1.49707 -5.79297 -2.64551c-6.2002 0.501953 -12.7217 0.763672 -19.502 0.763672c-0.496094 0 -0.984375 -0.0078125 -1.47754 -0.0107422c4.08594 6.97754 10.1562 12.666 17.5518 15.9512
c5.51562 25.2148 27.2773 43.4336 52.0273 43.4336c18.3701 0 35.6201 -10.0723 45.3115 -26.3701c4.44922 1.46289 9.05273 2.20508 13.7041 2.20508z" />
    <glyph glyph-name="uniE01E" unicode="&#xe01e;" 
d="M135 -45v105l-45 -0.1875v45.1875h-75v-150h120zM0 120h95.4375l54.5625 -54.75v-125.25h-150v180zM194.262 155.835c25.2197 0 45.7383 -21.4961 45.7383 -47.917c0 -26.4219 -20.5186 -47.918 -45.7383 -47.918h-29.2617v11.4482l-4.96973 4.98828h34.2334
c16.3623 0 29.6729 14.123 29.6729 31.4824s-13.3105 31.4824 -29.6729 31.4824c-4.7998 0 -9.38574 -1.18652 -13.6318 -3.52344c-1.16602 -0.642578 -2.48242 -0.981445 -3.80762 -0.981445c-0.916016 0 -1.81738 0.15918 -2.68164 0.470703
c-2.11914 0.766602 -3.83691 2.41992 -4.71289 4.53613c-5.96094 14.373 -19.3789 23.6611 -34.1836 23.6611c-16.7549 0 -31.3145 -11.9385 -35.8467 -28.5645h-19.2588c1.00195 0.5625 2.02148 1.09668 3.07812 1.56641c5.51562 25.2148 27.2773 43.4336 52.0273 43.4336
c18.3701 0 35.6201 -10.0723 45.3115 -26.3701c4.44922 1.46289 9.05273 2.20508 13.7041 2.20508z" />
    <glyph glyph-name="uniE01F" unicode="&#xe01f;" 
d="M190.085 8.50977l-69.4893 -68.5518l-69.4893 68.5518l19.6992 19.9199l34.1943 -33.6484v95.2188h30v-96.3965l35.3848 34.8262zM180 149.038c33.084 0 60 -26.6992 60 -59.5195c0 -29.7041 -22.0527 -54.3965 -50.7686 -58.8135l-16.418 16.6016h7.18652
c23.2812 0 42.2188 18.9365 42.2188 42.2119s-18.9404 42.2119 -42.2217 42.2119c-6.84863 0 -13.3916 -1.59766 -19.4492 -4.74902c-2.19727 -1.14453 -4.78809 -1.33691 -7.13867 -0.53125c-2.35059 0.803711 -4.24609 2.5332 -5.22461 4.76367
c-8.38867 19.1221 -27.3027 31.4775 -48.1855 31.4775c-26.2109 0 -48.6104 -19.54 -52.1006 -45.4531c-0.466797 -3.45703 -3.0166 -6.30469 -6.47168 -7.22266c-13.9258 -3.70312 -23.6504 -16.377 -23.6504 -30.8174c0 -17.5859 14.2891 -31.8916 31.8525 -31.8916
h18.749l-17.1152 -17.3066h-1.63379c-27.3662 0 -49.6289 22.0713 -49.6289 49.1982c0 20.2754 12.582 38.3193 31.2197 45.6943c6.88672 31.7754 35.5332 55.1074 68.7812 55.1074c25.0439 0 47.9453 -13.1729 60.5137 -34.1924
c6.25195 2.12695 12.8584 3.23047 19.4854 3.23047z" />
    <glyph glyph-name="uniE020" unicode="&#xe020;" 
d="M15 -45h150v105h-63.9121l-29.25 30h-56.8379v-135zM180 -60h-180v165h78.0693l29.25 -30h72.6807v-135zM194.262 155.835c25.2197 0 45.7383 -21.4961 45.7402 -47.916c0 -26.1631 -20.1211 -47.4824 -45 -47.8975v16.4541
c16.0176 0.421875 28.9346 14.3477 28.9346 31.4434c0 17.3594 -13.3105 31.4824 -29.6729 31.4824c-4.7998 0 -9.38574 -1.18652 -13.6318 -3.52344c-1.16602 -0.642578 -2.48242 -0.981445 -3.80762 -0.981445c-0.916016 0 -1.81738 0.15918 -2.68164 0.470703
c-2.11914 0.766602 -3.83691 2.41992 -4.71289 4.53613c-5.96094 14.373 -19.3789 23.6611 -34.1836 23.6611c-18.5957 0 -34.4893 -14.7002 -36.9717 -34.1953c-0.420898 -3.29004 -2.71094 -5.98242 -5.83496 -6.86133
c-2.58984 -0.728516 -4.95898 -1.94727 -7.05469 -3.52441l-0.992188 1.0166h-19.0859c4.08301 7.26172 10.2998 13.1846 17.9121 16.5664c5.51562 25.2148 27.2773 43.4336 52.0273 43.4336c18.3701 0 35.6201 -10.0723 45.3115 -26.3701
c4.44922 1.46289 9.05273 2.20508 13.7041 2.20508z" />
    <glyph glyph-name="uniE021" unicode="&#xe021;" 
d="M106.595 -13.4805c0.604492 -4.56641 0.702148 -6.47852 -0.90332 -11.5381c-1.80762 -5.69727 -27.6572 -4.94824 -38.8408 -4.94824c-11.1855 0 -36.7354 -0.746094 -38.543 4.95117c-1.60645 5.06152 -1.50586 6.97559 -0.902344 11.543
c2.00488 11.3623 5.57715 11.5576 25.0898 19.29c2.85059 1.19922 3.66016 2.93945 3.44727 5.40527c-5.50488 7.38477 -8.80762 19.3057 -8.80762 27.6562c0 12.9297 3.6084 21.1211 19.7139 21.1211c16.1074 0 20.0391 -8.19141 20.0391 -21.1211
c0 -8.35059 -3.31641 -20.2949 -8.82031 -27.6787c-0.214844 -2.46582 0.59082 -4.19336 3.43945 -5.39551c19.5137 -7.7334 23.082 -7.92285 25.0879 -19.2852zM150 30h-30v15h30v-15zM150 0h-30v15h30v-15zM15 -45h150v120h-150v-120zM180 -60h-180v150h180v-150z
M194.262 155.835c25.2197 0 45.7383 -21.4961 45.7402 -47.916c0 -26.1631 -20.1211 -47.4824 -45 -47.8975v16.4541c16.0176 0.421875 28.9346 14.3477 28.9346 31.4434c0 17.3594 -13.3105 31.4824 -29.6729 31.4824c-4.7998 0 -9.38574 -1.18652 -13.6318 -3.52344
c-1.16602 -0.642578 -2.48242 -0.981445 -3.80762 -0.981445c-0.916016 0 -1.81738 0.15918 -2.68164 0.470703c-2.11914 0.766602 -3.83691 2.41992 -4.71289 4.53613c-5.96094 14.373 -19.3789 23.6611 -34.1836 23.6611c-18.5957 0 -34.4893 -14.7002 -36.9717 -34.1953
c-0.420898 -3.29004 -2.71094 -5.98242 -5.83496 -6.86133c-8.04492 -2.26465 -14.0498 -9.12891 -15.8223 -17.5078h-16.2725c1.75781 13.8271 10.4736 26.0576 22.874 31.5664c5.51562 25.2148 27.2773 43.4336 52.0273 43.4336
c18.3701 0 35.6201 -10.0723 45.3115 -26.3701c4.44922 1.46289 9.05273 2.20508 13.7041 2.20508z" />
    <glyph glyph-name="uniE022" unicode="&#xe022;" 
d="M60 -30v30h15v-30h-15zM120 -45v75h-105v-75h105zM194.262 155.835c25.2197 0 45.7383 -21.4961 45.7383 -47.917c0 -26.4219 -20.5186 -47.918 -45.7383 -47.918h-44.2617h-21v15.3105c0 0.37793 -0.0224609 0.75 -0.0302734 1.12598h65.2939
c16.3623 0 29.6729 14.123 29.6729 31.4824s-13.3105 31.4824 -29.6729 31.4824c-4.7998 0 -9.38574 -1.18652 -13.6318 -3.52344c-1.16602 -0.642578 -2.48242 -0.981445 -3.80762 -0.981445c-0.916016 0 -1.81738 0.15918 -2.68164 0.470703
c-2.11914 0.766602 -3.83691 2.41992 -4.71289 4.53613c-5.96094 14.373 -19.3789 23.6611 -34.1836 23.6611c-18.5957 0 -34.4893 -14.7002 -36.9717 -34.1953c-0.102539 -0.803711 -0.320312 -1.57031 -0.630859 -2.28418
c-5.9502 3.24707 -12.5098 5.56152 -19.4707 6.74316c1.60156 1.03711 3.28613 1.95605 5.0459 2.73828c5.51562 25.2148 27.2773 43.4336 52.0273 43.4336c18.3701 0 35.6201 -10.0723 45.3115 -26.3701c4.44922 1.46289 9.05273 2.20508 13.7041 2.20508zM114 45h21v-105
h-135v105h21v30.3086c0 24.501 20.8604 44.4346 46.5 44.4346s46.5 -19.9336 46.5 -44.4346v-30.3086zM37.5 45h60v30.3086c0 15.7578 -13.1777 28.1016 -30 28.1016s-30 -12.3438 -30 -28.1016v-30.3086z" />
    <glyph glyph-name="uniE023" unicode="&#xe023;" 
d="M127.5 15c8.28418 0 15 -6.71582 15 -15s-6.71582 -15 -15 -15s-15 6.71582 -15 15s6.71582 15 15 15zM82.5 15c8.28418 0 15 -6.71582 15 -15s-6.71582 -15 -15 -15s-15 6.71582 -15 15s6.71582 15 15 15zM52.5 0c0 -8.28418 -6.71582 -15 -15 -15s-15 6.71582 -15 15
s6.71582 15 15 15s15 -6.71582 15 -15zM0 90h165v-45v-105h-165v105v45zM194.262 155.835c25.2197 0 45.7383 -21.4961 45.7383 -47.917c0 -26.4219 -20.5186 -47.918 -45.7383 -47.918h-14.2617v16.4365h14.2637c16.3623 0 29.6729 14.123 29.6729 31.4824
s-13.3105 31.4824 -29.6729 31.4824c-4.7998 0 -9.38574 -1.18652 -13.6318 -3.52344c-1.16602 -0.642578 -2.48242 -0.981445 -3.80762 -0.981445c-0.916016 0 -1.81738 0.15918 -2.68164 0.470703c-2.11914 0.766602 -3.83691 2.41992 -4.71289 4.53613
c-5.96094 14.373 -19.3789 23.6611 -34.1836 23.6611c-18.5957 0 -34.4893 -14.7002 -36.9717 -34.1953c-0.420898 -3.29004 -2.71094 -5.98242 -5.83496 -6.86133c-8.04492 -2.26465 -14.0498 -9.12891 -15.8223 -17.5078h-16.2725
c1.75781 13.8271 10.4736 26.0576 22.874 31.5664c5.51562 25.2148 27.2773 43.4336 52.0273 43.4336c18.3701 0 35.6201 -10.0723 45.3115 -26.3701c4.44922 1.46289 9.05273 2.20508 13.7041 2.20508zM15 45l-3.55271e-15 -90h22.5h7.5h15h4.5h85.5v90h-135z" />
    <glyph glyph-name="uniE024" unicode="&#xe024;" 
d="M57.54 78.0371c0 -36.333 15.2793 -56.9561 32.1738 -56.958c21.1797 0 32.9131 36.1172 32.9131 59.7119c0 11.5459 -2.8584 -5.50781 -20.709 -5.50781c-10.8262 0 -44.3779 18.4307 -44.3779 2.75391zM194.262 155.835c25.2197 0 45.7383 -21.4961 45.7383 -47.917
c0 -26.4219 -20.5186 -47.918 -45.7363 -47.9199h-39.4863c-0.0615234 3.6709 -0.146484 7.56641 -0.257812 11.7441l-0.0195312 0.454102c-0.0810547 1.44922 -0.196289 2.84766 -0.316406 4.23926h40.0801c16.3623 0 29.6729 14.1221 29.6729 31.4824
c0 17.3594 -13.3105 31.4814 -29.6729 31.4814c-4.7998 0 -9.38574 -1.18652 -13.6318 -3.52344c-1.16602 -0.641602 -2.48242 -0.981445 -3.80762 -0.981445c-0.916016 0 -1.81738 0.15918 -2.68164 0.47168c-2.11914 0.766602 -3.83691 2.41895 -4.71289 4.53613
c-5.96094 14.373 -19.3789 23.6611 -34.1836 23.6611c-14.5439 0 -27.4336 -8.99316 -33.5488 -22.2393c-3.95117 0.551758 -7.88379 0.795898 -11.7021 0.795898c-1.74707 0 -3.51758 -0.0478516 -5.30371 -0.152344c7.24707 22.3711 27.6123 38.0322 50.5547 38.0322
c18.3701 0 35.6201 -10.0723 45.3115 -26.3701c4.44922 1.46289 9.05273 2.20508 13.7041 2.20508zM121.509 12.867c-3.04165 1.39582 -6.52378 3.16375 -10.491 4.94058c-6.11035 -5.74609 -13.1875 -9.35352 -21.0059 -9.35352
c-7.82715 0 -14.9111 3.61523 -21.0254 9.37207c-3.63401 -1.62066 -6.86682 -3.23518 -9.73127 -4.56764c-0.58254 -12.2777 24.5601 -58.8904 31.1141 -58.8904c5.90071 0 31.2187 45.7705 31.1394 58.4989zM135.214 12.3069
c25.4855 -7.02078 44.7859 -28.4777 44.7859 -47.5169c0 -28.5283 -42.8252 -24.6104 -90 -24.6074c-47.1748 -0.00292969 -90 -3.9209 -90 24.6074c0 18.9969 19.2147 40.4008 44.6179 47.4708c-4.39344 5.33482 -5.45401 21.4515 -4.45869 59.0868
c2.56543 45.168 25.2559 55.7744 49.8359 55.7744c24.5811 0 46.9619 -10.6055 49.5293 -55.7744c0.992514 -37.5253 -0.00868786 -53.6583 -4.31026 -59.0407z" />
    <glyph glyph-name="uniE025" unicode="&#xe025;" 
d="M103.906 0.9375c0 -4.45605 -1.73242 -10.4404 -4.83887 -11.7197l2.37886 -14.097c11.1358 10.9749 25.8199 37.9327 25.8965 42.9612c0.711914 0.0292969 0.783203 0.0419922 0.783203 0.0419922c42.1875 0 59.374 -30.7256 59.374 -52.959
c0 -25.165 -46.875 -25.165 -93.75 -25.165s-93.75 0 -93.75 25.165c0 21.9961 17.9688 52.959 57.0332 52.959c1.83691 0 1.82422 -0.0322266 3.12988 -0.101562c0.169281 -5.72 14.7801 -32.1785 25.8785 -42.9618l2.43401 14.4442
c-2.71875 1.39453 -4.88184 7.2832 -4.88184 11.4326v1.56348h20.3125v-1.56348zM93.9238 10.249c-13.3135 0 -25.9248 8.18945 -35.5059 23.0557c-8.28809 12.8574 -13.2363 29.5869 -13.2363 44.751c0 15.4199 4.9502 28.4365 14.3125 37.6426
c8.72461 8.57812 20.9512 13.3018 34.4297 13.3018c13.4775 0 25.7061 -4.72363 34.4297 -13.3008c9.36426 -9.20508 14.3125 -22.2227 14.3125 -37.6426c0 -15.165 -4.94824 -31.8945 -13.2354 -44.751c-9.58203 -14.8672 -22.1924 -23.0566 -35.5068 -23.0566z
M194.262 155.835c25.2197 0 45.7383 -21.4961 45.7383 -47.917c0 -26.4219 -20.5186 -47.918 -45.7363 -47.918h-44.9053c1.33203 5.40039 2.18555 10.8721 2.54785 16.4355h42.3555c16.3623 0 29.6729 14.1221 29.6729 31.4824
c0 17.3594 -13.3105 31.4814 -29.6729 31.4814c-4.7998 0 -9.38477 -1.18652 -13.6318 -3.52344c-1.16504 -0.641602 -2.48242 -0.981445 -3.80664 -0.981445c-0.916992 0 -1.81836 0.15918 -2.68262 0.47168c-2.11914 0.766602 -3.83691 2.41895 -4.71289 4.53613
c-5.96094 14.373 -19.3779 23.6611 -34.1836 23.6611c-14.9141 0 -28.084 -9.46289 -33.9971 -23.2666c-3.51953 0.454102 -7.18555 0.697266 -11.0039 0.703125h-0.862305c-1.71289 -0.00292969 -3.39062 -0.0615234 -5.04492 -0.15625
c6.91992 22.9717 27.585 39.1562 50.9102 39.1562c18.3701 0 35.6201 -10.0723 45.3115 -26.3701c4.44922 1.46289 9.05273 2.20508 13.7041 2.20508zM126.113 88.1452c-2.27634 1.84559 -5.992 3.4046 -12.0496 3.4046c-14.8447 0 -16.4062 -7.38184 -32.0312 -7.38184
c-10.0184 0 -16.8246 1.9714 -19.5961 6.69119c-1.15067 -3.87195 -1.75546 -8.16042 -1.75546 -12.8025c0 -23.5693 15.3408 -52.3574 33.2432 -52.3574s33.2432 28.79 33.2432 52.3574c0 3.58319 -0.360341 6.95569 -1.05393 10.0886z" />
    <glyph glyph-name="uniE026" unicode="&#xe026;" 
d="M84.4219 32.665c-4.07422 0 -7.99805 -1.22852 -11.3496 -3.55273c-4.38281 -3.03906 -7.32129 -7.60352 -8.27246 -12.8535c-0.949219 -5.25 0.201172 -10.5557 3.24121 -14.9385c3.03906 -4.38379 7.60547 -7.32227 12.8535 -8.27246
c1.19141 -0.216797 2.40332 -0.324219 3.60156 -0.324219c4.05371 0 7.97266 1.23242 11.3379 3.56543c4.38281 3.03906 7.31934 7.60352 8.27051 12.8535c0.949219 5.24805 -0.201172 10.5537 -3.24023 14.9385c-3.72754 5.37598 -9.87402 8.58398 -16.4424 8.58398z
M26.8682 -20.5518l26.2256 20c-6.28027 14.8135 -1.36523 31.9844 11.9609 41.2246c5.7334 3.97461 12.416 6.07617 19.3262 6.07617c2.04199 0 4.10742 -0.1875 6.13477 -0.554688c8.94824 -1.62012 16.7285 -6.62598 21.9082 -14.0977
c5.18066 -7.46973 7.14258 -16.5127 5.52246 -25.4609c-1.62012 -8.94727 -6.625 -16.7275 -14.0967 -21.9072c-5.73145 -3.97363 -12.416 -6.0752 -19.3291 -6.0752c-2.04004 0 -4.10449 0.186523 -6.13184 0.553711c-6.54785 1.18457 -12.4873 4.18066 -17.2637 8.68945
l-26.2393 -20.0117zM0 105h150v-45v-120h-150v120v45zM194.262 155.835c25.2197 0 45.7383 -21.4961 45.7383 -47.917c0 -26.4219 -20.5186 -47.918 -45.7383 -47.918h-29.2617v16.4365h29.2637c16.3623 0 29.6729 14.123 29.6729 31.4824
s-13.3105 31.4824 -29.6729 31.4824c-4.7998 0 -9.38574 -1.18652 -13.6318 -3.52344c-1.16602 -0.642578 -2.48242 -0.981445 -3.80762 -0.981445c-0.916016 0 -1.81738 0.15918 -2.68164 0.470703c-2.11914 0.766602 -3.83691 2.41992 -4.71289 4.53613
c-5.96094 14.373 -19.3789 23.6611 -34.1836 23.6611c-18.5957 0 -34.4893 -14.7002 -36.9717 -34.1953c-0.420898 -3.29004 -2.71094 -5.98242 -5.83496 -6.86133c-2 -0.5625 -3.86621 -1.42285 -5.58203 -2.50781h-21.5508
c4.08301 7.26172 10.2998 13.1846 17.9121 16.5664c5.51562 25.2148 27.2773 43.4336 52.0273 43.4336c18.3701 0 35.6201 -10.0723 45.3115 -26.3701c4.44922 1.46289 9.05273 2.20508 13.7041 2.20508zM15 60l1.77636e-15 -105h22.5h7.5h15h4.5h70.5v105h-120z" />
    <glyph glyph-name="uniE027" unicode="&#xe027;" 
d="M40.5 -15c0 10.7695 8.73047 19.5 19.5 19.5s19.5 -8.73047 19.5 -19.5s-8.73047 -19.5 -19.5 -19.5s-19.5 8.73047 -19.5 19.5zM105 60v45h-90v-45h90zM105 0v45h-90v-45v-15v-30h90v30v15zM0 120h120v-75v-45v-15v-45h-120v45v15v45v75zM90 90v-15h-30v15h30z
M194.262 155.835c25.2197 0 45.7383 -21.4961 45.7383 -47.917c0 -26.4219 -20.5186 -47.918 -45.7383 -47.918h-59.2617v16.4365h59.2637c16.3623 0 29.6729 14.123 29.6729 31.4824s-13.3105 31.4824 -29.6729 31.4824c-4.7998 0 -9.38574 -1.18652 -13.6318 -3.52344
c-1.16602 -0.642578 -2.48242 -0.981445 -3.80762 -0.981445c-0.916016 0 -1.81738 0.15918 -2.68164 0.470703c-2.11914 0.766602 -3.83691 2.41992 -4.71289 4.53613c-5.96094 14.373 -19.3789 23.6611 -34.1836 23.6611c-16.7549 0 -31.3145 -11.9385 -35.8467 -28.5645
h-19.2588c1.00195 0.5625 2.02148 1.09668 3.07812 1.56641c5.51562 25.2148 27.2773 43.4336 52.0273 43.4336c18.3701 0 35.6201 -10.0723 45.3115 -26.3701c4.44922 1.46289 9.05273 2.20508 13.7041 2.20508z" />
    <glyph glyph-name="uniE028" unicode="&#xe028;" 
d="M180 149.038c33.084 0 60 -26.6992 60 -59.5195c0 -26.04 -16.9531 -48.2119 -40.4805 -56.2676l-14.5547 14.3574c20.9473 2.46777 37.2559 20.3164 37.2559 41.9102c0 23.2754 -18.9404 42.2119 -42.2227 42.2119c-6.84863 0 -13.3916 -1.59766 -19.4482 -4.74902
c-2.19824 -1.14453 -4.78809 -1.33691 -7.13867 -0.53125c-2.35059 0.803711 -4.24707 2.5332 -5.22461 4.76367c-8.38965 19.1221 -27.3027 31.4775 -48.1855 31.4775c-26.2119 0 -48.6113 -19.54 -52.1016 -45.4531c-0.466797 -3.45703 -3.0166 -6.30469 -6.4707 -7.22266
c-13.9258 -3.70312 -23.6504 -16.377 -23.6504 -30.8174c0 -17.5859 14.2891 -31.8916 31.8525 -31.8916h6.28809l-16.4824 -16.2598c-22.4922 4.67383 -39.4365 24.4863 -39.4365 48.1514c0 20.2754 12.582 38.3193 31.2197 45.6943
c6.88672 31.7754 35.5332 55.1074 68.7812 55.1074c25.0439 0 47.9453 -13.1729 60.5137 -34.1924c6.25195 2.12695 12.8584 3.23047 19.4854 3.23047zM190.085 21.4902l-19.7002 -19.9199l-35.3848 34.8262v-96.3965h-30v95.2188l-34.1943 -33.6484l-19.6992 19.9199
l69.4893 68.5518z" />
    <glyph glyph-name="uniE029" unicode="&#xe029;" 
d="M180 92.6104c33.084 0 60 -27.501 60 -61.3057c0 -33.8037 -26.916 -61.3047 -60 -61.3047h-130.371c-27.3662 0 -49.6289 22.7324 -49.6289 50.6748c0 20.8838 12.582 39.4678 31.2197 47.0654c6.88672 32.7266 35.5352 56.7598 68.7812 56.7598
c25.0439 0 47.9453 -13.5674 60.5137 -35.2168c6.25195 2.18945 12.8584 3.32715 19.4854 3.32715z" />
    <glyph glyph-name="uniE02A" unicode="&#xe02a;" 
d="M135 75v15h-15v-15h15zM105 75v15h-15v-15h15zM0 105h150v-45h-150v45zM135 30h-60v-15h60v15zM135 0h-60v-15h60v15zM135 -30h-60v-15h60v15zM150 45v-105h-90v105h90zM0 45h45v-105h-45v105zM194.262 155.835c25.2197 0 45.7383 -21.4961 45.7383 -47.917
c0 -26.4219 -20.5186 -47.918 -45.7383 -47.918h-29.2617v60h-99.6934c4.08301 7.26172 10.2998 13.1846 17.9121 16.5664c5.51562 25.2148 27.2773 43.4336 52.0273 43.4336c18.3701 0 35.6201 -10.0723 45.3115 -26.3701c4.44922 1.46289 9.05273 2.20508 13.7041 2.20508
z" />
    <glyph glyph-name="uniE02B" unicode="&#xe02b;" 
d="M30 -60v15h90v-15h-90zM30 0v60h90v-60h-90zM135 -15v90h-120v-90h120zM0 90h150v-120h-150v120zM194.262 155.835c25.2197 0 45.7383 -21.4961 45.7383 -47.917c0 -26.4219 -20.5186 -47.918 -45.7383 -47.918h-29.2617v45h-104.655
c1.75781 13.8271 10.4736 26.0576 22.874 31.5664c5.51562 25.2148 27.2773 43.4336 52.0273 43.4336c18.3701 0 35.6201 -10.0723 45.3115 -26.3701c4.44922 1.46289 9.05273 2.20508 13.7041 2.20508z" />
    <glyph glyph-name="uniE02C" unicode="&#xe02c;" 
d="M85.5 49.7607c-15.7158 0 -28.5 -12.7988 -28.5 -28.5342c0 -15.7334 12.7842 -28.5332 28.5 -28.5332s28.5 12.7998 28.5 28.5332c0 15.7354 -12.7842 28.5342 -28.5 28.5342zM115.707 -60c-1.90918 0 -3.68359 1.03027 -4.62891 2.68945l-8.44043 14.5273
c-5.56934 -1.49414 -11.3252 -2.25 -17.1377 -2.25c-5.79883 0 -11.543 0.75293 -17.0986 2.23926l-7.8916 -14.3828c-0.932617 -1.7207 -2.72656 -2.79004 -4.68457 -2.79004c-0.931641 0 -1.85254 0.24707 -2.66211 0.714844l-20.3623 11.7842
c-2.51758 1.45508 -3.40234 4.60059 -2.0166 7.16016l8.02539 14.6289c-8.28613 8.27734 -14.1914 18.5117 -17.1875 29.7871h-16.2959c-2.93652 0 -5.32617 2.39258 -5.32617 5.33301v23.5732c0 2.94043 2.38965 5.33301 5.32617 5.33301h16.2949
c2.99414 11.2676 8.89453 21.498 17.1719 29.7705l-7.94727 14.0117c-1.41016 2.53027 -0.518555 5.76758 1.98633 7.21582l20.3643 11.7842c0.80957 0.467773 1.73047 0.71582 2.66211 0.71582c1.93066 0 3.71387 -1.04688 4.65332 -2.7334l7.86719 -13.8701
c5.56348 1.49121 11.3135 2.24512 17.1211 2.24512c5.82129 0 11.585 -0.758789 17.1602 -2.25586l8.41797 14.0156c0.952148 1.625 2.71289 2.63281 4.5957 2.63281c0.931641 0 1.85254 -0.24707 2.66309 -0.71582l20.3633 -11.7832
c1.23828 -0.71582 2.12012 -1.87402 2.48535 -3.25684c0.365234 -1.38477 0.166992 -2.82617 -0.555664 -4.06055l-8.39453 -13.9727c8.26367 -8.26953 14.1523 -18.4873 17.1436 -29.7432h16.2949c2.93652 0 5.32617 -2.39258 5.32617 -5.33301v-23.5732
c0 -2.94043 -2.38965 -5.33301 -5.32617 -5.33301h-16.2949c-2.99219 -11.2617 -8.88867 -21.4873 -17.1602 -29.7598l8.47656 -14.5889c1.44727 -2.54004 0.567383 -5.7959 -1.95996 -7.26074l-20.3643 -11.7832c-0.811523 -0.46875 -1.73242 -0.71582 -2.66406 -0.71582z
M194.262 155.835c25.2197 0 45.7383 -21.4961 45.7383 -47.917c0 -26.4219 -20.5186 -47.918 -45.7393 -47.918h-36.6289c-0.931641 1.73438 -1.90918 3.44141 -2.96387 5.10449c3.48145 6.19238 4.39941 13.3633 2.58301 20.252
c-1.86035 7.05859 -6.36621 12.96 -12.6914 16.6162l-18.3838 10.626c-4.13281 2.38867 -8.83789 3.64941 -13.6084 3.64941c-9.49512 0 -18.373 -5.00195 -23.251 -13.0762c-1.3291 0.0644531 -2.66016 0.0957031 -3.99023 0.0957031
c-1.17871 0 -2.3584 -0.0253906 -3.53711 -0.0751953c-4.09961 6.71387 -10.8926 11.2686 -18.5342 12.6074c3.8623 9.16504 10.9287 16.7539 19.9639 20.7666c5.51562 25.2148 27.2773 43.4336 52.0273 43.4336c18.3701 0 35.6201 -10.0723 45.3115 -26.3701
c4.44922 1.46289 9.05273 2.20508 13.7041 2.20508z" />
    <glyph glyph-name="uniE02D" unicode="&#xe02d;" 
d="M120 75v15h-30v-15h30zM0 105h135v-45h-135v45zM90 30v-15h30v15h-30zM0 0v45h135v-45h-135zM90 -30v-15h30v15h-30zM0 -60v45h135v-45h-135zM194.262 155.835c25.2197 0 45.7383 -21.4961 45.7383 -47.917c0 -26.4219 -20.5186 -47.918 -45.7383 -47.918h-44.2617
v6.92285v9.5127v28.5645v15h-63.1699h-13.1543h-8.3623c4.07812 7.2627 10.291 13.1846 17.9053 16.5664c5.51562 25.2148 27.2773 43.4336 52.0273 43.4336c18.3701 0 35.6201 -10.0723 45.3115 -26.3701c4.44922 1.46289 9.05273 2.20508 13.7041 2.20508z" />
    <glyph glyph-name="uniE02E" unicode="&#xe02e;" 
d="M67.6406 105c37.3564 0 67.6416 -10.0605 67.6416 -22.4697c0 -12.4102 -30.2842 -22.4707 -67.6416 -22.4707s-67.6406 10.0605 -67.6406 22.4707c0 12.4092 30.2832 22.4697 67.6406 22.4697zM135.282 62.2051v-89.4785c0 -9.7959 -7.98438 -18.5098 -22.4805 -24.5352
c-12.7109 -5.2832 -27.5 -8.19141 -45.5176 -8.19141c-18.0186 0 -32.0928 2.9082 -44.8037 8.19141c-14.4961 6.02539 -22.4805 14.7393 -22.4805 24.5352v89.4785c3.74219 -3.12891 9.2998 -6.20703 17.4434 -8.91309c13.5166 -4.49121 31.3438 -6.96289 50.1973 -6.96289
s36.6816 2.47168 50.1982 6.96289c8.1416 2.70605 13.7002 5.78223 17.4434 8.91309zM194.262 155.835c25.2197 0 45.7383 -21.4961 45.7383 -47.917c0 -26.4219 -20.5186 -47.918 -45.7383 -47.918h-43.8672v6.83691v9.59863v4.1582
c0 9.07031 -4.32715 25.5537 -33.3076 34.041c-8.67773 2.54199 -18.9971 4.30371 -30.4395 5.22852c-0.625 0.0498047 -1.26465 0.0869141 -1.89258 0.131836c-1.13477 0.0830078 -2.26855 0.162109 -3.42383 0.228516
c-0.720703 0.0419922 -1.45312 0.0732422 -2.18164 0.107422c-1.16699 0.0556641 -2.3418 0.105469 -3.52832 0.144531c-2.7793 0.0927734 -5.59961 0.150391 -8.47656 0.150391c-0.496094 0 -0.984375 -0.0078125 -1.47754 -0.0107422
c4.08594 6.97754 10.1562 12.666 17.5518 15.9512c5.51562 25.2148 27.2773 43.4336 52.0273 43.4336c18.3701 0 35.6201 -10.0723 45.3115 -26.3701c4.44922 1.46289 9.05273 2.20508 13.7041 2.20508z" />
    <glyph glyph-name="uniE02F" unicode="&#xe02f;" 
d="M92.4375 120l57.5625 -57.75v-2.25h-60v60h2.4375zM90 45h60v-105h-150v180h75v-60v-15h15zM194.262 155.835c25.2197 0 45.7383 -21.4961 45.7383 -47.917c0 -26.4219 -20.5186 -47.918 -45.7383 -47.918h-29.2617v11.4482l-63.335 63.5518h-21.5244
c1.00195 0.5625 2.02148 1.09668 3.07812 1.56641c5.51562 25.2148 27.2773 43.4336 52.0273 43.4336c18.3701 0 35.6201 -10.0723 45.3115 -26.3701c4.44922 1.46289 9.05273 2.20508 13.7041 2.20508z" />
    <glyph glyph-name="uniE030" unicode="&#xe030;" 
d="M190.085 8.50977l-69.4893 -68.5518l-69.4893 68.5518l19.6992 19.9199l34.1943 -33.6484v95.2188h30v-96.3965l35.3848 34.8262zM184.8 145.699c30.4863 0 55.2002 -25.2285 55.2002 -56.3486c0 -30.627 -23.9404 -55.5283 -53.7559 -56.3135l-11.6729 12.1084
l-23.6709 -0.780273v60.6348h-61.8008v-59.3359l-22.3867 -0.520508l-11.708 -12.1436h-11.0059c-24.2998 0 -43.999 20.1104 -43.999 44.916c0 20.7852 13.833 38.2646 32.6113 43.3887c4.35352 33.1357 32.1377 58.6953 65.7891 58.6953
c27.2334 0 50.626 -16.7441 60.8691 -40.6934c7.63672 4.0752 16.3164 6.39258 25.5303 6.39258z" />
    <glyph glyph-name="uniE031" unicode="&#xe031;" 
d="M71.8379 90h-56.8379v-45h59.749l26.002 15h0.336914zM107.319 75h72.6807v-135h-180v165h78.0693zM194.262 155.835c25.2197 0 45.7383 -21.4961 45.7383 -47.917c0 -26.1631 -20.1211 -47.4834 -45 -47.8984v29.9805h-81.3574l-29.25 30h-19.0859
c4.08301 7.26172 10.2998 13.1846 17.9121 16.5664c5.51562 25.2148 27.2773 43.4336 52.0273 43.4336c18.3701 0 35.6201 -10.0723 45.3115 -26.3701c4.44922 1.46289 9.05273 2.20508 13.7041 2.20508z" />
    <glyph glyph-name="uniE032" unicode="&#xe032;" 
d="M165 45v15h-52.5v-15h52.5zM165 15v15h-52.5v-15h52.5zM165 -15v15h-52.5v-15h52.5zM93.6914 -25.0195c1.60547 5.06055 1.50781 6.97266 0.90332 11.5391c-2.00684 11.3623 -5.57422 11.5527 -25.0879 19.2852c-2.84863 1.20215 -3.65234 2.92969 -3.43945 5.39551
c5.50391 7.38379 8.82031 19.3281 8.82031 27.6787c0 12.9297 -3.93359 21.1211 -20.0391 21.1211s-19.7129 -8.19141 -19.7139 -21.123c0 -8.35059 3.30469 -20.2725 8.80762 -27.6553c0.212891 -2.46582 -0.598633 -4.20508 -3.44727 -5.40625
c-19.5127 -7.73242 -23.085 -7.92773 -25.0898 -19.29c-0.603516 -4.56738 -0.704102 -6.48145 0.902344 -11.542c1.80957 -5.69727 27.3584 -4.95215 38.543 -4.95215c11.1836 0 37.0332 -0.748047 38.8408 4.94922zM0 90h180v-150h-180v150zM194.262 155.835
c25.2197 0 45.7383 -21.4961 45.7383 -47.917c0 -26.1631 -20.1211 -47.4834 -45 -47.8984v44.9805h-134.655c1.75781 13.8271 10.4736 26.0576 22.874 31.5664c5.51562 25.2148 27.2773 43.4336 52.0273 43.4336c18.3701 0 35.6201 -10.0723 45.3115 -26.3701
c4.44922 1.46289 9.05273 2.20508 13.7041 2.20508z" />
    <glyph glyph-name="uniE033" unicode="&#xe033;" 
d="M75 -30v30h-15v-30h15zM194.262 155.835c25.2197 0 45.7383 -21.4961 45.7383 -47.917c0 -26.4219 -20.5186 -47.918 -45.7383 -47.918h-44.2617h-21v15.3086c0 29.2529 -21.9883 53.6211 -50.8271 58.5195c1.60156 1.03711 3.28613 1.95605 5.0459 2.73828
c5.51562 25.2148 27.2773 43.4336 52.0273 43.4336c18.3701 0 35.6201 -10.0723 45.3115 -26.3701c4.44922 1.46289 9.05273 2.20508 13.7041 2.20508zM114 45h21v-105h-135v105h21v30.3086c0 24.501 20.8604 44.4346 46.5 44.4346s46.5 -19.9336 46.5 -44.4346v-30.3086z
M37.5 45h60v30.3086c0 15.7578 -13.1777 28.1016 -30 28.1016s-30 -12.3438 -30 -28.1016v-30.3086z" />
    <glyph glyph-name="uniE034" unicode="&#xe034;" 
d="M0 105h165v-45h-165v45zM127.5 -15c8.28418 0 15 6.71582 15 15s-6.71582 15 -15 15s-15 -6.71582 -15 -15s6.71582 -15 15 -15zM82.5 -15c8.28418 0 15 6.71582 15 15s-6.71582 15 -15 15s-15 -6.71582 -15 -15s6.71582 -15 15 -15zM37.5 -15
c8.28418 0 15 6.71582 15 15s-6.71582 15 -15 15s-15 -6.71582 -15 -15s6.71582 -15 15 -15zM131.294 45h33.7061v-105h-165v105h18.7061h112.588zM194.262 155.835c25.2197 0 45.7383 -21.4961 45.7383 -47.917c0 -26.4219 -20.5186 -47.918 -45.7383 -47.918h-14.2617v60
h-114.693c4.08301 7.26172 10.2998 13.1846 17.9121 16.5664c5.51562 25.2148 27.2773 43.4336 52.0273 43.4336c18.3701 0 35.6201 -10.0723 45.3115 -26.3701c4.44922 1.46289 9.05273 2.20508 13.7041 2.20508z" />
    <glyph glyph-name="uniE035" unicode="&#xe035;" 
d="M103.906 0.9375c0 -4.45605 -1.73242 -10.4404 -4.83887 -11.7197l2.37886 -14.097c11.1358 10.9749 25.8199 37.9327 25.8965 42.9612c0.711914 0.0292969 0.783203 0.0419922 0.783203 0.0419922c42.1875 0 59.374 -30.7256 59.374 -52.959
c0 -25.165 -46.875 -25.165 -93.75 -25.165s-93.75 0 -93.75 25.165c0 21.9961 17.9688 52.959 57.0332 52.959c1.83691 0 1.82422 -0.0322266 3.12988 -0.101562c0.169281 -5.72 14.7801 -32.1785 25.8785 -42.9618l2.43401 14.4442
c-2.71875 1.39453 -4.88184 7.2832 -4.88184 11.4326v1.56348h20.3125v-1.56348zM93.9238 10.249c-13.3135 0 -25.9248 8.18945 -35.5059 23.0557c-8.28809 12.8574 -13.2363 29.5869 -13.2363 44.751c0 15.4199 4.9502 28.4365 14.3125 37.6426
c8.72461 8.57812 20.9512 13.3018 34.4297 13.3018c13.4775 0 25.7061 -4.72363 34.4297 -13.3008c9.36426 -9.20508 14.3125 -22.2227 14.3125 -37.6426c0 -15.165 -4.94824 -31.8945 -13.2354 -44.751c-9.58203 -14.8672 -22.1924 -23.0566 -35.5068 -23.0566z
M194.262 155.835c25.2197 0 45.7383 -21.4961 45.7383 -47.917c0 -26.4219 -20.5186 -47.918 -45.7383 -47.918h-44.9053c1.83594 7.44141 2.75586 15.0195 2.75586 22.7852c0 4.64258 -0.707031 8.87695 -1.32227 12.0459
c-5.68262 29.2891 -27.7432 46.1182 -60.5469 46.1689h-0.862305c-1.71289 -0.00292969 -3.39062 -0.0615234 -5.04492 -0.15625c6.91992 22.9717 27.585 39.1562 50.9102 39.1562c18.3701 0 35.6201 -10.0723 45.3115 -26.3701
c4.44922 1.46289 9.05273 2.20508 13.7041 2.20508zM126.113 88.1452c-2.27634 1.84559 -5.992 3.4046 -12.0496 3.4046c-14.8447 0 -16.4062 -7.38184 -32.0312 -7.38184c-10.0184 0 -16.8246 1.9714 -19.5961 6.69119
c-1.15067 -3.87195 -1.75546 -8.16042 -1.75546 -12.8025c0 -23.5693 15.3408 -52.3574 33.2432 -52.3574s33.2432 28.79 33.2432 52.3574c0 3.58319 -0.360341 6.95569 -1.05393 10.0886z" />
    <glyph glyph-name="uniE036" unicode="&#xe036;" 
d="M57.54 78.0371c0 -36.333 15.2793 -56.9561 32.1738 -56.958c21.1797 0 32.9131 36.1172 32.9131 59.7119c0 11.5459 -2.8584 -5.50781 -20.709 -5.50781c-10.8262 0 -44.3779 18.4307 -44.3779 2.75391zM194.262 155.835c25.2197 0 45.7383 -21.4961 45.7383 -47.917
c0 -26.4219 -20.5186 -47.918 -45.7383 -47.9199h-39.4854c-0.0615234 3.6709 -0.147461 7.56641 -0.258789 11.7441l-0.0195312 0.454102c-3.28125 57.7939 -36.8877 69.9238 -64.5029 69.9238c-1.74707 0 -3.51758 -0.0478516 -5.30371 -0.152344
c7.24707 22.3711 27.6123 38.0322 50.5547 38.0322c18.3701 0 35.6201 -10.0723 45.3115 -26.3701c4.44922 1.46289 9.05273 2.20508 13.7041 2.20508zM121.509 12.867c-3.04165 1.39582 -6.52378 3.16375 -10.491 4.94058
c-6.11035 -5.74609 -13.1875 -9.35352 -21.0059 -9.35352c-7.82715 0 -14.9111 3.61523 -21.0254 9.37207c-3.63401 -1.62066 -6.86682 -3.23518 -9.73127 -4.56764c-0.58254 -12.2777 24.5601 -58.8904 31.1141 -58.8904c5.90071 0 31.2187 45.7705 31.1394 58.4989z
M135.214 12.3069c25.4855 -7.02078 44.7859 -28.4777 44.7859 -47.5169c0 -28.5283 -42.8252 -24.6104 -90 -24.6074c-47.1748 -0.00292969 -90 -3.9209 -90 24.6074c0 18.9969 19.2147 40.4008 44.6179 47.4708c-4.39344 5.33482 -5.45401 21.4515 -4.45869 59.0868
c2.56543 45.168 25.2559 55.7744 49.8359 55.7744c24.5811 0 46.9619 -10.6055 49.5293 -55.7744c0.992514 -37.5253 -0.00868786 -53.6583 -4.31026 -59.0407z" />
    <glyph glyph-name="uniE037" unicode="&#xe037;" 
d="M0 105h150v-45h-150v45zM108.05 15.4727c-5 7.20898 -12.5068 12.04 -21.1396 13.6035c-1.95801 0.355469 -3.94824 0.53418 -5.91895 0.53418c-6.66797 0 -13.1162 -2.02832 -18.6484 -5.86426c-12.8477 -8.9082 -17.5938 -25.4551 -11.5586 -39.7393l-25.2734 -19.2715
l7.78613 -11.2295l25.2852 19.2842c4.60254 -4.33398 10.3223 -7.21387 16.625 -8.35352c1.95703 -0.354492 3.94824 -0.53418 5.91699 -0.53418c6.67285 0 13.1211 2.02832 18.6514 5.86328c7.21094 5 12.041 12.5078 13.6035 21.1396
c1.56152 8.63281 -0.330078 17.3564 -5.3291 24.5674zM150 45v-105h-150v105h18.7061h112.589h18.7051zM91.9902 -19.0078c-3.23047 -2.24121 -6.99707 -3.4248 -10.8896 -3.4248c-1.15234 0 -2.31445 0.105469 -3.45898 0.3125
c-5.04297 0.913086 -9.42773 3.73438 -12.3467 7.94531c-2.91895 4.20996 -4.02441 9.30762 -3.1123 14.3486c0.913086 5.04297 3.73535 9.42871 7.94531 12.3486c3.21875 2.23145 6.99023 3.41211 10.9023 3.41211c6.31055 0 12.2139 -3.08301 15.7949 -8.24512
c2.91895 -4.21094 4.02441 -9.30762 3.1123 -14.3496c-0.915039 -5.04297 -3.73633 -9.42871 -7.94727 -12.3477zM194.262 155.835c25.2197 0 45.7383 -21.4961 45.7383 -47.917c0 -26.4219 -20.5186 -47.918 -45.7383 -47.918h-29.2617v60h-99.6934
c4.08301 7.26172 10.2998 13.1846 17.9121 16.5664c5.51562 25.2148 27.2773 43.4336 52.0273 43.4336c18.3701 0 35.6201 -10.0723 45.3115 -26.3701c4.44922 1.46289 9.05273 2.20508 13.7041 2.20508z" />
    <glyph glyph-name="uniE038" unicode="&#xe038;" 
d="M105 90v15h-30v-15h30zM0 120h120v-45h-120v45zM60 4.5c-10.7695 0 -19.5 -8.73047 -19.5 -19.5s8.73047 -19.5 19.5 -19.5s19.5 8.73047 19.5 19.5s-8.73047 19.5 -19.5 19.5zM0 -60v120h120v-120h-120zM194.262 155.835c25.2197 0 45.7383 -21.4961 45.7383 -47.917
c0 -26.4219 -20.5186 -47.918 -45.7383 -47.918h-59.2617v6.92285v9.5127v58.5645h-35.6006h-9.35254h-9.90625c1.00195 0.5625 2.02148 1.09668 3.07812 1.56641c5.51562 25.2148 27.2773 43.4336 52.0273 43.4336c18.3701 0 35.6201 -10.0723 45.3115 -26.3701
c4.44922 1.46289 9.05273 2.20508 13.7041 2.20508z" />
    <glyph glyph-name="uniE039" unicode="&#xe039;" 
d="M184.8 146.479c30.4863 0 55.2002 -24.6543 55.2002 -55.0684c0 -25.7715 -17.748 -47.4014 -41.7119 -53.4053l-77.6445 76.7842l-79.2422 -78.3643c-23.0908 1.34277 -41.4014 20.4404 -41.4014 43.8125c0 20.3125 13.833 37.3945 32.6113 42.4014
c4.35352 32.3828 32.1377 57.3604 65.7891 57.3604c27.2334 0 50.626 -16.3633 60.8691 -39.7676c7.63672 3.98242 16.3164 6.24707 25.5303 6.24707zM190.085 21.4902l-19.7002 -19.9199l-35.3848 34.8262v-96.3965h-30v95.2188l-34.1943 -33.6484l-19.6992 19.9199
l69.4893 68.5518z" />
    <glyph glyph-name="uniE03A" unicode="&#xe03a;" 
d="M15 0h45v-32.2715l52.4688 32.2715h112.531v150h-210v-150zM45 -59.1074v44.1074h-45v180h240v-180h-123.288z" />
    <glyph glyph-name="uniE03B" unicode="&#xe03b;" 
d="M157.5 60v-15h-120v15h120zM202.5 90v-15h-165v15h165zM202.5 105h-165v15h165v-15zM15 0h45v-32.2715l52.4688 32.2715h112.531v150h-210v-150zM45 -59.1074v44.1074h-45v180h240v-180h-123.288z" />
    <glyph glyph-name="uniE03C" unicode="&#xe03c;" 
d="M74.0254 84.5879c0 -26.2119 10.8877 -41.0928 22.9268 -41.0938c15.0938 0 23.4561 26.0566 23.4561 43.0801c0 8.3291 -2.03711 -3.97363 -14.7588 -3.97363c-7.71289 0 -31.624 13.2979 -31.624 1.9873zM210 90h-30v15h30v-15zM210 60h-30v15h30v-15zM210 0h-30v15h30
v-15zM210 30h-30v15h30v-15zM15 -30h210v165h-210v-165zM240 -45h-240v195h240v-195zM119.612 37.5702c-2.16752 1.00707 -4.64894 2.2826 -7.47605 3.56452c-4.35449 -4.14648 -9.39746 -6.74902 -14.9707 -6.74902c-5.57812 0 -10.626 2.6084 -14.9834 6.7627
c-2.58951 -1.16904 -4.89316 -2.33366 -6.93433 -3.29485c-0.418436 -8.85524 17.5016 -42.4884 22.1736 -42.4884c4.20427 0 22.2483 33.0229 22.1909 42.205zM129.379 37.1658c18.1629 -5.06466 31.918 -20.5452 31.9161 -34.2801
c0 -20.5811 -30.5186 -17.7549 -64.1387 -17.752c-33.6191 -0.00292969 -64.1387 -2.8291 -64.1387 17.752c0 13.705 13.6953 29.148 31.7995 34.2469c-3.13157 3.84753 -3.88735 15.4741 -3.17746 42.6281c1.82812 32.5879 17.998 40.2393 35.5156 40.2393
c17.5166 0 33.4658 -7.65137 35.2949 -40.2393c0.707188 -27.0726 -0.00615698 -38.7118 -3.07136 -42.5949z" />
    <glyph glyph-name="uniE03D" unicode="&#xe03d;" 
d="M104.818 28.8809c0 -3.20801 -1.24805 -7.5166 -3.48242 -8.43555l1.71226 -10.149c8.0167 7.90182 18.5873 27.3076 18.6422 30.9283c0.512695 0.0195312 0.564453 0.0302734 0.564453 0.0302734c30.3721 0 42.7451 -22.1211 42.7471 -38.127
c0 -18.1172 -33.7471 -18.1172 -67.4941 -18.1172s-67.4941 0 -67.4941 18.1172c0 15.835 12.9375 38.127 41.0596 38.127c1.32129 0 1.3125 -0.0244141 2.25293 -0.0742188c0.120589 -4.1178 10.6413 -23.1673 18.6317 -30.9298l1.75303 10.3995
c-1.95898 1.00391 -3.51562 5.24219 -3.51562 8.23047v1.125h14.623v-1.125zM97.5059 34.7861c-9.19922 0 -17.9219 5.87012 -24.5576 16.5273c-5.75586 9.24121 -9.19238 21.2666 -9.19238 32.166c0 11.0645 3.42773 20.4004 9.91211 26.998
c6.03711 6.14453 14.5039 9.52832 23.8379 9.52832c9.33496 0 17.8008 -3.38379 23.8379 -9.52832c6.48438 -6.59766 9.91211 -15.9336 9.91211 -26.998c0 -10.8994 -3.43652 -22.9248 -9.19141 -32.166c-6.63672 -10.6592 -15.3594 -16.5273 -24.5586 -16.5273zM210 90h-30
v15h30v-15zM210 60h-30v15h30v-15zM210 0h-30v15h30v-15zM210 30h-30v15h30v-15zM15 -30h210v165h-210v-165zM240 -45h-240v195h240v-195zM119.793 92.3708c-1.6663 0.997486 -4.10277 1.74537 -7.66308 1.74537c-10.6875 0 -11.8125 -5.31445 -23.0615 -5.31445
c-6.74 0 -11.461 1.23917 -13.6785 4.17493c-0.843522 -2.86492 -1.28735 -6.0469 -1.28735 -9.4972c0 -17.1094 10.7988 -38.0088 23.4033 -38.0088s23.4033 20.8994 23.4033 38.0088c0 3.20895 -0.383909 6.1858 -1.11622 8.89135z" />
    <glyph glyph-name="uniE03E" unicode="&#xe03e;" 
d="M89.8662 56.7119c0 -21.1963 13.7207 -47.0859 29.7344 -47.0859c16.0146 0 29.7354 25.8906 29.7354 47.0859c0 2.9209 -0.264648 5.68359 -0.762695 8.27734c-1.66797 2.10449 -5.01855 4.33887 -11.7354 4.33887c-12.7041 0 -14.042 -6.29785 -27.4141 -6.29785
c-9.50781 0 -15.6289 2.07129 -17.417 7.11133c-1.39746 -3.97559 -2.14062 -8.48145 -2.14062 -13.4297zM90.2988 18.2412c-6.9707 11.0537 -11.1318 25.4355 -11.1318 38.4707c0 13.1465 4.10742 24.2217 11.8789 32.0312
c7.22168 7.25879 17.3633 11.2559 28.5547 11.2559c11.1904 0 21.332 -3.99707 28.5557 -11.2559c7.77148 -7.80957 11.8789 -18.8848 11.8789 -32.0312c0 -13.0352 -4.16113 -27.417 -11.1318 -38.4707c-7.95703 -12.6211 -18.3643 -19.5713 -29.3027 -19.5713
c-10.9375 0 -21.3428 6.9502 -29.3018 19.5713zM199.688 -38.5244c0 -21.4756 -40.1172 -21.4756 -80.2354 -21.4756c-40.1172 0 -80.2363 0 -80.2363 21.4756c0 18.7705 15.3779 45.1953 48.8105 45.1953c1.57129 0 1.56152 -0.0292969 2.67871 -0.0869141
c0.143555 -4.88184 12.6514 -27.4609 22.1504 -36.6621l2.08398 12.3242c-2.32812 1.18945 -4.17969 6.21484 -4.17969 9.75586v1.33398h17.3848v-1.33398c0 -3.80273 -1.4834 -8.9082 -4.14062 -10l2.03516 -12.0273c9.53125 9.36621 22.0977 32.3672 22.1621 36.6602
c0.610352 0.0224609 0.670898 0.0341797 0.670898 0.0341797c36.1064 0.00195312 50.8154 -26.2197 50.8154 -45.1934zM172.941 100.662c15.7305 0 24.4453 27.0225 24.4434 44.6758c0 8.63672 -2.12207 -4.12207 -15.3809 -4.12207
c-8.03809 0 -32.959 13.79 -32.959 2.06152c0 -27.1846 11.3486 -42.6152 23.8965 -42.6152zM206.733 94.0967c18.9297 -5.25195 33.2666 -21.3047 33.2666 -35.5488c0 -21.3447 -31.8076 -18.4121 -66.8457 -18.4121c-0.958984 0 -1.91406 -0.00292969 -2.86719 -0.0078125
c0.789062 3.79492 1.33203 7.60938 1.59375 11.3701c0.601562 -0.476562 1.12793 -0.751953 1.5459 -0.751953c4.3877 0 23.21 34.293 23.1133 43.7764c-2.25586 1.04297 -4.83594 2.36133 -7.77539 3.68848c-4.53809 -4.29785 -9.79492 -6.99707 -15.6016 -6.99707
c-5.81445 0 -11.0742 2.70605 -15.6162 7.01172c-0.446289 -0.199219 -0.87207 -0.398438 -1.30273 -0.597656c-5.62012 5.50293 -12.4814 9.53027 -20.1025 11.8975c-0.360352 6.86426 -0.335938 16.2051 -0.00585938 28.7441
c1.90625 33.7959 18.7588 41.7305 37.0156 41.7305c18.2559 0 34.8789 -7.93457 36.7852 -41.7285c0.737305 -28.0811 -0.00683594 -40.1504 -3.20312 -44.1748zM75.6973 141.216c-8.04004 0 -32.9609 13.79 -32.9609 2.0625c0 -27.1846 11.3496 -42.6152 23.8965 -42.6152
c15.7305 0 24.4453 27.0215 24.4453 44.6748c0 8.63672 -2.12207 -4.12207 -15.3809 -4.12207zM66.8457 40.1367c-35.0381 0 -66.8457 -2.93359 -66.8457 18.4111c0 14.2129 14.2725 30.2285 33.1406 35.5156c-3.26367 3.98828 -4.05273 16.0459 -3.31348 44.2061
c1.90723 33.7959 18.7598 41.7305 37.0156 41.7305c18.2568 0 34.8799 -7.93457 36.7852 -41.7305c0.326172 -12.4258 0.361328 -21.7109 0.0234375 -28.5566c-7.74707 -2.30664 -14.7256 -6.3252 -20.4453 -11.8467c-0.251953 0.115234 -0.491211 0.229492 -0.75 0.34668
c-4.53711 -4.29785 -9.79492 -6.99805 -15.6006 -6.99805c-5.81445 0 -11.0752 2.70605 -15.6172 7.0127c-2.69727 -1.21094 -5.0918 -2.41504 -7.21777 -3.41113c-0.460938 -9.15625 18.2266 -44.0674 23.0986 -44.0674c0.078125 0 0.170898 0.0351562 0.257812 0.0556641
c0.277344 -3.5332 0.794922 -7.11133 1.53613 -10.6719c-0.688477 0.000976562 -1.37598 0.00390625 -2.06738 0.00390625z" />
    <glyph glyph-name="uniE03F" unicode="&#xe03f;" 
d="M120.263 -47.7236c4.99023 0 26.4014 39.123 26.293 49.9424c-2.56641 1.19043 -5.50195 2.69531 -8.84668 4.20898c-5.16309 -4.90527 -11.1416 -7.98438 -17.748 -7.98438c-6.61328 0 -12.5986 3.08691 -17.7646 8.00098
c-3.06738 -1.38184 -5.79297 -2.75586 -8.21094 -3.89258c-0.523438 -10.4463 20.7344 -50.2754 26.2773 -50.2754zM130.02 55.4893c-9.14648 0 -37.4951 15.7334 -37.4951 2.35059c0 -31.0137 12.9102 -48.6182 27.1846 -48.6182
c17.8945 0 27.8086 30.8301 27.8086 50.9707c0 9.85449 -2.41504 -4.70312 -17.498 -4.70312zM158.149 1.72949c21.5352 -5.99121 37.8447 -24.3047 37.8467 -40.5566c0 -24.3516 -36.1846 -21.0078 -76.0439 -21.0049
c-39.8594 -0.00292969 -76.0439 -3.34766 -76.0439 21.0049c0 16.2148 16.2373 34.4863 37.7012 40.5195c-3.71484 4.55176 -4.61133 18.3066 -3.76953 50.4355c2.16699 38.5557 21.3389 47.6084 42.1074 47.6084c20.7695 0 39.6797 -9.05273 41.8477 -47.6084
c0.837891 -32.0371 -0.00976562 -45.8066 -3.64551 -50.3984zM239.995 58.791c0 -18.0645 -32.3535 -18.7607 -65.9531 -18.7871c-0.0507812 3.8125 -0.134766 7.93262 -0.253906 12.4395l-0.0146484 0.359375c-0.811523 14.4277 -3.85352 25.4551 -8.31738 33.8643h12.126
v-1.16699c0 -3.32715 -1.29297 -7.79395 -3.61328 -8.74902l1.77539 -10.5234c8.31445 8.19531 19.2783 28.3193 19.335 32.0732c0.533203 0.0214844 0.584961 0.03125 0.584961 0.03125c31.499 0 44.3311 -22.9404 44.3311 -39.541zM146.057 153.864
c-1.21973 -3.47852 -1.86719 -7.4209 -1.86426 -11.75c0 -18.543 11.9697 -41.1953 25.9395 -41.1953c13.9688 0 25.9395 22.6514 25.9395 41.1953c0 2.55664 -0.231445 4.97266 -0.666016 7.24219c-1.45508 1.8418 -4.37891 3.79688 -10.2393 3.79688
c-11.084 0 -12.251 -5.51172 -23.916 -5.51172c-8.29199 0 -13.6338 1.8125 -15.1934 6.22266zM146.2 106.02c-0.554688 0.786133 -1.10254 1.5918 -1.63281 2.43652c-6.08105 9.6709 -9.71094 22.2539 -9.71094 33.6582c0 11.502 3.58301 21.1924 10.3613 28.0244
c6.30176 6.35156 15.1484 9.84961 24.9111 9.84961c9.76172 0 18.6084 -3.49805 24.9102 -9.84961c6.77832 -6.83203 10.3623 -16.5225 10.3623 -28.0244c0 -11.4043 -3.62988 -23.9873 -9.71094 -33.6582c-6.94238 -11.043 -16.0205 -17.124 -25.5615 -17.124
c-2.94922 0 -5.85156 0.584961 -8.66309 1.71289c-4.38086 5.91504 -9.625 10.0938 -15.2656 12.9746zM44.1992 142.114c0 -18.5439 11.9697 -41.1953 25.9395 -41.1953s25.9395 22.6523 25.9395 41.1953c0 2.55469 -0.231445 4.97266 -0.666016 7.24219
c-1.45508 1.8418 -4.37891 3.79688 -10.2393 3.79688c-11.083 0 -12.249 -5.51172 -23.916 -5.51172c-8.29297 0 -13.6348 1.8125 -15.1934 6.22266c-1.2168 -3.47852 -1.86426 -7.4209 -1.86426 -11.75zM44.5771 108.456
c-6.08105 9.6709 -9.71094 22.2539 -9.71094 33.6582c0 11.502 3.58301 21.1924 10.3613 28.0244c6.30371 6.35156 15.1504 9.84961 24.9121 9.84961c9.7627 0 18.6094 -3.49805 24.9111 -9.84961c6.77832 -6.83203 10.3613 -16.5225 10.3613 -28.0244
c0 -11.4043 -3.62988 -23.9873 -9.71094 -33.6582c-0.443359 -0.707031 -0.898438 -1.3916 -1.3584 -2.05762c-6.05859 -2.9375 -11.6992 -7.30273 -16.3457 -13.6455c-2.55859 -0.927734 -5.18848 -1.41895 -7.85742 -1.41895
c-9.54102 -0.00195312 -18.6191 6.08008 -25.5625 17.1221zM65.5947 40.0039c-33.4648 0.0322266 -65.5811 0.789062 -65.5811 18.7871c0 16.4219 13.416 39.541 42.5801 39.541c1.37109 0 1.3623 -0.0234375 2.33691 -0.0761719
c0.125977 -4.27051 11.0371 -24.0254 19.3232 -32.0762l1.81836 10.7842c-2.03125 1.04102 -3.64551 5.4375 -3.64551 8.53613v1.16699h11.7832c-4.48438 -8.40918 -7.53906 -19.4365 -8.35059 -33.8643l-0.015625 -0.359375
c-0.117188 -4.49707 -0.199219 -8.61914 -0.249023 -12.4395z" />
    <glyph glyph-name="uniE040" unicode="&#xe040;" 
d="M78.9062 117.014c0 -46.5928 19.3525 -73.04 40.7529 -73.041c26.8281 0 41.6914 46.3135 41.6914 76.5723c0 14.8057 -3.61914 -7.06348 -26.2324 -7.06348c-13.7109 0 -56.2119 23.6348 -56.2119 3.53223zM159.933 33.4407
c-3.85237 1.78977 -8.26251 4.05655 -13.2869 6.33468c-7.74023 -7.36621 -16.7061 -11.9941 -26.6094 -11.9941c-9.91504 0 -18.8877 4.63867 -26.6318 12.0195c-4.6041 -2.07862 -8.69984 -4.14935 -12.3288 -5.85819
c-0.738822 -15.7424 31.1098 -75.5178 39.4128 -75.5178c7.47448 0 39.5451 58.6961 39.4441 75.0159zM177.295 32.7228c32.2828 -9.00349 56.73 -36.5194 56.73 -60.9318c0 -36.584 -54.2471 -31.5596 -114.003 -31.5557
c-59.7559 -0.00390625 -114.003 -5.02832 -114.003 31.5557c0 24.3593 24.3401 51.8086 56.5176 60.8728c-5.56562 6.84077 -6.90922 27.5078 -5.64843 75.7698c3.25098 57.9229 31.9922 71.5225 63.1279 71.5225c31.1367 0 59.4873 -13.5996 62.7373 -71.5244
c1.25778 -48.118 -0.0104062 -68.806 -5.45856 -75.7088z" />
    <glyph glyph-name="uniE041" unicode="&#xe041;" 
d="M132.999 18.002c0 -5.70312 -2.2168 -13.3623 -6.19531 -15l3.04455 -18.0406c14.2529 14.0466 33.047 48.5489 33.143 54.985c0.914062 0.0351562 1.00391 0.0527344 1.00391 0.0527344c53.9951 0 75.9932 -39.3252 75.9912 -67.7803
c0 -32.208 -59.9941 -32.208 -119.988 -32.208c-59.9932 0 -119.987 0 -119.987 32.208c0 28.1514 22.998 67.7822 72.9932 67.7822c2.35156 0 2.33398 -0.0419922 4.00586 -0.130859c0.216441 -7.32113 18.9189 -41.1873 33.1238 -54.9876l3.11646 18.4866
c-3.48047 1.78516 -6.24902 9.32129 -6.24902 14.6328v1.99902h25.998v-1.99902zM120 28.5c-16.3564 0 -31.8604 10.4336 -43.6592 29.3818c-10.2314 16.4297 -16.3408 37.8076 -16.3408 57.1846c0 19.6699 6.09277 36.2676 17.6221 47.9951
c10.7344 10.9238 25.7832 16.9385 42.3779 16.9385s31.6436 -6.01465 42.3779 -16.9385c11.5293 -11.7295 17.6221 -28.3252 17.6221 -47.9951c0 -19.377 -6.10938 -40.7549 -16.3408 -57.1846c-11.7988 -18.9482 -27.3027 -29.3818 -43.6592 -29.3818zM159.621 130.868
c-2.96252 1.77323 -7.29395 3.1027 -13.6227 3.1027c-18.999 0 -20.999 -9.44629 -40.9961 -9.44629c-11.9828 0 -20.3756 2.20369 -24.318 7.42308c-1.49885 -5.09243 -2.28747 -10.7483 -2.28747 -16.8811c0 -30.417 19.1982 -67.5703 41.6035 -67.5703
s41.6035 37.1553 41.6035 67.5703c0 5.70271 -0.681942 10.9931 -1.98279 15.8016z" />
    <glyph glyph-name="uniE042" unicode="&#xe042;" 
d="M121.875 28.125c7.24805 0 13.125 -5.87695 13.125 -13.125s-5.87695 -13.125 -13.125 -13.125s-13.125 5.87695 -13.125 13.125s5.87695 13.125 13.125 13.125zM82.5 28.125c7.24805 0 13.125 -5.87695 13.125 -13.125s-5.87695 -13.125 -13.125 -13.125
s-13.125 5.87695 -13.125 13.125s5.87695 13.125 13.125 13.125zM56.25 15c0 -7.24805 -5.87695 -13.125 -13.125 -13.125s-13.125 5.87695 -13.125 13.125s5.87695 13.125 13.125 13.125s13.125 -5.87695 13.125 -13.125zM210.054 28.4463l-35.3018 -35.3047
l-23.3047 23.3047l10.6064 10.6064l12.6963 -12.6963l24.6973 24.6963zM174.75 60.6436l-23.3037 23.3037l10.6064 10.6064l12.6953 -12.6953l24.6963 24.6953l10.6064 -10.6064zM30 75v15h105v-15h-105zM15 120v-150h210v150h-210zM240 120v-165h-240v165v45h240v-45z" />
    <glyph glyph-name="uniE043" unicode="&#xe043;" 
d="M49.3408 74.8213l21.2129 21.2129l34.4463 -34.4453v118.411h30v-118.411l34.4463 34.4453l21.2129 -21.2129l-70.6592 -70.6602zM45.4473 -60c-25.0596 0 -45.4473 20.1865 -45.4473 45s20.3877 45 45.4473 45h18.2383l16.3906 -16.2305h-34.6289
c-16.0215 0 -29.0566 -12.9053 -29.0566 -28.7695s13.0352 -28.7695 29.0566 -28.7695h149.105c16.0215 0 29.0566 12.9053 29.0566 28.7695s-13.0352 28.7695 -29.0566 28.7695h-34.6289l16.3906 16.2305h18.2383c25.0596 0 45.4473 -20.1865 45.4473 -45
s-20.3877 -45 -45.4473 -45h-149.105z" />
    <glyph glyph-name="uniE044" unicode="&#xe044;" 
d="M140.527 99.3975c-32.5107 0 -58.9619 -25.9258 -58.9619 -57.7939c0 -11.498 6.75488 -17.8311 19.0166 -17.8311c17.2051 0 33.9922 17.8252 41.2158 34.7617l1.15332 5.08789l0.682617 -0.137695c0.385742 1.2373 0.701172 2.44043 0.943359 3.60352l7.41016 31.5654
c-3.41699 0.495117 -7.24902 0.744141 -11.46 0.744141zM113.164 -59.9883c-31.8555 0 -60.6699 10.7373 -81.1357 30.2344c-20.6465 19.668 -32.0166 47.4434 -32.0166 78.207c0 76.2168 55.3564 131.535 131.625 131.535c32.2236 0 59.4199 -9.64355 78.6494 -27.8867
c19.4316 -18.4336 29.7021 -44.5771 29.7021 -75.6045c0 -21.9297 -6.12793 -42.4863 -17.2529 -57.8818c-11.3047 -15.6436 -26.7158 -24.6152 -42.2812 -24.6152h-1.16211l-1.14453 0.196289c-5.88867 1.01074 -16.6035 3.62402 -22.1982 9.76074
c-2.87305 3.15039 -6.45508 7.74316 -9.4873 13.6562c-13.5977 -13.7002 -29.624 -21.1416 -45.8779 -21.1416c-27.2734 0 -46.3203 18.5596 -46.3203 45.1357c0 46.9209 38.6992 85.0947 86.2656 85.0947c14.3242 0 23.8379 -2.41699 29.2949 -4.44434l14.4854 -5.38965
l-13.0605 -55.6113c-0.706055 -3.34082 -1.80176 -6.96094 -3.23242 -10.6602c-2.51758 -13.1729 3.26367 -22.6152 7.4043 -27.4482c1.06055 -0.453125 3.44336 -1.24121 6.10742 -1.80371c13.2139 1.0625 31.1562 22.1338 31.1562 55.1523
c0 48.4199 -29.541 76.1895 -81.0479 76.1895c-60.4482 0 -104.321 -43.8359 -104.321 -104.232c0 -47.7734 35.3018 -81.1387 85.8486 -81.1387c19.0176 0 36.0713 3.31738 49.3203 9.59375l5.19336 2.45996l11.6904 -24.6738l-5.19434 -2.45996
c-16.8779 -7.99609 -37.9756 -12.2236 -61.0098 -12.2236z" />
    <glyph glyph-name="uniE045" unicode="&#xe045;" 
d="M90.708 42.4609l121.123 121.039h-60.3311v16.5h88.5v-88.5h-16.5v60.3408l-121.125 -121.041zM0 -60v180h143.115l-16.5 -16.5h-110.115v-147h147v108.865l16.5 16.5v-141.865h-180z" />
    <glyph glyph-name="uniE046" unicode="&#xe046;" 
d="M102.666 103.5c-25.4658 0 -46.1816 -20.7012 -46.1816 -46.1494c0 -25.4473 20.7178 -46.1484 46.1816 -46.1484s46.1816 20.7031 46.1816 46.1484c0 25.4463 -20.7158 46.1494 -46.1816 46.1494zM0.422852 -32.1963l50.9834 50.9834
c-8.45801 11.1914 -12.9219 24.4971 -12.9219 38.5654c0 35.3701 28.792 64.1475 64.1816 64.1475s64.1816 -28.7773 64.1816 -64.1494c0 -35.373 -28.792 -64.1484 -64.1816 -64.1484c-14.0449 0 -27.335 4.44434 -38.5195 12.8672l-50.9941 -50.9941zM170.438 180
l69.5625 -69.75v-170.25h-195v15.1035l15 15v-15.1035h165v150l-60 -0.1875v60.1875h-105v-32.2695c-5.38379 -3.05664 -10.4111 -6.66309 -15 -10.7598v58.0293h125.438z" />
    <glyph glyph-name="uniE047" unicode="&#xe047;" 
d="M18.1318 80.5615c0 -44.8311 36.4746 -81.3057 81.3066 -81.3057c44.8311 0 81.3057 36.4746 81.3057 81.3057c0 44.832 -36.4746 81.3066 -81.3057 81.3066c-44.832 0 -81.3066 -36.4746 -81.3066 -81.3066zM220.014 -60l-61.0049 61.0049l-0.736328 -0.542969
c-17.1748 -12.6514 -37.5205 -19.3359 -58.834 -19.3359c-54.8311 -0.00195312 -99.4385 44.6055 -99.4385 99.4355c0 54.8311 44.6074 99.4385 99.4385 99.4385c54.8301 0 99.4375 -44.6074 99.4375 -99.4385c0 -21.3145 -6.68652 -41.6592 -19.3369 -58.834
l-0.542969 -0.736328l61.0059 -61.0049z" />
    <glyph glyph-name="uniE048" unicode="&#xe048;" 
d="M120 31.5h87.4736l-19.7334 51.7832l19.6396 50.2168h-87.3799v-102zM230.526 15h-125.526v30h-73.5v-105h-16.5v105v135h16.5h88.5v-30h110.62l-25.3604 -66.7832zM31.5 163.5v-102h73.5v102h-73.5z" />
    <glyph glyph-name="uniE049" unicode="&#xe049;" 
d="M120 31.5h87.4736l-19.7334 51.7832l19.6396 50.2168h-87.3799v-102zM230.526 15h-125.526v30h-73.5v-105h-16.5v105v135h16.5h88.5v-30h110.62l-25.3604 -66.7832zM31.5 163.5v-102h73.5v102h-73.5z" />
    <glyph glyph-name="uniE04A" unicode="&#xe04a;" 
d="M120 31.5h87.4736l-19.7334 51.7832l19.6396 50.2168h-87.3799v-102zM230.526 15h-125.526v30h-73.5v-105h-16.5v105v135h16.5h88.5v-30h110.62l-25.3604 -66.7832zM31.5 163.5v-102h73.5v102h-73.5z" />
    <glyph glyph-name="uniE04B" unicode="&#xe04b;" 
d="M120 31.5h87.4736l-19.7334 51.7832l19.6396 50.2168h-87.3799v-102zM230.526 15h-125.526v30h-73.5v-105h-16.5v105v135h16.5h88.5v-30h110.62l-25.3604 -66.7832zM31.5 163.5v-102h73.5v102h-73.5z" />
    <glyph glyph-name="uniE04C" unicode="&#xe04c;" 
d="M129 180l-15 -135h-69v135h84zM205.26 83.2168l25.2666 -68.2168h-106.026l15 135h91.1201zM15 -60v240h16.5v-240h-16.5z" />
    <glyph glyph-name="uniE04D" unicode="&#xe04d;" 
d="M129 180l-15 -135h-69v135h84zM205.26 83.2168l25.2666 -68.2168h-106.026l15 135h91.1201zM15 -60v240h16.5v-240h-16.5z" />
    <glyph glyph-name="uniE04E" unicode="&#xe04e;" 
d="M129 180l-15 -135h-69v135h84zM205.26 83.2168l25.2666 -68.2168h-106.026l15 135h91.1201zM15 -60v240h16.5v-240h-16.5z" />
    <glyph glyph-name="uniE04F" unicode="&#xe04f;" 
d="M129 180l-15 -135h-69v135h84zM205.26 83.2168l25.2666 -68.2168h-106.026l15 135h91.1201zM15 -60v240h16.5v-240h-16.5z" />
    <glyph glyph-name="uniE050" unicode="&#xe050;" 
d="M0 102v78h78v-18h-60v-60h-18zM222 102v60h-60v18h78v-78h-18zM0 -60v78h18v-60h60v-18h-78zM162 -60v18h60v60h18v-78h-78z" />
    <glyph glyph-name="uniE051" unicode="&#xe051;" 
d="M0 -60v78h18v-47.2812l60.375 60.3281l12.7275 -12.7197l-60.3721 -60.3271h47.2695v-18h-78zM162 -60v18h47.2695l-60.3721 60.3271l12.7275 12.7197l60.375 -60.3281v47.2812h18v-78h-78zM18 149.281v-47.2812h-18v78h78v-18h-47.2695l60.3721 -60.3271
l-12.7275 -12.7197zM148.897 101.673l60.3721 60.3271h-47.2695v18h78v-78h-18v47.2812l-60.375 -60.3281z" />
    <glyph glyph-name="uniE052" unicode="&#xe052;" 
d="M0 -60v93h18v-62.2812l75.375 75.3281l12.7275 -12.7197l-75.374 -75.3271h62.2715v-18h-93zM133.897 86.6729l75.374 75.3271h-62.2715v18h93v-93h-18v62.2812l-75.375 -75.3281z" />
    <glyph glyph-name="uniE053" unicode="&#xe053;" 
d="M27 75v18h60v60h18v-78h-78zM135 75v78h18v-60h60v-18h-78zM87 -33v60h-60v18h78v-78h-18zM135 -33v78h78v-18h-60v-60h-18z" />
    <glyph glyph-name="uniE054" unicode="&#xe054;" 
d="M135 75v78h18v-47.2812l67.875 67.8281l12.7275 -12.7197l-67.8721 -67.8271h47.2695v-18h-78zM27 75v18h47.2695l-67.8721 67.8271l12.7275 12.7197l67.875 -67.8281v47.2812h18v-78h-78zM153 14.2812v-47.2812h-18v78h78v-18h-47.2695l67.8721 -67.8271
l-12.7275 -12.7197zM6.39746 -40.8271l67.8721 67.8271h-47.2695v18h78v-78h-18v47.2812l-67.875 -67.8281z" />
    <glyph glyph-name="uniE055" unicode="&#xe055;" 
d="M135 75v93h18v-62.2812l73.875 73.8281l12.7275 -12.7197l-73.874 -73.8271h62.2715v-18h-93zM0.397461 -46.8271l73.874 73.8271h-62.2715v18h93v-93h-18v62.2812l-73.875 -73.8281z" />
    <glyph glyph-name="uniE056" unicode="&#xe056;" 
d="M120 158.73v-34.4404c8.9502 0.512695 17.4717 1.86035 25.3486 3.66895c-7.17578 12.54 -15.9756 23.4355 -25.3486 30.7715zM78.8447 127.989c8.17285 -1.90723 16.9434 -3.26855 26.1572 -3.74316v34.8633c-9.66992 -7.35254 -18.7598 -18.3926 -26.1572 -31.1201z
M61.0811 75.1172h43.9189v34.1113c-11.8271 0.550781 -22.9678 2.42871 -33.1787 5.03809c-5.68359 -12.7285 -9.5625 -26.3154 -10.7402 -39.1494zM120 75.1172h42.7969c-1.1543 12.8281 -4.95508 26.3926 -10.5254 39.0879
c-9.84961 -2.47266 -20.7305 -4.33594 -32.2715 -4.93652v-34.1514zM120 25.9531c10.707 -0.59082 21.5938 -2.37891 32.6074 -5.35059c5.53418 12.7979 9.26172 26.5156 10.2773 39.5146h-42.8848v-34.1641zM60.9854 60.1172
c1.01758 -13.0156 4.75195 -26.7539 10.3008 -39.5654c11.3535 3.07812 22.6094 4.89746 33.7139 5.44336v34.1221h-44.0146zM120 10.9277v-35.0283c9.5459 7.1748 18.5156 18.1875 25.7764 30.9785c-8.71875 2.17578 -17.3213 3.52734 -25.7764 4.0498zM78.1211 6.83203
c7.54199 -13.2764 16.9219 -24.6299 26.8789 -31.7607v35.9043c-8.83984 -0.486328 -17.8125 -1.87012 -26.8789 -4.14355zM112.5 -45c-62.0322 0 -112.5 50.4678 -112.5 112.5s50.4678 112.5 112.5 112.5s112.5 -50.4678 112.5 -112.5s-50.4678 -112.5 -112.5 -112.5z
M142.659 157.48c6.45355 -7.43024 12.3689 -16.0852 17.444 -25.424c5.87508 1.91405 11.1887 3.98376 15.8138 5.98382c-9.54252 8.58412 -20.8298 15.2655 -33.2577 19.4402zM186.796 126.483c-5.56337 -2.58925 -12.3516 -5.42303 -20.1061 -8.03906
c6.02246 -14.0957 10.0342 -29.0605 11.1562 -43.3271h29.2597c-1.54194 19.319 -8.89656 37.0255 -20.3098 51.3662zM207.124 60.1172h-29.2078c-0.975586 -14.042 -4.79492 -29.333 -10.9512 -44.0342c6.43072 -2.31213 12.8983 -5.01802 19.3903 -8.11562
c11.7109 14.4943 19.2486 32.4921 20.7687 52.1498zM175.407 -3.49399c-5.00021 2.24074 -9.97505 4.2267 -14.9182 5.95688c-0.0458984 -0.0869141 -0.0947266 -0.175781 -0.140625 -0.262695c-4.93221 -9.17202 -10.4802 -17.3246 -16.4463 -24.2524
c11.7188 4.1196 22.3925 10.4776 31.5051 18.5582zM79.4609 -21.4597c-5.77346 6.79845 -11.1469 14.7476 -15.9384 23.659c-0.0351562 0.0654297 -0.0712891 0.128906 -0.105469 0.194336c-4.6823 -1.64899 -9.38481 -3.52926 -14.1032 -5.63937
c8.74887 -7.81922 18.9517 -14.0443 30.1471 -18.2139zM38.4223 8.24387c6.18651 2.9491 12.3605 5.53733 18.5142 7.76297c-6.17383 14.7236 -10.0029 30.042 -10.9814 44.1074h-28.0787c1.51097 -19.5317 8.96261 -37.4247 20.5459 -51.8704zM17.8944 75.1143h28.1359
c1.14648 14.3008 5.24707 29.3262 11.3955 43.4756c-7.08108 2.44698 -13.5385 5.1531 -19.2577 7.84783c-11.3931 -14.3333 -18.7339 -32.0238 -20.2737 -51.3234zM49.0151 137.978c4.61393 -2.02441 9.66252 -4.00928 15.0854 -5.8176
c5.05545 9.16412 10.9284 17.6708 17.3293 25.0081c-12.0982 -4.20221 -23.0913 -10.7873 -32.4147 -19.1905z" />
    <glyph glyph-name="uniE057" unicode="&#xe057;" 
d="M28.6084 59.7207l103.392 -79.4805v37.7598h90v84h-90v37.2461zM146.191 -53.6582l-144.729 111.725c-1.07422 0.838867 -1.07422 2.46289 0 3.2998l144.729 111.789c1.54785 1.20898 3.80859 0.105469 3.80859 -1.8584v-51.2969h90v-120h-90v-51.7979
c0 -1.96387 -2.26074 -3.06738 -3.80859 -1.86035z" />
    <glyph glyph-name="uniE058" unicode="&#xe058;" 
d="M28.6084 59.7207l103.392 -79.4805v37.7598h90v84h-90v37.2461zM146.191 -53.6582l-144.729 111.725c-1.07422 0.838867 -1.07422 2.46289 0 3.2998l144.729 111.789c1.54785 1.20898 3.80859 0.105469 3.80859 -1.8584v-51.2969h90v-120h-90v-51.7979
c0 -1.96387 -2.26074 -3.06738 -3.80859 -1.86035z" />
    <glyph glyph-name="uniE059" unicode="&#xe059;" 
d="M108 139.246v-37.2461h-90v-84h90v-37.7598l103.392 79.4805zM90 -51.7979v51.7979h-90v120h90v51.2969c0 1.96387 2.26074 3.06738 3.80859 1.8584l144.729 -111.789c1.07422 -0.837891 1.07422 -2.46289 0 -3.2998l-144.729 -111.725
c-1.54785 -1.20703 -3.80859 -0.103516 -3.80859 1.86035z" />
    </font>
</defs>
</svg>
