<?xml version="1.0" encoding="UTF-8"?>
<!DOCTYPE svg PUBLIC "-//W3C//DTD SVG 1.1//EN" "http://www.w3.org/Graphics/SVG/1.1/DTD/svg11.dtd">
<svg version="1.1" id="Layer_1" xmlns="http://www.w3.org/2000/svg" xmlns:xlink="http://www.w3.org/1999/xlink" x="0px" y="0px" width="24px" height="24px" viewBox="0 0 24 24" enable-background="new 0 0 24 24" xml:space="preserve">
  <g id="icon">
    <path d="M22,22H2V7h20V22z" fill="#FFFFFF" opacity="0.5"/>
    <path d="M24,7H0V2h24V7z" fill="#6485C3"/>
    <polygon points="22,7 22,22 2,22 2,7 0,7 0,24 24,24 24,7" fill="#7B7B7B" stroke-linejoin="miter"/>
    <polygon points="10.7096,20.1 8.0818,13.6751 7.4143,15.2422 4,15.2422 4,13.9025 6.5346,13.9025 8.1066,10.2115 10.689,16.5251 13.5897,9.1923 16.2731,14.9654 16.7308,13.9025 20,13.9025 20,15.2422 17.6067,15.2422 16.3196,18.2314 13.6883,12.5702" fill="#52B250" stroke-linejoin="miter"/>
  </g>
</svg>
