<?xml version="1.0" encoding="UTF-8"?>
<!DOCTYPE svg PUBLIC "-//W3C//DTD SVG 1.1//EN" "http://www.w3.org/Graphics/SVG/1.1/DTD/svg11.dtd">
<svg version="1.1" id="Layer_1" xmlns="http://www.w3.org/2000/svg" xmlns:xlink="http://www.w3.org/1999/xlink" x="0px" y="0px" width="24px" height="24px" viewBox="0 0 24 24" enable-background="new 0 0 24 24" xml:space="preserve">
  <g id="icon">
    <path d="M11.9381,21.4901c-0.9238,0,-2.3505,-0.0623,-3.8558,-0.1831c0.3375,1.6492,1.8282,2.686,3.5681,2.686c1.7208,0,3.2371,-1.0144,3.6062,-2.6321C13.8812,21.4539,12.6854,21.4901,11.9381,21.4901z" fill="#7B7B7B"/>
    <path d="M7.492,3.6238c0.4357,-0.3056,0.9092,-0.5691,1.4169,-0.7807c0.1828,-1.5899,1.5016,-2.827,3.0963,-2.827c1.636,0,2.9818,1.3022,3.1082,2.9514c2.5214,1.1806,4.1703,3.6713,4.1703,6.401c0,2.3599,2.3196,5.7373,3.8787,7.4317v0c0.4249,0.4617,0.5425,1.0474,0.3147,1.5667c-0.0992,0.2262,-0.2573,0.4542,-0.5657,0.6764L7.492,3.6238zM4.6196,7.8887c-0.1055,0.4792,-0.1614,0.9743,-0.1614,1.4798c0,2.9625,-1.6911,5.0033,-3.05,6.6432c-0.2561,0.3091,-0.4986,0.6017,-0.722,0.8897c-0.3831,0.4293,-0.4875,0.9709,-0.2784,1.4599c0.2703,0.632,0.9254,1.3522,5.3028,1.9019c2.2329,0.2803,4.8229,0.4271,6.2275,0.4271c1.2001,0,3.2253,-0.0911,5.1948,-0.2883L4.6196,7.8887z" fill="#6485C3"/>
    <rect x="11.3397" y="-2.9842" width="1.9411" height="29.9898" fill="#CB525D" transform="matrix(0.7071 -0.7071 0.7071 0.7071 -4.88726 12.2226)"/>
  </g>
</svg>
