<?xml version="1.0" encoding="UTF-8"?>
<!DOCTYPE svg PUBLIC "-//W3C//DTD SVG 1.1//EN" "http://www.w3.org/Graphics/SVG/1.1/DTD/svg11.dtd">
<svg version="1.1" id="Layer_1" xmlns="http://www.w3.org/2000/svg" xmlns:xlink="http://www.w3.org/1999/xlink" x="0px" y="0px" width="24px" height="24px" viewBox="0 0 24 24" enable-background="new 0 0 24 24" xml:space="preserve">
  <g id="icon">
    <path d="M18.9975,15.9374c0,-1.6737,0.006,-5.4014,-0.0004,-7.075c-0.0026,-0.6817,-0.0237,-1.0448,-0.5909,-1.2067c-1.7641,-0.5034,-4.6909,-0.6436,-6.2632,-0.6548V7c-0.0333,0,-0.0683,0.0002,-0.1032,0.0003c-0.0348,-0.0001,-0.0698,-0.0003,-0.1031,-0.0003v0.0009c-1.5784,0.0112,-4.5785,0.1513,-6.3428,0.6548c-0.5672,0.1619,-0.5883,0.525,-0.5909,1.2067c-0.0064,1.6737,-0.0004,5.4013,-0.0004,7.075c0.0011,0,0.0021,0,0.0032,0c0,0.5806,-0.0087,4.5966,-0.0028,5.765c0.0014,0.2669,0.0453,0.6711,0.4399,0.7722c0.3852,0.0987,4.0993,0.5054,6.5101,0.5246V23c0.0287,0,0.0577,-0.0001,0.0868,-0.0002c0.0291,0.0001,0.0581,0.0002,0.0868,0.0002v-0.0008c2.4072,-0.0193,6.0454,-0.4259,6.4306,-0.5246c0.3946,-0.1011,0.4385,-0.5053,0.4399,-0.7722c0.0059,-1.1684,-0.0028,-5.1845,-0.0028,-5.765C18.9953,15.9374,18.9964,15.9374,18.9975,15.9374z" fill="#FFFFFF" opacity="0.5"/>
    <path d="M12.1266,24l-0.0876,-0.0002L10.953,24v-0.0262c-2.3283,-0.0932,-5.2928,-0.4112,-5.7584,-0.5305c-0.3561,-0.0913,-1.185,-0.4431,-1.1916,-1.7358c-0.0044,-0.8768,-0.0007,-3.3176,0.0015,-4.776c0.0001,-0.0945,0.0003,-0.1846,0.0004,-0.2694l-0.0023,-0.7248c0,-0.4843,-0.0005,-1.1407,-0.0011,-1.8695c-0.0014,-1.7901,-0.0031,-4.0179,0.0015,-5.2094c0.0025,-0.6697,0.0068,-1.7907,1.3165,-2.1645c1.6697,-0.4765,4.1804,-0.6257,5.6172,-0.6725v-0.0208l1,-0.0008l0.1073,0.0003L13.1429,6v0.0221c1.4151,0.0473,3.8738,0.1972,5.5376,0.672c1.3097,0.3738,1.3139,1.4947,1.3165,2.1645c0.0046,1.1914,0.0029,3.4192,0.0015,5.2093c-0.0006,0.7288,-0.0011,1.3852,-0.0011,1.8695l-0.0019,1c0.0022,1.459,0.0059,3.8946,0.0015,4.7701c-0.0064,1.2927,-0.8355,1.6446,-1.1917,1.7358c-0.4792,0.1229,-3.3646,0.438,-5.6788,0.5306v0.0253L12.1266,24zM12.0397,21.9998l0.0788,-0.0005c1.9953,-0.016,4.8713,-0.3066,5.8791,-0.4447c0.0034,-0.97,0,-3.2373,-0.0021,-4.62c-0.0007,-0.4842,-0.0013,-0.8504,-0.0013,-0.9972l0.0036,-1c0.0001,-0.2727,0.0004,-0.5655,0.0006,-0.871c0.0014,-1.788,0.0031,-4.0133,-0.0015,-5.2001c-0.0002,-0.0714,-0.0007,-0.1875,-0.0048,-0.2872c-1.5406,-0.406,-4.0958,-0.5656,-5.8564,-0.5782l-0.0781,-0.0005l-0.0138,0l-0.0262,-0.0001l-0.0739,0.0006c-1.7969,0.0128,-4.3939,0.1726,-5.9359,0.5783c-0.0042,0.0997,-0.0046,0.2157,-0.0048,0.2871c-0.0046,1.1869,-0.0029,3.4122,-0.0015,5.2002c0.0002,0.3055,0.0005,0.5983,0.0006,0.871h0.0004l0.0032,1c0,0.1468,-0.0005,0.513,-0.0013,0.9972c-0.0021,1.3821,-0.0055,3.6482,-0.0021,4.6188c1.0216,0.1368,3.9759,0.4301,5.9586,0.4459l0.0672,0.0005L12.0397,21.9998z" fill="#7B7B7B"/>
    <path d="M8.6011,20.6011c-0.6233,0,-1.1286,-0.5037,-1.1286,-1.125c0,-0.6213,0.5053,-1.125,1.1286,-1.125c0.6233,0,1.1285,0.5037,1.1285,1.125C9.7296,20.0974,9.2244,20.6011,8.6011,20.6011zM11.9867,20.6011c-0.6233,0,-1.1286,-0.5037,-1.1286,-1.125c0,-0.6213,0.5053,-1.125,1.1286,-1.125c0.6233,0,1.1285,0.5037,1.1285,1.125C13.1153,20.0974,12.61,20.6011,11.9867,20.6011zM8.6011,17.6011c-0.6233,0,-1.1286,-0.5037,-1.1286,-1.125c0,-0.6213,0.5053,-1.125,1.1286,-1.125c0.6233,0,1.1285,0.5037,1.1285,1.125C9.7296,17.0974,9.2244,17.6011,8.6011,17.6011zM11.9867,17.6011c-0.6233,0,-1.1286,-0.5037,-1.1286,-1.125c0,-0.6213,0.5053,-1.125,1.1286,-1.125c0.6233,0,1.1285,0.5037,1.1285,1.125C13.1153,17.0974,12.61,17.6011,11.9867,17.6011zM15.3724,20.6011c-0.6233,0,-1.1286,-0.5037,-1.1286,-1.125c0,-0.6213,0.5053,-1.125,1.1286,-1.125c0.6233,0,1.1285,0.5037,1.1285,1.125C16.5009,20.0974,15.9956,20.6011,15.3724,20.6011zM15.3724,17.6011c-0.6233,0,-1.1286,-0.5037,-1.1286,-1.125c0,-0.6213,0.5053,-1.125,1.1286,-1.125c0.6233,0,1.1285,0.5037,1.1285,1.125C16.5009,17.0974,15.9956,17.6011,15.3724,17.6011z" fill="#6485C3"/>
    <path d="M16,14H8V9h8V14zM9,13h6v-3H9V13z" fill="#6485C3"/>
    <path d="M3.7567,7.1104l-1.4076,-0.5186c0.3502,-0.9505,0.884,-1.8086,1.5866,-2.5502c0.6896,-0.728,1.5016,-1.3009,2.4134,-1.7028l0.6051,1.3726c-0.7285,0.3212,-1.3778,0.7794,-1.9296,1.3619C4.4628,5.6663,4.0362,6.3517,3.7567,7.1104zM1.4447,6.2517L0.0372,5.733c0.4649,-1.2615,1.1733,-2.4001,2.1055,-3.3842C3.058,1.3827,4.1357,0.6223,5.3458,0.0887l0.6051,1.3726C4.9241,1.914,4.0092,2.5597,3.2317,3.3803C2.4401,4.216,1.8389,5.182,1.4447,6.2517zM20.2796,7.1104c-0.2796,-0.7587,-0.7063,-1.4442,-1.2681,-2.0373c-0.5518,-0.5824,-1.201,-1.0406,-1.9296,-1.3618l0.6051,-1.3726c0.9118,0.402,1.7238,0.9749,2.4134,1.7027c0.7025,0.7417,1.2363,1.5997,1.5866,2.5502L20.2796,7.1104zM22.5915,6.2517c-0.3942,-1.0696,-0.9954,-2.0357,-1.787,-2.8713c-0.7775,-0.8207,-1.6924,-1.4664,-2.7193,-1.9191l0.6051,-1.3726c1.2102,0.5336,2.2879,1.294,3.2031,2.2601c0.9322,0.984,1.6406,2.1226,2.1055,3.3842L22.5915,6.2517z" fill="#7B7B7B"/>
  </g>
</svg>
