<?xml version="1.0" encoding="UTF-8"?>
<!DOCTYPE svg PUBLIC "-//W3C//DTD SVG 1.1//EN" "http://www.w3.org/Graphics/SVG/1.1/DTD/svg11.dtd">
<svg version="1.1" id="Layer_1" xmlns="http://www.w3.org/2000/svg" xmlns:xlink="http://www.w3.org/1999/xlink" x="0px" y="0px" width="24px" height="24px" viewBox="0 0 24 24" enable-background="new 0 0 24 24" xml:space="preserve">
  <g id="icon">
    <path d="M10.25,1.75H2v7.5h8.25V1.75zM21.25,1.75H13v7.5h8.25V1.75z" fill="#FFFFFF" opacity="0.5"/>
    <path d="M5,6H0V5h5V6zM16,5h-5V1H2v3h2V3h5v5H4V7H2v3h9V6h5V5zM24,5h-2V1h-9v3h2V3h5v5h-5V7h-2v3h9V6h2V5z" fill="#7B7B7B"/>
    <path d="M6.5,3.7c-0.9941,0,-1.8,0.8059,-1.8,1.8s0.8059,1.8,1.8,1.8s1.8,-0.8059,1.8,-1.8S7.4941,3.7,6.5,3.7zM17.5,3.7c-0.9941,0,-1.8,0.8059,-1.8,1.8s0.8059,1.8,1.8,1.8s1.8,-0.8059,1.8,-1.8S18.4941,3.7,17.5,3.7z" fill="#6485C3"/>
    <path d="M24,23h-7v-2h7V23zM7,23H0v-2h7V23zM13,19h-2v-8h2V19z" fill="#7B7B7B"/>
    <path d="M16,24H8v-4h8V24z" fill="#EEAC55"/>
  </g>
</svg>
