<?xml version="1.0" encoding="UTF-8"?>
<!DOCTYPE svg PUBLIC "-//W3C//DTD SVG 1.1//EN" "http://www.w3.org/Graphics/SVG/1.1/DTD/svg11.dtd">
<svg version="1.1" id="Layer_1" xmlns="http://www.w3.org/2000/svg" xmlns:xlink="http://www.w3.org/1999/xlink" x="0px" y="0px" width="24px" height="24px" viewBox="0 0 24 24" enable-background="new 0 0 24 24" xml:space="preserve">
  <g id="icon">
    <path d="M22,19.4999h-2.0512c-0.3335,-0.876,-1.1822,-1.5,-2.1738,-1.5c-0.1393,0,-0.2758,0.0123,-0.4083,0.0359l-1.2461,-2.3963c3.268,-1.7948,6.5534,-3.6255,6.7909,-3.7579l0.6414,-0.3575L22.471,9.4829c-0.3079,0.24,-0.6482,0.4662,-1.0223,0.6774c-0.0699,0.0431,-0.3341,0.2117,-0.5629,0.3575l-0.0396,0.0253c-0.8702,0.5547,-1.0092,0.641,-1.144,0.7102c-0.7552,0.388,-1.2272,0.6697,-1.7269,0.968c-0.54,0.3225,-1.0983,0.6559,-1.9881,1.1106c-0.0745,0.0381,-0.156,0.0834,-0.2418,0.1307c-0.5789,0.3194,-1.3562,0.7483,-2.2419,0.7483c-0.1307,0,-0.2611,-0.0094,-0.3879,-0.0278c-1.07,-0.158,-1.6972,-0.8769,-2.1121,-1.3527c-0.077,-0.0881,-0.1624,-0.1859,-0.206,-0.2272c-0.0043,-0.0041,-0.0086,-0.0081,-0.0129,-0.0121c-0.2011,-0.1896,-0.4998,-0.2323,-0.7456,-0.106c-0.0021,0.0011,-0.0041,0.0021,-0.0062,0.0032c-0.7696,0.3962,-1.5212,0.8046,-2.2482,1.1996c-0.857,0.4658,-1.732,0.9406,-2.6558,1.409c0.6418,1.2197,1.3399,2.5255,1.7735,3.2c0.4058,0.6311,1.0441,0.9599,1.7767,0.9599c0.4351,0,0.9034,-0.1159,1.376,-0.3534c0.9222,-0.4635,2.7525,-1.4508,4.75,-2.5429l1.2492,2.4026c-0.3751,0.413,-0.6041,0.9612,-0.6041,1.5618c0,1.282,1.043,2.325,2.325,2.325c1.0474,0,1.9352,-0.6962,2.2251,-1.65H22v3h2v-7.5h-2V19.4999z" fill="#7B7B7B"/>
    <path d="M3.742,14.3999c-0.2357,0,-0.4793,-0.0589,-0.6756,-0.2209c-0.335,-0.2762,-0.8664,-0.679,-1.4678,-1.1832c-0.4537,-0.3803,-0.8094,-0.6567,-1.2539,-1.0111c-0.2443,-0.1948,-0.3714,-0.4957,-0.3399,-0.8049c0.0312,-0.3073,0.2147,-0.5756,0.4909,-0.7178l0.0001,-0.0001c3.1991,-1.6465,6.6256,-3.4268,9.9393,-5.1484c3.3537,-1.7424,6.8216,-3.5441,10.0617,-5.2115c0.2206,-0.1137,0.4824,-0.1333,0.7179,-0.0534c0.2382,0.0805,0.4349,0.2572,0.5397,0.4847c0.3778,0.8201,0.6644,1.6337,0.9415,2.4207c0.0598,0.1696,0.1192,0.3385,0.1793,0.5066c0.8837,2.4716,0.2145,4.5298,-2.106,5.8331c-0.0513,0.0302,-0.3823,0.2412,-0.6483,0.4107c-0.7714,0.4917,-0.9552,0.6067,-1.0355,0.648c-0.7936,0.4076,-1.2835,0.7001,-1.8023,1.0098c-0.5216,0.3115,-1.0611,0.6335,-1.9102,1.0674c-0.0897,0.0459,-0.1879,0.1002,-0.291,0.1571c-0.5507,0.3039,-1.1749,0.6474,-1.7712,0.5604c-0.575,-0.0849,-0.9547,-0.5201,-1.2898,-0.9042c-0.1051,-0.1205,-0.2044,-0.2342,-0.2952,-0.3201c-0.8973,-0.849,-1.2212,-0.8956,-2.3107,-0.3349c-0.7874,0.4053,-1.5496,0.8196,-2.2868,1.2203c-0.869,0.4723,-1.7676,0.9608,-2.7118,1.4369C4.2504,14.3287,4.001,14.3999,3.742,14.3999zM3.7533,12.9675c-0.0009,0.0004,-0.0016,0.0008,-0.0025,0.0013C3.7516,12.9683,3.7524,12.9679,3.7533,12.9675zM1.1721,11.7329c0.0004,-0.0002,0.0007,-0.0004,0.0011,-0.0006c-0.0004,0.0002,-0.0008,0.0004,-0.0012,0.0006H1.1721z" fill="#6485C3"/>
    <path d="M4.8062,20.0069c-0.2034,-0.4064,-0.4618,-0.8693,-0.7611,-1.4053c-0.3834,-0.6869,-0.8181,-1.4655,-1.2571,-2.3427l1.3415,-0.6712c0.4237,0.8469,0.8496,1.6097,1.2253,2.2827c0.3081,0.5519,0.5741,1.0285,0.7926,1.4651L4.8062,20.0069z" fill="#7B7B7B"/>
  </g>
</svg>
