<?xml version="1.0" encoding="UTF-8"?>
<!DOCTYPE svg PUBLIC "-//W3C//DTD SVG 1.1//EN" "http://www.w3.org/Graphics/SVG/1.1/DTD/svg11.dtd">
<svg version="1.1" id="Layer_1" xmlns="http://www.w3.org/2000/svg" xmlns:xlink="http://www.w3.org/1999/xlink" x="0px" y="0px" width="24px" height="24px" viewBox="0 0 24 24" enable-background="new 0 0 24 24" xml:space="preserve">
  <g id="icon">
    <path d="M9.414,16.5592l2.3286,4.0859l-2.0317,0.0236l-1.4547,1.4974l-1.3608,-4.8664M4.0363,16.5592l-2.3286,4.0859l2.0317,0.0236l1.4547,1.4974l1.3608,-4.8664M1.809,12.3008c0,2.7265,2.2017,4.9368,4.9177,4.9368s4.9177,-2.2103,4.9177,-4.9368S9.4427,7.364,6.7268,7.364S1.809,9.5743,1.809,12.3008z" fill="#FFFFFF" opacity="0.5"/>
    <path d="M6.8079,20.3191L5.7659,24l-2.4107,-2.4512l-3.3659,-0.0386l2.7999,-4.8529C1.5013,15.5199,0.767,13.9039,0.767,12.1902C0.767,8.8872,3.4776,6.2,6.8095,6.2s6.0425,2.6872,6.0425,5.9902c0,1.7148,-0.7351,3.3316,-2.0243,4.4692l2.7989,4.851l-3.3659,0.0386L7.8499,24L6.8079,20.3191zM4.155,19.6773l0.6193,0.6284l0.7686,-2.2399c-0.3786,-0.0999,-0.8722,-0.2616,-1.2315,-0.4042L3.1938,19.668L4.155,19.6773zM8.8489,20.2983l0.6058,-0.6148l0.9185,-0.0631L9.303,17.5988c-0.4073,0.1813,-0.8286,0.358,-1.1666,0.4626L8.8489,20.2983zM6.8095,8.3255c-2.1483,0,-3.8961,1.7337,-3.8961,3.8646s1.7478,3.8646,3.8961,3.8646s3.8961,-1.7337,3.8961,-3.8646S8.9577,8.3255,6.8095,8.3255z" fill="#CB525D"/>
    <path d="M21.4328,12.133c-0.1068,-0.2053,-0.2154,-0.4142,-0.3245,-0.6268c-0.6831,-1.3306,-1.6099,-3.9137,-2.0306,-6.1457L19,4.9481h3.613c0.0584,0,0.1056,-0.0079,0.1486,-0.0248c0.2052,-0.0805,0.3234,-0.2913,0.2876,-0.5117c-0.0061,-0.0363,-0.643,-3.4963,-3.4258,-3.4963H8.3754l-0.1636,0.0092c-2.3766,0.133,-3.9122,1.7001,-3.9122,3.9923c0,0.2006,0.0128,0.4082,0.0371,0.6218C5.1076,5.2552,5.9406,5.1,6.8095,5.1c3.9384,0,7.1425,3.1806,7.1425,7.0901c0,1.7154,-0.6296,3.3653,-1.7518,4.6469l2.4476,4.2422h5.0434c1.3396,0,3.3327,-1.227,3.3327,-4.6073c0,-1.2786,-0.7333,-2.6891,-1.5826,-4.3228L21.4328,12.133z" fill="#FFFFFF" opacity="0.5"/>
    <path d="M22.3163,11.7228c-0.1088,-0.2093,-0.2195,-0.4222,-0.3308,-0.6389c-0.6088,-1.1858,-1.2537,-3.0156,-1.6721,-4.6693h2.2888c0.1765,0,0.3438,-0.0315,0.4972,-0.0935l0.0002,-0.0001c0.6011,-0.2433,0.9481,-0.8629,0.8436,-1.5075c-0.2907,-1.7883,-1.5298,-4.8148,-4.3304,-4.8148H8.9014c-0.1059,0,-0.2264,0,-0.3536,0.0064v-0.0204c-1.469,0,-2.7403,0.4546,-3.6766,1.3146C3.8944,2.1965,3.378,3.4457,3.378,4.912c0,0.3361,0.0295,0.6766,0.0826,1.018c0.5506,-0.2914,1.1441,-0.5123,1.7682,-0.6529c-0.0105,-0.1247,-0.0177,-0.2474,-0.0177,-0.3651c0,-1.5601,0.8545,-2.6372,2.2906,-2.9785c0.1483,0.1779,0.3211,0.3312,0.4669,0.4608c1.0593,0.9404,1.4125,2.8193,1.427,2.8988l0.0037,0.0195c0.0221,0.11,0.0577,0.2144,0.1036,0.3125c0.5131,0.2082,0.996,0.4742,1.4415,0.7894h7.4822c0.4444,1.9043,1.1973,4.083,1.9281,5.5065c0.1128,0.2196,0.2249,0.4354,0.3352,0.6474c0.7941,1.5274,1.4799,2.8464,1.4799,3.9017c0,2.7092,-1.4457,3.6926,-2.4175,3.6926H14.119l1.0576,1.8331h4.5758c2.1123,0,4.2506,-1.898,4.2506,-5.5257C24.0029,14.9667,23.2213,13.4634,22.3163,11.7228zM11.117,4.5815c-0.1496,-0.6204,-0.4997,-1.766,-1.2087,-2.7496h9.7045c1.4743,0,2.1522,1.8238,2.4012,2.7496H11.117z" fill="#EEAC55"/>
    <path d="M19,12h-5.0529c-0.0091,-0.3398,-0.0419,-0.6736,-0.0978,-1H19V12zM13.6016,10H16V9h-2.8149C13.3484,9.3203,13.4881,9.6542,13.6016,10zM12.8712,18H17.4v-1h-5.1058L12.8712,18zM12.8285,16H18.7v-1h-5.3356C13.2133,15.3466,13.0337,15.6808,12.8285,16zM13.9032,13c-0.0394,0.3387,-0.1029,0.6729,-0.1902,1H19.8v-1H13.9032z" fill="#7B7B7B"/>
  </g>
</svg>
