<?xml version="1.0" encoding="UTF-8"?>
<!DOCTYPE svg PUBLIC "-//W3C//DTD SVG 1.1//EN" "http://www.w3.org/Graphics/SVG/1.1/DTD/svg11.dtd">
<svg version="1.1" id="Layer_1" xmlns="http://www.w3.org/2000/svg" xmlns:xlink="http://www.w3.org/1999/xlink" x="0px" y="0px" width="24px" height="24px" viewBox="0 0 24 24" enable-background="new 0 0 24 24" xml:space="preserve">
  <g id="icon">
    <path d="M24,8v14H0V8h2h13H24zM7.5,14.5c0,-0.8284,-0.6716,-1.5,-1.5,-1.5s-1.5,0.6716,-1.5,1.5c0,0.8284,0.6716,1.5,1.5,1.5S7.5,15.3284,7.5,14.5zM11.5,14.5c0,-0.8284,-0.6716,-1.5,-1.5,-1.5s-1.5,0.6716,-1.5,1.5c0,0.8284,0.6716,1.5,1.5,1.5S11.5,15.3284,11.5,14.5zM15.5,14.5c0,-0.8284,-0.6716,-1.5,-1.5,-1.5s-1.5,0.6716,-1.5,1.5c0,0.8284,0.6716,1.5,1.5,1.5S15.5,15.3284,15.5,14.5zM19.5,14.5c0,-0.8284,-0.6716,-1.5,-1.5,-1.5s-1.5,0.6716,-1.5,1.5c0,0.8284,0.6716,1.5,1.5,1.5S19.5,15.3284,19.5,14.5z" fill="#7B7B7B"/>
    <path d="M0,2v5h24V2H0z" fill="#CB525D"/>
    <rect y="7" width="24" height="1" fill="#FFFFFF" opacity="0.5"/>
    <path d="M7.5,14.5c0,0.8284,-0.6716,1.5,-1.5,1.5s-1.5,-0.6716,-1.5,-1.5s0.6716,-1.5,1.5,-1.5S7.5,13.6716,7.5,14.5zM10,13c-0.8284,0,-1.5,0.6716,-1.5,1.5s0.6716,1.5,1.5,1.5s1.5,-0.6716,1.5,-1.5S10.8284,13,10,13zM14,13c-0.8284,0,-1.5,0.6716,-1.5,1.5s0.6716,1.5,1.5,1.5s1.5,-0.6716,1.5,-1.5S14.8284,13,14,13zM18,13c-0.8284,0,-1.5,0.6716,-1.5,1.5s0.6716,1.5,1.5,1.5s1.5,-0.6716,1.5,-1.5S18.8284,13,18,13z" fill="#FFFFFF" opacity="0.5"/>
  </g>
</svg>
