<?xml version="1.0" encoding="UTF-8"?>
<!DOCTYPE svg PUBLIC "-//W3C//DTD SVG 1.1//EN" "http://www.w3.org/Graphics/SVG/1.1/DTD/svg11.dtd">
<svg version="1.1" id="Layer_1" xmlns="http://www.w3.org/2000/svg" xmlns:xlink="http://www.w3.org/1999/xlink" x="0px" y="0px" width="24px" height="24px" viewBox="0 0 24 24" enable-background="new 0 0 24 24" xml:space="preserve">
  <g id="icon">
    <path d="M13.1771,22.7798c-0.3333,0,-0.6375,-0.1962,-0.7749,-0.4999c-1.0792,-2.3858,-1.6612,-6.0021,-1.5568,-9.0038l0.0034,-0.0965h1.6988l-0.0041,0.1039c-0.1073,2.7583,0.4189,6.11,1.4076,8.2958c0.1931,0.427,0.0028,0.9315,-0.4242,1.1248C13.416,22.7543,13.2982,22.7798,13.1771,22.7798zM10.1381,22.7018c-0.3746,0,-0.7007,-0.2406,-0.8116,-0.5986c-0.1485,-0.4792,-0.2861,-0.9746,-0.4089,-1.4723c-0.1123,-0.455,0.1666,-0.9166,0.6216,-1.0289c0.067,-0.0166,0.1358,-0.025,0.2043,-0.025c0.3915,0,0.7306,0.2659,0.8246,0.6466c0.1146,0.4648,0.2432,0.9279,0.3821,1.3764c0.0672,0.2168,0.046,0.4469,-0.0599,0.6478c-0.1058,0.2008,-0.2835,0.3485,-0.5004,0.4157C10.3081,22.6889,10.2233,22.7018,10.1381,22.7018zM16.1438,22.1648c-0.3238,0,-0.6151,-0.1796,-0.7602,-0.4687c-1.0653,-2.1216,-1.3141,-5.0397,-1.3702,-8.4149l-0.0017,-0.1017h1.7023l0.0018,0.0981c0.0689,3.749,0.3795,6.0477,1.1869,7.6556c0.2104,0.4188,0.0407,0.9307,-0.3782,1.141C16.405,22.1344,16.2769,22.1648,16.1438,22.1648zM6.4115,21.5891c-0.3991,0,-0.7396,-0.2721,-0.8282,-0.6617c-0.4445,-1.9544,-0.6745,-4.589,-0.7456,-7.6455l-0.0024,-0.1023h1.7003l0.0023,0.0976c0.0692,2.9198,0.286,5.4396,0.703,7.2733c0.1039,0.457,-0.1834,0.9134,-0.6404,1.0173C6.5384,21.5819,6.4748,21.5891,6.4115,21.5891zM19.1996,20.6475c-0.334,0,-0.6384,-0.1968,-0.7755,-0.5013c-0.4891,-1.0863,-0.8205,-2.7565,-1.013,-4.2832c-0.0586,-0.4649,0.272,-0.891,0.7371,-0.9497c0.0358,-0.0045,0.0713,-0.0066,0.1065,-0.0066c0.4272,0,0.7896,0.3197,0.8432,0.7437c0.171,1.3563,0.4577,2.8678,0.8764,3.7978c0.1924,0.4274,0.0013,0.9316,-0.4261,1.124C19.4374,20.6222,19.3201,20.6475,19.1996,20.6475zM9.312,19.1983c-0.4156,0,-0.7677,-0.2979,-0.8373,-0.7083c-0.2575,-1.5226,-0.4104,-3.5401,-0.4544,-5.2078l-0.0027,-0.1026H9.718l0.0027,0.0973c0.0434,1.5734,0.1881,3.4974,0.4304,4.9295c0.0781,0.4622,-0.2343,0.9018,-0.6964,0.9799C9.4072,19.1943,9.3592,19.1983,9.312,19.1983zM2.5305,18.5689c-0.4291,0,-0.7915,-0.3216,-0.8429,-0.7482c-0.1625,-1.3461,-0.2548,-3.1389,-0.2745,-4.5397l-0.0014,-0.1014h1.7001l0.0015,0.0985c0.0194,1.3338,0.1076,3.0591,0.262,4.3389c0.0272,0.2254,-0.035,0.4479,-0.1751,0.6266c-0.1401,0.1786,-0.3415,0.2919,-0.5668,0.3191C2.5987,18.5669,2.5644,18.5689,2.5305,18.5689zM21.7412,18.1968c-0.392,0,-0.7312,-0.2662,-0.8249,-0.6473c-0.2641,-1.0747,-0.411,-2.7761,-0.4366,-4.2682l-0.0017,-0.1017h1.7l0.0018,0.0982c0.0242,1.3524,0.1545,2.9185,0.3874,3.8659c0.0542,0.2205,0.0193,0.4489,-0.0983,0.6431c-0.1176,0.1942,-0.3038,0.331,-0.5243,0.3852C21.8781,18.1884,21.8096,18.1968,21.7412,18.1968zM18.0814,14.4405c-0.4572,0,-0.83,-0.358,-0.8487,-0.8151c-0.0048,-0.1149,-0.0089,-0.2291,-0.0125,-0.3427l-0.0033,-0.1032h1.7009l0.0032,0.0967c0.0031,0.0928,0.0063,0.1858,0.0101,0.2793c0.0094,0.2269,-0.0702,0.4438,-0.224,0.6107c-0.1538,0.167,-0.3634,0.2642,-0.5903,0.2734C18.1052,14.4402,18.0933,14.4405,18.0814,14.4405zM20.3126,8.8796l-0.0298,-0.1112c-0.005,-0.0194,-0.0101,-0.0388,-0.0156,-0.0581c-0.0625,-0.2183,-0.0362,-0.4478,0.074,-0.6463s0.2911,-0.3422,0.5095,-0.4046c0.0765,-0.0219,0.1552,-0.033,0.2341,-0.033c0.3771,0,0.7129,0.2535,0.8168,0.6165c0.0461,0.1614,0.0885,0.3299,0.1295,0.5152l0.0269,0.1216H20.3126zM16.7777,8.8796l-0.027,-0.0577c-0.8215,-1.7594,-2.6698,-2.8524,-4.8235,-2.8524c-2.1491,0,-4.0319,1.0939,-4.9139,2.8549l-0.0276,0.0552H5.1489l0.0484,-0.134c0.9818,-2.7191,3.6235,-4.4762,6.73,-4.4762c3.1175,0,5.7195,1.7579,6.6291,4.4785l0.044,0.1317H16.7777zM8.7893,8.8796l0.1444,-0.1657c0.7344,-0.8427,1.8144,-1.326,2.963,-1.326c0.5073,0,0.995,0.0867,1.4497,0.2576c0.4387,0.165,0.6614,0.6562,0.4964,1.0948c-0.0086,0.0229,-0.0196,0.044,-0.031,0.065l-0.0381,0.0743H8.7893zM1.7271,8.8796l0.0326,-0.1252c0.3789,-1.4536,1.0881,-2.7754,2.108,-3.9287c0.1613,-0.1823,0.3936,-0.2869,0.6371,-0.2869c0.2074,0,0.4072,0.0757,0.5628,0.2133c0.351,0.3104,0.384,0.8487,0.0737,1.1998C4.3913,6.8,3.8431,7.7615,3.5119,8.8097l-0.0221,0.0699H1.7271zM20.1774,7.2892c-0.2958,0,-0.5658,-0.1497,-0.7221,-0.4004c-1.517,-2.4338,-4.3176,-3.8869,-7.4916,-3.8869c-2.0517,0,-3.9594,0.6075,-5.5169,1.7567c-0.1474,0.1086,-0.3217,0.166,-0.5042,0.166c-0.2691,0,-0.525,-0.1291,-0.6845,-0.3453c-0.2782,-0.3771,-0.1978,-0.9104,0.1793,-1.1887c1.852,-1.3665,4.1088,-2.0888,6.5263,-2.0888c3.7647,0,7.1046,1.7523,8.9342,4.6875c0.2479,0.3977,0.126,0.923,-0.2717,1.171C20.4911,7.2446,20.3359,7.2892,20.1774,7.2892z" fill="#7B7B7B"/>
    <rect y="10" width="24" height="2" fill="#CB525D"/>
  </g>
</svg>
