<?xml version="1.0" encoding="UTF-8"?>
<!DOCTYPE svg PUBLIC "-//W3C//DTD SVG 1.1//EN" "http://www.w3.org/Graphics/SVG/1.1/DTD/svg11.dtd">
<svg version="1.1" id="Layer_1" xmlns="http://www.w3.org/2000/svg" xmlns:xlink="http://www.w3.org/1999/xlink" x="0px" y="0px" width="24px" height="24px" viewBox="0 0 24 24" enable-background="new 0 0 24 24" xml:space="preserve">
  <g id="icon">
    <path d="M21.9994,4.7546l-0.0119,-1.0016l-0.9912,-0.0599c-3.6985,-0.2234,-7.3166,-2.1523,-8.8714,-3.2568L11.5105,0l-0.6144,0.4363C9.342,1.5403,5.7202,3.4686,2.0038,3.6931l-0.9912,0.0599l-0.0119,1.0016c-0.0137,1.1587,0.2004,3.2969,0.4052,4.7932c0.501,3.6614,1.6046,6.8249,3.1076,8.9079c2.1573,2.9912,4.2833,4.7234,6.6906,5.4515l0.3065,0.0928l0.3065,-0.0928c2.3891,-0.7226,4.5084,-2.4548,6.6696,-5.4514c1.5031,-2.0833,2.6067,-5.2469,3.1077,-8.908C21.7989,8.0514,22.0131,5.9132,21.9994,4.7546zM12.6908,17.2787h-1.725V8.585l-0.8223,0.8168L8.9279,8.1779l2.4732,-2.4567h1.2897V17.2787z" fill="#6485C3"/>
    <polygon points="12.6908,17.2788 10.9658,17.2788 10.9658,8.585 10.1434,9.4018 8.9278,8.1779 11.401,5.7213 12.6908,5.7213" fill="#FFFFFF" stroke-linejoin="miter" opacity="0.5"/>
  </g>
</svg>
