<?xml version="1.0" encoding="UTF-8"?>
<!DOCTYPE svg PUBLIC "-//W3C//DTD SVG 1.1//EN" "http://www.w3.org/Graphics/SVG/1.1/DTD/svg11.dtd">
<svg version="1.1" id="Layer_1" xmlns="http://www.w3.org/2000/svg" xmlns:xlink="http://www.w3.org/1999/xlink" x="0px" y="0px" width="24px" height="24px" viewBox="0 0 24 24" enable-background="new 0 0 24 24" xml:space="preserve">
  <g id="icon">
    <path d="M9.3,0.8v6.0724c1.1345,0.6607,3.0383,1.5149,4.9257,1.628l1.8515,0.1112l0.0222,1.8537c0.0105,0.8736,-0.1407,2.3947,-0.2953,3.5146c-0.3462,2.5094,-1.091,4.7276,-2.1122,6.3203H22.8V0.8H9.3z" fill="#FFFFFF" opacity="0.5"/>
    <path d="M24,0v21H13.199c0.0674,-0.0896,0.1348,-0.1781,0.2022,-0.2707c0.3665,-0.5038,0.7019,-1.0848,1.0013,-1.7293H22V2H10v5.2509c-0.5716,-0.2877,-1.0383,-0.5719,-1.3444,-0.7875L8,6.0015V0H24z" fill="#7B7B7B"/>
    <path d="M17.5,3v1h-3V3H17.5zM15,17.485V18h2v-2h-1.5751C15.301,16.5155,15.1585,17.011,15,17.485z" fill="#6485C3"/>
    <path d="M7.2505,23.9229c-1.7185,-0.5155,-3.2317,-1.736,-4.7622,-3.8407c-1.0665,-1.4659,-1.8488,-3.6865,-2.2028,-6.2528c-0.1441,-1.0444,-0.2947,-2.5385,-0.285,-3.3508l0.0098,-0.8304L0.84,9.5984c2.2367,-0.134,4.7573,-1.2529,6.1526,-2.2358L7.5073,7l0.5147,0.3626c1.0766,0.7583,3.5808,2.0826,6.1379,2.2358l0.8296,0.0498l0.01,0.8302c0.0098,0.812,-0.1409,2.3062,-0.285,3.351c-0.3541,2.5662,-1.1364,4.7868,-2.2028,6.2529c-1.5334,2.1086,-3.0419,3.329,-4.7474,3.8407L7.5073,24L7.2505,23.9229z" fill="#6485C3"/>
  </g>
</svg>
