<?xml version="1.0" encoding="UTF-8"?>
<!DOCTYPE svg PUBLIC "-//W3C//DTD SVG 1.1//EN" "http://www.w3.org/Graphics/SVG/1.1/DTD/svg11.dtd">
<svg version="1.1" id="Layer_1" xmlns="http://www.w3.org/2000/svg" xmlns:xlink="http://www.w3.org/1999/xlink" x="0px" y="0px" width="24px" height="24px" viewBox="0 0 24 24" enable-background="new 0 0 24 24" xml:space="preserve">
  <g id="icon">
    <g>
      <polygon points="11.5561,13.2669 11.5561,9.1299 8.8248,13.2669" fill="#6485C3" stroke-linejoin="miter"/>
      <path d="M21.9994,4.7546l-0.0119,-1.0016l-0.9912,-0.0599c-3.6985,-0.2234,-7.3166,-2.1523,-8.8714,-3.2568L11.5105,0l-0.6144,0.4363C9.342,1.5403,5.7202,3.4686,2.0038,3.6931l-0.9912,0.0599l-0.0119,1.0016c-0.0137,1.1587,0.2004,3.2969,0.4052,4.7932c0.501,3.6614,1.6046,6.8249,3.1076,8.9079c2.1573,2.9912,4.2833,4.7234,6.6906,5.4515l0.3065,0.0928l0.3065,-0.0928c2.3891,-0.7226,4.5084,-2.4548,6.6696,-5.4514c1.5031,-2.0833,2.6067,-5.2469,3.1077,-8.908C21.7989,8.0514,22.0131,5.9132,21.9994,4.7546zM14.9688,14.9919h-1.6877v2.4164h-1.725v-2.4164H6.4556v-1.2672l5.3532,-8.1085h1.4723v7.6507h1.6877V14.9919z" fill="#6485C3"/>
    </g>
    <path d="M13.2811,17.4083h-1.725v-2.4163H6.4556v-1.2672l5.3532,-8.1085h1.4723v7.6507h1.6877v1.725h-1.6877V17.4083zM8.8248,13.2669h2.7313V9.1299L8.8248,13.2669z" fill="#FFFFFF" opacity="0.5"/>
  </g>
</svg>
