<?xml version="1.0" encoding="UTF-8"?>
<!DOCTYPE svg PUBLIC "-//W3C//DTD SVG 1.1//EN" "http://www.w3.org/Graphics/SVG/1.1/DTD/svg11.dtd">
<svg version="1.1" id="Layer_1" xmlns="http://www.w3.org/2000/svg" xmlns:xlink="http://www.w3.org/1999/xlink" x="0px" y="0px" width="24px" height="24px" viewBox="0 0 24 24" enable-background="new 0 0 24 24" xml:space="preserve">
  <g id="icon">
    <g>
      <path d="M11.9125,12.1693l0.0847,0.0856c0.0022,-0.0217,0.0044,-0.0432,0.0066,-0.0647C11.9732,12.1833,11.9429,12.1764,11.9125,12.1693z" fill="#FFFFFF" opacity="0.5"/>
      <path d="M4.7,0.7v6.7035c0.6356,-0.2961,1.2081,-0.6224,1.6592,-0.9402l1.1482,-0.809l1.1482,0.8091c0.914,0.6438,3.2546,1.8981,5.5701,2.0369l1.8515,0.1112l0.0222,1.8537c0.0105,0.8736,-0.1407,2.3947,-0.2953,3.5146c-0.0573,0.4156,-0.1269,0.8221,-0.2055,1.2203H23.2V0.7H4.7z" fill="#FFFFFF" opacity="0.5"/>
    </g>
    <path d="M4,0v7.7064c0.745,-0.2985,1.4378,-0.6508,2,-1.0046V2h16v12h-6.1989c-0.096,0.6911,-0.2223,1.36,-0.3762,2H24V0H4z" fill="#7B7B7B"/>
    <path d="M14.8177,18c-0.2739,0.7335,-0.589,1.4053,-0.9407,2H21v-2H14.8177z" fill="#7B7B7B"/>
    <path d="M14.1682,10.436c-2.6609,-0.1594,-5.3472,-1.4943,-6.6608,-2.4197c-1.3135,0.9253,-4.0147,2.2603,-6.6756,2.4197c-0.0084,0.7049,0.1192,2.0872,0.2794,3.2485c0.3374,2.4459,1.0689,4.5429,2.0596,5.9048c1.3845,1.904,2.7473,3.0666,4.3366,3.5434c1.5892,-0.4768,2.9372,-1.6394,4.3218,-3.5434c0.9908,-1.3619,1.7222,-3.4589,2.0596,-5.9048C14.049,12.5232,14.1766,11.1409,14.1682,10.436z" fill="#FFFFFF" opacity="0.5"/>
    <path d="M7.2505,23.9229c-1.7185,-0.5155,-3.2317,-1.736,-4.7622,-3.8407c-1.0665,-1.4659,-1.8488,-3.6865,-2.2028,-6.2528c-0.1441,-1.0444,-0.2947,-2.5385,-0.285,-3.3508l0.0098,-0.8304L0.84,9.5984c2.2367,-0.134,4.7573,-1.2529,6.1526,-2.2358L7.5073,7l0.5147,0.3626c1.0766,0.7583,3.5808,2.0826,6.1379,2.2358l0.8296,0.0498l0.01,0.8302c0.0098,0.812,-0.1409,2.3062,-0.285,3.351c-0.3541,2.5662,-1.1364,4.7868,-2.2028,6.2529c-1.5334,2.1086,-3.0419,3.329,-4.7474,3.8407L7.5073,24L7.2505,23.9229zM1.8157,11.2909c0.044,0.6704,0.1327,1.5222,0.2393,2.2948c0.3146,2.2803,0.9817,4.2149,1.8784,5.4475c1.2102,1.6642,2.3467,2.6486,3.5743,3.0955c1.2282,-0.4453,2.3268,-1.4011,3.5588,-3.0953c0.8967,-1.2327,1.5638,-3.1673,1.8784,-5.4477c0.1065,-0.7724,0.1952,-1.6244,0.2393,-2.2952c-2.6814,-0.3856,-4.9771,-1.6975,-5.677,-2.1308C6.8068,9.5931,4.5087,10.9053,1.8157,11.2909z" fill="#CB525D"/>
    <polygon points="7.5,16.5205 5.2942,18.7263 4.1737,17.6058 6.3795,15.4 4.1737,13.1942 5.2942,12.0737 7.5,14.2795 9.7058,12.0737 10.8263,13.1942 8.6205,15.4 10.8263,17.6058 9.7058,18.7263" fill="#CB525D" stroke-linejoin="miter"/>
  </g>
</svg>
