<?xml version="1.0" encoding="UTF-8"?>
<!DOCTYPE svg PUBLIC "-//W3C//DTD SVG 1.1//EN" "http://www.w3.org/Graphics/SVG/1.1/DTD/svg11.dtd">
<svg version="1.1" id="Layer_1" xmlns="http://www.w3.org/2000/svg" xmlns:xlink="http://www.w3.org/1999/xlink" x="0px" y="0px" width="16px" height="16px" viewBox="0 0 16 16" enable-background="new 0 0 16 16" xml:space="preserve">
  <g id="icon">
    <path d="M1.5,14.0333V16.5h13V1.5333L14.5,1.5H1.5v1.5" fill="#FFFFFF" opacity="0.5"/>
    <polygon points="15,16 1,16 1,13.0333 2,13.0333 2,15 14,15 14,1 2,1 2,2 1,2 1,0 15,0" fill="#6D6E71" stroke-linejoin="miter"/>
    <path d="M2,12H0v-1h2V12zM2,10H0V9h2V10zM2,8H0V7h2V8zM2,6H0V5h2V6zM2,4H0V3h2V4z" fill="#6485C3"/>
    <path d="M12,12H4v-1h8V12zM11,13H5v1h6V13z" fill="#7B7B7B"/>
    <path d="M3,2v8h10V2H3zM12,9H4V3h8V9z" fill="#6D6E71"/>
    <circle cx="10.0379" cy="4.6419" r="1.1712" fill="#EEAC55"/>
    <path d="M9.772,6.2986l-0.0167,0.0001c-0.4339,0.006,-0.8802,0.2452,-1.3644,0.7312l-0.0585,0.0587l0.0567,0.0607c0.283,0.3028,0.6598,0.6872,1.0932,1.0095l-0.1837,0.3276c-0.611,-0.449,-1.1393,-1.0361,-1.6074,-1.5563c-0.7066,-0.7853,-1.3169,-1.4635,-1.9717,-1.4635c-0.0299,0,-0.0602,0.0015,-0.0899,0.0043C5.1323,5.5195,4.597,5.9751,4,6.8597V9h8V7.7961C11.2083,6.9809,10.5144,6.2986,9.772,6.2986z" fill="#52B250"/>
  </g>
</svg>
