<?xml version="1.0" encoding="UTF-8"?>
<!DOCTYPE svg PUBLIC "-//W3C//DTD SVG 1.1//EN" "http://www.w3.org/Graphics/SVG/1.1/DTD/svg11.dtd">
<svg version="1.1" id="Layer_1" xmlns="http://www.w3.org/2000/svg" xmlns:xlink="http://www.w3.org/1999/xlink" x="0px" y="0px" width="16px" height="16px" viewBox="0 0 16 16" enable-background="new 0 0 16 16" xml:space="preserve">
  <g id="icon">
    <path d="M1.9507,15.9c-0.0591,0,-0.1186,-0.0025,-0.177,-0.0074c-0.5546,-0.0465,-0.9657,-0.2917,-1.2129,-0.4892l-0.0767,-0.0612l0.7962,-0.9968l0.0767,0.0612c0.109,0.087,0.2882,0.1949,0.5236,0.2147c0.0246,0.0021,0.0486,0.003,0.0721,0.003c0.2131,0,0.3809,-0.0791,0.5432,-0.1555c0.2407,-0.1134,0.4894,-0.3215,0.7194,-0.6019c0.3993,-0.4867,0.5583,-0.9718,0.6105,-1.1312c0.7458,-2.2765,0.9186,-3.1507,0.9203,-3.1593c0.2713,-1.4353,0.4538,-2.4012,0.6066,-3.3592h-1.34V4.9414H5.54c0.0203,-0.1162,0.4198,-2.363,1.1071,-3.4175c0.0068,-0.0104,0.0309,-0.0502,0.0309,-0.0502c0.1106,-0.1826,0.3408,-0.5628,0.772,-0.8861c0.1933,-0.145,0.5529,-0.4147,1.1091,-0.4757c0.0727,-0.008,0.1467,-0.012,0.2199,-0.012c0.4412,0,0.7644,0.1423,0.9025,0.2031c0.3043,0.1338,0.581,0.3358,0.8001,0.584l0.065,0.0736l-0.9563,0.8445l-0.0649,-0.0736c-0.0977,-0.1106,-0.2213,-0.2008,-0.3576,-0.2607c-0.0755,-0.0332,-0.216,-0.095,-0.3896,-0.095c-0.0258,0,-0.0523,0.0013,-0.0795,0.0044c-0.2094,0.023,-0.3548,0.132,-0.483,0.2282c-0.2335,0.1751,-0.3667,0.3951,-0.4464,0.5266c-0.0205,0.0338,-0.0382,0.0626,-0.0531,0.0856c-0.3914,0.6005,-0.7254,1.9402,-0.8784,2.7209h1.4687v1.2758H6.6442c-0.1621,1.0437,-0.3455,2.0142,-0.6444,3.5955c-0.007,0.0371,-0.1804,0.9354,-0.9615,3.32c-0.0706,0.2156,-0.2855,0.8716,-0.8366,1.5434c-0.3493,0.4258,-0.751,0.7532,-1.1618,0.9467C2.8341,15.7197,2.4515,15.9,1.9507,15.9zM9.2418,12.9419l2.7721,-3.0162l1.8075,2.9306l1.0858,-0.6697l-1.9963,-3.2369l2.7674,-3.0111l-0.9393,-0.8633l-2.524,2.7462l-1.6409,-2.6606l-1.0858,0.6697l1.8298,2.9669l-3.0156,3.2811L9.2418,12.9419z" fill="#6D6E71"/>
  </g>
</svg>
