<?xml version="1.0" encoding="UTF-8"?>
<!DOCTYPE svg PUBLIC "-//W3C//DTD SVG 1.1//EN" "http://www.w3.org/Graphics/SVG/1.1/DTD/svg11.dtd">
<svg version="1.1" id="Layer_1" xmlns="http://www.w3.org/2000/svg" xmlns:xlink="http://www.w3.org/1999/xlink" x="0px" y="0px" width="16px" height="16px" viewBox="0 0 16 16" enable-background="new 0 0 16 16" xml:space="preserve">
  <g id="icon">
    <path d="M12.8389,15.9389l-0.7778,-0.7778l3.1,-3.1l0.7778,0.7778L12.8389,15.9389zM8.8389,15.9389l-0.7778,-0.7778l7.1,-7.1l0.7778,0.7778L8.8389,15.9389zM4.8389,15.9389l-0.7778,-0.7778l11.1,-11.1l0.7778,0.7778L4.8389,15.9389zM0.8389,15.9389l-0.7778,-0.7778l15.1,-15.1l0.7778,0.7778L0.8389,15.9389zM0.8389,11.9389l-0.7778,-0.7778l11.1,-11.1l0.7778,0.7778L0.8389,11.9389zM0.8389,7.9389l-0.7778,-0.7778l7.1,-7.1l0.7778,0.7778L0.8389,7.9389zM0.8389,3.9389l-0.7778,-0.7778l3.1,-3.1l0.7778,0.7778L0.8389,3.9389z" fill="#6D6E71"/>
  </g>
</svg>
