<?xml version="1.0" encoding="UTF-8"?>
<!DOCTYPE svg PUBLIC "-//W3C//DTD SVG 1.1//EN" "http://www.w3.org/Graphics/SVG/1.1/DTD/svg11.dtd">
<svg version="1.1" id="Layer_1" xmlns="http://www.w3.org/2000/svg" xmlns:xlink="http://www.w3.org/1999/xlink" x="0px" y="0px" width="16px" height="16px" viewBox="0 0 16 16" enable-background="new 0 0 16 16" xml:space="preserve">
  <g id="icon">
    <rect x="0.5" y="6.5" width="15" height="9" fill="#FFFFFF" opacity="0.4"/>
    <path d="M12.4842,10.4433c-0.8271,0,-1.5,-0.6729,-1.5,-1.5s0.6729,-1.5,1.5,-1.5s1.5,0.6729,1.5,1.5S13.3113,10.4433,12.4842,10.4433z" fill="#EEAC55"/>
    <path d="M16,16H0V6h16V16zM1,15h14V7H1V15z" fill="#6D6E71"/>
    <path d="M16,5h-1V0h1V5zM1,5H0V0h1V5z" fill="#6D6E71"/>
    <polygon points="11.9786,5.0832 11.2758,4.3718 12.6644,3 9.5,3 9.5,2 12.6116,2 11.3759,0.7799 12.0785,0.0683 14.5673,2.5257" fill="#6485C3" stroke-linejoin="miter"/>
    <polygon points="3.9497,5.0832 1.3609,2.5257 3.8498,0.0683 4.5524,0.7799 3.3167,2 6.5,2 6.5,3 3.264,3 4.6525,4.3718" fill="#6485C3" stroke-linejoin="miter"/>
    <path d="M9.6177,10.8544l-0.0249,0.0002c-0.6478,0.0105,-1.3142,0.4286,-2.0371,1.2783l-0.0874,0.1027l0.0847,0.1061c0.4226,0.5294,0.6439,0.84,1.2909,1.4036l-0.2743,0.5727c-0.9122,-0.785,-1.3597,-1.45,-2.0586,-2.3594C5.4561,10.5856,4.545,9.4,3.5674,9.4c-0.0447,0,-0.0899,0.0026,-0.1342,0.0076c-0.7427,0.0848,-1.5419,0.8812,-2.4332,2.4277V15h11.9441h1.365C13.1271,13.575,10.726,10.8544,9.6177,10.8544z" fill="#52B250"/>
  </g>
</svg>
