<?xml version="1.0" encoding="UTF-8"?>
<!DOCTYPE svg PUBLIC "-//W3C//DTD SVG 1.1//EN" "http://www.w3.org/Graphics/SVG/1.1/DTD/svg11.dtd">
<svg version="1.1" id="Layer_1" xmlns="http://www.w3.org/2000/svg" xmlns:xlink="http://www.w3.org/1999/xlink" x="0px" y="0px" width="16px" height="16px" viewBox="0 0 16 16" enable-background="new 0 0 16 16" xml:space="preserve">
  <g id="icon">
    <rect x="0.5549" y="1.8" width="14.9451" height="12.7" fill="#FFFFFF" opacity="0.5"/>
    <path d="M12.0468,6.8849c-1.0735,0,-1.9468,-0.8714,-1.9468,-1.9424C10.1,3.8714,10.9733,3,12.0468,3s1.9468,0.8714,1.9468,1.9425C13.9937,6.0135,13.1203,6.8849,12.0468,6.8849zM12.0468,4c-0.5221,0,-0.9468,0.4228,-0.9468,0.9425s0.4248,0.9424,0.9468,0.9424s0.9468,-0.4228,0.9468,-0.9424S12.5689,4,12.0468,4z" fill="#EEAC55"/>
    <path d="M10.0589,12.7007c-1.0491,-0.776,-1.9515,-1.7853,-2.7477,-2.6759C6.145,8.7204,5.1386,7.5945,4.1126,7.5945c-0.0446,0,-0.0899,0.0022,-0.1345,0.0066c-0.876,0.0859,-1.8451,1.0064,-2.9628,2.814l-0.1032,0.1667l-0.8317,-0.5646l0.1043,-0.1691C1.497,7.7247,2.6732,6.6803,3.8866,6.5613c0.0762,-0.0075,0.1537,-0.0113,0.23,-0.0113c1.4482,0,2.6453,1.3391,3.9127,2.7569l0.0898,0.1003c0.9591,-0.956,1.8791,-1.4271,2.8113,-1.44l0.0373,-0.0002c1.6417,0,2.9735,1.3829,4.5157,2.9841l0.3165,0.3284l-0.6919,0.7461l-0.3179,-0.3298c-1.3874,-1.4405,-2.5856,-2.6845,-3.8213,-2.6845l-0.0272,0.0002c-0.6709,0.0093,-1.3711,0.3854,-2.1381,1.1494c0.4646,0.4986,1.0808,1.127,1.7849,1.6543l0.1424,0.1063l-0.5037,0.9043L10.0589,12.7007z" fill="#52B250"/>
    <path d="M16,15H0V1h16V15zM1,14h14V2H1V14z" fill="#6D6E71"/>
  </g>
</svg>
