<?xml version="1.0" encoding="UTF-8"?>
<!DOCTYPE svg PUBLIC "-//W3C//DTD SVG 1.1//EN" "http://www.w3.org/Graphics/SVG/1.1/DTD/svg11.dtd">
<svg version="1.1" id="Layer_1" xmlns="http://www.w3.org/2000/svg" xmlns:xlink="http://www.w3.org/1999/xlink" x="0px" y="0px" width="16px" height="16px" viewBox="0 0 16 16" enable-background="new 0 0 16 16" xml:space="preserve">
  <g id="icon">
    <path d="M0.105,13.7883l5.6306,-9.8591c0.072,-0.126,0.2644,-0.075,0.2644,0.0702v9.8591c0,0.0782,-0.0634,0.1415,-0.1415,0.1415H0.2279C0.1193,14,0.0512,13.8826,0.105,13.7883z" fill="#9070B1"/>
    <path d="M7.2206,8.0539l8.631,5.6873c0.1157,0.0781,0.0605,0.2588,-0.0791,0.2588h-8.631c-0.0782,0,-0.1415,-0.0634,-0.1415,-0.1415V8.1712C7,8.0578,7.1267,7.9905,7.2206,8.0539z" fill="#6D6E71"/>
    <path d="M13,8h-1V5.9833c0,-0.5431,-0.4403,-0.9833,-0.9833,-0.9833H9.287l1.2059,1.1981l-0.7049,0.7094L7.3167,4.452L9.788,1.9964l0.7049,0.7094L9.1904,4h1.8263C12.112,4,13,4.888,13,5.9833V8z" fill="#6485C3"/>
  </g>
</svg>
