<?xml version="1.0" encoding="UTF-8"?>
<!DOCTYPE svg PUBLIC "-//W3C//DTD SVG 1.1//EN" "http://www.w3.org/Graphics/SVG/1.1/DTD/svg11.dtd">
<svg version="1.1" id="Layer_1" xmlns="http://www.w3.org/2000/svg" xmlns:xlink="http://www.w3.org/1999/xlink" x="0px" y="0px" width="16px" height="16px" viewBox="0 0 16 16" enable-background="new 0 0 16 16" xml:space="preserve">
  <g id="icon">
    <path d="M15.984,9.7005c-0.003,-0.3447,-0.0057,-0.6423,-0.005,-0.6833c0.0073,-0.3564,-0.0243,-2.1892,-1.3677,-3.2723c-0.9747,-0.7859,-2.0105,-0.7574,-2.9693,-0.6132l2.4543,2.5022c0.303,0.3132,0.4633,0.7206,0.4545,1.1501c-0.0088,0.4291,-0.185,0.8289,-0.496,1.1257l-0.6645,0.6337c0.0165,0.6367,0.0161,1.2781,0.0157,1.7608c-0.0003,0.3825,-0.0006,0.6588,0.0067,0.8148c0.0371,0.7983,0.1144,2.4594,1.2334,2.4822c0.0079,0.0001,0.0157,0.0002,0.0235,0.0002c1.013,0,1.222,-1.3429,1.291,-1.7865l0.0102,-0.0642C16.0052,13.5419,16.0087,12.482,15.984,9.7005z" fill="#6485C3"/>
    <path d="M13.6681,8.0542L8.2648,2.5455l0.454,3.22c0.8174,0.353,1.379,1.1703,1.379,2.1048c0,1.2633,-1.0212,2.2911,-2.2765,2.2911S5.5449,9.1335,5.5449,7.8702c0,-0.6024,0.2318,-1.167,0.6378,-1.5888L5.774,3.3879L0.3547,8.4644C0.16,8.65,0.0497,8.9001,0.0442,9.1683c-0.0056,0.2684,0.0944,0.5228,0.2813,0.7162l5.4832,5.6732c0.1918,0.1985,0.4499,0.3079,0.7266,0.3079c0.261,0,0.5086,-0.099,0.6973,-0.2789l6.408,-6.1109c0.1946,-0.1857,0.3049,-0.4357,0.3104,-0.704C13.9565,8.5034,13.8566,8.2491,13.6681,8.0542z" fill="#7B7B7B"/>
    <path d="M9.2977,7.8702c0,0.8222,-0.6623,1.4911,-1.4764,1.4911s-1.4764,-0.6689,-1.4764,-1.4911c0,-0.531,0.2771,-0.9967,0.692,-1.2609L6.1442,0.2879L7.1121,0.1l0.887,6.2911C8.7295,6.4801,9.2977,7.1089,9.2977,7.8702zM8.3122,7.8702c0,-0.2709,-0.2202,-0.4913,-0.4909,-0.4913c-0.2707,0,-0.4909,0.2204,-0.4909,0.4913s0.2202,0.4914,0.4909,0.4914C8.092,8.3616,8.3122,8.1411,8.3122,7.8702z" fill="#6D6E71"/>
  </g>
</svg>
