<?xml version="1.0" encoding="UTF-8"?>
<!DOCTYPE svg PUBLIC "-//W3C//DTD SVG 1.1//EN" "http://www.w3.org/Graphics/SVG/1.1/DTD/svg11.dtd">
<svg version="1.1" id="Layer_1" xmlns="http://www.w3.org/2000/svg" xmlns:xlink="http://www.w3.org/1999/xlink" x="0px" y="0px" width="16px" height="16px" viewBox="0 0 16 16" enable-background="new 0 0 16 16" xml:space="preserve">
  <g id="icon">
    <path d="M4,4H0V1h4V4z" fill="#BAD2EE"/>
    <path d="M4,10H0V7h4V10zM8,7H4V4h4V7zM12,4H8V1h4V4z" fill="#BAD2EE" opacity="0.75"/>
    <path d="M16,7h-4V4h4V7zM12,10H8V7h4V10zM8,13H4v-3h4V13zM4,16H0v-3h4V16z" fill="#BAD2EE" opacity="0.5"/>
    <path d="M12,16H8v-3h4V16zM16,13h-4v-3h4V13z" fill="#BAD2EE" opacity="0.25"/>
  </g>
</svg>
