<?xml version="1.0" encoding="UTF-8"?>
<!DOCTYPE svg PUBLIC "-//W3C//DTD SVG 1.1//EN" "http://www.w3.org/Graphics/SVG/1.1/DTD/svg11.dtd">
<svg version="1.1" id="Layer_1" xmlns="http://www.w3.org/2000/svg" xmlns:xlink="http://www.w3.org/1999/xlink" x="0px" y="0px" width="16px" height="16px" viewBox="0 0 16 16" enable-background="new 0 0 16 16" xml:space="preserve">
  <g id="icon">
    <path d="M6.7667,1h2.4667C9.3806,1,9.5,1.1194,9.5,1.2667v2.4667C9.5,3.8806,9.3806,4,9.2333,4H6.7667C6.6194,4,6.5,3.8806,6.5,3.7333V1.2667C6.5,1.1194,6.6194,1,6.7667,1zM0.2667,15h2.4667c0.1473,0,0.2667,-0.1194,0.2667,-0.2667v-2.4667c0,-0.1473,-0.1194,-0.2667,-0.2667,-0.2667H0.2667C0.1194,12,0,12.1194,0,12.2667v2.4667C0,14.8806,0.1194,15,0.2667,15zM13,12.2667v2.4667c0,0.1473,0.1194,0.2667,0.2667,0.2667h2.4667c0.1473,0,0.2667,-0.1194,0.2667,-0.2667v-2.4667c0,-0.1473,-0.1194,-0.2667,-0.2667,-0.2667h-2.4667C13.1194,12,13,12.1194,13,12.2667z" fill="#6485C3"/>
    <path d="M3.7125,2.2H6v1.3096c-0.792,0.4567,-1.6065,1.3687,-2.3139,2.6263C2.7738,7.7578,2.1768,9.7034,2.0208,11.5H1.0172c0.1578,-1.9606,0.8041,-4.0886,1.7973,-5.8543C3.3956,4.6128,4.0468,3.7865,4.7274,3.2H3.7217c0.0359,-0.1552,0.0568,-0.3161,0.0568,-0.4821C3.7786,2.539,3.7541,2.3662,3.7125,2.2zM11.2344,3.2h0.9724c-0.0359,-0.1552,-0.0568,-0.3161,-0.0568,-0.4821c0,-0.1789,0.0245,-0.3517,0.066,-0.5179H10v1.3267C11.8317,4.63,13.6203,8.1737,13.9092,11.5h1.0025c-0.1564,-1.9596,-0.7967,-4.0869,-1.7807,-5.8526C12.555,4.6138,11.9092,3.7868,11.2344,3.2z" fill="#6D6E71"/>
    <path d="M3.2786,2.7179c0,0.9039,-0.7354,1.6393,-1.6393,1.6393S0,3.6218,0,2.7179s0.7354,-1.6393,1.6393,-1.6393S3.2786,1.814,3.2786,2.7179zM14.2893,1.0786c-0.9039,0,-1.6393,0.7354,-1.6393,1.6393s0.7354,1.6393,1.6393,1.6393s1.6393,-0.7354,1.6393,-1.6393S15.1932,1.0786,14.2893,1.0786z" fill="#B7B7B7"/>
  </g>
</svg>
