<?xml version="1.0" encoding="UTF-8"?>
<!DOCTYPE svg PUBLIC "-//W3C//DTD SVG 1.1//EN" "http://www.w3.org/Graphics/SVG/1.1/DTD/svg11.dtd">
<svg version="1.1" id="Layer_1" xmlns="http://www.w3.org/2000/svg" xmlns:xlink="http://www.w3.org/1999/xlink" x="0px" y="0px" width="16px" height="16px" viewBox="0 0 16 16" enable-background="new 0 0 16 16" xml:space="preserve">
  <g id="icon">
    <path d="M10.2767,2.5245c-0.8321,0,-1.6179,0.1953,-2.3152,0.5406l2.5863,0.9025c0.4914,0.1715,0.4914,0.8665,0,1.038L7.7674,5.976l0.4711,1.4995c0.1332,0.4238,-0.2654,0.8223,-0.6892,0.6892l-1.4911,-0.4684L5.432,9.544c0.7522,1.9283,2.637,3.2962,4.8447,3.2962c2.8691,0,5.195,-2.3093,5.195,-5.1579S13.1458,2.5245,10.2767,2.5245z" fill="#FFFFFF" opacity="0.4"/>
    <path d="M10.2725,2c-0.8371,0,-1.6321,0.1807,-2.3496,0.5026l-0.1555,0.4948l1.3908,0.4854c0.356,-0.0931,0.7293,-0.1431,1.1143,-0.1431c2.4142,0,4.3783,1.95,4.3783,4.347c0,2.3969,-1.9641,4.347,-4.3783,4.347c-2.2681,0,-4.1385,-1.7213,-4.3567,-3.9172l-0.7354,2.1701c0.124,0.2378,0.2649,0.4686,0.4238,0.69L2,14.555L3.3547,15.9l3.6042,-3.5784c0.9732,0.6884,2.1168,1.0517,3.3136,1.0517c3.1582,0,5.7275,-2.551,5.7275,-5.6866S13.4306,2,10.2725,2z" fill="#6D6E71"/>
    <path d="M4.5605,1.3522l0.5843,1.724l1.2047,-0.3785L5.971,3.9025l1.724,0.5843L5.971,5.071l0.3785,1.2047l-1.2047,-0.3785l-0.5843,1.724l-0.5843,-1.724l-1.2047,0.3785L3.15,5.071l-1.724,-0.5843l1.724,-0.5843l-0.3785,-1.2047l1.2047,0.3785L4.5605,1.3522z" fill="#FFFFFF" opacity="0.5"/>
    <path d="M4.5605,9L3.696,6.4492l-1.6008,0.5029l0.503,-1.6009L0.0473,4.4867l2.5508,-0.8645l-0.5029,-1.6008l1.6008,0.5029l0.8645,-2.4771l0.8645,2.4771l1.6009,-0.503l-0.5029,1.6008L9,4.4867l-2.4771,0.8645l0.503,1.6009l-1.6009,-0.503L4.5605,9zM4.2565,5.3453l0.304,0.8971l0.3041,-0.8971l0.8087,0.254l-0.254,-0.8087l0.8971,-0.3041l-0.8971,-0.304l0.2541,-0.8087l-0.8087,0.254l-0.3041,-0.8971l-0.304,0.8971l-0.8087,-0.2541l0.2541,0.8087l-0.8971,0.304l0.8971,0.3041l-0.254,0.8087L4.2565,5.3453z" fill="#EEAC55"/>
  </g>
</svg>
