<?xml version="1.0" encoding="UTF-8"?>
<!DOCTYPE svg PUBLIC "-//W3C//DTD SVG 1.1//EN" "http://www.w3.org/Graphics/SVG/1.1/DTD/svg11.dtd">
<svg version="1.1" id="Layer_1" xmlns="http://www.w3.org/2000/svg" xmlns:xlink="http://www.w3.org/1999/xlink" x="0px" y="0px" width="16px" height="16px" viewBox="0 0 16 16" enable-background="new 0 0 16 16" xml:space="preserve">
  <g id="icon">
    <path d="M2.5,0.5v3.492c1.82,0,3.5,1.68,3.5,3.5V9h1.717c0.156,0,0.283,0.127,0.283,0.283V11.5h7.5V0.5H2.5z" fill="#FFFFFF"/>
    <path d="M3.728,15.976C1.695,16.105,0,14.489,0,12.483l0,-4.94c0,-1.276,1.036,-2.449,2.308,-2.544C3.773,4.889,5,6.05,5,7.492l0,4.284c0,0.769,-0.562,1.444,-1.326,1.531C2.77,13.409,2,12.701,2,11.817V8h1l0,3.797c0,0.24,0.16,0.461,0.395,0.509c0.321,0.066,0.605,-0.179,0.605,-0.489l0,-4.284c0,-0.769,-0.562,-1.444,-1.326,-1.531C1.77,5.899,1,6.607,1,7.492l0,4.94c0,1.276,1.036,2.449,2.308,2.544C4.773,15.086,6,13.925,6,12.483V10h1v2.42C7,14.276,5.58,15.858,3.728,15.976z" fill="#238BCB"/>
    <path d="M14,4.5h-2V2h2V4.5z" fill="#EF3E3B"/>
    <path d="M2,0v4.036c0.163,-0.023,0.33,-0.036,0.5,-0.036s0.337,0.013,0.5,0.036V1h12v10H8v1h8V0H2z" fill="#383838"/>
    <path d="M10,8h2v1h-2V8zM5.964,7H11V6H5.662C5.81,6.311,5.913,6.647,5.964,7zM9,9V8H6v1h2H9z" fill="#78797A"/>
  </g>
</svg>
