<?xml version="1.0" encoding="UTF-8"?>
<!DOCTYPE svg PUBLIC "-//W3C//DTD SVG 1.1//EN" "http://www.w3.org/Graphics/SVG/1.1/DTD/svg11.dtd">
<svg version="1.1" id="Layer_1" xmlns="http://www.w3.org/2000/svg" xmlns:xlink="http://www.w3.org/1999/xlink" x="0px" y="0px" width="16px" height="16px" viewBox="0 0 16 16" enable-background="new 0 0 16 16" xml:space="preserve">
  <g id="icon">
    <path d="M12.05,2.6c-0.576,0,-1.118,0.142,-1.596,0.391C9.814,1.525,8.352,0.5,6.65,0.5C4.547,0.5,2.81,2.065,2.538,4.094C1.365,4.407,0.5,5.477,0.5,6.75c0,1.177,0.74,2.181,1.78,2.573c0.292,-0.455,0.784,-0.77,1.352,-0.817c0.038,-0.069,0.077,-0.137,0.118,-0.204c-0.374,-0.829,-0.066,-1.824,0.727,-2.282l1.072,-0.619c0.271,-0.156,0.579,-0.239,0.891,-0.239c0.583,0,1.125,0.286,1.456,0.756c0.035,-0.001,0.069,-0.001,0.104,-0.001c0.043,0,0.087,0.001,0.13,0.002c0.329,-0.471,0.876,-0.758,1.458,-0.758c0.312,0,0.62,0.083,0.89,0.239l1.064,0.615c0.279,0.161,0.499,0.379,0.654,0.646c0.299,0.513,0.322,1.14,0.069,1.668c0.035,0.059,0.069,0.118,0.102,0.178c0.527,0.044,0.989,0.319,1.286,0.722C14.751,8.621,15.5,7.376,15.5,6.05C15.5,4.145,13.955,2.6,12.05,2.6z" fill="#92CBEE"/>
    <path d="M12.05,2.1c-0.465,0,-0.928,0.083,-1.363,0.243C9.866,0.905,8.33,0,6.65,0C4.439,0,2.535,1.574,2.096,3.711C0.847,4.185,0,5.391,0,6.75c0,1.377,0.861,2.555,2.072,3.028c0.101,-0.342,0.303,-0.64,0.57,-0.863C1.696,8.648,1,7.78,1,6.75c0,-1.017,0.686,-1.911,1.667,-2.173l0.322,-0.086l0.044,-0.331C3.275,2.358,4.83,1,6.65,1c1.451,0,2.765,0.86,3.346,2.191c0.202,0.462,0.304,0.953,0.304,1.459h1c0,-0.476,-0.071,-0.941,-0.212,-1.39c0.307,-0.107,0.629,-0.16,0.962,-0.16c1.627,0,2.95,1.323,2.95,2.95c0,1.23,-0.758,2.284,-1.83,2.727c0.297,0.189,0.534,0.463,0.678,0.788C15.124,8.91,16,7.581,16,6.05C16,3.872,14.228,2.1,12.05,2.1z" fill="#0964B0"/>
    <path d="M9.59,15.17c-0.1,0,-0.194,-0.054,-0.244,-0.141l-0.444,-0.764c-0.293,0.079,-0.596,0.118,-0.902,0.118c-0.305,0,-0.607,-0.04,-0.9,-0.118l-0.415,0.756c-0.049,0.09,-0.144,0.147,-0.247,0.147c-0.049,0,-0.097,-0.013,-0.14,-0.038l-1.072,-0.619c-0.132,-0.077,-0.179,-0.242,-0.106,-0.376l0.422,-0.769c-0.436,-0.435,-0.747,-0.973,-0.905,-1.566H3.78c-0.155,0,-0.28,-0.126,-0.28,-0.28V10.28c0,-0.155,0.126,-0.28,0.28,-0.28h0.858c0.158,-0.592,0.468,-1.13,0.904,-1.565l-0.418,-0.737c-0.074,-0.133,-0.027,-0.303,0.105,-0.379L6.3,6.699c0.043,-0.025,0.091,-0.038,0.14,-0.038c0.102,0,0.195,0.055,0.245,0.144l0.414,0.729c0.293,-0.078,0.595,-0.118,0.901,-0.118c0.306,0,0.61,0.04,0.903,0.119l0.443,-0.737c0.05,-0.085,0.143,-0.138,0.242,-0.138c0.049,0,0.097,0.013,0.14,0.038l1.063,0.615c0.043,0.025,0.083,0.058,0.108,0.101c0.054,0.093,0.053,0.201,0.002,0.288l-0.442,0.735c0.435,0.435,0.745,0.972,0.902,1.564h0.858c0.155,0,0.28,0.126,0.28,0.28v1.239c0,0.155,-0.126,0.28,-0.28,0.28h-0.858c-0.157,0.592,-0.468,1.13,-0.903,1.564l0.446,0.767c0.076,0.134,0.03,0.305,-0.103,0.382l-1.072,0.62C9.687,15.157,9.639,15.17,9.59,15.17zM8,9.694c-0.691,0,-1.253,0.562,-1.253,1.253c0,0.691,0.562,1.253,1.253,1.253s1.253,-0.562,1.253,-1.253C9.253,10.256,8.691,9.694,8,9.694z" fill="#DFBCD9" stroke="#A0519F" stroke-width="1" stroke-linecap="round" stroke-miterlimit="1"/>
  </g>
</svg>
