<?xml version="1.0" encoding="UTF-8"?>
<!DOCTYPE svg PUBLIC "-//W3C//DTD SVG 1.1//EN" "http://www.w3.org/Graphics/SVG/1.1/DTD/svg11.dtd">
<svg version="1.1" id="Layer_1" xmlns="http://www.w3.org/2000/svg" xmlns:xlink="http://www.w3.org/1999/xlink" x="0px" y="0px" width="16px" height="16px" viewBox="0 0 16 16" enable-background="new 0 0 16 16" xml:space="preserve">
  <g id="icon">
    <rect x="3.5" y="9.5" width="9" height="6" fill="#FFFFFF" stroke="#383838" stroke-width="1" stroke-miterlimit="1"/>
    <rect x="3.5" y="6.5" width="9" height="3" fill="#ACD8B1" stroke="#0BA04A" stroke-width="1" stroke-linecap="round" stroke-miterlimit="1"/>
    <path d="M15.495,5.869c-0.089,-1.742,-1.501,-3.163,-3.242,-3.263c-0.651,-0.038,-1.266,0.107,-1.799,0.386C9.814,1.525,8.352,0.5,6.65,0.5C4.547,0.5,2.81,2.065,2.538,4.094C1.365,4.407,0.5,5.477,0.5,6.75c0,1.069,0.61,1.994,1.5,2.449V5.75c0,-0.414,0.336,-0.75,0.75,-0.75h10.5c0.414,0,0.75,0.336,0.75,0.75v3.259C14.952,8.318,15.56,7.124,15.495,5.869z" fill="#92CBEE"/>
    <path d="M12.05,2.1c-0.465,0,-0.928,0.083,-1.363,0.243C9.866,0.905,8.33,0,6.65,0C4.439,0,2.535,1.574,2.096,3.711C0.847,4.185,0,5.391,0,6.75c0,1.349,0.827,2.508,2,2.998V8.618c-0.602,-0.404,-1,-1.09,-1,-1.868c0,-1.017,0.686,-1.911,1.667,-2.173l0.322,-0.086l0.044,-0.331C3.275,2.358,4.83,1,6.65,1c1.451,0,2.765,0.86,3.346,2.191c0.202,0.462,0.304,0.953,0.304,1.459h1c0,-0.476,-0.071,-0.941,-0.212,-1.39c0.307,-0.107,0.629,-0.16,0.962,-0.16c1.627,0,2.95,1.323,2.95,2.95c0,0.879,-0.388,1.669,-1,2.21v1.223c1.193,-0.68,2,-1.964,2,-3.433C16,3.872,14.228,2.1,12.05,2.1z" fill="#0964B0"/>
    <path d="M9.887,11.487c0.426,0.614,0.273,1.456,-0.341,1.882s-1.456,0.273,-1.882,-0.341c-0.426,-0.614,-0.273,-1.456,0.341,-1.882S9.462,10.874,9.887,11.487zM5.813,14.313l1.852,-1.284" fill="#FFFFFF" stroke="#228BCB" stroke-width="1" stroke-miterlimit="1"/>
  </g>
</svg>
