<?xml version="1.0" encoding="UTF-8"?>
<!DOCTYPE svg PUBLIC "-//W3C//DTD SVG 1.1//EN" "http://www.w3.org/Graphics/SVG/1.1/DTD/svg11.dtd">
<svg version="1.1" id="Layer_1" xmlns="http://www.w3.org/2000/svg" xmlns:xlink="http://www.w3.org/1999/xlink" x="0px" y="0px" width="16px" height="16px" viewBox="0 0 16 16" enable-background="new 0 0 16 16" xml:space="preserve">
  <g id="icon">
    <path d="M12.05,2.6c-0.576,0,-1.118,0.142,-1.596,0.391C9.814,1.525,8.352,0.5,6.65,0.5C4.547,0.5,2.81,2.065,2.538,4.094C1.365,4.407,0.5,5.477,0.5,6.75c0,1.434,1.098,2.612,2.5,2.738c0,0,0.337,0,0.887,0.001c-0.142,-0.417,-0.217,-0.859,-0.217,-1.31C3.671,5.875,5.599,4,7.97,4s4.299,1.875,4.299,4.179c0,0.456,-0.076,0.901,-0.219,1.32C12.521,9.5,12.86,9.5,13,9.5c1.443,-0.413,2.5,-1.874,2.5,-3.45C15.5,4.145,13.955,2.6,12.05,2.6z" fill="#92CBEE"/>
    <path d="M12.05,2.1c-0.465,0,-0.928,0.083,-1.363,0.243C9.866,0.905,8.33,0,6.65,0C4.439,0,2.535,1.574,2.096,3.711C0.847,4.185,0,5.391,0,6.75c0,1.708,1.324,3.111,3,3.239V8.986c-1.123,-0.125,-2,-1.08,-2,-2.236c0,-1.017,0.686,-1.911,1.667,-2.173l0.322,-0.086l0.044,-0.331C3.275,2.358,4.83,1,6.65,1c1.451,0,2.765,0.86,3.346,2.191c0.202,0.462,0.304,0.953,0.304,1.459h1c0,-0.476,-0.071,-0.941,-0.212,-1.39c0.307,-0.107,0.629,-0.16,0.962,-0.16c1.627,0,2.95,1.323,2.95,2.95c0,1.294,-0.838,2.396,-2,2.792c0,0.314,0,0.67,0,1.042c1.721,-0.427,3,-1.983,3,-3.834C16,3.872,14.228,2.1,12.05,2.1z" fill="#0964B0"/>
    <path d="M10.769,8.179c0,1.48,-1.253,2.679,-2.799,2.679S5.171,9.659,5.171,8.179S6.424,5.5,7.97,5.5S10.769,6.699,10.769,8.179zM12.425,16.021c0,-2.608,-2.02,-5.1,-4.513,-5.1S3.4,13.413,3.4,16.021" fill="#FFFFFF" stroke="#228BCB" stroke-width="1" stroke-miterlimit="1"/>
  </g>
</svg>
