<?xml version="1.0" encoding="UTF-8"?>
<!DOCTYPE svg PUBLIC "-//W3C//DTD SVG 1.1//EN" "http://www.w3.org/Graphics/SVG/1.1/DTD/svg11.dtd">
<svg version="1.1" id="Layer_1" xmlns="http://www.w3.org/2000/svg" xmlns:xlink="http://www.w3.org/1999/xlink" x="0px" y="0px" width="16px" height="16px" viewBox="0 0 16 16" enable-background="new 0 0 16 16" xml:space="preserve">
  <g id="icon">
    <polygon points="1.375,15.328 0.668,14.622 5.293,10 2,10 2,9 7,9 7,14 6,14 6,10.707" fill="#383838" stroke-linejoin="miter"/>
    <polygon points="14.625,15.328 15.332,14.622 10.707,10 14,10 14,9 9,9 9,14 10,14 10,10.707" fill="#383838" stroke-linejoin="miter"/>
    <polygon points="1.375,0.672 0.668,1.378 5.293,6 2,6 2,7 7,7 7,2 6,2 6,5.293" fill="#383838" stroke-linejoin="miter"/>
    <polygon points="14.625,0.672 15.332,1.378 10.707,6 14,6 14,7 9,7 9,2 10,2 10,5.293" fill="#383838" stroke-linejoin="miter"/>
  </g>
</svg>
