<?xml version="1.0" encoding="UTF-8"?>
<!DOCTYPE svg PUBLIC "-//W3C//DTD SVG 1.1//EN" "http://www.w3.org/Graphics/SVG/1.1/DTD/svg11.dtd">
<svg version="1.1" id="Layer_1" xmlns="http://www.w3.org/2000/svg" xmlns:xlink="http://www.w3.org/1999/xlink" x="0px" y="0px" width="16px" height="16px" viewBox="0 0 16 16" enable-background="new 0 0 16 16" xml:space="preserve">
  <g id="icon">
    <polygon points="15.5,9.5 11.713,9.5 11,11.5 5,11.5 4.304,9.5 0.5,9.5 0.5,15.5 15.5,15.5" fill="#F7DA8E" stroke="#E57428" stroke-width="1" stroke-linecap="round" stroke-miterlimit="1" stroke-linejoin="miter"/>
    <path d="M11.708,7.502l-4.022,1.55c-0.466,0.18,-0.924,-0.277,-0.746,-0.744l1.538,-4.035L11.258,1.5H2.5v7h2.683l0.8,2H10l0.75,-2H13.5V5.716L11.708,7.502z" fill="#FFFFFF"/>
    <path d="M14,5.218V8.5h-1V6.215L14,5.218zM11.759,1H2v7.5h1V2h7.757L11.759,1z" fill="#383838"/>
    <path d="M9.766,5.108l4.441,-4.432c0.243,-0.243,0.637,-0.243,0.88,0l0.231,0.231c0.243,0.243,0.243,0.638,0,0.881l-4.444,4.428l-1.794,0.691L9.766,5.108z" fill="#92CBEE" stroke="#0964B0" stroke-width="1" stroke-linecap="round" stroke-miterlimit="1"/>
  </g>
</svg>
