<?xml version="1.0" encoding="UTF-8"?>
<!DOCTYPE svg PUBLIC "-//W3C//DTD SVG 1.1//EN" "http://www.w3.org/Graphics/SVG/1.1/DTD/svg11.dtd">
<svg version="1.1" id="Layer_1" xmlns="http://www.w3.org/2000/svg" xmlns:xlink="http://www.w3.org/1999/xlink" x="0px" y="0px" width="16px" height="16px" viewBox="0 0 16 16" enable-background="new 0 0 16 16" xml:space="preserve">
  <g id="icon">
    <polygon points="8,11.979 8,10.733 11.07,13.017 9.895,9.326 12.996,7.007 9.167,7.007 8,3.346 8,0.054 9.898,6.007 16.004,6.007 11.064,9.701 12.965,15.673" fill="#383838" stroke-linejoin="miter" opacity="0.2"/>
    <polygon points="1.5,6.507 6.468,6.507 8,1.7 8,11.356 3.983,14.345 5.521,9.514" fill="#FFFFFF" stroke-linejoin="miter"/>
    <polygon points="-0.004,6.007 6.102,6.007 8,0.054 8,3.346 6.833,7.007 3.004,7.007 6.105,9.326 4.93,13.017 8,10.733 8,11.979 3.035,15.673 4.936,9.701" fill="#ED8730" stroke-linejoin="miter"/>
  </g>
</svg>
