<?xml version="1.0" encoding="UTF-8"?>
<!DOCTYPE svg PUBLIC "-//W3C//DTD SVG 1.1//EN" "http://www.w3.org/Graphics/SVG/1.1/DTD/svg11.dtd">
<svg version="1.1" id="Layer_1" xmlns="http://www.w3.org/2000/svg" xmlns:xlink="http://www.w3.org/1999/xlink" x="0px" y="0px" width="16px" height="16px" viewBox="0 0 16 16" enable-background="new 0 0 16 16" xml:space="preserve">
  <g id="icon">
    <path d="M3.549,9c-0.156,-0.274,-0.626,-0.952,-0.807,-1.231c-0.737,-1.134,-1.616,-2.798,-1.616,-4.288c0,-0.923,0.32,-1.704,0.925,-2.258C2.556,0.762,3.224,0.487,4,0.418v0.003l0.42,-0.017C4.497,0.4,4.572,0.4,4.641,0.4c0.005,0,8.023,0,8.023,0c0.89,0,1.605,0.438,2.125,1.302c0.413,0.685,0.534,1.376,0.535,1.383c0.035,0.214,-0.077,0.411,-0.277,0.49c-0.043,0.017,-0.093,0.025,-0.148,0.025h-2.809l0.16,0.518c0.528,1.714,1.098,3.135,1.692,4.225c0.046,0.085,0.391,0.571,0.436,0.657H3.549z" fill="#FFFFFF"/>
    <path d="M15.718,3.019c-0.001,-0.008,-0.128,-0.763,-0.587,-1.524C14.542,0.517,13.688,0,12.663,0H4.655C4.577,0,4.49,0,4.4,0.004V0C3.351,0,2.445,0.321,1.781,0.929C1.091,1.561,0.726,2.443,0.726,3.481c0,1.588,0.914,3.327,1.68,4.506c0.229,0.353,0.431,0.69,0.608,1.013h1.127c-0.253,-0.509,-0.552,-1.028,-0.896,-1.558C2.265,5.936,1.726,4.53,1.726,3.481c0,-1.276,0.752,-2.17,1.968,-2.414c0.109,0.152,0.259,0.285,0.388,0.398c0.846,0.748,1.115,1.812,1.129,1.869c0.082,0.386,0.421,0.665,0.81,0.665h5.566c0.323,1.133,1.037,3.144,1.816,4.61c0.069,0.129,0.134,0.26,0.201,0.39h1.121c-0.14,-0.278,-0.279,-0.565,-0.433,-0.848c-0.768,-1.408,-1.333,-3.087,-1.661,-4.152h2.268c0.105,0,0.204,-0.018,0.293,-0.053C15.567,3.801,15.783,3.419,15.718,3.019zM6.183,3c-0.094,-0.327,-0.401,-1.227,-1.121,-2h7.629c1.381,0,1.89,1.478,2.026,2H6.183z" fill="#ED8730"/>
    <path d="M10.8,8H5.3V7h5.5V8zM9.8,5H4.3v1h5.5V5z" fill="#78797A"/>
    <path d="M5.034,16c-0.259,0,-0.531,-0.047,-0.808,-0.139l0.316,-0.949c0.356,0.118,0.672,0.11,0.919,0.013c0.113,-0.045,0.207,-0.11,0.288,-0.199c0.085,-0.095,0.154,-0.221,0.205,-0.374c0.056,-0.168,0.084,-0.376,0.084,-0.618V10h1v3.735c0,0.349,-0.045,0.663,-0.135,0.933c-0.095,0.285,-0.233,0.53,-0.411,0.727c-0.184,0.205,-0.408,0.36,-0.665,0.461C5.584,15.952,5.317,16,5.034,16zM11.742,13.297c0.121,0.21,0.182,0.463,0.182,0.751c0,0.266,-0.048,0.52,-0.142,0.755c-0.096,0.24,-0.238,0.452,-0.422,0.631c-0.182,0.178,-0.405,0.319,-0.663,0.418c-0.252,0.098,-0.537,0.147,-0.846,0.147c-0.208,0,-0.4,-0.019,-0.57,-0.056c-0.175,-0.038,-0.34,-0.094,-0.489,-0.167c-0.149,-0.073,-0.288,-0.162,-0.413,-0.267c-0.113,-0.094,-0.293,-0.271,-0.4,-0.395l0.756,-0.654c0.07,0.081,0.21,0.22,0.282,0.28c0.064,0.053,0.136,0.1,0.213,0.137c0.077,0.038,0.165,0.067,0.261,0.088c0.102,0.022,0.223,0.033,0.359,0.033c0.186,0,0.349,-0.027,0.485,-0.08c0.133,-0.051,0.239,-0.117,0.325,-0.201c0.085,-0.083,0.148,-0.177,0.193,-0.289c0.047,-0.117,0.07,-0.242,0.07,-0.382c0,-0.109,-0.017,-0.196,-0.049,-0.252c-0.042,-0.073,-0.095,-0.132,-0.164,-0.182c-0.086,-0.063,-0.189,-0.116,-0.305,-0.159c-0.154,-0.057,-0.313,-0.111,-0.471,-0.161c-0.172,-0.055,-0.342,-0.113,-0.507,-0.172c-0.202,-0.073,-0.386,-0.166,-0.546,-0.279c-0.181,-0.127,-0.33,-0.287,-0.443,-0.473c-0.124,-0.206,-0.187,-0.453,-0.187,-0.736c0,-0.215,0.042,-0.424,0.125,-0.622c0.084,-0.201,0.208,-0.379,0.368,-0.531c0.157,-0.148,0.349,-0.267,0.572,-0.353c0.219,-0.084,0.467,-0.127,0.738,-0.127c0.171,0,0.328,0.015,0.467,0.045c0.136,0.029,0.26,0.067,0.369,0.114c0.113,0.048,0.213,0.102,0.298,0.162c0.073,0.051,0.134,0.099,0.187,0.145c0.032,0.028,0.083,0.077,0.152,0.144c0.023,0.023,0.043,0.042,0.052,0.05l-0.677,0.736c-0.01,-0.009,-0.036,-0.034,-0.068,-0.065c-0.033,-0.032,-0.102,-0.098,-0.119,-0.113c-0.016,-0.014,-0.048,-0.04,-0.101,-0.078c-0.019,-0.013,-0.055,-0.035,-0.115,-0.061c-0.05,-0.021,-0.113,-0.04,-0.187,-0.056c-0.07,-0.015,-0.157,-0.023,-0.257,-0.023c-0.147,0,-0.274,0.02,-0.378,0.06c-0.1,0.039,-0.182,0.088,-0.244,0.146c-0.059,0.056,-0.103,0.119,-0.133,0.191c-0.032,0.076,-0.047,0.153,-0.047,0.235c0,0.097,0.015,0.173,0.044,0.22c0.041,0.068,0.094,0.124,0.161,0.171c0.087,0.061,0.192,0.114,0.31,0.156c0.154,0.055,0.313,0.109,0.474,0.161c0.171,0.055,0.343,0.114,0.51,0.175c0.204,0.075,0.389,0.173,0.551,0.291C11.483,12.939,11.631,13.104,11.742,13.297z" fill="#238BCB"/>
  </g>
</svg>
