<?xml version="1.0" encoding="UTF-8"?>
<!DOCTYPE svg PUBLIC "-//W3C//DTD SVG 1.1//EN" "http://www.w3.org/Graphics/SVG/1.1/DTD/svg11.dtd">
<svg version="1.1" id="Layer_1" xmlns="http://www.w3.org/2000/svg" xmlns:xlink="http://www.w3.org/1999/xlink" x="0px" y="0px" width="16px" height="16px" viewBox="0 0 16 16" enable-background="new 0 0 16 16" xml:space="preserve">
  <g id="icon">
    <rect x="0.5" y="4.5" width="15" height="11" fill="#FFFFFF" stroke="#383838" stroke-width="1" stroke-miterlimit="1"/>
    <path d="M0.5,0.5v4h15V0.5H0.5zM11,3H2V2h9V3zM14,3h-2V2h2V3z" fill="#92CBEE"/>
    <path d="M16,5H0V0h16V5zM1,4h14V1H1V4z" fill="#0964B0"/>
    <path d="M12,2h2v1h-2V2zM2,2h9v1H2V2z" fill="#FFFFFF"/>
    <rect x="2" y="6" width="12" height="2" fill="#78797A"/>
    <rect x="9.5" y="9.5" width="4" height="4" fill="#BEE2E5" stroke="#21B4C9" stroke-width="1" stroke-linecap="round" stroke-miterlimit="1"/>
    <path d="M2,9.5h6M2,11.5h6M2,13.5h6" fill="none" stroke="#787979" stroke-width="1" stroke-miterlimit="1"/>
  </g>
</svg>
