<?xml version="1.0" encoding="UTF-8"?>
<!DOCTYPE svg PUBLIC "-//W3C//DTD SVG 1.1//EN" "http://www.w3.org/Graphics/SVG/1.1/DTD/svg11.dtd">
<svg version="1.1" id="Layer_1" xmlns="http://www.w3.org/2000/svg" xmlns:xlink="http://www.w3.org/1999/xlink" x="0px" y="0px" width="24px" height="24px" viewBox="0 0 24 24" enable-background="new 0 0 24 24" xml:space="preserve">
  <g id="icon">
    <path d="M9.7573,21.4462c-0.5147,0.1569,-1.0494,0.2365,-1.591,0.2365c-0.5416,0,-1.0764,-0.0795,-1.591,-0.2365l-0.8639,1.6302c-0.0714,0.1348,-0.2366,0.1827,-0.3659,0.1062l-1.7762,-1.051c-0.1253,-0.0741,-0.1701,-0.2376,-0.1009,-0.3682l0.8704,-1.6424c-0.7925,-0.7682,-1.3409,-1.6731,-1.5914,-2.7549H1.0392c-0.1468,0,-0.2658,-0.1225,-0.2658,-0.2736v-2.1683c0,-0.1511,0.119,-0.2736,0.2658,-0.2736h1.7083c0.2505,-1.0818,0.7989,-2.0547,1.5914,-2.8228l-0.8661,-1.5882c-0.0713,-0.1308,-0.027,-0.2963,0.0993,-0.3711l1.7763,-1.051c0.1282,-0.0759,0.2919,-0.0294,0.3643,0.1033l0.8626,1.5818c0.5146,-0.1569,1.0494,-0.2365,1.591,-0.2365c0.5416,0,1.0764,0.0795,1.591,0.2365l0.9119,-1.59c0.074,-0.1291,0.2352,-0.1728,0.3614,-0.0981l1.7762,1.051c0.1283,0.0759,0.1717,0.2451,0.0964,0.3763l-0.9096,1.586c0.7925,0.7682,1.3409,1.741,1.5913,2.8228h1.7758c0.1468,0,0.2658,0.1225,0.2658,0.2736v2.1683c0,0.1511,-0.119,0.2736,-0.2658,0.2736H13.585c-0.2504,1.0818,-0.7988,1.9868,-1.5913,2.7549l0.9142,1.6402c0.073,0.131,0.0291,0.2981,-0.0981,0.3733l-1.7763,1.051c-0.1274,0.0754,-0.29,0.0301,-0.3631,-0.1011L9.7573,21.4462zM8.2001,12.9839c-1.6255,0,-2.948,1.3522,-2.948,3.0144s1.3225,3.0144,2.948,3.0144s2.948,-1.3522,2.948,-3.0144S9.8256,12.9839,8.2001,12.9839z" fill="#FFFFFF" opacity="0.5"/>
    <path d="M10.9027,24c-0.0912,0,-0.1824,-0.0122,-0.2713,-0.0365c-0.2716,-0.0738,-0.4973,-0.251,-0.6355,-0.4988l-0.6251,-1.1216c-0.394,0.0774,-0.7988,0.1167,-1.2045,0.1167c-0.4011,0,-0.8015,-0.0384,-1.1914,-0.1141l-0.581,1.0963c-0.1329,0.2509,-0.3645,0.4388,-0.6355,0.5156c-0.0904,0.0256,-0.1843,0.0386,-0.279,0.0386c-0.1854,0,-0.3674,-0.0496,-0.526,-0.1434l-1.7762,-1.051c-0.4846,-0.2867,-0.6564,-0.9035,-0.3911,-1.4041l0.6076,-1.1466c-0.5539,-0.6341,-0.9666,-1.3425,-1.2277,-2.1074H1.0392C0.4662,18.1437,0,17.6721,0,17.0925v-2.1684c0,-0.5797,0.4662,-1.0512,1.0392,-1.0512h1.1246c0.2672,-0.8003,0.6795,-1.5289,1.2264,-2.1672l-0.5956,-1.0923c-0.2745,-0.5033,-0.1053,-1.125,0.3851,-1.4152l1.7762,-1.051c0.1586,-0.0938,0.3405,-0.1434,0.5261,-0.1434c0.0926,0,0.1844,0.0124,0.2729,0.0369c0.2691,0.0745,0.5008,0.259,0.6357,0.5061l0.5767,1.0577c0.3922,-0.0768,0.7952,-0.1156,1.1989,-0.1156c0.4082,0,0.8155,0.0397,1.2118,0.1182l0.6212,-1.0829c0.1399,-0.2439,0.3655,-0.4177,0.6352,-0.4893c0.087,-0.0231,0.1762,-0.0348,0.2651,-0.0348c0.1827,0,0.3636,0.0499,0.5231,0.1442l1.7763,1.051c0.4928,0.2916,0.6606,0.9353,0.3741,1.435l-0.6225,1.0855c0.5428,0.636,0.9522,1.3611,1.2179,2.1572h1.1922c0.573,0,1.0392,0.4716,1.0392,1.0512v2.1684c0,0.5797,-0.4662,1.0512,-1.0392,1.0512h-1.1942c-0.2598,0.761,-0.6696,1.4661,-1.2193,2.0977l0.6352,1.1396c0.277,0.4971,0.1062,1.1358,-0.3806,1.4238l-1.7762,1.051C11.2662,23.9501,11.0854,24,10.9027,24zM11.0913,22.249l0.9039,-0.5348l-0.9679,-1.7366l0.4297,-0.4164c0.7165,-0.6946,1.1663,-1.4702,1.3748,-2.3714l0.1393,-0.6014h1.8823v-1.1603H12.971l-0.1393,-0.6014c-0.2161,-0.9335,-0.6915,-1.777,-1.3748,-2.4392l-0.4352,-0.4219l0.9653,-1.6831l-0.9041,-0.535l-0.9625,1.6782l-0.5876,-0.1792c-0.4397,-0.1341,-0.8994,-0.2021,-1.3666,-0.2021c-0.4672,0,-0.9269,0.068,-1.3666,0.2021l-0.6007,0.1831l-0.9127,-1.6734l-0.9035,0.5346l0.9184,1.6841l-0.4256,0.4125c-0.6833,0.6623,-1.1587,1.5058,-1.3749,2.4392l-0.1392,0.6013H1.5467v1.1603h1.8148l0.1392,0.6013c0.2086,0.9012,0.6583,1.6769,1.3749,2.3714l0.4203,0.4074l-0.9208,1.7376l0.9029,0.5343l0.9136,-1.7238l0.6081,0.1854c0.4397,0.1341,0.8995,0.2021,1.3666,0.2021c0.4671,0,0.9269,-0.068,1.3666,-0.2021l0.5951,-0.1814L11.0913,22.249z" fill="#9070B1"/>
    <path d="M8.2001,19.2669c-1.7686,0,-3.2076,-1.4663,-3.2076,-3.2687c0,-1.8024,1.4389,-3.2687,3.2076,-3.2687s3.2076,1.4663,3.2076,3.2687C11.4077,17.8006,9.9687,19.2669,8.2001,19.2669zM8.2001,13.7306c-1.216,0,-2.2053,1.0173,-2.2053,2.2676s0.9893,2.2676,2.2053,2.2676s2.2053,-1.0172,2.2053,-2.2676S9.4161,13.7306,8.2001,13.7306z" fill="#9070B1"/>
    <path d="M19.4538,9.879c-0.3588,0.1426,-0.7365,0.2311,-1.1238,0.263c-0.3873,0.032,-0.7744,0.0067,-1.1518,-0.0752l-0.5216,1.2168c-0.0431,0.1006,-0.1584,0.1446,-0.2554,0.0975l-1.3322,-0.6467c-0.094,-0.0456,-0.1356,-0.1599,-0.0939,-0.2574l0.5255,-1.2259C14.8886,8.7486,14.443,8.1338,14.2,7.3749l-1.2217,0.1008c-0.105,0.0087,-0.1973,-0.0719,-0.2063,-0.18l-0.128,-1.5507c-0.0089,-0.1081,0.069,-0.2027,0.174,-0.2113l1.2217,-0.1008c0.1153,-0.7884,0.45,-1.5165,0.9714,-2.1126l-0.7131,-1.0847c-0.0587,-0.0893,-0.0368,-0.2103,0.0491,-0.2712l1.2082,-0.8565c0.0872,-0.0618,0.207,-0.0383,0.2666,0.0524l0.7103,1.0803c0.3587,-0.1426,0.7365,-0.2311,1.1238,-0.263c0.3873,-0.032,0.7745,-0.0067,1.1518,0.0752l0.5583,-1.1909c0.0453,-0.0967,0.158,-0.1375,0.2527,-0.0915l1.3323,0.6468c0.0962,0.0467,0.1372,0.1651,0.0912,0.2634l-0.5569,1.1879c0.6121,0.5026,1.0617,1.1659,1.3046,1.9248l1.27,-0.1048c0.105,-0.0087,0.1973,0.0719,0.2063,0.18l0.128,1.5507c0.0089,0.1081,-0.069,0.2027,-0.174,0.2113l-1.27,0.1048c-0.1152,0.7884,-0.454,1.468,-0.9754,2.0641l0.7506,1.119c0.0599,0.0894,0.0384,0.2114,-0.0481,0.2728l-1.2082,0.8565c-0.0866,0.0614,-0.2056,0.0386,-0.2656,-0.0508L19.4538,9.879zM17.8408,3.9192c-1.1625,0.0959,-2.0284,1.141,-1.9303,2.3297c0.0981,1.1886,1.1237,2.0776,2.2861,1.9817c1.1625,-0.0959,2.0284,-1.141,1.9303,-2.3297C20.0288,4.7123,19.0032,3.8233,17.8408,3.9192z" fill="#FFFFFF" opacity="0.5"/>
    <path d="M20.4237,11.6378c-0.0652,0.0054,-0.1312,0.002,-0.1962,-0.0101c-0.1986,-0.0368,-0.3705,-0.1501,-0.4839,-0.3192l-0.5133,-0.7652c-0.2772,0.0786,-0.5643,0.1306,-0.8545,0.1545c-0.2868,0.0237,-0.5754,0.0199,-0.8587,-0.0113l-0.3508,0.8183c-0.0802,0.1872,-0.2348,0.3353,-0.4241,0.4062c-0.0632,0.0236,-0.1295,0.0385,-0.1972,0.0441c-0.1326,0.0109,-0.2656,-0.0138,-0.3846,-0.0715l-1.3323,-0.6467c-0.3635,-0.1765,-0.5228,-0.6074,-0.3626,-0.9811L14.8324,9.4c-0.4336,-0.4208,-0.7705,-0.903,-1.0023,-1.4346l-0.8057,0.0665c-0.4098,0.0338,-0.771,-0.2759,-0.8052,-0.6904l-0.128,-1.5507c-0.0342,-0.4145,0.2713,-0.7793,0.6811,-0.8131l0.8043,-0.0664c0.1438,-0.5881,0.3957,-1.1335,0.7492,-1.6222l-0.4904,-0.746c-0.226,-0.3437,-0.1417,-0.7983,0.1919,-1.0348l1.2082,-0.8565c0.1079,-0.0765,0.235,-0.1227,0.3677,-0.1336c0.0662,-0.0055,0.1326,-0.002,0.1974,0.0103c0.1969,0.0374,0.3735,0.1557,0.4845,0.3244l0.4749,0.7223c0.276,-0.078,0.5618,-0.1296,0.8505,-0.1534c0.2919,-0.0241,0.5855,-0.0197,0.8736,0.013l0.3803,-0.8111c0.0856,-0.1827,0.2367,-0.3203,0.4254,-0.3874c0.0609,-0.0217,0.124,-0.0353,0.1875,-0.0405c0.1307,-0.0108,0.263,0.0142,0.3826,0.0723l1.3324,0.6468c0.3696,0.1794,0.5276,0.6299,0.3522,1.0041l-0.3811,0.813c0.4257,0.4228,0.7613,0.9172,0.9983,1.4708l0.8526,-0.0704c0.4098,-0.0338,0.771,0.2759,0.8052,0.6904l0.128,1.5507c0.0342,0.4145,-0.2713,0.7793,-0.6811,0.8131l-0.854,0.0705c-0.1408,0.5596,-0.3923,1.088,-0.7482,1.5721l0.5215,0.7775c0.2274,0.3392,0.143,0.806,-0.1882,1.0407l-1.2082,0.8565C20.6807,11.5806,20.5543,11.627,20.4237,11.6378zM20.4552,10.3744l0.6148,-0.4358l-0.7947,-1.1848l0.2827,-0.3232c0.4714,-0.539,0.7473,-1.1203,0.8432,-1.777l0.0641,-0.4383l1.3461,-0.1111l-0.0685,-0.8298l-1.3461,0.1111l-0.1351,-0.4218c-0.2096,-0.6548,-0.5994,-1.2299,-1.1271,-1.6632l-0.3361,-0.2761l0.591,-1.2606l-0.6781,-0.3292l-0.5893,1.257l-0.4308,-0.0934c-0.3223,-0.0699,-0.6551,-0.0914,-0.9892,-0.0638c-0.3341,0.0276,-0.6589,0.1033,-0.9654,0.2252l-0.4188,0.1664l-0.7514,-1.1429l-0.6146,0.4356l0.7562,1.1501l-0.28,0.3201c-0.4496,0.514,-0.7398,1.1452,-0.8392,1.8255l-0.0641,0.4382L13.2269,6.06l0.0685,0.8298l1.2978,-0.1071l0.1351,0.4218c0.2024,0.6321,0.5698,1.1603,1.1232,1.6147l0.3246,0.2666l-0.5559,1.2969l0.6772,0.3288l0.5516,-1.2867l0.4458,0.0967c0.3224,0.0699,0.6552,0.0914,0.9892,0.0638c0.3341,-0.0276,0.6588,-0.1033,0.9654,-0.2252l0.4149,-0.1648L20.4552,10.3744z" fill="#7B7B7B"/>
    <path d="M18.2116,8.4125c-1.2648,0.1044,-2.3804,-0.8593,-2.4868,-2.1482c-0.1064,-1.2889,0.8361,-2.4225,2.1009,-2.5269c1.2648,-0.1044,2.3804,0.8593,2.4868,2.1482C20.4189,7.1745,19.4764,8.3081,18.2116,8.4125zM17.8848,4.4533c-0.8696,0.0718,-1.5171,0.8576,-1.4433,1.7518s0.8413,1.5632,1.711,1.4915c0.8696,-0.0718,1.5171,-0.8576,1.4433,-1.7518C19.522,5.0506,18.7545,4.3815,17.8848,4.4533z" fill="#7B7B7B"/>
  </g>
</svg>
