<?xml version="1.0" encoding="UTF-8"?>
<!DOCTYPE svg PUBLIC "-//W3C//DTD SVG 1.1//EN" "http://www.w3.org/Graphics/SVG/1.1/DTD/svg11.dtd">
<svg version="1.1" id="Layer_1" xmlns="http://www.w3.org/2000/svg" xmlns:xlink="http://www.w3.org/1999/xlink" x="0px" y="0px" width="24px" height="24px" viewBox="0 0 24 24" enable-background="new 0 0 24 24" xml:space="preserve">
  <g id="icon">
    <path d="M23.25,22.25H0.75v-17h22.5V22.25z" fill="#FFFFFF" opacity="0.5"/>
    <path d="M24,23H0V4.5h24V23zM2,21h20V6H2V21z" fill="#7B7B7B"/>
    <rect y="1" width="24" height="5" fill="#EEAC55"/>
    <path d="M15,9H4V8h11V9zM20,10H6v1h14V10zM20,12H6v1h14V12zM17,14H6v1h11V14zM16,16H6v1h10V16zM13.5,18H4v1h9.5V18z" fill="#6485C3"/>
  </g>
</svg>
