<?xml version="1.0" encoding="UTF-8"?>
<!DOCTYPE svg PUBLIC "-//W3C//DTD SVG 1.1//EN" "http://www.w3.org/Graphics/SVG/1.1/DTD/svg11.dtd">
<svg version="1.1" id="Layer_1" xmlns="http://www.w3.org/2000/svg" xmlns:xlink="http://www.w3.org/1999/xlink" x="0px" y="0px" width="24px" height="24px" viewBox="0 0 24 24" enable-background="new 0 0 24 24" xml:space="preserve">
  <g id="icon">
    <path d="M3,0v5h21V0H3z" fill="#52B4C0"/>
    <path d="M5,5v3.3757C5.7908,8.1319,6.6302,8,7.5,8c4.6869,0,8.5,3.8131,8.5,8.5c0,0.512,-0.0481,1.0127,-0.1352,1.5H22V5H5z" fill="#FFFFFF" opacity="0.5"/>
    <path d="M7,8V7h5v1H7zM15,7v1h5V7H15zM11.4948,9c0.1722,0.0921,0.3403,0.1905,0.5052,0.2938V9H11.4948zM15.9841,16H20v-1h-4.1352C15.9233,15.3275,15.9643,15.6608,15.9841,16zM15.6243,14H20v-1h-4.7571C15.3896,13.3234,15.5184,13.6566,15.6243,14zM15,10h5V9h-5V10zM15,12h5v-1h-5V12z" fill="#B7B7B7"/>
    <path d="M24,5v15h-8.7571c0.2858,-0.6298,0.4967,-1.3,0.6219,-2H22V5H24zM5,8.3757V5H3v4.2938C3.6183,8.9062,4.289,8.595,5,8.3757z" fill="#7B7B7B"/>
    <circle cx="7.55" cy="16.45" r="6.55" fill="#FFFFFF" opacity="0.5"/>
    <path d="M7.3394,23.6047c-1.8089,-1.0185,-3.0241,-4.4958,-3.0241,-7.1045c0,-2.5295,1.2636,-6.0931,3.0768,-7.1623l0.0654,0.429l0.0654,-0.429c1.8494,1.0906,3.1382,4.65,3.1382,7.1623c0,2.5293,-1.2815,6.0691,-3.1204,7.1045l-0.1007,-0.5118L7.3394,23.6047zM7.4584,10.3306c-1.247,0.9869,-2.367,3.8489,-2.367,6.1695c0,2.4146,1.0976,5.2416,2.3491,6.1465c1.281,-0.9198,2.4447,-3.7997,2.4447,-6.1465C9.8852,14.1946,8.7363,11.3301,7.4584,10.3306z" fill="#6485C3"/>
    <path d="M13.9565,14.8696H1.2391v-0.7826h12.7174V14.8696zM13.8261,18.1304H1.1739v0.7826h12.6522V18.1304z" fill="#6485C3"/>
    <path d="M7.5,24c-4.1355,0,-7.5,-3.3645,-7.5,-7.5s3.3645,-7.5,7.5,-7.5s7.5,3.3645,7.5,7.5S11.6355,24,7.5,24zM7.5,10.6937c-3.2016,0,-5.8063,2.6047,-5.8063,5.8063S4.2984,22.3063,7.5,22.3063s5.8063,-2.6047,5.8063,-5.8063S10.7016,10.6937,7.5,10.6937z" fill="#6485C3"/>
  </g>
</svg>
