<?xml version="1.0" encoding="UTF-8"?>
<!DOCTYPE svg PUBLIC "-//W3C//DTD SVG 1.1//EN" "http://www.w3.org/Graphics/SVG/1.1/DTD/svg11.dtd">
<svg version="1.1" id="Layer_1" xmlns="http://www.w3.org/2000/svg" xmlns:xlink="http://www.w3.org/1999/xlink" x="0px" y="0px" width="24px" height="24px" viewBox="0 0 24 24" enable-background="new 0 0 24 24" xml:space="preserve">
  <g id="icon">
    <path d="M23.3425,4.3936l-3.3466,3.3466c-1.1135,1.1135,-2.8526,1.1799,-3.8843,0.1482v0c-1.0317,-1.0317,-0.9654,-2.7708,0.1482,-3.8843l3.3466,-3.3466c-2.1554,-1.0263,-4.8526,-0.6271,-6.7585,1.2789s-2.3861,4.6841,-1.3598,6.8395L0.9806,19.2833c-1.1135,1.1135,-1.1799,2.8526,-0.1482,3.8843l0,0c1.0317,1.0317,2.7708,0.9654,3.8843,-0.1482l10.5075,-10.5075c2.1554,1.0263,4.9335,0.5461,6.8395,-1.3598C23.9696,9.2461,24.3688,6.549,23.3425,4.3936zM2.8,22.1c-0.4971,0,-0.9,-0.4029,-0.9,-0.9c0,-0.4971,0.4029,-0.9,0.9,-0.9s0.9,0.4029,0.9,0.9C3.7,21.6971,3.2971,22.1,2.8,22.1z" fill="#6485C3"/>
  </g>
</svg>
