<?xml version="1.0" encoding="UTF-8"?>
<!DOCTYPE svg PUBLIC "-//W3C//DTD SVG 1.1//EN" "http://www.w3.org/Graphics/SVG/1.1/DTD/svg11.dtd">
<svg version="1.1" id="Layer_1" xmlns="http://www.w3.org/2000/svg" xmlns:xlink="http://www.w3.org/1999/xlink" x="0px" y="0px" width="32px" height="32px" viewBox="0 0 32 32" enable-background="new 0 0 32 32" xml:space="preserve">
  <g id="icon">
    <rect x="11.5" y="26.5" width="9" height="4" fill="#FFFFFF" stroke="#383838" stroke-width="1" stroke-miterlimit="1"/>
    <path d="M1,28.5h10.5M20.5,28.5h10.5M16,26.5v-3.5" fill="#FFFFFF" stroke="#383838" stroke-width="1" stroke-miterlimit="1"/>
    <rect x="2.5" y="6.5" width="27" height="16" fill="#FFFFFF" stroke="#383838" stroke-width="1" stroke-miterlimit="1"/>
    <rect x="2.5" y="1.5" width="27" height="5" fill="#C8C6C4" stroke="#383838" stroke-width="1" stroke-linecap="round" stroke-miterlimit="1"/>
    <path d="M27,19h-6v-1h6V19zM19,19h-6v-1h6V19zM11,19H5v-1h6V19zM27,16h-6v-1h6V16zM19,16h-6v-1h6V16zM11,16H5v-1h6V16zM27,13h-6v-1h6V13zM19,13h-6v-1h6V13zM11,13H5v-1h6V13zM27,10h-6V9h6V10zM19,10h-6V9h6V10zM11,10H5V9h6V10z" fill="#787979"/>
  </g>
</svg>
