<?xml version="1.0" encoding="UTF-8"?>
<!DOCTYPE svg PUBLIC "-//W3C//DTD SVG 1.1//EN" "http://www.w3.org/Graphics/SVG/1.1/DTD/svg11.dtd">
<svg version="1.1" id="Layer_1" xmlns="http://www.w3.org/2000/svg" xmlns:xlink="http://www.w3.org/1999/xlink" x="0px" y="0px" width="32px" height="32px" viewBox="0 0 32 32" enable-background="new 0 0 32 32" xml:space="preserve">
  <g id="icon">
    <rect x="1.5" y="14.5" width="23" height="16" fill="#FFFFFF" stroke="#383838" stroke-width="1" stroke-miterlimit="1"/>
    <rect x="1.5" y="9.5" width="23" height="5" fill="#ACD8B1" stroke="#0BA04A" stroke-width="1" stroke-linecap="round" stroke-miterlimit="1"/>
    <polygon points="7.5,6.5 7.5,8 26,8 26,22.5 30.5,22.5 30.5,6.5" fill="#FFFFFF" stroke-linejoin="miter"/>
    <polygon points="7,6 7,8 8,8 8,7 30,7 30,22 26,22 26,23 31,23 31,6" fill="#383838" stroke-linejoin="miter"/>
    <rect x="7.5" y="1.5" width="23" height="5" fill="#ACD8B1" stroke="#0BA04A" stroke-width="1" stroke-linecap="round" stroke-miterlimit="1"/>
    <path d="M13.948,25.286c-2.348,0,-4.251,-1.902,-4.251,-4.249s1.903,-4.249,4.251,-4.249s4.251,1.902,4.251,4.249S16.296,25.286,13.948,25.286zM6.528,28.461l4.386,-4.386" fill="#FFFFFF" stroke="#228BCB" stroke-width="1.2" stroke-miterlimit="1"/>
  </g>
</svg>
