<?xml version="1.0" encoding="UTF-8"?>
<!DOCTYPE svg PUBLIC "-//W3C//DTD SVG 1.1//EN" "http://www.w3.org/Graphics/SVG/1.1/DTD/svg11.dtd">
<svg version="1.1" id="Layer_1" xmlns="http://www.w3.org/2000/svg" xmlns:xlink="http://www.w3.org/1999/xlink" x="0px" y="0px" width="32px" height="32px" viewBox="0 0 32 32" enable-background="new 0 0 32 32" xml:space="preserve">
  <g id="icon">
    <path d="M1.5,3.5v25h7v-2H7.5c-0.552,0,-1,-0.448,-1,-1v0c0,-0.552,0.448,-1,1,-1h4c0.552,0,1,0.448,1,1v0c0,0.552,-0.448,1,-1,1h-1v2h11v-2h-1c-0.552,0,-1,-0.448,-1,-1v0c0,-0.552,0.448,-1,1,-1h4c0.552,0,1,0.448,1,1v0c0,0.552,-0.448,1,-1,1h-1v2h7V3.5H1.5z" fill="#FFFFFF" stroke="#383838" stroke-width="1" stroke-miterlimit="1"/>
    <path d="M11.516,6.5c-2.273,0,-4.116,1.855,-4.116,4.144s1.843,4.144,4.116,4.144s4.116,-1.855,4.116,-4.144S13.789,6.5,11.516,6.5zM17.499,22c0,-3.432,-2.568,-7.233,-5.983,-7.233S5.533,18.568,5.533,22" fill="#FFFFFF" stroke="#228BCB" stroke-width="1.1" stroke-miterlimit="1"/>
    <path d="M20,9.5h8M20,12.5h8M20,15.5h8M20,18.5h8" fill="none" stroke="#787979" stroke-width="1" stroke-miterlimit="1"/>
  </g>
</svg>
