<?xml version="1.0" encoding="UTF-8"?>
<!DOCTYPE svg PUBLIC "-//W3C//DTD SVG 1.1//EN" "http://www.w3.org/Graphics/SVG/1.1/DTD/svg11.dtd">
<svg version="1.1" id="Layer_1" xmlns="http://www.w3.org/2000/svg" xmlns:xlink="http://www.w3.org/1999/xlink" x="0px" y="0px" width="32px" height="32px" viewBox="0 0 32 32" enable-background="new 0 0 32 32" xml:space="preserve">
  <g id="icon">
    <rect x="1.5" y="7.5" width="28" height="22" fill="#FFFFFF" opacity="0.3"/>
    <path d="M24,30h-3v-1h3V30zM2,16H1v3h1V16zM2,12H1v3h1V12zM2,8H1v3h1V8zM20,29h-3v1h3V29zM12,29H9v1h3V29zM5,30h3v-1H5V30zM16,29h-3v1h3V29zM27,29h-2v1h2V29zM29,23h1v-3h-1V23zM29,19h1v-3h-1V19zM2,20H1v3h1V20zM29,8v3h1V8H29zM29,15h1v-3h-1V15zM29,27h1v-3h-1V27zM2,24H1v3h1V24zM4,29H2v-1H1v2h3V29zM29,29h-1v1h2v-2h-1V29z" fill="#383838"/>
    <rect x="1.5" y="3.5" width="28" height="6" fill="#92CBEE" stroke="#0964B0" stroke-width="1" stroke-linecap="round" stroke-miterlimit="1"/>
    <path d="M2,14.5h27M2,19.5h27M2,24.5h27M8.5,10v19M15.5,10v19M22.5,10v19" fill="none" stroke="#787979" stroke-width="1" stroke-miterlimit="1" opacity="0.3"/>
  </g>
</svg>
