<?xml version="1.0" encoding="UTF-8"?>
<!DOCTYPE svg PUBLIC "-//W3C//DTD SVG 1.1//EN" "http://www.w3.org/Graphics/SVG/1.1/DTD/svg11.dtd">
<svg version="1.1" id="Layer_1" xmlns="http://www.w3.org/2000/svg" xmlns:xlink="http://www.w3.org/1999/xlink" x="0px" y="0px" width="32px" height="32px" viewBox="0 0 32 32" enable-background="new 0 0 32 32" xml:space="preserve">
  <g id="icon">
    <path d="M12.636,24.793c-0.405,0.391,-0.554,0.447,-0.959,0.77c-0.457,0.364,-0.942,0.673,-1.453,0.929c-0.512,0.256,-1.061,0.453,-1.649,0.591s-1.241,0.208,-1.959,0.208c-0.479,0,-0.963,-0.069,-1.453,-0.207c-0.49,-0.138,-0.931,-0.358,-1.323,-0.66c-0.392,-0.302,-0.713,-0.691,-0.963,-1.167C2.625,24.78,2.5,24.199,2.5,23.513c0,-0.676,0.212,-1.281,0.637,-1.819c0.425,-0.537,1.069,-0.993,1.935,-1.372c0.865,-0.379,1.96,-0.672,3.282,-0.893c1.284,-0.214,2.646,-0.331,4.387,-0.375M12.768,27.392v-10.3c0,-0.829,-0.04,-1.574,-0.216,-2.235c-0.176,-0.66,-0.426,-1.221,-0.799,-1.682c-0.373,-0.461,-0.829,-0.814,-1.393,-1.06c-0.564,-0.246,-1.228,-0.369,-2.004,-0.369c-1.056,0,-1.979,0.205,-2.776,0.614c-0.797,0.41,-1.583,0.984,-2.328,1.762" fill="none" stroke="#383838" stroke-width="1.2" stroke-miterlimit="1"/>
    <path d="M29.028,25.336c-0.176,0.215,-0.396,0.438,-0.742,0.668c-0.347,0.23,-0.755,0.443,-1.226,0.637c-0.471,0.195,-0.986,0.353,-1.544,0.476c-0.559,0.123,-1.133,0.184,-1.723,0.184c-1.045,0,-1.982,-0.182,-2.81,-0.545c-0.828,-0.363,-1.529,-0.888,-2.103,-1.574c-0.574,-0.686,-1.017,-1.525,-1.327,-2.519c-0.311,-0.993,-0.466,-2.221,-0.466,-3.481c0,-1.106,0.15,-2.015,0.45,-2.931c0.3,-0.916,0.735,-1.702,1.304,-2.358c0.569,-0.655,1.265,-1.165,2.088,-1.528c0.823,-0.363,1.756,-0.545,2.802,-0.545c0.797,0,1.547,0.141,2.251,0.422c0.704,0.282,1.317,0.699,1.839,1.252c0.522,0.553,0.83,1.231,1.13,2.035c0.3,0.804,0.45,1.424,0.45,2.469l-12.147,0.006" fill="none" stroke="#383838" stroke-width="1.2" stroke-miterlimit="1"/>
    <line x1="4.424" y1="7.575" x2="5.467" y2="7.575" fill="none" stroke="#383838" stroke-width="1.2" stroke-miterlimit="1"/>
    <line x1="9.639" y1="7.575" x2="10.682" y2="7.575" fill="none" stroke="#383838" stroke-width="1.2" stroke-miterlimit="1"/>
    <polyline points="19.849,7.937 23.605,4.134 27.361,7.937" fill="none" stroke="#383838" stroke-width="1.2" stroke-miterlimit="1" stroke-linejoin="miter"/>
  </g>
</svg>
