<?xml version="1.0" standalone="no"?>
<!DOCTYPE svg PUBLIC "-//W3C//DTD SVG 1.1//EN" "http://www.w3.org/Graphics/SVG/1.1/DTD/svg11.dtd" >
<!--
2021-11-26: Created with FontForge (http://fontforge.org)
-->
<svg xmlns="http://www.w3.org/2000/svg" xmlns:xlink="http://www.w3.org/1999/xlink" version="1.1">
<metadata>
Created by FontForge 20201107 at Fri Nov 26 14:24:03 2021
 By Marc
Copyright (c) 2021, Marc
</metadata>
<defs>
<font id="Icons-Regular" horiz-adv-x="240" >
  <font-face 
    font-family="Icons"
    font-weight="400"
    font-stretch="normal"
    units-per-em="240"
    panose-1="2 0 5 9 0 0 0 0 0 0"
    ascent="180"
    descent="-60"
    bbox="-0.262695 -61.5 240.375 180.156"
    underline-thickness="50"
    underline-position="-100"
    unicode-range="U+E000-E10F"
  />
    <missing-glyph />
    <glyph glyph-name="uniE000" unicode="&#xe000;" 
d="M31.1143 82.4941l66.0703 66.0703l37.9385 -37.9375l-20.6266 -20.627h27.6091l35.2441 35.2441l31.2979 -31.2959l-46.0508 -45.4785l-24.9732 26.5303h-17.6234v-60h27.5921l29.7575 29.7568l31.2617 -31.2617l-44.9961 -44.9951l-31.2617 31.2617l0.238286 0.238281
l-27.5918 6.7085e-18v75h-5.50338l-30.4439 -30.4443zM15 150v-30h-15v30h15zM15 105v-30h-15v30h15zM15 60v-30h-15v30h15zM15 15v-30h-15v30h15zM15 -30v-30h-15v30h15zM240 180v-30h-15v30h15zM240 135v-30h-15v30h15zM240 90v-30h-15v30h15zM240 45v-30h-15v30h15z
M240 0v-30h-15v30h15zM240 -60h-30v15h30v-15zM195 -60h-30v15h30v-15zM150 -60h-30v15h30v-15zM105 -60h-30v15h30v-15zM60 -60h-30v15h30v-15zM210 165h-30v15h30v-15zM165 165h-30v15h30v-15zM120 165h-30v15h30v-15zM75 165h-30v15h30v-15zM30 165h-30v15h30v-15z" />
    <glyph glyph-name="uniE001" unicode="&#xe001;" 
d="M69.0527 67.3213l43.3047 43.3057l-15.1729 15.1719l-43.3047 -43.3047zM31.1143 82.4941l66.0703 66.0703l37.9385 -37.9375l-20.6266 -20.627h27.6091l35.2441 35.2441l31.2979 -31.2959l-46.0508 -45.4785l-24.9732 26.5303h-17.6234v-60h27.5921l29.7575 29.7568
l31.2617 -31.2617l-44.9961 -44.9951l-31.2617 31.2617l0.238286 0.238281l-27.5918 6.7085e-18v75h-5.50338l-30.4439 -30.4443zM163.017 71.5098l22.793 22.5088l-8.45996 8.45996l-22.3994 -22.3994zM163.615 -8.73438l22.2305 22.2295l-8.49609 8.49609
l-22.2305 -22.2295zM15 150v-30h-15v30h15zM15 105v-30h-15v30h15zM15 60v-30h-15v30h15zM15 15v-30h-15v30h15zM15 -30v-30h-15v30h15zM240 180v-30h-15v30h15zM240 135v-30h-15v30h15zM240 90v-30h-15v30h15zM240 45v-30h-15v30h15zM240 0v-30h-15v30h15zM240 -60h-30v15
h30v-15zM195 -60h-30v15h30v-15zM150 -60h-30v15h30v-15zM105 -60h-30v15h30v-15zM60 -60h-30v15h30v-15zM210 165h-30v15h30v-15zM165 165h-30v15h30v-15zM120 165h-30v15h30v-15zM75 165h-30v15h30v-15zM30 165h-30v15h30v-15z" />
    <glyph glyph-name="uniE002" unicode="&#xe002;" 
d="M151.999 127.608c6.92578 0 12.54 5.62598 12.54 12.5654c0 6.93848 -5.61426 12.5654 -12.54 12.5654c-6.9248 0 -12.5391 -5.625 -12.5391 -12.5654c0 -6.93945 5.61426 -12.5654 12.5391 -12.5654zM39.9912 15.3643c6.92578 0 12.54 5.625 12.54 12.5654
c0 6.93945 -5.61426 12.5654 -12.54 12.5654c-6.9248 0 -12.54 -5.625 -12.54 -12.5654c0 -6.93848 5.61523 -12.5654 12.54 -12.5654zM169.601 90h70.4014v-150h-150v70.1729s-2.26855 1.57031 -3.13379 1.82715h-7.69531
c-1.21484 -0.256836 -2.32617 -0.943359 -2.86914 -2.03223c-6.45312 -12.9502 -19.8271 -22.6367 -35.2881 -22.6367c-22.293 0 -40.2607 18.4961 -39.375 40.9678c0.799805 20.2803 17.2441 36.8174 37.5352 37.7402c16.252 0.738281 30.4512 -7.58105 37.1504 -21.0664
c0.527344 -1.06348 1.61719 -1.72949 2.80176 -1.47266h9.31055c0.865234 -0.256836 1.56152 1.31445 1.56152 1.31445v45.1855h44.8965c0.884766 0 1.60352 0.71875 1.60352 1.60352v9.41406c0 1.2041 -0.651367 2.33887 -1.72754 2.87988
c-12.9756 6.53516 -21.8975 20.1152 -21.8975 35.8174c0 22.6123 18.4961 40.8389 40.9697 39.9404c20.2793 -0.811523 36.8174 -17.4922 37.7402 -38.0732c0.737305 -16.4658 -8.34668 -30.8516 -21.8047 -37.6572c-1.07422 -0.542969 -1.78027 -1.61133 -1.78027 -2.81445
v-9.50977c0 -0.883789 0.716797 -1.60059 1.60059 -1.60059z" />
    <glyph glyph-name="uniE003" unicode="&#xe003;" 
d="M135.856 177.249l104.144 -57.5869v-120.856l-103.401 -57.8652l-34.8447 18.5449l7.77148 4.3584l25.4746 14.291v87.3721l-74.9492 41.542l-15.0508 -8.3291l-15 -8.30078v29.2793zM120 -13.0811l-59.5244 -33.3916l-60.4756 32.7578v70.3896l60.0449 33.2275
l59.9551 -33.2324v-69.751z" />
    <glyph glyph-name="uniE004" unicode="&#xe004;" 
d="M135.856 177.249l104.144 -57.5869v-120.856l-103.401 -57.8652l-34.8447 18.5449l15.543 8.71777l19.1221 -10.1748l88.5811 49.5723v103.217l-89.2051 49.3252l-90.7949 -49.3613v-12.0615l-15 -8.30078v29.2793zM15 -4.78027l45.3477 -24.5625l44.6523 25.0469
v52.1309l-44.9609 24.9199l-45.0391 -24.9248v-52.6104zM60.4756 -46.4717l-60.4756 32.7568v70.3896l60.0449 33.2275l59.9551 -33.2324v-69.751z" />
    <glyph glyph-name="uniE005" unicode="&#xe005;" 
d="M150.005 139.011c-2.34668 0 -4.25586 -1.9082 -4.25586 -4.25488c0 -2.34766 1.90918 -4.25586 4.25586 -4.25586c2.3457 0 4.25391 1.9082 4.25391 4.25586c0 2.34668 -1.9082 4.25488 -4.25391 4.25488zM150.005 115.5c-10.6172 0 -19.2559 8.63867 -19.2559 19.2559
c0 10.6162 8.63867 19.2549 19.2559 19.2549c10.6162 0 19.2539 -8.63867 19.2539 -19.2549c0 -10.6172 -8.63574 -19.2559 -19.2539 -19.2559zM45.0049 34.0107c-2.34668 0 -4.25586 -1.9082 -4.25586 -4.25488c0 -2.34766 1.90918 -4.25586 4.25586 -4.25586
c2.3457 0 4.25391 1.9082 4.25391 4.25586c0 2.34668 -1.9082 4.25488 -4.25391 4.25488zM45.0049 10.5c-10.6172 0 -19.2559 8.63867 -19.2559 19.2559c0 10.6162 8.63867 19.2549 19.2559 19.2549c10.6162 0 19.2539 -8.63867 19.2539 -19.2549
c0 -10.6172 -8.63574 -19.2559 -19.2539 -19.2559zM105 -45h120v120h-58.5c-4.96387 0 -9 4.03613 -9 9v14.4775c0 3.99219 2.24707 7.58398 5.8623 9.37891c10.626 5.27832 17.1465 16.335 16.6064 28.167c-0.701172 15.3535 -13.3281 27.8564 -28.7461 28.4639
c-8.27441 0.323242 -16.1084 -2.6416 -22.0518 -8.35547c-5.91406 -5.68652 -9.1709 -13.3262 -9.1709 -21.5127c0 -11.4346 6.39453 -21.6992 16.6895 -26.7871c3.5293 -1.74414 5.81055 -5.44531 5.81055 -9.42578v-14.4062c0 -4.96387 -4.03613 -9 -9 -9h-28.5v-30.3418
l-0.646484 -1.45508c-1.71777 -3.86133 -5.21973 -6.03809 -8.87598 -5.70312h-13.4619c-4.04883 -0.415039 -8.01758 1.7666 -9.90625 5.56152c-5.16406 10.374 -16.0498 16.46 -28.4023 15.9111c-15.4648 -0.700195 -28.0576 -13.3281 -28.668 -28.748
c-0.325195 -8.2334 2.63379 -16.0342 8.33691 -21.9668c5.73633 -5.96777 13.46 -9.25391 21.748 -9.25391c11.1016 0 21.6875 6.83398 26.9688 17.4092c1.51074 3.02344 4.39062 5.18262 7.90039 5.92383l0.765625 0.161133h14.8389l1.04395 -0.308594
c0.539062 -0.15918 1.97266 -0.584961 5.12305 -2.75977l3.23535 -2.23535v-62.1943zM240 -60h-150v67.5h-5.66895c-8.14453 -14.3506 -23.2764 -23.4941 -39.208 -23.4941c-12.4082 0 -23.9727 4.9209 -32.5625 13.8584c-8.55566 8.90039 -12.999 20.6055 -12.5098 32.9551
c0.915039 23.1387 19.793 42.0869 42.9766 43.1377c17.2773 0.793945 32.708 -7.37207 41.0146 -21.457h5.95801v37.5h37.5v5.74219c-13.9502 8.01465 -22.5 22.6602 -22.5 38.877c0 12.3047 4.89258 23.7852 13.7764 32.3262
c8.91113 8.56641 20.6543 13.0049 33.0352 12.5293c23.1377 -0.908203 42.0879 -19.6943 43.1406 -42.7676c0.767578 -16.8301 -7.96973 -32.6133 -22.4521 -40.9639v-5.74316h67.5v-150z" />
    <glyph glyph-name="uniE006" unicode="&#xe006;" 
d="M150 -15v15h-60v-15h60zM45.0537 -10.3398l41.1963 41.1963l-41.1973 41.1963l-10.6064 -10.6064l30.5908 -30.5898l-30.5898 -30.5898zM225 105h15v-150h-240v150h225zM225 135v15h-15v-15h15zM195 135v15h-15v-15h15zM165 135v15h-15v-15h15zM0 165h240v-45h-240v45z
" />
    <glyph glyph-name="uniE007" unicode="&#xe007;" 
d="M45.0537 -10.3398l-10.6064 10.6064l30.5898 30.5898l-30.5908 30.5898l10.6064 10.6064l41.1973 -41.1963zM150 -15h-60v15h60v-15zM225 135v15h-15v-15h15zM195 135v15h-15v-15h15zM165 135v15h-15v-15h15zM0 165h240v-45v-165h-240v165v45zM15 120v-150h210v150h-210z
" />
    <glyph glyph-name="uniE008" unicode="&#xe008;" 
d="M225 135v15h-15v-15h15zM195 135v15h-15v-15h15zM165 135v15h-15v-15h15zM0 165h240v-45v-165h-240v165v45zM15 120v-150h210v150h-210z" />
    <glyph glyph-name="uniE009" unicode="&#xe009;" 
d="M225 105h15v-150h-240v150h225zM225 135v15h-15v-15h15zM195 135v15h-15v-15h15zM165 135v15h-15v-15h15zM0 165h240v-45h-240v45z" />
    <glyph glyph-name="uniE00A" unicode="&#xe00a;" 
d="M82.5 9c7.45605 0 13.5 6.04395 13.5 13.5s-6.04395 13.5 -13.5 13.5s-13.5 -6.04395 -13.5 -13.5s6.04395 -13.5 13.5 -13.5zM82.5 45.75c12.8203 0 23.25 -10.4297 23.25 -23.25s-10.4297 -23.25 -23.25 -23.25s-23.25 10.4297 -23.25 23.25s10.4297 23.25 23.25 23.25
zM127.662 35.6592l13.333 6.30957l-3.1543 6.66602c-6.04785 12.7832 -16.4199 23.1523 -29.2051 29.1992l-6.66699 3.15234l-6.30664 -13.335l6.66797 -3.15332c9.70801 -4.58984 17.584 -12.4648 22.1777 -22.1709zM82.5 -8.25c16.9561 0 30.75 13.7939 30.75 30.75
s-13.7939 30.75 -30.75 30.75s-30.75 -13.7939 -30.75 -30.75s13.7939 -30.75 30.75 -30.75zM63.0312 -36l6.30469 13.334l-6.66602 3.15234c-9.71289 4.59277 -17.5889 12.4697 -22.1816 22.1826l-3.15137 6.66699l-13.335 -6.30469l3.15234 -6.66699
c6.04785 -12.7881 16.4209 -23.1621 29.2109 -29.2109zM82.5 105c45.5645 0 82.5 -36.9355 82.5 -82.5s-36.9355 -82.5 -82.5 -82.5s-82.5 36.9355 -82.5 82.5s36.9355 82.5 82.5 82.5zM225 120h15v-150h-75.4062c9.7334 15.168 15.4062 33.1787 15.4062 52.5
c0 46.0166 -32.0537 84.6631 -75 94.8506v2.64941h120zM225 150v15h-15v-15h15zM195 150v15h-15v-15h15zM165 150v15h-15v-15h15zM30 180h210v-45h-210v45zM82.5 120c-19.3213 0 -37.332 -5.67285 -52.5 -15.4062v15.4062h15h37.5zM82.5 120h7.5v-0.316406
c-2.47754 0.188477 -4.97363 0.316406 -7.5 0.316406z" />
    <glyph glyph-name="uniE00B" unicode="&#xe00b;" 
d="M119.423 31.6309l-3.20703 6.7793c-3.6875 7.79004 -10.0088 14.1113 -17.8008 17.7959l-6.78027 3.20703l6.41309 13.5605l6.7793 -3.20703c10.9219 -5.16504 19.7812 -14.0225 24.9473 -24.9404l3.20801 -6.78027zM66.9541 -27.9873l-6.78027 3.20703
c-10.9248 5.16602 -19.7852 14.0283 -24.9512 24.9531l-3.20703 6.7793l13.5615 6.41309l3.20605 -6.78125c3.68555 -7.79492 10.0078 -14.1182 17.8037 -17.8037l6.7793 -3.20703zM82.5 30c-4.13574 0 -7.5 -3.36426 -7.5 -7.5s3.36426 -7.5 7.5 -7.5s7.5 3.36426 7.5 7.5
s-3.36426 7.5 -7.5 7.5zM82.5 0c-12.4062 0 -22.5 10.0938 -22.5 22.5s10.0938 22.5 22.5 22.5s22.5 -10.0938 22.5 -22.5s-10.0938 -22.5 -22.5 -22.5zM82.5 90c-37.2197 0 -67.5 -30.2803 -67.5 -67.5s30.2803 -67.5 67.5 -67.5s67.5 30.2803 67.5 67.5
s-30.2803 67.5 -67.5 67.5zM82.5 -60c-45.4902 0 -82.5 37.0098 -82.5 82.5s37.0098 82.5 82.5 82.5s82.5 -37.0098 82.5 -82.5s-37.0098 -82.5 -82.5 -82.5zM134.367 105h75.6328v-15h-57.2432c-5.49023 5.71094 -11.6611 10.7549 -18.3896 15zM172.489 60
c-2.19531 5.25195 -4.85352 10.2598 -7.89551 15h45.4062v-15h-37.5107zM177.351 45h32.6494v-15h-30.3164c-0.393555 5.12109 -1.17773 10.1299 -2.33301 15zM225 150v15h-15v-15h15zM195 150v15h-15v-15h15zM165 150v15h-15v-15h15zM30 180h210v-45v-165h-75.4062
c3.04199 4.74023 5.7002 9.74805 7.89551 15h52.5107v150h-120v-17.6494c-4.87012 1.15527 -9.87891 1.93945 -15 2.33301v15.3164h-45v-22.5107c-5.25195 -2.19531 -10.2598 -4.85352 -15 -7.89551v30.4062v45z" />
    <glyph glyph-name="uniE00C" unicode="&#xe00c;" 
d="M70.3486 64.6094c-0.0380859 0.332031 -3.34961 33.2402 33.4404 40.3408l1.73438 0.334961l0.181641 -1.75684c0.0722656 -0.700195 1.65137 -17.2871 -8.42969 -29.1162c-5.82324 -6.83398 -14.3115 -10.6123 -25.2285 -11.2324l-1.52539 -0.0849609zM102.27 -59.9434
c-5.9707 0 -9.16113 1.7168 -12.2451 3.375c-3.37109 1.81348 -6.85547 3.6875 -14.7217 3.6875c-7.75781 0 -10.7393 -1.64746 -13.8984 -3.3916c-3.26172 -1.80176 -6.63184 -3.66406 -14.6357 -3.66406c-24.7842 0 -46.1426 49.7725 -46.1426 74.208
c0 38.7471 29.5342 51.7881 43.0078 51.7881c7.84473 0 13.3613 -2.24023 18.2305 -4.21777c3.95605 -1.60645 7.37305 -2.99414 11.4014 -2.99414c4.66504 0 8.32812 1.38379 12.5703 2.9834c5.25488 1.98242 11.21 4.23047 20.3555 4.23047
c17.5273 0 30.2266 -16.2461 30.7568 -16.9365l1.18848 -1.54492l-1.74023 -0.884766c-0.686523 -0.349609 -16.8301 -8.79004 -16.8301 -28.9727c0 -23.4043 21.1875 -32.1211 21.4023 -32.207l1.53125 -0.611328l-0.640625 -1.51953
c-0.74707 -1.77051 -18.5342 -43.3281 -39.5898 -43.3281zM45.6572 83.916c-4.87988 0 -10.2256 -0.880859 -15.6572 -2.63867v38.7227h15h45v-2.25879c-20.623 -6.21777 -32.2061 -19.9229 -37.377 -34.2402c-2.17188 0.263672 -4.48633 0.415039 -6.96582 0.415039z
M240 120v-150h-87.5742c1.47852 3.00879 2.71289 5.76172 3.68652 8.06445l5.52148 13.0791c1.87109 4.42969 -0.262695 9.53125 -4.72949 11.3135l-12.9355 5.15723c-1.35938 0.641602 -6.87891 3.67285 -6.87891 10.4668c0 5.13867 3.45117 7.6875 4.43555 8.30859
l14.6484 7.38867c4.80957 2.42578 6.22266 8.62988 2.93848 12.8984l-10.252 13.3281c-1.37598 1.78906 -10.9727 13.752 -26.2188 20.0498c2.32031 10.0957 1.62402 18.3613 1.48047 19.7656l-1.6123 15.6543c-0.180664 1.75293 -0.90625 3.30859 -1.98438 4.52539h104.475
h15zM225 150v15h-15v-15h15zM195 150v15h-15v-15h15zM165 150v15h-15v-15h15zM30 180h210v-45h-210v45z" />
    <glyph glyph-name="uniE00D" unicode="&#xe00d;" 
d="M93.5039 87.0283c-8.62988 -4.2207 -12.0762 -10.873 -13.4072 -16.2119c3.46387 1.21387 6.26465 3.09863 8.4668 5.68164c2.70898 3.18066 4.16699 7.03809 4.94043 10.5303zM75.0312 -38.4062c9.5625 0 14.3926 -2.59766 17.918 -4.49414
c2.46387 -1.3252 3.82227 -2.05566 7.09473 -2.05566c8.08789 0 18.9795 15.4229 25.6201 28.6416c-7.56641 5.12793 -18.5771 15.7861 -18.5771 34.3955c0 14.2256 6.77832 23.625 12.5557 29.0518c-3.92383 3.25977 -9.62988 6.7832 -15.9629 6.7832
c-6.84277 0 -11.1465 -1.625 -15.7021 -3.34375c-4.36035 -1.64551 -8.86914 -3.34668 -14.8359 -3.34668c-5.49414 0 -9.99316 1.82715 -13.9619 3.43848c-4.11621 1.67285 -8.00391 3.25 -13.5225 3.25c-9.67871 0 -30.8916 -9.8291 -30.8916 -39.0352
c0 -22.1973 19.2109 -59.8311 33.7998 -59.8311c5.10352 0 6.74219 0.90625 9.22363 2.27734c4.22852 2.33496 8.44336 4.26855 17.2422 4.26855zM100.046 -59.9561c-7.05078 0 -11.0166 2.13281 -14.2021 3.8457c-2.80859 1.51074 -5.02637 2.7041 -10.8125 2.7041
c-5.64844 0 -7.46777 -1.00488 -9.99023 -2.39844c-3.34277 -1.84668 -7.50586 -4.14551 -16.4756 -4.14551c-27.7021 0 -48.7998 49.873 -48.7998 74.8301c0 36.8623 27.3848 54.0361 45.8916 54.0361c8.12793 0 13.9375 -2.2334 18.6191 -4.13086
c0.078125 13.291 7.42676 34.5703 36.042 40.0938l8.04199 1.55176l0.839844 -8.14746c0.0732422 -0.713867 1.59863 -16.749 -7.56348 -29.4043c0.665039 0.0253906 1.3457 0.0371094 2.04492 0.0371094c19.1787 0 32.7178 -17.3145 33.2852 -18.0527l5.52734 -7.18652
l-8.09375 -4.08301c-0.449219 -0.236328 -12.3125 -6.65723 -12.3125 -21.5146c0 -17.6875 15.9121 -24.2354 16.0723 -24.2998l7.1084 -2.83301l-2.97559 -7.0498c-3.0918 -7.32227 -19.6572 -43.8525 -42.2471 -43.8525zM123.587 105h86.4131v-15h-85.8643
c0.391602 5.20312 0.078125 8.92188 -0.015625 9.82031zM156.173 33.7783c4.20898 2.12402 5.81641 7.14062 3.9502 11.2217h49.877v-15h-61.3184zM132.213 75h77.7871v-15h-61.1367c-1.06348 1.38281 -7.01465 8.78809 -16.6504 15zM225 150v15h-15v-15h15zM195 150v15h-15
v-15h15zM165 150v15h-15v-15h15zM30 180h210v-45v-165h-87.5762c1.48047 3.00879 2.71484 5.76172 3.6875 8.06445l2.92773 6.93555h65.9609v150h-120v-13.9414l-7.52441 -1.45312c-2.625 -0.505859 -5.09473 -1.14746 -7.47559 -1.86426v17.2588h-45v-51.1016
c-4.70215 -0.0742188 -9.80859 -0.941406 -15 -2.62109v53.7227v45z" />
    <glyph glyph-name="uniE00E" unicode="&#xe00e;" 
d="M75 92.9951l75 10.0801v-73.0752h-75v62.9951zM75 -47.9951v62.9951h75v-73.0752zM60 90.9795v-60.9795h-60v52.915zM60 15v-60.9795l-60 8.06445v52.915h60zM225 120h15v-150h-75v143.832c0 3.38379 -2.98242 5.99414 -6.33789 5.54199l-53.6621 -7.21191v7.83789h120z
M30 102.082v17.918h15h45v-9.85352zM225 150v15h-15v-15h15zM195 150v15h-15v-15h15zM165 150v15h-15v-15h15zM30 180h210v-45h-210v45z" />
    <glyph glyph-name="uniE00F" unicode="&#xe00f;" 
d="M15 30h44.2695v45.7471l-44.2695 -5.9502v-39.7969zM74.2695 30h60.7305v55.9248l-60.7305 -8.16309v-47.7617zM15 -24.7969l44.2695 -5.9502v45.7471h-44.2695v-39.7969zM74.2695 -32.7617l60.7305 -8.16309v55.9248h-60.7305v-47.7617zM150 -58.0752l-150 20.1602
v120.83l150 20.1602v-161.15zM45 104.099l-15 -2.0166v32.918v45h210v-45v-165h-75v15h60v150h-120v-22.8379l-15 -2.01562v24.8535h-45v-30.9014zM165 105h45v-15h-45v15zM165 30v15h45v-15h-45zM165 75h45v-15h-45v15zM225 150v15h-15v-15h15zM195 150v15h-15v-15h15z
M165 150v15h-15v-15h15z" />
    <glyph glyph-name="uniE010" unicode="&#xe010;" 
d="M43.6631 -59.8525c-6.06445 0 -11.4434 0.787109 -15.9863 2.34277c-4.48633 1.53125 -8.41992 3.54297 -11.6885 5.97559c-3.28223 2.43945 -6.00879 5.19141 -8.10254 8.17773c-1.90723 2.71973 -3.43262 5.38867 -4.53223 7.93555
c-1.07031 2.47461 -1.82812 4.63379 -2.3125 6.59668c-0.1875 0.75 -0.418945 1.72559 -0.618164 2.56641c0 0 -0.310547 1.30664 -0.358398 1.49023l-0.185547 0.714844l15.8906 4.3877l0.201172 -0.719727c0.0673828 -0.242188 0.269531 -1.06934 0.503906 -2.05957
l0.0625 -0.265625c0.171875 -0.72168 0.360352 -1.51367 0.517578 -2.14844c0.180664 -0.727539 0.575195 -2.0127 1.44141 -4.0166c0.657227 -1.52441 1.63086 -3.20898 2.89551 -5.00879c1.08008 -1.54004 2.57422 -3.02637 4.44336 -4.41406
c1.89062 -1.4082 4.30469 -2.62109 7.17578 -3.60156c2.82324 -0.96582 6.4043 -1.45508 10.6494 -1.45508c4.65039 0 8.6748 0.754883 11.9629 2.24219c3.38867 1.53516 6.21289 3.47559 8.39648 5.7666c2.21777 2.32617 3.82715 4.79395 4.9248 7.54297
c1.08301 2.71777 1.63184 5.33301 1.63184 7.77051c0 3.10938 -0.504883 5.89062 -1.54785 8.50293c-0.931641 2.33398 -2.39062 4.33691 -4.46191 6.11914c-2.21289 1.9043 -5.20801 3.46777 -8.9043 4.64551c-4.70605 1.5 -9.31055 2.21777 -14.4883 2.2627
l-8.17383 0.0722656v16.5664l7.97852 0.260742c4.02441 0.131836 7.66797 1.38477 11.5273 2.71094c3.25977 1.12012 6.01855 2.63477 8.19629 4.50098c2.10156 1.7998 3.67383 3.85352 4.80469 6.2793c1.11719 2.39551 1.6582 5.05078 1.6582 8.11621
c0 3.76367 -0.585938 6.92871 -1.74414 9.40625c-1.1582 2.47852 -2.625 4.42285 -4.48535 5.94043c-1.9873 1.62305 -4.22461 2.79297 -6.84082 3.57715c-2.85742 0.856445 -5.85059 1.29199 -8.89648 1.29199c-3.44238 0 -6.62109 -0.526367 -9.44434 -1.56348
c-2.82031 -1.03613 -5.20801 -2.43457 -7.29883 -4.27441c-2.10156 -1.84863 -3.88086 -4.09375 -5.28613 -6.67676c-1.44043 -2.64648 -2.86816 -6.91797 -3.39453 -10.1582l-0.121094 -0.739258l-16.2842 2.64844l0.120117 0.740234
c0.826172 5.08008 2.86328 11.124 5.18848 15.3975c2.33398 4.28809 5.32129 8.0498 8.88281 11.1807c3.59863 3.16406 7.80566 5.64355 12.5029 7.36914c4.65137 1.71094 9.74316 2.57715 15.1348 2.57715c4.65137 0 9.24023 -0.666992 13.6367 -1.98535
c4.66895 -1.40234 8.88672 -3.62305 12.5352 -6.60156c3.77051 -3.08008 6.7998 -7.03125 9 -11.7412c2.18555 -4.68066 3.29395 -10.1934 3.29395 -16.3867c0 -5.44824 -1.07812 -10.5254 -3.20508 -15.0889c-2.11719 -4.53906 -5.15332 -8.52148 -9.02637 -11.8379
c-0.706055 -0.606445 -1.4502 -1.19434 -2.21777 -1.75488c2.25293 -1.25 4.30762 -2.66895 6.12012 -4.22852c4.07324 -3.50684 7.10938 -7.71777 9.02246 -12.5098c1.80566 -4.53027 2.72168 -9.44922 2.72168 -14.6182c0 -4.54199 -0.944336 -9.21289 -2.80762 -13.8818
c-1.86426 -4.67578 -4.65723 -8.9873 -8.30371 -12.8135c-3.6543 -3.83496 -8.20996 -7.00195 -13.5381 -9.41504c-5.4375 -2.46387 -11.752 -3.71094 -18.7666 -3.71094zM93 -60v12.3643l44.1377 46.0293c3.52441 3.55957 6.9043 7.05859 10.0557 10.4072
c2.91309 3.10059 5.50391 6.29395 7.69922 9.48828c2.05371 2.99023 3.70508 6.14941 4.91113 9.3916c1.09961 2.95703 1.6582 6.23535 1.6582 9.75c0 4.18652 -0.679688 7.70117 -2.02051 10.4453c-1.39062 2.84375 -3.11914 5.08789 -5.28027 6.85742
c-2.24414 1.83594 -4.75781 3.15625 -7.6875 4.03516c-3.16992 0.951172 -6.43555 1.43262 -9.70801 1.43262c-3.74707 0 -7.2168 -0.564453 -10.3145 -1.67676c-3.03223 -1.08984 -5.73145 -2.64453 -8.02051 -4.625c-2.28613 -1.97656 -4.12207 -4.3457 -5.61133 -7.24023
c-1.51758 -2.9502 -2.53906 -6.36133 -3.03711 -10.1406l-0.0976562 -0.743164l-16.334 2.15625l0.0976562 0.744141c0.746094 5.66895 2.33594 10.8965 4.72656 15.54c2.4375 4.73828 5.63086 8.83398 9.48926 12.1699c3.82617 3.30859 8.27539 5.8877 13.2236 7.66602
c4.8877 1.75488 10.2285 2.64648 15.8789 2.64648c4.87793 0 9.73535 -0.71582 14.4375 -2.12695c4.98047 -1.49609 9.48535 -3.87305 13.3848 -7.06641c3.98145 -3.25977 7.22754 -7.42578 9.65137 -12.3799c2.4541 -5.02344 3.69727 -10.9766 3.69727 -17.6982
c0 -5.48438 -0.90625 -10.7031 -2.69434 -15.5088c-1.67773 -4.51367 -3.95996 -8.88184 -6.77637 -12.9824c-2.67188 -3.8877 -5.79297 -7.74023 -9.2793 -11.4482c-3.22949 -3.43359 -6.68066 -7.00781 -10.2598 -10.623l-29.1201 -30.3643h54.1924v-16.5h-81z
M189.134 62.8076c-2.21777 4.52734 -4.95508 8.60156 -8.16309 12.1924h29.0293v-15h-19.6055c-0.392578 0.952148 -0.8125 1.88965 -1.26074 2.80762zM120 105h90v-15.002h-52.2949c-0.420898 0.138672 -0.837891 0.285156 -1.26367 0.413086
c-6.17773 1.85059 -12.5645 2.79004 -18.9814 2.79004c-6.0791 0 -11.9307 -0.807617 -17.46 -2.37891v14.1777zM194.093 45h15.9072v-15h-16.083c0.349609 2.67773 0.526367 5.40723 0.526367 8.18066c-0.000976562 2.33105 -0.120117 4.60352 -0.350586 6.81934zM225 150
v15h-15v-15h15zM195 150v15h-15v-15h15zM165 150v15h-15v-15h15zM30 180h210v-45v-165h-49.5v3h-33.0615l3.48047 3.62402c2.8125 2.83691 5.51172 5.62988 8.13086 8.37598h55.9502v150h-120v-50.8125c-2.45703 -1.53418 -4.79297 -3.23828 -6.97949 -5.12695
c-2.80078 -2.41797 -5.34473 -5.11035 -7.61523 -8.05469c-0.128906 0.188477 -0.273438 0.364258 -0.405273 0.549805v63.4443h-45v-41.7988c-5.19629 -0.00488281 -10.2168 -0.631836 -15 -1.84863v43.6475v45z" />
    <glyph glyph-name="uniE011" unicode="&#xe011;" 
d="M19.6816 2.42383c-1.87988 -5.02148 -2.27734 -8.25 -2.27734 -10.0713c0 -5.20117 0.75 -9.80176 2.23047 -13.6738c1.44434 -3.78711 3.36914 -6.85449 5.87988 -9.37598c2.49512 -2.50684 5.39844 -4.3623 8.87695 -5.6748
c3.61133 -1.3623 7.70312 -2.05176 12.1621 -2.05176c4.79004 0 9.22656 0.730469 13.1895 2.17188c3.84766 1.39941 7.18555 3.37305 9.91992 5.86621c2.71484 2.47852 4.76855 5.36133 6.28223 8.81445c1.5 3.4209 2.25879 7.34277 2.25879 11.6533
c0 4.1748 -0.691406 8.03711 -2.05762 11.4824c-1.35156 3.40332 -3.19238 6.2373 -5.62891 8.66602c-2.19434 2.18359 -5.42383 4.15332 -9.33887 5.69336c-3.50684 1.37988 -8.04395 2.13965 -12.7783 2.13965c-3.16309 0 -6.54395 -0.411133 -9.27637 -1.12891
c-3.27148 -0.860352 -6.26367 -2.00781 -8.42773 -3.23047c-2.41992 -1.36328 -4.60645 -3.03027 -6.50391 -4.95312c-1.61328 -1.63477 -2.92578 -3.40625 -4.01465 -5.41602l-0.333984 -0.617188l-0.0390625 0.0185547zM46.5557 -54.7393
c-6.43555 0 -12.4639 1.04199 -17.918 3.10059c-5.625 2.11914 -10.5654 5.29004 -14.6865 9.42676c-4.09961 4.12109 -7.31641 9.19043 -9.56055 15.0713c-2.19141 5.73535 -3.30273 12.2949 -3.30273 19.4951c0 5.39062 1.44727 11.4736 4.42285 18.5967
c2.81445 6.73828 7.27344 14.1348 13.6289 22.6133l35.7305 47.9814l13.0869 -9.74512l-28.3828 -38.1172l0.716797 0.105469c2.68848 0.394531 5.41895 0.59375 8.1123 0.59375c6.82812 0 13.3125 -1.13086 18.7549 -3.27148
c6.05859 -2.38672 11.0625 -5.52148 14.875 -9.31641c3.99512 -3.98047 7.11621 -8.75977 9.28125 -14.208c2.12793 -5.37012 3.20801 -11.2578 3.20801 -17.502c0 -6.58203 -1.22266 -12.7061 -3.63184 -18.2041c-2.41309 -5.50781 -5.85449 -10.3262 -10.2285 -14.3154
c-4.31543 -3.9375 -9.47656 -7.01562 -15.3398 -9.15039c-5.75684 -2.09277 -12.0703 -3.1543 -18.7666 -3.1543zM165 -13.5v59.1572l-40.9502 -59.1572h40.9502zM165 -55.5v25.5h-64.5v11.9336l66.2568 97.5664h14.7432v-93h12v-16.5h-12v-25.5h-16.5zM120 105h90v-15h-12
v6h-39.9844l-4.07324 -6h-33.9424v15zM198 60v15h12v-15h-12zM198 30v15h12v-15h-12zM143.756 75l-10.1865 -15h-13.5693v15h23.7559zM120 40.0186v4.98145h3.38281zM225 150v15h-15v-15h15zM195 150v15h-15v-15h15zM165 150v15h-15v-15h15zM30 180h210v-45v-165h-30v15h15
v150h-120v-117.07l-0.133789 -0.198242c-2.85742 5.9043 -6.6084 11.1885 -11.1914 15.7549c-1.15332 1.14844 -2.38965 2.24023 -3.6748 3.29492v36.9951l1.0459 1.40332l-1.0459 0.779297v59.041h-45v-39.0811l-15 -20.1445v59.2256v45z" />
    <glyph glyph-name="uniE012" unicode="&#xe012;" 
d="M43.6631 -59.8525c-6.06445 0 -11.4434 0.787109 -15.9863 2.34277c-4.48633 1.53125 -8.41992 3.54297 -11.6885 5.97559c-3.28223 2.43945 -6.00879 5.19141 -8.10254 8.17773c-1.90723 2.71973 -3.43262 5.38867 -4.53223 7.93555
c-1.07031 2.47461 -1.82812 4.63379 -2.3125 6.59668c-0.1875 0.75 -0.418945 1.72559 -0.618164 2.56641c0 0 -0.310547 1.30664 -0.358398 1.49023l-0.185547 0.714844l15.8906 4.3877l0.201172 -0.719727c0.0673828 -0.242188 0.269531 -1.06934 0.503906 -2.05957
l0.0625 -0.265625c0.171875 -0.72168 0.360352 -1.51367 0.517578 -2.14844c0.180664 -0.727539 0.575195 -2.0127 1.44141 -4.0166c0.657227 -1.52441 1.63086 -3.20898 2.89551 -5.00879c1.08008 -1.54004 2.57422 -3.02637 4.44336 -4.41406
c1.89062 -1.4082 4.30469 -2.62109 7.17578 -3.60156c2.82324 -0.96582 6.4043 -1.45508 10.6494 -1.45508c4.65039 0 8.6748 0.754883 11.9629 2.24219c3.38867 1.53516 6.21289 3.47559 8.39648 5.7666c2.21777 2.32617 3.82715 4.79395 4.9248 7.54297
c1.08301 2.71777 1.63184 5.33301 1.63184 7.77051c0 3.10938 -0.504883 5.89062 -1.54785 8.50293c-0.931641 2.33398 -2.39062 4.33691 -4.46191 6.11914c-2.21289 1.9043 -5.20801 3.46777 -8.9043 4.64551c-4.70605 1.5 -9.31055 2.21777 -14.4883 2.2627
l-8.17383 0.0722656v16.5664l7.97852 0.260742c4.02441 0.131836 7.66797 1.38477 11.5273 2.71094c3.25977 1.12012 6.01855 2.63477 8.19629 4.50098c2.10156 1.7998 3.67383 3.85352 4.80469 6.2793c1.11719 2.39551 1.6582 5.05078 1.6582 8.11621
c0 3.76367 -0.585938 6.92871 -1.74414 9.40625c-1.1582 2.47852 -2.625 4.42285 -4.48535 5.94043c-1.9873 1.62305 -4.22461 2.79297 -6.84082 3.57715c-2.85742 0.856445 -5.85059 1.29199 -8.89648 1.29199c-3.44238 0 -6.62109 -0.526367 -9.44434 -1.56348
c-2.82031 -1.03613 -5.20801 -2.43457 -7.29883 -4.27441c-2.10156 -1.84863 -3.88086 -4.09375 -5.28613 -6.67676c-1.44043 -2.64648 -2.86816 -6.91797 -3.39453 -10.1582l-0.121094 -0.739258l-16.2842 2.64844l0.120117 0.740234
c0.826172 5.08008 2.86328 11.124 5.18848 15.3975c2.33398 4.28809 5.32129 8.0498 8.88281 11.1807c3.59863 3.16406 7.80566 5.64355 12.5029 7.36914c4.65137 1.71094 9.74316 2.57715 15.1348 2.57715c4.65137 0 9.24023 -0.666992 13.6367 -1.98535
c4.66895 -1.40234 8.88672 -3.62305 12.5352 -6.60156c3.77051 -3.08008 6.7998 -7.03125 9 -11.7412c2.18555 -4.68066 3.29395 -10.1934 3.29395 -16.3867c0 -5.44824 -1.07812 -10.5254 -3.20508 -15.0889c-2.11719 -4.53906 -5.15332 -8.52148 -9.02637 -11.8379
c-0.706055 -0.606445 -1.4502 -1.19434 -2.21777 -1.75488c2.25293 -1.25 4.30762 -2.66895 6.12012 -4.22852c4.07324 -3.50684 7.10938 -7.71777 9.02246 -12.5098c1.80566 -4.53027 2.72168 -9.44922 2.72168 -14.6182c0 -4.54199 -0.944336 -9.21289 -2.80762 -13.8818
c-1.86426 -4.67578 -4.65723 -8.9873 -8.30371 -12.8135c-3.6543 -3.83496 -8.20996 -7.00195 -13.5381 -9.41504c-5.4375 -2.46387 -11.752 -3.71094 -18.7666 -3.71094zM93 -60v12.3643l44.1377 46.0293c3.52441 3.55957 6.9043 7.05859 10.0557 10.4072
c2.91309 3.10059 5.50391 6.29395 7.69922 9.48828c2.05371 2.99023 3.70508 6.14941 4.91113 9.3916c1.09961 2.95703 1.6582 6.23535 1.6582 9.75c0 4.18652 -0.679688 7.70117 -2.02051 10.4453c-1.39062 2.84375 -3.11914 5.08789 -5.28027 6.85742
c-2.24414 1.83594 -4.75781 3.15625 -7.6875 4.03516c-3.16992 0.951172 -6.43555 1.43262 -9.70801 1.43262c-3.74707 0 -7.2168 -0.564453 -10.3145 -1.67676c-3.03223 -1.08984 -5.73145 -2.64453 -8.02051 -4.625c-2.28613 -1.97656 -4.12207 -4.3457 -5.61133 -7.24023
c-1.51758 -2.9502 -2.53906 -6.36133 -3.03711 -10.1406l-0.0976562 -0.743164l-16.334 2.15625l0.0976562 0.744141c0.746094 5.66895 2.33594 10.8965 4.72656 15.54c2.4375 4.73828 5.63086 8.83398 9.48926 12.1699c3.82617 3.30859 8.27539 5.8877 13.2236 7.66602
c4.8877 1.75488 10.2285 2.64648 15.8789 2.64648c4.87793 0 9.73535 -0.71582 14.4375 -2.12695c4.98047 -1.49609 9.48535 -3.87305 13.3848 -7.06641c3.98145 -3.25977 7.22754 -7.42578 9.65137 -12.3799c2.4541 -5.02344 3.69727 -10.9766 3.69727 -17.6982
c0 -5.48438 -0.90625 -10.7031 -2.69434 -15.5088c-1.67773 -4.51367 -3.95996 -8.88184 -6.77637 -12.9824c-2.67188 -3.8877 -5.79297 -7.74023 -9.2793 -11.4482c-3.22949 -3.43359 -6.68066 -7.00781 -10.2598 -10.623l-29.1201 -30.3643h54.1924v-16.5h-81zM225 120h15
v-150h-49.5v3h-33.0615l3.48047 3.62402c3.64746 3.67773 7.16699 7.31836 10.4668 10.8223c4.03809 4.29004 7.6709 8.76953 10.7998 13.3174c3.55371 5.16406 6.43652 10.6855 8.56934 16.4111c2.44824 6.57031 3.68848 13.6387 3.68848 21.0059
c0 9.13965 -1.78516 17.4229 -5.30957 24.627c-3.43066 7.00195 -8.08789 12.9395 -13.8428 17.6445c-5.52148 4.51562 -11.8633 7.86621 -18.8496 9.95996c-6.17773 1.85156 -12.5645 2.79004 -18.9814 2.79004c-7.47461 0 -14.6143 -1.20117 -21.2217 -3.57129
c-3.9873 -1.43066 -7.73926 -3.25977 -11.2383 -5.44336v35.8125h120zM30 91.3525v28.6475h15h45v-48.4443c-2.51367 3.57812 -5.44824 6.7666 -8.80469 9.50781c-5.26074 4.2959 -11.3076 7.4873 -17.9746 9.48828c-5.86523 1.75781 -11.9746 2.65039 -18.1592 2.65039
c-5.2168 0 -10.2588 -0.626953 -15.0615 -1.84961zM225 150v15h-15v-15h15zM195 150v15h-15v-15h15zM165 150v15h-15v-15h15zM30 180h210v-45h-210v45z" />
    <glyph glyph-name="uniE013" unicode="&#xe013;" 
d="M19.6816 2.42383c-1.87988 -5.02148 -2.27734 -8.25 -2.27734 -10.0713c0 -5.20117 0.75 -9.80176 2.23047 -13.6738c1.44434 -3.78711 3.36914 -6.85449 5.87988 -9.37598c2.49512 -2.50684 5.39844 -4.3623 8.87695 -5.6748
c3.61133 -1.3623 7.70312 -2.05176 12.1621 -2.05176c4.79004 0 9.22656 0.730469 13.1895 2.17188c3.84766 1.39941 7.18555 3.37305 9.91992 5.86621c2.71484 2.47852 4.76855 5.36133 6.28223 8.81445c1.5 3.4209 2.25879 7.34277 2.25879 11.6533
c0 4.1748 -0.691406 8.03711 -2.05762 11.4824c-1.35156 3.40332 -3.19238 6.2373 -5.62891 8.66602c-2.19434 2.18359 -5.42383 4.15332 -9.33887 5.69336c-3.50684 1.37988 -8.04395 2.13965 -12.7783 2.13965c-3.16309 0 -6.54395 -0.411133 -9.27637 -1.12891
c-3.27148 -0.860352 -6.26367 -2.00781 -8.42773 -3.23047c-2.41992 -1.36328 -4.60645 -3.03027 -6.50391 -4.95312c-1.61328 -1.63477 -2.92578 -3.40625 -4.01465 -5.41602l-0.333984 -0.617188l-0.0390625 0.0185547zM46.5557 -54.7393
c-6.43555 0 -12.4639 1.04199 -17.918 3.10059c-5.625 2.11914 -10.5654 5.29004 -14.6865 9.42676c-4.09961 4.12109 -7.31641 9.19043 -9.56055 15.0713c-2.19141 5.73535 -3.30273 12.2949 -3.30273 19.4951c0 5.39062 1.44727 11.4736 4.42285 18.5967
c2.81445 6.73828 7.27344 14.1348 13.6289 22.6133l35.7305 47.9814l13.0869 -9.74512l-28.3828 -38.1172l0.716797 0.105469c2.68848 0.394531 5.41895 0.59375 8.1123 0.59375c6.82812 0 13.3125 -1.13086 18.7549 -3.27148
c6.05859 -2.38672 11.0625 -5.52148 14.875 -9.31641c3.99512 -3.98047 7.11621 -8.75977 9.28125 -14.208c2.12793 -5.37012 3.20801 -11.2578 3.20801 -17.502c0 -6.58203 -1.22266 -12.7061 -3.63184 -18.2041c-2.41309 -5.50781 -5.85449 -10.3262 -10.2285 -14.3154
c-4.31543 -3.9375 -9.47656 -7.01562 -15.3398 -9.15039c-5.75684 -2.09277 -12.0703 -3.1543 -18.7666 -3.1543zM165 -13.5v59.1572l-40.9502 -59.1572h40.9502zM165 -55.5v25.5h-64.5v11.9336l66.2568 97.5664h14.7432v-93h12v-16.5h-12v-25.5h-16.5zM51.4902 104.636
l-21.4902 -28.8613v44.2256h15h45v-44.041zM225 120h15v-150h-30v33h-12v93h-39.9844l-53.0156 -78.0703v102.07h120zM90 73.7764v-36.9932c-4.74902 3.89551 -10.3711 7.14844 -16.8027 9.68359c-0.90918 0.357422 -1.83594 0.693359 -2.78125 1.00977zM225 150v15h-15v-15
h15zM195 150v15h-15v-15h15zM165 150v15h-15v-15h15zM30 180h210v-45h-210v45z" />
    <glyph glyph-name="uniE014" unicode="&#xe014;" 
d="M210 -15h-120v15h120v-15zM210 15h-120v15h120v-15zM210 45h-120v15h120v-15zM210 75h-120v15h120v-15zM225 135v15h-15v-15h15zM195 135v15h-15v-15h15zM165 135v15h-15v-15h15zM0 165h240v-45v-180h-240v180v45zM15 120v-165h45v165h-45zM225 120h-150v-165h150v165z
" />
    <glyph glyph-name="uniE015" unicode="&#xe015;" 
d="M225 105h15v-165h-165v165h150zM60 105v-165h-60v165h15h45zM225 135v15h-15v-15h15zM195 135v15h-15v-15h15zM165 135v15h-15v-15h15zM0 165h240v-45h-240v45z" />
    <glyph glyph-name="uniE016" unicode="&#xe016;" 
d="M240 0h-15v165h-165v15h180v-180zM210 -30h-15v165h-165v15h180v-180zM0 -60v180h180v-180h-180z" />
    <glyph glyph-name="uniE017" unicode="&#xe017;" 
d="M240 0h-15v165h-165v15h180v-180zM210 -30h-15v165h-165v15h180v-180zM15 -45h150v150h-150v-150zM180 -60h-180v180h180v-180z" />
    <glyph glyph-name="uniE018" unicode="&#xe018;" 
d="M168.868 -9.22754c0.380859 -1.37891 2.06445 -4.61719 3.71582 -7.11035l4.13867 -6.24805l-12.4834 -8.29297l-4.14844 6.24023c-2.33691 3.51465 -6.25879 10.1738 -6.25879 15.2969c0 3.69238 2.59961 11.8359 5.0752 18.7568l-1.31683 5.12011
c-6.38161 -11.0718 -15.076 -20.4886 -24.9723 -27.2516l-4.45499 -18.89l-1.29297 -1.43066c-3.67773 -4.07324 -7.45508 -8.91211 -8.32031 -10.6387c-0.208984 -1.35742 -0.0439453 -4.21875 0.258789 -6.14551l1.16699 -7.39648l-14.7881 -2.36816l-1.18945 7.39355
c-0.195312 1.21191 -1.11035 7.48926 0 12.2178c0.789062 3.35645 4.30078 8.58105 10.4463 15.541l0.722108 3.06259c-2.03876 -0.655074 -4.09797 -1.19765 -6.17035 -1.62119c-3.69336 -0.755859 -7.44727 -1.13867 -11.1582 -1.13867
c-15.8506 0 -31.0312 6.81738 -43.9023 19.7197c-19.7402 19.7861 -20.9473 39.8438 -18.4834 53.1865c0.408211 2.2107 0.955024 4.41377 1.6326 6.60011l-3.62284 -0.301282c-6.69336 -5.90723 -11.7432 -9.29004 -15.0273 -10.0635
c-1.71094 -0.40332 -3.44531 -0.542969 -5.02344 -0.542969c-2.99023 0 -5.41797 0.498047 -6.06152 0.643555l-7.31543 1.65234l3.30469 14.6309l7.28516 -1.64551c0.979492 -0.208008 2.8623 -0.392578 4.08691 -0.194336c1.7168 0.867188 6.52637 4.64941 10.5674 8.3291
l1.88477 1.71777l17.1534 1.42752c6.32632 10.1927 15.4116 19.4182 26.2913 26.5546l-0.407552 0.178984c-5.96973 -0.962891 -17.832 -2.80566 -21.252 -2.80566c-5.12402 0 -11.7764 3.93457 -15.2852 6.2793l-6.23535 4.16699l8.33398 12.4707l6.23047 -4.16211
c2.54883 -1.69531 5.87891 -3.42773 7.18652 -3.74707c2.44727 0.115234 12.5068 1.59473 20.79 2.95801l2.19629 0.360352l15.7126 -6.9008c6.45139 2.4682 13.6625 4.90566 20.7282 7.12213c-1.60907 11.5992 -0.266415 14.827 0.216406 15.9877
c0.834961 2.01172 1.85352 3.77637 2.75391 5.33496c0.844727 1.46387 1.64258 2.8457 2.16992 4.22266c0.621094 1.64844 1.72559 8.85938 2.32812 14.2979l0.827148 7.45508l14.9082 -1.65234l-0.826172 -7.45508c-0.351562 -3.16699 -1.62207 -13.8232 -3.23242 -18.0195
c-0.951172 -2.47949 -2.1377 -4.53516 -3.18457 -6.34863c-0.673828 -1.16504 -1.2666 -2.19141 -1.71387 -3.1748c-0.107422 -1.11328 0.0380859 -3.48633 0.354492 -6.30176c-2.37863 -0.671796 -4.8627 -1.3885 -7.41313 -2.14928l4.0243e-05 -0.000133622l-2.53613 -6
l6.61133 -8.3584c5.13379 -6.49023 11.2568 -14.0625 18.9785 -21.8027c7.25098 -7.2666 14.4258 -13.1865 21.1006 -18.502l3.02815 -2.41121l0.0001735 0.00105325l4.66153 -3.71145l7.27793 2.47219l-0.000869581 -0.00291119l0.00282271 0.000958069
c0.523438 1.75488 1.0166 3.47461 1.49707 5.16895c2.7627 -0.275391 5.21387 -0.381836 6.27734 -0.235352c1.01074 0.452148 2.06445 1.06348 3.26562 1.75977c1.81055 1.0498 3.8623 2.24121 6.34082 3.19531c4.01074 1.54785 15.1104 3.46875 18.417 4.02148
l7.39941 1.2373l2.4707 -14.7949l-7.39648 -1.23535c-6.08398 -1.01562 -13.7617 -2.55371 -15.4951 -3.22266c-1.37305 -0.527344 -2.75098 -1.32715 -4.21094 -2.17285c-1.55371 -0.902344 -3.31641 -1.9248 -5.3252 -2.76367
c-1.73535 -0.725586 -4.18359 -1.08691 -7.32129 -1.08691c-2.52326 0 -5.4924 0.233246 -8.89734 0.701566c-1.3529 -4.04867 -2.8123 -8.09978 -4.3692 -12.003l7.02338 -27.309l-0.803711 -2.19141c-2.14062 -5.83984 -4.53906 -13.2783 -4.92188 -15.6836z
M157.077 141.318c3.32422 11.4629 3.92188 13.5293 -7.09473 22.3213l-5.86426 4.67676l9.35449 11.7256l5.86328 -4.67676c17.9551 -14.3223 16.3125 -23.8545 12.1484 -38.2217c-1.07656 -3.71681 -2.27693 -7.85906 -3.18642 -12.8402
c3.29646 -1.67059 6.30735 -3.82874 8.88954 -6.41663c2.52446 -2.52984 4.5647 -5.33637 6.15334 -8.29279c3.90669 0.737871 7.38918 1.60227 10.5488 2.38751c14.5605 3.61621 26.0674 6.47363 41.4844 -12.9424l4.66504 -5.87402l-11.7461 -9.32812l-4.66406 5.87402
c-9.41797 11.8604 -12.957 10.9814 -26.124 7.71289c-2.9819 -0.74073 -6.23125 -1.54767 -9.90201 -2.28244c0.745891 -8.98109 -1.83829 -17.5632 -6.97103 -22.7078c-2.02246 -2.02832 -4.39941 -3.51465 -7.06348 -4.41895l-3.87793 -1.31543l-3.2041 2.55176
c-6.42773 5.11719 -13.3242 10.8057 -20.208 17.7041c-7.32617 7.34277 -13.2227 14.6387 -18.1738 20.8994l-2.75586 3.4834l1.72949 4.08984c0.880859 2.08203 2.15625 3.96777 3.78809 5.60449c4.63477 4.64551 12.0625 7.31055 20.376 7.31055
c0.849593 0 1.69619 -0.0283023 2.53824 -0.0842808c1.01008 5.1693 2.25441 9.46367 3.29672 13.0599zM115.793 115.701l0.00107698 0.000466275l-0.000936319 -0.000133622z" />
    <glyph glyph-name="uniE019" unicode="&#xe019;" 
d="M122.888 124.405zM143.997 112.01c3.75781 -4.60938 8.02051 -9.56445 12.9014 -14.457c4.7666 -4.77734 9.61816 -8.98828 14.3115 -12.8369c2.56836 4.91504 2.50391 15.417 -4.64062 22.5762c-3.83691 3.8457 -9.42285 6.05078 -15.3271 6.05078
c-2.94043 0 -5.43164 -0.560547 -7.24512 -1.33301zM97.8379 -24.1318c-15.8525 0 -31.0342 6.81836 -43.9043 19.7188c-19.7412 19.7852 -20.9473 39.8447 -18.4824 53.1875c0.408249 2.21151 0.95521 4.41539 1.63303 6.6025l-3.62815 -0.301723
c-6.69336 -5.90625 -11.7432 -9.28906 -15.0273 -10.0635c-1.70703 -0.404297 -3.44043 -0.542969 -5.02051 -0.542969c-2.98926 0 -5.41797 0.5 -6.06152 0.643555l-7.31543 1.65332l3.30469 14.6309l7.28516 -1.64551
c0.979492 -0.209961 2.8623 -0.392578 4.08594 -0.195312c1.71973 0.867188 6.52734 4.65039 10.5684 8.33008l1.88477 1.7168l17.1559 1.42772c6.32678 10.193 15.4129 19.4183 26.2933 26.5541l-0.406151 0.178368c-5.96973 -0.962891 -17.832 -2.80566 -21.252 -2.80566
c-5.12402 0 -11.7764 3.93457 -15.2852 6.2793l-6.23535 4.16699l8.33398 12.4707l6.23047 -4.16211c2.54883 -1.69531 5.87891 -3.42773 7.18652 -3.74707c2.44727 0.115234 12.5078 1.59473 20.79 2.95801l2.19629 0.361328l15.7138 -6.90088
c6.44979 2.46741 13.6601 4.90517 20.7235 7.12141c-1.60826 11.5968 -0.265842 14.824 0.216927 15.9846c0.834961 2.01172 1.85547 3.77832 2.75391 5.33496c0.844727 1.46387 1.64258 2.8457 2.16992 4.22266c0.621094 1.64844 1.72559 8.85938 2.32812 14.2979
l0.827148 7.45508l14.9082 -1.65234l-0.826172 -7.45508c-0.351562 -3.16699 -1.62207 -13.8232 -3.23242 -18.0195c-0.951172 -2.47949 -2.1377 -4.53516 -3.18457 -6.34863c-0.673828 -1.16504 -1.2666 -2.19141 -1.71387 -3.1748
c-0.106904 -1.11255 0.0379712 -3.48281 0.353669 -6.29879c2.23485 0.630049 4.37228 1.21619 6.37344 1.75022c0.400549 0.496906 0.829995 0.975397 1.28754 1.43431c4.63574 4.64551 12.0635 7.31055 20.376 7.31055c0.84956 0 1.69613 -0.0283001 2.53815 -0.0842743
c1.00992 5.16658 2.25383 9.45905 3.29584 13.055c3.32227 11.4648 3.92188 13.5303 -7.09668 22.3184l-5.86328 4.67676l9.35352 11.7256l5.86426 -4.67676c17.9541 -14.3223 16.3125 -23.8545 12.1484 -38.2217c-1.07682 -3.71316 -2.27661 -7.85273 -3.18594 -12.8315
c3.29726 -1.67071 6.30898 -3.82915 8.89199 -6.41749c2.52482 -2.53038 4.56525 -5.33751 6.15397 -8.29449c3.90523 0.737308 7.386 1.60155 10.5453 2.38727c14.5615 3.61621 26.0664 6.47363 41.4834 -12.9424l4.66406 -5.87402l-11.7451 -9.32812l-4.66309 5.87402
c-9.41895 11.8604 -12.957 10.9814 -26.124 7.71289c-2.98154 -0.740479 -6.22992 -1.54668 -9.89922 -2.28096c0.745962 -8.98076 -1.83776 -17.5618 -6.96894 -22.7044c-0.636349 -0.637885 -1.30757 -1.22216 -2.01165 -1.75159
c-0.666258 -2.56654 -1.40183 -5.29861 -2.20279 -8.13427c2.75946 -0.275374 5.20721 -0.380517 6.2701 -0.234247c1.01074 0.453125 2.06348 1.06348 3.26465 1.75879c1.81055 1.05078 3.86328 2.24121 6.34082 3.19531c4.01074 1.54688 15.1113 3.46973 18.417 4.02148
l7.39844 1.23633l2.46973 -14.7949l-7.39648 -1.23535c-6.08398 -1.01758 -13.7607 -2.55469 -15.4941 -3.22266c-1.37402 -0.529297 -2.75098 -1.32715 -4.21094 -2.17285c-1.55371 -0.902344 -3.31641 -1.9248 -5.3252 -2.76367
c-1.7334 -0.724609 -4.18164 -1.08594 -7.31934 -1.08594c-2.52212 0 -5.4903 0.234212 -8.89312 0.701722c-1.35357 -4.04844 -2.81384 -8.09953 -4.37129 -12.0024l7.02417 -27.3087l-0.804688 -2.19238c-2.1416 -5.83789 -4.53809 -13.2764 -4.9209 -15.6836
c0.378906 -1.37695 2.06348 -4.61719 3.7168 -7.11133l4.13867 -6.24805l-12.4844 -8.29199l-4.14941 6.24023c-2.33789 3.51465 -6.25781 10.1748 -6.25781 15.2969c0 3.69336 2.59961 11.8379 5.07422 18.7578l-1.31715 5.12212
c-6.38219 -11.0728 -15.0769 -20.4902 -24.9734 -27.2535l-4.45455 -18.8881l-1.29297 -1.43066c-3.67773 -4.07227 -7.45703 -8.91016 -8.32031 -10.6377c-0.208984 -1.35645 -0.0439453 -4.21973 0.258789 -6.14551l1.16699 -7.39648l-14.7881 -2.36914l-1.18945 7.39355
c-0.195312 1.21094 -1.11035 7.48828 0 12.2178c0.787109 3.35742 4.30078 8.58203 10.4463 15.542l0.721416 3.0595c-2.03853 -0.654999 -4.09751 -1.19752 -6.16966 -1.62103c-3.69434 -0.754883 -7.44922 -1.13867 -11.1582 -1.13867zM162.115 72.7769
c-5.136 4.19738 -10.49 8.82379 -15.8352 14.1811c-5.54993 5.56251 -10.2794 11.097 -14.399 16.1764c-12.3901 -3.36795 -29.2777 -8.53169 -41.7612 -13.6012c-20.1074 -9.05371 -35.21 -26.2334 -38.4453 -43.7559c-2.53906 -13.7549 2.15137 -26.7217 13.9385 -38.5352
c9.71387 -9.73633 20.8291 -14.8848 32.1436 -14.8848c2.62305 0 5.29297 0.274414 7.93457 0.813477c17.5322 3.58301 33.9873 18.6914 41.9189 38.4883l0.276367 0.613281c4.84552 9.62221 9.73638 23.5587 14.2288 40.5044z" />
    <glyph glyph-name="uniE01A" unicode="&#xe01a;" 
d="M235.085 104.51l-54.4893 -53.5518l-54.4893 53.5518l19.6992 19.9199l19.1943 -18.6484v74.2188h30v-75.3965l20.3848 19.8262zM115.085 104.51l-54.4893 -53.5518l-54.4893 53.5518l19.6992 19.9199l19.1943 -18.6484v74.2188h30v-75.3965l20.3848 19.8262zM67.5 15
h-30v15h30v-15zM112.5 15h-30v15h30v-15zM157.5 15h-30v15h30v-15zM202.5 15h-30v15h30v-15zM90 -15h-30v15h30v-15zM135 -15h-30v15h30v-15zM180 -15h-30v15h30v-15zM240 -60h-240v135h15v-120h210v120h15v-135z" />
    <glyph glyph-name="uniE01B" unicode="&#xe01b;" 
d="M130.5 90v67.5h-21v-67.5h21zM130.5 60v15h-21v-15h21zM120 180c37.2793 0 67.5 -30.2207 67.5 -67.5s-30.2207 -67.5 -67.5 -67.5s-67.5 30.2207 -67.5 67.5s30.2207 67.5 67.5 67.5zM67.5 15h-30v15h30v-15zM112.5 15h-30v15h30v-15zM157.5 15h-30v15h30v-15zM202.5 15
h-30v15h30v-15zM90 -15h-30v15h30v-15zM135 -15h-30v15h30v-15zM180 -15h-30v15h30v-15zM240 -60h-240v135h15v-120h210v120h15v-135z" />
    <glyph glyph-name="uniE01C" unicode="&#xe01c;" 
d="M180 -30v15h-30v-15h30zM135 -30v15h-30v-15h30zM90 -30v15h-30v-15h30zM190.085 119.51l-69.4893 -68.5518l-69.4893 68.5518l19.6992 19.9199l34.1943 -33.6484v74.2188h30v-75.3965l35.3848 34.8262zM67.5 15h-30v15h30v-15zM112.5 15h-30v15h30v-15zM157.5 15h-30v15
h30v-15zM202.5 15h-30v15h30v-15zM240 -60h-240v135h15v-75h210v75h15v-135z" />
    <glyph glyph-name="uniE01D" unicode="&#xe01d;" 
d="M15 -45h210v75h-210v-75zM229.5 45h10.5v-105h-240v105h7.5h7.5h210h4.5zM235.085 110.51l-54.4893 -53.5518l-54.4893 53.5518l19.6992 19.9199l19.1943 -18.6484v68.2188h30v-69.3965l20.3848 19.8262zM115.085 110.51l-54.4893 -53.5518l-54.4893 53.5518
l19.6992 19.9199l19.1943 -18.6484v68.2188h30v-69.3965l20.3848 19.8262zM67.5 0h-30v15h30v-15zM112.5 0h-30v15h30v-15zM157.5 0h-30v15h30v-15zM202.5 0h-30v15h30v-15zM90 -30h-30v15h30v-15zM135 -30h-30v15h30v-15zM180 -30h-30v15h30v-15z" />
    <glyph glyph-name="uniE01E" unicode="&#xe01e;" 
d="M130.5 90v52.5h-21v-52.5h21zM130.5 60v15h-21v-15h21zM194.406 52.7607c1.7627 -3.50684 -0.609375 -7.76074 -4.32812 -7.76074h-140.155c-3.71973 0 -6.0918 4.25391 -4.3291 7.76074l70.0771 124.471c1.85742 3.69141 6.80078 3.69141 8.65625 0zM67.5 15h-30v15h30
v-15zM112.5 15h-30v15h30v-15zM157.5 15h-30v15h30v-15zM202.5 15h-30v15h30v-15zM90 -15h-30v15h30v-15zM135 -15h-30v15h30v-15zM180 -15h-30v15h30v-15zM240 -60h-240v135h15v-120h210v120h15v-135z" />
    <glyph glyph-name="uniE01F" unicode="&#xe01f;" 
d="M190.085 119.51l-69.4893 -68.5518l-69.4893 68.5518l19.6992 19.9199l34.1943 -33.6484v74.2188h30v-75.3965l35.3848 34.8262zM67.5 15h-30v15h30v-15zM112.5 15h-30v15h30v-15zM157.5 15h-30v15h30v-15zM202.5 15h-30v15h30v-15zM90 -15h-30v15h30v-15zM135 -15h-30
v15h30v-15zM180 -15h-30v15h30v-15zM240 -60h-240v135h15v-120h210v120h15v-135z" />
    <glyph glyph-name="uniE020" unicode="&#xe020;" 
d="M120 105v-15h-60v15h60zM60 -30v15h120v-15h-120zM120 120h-60v15h60v-15zM210 -15v-45h-180v45h15v-30h150v30h15zM45 90h-15v90h116.155l63.8447 -65.2998v-24.7002h-15v15h-60v60h-90v-75zM240 0h-240v75h240v-75z" />
    <glyph glyph-name="uniE021" unicode="&#xe021;" 
d="M1.10547 91.0381l89.126 87.873l49.2686 -48.5771l-25.6955 -25.334h41.3472l43.0807 42.4756l40.2676 -39.7002l-61.3047 -59.6943l-38.6826 40.5137l1.42529 1.40527h-19.938v-90l37.5201 5.08274e-16l40.7113 40.1387l40.1982 -39.6328l-59.8477 -59.0059
l-40.1982 39.6328l3.92236 3.86719h-35.8061v105h-7.90954l-48.2164 -47.5381z" />
    <glyph glyph-name="uniE022" unicode="&#xe022;" 
d="M24.4023 91.0381l25.9717 -25.6084l65.8291 64.9043l-25.9717 25.6074zM1.10547 91.0381l89.126 87.873l49.2686 -48.5771l-25.6955 -25.334h41.3472l43.0807 42.4756l40.2676 -39.7002l-61.3047 -59.6943l-38.6826 40.5137l1.42529 1.40527h-19.938v-90
l37.5201 5.08274e-16l40.7113 40.1387l40.1982 -39.6328l-59.8477 -59.0059l-40.1982 39.6328l3.92236 3.86719h-35.8061v105h-7.90954l-48.2164 -47.5381zM161.707 88.251l15.9248 -16.6787l37.252 36.2715l-16.6494 16.418zM161.908 -18.8672l16.6738 -16.4395
l36.3242 35.8125l-16.6748 16.4395z" />
    <glyph glyph-name="uniE023" unicode="&#xe023;" 
d="M40.9561 -29.1709l-5.40332 5.61523c-19.4808 20.2421 -32.3496 47.5981 -35.3937 75.9772c-0.137659 0 -0.275317 -0.000590451 -0.412976 -0.000590451l0.258789 7.76074c0.965947 29.0055 11.8049 56.4412 30.6881 78.0243l-0.253534 0.257944l5.16895 5.25684
c21.1595 21.523 49.0114 34.2712 78.7451 36.1142v0.321374l7.75879 -0.267578c28.499 -0.982012 55.449 -11.9658 76.668 -31.1012l0.262661 0.267212l5.34668 -5.44141c20.2448 -20.5994 32.5779 -47.4275 35.1632 -76.1836h0.701088l-0.258789 -7.75098
c-0.964886 -28.9718 -11.7811 -56.3781 -30.6259 -77.9509l0.189331 -0.192624l-5.16895 -5.25781c-21.2068 -21.571 -49.1387 -34.3283 -78.9502 -36.1249v-0.308719l-7.75977 0.267578c-28.4239 0.979423 -55.3069 11.908 -76.5001 30.95zM159.988 99.0166
c-10.3516 10.5273 -24.0508 16.7949 -38.5771 17.6553l-3.0355 0.179349c0 -0.0239759 0.00425007 -0.0479517 0.00425007 -0.0719276c-14.5273 -0.859375 -28.2266 -7.12891 -38.5771 -17.6553l-0.105495 -0.107306l0.107448 -0.105585
c-10.1211 -10.2998 -15.9365 -23.9033 -16.8164 -39.3389l-0.318261 -5.57227h0.32998c2.08496 -12.7754 8.02539 -23.1719 16.8604 -32.3535l5.00391 -5.2002l-0.0307917 -0.0319902c9.57504 -7.76449 21.2668 -12.3576 33.5484 -13.0842l3.24314 -0.191618
c0 0.0274142 -0.00485958 0.0548285 -0.00485958 0.0822427c14.5264 0.857422 28.2256 7.12598 38.5752 17.6533l0.037613 0.0382515l-0.0385896 0.0379203c10.2882 10.4722 16.4529 24.3217 17.3828 39.0345c-0.928218 14.7126 -7.09291 28.5638 -17.3828 39.0348
l-0.0997881 0.101561zM74.4004 5.57519l-22.8108 -23.6986c16.5649 -14.7375 37.0291 -23.8527 58.8498 -26.2193v33.46c-13.2426 2.08208 -25.6821 7.76262 -36.039 16.458zM125.439 -11.5203v-33.2965c23.3334 1.60976 45.3191 10.9024 62.9121 26.5317l-23.0781 23.4785
c-11.3651 -9.43229 -25.1989 -15.2576 -39.834 -16.7137zM175.773 15.9084l23.0466 -23.4475c14.4417 16.8888 23.3614 37.7404 25.655 59.9698h-32.6338c-2.02305 -13.4068 -7.56964 -26.0115 -16.0678 -36.5223zM191.854 67.4297h32.6307
c-2.27554 22.254 -11.1859 43.1288 -25.6312 60.0371l-23.0488 -23.4482c8.50104 -10.5296 14.0422 -23.1584 16.0493 -36.5889zM165.179 114.603l23.0747 23.4746c-16.5741 14.7641 -37.0585 23.8957 -58.8998 26.2647v-33.46
c13.1517 -2.06778 25.5105 -7.68479 35.8251 -16.2793zM114.354 131.499v33.3029c-23.2564 -1.65031 -45.1641 -10.9342 -62.7051 -26.5172l23.0781 -23.4785c11.3115 9.3878 25.0685 15.2025 39.627 16.6928zM15.1583 52.4429
c2.43741 -22.33 11.859 -42.817 25.993 -59.7808l23.1279 24.0283c-7.96126 9.99222 -13.655 22.9222 -16.0176 35.7998zM64.3054 104.009l-23.0632 23.4644c-14.4761 -16.8978 -23.4174 -37.7728 -25.7168 -60.0318l33.1973 0.0478516
c1.97544 13.6142 7.35411 26.218 15.5827 36.5196z" />
    <glyph glyph-name="uniE024" unicode="&#xe024;" 
d="M165.554 92.6953l44.6025 44.6025c16.8105 -19.7041 26.9863 -44.0186 29.2676 -69.7979h-62.9189c-1.69531 9.11816 -5.42969 17.7363 -10.9512 25.1953zM31.9385 -19.7051c-17.4258 19.792 -28.7656 45.5664 -31.5723 72.2051h63.0361
c1.96582 -10.3828 6.61133 -19.291 13.3672 -27.373zM199.66 148.017l-44.5479 -44.5479c-7.98047 6.54688 -17.4785 10.8838 -27.6123 12.5742v63.6016c27.0166 -2.14941 52.2451 -13.2656 72.1602 -31.6279zM112.5 -59.6562
c-25.9834 2.02148 -50.3086 12.3535 -69.8711 29.4297l44.7119 44.7119c7.45312 -5.44336 16.0498 -9.06934 25.1592 -10.5557v-63.5859zM154.422 15.7217l44.5469 -44.5469c-20.0322 -18.0137 -45.0146 -28.7393 -71.4688 -30.7832v63.54
c9.76758 1.57324 19.0186 5.61719 26.9219 11.79zM41.8203 149.536c19.8975 17.5859 44.5732 28.0547 70.6797 30.0723v-63.54c-9.41895 -1.5166 -18.3496 -5.34473 -26.0625 -11.1475zM63.8037 67.5h-63.4482c2.49414 26.6836 13.3174 51.582 30.9297 71.3584
l44.4824 -44.4824c-6.06445 -7.62695 -10.126 -16.7373 -11.9639 -26.876zM239.652 52.5c-2.43359 -26.3447 -12.9795 -50.958 -30.1699 -70.626l-44.5156 44.5156c5.92383 7.62109 9.98145 16.5615 11.7979 26.1104h62.8877z" />
    <glyph glyph-name="uniE025" unicode="&#xe025;" 
d="M74.8906 38.3135c-15.1416 0 -27.459 -12.3066 -27.459 -27.4326s12.3174 -27.4316 27.459 -27.4316c15.1406 0 27.459 12.3057 27.459 27.4316s-12.3193 27.4326 -27.459 27.4326zM90.8594 -42.4336c-5.16602 -1.52832 -10.5342 -2.30371 -15.9707 -2.30371
c-5.43555 0 -10.8037 0.775391 -15.9697 2.30371l-8.67188 -15.8838c-0.716797 -1.3125 -2.375 -1.78027 -3.67188 -1.03418l-17.8291 10.2402c-1.25684 0.72168 -1.70703 2.31543 -1.0127 3.58789l8.7373 16.0039c-7.9541 7.48438 -13.459 16.9629 -15.9746 27.5039
h-17.8271c-1.47363 0 -2.66895 1.19336 -2.66895 2.66504v20.4658c0 1.47168 1.19434 2.66602 2.66895 2.66602h17.8252c2.51465 10.54 8.01953 20.0186 15.9756 27.5039l-8.69434 15.4756c-0.71582 1.27441 -0.271484 2.8877 0.998047 3.61523l17.8301 10.2402
c1.28711 0.739258 2.93066 0.286133 3.65723 -1.00684l8.65918 -15.4121c5.16602 1.52832 10.5342 2.30371 15.9707 2.30371c5.43555 0 10.8057 -0.775391 15.9707 -2.30371l9.1543 15.4922c0.742188 1.25684 2.36133 1.68359 3.62793 0.955078l17.8311 -10.2402
c1.28809 -0.740234 1.72363 -2.38867 0.967773 -3.66602l-9.13281 -15.4531c7.95508 -7.48535 13.46 -16.9639 15.9736 -27.5039h17.8262c1.47266 0 2.66895 -1.19434 2.66895 -2.66602v-20.4658c0 -1.47168 -1.19434 -2.66504 -2.66895 -2.66504h-17.8262
c-2.51367 -10.541 -8.01855 -20.0195 -15.9736 -27.5039l9.17773 -15.9814c0.733398 -1.27637 0.291992 -2.9043 -0.984375 -3.6377l-17.8301 -10.2402c-1.27832 -0.735352 -2.91211 -0.293945 -3.64551 0.984375zM100.5 127.5c0 -9.94043 -8.05957 -18 -18 -18
s-18 8.05957 -18 18s8.05957 18 18 18s18 -8.05957 18 -18zM120 135h90v-15h-90v15zM141.03 40.2812c-0.720703 1.60449 -1.51855 3.17188 -2.35352 4.71875h71.3232v-15h-45.9209c-3.20898 6.10352 -9.60645 10.2812 -16.9678 10.2812h-6.08105zM120.483 90h89.5166v-15
h-71.9893c-1.57812 4.05859 -4.52246 7.53125 -8.31934 9.71289zM240 180v-210h-105.476c2.5127 3.62695 4.70215 7.46094 6.50391 11.4824h6.08105c4.10742 0 7.90625 1.30957 11.0293 3.51758h66.8613v180h-180v-67.7793
c-2.31934 -0.359375 -4.56934 -1.12207 -6.61621 -2.2959l-8.38379 -4.81543v89.8906h210z" />
    <glyph glyph-name="uniE026" unicode="&#xe026;" 
d="M75 31.5h-15v30.0361l-25.3018 -15.2656l-7.74902 12.8447l25.2256 15.2188l-25.2256 15.2178l7.74902 12.8447l25.3018 -15.2656v29.8691h15v-28.8965l23.6885 14.293l7.74805 -12.8447l-25.2246 -15.2197l25.2246 -15.2168l-7.74805 -12.8447l-23.6885 14.292v-29.0625
zM180 31.5h-15v29.4707l-24.3643 -14.7002l-7.74902 12.8447l25.2256 15.2188l-25.2256 15.2178l7.74902 12.8447l24.3643 -14.7002v29.3037h15v-29.4619l24.626 14.8584l7.74805 -12.8447l-25.2246 -15.2197l25.2246 -15.2188l-7.74805 -12.8447l-24.626 14.8594v-29.6279z
M15 -0.100586h45.0527v-32.9043l66.1602 32.9043h98.7871v150.101h-210v-150.101zM45.0527 -57.2178v42.1172h-45.0527v180.101h240v-180.101h-110.264z" />
    <glyph glyph-name="uniE027" unicode="&#xe027;" 
d="M83.5352 20.4521h-15v24.3301l-16.4961 -11.4521l-8.55371 12.3213l18.9912 13.1875l-18.9912 13.1855l8.55371 12.3203l16.4961 -11.4541v24.0918h15v-23.5215l15.6768 10.8838l8.55371 -12.3203l-18.9912 -13.1865l18.9912 -13.1885l-8.55371 -12.3213
l-15.6768 10.8857v-23.7617zM171.157 20.4521h-15v24.3301l-16.4951 -11.4521l-8.55469 12.3213l18.9912 13.1875l-18.9912 13.1865l8.55469 12.3213l16.4951 -11.4541v24.0898h15v-23.5215l15.6768 10.8838l8.55469 -12.3203l-18.9912 -13.1865l18.9912 -13.1885
l-8.55469 -12.3213l-15.6768 10.8848v-23.7607zM15.3965 8.97754l-14.4502 4.02734l28.25 101.351l14.4492 -4.02734zM210.758 6.9873l-14.4502 4.02734l28.25 101.351l14.4492 -4.02734z" />
    <glyph glyph-name="uniE028" unicode="&#xe028;" 
d="M123 30v67.5h-21v-67.5h21zM123 0v15h-21v-15h21zM112.5 120c37.2793 0 67.5 -30.2207 67.5 -67.5s-30.2207 -67.5 -67.5 -67.5s-67.5 30.2207 -67.5 67.5s30.2207 67.5 67.5 67.5zM195 -45v165l-45 -0.1875v45.1875h-120v-210h165zM15 180h140.438l54.5625 -54.75
v-185.25h-195v240z" />
    <glyph glyph-name="uniE029" unicode="&#xe029;" 
d="M123 30v52.5h-21v-52.5h21zM123 0v15h-21v-15h21zM179.406 -7.23926c1.7627 -3.50684 -0.609375 -7.76074 -4.32812 -7.76074h-125.155c-3.71875 0 -6.0918 4.25391 -4.32715 7.76074l62.5771 124.471c1.85645 3.69141 6.80078 3.69141 8.65625 0zM195 -45v165
l-45 -0.1875v45.1875h-120v-210h165zM15 180h140.438l54.5625 -54.75v-185.25h-195v240z" />
    <glyph glyph-name="uniE02A" unicode="&#xe02a;" 
d="M0 -45v105h105v-105h-105zM120 -45v105h105v-105h-105zM120 75v105h105v-105h-105z" />
    <glyph glyph-name="uniE02B" unicode="&#xe02b;" 
d="M15 -30h75v75h-75v-75zM105 -45h-105v105h105v-105zM135 -30h75v75h-75v-75zM225 -45h-105v105h105v-105zM135 90h75v75h-75v-75zM225 75h-105v105h105v-105z" />
    <glyph glyph-name="uniE02C" unicode="&#xe02c;" 
d="M195 75v30h-150v-30h150zM195 15v30h-150v-30h150zM202.249 165c20.8164 0 37.751 -16.9346 37.751 -37.751v-134.498c0 -20.8164 -16.9346 -37.751 -37.749 -37.751h-164.5c-20.8164 0 -37.751 16.9346 -37.751 37.749v134.5c0 20.8164 16.9346 37.751 37.751 37.751
h164.498z" />
    <glyph glyph-name="uniE02D" unicode="&#xe02d;" 
d="M195 15h-150v30h150v-30zM195 75h-150v30h150v-30zM37.751 150c-12.5449 0 -22.751 -10.2061 -22.751 -22.751v-134.5c0 -12.543 10.2061 -22.749 22.751 -22.749h164.5c12.5449 0 22.751 10.2061 22.751 22.751v134.498
c-0.00195312 12.5449 -10.208 22.751 -22.7529 22.751h-164.498zM202.249 -45h-164.498c-20.8164 0 -37.751 16.9346 -37.751 37.751v134.498c0 20.8164 16.9346 37.751 37.751 37.751h164.5c20.8145 0 37.749 -16.9346 37.749 -37.751v-134.5
c0 -20.8145 -16.9346 -37.749 -37.751 -37.749z" />
    <glyph glyph-name="uniE02E" unicode="&#xe02e;" 
d="M225 165v-15h-150v15h150zM75 105h150v-15h-150v15zM117.612 19.2256l-11.4893 -11.4883l44.6406 -44.6406l44.2344 44.2354l-11.4863 11.4873l-32.7471 -32.7471zM75 -60v105h150v-105h-150zM37.5 138c-10.752 0 -19.5 8.74805 -19.5 19.5s8.74805 19.5 19.5 19.5
s19.5 -8.74805 19.5 -19.5s-8.74805 -19.5 -19.5 -19.5zM37.5 78c-10.752 0 -19.5 8.74805 -19.5 19.5s8.74805 19.5 19.5 19.5s19.5 -8.74805 19.5 -19.5s-8.74805 -19.5 -19.5 -19.5zM37.5 18c-10.752 0 -19.5 8.74805 -19.5 19.5s8.74805 19.5 19.5 19.5
s19.5 -8.74805 19.5 -19.5s-8.74805 -19.5 -19.5 -19.5z" />
    <glyph glyph-name="uniE02F" unicode="&#xe02f;" 
d="M186.054 4.82129l-35.3018 -35.3047l-35.6797 35.6797l10.6064 10.6064l25.0713 -25.0713l24.6973 24.6963zM90 30v-75h120v75h-120zM225 45v-105h-150v105h150zM225 105v-15h-150v15h150zM225 150h-150v15h150v-15zM37.5 45c-4.13574 0 -7.5 -3.36426 -7.5 -7.5
s3.36426 -7.5 7.5 -7.5s7.5 3.36426 7.5 7.5s-3.36426 7.5 -7.5 7.5zM37.5 15c-12.4062 0 -22.5 10.0938 -22.5 22.5s10.0938 22.5 22.5 22.5s22.5 -10.0938 22.5 -22.5s-10.0938 -22.5 -22.5 -22.5zM37.5 105c-4.13574 0 -7.5 -3.36426 -7.5 -7.5s3.36426 -7.5 7.5 -7.5
s7.5 3.36426 7.5 7.5s-3.36426 7.5 -7.5 7.5zM37.5 75c-12.4062 0 -22.5 10.0938 -22.5 22.5s10.0938 22.5 22.5 22.5s22.5 -10.0938 22.5 -22.5s-10.0938 -22.5 -22.5 -22.5zM37.5 165c-4.13574 0 -7.5 -3.36426 -7.5 -7.5s3.36426 -7.5 7.5 -7.5s7.5 3.36426 7.5 7.5
s-3.36426 7.5 -7.5 7.5zM37.5 135c-12.4062 0 -22.5 10.0938 -22.5 22.5s10.0938 22.5 22.5 22.5s22.5 -10.0938 22.5 -22.5s-10.0938 -22.5 -22.5 -22.5z" />
    <glyph glyph-name="uniE030" unicode="&#xe030;" 
d="M202.528 150c20.6943 0 37.4717 -17.2002 37.4717 -38.418v-103.164c0 -21.2178 -16.7773 -38.418 -37.4727 -38.418h-165.056c-20.6943 0 -37.4717 17.2002 -37.4717 38.416v103.166c0 21.2178 16.7773 38.418 37.4717 38.418h165.057z" />
    <glyph glyph-name="uniE031" unicode="&#xe031;" 
d="M240 60h-150v120h150v-120zM196.159 127.5c-9.51074 0 -17.25 7.73828 -17.25 17.25s7.73926 17.25 17.25 17.25c9.51172 0 17.25 -7.73828 17.25 -17.25s-7.73828 -17.25 -17.25 -17.25zM74.7842 45h135.216v-69.7842c0 -19.4492 -15.7363 -35.2158 -35.1484 -35.2158
h-139.705c-19.4102 0 -35.1465 15.7666 -35.1465 35.2168v94.5674c0 19.4492 15.7363 35.2158 35.1465 35.2158h39.6377v-60zM105 108.812c8.95508 10.915 16.9844 16.5361 24.4453 17.1348c0.445312 0.0361328 0.900391 0.0537109 1.34863 0.0537109
c9.82227 0 18.9746 -8.36816 29.5742 -18.0566c7.02148 -6.41895 14.9463 -13.6621 24.1104 -19.2031l2.75586 4.04199c-6.50098 3.97852 -12.1533 8.71973 -16.3975 12.4561l-0.850586 0.749023l0.876953 0.724609c7.26367 5.99707 13.958 8.94824 20.4658 9.02246
l0.250977 0.000976562c11.1357 0 21.5439 -8.41895 33.4199 -18.4766v67.7412h-120v-56.1885z" />
    <glyph glyph-name="uniE032" unicode="&#xe032;" 
d="M105 75h120v18.0871c-18.7784 16.1291 -32.2911 24.9199 -49.5439 12.0086c7.99414 -6.80859 16.5225 -12.9521 26.501 -16.2422l-3.75879 -11.3965c-16.2002 5.3418 -28.7178 16.6904 -39.7627 26.7041c-11.2109 10.166 -20.874 18.9473 -30.4971 17.9385
c-6.92513 -0.724672 -14.4522 -6.416 -22.9385 -17.3649v-29.7347zM240 60h-150v120h150v-120zM196.159 150c-2.89453 0 -5.25 -2.35547 -5.25 -5.25s2.35547 -5.25 5.25 -5.25c2.89551 0 5.25 2.35547 5.25 5.25s-2.35449 5.25 -5.25 5.25zM196.159 127.5
c-9.51074 0 -17.25 7.73828 -17.25 17.25s7.73926 17.25 17.25 17.25c9.51172 0 17.25 -7.73828 17.25 -17.25s-7.73828 -17.25 -17.25 -17.25zM193.5 45h16.502v-61.8535c0 -23.792 -19.3564 -43.1465 -43.1465 -43.1465h-123.709
c-23.792 0 -43.1465 19.3545 -43.1465 43.1445v93.709c0 23.792 19.3545 43.1465 43.1465 43.1465h31.8535v-16.5h-31.8535c-14.6934 0 -26.6465 -11.9531 -26.6465 -26.6465v-93.707c0 -14.6934 11.9531 -26.6465 26.6465 -26.6465h123.707
c14.6934 0 26.6465 11.9531 26.6465 26.6465v61.8535zM225 108.699v56.301h-120v-42.2822c7.27932 6.88465 14.367 10.5504 21.6865 11.3173c14.8838 1.55273 26.9209 -9.29688 39.6533 -20.8389c22.5707 18.3242 42.0785 8.57473 58.6602 -4.49726z" />
    <glyph glyph-name="uniE033" unicode="&#xe033;" 
d="M173.245 18.04l45.9482 45.8809l-11.667 11.6504l-34.2812 -34.2295l-34.7812 34.7305l-11.667 -11.6504zM204.979 135c19.2422 0 34.8408 -15.5762 34.8408 -34.7891v-95.4219c0 -19.2129 -15.5986 -34.7891 -34.8408 -34.7891h-99.9795v165h99.9795zM90 135v-165
h-54.9795c-19.2422 0 -34.8408 15.5762 -34.8408 34.7891v95.4219c0 19.2129 15.5986 34.7891 34.8408 34.7891h54.9795z" />
    <glyph glyph-name="uniE034" unicode="&#xe034;" 
d="M197.356 -13.6367c14.4717 0 26.2451 11.75 26.2451 26.1914v94.8906c0 14.4414 -11.7734 26.1914 -26.2451 26.1914h-90.8564v-147.273h90.8564zM165.745 25.4893l-46.4482 46.4492l11.667 11.6689l34.7812 -34.7822l34.2812 34.2793l11.667 -11.667zM43.002 -30
c-23.7119 0 -43.002 19.249 -43.002 42.9121v94.1758c0 23.6631 19.29 42.9121 43.002 42.9121h46.998h9.87598h97.1221c23.7119 0 43.002 -19.249 43.002 -42.9121v-94.1748c0 -23.6641 -19.29 -42.9131 -43.002 -42.9131h-97.1221h-9.87598h-46.998zM90 -13.6367v147.273
h-47.3564c-14.4717 0 -26.2451 -11.75 -26.2451 -26.1914v-94.8906c0 -14.4414 11.7734 -26.1914 26.2451 -26.1914h47.3564z" />
    <glyph glyph-name="uniE035" unicode="&#xe035;" 
d="M43.1465 133.5c-14.6934 0 -26.6465 -11.9531 -26.6465 -26.6465v-93.709c0 -14.6914 11.9531 -26.6445 26.6465 -26.6445h153.709c14.6924 0 26.6465 11.9531 26.6465 26.6465v93.707c-0.00195312 14.6934 -11.9551 26.6465 -26.6484 26.6465h-153.707zM196.854 -30
h-153.707c-23.792 0 -43.1465 19.3545 -43.1465 43.1465v93.707c0 23.792 19.3545 43.1465 43.1465 43.1465h153.709c23.79 0 43.1445 -19.3545 43.1445 -43.1465v-93.709c0 -23.79 -19.3545 -43.1445 -43.1465 -43.1445z" />
    <glyph glyph-name="uniE036" unicode="&#xe036;" 
d="M240 -15v-30h-60v30h60zM165 -15v-30h-60v30h60zM90 -15v-30h-60v30h60zM240 30v-30h-60v30h60zM165 30v-30h-60v30h60zM90 30v-30h-60v30h60zM240 75v-30h-60v30h60zM165 75v-30h-60v30h60zM90 45h-60v30h60v-30zM180 103.551l35.3779 34.3154l-10.4453 10.7676
l-24.9326 -24.1846l-24.9326 24.1846l-10.4453 -10.7676zM0 165h240v-75h-240v75z" />
    <glyph glyph-name="uniE037" unicode="&#xe037;" 
d="M180 97.5508l-35.3779 34.3154l10.4453 10.7676l24.9326 -24.1846l24.9326 24.1846l10.4453 -10.7676zM120 0h45v30h-45v-30zM240 -60h-195v135h-45v90h240v-75v-15v-135zM180 75v-30h45v30h-45zM165 75h-45v-30h45v30zM105 75h-45v-30h45v30zM225 30h-45v-30
l45 -1.249e-15v30zM225 -15h-45v-30h45v30zM225 90v60h-210v-60h30h15h165zM165 -45v30h-45v-30h45zM105 -45v30h-45v-30h45zM60 2.498e-15l45 -2.498e-15v30h-45v-30z" />
    <glyph glyph-name="uniE038" unicode="&#xe038;" 
d="M35.8623 64.0107l13.8896 13.6846l51.3271 -52.0918l90.8896 90.8906l13.7891 -13.7891l-104.781 -104.781zM16.5 -43.5h207v207h-207v-207zM240 -60h-240v240h240v-240z" />
    <glyph glyph-name="uniE039" unicode="&#xe039;" 
d="M100.97 -4.2041l106.909 106.909l-15.9092 15.9092l-90.8818 -90.8818l-51.3193 52.084l-16.0273 -15.79zM0 180h240v-240h-240v240z" />
    <glyph glyph-name="uniE03A" unicode="&#xe03a;" 
d="M180.367 33.1875l40.1328 40.1338l-12.9238 12.9209l-27.21 -27.21l-27.5684 27.5703l-12.9229 -12.9229zM120 135h120v-150h-120v150zM82.5 94.001v6.99805c0 2.20996 -1.79102 4.00098 -4.00098 4.00098h-7.5c-7.24023 0 -13.7842 -2.96582 -18.499 -7.74121
c-4.71289 4.77539 -11.2578 7.74121 -18.499 7.74121h-7.5c-2.20996 0 -4.00098 -1.79102 -4.00098 -3.99902v-7c0 -2.20996 1.79102 -4.00098 4.00098 -4.00098h7.5c6.07422 0 10.999 -4.9248 10.999 -10.999v-38c0 -6.0752 -4.9248 -10.999 -10.999 -10.999h-7.5
c-2.20996 0 -4.00098 -1.79102 -4.00098 -4.00098v-7c0 -2.20996 1.79102 -4.00098 4.00098 -4.00098h7.5c7.24023 0 13.7842 2.96582 18.499 7.74121c4.71289 -4.77539 11.2578 -7.74121 18.499 -7.74121h7.5c2.20996 0 4.00098 1.79102 4.00098 4.00098v7
c0 2.20996 -1.79102 4.00098 -4.00098 4.00098h-7.5c-6.07422 0 -10.999 4.92383 -10.999 10.999v38c0 6.07422 4.9248 10.999 10.999 10.999h7.5c2.20996 0 4.00098 1.79102 4.00098 4.00098zM0 135h105v-150h-105v150z" />
    <glyph glyph-name="uniE03B" unicode="&#xe03b;" 
d="M85.999 90c-6.07422 0 -10.999 -4.9248 -10.999 -10.999v-38.002c0 -6.07422 4.9248 -10.999 10.999 -10.9971h7.5c2.20996 0 4.00098 -1.79102 4.00098 -4.00098v-7c0 -2.20996 -1.79102 -4.00098 -4.00098 -4.00098h-7.5c-7.24023 0 -13.7842 2.96582 -18.499 7.74121
c-4.71289 -4.77539 -11.2578 -7.74121 -18.499 -7.74121h-7.5c-2.20996 0 -4.00098 1.79102 -4.00098 4.00098v7c0 2.20996 1.79102 4.00098 4.00098 4.00098h7.5c6.07422 0 10.999 4.92383 10.999 10.999v38c0 6.07422 -4.9248 10.999 -10.999 10.999h-7.5
c-2.20996 0 -4.00098 1.79102 -4.00098 3.99902v7c0 2.20996 1.79102 4.00098 4.00098 4.00098h7.5c7.24023 0 13.7842 -2.96582 18.499 -7.74121c4.71289 4.77539 11.2578 7.74121 18.499 7.74121h7.5c2.20996 0 4.00098 -1.79102 4.00098 -3.99902v-7
c0 -2.20996 -1.79102 -4.00098 -4.00098 -4.00098h-7.5zM180.35 38.7822l-36.5586 36.5596l11.668 11.667l24.8906 -24.8906l24.5664 24.5664l11.668 -11.668zM120 120h-105v-120l105 4.16334e-16v120zM135 120v-120h90v120h-90zM120 135h120v-150h-120h-120v150h120z" />
    <glyph glyph-name="uniE03C" unicode="&#xe03c;" 
d="M136.559 34.6279l39.0508 -77.4541l-33.1045 -16.4854l-39.5762 77.6924l-57.9287 -47.8652v207.758l163.036 -128.527z" />
    <glyph glyph-name="uniE03D" unicode="&#xe03d;" 
d="M143.756 -38.0098l14.833 7.39648l-35.8965 71.2871l56.9941 12.0703l-118.259 93.3428v-151.006l46.0918 38.1318zM102.185 7.46094l-57.1846 -47.3086v219.848l172.404 -136.08l-70.4355 -14.9189l33.7246 -66.9707l-44.1875 -22.0303z" />
    <glyph glyph-name="uniE03E" unicode="&#xe03e;" 
d="M240 135h-210v45h210v-45zM180 0v30h60v-30h-60zM180 45v30h60v-30h-60zM75 106.5c-16.3516 0 -31.7012 -4.33203 -45 -11.8789v25.3789h60v-14.751c-4.88379 0.80957 -9.89062 1.25098 -15 1.25098zM127.32 90c-6.82227 4.77344 -14.3174 8.63672 -22.3203 11.4229
v18.5771h60v-30h-37.6797zM180 120h60v-30h-60v30zM165 45h-3.57715c-3.87598 11.1318 -9.8418 21.2852 -17.4307 30h21.0078v-30zM111 0v15h-36v49.5h-15v-64.5h51zM75 90c41.4209 0 75 -33.5791 75 -75s-33.5791 -75 -75 -75s-75 33.5791 -75 75s33.5791 75 75 75z" />
    <glyph glyph-name="uniE03F" unicode="&#xe03f;" 
d="M74.9971 15v64.5146h15v-49.501l41.2451 0.0371094l0.0136719 -15zM82.5 90c-37.2197 0 -67.5 -30.2803 -67.5 -67.5s30.2803 -67.5 67.5 -67.5s67.5 30.2803 67.5 67.5s-30.2803 67.5 -67.5 67.5zM82.5 -60c-45.4902 0 -82.5 37.0098 -82.5 82.5s37.0098 82.5 82.5 82.5
s82.5 -37.0098 82.5 -82.5s-37.0098 -82.5 -82.5 -82.5zM120 112.517c-4.81543 2.00684 -9.83105 3.62207 -15 4.84473v17.6387h-45v-17.6387c-5.16895 -1.2207 -10.1846 -2.83594 -15 -4.84473v22.4834v15v30h195v-30v-15v-135h-62.6387
c1.15234 4.86914 1.93359 9.87891 2.32324 15c0.189453 2.47754 0.31543 4.97363 0.31543 7.5v-7.5h45v30h-45v-22.5c0 19.0977 -5.51074 36.8975 -15 51.9375v15.5625h-12.1816c-5.4834 5.71191 -11.6523 10.7549 -18.3809 15h30.5625v30h-45v-22.4834zM180 135v-30h45v30
h-45zM225 60v30h-45v-30h45z" />
    <glyph glyph-name="uniE040" unicode="&#xe040;" 
d="M222.319 51l9.82324 9.82324l-28.2148 28.2168l-28.2158 -28.2168l9.82324 -9.82324l18.3926 18.3926zM203.927 -45l28.2148 28.2168l-9.82324 9.82324l-18.3916 -18.3926l-18.3936 18.3926l-9.82324 -9.82324zM165 105h75v-165h-75v165zM30 -15v-15h90v15h-90zM30 15
v-15h90v15h-90zM30 45v-15h90v15h-90zM30 75v-15h90v15h-90zM0 -60v165h150v-165h-150zM194.927 130.5l28.2158 28.2168l-9.82324 9.82324l-18.3926 -18.3926l-18.3936 18.3926l-9.82324 -9.82324zM0 180h240v-60h-240v60z" />
    <glyph glyph-name="uniE041" unicode="&#xe041;" 
d="M220.273 -16.2734l-24.7705 -24.7744l-24.7744 24.7744l9.5459 9.5459l15.2266 -15.2266l15.2266 15.2266zM180.273 64.2266l-9.54688 9.54688l24.7744 24.7734l24.7725 -24.7734l-9.5459 -9.54688l-15.2266 15.2266zM195.499 125.454l-24.7725 24.7725l9.54688 9.54785
l15.2256 -15.2285l15.2266 15.2285l9.54785 -9.54785zM129 75h-90v15h90v-15zM129 45h-90v15h90v-15zM129 15h-90v15h90v-15zM129 -15h-90v15h90v-15zM240 -60h-240v165v37.5v37.5h240v-37.5v-37.5v-165zM225 105h-60v-150h60v150zM225 142.5v22.5h-210v-22.5v-22.5h210
v22.5zM150 105h-135v-150h135v150z" />
    <glyph glyph-name="uniE042" unicode="&#xe042;" 
d="M30 22.5v75h75v-75h-75zM175.999 90c-6.07422 0 -10.999 -4.9248 -10.999 -10.999v-38c0 -6.0752 4.9248 -10.999 10.999 -10.999h7.5c2.20996 0 4.00098 -1.79102 4.00098 -4.00098v-7c0 -2.20996 -1.79102 -4.00098 -4.00098 -4.00098h-7.5
c-7.24023 0 -13.7842 2.96582 -18.499 7.74121c-4.71289 -4.77539 -11.2578 -7.74121 -18.499 -7.74121h-7.5c-2.20996 0 -4.00098 1.79102 -4.00098 4.00098v7c0 2.20996 1.79102 4.00098 4.00098 4.00098h7.5c6.07422 0 10.999 4.92383 10.999 10.999v38
c0 6.07422 -4.9248 10.999 -10.999 10.999h-7.5c-2.20996 0 -4.00098 1.79102 -4.00098 3.99902v7c0 2.20996 1.79102 4.00098 4.00098 4.00098h7.5c7.24023 0 13.7842 -2.96582 18.499 -7.74023c4.71289 4.77637 11.2578 7.74219 18.499 7.74219h7.5
c2.20996 0 4.00098 -1.79102 4.00098 -4.00098v-7c0 -2.20996 -1.79102 -4.00098 -4.00098 -4.00098h-7.5zM15 0h210v120h-210v-120zM240 -15h-240v150h240v-150z" />
    <glyph glyph-name="uniE043" unicode="&#xe043;" 
d="M213 86.501v7c0 2.20996 -1.79102 4.00098 -4.00098 4.00098h-3c-7.24023 0 -13.7842 -2.96582 -18.499 -7.74219c-4.71289 4.77637 -11.2578 7.74219 -18.499 7.74219h-3c-2.20996 0 -4.00098 -1.79102 -4.00098 -4.00098v-7
c0 -2.20996 1.79102 -4.00098 4.00098 -4.00098h3c6.07422 0 10.999 -4.9248 10.999 -10.999v-38c0 -6.0752 -4.9248 -10.999 -10.999 -10.999h-3c-2.20996 0 -4.00098 -1.79102 -4.00098 -4.00098v-7c0 -2.20996 1.79102 -4.00098 4.00098 -4.00098h3
c7.24023 0 13.7842 2.96582 18.499 7.74121c4.71289 -4.77539 11.2578 -7.74121 18.499 -7.74121h3c2.20996 0 4.00098 1.79102 4.00098 4.00098v7c0 2.20996 -1.79102 4.00098 -4.00098 4.00098h-3c-6.07422 0 -10.999 4.92383 -10.999 10.999v38
c0 6.07422 4.9248 10.999 10.999 10.999h3c2.20996 0 4.00098 1.79102 4.00098 4.00098zM135 15v75h-105v-75h105zM0 120h240v-135h-240v135z" />
    <glyph glyph-name="uniE044" unicode="&#xe044;" 
d="M240 -30v-15h-15v15h15zM240 0v-15h-15v15h15zM240 30v-15h-15v15h15zM240 60v-15h-15v15h15zM240 90v-15h-15v15h15zM240 120v-15h-15v15h15zM240 150v-15h-15v15h15zM240 180v-15h-15v15h15zM210 180v-15h-15v15h15zM180 180v-15h-15v15h15zM150 180v-15h-15v15h15z
M120 180v-15h-15v15h15zM90 180v-15h-15v15h15zM30 165h-15v15h15v-15zM60 165h-15v15h15v-15zM45 -15h120v120h-120v-120zM0 150h210v-210h-210v210z" />
    <glyph glyph-name="uniE045" unicode="&#xe045;" 
d="M202.5 120v-15h-48v10.002l28.0068 49.998h-28.0068v15h48v-10.002l-28.0068 -49.998h28.0068zM127.5 134.991v-29.9912h-15v28.9316l-21.3271 38.4287l13.1162 7.2793l15.5088 -27.9463l16.1992 28.1885l13.0059 -7.47363zM73.8926 104.116l-14.2373 23.5244
l-14.2383 -23.5244l-12.832 7.76758l18.3027 30.2412l-18.3027 30.2412l12.832 7.76758l14.2383 -23.5244l14.2393 23.5244l12.832 -7.76758l-18.3057 -30.2412l18.3047 -30.2412zM240 -45h-240v195h30v-15h-15v-165h210v165h-15v15h30v-195z" />
    <glyph glyph-name="uniE046" unicode="&#xe046;" 
d="M72.375 -60h-39.75c-17.9893 0 -32.625 14.6357 -32.625 32.625v24.75c0 17.9893 14.6357 32.625 32.625 32.625h21.375v-15h-21.375c-9.71875 0 -17.625 -7.90625 -17.625 -17.625v-24.75c0 -9.71875 7.90625 -17.625 17.625 -17.625h39.75
c9.71875 0 17.625 7.90625 17.625 17.625v25.875h15v-25.875c0 -17.9893 -14.6357 -32.625 -32.625 -32.625zM132.375 -60h-19.875v15h19.875c9.71875 0 17.625 7.90625 17.625 17.625v24.75c0 9.71875 -7.90625 17.625 -17.625 17.625h-39.75
c-9.71875 0 -17.625 -7.90625 -17.625 -17.625v-25.875h-15v25.875c0 17.9893 14.6357 32.625 32.625 32.625h39.75c17.9893 0 32.625 -14.6357 32.625 -32.625v-24.75c0 -17.9893 -14.6357 -32.625 -32.625 -32.625zM190.87 45h31.4795
c1.71484 7.22852 2.64844 14.7559 2.64844 22.5s-0.933594 15.2715 -2.64844 22.5h-31.6484c1.59863 -7.74902 2.46387 -15.4502 2.46387 -22.8701c0 -7.04102 -0.788086 -14.5039 -2.29492 -22.1299zM186.726 105h30.7656
c-11.3525 27.1377 -34.6367 48.0674 -63.2549 56.2422c13.8809 -14.625 25.6377 -35.0234 32.4893 -56.2422zM175.584 45c1.66699 7.50488 2.58105 14.9805 2.58105 22.1299c0 7.3584 -0.989258 15.0928 -2.78809 22.8701h-40.377v-45h40.584zM135 158.73v-53.7305h35.9414
c-7.81934 21.7617 -21.166 42.166 -35.9414 53.7305zM120 105v54.1094c-15.166 -11.5332 -28.9111 -32.1475 -36.9375 -54.1094h36.9375zM67.251 105c6.91211 21.082 18.7324 41.3779 32.6895 56.0088c-28.2422 -8.33887 -51.1875 -29.1318 -62.4297 -56.0088h29.7402z
M127.5 180c62.0322 0 112.5 -50.4678 112.5 -112.5c0 -43.4238 -24.7471 -81.1533 -60.8652 -99.8984c0.557617 3.05078 0.863281 6.1875 0.863281 9.39941v8.39551c16.6113 10.6543 29.793 26.2041 37.4902 44.6055h-30.4473
c-2.38184 -7.63965 -5.43262 -15.2734 -9.06152 -22.6582c-1.81641 6.3418 -4.80273 12.1875 -8.71777 17.2881c0.706055 1.77832 1.39062 3.56543 2.02148 5.36816h-6.75586c-9.3916 9.27148 -22.2881 15 -36.5283 15h-7.99902v45h-41.4521
c-1.83496 -7.78516 -2.84473 -15.5186 -2.84473 -22.8701c0 -7.14941 0.915039 -14.625 2.58203 -22.1299h-15.2852c-1.50586 7.62598 -2.29492 15.0869 -2.29492 22.1299c0 7.41309 0.881836 15.1182 2.50684 22.8701h-30.5625
c-1.71484 -7.22852 -2.64941 -14.7559 -2.64941 -22.5s0.93457 -15.2715 2.65039 -22.5h4.35059c-6.67871 0 -13.0547 -1.27246 -18.9199 -3.56543c-1.99316 8.37109 -3.08105 17.0928 -3.08105 26.0654c0 62.0322 50.4678 112.5 112.5 112.5z" />
    <glyph glyph-name="uniE047" unicode="&#xe047;" 
d="M183 103.5v18h-111v-18h46.5v-102h-46.5v-18h111v18h-46.5v102h46.5zM214.049 165c14.332 0 25.9512 -11.6191 25.9512 -25.9512v-173.098c0 -14.332 -11.6191 -25.9512 -25.9512 -25.9512h-173.098c-14.332 0 -25.9512 11.6191 -25.9512 25.9512v173.098
c0 14.332 11.6191 25.9512 25.9512 25.9512h173.098z" />
    <glyph glyph-name="uniE048" unicode="&#xe048;" 
d="M64.5 -16.5v18h46.5v117h-46.5v18h111v-18h-46.5v-117h46.5v-18h-111zM33.4512 165c-10.1729 0 -18.4512 -8.27832 -18.4512 -18.4512v-173.096c0 -10.1748 8.27832 -18.4531 18.4512 -18.4531h173.096c10.1748 0 18.4512 8.27832 18.4512 18.4512v173.098
c0.00195312 10.1729 -8.27637 18.4512 -18.4492 18.4512h-173.098zM206.549 -60h-173.098c-18.4453 0 -33.4512 15.0059 -33.4512 33.4512v173.098c0 18.4453 15.0059 33.4512 33.4512 33.4512h173.096c18.4473 0 33.4531 -15.0059 33.4531 -33.4512v-173.096
c0 -18.4473 -15.0059 -33.4531 -33.4512 -33.4531z" />
    <glyph glyph-name="uniE049" unicode="&#xe049;" 
d="M45 -15v-45h-45v45h45zM240 -15v-45h-45v45h45zM240 180v-45h-45v45h45zM45 135h-45v45h45v-45zM210 120h15v-120h-8.51855h-6.48145h-30v-30v-0.841797v-14.1582h-120v14.1582v0.841797v30h-30h-6.48145h-8.51855v120h15v-75.0161
c11.8324 15.5649 22.6574 23.6843 32.8271 24.685c0.71582 0.0693359 1.44531 0.105469 2.16797 0.105469c15.793 0 30.5146 -16.5098 47.5576 -35.625c11.29 -12.6631 24.0332 -26.9541 38.7705 -37.8848l4.43066 7.97559
c-10.4531 7.84668 -19.542 17.2041 -26.3682 24.5752l-1.36816 1.47754l1.41113 1.42871c11.6797 11.8311 22.4443 17.6543 32.9102 17.7998l0.40332 0.00292969c15.8511 0 30.7899 -13.02 47.2578 -29.7747v100.25zM60 150v15h120v-15h-120zM147.565 95.7852
c0 13.374 10.8408 24.2148 24.2148 24.2148c13.373 0 24.2139 -10.8408 24.2139 -24.2148c0 -13.373 -10.8408 -24.2139 -24.2139 -24.2139c-13.374 0 -24.2148 10.8408 -24.2148 24.2139z" />
    <glyph glyph-name="uniE04A" unicode="&#xe04a;" 
d="M45 -15v-45h-45v45h45zM240 -15v-45h-45v45h45zM240 180v-45h-45v45h45zM45 135h-45v45h45v-45zM180 -30v-15h-120v15h120zM30 0h-15v120h15v-61.6368c11.1054 12.3504 21.7806 18.7776 32.6699 19.8468c1.0625 0.103516 2.13867 0.15625 3.20215 0.15625
c20.1621 0 36.8271 -18.6426 54.4727 -38.3809l1.25 -1.39648c13.3516 13.3096 26.1602 19.8672 39.1377 20.0479l0.519531 0.00292969c17.716 0 32.8416 -11.571 48.748 -27.1569v88.5173h15v-120h-15v11.3568c-17.4499 18.0178 -32.8699 32.7447 -48.7324 32.7447
l-0.37793 -0.00292969c-9.33887 -0.128906 -19.0869 -5.36523 -29.7656 -16.001c6.4668 -6.94043 15.0469 -15.6895 24.8486 -23.0293l1.9834 -1.47852l-7.0127 -12.5898l-2.3457 1.74023c-14.6055 10.8027 -27.168 24.8545 -38.2529 37.252
c-16.2334 18.1592 -30.2451 33.833 -44.5273 33.833c-0.621094 0 -1.25098 -0.0302734 -1.87207 -0.0917969c-10.2471 -1.006 -21.4099 -10.2126 -33.9453 -28.0578v-35.6756zM60 150v15h120v-15h-120zM165.702 120c-7.83203 0 -14.2021 -6.3418 -14.2021 -14.1377
c0 -7.79492 6.37207 -14.1357 14.2021 -14.1357s14.2021 6.3418 14.2021 14.1357s-6.37109 14.1377 -14.2021 14.1377zM165.702 76.7266c-16.1025 0 -29.2021 13.0713 -29.2021 29.1357c0 16.0664 13.0996 29.1377 29.2021 29.1377s29.2021 -13.0713 29.2021 -29.1377
c0.000976562 -16.0645 -13.0996 -29.1357 -29.2021 -29.1357z" />
    <glyph glyph-name="uniE04B" unicode="&#xe04b;" 
d="M184.111 164.801l10.5635 10.2988c2.28711 2.25781 4.67969 3.40039 7.11133 3.40039s4.82715 -1.14648 7.11719 -3.40625l11.3115 -11.1621c2.11816 -2.08887 3.2832 -4.86719 3.2832 -7.82324c0 -2.95508 -1.16504 -5.7334 -3.2832 -7.82422l-9.72559 -9.60059z
M91.374 73.2627l84.6572 83.4316l26.3145 -26.0518l-84.6592 -83.4316zM62.8545 14.8076c-0.694336 0 -1.34863 0.267578 -1.84082 0.75293l-1.74609 1.72266c-0.8125 0.802734 -0.999023 2.01758 -0.464844 3.02246l22.5801 42.3584
c0.449219 0.844727 1.33203 1.36914 2.30176 1.36914c0.105469 0 0.211914 -0.00585938 0.317383 -0.0195312l0.501953 -0.0595703l23.8516 -23.6133l0.0253906 -0.563477c0.0449219 -1.00977 -0.487305 -1.92773 -1.3877 -2.39551l-42.9297 -22.2803
c-0.370117 -0.191406 -0.789062 -0.293945 -1.20898 -0.293945zM103.032 -11.0703c-8.59863 0 -18.0107 4.40234 -28.0322 17.5322l11.0459 9.2666c13.9033 -18.2158 21.7832 -12.7959 36.0918 -2.95605c15.7529 10.835 37.3271 25.6738 66.8623 -7.12988l-10.29 -10.1797
c-21.3994 23.7676 -33.4951 15.4453 -48.8115 4.90918c-7.55566 -5.2002 -16.6338 -11.4424 -26.8662 -11.4424zM45 -15v-45h-45v45h45zM240 -15v-45h-45v45h45zM240 90v-45h-45v45h45zM45 45h-45v45h45v-45zM180 -30v-15h-120v15h120zM30 0h-15v30h15v-30zM225 30v-30h-15
v30h15z" />
    <glyph glyph-name="uniE04C" unicode="&#xe04c;" 
d="M198.012 142.188l10.667 10.627c-0.617188 1.42773 -2.20801 4.06836 -5.24316 7.10254c-3.04004 3.04102 -5.68164 4.63184 -7.1084 5.24512l-10.7246 -10.6963zM109.979 54.5312l76.8945 76.5596l-12.3574 12.3213l-76.8301 -76.5898zM89.2412 54.7617
c-1.52734 -3.74805 -3.42969 -8.73242 -5.47363 -14.3545c5.56445 2.10547 10.4971 4.05859 14.2051 5.62305zM64.9678 30.6445c8.27734 24.4131 13.7646 37.7422 16.7744 40.751l92.8418 92.5586l12.8125 12.7803c2.16309 2.16309 4.85742 3.25977 8.00586 3.25977
c5.45801 0 11.9512 -3.48926 18.2861 -9.8252c3.55664 -3.55664 6.41699 -7.48926 8.05371 -11.0713c3.74414 -8.2041 0.669922 -13.0625 -1.49609 -15.2285l-22.3975 -22.3164l-83.3203 -82.958c-2.97949 -2.97852 -16.1523 -8.57715 -40.2754 -17.1113l-14.0801 -4.9834z
M103.032 -11.0703c-8.59863 0 -18.0107 4.40234 -28.0322 17.5322l11.0459 9.2666c13.9033 -18.2158 21.7832 -12.7959 36.0918 -2.95605c15.7529 10.835 37.3271 25.6738 66.8623 -7.12988l-10.29 -10.1797c-21.3994 23.7676 -33.4951 15.4453 -48.8115 4.90918
c-7.55566 -5.2002 -16.6338 -11.4424 -26.8662 -11.4424zM45 -15v-45h-45v45h45zM240 -15v-45h-45v45h45zM240 90v-45h-45v45h45zM45 45h-45v45h45v-45zM180 -30v-15h-120v15h120zM30 0h-15v30h15v-30zM225 30v-30h-15v30h15z" />
    <glyph glyph-name="uniE04D" unicode="&#xe04d;" 
d="M165 -60h-90v45h90v-45zM127.5 -7.5h-15v52.5h-112.5v120h240v-120h-112.5v-52.5zM67.5 -45h-67.5v15h67.5v-15zM240 -45h-67.5v15h67.5v-15zM210 90v-15h-15v15h15zM187.5 75h-15v15h15v-15zM152.827 76.4326c-2.5957 -0.951172 -5.34375 -1.43262 -8.16992 -1.43262
c-1.58594 0 -3.14551 0.134766 -4.63477 0.40332c-1.42578 0.257812 -2.78906 0.601562 -4.05176 1.02344c-1.28125 0.426758 -2.48828 0.929688 -3.58203 1.49219c-0.842773 0.431641 -2.06445 1.22559 -3.62109 2.35059l-0.172852 0.125977l7.16699 9.62402
c1.0957 -0.791992 1.89648 -1.3125 2.12695 -1.4375c0.539062 -0.275391 1.16992 -0.536133 1.87207 -0.770508c0.726562 -0.241211 1.52539 -0.442383 2.38574 -0.59668c0.788086 -0.142578 1.63477 -0.214844 2.51074 -0.214844
c1.43359 0 2.75488 0.227539 4.03906 0.697266c1.19727 0.439453 2.21289 1.05371 3.10254 1.87207c0.863281 0.796875 1.5459 1.77734 2.08594 3c0.52832 1.19141 0.794922 2.64355 0.794922 4.3125c0 1.39258 -0.201172 2.64746 -0.59668 3.7334
c-0.334961 0.912109 -0.805664 1.66113 -1.44043 2.2832c-0.666016 0.654297 -1.52539 1.16992 -2.62305 1.57617c-1.96777 0.726562 -4.75391 0.863281 -8.0957 0.418945c-1.29688 -0.172852 -2.72852 -0.460938 -4.24902 -0.856445l-9.11133 -2.36816l6.11133 33.2578
h30.5908v-12h-20.5977l-1.07129 -5.8291c4.00977 0.22168 7.53906 -0.240234 10.585 -1.36816c2.68262 -0.991211 4.99219 -2.42676 6.86719 -4.26758c1.90625 -1.87207 3.35449 -4.13281 4.30176 -6.72168c0.882812 -2.41309 1.3291 -5.05469 1.3291 -7.85645
c0 -3.34961 -0.610352 -6.43262 -1.81738 -9.16406c-1.20215 -2.71777 -2.85938 -5.06348 -4.92676 -6.9707c-2.04395 -1.88379 -4.43457 -3.33594 -7.1084 -4.31641zM104.827 76.4326c-2.5957 -0.951172 -5.34375 -1.43262 -8.16992 -1.43262
c-1.58594 0 -3.14551 0.134766 -4.63477 0.40332c-1.42578 0.257812 -2.78906 0.601562 -4.05176 1.02344c-1.28125 0.426758 -2.48828 0.929688 -3.58203 1.49219c-0.842773 0.431641 -2.06445 1.22559 -3.62109 2.35059l-0.172852 0.125977l7.16699 9.62402
c1.0957 -0.791992 1.89648 -1.3125 2.12695 -1.4375c0.539062 -0.275391 1.16992 -0.536133 1.87207 -0.770508c0.726562 -0.241211 1.52539 -0.442383 2.38574 -0.59668c0.788086 -0.142578 1.63477 -0.214844 2.51074 -0.214844
c1.43359 0 2.75488 0.227539 4.03906 0.697266c1.19727 0.439453 2.21289 1.05371 3.10254 1.87207c0.863281 0.796875 1.5459 1.77734 2.08594 3c0.52832 1.19141 0.794922 2.64355 0.794922 4.3125c0 1.39258 -0.201172 2.64746 -0.59668 3.7334
c-0.334961 0.912109 -0.805664 1.66113 -1.44043 2.2832c-0.666016 0.654297 -1.52539 1.16992 -2.62305 1.57617c-1.9668 0.726562 -4.75391 0.863281 -8.0957 0.418945c-1.29688 -0.172852 -2.72852 -0.460938 -4.24902 -0.856445l-9.11133 -2.36816l6.11133 33.2578
h30.5908v-12h-20.5977l-1.07129 -5.8291c4.00781 0.22168 7.53906 -0.240234 10.585 -1.36816c2.68262 -0.991211 4.99219 -2.42676 6.86719 -4.26758c1.90625 -1.87207 3.35449 -4.13281 4.30176 -6.72168c0.882812 -2.41309 1.3291 -5.05469 1.3291 -7.85645
c0 -3.34961 -0.610352 -6.43262 -1.81738 -9.16406c-1.20215 -2.71777 -2.85938 -5.06348 -4.92676 -6.9707c-2.04395 -1.88379 -4.43457 -3.33594 -7.1084 -4.31641zM70.0498 75h-39.2998v8.73145l18.4062 19.166c1.44043 1.45312 2.75098 2.80762 4.00391 4.13672
c1.06738 1.13574 2.01758 2.30273 2.82031 3.46973c0.692383 1.00781 1.25098 2.07129 1.65723 3.16016c0.331055 0.889648 0.492188 1.85352 0.492188 2.94727c0 1.2373 -0.18457 2.26953 -0.533203 2.98242c-0.380859 0.77832 -0.836914 1.37793 -1.39355 1.83301
c-0.616211 0.501953 -1.31543 0.868164 -2.13867 1.11426c-2.1748 0.651367 -4.52734 0.587891 -6.31641 -0.0527344c-0.910156 -0.327148 -1.67969 -0.767578 -2.35156 -1.34668c-0.650391 -0.561523 -1.1748 -1.24023 -1.60742 -2.08105
c-0.464844 -0.902344 -0.78125 -1.96582 -0.9375 -3.16406l-11.8975 1.56738c0.338867 2.57324 1.06836 4.95996 2.16895 7.09277c1.13281 2.20117 2.625 4.1084 4.43262 5.66895c1.78223 1.53711 3.84766 2.73633 6.14062 3.55957
c4.18555 1.50098 9.2041 1.63477 13.8154 0.251953c2.33398 -0.699219 4.44727 -1.81543 6.28613 -3.31836c1.89648 -1.54883 3.43555 -3.51758 4.57812 -5.84863c1.16406 -2.38184 1.75488 -5.1582 1.75488 -8.25684c0 -2.51465 -0.419922 -4.91602 -1.24805 -7.13867
c-0.75 -2.01172 -1.76562 -3.9541 -3.0166 -5.77344c-1.14844 -1.66797 -2.4834 -3.31348 -3.96875 -4.8916c-1.32031 -1.40234 -2.7041 -2.83398 -4.15332 -4.29297l-7.21777 -7.5166h19.5234v-12zM15 60h210v90h-210v-90z" />
    <glyph glyph-name="uniE04E" unicode="&#xe04e;" 
d="M222.319 126l9.82324 9.82324l-28.2148 28.2168l-28.2158 -28.2168l9.82324 -9.82324l18.3926 18.3926zM203.927 -45l28.2148 28.2168l-9.82324 9.82324l-18.3916 -18.3926l-18.3936 18.3926l-9.82324 -9.82324zM165 180h75v-240h-75v240zM37.5 0v-15h90v15h-90zM37.5 30
v-15h90v15h-90zM37.5 60v-15h90v15h-90zM37.5 90v-15h90v15h-90zM37.5 120v-15h90v15h-90zM37.5 150v-15h90v15h-90zM15 -60v240h135v-240h-135z" />
    <glyph glyph-name="uniE04F" unicode="&#xe04f;" 
d="M225 -45v210h-60v-210h60zM30 -45h120v210h-120v-210zM15 180h225v-7.5v-7.5v-225h-225v225v7.5v7.5zM220.273 -16.2734l-24.7705 -24.7744l-24.7744 24.7744l9.5459 9.5459l15.2266 -15.2266l15.2266 15.2266zM180.273 124.227l-9.54688 9.54688l24.7744 24.7734
l24.7725 -24.7734l-9.5459 -9.54688l-15.2266 15.2266zM135 135h-90v15h90v-15zM135 105h-90v15h90v-15zM135 75h-90v15h90v-15zM135 45h-90v15h90v-15zM135 -15h-90v15h90v-15zM135 15h-90v15h90v-15z" />
    <glyph glyph-name="uniE050" unicode="&#xe050;" 
d="M210 60v15h-60v-15h60zM210 30v15h-60v-15h60zM210 0v15h-60v-15h60zM135 60v15h-60v-15h60zM135 30v15h-60v-15h60zM135 0v15h-60v-15h60zM135 -30v15h-60v-15h60zM60 60v15h-30v-15h30zM60 30v15h-30v-15h30zM60 0v15h-30v-15h30zM60 -30v15h-30v-15h30zM0 105h240
v-165h-240v165zM0 165h240v-45h-240v45z" />
    <glyph glyph-name="uniE051" unicode="&#xe051;" 
d="M45 75h-15v15h15v-15zM120 75h-60v15h60v-15zM210 75h-75v15h75v-15zM45 45h-15v15h15v-15zM120 45h-60v15h60v-15zM210 45h-75v15h75v-15zM45 15h-15v15h15v-15zM120 15h-60v15h60v-15zM210 15h-75v15h75v-15zM45 -15h-15v15h15v-15zM120 -15h-60v15h60v-15zM15 120
v-165h210v165h-210zM0 120v45h240v-45v-180h-240v180z" />
    <glyph glyph-name="uniE052" unicode="&#xe052;" 
d="M210 90v15h-45v-15h45zM150 90v15h-75v-15h75zM45 120h195v-45h-195v45zM75 -15v-15h75v15h-75zM165 -15v-15h45v15h-45zM45 -45v45h195v-45h-195zM195 150v15h-60v-15h60zM120 150v15h-90v-15h90zM0 180h240v-45h-240v45zM75 45v-15h75v15h-75zM165 45v-15h45v15h-45z
M45 15v45h195v-45h-195z" />
    <glyph glyph-name="uniE053" unicode="&#xe053;" 
d="M75 75v15h75v-15h-75zM165 75v15h45v-15h-45zM135 15h-60v15h60v-15zM210 15h-60v15h60v-15zM150 150v-15h-120v15h120zM60 -45h165v30h-165v-30zM240 -60h-195v45v15v45v15v45h-45v75h240v-60v-15v-45v-15v-45v-15v-45zM60 105v-45h165v45h-165zM225 120v45h-210v-45h30
h180zM225 45h-165v-45h165v45z" />
    <glyph glyph-name="uniE054" unicode="&#xe054;" 
d="M60.7197 97.5029l-24.3008 24.5645l10.6611 10.5488l13.5332 -13.6777l28.251 29.0322l10.7676 -10.4443zM60.7197 36.5039l-24.3008 24.5625l10.6611 10.5498l13.5332 -13.6787l28.251 29.0322l10.7676 -10.4443zM60.7197 -22.9961l-24.3008 24.5625l10.6611 10.5488
l13.5332 -13.6787l28.251 29.0332l10.7676 -10.4443zM195 105h-75v15h75v-15zM195 45h-75v15h75v-15zM195 -15h-75v15h75v-15zM15 -45h210v210h-210v-210zM240 -60h-240v240h240v-240z" />
    <glyph glyph-name="uniE055" unicode="&#xe055;" 
d="M52.8447 119.876h-31.8594v15h8.42969v30.1748l-8.39355 -0.0400391l-0.0722656 15l23.4658 0.113281v-45.2471h8.42969v-15.001zM55.5 45.5371h-42.2803l0.263672 12.75c0.100586 4.84473 2.35938 9.4873 6.19629 12.7363l21.4297 18.1367
c0.494141 0.682617 0.65625 1.14746 0.65625 1.7666c0 2.07617 -2.71484 4.38965 -6.61035 4.38965c-3.77051 0 -6.50977 -2.24316 -6.60742 -4.25586l-14.9814 0.733398c0.509766 10.3857 9.99219 18.5225 21.5908 18.5225c11.916 0 21.6104 -8.69922 21.6104 -19.3896
c0 -6.31738 -3.3125 -10.3857 -4.39941 -11.7227l-0.439453 -0.540039l-21.4219 -18.127h24.9932v-15zM36.5225 -33.5234c-15.7852 0 -21.9648 10.4941 -22.46 19.4785l14.9775 0.825195c0.151367 -2.75391 1.16211 -5.30371 7.48242 -5.30371
c5.32324 0 7.49512 1.66211 7.49512 5.7373c0 2.22656 -3.1875 4.2373 -7.99023 5.0791h-1.15723v15h1.1582c3.76855 0.648438 7.98926 2.05664 7.98926 5.10938c0 4.07324 -2.17188 5.73535 -7.49512 5.73535c-6.31836 0 -7.33105 -2.54785 -7.48242 -5.30371
l-14.9775 0.825195c0.495117 8.98633 6.67383 19.4785 22.46 19.4785c15.5391 0 22.4951 -10.4141 22.4951 -20.7354c0 -5.01465 -1.81934 -9.34375 -5.1748 -12.7207c3.31738 -3.3916 5.1748 -7.67188 5.1748 -12.4688c0 -10.3223 -6.95605 -20.7363 -22.4951 -20.7363z
M225 165v-15h-150v15h150zM75 105h150v-15h-150v15zM117.612 19.2256l-11.4893 -11.4883l44.6406 -44.6406l44.2344 44.2354l-11.4863 11.4873l-32.7471 -32.7471zM75 -60v105h150v-105h-150z" />
    <glyph glyph-name="uniE056" unicode="&#xe056;" 
d="M186.054 4.82129l-35.3037 -35.3027l-35.6787 35.6777l10.6074 10.6074l25.0713 -25.0723l24.6963 24.6973zM52.8447 119.876h-31.8594v15h8.42969v30.1748l-8.39355 -0.0400391l-0.0722656 15l23.4658 0.113281v-45.2471h8.42969v-15.001zM55.5 45.5371h-42.2803
l0.263672 12.75c0.100586 4.84473 2.35938 9.4873 6.19629 12.7363l21.4297 18.1367c0.494141 0.682617 0.65625 1.14746 0.65625 1.7666c0 2.07617 -2.71484 4.38965 -6.61035 4.38965c-3.77051 0 -6.50977 -2.24316 -6.60742 -4.25586l-14.9814 0.733398
c0.509766 10.3857 9.99219 18.5225 21.5908 18.5225c11.916 0 21.6104 -8.69922 21.6104 -19.3896c0 -6.31738 -3.3125 -10.3857 -4.39941 -11.7227l-0.439453 -0.540039l-21.4219 -18.127h24.9932v-15zM36.5225 -33.5234c-15.7852 0 -21.9648 10.4941 -22.46 19.4785
l14.9775 0.825195c0.151367 -2.75391 1.16211 -5.30371 7.48242 -5.30371c5.32324 0 7.49512 1.66211 7.49512 5.7373c0 2.22656 -3.1875 4.2373 -7.99023 5.0791h-1.15723v15h1.1582c3.76855 0.648438 7.98926 2.05664 7.98926 5.10938
c0 4.07324 -2.17188 5.73535 -7.49512 5.73535c-6.31836 0 -7.33105 -2.54785 -7.48242 -5.30371l-14.9775 0.825195c0.495117 8.98633 6.67383 19.4785 22.46 19.4785c15.5391 0 22.4951 -10.4141 22.4951 -20.7354c0 -5.01465 -1.81934 -9.34375 -5.1748 -12.7207
c3.31738 -3.3916 5.1748 -7.67188 5.1748 -12.4688c0 -10.3223 -6.95605 -20.7363 -22.4951 -20.7363zM90 30v-75h120v75h-120zM225 45v-105h-150v105h150zM225 105v-15h-150v15h150zM225 150h-150v15h150v-15z" />
    <glyph glyph-name="uniE057" unicode="&#xe057;" 
d="M120 0c-33.084 0 -60 26.916 -60 60s26.916 60 60 60s60 -26.916 60 -60s-26.916 -60 -60 -60zM120 163.602c-57.126 0 -103.602 -46.4756 -103.602 -103.602s46.4756 -103.602 103.602 -103.602s103.602 46.4756 103.602 103.602s-46.4756 103.602 -103.602 103.602z
M120 -60c-66.168 0 -120 53.832 -120 120s53.832 120 120 120s120 -53.832 120 -120s-53.832 -120 -120 -120z" />
    <glyph glyph-name="uniE058" unicode="&#xe058;" 
d="M120 103.704c-24.0977 0 -43.7041 -19.6064 -43.7041 -43.7041s19.6064 -43.7041 43.7041 -43.7041s43.7041 19.6064 43.7041 43.7041s-19.6064 43.7041 -43.7041 43.7041zM120 0c-33.084 0 -60 26.916 -60 60s26.916 60 60 60s60 -26.916 60 -60s-26.916 -60 -60 -60z
M120 163.602c-57.126 0 -103.602 -46.4756 -103.602 -103.602s46.4756 -103.602 103.602 -103.602s103.602 46.4756 103.602 103.602s-46.4756 103.602 -103.602 103.602zM120 -60c-66.168 0 -120 53.832 -120 120s53.832 120 120 120s120 -53.832 120 -120
s-53.832 -120 -120 -120z" />
    <glyph glyph-name="uniE059" unicode="&#xe059;" 
d="M213 86.501v7c0 2.20996 -1.79102 4.00098 -4.00098 4.00098h-3c-7.24023 0 -13.7842 -2.96582 -18.499 -7.74219c-4.71289 4.77637 -11.2578 7.74219 -18.499 7.74219h-3c-2.20996 0 -4.00098 -1.79102 -4.00098 -4.00098v-7
c0 -2.20996 1.79102 -4.00098 4.00098 -4.00098h3c6.07422 0 10.999 -4.9248 10.999 -10.999v-38c0 -6.0752 -4.9248 -10.999 -10.999 -10.999h-3c-2.20996 0 -4.00098 -1.79102 -4.00098 -4.00098v-7c0 -2.20996 1.79102 -4.00098 4.00098 -4.00098h3
c7.24023 0 13.7842 2.96582 18.499 7.74121c4.71289 -4.77539 11.2578 -7.74121 18.499 -7.74121h3c2.20996 0 4.00098 1.79102 4.00098 4.00098v7c0 2.20996 -1.79102 4.00098 -4.00098 4.00098h-3c-6.07422 0 -10.999 4.92383 -10.999 10.999v38
c0 6.07422 4.9248 10.999 10.999 10.999h3c2.20996 0 4.00098 1.79102 4.00098 4.00098zM112.5 30c12.4258 0 22.5 10.0742 22.5 22.5s-10.0742 22.5 -22.5 22.5s-22.5 -10.0742 -22.5 -22.5s10.0742 -22.5 22.5 -22.5zM52.5 30c12.4258 0 22.5 10.0742 22.5 22.5
s-10.0742 22.5 -22.5 22.5s-22.5 -10.0742 -22.5 -22.5s10.0742 -22.5 22.5 -22.5zM0 120h240v-135h-240v135z" />
    <glyph glyph-name="uniE05A" unicode="&#xe05a;" 
d="M105 60c0 12.4268 10.0732 22.5 22.5 22.5s22.5 -10.0732 22.5 -22.5s-10.0732 -22.5 -22.5 -22.5s-22.5 10.0732 -22.5 22.5zM45 60c0 12.4268 10.0732 22.5 22.5 22.5s22.5 -10.0732 22.5 -22.5s-10.0732 -22.5 -22.5 -22.5s-22.5 10.0732 -22.5 22.5zM205.999 90
c-6.07422 0 -10.999 -4.9248 -10.999 -10.999v-38.002c0 -6.07422 4.9248 -10.999 10.999 -10.999h3c2.20996 0 4.00098 -1.79102 4.00098 -4.00098v-7c0 -2.20996 -1.79102 -4.00098 -4.00098 -4.00098h-3c-7.24023 0 -13.7842 2.96582 -18.499 7.74219
c-4.71289 -4.77637 -11.2578 -7.74219 -18.499 -7.74219h-3c-2.20996 0 -4.00098 1.79102 -4.00098 4.00098v7c0 2.20996 1.79102 4.00098 4.00098 4.00098h3c6.07422 0 10.999 4.9248 10.999 10.999v38c0 6.0752 -4.9248 10.999 -10.999 10.999h-3
c-2.20996 0 -4.00098 1.79102 -4.00098 4.00098v7c0 2.20996 1.79102 4.00098 4.00098 4.00098h3c7.24023 0 13.7842 -2.96582 18.499 -7.74023c4.71289 4.77637 11.2578 7.74219 18.499 7.74219h3c2.20996 0 4.00098 -1.79102 4.00098 -4.00098v-7
c0 -2.20996 -1.79102 -4.00098 -4.00098 -4.00098h-3zM15 0h210v120h-210v-120zM240 -15h-240v150h240v-150z" />
    <glyph glyph-name="uniE05B" unicode="&#xe05b;" 
d="M87.6123 28.2256l-11.4893 -11.4883l44.6406 -44.6406l44.2344 44.2354l-11.4863 11.4873l-32.7471 -32.7471zM30 -60v120h180v-120h-180zM210 90v-15h-180v15h180zM210 165h-180v15h180v-15zM210 135h-180v15h180v-15zM210 105h-180v15h180v-15z" />
    <glyph glyph-name="uniE05C" unicode="&#xe05c;" 
d="M156.054 12.3213l-35.3037 -35.3027l-35.6787 35.6777l10.6074 10.6074l25.0713 -25.0723l24.6963 24.6973zM45 45v-90h150v90h-150zM210 60v-120h-180v120h180zM210 90v-15h-180v15h180zM210 165h-180v15h180v-15zM210 135h-180v15h180v-15zM210 105h-180v15h180v-15z
" />
    <glyph glyph-name="uniE05D" unicode="&#xe05d;" 
d="M150 15v90h-120v-90h120zM0 135h240v-150h-240v150z" />
    <glyph glyph-name="uniE05E" unicode="&#xe05e;" 
d="M30 15v90h120h60v-90h-60h-120zM15 0h210v120h-210v-120zM240 -15h-240v150h240v-150z" />
    <glyph glyph-name="uniE05F" unicode="&#xe05f;" 
d="M179.208 7.7959h44.3623l-0.0458984 52.2158zM130.789 -49.2529l-12.5801 10.6777l108.7 128.076l13.0908 0.206055l0.118164 -134.699l-16.5 -0.015625l-0.03125 36.3037h-58.3818zM0 75v105h105v-105h-105zM240 165h-120v15h120v-15zM240 135h-120v15h120v-15zM240 105
h-120v15h120v-15zM195 75h-75v15h75v-15zM172.5 45h-172.5v15h172.5v-15zM145.5 15h-145.5v15h145.5v-15zM121.5 -15h-121.5v15h121.5v-15zM102 -45h-102v15h102v-15z" />
    <glyph glyph-name="uniE060" unicode="&#xe060;" 
d="M179.208 7.7959h44.3623l-0.0458984 52.2158zM130.789 -49.2529l-12.5801 10.6777l108.7 128.076l13.0908 0.206055l0.118164 -134.699l-16.5 -0.015625l-0.03125 36.3037h-58.3818zM15 90h75v75h-75v-75zM105 75h-105v105h105v-105zM240 165h-120v15h120v-15zM240 135
h-120v15h120v-15zM240 105h-120v15h120v-15zM195 75h-75v15h75v-15zM172.5 45h-172.5v15h172.5v-15zM145.5 15h-145.5v15h145.5v-15zM121.5 -15h-121.5v15h121.5v-15zM102 -45h-102v15h102v-15z" />
    <glyph glyph-name="uniE061" unicode="&#xe061;" 
d="M177.987 26.6611l-10.002 11.1777l24.9297 22.3066l-25.0742 23.6494l10.292 10.9102l36.9521 -34.8506zM60.79 25.4082l-35.0996 34.5918l35.0996 34.5918l10.5303 -10.6836l-24.2607 -23.9082l24.2598 -23.9082zM15 15h210v90h-210v-90zM240 0h-240v120h240v-120z" />
    <glyph glyph-name="uniE062" unicode="&#xe062;" 
d="M86.6611 2.0127l11.1777 10.002l22.3066 -24.9297l23.6494 25.0742l10.9102 -10.292l-34.8506 -36.9521zM85.4082 119.21l34.5918 35.0996l34.5918 -35.0996l-10.6836 -10.5303l-23.9082 24.2607l-23.9082 -24.2598zM75 165v-210h90v210h-90zM60 -60v240h120v-240h-120z
" />
    <glyph glyph-name="uniE063" unicode="&#xe063;" 
d="M224.085 52.3545l-36.9521 34.8506l-10.292 -10.9102l25.0742 -23.6494l-24.9297 -22.3066l10.002 -11.1777zM16.6904 52.5l35.0986 -34.5918l10.5303 10.6836l-24.2598 23.9082l24.2607 23.9082l-10.5303 10.6836zM0 0v105h240v-105h-240z" />
    <glyph glyph-name="uniE064" unicode="&#xe064;" 
d="M112.354 -44.085l34.8506 36.9521l-10.9102 10.292l-23.6494 -25.0742l-22.3066 24.9297l-11.1777 -10.002zM112.5 163.31l-34.5918 -35.0986l10.6836 -10.5303l23.9082 24.2598l23.9082 -24.2607l10.6836 10.5303zM60 180h105v-240h-105v240z" />
    <glyph glyph-name="uniE065" unicode="&#xe065;" 
d="M0 30v90h150v-90h-150zM222.319 66l9.82324 9.82324l-28.2148 28.2168l-28.2158 -28.2168l9.82324 -9.82324l18.3926 18.3926zM203.927 -45l28.2148 28.2168l-9.82324 9.82324l-18.3916 -18.3926l-18.3936 18.3926l-9.82324 -9.82324zM165 120h75v-180h-75v180z
M43.623 5.23535l-28.2168 -28.2158l28.2168 -28.2148l9.82324 9.82422l-18.3926 18.3906l18.3926 18.3916zM96.4062 -4.58887l18.3936 -18.3926l-18.3936 -18.3916l9.82422 -9.82324l28.2158 28.2158l-28.2158 28.2158zM0 -60v75h150v-75h-150zM0 180h240v-45h-240v45z" />
    <glyph glyph-name="uniE066" unicode="&#xe066;" 
d="M141.669 -15.6865l-25.1787 -25.1768l-10.6064 10.6064l14.5703 14.5713l-14.5703 14.5713l10.6064 10.6064zM58.3662 -30.2598l-10.6064 -10.6094l-25.1787 25.1787l25.1787 25.1797l10.6064 -10.6064l-14.5703 -14.5713zM219.804 -11.0537l-25.1758 -25.1787
l-25.1787 25.1787l10.6064 10.6064l14.5713 -14.5703l14.5703 14.5703zM209.196 77.0713l-14.5713 14.5713l-14.5713 -14.5713l-10.6064 10.6064l25.1797 25.1797l25.1787 -25.1797zM15 -45h135v60h-135zM165 -45h60v165h-60v-165zM240 -60h-240v180v15v45h240v-45v-15v-180
zM15 30l135 -3.55271e-15v90h-135v-90zM225 135v30h-210v-30h210z" />
    <glyph glyph-name="uniE067" unicode="&#xe067;" 
d="M184.5 48l10.5 10.5059v-118.506h-195v240h105v-60v-15h15h28.709l-60.835 -60.9355l-26.8281 -59.0645h-31.0459v-15h31.4473h2.55371c1.6377 -0.589844 3.50098 -0.649414 5.38281 0h3.93164h91.6846v15h-52.8926h-7.59082l29.7412 12.7246zM163.686 120h-43.6855v60
h5.15527l48.7656 -49.7402zM199.111 134.801l10.5635 10.2988c2.28711 2.25781 4.67969 3.40039 7.11133 3.40039s4.82715 -1.14648 7.11719 -3.40625l11.3115 -11.1621c2.11816 -2.08887 3.2832 -4.86719 3.2832 -7.82324c0 -2.95508 -1.16504 -5.7334 -3.2832 -7.82422
l-9.72559 -9.60059zM106.374 43.2627l84.6572 83.4316l26.3145 -26.0518l-84.6572 -83.4316zM77.8545 -15.1924c-0.694336 0 -1.34863 0.267578 -1.84082 0.75293l-1.74609 1.72266c-0.8125 0.802734 -0.999023 2.01758 -0.464844 3.02246l22.5801 42.3584
c0.449219 0.844727 1.33203 1.36914 2.30176 1.36914c0.105469 0 0.211914 -0.00585938 0.317383 -0.0195312l0.501953 -0.0595703l23.8516 -23.6133l0.0253906 -0.563477c0.0449219 -1.00977 -0.487305 -1.92773 -1.3877 -2.39551l-42.9297 -22.2803
c-0.370117 -0.191406 -0.789062 -0.293945 -1.20898 -0.293945z" />
    <glyph glyph-name="uniE068" unicode="&#xe068;" 
d="M223.813 123.778c1.58301 1.58594 1.58398 4.16895 0 5.75879l-4.27051 4.28516c-0.757812 0.760742 -1.76367 1.17969 -2.83203 1.17969s-2.07422 -0.420898 -2.83203 -1.17969l-14.5293 -14.5527l9.82812 -10.1357zM130.572 30.4756l68.002 68.0479l-9.82324 10.1289
l-68.1211 -68.2344zM104.487 14.2188l16.0361 6.19922l0.506836 0.506836l-9.9375 9.9375l-0.453125 -0.453125zM234.438 140.124c7.4082 -7.43262 7.40234 -19.5215 -0.0136719 -26.9463l-105.536 -105.605l-50.376 -19.4795l19.2441 50.6445l105.504 105.68
c3.59082 3.59863 8.36816 5.58301 13.4502 5.58301c5.08691 -0.00195312 9.86426 -1.9873 13.457 -5.5918zM73.3154 -30l38.792 15h52.8926v-15h-91.6846zM59.0703 -20.8467c-1.35059 -3.55566 -0.0898438 -7.05371 2.37695 -9.15332h-31.4473v15h31.291zM180 37.4951
l15 15.0107v-112.506h-195v240h131.155l42.7656 -43.7402l-10.5977 -10.6172l-5.63379 -5.64258l-14.9746 -15h-22.7148v60h-105v-210h165v82.4951z" />
    <glyph glyph-name="uniE069" unicode="&#xe069;" 
d="M60 0v135h60v-135h-60zM52.5 60h-52.5v15h52.5v-15zM240 60h-112.5v15h112.5v-15z" />
    <glyph glyph-name="uniE06A" unicode="&#xe06a;" 
d="M75 15h30v105h-30v-105zM120 0h-60v135h60v-135zM52.5 60h-52.5v15h52.5v-15zM240 60h-112.5v15h112.5v-15z" />
    <glyph glyph-name="uniE06B" unicode="&#xe06b;" 
d="M145.446 112.071l10.6074 10.6064l-35.3037 35.3037l-35.6777 -35.6787l10.6064 -10.6064l25.0713 25.0723zM30 180h180v-90h-180v90zM95.6787 8.30371l-10.6074 -10.6064l35.6787 -35.6787l35.3027 35.3027l-10.6064 10.6064l-24.6963 -24.6963zM30 -60v90h180v-90h-180
zM30 52.5v15h180v-15h-180z" />
    <glyph glyph-name="uniE06C" unicode="&#xe06c;" 
d="M120.75 157.981l35.3037 -35.3027l-10.6074 -10.6074l-24.6963 24.6973l-25.0713 -25.0723l-10.6074 10.6074zM195 105v60h-150v-60h150zM210 90h-180v90h180v-90zM156.054 -2.67871l-35.3037 -35.3027l-35.6787 35.6777l10.6074 10.6074l25.0713 -25.0723
l24.6963 24.6973zM195 -45v60h-150v-60h150zM30 30h180v-90h-180v90zM30 52.5v15h180v-15h-180z" />
    <glyph glyph-name="uniE06D" unicode="&#xe06d;" 
d="M93.0176 45.75l-26.3408 62.7676l-25.626 -62.7676h51.9668zM99.9434 29.25h-65.6279l-19.123 -46.8408l-15.1924 6.2627l66.4678 162.807l68.4854 -163.19l-15.1289 -6.41113zM223.579 41.2607c-22.6455 -1.12402 -41.6953 -4.30664 -53.7061 -8.97949
c-15.5996 -6.07031 -15.5996 -12.958 -15.5996 -15.2207c0 -3.27734 0.570312 -6.02344 1.69629 -8.16406c1.2002 -2.28027 2.71875 -4.08887 4.64258 -5.53027c2.1123 -1.58398 4.48633 -2.74219 7.26172 -3.53711c2.95996 -0.850586 6.03906 -1.28125 9.15332 -1.28125
c5.55078 0 10.5986 0.556641 15 1.65332c4.46973 1.11426 8.64258 2.62305 12.4004 4.4834c3.81152 1.88965 7.37988 4.09961 10.6094 6.56836c0.802734 0.613281 1.63672 1.24023 2.48828 1.87988l0.172852 0.128906c1.99023 1.49414 4.04492 3.03613 5.88086 4.54199
v23.457zM177.027 -17.9551c-4.64258 0 -9.24023 0.645508 -13.665 1.91699c-4.6582 1.33789 -8.88672 3.41602 -12.5674 6.17871c-3.86523 2.89453 -7.00977 6.6123 -9.34082 11.0439c-2.3877 4.54102 -3.59961 9.88086 -3.59961 15.875
c0 9.33105 4.52734 22.2168 26.0898 30.6074c13.9912 5.44336 34.6016 8.93652 59.6348 10.1143v8.58496c0 5.55176 -0.65625 10.54 -1.9541 14.833c-1.18848 3.92383 -2.94727 7.12207 -5.37891 9.77441c-2.41211 2.62598 -5.41699 4.60742 -9.18457 6.05566
c-3.97363 1.52539 -8.9043 2.29883 -14.6533 2.29883c-8.01758 0 -15.0615 -1.34766 -20.9346 -4.00781c-5.69629 -2.58105 -15.2686 -9.30469 -21.79 -15.3047l-0.550781 -0.506836l-11.0879 12.1699l0.550781 0.504883c6.74414 6.20605 17.8848 14.4424 26.1309 18.1787
c8.00781 3.62695 17.3213 5.46582 27.6826 5.46582c7.76172 0 14.6631 -1.1377 20.5156 -3.38477c6.10547 -2.34668 11.2852 -5.80664 15.3965 -10.2861c4.08691 -4.45801 7.12012 -9.89355 9.0166 -16.1592c1.7666 -5.84863 2.66406 -12.4531 2.66406 -19.6309v-84.249
h-16.4209v14.957c-3.68359 -2.68848 -7.67871 -5.10156 -11.8887 -7.18945c-4.81641 -2.38672 -10.1045 -4.30566 -15.7129 -5.70215c-5.69434 -1.41895 -12.0703 -2.13867 -18.9521 -2.13867z" />
    <glyph glyph-name="uniE06E" unicode="&#xe06e;" 
d="M135 120h105v-15h-240v60h135v-45zM240 -60h-240v150h240v-150z" />
    <glyph glyph-name="uniE06F" unicode="&#xe06f;" 
d="M15 -45h210v150h-210v-150zM240 -60h-240v165v15v45h135v-45h105v-15v-165z" />
    <glyph glyph-name="uniE070" unicode="&#xe070;" 
d="M66.6602 54.7891h17.2451l-8.62598 22.4688zM99.0635 15.3115l-9.39844 24.4775h-28.7578l-9.38867 -24.4756l-14.0049 5.37109l29.9893 78.168c0.15625 0.365234 0.538086 1.3584 0.538086 1.3584l1.85156 4.80273l10.9258 -0.0136719l1.78711 -4.95703
c0.00683594 -0.0195312 0.297852 -0.833984 0.449219 -1.20215l0.103516 -0.254883l29.9092 -77.8975zM205.999 90c-6.07422 0 -10.999 -4.9248 -10.999 -10.999v-38.002c0 -6.07422 4.9248 -10.999 10.999 -10.999h3c2.20996 0 4.00098 -1.79102 4.00098 -4.00098v-7
c0 -2.20996 -1.79102 -4.00098 -4.00098 -4.00098h-3c-7.24023 0 -13.7842 2.96582 -18.499 7.74219c-4.71289 -4.77637 -11.2578 -7.74219 -18.499 -7.74219h-3c-2.20996 0 -4.00098 1.79102 -4.00098 4.00098v7c0 2.20996 1.79102 4.00098 4.00098 4.00098h3
c6.07422 0 10.999 4.9248 10.999 10.999v38c0 6.0752 -4.9248 10.999 -10.999 10.999h-3c-2.20996 0 -4.00098 1.79102 -4.00098 4.00098v7c0 2.20996 1.79102 4.00098 4.00098 4.00098h3c7.24023 0 13.7842 -2.96582 18.499 -7.74023
c4.71289 4.77637 11.2578 7.74219 18.499 7.74219h3c2.20996 0 4.00098 -1.79102 4.00098 -4.00098v-7c0 -2.20996 -1.79102 -4.00098 -4.00098 -4.00098h-3zM15 0h210v120h-210v-120zM240 -15h-240v150h240v-150z" />
    </font>
</defs>
</svg>
