<?xml version="1.0" encoding="UTF-8"?>
<!DOCTYPE svg PUBLIC "-//W3C//DTD SVG 1.1//EN" "http://www.w3.org/Graphics/SVG/1.1/DTD/svg11.dtd">
<svg version="1.1" id="Layer_1" xmlns="http://www.w3.org/2000/svg" xmlns:xlink="http://www.w3.org/1999/xlink" x="0px" y="0px" width="16px" height="16px" viewBox="0 0 16 16" enable-background="new 0 0 16 16" xml:space="preserve">
  <g id="icon">
    <path d="M2.5,3.5v2.048C3.262,5.197,4.108,5,5,5c3.308,0,6,2.692,6,6c0,0.892,-0.197,1.738,-0.548,2.5H15.5V3.5H2.5z" fill="#FFFFFF"/>
    <path d="M2,3v2.807c0.316,-0.184,0.651,-0.339,1,-0.463V4h3v1.085c0.344,0.058,0.678,0.145,1,0.259V4h8v9h-4.344c-0.124,0.349,-0.28,0.684,-0.463,1H16V3H2z" fill="#383838"/>
    <path d="M10.915,10H13.5v1h-2.5C11,10.659,10.97,10.325,10.915,10zM10.656,9H13.5V8h-3.307C10.376,8.316,10.532,8.651,10.656,9zM8.5,6v0.131c0.353,0.254,0.678,0.545,0.967,0.869H13.5V6H8.5z" fill="#78797A"/>
    <rect x="2.5" y="0.5" width="13" height="3" fill="#FFFFFF"/>
    <path d="M2,0v4h14V0H2zM15,3H3V1h12V3z" fill="#238BCB"/>
    <path d="M10,2.5H9V1.5h1V2.5zM13,1.5v1h1V1.5H13zM11,2.5h1V1.5h-1V2.5z" fill="#383838"/>
    <circle cx="5" cy="11" r="4.5" fill="#FFFFFF" stroke="#ED8730" stroke-width="1" stroke-miterlimit="1"/>
    <path d="M3.168,11.477c0.032,0.324,0.101,0.547,0.207,0.794c0.106,0.248,0.245,0.455,0.418,0.622c0.173,0.167,0.376,0.293,0.609,0.379c0.233,0.086,0.491,0.128,0.772,0.128c0.185,0,0.349,-0.015,0.493,-0.046c0.143,-0.031,0.27,-0.07,0.38,-0.116c0.11,-0.047,0.204,-0.098,0.282,-0.152c0.078,-0.055,0.144,-0.106,0.199,-0.152c0.055,-0.047,0.099,-0.086,0.131,-0.116M3.164,10.564c-0.005,0.062,-0.009,0.193,-0.012,0.256c-0.003,0.064,-0.004,0.129,-0.004,0.195c0,0.114,0.004,0.287,0.012,0.392M6.583,9.088c-0.03,-0.026,-0.069,-0.059,-0.119,-0.098c-0.05,-0.039,-0.111,-0.081,-0.185,-0.127c-0.074,-0.046,-0.162,-0.088,-0.266,-0.127c-0.103,-0.039,-0.223,-0.071,-0.36,-0.098C5.517,8.613,5.363,8.6,5.191,8.6c-0.282,0,-0.538,0.042,-0.77,0.125c-0.232,0.083,-0.434,0.207,-0.607,0.37c-0.173,0.163,-0.314,0.365,-0.424,0.605c-0.11,0.24,-0.182,0.486,-0.217,0.796M2.46,10.396h3.136M2.264,11.597h3.185" fill="#FFFFFF" stroke="#ED8730" stroke-width="0.8" stroke-miterlimit="1"/>
  </g>
</svg>
