<?xml version="1.0" encoding="UTF-8"?>
<!DOCTYPE svg PUBLIC "-//W3C//DTD SVG 1.1//EN" "http://www.w3.org/Graphics/SVG/1.1/DTD/svg11.dtd">
<svg version="1.1" id="Layer_1" xmlns="http://www.w3.org/2000/svg" xmlns:xlink="http://www.w3.org/1999/xlink" x="0px" y="0px" width="16px" height="16px" viewBox="0 0 16 16" enable-background="new 0 0 16 16" xml:space="preserve">
  <g id="icon">
    <path d="M7.497,15.5c-1.324,0,-2.648,-0.275,-3.632,-0.755C3.023,14.335,2.5,13.792,2.5,13.33v-2.163h0.009L2.5,10.615V3.397h0.011l-0.01,-0.543C2.5,2.839,2.5,2.823,2.5,2.807C2.5,1.535,4.735,0.5,7.481,0.5l0.042,0C10.265,0.5,12.5,1.535,12.5,2.807c0,0.017,0,0.033,-0.001,0.049l-0.025,0.541H12.5v7.221l-0.001,0.071l0.001,0.037v2.605c0,0.463,-0.523,1.005,-1.365,1.415c-0.984,0.48,-2.308,0.755,-3.632,0.755H7.497z" fill="#F7DA8E"/>
    <path d="M7.497,16c-1.397,0,-2.801,-0.294,-3.851,-0.805C2.6,14.685,2,14.005,2,13.33v-2.663h0.001c0,-0.022,-0.001,-0.044,-0.001,-0.049V2.897h0.002l0,-0.02C2.001,2.855,2,2.831,2,2.807C2,1.207,4.357,0,7.481,0L7.5,0l0.018,0C10.643,0,13,1.207,13,2.807c0,0.024,0,0.048,-0.002,0.072l-0.001,0.019H13v7.721c0,0.01,-0.001,0.067,-0.001,0.067l0.001,0.032v2.613c0,0.675,-0.6,1.355,-1.646,1.865C10.304,15.706,8.9,16,7.503,16H7.497zM2.976,13.33c0,0.281,0.466,0.716,1.206,1.057c0.914,0.422,2.092,0.655,3.316,0.655c1.227,0,2.406,-0.232,3.32,-0.655c0.739,-0.341,1.206,-0.776,1.206,-1.057v-1.143l-0.027,0.019c-0.862,0.598,-2.194,1.027,-3.647,1.147l-0.291,0.02l-0.078,0.004c-0.163,0.008,-0.324,0.011,-0.48,0.011c-0.159,0,-0.321,-0.004,-0.483,-0.011l-0.369,-0.024c-1.452,-0.12,-2.784,-0.549,-3.647,-1.147l-0.027,-0.019V13.33zM4.184,11.762c0.914,0.424,2.122,0.668,3.315,0.668l0.002,0.099l-0.001,-0.099c1.195,0,2.404,-0.243,3.317,-0.668l0.017,-0.008l0.015,0.006l0.007,-0.003c0.729,-0.343,1.169,-0.761,1.169,-1.039V9.526c-1.062,0.732,-2.762,1.186,-4.522,1.186c-1.762,0,-3.463,-0.454,-4.525,-1.186v1.192c0,0.278,0.44,0.696,1.169,1.039l0.007,0.003l0.015,-0.006L4.184,11.762zM2.976,8.161c0.143,0.288,0.541,0.628,1.153,0.913c0.925,0.431,2.153,0.679,3.369,0.679L7.5,9.852l0,-0.05v-0.05c1.217,0,2.446,-0.247,3.371,-0.679c0.611,-0.285,1.009,-0.626,1.153,-0.913V6.839l-0.027,0.019c-1.052,0.737,-2.743,1.195,-4.495,1.195c-1.754,0,-3.447,-0.458,-4.498,-1.195l-0.027,-0.019V8.161zM2.976,5.354c0,0.232,0.336,0.664,1.183,1.063c0.917,0.431,2.134,0.679,3.338,0.679L7.5,7.195l0,-0.05v-0.05c1.206,0,2.424,-0.247,3.34,-0.679c0.848,-0.399,1.184,-0.83,1.184,-1.063v-0.969l-0.027,0.018c-0.233,0.157,-0.499,0.296,-0.749,0.4c-0.972,0.405,-2.297,0.628,-3.729,0.628h-0.037c-1.432,0,-2.756,-0.223,-3.729,-0.628c-0.25,-0.104,-0.517,-0.244,-0.749,-0.4l-0.027,-0.018V5.354zM7.519,4.473c1.28,0,2.45,-0.188,3.295,-0.528c0.774,-0.312,1.218,-0.727,1.218,-1.138c0,-0.444,-0.461,-0.902,-1.265,-1.256c-0.866,-0.382,-2.02,-0.592,-3.248,-0.592h-0.037c-1.228,0,-2.382,0.21,-3.248,0.592c-0.804,0.354,-1.265,0.812,-1.265,1.256c0,0.412,0.444,0.826,1.218,1.138c0.845,0.341,2.016,0.528,3.295,0.528l0.019,0L7.519,4.473z" fill="#E57428"/>
  </g>
</svg>
