<?xml version="1.0" encoding="UTF-8"?>
<!DOCTYPE svg PUBLIC "-//W3C//DTD SVG 1.1//EN" "http://www.w3.org/Graphics/SVG/1.1/DTD/svg11.dtd">
<svg version="1.1" id="Layer_1" xmlns="http://www.w3.org/2000/svg" xmlns:xlink="http://www.w3.org/1999/xlink" x="0px" y="0px" width="16px" height="16px" viewBox="0 0 16 16" enable-background="new 0 0 16 16" xml:space="preserve">
  <g id="icon">
    <path d="M7.489,15.681c-0.208,0,-0.413,-0.017,-0.625,-0.053c-0.157,-0.026,-0.352,-0.056,-0.579,-0.091c-0.201,-0.031,-0.413,-0.057,-0.638,-0.085c-0.404,-0.05,-0.821,-0.102,-1.187,-0.182c-0.39,-0.085,-0.714,-0.142,-1.024,-0.142c-0.4,0,-0.727,0.097,-1.027,0.306c-0.099,0.069,-0.206,0.105,-0.31,0.105c-0.128,0,-0.313,-0.054,-0.468,-0.31c-0.193,-0.32,-0.388,-0.581,-0.594,-0.856c-0.176,-0.236,-0.358,-0.479,-0.542,-0.765c-0.262,-0.408,-0.305,-0.664,0.161,-1.01c0.585,-0.435,1.216,-0.9,1.867,-1.358c0.786,-0.552,1.567,-0.821,2.387,-0.821c0.24,0,0.486,0.024,0.732,0.072c0.524,0.102,1.036,0.196,1.539,0.231c0.183,0.013,0.369,0.019,0.569,0.019c0.235,0,0.456,-0.008,0.689,-0.017c0.231,-0.009,0.468,-0.018,0.717,-0.018c0.149,0,0.288,0.003,0.426,0.009l0.078,0.004c0.3,0.014,0.599,0.028,0.899,0.043c0.568,0.028,0.906,0.503,0.98,0.932c0.002,0.013,0.004,0.026,0.006,0.039l0.064,0.494l0.407,-0.289c0.097,-0.069,0.184,-0.135,0.257,-0.189c0.12,-0.09,0.198,-0.149,0.26,-0.18c0.168,-0.083,0.284,-0.161,0.397,-0.237c0.163,-0.11,0.33,-0.222,0.611,-0.331c0.055,-0.022,0.111,-0.044,0.166,-0.066c0.338,-0.134,0.686,-0.271,1.053,-0.348l0.032,-0.007c0.07,-0.016,0.164,-0.036,0.269,-0.036c0.284,0,0.501,0.161,0.597,0.442c0.131,0.385,-0.066,0.576,-0.225,0.687l-0.039,0.027l-0.029,0.038c-0.057,0.075,-0.129,0.121,-0.176,0.151l-0.01,0.006c-0.457,0.293,-0.893,0.61,-1.314,0.916c-0.44,0.32,-0.896,0.652,-1.384,0.962c-0.846,0.538,-1.43,0.798,-2.313,1.191l-0.039,0.017c-0.159,0.071,-0.329,0.146,-0.512,0.229C8.914,15.526,8.217,15.681,7.489,15.681z" fill="#FFFFFF"/>
    <path d="M7.489,15.979c-0.225,0,-0.446,-0.019,-0.675,-0.057c-0.156,-0.026,-0.35,-0.056,-0.574,-0.09c-0.562,-0.086,-1.261,-0.142,-1.844,-0.27c-0.371,-0.081,-0.676,-0.135,-0.96,-0.135c-0.341,0,-0.604,0.078,-0.856,0.252c-0.15,0.104,-0.316,0.159,-0.481,0.159c-0.168,0,-0.486,-0.059,-0.725,-0.455c-0.186,-0.308,-0.376,-0.563,-0.578,-0.833c-0.179,-0.24,-0.364,-0.487,-0.553,-0.782c-0.279,-0.435,-0.444,-0.906,0.234,-1.41c0.587,-0.436,1.22,-0.903,1.874,-1.362c0.839,-0.589,1.676,-0.875,2.56,-0.875c0.26,0,0.525,0.026,0.789,0.077c0.515,0.1,1.018,0.192,1.502,0.226c0.443,0.031,0.824,0.016,1.227,0.001c0.363,-0.014,0.738,-0.028,1.167,-0.008c0.326,0.015,0.652,0.03,0.977,0.046c0.733,0.036,1.168,0.637,1.26,1.18c0.003,0.017,0.006,0.034,0.008,0.051c0.095,-0.067,0.18,-0.132,0.251,-0.185c0.132,-0.1,0.219,-0.165,0.307,-0.209c0.151,-0.075,0.255,-0.145,0.365,-0.219c0.167,-0.112,0.356,-0.239,0.668,-0.361c0.055,-0.021,0.11,-0.043,0.165,-0.065c0.349,-0.138,0.709,-0.281,1.103,-0.363l0.03,-0.007c0.077,-0.017,0.195,-0.043,0.333,-0.043c0.414,0,0.744,0.241,0.881,0.645c0.1,0.294,0.121,0.709,-0.337,1.027c-0.089,0.118,-0.197,0.186,-0.254,0.223l-0.009,0.006c-0.449,0.288,-0.881,0.602,-1.298,0.906c-0.444,0.323,-0.903,0.657,-1.399,0.973c-0.865,0.55,-1.456,0.813,-2.352,1.212l-0.023,0.01c-0.163,0.073,-0.337,0.15,-0.526,0.235C8.923,15.85,8.187,15.979,7.489,15.979zM3.436,14.431c0.374,0,0.74,0.063,1.174,0.158c0.552,0.121,1.234,0.175,1.781,0.258c0.229,0.035,0.426,0.065,0.59,0.092c0.174,0.029,0.34,0.043,0.509,0.043c0.552,0,1.154,-0.101,1.841,-0.41c0.19,-0.086,0.366,-0.164,0.53,-0.237l0.023,-0.01c0.855,-0.38,1.42,-0.631,2.222,-1.142c0.47,-0.299,0.916,-0.624,1.348,-0.938c0.429,-0.312,0.873,-0.635,1.348,-0.94l0.011,-0.007c0.002,-0.002,0.005,-0.003,0.007,-0.004c0.002,-0.003,0.005,-0.007,0.007,-0.01c-0.287,0.069,-0.578,0.185,-0.86,0.296c-0.057,0.022,-0.113,0.045,-0.169,0.067c-0.209,0.082,-0.326,0.16,-0.473,0.259c-0.124,0.084,-0.265,0.178,-0.47,0.28c-0.028,0.018,-0.099,0.071,-0.157,0.115c-0.388,0.293,-1.109,0.838,-1.917,0.885l0,-0.009c-0.139,0.045,-0.262,0.071,-0.508,0.071c-0.037,0,-0.074,-0.001,-0.11,-0.002c-0.096,-0.003,-0.196,-0.004,-0.305,-0.004c-0.231,0,-0.464,0.006,-0.711,0.012c-0.268,0.007,-0.543,0.014,-0.836,0.014c-0.268,0,-0.517,-0.006,-0.759,-0.018c-0.054,0,-0.119,-0.002,-0.191,-0.004l-0.008,0c-0.1,-0.003,-0.21,-0.006,-0.327,-0.006c-0.173,0,-0.32,0.007,-0.45,0.02l-0.106,-0.99c0.166,-0.018,0.347,-0.026,0.556,-0.026c0.13,0,0.249,0.003,0.353,0.006l0.01,0c0.068,0.002,0.128,0.004,0.178,0.004l0.026,0.001c0.228,0.012,0.464,0.018,0.719,0.018c0.28,0,0.549,-0.007,0.809,-0.014c0.254,-0.007,0.494,-0.013,0.738,-0.013c0.119,0,0.228,0.001,0.334,0.004c0.027,0.001,0.054,0.001,0.081,0.001c0.134,0,0.145,-0.004,0.244,-0.038c0.042,-0.014,0.091,-0.031,0.152,-0.05c0.046,-0.016,0.216,-0.151,0.18,-0.357c-0.023,-0.137,-0.129,-0.343,-0.324,-0.353c-0.325,-0.016,-0.65,-0.031,-0.974,-0.046c-0.387,-0.018,-0.725,-0.005,-1.083,0.008c-0.412,0.016,-0.838,0.032,-1.334,-0.003c-0.541,-0.038,-1.077,-0.136,-1.624,-0.242c-0.201,-0.039,-0.402,-0.059,-0.598,-0.059c-0.67,0,-1.319,0.227,-1.983,0.693c-0.644,0.452,-1.271,0.914,-1.852,1.346c-0.009,0.007,-0.018,0.013,-0.026,0.019c0.01,0.016,0.022,0.035,0.036,0.057c0.17,0.265,0.344,0.498,0.513,0.724c0.194,0.26,0.378,0.506,0.566,0.806C2.542,14.54,2.96,14.431,3.436,14.431zM12.846,12.192c0,0,-0.001,0,-0.002,0.001C12.845,12.192,12.845,12.192,12.846,12.192zM14.786,11.347C14.786,11.347,14.786,11.348,14.786,11.347C14.786,11.348,14.786,11.347,14.786,11.347z" fill="#383838"/>
    <path d="M1.691,9.993C2.715,9.282,3.798,8.92,4.91,8.92c0.336,0,0.678,0.033,1.017,0.099c0.477,0.092,0.94,0.178,1.357,0.207c0.148,0.01,0.3,0.015,0.465,0.015c0.207,0,0.404,-0.007,0.633,-0.016c0.244,-0.009,0.496,-0.019,0.773,-0.019c0.172,0,0.334,0.004,0.496,0.011l0.125,0.006c0.285,0.013,0.571,0.027,0.856,0.041c0.214,0.011,0.421,0.05,0.618,0.111l3.265,-1.993l-1.943,-1.037l-0.379,0.103l2.322,-1.417l-1.943,-1.078l-0.229,0.063l2.172,-1.326L10.058,0.53L1.463,5.16l2.065,1.287l-0.013,0.004L1.463,7.5l2.086,1.3L1.463,9.852L1.691,9.993z" fill="#FFFFFF"/>
    <path d="M1.273,10.289c0.129,-0.092,0.258,-0.184,0.389,-0.276c0.952,-0.668,1.955,-1.032,2.985,-1.085L2.421,7.54l1.081,-0.553l2.415,1.505l6.601,-4.029l1.059,0.587L6.821,9.174c0.159,0.022,0.315,0.042,0.464,0.052c0.148,0.01,0.3,0.015,0.465,0.015c0.207,0,0.404,-0.007,0.633,-0.016c0.059,-0.002,0.118,-0.004,0.178,-0.007l3.915,-2.39l1.088,0.581l-3.03,1.85c0.033,0.002,0.066,0.003,0.099,0.005c0.415,0.02,0.803,0.143,1.142,0.344l3.692,-2.254l-2.055,-1.097l2.042,-1.246l-2.009,-1.114L15.5,2.643L10.047,0L0.522,5.13l2.045,1.274L0.505,7.459l2.081,1.297L0.5,9.808L1.273,10.289zM2.404,5.19l7.666,-4.129l3.461,1.678L5.922,7.382L2.404,5.19z" fill="#17AB4F"/>
    <path d="M8.413,6.584v2.64c0.234,-0.009,0.476,-0.018,0.742,-0.018c0.172,0,0.334,0.004,0.496,0.011l0.125,0.006c0.285,0.013,0.571,0.027,0.856,0.041c0.045,0.002,0.088,0.008,0.132,0.013l0.005,-4.28c-0.001,-0.195,-0.054,-0.516,-0.217,-0.63l-3.647,-2.14L4.281,3.64L8.16,6.093C8.319,6.209,8.413,6.391,8.413,6.584z" fill="#FFFFFF"/>
    <path d="M7.942,6.584v2.655c0.141,-0.003,0.283,-0.008,0.44,-0.014c0.162,-0.006,0.328,-0.012,0.502,-0.016V6.584c0,-0.343,-0.168,-0.67,-0.448,-0.874l-3.22,-2.038l1.679,-0.904l3.359,1.971c0.02,0.05,0.043,0.155,0.043,0.257l-0.005,4.252c0.113,0.005,0.226,0.011,0.339,0.016c0.209,0.01,0.411,0.048,0.604,0.107l0.005,-4.377c-0.001,-0.17,-0.034,-0.744,-0.417,-1.014L6.915,1.685L3.346,3.607l4.545,2.875C7.924,6.509,7.942,6.545,7.942,6.584z" fill="#787979"/>
  </g>
</svg>
