<?xml version="1.0" encoding="UTF-8"?>
<!DOCTYPE svg PUBLIC "-//W3C//DTD SVG 1.1//EN" "http://www.w3.org/Graphics/SVG/1.1/DTD/svg11.dtd">
<svg version="1.1" id="Layer_1" xmlns="http://www.w3.org/2000/svg" xmlns:xlink="http://www.w3.org/1999/xlink" x="0px" y="0px" width="32px" height="32px" viewBox="0 0 32 32" enable-background="new 0 0 32 32" xml:space="preserve">
  <g id="icon">
    <path d="M6.5,1.5L6.5,1.5c-2.209,0,-4,1.791,-4,4v21c0,2.209,1.791,4,4,4h0c2.209,0,4,-1.791,4,-4V5.5C10.5,3.291,8.709,1.5,6.5,1.5zM6.4,27.5c-1.105,0,-2,-0.895,-2,-2c0,-1.105,0.895,-2,2,-2s2,0.895,2,2C8.4,26.605,7.505,27.5,6.4,27.5zM6.5,18.5c-1.105,0,-2,-0.895,-2,-2s0.895,-2,2,-2c1.105,0,2,0.895,2,2S7.605,18.5,6.5,18.5zM6.5,8.5c-1.105,0,-2,-0.895,-2,-2s0.895,-2,2,-2c1.105,0,2,0.895,2,2S7.605,8.5,6.5,8.5z" fill="#FFFFFF"/>
    <path d="M6.5,4c-1.379,0,-2.5,1.121,-2.5,2.5s1.121,2.5,2.5,2.5s2.5,-1.121,2.5,-2.5S7.879,4,6.5,4zM6.5,8c-0.827,0,-1.5,-0.673,-1.5,-1.5s0.673,-1.5,1.5,-1.5s1.5,0.673,1.5,1.5S7.327,8,6.5,8zM6.5,1c-2.481,0,-4.5,2.019,-4.5,4.5v21c0,2.481,2.019,4.5,4.5,4.5s4.5,-2.019,4.5,-4.5V5.5C11,3.019,8.981,1,6.5,1zM10,26.5c0,1.93,-1.57,3.5,-3.5,3.5s-3.5,-1.57,-3.5,-3.5V5.5c0,-1.93,1.57,-3.5,3.5,-3.5s3.5,1.57,3.5,3.5V26.5zM6.5,14c-1.379,0,-2.5,1.121,-2.5,2.5s1.121,2.5,2.5,2.5s2.5,-1.121,2.5,-2.5S7.879,14,6.5,14zM6.5,18c-0.827,0,-1.5,-0.673,-1.5,-1.5c0,-0.827,0.673,-1.5,1.5,-1.5s1.5,0.673,1.5,1.5C8,17.327,7.327,18,6.5,18zM6.5,23c-1.379,0,-2.5,1.121,-2.5,2.5s1.121,2.5,2.5,2.5s2.5,-1.121,2.5,-2.5S7.879,23,6.5,23zM6.5,27c-0.827,0,-1.5,-0.673,-1.5,-1.5c0,-0.827,0.673,-1.5,1.5,-1.5s1.5,0.673,1.5,1.5C8,26.327,7.327,27,6.5,27z" fill="#228BCB"/>
    <path d="M26.5,2.5H11.106c0.564,0.863,0.894,1.894,0.894,3v5h14.5c2.209,0,4,-1.791,4,-4v0C30.5,4.291,28.709,2.5,26.5,2.5zM16.5,8.5c-1.105,0,-2,-0.895,-2,-2c0,-1.105,0.895,-2,2,-2s2,0.895,2,2C18.5,7.605,17.605,8.5,16.5,8.5zM25.5,8.5c-1.105,0,-2,-0.895,-2,-2c0,-1.105,0.895,-2,2,-2s2,0.895,2,2C27.5,7.605,26.605,8.5,25.5,8.5z" fill="#FFFFFF"/>
    <path d="M31,6.5c0,2.481,-2.019,4.5,-4.5,4.5H12v-1h14.5c1.93,0,3.5,-1.57,3.5,-3.5s-1.57,-3.5,-3.5,-3.5H11.396c-0.183,-0.357,-0.403,-0.693,-0.657,-1H26.5C28.981,2,31,4.019,31,6.5zM25.5,9c-1.379,0,-2.5,-1.121,-2.5,-2.5s1.121,-2.5,2.5,-2.5s2.5,1.121,2.5,2.5S26.879,9,25.5,9zM25.5,8c0.827,0,1.5,-0.673,1.5,-1.5s-0.673,-1.5,-1.5,-1.5s-1.5,0.673,-1.5,1.5S24.673,8,25.5,8zM16.5,9c-1.379,0,-2.5,-1.121,-2.5,-2.5s1.121,-2.5,2.5,-2.5s2.5,1.121,2.5,2.5S17.879,9,16.5,9zM16.5,8c0.827,0,1.5,-0.673,1.5,-1.5s-0.673,-1.5,-1.5,-1.5s-1.5,0.673,-1.5,1.5S15.673,8,16.5,8z" fill="#228BCB"/>
    <path d="M26.5,12.5H12v8h14.5c2.209,0,4,-1.791,4,-4v0C30.5,14.291,28.709,12.5,26.5,12.5zM16.4,18.5c-1.105,0,-2,-0.895,-2,-2c0,-1.105,0.895,-2,2,-2s2,0.895,2,2C18.4,17.605,17.505,18.5,16.4,18.5zM25.5,18.5c-1.105,0,-2,-0.895,-2,-2c0,-1.105,0.895,-2,2,-2s2,0.895,2,2C27.5,17.605,26.605,18.5,25.5,18.5z" fill="#FFFFFF"/>
    <path d="M31,16.5c0,2.481,-2.019,4.5,-4.5,4.5H12v-1h14.5c1.93,0,3.5,-1.57,3.5,-3.5s-1.57,-3.5,-3.5,-3.5H12v-1h14.5C28.981,12,31,14.019,31,16.5zM25.5,19c-1.379,0,-2.5,-1.121,-2.5,-2.5s1.121,-2.5,2.5,-2.5s2.5,1.121,2.5,2.5S26.879,19,25.5,19zM25.5,18c0.827,0,1.5,-0.673,1.5,-1.5s-0.673,-1.5,-1.5,-1.5s-1.5,0.673,-1.5,1.5S24.673,18,25.5,18zM16.5,19c-1.379,0,-2.5,-1.121,-2.5,-2.5s1.121,-2.5,2.5,-2.5s2.5,1.121,2.5,2.5S17.879,19,16.5,19zM16.5,18c0.827,0,1.5,-0.673,1.5,-1.5s-0.673,-1.5,-1.5,-1.5s-1.5,0.673,-1.5,1.5S15.673,18,16.5,18z" fill="#228BCB"/>
  </g>
</svg>
