<?xml version="1.0" encoding="UTF-8"?>
<!DOCTYPE svg PUBLIC "-//W3C//DTD SVG 1.1//EN" "http://www.w3.org/Graphics/SVG/1.1/DTD/svg11.dtd">
<svg version="1.1" id="Layer_1" xmlns="http://www.w3.org/2000/svg" xmlns:xlink="http://www.w3.org/1999/xlink" x="0px" y="0px" width="32px" height="32px" viewBox="0 0 32 32" enable-background="new 0 0 32 32" xml:space="preserve">
  <g id="icon">
    <path d="M27.67,9.5H30.5l-6.9,12H1.5l3.792,-6.5h18.182c0.609,0,1.178,-0.327,1.485,-0.853L27.67,9.5zM24.959,22.147c-0.307,0.526,-0.876,0.853,-1.485,0.853H5.292L1.5,29.5h22.1l6.9,-12h-2.83L24.959,22.147zM30.5,1.5H8.5L1.5,13.5h22.1L30.5,1.5z" fill="#FFFFFF"/>
    <path d="M30.842,9.361c0.128,0.223,0.127,0.499,-0.003,0.721l-6.744,11.562c-0.128,0.22,-0.366,0.357,-0.621,0.357H1.782c-0.257,0,-0.496,-0.138,-0.624,-0.361c-0.128,-0.223,-0.127,-0.499,0.002,-0.721L4.613,15h1.158l-3.5,6h21.042l6.417,-11h-2.351l0.583,-1h2.257C30.475,9,30.714,9.138,30.842,9.361zM30.218,17h-2.257l-0.583,1h2.351l-6.417,11H2.271l3.5,-6H4.613L1.16,28.919c-0.129,0.222,-0.13,0.498,-0.002,0.721c0.128,0.223,0.367,0.361,0.624,0.361h21.693c0.255,0,0.493,-0.137,0.621,-0.357l6.744,-11.562c0.129,-0.222,0.13,-0.498,0.003,-0.721C30.714,17.138,30.475,17,30.218,17zM23.474,14c0.255,0,0.493,-0.137,0.621,-0.357L30.84,2.082c0.129,-0.222,0.13,-0.498,0.003,-0.721c-0.128,-0.223,-0.367,-0.361,-0.624,-0.361H8.526c-0.255,0,-0.493,0.137,-0.621,0.357L1.16,12.919c-0.129,0.222,-0.13,0.498,-0.002,0.721c0.128,0.223,0.367,0.361,0.624,0.361H23.474zM8.687,2h21.042l-6.417,11H2.271L8.687,2z" fill="#238BCB"/>
  </g>
</svg>
