<?xml version="1.0" encoding="UTF-8"?>
<!DOCTYPE svg PUBLIC "-//W3C//DTD SVG 1.1//EN" "http://www.w3.org/Graphics/SVG/1.1/DTD/svg11.dtd">
<svg version="1.1" id="Layer_1" xmlns="http://www.w3.org/2000/svg" xmlns:xlink="http://www.w3.org/1999/xlink" x="0px" y="0px" width="32px" height="32px" viewBox="0 0 32 32" enable-background="new 0 0 32 32" xml:space="preserve">
  <g id="icon">
    <path d="M26.5,11.5H5.5c-2.209,0,-4,1.791,-4,4v0c0,2.209,1.791,4,4,4h21c2.209,0,4,-1.791,4,-4v0C30.5,13.291,28.709,11.5,26.5,11.5zM6.5,17.5c-1.105,0,-2,-0.895,-2,-2c0,-1.105,0.895,-2,2,-2s2,0.895,2,2C8.5,16.605,7.605,17.5,6.5,17.5zM25.5,17.5c-1.105,0,-2,-0.895,-2,-2c0,-1.105,0.895,-2,2,-2s2,0.895,2,2C27.5,16.605,26.605,17.5,25.5,17.5zM26.5,21.5H5.5c-2.209,0,-4,1.791,-4,4v0c0,2.209,1.791,4,4,4h21c2.209,0,4,-1.791,4,-4v0C30.5,23.291,28.709,21.5,26.5,21.5zM6.5,27.5c-1.105,0,-2,-0.895,-2,-2c0,-1.105,0.895,-2,2,-2s2,0.895,2,2C8.5,26.605,7.605,27.5,6.5,27.5zM25.5,27.5c-1.105,0,-2,-0.895,-2,-2c0,-1.105,0.895,-2,2,-2s2,0.895,2,2C27.5,26.605,26.605,27.5,25.5,27.5zM26.5,1.5H5.5c-2.209,0,-4,1.791,-4,4v0c0,2.209,1.791,4,4,4h21c2.209,0,4,-1.791,4,-4v0C30.5,3.291,28.709,1.5,26.5,1.5zM6.5,7.5c-1.105,0,-2,-0.895,-2,-2c0,-1.105,0.895,-2,2,-2s2,0.895,2,2C8.5,6.605,7.605,7.5,6.5,7.5zM25.5,7.5c-1.105,0,-2,-0.895,-2,-2c0,-1.105,0.895,-2,2,-2s2,0.895,2,2C27.5,6.605,26.605,7.5,25.5,7.5z" fill="#92CBEE" stroke="#0964B0" stroke-width="1" stroke-miterlimit="1"/>
  </g>
</svg>
