<?xml version="1.0" encoding="UTF-8"?>
<!DOCTYPE svg PUBLIC "-//W3C//DTD SVG 1.1//EN" "http://www.w3.org/Graphics/SVG/1.1/DTD/svg11.dtd">
<svg version="1.1" id="Layer_1" xmlns="http://www.w3.org/2000/svg" xmlns:xlink="http://www.w3.org/1999/xlink" x="0px" y="0px" width="32px" height="32px" viewBox="0 0 32 32" enable-background="new 0 0 32 32" xml:space="preserve">
  <g id="icon">
    <path d="M13.1,12.973c0,-2.61,-2.4,-4.361,-3.38,-5.154c-0.472,-0.383,-1.354,-0.318,-1.79,0.12c-0.192,0.193,-0.381,0.395,-0.595,0.555c-1.532,1.145,-2.967,0.049,-3.587,-1.121c-0.737,-1.391,-0.071,-3.096,0.918,-3.679s2.241,-0.661,3.197,0.339C8.204,4.389,9.035,4.5,9.035,4.5l3.742,0.005c0,0,0.64,-0.139,0.827,-0.542c0.46,-0.992,1.154,-1.676,2.221,-1.762h0.341c1.065,0.087,1.758,0.769,2.216,1.759c0.187,0.403,0.825,0.541,0.825,0.541l3.746,-0.005c0,0,0.831,-0.111,1.171,-0.467c0.956,-1,2.208,-0.923,3.197,-0.339c0.989,0.584,1.655,2.288,0.918,3.679c-0.62,1.169,-2.055,2.265,-3.587,1.121c-0.214,-0.16,-0.403,-0.362,-0.595,-0.555c-0.436,-0.438,-1.317,-0.503,-1.79,-0.12c-0.98,0.793,-3.38,2.544,-3.38,5.154" fill="#FFFFFF" stroke="#EE3D3B" stroke-width="1" stroke-miterlimit="1"/>
    <path d="M14.743,29.5c-2.003,-0.235,-3.497,-1.961,-4.768,-3.508c-0.162,-0.37,-0.742,-0.37,-1.709,-0.37s-1.74,2.908,-2.9,2.908c-1.16,0,-1.847,0.021,-2.921,0.01c-0.524,-0.005,-0.945,-0.432,-0.945,-0.955l0,-12.14c0,-0.526,0.428,-0.951,0.954,-0.948c0.827,0.005,1.757,-0.006,2.913,-0.006c1.153,0,1.933,2.942,2.886,2.942c2.914,0,1.947,-2.942,3.88,-2.942c0.956,0,1.926,0.003,2.9,0.009h1.933c0.974,-0.005,1.944,-0.009,2.9,-0.009c1.933,0,0.967,2.942,3.88,2.942c0.953,0,1.733,-2.942,2.886,-2.942c1.156,0,2.086,0.01,2.913,0.006c0.526,-0.003,0.954,0.422,0.954,0.948v12.14c0,0.524,-0.422,0.95,-0.945,0.955c-1.074,0.011,-1.761,-0.01,-2.921,-0.01c-1.16,0,-1.933,-2.908,-2.9,-2.908s-1.547,0,-1.709,0.37c-1.271,1.546,-2.765,3.272,-4.768,3.508H14.743z" fill="#FFFFFF" stroke="#383838" stroke-width="1" stroke-miterlimit="1"/>
  </g>
</svg>
