<?xml version="1.0" encoding="UTF-8"?>
<!DOCTYPE svg PUBLIC "-//W3C//DTD SVG 1.1//EN" "http://www.w3.org/Graphics/SVG/1.1/DTD/svg11.dtd">
<svg version="1.1" id="Layer_1" xmlns="http://www.w3.org/2000/svg" xmlns:xlink="http://www.w3.org/1999/xlink" x="0px" y="0px" width="32px" height="32px" viewBox="0 0 32 32" enable-background="new 0 0 32 32" xml:space="preserve">
  <g id="icon">
    <path d="M9.5,13.429v16.142c0,0.513,-0.416,0.929,-0.929,0.929H6.429c-0.513,0,-0.929,-0.416,-0.929,-0.929V13.429c0,-0.513,0.416,-0.929,0.929,-0.929h2.142C9.084,12.5,9.5,12.916,9.5,13.429zM17.5,13.429v16.142c0,0.513,-0.416,0.929,-0.929,0.929h-2.142c-0.513,0,-0.929,-0.416,-0.929,-0.929V13.429c0,-0.513,0.416,-0.929,0.929,-0.929h2.142C17.084,12.5,17.5,12.916,17.5,13.429zM25.5,13.429v16.142c0,0.513,-0.416,0.929,-0.929,0.929h-2.142c-0.513,0,-0.929,-0.416,-0.929,-0.929V13.429c0,-0.513,0.416,-0.929,0.929,-0.929h2.142C25.084,12.5,25.5,12.916,25.5,13.429z" fill="#FFFFFF" stroke="#383838" stroke-width="1" stroke-miterlimit="1"/>
    <path d="M9.5,14.5h4M9.5,28.5h4M17.5,28.5h4M17.5,14.5h4M25.5,28.5h3.5M2,14.5h3.5" fill="#FFFFFF" stroke="#383838" stroke-width="1" stroke-miterlimit="1"/>
    <path d="M6.3,10c2.6,-3.2,-2.7,-4.889,0.7,-8M11.5,2c-3.4,3.111,1.9,4.8,-0.7,8M16,2c-3.4,3.111,1.9,4.8,-0.7,8M20.5,2c-3.4,3.111,1.9,4.8,-0.7,8M25,2c-3.4,3.111,1.9,4.8,-0.7,8" fill="#FFFFFF" stroke="#EE3D3B" stroke-width="1" stroke-miterlimit="1"/>
  </g>
</svg>
