<?xml version="1.0" encoding="UTF-8"?>
<!DOCTYPE svg PUBLIC "-//W3C//DTD SVG 1.1//EN" "http://www.w3.org/Graphics/SVG/1.1/DTD/svg11.dtd">
<svg version="1.1" id="Layer_1" xmlns="http://www.w3.org/2000/svg" xmlns:xlink="http://www.w3.org/1999/xlink" x="0px" y="0px" width="32px" height="32px" viewBox="0 0 32 32" enable-background="new 0 0 32 32" xml:space="preserve">
  <g id="icon">
    <circle cx="23.13" cy="8.87" r="7.37" fill="#FFFFFF" stroke="#228BCB" stroke-width="1" stroke-miterlimit="1"/>
    <circle cx="23.13" cy="8.87" r="1.701" fill="#FFFFFF" stroke="#383838" stroke-width="1" stroke-miterlimit="1"/>
    <line x1="4.733" y1="27.267" x2="1.5" y2="30.5" fill="#FFFFFF" stroke="#787979" stroke-width="1" stroke-miterlimit="1"/>
    <path d="M18.363,17.881L8.973,27.27c-0.566,0.567,-1.32,0.879,-2.121,0.879c-0.802,0,-1.555,-0.312,-2.122,-0.88c-0.567,-0.566,-0.879,-1.32,-0.879,-2.121c0,-0.802,0.312,-1.555,0.879,-2.122l9.388,-9.387" fill="#FFFFFF" stroke="#383838" stroke-width="1" stroke-miterlimit="1"/>
    <path d="M30.304,15.989c-3.947,3.947,-10.346,3.947,-14.294,0c-3.947,-3.947,-3.947,-10.346,0,-14.294" fill="none" stroke="#383838" stroke-width="1" stroke-miterlimit="1"/>
    <path d="M10.664,16.642l-3.849,-3.848c-0.425,-0.425,-0.425,-1.114,0,-1.539l0,0c0.425,-0.425,1.114,-0.425,1.539,0l3.849,3.849" fill="#FFFFFF" stroke="#383838" stroke-width="1" stroke-miterlimit="1"/>
  </g>
</svg>
