<?xml version="1.0" encoding="UTF-8"?>
<!DOCTYPE svg PUBLIC "-//W3C//DTD SVG 1.1//EN" "http://www.w3.org/Graphics/SVG/1.1/DTD/svg11.dtd">
<svg version="1.1" id="Layer_1" xmlns="http://www.w3.org/2000/svg" xmlns:xlink="http://www.w3.org/1999/xlink" x="0px" y="0px" width="16px" height="16px" viewBox="0 0 16 16" enable-background="new 0 0 16 16" xml:space="preserve">
  <g id="icon">
    <path d="M15.5401,3.8864C14.3483,0.8616,10.8485,-0.2229,7.9079,0.0441c-1.9455,0.1767,-3.4711,0.8204,-4.5346,1.913C2.1058,3.2595,1.6383,4.8204,1.371,6.0419c-0.0531,0.2425,-0.1191,0.5444,-0.0192,0.8739c0.0309,0.1017,0.0803,0.1836,0.1255,0.2473c-0.061,0.1042,-0.154,0.2246,-0.2391,0.3348c-0.0708,0.0916,-0.1439,0.1863,-0.2076,0.2818c-0.0335,0.0503,-0.1073,0.1446,-0.1854,0.2444c-0.4893,0.6251,-1.0983,1.403,-0.7376,2.014c0.1871,0.317,0.5309,0.4269,0.7818,0.5071c0.04,0.0128,0.0906,0.029,0.1349,0.0448c-0.0258,0.3037,0.0732,0.5378,0.2045,0.7129c-0.0764,0.0739,-0.1396,0.1659,-0.1746,0.2832c-0.0541,0.1812,-0.0224,0.3713,0.0893,0.5354c0.1067,0.157,0.2373,0.2521,0.3326,0.3214c0.0024,0.0017,0.0049,0.0035,0.0074,0.0054c-0.0195,0.0767,-0.0457,0.1586,-0.073,0.2442c-0.1274,0.3993,-0.32,1.0027,0.1478,1.5761c0.5351,0.6558,1.4347,0.5659,2.03,0.5063l0.0388,-0.0039c0.1032,-0.0103,0.2201,-0.031,0.3439,-0.053c0.1812,-0.0322,0.6516,-0.1156,0.7969,-0.055c0.0172,0.056,0.025,0.1438,0.0326,0.2291c0.0248,0.2788,0.0765,0.8589,0.7353,1.0288c0.2608,0.0672,0.515,0.0802,0.7763,0.0802c0.081,0,0.1628,-0.0013,0.2456,-0.0025c0.0859,-0.0013,0.1749,-0.0027,0.2678,-0.0027c0.813,0,4.9372,-0.087,6.286,-1.8036c0.4054,-0.5159,0.5333,-1.1431,0.3701,-1.8138c-0.0801,-0.3289,-0.0779,-0.3577,-0.0707,-0.4532c0.0048,-0.0644,0.0115,-0.1525,0.0115,-0.2903c0,-0.3157,0.2463,-0.5763,0.6521,-0.9679c0.1771,-0.1709,0.3602,-0.3477,0.5221,-0.5488c0.4779,-0.5935,0.8387,-1.2271,1.0723,-1.8834C16.1538,6.8724,16.1082,5.328,15.5401,3.8864zM13,5.8663v2.1349h-2v0.0167c0,0.5422,-0.4411,0.9833,-0.9833,0.9833H9.5v2H6.8651c-0.173,0.2986,-0.4952,0.5,-0.8651,0.5c-0.5523,0,-1,-0.4477,-1,-1s0.4477,-1,1,-1c0.3699,0,0.6921,0.2014,0.8651,0.5H8.5v-1h-0.5167c-0.5422,0,-0.9833,-0.4411,-0.9833,-0.9833V7.0012H4.5V5.3663c-0.2986,-0.173,-0.5,-0.4952,-0.5,-0.8651c0,-0.5523,0.4477,-1,1,-1s1,0.4477,1,1c0,0.3699,-0.2014,0.6921,-0.5,0.8651v0.6349h1.5v-0.0167c0,-0.5422,0.4411,-0.9833,0.9833,-0.9833H8.5V3.8663c-0.2986,-0.173,-0.5,-0.4952,-0.5,-0.8651c0,-0.5523,0.4477,-1,1,-1s1,0.4477,1,1c0,0.3699,-0.2014,0.6921,-0.5,0.8651v1.1349h0.5167c0.5422,0,0.9833,0.4411,0.9833,0.9833v1.0167h1V5.8663c-0.2986,-0.173,-0.5,-0.4952,-0.5,-0.8651c0,-0.5523,0.4477,-1,1,-1s1,0.4477,1,1C13.5,5.3711,13.2986,5.6934,13,5.8663zM8,6.0012h2v2H8V6.0012z" fill="#6485C3"/>
    <path d="M12.5,4.0012c-0.5523,0,-1,0.4477,-1,1c0,0.3699,0.2014,0.6921,0.5,0.8651v1.1349h-1V5.9846c0,-0.5422,-0.4411,-0.9833,-0.9833,-0.9833H9.5V3.8663c0.2986,-0.173,0.5,-0.4952,0.5,-0.8651c0,-0.5523,-0.4477,-1,-1,-1s-1,0.4477,-1,1c0,0.3699,0.2014,0.6921,0.5,0.8651v1.1349h-0.5167c-0.5422,0,-0.9833,0.4411,-0.9833,0.9833v0.0167H5.5v-0.6349c0.2986,-0.173,0.5,-0.4952,0.5,-0.8651c0,-0.5523,-0.4477,-1,-1,-1s-1,0.4477,-1,1c0,0.3699,0.2014,0.6921,0.5,0.8651v1.6349h2.5v1.0167c0,0.5422,0.4411,0.9833,0.9833,0.9833H8.5v1H6.8651c-0.173,-0.2986,-0.4952,-0.5,-0.8651,-0.5c-0.5523,0,-1,0.4477,-1,1s0.4477,1,1,1c0.3699,0,0.6921,-0.2014,0.8651,-0.5H9.5v-2h0.5167c0.5422,0,0.9833,-0.4411,0.9833,-0.9833v-0.0167h2V5.8663c0.2986,-0.173,0.5,-0.4952,0.5,-0.8651C13.5,4.4489,13.0523,4.0012,12.5,4.0012zM10,8.0012H8v-2h2V8.0012z" fill="#FFFFFF" opacity="0.5"/>
  </g>
</svg>
