<?xml version="1.0" encoding="UTF-8"?>
<!DOCTYPE svg PUBLIC "-//W3C//DTD SVG 1.1//EN" "http://www.w3.org/Graphics/SVG/1.1/DTD/svg11.dtd">
<svg version="1.1" id="Layer_1" xmlns="http://www.w3.org/2000/svg" xmlns:xlink="http://www.w3.org/1999/xlink" x="0px" y="0px" width="16px" height="16px" viewBox="0 0 16 16" enable-background="new 0 0 16 16" xml:space="preserve">
  <g id="icon">
    <path d="M13,15.5H3c-1.3807,0,-2.5,-1.1193,-2.5,-2.5v0c0,-1.3807,1.1193,-2.5,2.5,-2.5h10c1.3807,0,2.5,1.1193,2.5,2.5v0C15.5,14.3807,14.3807,15.5,13,15.5z" fill="#FFFFFF" opacity="0.5"/>
    <path d="M13,16H3c-1.6542,0,-3,-1.3458,-3,-3s1.3458,-3,3,-3h10c1.6542,0,3,1.3458,3,3S14.6542,16,13,16zM3,11c-1.1028,0,-2,0.8972,-2,2s0.8972,2,2,2h10c1.1028,0,2,-0.8972,2,-2s-0.8972,-2,-2,-2H3z" fill="#6E6F72"/>
    <circle cx="3.5" cy="13" r="1" fill="#FFFFFF" opacity="0.5"/>
    <path d="M3.5,14.5c-0.8271,0,-1.5,-0.6729,-1.5,-1.5s0.6729,-1.5,1.5,-1.5s1.5,0.6729,1.5,1.5S4.3271,14.5,3.5,14.5zM3.5,12.5c-0.2757,0,-0.5,0.2243,-0.5,0.5s0.2243,0.5,0.5,0.5s0.5,-0.2243,0.5,-0.5S3.7757,12.5,3.5,12.5z" fill="#6E6F72"/>
    <circle cx="8" cy="13" r="1" fill="#FFFFFF" opacity="0.5"/>
    <path d="M8,14.5c-0.8271,0,-1.5,-0.6729,-1.5,-1.5s0.6729,-1.5,1.5,-1.5s1.5,0.6729,1.5,1.5S8.8271,14.5,8,14.5zM8,12.5c-0.2757,0,-0.5,0.2243,-0.5,0.5s0.2243,0.5,0.5,0.5s0.5,-0.2243,0.5,-0.5S8.2757,12.5,8,12.5z" fill="#6E6F72"/>
    <circle cx="12.5" cy="13" r="1" fill="#FFFFFF" opacity="0.5"/>
    <path d="M12.5,14.5c-0.8271,0,-1.5,-0.6729,-1.5,-1.5s0.6729,-1.5,1.5,-1.5s1.5,0.6729,1.5,1.5S13.3271,14.5,12.5,14.5zM12.5,12.5c-0.2757,0,-0.5,0.2243,-0.5,0.5s0.2243,0.5,0.5,0.5s0.5,-0.2243,0.5,-0.5S12.7757,12.5,12.5,12.5z" fill="#6E6F72"/>
    <polygon points="12.4536,1.0214 11.7464,1.7286 14.0179,4 0.5,4 0.5,5 14.0679,5 11.7464,7.3214 12.4536,8.0286 15.9571,4.525" fill="#6486C4" stroke-linejoin="miter"/>
  </g>
</svg>
