<?xml version="1.0" encoding="UTF-8"?>
<!DOCTYPE svg PUBLIC "-//W3C//DTD SVG 1.1//EN" "http://www.w3.org/Graphics/SVG/1.1/DTD/svg11.dtd">
<svg version="1.1" id="Layer_1" xmlns="http://www.w3.org/2000/svg" xmlns:xlink="http://www.w3.org/1999/xlink" x="0px" y="0px" width="16px" height="16px" viewBox="0 0 16 16" enable-background="new 0 0 16 16" xml:space="preserve">
  <g id="icon">
    <path d="M13.4248,2.505c0.4737,-0.0962,0.8303,-0.515,0.8303,-1.0171v0c0,-0.5732,-0.4647,-1.0379,-1.0379,-1.0379H2.8379C2.2647,0.45,1.8,0.9147,1.8,1.4879v0c0,0.4647,0.3055,0.858,0.7266,0.9903v10.9459h0.3114c-0.5732,0,-1.0379,0.4647,-1.0379,1.0379S2.2647,15.5,2.8379,15.5h10.3793c0.5732,0,1.0379,-0.4647,1.0379,-1.0379s-0.4647,-1.0379,-1.0379,-1.0379h0.2076V2.505z" fill="#FFFFFF" opacity="0.5"/>
    <path d="M14,13.0875V2.9125c0.5816,-0.2066,1,-0.7609,1,-1.4125c0,-0.8271,-0.6729,-1.5,-1.5,-1.5H2.5c-0.8271,0,-1.5,0.6729,-1.5,1.5c0,0.6516,0.4184,1.2059,1,1.4125v10.175c-0.5816,0.2066,-1,0.7609,-1,1.4125c0,0.8271,0.6729,1.5,1.5,1.5h11c0.8271,0,1.5,-0.6729,1.5,-1.5C15,13.8484,14.5816,13.2941,14,13.0875zM13,3v10H3V3H13zM2.5,1h11c0.2757,0,0.5,0.2243,0.5,0.5s-0.2243,0.5,-0.5,0.5H2.5c-0.2757,0,-0.5,-0.2243,-0.5,-0.5S2.2243,1,2.5,1zM13.5,15H2.5c-0.2757,0,-0.5,-0.2243,-0.5,-0.5s0.2243,-0.5,0.5,-0.5h11c0.2757,0,0.5,0.2243,0.5,0.5S13.7757,15,13.5,15z" fill="#6E6F72"/>
    <path d="M8,12c-0.7919,0,-1.5308,-0.2984,-2.0807,-0.8403c-0.5605,-0.5523,-0.8693,-1.3059,-0.8693,-2.1218c0,-0.9484,0.6363,-1.8493,1.3099,-2.8031c0.4365,-0.6181,0.8878,-1.257,1.0968,-1.8459C7.5394,4.1562,7.7577,4,8.0001,4c0.242,0,0.4602,0.1559,0.543,0.3878c0.2093,0.5857,0.6579,1.2196,1.0916,1.8326l-0.3668,0.2607l0.3673,-0.26c0.6761,0.9554,1.3147,1.8578,1.3147,2.8167c0,0.8215,-0.309,1.5772,-0.8701,2.1278C9.5317,11.7037,8.7931,12,8,12zM8.0009,5.3606c-0.2561,0.4734,-0.5846,0.9386,-0.9058,1.3933C6.5062,7.5878,5.95,8.3753,5.95,9.0379c0,0.573,0.2134,1.0989,0.601,1.4808C6.9314,10.8936,7.446,11.1,8,11.1c0.5559,0,1.0707,-0.2048,1.4496,-0.5767c0.3872,-0.38,0.6004,-0.9075,0.6004,-1.4854c0,-0.6727,-0.5583,-1.4616,-1.1494,-2.2968v0l0.3673,-0.2599l-0.3679,0.2592C8.5816,6.2902,8.2558,5.8297,8.0009,5.3606z" fill="#6E6F72"/>
    <path d="M8.6489,9.1256c-0.0217,-0.3309,-0.2997,-0.7325,-0.5484,-1.0544c-0.0309,-0.0399,-0.0568,-0.0736,-0.0759,-0.1c-0.0887,-0.1178,-0.2102,-0.2876,-0.3052,-0.4806l0.6448,-0.2763c0.0771,0.1469,0.1782,0.2808,0.2207,0.3372l0.0053,0.0072c0.0135,0.0187,0.0324,0.0432,0.0549,0.0723l0.0094,0.0122c0.2352,0.3044,0.7118,0.9215,0.6952,1.5592L8.6489,9.1256z" fill="#6E6F72"/>
  </g>
</svg>
