<?xml version="1.0" encoding="UTF-8"?>
<!DOCTYPE svg PUBLIC "-//W3C//DTD SVG 1.1//EN" "http://www.w3.org/Graphics/SVG/1.1/DTD/svg11.dtd">
<svg version="1.1" id="Layer_1" xmlns="http://www.w3.org/2000/svg" xmlns:xlink="http://www.w3.org/1999/xlink" x="0px" y="0px" width="16px" height="16px" viewBox="0 0 16 16" enable-background="new 0 0 16 16" xml:space="preserve">
  <g id="icon">
    <polygon points="6.5079,15.2757 5.9387,15.8495 3.5473,14.9521 3.1321,12.4093 3.9764,11.56" fill="#FFFFFF" stroke-linejoin="miter" opacity="0.5"/>
    <polygon points="10.5222,3.0856 8.6788,4.6811 9.6254,5.8777 8.7615,6.7467 11.2629,10.4826 12.8139,8.9191 13.9598,9.9163 15.6039,8.2211" fill="#FFFFFF" stroke-linejoin="miter" opacity="0.5"/>
    <path d="M5.291,0.5428L1.8534,0.9416L0.5083,4.0828l2.0925,2.842l3.4376,-0.4986l1.3452,-3.2409L5.291,0.5428zM3.9957,4.9802c-0.7154,0,-1.2953,-0.5804,-1.2953,-1.2963s0.5799,-1.2963,1.2953,-1.2963S5.291,2.9679,5.291,3.6839S4.7111,4.9802,3.9957,4.9802z" fill="#FFFFFF" opacity="0.5"/>
    <path d="M15.7395,7.5708l-4.6662,-4.6699c-0.168,-0.1681,-0.3917,-0.2607,-0.6299,-0.2607c-0.2382,0,-0.4619,0.0926,-0.6299,0.2607L8.0315,4.6841L9.41,6.0637l-0.6622,0.6627l0.5253,0.7846l0.7915,-0.7921l1.8598,1.8612l-1.1589,1.1597l0.5254,0.7846l1.2881,-1.2892l1.3785,1.3796l1.7819,-1.7832C16.0868,8.4839,16.0868,7.9184,15.7395,7.5708zM13.9576,9.3045L9.3408,4.6841l1.1025,-1.1033l4.6168,4.6204L13.9576,9.3045zM5.963,14.5462l0.5419,0.768L5.8196,16l-1.5452,-0.013l-1.6109,-1.6122l-0.013,-1.5464l1.3022,-1.3032l0.5308,0.7791l-0.904,0.9047l0.0065,0.7788l1.0751,1.076l0.7782,0.0065L5.963,14.5462zM4.5551,10.8725l0.7747,-0.7254l2.5504,3.7907l-0.7747,0.7254L4.5551,10.8725zM6.0255,9.401l0.7747,-0.7254l2.5504,3.7907l-0.7747,0.7255L6.0255,9.401zM7.3962,8.0292l0.7747,-0.7254l2.5503,3.7907l-0.7747,0.7255L7.3962,8.0292zM5.5174,0L1.5402,0.4809L0,4.1506l2.441,3.1792l3.9773,-0.481l1.5402,-3.6696L5.5174,0zM5.7804,6.0033l-2.9313,0.3544L1.0499,4.0145L2.178,1.3265L5.1094,0.972l1.7991,2.3432L5.7804,6.0033zM5.5169,3.0392c-0.1668,-0.4111,-0.4836,-0.7325,-0.892,-0.9051c-0.2066,-0.0873,-0.4236,-0.1315,-0.645,-0.1315c-0.214,0,-0.4244,0.0414,-0.6252,0.1232c-0.4107,0.1671,-0.7318,0.4843,-0.9042,0.8931c-0.356,0.8439,0.0403,1.8203,0.8833,2.1764c0.2053,0.0867,0.4216,0.1307,0.6429,0.1307h0.0001c0.6701,0,1.2711,-0.3986,1.5313,-1.0154C5.6806,3.9018,5.6837,3.4503,5.5169,3.0392zM4.766,3.9971c-0.1339,0.3175,-0.4434,0.5227,-0.7884,0.5227c-0.1138,0,-0.225,-0.0226,-0.3305,-0.0672c-0.2098,-0.0886,-0.3726,-0.2541,-0.4585,-0.4659c-0.086,-0.2119,-0.0845,-0.4442,0.0041,-0.6543c0.0887,-0.2104,0.254,-0.3737,0.4654,-0.4597c0.1036,-0.0421,0.2119,-0.0635,0.3217,-0.0635c0.1137,0,0.2254,0.0228,0.3318,0.0678c0.2101,0.0887,0.3731,0.2541,0.4589,0.4657C4.8564,3.5542,4.8548,3.7866,4.766,3.9971z" fill="#6485C3"/>
  </g>
</svg>
