<?xml version="1.0" encoding="UTF-8"?>
<!DOCTYPE svg PUBLIC "-//W3C//DTD SVG 1.1//EN" "http://www.w3.org/Graphics/SVG/1.1/DTD/svg11.dtd">
<svg version="1.1" id="Layer_1" xmlns="http://www.w3.org/2000/svg" xmlns:xlink="http://www.w3.org/1999/xlink" x="0px" y="0px" width="16px" height="16px" viewBox="0 0 16 16" enable-background="new 0 0 16 16" xml:space="preserve">
  <g id="icon">
    <rect x="2" y="2" width="12" height="12" fill="#FFFFFF" opacity="0.5"/>
    <path d="M2,13h12V3H2V13zM10.1097,11.1717c-0.0146,0.0558,-0.0502,0.1023,-0.1002,0.1309c-0.6129,0.3508,-1.3137,0.5362,-2.0266,0.5362c-0.7149,0,-1.4182,-0.1863,-2.034,-0.5388c-0.0497,-0.0284,-0.0852,-0.0744,-0.1001,-0.1296c-0.0148,-0.0549,-0.0074,-0.1122,0.021,-0.1614c0.227,-0.3942,0.7712,-1.2885,1.1878,-1.9693c0.0387,-0.0633,0.1062,-0.1011,0.1805,-0.1011c0.0362,0,0.071,0.009,0.1033,0.0267c0.2019,0.1108,0.4303,0.1693,0.6606,0.1693c0.2224,0,0.4349,-0.0517,0.6317,-0.1537c0.0304,-0.0157,0.063,-0.0237,0.0972,-0.0237c0.0738,0,0.143,0.0384,0.1807,0.1002c0.4389,0.7191,0.9299,1.541,1.1148,1.8503l0.0602,0.1008C10.116,11.0581,10.1243,11.116,10.1097,11.1717zM8.6289,6.2696c0.4264,-0.8322,0.9249,-1.7831,1.0675,-2.0547c0.0268,-0.0509,0.0717,-0.088,0.1266,-0.1045c0.0201,-0.006,0.0408,-0.0091,0.0613,-0.0091c0.0357,0,0.07,0.009,0.1022,0.0268c1.262,0.6968,2.0718,2.0281,2.1133,3.4741c0.0016,0.0574,-0.0191,0.1119,-0.0585,0.1534c-0.039,0.0411,-0.0915,0.0645,-0.1481,0.0659c-0.2857,0.007,-0.8272,0.0106,-1.6094,0.0106c-0.2128,0,-0.4434,-0.0003,-0.6917,-0.0008c-0.1095,-0.0003,-0.202,-0.0869,-0.2107,-0.1971c-0.0349,-0.4474,-0.2859,-0.8528,-0.6714,-1.0846C8.6138,6.4916,8.5782,6.3687,8.6289,6.2696zM8.8734,7.7438c0,0.4825,-0.391,0.8749,-0.8716,0.8749c-0.4806,0,-0.8716,-0.3925,-0.8716,-0.8749c0,-0.4824,0.391,-0.8749,0.8716,-0.8749C8.4824,6.8688,8.8734,7.2613,8.8734,7.7438zM6.0134,4.1281c0.0321,-0.0178,0.0665,-0.0268,0.1021,-0.0268c0.0206,0,0.0412,0.0031,0.0614,0.0091c0.0549,0.0165,0.0999,0.0536,0.1267,0.1045c0.1406,0.2676,0.6332,1.207,1.0683,2.0564c0.0506,0.0989,0.0152,0.2217,-0.0808,0.2797c-0.3841,0.2319,-0.6341,0.6368,-0.669,1.0831c-0.0086,0.1104,-0.1011,0.1969,-0.2106,0.1972c-0.2137,0.0005,-0.4453,0.0008,-0.6785,0.0008c-0.7942,0,-1.3414,-0.0036,-1.6265,-0.0106c-0.0565,-0.0014,-0.109,-0.0248,-0.148,-0.0659c-0.0394,-0.0415,-0.0601,-0.096,-0.0585,-0.1534C3.9416,6.1561,4.7514,4.8249,6.0134,4.1281zM1,1c0,-0.5523,0.4477,-1,1,-1h12c0.5523,0,1,0.4477,1,1c0,0.5523,-0.4477,1,-1,1H2C1.4477,2,1,1.5523,1,1zM15,15c0,0.5523,-0.4477,1,-1,1H2c-0.5523,0,-1,-0.4477,-1,-1c0,-0.5523,0.4477,-1,1,-1h12C14.5523,14,15,14.4477,15,15z" fill="#F1876B"/>
  </g>
</svg>
