<?xml version="1.0" encoding="UTF-8"?>
<!DOCTYPE svg PUBLIC "-//W3C//DTD SVG 1.1//EN" "http://www.w3.org/Graphics/SVG/1.1/DTD/svg11.dtd">
<svg version="1.1" id="Layer_1" xmlns="http://www.w3.org/2000/svg" xmlns:xlink="http://www.w3.org/1999/xlink" x="0px" y="0px" width="24px" height="24px" viewBox="0 0 24 24" enable-background="new 0 0 24 24" xml:space="preserve">
  <g id="icon">
    <polygon points="17,7.025 17,2 7,2 7,9 7,10 7,21 16,21 22,21 22,7" fill="#FFFFFF" stroke-linejoin="miter" opacity="0.4"/>
    <polygon points="17.525,0 5,0 5,9 7,9 7,2 17,2 17,7.025 22,7 22,21 18,21 18,23 24,23 24,6.5" fill="#7B7B7B" stroke-linejoin="miter"/>
    <path d="M1.4699,20c0.2063,-1.3413,0.732,-3.6373,1.5694,-5.025c0.3454,-0.5723,0.7244,-1.0792,1.1266,-1.5064L4.3245,13.3H2.4v-1.3h3.6v1.6416c-1.5159,0.9883,-2.8073,4.123,-3.2061,6.3584H1.4699zM14.584,20c-0.2063,-1.3413,-0.7319,-3.6372,-1.5694,-5.025c-0.3452,-0.5721,-0.7242,-1.079,-1.1265,-1.5065L11.7295,13.3h1.9245v-1.3h-3.7v1.6416c1.616,0.9884,2.9073,4.123,3.3061,6.3584H14.584z" fill="#7B7B7B"/>
    <path d="M0,23.6v-3.2c0,-0.2209,0.1791,-0.4,0.4,-0.4h3.2c0.2209,0,0.4,0.1791,0.4,0.4v3.2c0,0.2209,-0.1791,0.4,-0.4,0.4H0.4C0.1791,24,0,23.8209,0,23.6zM12,23.6v-3.2c0,-0.2209,0.1791,-0.4,0.4,-0.4h3.2c0.2209,0,0.4,0.1791,0.4,0.4v3.2c0,0.2209,-0.1791,0.4,-0.4,0.4h-3.2C12.1791,24,12,23.8209,12,23.6zM6,14.6v-3.2c0,-0.2209,0.1791,-0.4,0.4,-0.4h3.2c0.2209,0,0.4,0.1791,0.4,0.4v3.2c0,0.2209,-0.1791,0.4,-0.4,0.4H6.4C6.1791,15,6,14.8209,6,14.6z" fill="#6485C3"/>
    <path d="M1.7,14.25c-0.9098,0,-1.65,-0.7402,-1.65,-1.65s0.7402,-1.65,1.65,-1.65s1.65,0.7402,1.65,1.65S2.6098,14.25,1.7,14.25zM14.3,14.25c-0.9098,0,-1.65,-0.7402,-1.65,-1.65s0.7402,-1.65,1.65,-1.65s1.65,0.7402,1.65,1.65S15.2098,14.25,14.3,14.25z" fill="#7B7B7B"/>
  </g>
</svg>
