<?xml version="1.0" encoding="UTF-8"?>
<!DOCTYPE svg PUBLIC "-//W3C//DTD SVG 1.1//EN" "http://www.w3.org/Graphics/SVG/1.1/DTD/svg11.dtd">
<svg version="1.1" id="Layer_1" xmlns="http://www.w3.org/2000/svg" xmlns:xlink="http://www.w3.org/1999/xlink" x="0px" y="0px" width="24px" height="24px" viewBox="0 0 24 24" enable-background="new 0 0 24 24" xml:space="preserve">
  <g id="icon">
    <polygon points="17,7.025 17,2 7,2 7,9 7,10 14,10 14,21 22,21 22,7" fill="#FFFFFF" stroke-linejoin="miter" opacity="0.4"/>
    <polygon points="17.525,0 5,0 5,9 7,9 7,2 17,2 17,7.025 22,7 22,21 15,21 15,23 24,23 24,6.5" fill="#7B7B7B" stroke-linejoin="miter"/>
    <path d="M11,22H2v-9h9V22z" fill="#FFFFFF" opacity="0.5"/>
    <path d="M13,24H0V11h13V24zM2,22h9v-9H2V22z" fill="#7B7B7B"/>
    <rect x="3" y="14" width="3.5" height="3.5" fill="#52B250"/>
    <rect x="6.5" y="14" width="3.5" height="3.5" fill="#EEAC55" opacity="0.6"/>
    <rect x="6.5" y="17.5" width="3.5" height="3.5" fill="#6485C3"/>
    <rect x="3" y="17.5" width="3.5" height="3.5" fill="#CB525D" opacity="0.6"/>
  </g>
</svg>
