<?xml version="1.0" encoding="UTF-8"?>
<!DOCTYPE svg PUBLIC "-//W3C//DTD SVG 1.1//EN" "http://www.w3.org/Graphics/SVG/1.1/DTD/svg11.dtd">
<svg version="1.1" id="Layer_1" xmlns="http://www.w3.org/2000/svg" xmlns:xlink="http://www.w3.org/1999/xlink" x="0px" y="0px" width="24px" height="24px" viewBox="0 0 24 24" enable-background="new 0 0 24 24" xml:space="preserve">
  <g id="icon">
    <path d="M17.9267,22.6979l4.7712,-4.7712L24,19.2288L19.2288,24L17.9267,22.6979zM11.9512,22.6979l10.7467,-10.7467L24,13.2532L13.2532,24L11.9512,22.6979zM5.9756,22.6979L22.6979,5.9756L24,7.2777L7.2777,24L5.9756,22.6979zM0,22.6979L22.6979,0L24,1.3021L1.3021,24L0,22.6979zM0,16.7223L16.7223,0l1.3021,1.3021L1.3021,18.0244L0,16.7223zM0,10.7468L10.7468,0l1.3021,1.3021L1.3021,12.0488L0,10.7468zM0,4.7712L4.7712,0l1.3021,1.3021L1.3021,6.0733L0,4.7712z" fill="#7B7B7B"/>
  </g>
</svg>
