<?xml version="1.0" encoding="UTF-8"?>
<!DOCTYPE svg PUBLIC "-//W3C//DTD SVG 1.1//EN" "http://www.w3.org/Graphics/SVG/1.1/DTD/svg11.dtd">
<svg version="1.1" id="Layer_1" xmlns="http://www.w3.org/2000/svg" xmlns:xlink="http://www.w3.org/1999/xlink" x="0px" y="0px" width="24px" height="24px" viewBox="0 0 24 24" enable-background="new 0 0 24 24" xml:space="preserve">
  <g id="icon">
    <path d="M21,22H2V7h19V22z" fill="#FFFFFF" opacity="0.5"/>
    <path d="M23,24H0V5h23V24zM2,22h19V7H2V22z" fill="#7B7B7B"/>
    <path d="M23,7H0V2h23V7z" fill="#6485C3"/>
    <path d="M5,20H4v-6h1V20zM7,11H6v9h1V11zM9,12H8v8h1V12zM11,10h-1v10h1V10zM13,9h-1v11h1V9zM15,14h-1v6h1V14zM17,11h-1v9h1V11zM19,13h-1v7h1V13z" fill="#9070B1"/>
  </g>
</svg>
