<?xml version="1.0" encoding="UTF-8"?>
<!DOCTYPE svg PUBLIC "-//W3C//DTD SVG 1.1//EN" "http://www.w3.org/Graphics/SVG/1.1/DTD/svg11.dtd">
<svg version="1.1" id="Layer_1" xmlns="http://www.w3.org/2000/svg" xmlns:xlink="http://www.w3.org/1999/xlink" x="0px" y="0px" width="24px" height="24px" viewBox="0 0 24 24" enable-background="new 0 0 24 24" xml:space="preserve">
  <g id="icon">
    <rect x="9.95" y="0.95" width="13" height="22" fill="#FFFFFF" opacity="0.5"/>
    <path d="M18.7631,11.2c-1.3021,0,-2.3615,-1.0572,-2.3615,-2.3566c0,-1.2994,1.0594,-2.3566,2.3615,-2.3566c1.3021,0,2.3615,1.0572,2.3615,2.3566C21.1246,10.1428,20.0652,11.2,18.7631,11.2zM18.7631,7.983c-0.4771,0,-0.8652,0.386,-0.8652,0.8604c0,0.4745,0.3881,0.8604,0.8652,0.8604s0.8653,-0.386,0.8653,-0.8604C19.6284,8.3689,19.2402,7.983,18.7631,7.983z" fill="#EEAC55"/>
    <path d="M22,0H9v22v2h2h13V2V0H22zM22,22H11V2h11V22z" fill="#7B7B7B"/>
    <rect width="8" height="1" fill="#7B7B7B"/>
    <rect y="23" width="7" height="1" fill="#7B7B7B"/>
    <polygon points="3.1,8.9 3.1,5.1455 1.4635,6.7885 0.1873,5.5191 4.0083,1.6795 7.8293,5.5191 6.5531,6.7885 4.9,5.1288 4.9,8.9" fill="#6485C3" stroke-linejoin="miter"/>
    <polygon points="3.1,14.9795 3.1,18.734 1.4635,17.0911 0.1873,18.3604 4.0083,22.2 7.8293,18.3604 6.5531,17.0911 4.9,18.7508 4.9,14.9795" fill="#6485C3" stroke-linejoin="miter"/>
    <path d="M17.9645,18.5152c-0.8631,-0.6255,-1.5859,-1.4456,-2.2237,-2.1691c-0.8245,-0.9354,-1.5361,-1.7428,-2.154,-1.7428c-0.0225,0,-0.0453,0.0012,-0.0676,0.0034c-0.4961,0.0494,-1.1025,0.6264,-1.8022,1.7151L11,17.4376v-2.6502l0.0843,-0.1079c0.763,-0.9779,1.5146,-1.4912,2.2977,-1.569c0.0688,-0.0069,0.1388,-0.0104,0.208,-0.0104c1.2173,0,2.1875,1.0653,3.0436,2.0349c0.6992,-0.6287,1.3857,-0.9396,2.0963,-0.9495l0.0328,-0.0002c1.233,0,2.2197,0.9055,3.1245,1.833l0.1129,0.1156v2.1368l-0.6711,-0.7065c-0.9165,-0.9646,-1.7821,-1.8757,-2.5652,-1.8757l-0.0152,0.0001c-0.3448,0.0049,-0.714,0.183,-1.1258,0.5438c0.2779,0.2913,0.6766,0.6864,1.1361,1.0246l0.2802,0.2062l-0.7192,1.3096L17.9645,18.5152z" fill="#52B250"/>
  </g>
</svg>
