<?xml version="1.0" encoding="UTF-8"?>
<!DOCTYPE svg PUBLIC "-//W3C//DTD SVG 1.1//EN" "http://www.w3.org/Graphics/SVG/1.1/DTD/svg11.dtd">
<svg version="1.1" id="Layer_1" xmlns="http://www.w3.org/2000/svg" xmlns:xlink="http://www.w3.org/1999/xlink" x="0px" y="0px" width="24px" height="24px" viewBox="0 0 24 24" enable-background="new 0 0 24 24" xml:space="preserve">
  <g id="icon">
    <path d="M17.1538,4.0036l3.864,-1.4025L19.786,6.5137l2.5346,3.2326l-4.113,0.038l-0.0001,0.0001l-2.2977,3.4003l-1.3103,-3.8891l-3.9547,-1.131l3.3033,-2.4417l-0.1463,-4.0994l3.3516,2.3801C17.1535,4.0036,17.1536,4.0036,17.1538,4.0036z" fill="#FFFFFF" opacity="0.5"/>
    <polygon points="-0.0125,22.3154 11.832,10.3991 13.0855,10.7576 13.5114,12.0214 1.6484,23.9564" fill="#7B7B7B" stroke-linejoin="miter"/>
    <path d="M15.6828,14.8599l-1.6683,-4.9517L8.9741,8.4667l4.2104,-3.1121l-0.1864,-5.2219l4.2691,3.0317l4.9219,-1.7865l-1.569,4.9839l3.2305,4.1202l-5.2422,0.0485L15.6828,14.8599zM12.3155,7.8622l2.869,0.8205l0.9523,2.8264l1.6698,-2.4712l2.9839,-0.0275l-1.8386,-2.3449l0.8946,-2.8414l-2.5608,0.9295h-0.3089l-0.2105,-0.1051l-2.1608,-1.5344l0.1063,2.977L12.3155,7.8622z" fill="#EEAC55"/>
  </g>
</svg>
