<?xml version="1.0" encoding="UTF-8"?>
<!DOCTYPE svg PUBLIC "-//W3C//DTD SVG 1.1//EN" "http://www.w3.org/Graphics/SVG/1.1/DTD/svg11.dtd">
<svg version="1.1" id="Layer_1" xmlns="http://www.w3.org/2000/svg" xmlns:xlink="http://www.w3.org/1999/xlink" x="0px" y="0px" width="24px" height="24px" viewBox="0 0 24 24" enable-background="new 0 0 24 24" xml:space="preserve">
  <g id="icon">
    <path d="M11.7521,8.7549c-3.8542,3.9534,-6.2586,6.9664,-7.5338,8.7797c-0.8658,1.2311,-1.5495,2.2034,-2.8409,3.4908c-0.3238,0.3228,-0.4135,0.7913,-0.2343,1.2228c0.1866,0.4491,0.6151,0.7509,1.0663,0.7509c0.2886,0,0.5597,-0.1182,0.7839,-0.3418c1.2481,-1.2442,2.1708,-1.9144,3.3399,-2.7635c1.7827,-1.2946,4.7798,-3.7368,8.8608,-7.7075L11.7521,8.7549z" fill="#7B7B7B"/>
    <path d="M18.022,12.2544c-0.5113,0,-0.9922,-0.1986,-1.3538,-0.5592l-4.7193,-4.7048c-0.3616,-0.3605,-0.5607,-0.8406,-0.5607,-1.3517s0.1992,-0.9911,0.5607,-1.3516c0.3617,-0.3606,0.8425,-0.5592,1.3538,-0.5592c0.4439,0,0.8648,0.1497,1.2047,0.4251c0.0328,-0.0392,0.0674,-0.077,0.1038,-0.1133c0.489,-0.4864,1.6181,-1.6103,1.6929,-1.6783C17.2838,1.4708,18.3748,1,19.4594,1c1.3418,0,2.5076,0.7363,3.0422,1.9216c0.6283,1.3936,0.2514,3.0704,-1.0081,4.4855c-0.099,0.1111,-1.5221,1.5351,-1.7445,1.7575c-0.0423,0.0421,-0.0866,0.0819,-0.1327,0.1191c0.2084,0.311,0.3203,0.6767,0.3203,1.0598c0,0.5111,-0.1992,0.9911,-0.5607,1.3516C19.0142,12.0558,18.5333,12.2544,18.022,12.2544z" fill="#6485C3"/>
  </g>
</svg>
