<?xml version="1.0" encoding="UTF-8"?>
<!DOCTYPE svg PUBLIC "-//W3C//DTD SVG 1.1//EN" "http://www.w3.org/Graphics/SVG/1.1/DTD/svg11.dtd">
<svg version="1.1" id="Layer_1" xmlns="http://www.w3.org/2000/svg" xmlns:xlink="http://www.w3.org/1999/xlink" x="0px" y="0px" width="24px" height="24px" viewBox="0 0 24 24" enable-background="new 0 0 24 24" xml:space="preserve">
  <g id="icon">
    <path d="M18.4,23v-1.8h0.8v-0.8h1.8v2.6H18.4zM13.8,23v-1.8h3.1v1.8H13.8zM9.2,23v-1.8h3v1.8H9.2zM4.3,23v-1.8h3.1v1.8H4.3zM0,23v-2.5h1.9v0.8h0.7v1.7H0zM19.2,18.1v-3.8h1.8v3.8H19.2zM0,18v-3.8h1.8v3.8H0zM0,11.8V8h1.8v3.8H0zM19.2,12V9.7584l1.8,-1.8V12H19.2zM0,5.6V3h2.6v1.8h-0.7v0.8H0zM9.2,4.8V3h3v1.8H9.2zM4.3,4.8V3h3.1v1.8H4.3z" fill="#7B7B7B"/>
    <path d="M22.2093,0.526L22.2093,0.526c-0.6873,-0.6146,-1.7442,-0.5574,-2.3606,0.1279l-6.5752,6.9047c0.8599,0.4237,1.6141,1.0888,2.128,1.919c0.0881,0.1423,0.1658,0.2876,0.2373,0.4345l6.6988,-7.0325C22.954,2.1943,22.8966,1.1406,22.2093,0.526z" fill="#7B7B7B"/>
    <path d="M14.4648,13.3295c-1.3063,2.623,-2.8162,2.9715,-11.0511,2.851c-0.1225,-0.0018,-0.1548,-0.1665,-0.0416,-0.2122c2.8835,-1.1669,2.4033,-0.9438,4.6123,-5.4195C10.3307,5.795,16.3265,9.5913,14.4648,13.3295z" fill="#6485C3"/>
  </g>
</svg>
