<?xml version="1.0" encoding="UTF-8"?>
<!DOCTYPE svg PUBLIC "-//W3C//DTD SVG 1.1//EN" "http://www.w3.org/Graphics/SVG/1.1/DTD/svg11.dtd">
<svg version="1.1" id="Layer_1" xmlns="http://www.w3.org/2000/svg" xmlns:xlink="http://www.w3.org/1999/xlink" x="0px" y="0px" width="16px" height="16px" viewBox="0 0 16 16" enable-background="new 0 0 16 16" xml:space="preserve">
  <g id="icon">
    <path d="M12.017,15.5H3.983C2.06,15.5,0.5,13.94,0.5,12.017V3.983C0.5,2.06,2.06,0.5,3.983,0.5h8.033C13.94,0.5,15.5,2.06,15.5,3.983v8.033C15.5,13.94,13.94,15.5,12.017,15.5z" fill="#FFFFFF" stroke="#383838" stroke-width="1" stroke-miterlimit="1"/>
    <path d="M9.5,6.789l2.497,-1.367L9.5,4.1V6.789zM9.5,11.8l2.497,-1.367L9.5,9.111V11.8z" fill="#92CBEE" stroke="#0964B0" stroke-width="1" stroke-miterlimit="1"/>
    <path d="M3,10.5h1.894c0.406,0,0.781,-0.218,0.982,-0.571l1.899,-3.859c0.201,-0.353,0.576,-0.571,0.982,-0.571H9.5M6.1,6.5l-0.226,-0.429C5.673,5.718,5.298,5.5,4.892,5.5H3M9.5,10.5h-0.739c-0.406,0,-0.782,-0.218,-0.983,-0.571L7.5,9.5M9.672,10.478" fill="none" stroke="#0964B0" stroke-width="1" stroke-miterlimit="1"/>
  </g>
</svg>
