<?xml version="1.0" encoding="UTF-8"?>
<!DOCTYPE svg PUBLIC "-//W3C//DTD SVG 1.1//EN" "http://www.w3.org/Graphics/SVG/1.1/DTD/svg11.dtd">
<svg version="1.1" id="Layer_1" xmlns="http://www.w3.org/2000/svg" xmlns:xlink="http://www.w3.org/1999/xlink" x="0px" y="0px" width="16px" height="16px" viewBox="0 0 16 16" enable-background="new 0 0 16 16" xml:space="preserve">
  <g id="icon">
    <polygon points="15.5,15.5 4.5,15.5 4.5,0.5 11.533,0.5 15.5,4.557" fill="#FFFFFF" stroke-linejoin="miter"/>
    <path d="M11.744,0H4v9h1V1h6v4h4v10h-0.5v1h1.5V4.353L11.744,0zM12,4V1.693L14.256,4H12z" fill="#383838"/>
    <path d="M5,16H4v-3.298L2.921,14.8h-0.687L1,12.637V16H0v-6h0.846l1.723,3.159L4.15,10H5V16zM7,13.8h0.606c0.3,0,0.581,-0.045,0.835,-0.132c0.261,-0.09,0.491,-0.218,0.683,-0.38c0.202,-0.169,0.36,-0.375,0.473,-0.614c0.111,-0.238,0.168,-0.498,0.168,-0.774c0,-0.628,-0.207,-1.113,-0.614,-1.443c-0.376,-0.304,-0.896,-0.457,-1.544,-0.457H6v6h1V13.8zM7,11h0.606c0.414,0,0.723,0.079,0.916,0.235c0.06,0.049,0.243,0.196,0.243,0.665c0,0.13,-0.024,0.244,-0.073,0.349c-0.05,0.107,-0.119,0.196,-0.211,0.273c-0.098,0.083,-0.222,0.15,-0.366,0.2c-0.149,0.052,-0.321,0.078,-0.509,0.078H7V11zM13.986,14.175c0,-0.467,-0.203,-0.869,-0.567,-1.166c0.494,-0.399,0.567,-0.915,0.567,-1.186c0,-0.801,-0.491,-1.737,-1.875,-1.737c-1.315,0,-1.829,0.842,-1.872,1.631l0.97,0.052c0.026,-0.479,0.321,-0.712,0.902,-0.712c0.223,0,0.903,0,0.903,0.765c0,0.34,-0.274,0.569,-0.815,0.684c-0.001,0,-0.001,0,-0.002,0l-0.037,-0.006H12v1h0.16l0.036,-0.006c0.419,0.095,0.818,0.313,0.818,0.68c0,0.765,-0.68,0.765,-0.903,0.765c-0.581,0,-0.876,-0.233,-0.902,-0.712l-0.97,0.052c0.043,0.788,0.557,1.631,1.872,1.631C13.495,15.912,13.986,14.976,13.986,14.175z" fill="#238BCB"/>
  </g>
</svg>
