<?xml version="1.0" encoding="UTF-8"?>
<!DOCTYPE svg PUBLIC "-//W3C//DTD SVG 1.1//EN" "http://www.w3.org/Graphics/SVG/1.1/DTD/svg11.dtd">
<svg version="1.1" id="Layer_1" xmlns="http://www.w3.org/2000/svg" xmlns:xlink="http://www.w3.org/1999/xlink" x="0px" y="0px" width="16px" height="16px" viewBox="0 0 16 16" enable-background="new 0 0 16 16" xml:space="preserve">
  <g id="icon">
    <rect x="1.5" y="9.5" width="13" height="6.5" fill="#FFFFFF"/>
    <polygon points="2,16 2,10 14,10 14,16 15,16 15,9 1,9 1,16" fill="#383838" stroke-linejoin="miter"/>
    <rect x="1.5" width="13" height="7.5" fill="#FFFFFF"/>
    <polygon points="2,0 2,7 14,7 14,0 15,0 15,8 1,8 1,0" fill="#383838" stroke-linejoin="miter"/>
    <polygon points="13.995,16 13.968,10 2,10 2,16" fill="#92CBEE" stroke-linejoin="miter"/>
    <path d="M6.306,3.875L8.5,1.7l2.194,2.175M8.5,6l0,-4.213" fill="#FFFFFF" stroke="#228BCB" stroke-width="1" stroke-miterlimit="1"/>
  </g>
</svg>
