<?xml version="1.0" encoding="UTF-8"?>
<!DOCTYPE svg PUBLIC "-//W3C//DTD SVG 1.1//EN" "http://www.w3.org/Graphics/SVG/1.1/DTD/svg11.dtd">
<svg version="1.1" id="Layer_1" xmlns="http://www.w3.org/2000/svg" xmlns:xlink="http://www.w3.org/1999/xlink" x="0px" y="0px" width="24px" height="24px" viewBox="0 0 24 24" enable-background="new 0 0 24 24" xml:space="preserve">
  <g id="icon">
    <polyline points="23.25,10.5 23.25,23.25 0.75,23.25 0.75,10.5" fill="#FFFFFF" stroke-linejoin="miter" opacity="0.5"/>
    <polygon points="24,24 0,24 0,10.5 2,10.5 2,22 22,22 22,10.5 24,10.5" fill="#7B7B7B" stroke-linejoin="miter"/>
    <path d="M7,17H5v-2h2V17zM13,17h-2v-2h2V17zM10,17H8v-2h2V17zM16,17h-2v-2h2V17zM19,17h-2v-2h2V17z" fill="#B7B7B7"/>
    <path d="M11.5,20H9.5v-2h2V20zM8.5,20H6.5v-2h2V20zM14.5,20h-2v-2h2V20zM17.5,20h-2v-2h2V20z" fill="#B7B7B7"/>
    <path d="M12,0C8.4101,0,5.5,2.9102,5.5,6.5c0,3.5899,2.9101,6.5,6.5,6.5s6.5,-2.9101,6.5,-6.5C18.5,2.9102,15.5899,0,12,0zM13,11h-2V9h2V11zM13,7.5h-2V2h2V7.5z" fill="#CB525D"/>
    <path d="M13,7.5h-2V2h2V7.5zM13,9h-2v2h2V9z" fill="#FFFFFF"/>
  </g>
</svg>
