<?xml version="1.0" encoding="UTF-8"?>
<!DOCTYPE svg PUBLIC "-//W3C//DTD SVG 1.1//EN" "http://www.w3.org/Graphics/SVG/1.1/DTD/svg11.dtd">
<svg version="1.1" id="Layer_1" xmlns="http://www.w3.org/2000/svg" xmlns:xlink="http://www.w3.org/1999/xlink" x="0px" y="0px" width="24px" height="24px" viewBox="0 0 24 24" enable-background="new 0 0 24 24" xml:space="preserve">
  <g id="icon">
    <polygon points="10.9,19.1 10.9,9.1 9.2,9.1 9.2,7.9 17,7.9 15.5,9.1 12.1,9.1 12.1,17.9 15.9,17.9 15.9,19.1" fill="#6D6E71" stroke-linejoin="miter"/>
    <path d="M22.4032,17.9828l-4.5125,4.45l-2.6686,-2.6317l4.5125,-4.45L22.4032,17.9828zM19.7345,4.6954l-4.5125,4.45l2.5602,2.6821l4.621,-4.5004L19.7345,4.6954zM8.9724,1.6079L1.6306,8.8481l3.565,3.5156l7.3419,-7.2402L8.9724,1.6079z" fill="#FFFFFF" opacity="0.5"/>
    <path d="M13.6327,19.8541l6.1554,-6.0701l4.2043,4.1459L17.837,24L13.6327,19.8541zM17.837,21.2778l3.395,-3.348l-1.4438,-1.4238l-3.3949,3.348L17.837,21.2778z" fill="#6485C3"/>
    <path d="M13.6488,9.177l6.1395,-6.0546L24,7.2757l-6.3047,6.1404L13.6488,9.177zM17.7464,10.6591l3.4827,-3.3919l-1.4407,-1.4208l-3.4183,3.3709L17.7464,10.6591z" fill="#9070B1"/>
    <path d="M0,8.9375L9.063,0l5.105,5.0342l-9.063,8.9375L0,8.9375zM5.105,11.2717l6.3251,-6.2375L9.063,2.6999L2.7379,8.9375L5.105,11.2717z" fill="#EEAC55"/>
  </g>
</svg>
