<?xml version="1.0" encoding="UTF-8"?>
<!DOCTYPE svg PUBLIC "-//W3C//DTD SVG 1.1//EN" "http://www.w3.org/Graphics/SVG/1.1/DTD/svg11.dtd">
<svg version="1.1" id="Layer_1" xmlns="http://www.w3.org/2000/svg" xmlns:xlink="http://www.w3.org/1999/xlink" x="0px" y="0px" width="24px" height="24px" viewBox="0 0 24 24" enable-background="new 0 0 24 24" xml:space="preserve">
  <g id="icon">
    <path d="M20.2875,22.95H4.6125c-1.4705,0,-2.6625,-1.192,-2.6625,-2.6625V4.6125C1.95,3.142,3.142,1.95,4.6125,1.95h15.675c1.4705,0,2.6625,1.192,2.6625,2.6625v15.675C22.95,21.758,21.758,22.95,20.2875,22.95z" fill="#FFFFFF" opacity="0.5"/>
    <path d="M1,20.4048V4.5952C1,2.6096,2.6096,1,4.5952,1h15.8096C22.3904,1,24,2.6096,24,4.5952v15.8096C24,22.3904,22.3904,24,20.4048,24H4.5952C2.6096,24,1,22.3904,1,20.4048zM3,4.5952v15.8096C3,21.2858,3.7142,22,4.5952,22h15.8096c0.881,0,1.5952,-0.7142,1.5952,-1.5952V4.5952C22,3.7142,21.2858,3,20.4048,3H4.5952C3.7142,3,3,3.7142,3,4.5952z" fill="#6485C3"/>
    <polygon points="6.7,20 6.7,17.7 11.4,17.7 11.4,7.3 6.7,7.3 6.7,5 18.3,5 18.3,7.3 13.6,7.3 13.6,17.7 18.3,17.7 18.3,20" fill="#6485C3" stroke-linejoin="miter"/>
  </g>
</svg>
