<?xml version="1.0" encoding="UTF-8"?>
<!DOCTYPE svg PUBLIC "-//W3C//DTD SVG 1.1//EN" "http://www.w3.org/Graphics/SVG/1.1/DTD/svg11.dtd">
<svg version="1.1" id="Layer_1" xmlns="http://www.w3.org/2000/svg" xmlns:xlink="http://www.w3.org/1999/xlink" x="0px" y="0px" width="24px" height="24px" viewBox="0 0 24 24" enable-background="new 0 0 24 24" xml:space="preserve">
  <g id="icon">
    <rect x="0.8" y="4" width="22.5" height="18" fill="#FFFFFF" opacity="0.5"/>
    <polygon points="24,23 0,23 0,3 3,3 3,5 2,5 2,21 22,21 22,5 21,5 21,3 24,3" fill="#7B7B7B" stroke-linejoin="miter"/>
    <path d="M7.3893,7.8406L5.9654,5.4882L4.5416,7.8406l-1.2832,-0.7767l1.8304,-3.0242L3.2584,1.0156l1.2832,-0.7767l1.4238,2.3524L7.3893,0.2389l1.2832,0.7767L6.8421,4.0397l1.8304,3.0242L7.3893,7.8406zM12.8,4.801l2.1502,-3.7418l-1.3005,-0.7474l-1.62,2.8189L10.4789,0.336l-1.3116,0.7279L11.3,4.9068V7.8h1.5V4.801zM20.3,6.3h-2.8007L20.3,1.3002V0.3h-4.8v1.5h2.8007L15.5,6.7998V7.8h4.8V6.3z" fill="#6485C3"/>
  </g>
</svg>
