<?xml version="1.0" encoding="UTF-8"?>
<!DOCTYPE svg PUBLIC "-//W3C//DTD SVG 1.1//EN" "http://www.w3.org/Graphics/SVG/1.1/DTD/svg11.dtd">
<svg version="1.1" id="Layer_1" xmlns="http://www.w3.org/2000/svg" xmlns:xlink="http://www.w3.org/1999/xlink" x="0px" y="0px" width="24px" height="24px" viewBox="0 0 24 24" enable-background="new 0 0 24 24" xml:space="preserve">
  <g id="icon">
    <path d="M4.25,3.75v3.9591C5.3941,7.1896,6.6638,6.9,8,6.9c5.0178,0,9.1,4.0822,9.1,9.1c0,0.4241,-0.0298,0.8412,-0.0862,1.25H23.25v-13.5H4.25z" fill="#FFFFFF" opacity="0.5"/>
    <path d="M10,7.1219V5h1v2.4087C10.6746,7.2948,10.3409,7.1987,10,7.1219zM22,9V8h-5V5h-1v3h-3.6658c0.5245,0.2853,1.0179,0.621,1.4739,1H16v2.6658c0.4965,0.9128,0.8409,1.9196,1,2.9861V13h5v-1h-5V9H22z" fill="#6D6E71"/>
    <path d="M3,3v5.4007c0.6184,-0.4082,1.2891,-0.743,2,-0.9919V5h17v11h-4.9c0,0.687,-0.077,1.3562,-0.2219,2H24V3H3z" fill="#7B7B7B"/>
    <path d="M24,5H3V0h21V5z" fill="#6485C3"/>
    <path d="M0.7273,16c0,-4.0166,3.2561,-7.2727,7.2727,-7.2727s7.2727,3.2561,7.2727,7.2727S12.0166,23.2727,8,23.2727S0.7273,20.0166,0.7273,16zM3.5634,21.7625M12.4727,21.7349" fill="#FFFFFF" opacity="0.5"/>
    <path d="M8,24c-4.4112,0,-8,-3.5888,-8,-8s3.5888,-8,8,-8s8,3.5888,8,8S12.4112,24,8,24zM8,9.8093c-3.4135,0,-6.1907,2.7772,-6.1907,6.1907S4.5865,22.1907,8,22.1907s6.1907,-2.7772,6.1907,-6.1907S11.4135,9.8093,8,9.8093z" fill="#6485C3"/>
    <polygon points="7,17 7,11 8.1,11 8.1,15.9 12,15.9 12,17" fill="#6485C3" stroke-linejoin="miter"/>
  </g>
</svg>
