<?xml version="1.0" encoding="UTF-8"?>
<!DOCTYPE svg PUBLIC "-//W3C//DTD SVG 1.1//EN" "http://www.w3.org/Graphics/SVG/1.1/DTD/svg11.dtd">
<svg version="1.1" id="Layer_1" xmlns="http://www.w3.org/2000/svg" xmlns:xlink="http://www.w3.org/1999/xlink" x="0px" y="0px" width="24px" height="24px" viewBox="0 0 24 24" enable-background="new 0 0 24 24" xml:space="preserve">
  <g id="icon">
    <path d="M3.25,3.75c-0.8271,0,-1.5,-0.6729,-1.5,-1.5s0.6729,-1.5,1.5,-1.5s1.5,0.6729,1.5,1.5S4.0771,3.75,3.25,3.75zM3.25,9.75c-0.8271,0,-1.5,-0.6729,-1.5,-1.5s0.6729,-1.5,1.5,-1.5s1.5,0.6729,1.5,1.5S4.0771,9.75,3.25,9.75zM3.25,15.75c-0.8271,0,-1.5,-0.6729,-1.5,-1.5s0.6729,-1.5,1.5,-1.5s1.5,0.6729,1.5,1.5S4.0771,15.75,3.25,15.75z" fill="#FFFFFF" opacity="0.5"/>
    <path d="M3.25,4.5C2.0094,4.5,1,3.4906,1,2.25S2.0094,0,3.25,0S5.5,1.0094,5.5,2.25S4.4906,4.5,3.25,4.5zM3.25,1.5c-0.4135,0,-0.75,0.3365,-0.75,0.75s0.3365,0.75,0.75,0.75s0.75,-0.3365,0.75,-0.75S3.6635,1.5,3.25,1.5zM3.25,10.5C2.0094,10.5,1,9.4906,1,8.25S2.0094,6,3.25,6S5.5,7.0094,5.5,8.25S4.4906,10.5,3.25,10.5zM3.25,7.5c-0.4135,0,-0.75,0.3365,-0.75,0.75s0.3365,0.75,0.75,0.75s0.75,-0.3365,0.75,-0.75S3.6635,7.5,3.25,7.5zM3.25,16.5C2.0094,16.5,1,15.4906,1,14.25S2.0094,12,3.25,12S5.5,13.0094,5.5,14.25S4.4906,16.5,3.25,16.5zM3.25,13.5c-0.4135,0,-0.75,0.3365,-0.75,0.75s0.3365,0.75,0.75,0.75s0.75,-0.3365,0.75,-0.75S3.6635,13.5,3.25,13.5z" fill="#6485C3"/>
    <rect x="8.25" y="14.25" width="13.5" height="9" fill="#FFFFFF" opacity="0.5"/>
    <path d="M23,3H7V1h16V3zM23,7H7v2h16V7zM23,13H7v11h16V13zM9,15h12v7H9V15zM18.6053,17.5178l-1.0607,-1.0607l-2.4697,2.4697l-2.5072,-2.5072l-1.0607,1.0607l3.5678,3.5678L18.6053,17.5178z" fill="#7B7B7B"/>
  </g>
</svg>
