<?xml version="1.0" encoding="UTF-8"?>
<!DOCTYPE svg PUBLIC "-//W3C//DTD SVG 1.1//EN" "http://www.w3.org/Graphics/SVG/1.1/DTD/svg11.dtd">
<svg version="1.1" id="Layer_1" xmlns="http://www.w3.org/2000/svg" xmlns:xlink="http://www.w3.org/1999/xlink" x="0px" y="0px" width="16px" height="16px" viewBox="0 0 16 16" enable-background="new 0 0 16 16" xml:space="preserve">
  <g id="icon">
    <path d="M5,9V4.55H2.8764C1.5916,4.55,0.55,5.5916,0.55,6.8764v6.2472c0,1.2848,1.0416,2.3264,2.3264,2.3264h8.2472c1.2848,0,2.3264,-1.0416,2.3264,-2.3264V9H5z" fill="#FFFFFF" opacity="0.5"/>
    <path d="M12.9,9v4.1236c0,0.9795,-0.7969,1.7764,-1.7764,1.7764H2.8764C1.8969,14.9,1.1,14.1031,1.1,13.1236V6.8764C1.1,5.8969,1.8969,5.1,2.8764,5.1H5V4H2.8764C1.2903,4,0,5.2903,0,6.8764v6.2473C0,14.7097,1.2903,16,2.8764,16h8.2473c1.586,0,2.8764,-1.2903,2.8764,-2.8764V9H12.9z" fill="#6485C3"/>
    <path d="M15.5,7.5H6.5V0.5h9V7.5z" fill="#FFFFFF" opacity="0.5"/>
    <path d="M13.0773,3.5c-0.6341,0,-1.15,-0.5159,-1.15,-1.15s0.5159,-1.15,1.15,-1.15s1.15,0.5159,1.15,1.15S13.7114,3.5,13.0773,3.5zM13.0773,2c-0.193,0,-0.35,0.157,-0.35,0.35s0.157,0.35,0.35,0.35s0.35,-0.157,0.35,-0.35S13.2703,2,13.0773,2z" fill="#EEAC55"/>
    <path d="M13.2132,6.8362c-1.08,-0.3561,-1.9145,-1.1127,-2.6508,-1.7803C9.815,4.3782,9.1708,3.7928,8.5292,3.86c-0.5089,0.0533,-1.0666,0.5089,-1.7049,1.3928l-0.6485,-0.4684c0.79,-1.094,1.5113,-1.6406,2.27,-1.7201c0.9922,-0.1035,1.7947,0.6198,2.6435,1.3893c1.8603,-1.5103,3.4085,-0.16,4.6618,0.9329l-0.5258,0.6029c-1.3718,-1.1963,-2.3102,-1.9073,-3.5282,-0.9958c0.5329,0.4539,1.1015,0.8635,1.7667,1.0828L13.2132,6.8362z" fill="#52B250"/>
    <path d="M16,8H6V0h10V8zM7,7h8V1H7V7z" fill="#6D6E71"/>
  </g>
</svg>
