<?xml version="1.0" encoding="UTF-8"?>
<!DOCTYPE svg PUBLIC "-//W3C//DTD SVG 1.1//EN" "http://www.w3.org/Graphics/SVG/1.1/DTD/svg11.dtd">
<svg version="1.1" id="Layer_1" xmlns="http://www.w3.org/2000/svg" xmlns:xlink="http://www.w3.org/1999/xlink" x="0px" y="0px" width="16px" height="16px" viewBox="0 0 16 16" enable-background="new 0 0 16 16" xml:space="preserve">
  <g id="icon">
    <path d="M5.0186,7.3494l0.5751,1.4979H4.444L5.0186,7.3494zM16,4v9H0V4H16zM7.5378,11.1208L5.5439,5.9276l-0.0069,-0.017c-0.0102,-0.0245,-0.0295,-0.0788,-0.03,-0.0801L5.3879,5.5l-0.7284,-0.0009l-0.1234,0.3202c0,0,-0.0255,0.0662,-0.0359,0.0905l-1.9993,5.2112l0.9337,0.3581l0.6259,-1.6317h1.9172l0.6265,1.6318L7.5378,11.1208zM14.2,5.7667c0,-0.1473,-0.1194,-0.2667,-0.2667,-0.2667h-0.2c-0.4828,0,-0.9191,0.1977,-1.2333,0.5161C12.1857,5.6977,11.7494,5.5,11.2667,5.5h-0.2c-0.1473,0,-0.2667,0.1194,-0.2667,0.2667v0.4667c0,0.1473,0.1194,0.2667,0.2667,0.2667h0.2c0.405,0,0.7333,0.3283,0.7333,0.7333v2.5333c0,0.405,-0.3283,0.7333,-0.7333,0.7333h-0.2c-0.1473,0,-0.2667,0.1194,-0.2667,0.2667v0.4667c0,0.1473,0.1194,0.2667,0.2667,0.2667h0.2c0.4828,0,0.9191,-0.1977,1.2333,-0.5161c0.3143,0.3184,0.7506,0.5161,1.2333,0.5161h0.2c0.1473,0,0.2667,-0.1194,0.2667,-0.2667v-0.4667c0,-0.1473,-0.1194,-0.2667,-0.2667,-0.2667h-0.2c-0.405,0,-0.7333,-0.3283,-0.7333,-0.7333V7.2333c0,-0.405,0.3283,-0.7333,0.7333,-0.7333h0.2c0.1473,0,0.2667,-0.1194,0.2667,-0.2667V5.7667z" fill="#6D6E71"/>
    <path d="M13,7.2333v2.5333c0,0.405,0.3283,0.7333,0.7333,0.7333h0.2c0.1473,0,0.2667,0.1194,0.2667,0.2667v0.4667c0,0.1473,-0.1194,0.2667,-0.2667,0.2667h-0.2c-0.4828,0,-0.9191,-0.1977,-1.2333,-0.5161c-0.3143,0.3184,-0.7506,0.5161,-1.2333,0.5161h-0.2c-0.1473,0,-0.2667,-0.1194,-0.2667,-0.2667v-0.4667c0,-0.1473,0.1194,-0.2667,0.2667,-0.2667h0.2c0.405,0,0.7333,-0.3283,0.7333,-0.7333V7.2333c0,-0.405,-0.3283,-0.7333,-0.7333,-0.7333h-0.2c-0.1473,0,-0.2667,-0.1194,-0.2667,-0.2667v-0.4667c0,-0.1473,0.1194,-0.2667,0.2667,-0.2667h0.2c0.4828,0,0.9191,0.1977,1.2333,0.5161c0.3143,-0.3184,0.7506,-0.5161,1.2333,-0.5161h0.2c0.1473,0,0.2667,0.1194,0.2667,0.2667v0.4667c0,0.1473,-0.1194,0.2667,-0.2667,0.2667h-0.2C13.3283,6.5,13,6.8283,13,7.2333z" fill="#FFFFFF" opacity="0.5"/>
    <path d="M6.6042,11.4792l-0.6265,-1.6318H4.0605l-0.6259,1.6317l-0.9337,-0.3581l1.9993,-5.2112c0.0104,-0.0243,0.0359,-0.0905,0.0359,-0.0905l0.1234,-0.3202L5.3879,5.5l0.1191,0.3305c0.0005,0.0013,0.0199,0.0556,0.03,0.0801l0.0069,0.017l1.9939,5.1932L6.6042,11.4792zM4.444,8.8474h1.1497l-0.5751,-1.4979L4.444,8.8474z" fill="#FFFFFF" opacity="0.5"/>
  </g>
</svg>
