<?xml version="1.0" encoding="UTF-8"?>
<!DOCTYPE svg PUBLIC "-//W3C//DTD SVG 1.1//EN" "http://www.w3.org/Graphics/SVG/1.1/DTD/svg11.dtd">
<svg version="1.1" id="Layer_1" xmlns="http://www.w3.org/2000/svg" xmlns:xlink="http://www.w3.org/1999/xlink" x="0px" y="0px" width="16px" height="16px" viewBox="0 0 16 16" enable-background="new 0 0 16 16" xml:space="preserve">
  <g id="icon">
    <path d="M3.5,2.5v1.8149C4.1302,4.1113,4.802,4,5.5,4c3.5898,0,6.5,2.9102,6.5,6.5c0,0.3401,-0.0264,0.674,-0.0767,1H15.5V2.5H3.5z" fill="#FFFFFF" opacity="0.5"/>
    <path d="M3,2v2.4989c0.321,-0.1339,0.6554,-0.2416,1,-0.323V3h11v8h-3.021c-0.026,0.3414,-0.0781,0.6754,-0.1549,1H16V2H3z" fill="#6D6E71"/>
    <path d="M11.979,11c0.0126,-0.1652,0.021,-0.3316,0.021,-0.5v0.5H11.979zM8,4.4989V3H7v1.1759C7.3446,4.2574,7.679,4.3651,8,4.4989zM15,6V5h-3V3h-1v2H8.9625c0.4486,0.283,0.8598,0.6192,1.2254,1H11v1.0375c0.6326,1.0027,1,2.1893,1,3.4625V9h3V8h-3V6H15z" fill="#B7B7B7"/>
    <path d="M16,3H3V0h13V3z" fill="#6485C3"/>
    <path d="M0.5,10.5c0,-2.7614,2.2386,-5,5,-5s5,2.2386,5,5s-2.2386,5,-5,5S0.5,13.2614,0.5,10.5zM2.4498,14.4618M8.575,14.4427" fill="#FFFFFF" opacity="0.5"/>
    <path d="M5.5,16c-3.0327,0,-5.5,-2.4673,-5.5,-5.5s2.4673,-5.5,5.5,-5.5s5.5,2.4673,5.5,5.5S8.5327,16,5.5,16zM5.5,6c-2.4813,0,-4.5,2.0187,-4.5,4.5s2.0187,4.5,4.5,4.5s4.5,-2.0187,4.5,-4.5S7.9813,6,5.5,6z" fill="#6485C3"/>
    <polygon points="4.9998,11 4.9998,6.699 5.9998,6.699 5.9998,9.9991 8.7495,9.9966 8.7504,10.9966" fill="#6485C3" stroke-linejoin="miter"/>
  </g>
</svg>
