<?xml version="1.0" encoding="UTF-8"?>
<!DOCTYPE svg PUBLIC "-//W3C//DTD SVG 1.1//EN" "http://www.w3.org/Graphics/SVG/1.1/DTD/svg11.dtd">
<svg version="1.1" id="Layer_1" xmlns="http://www.w3.org/2000/svg" xmlns:xlink="http://www.w3.org/1999/xlink" x="0px" y="0px" width="16px" height="16px" viewBox="0 0 16 16" enable-background="new 0 0 16 16" xml:space="preserve">
  <g id="icon">
    <rect x="0.5" y="0.5" width="15" height="15" fill="#FFFFFF" opacity="0.5"/>
    <polygon points="16,16 0,16 0,2.5 1,2.5 1,15 10,15 10,4.6 11,4.6 11,15 15,15 15,2.5 16,2.5" fill="#6D6E71" stroke-linejoin="miter"/>
    <path d="M8.6,13H2.6v-1h6V13zM8.6,11H2.6v-1h6V11zM8.6,9H2.6V8h6V9zM8.6,7H2.6V6h6V7z" fill="#B7B7B7"/>
    <path d="M16,5H0V0h16V5zM1,4h14V1H1V4z" fill="#6485C3"/>
    <polygon points="13.0333,3.6364 11.3818,1.9849 12.0182,1.3484 13.0333,2.3636 14.0484,1.3484 14.6849,1.9849" fill="#6485C3" stroke-linejoin="miter"/>
    <path d="M12.0182,7.7182l-0.6364,-0.6364l1.6516,-1.6516l1.6515,1.6516l-0.6364,0.6364l-1.0151,-1.0151L12.0182,7.7182zM14.6849,13.0849l-0.6364,-0.6364l-1.0151,1.0151l-1.0151,-1.0151l-0.6364,0.6364l1.6516,1.6516L14.6849,13.0849z" fill="#6D6E71"/>
  </g>
</svg>
