<?xml version="1.0" encoding="UTF-8"?>
<!DOCTYPE svg PUBLIC "-//W3C//DTD SVG 1.1//EN" "http://www.w3.org/Graphics/SVG/1.1/DTD/svg11.dtd">
<svg version="1.1" id="Layer_1" xmlns="http://www.w3.org/2000/svg" xmlns:xlink="http://www.w3.org/1999/xlink" x="0px" y="0px" width="16px" height="16px" viewBox="0 0 16 16" enable-background="new 0 0 16 16" xml:space="preserve">
  <g id="icon">
    <polyline points="15.5,6 15.5,15.5 3.5,15.5 3.5,6" fill="#FFFFFF" stroke-linejoin="miter" opacity="0.5"/>
    <polygon points="16,16 3,16 3,6 4,6 4,15 15,15 15,6 16,6" fill="#6D6E71" stroke-linejoin="miter"/>
    <path d="M12,15.5h-1v-2.5H8v2.5H7v-2.5H3.5v-1h3.5v-2H3.5V9h3.5V6.5h1v2.5h3V6.5h1v2.5h3.5v1h-3.5v2h3.5v1h-3.5V15.5zM8,12h3v-2H8V12z" fill="#6D6E71"/>
    <rect x="0.5" y="1.5" width="15" height="5" fill="#FFFFFF" opacity="0.5"/>
    <path d="M16,7H0V1h16V7zM1,6h14V2H1V6z" fill="#9070B1"/>
    <polygon points="12,5.4966 9.6415,3.2089 10.3378,2.4911 12,4.1034 13.6622,2.4911 14.3585,3.2089" fill="#9070B1" stroke-linejoin="miter"/>
  </g>
</svg>
