<?xml version="1.0" encoding="UTF-8"?>
<!DOCTYPE svg PUBLIC "-//W3C//DTD SVG 1.1//EN" "http://www.w3.org/Graphics/SVG/1.1/DTD/svg11.dtd">
<svg version="1.1" id="Layer_1" xmlns="http://www.w3.org/2000/svg" xmlns:xlink="http://www.w3.org/1999/xlink" x="0px" y="0px" width="16px" height="16px" viewBox="0 0 16 16" enable-background="new 0 0 16 16" xml:space="preserve">
  <g id="icon">
    <rect x="1.5" y="0.4" width="13.9" height="15.1" fill="#FFFFFF" opacity="0.5"/>
    <path d="M9,11H3v-1h6V11zM9,13H3v-1h6V13zM9,9H3V8h6V9zM9,7H3V6h6V7zM9,5H3V4h6V5zM9,3H3V2h6V3z" fill="#B7B7B7"/>
    <path d="M12.0182,3.7182l-0.6364,-0.6364l1.6516,-1.6516l1.6515,1.6516l-0.6364,0.6364l-1.0151,-1.0151L12.0182,3.7182zM14.6849,13.0849l-0.6364,-0.6364l-1.0151,1.0151l-1.0151,-1.0151l-0.6364,0.6364l1.6516,1.6516L14.6849,13.0849z" fill="#6485C3"/>
    <path d="M1,0v0.5v0.5v15h15V1V0.5V0H1zM2,15V1h8v14H2zM15,15h-4V1h4V15z" fill="#6D6E71"/>
  </g>
</svg>
