<?xml version="1.0" encoding="UTF-8"?>
<!DOCTYPE svg PUBLIC "-//W3C//DTD SVG 1.1//EN" "http://www.w3.org/Graphics/SVG/1.1/DTD/svg11.dtd">
<svg version="1.1" id="Layer_1" xmlns="http://www.w3.org/2000/svg" xmlns:xlink="http://www.w3.org/1999/xlink" x="0px" y="0px" width="16px" height="16px" viewBox="0 0 16 16" enable-background="new 0 0 16 16" xml:space="preserve">
  <g id="icon">
    <path d="M8,12H3.4083C1.529,12,0,10.471,0,8.5917V6.4083C0,4.529,1.529,3,3.4083,3H7.2v1H3.4083C2.0804,4,1,5.0804,1,6.4083v2.1833C1,9.9196,2.0804,11,3.4083,11H8V12z" fill="#6485C3"/>
    <path d="M16,16H6v-1h10V16zM16,14h-6v-1h6V14zM16,12h-6v-1h6V12zM16,10h-6V9h6V10zM16,8H6V7h10V8z" fill="#6D6E71"/>
    <polygon points="4.5889,6.8889 3.8111,6.1111 6.4222,3.5 3.8111,0.8889 4.5889,0.1111 7.9778,3.5" fill="#6485C3" stroke-linejoin="miter"/>
  </g>
</svg>
