<?xml version="1.0" encoding="UTF-8"?>
<!DOCTYPE svg PUBLIC "-//W3C//DTD SVG 1.1//EN" "http://www.w3.org/Graphics/SVG/1.1/DTD/svg11.dtd">
<svg version="1.1" id="Layer_1" xmlns="http://www.w3.org/2000/svg" xmlns:xlink="http://www.w3.org/1999/xlink" x="0px" y="0px" width="16px" height="16px" viewBox="0 0 16 16" enable-background="new 0 0 16 16" xml:space="preserve">
  <g id="icon">
    <path d="M8.1896,11.2462l-0.0272,-0.0275c-0.0562,0.0445,-0.1167,0.0842,-0.1812,0.1184l-1.3188,0.6989l1.5298,1.2974H2.6482V8.8042l1.1486,0.9333l0.8893,-1.7035c0.0372,-0.0712,0.0807,-0.1375,0.1298,-0.1985l-0.0269,-0.0271l0.5331,-0.5365L0,2.9655V16h16l-6.9044,-5.6655L8.1896,11.2462z" fill="#7B7B7B"/>
    <path d="M4.1685,12.2c-0.0527,0,-0.1022,-0.0207,-0.1395,-0.0582l-0.1324,-0.1333c-0.0616,-0.0621,-0.0757,-0.1562,-0.0352,-0.2339l1.7111,-3.2777c0.0341,-0.0654,0.101,-0.106,0.1745,-0.106c0.008,0,0.016,0.0005,0.024,0.0015l0.0381,0.0047l1.8075,1.8272l0.0019,0.0437c0.0034,0.0782,-0.0369,0.1492,-0.1052,0.1854l-3.2532,1.724C4.232,12.1921,4.2003,12.2,4.1685,12.2zM6.1972,7.81l6.2166,-6.2559l1.9941,2.0159L8.1913,9.8259L6.1972,7.81zM12.8938,1.0601l0.8005,-0.7969C13.8676,0.0885,14.0489,0,14.2332,0s0.3658,0.0887,0.5394,0.2636l0.8572,0.8636c0.1605,0.1617,0.2488,0.3767,0.2488,0.6054c0,0.2287,-0.0884,0.4436,-0.2488,0.6054l-0.737,0.7429L12.8938,1.0601z" fill="#6485C3"/>
  </g>
</svg>
