<?xml version="1.0" encoding="UTF-8"?>
<!DOCTYPE svg PUBLIC "-//W3C//DTD SVG 1.1//EN" "http://www.w3.org/Graphics/SVG/1.1/DTD/svg11.dtd">
<svg version="1.1" id="Layer_1" xmlns="http://www.w3.org/2000/svg" xmlns:xlink="http://www.w3.org/1999/xlink" x="0px" y="0px" width="16px" height="16px" viewBox="0 0 16 16" enable-background="new 0 0 16 16" xml:space="preserve">
  <g id="icon">
    <polygon points="11.1,0.5 3.5,0.5 3.5,7.5 3.5,15.5 10.5,15.5 15.5,15.5 15.5,4.9" fill="#FFFFFF" stroke-linejoin="miter" opacity="0.5"/>
    <path d="M11.3034,0H3v8.5h1V1h7v4h4v10h-1v1h2V4.6892L11.3034,0z" fill="#6D6E71"/>
    <path d="M2.5344,15.9655c-0.3606,0,-0.7,-0.0747,-1.0089,-0.2218c-0.3082,-0.1469,-0.5777,-0.3602,-0.8011,-0.6338c-0.2162,-0.2648,-0.3853,-0.5855,-0.5027,-0.9531C0.1078,13.8,0.05,13.3975,0.05,12.9602c0,-0.4235,0.0579,-0.8186,0.1719,-1.1744c0.1175,-0.3664,0.2881,-0.6881,0.5072,-0.9562c0.2262,-0.2768,0.5017,-0.494,0.8188,-0.6456c0.3181,-0.152,0.6705,-0.2291,1.0476,-0.2291c0.1724,0,0.3385,0.0155,0.4937,0.0462c0.1597,0.0315,0.3136,0.0797,0.4577,0.1433c0.1403,0.062,0.276,0.1386,0.4036,0.2279c0.1222,0.0854,0.2425,0.1846,0.358,0.2948l-0.6904,0.7233c-0.079,-0.0754,-0.16,-0.1422,-0.2406,-0.1987c-0.0746,-0.0521,-0.1536,-0.0968,-0.2345,-0.1326c-0.0765,-0.0338,-0.1598,-0.0597,-0.2474,-0.077c-0.0916,-0.0181,-0.1925,-0.0272,-0.3,-0.0272c-0.2298,0,-0.4314,0.043,-0.6163,0.1313c-0.1858,0.0888,-0.3415,0.2119,-0.4757,0.3761c-0.1395,0.1707,-0.2502,0.3822,-0.3293,0.6288c-0.0824,0.2569,-0.1242,0.5493,-0.1242,0.869c0,0.3338,0.0418,0.634,0.1243,0.8923c0.0791,0.2476,0.1884,0.4579,0.3248,0.625c0.1311,0.1605,0.2805,0.2794,0.4567,0.3635c0.1758,0.0838,0.3651,0.1245,0.5786,0.1245c0.1383,0,0.2639,-0.0127,0.373,-0.0379c0.1089,-0.0251,0.2087,-0.0595,0.2964,-0.1022c0.0878,-0.0428,0.1695,-0.0944,0.2426,-0.1533c0.0811,-0.0653,0.1582,-0.1387,0.2292,-0.2183l0.7459,0.666c-0.1073,0.1202,-0.2243,0.2316,-0.3478,0.331c-0.1313,0.1059,-0.2767,0.1979,-0.432,0.2736c-0.1557,0.0758,-0.3271,0.1356,-0.5097,0.1777C2.9494,15.9441,2.7482,15.9655,2.5344,15.9655z" fill="#6485C3"/>
    <path d="M6,16H5v-6h1.6919c0.6905,0,1.2423,0.163,1.6402,0.4845c0.4299,0.3475,0.6478,0.8544,0.6478,1.5066c0,0.2918,-0.0597,0.567,-0.1775,0.8179c-0.1172,0.2499,-0.285,0.4676,-0.4984,0.6473c-0.2049,0.1724,-0.4487,0.3081,-0.7248,0.4032c-0.2703,0.0932,-0.5688,0.1404,-0.8873,0.1404H6V16zM6,13h0.6919c0.2073,0,0.3961,-0.0289,0.5613,-0.0858c0.1595,-0.055,0.2964,-0.13,0.4069,-0.223c0.1033,-0.087,0.1809,-0.1874,0.237,-0.307c0.0557,-0.1186,0.0828,-0.2471,0.0828,-0.393c0,-0.448,-0.1477,-0.6249,-0.2764,-0.7289c-0.2154,-0.174,-0.5558,-0.2623,-1.0116,-0.2623H6V13z" fill="#6485C3"/>
    <path d="M10.5,16H9.5v-6h1.6919c0.6905,0,1.2423,0.163,1.6402,0.4845c0.4299,0.3475,0.6478,0.8544,0.6478,1.5066c0,0.2918,-0.0597,0.567,-0.1775,0.8179c-0.1172,0.2499,-0.285,0.4676,-0.4984,0.6473c-0.2049,0.1724,-0.4487,0.3081,-0.7248,0.4032c-0.2703,0.0932,-0.5688,0.1404,-0.8873,0.1404H10.5V16zM10.5,13h0.6919c0.2073,0,0.3961,-0.0289,0.5613,-0.0858c0.1595,-0.055,0.2964,-0.13,0.4069,-0.223c0.1033,-0.087,0.1809,-0.1874,0.237,-0.307c0.0557,-0.1186,0.0828,-0.2471,0.0828,-0.393c0,-0.448,-0.1477,-0.6249,-0.2764,-0.7289c-0.2154,-0.174,-0.5558,-0.2623,-1.0116,-0.2623H10.5V13z" fill="#6485C3"/>
  </g>
</svg>
