<?xml version="1.0" encoding="UTF-8"?>
<!DOCTYPE svg PUBLIC "-//W3C//DTD SVG 1.1//EN" "http://www.w3.org/Graphics/SVG/1.1/DTD/svg11.dtd">
<svg version="1.1" id="Layer_1" xmlns="http://www.w3.org/2000/svg" xmlns:xlink="http://www.w3.org/1999/xlink" x="0px" y="0px" width="16px" height="16px" viewBox="0 0 16 16" enable-background="new 0 0 16 16" xml:space="preserve">
  <g id="icon">
    <path d="M10.5,10.5c0,2.7614,-2.2386,5,-5,5S0.5,13.2614,0.5,10.5s2.2386,-5,5,-5S10.5,7.7386,10.5,10.5z" fill="#FFFFFF" opacity="0.5"/>
    <path d="M5.5,16c-3.0327,0,-5.5,-2.4673,-5.5,-5.5s2.4673,-5.5,5.5,-5.5s5.5,2.4673,5.5,5.5S8.5327,16,5.5,16zM5.5,6c-2.4813,0,-4.5,2.0187,-4.5,4.5s2.0187,4.5,4.5,4.5s4.5,-2.0187,4.5,-4.5S7.9813,6,5.5,6z" fill="#6485C3"/>
    <path d="M5.214,15.8639c-0.9602,-0.549,-1.5999,-2.0468,-1.8791,-3.6014H0.75v-0.9h2.4639c-0.0258,-0.2875,-0.0389,-0.5711,-0.0389,-0.8449c0,-0.2851,0.0152,-0.5805,0.0449,-0.8801H0.75v-0.9h2.6009c0.2982,-1.5534,0.9632,-3.047,1.9,-3.608l0.2389,0.399l0.2436,-0.3963c0.925,0.5686,1.5977,2.0729,1.9052,3.6053H10.25v0.9H7.7767c0.0319,0.3018,0.0483,0.5977,0.0483,0.8801c0,0.272,-0.015,0.5558,-0.0441,0.8449H10.25v0.9H7.6471c-0.3023,1.5439,-0.975,3.0542,-1.9031,3.5988l-0.2678,-0.4562L5.214,15.8639zM4.2542,12.2625c0.228,1.1475,0.6603,2.217,1.2198,2.6883c0.5349,-0.4607,1.0092,-1.5076,1.2607,-2.6883H4.2542zM4.1193,11.3625h2.7593c0.0302,-0.2824,0.0463,-0.5659,0.0463,-0.8449c0,-0.2882,-0.0186,-0.584,-0.0532,-0.8801H4.1245c-0.0322,0.2942,-0.0495,0.5896,-0.0495,0.8801C4.075,10.7903,4.0902,11.0746,4.1193,11.3625zM4.2698,8.7375h2.4487c-0.2547,-1.1406,-0.7176,-2.1736,-1.2315,-2.6624C4.9711,6.5578,4.5163,7.5838,4.2698,8.7375z" fill="#6485C3"/>
    <path d="M2.5,2.5v2.2366C3.3982,4.2671,4.4182,4,5.5,4c3.5841,0,6.5,2.9159,6.5,6.5c0,0.6977,-0.1118,1.3695,-0.3162,2H15.5V2.5H2.5z" fill="#FFFFFF" opacity="0.5"/>
    <path d="M2,2v3.0271c0.316,-0.2028,0.6499,-0.38,1,-0.5264V3h12v9h-3.1766c-0.0817,0.3445,-0.1898,0.679,-0.324,1H16V2H2z" fill="#6D6E71"/>
    <rect x="2" width="14" height="3" fill="#52B4C0"/>
    <path d="M11.9789,10H14v1h-2.0211c0.0126,-0.1652,0.0211,-0.3316,0.0211,-0.5S11.9915,10.1652,11.9789,10zM5.5,4H4v0.1766C4.4819,4.0623,4.9837,4,5.5,4zM8,4H5.5c0.8855,0,1.73,0.1786,2.5,0.5007V4zM10.9729,7H14V6h-3.8163C10.4781,6.3062,10.7425,6.641,10.9729,7zM10,4v1h4V4H10zM11.8234,9H14V8h-2.5007C11.6336,8.321,11.7416,8.6555,11.8234,9z" fill="#B7B7B7"/>
  </g>
</svg>
