<?xml version="1.0" encoding="UTF-8"?>
<!DOCTYPE svg PUBLIC "-//W3C//DTD SVG 1.1//EN" "http://www.w3.org/Graphics/SVG/1.1/DTD/svg11.dtd">
<svg version="1.1" id="Layer_1" xmlns="http://www.w3.org/2000/svg" xmlns:xlink="http://www.w3.org/1999/xlink" x="0px" y="0px" width="24px" height="24px" viewBox="0 0 24 24" enable-background="new 0 0 24 24" xml:space="preserve">
  <g id="icon">
    <path d="M20.0579,24c-1.1973,0,-1.2681,-0.0074,-1.5168,-0.1578c-0.0684,-0.0426,-0.1463,-0.1108,-0.195,-0.1615l-0.0542,-0.0662c-0.0465,-0.0667,-0.1883,-0.2986,-1.6073,-3.0376c-0.3429,-0.662,-0.609,-1.1756,-0.8156,-1.5768h4.0946l0.0584,0.1115c0.4686,0.8968,1.026,1.9786,1.4186,2.7406l0.0385,0.0747c0.2189,0.4249,0.4065,0.7891,0.444,0.8591l0.0276,0.0471l0.0165,0.0513c0.0199,0.062,0.0303,0.1327,0.0327,0.2228l0.0002,0.0193c-0.0052,0.3736,-0.2939,0.7164,-0.7022,0.8337l-0.0442,0.0127l-0.0462,0.0043C21.0841,23.9885,20.6807,24,20.0579,24zM3.9471,24c-0.6208,0,-1.0242,-0.0114,-1.1486,-0.0228l-0.0475,-0.0043l-0.0457,-0.0133c-0.2797,-0.0817,-0.5154,-0.2786,-0.6304,-0.5266c-0.0937,-0.2015,-0.0997,-0.4146,-0.017,-0.6018l0.039,-0.0739c0.1135,-0.1985,1.322,-2.567,1.9285,-3.7574h4.1123c-1.9785,3.8399,-2.359,4.5154,-2.4274,4.6181l-0.0493,0.0603c-0.0469,0.0492,-0.1236,0.1177,-0.1892,0.1588C5.2157,23.9923,5.1442,24,3.9471,24z" fill="#6486C4"/>
    <path d="M15.924,8.8158h-1.0862V6.5312h1.0383c0.4768,0,0.8282,0.0947,1.0164,0.2737c0.2328,0.2215,0.2817,0.5886,0.2817,0.8576c0,0.132,-0.0241,0.2727,-0.0716,0.4177c-0.0474,0.1441,-0.1212,0.2795,-0.2024,0.3717c-0.0893,0.1013,-0.2136,0.1886,-0.3692,0.2595C16.3786,8.7807,16.1744,8.8158,15.924,8.8158zM17.1414,10.5104c-0.1036,-0.093,-0.2314,-0.1639,-0.3907,-0.2168c-0.1774,-0.0588,-0.3834,-0.0886,-0.6121,-0.0886h-1.3008v2.2845h1.2913c0.2451,0,0.4618,-0.0291,0.6442,-0.0865c0.1565,-0.0493,0.2816,-0.1172,0.3825,-0.2078c0.0946,-0.0851,0.1666,-0.1934,0.2198,-0.331c0.0643,-0.1663,0.093,-0.3393,0.093,-0.5608c0,-0.1763,-0.0269,-0.3136,-0.0899,-0.4591C17.3209,10.7112,17.2433,10.6018,17.1414,10.5104zM7.7917,10.0361h1.5245l-0.7627,-2.1323L7.7917,10.0361zM24,16v2h-1H1H0v-2h1V3.2375C1,2.0018,2.0017,1,3.2375,1h17.525C21.9982,1,23,2.0018,23,3.2375V16H24zM12.1113,13.6146l-2.811,-7.8584c-0.0116,-0.0289,-0.0361,-0.103,-0.0418,-0.1197l-0.1609,-0.4793H8.0237l-0.1696,0.4695c-0.0073,0.0203,-0.036,0.0995,-0.0514,0.1386l-2.805,7.8495l1.3569,0.443l0.9406,-2.6325h2.5178l0.9416,2.6326L12.1113,13.6146zM18.9,11.3035c0,-0.3627,-0.0641,-0.6796,-0.2017,-0.9975c-0.1367,-0.3155,-0.3334,-0.5899,-0.5848,-0.8155c-0.0453,-0.0407,-0.0927,-0.0798,-0.1417,-0.1173c0.0053,-0.0059,0.0107,-0.0118,0.0159,-0.0178c0.2612,-0.2961,0.4045,-0.6274,0.4787,-0.8532c0.0924,-0.2815,0.1392,-0.5641,0.1392,-0.8396c0,-0.7673,-0.2458,-1.4069,-0.7108,-1.8496c-0.4678,-0.4452,-1.147,-0.671,-2.0187,-0.671h-2.4698v8.737h2.7227c0.3955,0,0.7609,-0.052,1.0861,-0.1544c0.353,-0.1112,0.6601,-0.2826,0.9128,-0.5095c0.2586,-0.2322,0.4564,-0.5224,0.5878,-0.8625C18.8415,12.0275,18.9,11.6941,18.9,11.3035z" fill="#7D7C7B"/>
    <path d="M9.3003,5.7563c-0.0116,-0.0289,-0.0361,-0.103,-0.0418,-0.1197l-0.1609,-0.4793H8.0237l-0.1696,0.4695c-0.0073,0.0203,-0.036,0.0995,-0.0514,0.1386l-2.805,7.8495l1.3569,0.443l0.9406,-2.6325h2.5178l0.9416,2.6326l1.3567,-0.4434L9.3003,5.7563zM7.7917,10.0361l0.7618,-2.1323l0.7627,2.1323H7.7917zM18.6983,10.306c-0.1367,-0.3155,-0.3334,-0.5899,-0.5848,-0.8155c-0.0453,-0.0407,-0.0927,-0.0798,-0.1417,-0.1173c0.0053,-0.0059,0.0107,-0.0118,0.0159,-0.0178c0.2612,-0.2961,0.4045,-0.6274,0.4787,-0.8532c0.0924,-0.2815,0.1392,-0.5641,0.1392,-0.8396c0,-0.7673,-0.2458,-1.4069,-0.7108,-1.8496c-0.4678,-0.4452,-1.147,-0.671,-2.0187,-0.671h-2.4698v8.737h2.7228c0.3955,0,0.7609,-0.052,1.0861,-0.1544c0.353,-0.1112,0.6601,-0.2826,0.9128,-0.5095c0.2586,-0.2322,0.4564,-0.5224,0.5878,-0.8625c0.1257,-0.3252,0.1842,-0.6585,0.1842,-1.0491C18.9,10.9408,18.8359,10.6239,18.6983,10.306zM14.8378,6.5312h1.0383c0.4768,0,0.8282,0.0947,1.0164,0.2737c0.2328,0.2215,0.2817,0.5886,0.2817,0.8576c0,0.132,-0.0241,0.2727,-0.0716,0.4177c-0.0474,0.1441,-0.1212,0.2795,-0.2024,0.3717c-0.0893,0.1013,-0.2136,0.1886,-0.3692,0.2595c-0.1524,0.0693,-0.3566,0.1045,-0.6069,0.1045h-1.0862V6.5312zM17.3755,11.8644c-0.0532,0.1376,-0.1252,0.2459,-0.2198,0.331c-0.1009,0.0906,-0.226,0.1585,-0.3825,0.2078c-0.1824,0.0574,-0.3991,0.0865,-0.6442,0.0865h-1.2913v-2.2845h1.3008c0.2287,0,0.4347,0.0298,0.6121,0.0886c0.1593,0.0528,0.2871,0.1237,0.3907,0.2168c0.1019,0.0914,0.1795,0.2008,0.2372,0.3341c0.063,0.1455,0.0899,0.2828,0.0899,0.4591C17.4685,11.5251,17.4399,11.6981,17.3755,11.8644z" fill="#FFFFFF" opacity="0.5"/>
  </g>
</svg>
