<?xml version="1.0" encoding="UTF-8"?>
<!DOCTYPE svg PUBLIC "-//W3C//DTD SVG 1.1//EN" "http://www.w3.org/Graphics/SVG/1.1/DTD/svg11.dtd">
<svg version="1.1" id="Layer_1" xmlns="http://www.w3.org/2000/svg" xmlns:xlink="http://www.w3.org/1999/xlink" x="0px" y="0px" width="24px" height="24px" viewBox="0 0 24 24" enable-background="new 0 0 24 24" xml:space="preserve">
  <g id="icon">
    <path d="M18.65,0h-13.3C2.4,0,0,2.4,0,5.35v13.3C0,21.6,2.4,24,5.35,24h13.3c2.95,0,5.35,-2.4,5.35,-5.35v-13.3C24,2.4,21.6,0,18.65,0zM16.5541,18.8355H7.4302l0.0436,-2.0955c0.0191,-0.9173,0.4547,-1.8005,1.1949,-2.4229l5.6898,-4.7844c0.2618,-0.3284,0.4939,-0.7142,0.4939,-1.2774c0,-1.2807,-1.3111,-2.3227,-2.9225,-2.3227c-1.5494,0,-2.8594,1.0005,-2.9202,2.2303l-1.5162,-0.0749c0.1018,-2.0599,2.0504,-3.6734,4.4364,-3.6734c2.4485,0,4.4405,1.7229,4.4405,3.8407c0,1.0919,-0.5025,1.8313,-0.8806,2.2926l-0.0446,0.0545l-5.7995,4.8766c-0.4117,0.3463,-0.644,0.8054,-0.6542,1.2928l-0.0114,0.5458h7.5741V18.8355z" fill="#6486C4"/>
    <path d="M16.5541,18.8355H7.4302l0.0436,-2.0955c0.0191,-0.9173,0.4547,-1.8005,1.1949,-2.4229l5.6898,-4.7844c0.2618,-0.3284,0.4939,-0.7142,0.4939,-1.2774c0,-1.2807,-1.3111,-2.3227,-2.9225,-2.3227c-1.5494,0,-2.8594,1.0005,-2.9201,2.2303l-1.5162,-0.0749c0.1018,-2.0599,2.0504,-3.6734,4.4364,-3.6734c2.4485,0,4.4405,1.7229,4.4405,3.8407c0,1.0919,-0.5025,1.8313,-0.8806,2.2926l-0.0446,0.0545l-5.7995,4.8766c-0.4117,0.3463,-0.644,0.8054,-0.6542,1.2928l-0.0114,0.5458h7.5741V18.8355z" fill="#FFFFFF" opacity="0.5"/>
  </g>
</svg>
