<?xml version="1.0" encoding="UTF-8"?>
<!DOCTYPE svg PUBLIC "-//W3C//DTD SVG 1.1//EN" "http://www.w3.org/Graphics/SVG/1.1/DTD/svg11.dtd">
<svg version="1.1" id="Layer_1" xmlns="http://www.w3.org/2000/svg" xmlns:xlink="http://www.w3.org/1999/xlink" x="0px" y="0px" width="24px" height="24px" viewBox="0 0 24 24" enable-background="new 0 0 24 24" xml:space="preserve">
  <g id="icon">
    <path d="M23.1983,22.9842c-0.123,-1.6764,-0.642,-3.1862,-1.5426,-4.4875c-0.8335,-1.2046,-2.2348,-2.4639,-3.803,-3.3762c-0.1151,-0.0623,-0.2332,-0.1237,-0.353,-0.1844c0.0784,-0.1146,0.1526,-0.2203,0.2213,-0.3161c-0.1791,-0.0799,-0.3622,-0.1582,-0.5516,-0.2336l-0.2444,-0.0829c-0.0581,0.082,-0.1197,0.1705,-0.1838,0.2645c-0.393,-0.1858,-0.78,-0.3659,-1.1235,-0.5446c0.0246,-0.0284,0.049,-0.0566,0.0717,-0.0832c0.0044,-0.0052,0.0089,-0.0103,0.014,-0.0164l-0.1038,-0.0242h-0.213c-1.2563,-0.6966,-1.709,-1.3833,0.913,-2.2998c1.1405,-0.3987,1.2321,-1.8947,1.1808,-3.855c-0.3254,-5.7854,-3.4296,-7.1439,-5.4794,-7.1439c-3.1164,0,-5.0932,1.3584,-5.4186,7.1439c-0.0485,1.8533,-0.4311,3.6716,0.6181,4.055c2.8988,1.0593,2.9906,1.3183,1.3091,2.0998h-0.1092l-0.207,0.0517c0.0169,0.0221,0.0355,0.0454,0.0535,0.0685c-0.3317,0.1496,-0.7171,0.3176,-1.1531,0.5124c-0.0405,-0.0646,-0.0799,-0.1272,-0.1168,-0.1855l-0.1168,0.0396c-0.2309,0.092,-0.4513,0.1886,-0.667,0.2872c0.0411,0.0649,0.0855,0.1353,0.1314,0.2085c-0.0857,0.0397,-0.1713,0.0793,-0.2598,0.1209c-3.9551,2.2697,-5.1142,6.0261,-5.2631,7.9807l-0.0164,0.2152h22.4288L23.1983,22.9842z" fill="#FFFFFF" opacity="0.5"/>
    <path d="M18.1589,6.9533c-0.73,-5.7505,-2.4227,-6.9521,-6.114,-6.9521h-0.0456c-3.6913,0,-5.384,1.2016,-6.114,6.9521c-0.5562,4.381,-0.0923,5.9486,2.6303,5.9717c0.8336,1.2004,2.2713,2.0486,3.5221,2.0486c1.2511,0,2.689,-0.8487,3.5226,-2.0496C18.2393,12.8812,18.7102,11.2962,18.1589,6.9533zM12.0343,13.4417c-2.0856,0,-3.9716,-2.4987,-3.9716,-7.3403c0,-2.089,4.1418,0.367,5.4781,0.367c2.2036,0,2.5564,-2.2725,2.5564,-0.734C16.0972,8.8785,14.6488,13.4417,12.0343,13.4417z" fill="#916FB1"/>
    <path d="M6.977,14.3469l1.0234,-0.3471l0.193,-0.0482c0.2163,0.2818,0.5177,0.6448,1.093,1.017c0.5654,0.3658,1.1516,0.56,1.6226,0.716c0.2624,0.0869,0.7016,0.2324,0.7313,0.3162c0.0055,0.0156,0.0129,0.0302,0.0205,0.0447c-0.012,0.0231,-0.0223,0.0471,-0.029,0.0727c-0.0339,0.1286,-0.1259,0.3024,-0.2735,0.5167c-0.4864,0.7061,-0.8536,1.2318,-1.1493,1.5677c-0.3355,0.381,-0.4663,0.3824,-0.4661,0.3809c-0.0065,-0.0003,-0.1635,-0.0119,-0.5524,-0.5573c-0.3343,-0.4688,-0.7397,-1.1785,-1.3009,-2.1609l-0.0809,-0.1417C7.4752,15.1399,7.194,14.69,6.977,14.3469zM23.947,22.9644c-0.1722,-2.1882,-1.221,-6.1111,-6.226,-8.3442c-0.2508,0.3499,-0.5701,0.8191,-0.9302,1.4492c-0.1734,0.3035,-0.3316,0.5837,-0.4767,0.841c-0.9909,1.756,-1.3617,2.4131,-2.0433,2.438c-0.0121,0.0004,-0.0243,0.0007,-0.0363,0.0007c-0.6364,0,-1.0655,-0.6256,-1.9858,-1.9669l-0.1962,-0.2855c-1.0276,1.4914,-1.562,2.2524,-2.305,2.2524c-0.0129,0,-0.0258,-0.0002,-0.0389,-0.0007c-0.814,-0.0286,-1.334,-0.9387,-2.59,-3.1374l-0.0809,-0.1416c-0.3413,-0.5973,-0.6276,-1.0529,-0.8446,-1.3957c-4.9043,2.2417,-5.9398,6.1197,-6.1106,8.2907l-0.0507,0.6451c-0.0165,0.2101,0.1563,0.3893,0.3754,0.3893h23.215c0.2191,0,0.392,-0.1792,0.3754,-0.3893L23.947,22.9644zM12.7468,16.6349l0.2403,0.3497c0.5255,0.7659,1.0228,1.4907,1.2486,1.5928c0.2438,-0.1279,0.76,-1.0426,1.3055,-2.0094c0.1458,-0.2583,0.3046,-0.5397,0.4787,-0.8445c0.3468,-0.6069,0.6549,-1.0667,0.9052,-1.42l-0.8959,-0.3038l-0.3257,-0.0758c-0.0051,0.0061,-0.0095,0.0112,-0.014,0.0164c-0.2324,0.271,-0.5508,0.6422,-1.1474,1.0282c-0.5331,0.3449,-1.0265,0.5353,-1.423,0.6883c-0.3172,0.1224,-0.6168,0.238,-0.6544,0.344c-0.0055,0.0156,-0.0129,0.0302,-0.0205,0.0447c0.012,0.0231,0.0223,0.0472,0.0291,0.0728C12.5071,16.2467,12.5991,16.4205,12.7468,16.6349z" fill="#916FB1"/>
  </g>
</svg>
