<?xml version="1.0" encoding="UTF-8"?>
<!DOCTYPE svg PUBLIC "-//W3C//DTD SVG 1.1//EN" "http://www.w3.org/Graphics/SVG/1.1/DTD/svg11.dtd">
<svg version="1.1" id="Layer_1" xmlns="http://www.w3.org/2000/svg" xmlns:xlink="http://www.w3.org/1999/xlink" x="0px" y="0px" width="24px" height="24px" viewBox="0 0 24 24" enable-background="new 0 0 24 24" xml:space="preserve">
  <g id="icon">
    <path d="M16.2934,24c-0.2451,0,-0.4856,-0.0632,-0.6956,-0.1829c-0.1956,-0.1108,-0.4225,-0.3297,-0.5522,-0.5327c-0.0881,-0.1365,-0.9306,-1.7231,-1.1515,-2.1405c-0.57,-1.0725,-1.135,-2.1303,-1.2341,-2.3102c-0.2079,-0.3781,-2.4056,-4.122,-2.556,-4.3543c-0.2474,-0.3843,-0.3227,-0.782,-0.2368,-1.2513c0.1033,-0.5444,0.4323,-2.052,0.8585,-3.9336l0.1513,-0.6829l-0.1875,-0.0016c-0.1633,-0.0013,-0.3532,-0.0021,-0.5596,-0.0028l-1.1091,-0.0085l-1.8473,0.514c-1.6453,0.4554,-1.9549,0.5374,-2.1635,0.5486c-0.0274,0.0014,-0.0541,0.0022,-0.0806,0.0022c-0.6491,0,-1.1625,-0.4351,-1.2776,-1.0827c-0.0961,-0.5399,0.2052,-1.1032,0.7329,-1.37c0.2276,-0.113,3.6599,-1.3058,3.948,-1.3718l0.048,-0.0084c0.0512,-0.0063,0.1503,-0.0258,0.2175,-0.0407c0.0581,-0.0122,0.1829,-0.0384,2.0208,-0.1299c1.038,-0.0505,1.8279,-0.0956,1.9156,-0.1043c0.1171,-0.0165,0.2461,-0.0248,0.3792,-0.0248c0.7664,0,1.7101,0.2669,2.2948,0.649c0.649,0.4238,0.9557,1.0615,0.8636,1.7959c-0.0493,0.3712,-1.6351,6.2253,-1.7974,6.7118l-0.071,0.2105l0.5164,0.9507c0.3253,0.5953,0.6552,1.2118,0.7355,1.3747c0.3057,0.6112,2.1491,4.541,2.2413,4.8122l0.0081,0.0261c0.0689,0.2497,0.0735,0.6241,0.0092,0.8663C17.5501,23.5491,16.9524,23.9998,16.2934,24L16.2934,24zM8.9284,19.1354c-0.2495,0,-0.3467,-0.0064,-0.5471,-0.0827c-0.1209,-0.0398,-0.8957,-0.1935,-2.4448,-0.486c-1.1301,-0.2133,-2.4051,-0.4569,-2.502,-0.4797c-0.7078,-0.1746,-1.1845,-0.7531,-1.1845,-1.4389c0,-0.649,0.3954,-1.1944,1.0073,-1.3896l0.0241,-0.0076c0.1148,-0.0361,0.2233,-0.0703,0.4198,-0.0703c0.2869,0,0.7931,0.0701,2.2958,0.2782L6.15,15.48c1.0366,0.1417,1.644,0.2242,1.9643,0.2667l0.0924,0.0123l0.0529,-0.0768c0.0877,-0.1273,0.2013,-0.2928,0.3242,-0.473c0.0607,-0.0884,0.1556,-0.2209,0.2877,-0.4019c0.0561,0.1186,0.1194,0.2324,0.1912,0.3439c0.0091,0.0143,0.0259,0.0417,0.0491,0.08c0.1309,0.2166,0.477,0.8018,0.9494,1.6054l0.6542,1.1155c-0.1436,0.1728,-0.2715,0.3212,-0.3729,0.4326c-0.3437,0.3807,-0.5185,0.5481,-0.8701,0.6745c-0.1711,0.0607,-0.2708,0.0766,-0.4835,0.0766L8.9284,19.1354zM20.3341,13.7054c-0.4015,0,-0.5045,-0.0539,-2.2255,-0.9544c-0.7444,-0.3892,-1.6374,-0.8614,-1.7418,-0.9305c-0.0036,-0.0025,-0.0072,-0.005,-0.0108,-0.0077c0.0883,-0.3261,0.1768,-0.6543,0.2623,-0.974l0.0873,-0.3271c0.1715,-0.6436,0.3093,-1.1715,0.4095,-1.5689c0.0493,-0.1958,0.0886,-0.3561,0.1183,-0.4828c0.093,0.0925,0.1584,0.1601,0.2009,0.2073l0.5087,0.5666l1.4525,0.9176c0.8301,0.5248,1.4899,0.9368,1.5687,0.9795c0.3504,0.177,0.604,0.4621,0.7181,0.8048c0.1151,0.3461,0.083,0.7133,-0.0927,1.0618c-0.2231,0.4367,-0.6747,0.7015,-1.2079,0.7072l-0.0474,0.0003H20.3341zM15.4889,5.182c-0.8661,0,-1.6731,-0.4331,-2.1586,-1.1585c-0.171,-0.2551,-0.2872,-0.5204,-0.3658,-0.8347c-0.0875,-0.3498,-0.0819,-0.8977,0.0128,-1.2473c0.2848,-1.0461,1.0723,-1.7472,2.1606,-1.9234l0.0166,-0.0025c0.0606,-0.008,0.227,-0.0137,0.3172,-0.0153L15.5045,0c1.1383,0,2.1564,0.7706,2.4746,1.874c0.3506,1.2146,-0.2201,2.4955,-1.3571,3.0458C16.2646,5.0938,15.8835,5.182,15.4889,5.182z" fill="#6486C4"/>
  </g>
</svg>
