<?xml version="1.0" encoding="UTF-8"?>
<!DOCTYPE svg PUBLIC "-//W3C//DTD SVG 1.1//EN" "http://www.w3.org/Graphics/SVG/1.1/DTD/svg11.dtd">
<svg version="1.1" id="Layer_1" xmlns="http://www.w3.org/2000/svg" xmlns:xlink="http://www.w3.org/1999/xlink" x="0px" y="0px" width="24px" height="24px" viewBox="0 0 24 24" enable-background="new 0 0 24 24" xml:space="preserve">
  <g id="icon">
    <path d="M20.9771,20.5L21.2,22.3H3.1v-1.7h1.3V8.4258L0.7,8.3v-0.7l11.3,-5.7l11.4,5.7l0.2,0.9l-4.1,0.0703V20.6L20.9771,20.5z" fill="#FFFFFF" opacity="0.5"/>
    <path d="M13.4,5.7c0,0.7732,-0.6268,1.4,-1.4,1.4s-1.4,-0.6268,-1.4,-1.4s0.6268,-1.4,1.4,-1.4S13.4,4.9268,13.4,5.7z" fill="#6485C3"/>
    <path d="M22,20h-1h-2h-2h-2h-2h-2H9H7H5H3H2v1H0v3h2.3h19.3345H24v-3h-1.9773L22,20zM4,22v-1h15.9886L20,22H4zM5,10h2h2h2h2h2h2h2h2h3V7.3417L12,0.1692L0,7.3417V10h3H5zM11.9944,2.6369L21.0922,8H2.8966L11.9944,2.6369z" fill="#7B7B7B"/>
    <path d="M5,20H3V10h2V20zM9,10H7v10h2V10zM13,10h-2v10h2V10zM17,10h-2v10h2V10zM21,10h-2v10h2V10z" fill="#6485C3"/>
  </g>
</svg>
