<?xml version="1.0" encoding="UTF-8"?>
<!DOCTYPE svg PUBLIC "-//W3C//DTD SVG 1.1//EN" "http://www.w3.org/Graphics/SVG/1.1/DTD/svg11.dtd">
<svg version="1.1" id="Layer_1" xmlns="http://www.w3.org/2000/svg" xmlns:xlink="http://www.w3.org/1999/xlink" x="0px" y="0px" width="24px" height="24px" viewBox="0 0 24 24" enable-background="new 0 0 24 24" xml:space="preserve">
  <g id="icon">
    <path d="M20.475,23l-17.25,0.3C2.1305,23.3,1,21.8695,1,20.475V3.625C1,2.2305,2.1305,0.8,3.525,0.8l16.95,0.3C21.8695,1.1,23.3,2.2305,23.3,3.625l-0.3,16.85C23,21.8695,22.1695,23,20.475,23z" fill="#FFFFFF" opacity="0.5"/>
    <path d="M0,19.2125V4.8875C0,2.2434,2.1434,0,4.7875,0h14.425C21.8566,0,24,2.2434,24,4.8875v14.325C24,21.8566,21.8566,24,19.2125,24H4.7875C2.1434,24,0,21.8566,0,19.2125zM22,19.2125V12.5h-9.5v9.5h6.7125C20.752,22,22,20.752,22,19.2125zM4.6875,22H11.5v-9.5H2v6.7125C2,20.752,3.148,22,4.6875,22zM22,11.5V4.7875C22,3.248,20.752,2,19.2125,2H12.5v9.5H22zM11.5,11.5V2H4.6875C3.148,2,2,3.248,2,4.7875V11.5H11.5z" fill="#7D7C7B"/>
    <polygon points="7.5,6 9.9,6 9.9,7.5 7.5,7.5 7.5,9.9 6,9.9 6,7.5 3.7,7.5 3.7,6 6,6 6,3.7 7.5,3.7" fill="#6486C4" stroke-linejoin="miter"/>
    <polygon points="19.0446,14.3947 17.2125,16.2268 15.3803,14.3947 14.3196,15.4553 16.1518,17.2875 14.3196,19.1197 15.3803,20.1803 17.2125,18.3482 19.0446,20.1803 20.1053,19.1197 18.2732,17.2875 20.1053,15.4553" fill="#6486C4" stroke-linejoin="miter"/>
    <rect x="14.3" y="6" width="6" height="1.5" fill="#6486C4"/>
    <path d="M7.4586,15.3823c0.3808,-0.3808,0.3808,-0.9981,0,-1.3789c-0.3808,-0.3808,-0.9981,-0.3808,-1.3789,0c-0.3808,0.3808,-0.3808,0.9981,0,1.3789C6.4605,15.7631,7.0778,15.7631,7.4586,15.3823z" fill="#6486C4"/>
    <path d="M6.0797,19.1311c-0.3808,0.3808,-0.3808,0.9981,0,1.3789c0.3808,0.3808,0.9981,0.3808,1.3789,0c0.3808,-0.3808,0.3808,-0.9981,0,-1.3789C7.0778,18.7503,6.4605,18.7503,6.0797,19.1311z" fill="#6486C4"/>
    <rect x="3.7" y="16.5" width="6.2" height="1.5" fill="#6486C4"/>
  </g>
</svg>
