<?xml version="1.0" encoding="UTF-8"?>
<!DOCTYPE svg PUBLIC "-//W3C//DTD SVG 1.1//EN" "http://www.w3.org/Graphics/SVG/1.1/DTD/svg11.dtd">
<svg version="1.1" id="Layer_1" xmlns="http://www.w3.org/2000/svg" xmlns:xlink="http://www.w3.org/1999/xlink" x="0px" y="0px" width="24px" height="24px" viewBox="0 0 24 24" enable-background="new 0 0 24 24" xml:space="preserve">
  <g id="icon">
    <path d="M9.7933,21.0965c-1.2903,0.3788,-2.1739,1.0851,-2.1739,1.5527c0,0.6654,1.7879,0.5946,3.9934,0.5946c2.2055,0,3.9934,0.0708,3.9934,-0.5946c0,-0.4676,-0.8836,-1.1738,-2.1739,-1.5527" fill="#FFFFFF" opacity="0.5"/>
    <path d="M12.6381,23.9956c-0.1431,0,-0.2911,-0.0003,-0.4449,-0.0008c-0.379,-0.001,-0.7818,-0.001,-1.1607,0c-2.1968,0.0065,-3.2787,-0.0153,-3.8403,-0.5753c-0.2081,-0.2075,-0.3227,-0.4811,-0.3227,-0.7704c0,-1.0195,1.3624,-1.8758,2.7126,-2.2723l0.4226,1.4392c-0.615,0.1806,-1.051,0.4209,-1.321,0.6171c0.5928,0.0668,1.5725,0.0638,2.3444,0.0616c0.3817,-0.001,0.7878,-0.001,1.1695,0c0.7719,0.0024,1.7517,0.0051,2.3443,-0.0616c-0.27,-0.1962,-0.706,-0.4365,-1.3209,-0.6171l0.4226,-1.4392c1.3501,0.3965,2.7125,1.2528,2.7125,2.2723c0,0.2893,-0.1146,0.5629,-0.3227,0.7704C15.5111,23.9403,14.5391,23.9956,12.6381,23.9956zM8.3527,22.7509L8.3527,22.7509L8.3527,22.7509z" fill="#916FB1"/>
    <path d="M13.5532,19.7967c4.9295,-0.7401,6.6744,-4.0944,5.2983,-4.0944c-2.062,0,-4.8427,1.3547,-7.3743,1.5063c-3.2785,0,-7.6323,-5.4413,-0.4517,-8.6648L9.9193,6.6631c-6.8102,2.6759,-6.9584,11.6791,-0.2362,13.0903L13.5532,19.7967z" fill="#FFFFFF" opacity="0.5"/>
    <path d="M13.6645,20.5384l-0.2227,-1.4834c3.0242,-0.4541,4.5094,-1.8696,4.9607,-2.5802c-0.85,0.0798,-1.8458,0.3604,-2.8908,0.6547c-1.3047,0.3676,-2.6539,0.7477,-3.9897,0.8277l-0.0448,0.0013c-2.1902,0,-4.525,-1.9304,-4.9963,-4.1311c-0.2388,-1.1152,-0.304,-3.9292,4.2375,-5.9679l0.6144,1.3685c-2.5314,1.1364,-3.7336,2.6583,-3.3851,4.2854c0.3533,1.6498,2.1697,2.9314,3.5082,2.9451c1.1678,-0.0737,2.4291,-0.429,3.6491,-0.7727c1.3387,-0.3772,2.6032,-0.7334,3.7466,-0.7334c0.6702,0,1.1528,0.4303,1.2005,1.0707C20.1617,17.4916,17.7847,19.9198,13.6645,20.5384zM9.529,20.4874c-3.1509,-0.6615,-5.269,-2.987,-5.5277,-6.0691C3.7491,11.4135,5.3964,7.6344,9.645,5.965l0.5486,1.3961c-3.5305,1.3871,-4.9033,4.481,-4.6975,6.9317c0.2041,2.4318,1.8269,4.1987,4.3411,4.7265L9.529,20.4874z" fill="#916FB1"/>
    <path d="M12.533,15.7574l-0.4039,-1.4446l7.6673,-2.1432l0.4039,1.4446L12.533,15.7574zM8.5882,2.7738l-0.7531,-1.2972l2.5077,-1.4559l0.7531,1.2972L8.5882,2.7738z" fill="#6E6F72"/>
    <path d="M11.6128,18.7628c0.8276,0,1.4985,0.6747,1.4985,1.507c0,0.8323,-0.6709,1.507,-1.4985,1.507c-0.8276,0,-1.4985,-0.6747,-1.4985,-1.507C10.1142,19.4375,10.7851,18.7628,11.6128,18.7628z" fill="#FFFFFF" opacity="0.5"/>
    <path d="M11.6128,22.4517c-1.1985,0,-2.1735,-0.9788,-2.1735,-2.182s0.9751,-2.182,2.1735,-2.182s2.1735,0.9789,2.1735,2.182S12.8112,22.4517,11.6128,22.4517zM11.6128,19.4378c-0.4541,0,-0.8235,0.3732,-0.8235,0.832c0,0.4587,0.3694,0.832,0.8235,0.832s0.8235,-0.3732,0.8235,-0.832C12.4363,19.811,12.0669,19.4378,11.6128,19.4378z" fill="#6E6F72"/>
    <path d="M13.1594,11.5883c0.0827,0.1441,0.2659,0.1934,0.4091,0.1102l2.5938,-1.506c0.1432,-0.0832,0.1923,-0.2674,0.1096,-0.4114l-4.0922,-7.0846c-0.0827,-0.1441,-0.2659,-0.1934,-0.4091,-0.1103l-2.5938,1.506c-0.1432,0.0832,-0.1923,0.2674,-0.1096,0.4114L13.1594,11.5883z" fill="#FFFFFF" opacity="0.5"/>
    <path d="M13.4205,12.4894c-0.091,0,-0.1827,-0.012,-0.273,-0.0362c-0.2714,-0.0727,-0.498,-0.2471,-0.6382,-0.4909L8.4178,4.8788c-0.2884,-0.5023,-0.1165,-1.1454,0.3824,-1.4351l2.5938,-1.506c0.2432,-0.1411,0.5262,-0.1789,0.7978,-0.106c0.2716,0.0728,0.4983,0.2473,0.6385,0.4915l4.0912,7.0827c0.2884,0.5024,0.1164,1.1455,-0.3824,1.4352l-2.5938,1.506C13.7831,12.4413,13.603,12.4894,13.4205,12.4894zM9.9406,4.5161l3.6428,6.3066l1.8153,-1.054l-3.6428,-6.3067L9.9406,4.5161zM11.5303,3.0717c0.0004,0.0007,0.0007,0.0013,0.0012,0.002L11.5303,3.0717z" fill="#916FB1"/>
  </g>
</svg>
