<?xml version="1.0" encoding="UTF-8"?>
<!DOCTYPE svg PUBLIC "-//W3C//DTD SVG 1.1//EN" "http://www.w3.org/Graphics/SVG/1.1/DTD/svg11.dtd">
<svg version="1.1" id="Layer_1" xmlns="http://www.w3.org/2000/svg" xmlns:xlink="http://www.w3.org/1999/xlink" x="0px" y="0px" width="24px" height="24px" viewBox="0 0 24 24" enable-background="new 0 0 24 24" xml:space="preserve">
  <g id="icon">
    <rect x="11.4752" y="16.3078" width="8.8142" height="1.4936" fill="#6E6F72" transform="matrix(0.7164 -0.6977 0.6977 0.7164 -7.39463 15.9186)"/>
    <polygon points="18.3972,11.384 11.8987,5.8326 12.8777,4.7055 19.3762,10.2569" fill="#6E6F72" stroke-linejoin="miter"/>
    <path d="M16.7472,20.1974H8.6292c-1.0961,0,-1.9846,0.8886,-1.9846,1.9846v0.975h12.0873v-0.975C18.7319,21.0859,17.8433,20.1974,16.7472,20.1974z" fill="#FFFFFF" opacity="0.5"/>
    <path d="M5.7945,24v-0.843c0,-2.0968,1.7168,-3.8026,3.827,-3.8026h6.1334c2.1102,0,3.827,1.7026,3.827,3.7953v0.842L18.7324,24H5.7945zM17.7065,22.3141c-0.335,-0.7674,-1.1021,-1.2737,-1.9516,-1.2737H9.6215c-0.8506,0,-1.6182,0.5063,-1.953,1.2737H17.7065z" fill="#6486C4"/>
    <ellipse cx="20.3566" cy="12.3626" rx="1.9341" ry="1.9276" fill="#FFFFFF" opacity="0.5"/>
    <path d="M20.3566,15.034c-1.48,0,-2.6841,-1.1984,-2.6841,-2.6714s1.2041,-2.6714,2.6841,-2.6714s2.684,1.1984,2.684,2.6714S21.8366,15.034,20.3566,15.034zM20.3566,11.1788c-0.653,0,-1.1841,0.531,-1.1841,1.1838c0,0.6527,0.5312,1.1838,1.1841,1.1838c0.6529,0,1.184,-0.531,1.184,-1.1838C21.5406,11.7098,21.0095,11.1788,20.3566,11.1788z" fill="#6486C4"/>
    <path d="M3.3203,6.2619c-0.3261,0.5127,-0.5156,1.1201,-0.5156,1.772c0,1.8311,1.4894,3.3154,3.3266,3.3154c0.6541,0,1.2636,-0.1889,1.778,-0.5139L3.3203,6.2619z" fill="#FFFFFF" opacity="0.5"/>
    <path d="M6.1314,11.958c-2.1717,0,-3.9385,-1.7604,-3.9385,-3.9241c0,-0.7763,0.2287,-1.5279,0.6612,-2.1734l0.1526,-0.2276l0.8777,0.8748l-0.0885,0.1486c-0.2481,0.4164,-0.3793,0.8929,-0.3793,1.3776c0,1.4925,1.2179,2.7068,2.7148,2.7068c0.4858,0,0.9633,-0.1306,1.3808,-0.3777l0.1509,-0.0893l0.8771,0.8741l-0.2266,0.1509C7.6656,11.73,6.9109,11.958,6.1314,11.958z" fill="#EEAD56"/>
    <path d="M11.2811,5.983l1.6062,-1.6008c0.8124,-0.8096,0.8124,-2.1223,0,-2.932l0,0c-0.8124,-0.8096,-2.1295,-0.8096,-2.9418,0l-1.593,1.5877c-1.9913,-1.4245,-4.7807,-1.2459,-6.5705,0.538l0,0l8.899,8.8692l0,0C12.4449,10.6869,12.6441,7.9612,11.2811,5.983z" fill="#FFFFFF" opacity="0.5"/>
    <path d="M10.6809,13.288c-0.2245,0,-0.4441,-0.0905,-0.6025,-0.2483L1.1793,4.1705c-0.3289,-0.3279,-0.3289,-0.8613,0,-1.1892c1.1283,-1.1245,2.6214,-1.7438,4.2043,-1.7438c0.9916,0,1.974,0.2514,2.8461,0.7276L9.3429,0.8556C9.8964,0.3039,10.6328,0,11.4164,0c0.7835,0,1.5199,0.3039,2.0734,0.8556c1.14,1.1362,1.14,2.9849,-0.0001,4.1211l-1.1405,1.1367c1.1921,2.2698,0.7588,5.1077,-1.0658,6.9263C11.125,13.1975,10.9054,13.288,10.6809,13.288zM10.6202,11.1895c0.947,-1.4283,0.9352,-3.3144,-0.041,-4.731c-0.2298,-0.3336,-0.1881,-0.7837,0.0993,-1.0701l1.6062,-1.6009c0.4822,-0.4804,0.4822,-1.2622,0,-1.7427c-0.2322,-0.2314,-0.5405,-0.3589,-0.8684,-0.3589c-0.3279,0,-0.6362,0.1275,-0.8684,0.3588L8.9548,3.6325c-0.1608,0.1601,-0.3749,0.2483,-0.6028,0.2483c-0.1794,0,-0.3513,-0.0551,-0.4969,-0.1592c-0.7279,-0.5208,-1.5822,-0.7961,-2.4705,-0.7961c-0.8395,0,-1.6477,0.2447,-2.3449,0.7088L10.6202,11.1895z" fill="#6486C4"/>
  </g>
</svg>
