<?xml version="1.0" encoding="UTF-8"?>
<!DOCTYPE svg PUBLIC "-//W3C//DTD SVG 1.1//EN" "http://www.w3.org/Graphics/SVG/1.1/DTD/svg11.dtd">
<svg version="1.1" id="Layer_1" xmlns="http://www.w3.org/2000/svg" xmlns:xlink="http://www.w3.org/1999/xlink" x="0px" y="0px" width="16px" height="16px" viewBox="0 0 16 16" enable-background="new 0 0 16 16" xml:space="preserve">
  <g id="icon">
    <path d="M15.5,13.5H0.5V2.5h15V13.5z" fill="#FFFFFF" opacity="0.5"/>
    <path d="M16,14H0V2h16V14zM1,13h14V3H1V13z" fill="#6D6E71"/>
    <path d="M14,10h-3V9h3V10zM14,8h-3V7h3V8zM14,6h-3V5h3V6z" fill="#6D6E71"/>
    <path d="M2.5309,12c-0.1684,0,-0.33,-0.0693,-0.4435,-0.1902c-0.1115,-0.1188,-0.1679,-0.2789,-0.1547,-0.4392l0.0151,-0.1849c0.0625,-0.7613,0.4486,-2.146,2.3333,-2.8669c0.0459,-0.0182,0.0787,-0.0385,0.1011,-0.0555c-0.4258,-0.5743,-0.6597,-1.3284,-0.6597,-2.1314c0,-0.9152,0.234,-2.1318,2.2568,-2.1318h0.0282c2.0291,0,2.2637,1.2167,2.2637,2.1318c0,0.8012,-0.2346,1.5552,-0.6616,2.1309c0.0231,0.0176,0.0565,0.038,0.1033,0.0565c1.8898,0.72,2.2772,2.1049,2.3399,2.8662l0.0152,0.185c0.0132,0.1603,-0.0432,0.3204,-0.1546,0.4392c-0.1136,0.121,-0.2754,0.1904,-0.444,0.1904H2.5309zM9.0512,11.0415c-0.0961,-0.5108,-0.4481,-1.3558,-1.6941,-1.8299c-0.3678,-0.1446,-0.6397,-0.416,-0.7279,-0.7264c-0.0718,-0.2525,-0.0233,-0.5064,0.1364,-0.7149l0.0067,-0.0086c0.3377,-0.4187,0.5236,-0.9976,0.5236,-1.6299c0,-0.8274,-0.179,-1.1733,-1.2885,-1.1733h-0.0282c-1.1035,0,-1.2816,0.3459,-1.2816,1.1733c0,0.6326,0.1851,1.2114,0.5212,1.6299l0.0066,0.0084c0.1597,0.2092,0.208,0.4634,0.1362,0.7157c-0.0883,0.3099,-0.3576,0.5804,-0.7205,0.7235c-1.2455,0.4758,-1.5962,1.3211,-1.6918,1.8321H9.0512z" fill="#6485C3"/>
  </g>
</svg>
