<?xml version="1.0" encoding="UTF-8"?>
<!DOCTYPE svg PUBLIC "-//W3C//DTD SVG 1.1//EN" "http://www.w3.org/Graphics/SVG/1.1/DTD/svg11.dtd">
<svg version="1.1" id="Layer_1" xmlns="http://www.w3.org/2000/svg" xmlns:xlink="http://www.w3.org/1999/xlink" x="0px" y="0px" width="16px" height="16px" viewBox="0 0 16 16" enable-background="new 0 0 16 16" xml:space="preserve">
  <g id="icon">
    <path d="M14,2.3c-0.0021,-0.5703,-0.0554,-1.3967,-0.9173,-1.6471c-1.5376,-0.4466,-4.3193,-0.6065,-5.3948,-0.6332L6.488,0.0195C5.3727,0.0459,2.4677,0.2053,0.9267,0.6529C0.0648,0.9033,0,1.6297,0,2.2c0,1,0,9.1,0,9.8c0,0.8412,0.4771,1.0794,0.7576,1.1526c0.352,0.0918,3.5739,0.3863,5.6424,0.4474h0.1008h0.6624h0.2053c-0.1065,-0.1339,-0.6069,-0.8814,-0.6721,-0.9829c-0.2261,-0.4339,-0.3194,-0.8869,-0.2833,-1.3224l-0.0158,-0.0071c-0.3132,-0.216,-0.5002,-0.5717,-0.5002,-0.9514c0,-0.6369,0.5181,-1.155,1.155,-1.155c0.254,0,0.4951,0.081,0.6972,0.2343l0.0136,0.0103c0.2686,-0.1169,0.5592,-0.1788,0.8609,-0.1788c0.1412,0,0.2838,0.0132,0.4274,0.0396c0.0042,-0.3661,0.0043,-0.7327,0.0044,-1.0933c0,-0.2198,0.0001,-0.4362,0.0009,-0.6525c0.0053,-1.3331,1.0278,-2.445,2.2793,-2.4789c0.0202,-0.0006,0.0425,-0.0009,0.0648,-0.0009c0.5811,0,1.1343,0.2215,1.5579,0.6238c0.2297,0.2182,0.4113,0.4792,0.54,0.7693c0,-0.0142,0,-0.0286,0,-0.0429c0.1411,0.3191,0.2142,0.6759,0.2236,1.0568c0.004,0.1648,0.0046,0.5016,0.0041,0.8744c0.0744,0.0247,0.1485,0.0501,0.2223,0.0757C14,8.4,14,8.3,14,8.2209C14,8.2209,14.0038,3.3213,14,2.3zM3.677,11.4912c-0.6369,0,-1.155,-0.5181,-1.155,-1.155s0.5181,-1.155,1.155,-1.155s1.155,0.5181,1.155,1.155S4.3139,11.4912,3.677,11.4912zM3.677,8.3412c-0.6369,0,-1.155,-0.5181,-1.155,-1.155s0.5181,-1.155,1.155,-1.155s1.155,0.5181,1.155,1.155S4.3139,8.3412,3.677,8.3412zM7.052,8.3412c-0.6369,0,-1.155,-0.5181,-1.155,-1.155s0.5181,-1.155,1.155,-1.155s1.155,0.5181,1.155,1.155S7.6889,8.3412,7.052,8.3412zM11,5H3V2h8V5z" fill="#6D6E71"/>
    <path d="M3.677,11.4912c-0.6369,0,-1.155,-0.5181,-1.155,-1.155s0.5181,-1.155,1.155,-1.155s1.155,0.5181,1.155,1.155S4.3139,11.4912,3.677,11.4912zM6.3973,11.2876c-0.3132,-0.216,-0.5002,-0.5717,-0.5002,-0.9514c0,-0.6369,0.5181,-1.155,1.155,-1.155c0.254,0,0.4951,0.081,0.6972,0.2343l0.0435,0.033l-0.0511,0.0191c-0.0327,0.015,-0.0658,0.0312,-0.0985,0.0481c-0.0379,0.0197,-0.0704,0.0378,-0.1024,0.0568c-0.0359,0.0212,-0.0668,0.0408,-0.0974,0.0611c-0.0356,0.0237,-0.064,0.044,-0.092,0.0648l-0.0296,-0.0157l0.018,0.024c-0.0256,0.0192,-0.0506,0.0394,-0.0754,0.0598l-0.0183,0.0146c-0.0221,0.0186,-0.0437,0.038,-0.0652,0.0575l-0.025,0.0223c-0.0145,0.0135,-0.0285,0.0275,-0.0425,0.0415l-0.0443,0.0437c-0.0092,0.0096,-0.0738,0.0798,-0.0823,0.0896c-0.0399,0.0457,-0.0784,0.0937,-0.1179,0.1467c-0.0074,0.01,-0.0143,0.0202,-0.0212,0.0304l-0.0142,0.0208c-0.0233,0.0332,-0.0466,0.0664,-0.0679,0.1003c-0.0095,0.0151,-0.0182,0.0305,-0.0271,0.0459l-0.0117,0.0204c-0.0193,0.0334,-0.0354,0.0613,-0.0502,0.0896c-0.0108,0.0208,-0.0207,0.0418,-0.0306,0.0629l-0.0059,0.0125c-0.0133,0.028,-0.0264,0.0561,-0.0383,0.0845c-0.0115,0.0272,-0.0218,0.0547,-0.0322,0.0822c-0.01,0.027,-0.0198,0.054,-0.0287,0.0812c-0.0096,0.0292,-0.0184,0.0585,-0.0267,0.088c-0.0072,0.0259,-0.0139,0.0521,-0.0203,0.0783c-0.0074,0.0309,-0.0144,0.0618,-0.0204,0.0929c-0.0048,0.0252,-0.0089,0.0507,-0.0128,0.0762c-0.005,0.0321,-0.0099,0.0643,-0.0134,0.0966l-0.0016,0.0115l-0.0052,0.0503L6.3973,11.2876zM7.052,8.3412c-0.6369,0,-1.155,-0.5181,-1.155,-1.155s0.5181,-1.155,1.155,-1.155s1.155,0.5181,1.155,1.155S7.6889,8.3412,7.052,8.3412zM3.677,8.3412c-0.6369,0,-1.155,-0.5181,-1.155,-1.155s0.5181,-1.155,1.155,-1.155s1.155,0.5181,1.155,1.155S4.3139,8.3412,3.677,8.3412zM11,5H3V2h8V5z" fill="#FFFFFF" opacity="0.5"/>
    <path d="M10.9231,16.025c-0.314,0,-0.5144,-0.0629,-0.6496,-0.204c-0.1252,-0.1306,-0.1796,-0.3155,-0.1665,-0.5654c0.0236,-0.448,-0.3442,-0.8729,-0.7909,-1.3422c-0.0949,-0.0997,-0.1836,-0.1888,-0.2701,-0.2755c-0.3255,-0.3268,-0.6329,-0.6354,-1.1029,-1.3457c-0.3223,-0.4874,-0.3196,-0.9625,0.0076,-1.338c0.1326,-0.1521,0.3617,-0.3334,0.6998,-0.3334c0.2356,0,0.5004,0.0852,0.7868,0.2534l0.0253,0.015c0.0253,0.0155,0.0454,0.0271,0.0663,0.0371l0.0107,0.0052l0.0111,0.0043c0.1369,0.0529,0.2765,0.1062,0.4169,0.1596l0.3955,0.1502l0.026,-0.4212c0.0042,-0.0673,0.0063,-0.1321,0.0078,-0.1758c0.0014,-0.043,0.0026,-0.079,0.0041,-0.1116c0.0369,-0.7792,0.0371,-1.5757,0.0373,-2.3459c0.0001,-0.2254,0.0001,-0.4472,0.001,-0.6688c0.0026,-0.6582,0.4711,-1.2063,1.0444,-1.2218L11.5143,6.3c0.2535,0,0.4956,0.0974,0.6817,0.2744c0.2298,0.2186,0.3614,0.5384,0.3703,0.9006c0.0058,0.236,0.004,0.9084,0.0026,1.4487l-0.0011,0.4067l0.2214,0.0671c2.2501,0.682,3.2102,1.2716,3.2102,1.9715l-0.0002,0.0097c-0.0078,0.2837,-0.0046,0.473,-0.0018,0.64c0.0057,0.3261,0.0094,0.5406,-0.0792,1.1175c-0.0581,0.3779,-0.4333,0.9094,-0.7652,1.2809l-0.0259,0.029l-0.0179,0.0345c-0.0121,0.0232,-0.2964,0.5722,-0.3269,0.8334c-0.0566,0.4876,-0.2992,0.705,-0.7864,0.7051c-0.4263,-0.0013,-0.8578,-0.0023,-1.2878,-0.0023c-0.6783,0,-1.2521,0.0026,-1.7539,0.008L10.9231,16.025z" fill="#EEAC55"/>
  </g>
</svg>
