<?xml version="1.0" encoding="UTF-8"?>
<!DOCTYPE svg PUBLIC "-//W3C//DTD SVG 1.1//EN" "http://www.w3.org/Graphics/SVG/1.1/DTD/svg11.dtd">
<svg version="1.1" id="Layer_1" xmlns="http://www.w3.org/2000/svg" xmlns:xlink="http://www.w3.org/1999/xlink" x="0px" y="0px" width="16px" height="16px" viewBox="0 0 16 16" enable-background="new 0 0 16 16" xml:space="preserve">
  <g id="icon">
    <path d="M15,13h-1.7008c-0.2224,-0.584,-0.7881,-1,-1.4492,-1c-0.0929,0,-0.1838,0.0082,-0.2722,0.0239l-0.8307,-1.5976c2.1786,-1.1965,4.3689,-2.417,4.5272,-2.5053l0.4276,-0.2383l-0.7212,-1.3608c-0.2053,0.16,-0.4322,0.3108,-0.6816,0.4516c-0.0466,0.0288,-0.2228,0.1412,-0.3753,0.2383l-0.0264,0.0168c-0.5801,0.3698,-0.6728,0.4273,-0.7627,0.4735c-0.5035,0.2586,-0.8181,0.4465,-1.1513,0.6454c-0.36,0.215,-0.7322,0.4373,-1.3254,0.7404c-0.0497,0.0254,-0.104,0.0556,-0.1612,0.0872c-0.3859,0.2129,-0.9042,0.4989,-1.4946,0.4989c-0.0871,0,-0.1741,-0.0063,-0.2586,-0.0186c-0.7133,-0.1053,-1.1314,-0.5846,-1.4081,-0.9018c-0.0513,-0.0587,-0.1083,-0.1239,-0.1374,-0.1515c-0.0029,-0.0027,-0.0057,-0.0054,-0.0086,-0.0081c-0.1341,-0.1264,-0.3332,-0.1549,-0.4971,-0.0706c-0.0014,0.0007,-0.0028,0.0014,-0.0042,0.0021c-0.5131,0.2641,-1.0142,0.5364,-1.4988,0.7998c-0.5713,0.3105,-1.1547,0.6271,-1.7706,0.9393c0.4278,0.8132,0.8933,1.6837,1.1823,2.1333c0.2705,0.4208,0.696,0.6399,1.1845,0.6399c0.29,0,0.6022,-0.0773,0.9173,-0.2356c0.6148,-0.309,1.835,-0.9672,3.1667,-1.6952l0.8328,1.6017c-0.2501,0.2753,-0.4027,0.6408,-0.4027,1.0412c0,0.8547,0.6953,1.55,1.55,1.55c0.6982,0,1.2901,-0.4641,1.4834,-1.1H15v2h1v-5h-1V13z" fill="#6D6E71"/>
    <path d="M2.4947,9.4c-0.1571,0,-0.3195,-0.0393,-0.4504,-0.1473c-0.2233,-0.1841,-0.5254,-0.3807,-0.8452,-0.5888c-0.3308,-0.2153,-0.673,-0.4378,-0.9693,-0.674c-0.1629,-0.1299,-0.2476,-0.3304,-0.2266,-0.5366c0.0208,-0.2049,0.1431,-0.3838,0.3272,-0.4785l0,0c2.1327,-1.0976,4.4171,-2.2845,6.6262,-3.4323c2.2358,-1.1616,4.5477,-2.3628,6.7078,-3.4743c0.1471,-0.0758,0.3216,-0.0889,0.4786,-0.0356c0.1588,0.0537,0.2899,0.1715,0.3598,0.3232c0.2519,0.5467,0.4429,1.0891,0.6277,1.6138c0.0398,0.113,0.0795,0.2257,0.1195,0.3377c0.5891,1.6477,0.143,2.8199,-1.404,3.6887c-0.0342,0.0201,-0.2549,0.1608,-0.4322,0.2738c-0.5143,0.3278,-0.6368,0.4045,-0.6903,0.432c-0.529,0.2717,-0.8557,0.4667,-1.2015,0.6732c-0.3478,0.2076,-0.7074,0.4223,-1.2734,0.7116c-0.0598,0.0306,-0.1253,0.0668,-0.194,0.1047c-0.3671,0.2026,-0.7833,0.4316,-1.1808,0.3736c-0.3833,-0.0566,-0.6365,-0.3467,-0.8598,-0.6028c-0.0701,-0.0803,-0.1363,-0.1561,-0.1968,-0.2134c-0.5982,-0.566,-0.8142,-0.5971,-1.5404,-0.2233c-0.5249,0.2702,-1.0331,0.5464,-1.5245,0.8135c-0.5793,0.3149,-1.1784,0.6405,-1.8079,0.9579C2.8336,9.3525,2.6674,9.4,2.4947,9.4zM2.5022,8.445c-0.0006,0.0003,-0.0011,0.0006,-0.0017,0.0008C2.5011,8.4456,2.5016,8.4453,2.5022,8.445zM0.7814,7.8219c0.0002,-0.0001,0.0005,-0.0002,0.0007,-0.0004C0.7818,7.8217,0.7816,7.8219,0.7814,7.8219L0.7814,7.8219z" fill="#6485C3"/>
    <path d="M3.2041,13.3379c-0.1356,-0.2709,-0.3079,-0.5795,-0.5074,-0.9369c-0.2556,-0.458,-0.5454,-0.977,-0.838,-1.5618l0.8943,-0.4475c0.2825,0.5646,0.5664,1.0731,0.8169,1.5218c0.2054,0.3679,0.3828,0.6856,0.5284,0.9768L3.2041,13.3379z" fill="#6D6E71"/>
  </g>
</svg>
