<?xml version="1.0" encoding="UTF-8"?>
<!DOCTYPE svg PUBLIC "-//W3C//DTD SVG 1.1//EN" "http://www.w3.org/Graphics/SVG/1.1/DTD/svg11.dtd">
<svg version="1.1" id="Layer_1" xmlns="http://www.w3.org/2000/svg" xmlns:xlink="http://www.w3.org/1999/xlink" x="0px" y="0px" width="16px" height="16px" viewBox="0 0 16 16" enable-background="new 0 0 16 16" xml:space="preserve">
  <g id="icon">
    <g>
      <path d="M4.0378,5c0.7064,0,1.373,0.1717,1.9622,0.4739V4H2v1.5127C2.6073,5.1859,3.3012,5,4.0378,5z" fill="#6D6E71"/>
      <path d="M7,4v2.1818C7.5227,6.6762,7.9223,7.2991,8.1471,8H15v1H8.3398c0.0075,0.1039,0.0127,0.2085,0.0127,0.3144c0,0.2333,-0.0193,0.4622,-0.0551,0.6856H15v1H8.0087c-0.1461,0.3428,-0.3346,0.6633,-0.5601,0.954L8.0484,13H16V4H7zM15,7H8V6h7V7z" fill="#6D6E71"/>
    </g>
    <path d="M2,0v3h14V0H2zM11,2h-1V1h1V2zM13,2h-1V1h1V2zM15,2h-1V1h1V2z" fill="#6485C3"/>
    <path d="M13,2h-1V1h1V2zM11,1h-1v1h1V1zM15,1h-1v1h1V1zM8.0087,11H15v-1H8.2974C8.2414,10.349,8.1434,10.684,8.0087,11zM7,3H6H2v1h4v1.4739c0.3668,0.1882,0.7032,0.4271,1,0.7079V4h9V3H7zM8.3398,9H15V8H8.1471C8.2493,8.3189,8.3148,8.6539,8.3398,9zM8,7h7V6H8V7z" fill="#FFFFFF" opacity="0.5"/>
    <path d="M6.421,12.34l1.283,2.2375l-1.6928,0.0195l-1.2135,1.2415l-0.7365,-2.6178l-0.7365,2.6178L2.1112,14.597l-1.6928,-0.0195l1.2684,-2.2121c0.6506,0.502,1.4656,0.8014,2.351,0.8014C4.9379,13.1667,5.7652,12.8572,6.421,12.34zM4.0378,6.0834c-1.7846,0,-3.2313,1.4466,-3.2313,3.231s1.4467,3.231,3.2313,3.231s3.2313,-1.4466,3.2313,-3.231S5.8224,6.0834,4.0378,6.0834z" fill="#CB525D"/>
  </g>
</svg>
