<?xml version="1.0" encoding="UTF-8"?>
<!DOCTYPE svg PUBLIC "-//W3C//DTD SVG 1.1//EN" "http://www.w3.org/Graphics/SVG/1.1/DTD/svg11.dtd">
<svg version="1.1" id="Layer_1" xmlns="http://www.w3.org/2000/svg" xmlns:xlink="http://www.w3.org/1999/xlink" x="0px" y="0px" width="16px" height="16px" viewBox="0 0 16 16" enable-background="new 0 0 16 16" xml:space="preserve">
  <g id="icon">
    <path d="M11.0029,14.5h-6c-0.2761,0,-0.5,-0.2239,-0.5,-0.5V2c0,-0.2761,0.2239,-0.5,0.5,-0.5h6c0.2761,0,0.5,0.2239,0.5,0.5v12C11.5029,14.2761,11.279,14.5,11.0029,14.5z" fill="#FFFFFF" opacity="0.5"/>
    <path d="M11.0029,15h-6c-0.5514,0,-1,-0.4486,-1,-1V2c0,-0.5514,0.4486,-1,1,-1h6c0.5514,0,1,0.4486,1,1v12C12.0029,14.5514,11.5543,15,11.0029,15zM5.0029,2v12l6.0006,0l-0.0006,-12H5.0029z" fill="#6D6E71"/>
    <path d="M0.5689,11.6597c-0.3978,-1.1803,-0.5893,-2.4287,-0.5691,-3.7105c0.0198,-1.2588,0.2429,-2.4773,0.6631,-3.6216l0.9387,0.3447c-0.3814,1.0385,-0.5839,2.1463,-0.6019,3.2926c-0.0184,1.1677,0.1555,2.3033,0.5169,3.3753L0.5689,11.6597zM2.4237,10.7642c-0.2966,-0.8799,-0.4395,-1.8104,-0.4244,-2.7657c0.0148,-0.9384,0.1812,-1.8467,0.4945,-2.6997l0.9387,0.3448c-0.2745,0.7473,-0.4203,1.5449,-0.4333,2.3706c-0.0132,0.8411,0.112,1.6589,0.3721,2.4306L2.4237,10.7642zM15.4425,11.6597l-0.9476,-0.3194c0.3614,-1.072,0.5353,-2.2076,0.5169,-3.3753c-0.0181,-1.1464,-0.2206,-2.2542,-0.6019,-3.2926l0.9387,-0.3447c0.4202,1.1441,0.6433,2.3626,0.6631,3.6216C16.0319,9.2312,15.8404,10.4795,15.4425,11.6597zM13.5877,10.7642l-0.9476,-0.3194c0.2601,-0.7717,0.3853,-1.5895,0.3721,-2.4306c-0.013,-0.8257,-0.1587,-1.6233,-0.4332,-2.3707l0.9387,-0.3447c0.3133,0.853,0.4796,1.7613,0.4944,2.6997C14.0271,8.9538,13.8843,9.8843,13.5877,10.7642z" fill="#6485C3"/>
    <path d="M10.0029,12h-4v-1h4V12zM10.0029,9h-4v1h4V9z" fill="#6D6E71"/>
    <path d="M8.0029,7c-1.1028,0,-2,-0.8972,-2,-2s0.8972,-2,2,-2s2,0.8972,2,2S9.1057,7,8.0029,7zM8.0029,4c-0.5514,0,-1,0.4486,-1,1s0.4486,1,1,1s1,-0.4486,1,-1S8.5543,4,8.0029,4z" fill="#6485C3"/>
  </g>
</svg>
