<?xml version="1.0" encoding="UTF-8"?>
<!DOCTYPE svg PUBLIC "-//W3C//DTD SVG 1.1//EN" "http://www.w3.org/Graphics/SVG/1.1/DTD/svg11.dtd">
<svg version="1.1" id="Layer_1" xmlns="http://www.w3.org/2000/svg" xmlns:xlink="http://www.w3.org/1999/xlink" x="0px" y="0px" width="16px" height="16px" viewBox="0 0 16 16" enable-background="new 0 0 16 16" xml:space="preserve">
  <g id="icon">
    <path d="M14.4806,3.7h-0.5H2.0356h-0.5h-0.5c0,1.427,2.3238,4.963,3.2005,5.849c0.2836,0.2866,0.6814,0.451,1.0916,0.451h5.333c0.4351,0,0.8491,-0.1814,1.1358,-0.4977c0.843,-0.9299,3.1841,-4.6512,3.1841,-5.8023H14.4806zM7.5,8H5.4V7h2.1V8zM7.5,6H4.4V5h3.1V6zM10.6,8H8.5V7h2.1V8zM11.6,6H8.5V5h3.1V6z" fill="#6D6E71"/>
    <path d="M10.6,8H8.5V7h2.1V8zM7.5,8H5.4V7h2.1V8zM11.6,6H8.5V5h3.1V6zM7.5,6H4.4V5h3.1V6z" fill="#FFFFFF" opacity="0.5"/>
    <path d="M0,0v2.0003C0,2.5515,0.4485,3,0.9997,3h14.0006c0.5512,0,0.9997,-0.4485,0.9997,-0.9997V0H0z" fill="#6485C3"/>
    <path d="M11.3457,15.8924l-0.8111,-0.5849c0.4611,-0.6395,0.2985,-0.9281,0.0292,-1.4061c-0.3159,-0.5606,-0.7932,-1.4079,0.3798,-2.6173l0.7179,0.6962c-0.653,0.6733,-0.5193,0.9105,-0.2265,1.4303C11.732,13.9377,12.1808,14.7343,11.3457,15.8924zM8.2745,15.8924l-0.8111,-0.5849c0.4611,-0.6395,0.2985,-0.9281,0.0292,-1.4061c-0.3159,-0.5606,-0.7932,-1.4079,0.3798,-2.6173l0.7179,0.6962c-0.653,0.6733,-0.5193,0.9105,-0.2265,1.4303C8.6608,13.9377,9.1096,14.7343,8.2745,15.8924zM5.2033,15.8924l-0.8111,-0.5849c0.4611,-0.6395,0.2985,-0.9281,0.0292,-1.4061c-0.3159,-0.5606,-0.7932,-1.4079,0.3799,-2.6173l0.7179,0.6962c-0.653,0.6733,-0.5193,0.9105,-0.2265,1.4303C5.5896,13.9377,6.0384,14.7343,5.2033,15.8924z" fill="#6485C3"/>
    <rect x="1" y="3" width="14" height="0.7" fill="#FFFFFF" opacity="0.5"/>
  </g>
</svg>
