<?xml version="1.0" encoding="UTF-8"?>
<!DOCTYPE svg PUBLIC "-//W3C//DTD SVG 1.1//EN" "http://www.w3.org/Graphics/SVG/1.1/DTD/svg11.dtd">
<svg version="1.1" id="Layer_1" xmlns="http://www.w3.org/2000/svg" xmlns:xlink="http://www.w3.org/1999/xlink" x="0px" y="0px" width="16px" height="16px" viewBox="0 0 16 16" enable-background="new 0 0 16 16" xml:space="preserve">
  <g id="icon">
    <path d="M1.6229,3.1925c0.1076,-0.156,1.1267,-1.4283,1.2497,-1.5761s0.1285,-0.1224,0.2668,0.0171c0.1383,0.1395,1.2377,1.4769,1.2992,1.559S4.5,3.3689,4.5,3.5865V14.106c0,0.2176,-0.1652,0.394,-0.369,0.394H1.869c-0.2038,0,-0.369,-0.1764,-0.369,-0.394V3.5865C1.5,3.3689,1.5154,3.3485,1.6229,3.1925zM6.6229,3.1925c0.1076,-0.156,1.1267,-1.4283,1.2497,-1.5761s0.1285,-0.1224,0.2668,0.0171c0.1383,0.1395,1.2377,1.4769,1.2992,1.559C9.5,3.2746,9.5,3.3689,9.5,3.5865V14.106c0,0.2176,-0.1652,0.394,-0.369,0.394H6.869c-0.2038,0,-0.369,-0.1764,-0.369,-0.394V3.5865C6.5,3.3689,6.5154,3.3485,6.6229,3.1925zM11.6229,3.1925c0.1076,-0.156,1.1267,-1.4283,1.2497,-1.5761c0.1229,-0.1478,0.1285,-0.1224,0.2668,0.0171c0.1383,0.1395,1.2377,1.4769,1.2992,1.559C14.5,3.2746,14.5,3.3689,14.5,3.5865V14.106c0,0.2176,-0.1652,0.394,-0.369,0.394H11.869c-0.2038,0,-0.369,-0.1764,-0.369,-0.394V3.5865C11.5,3.3689,11.5154,3.3485,11.6229,3.1925z" fill="#FFFFFF" opacity="0.5"/>
    <path d="M14.1311,15h-2.2621c-0.4792,0,-0.8689,-0.4011,-0.8689,-0.894V3.5865c0,-0.3202,0.0495,-0.4432,0.2085,-0.6739l0.0028,-0.004c0.1264,-0.1833,1.1648,-1.4773,1.2768,-1.6119c0.0728,-0.0874,0.2239,-0.269,0.4823,-0.2796c0.2541,-0.009,0.4081,0.1462,0.4999,0.2398l0.0243,0.0247c0.1669,0.1685,1.2926,1.5424,1.3442,1.6114C15,3.1081,15,3.3192,15,3.5865V14.106C15,14.5989,14.6102,15,14.1311,15zM12,14h2V3.5865c0,-0.0504,0,-0.1053,-0.0012,-0.1438c-0.1553,-0.1926,-0.6803,-0.83,-0.9911,-1.1986c-0.3442,0.4286,-0.9053,1.1343,-0.9732,1.2324l-0.0026,0.0038c-0.0119,0.0172,-0.0223,0.0317,-0.0311,0.0448c-0.0004,0.0136,-0.0007,0.0333,-0.0007,0.0615V14zM9.1311,15H6.8689c-0.4792,0,-0.8689,-0.4011,-0.8689,-0.894V3.5865c0,-0.3202,0.0495,-0.4432,0.2085,-0.6739l0.0028,-0.004c0.1264,-0.1833,1.1648,-1.4773,1.2768,-1.6119c0.0728,-0.0874,0.2239,-0.269,0.4823,-0.2796c0.2539,-0.009,0.408,0.1462,0.4999,0.2398l0.0243,0.0247C8.6615,1.45,9.7872,2.824,9.8388,2.893C10,3.1081,10,3.3192,10,3.5865V14.106C10,14.5989,9.6102,15,9.1311,15zM7,14h2V3.5865c0,-0.0504,0,-0.1053,-0.0012,-0.1438c-0.1553,-0.1926,-0.6803,-0.83,-0.9911,-1.1986c-0.3442,0.4286,-0.9053,1.1343,-0.9732,1.2324l-0.0026,0.0038c-0.0119,0.0172,-0.0223,0.0317,-0.0311,0.0448C7.0003,3.5387,7,3.5583,7,3.5865V14zM4.1311,15H1.8689c-0.4792,0,-0.8689,-0.4011,-0.8689,-0.894V3.5865c0,-0.3202,0.0495,-0.4432,0.2085,-0.6739l0.0028,-0.004c0.1264,-0.1833,1.1648,-1.4773,1.2768,-1.6119c0.0728,-0.0874,0.2239,-0.269,0.4823,-0.2796c0.2537,-0.009,0.4081,0.1462,0.4999,0.2398l0.0243,0.0247C3.6615,1.45,4.7872,2.824,4.8388,2.893C5,3.1081,5,3.3192,5,3.5865V14.106C5,14.5989,4.6102,15,4.1311,15zM2,14h2V3.5865c0,-0.0504,0,-0.1053,-0.0012,-0.1438c-0.1553,-0.1926,-0.6803,-0.83,-0.9911,-1.1986c-0.3442,0.4286,-0.9053,1.1343,-0.9732,1.2324l-0.0026,0.0038c-0.0119,0.0172,-0.0223,0.0317,-0.0311,0.0448C2.0003,3.5387,2,3.5583,2,3.5865V14z" fill="#6485C3"/>
    <path d="M16,6h-1.5V5h1.5V6zM11.5,6H9.5V5h2V6zM6.5,6H4.5V5h2V6zM1.5,6H0V5h1.5V6zM16,12h-1.5v-1h1.5V12zM11.5,12H9.5v-1h2V12zM6.5,12H4.5v-1h2V12zM1.5,12H0v-1h1.5V12z" fill="#6485C3"/>
  </g>
</svg>
