<?xml version="1.0" encoding="UTF-8"?>
<!DOCTYPE svg PUBLIC "-//W3C//DTD SVG 1.1//EN" "http://www.w3.org/Graphics/SVG/1.1/DTD/svg11.dtd">
<svg version="1.1" id="Layer_1" xmlns="http://www.w3.org/2000/svg" xmlns:xlink="http://www.w3.org/1999/xlink" x="0px" y="0px" width="16px" height="16px" viewBox="0 0 16 16" enable-background="new 0 0 16 16" xml:space="preserve">
  <g id="icon">
    <path d="M2.5,15V1.5h11v13.5" fill="#FFFFFF" opacity="0.5"/>
    <path d="M2,0v16h1V3h10v13h1V0H2zM12,2h-2V1h2V2z" fill="#6D6E71"/>
    <path d="M8,4.5c-0.5523,0,-1,0.2477,-1,0.8s0.4477,1.2,1,1.2s1,-0.6477,1,-1.2S8.5523,4.5,8,4.5z" fill="#FFFFFF" opacity="0.5"/>
    <rect x="10" y="1" width="2" height="1" fill="#FFFFFF" opacity="0.5"/>
    <path d="M8,7c-0.8585,0,-1.5,-0.8975,-1.5,-1.7c0,-0.7776,0.6028,-1.3,1.5,-1.3s1.5,0.5224,1.5,1.3C9.5,6.1025,8.8585,7,8,7zM9.9667,7H8H6.0333C5.1865,7,4.5,7.6865,4.5,8.5333V12c0,0.2761,0.2239,0.5,0.5,0.5s0.5,-0.2239,0.5,-0.5V9.5333c0,-0.2831,0.2213,-0.5125,0.5,-0.53V9h0.0333c-0.0114,0,-0.0221,0.0027,-0.0333,0.0034v6.4883c0,0.2807,0.2276,0.5083,0.5083,0.5083h0.5833c0.2807,0,0.5083,-0.2276,0.5083,-0.5083V12.65c0,-0.359,0.091,-0.65,0.45,-0.65s0.45,0.291,0.45,0.65v2.8417c0,0.2807,0.2276,0.5083,0.5083,0.5083h0.4833c0.2807,0,0.5083,-0.2276,0.5083,-0.5083V9.0034C9.9888,9.0027,9.9781,9,9.9667,9H10v0.0034c0.2787,0.0175,0.5,0.2469,0.5,0.53V12c0,0.2761,0.2239,0.5,0.5,0.5s0.5,-0.2239,0.5,-0.5V8.5333C11.5,7.6865,10.8135,7,9.9667,7z" fill="#6485C3"/>
  </g>
</svg>
