<?xml version="1.0" encoding="UTF-8"?>
<!DOCTYPE svg PUBLIC "-//W3C//DTD SVG 1.1//EN" "http://www.w3.org/Graphics/SVG/1.1/DTD/svg11.dtd">
<svg version="1.1" id="Layer_1" xmlns="http://www.w3.org/2000/svg" xmlns:xlink="http://www.w3.org/1999/xlink" x="0px" y="0px" width="16px" height="16px" viewBox="0 0 16 16" enable-background="new 0 0 16 16" xml:space="preserve">
  <g id="icon">
    <rect x="1" y="5" width="14" height="10" fill="#FFFFFF" opacity="0.4"/>
    <polygon points="15,5 15,6 15,15 6,15 5,15 1,15 1,6 1,5 0,5 0,16 16,16 16,5" fill="#6D6E71" stroke-linejoin="miter"/>
    <path d="M0,1v4h16V1H0z" fill="#CB525D"/>
    <path d="M12,13.8c-0.7168,0,-1.3,-0.5832,-1.3,-1.3s0.5832,-1.3,1.3,-1.3s1.3,0.5832,1.3,1.3S12.7168,13.8,12,13.8zM8,13.8c-0.7168,0,-1.3,-0.5832,-1.3,-1.3s0.5832,-1.3,1.3,-1.3s1.3,0.5832,1.3,1.3S8.7168,13.8,8,13.8zM4,13.8c-0.7168,0,-1.3,-0.5832,-1.3,-1.3s0.5832,-1.3,1.3,-1.3s1.3,0.5832,1.3,1.3S4.7168,13.8,4,13.8z" fill="#CB525D"/>
    <path d="M3,6v4h10V6H3zM12,9H4V7h8V9z" fill="#6D6E71"/>
  </g>
</svg>
