<?xml version="1.0" encoding="UTF-8"?>
<!DOCTYPE svg PUBLIC "-//W3C//DTD SVG 1.1//EN" "http://www.w3.org/Graphics/SVG/1.1/DTD/svg11.dtd">
<svg version="1.1" id="Layer_1" xmlns="http://www.w3.org/2000/svg" xmlns:xlink="http://www.w3.org/1999/xlink" x="0px" y="0px" width="16px" height="16px" viewBox="0 0 16 16" enable-background="new 0 0 16 16" xml:space="preserve">
  <g id="icon">
    <path d="M11.988,5.695h-1V4.0018C10.988,2.3466,9.6415,1,7.9862,1c-1.6552,0,-3.0018,1.3466,-3.0018,3.0018V5.695h-1V4.0018C3.9845,1.7952,5.7796,0,7.9862,0s4.0018,1.7952,4.0018,4.0018V5.695z" fill="#6D6E71"/>
    <path d="M8.987,9.9972c0,0.5519,-0.4489,1.0008,-1.0008,1.0008c-0.5518,0,-1.0007,-0.4489,-1.0007,-1.0008s0.4489,-1.0008,1.0007,-1.0008C8.5381,8.9964,8.987,9.4453,8.987,9.9972zM14,10c0,3.3084,-2.6916,6,-6,6c-3.3084,0,-6,-2.6916,-6,-6s2.6916,-6,6,-6C11.3084,4,14,6.6916,14,10zM10.064,7.9194c0.2295,0.2295,0.6016,0.2295,0.8311,0c0.2295,-0.2295,0.2295,-0.6016,0,-0.8311c-0.2295,-0.2295,-0.6016,-0.2295,-0.8311,0C9.8345,7.3178,9.8345,7.6899,10.064,7.9194zM7.3986,6.4711c0,0.3246,0.2631,0.5877,0.5877,0.5877s0.5877,-0.2631,0.5877,-0.5877s-0.2631,-0.5877,-0.5877,-0.5877S7.3986,6.1465,7.3986,6.4711zM5.0774,7.9194c0.2295,0.2295,0.6016,0.2295,0.8311,0c0.2295,-0.2295,0.2295,-0.6016,0,-0.8311c-0.2295,-0.2295,-0.6016,-0.2295,-0.8311,0C4.8479,7.3178,4.8479,7.6899,5.0774,7.9194zM5.0479,9.9972c0,-0.3246,-0.2631,-0.5877,-0.5877,-0.5877c-0.3246,0,-0.5877,0.2631,-0.5877,0.5877c0,0.3246,0.2631,0.5877,0.5877,0.5877C4.7847,10.5849,5.0479,10.3217,5.0479,9.9972zM5.9085,12.0749c-0.2295,-0.2295,-0.6016,-0.2295,-0.8311,0c-0.2295,0.2295,-0.2295,0.6016,0,0.8311c0.2295,0.2295,0.6016,0.2295,0.8311,0C6.138,12.6765,6.138,12.3044,5.9085,12.0749zM8.5739,13.5232c0,-0.3246,-0.2631,-0.5877,-0.5877,-0.5877s-0.5877,0.2631,-0.5877,0.5877s0.2631,0.5877,0.5877,0.5877S8.5739,13.8478,8.5739,13.5232zM9.987,9.9972c0,-1.1032,-0.8976,-2.0008,-2.0008,-2.0008s-2.0007,0.8976,-2.0007,2.0008s0.8975,2.0008,2.0007,2.0008S9.987,11.1004,9.987,9.9972zM10.8951,12.0749c-0.2295,-0.2295,-0.6016,-0.2295,-0.8311,0c-0.2295,0.2295,-0.2295,0.6016,0,0.8311s0.6016,0.2295,0.8311,0S11.1246,12.3044,10.8951,12.0749zM12.1,9.9972c0,-0.3246,-0.2631,-0.5877,-0.5877,-0.5877s-0.5877,0.2631,-0.5877,0.5877c0,0.3246,0.2631,0.5877,0.5877,0.5877S12.1,10.3217,12.1,9.9972z" fill="#EEAC55"/>
    <path d="M7.9862,11.9979c-1.1032,0,-2.0007,-0.8976,-2.0007,-2.0008s0.8975,-2.0008,2.0007,-2.0008S9.987,8.8939,9.987,9.9972S9.0895,11.9979,7.9862,11.9979zM7.9862,8.9964c-0.5518,0,-1.0007,0.4489,-1.0007,1.0008s0.4489,1.0008,1.0007,1.0008c0.5519,0,1.0008,-0.4489,1.0008,-1.0008S8.5381,8.9964,7.9862,8.9964zM8.5739,6.4711c0,0.3246,-0.2631,0.5877,-0.5877,0.5877s-0.5877,-0.2631,-0.5877,-0.5877s0.2631,-0.5877,0.5877,-0.5877S8.5739,6.1465,8.5739,6.4711zM7.9862,12.9356c-0.3246,0,-0.5877,0.2631,-0.5877,0.5877c0,0.3246,0.2631,0.5877,0.5877,0.5877s0.5877,-0.2631,0.5877,-0.5877C8.5739,13.1987,8.3108,12.9356,7.9862,12.9356zM11.5123,9.4095c-0.3246,0,-0.5877,0.2631,-0.5877,0.5877s0.2631,0.5877,0.5877,0.5877S12.1,10.3217,12.1,9.9972S11.8369,9.4095,11.5123,9.4095zM4.4602,9.4095c-0.3246,0,-0.5877,0.2631,-0.5877,0.5877s0.2631,0.5877,0.5877,0.5877c0.3246,0,0.5877,-0.2631,0.5877,-0.5877S4.7847,9.4095,4.4602,9.4095zM10.8951,7.9194c-0.2295,0.2295,-0.6016,0.2295,-0.8311,0c-0.2295,-0.2295,-0.2295,-0.6016,0,-0.8311c0.2295,-0.2295,0.6016,-0.2295,0.8311,0S11.1246,7.6899,10.8951,7.9194zM5.9085,12.0749c-0.2295,-0.2295,-0.6016,-0.2295,-0.8311,0s-0.2295,0.6016,0,0.8311s0.6016,0.2295,0.8311,0S6.138,12.3044,5.9085,12.0749zM10.8951,12.0749c-0.2295,-0.2295,-0.6016,-0.2295,-0.8311,0c-0.2295,0.2295,-0.2295,0.6016,0,0.8311c0.2295,0.2295,0.6016,0.2295,0.8311,0S11.1246,12.3044,10.8951,12.0749zM5.9085,7.0883c-0.2295,-0.2295,-0.6016,-0.2295,-0.8311,0s-0.2295,0.6016,0,0.8311c0.2295,0.2295,0.6016,0.2295,0.8311,0C6.138,7.6899,6.138,7.3178,5.9085,7.0883z" fill="#FFFFFF" opacity="0.5"/>
  </g>
</svg>
