<?xml version="1.0" encoding="UTF-8"?>
<!DOCTYPE svg PUBLIC "-//W3C//DTD SVG 1.1//EN" "http://www.w3.org/Graphics/SVG/1.1/DTD/svg11.dtd">
<svg version="1.1" id="Layer_1" xmlns="http://www.w3.org/2000/svg" xmlns:xlink="http://www.w3.org/1999/xlink" x="0px" y="0px" width="16px" height="16px" viewBox="0 0 16 16" enable-background="new 0 0 16 16" xml:space="preserve">
  <g id="icon">
    <path d="M15.4705,15.3228c-0.082,-1.1176,-0.428,-2.1241,-1.0284,-2.9917c-0.7233,-1.0453,-2.0871,-2.4873,-3.5041,-3.0646c0,0,-0.4197,-0.457,-0.6666,-0.5999c-0.6378,0.6824,-1.4933,1.2665,-2.2516,1.2665c-0.7626,0,-1.641,-0.6433,-2.2813,-1.3332c-0.2407,0.1382,-0.5999,0.5333,-0.5999,0.5333c-3.4137,1.4048,-4.4888,4.7402,-4.5991,6.1892l-0.0109,0.1435H15.481L15.4705,15.3228z" fill="#FFFFFF" opacity="0.5"/>
    <path d="M11.5175,4.2728c0,2.4251,-1.566,5.1865,-3.4977,5.1865S4.522,6.6979,4.522,4.2728S6.088,0.5421,8.0198,0.5421S11.5175,1.8477,11.5175,4.2728z" fill="#FFFFFF" opacity="0.5"/>
    <path d="M15.9696,15.3096c-0.1173,-1.4911,-0.8447,-4.1906,-4.3756,-5.6602c0.3481,-1.0273,-0.32,-1.5014,-1.3226,-0.8495c0,0,-0.177,0.7065,-2.2696,0.7404c-2.0925,0.0339,-2.1967,-0.7404,-2.1967,-0.7404c-1.138,-0.6693,-1.815,-0.1748,-1.3947,0.8597C0.901,11.1315,0.177,13.822,0.06,15.3096l-0.0338,0.4301c-0.011,0.1401,0.1042,0.2596,0.2503,0.2596h15.4767c0.1461,0,0.2613,-0.1195,0.2503,-0.2596L15.9696,15.3096z" fill="#6D6E71"/>
    <path d="M10.8666,1.2893c-0.7201,-0.702,-1.7311,-1.0886,-2.8468,-1.0886S5.8931,0.5874,5.173,1.2893c-0.7747,0.7552,-1.1842,1.8263,-1.1842,3.0976c0,1.2605,0.4149,2.6513,1.1098,3.7202c0.7934,1.2205,1.8308,1.8926,2.9213,1.8926s2.1279,-0.6722,2.9213,-1.8926c0.6949,-1.0689,1.1098,-2.4597,1.1098,-3.7202C12.0508,3.1156,11.6413,2.0445,10.8666,1.2893zM8.0198,8.9404c-1.5965,0,-2.9644,-2.5037,-2.9644,-4.5535c0,-0.1387,0.0505,-0.5449,0.1073,-0.6033c0.7457,-0.8009,1.97,-0.7893,2.8287,-0.7893c0.8587,0,2.1343,-0.0116,2.88,0.7893c0.0643,0.082,0.1129,0.4557,0.1129,0.6033C10.9842,6.4366,9.6163,8.9404,8.0198,8.9404z" fill="#6D6E71"/>
    <path d="M8.0295,0.0008c1.7168,0,3.1712,0.5035,3.8431,2.1588c1.0595,0,1.053,1.3363,0.0998,1.3363c-0.9045,0,-5.6594,-0.0533,-8.016,0.1045c-0.8293,-0.0064,-0.868,-1.4583,0.114,-1.4583C4.7164,0.4868,6.3756,0.0008,8.0295,0.0008z" fill="#6D6E71"/>
    <path d="M7.9578,3.9471c-1.7392,0,-3.4192,-0.2674,-3.4192,-0.2674l0.1654,2.573c0,0,1.6506,-0.174,3.27,-0.1746c1.7274,-0.0006,3.4305,0.1722,3.4305,0.1722V3.6797C11.4046,3.6797,9.651,3.9471,7.9578,3.9471zM6.2245,5.4386c-0.6537,0.0024,-0.8535,-0.8436,-0.8535,-0.8436s0.3276,0.0573,0.9812,0.0549c0.6537,-0.0024,1.2224,0.1967,1.2224,0.1967S6.8781,5.4362,6.2245,5.4386zM9.7782,5.4386c-0.6537,-0.0024,-1.3501,-0.592,-1.3501,-0.592s0.5688,-0.1991,1.2224,-0.1967c0.6537,0.0024,0.9812,-0.0549,0.9812,-0.0549S10.4318,5.441,9.7782,5.4386z" fill="#6D6E71"/>
  </g>
</svg>
