<?xml version="1.0" encoding="UTF-8"?>
<!DOCTYPE svg PUBLIC "-//W3C//DTD SVG 1.1//EN" "http://www.w3.org/Graphics/SVG/1.1/DTD/svg11.dtd">
<svg version="1.1" id="Layer_1" xmlns="http://www.w3.org/2000/svg" xmlns:xlink="http://www.w3.org/1999/xlink" x="0px" y="0px" width="16px" height="16px" viewBox="0 0 16 16" enable-background="new 0 0 16 16" xml:space="preserve">
  <g id="icon">
    <path d="M8.9333,8c0,0.5147,-0.4187,0.9333,-0.9333,0.9333S7.0667,8.5147,7.0667,8c0,-0.5147,0.4187,-0.9333,0.9333,-0.9333S8.9333,7.4853,8.9333,8zM16,4.1667v7.6667c0,1.1966,-0.97,2.1667,-2.1667,2.1667H2.1667C0.97,14,0,13.0299,0,11.8333V4.1667C0,2.97,0.97,2,2.1667,2h11.6667C15.03,2,16,2.97,16,4.1667zM4.2514,11.6168c-1.0273,-0.9635,-1.5931,-2.2691,-1.5931,-3.6764c0,-1.3461,0.5242,-2.6116,1.4761,-3.5635l-0.7556,-0.7556c-1.1537,1.1537,-1.789,2.6875,-1.789,4.3191c0,1.681,0.7037,3.305,1.9307,4.4558L4.2514,11.6168zM5.7361,10.0674c-0.5927,-0.5559,-0.9191,-1.3091,-0.9191,-2.1209c0,-0.7766,0.3024,-1.5066,0.8515,-2.0557l-0.7556,-0.7556c-0.7509,0.7509,-1.1645,1.7494,-1.1645,2.8113c0,1.0942,0.4581,2.1513,1.2567,2.9003L5.7361,10.0674zM9.8667,8c0,-1.0293,-0.8374,-1.8667,-1.8667,-1.8667S6.1333,6.9707,6.1333,8S6.9707,9.8667,8,9.8667S9.8667,9.0293,9.8667,8zM12.2413,7.9465c0,-1.062,-0.4135,-2.0604,-1.1645,-2.8113l-0.7556,0.7556c0.5491,0.5491,0.8515,1.2791,0.8515,2.0557c0,0.8118,-0.3264,1.565,-0.9191,2.1209l0.731,0.7794C11.7833,10.0978,12.2413,9.0407,12.2413,7.9465zM14.4,7.9404c0,-1.6315,-0.6353,-3.1654,-1.789,-4.3191l-0.7556,0.7556c0.9518,0.9518,1.4761,2.2174,1.4761,3.5635c0,1.4072,-0.5658,2.7129,-1.5931,3.6764l0.731,0.7794C13.6963,11.2455,14.4,9.6214,14.4,7.9404z" fill="#6D6E71"/>
    <path d="M8,9.8667c-1.0293,0,-1.8667,-0.8374,-1.8667,-1.8667S6.9707,6.1333,8,6.1333S9.8667,6.9707,9.8667,8S9.0293,9.8667,8,9.8667zM8,7.0667c-0.5147,0,-0.9333,0.4187,-0.9333,0.9333s0.4187,0.9333,0.9333,0.9333s0.9333,-0.4187,0.9333,-0.9333S8.5147,7.0667,8,7.0667zM12.4693,12.3962l-0.731,-0.7794c1.0273,-0.9635,1.5931,-2.2691,1.5931,-3.6764c0,-1.3461,-0.5242,-2.6116,-1.4761,-3.5635l0.7556,-0.7556C13.7647,4.775,14.4,6.3089,14.4,7.9404C14.4,9.6214,13.6963,11.2455,12.4693,12.3962zM10.9847,10.8468l-0.731,-0.7794c0.5927,-0.5559,0.9191,-1.3091,0.9191,-2.1209c0,-0.7766,-0.3024,-1.5066,-0.8515,-2.0557l0.7556,-0.7556c0.7509,0.7509,1.1645,1.7494,1.1645,2.8113C12.2413,9.0407,11.7833,10.0978,10.9847,10.8468zM3.5205,12.3962c-1.227,-1.1507,-1.9307,-2.7748,-1.9307,-4.4558c0,-1.6315,0.6353,-3.1654,1.789,-4.3191l0.7556,0.7556c-0.9518,0.9518,-1.4761,2.2174,-1.4761,3.5635c0,1.4072,0.5658,2.7129,1.5931,3.6764L3.5205,12.3962zM5.0051,10.8468c-0.7986,-0.749,-1.2567,-1.8061,-1.2567,-2.9003c0,-1.062,0.4135,-2.0604,1.1645,-2.8113l0.7556,0.7556c-0.5491,0.5491,-0.8515,1.2791,-0.8515,2.0557c0,0.8118,0.3264,1.565,0.9191,2.1209L5.0051,10.8468z" fill="#FFFFFF" opacity="0.5"/>
  </g>
</svg>
