<?xml version="1.0" encoding="UTF-8"?>
<!DOCTYPE svg PUBLIC "-//W3C//DTD SVG 1.1//EN" "http://www.w3.org/Graphics/SVG/1.1/DTD/svg11.dtd">
<svg version="1.1" id="Layer_1" xmlns="http://www.w3.org/2000/svg" xmlns:xlink="http://www.w3.org/1999/xlink" x="0px" y="0px" width="16px" height="16px" viewBox="0 0 16 16" enable-background="new 0 0 16 16" xml:space="preserve">
  <g id="icon">
    <path d="M9.8931,6.6291l-0.5475,-0.0325c-1.6877,-0.1,-3.3405,-0.9647,-4.051,-1.4598L4.9549,4.9l-0.3397,0.2368c-0.9209,0.6418,-2.5845,1.3723,-4.0607,1.4598l-0.5476,0.0325l-0.0065,0.5422c-0.0064,0.5304,0.093,1.5059,0.1881,2.1879c0.2337,1.6757,0.75,3.1256,1.4539,4.0827c1.0101,1.3743,2.0089,2.1712,3.1431,2.5078L4.9549,16l0.1695,-0.0503c1.1256,-0.3341,2.1213,-1.1309,3.1333,-2.5077c0.7039,-0.9572,1.2202,-2.4072,1.4539,-4.0828c0.0951,-0.6822,0.1946,-1.6578,0.1881,-2.188L9.8931,6.6291zM4.3357,12.5743l-2.1321,-2.0825l0.8034,-0.8033l1.3287,1.2978l3.0449,-2.9741l0.8034,0.8033L4.3357,12.5743z" fill="#52B250"/>
    <polygon points="2.2036,10.4918 3.0069,9.6884 4.3357,10.9862 7.3806,8.0122 8.184,8.8154 4.3357,12.5743" fill="#FFFFFF" stroke-linejoin="miter" opacity="0.5"/>
    <path d="M3,0v3h13V0H3zM11,2h-1V1h1V2zM13,2h-1V1h1V2zM15,2h-1V1h1V2z" fill="#6485C3"/>
    <path d="M4,4h0.3224l-0.3361,0.2343c-0.2701,0.1882,-0.6099,0.3809,-0.9863,0.5578V4H4zM5.9235,4.2343c0.2322,0.1618,0.6122,0.3855,1.0765,0.6003V4H5.5873L5.9235,4.2343zM15,4H8v1.2232c0.4506,0.1416,0.9314,0.2469,1.4106,0.2753l1.5699,0.0933l0.005,0.4083H14v1h-3.0023l0,0l0.0019,0.1578c0.0029,0.2395,-0.0116,0.5355,-0.0349,0.8422H14v1h-3.1336h0c-0.023,0.1954,-0.0458,0.3712,-0.0653,0.5112c-0.023,0.1648,-0.0486,0.3278,-0.0768,0.4888H14v1h-3.4904h-0.0003c-0.1865,0.7312,-0.4274,1.4062,-0.7156,2H16V4H15z" fill="#6D6E71"/>
    <path d="M10,1h1v1h-1V1zM14,1v1h1V1H14zM12,2h1V1h-1V2z" fill="#FFFFFF" opacity="0.5"/>
    <path d="M16,3v1H8v1.2232c-0.3589,-0.1128,-0.6972,-0.2484,-1,-0.3885V4H5.5873l-0.6325,-0.4409L4.3224,4H3V3H16z" fill="#FFFFFF" opacity="0.5"/>
    <path d="M10.7233,10H14v1h-3.4904C10.5919,10.677,10.6633,10.3431,10.7233,10zM10.9855,6l0.0122,1H14V6H10.9855zM10.8664,9H14V8h-3.0353C10.9389,8.3404,10.9024,8.6941,10.8664,9z" fill="#FFFFFF" opacity="0.5"/>
  </g>
</svg>
