<?xml version="1.0" encoding="UTF-8"?>
<!DOCTYPE svg PUBLIC "-//W3C//DTD SVG 1.1//EN" "http://www.w3.org/Graphics/SVG/1.1/DTD/svg11.dtd">
<svg version="1.1" id="Layer_1" xmlns="http://www.w3.org/2000/svg" xmlns:xlink="http://www.w3.org/1999/xlink" x="0px" y="0px" width="16px" height="16px" viewBox="0 0 16 16" enable-background="new 0 0 16 16" xml:space="preserve">
  <g id="icon">
    <path d="M14.4996,3.053C11.906,2.898,9.2876,1.5999,8.0072,0.7C6.7269,1.5999,4.094,2.898,1.5004,3.053c-0.0082,0.6855,0.1162,2.0297,0.2723,3.159c0.3289,2.3785,1.0419,4.4178,2.0076,5.7422c1.3495,1.8515,2.6779,2.9822,4.227,3.4458c1.5491,-0.4636,2.863,-1.5943,4.2125,-3.4458c0.9657,-1.3244,1.6787,-3.3636,2.0076,-5.7422C14.3835,5.0827,14.5078,3.7385,14.4996,3.053z" fill="#FFFFFF" opacity="0.5"/>
    <path d="M7.8375,15.9487c-1.6061,-0.4857,-3.0283,-1.6467,-4.4759,-3.6536C2.3531,10.8974,1.6119,8.7697,1.2744,6.304c-0.1385,-1.0119,-0.2833,-2.4562,-0.274,-3.2363l0.0066,-0.5563l0.5496,-0.0332C4.1115,2.3239,6.5996,0.9997,7.667,0.2415L8.0071,0l0.3402,0.2415C9.4151,1,11.9008,2.3246,14.4434,2.4782l0.5496,0.0332l0.0066,0.5564c0.0092,0.7801,-0.1356,2.2244,-0.274,3.2363c-0.3374,2.4657,-1.0787,4.5934,-2.0873,5.9911c-1.4503,2.0106,-2.868,3.1715,-4.4616,3.6535L8.0071,16L7.8375,15.9487zM2.1975,3.6201c0.0351,0.6908,0.1291,1.6448,0.2489,2.5201c0.3111,2.2737,0.9757,4.2094,1.8713,5.4506c1.2361,1.7136,2.4093,2.718,3.6896,3.1579c1.2828,-0.4391,2.4177,-1.4146,3.675,-3.1578c0.8957,-1.2412,1.5602,-3.1769,1.8713,-5.4506c0.1198,-0.8753,0.2138,-1.8294,0.2489,-2.5203c-2.2103,-0.2656,-4.4256,-1.284,-5.7954,-2.1703C6.6365,2.336,4.417,3.3545,2.1975,3.6201z" fill="#6485C3"/>
    <path d="M10.0325,11.0794H5.8376l0.0226,-1.1054c0.0094,-0.457,0.2216,-0.8967,0.5822,-1.2063l2.4987,-2.1455c0.0892,-0.1159,0.1753,-0.2586,0.1753,-0.4687c0,-0.4901,-0.5045,-0.8888,-1.1247,-0.8888c-0.5969,0,-1.1011,0.3833,-1.1238,0.8544l-0.9988,-0.0482c0.0489,-1.0128,0.9813,-1.8062,2.1227,-1.8062c1.1715,0,2.1247,0.8473,2.1247,1.8888c0,0.54,-0.2413,0.9031,-0.4228,1.1292l-0.029,0.0362L7.0938,9.5264c-0.1472,0.1264,-0.2303,0.2926,-0.2338,0.4681l-0.0018,0.0849h3.1742V11.0794z" fill="#6485C3"/>
  </g>
</svg>
