<?xml version="1.0" encoding="UTF-8"?>
<!DOCTYPE svg PUBLIC "-//W3C//DTD SVG 1.1//EN" "http://www.w3.org/Graphics/SVG/1.1/DTD/svg11.dtd">
<svg version="1.1" id="Layer_1" xmlns="http://www.w3.org/2000/svg" xmlns:xlink="http://www.w3.org/1999/xlink" x="0px" y="0px" width="16px" height="16px" viewBox="0 0 16 16" enable-background="new 0 0 16 16" xml:space="preserve">
  <g id="icon">
    <path d="M4.9549,16.0221l-0.1578,-0.047c-1.1345,-0.3374,-2.1349,-1.1379,-3.1483,-2.5193c-0.706,-0.962,-1.2242,-2.4211,-1.459,-4.1084c-0.0957,-0.6878,-0.1959,-1.6716,-0.1894,-2.2059l0.0061,-0.5057l0.5098,-0.0303c1.4991,-0.089,3.1878,-0.832,4.1225,-1.4847L4.9549,4.9l0.3162,0.2209c0.7211,0.5035,2.3988,1.3829,4.1127,1.4847l0.5098,0.0303l0.0061,0.5056c0.0065,0.534,-0.0937,1.5178,-0.1894,2.206c-0.2348,1.6872,-0.753,3.1463,-1.459,4.1084c-1.0152,1.3839,-2.0125,2.1844,-3.1385,2.5192L4.9549,16.0221z" fill="#6485C3"/>
    <path d="M3,0v3h13V0H3zM11,2h-1V1h1V2zM13,2h-1V1h1V2zM15,2h-1V1h1V2z" fill="#6485C3"/>
    <path d="M4,4h0.3224l-0.3361,0.2343c-0.2701,0.1882,-0.6099,0.3809,-0.9863,0.5578V4H4zM5.9235,4.2343c0.2322,0.1618,0.6122,0.3855,1.0765,0.6003V4H5.5873L5.9235,4.2343zM15,4H8v1.2232c0.4506,0.1416,0.9314,0.2469,1.4106,0.2753l1.5699,0.0933l0.005,0.4083H14v1h-3.0023l0,0l0.0019,0.1578c0.0029,0.2395,-0.0116,0.5355,-0.0349,0.8422H14v1h-3.1336h0c-0.023,0.1954,-0.0458,0.3712,-0.0653,0.5112c-0.023,0.1648,-0.0486,0.3278,-0.0768,0.4888H14v1h-3.4904h-0.0003c-0.1865,0.7312,-0.4274,1.4062,-0.7156,2H16V4H15z" fill="#6D6E71"/>
    <path d="M10,1h1v1h-1V1zM14,1v1h1V1H14zM12,2h1V1h-1V2z" fill="#FFFFFF" opacity="0.5"/>
    <path d="M16,3v1H8v1.2232c-0.3589,-0.1128,-0.6972,-0.2484,-1,-0.3885V4H5.5873l-0.6325,-0.4409L4.3224,4H3V3H16z" fill="#FFFFFF" opacity="0.5"/>
    <path d="M10.7233,10H14v1h-3.4904C10.5919,10.677,10.6633,10.3431,10.7233,10zM10.9855,6l0.0122,1H14V6H10.9855zM10.8664,9H14V8h-3.0353C10.9389,8.3404,10.9024,8.6941,10.8664,9z" fill="#FFFFFF" opacity="0.5"/>
  </g>
</svg>
