<?xml version="1.0" encoding="UTF-8"?>
<!DOCTYPE svg PUBLIC "-//W3C//DTD SVG 1.1//EN" "http://www.w3.org/Graphics/SVG/1.1/DTD/svg11.dtd">
<svg version="1.1" id="Layer_1" xmlns="http://www.w3.org/2000/svg" xmlns:xlink="http://www.w3.org/1999/xlink" x="0px" y="0px" width="16px" height="16px" viewBox="0 0 16 16" enable-background="new 0 0 16 16" xml:space="preserve">
  <g id="icon">
    <line x1="9.515" y1="8.5" x2="15.5" y2="8.5" fill="none" stroke="#EE3D3B" stroke-width="1" stroke-miterlimit="1"/>
    <line x1="12.508" y1="5.522" x2="12.508" y2="11.478" fill="none" stroke="#EE3D3B" stroke-width="1" stroke-miterlimit="1"/>
    <path d="M1.5,3.5v5h2.589c0.552,0,1.021,-0.077,1.405,-0.232c0.385,-0.154,0.698,-0.352,0.939,-0.594c0.242,-0.242,0.417,-0.542,0.525,-0.833c0.108,-0.291,0.163,-0.577,0.163,-0.856c0,-0.777,-0.255,-1.414,-0.765,-1.842C5.845,3.714,5.065,3.5,4.015,3.5H1.5zM4.405,13.5c0.496,0,0.941,-0.055,1.334,-0.164c0.393,-0.109,0.726,-0.272,0.999,-0.488c0.273,-0.216,0.48,-0.487,0.623,-0.812c0.143,-0.325,0.214,-0.668,0.214,-1.096c0,-0.377,-0.075,-0.686,-0.225,-0.991c-0.15,-0.305,-0.361,-0.566,-0.634,-0.782s-0.605,-0.381,-0.995,-0.496C5.33,8.557,4.896,8.5,4.42,8.5H1.5v5H4.405z" fill="none" stroke="#EE3D3B" stroke-width="1" stroke-miterlimit="1"/>
  </g>
</svg>
