<?xml version="1.0" encoding="UTF-8"?>
<!DOCTYPE svg PUBLIC "-//W3C//DTD SVG 1.1//EN" "http://www.w3.org/Graphics/SVG/1.1/DTD/svg11.dtd">
<svg version="1.1" id="Layer_1" xmlns="http://www.w3.org/2000/svg" xmlns:xlink="http://www.w3.org/1999/xlink" x="0px" y="0px" width="16px" height="16px" viewBox="0 0 16 16" enable-background="new 0 0 16 16" xml:space="preserve">
  <g id="icon">
    <path d="M6.1,13.4v0.276c0,0.274,0.143,0.502,0.4,0.554V15.5h2v-1.27c0.257,-0.052,0.4,-0.281,0.4,-0.554V13.4" fill="#FFFFFF" stroke="#383838" stroke-width="1" stroke-miterlimit="1"/>
    <path d="M9,2.063C9,1.394,8.328,0.55,7.5,0.55c-0.828,0,-1.5,0.844,-1.5,1.513" fill="none" stroke="#383838" stroke-width="1" stroke-miterlimit="1"/>
    <path d="M11.845,5.5h-8.69c-0.2,-0.898,-0.289,-1.634,0.255,-2.312c0.315,-0.392,0.802,-0.668,1.488,-0.842C5.549,2.18,6.4,2.1,7.5,2.1c1.1,0,1.951,0.08,2.602,0.246c0.687,0.174,1.174,0.45,1.488,0.842C12.134,3.866,12.045,4.602,11.845,5.5z" fill="#FFFFFF" stroke="#383838" stroke-width="1" stroke-miterlimit="1"/>
    <path d="M11.845,5.5h-8.69c0.038,0.161,0.08,0.325,0.123,0.49c0.163,0.635,0.332,1.157,0.332,1.841s-0.169,1.341,-0.332,1.977c-0.265,1.031,-0.516,1.905,0.132,2.666c0.315,0.37,0.802,0.63,1.488,0.795C5.549,13.424,6.4,13.5,7.5,13.5c1.1,0,1.951,-0.076,2.602,-0.232c0.687,-0.165,1.174,-0.425,1.488,-0.795c0.648,-0.761,0.397,-1.635,0.132,-2.666c-0.163,-0.635,-0.332,-1.293,-0.332,-1.977s0.169,-1.205,0.332,-1.841C11.765,5.825,11.807,5.661,11.845,5.5z" fill="#F3B8B8" stroke="#E42D2C" stroke-width="1" stroke-linecap="round" stroke-miterlimit="1"/>
    <path d="M6,11.5H5V8h1V11.5zM8,11.5H7V8h1V11.5zM10,11.5H9V8h1V11.5z" fill="#383838"/>
  </g>
</svg>
