<?xml version="1.0" encoding="UTF-8"?>
<!DOCTYPE svg PUBLIC "-//W3C//DTD SVG 1.1//EN" "http://www.w3.org/Graphics/SVG/1.1/DTD/svg11.dtd">
<svg version="1.1" id="Layer_1" xmlns="http://www.w3.org/2000/svg" xmlns:xlink="http://www.w3.org/1999/xlink" x="0px" y="0px" width="16px" height="16px" viewBox="0 0 16 16" enable-background="new 0 0 16 16" xml:space="preserve">
  <g id="icon">
    <path d="M4.4763,5.4583c-2.3545,0,-4.0026,0.5141,-4.0026,1.1688v7.1366c0,0.982,1.6482,1.778,4.0026,1.778s4.05,-0.796,4.05,-1.778V6.6271C8.5263,5.9724,6.8308,5.4583,4.4763,5.4583z" fill="#FFFFFF" opacity="0.5"/>
    <path d="M4.4767,16c-1.1306,0,-2.0714,-0.1773,-2.9608,-0.5582C0.5384,15.0233,0,14.4117,0,13.7196V6.6794C0,5.4412,2.3125,5,4.4767,5C6.6634,5,9,5.4412,9,6.6794v7.0402c0,0.692,-0.5384,1.3037,-1.516,1.7222C6.6069,15.8174,5.6232,16,4.4767,16zM1.0798,13.7196c0,0.238,0.3602,0.542,0.9176,0.7745c0.7519,0.3135,1.5165,0.4533,2.4793,0.4533c0.9681,0,1.7943,-0.1483,2.5258,-0.4533c0.5574,-0.2324,0.9176,-0.5364,0.9176,-0.7745V6.7205c-0.1238,-0.1505,-1.0275,-0.6678,-3.4434,-0.6678c-2.4123,0,-3.2732,0.5099,-3.3969,0.6673V13.7196z" fill="#EEAC55"/>
    <path d="M4.5,8.4542c-1.8081,0,-3.998,-0.4296,-4.2191,-1.6403l-0.0216,-0.118h0.7162l0.0299,0.0368c0.259,0.318,1.3226,0.9195,3.4946,0.9195c2.0493,0,3.241,-0.5499,3.542,-0.9195l0.0299,-0.0368h0.7162l-0.0215,0.118C8.5454,8.0246,6.33,8.4542,4.5,8.4542z" fill="#EEAC55"/>
    <path d="M15.8042,4.269h-1.3078c-0.1844,-0.7864,-0.5883,-1.4936,-1.1719,-2.052l0.6699,-1.1529c0.0554,-0.0954,0.0235,-0.2183,-0.071,-0.2735l-1.3081,-0.764c-0.093,-0.0543,-0.2116,-0.0225,-0.2662,0.0713l-0.6716,1.1558c-0.379,-0.1141,-0.7729,-0.1719,-1.1717,-0.1719c-0.3988,0,-0.7927,0.0578,-1.1717,0.1719L8.6988,0.1037c-0.0533,-0.0965,-0.1739,-0.1302,-0.2683,-0.0751l-1.3081,0.764c-0.0931,0.0544,-0.1257,0.1747,-0.0731,0.2698l0.6378,1.1545c-0.5506,0.5268,-0.9386,1.1869,-1.136,1.9201c0.4419,0.0635,0.8867,0.1543,1.3025,0.2829c0.2684,0.083,0.5029,0.1767,0.7096,0.2777c0.232,-0.8701,1.0138,-1.5129,1.9426,-1.5129c1.1108,0,2.0145,0.9181,2.0145,2.0466c0,1.1285,-0.9037,2.0466,-2.0145,2.0466c-0.175,0,-0.3439,-0.0251,-0.5059,-0.0679v2.1374c0.1673,0.0209,0.3359,0.0336,0.5058,0.0336c0.3988,0,0.7927,-0.0578,1.1717,-0.1719L12.35,10.4c0.0538,0.0953,0.1736,0.1282,0.2674,0.0735l1.3081,-0.7641c0.0937,-0.0547,0.126,-0.1762,0.0722,-0.2714l-0.6733,-1.1923c0.5836,-0.5584,0.9875,-1.2656,1.1719,-2.052h1.3078c0.1081,0,0.1958,-0.089,0.1958,-0.1989V4.4679C16,4.3581,15.9124,4.269,15.8042,4.269z" fill="#7B7B7B"/>
  </g>
</svg>
