<?xml version="1.0" encoding="UTF-8"?>
<!DOCTYPE svg PUBLIC "-//W3C//DTD SVG 1.1//EN" "http://www.w3.org/Graphics/SVG/1.1/DTD/svg11.dtd">
<svg version="1.1" id="Layer_1" xmlns="http://www.w3.org/2000/svg" xmlns:xlink="http://www.w3.org/1999/xlink" x="0px" y="0px" width="16px" height="16px" viewBox="0 0 16 16" enable-background="new 0 0 16 16" xml:space="preserve">
  <g id="icon">
    <rect x="4.5" y="4" width="7" height="10.5" fill="#FFFFFF" opacity="0.5"/>
    <polygon points="11,4 11,14 5,14 5,4 4,4 4,15 12,15 12,4" fill="#6D6E71" stroke-linejoin="miter"/>
    <rect x="4" y="1" width="8" height="3" fill="#6485C3"/>
    <polygon points="0.6685,5.0323 0,5.6924 2.2798,8.0013 0,10.3102 0.6685,10.9703 3.6,8.0013" fill="#6485C3" stroke-linejoin="miter"/>
    <polygon points="15.3315,5.0323 16,5.6924 13.7202,8.0013 16,10.3102 15.3315,10.9703 12.4,8.0013" fill="#6485C3" stroke-linejoin="miter"/>
    <polygon points="11,8 11,7 8.5,7 8.5,4 7.5,4 7.5,7 5,7 5,8 7.5,8 7.5,10 5,10 5,11 7.5,11 7.5,14 8.5,14 8.5,11 11,11 11,10 8.5,10 8.5,8" fill="#B7B7B7" stroke-linejoin="miter"/>
  </g>
</svg>
