<?xml version="1.0" encoding="UTF-8"?>
<!DOCTYPE svg PUBLIC "-//W3C//DTD SVG 1.1//EN" "http://www.w3.org/Graphics/SVG/1.1/DTD/svg11.dtd">
<svg version="1.1" id="Layer_1" xmlns="http://www.w3.org/2000/svg" xmlns:xlink="http://www.w3.org/1999/xlink" x="0px" y="0px" width="16px" height="16px" viewBox="0 0 16 16" enable-background="new 0 0 16 16" xml:space="preserve">
  <g id="icon">
    <polygon points="10.5625,4.3277 11.8906,5.641 9.5689,8 15.9953,8 15.9953,10 9.6474,10 11.8906,12.2796 10.5625,13.5929 5.9924,8.9603" fill="#52B250" stroke-linejoin="miter"/>
    <path d="M4.3068,8.9603l6.2453,-6.3306l0.8941,0.8841V2.3c0,-0.9522,-2.3873,-1.7,-5.4462,-1.7S0.5538,1.3478,0.5538,2.3v10.5138C0.5538,14.2421,2.9412,15.4,6,15.4c1.5445,0,2.9172,-0.2955,3.8984,-0.7717L4.3068,8.9603z" fill="#FFFFFF" opacity="0.5"/>
    <path d="M9.4522,14.176C8.6145,14.5389,7.4395,14.8,6,14.8c-3.0311,0,-4.8923,-1.1568,-4.8923,-1.9862V3.7289C2.3598,4.4273,4.5054,4.6483,6,4.6483c0.8226,0,1.8421,-0.0676,2.8016,-0.2442l1.7505,-1.7744L12,4.0615V2.3C12,0.6023,8.7678,0,6,0S0,0.6023,0,2.3v10.5138c0,0.9457,0.677,1.7901,1.9063,2.3777C2.9972,15.7128,4.451,16,6,16s3.0028,-0.2872,4.0937,-0.8085c0.0826,-0.0395,0.1623,-0.0803,0.2398,-0.1221L9.4522,14.176zM6,1.2c3.203,0,4.7659,0.7789,4.8922,1.1116C10.7752,2.6395,9.1681,3.4483,6,3.4483s-4.7752,-0.8088,-4.8922,-1.1366C1.2341,1.9789,2.797,1.2,6,1.2z" fill="#EEAC55"/>
  </g>
</svg>
