<?xml version="1.0" encoding="UTF-8"?>
<!DOCTYPE svg PUBLIC "-//W3C//DTD SVG 1.1//EN" "http://www.w3.org/Graphics/SVG/1.1/DTD/svg11.dtd">
<svg version="1.1" id="Layer_1" xmlns="http://www.w3.org/2000/svg" xmlns:xlink="http://www.w3.org/1999/xlink" x="0px" y="0px" width="16px" height="16px" viewBox="0 0 16 16" enable-background="new 0 0 16 16" xml:space="preserve">
  <g id="icon">
    <polygon points="11.4251,4.3277 10.0971,5.641 12.4188,8 5.9924,8 5.9924,10 12.3403,10 10.0971,12.2796 11.4251,13.5929 15.9953,8.9603" fill="#CB525D" stroke-linejoin="miter"/>
    <path d="M0,2.1789C0,0.9755,2.6863,0,6,0s6,0.9755,6,2.1789c0,0.245,-0.113,0.4803,-0.3184,0.7001l-0.246,-0.2493l-1.0452,1.0336C9.2951,4.0903,7.7339,4.3577,6,4.3577C2.6863,4.3577,0,3.3822,0,2.1789zM8.4022,12.2912L9.476,11.2H4.7924V6.8h4.7617l-1.152,-1.1706l0.4958,-0.4902C8.0101,5.3083,7.0223,5.3984,6,5.3984c-1.6724,0,-3.2537,-0.2398,-4.4527,-0.6752C0.825,4.4608,0.3319,4.1624,0,3.8589v8.9675c0,0.95,0.7082,1.7949,1.9941,2.3792C3.1216,15.7179,4.3702,16,5.9684,16s2.9099,-0.2821,4.0375,-0.7943c0.3213,-0.146,0.6066,-0.3083,0.8537,-0.4844L8.4022,12.2912z" fill="#EEAC55"/>
  </g>
</svg>
