<?xml version="1.0" encoding="UTF-8"?>
<!DOCTYPE svg PUBLIC "-//W3C//DTD SVG 1.1//EN" "http://www.w3.org/Graphics/SVG/1.1/DTD/svg11.dtd">
<svg version="1.1" id="Layer_1" xmlns="http://www.w3.org/2000/svg" xmlns:xlink="http://www.w3.org/1999/xlink" x="0px" y="0px" width="16px" height="16px" viewBox="0 0 16 16" enable-background="new 0 0 16 16" xml:space="preserve">
  <g id="icon">
    <rect x="0.5" y="9" width="8" height="6.5" fill="#FFFFFF" opacity="0.5"/>
    <polygon points="8,9 8,15 1,15 1,9 0,9 0,16 9,16 9,9" fill="#6D6E71" stroke-linejoin="miter"/>
    <rect y="6" width="9" height="3" fill="#52B4C0"/>
    <polygon points="11,5.0125 11,1 4,1 4,5 10,5 10,15 15,15 15,5" fill="#FFFFFF" stroke-linejoin="miter" opacity="0.4"/>
    <polygon points="11.3625,0 3,0 3,5 4,5 4,1 11,1 11,5.0125 15,5 15,15 10,15 10,16 16,16 16,4.65" fill="#6D6E71" stroke-linejoin="miter"/>
    <path d="M4,11H2v-1h2V11zM7,10H5v1h2V10zM7,12H5v1h2V12zM4,12H2v1h2V12z" fill="#B7B7B7"/>
  </g>
</svg>
