<?xml version="1.0" encoding="UTF-8"?>
<!DOCTYPE svg PUBLIC "-//W3C//DTD SVG 1.1//EN" "http://www.w3.org/Graphics/SVG/1.1/DTD/svg11.dtd">
<svg version="1.1" id="Layer_1" xmlns="http://www.w3.org/2000/svg" xmlns:xlink="http://www.w3.org/1999/xlink" x="0px" y="0px" width="16px" height="16px" viewBox="0 0 16 16" enable-background="new 0 0 16 16" xml:space="preserve">
  <g id="icon">
    <polygon points="5,3.5 4,3.5 4,1 8.5,1 8.5,2 5,2" fill="#CB525D" stroke-linejoin="miter"/>
    <polygon points="8.5,15 4,15 4,12.5 5,12.5 5,14 8.5,14" fill="#CB525D" stroke-linejoin="miter"/>
    <rect x="0.5" y="6" width="6" height="5.5" fill="#FFFFFF" opacity="0.5"/>
    <polygon points="6,6 6,11 1,11 1,6 0,6 0,12 7,12 7,6" fill="#6D6E71" stroke-linejoin="miter"/>
    <rect y="4" width="7" height="2" fill="#6485C3"/>
    <polygon points="3,11 4,11 4,9 6,9 6,8 4,8 4,6 3,6 3,8 1,8 1,9 3,9" fill="#B7B7B7" stroke-linejoin="miter"/>
    <rect x="9.5" y="2" width="6" height="3.5" fill="#FFFFFF" opacity="0.5"/>
    <polygon points="15,2 15,5 10,5 10,2 9,2 9,6 16,6 16,2" fill="#6D6E71" stroke-linejoin="miter"/>
    <rect x="9" width="7" height="2" fill="#6485C3"/>
    <polygon points="12,5 13,5 13,4 15,4 15,3 13,3 13,2 12,2 12,3 10,3 10,4 12,4" fill="#B7B7B7" stroke-linejoin="miter"/>
    <rect x="9.5" y="12" width="6" height="3.5" fill="#FFFFFF" opacity="0.5"/>
    <polygon points="15,12 15,15 10,15 10,12 9,12 9,16 16,16 16,12" fill="#6D6E71" stroke-linejoin="miter"/>
    <rect x="9" y="10" width="7" height="2" fill="#6485C3"/>
    <polygon points="12,15 13,15 13,14 15,14 15,13 13,13 13,12 12,12 12,13 10,13 10,14 12,14" fill="#B7B7B7" stroke-linejoin="miter"/>
  </g>
</svg>
