<?xml version="1.0" encoding="UTF-8"?>
<!DOCTYPE svg PUBLIC "-//W3C//DTD SVG 1.1//EN" "http://www.w3.org/Graphics/SVG/1.1/DTD/svg11.dtd">
<svg version="1.1" id="Layer_1" xmlns="http://www.w3.org/2000/svg" xmlns:xlink="http://www.w3.org/1999/xlink" x="0px" y="0px" width="16px" height="16px" viewBox="0 0 16 16" enable-background="new 0 0 16 16" xml:space="preserve">
  <g id="icon">
    <path d="M13.5,13.5H4.5V8.5h6l0.017,-4h2.5c0.267,0,0.483,0.216,0.483,0.483V13.5z" fill="#FFFFFF"/>
    <path d="M7.384,8.5H5c-0.276,0,-0.5,0.224,-0.5,0.5v3.4" fill="none" stroke="#383838" stroke-width="1" stroke-miterlimit="1"/>
    <line x1="10.5" y1="13.5" x2="7.5" y2="13.5" fill="none" stroke="#383838" stroke-width="1" stroke-miterlimit="1"/>
    <line x1="4.5" y1="10" x2="2" y2="12" fill="none" stroke="#383838" stroke-width="1" stroke-miterlimit="1"/>
    <line x1="4.5" y1="13.5" x2="2" y2="13.5" fill="none" stroke="#383838" stroke-width="1" stroke-miterlimit="1"/>
    <path d="M0.4,9c2.836,3.391,2.597,5.437,0,6.45" fill="none" stroke="#0964B0" stroke-width="1" stroke-miterlimit="1"/>
    <path d="M13,10.5c1.381,0,2.5,1.119,2.5,2.5s-1.119,2.5,-2.5,2.5s-2.5,-1.119,-2.5,-2.5S11.619,10.5,13,10.5zM4,13.75c0,0.966,0.784,1.75,1.75,1.75S7.5,14.716,7.5,13.75S6.716,12,5.75,12S4,12.784,4,13.75z" fill="#C8C6C4" stroke="#383838" stroke-width="1" stroke-miterlimit="1"/>
    <path d="M10.5,4.5h2.506c0.273,0,0.494,0.221,0.494,0.494V10.5" fill="none" stroke="#383838" stroke-width="1" stroke-miterlimit="1"/>
    <path d="M10.5,4.5v3.113c0,0.49,-0.397,0.888,-0.888,0.888H7.4l1.1,-4H10.5z" fill="#92CBEE" stroke="#0964B0" stroke-width="1" stroke-miterlimit="1" stroke-linejoin="round"/>
  </g>
</svg>
