<?xml version="1.0" encoding="UTF-8"?>
<!DOCTYPE svg PUBLIC "-//W3C//DTD SVG 1.1//EN" "http://www.w3.org/Graphics/SVG/1.1/DTD/svg11.dtd">
<svg version="1.1" id="Layer_1" xmlns="http://www.w3.org/2000/svg" xmlns:xlink="http://www.w3.org/1999/xlink" x="0px" y="0px" width="16px" height="16px" viewBox="0 0 16 16" enable-background="new 0 0 16 16" xml:space="preserve">
  <g id="icon">
    <path d="M12.958,2.5H3.042C1.638,2.5,0.5,3.614,0.5,4.989v0.023C0.5,6.386,1.638,7.5,3.042,7.5h9.915C14.362,7.5,15.5,6.386,15.5,5.011v-0.023C15.5,3.614,14.362,2.5,12.958,2.5zM3.7,6c-0.552,0,-1,-0.448,-1,-1s0.448,-1,1,-1s1,0.448,1,1S4.252,6,3.7,6zM12.3,6c-0.552,0,-1,-0.448,-1,-1s0.448,-1,1,-1c0.552,0,1,0.448,1,1S12.852,6,12.3,6z" fill="#FFFFFF" stroke="#228BCB" stroke-width="1" stroke-miterlimit="1"/>
    <path d="M12.958,9.5H3.042C1.638,9.5,0.5,10.614,0.5,11.989v0.023C0.5,13.386,1.638,14.5,3.042,14.5h9.915c1.404,0,2.542,-1.114,2.542,-2.489v-0.023C15.5,10.614,14.362,9.5,12.958,9.5zM3.7,13c-0.552,0,-1,-0.448,-1,-1s0.448,-1,1,-1s1,0.448,1,1S4.252,13,3.7,13zM12.3,13c-0.552,0,-1,-0.448,-1,-1s0.448,-1,1,-1c0.552,0,1,0.448,1,1S12.852,13,12.3,13z" fill="#FFFFFF" stroke="#228BCB" stroke-width="1" stroke-miterlimit="1"/>
  </g>
</svg>
