<?xml version="1.0" encoding="UTF-8"?>
<!DOCTYPE svg PUBLIC "-//W3C//DTD SVG 1.1//EN" "http://www.w3.org/Graphics/SVG/1.1/DTD/svg11.dtd">
<svg version="1.1" id="Layer_1" xmlns="http://www.w3.org/2000/svg" xmlns:xlink="http://www.w3.org/1999/xlink" x="0px" y="0px" width="16px" height="16px" viewBox="0 0 16 16" enable-background="new 0 0 16 16" xml:space="preserve">
  <g id="icon">
    <polygon points="4.5,0.6 4.5,8 10,8 10,10.5 15.5,10.5 15.5,0.6" fill="#FFFFFF" stroke-linejoin="miter"/>
    <path d="M16,0v11h-6v-1h5V1H5v7H4V0H16z" fill="#383838"/>
    <path d="M13,6v1H8V6H13zM10,2H6v1h4V2z" fill="#238BCB"/>
    <path d="M13,5H6V4h7V5zM10,8v1h4V8H10z" fill="#EF3E3B"/>
    <rect x="0.5" y="9.4" width="8" height="6.1" fill="#FFFFFF"/>
    <path d="M0,9v7h9V9H0zM1,10h4v2H1V10zM3,15H1v-2h2V15zM8,15H4v-2h4V15zM8,12H6v-2h2V12z" fill="#383838"/>
  </g>
</svg>
