<?xml version="1.0" encoding="UTF-8"?>
<!DOCTYPE svg PUBLIC "-//W3C//DTD SVG 1.1//EN" "http://www.w3.org/Graphics/SVG/1.1/DTD/svg11.dtd">
<svg version="1.1" id="Layer_1" xmlns="http://www.w3.org/2000/svg" xmlns:xlink="http://www.w3.org/1999/xlink" x="0px" y="0px" width="32px" height="32px" viewBox="0 0 32 32" enable-background="new 0 0 32 32" xml:space="preserve">
  <g id="icon">
    <polygon points="26.5,30.5 5.5,30.5 5.5,2.5 19.5,2.5 26.5,9.5" fill="#FFFFFF" stroke="#383838" stroke-width="1" stroke-miterlimit="5" stroke-linejoin="miter"/>
    <polyline points="26.5,9.5 19.5,9.5 19.5,2.5" fill="none" stroke="#383838" stroke-width="1" stroke-miterlimit="5" stroke-linejoin="miter"/>
    <path d="M13.5,16.5H8.5v-3h5V16.5zM18.5,13.5h-5v3h5V13.5zM23.5,13.5h-5v3h5V13.5zM13.5,19.5H8.5v-3h5V19.5zM18.5,16.5h-5v3h5V16.5zM23.5,16.5h-5v3h5V16.5zM13.5,22.5H8.5v-3h5V22.5zM18.5,19.5h-5v3h5V19.5zM23.5,19.5h-5v3h5V19.5zM13.5,25.5H8.5v-3h5V25.5zM18.5,22.5h-5v3h5V22.5zM23.5,22.5h-5v3h5V22.5z" fill="none" stroke="#787979" stroke-width="1" stroke-miterlimit="5" opacity="0.6"/>
    <path d="M13,16H9v-2h4V16zM18,14h-4v2h4V14zM23,14h-4v2h4V14zM13,17H9v2h4V17zM13,20H9v2h4V20zM13,23H9v2h4V23z" fill="#78797A" opacity="0.15"/>
  </g>
</svg>
