<?xml version="1.0" encoding="UTF-8"?>
<!DOCTYPE svg PUBLIC "-//W3C//DTD SVG 1.1//EN" "http://www.w3.org/Graphics/SVG/1.1/DTD/svg11.dtd">
<svg version="1.1" id="Layer_1" xmlns="http://www.w3.org/2000/svg" xmlns:xlink="http://www.w3.org/1999/xlink" x="0px" y="0px" width="32px" height="32px" viewBox="0 0 32 32" enable-background="new 0 0 32 32" xml:space="preserve">
  <g id="icon">
    <path d="M16,1.5c8.008,0,14.5,6.492,14.5,14.5s-6.492,14.5,-14.5,14.5S1.5,24.008,1.5,16S7.992,1.5,16,1.5z" fill="#F7DA8E" stroke="#E57428" stroke-width="1" stroke-linecap="round" stroke-miterlimit="5"/>
    <path d="M22.687,20.787c-0.125,0.128,-0.254,0.253,-0.388,0.375C20.637,22.67,18.451,23.5,16.143,23.5c0,0,0,0,-0.001,0c-0.046,0,-0.093,0,-0.139,-0.001c-2.691,-0.039,-5.083,-1.083,-6.709,-2.726" fill="none" stroke="#383838" stroke-width="1.2" stroke-linecap="round" stroke-miterlimit="5" opacity="0.8"/>
    <path d="M11.313,13.817c-0.066,0.059,-0.167,0.057,-0.23,-0.004C9.195,12.008,8.338,11.424,8.338,10.2c0.018,-1.457,1.836,-2.212,2.768,-0.926c0.044,0.06,0.134,0.06,0.177,-0.001c0.913,-1.289,2.761,-0.531,2.779,0.926C14.063,11.297,11.853,13.336,11.313,13.817zM23.6,10.2c-0.018,-1.457,-1.867,-2.215,-2.779,-0.926c-0.043,0.061,-0.134,0.061,-0.177,0.001c-0.932,-1.287,-2.75,-0.532,-2.768,0.926c0,1.224,0.857,1.808,2.745,3.613c0.064,0.061,0.165,0.063,0.23,0.004C21.39,13.336,23.6,11.297,23.6,10.2z" fill="#EF3E3B"/>
  </g>
</svg>
