<?xml version="1.0" encoding="UTF-8"?>
<!DOCTYPE svg PUBLIC "-//W3C//DTD SVG 1.1//EN" "http://www.w3.org/Graphics/SVG/1.1/DTD/svg11.dtd">
<svg version="1.1" id="Layer_1" xmlns="http://www.w3.org/2000/svg" xmlns:xlink="http://www.w3.org/1999/xlink" x="0px" y="0px" width="32px" height="32px" viewBox="0 0 32 32" enable-background="new 0 0 32 32" xml:space="preserve">
  <g id="icon">
    <path d="M1.5,8.5h22v22H5.075L1.5,27.006V8.5z" fill="#DFBCD9" stroke="#A0519F" stroke-width="1" stroke-linecap="round" stroke-miterlimit="5"/>
    <rect x="7.5" y="22.5" width="10" height="8" fill="#FFFFFF" stroke="#A0519F" stroke-width="1" stroke-miterlimit="5"/>
    <line x1="10.5" y1="28" x2="10.5" y2="25" fill="none" stroke="#787979" stroke-width="1" stroke-miterlimit="5"/>
    <rect x="4.5" y="8.5" width="16" height="9" fill="#FFFFFF" stroke="#A0519F" stroke-width="1" stroke-miterlimit="5"/>
    <polygon points="8.5,1.5 8.5,7 25,7 25,23.5 30.5,23.5 30.5,1.5" fill="#DFBCD9" stroke-linejoin="miter"/>
    <polygon points="11.5,1.5 11.5,7 25,7 25,10.5 27.5,10.5 27.5,1.5" fill="#FFFFFF" stroke-linejoin="miter"/>
    <polygon points="28,1 11,1 8,1 8,7 9,7 9,2 11,2 11,7 12,7 12,2 27,2 27,10 25,10 25,11 28,11 28,2 30,2 30,23 25,23 25,24 31,24 31,1" fill="#A0519F" stroke-linejoin="miter"/>
  </g>
</svg>
