<?xml version="1.0" encoding="UTF-8"?>
<!DOCTYPE svg PUBLIC "-//W3C//DTD SVG 1.1//EN" "http://www.w3.org/Graphics/SVG/1.1/DTD/svg11.dtd">
<svg version="1.1" id="Layer_1" xmlns="http://www.w3.org/2000/svg" xmlns:xlink="http://www.w3.org/1999/xlink" x="0px" y="0px" width="16px" height="16px" viewBox="0 0 16 16" enable-background="new 0 0 16 16" xml:space="preserve">
  <g id="icon">
    <path d="M8,0.5C3.8579,0.5,0.5,3.8579,0.5,8c0,4.1421,3.3579,7.5,7.5,7.5s7.5,-3.3579,7.5,-7.5C15.5,3.8579,12.1421,0.5,8,0.5zM8,9.5c-0.8284,0,-1.5,-0.6716,-1.5,-1.5c0,-0.8284,0.6716,-1.5,1.5,-1.5s1.5,0.6716,1.5,1.5C9.5,8.8284,8.8284,9.5,8,9.5z" fill="#FFFFFF" opacity="0.5"/>
    <path d="M8,16c-4.4112,0,-8,-3.5888,-8,-8S3.5888,0,8,0s8,3.5888,8,8S12.4112,16,8,16zM8,1.1852c-3.7577,0,-6.8148,3.0571,-6.8148,6.8148S4.2423,14.8148,8,14.8148S14.8148,11.7577,14.8148,8S11.7577,1.1852,8,1.1852z" fill="#6D6E71"/>
    <path d="M5.66,13.4595c-1.411,-0.6055,-2.5202,-1.7165,-3.1233,-3.1281l0.9196,-0.3929c0.5016,1.1742,1.4243,2.0983,2.598,2.602L5.66,13.4595zM13.4633,5.6689c-0.6017,-1.4083,-1.7078,-2.5178,-3.1146,-3.1242l-0.3959,0.9184c1.1703,0.5044,2.0904,1.4273,2.5908,2.5987L13.4633,5.6689zM6.6729,10.812c-0.65,-0.3074,-1.1772,-0.8346,-1.4846,-1.4845l-0.904,0.4274c0.406,0.8585,1.1024,1.555,1.961,1.9611L6.6729,10.812zM11.7153,6.2457c-0.4059,-0.8581,-1.1022,-1.5542,-1.9606,-1.9603l-0.4276,0.904c0.6499,0.3074,1.1771,0.8344,1.4843,1.4839L11.7153,6.2457z" fill="#6485C3" opacity="0.8"/>
    <path d="M8,10c-1.1028,0,-2,-0.8972,-2,-2s0.8972,-2,2,-2s2,0.8972,2,2S9.1028,10,8,10zM8,7c-0.5514,0,-1,0.4486,-1,1s0.4486,1,1,1s1,-0.4486,1,-1S8.5514,7,8,7z" fill="#7B7B7B"/>
  </g>
</svg>
