<?xml version="1.0" encoding="UTF-8"?>
<!DOCTYPE svg PUBLIC "-//W3C//DTD SVG 1.1//EN" "http://www.w3.org/Graphics/SVG/1.1/DTD/svg11.dtd">
<svg version="1.1" id="Layer_1" xmlns="http://www.w3.org/2000/svg" xmlns:xlink="http://www.w3.org/1999/xlink" x="0px" y="0px" width="16px" height="16px" viewBox="0 0 16 16" enable-background="new 0 0 16 16" xml:space="preserve">
  <g id="icon">
    <path d="M0.5552,3.8983c-0.0521,-0.2891,-0.0814,-0.6036,-0.0232,-0.8854c0.0487,-0.2359,0.2183,-0.4586,0.3727,-0.6562c0.492,-0.6299,1.0845,-1.1563,1.7183,-1.6325c0.3155,-0.2371,0.6775,-0.2905,1.0445,-0.1393c0.1292,0.0532,0.2624,0.1527,0.3412,0.2682c0.669,0.9806,1.3214,1.973,1.9887,2.9549c0.2547,0.3749,0.2018,0.7507,0.0286,1.1185c-0.212,0.4501,-0.4462,0.8902,-0.6907,1.3229c-0.0873,0.1544,-0.0732,0.2571,0.036,0.3777c0.2306,0.2548,0.458,0.5127,0.6856,0.7705L3.9078,9.5466c-0.8365,-0.9267,-1.6116,-1.9035,-2.2619,-2.9792C1.1444,5.7381,0.7294,4.865,0.5552,3.8983zM14.992,11.726c-0.9656,-0.5977,-1.9083,-1.2339,-2.862,-1.8517c-0.0663,-0.043,-0.1409,-0.0777,-0.2163,-0.1005c-0.3513,-0.1063,-0.6683,0.0107,-0.97,0.1765c-0.3022,0.1661,-0.5941,0.3514,-0.8931,0.5237c-0.4919,0.2834,-0.4997,0.2902,-0.9313,-0.0863c-0.1711,-0.1493,-0.3433,-0.2976,-0.5154,-0.4461l-2.1424,2.1424c0.4648,0.4112,0.9429,0.8074,1.4366,1.1855c0.9106,0.6974,1.8723,1.3108,2.9307,1.7528c0.6406,0.2675,1.3039,0.4402,2.0236,0.4778c0.2862,-0.0106,0.5316,-0.1746,0.7634,-0.3629c0.6588,-0.5355,1.1807,-1.2002,1.6613,-1.8949C15.6222,12.7435,15.5954,12.0995,14.992,11.726z" fill="#FFFFFF" opacity="0.5"/>
    <path d="M0.0631,3.987c-0.0772,-0.4285,-0.0838,-0.7701,-0.0208,-1.0752c0.0739,-0.3579,0.3018,-0.6497,0.4682,-0.8628c0.468,-0.5992,1.0438,-1.1471,1.812,-1.7245C2.7851,-0.023,3.3305,-0.0947,3.858,0.1226c0.2278,0.0939,0.4333,0.2574,0.5638,0.4486c0.3547,0.5199,0.7099,1.0508,1.0534,1.5642C5.786,2.6,6.0968,3.0646,6.411,3.527c0.3241,0.4769,0.3467,1.0194,0.0674,1.6125c-0.1828,0.3881,-0.3954,0.7979,-0.6482,1.2498c0.177,0.1969,0.35,0.3929,0.5231,0.5889c0.0191,0.0216,0.0386,0.0435,0.0577,0.0652l-0.7084,0.7084c-0.0329,-0.0372,-0.0663,-0.0748,-0.099,-0.1118c-0.2001,-0.2267,-0.4003,-0.4534,-0.6031,-0.6774c-0.2551,-0.2819,-0.2908,-0.6226,-0.1006,-0.9592c0.267,-0.4724,0.4875,-0.8944,0.6738,-1.29c0.1476,-0.3134,0.1108,-0.4762,0.0102,-0.6243c-0.3155,-0.4643,-0.6277,-0.9309,-0.9399,-1.3975c-0.3423,-0.5116,-0.6962,-1.0406,-1.0483,-1.5567c-0.0154,-0.0226,-0.0653,-0.0656,-0.1188,-0.0877C3.4008,1.0158,3.3279,1,3.257,1c-0.1142,0,-0.2234,0.041,-0.3337,0.1239C2.2272,1.647,1.711,2.1365,1.2987,2.6645c-0.0997,0.1277,-0.2504,0.3207,-0.2771,0.4497c-0.0358,0.1734,-0.0274,0.4009,0.0257,0.6955c0.1403,0.779,0.4665,1.573,1.0264,2.4991c0.5664,0.9369,1.269,1.8639,2.1878,2.8841l-0.708,0.708C2.5744,8.8175,1.825,7.8301,1.218,6.8261C0.5928,5.7922,0.2259,4.89,0.0631,3.987zM15.9697,12.2783c-0.0838,-0.402,-0.331,-0.74,-0.7146,-0.9774c-0.647,-0.4005,-1.2971,-0.8272,-1.9258,-1.24c-0.3088,-0.2027,-0.6175,-0.4054,-0.9273,-0.6061c-0.1052,-0.0682,-0.2239,-0.1233,-0.3434,-0.1595c-0.5496,-0.1663,-1.013,0.0285,-1.3557,0.2168c-0.188,0.1034,-0.3712,0.2132,-0.5483,0.3194c-0.1175,0.0704,-0.2349,0.1409,-0.3588,0.2123c-0.0639,0.0368,-0.133,0.0766,-0.186,0.1049c-0.05,-0.0405,-0.1136,-0.0959,-0.1617,-0.1379c-0.1301,-0.1135,-0.2609,-0.2263,-0.3917,-0.3392c-0.0324,-0.028,-0.0653,-0.0565,-0.0978,-0.0846l-0.7089,0.7089c0.0512,0.0442,0.1027,0.0891,0.1536,0.1329c0.1294,0.1117,0.2588,0.2232,0.3875,0.3355c0.588,0.5131,0.8272,0.5361,1.5096,0.1428c0.1236,-0.0712,0.2461,-0.1446,0.3685,-0.2181c0.1771,-0.1062,0.3443,-0.2064,0.5158,-0.3007c0.2643,-0.1452,0.4279,-0.1834,0.5843,-0.1361c0.0304,0.0092,0.062,0.0239,0.0893,0.0416c0.3082,0.1997,0.6153,0.4013,0.9223,0.6028c0.6342,0.4164,1.29,0.8469,1.9483,1.2543c0.1469,0.091,0.2351,0.2024,0.2619,0.3313c0.03,0.1439,-0.0154,0.3171,-0.1248,0.4751c-0.4057,0.5863,-0.9089,1.2577,-1.5655,1.7914c-0.1434,0.1166,-0.3078,0.2362,-0.4493,0.2501c-0.6086,-0.035,-1.2074,-0.1785,-1.8296,-0.4383c-0.91,-0.3801,-1.8322,-0.9323,-2.8193,-1.6884c-0.467,-0.3576,-0.9278,-0.738,-1.3864,-1.1427l-0.7081,0.7081c0.4913,0.4354,0.9852,0.8446,1.4865,1.2285c1.0564,0.8091,2.0514,1.4035,3.042,1.8172c0.7392,0.3087,1.4556,0.4774,2.1902,0.5157l0.0223,0.0012l0.0222,-0.0008c0.4398,-0.0162,0.7828,-0.249,1.0604,-0.4746c0.7584,-0.6165,1.3375,-1.3918,1.7571,-1.9984C15.9568,13.1387,16.0567,12.6954,15.9697,12.2783z" fill="#6D6E71"/>
    <path d="M0.9243,15.9243l-0.8485,-0.8485l13,-13l0.8485,0.8485L0.9243,15.9243z" fill="#CB525D"/>
  </g>
</svg>
