<?xml version="1.0" encoding="UTF-8"?>
<!DOCTYPE svg PUBLIC "-//W3C//DTD SVG 1.1//EN" "http://www.w3.org/Graphics/SVG/1.1/DTD/svg11.dtd">
<svg version="1.1" id="Layer_1" xmlns="http://www.w3.org/2000/svg" xmlns:xlink="http://www.w3.org/1999/xlink" x="0px" y="0px" width="24px" height="24px" viewBox="0 0 24 24" enable-background="new 0 0 24 24" xml:space="preserve">
  <g id="icon">
    <path d="M7,12v-1h1v1H7zM16,12v-1h-1v1H16zM10,12v-1H9v1H10zM14,12v-1h-1v1H14zM20,12v-1h-1v1H20zM22,12v-1h-1v1H22zM18,12v-1h-1v1H18zM12,14v-1h-1v1H12zM12,16v-1h-1v1H12zM12,18v-1h-1v1H12zM12,20v-1h-1v1H12zM12,10V9h-1v1H12zM11,4h1V3h-1V4zM12,8V7h-1v1H12zM12,6V5h-1v1H12zM22,14v-1h-1v1H22zM22,16v-1h-1v1H22zM22,18v-1h-1v1H22zM22,20v-1h-1v1H22zM22,10V9h-1v1H22zM21,4h1V3h-1V4zM22,8V7h-1v1H22zM22,6V5h-1v1H22zM12,12v-1h-1v1H12zM7,22v-1h1v1H7zM16,22v-1h-1v1H16zM10,22v-1H9v1H10zM14,22v-1h-1v1H14zM20,22v-1h-1v1H20zM22,22v-1h-1v1H22zM18,22v-1h-1v1H18zM12,22v-1h-1v1H12zM7,2V1h1v1H7zM16,2V1h-1v1H16zM10,2V1H9v1H10zM14,2V1h-1v1H14zM20,2V1h-1v1H20zM22,2V1h-1v1H22zM18,2V1h-1v1H18zM12,2V1h-1v1H12z" fill="#6D6E71"/>
    <rect x="-8.5" y="10.5" width="21" height="2" fill="#7B7B7B" transform="matrix(6.12323e-17 -1 1 6.12323e-17 -9.5 13.5)"/>
    <rect x="-5.5" y="10.5" width="21" height="2" fill="#7B7B7B" transform="matrix(6.12323e-17 -1 1 6.12323e-17 -6.5 16.5)"/>
  </g>
</svg>
