<?xml version="1.0" encoding="UTF-8"?>
<!DOCTYPE svg PUBLIC "-//W3C//DTD SVG 1.1//EN" "http://www.w3.org/Graphics/SVG/1.1/DTD/svg11.dtd">
<svg version="1.1" id="Layer_1" xmlns="http://www.w3.org/2000/svg" xmlns:xlink="http://www.w3.org/1999/xlink" x="0px" y="0px" width="24px" height="24px" viewBox="0 0 24 24" enable-background="new 0 0 24 24" xml:space="preserve">
  <g id="icon">
    <path d="M8,13.7h15.2v7.5H8V13.7zM18,2.7v7.5h5.2V2.7H18z" fill="#FFFFFF" opacity="0.5"/>
    <path d="M8,13h16v9H8v-2h14v-5H8V13zM18,2v2h4v5h-4v2h6V2H18z" fill="#EEAC55"/>
    <path d="M0.7,21.2v-7.5h5.5v7.5H0.7zM0.7,10.2V2.7h15.5v7.5H0.7z" fill="#FFFFFF" opacity="0.5"/>
    <path d="M0,22v-9h8v9H0zM6,20v-5H2v5H6zM0,11V2h18v9H0zM16,9V4H2v5H16z" fill="#6485C3"/>
  </g>
</svg>
