<?xml version="1.0" encoding="UTF-8"?>
<!DOCTYPE svg PUBLIC "-//W3C//DTD SVG 1.1//EN" "http://www.w3.org/Graphics/SVG/1.1/DTD/svg11.dtd">
<svg version="1.1" id="Layer_1" xmlns="http://www.w3.org/2000/svg" xmlns:xlink="http://www.w3.org/1999/xlink" x="0px" y="0px" width="24px" height="24px" viewBox="0 0 24 24" enable-background="new 0 0 24 24" xml:space="preserve">
  <g id="icon">
    <path d="M10.9858,13.4852V2.9336l-0.8108,0.0269c-2.6631,0.0881,-5.1773,1.1842,-7.0795,3.0863c-1.9946,1.9946,-3.093,4.6333,-3.093,7.43c0,2.7969,1.0985,5.4356,3.093,7.43C5.0901,22.9015,7.7288,24,10.5257,24c2.5102,0,4.9467,-0.904,6.8606,-2.5452l0.695,-0.5958L10.9858,13.4852z" fill="#6485C3"/>
    <path d="M21.0121,4.2513c-1.9158,-1.9829,-4.4751,-3.1251,-7.2063,-3.2161L13.5,1.025v11.5193L20.3465,19.7l0.5683,-0.5727C22.8178,17.2099,24,14.1987,24,11.2687C24,8.6275,23.0226,6.3322,21.0121,4.2513z" fill="#EEAC55"/>
  </g>
</svg>
