<?xml version="1.0" encoding="UTF-8"?>
<!DOCTYPE svg PUBLIC "-//W3C//DTD SVG 1.1//EN" "http://www.w3.org/Graphics/SVG/1.1/DTD/svg11.dtd">
<svg version="1.1" id="Layer_1" xmlns="http://www.w3.org/2000/svg" xmlns:xlink="http://www.w3.org/1999/xlink" x="0px" y="0px" width="24px" height="24px" viewBox="0 0 24 24" enable-background="new 0 0 24 24" xml:space="preserve">
  <g id="icon">
    <path d="M12.6072,17.8601L22.8576,7.5925c0.4672,-0.4679,0.4672,-1.2265,0,-1.6944L18.068,1.1009c-0.4672,-0.4679,-1.2246,-0.4679,-1.6917,0L6.1259,11.3685" fill="#FFFFFF" opacity="0.5"/>
    <path d="M13.0572,17.4101l-5.482,5.489c-0.4672,0.4679,-1.2246,0.4679,-1.6917,0l-4.7896,-4.7971c-0.4672,-0.4679,-0.4672,-1.2265,0,-1.6944l5.482,-5.489" fill="#FFFFFF" opacity="0.5"/>
    <path d="M6.7294,24c-0.52,0,-1.009,-0.2027,-1.3767,-0.5709L0.5631,18.6319c-0.7581,-0.7594,-0.7581,-1.9949,0.7501,-3.5043l4.4319,-4.439l1.0616,1.0598l-4.432,4.439c-0.9248,0.925,-0.9248,1.2097,-0.7501,1.3846l4.7896,4.7971c0.1682,0.1687,0.4617,0.1688,0.6302,0l5.1819,-5.189l1.0616,1.0598l-5.182,5.189C7.7383,23.7972,7.2495,24,6.7294,24z" fill="#CB525D"/>
    <rect x="10.5177" y="22.5" width="13.4437" height="1.5" fill="#6D6E71"/>
    <path d="M23.3883,5.3681L18.5987,0.571C18.2311,0.2028,17.7422,0,17.2221,0s-1.009,0.2028,-1.3767,0.571L5.6578,10.7749l7.5471,7.5471L23.3882,8.1224C24.1464,7.363,24.1464,6.1275,23.3883,5.3681zM22.3267,7.0626l-9.1227,9.1372l-5.4258,-5.4258l9.1287,-9.1433c0.1685,-0.1688,0.4619,-0.1688,0.6302,0l4.7896,4.7971C22.5015,6.6029,22.5015,6.8876,22.3267,7.0626z" fill="#6485C3"/>
  </g>
</svg>
