<?xml version="1.0" encoding="UTF-8"?>
<!DOCTYPE svg PUBLIC "-//W3C//DTD SVG 1.1//EN" "http://www.w3.org/Graphics/SVG/1.1/DTD/svg11.dtd">
<svg version="1.1" id="Layer_1" xmlns="http://www.w3.org/2000/svg" xmlns:xlink="http://www.w3.org/1999/xlink" x="0px" y="0px" width="24px" height="24px" viewBox="0 0 24 24" enable-background="new 0 0 24 24" xml:space="preserve">
  <g id="icon">
    <polygon points="10.5,13 2,13 2,2 8,2 8,5.025 11,5 11,10.5 13,10.5 13,8.7381 13,4.5 8.525,0 0,0 0,15 10.5,15" fill="#7B7B7B" stroke-linejoin="miter"/>
    <polygon points="10.5,10.5 11,10.5 11,9.0069 11,5 8,5.025 8,2 2,2 2,13 9.3521,13 10.5,13" fill="#FFFFFF" stroke-linejoin="miter" opacity="0.5"/>
    <path d="M5.039,23.0111l1.8186,-1.806H3.6977c-1.5577,0,-2.825,-1.2673,-2.825,-2.825v-2.375h1.3v2.375c0,0.8409,0.6841,1.525,1.525,1.525h3.2375L5.089,18.0716l0.9162,-0.9222l3.3896,3.3668l-3.4395,3.4169L5.039,23.0111z" fill="#CB525D"/>
    <path d="M3,6v5h7V6H3zM9,7v1H7V7H9zM6,7v1H4V7H6zM4,10V9h2v1H4zM7,10V9h2v1H7z" fill="#BAD2EE"/>
    <rect x="12.75" y="12.75" width="10.5" height="10.5" fill="#FFFFFF" opacity="0.5"/>
    <path d="M24,24H12V12h12V24zM13.5,22.5h9v-9h-9V22.5z" fill="#7B7B7B"/>
    <path d="M19.5,16.275c0,-0.932,-0.7555,-1.6875,-1.6875,-1.6875s-1.6875,0.7555,-1.6875,1.6875s0.7555,1.6875,1.6875,1.6875c0.0634,0,0.1259,-0.0042,0.1875,-0.011v1.1257c0,0.5544,-0.3434,1.0228,-0.75,1.0228H16.8v1.5h0.45c1.2406,0,2.25,-1.1317,2.25,-2.5228V16.65h-0.0433C19.4842,16.5292,19.5,16.4041,19.5,16.275z" fill="#7B7B7B"/>
  </g>
</svg>
