<?xml version="1.0" encoding="UTF-8"?>
<!DOCTYPE svg PUBLIC "-//W3C//DTD SVG 1.1//EN" "http://www.w3.org/Graphics/SVG/1.1/DTD/svg11.dtd">
<svg version="1.1" id="Layer_1" xmlns="http://www.w3.org/2000/svg" xmlns:xlink="http://www.w3.org/1999/xlink" x="0px" y="0px" width="24px" height="24px" viewBox="0 0 24 24" enable-background="new 0 0 24 24" xml:space="preserve">
  <g id="icon">
    <path d="M11,9v15h13V13.5l-4.475,-4.5H11zM22,22h-9V11h6v3.025l3,-0.025V22z" fill="#7B7B7B"/>
    <polygon points="22,22 13,22 13,11 19,11 19,14.025 22,14" fill="#FFFFFF" stroke-linejoin="miter" opacity="0.5"/>
    <path d="M20,15h-2h-1h-2h-1v1v1v1v1v1h1h2h1h2h1v-1v-1v-1v-1v-1H20zM15,16h2v1h-2V16zM15,19v-1h2v1H15zM20,19h-2v-1h2V19zM20,17h-2v-1h2V17z" fill="#BAD2EE"/>
    <path d="M22.1757,3.4743l-2.006,2.0186V2.833c0,-1.5577,-1.2673,-2.825,-2.825,-2.825h-2.475v1.3h2.475c0.8409,0,1.525,0.6841,1.525,1.525v2.7375l-1.9334,-1.9461l-0.9222,0.9162l3.4668,3.4896l3.6169,-3.6395L22.1757,3.4743z" fill="#52B250"/>
    <polygon points="10,11.4033 6.8402,7 11,1.2032 9.1827,0 5.5,5.1322 1.8173,0 0,1.2032 4.1598,7 0,12.7968 1.8173,14 5.5,8.8678 9.1827,14 10,13.4589" fill="#52B250" stroke-linejoin="miter"/>
  </g>
</svg>
