<?xml version="1.0" encoding="UTF-8"?>
<!DOCTYPE svg PUBLIC "-//W3C//DTD SVG 1.1//EN" "http://www.w3.org/Graphics/SVG/1.1/DTD/svg11.dtd">
<svg version="1.1" id="Layer_1" xmlns="http://www.w3.org/2000/svg" xmlns:xlink="http://www.w3.org/1999/xlink" x="0px" y="0px" width="24px" height="24px" viewBox="0 0 24 24" enable-background="new 0 0 24 24" xml:space="preserve">
  <g id="icon">
    <path d="M17.9667,1.8167l0.7922,2.3375l1.6335,-0.5132l-0.5132,1.6335l2.3375,0.7922l-2.3375,0.7922l0.5132,1.6335l-1.6335,-0.5132l-0.7922,2.3375l-0.7922,-2.3375l-1.6335,0.5132l0.5132,-1.6335l-2.3375,-0.7922l2.3375,-0.7922L15.541,3.641l1.6335,0.5132L17.9667,1.8167z" fill="#FFFFFF" opacity="0.5"/>
    <path d="M19.3415,17.9327l-1.2959,4.6649c-0.0661,0.2378,-0.2826,0.4023,-0.5293,0.4023H0.3675c-0.1753,0,-0.3175,-0.1421,-0.3175,-0.3175v-2.7773l7.363,-8.0179L0.44,3.7026V1.3175C0.44,1.1421,0.5822,1,0.7575,1h11.7526l0.9251,2.9447L13.272,4H4.7988l6.5646,7.6623c0.1477,0.1724,0.1431,0.4279,-0.0106,0.595L4.2268,20h11.2749l0.761,-2.9165c0.0527,-0.2021,0.2608,-0.3219,0.462,-0.2659l2.3566,0.6547C19.2803,17.5275,19.3968,17.7337,19.3415,17.9327z" fill="#7B7B7B"/>
    <path d="M17.9666,12.1861l-1.1721,-3.4586l-2.1705,0.6819l0.682,-2.1706l-3.4587,-1.1721l3.4586,-1.1721L14.624,2.724l2.1705,0.6819l1.1721,-3.3586l1.1721,3.3587l2.1706,-0.682l-0.6819,2.1705l3.3586,1.1721l-3.3587,1.1721l0.682,2.1706l-2.1706,-0.682L17.9666,12.1861zM17.5545,7.2308l0.4121,1.2164l0.4123,-1.2163l1.0964,0.3445l-0.3445,-1.0964l1.2163,-0.4123l-1.2164,-0.4121l0.3445,-1.0965l-1.0964,0.3445l-0.4123,-1.2163l-0.4121,1.2164L16.458,4.558l0.3445,1.0965l-1.2164,0.4121l1.2163,0.4123l-0.3445,1.0964L17.5545,7.2308z" fill="#EEAC55"/>
  </g>
</svg>
