<?xml version="1.0" encoding="UTF-8"?>
<!DOCTYPE svg PUBLIC "-//W3C//DTD SVG 1.1//EN" "http://www.w3.org/Graphics/SVG/1.1/DTD/svg11.dtd">
<svg version="1.1" id="Layer_1" xmlns="http://www.w3.org/2000/svg" xmlns:xlink="http://www.w3.org/1999/xlink" x="0px" y="0px" width="16px" height="16px" viewBox="0 0 16 16" enable-background="new 0 0 16 16" xml:space="preserve">
  <g id="icon">
    <path d="M15.5,2.224C15.5,1.272,12.814,0.5,9.5,0.5s-6,0.772,-6,1.724c0,0.035,0.005,0.069,0.012,0.103H3.5v9.586C3.5,13.342,6.186,14.5,9.5,14.5s6,-1.158,6,-2.586V2.328h-0.012C15.495,2.293,15.5,2.259,15.5,2.224z" fill="#FFFFFF"/>
    <path d="M16,2.224C16,0.696,12.631,0,9.5,0S3,0.696,3,2.224c0,0.021,0.003,0.041,0.004,0.061C3.003,2.3,3,2.313,3,2.328v3.681c0.284,-0.38,0.621,-0.718,1,-1.003V3.484c0.506,0.269,1.174,0.479,1.927,0.633C6.274,4.041,6.634,4,7.003,4c0.732,0,1.427,0.159,2.054,0.443c0.148,0.003,0.296,0.005,0.443,0.005c2.082,0,4.268,-0.308,5.5,-0.964v8.429c0,0.985,-2.352,2.086,-5.5,2.086c-0.555,0,-1.084,-0.035,-1.58,-0.096c-0.297,0.055,-0.603,0.086,-0.916,0.086c-0.816,0,-1.6,-0.193,-2.307,-0.564l-0.389,0.389C5.474,14.545,7.33,15,9.5,15c3.706,0,6.5,-1.327,6.5,-3.086V2.328c0,-0.014,-0.003,-0.028,-0.004,-0.042C15.997,2.265,16,2.245,16,2.224zM13.605,2.963c-1.09,0.313,-2.547,0.486,-4.105,0.486s-3.015,-0.172,-4.105,-0.486C4.243,2.631,4,2.28,4,2.224s0.243,-0.407,1.395,-0.739C6.485,1.172,7.943,1,9.5,1s3.015,0.172,4.105,0.486c1.153,0.331,1.395,0.683,1.395,0.739S14.757,2.631,13.605,2.963z" fill="#E57428"/>
    <path d="M7.003,12.489c-1.931,0,-3.497,-1.565,-3.497,-3.495S5.072,5.5,7.003,5.5S10.5,7.065,10.5,8.995S8.934,12.489,7.003,12.489zM0.4,15.6l4.108,-4.108" fill="#FFFFFF" stroke="#228BCB" stroke-width="1" stroke-miterlimit="1"/>
  </g>
</svg>
