<?xml version="1.0" encoding="UTF-8"?>
<!DOCTYPE svg PUBLIC "-//W3C//DTD SVG 1.1//EN" "http://www.w3.org/Graphics/SVG/1.1/DTD/svg11.dtd">
<svg version="1.1" id="Layer_1" xmlns="http://www.w3.org/2000/svg" xmlns:xlink="http://www.w3.org/1999/xlink" x="0px" y="0px" width="16px" height="16px" viewBox="0 0 16 16" enable-background="new 0 0 16 16" xml:space="preserve">
  <g id="icon">
    <path d="M0.375,5.908c0.034,0.036,0.081,0.082,0.141,0.137c0.06,0.056,0.131,0.115,0.215,0.178c0.084,0.063,0.185,0.122,0.304,0.178c0.119,0.056,0.256,0.102,0.41,0.137c0.154,0.036,0.329,0.054,0.526,0.054c0.289,0,0.547,-0.044,0.772,-0.133c0.225,-0.089,0.416,-0.208,0.573,-0.358c0.157,-0.15,0.276,-0.325,0.358,-0.526c0.082,-0.2,0.123,-0.413,0.123,-0.639c0,-0.189,-0.031,-0.352,-0.092,-0.489c-0.061,-0.137,-0.144,-0.255,-0.249,-0.354c-0.105,-0.099,-0.226,-0.183,-0.365,-0.253c-0.139,-0.07,-0.287,-0.133,-0.445,-0.189c-0.158,-0.056,-0.319,-0.107,-0.484,-0.154c-0.164,-0.047,-0.325,-0.099,-0.484,-0.157c-0.158,-0.057,-0.307,-0.122,-0.446,-0.195c-0.139,-0.073,-0.26,-0.162,-0.365,-0.266c-0.105,-0.104,-0.187,-0.229,-0.249,-0.373c-0.061,-0.144,-0.092,-0.315,-0.092,-0.513c0,-0.192,0.037,-0.376,0.112,-0.551c0.075,-0.176,0.184,-0.331,0.327,-0.466c0.143,-0.134,0.32,-0.242,0.531,-0.322c0.21,-0.08,0.451,-0.12,0.723,-0.12c0.304,0,0.574,0.047,0.808,0.142c0.234,0.094,0.454,0.245,0.66,0.451M8.255,6.172c-0.149,0.093,-0.309,0.164,-0.48,0.212c-0.171,0.048,-0.352,0.072,-0.543,0.072c-0.319,0,-0.61,-0.068,-0.875,-0.203c-0.264,-0.136,-0.492,-0.33,-0.682,-0.583c-0.191,-0.253,-0.339,-0.561,-0.445,-0.922c-0.106,-0.361,-0.159,-0.769,-0.159,-1.224c0,-0.452,0.053,-0.859,0.159,-1.222c0.106,-0.363,0.254,-0.671,0.445,-0.926s0.418,-0.45,0.682,-0.587c0.264,-0.137,0.556,-0.205,0.875,-0.205c0.321,0,0.614,0.068,0.88,0.203c0.265,0.136,0.493,0.331,0.684,0.585c0.191,0.255,0.339,0.563,0.445,0.926c0.106,0.363,0.159,0.771,0.159,1.226c0,0.309,-0.025,0.597,-0.074,0.862c-0.049,0.266,-0.12,0.509,-0.212,0.729c-0.093,0.22,-0.205,0.416,-0.338,0.585c-0.133,0.17,-0.283,0.312,-0.45,0.427L8.255,6.172zM8.378,6.255l0.856,1.116M14.1,6.5h-3.1V0" fill="none" stroke="#228BCB" stroke-width="1" stroke-miterlimit="1"/>
    <path d="M4.358,11.64L7.927,15.2l7.613,-7.6" fill="none" stroke="#17AB4F" stroke-width="1.2" stroke-miterlimit="1"/>
  </g>
</svg>
