<?xml version="1.0" encoding="utf-8"?>
<!-- Generator: Adobe Illustrator 26.3.0, SVG Export Plug-In . SVG Version: 6.00 Build 0)  -->
<svg version="1.1" id="Layer_1" xmlns="http://www.w3.org/2000/svg" xmlns:xlink="http://www.w3.org/1999/xlink" x="0px" y="0px"
	 viewBox="0 0 16 16" style="enable-background:new 0 0 16 16;" xml:space="preserve">
<style type="text/css">
	.st0{fill:#FFFFFF;}
	.st1{fill:#6E6F72;}
	.st2{fill:#CC525E;}
	.st3{opacity:0.5;fill:#FFFFFF;enable-background:new    ;}
	.st4{fill:#6485C3;}
</style>
<g id="icon">
	<path class="st0" d="M4.5,0.5V3c0,0,0,0,0,0h0C6.7,3,7.9,4.1,8,6c1.3,0.1,3,0.8,3,3.4c0,0.7-0.1,1.4-0.4,2c0.6,0.3,1,0.7,1.3,1.2
		h3.5v-12H4.5z"/>
	<path class="st1" d="M16,0v13h-3.7c-0.2-0.3-0.5-0.7-0.8-1H15V1H5v2C4.9,3,4.7,3,4.5,3h0C4.4,3,4.2,3,4,3V0H16z"/>
	<path class="st1" d="M7.3,4H10v1H7.8C7.7,4.6,7.5,4.3,7.3,4z M8.1,6C8.7,6.1,9.4,6.3,10,6.8V6H8.1z M10,2H6v1h4V2z"/>
	<path class="st2" d="M11,10h3v1h-3V10z M11,7h3V6h-3V7z M11,9h3V8h-3V9z M11,2v1h3V2H11z M11,5h3V4h-3V5z"/>
	<path class="st3" d="M3.6,15.5c-0.1,0-0.1-0.1-0.1-0.1l0-0.2c0.1-0.7,0.4-2.1,2.3-2.8c0.4-0.2,0.6-0.5,0.4-0.8
		c-0.5-0.6-0.7-1.5-0.7-2.2c0-1.2,0.4-1.9,2-1.9h0c1.6,0,2,0.7,2,1.9c0,0.7-0.2,1.6-0.7,2.2c-0.2,0.3,0,0.6,0.4,0.8
		c1.8,0.7,2.2,2.1,2.3,2.8l0,0.2c0,0.1-0.1,0.1-0.1,0.1H3.6z M4.8,11.5c-0.3-0.6-0.5-1.4-0.5-2.1c0-2,1.1-2.7,2.2-3c0,0,0,0,0,0
		c0-1.2-0.4-1.9-2-1.9h0c-1.6,0-2,0.7-2,1.9c0,0.7,0.2,1.6,0.7,2.2c0.2,0.3,0,0.6-0.4,0.8c-1.9,0.7-2.2,2.1-2.3,2.8l0,0.2
		c0,0.1,0.1,0.1,0.1,0.1h2.8C3.7,12.2,4.2,11.8,4.8,11.5z"/>
	<path class="st4" d="M3.6,16c-0.2,0-0.4-0.1-0.5-0.2C3,15.7,3,15.5,3,15.3l0-0.2c0.1-0.9,0.5-2.4,2.6-3.2c0.1,0,0.1-0.1,0.1-0.1
		C5.2,11.1,5,10.3,5,9.4C5,8.3,5.2,7,7.5,7h0C9.7,7,10,8.3,10,9.4c0,0.9-0.3,1.8-0.7,2.4c0,0,0.1,0,0.1,0.1c2.1,0.8,2.5,2.4,2.6,3.2
		l0,0.2c0,0.2,0,0.4-0.2,0.5c-0.1,0.1-0.3,0.2-0.5,0.2C11.3,16,3.6,16,3.6,16z M10.9,14.9c-0.1-0.6-0.5-1.6-1.9-2.1
		c-0.4-0.2-0.7-0.5-0.8-0.8c-0.1-0.3,0-0.6,0.1-0.8l0,0c0.4-0.5,0.6-1.1,0.6-1.9C8.9,8.4,8.7,8,7.5,8h0C6.2,8,6,8.4,6,9.4
		c0,0.7,0.2,1.4,0.6,1.9l0,0c0.2,0.2,0.2,0.5,0.2,0.8c-0.1,0.3-0.4,0.7-0.8,0.8c-1.4,0.5-1.8,1.5-1.9,2.1L10.9,14.9L10.9,14.9z
		 M4,12H1.1c0.1-0.6,0.5-1.6,1.9-2.1c0.4-0.2,0.7-0.5,0.8-0.8c0.1-0.3,0-0.6-0.2-0.8l0,0C3.3,7.8,3.1,7.1,3.1,6.4
		c0-0.9,0.2-1.3,1.4-1.3h0C5.8,5.1,6,5.5,6,6.4c0,0,0,0.1,0,0.1C6.3,6.4,6.7,6.3,7,6.3C7,5.3,6.7,4,4.5,4h0C2.3,4,2,5.4,2,6.4
		c0,0.9,0.3,1.8,0.7,2.4c0,0-0.1,0-0.1,0.1C0.5,9.7,0.1,11.3,0,12.1l0,0.2c0,0.2,0,0.4,0.2,0.5C0.3,13,0.5,13,0.7,13H3
		C3.2,12.7,3.6,12.3,4,12z"/>
</g>
</svg>
