<?xml version="1.0" encoding="utf-8"?>
<!-- Generator: Adobe Illustrator 26.3.0, SVG Export Plug-In . SVG Version: 6.00 Build 0)  -->
<svg version="1.1" id="Layer_1" xmlns="http://www.w3.org/2000/svg" xmlns:xlink="http://www.w3.org/1999/xlink" x="0px" y="0px"
	 viewBox="0 0 16 16" style="enable-background:new 0 0 16 16;" xml:space="preserve">
<style type="text/css">
	.st0{opacity:0.5;fill:#FFFFFF;enable-background:new    ;}
	.st1{fill:#EEAC55;}
	.st2{fill:#6D6E71;}
	.st3{fill:#6485C3;}
</style>
<g id="icon">
	<path class="st0" d="M10.5,0.6l-5,2.3v0.6h1V4c2,0.2,3,1.3,3,3.4c0,1.1-0.3,2.2-0.8,3h5.8v-7h1V2.9L10.5,0.6z"/>
	<path class="st1" d="M9.5,7.5c0,0.9-0.2,1.7-0.5,2.5v0.7c0.2,0.1,0.4,0.2,0.6,0.3H12V5H9v0.3C9.4,5.9,9.5,6.6,9.5,7.5z"/>
	<path class="st2" d="M16,4V2.7l-5.5-2.6L5,2.7V4h0.8h0H6v0c0.4,0,0.7,0,1,0.1V4h7v6H9c-0.1,0.2-0.2,0.4-0.3,0.5
		C9,10.7,9.3,10.8,9.6,11H16v-1h-1V4H16z"/>
	<path class="st3" d="M11.1,16c0.1,0,0.2-0.1,0.2-0.2l0-0.3c-0.1-1-0.6-3.2-3.1-4.2c-0.6-0.2-0.9-0.7-0.6-1.1c0.7-0.8,1-1.9,1-2.9
		C8.5,6,8,5,5.8,5h0C3.5,5,3.1,6,3.1,7.5c0,1,0.3,2,1,2.9c0.3,0.4,0,0.8-0.6,1.1c-2.5,0.9-3,3.2-3.1,4.2l0,0.3
		c0,0.1,0.1,0.2,0.2,0.2H11.1z"/>
</g>
</svg>
