<?xml version="1.0" encoding="utf-8"?>
<!-- Generator: Adobe Illustrator 26.3.0, SVG Export Plug-In . SVG Version: 6.00 Build 0)  -->
<svg version="1.1" id="Layer_1" xmlns="http://www.w3.org/2000/svg" xmlns:xlink="http://www.w3.org/1999/xlink" x="0px" y="0px"
	 viewBox="0 0 16 16" style="enable-background:new 0 0 16 16;" xml:space="preserve">
<style type="text/css">
	.st0{fill:#FFFFFF;}
	.st1{fill:#6E6F72;}
	.st2{fill:#E52E2D;}
	.st3{fill:#EEAD56;}
	.st4{fill:#6485C3;}
</style>
<g id="icon">
	<path class="st0" d="M14.5,0.5h-9c-0.6,0-1,0.4-1,1V3v0c0.1,0,0.2,0,0.3,0h0C6.9,3,8,4,8,6c2,0.1,3,1.1,3,3.1c0,0.1,0,0.3,0,0.4
		h1.7h1.8c0.6,0,1-0.4,1-1v-7C15.5,0.9,15.1,0.5,14.5,0.5z"/>
	<path class="st1" d="M14.5,0h-9C4.7,0,4,0.7,4,1.5v1.6C4.2,3,4.5,3,4.8,3h0C4.9,3,4.9,3,5,3V1.5C5,1.2,5.2,1,5.5,1h9
		C14.8,1,15,1.2,15,1.5v7C15,8.8,14.8,9,14.5,9H11c0,0,0,0.1,0,0.1c0,0.3,0,0.6-0.1,0.9h3.5c0.8,0,1.5-0.7,1.5-1.5v-7
		C16,0.7,15.3,0,14.5,0z"/>
	<path class="st1" d="M4,2v1.1C4.2,3,4.5,3,4.8,3h0C6,3,6.9,3.3,7.4,4H16V2H4z"/>
	<path class="st2" d="M11.9,7.9c-0.3,0.2-0.6,0.3-0.9,0.3c-0.1-0.5-0.3-0.9-0.5-1.2c0.1,0.1,0.3,0.2,0.4,0.2c0.1,0,0.3,0,0.4-0.1
		C11.5,7,11.8,7,12,7.2C12.2,7.4,12.1,7.8,11.9,7.9z M10.4,6.9c-0.1-0.1-0.1-0.2-0.1-0.3c0-0.3,0.3-0.6,0.6-0.6c0.1,0,0.3,0,0.4,0.1
		C11.5,6.3,11.8,6.2,12,6c0.2-0.2,0.1-0.5-0.1-0.7c-0.3-0.2-0.6-0.3-1-0.3c-0.8,0-1.4,0.5-1.6,1.2C9.8,6.4,10.1,6.6,10.4,6.9z"/>
	<path class="st3" d="M12.4,5c-0.4,0-0.7,0.1-1,0.3c-0.4,0.3-0.6,0.8-0.6,1.3c0,0.5,0.2,1,0.6,1.3c0.3,0.2,0.6,0.3,1,0.3
		c0.9,0,1.6-0.7,1.6-1.6C14,5.7,13.3,5,12.4,5z M12.4,7.2c-0.1,0-0.3,0-0.4-0.1c-0.2-0.1-0.2-0.3-0.2-0.5c0-0.2,0.1-0.4,0.2-0.5l0,0
		C12.2,6,12.3,6,12.4,6C12.8,6,13,6.3,13,6.6C13,7,12.8,7.2,12.4,7.2z"/>
	<path class="st4" d="M3.4,16c-0.1,0-0.1-0.1-0.1-0.1l0-0.2c0.1-0.8,0.5-2.3,2.6-3.1c0.5-0.2,0.7-0.6,0.5-0.9
		c-0.6-0.7-0.8-1.6-0.8-2.5C5.6,7.8,6,7,7.8,7h0C9.6,7,10,7.8,10,9.1c0,0.8-0.2,1.8-0.8,2.5c-0.2,0.3,0,0.7,0.5,0.9
		c2.1,0.8,2.5,2.3,2.5,3.1l0,0.2c0,0.1-0.1,0.1-0.1,0.1H3.4z M0.3,12.9c0,0.1,0.1,0.1,0.1,0.1h3.2c0.4-0.5,1-0.9,1.8-1.2
		C5,11,4.7,10.1,4.7,9.1c0-1.7,0.8-2.7,2.3-2.9c0,0,0-0.1,0-0.1C7,4.8,6.6,4,4.8,4h0C3,4,2.6,4.8,2.6,6.1c0,0.8,0.2,1.8,0.8,2.5
		c0.2,0.3,0,0.7-0.5,0.9c-2.1,0.8-2.5,2.3-2.6,3.1L0.3,12.9z"/>
</g>
</svg>
