<?xml version="1.0" encoding="utf-8"?>
<!-- Generator: Adobe Illustrator 26.3.0, SVG Export Plug-In . SVG Version: 6.00 Build 0)  -->
<svg version="1.1" id="Layer_1" xmlns="http://www.w3.org/2000/svg" xmlns:xlink="http://www.w3.org/1999/xlink" x="0px" y="0px"
	 viewBox="0 0 16 16" style="enable-background:new 0 0 16 16;" xml:space="preserve">
<style type="text/css">
	.st0{fill:#FFFFFF;}
	.st1{fill:#6D6E71;}
	.st2{fill:#EEAD56;}
</style>
<g id="icon">
	<polygon class="st0" points="3,8.8 8.1,15.5 13.2,8.9 11.2,6.3 4.9,6.3 	"/>
	<path class="st1" d="M11.4,6H4.7L2.4,8.9l5.7,7l5.7-7L11.4,6z M11.4,7.3l1,1.3h-1.6L11.4,7.3z M10.7,6.8l-0.6,1.2L8.9,6.8H10.7z
		 M9.4,8.6H6.7l1.4-1.5L9.4,8.6z M7.2,6.8L6,8.1L5.4,6.8C5.4,6.8,7.2,6.8,7.2,6.8z M4.7,7.3l0.6,1.3H3.7L4.7,7.3z M3.7,9.4h1.9
		l1.4,4L3.7,9.4z M6.4,9.4h3.3l-1.6,4.8L6.4,9.4z M10.5,9.4h1.9l-3.3,4L10.5,9.4z"/>
	<path class="st2" d="M8.5,0.5v2.4c0,0.3-0.2,0.5-0.5,0.5S7.5,3.2,7.5,2.9V0.5C7.5,0.2,7.8,0,8,0S8.5,0.2,8.5,0.5z M11.5,0.8
		c-0.3-0.1-0.5,0-0.6,0.3L10,3.4c-0.1,0.3,0,0.5,0.3,0.6c0.1,0,0.1,0,0.2,0c0.2,0,0.4-0.1,0.5-0.3l0.8-2.3
		C11.9,1.2,11.7,0.9,11.5,0.8z M14.8,2.6c-0.2-0.2-0.5-0.1-0.7,0.1l-1.6,1.9c-0.2,0.2-0.1,0.5,0.1,0.7c0.1,0.1,0.2,0.1,0.3,0.1
		c0.1,0,0.3-0.1,0.4-0.2l1.6-1.9C15,3.1,15,2.8,14.8,2.6z M5.3,1.1C5.2,0.8,4.9,0.7,4.6,0.8C4.4,0.9,4.2,1.2,4.3,1.4l0.8,2.3
		C5.2,4,5.4,4.1,5.6,4.1c0.1,0,0.1,0,0.2,0C6,4,6.2,3.7,6.1,3.4L5.3,1.1z M2.1,2.7C1.9,2.4,1.6,2.4,1.4,2.6C1.2,2.8,1.1,3.1,1.3,3.3
		l1.6,1.9C3,5.3,3.1,5.4,3.3,5.4c0.1,0,0.2,0,0.3-0.1c0.2-0.2,0.2-0.5,0.1-0.7L2.1,2.7z"/>
</g>
</svg>
