<?xml version="1.0" encoding="utf-8"?>
<!-- Generator: Adobe Illustrator 26.3.0, SVG Export Plug-In . SVG Version: 6.00 Build 0)  -->
<svg version="1.1" id="Layer_1" xmlns="http://www.w3.org/2000/svg" xmlns:xlink="http://www.w3.org/1999/xlink" x="0px" y="0px"
	 viewBox="0 0 16 16" style="enable-background:new 0 0 16 16;" xml:space="preserve">
<style type="text/css">
	.st0{fill:#EEAD56;}
</style>
<g id="icon">
	<polygon class="st0" points="11.8,10 4.2,10 6.5,6 9.5,6 	"/>
	<polygon class="st0" points="8.2,15 0.6,15 2.9,11 5.9,11 	"/>
	<polygon class="st0" points="15.6,15 7.9,15 10.2,11 13.2,11 	"/>
	<path class="st0" d="M8.6,0.5v2.4c0,0.3-0.2,0.5-0.5,0.5S7.6,3.2,7.6,2.9V0.5C7.6,0.2,7.8,0,8.1,0S8.6,0.2,8.6,0.5z M11.5,0.8
		c-0.3-0.1-0.5,0-0.6,0.3l-0.8,2.3c-0.1,0.3,0,0.5,0.3,0.6c0.1,0,0.1,0,0.2,0C10.8,4.1,11,4,11,3.7l0.8-2.3
		C11.9,1.2,11.8,0.9,11.5,0.8z M14.8,2.6c-0.2-0.2-0.5-0.1-0.7,0.1l-1.6,1.9c-0.2,0.2-0.1,0.5,0.1,0.7c0.1,0.1,0.2,0.1,0.3,0.1
		c0.1,0,0.3-0.1,0.4-0.2l1.6-1.9C15,3.1,15,2.8,14.8,2.6z M5.3,1.1C5.2,0.8,4.9,0.7,4.7,0.8C4.4,0.9,4.3,1.2,4.3,1.4l0.8,2.3
		C5.2,4,5.4,4.1,5.6,4.1c0.1,0,0.1,0,0.2,0C6,4,6.2,3.7,6.1,3.4L5.3,1.1z M2.1,2.7C1.9,2.4,1.6,2.4,1.4,2.6C1.2,2.8,1.1,3.1,1.3,3.3
		l1.6,1.9C3,5.3,3.2,5.4,3.3,5.4c0.1,0,0.2,0,0.3-0.1c0.2-0.2,0.2-0.5,0.1-0.7L2.1,2.7z"/>
</g>
</svg>
