<?xml version="1.0" encoding="utf-8"?>
<!-- Generator: Adobe Illustrator 26.3.0, SVG Export Plug-In . SVG Version: 6.00 Build 0)  -->
<svg version="1.1" id="Layer_1" xmlns="http://www.w3.org/2000/svg" xmlns:xlink="http://www.w3.org/1999/xlink" x="0px" y="0px"
	 viewBox="0 0 16 16" style="enable-background:new 0 0 16 16;" xml:space="preserve">
<style type="text/css">
	.st0{opacity:0.5;fill:#FFFFFF;enable-background:new    ;}
	.st1{fill:#EEAC55;}
	.st2{fill:#6D6E71;}
	.st3{fill:#6485C3;}
</style>
<g id="icon">
	<path class="st0" d="M14,8h-1.5v0.5h-2V8H9V4h5V8z M7,15v-4H2v4h1.5v0.5h2V15H7z M8.5,10.5V10l-4-2.3l-4,2.3v0.6
		C0.5,10.5,8.5,10.5,8.5,10.5z"/>
	<path class="st1" d="M6,16H3v-4h3V16z M4,15h1v-2H4V15z M13,9h-3V5h3V9z M11,8h1V6h-1V8z"/>
	<path class="st2" d="M9,16H0v-1h1v-4H0V9.7l4.5-2.6L9,9.7V11H8v4h1V16z M2,15h5v-4H2V15z M1.4,10h6.3L4.5,8.2L1.4,10z"/>
	<path class="st3" d="M2.5,6.4L0.3,4.2L1,3.5l1,1V2.7C2,1.8,2.8,1,3.7,1H6v1H3.7C3.3,2,3,2.3,3,2.7v1.8l1-1l0.7,0.7L2.5,6.4z
		 M14,13.3v-1.8l1,1l0.7-0.7l-2.2-2.2l-2.2,2.2l0.7,0.7l1-1v1.8c0,0.4-0.3,0.7-0.7,0.7H10v1h2.3C13.2,15,14,14.2,14,13.3z"/>
	<path class="st2" d="M16,4V2.7L11.5,0L7,2.7V4h1v4H7.9l1.6,1H16V8h-1V4H16z M14,8H9V4h5V8z M8.5,3l3-1.7l3,1.7H8.5z"/>
</g>
</svg>
