<?xml version="1.0" encoding="utf-8"?>
<!-- Generator: Adobe Illustrator 26.3.0, SVG Export Plug-In . SVG Version: 6.00 Build 0)  -->
<svg version="1.1" id="Layer_1" xmlns="http://www.w3.org/2000/svg" xmlns:xlink="http://www.w3.org/1999/xlink" x="0px" y="0px"
	 viewBox="0 0 16 16" style="enable-background:new 0 0 16 16;" xml:space="preserve">
<style type="text/css">
	.st0{fill:#52B250;}
	.st1{opacity:0.5;fill:#FFFFFF;enable-background:new    ;}
</style>
<g id="icon">
	<path class="st0" d="M0,3v11h16V3H0z M4,4l0,0.2c0,1.6-1.3,2.9-2.8,2.9L1,7.1L1,4H4z M1,13l0-3.1l0.2,0c1.5,0,2.8,1.3,2.8,2.9L4,13
		H1z M10,8v1H8.5v0.5H10v1H8.5v1.6h-1v-1.6H6v-1h1.5V9H6V8h1.1L5.2,5.3L6,4.7l2,2.8l2-2.8l0.8,0.6L8.9,8H10z M15,4l0,3.1l-0.2,0
		c-1.5,0-2.8-1.3-2.8-2.9L12,4H15z M12,13l0-0.2c0-1.6,1.3-2.9,2.8-2.9l0.2,0l0,3.1H12z"/>
	<path class="st1" d="M1,7.1L1,4h3l0,0.2c0,1.6-1.3,2.9-2.8,2.9L1,7.1z M14.8,7.1c-1.5,0-2.8-1.3-2.8-2.9L12,4h3l0,3.1L14.8,7.1z
		 M1.2,9.9c1.5,0,2.8,1.3,2.8,2.9L4,13H1l0-3.1L1.2,9.9z M15,9.9l0,3.1h-3l0-0.2c0-1.6,1.3-2.9,2.8-2.9L15,9.9z"/>
	<polygon class="st1" points="8.5,12.1 7.5,12.1 7.5,10.5 6,10.5 6,9.5 7.5,9.5 7.5,9 6,9 6,8 7.1,8 5.2,5.3 6,4.7 8,7.5 10,4.7 
		10.9,5.3 8.9,8 10,8 10,9 8.5,9 8.5,9.5 10,9.5 10,10.5 8.5,10.5 	"/>
</g>
</svg>
