<?xml version="1.0" encoding="utf-8"?>
<!-- Generator: Adobe Illustrator 26.3.0, SVG Export Plug-In . SVG Version: 6.00 Build 0)  -->
<svg version="1.1" id="Layer_1" xmlns="http://www.w3.org/2000/svg" xmlns:xlink="http://www.w3.org/1999/xlink" x="0px" y="0px"
	 viewBox="0 0 16 16" style="enable-background:new 0 0 16 16;" xml:space="preserve">
<style type="text/css">
	.st0{fill:#EEAC55;}
	.st1{opacity:0.5;fill:#FFFFFF;enable-background:new    ;}
</style>
<g id="icon">
	<path class="st0" d="M16,4L16,4c-0.1-0.8-0.7-1.6-1.8-2.1C13,1.3,11.4,1,9.7,1C8,1,6.4,1.3,5.2,1.9C4.1,2.4,3.4,3.2,3.3,4h0v0.1
		c0,0,0,0,0,0h0v2.5c0,0.8,0.7,1.5,1.9,2.1c1.2,0.5,2.8,0.8,4.4,0.8c1.6,0,3.2-0.3,4.4-0.8c1.2-0.5,1.9-1.2,1.9-1.9
		c0-0.1,0-0.1,0-0.2V4.2L16,4z M15.3,5.1C14.2,6,12.2,6.7,9.7,6.7c-2.6,0-4.6-0.6-5.7-1.6v-1c0.6,0.6,0.7,0.7,1.5,1.1
		C6.5,5.7,8,5.9,9.7,5.9c3.2,0,4.9-0.9,5.7-1.8V5.1z"/>
	<path class="st1" d="M15.3,5.1v-1C14.6,5,12.8,5.9,9.7,5.9C8,5.9,6.5,5.7,5.4,5.2C4.6,4.8,4.5,4.7,3.9,4.1v1
		c1.2,0.9,3.2,1.6,5.7,1.6C12.2,6.7,14.2,6,15.3,5.1z"/>
	<path class="st0" d="M12,10.1v0.6c-1.1,0.9-3.2,1.5-5.7,1.5c-2.6,0-4.6-0.6-5.7-1.6v-1c0.6,0.6,0.7,0.7,1.5,1
		c1.1,0.5,2.6,0.7,4.2,0.7c2.7,0,4.3-0.6,5.2-1.3c-0.6,0.1-1.3,0.1-1.9,0.1C8,10.3,6.3,10,5,9.4C3.3,8.7,2.8,7.8,2.6,7.1
		C2.3,7.2,2.1,7.3,1.9,7.4C0.7,8,0.1,8.7,0,9.6h0v0.1c0,0,0,0,0,0h0v2.5c0,0.8,0.7,1.5,1.9,2C3.1,14.7,4.7,15,6.3,15
		c1.6,0,3.2-0.3,4.4-0.8c1.2-0.5,1.9-1.2,1.9-1.9c0-0.1,0-0.1,0-0.2V10C12.5,10,12.2,10.1,12,10.1z"/>
	<path class="st1" d="M11.6,10.2c-0.9,0.7-2.6,1.3-5.2,1.3c-1.6,0-3.1-0.2-4.2-0.7c-0.8-0.3-0.9-0.5-1.5-1v1
		c1.2,0.9,3.2,1.6,5.7,1.6c2.5,0,4.6-0.6,5.7-1.5v-0.6C11.9,10.1,11.7,10.1,11.6,10.2z"/>
</g>
</svg>
