<?xml version="1.0" encoding="utf-8"?>
<!-- Generator: Adobe Illustrator 26.3.0, SVG Export Plug-In . SVG Version: 6.00 Build 0)  -->
<svg version="1.1" id="Layer_1" xmlns="http://www.w3.org/2000/svg" xmlns:xlink="http://www.w3.org/1999/xlink" x="0px" y="0px"
	 viewBox="0 0 16 16" style="enable-background:new 0 0 16 16;" xml:space="preserve">
<style type="text/css">
	.st0{fill:#EEAD56;}
	.st1{opacity:0.5;fill:#FFFFFF;enable-background:new    ;}
	.st2{fill:#EEAC55;}
</style>
<g id="icon">
	<path class="st0" d="M5.5,5C2.5,5,0,7.5,0,10.5S2.5,16,5.5,16s5.5-2.5,5.5-5.5S8.5,5,5.5,5z M6.5,9.6v1H4.6v1.2
		c0,0.2,0,0.4-0.1,0.6c0,0,0,0.1,0,0.1h3.3v1H2.8v-0.9l0.3-0.1c0.1,0,0.2-0.1,0.2-0.1c0.1,0,0.1-0.1,0.1-0.1c0,0,0.1-0.1,0.1-0.2
		c0-0.1,0-0.1,0-0.2v-1.2H3.1v-1h0.6V9c0-0.3,0-0.6,0.1-0.9C3.9,7.8,4,7.6,4.2,7.4C4.4,7.2,4.7,7,5,6.9c0.3-0.1,0.6-0.2,0.9-0.2
		c0.3,0,0.5,0,0.7,0.1C6.9,6.9,7,7,7.2,7.1c0.2,0.1,0.3,0.2,0.4,0.4c0.1,0.1,0.2,0.3,0.3,0.4L7,8.4c0-0.1-0.1-0.2-0.2-0.3
		C6.8,8,6.7,8,6.7,7.9C6.6,7.9,6.5,7.8,6.4,7.8c-0.1,0-0.3-0.1-0.5-0.1c-0.2,0-0.4,0-0.6,0.1C5.2,7.9,5,8,4.9,8.1
		C4.8,8.2,4.8,8.3,4.7,8.4C4.7,8.6,4.6,8.8,4.6,9v0.7H6.5z"/>
	<path class="st1" d="M4.5,12.4c0.1-0.2,0.1-0.4,0.1-0.6v-1.2h1.9v-1H4.6V9c0-0.2,0-0.4,0.1-0.5c0.1-0.1,0.1-0.3,0.2-0.4
		C5,8,5.2,7.9,5.3,7.8c0.2-0.1,0.4-0.1,0.6-0.1c0.2,0,0.3,0,0.5,0.1c0.1,0,0.2,0.1,0.3,0.1C6.7,8,6.8,8,6.9,8.1C6.9,8.2,7,8.3,7,8.4
		l0.9-0.4C7.8,7.8,7.7,7.6,7.6,7.5C7.5,7.3,7.4,7.2,7.2,7.1C7,7,6.9,6.9,6.6,6.8C6.4,6.8,6.2,6.7,5.9,6.7C5.6,6.7,5.2,6.8,5,6.9
		C4.7,7,4.4,7.2,4.2,7.4C4,7.6,3.9,7.8,3.8,8.1C3.7,8.4,3.6,8.7,3.6,9v0.7H3.1v1h0.6v1.2c0,0.1,0,0.2,0,0.2c0,0.1-0.1,0.1-0.1,0.2
		c0,0-0.1,0.1-0.1,0.1c-0.1,0-0.2,0.1-0.2,0.1l-0.3,0.1v0.9h4.9v-1H4.5C4.5,12.5,4.5,12.5,4.5,12.4z"/>
	<path class="st1" d="M15.7,2.4H6.3L6,3V4c3.4,0.3,6,3.1,6,6.5c0,0.9-0.2,1.8-0.5,2.6H14l2-1.4V3L15.7,2.4z"/>
	<path class="st2" d="M16,8.3v1c0,0.1,0,0.1,0,0.2c-0.1,0.6-0.6,1.2-1.5,1.7c-0.7,0.4-1.6,0.6-2.6,0.6c0.1-0.4,0.1-0.9,0.1-1.4
		c0-0.2,0-0.3,0-0.5c1-0.1,2-0.3,2.7-0.7C15.3,9.1,15.7,8.7,16,8.3z M14.7,11.9c-0.8,0.4-1.9,0.6-3,0.7c-0.2,0.7-0.6,1.3-1.1,1.9
		c0.1,0,0.3,0,0.4,0c1.3,0,2.5-0.2,3.5-0.7c0.9-0.5,1.5-1,1.5-1.7c0-0.1,0-0.1,0-0.2v-1.1C15.7,11.2,15.3,11.6,14.7,11.9z M16,2.8
		v1.5c0,0.1,0,0.1,0,0.2c-0.1,0.6-0.6,1.2-1.5,1.7c-0.9,0.5-2.2,0.7-3.5,0.7c-0.1,0-0.1,0-0.2,0C9.8,5.2,8,4.2,6,4V2.7h0
		c0,0,0,0,0,0V2.6h0c0.1-0.7,0.6-1.4,1.5-1.9C8.4,0.3,9.7,0,11,0c1.4,0,2.6,0.3,3.5,0.8c0.9,0.5,1.4,1.1,1.5,1.9h0L16,2.8z
		 M15.6,2.7c-0.6,0.8-2,1.5-4.6,1.5C9.7,4.3,8.5,4,7.6,3.6C7,3.3,6.9,3.2,6.4,2.7v0.8C7.3,4.3,8.9,4.9,11,4.9c2,0,3.7-0.5,4.6-1.3
		L15.6,2.7L15.6,2.7z M14.7,6.8c-0.9,0.4-2.1,0.7-3.4,0.7c0.3,0.6,0.5,1.2,0.6,1.8c0.9-0.1,1.8-0.3,2.6-0.6c0.9-0.5,1.5-1,1.5-1.7
		c0-0.1,0-0.1,0-0.2v-1C15.7,6.1,15.3,6.5,14.7,6.8z"/>
</g>
</svg>
