<?xml version="1.0" encoding="utf-8"?>
<!-- Generator: Adobe Illustrator 26.3.0, SVG Export Plug-In . SVG Version: 6.00 Build 0)  -->
<svg version="1.1" id="Layer_1" xmlns="http://www.w3.org/2000/svg" xmlns:xlink="http://www.w3.org/1999/xlink" x="0px" y="0px"
	 viewBox="0 0 16 16" style="enable-background:new 0 0 16 16;" xml:space="preserve">
<style type="text/css">
	.st0{fill:#6485C3;}
</style>
<g id="icon">
	<path class="st0" d="M12.1,13.2c-0.3,0-0.6,0-0.9-0.1c-0.3-0.1-0.6-0.1-0.9-0.3c-0.3-0.1-0.5-0.3-0.8-0.4c-0.2-0.2-0.4-0.4-0.6-0.6
		l0.7-0.7c0.2,0.2,0.4,0.3,0.5,0.5c0.2,0.1,0.4,0.2,0.6,0.3c0.2,0.1,0.4,0.2,0.7,0.2c0.2,0,0.5,0.1,0.9,0.1l0.2,0
		c0.4,0,0.8-0.1,1.1-0.3c0.3-0.1,0.6-0.3,0.8-0.5c0.2-0.2,0.4-0.5,0.5-0.8C14.9,10.3,15,10,15,9.7c0-0.3-0.1-0.6-0.2-0.8
		c-0.1-0.2-0.3-0.4-0.5-0.5C14,8.3,13.7,8.1,13.4,8c-0.3-0.1-0.7-0.2-1.1-0.3l-0.2,0c-0.3-0.1-0.7-0.2-1-0.3
		c-0.3-0.1-0.7-0.3-0.9-0.5C10,6.7,9.7,6.5,9.6,6.2C9.4,5.9,9.3,5.5,9.2,5.1c0-0.4,0-0.7,0.2-1C9.6,3.7,9.8,3.4,10,3.1
		c0.3-0.3,0.6-0.5,1-0.6c0.4-0.2,0.8-0.2,1.3-0.3l0.2,0c0.5,0,0.8,0,1.2,0.2c0.3,0.1,0.6,0.2,0.8,0.3c0.2,0.1,0.4,0.2,0.5,0.4
		c0.1,0.1,0.2,0.2,0.2,0.2L14.4,4c0,0-0.1-0.1-0.2-0.2c0,0-0.1-0.1-0.3-0.2c-0.1-0.1-0.3-0.2-0.6-0.2c-0.2-0.1-0.5-0.1-0.9-0.1
		l-0.1,0c-0.4,0-0.7,0.1-1,0.2c-0.3,0.1-0.5,0.3-0.7,0.4c-0.2,0.2-0.3,0.3-0.4,0.6c-0.1,0.2-0.1,0.4-0.1,0.7c0,0.3,0.1,0.5,0.2,0.6
		c0.1,0.2,0.3,0.3,0.4,0.5c0.2,0.1,0.4,0.2,0.7,0.3c0.3,0.1,0.6,0.2,0.9,0.3l0.2,0C13,6.9,13.3,7,13.7,7.1c0.4,0.1,0.8,0.3,1.1,0.5
		c0.3,0.2,0.6,0.5,0.8,0.8C15.8,8.7,16,9.1,16,9.6c0,0.5-0.1,0.9-0.2,1.3c-0.2,0.4-0.4,0.8-0.7,1.1c-0.3,0.3-0.7,0.6-1.1,0.8
		c-0.4,0.2-0.9,0.3-1.5,0.3l-0.2,0C12.2,13.2,12.2,13.2,12.1,13.2z"/>
	<rect x="12" y="1.5" class="st0" width="1" height="12.5"/>
	<path class="st0" d="M7.5,13.7L4.2,4L1,13.7L0,13.4L3.7,2.5c0-0.1,0.1-0.2,0.1-0.2L3.9,2h0.8l0.1,0.4c0,0,0,0.1,0.1,0.2l0,0
		l3.6,10.8L7.5,13.7z"/>
	<rect x="1.8" y="9" class="st0" width="5.1" height="1"/>
</g>
</svg>
