<?xml version="1.0" encoding="utf-8"?>
<!-- Generator: Adobe Illustrator 26.3.0, SVG Export Plug-In . SVG Version: 6.00 Build 0)  -->
<svg version="1.1" id="Layer_1" xmlns="http://www.w3.org/2000/svg" xmlns:xlink="http://www.w3.org/1999/xlink" x="0px" y="0px"
	 viewBox="0 0 16 16" style="enable-background:new 0 0 16 16;" xml:space="preserve">
<style type="text/css">
	.st0{fill:#6485C3;}
</style>
<g id="icon">
	<path class="st0" d="M9.5,14.1H3.9V1.9h5.2c1.8,0,3.3,1.5,3.3,3.4c0,1-0.5,2-1.2,2.6c1,0.6,1.6,1.7,1.6,2.9
		C12.8,12.6,11.3,14.1,9.5,14.1z M5.1,12.9h4.4c1.1,0,2.1-1,2.1-2.1c0-1.2-0.9-2.1-2.1-2.1c-0.1,0-0.3,0-0.4,0v0h-4V12.9z M5.1,7.4
		h4.3c1-0.1,1.8-1,1.8-2.1c0-1.2-1-2.2-2.1-2.2h-4V7.4z"/>
	<rect x="7.4" y="0.5" class="st0" width="1.2" height="2.1"/>
	<rect x="7.4" y="13.5" class="st0" width="1.2" height="2"/>
</g>
</svg>
