<?xml version="1.0" encoding="utf-8"?>
<!-- Generator: Adobe Illustrator 26.3.0, SVG Export Plug-In . SVG Version: 6.00 Build 0)  -->
<svg version="1.1" id="Layer_1" xmlns="http://www.w3.org/2000/svg" xmlns:xlink="http://www.w3.org/1999/xlink" x="0px" y="0px"
	 viewBox="0 0 16 16" style="enable-background:new 0 0 16 16;" xml:space="preserve">
<style type="text/css">
	.st0{opacity:0.5;fill:#FFFFFF;enable-background:new    ;}
	.st1{fill:#6E6F72;}
	.st2{fill:#6485C3;}
	.st3{fill:#EEAD56;}
</style>
<g id="icon">
	<path class="st0" d="M15.5,0.5v13h-4.2c0.5-0.9,0.7-1.9,0.7-3c0-3.2-2.4-5.9-5.5-6.4V0.5H15.5z"/>
	<path class="st1" d="M16,0v14h-5c0.2-0.3,0.4-0.6,0.5-1H15V1H7v3.2C6.7,4.1,6.3,4,6,4V0H16z"/>
	<path class="st2" d="M12,11h0.5v1h-0.7C11.9,11.7,12,11.3,12,11z M10,2v1h2V2H10z"/>
	<path class="st3" d="M5.5,5C2.5,5,0,7.5,0,10.5S2.5,16,5.5,16s5.5-2.5,5.5-5.5S8.5,5,5.5,5z M7.3,10v1H6v0.6h1.3v1H6v1.7H5v-1.7
		H3.7v-1H5V11H3.7v-1h0.8L2.9,7.5l0.8-0.5l1.7,2.7L7.3,7l0.8,0.5L6.5,10H7.3z"/>
	<polygon class="st0" points="8.1,7.5 7.3,7 5.5,9.7 3.8,6.9 2.9,7.5 4.5,10 3.7,10 3.7,11 5,11 5,11.5 3.7,11.5 3.7,12.5 5,12.5 
		5,14.3 6,14.3 6,12.5 7.3,12.5 7.3,11.5 6,11.5 6,11 7.3,11 7.3,10 6.5,10 	"/>
</g>
</svg>
