<?xml version="1.0" encoding="UTF-8"?>
<!DOCTYPE svg PUBLIC "-//W3C//DTD SVG 1.1//EN" "http://www.w3.org/Graphics/SVG/1.1/DTD/svg11.dtd">
<svg version="1.1" id="Layer_1" xmlns="http://www.w3.org/2000/svg" xmlns:xlink="http://www.w3.org/1999/xlink" x="0px" y="0px" width="24px" height="24px" viewBox="0 0 24 24" enable-background="new 0 0 24 24" xml:space="preserve">
  <g id="icon">
    <path d="M10.2379,23.2424c-0.6772,0,-1.2211,0.0468,-1.7472,-0.0888c-0.7125,-0.1837,-0.4306,-0.9151,-0.6528,-1.467c-0.3293,-0.818,-1.8212,-0.3424,-2.4719,-0.2777c-0.7951,0.079,-1.8862,0.2067,-2.4478,-0.4816c-0.5918,-0.7253,-0.0823,-1.4689,0.0677,-2.2209c0.1097,-0.5501,-0.4034,-0.5833,-0.6507,-0.947c-0.2604,-0.3831,0.7653,-0.5254,0.7653,-0.6894c0,-0.164,-0.9705,-0.3824,-0.7995,-1.2463c0.156,-0.7883,-1.1723,-0.6041,-1.4941,-1.1493c-0.3541,-0.5999,1.0429,-2.1101,1.363,-2.5905c0.267,-0.4007,0.7242,-0.8657,0.856,-1.3283c0.0644,-0.2258,-0.2162,-0.3887,-0.2807,-0.6012c-0.0942,-0.3107,-0.0211,-0.6361,0.0461,-0.9435c0.4685,-2.1412,1.2143,-4.1182,2.806,-5.7537c1.6633,-1.7091,3.9415,-2.4285,6.3321,-2.6457C16.235,0.4203,20.9975,2.005,22.6123,6.103c0.7499,1.903,0.8727,4.0622,0.1841,5.9966c-0.3352,0.9415,-0.8512,1.8178,-1.486,2.6062c-0.7277,0.9038,-1.9271,1.5763,-1.9271,2.7453c0,0.6131,-0.0989,0.4339,0.1101,1.2926C20.5738,23.1812,10.8224,23.2424,10.2379,23.2424z" fill="#FFFFFF" opacity="0.5"/>
    <path d="M9.5217,24c-0.3532,0,-0.7721,-0.0149,-1.2015,-0.1256c-1.1352,-0.2929,-1.2246,-1.2982,-1.2628,-1.7275c-0.0041,-0.0462,-0.0087,-0.0972,-0.0141,-0.1446c-0.0094,-0.0002,-0.0195,-0.0003,-0.0304,-0.0003c-0.2755,0,-0.7044,0.0762,-0.8875,0.1087c-0.1876,0.0333,-0.3633,0.0645,-0.5238,0.0805l-0.057,0.0056c-0.288,0.0288,-0.6148,0.0615,-0.965,0.0615c-1.01,0,-1.7397,-0.2926,-2.2306,-0.8946c-0.771,-0.9456,-0.4515,-1.9473,-0.2606,-2.5458c0.0209,-0.0655,0.0409,-0.1284,0.0591,-0.1886c-0.131,-0.1021,-0.2867,-0.2413,-0.4205,-0.4384c-0.2061,-0.3032,-0.2641,-0.6565,-0.1632,-0.9947c0.0394,-0.1322,0.1008,-0.2546,0.1832,-0.3658c-0.1565,-0.2622,-0.238,-0.5481,-0.2433,-0.8537c-0.0072,-0.0023,-0.0142,-0.0045,-0.0209,-0.0067c-0.3843,-0.1229,-0.9635,-0.3081,-1.2858,-0.8545c-0.6147,-1.0417,0.3367,-2.2578,1.1012,-3.2351c0.1093,-0.1397,0.2182,-0.2789,0.2617,-0.3443c0.0993,-0.149,0.2139,-0.2973,0.3151,-0.4283c0.0851,-0.1101,0.1783,-0.2308,0.2543,-0.342c-0.0556,-0.0966,-0.0979,-0.1934,-0.128,-0.2926c-0.1653,-0.5454,-0.0563,-1.0438,0.0233,-1.4078c0.3984,-1.8216,1.0999,-4.1636,3.0049,-6.1223c1.604,-1.649,3.8966,-2.6195,6.8141,-2.8847C12.2697,0.0197,12.7055,0,13.1387,0c3.7989,0,8.4645,1.5394,10.1658,5.8597c0.856,2.1737,0.9241,4.5046,0.1917,6.5633c-0.3523,0.9903,-0.8957,1.9457,-1.615,2.8396c-0.2476,0.3077,-0.5221,0.5728,-0.7876,0.8292c-0.5494,0.5306,-0.883,0.8793,-0.883,1.2463c0,0.2108,-0.0101,0.3455,-0.0175,0.4438c-0.0086,0.1148,-0.0109,0.1453,0.0975,0.591c0.2582,1.0614,0.0546,2.0556,-0.589,2.8751c-2.0513,2.6121,-8.2119,2.7444,-9.426,2.7444c-0.1335,0,-0.2615,0.002,-0.385,0.0038C9.7602,23.9982,9.6403,24,9.5217,24zM9.012,22.0152c0.1639,0.0216,0.3378,0.0253,0.505,0.0253c0.0001,0,0.0002,0,0.0003,0c0.1069,0,0.2194,-0.0018,0.3388,-0.0036c0.1346,-0.0021,0.2741,-0.0041,0.4196,-0.0041c2.54,0,6.7363,-0.5314,7.8861,-1.9954c0.2736,-0.3484,0.3433,-0.7188,0.226,-1.2009c-0.1579,-0.649,-0.1741,-0.8491,-0.1477,-1.2003c0.0062,-0.0826,0.012,-0.1602,0.012,-0.298c0,-1.2254,0.8212,-2.0186,1.4811,-2.656c0.2325,-0.2245,0.4518,-0.4363,0.6226,-0.6485c0.581,-0.722,1.0168,-1.485,1.2954,-2.2678c0.5736,-1.6124,0.5137,-3.4547,-0.1688,-5.1877c-1.3413,-3.4057,-5.1826,-4.6191,-8.3302,-4.6191c-0.3783,0,-0.759,0.0171,-1.1314,0.051c-2.4733,0.2248,-4.301,0.9771,-5.5877,2.2999C5.2164,5.5608,4.4476,7.1534,3.9402,9.4736c-0.0278,0.127,-0.061,0.279,-0.0662,0.3737c0.1424,0.1862,0.4461,0.6192,0.2811,1.1989c-0.1416,0.4975,-0.4543,0.9025,-0.7302,1.2597c-0.09,0.1166,-0.1748,0.2264,-0.2349,0.3166c-0.0855,0.1284,-0.2017,0.2769,-0.3488,0.4649c-0.1429,0.1827,-0.5203,0.665,-0.7348,1.0249c1.0446,0.3422,1.5045,0.9335,1.369,1.7586c0.0277,0.0209,0.0729,0.0523,0.1463,0.0991c0.1928,0.1229,0.644,0.4103,0.644,0.9947c0,0.2856,-0.1005,0.5285,-0.2993,0.7248c0.1909,0.313,0.2475,0.6719,0.1681,1.0702c-0.0472,0.237,-0.1148,0.449,-0.1802,0.654c-0.1785,0.56,-0.162,0.62,-0.0877,0.711c0.0646,0.0793,0.2403,0.1737,0.7103,0.1737c0.2551,0,0.5289,-0.0273,0.7706,-0.0513l0.0604,-0.0061c0.0852,-0.0084,0.2229,-0.0328,0.3688,-0.0587c0.3216,-0.0571,0.7529,-0.1337,1.1937,-0.1337c0.9499,0,1.577,0.3612,1.8637,1.0735c0.1265,0.3145,0.1541,0.6244,0.1742,0.8508C9.0094,21.9858,9.0106,22.0001,9.012,22.0152z" fill="#6484C3"/>
    <path d="M18.2872,6.3177c-0.3963,0.0657,-0.7416,0.328,-0.9137,0.691c-0.2933,0.6188,-0.0398,1.309,0.5018,1.6227L18,8.7036V11h-2V8h-2V5.7036l0.1247,-0.0722c0.3857,-0.2234,0.6253,-0.6378,0.6253,-1.0814c0,-0.759,-0.68,-1.3622,-1.4628,-1.2323c-0.3963,0.0657,-0.7416,0.328,-0.9137,0.691c-0.2933,0.6188,-0.0398,1.309,0.5018,1.6227L13,5.7036V8h-2v1H8V7.9536l0.1247,-0.0722C8.5104,7.658,8.75,7.2436,8.75,6.8c0,-0.759,-0.68,-1.3622,-1.4628,-1.2323c-0.3963,0.0657,-0.7416,0.328,-0.9137,0.691c-0.2933,0.6188,-0.0398,1.309,0.5018,1.6227L7,7.9536V10h4v3h2v2h-2.8464l-0.0722,-0.1247C9.858,14.4896,9.4436,14.25,9,14.25c-0.7593,0,-1.3627,0.6806,-1.2322,1.4638c0.0661,0.3963,0.3287,0.7416,0.692,0.9133c0.6187,0.2924,1.3081,0.0389,1.6216,-0.5023l0.0722,-0.1247H14v-3h2v-1h3V8.7036l0.1247,-0.0722c0.3857,-0.2234,0.6253,-0.6378,0.6253,-1.0814C19.75,6.791,19.07,6.1878,18.2872,6.3177zM15,12h-3V9h3V12z" fill="#6486C4"/>
  </g>
</svg>
