<?xml version="1.0" encoding="UTF-8"?>
<!DOCTYPE svg PUBLIC "-//W3C//DTD SVG 1.1//EN" "http://www.w3.org/Graphics/SVG/1.1/DTD/svg11.dtd">
<svg version="1.1" id="Layer_1" xmlns="http://www.w3.org/2000/svg" xmlns:xlink="http://www.w3.org/1999/xlink" x="0px" y="0px" width="24px" height="24px" viewBox="0 0 24 24" enable-background="new 0 0 24 24" xml:space="preserve">
  <g id="icon">
    <polygon points="1.3,12 1.3188,21 14.3,21 14.3,12" fill="#FFFFFF" stroke-linejoin="miter" opacity="0.5"/>
    <path d="M4,17h8v1H4V17zM4,15v1h8v-1H4z" fill="#6486C4"/>
    <rect x="14.3" y="6" width="9" height="15" fill="#FFFFFF" opacity="0.5"/>
    <path d="M13,5v6H-0.0219L0,22h13h2h9V5H13zM2.0157,20L2,13h12v7H2.0157zM22,20h-7v-8.7V7h7V20z" fill="#6484C3"/>
    <path d="M18,8.3v1.5h-1.5V8.3H18zM19.5,8.3v1.5h1.5V8.3H19.5zM16.5,11.3v1.5h1.5v-1.5H16.5zM19.5,11.3v1.5h1.5v-1.5H19.5zM16.5,14.3v1.5h1.5v-1.5H16.5zM19.5,14.3v1.5h1.5v-1.5H19.5zM19.5,17.3v1.5h1.5v-1.5H19.5zM16.5,17.3v1.5h1.5v-1.5H16.5z" fill="#6486C4"/>
  </g>
</svg>
