<?xml version="1.0" encoding="UTF-8"?>
<!DOCTYPE svg PUBLIC "-//W3C//DTD SVG 1.1//EN" "http://www.w3.org/Graphics/SVG/1.1/DTD/svg11.dtd">
<svg version="1.1" id="Layer_1" xmlns="http://www.w3.org/2000/svg" xmlns:xlink="http://www.w3.org/1999/xlink" x="0px" y="0px" width="24px" height="24px" viewBox="0 0 24 24" enable-background="new 0 0 24 24" xml:space="preserve">
  <g id="icon">
    <polyline points="5.5784,12.75 5.0522,1.75 2.4814,1.75 2.0002,12.7054" fill="#FFFFFF" stroke-linejoin="miter" opacity="0.5"/>
    <polygon points="4.8293,12.7876 4.3388,2.5 3.1977,2.5 2.7494,12.7399 1.251,12.6709 1.7651,1 5.7655,1 6.3274,12.7124" fill="#6484C3" stroke-linejoin="miter"/>
    <polygon points="1.3,13 1.3188,22 14.3,22 14.3,13" fill="#FFFFFF" stroke-linejoin="miter" opacity="0.5"/>
    <path d="M4,18h8v1H4V18zM4,16v1h8v-1H4z" fill="#6486C4"/>
    <rect x="14.3" y="7" width="9" height="15" fill="#FFFFFF" opacity="0.5"/>
    <path d="M13,6v6H-0.0219L0,23h13h2h9V6H13zM2.0157,21L2,14h12v7H2.0157zM22,21h-7v-8.7V8h7V21z" fill="#6484C3"/>
    <path d="M18,9.3v1.5h-1.5V9.3H18zM19.5,9.3v1.5h1.5V9.3H19.5zM16.5,12.3v1.5h1.5v-1.5H16.5zM19.5,12.3v1.5h1.5v-1.5H19.5zM16.5,15.3v1.5h1.5v-1.5H16.5zM19.5,15.3v1.5h1.5v-1.5H19.5zM19.5,18.3v1.5h1.5v-1.5H19.5zM16.5,18.3v1.5h1.5v-1.5H16.5z" fill="#6486C4"/>
  </g>
</svg>
