<?xml version="1.0" encoding="UTF-8"?>
<!DOCTYPE svg PUBLIC "-//W3C//DTD SVG 1.1//EN" "http://www.w3.org/Graphics/SVG/1.1/DTD/svg11.dtd">
<svg version="1.1" id="Layer_1" xmlns="http://www.w3.org/2000/svg" xmlns:xlink="http://www.w3.org/1999/xlink" x="0px" y="0px" width="24px" height="24px" viewBox="0 0 24 24" enable-background="new 0 0 24 24" xml:space="preserve">
  <g id="icon">
    <polygon points="7.0918,0.75 0.75,7.0918 0.75,16.9119 7.0013,23.25 16.8292,23.25 23.25,16.9953 23.25,7.0014 16.9119,0.75" fill="#FFFFFF" stroke-linejoin="miter" opacity="0.5"/>
    <path d="M15.6536,19.9513l-2.9375,-4.1394L7.368,18.2193l2.6464,-4.401l-6.7195,-2.5415l6.9006,-0.5705L6.8896,4.899l6.0826,4.4514l3.0748,-3.4677l-0.3652,5.2522L20.1,13.1218l-4.1245,1.4223L15.6536,19.9513zM13.1425,14.2428l1.4696,2.0709l0.1597,-2.6829l1.9233,-0.6633l-2.3267,-1.0464l0.1699,-2.4441l-1.385,1.562L10.8849,9.379l1.3756,2.4166l-3.3186,0.2744l2.9241,1.1059l-1.3533,2.2506L13.1425,14.2428z" fill="#CC525E"/>
    <path d="M6.6936,24L0,17.2135V6.7862L6.7861,0h10.4272L24,6.6936v10.613L17.1289,24H6.6936zM16.3324,22.0408l5.7084,-5.5608v-8.967l-5.631,-5.5539H7.5977L1.9592,7.5978v8.8121l5.5538,5.6309H16.3324z" fill="#CC525E"/>
  </g>
</svg>
