<?xml version="1.0" encoding="UTF-8"?>
<!DOCTYPE svg PUBLIC "-//W3C//DTD SVG 1.1//EN" "http://www.w3.org/Graphics/SVG/1.1/DTD/svg11.dtd">
<svg version="1.1" id="Layer_1" xmlns="http://www.w3.org/2000/svg" xmlns:xlink="http://www.w3.org/1999/xlink" x="0px" y="0px" width="24px" height="24px" viewBox="0 0 24 24" enable-background="new 0 0 24 24" xml:space="preserve">
  <g id="icon">
    <path d="M3.1879,22.8302l2.3267,-2.3266c-2.632,-2.9765,-2.4981,-5.6241,-1.1975,-6.9282c0.5829,-0.5829,1.4199,-0.9038,2.3569,-0.9038c0.5033,0,1.0327,0.0899,1.5735,0.2673c0,0,0.0168,-0.0179,0.024,-0.0244l0.0231,-0.0224c-0.5008,-1.5393,-0.2614,-2.9991,0.6408,-3.9057c0.5926,-0.5927,1.4358,-0.9161,2.3796,-0.9161c0.5248,0,1.0767,0.0973,1.6408,0.2893c-0.5576,-1.5927,-0.3383,-3.0965,0.5874,-4.0247c0.5835,-0.5834,1.4212,-0.9047,2.3589,-0.9047c1.0118,0,2.6299,0.363,4.594,2.0919l2.3279,-2.3279l1.17,1.1699l-2.8906,2.8905c-0.1546,0.1546,-0.3606,0.2398,-0.5799,0.2398c-0.2205,0,-0.4282,-0.0859,-0.585,-0.2418c-1.3961,-1.389,-2.863,-2.1856,-4.0245,-2.1856c-0.4991,0,-0.9135,0.1504,-1.1982,0.4351c-0.8533,0.8555,-0.5208,2.918,1.7657,5.2045c0.3196,0.3196,0.3235,0.8405,0.0089,1.161c-0.16,0.16,-0.366,0.2451,-0.5854,0.2451c-0.2205,0,-0.4282,-0.0859,-0.5849,-0.2418c-1.3808,-1.374,-2.8371,-2.162,-3.9954,-2.162c-0.5052,0,-0.925,0.1528,-1.2141,0.4419c-0.7433,0.7473,-0.6625,2.5357,1.2718,4.6962l0.4792,0.4763c0.3234,0.3218,0.3264,0.8451,0.0066,1.1665l-0.0141,0.014c-0.1553,0.1553,-0.3617,0.241,-0.581,0.241c-0.2205,0,-0.4282,-0.0859,-0.585,-0.2419l-0.4604,-0.4608c-1.2521,-1.117,-2.5112,-1.7338,-3.542,-1.7338c-0.4983,0,-0.9119,0.1502,-1.1962,0.4344c-0.8548,0.8572,-0.5265,2.9187,1.7553,5.2005c0.3226,0.3226,0.3241,0.8458,0.0035,1.1664l-2.8906,2.8906L3.1879,22.8302z" fill="#7B7B7B"/>
    <rect x="-2.1761" y="6.3189" width="18.5524" height="1.65" fill="#7B7B7B" transform="matrix(0.7071 -0.7071 0.7071 0.7071 -2.97191 7.11296)"/>
  </g>
</svg>
