<?xml version="1.0" encoding="UTF-8"?>
<!DOCTYPE svg PUBLIC "-//W3C//DTD SVG 1.1//EN" "http://www.w3.org/Graphics/SVG/1.1/DTD/svg11.dtd">
<svg version="1.1" id="Layer_1" xmlns="http://www.w3.org/2000/svg" xmlns:xlink="http://www.w3.org/1999/xlink" x="0px" y="0px" width="24px" height="24px" viewBox="0 0 24 24" enable-background="new 0 0 24 24" xml:space="preserve">
  <g id="icon">
    <path d="M5.2879,11.3558c4.0429,-0.6501,8.3279,-1.2175,12.4008,-1.6261c1.7527,-0.1758,2.8173,-0.8054,3.2236,-2.5678c0.0933,-0.4049,0.4404,-1.188,0.8324,-1.2484c0.392,-0.0604,0.3918,0.6134,0.4191,0.8054c0.3463,2.437,0.6826,4.8755,0.9895,7.3178c0.0242,0.1927,-0.1855,0.5886,-0.2942,0.5914c-0.273,0.007,-0.6342,-0.0778,-0.8098,-0.2681c-0.4775,-0.5175,-0.9293,-1.0765,-1.2927,-1.68c-0.3443,-0.5718,-0.7484,-0.6905,-1.3737,-0.5999c-3.6424,0.5276,-7.287,1.0435,-10.9374,1.5106c-2.269,0.2904,-4.7886,0.8448,-7.1374,-0.3846C1.9518,12.417,4.051,11.5547,5.2879,11.3558zM11.9598,2.32c1.4015,1.1467,1.4934,2.378,0.8719,4.0226c-0.2492,0.6594,-0.4961,1.3284,-0.7417,2.001l2.8552,-0.1947c0.2506,-0.7582,0.5006,-1.5166,0.7497,-2.2753c0.1967,-0.5991,0.4829,-0.9074,1.1494,-0.9609c0.7034,-0.0565,1.4061,-0.2117,2.083,-0.4083c0.249,-0.0723,0.4857,-0.3574,0.6007,-0.6045c0.0458,-0.0984,-0.2163,-0.4618,-0.4001,-0.5259c-2.329,-0.8117,-4.6677,-1.5953,-7.0095,-2.3695c-0.1845,-0.061,-0.7894,-0.3607,-0.9094,0.0165C11.0891,1.3982,11.6378,2.0566,11.9598,2.32zM9.659,15.3842c-0.3023,0.9272,-0.5971,1.8506,-0.8812,2.7638c-0.3714,1.1939,-0.5306,3.4532,-0.1086,4.3794c2.148,-1.5524,2.7707,-4.0507,3.5188,-6.2075c0.1311,-0.3778,0.2596,-0.7565,0.3896,-1.1347L9.659,15.3842z" fill="#FFFFFF" opacity="0.5"/>
    <path d="M7.7955,23.061c-0.5475,-1.2026,-0.3263,-3.7308,0.0734,-5.014c0.1294,-0.4155,0.3069,-0.9253,0.4785,-1.4184c0.1444,-0.4147,0.2807,-0.8065,0.3906,-1.1461l0.0194,-0.0599l0.109,-0.0142c0.5309,-0.068,1.0614,-0.137,1.5906,-0.2067l0.1565,-0.0206l-0.049,0.1498c-0.134,0.4096,-0.2897,0.862,-0.4545,1.341c-0.2222,0.6459,-0.4521,1.3139,-0.627,1.8757c-0.1997,0.6409,-0.3249,1.594,-0.3265,2.446c0.9332,-1.1569,1.4233,-2.6222,1.8982,-4.0419c0.0472,-0.141,0.1359,-0.3643,0.2218,-0.5801c0.0763,-0.1918,0.1484,-0.373,0.1888,-0.4896c0.092,-0.2652,0.2952,-0.8536,0.2952,-0.8536l0.0608,-0.0082c0.5552,-0.0746,1.1071,-0.1498,1.654,-0.225l0.16,-0.022l-0.0523,0.1524c-0.1724,0.5023,-0.346,1.0055,-0.5206,1.5085c-0.0411,0.1182,-0.1131,0.2989,-0.1893,0.4902c-0.0839,0.2106,-0.1707,0.4284,-0.2151,0.5611c-0.6846,2.0469,-1.4605,4.3669,-3.5975,5.9102L8.223,24L7.7955,23.061zM22.827,15.4715c-0.2113,0,-0.9365,-0.039,-1.3994,-0.5406c-0.5836,-0.6325,-1.04,-1.2268,-1.3954,-1.8168c-0.1051,-0.1745,-0.1394,-0.2201,-0.3037,-0.2201c-0.0575,0,-0.1288,0.0065,-0.2242,0.0203c-3.2549,0.4715,-7.1014,1.0199,-10.9513,1.5125c-0.2582,0.033,-0.5195,0.0695,-0.7836,0.1064c-0.9842,0.1375,-2.0019,0.2796,-3.0589,0.2796c-1.4476,0,-2.689,-0.2814,-3.795,-0.8602L0,13.4735l0.6527,-0.7998c0.83,-1.0172,3.1808,-1.938,4.5007,-2.1503c4.1469,-0.6668,8.4522,-1.2314,12.4507,-1.6327c1.5632,-0.1567,2.1902,-0.6407,2.4847,-1.9178c0.0039,-0.017,0.4069,-1.7199,1.5268,-1.8927c0.0586,-0.0091,0.118,-0.0137,0.1765,-0.0137c0.2462,0,0.4779,0.0792,0.6702,0.2291c0.4503,0.3509,0.5037,0.9326,0.5324,1.2452l0.0016,0.0169c0.0015,0.017,0.0028,0.0319,0.0044,0.0441c0.4181,2.9421,0.7238,5.2029,0.9911,7.3298c0.0578,0.4608,-0.2067,0.959,-0.3985,1.1815c-0.2474,0.2869,-0.5241,0.3529,-0.7128,0.3577C22.8631,15.4713,22.8451,15.4715,22.827,15.4715zM19.722,11.2094c0.7531,0,1.3449,0.3486,1.759,1.0362c0.1976,0.328,0.4348,0.6595,0.721,1.0068c-0.1978,-1.54,-0.4215,-3.1951,-0.696,-5.1504c-0.7537,1.9199,-2.3757,2.3304,-3.7327,2.4665c-3.9643,0.3977,-8.2351,0.9577,-12.3509,1.6196c-0.6521,0.1049,-1.5478,0.4107,-2.3025,0.7809c0.488,0.1056,1.013,0.1572,1.5959,0.1572c0.9354,0,1.8932,-0.1337,2.8194,-0.263l0.0111,-0.0016c0.2668,-0.0372,0.5308,-0.0741,0.7916,-0.1074c3.8433,-0.4917,7.6787,-1.0386,10.9236,-1.5088C19.4294,11.2213,19.5801,11.2094,19.722,11.2094zM11.05,8.5635c0.2065,-0.5655,0.5103,-1.3668,0.7546,-2.0106l0.1719,-0.4536c0.5606,-1.482,0.4034,-2.2658,-0.6232,-3.1062c-0.0138,-0.0113,-1.3689,-1.1396,-1.0256,-2.2171c0.0943,-0.2959,0.2971,-0.531,0.5711,-0.6619C11.0573,0.0384,11.2337,0,11.4231,0c0.3361,0,0.6487,0.1208,0.8356,0.1931l0.0143,0.0056c0.017,0.0066,0.0319,0.0125,0.0443,0.0167c2.8546,0.9448,5.0376,1.6835,7.0775,2.3952c0.4406,0.1538,0.7714,0.6134,0.8862,0.8848c0.1478,0.3492,0.0839,0.6262,0.0042,0.797c-0.1911,0.41,-0.5899,0.9047,-1.136,1.0632c-0.8333,0.2418,-1.5754,0.3864,-2.2688,0.4418c-0.2509,0.0201,-0.3031,0.0242,-0.4235,0.3907c-0.0816,0.2483,-0.2045,0.6009,-0.3234,0.9419c-0.1187,0.3404,-0.2414,0.6925,-0.3264,0.95l-0.02,0.0607l-0.0636,0.0069c-0.5394,0.0587,-1.0833,0.1203,-1.6303,0.1842l-0.1549,0.0181l0.0488,-0.1477c0.1216,-0.3678,0.2792,-0.8258,0.4317,-1.2687c0.1553,-0.4514,0.316,-0.9181,0.432,-1.271c0.2021,-0.6149,0.6185,-1.4441,1.8945,-1.5461c0.3926,-0.0314,0.807,-0.0982,1.2588,-0.2034c-1.4949,-0.517,-3.108,-1.0631,-5.0207,-1.6995c1.4171,1.5424,1.0614,3.1931,0.5741,4.4812c-0.0593,0.1566,-0.1368,0.3597,-0.2199,0.5769c-0.1528,0.3999,-0.326,0.8531,-0.4352,1.1486l-0.021,0.0568l-0.0601,0.0074c-0.5531,0.068,-1.1084,0.1385,-1.6652,0.2114l-0.1624,0.0213L11.05,8.5635z" fill="#6485C3"/>
  </g>
</svg>
