<?xml version="1.0" encoding="UTF-8"?>
<!DOCTYPE svg PUBLIC "-//W3C//DTD SVG 1.1//EN" "http://www.w3.org/Graphics/SVG/1.1/DTD/svg11.dtd">
<svg version="1.1" id="Layer_1" xmlns="http://www.w3.org/2000/svg" xmlns:xlink="http://www.w3.org/1999/xlink" x="0px" y="0px" width="24px" height="24px" viewBox="0 0 24 24" enable-background="new 0 0 24 24" xml:space="preserve">
  <g id="icon">
    <path d="M20.1372,3.7575c0.7106,-0.1443,1.2455,-0.7724,1.2455,-1.5256v0c0,-0.8598,-0.697,-1.5569,-1.5569,-1.5569H4.2569C3.397,0.675,2.7,1.372,2.7,2.2319v0c0,0.6971,0.4582,1.287,1.0898,1.4854v16.4189h0.4671c-0.8598,0,-1.5569,0.697,-1.5569,1.5569S3.397,23.25,4.2569,23.25h15.569c0.8598,0,1.5569,-0.697,1.5569,-1.5569s-0.697,-1.5569,-1.5569,-1.5569h0.3114V3.7575z" fill="#FFFFFF" opacity="0.5"/>
    <path d="M21,19.6313V4.3687c0.8725,-0.3099,1.5,-1.1413,1.5,-2.1187C22.5,1.0093,21.4906,0,20.25,0h-16.5C2.5093,0,1.5,1.0093,1.5,2.25c0,0.9774,0.6275,1.8089,1.5,2.1187v15.2626c-0.8725,0.3099,-1.5,1.1413,-1.5,2.1187c0,1.2406,1.0094,2.25,2.25,2.25h16.5c1.2406,0,2.25,-1.0094,2.25,-2.25C22.5,20.7726,21.8724,19.9411,21,19.6313zM19,4v16H5V4H19zM3.75,1.5h16.5c0.4135,0,0.75,0.3365,0.75,0.75s-0.3365,0.75,-0.75,0.75h-16.5c-0.4135,0,-0.75,-0.3365,-0.75,-0.75S3.3365,1.5,3.75,1.5zM20.25,22.5h-16.5c-0.4135,0,-0.75,-0.3365,-0.75,-0.75s0.3365,-0.75,0.75,-0.75h16.5c0.4135,0,0.75,0.3365,0.75,0.75S20.6635,22.5,20.25,22.5z" fill="#F2876B"/>
    <path d="M18.0747,12.4436c-0.0615,2.1493,-1.2603,4.1281,-3.1287,5.1645c-0.1065,0.0591,-0.2277,0.0904,-0.3506,0.0904c-0.0702,0,-0.1395,-0.0101,-0.2059,-0.03c-0.1847,-0.0554,-0.342,-0.1854,-0.4314,-0.3566c-0.1969,-0.3768,-0.8853,-1.6956,-1.4711,-2.8441l-0.0918,-0.1798l0.0926,-0.0222c0.3149,-0.0754,0.6125,-0.2272,0.8607,-0.4388l0.0723,-0.0617l0.0916,0.1796c0.4311,0.8454,0.9119,1.7719,1.2521,2.4245c1.1725,-0.7994,1.9616,-2.1068,2.1281,-3.5259c-0.4226,-0.0047,-1.0146,-0.0071,-1.7618,-0.0071c-0.2889,0,-1.1332,0.0015,-1.1332,0.0015l0.0234,-0.0935c0.0416,-0.1663,0.0627,-0.3374,0.0627,-0.5088c0,-0.1526,-0.0171,-0.3065,-0.0509,-0.4577l-0.0204,-0.0911c0,0,0.7883,-0.0015,1.1064,-0.0015c1.0995,0,1.8577,0.005,2.2534,0.0148c0.1923,0.0047,0.3714,0.0843,0.5041,0.2242C18.0098,12.065,18.0802,12.2494,18.0747,12.4436zM10.6607,13.8239l-0.0723,-0.0619l-0.0921,0.1805c-0.4594,0.9009,-0.968,1.8798,-1.2532,2.4269c-1.1726,-0.7993,-1.9616,-2.1067,-2.1282,-3.526c0.4282,-0.0047,1.0222,-0.007,1.7673,-0.007c0.2889,0,1.1328,0.0015,1.1328,0.0015l-0.0234,-0.0935c-0.0416,-0.1662,-0.0627,-0.3374,-0.0627,-0.5088c0,-0.1525,0.0171,-0.3064,0.0509,-0.4576l0.0204,-0.0911c0,0,-0.8481,-0.0015,-1.144,-0.0015c-1.0783,0,-1.8254,0.005,-2.2207,0.0148c-0.1926,0.0047,-0.3716,0.0842,-0.5043,0.224c-0.1334,0.1406,-0.2038,0.3251,-0.1983,0.5194c0.0615,2.1494,1.2603,4.1283,3.1288,5.1645c0.1065,0.0591,0.2277,0.0903,0.3505,0.0903c0.0701,0,0.1393,-0.0101,0.2057,-0.03c0.1846,-0.0554,0.342,-0.1853,0.4315,-0.3565c0.194,-0.371,0.8736,-1.6726,1.4722,-2.8466l0.0909,-0.1784l-0.0923,-0.0223C11.2058,14.1887,10.9085,14.0363,10.6607,13.8239zM13.6777,12.2357c0,-0.927,-0.7498,-1.6811,-1.6713,-1.6811c-0.9216,0,-1.6714,0.7542,-1.6714,1.6811c0,0.927,0.7498,1.6812,1.6714,1.6812C12.9279,13.9169,13.6777,13.1627,13.6777,12.2357zM10.3402,10.6668l0.1115,0.1832l0.0675,-0.0696c0.2271,-0.2342,0.509,-0.4137,0.8152,-0.5192l0.0881,-0.0303l-0.0993,-0.1629c-0.6187,-1.0156,-1.1008,-1.8146,-1.3993,-2.3196c0.6395,-0.2952,1.3486,-0.451,2.0563,-0.451c0.7034,0,1.4076,0.1539,2.0423,0.4458c-0.2438,0.4095,-0.8401,1.4102,-1.3813,2.301l-0.1039,0.1711l0.091,0.0288c0.3081,0.0974,0.5943,0.2698,0.8276,0.4985l0.0675,0.0662l0.1014,-0.1668c0.6026,-0.9917,1.2576,-2.0927,1.5372,-2.5628l0.082,-0.1377c0.0998,-0.1677,0.1275,-0.3641,0.0781,-0.5531c-0.0494,-0.1887,-0.1698,-0.3461,-0.3387,-0.4433c-0.9084,-0.5221,-1.9469,-0.7981,-3.003,-0.7981c-1.0588,0,-2.1008,0.2772,-3.0133,0.8018c-0.3453,0.1984,-0.4652,0.6408,-0.2672,0.9861C9.0165,8.4872,9.7666,9.7254,10.3402,10.6668z" fill="#F2876B"/>
  </g>
</svg>
