<?xml version="1.0" encoding="UTF-8"?>
<!DOCTYPE svg PUBLIC "-//W3C//DTD SVG 1.1//EN" "http://www.w3.org/Graphics/SVG/1.1/DTD/svg11.dtd">
<svg version="1.1" id="Layer_1" xmlns="http://www.w3.org/2000/svg" xmlns:xlink="http://www.w3.org/1999/xlink" x="0px" y="0px" width="24px" height="24px" viewBox="0 0 24 24" enable-background="new 0 0 24 24" xml:space="preserve">
  <g id="icon">
    <path d="M18,5h-2V3.0167C16,2.4561,15.5439,2,14.9833,2H9.0167C8.4561,2,8,2.4561,8,3.0167V5H6V3.0167C6,1.3533,7.3533,0,9.0167,0h5.9666C16.6467,0,18,1.3533,18,3.0167V5z" fill="#7B7B7B"/>
    <g>
      <polygon points="21,17 15,17 15,14 9,14 9,17 3,17 3,14 0,14 0,23 24,23 24,14 21,14" fill="#7B7B7B" stroke-linejoin="miter"/>
      <polygon points="0,4 0,13 3,13 3,10 9,10 9,13 15,13 15,10 21,10 21,13 24,13 24,4" fill="#7B7B7B" stroke-linejoin="miter"/>
    </g>
    <polygon points="24,13 21,13 21,10 15,10 15,13 9,13 9,10 3,10 3,13 0,13 0,14 3,14 3,17 9,17 9,14 15,14 15,17 21,17 21,14 24,14" fill="#FFFFFF" stroke-linejoin="miter" opacity="0.5"/>
    <path d="M8,11v5H4v-5H8zM20,11v5h-4v-5H20z" fill="#6485C3"/>
  </g>
</svg>
