<?xml version="1.0" encoding="UTF-8"?>
<!DOCTYPE svg PUBLIC "-//W3C//DTD SVG 1.1//EN" "http://www.w3.org/Graphics/SVG/1.1/DTD/svg11.dtd">
<svg version="1.1" id="Layer_1" xmlns="http://www.w3.org/2000/svg" xmlns:xlink="http://www.w3.org/1999/xlink" x="0px" y="0px" width="24px" height="24px" viewBox="0 0 24 24" enable-background="new 0 0 24 24" xml:space="preserve">
  <g id="icon">
    <rect x="0.75" y="2.25" width="22.5" height="19.5" fill="#FFFFFF" opacity="0.5"/>
    <path d="M0,1v22h24V1H0zM22,21H2V3h20V21z" fill="#7D7C7B"/>
    <rect x="4.5" y="5" width="15" height="2" fill="#6486C4"/>
    <path d="M10,12H4v1h6V12zM8,14H4v1h4V14zM10,16H4v1h6V16zM9,18H4v1h5V18zM18,8H6v1h12V8z" fill="#7D7C7B"/>
    <path d="M15.6613,20.137c-0.2271,0,-0.45,-0.0904,-0.6117,-0.248l-0.4537,-0.4424l-0.6337,-0.0075c-0.307,-0.0038,-0.593,-0.1711,-0.7465,-0.4369c-0.1474,-0.2553,-0.1565,-0.5651,-0.0244,-0.8288l0.867,-1.9222c-0.6981,-0.6963,-1.0817,-1.6183,-1.0817,-2.6042c0,-2.03,1.6515,-3.6815,3.6814,-3.6815c2.03,0,3.6815,1.6515,3.6815,3.6815c0,0.9862,-0.3836,1.9083,-1.082,2.6045l0.8676,1.9259c0.1302,0.2602,0.1209,0.5699,-0.0265,0.825c-0.1535,0.2656,-0.4394,0.4329,-0.7461,0.4366l-0.6339,0.0075l-0.4537,0.4424c-0.1617,0.1576,-0.3848,0.2479,-0.6121,0.2479l0,0c-0.076,0,-0.1515,-0.0099,-0.2244,-0.0294c-0.2964,-0.0795,-0.532,-0.3124,-0.6151,-0.6077l-0.0073,-0.0282l-0.1489,-0.6396l-0.1549,0.6632c-0.0839,0.2997,-0.3195,0.5327,-0.6159,0.6122C15.813,20.1271,15.7374,20.137,15.6613,20.137zM15.1723,18.0533l0.1866,0.182l0.2469,-1.06c-0.125,-0.0373,-0.2483,-0.0815,-0.3688,-0.1321l-0.4537,1.0056L15.1723,18.0533zM17.9557,18.2353l0.1866,-0.1819l0.3896,-0.0046l-0.453,-1.0054c-0.1208,0.0506,-0.2446,0.095,-0.3699,0.1324L17.9557,18.2353zM16.6581,11.3656c-1.258,0,-2.2814,1.0235,-2.2814,2.2815s1.0234,2.2814,2.2814,2.2814s2.2815,-1.0234,2.2815,-2.2814S17.9161,11.3656,16.6581,11.3656z" fill="#CC525E"/>
  </g>
</svg>
