<?xml version="1.0" encoding="UTF-8"?>
<!DOCTYPE svg PUBLIC "-//W3C//DTD SVG 1.1//EN" "http://www.w3.org/Graphics/SVG/1.1/DTD/svg11.dtd">
<svg version="1.1" id="Layer_1" xmlns="http://www.w3.org/2000/svg" xmlns:xlink="http://www.w3.org/1999/xlink" x="0px" y="0px" width="24px" height="24px" viewBox="0 0 24 24" enable-background="new 0 0 24 24" xml:space="preserve">
  <g id="icon">
    <rect x="2.25" y="0.75" width="19.5" height="22.5" fill="#FFFFFF" opacity="0.5"/>
    <path d="M1,0v24h22V0H1zM21,22H3V2h18V22z" fill="#7D7C7B"/>
    <path d="M5,15v5h5v-5H5zM9,19H6v-3h3V19z" fill="#6D6E71"/>
    <rect x="12" y="18" width="7" height="1" fill="#6486C4"/>
    <path d="M11.2782,4.2614l-0.0115,-0.0267c-0.0171,-0.0385,-0.0497,-0.1244,-0.0505,-0.1265l-0.1849,-0.481l-1.0748,-0.0015l-0.1911,0.465c0,0,-0.0428,0.1044,-0.0604,0.1426l-3.3549,8.2055l1.3885,0.5676l1.0117,-2.475h3.4726l1.0128,2.4752l1.3882,-0.5681L11.2782,4.2614zM9.3636,9.0316l1.1224,-2.7456l1.1234,2.7456H9.3636z" fill="#CC525E"/>
    <polygon points="18,8.45 16.5,8.45 16.5,6.5 14.55,6.5 14.55,5 16.5,5 16.5,3.05 18,3.05 18,5 19.95,5 19.95,6.5 18,6.5" fill="#CC525E" stroke-linejoin="miter"/>
  </g>
</svg>
