<?xml version="1.0" encoding="UTF-8"?>
<!DOCTYPE svg PUBLIC "-//W3C//DTD SVG 1.1//EN" "http://www.w3.org/Graphics/SVG/1.1/DTD/svg11.dtd">
<svg version="1.1" id="Layer_1" xmlns="http://www.w3.org/2000/svg" xmlns:xlink="http://www.w3.org/1999/xlink" x="0px" y="0px" width="24px" height="24px" viewBox="0 0 24 24" enable-background="new 0 0 24 24" xml:space="preserve">
  <g id="icon">
    <path d="M19.3333,22.4H4.7167C3.023,22.4,1.65,21.027,1.65,19.3333V4.7167C1.65,3.023,3.023,1.65,4.7167,1.65h14.6167C21.027,1.65,22.4,3.023,22.4,4.7167v14.6167C22.4,21.027,21.027,22.4,19.3333,22.4z" fill="#FFFFFF" opacity="0.5"/>
    <path d="M5.5327,24C2.482,24,0,21.518,0,18.4672V5.5327C0,2.482,2.482,0,5.5327,0h12.9345C21.518,0,24,2.482,24,5.5327v12.9345C24,21.518,21.518,24,18.4672,24H5.5327zM2,5.5163v12.9673C2,20.4257,3.5743,22,5.5163,22h12.9673C20.4257,22,22,20.4257,22,18.4836V5.5163C22,3.5743,20.4257,2,18.4837,2H5.5163C3.5743,2,2,3.5743,2,5.5163z" fill="#9070B1"/>
    <path d="M12.5919,14.9833H6.724l-1.6771,4.103l-1.4533,-0.5941L8.7894,5.7828c0.0283,-0.062,0.0953,-0.2245,0.0995,-0.2346l0.2008,-0.4854h1.153l0.1936,0.5034c0.0007,0.002,0.0594,0.1563,0.0856,0.2137l0.0127,0.0294l5.1893,12.6827l-1.453,0.5946L12.5919,14.9833zM11.9496,13.4133L9.6565,7.8091l-2.2907,5.6042H11.9496zM16.8938,14.9914v-2.205h-2.205v-1.57h2.205v-2.205h1.57v2.205h2.205v1.57h-2.205v2.205H16.8938z" fill="#9171B2"/>
  </g>
</svg>
