<?xml version="1.0" encoding="UTF-8"?>
<!DOCTYPE svg PUBLIC "-//W3C//DTD SVG 1.1//EN" "http://www.w3.org/Graphics/SVG/1.1/DTD/svg11.dtd">
<svg version="1.1" id="Layer_1" xmlns="http://www.w3.org/2000/svg" xmlns:xlink="http://www.w3.org/1999/xlink" x="0px" y="0px" width="24px" height="24px" viewBox="0 0 24 24" enable-background="new 0 0 24 24" xml:space="preserve">
  <g id="icon">
    <path d="M7.4769,22.5454c0.064,0.1373,0.2152,0.3975,0.3974,0.6831c-1.7687,0.0704,-3.0845,0.1573,-3.2184,0.2375c-1.0463,-0.5371,-1.4004,-1.9092,-1.2887,-3.1433c0,0,-0.609,0.4622,-1.299,-0.3322c-1.3951,-1.6062,1.7645,-4.5847,2.842,-3.5282l2.6109,0.1283c-0.675,1.0997,-0.8628,2.0828,-0.7124,3.6677C6.8965,21.1852,7.1947,21.9323,7.4769,22.5454zM22.9003,17.551c-0.3519,-0.3751,-1.2437,-1.1986,-2.2973,-1.327c-1.0536,-0.1285,-2.8568,0.4475,-2.8568,0.4475l-2.9928,0.0279l-0.0092,0.121c-0.0323,0.4093,-0.214,0.771,-0.518,1.0417c0,0,-0.096,0.16,-0.1168,0.1942c-0.0512,0.1381,-0.1654,0.5257,-0.2086,0.8321c-0.0423,0.3069,-0.0511,0.679,-0.0239,1.0178c0.0616,0.7619,0.421,1.5911,0.9157,2.1121l0.1895,0.1996c0.231,0.2433,0.345,0.5567,0.343,0.8697c1.1773,0.0061,2.1402,0.033,2.6638,0.088c2.2868,0.2402,3.4051,0.0907,4.3715,-1.0418c0.9665,-1.1325,1.1248,-2.1897,1.1237,-2.6882C23.483,18.9471,23.2522,17.9261,22.9003,17.551zM12.3777,18.6732c0.0674,-0.4782,0.2642,-1.1655,0.3932,-1.3773c0.026,-0.0407,0.0908,-0.1502,0.1461,-0.2418c0.1181,-0.1924,0.1823,-0.2793,0.2537,-0.3186c0.0255,-0.0151,0.0439,-0.031,0.0392,-0.0348l-3.7462,-0.0087c-0.0967,0.026,-0.3889,0.3254,-0.5587,0.5864c-0.525,0.8114,-0.6991,1.4214,-0.565,2.8345c0.0689,0.7262,0.3125,1.3071,0.5307,1.7813c0.1697,0.364,0.8122,1.2677,0.8797,1.3237c0.0337,0.028,4.0292,-0.0311,3.9271,-0.1392c-0.6984,-0.7355,-1.2396,-1.8815,-1.3338,-3.049C12.307,19.574,12.3193,19.0967,12.3777,18.6732z" fill="#FFFFFF" opacity="0.5"/>
    <path d="M8.2664,23.8078c-0.3399,0.0183,-0.6819,0.037,-1.0288,0.056c-0.8351,0.0458,-1.686,0.0924,-2.5586,0.1356c-0.1229,0.0061,-0.2444,-0.029,-0.3453,-0.0998c-0.097,-0.0681,-0.188,-0.1376,-0.2729,-0.2082c-1.0549,-0.8759,-1.2145,-1.9326,-1.1993,-2.9123c-0.8959,-0.0658,-1.0048,-0.1559,-1.1163,-0.2485c-0.784,-0.651,-0.5605,-2.4597,0.155,-3.5812c0.7428,-1.1643,2.0307,-1.2854,2.6079,-1.1868c0.7885,0.1345,1.9767,0.2435,3.354,0.3206c0.0025,0.0029,0.0045,0.0054,0.007,0.0083c-0.1205,0.1487,-0.2083,0.2775,-0.2553,0.3501c-0.156,0.241,-0.2873,0.4751,-0.3983,0.7095c-1.1795,-0.076,-2.1914,-0.176,-2.8937,-0.2959c-0.0096,-0.0016,-0.9594,-0.1383,-1.4882,0.6907c-0.5083,0.7968,-0.5444,1.7847,-0.4109,2.0798c0.5076,0.0887,2.2074,0.1309,4.3504,0.144c0.0082,0.1571,0.0194,0.3186,0.0355,0.4886c0.0206,0.217,0.0535,0.4232,0.0942,0.6211c-1.276,-0.0065,-2.226,-0.0225,-2.934,-0.0458c-0.0074,0.8992,0.1657,1.5088,0.8531,2.0489c0.8015,-0.0402,1.585,-0.0832,2.355,-0.1254c0.1335,-0.0073,0.2664,-0.0146,0.3995,-0.0219C7.7327,23.0144,8.0041,23.4445,8.2664,23.8078zM23.6952,20.8598c-0.7951,1.9549,-1.94,2.6417,-2.7605,2.8735c-0.4279,0.121,-0.8415,0.1392,-1.2207,0.0925c-0.0428,0.0061,-0.0866,0.0087,-0.1315,0.0043c-1.4956,-0.1471,-2.937,-0.2145,-4.3707,-0.2309c0.1609,-0.3519,0.1501,-0.7618,-0.0319,-1.1052c0.7969,0.0085,1.5973,0.0315,2.4053,0.075c-0.7279,-0.99,-0.7321,-2.2728,0.0422,-3.5348c0.6779,-1.1048,1.7547,-1.5271,2.9544,-1.1585c0.657,0.2017,1.1492,0.6011,1.3859,1.1241c0.1706,0.377,0.2927,1.0073,-0.0944,1.8694c-0.0894,0.199,-0.2871,0.327,-0.505,0.327l-3.1993,0.0005c0.0747,0.4557,0.3406,0.8609,0.7938,1.1944c0.3551,0.2612,0.9806,0.4707,1.6711,0.2756c0.8359,-0.2362,1.5398,-1.0055,2.0357,-2.2248c0.379,-0.9318,0.2624,-1.8692,-0.3199,-2.5719c-0.6555,-0.7907,-1.7544,-1.142,-2.8677,-0.9156c-0.0539,0.011,-0.107,0.0111,-0.1591,0.0065c-1.9323,0.6322,-2.9316,2.3352,-2.8836,3.2728c0.0077,0.1501,-0.0458,0.2968,-0.1484,0.4067c-0.1025,0.1098,-0.2452,0.1733,-0.3953,0.1758c-0.0152,0.0003,-0.7232,0.0121,-1.8067,0.0258c-0.1123,-0.3064,-0.1871,-0.6265,-0.2121,-0.9358c-0.0044,-0.0552,-0.0064,-0.1122,-0.0089,-0.1688c0.5189,-0.0065,1.0226,-0.0136,1.5005,-0.0211c0.1361,-0.8256,0.6309,-1.7435,1.4231,-2.5017c-0.6734,0.0386,-1.4032,0.0655,-2.162,0.0821c0.0617,-0.1489,0.1014,-0.3083,0.1147,-0.4762l0.0478,-0.6315c1.7027,-0.0422,3.2362,-0.1405,4.2816,-0.3053c0.0487,-0.0077,0.0966,-0.0065,0.1436,-0.0016c0.0148,-0.0043,0.0286,-0.0105,0.0441,-0.0137c1.5141,-0.308,3.0241,0.1878,3.9408,1.2941C24.0533,18.1897,24.233,19.5374,23.6952,20.8598zM18.327,20.0882l2.6524,-0.0004c0.0533,-0.2082,0.0679,-0.4351,-0.0207,-0.6307c-0.0497,-0.1098,-0.1257,-0.1998,-0.2144,-0.2734c-0.1488,-0.1235,-0.333,-0.2009,-0.4876,-0.2484c-0.7086,-0.2177,-1.2757,0.0108,-1.6857,0.6789C18.4725,19.7749,18.3911,19.9332,18.327,20.0882z" fill="#7D7C7B"/>
    <path d="M12.8197,14.3044c-0.4448,0.427,-0.8417,0.8942,-1.1241,1.2966c-0.0143,-0.0583,-0.023,-0.0996,-0.028,-0.1288c0.1527,-0.5542,0.2705,-0.8407,0.4851,-1.154c-0.4136,-0.0018,-0.825,-0.0231,-1.2322,-0.0617c-0.0174,0.0381,-0.0356,0.0744,-0.0523,0.1142c-0.03,-0.0432,-0.0572,-0.0859,-0.0829,-0.1286c-0.4306,-0.0451,-0.8552,-0.1099,-1.2707,-0.195c0.0902,0.3528,0.2454,0.6801,0.4765,1.0018c0.0457,0.0677,0.208,0.3662,0.354,0.6376c-0.5092,-0.5272,-0.9811,-1.0411,-1.0737,-1.1907c-0.1139,-0.1833,-0.206,-0.3729,-0.2792,-0.5676c-0.4225,-0.1055,-0.8347,-0.2294,-1.2296,-0.376c-0.0065,-0.0024,-0.0126,-0.0053,-0.0191,-0.0077c0.0905,0.5377,0.2856,1.0511,0.587,1.536c0.1366,0.2206,0.5477,0.6737,0.9449,1.0919c-0.4025,0.1466,-0.83,0.7967,-0.8351,0.8046c-0.6298,0.9734,-0.7881,1.7481,-0.6515,3.1881c0.0737,0.7777,0.3218,1.402,0.5802,1.9634c0.1696,0.3637,0.8516,1.3695,1.0279,1.5158c0.1913,0.1588,0.1949,0.1618,2.3067,0.1108c2.1557,-0.0521,2.1984,-0.0977,2.378,-0.2894l0.3575,-0.3897l-0.36,-0.3792c-0.6501,-0.6847,-1.1035,-1.7238,-1.1833,-2.7117c-0.0332,-0.4129,-0.0223,-0.8519,0.0304,-1.2346c0.0659,-0.4668,0.2506,-1.0519,0.3117,-1.1567c0.0191,-0.0299,0.0575,-0.0938,0.0989,-0.1628l0.0522,-0.087c0.055,-0.0896,0.0848,-0.1334,0.1004,-0.1546c0.2069,-0.1377,0.2633,-0.3155,0.2734,-0.4435l0.0218,-0.2883l-0.3742,-0.3107l-0.7412,-0.0017c0.5211,-0.7114,1.4492,-1.6507,2.182,-1.9583c0.2682,-0.112,0.6884,-0.2357,0.8334,-0.2568c0.1865,-0.0234,0.3794,-0.0475,0.5274,-0.2261c0.0034,-0.0041,0.0053,-0.0092,0.0086,-0.0134C15.1726,14.0393,14.025,14.2511,12.8197,14.3044zM10.0262,22.672c-0.199,-0.2747,-0.5517,-0.7935,-0.6526,-1.0096c-0.2014,-0.4377,-0.4214,-0.9585,-0.4824,-1.6019c-0.1223,-1.2892,0.019,-1.7708,0.4778,-2.4798c0.0812,-0.1248,0.1952,-0.2546,0.2754,-0.3342l2.5356,0.0059c-0.1506,0.3729,-0.2944,0.944,-0.3509,1.345c-0.0636,0.4617,-0.077,0.9861,-0.0374,1.4769c0.0717,0.8879,0.3734,1.785,0.8398,2.5427C11.7733,22.6504,10.5482,22.674,10.0262,22.672z" fill="#CC525E"/>
    <path d="M18.0729,5.7077v4.3018c-2.6762,3.4332,-10.1128,3.3698,-12.7851,0V5.5211l0.0592,0.0006L2.1555,4.3702L12,0.7939l9.8445,3.5076L18.0729,5.7077z" fill="#FFFFFF" opacity="0.5"/>
    <path d="M11.714,13.2942c-1.3693,0,-2.7155,-0.2347,-3.8931,-0.6788c-1.3018,-0.4908,-2.3727,-1.233,-3.097,-2.1462c-0.1029,-0.1298,-0.1596,-0.2931,-0.1596,-0.4597V6.0523l-2.6621,-0.9605c-0.3,-0.1082,-0.5018,-0.3978,-0.5022,-0.7207c-0.0003,-0.3228,0.2008,-0.6129,0.5005,-0.722l9.8447,-3.5764c0.0817,-0.0298,0.1674,-0.0449,0.2547,-0.0449c0.0854,0,0.1697,0.0146,0.2505,0.0433l9.8446,3.5076c0.2997,0.1069,0.5026,0.3951,0.505,0.7172c0.0022,0.322,-0.1966,0.6131,-0.4947,0.7243L18.7964,6.254v3.7555c0,0.1646,-0.0554,0.3262,-0.156,0.455c-1.3715,1.7594,-3.9419,2.8173,-6.8756,2.8296l-0.0504,0.0001H11.714zM6.0113,9.7388c1.1585,1.2896,3.334,2.0883,5.6998,2.0883l0.048,-0.0001c2.3678,-0.0101,4.4511,-0.7881,5.5902,-2.0842V6.3519l-5.0208,1.872c-0.084,0.0312,-0.1716,0.047,-0.2607,0.047c-0.0868,0,-0.1721,-0.0149,-0.2536,-0.0444l-5.803,-2.0936V9.7388zM12.0636,7.132l5.6101,-2.0917c0.0958,-0.0647,0.2048,-0.1054,0.3181,-0.1186l1.62,-0.6041l-7.6094,-2.7112L4.402,4.3678L12.0636,7.132z" fill="#6486C4"/>
    <path d="M2.2078,5.1472v4.2699c-0.3844,0.2038,-0.6354,0.6087,-0.6389,1.0469l-0.1277,2.6967l-0.0004,0.0212c0,0.6047,0.4856,1.0966,1.0825,1.0966h0.4688c0.5969,0,1.0824,-0.4919,1.0822,-1.1077l-0.1276,-2.6976c-0.0038,-0.4463,-0.2548,-0.8521,-0.6393,-1.0561V5.544L2.2078,5.1472z" fill="#6486C4"/>
  </g>
</svg>
