<?xml version="1.0" encoding="UTF-8"?>
<!DOCTYPE svg PUBLIC "-//W3C//DTD SVG 1.1//EN" "http://www.w3.org/Graphics/SVG/1.1/DTD/svg11.dtd">
<svg version="1.1" id="Layer_1" xmlns="http://www.w3.org/2000/svg" xmlns:xlink="http://www.w3.org/1999/xlink" x="0px" y="0px" width="24px" height="24px" viewBox="0 0 24 24" enable-background="new 0 0 24 24" xml:space="preserve">
  <g id="icon">
    <path d="M16.7207,9.4249c0.2712,0.7424,0.4086,1.6088,0.4086,2.5751c0,0.9664,-0.1375,1.8329,-0.4086,2.5751c-0.2656,0.7269,-0.6386,1.3464,-1.1088,1.8413c-0.4652,0.4898,-1.0311,0.8685,-1.6821,1.1255c-0.6659,0.2632,-1.4187,0.3965,-2.2376,0.3965H7.9497V6.0615h3.7424c0.8185,0,1.5714,0.1334,2.2375,0.3964c0.6512,0.2574,1.2172,0.6361,1.6823,1.1258C16.0821,8.0785,16.4551,8.698,16.7207,9.4249zM24,5.35v13.3c0,2.95,-2.4,5.35,-5.35,5.35h-13.3C2.4,24,0,21.6,0,18.65v-13.3C0,2.4,2.4,0,5.35,0h13.3C21.6,0,24,2.4,24,5.35zM18.7343,12c0,-1.1548,-0.1703,-2.2064,-0.5061,-3.1258c-0.3415,-0.9346,-0.8302,-1.7407,-1.4526,-2.3959c-0.627,-0.6602,-1.3861,-1.1692,-2.2563,-1.5132c-0.8549,-0.3375,-1.8061,-0.5086,-2.8272,-0.5086H6.3447v15.087h5.3474c1.0216,0,1.9729,-0.1712,2.8272,-0.5088c0.8697,-0.3434,1.6289,-0.8525,2.2562,-1.5129c0.6224,-0.6552,1.1112,-1.4613,1.4527,-2.3959C18.564,14.2066,18.7343,13.1548,18.7343,12z" fill="#9171B2"/>
    <path d="M11.6922,19.5435H6.3447V4.4565h5.3474c1.0211,0,1.9723,0.1712,2.8272,0.5086c0.8702,0.344,1.6293,0.853,2.2563,1.5132c0.6223,0.6552,1.111,1.4613,1.4526,2.3959c0.3358,0.9194,0.5061,1.9711,0.5061,3.1258c0,1.1548,-0.1703,2.2066,-0.5061,3.1259c-0.3415,0.9346,-0.8302,1.7407,-1.4527,2.3959c-0.6273,0.6604,-1.3864,1.1695,-2.2562,1.5129C13.6651,19.3723,12.7138,19.5435,11.6922,19.5435zM7.9497,17.9385h3.7424c0.8189,0,1.5717,-0.1334,2.2376,-0.3965c0.651,-0.2571,1.2169,-0.6357,1.6821,-1.1255c0.4702,-0.4949,0.8433,-1.1144,1.1088,-1.8413c0.2712,-0.7422,0.4086,-1.6087,0.4086,-2.5751c0,-0.9664,-0.1375,-1.8327,-0.4086,-2.5751c-0.2656,-0.7269,-0.6386,-1.3464,-1.1088,-1.8412c-0.465,-0.4897,-1.031,-0.8684,-1.6823,-1.1258c-0.6661,-0.263,-1.419,-0.3964,-2.2375,-0.3964H7.9497V17.9385z" fill="#FFFFFF" opacity="0.5"/>
  </g>
</svg>
