<?xml version="1.0" encoding="UTF-8"?>
<!DOCTYPE svg PUBLIC "-//W3C//DTD SVG 1.1//EN" "http://www.w3.org/Graphics/SVG/1.1/DTD/svg11.dtd">
<svg version="1.1" id="Layer_1" xmlns="http://www.w3.org/2000/svg" xmlns:xlink="http://www.w3.org/1999/xlink" x="0px" y="0px" width="24px" height="24px" viewBox="0 0 24 24" enable-background="new 0 0 24 24" xml:space="preserve">
  <g id="icon">
    <path d="M7.642,9.2779l1.3164,3.5782h-2.631L7.642,9.2779zM18.7689,13.2586c-0.1669,-0.1437,-0.3707,-0.2526,-0.6229,-0.3329c-0.2732,-0.0868,-0.5877,-0.1307,-0.935,-0.1307h-2.0417v3.472h2.028c0.3699,0,0.699,-0.0428,0.9783,-0.127c0.2494,-0.0753,0.4503,-0.1805,0.6138,-0.3215c0.1563,-0.1348,0.2743,-0.3043,0.3605,-0.518c0.1001,-0.2484,0.1447,-0.5043,0.1447,-0.8297c0,-0.2661,-0.0427,-0.4742,-0.1428,-0.6956C19.059,13.5697,18.9338,13.4008,18.7689,13.2586zM17.8482,11.0494c0.2458,-0.1073,0.4438,-0.2414,0.5885,-0.3988c0.1312,-0.1427,0.2494,-0.3498,0.3244,-0.5682c0.0737,-0.216,0.111,-0.4262,0.111,-0.625c0,-0.4016,-0.0793,-0.9528,-0.457,-1.2975c-0.3034,-0.277,-0.8501,-0.4234,-1.5809,-0.4234h-1.6649v3.4721h1.7338C17.288,11.2086,17.606,11.155,17.8482,11.0494zM24,4.35v15.3c0,2.3986,-1.9514,4.35,-4.35,4.35h-15.3C1.9514,24,0,22.0486,0,19.65v-15.3C0,1.9514,1.9514,0,4.35,0h15.3C22.0486,0,24,1.9514,24,4.35zM12.4371,17.4958L8.5349,6.888c-0.0149,-0.0361,-0.0445,-0.1212,-0.0622,-0.1725l-0.1882,-0.5448H7.017l-0.1986,0.5346c-0.0106,0.0286,-0.052,0.1398,-0.0724,0.1895L2.85,17.496l1.5871,0.5039l1.3099,-3.5647h3.792L10.8503,18L12.4371,17.4958zM21,14.4708c0,-0.4768,-0.0876,-0.8931,-0.2757,-1.3101c-0.1865,-0.413,-0.4547,-0.7718,-0.797,-1.0665c-0.0617,-0.0531,-0.1261,-0.1042,-0.1927,-0.1531l-0.146,-0.107l0.144,-0.1522c0.3558,-0.387,0.5517,-0.8217,0.6533,-1.1182c0.1271,-0.3715,0.1915,-0.7438,0.1915,-1.1064c0,-1.0116,-0.3346,-1.8519,-0.9677,-2.43c-0.6376,-0.5822,-1.5715,-0.8774,-2.7756,-0.8774h-3.3703v11.7037h3.7334c0.5492,0,1.0556,-0.0689,1.5051,-0.2047c0.4825,-0.1457,0.9015,-0.3699,1.2456,-0.6661c0.3511,-0.3026,0.6197,-0.6811,0.7987,-1.1252C20.9196,15.429,21,14.9883,21,14.4708z" fill="#54B14C"/>
    <path d="M9.539,14.4351H5.747l-1.3099,3.5647L2.85,17.496L6.7459,6.8949c0.0204,-0.0497,0.0618,-0.1609,0.0724,-0.1895l0.1986,-0.5346h1.2676l0.1882,0.5448c0.0177,0.0513,0.0472,0.1364,0.0622,0.1725l3.9022,10.6078L10.8503,18L9.539,14.4351zM6.3273,12.8561h2.6311L7.642,9.2779L6.3273,12.8561zM13.4639,17.8537V6.15h3.3703c1.2041,0,2.1379,0.2952,2.7756,0.8774c0.6331,0.5781,0.9677,1.4184,0.9677,2.43c0,0.3626,-0.0644,0.7349,-0.1915,1.1064c-0.1016,0.2965,-0.2975,0.7313,-0.6533,1.1182l-0.144,0.1522l0.146,0.107c0.0666,0.049,0.131,0.1,0.1927,0.1531c0.3422,0.2947,0.6104,0.6535,0.7969,1.0665c0.1881,0.417,0.2757,0.8332,0.2757,1.3101c0,0.5175,-0.0804,0.9582,-0.2531,1.3869c-0.179,0.4441,-0.4476,0.8227,-0.7987,1.1252c-0.3441,0.2962,-0.7631,0.5203,-1.2456,0.6661c-0.4495,0.1358,-0.9559,0.2047,-1.5051,0.2047H13.4639zM15.1693,16.2671h2.028c0.3699,0,0.699,-0.0428,0.9783,-0.127c0.2494,-0.0753,0.4503,-0.1805,0.6138,-0.3215c0.1563,-0.1348,0.2743,-0.3043,0.3605,-0.518c0.1001,-0.2484,0.1447,-0.5043,0.1447,-0.8298c0,-0.2661,-0.0427,-0.4742,-0.1428,-0.6956c-0.0928,-0.2055,-0.218,-0.3744,-0.383,-0.5166c-0.1669,-0.1437,-0.3707,-0.2526,-0.6229,-0.3329c-0.2731,-0.0868,-0.5877,-0.1307,-0.935,-0.1307h-2.0417V16.2671zM15.1693,11.2086h1.7338c0.3849,0,0.7029,-0.0536,0.9451,-0.1592c0.2458,-0.1073,0.4438,-0.2414,0.5885,-0.3988c0.1312,-0.1427,0.2494,-0.3498,0.3244,-0.5682c0.0737,-0.216,0.111,-0.4262,0.111,-0.625c0,-0.4016,-0.0793,-0.9528,-0.457,-1.2975c-0.3034,-0.277,-0.8501,-0.4234,-1.5809,-0.4234h-1.6649V11.2086z" fill="#FFFFFF" opacity="0.5"/>
  </g>
</svg>
