<?xml version="1.0" encoding="UTF-8"?>
<!DOCTYPE svg PUBLIC "-//W3C//DTD SVG 1.1//EN" "http://www.w3.org/Graphics/SVG/1.1/DTD/svg11.dtd">
<svg version="1.1" id="Layer_1" xmlns="http://www.w3.org/2000/svg" xmlns:xlink="http://www.w3.org/1999/xlink" x="0px" y="0px" width="24px" height="24px" viewBox="0 0 24 24" enable-background="new 0 0 24 24" xml:space="preserve">
  <g id="icon">
    <rect x="0.8" y="1.7" width="22.5" height="17.3" fill="#FFFFFF" opacity="0.5"/>
    <path d="M24,20H0V1h24V20zM2,18h20V3H2V18zM21,22H3v2h18V22z" fill="#7D7C7B"/>
    <path d="M8.8261,6.1444c-0.012,-0.0297,-0.0357,-0.0998,-0.0499,-0.142L8.6065,5.5H7.4671l-0.1789,0.4926c-0.0086,0.0237,-0.0423,0.1163,-0.0596,0.1597L4,15.1349l1.4323,0.465l1.0844,-3.0174h3.0264L10.6286,15.6l1.4321,-0.4652L8.8261,6.1444zM7.0465,11.1468l0.9826,-2.7345l0.9839,2.7345H7.0465zM19.6737,11.4644c-0.1532,-0.3516,-0.3737,-0.6574,-0.6552,-0.9086c-0.0507,-0.0453,-0.1038,-0.0888,-0.1587,-0.1306l-0.0633,-0.0481l0.0711,-0.0778c0.2926,-0.3298,0.4534,-0.6995,0.5367,-0.9515c0.104,-0.3153,0.1567,-0.6312,0.1567,-0.9389c0,-0.8583,-0.2752,-1.5724,-0.7959,-2.0653c-0.5244,-0.4963,-1.2894,-0.7479,-2.2735,-0.7479h-2.7702v9.858h3.0616c0.4476,0,0.8609,-0.0583,1.2283,-0.1733c0.3963,-0.1241,0.7408,-0.3151,1.024,-0.5678c0.2891,-0.2582,0.5104,-0.5811,0.6576,-0.9597c0.1414,-0.3636,0.2072,-0.737,0.2072,-1.1751C19.9,12.1728,19.8281,11.819,19.6737,11.4644zM15.2046,7.0313h1.2762c0.5714,0,0.996,0.116,1.228,0.3354c0.2884,0.2728,0.3489,0.716,0.3489,1.0397c0,0.1597,-0.0291,0.3291,-0.0865,0.5033c-0.0578,0.1748,-0.1486,0.3399,-0.249,0.4532c-0.1104,0.1245,-0.2626,0.2312,-0.4523,0.317c-0.1862,0.0842,-0.4331,0.127,-0.7336,0.127h-1.3317V7.0313zM18.286,13.2515c-0.0658,0.1693,-0.1554,0.303,-0.2739,0.4089c-0.1247,0.1114,-0.2786,0.1947,-0.4703,0.2547c-0.2184,0.0683,-0.4768,0.103,-0.7681,0.103h-1.5691v-2.7756h1.5801c0.2729,0,0.5192,0.0356,0.7322,0.1057c0.1944,0.0641,0.351,0.1507,0.4786,0.2647c0.126,0.1125,0.2218,0.2466,0.293,0.4098c0.0772,0.177,0.1101,0.3436,0.1101,0.5572C18.3985,12.8442,18.3638,13.0513,18.286,13.2515z" fill="#54B14C"/>
  </g>
</svg>
