<?xml version="1.0" encoding="UTF-8"?>
<!DOCTYPE svg PUBLIC "-//W3C//DTD SVG 1.1//EN" "http://www.w3.org/Graphics/SVG/1.1/DTD/svg11.dtd">
<svg version="1.1" id="Layer_1" xmlns="http://www.w3.org/2000/svg" xmlns:xlink="http://www.w3.org/1999/xlink" x="0px" y="0px" width="24px" height="24px" viewBox="0 0 24 24" enable-background="new 0 0 24 24" xml:space="preserve">
  <g id="icon">
    <polygon points="10.0294,21.4217 13.0516,17.6038 11.2383,16.8743" fill="#FFFFFF" stroke-linejoin="miter" opacity="0.5"/>
    <polygon points="23.1338,1.773 19.9423,20.0843 11.0932,16.6555 9.8601,22.127 7.394,15.78 0.866,13.0807" fill="#FFFFFF" stroke-linejoin="miter" opacity="0.5"/>
    <path d="M9.8599,23c-0.3588,0,-0.6751,-0.2177,-0.806,-0.5547l-2.3311,-5.9992L0.5374,13.8885c-0.3129,-0.1294,-0.5236,-0.4332,-0.5367,-0.774c-0.0131,-0.3407,0.1736,-0.6601,0.4758,-0.8135L22.7442,0.9932C22.8646,0.9323,22.9993,0.9,23.1338,0.9c0.1875,0,0.3662,0.0596,0.5165,0.1722c0.2645,0.1982,0.3935,0.5246,0.3364,0.8518l-3.1915,18.3113c-0.045,0.2579,-0.2004,0.4797,-0.4264,0.6087c-0.1298,0.0741,-0.2773,0.1132,-0.4266,0.1132c-0.1066,0,-0.211,-0.0195,-0.3106,-0.058l-7.9156,-3.0671l-1.0115,4.4882c-0.0847,0.3761,-0.398,0.6482,-0.7796,0.6771C9.9035,22.9992,9.8816,23,9.8599,23zM7.7226,14.9722c0.2178,0.0902,0.3919,0.2685,0.4777,0.4894l1.4391,3.7039l0.6093,-2.7035c0.0558,-0.2471,0.2149,-0.4573,0.4367,-0.5768c0.1251,-0.0673,0.266,-0.1029,0.4078,-0.1029c0.1067,0,0.2112,0.0196,0.3107,0.0582l7.8675,3.0485l2.7108,-15.5538l-19.031,9.6641L7.7226,14.9722z" fill="#6484C3"/>
    <path d="M7.3943,16.2539c-0.1357,0,-0.2648,-0.0589,-0.354,-0.1617c-0.1707,-0.1967,-0.1509,-0.4967,0.0441,-0.6688l15.872,-13.8687c0.0857,-0.0756,0.1957,-0.1172,0.3094,-0.1172c0.1357,0,0.2647,0.0589,0.354,0.1617c0.1707,0.1966,0.1509,0.4966,-0.0442,0.6688L7.7036,16.1367C7.618,16.2123,7.5081,16.2539,7.3943,16.2539z" fill="#6485C3"/>
    <path d="M10.796,16.8301c-0.1114,0,-0.2196,-0.0402,-0.3045,-0.1131c-0.1974,-0.1694,-0.2211,-0.4692,-0.053,-0.6681L22.9277,2.3679c0.0894,-0.106,0.22,-0.1667,0.3581,-0.1667c0.1114,0,0.2196,0.0402,0.3046,0.1132c0.0956,0.0821,0.1538,0.1968,0.1638,0.323c0.01,0.1262,-0.0293,0.2488,-0.1107,0.3452L11.1542,16.6634C11.0647,16.7693,10.9342,16.8301,10.796,16.8301z" fill="#6485C3"/>
    <path d="M10.1566,22.9271c-0.1046,0,-0.2038,-0.0342,-0.2869,-0.0988c-0.2051,-0.1597,-0.2431,-0.4579,-0.0847,-0.6648l3.409,-4.4501c0.0897,-0.1171,0.2255,-0.1843,0.3726,-0.1843c0.1046,0,0.2038,0.0342,0.2868,0.0988c0.0994,0.0774,0.163,0.1891,0.1789,0.3147c0.016,0.1255,-0.0174,0.2499,-0.0942,0.35l-3.409,4.4501C10.4394,22.8599,10.3036,22.9271,10.1566,22.9271z" fill="#6485C3"/>
  </g>
</svg>
