<?xml version="1.0" encoding="UTF-8"?>
<!DOCTYPE svg PUBLIC "-//W3C//DTD SVG 1.1//EN" "http://www.w3.org/Graphics/SVG/1.1/DTD/svg11.dtd">
<svg version="1.1" id="Layer_1" xmlns="http://www.w3.org/2000/svg" xmlns:xlink="http://www.w3.org/1999/xlink" x="0px" y="0px" width="24px" height="24px" viewBox="0 0 24 24" enable-background="new 0 0 24 24" xml:space="preserve">
  <g id="icon">
    <path d="M16.2335,23.3518c-0.1557,0,-0.3081,-0.0399,-0.4406,-0.1154c-0.1263,-0.0716,-0.2863,-0.2271,-0.3724,-0.3619c-0.0434,-0.0672,-0.5012,-0.9168,-1.1156,-2.0776c-0.5645,-1.0627,-1.1238,-2.1099,-1.2212,-2.287c-0.2063,-0.3752,-2.3899,-4.0962,-2.5397,-4.3276c-0.1783,-0.2772,-0.2253,-0.5312,-0.1622,-0.8763c0.1006,-0.5306,0.4236,-2.0107,0.8428,-3.8619c0.2568,-1.1515,0.2568,-1.1515,0.1872,-1.2207c-0.0518,-0.0521,-0.0585,-0.0588,-1.2568,-0.063l-1.1617,-0.0089l-1.8896,0.526c-1.5069,0.4174,-1.8748,0.5158,-2.0278,0.5239c-0.0177,0.0009,-0.0355,0.0014,-0.053,0.0014c-0.4102,0,-0.6988,-0.2465,-0.772,-0.6594c-0.056,-0.3142,0.1369,-0.6603,0.4585,-0.823c0.1838,-0.0912,3.5518,-1.2602,3.7817,-1.3128c0.0744,-0.0089,0.1971,-0.034,0.2592,-0.0479c0.0307,-0.0064,0.2649,-0.0349,1.9102,-0.1168c0.9492,-0.0463,1.849,-0.0959,1.9255,-0.1061c0.0962,-0.0138,0.2012,-0.0207,0.3137,-0.0207c0.6585,0,1.4965,0.2354,1.9926,0.5597c0.48,0.3134,0.6983,0.7615,0.6313,1.2957c-0.0343,0.2579,-1.5729,5.9932,-1.7515,6.5289l-0.1386,0.4108l0.6126,1.1285c0.3067,0.5611,0.6415,1.1869,0.7167,1.3395c0.3634,0.7267,2.1203,4.4953,2.1864,4.6896c0.0442,0.1605,0.0481,0.44,0.0073,0.5942C17.0506,23.0621,16.6625,23.3518,16.2335,23.3518z" fill="#FFFFFF" opacity="0.5"/>
    <path d="M17.7696,21.8903l-0.0092,-0.0294c-0.092,-0.2707,-1.9174,-4.1648,-2.2186,-4.7674c-0.0807,-0.1638,-0.4076,-0.775,-0.7283,-1.362l-0.4782,-0.8808l0.0493,-0.1461c0.1606,-0.4818,1.7303,-6.2817,1.7797,-6.6529c0.0984,-0.7849,-0.228,-1.4655,-0.9187,-1.9166c-0.5989,-0.3916,-1.5636,-0.665,-2.3459,-0.665c-0.14,0,-0.2744,0.0089,-0.389,0.0252c-0.084,0.0084,-0.8589,0.0526,-1.8823,0.1025c-1.8245,0.0908,-1.9486,0.1168,-2.0186,0.1315c-0.0715,0.0159,-0.1609,0.0329,-0.2083,0.0389l-0.0546,0.0098c-0.2861,0.0656,-3.6995,1.2523,-3.9289,1.3662c-0.5792,0.2929,-0.9094,0.9147,-0.803,1.5122c0.1267,0.7131,0.6924,1.1923,1.408,1.1923c0.0286,0,0.0575,-0.0008,0.0875,-0.0023c0.2224,-0.0119,0.5052,-0.0866,2.1666,-0.5467l1.8021,-0.5016l1.0737,0.0083c0.2033,0.0007,0.3904,0.0014,0.5513,0.0028c-0.0307,0.1397,-0.0674,0.3044,-0.1094,0.4924c-0.4208,1.8585,-0.7457,3.3478,-0.8482,3.8883c-0.092,0.5028,-0.011,0.9296,0.2553,1.3434c0.1481,0.2289,2.3114,3.9158,2.516,4.2881c0.0967,0.1758,0.6538,1.2191,1.2163,2.2778c0.0424,0.0802,1.041,1.9665,1.1421,2.1232c0.1421,0.2222,0.3822,0.4536,0.5969,0.5752c0.2298,0.1309,0.4927,0.2002,0.7605,0.2002c0.7171,-0.0002,1.3677,-0.492,1.547,-1.1693C17.8498,22.5671,17.846,22.1668,17.7696,21.8903zM16.5319,22.4977c-0.0304,0.1148,-0.1644,0.2083,-0.2985,0.2083c-0.0438,0,-0.0858,-0.0107,-0.1219,-0.0313c-0.0285,-0.0168,-0.112,-0.0932,-0.1424,-0.1407c-0.0393,-0.0645,-0.4383,-0.8013,-1.0939,-2.0401c-0.5659,-1.065,-1.1272,-2.1161,-1.2256,-2.2952c-0.2081,-0.3783,-2.4116,-4.1325,-2.5625,-4.3658c-0.0888,-0.1379,-0.104,-0.2257,-0.0708,-0.4067c0.0992,-0.5233,0.4204,-1.995,0.8385,-3.8416c0.1354,-0.6069,0.1972,-0.8839,0.224,-1.0589c0.0237,-0.1548,0.0731,-0.477,-0.2093,-0.7578c-0.247,-0.2484,-0.2744,-0.2485,-1.7097,-0.2534L8.9075,7.505l-1.9762,0.5501c-0.949,0.2628,-1.7685,0.4897,-1.8889,0.5013l-0.0195,0.0005c-0.086,0,-0.1155,-0.0098,-0.136,-0.1246c-0.0004,-0.0202,0.0312,-0.0893,0.1048,-0.1306c0.2876,-0.1206,3.2471,-1.1483,3.627,-1.2597c0.0944,-0.014,0.1995,-0.0361,0.2458,-0.0462c0.0627,-0.0067,0.3947,-0.0365,1.8274,-0.1078c0.0739,-0.0036,1.811,-0.0885,1.9857,-0.112c0.0658,-0.0094,0.1405,-0.0141,0.222,-0.0141c0.5294,0,1.2495,0.1996,1.6395,0.4546c0.2697,0.1761,0.3764,0.3804,0.3451,0.6617c-0.0834,0.4239,-1.5655,5.9397,-1.7242,6.4156l-0.2288,0.6778l0.7479,1.3778c0.297,0.5435,0.6331,1.1713,0.7058,1.3186c0.3945,0.789,1.9832,4.2113,2.1454,4.5925C16.5417,22.3302,16.5415,22.4573,16.5319,22.4977z" fill="#6486C4"/>
    <path d="M15.44,4.7798c-0.6886,0,-1.3306,-0.3451,-1.7174,-0.9231c-0.136,-0.2029,-0.2287,-0.4153,-0.2919,-0.6683c-0.0665,-0.2659,-0.0618,-0.7152,0.0102,-0.9811c0.2275,-0.8362,0.8589,-1.397,1.7321,-1.5385c0.018,-0.0024,0.1332,-0.009,0.2587,-0.0112l0.0263,-0.0001c0.9021,0,1.709,0.6131,1.9621,1.491c0.2787,0.9661,-0.1749,1.9849,-1.0785,2.4225C16.0567,4.7095,15.7534,4.7798,15.44,4.7798z" fill="#FFFFFF" opacity="0.5"/>
    <path d="M18.0407,1.9695c-0.3323,-1.1529,-1.3952,-1.958,-2.5867,-1.958l-0.0338,0.0003c-0.0661,0.0011,-0.2547,0.0064,-0.3325,0.0167l-0.0181,0.0027c-1.1342,0.1837,-1.9551,0.9152,-2.2522,2.0072c-0.1008,0.3723,-0.1065,0.934,-0.0134,1.3065c0.0819,0.3276,0.2032,0.6044,0.3817,0.8708c0.5069,0.7576,1.3496,1.2099,2.2542,1.2099c0.4123,0,0.8105,-0.0922,1.1832,-0.2737C17.8106,4.5769,18.4068,3.2385,18.0407,1.9695zM16.059,3.9901c-0.1961,0.0954,-0.4043,0.1438,-0.619,0.1438c-0.4727,0,-0.9141,-0.2379,-1.1808,-0.6367c-0.0932,-0.1391,-0.1574,-0.287,-0.202,-0.4657c-0.0398,-0.1589,-0.0362,-0.4957,0.0069,-0.6548c0.1605,-0.5903,0.5713,-0.9588,1.1883,-1.0664c0.0355,-0.0022,0.1083,-0.0056,0.1831,-0.0069l0.0234,-0.0001c0.6158,0.0003,1.167,0.4213,1.3407,1.0241C16.9908,2.9903,16.6796,3.6895,16.059,3.9901z" fill="#6486C4"/>
    <path d="M10.5649,17.2986c-0.2014,0.2501,-0.4048,0.4935,-0.5686,0.6733c-0.346,0.3834,-0.4515,0.4581,-0.6597,0.533c-0.107,0.038,-0.1456,0.0462,-0.3096,0.0462l-0.0562,-0.0003c-0.2237,0,-0.2514,-0.0056,-0.3661,-0.0493c-0.1026,-0.039,-0.5559,-0.1368,-2.4961,-0.5035c-1.2922,-0.2438,-2.3764,-0.4522,-2.4469,-0.4687c-0.4695,-0.116,-0.7861,-0.4929,-0.7861,-0.9375c0,-0.4269,0.2485,-0.7714,0.6486,-0.899l0.0225,-0.007c0.0977,-0.0308,0.1468,-0.0463,0.2646,-0.0463c0.2494,0,0.7835,0.074,2.2109,0.2718l0.1368,0.0189c2.0075,0.2746,2.2312,0.3033,2.263,0.3033h0.0913l0.038,-0.0733c0.0094,-0.0138,0.034,-0.0496,0.0704,-0.1024c0.088,-0.1276,0.2428,-0.3524,0.4161,-0.6067c0.057,-0.083,0.1423,-0.2018,0.2395,-0.3353C9.4583,15.4158,10.0234,16.3749,10.5649,17.2986z" fill="#FFFFFF" opacity="0.5"/>
    <path d="M21.0792,12.0979c-0.0716,-0.2153,-0.2375,-0.3969,-0.4653,-0.5103c-0.0931,-0.0447,-1.4327,-0.8916,-1.5851,-0.988l-1.4912,-0.9425l-0.5472,-0.61c-0.0223,-0.0248,-0.0541,-0.058,-0.0918,-0.0965c-0.1426,0.5656,-0.3527,1.3611,-0.5761,2.192c0.0398,0.0388,0.0782,0.0819,0.1061,0.121c0.0373,0.0497,0.1095,0.1215,0.1514,0.1505c0.0601,0.0398,0.7464,0.4075,1.6724,0.8914c1.6298,0.8531,1.7033,0.8863,1.9659,0.8863l0.0428,-0.0002c0.3433,-0.0038,0.6183,-0.1591,0.7543,-0.4255C21.1282,12.5426,21.1502,12.3116,21.0792,12.0979z" fill="#FFFFFF" opacity="0.5"/>
    <path d="M21.5922,13.0569c-0.2464,0.4828,-0.7411,0.7741,-1.3239,0.7805l-0.0479,0.0003h-0.0007c-0.433,0,-0.5365,-0.0542,-2.2655,-0.9594c-0.0655,-0.0342,-1.5804,-0.826,-1.7311,-0.9259c-0.0341,-0.0235,-0.067,-0.0496,-0.0985,-0.0766c0.1297,-0.4785,0.2605,-0.9644,0.3821,-1.4215c0.0441,0.0394,0.0733,0.0647,0.0876,0.0763c0.1263,0.0882,0.2616,0.2219,0.3551,0.3509c-0.0001,-0.0002,0.002,0.0012,0.0042,0.0034c0.1409,0.0788,0.7313,0.3953,1.5981,0.8482c1.3496,0.7065,1.5676,0.8129,1.6667,0.8129l0.0405,-0.0001c0.0421,-0.0005,0.1484,-0.0086,0.1814,-0.0733c0.0499,-0.099,0.0319,-0.1529,0.026,-0.1707c-0.0167,-0.0504,-0.0679,-0.0999,-0.1405,-0.1361c-0.0338,-0.0162,-0.1209,-0.0581,-1.6421,-1.0201l-1.5669,-0.9904l-0.4104,-0.4575c0.1881,-0.7194,0.3285,-1.2805,0.3656,-1.4845c0.2058,0.2003,0.3296,0.3252,0.3987,0.4021l0.4879,0.5438l1.4153,0.8946c0.9166,0.5797,1.477,0.928,1.5389,0.9616c0.3751,0.1895,0.6541,0.5028,0.7792,0.8789C21.8185,12.2745,21.7839,12.6765,21.5922,13.0569z" fill="#6486C4"/>
    <path d="M10.2147,16.702c-0.2695,0.3408,-0.5206,0.6427,-0.6979,0.8372c-0.2866,0.3176,-0.3235,0.331,-0.3961,0.3571c-0.0123,0.0044,-0.0211,0.0078,-0.0194,0.0082c-0.0083,0.0008,-0.018,0.001,-0.0305,0.001c-0.0107,0,-0.2134,0.0002,-0.2157,0.0001l-0.0209,-0.0077c-0.1366,-0.052,-0.3802,-0.1138,-2.6059,-0.5345c-1.3608,-0.2567,-2.3529,-0.448,-2.4118,-0.4611c-0.1765,-0.0436,-0.2951,-0.1684,-0.2951,-0.3105c0,-0.1481,0.0646,-0.2407,0.1968,-0.2829c0,0,0.0661,-0.0214,0.0716,-0.0233l0.0214,-0.0002c0.2045,0,0.8054,0.0832,2.1222,0.2656l0.1379,0.0191c2.2611,0.3093,2.2696,0.3093,2.3505,0.3093h0.484l0.2002,-0.3863l0.0473,-0.0688c0.0883,-0.1282,0.2439,-0.3539,0.4166,-0.6074c0.0186,-0.027,0.041,-0.0591,0.067,-0.0958c-0.216,-0.3656,-0.372,-0.6275,-0.4105,-0.6877c-0.1176,-0.1827,-0.2085,-0.3697,-0.2788,-0.5608c-0.1728,0.2346,-0.3448,0.4708,-0.4437,0.6148c-0.121,0.1776,-0.2331,0.3408,-0.3194,0.4663c-0.316,-0.042,-0.915,-0.1234,-1.937,-0.2632l-0.1431,-0.0198c-1.4955,-0.2072,-1.9994,-0.2771,-2.2932,-0.2771c-0.2167,0,-0.3392,0.0385,-0.4593,0.0763l-0.0241,0.0077c-0.6671,0.2128,-1.0982,0.8072,-1.0982,1.5142c0,0.7471,0.5149,1.3762,1.2842,1.5662c0.1092,0.0257,1.5075,0.2922,2.4748,0.4747c0.552,0.1044,2.2318,0.4219,2.3862,0.4725c0.2195,0.0836,0.3372,0.0915,0.592,0.0915l0.0601,0.0004c0.2281,0,0.3415,-0.0181,0.5284,-0.0844c0.3775,-0.1358,0.57,-0.3197,0.9184,-0.7059c0.1192,-0.1309,0.2713,-0.3088,0.4395,-0.5132C10.6905,17.5127,10.4467,17.0969,10.2147,16.702z" fill="#6486C4"/>
  </g>
</svg>
