<?xml version="1.0" encoding="UTF-8"?>
<!DOCTYPE svg PUBLIC "-//W3C//DTD SVG 1.1//EN" "http://www.w3.org/Graphics/SVG/1.1/DTD/svg11.dtd">
<svg version="1.1" id="Layer_1" xmlns="http://www.w3.org/2000/svg" xmlns:xlink="http://www.w3.org/1999/xlink" x="0px" y="0px" width="24px" height="24px" viewBox="0 0 24 24" enable-background="new 0 0 24 24" xml:space="preserve">
  <g id="icon">
    <path d="M12.125,1.6016L2,8.1441V22.9h8v-3.45c0,-1.2426,0.8074,-2.25,2.05,-2.25h0c1.2426,0,2.05,1.0074,2.05,2.25V22.9h7.9V8.1493L12.125,1.6016z" fill="#FFFFFF" opacity="0.5"/>
    <path d="M13.1,24v-4.4595c0,-0.6597,-0.2746,-1.2109,-0.9039,-1.2822c-0.0486,-0.0055,-0.0978,-0.0083,-0.1461,-0.0083c-0.6892,0,-1.05,0.5607,-1.05,1.25v4.5H1V9l2,-1v14h6v-2.3893c0,-1.7243,1.1176,-3.1744,2.7998,-3.3013c0.0832,-0.0062,0.1673,-0.0094,0.2502,-0.0094c1.7921,0,3.05,1.458,3.05,3.25V22h5.9V8l2,1v15H13.1z" fill="#7B7B7B"/>
    <polygon points="22.8675,10.458 11.9896,2.4713 1.1334,10.4575 0.0668,8.8576 11.9886,0.0875 23.9327,8.857" fill="#6486C4" stroke-linejoin="miter"/>
    <path d="M8,20H5v-3h3V20zM19,17h-3v3h3V17zM19,12h-3v3h3V12zM13.5,12h-3v3h3V12zM8,12H5v3h3V12z" fill="#6486C4"/>
    <path d="M12.0001,10.8825c-1.5439,0,-2.8,-1.2561,-2.8,-2.8s1.2561,-2.8,2.8,-2.8s2.8,1.2561,2.8,2.8S13.544,10.8825,12.0001,10.8825zM12.0001,6.3825c-0.9374,0,-1.7,0.7626,-1.7,1.7s0.7626,1.7,1.7,1.7s1.7,-0.7626,1.7,-1.7S12.9375,6.3825,12.0001,6.3825z" fill="#7B7B7B"/>
  </g>
</svg>
