<?xml version="1.0" encoding="UTF-8"?>
<!DOCTYPE svg PUBLIC "-//W3C//DTD SVG 1.1//EN" "http://www.w3.org/Graphics/SVG/1.1/DTD/svg11.dtd">
<svg version="1.1" id="Layer_1" xmlns="http://www.w3.org/2000/svg" xmlns:xlink="http://www.w3.org/1999/xlink" x="0px" y="0px" width="24px" height="24px" viewBox="0 0 24 24" enable-background="new 0 0 24 24" xml:space="preserve">
  <g id="icon">
    <ellipse cx="12.0117" cy="12.0001" rx="2.2517" ry="2.2494" fill="#FFFFFF" opacity="0.5"/>
    <path d="M12.0122,14.9998c-1.3381,0,-2.5614,-0.902,-2.9083,-2.2554c-0.199,-0.7763,-0.0835,-1.5836,0.3253,-2.273c0.4086,-0.6893,1.0614,-1.1782,1.8381,-1.377c1.6033,-0.4097,3.2416,0.5594,3.6522,2.1614l0,0c0.199,0.7764,0.0835,1.5836,-0.3253,2.2731c-0.4086,0.6892,-1.0614,1.1782,-1.8381,1.377C12.5075,14.9694,12.2578,14.9998,12.0122,14.9998zM12.0116,10.5005c-0.123,0,-0.248,0.0152,-0.3726,0.0471c-0.3886,0.0995,-0.7152,0.344,-0.9196,0.6887c-0.2042,0.3445,-0.2619,0.7477,-0.1625,1.1355c0.2054,0.8011,1.0252,1.2855,1.8275,1.0807c0.3885,-0.0994,0.7151,-0.3439,0.9196,-0.6887c0.2042,-0.3445,0.2619,-0.7477,0.1625,-1.1355l0,0C13.293,10.9515,12.6811,10.5005,12.0116,10.5005z" fill="#916FB1"/>
    <path d="M23.9117,8.8982c-0.5149,-1.9985,-3.1749,-3.1917,-7.1158,-3.1917c-1.9197,0,-4.0629,0.294,-6.1981,0.8502c-3.1028,0.8084,-5.8943,2.0929,-7.8604,3.6168C0.6316,11.8059,-0.3088,13.5567,0.0897,15.1036c0.5149,1.9986,3.1749,3.1917,7.1158,3.1917c1.9199,0,4.0631,-0.294,6.1981,-0.8502C20.0825,15.7049,24.6982,11.9507,23.9117,8.8982zM20.5286,12.8715c-1.8404,1.4266,-4.4781,2.6354,-7.4271,3.4037c-2.0321,0.5294,-4.0699,0.8093,-5.8929,0.8093c-0.7966,0,-1.5513,-0.0532,-2.2431,-0.1581c-2.0918,-0.3172,-3.4442,-1.0919,-3.7104,-2.1254c-0.2663,-1.0338,0.5421,-2.3717,2.218,-3.6707c1.8402,-1.4264,4.478,-2.6353,7.4271,-3.4037c2.0321,-0.5294,4.0698,-0.8093,5.8928,-0.8093c0.7964,0,1.5512,0.0532,2.2433,0.1582c2.0918,0.3172,3.4442,1.0918,3.7105,2.1253C23.0129,10.2346,22.2044,11.5726,20.5286,12.8715z" fill="#7D7C7B"/>
    <path d="M15.9989,8.0687c-2.2415,-2.304,-4.7386,-4.0996,-7.0314,-5.0559c-1.1667,-0.4867,-2.2265,-0.7334,-3.1499,-0.7334c-1.0148,0,-1.8297,0.2954,-2.4219,0.8781c-1.4672,1.4436,-1.1725,4.3571,0.7885,7.7937c0.9553,1.6742,2.2755,3.3971,3.8179,4.9827c3.4708,3.5677,7.3729,5.7839,10.1833,5.7839c1.0172,0,1.8314,-0.2936,2.42,-0.8727C22.8467,18.6401,20.8233,13.028,15.9989,8.0687zM19.7631,19.9819c-0.3577,0.3519,-0.8908,0.5304,-1.5845,0.5304h-0.0002c-0.7539,-0.0001,-1.6817,-0.2209,-2.6831,-0.6386c-2.1462,-0.8952,-4.5016,-2.5943,-6.6322,-4.7843c-2.1304,-2.1899,-3.768,-4.5954,-4.6112,-6.7732c-0.7678,-1.983,-0.7728,-3.5487,-0.0138,-4.2955c0.3577,-0.3519,0.8909,-0.5304,1.5847,-0.5304c0.7538,0,1.6816,0.2209,2.6831,0.6386c2.1462,0.8952,4.5015,2.5943,6.6321,4.7843c1.4682,1.5092,2.7238,3.1473,3.6311,4.7375c0.3964,0.6946,0.7263,1.3796,0.9802,2.0356C20.5171,17.6695,20.5221,19.2352,19.7631,19.9819z" fill="#7D7C7B"/>
    <path d="M18.2729,4.9081C17.9458,2.2545,16.9243,0.55,15.3966,0.1085C15.1473,0.0365,14.8872,0,14.6233,0c-1.8111,0,-3.8442,1.6941,-5.5782,4.6477c-0.976,1.6627,-1.8137,3.6681,-2.4227,5.7992c-1.9053,6.668,-1.0367,12.5735,1.9772,13.4445c0.2493,0.0721,0.5094,0.1086,0.7732,0.1086c2.9063,0,6.2712,-4.3936,8.001,-10.447C18.2591,10.4554,18.5783,7.3852,18.2729,4.9081zM16.217,13.2197c-0.5798,2.0292,-1.3762,3.9362,-2.303,5.515c-0.405,0.6899,-0.8343,1.3165,-1.276,1.8625c-1.1445,1.4146,-2.3041,2.1936,-3.2653,2.1935c-0.1528,0,-0.3008,-0.0204,-0.4401,-0.0607c-1.0201,-0.2947,-1.7545,-1.6749,-2.0147,-3.7867c-0.286,-2.3191,0.02,-5.2182,0.8614,-8.163c0.8414,-2.9446,2.1125,-5.5646,3.5791,-7.3775c1.1444,-1.4145,2.304,-2.1935,3.2653,-2.1935c0.1527,0,0.3008,0.0204,0.4401,0.0607c1.0201,0.2947,1.7544,1.6749,2.0148,3.7866C17.3644,7.3759,17.0584,10.275,16.217,13.2197z" fill="#7D7C7B"/>
  </g>
</svg>
