<?xml version="1.0" encoding="UTF-8"?>
<!DOCTYPE svg PUBLIC "-//W3C//DTD SVG 1.1//EN" "http://www.w3.org/Graphics/SVG/1.1/DTD/svg11.dtd">
<svg version="1.1" id="Layer_1" xmlns="http://www.w3.org/2000/svg" xmlns:xlink="http://www.w3.org/1999/xlink" x="0px" y="0px" width="24px" height="24px" viewBox="0 0 24 24" enable-background="new 0 0 24 24" xml:space="preserve">
  <g id="icon">
    <path d="M18.567,10.2549V6.5272l-2.2566,1.6593c0,0,0.0615,0.0357,0.0001,0.2386c-0.0102,0.0335,-0.0224,0.0662,-0.0344,0.0991c-0.0053,0.0146,-0.0098,0.0296,-0.0154,0.044c-0.0372,0.0946,-0.0815,0.186,-0.1327,0.2733l0.0001,-0.0001c-0.2432,0.4165,-0.6395,0.7409,-1.1325,0.8852l-0.1634,0.048l0.0894,0.102c0.6185,0.7067,0.6448,1.7537,0.0627,2.4899l-1.1567,1.4603c-0.3709,0.4689,-0.9265,0.7382,-1.5238,0.7382c0,0,0,0,-0.0001,0c-0.3292,-0.0001,-0.6558,-0.0848,-0.9447,-0.2452l-0.1901,-0.1054l-0.0104,0.1709c-0.0584,0.9471,-0.7839,1.7103,-1.7251,1.8157l-1.8385,0.2067c-0.0711,0.0081,-0.1451,0.0123,-0.2185,0.0123c-0.8621,0,-1.6305,-0.5795,-1.8686,-1.4091l-0.0409,-0.1422l-0.0635,0.0568c-0.2664,0.2381,-0.5903,0.3962,-0.9362,0.4612c-0.0586,0.011,-0.1178,0.0194,-0.1775,0.025c-0.0002,0,-0.0004,0.0001,-0.0005,0.0001c-0.0599,0.0056,-0.1202,0.0085,-0.1808,0.0085c-0.0632,0,-0.1261,-0.0039,-0.1886,-0.0105c-0.0076,-0.0008,-0.015,-0.0019,-0.0226,-0.0027c-0.0589,-0.0069,-0.1174,-0.016,-0.1754,-0.0279c-0.2707,-0.0559,-0.5289,-0.1681,-0.7545,-0.3317v8.9417h21V6.5036L18.567,10.2549zM9.717,20.9891h-3.75v-1.5h3.75V20.9891zM9.717,17.9891h-3.75v-1.5h3.75V17.9891zM14.967,20.9891h-3.75v-1.5h3.75V20.9891zM14.967,17.9891h-3.75v-1.5h3.75V17.9891zM20.217,20.9891h-3.75v-1.5h3.75V20.9891zM20.217,17.9891h-3.75v-1.5h3.75V17.9891z" fill="#7B7B7B"/>
    <path d="M5.967,19.4891h3.75v1.5h-3.75V19.4891zM11.217,20.9891h3.75v-1.5h-3.75V20.9891zM11.217,17.9891h3.75v-1.5h-3.75V17.9891zM5.967,17.9891h3.75v-1.5h-3.75V17.9891zM16.467,16.4891v1.5h3.75v-1.5H16.467zM16.467,20.9891h3.75v-1.5h-3.75V20.9891z" fill="#FFFFFF" opacity="0.5"/>
    <path d="M14.8857,5.8572c-0.0041,-0.0372,-0.0342,-0.0661,-0.0712,-0.0684l-1.908,-0.1182c-0.0299,-0.0019,-0.0558,-0.0214,-0.0664,-0.0497c-0.1705,-0.4565,-0.3986,-0.8871,-0.6763,-1.2821c-0.0169,-0.024,-0.0189,-0.0555,-0.0048,-0.0813l0.9447,-1.7364c0.0179,-0.0328,0.0098,-0.0739,-0.0192,-0.0973l-1.569,-1.2664c-0.029,-0.0234,-0.0705,-0.0224,-0.0983,0.0025L9.9799,2.4427c-0.0225,0.02,-0.0543,0.0248,-0.0817,0.0123c-0.4083,-0.1857,-0.8447,-0.3242,-1.304,-0.4082c-0.0284,-0.0052,-0.0516,-0.026,-0.0596,-0.054L7.9919,0.11c-0.0104,-0.036,-0.0449,-0.0592,-0.0818,-0.0551L5.9136,0.2794c-0.0369,0.0042,-0.0655,0.0345,-0.0678,0.0719l-0.114,1.874c-0.0019,0.0305,-0.0216,0.0568,-0.05,0.0673c-0.474,0.174,-0.9206,0.4113,-1.3289,0.7033c-0.0238,0.017,-0.0549,0.019,-0.0805,0.0048l-1.6638,-0.9224c-0.0325,-0.018,-0.0732,-0.0098,-0.0964,0.0194L1.2577,3.6817c-0.0232,0.0293,-0.0222,0.0711,0.0024,0.0992l1.2225,1.3955c0.0199,0.0228,0.0245,0.0551,0.012,0.0827c-0.1964,0.4339,-0.341,0.8996,-0.4249,1.3908c-0.0049,0.029,-0.0256,0.0526,-0.0535,0.0608L0.2202,7.2384c-0.0356,0.0105,-0.0587,0.0453,-0.0546,0.0825L0.388,9.3364c0.0041,0.0372,0.0342,0.0661,0.0712,0.0684l1.8051,0.1119c0.0301,0.0019,0.0561,0.0216,0.0665,0.0502c0.1799,0.4924,0.4265,0.9553,0.7302,1.3763c0.0174,0.0241,0.0195,0.0559,0.0053,0.082l-0.8962,1.6474c-0.0179,0.0328,-0.0097,0.0739,0.0193,0.0973l1.569,1.2664c0.029,0.0234,0.0705,0.0224,0.0983,-0.0025l1.3838,-1.2352c0.0223,-0.0199,0.0539,-0.0247,0.0812,-0.0125c0.4287,0.1916,0.8875,0.3325,1.3713,0.4119c0.029,0.0048,0.0528,0.0257,0.061,0.0542l0.528,1.8315c0.0104,0.036,0.0449,0.0592,0.0818,0.0551l1.9965,-0.2245c0.0369,-0.0042,0.0655,-0.0345,0.0678,-0.0719l0.1141,-1.8757c0.0018,-0.0301,0.021,-0.0561,0.0489,-0.0669c0.4657,-0.1798,0.9043,-0.4207,1.3044,-0.7151c0.0239,-0.0176,0.0555,-0.0198,0.0813,-0.0054l1.6886,0.9361c0.0325,0.018,0.0732,0.0098,0.0964,-0.0194l1.2545,-1.5839c0.0232,-0.0293,0.0222,-0.0711,-0.0024,-0.0992l-1.2721,-1.4521c-0.0196,-0.0224,-0.0244,-0.054,-0.0126,-0.0814c0.1776,-0.4108,0.3094,-0.8491,0.3876,-1.3099c0.0049,-0.029,0.0256,-0.0527,0.0536,-0.0609l1.8834,-0.5533c0.0356,-0.0105,0.0587,-0.0453,0.0546,-0.0825L14.8857,5.8572zM8.6905,9.2997c-0.8483,0.6685,-1.994,0.4542,-2.6009,-0.3281c-0.621,-0.8179,-0.501,-1.9808,0.3177,-2.6255c0.8626,-0.6794,2.0202,-0.445,2.6125,0.3449C9.6217,7.4937,9.5107,8.6534,8.6905,9.2997z" fill="#6484C3"/>
  </g>
</svg>
