<?xml version="1.0" encoding="UTF-8"?>
<!DOCTYPE svg PUBLIC "-//W3C//DTD SVG 1.1//EN" "http://www.w3.org/Graphics/SVG/1.1/DTD/svg11.dtd">
<svg version="1.1" id="Layer_1" xmlns="http://www.w3.org/2000/svg" xmlns:xlink="http://www.w3.org/1999/xlink" x="0px" y="0px" width="24px" height="24px" viewBox="0 0 24 24" enable-background="new 0 0 24 24" xml:space="preserve">
  <g id="icon">
    <path d="M0.1029,12.5455c-0.1195,-0.2462,-0.136,-0.5243,-0.0463,-0.7831c0.0897,-0.2588,0.2748,-0.4671,0.5211,-0.5865c0.1407,-0.0683,0.2911,-0.1029,0.4469,-0.1029c0.3964,0,0.7499,0.2213,0.9227,0.5777l2.5739,5.3055L8.8351,3.948h14.1077c0.5041,0,0.9396,0.3417,1.0356,0.8124c0.0627,0.3071,-0.0136,0.6206,-0.2092,0.8602c-0.1959,0.2399,-0.4854,0.3775,-0.7941,0.3775h-12.66L4.879,22.3899L0.1029,12.5455z" fill="#7B7B7B"/>
    <path d="M20.1504,19.748c-0.2994,0,-0.5828,-0.1301,-0.7778,-0.3569l-3.1976,-3.7206l-3.1977,3.7206c-0.1949,0.2268,-0.4784,0.3569,-0.7777,0.3569c-0.2448,0,-0.4819,-0.088,-0.6677,-0.2477c-0.2076,-0.1784,-0.3333,-0.427,-0.354,-0.7c-0.0207,-0.273,0.0662,-0.5377,0.2447,-0.7453l3.4009,-3.957l-3.4009,-3.9569c-0.1785,-0.2076,-0.2654,-0.4723,-0.2447,-0.7453c0.0206,-0.273,0.1463,-0.5216,0.354,-0.7001c0.1858,-0.1597,0.423,-0.2476,0.6678,-0.2476c0.2994,0,0.5828,0.1301,0.7776,0.357l3.1976,3.7205l3.1976,-3.7206c0.1949,-0.2268,0.4784,-0.3569,0.7777,-0.3569c0.2449,0,0.482,0.088,0.6678,0.2477c0.2075,0.1784,0.3333,0.427,0.3539,0.7c0.0207,0.2731,-0.0663,0.5378,-0.2447,0.7454l-3.4008,3.9569l3.4008,3.957c0.1785,0.2075,0.2654,0.4722,0.2447,0.7453c-0.0207,0.273,-0.1464,0.5216,-0.3541,0.7001C20.6324,19.6601,20.3952,19.748,20.1504,19.748z" fill="#6486C4"/>
  </g>
</svg>
