<?xml version="1.0" encoding="UTF-8"?>
<!DOCTYPE svg PUBLIC "-//W3C//DTD SVG 1.1//EN" "http://www.w3.org/Graphics/SVG/1.1/DTD/svg11.dtd">
<svg version="1.1" id="Layer_1" xmlns="http://www.w3.org/2000/svg" xmlns:xlink="http://www.w3.org/1999/xlink" x="0px" y="0px" width="16px" height="16px" viewBox="0 0 16 16" enable-background="new 0 0 16 16" xml:space="preserve">
  <g id="icon">
    <polygon points="13.5,10.5 13.5,12.5 11.5,12.5 11.5,14.5 4.5,14.5 4.5,12.5 2.5,12.5 2.5,10.5 0.5,10.5 0.5,1.5 15.5,1.5 15.5,10.5" fill="#FFFFFF" stroke-linejoin="miter" opacity="0.5"/>
    <path d="M12,15H4v-2H2v-2H0V1h16v10h-2v2h-2V15zM5,14h6v-2h2v-2h2V2H1v8h2v2h2V14z" fill="#6D6E71"/>
    <path d="M14,6h-1V3h1V6zM12,6h-1V3h1V6zM10,6H9V3h1V6zM7,6H6V3h1V6zM5,6H4V3h1V6zM3,6H2V3h1V6z" fill="#EEAC55"/>
  </g>
</svg>
