<?xml version="1.0" encoding="UTF-8"?>
<!DOCTYPE svg PUBLIC "-//W3C//DTD SVG 1.1//EN" "http://www.w3.org/Graphics/SVG/1.1/DTD/svg11.dtd">
<svg version="1.1" id="Layer_1" xmlns="http://www.w3.org/2000/svg" xmlns:xlink="http://www.w3.org/1999/xlink" x="0px" y="0px" width="16px" height="16px" viewBox="0 0 16 16" enable-background="new 0 0 16 16" xml:space="preserve">
  <g id="icon">
    <polygon points="13.5,4.6 13.5,2.5 8,2.5 5.7892,0.5 1.5,0.5 1.5,10.4 1.9536,10.4 2.7,10.4 13.6532,10.4 15.116,4.6" fill="#FFFFFF" stroke-linejoin="miter" opacity="0.5"/>
    <polygon points="2,9.6 2,1 5.7892,1 7.7392,3 13,3 13,4.5 14,4.5 14,2 8.1546,2 6.2046,0 1,0 1,11 1.5333,11" fill="#EEAC55" stroke-linejoin="miter"/>
    <path d="M16,15h-4.5v-1h4.5V15zM4.5,15H0v-1h4.5V15zM8.5,12.5H7.5v-1.5h1V12.5z" fill="#6D6E71"/>
    <path d="M11,16H5v-3h6V16z" fill="#52B250"/>
    <path d="M14.0584,11H1.1025l2.239,-7h12.6559L14.0584,11z" fill="#EEAC55"/>
  </g>
</svg>
