<?xml version="1.0" encoding="UTF-8"?>
<!DOCTYPE svg PUBLIC "-//W3C//DTD SVG 1.1//EN" "http://www.w3.org/Graphics/SVG/1.1/DTD/svg11.dtd">
<svg version="1.1" id="Layer_1" xmlns="http://www.w3.org/2000/svg" xmlns:xlink="http://www.w3.org/1999/xlink" x="0px" y="0px" width="16px" height="16px" viewBox="0 0 16 16" enable-background="new 0 0 16 16" xml:space="preserve">
  <g id="icon">
    <path d="M12,6.1546l2,-1.95V0H3v10h9V6.1546zM13,3.7892l-2,1.8625l-1,-1.2349V1h3V3.7892z" fill="#EEAC55"/>
    <polygon points="11,5.6517 13,3.7892 13,1 10,1 10,4.3667" fill="#FFFFFF" stroke-linejoin="miter" opacity="0.5"/>
    <path d="M16,15h-4.5v-1h4.5V15zM4.5,15H0v-1h4.5V15z" fill="#6D6E71"/>
    <polygon points="9.7464,15.9536 8,14.2071 6.2536,15.9536 5.5464,15.2464 7.2929,13.5 5.5464,11.7536 6.2536,11.0464 8,12.7929 9.7464,11.0464 10.4536,11.7536 8.7071,13.5 10.4536,15.2464" fill="#CB525D" stroke-linejoin="miter"/>
    <rect x="7.5" y="10" width="1" height="1.5" fill="#6D6E71"/>
  </g>
</svg>
