<?xml version="1.0" encoding="UTF-8"?>
<!DOCTYPE svg PUBLIC "-//W3C//DTD SVG 1.1//EN" "http://www.w3.org/Graphics/SVG/1.1/DTD/svg11.dtd">
<svg version="1.1" id="Layer_1" xmlns="http://www.w3.org/2000/svg" xmlns:xlink="http://www.w3.org/1999/xlink" x="0px" y="0px" width="16px" height="16px" viewBox="0 0 16 16" enable-background="new 0 0 16 16" xml:space="preserve">
  <g id="icon">
    <rect x="0.5" y="2.5" width="15" height="12" fill="#FFFFFF" opacity="0.5"/>
    <path d="M16,15H0V2h16V15zM1,14h14V3H1V14z" fill="#6D6E71"/>
    <path d="M8,12H3v-1h5V12zM8,10H3V9h5V10zM8,8H3V7h5V8zM8,6H3V5h5V6z" fill="#6D6E71"/>
    <polygon points="10.2689,12.9764 9.6671,10.0051 10.6472,9.8065 10.8583,10.8484 12.4086,8 9.7156,8 11.841,3.9617 12.726,4.4274 11.372,7 14.0914,7 11.7409,11.3187 12.9694,10.8327 13.3373,11.7625" fill="#EEAC55" stroke-linejoin="miter"/>
  </g>
</svg>
