<?xml version="1.0" encoding="UTF-8"?>
<!DOCTYPE svg PUBLIC "-//W3C//DTD SVG 1.1//EN" "http://www.w3.org/Graphics/SVG/1.1/DTD/svg11.dtd">
<svg version="1.1" id="Layer_1" xmlns="http://www.w3.org/2000/svg" xmlns:xlink="http://www.w3.org/1999/xlink" x="0px" y="0px" width="16px" height="16px" viewBox="0 0 16 16" enable-background="new 0 0 16 16" xml:space="preserve">
  <g id="icon">
    <polygon points="4.5,5 4.5,9.5 11.5,9.5 11.5,5 11.5,0.5 4.5,0.5" fill="#FFFFFF" stroke-linejoin="miter" opacity="0.5"/>
    <path d="M10,2H8v1h2V2z" fill="#6485C3"/>
    <path d="M4,0v5v1v1v3h8V7V6V5V0H4zM11,6v1v2H5V7V6V5h6V6zM11,4H5V1h6V4z" fill="#6D6E71"/>
    <circle cx="8" cy="7" r="1" fill="#B7B7B7"/>
    <path d="M16,15h-4.5v-1h4.5V15zM4.5,15H0v-1h4.5V15z" fill="#6D6E71"/>
    <polygon points="9.7464,15.9536 8,14.2071 6.2536,15.9536 5.5464,15.2464 7.2929,13.5 5.5464,11.7536 6.2536,11.0464 8,12.7929 9.7464,11.0464 10.4536,11.7536 8.7071,13.5 10.4536,15.2464" fill="#CB525D" stroke-linejoin="miter"/>
    <rect x="7.5" y="9" width="1" height="2.5" fill="#6D6E71"/>
  </g>
</svg>
