<?xml version="1.0" encoding="UTF-8"?>
<!DOCTYPE svg PUBLIC "-//W3C//DTD SVG 1.1//EN" "http://www.w3.org/Graphics/SVG/1.1/DTD/svg11.dtd">
<svg version="1.1" id="Layer_1" xmlns="http://www.w3.org/2000/svg" xmlns:xlink="http://www.w3.org/1999/xlink" x="0px" y="0px" width="32px" height="32px" viewBox="0 0 32 32" enable-background="new 0 0 32 32" xml:space="preserve">
  <g id="icon">
    <path d="M24.817,30.45H7.183c-3.111,0,-5.633,-2.522,-5.633,-5.633V7.183c0,-3.111,2.522,-5.633,5.633,-5.633h17.634c3.111,0,5.633,2.522,5.633,5.633v17.634C30.45,27.928,27.928,30.45,24.817,30.45z" fill="#FFFFFF" stroke="#A0519F" stroke-width="1.1" stroke-miterlimit="1"/>
    <path d="M12.442,8.59V16h3.889c0.829,0,1.533,-0.114,2.111,-0.343c0.578,-0.229,1.048,-0.522,1.411,-0.881c0.363,-0.358,0.626,-0.803,0.789,-1.235c0.163,-0.432,0.244,-0.855,0.244,-1.268c0,-1.152,-0.383,-2.095,-1.15,-2.73c-0.767,-0.635,-1.939,-0.953,-3.516,-0.953H12.442z" fill="#FFFFFF" stroke="#A0519F" stroke-width="1.1" stroke-miterlimit="1"/>
    <path d="M16.806,23.41c0.746,0,1.414,-0.081,2.005,-0.243c0.591,-0.162,1.091,-0.403,1.501,-0.723c0.41,-0.32,0.722,-0.721,0.936,-1.204c0.214,-0.482,0.321,-0.99,0.321,-1.624c0,-0.559,-0.113,-1.016,-0.338,-1.469c-0.225,-0.453,-0.543,-0.839,-0.952,-1.159c-0.41,-0.32,-0.908,-0.565,-1.495,-0.734c-0.587,-0.169,-1.239,-0.254,-1.955,-0.254h-4.386v7.41H16.806z" fill="#FFFFFF" stroke="#A0519F" stroke-width="1.1" stroke-miterlimit="1"/>
  </g>
</svg>
