<?xml version="1.0" encoding="UTF-8"?>
<!DOCTYPE svg PUBLIC "-//W3C//DTD SVG 1.1//EN" "http://www.w3.org/Graphics/SVG/1.1/DTD/svg11.dtd">
<svg version="1.1" id="Layer_1" xmlns="http://www.w3.org/2000/svg" xmlns:xlink="http://www.w3.org/1999/xlink" x="0px" y="0px" width="32px" height="32px" viewBox="0 0 32 32" enable-background="new 0 0 32 32" xml:space="preserve">
  <g id="icon">
    <path d="M27.55,8.55l-3.967,-4H4.55v23h23V8.55z" fill="#FFFFFF"/>
    <path d="M27.55,8.55l-3.967,-4H4.55v23h23V8.55z" fill="#C8C6C4" opacity="0.4"/>
    <path d="M27.55,8.55l-3.967,-4H4.55v23h23V8.55z" fill="none" stroke="#383838" stroke-width="1.1" stroke-miterlimit="1"/>
    <circle cx="22" cy="10" r="1.5" fill="#DFBCD9" stroke="#A0519F" stroke-width="1" stroke-miterlimit="1"/>
    <path d="M4.5,7.55H2M4.5,10.55H2M4.5,13.55H2M4.5,16.55H2M4.5,19.55H2M4.5,22.55H2M4.5,25.55H2" fill="none" stroke="#383838" stroke-width="1.1" stroke-miterlimit="1"/>
    <path d="M30,9.55h-2.5M30,12.55h-2.5M30,15.55h-2.5M30,18.55h-2.5M30,21.55h-2.5M30,24.55h-2.5" fill="none" stroke="#383838" stroke-width="1.1" stroke-miterlimit="1"/>
    <path d="M7.55,2v2.5M10.55,2v2.5M13.55,2v2.5M16.55,2v2.5M19.55,2v2.5M22.55,2v2.5" fill="#FFFFFF" stroke="#383838" stroke-width="1.1" stroke-miterlimit="1"/>
    <path d="M6.55,27.5v2.5M9.55,27.5v2.5M12.55,27.5v2.5M15.55,27.5v2.5M18.55,27.5v2.5M21.55,27.5v2.5M24.55,27.5v2.5" fill="#FFFFFF" stroke="#383838" stroke-width="1.1" stroke-miterlimit="1"/>
  </g>
</svg>
