<?xml version="1.0" encoding="UTF-8"?>
<!DOCTYPE svg PUBLIC "-//W3C//DTD SVG 1.1//EN" "http://www.w3.org/Graphics/SVG/1.1/DTD/svg11.dtd">
<svg version="1.1" id="Layer_1" xmlns="http://www.w3.org/2000/svg" xmlns:xlink="http://www.w3.org/1999/xlink" x="0px" y="0px" width="32px" height="32px" viewBox="0 0 32 32" enable-background="new 0 0 32 32" xml:space="preserve">
  <g id="icon">
    <path d="M20.994,11.5c1.379,0,2.506,1.158,2.506,2.573v10.854c0,1.415,-1.128,2.573,-2.506,2.573H3.006C1.628,27.5,0.5,26.342,0.5,24.927V8.198C0.5,6.72,1.722,5.502,3.2,5.5c1.607,-0.002,7.754,0.002,8.263,0c0.021,0,0.037,0.017,0.037,0.038l0,4.454c0,0.838,0.68,1.517,1.518,1.517L20.994,11.5z" fill="#FFFFFF" stroke="#383838" stroke-width="1" stroke-miterlimit="1"/>
    <rect x="4.5" y="15.5" width="11" height="8" fill="#FFFFFF" stroke="#228BCB" stroke-width="1" stroke-miterlimit="1"/>
    <path d="M18,20.5h3M18,23.5h3" fill="none" stroke="#787979" stroke-width="1" stroke-miterlimit="1"/>
    <path d="M25.5,7.5h-8V3.5h8c0.828,0,1.5,1.172,1.5,2v0C27,6.328,26.328,7.5,25.5,7.5z" fill="#FFFFFF" stroke="#383838" stroke-width="1" stroke-miterlimit="1"/>
    <line x1="13" y1="5.5" x2="17.5" y2="5.5" fill="#FFFFFF" stroke="#383838" stroke-width="1" stroke-miterlimit="1"/>
    <path d="M30.835,11.786L25,15.579v7.598l5.835,3.793c0.274,0.21,0.665,0.01,0.665,-0.34V12.126C31.5,11.775,31.109,11.575,30.835,11.786z" fill="#FFFFFF"/>
    <path d="M31.485,11.294c-0.305,-0.15,-0.662,-0.119,-0.936,0.081L25,14.982v1.193l6,-3.9V26.48l-6,-3.9v1.193l5.549,3.607c0.159,0.116,0.346,0.175,0.534,0.175c0.136,0,0.274,-0.031,0.402,-0.094c0.317,-0.156,0.514,-0.475,0.514,-0.832V12.126C32,11.769,31.803,11.45,31.485,11.294z" fill="#383838"/>
  </g>
</svg>
