<?xml version="1.0" encoding="UTF-8"?>
<!DOCTYPE svg PUBLIC "-//W3C//DTD SVG 1.1//EN" "http://www.w3.org/Graphics/SVG/1.1/DTD/svg11.dtd">
<svg version="1.1" id="Layer_1" xmlns="http://www.w3.org/2000/svg" xmlns:xlink="http://www.w3.org/1999/xlink" x="0px" y="0px" width="32px" height="32px" viewBox="0 0 32 32" enable-background="new 0 0 32 32" xml:space="preserve">
  <g id="icon">
    <path d="M30.5,10.8c0,-0.73,-0.261,-1.084,-1.022,-1.347c-2.299,-0.795,-4.668,-1.346,-7.081,-1.748c-0.636,-0.106,-1.017,-0.451,-1.206,-1.007c-0.139,-0.411,-0.292,-0.818,-0.446,-1.224c-0.249,-0.657,-0.73,-0.972,-1.483,-0.972C17.1,4.5,14.936,4.5,12.773,4.501c-0.705,0,-1.188,0.309,-1.434,0.929c-0.174,0.439,-0.326,0.885,-0.488,1.327c-0.192,0.523,-0.571,0.844,-1.173,0.944c-2.426,0.404,-4.808,0.962,-7.12,1.758C1.832,9.71,1.5,10.191,1.5,10.9c0,4.521,0,10.6,0,15.1c0,0.873,0.633,1.5,1.5,1.5c4.4,0,21.8,0,26,0c0.803,0,1.5,-0.601,1.5,-1.5C30.5,21.482,30.501,15.321,30.5,10.8z" fill="#FFFFFF" stroke="#383838" stroke-width="1" stroke-miterlimit="1"/>
    <line x1="4" y1="23.5" x2="8" y2="23.5" fill="none" stroke="#787979" stroke-width="1" stroke-miterlimit="1"/>
    <path d="M16.032,9.282c4.013,0,7.266,3.211,7.266,7.173s-3.253,7.173,-7.266,7.173s-7.266,-3.211,-7.266,-7.173S12.019,9.282,16.032,9.282z" fill="#FFFFFF" stroke="#228BCB" stroke-width="1.1" stroke-miterlimit="1"/>
    <path d="M16.021,12.534c-2.149,0,-3.891,1.746,-3.891,3.899" fill="#FFFFFF" stroke="#228BCB" stroke-width="1" stroke-miterlimit="1"/>
  </g>
</svg>
