<?xml version="1.0" encoding="UTF-8"?>
<!DOCTYPE svg PUBLIC "-//W3C//DTD SVG 1.1//EN" "http://www.w3.org/Graphics/SVG/1.1/DTD/svg11.dtd">
<svg version="1.1" id="Layer_1" xmlns="http://www.w3.org/2000/svg" xmlns:xlink="http://www.w3.org/1999/xlink" x="0px" y="0px" width="32px" height="32px" viewBox="0 0 32 32" enable-background="new 0 0 32 32" xml:space="preserve">
  <g id="icon">
    <path d="M1,28.5h4.5M26.5,28.5h4.5M13.5,28.5h5M9.5,26.5v-4M22.5,26.5V16.5" fill="none" stroke="#383838" stroke-width="1" stroke-miterlimit="1"/>
    <path d="M13.5,30.5H5.5v-4h8V30.5zM26.5,26.5h-8v4h8V26.5z" fill="#ACD8B1" stroke="#0BA04A" stroke-width="1" stroke-linecap="round" stroke-miterlimit="1"/>
    <rect x="1.5" y="7.5" width="16" height="13" fill="#FFFFFF" stroke="#383838" stroke-width="1" stroke-miterlimit="1"/>
    <polygon points="14.5,1.5 14.5,6 19,6 19,14.5 30.5,14.5 30.5,1.5" fill="#FFFFFF" stroke-linejoin="miter"/>
    <polygon points="14,1 14,6 15,6 15,2 30,2 30,14 19,14 19,15 31,15 31,1" fill="#383838" stroke-linejoin="miter"/>
    <path d="M6,22.5h7M19,16.5h7" fill="none" stroke="#383838" stroke-width="1" stroke-miterlimit="1"/>
  </g>
</svg>
