<?xml version="1.0" encoding="UTF-8"?>
<!DOCTYPE svg PUBLIC "-//W3C//DTD SVG 1.1//EN" "http://www.w3.org/Graphics/SVG/1.1/DTD/svg11.dtd">
<svg version="1.1" id="Layer_1" xmlns="http://www.w3.org/2000/svg" xmlns:xlink="http://www.w3.org/1999/xlink" x="0px" y="0px" width="32px" height="32px" viewBox="0 0 32 32" enable-background="new 0 0 32 32" xml:space="preserve">
  <g id="icon">
    <path d="M3.968,20.925c-0.802,-1.377,-1.983,-7.633,-0.988,-11.16c0.972,-3.447,3.433,-5.756,6.646,-7.003c3.505,-1.36,7.79,-1.507,11.403,-0.543c3.349,0.894,6.239,2.993,7.634,6.322c1.484,3.54,0.461,9.477,-0.726,12.17" fill="none" stroke="#383838" stroke-width="1.2" stroke-miterlimit="1"/>
    <path d="M26.526,27.566c1.863,0,2.974,-1.841,2.974,-3.989s-1.111,-4.189,-2.974,-4.189" fill="#C8C6C4" stroke="#383838" stroke-width="1" stroke-linecap="round" stroke-miterlimit="1"/>
    <path d="M23.931,16.5h0.139c1.342,0,2.431,1.088,2.431,2.431v9.139c0,1.342,-1.088,2.431,-2.431,2.431h-0.139c-1.342,0,-2.431,-1.088,-2.431,-2.431v-9.139C21.5,17.588,22.588,16.5,23.931,16.5z" fill="#DFBCD9" stroke="#A0519F" stroke-width="1" stroke-linecap="round" stroke-miterlimit="1"/>
    <path d="M5.474,19.434c-1.863,0,-2.974,1.841,-2.974,3.989s1.111,4.189,2.974,4.189" fill="#C8C6C4" stroke="#383838" stroke-width="1" stroke-linecap="round" stroke-miterlimit="1"/>
    <path d="M8.069,30.5h-0.139C6.588,30.5,5.5,29.412,5.5,28.069v-9.139C5.5,17.588,6.588,16.5,7.931,16.5h0.139c1.342,0,2.431,1.088,2.431,2.431v9.139C10.5,29.412,9.412,30.5,8.069,30.5z" fill="#DFBCD9" stroke="#A0519F" stroke-width="1" stroke-linecap="round" stroke-miterlimit="1"/>
  </g>
</svg>
