<?xml version="1.0" encoding="UTF-8"?>
<!DOCTYPE svg PUBLIC "-//W3C//DTD SVG 1.1//EN" "http://www.w3.org/Graphics/SVG/1.1/DTD/svg11.dtd">
<svg version="1.1" id="Layer_1" xmlns="http://www.w3.org/2000/svg" xmlns:xlink="http://www.w3.org/1999/xlink" x="0px" y="0px" width="32px" height="32px" viewBox="0 0 32 32" enable-background="new 0 0 32 32" xml:space="preserve">
  <g id="icon">
    <path d="M30.5,23.5H1.5V12.5h29V23.5zM30.5,1.5H1.5v11h29V1.5z" fill="#FFFFFF" stroke="#383838" stroke-width="1" stroke-miterlimit="1"/>
    <path d="M5.015,16.783c0.025,-0.197,0.077,-0.375,0.155,-0.534c0.078,-0.159,0.179,-0.293,0.302,-0.404c0.123,-0.11,0.264,-0.196,0.425,-0.256c0.16,-0.06,0.335,-0.09,0.524,-0.09c0.164,0,0.325,0.025,0.483,0.074c0.158,0.049,0.299,0.126,0.421,0.231c0.123,0.105,0.222,0.238,0.299,0.4c0.076,0.162,0.114,0.357,0.114,0.585c0,0.188,-0.029,0.363,-0.087,0.525c-0.058,0.162,-0.136,0.317,-0.234,0.465c-0.098,0.148,-0.211,0.293,-0.339,0.435c-0.129,0.142,-0.263,0.287,-0.404,0.435L5,20.467V20.5h2.88M13.702,15.507h-2.11l-0.351,1.988c0.176,-0.048,0.342,-0.082,0.497,-0.104c0.155,-0.021,0.301,-0.032,0.438,-0.032c0.25,0,0.469,0.036,0.658,0.109c0.189,0.073,0.347,0.174,0.474,0.304c0.127,0.13,0.223,0.287,0.287,0.469c0.064,0.183,0.096,0.384,0.096,0.603c0,0.263,-0.044,0.497,-0.131,0.702c-0.087,0.205,-0.204,0.378,-0.351,0.519c-0.147,0.141,-0.317,0.248,-0.511,0.322c-0.194,0.074,-0.397,0.111,-0.61,0.111c-0.124,0,-0.243,-0.011,-0.358,-0.032c-0.115,-0.022,-0.222,-0.05,-0.321,-0.084c-0.1,-0.035,-0.191,-0.074,-0.273,-0.118c-0.078,-0.042,-0.226,-0.151,-0.285,-0.196c-0.004,-0.003,-0.007,-0.005,-0.01,-0.008M19.502,15.507h-2.11l-0.351,1.988c0.176,-0.048,0.342,-0.082,0.497,-0.104c0.155,-0.021,0.301,-0.032,0.438,-0.032c0.25,0,0.469,0.036,0.658,0.109c0.189,0.073,0.347,0.174,0.474,0.304c0.127,0.13,0.223,0.287,0.287,0.469c0.064,0.183,0.096,0.384,0.096,0.603c0,0.263,-0.044,0.497,-0.131,0.702c-0.087,0.205,-0.204,0.378,-0.351,0.519c-0.147,0.141,-0.317,0.248,-0.511,0.322c-0.194,0.074,-0.397,0.111,-0.61,0.111c-0.124,0,-0.243,-0.011,-0.358,-0.032c-0.115,-0.022,-0.222,-0.05,-0.321,-0.084c-0.1,-0.035,-0.191,-0.074,-0.273,-0.118c-0.078,-0.042,-0.226,-0.151,-0.285,-0.196c-0.004,-0.003,-0.007,-0.005,-0.01,-0.008M8.2,7.004c0,0.429,-0.045,0.8,-0.134,1.114c-0.089,0.314,-0.21,0.573,-0.362,0.778c-0.152,0.205,-0.331,0.357,-0.535,0.456c-0.204,0.099,-0.42,0.149,-0.648,0.149c-0.228,0,-0.444,-0.049,-0.648,-0.149c-0.204,-0.099,-0.382,-0.251,-0.535,-0.456c-0.152,-0.205,-0.273,-0.464,-0.362,-0.778c-0.089,-0.313,-0.134,-0.685,-0.134,-1.114c0,-0.429,0.045,-0.8,0.134,-1.114c0.089,-0.313,0.21,-0.573,0.362,-0.78c0.152,-0.206,0.33,-0.36,0.535,-0.46c0.204,-0.1,0.42,-0.15,0.648,-0.15c0.228,0,0.444,0.05,0.648,0.15c0.204,0.1,0.382,0.254,0.535,0.46c0.152,0.206,0.273,0.466,0.362,0.78C8.155,6.203,8.2,6.575,8.2,7.004zM13.9,7.004c0,0.429,-0.045,0.8,-0.134,1.114c-0.089,0.314,-0.21,0.573,-0.362,0.778c-0.152,0.205,-0.33,0.357,-0.535,0.456c-0.204,0.099,-0.42,0.149,-0.648,0.149c-0.228,0,-0.444,-0.049,-0.648,-0.149c-0.204,-0.099,-0.382,-0.251,-0.535,-0.456c-0.152,-0.205,-0.273,-0.464,-0.362,-0.778c-0.089,-0.313,-0.134,-0.685,-0.134,-1.114c0,-0.429,0.045,-0.8,0.134,-1.114c0.089,-0.313,0.21,-0.573,0.362,-0.78c0.152,-0.206,0.33,-0.36,0.535,-0.46c0.204,-0.1,0.42,-0.15,0.648,-0.15c0.228,0,0.444,0.05,0.648,0.15c0.204,0.1,0.382,0.254,0.535,0.46c0.152,0.206,0.273,0.466,0.362,0.78C13.855,6.203,13.9,6.575,13.9,7.004zM19.6,7.004c0,0.429,-0.045,0.8,-0.134,1.114c-0.089,0.314,-0.21,0.573,-0.362,0.778c-0.152,0.205,-0.33,0.357,-0.535,0.456c-0.204,0.099,-0.42,0.149,-0.648,0.149c-0.228,0,-0.444,-0.049,-0.648,-0.149c-0.204,-0.099,-0.382,-0.251,-0.535,-0.456c-0.152,-0.205,-0.273,-0.464,-0.362,-0.778c-0.089,-0.313,-0.134,-0.685,-0.134,-1.114c0,-0.429,0.045,-0.8,0.134,-1.114c0.089,-0.313,0.21,-0.573,0.362,-0.78c0.152,-0.206,0.33,-0.36,0.535,-0.46c0.204,-0.1,0.42,-0.15,0.648,-0.15c0.228,0,0.444,0.05,0.648,0.15c0.204,0.1,0.382,0.254,0.535,0.46c0.152,0.206,0.273,0.466,0.362,0.78C19.555,6.203,19.6,6.575,19.6,7.004z" fill="#FFFFFF" stroke="#383838" stroke-width="1" stroke-miterlimit="1"/>
    <path d="M26,8h2v2h-2V8zM22,10h2V8h-2V10zM22,21h2v-2h-2V21zM26,21h2v-2h-2V21z" fill="#78797A"/>
    <path d="M1,28.5h10.5M20.5,28.5h10.5M16,26.6v-3.2" fill="#FFFFFF" stroke="#383838" stroke-width="1" stroke-miterlimit="1"/>
    <rect x="11.5" y="26.5" width="9" height="4" fill="#C8C6C4" stroke="#383838" stroke-width="1" stroke-linecap="round" stroke-miterlimit="1"/>
  </g>
</svg>
