<?xml version="1.0" encoding="UTF-8"?>
<!DOCTYPE svg PUBLIC "-//W3C//DTD SVG 1.1//EN" "http://www.w3.org/Graphics/SVG/1.1/DTD/svg11.dtd">
<svg version="1.1" id="Layer_1" xmlns="http://www.w3.org/2000/svg" xmlns:xlink="http://www.w3.org/1999/xlink" x="0px" y="0px" width="32px" height="32px" viewBox="0 0 32 32" enable-background="new 0 0 32 32" xml:space="preserve">
  <g id="icon">
    <path d="M24.5,30.5H6.5c-2.761,0,-5,-2.239,-5,-5v0c0,-2.761,2.239,-5,5,-5h18c2.761,0,5,2.239,5,5v0C29.5,28.261,27.261,30.5,24.5,30.5z" fill="#FFFFFF" stroke="#383838" stroke-width="1" stroke-miterlimit="1"/>
    <path d="M19,25.5h2M15,25.5h2M23,25.5h2" fill="#FFFFFF" stroke="#228BCB" stroke-width="1" stroke-miterlimit="1"/>
    <line x1="15.5" y1="20.3" x2="15.5" y2="4" fill="#FFFFFF" stroke="#383838" stroke-width="1" stroke-miterlimit="1"/>
    <path d="M29.945,12.64l-0.996,-0.093c0.453,-4.837,-1.826,-8.695,-6.253,-10.587l0.393,-0.92c2.366,1.011,4.241,2.602,5.422,4.601C29.691,7.639,30.187,10.059,29.945,12.64zM26.999,12.34l-0.992,-0.128c0.45,-3.486,-1.086,-6.112,-4.326,-7.395l0.368,-0.93c1.833,0.726,3.194,1.831,4.047,3.285C26.951,8.629,27.254,10.367,26.999,12.34zM24.173,11.965l-0.992,-0.128c0.263,-2.036,-0.666,-3.631,-2.548,-4.376l0.368,-0.93C23.309,7.444,24.495,9.476,24.173,11.965z" fill="#228BCB"/>
    <path d="M2.527,5.641c1.181,-1.999,3.056,-3.59,5.422,-4.601l0.393,0.92C3.914,3.851,1.635,7.71,2.088,12.547l-0.996,0.093C0.851,10.059,1.346,7.639,2.527,5.641zM4.941,7.172c0.853,-1.454,2.214,-2.559,4.047,-3.285l0.368,0.93C6.116,6.1,4.579,8.726,5.03,12.212l-0.992,0.128C3.783,10.367,4.087,8.629,4.941,7.172zM10.037,6.53l0.368,0.93c-1.883,0.745,-2.812,2.34,-2.548,4.376l-0.992,0.128C6.543,9.476,7.729,7.444,10.037,6.53z" fill="#228BCB"/>
  </g>
</svg>
