<?xml version="1.0" encoding="UTF-8"?>
<!DOCTYPE svg PUBLIC "-//W3C//DTD SVG 1.1//EN" "http://www.w3.org/Graphics/SVG/1.1/DTD/svg11.dtd">
<svg version="1.1" id="Layer_1" xmlns="http://www.w3.org/2000/svg" xmlns:xlink="http://www.w3.org/1999/xlink" x="0px" y="0px" width="32px" height="32px" viewBox="0 0 32 32" enable-background="new 0 0 32 32" xml:space="preserve">
  <g id="icon">
    <path d="M29.55,24.5h-27.1c-0.525,0,-0.95,-0.425,-0.95,-0.95v-19.1c0,-0.525,0.425,-0.95,0.95,-0.95h27.1c0.525,0,0.95,0.425,0.95,0.95v19.1C30.5,24.075,30.075,24.5,29.55,24.5z" fill="#FFFFFF" stroke="#383838" stroke-width="1" stroke-miterlimit="1"/>
    <line x1="9" y1="29.5" x2="23" y2="29.5" fill="#FFFFFF" stroke="#383838" stroke-width="1" stroke-miterlimit="1"/>
    <path d="M20.5,29.5c1.4,0,-10.6,0,-9,0s2,-5,2,-5h5C18.5,24.5,19.1,29.5,20.5,29.5z" fill="#C8C6C4" stroke="#383838" stroke-width="1" stroke-linecap="round" stroke-miterlimit="1"/>
    <line x1="1.5" y1="21.5" x2="30.5" y2="21.5" fill="none" stroke="#383838" stroke-width="1" stroke-miterlimit="1"/>
  </g>
</svg>
