<?xml version="1.0" encoding="UTF-8"?>
<!DOCTYPE svg PUBLIC "-//W3C//DTD SVG 1.1//EN" "http://www.w3.org/Graphics/SVG/1.1/DTD/svg11.dtd">
<svg version="1.1" id="Layer_1" xmlns="http://www.w3.org/2000/svg" xmlns:xlink="http://www.w3.org/1999/xlink" x="0px" y="0px" width="16px" height="16px" viewBox="0 0 16 16" enable-background="new 0 0 16 16" xml:space="preserve">
  <g id="icon">
    <path d="M7.9979,15.8085c-1.3624,0,-2.7083,-0.3613,-3.8923,-1.0449c-1.8039,-1.0415,-3.0949,-2.726,-3.6355,-4.7432L0.4054,9.779l1.3171,-0.353l0.0647,0.2415c0.4461,1.6651,1.5116,3.0554,3.0003,3.9149c0.9771,0.5641,2.0875,0.8623,3.2113,0.8623c0.0002,0,0.0002,0,0.0004,0c2.3031,-0.0002,4.4464,-1.2347,5.5937,-3.2217c1.7771,-3.0781,0.7187,-7.0282,-2.3594,-8.8054c-0.9771,-0.5641,-2.0876,-0.8623,-3.2117,-0.8623c-0.5658,0,-1.1306,0.0745,-1.6788,0.2214l-0.2415,0.0647l-0.353,-1.3171l0.2415,-0.0647c0.6638,-0.1778,1.3479,-0.2681,2.0332,-0.2681c1.3625,0,2.7083,0.3613,3.8923,1.0449c3.7295,2.1532,5.0119,6.9392,2.8587,10.6687C13.3841,14.3128,10.7875,15.8085,7.9979,15.8085z" fill="#6486C4"/>
  </g>
</svg>
