<?xml version="1.0" encoding="UTF-8"?>
<!DOCTYPE svg PUBLIC "-//W3C//DTD SVG 1.1//EN" "http://www.w3.org/Graphics/SVG/1.1/DTD/svg11.dtd">
<svg version="1.1" id="Layer_1" xmlns="http://www.w3.org/2000/svg" xmlns:xlink="http://www.w3.org/1999/xlink" x="0px" y="0px" width="16px" height="16px" viewBox="0 0 16 16" enable-background="new 0 0 16 16" xml:space="preserve">
  <g id="icon">
    <path d="M8,15.1936c-0.5132,0,-0.9308,-0.4175,-0.9308,-0.9308c0,-0.5132,0.4175,-0.9307,0.9308,-0.9307s0.9308,0.4175,0.9308,0.9307C8.9308,14.7761,8.5132,15.1936,8,15.1936zM4.8678,14.4907c-0.1863,0,-0.3705,-0.0495,-0.5326,-0.1431c-0.5094,-0.2941,-0.6846,-0.9479,-0.3905,-1.4572c0.19,-0.3291,0.5443,-0.5335,0.9246,-0.5335c0.1863,0,0.3705,0.0495,0.5326,0.1431c0.5094,0.2941,0.6846,0.9478,0.3905,1.4572C5.6024,14.2863,5.248,14.4907,4.8678,14.4907L4.8678,14.4907zM11.1319,14.2185c-0.2833,0,-0.5471,-0.1522,-0.6886,-0.3974c-0.2191,-0.3795,-0.0886,-0.8664,0.2908,-1.0854c0.1208,-0.0697,0.258,-0.1065,0.3968,-0.1065c0.2833,0,0.5472,0.1523,0.6887,0.3974c0.1062,0.1838,0.1343,0.3979,0.0794,0.6029c-0.055,0.205,-0.1865,0.3764,-0.3703,0.4825C11.408,14.1816,11.2708,14.2185,11.1319,14.2185zM2.5771,12.3345c-0.4289,0,-0.8284,-0.2306,-1.0426,-0.6016c-0.3316,-0.5744,-0.1341,-1.3115,0.4403,-1.6432c0.1828,-0.1055,0.3905,-0.1613,0.6005,-0.1613c0.4289,0,0.8284,0.2305,1.0426,0.6016c0.1606,0.2783,0.2033,0.6024,0.1202,0.9128s-0.2822,0.5697,-0.5604,0.7304C2.9949,12.2787,2.7872,12.3345,2.5771,12.3345L2.5771,12.3345zM13.4234,11.7706c-0.1117,0,-0.2221,-0.0296,-0.3192,-0.0857c-0.1478,-0.0854,-0.2536,-0.2231,-0.2978,-0.388c-0.0441,-0.1648,-0.0215,-0.3371,0.0639,-0.4849c0.1138,-0.1971,0.326,-0.3196,0.5538,-0.3196c0.1117,0,0.2221,0.0296,0.3191,0.0857c0.3052,0.1762,0.4101,0.5679,0.2339,0.873C13.8635,11.6481,13.6512,11.7706,13.4234,11.7706L13.4234,11.7706zM1.7372,9.3392C0.9987,9.3392,0.3979,8.7384,0.3979,8s0.6008,-1.3392,1.3392,-1.3392S3.0763,7.2616,3.0763,8S2.4756,9.3392,1.7372,9.3392zM14.2628,8.639c-0.3523,0,-0.639,-0.2867,-0.639,-0.639s0.2866,-0.639,0.639,-0.639s0.639,0.2867,0.639,0.639S14.6152,8.639,14.2628,8.639zM2.575,6.3439c-0.2576,0,-0.5122,-0.0684,-0.7364,-0.1978c-0.7044,-0.4067,-0.9466,-1.3106,-0.5399,-2.0151c0.2627,-0.4551,0.7527,-0.7378,1.2787,-0.7378c0.2576,0,0.5123,0.0684,0.7364,0.1979c0.3413,0.197,0.5854,0.5151,0.6873,0.8957c0.102,0.3806,0.0497,0.7781,-0.1474,1.1194C3.591,6.0612,3.101,6.3439,2.575,6.3439L2.575,6.3439zM13.4242,5.5077c-0.2278,0,-0.4399,-0.1225,-0.5538,-0.3196c-0.1762,-0.3051,-0.0712,-0.6967,0.2339,-0.8729c0.0971,-0.0561,0.2074,-0.0857,0.3191,-0.0857c0.2277,0,0.4399,0.1225,0.5538,0.3196c0.1762,0.3051,0.0713,0.6967,-0.2339,0.8729C13.6462,5.478,13.5359,5.5077,13.4242,5.5077L13.4242,5.5077zM11.1311,3.2153c-0.1117,0,-0.2221,-0.0296,-0.3192,-0.0857c-0.3052,-0.1762,-0.4101,-0.5678,-0.2339,-0.8729c0.1139,-0.1972,0.3261,-0.3196,0.5539,-0.3196c0.1117,0,0.2221,0.0296,0.3191,0.0857c0.3052,0.1762,0.4101,0.5678,0.2339,0.873C11.5711,3.0929,11.3589,3.2153,11.1311,3.2153L11.1311,3.2153zM4.8689,3.2153c-0.2278,0,-0.4399,-0.1225,-0.5538,-0.3196c-0.0854,-0.1478,-0.108,-0.32,-0.0638,-0.4849c0.0442,-0.1649,0.1499,-0.3027,0.2977,-0.388c0.0971,-0.0561,0.2074,-0.0857,0.3191,-0.0857c0.2277,0,0.4399,0.1225,0.5538,0.3196c0.1762,0.3051,0.0712,0.6967,-0.2339,0.8729C5.091,3.1856,4.9807,3.2153,4.8689,3.2153C4.8689,3.2153,4.8689,3.2153,4.8689,3.2153zM8,2.3761c-0.3523,0,-0.639,-0.2866,-0.639,-0.639s0.2867,-0.639,0.639,-0.639s0.639,0.2867,0.639,0.639S8.3523,2.3761,8,2.3761z" fill="#6486C4"/>
  </g>
</svg>
