<?xml version="1.0" encoding="UTF-8"?>
<!DOCTYPE svg PUBLIC "-//W3C//DTD SVG 1.1//EN" "http://www.w3.org/Graphics/SVG/1.1/DTD/svg11.dtd">
<svg version="1.1" id="Layer_1" xmlns="http://www.w3.org/2000/svg" xmlns:xlink="http://www.w3.org/1999/xlink" x="0px" y="0px" width="16px" height="16px" viewBox="0 0 16 16" enable-background="new 0 0 16 16" xml:space="preserve">
  <g id="icon">
    <path d="M8,15.8331c-4.3064,0,-7.81,-3.5036,-7.81,-7.81S3.6936,0.213,8,0.213s7.81,3.5036,7.81,7.81S12.3064,15.8331,8,15.8331zM8,1.361c-3.6734,0,-6.662,2.9886,-6.662,6.662s2.9886,6.662,6.662,6.662s6.662,-2.9886,6.662,-6.662S11.6734,1.361,8,1.361z" fill="#6E6F72" opacity="0.3"/>
    <path d="M8,15.8872c-1.6472,0,-3.2257,-0.5062,-4.5647,-1.4639l-0.2039,-0.1458l0.7333,-1.0192l0.2028,0.1449c1.1244,0.8034,2.4497,1.2281,3.8326,1.2281s2.7082,-0.4247,3.8326,-1.2281l0.2027,-0.1449l0.7333,1.0192l-0.204,0.1458C11.2256,15.381,9.6472,15.8872,8,15.8872z" fill="#6486C4"/>
  </g>
</svg>
