<?xml version="1.0" encoding="UTF-8"?>
<!DOCTYPE svg PUBLIC "-//W3C//DTD SVG 1.1//EN" "http://www.w3.org/Graphics/SVG/1.1/DTD/svg11.dtd">
<svg version="1.1" id="Layer_1" xmlns="http://www.w3.org/2000/svg" xmlns:xlink="http://www.w3.org/1999/xlink" x="0px" y="0px" width="16px" height="16px" viewBox="0 0 16 16" enable-background="new 0 0 16 16" xml:space="preserve">
  <g id="icon">
    <path d="M8,15.8987c-4.3554,0,-7.8987,-3.5434,-7.8987,-7.8987S3.6446,0.1013,8,0.1013S15.8987,3.6446,15.8987,8S12.3554,15.8987,8,15.8987zM8,1.7097c-3.4685,0,-6.2903,2.8218,-6.2903,6.2903S4.5315,14.2903,8,14.2903S14.2903,11.4685,14.2903,8S11.4685,1.7097,8,1.7097z" fill="#6D6E71" opacity="0.2"/>
    <path d="M8,0v1.8109c3.4127,0,6.1891,2.7764,6.1891,6.1891S11.4127,14.1891,8,14.1891S1.8109,11.4127,1.8109,8c0,-0.6678,0.1077,-1.3107,0.3043,-1.9138l-1.7219,-0.56C0.1392,6.3058,0,7.1368,0,8c0,4.4112,3.5888,8,8,8s8,-3.5888,8,-8S12.4112,0,8,0z" fill="#52B250"/>
    <path d="M11.9955,5.9977c-0.3065,-0.6952,-0.8522,-1.0477,-1.6221,-1.0477c-0.7701,0,-1.3159,0.3525,-1.6222,1.0477C8.5429,6.4703,8.45,7.0956,8.45,8.025s0.0929,1.5547,0.3012,2.0273C9.0575,10.7475,9.6033,11.1,10.3734,11.1c0.7699,0,1.3156,-0.3525,1.6221,-1.0477c0.2083,-0.4727,0.3013,-1.0979,0.3013,-2.0273S12.2039,6.4703,11.9955,5.9977zM10.3734,10.1323c-0.5736,0,-0.9557,-0.3583,-0.9557,-2.1073s0.382,-2.1073,0.9557,-2.1073s0.9557,0.3583,0.9557,2.1073S10.947,10.1323,10.3734,10.1323zM5.7631,11.1C4.3157,11.1,3.8,10.131,3.8,9.2242c0,-0.575,0.2178,-1.0839,0.6014,-1.4148c-0.3667,-0.3989,-0.4241,-0.9032,-0.4241,-1.1792c0,-0.8167,0.4718,-1.6893,1.7958,-1.6893c1.3526,0,1.8325,0.91,1.8325,1.6893c0,0.4583,-0.1641,0.8849,-0.4539,1.1889c0.3877,0.3342,0.616,0.8507,0.616,1.4052C7.7677,9.9209,7.3455,11.1,5.7631,11.1zM5.7631,8.337c-0.6597,0,-0.9942,0.2985,-0.9942,0.8873c0,0.6017,0.3345,0.9068,0.9942,0.9068c0.9348,0,1.0357,-0.6342,1.0357,-0.9068C6.7988,8.9575,6.6979,8.337,5.7631,8.337zM5.7731,5.9098c-0.5719,0,-0.8269,0.2222,-0.8269,0.7204c0,0.5104,0.255,0.7379,0.8269,0.7379c0.7138,0,0.8636,-0.4013,0.8636,-0.7379C6.6367,6.3015,6.4869,5.9098,5.7731,5.9098z" fill="#6D6E71"/>
  </g>
</svg>
