<?xml version="1.0" encoding="UTF-8"?>
<!DOCTYPE svg PUBLIC "-//W3C//DTD SVG 1.1//EN" "http://www.w3.org/Graphics/SVG/1.1/DTD/svg11.dtd">
<svg version="1.1" id="Layer_1" xmlns="http://www.w3.org/2000/svg" xmlns:xlink="http://www.w3.org/1999/xlink" x="0px" y="0px" width="32px" height="32px" viewBox="0 0 32 32" enable-background="new 0 0 32 32" xml:space="preserve">
  <g id="icon">
    <path d="M16.001,14.626c-1.348,0,-2.187,1.046,-2.292,2.03c-0.073,0.684,0.121,1.329,0.546,1.815c0.423,0.483,1.041,0.771,1.697,0.788c0.021,0.001,0.063,0.001,0.063,0.001c1.083,0,2.258,-0.801,2.302,-2.287c0.037,-1.218,-0.894,-2.245,-2.118,-2.339C16.133,14.628,16.066,14.626,16.001,14.626zM24.725,26.394c-2.366,-2.256,-5.441,-3.134,-8.703,-3.134c-3.287,0,-6.456,0.914,-8.757,3.148l-2.111,-2.69c0,0,3.188,-1.481,3.345,-1.559c0.219,-0.108,0.445,-0.219,0.655,-0.339c0.781,-0.447,1.66,-1.016,2.261,-1.847c0.643,-0.89,0.46,-1.759,-0.503,-2.386c-1.213,-0.789,-2.673,-1.054,-4.07,-1.223c-0.561,-0.068,-3.839,-0.106,-4.437,-0.146l0.497,-3.003c0.045,-0.012,0.09,-0.024,0.134,-0.036c0.417,-0.111,0.848,-0.225,1.282,-0.316c1.896,-0.397,3.823,-0.658,5.726,-0.776c0.372,-0.023,0.744,-0.05,1.117,-0.076c0.928,-0.066,1.887,-0.134,2.836,-0.148c0.746,-0.011,1.549,-0.022,2.36,-0.022c1.866,0,3.38,0.059,4.764,0.186c0.312,0.029,0.625,0.056,0.937,0.084c0.745,0.066,1.515,0.134,2.272,0.214c1.719,0.181,3.296,0.478,4.804,0.904l0.337,2.989c-0.598,0.04,-3.786,0.078,-4.347,0.146c-1.397,0.169,-2.857,0.434,-4.07,1.223c-0.963,0.626,-1.146,1.496,-0.503,2.386c0.601,0.832,1.481,1.401,2.261,1.847c0.209,0.12,0.436,0.231,0.655,0.339c0.157,0.077,3.187,1.565,3.345,1.649L24.725,26.394z" fill="#C8C6C4"/>
    <path d="M24.725,26.394c-2.366,-2.256,-5.441,-3.134,-8.703,-3.134c-3.287,0,-6.456,0.914,-8.757,3.148M5.111,23.702c0.01,0.011,0.019,0.019,0.025,0.024c0.005,-0.002,0.011,-0.005,0.018,-0.009c0.158,-0.084,3.188,-1.481,3.345,-1.559c0.219,-0.108,0.445,-0.219,0.655,-0.339c0.781,-0.447,1.66,-1.016,2.261,-1.847c0.643,-0.89,0.46,-1.759,-0.503,-2.386c-1.213,-0.789,-2.673,-1.054,-4.07,-1.223c-0.561,-0.068,-3.839,-0.106,-4.437,-0.146M29.472,16.218c-0.598,0.04,-3.786,0.078,-4.347,0.146c-1.397,0.169,-2.857,0.434,-4.07,1.223c-0.963,0.626,-1.146,1.496,-0.503,2.386c0.601,0.832,1.481,1.401,2.261,1.847c0.209,0.12,0.436,0.231,0.655,0.339c0.157,0.077,3.187,1.565,3.345,1.649c0.007,0.004,0.013,0.007,0.018,0.009c0.006,-0.006,0.015,-0.013,0.025,-0.024M16.001,14.626c-1.348,0,-2.187,1.046,-2.292,2.03c-0.073,0.684,0.121,1.329,0.546,1.815c0.423,0.483,1.041,0.771,1.697,0.788c0.021,0.001,0.063,0.001,0.063,0.001c1.083,0,2.258,-0.801,2.302,-2.287c0.037,-1.218,-0.894,-2.245,-2.118,-2.339C16.133,14.628,16.066,14.626,16.001,14.626zM2.902,13.215c0.045,-0.012,0.09,-0.024,0.134,-0.036c0.417,-0.111,0.848,-0.225,1.282,-0.316c1.896,-0.397,3.823,-0.658,5.726,-0.776c0.372,-0.023,0.744,-0.05,1.117,-0.076c0.928,-0.066,1.887,-0.134,2.836,-0.148c0.746,-0.011,1.549,-0.022,2.36,-0.022c1.866,0,3.38,0.059,4.764,0.186c0.312,0.029,0.625,0.056,0.937,0.084c0.745,0.066,1.515,0.134,2.272,0.214c1.719,0.181,3.296,0.478,4.804,0.904" fill="none" stroke="#383838" stroke-width="1" stroke-miterlimit="1"/>
    <circle cx="15.995" cy="16" r="13.5" fill="none" stroke="#383838" stroke-width="1.2" stroke-miterlimit="1"/>
  </g>
</svg>
