<?xml version="1.0" encoding="UTF-8"?>
<!DOCTYPE svg PUBLIC "-//W3C//DTD SVG 1.1//EN" "http://www.w3.org/Graphics/SVG/1.1/DTD/svg11.dtd">
<svg version="1.1" id="Layer_1" xmlns="http://www.w3.org/2000/svg" xmlns:xlink="http://www.w3.org/1999/xlink" x="0px" y="0px" width="32px" height="32px" viewBox="0 0 32 32" enable-background="new 0 0 32 32" xml:space="preserve">
  <g id="icon">
    <path d="M13.5,6.6V4.45c0,-0.525,0.425,-0.95,0.95,-0.95h3.1c0.525,0,0.95,0.425,0.95,0.95V6.6" fill="#FFFFFF" stroke="#17AB4F" stroke-width="1" stroke-miterlimit="1"/>
    <path d="M8.5,26.848v2.303c0,0.745,-0.674,1.348,-1.506,1.348H4.998c-0.832,0,-1.506,-0.604,-1.506,-1.348v-3.128" fill="#FFFFFF" stroke="#787979" stroke-width="1" stroke-miterlimit="1"/>
    <path d="M23.5,26.8v2.352c0,0.745,0.673,1.348,1.503,1.348h1.993c0.83,0,1.503,-0.604,1.503,-1.348V26" fill="#FFFFFF" stroke="#787979" stroke-width="1" stroke-miterlimit="1"/>
    <path d="M27.352,14.009C25.257,7.804,26.56,6.6,16.063,6.6S6.966,7.804,5.107,14.009C12.341,15.331,19.759,15.305,27.352,14.009z" fill="#FFFFFF"/>
    <path d="M27.234,14.154C25.257,7.752,26.56,6.5,16.063,6.5S6.966,7.752,4.989,14.154" fill="none" stroke="#383838" stroke-width="1" stroke-miterlimit="1"/>
    <path d="M16.194,27.548c6.26,0,10.776,-0.463,11.404,-0.518c1.213,-0.107,1.485,-0.462,1.814,-1.816c0.416,-1.714,0.524,-4.31,0.037,-5.845c-0.266,-0.837,-0.796,-1.788,-0.859,-1.925c0.241,-0.072,0.495,-0.15,0.746,-0.235c1.248,-0.42,1.307,-1.173,1.137,-1.732c-0.183,-0.602,-0.653,-1.63,-1.257,-1.63c-0.218,0,-0.454,0.047,-0.703,0.139c-2.683,0.995,-5.553,1.077,-8.329,1.156c-0.922,0.026,-2.886,0.039,-4.024,0.039h-0.159c-1.138,0,-3.103,-0.013,-4.024,-0.039c-2.776,-0.079,-5.647,-0.161,-8.329,-1.156c-0.248,-0.092,-0.484,-0.139,-0.703,-0.139c-0.604,0,-1.074,1.028,-1.257,1.63c-0.17,0.558,-0.11,1.312,1.137,1.732c0.251,0.084,0.505,0.163,0.746,0.235c-0.062,0.137,-0.703,1.061,-0.859,1.925c-0.465,2.573,-0.225,4.565,0.037,5.845c0.28,1.365,0.6,1.709,1.814,1.816c0.628,0.055,5.145,0.518,11.404,0.518H16.194z" fill="#FFFFFF" stroke="#383838" stroke-width="1" stroke-miterlimit="1"/>
    <path d="M10.837,22.228c0,1.072,-1.196,1.533,-2.552,1.533c-1.356,0,-2.456,-0.869,-2.456,-1.942c0,-1.072,-0.128,-1.942,1.228,-1.942C8.413,19.878,10.837,21.156,10.837,22.228zM21.286,22.228c0,1.072,1.196,1.533,2.552,1.533c1.356,0,2.456,-0.869,2.456,-1.942c0,-1.072,0.128,-1.942,-1.228,-1.942C23.71,19.878,21.286,21.156,21.286,22.228z" fill="#FFFFFF" stroke="#ED8730" stroke-width="1" stroke-miterlimit="1"/>
  </g>
</svg>
