<?xml version="1.0" encoding="UTF-8"?>
<!DOCTYPE svg PUBLIC "-//W3C//DTD SVG 1.1//EN" "http://www.w3.org/Graphics/SVG/1.1/DTD/svg11.dtd">
<svg version="1.1" id="Layer_1" xmlns="http://www.w3.org/2000/svg" xmlns:xlink="http://www.w3.org/1999/xlink" x="0px" y="0px" width="24px" height="24px" viewBox="0 0 24 24" enable-background="new 0 0 24 24" xml:space="preserve">
  <g id="icon">
    <path d="M9.9226,5.0117c-0.1047,-0.4616,-0.1613,-0.9099,-0.1613,-1.3022c0,-1.8345,0.5513,-2.9965,3.0122,-2.9965c2.1851,0,2.9031,0.9166,3.0367,2.4062c-1.0932,0.2101,-1.9246,0.6967,-2.4778,1.4568c-0.2263,0.311,-0.3888,0.6462,-0.5056,0.9854C12.0019,5.3044,11.0309,5.1193,9.9226,5.0117zM23.2281,15.0356c-0.3065,-1.612,-0.8517,-1.6388,-3.8332,-2.7359c-0.4353,-0.1704,-0.5582,-0.4155,-0.5256,-0.7654c0.841,-1.0475,1.3477,-2.742,1.3477,-3.9266c0,-1.8345,-0.6008,-2.9965,-3.0617,-2.9965c-1.7458,0,-2.5299,0.5853,-2.8386,1.5801C15.4814,6.8583,16.1,7.7694,16.1,8.8933v8.4855c0.3973,-0.001,0.7593,-0.0041,1.0553,-0.0041c1.7089,0,5.6585,0.1061,5.9347,-0.702C23.3353,15.9547,23.3202,15.6835,23.2281,15.0356z" fill="#FFFFFF" opacity="0.5"/>
    <path d="M9.1872,4.9535c-0.0913,-0.4591,-0.1361,-0.8872,-0.1361,-1.244c0,-1.7261,0.4227,-3.7077,3.7184,-3.7094c2.9152,0.0013,3.6091,1.5711,3.7457,3.0235c-0.5154,0.0411,-0.9827,0.1337,-1.4011,0.2772c-0.0723,-1.2441,-0.5403,-1.8749,-2.3405,-1.875c-1.9577,0.0001,-2.3022,0.7365,-2.3022,2.2837c0,0.3934,0.07,0.8831,0.2037,1.3899C10.2072,5.0351,9.7102,4.9867,9.1872,4.9535zM23.9308,14.9327l-0.0051,-0.0307c-0.3512,-1.847,-1.1957,-2.1522,-3.4554,-2.9692c-0.2449,-0.0885,-0.5111,-0.1847,-0.7982,-0.2903c0.8617,-1.2728,1.2551,-2.9704,1.2551,-4.0347c0,-1.5916,-0.391,-3.7079,-3.7758,-3.7094c-2.1909,0.0012,-3.1115,0.8775,-3.4829,1.9719c0.4956,0.2136,0.9189,0.4608,1.2669,0.7401c0.1861,-0.8679,0.7452,-1.2862,2.2202,-1.2863c1.9876,0.0001,2.3513,0.7691,2.3513,2.2837c0,0.9678,-0.4173,2.5161,-1.1906,3.4793l-0.1342,0.1672l-0.0199,0.2138c-0.0457,0.4904,0.0864,1.148,0.9757,1.4962l0.0126,0.0048c0.2993,0.1101,0.5741,0.2095,0.8267,0.3008l0.0146,0.0053c2.2729,0.8216,2.344,0.8743,2.5351,1.8754c0.0723,0.5089,0.0872,0.6866,-0.0699,1.174c-0.1359,0.0636,-0.569,0.2097,-1.7736,0.2865c-0.7778,0.0495,-1.6462,0.0553,-2.2316,0.0553c-0.2634,0,-0.5134,-0.0013,-0.748,-0.0025l-0.0187,-0.0001c-0.1912,-0.001,-0.3682,-0.0019,-0.5338,-0.0019c-0.1579,0,-0.3343,0.0009,-0.5247,0.0019l-0.0181,0.0001c-0.1592,0.0009,-0.3301,0.0017,-0.5085,0.0022v1.4251c0.1679,-0.0001,0.3394,-0.0006,0.516,-0.0016c0.1958,-0.001,0.377,-0.002,0.54,-0.002c0.1563,0,0.3314,0.0009,0.5209,0.0019l0.0194,0.0001c0.2022,0.0011,0.3986,0.0016,0.5894,0.0016c3.4353,0,5.1309,-0.1777,5.4759,-1.1872C24.0504,16.0592,24.0363,15.6741,23.9308,14.9327z" fill="#6485C3"/>
    <path d="M7.2692,6.75c-3.8235,0,-6.5,0.8413,-6.5,1.9125v11.678c0,1.6069,2.6765,2.9095,6.5,2.9095s6.5769,-1.3026,6.5769,-2.9095V8.6625C13.8462,7.5913,11.0927,6.75,7.2692,6.75z" fill="#FFFFFF" opacity="0.5"/>
    <path d="M7.4623,24c-1.8609,0,-3.4113,-0.2892,-4.8792,-0.9102C0.9174,22.3851,0,21.3396,0,20.146V8.8933C0,6.2087,5.7117,6,7.4623,6C11.1063,6,15,6.7601,15,8.8933V20.146c0,1.1937,-0.9174,2.2391,-2.5831,2.9437C10.9691,23.7023,9.3484,24,7.4623,24zM2.1443,20.1329c0,0.196,0.3591,0.6355,1.3483,1.043c1.1843,0.4878,2.3912,0.7054,3.9134,0.7054c1.5315,0,2.8362,-0.2307,3.9886,-0.7054c0.9892,-0.4075,1.3483,-0.847,1.3483,-1.043V9.0587c-0.2017,-0.1532,-1.4314,-0.9399,-5.3369,-0.9399c-3.4664,0,-4.9355,0.6487,-5.2617,0.9346V20.1329z" fill="#EEAC55"/>
    <path d="M7.3077,11.55c-2.9187,0,-6.4524,-0.6922,-6.8059,-2.643L0.4778,8.775h1.0854l0.0346,0.0429c0.4254,0.5264,2.1662,1.5219,5.7098,1.5219c3.3432,0,5.2923,-0.9102,5.7866,-1.5219l0.0346,-0.0429h1.0855l-0.0239,0.1321C13.837,10.8578,10.2618,11.55,7.3077,11.55z" fill="#EEAC55"/>
  </g>
</svg>
