<?xml version="1.0" encoding="UTF-8"?>
<!DOCTYPE svg PUBLIC "-//W3C//DTD SVG 1.1//EN" "http://www.w3.org/Graphics/SVG/1.1/DTD/svg11.dtd">
<svg version="1.1" id="Layer_1" xmlns="http://www.w3.org/2000/svg" xmlns:xlink="http://www.w3.org/1999/xlink" x="0px" y="0px" width="24px" height="24px" viewBox="0 0 24 24" enable-background="new 0 0 24 24" xml:space="preserve">
  <g id="icon">
    <path d="M18.9168,2.6146c-0.5168,0,-1.0283,0.0803,-1.5225,0.2388C16.3169,1.0898,14.4008,0,12.3611,0C9.6127,0,7.1955,1.9714,6.5805,4.7002c-0.159,0.0689,-0.3122,0.148,-0.4597,0.2354c0.5105,-0.0266,0.9595,-0.0349,1.3029,-0.0354c0,0,0,0,0,0c0.0125,0,0.0264,-0.0002,0.0386,-0.0002c0.1563,0,0.3102,0.0015,0.4627,0.0039c0.1505,0.0025,0.2991,0.0061,0.4461,0.0107l0,0C13.2971,5.069,16.1,6.4992,16.1,8.8933v2.3123v0.9137V13h2.8168C21.7197,13,24,10.6706,24,7.8073C24,4.9441,21.7197,2.6146,18.9168,2.6146z" fill="#6485C3"/>
    <path d="M14.9,10.4498v9.8907c0,1.0954,-0.8794,2.0698,-2.476,2.7435c-1.4,0.5907,-3.0287,0.916,-5.0132,0.916s-3.5348,-0.3253,-4.9347,-0.916C0.8794,22.4103,0,21.4359,0,20.3405v-9.8907c0.4121,0.35,1.0243,0.6941,1.9212,0.9966c1.4887,0.5021,3.4522,0.7786,5.5288,0.7786s4.04,-0.2765,5.5288,-0.7786C13.8757,11.1439,14.4879,10.7998,14.9,10.4498zM7.45,6C3.3355,6,0,7.1249,0,8.5125s3.3355,2.5125,7.45,2.5125S14.9,9.9001,14.9,8.5125S11.5645,6,7.45,6z" fill="#EEAC55"/>
  </g>
</svg>
