<?xml version="1.0" encoding="UTF-8"?>
<!DOCTYPE svg PUBLIC "-//W3C//DTD SVG 1.1//EN" "http://www.w3.org/Graphics/SVG/1.1/DTD/svg11.dtd">
<svg version="1.1" id="Layer_1" xmlns="http://www.w3.org/2000/svg" xmlns:xlink="http://www.w3.org/1999/xlink" x="0px" y="0px" width="24px" height="24px" viewBox="0 0 24 24" enable-background="new 0 0 24 24" xml:space="preserve">
  <g id="icon">
    <polygon points="0.947,7.8323 0,8.7674 3.2297,12.0384 0,15.3093 0.947,16.2445 5.1,12.0384" fill="#6485C3" stroke-linejoin="miter"/>
    <polygon points="23.053,7.8323 24,8.7674 20.7703,12.0384 24,15.3093 23.053,16.2445 18.9,12.0384" fill="#6485C3" stroke-linejoin="miter"/>
    <path d="M16.4527,7.1009c-1.199,0.6131,-2.7803,0.9507,-4.4527,0.9507s-3.2537,-0.3376,-4.4527,-0.9507C6.825,6.7315,6.3319,6.3113,6,5.884v12.6265c0,1.3376,0.7082,2.5273,1.9941,3.35c1.1275,0.7212,2.376,1.1184,3.9743,1.1184s2.91,-0.3972,4.0374,-1.1184c1.2859,-0.8227,1.9941,-2.0124,1.9941,-3.35V5.884C17.6681,6.3113,17.175,6.7315,16.4527,7.1009z" fill="#EEAC55"/>
    <ellipse cx="12" cy="4.0679" rx="6" ry="3.0679" fill="#EEAC55"/>
  </g>
</svg>
