<?xml version="1.0" encoding="UTF-8"?>
<!DOCTYPE svg PUBLIC "-//W3C//DTD SVG 1.1//EN" "http://www.w3.org/Graphics/SVG/1.1/DTD/svg11.dtd">
<svg version="1.1" id="Layer_1" xmlns="http://www.w3.org/2000/svg" xmlns:xlink="http://www.w3.org/1999/xlink" x="0px" y="0px" width="24px" height="24px" viewBox="0 0 24 24" enable-background="new 0 0 24 24" xml:space="preserve">
  <g id="icon">
    <path d="M22,21.9H2V7h20V21.9z" fill="#FFFFFF" opacity="0.4"/>
    <path d="M24,7H0V2h24V7z" fill="#9070B1"/>
    <polygon points="22,7 22,22 2,22 2,7 0,7 0,24 24,24 24,7" fill="#7B7B7B" stroke-linejoin="miter"/>
    <rect x="2" y="17" width="20" height="5" fill="#48484A" opacity="0.1"/>
    <path d="M20.5,18.5h-4v2h4V18.5zM14.5,18.5h-4v2h4V18.5z" fill="#FFFEFF"/>
    <path d="M21,21h-5v-3h5V21zM17,20h3v-1h-3V20zM15,21h-5v-3h5V21zM11,20h3v-1h-3V20z" fill="#7B7B7B"/>
  </g>
</svg>
