<?xml version="1.0" encoding="UTF-8"?>
<!DOCTYPE svg PUBLIC "-//W3C//DTD SVG 1.1//EN" "http://www.w3.org/Graphics/SVG/1.1/DTD/svg11.dtd">
<svg version="1.1" id="Layer_1" xmlns="http://www.w3.org/2000/svg" xmlns:xlink="http://www.w3.org/1999/xlink" x="0px" y="0px" width="24px" height="24px" viewBox="0 0 24 24" enable-background="new 0 0 24 24" xml:space="preserve">
  <g id="icon">
    <path d="M9.4747,20.3722c-3.2021,0,-5.798,-2.6067,-5.798,-5.8223s2.5959,-5.8223,5.798,-5.8223s5.798,2.6067,5.798,5.8223S12.6769,20.3722,9.4747,20.3722z" fill="#FFFFFF" opacity="0.4"/>
    <path d="M0.0589,22.3497l4.1713,-4.1893c-0.709,-1.0477,-1.0834,-2.27,-1.0834,-3.5403c0,-3.4849,2.8235,-6.32,6.2941,-6.32s6.2941,2.8352,6.2941,6.32s-2.8235,6.32,-6.2941,6.32c-1.265,0,-2.4821,-0.3758,-3.5255,-1.0876l-4.1715,4.1893L0.0589,22.3497zM9.4409,10.084c-2.4905,0,-4.5167,2.0348,-4.5167,4.536s2.0262,4.536,4.5167,4.536c2.4905,0,4.5167,-2.0348,4.5167,-4.536S11.9314,10.084,9.4409,10.084z" fill="#52B250"/>
    <path d="M4.5,5v4.1054C5.8105,7.9218,7.5431,7.2,9.4409,7.2c4.0771,0,7.3941,3.3286,7.3941,7.42c0,1.8673,-0.6924,3.5744,-1.8312,4.88H22.5V5H4.5z" fill="#FFFFFF" opacity="0.5"/>
    <path d="M3,10.9825V5h2v3.6916C4.1862,9.307,3.5038,10.0877,3,10.9825zM22,5v14h-6.5956c-0.589,0.8054,-1.3355,1.4872,-2.1941,2H24V5H22z" fill="#7B7B7B"/>
    <rect x="3" width="21" height="5" fill="#6485C3"/>
    <path d="M17,10v4h5v1h-5v4h-1v-0.961c0.5322,-1.024,0.835,-2.1864,0.835,-3.419s-0.3028,-2.395,-0.835,-3.419V10h-0.7795c-0.2884,-0.3626,-0.6099,-0.6973,-0.9599,-1H16V5h1v4h5v1H17zM11,7.3675V5h-1v2.2234C10.3402,7.2491,10.6741,7.297,11,7.3675z" fill="#B7B7B7"/>
  </g>
</svg>
