<?xml version="1.0" encoding="UTF-8"?>
<!DOCTYPE svg PUBLIC "-//W3C//DTD SVG 1.1//EN" "http://www.w3.org/Graphics/SVG/1.1/DTD/svg11.dtd">
<svg version="1.1" id="Layer_1" xmlns="http://www.w3.org/2000/svg" xmlns:xlink="http://www.w3.org/1999/xlink" x="0px" y="0px" width="24px" height="24px" viewBox="0 0 24 24" enable-background="new 0 0 24 24" xml:space="preserve">
  <g id="icon">
    <path d="M24,23h-7v-2h7V23zM7,23H0v-2h7V23zM13,19h-2v-2.2h2V19z" fill="#7B7B7B"/>
    <path d="M16,24H8v-4h8V24z" fill="#EEAC55"/>
    <path d="M3,17h18v-5H3V17zM16,14h3v2h-3V14zM3,11h18V6H3V11zM16,8h3v2h-3V8zM3,0v5h18V0H3zM19,4h-3V2h3V4z" fill="#9070B1"/>
    <path d="M19,4h-3V2h3V4zM19,8h-3v2h3V8zM19,14h-3v2h3V14z" fill="#FFFFFF" opacity="0.5"/>
  </g>
</svg>
