<?xml version="1.0" encoding="UTF-8"?>
<!DOCTYPE svg PUBLIC "-//W3C//DTD SVG 1.1//EN" "http://www.w3.org/Graphics/SVG/1.1/DTD/svg11.dtd">
<svg version="1.1" id="Layer_1" xmlns="http://www.w3.org/2000/svg" xmlns:xlink="http://www.w3.org/1999/xlink" x="0px" y="0px" width="24px" height="24px" viewBox="0 0 24 24" enable-background="new 0 0 24 24" xml:space="preserve">
  <g id="icon">
    <path d="M24,23h-7v-2h7V23zM7,23H0v-2h7V23zM13,19h-2v-3.2h2V19z" fill="#7B7B7B"/>
    <path d="M16,24H8v-4h8V24z" fill="#EEAC55"/>
    <path d="M17.9002,3.218c-0.6202,0,-1.234,0.0988,-1.827,0.2939C14.7803,1.3413,12.481,0,10.0333,0c-3.298,0,-6.1987,2.4263,-6.9366,5.7848C1.2402,6.6099,0,8.5636,0,10.6816C0,13.6142,2.2789,16,5.08,16h12.8201C21.2636,16,24,13.133,24,9.609S21.2636,3.218,17.9002,3.218z" fill="#6485C3"/>
  </g>
</svg>
