<?xml version="1.0" encoding="UTF-8"?>
<!DOCTYPE svg PUBLIC "-//W3C//DTD SVG 1.1//EN" "http://www.w3.org/Graphics/SVG/1.1/DTD/svg11.dtd">
<svg version="1.1" id="Layer_1" xmlns="http://www.w3.org/2000/svg" xmlns:xlink="http://www.w3.org/1999/xlink" x="0px" y="0px" width="24px" height="24px" viewBox="0 0 24 24" enable-background="new 0 0 24 24" xml:space="preserve">
  <g id="icon">
    <rect x="1" y="7" width="22" height="16" fill="#FFFFFF" opacity="0.5"/>
    <polygon points="12,5 12,1 0,1 0,7 14,7 15,7 24,7 24,5" fill="#52B4C0" stroke-linejoin="miter"/>
    <polygon points="22,7 22,22 2,22 2,7 0,7 0,24 24,24 24,7" fill="#7B7B7B" stroke-linejoin="miter"/>
    <path d="M20,15h-5v-1h5V15zM20,17h-5v-1h5V17zM20,19h-5v-1h5V19zM20,13h-5v-1h5V13zM20,11h-5v-1h5V11z" fill="#7B7B7B"/>
    <path d="M12.7579,17.6776c-0.2265,-1.2666,-0.6294,-1.2877,-2.8326,-2.1497c-0.3217,-0.1339,-0.4125,-0.3265,-0.3884,-0.6014c0.6215,-0.8231,0.9959,-2.1545,0.9959,-3.0853c0,-1.4415,-0.444,-2.3545,-2.2625,-2.3545c-0.0075,0,0.0024,0,0,0c-1.8185,0,-2.2259,0.9131,-2.2259,2.3545c0,0.9308,0.373,2.2597,0.9944,3.0827c0.0241,0.2749,-0.0675,0.4688,-0.3892,0.6027c-2.2032,0.862,-2.6065,0.8838,-2.833,2.1504c-0.0681,0.5091,-0.0794,0.7225,0.1019,1.2867c0.2041,0.635,3.0889,0.5519,4.3517,0.5519c0.0051,0,-0.0086,0,0,0c1.2628,0,4.1815,0.0834,4.3856,-0.5516C12.8371,18.3998,12.826,18.1867,12.7579,17.6776z" fill="#FFFFFF" opacity="0.5"/>
    <path d="M9.0948,20c-0.1395,0,-0.2832,-0.0004,-0.431,-0.0012l-0.0175,-0.0001c-0.1364,-0.0008,-0.2626,-0.0014,-0.3754,-0.0014c-0.1185,0,-0.2502,0.0007,-0.3926,0.0014c-0.1472,0.0008,-0.2907,0.0012,-0.4296,0.0012c-2.6431,0,-3.8717,-0.1484,-4.1652,-1.0277c-0.2225,-0.6664,-0.2109,-0.9865,-0.1315,-1.5579l0.0044,-0.0271c0.2781,-1.4976,0.9735,-1.7549,2.6534,-2.3767c0,0,0.2349,-0.0869,0.3505,-0.13c-0.5602,-0.9552,-0.8169,-2.1517,-0.8169,-2.9091c0,-1.2749,0.3031,-2.9701,2.9242,-2.9715c2.9661,0.0014,2.9661,2.2369,2.9661,2.9715c0,0.7575,-0.2571,1.9546,-0.8179,2.9108c0.1168,0.0435,0.3515,0.1305,0.3515,0.1305c1.678,0.621,2.3727,0.8781,2.6496,2.369l0.0045,0.0269c0.0802,0.5769,0.0918,0.8972,-0.1307,1.5639C12.9973,19.8517,11.7592,20,9.0948,20zM8.2676,18.5285c0.1198,0,0.2478,0.0007,0.3858,0.0014l0.0438,0.0003c0.1638,0.0008,0.3364,0.0017,0.5178,0.0017c0.4241,0,1.0527,-0.0042,1.6137,-0.0408c0.6741,-0.0439,0.9947,-0.1185,1.1317,-0.1623c0.073,-0.257,0.0618,-0.3709,0.0162,-0.6998c-0.1211,-0.6481,-0.1211,-0.6481,-1.7148,-1.2379l-0.0423,-0.0157c-0.1758,-0.0651,-0.3663,-0.1356,-0.5725,-0.2134l-0.0135,-0.0052c-0.5978,-0.2396,-0.8964,-0.7087,-0.8408,-1.3207l0.0198,-0.217l0.1341,-0.1709c0.5365,-0.6841,0.8259,-1.7866,0.8259,-2.4766c0,-1.0596,-0.2087,-1.5026,-1.5018,-1.5026c-1.2446,0.0001,-1.4661,0.3937,-1.4661,1.5026c0,0.6897,0.289,1.7913,0.8245,2.4742l0.1341,0.171l0.0197,0.2168c0.0558,0.6127,-0.2429,1.0821,-0.8409,1.3217l-0.0105,0.0041c-0.2172,0.0818,-0.4136,0.1545,-0.5945,0.2215l-0.0223,0.0083c-1.5956,0.5906,-1.5956,0.5906,-1.7188,1.2516c-0.044,0.3191,-0.055,0.4316,0.0183,0.6891c0.1354,0.0435,0.4517,0.1174,1.1166,0.1612c0.5562,0.0366,1.1805,0.0409,1.6018,0.0409c0.1885,0,0.3673,-0.0009,0.5303,-0.0018l0.023,-0.0002C8.0256,18.5291,8.1532,18.5285,8.2676,18.5285z" fill="#6485C3"/>
  </g>
</svg>
