<?xml version="1.0" encoding="UTF-8"?>
<!DOCTYPE svg PUBLIC "-//W3C//DTD SVG 1.1//EN" "http://www.w3.org/Graphics/SVG/1.1/DTD/svg11.dtd">
<svg version="1.1" id="Layer_1" xmlns="http://www.w3.org/2000/svg" xmlns:xlink="http://www.w3.org/1999/xlink" x="0px" y="0px" width="24px" height="24px" viewBox="0 0 24 24" enable-background="new 0 0 24 24" xml:space="preserve">
  <g id="icon">
    <rect x="1" y="7" width="22" height="16" fill="#FFFFFF" opacity="0.5"/>
    <polygon points="12,5 12,1 0,1 0,7 14,7 15,7 24,7 24,5" fill="#52B4C0" stroke-linejoin="miter"/>
    <polygon points="22,7 22,22 2,22 2,7 0,7 0,24 24,24 24,7" fill="#7B7B7B" stroke-linejoin="miter"/>
    <path d="M14.293,19.1895l-0.7351,-0.9145c-0.0673,0.0233,-0.1356,0.0443,-0.2047,0.0628c-0.2596,0.0696,-0.5367,0.1049,-0.8232,0.1049c-0.4827,0,-0.934,-0.1011,-1.3413,-0.3006c-0.4044,-0.1979,-0.7555,-0.4835,-1.0436,-0.8487c-0.2753,-0.3489,-0.4901,-0.7709,-0.6384,-1.2541c-0.1431,-0.4656,-0.2157,-0.992,-0.2157,-1.5644c0,-0.569,0.0725,-1.0944,0.2156,-1.5616c0.148,-0.4841,0.3625,-0.9073,0.6375,-1.2578c0.2876,-0.3666,0.6382,-0.6537,1.0421,-0.8534c0.4081,-0.2018,0.8602,-0.3041,1.3438,-0.3041c0.4848,0,0.9376,0.101,1.346,0.3c0.4067,0.1982,0.7592,0.4852,1.0477,0.8529c0.2747,0.3502,0.4892,0.7733,0.6375,1.2577c0.1431,0.4678,0.2156,0.9947,0.2156,1.5662c0,0.3861,-0.0331,0.7531,-0.0985,1.0907c-0.0666,0.3445,-0.1655,0.6671,-0.2937,0.9588c-0.133,0.3023,-0.299,0.576,-0.4936,0.8136c-0.0409,0.0499,-0.0831,0.0984,-0.1265,0.1453l0.6647,0.8269L14.293,19.1895zM12.53,11.918c-0.2589,0,-0.4855,0.0498,-0.6926,0.1522c-0.2115,0.1046,-0.3903,0.2523,-0.5466,0.4515c-0.167,0.2129,-0.301,0.482,-0.3982,0.7998c-0.1025,0.3348,-0.1544,0.7228,-0.1544,1.1533c0,0.4334,0.0519,0.8218,0.1541,1.1546c0.0971,0.3163,0.2307,0.5836,0.3972,0.7946c0.1559,0.1978,0.3342,0.344,0.5452,0.4473c0.2078,0.1018,0.4352,0.1512,0.6953,0.1512c0.1578,0,0.3065,-0.0184,0.4421,-0.0547c0.133,-0.0356,0.2541,-0.0863,0.3703,-0.1549l0.0668,-0.041c0.1295,-0.0861,0.2485,-0.1949,0.3538,-0.3236c0.113,-0.138,0.2116,-0.3018,0.293,-0.4869c0.0863,-0.1961,0.1538,-0.4185,0.2006,-0.6608c0.0485,-0.2506,0.0731,-0.5284,0.0731,-0.8258c0,-0.4332,-0.052,-0.8227,-0.1545,-1.1578c-0.0973,-0.318,-0.2313,-0.5872,-0.3982,-0.7999c-0.1554,-0.1981,-0.3336,-0.3444,-0.5448,-0.4473C13.0228,11.9676,12.7931,11.918,12.53,11.918zM5.902,18.5943c-0.2821,0,-0.5419,-0.026,-0.7723,-0.0772c-0.2258,-0.05,-0.4334,-0.1169,-0.6168,-0.1988c-0.1833,-0.0816,-0.3458,-0.1731,-0.4827,-0.2715c-0.1186,-0.0852,-0.2199,-0.1655,-0.3091,-0.2451c-0.0834,-0.0744,-0.145,-0.1318,-0.1937,-0.1805l1.0326,-0.9948c0.0283,0.0282,0.0736,0.0702,0.1346,0.1246c0.0503,0.0449,0.1145,0.0954,0.1908,0.1502c0.0572,0.0412,0.1331,0.0828,0.2262,0.1243c0.0941,0.042,0.2074,0.0778,0.3373,0.1065c0.1261,0.028,0.2784,0.0422,0.4531,0.0422c0.2467,0,0.4622,-0.0339,0.6405,-0.1009c0.1739,-0.0652,0.3193,-0.1508,0.4326,-0.2543c0.1079,-0.0987,0.1875,-0.21,0.2435,-0.3404c0.0583,-0.1357,0.0866,-0.2779,0.0866,-0.4347c0,-0.132,-0.0224,-0.2076,-0.0412,-0.2479c-0.0309,-0.0663,-0.0706,-0.1206,-0.1211,-0.1662c-0.0699,-0.063,-0.1555,-0.1192,-0.2542,-0.1667c-0.1335,-0.0643,-0.2797,-0.1234,-0.4345,-0.1755c-0.1699,-0.0572,-0.3461,-0.1108,-0.523,-0.1594c-0.2066,-0.0567,-0.4113,-0.12,-0.6084,-0.1882c-0.2126,-0.0733,-0.4172,-0.1589,-0.6074,-0.2542c-0.2254,-0.1131,-0.4272,-0.254,-0.6,-0.4188c-0.1889,-0.1802,-0.3398,-0.3957,-0.4484,-0.6405C3.5562,13.3771,3.5,13.09,3.5,12.7734c0,-0.3104,0.0642,-0.6121,0.1907,-0.8967c0.1271,-0.2862,0.3142,-0.5412,0.5559,-0.7577c0.2353,-0.2107,0.5226,-0.3785,0.8542,-0.499c0.3249,-0.1179,0.6927,-0.1777,1.0932,-0.1777c0.4434,0,0.8487,0.0694,1.2048,0.2063c0.3616,0.139,0.7012,0.3586,1.0094,0.6527l-1.0089,1.018c-0.1693,-0.1615,-0.3471,-0.2788,-0.5283,-0.3484c-0.1873,-0.072,-0.415,-0.1085,-0.677,-0.1085c-0.2287,0,-0.4275,0.0301,-0.5909,0.0894c-0.1557,0.0566,-0.284,0.1294,-0.3809,0.2161c-0.0918,0.0822,-0.1588,0.1727,-0.205,0.2766c-0.0471,0.106,-0.07,0.2135,-0.07,0.3289c0,0.1185,0.0161,0.2174,0.0466,0.2861c0.0337,0.0759,0.0762,0.1377,0.1302,0.1892c0.0703,0.0671,0.152,0.1235,0.25,0.1726c0.1323,0.0664,0.2768,0.1266,0.4291,0.1791c0.1678,0.058,0.3419,0.1118,0.518,0.1601c0.2036,0.0559,0.4063,0.1177,0.6027,0.1837c0.2123,0.0715,0.4151,0.1536,0.6029,0.2441c0.2229,0.1074,0.4232,0.2405,0.5954,0.3956c0.1926,0.1738,0.3465,0.3824,0.4577,0.6206c0.1146,0.2455,0.1727,0.5279,0.1727,0.8393c0,0.3451,-0.0673,0.6768,-0.2002,0.9861c-0.1349,0.3143,-0.3336,0.5928,-0.5903,0.8277c-0.2502,0.2288,-0.5537,0.4111,-0.9021,0.5419C6.7158,18.5287,6.3263,18.5943,5.902,18.5943zM20.8,18.4h-4.3v-7.9h1.5v6.5h2.8V18.4z" fill="#6485C3"/>
  </g>
</svg>
