<?xml version="1.0" encoding="UTF-8"?>
<!DOCTYPE svg PUBLIC "-//W3C//DTD SVG 1.1//EN" "http://www.w3.org/Graphics/SVG/1.1/DTD/svg11.dtd">
<svg version="1.1" id="Layer_1" xmlns="http://www.w3.org/2000/svg" xmlns:xlink="http://www.w3.org/1999/xlink" x="0px" y="0px" width="24px" height="24px" viewBox="0 0 24 24" enable-background="new 0 0 24 24" xml:space="preserve">
  <g id="icon">
    <rect x="1" y="7" width="22" height="16" fill="#FFFFFF" opacity="0.5"/>
    <polygon points="12,5 12,1 0,1 0,7 14,7 15,7 24,7 24,5" fill="#52B4C0" stroke-linejoin="miter"/>
    <polygon points="22,7 22,22 2,22 2,7 0,7 0,24 24,24 24,7" fill="#7B7B7B" stroke-linejoin="miter"/>
    <rect x="1" y="7" width="22" height="16" fill="#FFFFFF" opacity="0.5"/>
    <polygon points="12,5 12,1 0,1 0,7 14,7 15,7 24,7 24,5" fill="#52B4C0" stroke-linejoin="miter"/>
    <polygon points="22,7 22,22 2,22 2,7 0,7 0,24 24,24 24,7" fill="#7B7B7B" stroke-linejoin="miter"/>
    <path d="M11.3308,8.5417c-2.8039,0,-4.7667,0.6076,-4.7667,1.3813v8.4341c0,1.1605,1.9628,2.1013,4.7667,2.1013s4.8231,-0.9408,4.8231,-2.1013V9.9229C16.1538,9.1492,14.1347,8.5417,11.3308,8.5417z" fill="#FFFFFF" opacity="0.5"/>
    <path d="M11.4724,21c-1.3646,0,-2.5016,-0.2089,-3.5781,-0.6574C6.6727,19.8337,6,19.0786,6,18.2165v-8.127C6,8.1507,10.1886,8,11.4724,8C14.1446,8,17,8.549,17,10.0896v8.127c0,0.8621,-0.6727,1.6171,-1.8942,2.126C14.044,20.785,12.8555,21,11.4724,21zM7.5725,18.2071c0,0.1415,0.2633,0.4589,0.9887,0.7533c0.8685,0.3523,1.7536,0.5094,2.8698,0.5094c1.1231,0,2.0799,-0.1666,2.925,-0.5094c0.7254,-0.2943,0.9887,-0.6117,0.9887,-0.7533v-7.998c-0.1479,-0.1107,-1.0497,-0.6788,-3.9137,-0.6788c-2.542,0,-3.6193,0.4685,-3.8586,0.675V18.2071z" fill="#EEAC55"/>
    <path d="M11.359,12.0083c-2.1404,0,-4.7318,-0.4999,-4.991,-1.9088l-0.0176,-0.0954h0.796l0.0254,0.031c0.3119,0.3802,1.5885,1.0992,4.1872,1.0992c2.4517,0,3.881,-0.6573,4.2435,-1.0992l0.0254,-0.031h0.796l-0.0176,0.0954C16.1472,11.5084,13.5254,12.0083,11.359,12.0083z" fill="#EEAC55"/>
  </g>
</svg>
