<?xml version="1.0" encoding="UTF-8"?>
<!DOCTYPE svg PUBLIC "-//W3C//DTD SVG 1.1//EN" "http://www.w3.org/Graphics/SVG/1.1/DTD/svg11.dtd">
<svg version="1.1" id="Layer_1" xmlns="http://www.w3.org/2000/svg" xmlns:xlink="http://www.w3.org/1999/xlink" x="0px" y="0px" width="24px" height="24px" viewBox="0 0 24 24" enable-background="new 0 0 24 24" xml:space="preserve">
  <g id="icon">
    <path d="M5,22.5H1.5V6h3.5V22.5zM14,6v16.5h8.5V6H14z" fill="#FFFFFF" opacity="0.5"/>
    <path d="M5,24H0V7V6V5h5v2H2v15h3V24zM14,5v2h8v15h-8v2h10V7V6V5H14z" fill="#7B7B7B"/>
    <path d="M5,11H2v-1h3V11zM5,14H2v1h3V14zM22,11v-1h-4V7h-1v3h-3v1h3v3h-3v1h3v3h-3v1h3v3h1v-3h4v-1h-4v-3h4v-1h-4v-3H22zM5,18H2v1h3V18z" fill="#B7B7B7"/>
    <path d="M6,0v17h7V0H6zM12,16H7V1h5V16z" fill="#6485C3"/>
    <path d="M12,16H7V1h5V16z" fill="#BAD2EE"/>
    <polygon points="10.1,20.0148 10.1,24 8.9,24 8.9,19.9558 7.3313,21.5158 6.4862,20.6638 9.4703,17.7 12.4543,20.6638 11.6093,21.5158" fill="#CB525D" stroke-linejoin="miter"/>
  </g>
</svg>
