<?xml version="1.0" encoding="UTF-8"?>
<!DOCTYPE svg PUBLIC "-//W3C//DTD SVG 1.1//EN" "http://www.w3.org/Graphics/SVG/1.1/DTD/svg11.dtd">
<svg version="1.1" id="Layer_1" xmlns="http://www.w3.org/2000/svg" xmlns:xlink="http://www.w3.org/1999/xlink" x="0px" y="0px" width="24px" height="24px" viewBox="0 0 24 24" enable-background="new 0 0 24 24" xml:space="preserve">
  <g id="icon">
    <path d="M1.5,5V1.5h16.5v3.5H1.5zM18,14H1.5v8.5h16.5V14z" fill="#FFFFFF" opacity="0.5"/>
    <path d="M0,5V0h17h1h1v5h-2V2H2v3H0zM19,14h-2v8H2v-8H0v10h17h1h1V14z" fill="#7B7B7B"/>
    <path d="M13,5V2h1v3H13zM10,5V2H9v3H10zM13,22h1v-4h3v-1h-3v-3h-1v3h-3v-3H9v3H6v-3H5v3H2v1h3v4h1v-4h3v4h1v-4h3V22zM6,5V2H5v3H6z" fill="#B7B7B7"/>
    <path d="M24,6H7v7h17V6zM8,12V7h15v5H8z" fill="#6485C3"/>
    <path d="M8,12V7h15v5H8z" fill="#BAD2EE"/>
    <polygon points="2.3148,10.1 6.3,10.1 6.3,8.9 2.2558,8.9 3.8158,7.3313 2.9638,6.4862 0,9.4703 2.9638,12.4543 3.8158,11.6093" fill="#52B250" stroke-linejoin="miter"/>
  </g>
</svg>
