<?xml version="1.0" encoding="UTF-8"?>
<!DOCTYPE svg PUBLIC "-//W3C//DTD SVG 1.1//EN" "http://www.w3.org/Graphics/SVG/1.1/DTD/svg11.dtd">
<svg version="1.1" id="Layer_1" xmlns="http://www.w3.org/2000/svg" xmlns:xlink="http://www.w3.org/1999/xlink" x="0px" y="0px" width="24px" height="24px" viewBox="0 0 24 24" enable-background="new 0 0 24 24" xml:space="preserve">
  <g id="icon">
    <path d="M4.9107,20.9476c-0.4523,0,-0.9137,-0.0655,-1.3713,-0.1946c-0.4925,-0.1389,-0.943,-0.3642,-1.3388,-0.6695c-0.4094,-0.3153,-0.7466,-0.7218,-1.0022,-1.208C0.934,18.3729,0.8,17.7734,0.8,17.0936c0,-0.7372,0.2341,-1.4074,0.6958,-1.9919c0.4265,-0.54,1.0309,-0.9763,1.8477,-1.3337c0.728,-0.3185,1.6196,-0.5629,2.7259,-0.7473c0.7985,-0.1329,1.6253,-0.2179,2.5877,-0.2656v-0.5379c0,-0.4708,-0.0155,-1.0105,-0.1308,-1.4432c-0.1045,-0.3924,-0.2421,-0.6905,-0.4205,-0.911c-0.1869,-0.2312,-0.4109,-0.4016,-0.685,-0.521c-0.3015,-0.1313,-0.6812,-0.1979,-1.1283,-0.1979c-0.6379,0,-1.1955,0.1203,-1.6574,0.3576c-0.5386,0.2769,-1.0456,0.6614,-1.5068,1.1429l-0.1383,0.1444L1.5663,9.4252l0.1383,-0.1444c0.6128,-0.6397,1.2956,-1.1554,2.0293,-1.5327c0.7433,-0.3819,1.6041,-0.5755,2.5585,-0.5755c0.7197,0,1.3643,0.1218,1.9156,0.3619c0.5638,0.2457,1.0451,0.612,1.4306,1.0888c0.3559,0.4401,0.6151,0.9776,0.7925,1.6431c0.1738,0.6525,0.1973,1.3523,0.1973,1.9508v8.0956H8.6571v-0.3913c-0.1847,0.1142,-0.3738,0.2197,-0.5651,0.3154c-0.4548,0.2277,-0.9486,0.405,-1.4676,0.527C6.1057,20.8857,5.5292,20.9476,4.9107,20.9476zM8.6571,14.7291c-0.8438,0.0447,-1.5681,0.1204,-2.2641,0.2362c-0.9301,0.155,-1.6902,0.3598,-2.2592,0.6087c-0.506,0.2215,-0.873,0.4737,-1.0911,0.7496c-0.1877,0.2377,-0.2714,0.4751,-0.2714,0.77c0,0.3567,0.0578,0.6475,0.1718,0.8643c0.1244,0.2365,0.2751,0.4211,0.4609,0.5642c0.1987,0.1533,0.4181,0.2624,0.6706,0.3336c0.2832,0.0799,0.5645,0.1205,0.836,0.1205c0.4667,0,0.8914,-0.0442,1.2625,-0.1314c0.3697,-0.087,0.7186,-0.2118,1.037,-0.3711c0.3258,-0.1628,0.6391,-0.3632,0.9313,-0.5955c0.1249,-0.0993,0.2229,-0.1705,0.3017,-0.2276c0.0822,-0.0598,0.1424,-0.1036,0.214,-0.1647V14.7291z" fill="#7B7B7B"/>
    <path d="M17.9553,20.9351c-0.927,0,-1.7781,-0.1672,-2.5297,-0.4971c-0.7658,-0.336,-1.4242,-0.829,-1.957,-1.4653c-0.5178,-0.6185,-0.9192,-1.376,-1.1929,-2.2516c-0.2607,-0.8339,-0.3985,-1.8497,-0.3985,-2.9375c0,-0.9145,0.1242,-1.7193,0.3909,-2.533c0.2678,-0.8181,0.6657,-1.5346,1.1827,-2.1297c0.5256,-0.6053,1.1753,-1.0816,1.9312,-1.4157c0.7486,-0.3306,1.5985,-0.4982,2.5262,-0.4982c0.7279,0,1.4261,0.1316,2.0754,0.3912c0.6658,0.2666,1.2536,0.6664,1.7472,1.1886c0.4991,0.5282,0.7867,1.1327,1.065,1.8777c0.2561,0.686,0.4043,1.2691,0.4043,2.2198v0.9852l-9.3511,0.0045c0.0072,0.8449,0.1161,1.644,0.3083,2.2589c0.1958,0.6263,0.4727,1.1559,0.8229,1.5742c0.3407,0.4069,0.7455,0.7097,1.2376,0.9257c0.5004,0.2196,1.085,0.331,1.7376,0.331c0.3747,0,0.7438,-0.0394,1.0971,-0.117c0.3659,-0.0805,0.7051,-0.1847,1.0083,-0.3099c0.2959,-0.1222,0.5523,-0.2548,0.762,-0.394c0.1776,-0.118,0.2715,-0.2191,0.3465,-0.3108l0.1267,-0.1547l1.5254,1.2489l-0.1268,0.1547c-0.2269,0.277,-0.475,0.5006,-0.7811,0.704c-0.3162,0.21,-0.6864,0.4031,-1.1004,0.5741c-0.4088,0.1688,-0.8588,0.3079,-1.3375,0.4131C18.9832,20.8802,18.4717,20.9351,17.9553,20.9351zM17.9081,9.1783c-0.6517,0,-1.2335,0.111,-1.7295,0.33c-0.4882,0.2158,-0.9053,0.5204,-1.2396,0.9052c-0.3436,0.3957,-0.612,0.8838,-0.7975,1.4507c-0.0042,0.0128,-0.0083,0.0255,-0.0124,0.0382l6.9952,-0.0034c-0.0451,-0.1809,-0.1043,-0.3543,-0.1755,-0.545c-0.1999,-0.5352,-0.3785,-0.9248,-0.6509,-1.2132c-0.3001,-0.3175,-0.6425,-0.5505,-1.0467,-0.7124C18.8361,9.2624,18.3842,9.1783,17.9081,9.1783z" fill="#7B7B7B"/>
    <rect x="2.3714" y="4.0413" width="1.9714" height="1.9714" fill="#7B7B7B"/>
    <rect x="7.0857" y="4.0413" width="1.9714" height="1.9714" fill="#7B7B7B"/>
    <polygon points="17.8135,3.779 15.5221,6.0993 14.1194,4.7141 17.8135,0.9734 21.5076,4.7141 20.1048,6.0993" fill="#7B7B7B" stroke-linejoin="miter"/>
  </g>
</svg>
