<?xml version="1.0" encoding="UTF-8"?>
<!DOCTYPE svg PUBLIC "-//W3C//DTD SVG 1.1//EN" "http://www.w3.org/Graphics/SVG/1.1/DTD/svg11.dtd">
<svg version="1.1" id="Layer_1" xmlns="http://www.w3.org/2000/svg" xmlns:xlink="http://www.w3.org/1999/xlink" x="0px" y="0px" width="24px" height="24px" viewBox="0 0 24 24" enable-background="new 0 0 24 24" xml:space="preserve">
  <g id="icon">
    <path d="M9.05,3.5519v18.425H1.275L9.05,3.5519zM15.05,3.5519v18.425h7.775L15.05,3.5519z" fill="#FFFFFF" opacity="0.5"/>
    <path d="M14,23V1.3175c0,-0.29,0.3938,-0.3778,0.5169,-0.1152l9.3535,21.207c0.1293,0.2748,-0.0711,0.5907,-0.3748,0.5907L14,23zM21.0163,21L16,8.6619V21H21.0163z" fill="#9070B1"/>
    <path d="M0.5044,23c-0.3037,0,-0.5042,-0.3159,-0.3748,-0.5907l9.3535,-21.207C9.6062,0.9398,10,1.0275,10,1.3175V23L0.5044,23zM8,21V8.6619L2.9837,21H8z" fill="#7B7B7B"/>
  </g>
</svg>
