<?xml version="1.0" encoding="UTF-8"?>
<!DOCTYPE svg PUBLIC "-//W3C//DTD SVG 1.1//EN" "http://www.w3.org/Graphics/SVG/1.1/DTD/svg11.dtd">
<svg version="1.1" id="Layer_1" xmlns="http://www.w3.org/2000/svg" xmlns:xlink="http://www.w3.org/1999/xlink" x="0px" y="0px" width="24px" height="24px" viewBox="0 0 24 24" enable-background="new 0 0 24 24" xml:space="preserve">
  <g id="icon">
    <path d="M24,22h-3.5v-2h1.5v-1.5h2V22zM19,22h-3v-2h3V22zM14.5,22h-3v-2h3V22zM10,22H7v-2h3V22zM24,17h-2v-3h2V17zM4,17H2v-3h2V17zM24,12.5h-2V9.5h2V12.5zM4,12.5H2V9.5h2V12.5zM24,8h-2V5h2V8zM4,8H2V5h2V8zM24,3.5h-2V2h2V3.5zM4,3.5H2V2h2V3.5zM24,2h-3.5V0h3.5V2zM19,2h-3V0h3V2zM14.5,2h-3V0h3V2zM10,2H7V0h3V2zM5.5,2H2V0h3.5V2z" fill="#7B7B7B"/>
    <rect y="19" width="5" height="5" fill="#7B7B7B"/>
    <path d="M19.75,11c0,3.7279,-3.0221,6.75,-6.75,6.75S6.25,14.7279,6.25,11S9.2721,4.25,13,4.25S19.75,7.2721,19.75,11zM17.7506,6.2494l-9.5462,9.5462" fill="#FFFFFF" opacity="0.5"/>
    <path d="M13,18.5c-4.1355,0,-7.5,-3.3645,-7.5,-7.5s3.3645,-7.5,7.5,-7.5s7.5,3.3645,7.5,7.5S17.1355,18.5,13,18.5zM9.3227,15.738C10.339,16.5286,11.6156,17,13,17c3.3084,0,6,-2.6916,6,-6c0,-1.3844,-0.4714,-2.661,-1.262,-3.6773L9.3227,15.738zM13,5c-3.3084,0,-6,2.6916,-6,6c0,1.3844,0.4714,2.661,1.262,3.6773l8.4153,-8.4153C15.661,5.4714,14.3844,5,13,5z" fill="#CB525D"/>
  </g>
</svg>
