<?xml version="1.0" encoding="UTF-8"?>
<!DOCTYPE svg PUBLIC "-//W3C//DTD SVG 1.1//EN" "http://www.w3.org/Graphics/SVG/1.1/DTD/svg11.dtd">
<svg version="1.1" id="Layer_1" xmlns="http://www.w3.org/2000/svg" xmlns:xlink="http://www.w3.org/1999/xlink" x="0px" y="0px" width="32px" height="32px" viewBox="0 0 32 32" enable-background="new 0 0 32 32" xml:space="preserve">
  <g id="icon">
    <polygon points="30.5,30.5 8.5,30.5 8.5,1.5 23.5,1.5 30.5,8.5" fill="#FFFFFF" stroke-linejoin="miter"/>
    <path d="M23.707,1H8v8h1V2h14v7h7v21H9v-1H8v2h23V8.293L23.707,1zM24,8V2.707L29.293,8H24z" fill="#383838"/>
    <rect x="1.5" y="11.5" width="15" height="15" fill="#FFFFFF" stroke="#787979" stroke-width="1" stroke-miterlimit="1"/>
    <rect x="3" y="13" width="2" height="12" fill="#010101" opacity="0.65"/>
    <rect x="9" y="13" width="2" height="12" fill="#010101" opacity="0.25"/>
    <rect x="7" y="13" width="2" height="12" fill="#010101" opacity="0.37"/>
    <rect x="5" y="13" width="2" height="12" fill="#010101" opacity="0.5"/>
    <rect x="11" y="13" width="2" height="12" fill="#010101" opacity="0.15"/>
    <rect x="13" y="13" width="2" height="12" fill="#010101" opacity="0.05"/>
  </g>
</svg>
