<?xml version="1.0" encoding="UTF-8"?>
<!DOCTYPE svg PUBLIC "-//W3C//DTD SVG 1.1//EN" "http://www.w3.org/Graphics/SVG/1.1/DTD/svg11.dtd">
<svg version="1.1" id="Layer_1" xmlns="http://www.w3.org/2000/svg" xmlns:xlink="http://www.w3.org/1999/xlink" x="0px" y="0px" width="32px" height="32px" viewBox="0 0 32 32" enable-background="new 0 0 32 32" xml:space="preserve">
  <g id="icon">
    <rect x="1.5" y="9.5" width="21" height="21" fill="#FFFFFF"/>
    <path d="M1.5,8V5M30.5,5V2M30.5,9V6M30.5,13v-3M30.5,17v-3M30.5,21v-3M30.5,25v-3M30.5,29v-3M1.5,4V1M3,1.5h3M7,1.5h3M11,1.5h3M15,1.5h3M19,1.5h3M23,1.5h3M28,30.5h3M24,30.5h3M27,1.5h3" fill="none" stroke="#787979" stroke-width="1" stroke-miterlimit="1"/>
    <path d="M1.5,21.951l4.301,-4.301l9.566,9.566M22.5,26.903l-7.229,-7.229l-3.578,3.578" fill="none" stroke="#228BCB" stroke-width="1.1" stroke-miterlimit="1"/>
    <polygon points="22,12.546 22,30 2,30 2,10 19.455,10 20.455,9 1,9 1,31 23,31 23,11.546" fill="#383838" stroke-linejoin="miter"/>
    <polygon points="21.059,11.649 20.352,10.942 26.289,5.004 22.002,5.019 21.998,4.019 28.021,3.998 28,10.002 27,9.998 27.015,5.693" fill="#228BCB" stroke-linejoin="miter"/>
    <circle cx="17.502" cy="14.502" r="2.002" fill="#FFFFFF" stroke="#ED8730" stroke-width="1" stroke-miterlimit="1"/>
  </g>
</svg>
