<?xml version="1.0" encoding="UTF-8"?>
<!DOCTYPE svg PUBLIC "-//W3C//DTD SVG 1.1//EN" "http://www.w3.org/Graphics/SVG/1.1/DTD/svg11.dtd">
<svg version="1.1" id="Layer_1" xmlns="http://www.w3.org/2000/svg" xmlns:xlink="http://www.w3.org/1999/xlink" x="0px" y="0px" width="32px" height="32px" viewBox="0 0 32 32" enable-background="new 0 0 32 32" xml:space="preserve">
  <g id="icon">
    <rect x="1.5" y="11.5" width="29" height="20" fill="#FFFFFF"/>
    <rect x="1.5" y="11.5" width="29" height="4" fill="#C8C6C4"/>
    <path d="M30.5,31.5H1.5V11.5h29V31.5zM1.5,15.5h28.8" fill="none" stroke="#383838" stroke-width="1" stroke-miterlimit="1"/>
    <path d="M28.394,11.474l-0.017,0.016M21.579,11.49l0.017,0.016M21.596,11.474l-0.017,0.016M28.377,11.49l0.017,0.016M21.579,11.49l-4.082,4.016M28.377,11.49l-4.082,4.016M14.781,11.49L10.7,15.506M7.984,11.49l0.017,0.016M7.984,11.49l-4.082,4.016M8,11.474l-0.017,0.016M14.781,11.49l0.017,0.016M14.798,11.474l-0.017,0.016" fill="#FFFFFF" stroke="#383838" stroke-width="1" stroke-miterlimit="1"/>
    <path d="M29.764,4.517L1.586,11.37L0.64,7.483L28.819,0.63L29.764,4.517zM27.699,5.009l0.02,0.012M21.106,6.595l-0.012,0.02M21.114,6.627l-0.02,-0.012M27.711,4.989l-0.012,0.02M21.094,6.615l-4.915,-2.938M22.784,2.071l4.915,2.938M9.573,5.283l4.915,2.938M7.895,9.808l-0.012,0.02M2.968,6.89l4.915,2.938M7.883,9.828l0.02,0.012M14.501,8.202l-0.012,0.02M14.489,8.221l0.02,0.012" fill="#C8C6C4" stroke="#383838" stroke-width="1" stroke-linecap="round" stroke-miterlimit="1"/>
  </g>
</svg>
