<?xml version="1.0" encoding="UTF-8"?>
<!DOCTYPE svg PUBLIC "-//W3C//DTD SVG 1.1//EN" "http://www.w3.org/Graphics/SVG/1.1/DTD/svg11.dtd">
<svg version="1.1" id="Layer_1" xmlns="http://www.w3.org/2000/svg" xmlns:xlink="http://www.w3.org/1999/xlink" x="0px" y="0px" width="32px" height="32px" viewBox="0 0 32 32" enable-background="new 0 0 32 32" xml:space="preserve">
  <g id="icon">
    <polygon points="30.5,30.5 8.5,30.5 8.5,1.5 22.5,1.5 30.5,9.5" fill="#FFFFFF" stroke-linejoin="miter"/>
    <path d="M22.707,1H8v6.5h1V2h13v8h8v20H9v-1.5H8v2.5h23V9.293L22.707,1zM23,9V2.707L29.293,9H23z" fill="#383838"/>
    <path d="M7.5,22.4L7.5,22.4c-1.657,0,-3,-1.343,-3,-3v-6.9c0,-1.657,1.343,-3,3,-3h0c1.657,0,3,1.343,3,3v6.9C10.5,21.057,9.157,22.4,7.5,22.4z" fill="#FFFFFF" stroke="#A0519F" stroke-width="1" stroke-miterlimit="1"/>
    <path d="M12.5,19.227c0,3.08,-2.126,5.094,-4.939,5.094s-5.094,-2.014,-5.094,-5.094M7.5,24.5v2M5.3,26.5h4.4" fill="none" stroke="#A0519F" stroke-width="1" stroke-miterlimit="1"/>
  </g>
</svg>
