<?xml version="1.0" encoding="UTF-8"?>
<!DOCTYPE svg PUBLIC "-//W3C//DTD SVG 1.1//EN" "http://www.w3.org/Graphics/SVG/1.1/DTD/svg11.dtd">
<svg version="1.1" id="Layer_1" xmlns="http://www.w3.org/2000/svg" xmlns:xlink="http://www.w3.org/1999/xlink" x="0px" y="0px" width="32px" height="32px" viewBox="0 0 32 32" enable-background="new 0 0 32 32" xml:space="preserve">
  <g id="icon">
    <polygon points="30.5,30.5 8.5,30.5 8.5,1.5 22.5,1.5 30.5,9.5" fill="#FFFFFF" stroke-linejoin="miter"/>
    <path d="M22.707,1H8v12h1V2h13v8h8v20H9v-2H8v3h23V9.293L22.707,1zM23,9V2.707L29.293,9H23z" fill="#383838"/>
    <rect x="1.5" y="15.5" width="23" height="10" fill="#FFFFFF" stroke="#228BCB" stroke-width="1" stroke-miterlimit="1"/>
    <path d="M19.169,24l-2.087,-7h1.263l1.274,4.163L20.912,17h1.265l-2.119,7H19.169zM15,24v-3.768l-0.156,-0.033l-0.955,2.4h-0.724l-1.01,-2.463L12,20.17V24h-1v-7h0.874l1.646,3.879L15.123,17H16v7H15zM7.708,24l-0.935,-4.4l-0.157,0l-0.952,4.4h-0.708l-1.735,-7h1.024l0.982,3.894l0.155,-0.003L6.196,17l1.031,0.001l0.771,3.889l0.155,0.004L9.152,17h1.026l-1.761,7H7.708z" fill="#238BCB"/>
  </g>
</svg>
