<?xml version="1.0" encoding="UTF-8"?>
<!DOCTYPE svg PUBLIC "-//W3C//DTD SVG 1.1//EN" "http://www.w3.org/Graphics/SVG/1.1/DTD/svg11.dtd">
<svg version="1.1" id="Layer_1" xmlns="http://www.w3.org/2000/svg" xmlns:xlink="http://www.w3.org/1999/xlink" x="0px" y="0px" width="32px" height="32px" viewBox="0 0 32 32" enable-background="new 0 0 32 32" xml:space="preserve">
  <g id="icon">
    <path d="M28.496,29.167c0,0.733,-0.6,1.333,-1.333,1.333H4.567C3.98,30.5,3.5,30.02,3.5,29.433V2.567C3.5,1.98,3.98,1.5,4.567,1.5h22.565c0.756,0,1.369,0.613,1.368,1.37L28.496,29.167z" fill="#FFFFFF" stroke="#383838" stroke-width="1" stroke-miterlimit="1"/>
    <path d="M13,7.5h12" fill="none" stroke="#787979" stroke-width="1" stroke-miterlimit="1"/>
    <path d="M10.5,7c0,0.828,-0.672,1.5,-1.5,1.5s-1.5,-0.672,-1.5,-1.5s0.672,-1.5,1.5,-1.5S10.5,6.172,10.5,7z" fill="#92CBEE" stroke="#0964B0" stroke-width="1" stroke-linecap="round" stroke-miterlimit="1"/>
    <path d="M13,13.5h12" fill="none" stroke="#787979" stroke-width="1" stroke-miterlimit="1"/>
    <path d="M10.5,13c0,0.828,-0.672,1.5,-1.5,1.5s-1.5,-0.672,-1.5,-1.5s0.672,-1.5,1.5,-1.5S10.5,12.172,10.5,13z" fill="#92CBEE" stroke="#0964B0" stroke-width="1" stroke-linecap="round" stroke-miterlimit="1"/>
    <path d="M13,19.5h12" fill="none" stroke="#787979" stroke-width="1" stroke-miterlimit="1"/>
    <path d="M10.5,19c0,0.828,-0.672,1.5,-1.5,1.5s-1.5,-0.672,-1.5,-1.5s0.672,-1.5,1.5,-1.5S10.5,18.172,10.5,19z" fill="#92CBEE" stroke="#0964B0" stroke-width="1" stroke-linecap="round" stroke-miterlimit="1"/>
    <path d="M13,25.5h12" fill="none" stroke="#787979" stroke-width="1" stroke-miterlimit="1"/>
    <path d="M10.5,25c0,0.828,-0.672,1.5,-1.5,1.5s-1.5,-0.672,-1.5,-1.5s0.672,-1.5,1.5,-1.5S10.5,24.172,10.5,25z" fill="#92CBEE" stroke="#0964B0" stroke-width="1" stroke-linecap="round" stroke-miterlimit="1"/>
  </g>
</svg>
