<?xml version="1.0" encoding="UTF-8"?>
<!DOCTYPE svg PUBLIC "-//W3C//DTD SVG 1.1//EN" "http://www.w3.org/Graphics/SVG/1.1/DTD/svg11.dtd">
<svg version="1.1" id="Layer_1" xmlns="http://www.w3.org/2000/svg" xmlns:xlink="http://www.w3.org/1999/xlink" x="0px" y="0px" width="32px" height="32px" viewBox="0 0 32 32" enable-background="new 0 0 32 32" xml:space="preserve">
  <g id="icon">
    <path d="M3.951,18.793c-0.186,0.319,-0.174,0.314,-0.34,0.626c-2.025,3.804,-2.538,7.035,-1.033,8.556l0.845,0.564c1.874,0.922,3.642,1.479,5.997,1.703l0.001,0c0.789,0.075,1.629,0.116,2.567,0.126c1.447,0.015,2.996,-0.114,4.733,-0.392c3.878,-0.622,7.039,-2.179,9.395,-4.628c2.033,-2.113,3.364,-4.874,3.956,-8.206c0.383,-2.157,0.43,-4.4,0.142,-6.858c-0.318,-2.715,-0.97,-4.928,-2.052,-6.964l-0.454,-0.741c-1.438,-1.454,-4.421,-1.045,-7.967,0.779" fill="#FFFFFF"/>
    <path d="M28.162,3.321c1.083,2.036,1.735,4.249,2.052,6.964c0.287,2.458,0.241,4.701,-0.142,6.858c-0.592,3.332,-1.923,6.093,-3.956,8.206c-2.356,2.449,-5.516,4.006,-9.395,4.628c-1.737,0.279,-3.286,0.407,-4.733,0.392c-0.938,-0.01,-1.778,-0.051,-2.567,-0.126l-0.001,0c-2.355,-0.224,-4.123,-0.782,-5.997,-1.703M3.951,18.793c-0.186,0.319,-0.174,0.314,-0.34,0.626c-2.025,3.804,-2.538,7.035,-1.033,8.556c2.622,2.649,10.372,-0.888,17.312,-7.901S30.33,5.229,27.708,2.58c-1.438,-1.454,-4.421,-1.045,-7.967,0.779" fill="none" stroke="#383838" stroke-width="1.1" stroke-miterlimit="1"/>
    <path d="M4.266,6.299L7.15,21.273M6.296,5.516l12.12,12.419M6.945,3.652l15.479,3.251" fill="none" stroke="#787979" stroke-width="1.1" stroke-miterlimit="1"/>
    <path d="M4.207,1.727c-1.255,0.129,-2.168,1.239,-2.039,2.48s1.249,2.142,2.504,2.013S6.839,4.98,6.71,3.74S5.461,1.598,4.207,1.727z" fill="#FFFFFF" stroke="#228BCB" stroke-width="1" stroke-miterlimit="1"/>
  </g>
</svg>
