<?xml version="1.0" encoding="UTF-8"?>
<!DOCTYPE svg PUBLIC "-//W3C//DTD SVG 1.1//EN" "http://www.w3.org/Graphics/SVG/1.1/DTD/svg11.dtd">
<svg version="1.1" id="Layer_1" xmlns="http://www.w3.org/2000/svg" xmlns:xlink="http://www.w3.org/1999/xlink" x="0px" y="0px" width="16px" height="16px" viewBox="0 0 16 16" enable-background="new 0 0 16 16" xml:space="preserve">
  <g id="icon">
    <path d="M8,1.5692c-1.9421,0,-3.4579,0.4602,-3.4579,1.0462v10.17c0,0.879,1.5158,1.5915,3.4579,1.5915s3.4579,-0.7125,3.4579,-1.5915v-10.17C11.4579,2.0294,9.9421,1.5692,8,1.5692z" fill="#FFFFFF" opacity="0.5"/>
    <path d="M8,14.9461c-1.0094,0,-1.9598,-0.1828,-2.676,-0.5146C4.4702,14.036,4,13.4514,4,12.7854v-10.17C4,1.4244,6.0663,1,8,1s4,0.4244,4,1.6154v10.17c0,0.666,-0.4702,1.2506,-1.324,1.6461C9.9598,14.7634,9.0094,14.9461,8,14.9461zM5.0843,12.7854c0,0.3057,0.992,1.0223,2.9157,1.0223s2.9157,-0.7166,2.9157,-1.0223V2.6897c-0.1786,-0.1646,-1.1089,-0.5512,-2.9157,-0.5512s-2.7371,0.3867,-2.9157,0.5512V12.7854z" fill="#EEAC55"/>
    <path d="M8,4.0605c-1.4149,0,-3.7509,-0.3012,-3.7509,-1.4303h0.6447c0,-0.0055,-0.0009,-0.0095,-0.0013,-0.0106C4.9582,2.8195,5.9791,3.322,8,3.322s3.0418,-0.5025,3.1075,-0.7024c-0.0003,0.0011,-0.0013,0.0051,-0.0013,0.0106h0.6447C11.7509,3.7593,9.4149,4.0605,8,4.0605z" fill="#EEAC55"/>
    <polygon points="0.6685,5.0323 0,5.6924 2.2798,8.0013 0,10.3102 0.6685,10.9703 3.6,8.0013" fill="#6485C3" stroke-linejoin="miter"/>
    <polygon points="15.3315,5.0323 16,5.6924 13.7202,8.0013 16,10.3102 15.3315,10.9703 12.4,8.0013" fill="#6485C3" stroke-linejoin="miter"/>
  </g>
</svg>
