<?xml version="1.0" encoding="UTF-8"?>
<!DOCTYPE svg PUBLIC "-//W3C//DTD SVG 1.1//EN" "http://www.w3.org/Graphics/SVG/1.1/DTD/svg11.dtd">
<svg version="1.1" id="Layer_1" xmlns="http://www.w3.org/2000/svg" xmlns:xlink="http://www.w3.org/1999/xlink" x="0px" y="0px" width="16px" height="16px" viewBox="0 0 16 16" enable-background="new 0 0 16 16" xml:space="preserve">
  <g id="icon">
    <polygon points="10.5625,4.3277 11.8906,5.641 9.5689,8 15.9953,8 15.9953,10 9.6474,10 11.8906,12.2796 10.5625,13.5929 5.9924,8.9603" fill="#52B250" stroke-linejoin="miter"/>
    <path d="M0,2.1789C0,0.9755,2.6863,0,6,0s6,0.9755,6,2.1789c0,0.3966,-0.2933,0.7681,-0.8031,1.0885l-0.6448,-0.6376L9.1726,4.028C8.2521,4.2367,7.1652,4.3577,6,4.3577C2.6863,4.3577,0,3.3822,0,2.1789zM12,4.0615v-0.2026c-0.0344,0.0315,-0.0717,0.0628,-0.1096,0.0942L12,4.0615zM4.3068,8.9603l3.6237,-3.6732C7.3133,5.36,6.6641,5.3984,6,5.3984c-1.6724,0,-3.2537,-0.2398,-4.4527,-0.6752C0.825,4.4608,0.3319,4.1624,0,3.8589v8.9675c0,0.95,0.7082,1.7949,1.9941,2.3792C3.1216,15.7179,4.3702,16,5.9684,16s2.9099,-0.2821,4.0375,-0.7943c0.1082,-0.0492,0.2107,-0.1008,0.3106,-0.1535L4.3068,8.9603z" fill="#EEAC55"/>
  </g>
</svg>
