<?xml version="1.0" encoding="UTF-8"?>
<!DOCTYPE svg PUBLIC "-//W3C//DTD SVG 1.1//EN" "http://www.w3.org/Graphics/SVG/1.1/DTD/svg11.dtd">
<svg version="1.1" id="Layer_1" xmlns="http://www.w3.org/2000/svg" xmlns:xlink="http://www.w3.org/1999/xlink" x="0px" y="0px" width="16px" height="16px" viewBox="0 0 16 16" enable-background="new 0 0 16 16" xml:space="preserve">
  <g id="icon">
    <path d="M9.0188,7.853v5.9652c0,0.6531,-0.5323,1.234,-1.4987,1.6357C6.6727,15.8061,5.6868,16,4.4856,16s-2.1395,-0.1939,-2.9869,-0.5461C0.5323,15.0522,0,14.4713,0,13.8182V7.853c0.2495,0.2086,0.62,0.4138,1.1629,0.5942c0.9011,0.2994,2.0896,0.4642,3.3465,0.4642s2.4454,-0.1648,3.3465,-0.4642C8.3987,8.2668,8.7693,8.0617,9.0188,7.853zM4.5094,5C2.0189,5,0,5.6707,0,6.498s2.0189,1.498,4.5094,1.498s4.5094,-0.6707,4.5094,-1.498S6.9998,5,4.5094,5z" fill="#EEAC55"/>
    <g>
      <path d="M10,6.6793V9h6V5H9.0735C9.8547,5.5649,10,6.2495,10,6.6793zM12,7h2v1h-2V7z" fill="#9070B1"/>
      <path d="M6,0v4h10V0H6zM14,3h-2V2h2V3z" fill="#9070B1"/>
    </g>
    <path d="M14,3h-2V2h2V3zM14,7h-2v1h2V7z" fill="#FFFFFF" opacity="0.5"/>
    <path d="M11.9187,15.7123l-2.2216,-2.242l2.2216,-2.242l0.7112,0.7029L11.5678,13H14v-3h1v3.025c0,0.5376,-0.4374,0.975,-0.975,0.975h-2.3985l1.0034,1.0093L11.9187,15.7123z" fill="#52B250"/>
  </g>
</svg>
