<?xml version="1.0" encoding="UTF-8"?>
<!DOCTYPE svg PUBLIC "-//W3C//DTD SVG 1.1//EN" "http://www.w3.org/Graphics/SVG/1.1/DTD/svg11.dtd">
<svg version="1.1" id="Layer_1" xmlns="http://www.w3.org/2000/svg" xmlns:xlink="http://www.w3.org/1999/xlink" x="0px" y="0px" width="16px" height="16px" viewBox="0 0 16 16" enable-background="new 0 0 16 16" xml:space="preserve">
  <g id="icon">
    <path d="M15.4021,10.1831C15.142,9.7842,14.3892,9.5,13.5,9.5s-1.642,0.2842,-1.9021,0.6831H11.5v4.0824c0,0.5713,0.8954,1.2345,2,1.2345s2,-0.6632,2,-1.2345v-4.0824H15.4021z" fill="#FFFFFF" opacity="0.5"/>
    <path d="M15.9532,10.1831C15.7349,9.4821,14.7703,9,13.5,9s-2.2349,0.4821,-2.4532,1.1831H11v4.0825c0,0.924,1.1682,1.7345,2.5,1.7345s2.5,-0.8105,2.5,-1.7345v-4.0825H15.9532zM13.5,10c0.968,0,1.5,0.3684,1.5,0.4905c0,0.1269,-0.532,0.5095,-1.5,0.5095s-1.5,-0.3827,-1.5,-0.5095C12,10.3684,12.532,10,13.5,10zM13.5,15c-0.9022,0,-1.5,-0.5227,-1.5,-0.7345v-2.5512c0.4123,0.1809,0.9278,0.2857,1.5,0.2857s1.0877,-0.1048,1.5,-0.2857v2.5512C15,14.4773,14.4022,15,13.5,15z" fill="#EEAC55"/>
    <path d="M4.4021,10.1831C4.142,9.7842,3.3892,9.5,2.5,9.5s-1.642,0.2842,-1.9021,0.6831H0.5v4.0824C0.5,14.8368,1.3954,15.5,2.5,15.5s2,-0.6632,2,-1.2345v-4.0824H4.4021z" fill="#FFFFFF" opacity="0.5"/>
    <path d="M4.9532,10.1831C4.7349,9.4821,3.7703,9,2.5,9S0.2651,9.4821,0.0468,10.1831H0v4.0825C0,15.1895,1.1682,16,2.5,16s2.5,-0.8105,2.5,-1.7345v-4.0825H4.9532zM2.5,10c0.968,0,1.5,0.3684,1.5,0.4905c0,0.1269,-0.532,0.5095,-1.5,0.5095s-1.5,-0.3827,-1.5,-0.5095C1,10.3684,1.532,10,2.5,10zM2.5,15c-0.9022,0,-1.5,-0.5227,-1.5,-0.7345v-2.5512c0.4123,0.1809,0.9278,0.2857,1.5,0.2857s1.0877,-0.1048,1.5,-0.2857v2.5512C4,14.4773,3.4022,15,2.5,15z" fill="#EEAC55"/>
    <path d="M11.5,1.8206C11.5,1.0842,9.933,0.5,8,0.5s-3.5,0.5842,-3.5,1.3206c0,0.0303,0.0036,0.0603,0.0088,0.0902H4.5V6.854C4.5,7.6158,6.067,8.5,8,8.5s3.5,-0.8842,3.5,-1.646V1.9108h-0.0088C11.4964,1.8809,11.5,1.8509,11.5,1.8206z" fill="#FFFFFF" opacity="0.5"/>
    <path d="M12,1.8206C12,0.5697,9.9265,0,8,0S4,0.5697,4,1.8206c0,0.0305,0.0022,0.0604,0.0047,0.0902H4V6.854C4,7.9972,5.8691,9,8,9s4,-1.0028,4,-2.146V1.9108h-0.0047C11.9978,1.881,12,1.8511,12,1.8206zM8,1c1.9685,0,3,0.6097,3,0.8206c0,0.2174,-1.0315,0.846,-3,0.846s-3,-0.6286,-3,-0.846C5,1.6097,6.0315,1,8,1zM8,8c-1.8044,0,-3,-0.8155,-3,-1.146V3.082c0.7707,0.3864,1.889,0.5846,3,0.5846s2.2293,-0.1983,3,-0.5846v3.772C11,7.1845,9.8044,8,8,8z" fill="#EEAC55"/>
    <path d="M15.7123,6.6813l-1.742,1.7216l-1.742,-1.7216l0.7029,-0.7112L13.5,6.5322V4h-1V3h1.025c0.5385,0,0.975,0.4365,0.975,0.975v2.4985l0.5093,-0.5034L15.7123,6.6813z" fill="#6485C3"/>
    <path d="M0.2877,6.6813l1.742,1.7216l1.742,-1.7216l-0.7029,-0.7112L2.5,6.5322V4h1V3H2.475C1.9365,3,1.5,3.4365,1.5,3.975v2.4985l-0.5093,-0.5034L0.2877,6.6813z" fill="#6485C3"/>
  </g>
</svg>
