<?xml version="1.0" encoding="UTF-8"?>
<!DOCTYPE svg PUBLIC "-//W3C//DTD SVG 1.1//EN" "http://www.w3.org/Graphics/SVG/1.1/DTD/svg11.dtd">
<svg version="1.1" id="Layer_1" xmlns="http://www.w3.org/2000/svg" xmlns:xlink="http://www.w3.org/1999/xlink" x="0px" y="0px" width="16px" height="16px" viewBox="0 0 16 16" enable-background="new 0 0 16 16" xml:space="preserve">
  <g id="icon">
    <polygon points="15.5,15.5 3.5,15.5 3.5,0.5 11.1333,0.5 15.5,4.9571" fill="#FFFFFF" stroke-linejoin="miter" opacity="0.5"/>
    <polygon points="11.3437,0 3,0 3,8.5 4,8.5 4,1 11,1 11,5 15,5 15,15 12,15 12,16 16,16 16,4.7533" fill="#6E6F72" stroke-linejoin="miter"/>
    <path d="M8.214,16c-0.7048,0,-1.2568,-0.276,-1.6408,-0.8204c-0.3677,-0.5213,-0.5542,-1.2578,-0.5542,-2.1889c0,-0.924,0.187,-1.6556,0.556,-2.1745c0.385,-0.5416,0.9384,-0.8161,1.6449,-0.8161c0.6891,0,1.2347,0.2792,1.6217,0.83c0.3705,0.5276,0.5584,1.2571,0.5584,2.1681c0,0.9087,-0.1883,1.638,-0.5598,2.1679C9.4523,15.7194,8.9051,16,8.214,16zM8.2199,10.9377c-0.4136,0,-0.7189,0.1595,-0.9334,0.4875c-0.2298,0.3513,-0.3464,0.8805,-0.3464,1.5728c0,0.7024,0.1166,1.2366,0.3464,1.5878c0.2145,0.3281,0.5179,0.4876,0.9275,0.4876c0.4129,0,0.7156,-0.1585,0.9252,-0.4845c0.2254,-0.3504,0.3397,-0.8857,0.3397,-1.5909c0,-0.6978,-0.1138,-1.2286,-0.3382,-1.5778C8.9319,11.0956,8.6307,10.9377,8.2199,10.9377zM3.9701,16c-0.7045,0,-1.2564,-0.2739,-1.6404,-0.8142c-0.368,-0.5177,-0.5545,-1.2537,-0.5545,-2.1877c0,-0.5833,0.0886,-1.1037,0.2634,-1.5467c0.1794,-0.4549,0.4447,-0.8122,0.7885,-1.0621c0.3487,-0.2534,0.7633,-0.3819,1.2322,-0.3819c0.491,0,0.9279,0.1156,1.2986,0.3437l0.1308,0.0805l-0.3508,0.8963l-0.2003,-0.1186c-0.2961,-0.1753,-0.5936,-0.2641,-0.8842,-0.2641c-0.4116,0,-0.7284,0.1693,-0.9687,0.5175c-0.2537,0.3678,-0.3824,0.8869,-0.3824,1.5429c0,0.6762,0.1239,1.2007,0.3682,1.5587c0.2302,0.3376,0.5498,0.5017,0.977,0.5017c0.2787,0,0.6048,-0.0654,0.9694,-0.1943l0.2603,-0.092v0.9371l-0.1076,0.0508C4.8431,15.9218,4.4396,16,3.9701,16zM0,15.9252v-5.8391h0.8913v5.8391H0z" fill="#6486C4"/>
  </g>
</svg>
