<?xml version="1.0" encoding="UTF-8"?>
<!DOCTYPE svg PUBLIC "-//W3C//DTD SVG 1.1//EN" "http://www.w3.org/Graphics/SVG/1.1/DTD/svg11.dtd">
<svg version="1.1" id="Layer_1" xmlns="http://www.w3.org/2000/svg" xmlns:xlink="http://www.w3.org/1999/xlink" x="0px" y="0px" width="16px" height="16px" viewBox="0 0 16 16" enable-background="new 0 0 16 16" xml:space="preserve">
  <g id="icon">
    <polygon points="15.5,15.5 3.5,15.5 3.5,0.5 11.1333,0.5 15.5,4.9571" fill="#FFFFFF" stroke-linejoin="miter" opacity="0.5"/>
    <polygon points="11.3437,0 3,0 3,8.5 4,8.5 4,1 11,1 11,5 15,5 15,15 12.2,15 12.2,16 16,16 16,4.7533" fill="#6E6F72" stroke-linejoin="miter"/>
    <path d="M9.2211,15.8362l-2.2354,-3.9639c0.0086,0.2462,0.0129,0.4817,0.0129,0.7031v3.2608h-0.8928v-5.7818h0.926l2.2341,3.9554c-0.0117,-0.3069,-0.0154,-0.5266,-0.0114,-0.6699l0,-3.2854h0.8993v5.7818H9.2211zM4.2767,15.8362v-5.7818h0.9345v5.7818H4.2767zM0.0261,15.8362v-5.7818H1.544c0.6734,0,1.1545,0.1188,1.4708,0.3631c0.3246,0.2509,0.4891,0.6421,0.4891,1.163c0,0.3588,-0.0903,0.6622,-0.2684,0.902c-0.0895,0.1204,-0.2001,0.2211,-0.3299,0.3007c0.5014,0.2405,0.7552,0.6862,0.7552,1.3272c0,0.5325,-0.162,0.9579,-0.4816,1.2643c-0.3195,0.3063,-0.7651,0.4616,-1.3246,0.4616H0.0261zM1.7426,14.9256c0.3257,0,0.5685,-0.0686,0.7216,-0.2039c0.1485,-0.1313,0.2238,-0.3518,0.2238,-0.6557c0,-0.2798,-0.0732,-0.4749,-0.2237,-0.5965c-0.1583,-0.1279,-0.4163,-0.1928,-0.7665,-0.1928H0.9606v1.6489H1.7426zM1.6625,12.3698c0.3346,0,0.5709,-0.0551,0.7024,-0.1637c0.1229,-0.1015,0.1853,-0.2908,0.1853,-0.5627c0,-0.2428,-0.0666,-0.4085,-0.2034,-0.5064c-0.1527,-0.1091,-0.4152,-0.1645,-0.7804,-0.1645H0.9606v1.3973H1.6625z" fill="#6486C4"/>
  </g>
</svg>
