<?xml version="1.0" encoding="UTF-8"?>
<!DOCTYPE svg PUBLIC "-//W3C//DTD SVG 1.1//EN" "http://www.w3.org/Graphics/SVG/1.1/DTD/svg11.dtd">
<svg version="1.1" id="Layer_1" xmlns="http://www.w3.org/2000/svg" xmlns:xlink="http://www.w3.org/1999/xlink" x="0px" y="0px" width="16px" height="16px" viewBox="0 0 16 16" enable-background="new 0 0 16 16" xml:space="preserve">
  <g id="icon">
    <polygon points="11.6,0.5 3.5,0.5 3.5,15.5 15.5,15.5 15.5,4.4" fill="#FFFFFF" stroke-linejoin="miter" opacity="0.5"/>
    <polygon points="11.8034,0 3,0 3,6.4 4,6.4 4,1 11,1 11,5 15,5 15,15 10.4,15 10.4,16 16,16 16,4.1892" fill="#6E6F72" stroke-linejoin="miter"/>
    <polygon points="12,1.5883 14.3735,4 12,4" fill="#6E6F72" stroke-linejoin="miter"/>
    <path d="M2.1624,15.8c-0.2164,0,-0.4212,-0.0384,-0.6089,-0.114c-0.1923,-0.0773,-0.3614,-0.1877,-0.5023,-0.3279c-0.1422,-0.1416,-0.2541,-0.3092,-0.3327,-0.4982c-0.0795,-0.1911,-0.1198,-0.3973,-0.1198,-0.6129c0,-0.1908,0.0193,-0.3791,0.0575,-0.5598c0.032,-0.1514,0.0682,-0.3024,0.1076,-0.4487c0.0343,-0.1275,0.0655,-0.2567,0.0929,-0.3839c0.0195,-0.0907,0.0299,-0.1874,0.0312,-0.2874c-0.0139,-0.0107,-0.033,-0.022,-0.0652,-0.033c-0.0348,-0.0119,-0.0764,-0.0179,-0.124,-0.0179H0.1562v-1.2165h0.5425c0.0499,0,0.0936,-0.0061,0.13,-0.018c0.0331,-0.0108,0.051,-0.0222,0.0593,-0.0286c-0.001,-0.1005,-0.0116,-0.1978,-0.0314,-0.2908c-0.0274,-0.1285,-0.0586,-0.2581,-0.0927,-0.3852c-0.0394,-0.1465,-0.0756,-0.2973,-0.1075,-0.4483c-0.0382,-0.1807,-0.0575,-0.3691,-0.0575,-0.5598c0,-0.2156,0.0403,-0.4219,0.1199,-0.6132c0.0786,-0.1891,0.1905,-0.3567,0.3326,-0.498c0.1409,-0.1402,0.3099,-0.2504,0.5023,-0.3279c0.1878,-0.0756,0.3927,-0.1139,0.6089,-0.1139h0.6511v1.1403h-0.6511c-0.0831,0,-0.1574,0.013,-0.2208,0.0385c-0.0589,0.0237,-0.1075,0.0544,-0.1445,0.0912c-0.0358,0.0356,-0.0642,0.0781,-0.0841,0.1262c-0.0195,0.0467,-0.0293,0.0993,-0.0293,0.1568c0,0.1075,0.0107,0.2126,0.0318,0.3125c0.0274,0.1298,0.0584,0.2595,0.0924,0.3855c0.0396,0.1475,0.0757,0.2973,0.1073,0.4456c0.0384,0.1803,0.0578,0.3671,0.0578,0.5553c0,0.1819,-0.0396,0.3532,-0.1178,0.5093c-0.0231,0.0461,-0.0491,0.0904,-0.0778,0.1326c0.0287,0.0421,0.0546,0.0862,0.0777,0.1323c0.0783,0.1565,0.1179,0.3266,0.1179,0.5058c0,0.1914,-0.0196,0.3793,-0.0581,0.5582c-0.0317,0.1471,-0.0677,0.2959,-0.107,0.4423c-0.0338,0.1257,-0.0649,0.2555,-0.0924,0.3858c-0.0211,0.1,-0.0318,0.2051,-0.0318,0.3127c0,0.0574,0.0098,0.11,0.029,0.1562c0.0202,0.0485,0.0485,0.0911,0.0844,0.1269c0.0369,0.0367,0.0855,0.0674,0.1444,0.0911c0.0635,0.0255,0.1377,0.0385,0.2208,0.0385h0.6511V15.8H2.1624z" fill="#1CB3C8"/>
    <path d="M6.6427,15.8v-1.1403h0.6511c0.0831,0,0.1574,-0.013,0.2208,-0.0385c0.0589,-0.0237,0.1075,-0.0543,0.1442,-0.091c0.036,-0.0358,0.0644,-0.0784,0.0845,-0.1267c0.0193,-0.0465,0.0291,-0.0991,0.0291,-0.1565c0,-0.1075,-0.0107,-0.2127,-0.0318,-0.3126c-0.0275,-0.1304,-0.0586,-0.2602,-0.0924,-0.3858c-0.0394,-0.1465,-0.0754,-0.2953,-0.1071,-0.4423c-0.0385,-0.179,-0.0581,-0.3668,-0.0581,-0.5582c0,-0.1792,0.0396,-0.3493,0.1177,-0.5055c0.0231,-0.0461,0.0491,-0.0904,0.0779,-0.1326c-0.0287,-0.0422,-0.0547,-0.0865,-0.0778,-0.1326c-0.0781,-0.156,-0.1177,-0.3274,-0.1177,-0.5093c0,-0.1885,0.0195,-0.3753,0.0578,-0.5552c0.0314,-0.1472,0.0675,-0.2971,0.1073,-0.4454c0.0339,-0.1262,0.065,-0.256,0.0924,-0.3858c0.0211,-0.0997,0.0318,-0.2049,0.0318,-0.3125c0,-0.0574,-0.0098,-0.1101,-0.0291,-0.1565c-0.02,-0.0483,-0.0484,-0.0908,-0.0844,-0.1266c-0.0369,-0.0367,-0.0855,-0.0674,-0.1444,-0.0911c-0.0634,-0.0255,-0.1377,-0.0385,-0.2208,-0.0385h-0.6511V8.0161h0.6511c0.2162,0,0.421,0.0383,0.6089,0.1139c0.1924,0.0774,0.3614,0.1877,0.5023,0.3278c0.1422,0.1416,0.2541,0.3093,0.3326,0.4983c0.0795,0.1909,0.1199,0.3973,0.1199,0.613c0,0.1906,-0.0194,0.3789,-0.0576,0.5598c-0.0318,0.151,-0.0681,0.3019,-0.1075,0.4485c-0.034,0.1269,-0.0652,0.2565,-0.0927,0.385c-0.0198,0.0932,-0.0304,0.1907,-0.0314,0.2899c0.0128,0.01,0.0301,0.02,0.0591,0.0295c0.0366,0.012,0.0804,0.018,0.1301,0.018H9.3l-0.0001,1.2165h-0.5425c-0.0475,0,-0.0892,0.006,-0.124,0.0179c-0.0366,0.0125,-0.0563,0.0255,-0.0652,0.0326c0.0012,0.1003,0.0116,0.197,0.0312,0.2879c0.0274,0.1271,0.0586,0.2563,0.0929,0.3839c0.0393,0.1463,0.0756,0.2973,0.1076,0.4486c0.0382,0.1807,0.0575,0.3691,0.0575,0.5598c0,0.2156,-0.0403,0.4219,-0.1198,0.613c-0.0785,0.1889,-0.1904,0.3565,-0.3326,0.4981c-0.1409,0.1402,-0.31,0.2506,-0.5025,0.328C7.715,15.7616,7.5101,15.8,7.2938,15.8H6.6427z" fill="#1CB3C8"/>
  </g>
</svg>
