<?xml version="1.0" encoding="UTF-8"?>
<!DOCTYPE svg PUBLIC "-//W3C//DTD SVG 1.1//EN" "http://www.w3.org/Graphics/SVG/1.1/DTD/svg11.dtd">
<svg version="1.1" id="Layer_1" xmlns="http://www.w3.org/2000/svg" xmlns:xlink="http://www.w3.org/1999/xlink" x="0px" y="0px" width="16px" height="16px" viewBox="0 0 16 16" enable-background="new 0 0 16 16" xml:space="preserve">
  <g id="icon">
    <polygon points="11.6,0.5 3.5,0.5 3.5,15.5 15.5,15.5 15.5,4.4" fill="#FFFFFF" stroke-linejoin="miter" opacity="0.5"/>
    <polygon points="11.8034,0 3,0 3,5 4,5 4,1 11,1 11,5 15,5 15,15 10,15 10,16 16,16 16,4.1892" fill="#6E6F72" stroke-linejoin="miter"/>
    <polygon points="12,1.5883 14.3735,4 12,4" fill="#6E6F72" stroke-linejoin="miter"/>
    <circle cx="5" cy="11" r="4.5" fill="#FFFFFF" opacity="0.5"/>
    <path d="M5,16c-2.757,0,-5,-2.243,-5,-5s2.243,-5,5,-5s5,2.243,5,5S7.757,16,5,16zM5,7c-2.2056,0,-4,1.7944,-4,4s1.7944,4,4,4s4,-1.7944,4,-4S7.2056,7,5,7zM5,12.4c-0.772,0,-1.4,-0.628,-1.4,-1.4s0.628,-1.4,1.4,-1.4s1.4,0.628,1.4,1.4S5.772,12.4,5,12.4zM5,10.6c-0.2206,0,-0.4,0.1794,-0.4,0.4s0.1794,0.4,0.4,0.4s0.4,-0.1794,0.4,-0.4S5.2206,10.6,5,10.6z" fill="#6D6E71"/>
    <path d="M4.1917,14.1551l-0.4595,-0.1972c-0.7644,-0.328,-1.3652,-0.9298,-1.692,-1.6945l-0.1964,-0.4598l0.9196,-0.3929l0.1965,0.4598c0.222,0.5197,0.6473,0.9456,1.1667,1.1685l0.4595,0.1972L4.1917,14.1551z" fill="#6486C4"/>
    <path d="M7.2366,10.5898l-0.1964,-0.4598c-0.2247,-0.526,-0.6379,-0.9405,-1.1635,-1.167l-0.4591,-0.1979l0.3958,-0.9183l0.4592,0.1979c0.7621,0.3285,1.3613,0.9296,1.6872,1.6925l0.1964,0.4598L7.2366,10.5898z" fill="#6486C4"/>
  </g>
</svg>
