<?xml version="1.0" encoding="UTF-8"?>
<!DOCTYPE svg PUBLIC "-//W3C//DTD SVG 1.1//EN" "http://www.w3.org/Graphics/SVG/1.1/DTD/svg11.dtd">
<svg version="1.1" id="Layer_1" xmlns="http://www.w3.org/2000/svg" xmlns:xlink="http://www.w3.org/1999/xlink" x="0px" y="0px" width="16px" height="16px" viewBox="0 0 16 16" enable-background="new 0 0 16 16" xml:space="preserve">
  <g id="icon">
    <path d="M2.5,4.5h6.5V3h-0.3L6.4892,1.5H2.5V4.5z" fill="#FFFFFF" opacity="0.5"/>
    <g>
      <polygon points="12.402,11 14,11 14,8.1336" fill="#EEAC55" stroke-linejoin="miter"/>
      <path d="M7.6076,9.5431L11.5292,2.5H8.8546l-1.95,-1.5H2v10h5.2986C7.3839,10.0384,7.4878,9.7622,7.6076,9.5431zM3,2h3.4892l1.7694,1.361L7.3667,4H3V2z" fill="#EEAC55"/>
    </g>
    <path d="M9.5192,13.8172l-1.293,0.933c-0.4238,0.3058,-1.0137,-0.0117,-0.9918,-0.5339l0.0668,-1.5931c0.0018,-0.0422,0.0036,-0.0823,0.0054,-0.1232H1.5v3h13v-3h-3.2661C10.9102,12.7811,10.3878,13.1904,9.5192,13.8172z" fill="#FFFFFF" opacity="0.5"/>
    <path d="M10.6183,13H14v2H2v-2h5.2854l0.0158,-0.3768c0.0094,-0.2253,0.0194,-0.4321,0.0296,-0.6232H1v4h14v-4h-3.2774C11.6042,12.1679,11.3546,12.4295,10.6183,13z" fill="#6486C4"/>
    <path d="M7.2887,14.5H2.5v-1h4.7645l-0.03,0.7163C7.2301,14.3203,7.2507,14.4156,7.2887,14.5z" fill="#6486C4"/>
    <path d="M9.5192,13.8172L8.5729,14.5H10v-1h-0.0456C9.8196,13.5993,9.6756,13.7043,9.5192,13.8172z" fill="#6486C4"/>
    <path d="M8.9236,10.2628l4.8058,-8.6309c0.2555,-0.4671,1.9245,0.4457,1.6691,0.9128l-4.8104,8.6284C10.4559,11.4149,8.7,12.6819,8.7,12.6819S8.7913,10.5048,8.9236,10.2628z" fill="#FFFFFF" opacity="0.5"/>
    <path d="M8.1573,13.6901l0.0432,-1.0292c0.0962,-2.2937,0.233,-2.5438,0.2845,-2.638l0.0018,-0.0033l4.8058,-8.6309c0.1295,-0.2368,0.3833,-0.3786,0.6945,-0.3858c0.6,-0.0117,1.4909,0.4744,1.8021,0.9855c0.1618,0.2659,0.1793,0.5562,0.048,0.7963l-4.8123,8.6319c-0.049,0.0897,-0.1845,0.3375,-2.0322,1.6708L8.1573,13.6901zM9.378,10.4747c-0.0388,0.1506,-0.0833,0.6221,-0.1206,1.1719c0.4386,-0.3336,0.8069,-0.6294,0.9077,-0.7416l4.719,-8.4646c-0.1582,-0.1688,-0.5659,-0.3914,-0.792,-0.4322L9.378,10.4747zM10.1567,10.9202c-0.0027,0.0047,-0.0051,0.0091,-0.0073,0.0131L10.1567,10.9202zM14.1681,1.8719l-0.0021,0.0038C14.1667,1.8744,14.1674,1.8731,14.1681,1.8719z" fill="#6486C4"/>
    <rect x="13.3496" y="2.4205" width="1" height="1.8385" fill="#6486C4" transform="matrix(0.4748 -0.8801 0.8801 0.4748 4.33439 13.9429)"/>
  </g>
</svg>
