<?xml version="1.0" encoding="UTF-8"?>
<!DOCTYPE svg PUBLIC "-//W3C//DTD SVG 1.1//EN" "http://www.w3.org/Graphics/SVG/1.1/DTD/svg11.dtd">
<svg version="1.1" id="Layer_1" xmlns="http://www.w3.org/2000/svg" xmlns:xlink="http://www.w3.org/1999/xlink" x="0px" y="0px" width="16px" height="16px" viewBox="0 0 16 16" enable-background="new 0 0 16 16" xml:space="preserve">
  <g id="icon">
    <rect y="9" width="15" height="1" fill="#CC525E"/>
    <rect x="1" y="11" width="1" height="3" fill="#EEAD56"/>
    <rect x="3" y="11" width="1" height="5" fill="#EEAD56"/>
    <rect x="13" y="11" width="1" height="5" fill="#EEAD56"/>
    <rect x="5" y="11" width="1" height="3" fill="#EEAD56"/>
    <rect x="7" y="11" width="1" height="4" fill="#EEAD56"/>
    <rect x="9" y="11" width="1" height="3" fill="#EEAD56"/>
    <rect x="11" y="11" width="1" height="4" fill="#EEAD56"/>
    <path d="M14,8V1.5H9.1546l-1.95,-1.5H1v8H14zM2,1h4.7892l1.8625,1.5L7.4167,3.5H2V1z" fill="#EEAC55"/>
    <polygon points="8.6517,2.5 6.7892,1 2,1 2,3.5 7.3667,3.5" fill="#FFFFFF" stroke-linejoin="miter" opacity="0.5"/>
  </g>
</svg>
