<?xml version="1.0" encoding="UTF-8"?>
<!DOCTYPE svg PUBLIC "-//W3C//DTD SVG 1.1//EN" "http://www.w3.org/Graphics/SVG/1.1/DTD/svg11.dtd">
<svg version="1.1" id="Layer_1" xmlns="http://www.w3.org/2000/svg" xmlns:xlink="http://www.w3.org/1999/xlink" x="0px" y="0px" width="16px" height="16px" viewBox="0 0 16 16" enable-background="new 0 0 16 16" xml:space="preserve">
  <g id="icon">
    <polygon points="2,10 2,1 6.7892,1 8.7392,3 14,3 14,10 15,10 15,2 9.1546,2 7.2046,0 1,0 1,10" fill="#EEAC55" stroke-linejoin="miter"/>
    <polygon points="14,10 14,3 8.7392,3 6.7892,1 2,1 2,10" fill="#FFFFFF" stroke-linejoin="miter" opacity="0.5"/>
    <path d="M1.3998,15.9555L3.4419,12H1v-1h3.7v0.6825l-2.2415,4.3387L1.3998,15.9555zM7.4585,16.0212L9.7,11.6825V11H6v1h2.4419l-2.0421,3.9555L7.4585,16.0212zM12.4585,16.0212L14.7,11.6825V11h-3.7v1h2.4419l-2.0421,3.9555L12.4585,16.0212z" fill="#6486C4"/>
  </g>
</svg>
