<?xml version="1.0" encoding="UTF-8"?>
<!DOCTYPE svg PUBLIC "-//W3C//DTD SVG 1.1//EN" "http://www.w3.org/Graphics/SVG/1.1/DTD/svg11.dtd">
<svg version="1.1" id="Layer_1" xmlns="http://www.w3.org/2000/svg" xmlns:xlink="http://www.w3.org/1999/xlink" x="0px" y="0px" width="16px" height="16px" viewBox="0 0 16 16" enable-background="new 0 0 16 16" xml:space="preserve">
  <g id="icon">
    <path d="M10.896,12.492l-4.318,-0.1L4.925,3.019c-0.049,-0.28,0.221,-0.527,0.598,-0.527h7.36c0.377,0,0.692,0.248,0.759,0.627l1.653,9.373h-1.05M2.296,12.492h-0.918c-0.188,0,-0.407,-0.144,-0.441,-0.334c0,0,-0.244,-1.381,-0.455,-2.58c-0.027,-0.155,-0.018,-0.353,-0.014,-0.449C0.523,7.92,0.75,6.04,0.85,5.81c0.101,-0.23,0.346,-0.319,0.533,-0.319h3.678c0.188,0,0.317,0.101,0.351,0.292l1.124,6.374c0.025,0.142,-0.024,0.334,-0.191,0.334h-0.317" fill="#FFFFFF"/>
    <path d="M14.135,13l-0.176,-1h0.8l-1.564,-8.873c-0.011,-0.064,-0.034,-0.127,-0.171,-0.127h-7.36c-0.092,0,-0.167,0.14,-0.169,0.127L7.059,12h4l-0.124,1h-5.4l0.124,-1h0.4L5.001,6h-2.6l-0.176,-1h2.6l-0.313,-1.773C4.399,2.585,4.808,2,5.487,2h7.36c0.655,0,1.234,0.485,1.347,1.127L15.935,13H14.135zM1.439,13c-0.436,0,-0.963,-0.335,-1.051,-0.834L0.006,10h1l0.353,2h1.1l0.176,1H1.439z" fill="#383838"/>
    <path d="M3.418,9.5h-2.9L0.63,6.257C0.679,5.809,1.034,5.5,1.5,5.5h1.213L3.418,9.5z" fill="#FFFFFF" stroke="#228BCB" stroke-width="1" stroke-miterlimit="1"/>
    <path d="M11.955,11.186c-0.915,0,-1.525,0.748,-1.362,1.67c0.163,0.922,1.036,1.67,1.951,1.67c0.915,0,1.524,-0.748,1.362,-1.67C13.743,11.933,12.87,11.186,11.955,11.186zM5.706,12.855c0.163,0.922,-0.447,1.67,-1.362,1.67c-0.915,0,-1.788,-0.748,-1.951,-1.67c-0.163,-0.922,0.447,-1.67,1.362,-1.67C4.67,11.186,5.543,11.933,5.706,12.855z" fill="#FFFFFF" stroke="#383838" stroke-width="1" stroke-miterlimit="1"/>
    <path d="M7,4.5h3.5M7.5,6.5h4.5M8,8.5h5.5" fill="#FFFFFF" stroke="#228BCB" stroke-width="1" stroke-miterlimit="1"/>
  </g>
</svg>
