<?xml version="1.0" encoding="UTF-8"?>
<!DOCTYPE svg PUBLIC "-//W3C//DTD SVG 1.1//EN" "http://www.w3.org/Graphics/SVG/1.1/DTD/svg11.dtd">
<svg version="1.1" id="Layer_1" xmlns="http://www.w3.org/2000/svg" xmlns:xlink="http://www.w3.org/1999/xlink" x="0px" y="0px" width="16px" height="16px" viewBox="0 0 16 16" enable-background="new 0 0 16 16" xml:space="preserve">
  <g id="icon">
    <path d="M4.7,16H0v-0.748l2.585,-2.692c0.202,-0.204,0.397,-0.405,0.581,-0.6c0.169,-0.18,0.32,-0.365,0.447,-0.55c0.119,-0.173,0.214,-0.355,0.284,-0.543c0.063,-0.17,0.095,-0.359,0.095,-0.561c0,-0.241,-0.039,-0.443,-0.116,-0.6c-0.08,-0.163,-0.179,-0.292,-0.303,-0.393c-0.129,-0.105,-0.273,-0.181,-0.442,-0.231C2.95,9.028,2.761,9,2.572,9c-0.216,0,-0.417,0.032,-0.595,0.096c-0.177,0.064,-0.328,0.15,-0.462,0.266c-0.131,0.113,-0.237,0.249,-0.323,0.416c-0.088,0.17,-0.146,0.366,-0.175,0.584l-0.991,-0.131c0.044,-0.332,0.137,-0.639,0.278,-0.911c0.143,-0.278,0.331,-0.519,0.558,-0.715c0.225,-0.194,0.487,-0.346,0.777,-0.45C1.926,8.052,2.24,8,2.572,8c0.286,0,0.571,0.042,0.848,0.125c0.293,0.088,0.558,0.227,0.787,0.415c0.234,0.192,0.425,0.436,0.568,0.727c0.144,0.295,0.218,0.645,0.218,1.039c0,0.322,-0.053,0.628,-0.158,0.91c-0.098,0.264,-0.232,0.52,-0.397,0.76c-0.156,0.227,-0.339,0.452,-0.543,0.669c-0.188,0.2,-0.389,0.407,-0.596,0.616L1.629,15H4.7V16z" fill="#238BCB"/>
    <path d="M10.482,16h-1v-1.515H5.796v-0.725L9.668,8h0.815v5.485h0.768v1h-0.768V16zM7.186,13.485h2.296v-3.417L7.186,13.485z" fill="#238BCB"/>
    <path d="M9,0.5C5.41,0.5,2.5,3.41,2.5,7h9.5v5.766c2.079,-1.084,3.5,-3.258,3.5,-5.766C15.5,3.41,12.59,0.5,9,0.5z" fill="#FFFFFF"/>
    <path d="M9,0C5.14,0,2,3.14,2,7h1c0,-0.518,0.066,-1.02,0.19,-1.5h2.406c-0.079,0.507,-0.121,1.013,-0.123,1.5h1c0.002,-0.48,0.049,-0.989,0.137,-1.5h4.801c0.088,0.511,0.135,1.02,0.137,1.5H12v3.347c0.093,-0.278,0.174,-0.561,0.244,-0.847h2.21c-0.521,1.131,-1.383,2.073,-2.454,2.694v1.13c2.363,-1.125,4,-3.537,4,-6.324C16,3.14,12.86,0,9,0zM6.3,3.001c-0.201,0.473,-0.369,0.98,-0.5,1.499H3.546c0.723,-1.572,2.107,-2.779,3.792,-3.266C6.873,1.803,6.535,2.449,6.3,3.001zM6.836,4.5c0.416,-1.483,1.172,-2.843,2.174,-3.422c1.003,0.58,1.758,1.939,2.174,3.422H6.836zM12.221,4.5c-0.131,-0.519,-0.299,-1.026,-0.5,-1.499c-0.233,-0.549,-0.57,-1.192,-1.032,-1.759c1.674,0.492,3.046,1.695,3.766,3.258H12.221zM12.438,8.5c0.073,-0.5,0.11,-0.996,0.11,-1.47c0,-0.496,-0.042,-1.013,-0.123,-1.53h2.386c0.124,0.48,0.19,0.982,0.19,1.5s-0.066,1.02,-0.19,1.5H12.438z" fill="#78797A"/>
  </g>
</svg>
