<?xml version="1.0" encoding="UTF-8"?>
<!DOCTYPE svg PUBLIC "-//W3C//DTD SVG 1.1//EN" "http://www.w3.org/Graphics/SVG/1.1/DTD/svg11.dtd">
<svg version="1.1" id="Layer_1" xmlns="http://www.w3.org/2000/svg" xmlns:xlink="http://www.w3.org/1999/xlink" x="0px" y="0px" width="16px" height="16px" viewBox="0 0 16 16" enable-background="new 0 0 16 16" xml:space="preserve">
  <g id="icon">
    <path d="M9,0.15c-2.777,0,-5.166,1.654,-6.242,4.029C3.186,4.063,3.636,4,4.101,4c2.828,0,5.128,2.295,5.128,5.116c0,1.05,-0.317,2.06,-0.917,2.919c-0.24,0.345,-0.681,0.937,-1.153,1.563c0.586,0.163,1.203,0.252,1.841,0.252c3.783,0,6.85,-3.067,6.85,-6.85C15.85,3.217,12.783,0.15,9,0.15z" fill="#FFFFFF"/>
    <path d="M9,0.011c-2.872,0,-5.346,1.739,-6.423,4.22c0.392,-0.122,0.805,-0.198,1.231,-0.222c0.769,-1.325,2.03,-2.331,3.531,-2.764C6.873,1.814,6.535,2.459,6.3,3.011c-0.174,0.41,-0.324,0.846,-0.446,1.293c0.726,0.257,1.378,0.673,1.914,1.206h3.643c0.09,0.522,0.137,1.041,0.137,1.53c0,0.478,-0.042,0.975,-0.122,1.47H9.243c0.026,0.21,0.04,0.424,0.04,0.642c0,0.12,-0.005,0.24,-0.013,0.358h1.941c-0.106,0.396,-0.236,0.78,-0.387,1.141c-0.471,1.125,-1.118,1.94,-1.836,2.315c-0.288,-0.15,-0.555,-0.367,-0.799,-0.634c-0.267,0.371,-0.653,0.89,-1.056,1.425c0.595,0.165,1.22,0.253,1.867,0.253c3.86,0,7,-3.14,7,-7S12.86,0.011,9,0.011zM6.836,4.511c0.416,-1.483,1.172,-2.843,2.174,-3.422c1.003,0.58,1.758,1.939,2.174,3.422H6.836zM10.688,1.252c1.674,0.492,3.046,1.695,3.766,3.258h-2.233c-0.131,-0.519,-0.299,-1.026,-0.5,-1.499C11.487,2.462,11.15,1.819,10.688,1.252zM10.749,12.751c0.698,-0.867,1.201,-2.031,1.495,-3.24h2.21C13.743,11.055,12.395,12.248,10.749,12.751zM12.438,8.511c0.073,-0.5,0.11,-0.996,0.11,-1.47c0,-0.496,-0.042,-1.013,-0.123,-1.53h2.386c0.124,0.48,0.19,0.982,0.19,1.5s-0.066,1.02,-0.19,1.5H12.438z" fill="#78797A"/>
    <path d="M7.729,9.116c0,0.766,-0.239,1.476,-0.647,2.061c-0.655,0.94,-2.981,3.954,-2.981,3.954s-2.311,-3.006,-2.967,-3.934c-0.416,-0.588,-0.661,-1.306,-0.661,-2.081C0.473,7.119,2.097,5.5,4.101,5.5S7.729,7.119,7.729,9.116z" fill="#92CBEE" stroke="#0964B0" stroke-width="1" stroke-miterlimit="1"/>
    <circle cx="4.04" cy="9.112" r="1.505" fill="#FFFFFF" stroke="#0964B0" stroke-width="1" stroke-miterlimit="1"/>
  </g>
</svg>
