<?xml version="1.0" encoding="UTF-8"?>
<!DOCTYPE svg PUBLIC "-//W3C//DTD SVG 1.1//EN" "http://www.w3.org/Graphics/SVG/1.1/DTD/svg11.dtd">
<svg version="1.1" id="Layer_1" xmlns="http://www.w3.org/2000/svg" xmlns:xlink="http://www.w3.org/1999/xlink" x="0px" y="0px" width="16px" height="16px" viewBox="0 0 16 16" enable-background="new 0 0 16 16" xml:space="preserve">
  <g id="icon">
    <path d="M13.494,5.997c0,1.159,-0.361,2.234,-0.976,3.119C11.53,10.538,8.022,15.1,8.022,15.1s-3.485,-4.549,-4.475,-5.954c-0.628,-0.891,-0.996,-1.977,-0.996,-3.149C2.55,2.975,5,0.525,8.022,0.525S13.494,2.975,13.494,5.997z" fill="#C8C6C4" stroke="#383838" stroke-width="1" stroke-miterlimit="1"/>
    <path d="M6.237,4.39c0.088,-0.09,0.332,-0.323,0.444,-0.412c0.112,-0.088,0.237,-0.168,0.375,-0.238c0.138,-0.07,0.289,-0.126,0.452,-0.168c0.164,-0.041,0.343,-0.062,0.538,-0.062c0.224,0,0.443,0.035,0.656,0.106c0.213,0.07,0.402,0.172,0.565,0.303c0.164,0.132,0.295,0.292,0.394,0.482c0.099,0.19,0.149,0.405,0.149,0.647c0,0.271,-0.045,0.506,-0.135,0.707c-0.09,0.2,-0.158,0.375,-0.294,0.525c-0.136,0.15,-0.284,0.283,-0.444,0.398c-0.16,0.116,-0.263,0.225,-0.399,0.328c-0.136,0.103,-0.251,0.207,-0.345,0.311c-0.094,0.105,-0.143,0.22,-0.146,0.35v0.861" fill="#C8C6C4" stroke="#383838" stroke-width="1.1" stroke-miterlimit="1"/>
    <ellipse cx="8.017" cy="9.931" rx="0.77" ry="0.769" fill="#383838"/>
  </g>
</svg>
