<?xml version="1.0" encoding="UTF-8"?>
<!DOCTYPE svg PUBLIC "-//W3C//DTD SVG 1.1//EN" "http://www.w3.org/Graphics/SVG/1.1/DTD/svg11.dtd">
<svg version="1.1" id="Layer_1" xmlns="http://www.w3.org/2000/svg" xmlns:xlink="http://www.w3.org/1999/xlink" x="0px" y="0px" width="16px" height="16px" viewBox="0 0 16 16" enable-background="new 0 0 16 16" xml:space="preserve">
  <g id="icon">
    <path d="M14.5,16c0,-3.494,-2.91,-6.779,-6.499,-6.779S1.502,12.506,1.502,16" fill="#FFFFFF" stroke="#228BCB" stroke-width="1" stroke-miterlimit="1"/>
    <path d="M10.308,9.739c-0.717,-0.301,-1.494,-0.47,-2.307,-0.47c-0.82,0,-1.604,0.172,-2.326,0.478" fill="#FFFFFF" stroke="#228BCB" stroke-width="1" stroke-miterlimit="1"/>
    <path d="M14.5,16c0,-2.678,-1.709,-5.233,-4.124,-6.281c-0.445,1.354,-4.353,1.385,-4.75,0C3.212,10.767,1.502,13.322,1.502,16" fill="#FFFFFF" stroke="#228BCB" stroke-width="1" stroke-miterlimit="1"/>
    <path d="M11.957,4.349c0,2.043,-1.779,5.084,-3.974,5.084S4.009,6.392,4.009,4.349S5.788,0.55,7.983,0.55S11.957,2.305,11.957,4.349z" fill="#FFFFFF" stroke="#228BCB" stroke-width="1" stroke-miterlimit="1"/>
    <path d="M11.791,3.283C11.302,1.731,9.783,0.55,7.983,0.55c-1.967,0,-3.599,1.41,-3.917,3.174C8.992,1.45,8.73,4.893,11.791,3.283z" fill="#FFFFFF" stroke="#228BCB" stroke-width="1" stroke-miterlimit="1" stroke-linejoin="round"/>
  </g>
</svg>
