<?xml version="1.0" encoding="UTF-8"?>
<!DOCTYPE svg PUBLIC "-//W3C//DTD SVG 1.1//EN" "http://www.w3.org/Graphics/SVG/1.1/DTD/svg11.dtd">
<svg version="1.1" id="Layer_1" xmlns="http://www.w3.org/2000/svg" xmlns:xlink="http://www.w3.org/1999/xlink" x="0px" y="0px" width="16px" height="16px" viewBox="0 0 16 16" enable-background="new 0 0 16 16" xml:space="preserve">
  <g id="icon">
    <path d="M7.088,15.464c-0.496,-0.151,-0.929,-0.386,-1.33,-0.681c-0.662,-0.488,-1.228,-1.076,-1.743,-1.712c-0.727,-0.898,-1.36,-1.861,-1.931,-2.865c-0.511,-0.9,-0.964,-1.828,-1.276,-2.818c-0.207,-0.656,-0.346,-1.326,-0.3,-2.019c0.014,-0.207,0.047,-0.428,0.137,-0.611c0.075,-0.153,0.232,-0.276,0.373,-0.384c0.452,-0.346,0.957,-0.603,1.481,-0.818c0.261,-0.107,0.523,-0.081,0.753,0.087c0.081,0.059,0.157,0.15,0.192,0.243c0.298,0.789,0.582,1.582,0.878,2.371c0.113,0.301,0.011,0.549,-0.173,0.771c-0.226,0.271,-0.465,0.532,-0.71,0.786c-0.088,0.091,-0.095,0.163,-0.04,0.265c0.325,0.597,0.627,1.208,0.978,1.789c0.301,0.498,0.651,0.966,0.988,1.442c0.236,0.333,0.243,0.33,0.635,0.222c0.238,-0.066,0.474,-0.142,0.714,-0.203c0.239,-0.061,0.481,-0.086,0.707,0.049c0.049,0.029,0.095,0.066,0.134,0.107c0.559,0.59,1.107,1.19,1.678,1.768c0.357,0.361,0.264,0.807,-0.063,1.088c-0.455,0.392,-0.934,0.756,-1.487,1.008C7.489,15.437,7.29,15.507,7.088,15.464z" fill="#C8C6C4" stroke="#383838" stroke-width="1" stroke-miterlimit="1"/>
    <path d="M6.5,0.492v6h2v1.683l3.034,-1.683H15.5v-6H6.5zM8.5,3.492h1M10.5,3.492h1M12.5,3.492h1" fill="#92CBEE" stroke="#0964B0" stroke-width="1" stroke-miterlimit="1"/>
  </g>
</svg>
