<?xml version="1.0" encoding="UTF-8"?>
<!DOCTYPE svg PUBLIC "-//W3C//DTD SVG 1.1//EN" "http://www.w3.org/Graphics/SVG/1.1/DTD/svg11.dtd">
<svg version="1.1" id="Layer_1" xmlns="http://www.w3.org/2000/svg" xmlns:xlink="http://www.w3.org/1999/xlink" x="0px" y="0px" width="16px" height="16px" viewBox="0 0 16 16" enable-background="new 0 0 16 16" xml:space="preserve">
  <g id="icon">
    <path d="M12.172,0.506h0.874c0.369,1.392,1.122,3.843,1.122,6.001c0,1.689,-1.421,4.33,-5.908,4.603c-0.285,0.693,-0.173,1.638,0.154,2.448c1.787,0.102,3.665,0.492,3.665,0.958c0,0.544,-1.811,0.985,-4.046,0.985s-4.046,-0.441,-4.046,-0.985c0,-0.466,1.878,-0.856,3.665,-0.958c0.327,-0.81,0.439,-1.755,0.154,-2.448C3.321,10.837,1.9,8.196,1.9,6.507c0,-2.145,0.67,-4.701,1.111,-6.001h6.387l-0.682,3.408L12.172,0.506z" fill="#FFFFFF" stroke="#ED8730" stroke-width="1" stroke-miterlimit="1"/>
  </g>
</svg>
