<?xml version="1.0" encoding="UTF-8"?>
<!DOCTYPE svg PUBLIC "-//W3C//DTD SVG 1.1//EN" "http://www.w3.org/Graphics/SVG/1.1/DTD/svg11.dtd">
<svg version="1.1" id="Layer_1" xmlns="http://www.w3.org/2000/svg" xmlns:xlink="http://www.w3.org/1999/xlink" x="0px" y="0px" width="16px" height="16px" viewBox="0 0 16 16" enable-background="new 0 0 16 16" xml:space="preserve">
  <g id="icon">
    <polygon points="5.3,15.5 3,15.5 4.3,13 6.6,13" fill="#78797B" stroke="#383838" stroke-width="1" stroke-miterlimit="1" stroke-linejoin="miter"/>
    <polygon points="10.7,15.5 13,15.5 11.7,13 9.4,13" fill="#78797B" stroke="#383838" stroke-width="1" stroke-miterlimit="1" stroke-linejoin="miter"/>
    <path d="M6.75,1.5c0,0,-1.913,0,-2.206,0c-0.504,0,-1.008,0.492,-1.158,0.985c-0.15,0.492,-0.627,2.268,-0.749,2.732C2.514,5.681,2.5,6.243,2.5,6.623c0,0.38,0,3.444,0,4.4c0,0.844,0.664,1.829,0.954,1.899c0.259,0.063,2.626,0.464,4.296,0.547l0,0.03c0.09,0,0.186,-0.001,0.287,-0.004c0.092,0.003,0.18,0.004,0.264,0.004l0,-0.028c1.665,-0.072,4.059,-0.424,4.255,-0.55c0.219,-0.141,0.945,-1.055,0.945,-1.899c0,-0.956,0,-4.02,0,-4.4c0,-0.38,-0.013,-0.942,-0.135,-1.407c-0.121,-0.464,-0.594,-2.24,-0.742,-2.732c-0.148,-0.492,-0.648,-0.985,-1.147,-0.985C11.168,1.5,9.3,1.5,9.3,1.5" fill="#C8C6C4"/>
    <polygon points="8.025,6.425 2.475,6.425 3.525,2.272 4.375,1.6 8.025,1.6" fill="#92CBEE" stroke-linejoin="miter"/>
    <polygon points="8.075,6.425 13.625,6.425 12.575,2.272 11.725,1.6 8.075,1.6" fill="#92CBEE" stroke-linejoin="miter"/>
    <path d="M8.797,14H8.3c-0.084,0,-0.172,-0.001,-0.264,-0.004c-0.1,0.003,-0.196,0.004,-0.286,0.004h-0.502l0,-0.061c-1.645,-0.125,-3.65,-0.467,-3.912,-0.531C2.724,13.26,2,11.967,2,11.023v-4.4c0,-0.41,0.016,-1.016,0.153,-1.534c0.111,-0.419,0.598,-2.237,0.754,-2.75c0.2,-0.658,0.867,-1.339,1.636,-1.339H6.75v1H4.544c-0.246,0,-0.583,0.312,-0.68,0.63c-0.144,0.473,-0.615,2.223,-0.744,2.714C3.012,5.75,3,6.269,3,6.623v4.4c0,0.592,0.437,1.273,0.618,1.423c0.382,0.077,2.563,0.444,4.157,0.524l0.256,0.013l0.248,-0.011c1.553,-0.067,3.629,-0.374,4.025,-0.488c0.177,-0.167,0.697,-0.865,0.697,-1.461v-4.4c0,-0.355,-0.012,-0.874,-0.119,-1.28c-0.128,-0.49,-0.593,-2.237,-0.737,-2.714c-0.096,-0.317,-0.427,-0.629,-0.668,-0.629H9.3V1h2.176c0.765,0,1.427,0.681,1.626,1.34c0.156,0.517,0.638,2.333,0.747,2.75c0.136,0.518,0.151,1.123,0.151,1.533v4.4c0,1.033,-0.823,2.095,-1.175,2.32c-0.352,0.226,-2.629,0.503,-4.028,0.601L8.797,14z" fill="#383838"/>
    <line x1="2.65" y1="6.5" x2="13.35" y2="6.5" fill="#FFFFFF" stroke="#383838" stroke-width="1" stroke-miterlimit="1"/>
    <line x1="8" y1="3" x2="8" y2="6.45" fill="#FFFFFF" stroke="#383838" stroke-width="1" stroke-miterlimit="1"/>
    <path d="M9.25,1.75C9.25,2.44,8.69,3,8,3s-1.25,-0.56,-1.25,-1.25S7.31,0.5,8,0.5S9.25,1.06,9.25,1.75zM6.5,9.5c0,-0.552,-0.448,-1,-1,-1c-0.552,0,-1,0.448,-1,1c0,0.552,0.448,1,1,1C6.052,10.5,6.5,10.052,6.5,9.5zM11.5,9.5c0,-0.552,-0.448,-1,-1,-1c-0.552,0,-1,0.448,-1,1c0,0.552,0.448,1,1,1C11.052,10.5,11.5,10.052,11.5,9.5z" fill="#F7DA8E" stroke="#E57428" stroke-width="0.8" stroke-linecap="round" stroke-miterlimit="1"/>
  </g>
</svg>
