<?xml version="1.0" encoding="UTF-8"?>
<!DOCTYPE svg PUBLIC "-//W3C//DTD SVG 1.1//EN" "http://www.w3.org/Graphics/SVG/1.1/DTD/svg11.dtd">
<svg version="1.1" id="Layer_1" xmlns="http://www.w3.org/2000/svg" xmlns:xlink="http://www.w3.org/1999/xlink" x="0px" y="0px" width="32px" height="32px" viewBox="0 0 32 32" enable-background="new 0 0 32 32" xml:space="preserve">
  <g id="icon">
    <path d="M30.498,18.323c0,-2.855,0.012,-9.854,-0.001,-12.679c-0.005,-1.151,-0.049,-1.763,-1.224,-2.037c-3.654,-0.85,-9.716,-1.086,-13.083,-1.105V2.5c0.041,0,-0.031,0,-0.103,0c-0.072,0,-0.145,0,-0.283,0v0.001c-3.2,0.019,-9.413,0.255,-13.068,1.105c-1.175,0.273,-1.218,0.886,-1.224,2.037c-0.013,2.825,-0.001,12.679,-0.001,12.679h0.007c0,0,-0.018,7.209,-0.006,9.181c0.003,0.45,0.094,1.133,0.911,1.303c0.798,0.167,8.491,0.659,13.38,0.692V29.5c0.163,0,0.223,0,0.283,0c0.06,0,0.12,0,0.103,0v-0.001c5.062,-0.033,12.598,-0.525,13.396,-0.692c0.817,-0.171,0.908,-0.853,0.911,-1.303c0.012,-1.972,-0.006,-9.181,-0.006,-9.181H30.498z" fill="#FFFFFF" stroke="#383838" stroke-width="1" stroke-miterlimit="1"/>
    <path d="M19.019,25.919c-0.906,0,-1.644,-0.738,-1.644,-1.645c0,-0.907,0.737,-1.645,1.644,-1.645c0.906,0,1.644,0.738,1.644,1.645C20.663,25.181,19.925,25.919,19.019,25.919zM13.001,25.919c-0.906,0,-1.644,-0.738,-1.644,-1.645c0,-0.907,0.737,-1.645,1.644,-1.645s1.644,0.738,1.644,1.645C14.645,25.181,13.907,25.919,13.001,25.919zM7.083,25.919c-0.906,0,-1.644,-0.738,-1.644,-1.645c0,-0.907,0.737,-1.645,1.644,-1.645s1.644,0.738,1.644,1.645C8.726,25.181,7.989,25.919,7.083,25.919zM19.019,19.145c-0.906,0,-1.644,-0.738,-1.644,-1.645s0.737,-1.645,1.644,-1.645c0.906,0,1.644,0.738,1.644,1.645S19.925,19.145,19.019,19.145zM25.019,25.919c-0.906,0,-1.644,-0.738,-1.644,-1.645c0,-0.907,0.737,-1.645,1.644,-1.645c0.906,0,1.644,0.738,1.644,1.645C26.663,25.181,25.925,25.919,25.019,25.919zM25.019,19.145c-0.906,0,-1.644,-0.738,-1.644,-1.645s0.737,-1.645,1.644,-1.645c0.906,0,1.644,0.738,1.644,1.645S25.925,19.145,25.019,19.145zM13.001,19.145c-0.906,0,-1.644,-0.738,-1.644,-1.645s0.737,-1.645,1.644,-1.645s1.644,0.738,1.644,1.645S13.907,19.145,13.001,19.145zM7.083,19.145c-0.906,0,-1.644,-0.738,-1.644,-1.645s0.737,-1.645,1.644,-1.645s1.644,0.738,1.644,1.645S7.989,19.145,7.083,19.145z" fill="#FFFFFF" stroke="#787979" stroke-width="1" stroke-miterlimit="1"/>
    <rect x="6.5" y="6.5" width="19" height="6" fill="#FFFFFF" stroke="#228BCB" stroke-width="1" stroke-miterlimit="1"/>
  </g>
</svg>
