<?xml version="1.0" encoding="UTF-8"?>
<!DOCTYPE svg PUBLIC "-//W3C//DTD SVG 1.1//EN" "http://www.w3.org/Graphics/SVG/1.1/DTD/svg11.dtd">
<svg version="1.1" id="Layer_1" xmlns="http://www.w3.org/2000/svg" xmlns:xlink="http://www.w3.org/1999/xlink" x="0px" y="0px" width="32px" height="32px" viewBox="0 0 32 32" enable-background="new 0 0 32 32" xml:space="preserve">
  <g id="icon">
    <path d="M11.212,23.371l2.753,4.831l-2.402,0.028L9.843,30l-1.609,-5.753M4.854,23.371l-2.753,4.831l2.402,0.028l1.72,1.77l1.609,-5.753M2.221,18.337c0,3.223,2.603,5.837,5.814,5.837s5.814,-2.613,5.814,-5.837S11.246,12.5,8.035,12.5S2.221,15.113,2.221,18.337z" fill="#F7BFBF" stroke="#DB2E2A" stroke-width="1" stroke-miterlimit="1"/>
    <path d="M5.5,2.5v8.742c0.792,-0.286,1.646,-0.442,2.535,-0.442c4.143,0,7.514,3.381,7.514,7.537c0,1.102,-0.247,2.181,-0.702,3.163H30.5V2.5H5.5z" fill="#FFFFFF"/>
    <path d="M5,2v9.445c0.322,-0.143,0.656,-0.264,1,-0.361V3h24v18H15.056c-0.131,0.344,-0.286,0.678,-0.464,1H31V2H5z" fill="#383838"/>
    <rect x="23.5" y="5.5" width="4" height="5" fill="#F7BFBF"/>
    <path d="M23,5v6h5V5H23zM27,10h-3V6h3V10z" fill="#DB2E2A"/>
    <path d="M20,7H9V6h11V7zM17,8H9v1h8V8zM19,18h4v-1h-4V18zM15.541,18H17v-1h-1.572C15.487,17.327,15.526,17.66,15.541,18zM14.77,15c0.159,0.321,0.295,0.655,0.407,1H25v-1H14.77z" fill="#383838"/>
    <path d="M13.335,13c0.308,0.308,0.588,0.643,0.839,1H21v-1H13.335z" fill="#383838"/>
  </g>
</svg>
