<?xml version="1.0" encoding="UTF-8"?>
<!DOCTYPE svg PUBLIC "-//W3C//DTD SVG 1.1//EN" "http://www.w3.org/Graphics/SVG/1.1/DTD/svg11.dtd">
<svg version="1.1" id="Layer_1" xmlns="http://www.w3.org/2000/svg" xmlns:xlink="http://www.w3.org/1999/xlink" x="0px" y="0px" width="32px" height="32px" viewBox="0 0 32 32" enable-background="new 0 0 32 32" xml:space="preserve">
  <g id="icon">
    <path d="M8.5,6.3V3.583C8.6,2.433,9.433,1.5,10.583,1.5h9.838C21.569,1.5,22.5,2.5,22.5,3.583V6.5" fill="none" stroke="#383838" stroke-width="1" stroke-miterlimit="1"/>
    <path d="M28.433,30.5H2.567C1.425,30.5,0.5,29.548,0.5,28.374V8.626C0.5,7.452,1.425,6.5,2.567,6.5h25.867C29.575,6.5,30.5,7.452,30.5,8.626v19.749C30.5,29.548,29.575,30.5,28.433,30.5z" fill="#FFFFFF" stroke="#383838" stroke-width="1" stroke-miterlimit="1"/>
    <path d="M11.5,18.5h8M15.5,22.5v-8M15.5,11.5c-3.866,0,-7,3.134,-7,7s3.134,7,7,7s7,-3.134,7,-7S19.366,11.5,15.5,11.5z" fill="#F3B8B8" stroke="#E42D2C" stroke-width="1" stroke-miterlimit="1"/>
    <path d="M4.5,11v15M26.5,11v15" fill="#FFFFFF" stroke="#383838" stroke-width="1" stroke-miterlimit="1"/>
  </g>
</svg>
