<?xml version="1.0" encoding="UTF-8"?>
<!DOCTYPE svg PUBLIC "-//W3C//DTD SVG 1.1//EN" "http://www.w3.org/Graphics/SVG/1.1/DTD/svg11.dtd">
<svg version="1.1" id="Layer_1" xmlns="http://www.w3.org/2000/svg" xmlns:xlink="http://www.w3.org/1999/xlink" x="0px" y="0px" width="32px" height="32px" viewBox="0 0 32 32" enable-background="new 0 0 32 32" xml:space="preserve">
  <g id="icon">
    <path d="M28.312,31c0,-6.867,-5.524,-12.372,-12.339,-12.372S3.633,24.133,3.633,31" fill="#C8C6C4" stroke="#383838" stroke-width="1" stroke-miterlimit="1"/>
    <path d="M16,20.5v1.9M16,23.4v1.9M16,26.2v1.9M16,29.1v1.9" fill="#FFFFFF" stroke="#383838" stroke-width="1" stroke-miterlimit="1"/>
    <path d="M23.5,8.829c0,3.889,-3.358,9.675,-7.5,9.675s-7.5,-5.787,-7.5,-9.675S11.858,1.6,16,1.6S23.5,4.94,23.5,8.829z" fill="#FCD8BB"/>
    <path d="M23.5,8.829c0,3.889,-3.358,9.675,-7.5,9.675s-7.5,-5.787,-7.5,-9.675S11.858,1.6,16,1.6S23.5,4.94,23.5,8.829z" fill="none" stroke="#AF6E41" stroke-width="1.1" stroke-linecap="round" stroke-miterlimit="1"/>
    <path d="M21.682,9.398c0,2.76,-2.556,0.952,-5.71,0.952s-5.71,1.713,-5.71,-0.952s1.713,-2.189,5.71,-2.189S21.682,6.639,21.682,9.398z" fill="#C8C6C4" stroke="#383838" stroke-width="1" stroke-miterlimit="1"/>
  </g>
</svg>
