<?xml version="1.0" encoding="UTF-8"?>
<!DOCTYPE svg PUBLIC "-//W3C//DTD SVG 1.1//EN" "http://www.w3.org/Graphics/SVG/1.1/DTD/svg11.dtd">
<svg version="1.1" id="Layer_1" xmlns="http://www.w3.org/2000/svg" xmlns:xlink="http://www.w3.org/1999/xlink" x="0px" y="0px" width="16px" height="16px" viewBox="0 0 16 16" enable-background="new 0 0 16 16" xml:space="preserve">
  <g id="icon">
    <path d="M13.5,13.5H0.5V4.5h13V13.5z" fill="#FFFFFF" opacity="0.5"/>
    <path d="M14,14H0V4h14V14zM1,13h12V5H1V13z" fill="#52B250"/>
    <path d="M14,14h-3.287l-0.0289,-0.8042c0,-1.2819,1.1147,-2.3249,2.485,-2.3249H14V14zM11.7004,13H13v-1.1205C12.333,11.9473,11.7986,12.411,11.7004,13zM3.3,14H0v-3.1121l0.8286,-0.0254c1.3627,0,2.4714,1.0462,2.4714,2.3321V14zM1,13h1.2843c-0.0961,-0.5922,-0.6243,-1.0588,-1.2843,-1.1285V13zM7.05,12.2581c-1.5715,0,-2.85,-1.4398,-2.85,-3.2097s1.2785,-3.2097,2.85,-3.2097S9.9,7.2786,9.9,9.0484S8.6215,12.2581,7.05,12.2581zM7.05,6.8387C6.0299,6.8387,5.2,7.83,5.2,9.0484s0.8299,2.2097,1.85,2.2097S8.9,10.2668,8.9,9.0484S8.0701,6.8387,7.05,6.8387zM13.1792,7.1375h-0.0077C11.8087,7.1375,10.7,6.0913,10.7,4.8054V4h3.3v3.1121L13.1792,7.1375zM11.7157,5c0.0961,0.5922,0.6243,1.0588,1.2843,1.1285V5H11.7157zM0.8286,7.1375l-0.0154,-0.0002L0,7.1121V4h3.3v0.8054C3.3,6.0913,2.1913,7.1375,0.8286,7.1375zM1,5v1.1285C1.6601,6.0588,2.1882,5.5922,2.2843,5H1z" fill="#52B250"/>
    <polygon points="16,12 15,12 15,3 2,3 2,2 16,2" fill="#52B250" stroke-linejoin="miter"/>
  </g>
</svg>
