<?xml version="1.0" encoding="UTF-8"?>
<!DOCTYPE svg PUBLIC "-//W3C//DTD SVG 1.1//EN" "http://www.w3.org/Graphics/SVG/1.1/DTD/svg11.dtd">
<svg version="1.1" id="Layer_1" xmlns="http://www.w3.org/2000/svg" xmlns:xlink="http://www.w3.org/1999/xlink" x="0px" y="0px" width="16px" height="16px" viewBox="0 0 16 16" enable-background="new 0 0 16 16" xml:space="preserve">
  <g id="icon">
    <path d="M15.5,8c0,4.1421,-3.3579,7.5,-7.5,7.5S0.5,12.1421,0.5,8S3.8579,0.5,8,0.5S15.5,3.8579,15.5,8z" fill="#FFFFFF" opacity="0.5"/>
    <path d="M8,16c-4.4112,0,-8,-3.5888,-8,-8S3.5888,0,8,0s8,3.5888,8,8S12.4112,16,8,16zM8,1c-3.8598,0,-7,3.1402,-7,7s3.1402,7,7,7s7,-3.1402,7,-7S11.8598,1,8,1z" fill="#EEAC55"/>
    <path d="M10.9911,3.8687c-0.3382,-0.2453,-0.7055,-0.4483,-1.0917,-0.6034l0.2981,-0.7424c0.447,0.1795,0.872,0.4144,1.2632,0.6982L10.9911,3.8687zM8,2.9c0.4294,0,0.8559,0.0534,1.2677,0.1587l0.1982,-0.7751C8.9894,2.1618,8.4962,2.1,8,2.1c-3.2533,0,-5.9,2.6467,-5.9,5.9h0.8C2.9,5.1878,5.1878,2.9,8,2.9zM6.0712,12.7228c-0.3774,-0.1543,-0.7366,-0.3546,-1.0674,-0.5953l-0.4706,0.647c0.3828,0.2784,0.7984,0.5102,1.2352,0.6888L6.0712,12.7228zM13.9,8h-0.8c0,2.8122,-2.2878,5.1,-5.1,5.1c-0.4435,0,-0.8835,-0.0569,-1.3077,-0.1691l-0.2046,0.7734C6.9786,13.8341,7.4875,13.9,8,13.9C11.2533,13.9,13.9,11.2533,13.9,8z" fill="#EEAC55"/>
  </g>
</svg>
