<?xml version="1.0" encoding="UTF-8"?>
<!DOCTYPE svg PUBLIC "-//W3C//DTD SVG 1.1//EN" "http://www.w3.org/Graphics/SVG/1.1/DTD/svg11.dtd">
<svg version="1.1" id="Layer_1" xmlns="http://www.w3.org/2000/svg" xmlns:xlink="http://www.w3.org/1999/xlink" x="0px" y="0px" width="16px" height="16px" viewBox="0 0 16 16" enable-background="new 0 0 16 16" xml:space="preserve">
  <g id="icon">
    <path d="M14.5,15.5H1.5V0.5h13V15.5z" fill="#FFFFFF" opacity="0.5"/>
    <path d="M15,16H1V0h14V16zM2,15h12V1H2V15z" fill="#383838"/>
    <path d="M13,4H3V2h10V4z" fill="#EEAC55"/>
    <rect x="9" y="13" width="4" height="1" fill="#EEAC55"/>
    <path d="M13,12H3V5h10V12zM4,11h8V6H4V11z" fill="#7B7B7B"/>
    <polygon points="10,11 9,11 9,10 4,10 4,9 9,9 9,8 4,8 4,7 9,7 9,6 10,6 10,7 12,7 12,8 10,8 10,9 12,9 12,10 10,10" fill="#B7B7B7" stroke-linejoin="miter"/>
  </g>
</svg>
