<?xml version="1.0" encoding="UTF-8"?>
<!DOCTYPE svg PUBLIC "-//W3C//DTD SVG 1.1//EN" "http://www.w3.org/Graphics/SVG/1.1/DTD/svg11.dtd">
<svg version="1.1" id="Layer_1" xmlns="http://www.w3.org/2000/svg" xmlns:xlink="http://www.w3.org/1999/xlink" x="0px" y="0px" width="16px" height="16px" viewBox="0 0 16 16" enable-background="new 0 0 16 16" xml:space="preserve">
  <g id="icon">
    <path d="M14.5,13.5H1.5c-0.55,0,-1,-0.45,-1,-1V3.5c0,-0.55,0.45,-1,1,-1h13c0.55,0,1,0.45,1,1v9C15.5,13.05,15.05,13.5,14.5,13.5z" fill="#FFFFFF" opacity="0.5"/>
    <path d="M14.5,14H1.5c-0.8271,0,-1.5,-0.6729,-1.5,-1.5V3.5c0,-0.8271,0.6729,-1.5,1.5,-1.5h13c0.8271,0,1.5,0.6729,1.5,1.5v9C16,13.3271,15.3271,14,14.5,14zM1.5,3c-0.2757,0,-0.5,0.2243,-0.5,0.5v9c0,0.2757,0.2243,0.5,0.5,0.5h13c0.2757,0,0.5,-0.2243,0.5,-0.5V3.5c0,-0.2757,-0.2243,-0.5,-0.5,-0.5H1.5z" fill="#6D6E71"/>
    <path d="M6.6,8c0,-1.0964,0.5195,-2.071,1.3252,-2.6927C7.372,4.9248,6.6965,4.7,5.9676,4.7c-1.8717,0,-3.389,1.4778,-3.389,3.2992c0,1.823,1.5173,3.3008,3.389,3.3008c0.7289,0,1.4044,-0.2248,1.9576,-0.6073C7.1195,10.071,6.6,9.0964,6.6,8z" fill="#CB525D" opacity="0.2"/>
    <path d="M5.9676,11.8c-2.1444,0,-3.889,-1.705,-3.889,-3.8008C2.0786,5.9043,3.8231,4.2,5.9676,4.2c0.8467,0,1.6517,0.2615,2.3277,0.7563c0.2228,0.1631,0.2712,0.4759,0.1082,0.6988c-0.163,0.2228,-0.4759,0.2712,-0.6988,0.1082C7.2012,5.3948,6.6005,5.2,5.9676,5.2c-1.593,0,-2.889,1.2557,-2.889,2.7992c0,1.5444,1.296,2.8008,2.889,2.8008c0.6329,0,1.2336,-0.1948,1.7371,-0.5633c0.2228,-0.1632,0.5357,-0.1147,0.6988,0.1082c0.1631,0.2229,0.1146,0.5357,-0.1082,0.6988C7.6192,11.5385,6.8143,11.8,5.9676,11.8z" fill="#CB525D"/>
    <path d="M8,5.3598c-0.8232,0.6018,-1.3549,1.5601,-1.3549,2.6394s0.5317,2.0392,1.3549,2.641c0.5665,0.4146,1.2705,0.6598,2.0324,0.6598c1.8717,0,3.389,-1.4778,3.389,-3.3008c0,-1.8214,-1.5173,-3.2992,-3.389,-3.2992C9.2705,4.7,8.5665,4.9452,8,5.3598z" fill="#EEAC55" opacity="0.2"/>
    <path d="M10.0324,11.8c-0.8467,0,-1.6516,-0.2615,-2.3277,-0.7563c-0.9765,-0.7138,-1.5596,-1.852,-1.5596,-3.0445c0,-1.2092,0.5686,-2.3183,1.5599,-3.043C8.381,4.4615,9.1858,4.2,10.0324,4.2c2.1444,0,3.889,1.7043,3.889,3.7992C13.9214,10.095,12.1769,11.8,10.0324,11.8zM10.0324,5.2c-0.6329,0,-1.2336,0.1948,-1.7371,0.5633l-0.0002,0.0002c-0.7309,0.5342,-1.15,1.3491,-1.15,2.2357c0,0.8876,0.4191,1.7031,1.15,2.2374c0.5038,0.3687,1.1044,0.5635,1.7374,0.5635c1.593,0,2.889,-1.2564,2.889,-2.8008C12.9214,6.4557,11.6254,5.2,10.0324,5.2zM8,5.3598h0.001H8z" fill="#EEAC55"/>
  </g>
</svg>
