<?xml version="1.0" encoding="UTF-8"?>
<!DOCTYPE svg PUBLIC "-//W3C//DTD SVG 1.1//EN" "http://www.w3.org/Graphics/SVG/1.1/DTD/svg11.dtd">
<svg version="1.1" id="Layer_1" xmlns="http://www.w3.org/2000/svg" xmlns:xlink="http://www.w3.org/1999/xlink" x="0px" y="0px" width="16px" height="16px" viewBox="0 0 16 16" enable-background="new 0 0 16 16" xml:space="preserve">
  <g id="icon">
    <path d="M8.8833,10.2821c-0.1424,0.0405,-0.2099,0.1899,-0.3759,0.6383c-0.1875,0.5064,-0.3537,1.0387,-0.5145,1.5534c-0.2642,0.8458,-0.5373,1.7205,-0.9217,2.5472c-0.0237,0.0532,-0.0456,0.1032,-0.0661,0.15c-0.1674,0.3819,-0.2596,0.5923,-0.507,0.5923c-0.2437,0,-0.336,-0.2104,-0.5034,-0.5924c-0.0205,-0.0468,-0.0424,-0.0968,-0.0655,-0.1486c-0.3532,-0.7599,-0.5846,-1.5477,-0.8084,-2.3096c-0.1691,-0.5759,-0.344,-1.1713,-0.5689,-1.7419c-0.215,-0.5456,-0.294,-0.6969,-0.4895,-0.7177v-0.0581c0.4292,-0.08,0.8884,-0.1379,1.3694,-0.1723c0.3458,-0.0248,0.7028,0.3519,1.0681,0.3519c0.3448,0,0.6824,-0.378,1.01,-0.356c0.4819,0.0324,0.9424,0.0883,1.3733,0.1663V10.2821zM11,14H8v0.7h3V14z" fill="#FFFFFF" opacity="0.5"/>
    <path d="M6.112,12.0526c-0.1636,-0.2334,-0.2623,-0.3093,-0.2623,-0.5394c0.0215,-0.4975,0.0797,-0.4012,0.676,-0.4012c0.5963,0,0.664,-0.0963,0.6425,0.4002c0.0055,0.2252,-0.0162,0.3201,-0.233,0.5413c-0.0049,0.3674,0.0766,1.1749,0.1637,1.9227c-0.1152,0.3105,-0.2399,0.618,-0.3795,0.9183c-0.024,0.0538,-0.0461,0.1043,-0.0669,0.1517c-0.0516,0.1178,-0.1081,0.2467,-0.1524,0.3251c-0.0443,-0.0785,-0.1008,-0.2073,-0.1524,-0.325c-0.0208,-0.0474,-0.043,-0.0981,-0.0685,-0.1552c-0.1252,-0.2693,-0.2348,-0.5437,-0.3345,-0.8201C6.0214,13.3018,6.1004,12.4416,6.112,12.0526z" fill="#CB525D"/>
    <path d="M9.8126,10.3216c-1.0951,-0.2614,-1.1075,-0.2435,-1.4079,0.5681c-0.4936,1.3333,-0.8157,2.7653,-1.4339,4.0951c-0.2046,0.4592,-0.277,0.6826,-0.4708,0.6812c-0.1938,0.0014,-0.2662,-0.222,-0.4708,-0.6812c-0.6182,-1.3299,-0.8527,-2.7207,-1.3751,-4.0465c-0.3531,-0.8961,-0.3841,-0.9063,-1.4668,-0.6167C1.3542,10.8119,0,12.697,0,14.2169c0,2.2121,3.25,1.7411,6.5,1.7411s6.5,0.3072,6.5,-1.7411C13,12.6806,11.6637,10.7635,9.8126,10.3216zM11,14.7H8v-0.7h3V14.7z" fill="#6D6E71"/>
    <path d="M6.4906,10.1279h0.0123c0.4372,-0.0043,0.8363,-0.2005,1.1199,-0.5525c0.9535,-1.1835,1.417,-2.3614,1.417,-3.6011c0,-0.1721,-0.0328,-0.3611,-0.0613,-0.5065c-0.2309,-1.1763,-1.0328,-1.7492,-2.4516,-1.7514h-0.0601c-1.4186,0.0022,-2.2208,0.575,-2.4517,1.7514c-0.0286,0.1454,-0.0613,0.3344,-0.0613,0.5065c0,1.2397,0.4635,2.4176,1.417,3.6011C5.6542,9.9274,6.0519,10.1235,6.4906,10.1279z" fill-rule="evenodd" fill="#FFFFFF" opacity="0.5"/>
    <path d="M6.4839,10.8c-0.685,-0.0062,-1.3002,-0.3103,-1.7322,-0.8563C3.7369,8.6612,3.2435,7.3692,3.2435,5.9938c0,-0.2329,0.0386,-0.4629,0.0722,-0.6372c0.2925,-1.517,1.412,-2.354,3.1521,-2.3567h0.0578c1.7402,0.0027,2.8597,0.8397,3.1522,2.3567c0.0336,0.1743,0.0722,0.4042,0.0722,0.6371c0,1.3753,-0.4933,2.6673,-1.5082,3.9498c-0.4315,0.5453,-1.0473,0.8494,-1.7341,0.8563l-0.0194,0L6.4839,10.8zM6.4688,3.9856c-1.2681,0.002,-1.9536,0.4954,-2.1575,1.5529c-0.0255,0.1321,-0.0548,0.3033,-0.0548,0.4553c0,1.1496,0.4245,2.2448,1.2979,3.3484c0.238,0.3008,0.5711,0.4685,0.9381,0.4722h0.01c0.3663,-0.0037,0.6986,-0.1714,0.9366,-0.4722C8.3125,8.2387,8.737,7.1434,8.737,5.9938c0,-0.1521,-0.0293,-0.3232,-0.0548,-0.4553c-0.2038,-1.0575,-0.8893,-1.551,-2.1574,-1.5529H6.4688z" fill="#6D6E71"/>
    <path d="M3.3574,6.7704c-0.039,-0.2635,-0.0588,-0.5307,-0.0588,-0.796c0,-0.2218,0.0385,-0.4466,0.0721,-0.6176c0.289,-1.4721,1.3594,-2.2516,3.0955,-2.2542h0.0612c1.7359,0.0027,2.8063,0.7822,3.0953,2.2542c0.0336,0.1711,0.0721,0.3959,0.0721,0.6176c0,0.1946,-0.0109,0.392,-0.0323,0.5882h-0.5193c-0.0508,-0.1194,-0.1489,-0.2311,-0.2396,-0.2942c-0.2249,-0.1563,-0.5008,-0.3032,-0.7676,-0.4453c-0.2039,-0.1086,-0.4146,-0.2208,-0.593,-0.3327l-0.0699,-0.0438l-0.0732,0.0388c-0.16,0.0849,-0.3221,0.1773,-0.4789,0.2666c-0.3609,0.2056,-0.7341,0.4181,-1.1284,0.5688c-0.3846,0.1469,-0.8574,0.2486,-1.3147,0.347c-0.162,0.0348,-0.3152,0.0678,-0.4653,0.1028H3.3574z" fill="#6D6E71"/>
    <path d="M9.8701,9.3076c0.0556,0.013,0.1137,0.0269,0.1747,0.0414c0.3105,0.0741,0.6073,0.1807,0.8893,0.313c0.0197,-0.0628,0.0394,-0.1257,0.0589,-0.1882c0.1608,-0.5147,0.327,-1.047,0.5145,-1.5534c0.166,-0.4484,0.2335,-0.5979,0.3759,-0.6383v-0.0972c-0.383,-0.0693,-0.7905,-0.1201,-1.2145,-0.1535C10.5455,7.8103,10.2808,8.5656,9.8701,9.3076z" fill="#FFFFFF" opacity="0.5"/>
    <path d="M12.8126,7.3216c-1.0951,-0.2614,-1.1075,-0.2435,-1.4079,0.5681c-0.2085,0.5633,-0.3865,1.1443,-0.5691,1.7277c1.4313,0.6325,2.4851,1.9442,2.9301,3.2649c1.3304,-0.1606,2.2343,-0.5855,2.2343,-1.6654C16,9.6806,14.6637,7.7635,12.8126,7.3216z" fill="#6D6E71"/>
    <path d="M10.6598,5.1674c0.042,0.218,0.0902,0.5089,0.0902,0.8264c0,0.1465,-0.0048,0.292,-0.0142,0.4367c0.8762,-1.1348,1.3039,-2.2671,1.3039,-3.4562c0,-0.1721,-0.0328,-0.3611,-0.0613,-0.5065c-0.2309,-1.1763,-1.0328,-1.7492,-2.4516,-1.7514h-0.0601c-1.2307,0.0019,-1.9968,0.434,-2.3291,1.3164C9.0167,2.2363,10.3144,3.376,10.6598,5.1674z" fill-rule="evenodd" fill="#FFFFFF" opacity="0.5"/>
    <path d="M6.4662,2h0.0594c0.3221,0.0005,0.6297,0.0269,0.922,0.0765c0.3027,-0.7389,0.9555,-1.0892,2.0211,-1.0909h0.056c1.2681,0.002,1.9536,0.4954,2.1574,1.5529c0.0255,0.1321,0.0548,0.3032,0.0548,0.4553c0,1.0043,-0.3241,1.9671,-0.9883,2.9302c0.0005,0.0232,0.0013,0.0462,0.0013,0.0698c0,0.5197,-0.0594,1.0274,-0.1781,1.5262c0.2527,-0.1419,0.4793,-0.3355,0.6699,-0.5763C12.2567,5.6612,12.75,4.3692,12.75,2.9938c0,-0.2329,-0.0386,-0.4629,-0.0722,-0.6371C12.3853,0.8397,11.2658,0.0027,9.5256,0h-0.0578c-1.5983,0.0025,-2.671,0.7105,-3.0622,2.0011C6.4259,2.0009,6.4458,2,6.4662,2z" fill="#6D6E71"/>
    <path d="M6.4662,2h0.0594c1.2074,0.0019,2.2159,0.3577,2.945,1.003c0.1525,-0.0818,0.3025,-0.1669,0.4503,-0.2511c0.1568,-0.0893,0.3189,-0.1817,0.4789,-0.2666l0.0732,-0.0388l0.0699,0.0438c0.1784,0.1119,0.3892,0.2242,0.593,0.3327c0.2668,0.1421,0.5427,0.289,0.7676,0.4453c0.0907,0.0631,0.1889,0.1748,0.2396,0.2942h0.5193c0.0215,-0.1962,0.0323,-0.3936,0.0323,-0.5882c0,-0.2217,-0.0385,-0.4466,-0.0721,-0.6176c-0.289,-1.4721,-1.3594,-2.2516,-3.0953,-2.2542h-0.0612C7.877,0.1049,6.8476,0.7602,6.4629,2.0001C6.464,2.0001,6.4651,2,6.4662,2z" fill="#6D6E71"/>
  </g>
</svg>
