<?xml version="1.0" encoding="UTF-8"?>
<!DOCTYPE svg PUBLIC "-//W3C//DTD SVG 1.1//EN" "http://www.w3.org/Graphics/SVG/1.1/DTD/svg11.dtd">
<svg version="1.1" id="Layer_1" xmlns="http://www.w3.org/2000/svg" xmlns:xlink="http://www.w3.org/1999/xlink" x="0px" y="0px" width="16px" height="16px" viewBox="0 0 16 16" enable-background="new 0 0 16 16" xml:space="preserve">
  <g id="icon">
    <path d="M12.5,15.5V3.5H0.5v12H12.5z" fill="#FFFFFF" opacity="0.5"/>
    <polygon points="3.5,0.5 3.5,2 14,2 14,12.5 15.5,12.5 15.5,0.5" fill="#FFFFFF" stroke-linejoin="miter" opacity="0.5"/>
    <path d="M13,16H0V3h13V16zM1,15h11V4H1V15zM3,0v2h1V1h11v11h-1v1h2V0H3z" fill="#EEAC55"/>
    <path d="M8,8H5V3h3V8zM6,7h1V4H6V7zM7,14H6v-3h1V14zM3,14H2v-3h1V14zM5,13H4v-2h1V13zM9,2V1h1v1h1V0H8v2H9z" fill="#6D6E71"/>
  </g>
</svg>
