<?xml version="1.0" encoding="UTF-8"?>
<!DOCTYPE svg PUBLIC "-//W3C//DTD SVG 1.1//EN" "http://www.w3.org/Graphics/SVG/1.1/DTD/svg11.dtd">
<svg version="1.1" id="Layer_1" xmlns="http://www.w3.org/2000/svg" xmlns:xlink="http://www.w3.org/1999/xlink" x="0px" y="0px" width="16px" height="16px" viewBox="0 0 16 16" enable-background="new 0 0 16 16" xml:space="preserve">
  <g id="icon">
    <path d="M15,3v8h-4.6862c-0.4328,-0.351,-0.9353,-0.6325,-1.4983,-0.8047c0.3789,-0.8448,0.6032,-1.7871,0.6032,-2.5847C9.4188,5.9178,8.7376,3.9,5.4926,3.9c-0.1702,0,-0.3339,0.0058,-0.4926,0.0162V3H15z" fill="#FFFFFF" opacity="0.4"/>
    <path d="M4,2v2.0693c0.3039,-0.0787,0.6372,-0.1293,1,-0.1531V3h10v8h-4.6862c0.3605,0.2924,0.6723,0.6332,0.9301,1H16V2H4z" fill="#6D6E71"/>
    <rect x="4" width="12" height="3" fill="#6485C3"/>
    <path d="M14.0207,3.9936l-2.8167,0.4598l0.1397,0.8729l1.285,-0.214l-1.8149,2.689l-1.4191,-0.7199c0.0164,0.1781,0.0241,0.3554,0.0241,0.5292c0,0.1488,-0.0103,0.3038,-0.0254,0.4612l1.7165,0.8708l2.2194,-3.2882l0.1487,1.231l0.8776,-0.1049L14.0207,3.9936z" fill="#52B250"/>
    <path d="M7.5167,11.1618c-0.1205,0.0342,-0.1776,0.1607,-0.318,0.5401c-0.1586,0.4285,-0.2993,0.8789,-0.4353,1.3144c-0.2235,0.7157,-0.4547,1.4558,-0.7799,2.1553c-0.0201,0.045,-0.0386,0.0873,-0.056,0.127c-0.1416,0.3232,-0.2196,0.5012,-0.429,0.5012c-0.2063,0,-0.2843,-0.1781,-0.426,-0.5013c-0.0174,-0.0396,-0.0359,-0.0819,-0.0554,-0.1257c-0.2989,-0.643,-0.4947,-1.3096,-0.684,-1.9542c-0.1431,-0.4873,-0.2911,-0.9911,-0.4813,-1.4739c-0.1819,-0.4617,-0.2487,-0.5896,-0.4142,-0.6073v-0.0492c0.3632,-0.0677,0.7517,-0.1167,1.1588,-0.1458c0.2926,-0.0209,0.5947,0.2977,0.9037,0.2977c0.2918,0,0.5774,-0.3199,0.8547,-0.3012c0.4077,0.0275,0.7974,0.0747,1.162,0.1407V11.1618zM9.3077,14.3077H6.7692V14.9h2.5385V14.3077z" fill="#FFFFFF" opacity="0.5"/>
    <path d="M5.1717,12.6599c-0.1384,-0.1975,-0.2219,-0.2617,-0.2219,-0.4564c0.0182,-0.421,0.0674,-0.3395,0.572,-0.3395c0.5046,0,0.5618,-0.0815,0.5436,0.3387c0.0047,0.1905,-0.0137,0.2708,-0.1972,0.458c-0.0042,0.3108,0.0648,0.9941,0.1385,1.6269c-0.0974,0.2627,-0.203,0.5229,-0.3211,0.777c-0.0203,0.0455,-0.039,0.0883,-0.0566,0.1284c-0.0437,0.0997,-0.0915,0.2087,-0.129,0.2751c-0.0375,-0.0664,-0.0853,-0.1754,-0.1289,-0.275c-0.0176,-0.0401,-0.0363,-0.083,-0.0579,-0.1314c-0.1059,-0.2279,-0.1986,-0.4601,-0.2831,-0.6939C5.095,13.7169,5.1619,12.989,5.1717,12.6599z" fill="#CB525D"/>
    <path d="M8.303,11.1952c-0.9266,-0.2212,-0.9371,-0.206,-1.1913,0.4807c-0.4176,1.1282,-0.6902,2.3398,-1.2133,3.4651c-0.1731,0.3885,-0.2344,0.5776,-0.3983,0.5764c-0.164,0.0012,-0.2252,-0.1879,-0.3983,-0.5764c-0.5231,-1.1253,-0.7215,-2.3022,-1.1635,-3.4239c-0.2988,-0.7582,-0.325,-0.7669,-1.2411,-0.5219C1.1459,11.6101,0,13.2052,0,14.4912c0,1.8718,2.75,1.4733,5.5,1.4733s5.5,0.26,5.5,-1.4733C11,13.1913,9.8693,11.5691,8.303,11.1952zM9.3077,14.9H6.7692v-0.5923h2.5385V14.9z" fill="#6D6E71"/>
    <path d="M5.492,11.0313h0.0104c0.3699,-0.0037,0.7077,-0.1697,0.9476,-0.4675c0.8068,-1.0014,1.199,-1.9981,1.199,-3.0471c0,-0.1456,-0.0277,-0.3055,-0.0519,-0.4286c-0.1954,-0.9954,-0.8739,-1.4801,-2.0745,-1.4819h-0.0509c-1.2004,0.0018,-1.8791,0.4866,-2.0745,1.4819c-0.0242,0.123,-0.0519,0.2829,-0.0519,0.4286c0,1.049,0.3922,2.0457,1.199,3.0471C4.7844,10.8616,5.1208,11.0276,5.492,11.0313z" fill-rule="evenodd" fill="#FFFFFF" opacity="0.5"/>
    <path d="M5.4864,11.6c-0.5796,-0.0052,-1.1001,-0.2626,-1.4657,-0.7246C3.162,9.7902,2.7445,8.697,2.7445,7.5333c0,-0.197,0.0326,-0.3916,0.0611,-0.5392C3.0531,5.7105,4.0003,5.0023,5.4727,5h0.0489c1.4725,0.0023,2.4197,0.7105,2.6673,1.9942c0.0284,0.1474,0.0611,0.342,0.0611,0.5391c0,1.1638,-0.4174,2.257,-1.2762,3.3421c-0.3651,0.4614,-0.8862,0.7188,-1.4673,0.7246l-0.0164,0L5.4864,11.6zM5.4736,5.834c-1.073,0.0017,-1.6531,0.4192,-1.8256,1.314c-0.0216,0.1118,-0.0464,0.2566,-0.0464,0.3853c0,0.9727,0.3592,1.8995,1.0982,2.8332c0.2014,0.2545,0.4833,0.3964,0.7938,0.3995h0.0085c0.3099,-0.0031,0.5911,-0.145,0.7925,-0.3995c0.7389,-0.9337,1.0982,-1.8605,1.0982,-2.8332c0,-0.1287,-0.0248,-0.2735,-0.0464,-0.3853C7.174,6.2532,6.594,5.8356,5.521,5.834H5.4736z" fill="#6D6E71"/>
    <path d="M2.8409,8.1903c-0.033,-0.2229,-0.0497,-0.4491,-0.0497,-0.6736c0,-0.1876,0.0326,-0.3779,0.061,-0.5226c0.2445,-1.2456,1.1502,-1.9052,2.6193,-1.9074h0.0517c1.4688,0.0022,2.3746,0.6618,2.6191,1.9074c0.0284,0.1448,0.061,0.335,0.061,0.5226c0,0.1647,-0.0092,0.3317,-0.0273,0.4977h-0.4394c-0.043,-0.1011,-0.126,-0.1956,-0.2028,-0.2489c-0.1903,-0.1322,-0.4237,-0.2566,-0.6495,-0.3768c-0.1725,-0.0919,-0.3508,-0.1869,-0.5018,-0.2815l-0.0592,-0.0371l-0.0619,0.0329c-0.1354,0.0718,-0.2726,0.15,-0.4052,0.2255c-0.3054,0.1739,-0.6212,0.3538,-0.9548,0.4813c-0.3254,0.1243,-0.7255,0.2104,-1.1125,0.2936c-0.137,0.0295,-0.2667,0.0574,-0.3937,0.0869H2.8409z" fill="#6D6E71"/>
  </g>
</svg>
