<?xml version="1.0" encoding="UTF-8"?>
<!DOCTYPE svg PUBLIC "-//W3C//DTD SVG 1.1//EN" "http://www.w3.org/Graphics/SVG/1.1/DTD/svg11.dtd">
<svg version="1.1" id="Layer_1" xmlns="http://www.w3.org/2000/svg" xmlns:xlink="http://www.w3.org/1999/xlink" x="0px" y="0px" width="16px" height="16px" viewBox="0 0 16 16" enable-background="new 0 0 16 16" xml:space="preserve">
  <g id="icon">
    <path d="M15.6275,5.739c-0.0465,-0.6203,-0.8603,-1.2118,-2.0174,-1.4622V2.4276h-0.0043c-0.0664,-0.9912,-1.8882,-1.7886,-4.1197,-1.7886c-2.2542,0,-4.0274,0.7812,-4.091,1.7886h-0.003v1.4743c0.0354,-0.0007,0.0704,-0.0018,0.1062,-0.0019h0.0528c2.1074,0.0032,3.5266,1.0797,3.8954,2.9535c0.0396,0.2009,0.0852,0.4704,0.0852,0.7703c0,0.4642,-0.0541,0.9171,-0.1598,1.3617c0.6205,0.1699,1.3539,0.2756,2.1486,0.2756c2.3149,0,4.1104,-0.8903,4.1104,-1.6562V5.739H15.6275z" fill="#FFFFFF" opacity="0.5"/>
    <path d="M15.976,5.6332c-0.1373,-0.7272,-0.881,-1.3926,-1.9464,-1.7352V2.1957h-0.0208c-0.0995,-0.6057,-0.5713,-1.1501,-1.3427,-1.5438C11.8424,0.2315,10.7181,0,9.5003,0C8.2899,0,7.1725,0.2316,6.3539,0.6522c-0.7665,0.3938,-1.2353,0.9381,-1.3342,1.5435h-0.0155l-0.0041,0.1382L5,3.9226c0.1616,-0.0142,0.3274,-0.0223,0.4982,-0.0226h0.0528c0.2023,0.0003,0.3981,0.0107,0.5874,0.0305l0,-0.0696c0.0524,0.0307,0.1069,0.0604,0.1628,0.0892c0.5515,0.0756,1.043,0.236,1.4666,0.4746c0.5236,0.0976,1.1061,0.1488,1.7324,0.1488c1.4171,0,2.6488,-0.2692,3.4355,-0.7448v0.7083c-0.153,0.1796,-0.4503,0.3795,-0.8082,0.5421c-0.7193,0.3267,-1.6477,0.5066,-2.6141,0.5066c-0.1853,0,-0.3724,-0.0079,-0.5591,-0.0224c0.1634,0.2651,0.2942,0.5597,0.3907,0.8819c0.0562,0.0011,0.1122,0.0032,0.1685,0.0032c1.8252,0,3.5284,-0.6012,4.129,-1.4434c0.8274,0.2528,1.2013,0.6859,1.2175,0.8638l0.0015,0.0168v0.3237c-0.1546,0.1814,-0.4198,0.3516,-0.7708,0.4943c-0.67,0.2723,-1.6005,0.4222,-2.62,0.4222c-0.7423,0,-1.4365,-0.081,-2.0164,-0.2316c0.0376,0.196,0.0773,0.4491,0.0773,0.7296c0,0.0578,-0.003,0.1149,-0.0046,0.1723c0.5859,0.1256,1.2486,0.1924,1.9436,0.1924c1.4088,0,2.5993,-0.2504,3.3908,-0.7089v0.4645c-0.0254,0.0715,-0.2079,0.3086,-0.7567,0.5644c-0.7035,0.3279,-1.6588,0.516,-2.621,0.516c-0.7113,0,-1.4184,-0.1037,-2.0229,-0.2909c-0.0596,0.3843,-0.1588,0.7617,-0.2962,1.134c0.7055,0.2139,1.5141,0.3323,2.3191,0.3323c1.1179,0,2.244,-0.226,3.0895,-0.6201C15.4933,8.9511,16,8.3743,16,7.7559V5.6332H15.976zM12.9357,2.7203c-0.1429,0.2037,-0.4305,0.4019,-0.8159,0.5612c-0.6698,0.2768,-1.6002,0.4293,-2.6196,0.4293c-1.7877,0,-2.9644,-0.4638,-3.3616,-0.935v-0.3496l0.0008,-0.0101c0.0165,-0.2156,0.2999,-0.4948,0.7218,-0.7116c0.6641,-0.3412,1.6013,-0.5291,2.639,-0.5291c1.0463,0,1.9914,0.1883,2.6612,0.5302c0.4538,0.2316,0.7569,0.5106,0.7723,0.7108l0.0019,0.0259V2.7203z" fill="#EEAC55"/>
    <path d="M7.7825,11.1506c1.4194,0.5122,2.9539,1.9192,2.9539,3.1216c0,0.3602,-0.1227,0.6603,-0.3648,0.8917c-0.5535,0.5293,-1.6141,0.6356,-3.1458,0.6356c-0.0001,0,-0.0002,0,-0.0003,0c-0.2723,0,-0.5481,-0.003,-0.8402,-0.0061c-0.2852,-0.003,-0.5781,-0.0062,-0.8675,-0.0062c-0.3781,0,-0.7592,0.0082,-1.1278,0.0161c-0.3664,0.0079,-0.7113,0.0153,-1.0445,0.0153c-1.0595,0,-2.1151,-0.0712,-2.6612,-0.5875c-0.2556,-0.2417,-0.3851,-0.5643,-0.3851,-0.959c0,-0.7406,0.609,-1.4446,1.1198,-1.9048c0.5373,-0.484,1.2108,-0.9143,1.8662,-1.1944M4.5922,10.6424c-0.7903,-0.9938,-1.1745,-1.9829,-1.1745,-3.0239c0,-0.1445,0.0271,-0.3032,0.0508,-0.4253c0.1914,-0.9878,0.8563,-1.4688,2.0322,-1.4706h0.0498c1.176,0.0018,1.8407,0.4829,2.0321,1.4706c0.0237,0.1221,0.0508,0.2808,0.0508,0.4253c0,1.041,-0.3842,2.0301,-1.1745,3.0239c-0.235,0.2955,-0.5659,0.4603,-0.9283,0.4639h-0.0102C5.1568,11.1026,4.8272,10.9379,4.5922,10.6424z" fill="#FFFFFF" opacity="0.5"/>
    <path d="M5.5496,12.0779c-0.4943,0,-0.5425,-0.0832,-0.5603,0.3465c0,0.1987,0.0818,0.2643,0.2174,0.4658c-0.0091,0.3173,-0.1481,1.7462,-0.2171,2.4634c0.1776,0.0076,0.3571,0.0117,0.5387,0.0117c0.1811,0,0.3602,-0.0041,0.5372,-0.0117c-0.0723,-0.6652,-0.1806,-2.1513,-0.1766,-2.4627c0.1797,-0.191,0.1978,-0.273,0.1932,-0.4674C6.0999,11.9947,6.0438,12.0779,5.5496,12.0779z" fill="#6485C3"/>
    <path d="M3.3455,16c-1.2954,0,-2.2784,-0.1112,-2.8657,-0.6536C0.1615,15.0523,0,14.6647,0,14.1943c0,-0.8327,0.6634,-1.5912,1.2199,-2.0808c0.5975,-0.5257,1.1174,-0.8714,1.8436,-1.1543l0.0863,-0.0336l0.0545,0.0741c0.0907,0.1233,0.186,0.2455,0.2833,0.3631c0.0371,0.0449,0.0797,0.0919,0.1302,0.1439l0.0168,0.0173l0.1087,0.2809l-0.1162,0.0401c-1.2588,0.4345,-2.5572,1.5404,-2.5572,2.3495c0,0.2451,0.0825,0.3527,0.1543,0.419c0.3508,0.3241,1.3341,0.3656,2.1516,0.3656c0.3247,0,0.6661,-0.0071,0.9963,-0.0141c0.3759,-0.0079,0.7604,-0.0159,1.1458,-0.0159c0.2931,0,0.5876,0.0031,0.8725,0.0061c0.2668,0.0028,0.5386,0.0056,0.8017,0.0056c1.0867,0,2.2498,-0.0487,2.6368,-0.4101c0.0948,-0.0885,0.137,-0.1983,0.137,-0.3562c0,-0.8188,-1.1652,-1.9787,-2.4442,-2.3238l-0.1181,-0.0319l0.135,-0.4463l0.0229,-0.027c0.1038,-0.1254,0.2028,-0.2526,0.2966,-0.3807l0.0509,-0.0696l0.0828,0.0264c1.5529,0.4942,3.044,1.8821,3.044,3.2529c0,0.4362,-0.1542,0.8013,-0.4583,1.0854c-0.6932,0.6475,-2.0359,0.7017,-3.3516,0.7017c-0.0001,0,-0.0001,0,-0.0003,0c-0.2738,0,-0.5505,-0.0029,-0.8434,-0.006c-0.2857,-0.003,-0.5772,-0.0061,-0.8643,-0.0061c-0.3722,0,-0.7493,0.0079,-1.1139,0.0155l-0.0076,0.0001C4.0269,15.9928,3.6812,16,3.3455,16z" fill="#6D6E71"/>
    <path d="M5.5144,11.8145c-0.6152,-0.0055,-1.1676,-0.2729,-1.5555,-0.753c-0.9013,-1.1154,-1.3394,-2.2399,-1.3394,-3.4376c0,-0.2045,0.0344,-0.4056,0.0644,-0.5579C2.9496,5.7168,3.9233,5.0024,5.4999,5h0.0511c1.5768,0.0024,2.5506,0.7168,2.8161,2.0659c0.03,0.1523,0.0644,0.3533,0.0644,0.5579c0,1.1978,-0.4381,2.3222,-1.3393,3.4376c-0.3875,0.4796,-0.9404,0.7471,-1.5567,0.753l-0.0171,0L5.5144,11.8145zM5.5009,5.9232c-1.1003,0.0017,-1.6948,0.4192,-1.871,1.3142c-0.0222,0.1126,-0.0477,0.2583,-0.0477,0.3865c0,0.9851,0.3721,1.9246,1.1377,2.8721c0.2035,0.2519,0.4884,0.3923,0.8021,0.3955h0.0086c0.3122,-0.0031,0.597,-0.1435,0.8006,-0.3955c0.7655,-0.9475,1.1376,-1.8869,1.1376,-2.872c0,-0.128,-0.0255,-0.2738,-0.0477,-0.3864c-0.1761,-0.895,-0.7707,-1.3126,-1.8709,-1.3142H5.5009z" fill="#6D6E71"/>
    <path d="M2.9235,7.9615c-0.0323,-0.1979,-0.0487,-0.3986,-0.0487,-0.5978c0,-0.1665,0.0319,-0.3354,0.0598,-0.4638c0.2395,-1.1055,1.1268,-1.6909,2.5658,-1.6929h0.0507c1.4389,0.002,2.3261,0.5874,2.5656,1.6929c0.0278,0.1285,0.0598,0.2973,0.0598,0.4638c0,0.1462,-0.009,0.2944,-0.0268,0.4417h-0.4305c-0.0421,-0.0897,-0.1234,-0.1736,-0.1986,-0.2209c-0.1864,-0.1174,-0.4151,-0.2277,-0.6362,-0.3344c-0.169,-0.0815,-0.3437,-0.1659,-0.4916,-0.2499l-0.058,-0.0329l-0.0607,0.0292c-0.1326,0.0638,-0.267,0.1331,-0.397,0.2002c-0.2992,0.1544,-0.6085,0.314,-0.9353,0.4272c-0.3188,0.1103,-0.7107,0.1867,-1.0898,0.2606c-0.1342,0.0262,-0.2613,0.0509,-0.3857,0.0772H2.9235z" fill="#6D6E71"/>
  </g>
</svg>
