<?xml version="1.0" encoding="UTF-8"?>
<!DOCTYPE svg PUBLIC "-//W3C//DTD SVG 1.1//EN" "http://www.w3.org/Graphics/SVG/1.1/DTD/svg11.dtd">
<svg version="1.1" id="Layer_1" xmlns="http://www.w3.org/2000/svg" xmlns:xlink="http://www.w3.org/1999/xlink" x="0px" y="0px" width="16px" height="16px" viewBox="0 0 16 16" enable-background="new 0 0 16 16" xml:space="preserve">
  <g id="icon">
    <path d="M15.5,4.5h-2.3h-2.8H5.6H2.7H0.5v3h0.9552l0.8804,6.4773c0.0679,0.3054,0.3387,0.5227,0.6516,0.5227h10.0443c0.3129,0,0.5837,-0.2173,0.6516,-0.5227L14.6436,7.5H15.5V4.5z" fill="#FFFFFF" opacity="0.5"/>
    <path d="M10.7,5H5.3l0.3,-1h4.8L10.7,5zM16,8h-0.8686l-0.9602,6.0857c-0.1196,0.5383,-0.5882,0.9143,-1.1396,0.9143H2.9872c-0.5514,0,-1.02,-0.3759,-1.1396,-0.9143l-0.0068,-0.037L0.9668,8H0V4h3l-0.3,1H1v2h14V5h-1.7l-0.3,-1h3V8zM14.1191,8H1.9772l0.8497,5.8811c0.0212,0.0706,0.0854,0.1189,0.1603,0.1189h10.0443c0.0755,0,0.1403,-0.0493,0.1609,-0.121L14.1191,8z" fill="#CB525D"/>
    <path d="M3.6706,5.9812L3.6706,5.9812c-0.3149,-0.1031,-0.4866,-0.442,-0.3835,-0.7569L4.7493,0.7585c0.1031,-0.3149,0.442,-0.4866,0.7569,-0.3835l0,0c0.3149,0.1031,0.4866,0.442,0.3835,0.7569L4.4275,5.5977C4.3244,5.9127,3.9855,6.0844,3.6706,5.9812z" fill="#6D6E71"/>
    <path d="M11.5912,5.5977L10.129,1.1319c-0.1031,-0.3149,0.0686,-0.6538,0.3835,-0.7569l0,0c0.3149,-0.1031,0.6538,0.0686,0.7569,0.3835l1.4622,4.4658c0.1031,0.3149,-0.0686,0.6538,-0.3835,0.7569l0,0C12.0332,6.0844,11.6943,5.9127,11.5912,5.5977z" fill="#6D6E71"/>
  </g>
</svg>
