<?xml version="1.0" encoding="UTF-8"?>
<!DOCTYPE svg PUBLIC "-//W3C//DTD SVG 1.1//EN" "http://www.w3.org/Graphics/SVG/1.1/DTD/svg11.dtd">
<svg version="1.1" id="Layer_1" xmlns="http://www.w3.org/2000/svg" xmlns:xlink="http://www.w3.org/1999/xlink" x="0px" y="0px" width="16px" height="16px" viewBox="0 0 16 16" enable-background="new 0 0 16 16" xml:space="preserve">
  <g id="icon">
    <path d="M5.9938,12.3C6.8256,12.3,7.5,12.9751,7.5,13.8078s-0.6744,1.5078,-1.5062,1.5078s-1.5062,-0.6751,-1.5062,-1.5078S5.1619,12.3,5.9938,12.3zM10.4875,13.8078c0,0.8327,0.6744,1.5078,1.5062,1.5078S13.5,14.6406,13.5,13.8078S12.8256,12.3,11.9938,12.3S10.4875,12.9751,10.4875,13.8078z" fill="#FFFFFF" opacity="0.5"/>
    <path d="M11.9938,15.9156c-1.1614,0,-2.1063,-0.9456,-2.1063,-2.1078S10.8324,11.7,11.9938,11.7S14.1,12.6456,14.1,13.8078S13.1551,15.9156,11.9938,15.9156zM11.9938,12.9c-0.4997,0,-0.9063,0.4072,-0.9063,0.9078s0.4065,0.9078,0.9063,0.9078s0.9063,-0.4072,0.9063,-0.9078S12.4935,12.9,11.9938,12.9zM5.9938,15.9156c-1.1614,0,-2.1063,-0.9456,-2.1063,-2.1078S4.8324,11.7,5.9938,11.7S8.1,12.6456,8.1,13.8078S7.1551,15.9156,5.9938,15.9156zM5.9938,12.9c-0.4997,0,-0.9063,0.4072,-0.9063,0.9078s0.4065,0.9078,0.9063,0.9078S6.9,14.3084,6.9,13.8078S6.4935,12.9,5.9938,12.9z" fill="#6D6E71"/>
    <path d="M15.546,6.1341c-0.1427,-0.0926,-0.3127,-0.1341,-0.4828,-0.1341H11.3v2.9893c0,0.4543,-0.3683,0.8226,-0.8226,0.8226H8.6369c-0.5174,0,-0.9369,-0.4195,-0.9369,-0.9369V6H4.2l-0.7228,-2.0323C3.3203,3.3961,2.8007,3,2.208,3H0v1h2.208c0.142,0,0.2674,0.0956,0.305,0.2325L4.6462,12h9.0291l2.2181,-4.8454C16.0257,6.7883,15.8985,6.3628,15.546,6.1341z" fill="#6485C3"/>
    <polygon points="9.5,0.1031 6.3582,3.2052 7.0608,3.9168 9,2.0021 9,8.5119 10,8.5119 10,2.0021 11.9392,3.9168 12.6418,3.2052" fill="#CB525D" stroke-linejoin="miter"/>
  </g>
</svg>
