<?xml version="1.0" encoding="UTF-8"?>
<!DOCTYPE svg PUBLIC "-//W3C//DTD SVG 1.1//EN" "http://www.w3.org/Graphics/SVG/1.1/DTD/svg11.dtd">
<svg version="1.1" id="Layer_1" xmlns="http://www.w3.org/2000/svg" xmlns:xlink="http://www.w3.org/1999/xlink" x="0px" y="0px" width="32px" height="32px" viewBox="0 0 32 32" enable-background="new 0 0 32 32" xml:space="preserve">
  <g id="icon">
    <circle cx="16" cy="16" r="13.5" fill="#FFFFFF" stroke="#ED8730" stroke-width="1.1" stroke-miterlimit="1"/>
    <path d="M15.849,24.001c-0.313,0,-0.597,-0.013,-0.799,-0.036c-1.725,-0.2,-3.265,-0.877,-4.579,-2.012c-1.02,-0.879,-1.867,-2.13,-2.325,-3.432c-0.049,-0.143,-0.31,-1.07,-0.619,-2.221l-0.005,-0.018c-0.606,-2.259,-0.606,-2.259,-0.771,-2.671l-0.007,-0.016c-0.558,-1.383,-1.444,-2.47,-2.71,-3.323c-0.042,-0.028,-0.08,-0.053,-0.115,-0.076c0.114,-0.242,0.312,-0.624,0.522,-0.978c0.282,0.18,0.688,0.46,0.844,0.586c1.226,0.986,2.171,2.358,2.663,3.864c0.032,0.093,0.234,0.822,0.607,2.214c0.544,2.033,0.616,2.269,0.854,2.806c0.853,1.938,2.689,3.472,4.792,4.003c0.609,0.152,0.963,0.191,1.723,0.191c0.8,0,1.142,-0.041,1.828,-0.222c1.745,-0.454,3.204,-1.519,4.219,-3.079c0.349,-0.537,0.73,-1.41,0.906,-2.076c0.182,-0.689,0.26,-1.678,0.19,-2.405c-0.056,-0.587,-0.135,-0.937,-0.655,-2.88c-0.716,-2.663,-0.736,-2.796,-0.767,-3.724c-0.031,-0.996,0.107,-1.92,0.435,-2.908c0.102,-0.304,0.362,-0.91,0.454,-1.075c0.02,-0.036,0.054,-0.097,0.091,-0.165c0.007,0.004,0.015,0.008,0.022,0.013c0.185,0.108,0.537,0.326,0.761,0.476l0.157,0.104l-0.072,0.146c-0.359,0.723,-0.586,1.459,-0.693,2.252c-0.054,0.391,-0.056,1.43,-0.003,1.821c0.074,0.501,0.135,0.754,0.659,2.713c0.714,2.667,0.728,2.739,0.728,3.892c0,0.673,-0.012,0.82,-0.064,1.158c-0.207,1.295,-0.626,2.363,-1.357,3.462c-0.317,0.476,-0.532,0.739,-0.959,1.175c-1.235,1.259,-2.851,2.076,-4.673,2.363C16.826,23.971,16.334,24.001,15.849,24.001z" fill="#ED8730"/>
  </g>
</svg>
