<?xml version="1.0" encoding="UTF-8"?>
<!DOCTYPE svg PUBLIC "-//W3C//DTD SVG 1.1//EN" "http://www.w3.org/Graphics/SVG/1.1/DTD/svg11.dtd">
<svg version="1.1" id="Layer_1" xmlns="http://www.w3.org/2000/svg" xmlns:xlink="http://www.w3.org/1999/xlink" x="0px" y="0px" width="32px" height="32px" viewBox="0 0 32 32" enable-background="new 0 0 32 32" xml:space="preserve">
  <g id="icon">
    <path d="M21.5,4.5H9.5V0.5h12V4.5zM22.5,27.5H8.5v4h14V27.5z" fill="#C8C6C4" stroke="#383838" stroke-width="1" stroke-linecap="round" stroke-miterlimit="1"/>
    <path d="M25.004,27.5H5.996C4.618,27.5,3.5,26.382,3.5,25.004V6.996C3.5,5.618,4.618,4.5,5.996,4.5h19.007C26.382,4.5,27.5,5.618,27.5,6.996v18.007C27.5,26.382,26.382,27.5,25.004,27.5z" fill="#FFFFFF"/>
    <path d="M25.004,27.5H5.996C4.618,27.5,3.5,26.382,3.5,25.004V6.996C3.5,5.618,4.618,4.5,5.996,4.5h19.007C26.382,4.5,27.5,5.618,27.5,6.996v18.007C27.5,26.382,26.382,27.5,25.004,27.5z" fill="#C8C6C4" opacity="0.4"/>
    <path d="M25.004,27.5H5.996C4.618,27.5,3.5,26.382,3.5,25.004V6.996C3.5,5.618,4.618,4.5,5.996,4.5h19.007C26.382,4.5,27.5,5.618,27.5,6.996v18.007C27.5,26.382,26.382,27.5,25.004,27.5z" fill="none" stroke="#383838" stroke-width="1" stroke-miterlimit="1"/>
    <path d="M28.883,13.5H27.5V8.5h1.383c0.341,0,0.617,0.276,0.617,0.617v3.767C29.5,13.224,29.224,13.5,28.883,13.5z" fill="#C8C6C4" stroke="#383838" stroke-width="1" stroke-linecap="round" stroke-miterlimit="1"/>
    <path d="M28.883,23.5H27.5v-5h1.383c0.341,0,0.617,0.276,0.617,0.617v3.767C29.5,23.224,29.224,23.5,28.883,23.5z" fill="#C8C6C4" stroke="#383838" stroke-width="1" stroke-linecap="round" stroke-miterlimit="1"/>
    <path d="M23,13.399c0,-4.294,-4.914,-6.153,-7.5,-2.222c-2.586,-3.931,-7.5,-2.072,-7.5,2.222c0,5.002,7.5,10.102,7.5,10.102S23,18.401,23,13.399z" fill="#B2DBB4" stroke="#009949" stroke-width="1" stroke-miterlimit="1"/>
  </g>
</svg>
