<?xml version="1.0" encoding="UTF-8"?>
<!DOCTYPE svg PUBLIC "-//W3C//DTD SVG 1.1//EN" "http://www.w3.org/Graphics/SVG/1.1/DTD/svg11.dtd">
<svg version="1.1" id="Layer_1" xmlns="http://www.w3.org/2000/svg" xmlns:xlink="http://www.w3.org/1999/xlink" x="0px" y="0px" width="32px" height="32px" viewBox="0 0 32 32" enable-background="new 0 0 32 32" xml:space="preserve">
  <g id="icon">
    <rect x="1.5" y="6.5" width="29" height="19" fill="#FFFFFF" stroke="#383838" stroke-width="1" stroke-miterlimit="1"/>
    <path d="M17,15h-2v-1h2V15zM17,17h-2v1h2V17z" fill="#383838"/>
    <path d="M5.4,13.098c0.054,-1.013,0.598,-2.602,3.053,-2.602c2.604,0,3.058,1.787,3.058,2.779c0,1.413,-1.094,2.416,-3.035,2.726h-0.497M5.4,18.898C5.454,19.912,5.998,21.5,8.453,21.5c2.604,0,3.058,-1.787,3.058,-2.779c0,-1.285,-1.086,-2.412,-3.035,-2.72h-0.497" fill="none" stroke="#228BCB" stroke-width="1.1" stroke-miterlimit="1"/>
    <path d="M23.556,10.5c-2.602,0,-3.056,2.462,-3.056,5.5s0.454,5.5,3.056,5.5c2.601,0,3.056,-2.462,3.056,-5.5S26.157,10.5,23.556,10.5z" fill="none" stroke="#228BCB" stroke-width="1.1" stroke-miterlimit="1"/>
  </g>
</svg>
