<?xml version="1.0" encoding="UTF-8"?>
<!DOCTYPE svg PUBLIC "-//W3C//DTD SVG 1.1//EN" "http://www.w3.org/Graphics/SVG/1.1/DTD/svg11.dtd">
<svg version="1.1" id="Layer_1" xmlns="http://www.w3.org/2000/svg" xmlns:xlink="http://www.w3.org/1999/xlink" x="0px" y="0px" width="32px" height="32px" viewBox="0 0 32 32" enable-background="new 0 0 32 32" xml:space="preserve">
  <g id="icon">
    <g>
      <path d="M7.328,7.35c0.147,0.039,0.361,0.062,0.588,0.062c0.223,0,0.443,-0.022,0.6,-0.06c0.803,-0.199,1.44,-0.766,1.746,-1.557c0.307,-0.791,0.213,-1.679,-0.251,-2.375c-0.342,-0.513,-0.864,-0.888,-1.474,-1.056c-0.126,-0.037,-0.442,-0.066,-0.72,-0.066c-0.127,0,-0.235,0.006,-0.296,0.018c-0.936,0.168,-1.695,0.84,-1.982,1.756c-0.287,0.904,-0.056,1.891,0.604,2.576C6.461,6.982,6.881,7.231,7.328,7.35z" fill="#FFFFFF"/>
      <path d="M5.575,18.242c0.083,0.367,0.265,1.127,0.514,1.731c0.316,-0.043,0.654,-0.09,0.995,-0.136c2.013,-0.273,2.564,-0.339,2.761,-0.356l0,0l0.002,0c0.136,-0.014,1.265,-0.17,3.018,-0.424c-0.978,-0.518,-2.011,-1.085,-2.042,-1.106l0.006,0.005c-0.078,-0.057,-0.078,-0.057,-0.184,-0.907c-0.035,-0.284,-0.098,-0.793,-0.105,-0.896c-0.002,-0.026,-0.008,-0.106,0.06,-0.172l0.058,-0.057h0.07c0.024,-0.003,0.089,-0.011,0.188,-0.023c0.33,-0.04,1.033,-0.124,1.839,-0.219c0.492,-0.059,1.988,-0.239,2.138,-0.288c0.419,-0.156,0.694,-0.52,0.72,-0.952c0.018,-0.246,-0.016,-0.413,-0.124,-0.614c-0.094,-0.173,-0.34,-0.402,-0.522,-0.483c-0.144,-0.065,-0.198,-0.089,-0.381,-0.089c-0.278,0,-0.812,0.064,-1.981,0.204l-0.046,0.005c-0.687,0.083,-2,0.239,-2.073,0.239h-0.249l-0.199,-1.635c-0.11,-0.917,-0.095,-1.047,-0.114,-1.129c-0.1,-0.476,-0.323,-0.895,-0.664,-1.246c-0.449,-0.458,-0.972,-0.717,-1.605,-0.791c-0.138,-0.016,-0.208,-0.025,-0.272,-0.025c-0.065,0,-0.141,0.008,-0.296,0.025c-1.243,0.139,-2.225,1.177,-2.284,2.416c-0.014,0.283,-0.076,0.136,0.308,3.275C5.349,16.545,5.552,18.129,5.575,18.242z" fill="#FFFFFF"/>
    </g>
    <path d="M7.199,7.833c0.19,0.051,0.445,0.079,0.718,0.079c0.265,0,0.519,-0.026,0.721,-0.074c0.964,-0.239,1.726,-0.917,2.092,-1.861c0.366,-0.943,0.253,-2.002,-0.301,-2.833c-0.408,-0.613,-1.032,-1.061,-1.75,-1.258c-0.202,-0.059,-0.587,-0.086,-0.86,-0.086c-0.163,0,-0.293,0.009,-0.384,0.026c-1.12,0.201,-2.028,1.005,-2.371,2.097c-0.342,1.08,-0.066,2.258,0.719,3.072C6.161,7.393,6.665,7.691,7.199,7.833zM6.017,4.223c0.231,-0.737,0.842,-1.279,1.596,-1.414c0.015,-0.003,0.082,-0.009,0.205,-0.009c0.271,0,0.522,0.03,0.587,0.048c0.493,0.136,0.915,0.438,1.191,0.851c0.374,0.56,0.449,1.277,0.201,1.916C9.55,6.251,9.04,6.708,8.4,6.866c-0.12,0.029,-0.301,0.046,-0.484,0.046c-0.215,0,-0.378,-0.023,-0.46,-0.045c-0.359,-0.096,-0.696,-0.295,-0.952,-0.564C5.972,5.751,5.785,4.955,6.017,4.223zM4.615,14.655c-0.397,-3.243,-0.328,-3.031,-0.311,-3.36c0.07,-1.48,1.243,-2.722,2.727,-2.888c0.173,-0.019,0.259,-0.028,0.351,-0.028c0.094,0,0.177,0.01,0.33,0.028c0.75,0.088,1.373,0.395,1.904,0.938c0.41,0.421,0.677,0.923,0.796,1.493c0.04,0.177,0.103,1.02,0.121,1.172l0.143,1.174c0.374,-0.041,1.153,-0.133,1.822,-0.214l0.046,-0.006c1.225,-0.147,1.732,-0.207,2.04,-0.207c0.277,0,0.403,0.05,0.586,0.133c0.278,0.124,0.611,0.432,0.757,0.701c0.153,0.284,0.208,0.55,0.183,0.889c-0.037,0.625,-0.437,1.158,-1.044,1.384l-0.02,0.007c-0.103,0.034,-0.352,0.082,-2.233,0.309c-0.738,0.087,-1.388,0.165,-1.746,0.208c0.019,0.159,0.044,0.372,0.073,0.6c0.034,0.276,0.061,0.488,0.08,0.614c0.418,0.232,1.607,0.877,2.487,1.333l-0.157,0.023c-0.561,0.082,-1.07,0.156,-1.521,0.22c-0.793,-0.426,-1.472,-0.803,-1.483,-0.811l0.105,-0.157l-0.116,0.15c-0.253,-0.184,-0.263,-0.265,-0.386,-1.249c-0.016,-0.13,-0.098,-0.785,-0.107,-0.923c-0.021,-0.295,0.123,-0.481,0.21,-0.566l0.204,-0.198h0.243l0.208,-0.025c0.348,-0.042,1.022,-0.123,1.79,-0.213c1.527,-0.184,1.94,-0.247,2.045,-0.268c0.221,-0.091,0.359,-0.278,0.373,-0.504c0.013,-0.173,-0.009,-0.243,-0.065,-0.347c-0.042,-0.077,-0.205,-0.228,-0.286,-0.264c-0.101,-0.045,-0.101,-0.045,-0.178,-0.045c-0.249,0,-0.808,0.067,-1.921,0.2l-0.046,0.005c-0.6,0.073,-2.012,0.242,-2.132,0.242h-0.692l-0.253,-2.075c-0.114,-0.944,-0.09,-1.003,-0.106,-1.084c-0.081,-0.385,-0.26,-0.721,-0.534,-1.003c-0.369,-0.377,-0.784,-0.582,-1.305,-0.643c-0.112,-0.013,-0.179,-0.021,-0.214,-0.021c-0.038,0,-0.115,0.008,-0.241,0.022c-1,0.112,-1.791,0.947,-1.838,1.942c-0.012,0.24,-0.066,0.154,0.305,3.19c0.241,1.985,0.43,3.449,0.457,3.608c0.194,0.855,0.383,1.415,0.538,1.761c-0.365,0.05,-0.715,0.098,-1.023,0.141c-0.156,-0.4,-0.324,-0.944,-0.493,-1.691C5.052,18.182,4.816,16.303,4.615,14.655z" fill="#228BCB"/>
    <path d="M3.072,25.727c0.481,-1.17,1.617,-4.023,1.636,-4.04c0.022,-0.022,5.099,-0.711,5.255,-0.711c0.078,0,1.787,-0.241,3.804,-0.535l3.665,-0.535l0.522,-1.47c0.289,-0.811,0.592,-1.665,0.678,-1.897l0.15,-0.424l-0.878,-1.292c-0.484,-0.711,-0.9,-1.343,-0.931,-1.405c-0.164,-0.357,-0.031,-0.889,0.275,-1.1c0.069,-0.046,0.164,-0.097,0.211,-0.116c0.197,-0.07,0.478,-0.027,0.656,0.103c0.047,0.032,0.62,0.846,1.309,1.846l1.223,1.789l4.799,2.767c2.64,1.524,4.841,2.802,4.888,2.843c0.142,0.122,0.214,0.322,0.2,0.549c-0.019,0.265,-0.122,0.465,-0.361,0.695c-0.975,0.938,-3.66,2.197,-6.939,3.256l-2.052,0.643c-0.266,-0.241,-0.528,-0.438,-0.785,-0.586c-0.513,-0.302,-0.936,-0.361,-1.493,-0.361c-1.501,0,-2.326,0.864,-3.041,1.749c-0.557,0.687,-0.725,0.705,-0.806,0.706c-0.082,0,-0.292,-0.018,-0.903,-0.774c-0.452,-0.559,-1,-1.044,-1.503,-1.33c-0.512,-0.291,-0.953,-0.351,-1.451,-0.351l-0.074,0c-0.769,0,-1.315,0.191,-1.953,0.688c-0.103,0.081,-0.153,0.119,-0.172,0.133l-0.1,0.071l-0.024,0.02c-0.162,0.132,-0.25,0.239,-0.74,0.835c-0.362,0.445,-0.539,0.599,-0.624,0.65c-0.018,0.011,-0.035,0.021,-0.201,0.021c-0.173,0,-0.277,0,-0.838,-0.664c-0.612,-0.728,-1.138,-1.19,-1.649,-1.452c-0.497,-0.257,-1.249,-0.325,-1.578,-0.325C3.186,25.721,3.128,25.724,3.072,25.727z" fill="#FFFFFF"/>
    <path d="M2.581,25.818c0.196,-0.066,0.408,-0.097,0.666,-0.097c0.092,0,0.217,0.006,0.36,0.019c0.032,-0.078,0.066,-0.162,0.102,-0.249c0.22,-0.541,0.502,-1.242,0.76,-1.884c0.229,-0.57,0.464,-1.154,0.593,-1.47c1.016,-0.149,4.676,-0.643,4.925,-0.661c-0.011,0.001,-0.019,0.001,-0.024,0.001c0.159,0,2.764,-0.378,3.876,-0.54l3.963,-0.579l0.838,-2.357c0.213,-0.599,0.397,-1.116,0.463,-1.295l0.234,-0.663l-1.02,-1.501c-0.459,-0.674,-0.823,-1.227,-0.896,-1.347c-0.055,-0.146,0.016,-0.4,0.103,-0.459c0.039,-0.026,0.088,-0.053,0.112,-0.064c0.034,-0.007,0.102,0,0.151,0.02c0.111,0.146,0.457,0.628,1.225,1.742l1.287,1.883l4.898,2.824c2.852,1.647,4.535,2.627,4.82,2.8c0.01,0.018,0.024,0.058,0.02,0.122c-0.008,0.103,-0.028,0.196,-0.209,0.371c-0.915,0.88,-3.563,2.113,-6.742,3.14l-2.369,0.742c0.285,0.204,0.576,0.463,0.869,0.776l1.803,-0.565c3.367,-1.088,6.1,-2.38,7.132,-3.372c0.326,-0.314,0.485,-0.628,0.514,-1.025c0.024,-0.385,-0.113,-0.735,-0.374,-0.959c-0.044,-0.038,-0.11,-0.094,-4.964,-2.897l-4.7,-2.71l-1.16,-1.697c-1.268,-1.839,-1.341,-1.908,-1.432,-1.971c-0.313,-0.224,-0.758,-0.291,-1.112,-0.165l-0.018,0.007c-0.094,0.038,-0.222,0.111,-0.309,0.169c-0.509,0.351,-0.713,1.139,-0.446,1.72l0.006,0.012c0.079,0.16,0.957,1.453,0.966,1.466l0.736,1.083l-0.063,0.179c-0.066,0.178,-0.251,0.698,-0.465,1.3l-0.637,1.79l-3.367,0.492c-2.072,0.303,-3.618,0.519,-3.761,0.531c0.014,-0.001,0.023,-0.001,0.029,-0.001c-0.041,0,-0.148,0,-2.745,0.352c-0.647,0.088,-1.289,0.176,-1.771,0.244c-0.937,0.132,-0.962,0.135,-1.078,0.247c-0.091,0.081,-0.119,0.15,-0.829,1.915c-0.362,0.899,-0.884,2.197,-1.063,2.621C2.512,25.843,2.547,25.83,2.581,25.818z" fill="#383838"/>
    <path d="M15.07,30.1c-0.885,0,-1.599,-0.439,-2.469,-1.516c-0.288,-0.356,-0.656,-0.689,-0.938,-0.85c-0.112,-0.064,-0.169,-0.089,-0.473,-0.089l-0.067,0c-0.325,0,-0.425,0.036,-0.712,0.259c-0.14,0.11,-0.218,0.169,-0.266,0.203c-0.07,0.078,-0.275,0.327,-0.457,0.549c-0.791,0.972,-1.322,1.406,-2.374,1.406c-1.02,0,-1.597,-0.463,-2.368,-1.376c-0.528,-0.627,-0.854,-0.869,-1.036,-0.962c-0.076,-0.035,-0.41,-0.103,-0.661,-0.103c-0.027,0,-0.045,0.001,-0.056,0.002c-0.373,0.132,-0.738,0.426,-1.148,0.922c-0.081,0.097,-0.353,0.419,-0.508,0.56l-0.672,-0.741c0.056,-0.051,0.219,-0.229,0.41,-0.458c0.542,-0.656,1.059,-1.05,1.625,-1.24c0.091,-0.031,0.202,-0.045,0.348,-0.045c0.339,0,0.863,0.082,1.118,0.213c0.387,0.198,0.827,0.593,1.343,1.207c0.731,0.866,1.056,1.02,1.603,1.02c0.547,0,0.827,-0.09,1.6,-1.04c0.448,-0.544,0.517,-0.627,0.596,-0.691l0.051,-0.036c0.003,-0.002,0.051,-0.034,0.234,-0.179c0.461,-0.358,0.784,-0.472,1.333,-0.472l0.067,0c0.381,0,0.637,0.034,0.964,0.22c0.393,0.224,0.849,0.631,1.221,1.09c0.77,0.954,1.216,1.145,1.686,1.145c0.459,-0.005,0.849,-0.179,1.577,-1.077c0.739,-0.914,1.293,-1.378,2.264,-1.378c0.419,0,0.661,0.032,0.986,0.223c0.406,0.235,0.844,0.634,1.297,1.183c0.351,0.426,0.696,0.735,1.025,0.919c0.084,0.049,0.296,0.097,0.578,0.097c0.319,0,0.513,-0.058,0.578,-0.093c0.323,-0.17,0.623,-0.455,1.073,-1.018c0.689,-0.851,1.241,-1.312,2.19,-1.312l0.03,0c0.451,0,0.679,0.052,0.973,0.221c0.395,0.23,0.774,0.564,1.161,1.024c0.343,0.409,0.518,0.557,0.895,0.758c0.35,0.188,0.912,0.369,1.146,0.393l-0.104,0.995c-0.385,-0.04,-1.079,-0.272,-1.514,-0.506c-0.488,-0.26,-0.766,-0.493,-1.188,-0.996c-0.311,-0.37,-0.604,-0.632,-0.896,-0.802c-0.103,-0.059,-0.15,-0.087,-0.474,-0.087l-0.03,0c-0.458,0,-0.756,0.13,-1.409,0.938c-0.542,0.678,-0.931,1.037,-1.385,1.275c-0.34,0.182,-0.802,0.209,-1.046,0.209c-0.31,0,-0.748,-0.039,-1.073,-0.227c-0.431,-0.241,-0.872,-0.629,-1.302,-1.152c-0.372,-0.451,-0.729,-0.782,-1.03,-0.956c-0.111,-0.065,-0.148,-0.087,-0.482,-0.087c-0.457,0,-0.753,0.099,-1.487,1.007C16.701,29.538,16.058,30.089,15.07,30.1zM3.217,27.615c-0.004,0.001,-0.008,0.003,-0.012,0.004C3.21,27.617,3.214,27.616,3.217,27.615z" fill="#238BCB"/>
  </g>
</svg>
