<?xml version="1.0" encoding="UTF-8"?>
<!DOCTYPE svg PUBLIC "-//W3C//DTD SVG 1.1//EN" "http://www.w3.org/Graphics/SVG/1.1/DTD/svg11.dtd">
<svg version="1.1" id="Layer_1" xmlns="http://www.w3.org/2000/svg" xmlns:xlink="http://www.w3.org/1999/xlink" x="0px" y="0px" width="32px" height="32px" viewBox="0 0 32 32" enable-background="new 0 0 32 32" xml:space="preserve">
  <g id="icon">
    <g>
      <path d="M12.843,7.986c0.002,0.001,0.004,0.002,0.007,0.003c0,0,0,0,0,0C12.85,7.988,12.847,7.987,12.843,7.986z" fill="#FFFFFF"/>
      <path d="M18.557,3.573c-0.262,-0.974,-1.03,-1.739,-2.004,-1.996c-0.188,-0.05,-0.484,-0.081,-0.773,-0.081c-0.199,0,-0.375,0.015,-0.493,0.041c-0.574,0.13,-1.038,0.375,-1.416,0.751c-0.538,0.533,-0.823,1.22,-0.823,1.987c0,0.632,0.185,1.186,0.565,1.695c0.385,0.514,0.902,1.248,1.581,1.427c0.213,0.057,0.296,0.066,0.638,0.069c0.359,0,0.429,-0.007,0.679,-0.07c1.029,-0.258,1.798,-1.421,2.059,-2.448c0.047,-0.185,0.058,-0.275,0.056,-0.674C18.626,3.853,18.618,3.794,18.557,3.573z" fill="#FFFFFF"/>
      <path d="M14.326,23.346l-1.842,-5.513l0.185,-0.307c0.48,-0.818,1.358,-2.437,1.842,-3.396c0.738,-1.464,1.142,-2.417,1.31,-3.09c0.093,-0.375,0.099,-0.899,0.013,-1.194c-0.074,-0.256,-0.153,-0.413,-0.325,-0.643c-0.158,-0.207,-0.326,-0.349,-0.642,-0.541c-0.325,-0.195,-0.724,-0.342,-1.378,-0.506c-0.474,-0.117,-0.599,-0.154,-0.637,-0.167c-0.07,-0.022,-0.581,-0.111,-0.769,-0.133c-0.021,-0.002,-0.046,-0.003,-0.073,-0.003c-0.06,0,-0.127,0.005,-0.161,0.011c-0.047,0.01,-0.118,0.015,-0.237,0.015c-0.223,0,-0.633,-0.015,-1.462,-0.055c-1.544,-0.073,-1.55,-0.076,-1.595,-0.098l-0.028,-0.014l-0.022,-0.022c-0.103,-0.103,-0.049,-0.205,0.018,-0.333c0.035,-0.067,0.087,-0.164,0.152,-0.284c0.128,-0.237,0.306,-0.563,0.502,-0.922c0.238,-0.433,0.629,-1.06,0.897,-1.502c-0.216,-0.048,-0.461,-0.103,-0.743,-0.167c-0.52,-0.118,-1.107,-0.252,-1.557,-0.356C7.01,5.322,5.11,8.374,4.986,8.618c-0.032,0.137,-0.023,0.416,0.019,0.564c0.132,0.457,0.508,0.821,0.98,0.948c0.081,0.019,0.795,0.101,1.924,0.204c1.589,0.149,1.817,0.17,1.888,0.212l-0.001,-0.001c0.001,0,0.001,0.001,0.002,0.001c0.005,0.003,0.01,0.006,0.014,0.01c0.106,0.082,0.076,0.183,0.006,0.414c-0.038,0.127,-0.093,0.3,-0.156,0.49c-0.254,0.767,-0.479,1.524,-0.861,2.892c-0.088,0.32,-0.191,0.69,-0.276,0.996c-0.056,0.201,-0.104,0.375,-0.136,0.49c-0.114,0.397,-0.485,1.416,-1.324,3.635L5.89,22.586l-1.455,2.626c-0.73,1.317,-1.5,2.702,-1.573,2.826c-0.275,0.475,-0.359,0.952,-0.237,1.343c0.121,0.388,0.514,0.7,1.004,0.795c0.096,0.019,0.149,0.028,0.19,0.028c0.042,0,0.09,-0.009,0.183,-0.03c0.111,-0.023,0.255,-0.072,0.312,-0.102c0.156,-0.077,0.379,-0.253,0.485,-0.383c0.192,-0.241,3.582,-5.343,3.767,-5.669c0.097,-0.293,0.419,-0.881,0.866,-1.579c0.139,-0.218,0.46,-0.721,0.473,-0.741l0.051,-0.098h0.118c0.135,0,0.135,0,0.733,1.212l0.555,1.121l1.066,2.776c0.589,1.544,1.087,2.824,1.122,2.901c0.232,0.511,0.723,0.842,1.252,0.845c0.07,0,0.228,-0.021,0.337,-0.05c0.674,-0.173,1.051,-0.703,1.009,-1.418C16.132,28.757,16.064,28.546,14.326,23.346z" fill="#FFFFFF"/>
    </g>
    <path d="M16.642,28.959c0.056,0.959,-0.473,1.698,-1.381,1.93c-0.141,0.037,-0.34,0.065,-0.461,0.065h-0.003c-0.722,-0.004,-1.39,-0.45,-1.701,-1.136c-0.049,-0.109,-0.591,-1.508,-1.134,-2.93l-1.057,-2.754l-0.544,-1.1c-0.123,-0.25,-0.229,-0.465,-0.314,-0.635l-0.197,0.308c-0.501,0.783,-0.751,1.279,-0.813,1.467l-0.015,0.047l-0.024,0.043c-0.194,0.341,-3.613,5.485,-3.811,5.734c-0.153,0.188,-0.43,0.408,-0.649,0.517c-0.117,0.06,-0.306,0.117,-0.434,0.144c-0.104,0.023,-0.189,0.04,-0.284,0.04c-0.09,0,-0.175,-0.015,-0.285,-0.037c-0.666,-0.13,-1.208,-0.575,-1.382,-1.135c-0.164,-0.525,-0.064,-1.143,0.281,-1.74c0.061,-0.104,0.705,-1.262,1.568,-2.818l1.437,-2.594l1.163,-3.079c0.823,-2.177,1.203,-3.219,1.311,-3.596c0.028,-0.103,0.073,-0.263,0.125,-0.449l0.018,-0.065c0.083,-0.3,0.182,-0.656,0.267,-0.966c0.385,-1.379,0.612,-2.142,0.868,-2.916c0.04,-0.122,0.077,-0.238,0.109,-0.338c-0.28,-0.029,-0.745,-0.073,-1.438,-0.138c-0.849,-0.078,-1.834,-0.179,-1.99,-0.215l-0.016,-0.004c-0.639,-0.172,-1.148,-0.666,-1.328,-1.289c-0.065,-0.231,-0.077,-0.595,-0.026,-0.814l0.014,-0.059l0.027,-0.054c0.085,-0.168,1.869,-3.053,2.715,-4.389c0.227,0.054,0.605,0.142,1.027,0.238c-0.562,0.896,-2.55,4.055,-2.822,4.534c-0.004,0.08,0.002,0.213,0.018,0.27c0.082,0.284,0.317,0.513,0.615,0.6c0.124,0.02,0.761,0.093,1.856,0.194c1.927,0.181,1.927,0.181,2.092,0.277l-0.185,0.317l0.018,-0.024l0.174,-0.29c0.011,0.006,0.021,0.013,0.031,0.02l0.002,0.001c0.013,0.009,0.025,0.018,0.037,0.028c0.368,0.29,0.249,0.683,0.17,0.944c-0.039,0.13,-0.095,0.307,-0.159,0.501c-0.251,0.759,-0.475,1.51,-0.854,2.87c-0.085,0.309,-0.184,0.667,-0.268,0.968l-0.018,0.065c-0.051,0.185,-0.096,0.344,-0.125,0.451c-0.121,0.421,-0.483,1.417,-1.339,3.679l-1.189,3.146l-1.472,2.657c-0.679,1.224,-1.499,2.701,-1.578,2.837c-0.201,0.346,-0.271,0.691,-0.192,0.945c0.065,0.21,0.322,0.397,0.625,0.456c0.043,0.009,0.074,0.014,0.093,0.017c0.016,-0.003,0.042,-0.009,0.078,-0.016c0.077,-0.016,0.169,-0.048,0.196,-0.06c0.095,-0.047,0.262,-0.179,0.323,-0.253c0.201,-0.261,3.372,-5.033,3.7,-5.566c0.17,-0.465,0.633,-1.218,0.9,-1.636l0.336,-0.526c0.057,-0.089,0.103,-0.162,0.124,-0.194l0.179,-0.347h0.42c0.336,0,0.501,0.198,0.617,0.391c0.103,0.17,0.246,0.461,0.56,1.098l0.573,1.162l1.066,2.776c0.601,1.575,1.074,2.789,1.113,2.88c0.149,0.327,0.462,0.545,0.797,0.548c0.035,-0.001,0.143,-0.016,0.212,-0.034c0.565,-0.145,0.659,-0.574,0.64,-0.909c-0.011,-0.17,-0.265,-0.935,-1.796,-5.517l-1.915,-5.73l0.303,-0.503c0.473,-0.805,1.343,-2.411,1.824,-3.364c0.72,-1.43,1.113,-2.351,1.272,-2.987c0.078,-0.316,0.072,-0.747,0.018,-0.935c-0.057,-0.198,-0.11,-0.302,-0.246,-0.484c-0.1,-0.13,-0.211,-0.236,-0.504,-0.416c-0.277,-0.166,-0.637,-0.297,-1.24,-0.448c-0.449,-0.111,-0.595,-0.152,-0.657,-0.172l-0.008,-0.002c-0.106,-0.023,-0.518,-0.096,-0.677,-0.114c0,0,-0.009,0,-0.016,0c-0.03,0,-0.062,0.002,-0.076,0.004c-0.081,0.016,-0.174,0.022,-0.322,0.022c-0.232,0,-0.648,-0.016,-1.486,-0.056c-1.648,-0.078,-1.648,-0.078,-1.793,-0.15l-0.101,-0.051l-0.079,-0.079c-0.36,-0.361,-0.142,-0.777,-0.07,-0.914c0.036,-0.069,0.089,-0.168,0.155,-0.289c0.128,-0.238,0.306,-0.564,0.503,-0.924c0.131,-0.238,0.682,-1.065,0.863,-1.369c0.4,0.09,0.718,0.161,0.971,0.216c-0.258,0.433,-0.658,1.072,-0.963,1.628c-0.188,0.344,-0.359,0.657,-0.485,0.891c0.254,0.013,0.608,0.03,1.046,0.051c0.81,0.039,1.227,0.055,1.439,0.055c0.103,0,0.133,-0.004,0.138,-0.005l0.013,-0.003c0.077,-0.013,0.178,-0.018,0.246,-0.018c0.044,0,0.086,0.002,0.122,0.005c0.161,0.018,0.677,0.103,0.84,0.145c0.01,0.002,0.018,0.005,0.025,0.007l-0.068,0.244l0.091,-0.236c0.007,0.002,0.099,0.031,0.588,0.152c0.706,0.177,1.144,0.34,1.514,0.563c0.372,0.228,0.583,0.408,0.78,0.665c0.212,0.283,0.318,0.493,0.408,0.808c0.11,0.377,0.106,0.988,-0.008,1.45c-0.178,0.711,-0.594,1.696,-1.348,3.194c-0.488,0.968,-1.373,2.6,-1.857,3.424l-0.07,0.115l1.77,5.296C16.623,28.652,16.623,28.658,16.642,28.959zM19.122,4.275c0.003,0.417,-0.009,0.552,-0.071,0.795c-0.306,1.207,-1.211,2.107,-2.419,2.41c-0.307,0.077,-0.425,0.085,-0.8,0.085h-0.004c-0.365,-0.003,-0.492,-0.013,-0.763,-0.086c-0.789,-0.209,-1.394,-0.605,-1.849,-1.212c-0.447,-0.598,-0.664,-1.25,-0.664,-1.993c0,-0.902,0.335,-1.711,0.97,-2.339c0.446,-0.443,0.987,-0.731,1.655,-0.882c0.197,-0.044,0.436,-0.053,0.602,-0.053c0.334,0,0.671,0.037,0.901,0.098c1.144,0.301,2.047,1.201,2.355,2.346C19.111,3.717,19.122,3.826,19.122,4.275zM18.13,4.278c0,-0.386,-0.005,-0.404,-0.051,-0.574c-0.216,-0.805,-0.849,-1.435,-1.652,-1.647c-0.122,-0.033,-0.368,-0.065,-0.647,-0.065c-0.236,0,-0.354,0.022,-0.384,0.029c-0.48,0.109,-0.865,0.311,-1.175,0.619c-0.443,0.438,-0.677,1.004,-0.677,1.635c0,0.528,0.148,0.972,0.466,1.398c0.32,0.426,0.736,0.696,1.31,0.848c0.159,0.043,0.194,0.05,0.513,0.052c0.328,0,0.356,-0.005,0.557,-0.055c0.849,-0.213,1.484,-0.845,1.698,-1.692C18.122,4.7,18.133,4.657,18.13,4.278z" fill="#228BCB"/>
    <path d="M23.982,30.787c-0.095,-0.258,-0.228,-0.799,-0.316,-1.152c-0.313,-1.268,-0.576,-2.068,-0.883,-2.662c0.113,0.05,0.224,0.092,0.316,0.121c0.289,0.091,0.585,0.137,0.879,0.137c0.404,0,0.806,-0.085,1.2,-0.255c-0.319,0.616,-0.584,1.432,-0.91,2.771C24.206,30.003,24.079,30.531,23.982,30.787zM27.744,12.784c-0.244,0,-0.466,-0.023,-0.626,-0.065c-0.432,-0.113,-0.562,-0.225,-0.633,-0.37c-0.026,-0.052,-0.034,-0.125,-0.034,-0.508v-0.025c0,-0.513,0,-0.513,0.337,-1.857l0.021,-0.084c0.13,-0.526,0.292,-1.207,0.335,-1.437l0.092,-0.473l-0.177,-0.182c-0.069,-0.072,-0.177,-0.157,-0.25,-0.196c-0.248,-0.13,-3.451,-0.911,-5.539,-1.398c-0.592,-0.139,-1.051,-0.253,-1.167,-0.284c0.001,-0.029,0.008,-0.087,0.037,-0.205c0.034,-0.145,0.076,-0.388,0.089,-0.548c0.004,-0.043,0.017,-0.181,0.03,-0.205c0.004,-0.004,0.006,-0.007,0.008,-0.009c0.001,0,0.004,0,0.005,0c0.069,0,0.236,0.035,0.415,0.075c0.106,0.022,4.092,0.873,4.092,0.873c3.4,0.727,3.404,0.731,3.631,0.921l0.018,0.015c0.413,0.343,0.85,1.142,1.041,1.9c0.187,0.741,0.258,1.78,0.19,2.779c-0.047,0.684,-0.101,0.75,-0.279,0.87c-0.127,0.087,-0.578,0.257,-0.971,0.346C28.222,12.761,27.985,12.784,27.744,12.784zM11.526,4.132c-0.197,-0.022,-1.083,-0.219,-2.021,-0.431c-1.105,-0.25,-2.13,-0.488,-2.243,-0.518c-0.267,-0.071,-0.422,-0.204,-0.519,-0.442c-0.042,-0.105,-0.031,-0.412,0.019,-0.519c0.093,-0.204,0.276,-0.361,0.477,-0.411c0.066,-0.016,0.126,-0.027,0.151,-0.03c0.131,0.022,0.979,0.208,2.238,0.495l0.022,0.005c1.32,0.299,1.987,0.45,2.167,0.526c-0.011,0.046,-0.035,0.129,-0.069,0.223c-0.104,0.285,-0.161,0.558,-0.19,0.914C11.546,4.074,11.533,4.117,11.526,4.132z" fill="#383838"/>
    <path d="M23.982,25.888c-0.951,0,-1.805,-0.537,-2.231,-1.402c-0.204,-0.416,-0.243,-0.59,-0.243,-1.094c0,-0.464,0.018,-0.563,0.172,-0.962c0.206,-0.536,0.718,-1.067,1.275,-1.322c0.168,-0.078,0.485,-0.172,0.679,-0.203c0.014,-0.002,0.074,-0.006,0.212,-0.006c0.062,0,0.131,0.001,0.199,0.003c0.666,0.013,1.181,0.228,1.668,0.698c0.331,0.318,0.559,0.715,0.697,1.214c0.068,0.244,0.062,0.926,-0.012,1.198c-0.122,0.441,-0.407,0.917,-0.727,1.21C25.204,25.652,24.603,25.888,23.982,25.888C23.982,25.888,23.982,25.888,23.982,25.888z" fill="#FFFFFF" stroke="#383838" stroke-width="1" stroke-miterlimit="1"/>
  </g>
</svg>
