<?xml version="1.0" encoding="UTF-8"?>
<!DOCTYPE svg PUBLIC "-//W3C//DTD SVG 1.1//EN" "http://www.w3.org/Graphics/SVG/1.1/DTD/svg11.dtd">
<svg version="1.1" id="Layer_1" xmlns="http://www.w3.org/2000/svg" xmlns:xlink="http://www.w3.org/1999/xlink" x="0px" y="0px" width="32px" height="32px" viewBox="0 0 32 32" enable-background="new 0 0 32 32" xml:space="preserve">
  <g id="icon">
    <path d="M16.265,28.933c-0.027,0,-0.054,-0.001,-0.081,-0.002c-0.28,-0.015,-0.481,-0.082,-0.697,-0.229c-0.266,-0.184,-0.461,-0.505,-0.534,-0.878c-0.035,-0.175,-0.067,-1.1,-0.093,-1.982c-0.026,-0.835,-0.066,-1.882,-0.101,-2.132c-0.024,-0.203,-0.064,-1.169,-0.109,-2.645l-0.07,-2.4l-0.117,-0.219c-0.215,-0.399,-0.346,-0.878,-0.37,-1.348c-0.031,-0.613,0.134,-1.156,0.464,-1.531c0.05,-0.057,0.213,-0.198,0.368,-0.309c0.933,-0.679,1.442,-1.625,1.703,-3.164l0.082,-0.486l-1.75,-1.335c-0.589,-0.449,-1.155,-0.879,-1.518,-1.155c-0.201,-0.153,-0.34,-0.259,-0.387,-0.295c-0.123,-0.092,-0.295,-0.242,-0.37,-0.324c-0.092,-0.103,-0.905,-0.944,-1.637,-1.696c-0.402,-0.415,-1.47,-1.517,-1.567,-1.672c-0.318,-0.507,-0.273,-1.049,0.121,-1.451c0.145,-0.148,0.321,-0.258,0.471,-0.296c0.074,-0.018,0.155,-0.027,0.239,-0.027c0.229,0,0.471,0.069,0.665,0.19c0.087,0.059,0.875,0.742,1.863,1.627c0.827,0.74,1.79,1.594,1.907,1.682c1.003,0.743,2.447,1.619,3.091,1.877c0.114,0.048,0.192,0.078,0.297,0.078c0.055,0,0.112,-0.009,0.175,-0.019c0.185,-0.028,0.363,-0.042,0.542,-0.042c0.25,0,0.519,0.027,0.846,0.084c0.105,0.019,0.193,0.031,0.279,0.031c0.081,0,0.151,-0.011,0.216,-0.023c0.428,-0.082,1.671,-0.477,2.829,-0.9l0.627,-0.23l2.122,-1.394c1.238,-0.814,2.127,-1.376,2.219,-1.42c0.053,-0.021,0.201,-0.061,0.313,-0.08c0.073,-0.012,0.124,-0.019,0.167,-0.019c0.044,0,0.09,0.007,0.182,0.028c0.235,0.052,0.366,0.117,0.519,0.259c0.288,0.27,0.404,0.645,0.301,0.979c-0.079,0.257,-0.264,0.488,-0.603,0.748c-0.461,0.352,-3.132,2.524,-3.284,2.671c-0.161,0.157,-0.37,0.304,-0.544,0.384l-0.053,0.025c-0.201,0.094,-0.911,0.425,-1.703,0.798l-1.743,0.813v0.226c0,0.122,-0.091,0.663,-0.177,1.005c-0.374,1.514,-1.286,3.338,-2.323,4.647c-0.252,0.322,-0.716,0.78,-0.867,0.876c-0.177,0.114,-0.211,0.173,-0.23,0.396c-0.027,0.274,-0.175,4.031,-0.252,6.273c-0.1,2.879,-0.1,2.879,-0.285,3.264C17.187,28.657,16.76,28.933,16.265,28.933z" fill="#FFFFFF"/>
    <path d="M16.265,29.4c-0.036,0,-0.073,-0.001,-0.109,-0.003c-0.364,-0.02,-0.644,-0.113,-0.933,-0.31c-0.368,-0.255,-0.633,-0.682,-0.729,-1.174c-0.03,-0.148,-0.056,-0.533,-0.102,-2.058c-0.052,-1.627,-0.085,-1.997,-0.097,-2.08l-0.001,-0.01c-0.036,-0.298,-0.085,-1.811,-0.112,-2.687l-0.067,-2.29l-0.065,-0.122c-0.247,-0.458,-0.398,-1.008,-0.424,-1.546c-0.037,-0.735,0.169,-1.396,0.58,-1.863c0.089,-0.102,0.297,-0.273,0.447,-0.381c0.833,-0.606,1.273,-1.436,1.514,-2.862l0.035,-0.207l-1.526,-1.164c-0.589,-0.449,-1.154,-0.878,-1.517,-1.154l-0.014,-0.01c-0.195,-0.148,-0.329,-0.25,-0.376,-0.286c-0.125,-0.093,-0.323,-0.263,-0.43,-0.379c-0.081,-0.091,-0.824,-0.861,-1.627,-1.686c-1.26,-1.3,-1.551,-1.626,-1.628,-1.75c-0.433,-0.69,-0.363,-1.467,0.184,-2.025c0.206,-0.21,0.458,-0.364,0.693,-0.422c0.112,-0.027,0.23,-0.041,0.351,-0.041c0.318,0,0.642,0.093,0.912,0.261l0.014,0.009c0.155,0.105,1.257,1.078,1.914,1.667c0.897,0.803,1.774,1.578,1.878,1.658c0.955,0.707,2.378,1.574,2.982,1.815c0.08,0.034,0.11,0.044,0.123,0.044c0.022,0,0.07,-0.008,0.1,-0.013c0.507,-0.078,0.931,-0.065,1.545,0.043c0.185,0.033,0.222,0.029,0.327,0.009c0.4,-0.076,1.636,-0.471,2.755,-0.88l0.576,-0.211l2.077,-1.364c0.994,-0.654,2.117,-1.376,2.273,-1.451l0.03,-0.013c0.09,-0.036,0.273,-0.084,0.408,-0.107c0.098,-0.017,0.17,-0.026,0.245,-0.026c0.094,0,0.177,0.015,0.287,0.04c0.31,0.069,0.516,0.173,0.731,0.371c0.421,0.395,0.585,0.953,0.431,1.459c-0.109,0.356,-0.344,0.658,-0.765,0.982c-0.484,0.37,-3.092,2.495,-3.247,2.639c-0.196,0.191,-0.448,0.368,-0.671,0.47l-0.05,0.024c-0.201,0.094,-0.91,0.425,-1.701,0.797l-1.478,0.689c-0.02,0.25,-0.12,0.774,-0.187,1.045c-0.389,1.573,-1.335,3.467,-2.41,4.824c-0.249,0.318,-0.752,0.834,-0.983,0.98c-0.004,0.003,-0.008,0.005,-0.011,0.007c-0.001,0.009,-0.002,0.02,-0.003,0.033c-0.024,0.25,-0.169,3.868,-0.25,6.25c-0.104,2.977,-0.104,2.977,-0.331,3.451C17.53,29.023,16.944,29.4,16.265,29.4zM15.221,23.648c0.012,0.087,0.047,0.363,0.105,2.177c0.034,1.141,0.063,1.782,0.085,1.907c0.049,0.251,0.177,0.47,0.342,0.584c0.143,0.098,0.263,0.137,0.457,0.147c0.021,0.001,0.038,0.002,0.056,0.002c0.315,0,0.579,-0.174,0.724,-0.478c0.14,-0.293,0.143,-0.298,0.24,-3.079c0.071,-2.09,0.224,-5.993,0.253,-6.301c0.03,-0.361,0.142,-0.55,0.442,-0.743c0.101,-0.068,0.521,-0.476,0.752,-0.771c1.001,-1.263,1.878,-3.018,2.238,-4.471c0.081,-0.327,0.159,-0.802,0.163,-0.898l0,-0.518l2.012,-0.939c0.791,-0.373,1.502,-0.704,1.703,-0.798l0.053,-0.025c0.128,-0.059,0.294,-0.177,0.416,-0.296c0.187,-0.18,2.906,-2.386,3.326,-2.707c0.331,-0.255,0.41,-0.415,0.44,-0.514c0.05,-0.162,-0.017,-0.355,-0.174,-0.502c-0.083,-0.077,-0.136,-0.107,-0.301,-0.144c-0.064,-0.015,-0.082,-0.017,-0.086,-0.018c-0.002,0,-0.024,0.003,-0.085,0.013c-0.068,0.012,-0.156,0.034,-0.2,0.048c-0.167,0.097,-0.963,0.6,-2.153,1.382L23.86,8.131l-0.678,0.248c-1.198,0.438,-2.445,0.834,-2.902,0.921c-0.083,0.016,-0.184,0.032,-0.303,0.032c-0.128,0,-0.249,-0.019,-0.362,-0.039c-0.506,-0.089,-0.841,-0.1,-1.235,-0.04c-0.076,0.012,-0.156,0.024,-0.246,0.024c-0.191,0,-0.33,-0.052,-0.478,-0.114c-0.678,-0.271,-2.141,-1.157,-3.188,-1.932c-0.17,-0.129,-1.458,-1.277,-1.94,-1.709c-1.021,-0.915,-1.696,-1.497,-1.813,-1.587c-0.118,-0.07,-0.268,-0.112,-0.405,-0.112c-0.047,0,-0.09,0.005,-0.128,0.014c-0.044,0.011,-0.147,0.065,-0.249,0.169c-0.304,0.31,-0.204,0.643,-0.063,0.869c0.066,0.087,0.383,0.438,1.509,1.6c0.579,0.595,1.538,1.585,1.651,1.712c0.046,0.049,0.193,0.18,0.301,0.26c0.051,0.039,0.185,0.141,0.377,0.287l0.014,0.01c0.364,0.276,0.929,0.706,1.519,1.155l1.974,1.506l-0.129,0.764c-0.283,1.67,-0.848,2.706,-1.888,3.463c-0.135,0.097,-0.264,0.209,-0.293,0.24c-0.249,0.283,-0.372,0.709,-0.348,1.199c0.02,0.402,0.132,0.811,0.314,1.15l0.17,0.317l0.073,2.51C15.166,22.731,15.203,23.493,15.221,23.648zM9.874,4.879c0.001,0.001,0.001,0.002,0.002,0.002C9.875,4.881,9.874,4.88,9.874,4.879z" fill="#228BCB"/>
    <path d="M12.692,17.166c-0.048,-0.97,0.234,-1.859,0.796,-2.507c-0.28,-0.099,-0.563,-0.197,-0.79,-0.273l-1.269,-0.424l-1.607,-1.506c-0.919,-0.861,-1.636,-1.52,-1.705,-1.574c-0.297,-0.23,-0.686,-0.373,-1.014,-0.373c-0.089,0,-0.171,0.01,-0.242,0.031c-0.244,0.071,-0.448,0.206,-0.608,0.403c-0.435,0.531,-0.399,1.146,0.1,1.731c0.091,0.107,0.853,0.991,1.698,1.97c1.458,1.688,1.523,1.759,1.741,1.906c0.305,0.204,1.87,0.867,2.987,1.294C12.734,17.62,12.704,17.392,12.692,17.166z" fill="#FFFFFF"/>
    <path d="M12.704,17.316c-1.072,-0.418,-2.409,-0.991,-2.651,-1.153c-0.165,-0.111,-0.258,-0.214,-1.649,-1.824c-0.844,-0.977,-1.605,-1.861,-1.696,-1.967c-0.521,-0.611,-0.199,-1.003,-0.092,-1.134c0.1,-0.123,0.223,-0.205,0.373,-0.248c0.017,-0.005,0.054,-0.013,0.114,-0.013c0.226,0,0.512,0.108,0.723,0.271c0.08,0.066,0.756,0.687,1.677,1.55l1.682,1.575l1.366,0.456c0.197,0.066,0.423,0.144,0.649,0.223c0.09,-0.146,0.192,-0.284,0.304,-0.412c0.101,-0.117,0.245,-0.242,0.367,-0.341c-0.511,-0.183,-1.015,-0.353,-1.024,-0.356l-1.172,-0.392l-1.533,-1.436c-0.609,-0.57,-1.619,-1.509,-1.738,-1.602c-0.497,-0.385,-1.179,-0.563,-1.673,-0.422c-0.337,0.098,-0.62,0.285,-0.839,0.556c-0.577,0.705,-0.537,1.575,0.106,2.33c0.092,0.108,0.855,0.993,1.7,1.972c1.467,1.699,1.555,1.801,1.835,1.989c0.39,0.261,2.277,1.046,3.392,1.46C12.809,18.049,12.735,17.682,12.704,17.316z" fill="#228BCB"/>
    <path d="M19.354,7.042c-0.385,0,-0.473,-0.008,-0.669,-0.059c-1.049,-0.276,-1.8,-1.05,-2.06,-2.124c-0.071,-0.293,-0.063,-0.969,0.016,-1.268c0.171,-0.653,0.544,-1.215,1.051,-1.582c0.363,-0.261,0.67,-0.394,1.133,-0.492c0.143,-0.031,0.351,-0.049,0.557,-0.049c0.136,0,0.262,0.008,0.354,0.023c0.626,0.104,1.16,0.379,1.588,0.818c0.384,0.393,0.625,0.851,0.737,1.399c0.078,0.379,0.062,0.932,-0.036,1.287c-0.27,0.977,-1.01,1.716,-1.979,1.978C19.823,7.033,19.764,7.042,19.354,7.042z" fill="#FFFFFF"/>
    <path d="M19.354,7.509c-0.402,0,-0.536,-0.009,-0.786,-0.074c-1.222,-0.322,-2.095,-1.22,-2.396,-2.466c-0.089,-0.367,-0.08,-1.122,0.018,-1.496c0.198,-0.757,0.635,-1.412,1.229,-1.842c0.417,-0.299,0.784,-0.459,1.31,-0.571c0.174,-0.038,0.413,-0.06,0.654,-0.06c0.113,0,0.279,0.005,0.428,0.029c0.729,0.121,1.35,0.442,1.849,0.954c0.448,0.459,0.73,0.993,0.86,1.632c0.092,0.448,0.073,1.081,-0.044,1.504c-0.315,1.138,-1.177,1.999,-2.307,2.304C19.895,7.497,19.789,7.509,19.354,7.509zM19.382,1.934c-0.206,0,-0.371,0.02,-0.458,0.039c-0.4,0.085,-0.651,0.193,-0.96,0.415c-0.418,0.303,-0.728,0.772,-0.872,1.321c-0.059,0.227,-0.067,0.82,-0.014,1.04c0.218,0.901,0.847,1.551,1.725,1.782c0.137,0.036,0.179,0.043,0.55,0.043c0.375,0,0.394,-0.005,0.569,-0.053c0.809,-0.218,1.426,-0.836,1.652,-1.652c0.078,-0.284,0.091,-0.763,0.029,-1.068c-0.093,-0.458,-0.294,-0.839,-0.613,-1.166c-0.357,-0.367,-0.804,-0.597,-1.33,-0.684C19.595,1.94,19.493,1.934,19.382,1.934z" fill="#228BCB"/>
    <path d="M13.7,30.5h4.339c0.792,0,1.535,-0.382,1.995,-1.026L20.3,29.1" fill="none" stroke="#383838" stroke-width="1" stroke-miterlimit="1"/>
    <path d="M6.938,8.072l-3.068,3.068c-0.56,0.56,-0.815,1.355,-0.685,2.136l0.075,0.453" fill="none" stroke="#383838" stroke-width="1" stroke-miterlimit="1"/>
  </g>
</svg>
