<?xml version="1.0" encoding="UTF-8"?>
<!DOCTYPE svg PUBLIC "-//W3C//DTD SVG 1.1//EN" "http://www.w3.org/Graphics/SVG/1.1/DTD/svg11.dtd">
<svg version="1.1" id="Layer_1" xmlns="http://www.w3.org/2000/svg" xmlns:xlink="http://www.w3.org/1999/xlink" x="0px" y="0px" width="32px" height="32px" viewBox="0 0 32 32" enable-background="new 0 0 32 32" xml:space="preserve">
  <g id="icon">
    <path d="M21.338,30.545c-0.209,0,-0.409,-0.051,-0.61,-0.156c-0.316,-0.167,-0.403,-0.281,-2.344,-3.066c-0.916,-1.31,-1.909,-2.718,-1.987,-2.806c-0.061,-0.067,-0.167,-0.199,-0.23,-0.294c-0.075,-0.113,-1.002,-1.436,-1.831,-2.617c-0.986,-1.405,-1.699,-2.435,-1.747,-2.517c-0.077,-0.152,-0.213,-0.668,-0.229,-0.871c-0.015,-0.219,0.024,-0.462,0.276,-1.73c0.157,-0.772,0.652,-3.169,0.917,-4.416c0.102,-0.487,0.09,-0.53,0.032,-0.601l-0.055,-0.067l-0.115,-0.001l-0.025,0.007c-0.033,0.011,-0.468,0.147,-0.974,0.3c-0.261,0.081,-0.513,0.158,-0.708,0.218c-0.193,0.059,-0.33,0.102,-0.366,0.113l-0.237,0.074l-0.079,0.564l-0.084,0.616c-0.457,3.37,-0.463,3.404,-0.619,3.628l-0.028,0.04c-0.191,0.284,-0.448,0.432,-0.787,0.453c-0.031,0.002,-0.061,0.003,-0.091,0.003c-0.284,0,-0.523,-0.095,-0.729,-0.29c-0.158,-0.151,-0.261,-0.36,-0.314,-0.639c-0.041,-0.213,-0.042,-0.221,0.142,-2.772c0.114,-1.574,0.194,-2.64,0.204,-2.716c0.033,-0.294,0.17,-0.564,0.397,-0.786c0.138,-0.135,0.299,-0.227,0.537,-0.308c0.57,-0.198,4.702,-1.748,4.915,-1.851c0.242,-0.116,0.451,-0.173,0.743,-0.205c0.164,-0.017,0.279,-0.025,0.396,-0.025c0.118,0,0.247,0.007,0.446,0.025c0.788,0.068,1.192,0.222,1.603,0.611c0.299,0.283,0.501,0.552,0.695,0.931c0.321,0.629,0.494,1.318,0.419,1.676c-0.062,0.307,-0.635,2.387,-1.128,4.165c-0.799,2.87,-0.92,3.297,-1.009,3.508l-0.118,0.285l0.975,1.647c0.096,0.162,0.943,1.589,1.019,1.686c0.142,0.193,3.733,5.914,3.84,6.117c0.163,0.319,0.226,0.732,0.16,1.053c-0.096,0.456,-0.506,0.868,-0.974,0.978C21.538,30.533,21.437,30.545,21.338,30.545z" fill="#92CBEE"/>
    <path d="M21.338,31.02c-0.287,0,-0.558,-0.069,-0.829,-0.21c-0.432,-0.228,-0.511,-0.341,-2.515,-3.216c-0.968,-1.385,-1.845,-2.626,-1.957,-2.768c-0.072,-0.08,-0.187,-0.224,-0.265,-0.341c-0.06,-0.091,-0.828,-1.187,-1.825,-2.608c-0.804,-1.146,-1.697,-2.429,-1.768,-2.55l-0.014,-0.025c-0.113,-0.223,-0.26,-0.808,-0.279,-1.051c-0.019,-0.28,0.018,-0.523,0.284,-1.859c0.156,-0.77,0.646,-3.139,0.912,-4.393c-0.154,0.047,-0.336,0.103,-0.528,0.161c-0.247,0.076,-1.019,0.314,-1.019,0.314l-0.12,0.881c-0.477,3.516,-0.477,3.516,-0.7,3.836l-0.027,0.038c-0.272,0.404,-0.658,0.625,-1.147,0.657c-0.04,0.003,-0.081,0.004,-0.122,0.004c-0.406,0,-0.761,-0.141,-1.056,-0.42c-0.234,-0.223,-0.382,-0.516,-0.454,-0.896c-0.054,-0.282,-0.054,-0.282,0.135,-2.894c0.07,-0.973,0.191,-2.623,0.207,-2.744c0.044,-0.396,0.23,-0.764,0.536,-1.063c0.19,-0.186,0.411,-0.315,0.718,-0.418c0.639,-0.222,4.638,-1.727,4.863,-1.83c0.29,-0.139,0.55,-0.211,0.896,-0.248c0.169,-0.018,0.302,-0.029,0.444,-0.029c0.141,0,0.292,0.011,0.491,0.029c0.899,0.078,1.393,0.271,1.887,0.74c0.336,0.318,0.573,0.634,0.791,1.058c0.287,0.562,0.58,1.42,0.462,1.99c-0.051,0.252,-0.391,1.507,-1.135,4.195c-0.817,2.937,-0.926,3.322,-1.029,3.566l-0.026,0.062l0.854,1.443c0.433,0.731,0.912,1.529,0.989,1.641c0.171,0.234,3.759,5.949,3.882,6.183c0.214,0.419,0.293,0.944,0.205,1.37c-0.135,0.638,-0.682,1.191,-1.33,1.345C21.611,31.004,21.473,31.02,21.338,31.02zM13.759,10.929l0.195,0.24c0.218,0.268,0.163,0.528,0.064,0.999c-0.266,1.252,-0.76,3.644,-0.916,4.413c-0.234,1.173,-0.279,1.443,-0.268,1.603c0.01,0.137,0.121,0.556,0.173,0.678c0.093,0.141,0.742,1.081,1.717,2.47c0.596,0.849,1.746,2.49,1.837,2.626c0.049,0.073,0.138,0.185,0.185,0.236l0.007,0.008c0.133,0.152,1.706,2.399,2.02,2.848c1.805,2.59,1.968,2.808,2.177,2.918c0.131,0.068,0.258,0.101,0.387,0.101h0c0.063,0,0.127,-0.008,0.195,-0.023c0.287,-0.068,0.558,-0.337,0.616,-0.613c0.043,-0.211,-0.004,-0.512,-0.115,-0.733c-0.169,-0.298,-3.618,-5.792,-3.805,-6.06c-0.079,-0.108,-0.43,-0.688,-1.044,-1.723l-1.096,-1.852l0.209,-0.504c0.078,-0.185,0.222,-0.692,0.99,-3.454c0.288,-1.04,1.053,-3.802,1.12,-4.132c0.037,-0.18,-0.057,-0.739,-0.377,-1.366c-0.17,-0.33,-0.338,-0.555,-0.599,-0.801c-0.29,-0.275,-0.562,-0.418,-1.317,-0.483c-0.184,-0.016,-0.297,-0.025,-0.404,-0.025c-0.106,0,-0.203,0.008,-0.346,0.023c-0.237,0.026,-0.397,0.069,-0.589,0.161c-0.248,0.12,-4.447,1.691,-4.963,1.871c-0.213,0.072,-0.299,0.138,-0.361,0.198c-0.15,0.147,-0.237,0.315,-0.257,0.5c-0.009,0.079,-0.067,0.832,-0.202,2.697c-0.176,2.431,-0.178,2.5,-0.149,2.648c0.034,0.179,0.091,0.304,0.175,0.384c0.116,0.11,0.239,0.159,0.399,0.159c0.02,0,0.04,-0.001,0.06,-0.002c0.194,-0.012,0.317,-0.083,0.426,-0.245l0.031,-0.045c0.09,-0.129,0.137,-0.458,0.539,-3.421l0.204,-1.481l0.525,-0.163c0.03,-0.01,0.156,-0.048,0.335,-0.103l0.74,-0.228c0.488,-0.148,0.931,-0.286,0.968,-0.298l0.109,-0.031L13.759,10.929z" fill="#0964B0"/>
    <path d="M18.242,6.849c-0.217,0,-0.417,-0.02,-0.564,-0.056c-0.551,-0.139,-0.917,-0.343,-1.305,-0.728c-0.385,-0.387,-0.588,-0.753,-0.725,-1.304c-0.045,-0.176,-0.054,-0.284,-0.054,-0.61c0,-0.356,0.007,-0.423,0.067,-0.654c0.28,-1.058,1.065,-1.785,2.153,-1.994c0.095,-0.018,0.23,-0.028,0.38,-0.028c0.266,0,0.544,0.029,0.727,0.076c0.576,0.151,1.112,0.508,1.471,0.98c0.187,0.245,0.388,0.675,0.468,1.001c0.054,0.228,0.068,0.32,0.068,0.632c0,0.306,-0.01,0.394,-0.068,0.632c-0.128,0.51,-0.402,0.985,-0.773,1.335c-0.337,0.316,-0.705,0.515,-1.195,0.645C18.726,6.823,18.488,6.849,18.242,6.849L18.242,6.849z" fill="#92CBEE"/>
    <path d="M18.242,7.324c-0.18,0,-0.443,-0.012,-0.677,-0.07c-0.636,-0.16,-1.078,-0.407,-1.526,-0.852c-0.448,-0.45,-0.694,-0.893,-0.851,-1.527c-0.058,-0.23,-0.068,-0.383,-0.068,-0.725c0,-0.371,0.008,-0.487,0.083,-0.774c0.329,-1.243,1.249,-2.096,2.524,-2.341c0.159,-0.03,0.343,-0.036,0.47,-0.036c0.308,0,0.624,0.034,0.846,0.092c0.678,0.178,1.309,0.597,1.731,1.152c0.224,0.294,0.456,0.788,0.552,1.175c0.063,0.267,0.082,0.397,0.082,0.746c0,0.343,-0.014,0.469,-0.081,0.745c-0.15,0.599,-0.472,1.156,-0.908,1.568c-0.392,0.369,-0.837,0.61,-1.399,0.759C18.807,7.293,18.532,7.324,18.242,7.324zM18.195,1.951c-0.118,0,-0.228,0.007,-0.293,0.019c-0.914,0.175,-1.547,0.761,-1.782,1.648c-0.045,0.174,-0.051,0.197,-0.051,0.533c0,0.311,0.01,0.375,0.04,0.493c0.116,0.467,0.279,0.761,0.601,1.086c0.324,0.321,0.617,0.484,1.084,0.602c0.107,0.026,0.27,0.041,0.448,0.041c0.203,0,0.401,-0.021,0.529,-0.055c0.416,-0.11,0.713,-0.27,0.993,-0.533c0.305,-0.288,0.531,-0.68,0.637,-1.104c0.046,-0.189,0.054,-0.239,0.054,-0.517c0,-0.28,-0.01,-0.335,-0.055,-0.523c-0.064,-0.26,-0.236,-0.629,-0.384,-0.822c-0.296,-0.389,-0.739,-0.684,-1.214,-0.808C18.659,1.974,18.421,1.951,18.195,1.951z" fill="#0964B0"/>
    <path d="M13.975,23.469c-0.282,0.699,-0.632,1.537,-0.702,1.656c-0.1,0.168,-0.381,0.465,-1.881,1.986c-2.944,2.979,-3.131,3.162,-3.336,3.261c-0.184,0.091,-0.364,0.136,-0.539,0.136c0,0,0,0,0,0c-0.283,0,-0.553,-0.119,-0.801,-0.355c-0.333,-0.313,-0.435,-0.661,-0.332,-1.13c0.048,-0.218,0.203,-0.554,0.338,-0.733c0.051,-0.069,0.849,-1.027,1.985,-2.384c1.901,-2.271,1.934,-2.322,1.945,-2.339c0.054,-0.085,0.479,-1.293,0.608,-1.661c0.12,-0.341,0.36,-0.964,0.57,-1.506c0.448,0.649,1.122,1.611,1.387,1.989C13.501,22.793,13.753,23.153,13.975,23.469zM25.703,15.292c-0.171,-0.161,-0.331,-0.238,-0.683,-0.329c-0.031,-0.008,-3.47,-1.123,-3.596,-1.249c-0.013,-0.013,-0.033,-0.033,-0.722,-0.891c-0.109,-0.134,-0.377,-0.439,-0.669,-0.766c-0.147,0.552,-0.404,1.496,-0.853,3.119c0.103,0.106,0.178,0.181,0.201,0.198c0.157,0.123,0.37,0.294,0.466,0.381c0.186,0.169,0.401,0.27,0.698,0.33c0.147,0.031,1.13,0.299,2.145,0.587c1.652,0.464,1.882,0.523,2.05,0.523c0.43,0,0.832,-0.146,1.048,-0.382c0.164,-0.179,0.222,-0.335,0.237,-0.642C26.042,15.79,25.943,15.519,25.703,15.292z" fill="#92CBEE"/>
    <path d="M7.517,30.984c-0.403,0,-0.794,-0.168,-1.128,-0.486c-0.455,-0.428,-0.609,-0.943,-0.469,-1.577c0.063,-0.283,0.248,-0.685,0.422,-0.916c0.072,-0.096,1.128,-1.36,2,-2.403c1.398,-1.67,1.806,-2.164,1.903,-2.284c0.048,-0.117,0.228,-0.601,0.566,-1.568c0.147,-0.42,0.473,-1.257,0.689,-1.812l0.014,-0.035l0.021,0.032c0.118,0.176,0.328,0.481,0.624,0.907l0.006,0.009l-0.004,0.01c-0.228,0.588,-0.372,0.971,-0.454,1.204c-0.568,1.623,-0.619,1.702,-0.657,1.76c-0.03,0.046,-0.06,0.094,-1.98,2.387c-1.277,1.526,-1.917,2.297,-1.971,2.367c-0.094,0.124,-0.219,0.396,-0.252,0.548c-0.067,0.305,-0.017,0.483,0.193,0.681c0.163,0.154,0.314,0.226,0.475,0.226c0.102,0,0.209,-0.029,0.328,-0.087c0.141,-0.068,0.782,-0.713,3.209,-3.169c1.293,-1.312,1.736,-1.77,1.811,-1.896c0.069,-0.127,0.494,-1.148,0.78,-1.864l0.014,-0.034l0.651,0.928l-0.004,0.01c-0.119,0.294,-0.517,1.267,-0.623,1.446c-0.13,0.217,-0.367,0.47,-1.952,2.078C8.612,30.6,8.547,30.663,8.262,30.8C8.016,30.922,7.765,30.984,7.517,30.984zM24.74,17.67c-0.234,0,-0.417,-0.045,-2.178,-0.541c-1.064,-0.301,-1.994,-0.554,-2.114,-0.579c-0.378,-0.076,-0.67,-0.216,-0.92,-0.443c-0.084,-0.076,-0.285,-0.238,-0.44,-0.359c-0.014,-0.011,-0.034,-0.028,-0.062,-0.054l-0.009,-0.008l0.293,-1.06l0.024,0.025c0.19,0.199,0.307,0.318,0.346,0.354c0.154,0.12,0.374,0.297,0.484,0.397c0.121,0.109,0.262,0.174,0.472,0.216c0.182,0.038,1.252,0.333,2.182,0.595c1.304,0.366,1.807,0.505,1.921,0.505c0.337,0,0.593,-0.115,0.698,-0.228c0.072,-0.078,0.102,-0.119,0.113,-0.344c0.013,-0.276,-0.057,-0.4,-0.174,-0.51c-0.09,-0.085,-0.167,-0.134,-0.475,-0.214c-0.048,-0.012,-1.015,-0.328,-1.794,-0.59c-1.86,-0.625,-1.919,-0.685,-2.018,-0.783c-0.034,-0.034,-0.051,-0.051,-0.757,-0.93c-0.069,-0.086,-0.222,-0.262,-0.454,-0.524l-0.007,-0.008l0.003,-0.01c0.138,-0.509,0.229,-0.854,0.278,-1.055l0.009,-0.036l0.025,0.028c0.481,0.537,0.771,0.867,0.887,1.01c0.349,0.435,0.57,0.709,0.659,0.817c0.466,0.202,3.13,1.075,3.419,1.165c0.369,0.096,0.619,0.195,0.879,0.44c0.34,0.323,0.494,0.73,0.471,1.246c-0.017,0.348,-0.085,0.641,-0.362,0.942C25.83,17.469,25.307,17.67,24.74,17.67z" fill="#0964B0"/>
  </g>
</svg>
