<?xml version="1.0" encoding="UTF-8"?>
<!DOCTYPE svg PUBLIC "-//W3C//DTD SVG 1.1//EN" "http://www.w3.org/Graphics/SVG/1.1/DTD/svg11.dtd">
<svg version="1.1" id="Layer_1" xmlns="http://www.w3.org/2000/svg" xmlns:xlink="http://www.w3.org/1999/xlink" x="0px" y="0px" width="32px" height="32px" viewBox="0 0 32 32" enable-background="new 0 0 32 32" xml:space="preserve">
  <g id="icon">
    <path d="M3.155,9.426c-0.628,0.158,-1.085,0.628,-1.248,1.28c-0.104,0.427,-0.056,0.821,0.158,1.242c0.245,0.487,-0.549,-0.011,9.292,5.834c6.086,3.613,8.85,5.241,8.996,5.296c1.073,0.402,2.248,0.139,3.023,-0.677c0.355,-0.375,0.575,-0.772,0.71,-1.283c0.11,-0.424,0.13,-0.797,0.065,-1.174c-0.141,-0.824,-0.516,-1.452,-1.138,-1.911c-0.256,-0.19,-6.027,-3.575,-6.213,-3.645c-0.53,-0.201,-1.172,-0.277,-2.75,-0.326c-1.448,-0.043,-2.198,-0.152,-2.747,-0.394c-0.093,-0.041,-1.682,-0.973,-3.53,-2.077c-1.851,-1.101,-3.415,-2.028,-3.477,-2.058C3.983,9.377,3.518,9.333,3.155,9.426zM28.331,17.362c-0.865,0.133,-1.536,0.552,-2.017,1.259c-0.194,0.288,-0.313,0.552,-0.411,0.938c-0.07,0.261,-0.079,0.343,-0.076,0.729c0.003,0.397,0.008,0.462,0.087,0.748c0.048,0.171,0.132,0.405,0.186,0.522c0.49,1.03,1.55,1.672,2.668,1.617c0.693,-0.035,1.319,-0.296,1.8,-0.758c0.473,-0.449,0.733,-0.924,0.876,-1.598c0.121,-0.557,0.039,-1.245,-0.211,-1.802c-0.282,-0.628,-0.868,-1.199,-1.493,-1.454C29.323,17.392,28.706,17.305,28.331,17.362z" fill="#FFFFFF" stroke="#228BCB" stroke-width="1" stroke-miterlimit="1"/>
    <path d="M0.411,15.081l22.937,13.251c1.272,0.735,3.061,0.372,4.369,-0.297h0" fill="none" stroke="#383838" stroke-width="1.2" stroke-miterlimit="1"/>
  </g>
</svg>
