<?xml version="1.0" encoding="UTF-8"?>
<!DOCTYPE svg PUBLIC "-//W3C//DTD SVG 1.1//EN" "http://www.w3.org/Graphics/SVG/1.1/DTD/svg11.dtd">
<svg version="1.1" id="Layer_1" xmlns="http://www.w3.org/2000/svg" xmlns:xlink="http://www.w3.org/1999/xlink" x="0px" y="0px" width="32px" height="32px" viewBox="0 0 32 32" enable-background="new 0 0 32 32" xml:space="preserve">
  <g id="icon">
    <path d="M17.188,26.978c-0.542,0,-1.023,-0.335,-1.227,-0.854c-0.038,-0.094,-0.081,-0.246,-0.095,-0.326c-0.015,-0.088,-0.111,-1.789,-0.231,-3.257c-0.207,-2.543,-0.222,-2.561,-0.273,-2.619c-0.883,-1.092,-2.887,-3.63,-3.38,-4.274c-0.373,-0.49,-0.373,-0.49,-0.373,-0.665c0,-0.15,-0.026,-0.322,-0.072,-0.473c-0.085,-0.28,-0.085,-0.809,-0.001,-1.068c0.113,-0.338,0.228,-0.519,0.494,-0.774c0.283,-0.268,0.517,-0.406,0.893,-0.526l0.012,-0.004c0.521,-0.166,0.521,-0.166,2.914,-0.177l2.716,-0.014l-0.522,-0.461c-0.15,-0.137,-0.509,-0.319,-2.952,-1.499l-2.731,-1.321l-0.212,-0.203c-0.31,-0.297,-0.411,-0.535,-0.386,-0.91c0.03,-0.467,0.314,-0.847,0.74,-0.991c0.09,-0.03,0.212,-0.047,0.343,-0.047c0.166,0,0.337,0.027,0.468,0.074c0.088,0.033,1.114,0.456,2.676,1.104c0.937,0.391,2.565,1.063,2.722,1.102c0.104,0.03,0.233,0.076,0.28,0.099c0.228,0.113,4.41,2.872,4.651,3.069c0.044,0.046,0.124,0.126,0.204,0.207l0.102,0.103c0.293,0.287,0.395,0.544,0.392,0.983c0,0.639,-0.308,1.348,-0.868,1.997c-0.617,0.715,-1.45,1.178,-2.41,1.341c-0.133,0.021,-0.28,0.031,-0.75,0.031c-0.242,0,-0.571,-0.003,-1.099,-0.009c-0.946,-0.009,-1.713,-0.026,-1.805,-0.033l-0.591,-0.05l0.88,1.28c0.596,0.863,0.668,1.019,0.676,1.041c0.043,0.135,0.077,0.311,0.124,0.651c0.035,0.256,0.103,5.379,0.08,5.915c-0.021,0.542,-0.144,0.86,-0.452,1.175c-0.198,0.199,-0.381,0.295,-0.674,0.355C17.366,26.969,17.276,26.978,17.188,26.978z" fill="#FFFFFF"/>
    <path d="M17.188,27.494c-0.756,0,-1.426,-0.464,-1.707,-1.182c-0.052,-0.128,-0.103,-0.314,-0.122,-0.42c-0.027,-0.159,-0.157,-2.314,-0.238,-3.309c-0.107,-1.317,-0.179,-2.155,-0.215,-2.404c-0.914,-1.134,-2.851,-3.586,-3.333,-4.216c-0.397,-0.521,-0.479,-0.63,-0.479,-0.979c0,-0.1,-0.019,-0.22,-0.05,-0.322c-0.117,-0.386,-0.116,-1.017,0.002,-1.379c0.139,-0.419,0.303,-0.676,0.628,-0.987c0.34,-0.322,0.646,-0.502,1.093,-0.645l0.013,-0.004c0.596,-0.19,0.642,-0.19,3.068,-0.201l1.05,-0.005c-0.458,-0.227,-1.122,-0.549,-2.029,-0.987l-2.804,-1.356l-0.271,-0.259c-0.423,-0.404,-0.58,-0.786,-0.544,-1.318c0.044,-0.679,0.461,-1.233,1.09,-1.445c0.182,-0.061,0.377,-0.074,0.508,-0.074c0.227,0,0.455,0.037,0.642,0.104c0.143,0.053,1.935,0.796,2.699,1.114c1.358,0.567,2.494,1.028,2.658,1.08l0.008,0.002c0.108,0.031,0.271,0.087,0.361,0.13c0.264,0.131,4.481,2.911,4.755,3.135l0.046,0.042c0.042,0.044,0.12,0.122,0.198,0.2l0.102,0.103c0.388,0.38,0.546,0.773,0.542,1.35c0,0.759,-0.353,1.588,-0.993,2.331c-0.696,0.807,-1.635,1.33,-2.715,1.513c-0.166,0.027,-0.332,0.039,-0.836,0.039c-0.244,0,-0.574,-0.003,-1.105,-0.009c-0.494,-0.005,-1.005,-0.012,-1.365,-0.02l0.281,0.408c0.663,0.959,0.711,1.091,0.735,1.154l0.007,0.02c0.054,0.167,0.092,0.361,0.144,0.738c0.044,0.325,0.105,5.531,0.085,6.008c-0.026,0.667,-0.2,1.106,-0.598,1.514c-0.274,0.276,-0.546,0.42,-0.94,0.5C17.433,27.482,17.31,27.494,17.188,27.494zM16.375,25.712c0.01,0.051,0.041,0.16,0.064,0.217c0.128,0.326,0.421,0.533,0.748,0.533c0.054,0,0.11,-0.006,0.165,-0.016c0.191,-0.039,0.283,-0.087,0.409,-0.213c0.185,-0.189,0.284,-0.371,0.302,-0.831c0.021,-0.495,-0.043,-5.498,-0.077,-5.832c-0.037,-0.266,-0.065,-0.42,-0.094,-0.522c-0.034,-0.062,-0.167,-0.283,-0.619,-0.938l-1.499,-2.179l1.678,0.141c0.085,0.006,0.826,0.022,1.767,0.031c0.526,0.006,0.853,0.009,1.094,0.009c0.432,0,0.564,-0.008,0.669,-0.025c0.835,-0.142,1.564,-0.546,2.101,-1.169c0.479,-0.555,0.742,-1.145,0.742,-1.659c0.002,-0.325,-0.058,-0.438,-0.238,-0.615l-0.106,-0.107c-0.068,-0.068,-0.136,-0.136,-0.183,-0.185c-0.386,-0.285,-4.19,-2.795,-4.535,-2.992c-0.031,-0.013,-0.119,-0.045,-0.193,-0.066v0c-0.262,-0.077,-1.845,-0.733,-2.779,-1.122c-1.729,-0.717,-2.58,-1.068,-2.658,-1.097c-0.052,-0.019,-0.16,-0.041,-0.287,-0.041c-0.093,0,-0.156,0.013,-0.178,0.02c-0.227,0.077,-0.373,0.277,-0.39,0.534c-0.013,0.191,0.004,0.29,0.228,0.503l0.153,0.147l2.657,1.285c2.609,1.26,2.868,1.393,3.075,1.582l1.529,1.352l-4.069,0.02c-2.314,0.011,-2.314,0.011,-2.76,0.153l-0.012,0.004c-0.3,0.096,-0.469,0.195,-0.695,0.409c-0.203,0.194,-0.274,0.305,-0.359,0.562c-0.047,0.145,-0.053,0.562,0.005,0.755c0.06,0.197,0.094,0.415,0.094,0.615c0.044,0.066,0.145,0.199,0.267,0.359c0.488,0.637,2.476,3.155,3.365,4.255c0.172,0.197,0.174,0.23,0.392,2.909C16.27,23.979,16.358,25.577,16.375,25.712z" fill="#228BCB"/>
    <path d="M28.581,14.814c-1.589,0,-2.882,-1.293,-2.882,-2.882s1.293,-2.882,2.882,-2.882c1.589,0,2.882,1.293,2.882,2.882S30.17,14.814,28.581,14.814z" fill="#FFFFFF"/>
    <path d="M28.581,15.33c-1.874,0,-3.398,-1.525,-3.398,-3.398c0,-1.874,1.525,-3.399,3.398,-3.399s3.399,1.525,3.399,3.399C31.98,13.805,30.455,15.33,28.581,15.33zM28.581,9.565c-1.305,0,-2.366,1.061,-2.366,2.366c0,1.305,1.061,2.366,2.366,2.366s2.366,-1.061,2.366,-2.366C30.947,10.627,29.886,9.565,28.581,9.565z" fill="#228BCB"/>
    <path d="M10.752,16.589c-0.25,-0.329,-0.442,-0.582,-0.56,-0.871c-0.509,0.728,-1.152,1.66,-1.316,1.894l-0.162,0.232l-3.059,1.828c-1.728,1.086,-1.897,1.204,-2.07,1.379c-0.292,0.297,-0.444,0.631,-0.44,0.967c0.005,0.331,0.161,0.654,0.453,0.934c0.177,0.169,0.239,0.208,0.345,0.246c0.194,0.069,0.326,0.097,0.457,0.097h0c0.235,0,0.497,-0.087,1.078,-0.358c0.31,-0.147,2.468,-1.242,3.413,-1.68c1.802,-0.838,1.867,-0.88,2.155,-1.179c0.086,-0.086,0.297,-0.238,0.451,-0.338c0.186,-0.119,0.582,-0.578,0.931,-1.014C11.704,17.81,11.012,16.929,10.752,16.589z" fill="#FFFFFF"/>
    <path d="M12.102,18.313c-0.338,0.425,-0.735,0.894,-0.883,0.995c-0.136,0.087,-0.401,0.271,-0.543,0.413c-0.221,0.229,-0.244,0.253,-2.001,1.069c-0.952,0.441,-3.111,1.537,-3.414,1.681c-0.483,0.226,-0.716,0.31,-0.859,0.31c-0.049,0,-0.118,-0.008,-0.283,-0.067c-0.007,-0.002,-0.013,-0.004,-0.019,-0.007c-0.007,-0.004,-0.037,-0.024,-0.143,-0.126c-0.133,-0.127,-0.291,-0.329,-0.295,-0.569c-0.003,-0.246,0.156,-0.461,0.291,-0.597c0.131,-0.133,0.329,-0.269,1.977,-1.305l3.147,-1.884l0.221,-0.317c0.062,-0.088,0.192,-0.276,0.357,-0.515c0.231,-0.333,0.536,-0.774,0.818,-1.178c-0.259,-0.37,-0.409,-0.691,-0.414,-1.208c-0.351,0.498,-0.873,1.25,-1.253,1.799c-0.164,0.237,-0.293,0.423,-0.355,0.511l-0.102,0.146l-1.834,1.153c-1.799,1.13,-3.084,1.855,-3.299,2.074c-0.391,0.397,-0.595,0.859,-0.588,1.336c0.006,0.472,0.218,0.922,0.612,1.301c0.197,0.188,0.32,0.285,0.528,0.36c0.25,0.089,0.439,0.127,0.631,0.127h0c0.36,0,0.719,-0.137,1.299,-0.408c0.304,-0.144,2.459,-1.239,3.409,-1.679c1.796,-0.835,1.941,-0.907,2.303,-1.282c0.038,-0.038,0.2,-0.162,0.365,-0.268c0.226,-0.145,0.621,-0.589,0.981,-1.033C12.539,18.865,12.316,18.584,12.102,18.313z" fill="#228BCB"/>
    <path d="M14.138,28.509h4.48c0.817,0,1.584,-0.395,2.06,-1.06l0.275,-0.386" fill="none" stroke="#383838" stroke-width="1" stroke-miterlimit="1"/>
    <path d="M0.5,20.92l2.165,3.922c0.395,0.716,1.111,1.196,1.923,1.291l0.471,0.055" fill="none" stroke="#383838" stroke-width="1" stroke-miterlimit="1"/>
  </g>
</svg>
