<?xml version="1.0" encoding="UTF-8"?>
<!DOCTYPE svg PUBLIC "-//W3C//DTD SVG 1.1//EN" "http://www.w3.org/Graphics/SVG/1.1/DTD/svg11.dtd">
<svg version="1.1" id="Layer_1" xmlns="http://www.w3.org/2000/svg" xmlns:xlink="http://www.w3.org/1999/xlink" x="0px" y="0px" width="24px" height="24px" viewBox="0 0 24 24" enable-background="new 0 0 24 24" xml:space="preserve">
  <g id="icon">
    <path d="M2.469,9.8349c-0.2268,-0.3075,-0.2262,-0.6853,-0.2155,-0.8335c0.004,-0.0545,0.0144,-0.1937,0.0295,-0.3954c0.0734,-0.9796,0.2454,-3.2736,0.3367,-4.6707l0.0008,-0.0089c0.0316,-0.2705,0.2506,-0.4255,0.4607,-0.5415c0.0702,-0.0387,0.1246,-0.0517,0.5922,0.0747c0.2728,0.0738,0.3879,0.1078,0.4437,0.1333c0.2667,0.0831,0.4799,0.2312,0.6345,0.4407c0.2589,0.3511,0.3213,0.8158,0.3817,1.2653c0.0172,0.1277,0.0333,0.2483,0.0539,0.366l0.0191,0.11c0.0981,0.5644,0.1995,1.148,0.3459,1.7014c0.0055,0.0209,0.0182,0.0451,0.0365,0.07c0.0575,0.0779,0.1706,0.1622,0.2952,0.2199c0.9516,0.4409,1.9563,0.8889,3.0713,1.3696c0.1767,0.0762,0.3661,0.1274,0.5667,0.1817c0.0804,0.0217,0.1609,0.0435,0.2405,0.0669c0.0166,-0.0013,0.0323,-0.0013,0.0465,-0.0014c0.0105,0,0.0264,-0.0001,0.037,-0.0012c0.0048,-0.0112,0.0131,-0.0369,0.0168,-0.0868c0.0071,-0.0985,0.0112,-0.268,0.0169,-0.5025c0.0121,-0.5033,0.0324,-1.3456,0.1109,-2.427c0.1029,-1.4179,-0.3389,-2.9108,-0.3389,-2.9108l-0.0014,-0.0327c-0.0089,-0.2048,-0.0224,-0.5144,0.1982,-0.7054c0.2117,-0.1835,0.5624,-0.0872,0.8775,0.0313l0.0147,0.0055c0.2602,0.0973,0.3262,0.136,0.6039,0.2986l0.0766,0.0448c0.1923,0.1123,0.3584,0.2623,0.4937,0.4457c0.1357,0.184,0.2403,0.4018,0.311,0.6474c0.0942,0.3272,0.1858,0.6554,0.2774,0.9836c0.1992,0.7133,0.4051,1.4509,0.6344,2.1635c0.3338,1.0377,0.8276,2.3824,1.0605,2.9863c0.1835,0.4759,0.3775,0.8492,0.5928,1.1411c0.1962,0.266,0.4112,0.4632,0.6391,0.5861c0.4336,0.2338,1.3333,0.6796,2.2858,1.1515c1.0982,0.5442,2.2339,1.1068,2.6262,1.3328c0.3682,0.2121,0.6958,0.5047,0.9475,0.8459c0.5443,0.738,0.6111,1.5271,0.1743,2.0591c-0.8422,1.0258,-2.4803,0.4334,-2.6643,0.3625c-0.6061,-0.2335,-7.4648,-3.4385,-16.0534,-7.7229l-0.0083,-0.0044C2.633,10.0157,2.5427,9.9348,2.469,9.8349z" fill="#FFFFFF" opacity="0.5"/>
    <path d="M20.0184,18.9866c-0.5083,0,-1.0625,-0.1056,-1.5604,-0.2974c-0.6164,-0.2375,-7.522,-3.4623,-16.136,-7.7594l-0.0502,-0.0268c-0.2251,-0.1283,-0.4144,-0.2971,-0.5672,-0.5044c-0.3998,-0.542,-0.4212,-1.1509,-0.3984,-1.4657l0.0297,-0.3978c0.0667,-0.8902,0.244,-3.2548,0.3361,-4.6618l0.0047,-0.0521c0.0619,-0.5309,0.3799,-0.9559,0.9458,-1.268c0.1765,-0.0974,0.3612,-0.1447,0.5647,-0.1447c0.2382,0,0.4789,0.065,0.7336,0.1339c0.2797,0.0757,0.4165,0.1151,0.5271,0.1591c0.4359,0.146,0.8053,0.4116,1.0685,0.7681c0.4034,0.5471,0.4859,1.1608,0.5587,1.7023l0.0018,0.0131c0.0148,0.1107,0.0288,0.2151,0.0465,0.317l0.0192,0.11c0.0777,0.4479,0.1579,0.9098,0.2603,1.3474c0.798,0.3685,1.6343,0.7424,2.5458,1.1383c0.015,-0.455,0.0415,-1.0692,0.0946,-1.8008c0.0884,-1.2172,-0.2987,-2.5603,-0.3026,-2.5737l-0.0326,-0.111l-0.0066,-0.1492c-0.0115,-0.2662,-0.042,-0.9728,0.5254,-1.4643c0.2557,-0.2216,0.5689,-0.334,0.9309,-0.334c0.3867,0,0.7354,0.1311,0.9029,0.1941l0.0122,0.0045c0.3368,0.126,0.4574,0.1966,0.7489,0.367l0.0802,0.047c0.3037,0.1774,0.5655,0.4134,0.7779,0.7015c0.203,0.2752,0.3576,0.5944,0.4595,0.9489c0.0898,0.312,0.1774,0.6254,0.2649,0.9388l0.0145,0.0518c0.1979,0.7085,0.4009,1.4355,0.6238,2.128c0.3269,1.0167,0.8129,2.3401,1.0424,2.9355c0.1526,0.3956,0.3067,0.6962,0.4709,0.919c0.1092,0.148,0.2249,0.2594,0.3255,0.3138c0.4215,0.2273,1.3128,0.6689,2.2565,1.1364l0.0142,0.007c1.1564,0.573,2.2488,1.1144,2.6645,1.3539c0.4811,0.2772,0.9091,0.6594,1.2379,1.1053c0.8025,1.0883,0.8591,2.3544,0.1439,3.2257C21.6912,18.6603,20.9375,18.9866,20.0184,18.9866zM3.2262,9.2578c8.535,4.2569,15.3204,7.4294,15.9148,7.6585c0.0037,0.0014,0.4538,0.1701,0.9031,0.1701c0,0,0.0001,0,0.0001,0c0.319,0,0.5496,-0.0838,0.6854,-0.2491c0.1649,-0.201,0.0161,-0.593,-0.2047,-0.8924c-0.1745,-0.2367,-0.4018,-0.4395,-0.6571,-0.5865c-0.3657,-0.2107,-1.5351,-0.7902,-2.5669,-1.3014c-0.9655,-0.4784,-1.873,-0.928,-2.3217,-1.17c-0.3521,-0.1899,-0.6727,-0.4787,-0.9527,-0.8583c-0.2665,-0.3614,-0.5003,-0.8073,-0.7146,-1.3631c-0.2365,-0.6134,-0.7385,-1.9805,-1.0784,-3.0373c-0.2339,-0.7269,-0.4416,-1.4703,-0.6424,-2.1891c-0.0936,-0.3355,-0.1846,-0.6612,-0.2781,-0.986c-0.0395,-0.1371,-0.0941,-0.2537,-0.1626,-0.3464c-0.0582,-0.0789,-0.1281,-0.1425,-0.2081,-0.1891l-0.0779,-0.0456c-0.0642,-0.0376,-0.1134,-0.0664,-0.1537,-0.0894c0.1348,0.624,0.3005,1.6439,0.2273,2.6521c-0.0771,1.0625,-0.0968,1.8878,-0.1086,2.3809l-0.0003,0.0125c-0.0064,0.2607,-0.0103,0.4182,-0.0187,0.5354c-0.011,0.1475,-0.0411,0.2765,-0.0921,0.3948l-0.2206,0.5114l-0.5539,0.0573c-0.0336,0.0035,-0.0814,0.0057,-0.119,0.0062l-0.167,0.0125l-0.1646,-0.05c-0.071,-0.0209,-0.1448,-0.0408,-0.2183,-0.0606c-0.2242,-0.0606,-0.4558,-0.1232,-0.6956,-0.2267c-1.1248,-0.4849,-2.137,-0.9363,-3.0946,-1.3799c-0.1582,-0.0734,-0.4542,-0.2383,-0.6606,-0.5184c-0.0894,-0.1211,-0.1532,-0.252,-0.1896,-0.3889c-0.1576,-0.5955,-0.2625,-1.1993,-0.3641,-1.7833l-0.0191,-0.1099c-0.0219,-0.1262,-0.0391,-0.2513,-0.0593,-0.4017c-0.0423,-0.3157,-0.0904,-0.6735,-0.2047,-0.8286c-0.0144,-0.0195,-0.0479,-0.065,-0.1526,-0.0977l-0.0878,-0.0323c-0.0165,-0.0058,-0.0688,-0.0217,-0.2063,-0.0595c-0.096,1.4146,-0.2494,3.4605,-0.3092,4.2583l-0.0301,0.4041C3.1955,9.1466,3.2104,9.2229,3.2262,9.2578z" fill="#6485C3"/>
    <rect y="22.1" width="24" height="1.9" fill="#7B7B7B"/>
  </g>
</svg>
