<?xml version="1.0" encoding="UTF-8"?>
<!DOCTYPE svg PUBLIC "-//W3C//DTD SVG 1.1//EN" "http://www.w3.org/Graphics/SVG/1.1/DTD/svg11.dtd">
<svg version="1.1" id="Layer_1" xmlns="http://www.w3.org/2000/svg" xmlns:xlink="http://www.w3.org/1999/xlink" x="0px" y="0px" width="24px" height="24px" viewBox="0 0 24 24" enable-background="new 0 0 24 24" xml:space="preserve">
  <g id="icon">
    <path d="M5.4269,16.6657c-0.4897,-0.0137,-0.8608,-0.303,-0.9976,-0.4268l-0.3276,-0.2978c-0.7296,-0.6636,-2.4384,-2.2176,-3.4874,-3.1536l-0.0122,-0.0113c-0.3011,-0.2974,-0.2853,-0.6782,-0.2376,-0.9766c0.0339,-0.2107,0.1471,-0.322,0.5475,-0.6222c0.2394,-0.1797,0.3336,-0.2464,0.4035,-0.2859c0.2765,-0.1862,0.5691,-0.2786,0.8766,-0.2786c0.0142,0,0.0284,0.0002,0.0427,0.0006c0.5197,0.0145,0.964,0.2746,1.3936,0.5261c0.1103,0.0646,0.2143,0.1256,0.3157,0.1798l0.1,0.0534c0.4894,0.2618,0.9954,0.5325,1.5002,0.7521l0.0277,0.0121l0.0298,-0.0053c0.0312,-0.0056,0.0949,-0.0208,0.1718,-0.0603c0.9434,-0.4835,1.9254,-1.005,3.0021,-1.594c0.1183,-0.0647,0.2359,-0.1481,0.3354,-0.2212l0.1036,-0.0761l-0.1756,-0.1443c-0.3994,-0.3279,-1.0681,-0.8769,-1.8878,-1.6188c-1.0107,-0.9149,-2.4287,-1.4821,-2.4429,-1.4877l-0.0349,-0.0138l-0.0576,-0.0413c-0.2037,-0.1454,-0.5443,-0.3885,-0.5667,-0.8312c-0.0255,-0.5032,0.4957,-0.8212,0.7183,-0.9571l0.0138,-0.0084c0.2616,-0.1603,0.3461,-0.1938,0.6604,-0.3187l0.0844,-0.0335c0.2308,-0.0919,0.4756,-0.1384,0.728,-0.1384c0.019,0,0.0381,0.0003,0.0573,0.0008c0.2677,0.0074,0.5423,0.0671,0.8163,0.1776c0.3204,0.1291,0.64,0.2608,0.9597,0.3926c0.6917,0.2852,1.4055,0.5793,2.1131,0.8392c1.0311,0.3787,2.4054,0.8209,3.0295,1.0106c0.468,0.1423,0.8608,0.2161,1.2007,0.2256c0.024,0.0007,0.0477,0.001,0.0712,0.001c0.2589,0,0.4825,-0.0404,0.6643,-0.1202c0.4517,-0.1979,1.3648,-0.6362,2.3314,-1.1002c1.1271,-0.5411,2.2911,-1.0998,2.7245,-1.2753c0.4075,-0.1651,0.8558,-0.2523,1.2964,-0.2523c0.0311,0,0.0622,0.0005,0.0933,0.0013c1.0752,0.0298,1.8578,0.56,2.0422,1.3838c0.3404,1.5212,-1.3229,2.5679,-1.5137,2.6822c-0.5678,0.3401,-7.42,3.8253,-16.2066,8.0139l-0.0157,0.0071c-0.1484,0.0609,-0.2991,0.0913,-0.4575,0.0914L5.4269,16.6657z" fill="#6485C3"/>
    <rect y="22" width="24" height="2" fill="#7B7B7B"/>
  </g>
</svg>
