<?xml version="1.0" encoding="UTF-8"?>
<!DOCTYPE svg PUBLIC "-//W3C//DTD SVG 1.1//EN" "http://www.w3.org/Graphics/SVG/1.1/DTD/svg11.dtd">
<svg version="1.1" id="Layer_1" xmlns="http://www.w3.org/2000/svg" xmlns:xlink="http://www.w3.org/1999/xlink" x="0px" y="0px" width="24px" height="24px" viewBox="0 0 24 24" enable-background="new 0 0 24 24" xml:space="preserve">
  <g id="icon">
    <path d="M22.5,20.5H1.5V4.5h21V20.5z" fill="#FFFFFF" opacity="0.5"/>
    <path d="M24,22H0V3h24V22zM2,20h20V5H2V20z" fill="#7B7B7B"/>
    <path d="M9,16H4v-1h5V16zM9,18H4v-1h5V18z" fill="#6D6E71"/>
    <polygon points="7.4803,6.2197 6.4197,7.2803 8.1393,9 4,9 4,10.5 8.1393,10.5 6.4197,12.2197 7.4803,13.2803 11.0107,9.75" fill="#6485C3" stroke-linejoin="miter"/>
    <path d="M20.9761,17.583c-0.0822,-0.9137,-0.8721,-2.5778,-3.3977,-3.4579c-0.2848,-0.1025,-0.4569,-0.3024,-0.5659,-0.4793c-0.0022,-0.0066,1.2216,-0.0964,1.7594,-0.4807c0.112,-0.08,0.1128,-0.248,-0.0004,-0.3261c-0.3659,-0.2524,-0.4934,-0.6535,-0.5624,-1.0705c-0.0734,-0.4435,-0.0961,-0.8987,-0.1028,-1.3493c-0.0096,-0.6493,-0.0418,-1.2894,-0.2513,-1.9132c-0.3864,-1.1504,-1.4897,-1.564,-2.3586,-1.4996c-0.3028,0.0224,-0.5783,0.143,-0.8188,0.3385c-0.0599,0.0487,-0.1468,0.0946,-0.2197,0.0923c-0.7293,-0.0231,-1.1651,0.4077,-1.3983,0.9776c-0.1549,0.3785,-0.2358,0.7777,-0.2441,1.1824c-0.0096,0.4674,0.0194,0.9359,0.0412,1.4035c0.0227,0.4844,-0.0117,0.9571,-0.2433,1.3953c-0.1082,0.2046,-0.2074,0.3242,-0.3829,0.4497c-0.1125,0.0804,-0.1136,0.2461,-0.0015,0.327c0.3243,0.2342,0.8762,0.388,1.7585,0.4731c-0.1015,0.19,-0.2765,0.3703,-0.5782,0.4793c-2.5158,0.8801,-3.3037,2.5442,-3.3855,3.4579l-0.0233,0.2601c-0.0076,0.0847,0.0717,0.157,0.1723,0.157h10.6537c0.101,0,0.1806,-0.0723,0.173,-0.157L20.9761,17.583z" fill="#6485C3"/>
  </g>
</svg>
