<?xml version="1.0" encoding="UTF-8"?>
<!DOCTYPE svg PUBLIC "-//W3C//DTD SVG 1.1//EN" "http://www.w3.org/Graphics/SVG/1.1/DTD/svg11.dtd">
<svg version="1.1" id="Layer_1" xmlns="http://www.w3.org/2000/svg" xmlns:xlink="http://www.w3.org/1999/xlink" x="0px" y="0px" width="24px" height="24px" viewBox="0 0 24 24" enable-background="new 0 0 24 24" xml:space="preserve">
  <g id="icon">
    <path d="M13.5549,1.0331c-4.6622,0,-8.5413,3.3472,-9.3615,7.7669H16.2v10.8829c3.9718,-1.145,6.8767,-4.8029,6.8767,-9.1388C23.0767,5.2913,18.8136,1.0331,13.5549,1.0331z" fill="#FFFFFF" opacity="0.5"/>
    <path d="M13.5,0C8.289,0,3.9532,3.8159,3.1383,8.8h1.9068c0.29,-1.4434,0.94,-2.7579,1.8541,-3.8444c0.5547,0.2574,1.1817,0.5144,1.872,0.7418C8.3156,6.7001,7.9743,7.7586,7.7867,8.8h0.9296c0.1878,-0.9515,0.5142,-1.9211,0.9406,-2.8381c1.0283,0.2757,2.1661,0.4711,3.3803,0.5085V8.8h0.913V6.468c1.1896,-0.0431,2.3055,-0.2385,3.2992,-0.4998c0.601,1.315,1.0002,2.7393,1.0826,4.0646H16.2v0.913h2.1373c-0.0681,1.3425,-0.46,2.7832,-1.0579,4.1072c-0.3615,-0.1022,-0.7212,-0.1887,-1.0794,-0.2625v0.9329c0.2218,0.0489,0.4442,0.1027,0.6676,0.1631c-0.2068,0.384,-0.4307,0.7521,-0.6676,1.0999v1.5194c0.5896,-0.691,1.1147,-1.4938,1.556,-2.3498c0.5392,0.1811,1.0824,0.3956,1.6286,0.6425c-0.9026,0.8439,-1.9855,1.4962,-3.1846,1.8924v1.9566c4.4855,-1.1946,7.8,-5.2909,7.8,-10.1474C24,4.7103,19.2897,0,13.5,0zM9.1794,4.8702c-0.5881,-0.1884,-1.129,-0.4007,-1.618,-0.617c0.9692,-0.9218,2.1508,-1.6213,3.4642,-2.0154C10.3338,2.9851,9.7039,3.888,9.1794,4.8702zM13.0372,5.5569c-1.0545,-0.0348,-2.0487,-0.1969,-2.9576,-0.4281c0.7312,-1.3256,1.6617,-2.479,2.6548,-3.2187c0.1006,-0.0089,0.2012,-0.0177,0.3028,-0.0231V5.5569zM13.9502,5.5544V1.8861c0.0848,0.0044,0.1686,0.0125,0.2528,0.0193c0.9844,0.7381,1.9063,1.8957,2.6295,3.2277C15.954,5.3527,14.9813,5.5145,13.9502,5.5544zM15.8812,2.2113c1.3466,0.3875,2.5583,1.0942,3.5487,2.0336c-0.4864,0.2124,-1.0576,0.4345,-1.6964,0.6346C17.2087,3.8813,16.5762,2.9653,15.8812,2.2113zM18.1363,5.7089c0.7555,-0.2431,1.4168,-0.5131,1.9577,-0.7613c1.1725,1.3902,1.915,3.1538,2.0186,5.0851h-2.8658C19.1676,8.6138,18.7607,7.1067,18.1363,5.7089zM20.052,16.1008c-0.637,-0.3003,-1.2711,-0.5589,-1.9011,-0.775c0.638,-1.4586,1.0325,-3.0085,1.0998,-4.3799h2.8636C22.0138,12.9083,21.2528,14.6981,20.052,16.1008z" fill="#7B7B7B"/>
    <polygon points="14.4,19.95 10.8618,23.3 1,23.3 1,14.3 4.4378,10.8 14.4,10.8" fill="#FFFFFF" stroke-linejoin="miter" opacity="0.5"/>
    <path d="M3.4573,10L0.0694,13.5H0v10.5h11.9632l0.0225,0.0242L15,20.8267V10H3.4573zM11,22.5H1.5v-7.5h9.5V22.5zM11.0393,14H1.784l2.2586,-2.5h8.7966L11.0393,14zM13.5,20.2313l-1.5,1.7895v-7.602l1.5,-2V20.2313z" fill="#EEAC55"/>
    <polygon points="7,15 7,17 6,17 6,15 5,15 5,18 8,18 8,15" fill="#7B7B7B" stroke-linejoin="miter"/>
  </g>
</svg>
