<?xml version="1.0" encoding="UTF-8"?>
<!DOCTYPE svg PUBLIC "-//W3C//DTD SVG 1.1//EN" "http://www.w3.org/Graphics/SVG/1.1/DTD/svg11.dtd">
<svg version="1.1" id="Layer_1" xmlns="http://www.w3.org/2000/svg" xmlns:xlink="http://www.w3.org/1999/xlink" x="0px" y="0px" width="24px" height="24px" viewBox="0 0 24 24" enable-background="new 0 0 24 24" xml:space="preserve">
  <g id="icon">
    <path d="M14.7213,13.5c-0.1767,0,-0.3463,-0.0552,-0.4902,-0.1595l-2.2131,-1.6052l-2.2116,1.6039c-0.1441,0.1046,-0.3138,0.1599,-0.4907,0.1599c-0.1775,0,-0.3477,-0.0556,-0.4921,-0.1607c-0.2936,-0.214,-0.4151,-0.5898,-0.3024,-0.9351l0.8458,-2.5901L7.1474,8.195c-0.293,-0.2135,-0.4143,-0.5887,-0.302,-0.9335c0.1123,-0.3447,0.4313,-0.5763,0.7938,-0.5763h2.7413l0.8429,-2.5774c0.1126,-0.3446,0.4319,-0.5761,0.7945,-0.5761s0.6819,0.2316,0.7946,0.5763l0.8429,2.5773h2.7425c0.3624,0,0.6813,0.2315,0.7935,0.5761c0.1123,0.3446,-0.009,0.7196,-0.3019,0.933L14.6688,9.813l0.8464,2.5919c0.1128,0.345,-0.0086,0.7205,-0.302,0.9343C15.0687,13.4444,14.8986,13.5,14.7213,13.5z" fill="#FFFFFF" opacity="0.5"/>
    <path d="M12,0C7.0374,0,3,4.0471,3,9.0216c0,1.8735,0.5678,3.6703,1.642,5.1963c1.4565,2.069,6.5382,8.7124,6.5894,8.7792L11.9986,24l0.769,-1.0015c0.211,-0.2748,5.1835,-6.7533,6.6249,-8.8299C20.4441,12.6534,21,10.8736,21,9.0216C21,4.0471,16.9626,0,12,0zM7.3496,7.9175c-0.1725,-0.1257,-0.2439,-0.3466,-0.1778,-0.5497c0.0661,-0.2028,0.2539,-0.3392,0.4673,-0.3392h2.9903l0.9203,-2.8141c0.0663,-0.2031,0.2544,-0.3395,0.4681,-0.3395s0.4018,0.1364,0.4682,0.3395l0.9203,2.8141h2.9915c0.2133,0,0.4009,0.1363,0.467,0.339c0.0661,0.2028,-0.0053,0.4235,-0.1776,0.549l-2.4223,1.7658l0.9239,2.829c0.0664,0.2032,-0.0051,0.4243,-0.1779,0.5502c-0.0853,0.0621,-0.1855,0.095,-0.2896,0.095c-0.1038,0,-0.2037,-0.0326,-0.2887,-0.0942l-2.4147,-1.7514l-2.4132,1.7501c-0.0852,0.0618,-0.1852,0.0945,-0.2891,0.0945c-0.1044,0,-0.2046,-0.0329,-0.29,-0.095c-0.1729,-0.126,-0.2445,-0.3474,-0.178,-0.5509l0.9232,-2.8272L7.3496,7.9175z" fill="#6485C3"/>
  </g>
</svg>
