<?xml version="1.0" encoding="UTF-8"?>
<!DOCTYPE svg PUBLIC "-//W3C//DTD SVG 1.1//EN" "http://www.w3.org/Graphics/SVG/1.1/DTD/svg11.dtd">
<svg version="1.1" id="Layer_1" xmlns="http://www.w3.org/2000/svg" xmlns:xlink="http://www.w3.org/1999/xlink" x="0px" y="0px" width="24px" height="24px" viewBox="0 0 24 24" enable-background="new 0 0 24 24" xml:space="preserve">
  <g id="icon">
    <path d="M12.0381,1c-4.5629,0,-8.2619,3.6642,-8.2619,8.1843c0,1.7535,0.5567,3.3782,1.5045,4.7102C6.7761,15.9959,12.0381,22.8,12.0381,22.8s5.2969,-6.8236,6.789,-8.9503C19.7557,12.5262,20.3,10.9182,20.3,9.1843C20.3,4.6642,16.601,1,12.0381,1z" fill="#FFFFFF" opacity="0.5"/>
    <path d="M11.2314,22.9971c-0.0511,-0.0668,-5.1329,-6.7102,-6.5894,-8.7792C3.5678,12.692,3,10.8951,3,9.0216C3,4.0471,7.0374,0,12,0c4.9626,0,9,4.0471,9,9.0216c0,1.852,-0.5559,3.6317,-1.6075,5.147c-1.4414,2.0766,-6.4139,8.5551,-6.6249,8.8299L11.9986,24L11.2314,22.9971zM12,1.9646c-3.891,0,-7.0566,3.1658,-7.0566,7.057c0,1.4629,0.4433,2.8659,1.282,4.0573c1.0882,1.5458,4.3301,5.8137,5.7758,7.7108c1.4536,-1.9019,4.7155,-6.1866,5.8003,-7.7494c0.821,-1.183,1.255,-2.5726,1.255,-4.0187C19.0566,5.1304,15.891,1.9646,12,1.9646z" fill="#7B7B7B"/>
    <path d="M12.7137,12.2246h-1.5064l0.0003,-1.2004c0.0098,-0.3526,0.1454,-0.6847,0.3921,-0.9602c0.16,-0.1788,0.3548,-0.3554,0.5789,-0.5248c0.0626,-0.0473,0.1234,-0.1003,0.1938,-0.1616c0.1019,-0.0887,0.2174,-0.1892,0.366,-0.2967c0.1759,-0.127,0.3413,-0.2754,0.4916,-0.441c0.0824,-0.0908,0.1442,-0.23,0.2296,-0.4225l0.0443,-0.0994c0.0788,-0.1754,0.1188,-0.3971,0.1188,-0.6588c0,-0.2096,-0.0386,-0.3852,-0.118,-0.5367c-0.0882,-0.1684,-0.2012,-0.3067,-0.3454,-0.423c-0.1543,-0.1242,-0.3302,-0.218,-0.5376,-0.2865c-0.2142,-0.0707,-0.4372,-0.1067,-0.6625,-0.1067c-0.2029,0,-0.3884,0.0209,-0.5513,0.0623c-0.1685,0.0428,-0.324,0.1002,-0.4619,0.1706c-0.1442,0.0736,-0.2753,0.1567,-0.3896,0.2468c-0.1089,0.0859,-0.4138,0.3739,-0.5361,0.4989L8.9433,6.0318c0.1118,-0.1143,0.4783,-0.4691,0.6802,-0.6284c0.1915,-0.1511,0.406,-0.2875,0.6376,-0.4058c0.2376,-0.1213,0.4988,-0.2186,0.7763,-0.289c0.2841,-0.072,0.5941,-0.1085,0.9218,-0.1085c0.386,0,0.7678,0.0615,1.1348,0.1826c0.3769,0.1244,0.7168,0.3075,1.0103,0.5438c0.3042,0.2452,0.5514,0.547,0.7348,0.8971c0.1924,0.3674,0.2899,0.7831,0.2899,1.2357c0,0.476,-0.0845,0.9054,-0.2513,1.2764l-0.0411,0.0923c-0.1151,0.2595,-0.2455,0.5537,-0.4913,0.8245c-0.2206,0.2429,-0.4644,0.4614,-0.7247,0.6494c-0.0931,0.0673,-0.1737,0.1374,-0.259,0.2117c-0.0837,0.0729,-0.1703,0.1482,-0.2743,0.2269c-0.1469,0.1111,-0.2697,0.2215,-0.3652,0.3281c-0.0035,0.0039,-0.0063,0.0073,-0.0084,0.01V12.2246zM12.7075,11.0874L12.7075,11.0874L12.7075,11.0874zM11.92,13.0948c-0.5826,0,-1.0548,0.4713,-1.0548,1.0526c0,0.5813,0.4723,1.0526,1.0548,1.0526s1.0548,-0.4713,1.0548,-1.0526C12.9748,13.5661,12.5026,13.0948,11.92,13.0948z" fill="#7B7B7B"/>
  </g>
</svg>
