<?xml version="1.0" encoding="UTF-8"?>
<!DOCTYPE svg PUBLIC "-//W3C//DTD SVG 1.1//EN" "http://www.w3.org/Graphics/SVG/1.1/DTD/svg11.dtd">
<svg version="1.1" id="Layer_1" xmlns="http://www.w3.org/2000/svg" xmlns:xlink="http://www.w3.org/1999/xlink" x="0px" y="0px" width="24px" height="24px" viewBox="0 0 24 24" enable-background="new 0 0 24 24" xml:space="preserve">
  <g id="icon">
    <path d="M17.475,22H6.425c-0.8146,0,-1.475,-0.6604,-1.475,-1.475V6.475C4.95,5.6604,5.6104,5,6.425,5h11.05c0.8146,0,1.475,0.6604,1.475,1.475v14.05C18.95,21.3396,18.2896,22,17.475,22z" fill="#FFFFFF" opacity="0.5"/>
    <path d="M14,3.6V2.325c0,-0.3998,-0.3252,-0.725,-0.725,-0.725h-2.55c-0.3998,0,-0.725,0.3252,-0.725,0.725V3.6H9V2.325C9,1.043,10.043,0,11.325,0h1.35C13.957,0,15,1.043,15,2.325V3.6H14z" fill="#9070B1"/>
    <path d="M16.7875,4h-9.575C5.4383,4,4,5.4383,4,7.2125v12.575C4,21.5617,5.4383,23,7.2125,23h9.575C18.5617,23,20,21.5617,20,19.7875V7.2125C20,5.4383,18.5617,4,16.7875,4zM18,19.7875c0,0.6696,-0.5429,1.2125,-1.2125,1.2125H16.1h-1.1h-1h-4H9H8h-0.7875C6.5429,21,6,20.4571,6,19.7875V7.2125C6,6.5429,6.5429,6,7.2125,6H8h1h1h4h1h1.1h0.6875C17.4571,6,18,6.5429,18,7.2125V19.7875z" fill="#9070B1"/>
    <path d="M9,24H7v-1h2V24zM17,23h-2v1h2V23z" fill="#9070B1"/>
    <path d="M10,20H9V7h1V20zM15,7h-1v13h1V7z" fill="#9070B1"/>
  </g>
</svg>
