<?xml version="1.0" encoding="UTF-8"?>
<!DOCTYPE svg PUBLIC "-//W3C//DTD SVG 1.1//EN" "http://www.w3.org/Graphics/SVG/1.1/DTD/svg11.dtd">
<svg version="1.1" id="Layer_1" xmlns="http://www.w3.org/2000/svg" xmlns:xlink="http://www.w3.org/1999/xlink" x="0px" y="0px" width="24px" height="24px" viewBox="0 0 24 24" enable-background="new 0 0 24 24" xml:space="preserve">
  <g id="icon">
    <path d="M0.8,3.4732L8.3096,0.8868l7.4808,2.5864L23.3,1.037v19.4898l-7.5096,2.5864l-7.4808,-2.5864L0.8,22.963V3.4732z" fill="#FFFFFF" opacity="0.5"/>
    <path d="M0,2.9982L8.3215,0.1484l7.3671,2.5326L24,0v21.0018l-8.3215,2.8498L8.3114,21.319L0,24V2.9982zM15.6366,21.7041L22,19.4908V2.7388L15.6265,4.827L8.2634,2.2959L2,4.5092v16.752l6.2735,-2.0882L15.6366,21.7041z" fill="#7B7B7B"/>
    <path d="M6,18.775H3v-3h3V18.775zM21,5.275h-3v3h3V5.275zM5.25,14.275h-1.5c0,-0.6521,0.0313,-1.2484,0.0929,-1.7724l1.4897,0.1753C5.2778,13.1439,5.25,13.6813,5.25,14.275zM19.8253,13.1604l-1.4187,-0.4871c-0.3248,0.9462,-0.7862,1.0738,-1.1947,1.0738c-0.117,0,-0.246,-0.0125,-0.3834,-0.0371l-0.2643,1.4766c0.2244,0.0401,0.4423,0.0605,0.6477,0.0605C18.0774,15.2471,19.2333,14.8851,19.8253,13.1604zM15.6625,13.319c-0.7811,-0.353,-1.6327,-0.8698,-2.671,-1.537l-0.8109,1.262c1.094,0.703,1.9997,1.2513,2.8642,1.6419L15.6625,13.319zM11.7976,11.011c-0.945,-0.6064,-1.9469,-1.2244,-2.8717,-1.6359l-0.6098,1.3705c0.8332,0.3707,1.7762,0.9534,2.6713,1.5278L11.7976,11.011zM6.8046,10.336c0.1072,0,0.2243,0.0103,0.348,0.0308l0.2439,-1.48c-0.2042,-0.0337,-0.4033,-0.0507,-0.5919,-0.0507c-0.876,0,-2.0445,0.3694,-2.6367,2.1293l1.4217,0.4784C5.918,10.4677,6.388,10.336,6.8046,10.336zM20.25,9.85h-1.5c0,0.5944,-0.0281,1.1312,-0.0837,1.5956l1.4895,0.1781C20.2183,11.1004,20.25,10.5036,20.25,9.85z" fill="#6485C3"/>
    <g>
      <rect x="15" y="3.6" width="1" height="7.1" fill="#7B7B7B"/>
      <rect x="8" y="1.2" width="1" height="5.8" fill="#7B7B7B"/>
      <rect x="8" y="13.5" width="1" height="7" fill="#7B7B7B"/>
      <rect x="15" y="16.9" width="1" height="6" fill="#7B7B7B"/>
    </g>
  </g>
</svg>
