<?xml version="1.0" encoding="UTF-8"?>
<!DOCTYPE svg PUBLIC "-//W3C//DTD SVG 1.1//EN" "http://www.w3.org/Graphics/SVG/1.1/DTD/svg11.dtd">
<svg version="1.1" id="Layer_1" xmlns="http://www.w3.org/2000/svg" xmlns:xlink="http://www.w3.org/1999/xlink" x="0px" y="0px" width="24px" height="24px" viewBox="0 0 24 24" enable-background="new 0 0 24 24" xml:space="preserve">
  <g id="icon">
    <path d="M20.658,0H3.342C1.4992,0,0,1.4992,0,3.342V20.658C0,22.5008,1.4992,24,3.342,24H20.658c1.8428,0,3.342,-1.4992,3.342,-3.342V3.342C24,1.4992,22.5008,0,20.658,0zM10.8068,15.64c-0.236,0.5354,-0.5601,0.9958,-0.9633,1.3685c-0.4003,0.3699,-0.8694,0.6553,-1.3944,0.8484c-0.5154,0.1893,-1.0621,0.2853,-1.625,0.2853c-0.3202,0,-0.6341,-0.0274,-0.9331,-0.0814c-0.2909,-0.0525,-0.5678,-0.1225,-0.8231,-0.2079c-0.2574,-0.0859,-0.4989,-0.1866,-0.7173,-0.2992c-0.2168,-0.1116,-0.5532,-0.3491,-0.7345,-0.4807l-0.0309,-0.0228l0.929,-1.2468l0.0165,0.0121c0.2544,0.1848,0.4604,0.319,0.532,0.3558c0.1482,0.0765,0.3155,0.1459,0.4979,0.2067c0.1853,0.062,0.3893,0.1133,0.6068,0.1525c0.2081,0.0376,0.4291,0.0566,0.6568,0.0566c0.3794,0,0.7457,-0.0638,1.0886,-0.1899c0.3364,-0.1237,0.6228,-0.2973,0.8754,-0.5308c0.2493,-0.2304,0.4443,-0.5097,0.596,-0.8538c0.1489,-0.3378,0.2244,-0.7376,0.2244,-1.1882c0,-0.3763,-0.0562,-0.7211,-0.1669,-1.0246c-0.1036,-0.2836,-0.2519,-0.5179,-0.4534,-0.7164c-0.2026,-0.1993,-0.4649,-0.3596,-0.7796,-0.4763c-0.5261,-0.1948,-1.2299,-0.2346,-2.065,-0.1231c-0.3109,0.0416,-0.6513,0.1102,-1.0114,0.204l-1.1742,0.3056l1.1068,-6.2084h5.3733v1.5549H6.3668L5.902,9.9478c0.0118,-0.0017,0.0238,-0.0033,0.0355,-0.0049c1.0952,-0.1461,2.041,-0.0791,2.8113,0.2064c0.5223,0.1936,0.9697,0.4716,1.3301,0.8262c0.3643,0.3588,0.6412,0.7931,0.8231,1.2912c0.1734,0.4751,0.2612,0.9991,0.2612,1.5578C11.1633,14.4924,11.0433,15.1032,10.8068,15.64zM20.1698,15.6141c-0.2354,0.54,-0.5589,1.0046,-0.9613,1.3809c-0.4004,0.3741,-0.8697,0.6629,-1.3951,0.8581c-0.5159,0.1918,-1.0634,0.289,-1.6276,0.289c-0.3203,0,-0.6347,-0.0277,-0.9344,-0.0824c-0.2913,-0.0532,-0.5686,-0.1241,-0.8243,-0.2105c-0.2576,-0.0869,-0.4994,-0.1889,-0.7179,-0.3028c-0.2169,-0.113,-0.5534,-0.3531,-0.7346,-0.4862l-0.0306,-0.0228l0.9349,-1.2424l0.0175,0.0129c0.254,0.1865,0.4599,0.3224,0.5314,0.3596c0.1476,0.077,0.3148,0.1471,0.4971,0.2086c0.185,0.0626,0.3886,0.1143,0.6058,0.154c0.2078,0.0379,0.4283,0.0571,0.6553,0.0571c0.3785,0,0.7439,-0.0645,1.0858,-0.1915c0.3362,-0.125,0.6224,-0.3005,0.8751,-0.5366c0.25,-0.2338,0.4456,-0.5172,0.5978,-0.8664c0.1498,-0.3435,0.2257,-0.75,0.2257,-1.2081c0,-0.3826,-0.0565,-0.7331,-0.1679,-1.0417c-0.1041,-0.2885,-0.2531,-0.5267,-0.4555,-0.7282c-0.2055,-0.2045,-0.4604,-0.3621,-0.7792,-0.4816c-0.5251,-0.1969,-1.2296,-0.2367,-2.061,-0.1241c-0.3109,0.042,-0.6509,0.1113,-1.0107,0.2061l-1.1807,0.311l1.1131,-6.1409h5.3388v1.5549h-4.0404l-0.459,2.5323c0.0102,-0.0014,0.0204,-0.0028,0.0306,-0.0042c1.0935,-0.148,2.0433,-0.0802,2.8151,0.209c0.5226,0.196,0.9702,0.4771,1.3304,0.8357c0.3636,0.362,0.6398,0.8,0.821,1.302c0.1727,0.4785,0.2603,1.0066,0.2603,1.5697C20.525,14.4577,20.4055,15.0733,20.1698,15.6141z" fill="#7B7B7B"/>
    <path d="M6.824,18.1422c-0.3202,0,-0.6341,-0.0274,-0.9331,-0.0814c-0.2909,-0.0525,-0.5678,-0.1225,-0.8231,-0.2079c-0.2574,-0.0859,-0.499,-0.1866,-0.7173,-0.2992c-0.2168,-0.1116,-0.5532,-0.3491,-0.7345,-0.4807l-0.0309,-0.0228l0.929,-1.2468l0.0165,0.0121c0.2544,0.1848,0.4604,0.319,0.532,0.3558c0.1482,0.0765,0.3155,0.1459,0.4979,0.2067c0.1853,0.062,0.3892,0.1133,0.6068,0.1525c0.2081,0.0376,0.4291,0.0566,0.6568,0.0566c0.3794,0,0.7457,-0.0639,1.0886,-0.1899c0.3364,-0.1237,0.6228,-0.2973,0.8754,-0.5308c0.2493,-0.2304,0.4443,-0.5097,0.596,-0.8538c0.1489,-0.3378,0.2244,-0.7376,0.2244,-1.1882c0,-0.3763,-0.0562,-0.7211,-0.1669,-1.0246c-0.1036,-0.2836,-0.2519,-0.5179,-0.4534,-0.7164c-0.2026,-0.1993,-0.4649,-0.3596,-0.7796,-0.4763c-0.5261,-0.1948,-1.2299,-0.2346,-2.065,-0.1231c-0.3109,0.0416,-0.6513,0.1102,-1.0114,0.204l-1.1742,0.3056l1.1068,-6.2084h5.3733v1.5549H6.3668L5.902,9.9478c0.0118,-0.0017,0.0238,-0.0033,0.0355,-0.0049c1.0952,-0.1461,2.041,-0.0791,2.8113,0.2064c0.5223,0.1936,0.9697,0.4716,1.3301,0.8262c0.3643,0.3588,0.6412,0.7931,0.8231,1.2912c0.1734,0.4751,0.2612,0.9991,0.2612,1.5578c0,0.6679,-0.12,1.2787,-0.3565,1.8154c-0.236,0.5354,-0.5601,0.9958,-0.9633,1.3685c-0.4003,0.3699,-0.8694,0.6553,-1.3944,0.8484C7.9336,18.0462,7.3869,18.1422,6.824,18.1422zM17.8133,17.8531c0.5254,-0.1953,0.9947,-0.484,1.3951,-0.8581c0.4025,-0.3763,0.7259,-0.8409,0.9613,-1.3809c0.2357,-0.5408,0.3552,-1.1564,0.3552,-1.8294c0,-0.5631,-0.0875,-1.0912,-0.2603,-1.5697c-0.1812,-0.5021,-0.4574,-0.9401,-0.821,-1.302c-0.3602,-0.3586,-0.8078,-0.6398,-1.3304,-0.8357c-0.7717,-0.2892,-1.7216,-0.3571,-2.8151,-0.209c-0.0102,0.0014,-0.0204,0.0028,-0.0306,0.0042l0.459,-2.5323h4.0404V5.7853h-5.3388l-1.1131,6.1409l1.1807,-0.311c0.3598,-0.0947,0.6998,-0.1641,1.0107,-0.206c0.8314,-0.1127,1.5359,-0.0728,2.061,0.1241c0.3188,0.1195,0.5737,0.2771,0.7792,0.4816c0.2023,0.2015,0.3514,0.4397,0.4554,0.7282c0.1115,0.3086,0.1679,0.6591,0.1679,1.0417c0,0.458,-0.0759,0.8645,-0.2257,1.2081c-0.1522,0.3492,-0.3478,0.6326,-0.5978,0.8664c-0.2527,0.2361,-0.5389,0.4116,-0.8751,0.5366c-0.3419,0.1271,-0.7073,0.1915,-1.0858,0.1915c-0.227,0,-0.4475,-0.0192,-0.6553,-0.0571c-0.2171,-0.0397,-0.4208,-0.0914,-0.6058,-0.154c-0.1823,-0.0615,-0.3495,-0.1316,-0.4971,-0.2086c-0.0714,-0.0372,-0.2774,-0.173,-0.5314,-0.3596l-0.0175,-0.0129l-0.9349,1.2424l0.0306,0.0228c0.1812,0.1331,0.5177,0.3732,0.7346,0.4862c0.2185,0.1139,0.4603,0.2158,0.7179,0.3028c0.2556,0.0865,0.533,0.1573,0.8243,0.2105c0.2997,0.0547,0.6141,0.0824,0.9344,0.0824C16.7499,18.1422,17.2975,18.0449,17.8133,17.8531z" fill="#FFFFFF" opacity="0.5"/>
  </g>
</svg>
