<?xml version="1.0" encoding="UTF-8"?>
<!DOCTYPE svg PUBLIC "-//W3C//DTD SVG 1.1//EN" "http://www.w3.org/Graphics/SVG/1.1/DTD/svg11.dtd">
<svg version="1.1" id="Layer_1" xmlns="http://www.w3.org/2000/svg" xmlns:xlink="http://www.w3.org/1999/xlink" x="0px" y="0px" width="24px" height="24px" viewBox="0 0 24 24" enable-background="new 0 0 24 24" xml:space="preserve">
  <g id="icon">
    <path d="M10.1145,14.4322c0,0.5812,-0.2267,1.9329,-2.3264,1.9329c-1.8516,0,-2.2402,-1.0511,-2.2402,-1.9329c0,-0.8641,0.3886,-1.894,2.2402,-1.894C9.8878,12.5382,10.1145,13.8627,10.1145,14.4322zM16.3098,7.8691c-1.2515,0,-2.0273,0.6978,-2.0273,4.1712s0.7757,4.1712,2.0273,4.1712c1.2516,0,2.0272,-0.6978,2.0272,-4.1712S17.5614,7.8691,16.3098,7.8691zM11.7775,14.4322c0,-1.0455,-0.4303,-2.0967,-1.35,-2.7822c0.6891,-0.6241,1.0133,-1.5003,1.0133,-2.372c0,-1.6054,-1.1231,-3.2254,-3.632,-3.2254c-2.6243,0,-3.5555,1.7375,-3.5555,3.2254c0,0.8174,0.275,1.7091,0.9473,2.3531c-0.9393,0.7087,-1.3156,1.8056,-1.3156,2.8011c0,1.6588,1.0222,3.5959,3.9032,3.5959C10.5439,18.028,11.7775,16.2221,11.7775,14.4322zM20,12.0403c0,-1.7458,0,-5.8342,-3.6902,-5.8342c-3.6902,0,-3.6902,4.0884,-3.6902,5.8342c0,1.7458,0,5.8342,3.6902,5.8342C20,17.8745,20,13.7861,20,12.0403zM7.8087,10.8752c1.7132,0,1.969,-1.0007,1.969,-1.5972c0,-0.5835,-0.2558,-1.5624,-1.969,-1.5624c-1.2558,0,-1.8925,0.5257,-1.8925,1.5624C5.9162,10.3378,6.5529,10.8752,7.8087,10.8752zM24,12c0,6.6168,-5.3832,12,-12,12S0,18.6168,0,12S5.3832,0,12,0S24,5.3832,24,12z" fill="#CB525D"/>
    <path d="M7.7881,18.0281c-2.881,0,-3.9032,-1.9371,-3.9032,-3.5959c0,-0.9955,0.3763,-2.0924,1.3156,-2.8011c-0.6723,-0.644,-0.9473,-1.5357,-0.9473,-2.3531c0,-1.4879,0.9312,-3.2254,3.5555,-3.2254c2.5089,0,3.632,1.62,3.632,3.2254c0,0.8718,-0.3242,1.7479,-1.0133,2.372c0.9198,0.6855,1.35,1.7366,1.35,2.7822C11.7775,16.2221,10.5439,18.0281,7.7881,18.0281zM7.7881,12.5382c-1.8516,0,-2.2402,1.0299,-2.2402,1.894c0,0.8818,0.3886,1.9329,2.2402,1.9329c2.0997,0,2.3264,-1.3517,2.3264,-1.9329C10.1145,13.8627,9.8878,12.5382,7.7881,12.5382zM7.8087,7.7156c-1.2558,0,-1.8925,0.5257,-1.8925,1.5624c0,1.0598,0.6368,1.5972,1.8925,1.5972c1.7133,0,1.969,-1.0007,1.969,-1.5972C9.7777,8.6945,9.522,7.7156,7.8087,7.7156zM16.3098,17.8745c-3.6902,0,-3.6902,-4.0884,-3.6902,-5.8342s0,-5.8342,3.6902,-5.8342C20,6.2061,20,10.2945,20,12.0403S20,17.8745,16.3098,17.8745zM16.3098,7.8691c-1.2515,0,-2.0273,0.6978,-2.0273,4.1712s0.7757,4.1712,2.0273,4.1712c1.2515,0,2.0272,-0.6978,2.0272,-4.1712S17.5614,7.8691,16.3098,7.8691z" fill="#FFFFFF" opacity="0.5"/>
  </g>
</svg>
