<?xml version="1.0" encoding="UTF-8"?>
<!DOCTYPE svg PUBLIC "-//W3C//DTD SVG 1.1//EN" "http://www.w3.org/Graphics/SVG/1.1/DTD/svg11.dtd">
<svg version="1.1" id="Layer_1" xmlns="http://www.w3.org/2000/svg" xmlns:xlink="http://www.w3.org/1999/xlink" x="0px" y="0px" width="24px" height="24px" viewBox="0 0 24 24" enable-background="new 0 0 24 24" xml:space="preserve">
  <g id="icon">
    <path d="M18.2411,0.9569h1.311c0.5528,2.0883,1.6832,5.7647,1.6832,9.0017c0.0001,2.5334,-2.1319,6.1953,-8.8619,6.6041c-0.4277,1.0393,-0.2597,2.3574,0.2314,3.5724c2.6812,0.1531,5.4977,0.7373,5.4977,1.4365c0,0.8157,-2.7169,1.4769,-6.0683,1.4769s-6.0683,-0.6612,-6.0683,-1.4769c0,-0.6992,2.8165,-1.2835,5.4977,-1.4365c0.491,-1.215,0.6591,-2.5332,0.2313,-3.5724c-6.73,-0.4088,-8.862,-4.0706,-8.862,-6.604c0,-3.2176,1.0043,-7.0509,1.6658,-9.0017h9.58l-1.0223,5.1117L18.2411,0.9569z" fill="#FFFFFF" opacity="0.5"/>
    <path d="M12.0341,23.9986c-1.6464,0,-7.0183,-0.175,-7.0183,-2.427c0,-1.1044,1.3195,-1.5668,2.469,-1.8462c0.9146,-0.2223,2.078,-0.3971,3.2894,-0.495c0.1989,-0.6731,0.2625,-1.2283,0.1824,-1.7741c-2.8953,-0.289,-5.2731,-1.281,-6.8843,-2.8733C2.681,13.2079,1.883,11.713,1.883,9.9586c0,-3.1339,0.9245,-6.9721,1.7161,-9.3067l0.2188,-0.645h11.4198l-0.642,3.2102l3.256,-3.2102h2.4318l0.1871,0.7069c0.0682,0.2576,0.1453,0.5397,0.2279,0.8423c0.5921,2.1666,1.4868,5.4409,1.4868,8.4024c0,1.7543,-0.7979,3.2492,-2.1894,4.6244c-1.6111,1.5924,-3.9889,2.5843,-6.8842,2.8733c-0.0801,0.5459,-0.0165,1.1011,0.1824,1.7741c1.2115,0.0979,2.3748,0.2727,3.2894,0.495c1.1496,0.2794,2.469,0.7418,2.469,1.8462C19.0524,23.8236,13.6805,23.9986,12.0341,23.9986zM7.7115,21.6271c0.9096,0.2521,2.3822,0.4715,4.3226,0.4715c1.9403,0,3.4129,-0.2194,4.3226,-0.4715c-0.8293,-0.2189,-2.1471,-0.4489,-3.8062,-0.5436l-0.5164,-0.0295l-0.5164,0.0295C9.8585,21.1782,8.5409,21.4083,7.7115,21.6271zM5.189,1.9069C4.5011,4.1162,3.783,7.347,3.783,9.9586c0,1.2316,0.6075,2.3673,1.625,3.373c1.4086,1.3922,3.6025,2.1162,6.3445,2.2828l0.2816,0.017l0.2816,-0.0171c2.7419,-0.1665,4.9359,-0.8905,6.3445,-2.2827c1.0175,-1.0057,1.625,-2.1414,1.625,-3.373c0,-2.7064,-0.8542,-5.8325,-1.4194,-7.9011l-0.0412,-0.1506h-0.1939l-7.1134,7.0133L12.92,1.9069H5.189z" fill="#EEAC55"/>
  </g>
</svg>
