<?xml version="1.0" encoding="UTF-8"?>
<!DOCTYPE svg PUBLIC "-//W3C//DTD SVG 1.1//EN" "http://www.w3.org/Graphics/SVG/1.1/DTD/svg11.dtd">
<svg version="1.1" id="Layer_1" xmlns="http://www.w3.org/2000/svg" xmlns:xlink="http://www.w3.org/1999/xlink" x="0px" y="0px" width="24px" height="24px" viewBox="0 0 24 24" enable-background="new 0 0 24 24" xml:space="preserve">
  <g id="icon">
    <path d="M3,21.75h4.5v0.775c0,0.8134,-0.6617,1.475,-1.475,1.475h-1.55C3.6617,24,3,23.3383,3,22.525V21.75zM16.5,21.75v0.775c0,0.8134,0.6617,1.475,1.475,1.475h1.55c0.8134,0,1.475,-0.6617,1.475,-1.475v-0.775H16.5z" fill="#7B7B7B"/>
    <path d="M14,19.5v1.5h-4v-1.5v-3.6v-2.0864l1.9777,-0.698L14,13.8174V15.9V19.5zM22,11.9045v7.608c0,0.8202,-0.6673,1.4875,-1.4875,1.4875H15v-7.9674l-3.0276,-0.9981L9,13.0364V21H3.4875C2.6673,21,2,20.3327,2,19.5125v-7.6152l1,-0.7V1.4875C3,0.6673,3.6673,0,4.4875,0h15.025C20.3327,0,21,0.6673,21,1.4875v9.692L22,11.9045zM7.5,16c0,-1.1028,-0.8972,-2,-2,-2s-2,0.8972,-2,2s0.8972,2,2,2S7.5,17.1028,7.5,16zM19,10V3H5v7H19zM20.5,16c0,-1.1028,-0.8972,-2,-2,-2s-2,0.8972,-2,2s0.8972,2,2,2S20.5,17.1028,20.5,16z" fill="#7B7B7B"/>
    <path d="M7.5,16c0,1.1028,-0.8972,2,-2,2s-2,-0.8972,-2,-2s0.8972,-2,2,-2S7.5,14.8972,7.5,16zM18.5,14c-1.1028,0,-2,0.8972,-2,2s0.8972,2,2,2s2,-0.8972,2,-2S19.6028,14,18.5,14z" fill="#FFFFFF" opacity="0.5"/>
    <path d="M19,10H5V3h14V10zM6,9h12V4H6V9z" fill="#FFFFFF" opacity="0.5"/>
    <polygon points="11.9724,12.0344 9,13.0364 9,21 10,21 10,19.5 10,15.9 10,13.8136 11.9777,13.1156 14,13.8174 14,15.9 14,19.5 14,21 15,21 15,13.0326" fill="#FFFFFF" stroke-linejoin="miter" opacity="0.5"/>
    <g>
      <path d="M21.8,3h-0.3v6h0.3c0.6617,0,1.2,-0.5383,1.2,-1.2V4.2C23,3.5383,22.4617,3,21.8,3z" fill="#7B7B7B"/>
      <path d="M2.5,3h-0.3c-0.6617,0,-1.2,0.5383,-1.2,1.2v3.6c0,0.6617,0.5383,1.2,1.2,1.2h0.3V3z" fill="#7B7B7B"/>
    </g>
    <rect x="6" y="4" width="12" height="5" fill="#6485C3"/>
  </g>
</svg>
