<?xml version="1.0" encoding="UTF-8"?>
<!DOCTYPE svg PUBLIC "-//W3C//DTD SVG 1.1//EN" "http://www.w3.org/Graphics/SVG/1.1/DTD/svg11.dtd">
<svg version="1.1" id="Layer_1" xmlns="http://www.w3.org/2000/svg" xmlns:xlink="http://www.w3.org/1999/xlink" x="0px" y="0px" width="24px" height="24px" viewBox="0 0 24 24" enable-background="new 0 0 24 24" xml:space="preserve">
  <g id="icon">
    <path d="M8.7389,21.5045L7.6475,24H2.95l1.4865,-3.1351C4.9728,20.9753,6.8129,21.2872,8.7389,21.5045zM14.2763,21.5291L15.3525,24H20.05l-1.4803,-3.125C17.5473,21.168,15.6307,21.3953,14.2763,21.5291z" fill="#6485C3"/>
    <path d="M15.05,1.95h1.6331c0.9199,0,1.7524,0.8774,1.9962,1.6903c0.2289,0.7637,0.947,3.4827,1.1098,4.1087c0.1035,0.3978,0.156,0.8371,0.1831,1.251h-8.0248V5.9209c1.915,-0.346,3.1316,-1.793,3.1316,-3.5209C15.0789,2.2475,15.0684,2.0976,15.05,1.95zM11.0526,5.9209C9.1377,5.5748,7.9211,4.1279,7.9211,2.4c0,-0.1525,0.0106,-0.3024,0.029,-0.45H6.3459c-0.9271,0,-1.7664,0.877,-2.0123,1.6895c-0.2323,0.7675,-0.9565,3.4838,-1.1206,4.1088c-0.1046,0.398,-0.1575,0.8376,-0.1849,1.2517h8.0245V5.9209zM20,10v6.5349c0,1.3804,-1.1486,2.8447,-1.546,3.1009c-0.3875,0.2372,-3.3127,0.6567,-5.7955,0.8309l-0.4141,0.0291l-0.0003,0.0543h-0.2967c-0.1213,0,-0.249,-0.0019,-0.3815,-0.0056h-0.0237c-0.145,0.0037,-0.2839,0.0056,-0.4151,0.0056h-0.2997l0.0003,-0.0591l-0.4154,-0.0318c-2.4709,-0.1893,-5.4171,-0.7,-5.7621,-0.7844C3.9985,19.5156,3,17.8038,3,16.5349V10h7.7544h1.4912H20zM9.9839,14.025c0,-1.1166,-0.9031,-2.025,-2.0132,-2.025s-2.0132,0.9084,-2.0132,2.025s0.9031,2.025,2.0132,2.025S9.9839,15.1416,9.9839,14.025zM17.0424,14.025c0,-1.1166,-0.9031,-2.025,-2.0132,-2.025c-1.11,0,-2.0132,0.9084,-2.0132,2.025s0.9031,2.025,2.0132,2.025C16.1393,16.05,17.0424,15.1416,17.0424,14.025z" fill="#7B7B7B"/>
    <path d="M15.05,16.05c-1.1166,0,-2.025,-0.9084,-2.025,-2.025S13.9334,12,15.05,12s2.025,0.9084,2.025,2.025S16.1666,16.05,15.05,16.05zM7.95,16.05c-1.1166,0,-2.025,-0.9084,-2.025,-2.025S6.8334,12,7.95,12s2.025,0.9084,2.025,2.025S9.0666,16.05,7.95,16.05zM11.5,4.8c-1.3233,0,-2.4,-1.0767,-2.4,-2.4s1.0767,-2.4,2.4,-2.4s2.4,1.0767,2.4,2.4S12.8233,4.8,11.5,4.8z" fill="#FFFFFF" opacity="0.5"/>
    <path d="M11.5,4.8c-1.3233,0,-2.4,-1.0767,-2.4,-2.4s1.0767,-2.4,2.4,-2.4s2.4,1.0767,2.4,2.4S12.8233,4.8,11.5,4.8z" fill="#7B7B7B"/>
    <path d="M11.95,9V5.9209C13.8762,5.5748,15.1,4.1279,15.1,2.4c0,-0.1525,-0.0106,-0.3024,-0.0291,-0.45h-1.2146C13.884,2.0959,13.9,2.2461,13.9,2.4c0,1.3233,-1.0767,2.4,-2.4,2.4S9.1,3.7233,9.1,2.4c0,-0.1539,0.016,-0.3041,0.0438,-0.45H7.9291C7.9106,2.0976,7.9,2.2475,7.9,2.4c0,1.7279,1.2238,3.1748,3.15,3.5209V9h-8.1v1h7.8h1.5h7.8V9H11.95z" fill="#FFFFFF" opacity="0.5"/>
  </g>
</svg>
