<?xml version="1.0" encoding="UTF-8"?>
<!DOCTYPE svg PUBLIC "-//W3C//DTD SVG 1.1//EN" "http://www.w3.org/Graphics/SVG/1.1/DTD/svg11.dtd">
<svg version="1.1" id="Layer_1" xmlns="http://www.w3.org/2000/svg" xmlns:xlink="http://www.w3.org/1999/xlink" x="0px" y="0px" width="24px" height="24px" viewBox="0 0 24 24" enable-background="new 0 0 24 24" xml:space="preserve">
  <g id="icon">
    <path d="M5.6618,4.9969c-0.5147,0,-0.7882,0.2239,-0.8639,0.5975c-0.6769,2.4954,-2.9369,12.5325,-3.7456,15.5137c-0.153,0.49,0.1894,0.8586,0.6573,0.8888c3.5932,0,8.1836,0,9.7607,0c0.2878,0,0.4492,0,0.4492,0c1.577,0,6.7675,0,10.3607,0c0.4679,-0.0302,0.8103,-0.3988,0.6573,-0.8888c-0.8087,-2.9812,-2.9933,-13.0183,-3.6702,-15.5137c-0.0757,-0.3737,-0.4493,-0.5975,-0.9639,-0.5975C17.077,4.9969,6.8469,4.9969,5.6618,4.9969z" fill="#FFFFFF" opacity="0.5"/>
    <path d="M1.6531,22.9984l-0.0081,-0.0005c-0.5585,-0.0361,-1.0495,-0.3053,-1.3471,-0.7387c-0.2852,-0.4152,-0.3583,-0.9224,-0.2058,-1.4281c0.4192,-1.5462,1.2811,-4.8496,2.1146,-8.0442l0.0082,-0.0313c0.7625,-2.9225,1.2828,-6.1832,1.6107,-7.3938C4.0152,4.509,4.7011,4,5.6617,4h12.6415c0.7328,0,1.685,0.2845,1.9358,1.3613c0.3267,1.2054,0.832,4.4741,1.5787,7.4054l0.0098,0.0386c0.8123,3.188,1.6522,6.4847,2.0718,8.0327c0.1505,0.4989,0.0775,1.0061,-0.2077,1.4213c-0.2976,0.4333,-0.7886,0.7025,-1.3471,0.7386L22.3124,23L1.6531,22.9984zM21.8718,21c-0.4462,-1.6717,-1.0251,-4.7287,-1.7798,-7.6909l-0.0124,-0.0486c-0.7021,-2.7559,-1.3663,-5.8635,-1.7125,-7.1592c-0.1461,-0.05,0.126,-0.1013,-0.0639,-0.1013H5.7249c-0.3407,1.2638,-0.8381,4.4369,-1.5748,7.2605l-0.0066,0.0253C3.368,16.2582,2.5677,19.3254,2.118,21H21.8718z" fill="#7B7B7B"/>
    <path d="M8.7293,5.5784c-0.3279,-0.5823,-0.4806,-1.1424,-0.4806,-1.7628c0,-2.0678,1.6822,-3.75,3.75,-3.75s3.75,1.6822,3.75,3.75c0,0.616,-0.1509,1.1729,-0.4748,1.7524l-1.3093,-0.7318c0.2018,-0.3611,0.2841,-0.6568,0.2841,-1.0206c0,-1.2406,-1.0094,-2.25,-2.25,-2.25s-2.25,1.0094,-2.25,2.25c0,0.3666,0.0833,0.664,0.2876,1.0267L8.7293,5.5784z" fill="#7B7B7B"/>
    <polygon points="11.1654,12.045 10.1108,10.9783 7.5039,13.5554 7.5026,11.0465 6.0026,11.0472 6.004,13.8969 6.0026,13.8969 6.0026,18.2469 7.5026,18.2469 7.5026,15.7418 10.0932,18.3219 11.1517,17.2592 8.5312,14.6492" fill="#7B7B7B" stroke-linejoin="miter"/>
    <path d="M15.2884,18.172c-0.5243,0,-1.0075,-0.0828,-1.4361,-0.2462c-0.4461,-0.1701,-0.8322,-0.4208,-1.1476,-0.7453c-0.3127,-0.3217,-0.5548,-0.713,-0.7192,-1.1629c-0.1581,-0.4323,-0.2384,-0.9188,-0.2384,-1.4456c0,-0.5229,0.0792,-1.0072,0.2356,-1.4394c0.1629,-0.4501,0.4033,-0.8416,0.7148,-1.1637c0.3125,-0.3234,0.6927,-0.5744,1.1298,-0.746c0.4243,-0.1666,0.8998,-0.2509,1.4134,-0.2509c0.2419,0,0.4697,0.0154,0.6771,0.0457c0.2187,0.0321,0.427,0.0823,0.6193,0.1493c0.1992,0.0694,0.3897,0.1599,0.5665,0.2689c0.1657,0.1022,0.3282,0.2227,0.4832,0.3579l-0.9864,1.13c-0.093,-0.0812,-0.1887,-0.1523,-0.2843,-0.2112c-0.0844,-0.0521,-0.1761,-0.0956,-0.2727,-0.1292c-0.1027,-0.0358,-0.2182,-0.0633,-0.343,-0.0815c-0.1354,-0.0198,-0.2902,-0.0299,-0.4597,-0.0299c-0.3253,0,-0.6164,0.0495,-0.8652,0.1471c-0.2389,0.0938,-0.4351,0.2221,-0.5995,0.3923c-0.1659,0.1716,-0.2911,0.3781,-0.3828,0.6316c-0.097,0.268,-0.1461,0.5806,-0.1461,0.929c0,0.3505,0.0495,0.6635,0.1472,0.9305c0.0927,0.2539,0.219,0.4606,0.386,0.6324c0.1644,0.1691,0.3626,0.2964,0.6063,0.3894c0.2573,0.0981,0.5607,0.1478,0.9018,0.1478c0.16,0,0.3114,-0.0114,0.4499,-0.0341c0.139,-0.0226,0.2715,-0.0546,0.3939,-0.0951c0.1219,-0.0404,0.2395,-0.0897,0.3495,-0.1468c0.007,-0.0037,0.0139,-0.0073,0.0209,-0.0109v-0.8383h-0.9v-1.5h2.4v3.161l-0.3307,0.2229c-0.1606,0.1083,-0.3286,0.2082,-0.4995,0.2967c-0.1804,0.0936,-0.3719,0.1742,-0.5689,0.2394c-0.1971,0.0653,-0.4071,0.1162,-0.6239,0.1516C15.7614,18.154,15.5289,18.172,15.2884,18.172z" fill="#7B7B7B"/>
  </g>
</svg>
