<?xml version="1.0" encoding="UTF-8"?>
<!DOCTYPE svg PUBLIC "-//W3C//DTD SVG 1.1//EN" "http://www.w3.org/Graphics/SVG/1.1/DTD/svg11.dtd">
<svg version="1.1" id="Layer_1" xmlns="http://www.w3.org/2000/svg" xmlns:xlink="http://www.w3.org/1999/xlink" x="0px" y="0px" width="16px" height="16px" viewBox="0 0 16 16" enable-background="new 0 0 16 16" xml:space="preserve">
  <g id="icon">
    <path d="M7.977,15.81c-4.306,0,-7.81,-3.504,-7.81,-7.81S3.671,0.19,7.977,0.19s7.81,3.504,7.81,7.81S12.283,15.81,7.977,15.81zM7.977,1.338c-3.673,0,-6.662,2.989,-6.662,6.662s2.989,6.662,6.662,6.662s6.662,-2.989,6.662,-6.662S11.65,1.338,7.977,1.338z" fill="#C8C6C4" opacity="0.5"/>
    <path d="M1.577,12.565C0.619,11.226,0.113,9.647,0.113,8s0.506,-3.226,1.464,-4.565l0.146,-0.204l1.019,0.733l-0.145,0.203C1.794,5.292,1.369,6.617,1.369,8s0.425,2.708,1.228,3.833l0.145,0.203l-1.019,0.733L1.577,12.565z" fill="#238BCB"/>
  </g>
</svg>
