<?xml version="1.0" encoding="UTF-8"?>
<!DOCTYPE svg PUBLIC "-//W3C//DTD SVG 1.1//EN" "http://www.w3.org/Graphics/SVG/1.1/DTD/svg11.dtd">
<svg version="1.1" id="Layer_1" xmlns="http://www.w3.org/2000/svg" xmlns:xlink="http://www.w3.org/1999/xlink" x="0px" y="0px" width="16px" height="16px" viewBox="0 0 16 16" enable-background="new 0 0 16 16" xml:space="preserve">
  <g id="icon">
    <path d="M8.022,15.81c-4.306,0,-7.81,-3.504,-7.81,-7.81S3.716,0.19,8.022,0.19s7.81,3.504,7.81,7.81S12.329,15.81,8.022,15.81zM8.022,1.338C4.349,1.338,1.36,4.327,1.36,8s2.989,6.662,6.662,6.662s6.662,-2.989,6.662,-6.662S11.696,1.338,8.022,1.338z" fill="#C8C6C4" opacity="0.5"/>
    <path d="M14.574,8.877l0.024,-0.248c0.134,-1.375,-0.161,-2.736,-0.853,-3.933c-0.691,-1.198,-1.722,-2.133,-2.98,-2.705l-0.227,-0.103l0.516,-1.145l0.228,0.104c1.499,0.681,2.727,1.795,3.55,3.221c0.824,1.427,1.174,3.047,1.015,4.685l-0.024,0.25L14.574,8.877z" fill="#238BCB"/>
  </g>
</svg>
