<?xml version="1.0" encoding="UTF-8"?>
<!DOCTYPE svg PUBLIC "-//W3C//DTD SVG 1.1//EN" "http://www.w3.org/Graphics/SVG/1.1/DTD/svg11.dtd">
<svg version="1.1" id="Layer_1" xmlns="http://www.w3.org/2000/svg" xmlns:xlink="http://www.w3.org/1999/xlink" x="0px" y="0px" width="16px" height="16px" viewBox="0 0 16 16" enable-background="new 0 0 16 16" xml:space="preserve">
  <g id="icon">
    <path d="M8,15.832c-4.306,0,-7.81,-3.504,-7.81,-7.81S3.694,0.212,8,0.212s7.81,3.504,7.81,7.81S12.306,15.832,8,15.832zM8,1.36c-3.673,0,-6.662,2.989,-6.662,6.662S4.327,14.684,8,14.684s6.662,-2.989,6.662,-6.662S11.673,1.36,8,1.36z" fill="#C8C6C4" opacity="0.5"/>
    <path d="M8.013,15.885c-0.255,0,-0.512,-0.013,-0.766,-0.037l-0.25,-0.024l0.125,-1.249l0.248,0.024c0.212,0.021,0.428,0.031,0.641,0.031c1.152,0,2.291,-0.306,3.292,-0.884c1.198,-0.691,2.133,-1.722,2.705,-2.98l0.103,-0.227l1.145,0.516l-0.104,0.228c-0.681,1.499,-1.795,2.727,-3.221,3.55C10.74,15.521,9.385,15.885,8.013,15.885C8.013,15.885,8.013,15.885,8.013,15.885z" fill="#238BCB"/>
  </g>
</svg>
