<?xml version="1.0" encoding="UTF-8"?>
<!DOCTYPE svg PUBLIC "-//W3C//DTD SVG 1.1//EN" "http://www.w3.org/Graphics/SVG/1.1/DTD/svg11.dtd">
<svg version="1.1" id="Layer_1" xmlns="http://www.w3.org/2000/svg" xmlns:xlink="http://www.w3.org/1999/xlink" x="0px" y="0px" width="16px" height="16px" viewBox="0 0 16 16" enable-background="new 0 0 16 16" xml:space="preserve">
  <g id="icon">
    <path d="M11.404,2.105c-0.26,-0.15,-0.594,-0.061,-0.744,0.199c-0.15,0.26,-0.061,0.594,0.199,0.744c0.26,0.15,0.594,0.061,0.744,-0.199S11.664,2.255,11.404,2.105zM10.188,13.968c-0.301,-0.521,-0.122,-1.187,0.399,-1.488c0.521,-0.301,1.187,-0.122,1.488,0.399c0.301,0.521,0.122,1.187,-0.399,1.488C11.155,14.668,10.489,14.489,10.188,13.968zM14.249,11.608c0.263,-0.456,0.107,-1.039,-0.349,-1.302c-0.456,-0.263,-1.039,-0.107,-1.302,0.349c-0.263,0.456,-0.107,1.039,0.349,1.302C13.403,12.22,13.986,12.064,14.249,11.608zM15.08,8c0,-0.451,-0.366,-0.817,-0.817,-0.817s-0.817,0.366,-0.817,0.817s0.366,0.817,0.817,0.817S15.08,8.451,15.08,8zM13.764,5.458c-0.326,0.188,-0.742,0.076,-0.93,-0.249c-0.188,-0.326,-0.076,-0.742,0.249,-0.93c0.326,-0.188,0.742,-0.076,0.93,0.249C14.201,4.854,14.09,5.27,13.764,5.458zM8,15.488c0.677,0,1.225,-0.549,1.225,-1.225S8.677,13.038,8,13.038s-1.225,0.549,-1.225,1.225S7.323,15.488,8,15.488zM2.382,10.795c0.186,-0.107,0.424,-0.044,0.531,0.142c0.107,0.186,0.044,0.424,-0.142,0.531c-0.186,0.107,-0.424,0.044,-0.531,-0.142C2.132,11.14,2.196,10.902,2.382,10.795zM4.674,13.761c0.186,0.107,0.424,0.044,0.531,-0.142c0.107,-0.186,0.044,-0.424,-0.142,-0.531s-0.424,-0.044,-0.531,0.142C4.424,13.415,4.488,13.653,4.674,13.761zM5.205,2.382c0.107,0.186,0.044,0.424,-0.142,0.531c-0.186,0.107,-0.424,0.044,-0.531,-0.142c-0.107,-0.186,-0.044,-0.424,0.142,-0.531C4.86,2.132,5.098,2.196,5.205,2.382zM2.239,4.674c-0.107,0.186,-0.044,0.424,0.142,0.531c0.186,0.107,0.424,0.044,0.531,-0.142c0.107,-0.186,0.044,-0.424,-0.142,-0.531C2.585,4.424,2.347,4.488,2.239,4.674zM1.348,8c0,0.215,0.174,0.389,0.389,0.389s0.389,-0.174,0.389,-0.389s-0.174,-0.389,-0.389,-0.389S1.348,7.785,1.348,8zM8,1.348c-0.215,0,-0.389,0.174,-0.389,0.389s0.174,0.389,0.389,0.389s0.389,-0.174,0.389,-0.389S8.215,1.348,8,1.348z" fill="#92CBEE" stroke="#0964B0" stroke-width="1" stroke-miterlimit="1"/>
  </g>
</svg>
