<?xml version="1.0" encoding="UTF-8"?>
<!DOCTYPE svg PUBLIC "-//W3C//DTD SVG 1.1//EN" "http://www.w3.org/Graphics/SVG/1.1/DTD/svg11.dtd">
<svg version="1.1" id="Layer_1" xmlns="http://www.w3.org/2000/svg" xmlns:xlink="http://www.w3.org/1999/xlink" x="0px" y="0px" width="16px" height="16px" viewBox="0 0 16 16" enable-background="new 0 0 16 16" xml:space="preserve">
  <g id="icon">
    <path d="M0.5,8c0,4.142,3.336,7.5,7.45,7.5c4.115,0,7.45,-3.358,7.45,-7.5c0,-4.142,-3.336,-7.5,-7.45,-7.5C3.836,0.5,0.5,3.858,0.5,8zM9.864,8L5.823,3.887L6.6,3.113l4.8,4.887l-4.8,4.887l-0.777,-0.773L9.864,8z" fill="#92CBEE"/>
    <path d="M0.5,7.95C0.5,12.12,3.858,15.5,8,15.5c4.142,0,7.5,-3.38,7.5,-7.55C15.5,3.78,12.142,0.4,8,0.4C3.858,0.4,0.5,3.78,0.5,7.95zM9.864,8L5.823,3.887L6.6,3.113l4.8,4.887l-4.8,4.887l-0.777,-0.773L9.864,8z" fill="#0964B0" opacity="0.2"/>
    <path d="M15.401,8c0,4.142,-3.336,7.5,-7.45,7.5S0.5,12.142,0.5,8S3.836,0.5,7.95,0.5S15.401,3.858,15.401,8z" fill="none" stroke="#0964B0" stroke-width="1" stroke-miterlimit="1"/>
    <polygon points="6.6,12.887 11.401,8 6.6,3.113 5.823,3.887 9.864,8 5.823,12.113" fill="#FFFFFF" stroke-linejoin="miter"/>
  </g>
</svg>
