<?xml version="1.0" encoding="UTF-8"?>
<!DOCTYPE svg PUBLIC "-//W3C//DTD SVG 1.1//EN" "http://www.w3.org/Graphics/SVG/1.1/DTD/svg11.dtd">
<svg version="1.1" id="Layer_1" xmlns="http://www.w3.org/2000/svg" xmlns:xlink="http://www.w3.org/1999/xlink" x="0px" y="0px" width="16px" height="16px" viewBox="0 0 16 16" enable-background="new 0 0 16 16" xml:space="preserve">
  <g id="icon">
    <line x1="6" y1="2.5" x2="15" y2="2.5" fill="none" stroke="#383838" stroke-width="1" stroke-miterlimit="1"/>
    <line x1="6" y1="4.5" x2="14" y2="4.5" fill="none" stroke="#787979" stroke-width="1" stroke-miterlimit="1"/>
    <line x1="6" y1="7.5" x2="15" y2="7.5" fill="none" stroke="#383838" stroke-width="1" stroke-miterlimit="1"/>
    <line x1="6" y1="9.5" x2="14" y2="9.5" fill="none" stroke="#787979" stroke-width="1" stroke-miterlimit="1"/>
    <line x1="6" y1="12.5" x2="15" y2="12.5" fill="none" stroke="#383838" stroke-width="1" stroke-miterlimit="1"/>
    <line x1="6" y1="14.5" x2="14" y2="14.5" fill="none" stroke="#787979" stroke-width="1" stroke-miterlimit="1"/>
    <polygon points="4.5,4.5 1.5,4.5 1.5,1.5 3.48,1.5 4.5,2.525" fill="#FFFFFF" stroke="#383838" stroke-width="1" stroke-miterlimit="1" stroke-linejoin="miter"/>
    <polygon points="4.5,7.525 3.48,6.5 1.5,6.5 1.5,9.5 4.5,9.5" fill="#FFFFFF" stroke="#383838" stroke-width="1" stroke-miterlimit="1" stroke-linejoin="miter"/>
    <polygon points="4.5,12.525 3.48,11.5 1.5,11.5 1.5,14.5 4.5,14.5" fill="#FFFFFF" stroke="#383838" stroke-width="1" stroke-miterlimit="1" stroke-linejoin="miter"/>
    <rect x="2" y="3" width="2" height="1" fill="#92CBEE"/>
    <rect x="2" y="13" width="2" height="1" fill="#92CBEE"/>
    <rect x="2" y="8" width="2" height="1" fill="#B2DBB4"/>
  </g>
</svg>
