<?xml version="1.0" encoding="UTF-8"?>
<!DOCTYPE svg PUBLIC "-//W3C//DTD SVG 1.1//EN" "http://www.w3.org/Graphics/SVG/1.1/DTD/svg11.dtd">
<svg version="1.1" id="Layer_1" xmlns="http://www.w3.org/2000/svg" xmlns:xlink="http://www.w3.org/1999/xlink" x="0px" y="0px" width="24px" height="24px" viewBox="0 0 24 24" enable-background="new 0 0 24 24" xml:space="preserve">
  <g id="icon">
    <path d="M12,23.9555c-6.5976,0,-11.965,-5.3675,-11.965,-11.965C0.035,5.393,5.4024,0.0255,12,0.0255c6.5975,0,11.965,5.3675,11.965,11.965C23.965,18.588,18.5975,23.9555,12,23.9555zM12,2.2475c-5.3723,0,-9.743,4.3707,-9.743,9.743s4.3707,9.743,9.743,9.743s9.743,-4.3707,9.743,-9.743S17.3723,2.2475,12,2.2475z" fill="#7D7C7B" opacity="0.3"/>
    <path d="M4.4977,2.5515l0.5098,-0.3646C7.0586,0.7199,9.4766,-0.0555,12,-0.0555s4.9414,0.7754,6.9925,2.2425l0.5098,0.3645l-1.3918,1.9346l-0.5069,-0.3621C15.9595,2.9494,14.0219,2.3285,12,2.3285S8.0404,2.9494,6.3965,4.124l-0.5069,0.3621L4.4977,2.5515z" fill="#6486C4"/>
  </g>
</svg>
