<?xml version="1.0" encoding="UTF-8"?>
<!DOCTYPE svg PUBLIC "-//W3C//DTD SVG 1.1//EN" "http://www.w3.org/Graphics/SVG/1.1/DTD/svg11.dtd">
<svg version="1.1" id="Layer_1" xmlns="http://www.w3.org/2000/svg" xmlns:xlink="http://www.w3.org/1999/xlink" x="0px" y="0px" width="24px" height="24px" viewBox="0 0 24 24" enable-background="new 0 0 24 24" xml:space="preserve">
  <g id="icon">
    <path d="M12.024,24c-3.1941,0,-6.2002,-1.2496,-8.4644,-3.5186l-0.4424,-0.4431l1.8015,-1.8052l0.4423,0.4433c1.7827,1.7864,4.149,2.7701,6.663,2.7701c5.1984,0,9.4276,-4.2377,9.4276,-9.4465s-4.2292,-9.4465,-9.4276,-9.4465c-2.514,0,-4.8802,0.9838,-6.663,2.7701l-0.4423,0.4433L3.1171,3.9617l0.4424,-0.4432C5.8238,1.2496,8.8299,0,12.024,0C18.6276,0,24,5.3832,24,12C24,18.6168,18.6276,24,12.024,24z" fill="#6486C4"/>
  </g>
</svg>
