<?xml version="1.0" encoding="UTF-8"?>
<!DOCTYPE svg PUBLIC "-//W3C//DTD SVG 1.1//EN" "http://www.w3.org/Graphics/SVG/1.1/DTD/svg11.dtd">
<svg version="1.1" id="Layer_1" xmlns="http://www.w3.org/2000/svg" xmlns:xlink="http://www.w3.org/1999/xlink" x="0px" y="0px" width="24px" height="24px" viewBox="0 0 24 24" enable-background="new 0 0 24 24" xml:space="preserve">
  <g id="icon">
    <path d="M11.9909,23.965c-6.5975,0,-11.965,-5.3675,-11.965,-11.965c0,-6.5976,5.3675,-11.965,11.965,-11.965c6.5976,0,11.965,5.3675,11.965,11.965C23.9559,18.5975,18.5884,23.965,11.9909,23.965zM11.9909,2.257c-5.3723,0,-9.743,4.3707,-9.743,9.743s4.3707,9.743,9.743,9.743s9.743,-4.3707,9.743,-9.743S17.3632,2.257,11.9909,2.257z" fill="#7D7C7B" opacity="0.3"/>
    <path d="M6.9969,22.9576c-2.2962,-1.043,-4.1768,-2.7493,-5.4383,-4.9345C0.297,15.8379,-0.2405,13.3562,0.0044,10.8462l0.061,-0.6238l2.3712,0.238l-0.0602,0.6201c-0.1953,2.011,0.2358,3.9996,1.2468,5.7506c1.0109,1.751,2.5175,3.1186,4.3567,3.955l0.5671,0.2579l-0.9795,2.1727L6.9969,22.9576z" fill="#6486C4"/>
  </g>
</svg>
