<?xml version="1.0" encoding="UTF-8"?>
<!DOCTYPE svg PUBLIC "-//W3C//DTD SVG 1.1//EN" "http://www.w3.org/Graphics/SVG/1.1/DTD/svg11.dtd">
<svg version="1.1" id="Layer_1" xmlns="http://www.w3.org/2000/svg" xmlns:xlink="http://www.w3.org/1999/xlink" x="0px" y="0px" width="24px" height="24px" viewBox="0 0 24 24" enable-background="new 0 0 24 24" xml:space="preserve">
  <g id="icon">
    <path d="M13.8381,21.2875l0.6054,-0.1623c2.4401,-0.654,4.4774,-2.216,5.7368,-4.3983c1.2594,-2.1824,1.593,-4.7286,0.9392,-7.1695s-2.2152,-4.4792,-4.3966,-5.7392c-1.4317,-0.827,-3.059,-1.2641,-4.7059,-1.2641c-3.3748,0,-6.5158,1.8098,-8.1971,4.723c-1.2594,2.1823,-1.5928,4.7285,-0.939,7.1695l0.1623,0.6056l-2.4656,0.661l-0.1623,-0.6057c-0.8305,-3.1005,-0.4066,-6.335,1.1935,-9.1076C3.7445,2.299,7.7335,0,12.0192,0c2.0934,0,4.1614,0.5553,5.9803,1.606c2.7713,1.6007,4.7548,4.1898,5.5853,7.2904s0.4066,6.3351,-1.1934,9.1076c-1.6001,2.7726,-4.188,4.7571,-7.2872,5.588l-0.6053,0.1623L13.8381,21.2875z" fill="#6486C4"/>
  </g>
</svg>
