<?xml version="1.0" encoding="UTF-8"?>
<!DOCTYPE svg PUBLIC "-//W3C//DTD SVG 1.1//EN" "http://www.w3.org/Graphics/SVG/1.1/DTD/svg11.dtd">
<svg version="1.1" id="Layer_1" xmlns="http://www.w3.org/2000/svg" xmlns:xlink="http://www.w3.org/1999/xlink" x="0px" y="0px" width="24px" height="24px" viewBox="0 0 24 24" enable-background="new 0 0 24 24" xml:space="preserve">
  <g id="icon">
    <path d="M15,16.95c-1.5853,0,-2.875,-1.2897,-2.875,-2.875S13.4147,11.2,15,11.2s2.875,1.2897,2.875,2.875S16.5853,16.95,15,16.95zM9,16.95c-1.5853,0,-2.875,-1.2897,-2.875,-2.875S7.4147,11.2,9,11.2s2.875,1.2897,2.875,2.875S10.5853,16.95,9,16.95zM3,16.95c-1.5853,0,-2.875,-1.2897,-2.875,-2.875S1.4147,11.2,3,11.2s2.875,1.2897,2.875,2.875S4.5853,16.95,3,16.95zM21,14.7c-1.5853,0,-2.875,-1.2897,-2.875,-2.875S19.4147,8.95,21,8.95s2.875,1.2897,2.875,2.875S22.5853,14.7,21,14.7z" fill="#6486C4"/>
  </g>
</svg>
