<?xml version="1.0" encoding="UTF-8"?>
<!DOCTYPE svg PUBLIC "-//W3C//DTD SVG 1.1//EN" "http://www.w3.org/Graphics/SVG/1.1/DTD/svg11.dtd">
<svg version="1.1" id="Layer_1" xmlns="http://www.w3.org/2000/svg" xmlns:xlink="http://www.w3.org/1999/xlink" x="0px" y="0px" width="32px" height="32px" viewBox="0 0 32 32" enable-background="new 0 0 32 32" xml:space="preserve">
  <g id="icon">
    <ellipse cx="8.002" cy="7.997" rx="5.498" ry="5.503" fill="#FFFFFF" stroke="#17AB4F" stroke-width="1" stroke-miterlimit="1"/>
    <polygon points="29.785,13.5 17.6,13.5 23.693,2.393" fill="#FFFFFF" stroke="#A0519F" stroke-width="1" stroke-miterlimit="1" stroke-linejoin="miter"/>
    <path d="M7.758,17.452c1.072,-0.003,1.301,3.625,1.837,4.091s4.234,-0.394,4.412,0.513c0.179,0.906,-2.877,2.387,-3.184,3.112c-0.306,0.725,1.435,3.794,0.797,4.337s-3.071,-2.108,-3.862,-2.108s-3.173,2.496,-3.811,2.03c-0.638,-0.466,0.95,-3.632,0.746,-4.305c-0.204,-0.673,-3.378,-2.186,-3.184,-3.067c0.195,-0.88,3.748,-0.021,4.336,-0.461C6.431,21.155,6.864,17.478,7.758,17.452" fill="#FFFFFF" stroke="#ED8730" stroke-width="1" stroke-miterlimit="1"/>
    <path d="M16.5,25.62c0,-1.322,0.775,-2.441,1.952,-2.821c0.257,-2.052,1.849,-3.633,3.775,-3.633c1.558,0,2.897,1.034,3.489,2.515c0.424,-0.202,0.894,-0.316,1.39,-0.316c1.875,0,3.394,1.609,3.394,3.599c0,1.858,-0.961,3.347,-2.616,3.535h-0.449h-2.218h-0.756h-3.903h-0.868C18.176,28.39,16.5,27.866,16.5,25.62zM26.083,23.697c0.047,-0.575,-0.188,-1.693,-0.391,-2.02" fill="#FFFFFF" stroke="#228BCB" stroke-width="1" stroke-miterlimit="1"/>
  </g>
</svg>
