<?xml version="1.0" encoding="UTF-8"?>
<!DOCTYPE svg PUBLIC "-//W3C//DTD SVG 1.1//EN" "http://www.w3.org/Graphics/SVG/1.1/DTD/svg11.dtd">
<svg version="1.1" id="Layer_1" xmlns="http://www.w3.org/2000/svg" xmlns:xlink="http://www.w3.org/1999/xlink" x="0px" y="0px" width="32px" height="32px" viewBox="0 0 32 32" enable-background="new 0 0 32 32" xml:space="preserve">
  <g id="icon">
    <rect x="4" y="16" width="24" height="3" fill="#FFFFFF"/>
    <rect x="2" y="16" width="28" height="3" fill="#238BCB" opacity="0.1"/>
    <rect x="1.5" y="15.5" width="29" height="4" fill="none" stroke="#228BCB" stroke-width="1" stroke-miterlimit="1"/>
    <path d="M5,18.4H4v-1.8h1V18.4zM28,16.6h-1v1.8h1V16.6z" fill="#78797A"/>
    <path d="M4.5,14V1.5h15l8,8v4.5H4.5zM4.5,21v9.5h23v-9.5H4.5z" fill="#FFFFFF"/>
    <path d="M5,14V2h14v8h8v4h1V9.293L19.707,1H4v13H5zM20,2.707L26.293,9H20V2.707zM28,21v10H4V21h1v9h22v-9H28z" fill="#383838"/>
    <path d="M24.5,27H7.5v-1h17V27zM24.5,24H7.5v-1h17V24zM24.5,12H7.5v-1h17V12zM17,9H7.5V8h9.5V9zM17,6H7.5V5h9.5V6z" fill="#78797A" opacity="0.6"/>
    <rect x="7.5" y="17" width="17" height="1" fill="#78797A"/>
  </g>
</svg>
