<?xml version="1.0" encoding="UTF-8"?>
<!DOCTYPE svg PUBLIC "-//W3C//DTD SVG 1.1//EN" "http://www.w3.org/Graphics/SVG/1.1/DTD/svg11.dtd">
<svg version="1.1" id="Layer_1" xmlns="http://www.w3.org/2000/svg" xmlns:xlink="http://www.w3.org/1999/xlink" x="0px" y="0px" width="32px" height="32px" viewBox="0 0 32 32" enable-background="new 0 0 32 32" xml:space="preserve">
  <g id="icon">
    <path d="M30.5,16.5H9.5v14h21V16.5z" fill="#F7DA8E" stroke="#E57428" stroke-width="1" stroke-linecap="round" stroke-miterlimit="1"/>
    <rect x="25.5" y="18.5" width="3" height="4" fill="#F3B8B8" stroke="#E42D2C" stroke-width="1" stroke-linecap="round" stroke-miterlimit="1"/>
    <path d="M12,19.5h10M12,21.5h7M13,27.5h5M20,27.5h6" fill="none" stroke="#787979" stroke-width="1" stroke-miterlimit="1"/>
    <path d="M13,25.5h9" fill="none" stroke="#383838" stroke-width="1" stroke-miterlimit="1"/>
    <g>
      <path d="M8,15h8.296c-1.5,-1.222,-3.283,-1.972,-5.168,-1.972C6.034,13.028,1.6,18.502,1.6,24h6.4V15z" fill="#FFFFFF"/>
      <circle cx="11.092" cy="7.295" r="5.695" fill="#FFFFFF"/>
    </g>
    <path d="M15.291,15h1.918c-1.01,-0.934,-2.139,-1.635,-3.318,-2.067c2.07,-1.032,3.496,-3.172,3.496,-5.638c0,-3.471,-2.824,-6.295,-6.295,-6.295c-3.471,0,-6.295,2.824,-6.295,6.295c0,2.477,1.438,4.625,3.524,5.652c-1.584,0.587,-3.082,1.655,-4.324,3.117C2.092,18.307,1,21.199,1,24h1.2c0,-5.331,4.339,-10.372,8.929,-10.372C12.551,13.628,13.99,14.113,15.291,15zM5.997,7.295C5.997,4.486,8.282,2.2,11.092,2.2s5.095,2.286,5.095,5.095c0,2.809,-2.286,5.095,-5.095,5.095S5.997,10.104,5.997,7.295z" fill="#383838"/>
  </g>
</svg>
