<?xml version="1.0" encoding="UTF-8"?>
<!DOCTYPE svg PUBLIC "-//W3C//DTD SVG 1.1//EN" "http://www.w3.org/Graphics/SVG/1.1/DTD/svg11.dtd">
<svg version="1.1" id="Layer_1" xmlns="http://www.w3.org/2000/svg" xmlns:xlink="http://www.w3.org/1999/xlink" x="0px" y="0px" width="32px" height="32px" viewBox="0 0 32 32" enable-background="new 0 0 32 32" xml:space="preserve">
  <g id="icon">
    <path d="M13.506,2.824c1.759,-0.282,1.837,2.003,1.836,3.141c-0.001,1.476,-0.075,2.956,-0.277,4.419c-0.448,3.245,-1.484,6.479,-2.736,9.502c-1.166,2.815,-2.487,5.9,-4.792,7.98c-0.786,0.709,-2.675,2.039,-3.694,0.874c-1.048,-1.197,0.905,-2.833,1.646,-3.505c2.383,-2.162,5.334,-3.465,8.303,-4.619c2.828,-1.1,5.661,-1.919,8.604,-2.64c1.627,-0.399,3.517,-0.836,5.132,-0.15c0.647,0.275,1.3,0.714,1.459,1.439c0.184,0.839,-0.271,1.535,-1.099,1.702c-2.675,0.538,-5.738,-0.862,-7.65,-2.641c-2.213,-2.06,-4.595,-4.304,-6.137,-6.925c-0.778,-1.322,-1.348,-2.735,-1.705,-4.225C12.101,5.94,11.556,3.136,13.506,2.824z" fill="none" stroke="#EE3D3B" stroke-width="1.4" stroke-miterlimit="1"/>
  </g>
</svg>
