<?xml version="1.0" encoding="UTF-8"?>
<!DOCTYPE svg PUBLIC "-//W3C//DTD SVG 1.1//EN" "http://www.w3.org/Graphics/SVG/1.1/DTD/svg11.dtd">
<svg version="1.1" id="Layer_1" xmlns="http://www.w3.org/2000/svg" xmlns:xlink="http://www.w3.org/1999/xlink" x="0px" y="0px" width="32px" height="32px" viewBox="0 0 32 32" enable-background="new 0 0 32 32" xml:space="preserve">
  <g id="icon">
    <path d="M14.199,10.502c0,0.807,-0.103,1.507,-0.309,2.099c-0.206,0.592,-0.484,1.081,-0.832,1.466c-0.348,0.386,-0.756,0.673,-1.224,0.861c-0.467,0.188,-0.962,0.283,-1.485,0.283c-0.532,0,-1.031,-0.094,-1.499,-0.283c-0.467,-0.188,-0.875,-0.475,-1.223,-0.861c-0.348,-0.386,-0.623,-0.874,-0.825,-1.466c-0.202,-0.592,-0.303,-1.292,-0.303,-2.099c0,-0.816,0.101,-1.52,0.303,-2.112c0.201,-0.592,0.476,-1.083,0.825,-1.473c0.348,-0.39,0.756,-0.679,1.223,-0.868c0.467,-0.188,0.967,-0.283,1.499,-0.283c0.522,0,1.017,0.094,1.485,0.283c0.467,0.188,0.875,0.478,1.224,0.868c0.348,0.39,0.625,0.881,0.832,1.473C14.096,8.982,14.199,9.686,14.199,10.502zM25.5,21.536c0,0.809,-0.106,1.511,-0.318,2.104c-0.212,0.593,-0.496,1.084,-0.854,1.47c-0.358,0.387,-0.776,0.674,-1.256,0.863c-0.48,0.189,-0.988,0.283,-1.524,0.283c-0.546,0,-1.059,-0.094,-1.538,-0.283c-0.48,-0.189,-0.899,-0.476,-1.256,-0.863c-0.358,-0.386,-0.64,-0.877,-0.847,-1.47c-0.207,-0.593,-0.31,-1.295,-0.31,-2.104c0,-0.818,0.103,-1.524,0.31,-2.117c0.207,-0.593,0.489,-1.086,0.847,-1.477c0.357,-0.391,0.776,-0.681,1.256,-0.87c0.48,-0.189,0.993,-0.283,1.538,-0.283c0.536,0,1.044,0.094,1.524,0.283c0.48,0.189,0.898,0.479,1.256,0.87c0.357,0.391,0.642,0.883,0.854,1.477C25.394,20.012,25.5,20.718,25.5,21.536zM23.599,5.427L8.32,26.573" fill="none" stroke="#383838" stroke-width="1.1" stroke-miterlimit="1"/>
  </g>
</svg>
