<?xml version="1.0" encoding="UTF-8"?>
<!DOCTYPE svg PUBLIC "-//W3C//DTD SVG 1.1//EN" "http://www.w3.org/Graphics/SVG/1.1/DTD/svg11.dtd">
<svg version="1.1" id="Layer_1" xmlns="http://www.w3.org/2000/svg" xmlns:xlink="http://www.w3.org/1999/xlink" x="0px" y="0px" width="32px" height="32px" viewBox="0 0 32 32" enable-background="new 0 0 32 32" xml:space="preserve">
  <g id="icon">
    <rect x="1.5" y="9.5" width="21" height="21" fill="#FFFFFF"/>
    <ellipse cx="17.55" cy="14.5" rx="2.05" ry="2" fill="#F7DA8E" stroke="#E57428" stroke-width="1" stroke-linecap="round" stroke-miterlimit="1"/>
    <polygon points="1.467,22.033 5.2,18.2 11.433,24.133 15.5,20.1 22.4,26.9 22.5,30.5 1.7,30.5" fill="#92CBEE" stroke-linejoin="miter"/>
    <path d="M1.5,21.714l3.796,-3.843L17.77,30.5M22.5,27.159l-6.991,-7.077l-3.859,3.907" fill="none" stroke="#0964B0" stroke-width="1" stroke-linecap="round" stroke-miterlimit="1"/>
    <path d="M1.5,8V5M30.5,5V2M30.5,9V6M30.5,13v-3M30.5,17v-3M30.5,21v-3M30.5,25v-3M30.5,29v-3M1.5,4V1M3,1.5h3M7,1.5h3M11,1.5h3M15,1.5h3M19,1.5h3M23,1.5h3M28,30.5h3M24,30.5h3M27,1.5h3" fill="none" stroke="#787979" stroke-width="1" stroke-miterlimit="1"/>
    <polygon points="22,12.546 22,30 2,30 2,10 19.455,10 20.455,9 1,9 1,31 23,31 23,11.546" fill="#383838" stroke-linejoin="miter"/>
    <polygon points="21.059,11.649 20.352,10.942 26.289,5.004 22.002,5.019 21.998,4.019 28.021,3.998 28,10.002 27,9.998 27.015,5.693" fill="#228BCB" stroke-linejoin="miter"/>
  </g>
</svg>
