<?xml version="1.0" encoding="UTF-8"?>
<!DOCTYPE svg PUBLIC "-//W3C//DTD SVG 1.1//EN" "http://www.w3.org/Graphics/SVG/1.1/DTD/svg11.dtd">
<svg version="1.1" id="Layer_1" xmlns="http://www.w3.org/2000/svg" xmlns:xlink="http://www.w3.org/1999/xlink" x="0px" y="0px" width="32px" height="32px" viewBox="0 0 32 32" enable-background="new 0 0 32 32" xml:space="preserve">
  <g id="icon">
    <rect x="1.5" y="1.5" width="29" height="29" fill="#FFFFFF" stroke="#228BCB" stroke-width="1" stroke-miterlimit="1"/>
    <path d="M10,6H5V5h5V6zM12,9H7V8h5V9zM15,12h-5v-1h5V12zM10,21H5v-1h5V21zM12,24H7v-1h5V24zM15,27h-5v-1h5V27zM15,15h-5v-1h5V15z" fill="#78797A"/>
    <path d="M23,6H12V5h11V6zM25,9H14V8h11V9zM28,12H17v-1h11V12zM23,21H12v-1h11V21zM25,24H14v-1h11V24zM28,27H17v-1h11V27zM28,15H17v-1h11V15z" fill="#78797A" opacity="0.5"/>
  </g>
</svg>
