<?xml version="1.0" encoding="UTF-8"?>
<!DOCTYPE svg PUBLIC "-//W3C//DTD SVG 1.1//EN" "http://www.w3.org/Graphics/SVG/1.1/DTD/svg11.dtd">
<svg version="1.1" id="Layer_1" xmlns="http://www.w3.org/2000/svg" xmlns:xlink="http://www.w3.org/1999/xlink" x="0px" y="0px" width="16px" height="16px" viewBox="0 0 16 16" enable-background="new 0 0 16 16" xml:space="preserve">
  <g id="icon">
    <path d="M15.5427,3.892C14.4241,1.0225,11.3449,0,8.8363,0c-0.2873,0,-0.5762,0.0132,-0.8588,0.0391c-1.9283,0.1771,-3.4412,0.8227,-4.4966,1.919C2.2258,3.2617,1.7626,4.8249,1.4992,6.0413c-0.0532,0.246,-0.1195,0.5521,-0.018,0.8903c0.0241,0.0802,0.0603,0.1556,0.1133,0.2351c-0.0584,0.0955,-0.1421,0.2052,-0.2173,0.3036c-0.0701,0.0917,-0.1426,0.1865,-0.2062,0.283c-0.0316,0.048,-0.1027,0.1399,-0.1801,0.2398c-0.4896,0.6322,-1.099,1.419,-0.7291,2.0523c0.1942,0.3326,0.5443,0.4457,0.8019,0.5289c0.0273,0.0088,0.0596,0.0193,0.0911,0.03c-0.0131,0.2447,0.0508,0.4701,0.1901,0.6713c-0.0733,0.0795,-0.1256,0.1705,-0.1557,0.2709c-0.0581,0.1936,-0.0251,0.3969,0.093,0.5724c0.1029,0.1531,0.2257,0.2484,0.3202,0.3183c-0.0179,0.0667,-0.0401,0.1372,-0.0635,0.2112c-0.1281,0.4059,-0.3218,1.0192,0.1538,1.6083c0.3072,0.3804,0.7688,0.5654,1.4114,0.5653c0.2297,0,0.4463,-0.0219,0.6374,-0.0412l0.0381,-0.0039c0.1047,-0.0105,0.2205,-0.0313,0.343,-0.0533c0.1252,-0.0225,0.4185,-0.0751,0.611,-0.0751c0.0552,0,0.0907,0.0043,0.1134,0.0094c0.0113,0.0514,0.0177,0.1233,0.0239,0.1938c0.0255,0.2882,0.0784,0.8878,0.7637,1.0664c0.2758,0.0719,0.5374,0.0818,0.779,0.0818c0.079,0,0.1588,-0.0012,0.2427,-0.0025c0.0841,-0.0013,0.1714,-0.0027,0.2624,-0.0027c0.8006,0,4.863,-0.0868,6.2169,-1.7997c0.4168,-0.5273,0.5497,-1.1691,0.3843,-1.8559c-0.0772,-0.3203,-0.0752,-0.3474,-0.0685,-0.4371c0.0048,-0.0646,0.0114,-0.153,0.0114,-0.2917c0,-0.2961,0.2367,-0.5485,0.6274,-0.9296c0.175,-0.1708,0.356,-0.3474,0.5171,-0.5496c0.4734,-0.5944,0.8308,-1.2289,1.0622,-1.886C16.1503,6.8807,16.1052,5.3348,15.5427,3.892zM12.6787,6.0704H9.9575l1.3808,2.348L10.3494,9L9.063,6.8127L7.7766,9l-0.989,-0.5816l1.3809,-2.348H5.2213V4.9232h2.7305L6.6002,2.625l0.989,-0.5816L9.063,4.5495l1.4739,-2.5061l0.989,0.5816l-1.3516,2.2982h2.5045V6.0704z" fill="#6485C3"/>
    <polygon points="7.7766,9 6.7876,8.4184 8.1685,6.0704 5.2213,6.0704 5.2213,4.9232 7.9518,4.9232 6.6002,2.625 7.5892,2.0434 9.063,4.5495 10.5369,2.0434 11.5258,2.625 10.1742,4.9232 12.6787,4.9232 12.6787,6.0704 9.9575,6.0704 11.3383,8.4184 10.3494,9 9.063,6.8127" fill="#FFFFFF" stroke-linejoin="miter" opacity="0.5"/>
  </g>
</svg>
