<?xml version="1.0" encoding="UTF-8"?>
<!DOCTYPE svg PUBLIC "-//W3C//DTD SVG 1.1//EN" "http://www.w3.org/Graphics/SVG/1.1/DTD/svg11.dtd">
<svg version="1.1" id="Layer_1" xmlns="http://www.w3.org/2000/svg" xmlns:xlink="http://www.w3.org/1999/xlink" x="0px" y="0px" width="16px" height="16px" viewBox="0 0 16 16" enable-background="new 0 0 16 16" xml:space="preserve">
  <g id="icon">
    <path d="M13.9583,14.5H2.0417C1.1902,14.5,0.5,13.8098,0.5,12.9583V4.0417C0.5,3.1902,1.1902,2.5,2.0417,2.5h11.9167C14.8098,2.5,15.5,3.1902,15.5,4.0417v8.9167C15.5,13.8098,14.8098,14.5,13.9583,14.5z" fill="#FFFFFF" opacity="0.5"/>
    <path d="M9,3H7V2h2V3zM6,2H4v1h2V2zM15,4.1v0.9h1v-0.9c0,-1.158,-0.942,-2.1,-2.1,-2.1h-0.9v1h0.9C14.5065,3,15,3.4935,15,4.1zM15,8h1V6h-1V8zM12,2h-2v1h2V2zM1,4.1c0,-0.6065,0.4935,-1.1,1.1,-1.1h0.9V2h-0.9C0.942,2,0,2.942,0,4.1v0.9h1V4.1zM1,12.9v-0.9H0v0.9c0,1.158,0.942,2.1,2.1,2.1h0.9v-1h-0.9C1.4935,14,1,13.5065,1,12.9zM10,15h2v-1h-2V15zM15,12v0.9c0,0.6065,-0.4935,1.1,-1.1,1.1h-0.9v1h0.9c1.158,0,2.1,-0.942,2.1,-2.1v-0.9H15zM7,15h2v-1H7V15zM1,8V6H0v2H1zM15,11h1V9h-1V11zM1,11V9H0v2H1zM4,15h2v-1H4V15z" fill="#EEAC55"/>
    <path d="M9.5,12.6H8.5v-0.6h-0.5v0.6H7v-0.6H6V5h1v-0.6h1v0.6h0.5v-0.6h1v0.6357c0.925,0.1727,1.6036,0.9528,1.6036,1.9168c0,0.5592,-0.2335,1.077,-0.6114,1.4481c0.4736,0.3652,0.7805,0.9462,0.7805,1.5994c0,1.038,-0.7793,1.8938,-1.7726,1.9908V12.6zM7,11h2.3116c0.5299,0,0.961,-0.4486,0.961,-1s-0.4262,-1,-0.9501,-1H7V11zM7,8h2.2637l-0.0063,-0.0402c0.4823,-0.0753,0.8461,-0.5084,0.8461,-1.0073c0,-0.543,-0.4268,-0.9525,-0.9927,-0.9525H7V8z" fill="#EEAC55"/>
  </g>
</svg>
