<?xml version="1.0" encoding="UTF-8"?>
<!DOCTYPE svg PUBLIC "-//W3C//DTD SVG 1.1//EN" "http://www.w3.org/Graphics/SVG/1.1/DTD/svg11.dtd">
<svg version="1.1" id="Layer_1" xmlns="http://www.w3.org/2000/svg" xmlns:xlink="http://www.w3.org/1999/xlink" x="0px" y="0px" width="16px" height="16px" viewBox="0 0 16 16" enable-background="new 0 0 16 16" xml:space="preserve">
  <g id="icon">
    <path d="M13.9583,14.5H2.0417C1.1902,14.5,0.5,13.8098,0.5,12.9583V4.0417C0.5,3.1902,1.1902,2.5,2.0417,2.5h11.9167C14.8098,2.5,15.5,3.1902,15.5,4.0417v8.9167C15.5,13.8098,14.8098,14.5,13.9583,14.5z" fill="#FFFFFF" opacity="0.5"/>
    <path d="M9,3H7V2h2V3zM6,2H4v1h2V2zM15,4.1v0.9h1v-0.9c0,-1.158,-0.942,-2.1,-2.1,-2.1h-0.9v1h0.9C14.5065,3,15,3.4935,15,4.1zM15,8h1V6h-1V8zM12,2h-2v1h2V2zM1,4.1c0,-0.6065,0.4935,-1.1,1.1,-1.1h0.9V2h-0.9C0.942,2,0,2.942,0,4.1v0.9h1V4.1zM1,12.9v-0.9H0v0.9c0,1.158,0.942,2.1,2.1,2.1h0.9v-1h-0.9C1.4935,14,1,13.5065,1,12.9zM10,15h2v-1h-2V15zM15,12v0.9c0,0.6065,-0.4935,1.1,-1.1,1.1h-0.9v1h0.9c1.158,0,2.1,-0.942,2.1,-2.1v-0.9H15zM7,15h2v-1H7V15zM1,8V6H0v2H1zM15,11h1V9h-1V11zM1,11V9H0v2H1zM4,15h2v-1H4V15z" fill="#EEAC55"/>
    <path d="M9.9009,10.372c-0.4278,0.405,-0.9783,0.628,-1.55,0.628c-0.7543,0,-1.3973,-0.3853,-1.7922,-1h2.1721V9H6.1811c-0.0266,-0.1607,-0.0408,-0.3277,-0.0408,-0.5s0.0142,-0.3393,0.0408,-0.5H8.929V7H6.5587c0.3949,-0.6147,1.0379,-1,1.7922,-1c0.5367,0,1.0415,0.1891,1.4598,0.5468l0.6499,-0.76C9.8673,5.2794,9.1181,5,8.3509,5c-1.3049,0,-2.4044,0.8081,-2.911,2h-0.9851v1h0.7173c-0.0205,0.1631,-0.0318,0.3298,-0.0318,0.5s0.0113,0.3369,0.0318,0.5H4.2v1h1.2399c0.5066,1.1919,1.606,2,2.911,2c0.8286,0,1.6233,-0.3203,2.2375,-0.9019L9.9009,10.372z" fill="#EEAC55"/>
  </g>
</svg>
