<?xml version="1.0" encoding="UTF-8"?>
<!DOCTYPE svg PUBLIC "-//W3C//DTD SVG 1.1//EN" "http://www.w3.org/Graphics/SVG/1.1/DTD/svg11.dtd">
<svg version="1.1" id="Layer_1" xmlns="http://www.w3.org/2000/svg" xmlns:xlink="http://www.w3.org/1999/xlink" x="0px" y="0px" width="16px" height="16px" viewBox="0 0 16 16" enable-background="new 0 0 16 16" xml:space="preserve">
  <g id="icon">
    <path d="M14.5,13.5H1.5c-0.55,0,-1,-0.45,-1,-1V3.5c0,-0.55,0.45,-1,1,-1h13c0.55,0,1,0.45,1,1v9C15.5,13.05,15.05,13.5,14.5,13.5z" fill="#FFFFFF" opacity="0.5"/>
    <path d="M14.5,14H1.5c-0.8271,0,-1.5,-0.6729,-1.5,-1.5V3.5c0,-0.8271,0.6729,-1.5,1.5,-1.5h13c0.8271,0,1.5,0.6729,1.5,1.5v9C16,13.3271,15.3271,14,14.5,14zM1.5,3c-0.2757,0,-0.5,0.2243,-0.5,0.5v9c0,0.2757,0.2243,0.5,0.5,0.5h13c0.2757,0,0.5,-0.2243,0.5,-0.5V3.5c0,-0.2757,-0.2243,-0.5,-0.5,-0.5H1.5z" fill="#6D6E71"/>
    <path d="M3.2673,6h-0.9669c-0.0661,-0.0001,-0.1225,0.058,-0.1328,0.1369L1.7765,9.131c-0.0069,0.0531,0.0232,0.1029,0.0672,0.1112c0.0042,0.0008,0.0084,0.0012,0.0126,0.0012h0.4616c0.0662,0,0.1225,-0.0581,0.1328,-0.1371l0.1055,-0.8075c0.0102,-0.0789,0.0665,-0.137,0.1326,-0.1371h0.3061c0.6369,0,1.0045,-0.3722,1.1005,-1.1097c0.0433,-0.3227,0.0018,-0.5762,-0.1233,-0.7538C3.8346,6.1031,3.5909,6,3.2673,6zM3.3788,7.0935c-0.0529,0.419,-0.318,0.419,-0.5743,0.419h-0.1459L2.761,6.73c0.0062,-0.0473,0.0399,-0.0821,0.0796,-0.0821h0.0669c0.1746,0,0.3393,0,0.4244,0.1202C3.3826,6.8398,3.3982,6.9463,3.3788,7.0935zM6.1576,7.08h-0.463c-0.0397,0,-0.0734,0.0348,-0.0796,0.0821l-0.0205,0.1564l-0.0324,-0.0567c-0.1002,-0.1757,-0.3238,-0.2344,-0.5469,-0.2344c-0.5117,0,-0.9487,0.468,-1.0338,1.1244c-0.0443,0.3275,0.0187,0.6406,0.1725,0.8589c0.1411,0.2008,0.343,0.2844,0.5832,0.2844c0.4123,0,0.6409,-0.3201,0.6409,-0.3201l-0.0206,0.1554c-0.007,0.0531,0.0229,0.103,0.0669,0.1115c0.0042,0.0008,0.0084,0.0012,0.0126,0.0012h0.4171c0.0662,0,0.1225,-0.0581,0.1328,-0.1371l0.2503,-1.9137c0.007,-0.0529,-0.0228,-0.1026,-0.0666,-0.1111C6.1661,7.0804,6.1619,7.08,6.1576,7.08zM5.5122,8.1683c-0.0447,0.3194,-0.2546,0.5339,-0.5224,0.5339c-0.1345,0,-0.2419,-0.0521,-0.3109,-0.1508c-0.0684,-0.098,-0.0944,-0.2375,-0.0727,-0.3928c0.0417,-0.3167,0.2552,-0.5381,0.5189,-0.5381c0.1315,0,0.2384,0.0528,0.3088,0.1523C5.5044,7.8732,5.5324,8.0136,5.5122,8.1683zM8.6236,7.08h-0.4653c-0.0446,0.0001,-0.0862,0.0267,-0.1113,0.0712l-0.6417,1.1415l-0.272,-1.0969c-0.0171,-0.0687,-0.0695,-0.1157,-0.1289,-0.1158h-0.4572c-0.0445,-0.0001,-0.0807,0.0433,-0.0808,0.0971c0,0.0108,0.0014,0.0215,0.0043,0.0317l0.5125,1.8162l-0.4818,0.8214c-0.0258,0.0438,-0.0172,0.1046,0.0191,0.1357c0.0136,0.0117,0.03,0.018,0.0467,0.018h0.4647c0.044,0.0001,0.0853,-0.026,0.1104,-0.0697l1.5476,-2.6975c0.0254,-0.0442,0.0163,-0.1048,-0.0203,-0.1354C8.656,7.0861,8.64,7.08,8.6236,7.08L8.6236,7.08z" fill="#6485C3"/>
    <path d="M10.1641,6.0051h-0.9671c-0.0661,0,-0.1223,0.0581,-0.1326,0.1369l-0.3911,2.9941c-0.0069,0.053,0.023,0.1028,0.0669,0.1111c0.0042,0.0008,0.0084,0.0012,0.0126,0.0012h0.4963c0.0463,-0.0001,0.0856,-0.0408,0.0927,-0.0959l0.111,-0.8487c0.0102,-0.0789,0.0665,-0.137,0.1326,-0.1371h0.306c0.6371,0,1.0045,-0.3722,1.1007,-1.1097c0.0434,-0.3227,0.0017,-0.5762,-0.1234,-0.7538C10.7314,6.1083,10.4878,6.0051,10.1641,6.0051zM10.2757,7.0987c-0.0527,0.419,-0.3178,0.419,-0.5743,0.419h-0.1458l0.1025,-0.7824c0.0061,-0.0473,0.0398,-0.0822,0.0795,-0.0821h0.0669c0.1745,0,0.3393,0,0.4244,0.1202C10.2796,6.845,10.2951,6.9515,10.2757,7.0987zM13.0543,7.0852h-0.4628c-0.0397,-0.0001,-0.0734,0.0348,-0.0795,0.0821l-0.0205,0.1564l-0.0325,-0.0567c-0.1002,-0.1757,-0.3236,-0.2344,-0.5467,-0.2344c-0.5117,0,-0.9485,0.468,-1.0337,1.1244c-0.0441,0.3275,0.0185,0.6406,0.1723,0.8589c0.1414,0.2008,0.343,0.2844,0.5832,0.2844c0.4123,0,0.6409,-0.3201,0.6409,-0.3201l-0.0206,0.1554c-0.007,0.0531,0.0229,0.103,0.0669,0.1115c0.0043,0.0008,0.0086,0.0012,0.0129,0.0012h0.4169c0.0661,0,0.1224,-0.0582,0.1326,-0.1371l0.2504,-1.9137c0.0068,-0.0532,-0.0234,-0.103,-0.0675,-0.1112C13.0626,7.0856,13.0585,7.0852,13.0543,7.0852zM12.4089,8.1734c-0.0444,0.3194,-0.2546,0.5339,-0.5224,0.5339c-0.1342,0,-0.2419,-0.0521,-0.3109,-0.1508c-0.0684,-0.098,-0.0942,-0.2375,-0.0727,-0.3928c0.042,-0.3167,0.2552,-0.5381,0.5189,-0.5381c0.1315,0,0.2384,0.0528,0.3088,0.1523C12.4014,7.8784,12.4294,8.0187,12.4089,8.1734zM13.6002,6.0873l-0.3969,3.0489c-0.0069,0.053,0.023,0.1028,0.0669,0.1111c0.0042,0.0008,0.0084,0.0012,0.0126,0.0012h0.399c0.0663,0,0.1226,-0.058,0.1328,-0.1371l0.3914,-2.9939c0.007,-0.0531,-0.0231,-0.1029,-0.067,-0.1113c-0.0041,-0.0008,-0.0083,-0.0012,-0.0124,-0.0012h-0.4468C13.64,6.0051,13.6064,6.04,13.6002,6.0873z" fill="#52B4C0"/>
  </g>
</svg>
