<?xml version="1.0" encoding="UTF-8"?>
<!DOCTYPE svg PUBLIC "-//W3C//DTD SVG 1.1//EN" "http://www.w3.org/Graphics/SVG/1.1/DTD/svg11.dtd">
<svg version="1.1" id="Layer_1" xmlns="http://www.w3.org/2000/svg" xmlns:xlink="http://www.w3.org/1999/xlink" x="0px" y="0px" width="16px" height="16px" viewBox="0 0 16 16" enable-background="new 0 0 16 16" xml:space="preserve">
  <g id="icon">
    <path d="M8.7341,9.9999c0,2.5405,2.3606,4.5999,-2.687,4.5999S3.36,12.5403,3.36,9.9999S3.0084,5.4,6.047,5.4S8.7341,7.4594,8.7341,9.9999z" fill="#FFFFFF" opacity="0.5"/>
    <path d="M4.6567,10.9964c0.3892,0.3685,0.8401,0.6,1.3383,0.6c0.4976,0,0.9481,-0.231,1.337,-0.5988c1.5586,0.7021,1.9409,1.3825,1.8144,-3.4273C8.9831,4.6789,7.5585,4,5.994,4s-3.0088,0.6789,-3.1721,3.5704C2.6953,12.3829,3.0909,11.6987,4.6567,10.9964zM3.9282,7.142c0,-1.0035,2.1356,0.1763,2.8246,0.1763c1.1362,0,1.3182,-1.0917,1.3182,-0.3526c0,1.5104,-0.7469,3.8224,-2.0949,3.8224C4.9006,10.7881,3.9282,9.4679,3.9282,7.142z" fill="#9070B1"/>
    <path d="M8.7256,11.312c-0.2174,-0.052,-0.6229,-0.088,-0.7384,-0.1016c0.1777,0.6256,0.2954,1.3603,0.3558,1.9376c0.02,0.1913,0.0875,0.5319,-0.0021,0.7178c-0.0751,0.1557,-0.1977,0.1367,-0.367,0.158c-0.7344,0.0928,-1.219,0.1394,-1.9561,0.1421c-0.737,-0.0027,-1.2217,-0.0494,-1.9561,-0.1421c-0.1694,-0.0214,-0.292,-0.0023,-0.367,-0.158c-0.0897,-0.186,-0.0221,-0.5265,-0.0021,-0.7178c0.0605,-0.5789,0.1786,-1.315,0.3572,-1.9421c-0.12,0.0078,-0.5375,0.0465,-0.7868,0.106c-1.6942,0.4049,-3.2731,1.9616,-3.2731,3.2168c0,1.8262,3.0018,1.4381,6.0045,1.4379c3.0027,0.0002,6.0045,0.3883,6.0045,-1.4379C11.9987,13.2736,10.4198,11.7168,8.7256,11.312z" fill="#9070B1"/>
    <path d="M10.1449,7.514l0.0013,0.0301c0.0409,1.554,0.0316,2.5399,-0.0559,3.2109c0.1599,0.0792,0.3178,0.1668,0.4729,0.2611c0.3356,-0.7394,0.5796,-1.5174,0.815,-2.271c0.1484,-0.4751,0.3018,-0.9664,0.4749,-1.4339c0.1532,-0.414,0.2155,-0.5519,0.3469,-0.5892v-0.0898c-0.3977,-0.072,-0.8228,-0.1236,-1.2676,-0.1535c-0.2784,-0.0187,-0.5646,0.2748,-0.8566,0.3217C10.1069,7.0257,10.1307,7.2626,10.1449,7.514z" fill="#FFFFFF" opacity="0.5"/>
    <path d="M13.0578,6.7584c-1.0109,-0.2413,-0.9445,-0.1914,-1.2996,0.5244c-0.5198,1.0476,-1.058,1.6335,-1.5887,1.7514c0.0003,0.7429,-0.0237,1.2954,-0.0791,1.7208c0.6143,0.3043,1.2029,0.7263,1.6881,1.2204C14.0812,11.9874,16,11.866,16,10.354C16,8.9359,14.7665,7.1663,13.0578,6.7584z" fill="#6485C3"/>
    <path d="M10.0424,6.5825c1.3514,-0.0502,2.182,-2.291,2.182,-3.6957c0,-0.1363,-0.0086,-0.2676,-0.0249,-0.3938c-0.1315,-0.1834,-0.2531,-0.4541,-0.2935,-0.6276c-0.7043,0.4359,-3.0346,0.4608,-3.7711,0c-0.0813,0.1136,-0.2068,0.3473,-0.3303,0.5516c-0.0235,0.1494,-0.0362,0.3059,-0.0362,0.4699c0,0.1416,0.0088,0.2919,0.0253,0.4473C8.826,3.7707,9.728,4.7121,10.0424,6.5825z" fill="#FFFFFF" opacity="0.5"/>
    <path d="M7.9778,3.4181c-0.0164,-0.1525,-0.0253,-0.3008,-0.0253,-0.4416c0,-0.1388,0.0099,-0.2765,0.0295,-0.4097c0.0409,-0.0681,0.0818,-0.1387,0.121,-0.2064c0.0398,-0.0687,0.0783,-0.1352,0.1126,-0.1915c0.3829,0.1786,1.0328,0.2831,1.7853,0.2831c0.589,0,1.33,-0.0718,1.7852,-0.2667c0.0584,0.1558,0.1452,0.3267,0.2355,0.4593c0.0126,0.108,0.019,0.2195,0.019,0.3319c0,1.376,-0.8055,3.4511,-2.0217,3.4764c0.0542,0.2897,0.0937,0.6027,0.117,0.9403c0.7745,-0.0691,1.5132,-0.6479,2.095,-1.6474c0.5128,-0.881,0.8441,-2.0185,0.8441,-2.8978C13.075,0.8517,12.1529,0,9.9919,0C7.2998,0,6.9287,1.3688,6.9287,2.8479c0,0.075,0.0034,0.1537,0.0084,0.2341C7.2902,3.1463,7.6424,3.2533,7.9778,3.4181z" fill="#6485C3"/>
  </g>
</svg>
