<?xml version="1.0" encoding="UTF-8"?>
<!DOCTYPE svg PUBLIC "-//W3C//DTD SVG 1.1//EN" "http://www.w3.org/Graphics/SVG/1.1/DTD/svg11.dtd">
<svg version="1.1" id="Layer_1" xmlns="http://www.w3.org/2000/svg" xmlns:xlink="http://www.w3.org/1999/xlink" x="0px" y="0px" width="16px" height="16px" viewBox="0 0 16 16" enable-background="new 0 0 16 16" xml:space="preserve">
  <g id="icon">
    <path d="M10.966,9.6462c0.0522,0.1465,0.0786,0.331,0.0786,0.5485c0,0.2145,-0.0264,0.3975,-0.0786,0.5441c-0.049,0.1376,-0.1123,0.2491,-0.1883,0.3314c-0.0721,0.0781,-0.1534,0.1343,-0.2484,0.1716c-0.106,0.0418,-0.2163,0.0622,-0.3372,0.0622c-0.124,0,-0.2357,-0.0203,-0.3415,-0.0621c-0.0954,-0.0376,-0.1767,-0.0938,-0.2486,-0.1717c-0.0751,-0.0814,-0.1373,-0.1919,-0.1848,-0.3284c-0.0514,-0.1474,-0.0774,-0.3314,-0.0774,-0.547c0,-0.2185,0.026,-0.4041,0.0774,-0.5515c0.0478,-0.1374,0.1107,-0.2493,0.1868,-0.3327c0.0715,-0.0784,0.1522,-0.1347,0.2466,-0.1719c0.1059,-0.0418,0.2177,-0.0621,0.3416,-0.0621c0.1209,0,0.2312,0.0203,0.3372,0.0622c0.0945,0.0373,0.1751,0.0935,0.2465,0.1719C10.8527,9.3947,10.9166,9.5077,10.966,9.6462zM5.4917,6.9121c0.0989,0.0399,0.2106,0.061,0.323,0.061c0.1122,0,0.2238,-0.0211,0.3226,-0.061c0.0906,-0.0365,0.1683,-0.0916,0.2375,-0.1684c0.0738,-0.0819,0.1356,-0.1933,0.1835,-0.3311c0.0511,-0.1469,0.077,-0.3304,0.077,-0.5454c0,-0.2178,-0.0259,-0.4029,-0.077,-0.5501c-0.0483,-0.1386,-0.1106,-0.2513,-0.1852,-0.335c-0.069,-0.0774,-0.1462,-0.1326,-0.2358,-0.1687c-0.1008,-0.0407,-0.2057,-0.0605,-0.3206,-0.0605c-0.1179,0,-0.2242,0.0198,-0.325,0.0605c-0.09,0.0364,-0.1672,0.0916,-0.2359,0.1687c-0.0741,0.0832,-0.1353,0.1949,-0.1819,0.3321c-0.0503,0.148,-0.0758,0.3341,-0.0758,0.5529c0,0.2159,0.0255,0.4004,0.0758,0.5483c0.0464,0.1366,0.1071,0.247,0.1802,0.3281C5.3231,6.8203,5.4009,6.8755,5.4917,6.9121zM15.9105,10.1131c0.1823,0.2138,0.0725,0.5356,-0.2068,0.6065l-2.4477,0.6211c-0.1823,0.0463,-0.3056,0.208,-0.2954,0.3875l0.1366,2.4105c0.0156,0.2751,-0.2716,0.474,-0.5413,0.3748l-2.3633,-0.8687c-0.176,-0.0647,-0.3755,-0.0029,-0.478,0.148l-1.3762,2.0267c-0.157,0.2313,-0.5121,0.2313,-0.6691,0l-1.3762,-2.0267c-0.1025,-0.1509,-0.302,-0.2127,-0.478,-0.148l-2.3633,0.8687c-0.2697,0.0991,-0.5569,-0.0998,-0.5413,-0.3748l0.1366,-2.4105c0.0102,-0.1795,-0.1131,-0.3412,-0.2954,-0.3875l-2.4478,-0.6211c-0.2793,-0.0709,-0.389,-0.3927,-0.2068,-0.6065l1.5972,-1.8736c0.119,-0.1395,0.119,-0.3394,0,-0.479L0.0971,5.8869c-0.1823,-0.2138,-0.0725,-0.5356,0.2068,-0.6065l2.4478,-0.6211c0.1823,-0.0463,0.3056,-0.208,0.2954,-0.3875l-0.1366,-2.4105c-0.0156,-0.2751,0.2717,-0.474,0.5413,-0.3748l2.3633,0.8687c0.176,0.0647,0.3755,0.0029,0.478,-0.148L7.6693,0.1805c0.157,-0.2313,0.5121,-0.2313,0.6691,0l1.3762,2.0267c0.1025,0.1509,0.302,0.2127,0.478,0.148l2.3633,-0.8687c0.2697,-0.0991,0.5569,0.0998,0.5413,0.3748l-0.1366,2.4105c-0.0102,0.1795,0.1131,0.3412,0.2954,0.3875l2.4477,0.6211c0.2793,0.0709,0.389,0.3927,0.2068,0.6065l-1.5972,1.8736c-0.1189,0.1395,-0.1189,0.3394,0,0.479L15.9105,10.1131zM4.5868,7.3429c0.16,0.1776,0.3512,0.3121,0.5683,0.3999c0.2069,0.0835,0.4295,0.1258,0.6616,0.1258c0.2291,0,0.4501,-0.0423,0.6571,-0.1259c0.2169,-0.0876,0.408,-0.2221,0.5682,-0.3997c0.1543,-0.1713,0.2769,-0.3855,0.3642,-0.6367c0.084,-0.2417,0.1266,-0.5241,0.1266,-0.8392c0,-0.318,-0.0426,-0.6019,-0.1266,-0.8439c-0.0871,-0.2502,-0.2091,-0.4645,-0.3626,-0.6368c-0.1606,-0.1801,-0.3523,-0.3159,-0.5698,-0.4037c-0.2029,-0.082,-0.4309,-0.1252,-0.6593,-0.1252c-0.2286,0,-0.4567,0.0433,-0.6594,0.1252c-0.2177,0.0879,-0.4094,0.2237,-0.5699,0.4038c-0.1543,0.1732,-0.2759,0.3884,-0.3613,0.6398c-0.0819,0.241,-0.1234,0.5239,-0.1234,0.8409c0,0.3141,0.0415,0.5955,0.1234,0.8363C4.3096,6.9558,4.4317,7.1709,4.5868,7.3429zM11.0247,4.5224l-0.7323,-0.5181l-5.301,7.4721l0.7323,0.5181L11.0247,4.5224zM11.9422,10.1947c0,-0.32,-0.0439,-0.6056,-0.1305,-0.8486c-0.0894,-0.2513,-0.2146,-0.4662,-0.3723,-0.6389c-0.1638,-0.1795,-0.359,-0.3147,-0.5803,-0.402c-0.206,-0.0812,-0.4373,-0.1241,-0.669,-0.1241c-0.2319,0,-0.4633,0.0429,-0.6693,0.1241c-0.2216,0.0874,-0.4169,0.2226,-0.5804,0.402c-0.1583,0.1734,-0.2831,0.3894,-0.371,0.6419c-0.0843,0.2421,-0.1271,0.5266,-0.1271,0.8456c0,0.316,0.0428,0.599,0.1271,0.8411c0.0882,0.2535,0.2136,0.4693,0.3727,0.6416c0.1633,0.1769,0.3581,0.3108,0.5788,0.3979c0.21,0.0828,0.4358,0.1247,0.6713,0.1247c0.2324,0,0.4568,-0.042,0.6669,-0.1248c0.2207,-0.0871,0.4154,-0.221,0.5787,-0.3979c0.1584,-0.1717,0.2843,-0.3865,0.374,-0.6386C11.8983,10.7957,11.9422,10.5117,11.9422,10.1947z" fill="#6485C3"/>
    <path d="M10.1922,12.2c-0.2355,0,-0.4613,-0.042,-0.6713,-0.1247c-0.2208,-0.0871,-0.4155,-0.221,-0.5788,-0.3979c-0.1591,-0.1722,-0.2844,-0.3881,-0.3727,-0.6416c-0.0843,-0.2421,-0.1271,-0.5251,-0.1271,-0.8411c0,-0.319,0.0428,-0.6035,0.1271,-0.8456c0.0879,-0.2525,0.2127,-0.4684,0.371,-0.6419c0.1636,-0.1794,0.3588,-0.3146,0.5804,-0.402c0.206,-0.0812,0.4374,-0.1241,0.6693,-0.1241c0.2317,0,0.463,0.0429,0.669,0.1241c0.2214,0.0873,0.4166,0.2225,0.5803,0.402c0.1576,0.1727,0.2829,0.3876,0.3723,0.6389c0.0866,0.243,0.1305,0.5286,0.1305,0.8486c0,0.317,-0.0439,0.601,-0.1305,0.8441c-0.0897,0.252,-0.2155,0.4669,-0.374,0.6386c-0.1633,0.1769,-0.358,0.3107,-0.5787,0.3979C10.649,12.158,10.4246,12.2,10.1922,12.2zM10.1922,9.0764c-0.1239,0,-0.2357,0.0203,-0.3416,0.0621c-0.0944,0.0372,-0.1751,0.0935,-0.2466,0.1719c-0.0761,0.0834,-0.1389,0.1953,-0.1868,0.3327c-0.0514,0.1474,-0.0774,0.333,-0.0774,0.5515c0,0.2156,0.026,0.3996,0.0774,0.547c0.0475,0.1365,0.1097,0.247,0.1848,0.3284c0.0719,0.078,0.1533,0.1342,0.2486,0.1717c0.1058,0.0418,0.2176,0.0621,0.3415,0.0621c0.1209,0,0.2312,-0.0203,0.3372,-0.0621c0.0949,-0.0374,0.1762,-0.0935,0.2484,-0.1717c0.076,-0.0824,0.1393,-0.1939,0.1883,-0.3314c0.0522,-0.1465,0.0786,-0.3296,0.0786,-0.5441c0,-0.2175,-0.0264,-0.402,-0.0786,-0.5485c-0.0493,-0.1385,-0.1133,-0.2514,-0.1901,-0.3357c-0.0714,-0.0783,-0.152,-0.1346,-0.2465,-0.1719C10.4233,9.0968,10.313,9.0764,10.1922,9.0764zM4.9913,11.4763l5.301,-7.4721l0.7323,0.5181l-5.301,7.4721L4.9913,11.4763zM5.8167,7.8687c-0.2321,0,-0.4547,-0.0423,-0.6616,-0.1258c-0.2171,-0.0877,-0.4083,-0.2223,-0.5683,-0.3999c-0.1551,-0.172,-0.2773,-0.3871,-0.363,-0.6394c-0.0819,-0.2408,-0.1234,-0.5222,-0.1234,-0.8363c0,-0.317,0.0415,-0.5999,0.1234,-0.8409c0.0854,-0.2514,0.207,-0.4666,0.3613,-0.6398c0.1604,-0.1801,0.3522,-0.3159,0.5699,-0.4038c0.2028,-0.0819,0.4308,-0.1252,0.6594,-0.1252c0.2284,0,0.4565,0.0433,0.6593,0.1252c0.2176,0.0878,0.4093,0.2236,0.5698,0.4037c0.1534,0.1723,0.2754,0.3866,0.3626,0.6368c0.084,0.2419,0.1266,0.5259,0.1266,0.8439c0,0.3151,-0.0426,0.5974,-0.1266,0.8392c-0.0873,0.2512,-0.2099,0.4654,-0.3642,0.6367c-0.1602,0.1776,-0.3514,0.3121,-0.5682,0.3997C6.2669,7.8263,6.0458,7.8687,5.8167,7.8687zM5.8167,4.7529c-0.1179,0,-0.2242,0.0198,-0.325,0.0605c-0.09,0.0364,-0.1671,0.0916,-0.2359,0.1687c-0.0741,0.0832,-0.1353,0.1949,-0.1819,0.3321c-0.0503,0.148,-0.0759,0.3341,-0.0759,0.5529c0,0.2159,0.0255,0.4004,0.0758,0.5483c0.0464,0.1366,0.1071,0.247,0.1802,0.3281c0.0691,0.0767,0.1469,0.1319,0.2376,0.1686c0.0989,0.0399,0.2106,0.061,0.323,0.061l0,0c0.1122,0,0.2238,-0.0211,0.3226,-0.061c0.0906,-0.0365,0.1683,-0.0916,0.2375,-0.1684c0.0738,-0.0819,0.1356,-0.1933,0.1835,-0.3311c0.0511,-0.1469,0.077,-0.3304,0.077,-0.5454c0,-0.2178,-0.0259,-0.4029,-0.077,-0.5501c-0.0483,-0.1386,-0.1106,-0.2513,-0.1852,-0.335c-0.069,-0.0774,-0.1462,-0.1326,-0.2358,-0.1687C6.0365,4.7727,5.9316,4.7529,5.8167,4.7529z" fill="#FFFFFF" opacity="0.5"/>
  </g>
</svg>
