<?xml version="1.0" encoding="UTF-8"?>
<!DOCTYPE svg PUBLIC "-//W3C//DTD SVG 1.1//EN" "http://www.w3.org/Graphics/SVG/1.1/DTD/svg11.dtd">
<svg version="1.1" id="Layer_1" xmlns="http://www.w3.org/2000/svg" xmlns:xlink="http://www.w3.org/1999/xlink" x="0px" y="0px" width="32px" height="32px" viewBox="0 0 32 32" enable-background="new 0 0 32 32" xml:space="preserve">
  <g id="icon">
    <path d="M24.817,30.45H7.183c-3.111,0,-5.633,-2.522,-5.633,-5.633V7.183c0,-3.111,2.522,-5.633,5.633,-5.633h17.634c3.111,0,5.633,2.522,5.633,5.633v17.634C30.45,27.928,27.928,30.45,24.817,30.45z" fill="#DFBCD9" stroke="#A0519F" stroke-width="1.1" stroke-miterlimit="1"/>
    <path d="M19.349,23.895l-6.17,-15.08c-0.038,-0.083,-0.125,-0.31,-0.125,-0.31h-0.106c0,0,-0.094,0.227,-0.132,0.31l-6.164,15.08" fill="none" stroke="#383838" stroke-width="1.1" stroke-miterlimit="1"/>
    <line x1="8.846" y1="18.471" x2="17.148" y2="18.471" fill="none" stroke="#383838" stroke-width="1.1" stroke-miterlimit="1"/>
    <path d="M19,15.45h7" fill="none" stroke="#383838" stroke-width="1.1" stroke-miterlimit="1"/>
  </g>
</svg>
