<?xml version="1.0" encoding="UTF-8"?>
<!DOCTYPE svg PUBLIC "-//W3C//DTD SVG 1.1//EN" "http://www.w3.org/Graphics/SVG/1.1/DTD/svg11.dtd">
<svg version="1.1" id="Layer_1" xmlns="http://www.w3.org/2000/svg" xmlns:xlink="http://www.w3.org/1999/xlink" x="0px" y="0px" width="32px" height="32px" viewBox="0 0 32 32" enable-background="new 0 0 32 32" xml:space="preserve">
  <g id="icon">
    <ellipse cx="17.352" cy="13.876" rx="10.736" ry="10.775" fill="#92CBEE"/>
    <path d="M27.101,8.289c-1.497,-2.613,-3.919,-4.488,-6.818,-5.281c-2.9,-0.793,-5.932,-0.408,-8.536,1.085c-2.604,1.492,-4.47,3.913,-5.252,6.816c-0.782,2.903,-0.389,5.94,1.108,8.553s3.919,4.488,6.818,5.281c0.986,0.27,1.987,0.403,2.982,0.403c1.93,0,3.836,-0.503,5.555,-1.488c2.604,-1.492,4.47,-3.913,5.252,-6.816C28.992,13.939,28.599,10.902,27.101,8.289zM27.445,15.678c-0.998,0.053,-1.957,0.167,-2.871,0.342c-0.195,-1.788,-0.681,-3.53,-1.388,-4.91l3.286,-1.883C27.497,11.23,27.834,13.477,27.445,15.678zM17.504,13.213L15.497,9.71c1.152,-0.712,2.142,-1.535,2.972,-2.355c1.329,0.954,2.521,2.131,3.346,3.387L17.504,13.213zM22.318,11.607c0.691,1.356,1.119,2.991,1.279,4.627c-1.293,0.321,-2.491,0.771,-3.588,1.349l-2.007,-3.503L22.318,11.607zM15,8.842l-2.174,-3.794c1.473,0.089,3.194,0.743,4.795,1.739C16.876,7.505,16.003,8.219,15,8.842zM11.968,5.563l2.164,3.777c-1.042,0.55,-2.097,0.943,-3.107,1.221C10.989,8.69,11.301,6.885,11.968,5.563zM14.63,10.208l2.007,3.502l-4.344,2.489c-0.666,-1.348,-1.071,-2.979,-1.213,-4.618C12.227,11.28,13.435,10.841,14.63,10.208zM17.134,14.578l2.007,3.503c-1.067,0.662,-2.071,1.476,-3.006,2.436c-1.333,-0.965,-2.529,-2.163,-3.35,-3.446L17.134,14.578zM19.638,18.948l2.209,3.855c-1.479,-0.042,-3.235,-0.696,-4.869,-1.719C17.811,20.248,18.699,19.534,19.638,18.948zM22.703,22.286l-2.197,-3.835c0.966,-0.506,2.02,-0.907,3.155,-1.202C23.717,19.159,23.401,20.989,22.703,22.286zM25.975,8.359l-3.29,1.885c-0.873,-1.348,-2.118,-2.599,-3.514,-3.619c0.793,-0.871,1.4,-1.697,1.823,-2.333C23.049,5.077,24.783,6.489,25.975,8.359zM17.303,3.606c0.901,0,1.808,0.12,2.701,0.363c-0.408,0.593,-0.963,1.324,-1.667,2.085c-1.436,-0.918,-2.978,-1.583,-4.412,-1.866C15.015,3.803,16.154,3.606,17.303,3.606zM10.676,6.064c-0.486,1.381,-0.702,3.043,-0.647,4.739c-0.93,0.198,-1.801,0.303,-2.565,0.355C8.009,9.145,9.126,7.388,10.676,6.064zM7.242,12.175c0.834,-0.045,1.805,-0.15,2.851,-0.363c0.165,1.732,0.609,3.448,1.33,4.886l-3.19,1.828C7.223,16.552,6.881,14.344,7.242,12.175zM8.73,19.393l3.186,-1.826c0.835,1.309,2.094,2.611,3.541,3.685c-0.594,0.681,-1.157,1.425,-1.688,2.23C11.689,22.701,9.934,21.28,8.73,19.393zM14.761,23.798c0.481,-0.71,0.989,-1.368,1.522,-1.972c1.353,0.88,2.821,1.541,4.232,1.826C18.667,24.251,16.684,24.308,14.761,23.798zM24.071,21.651c0.481,-1.374,0.658,-2.995,0.581,-4.628c0.816,-0.162,1.671,-0.271,2.561,-0.33C26.663,18.647,25.574,20.354,24.071,21.651z" fill="#0964B0"/>
    <path d="M25.289,25.042c-0.141,-0.187,-0.273,-0.363,-0.383,-0.509c-0.234,0.158,-0.514,0.332,-0.79,0.494l-0.448,-0.839l-0.882,0.471l0.448,0.841c-1.778,0.861,-3.755,1.317,-5.735,1.317c-2.125,0,-4.24,-0.521,-6.116,-1.508c-3.606,-1.895,-6.147,-5.401,-6.796,-9.381c-0.136,-0.844,-0.16,-1.165,-0.16,-2.148c0,-0.983,0.024,-1.304,0.16,-2.148c0.526,-3.235,2.352,-6.242,5.01,-8.249c0.295,-0.222,0.602,-0.432,0.918,-0.63l0.431,0.808l0.882,-0.471l-0.446,-0.836c0.157,-0.083,0.315,-0.163,0.475,-0.239c0.008,-0.004,0.016,-0.008,0.023,-0.011c-0.13,-0.307,-0.304,-0.714,-0.432,-1.011c-2.465,1.138,-4.537,2.91,-5.999,5.133c-0.415,0.635,-0.566,0.902,-0.903,1.587c-0.71,1.44,-1.138,2.897,-1.345,4.584c-0.068,0.578,-0.094,1.973,-0.048,2.573c0.213,2.786,1.161,5.306,2.816,7.489c2.65,3.5,6.652,5.554,11.03,5.678V30h-5v1h11v-1h-5v-1.971c2.011,-0.078,3.934,-0.561,5.723,-1.443c0.304,-0.149,0.679,-0.341,0.817,-0.419c0.181,-0.104,0.712,-0.448,1.075,-0.69L25.289,25.042z" fill="#383838"/>
  </g>
</svg>
