<?xml version="1.0" encoding="UTF-8"?>
<!DOCTYPE svg PUBLIC "-//W3C//DTD SVG 1.1//EN" "http://www.w3.org/Graphics/SVG/1.1/DTD/svg11.dtd">
<svg version="1.1" id="Layer_1" xmlns="http://www.w3.org/2000/svg" xmlns:xlink="http://www.w3.org/1999/xlink" x="0px" y="0px" width="32px" height="32px" viewBox="0 0 32 32" enable-background="new 0 0 32 32" xml:space="preserve">
  <g id="icon">
    <path d="M13.745,30.39c-0.867,0,-1.563,0.06,-2.236,-0.114c-0.912,-0.235,-0.551,-1.171,-0.836,-1.878c-0.422,-1.047,-2.331,-0.438,-3.164,-0.356c-1.018,0.101,-2.414,0.265,-3.133,-0.616c-0.758,-0.928,-0.105,-1.88,0.087,-2.843c0.14,-0.704,-0.516,-0.747,-0.833,-1.212c-0.333,-0.49,0.98,-0.672,0.98,-0.882S3.367,22,3.586,20.894c0.2,-1.009,-1.501,-0.773,-1.912,-1.471c-0.453,-0.768,1.335,-2.701,1.745,-3.316c0.342,-0.513,0.927,-1.108,1.096,-1.7c0.082,-0.289,-0.277,-0.498,-0.359,-0.77c-0.121,-0.398,-0.027,-0.814,0.059,-1.208c0.6,-2.741,1.554,-5.271,3.592,-7.365c2.129,-2.188,5.045,-3.108,8.105,-3.386c5.511,-0.501,11.607,1.528,13.674,6.773c0.96,2.436,1.117,5.2,0.236,7.676c-0.429,1.205,-1.089,2.327,-1.902,3.336c-0.932,1.157,-2.467,2.018,-2.467,3.514c0,0.785,-0.127,0.555,0.141,1.654C26.975,30.312,14.493,30.39,13.745,30.39z" fill="#FFFFFF"/>
    <path d="M13.745,30.39c-0.867,0,-1.563,0.06,-2.236,-0.114c-0.912,-0.235,-0.551,-1.171,-0.836,-1.878c-0.422,-1.047,-2.331,-0.438,-3.164,-0.356c-1.018,0.101,-2.414,0.265,-3.133,-0.616c-0.758,-0.928,-0.105,-1.88,0.087,-2.843c0.14,-0.704,-0.516,-0.747,-0.833,-1.212c-0.333,-0.49,0.98,-0.672,0.98,-0.882S3.367,22,3.586,20.894c0.2,-1.009,-1.501,-0.773,-1.912,-1.471c-0.453,-0.768,1.335,-2.701,1.745,-3.316c0.342,-0.513,0.927,-1.108,1.096,-1.7c0.082,-0.289,-0.277,-0.498,-0.359,-0.77c-0.121,-0.398,-0.027,-0.814,0.059,-1.208c0.6,-2.741,1.554,-5.271,3.592,-7.365c2.129,-2.188,5.045,-3.108,8.105,-3.386c5.511,-0.501,11.607,1.528,13.674,6.773c0.96,2.436,1.117,5.2,0.236,7.676c-0.429,1.205,-1.089,2.327,-1.902,3.336c-0.932,1.157,-2.467,2.018,-2.467,3.514c0,0.785,-0.127,0.555,0.141,1.654C26.975,30.312,14.493,30.39,13.745,30.39z" fill="#C8C6C4" opacity="0.5"/>
    <path d="M13.745,30.39c-0.867,0,-1.563,0.06,-2.236,-0.114c-0.912,-0.235,-0.551,-1.171,-0.836,-1.878c-0.422,-1.047,-2.331,-0.438,-3.164,-0.356c-1.018,0.101,-2.414,0.265,-3.133,-0.616c-0.758,-0.928,-0.105,-1.88,0.087,-2.843c0.14,-0.704,-0.516,-0.747,-0.833,-1.212c-0.333,-0.49,0.98,-0.672,0.98,-0.882S3.367,22,3.586,20.894c0.2,-1.009,-1.501,-0.773,-1.912,-1.471c-0.453,-0.768,1.335,-2.701,1.745,-3.316c0.342,-0.513,0.927,-1.108,1.096,-1.7c0.082,-0.289,-0.277,-0.498,-0.359,-0.77c-0.121,-0.398,-0.027,-0.814,0.059,-1.208c0.6,-2.741,1.554,-5.271,3.592,-7.365c2.129,-2.188,5.045,-3.108,8.105,-3.386c5.511,-0.501,11.607,1.528,13.674,6.773c0.96,2.436,1.117,5.2,0.236,7.676c-0.429,1.205,-1.089,2.327,-1.902,3.336c-0.932,1.157,-2.467,2.018,-2.467,3.514c0,0.785,-0.127,0.555,0.141,1.654C26.975,30.312,14.493,30.39,13.745,30.39z" fill="none" stroke="#383838" stroke-width="1.1" stroke-miterlimit="1"/>
    <path d="M16.652,15.87l0.734,1.164c0.014,0.022,0.041,0.03,0.064,0.02l1.221,-0.502c0.019,-0.008,0.04,-0.004,0.055,0.01c0.25,0.229,0.53,0.425,0.834,0.582c0.018,0.009,0.029,0.028,0.028,0.049l-0.065,1.274c-0.001,0.025,0.016,0.048,0.041,0.054l1.342,0.304c0.025,0.006,0.05,-0.007,0.06,-0.031l0.498,-1.195c0.008,-0.019,0.026,-0.031,0.046,-0.032c0.335,-0.017,0.658,-0.076,0.965,-0.173c0.019,-0.006,0.041,0,0.054,0.015l0.848,0.939c0.017,0.019,0.045,0.023,0.067,0.009l1.164,-0.734c0.022,-0.014,0.03,-0.041,0.02,-0.064l-0.485,-1.18c-0.008,-0.019,-0.004,-0.04,0.01,-0.055c0.239,-0.261,0.442,-0.554,0.601,-0.872c0.009,-0.018,0.028,-0.03,0.049,-0.029l1.237,0.063c0.025,0.001,0.048,-0.016,0.054,-0.041l0.304,-1.342c0.006,-0.025,-0.007,-0.05,-0.031,-0.06l-1.183,-0.493c-0.018,-0.008,-0.031,-0.025,-0.032,-0.045c-0.02,-0.338,-0.083,-0.663,-0.184,-0.971c-0.006,-0.02,-0.001,-0.041,0.014,-0.055l0.938,-0.848c0.019,-0.017,0.023,-0.045,0.009,-0.067l-0.734,-1.164c-0.014,-0.022,-0.041,-0.03,-0.064,-0.02l-1.203,0.495c-0.018,0.008,-0.04,0.004,-0.054,-0.009c-0.256,-0.228,-0.542,-0.422,-0.851,-0.576c-0.019,-0.009,-0.03,-0.028,-0.029,-0.049l0.064,-1.273c0.001,-0.025,-0.016,-0.048,-0.041,-0.054l-1.342,-0.304c-0.025,-0.006,-0.05,0.007,-0.06,0.031l-0.512,1.228c-0.008,0.018,-0.025,0.031,-0.045,0.032c-0.319,0.022,-0.627,0.082,-0.919,0.176c-0.02,0.006,-0.041,0.001,-0.055,-0.015l-0.881,-0.975c-0.017,-0.019,-0.045,-0.023,-0.067,-0.009l-1.164,0.734c-0.022,0.014,-0.03,0.041,-0.02,0.064l0.512,1.243c0.008,0.018,0.004,0.04,-0.009,0.054c-0.219,0.245,-0.407,0.518,-0.558,0.813c-0.009,0.018,-0.028,0.029,-0.049,0.028l-1.308,-0.066c-0.025,-0.001,-0.048,0.016,-0.054,0.041l-0.304,1.342c-0.006,0.025,0.007,0.05,0.031,0.06l1.24,0.517c0.018,0.008,0.031,0.025,0.032,0.045c0.018,0.317,0.075,0.622,0.165,0.913c0.006,0.019,0,0.04,-0.015,0.054l-0.976,0.882C16.642,15.82,16.638,15.848,16.652,15.87zM10.234,9.701c0.12,0.315,0.29,0.645,0.471,0.928c0.012,0.018,0.035,0.026,0.056,0.02l0.99,-0.309c0.017,-0.005,0.036,-0.001,0.049,0.013c0.132,0.136,0.281,0.259,0.446,0.366c0.17,0.111,0.349,0.2,0.532,0.267c0.017,0.006,0.03,0.022,0.031,0.04l0.103,1.033c0.002,0.022,0.019,0.04,0.041,0.043c0.333,0.053,0.703,0.072,1.04,0.056c0.022,-0.001,0.04,-0.017,0.045,-0.038l0.229,-1.018c0.004,-0.018,0.018,-0.032,0.035,-0.036c0.376,-0.093,0.732,-0.27,1.038,-0.524c0.014,-0.012,0.034,-0.015,0.051,-0.007l0.944,0.426c0.02,0.009,0.044,0.004,0.058,-0.013c0.213,-0.261,0.414,-0.573,0.568,-0.872c0.01,-0.019,0.006,-0.043,-0.01,-0.058l-0.758,-0.699c-0.014,-0.012,-0.019,-0.031,-0.013,-0.049c0.114,-0.387,0.135,-0.789,0.068,-1.176c-0.003,-0.018,0.004,-0.037,0.019,-0.047l0.83,-0.596c0.018,-0.013,0.025,-0.036,0.017,-0.057c-0.12,-0.315,-0.29,-0.645,-0.471,-0.928c-0.012,-0.018,-0.035,-0.026,-0.056,-0.02l-0.97,0.302c-0.018,0.005,-0.037,0,-0.049,-0.013c-0.137,-0.144,-0.293,-0.275,-0.467,-0.389c-0.17,-0.111,-0.349,-0.2,-0.532,-0.267c-0.017,-0.006,-0.03,-0.022,-0.031,-0.04l-0.1,-1.003c-0.002,-0.022,-0.019,-0.04,-0.041,-0.043c-0.333,-0.054,-0.703,-0.072,-1.04,-0.057c-0.022,0.001,-0.04,0.017,-0.045,0.038l-0.223,0.986c-0.004,0.018,-0.018,0.032,-0.036,0.036c-0.388,0.095,-0.755,0.278,-1.068,0.543c-0.014,0.012,-0.034,0.015,-0.051,0.007l-0.921,-0.416c-0.02,-0.009,-0.044,-0.004,-0.058,0.013c-0.213,0.261,-0.414,0.573,-0.569,0.872c-0.01,0.019,-0.006,0.043,0.01,0.058l0.75,0.693c0.013,0.012,0.018,0.031,0.013,0.049c-0.111,0.389,-0.129,0.794,-0.058,1.183c0.003,0.018,-0.004,0.037,-0.019,0.048l-0.833,0.599C10.234,9.657,10.227,9.681,10.234,9.701z" fill="#92CBEE" stroke="#0964B0" stroke-width="0.9" stroke-miterlimit="1"/>
    <path d="M12.789,8.499c0.027,-0.489,0.445,-0.863,0.933,-0.836c0.489,0.027,0.863,0.445,0.836,0.933c-0.027,0.489,-0.445,0.863,-0.933,0.836C13.137,9.406,12.763,8.988,12.789,8.499zM20.424,12.867c0.484,-0.509,1.326,-0.582,1.885,-0.034c0.531,0.52,0.524,1.349,0.018,1.875c-0.494,0.503,-1.325,0.562,-1.876,0.023C19.919,14.21,19.932,13.384,20.424,12.867z" fill="#0964B0"/>
  </g>
</svg>
