<?xml version="1.0" encoding="UTF-8"?>
<!DOCTYPE svg PUBLIC "-//W3C//DTD SVG 1.1//EN" "http://www.w3.org/Graphics/SVG/1.1/DTD/svg11.dtd">
<svg version="1.1" id="Layer_1" xmlns="http://www.w3.org/2000/svg" xmlns:xlink="http://www.w3.org/1999/xlink" x="0px" y="0px" width="32px" height="32px" viewBox="0 0 32 32" enable-background="new 0 0 32 32" xml:space="preserve">
  <g id="icon">
    <path d="M26.307,1.5c0.672,0.092,1.139,0.437,1.411,1.057c0.272,0.619,0.232,1.23,-0.166,1.802c-0.371,0.533,-0.683,1.205,-0.886,1.822c-0.191,0.583,-0.365,1.176,-0.39,1.79c-0.021,0.507,-0.061,1.022,0.005,1.521c0.31,2.313,1.435,4.13,3.404,5.407c0.295,0.192,0.576,0.392,0.709,0.728c0.07,0.177,0.132,0.371,0.136,0.558c0.015,0.778,0.007,1.469,0.007,2.248c0,0.019,-0.004,0.038,-0.007,0.067c-4.302,0,-8.76,0,-13.064,0c-0.004,-0.078,-0.01,-0.25,-0.01,-0.321c-0.001,-2.598,0.011,-5.009,-0.008,-7.607c-0.005,-0.729,0.181,-1.376,0.54,-1.999c1.134,-1.969,2.44,-4.045,3.571,-6.019c0.286,-0.499,0.767,-0.825,1.305,-1.028c0.017,-0.006,0.033,-0.018,0.05,-0.026C23.108,1.5,25.801,1.5,26.307,1.5zM6.801,1.533c-0.076,0.011,-0.153,0.015,-0.227,0.034c-0.763,0.189,-1.279,0.773,-1.397,1.543c-0.07,0.46,0.066,0.889,0.327,1.28c0.182,0.275,0.357,0.557,0.507,0.85c0.449,0.874,0.722,1.901,0.761,2.886c0.019,0.472,0.03,0.949,-0.011,1.418c-0.056,0.627,-0.216,1.236,-0.451,1.823c-0.613,1.534,-1.618,2.741,-3.024,3.611c-0.59,0.365,-0.849,0.903,-0.715,1.683c-0.056,0.713,-0.031,1.625,-0.024,1.839h12.932c0.003,-0.16,0.011,-0.227,0.011,-0.294c0.001,-2.691,0.001,-5.19,0,-7.887c0,-0.166,-0.008,-0.332,-0.036,-0.495c-0.067,-0.393,-0.209,-0.761,-0.409,-1.109c-1.191,-2.076,-2.467,-4.253,-3.657,-6.329c-0.19,-0.331,-0.461,-0.576,-0.811,-0.726c-0.153,-0.065,-0.317,-0.104,-0.476,-0.155C10.102,1.506,7.487,1.533,6.801,1.533zM2.533,22.5c-0.003,0.05,-0.007,0.093,-0.007,0.136c-0.002,2.259,-0.005,4.025,-0.002,6.284c0,0.413,0.151,0.776,0.448,1.067c0.39,0.384,0.886,0.514,1.41,0.516c3.035,0.008,6.063,0.007,9.099,0.002c0.259,0,0.523,-0.031,0.775,-0.091c0.562,-0.135,1.079,-0.448,1.207,-1.043c0.048,-0.223,0.037,-0.461,0.037,-0.692c0.002,-2.162,0.001,-3.831,0.001,-5.993c0,-0.057,0,-0.115,0,-0.187C11.194,22.5,6.824,22.5,2.533,22.5zM17.5,23.086c0,1.735,0.001,2.976,0,4.71c0,0.427,-0.012,0.855,-0.007,1.282c0.004,0.353,0.129,0.665,0.38,0.917c0.359,0.36,0.822,0.503,1.307,0.505c3.097,0.011,6.279,0.006,9.377,0.003c0.189,0,0.378,-0.016,0.563,-0.056c0.663,-0.144,1.154,-0.496,1.297,-1.093c0.058,-0.245,0.075,-0.504,0.075,-0.757c0.007,-2.138,0.006,-3.782,0.008,-5.92c0,-0.057,0,-0.114,0,-0.178H17.5C17.5,22.7,17.5,22.893,17.5,23.086z" fill="#F7DA8E" stroke="#E57428" stroke-width="1" stroke-miterlimit="1"/>
    <rect x="2.5" y="18.5" width="28" height="4" fill="#FFFFFF" stroke="#E57428" stroke-width="1" stroke-miterlimit="1"/>
    <line x1="15" y1="20.5" x2="18" y2="20.5" fill="#F7DA8E" stroke="#E57428" stroke-width="1" stroke-linecap="round" stroke-miterlimit="1"/>
  </g>
</svg>
