<?xml version="1.0" encoding="UTF-8"?>
<!DOCTYPE svg PUBLIC "-//W3C//DTD SVG 1.1//EN" "http://www.w3.org/Graphics/SVG/1.1/DTD/svg11.dtd">
<svg version="1.1" id="Layer_1" xmlns="http://www.w3.org/2000/svg" xmlns:xlink="http://www.w3.org/1999/xlink" x="0px" y="0px" width="32px" height="32px" viewBox="0 0 32 32" enable-background="new 0 0 32 32" xml:space="preserve">
  <g id="icon">
    <path d="M29.6,6.6c0,2.541,-2.059,4.6,-4.6,4.6s-4.6,-2.059,-4.6,-4.6s2.059,-4.6,4.6,-4.6S29.6,4.059,29.6,6.6zM13.1,9.2l9.6,-6.6M22.253,18.653l6.5,-9.4" fill="none" stroke="#383838" stroke-width="1.2" stroke-miterlimit="1"/>
    <path d="M5.175,19.138c-0.054,-0.005,-0.108,-0.015,-0.161,-0.03c-0.199,-0.057,-0.335,-0.133,-0.559,-0.311c-0.277,-0.245,-2.512,-2.897,-2.711,-3.219c-0.472,-0.752,-0.343,-1.411,0.382,-1.964c0.494,-0.378,1.258,-0.783,2.478,-1.313c0.328,-0.141,0.957,-0.534,1.102,-0.613c0.516,-0.279,1.48,-1.002,2.241,-1.681c0.61,-0.545,1.224,-1.165,1.642,-1.672c0.411,-0.491,0.513,-0.577,0.737,-0.705c0.222,-0.123,0.396,-0.186,0.638,-0.23c0.072,-0.013,0.139,-0.018,0.266,-0.007c0.025,0.002,0.052,0.005,0.079,0.008c0.173,0.021,0.173,0.021,0.316,0.111c0.242,0.152,0.69,0.497,0.921,0.71c0.194,0.177,0.633,0.688,0.797,0.928c0.519,0.769,0.872,1.81,0.847,2.109c-0.01,0.071,-0.113,0.361,-0.225,0.556c-0.18,0.304,-0.365,0.502,-1.04,0.932c-0.577,0.369,-1.278,0.891,-1.953,1.214c-0.844,0.408,-1.258,0.664,-1.705,1.054c-0.398,0.34,-0.9,0.9,-1.487,1.735c-0.631,0.894,-1.25,1.639,-1.656,1.992C5.791,19.031,5.472,19.164,5.175,19.138L5.175,19.138zM12.216,26.778c0.005,0.054,0.015,0.108,0.03,0.161c0.057,0.199,0.133,0.335,0.311,0.559c0.245,0.277,2.897,2.512,3.219,2.711c0.752,0.472,1.411,0.343,1.964,-0.382c0.378,-0.494,0.783,-1.258,1.313,-2.478c0.141,-0.328,0.634,-1.157,0.713,-1.302c0.279,-0.516,1.002,-1.48,1.681,-2.241c0.545,-0.61,1.165,-1.224,1.672,-1.642c0.491,-0.411,0.577,-0.513,0.705,-0.737c0.123,-0.222,0.186,-0.396,0.23,-0.638c0.013,-0.072,0.018,-0.139,0.007,-0.266c-0.002,-0.025,-0.005,-0.052,-0.008,-0.079c-0.021,-0.173,-0.021,-0.173,-0.11,-0.316c-0.152,-0.242,-0.497,-0.69,-0.71,-0.921c-0.177,-0.194,-0.688,-0.633,-0.928,-0.797c-0.769,-0.519,-1.81,-0.872,-2.109,-0.847c-0.071,0.01,-0.361,0.113,-0.556,0.225c-0.304,0.18,-0.502,0.365,-0.932,1.04c-0.369,0.577,-0.591,0.978,-0.914,1.653c-0.408,0.844,-0.964,1.558,-1.354,2.005c-0.34,0.398,-1,1.1,-1.835,1.687c-0.894,0.631,-1.639,1.25,-1.992,1.656C12.322,26.162,12.189,26.481,12.216,26.778L12.216,26.778z" fill="#FFFFFF" stroke="#228BCB" stroke-width="1" stroke-miterlimit="1"/>
  </g>
</svg>
