<?xml version="1.0" encoding="UTF-8"?>
<!DOCTYPE svg PUBLIC "-//W3C//DTD SVG 1.1//EN" "http://www.w3.org/Graphics/SVG/1.1/DTD/svg11.dtd">
<svg version="1.1" id="Layer_1" xmlns="http://www.w3.org/2000/svg" xmlns:xlink="http://www.w3.org/1999/xlink" x="0px" y="0px" width="32px" height="32px" viewBox="0 0 32 32" enable-background="new 0 0 32 32" xml:space="preserve">
  <g id="icon">
    <path d="M23.631,8.862c0,3.907,-3.396,9.72,-7.586,9.72s-7.586,-5.813,-7.586,-9.72S11.855,1.6,16.045,1.6S23.631,4.956,23.631,8.862zM28.325,30.9c0,-6.82,-5.505,-12.288,-12.296,-12.288S3.733,24.08,3.733,30.9" fill="#FFFFFF" stroke="#383838" stroke-width="1.1" stroke-miterlimit="1"/>
    <path d="M8.6,7.671c3.973,-3.749,5.364,-0.945,7.35,-0.945s3.477,-2.741,7.45,0.945" fill="#FFFFFF" stroke="#383838" stroke-width="1.1" stroke-miterlimit="1"/>
    <path d="M7.802,31h16.396c-0.043,-1.745,-0.766,-4.359,-0.504,-9.752c-0.811,-0.647,-1.705,-1.193,-2.664,-1.62c-1.856,4.278,-3.773,4.821,-4.628,4.82c-0.285,0,-0.476,0,-0.505,0c0.001,0,0.002,0,0.004,0c-0.853,0.002,-3.066,-0.538,-4.921,-4.799c-0.963,0.434,-1.859,0.988,-2.671,1.644C8.564,26.656,7.845,29.259,7.802,31z" fill="#FFFFFF"/>
    <path d="M7.302,31h1c0.014,-0.506,0.087,-1.105,0.174,-1.816c0.211,-1.717,0.498,-4.053,0.343,-7.709c0.6,-0.466,1.241,-0.873,1.915,-1.214c1.797,3.833,3.915,4.53,4.867,4.636l0.011,0.018l0.289,-0.001c0.04,0,0.226,0,0.5,0c0.001,0,0.002,0,0.003,0c1.032,0,3.002,-0.622,4.874,-4.676c0.67,0.335,1.308,0.735,1.905,1.193c-0.16,3.681,0.129,6.03,0.341,7.755c0.087,0.711,0.161,1.309,0.174,1.814h1c-0.013,-0.559,-0.09,-1.189,-0.182,-1.937c-0.213,-1.729,-0.504,-4.098,-0.323,-7.843l0.012,-0.257l-0.2,-0.16c-0.85,-0.682,-1.782,-1.253,-2.772,-1.696l-0.461,-0.206l-0.201,0.466c-1.769,4.1,-3.503,4.544,-4.167,4.544c-0.001,0,-0.001,0,-0.002,0l-0.372,0c-0.043,0,-0.087,0,-0.131,0.003v-0.002c-0.001,0,-0.002,0,-0.003,0c-0.591,0,-2.643,-0.329,-4.458,-4.523l-0.202,-0.467l-0.462,0.209c-0.993,0.45,-1.928,1.028,-2.78,1.721l-0.197,0.16l0.012,0.255c0.176,3.719,-0.113,6.075,-0.325,7.796C7.392,29.81,7.315,30.44,7.302,31z" fill="#228BCB"/>
  </g>
</svg>
