<?xml version="1.0" encoding="UTF-8"?>
<!DOCTYPE svg PUBLIC "-//W3C//DTD SVG 1.1//EN" "http://www.w3.org/Graphics/SVG/1.1/DTD/svg11.dtd">
<svg version="1.1" id="Layer_1" xmlns="http://www.w3.org/2000/svg" xmlns:xlink="http://www.w3.org/1999/xlink" x="0px" y="0px" width="32px" height="32px" viewBox="0 0 32 32" enable-background="new 0 0 32 32" xml:space="preserve">
  <g id="icon">
    <path d="M17.476,15.965c0.032,0.079,0.098,0.444,0.168,0.866c-1.796,0.197,-3.616,0.396,-5.34,0.585c-0.037,-0.354,-0.067,-0.658,-0.067,-0.729c0.003,-0.863,0.446,-1.433,1.283,-1.65c0.161,-0.042,0.397,-0.068,0.841,-0.09c0.623,-0.029,0.761,-0.047,1.132,-0.148c0.129,-0.036,0.412,-0.062,0.674,-0.062c0.176,0,0.282,0.012,0.319,0.023C16.859,14.867,17.211,15.295,17.476,15.965zM14.363,13.355c0.055,0.003,0.11,0.005,0.163,0.005c0.271,0,0.527,-0.046,0.829,-0.149c0.802,-0.266,1.398,-0.88,1.678,-1.729c0.073,-0.222,0.08,-0.256,0.083,-0.739c0,-0.463,-0.011,-0.539,-0.066,-0.724c-0.275,-0.957,-1.033,-1.661,-2.029,-1.883c-0.103,-0.023,-0.272,-0.037,-0.465,-0.037c-0.291,0,-0.594,0.03,-0.753,0.075c-1.018,0.295,-1.753,1.113,-1.919,2.134c-0.047,0.299,-0.017,0.832,0.062,1.116C12.259,12.525,13.207,13.283,14.363,13.355z" fill="#92CBEE"/>
    <path d="M17.941,15.781c0.043,0.106,0.09,0.332,0.2,0.995c-0.331,0.036,-0.663,0.073,-0.995,0.109c-0.057,-0.339,-0.112,-0.654,-0.138,-0.746c-0.229,-0.574,-0.486,-0.837,-0.645,-0.894c-0.027,-0.003,-0.092,-0.008,-0.196,-0.008c-0.267,0,-0.487,0.029,-0.54,0.044c-0.412,0.112,-0.586,0.135,-1.243,0.166c-0.395,0.02,-0.616,0.042,-0.738,0.074c-0.619,0.16,-0.908,0.531,-0.91,1.168c0.002,0.065,0.029,0.337,0.064,0.673c-0.335,0.037,-0.666,0.073,-0.994,0.109c-0.039,-0.37,-0.07,-0.695,-0.07,-0.783c0.004,-1.085,0.608,-1.862,1.658,-2.134c0.198,-0.052,0.453,-0.081,0.942,-0.105c0.612,-0.029,0.708,-0.045,1.027,-0.131c0.209,-0.058,0.565,-0.079,0.804,-0.079c0.205,0,0.358,0.014,0.456,0.042C17.158,14.433,17.613,14.952,17.941,15.781zM11.465,11.563c-0.099,-0.355,-0.133,-0.963,-0.075,-1.331c0.198,-1.217,1.069,-2.188,2.274,-2.537c0.249,-0.07,0.623,-0.095,0.892,-0.095c0.164,0,0.397,0.009,0.575,0.049c1.175,0.262,2.072,1.096,2.398,2.232c0.072,0.242,0.085,0.372,0.085,0.862c-0.003,0.506,-0.01,0.598,-0.108,0.895c-0.331,1.002,-1.039,1.729,-1.995,2.047c-0.352,0.12,-0.658,0.175,-0.987,0.175c-0.063,0,-0.128,-0.002,-0.193,-0.006C12.962,13.768,11.837,12.869,11.465,11.563zM12.428,11.292c0.253,0.89,1.025,1.505,1.966,1.564c0.265,0.016,0.498,-0.015,0.799,-0.118c0.652,-0.217,1.135,-0.718,1.364,-1.412c0.055,-0.167,0.055,-0.167,0.058,-0.585c0,-0.427,-0.009,-0.456,-0.045,-0.577c-0.225,-0.784,-0.845,-1.357,-1.658,-1.538c-0.042,-0.009,-0.161,-0.025,-0.356,-0.025c-0.271,0,-0.52,0.029,-0.617,0.057c-0.827,0.24,-1.427,0.904,-1.562,1.733C12.342,10.617,12.367,11.074,12.428,11.292z" fill="#0964B0"/>
    <path d="M2.194,24.874c-0.036,-0.828,-0.052,-1.707,0.009,-2.342l0.549,-2.564c0.825,-0.089,26.576,-2.902,27.929,-3.068c-0.103,1.702,-1.26,4.113,-3.439,7.168c-0.018,0.025,-0.209,0.257,-0.475,0.578c-0.033,-0.001,-0.066,-0.002,-0.1,-0.002l-0.033,0c-1.482,0,-2.309,0.868,-2.972,1.687c-0.31,0.388,-0.524,0.61,-0.702,0.724c-0.033,0.005,-0.089,0.011,-0.168,0.011c-0.069,0,-0.122,-0.005,-0.157,-0.01c-0.154,-0.099,-0.382,-0.286,-0.675,-0.642c-0.53,-0.642,-1.057,-1.117,-1.562,-1.409c-0.514,-0.302,-0.936,-0.361,-1.493,-0.361c-1.501,0,-2.326,0.864,-3.041,1.749c-0.557,0.687,-0.725,0.705,-0.806,0.706c-0.082,0,-0.292,-0.018,-0.903,-0.774c-0.452,-0.559,-1,-1.044,-1.503,-1.33c-0.512,-0.292,-0.953,-0.351,-1.451,-0.351l-0.074,0c-0.769,0,-1.315,0.191,-1.953,0.688c-0.103,0.081,-0.153,0.119,-0.172,0.133l-0.1,0.071l-0.024,0.02c-0.162,0.132,-0.25,0.239,-0.74,0.835c-0.362,0.445,-0.539,0.599,-0.624,0.65c-0.018,0.011,-0.035,0.021,-0.201,0.021c-0.173,0,-0.277,0,-0.838,-0.664c-0.612,-0.728,-1.138,-1.19,-1.649,-1.452c-0.497,-0.257,-1.249,-0.325,-1.578,-0.325c-0.257,0,-0.469,0.031,-0.666,0.097C2.45,24.762,2.32,24.814,2.194,24.874zM7.748,17.137c-0.011,-0.218,-0.026,-0.485,-0.04,-0.727c-0.011,-0.196,-0.021,-0.376,-0.028,-0.502c-0.015,-0.285,-0.038,-0.503,-0.048,-0.555c-0.039,-0.118,-0.133,-0.234,-0.235,-0.287c-0.07,-0.038,-0.12,-0.046,-0.154,-0.046c-0.07,0.001,-0.628,0.044,-1.983,0.163l-1.647,0.149c-0.112,0.888,-0.278,2.914,-0.309,3.205l4.465,-0.543C7.766,17.876,7.759,17.319,7.748,17.137z" fill="#C8C6C4"/>
    <path d="M1.706,25.149c-0.043,-0.911,-0.071,-1.937,0,-2.665l0.009,-0.056l0.625,-2.918l0.36,-0.039c0.241,-0.026,26.544,-2.898,27.922,-3.067l0.596,-0.073l-0.036,0.6c-0.109,1.797,-1.297,4.296,-3.531,7.428c-0.018,0.026,-0.086,0.11,-0.281,0.346c-0.225,-0.045,-0.452,-0.06,-0.701,-0.06l-0.033,0c-0.195,0,-0.378,0.016,-0.551,0.044c0.374,-0.451,0.705,-0.851,0.756,-0.916c1.87,-2.623,2.966,-4.738,3.265,-6.303c-3.995,0.45,-23.998,2.635,-26.939,2.957l-0.467,2.182c-0.052,0.562,-0.041,1.334,-0.012,2.08c-0.035,0.009,-0.071,0.018,-0.105,0.03C2.277,24.82,1.987,24.963,1.706,25.149zM3.803,18.59l-0.994,-0.105c0.009,-0.081,0.027,-0.296,0.053,-0.584c0.065,-0.742,0.175,-1.984,0.257,-2.632l0.05,-0.399l2.048,-0.185c0.848,-0.074,1.886,-0.163,2.022,-0.165c0.137,0,0.269,0.036,0.398,0.106c0.206,0.107,0.39,0.326,0.471,0.568l0.017,0.065c0.019,0.099,0.042,0.36,0.056,0.622c0.006,0.122,0.016,0.296,0.027,0.485l0.003,0.051c0.013,0.233,0.027,0.485,0.038,0.694c0.008,0.128,0.013,0.413,0.017,0.642c0.002,0.102,0.004,0.187,0.005,0.224l-0.999,0.034c-0.001,-0.04,-0.003,-0.13,-0.005,-0.239c-0.004,-0.197,-0.009,-0.494,-0.016,-0.606c-0.011,-0.211,-0.025,-0.461,-0.038,-0.693l-0.003,-0.051c-0.011,-0.191,-0.02,-0.366,-0.027,-0.489c-0.009,-0.179,-0.022,-0.321,-0.03,-0.407c-0.209,0.015,-0.743,0.058,-1.846,0.155l-1.241,0.112c-0.072,0.664,-0.154,1.595,-0.207,2.196C3.831,18.285,3.811,18.507,3.803,18.59zM7.249,15.324l0,0.014l0.133,-0.28L7.249,15.324zM7.195,15.432l0.01,-0.002l0.037,-0.078l0,-0.015L7.195,15.432zM7.167,15.509c0.001,0,0.001,0,0.002,0.001l0.001,-0.001L7.167,15.509z" fill="#383838"/>
    <line x1="20.8" y1="13" x2="24.1" y2="17.4" fill="#FFFFFF" stroke="#383838" stroke-width="1.2" stroke-linecap="round" stroke-miterlimit="1"/>
    <path d="M15.07,29.1c-0.885,0,-1.599,-0.439,-2.469,-1.516c-0.288,-0.356,-0.656,-0.689,-0.938,-0.85c-0.112,-0.064,-0.169,-0.089,-0.473,-0.089l-0.067,0c-0.325,0,-0.425,0.036,-0.712,0.259c-0.14,0.11,-0.218,0.169,-0.266,0.203c-0.07,0.078,-0.275,0.327,-0.457,0.549c-0.791,0.972,-1.322,1.406,-2.374,1.406c-1.02,0,-1.597,-0.463,-2.368,-1.376c-0.528,-0.627,-0.854,-0.869,-1.036,-0.962c-0.076,-0.035,-0.41,-0.103,-0.661,-0.103c-0.027,0,-0.045,0.001,-0.056,0.002c-0.373,0.132,-0.738,0.426,-1.148,0.922c-0.081,0.097,-0.353,0.419,-0.508,0.56l-0.672,-0.741c0.056,-0.051,0.219,-0.229,0.41,-0.458c0.542,-0.656,1.059,-1.05,1.625,-1.24c0.091,-0.031,0.202,-0.045,0.348,-0.045c0.339,0,0.863,0.082,1.118,0.213c0.387,0.198,0.827,0.593,1.343,1.207c0.731,0.866,1.056,1.02,1.603,1.02c0.547,0,0.827,-0.09,1.6,-1.04c0.448,-0.544,0.517,-0.627,0.596,-0.691l0.051,-0.036c0.003,-0.002,0.051,-0.034,0.234,-0.179c0.461,-0.358,0.784,-0.472,1.333,-0.472l0.067,0c0.381,0,0.637,0.034,0.964,0.22c0.393,0.224,0.849,0.631,1.221,1.09c0.77,0.954,1.216,1.145,1.686,1.145c0.459,-0.005,0.849,-0.179,1.577,-1.077c0.739,-0.914,1.293,-1.378,2.264,-1.378c0.419,0,0.661,0.032,0.986,0.223c0.406,0.235,0.844,0.634,1.297,1.183c0.351,0.426,0.696,0.735,1.025,0.919c0.084,0.049,0.296,0.097,0.578,0.097c0.319,0,0.513,-0.058,0.578,-0.093c0.323,-0.17,0.623,-0.455,1.073,-1.018c0.689,-0.851,1.241,-1.312,2.19,-1.312l0.03,0c0.451,0,0.679,0.052,0.973,0.221c0.395,0.23,0.774,0.564,1.161,1.024c0.343,0.409,0.518,0.557,0.895,0.758c0.35,0.188,0.912,0.369,1.146,0.393l-0.104,0.995c-0.385,-0.04,-1.079,-0.272,-1.514,-0.506c-0.488,-0.26,-0.766,-0.493,-1.188,-0.996c-0.311,-0.37,-0.604,-0.632,-0.896,-0.802c-0.103,-0.059,-0.15,-0.087,-0.474,-0.087l-0.03,0c-0.458,0,-0.756,0.13,-1.409,0.938c-0.542,0.678,-0.931,1.037,-1.385,1.275c-0.34,0.182,-0.802,0.209,-1.046,0.209c-0.31,0,-0.748,-0.039,-1.073,-0.227c-0.431,-0.241,-0.872,-0.629,-1.302,-1.152c-0.372,-0.451,-0.729,-0.782,-1.03,-0.956c-0.111,-0.065,-0.148,-0.087,-0.482,-0.087c-0.457,0,-0.753,0.099,-1.487,1.007C16.701,28.538,16.058,29.089,15.07,29.1zM3.217,26.615c-0.004,0.001,-0.008,0.003,-0.012,0.004C3.21,26.617,3.214,26.616,3.217,26.615z" fill="#0964B0"/>
  </g>
</svg>
