<?xml version="1.0" encoding="UTF-8"?>
<!DOCTYPE svg PUBLIC "-//W3C//DTD SVG 1.1//EN" "http://www.w3.org/Graphics/SVG/1.1/DTD/svg11.dtd">
<svg version="1.1" id="Layer_1" xmlns="http://www.w3.org/2000/svg" xmlns:xlink="http://www.w3.org/1999/xlink" x="0px" y="0px" width="32px" height="32px" viewBox="0 0 32 32" enable-background="new 0 0 32 32" xml:space="preserve">
  <g id="icon">
    <path d="M24.269,13.601c-0.435,0.053,-0.937,0.219,-1.289,0.426c-0.572,0.337,-1.069,1.053,-1.284,1.85c-0.056,0.2,-0.065,0.289,-0.065,0.564c-0.002,0.279,0.005,0.347,0.053,0.482c0.133,0.383,0.389,0.624,0.811,0.766c0.183,0.06,0.22,0.063,0.652,0.063c0.401,0.002,0.488,-0.005,0.688,-0.055c0.961,-0.238,1.528,-0.689,1.965,-1.563c0.524,-1.048,0.401,-2.006,-0.304,-2.36C25.189,13.617,24.692,13.548,24.269,13.601z" fill="#C8C6C4" stroke="#383838" stroke-width="1" stroke-miterlimit="1"/>
    <path d="M20.958,30.496c-0.308,0,-0.612,-0.101,-0.881,-0.292c-0.254,-0.181,-0.444,-0.474,-0.522,-0.804c-0.088,-0.368,-0.075,-0.467,0.49,-3.546c0.548,-2.971,0.548,-2.971,0.51,-3.045l-0.029,-0.058l-0.058,-0.029c-0.011,-0.006,-0.011,-0.006,-1.026,-0.413l-1.55,-0.622c-1.774,-0.711,-2.616,-1.062,-2.814,-1.174c-0.557,-0.322,-1.149,-0.827,-1.471,-1.255c-0.391,-0.521,-0.577,-1.155,-0.486,-1.653c0.06,-0.327,0.509,-1.51,1.851,-4.871c0.705,-1.775,0.705,-1.781,0.705,-1.833c0,-0.167,0,-0.167,-1.135,-0.488c-1.017,-0.287,-1.078,-0.287,-1.106,-0.287h-0.101l-0.061,0.082l0.008,-0.01c-0.038,0.05,-0.202,0.289,-1.229,1.787c-1.269,1.852,-1.331,1.919,-1.614,2.07c-0.192,0.102,-0.375,0.152,-0.56,0.152c-0.088,0,-0.178,-0.012,-0.268,-0.035c-0.688,-0.176,-1.059,-0.806,-0.883,-1.499c0.03,-0.11,0.081,-0.251,0.106,-0.301c0.037,-0.07,0.621,-1.064,1.433,-2.429c1.129,-1.895,1.385,-2.315,1.526,-2.453c0.178,-0.177,0.436,-0.317,0.692,-0.375c0.071,-0.016,0.192,-0.028,0.28,-0.028c0.014,0,0.027,0,0.039,0.001c0.11,0.006,1.655,0.177,2.485,0.268c1.246,0.14,2.461,0.267,2.651,0.276c0.375,0.022,1.022,0.146,1.382,0.265c0.144,0.047,0.454,0.178,0.678,0.288c0.925,0.45,1.491,0.949,1.732,1.525c0.04,0.092,0.093,0.29,0.117,0.434c0.04,0.249,0.04,0.263,-0.003,0.53c-0.027,0.16,-0.082,0.389,-0.121,0.507c-0.04,0.111,-0.705,1.618,-1.499,3.388c-0.393,0.871,-0.749,1.665,-1.006,2.242c-0.129,0.289,-0.232,0.523,-0.304,0.685c-0.149,0.339,-0.164,0.375,-0.068,0.472c0.028,0.028,0.033,0.032,2.135,1.137c1.963,1.031,2.194,1.159,2.218,1.173c0.175,0.096,0.389,0.293,0.505,0.461c0.118,0.172,0.298,0.585,0.349,0.804l0.006,0.027c0.08,0.341,0.081,0.347,-0.728,3.83l-0.07,0.301c-0.503,2.162,-0.846,3.602,-0.875,3.697C22.163,30.066,21.602,30.496,20.958,30.496L20.958,30.496z" fill="#92CBEE"/>
    <path d="M20.958,30.986L20.958,30.986c-0.41,0,-0.813,-0.133,-1.165,-0.383c-0.349,-0.249,-0.61,-0.647,-0.715,-1.09c-0.115,-0.478,-0.092,-0.601,0.484,-3.747c0.281,-1.526,0.429,-2.33,0.487,-2.685c-0.15,-0.06,-0.395,-0.159,-0.79,-0.317l-1.55,-0.622c-2.125,-0.852,-2.685,-1.097,-2.871,-1.201c-0.625,-0.361,-1.259,-0.904,-1.623,-1.388c-0.477,-0.637,-0.693,-1.398,-0.576,-2.035c0.06,-0.332,0.346,-1.127,1.878,-4.964c0.279,-0.704,0.473,-1.191,0.581,-1.469c-0.169,-0.051,-0.407,-0.118,-0.689,-0.198c-0.453,-0.128,-0.706,-0.196,-0.847,-0.232c-0.146,0.211,-0.458,0.666,-1.079,1.572l-0.026,0.038c-1.276,1.863,-1.382,2.009,-1.788,2.225c-0.264,0.141,-0.523,0.21,-0.791,0.21c-0.129,0,-0.26,-0.017,-0.39,-0.05c-0.947,-0.242,-1.479,-1.143,-1.236,-2.095c0.034,-0.126,0.095,-0.306,0.143,-0.4c0.057,-0.109,0.789,-1.347,1.45,-2.46c1.228,-2.061,1.417,-2.369,1.604,-2.553c0.24,-0.24,0.579,-0.424,0.927,-0.503c0.13,-0.029,0.327,-0.046,0.455,-0.038c0.092,0.005,0.749,0.076,2.511,0.27c1.348,0.152,2.462,0.266,2.62,0.273c0.423,0.025,1.113,0.157,1.512,0.289c0.184,0.06,0.521,0.206,0.739,0.313c1.036,0.505,1.681,1.086,1.97,1.776c0.061,0.141,0.121,0.382,0.148,0.544c0.049,0.304,0.048,0.368,-0.003,0.687c-0.033,0.193,-0.093,0.442,-0.141,0.585l-0.004,0.012c-0.056,0.155,-0.842,1.927,-1.512,3.42c-0.393,0.872,-0.748,1.665,-1.005,2.241c-0.128,0.288,-0.232,0.521,-0.302,0.683c-0.001,0.001,-0.001,0.002,-0.002,0.004c0.28,0.149,0.841,0.444,1.849,0.974c1.341,0.704,2.089,1.1,2.228,1.178c0.241,0.133,0.511,0.379,0.672,0.613c0.151,0.22,0.357,0.691,0.423,0.969l0.007,0.028c0.107,0.458,0.107,0.458,-0.728,4.052l-0.07,0.301c-0.407,1.747,-0.841,3.59,-0.885,3.731l-0.004,0.012C22.559,30.425,21.816,30.986,20.958,30.986zM13.088,9.637h0.348c0.098,0,0.157,0,1.24,0.306c0.606,0.171,0.882,0.249,1.053,0.323c0.299,0.129,0.439,0.331,0.439,0.637c0,0.151,0,0.151,-0.74,2.014c-1.083,2.713,-1.766,4.458,-1.824,4.778c-0.066,0.363,0.089,0.862,0.396,1.271c0.281,0.374,0.825,0.836,1.324,1.124c0.249,0.14,2.067,0.869,2.751,1.143l1.55,0.622c1.036,0.415,1.036,0.415,1.066,0.431l0.201,0.101l0.102,0.203c0.1,0.199,0.071,0.368,0.009,0.737c-0.064,0.385,-0.202,1.13,-0.476,2.616c-0.53,2.893,-0.558,3.08,-0.495,3.342c0.051,0.214,0.174,0.408,0.331,0.52c0.184,0.131,0.391,0.201,0.596,0.201c0.427,0,0.804,-0.296,0.962,-0.754c0.036,-0.132,0.355,-1.467,0.865,-3.66l0.07,-0.301c0.765,-3.293,0.78,-3.388,0.728,-3.607l-0.006,-0.028c-0.037,-0.157,-0.192,-0.515,-0.276,-0.637c-0.073,-0.106,-0.231,-0.251,-0.338,-0.31l-0.018,-0.01c-0.02,-0.011,-0.244,-0.135,-2.192,-1.158c-2.168,-1.139,-2.168,-1.139,-2.253,-1.223c-0.335,-0.335,-0.196,-0.651,-0.036,-1.016c0.072,-0.163,0.176,-0.398,0.305,-0.688c0.257,-0.577,0.613,-1.371,1.006,-2.244c0.809,-1.804,1.42,-3.192,1.484,-3.351c0.029,-0.089,0.076,-0.283,0.1,-0.424c0.031,-0.192,0.031,-0.192,0.002,-0.37c-0.02,-0.124,-0.065,-0.278,-0.082,-0.316c-0.195,-0.467,-0.684,-0.883,-1.497,-1.279c-0.219,-0.107,-0.506,-0.227,-0.616,-0.262c-0.324,-0.107,-0.923,-0.222,-1.259,-0.242c-0.22,-0.01,-1.563,-0.153,-2.677,-0.278c-0.695,-0.077,-2.326,-0.257,-2.459,-0.266l-0.01,0c-0.06,0,-0.144,0.01,-0.174,0.016c-0.165,0.037,-0.339,0.131,-0.452,0.244c-0.108,0.106,-0.572,0.881,-1.451,2.357c-0.827,1.391,-1.354,2.287,-1.417,2.401c-0.012,0.029,-0.048,0.126,-0.069,0.206c-0.108,0.425,0.104,0.787,0.531,0.896c0.162,0.042,0.301,0.018,0.476,-0.075c0.171,-0.091,0.241,-0.164,1.441,-1.915l0.026,-0.038c0.988,-1.44,1.152,-1.68,1.206,-1.754l-0.001,0L13.088,9.637z" fill="#0964B0"/>
    <path d="M14.357,21.795c0.094,0.053,0.224,0.119,0.585,0.274c-0.479,0.64,-1.25,1.52,-2.19,2.345c-0.148,0.131,-0.451,0.408,-0.534,0.521c-0.045,0.059,-0.131,0.144,-0.176,0.177c-0.093,0.071,-0.203,0.214,-0.261,0.313c-0.178,0.306,-0.523,0.578,-0.899,0.708c-0.115,0.04,-0.287,0.062,-0.865,0.062c-0.611,0,-1.647,-0.024,-3.597,-0.073c-2.293,-0.06,-3.409,-0.094,-3.552,-0.127c-0.63,-0.138,-1.023,-0.497,-1.171,-1.066c-0.181,-0.711,0.172,-1.409,0.858,-1.696c0.34,-0.142,0.41,-0.147,3.75,-0.231c3.248,-0.076,3.258,-0.087,3.337,-0.166c0.022,-0.022,0.031,-0.031,1.324,-1.86c0.337,-0.48,0.73,-1.043,1.051,-1.503c0.114,0.229,0.251,0.453,0.412,0.667c0.443,0.589,1.177,1.221,1.916,1.647L14.357,21.795zM29.262,13.263c-0.313,-0.211,-4.241,-2.412,-5.97,-3.388c0.002,0.011,0.004,0.023,0.006,0.034c0.066,0.412,0.065,0.58,-0.002,1.001c-0.043,0.254,-0.114,0.548,-0.179,0.741l-0.013,0.037c-0.036,0.099,-0.233,0.551,-0.475,1.098c0.06,0.018,0.102,0.031,0.109,0.033c0.049,-0.011,0.169,-0.047,0.301,-0.098c0.048,-0.019,0.109,-0.009,0.182,0.024c0.301,-0.102,0.616,-0.177,0.918,-0.214c0.136,-0.017,0.28,-0.026,0.425,-0.026c0.517,0,1.034,0.111,1.417,0.304c1.264,0.635,1.587,2.2,0.784,3.806c-0.116,0.232,-0.243,0.444,-0.38,0.637c0.037,0.122,0.045,0.208,0.015,0.244c-0.112,0.136,-0.151,0.2,-0.164,0.229c0.002,0.002,0.018,0.017,0.019,0.018c0.002,0.001,0.016,0.004,0.068,0.004l0.035,0c0.204,-0.002,0.538,-0.078,0.742,-0.169c0.112,-0.05,0.183,-0.104,0.413,-0.338c0.271,-0.279,1.48,-1.394,1.875,-1.73c0.242,-0.205,0.438,-0.703,0.438,-1.11C29.826,13.964,29.588,13.486,29.262,13.263z" fill="#92CBEE"/>
    <path d="M22.509,13.056c0.128,-0.289,0.249,-0.564,0.349,-0.792c0.002,-0.001,0.003,-0.001,0.005,-0.002c0.077,-0.03,0.156,-0.048,0.242,-0.048c0.199,0,0.43,0.098,0.734,0.365C23.372,12.671,22.898,12.84,22.509,13.056zM29.536,12.856c-0.238,-0.161,-2.103,-1.212,-4.516,-2.571c-0.794,-0.447,-1.496,-0.842,-1.908,-1.076c0.089,0.231,0.155,0.513,0.185,0.698c0.038,0.235,0.053,0.391,0.048,0.559c0.349,0.197,0.758,0.427,1.194,0.672c1.682,0.947,4.224,2.377,4.446,2.527c0.194,0.132,0.351,0.461,0.351,0.732c0,0.296,-0.158,0.645,-0.266,0.736c-0.412,0.35,-1.626,1.47,-1.909,1.761c-0.202,0.206,-0.23,0.219,-0.261,0.233c-0.012,0.005,-0.025,0.011,-0.038,0.016c-0.033,-0.121,-0.086,-0.26,-0.158,-0.419c-0.261,0.494,-0.572,0.892,-0.948,1.209l0.122,0.128c0.002,0.002,0.008,0.008,0.017,0.017l0.081,0.093l0.139,0.04c0.058,0.017,0.117,0.024,0.206,0.024h0.003l0.038,0c0.268,-0.003,0.67,-0.094,0.937,-0.212c0.196,-0.088,0.318,-0.193,0.563,-0.444c0.258,-0.266,1.463,-1.377,1.841,-1.698c0.354,-0.3,0.612,-0.924,0.612,-1.484C30.317,13.805,29.996,13.171,29.536,12.856zM12.428,24.047c-0.108,0.095,-0.468,0.416,-0.599,0.591c-0.018,0.023,-0.066,0.071,-0.083,0.085c-0.163,0.124,-0.311,0.324,-0.387,0.456c-0.12,0.206,-0.37,0.4,-0.637,0.493c-0.066,0.023,-0.302,0.035,-0.704,0.035c-0.605,0,-1.638,-0.023,-3.584,-0.073c-1.365,-0.036,-3.231,-0.084,-3.466,-0.117c-0.443,-0.099,-0.695,-0.324,-0.795,-0.706c-0.121,-0.478,0.109,-0.929,0.573,-1.123c0.252,-0.105,0.385,-0.113,3.572,-0.193c3.444,-0.081,3.444,-0.081,3.672,-0.309c0.061,-0.061,0.061,-0.061,1.379,-1.926c0.249,-0.355,0.53,-0.757,0.789,-1.128c0.044,-0.064,0.088,-0.127,0.132,-0.189c-0.215,-0.322,-0.38,-0.662,-0.492,-1.007c-0.125,0.178,-0.273,0.39,-0.444,0.635c-0.259,0.371,-0.539,0.772,-0.787,1.125c-0.73,1.033,-1.082,1.53,-1.222,1.725c-0.318,0.028,-1.283,0.053,-3.051,0.094c-3.43,0.087,-3.496,0.088,-3.927,0.269c-0.916,0.383,-1.386,1.316,-1.144,2.271c0.195,0.751,0.728,1.243,1.535,1.42c0.167,0.039,0.666,0.062,3.65,0.139c1.955,0.05,2.994,0.073,3.609,0.073c0.591,0,0.831,-0.021,1.027,-0.089c0.488,-0.17,0.922,-0.516,1.162,-0.926c0.038,-0.065,0.107,-0.147,0.133,-0.168c0.083,-0.063,0.198,-0.178,0.267,-0.268l0.006,-0.009c0.041,-0.053,0.241,-0.249,0.463,-0.444c0.838,-0.736,1.761,-1.73,2.333,-2.517c-0.536,-0.223,-0.783,-0.333,-0.926,-0.405C14.04,22.44,13.334,23.252,12.428,24.047z" fill="#0964B0"/>
    <circle cx="22.75" cy="4.45" r="2.957" fill="#92CBEE"/>
    <path d="M22.75,7.9C20.848,7.9,19.3,6.352,19.3,4.45S20.848,1,22.75,1S26.2,2.548,26.2,4.45S24.652,7.9,22.75,7.9zM22.75,1.986c-1.359,0,-2.464,1.105,-2.464,2.464s1.105,2.464,2.464,2.464s2.464,-1.105,2.464,-2.464S24.109,1.986,22.75,1.986z" fill="#0964B0"/>
  </g>
</svg>
