<?xml version="1.0" encoding="UTF-8"?>
<!DOCTYPE svg PUBLIC "-//W3C//DTD SVG 1.1//EN" "http://www.w3.org/Graphics/SVG/1.1/DTD/svg11.dtd">
<svg version="1.1" id="Layer_1" xmlns="http://www.w3.org/2000/svg" xmlns:xlink="http://www.w3.org/1999/xlink" x="0px" y="0px" width="24px" height="24px" viewBox="0 0 24 24" enable-background="new 0 0 24 24" xml:space="preserve">
  <g id="icon">
    <path d="M18.8163,4.9828c-0.1606,-1.5426,-0.8456,-2.8878,-1.8325,-3.5983c-0.3955,-0.2847,-0.872,-0.4291,-1.4163,-0.4291c-0.813,0,-1.6631,0.3191,-2.4853,0.6277c-0.5778,0.2168,-1.1727,0.4401,-1.624,0.4928c-0.4538,-0.0459,-1.0502,-0.2273,-1.6301,-0.404c-0.8405,-0.2561,-1.7096,-0.521,-2.5223,-0.521c-0.6004,0,-1.1157,0.1488,-1.5319,0.4422c-0.6982,0.4641,-1.2297,1.3884,-1.4598,2.5405c-0.3611,1.8077,0.0612,3.8199,1.1278,5.3795c0.1266,0.2033,0.3793,1.2184,0.1985,2.3001c-0.1397,0.8354,-0.2915,6.1868,0.7683,8.6401c0.6604,1.5285,1.0127,2.2633,1.7985,2.2633c0.271,0,0.5339,-0.114,0.7212,-0.3128c0.3137,-0.3328,0.3519,-0.7878,0.3123,-1.4555c-0.0094,-0.3164,0.1972,-2.2349,0.6435,-4.1498c0.6881,-2.9523,1.3642,-3.4915,1.4846,-3.566l0.0966,-0.0038l0.0701,0.0027c0.1271,0.1032,0.7366,0.7492,1.1867,3.8805c0.2864,1.9925,0.3511,3.9673,0.3346,4.2457c-0.0375,0.6324,-0.0381,1.0724,0.2827,1.4125c0.1814,0.1923,0.4362,0.3025,0.6991,0.3025c0.0003,0,0.0006,0,0.0009,0c0.651,-0.0006,0.9256,-0.5688,1.0732,-0.8741c0.1176,-0.2434,0.2561,-0.5679,0.4315,-0.9789c0.0722,-0.1691,0.15,-0.3515,0.2336,-0.545c1.0181,-2.3564,1.5018,-8.1979,1.3493,-9.1103c-0.1402,-0.8386,0.194,-1.4612,0.5008,-1.9099C18.5652,8.2837,18.9873,6.6246,18.8163,4.9828z" fill="#FFFFFF" opacity="0.5"/>
    <path d="M14.0403,24c-0.5404,0,-1.063,-0.2243,-1.434,-0.6154c-0.6438,-0.6786,-0.593,-1.5306,-0.556,-2.1527c0.0103,-0.1891,-0.0393,-2.0355,-0.3262,-4.0197c-0.1086,-0.7523,-0.2328,-1.4017,-0.3705,-1.9391c-0.1695,0.4793,-0.3328,1.0527,-0.4875,1.7125c-0.4243,1.8106,-0.6159,3.5644,-0.6175,3.8651c0.0302,0.5137,0.0832,1.4628,-0.5868,2.1695c-0.3769,0.3978,-0.907,0.6259,-1.4544,0.6259c-1.483,0,-2.058,-1.3233,-2.7237,-2.8556c-1.1425,-2.6298,-1.0048,-8.1607,-0.8375,-9.1558c0.1295,-0.7707,-0.0239,-1.4449,-0.0839,-1.6248c-1.1815,-1.7591,-1.6438,-4.016,-1.2367,-6.0427c0.281,-1.3985,0.9667,-2.55,1.8813,-3.1593c0.5835,-0.4063,1.2908,-0.6135,2.099,-0.6135c0.9631,0,1.905,0.2855,2.8159,0.5615c0.4527,0.1372,0.9642,0.2922,1.3247,0.3486c0.339,-0.0645,0.8387,-0.2511,1.281,-0.4163C13.6344,0.3498,14.5717,0,15.5676,0c0.7599,0,1.4344,0.2071,2.005,0.6156c1.2167,0.8709,2.0566,2.4742,2.2466,4.2887c0.1957,1.869,-0.2871,3.757,-1.3594,5.3163c-0.2578,0.3749,-0.414,0.7168,-0.3384,1.1666c0.1676,0.9972,-0.3157,7.0855,-1.4183,9.6231c-0.0718,0.1651,-0.1391,0.3219,-0.2023,0.469l-0.0297,0.0691c-0.1798,0.4191,-0.3219,0.7503,-0.4509,1.0158c-0.1725,0.3548,-0.6975,1.4344,-1.9798,1.4357H14.0403zM11.9103,12.2207l0.2607,0.2106c0.6758,0.5462,1.1969,2.0585,1.5491,4.4948c0.2957,2.0462,0.3632,4.0863,0.3431,4.4244c-0.0207,0.3479,-0.0159,0.5194,-0.0034,0.6014c0.0294,-0.0417,0.0758,-0.119,0.1453,-0.2618c0.1087,-0.2239,0.2492,-0.5513,0.4119,-0.9305l0.0113,-0.0263c0.0696,-0.1623,0.1442,-0.3362,0.2242,-0.52c0.9777,-2.2503,1.397,-7.7998,1.2801,-8.4947c-0.2019,-1.201,0.2818,-2.0771,0.6633,-2.6317c0.8024,-1.1668,1.1638,-2.5782,1.0176,-3.9743c-0.1312,-1.2536,-0.6614,-2.3255,-1.4183,-2.8673c-0.2205,-0.1579,-0.499,-0.238,-0.8277,-0.238c-0.6307,0,-1.3936,0.2849,-2.1313,0.5603c-0.6329,0.2362,-1.2872,0.4804,-1.8611,0.5472l-0.1091,0.0126l-0.1091,-0.0109c-0.5541,-0.0559,-1.1981,-0.251,-1.8209,-0.4397c-0.7713,-0.2338,-1.5672,-0.4751,-2.2302,-0.4751c-0.3884,0,-0.7085,0.0864,-0.9514,0.2567l-0.0189,0.013c-0.4727,0.3124,-0.8577,1.0179,-1.0327,1.8894c-0.309,1.5379,0.0541,3.2521,0.971,4.5855l0.0205,0.031c0.3209,0.5125,0.5407,1.7983,0.3405,2.9888c-0.1266,0.753,-0.264,5.8101,0.6993,8.0275c0.2186,0.5029,0.668,1.537,0.8669,1.6403c0.0181,-0.0326,0.0644,-0.1693,0.0332,-0.6903l-0.0012,-0.026c-0.012,-0.3959,0.2079,-2.4195,0.6693,-4.3881c0.5416,-2.3107,1.193,-3.7142,1.9363,-4.1717l0.2259,-0.1389l0.4009,-0.0155L11.9103,12.2207z" fill="#6485C3"/>
  </g>
</svg>
