<?xml version="1.0" encoding="UTF-8"?>
<!DOCTYPE svg PUBLIC "-//W3C//DTD SVG 1.1//EN" "http://www.w3.org/Graphics/SVG/1.1/DTD/svg11.dtd">
<svg version="1.1" id="Layer_1" xmlns="http://www.w3.org/2000/svg" xmlns:xlink="http://www.w3.org/1999/xlink" x="0px" y="0px" width="24px" height="24px" viewBox="0 0 24 24" enable-background="new 0 0 24 24" xml:space="preserve">
  <g id="icon">
    <path d="M19.9595,4.4146c-0.1747,-1.6531,-0.9202,-3.0946,-1.994,-3.856c-0.4304,-0.3051,-0.9489,-0.4598,-1.5411,-0.4598c-0.8846,0,-1.8097,0.3419,-2.7043,0.6726c-0.6287,0.2324,-1.2761,0.4717,-1.7672,0.5281c-0.4938,-0.0492,-1.1427,-0.2435,-1.7737,-0.4329c-0.9145,-0.2745,-1.8602,-0.5583,-2.7446,-0.5583c-0.6534,0,-1.2141,0.1594,-1.6669,0.4738c-0.7597,0.4974,-1.338,1.4878,-1.5885,2.7225c-0.3929,1.9372,0.0666,4.0934,1.2272,5.7648c0.1378,0.2179,0.4128,1.3057,0.216,2.4649c-0.152,0.8953,-0.3172,6.6299,0.8361,9.2589c0.7186,1.638,1.102,2.4254,1.957,2.4254c0.2949,0,0.5809,-0.1222,0.7848,-0.3353c0.3414,-0.3566,0.383,-0.8442,0.3398,-1.5598c-0.0103,-0.3391,0.2146,-2.3949,0.7002,-4.447c0.7488,-3.1637,1.4844,-3.7416,1.6154,-3.8214l0.1051,-0.004l0.0763,0.0029c0.1383,0.1106,0.8016,0.8029,1.2912,4.1584c0.3116,2.1352,0.3821,4.2515,0.3641,4.5498c-0.0408,0.6777,-0.0415,1.1492,0.3076,1.5137c0.1974,0.2061,0.4746,0.3242,0.7607,0.3242c0.0003,0,0.0007,0,0.001,0c0.7084,-0.0007,1.0072,-0.6095,1.1677,-0.9367c0.128,-0.2608,0.2787,-0.6086,0.4695,-1.049c0.0785,-0.1813,0.1632,-0.3767,0.2542,-0.584c1.1078,-2.5252,1.6342,-8.785,1.4682,-9.7628c-0.1526,-0.8987,0.2111,-1.5659,0.5449,-2.0467C19.6862,7.9519,20.1455,6.174,19.9595,4.4146zM15.2107,18.4591c-0.3882,-1.5288,-0.1892,-7.7592,-3.3545,-8.2797c-3.1857,0.5205,-3.4022,6.7509,-3.7903,8.2797c-0.6067,-3.4101,-1.0433,-3.4101,0.601,-8.6845C7.5862,8.2538,7.414,5.5579,7.8775,5.2533c0.4291,-0.282,2.7668,1.4361,3.8829,1.6929c1.1161,-0.2568,3.4538,-1.9749,3.8829,-1.6929c0.4635,0.3046,0.0989,3.0005,-0.9817,4.5213C16.3059,15.049,15.8173,15.049,15.2107,18.4591z" fill="#6485C3"/>
    <path d="M15.6432,5.2533c-0.4291,-0.282,-2.7668,1.4361,-3.8829,1.6929c-1.1161,-0.2568,-3.4538,-1.9749,-3.8829,-1.6929c-0.4635,0.3046,-0.2913,3.0005,0.7893,4.5213c-1.6444,5.2744,-1.2077,5.2744,-0.601,8.6845c0.3881,-1.5288,0.6047,-7.7592,3.7904,-8.2797c3.1653,0.5205,2.9664,6.7509,3.3545,8.2797c0.6067,-3.4101,1.0952,-3.4101,-0.5491,-8.6845C15.7421,8.2538,16.1067,5.5579,15.6432,5.2533z" fill="#FFFFFF" opacity="0.5"/>
    <path d="M15.6432,5.2533c-0.4291,-0.282,-2.7668,1.4361,-3.8829,1.6929c-1.1161,-0.2568,-3.4538,-1.9749,-3.8829,-1.6929c-0.4635,0.3046,-0.2913,3.0005,0.7893,4.5213c-1.6444,5.2744,-1.2077,5.2744,-0.601,8.6845c0.3881,-1.5288,0.6047,-7.7592,3.7904,-8.2797c3.1653,0.5205,2.9664,6.7509,3.3545,8.2797c0.6067,-3.4101,1.0952,-3.4101,-0.5491,-8.6845C15.7421,8.2538,16.1067,5.5579,15.6432,5.2533z" fill="#6485C3" opacity="0.15"/>
  </g>
</svg>
