<?xml version="1.0" encoding="UTF-8"?>
<!DOCTYPE svg PUBLIC "-//W3C//DTD SVG 1.1//EN" "http://www.w3.org/Graphics/SVG/1.1/DTD/svg11.dtd">
<svg version="1.1" id="Layer_1" xmlns="http://www.w3.org/2000/svg" xmlns:xlink="http://www.w3.org/1999/xlink" x="0px" y="0px" width="24px" height="24px" viewBox="0 0 24 24" enable-background="new 0 0 24 24" xml:space="preserve">
  <g id="icon">
    <path d="M18.6095,9.5316l-0.0524,-0.0764c0.0282,-0.0785,0.0446,-0.1676,0.0446,-0.2685c0,-0.3277,-0.3417,-0.5438,-1.0558,-1.2046l-3.559,-5.1843c-0.2394,-0.5927,-0.4247,-0.9365,-0.7344,-0.8163c-0.5696,-0.0936,-1.6863,-0.3702,-2.208,-0.5279c-0.8541,-0.2582,-1.7374,-0.5251,-2.5633,-0.5251c-0.6102,0,-1.1339,0.15,-1.5568,0.4456c-0.7095,0.4678,-1.2497,1.3993,-1.4836,2.5606c-0.3669,1.8219,0.0622,3.8499,1.1461,5.4219c0.1287,0.2049,0.3855,1.228,0.2018,2.3183c-0.1419,0.842,-0.2963,6.2355,0.7809,8.7081c0.6711,1.5406,1.0292,2.2811,1.8277,2.2811c0.2754,0,0.5426,-0.1149,0.733,-0.3153c0.3188,-0.3354,0.3577,-0.794,0.3173,-1.467c-0.0096,-0.3189,0.2004,-2.2525,0.654,-4.1825c0.6993,-2.9755,1.3864,-3.519,1.5088,-3.5941l0.0981,-0.0038l0.0712,0.0028c0.1291,0.104,0.7486,0.7551,1.206,3.911c0.291,2.0082,0.3568,3.9986,0.3401,4.2792c-0.0381,0.6374,-0.0388,1.0809,0.2873,1.4236c0.1843,0.1938,0.4433,0.3049,0.7105,0.3049c0.0003,0,0.0006,0,0.0009,0c0.6616,-0.0006,0.9407,-0.5733,1.0906,-0.881c0.1195,-0.2453,0.2603,-0.5724,0.4385,-0.9866c0.0733,-0.1705,0.1524,-0.3543,0.2374,-0.5493c1.0347,-2.375,1.5262,-8.2624,1.3713,-9.1821C18.378,10.9249,18.4625,9.8876,18.6095,9.5316z" fill="#FFFFFF" opacity="0.5"/>
    <path d="M15.3252,24c-0.547,0,-1.0761,-0.2254,-1.4515,-0.6185c-0.6521,-0.6822,-0.6005,-1.5399,-0.5629,-2.166c0.0106,-0.1904,-0.0397,-2.0518,-0.3315,-4.0566c-0.1123,-0.7714,-0.2407,-1.4353,-0.3833,-1.9824c-0.1756,0.4887,-0.3445,1.0757,-0.5045,1.7531c-0.432,1.8296,-0.6263,3.5988,-0.6278,3.9013c0.0418,0.7125,0.0325,1.5267,-0.5942,2.183c-0.3814,0.3997,-0.9181,0.629,-1.4724,0.629c-1.5018,0,-2.0853,-1.3329,-2.7607,-2.8762c-1.1604,-2.6513,-1.0205,-8.2285,-0.8505,-9.2319c0.1323,-0.7812,-0.0246,-1.463,-0.0858,-1.6442c-1.2,-1.7732,-1.6696,-4.0481,-1.2563,-6.091c0.2851,-1.4088,0.9809,-2.5688,1.9088,-3.1823C6.9444,0.2085,7.6616,0,8.481,0c0.9769,0,1.9331,0.2876,2.8579,0.5657c0.5904,0.1777,1.8545,0.4789,2.2081,0.5142l0.2716,0.0269l-0.2047,1.9986l-0.2711,-0.0269c-0.5776,-0.0578,-2.0285,-0.4203,-2.5946,-0.5906c-0.7832,-0.2356,-1.5928,-0.4792,-2.2672,-0.4792c-0.3963,0,-0.7231,0.0876,-0.9714,0.2604l-0.0201,0.0136c-0.4811,0.3157,-0.8736,1.0295,-1.052,1.9107c-0.3144,1.5536,0.055,3.2853,0.9882,4.6323l0.0206,0.0311c0.3252,0.5153,0.548,1.81,0.3449,3.0095c-0.1287,0.7601,-0.2682,5.8648,0.7113,8.1029c0.2076,0.4742,0.6893,1.5746,0.8913,1.662c0.0209,-0.0271,0.0723,-0.1529,0.0388,-0.7073l-0.0012,-0.0259c-0.0121,-0.3994,0.2113,-2.4401,0.68,-4.4247c0.5499,-2.3291,1.2108,-3.7434,1.9641,-4.2036l0.2276,-0.139l0.4025,-0.0155l0.4519,0.0174l0.2625,0.2104c0.6852,0.5493,1.214,2.0733,1.5717,4.5297c0.3004,2.064,0.3691,4.1211,0.3486,4.4618c-0.0227,0.3774,-0.0152,0.5506,0,0.6268c0.0296,-0.0386,0.0799,-0.1179,0.1594,-0.2802c0.1106,-0.2257,0.2465,-0.5405,0.4188,-0.939l0.0048,-0.0112c0.0726,-0.1678,0.1507,-0.3482,0.2343,-0.5396c0.9942,-2.2714,1.4206,-7.8734,1.3018,-8.575c-0.1043,-0.6156,-0.0281,-1.8579,0.2094,-2.4303l0.1037,-0.2493L19.4,9.2l0.0507,0.7467c-0.0606,0.1491,-0.0458,0.9849,0.014,1.3383c0.1703,1.0056,-0.3207,7.1446,-1.4409,9.7036c-0.0811,0.1854,-0.1569,0.3607,-0.2275,0.524l-0.0082,0.0189c-0.1825,0.4224,-0.3268,0.7562,-0.4582,1.0246c-0.1746,0.3568,-0.7061,1.4425,-2.0047,1.4438H15.3252z" fill="#6485C3"/>
    <path d="M18.0106,10.6721c-3.8809,0,-6.8076,-2.4783,-6.8076,-5.7648c0,-1.1688,0.2887,-2.1095,0.9084,-2.9603l0.0109,-0.0145c0.215,-0.2809,0.7187,-0.9387,1.4302,-0.8407c0.7118,0.0977,0.9774,0.7713,1.3139,1.624c0.2967,0.7523,0.7032,1.7827,1.4804,2.7237c1.0285,1.2451,1.758,1.8926,2.2407,2.321c0.5298,0.4702,0.9125,0.8099,0.9125,1.4049C19.5,10.0961,18.7269,10.6721,18.0106,10.6721zM13.301,2.8783c-0.4074,0.5822,-0.5821,1.1938,-0.5821,2.029c0,2.405,2.2222,4.2254,5.1864,4.2675c-0.089,-0.0864,-0.2151,-0.1982,-0.3315,-0.3015c-0.486,-0.4313,-1.2994,-1.1533,-2.402,-2.4882l0,0c-0.9283,-1.1238,-1.3848,-2.2813,-1.7182,-3.1264C13.4054,3.1363,13.3525,3.0021,13.301,2.8783z" fill="#7B7B7B"/>
    <path d="M18.0105,10.3721c-3.7099,0,-6.5075,-2.3493,-6.5075,-5.4647c0,-1.1021,0.2704,-1.9867,0.8508,-2.7837l0.0086,-0.0114c0.1801,-0.2353,0.5591,-0.7303,1.0471,-0.7303c0.0336,0,0.068,0.0024,0.102,0.0071c0.513,0.0704,0.7322,0.5662,1.0756,1.4366c0.3042,0.7712,0.7207,1.8271,1.5283,2.805c1.0436,1.2634,1.7834,1.9199,2.2729,2.3543c0.5482,0.4866,0.8116,0.74,0.8116,1.1806C19.2,9.9108,18.5826,10.3721,18.0105,10.3721z" fill="#7B7B7B" opacity="0.2"/>
  </g>
</svg>
