<?xml version="1.0" encoding="UTF-8"?>
<!DOCTYPE svg PUBLIC "-//W3C//DTD SVG 1.1//EN" "http://www.w3.org/Graphics/SVG/1.1/DTD/svg11.dtd">
<svg version="1.1" id="Layer_1" xmlns="http://www.w3.org/2000/svg" xmlns:xlink="http://www.w3.org/1999/xlink" x="0px" y="0px" width="24px" height="24px" viewBox="0 0 24 24" enable-background="new 0 0 24 24" xml:space="preserve">
  <g id="icon">
    <path d="M19.7075,22.95H3.4925c-0.6862,0,-1.2425,-0.5563,-1.2425,-1.2425V1.9925C2.25,1.3063,2.8063,0.75,3.4925,0.75h16.215c0.6862,0,1.2425,0.5563,1.2425,1.2425v19.715C20.95,22.3937,20.3937,22.95,19.7075,22.95z" fill="#FFFFFF" opacity="0.4"/>
    <path d="M1,21.1363V2.8637C1,1.2821,2.2821,0,3.8637,0h15.2726C20.7179,0,22,1.2821,22,2.8637v18.2726C22,22.7179,20.7179,24,19.1363,24H3.8637C2.2821,24,1,22.7179,1,21.1363zM3,2.8637v18.2726c0,0.477,0.3867,0.8637,0.8637,0.8637h15.2726c0.477,0,0.8637,-0.3867,0.8637,-0.8637V2.8637c0,-0.477,-0.3867,-0.8637,-0.8637,-0.8637H3.8637C3.3867,2,3,2.3867,3,2.8637z" fill="#7B7B7B"/>
    <path d="M18,11h-5.5v-1h5.5V11zM10.5,11H5v-1h5.5V11zM18,9h-5.5V8h5.5V9zM10.5,9H5V8h5.5V9zM18,7h-5.5V6h5.5V7zM10.5,7H5V6h5.5V7zM18,5h-5.5V4h5.5V5zM10.5,5H5V4h5.5V5zM18,13h-5.5v-1h5.5V13zM10.5,13H5v-1h5.5V13zM18,15h-5.5v-1h5.5V15zM10.5,15H5v-1h5.5V15z" fill="#B7B7B7"/>
    <path d="M18,20H5v-4h13V20zM6,19h11v-2H6V19z" fill="#6485C3"/>
  </g>
</svg>
