<?xml version="1.0" encoding="UTF-8"?>
<!DOCTYPE svg PUBLIC "-//W3C//DTD SVG 1.1//EN" "http://www.w3.org/Graphics/SVG/1.1/DTD/svg11.dtd">
<svg version="1.1" id="Layer_1" xmlns="http://www.w3.org/2000/svg" xmlns:xlink="http://www.w3.org/1999/xlink" x="0px" y="0px" width="24px" height="24px" viewBox="0 0 24 24" enable-background="new 0 0 24 24" xml:space="preserve">
  <g id="icon">
    <polygon points="12.5599,4.9762 13.327,4.2309 19.79,10.6162 19.0299,11.3691" fill="#FFFFFF" stroke-linejoin="miter" opacity="0.5"/>
    <path d="M21.5687,11.4138c-0.5365,0.0678,-1.069,-0.132,-1.4493,-0.511l-0.3085,-0.3075l-6.7241,-6.6147c-0.1789,-0.1783,-0.3022,-0.4767,-0.3748,-0.7198l-0.0732,-0.2454c-0.1276,-0.4273,-0.1033,-0.8928,0.0908,-1.2987c0.7053,-1.4752,2.7898,-2.132,3.7732,-1.1517l6.8106,6.7871c0.2414,0.2404,0.4208,0.5408,0.5187,0.8685C24.1927,9.4288,23.0713,11.2239,21.5687,11.4138zM12.5599,4.9762l6.4699,6.3929l-4.2419,4.2096c-0.2679,0.2703,-1.0812,1.0909,-1.8629,1.7097C3.6844,24.5364,1.9749,24.0052,1.3314,23.805c-0.285,-0.0885,-0.5212,-0.2494,-0.6866,-0.4613c-0.1931,-0.1538,-0.3641,-0.3809,-0.4584,-0.6967c-0.1934,-0.6478,-0.7071,-2.3685,6.4302,-11.6388c0.616,-0.7926,1.4289,-1.6128,1.6961,-1.8823L12.5599,4.9762zM11.8975,15.9019l-3.865,-3.8751l-1.0404,1.0441l3.865,3.8751L11.8975,15.9019zM13.8592,13.9332l-3.865,-3.8751l-1.0404,1.0441l3.865,3.8751L13.8592,13.9332zM15.821,11.9645l-3.865,-3.8751l-1.0404,1.0441l3.865,3.8751L15.821,11.9645z" fill="#6485C3"/>
    <path d="M10.857,16.946l-3.865,-3.8751l1.0404,-1.0441l3.865,3.8751L10.857,16.946zM12.8188,14.9773l-3.865,-3.8751l1.0404,-1.0441l3.865,3.8751L12.8188,14.9773zM14.7806,13.0086l-3.865,-3.8751l1.0404,-1.0441l3.865,3.8751L14.7806,13.0086z" fill="#FFFFFF" opacity="0.5"/>
  </g>
</svg>
