<?xml version="1.0" encoding="UTF-8"?>
<!DOCTYPE svg PUBLIC "-//W3C//DTD SVG 1.1//EN" "http://www.w3.org/Graphics/SVG/1.1/DTD/svg11.dtd">
<svg version="1.1" id="Layer_1" xmlns="http://www.w3.org/2000/svg" xmlns:xlink="http://www.w3.org/1999/xlink" x="0px" y="0px" width="24px" height="24px" viewBox="0 0 24 24" enable-background="new 0 0 24 24" xml:space="preserve">
  <g id="icon">
    <polygon points="22,7 22,21 2,21 2,7 0,7 0,23 24,23 24,7" fill="#7B7B7B" stroke-linejoin="miter"/>
    <path d="M0,1v6h24V1H0zM14,5h-2V3h2V5zM18,5h-2V3h2V5zM22,5h-2V3h2V5z" fill="#6485C3"/>
    <path d="M22,21H2V7h20V21zM22,3h-2v2h2V3zM18,3h-2v2h2V3zM14,3h-2v2h2V3z" fill="#FFFFFF" opacity="0.5"/>
    <path d="M17.6757,12.2584c0,-3.1948,-3.7205,-4.5782,-5.6787,-1.6533c-1.9582,-2.9249,-5.6787,-1.5415,-5.6787,1.6533c0,3.7222,5.6787,7.5166,5.6787,7.5166S17.6757,15.9805,17.6757,12.2584z" fill="#CB525D"/>
  </g>
</svg>
