<?xml version="1.0" encoding="UTF-8"?>
<!DOCTYPE svg PUBLIC "-//W3C//DTD SVG 1.1//EN" "http://www.w3.org/Graphics/SVG/1.1/DTD/svg11.dtd">
<svg version="1.1" id="Layer_1" xmlns="http://www.w3.org/2000/svg" xmlns:xlink="http://www.w3.org/1999/xlink" x="0px" y="0px" width="24px" height="24px" viewBox="0 0 24 24" enable-background="new 0 0 24 24" xml:space="preserve">
  <g id="icon">
    <g>
      <path d="M12.6844,7.5775c-0.2067,-0.1506,-0.5577,-0.2303,-1.0152,-0.2303h-0.6116v1.6483h0.6116c0.2113,0,0.4028,-0.0263,0.5691,-0.078c0.1575,-0.049,0.2913,-0.1148,0.3977,-0.1955c0.0718,-0.0544,0.1487,-0.1545,0.2112,-0.2745c0.0465,-0.0894,0.0691,-0.1872,0.0691,-0.2991C12.9165,7.7944,12.7992,7.6612,12.6844,7.5775z" fill="#CB525D"/>
      <path d="M17.8501,7.5283c-0.1255,-0.0825,-0.3841,-0.1811,-0.9026,-0.1811h-0.5399v1.4119h0.4679c0.2124,0,0.4013,-0.0221,0.5614,-0.0659c0.1417,-0.0386,0.2596,-0.0912,0.3504,-0.1561c0.0729,-0.0521,0.1266,-0.1123,0.1641,-0.184c0.0278,-0.0531,0.0558,-0.1633,0.0558,-0.2902C18.0073,7.7593,17.8963,7.5602,17.8501,7.5283z" fill="#CB525D"/>
      <path d="M19.0182,0.2822C18.4065,0.0949,17.7797,0,17.1554,0C15.2576,0,13.4387,0.8669,12,2.4491C10.5612,0.867,8.7423,0.0001,6.8442,0.0001c-0.624,0,-1.2506,0.0949,-1.8624,0.282C1.9555,1.2084,0,4.1014,0,7.6526c0,7.9153,10.8786,15.5682,11.3418,15.8901L12,24l0.6582,-0.4574C13.1214,23.2207,24,15.5678,24,7.6526C24,4.1014,22.0445,1.2084,19.0182,0.2822zM8.5664,12.277c-0.1524,0.1203,-0.3215,0.2252,-0.5021,0.3113c-0.1813,0.0865,-0.3808,0.1546,-0.5929,0.2025c-0.2129,0.0479,-0.4462,0.0723,-0.6935,0.0723c-0.42,0,-0.8155,-0.0852,-1.1756,-0.2533c-0.3582,-0.1671,-0.6709,-0.4092,-0.9296,-0.7195c-0.2485,-0.298,-0.4427,-0.6581,-0.577,-1.07C3.9659,10.4224,3.9,9.9742,3.9,9.4879c0,-0.4713,0.0659,-0.9114,0.1959,-1.3083c0.1344,-0.4104,0.3302,-0.7717,0.5821,-1.0734c0.2616,-0.3136,0.581,-0.56,0.9492,-0.7323c0.3704,-0.1733,0.7805,-0.2612,1.2189,-0.2612c0.2,0,0.393,0.0177,0.5737,0.0526c0.1865,0.036,0.3664,0.0912,0.5349,0.164c0.1621,0.0701,0.3198,0.1571,0.4684,0.2588c0.1406,0.0962,0.2789,0.2078,0.4117,0.3319l-0.9198,0.9085c-0.085,-0.0794,-0.1717,-0.1495,-0.2575,-0.2082c-0.0782,-0.0535,-0.1605,-0.0991,-0.2442,-0.1352c-0.0787,-0.034,-0.164,-0.06,-0.2537,-0.0773c-0.0952,-0.0184,-0.2007,-0.0277,-0.3135,-0.0277c-0.2398,0,-0.4495,0.0436,-0.6409,0.1332c-0.1942,0.0909,-0.357,0.217,-0.4976,0.3856c-0.1492,0.1787,-0.2679,0.4012,-0.353,0.6611c-0.0897,0.2738,-0.1351,0.586,-0.1351,0.9281c0,0.3576,0.0455,0.6784,0.1353,0.9535c0.0852,0.2612,0.2022,0.4822,0.3479,0.6569c0.1372,0.1646,0.2931,0.2861,0.4763,0.3717c0.1815,0.0846,0.3774,0.1258,0.599,0.1258c0.146,0,0.2779,-0.013,0.3918,-0.0387c0.1135,-0.0256,0.2171,-0.0606,0.3078,-0.1038c0.0913,-0.0436,0.176,-0.096,0.2517,-0.1557c0.0867,-0.0683,0.1691,-0.1451,0.2452,-0.2286l0.9924,0.835C8.8432,12.0396,8.7085,12.1651,8.5664,12.277zM14.0275,9.0141c-0.1049,0.2015,-0.2895,0.4868,-0.5734,0.7022c-0.2296,0.1743,-0.5019,0.3112,-0.809,0.4067c-0.2979,0.0927,-0.6263,0.1397,-0.9758,0.1397h-0.6116v2.6633H9.7383V6.08h1.931c0.7586,0,1.3686,0.1642,1.8129,0.4882c0.5001,0.3647,0.7537,0.8963,0.7537,1.5801C14.2359,8.4571,14.1657,8.7484,14.0275,9.0141zM18.4775,13.0156l-1.9226,-2.9892h-0.1472v2.8997h-1.3194V6.08h1.8592c0.6971,0,1.2363,0.1318,1.6484,0.403c0.4576,0.3012,0.7308,0.8918,0.7308,1.58c0,0.3123,-0.0697,0.6175,-0.1963,0.8593c-0.1301,0.2486,-0.317,0.4611,-0.5554,0.6315c-0.1701,0.1216,-0.3651,0.2212,-0.5818,0.2975L19.6,12.3495L18.4775,13.0156z" fill="#CB525D"/>
    </g>
    <path d="M6.7778,12.8631c-0.42,0,-0.8155,-0.0852,-1.1756,-0.2533c-0.3582,-0.1671,-0.6709,-0.4092,-0.9296,-0.7195c-0.2485,-0.298,-0.4427,-0.6581,-0.577,-1.07C3.9659,10.4224,3.9,9.9742,3.9,9.4879c0,-0.4713,0.0659,-0.9114,0.1959,-1.3083c0.1344,-0.4104,0.3302,-0.7717,0.5821,-1.0734c0.2616,-0.3136,0.581,-0.56,0.9492,-0.7323c0.3704,-0.1733,0.7804,-0.2612,1.2189,-0.2612c0.2,0,0.3931,0.0177,0.5736,0.0526c0.1865,0.036,0.3664,0.0912,0.5349,0.164c0.1621,0.0701,0.3198,0.1571,0.4684,0.2588c0.1406,0.0963,0.279,0.2078,0.4117,0.3319l-0.9198,0.9085c-0.085,-0.0794,-0.1717,-0.1495,-0.2575,-0.2082c-0.0782,-0.0535,-0.1605,-0.0991,-0.2442,-0.1352c-0.0787,-0.034,-0.164,-0.06,-0.2537,-0.0773c-0.0952,-0.0184,-0.2007,-0.0277,-0.3135,-0.0277c-0.2398,0,-0.4495,0.0436,-0.6409,0.1332c-0.1942,0.0909,-0.357,0.217,-0.4976,0.3856c-0.1492,0.1788,-0.2679,0.4012,-0.353,0.6611c-0.0897,0.2738,-0.1351,0.586,-0.1351,0.9281c0,0.3576,0.0455,0.6784,0.1353,0.9535c0.0852,0.2612,0.2022,0.4822,0.3479,0.6569c0.1372,0.1646,0.2931,0.2861,0.4763,0.3717c0.1815,0.0846,0.3774,0.1258,0.599,0.1258c0.146,0,0.2779,-0.013,0.3918,-0.0387c0.1135,-0.0256,0.2171,-0.0606,0.3078,-0.1038c0.0913,-0.0436,0.176,-0.096,0.2517,-0.1557c0.0867,-0.0683,0.1691,-0.1451,0.2452,-0.2286l0.9924,0.835c-0.1235,0.1354,-0.2582,0.2609,-0.4003,0.3728c-0.1524,0.1203,-0.3215,0.2252,-0.5021,0.3113c-0.1813,0.0865,-0.3808,0.1546,-0.5929,0.2025C7.2585,12.8388,7.0252,12.8631,6.7778,12.8631zM14.2359,8.1483c0,0.3088,-0.0701,0.6001,-0.2084,0.8658c-0.1049,0.2015,-0.2895,0.4868,-0.5734,0.7022c-0.2296,0.1743,-0.5019,0.3112,-0.809,0.4067c-0.2979,0.0927,-0.6263,0.1397,-0.9758,0.1397h-0.6116v2.6633H9.7383V6.08h1.931c0.7586,0,1.3686,0.1642,1.8129,0.4882C13.9823,6.9329,14.2359,7.4645,14.2359,8.1483zM12.9165,8.1483c0,-0.3539,-0.1173,-0.4871,-0.2321,-0.5708c-0.2067,-0.1506,-0.5577,-0.2303,-1.0152,-0.2303h-0.6116v1.6483h0.6116c0.2113,0,0.4028,-0.0263,0.5691,-0.078c0.1575,-0.049,0.2913,-0.1148,0.3977,-0.1955c0.0718,-0.0545,0.1487,-0.1545,0.2112,-0.2745C12.8939,8.3581,12.9165,8.2602,12.9165,8.1483zM19.6,12.3495l-1.6068,-2.4982c0.2167,-0.0763,0.4117,-0.1759,0.5818,-0.2975c0.2384,-0.1704,0.4253,-0.3829,0.5554,-0.6315c0.1266,-0.2418,0.1963,-0.547,0.1963,-0.8593c0,-0.6881,-0.2732,-1.2788,-0.7308,-1.58c-0.4121,-0.2712,-0.9513,-0.403,-1.6484,-0.403h-1.8592v6.8461h1.3194v-2.8997h0.1472l1.9226,2.9892L19.6,12.3495zM16.4076,7.3472h0.5399c0.5185,0,0.7771,0.0986,0.9026,0.1811c0.0462,0.0319,0.1572,0.231,0.1572,0.5347c0,0.1269,-0.028,0.2371,-0.0558,0.2902c-0.0375,0.0717,-0.0912,0.1319,-0.1641,0.184c-0.0908,0.0649,-0.2087,0.1174,-0.3504,0.1561c-0.1601,0.0437,-0.349,0.0659,-0.5614,0.0659h-0.4679V7.3472z" fill="#FFFFFF"/>
  </g>
</svg>
