<?xml version="1.0" encoding="UTF-8"?>
<!DOCTYPE svg PUBLIC "-//W3C//DTD SVG 1.1//EN" "http://www.w3.org/Graphics/SVG/1.1/DTD/svg11.dtd">
<svg version="1.1" id="Layer_1" xmlns="http://www.w3.org/2000/svg" xmlns:xlink="http://www.w3.org/1999/xlink" x="0px" y="0px" width="24px" height="24px" viewBox="0 0 24 24" enable-background="new 0 0 24 24" xml:space="preserve">
  <g id="icon">
    <path d="M10,22.9131v-7.1291l-6.0661,4.3976c-0.0187,0.0128,-0.0373,0.0155,-0.0497,0.0155c-0.0289,0,-0.0551,-0.0133,-0.0717,-0.0365l-2.2666,-3.1508c-0.0186,-0.0258,-0.0174,-0.0521,-0.015,-0.0656c0.0024,-0.0134,0.0103,-0.0385,0.0366,-0.0566l6.8065,-4.8736L1.5674,7.1404c-0.0263,-0.018,-0.0342,-0.0432,-0.0366,-0.0565c-0.0024,-0.0134,-0.0036,-0.0397,0.015,-0.0655l2.266,-3.1516c0.0167,-0.0233,0.0429,-0.0366,0.0718,-0.0366c0.0124,0,0.031,0.0027,0.1497,0.0154L10,8.1448V1.0869c0,-0.048,0.0389,-0.0869,0.0869,-0.0869h3.8261c0.048,0,0.0869,0.0389,0.0869,0.0869v7.058l5.9657,-4.2992c0.0186,-0.0128,0.0373,-0.0154,0.0497,-0.0154c0.029,0,0.0551,0.0133,0.0719,0.0366l2.2658,3.1516c0.0186,0.0258,0.0174,0.0521,0.0149,0.0655c-0.0023,0.0134,-0.0103,0.0385,-0.0366,0.0565l-6.8054,4.8735l6.8052,4.8737c0.0264,0.018,0.0342,0.0432,0.0366,0.0566c0.0023,0.0133,0.0036,0.0396,-0.0149,0.0654l-2.2658,3.1508c-0.0167,0.0232,-0.0429,0.0365,-0.0719,0.0365c-0.0123,0,-0.031,-0.0026,-0.0496,-0.0154L14,15.8839v7.0291c0,0.048,-0.0389,0.0869,-0.0869,0.0869h-3.8261C10.0389,23,10,22.9611,10,22.9131z" fill="#6485C3"/>
  </g>
</svg>
