<?xml version="1.0" encoding="UTF-8"?>
<!DOCTYPE svg PUBLIC "-//W3C//DTD SVG 1.1//EN" "http://www.w3.org/Graphics/SVG/1.1/DTD/svg11.dtd">
<svg version="1.1" id="Layer_1" xmlns="http://www.w3.org/2000/svg" xmlns:xlink="http://www.w3.org/1999/xlink" x="0px" y="0px" width="24px" height="24px" viewBox="0 0 24 24" enable-background="new 0 0 24 24" xml:space="preserve">
  <g id="icon">
    <path d="M23.3717,8.1759c-0.3696,-0.0474,-2.7569,-0.3116,-3.6021,0.6511c-0.9172,1.0446,0.2526,1.8281,-0.673,2.5821c-0.9256,0.754,-3.2649,0.3691,-3.9794,1.0659c-0.5365,0.5233,-0.9443,1.4478,-1.1142,1.8758c0.165,-0.0419,0.3291,-0.0588,0.5186,-0.0191c0.7082,0.1482,0.8295,1.4367,1.19,1.5333c0.456,0.1222,1.1905,-0.7091,1.6941,-1.0434c0.5036,-0.3343,1.2969,0.0784,1.4422,0.6693c0.0918,0.3734,-0.3455,1.7014,-0.8886,2.0803c-0.5431,0.3789,-1.7243,-0.2343,-2.2656,0.0346c-1.4115,0.9673,-1.0528,1.8431,-1.555,2.4814c-0.5018,0.6377,-1.2188,1.0465,-2.0654,1.0129c-0.8466,-0.0336,-2.3503,-0.6022,-3.1141,-0.9448c-0.7638,-0.3427,-2.2242,-1.1756,-2.8091,-1.7739c-0.5849,-0.5983,-1.2948,-1.451,-1.5835,-2.7427c-0.2887,-1.2918,1.0175,-3.5914,1.0581,-4.4638c0.0405,-0.8723,-0.7549,-2.0239,-1.1904,-2.665c-0.4354,-0.6411,-0.3084,-2.0423,0.1598,-2.9656C5.0622,4.621,5.9438,4.112,6.6842,3.924c0.7404,-0.188,1.2334,-0.2767,2.0386,-0.0886c0.8052,0.1882,1.2995,0.4034,1.7456,0.7989c0.446,0.3955,0.664,0.5091,0.7646,1.0605c0.1007,0.5514,-0.2985,1.2172,-0.3354,1.8698c-0.0369,0.6525,0.1586,0.9533,0.1236,1.4959c-0.035,0.5426,-0.0631,1.0595,-0.7814,1.4742c-0.7183,0.4147,-1.4959,0.1236,-1.7935,0.513c-0.2976,0.3895,-0.2498,0.6231,0.0606,1.0099c0.3104,0.3868,0.5541,0.5073,0.8443,0.5574c0.2902,0.0502,0.3674,0.0709,0.7009,-0.1434c0.3334,-0.2143,0.5896,-0.4492,0.8664,-0.7614c0.2769,-0.3122,0.3785,-0.5886,0.5574,-0.8442c0.1789,-0.2557,0.2737,-0.5063,0.4746,-0.5352c0.201,-0.029,0.4019,-0.0579,0.618,0.1656c0.2161,0.2235,0.3016,0.5224,0.4524,0.7836c0.1508,0.2612,0.3016,0.5224,0.1434,0.7008c-0.1582,0.1784,-0.5919,0.2002,-0.8016,0.3648c-0.2097,0.1646,-0.3858,0.2554,-0.4567,0.6228c-0.0708,0.3674,-0.3211,1.4044,-0.105,1.6279c0.1781,0.1842,0.6187,0.1575,1.0806,0.0717c0.2528,-0.6861,0.9737,-2.5386,1.5455,-2.9885c0.7056,-0.5552,2.8412,-0.5723,3.6355,-0.93c0.7943,-0.3578,-0.2858,-1.8084,0.6193,-2.914c0.8039,-0.982,3.67,-0.7307,4.3007,-0.6623C21.5676,3.959,18.7613,1.3915,15.105,0.4119C8.705,-1.303,2.1266,2.495,0.4118,8.895c-1.7149,6.4,2.0832,12.9784,8.4831,14.6932c6.4,1.7149,12.9784,-2.0832,14.6932,-8.4831C24.2234,12.7343,24.1015,10.3394,23.3717,8.1759z" fill="#6485C3"/>
    <path d="M23.1062,7.1876c0,0,-3.5192,-0.4577,-4.4243,0.6479c-0.9051,1.1056,0.175,2.5562,-0.6193,2.914c-0.7943,0.3578,-2.9299,0.3749,-3.6355,0.93c-0.5718,0.45,-1.2927,2.3024,-1.5455,2.9885c-0.4619,0.0858,-0.9026,0.1124,-1.0806,-0.0717c-0.2161,-0.2235,0.0341,-1.2605,0.105,-1.6279c0.0708,-0.3674,0.247,-0.4582,0.4567,-0.6228c0.2097,-0.1646,0.6434,-0.1864,0.8016,-0.3648c0.1582,-0.1784,0.0074,-0.4396,-0.1434,-0.7008c-0.1508,-0.2612,-0.2363,-0.5601,-0.4524,-0.7836c-0.2161,-0.2235,-0.4171,-0.1946,-0.618,-0.1656c-0.201,0.029,-0.2957,0.2796,-0.4746,0.5352c-0.1789,0.2557,-0.2806,0.532,-0.5574,0.8442c-0.2769,0.3122,-0.533,0.5472,-0.8664,0.7614c-0.3334,0.2143,-0.4107,0.1936,-0.7009,0.1434c-0.2902,-0.0501,-0.5339,-0.1706,-0.8443,-0.5574c-0.3104,-0.3868,-0.3582,-0.6204,-0.0606,-1.0099c0.2976,-0.3895,1.0751,-0.0983,1.7935,-0.513c0.7183,-0.4147,0.7464,-0.9316,0.7814,-1.4742c0.035,-0.5426,-0.1604,-0.8434,-0.1236,-1.4959c0.0368,-0.6525,0.4361,-1.3184,0.3354,-1.8698c-0.1007,-0.5514,-0.3186,-0.665,-0.7646,-1.0605c-0.446,-0.3955,-0.9404,-0.6108,-1.7456,-0.7989c-0.8052,-0.1882,-1.2982,-0.0994,-2.0386,0.0886c-0.7404,0.188,-1.622,0.697,-2.0902,1.6204c-0.4682,0.9234,-0.5953,2.3245,-0.1598,2.9656c0.4354,0.6411,1.2309,1.7926,1.1904,2.665c-0.0405,0.8724,-1.3467,3.172,-1.0581,4.4638c0.2887,1.2918,0.9986,2.1444,1.5835,2.7427c0.5849,0.5983,2.0453,1.4313,2.8091,1.7739c0.7638,0.3427,2.2675,0.9112,3.1141,0.9448c0.8466,0.0336,1.5636,-0.3752,2.0654,-1.0129c0.5022,-0.6382,0.1435,-1.5141,1.555,-2.4814c0.5413,-0.269,1.7225,0.3442,2.2656,-0.0346c0.5431,-0.3789,0.9804,-1.7069,0.8886,-2.0803c-0.1453,-0.5909,-0.9386,-1.0036,-1.4422,-0.6693c-0.5036,0.3343,-1.2381,1.1656,-1.6941,1.0434c-0.3605,-0.0966,-0.4818,-1.3851,-1.19,-1.5333c-0.1894,-0.0396,-0.3536,-0.0228,-0.5186,0.0191c0.1699,-0.4281,0.5776,-1.3525,1.1142,-1.8758c0.7144,-0.6969,3.0538,-0.3119,3.9794,-1.0659c0.9256,-0.754,-0.2442,-1.5375,0.673,-2.5821c0.9172,-1.0446,3.6522,-0.6444,3.6522,-0.6444L23.1062,7.1876z" fill-rule="evenodd" fill="#FFFFFF" opacity="0.5"/>
  </g>
</svg>
