<?xml version="1.0" encoding="UTF-8"?>
<!DOCTYPE svg PUBLIC "-//W3C//DTD SVG 1.1//EN" "http://www.w3.org/Graphics/SVG/1.1/DTD/svg11.dtd">
<svg version="1.1" id="Layer_1" xmlns="http://www.w3.org/2000/svg" xmlns:xlink="http://www.w3.org/1999/xlink" x="0px" y="0px" width="24px" height="24px" viewBox="0 0 24 24" enable-background="new 0 0 24 24" xml:space="preserve">
  <g id="icon">
    <path d="M0.1194,8.8142c-0.3942,3.6454,6.5804,3.7494,6.7599,6.7508c0.1795,3.0015,-4.7875,4.9078,-1.6947,7.6352c3.0928,2.7274,5.7774,-3.4271,8.9768,-3.465c3.1994,-0.0379,7.8891,6.1333,9.4533,1.6633c1.5642,-4.47,-3.7796,-4.4112,-4.4906,-8.4266s5.3591,-4.5972,3.815,-7.6145s-6.5727,0.3433,-8.4238,0.3512c-2.9312,0.0121,-2.1789,-6.1295,-5.6426,-5.5699c-3.4637,0.5596,-0.8217,4.3181,-2.0659,6.591C5.5626,9.0026,0.5136,5.1688,0.1194,8.8142z" fill="#9070B1"/>
  </g>
</svg>
