<?xml version="1.0" encoding="UTF-8"?>
<!DOCTYPE svg PUBLIC "-//W3C//DTD SVG 1.1//EN" "http://www.w3.org/Graphics/SVG/1.1/DTD/svg11.dtd">
<svg version="1.1" id="Layer_1" xmlns="http://www.w3.org/2000/svg" xmlns:xlink="http://www.w3.org/1999/xlink" x="0px" y="0px" width="24px" height="24px" viewBox="0 0 24 24" enable-background="new 0 0 24 24" xml:space="preserve">
  <g id="icon">
    <g>
      <rect x="7" y="7" width="9" height="9" fill="#7B7B7B"/>
      <path d="M18.6643,0H0v23h23V4.3357L18.6643,0zM15,4h1v1.5h-1V4zM13,4h1v1.5h-1V4zM11,4h1v1.5h-1V4zM9,4h1v1.5H9V4zM7,4h1v1.5H7V4zM5.5,16H4v-1h1.5V16zM5.5,14H4v-1h1.5V14zM5.5,12H4v-1h1.5V12zM5.5,10H4V9h1.5V10zM5.5,8H4V7h1.5V8zM8,19H7v-1.5h1V19zM10,19H9v-1.5h1V19zM12,19h-1v-1.5h1V19zM14,19h-1v-1.5h1V19zM16,19h-1v-1.5h1V19zM17,17H6V6h11V17zM19,16h-1.5v-1h1.5V16zM19,14h-1.5v-1h1.5V14zM19,12h-1.5v-1h1.5V12zM19,10h-1.5V9h1.5V10zM19,8h-1.5V7h1.5V8z" fill="#7B7B7B"/>
    </g>
    <path d="M8,4H7v1.5h1V4zM10,4H9v1.5h1V4zM16,4h-1v1.5h1V4zM5.5,7H4v1h1.5V7zM5.5,9H4v1h1.5V9zM5.5,15H4v1h1.5V15zM8,17.5H7v1.5h1V17.5zM10,17.5H9v1.5h1V17.5zM12,4h-1v1.5h1V4zM12,17.5h-1v1.5h1V17.5zM14,4h-1v1.5h1V4zM14,17.5h-1v1.5h1V17.5zM16,17.5h-1v1.5h1V17.5zM19,15h-1.5v1h1.5V15zM19,9h-1.5v1h1.5V9zM5.5,11H4v1h1.5V11zM19,11h-1.5v1h1.5V11zM5.5,13H4v1h1.5V13zM19,13h-1.5v1h1.5V13zM19,7h-1.5v1h1.5V7zM17,17H6V6h11V17zM7,16h9V7H7V16z" fill="#FFFFFF" opacity="0.5"/>
  </g>
</svg>
