<?xml version="1.0" encoding="UTF-8"?>
<!DOCTYPE svg PUBLIC "-//W3C//DTD SVG 1.1//EN" "http://www.w3.org/Graphics/SVG/1.1/DTD/svg11.dtd">
<svg version="1.1" id="Layer_1" xmlns="http://www.w3.org/2000/svg" xmlns:xlink="http://www.w3.org/1999/xlink" x="0px" y="0px" width="24px" height="24px" viewBox="0 0 24 24" enable-background="new 0 0 24 24" xml:space="preserve">
  <g id="icon">
    <circle cx="12" cy="12" r="10.7812" fill="#FFFFFF" opacity="0.5"/>
    <path d="M14.836,11.3187c-0.1654,-0.7471,-0.6114,-1.3805,-1.256,-1.7834c-1.3264,-0.8288,-3.0889,-0.4095,-3.9291,0.9348c-0.3329,0.5327,-0.4822,1.1445,-0.4342,1.7571l-5.6053,2.2779l0.5412,1.3317l5.5313,-2.2478c0.2183,0.3278,0.5053,0.6078,0.8487,0.8224c1.3264,0.8289,3.0889,0.4095,3.929,-0.9348c0.0798,-0.1277,0.149,-0.2598,0.2075,-0.3955C14.9082,12.5271,14.968,11.9152,14.836,11.3187zM13.2427,12.7148c-0.42,0.6722,-1.294,0.8864,-1.9482,0.4776c-0.3148,-0.1968,-0.533,-0.5075,-0.6143,-0.875c-0.0661,-0.2987,-0.0358,-0.6058,0.0846,-0.8848c0.0296,-0.0687,0.0648,-0.1358,0.1052,-0.2005l0,-0.0001c0.4201,-0.6722,1.294,-0.8864,1.9482,-0.4776c0.3148,0.1968,0.533,0.5075,0.6144,0.875C13.5148,12.0018,13.4474,12.3872,13.2427,12.7148z" fill="#7D7C7B"/>
    <path d="M4.8651,12.832l-1.3716,0.5574c-0.0778,-0.4663,-0.1185,-0.9426,-0.1185,-1.4253c0,-0.671,0.0775,-1.3243,0.2238,-1.9515l1.399,0.3309c-0.1211,0.5209,-0.1853,1.0633,-0.1853,1.6205C4.8125,12.2566,4.8306,12.5462,4.8651,12.832z" fill="#52B250"/>
    <path d="M6.1818,16.1761l-1.3664,0.5552c0.6421,0.9615,1.4826,1.7981,2.4895,2.4493l0.7807,-1.207C7.3328,17.4868,6.692,16.8753,6.1818,16.1761z" fill="#52B250"/>
    <path d="M12,24C5.3832,24,0,18.6168,0,12S5.3832,0,12,0s12,5.3832,12,12S18.6168,24,12,24zM12,1.9592C6.4635,1.9592,1.9592,6.4635,1.9592,12S6.4635,22.0408,12,22.0408S22.0408,17.5365,22.0408,12S17.5365,1.9592,12,1.9592z" fill="#7D7C7B"/>
  </g>
</svg>
