<?xml version="1.0" encoding="UTF-8"?>
<!DOCTYPE svg PUBLIC "-//W3C//DTD SVG 1.1//EN" "http://www.w3.org/Graphics/SVG/1.1/DTD/svg11.dtd">
<svg version="1.1" id="Layer_1" xmlns="http://www.w3.org/2000/svg" xmlns:xlink="http://www.w3.org/1999/xlink" x="0px" y="0px" width="24px" height="24px" viewBox="0 0 24 24" enable-background="new 0 0 24 24" xml:space="preserve">
  <g id="icon">
    <path d="M14.7857,14.6984c-0.0041,-0.0372,-0.0342,-0.0661,-0.0712,-0.0684l-1.908,-0.1182c-0.0299,-0.0019,-0.0558,-0.0214,-0.0664,-0.0497c-0.1705,-0.4565,-0.3986,-0.8871,-0.6763,-1.2821c-0.0169,-0.024,-0.0189,-0.0555,-0.0048,-0.0813l0.9447,-1.7364c0.0179,-0.0328,0.0098,-0.0739,-0.0192,-0.0973l-1.569,-1.2664c-0.029,-0.0234,-0.0705,-0.0224,-0.0983,0.0025l-1.4371,1.2829c-0.0225,0.02,-0.0543,0.0248,-0.0817,0.0123c-0.4083,-0.1857,-0.8447,-0.3242,-1.304,-0.4082c-0.0284,-0.0052,-0.0516,-0.026,-0.0596,-0.054l-0.5428,-1.8828c-0.0104,-0.036,-0.0449,-0.0592,-0.0818,-0.0551l-1.9965,0.2245c-0.0369,0.0042,-0.0655,0.0345,-0.0678,0.0719l-0.114,1.874c-0.0019,0.0305,-0.0216,0.0568,-0.05,0.0673c-0.474,0.174,-0.9206,0.4113,-1.3289,0.7033c-0.0238,0.017,-0.0549,0.019,-0.0805,0.0048l-1.6638,-0.9224c-0.0325,-0.018,-0.0732,-0.0098,-0.0964,0.0194l-1.2545,1.5838c-0.0232,0.0293,-0.0222,0.0711,0.0024,0.0992l1.2225,1.3955c0.0199,0.0228,0.0245,0.0551,0.012,0.0827c-0.1964,0.4339,-0.341,0.8996,-0.4249,1.3908c-0.0049,0.029,-0.0256,0.0526,-0.0535,0.0608l-1.7961,0.5276c-0.0356,0.0105,-0.0587,0.0453,-0.0546,0.0825l0.2224,2.0154c0.0041,0.0372,0.0342,0.0661,0.0712,0.0684l1.8051,0.1119c0.0301,0.0019,0.0561,0.0216,0.0665,0.0502c0.1799,0.4924,0.4265,0.9553,0.7302,1.3763c0.0174,0.0241,0.0195,0.0559,0.0053,0.082l-0.8962,1.6474c-0.0179,0.0328,-0.0097,0.0739,0.0193,0.0973l1.569,1.2664c0.029,0.0234,0.0705,0.0224,0.0983,-0.0025l1.3838,-1.2352c0.0223,-0.0199,0.0539,-0.0247,0.0812,-0.0125c0.4287,0.1916,0.8875,0.3325,1.3713,0.4119c0.029,0.0048,0.0528,0.0257,0.061,0.0542l0.528,1.8315c0.0104,0.036,0.0449,0.0592,0.0818,0.0551l1.9965,-0.2245c0.0369,-0.0042,0.0655,-0.0345,0.0678,-0.0719l0.1141,-1.8757c0.0018,-0.0301,0.021,-0.0561,0.0489,-0.0669c0.4657,-0.1798,0.9043,-0.4207,1.3044,-0.7151c0.0239,-0.0176,0.0555,-0.0198,0.0813,-0.0054l1.6886,0.9361c0.0325,0.018,0.0732,0.0098,0.0964,-0.0194l1.2545,-1.5838c0.0232,-0.0293,0.0222,-0.0711,-0.0024,-0.0992l-1.2721,-1.4521c-0.0196,-0.0224,-0.0244,-0.054,-0.0126,-0.0814c0.1776,-0.4108,0.3094,-0.8491,0.3876,-1.3099c0.0049,-0.029,0.0256,-0.0527,0.0536,-0.0609l1.8834,-0.5533c0.0356,-0.0105,0.0587,-0.0453,0.0546,-0.0825L14.7857,14.6984zM8.5649,17.8409c-0.8483,0.6685,-1.994,0.4542,-2.6009,-0.3281c-0.621,-0.8179,-0.501,-1.9808,0.3177,-2.6255c0.8626,-0.6794,2.0202,-0.445,2.6125,0.3449C9.4961,16.0349,9.3851,17.1946,8.5649,17.8409z" fill="#7D7C7B"/>
    <path d="M23.8365,8.7843c0.0269,-0.0199,0.0376,-0.0553,0.0256,-0.0867c-0.183,-0.482,-0.4339,-0.9917,-0.7107,-1.4261c-0.0181,-0.0285,-0.0531,-0.0407,-0.085,-0.0303l-1.4603,0.4766c-0.027,0.0088,-0.0563,0.0009,-0.0757,-0.0199c-0.4274,-0.4574,-0.9504,-0.7995,-1.5202,-1.0102c-0.0262,-0.0097,-0.0447,-0.0332,-0.0477,-0.0611l-0.169,-1.5412c-0.0037,-0.0334,-0.0287,-0.0605,-0.0616,-0.0658c-0.505,-0.081,-1.0677,-0.1165,-1.5788,-0.0917c-0.0336,0.0016,-0.0615,0.0261,-0.0685,0.0593l-0.3207,1.512c-0.0059,0.0278,-0.027,0.0494,-0.0544,0.0562c-0.2877,0.0707,-0.5721,0.1751,-0.8479,0.3152c-0.2818,0.1432,-0.5393,0.3159,-0.7708,0.5123c-0.0214,0.0182,-0.0509,0.0226,-0.0765,0.0112l-1.4128,-0.6269c-0.0305,-0.0135,-0.0662,-0.0052,-0.0872,0.0209c-0.3223,0.4007,-0.6345,0.8746,-0.8691,1.3337c-0.0154,0.0301,-0.0084,0.0668,0.0165,0.0896l1.1511,1.051c0.0208,0.019,0.0288,0.0482,0.021,0.0754c-0.1655,0.5786,-0.2026,1.1955,-0.0962,1.8041c0.0049,0.0278,-0.006,0.0559,-0.0286,0.0725l-1.2635,0.9359c-0.0269,0.0199,-0.0376,0.0553,-0.0257,0.0867c0.1826,0.4821,0.4332,0.992,0.7097,1.4266c0.0181,0.0285,0.0531,0.0407,0.085,0.0303l1.4979,-0.4876c0.0267,-0.0087,0.0557,-0.0011,0.0752,0.0193c0.4185,0.4389,0.9258,0.7692,1.4777,0.9758c0.026,0.0097,0.0443,0.0331,0.0474,0.0609l0.1731,1.5899c0.0037,0.0334,0.0286,0.0605,0.0615,0.0658c0.5049,0.0814,1.0676,0.1173,1.5787,0.0929c0.0336,-0.0016,0.0615,-0.0261,0.0686,-0.0592l0.3313,-1.5564c0.0059,-0.0278,0.027,-0.0494,0.0544,-0.0561c0.2879,-0.0707,0.5724,-0.1751,0.8484,-0.3153c0.2673,-0.1359,0.5127,-0.2982,0.7349,-0.4821c0.0214,-0.0177,0.0505,-0.0219,0.0759,-0.0107l1.4425,0.64c0.0305,0.0135,0.0662,0.0052,0.0872,-0.0209c0.3223,-0.4007,0.6344,-0.8747,0.869,-1.3337c0.0154,-0.0301,0.0084,-0.0668,-0.0165,-0.0896l-1.1559,-1.0553c-0.021,-0.0192,-0.029,-0.0487,-0.0208,-0.0761c0.1721,-0.58,0.2149,-1.1998,0.1128,-1.812c-0.0046,-0.0276,0.0063,-0.0554,0.0286,-0.0719L23.8365,8.7843zM20.063,10.5515c-0.045,0.7924,-0.7178,1.398,-1.5028,1.3526c-0.785,-0.0454,-1.3849,-0.7246,-1.3399,-1.5171c0.045,-0.7924,0.7178,-1.398,1.5028,-1.3526C19.5081,9.0798,20.108,9.7591,20.063,10.5515z" fill="#7D7C7B"/>
    <path d="M15.2336,4.4747l-1.1916,-0.3927c-0.0217,-0.0071,-0.0371,-0.0262,-0.04,-0.049c-0.0619,-0.483,-0.2317,-0.9524,-0.5055,-1.3682c-0.0123,-0.0187,-0.0134,-0.0427,-0.0023,-0.0623l0.6171,-1.0948c0.0133,-0.0235,0.0096,-0.0531,-0.0093,-0.0722c-0.2909,-0.2935,-0.6407,-0.5848,-0.9851,-0.8123c-0.0226,-0.0149,-0.0522,-0.0123,-0.0723,0.0059l-0.9179,0.8332c-0.0169,0.0154,-0.041,0.0193,-0.0621,0.0105c-0.4624,-0.1946,-0.9576,-0.2728,-1.4446,-0.239c-0.0224,0.0015,-0.0436,-0.0096,-0.0549,-0.0291L9.9406,0.1283c-0.0136,-0.0233,-0.0407,-0.0349,-0.0666,-0.0279c-0.3972,0.1075,-0.8221,0.2677,-1.1894,0.455c-0.0241,0.0123,-0.0367,0.0395,-0.0311,0.0662l0.2554,1.2167c0.0047,0.0224,-0.0038,0.0453,-0.0217,0.0593c-0.1884,0.1471,-0.3634,0.3179,-0.5205,0.5121c-0.1605,0.1984,-0.2935,0.4104,-0.3998,0.6313c-0.0098,0.0204,-0.03,0.0334,-0.0525,0.0336L6.673,3.0814c-0.0268,0.0002,-0.0503,0.0181,-0.0573,0.0442c-0.1067,0.4009,-0.182,0.8523,-0.2054,1.2672c-0.0015,0.0272,0.0156,0.0519,0.0412,0.0603l1.1867,0.3911c0.0215,0.0071,0.0368,0.0259,0.0399,0.0484c0.0663,0.4797,0.2393,0.9452,0.5151,1.357c0.0126,0.0188,0.0137,0.043,0.0026,0.0627l-0.6242,1.1055c-0.0133,0.0235,-0.0097,0.0531,0.0093,0.0722c0.2906,0.2937,0.6402,0.5853,0.9845,0.8131c0.0225,0.0149,0.0522,0.0124,0.0723,-0.0058l0.942,-0.8537c0.0168,-0.0152,0.0406,-0.0192,0.0615,-0.0107c0.4499,0.1839,0.9298,0.2587,1.4022,0.2278c0.0222,-0.0015,0.0433,0.0096,0.0546,0.0291l0.6434,1.1105c0.0135,0.0234,0.0407,0.035,0.0666,0.028c0.3973,-0.1072,0.8223,-0.2671,1.1898,-0.4541c0.0241,-0.0123,0.0367,-0.0395,0.0311,-0.0662l-0.262,-1.2528c-0.0047,-0.0224,0.0038,-0.0452,0.0217,-0.0592c0.1885,-0.1472,0.3636,-0.318,0.5208,-0.5123c0.1523,-0.1882,0.2798,-0.3887,0.3833,-0.5972c0.01,-0.0201,0.03,-0.0328,0.0522,-0.033l1.2673,-0.0071c0.0268,-0.0002,0.0503,-0.0181,0.0573,-0.0442c0.1066,-0.4009,0.182,-0.8524,0.2053,-1.2672C15.2763,4.5078,15.2593,4.4832,15.2336,4.4747zM11.1958,5.4043c-0.5145,0.1969,-1.0896,-0.0644,-1.2847,-0.5837c-0.1951,-0.5193,0.0638,-1.0999,0.5783,-1.2969c0.5144,-0.1969,1.0896,0.0644,1.2847,0.5837C11.9691,4.6267,11.7103,5.2074,11.1958,5.4043z" fill="#7D7C7B"/>
  </g>
</svg>
