<?xml version="1.0" encoding="UTF-8"?>
<!DOCTYPE svg PUBLIC "-//W3C//DTD SVG 1.1//EN" "http://www.w3.org/Graphics/SVG/1.1/DTD/svg11.dtd">
<svg version="1.1" id="Layer_1" xmlns="http://www.w3.org/2000/svg" xmlns:xlink="http://www.w3.org/1999/xlink" x="0px" y="0px" width="24px" height="24px" viewBox="0 0 24 24" enable-background="new 0 0 24 24" xml:space="preserve">
  <g id="icon">
    <path d="M23.0521,15.3759c-0.3932,0,-0.928,-0.1241,-1.2496,-0.4725c-0.5875,-0.6363,-1.0462,-1.233,-1.4022,-1.8241c-0.1275,-0.2113,-0.2333,-0.3499,-0.5317,-0.3499c-0.0718,0,-0.1567,0.0074,-0.2673,0.0235c-3.3387,0.4835,-7.2856,1.046,-11.245,1.5525c-0.2652,0.0339,-0.5339,0.0713,-0.8052,0.1092c-1.0055,0.1403,-2.0419,0.2848,-3.1092,0.2848c-1.4446,0,-2.6808,-0.2793,-3.7792,-0.854L0,13.4988l0.4724,-0.5787c0.8147,-0.9978,3.1497,-1.9054,4.4652,-2.1168c4.2554,-0.684,8.6727,-1.2631,12.7744,-1.6744c1.699,-0.1703,2.4515,-0.7574,2.7765,-2.1662c0.0037,-0.0159,0.3846,-1.598,1.3577,-1.7481c0.0473,-0.0073,0.0952,-0.0109,0.1422,-0.0109c0.1952,0,0.3787,0.0626,0.5308,0.181c0.375,0.2921,0.4234,0.8178,0.4493,1.1001c0,0,0.0054,0.0585,0.0074,0.0736c0.4313,3.0343,0.7451,5.3544,1.0178,7.5241c0.0485,0.3877,-0.1885,0.828,-0.3492,1.0144c-0.1926,0.2235,-0.4022,0.2749,-0.5441,0.2786L23.0521,15.3759zM12.65,8.2162l0.0378,-0.1017l1.6043,-0.1093l-0.0052,0.0157c0.0357,-0.004,0.352,-0.0393,0.352,-0.0393l0.203,-0.0139l0.0031,-0.0096c0,0,0.6442,-0.0734,0.784,-0.0889c0.0848,-0.2532,0.1955,-0.5706,0.3054,-0.8857c0.1243,-0.3564,0.2475,-0.7098,0.3309,-0.9633c0.1534,-0.4666,0.2848,-0.5457,0.6571,-0.5754c0.6944,-0.0555,1.4401,-0.2008,2.2795,-0.4444c0.4789,-0.1389,0.8342,-0.5842,1.007,-0.9546c0.06,-0.1288,0.1073,-0.3396,-0.0081,-0.6122c-0.0964,-0.2278,-0.3878,-0.6376,-0.7595,-0.7673c-2.0963,-0.7311,-4.3374,-1.4892,-7.2683,-2.4587c-0.0156,-0.0054,-0.0344,-0.0127,-0.0698,-0.0264C11.9167,0.1089,11.6347,0,11.3372,0c-0.1561,0,-0.3003,0.0311,-0.4285,0.0922c-0.2173,0.1037,-0.3784,0.291,-0.4537,0.5273c-0.3001,0.9411,0.9595,1.9923,0.9722,2.0027c1.1312,0.9257,1.3255,1.8678,0.7169,3.4759l-0.1826,0.4819c-0.2162,0.57,-0.4785,1.2611,-0.6812,1.8095C11.7381,8.3302,12.1948,8.2725,12.65,8.2162zM8.1532,24l0.6074,-0.4385c2.1287,-1.5367,2.912,-3.8776,3.603,-5.943c0.0479,-0.1431,0.1386,-0.3704,0.2262,-0.5902c0.0771,-0.1933,0.1499,-0.376,0.1902,-0.4918c0.1522,-0.438,0.3035,-0.8761,0.454,-1.3138c-0.4506,0.0617,-0.9043,0.1235,-1.3603,0.1848l-0.045,0.1303l-1.4702,0.1001l-0.2245,0.0043l0.0013,-0.0039l-0.2469,0.0317l-0.2504,0.0171l-0.0055,0.0165l-0.8406,0.1092c-0.108,0.329,-0.237,0.6995,-0.3729,1.0897c-0.1756,0.5045,-0.3573,1.0263,-0.489,1.4491c-0.3986,1.2789,-0.6244,3.7874,-0.0868,4.9676L8.1532,24z" fill="#6485C3"/>
  </g>
</svg>
