<?xml version="1.0" encoding="UTF-8"?>
<!DOCTYPE svg PUBLIC "-//W3C//DTD SVG 1.1//EN" "http://www.w3.org/Graphics/SVG/1.1/DTD/svg11.dtd">
<svg version="1.1" id="Layer_1" xmlns="http://www.w3.org/2000/svg" xmlns:xlink="http://www.w3.org/1999/xlink" x="0px" y="0px" width="24px" height="24px" viewBox="0 0 24 24" enable-background="new 0 0 24 24" xml:space="preserve">
  <g id="icon">
    <path d="M22.2653,23.0703c-0.1129,-1.4208,-0.5893,-2.7005,-1.4159,-3.8034c-0.9958,-1.3289,-2.8735,-2.7384,-4.8246,-3.4724c0,0,-0.7436,-0.7282,-1.0836,-0.9099c-0.8782,0.8676,-1.8902,1.3337,-2.9342,1.3337c-1.05,0,-2.0676,-0.4711,-2.9492,-1.3482c-0.3315,0.1757,-1.2013,0.8398,-1.2013,0.8398c-4.7,1.786,-5.9968,5.5179,-6.1487,7.3601L1.6926,24h20.5871L22.2653,23.0703z" fill="#FFFFFF" opacity="0.5"/>
    <path d="M7.2617,8.1c-0.0455,0.2918,-0.0706,0.5986,-0.0706,0.922c0,3.0831,2.1561,6.5938,4.8158,6.5938s4.8158,-3.5106,4.8158,-6.5938c0,-0.3234,-0.0251,-0.6302,-0.0706,-0.922H7.2617z" fill="#FFFFFF" opacity="0.5"/>
    <path d="M5.6829,24.1H1.3456c-0.2011,0,-0.3598,-0.1549,-0.3446,-0.3365l0.0466,-0.5576c0.1637,-1.9591,1.1895,-5.5274,6.2211,-7.4144l0.6677,-0.2688c0.107,0.1315,0.2158,0.2619,0.3266,0.39c0.3032,0.3508,-0.7704,1.5837,-1.0956,1.7473c-2.7453,1.2673,-3.809,3.1478,-4.167,4.7781h2.6825V24.1zM22.9524,23.2059c-0.1637,-1.9591,-1.1895,-5.5274,-6.2211,-7.4144l-0.6723,-0.2703c-0.1067,0.1309,-0.2153,0.2615,-0.3277,0.3915c-0.3108,0.3595,0.7896,1.5904,1.1013,1.7472c2.7453,1.2673,3.809,3.1478,4.167,4.7781h-2.7225V24.1h4.3772c0.2011,0,0.3598,-0.1549,0.3446,-0.3365L22.9524,23.2059z" fill="#7B7B7B"/>
    <path d="M17.49,24.1h-1.5743v-2.4303c0,-0.3421,-0.2675,-0.6203,-0.5963,-0.6203H8.6406c-0.3288,0,-0.5963,0.2782,-0.5963,0.6203V24.1H6.47v-2.4303c0,-0.9091,0.5749,-1.6879,1.3842,-1.9999l-1.0443,-3.9209l1.5243,-0.3812l1.1071,4.1564h5.0775l1.1071,-4.1564l1.5243,0.3812l-1.0443,3.9209c0.8093,0.3121,1.3842,1.0909,1.3842,1.9999V24.1z" fill="#6485C3"/>
    <path d="M15.9793,8.226c0.035,0.2247,0.0534,0.4592,0.0534,0.7031c0,2.4522,-1.9083,5.5631,-4.053,5.5631c-2.1448,0,-4.053,-3.1109,-4.053,-5.5631c0,-0.2439,0.0183,-0.4784,0.0534,-0.7031H6.1962c-0.026,0.2289,-0.0417,0.4626,-0.0417,0.7031c0,1.5943,0.5939,3.3531,1.5886,4.7049c1.1455,1.557,2.6501,2.4145,4.2366,2.4145c1.5863,0,3.091,-0.8575,4.2367,-2.4145c0.9947,-1.3518,1.5885,-3.1106,1.5885,-4.7049c0,-0.2406,-0.0157,-0.4743,-0.0417,-0.7031H15.9793z" fill="#7B7B7B"/>
    <path d="M18.4835,7.6957c-0.0406,-0.3247,-0.92,-0.196,-0.92,-1.2935v-0.0127v-0.0197c0,-3.072,-2.4833,-5.2576,-5.1524,-5.4548C9.3963,0.6922,6.451,2.975,6.451,6.3818v0.0204c0,1.0975,-0.8793,0.9687,-0.92,1.2935C5.4805,8.1003,5.7524,8.1,6.0949,8.1h11.8249C18.2622,8.1,18.5341,8.1003,18.4835,7.6957z" fill="#FFFFFF"/>
    <path d="M17.9206,8.8H6.0949c-0.3063,0,-0.8174,0,-1.1809,-0.4118c-0.1604,-0.1818,-0.3386,-0.5036,-0.2759,-1.0043c0.0732,-0.5851,0.5507,-0.8288,0.7546,-0.9329c0.0456,-0.0233,0.1125,-0.0574,0.1386,-0.0773c0.0059,-0.0167,0.0198,-0.067,0.0198,-0.1715v-0.0204c0,-1.7882,0.7116,-3.234,2.0038,-4.4342C8.8819,0.515,10.6762,-0.1159,12.4775,0.0174c2.9425,0.2174,5.9861,2.4529,5.9861,6.1523v0.0325c0,0.1045,0.0139,0.1548,0.0198,0.1715c0.0261,0.0199,0.093,0.054,0.1386,0.0773c0.2039,0.1041,0.6814,0.3478,0.7546,0.9329v0c0.0627,0.5007,-0.1154,0.8225,-0.2759,1.0043C18.7372,8.8,18.226,8.8,17.9206,8.8zM17.5905,7.6074C17.5905,7.6075,17.5905,7.6075,17.5905,7.6074l0.893,-0.1117L17.5905,7.6074zM7.2187,7h9.5773c-0.0814,-0.2197,-0.1324,-0.4826,-0.1324,-0.7978v-0.0325c0,-2.6529,-2.1958,-4.2004,-4.3187,-4.3572c-1.3035,-0.0961,-2.6034,0.3606,-3.565,1.2539C7.8584,3.9223,7.351,4.8997,7.351,6.1818v0.0204C7.351,6.5174,7.3,6.7803,7.2187,7z" fill="#F1876B"/>
    <path d="M13.4701,4.4113c-0.2927,0,-0.5299,-0.2239,-0.4299,-0.5V1.0475c-0.1,-0.2761,0.1373,-0.5,0.4299,-0.5s0.5299,0.2239,0.5299,0.5v2.8638C14,4.1874,13.7627,4.4113,13.4701,4.4113zM10.5299,4.4113c-0.2927,0,-0.5299,-0.2239,-0.5299,-0.5V1.0475c0,-0.2761,0.2373,-0.5,0.5299,-0.5c0.2927,0,0.5299,0.2239,0.4299,0.5v2.8638C11.0599,4.1874,10.8226,4.4113,10.5299,4.4113z" fill="#F1876B"/>
  </g>
</svg>
