<?xml version="1.0" encoding="UTF-8"?>
<!DOCTYPE svg PUBLIC "-//W3C//DTD SVG 1.1//EN" "http://www.w3.org/Graphics/SVG/1.1/DTD/svg11.dtd">
<svg version="1.1" id="Layer_1" xmlns="http://www.w3.org/2000/svg" xmlns:xlink="http://www.w3.org/1999/xlink" x="0px" y="0px" width="32px" height="32px" viewBox="0 0 32 32" enable-background="new 0 0 32 32" xml:space="preserve">
  <g id="icon">
    <path d="M18.5,30.5H1.5V17.5h17V30.5z" fill="#FFFFFF" stroke="#17AB4F" stroke-width="1" stroke-miterlimit="1"/>
    <path d="M8.584,21.855c0,0.33,-0.041,0.615,-0.124,0.857c-0.083,0.242,-0.194,0.441,-0.333,0.599c-0.14,0.158,-0.303,0.275,-0.49,0.352c-0.187,0.077,-0.385,0.115,-0.595,0.115c-0.213,0,-0.413,-0.038,-0.6,-0.115c-0.187,-0.077,-0.351,-0.194,-0.49,-0.352c-0.14,-0.157,-0.25,-0.357,-0.33,-0.599c-0.081,-0.242,-0.121,-0.528,-0.121,-0.857c0,-0.333,0.04,-0.621,0.121,-0.863c0.081,-0.242,0.191,-0.442,0.33,-0.602c0.139,-0.159,0.303,-0.277,0.49,-0.354c0.187,-0.077,0.387,-0.115,0.6,-0.115c0.209,0,0.407,0.038,0.595,0.115c0.187,0.077,0.351,0.195,0.49,0.354c0.139,0.159,0.251,0.36,0.333,0.602C8.542,21.234,8.584,21.522,8.584,21.855zM14.3,26.162c0,0.331,-0.042,0.617,-0.127,0.859s-0.199,0.443,-0.342,0.6c-0.143,0.158,-0.311,0.275,-0.503,0.353c-0.192,0.077,-0.396,0.116,-0.611,0.116c-0.219,0,-0.424,-0.039,-0.616,-0.116c-0.192,-0.077,-0.36,-0.195,-0.503,-0.353c-0.143,-0.158,-0.256,-0.358,-0.339,-0.6c-0.083,-0.242,-0.124,-0.529,-0.124,-0.859c0,-0.334,0.041,-0.622,0.124,-0.865c0.083,-0.242,0.196,-0.443,0.339,-0.603c0.143,-0.16,0.311,-0.278,0.503,-0.355c0.192,-0.077,0.398,-0.116,0.616,-0.116c0.215,0,0.418,0.039,0.611,0.116c0.192,0.077,0.36,0.196,0.503,0.355c0.143,0.16,0.257,0.361,0.342,0.603C14.258,25.539,14.3,25.828,14.3,26.162zM13.286,19.4l-6.764,9.1" fill="#FFFFFF" stroke="#17AB4F" stroke-width="1" stroke-miterlimit="1"/>
    <g>
      <path d="M14.637,16H20v11h10.398c0,-6.234,-5.027,-12.441,-10.905,-12.441C17.772,14.559,16.117,15.091,14.637,16z" fill="#FFFFFF"/>
      <ellipse cx="19.45" cy="8.058" rx="6.57" ry="6.458" fill="#FFFFFF"/>
    </g>
    <path d="M27.567,18.084c-1.492,-1.747,-3.317,-2.991,-5.242,-3.616c2.498,-1.09,4.244,-3.553,4.244,-6.41c0,-3.864,-3.194,-7.008,-7.12,-7.008s-7.12,3.144,-7.12,7.008c0,2.87,1.762,5.343,4.278,6.425c-1.025,0.337,-2.022,0.85,-2.958,1.517h2.138c1.197,-0.581,2.457,-0.891,3.705,-0.891c2.597,0,5.235,1.345,7.238,3.69c1.981,2.318,3.117,5.307,3.117,8.201h1.1C30.948,23.848,29.716,20.599,27.567,18.084zM19.45,13.965c-3.319,0,-6.02,-2.65,-6.02,-5.908S16.13,2.15,19.45,2.15s6.02,2.65,6.02,5.908S22.769,13.965,19.45,13.965z" fill="#A0519F"/>
  </g>
</svg>
