<?xml version="1.0" encoding="UTF-8"?>
<!DOCTYPE svg PUBLIC "-//W3C//DTD SVG 1.1//EN" "http://www.w3.org/Graphics/SVG/1.1/DTD/svg11.dtd">
<svg version="1.1" id="Layer_1" xmlns="http://www.w3.org/2000/svg" xmlns:xlink="http://www.w3.org/1999/xlink" x="0px" y="0px" width="32px" height="32px" viewBox="0 0 32 32" enable-background="new 0 0 32 32" xml:space="preserve">
  <g id="icon">
    <path d="M19.95,1.603C14.229,1.603,9.583,6.199,9.502,11.9H15.9l0.6,4.7l-4.222,2.546c1.909,2.063,4.639,3.356,7.672,3.356c5.771,0,10.45,-4.678,10.45,-10.449C30.4,6.281,25.721,1.603,19.95,1.603z" fill="#FFFFFF"/>
    <path d="M19.95,1.053C13.935,1.053,9.034,5.905,8.952,11.9h1.1c0.082,-5.389,4.49,-9.747,9.898,-9.747c5.459,0,9.9,4.441,9.9,9.899c0,5.458,-4.441,9.899,-9.9,9.899c-2.827,0,-5.381,-1.191,-7.187,-3.098l-0.962,0.58c2.014,2.221,4.921,3.618,8.149,3.618c6.065,0,11,-4.934,11,-10.999C30.95,5.987,26.015,1.053,19.95,1.053z" fill="#383838"/>
    <polygon points="20.189,12.004 20.189,3.403 18.989,3.403 18.989,12.543 25.029,17.905 25.825,17.008" fill="#228BCB" stroke-linejoin="miter"/>
    <path d="M14.585,15.816c-0.132,-1.433,-0.264,-1.935,-0.29,-2.316H1.866v0.517l6.533,7.962L1.55,29.756v0.694h13.088l0.827,-2.931" fill="none" stroke="#383838" stroke-width="1.1" stroke-miterlimit="1"/>
  </g>
</svg>
