<?xml version="1.0" encoding="UTF-8"?>
<!DOCTYPE svg PUBLIC "-//W3C//DTD SVG 1.1//EN" "http://www.w3.org/Graphics/SVG/1.1/DTD/svg11.dtd">
<svg version="1.1" id="Layer_1" xmlns="http://www.w3.org/2000/svg" xmlns:xlink="http://www.w3.org/1999/xlink" x="0px" y="0px" width="32px" height="32px" viewBox="0 0 32 32" enable-background="new 0 0 32 32" xml:space="preserve">
  <g id="icon">
    <path d="M18.187,10.751c0.484,-0.484,1.127,-0.75,1.813,-0.75c0.685,0,1.329,0.266,1.813,0.75l6.75,6.75c1.085,-0.091,1.938,-1,1.938,-2.108V4.617C30.5,3.448,29.552,2.5,28.383,2.5H3.617C2.448,2.5,1.5,3.448,1.5,4.617v10.775c0,1.169,0.948,2.117,2.117,2.117h7.811L18.187,10.751z" fill="#FFFFFF"/>
    <path d="M28.383,2H3.617C2.174,2,1,3.174,1,4.617v10.775c0,1.443,1.174,2.617,2.617,2.617h7.311l1,-1H3.617c-0.892,0,-1.617,-0.726,-1.617,-1.617V4.617C2,3.726,2.726,3,3.617,3h24.765c0.892,0,1.617,0.726,1.617,1.617v10.775c0,0.892,-0.726,1.617,-1.617,1.617h-0.311l0.926,0.926c1.147,-0.278,2.002,-1.312,2.002,-2.544V4.617C31,3.174,29.826,2,28.383,2z" fill="#228BCB"/>
    <path d="M29.189,20.248l-8.437,-8.437c-0.415,-0.415,-1.089,-0.415,-1.504,0l-8.437,8.437c-0.415,0.415,-0.415,1.089,0,1.504l8.437,8.437c0.415,0.415,1.089,0.415,1.504,0l8.437,-8.437C29.604,21.337,29.604,20.663,29.189,20.248z" fill="#FFFFFF" stroke="#ED8730" stroke-width="1" stroke-miterlimit="1"/>
    <path d="M17.619,18.2c0.122,-0.125,0.459,-0.447,0.615,-0.57c0.155,-0.122,0.328,-0.232,0.519,-0.33c0.191,-0.097,0.399,-0.175,0.626,-0.232c0.272,-0.069,0.575,-0.097,0.91,-0.083c0.088,0.004,0.176,0.012,0.262,0.026c0.499,0.081,0.92,0.26,1.262,0.536c0.226,0.182,0.408,0.405,0.546,0.667c0.137,0.262,0.206,0.561,0.206,0.895c0,0.375,-0.062,0.701,-0.187,0.978c-0.125,0.277,-0.281,0.52,-0.469,0.727c-0.188,0.207,-0.393,0.391,-0.614,0.551c-0.221,0.16,-0.426,0.311,-0.614,0.453c-0.188,0.142,-0.347,0.286,-0.477,0.431c-0.13,0.145,-0.197,0.304,-0.202,0.484V24.1" fill="none" stroke="#383838" stroke-width="1" stroke-miterlimit="1"/>
    <circle cx="20.039" cy="25.861" r="0.839" fill="#383838"/>
  </g>
</svg>
