<?xml version="1.0" encoding="UTF-8"?>
<!DOCTYPE svg PUBLIC "-//W3C//DTD SVG 1.1//EN" "http://www.w3.org/Graphics/SVG/1.1/DTD/svg11.dtd">
<svg version="1.1" id="Layer_1" xmlns="http://www.w3.org/2000/svg" xmlns:xlink="http://www.w3.org/1999/xlink" x="0px" y="0px" width="16px" height="16px" viewBox="0 0 16 16" enable-background="new 0 0 16 16" xml:space="preserve">
  <g id="icon">
    <path d="M0.5,4.5v10h15V4.5H0.5z" fill="#FFFFFF" opacity="0.4"/>
    <path d="M16,15H0V4h16V15zM1,14h14V5H1V14z" fill="#6D6E71"/>
    <path d="M13,3h-1V0h1V3zM4,3H3V0h1V3z" fill="#6D6E71"/>
    <polygon points="14,1 14,3 11,3 11,1 5,1 5,3 2,3 2,1 0,1 0,5 16,5 16,1" fill="#9070B1" stroke-linejoin="miter"/>
    <path d="M5,9v4h5V9H5zM9,12H6v-2h3V12z" fill="#CB525D"/>
    <path d="M4,13H2V9h2v1H3v2h1V13zM5,6v2h1V7h3v1h1V7h3v2h-2v1h2v2h-2v1h3V6H5z" fill="#B7B7B7"/>
    <rect x="6" y="10" width="3" height="2" fill="#CB525D" opacity="0.3"/>
  </g>
</svg>
