<?xml version="1.0" encoding="UTF-8"?>
<!DOCTYPE svg PUBLIC "-//W3C//DTD SVG 1.1//EN" "http://www.w3.org/Graphics/SVG/1.1/DTD/svg11.dtd">
<svg version="1.1" id="Layer_1" xmlns="http://www.w3.org/2000/svg" xmlns:xlink="http://www.w3.org/1999/xlink" x="0px" y="0px" width="16px" height="16px" viewBox="0 0 16 16" enable-background="new 0 0 16 16" xml:space="preserve">
  <g id="icon">
    <path d="M12.9508,1.611c-0.3101,0,-0.617,0.0495,-0.9136,0.147C11.3911,0.6715,10.2411,0,9.0164,0C7.3664,0,5.9156,1.2146,5.5479,2.8956C4.9456,3.1631,4.4745,3.669,4.217,4.28c0.5094,0.0893,0.9623,0.3929,1.2356,0.8405c0.0786,-0.0033,0.1572,-0.005,0.2358,-0.005c0.0887,0,0.1774,0.0021,0.266,0.0064c0.3252,-0.5383,0.9171,-0.8718,1.5501,-0.8718c0.318,0,0.6317,0.0841,0.9072,0.2433l1.2256,0.7084c0.4217,0.2438,0.7221,0.6372,0.8461,1.1078c0.1211,0.4592,0.0599,0.9373,-0.1722,1.3501c0.0703,0.1109,0.1355,0.2247,0.1976,0.3403h2.4419C14.6321,8,16,6.5669,16,4.8055C16,3.0441,14.6321,1.611,12.9508,1.611z" fill="#6485C3"/>
    <path d="M7.7138,16c-0.1273,0,-0.2456,-0.0687,-0.3086,-0.1793l-0.5627,-0.9685c-0.3713,0.0996,-0.755,0.15,-1.1425,0.15c-0.3866,0,-0.7695,-0.0502,-1.1399,-0.1493l-0.5261,0.9589c-0.0622,0.1147,-0.1818,0.186,-0.3123,0.186c-0.0621,0,-0.1235,-0.0165,-0.1775,-0.0477l-1.3575,-0.7856c-0.1678,-0.097,-0.2268,-0.3067,-0.1344,-0.4773l0.535,-0.9753c-0.5524,-0.5518,-0.9461,-1.2341,-1.1458,-1.9858H0.3551c-0.1958,0,-0.3551,-0.1595,-0.3551,-0.3555V9.799c0,-0.196,0.1593,-0.3555,0.3551,-0.3555h1.0863c0.1996,-0.7512,0.593,-1.4332,1.1448,-1.9847l-0.5298,-0.9341c-0.094,-0.1687,-0.0346,-0.3845,0.1324,-0.4811l1.3576,-0.7856c0.054,-0.0312,0.1154,-0.0477,0.1775,-0.0477c0.1287,0,0.2476,0.0698,0.3102,0.1822l0.5245,0.9247c0.3709,-0.0994,0.7542,-0.1497,1.1414,-0.1497c0.3881,0,0.7723,0.0506,1.144,0.1504l0.5612,-0.9344c0.0635,-0.1083,0.1809,-0.1755,0.3064,-0.1755c0.0621,0,0.1235,0.0165,0.1775,0.0477l1.3576,0.7856c0.0825,0.0477,0.1413,0.1249,0.1657,0.2171c0.0243,0.0923,0.0111,0.1884,-0.0371,0.2707l-0.5596,0.9315c0.5509,0.5513,0.9435,1.2325,1.1429,1.9829h1.0863c0.1958,0,0.3551,0.1595,0.3551,0.3555v1.5716c0,0.196,-0.1593,0.3555,-0.3551,0.3555H9.9586c-0.1995,0.7508,-0.5926,1.4325,-1.144,1.984l0.5651,0.9726c0.0965,0.1693,0.0378,0.3864,-0.1307,0.484l-1.3576,0.7856C7.8373,15.9835,7.7759,16,7.7138,16zM5.7,8.6826c-1.0477,0,-1.9,0.8533,-1.9,1.9023c0,1.0489,0.8523,1.9022,1.9,1.9022s1.9,-0.8533,1.9,-1.9022C7.6,9.5359,6.7477,8.6826,5.7,8.6826z" fill="#6D6E71"/>
  </g>
</svg>
