<?xml version="1.0" encoding="UTF-8"?>
<!DOCTYPE svg PUBLIC "-//W3C//DTD SVG 1.1//EN" "http://www.w3.org/Graphics/SVG/1.1/DTD/svg11.dtd">
<svg version="1.1" id="Layer_1" xmlns="http://www.w3.org/2000/svg" xmlns:xlink="http://www.w3.org/1999/xlink" x="0px" y="0px" width="16px" height="16px" viewBox="0 0 16 16" enable-background="new 0 0 16 16" xml:space="preserve">
  <g id="icon">
    <path d="M13,2.1128c-0.4266,0,-0.8284,0.1116,-1.182,0.3078C11.3438,1.2677,10.2608,0.4615,9,0.4615c-1.5579,0,-2.8442,1.2305,-3.0458,2.8257c-0.4147,0.1177,-0.7761,0.3717,-1.042,0.7128H11v3.5385h2c1.4114,0,2.5556,-1.2146,2.5556,-2.7128C15.5556,3.3274,14.4114,2.1128,13,2.1128z" fill="#FFFFFF" opacity="0.5"/>
    <path d="M12.9508,1.611c-0.3101,0,-0.617,0.0495,-0.9136,0.147C11.3911,0.6715,10.2411,0,9.0164,0C7.3664,0,5.9156,1.2146,5.5479,2.8956C5.0404,3.121,4.626,3.5159,4.3538,4h1.4367c0.1144,-0.0723,0.2388,-0.1297,0.3721,-0.1672c0.2083,-0.0586,0.361,-0.2381,0.389,-0.4574c0.1655,-1.2997,1.2251,-2.2797,2.4648,-2.2797c0.987,0,1.8815,0.6192,2.2789,1.5774c0.0584,0.1411,0.1729,0.2513,0.3142,0.3024c0.0576,0.0208,0.1177,0.0314,0.1788,0.0314c0.0883,0,0.1761,-0.0226,0.2538,-0.0654c0.2831,-0.1558,0.5888,-0.2349,0.9088,-0.2349c1.0908,0,1.9782,0.9415,1.9782,2.0988c0,1.1573,-0.8874,2.0988,-1.9782,2.0988H11V8h1.9508C14.6321,8,16,6.5669,16,4.8055C16,3.0441,14.6321,1.611,12.9508,1.611z" fill="#6485C3"/>
    <path d="M0,5v3h10V5H0z" fill="#52B250"/>
    <polygon points="9,8 9,15 4.3,15 4,15 3,15 2.5,15 1,15 1,8 0,8 0,16 10,16 10,8" fill="#6D6E71" stroke-linejoin="miter"/>
    <rect x="1" y="8" width="8" height="7" fill="#FFFFFF" opacity="0.5"/>
    <path d="M1.7912,13.3701l1.7484,-1.3333c-0.4187,-0.9876,-0.091,-2.1323,0.7974,-2.7483c0.3822,-0.265,0.8277,-0.4051,1.2884,-0.4051c0.1361,0,0.2738,0.0125,0.409,0.037c0.5965,0.108,1.1152,0.4417,1.4605,0.9398c0.3454,0.498,0.4762,1.1009,0.3682,1.6974c-0.108,0.5965,-0.4417,1.1152,-0.9398,1.4605c-0.3821,0.2649,-0.8277,0.405,-1.2886,0.405c-0.136,0,-0.2736,-0.0124,-0.4088,-0.0369c-0.4365,-0.079,-0.8325,-0.2787,-1.1509,-0.5793L2.3257,14.141L1.7912,13.3701zM5.6281,9.8223c-0.2716,0,-0.5332,0.0819,-0.7566,0.2369c-0.2922,0.2026,-0.4881,0.5069,-0.5515,0.8569c-0.0633,0.35,0.0134,0.7037,0.2161,0.9959c0.2026,0.2922,0.507,0.4881,0.8569,0.5515c0.0794,0.0144,0.1602,0.0216,0.2401,0.0216c0.2702,0,0.5315,-0.0822,0.7558,-0.2377c0.2922,-0.2026,0.488,-0.5069,0.5514,-0.8569c0.0633,-0.3499,-0.0134,-0.7036,-0.216,-0.9959C6.4758,10.0362,6.066,9.8223,5.6281,9.8223z" fill="#52B250"/>
  </g>
</svg>
