<?xml version="1.0" encoding="UTF-8"?>
<!DOCTYPE svg PUBLIC "-//W3C//DTD SVG 1.1//EN" "http://www.w3.org/Graphics/SVG/1.1/DTD/svg11.dtd">
<svg version="1.1" id="Layer_1" xmlns="http://www.w3.org/2000/svg" xmlns:xlink="http://www.w3.org/1999/xlink" x="0px" y="0px" width="16px" height="16px" viewBox="0 0 16 16" enable-background="new 0 0 16 16" xml:space="preserve">
  <g id="icon">
    <path d="M15.5,14.5H0.5V2.5h15V14.5z" fill="#FFFFFF" opacity="0.5"/>
    <path d="M16,15H0V2h16V15zM1,14h14V3H1V14z" fill="#6D6E71"/>
    <path d="M14,10h-2V9h2V10zM14,12h-2v-1h2V12zM14,8h-2V7h2V8zM14,6h-2V5h2V6z" fill="#6D6E71"/>
    <path d="M8.1503,9.2497c-0.041,0,-0.0034,0.0007,-0.0376,0.002c-0.0046,0.3046,-1.1258,2.2853,-1.6122,2.2853c-0.4852,0,-1.6019,-1.9356,-1.6121,-2.2824c-0.0627,-0.0033,-0.0621,-0.0049,-0.1502,-0.0049c-1.8748,0,-2.7373,1.4861,-2.7373,2.5418c0,1.2078,2.2498,1.2078,4.4996,1.2078s4.4996,0,4.4996,-1.2078C11,10.7244,10.1751,9.2497,8.1503,9.2497z" fill="#6485C3"/>
    <path d="M7.7075,8.9971c-0.3588,0.3839,-0.7722,0.5901,-1.1988,0.5901c-0.429,0,-0.8447,-0.2085,-1.2049,-0.5965c-0.1354,0.0778,-0.4158,0.2409,-0.4158,0.2591c0,0.3375,1.1249,2.2873,1.6124,2.2873s1.6124,-1.9873,1.6124,-2.2873C8.1128,9.2338,7.8464,9.0775,7.7075,8.9971z" fill="#FFFFFF" opacity="0.6"/>
    <path d="M8.4762,6.4353c0,1.3823,-0.8809,2.9563,-1.9675,2.9563s-1.9675,-1.574,-1.9675,-2.9563s0.8809,-2.1266,1.9675,-2.1266S8.4762,5.0529,8.4762,6.4353z" fill="#FFFFFF" opacity="0.5"/>
    <path d="M6.5004,9.6809c-0.6133,0,-1.1948,-0.3913,-1.6372,-1.1018c-0.3837,-0.6161,-0.6128,-1.4178,-0.6128,-2.1444c0,-0.7376,0.2285,-1.36,0.6608,-1.7999c0.4025,-0.4096,0.9669,-0.6352,1.5892,-0.6352c0.6223,0,1.1867,0.2256,1.5892,0.6352c0.4323,0.4399,0.6608,1.0623,0.6608,1.7999c0,0.7266,-0.2291,1.5283,-0.6128,2.1444C7.6952,9.2897,7.1137,9.6809,6.5004,9.6809zM6.5004,4.712c-0.9478,0,-1.5602,0.6762,-1.5602,1.7227c0,1.1406,0.7199,2.5339,1.5602,2.5339s1.5602,-1.3933,1.5602,-2.5339C8.0606,5.3882,7.4482,4.712,6.5004,4.712z" fill="#6485C3"/>
    <path d="M4.963,5.2479c-0.15,0.6019,0.225,0.832,0.9749,0.832c0.7499,0,0.8249,-0.3543,1.5374,-0.3543s0.7499,0.4493,0.7499,0.4493l-0.075,-1.2988l-1.0499,-0.5385H5.8255C5.8255,4.3377,5.113,4.646,4.963,5.2479z" fill="#6485C3"/>
    <path d="M6.9879,10.0746v-0.075h-0.9749v0.075c0,0.1992,0.1038,0.4818,0.2344,0.5487l-0.1856,1.1011h0.8774l-0.1835,-1.0874C6.9047,10.5757,6.9879,10.2885,6.9879,10.0746z" fill="#6485C3"/>
  </g>
</svg>
