<?xml version="1.0" encoding="UTF-8"?>
<!DOCTYPE svg PUBLIC "-//W3C//DTD SVG 1.1//EN" "http://www.w3.org/Graphics/SVG/1.1/DTD/svg11.dtd">
<svg version="1.1" id="Layer_1" xmlns="http://www.w3.org/2000/svg" xmlns:xlink="http://www.w3.org/1999/xlink" x="0px" y="0px" width="16px" height="16px" viewBox="0 0 16 16" enable-background="new 0 0 16 16" xml:space="preserve">
  <g id="icon">
    <path d="M3.5,0.5v3.3223C4.1794,3.3535,5.0065,3.1,5.8925,3.1c1.14,0,2.1836,0.4179,2.9387,1.1767c0.7968,0.8007,1.218,1.9034,1.218,3.1888c0,0.8836,-0.2015,1.8063,-0.566,2.6354c0.379,0.0974,0.7276,0.2331,1.0465,0.3991H15.5V0.5H3.5z" fill="#FFFFFF" opacity="0.5"/>
    <path d="M3,0v4.2327c0.2949,-0.2867,0.6318,-0.5225,1,-0.7035V1h11v9H9.5246c-0.0141,0.0335,-0.0267,0.0677,-0.0413,0.1009c0.7098,0.1823,1.3153,0.4969,1.8123,0.8991H16V0H3z" fill="#6D6E71"/>
    <path d="M14,4.5h-2V2h2V4.5z" fill="#CB525D"/>
    <path d="M10.0301,7H12v1h-1.9769c0.0158,-0.179,0.0261,-0.3576,0.0261,-0.5345C10.0492,7.3075,10.0427,7.1523,10.0301,7zM9.8431,6H11V5H9.3989C9.5874,5.307,9.7359,5.6416,9.8431,6z" fill="#6D6E71"/>
    <path d="M8.5242,4H9V3H6v0.1025C6.9514,3.1246,7.8307,3.4383,8.5242,4z" fill="#B7B7B7"/>
    <path d="M7.9841,11.1248c0,0.39,-1.4668,2.9739,-2.1024,2.9739s-2.1024,-2.5351,-2.1024,-2.9739c0,-0.0236,0.3656,-0.2357,0.5422,-0.3368c0.4697,0.5046,1.0118,0.7756,1.5711,0.7756c0.5562,0,1.0953,-0.2681,1.5632,-0.7672C7.6368,10.9009,7.9841,11.1041,7.9841,11.1248zM5.8925,11.3092c1.4169,0,2.5655,-2.0465,2.5655,-3.8438c0,-1.7973,-1.1486,-2.7649,-2.5655,-2.7649S3.327,5.6682,3.327,7.4655C3.327,9.2628,4.4756,11.3092,5.8925,11.3092z" fill="#FFFFFF" opacity="0.5"/>
    <path d="M11.7489,14.4296C11.7489,16,8.8153,16,5.8817,16s-5.8673,0,-5.8673,-1.5704c0,-1.3726,1.1246,-3.3048,3.5693,-3.3048c0.115,0,0.1141,0.0021,0.1959,0.0064c0.0106,0.357,0.9251,2.0081,1.6197,2.6809l0.1524,-0.9012c-0.1702,-0.087,-0.3056,-0.4545,-0.3056,-0.7134v-0.0975h1.2712v0.0975c0,0.2781,-0.1084,0.6515,-0.3029,0.7313l0.1488,0.8794c0.6969,-0.6849,1.6159,-2.3669,1.6207,-2.6807c0.0446,-0.0017,-0.0044,-0.0026,0.049,-0.0026C10.6733,11.1248,11.7489,13.0422,11.7489,14.4296zM3.7499,10.2786c-0.5097,-0.8083,-0.814,-1.86,-0.814,-2.8132c0,-0.9613,0.3004,-1.7713,0.8686,-2.3423C4.3327,4.5923,5.0742,4.3,5.8925,4.3s1.5599,0.2923,2.0881,0.8231c0.5682,0.5711,0.8686,1.381,0.8686,2.3423c0,0.9532,-0.3043,2.0049,-0.814,2.8132c-0.5819,0.9229,-1.3429,1.4312,-2.1427,1.4312S4.3318,11.2015,3.7499,10.2786zM3.7182,7.4655c0,1.5499,1.0034,3.4432,2.1744,3.4432s2.1744,-1.8933,2.1744,-3.4432c0,-0.2136,-0.0193,-0.4156,-0.0558,-0.6053c-0.122,-0.1539,-0.367,-0.3173,-0.8582,-0.3173c-0.929,0,-1.0268,0.4606,-2.0047,0.4606c-0.6952,0,-1.1429,-0.1515,-1.2736,-0.52C3.7725,6.7741,3.7182,7.1036,3.7182,7.4655z" fill="#6485C3"/>
  </g>
</svg>
