<?xml version="1.0" encoding="UTF-8"?>
<!DOCTYPE svg PUBLIC "-//W3C//DTD SVG 1.1//EN" "http://www.w3.org/Graphics/SVG/1.1/DTD/svg11.dtd">
<svg version="1.1" id="Layer_1" xmlns="http://www.w3.org/2000/svg" xmlns:xlink="http://www.w3.org/1999/xlink" x="0px" y="0px" width="16px" height="16px" viewBox="0 0 16 16" enable-background="new 0 0 16 16" xml:space="preserve">
  <g id="icon">
    <path d="M15.5,15.5H0.5V9.5h3.8041L5,11.5h6l0.7126,-2H15.5V15.5zM11.7083,7.5019L7.6866,9.0518c-0.4659,0.1795,-0.9243,-0.2773,-0.7465,-0.7438l1.5385,-4.0348L11.2579,1.5H2.5v7h2.6833l0.8,2H10l0.75,-2H13.5V5.7165L11.7083,7.5019z" fill="#FFFFFF" opacity="0.5"/>
    <path d="M16,16H0V9h4.6595l0.6959,2h5.2919l0.7126,-2H16V16zM1,15h14v-5h-2.9348l-0.7126,2H4.6446l-0.6959,-2H1V15z" fill="#EEAC55"/>
    <path d="M14,5.2182V8.5h-1V6.2147L14,5.2182zM11.759,1H2v7.5h1V2h7.7568L11.759,1z" fill="#6D6E71"/>
    <path d="M8.3328,8c-0.0636,0,-0.1233,-0.0246,-0.1683,-0.0694l-0.1002,-0.0996c-0.0744,-0.0739,-0.0916,-0.1859,-0.0426,-0.2786l1.2975,-2.4522c0.0411,-0.0779,0.1218,-0.1264,0.2105,-0.1264h0.0105l0.0185,0.0018l0.0592,0.0072l1.4165,1.4127l0.003,0.067c0.0041,0.0916,-0.0458,0.1783,-0.1271,0.2208L8.4434,7.9728C8.4093,7.9906,8.3711,8,8.3328,8zM9.8368,4.5374l3.3565,-3.3211l1.6372,1.6329L11.474,6.1703L9.8368,4.5374zM13.5225,0.8809l0.6706,-0.6586C14.3411,0.075,14.4998,0,14.6638,0c0.164,0,0.3227,0.075,0.4715,0.223l0.65,0.6461c0.1385,0.1376,0.2147,0.3207,0.2147,0.5154c0,0.1947,-0.0762,0.3778,-0.2147,0.5154l-0.6215,0.618L13.5225,0.8809z" fill="#6485C3"/>
  </g>
</svg>
