<?xml version="1.0" encoding="UTF-8"?>
<!DOCTYPE svg PUBLIC "-//W3C//DTD SVG 1.1//EN" "http://www.w3.org/Graphics/SVG/1.1/DTD/svg11.dtd">
<svg version="1.1" id="Layer_1" xmlns="http://www.w3.org/2000/svg" xmlns:xlink="http://www.w3.org/1999/xlink" x="0px" y="0px" width="16px" height="16px" viewBox="0 0 16 16" enable-background="new 0 0 16 16" xml:space="preserve">
  <g id="icon">
    <path d="M14.5,11h-1.5v-1h1.5V11zM15,9h-2V8h2V9zM15.5,7h-2.5V6h2.5V7zM16,5h-3V4h3V5z" fill="#52B250"/>
    <polygon points="11.9599,3 6,8.0667 0.0401,3 0,3 0,4.1733 6,9.2889 12,4.1733 12,3" fill="#FFFFFF" stroke-linejoin="miter" opacity="0.5"/>
    <path d="M12,4.1733V13H0V4.1733l6,5.1156L12,4.1733zM11.9599,3H0.0401L6,8.0667L11.9599,3z" fill="#6D6E71"/>
  </g>
</svg>
