<?xml version="1.0" encoding="UTF-8"?>
<!DOCTYPE svg PUBLIC "-//W3C//DTD SVG 1.1//EN" "http://www.w3.org/Graphics/SVG/1.1/DTD/svg11.dtd">
<svg version="1.1" id="Layer_1" xmlns="http://www.w3.org/2000/svg" xmlns:xlink="http://www.w3.org/1999/xlink" x="0px" y="0px" width="16px" height="16px" viewBox="0 0 16 16" enable-background="new 0 0 16 16" xml:space="preserve">
  <g id="icon">
    <path d="M14.5,11h-1.5v-1h1.5V11zM15,9h-2V8h2V9zM15.5,7h-2.5V6h2.5V7zM16,5h-3V4h3V5z" fill="#52B250"/>
    <path d="M7.5789,2v4.4211H4.4211V2H0v12h12V2H7.5789zM3.608,10.477h-0.6645v2.4782c0,0.0266,-0.0215,0.0481,-0.0481,0.0481h-0.8512c-0.0266,0,-0.0481,-0.0215,-0.0481,-0.0481V10.477h-0.6809l1.1546,-1.8829l1.1449,1.8697C3.6187,10.4692,3.6148,10.477,3.608,10.477zM6.6501,10.477h-0.6645v2.4782c0,0.0266,-0.0215,0.0481,-0.0481,0.0481h-0.8512c-0.0266,0,-0.0481,-0.0215,-0.0481,-0.0481V10.477h-0.6809l1.1546,-1.8829l1.1449,1.8697C6.6608,10.4692,6.6569,10.477,6.6501,10.477z" fill="#EEAC55"/>
    <path d="M4.4211,2v4.4211h3.1579V2H4.4211z" fill="#6D6E71"/>
    <path d="M3.6147,10.4638c0.004,0.0055,0.0001,0.0132,-0.0067,0.0132h-0.6645v2.4782c0,0.0266,-0.0215,0.0481,-0.0481,0.0481h-0.8511c-0.0266,0,-0.0481,-0.0215,-0.0481,-0.0481V10.477h-0.6809l1.1546,-1.8829L3.6147,10.4638zM5.5119,8.5941L4.3573,10.477h0.6809v2.4782c0,0.0266,0.0215,0.0481,0.0481,0.0481h0.8511c0.0266,0,0.0481,-0.0215,0.0481,-0.0481V10.477h0.6645c0.0068,0,0.0107,-0.0077,0.0067,-0.0132L5.5119,8.5941z" fill="#6D6E71"/>
  </g>
</svg>
