<?xml version="1.0" encoding="UTF-8"?>
<!DOCTYPE svg PUBLIC "-//W3C//DTD SVG 1.1//EN" "http://www.w3.org/Graphics/SVG/1.1/DTD/svg11.dtd">
<svg version="1.1" id="Layer_1" xmlns="http://www.w3.org/2000/svg" xmlns:xlink="http://www.w3.org/1999/xlink" x="0px" y="0px" width="16px" height="16px" viewBox="0 0 16 16" enable-background="new 0 0 16 16" xml:space="preserve">
  <g id="icon">
    <path d="M13.5,13.8078c0,0.8327,-0.6744,1.5078,-1.5062,1.5078s-1.5062,-0.6751,-1.5062,-1.5078S11.1619,12.3,11.9938,12.3S13.5,12.9751,13.5,13.8078zM5.9938,12.3c-0.8319,0,-1.5062,0.6751,-1.5062,1.5078s0.6744,1.5078,1.5062,1.5078S7.5,14.6406,7.5,13.8078S6.8256,12.3,5.9938,12.3zM15.0085,5.3h-0.6481l0.1199,0.1214L9.5,10.3388L4.5197,5.4214L4.6396,5.3H3.3725l1.65,6h8.25l2.0766,-5.5162C15.4336,5.5482,15.2589,5.3,15.0085,5.3z" fill="#FFFFFF" opacity="0.5"/>
    <path d="M11.9938,15.9156c-1.1614,0,-2.1063,-0.9456,-2.1063,-2.1078S10.8324,11.7,11.9938,11.7S14.1,12.6456,14.1,13.8078S13.1551,15.9156,11.9938,15.9156zM11.9938,12.9c-0.4997,0,-0.9063,0.4072,-0.9063,0.9078s0.4065,0.9078,0.9063,0.9078s0.9063,-0.4072,0.9063,-0.9078S12.4935,12.9,11.9938,12.9zM5.9938,15.9156c-1.1614,0,-2.1063,-0.9456,-2.1063,-2.1078S4.8324,11.7,5.9938,11.7S8.1,12.6456,8.1,13.8078S7.1551,15.9156,5.9938,15.9156zM5.9938,12.9c-0.4997,0,-0.9063,0.4072,-0.9063,0.9078s0.4065,0.9078,0.9063,0.9078S6.9,14.3084,6.9,13.8078S6.4935,12.9,5.9938,12.9z" fill="#6D6E71"/>
    <path d="M15.3632,5h-1.299l0.4161,0.4214L13.8943,6h0.6883l-1.8974,5H5.4086L4.0354,6h1.0703l-0.586,-0.5786L4.9358,5h-1.175l-0.2835,-1.0323C3.3203,3.3961,2.8007,3,2.208,3H0v1h2.208c0.142,0,0.2674,0.0956,0.305,0.2325L4.6462,12h8.7291L15.9,5.5C16.0323,5.1337,15.5333,5,15.3632,5z" fill="#6485C3"/>
    <polygon points="6.2167,5.4106 7.0599,4.5567 8.9,6.3737 8.9,0.0031 10.1,0.0031 10.1,6.3737 11.9401,4.5567 12.7833,5.4106 9.5,8.6524" fill="#52B250" stroke-linejoin="miter"/>
  </g>
</svg>
