<?xml version="1.0" encoding="UTF-8"?>
<!DOCTYPE svg PUBLIC "-//W3C//DTD SVG 1.1//EN" "http://www.w3.org/Graphics/SVG/1.1/DTD/svg11.dtd">
<svg version="1.1" id="Layer_1" xmlns="http://www.w3.org/2000/svg" xmlns:xlink="http://www.w3.org/1999/xlink" x="0px" y="0px" width="16px" height="16px" viewBox="0 0 16 16" enable-background="new 0 0 16 16" xml:space="preserve">
  <g id="icon">
    <path d="M12.9996,5.5383l-0.0012,0.0022c0,-0.0007,0,-0.0014,0,-0.0022H12.9996C12.9828,2.7529,10.751,0.5,8,0.5C5.249,0.5,3.0172,2.7529,3.0004,5.5383C1.5057,6.4149,0.5,8.0533,0.5,9.9301C0.5,12.7301,2.7386,15,5.5,15c0.9107,0,1.7645,-0.247,2.5,-0.6784C8.7355,14.753,9.5893,15,10.5,15c2.7614,0,5,-2.2699,5,-5.0699C15.5,8.0533,14.4943,6.4149,12.9996,5.5383z" fill="#FFFFFF" opacity="0.5"/>
    <path d="M5.5,15.5c-3.0327,0,-5.5,-2.4986,-5.5,-5.5699C0,7.949,1.0528,6.1009,2.7475,5.107c0.2383,-0.1397,0.5447,-0.0598,0.6842,0.1784c0.1397,0.2382,0.0599,0.5445,-0.1784,0.6842C1.8634,6.7848,1,8.3023,1,9.9301C1,12.45,3.0187,14.5,5.5,14.5c0.79,0,1.567,-0.2108,2.247,-0.6097c0.2382,-0.1396,0.5445,-0.0598,0.6843,0.1783c0.1397,0.2382,0.0599,0.5445,-0.1783,0.6843C7.4197,15.2417,6.4677,15.5,5.5,15.5z" fill="#CB525D"/>
    <path d="M12.9996,6.0383c-0.2748,0,-0.4983,-0.2219,-0.5,-0.497C12.4845,3.0373,10.466,1,8,1S3.5155,3.0373,3.5004,5.5414c-0.0017,0.2761,-0.2302,0.4998,-0.503,0.497c-0.2761,-0.0017,-0.4986,-0.2269,-0.497,-0.503C2.5188,2.4832,4.9859,0,8,0s5.4812,2.4832,5.4996,5.5353c0.0017,0.2762,-0.2208,0.5014,-0.497,0.503C13.0016,6.0383,13.0005,6.0383,12.9996,6.0383z" fill="#6485C3"/>
    <path d="M10.5,15.5c-0.9677,0,-1.9197,-0.2583,-2.753,-0.7471c-0.2382,-0.1397,-0.318,-0.4461,-0.1783,-0.6843c0.1397,-0.2382,0.4461,-0.3182,0.6843,-0.1783C8.933,14.2892,9.71,14.5,10.5,14.5c2.4813,0,4.5,-2.05,4.5,-4.5699c0,-1.6278,-0.8634,-3.1453,-2.2533,-3.9604c-0.2382,-0.1397,-0.3181,-0.446,-0.1784,-0.6842s0.446,-0.3182,0.6842,-0.1784C14.9472,6.1009,16,7.949,16,9.9301C16,13.0014,13.5327,15.5,10.5,15.5z" fill="#52B250"/>
    <path d="M6.0113,10.8409l-0.7638,-0.4479C3.5528,9.3991,2.5,7.551,2.5,5.5699l0.0039,-0.3201l0.2436,-0.1428c0.8332,-0.4886,1.785,-0.7469,2.7525,-0.7469c0.9677,0,1.9197,0.2583,2.753,0.7471l0.7353,0.4313l-0.7353,0.4313C6.8642,6.7845,6.0011,8.3006,6,9.9271L6.0113,10.8409zM3.5071,5.8317c0.0696,1.2415,0.6426,2.4022,1.5643,3.2073c0.2154,-1.3352,0.9078,-2.5537,1.9397,-3.4142c-0.4824,-0.1743,-0.994,-0.2646,-1.5111,-0.2646C4.8068,5.3602,4.1235,5.5225,3.5071,5.8317z" fill="#9070B1"/>
    <path d="M8,14.9013l-0.253,-0.1484c-1.6823,-0.9869,-2.7348,-2.8216,-2.7466,-4.7881l-0.0053,-0.879l0.7582,0.4447c0.6799,0.3987,1.4568,0.6095,2.2467,0.6095s1.5668,-0.2107,2.2467,-0.6095l0.7582,-0.4447l-0.0053,0.879c-0.0119,1.9666,-1.0643,3.8013,-2.7466,4.7881L8,14.9013zM6.0815,10.7908c0.2267,1.1901,0.9161,2.257,1.9185,2.9394c1.0023,-0.6824,1.6917,-1.7493,1.9185,-2.9394c-0.6107,0.2297,-1.2609,0.349,-1.9185,0.349S6.6922,11.0206,6.0815,10.7908z" fill="#EEAC55"/>
    <path d="M9.9887,10.8409l0.0113,-0.917c0,-1.6214,-0.8633,-3.1389,-2.253,-3.954l-0.7353,-0.4313l0.7353,-0.4313c0.8333,-0.4888,1.7853,-0.7471,2.753,-0.7471c0.9794,0,1.9309,0.2544,2.7515,0.7357l0.2471,0.1449v0.2864c0,2.008,-1.0522,3.8725,-2.746,4.8658L9.9887,10.8409zM8.9889,5.6248c1.0316,0.8602,1.7238,2.0781,1.9395,3.4127c0.9132,-0.8024,1.4839,-1.9643,1.5612,-3.2176c-0.6065,-0.3015,-1.2884,-0.4598,-1.9896,-0.4598C9.9829,5.3602,9.4713,5.4505,8.9889,5.6248z" fill="#52B4C0"/>
  </g>
</svg>
