<?xml version="1.0" encoding="UTF-8"?>
<!DOCTYPE svg PUBLIC "-//W3C//DTD SVG 1.1//EN" "http://www.w3.org/Graphics/SVG/1.1/DTD/svg11.dtd">
<svg version="1.1" id="Layer_1" xmlns="http://www.w3.org/2000/svg" xmlns:xlink="http://www.w3.org/1999/xlink" x="0px" y="0px" width="16px" height="16px" viewBox="0 0 16 16" enable-background="new 0 0 16 16" xml:space="preserve">
  <g id="icon">
    <rect x="1.5" y="0.5" width="13" height="15" fill="#FFFFFF" opacity="0.5"/>
    <path d="M15,16H1V0h14V16zM2,15h12V1H2V15z" fill="#6D6E71"/>
    <path d="M13,13H3v-1h10V13zM13,11H3v-1h10V11zM13,9H3V8h10V9zM6,7H3V6h3V7zM6,5H3V4h3V5zM6,3H3V2h3V3z" fill="#B7B7B7"/>
    <rect x="7" y="2" width="6" height="5" fill="#6485C3"/>
  </g>
</svg>
