<?xml version="1.0" encoding="UTF-8"?>
<!DOCTYPE svg PUBLIC "-//W3C//DTD SVG 1.1//EN" "http://www.w3.org/Graphics/SVG/1.1/DTD/svg11.dtd">
<svg version="1.1" id="Layer_1" xmlns="http://www.w3.org/2000/svg" xmlns:xlink="http://www.w3.org/1999/xlink" x="0px" y="0px" width="16px" height="16px" viewBox="0 0 16 16" enable-background="new 0 0 16 16" xml:space="preserve">
  <g id="icon">
    <path d="M15,15H1V4h14V15z" fill="#FFFFFF" opacity="0.4"/>
    <path d="M16,4H0V1h16V4z" fill="#6485C3"/>
    <polygon points="15,4 15,15 1,15 1,4 0,4 0,16 16,16 16,4" fill="#6D6E71" stroke-linejoin="miter"/>
    <polygon points="7.0322,13.6261 5.0613,8.8303 4.5607,10 2,10 2,9 3.901,9 5.08,6.2449 7.0167,10.9576 9.1923,5.4842 11.2048,9.7934 11.5481,9 14,9 14,10 12.205,10 11.2397,12.2313 9.2662,8.0056" fill="#52B250" stroke-linejoin="miter"/>
  </g>
</svg>
