<?xml version="1.0" encoding="UTF-8"?>
<!DOCTYPE svg PUBLIC "-//W3C//DTD SVG 1.1//EN" "http://www.w3.org/Graphics/SVG/1.1/DTD/svg11.dtd">
<svg version="1.1" id="Layer_1" xmlns="http://www.w3.org/2000/svg" xmlns:xlink="http://www.w3.org/1999/xlink" x="0px" y="0px" width="16px" height="16px" viewBox="0 0 16 16" enable-background="new 0 0 16 16" xml:space="preserve">
  <g id="icon">
    <path d="M6.5,6.5H1V1.5h5.5V6.5zM14.5,1.5H9v5h5.5V1.5z" fill="#FFFFFF"/>
    <path d="M16,4.5h-1v2.5H9V5h1v1h4V2h-4v1H9V1h6v2.5h1V4.5zM3,3.5H0v1h3V3.5zM11,3.5H7V1H1v2h1V2h4v4H2V5H1v2h6V4.5h4V3.5z" fill="#6D6E71"/>
    <path d="M4,2.8c0.6627,0,1.2,0.5373,1.2,1.2s-0.5373,1.2,-1.2,1.2s-1.2,-0.5373,-1.2,-1.2S3.3373,2.8,4,2.8zM10.8,4c0,0.6627,0.5373,1.2,1.2,1.2s1.2,-0.5373,1.2,-1.2s-0.5373,-1.2,-1.2,-1.2S10.8,3.3373,10.8,4z" fill="#6485C3"/>
    <path d="M16,15h-4.5v-1h4.5V15zM4.5,15H0v-1h4.5V15zM8.5,12.5H7.5V8h1V12.5z" fill="#6D6E71"/>
    <path d="M11,16H5v-3h6V16z" fill="#EEAC55"/>
  </g>
</svg>
