<?xml version="1.0" encoding="UTF-8"?>
<!DOCTYPE svg PUBLIC "-//W3C//DTD SVG 1.1//EN" "http://www.w3.org/Graphics/SVG/1.1/DTD/svg11.dtd">
<svg version="1.1" id="Layer_1" xmlns="http://www.w3.org/2000/svg" xmlns:xlink="http://www.w3.org/1999/xlink" x="0px" y="0px" width="16px" height="16px" viewBox="0 0 16 16" enable-background="new 0 0 16 16" xml:space="preserve">
  <g id="icon">
    <path d="M1.5858,0.7358l2.2096,0.9946l1.2206,-1.72l0.1333,2.2406l1.675,0.5776l-1.868,0.8401l0.1482,2.1316L3.8694,4.4073L1.5564,6.1L2.853,3.8223l-2.8303,-0.234l2.6709,-1.0102L1.5858,0.7358z" fill="#EEAC55"/>
    <path d="M9.3654,4.5712c2.9922,-0.3774,5.7248,1.7535,6.1035,4.7595c0.3787,3.006,-1.7399,5.7487,-4.7321,6.1261c-2.9922,0.3774,-5.7248,-1.7535,-6.1035,-4.7595C4.2546,7.6913,6.3733,4.9485,9.3654,4.5712zM12.0081,4.7739c0.2828,-0.3663,0.7968,-0.9696,1.0282,-1.2693c0.714,-0.0299,2.3468,1.2972,2.4545,1.9149c-0.3305,0.4625,-0.5889,0.7316,-0.9966,1.294" fill="#FFFFFF" opacity="0.5"/>
    <path d="M10.0445,16.0003c-1.317,0,-2.5895,-0.4357,-3.6469,-1.2604c-1.2578,-0.9808,-2.0605,-2.3944,-2.2603,-3.9803C3.7247,7.4851,6.042,4.4864,9.3029,4.0751v0c0.839,-0.1055,1.673,-0.034,2.4591,0.2034c0.1289,-0.1608,0.2776,-0.3414,0.4229,-0.5178c0.1803,-0.2189,0.3506,-0.4257,0.4557,-0.5618l0.1423,-0.1842l0.2325,-0.0098c0.9268,-0.0384,2.8132,1.4409,2.968,2.3286l0.0359,0.2063l-0.1217,0.1703c-0.1705,0.2386,-0.3198,0.4246,-0.4779,0.6215c-0.111,0.1382,-0.2246,0.2797,-0.3521,0.4479c0.4757,0.742,0.7839,1.5875,0.8974,2.4886c0.4125,3.2747,-1.9047,6.2733,-5.1657,6.6847C10.547,15.9846,10.2948,16.0003,10.0445,16.0003zM9.428,5.0672c-2.7139,0.3423,-4.6422,2.8398,-4.2985,5.5675c0.1665,1.3217,0.8353,2.4996,1.8831,3.3167c1.0471,0.8166,2.3473,1.1748,3.6618,1.0092c2.7139,-0.3423,4.6422,-2.8399,4.2986,-5.5675c-0.1665,-1.3217,-0.8353,-2.4996,-1.8831,-3.3167C12.0426,5.2599,10.7419,4.9011,9.428,5.0672L9.428,5.0672zM12.7329,4.6688c0.3393,0.1728,0.6646,0.3795,0.9718,0.619c0.2644,0.2062,0.5086,0.4314,0.7314,0.6734c0.0721,-0.0917,0.1397,-0.1759,0.2038,-0.2557c0.0951,-0.1185,0.1869,-0.2328,0.2809,-0.356c-0.2747,-0.4082,-1.1726,-1.1395,-1.6717,-1.3097c-0.0884,0.1089,-0.1887,0.2308,-0.2923,0.3565C12.8819,4.4874,12.806,4.5794,12.7329,4.6688z" fill="#6D6E71"/>
    <path d="M5.8891,10.9615l-0.0008,-0.0068c-0.3157,-2.5056,1.4592,-4.8019,3.9569,-5.1169l0.0149,-0.0018l0.1202,0.9928l-0.0125,0.0015C8.0196,7.076,6.6336,8.871,6.8807,10.8315l-0.4953,0.0693L5.8891,10.9615z" fill="#6D6E71"/>
    <path d="M14.7234,4.559l-0.5145,-0.8575c0.5737,-0.3442,0.7513,-0.8624,0.8011,-1.0691c0.0609,-0.2532,0.0354,-0.4537,-0.014,-0.5329c-0.4069,-0.6516,-1.4553,-1.0405,-2.8044,-1.0405c-2.5436,0,-5.1833,0.819,-5.9074,1.1059l-0.3684,-0.9297C6.686,0.93,9.4922,0.0589,12.1916,0.0589c1.7216,0,3.0529,0.5507,3.6526,1.5108c0.2064,0.3305,0.2568,0.8031,0.1381,1.2965C15.8148,3.5625,15.356,4.1795,14.7234,4.559z" fill="#6D6E71"/>
  </g>
</svg>
