<?xml version="1.0" encoding="UTF-8"?>
<!DOCTYPE svg PUBLIC "-//W3C//DTD SVG 1.1//EN" "http://www.w3.org/Graphics/SVG/1.1/DTD/svg11.dtd">
<svg version="1.1" id="Layer_1" xmlns="http://www.w3.org/2000/svg" xmlns:xlink="http://www.w3.org/1999/xlink" x="0px" y="0px" width="16px" height="16px" viewBox="0 0 16 16" enable-background="new 0 0 16 16" xml:space="preserve">
  <g id="icon">
    <path d="M6.421,12.34l1.283,2.2375l-1.6928,0.0195l-1.2135,1.2415l-0.7365,-2.6178l-0.7365,2.6178L2.1112,14.597l-1.6928,-0.0195l1.2684,-2.2121c0.6506,0.502,1.4656,0.8014,2.351,0.8014C4.9379,13.1667,5.7652,12.8572,6.421,12.34zM4.0378,6.0834c-1.7846,0,-3.2313,1.4466,-3.2313,3.231s1.4467,3.231,3.2313,3.231s3.2313,-1.4466,3.2313,-3.231S5.8224,6.0834,4.0378,6.0834z" fill="#CB525D"/>
    <g>
      <rect x="9" y="8" width="2.5" height="2" fill="#FFFFFF" opacity="0.5"/>
      <path d="M4,4.9844V3h3v2H4.4034c0.9165,0.077,1.7526,0.44,2.4183,1H8V2H3v3.11C3.3209,5.0308,3.6557,4.9874,4,4.9844z" fill="#FFFFFF" opacity="0.5"/>
      <path d="M8,7.568V7h-0.304C7.8108,7.1808,7.9126,7.3704,8,7.568z" fill="#FFFFFF" opacity="0.5"/>
      <rect x="9" y="5" width="2.5" height="2" fill="#FFFFFF" opacity="0.5"/>
      <rect x="12.5" y="2" width="2.5" height="2" fill="#FFFFFF" opacity="0.5"/>
      <rect x="9" y="2" width="2.5" height="2" fill="#FFFFFF" opacity="0.5"/>
      <rect x="12.5" y="5" width="2.5" height="2" fill="#FFFFFF" opacity="0.5"/>
      <rect x="12.5" y="8" width="2.5" height="2" fill="#FFFFFF" opacity="0.5"/>
    </g>
    <path d="M11,12v1H8.0675l-0.5734,-1H11z" fill="#FFFFFF" opacity="0.5"/>
    <path d="M8.0266,11c-0.1456,0.3431,-0.3334,0.6641,-0.5581,0.9554L8,12.8823V12h1v1h-0.9325l0.5734,1H12v-3H8.0266zM11,13h-1v-1h1V13z" fill="#EEAC55"/>
    <path d="M7,5H4.4034c-0.1206,-0.0101,-0.2423,-0.0166,-0.3656,-0.0166c-0.0127,0,-0.0252,0.0008,-0.0378,0.001V3h3V5zM16,0v12h-4.5H7.4941l-0.0256,-0.0446c0.5644,-0.7314,0.9006,-1.6478,0.9006,-2.641c0,-0.6212,-0.1325,-1.2118,-0.3691,-1.7464V7h-0.304c-0.2391,-0.3765,-0.5342,-0.7139,-0.8743,-1H8V2H3v3.11c-0.3521,0.0869,-0.6875,0.2168,-1,0.3841V0H16zM11.5,8H9v2h2.5V8zM11.5,5H9v2h2.5V5zM11.5,2H9v2h2.5V2zM15,8h-2.5v2h2.5V8zM15,5h-2.5v2h2.5V5zM15,2h-2.5v2h2.5V2z" fill="#7B7B7B"/>
  </g>
</svg>
