<?xml version="1.0" encoding="UTF-8"?>
<!DOCTYPE svg PUBLIC "-//W3C//DTD SVG 1.1//EN" "http://www.w3.org/Graphics/SVG/1.1/DTD/svg11.dtd">
<svg version="1.1" id="Layer_1" xmlns="http://www.w3.org/2000/svg" xmlns:xlink="http://www.w3.org/1999/xlink" x="0px" y="0px" width="16px" height="16px" viewBox="0 0 16 16" enable-background="new 0 0 16 16" xml:space="preserve">
  <g id="icon">
    <path d="M3.3919,11.4387c4.7877,-0.3027,5.5808,-1.8081,5.7866,-1.6081c0.2059,0.1999,-1.6715,1.8874,-2.1516,2.0946c0.1372,0.7553,0.3398,3.3353,0.3961,3.5318c0.0709,0.2473,5.5667,-0.5581,8.0621,-2.7905c0.1152,-0.2977,-0.9607,-4.6179,-3.6855,-7.7017C11.1085,3.4021,8.997,0.8721,7.7685,0.5c-0.5759,0.0372,-1.3053,2.6417,-0.2303,3.6834c-0.6085,0.0446,-1.8009,0.5241,-2.9945,2.5672C3.5071,6.8995,0.8581,7.9785,0.6277,8.5366C0.3974,9.0947,1.6259,11.1411,3.3919,11.4387zM6.6944,6.7886c0,-0.3625,0.3027,-0.6565,0.6762,-0.6565c0.3734,0,0.6762,0.2939,0.6762,0.6565c0,0.3626,-0.3028,0.6564,-0.6762,0.6564C6.9972,7.4451,6.6944,7.1512,6.6944,6.7886z" fill="#FFFFFF" opacity="0.5"/>
    <path d="M7.6431,15.994c-0.1411,0,-0.2492,-0.0101,-0.3185,-0.03c-0.1916,-0.0553,-0.3309,-0.1898,-0.3823,-0.3692c-0.0333,-0.1163,-0.0609,-0.3749,-0.1552,-1.3441c-0.0793,-0.8146,-0.178,-1.8282,-0.2521,-2.2361l-0.071,-0.3909l0.3648,-0.1575c0.0429,-0.0185,0.1042,-0.056,0.179,-0.108c-0.857,0.2558,-2.0138,0.4802,-3.5843,0.5795l-0.0577,0.0036l-0.057,-0.0096c-1.3572,-0.2288,-2.3971,-1.317,-2.8752,-2.1795c-0.2219,-0.4002,-0.4485,-0.9691,-0.268,-1.4064c0.3412,-0.8266,2.9784,-1.7986,4.0638,-2.0436c0.9215,-1.5035,1.8389,-2.1501,2.5041,-2.4247c-0.3821,-0.8597,-0.2905,-1.9903,0.0217,-2.839C6.9954,0.3858,7.3346,0.027,7.7362,0.001l0.0904,-0.0058l0.0867,0.0263c1.4578,0.4415,3.5895,3.1026,4.3111,4.6694c1.4703,1.6838,2.4136,3.6368,2.9477,4.9854c0.0102,0.0256,1.012,2.569,0.7792,3.1707l-0.0434,0.1121l-0.0896,0.0801C13.5973,15.0262,9.0292,15.9939,7.6431,15.994zM7.5703,12.1722c0.0689,0.512,0.1441,1.2838,0.212,1.9816c0.0284,0.2916,0.059,0.6056,0.0838,0.8394c1.1616,-0.088,5.034,-0.8412,7.1121,-2.5505c-0.1346,-0.8738,-1.1734,-4.4534,-3.5534,-7.1468l-0.0513,-0.058l-0.0313,-0.0708c-0.6037,-1.3651,-2.4186,-3.5622,-3.5028,-4.1007c-0.137,0.2266,-0.3221,0.7483,-0.3494,1.3623c-0.0161,0.3624,0.014,1.0256,0.396,1.3958l0.8009,0.7762l-1.1124,0.0815c-0.628,0.046,-1.6406,0.6798,-2.5993,2.3208l-0.1218,0.2084l-0.2389,0.0343C3.5846,7.3935,1.4409,8.341,1.0994,8.725c0.0156,0.4183,0.9482,1.9439,2.3213,2.2108c3.3879,-0.2232,4.669,-1.0704,5.1531,-1.3905c0.2138,-0.1414,0.612,-0.4046,0.9531,-0.0733c0.1354,0.1316,0.1927,0.3186,0.1569,0.5131C9.584,10.5284,8.2691,11.6805,7.5703,12.1722zM14.9934,12.597L14.9934,12.597L14.9934,12.597zM1.1002,8.6924" fill="#6D6E71"/>
    <path d="M7.3707,7.8951c-0.621,0,-1.1262,-0.4963,-1.1262,-1.1064s0.5052,-1.1064,1.1262,-1.1064s1.1262,0.4963,1.1262,1.1064S7.9917,7.8951,7.3707,7.8951zM7.3707,6.5822c-0.1248,0,-0.2262,0.0926,-0.2262,0.2064s0.1015,0.2064,0.2262,0.2064s0.2262,-0.0926,0.2262,-0.2064S7.4954,6.5822,7.3707,6.5822z" fill="#6485C3"/>
  </g>
</svg>
