<?xml version="1.0" encoding="UTF-8"?>
<!DOCTYPE svg PUBLIC "-//W3C//DTD SVG 1.1//EN" "http://www.w3.org/Graphics/SVG/1.1/DTD/svg11.dtd">
<svg version="1.1" id="Layer_1" xmlns="http://www.w3.org/2000/svg" xmlns:xlink="http://www.w3.org/1999/xlink" x="0px" y="0px" width="16px" height="16px" viewBox="0 0 16 16" enable-background="new 0 0 16 16" xml:space="preserve">
  <g id="icon">
    <path d="M12,6.5h-1V4.0207C11,2.3551,9.6542,1,8,1S5,2.3551,5,4.0207V6.5H4V4.0207C4,1.8037,5.7944,0,8,0s4,1.8037,4,4.0207V6.5z" fill="#6D6E71"/>
    <path d="M2.5,6.5h11v3.5c0,3.0376,-2.4624,5.5,-5.5,5.5h0c-3.0376,0,-5.5,-2.4624,-5.5,-5.5V6.5zM8,9.5v2" fill="#FFFFFF" opacity="0.5"/>
    <path d="M8,16c-3.3084,0,-6,-2.6916,-6,-6V6h12v4C14,13.3084,11.3084,16,8,16zM3,7v3c0,2.757,2.243,5,5,5s5,-2.243,5,-5V7H3zM8.5,11.5H7.5V9.5h1V11.5z" fill="#EEAC55"/>
  </g>
</svg>
