<?xml version="1.0" encoding="UTF-8"?>
<!DOCTYPE svg PUBLIC "-//W3C//DTD SVG 1.1//EN" "http://www.w3.org/Graphics/SVG/1.1/DTD/svg11.dtd">
<svg version="1.1" id="Layer_1" xmlns="http://www.w3.org/2000/svg" xmlns:xlink="http://www.w3.org/1999/xlink" x="0px" y="0px" width="16px" height="16px" viewBox="0 0 16 16" enable-background="new 0 0 16 16" xml:space="preserve">
  <g id="icon">
    <path d="M3.5,0.5v4.0344c0.1869,-0.1043,0.3587,-0.2106,0.5089,-0.3154l0.9461,-0.6606l0.946,0.6607c0.5834,0.4074,2.0759,1.201,3.548,1.2884l1.5321,0.0911l0.0185,1.5296c0.0083,0.6783,-0.1217,1.8095,-0.1999,2.3709c-0.0981,0.7051,-0.2437,1.3774,-0.4305,2.0009H15.5V0.5H3.5z" fill="#FFFFFF" opacity="0.5"/>
    <path d="M16,0v12h-5.7939c0.1119,-0.3189,0.2122,-0.653,0.3005,-1H15V1H4v3.2249c-0.2746,0.1909,-0.6188,0.386,-1,0.5652V0H16z" fill="#6D6E71"/>
    <path d="M7.9678,5.2122L3.1744,1.2071l0.6512,-0.759L9.5,5.1747l5.6744,-4.7266l0.6512,0.759L10.597,5.5757l-1.148,-0.0683C8.9449,5.4775,8.4394,5.3638,7.9678,5.2122z" fill="#6D6E71"/>
    <path d="M9.351,7.148c-1.7562,-0.1043,-3.5292,-0.9777,-4.3961,-1.583C4.088,6.1703,2.3052,7.0437,0.549,7.148c-0.0055,0.4612,0.0787,1.3655,0.1844,2.1253c0.2227,1.6002,0.7055,2.9722,1.3594,3.8632c0.9138,1.2457,1.8132,2.0063,2.8621,2.3182c1.0489,-0.3119,1.9386,-1.0726,2.8524,-2.3182c0.6539,-0.891,1.1367,-2.263,1.3594,-3.8632C9.2723,8.5135,9.3565,7.6091,9.351,7.148z" fill="#FFFFFF" opacity="0.5"/>
    <path d="M4.9549,16.0221l-0.1578,-0.047c-1.1345,-0.3374,-2.1349,-1.1379,-3.1483,-2.5193c-0.706,-0.962,-1.2242,-2.4211,-1.459,-4.1084c-0.0957,-0.6878,-0.1959,-1.6716,-0.1894,-2.2059l0.0061,-0.5057l0.5098,-0.0303c1.4991,-0.089,3.1878,-0.832,4.1225,-1.4847L4.9549,4.9l0.3162,0.2209c0.7211,0.5035,2.3988,1.3829,4.1127,1.4847l0.5098,0.0303l0.0061,0.5056c0.0065,0.534,-0.0937,1.5178,-0.1894,2.206c-0.2348,1.6872,-0.753,3.1463,-1.459,4.1084c-1.0152,1.3839,-2.0125,2.1844,-3.1385,2.5192L4.9549,16.0221zM1.1145,7.638c0.0277,0.4391,0.0871,1.0191,0.1625,1.5611c0.2106,1.5132,0.658,2.7981,1.2597,3.6179c0.8138,1.1093,1.5864,1.7705,2.4184,2.0659c0.8321,-0.2943,1.5815,-0.9389,2.4081,-2.0657c0.6017,-0.82,1.0491,-2.1049,1.2597,-3.618c0.0755,-0.5422,0.1348,-1.1222,0.1625,-1.5613c-1.5455,-0.2114,-2.996,-0.9047,-3.8306,-1.4216C4.1197,6.7331,2.6667,7.4266,1.1145,7.638zM7.9754,9.1878l-0.7715,-0.773l-2.8211,2.761L3.1516,9.971l-0.7715,0.773l2.0027,1.96L7.9754,9.1878z" fill="#52B250"/>
  </g>
</svg>
