<?xml version="1.0" encoding="UTF-8"?>
<!DOCTYPE svg PUBLIC "-//W3C//DTD SVG 1.1//EN" "http://www.w3.org/Graphics/SVG/1.1/DTD/svg11.dtd">
<svg version="1.1" id="Layer_1" xmlns="http://www.w3.org/2000/svg" xmlns:xlink="http://www.w3.org/1999/xlink" x="0px" y="0px" width="16px" height="16px" viewBox="0 0 16 16" enable-background="new 0 0 16 16" xml:space="preserve">
  <g id="icon">
    <path d="M15,3v9h-4.7939c0.2663,-0.7585,0.4686,-1.6028,0.5936,-2.5009c0.0781,-0.5614,0.2081,-1.6926,0.1999,-2.3709l-0.0185,-1.5296L9.449,5.5075C7.9769,5.42,6.4844,4.6264,5.901,4.219l-0.946,-0.6607l-0.9461,0.6606c-0.0028,0.002,-0.006,0.004,-0.0089,0.0059V3H15z" fill="#FFFFFF" opacity="0.4"/>
    <path d="M7,4.8327V3h1v2.2225C7.6414,5.1089,7.3032,4.9731,7,4.8327z" fill="#6D6E71"/>
    <path d="M3,0v3h13V0H3zM11,2h-1V1h1V2zM13,2h-1V1h1V2zM15,2h-1V1h1V2z" fill="#6485C3"/>
    <path d="M12,1h1v1h-1V1zM10,2h1V1h-1V2zM14,1v1h1V1H14z" fill="#FFFFFF" opacity="0.5"/>
    <path d="M14,5v1h-3.014l-0.0048,-0.4014L9.449,5.5075c-0.1499,-0.0089,-0.2997,-0.0268,-0.449,-0.0492V5H14zM10.9996,7.1282c0.003,0.247,-0.0124,0.5541,-0.0369,0.8718H14V7h-3.0019L10.9996,7.1282z" fill="#6D6E71"/>
    <path d="M3,4.7901V3h1v1.2249C3.7254,4.4158,3.3812,4.6109,3,4.7901zM15,3v9h-4.7939c-0.124,0.3533,-0.262,0.6877,-0.4128,1H16V3H15z" fill="#6D6E71"/>
    <path d="M9.351,7.148c-1.7562,-0.1043,-3.5292,-0.9777,-4.3961,-1.583C4.088,6.1703,2.3052,7.0437,0.549,7.148c-0.0055,0.4612,0.0787,1.3655,0.1844,2.1253c0.2227,1.6002,0.7055,2.9722,1.3594,3.8632c0.9138,1.2457,1.8132,2.0063,2.8621,2.3182c1.0489,-0.3119,1.9386,-1.0726,2.8524,-2.3182c0.6539,-0.891,1.1367,-2.263,1.3594,-3.8632C9.2723,8.5135,9.3565,7.6091,9.351,7.148z" fill="#FFFFFF" opacity="0.5"/>
    <path d="M4.9549,16.0221l-0.1578,-0.047c-1.1345,-0.3374,-2.1349,-1.1379,-3.1483,-2.5193c-0.706,-0.962,-1.2242,-2.4211,-1.459,-4.1084c-0.0957,-0.6878,-0.1959,-1.6716,-0.1894,-2.2059l0.0061,-0.5057l0.5098,-0.0303c1.4991,-0.089,3.1878,-0.832,4.1225,-1.4847L4.9549,4.9l0.3162,0.2209c0.7211,0.5035,2.3988,1.3829,4.1127,1.4847l0.5098,0.0303l0.0061,0.5056c0.0065,0.534,-0.0937,1.5178,-0.1894,2.206c-0.2348,1.6872,-0.753,3.1463,-1.459,4.1084c-1.0152,1.3839,-2.0125,2.1844,-3.1385,2.5192L4.9549,16.0221zM1.1145,7.638c0.0277,0.4391,0.0871,1.0191,0.1625,1.5611c0.2106,1.5132,0.658,2.7981,1.2597,3.6179c0.8138,1.1093,1.5864,1.7705,2.4184,2.0659c0.8321,-0.2943,1.5815,-0.9389,2.4081,-2.0657c0.6017,-0.82,1.0491,-2.1049,1.2597,-3.618c0.0755,-0.5422,0.1348,-1.1222,0.1625,-1.5613c-1.5455,-0.2114,-2.996,-0.9047,-3.8306,-1.4216C4.1197,6.7331,2.6667,7.4266,1.1145,7.638z" fill="#6485C3"/>
  </g>
</svg>
