<?xml version="1.0" encoding="UTF-8"?>
<!DOCTYPE svg PUBLIC "-//W3C//DTD SVG 1.1//EN" "http://www.w3.org/Graphics/SVG/1.1/DTD/svg11.dtd">
<svg version="1.1" id="Layer_1" xmlns="http://www.w3.org/2000/svg" xmlns:xlink="http://www.w3.org/1999/xlink" x="0px" y="0px" width="16px" height="16px" viewBox="0 0 16 16" enable-background="new 0 0 16 16" xml:space="preserve">
  <g id="icon">
    <path d="M13.7681,13.5H1.2319C0.8277,13.5,0.5,13.1723,0.5,12.7681V4.2319C0.5,3.8277,0.8277,3.5,1.2319,3.5h12.5362c0.4042,0,0.7319,0.3277,0.7319,0.7319v8.5361C14.5,13.1723,14.1723,13.5,13.7681,13.5z" fill="#FFFFFF" opacity="0.5"/>
    <path d="M13.7681,14H1.2319C0.5526,14,0,13.4474,0,12.7681V4.2319C0,3.5526,0.5526,3,1.2319,3h12.5361C14.4474,3,15,3.5526,15,4.2319v8.5361C15,13.4474,14.4474,14,13.7681,14zM1.2319,4C1.1041,4,1,4.1041,1,4.2319v8.5361c0,0.1279,0.1041,0.2319,0.2319,0.2319h12.5361c0.1279,0,0.2319,-0.1041,0.2319,-0.2319V4.2319c0,-0.1279,-0.1041,-0.2319,-0.2319,-0.2319H1.2319z" fill="#6485C3"/>
    <path d="M13,12h-1V5h1V12zM11,12h-1V5h1V12zM9,12H8V5h1V12zM7,12H6V5h1V12zM5,12H4V5h1V12zM3,12H2V5h1V12z" fill="#6485C3"/>
  </g>
</svg>
