<?xml version="1.0" encoding="UTF-8"?>
<!DOCTYPE svg PUBLIC "-//W3C//DTD SVG 1.1//EN" "http://www.w3.org/Graphics/SVG/1.1/DTD/svg11.dtd">
<svg version="1.1" id="Layer_1" xmlns="http://www.w3.org/2000/svg" xmlns:xlink="http://www.w3.org/1999/xlink" x="0px" y="0px" width="16px" height="16px" viewBox="0 0 16 16" enable-background="new 0 0 16 16" xml:space="preserve">
  <g id="icon">
    <path d="M14.2681,3H0.7319C0.3277,3,0,3.3277,0,3.7319v9.5362C0,13.6723,0.3277,14,0.7319,14h13.5361c0.4042,0,0.7319,-0.3277,0.7319,-0.7319V3.7319C15,3.3277,14.6723,3,14.2681,3zM3,12.5H2V4.5h1V12.5zM5,12.5H4V4.5h1V12.5zM7,12.5H6V4.5h1V12.5zM9,12.5H8V4.5h1V12.5zM11,12.5h-1V4.5h1V12.5zM13,12.5h-1V4.5h1V12.5z" fill="#6485C3"/>
    <path d="M13,12.5h-1V4.5h1V12.5zM11,12.5h-1V4.5h1V12.5zM9,12.5H8V4.5h1V12.5zM7,12.5H6V4.5h1V12.5zM5,12.5H4V4.5h1V12.5zM3,12.5H2V4.5h1V12.5z" fill="#FFFFFF" opacity="0.5"/>
  </g>
</svg>
