<?xml version="1.0" encoding="UTF-8"?>
<!DOCTYPE svg PUBLIC "-//W3C//DTD SVG 1.1//EN" "http://www.w3.org/Graphics/SVG/1.1/DTD/svg11.dtd">
<svg version="1.1" id="Layer_1" xmlns="http://www.w3.org/2000/svg" xmlns:xlink="http://www.w3.org/1999/xlink" x="0px" y="0px" width="16px" height="16px" viewBox="0 0 16 16" enable-background="new 0 0 16 16" xml:space="preserve">
  <g id="icon">
    <path d="M13.1052,15.5H1.8948C1.1277,15.5,0.5,14.8723,0.5,14.1052V1.8948C0.5,1.1277,1.1277,0.5,1.8948,0.5h11.2103C13.8723,0.5,14.5,1.1277,14.5,1.8948v12.2103C14.5,14.8723,13.8723,15.5,13.1052,15.5z" fill="#FFFFFF" opacity="0.5"/>
    <path d="M13.1052,16H1.8948C0.85,16,0,15.15,0,14.1052V1.8948C0,0.85,0.85,0,1.8948,0h11.2104C14.15,0,15,0.85,15,1.8948v12.2104C15,15.15,14.15,16,13.1052,16zM1.8948,1C1.4014,1,1,1.4014,1,1.8948v12.2104c0,0.4934,0.4014,0.8948,0.8948,0.8948h11.2104c0.4934,0,0.8948,-0.4014,0.8948,-0.8948V1.8948c0,-0.4934,-0.4014,-0.8948,-0.8948,-0.8948H1.8948z" fill="#6D6E71"/>
    <path d="M5,2.7H3.9v3.3h-0.8V2.7H2v-0.7h3V2.7zM8.9,3.9987c0,0.2859,-0.0459,0.5512,-0.1376,0.7957c-0.0917,0.2446,-0.2211,0.4559,-0.3882,0.6339c-0.1672,0.178,-0.3682,0.3178,-0.603,0.4194C7.5363,5.9492,7.2758,6,6.9895,6c-0.2863,0,-0.5469,-0.0508,-0.7817,-0.1524c-0.2348,-0.1016,-0.4363,-0.2414,-0.6042,-0.4194c-0.168,-0.178,-0.2979,-0.3893,-0.3896,-0.6339c-0.0917,-0.2445,-0.1376,-0.5098,-0.1376,-0.7957c0,-0.2859,0.0458,-0.5507,0.1376,-0.7944c0.0917,-0.2436,0.2215,-0.4545,0.3896,-0.6325c0.168,-0.178,0.3694,-0.3178,0.6042,-0.4194C6.4427,2.0508,6.7032,2,6.9895,2c0.2862,0,0.5468,0.0508,0.7817,0.1524c0.2348,0.1016,0.4358,0.2419,0.603,0.4208c0.1671,0.1789,0.2965,0.3902,0.3882,0.6338C8.8541,3.4507,8.9,3.7146,8.9,3.9987zM8.1106,3.9987c0,-0.205,-0.0257,-0.3888,-0.0771,-0.5516c-0.0514,-0.1627,-0.1256,-0.3012,-0.2224,-0.4154c-0.0969,-0.1142,-0.2143,-0.2013,-0.3523,-0.2616c-0.138,-0.0602,-0.2944,-0.0904,-0.4693,-0.0904c-0.1749,0,-0.3317,0.0301,-0.4705,0.0904c-0.1389,0.0603,-0.2568,0.1475,-0.3536,0.2616c-0.0969,0.1142,-0.171,0.2527,-0.2224,0.4154c-0.0515,0.1628,-0.0771,0.3466,-0.0771,0.5516c0,0.2068,0.0257,0.3915,0.0771,0.5543c0.0514,0.1628,0.1256,0.3007,0.2224,0.4141c0.0968,0.1133,0.2147,0.2001,0.3536,0.2603c0.1388,0.0603,0.2957,0.0904,0.4705,0.0904c0.1748,0,0.3313,-0.0301,0.4693,-0.0904c0.138,-0.0602,0.2554,-0.147,0.3523,-0.2603c0.0968,-0.1133,0.171,-0.2513,0.2224,-0.4141C8.0849,4.3902,8.1106,4.2054,8.1106,3.9987z" fill="#6485C3"/>
    <path d="M12.9,3h-2.8c-0.0552,0,-0.1,-0.0448,-0.1,-0.1v-0.8c0,-0.0552,0.0448,-0.1,0.1,-0.1h2.8c0.0552,0,0.1,0.0448,0.1,0.1v0.8C13,2.9552,12.9552,3,12.9,3zM12.9,5h-2.8c-0.0552,0,-0.1,-0.0448,-0.1,-0.1v-0.8c0,-0.0552,0.0448,-0.1,0.1,-0.1h2.8c0.0552,0,0.1,0.0448,0.1,0.1v0.8C13,4.9552,12.9552,5,12.9,5zM12.9333,8H2.1c-0.0552,0,-0.1,-0.0448,-0.1,-0.1v-0.8c0,-0.0552,0.0448,-0.1,0.1,-0.1h10.8333c0.0552,0,0.1,0.0448,0.1,0.1v0.8C13.0333,7.9552,12.9886,8,12.9333,8zM12.9333,10H2.1c-0.0552,0,-0.1,-0.0448,-0.1,-0.1v-0.8c0,-0.0552,0.0448,-0.1,0.1,-0.1h10.8333c0.0552,0,0.1,0.0448,0.1,0.1v0.8C13.0333,9.9552,12.9886,10,12.9333,10z" fill="#B7B7B7"/>
    <path d="M3,14H2v-3h1V14zM6,11H4v3h2V11zM8,11H7v3h1V11zM11,11H9v3h2V11zM13,11h-1v3h1V11z" fill="#6485C3"/>
  </g>
</svg>
