<?xml version="1.0" encoding="UTF-8"?>
<!DOCTYPE svg PUBLIC "-//W3C//DTD SVG 1.1//EN" "http://www.w3.org/Graphics/SVG/1.1/DTD/svg11.dtd">
<svg version="1.1" id="Layer_1" xmlns="http://www.w3.org/2000/svg" xmlns:xlink="http://www.w3.org/1999/xlink" x="0px" y="0px" width="16px" height="16px" viewBox="0 0 16 16" enable-background="new 0 0 16 16" xml:space="preserve">
  <g id="icon">
    <path d="M15,5V0.3h-0.8149L11,5.2932V6h3v1h1V6h1V5H15zM14,5h-1.6269L14,2.4497V5zM10.3,7H6v-0.7417l2.1684,-2.215c0.1728,-0.171,0.3344,-0.3349,0.486,-0.4928c0.1373,-0.143,0.2591,-0.2901,0.3624,-0.4373c0.094,-0.1341,0.1697,-0.2758,0.225,-0.4211c0.0489,-0.1287,0.0727,-0.2666,0.0727,-0.4212c0,-0.1805,-0.0289,-0.3299,-0.0858,-0.4441c-0.0601,-0.1204,-0.1343,-0.2151,-0.2269,-0.2893c-0.0982,-0.0787,-0.2088,-0.1355,-0.3382,-0.1735c-0.3099,-0.0911,-0.6493,-0.0823,-0.9114,0.01c-0.1375,0.0484,-0.2543,0.1142,-0.3571,0.2013c-0.1001,0.0849,-0.1806,0.1866,-0.246,0.3111c-0.0673,0.1282,-0.1127,0.2772,-0.1351,0.4431l-0.9911,-0.1333c0.038,-0.2822,0.119,-0.5429,0.2409,-0.7749c0.1244,-0.237,0.2876,-0.4419,0.4849,-0.6091c0.1948,-0.1649,0.4207,-0.2933,0.6715,-0.3815c0.2467,-0.0868,0.5158,-0.1309,0.8,-0.1309c0.2451,0,0.4892,0.0353,0.7255,0.1047c0.2532,0.0744,0.4826,0.1931,0.6817,0.3528c0.2048,0.1644,0.3717,0.3739,0.496,0.623c0.1268,0.2543,0.191,0.5538,0.191,0.8906c0,0.2743,-0.0464,0.5355,-0.1378,0.7764c-0.0847,0.2229,-0.1994,0.4381,-0.341,0.6401c-0.1325,0.189,-0.2872,0.3759,-0.4597,0.5556c-0.1575,0.1642,-0.3253,0.3343,-0.4986,0.5057L7.6522,6H10.3V7z" fill="#6485C3"/>
    <path d="M7.6791,16c-0.0482,0,-0.096,-0.0044,-0.142,-0.0131c-0.5373,-0.1508,-1.0319,-0.3909,-1.521,-0.7361c-0.672,-0.4743,-1.318,-1.0851,-1.9749,-1.8673c-0.7759,-0.9239,-1.4935,-1.9488,-2.1936,-3.133C1.1684,9.1017,0.7016,8.1158,0.3785,7.1477c-0.2878,-0.8625,-0.4064,-1.5809,-0.3731,-2.2607c0.0146,-0.2975,0.0634,-0.5314,0.1491,-0.7151c0.0922,-0.1978,0.2896,-0.3552,0.4336,-0.4702c0.4484,-0.3577,0.9707,-0.6614,1.6439,-0.9557c0.1325,-0.0579,0.2668,-0.0873,0.399,-0.0873c0.1884,0,0.368,0.0587,0.5336,0.1744c0.112,0.0783,0.2061,0.1938,0.2518,0.309c0.1815,0.4577,0.3618,0.9245,0.5362,1.376c0.1578,0.4086,0.3155,0.8172,0.4762,1.2245c0.1269,0.3217,0.0641,0.6338,-0.1921,0.9543c-0.2223,0.2781,-0.476,0.5699,-0.7755,0.8922c-0.0681,0.0733,-0.0664,0.1073,-0.0259,0.1788c0.1181,0.2081,0.2336,0.4178,0.3491,0.6275c0.2418,0.4389,0.4918,0.8928,0.7615,1.3224c0.2671,0.4255,0.5744,0.838,0.8716,1.237c0.081,0.1087,0.1619,0.2173,0.2421,0.3263c0.1601,0.2175,0.2051,0.2683,0.2796,0.2683c0.063,0,0.1614,-0.0295,0.3104,-0.0743c0.1103,-0.0331,0.2156,-0.0667,0.3208,-0.1003c0.1534,-0.049,0.3119,-0.0996,0.4704,-0.1437c0.1635,-0.0456,0.2971,-0.0668,0.4202,-0.0668c0.1622,0,0.306,0.0367,0.4396,0.112c0.0622,0.0351,0.1217,0.0806,0.1718,0.1316c0.2031,0.2064,0.405,0.414,0.6069,0.6216c0.415,0.4268,0.8441,0.8681,1.2768,1.2901c0.1955,0.1906,0.2961,0.4177,0.2911,0.6568c-0.0053,0.2522,-0.1274,0.498,-0.3438,0.6921c-0.4444,0.3986,-0.9877,0.8491,-1.6475,1.1676C8.0881,15.9171,7.8882,16,7.6791,16z" fill="#6D6E71"/>
  </g>
</svg>
