<?xml version="1.0" encoding="UTF-8"?>
<!DOCTYPE svg PUBLIC "-//W3C//DTD SVG 1.1//EN" "http://www.w3.org/Graphics/SVG/1.1/DTD/svg11.dtd">
<svg version="1.1" id="Layer_1" xmlns="http://www.w3.org/2000/svg" xmlns:xlink="http://www.w3.org/1999/xlink" x="0px" y="0px" width="16px" height="16px" viewBox="0 0 16 16" enable-background="new 0 0 16 16" xml:space="preserve">
  <g id="icon">
    <path d="M13.5082,15.9957c-1.4414,0,-2.7861,0,-4.1648,0c0,-1.174,-0.0324,-2.3112,0.0191,-3.4443c0.0162,-0.3557,0.192,-0.7542,0.4081,-1.0403c0.7438,-0.9845,1.5208,-1.9436,2.3219,-2.8783c0.2773,-0.3236,0.7097,-0.5023,1.0819,-0.1756c0.3616,0.3174,0.2779,0.7724,0.0538,1.147c-0.2891,0.4833,-0.6433,0.9242,-0.938,1.4042c-0.0754,0.1228,-0.0325,0.3244,-0.0439,0.4898c0.1621,-0.0484,0.3883,-0.0424,0.4759,-0.1542c0.5306,-0.6771,1.0549,-1.3632,1.5252,-2.0859c0.1606,-0.2468,0.2121,-0.606,0.2221,-0.917c0.0287,-0.8933,0.0048,-1.7884,0.013,-2.6826c0.0061,-0.6567,0.3084,-1.0568,0.7666,-1.0451c0.4564,0.0116,0.7386,0.4123,0.7397,1.0682c0.0027,1.6554,-0.0165,3.3112,0.0109,4.9662c0.0091,0.5499,-0.1403,1.0023,-0.4592,1.4185c-0.3191,0.4164,-0.6347,0.8358,-0.9472,1.2576C14.0132,14.1066,13.3706,14.8613,13.5082,15.9957zM6.6492,16c-1.4079,0,-2.7442,0,-4.136,0c0.101,-1.5342,-0.9574,-2.4428,-1.7343,-3.4847c-0.5297,-0.7103,-0.8141,-1.4188,-0.7753,-2.3405C0.0667,8.6746,0.0185,7.1692,0.0217,5.666c0.0014,-0.6504,0.2927,-1.0518,0.7495,-1.0523c0.4522,-0.0005,0.7418,0.3999,0.7473,1.0606c0.0071,0.8562,-0.0461,1.7167,0.0214,2.5671c0.0371,0.4669,0.1974,0.9622,0.4297,1.3637c0.3364,0.5814,0.7709,1.1056,1.2019,1.6188c0.1263,0.1503,0.3829,0.1806,0.5798,0.2658c-0.0398,-0.1969,-0.0328,-0.4244,-0.1283,-0.5849c-0.2589,-0.4348,-0.5827,-0.8273,-0.84,-1.263c-0.2314,-0.3918,-0.3405,-0.8589,0.0465,-1.1923c0.372,-0.3205,0.7985,-0.1321,1.0736,0.1929c0.7934,0.937,1.5984,1.8729,2.2903,2.8902c0.292,0.4294,0.3962,1.0548,0.4369,1.6033C6.699,14.0614,6.6492,14.9965,6.6492,16zM8,4.9c-1.218,-0.824,-2.4413,-1.6344,-3.7346,-2.5093C5.4826,1.5671,8,0.1,8,0.1s2.5235,1.4703,3.7346,2.2907C10.4566,3.2572,9.2294,4.0664,8,4.9zM4,3.2555c1.1379,0.7718,2.1047,1.4677,3.0618,2.1333c0.1254,0.0872,0.4022,0.2545,0.405,0.3873c0.0221,1.0668,0.0124,2.1343,0.0124,3.3841c-1.1586,-0.7877,-2.3114,-1.476,-3.3218,-2.1767c-0.0845,-0.0586,-0.1526,-0.2004,-0.1526,-0.3043C4.0048,5.7128,4,4.4973,4,3.2555zM8.5144,9.1603c0,-1.2309,-0.012,-2.2766,0.013,-3.3215c0.0037,-0.1557,0.2795,-0.3558,0.4185,-0.4533c0.9534,-0.6687,1.9231,-1.3154,3.0415,-2.0737c0,1.2434,0.0075,2.3457,-0.0118,3.4474c-0.0019,0.108,-0.149,0.2391,-0.2605,0.3159C10.7559,7.7359,9.656,8.3866,8.5144,9.1603z" fill="#6485C3"/>
  </g>
</svg>
