<?xml version="1.0" encoding="UTF-8"?>
<!DOCTYPE svg PUBLIC "-//W3C//DTD SVG 1.1//EN" "http://www.w3.org/Graphics/SVG/1.1/DTD/svg11.dtd">
<svg version="1.1" id="Layer_1" xmlns="http://www.w3.org/2000/svg" xmlns:xlink="http://www.w3.org/1999/xlink" x="0px" y="0px" width="16px" height="16px" viewBox="0 0 16 16" enable-background="new 0 0 16 16" xml:space="preserve">
  <g id="icon">
    <path d="M5.0503,9.0084c-0.1433,0,-0.2855,-0.0612,-0.3844,-0.1799c-0.1768,-0.2121,-0.1481,-0.5274,0.0641,-0.7042l3,-2.5c0.2121,-0.1768,0.5273,-0.148,0.7042,0.0641c0.1768,0.2121,0.1481,0.5274,-0.0641,0.7042l-3,2.5C5.2766,8.9705,5.1631,9.0084,5.0503,9.0084zM14,8.5V6.4c0,-0.1657,-0.0821,-0.3206,-0.2191,-0.4136c-0.1371,-0.0931,-0.3112,-0.1122,-0.4653,-0.0511c-1.4998,0.5951,-1.8973,1.532,-2.1036,2.4558c-0.0331,0.1481,0.0029,0.3032,0.0978,0.4216C11.4047,8.9311,11.5482,9,11.7,9h1.8C13.7761,9,14,8.7761,14,8.5zM13,7.2283V8h-0.6221C12.5094,7.701,12.6989,7.4474,13,7.2283z" fill="#6485C3"/>
    <path d="M13.6333,8.5h-7.525C4.1707,8.5,0.5,10.0707,0.5,12.0083V13.5h2.1h0.0309c0.2012,0.596,0.7598,1.0254,1.4191,1.0254c0.6593,0,1.218,-0.4294,1.4191,-1.0254h5.1618c0.2012,0.596,0.7598,1.0254,1.4191,1.0254c0.6593,0,1.218,-0.4294,1.4191,-1.0254H13.6h1.9v-3.0333C15.5,9.3805,14.7195,8.5,13.6333,8.5z" fill="#FFFFFF" opacity="0.5"/>
    <path d="M16,14h-2.4v-1h1.4v-2.5333C15,9.658,14.442,9,13.6333,9h-7.525C4.2772,9,1,10.5163,1,12.0083V13h1.6v1H0v-1.9917c0,-1.0575,0.8301,-2.0943,2.3375,-2.9194C3.546,8.4274,5.0262,8,6.1083,8h7.525C14.9935,8,16,9.1065,16,10.4667V14zM10.6,13H5.5v1h5.1V13z" fill="#6D6E71"/>
    <path d="M4.05,15.0254c-1.1028,0,-2,-0.9026,-2,-2.0121s0.8972,-2.0121,2,-2.0121s2,0.9026,2,2.0121S5.1528,15.0254,4.05,15.0254zM4.05,12.0013c-0.5514,0,-1,0.454,-1,1.0121s0.4486,1.0121,1,1.0121s1,-0.454,1,-1.0121S4.6014,12.0013,4.05,12.0013zM12.05,15.0254c-1.1028,0,-2,-0.9026,-2,-2.0121s0.8972,-2.0121,2,-2.0121s2,0.9026,2,2.0121S13.1528,15.0254,12.05,15.0254zM12.05,12.0013c-0.5514,0,-1,0.454,-1,1.0121s0.4486,1.0121,1,1.0121s1,-0.454,1,-1.0121S12.6014,12.0013,12.05,12.0013z" fill="#7B7B7B"/>
  </g>
</svg>
