<?xml version="1.0" encoding="UTF-8"?>
<!DOCTYPE svg PUBLIC "-//W3C//DTD SVG 1.1//EN" "http://www.w3.org/Graphics/SVG/1.1/DTD/svg11.dtd">
<svg version="1.1" id="Layer_1" xmlns="http://www.w3.org/2000/svg" xmlns:xlink="http://www.w3.org/1999/xlink" x="0px" y="0px" width="16px" height="16px" viewBox="0 0 16 16" enable-background="new 0 0 16 16" xml:space="preserve">
  <g id="icon">
    <path d="M3.7728,3.5c-0.3431,0,-0.5255,0.1492,-0.576,0.3984C2.7455,5.5619,1.1055,11.92,0.5664,13.9075c-0.102,0.3267,0.1263,0.5724,0.4382,0.5925c2.3954,0,5.5891,0,6.6404,0c0.1919,0,0.2995,0,0.2995,0c1.0514,0,4.645,0,7.0404,0c0.3119,-0.0202,0.5402,-0.2658,0.4382,-0.5925C14.884,11.92,13.2943,5.5619,12.843,3.8984c-0.0505,-0.2491,-0.6328,-0.3984,-0.976,-0.3984C11.0496,3.5,4.5629,3.5,3.7728,3.5z" fill="#FFFFFF" opacity="0.5"/>
    <path d="M15.0011,15L0.9724,14.999c-0.321,-0.0208,-0.6021,-0.174,-0.7714,-0.4205c-0.1611,-0.2346,-0.2018,-0.5217,-0.115,-0.8096c0.2819,-1.0395,0.8588,-3.2509,1.4168,-5.3897c0.509,-1.9509,0.9899,-3.7941,1.2078,-4.5981C2.8178,3.2916,3.2135,3,3.7728,3h8.0943c0.3589,0,1.3129,0.1406,1.4616,0.7787c0.218,0.8046,0.6886,2.6518,1.1866,4.6069c0.5444,2.1367,1.1072,4.3459,1.3884,5.3833c0.0868,0.2879,0.0461,0.575,-0.115,0.8096c-0.1692,0.2464,-0.4504,0.3997,-0.7714,0.4205L15.0011,15zM1.0594,14h13.8708c-0.2858,-1.0569,-0.8439,-3.2479,-1.384,-5.3675c-0.4829,-1.8957,-0.94,-3.6898,-1.1637,-4.5215c-0.1039,-0.0509,-0.3323,-0.111,-0.5155,-0.111H3.7728c-0.0426,0,-0.0708,0.004,-0.0879,0.0077l-0.0054,0.0216c-0.2148,0.792,-0.6978,2.6428,-1.209,4.6023C1.9172,10.752,1.3454,12.9437,1.0594,14z" fill="#6D6E71"/>
    <path d="M5.8178,3.6877c-0.2186,-0.3882,-0.3204,-0.7616,-0.3204,-1.1752c0,-1.3785,1.1215,-2.5,2.5,-2.5s2.5,1.1215,2.5,2.5c0,0.4107,-0.1006,0.7819,-0.3166,1.1683l-0.8729,-0.4879c0.1345,-0.2407,0.1894,-0.4378,0.1894,-0.6804c0,-0.8271,-0.6729,-1.5,-1.5,-1.5s-1.5,0.6729,-1.5,1.5c0,0.2444,0.0556,0.4427,0.1917,0.6845L5.8178,3.6877z" fill="#6D6E71"/>
    <polygon points="7.4418,7.8654 6.7388,7.1543 5.0008,8.8724 5,7.1998 4,7.2002 4.0009,9.1 4,9.1 4,12 5,12 5,10.33 6.7271,12.05 7.4327,11.3416 5.6857,9.6016" fill="#6D6E71" stroke-linejoin="miter"/>
    <path d="M10.1905,11.9501c-0.3496,0,-0.6717,-0.0552,-0.9574,-0.1642c-0.2974,-0.1134,-0.5548,-0.2806,-0.765,-0.4969c-0.2085,-0.2145,-0.3699,-0.4753,-0.4795,-0.7752c-0.1054,-0.2882,-0.1589,-0.6125,-0.1589,-0.9637c0,-0.3486,0.0528,-0.6715,0.1571,-0.9596c0.1086,-0.3,0.2689,-0.561,0.4765,-0.7758c0.2083,-0.2156,0.4618,-0.3829,0.7532,-0.4974c0.2829,-0.111,0.5999,-0.1673,0.9422,-0.1673c0.1613,0,0.3131,0.0103,0.4514,0.0305c0.1458,0.0214,0.2847,0.0548,0.4129,0.0995c0.1328,0.0463,0.2598,0.1066,0.3777,0.1793c0.1104,0.0682,0.2188,0.1484,0.3221,0.2386l-0.6576,0.7533c-0.062,-0.0542,-0.1258,-0.1015,-0.1895,-0.1408c-0.0563,-0.0347,-0.1174,-0.0637,-0.1818,-0.0861c-0.0685,-0.0239,-0.1455,-0.0422,-0.2287,-0.0543c-0.0902,-0.0132,-0.1935,-0.0199,-0.3065,-0.0199c-0.2168,0,-0.4109,0.033,-0.5768,0.0981c-0.1593,0.0625,-0.29,0.1481,-0.3997,0.2615c-0.1106,0.1144,-0.194,0.2521,-0.2552,0.421c-0.0646,0.1787,-0.0974,0.3871,-0.0974,0.6193c0,0.2336,0.033,0.4423,0.0981,0.6203c0.0618,0.1692,0.146,0.3071,0.2573,0.4216c0.1096,0.1127,0.2417,0.1976,0.4042,0.2596c0.1715,0.0654,0.3738,0.0985,0.6012,0.0985c0.1066,0,0.2076,-0.0076,0.3,-0.0227c0.0927,-0.0151,0.181,-0.0364,0.2626,-0.0634c0.0813,-0.0269,0.1597,-0.0598,0.233,-0.0979c0.0046,-0.0024,0.0093,-0.0048,0.0139,-0.0073V10.2h-0.6V9.2h1.6v2.1073l-0.2205,0.1486c-0.1071,0.0722,-0.2191,0.1388,-0.333,0.1978c-0.1203,0.0624,-0.2479,0.1161,-0.3793,0.1596c-0.1314,0.0435,-0.2714,0.0775,-0.4159,0.1011C10.5059,11.9381,10.3508,11.9501,10.1905,11.9501z" fill="#6D6E71"/>
  </g>
</svg>
