<?xml version="1.0" encoding="UTF-8"?>
<!DOCTYPE svg PUBLIC "-//W3C//DTD SVG 1.1//EN" "http://www.w3.org/Graphics/SVG/1.1/DTD/svg11.dtd">
<svg version="1.1" id="Layer_1" xmlns="http://www.w3.org/2000/svg" xmlns:xlink="http://www.w3.org/1999/xlink" x="0px" y="0px" width="16px" height="16px" viewBox="0 0 16 16" enable-background="new 0 0 16 16" xml:space="preserve">
  <g id="icon">
    <rect y="11" width="16" height="3" fill="#F37980"/>
    <rect y="8" width="16" height="3" fill="#77A2D6"/>
    <rect y="2" width="16" height="6" fill="#F7CE73"/>
    <path d="M7.1453,11.2067c-0.3498,-0.1511,-0.2492,-0.3954,-0.1347,-0.6457c0.0072,-0.0153,-0.0231,-0.0682,-0.038,-0.0687c-0.0352,-0.0022,-0.082,0.0049,-0.1062,0.0278c-0.6121,0.5813,-1.6769,0.3365,-1.892,-0.6653c-0.2101,-0.9805,-0.0968,-1.9697,-0.0847,-2.9562c0.022,-0.0643,0.0093,-0.1309,0.0127,-0.1963c-0.0006,-0.1358,0.0016,-0.2716,-0.0017,-0.4079c-0.0137,-0.0818,-0.0506,-0.1674,0.0385,-0.2312c0.1545,0.0933,0.3085,0.1865,0.4631,0.2798c0.0258,-0.2301,0.049,-0.4603,0.0798,-0.6893c0.0088,-0.0649,0.039,-0.1271,0.0599,-0.1903l-0.0038,-0.0038c0.2063,0.2318,0.3036,0.2416,0.3294,0.4553c-0.1842,0.2121,0.0022,0.4374,-0.0215,0.6566c-0.2415,0.5917,-0.1215,1.2063,-0.104,1.8105c0.0116,0.3932,0.0275,0.7945,0.2255,1.1594c0.0726,0.1336,0.1782,0.2416,0.2447,0.3752c0.0231,0.0698,0.0049,0.12,-0.11,0.1609c0.2282,-0.0442,0.2761,0.2787,0.501,0.1718c0.2382,0.0196,0.473,0.0747,0.7046,-0.0643c0.1166,-0.0698,0.2041,0.0218,0.2376,0.15c0.0275,0.2089,0.0352,0.4161,-0.0324,0.6168C7.4549,11.1232,7.3516,11.2437,7.1453,11.2067z" fill="#F6CB25"/>
    <path d="M8.8443,11.2067c0.3498,-0.1511,0.2492,-0.3954,0.1347,-0.6457c-0.0072,-0.0153,0.0231,-0.0682,0.038,-0.0687c0.0352,-0.0022,0.082,0.0049,0.1062,0.0278c0.6121,0.5813,1.677,0.3365,1.892,-0.6653c0.2101,-0.9805,0.0968,-1.9697,0.0847,-2.9562c-0.022,-0.0643,-0.0093,-0.1309,-0.0126,-0.1963c0.0005,-0.1358,-0.0017,-0.2716,0.0016,-0.4079c0.0138,-0.0818,0.0506,-0.1674,-0.0385,-0.2312c-0.1546,0.0933,-0.3086,0.1865,-0.4631,0.2798c-0.0258,-0.2301,-0.0489,-0.4603,-0.0797,-0.6893c-0.0088,-0.0649,-0.0391,-0.1271,-0.06,-0.1903l0.0039,-0.0038c-0.2063,0.2318,-0.3036,0.2416,-0.3295,0.4553c0.1843,0.2121,-0.0022,0.4374,0.0215,0.6566c0.2414,0.5917,0.1215,1.2063,0.1039,1.8105c-0.0116,0.3932,-0.0275,0.7945,-0.2255,1.1594c-0.0726,0.1336,-0.1782,0.2416,-0.2447,0.3752c-0.0231,0.0698,-0.0049,0.12,0.11,0.1609c-0.2282,-0.0442,-0.2761,0.2787,-0.501,0.1718c-0.2382,0.0196,-0.473,0.0747,-0.7046,-0.0643c-0.1166,-0.0698,-0.2041,0.0218,-0.2376,0.15c-0.0275,0.2089,-0.0352,0.4161,0.0324,0.6168C8.5346,11.1232,8.638,11.2437,8.8443,11.2067z" fill="#F6CB25"/>
    <path d="M6.1036,10.0647c-0.8014,-0.9696,-0.3833,-2.1933,-0.462,-3.2883c-0.0071,-0.0965,0.2222,-0.0905,0.1491,-0.2519c0.0044,-0.1412,-0.0798,-0.6299,0.1188,-0.6157c0.0787,0.0055,0.22,0.1636,0.3058,0.2634c0.0165,0.0158,0.033,0.0316,0.0495,0.048c0.0165,0.0382,0.0534,0.054,0.083,0.078c0.0181,0.0229,0.027,0.0518,0.044,0.0753c0.0044,0.0404,0.0094,0.0802,0.0138,0.1205c0,0.0158,0.0039,0.0338,-0.0028,0.0469c-0.3074,0.6489,-0.1452,1.3295,-0.1303,1.9992c0.0066,0.3021,0.1315,0.5857,0.1573,0.8851c-0.0374,0.0436,0.259,0.4788,0.2805,0.5426c0.0236,0.0703,0.2431,0.4123,-0.1501,0.4761C6.4924,10.4552,6.1234,10.1547,6.1036,10.0647z" fill="#77A2D6"/>
    <path d="M7.4924,10.3047c-0.0412,0.3299,0.1177,0.7384,-0.347,0.902c-0.0803,0.2645,0.0319,0.4668,0.2497,0.3735c0.016,-0.0071,0.0561,0.0027,0.0858,0.0251c0.4301,-0.3256,0.1793,-0.8136,0.2849,-1.2172C7.6507,10.2654,7.615,10.254,7.4924,10.3047z" fill="#77A2D6"/>
    <path d="M9.4454,10.4443c-0.3933,-0.0638,-0.1738,-0.4057,-0.1502,-0.4761c0.0215,-0.0638,0.3185,-0.4995,0.2805,-0.5426c0.0258,-0.2988,0.1507,-0.5824,0.1573,-0.8851c0.0148,-0.6697,0.1771,-1.3502,-0.1303,-1.9992c-0.0061,-0.0131,-0.0022,-0.0311,-0.0028,-0.0469c0.0044,-0.0404,0.0093,-0.0802,0.0138,-0.1205c0.017,-0.024,0.0258,-0.0524,0.044,-0.0753c0.0297,-0.024,0.0665,-0.0398,0.083,-0.078c0.0165,-0.0158,0.033,-0.0316,0.0495,-0.048c0.0858,-0.0998,0.2271,-0.2579,0.3058,-0.2634c0.1985,-0.0142,0.1144,0.4744,0.1188,0.6157c-0.0732,0.1614,0.1562,0.1554,0.1491,0.2519c-0.0786,1.095,0.3393,2.3187,-0.462,3.2883C9.8838,10.1547,9.5153,10.4552,9.4454,10.4443z" fill="#77A2D6"/>
    <path d="M8.2414,10.3881c0.1056,0.403,-0.1452,0.8911,0.2849,1.2172c0.0297,-0.0224,0.0699,-0.0322,0.0858,-0.0251c0.2178,0.0933,0.33,-0.1091,0.2497,-0.3735c-0.4647,-0.1636,-0.3058,-0.572,-0.347,-0.902C8.3927,10.254,8.3564,10.2654,8.2414,10.3881z" fill="#77A2D6"/>
    <path d="M8,11.9009c-0.0693,-0.0065,-0.1392,0.0044,-0.22,0.0611c-0.1815,0.1271,-0.4428,-0.1592,-0.2992,-0.3566c0.1886,-0.2852,0.1457,-0.6206,0.1985,-0.9352c0.0143,-0.0851,0.0088,-0.174,0.0468,-0.2552c0.0374,-0.0785,0.1122,-0.0474,0.1722,-0.0594c0.0341,-0.0371,0.0676,-0.0742,0.1018,-0.1118L8,11.9009L8,11.9009z" fill="#C1565B"/>
    <path d="M6.443,9.5123c0.0434,0.18,0.0572,0.2078,0.1342,0.3087c0.0275,0.0365,-0.017,0.0911,0.0341,0.1189c0.2547,-0.0065,0.5076,0.0027,0.7485,0.102c0.0363,0,0.0709,-0.0087,0.1023,-0.0278c0.0093,-0.0076,0.0187,-0.0153,0.028,-0.0229c0.0072,-0.0098,0.0149,-0.0191,0.022,-0.0284c0.0105,-0.0218,0.1826,-0.0442,0.1848,-0.0682c-0.0011,-0.012,0.0534,-0.0234,0.0522,-0.0354c-0.0291,-0.0458,0.0682,-0.1511,0.0308,-0.1881c-0.9988,-0.9876,-1.5097,-1.7227,-1.0697,-3.1105c-0.1012,-0.0224,-0.2024,-0.0447,-0.3036,-0.0671c-0.0984,0.1287,-0.2816,0.2678,-0.2794,0.3839c0.0132,0.7307,-0.1392,1.6589,0.2772,2.581C6.4077,9.484,6.4374,9.49,6.443,9.5123z" fill="#C1565B"/>
    <path d="M7.9807,10.2441c0.0341,0.0371,0.0676,0.0742,0.1018,0.1118c0.06,0.012,0.1348,-0.0191,0.1722,0.0594c0.038,0.0813,0.0325,0.1701,0.0468,0.2552c0.0528,0.3147,0.0099,0.65,0.1985,0.9352c0.1436,0.1974,-0.1177,0.4837,-0.2992,0.3566c-0.0809,-0.0567,-0.1507,-0.0676,-0.22,-0.0611L7.9807,10.2441L7.9807,10.2441z" fill="#C1565B"/>
    <path d="M9.5757,9.4594c0.4169,-0.9216,0.264,-1.8503,0.2772,-2.581c0.0022,-0.1162,-0.181,-0.2552,-0.2794,-0.3839c-0.1012,0.0224,-0.2024,0.0447,-0.3036,0.0671c0.4405,1.3879,-0.0704,2.123,-1.0698,3.1105c-0.0374,0.0365,0.0605,0.1418,0.0308,0.1881c-0.0011,0.012,0.0534,0.0234,0.0522,0.0354c0.0022,0.024,0.1743,0.0464,0.1848,0.0682c0.0072,0.0093,0.0149,0.0191,0.022,0.0284c0.0094,0.0076,0.0187,0.0153,0.0281,0.0229c0.0313,0.0191,0.066,0.0278,0.1023,0.0278c0.2409,-0.0993,0.4939,-0.1085,0.7486,-0.102c0.0511,-0.0278,0.0061,-0.0823,0.0341,-0.1189c0.077,-0.1009,0.0907,-0.1287,0.1342,-0.3087C9.5433,9.49,9.573,9.484,9.5757,9.4594z" fill="#C1565B"/>
    <path d="M8.9856,10.4236H6.8983c-0.1661,0,-0.3025,-0.1347,-0.3025,-0.2999v-0.0213c0,-0.1647,0.1358,-0.2999,0.3025,-0.2999h2.0873c0.1661,0,0.3025,0.1347,0.3025,0.2999v0.0213C9.2881,10.2883,9.1517,10.4236,8.9856,10.4236z" fill="#91512B"/>
    <path d="M8.9955,8.335c-0.2596,-0.0753,-0.5412,-0.0878,-0.764,-0.2699c-0.116,-0.1434,-0.2596,-0.1254,-0.4043,-0.0638c-0.1182,0.0502,-0.1936,0.1336,-0.1474,0.2776c-0.1457,0.1614,-0.3514,0.1369,-0.5373,0.1701c-0.1518,0.0273,-0.3146,0.0207,-0.4136,0.1734c0.2051,0.5584,1.0444,1.0699,1.5631,0.9521c0.2029,-0.012,0.863,-0.6495,0.9856,-1.0956C9.2139,8.371,9.1,8.365,8.9955,8.335z" fill="#5C7B95"/>
    <path d="M6.5909,7.6233c-0.0011,-0.211,0.0203,-0.4161,0.1441,-0.596c0.2129,-0.2639,0.5016,-0.3697,0.8239,-0.4063c0.0781,0.0207,0.1259,0.0911,0.1952,0.1254c0.1546,0.0763,0.3107,0.1909,0.4488,-0.0333c0.0324,-0.0529,0.1039,-0.066,0.1683,-0.0747c0.3449,-0.0327,0.6083,0.1358,0.8536,0.3485c0.1655,0.3212,0.0896,0.668,0.1072,1.0056c-0.0165,0.0376,-0.0467,0.0747,-0.083,0.0736c-0.231,-0.0055,-0.4493,0.1009,-0.6814,0.0725c-0.0929,-0.0305,-0.1326,-0.1282,-0.2134,-0.174c-0.0198,-0.0104,-0.0385,-0.0224,-0.0572,-0.0349c-0.3833,-0.1276,-0.7172,-0.3457,-1.0439,-0.5786c-0.1336,-0.0954,-0.2503,-0.0633,-0.3481,0.0622C6.7988,7.481,6.7735,7.6718,6.5909,7.6233z" fill="#77A2D6"/>
    <path d="M8.6491,8.1934c-0.0289,0,-0.0581,-0.0016,-0.0875,-0.0052c-0.0744,-0.0234,-0.1167,-0.0694,-0.1541,-0.1101c-0.0255,-0.0277,-0.0495,-0.0538,-0.0779,-0.0699c-0.0181,-0.0094,-0.0364,-0.0209,-0.0547,-0.0331c-0.4057,-0.1363,-0.755,-0.3724,-1.0507,-0.5832c-0.1048,-0.0748,-0.1937,-0.0581,-0.2798,0.0522l-0.0125,0.0114c-0.0279,0.0178,-0.0512,0.0501,-0.0758,0.0843c-0.0524,0.0728,-0.124,0.1723,-0.2779,0.1317l-0.037,-0.0099l-0.0002,-0.0382c-0.0011,-0.1974,0.0163,-0.426,0.1529,-0.6246c0.2005,-0.2489,0.4729,-0.3838,0.8595,-0.4276l0.0093,-0.0011l0.0091,0.0024c0.056,0.0148,0.0978,0.0491,0.1347,0.0793c0.0237,0.0194,0.0461,0.0378,0.07,0.0497c0.016,0.0079,0.032,0.0162,0.0481,0.0245c0.1552,0.0805,0.2407,0.1155,0.3359,-0.0392c0.0471,-0.0768,0.1454,-0.0901,0.2042,-0.0981c0.38,-0.0362,0.6643,0.1619,0.8931,0.3603l0.0117,0.0149c0.1252,0.2429,0.1188,0.4985,0.1126,0.7457c-0.0023,0.0924,-0.0047,0.1879,0.0001,0.2802l0.0006,0.0118l-0.0047,0.0108c-0.0292,0.0664,-0.0792,0.1021,-0.1303,0.1036c-0.0988,-0.0027,-0.1957,0.017,-0.298,0.0376C8.8523,8.1733,8.7524,8.1934,8.6491,8.1934zM7.1028,7.2458c0.0583,0,0.1188,0.0215,0.1793,0.0647c0.3614,0.2577,0.675,0.4536,1.0306,0.5719l0.0121,0.006c0.0171,0.0115,0.0343,0.0226,0.0525,0.0321c0.0436,0.0246,0.0741,0.0579,0.1037,0.09c0.0333,0.0362,0.0621,0.0675,0.1021,0.0807c0.1089,0.0125,0.2246,-0.0108,0.3467,-0.0354c0.1032,-0.0208,0.2109,-0.0423,0.3204,-0.0396c0.006,0.0004,0.0186,-0.0098,0.0313,-0.0338c-0.0042,-0.092,-0.0019,-0.185,0.0004,-0.2751c0.0061,-0.2422,0.0118,-0.4712,-0.0972,-0.6889c-0.2217,-0.1912,-0.4734,-0.3615,-0.8087,-0.3301c-0.0513,0.007,-0.1098,0.0175,-0.1304,0.0511c-0.1485,0.2411,-0.3327,0.1454,-0.4671,0.0756c-0.0155,-0.008,-0.031,-0.016,-0.0464,-0.0237c-0.0342,-0.0169,-0.0621,-0.0398,-0.0891,-0.0619c-0.0293,-0.024,-0.0571,-0.0468,-0.0886,-0.0575c-0.3533,0.0418,-0.6015,0.1649,-0.7805,0.3868c-0.1097,0.1598,-0.1312,0.3441,-0.1329,0.5224c0.0564,0.0016,0.0877,-0.0354,0.1338,-0.0995c0.0274,-0.0381,0.0557,-0.0774,0.0958,-0.1054C6.9403,7.2896,7.0195,7.2458,7.1028,7.2458z" fill="#77A2D6"/>
    <path d="M7.0501,6.6777c0.1633,-0.0949,0.3421,-0.1472,0.5187,-0.2078c0.2568,-0.1412,0.5137,-0.2639,0.7782,-0.0175c0.011,0.0104,0.028,0.0131,0.0429,0.0175c0.2205,0.0414,0.4059,0.1958,0.6369,0.2045c-0.0099,-0.0496,-0.011,-0.1036,-0.0319,-0.1478c-0.3685,-0.7749,-1.8255,-0.7711,-2.1604,0.1794C6.9148,6.7639,6.9847,6.7159,7.0501,6.6777z" fill="#77A2D6"/>
    <path d="M6.9111,6.7832c-0.0333,0,-0.0688,-0.0099,-0.1058,-0.0366l-0.0304,-0.0219l0.0125,-0.0353c0.1576,-0.4472,0.5827,-0.7422,1.1094,-0.7699c0.5115,-0.0263,0.9613,0.2029,1.1434,0.5856c0.0177,0.0375,0.0233,0.0772,0.0288,0.1156c0.0021,0.0148,0.0041,0.0295,0.007,0.0439l0.0124,0.0621l-0.0633,-0.0024c-0.1397,-0.0053,-0.2618,-0.0592,-0.3798,-0.1114c-0.0894,-0.0396,-0.1739,-0.0769,-0.2645,-0.0939l-0.0123,-0.0032c-0.0158,-0.0042,-0.0375,-0.0099,-0.0556,-0.027c-0.2319,-0.2161,-0.4539,-0.1213,-0.7199,0.0249l-0.0918,0.0318c-0.1505,0.0504,-0.2926,0.098,-0.4258,0.1754l-0.0117,0.0069C7.0215,6.7526,6.9696,6.7832,6.9111,6.7832zM6.8973,6.6813c0.0312,0.0065,0.064,-0.0093,0.1155,-0.0396l0.0122,-0.0072c0.142,-0.0825,0.2957,-0.134,0.4443,-0.1838l0.0833,-0.0281c0.2169,-0.1201,0.525,-0.2895,0.8286,-0.0067c0.0007,0,0.008,0.002,0.0128,0.0033l0.01,0.0027c0.0972,0.018,0.1909,0.0595,0.2816,0.0996c0.0948,0.0419,0.1852,0.0819,0.2819,0.097c-0.0039,-0.0263,-0.0084,-0.0508,-0.0178,-0.0705c-0.1646,-0.3459,-0.5755,-0.5542,-1.0478,-0.5286C7.5325,6.0389,7.0805,6.2236,6.8973,6.6813z" fill="#77A2D6"/>
    <path d="M7.7624,8.2761c-0.0836,0.2716,-0.3421,0.1674,-0.5175,0.2356c-0.1622,0.0627,-0.3432,0.0758,-0.5159,0.1107c-0.1243,-0.3223,-0.1606,-0.6566,-0.138,-0.999c0.0918,-0.0851,0.1837,-0.1696,0.2755,-0.2547c0.0154,-0.0065,0.0385,-0.0125,0.044,-0.0033c0.1193,0.199,0.2338,0.4019,0.4702,0.4848C7.3153,8.1681,7.6243,8.1441,7.7624,8.2761z" fill="#63BF80"/>
    <path d="M9.3321,7.9919c-0.2701,0.0289,-0.5401,0.0573,-0.8101,0.0862c-0.0754,-0.0289,-0.1293,-0.0889,-0.1914,-0.1358c-0.1023,-0.0027,-0.1182,0.1031,-0.1815,0.1489c0.3267,0.277,0.7535,0.2579,1.1297,0.3877C9.2958,8.3164,9.3139,8.1539,9.3321,7.9919z" fill="#63BF80"/>
    <path d="M8.3377,7.944c-0.0825,0.0234,-0.0418,0.2094,-0.1897,0.1472c-0.1001,-0.1396,-0.2084,-0.0813,-0.3305,-0.0273c-0.1232,0.0545,-0.1028,0.1243,-0.0555,0.2121c-0.1859,-0.0605,-0.3718,-0.1211,-0.6116,-0.1996c0.0957,-0.0605,0.1743,-0.1102,0.3207,-0.2029c-0.4334,0.0109,-0.5209,-0.2459,-0.605,-0.505c0.2514,-0.3692,0.4191,-0.0327,0.6182,0.072c0.2893,0.1527,0.5825,0.2983,0.874,0.4472c0.0093,0.0147,0.0104,0.0294,0.0006,0.0447C8.352,7.9358,8.3449,7.9401,8.3377,7.944z" fill="#FBFDFB"/>
    <path d="M6.735,7.0267c0.2673,-0.1581,0.5269,-0.3326,0.8448,-0.373c0.0341,0.0333,0.0951,0.0038,0.088,-0.0038c-0.0671,-0.0643,0.1045,-0.2121,-0.0786,-0.2263c-0.2514,0.0943,-0.5027,0.1881,-0.7541,0.2825C6.8016,6.813,6.768,6.9198,6.735,7.0267z" fill="#FBFDFB"/>
    <path d="M8.3845,6.4252c0.2145,0.0829,0.4284,0.1663,0.6429,0.2492c0.066,0.1042,0.132,0.2078,0.1975,0.3119c-0.2904,-0.1058,-0.5346,-0.3474,-0.8756,-0.301C8.2624,6.5768,8.2772,6.4678,8.3845,6.4252z" fill="#FBFDFB"/>
    <path d="M8.3845,6.4252c-0.0121,0.0867,-0.0236,0.1734,-0.0357,0.2601c-0.2678,0.271,-0.5258,0.3119,-0.7689,-0.0316c0.0027,-0.0769,0.006,-0.1532,0.0088,-0.2301C7.8543,6.1891,8.1199,6.1378,8.3845,6.4252z" fill="#F6CB25"/>
    <path d="M8.2228,8.9572c-0.231,0.0404,-0.4637,0.0736,-0.742,0.1178c0.17,0.0573,0.666,0.1167,0.7618,0.211l-0.0011,-0.0011C8.2849,9.2806,8.6474,8.8836,8.2228,8.9572z" fill="#F6CB25"/>
    <path d="M8.0104,9.9377c-0.933,0,-1.692,-0.995,-1.692,-2.2179s0.759,-2.2179,1.692,-2.2179s1.692,0.995,1.692,2.2179S8.9435,9.9377,8.0104,9.9377zM8.0104,6.1019c-0.5919,0,-1.092,0.7409,-1.092,1.6179s0.5001,1.6179,1.092,1.6179s1.092,-0.7409,1.092,-1.6179S8.6024,6.1019,8.0104,6.1019z" fill="#B5B4B5"/>
    <path d="M8.6001,4.0798c-0.0841,0.0365,-0.1909,0.168,-0.1843,0.2465c0.0154,0.1898,-0.0077,0.2967,-0.055,0.3528c-0.0968,-0.0834,-0.2222,-0.1342,-0.3608,-0.1342s-0.264,0.0507,-0.3608,0.1342c-0.0473,-0.0562,-0.0709,-0.1631,-0.055,-0.3528c0.0066,-0.0791,-0.1001,-0.21,-0.1843,-0.2465C6.7559,3.8006,5.1736,4.2941,4.7,4.9419c0.4532,0,0.9136,-0.1123,1.2826,0.0251c0.5088,0.1892,0.9938,0.2378,1.4685,0.1014c-0.0005,0.0071,-0.0011,0.0142,-0.0011,0.0218c0,0.301,0.2464,0.5453,0.55,0.5453s0.55,-0.2443,0.55,-0.5453c0,-0.0071,-0.0005,-0.0147,-0.0011,-0.0218c0.4747,0.1363,0.9597,0.0878,1.4685,-0.1014c0.3691,-0.1374,0.8294,-0.0251,1.2826,-0.0251C10.8264,4.2941,9.2436,3.8006,8.6001,4.0798z" fill="#7C7B7A"/>
    <path d="M16,14H0V2h16V14zM1,13h14V3H1V13z" fill="#211F20" opacity="0.20"/>
  </g>
</svg>
