<?xml version="1.0" encoding="UTF-8"?>
<!DOCTYPE svg PUBLIC "-//W3C//DTD SVG 1.1//EN" "http://www.w3.org/Graphics/SVG/1.1/DTD/svg11.dtd">
<svg version="1.1" id="Layer_1" xmlns="http://www.w3.org/2000/svg" xmlns:xlink="http://www.w3.org/1999/xlink" x="0px" y="0px" width="16px" height="16px" viewBox="0 0 16 16" enable-background="new 0 0 16 16" xml:space="preserve">
  <g id="icon">
    <path d="M0,2h16v12H0V2z" fill="#77A2D6"/>
    <path d="M8,2.721L6.361,4.25H8v1.5H6.281L8,7.329V8h-0.894L4.8,5.921V8H3.2V6.021L0.894,8H0l0,0v-0.671L1.772,5.75H0v-1.5h1.639L0,2.671V2h0.894L3.2,4.079V2h1.6v2.079L7.106,2H8V2.721z" fill="#FFFFFF"/>
    <polygon points="2.48,4.25 0,2 0.596,2 3.076,4.25" fill="#F37980" stroke-linejoin="miter"/>
    <polygon points="4.924,5.75 7.404,8 8,8 5.52,5.75" fill="#F37980" stroke-linejoin="miter"/>
    <polygon points="2.667,5.75 0,8 0,7.553 2.07,5.75" fill="#F37980" stroke-linejoin="miter"/>
    <polygon points="5.467,4.25 6.063,4.25 8,2.497 8,2" fill="#F37980" stroke-linejoin="miter"/>
    <polygon points="4.533,4.5 8,4.5 8,5.5 4.533,5.5 4.533,8 3.467,8 3.467,5.5 0,5.5 0,4.5 3.467,4.5 3.467,2 4.534,2 4.534,4.5" fill="#F37980" stroke-linejoin="miter"/>
    <path d="M9.5,6h4.998v3.513c0.05,1.41,-0.85,2.301,-2.474,2.697c-1.175,-0.297,-2.499,-0.866,-2.499,-2.647L9.5,6" fill="#FFFFFF"/>
    <path d="M10.125,6.625h3.748v2.798c0.039,1.132,-0.628,1.831,-1.864,2.14c-0.883,-0.226,-1.884,-0.699,-1.884,-2.098V6.625" fill="#76B6CA"/>
    <path d="M10.164,9.773c0.177,1.193,1.04,1.564,1.845,1.79c0.922,-0.247,1.707,-0.72,1.845,-1.79H10.164" fill="#F37980"/>
    <polyline points="11.852,7.139 11.852,6.79 12.127,6.79 12.127,7.139 12.853,7.139 12.853,7.407 12.127,7.407 12.127,10.637 11.872,10.637 11.872,7.407 11.145,7.407 11.145,7.119 11.852,7.139" fill="#7C7B7A" stroke-linejoin="miter"/>
    <path d="M11.636,9.032c-0.177,0.082,-0.157,0.411,-0.392,0.514c-0.216,0.103,-0.314,0.514,-0.02,0.391c0.02,0.062,0.687,1.029,0.765,0.967C12.48,10.616,12.186,9.073,11.636,9.032" fill="#F8A580"/>
    <path d="M11.93,10.616c-0.137,-0.165,-0.765,-0.864,-0.785,-0.843c0.02,0.021,0.51,-0.473,0.549,-0.597C12.029,9.382,12.205,10.308,11.93,10.616" fill="#F8A580"/>
    <path d="M12.794,9.711c0.02,-0.247,-0.02,-0.473,-0.078,-0.576c-0.059,-0.103,-0.059,-0.247,-0.157,-0.411c0.059,0.021,0.098,-0.123,0.118,-0.309c0,-0.103,0,-0.165,0.02,-0.35c0.02,-0.165,-0.039,-0.226,-0.078,-0.267c-0.039,-0.041,-0.059,-0.041,-0.078,-0.041c-0.059,-0.021,-0.196,0,-0.236,0c-0.039,0,-0.059,0.021,-0.098,0c-0.039,-0.021,-0.059,0.021,-0.098,0.062v2.037c0.02,0.185,-0.039,0.576,-0.137,0.843c-0.039,0.103,-0.02,0.165,0.039,0.185c0.236,0.165,0.392,0,0.549,-0.144c0.059,-0.041,0.078,-0.041,0.157,0.021c0.059,0.082,0.137,0.103,0.177,0.082C12.715,10.493,12.774,9.958,12.794,9.711" fill="#63BF80"/>
    <path d="M12.205,7.633c-0.118,-0.062,0.078,-0.391,0.177,-0.411c0.314,0,0.039,0.329,0.118,0.453c0.118,0.165,-0.118,0.144,-0.196,0.267C12.205,7.777,12.382,7.736,12.205,7.633" fill="#FFFFFF"/>
    <path d="M11.616,8.106c0.177,-0.021,0.294,0.062,0.235,-0.206c-0.334,0,0.137,-0.597,0.098,-0.699C11.832,6.975,11.361,8.147,11.616,8.106" fill="#FFFFFF"/>
    <path d="M12.657,8.127c0,-0.041,-0.55,0.432,-0.648,0.494c0.059,-0.041,-0.667,0.494,-0.412,0.535c0.098,0.021,0.177,-0.144,0.235,-0.226C12.068,8.518,12.657,8.888,12.657,8.127" fill="#FFFFFF"/>
    <path d="M12.774,10.863c-0.02,-0.103,-0.098,-0.165,-0.177,-0.103c0.02,0.103,-0.098,0.35,-0.039,0.391C12.637,11.233,12.794,10.945,12.774,10.863" fill="#FFFFFF"/>
    <path d="M11.95,10.966c0.039,0.041,0.098,0.041,0.157,-0.021c-0.02,0,-0.059,-0.021,-0.078,-0.041C12.009,10.925,11.97,10.966,11.95,10.966" fill="#FFFFFF"/>
    <path d="M12.264,7.304c0.039,-0.288,0.51,0.123,0.432,0.309C12.558,7.88,12.323,7.201,12.264,7.304" fill="#F8A580"/>
    <path d="M16,14H0V2h16V14zM1,13h14V3H1V13z" fill="#211F20" opacity="0.20"/>
  </g>
</svg>
