<?xml version="1.0" encoding="UTF-8"?>
<!DOCTYPE svg PUBLIC "-//W3C//DTD SVG 1.1//EN" "http://www.w3.org/Graphics/SVG/1.1/DTD/svg11.dtd">
<svg version="1.1" id="Layer_1" xmlns="http://www.w3.org/2000/svg" xmlns:xlink="http://www.w3.org/1999/xlink" x="0px" y="0px" width="16px" height="16px" viewBox="0 0 16 16" enable-background="new 0 0 16 16" xml:space="preserve">
  <g id="icon">
    <path d="M0,2h16v12H0V2z" fill="#F37980"/>
    <path d="M0,2h16L0,14V2z" fill="#F7CE73"/>
    <path d="M13.9839,4.5869c-0.1565,0.0099,-0.2398,0.1174,-0.3337,0.1174s-0.167,0,-0.167,0s0.1353,-0.176,0.2089,-0.2248c0.0727,-0.049,0.3438,-0.0684,0.4068,-0.1174c0.0622,-0.049,0.0727,-0.1174,0.0727,-0.1174c-0.1358,0.088,-0.4487,0.0391,-0.5837,0.0684c-0.1353,0.0293,-0.2508,0.1664,-0.2508,0.1664s0.1565,-0.2936,0.1983,-0.4209c0.0415,-0.1271,0.0415,-0.3422,0.2085,-0.4595c0.1667,-0.1174,0.0626,-0.2643,0.0626,-0.2643s-0.0419,0.0979,-0.1565,0.186c-0.1146,0.088,-0.2296,0.0783,-0.2191,0.2446c0.0106,0.1661,0.0208,0.1661,-0.0626,0.2444c-0.0833,0.0783,-0.0833,0.0585,-0.2191,0.274c-0.1357,0.2151,-0.1983,-0.0097,-0.4906,0.088c-0.2922,0.0979,-0.4279,-0.1762,-0.6572,-0.1467c-0.2292,0.0293,-0.7722,-0.0686,-0.9909,-0.137c-0.2195,-0.0686,-0.1044,-0.1566,-0.6369,-0.3911c-0.5316,-0.2349,-0.8661,-0.0099,-0.6572,-0.0198c0.103,-0.0048,0.2618,0.0334,0.3964,0.0732c-0.1676,-0.0113,-0.3025,0.054,-0.3025,0.054s0.2922,0.0781,0.532,0.2738c0.2398,0.1959,0,0.1762,-0.313,0c-0.3129,-0.176,-0.6466,-0.2151,-0.9287,-0.1858c-0.2817,0.0293,-0.2085,0.1174,-0.052,0.1074c0.1565,-0.0097,0.5113,0.0882,0.7934,0.186c0.2812,0.0979,-0.0211,0.1176,-0.0211,0.1176c-0.6158,-0.3426,-0.8869,-0.0686,-0.7202,-0.1275c0.1674,-0.0587,0.3549,0.0785,0.6471,0.2252c0.2922,0.1467,-0.417,0.0587,-0.417,0.0587s-0.3236,-0.1271,-0.6369,-0.1564c-0.313,-0.0293,-0.5528,0.2543,-0.4487,0.3912c0.1044,0.1368,0.3024,0.0585,0.3024,0.0585c-0.2244,-0.0609,-0.1565,-0.2151,-0.0102,-0.2541c0.1459,-0.0391,0.7097,0.0979,0.8661,0.1566c0.1565,0.0585,0.2191,0.2837,-0.2085,0.0975c-0.428,-0.1858,-0.2715,0.0295,-0.2715,0.0295c-0.4174,-0.0295,0.1878,0.225,-0.0731,0.1566c-0.2609,-0.0688,-0.5633,0.0292,-0.8137,0.0292c-0.2503,0,-0.3442,0.2545,-0.3442,0.2545s0.1459,-0.0783,0.3286,-0.1372c0.1827,-0.0587,0.6936,0.0589,0.6936,0.0589c-0.2085,0.1956,-0.1983,0.5576,-0.1983,0.5576c-0.2189,0.0488,-0.4274,0.4205,-0.4274,0.4205c0.0833,-0.1272,0.3753,-0.1663,0.3753,-0.1663s0.052,0.1076,-0.0833,0.2642c-0.1358,0.1562,-0.0939,0.3519,-0.0939,0.3519s0.0626,-0.1562,0.1463,-0.2345c0.0829,-0.0785,0.2918,-0.0686,0.2918,-0.0686c-0.0939,0.2054,0.261,0.3326,0.261,0.3326c-0.1045,0.1758,0.0943,0.3717,0.0626,0.362c-0.0309,-0.0099,-0.3654,0.0975,-0.3654,0.0975s0.4597,0.0099,0.2191,0.0688c-0.2398,0.0585,-0.6779,-0.1763,-0.6779,-0.1763l-0.5111,-0.2153c0,0,0.2191,0.1959,-0.0313,0.1663c-0.2506,-0.0293,-0.5009,0.088,-0.72,-0.0487c-0.219,-0.1372,-0.5844,-0.2155,-0.5113,-0.0882c0.073,0.1273,0.1774,0.2543,0.1774,0.2543c-0.3965,-0.0783,-0.1983,0.2542,-0.4903,0.2252c-0.2922,-0.0295,-0.0522,0.2345,-0.3337,0.1562c-0.2819,-0.0783,-0.5531,0.2153,-0.5531,0.2153c0.0939,-0.049,0.3962,0.0293,0.3962,0.0293c-0.1146,0.0391,-0.0624,0.2439,-0.0624,0.2439c-0.2713,0.0678,-0.1983,0.4508,-0.1983,0.4508c-0.2294,0,-0.2711,0.1463,-0.3652,0.2442c-0.0937,0.0979,-0.313,0.0979,-0.313,0.0979c0.1532,0.1115,0.4552,0.0355,0.563,0.0032c-0.0988,0.0603,-0.083,0.3294,-0.083,0.3294c-0.1878,0.0293,-0.0209,0.2934,-0.0626,0.2641c-0.0419,-0.0294,-0.1459,0.0392,-0.2504,0.1173c-0.1044,0.0785,-0.24,0.0979,-0.24,0.0979c0.0729,0.088,0.24,0.098,0.24,0.098s-0.1254,0.2248,-0.2819,0.274c-0.1565,0.0483,-0.5946,0.1463,-0.7094,0.1562c-0.1148,0.0099,-0.3652,0,-0.5946,-0.0587c-0.2294,-0.0587,-0.4696,0,-0.6574,-0.0198c-0.1878,-0.0195,-0.3026,0.1566,-0.3026,0.1566s0.1565,-0.0488,0.292,-0.0194c0.1358,0.0293,0.1774,0.1467,0.3235,0.088c0.1461,-0.0587,0.4487,0.0785,0.4487,0.0785s-0.1042,0.0583,-0.2504,0.1075c-0.1459,0.0487,-0.3445,0.107,-0.5113,0.1368c-0.1668,0.0293,-0.3652,0.2545,-0.2294,0.1467c0.1355,-0.1074,0.2189,-0.0194,0.4066,-0.0492c0.1882,-0.0294,0.3654,-0.0389,0.3654,-0.0389s-0.125,0,-0.2191,0.1075c-0.0941,0.1078,-0.3548,0.2058,-0.5009,0.2058c-0.1459,0,-0.3859,0.0686,-0.5217,0.2347c-0.1358,0.1665,-0.3026,0.1958,-0.3026,0.1958s0.1045,0.1075,0.2609,0c0.1565,-0.1078,0.188,-0.1566,0.4174,-0.1958c0.2294,-0.0393,0.4694,-0.1173,0.4694,-0.1173c-0.1252,0.0979,-0.1981,0.2153,-0.4068,0.2442c-0.2087,0.0298,-0.5322,0.2641,-0.6574,0.3814c-0.1252,0.1173,-0.3443,0.2058,-0.3443,0.2058c0.2085,0.1174,0.313,-0.0294,0.532,-0.1467c0.2193,-0.1174,0.3341,-0.0393,0.5948,-0.1078c0.2607,-0.0686,0.2294,-0.2736,0.3127,-0.2835c0.0835,-0.0095,0.3028,0,0.3654,-0.0979c0.0626,-0.0975,0.0209,-0.1756,0.1774,-0.1756c0.1563,0,0.2189,-0.0686,0.2189,-0.0686c-0.0626,0.1269,-0.2189,0.2348,-0.2189,0.2348c0.1878,0.0487,0.3337,-0.1174,0.5217,-0.2252c0.1878,-0.1074,0.313,-0.1074,0.313,-0.1074s-0.1146,0.1859,-0.2398,0.2054c-0.1254,0.0194,-0.2715,0.2252,-0.2715,0.2252c0.0835,-0.1665,0.48,-0.1372,0.6261,-0.2545c0.1459,-0.1173,0.3443,-0.3132,0.4695,-0.3818c0.1254,-0.0686,0.2503,-0.2149,0.4696,-0.4008c0.2191,-0.186,0.605,-0.1467,0.605,-0.176c0,-0.0293,-0.0104,0.2736,-0.0104,0.2736l-0.3652,0.0298l0.2294,0.1562c-0.1461,-0.0587,-0.3546,0.2153,-0.3546,0.2153l0.3611,-0.0393l0.077,0.1963c0.1148,-0.2256,0.1983,-0.1765,0.1983,-0.1765c0.1252,0.1368,0.1355,0.45,0.1355,0.45s-0.1668,-0.0392,-0.3546,0.1662c-0.188,0.2058,0.1565,0.5967,0.1565,0.5967s-0.0626,0.088,0,0.2545c0.0626,0.1661,0.3859,0.3422,0.7094,0.2443c0.3233,-0.0979,0.2922,-0.5083,0.2922,-0.5083s0.1148,-0.1078,0.0937,-0.3231c-0.0207,-0.2153,-0.125,-0.3322,-0.125,-0.3322s0.1981,-0.0686,0.3233,0.0587c0.1252,0.1269,0.1565,0.4202,0.1565,0.4202s0.1252,-0.5475,-0.0626,-0.6843s-0.6469,-0.1273,-0.6469,-0.1273c-0.0104,-0.2252,-0.2193,-0.3524,-0.2713,-0.4992c-0.0522,-0.1467,0.0313,-0.5087,0.0313,-0.5087l0.2609,0.0198c0,0,-0.0209,0.088,0.1669,0.2153c0.188,0.1269,0.4904,0.0389,0.4904,0.0389s0.3444,0.0294,0.5113,-0.2541c0.1668,-0.2835,-0.1461,-0.5087,-0.1461,-0.5087c-0.052,-0.45,-0.7617,-0.1954,-0.7617,-0.1954c0.073,-0.3033,0.3861,-0.3033,0.3861,-0.3033s-0.3652,-0.1764,-0.5737,-0.1078c-0.2089,0.0686,-0.136,0.5578,-0.3028,0.5384c-0.1668,-0.0194,-0.1878,-0.4992,-0.0522,-0.8711c0.1355,-0.3715,0.8242,-0.3909,1.4817,-0.1463c0.6572,0.2442,1.5859,0.293,1.5859,0.293c-0.0309,0.1174,-0.198,0.2938,-0.198,0.2938l-0.2922,-0.1078l0.1772,0.2058c-0.0626,0.1467,-0.2297,0.2542,-0.2297,0.2542c0.1772,0.1173,0.3756,-0.1174,0.3756,-0.1174l0.0732,0.2839l0.1776,-0.2347c0,0,0.3646,0.2443,0.6673,0.3517c0.3024,0.1078,0.8873,0.2058,0.8873,0.2058s-0.1983,0.088,0.0101,0.4009c0.2089,0.3128,0.6885,0.4008,0.6885,0.4008s0.3654,0.1566,0.6987,-0.1174c0.3345,-0.274,0.063,-0.7727,0.063,-0.7727c0,-0.5765,-0.6572,-0.3957,-0.6572,-0.3957c0.1353,-0.2494,0.4538,-0.4163,0.4538,-0.4163c-0.5168,-0.2835,-0.7354,0.2744,-1.1215,0.3917c-0.3861,0.1174,-1.0645,-0.2252,-1.0954,-0.2252c-0.0317,0,0.0203,-0.0587,0.0309,-0.186c0.0105,-0.1269,0.3235,-0.3715,0.48,-0.6748c0.1569,-0.3031,0.115,-0.8021,0.115,-0.8021c0.2085,-0.1955,0.4906,-0.049,0.4906,-0.049c-0.0106,0.2056,-0.1463,0.2936,-0.1463,0.2936c0.1565,0.0097,0.2296,-0.1273,0.2296,-0.1273c-0.0732,0.2153,0.1671,0.4698,0.1671,0.4698l0.0727,-0.3328l0.219,0.2349l-0.1353,-0.4304c0.417,0,0.8552,-0.2837,0.8552,-0.2837s0.2089,0.2837,0.6263,0.2837c0.417,0,0.8344,-0.4204,0.8344,-0.6066c0,-0.186,-0.3756,-0.45,-0.3756,-0.45s0.1459,-0.3128,-0.4068,-0.3128c-0.5528,0,-0.7198,0.6312,-0.7198,0.6312s-0.2301,-0.0932,-0.5431,-0.0153c-0.3125,0.0783,-0.8238,-0.1661,-1.1368,-0.3126c-0.3134,-0.1467,-0.7515,-0.5479,-0.7515,-0.5479c0,-0.137,0.0816,-0.3523,0.0816,-0.3523s0.4504,0.0295,0.3151,0.0783c-0.1358,0.049,-0.4902,0.1469,-0.2085,0.1663c0.2812,0.0194,0.5527,-0.088,0.469,0c-0.0833,0.088,-0.3963,0.2936,-0.2711,0.2936s0.2922,-0.1469,0.376,-0.1664c0.0833,-0.0196,0.2292,0.0294,0.4381,0.0294c0.0555,0,0.1137,-0.03,0.1696,-0.0727c0.2148,0.0956,0.5327,0.3791,0.6855,0.5227c0.1878,0.1758,0.3024,-0.0589,0.3861,-0.1662c0.0482,-0.0621,-0.084,-0.1788,-0.2264,-0.2838c0.0238,-0.0275,0.048,-0.0549,0.0699,-0.0784c0.0114,-0.0122,0.03,-0.0207,0.0467,-0.0302c0.0818,0.0276,0.1624,0.0551,0.2395,0.0811c0.0011,0.1696,-0.0045,0.3991,-0.0045,0.3991c0.115,-0.0769,0.1204,-0.2312,0.1226,-0.3608c0.1643,0.0531,0.3079,0.0938,0.3997,0.0968c0.3024,0.0097,0.5003,-0.088,0.782,-0.1175c0.2817,-0.0294,0.3024,0.2155,0.3024,0.2155s0.115,-0.0785,-0.052,-0.2349c-0.1667,-0.1566,-0.3861,-0.1467,-0.3861,-0.1467c0,-0.2252,-0.2897,-0.2153,-0.2897,-0.2153c0.2423,0.1273,-0.0021,0.2641,-0.0021,0.2641c0.0312,-0.1271,-0.2715,-0.2046,-0.2715,-0.2046s0.1983,0.0872,0.0736,0.1947c-0.0778,0.0668,-0.1855,0.0666,-0.319,0.0474c0.0155,-0.0672,0.0432,-0.1702,0.0889,-0.2625c0.0736,-0.1465,-0.052,-0.2932,-0.052,-0.2932l0.1357,-0.2349c0,0,0.4487,-0.0686,0.5735,-0.1271c0.1256,-0.0589,0.2503,-0.1078,0.5633,-0.0979c0.3134,0.0099,0.3866,-0.1562,0.3866,-0.1562C14.537,4.6846,14.1403,4.5772,13.9839,4.5869z" fill="#FFFFFF"/>
    <path d="M11.9078,5.2229c0.1044,-0.0684,0.167,-0.0099,0.167,-0.0099l0.0821,0.1762l0.1053,-0.2153l0.1459,0.1075l-0.0829,0.137l0.313,-0.0391l-0.0313,0.0977c0,0,-0.1114,0.0939,-0.2206,0.1763c-0.2159,-0.0629,-0.4673,-0.152,-0.647,-0.2428C11.7746,5.3563,11.8375,5.2689,11.9078,5.2229z" fill="#FFFFFF"/>
    <path d="M12.2622,5.7411c-0.032,0.02,-0.0541,0.0464,-0.0697,0.0746c-0.0794,-0.0557,-0.1536,-0.1047,-0.1908,-0.1333c-0.0351,-0.0269,-0.0819,-0.0517,-0.1328,-0.0754c0.1323,0.0317,0.2722,0.0735,0.4134,0.12C12.276,5.7312,12.2681,5.7374,12.2622,5.7411z" fill="#FFFFFF"/>
    <path d="M12.561,5.7008c0.0314,-0.0053,0.056,-0.0085,0.056,-0.0085c0.0005,0.0055,0.0007,0.0147,0.0011,0.0215C12.5993,5.7096,12.5819,5.7059,12.561,5.7008z" fill="#FFFFFF"/>
    <path d="M12.7535,5.7409c0.0287,-0.1107,0.1248,-0.1759,0.1248,-0.1759c-0.0042,0.0776,0.0094,0.1452,0.0257,0.2032C12.8577,5.76,12.8062,5.7506,12.7535,5.7409z" fill="#FFFFFF"/>
    <path d="M16,14H0V2h16V14zM1,13h14V3H1V13z" opacity="0.3"/>
  </g>
</svg>
