<?xml version="1.0" encoding="UTF-8"?>
<!DOCTYPE svg PUBLIC "-//W3C//DTD SVG 1.1//EN" "http://www.w3.org/Graphics/SVG/1.1/DTD/svg11.dtd">
<svg version="1.1" id="Layer_1" xmlns="http://www.w3.org/2000/svg" xmlns:xlink="http://www.w3.org/1999/xlink" x="0px" y="0px" width="16px" height="16px" viewBox="0 0 16 16" enable-background="new 0 0 16 16" xml:space="preserve">
  <g id="icon">
    <rect y="10.5" width="16" height="3.5" fill="#F37980"/>
    <rect y="5.5" width="16" height="5" fill="#FFFFFF"/>
    <rect y="2" width="16" height="3.5" fill="#63BF80"/>
    <polygon points="0,2 0,14 6.4,8.013" fill="#77A2D6" stroke-linejoin="miter"/>
    <polyline points="9.245,6.114 9.094,6.114 9.019,6.232 8.944,6.114 8.793,6.114 8.868,5.996 8.793,5.878 8.944,5.878 9.019,5.76 9.094,5.878 9.245,5.878 9.17,5.996 9.245,6.114" fill="#F7CE73" stroke-linejoin="miter"/>
    <polyline points="8.617,6.161 8.517,6.067 8.567,5.926 8.416,5.95 8.316,5.856 8.266,5.997 8.115,6.021 8.215,6.115 8.165,6.256 8.316,6.232 8.416,6.326 8.466,6.185 8.617,6.161" fill="#F7CE73" stroke-linejoin="miter"/>
    <polyline points="7.989,6.278 7.914,6.207 7.914,6.066 7.788,6.137 7.662,6.066 7.637,6.207 7.511,6.278 7.637,6.349 7.612,6.49 7.738,6.419 7.864,6.49 7.864,6.349 7.989,6.278" fill="#F7CE73" stroke-linejoin="miter"/>
    <polyline points="9.42,6.114 9.571,6.114 9.646,6.232 9.721,6.114 9.872,6.114 9.797,5.996 9.872,5.878 9.721,5.878 9.646,5.76 9.571,5.878 9.42,5.878 9.495,5.996 9.42,6.114" fill="#F7CE73" stroke-linejoin="miter"/>
    <polyline points="10.048,6.161 10.199,6.185 10.249,6.326 10.349,6.232 10.5,6.256 10.45,6.115 10.55,6.021 10.4,5.996 10.35,5.855 10.25,5.949 10.099,5.925 10.149,6.066 10.048,6.161" fill="#F7CE73" stroke-linejoin="miter"/>
    <polyline points="10.651,6.278 10.777,6.349 10.777,6.49 10.903,6.419 11.029,6.49 11.029,6.349 11.155,6.278 11.029,6.207 11.029,6.066 10.903,6.137 10.777,6.066 10.802,6.207 10.651,6.278" fill="#F7CE73" stroke-linejoin="miter"/>
    <path d="M8.039,6.467H10.6v2.519c0,0.847,-1.18,0.188,-1.281,0.636c-0.176,-0.471,-1.281,0.212,-1.281,-0.683C8.039,8.044,8.039,6.467,8.039,6.467" fill="#7C7B7A"/>
    <path d="M8.14,6.584H10.5v2.307c0,0.777,-1.08,0.188,-1.18,0.589c-0.151,-0.424,-1.18,0.188,-1.18,-0.636C8.14,8.044,8.14,6.584,8.14,6.584" fill="#FFFFFF"/>
    <path d="M9.646,7.503c-0.276,0.141,-0.326,0.824,-0.075,1.624h-0.603c0.251,-0.447,0.352,-1.483,0.126,-1.601l0.025,-0.094c0.1,0.024,0.151,0.094,0.176,0.118v-0.165h0.126c-0.025,0.047,-0.025,0.118,-0.025,0.165c0.1,-0.094,0.176,-0.118,0.176,-0.118L9.646,7.503" fill="#7C7B7A"/>
    <path d="M9.697,6.985c0.05,-0.047,0.05,-0.047,0.126,-0.047c0.025,-0.094,0.176,-0.094,0.201,0.024c0.126,-0.024,0.151,0.047,0.1,0.118c0.126,-0.024,0.251,0,0.201,0.141c0.226,0.047,0.151,0.212,0.05,0.235c-0.025,0.094,-0.1,0.118,-0.226,0.094c-0.151,0.118,-0.251,0.071,-0.326,-0.047c-0.176,0.024,-0.201,-0.024,-0.276,-0.118c-0.151,0.047,-0.176,0.047,-0.276,-0.024c0,0.094,-0.05,0.071,-0.1,0.047c0,0.118,-0.05,0.165,-0.151,0.118c0.075,0.165,-0.126,0.235,-0.226,0.094c-0.1,0,-0.1,-0.024,-0.151,-0.047c-0.05,0.118,-0.176,0.118,-0.226,0.047c-0.176,-0.024,-0.176,-0.118,-0.025,-0.118c0.025,-0.094,0.1,-0.071,0.176,-0.071c0,-0.071,0.05,-0.047,0.075,-0.047c-0.025,-0.047,0,-0.071,0.05,-0.071c-0.075,-0.118,-0.025,-0.141,0.05,-0.188c-0.05,-0.094,0.025,-0.094,0.1,-0.094c0,-0.118,0.025,-0.118,0.151,-0.141c-0.025,-0.047,0,-0.071,0.075,-0.071c-0.05,-0.118,0.025,-0.141,0.126,-0.118c0.025,-0.165,0.377,-0.071,0.352,0.141C9.621,6.89,9.646,6.89,9.697,6.985" fill="#63BF80"/>
    <path d="M11.178,8.326c0.025,0.471,0.276,0.636,0,0.777c0,0,0.025,0.118,0.075,0.212c-0.126,0.565,-1.23,0.589,-1.23,0.589v0.118c0,0.212,-1.381,0.212,-1.381,0v-0.118c0,0,-1.105,-0.024,-1.23,-0.589c0.025,-0.047,0.05,-0.141,0.075,-0.212c-0.326,-0.141,-0.075,-0.306,-0.05,-0.777c0.05,0.282,0.402,0.4,0.352,0.589l-0.176,0.235c0.075,0.094,0.201,0.212,0.427,0.306c0.352,0.118,0.829,0.047,0.829,0.047l-0.025,0.306h0.929l-0.025,-0.306c0,0,0.477,0.071,0.829,-0.047c0.276,-0.118,0.326,-0.188,0.402,-0.282c0,0,-0.1,-0.212,-0.151,-0.259C10.801,8.727,11.128,8.609,11.178,8.326" fill="#B5B4B5"/>
    <path d="M16,14H0V2h16V14zM1,13h14V3H1V13z" fill="#211F20" opacity="0.20"/>
  </g>
</svg>
