<?xml version="1.0" encoding="UTF-8"?>
<!DOCTYPE svg PUBLIC "-//W3C//DTD SVG 1.1//EN" "http://www.w3.org/Graphics/SVG/1.1/DTD/svg11.dtd">
<svg version="1.1" id="Layer_1" xmlns="http://www.w3.org/2000/svg" xmlns:xlink="http://www.w3.org/1999/xlink" x="0px" y="0px" width="16px" height="16px" viewBox="0 0 16 16" enable-background="new 0 0 16 16" xml:space="preserve">
  <g id="icon">
    <path d="M0,2h16v12H0V2z" fill="#7AA2D5"/>
    <polygon points="8,2.721 6.361,4.25 8,4.25 8,5.75 6.281,5.75 8,7.329 8,8 7.106,8 4.8,5.921 4.8,8 3.2,8 3.2,6.021 0.894,8 0,8 0,8 0,7.329 1.772,5.75 0,5.75 0,4.25 1.639,4.25 0,2.671 0,2 0.894,2 3.2,4.079 3.2,2 4.8,2 4.8,4.079 7.106,2 8,2" fill="#FFFFFF" stroke-linejoin="miter"/>
    <polygon points="4.924,4.25 7.404,2 8,2 5.52,4.25" fill="#F37980" stroke-linejoin="miter"/>
    <polygon points="2.48,5.75 0,8 0.596,8 3.076,5.75" fill="#F37980" stroke-linejoin="miter"/>
    <polygon points="5.93,5.75 8,7.553 8,8 5.333,5.75" fill="#F37980" stroke-linejoin="miter"/>
    <polygon points="0,2 0,2.497 1.937,4.25 2.533,4.25" fill="#F37980" stroke-linejoin="miter"/>
    <polygon points="3.466,4.5 3.466,2 4.533,2 4.533,4.5 8,4.5 8,5.5 4.533,5.5 4.533,8 3.467,8 3.467,5.5 0,5.5 0,4.5 3.467,4.5" fill="#F37980" stroke-linejoin="miter"/>
    <path d="M16,14H0V2h16V14zM1,13h14V3H1V13z" opacity="0.3"/>
    <ellipse cx="12.1526" cy="9.2684" rx="0.5779" ry="0.4098" fill="#F37980"/>
    <path d="M10.0914,8.6304c0,0.1942,0.5844,0.4227,1.0549,-0.1503c0.4704,-0.5729,0.3334,0.2066,0.1406,0.3274c-0.1929,0.1208,-0.3993,0.4127,-0.8151,0.3677c-0.4159,-0.0451,-0.5218,-0.2095,-0.6178,-0.4493C9.758,8.4863,10.0914,8.6304,10.0914,8.6304z" fill="#63BF80"/>
    <path d="M10.1753,7.4082c0.0482,0.118,-0.0081,0.2525,-0.1262,0.3007l-0.4271,0.1746c-0.1181,0.0484,-0.2528,-0.0081,-0.301,-0.1262l0,0c-0.0482,-0.118,0.0081,-0.2525,0.1262,-0.3007l0.4271,-0.1746C9.9923,7.2336,10.1271,7.2901,10.1753,7.4082L10.1753,7.4082z" fill="#F7CE73"/>
    <path d="M13.8539,8.708c0.0694,-0.1072,0.0577,-0.2373,-0.0257,-0.2916l-0.6043,-0.3922c-0.0838,-0.054,-0.2077,-0.0113,-0.2771,0.0958l0,0c-0.0694,0.107,-0.0577,0.2372,0.0257,0.2913l0.6043,0.3922C13.6606,8.8576,13.7845,8.8152,13.8539,8.708L13.8539,8.708z" fill="#F7CE73"/>
    <path d="M13.6845,7.6768c-0.0343,-0.1228,-0.1614,-0.1944,-0.2844,-0.1602l0,0c-0.1226,0.0343,-0.1942,0.1614,-0.1599,0.2841l0.2478,0.889c0.0342,0.1228,0.1613,0.1944,0.2843,0.1602l0,0c0.1226,-0.0342,0.1942,-0.1613,0.16,-0.2841L13.6845,7.6768z" fill="#F7CE73"/>
    <path d="M14.1216,8.6681c0,-0.1275,-0.1032,-0.2307,-0.2307,-0.2307l0,0c-0.1275,0,-0.2307,0.1032,-0.2307,0.2307l0,0c0,0.1277,0.1032,0.2305,0.2307,0.2305l0,0C14.0184,8.8986,14.1216,8.7958,14.1216,8.6681L14.1216,8.6681z" fill="#F7CE73"/>
    <path d="M10.2095,8.5631c0,0.0957,-0.1032,0.173,-0.2307,0.173l0,0c-0.1275,0,-0.2307,-0.0773,-0.2307,-0.173V7.5251c0,-0.0957,0.1032,-0.173,0.2307,-0.173l0,0c0.1275,0,0.2307,0.0773,0.2307,0.173V8.5631z" fill="#63BF80"/>
    <path d="M10.5412,8.0843c-0.0766,-0.1023,-0.2001,-0.139,-0.2753,-0.0825l-0.5466,0.4103c-0.0757,0.0568,-0.0753,0.1849,0.0013,0.2872l0,0c0.0766,0.1018,0.2001,0.1388,0.2753,0.082l0.5466,-0.4103C10.6182,8.3146,10.6178,8.1864,10.5412,8.0843L10.5412,8.0843z" fill="#63BF80"/>
    <ellipse cx="9.748" cy="8.5588" rx="0.2472" ry="0.2275" fill="#63BF80"/>
    <ellipse cx="13.8179" cy="7.6121" rx="0.2342" ry="0.5144" fill="#63BF80" transform="matrix(0.3925 -0.9198 0.9198 0.3925 1.39319 17.3335)"/>
    <path d="M12.0822,8.0598c0,0,0.2082,0.6488,0.2046,0.7793c-0.0036,0.1307,0.2298,0.3587,0.2298,0.3587h-0.1411c0,0,0.0126,-0.0518,-0.096,-0.164c-0.1086,-0.1122,-0.2356,0.1064,-0.4258,0.2523c-0.1901,0.146,-0.4799,0.2438,-0.4799,0.2438s-0.1054,-0.1261,-0.0851,-0.3136c0.0203,-0.1874,0.1172,-0.0234,0.0748,-0.2654c-0.0424,-0.2422,-0.2866,-0.4979,-0.2866,-0.4979l-0.1996,-0.0252c0,0,0.3587,-0.3231,0.6263,-0.4966L12.0822,8.0598z" fill="#6E6F72"/>
    <path d="M11.2869,7.6017l0.1969,0.1444l0.7521,0.059c0,0,0.2564,-0.533,0.4425,-0.656c0.1861,-0.123,-0.0068,-0.1158,-0.1298,-0.0548c-0.123,0.061,-0.1856,0.2287,-0.3852,0.1845c-0.1996,-0.0442,0.2775,-0.3238,0.1987,-0.3715s-0.3997,0.2762,-0.5641,0.3438c-0.1645,0.0676,-0.4353,-0.0273,-0.4123,-0.0478c0.023,-0.0205,-0.196,0.146,-0.196,0.146L11.2869,7.6017z" fill="#6E6F72"/>
    <ellipse cx="11.853" cy="7.907" rx="0.6198" ry="0.1926" fill="#63BF80"/>
    <path d="M10.0239,9.8601c-0.2537,-0.0802,-0.4849,-0.0635,-0.5173,0.0379c-0.0316,0.1009,0.1478,0.2474,0.401,0.3276c0.2537,0.0802,0.4849,0.064,0.5168,-0.0374C10.4565,10.0872,10.2771,9.9403,10.0239,9.8601z" fill="#63BF80"/>
    <path d="M13.4718,10.7104c-0.2685,-0.0473,-0.4974,-0.0221,-0.511,0.0559c-0.014,0.078,0.1929,0.1798,0.4614,0.2266c0.2685,0.0473,0.4974,0.0221,0.5114,-0.0563C13.9472,10.8591,13.7404,10.7573,13.4718,10.7104z" fill="#63BF80"/>
    <path d="M13.4673,10.3139c-0.0779,-0.0162,-0.2,0.2533,-0.2726,0.602c-0.073,0.3488,-0.0685,0.6444,0.0095,0.6606c0.078,0.0162,0.2005,-0.2528,0.2731,-0.602C13.5498,10.6261,13.5453,10.3301,13.4673,10.3139z" fill="#63BF80"/>
    <path d="M12.0353,7.8746c-0.1392,-0.0502,0.0009,0.1118,0.0599,0.3488c0.059,0.237,-0.2284,0.1392,-0.2307,0.3258c-0.0023,0.1865,0.3713,0.0726,0.3713,0.0726s-0.1536,-0.5619,0.0352,0.0568c0.1888,0.6184,0.6205,0.8266,1.0021,0.9123c0.3817,0.0856,0.5989,0.3073,0.5795,0.429c-0.0194,0.1216,0.1735,0.0144,0.1883,-0.2618c0.0149,-0.2762,-0.479,-0.3654,-0.7678,-0.4412c-0.2888,-0.0757,-0.4141,-0.1955,-0.4709,-0.2483c-0.0568,-0.0527,0.1194,0.1005,0.4294,0.0523c0.31,-0.0482,0.2974,-0.3073,0.2974,-0.3073s-0.045,0.1473,-0.3862,0.1429c-0.3411,-0.0045,-0.6989,-0.6572,-0.825,-0.9871C12.3178,7.9692,12.1746,7.9248,12.0353,7.8746z" fill="#63BF80"/>
    <path d="M11.3775,8.8134c-0.1875,0.2879,-0.7313,0.693,-0.9066,0.8832c-0.1753,0.1901,-0.3024,0.5497,-0.3397,0.7881c-0.0374,0.2384,0.0342,0.606,0.1672,0.1933c0.1329,-0.4127,0.3681,-0.5727,0.6061,-0.839c0.2379,-0.2663,0.3997,-0.4424,0.4866,-0.62C11.4779,9.0414,11.3775,8.8134,11.3775,8.8134z" fill="#63BF80"/>
    <ellipse cx="12.3768" cy="9.044" rx="0.1245" ry="0.3654" fill="#F7CE73" transform="matrix(0.9572 -0.2894 0.2894 0.9572 -2.08782 3.96917)"/>
    <ellipse cx="10.2095" cy="10.9455" rx="0.1482" ry="0.6567" fill="#F7CE73" transform="matrix(0.9822 -0.188 0.188 0.9822 -1.87579 2.11467)"/>
    <ellipse cx="10.5453" cy="9.0053" rx="0.3175" ry="0.1059" fill="#F7CE73"/>
    <ellipse cx="10.1333" cy="10.8519" rx="0.4553" ry="0.1298" fill="#F7CE73"/>
    <path d="M10.6921,11.8639c0.087,0.1762,0.1108,0.3434,0.0514,0.3722c-0.0586,0.0293,-0.1771,-0.0906,-0.2649,-0.2668c-0.087,-0.1762,-0.1104,-0.3438,-0.0514,-0.3722C10.4862,11.5674,10.6047,11.6878,10.6921,11.8639z" fill="#F7CE73"/>
    <ellipse cx="13.0446" cy="11.8693" rx="0.4045" ry="0.1872" fill="#F7CE73" transform="matrix(0.5729 -0.8196 0.8196 0.5729 -4.15712 15.7609)"/>
    <ellipse cx="13.7564" cy="10.1561" rx="0.5778" ry="0.1994" fill="#F7CE73" transform="matrix(0.8531 -0.5217 0.5217 0.8531 -3.27801 8.66843)"/>
    <path d="M9.5832,9.7579c0.1297,-0.3055,0.5321,-0.4687,0.798,-0.5389c0.2658,-0.0703,0.3253,-0.1501,0.5403,-0.3195c0.2149,-0.1692,0.1636,-0.2839,0.2681,-0.2073c0.1046,0.0766,0.1924,0.1122,0.0915,0.255c-0.101,0.1429,-0.4538,0.4457,-0.6822,0.534c-0.2285,0.0883,-0.6777,0.2771,-0.7066,0.3285C9.8635,9.861,9.5399,9.8597,9.5832,9.7579z" fill="#F7CE73"/>
    <path d="M10.6155,9.2865h2.2034c0,0,0,0.9611,0,1.6758c0,0.7138,-1.1017,1.4554,-1.1017,1.4554s-1.1017,-0.7277,-1.1017,-1.4901C10.6155,10.1647,10.6155,9.2865,10.6155,9.2865z" fill="#4D90CD"/>
    <path d="M12.6801,11.421l-0.9499,-1.8817l-1.0233,1.7673c0.2573,0.6074,1.0103,1.1112,1.0103,1.1112S12.3872,11.9617,12.6801,11.421z" fill="#63BF80"/>
    <polygon points="11.7501,9.2865 12.7306,11.161 12.6554,11.3512 11.7303,9.6393 10.7764,11.3656 10.7043,11.1876" fill="#F7CE73" stroke-linejoin="miter"/>
    <path d="M12.7306,9.9268c0.3582,0.0946,0.3952,0.3005,0.5218,0.6669c0.1266,0.3663,0.1906,-0.0969,0.0699,-0.5245c-0.1208,-0.4276,-0.4019,-0.3524,-0.5556,-0.6056C12.7667,9.4636,12.3724,9.8322,12.7306,9.9268z" fill="#F7CE73"/>
    <polygon points="10.4709,11.6769 10.3812,12.2114 10.8629,11.9662" fill="#F7CE73" stroke-linejoin="miter"/>
    <polygon points="13.0244,11.7616 12.5706,11.9725 13.0686,12.2717" fill="#F7CE73" stroke-linejoin="miter"/>
    <path d="M12.171,10.9573c0,-0.0473,-0.0388,-0.0861,-0.0861,-0.0861h-0.6719c-0.0473,0,-0.0861,0.0387,-0.0861,0.0861l0,0c0,0.0473,0.0388,0.0861,0.0861,0.0861h0.6719C12.1322,11.0434,12.171,11.0046,12.171,10.9573L12.171,10.9573z" fill="#F7CE73"/>
    <path d="M11.7911,10.7027c0,-0.0667,-0.0176,-0.1208,-0.0387,-0.1208h-0.0712c-0.0212,0,-0.0388,0.0541,-0.0388,0.1208v1.1427c0,0.0667,0.0176,0.1208,0.0388,0.1208h0.0712c0.0211,0,0.0387,-0.0541,0.0387,-0.1208V10.7027z" fill="#F7CE73"/>
    <polygon points="11.1765,11.8238 11.2639,11.8144 11.7213,12.2023 12.1561,11.8351 12.2665,11.8671 12.3098,11.4832 12.0087,11.7103 12.0971,11.7662 11.6812,11.9662 11.3775,11.7657 11.4243,11.7076 11.1549,11.4264" fill="#F7CE73" stroke-linejoin="miter"/>
  </g>
</svg>
