<?xml version="1.0" encoding="UTF-8"?>
<!DOCTYPE svg PUBLIC "-//W3C//DTD SVG 1.1//EN" "http://www.w3.org/Graphics/SVG/1.1/DTD/svg11.dtd">
<svg version="1.1" id="Layer_1" xmlns="http://www.w3.org/2000/svg" xmlns:xlink="http://www.w3.org/1999/xlink" x="0px" y="0px" width="16px" height="16px" viewBox="0 0 16 16" enable-background="new 0 0 16 16" xml:space="preserve">
  <g id="icon">
    <path d="M8,0C3.5888,0,0,3.1438,0,7.0081c0,1.9084,0.8904,3.7339,2.4534,5.0517c-0.1579,0.7952,-0.6604,2.2999,-0.863,2.8738l-0.3382,0.9579l0.9653,-0.3163c0.4348,-0.1425,4.0293,-1.321,4.8263,-1.6085c0.3161,0.0329,0.6371,0.0496,0.9562,0.0496c4.4112,0,8,-3.1438,8,-7.0081C16,3.1438,12.4112,0,8,0zM6.7589,9.4337c-0.3918,0.3112,-0.8968,0.4673,-1.5151,0.4673H3.503V4.0764c0.7668,-0.0369,1.3037,-0.0554,1.6124,-0.0554c0.5906,0,1.052,0.1292,1.3851,0.3876s0.4992,0.6284,0.4992,1.1082c0,0.4614,-0.2383,0.8263,-0.7148,1.094c0.7072,0.2517,1.0604,0.7718,1.0604,1.5596C7.3453,8.7005,7.1498,9.1216,6.7589,9.4337zM12.4652,8.0822c0,0.5998,-0.1963,1.0688,-0.5889,1.4086c-0.3926,0.3398,-0.9161,0.5092,-1.5713,0.5092c-0.6602,0,-1.1703,-0.1661,-1.5285,-0.4975c-0.3591,-0.3314,-0.5378,-0.8062,-0.5378,-1.4245V4.0722h1.0101v3.9505c0,0.3129,0.0931,0.568,0.2794,0.7634c0.1862,0.1963,0.443,0.2945,0.7693,0.2945c0.3649,0,0.6493,-0.0965,0.8523,-0.2886c0.203,-0.1921,0.3054,-0.4555,0.3054,-0.7894V4.0722h1.0101V8.0822zM6.2958,8.047c0,0.3633,-0.1015,0.6225,-0.3045,0.7794c-0.203,0.1569,-0.5302,0.2349,-0.9807,0.2349c-0.1275,0,-0.2928,-0.0092,-0.4975,-0.0277V7.1082c0.2408,-0.0084,0.4102,-0.0126,0.5084,-0.0117c0.4715,0,0.802,0.0755,0.9908,0.2265S6.2958,7.7156,6.2958,8.047zM5.0022,6.3163c-0.1703,0,-0.3339,-0.005,-0.4891,-0.0159V4.9035c0.2282,-0.0126,0.4211,-0.0193,0.578,-0.0193c0.5982,0,0.8976,0.224,0.8976,0.672C5.9887,6.0629,5.6599,6.3163,5.0022,6.3163z" fill="#2C7EA0"/>
    <path d="M5.2438,9.901H3.503V4.0764c0.7668,-0.0369,1.3037,-0.0554,1.6124,-0.0554c0.5906,0,1.052,0.1292,1.3851,0.3876c0.3331,0.2584,0.4992,0.6284,0.4992,1.1082c0,0.4614,-0.2383,0.8263,-0.7148,1.094c0.7072,0.2517,1.0604,0.7718,1.0604,1.5596c0,0.5302,-0.1955,0.9513,-0.5864,1.2634C6.3671,9.745,5.8621,9.901,5.2438,9.901zM4.5131,4.9035v1.3968c0.1552,0.0109,0.3188,0.0159,0.4891,0.0159c0.6577,0,0.9866,-0.2534,0.9866,-0.7601c0,-0.448,-0.2995,-0.672,-0.8976,-0.672C4.9342,4.8843,4.7412,4.891,4.5131,4.9035zM4.5131,7.1082v1.9253c0.2047,0.0185,0.37,0.0277,0.4975,0.0277c0.4505,0,0.7777,-0.078,0.9807,-0.2349c0.203,-0.1569,0.3045,-0.4161,0.3045,-0.7794c0,-0.3314,-0.0948,-0.573,-0.2836,-0.724c-0.1888,-0.151,-0.5193,-0.2265,-0.9908,-0.2265C4.9233,7.0957,4.7538,7.0998,4.5131,7.1082zM8.2387,8.078c0,0.6183,0.1787,1.0931,0.5377,1.4245C9.1347,9.8339,9.6448,10,10.305,10c0.6552,0,1.1787,-0.1695,1.5713,-0.5092c0.3926,-0.3398,0.5889,-0.8087,0.5889,-1.4086v-4.01h-1.0101v3.9304c0,0.3339,-0.1023,0.5973,-0.3054,0.7894c-0.203,0.1921,-0.4874,0.2886,-0.8523,0.2886c-0.3263,0,-0.5831,-0.0982,-0.7693,-0.2945c-0.1862,-0.1955,-0.2794,-0.4505,-0.2794,-0.7634V4.0722H8.2387L8.2387,8.078z" fill="#FFFFFF" opacity="0.5"/>
  </g>
</svg>
