<?xml version="1.0" encoding="UTF-8"?>
<!DOCTYPE svg PUBLIC "-//W3C//DTD SVG 1.1//EN" "http://www.w3.org/Graphics/SVG/1.1/DTD/svg11.dtd">
<svg version="1.1" id="Layer_1" xmlns="http://www.w3.org/2000/svg" xmlns:xlink="http://www.w3.org/1999/xlink" x="0px" y="0px" width="16px" height="16px" viewBox="0 0 16 16" enable-background="new 0 0 16 16" xml:space="preserve">
  <g id="icon">
    <path d="M8,0.5C3.8579,0.5,0.5,3.4138,0.5,7.008c0,1.9242,0.9623,3.6533,2.4921,4.8448C2.9,12.7266,2.0619,15.1,2.0619,15.1S6.6,13.613,6.9805,13.4565c0.3334,0.0393,0.6737,0.0597,1.0195,0.0597c4.1421,0,7.5,-2.9138,7.5,-6.5081S12.1422,0.5,8,0.5z" fill="#FFFFFF" opacity="0.5"/>
    <path d="M1.2522,15.8915l0.3382,-0.9579c0.2026,-0.5739,0.7051,-2.0786,0.863,-2.8738C0.8904,10.742,0,8.9165,0,7.0081C0,3.1438,3.5888,0,8,0s8,3.1438,8,7.0081c0,3.8643,-3.5888,7.0081,-8,7.0081c-0.319,0,-0.6401,-0.0167,-0.9562,-0.0496c-0.7969,0.2875,-4.3915,1.4661,-4.8263,1.6085L1.2522,15.8915zM8,1c-3.8598,0,-7,2.6952,-7,6.0081c0,1.6901,0.8381,3.3123,2.2994,4.4503l0.2191,0.1707l-0.0291,0.2762c-0.0592,0.5616,-0.3786,1.6229,-0.6338,2.4078c1.7115,-0.5631,3.7113,-1.2271,3.9346,-1.319l0.12,-0.0494l0.1288,0.0152c0.3165,0.0374,0.6398,0.0563,0.961,0.0563c3.8598,0,7,-2.6952,7,-6.0081C15,3.6952,11.8598,1,8,1z" fill="#9171B2"/>
  </g>
</svg>
