<?xml version="1.0" encoding="UTF-8"?>
<!DOCTYPE svg PUBLIC "-//W3C//DTD SVG 1.1//EN" "http://www.w3.org/Graphics/SVG/1.1/DTD/svg11.dtd">
<svg version="1.1" id="Layer_1" xmlns="http://www.w3.org/2000/svg" xmlns:xlink="http://www.w3.org/1999/xlink" x="0px" y="0px" width="24px" height="24px" viewBox="0 0 24 24" enable-background="new 0 0 24 24" xml:space="preserve">
  <g id="icon">
    <polygon points="22,23 5,23 5,2 17,2 17,7.025 22,7" fill="#FFFFFF" stroke-linejoin="miter" opacity="0.5"/>
    <polygon points="17.525,0 4,0 4,13 6,13 6,2 17,2 17,7.025 22,7 22,22 21,22 21,24 24,24 24,6.5" fill="#7B7B7B" stroke-linejoin="miter"/>
    <path d="M3.6332,23.9734c-1.1458,0,-2.0476,-0.4137,-2.6803,-1.2297c-0.6002,-0.7738,-0.9044,-1.8628,-0.9044,-3.2365c0,-0.8571,0.1432,-1.6243,0.4256,-2.2803c0.2945,-0.6843,0.7305,-1.2222,1.2961,-1.599c0.5689,-0.379,1.2418,-0.5711,2,-0.5711c0.7868,0,1.4895,0.1713,2.0887,0.5091l0.3877,0.2187l-0.7202,1.6863l-0.4965,-0.2695c-0.4264,-0.2313,-0.8534,-0.3486,-1.2689,-0.3486c-0.5752,0,-0.9971,0.2045,-1.3275,0.6436c-0.3569,0.474,-0.5378,1.1541,-0.5378,2.0214c0,0.8963,0.1738,1.5842,0.5166,2.0445c0.3149,0.4233,0.7406,0.6204,1.3397,0.6204c0.4089,0,0.8911,-0.089,1.4332,-0.2646l0.668,-0.2164v1.7977l-0.3024,0.1311C5.0248,23.8579,4.3798,23.9734,3.6332,23.9734zM17.5113,23.868l-1.6158,-3.2046h-0.568v3.2046H13.535v-8.7005h2.3386c0.9488,0,1.6767,0.2284,2.1635,0.6788c0.4948,0.458,0.7456,1.1293,0.7456,1.9954c0,1.0315,-0.3924,1.7972,-1.1673,2.2797l1.9606,3.7466H17.5113zM15.8827,18.8991c0.3993,0,0.6914,-0.0797,0.8447,-0.2304c0.1563,-0.1534,0.2355,-0.4157,0.2355,-0.7795c0,-0.3532,-0.0756,-0.6052,-0.2185,-0.7287c-0.1123,-0.0971,-0.3625,-0.2128,-0.9165,-0.2128h-0.5005v1.9514H15.8827zM6.5777,23.868v-8.7005h2.5531c1.1891,0,2.1335,0.3943,2.8069,1.172c0.6524,0.7533,0.9833,1.7979,0.9833,3.1045c0,1.3896,-0.3438,2.481,-1.0217,3.2438c-0.6959,0.7832,-1.6933,1.1803,-2.9647,1.1803H6.5777zM8.8067,22.0984c0.7667,0,1.3394,-0.2074,1.702,-0.6166c0.381,-0.4297,0.5741,-1.1047,0.5741,-2.0062c0,-0.88,-0.1804,-1.5367,-0.5362,-1.952c-0.3383,-0.3946,-0.8478,-0.5865,-1.5573,-0.5865h-0.6192v5.1613H8.8067z" fill="#6486C4"/>
  </g>
</svg>
