<?xml version="1.0" encoding="UTF-8"?>
<!DOCTYPE svg PUBLIC "-//W3C//DTD SVG 1.1//EN" "http://www.w3.org/Graphics/SVG/1.1/DTD/svg11.dtd">
<svg version="1.1" id="Layer_1" xmlns="http://www.w3.org/2000/svg" xmlns:xlink="http://www.w3.org/1999/xlink" x="0px" y="0px" width="24px" height="24px" viewBox="0 0 24 24" enable-background="new 0 0 24 24" xml:space="preserve">
  <g id="icon">
    <polygon points="18,13.7555 18,22 2,22 2,2 13,2 13,7.025 15.2517,7.0137 17.8846,4.3764 13.525,0 0,0 0,24 20,24 20,11.7542" fill="#7B7B7B" stroke-linejoin="miter"/>
    <path d="M13.5307,18.2277L6.9794,20.761c-0.4318,0.167,-0.8574,-0.2562,-0.693,-0.6889l2.5019,-6.5842l6.4634,-6.4742L13,7.025V2H2v20h16v-8.2445L13.5307,18.2277z" fill="#FFFFFF" opacity="0.5"/>
    <path d="M10.2053,14.4039L20.6802,3.9116c0.2646,-0.2654,0.6167,-0.4116,0.9911,-0.4116c0.3746,0,0.7268,0.1463,0.9916,0.4121l0.427,0.4284c0.5466,0.5485,0.5462,1.4405,-0.0009,1.9885L12.6102,16.8146L8.7172,18.32L10.2053,14.4039z" fill="#FFFFFF" opacity="0.5"/>
    <path d="M9.733,14.0985L20.2909,3.523c0.3686,-0.3695,0.8588,-0.573,1.3804,-0.573c0.522,0,1.0125,0.2039,1.3812,0.5738l0.427,0.4285c0.7602,0.7627,0.7596,2.0032,-0.0014,2.7653L12.917,17.2856l-5.1521,1.9922L9.733,14.0985zM21.6713,4.55c-0.0934,0,-0.1814,0.0366,-0.2479,0.1032L11.107,14.9868l-0.5715,1.5043l1.489,-0.5758L22.3461,5.5869c0.139,-0.1392,0.1389,-0.3658,0,-0.5052l-0.427,-0.4285C21.8529,4.5867,21.7648,4.55,21.6713,4.55L21.6713,4.55z" fill="#6486C4"/>
    <polygon points="17.9943,6.5855 19.2301,5.3932 21.5521,7.7876 20.3164,8.98" fill="#6486C4" stroke-linejoin="miter"/>
  </g>
</svg>
