<?xml version="1.0" encoding="UTF-8"?>
<!DOCTYPE svg PUBLIC "-//W3C//DTD SVG 1.1//EN" "http://www.w3.org/Graphics/SVG/1.1/DTD/svg11.dtd">
<svg version="1.1" id="Layer_1" xmlns="http://www.w3.org/2000/svg" xmlns:xlink="http://www.w3.org/1999/xlink" x="0px" y="0px" width="24px" height="24px" viewBox="0 0 24 24" enable-background="new 0 0 24 24" xml:space="preserve">
  <g id="icon">
    <path d="M19.419,24.0115c-1.1762,0,-2.111,-0.417,-2.7782,-1.2395c-0.6361,-0.784,-0.9586,-1.8715,-0.9586,-3.2324c0,-0.8684,0.156,-1.6466,0.4637,-2.3127c0.3213,-0.6955,0.7949,-1.2369,1.4076,-1.6092c0.6064,-0.3684,1.3192,-0.5552,2.1185,-0.5552c0.7903,0,1.5382,0.1707,2.2231,0.5074l0.4546,0.2235l-0.6964,1.828l-0.5634,-0.276c-0.5142,-0.2518,-1.0079,-0.3795,-1.4676,-0.3795c-0.6284,0,-1.0999,0.2031,-1.4415,0.6211c-0.367,0.4493,-0.553,1.1063,-0.553,1.9526c0,0.8948,0.1777,1.5657,0.5281,1.9941c0.3248,0.3971,0.8074,0.5901,1.4755,0.5901c0.2598,0,0.5203,-0.0229,0.775,-0.0679v-1.3507h-1.4769v-1.9034h3.3773v4.6479l-0.367,0.1353c-0.3789,0.1395,-0.7697,0.2466,-1.1614,0.3182C20.3848,23.975,19.9275,24.0115,19.419,24.0115zM11.862,24.0115c-1.1762,0,-2.111,-0.417,-2.7782,-1.2395c-0.6361,-0.784,-0.9586,-1.8715,-0.9586,-3.2324c0,-0.8685,0.156,-1.6467,0.4637,-2.3127c0.3213,-0.6955,0.7949,-1.2369,1.4076,-1.6092c0.6064,-0.3684,1.3192,-0.5552,2.1185,-0.5552c0.7903,0,1.5382,0.1707,2.2231,0.5074l0.4546,0.2235l-0.6964,1.828l-0.5634,-0.276c-0.5142,-0.2518,-1.0079,-0.3795,-1.4676,-0.3795c-0.6284,0,-1.0999,0.2031,-1.4414,0.6211c-0.3671,0.4493,-0.5531,1.1063,-0.5531,1.9526c0,0.8948,0.1777,1.5657,0.5281,1.9941c0.3248,0.3971,0.8074,0.5901,1.4755,0.5901c0.2598,0,0.5203,-0.0229,0.775,-0.0679v-1.3507h-1.4769v-1.9034h3.3773v4.6479l-0.367,0.1353c-0.3784,0.1394,-0.7692,0.2465,-1.1614,0.3182C12.8278,23.975,12.3705,24.0115,11.862,24.0115zM3.6678,24.0115c-1.1553,0,-2.0649,-0.4208,-2.7036,-1.2509c-0.6017,-0.7817,-0.9069,-1.8724,-0.9069,-3.2419c0,-1.3597,0.3063,-2.4441,0.9104,-3.2229c0.6402,-0.8253,1.5516,-1.2438,2.709,-1.2438c1.1317,0,2.0316,0.4255,2.6748,1.2646c0.6058,0.7906,0.913,1.8715,0.913,3.2125c0,1.3374,-0.3078,2.4181,-0.9148,3.212C5.705,23.5841,4.8027,24.0115,3.6678,24.0115zM3.6769,16.9554c-0.5476,0,-0.9304,0.1791,-1.2047,0.5637c-0.3113,0.4361,-0.4691,1.1124,-0.4691,2.0101c0,0.9115,0.1578,1.5949,0.4691,2.031c0.2744,0.3846,0.6544,0.5637,1.1957,0.5637c0.5455,0,0.924,-0.1772,1.191,-0.5575c0.3055,-0.4351,0.4603,-1.1204,0.4603,-2.0371c0,-0.9063,-0.1541,-1.5856,-0.4582,-2.019C4.5954,17.1317,4.2192,16.9554,3.6769,16.9554z" fill="#6486C4"/>
    <polygon points="22,13 22,7 17,7.025 17,2 5,2 5,13" fill="#FFFFFF" stroke-linejoin="miter" opacity="0.5"/>
    <polygon points="6,2 17,2 17,7.025 22,7 22,13 24,13 24,6.5 17.525,0 4,0 4,13 6,13" fill="#7B7B7B" stroke-linejoin="miter"/>
  </g>
</svg>
