<?xml version="1.0" encoding="UTF-8"?>
<!DOCTYPE svg PUBLIC "-//W3C//DTD SVG 1.1//EN" "http://www.w3.org/Graphics/SVG/1.1/DTD/svg11.dtd">
<svg version="1.1" id="Layer_1" xmlns="http://www.w3.org/2000/svg" xmlns:xlink="http://www.w3.org/1999/xlink" x="0px" y="0px" width="24px" height="24px" viewBox="0 0 24 24" enable-background="new 0 0 24 24" xml:space="preserve">
  <g id="icon">
    <polygon points="17,7.025 17,2 6,2 6,9 6,10 6,23 16,23 22,23 22,7" fill="#FFFFFF" stroke-linejoin="miter" opacity="0.4"/>
    <polygon points="17.525,0 5,0 5,9 7,9 7,2 17,2 17,7.025 22,7 22,22 16,22 16,24 24,24 24,6.5" fill="#7B7B7B" stroke-linejoin="miter"/>
    <path d="M0,14v-1h14v1H0zM0,16v-1h14v1H0zM0,18v-1h14v1H0zM0,20v-1h14v1H0zM0,22v-1h14v1H0zM0,24v-1h10v1H0zM0,12v-1h14v1H0z" fill="#6486C4"/>
  </g>
</svg>
