<?xml version="1.0" encoding="UTF-8"?>
<!DOCTYPE svg PUBLIC "-//W3C//DTD SVG 1.1//EN" "http://www.w3.org/Graphics/SVG/1.1/DTD/svg11.dtd">
<svg version="1.1" id="Layer_1" xmlns="http://www.w3.org/2000/svg" xmlns:xlink="http://www.w3.org/1999/xlink" x="0px" y="0px" width="24px" height="24px" viewBox="0 0 24 24" enable-background="new 0 0 24 24" xml:space="preserve">
  <g id="icon">
    <polygon points="17,7.025 17,2 7,2 7,9 7,10 16,10 16,22 22,22 22,7" fill="#FFFFFF" stroke-linejoin="miter" opacity="0.4"/>
    <polygon points="17.525,0 5,0 5,9 7,9 7,2 17,2 17,7.025 22,7 22,22 17,22 17,24 24,24 24,6.5" fill="#7B7B7B" stroke-linejoin="miter"/>
    <path d="M13,22H2v-9h11V22z" fill="#FFFFFF" opacity="0.5"/>
    <path d="M15,24H0V11h15V24zM2,22h11v-9H2V22z" fill="#7B7B7B"/>
    <ellipse cx="10.1429" cy="14.8966" rx="1.2571" ry="1.2508" fill="#EEAC55"/>
    <path d="M9.9365,17.6076l-0.023,0.0001c-0.5966,0.0087,-1.2103,0.3559,-1.8761,1.0614l-0.0805,0.0852l0.078,0.0881c0.3892,0.4396,0.9073,0.9975,1.5032,1.4655l-0.2526,0.4756c-0.8401,-0.6518,-1.5665,-1.504,-2.2102,-2.2591C6.1039,17.3845,5.2648,16.4,4.3644,16.4c-0.0412,0,-0.0828,0.0021,-0.1236,0.0063c-0.684,0.0704,-1.42,0.7317,-2.2408,2.0158V22h11v-2.2186C11.9115,18.5981,10.9572,17.6076,9.9365,17.6076z" fill="#52B250"/>
  </g>
</svg>
