<?xml version="1.0" encoding="UTF-8"?>
<!DOCTYPE svg PUBLIC "-//W3C//DTD SVG 1.1//EN" "http://www.w3.org/Graphics/SVG/1.1/DTD/svg11.dtd">
<svg version="1.1" id="Layer_1" xmlns="http://www.w3.org/2000/svg" xmlns:xlink="http://www.w3.org/1999/xlink" x="0px" y="0px" width="24px" height="24px" viewBox="0 0 24 24" enable-background="new 0 0 24 24" xml:space="preserve">
  <g id="icon">
    <polygon points="22,23 5,23 5,2 17,2 17,7.025 22,7" fill="#FFFFFF" stroke-linejoin="miter" opacity="0.5"/>
    <polygon points="17.525,0 4,0 4,13 6,13 6,2 17,2 17,7.025 22,7 22,22 20,22 20,24 24,24 24,6.5" fill="#7B7B7B" stroke-linejoin="miter"/>
    <path d="M11.5635,24.0964c-0.8886,0,-1.5987,-0.1441,-2.1106,-0.4282l-0.2948,-0.1637v-2.1223l0.8377,0.4102c0.2343,0.1148,0.4947,0.207,0.7739,0.2741c0.2758,0.0665,0.5521,0.1002,0.8212,0.1002c0.364,0,0.6354,-0.0687,0.7849,-0.1985c0.1342,-0.1166,0.1966,-0.2827,0.1966,-0.5224c0,-0.1697,-0.0245,-0.3047,-0.0709,-0.3904c-0.0469,-0.0862,-0.1433,-0.1795,-0.2789,-0.2697c-0.185,-0.1229,-0.4853,-0.2706,-0.8925,-0.4388c-0.7153,-0.2968,-1.2441,-0.6674,-1.5717,-1.1016c-0.3409,-0.4516,-0.5137,-1.0308,-0.5137,-1.7217c0,-0.7587,0.2574,-1.3784,0.765,-1.842c0.4954,-0.4522,1.144,-0.6816,1.9279,-0.6816c0.7536,0,1.4588,0.1638,2.0959,0.4867l0.4297,0.2178l-0.5814,1.8824l-0.6126,-0.2982c-0.4678,-0.2277,-0.922,-0.3431,-1.3499,-0.3431c-0.2615,0,-0.4552,0.0541,-0.5756,0.1608c-0.0665,0.0588,-0.1549,0.1672,-0.1549,0.4279c0,0.2231,0.0373,0.3449,0.0686,0.4077c0.0417,0.0838,0.1278,0.1732,0.2489,0.2588c0.1667,0.1178,0.4413,0.2562,0.8161,0.4115c0.7995,0.3305,1.3479,0.6923,1.6765,1.106c0.3436,0.4329,0.5177,0.9857,0.5177,1.6429c0,0.8455,-0.2789,1.5236,-0.8289,2.0155C13.1539,23.8542,12.4392,24.0964,11.5635,24.0964zM15.5649,23.9905v-8.8794H17.5v8.8794H15.5649zM6.0576,23.9905v-3.7678l-1.3555,3.7678H3.2358l-1.3361,-3.7453v3.7453H0.024v-8.8794h2.1686l1.8135,5.1749l1.8281,-5.1749h2.1585v8.8794H6.0576z" fill="#6486C4"/>
  </g>
</svg>
