<?xml version="1.0" encoding="UTF-8"?>
<!DOCTYPE svg PUBLIC "-//W3C//DTD SVG 1.1//EN" "http://www.w3.org/Graphics/SVG/1.1/DTD/svg11.dtd">
<svg version="1.1" id="Layer_1" xmlns="http://www.w3.org/2000/svg" xmlns:xlink="http://www.w3.org/1999/xlink" x="0px" y="0px" width="24px" height="24px" viewBox="0 0 24 24" enable-background="new 0 0 24 24" xml:space="preserve">
  <g id="icon">
    <polygon points="22,23 5,23 5,2 17,2 17,7.025 22,7" fill="#FFFFFF" stroke-linejoin="miter" opacity="0.5"/>
    <polygon points="17.525,0 4,0 4,13 6,13 6,2 17,2 17,7.025 22,7 22,22 17,22 17,24 24,24 24,6.5" fill="#7B7B7B" stroke-linejoin="miter"/>
    <path d="M11.9439,24.0318l-1.2455,-4.8064l-1.215,4.8064H7.7958L5.694,15.0007l0.7228,0.0255l1.335,0l0.9591,4.3592l1.105,-4.3592h1.7284l1.1664,4.4239l0.9712,-4.4239h2.0184l-2.0714,9.0056H11.9439zM-0.0184,24.0318v-9.0056h4.8651v1.9459H1.9199v1.7482h2.8065v1.9459H1.9199v3.3656H-0.0184z" fill="#6486C4"/>
  </g>
</svg>
