<?xml version="1.0" encoding="UTF-8"?>
<!DOCTYPE svg PUBLIC "-//W3C//DTD SVG 1.1//EN" "http://www.w3.org/Graphics/SVG/1.1/DTD/svg11.dtd">
<svg version="1.1" id="Layer_1" xmlns="http://www.w3.org/2000/svg" xmlns:xlink="http://www.w3.org/1999/xlink" x="0px" y="0px" width="24px" height="24px" viewBox="0 0 24 24" enable-background="new 0 0 24 24" xml:space="preserve">
  <g id="icon">
    <polygon points="22,23 5,23 5,2 17,2 17,7.025 22,7" fill="#FFFFFF" stroke-linejoin="miter" opacity="0.5"/>
    <polygon points="17.525,0 4,0 4,13 6,13 6,2 17,2 17,7.025 22,7 22,22 21,22 21,24 24,24 24,6.5" fill="#7B7B7B" stroke-linejoin="miter"/>
    <path d="M7.7,23.9l-3.2021,-8.9H3.1017L0.2744,23.9735H2.14l0.8216,-2.5147H4.891l0.8308,2.5147H7.6L7.7,23.9zM3.5403,19.5967l0.3007,-1.1706l0.4453,1.1706H3.5403zM18.0369,16.8838v1.8585h2.2661v1.8513h-2.2661v3.3799h-1.8066v-8.941h4.2507v1.8513H18.0369zM8,15.0325h1.8059v8.941H8V15.0325zM11.0056,15.0325h4.2507v1.8513h-2.4441v1.8585h2.2661v1.8513h-2.2661v3.3799h-1.8066V15.0325z" fill="#6486C4"/>
  </g>
</svg>
