<?xml version="1.0" encoding="UTF-8"?>
<!DOCTYPE svg PUBLIC "-//W3C//DTD SVG 1.1//EN" "http://www.w3.org/Graphics/SVG/1.1/DTD/svg11.dtd">
<svg version="1.1" id="Layer_1" xmlns="http://www.w3.org/2000/svg" xmlns:xlink="http://www.w3.org/1999/xlink" x="0px" y="0px" width="24px" height="24px" viewBox="0 0 24 24" enable-background="new 0 0 24 24" xml:space="preserve">
  <g id="icon">
    <path d="M11.2284,13.9823c-0.0245,0.1878,-0.0232,0.2881,-0.0026,0.3223c0.0294,-0.0641,0.0582,-0.1172,0.086,-0.168l0.5417,-0.9729c0.3079,-0.7041,0.5939,-1.3861,0.5132,-0.9217l3.8052,-6.834L11.2057,0.7H3.8v13.5h7.4L11.2284,13.9823z" fill="#FFFFFF" opacity="0.5"/>
    <path d="M11.1417,14.5237c0.1322,-0.5284,0.4932,-0.9278,0.5619,-1.2156l0.0735,-0.3081H5V2h5v4h5v1.5128l1.508,-2.7082L11.4712,0H3v15h8.0268C11.065,14.7955,11.1035,14.6429,11.1417,14.5237z" fill="#7B7B7B"/>
    <path d="M12.5691,18.7623c0.0327,-0.7797,0.1557,-3.3538,0.3659,-3.738l7.2096,-12.948c0.0799,-0.1462,0.2576,-0.3225,0.6449,-0.3225c0.7298,0,1.8828,0.6428,2.243,1.2504c0.1835,0.3095,0.1303,0.5422,0.0534,0.6828l-7.2165,12.9443c-0.2082,0.3808,-2.2756,1.8905,-2.9042,2.3441l-0.4176,0.3014L12.5691,18.7623z" fill="#FFFFFF" opacity="0.5"/>
    <path d="M11.8197,18.7309c0.1468,-3.4989,0.3565,-3.8823,0.4573,-4.0666l7.2123,-12.9529c0.2383,-0.4358,0.6959,-0.6941,1.2544,-0.7071l0.0379,-0.0003c0.9825,0,2.3843,0.7769,2.8845,1.5986c0.2904,0.4773,0.3188,1.0038,0.0778,1.4444l-7.2194,12.9496c-0.0976,0.1786,-0.3028,0.5539,-3.1204,2.5871l-1.6706,1.2055L11.8197,18.7309zM14.0711,15.5533c-0.0367,0.1685,-0.0813,0.5712,-0.1258,1.1277c0.4421,-0.3447,0.7525,-0.6026,0.8678,-0.7218l6.9663,-12.4955c-0.2018,-0.1555,-0.5109,-0.3242,-0.7491,-0.4085L14.0711,15.5533z" fill="#6486C4"/>
    <rect x="20.2933" y="3.3807" width="0.5" height="2.7578" fill="#FFFFFF" transform="matrix(0.4748 -0.8801 0.8801 0.4748 6.59987 20.5793)"/>
    <rect x="19.5432" y="3.1307" width="2" height="3.2578" fill="#6486C4" transform="matrix(0.4748 -0.8801 0.8801 0.4748 6.60024 20.5796)"/>
    <path d="M17.575,17.5767c-0.2025,0.3704,-0.4428,0.7966,-3.4688,2.9802l-2.6625,1.9212c-0.4105,0.2962,-0.9817,-0.0113,-0.9605,-0.517l0.1375,-3.2804c0.0336,-0.8004,0.0707,-1.4493,0.1102,-1.9807H1.7v6.5h20.5v-6.5h-4.1363L17.575,17.5767z" fill="#FFFFFF" opacity="0.5"/>
    <path d="M18.454,16H23v8H1v-8h9.7908c-0.0497,0.5027,-0.0965,1.1516,-0.1389,2H3v4h7.4844c0.0093,0.4819,0.5597,0.7664,0.9593,0.478l0.6625,-0.478H21v-4h-3.7167c0.1592,-0.1828,0.2275,-0.306,0.2917,-0.4233L18.454,16zM4,19v2h6.5236l0.0839,-2H4zM14,20.6335L13.4921,21H14V20.6335z" fill="#6486C4"/>
  </g>
</svg>
