<?xml version="1.0" encoding="UTF-8"?>
<!DOCTYPE svg PUBLIC "-//W3C//DTD SVG 1.1//EN" "http://www.w3.org/Graphics/SVG/1.1/DTD/svg11.dtd">
<svg version="1.1" id="Layer_1" xmlns="http://www.w3.org/2000/svg" xmlns:xlink="http://www.w3.org/1999/xlink" x="0px" y="0px" width="24px" height="24px" viewBox="0 0 24 24" enable-background="new 0 0 24 24" xml:space="preserve">
  <g id="icon">
    <polygon points="7.7,5.8 7.7,0.8 14.1703,0.8 17.4129,3 18.3,3 18.3,5.8" fill="#FFFFFF" stroke-linejoin="miter" opacity="0.5"/>
    <path d="M7,12V0h8.1628l2.99,2.1H24v9.9H7zM15.5197,4.6l0.9987,-0.7156L14.1987,2.1H9v2.5H15.5197z" fill="#EEAD56"/>
    <rect x="2" y="5" width="4" height="2.5" fill="#FFFFFF" opacity="0.2"/>
    <polygon points="0,15 0,3 6,3 6,5 2,5 2,7.5 6,7.5 6,13 16.8,13 16.8,15" fill="#EEAD56" stroke-linejoin="miter" opacity="0.4"/>
    <polygon points="14.6203,22.5417 16.2722,21 3,21 3,19 16.3821,19 14.6203,17.4491 16.03,16.0305 20.1708,19.9454 16.03,23.9603" fill="#CB525D" stroke-linejoin="miter"/>
  </g>
</svg>
