<?xml version="1.0" encoding="UTF-8"?>
<!DOCTYPE svg PUBLIC "-//W3C//DTD SVG 1.1//EN" "http://www.w3.org/Graphics/SVG/1.1/DTD/svg11.dtd">
<svg version="1.1" id="Layer_1" xmlns="http://www.w3.org/2000/svg" xmlns:xlink="http://www.w3.org/1999/xlink" x="0px" y="0px" width="16px" height="16px" viewBox="0 0 16 16" enable-background="new 0 0 16 16" xml:space="preserve">
  <g id="icon">
    <path d="M8,1.193c-0.301,0,-0.545,0.244,-0.545,0.545s0.244,0.545,0.545,0.545s0.545,-0.244,0.545,-0.545S8.301,1.193,8,1.193zM12.879,12.075c-0.521,-0.301,-0.699,-0.967,-0.399,-1.488c0.301,-0.521,0.967,-0.699,1.488,-0.399c0.521,0.301,0.699,0.967,0.399,1.488C14.066,12.197,13.4,12.375,12.879,12.075zM15.216,8c0,-0.526,-0.427,-0.953,-0.953,-0.953s-0.953,0.427,-0.953,0.953s0.427,0.953,0.953,0.953S15.216,8.526,15.216,8zM14.131,4.46c-0.226,-0.391,-0.725,-0.524,-1.116,-0.299c-0.391,0.226,-0.524,0.725,-0.299,1.116s0.725,0.524,1.116,0.299C14.223,5.35,14.357,4.851,14.131,4.46zM11.721,2.917c-0.188,0.326,-0.604,0.437,-0.93,0.249c-0.326,-0.188,-0.437,-0.604,-0.249,-0.93c0.188,-0.326,0.604,-0.437,0.93,-0.249C11.797,2.175,11.909,2.591,11.721,2.917zM11.744,14.485c0.586,-0.338,0.787,-1.088,0.448,-1.674s-1.088,-0.787,-1.674,-0.448s-0.787,1.088,-0.448,1.674S11.158,14.823,11.744,14.485zM4.532,13.229c0.107,-0.186,0.345,-0.25,0.531,-0.142s0.25,0.345,0.142,0.531c-0.107,0.186,-0.345,0.25,-0.531,0.142C4.488,13.653,4.424,13.415,4.532,13.229zM8,14.652c0.215,0,0.389,-0.174,0.389,-0.389s-0.174,-0.389,-0.389,-0.389s-0.389,0.174,-0.389,0.389S7.785,14.652,8,14.652zM2.771,4.532c0.186,0.107,0.25,0.345,0.142,0.531c-0.107,0.186,-0.345,0.25,-0.531,0.142c-0.186,-0.107,-0.25,-0.345,-0.142,-0.531C2.347,4.488,2.585,4.424,2.771,4.532zM1.348,8c0,0.215,0.174,0.389,0.389,0.389s0.389,-0.174,0.389,-0.389s-0.174,-0.389,-0.389,-0.389S1.348,7.785,1.348,8zM2.239,11.326c0.107,0.186,0.345,0.25,0.531,0.142c0.186,-0.107,0.25,-0.345,0.142,-0.531c-0.107,-0.186,-0.345,-0.25,-0.531,-0.142S2.132,11.14,2.239,11.326zM4.674,2.239c-0.186,0.107,-0.25,0.345,-0.142,0.531c0.107,0.186,0.345,0.25,0.531,0.142c0.186,-0.107,0.25,-0.345,0.142,-0.531C5.098,2.196,4.86,2.132,4.674,2.239z" fill="#92CBEE" stroke="#0964B0" stroke-width="1" stroke-miterlimit="1"/>
  </g>
</svg>
