<?xml version="1.0" encoding="UTF-8"?>
<!DOCTYPE svg PUBLIC "-//W3C//DTD SVG 1.1//EN" "http://www.w3.org/Graphics/SVG/1.1/DTD/svg11.dtd">
<svg version="1.1" id="Layer_1" xmlns="http://www.w3.org/2000/svg" xmlns:xlink="http://www.w3.org/1999/xlink" x="0px" y="0px" width="16px" height="16px" viewBox="0 0 16 16" enable-background="new 0 0 16 16" xml:space="preserve">
  <g id="icon">
    <path d="M9.426,14.277l0.242,-0.065c1.665,-0.446,3.055,-1.512,3.915,-3c1.777,-3.078,0.719,-7.028,-2.359,-8.805c-0.977,-0.564,-2.088,-0.862,-3.212,-0.862c-2.303,0,-4.446,1.235,-5.594,3.222c-0.859,1.489,-1.087,3.225,-0.641,4.891l0.065,0.241l-1.317,0.353L0.46,10.01c-0.541,-2.017,-0.265,-4.122,0.777,-5.925C2.626,1.677,5.223,0.181,8.013,0.181c1.362,0,2.708,0.361,3.892,1.045c3.729,2.153,5.012,6.939,2.859,10.669c-1.041,1.804,-2.726,3.095,-4.743,3.635l-0.241,0.065L9.426,14.277z" fill="#238BCB"/>
  </g>
</svg>
