<?xml version="1.0" encoding="UTF-8"?>
<!DOCTYPE svg PUBLIC "-//W3C//DTD SVG 1.1//EN" "http://www.w3.org/Graphics/SVG/1.1/DTD/svg11.dtd">
<svg version="1.1" id="Layer_1" xmlns="http://www.w3.org/2000/svg" xmlns:xlink="http://www.w3.org/1999/xlink" x="0px" y="0px" width="16px" height="16px" viewBox="0 0 16 16" enable-background="new 0 0 16 16" xml:space="preserve">
  <g id="icon">
    <path d="M8,0C3.5888,0,0,3.5888,0,8s3.5888,8,8,8s8,-3.5888,8,-8S12.4112,0,8,0zM5,12H4V4h1V12zM7,12H6V4h1V12zM8,12.005v-8.01L13.7777,8L8,12.005z" fill="#6485C3"/>
    <path d="M8,12.005v-8.01L13.7777,8L8,12.005zM7,12H6V4h1V12zM5,12H4V4h1V12z" fill="#FFFFFF"/>
  </g>
</svg>
