<?xml version="1.0" encoding="UTF-8"?>
<!DOCTYPE svg PUBLIC "-//W3C//DTD SVG 1.1//EN" "http://www.w3.org/Graphics/SVG/1.1/DTD/svg11.dtd">
<svg version="1.1" id="Layer_1" xmlns="http://www.w3.org/2000/svg" xmlns:xlink="http://www.w3.org/1999/xlink" x="0px" y="0px" width="16px" height="16px" viewBox="0 0 16 16" enable-background="new 0 0 16 16" xml:space="preserve">
  <g id="icon">
    <path d="M12.3167,0.6H3.6833C1.9805,0.6,0.6,1.9805,0.6,3.6833v8.6333C0.6,14.0195,1.9805,15.4,3.6833,15.4h8.6333C14.0195,15.4,15.4,14.0195,15.4,12.3167V3.6833C15.4,1.9805,14.0195,0.6,12.3167,0.6z" fill="#FFFFFF" opacity="0.5"/>
    <path d="M12.3167,16H3.6833C1.6523,16,0,14.3477,0,12.3167V3.6833C0,1.6523,1.6523,0,3.6833,0h8.6333C14.3477,0,16,1.6523,16,3.6833v8.6333C16,14.3477,14.3477,16,12.3167,16zM3.6833,1.2C2.314,1.2,1.2,2.314,1.2,3.6833v8.6333C1.2,13.686,2.314,14.8,3.6833,14.8h8.6333C13.686,14.8,14.8,13.686,14.8,12.3167V3.6833C14.8,2.314,13.686,1.2,12.3167,1.2H3.6833z" fill="#6485C3"/>
    <path d="M12,12H9V4h3V12zM10,11h1V5h-1V11zM7,12H4V4h3V12zM5,11h1V5H5V11z" fill="#6485C3"/>
  </g>
</svg>
