<?xml version="1.0" encoding="UTF-8"?>
<!DOCTYPE svg PUBLIC "-//W3C//DTD SVG 1.1//EN" "http://www.w3.org/Graphics/SVG/1.1/DTD/svg11.dtd">
<svg version="1.1" id="Layer_1" xmlns="http://www.w3.org/2000/svg" xmlns:xlink="http://www.w3.org/1999/xlink" x="0px" y="0px" width="16px" height="16px" viewBox="0 0 16 16" enable-background="new 0 0 16 16" xml:space="preserve">
  <g id="icon">
    <path d="M8,0C3.5888,0,0,3.5888,0,8s3.5888,8,8,8s8,-3.5888,8,-8S12.4112,0,8,0zM9,12.9099L5.7106,10H3V6h2.7106L9,3.0901V12.9099zM10.4811,10.2346L9.6,9.7616c0.2901,-0.5404,0.4435,-1.1527,0.4435,-1.7708c0,-0.6245,-0.1564,-1.2425,-0.4523,-1.7872l0.8787,-0.4773c0.3752,0.6907,0.5736,1.4738,0.5736,2.2645C11.0435,8.7733,10.849,9.5492,10.4811,10.2346zM12.2586,11.2365l-0.8811,-0.4729c0.4536,-0.845,0.6934,-1.8022,0.6934,-2.7682c0,-0.976,-0.2445,-1.942,-0.7072,-2.7936l0.8787,-0.4773c0.542,0.9976,0.8285,2.1287,0.8285,3.2709C13.0709,9.1258,12.79,10.2465,12.2586,11.2365z" fill="#6485C3"/>
    <path d="M9,12.9099L5.7106,10H3V6h2.7106L9,3.0901V12.9099zM12.2586,11.2365l-0.8811,-0.4729c0.4536,-0.845,0.6934,-1.8022,0.6934,-2.7682c0,-0.976,-0.2445,-1.942,-0.7072,-2.7936l0.8787,-0.4773c0.542,0.9976,0.8285,2.1287,0.8285,3.2709C13.0709,9.1258,12.79,10.2465,12.2586,11.2365zM10.4811,10.2346L9.6,9.7616c0.2901,-0.5404,0.4435,-1.1527,0.4435,-1.7708c0,-0.6245,-0.1564,-1.2425,-0.4523,-1.7872l0.8787,-0.4773c0.3752,0.6907,0.5736,1.4738,0.5736,2.2645C11.0435,8.7733,10.849,9.5492,10.4811,10.2346z" fill="#FFFFFF"/>
  </g>
</svg>
