<?xml version="1.0" encoding="UTF-8"?>
<!DOCTYPE svg PUBLIC "-//W3C//DTD SVG 1.1//EN" "http://www.w3.org/Graphics/SVG/1.1/DTD/svg11.dtd">
<svg version="1.1" id="Layer_1" xmlns="http://www.w3.org/2000/svg" xmlns:xlink="http://www.w3.org/1999/xlink" x="0px" y="0px" width="16px" height="16px" viewBox="0 0 16 16" enable-background="new 0 0 16 16" xml:space="preserve">
  <g id="icon">
    <path d="M13,15h-1V6.5h1V15zM8,15H7V9.5h1V15zM3,15H2v-2.5h1V15zM3,9.5H2V1h1V9.5zM8,6.5H7V1h1V6.5zM13,3.5h-1V1h1V3.5z" fill="#6D6E71"/>
    <path d="M14.525,4h-4.05c-0.2623,0,-0.475,0.2127,-0.475,0.475v1.05c0,0.2623,0.2127,0.475,0.475,0.475h4.05c0.2623,0,0.475,-0.2127,0.475,-0.475v-1.05C15,4.2127,14.7873,4,14.525,4zM9.525,7h-4.05C5.2127,7,5,7.2127,5,7.475v1.05c0,0.2623,0.2127,0.475,0.475,0.475h4.05c0.2623,0,0.475,-0.2127,0.475,-0.475v-1.05C10,7.2127,9.7873,7,9.525,7zM4.525,10H0.475C0.2127,10,0,10.2127,0,10.475v1.05c0,0.2623,0.2127,0.475,0.475,0.475h4.05c0.2623,0,0.475,-0.2127,0.475,-0.475v-1.05C5,10.2127,4.7873,10,4.525,10z" fill="#52B250"/>
  </g>
</svg>
