<?xml version="1.0" encoding="UTF-8"?>
<!DOCTYPE svg PUBLIC "-//W3C//DTD SVG 1.1//EN" "http://www.w3.org/Graphics/SVG/1.1/DTD/svg11.dtd">
<svg version="1.1" id="Layer_1" xmlns="http://www.w3.org/2000/svg" xmlns:xlink="http://www.w3.org/1999/xlink" x="0px" y="0px" width="16px" height="16px" viewBox="0 0 16 16" enable-background="new 0 0 16 16" xml:space="preserve">
  <g id="icon">
    <polygon points="15,15 4,15 4,1 11,1 11,5.0125 15,5" fill="#FFFFFF" stroke-linejoin="miter" opacity="0.4"/>
    <polygon points="11.3625,0 3,0 3,9 4,9 4,1 11,1 11,5.0125 15,5 15,8 15,8 15,9 16,9 16,4.65" fill="#6D6E71" stroke-linejoin="miter"/>
    <path d="M6,16H5v-3.2983L3.9205,14.8h-0.6872L2,12.6374V16H1v-6h0.8459l1.7227,3.1591L5.1502,10H6V16zM8,13.8h0.4056c0.2997,0,0.5807,-0.0446,0.8352,-0.1325c0.2611,-0.0901,0.4913,-0.2183,0.6835,-0.3803c0.2015,-0.1693,0.3604,-0.3753,0.4727,-0.6136c0.1112,-0.2377,0.1676,-0.498,0.1676,-0.7736c0,-0.6275,-0.2066,-1.1128,-0.6145,-1.4426c-0.376,-0.3035,-0.8957,-0.4574,-1.5445,-0.4574H7v6h1V13.8zM8,11h0.4056c0.4144,0,0.7227,0.0792,0.916,0.2353c0.0601,0.0486,0.2429,0.1964,0.2429,0.6647c0,0.1299,-0.024,0.2444,-0.0728,0.3486c-0.0504,0.1069,-0.1193,0.1961,-0.2113,0.2735c-0.0984,0.083,-0.2216,0.1503,-0.366,0.2002C8.7652,12.7739,8.594,12.8,8.4056,12.8H8V11zM13.372,16c-0.3507,0,-0.6735,-0.0747,-0.9592,-0.2221c-0.2887,-0.1495,-0.5359,-0.3658,-0.7353,-0.6434c-0.191,-0.2664,-0.3377,-0.5872,-0.4363,-0.9538c-0.0951,-0.3522,-0.1433,-0.7496,-0.1433,-1.1806c0,-0.4294,0.0478,-0.8254,0.1419,-1.1771c0.0982,-0.3675,0.244,-0.6883,0.4331,-0.9531c0.1978,-0.2769,0.4412,-0.4933,0.7234,-0.6432c0.2828,-0.1504,0.6008,-0.2268,0.9449,-0.2268c0.1616,0,0.3141,0.014,0.4531,0.0416c0.1478,0.0294,0.2876,0.0751,0.4157,0.1361c0.1278,0.06,0.2524,0.1398,0.3684,0.2361c0.1071,0.0899,0.2101,0.1934,0.3081,0.3091l0.3134,0.3704l-0.6912,0.6718l-0.3134,-0.3704c-0.0625,-0.0739,-0.1266,-0.1384,-0.1904,-0.192c-0.0536,-0.0445,-0.1119,-0.0821,-0.1715,-0.1101c-0.0635,-0.0302,-0.1332,-0.0526,-0.2092,-0.0677c-0.0831,-0.0165,-0.1783,-0.0249,-0.283,-0.0249c-0.2017,0,-0.3751,0.0401,-0.5302,0.1226c-0.1555,0.0826,-0.2853,0.1987,-0.397,0.3551c-0.1179,0.1651,-0.2111,0.374,-0.2771,0.621c-0.0702,0.2622,-0.1058,0.5654,-0.1058,0.9014c0,0.337,0.0359,0.6408,0.1067,0.9032c0.0662,0.2463,0.1602,0.4552,0.2794,0.6214c0.1113,0.155,0.2426,0.2703,0.4009,0.3523c0.16,0.0825,0.3414,0.1228,0.5539,0.1228c0.0983,0,0.191,-0.0095,0.2755,-0.0281c0.0855,-0.0188,0.1674,-0.0457,0.2435,-0.0798c0.0763,-0.0341,0.1508,-0.0765,0.2219,-0.1264c0.0216,-0.0151,0.043,-0.0309,0.0644,-0.0471v-0.6777h-0.9348v-1h1.8679v2.1526l-0.1642,0.1498c-0.1032,0.0941,-0.2116,0.1813,-0.3221,0.2589c-0.1197,0.0839,-0.2452,0.1553,-0.3738,0.2127c-0.1307,0.0586,-0.2704,0.1045,-0.4146,0.1364C13.6894,15.9836,13.5334,16,13.372,16z" fill="#9070B1"/>
  </g>
</svg>
