<?xml version="1.0" encoding="UTF-8"?>
<!DOCTYPE svg PUBLIC "-//W3C//DTD SVG 1.1//EN" "http://www.w3.org/Graphics/SVG/1.1/DTD/svg11.dtd">
<svg version="1.1" id="Layer_1" xmlns="http://www.w3.org/2000/svg" xmlns:xlink="http://www.w3.org/1999/xlink" x="0px" y="0px" width="16px" height="16px" viewBox="0 0 16 16" enable-background="new 0 0 16 16" xml:space="preserve">
  <g id="icon">
    <path d="M11.925,15.5h-9.85C1.2052,15.5,0.5,14.7948,0.5,13.925v-8.85C0.5,4.2052,1.2052,3.5,2.075,3.5h9.85c0.8698,0,1.575,0.7052,1.575,1.575v8.85C13.5,14.7948,12.7948,15.5,11.925,15.5zM11.5,12.5H2.5V6.5h9V12.5z" fill="#FFFFFF" opacity="0.5"/>
    <path d="M13.925,0.5h-9.85c-0.8445,0,-1.5318,0.6652,-1.5712,1.5h9.4212C13.6206,2,15,3.3794,15,5.075v7.6989c0.307,-0.2874,0.5,-0.6951,0.5,-1.1489v-9.55C15.5,1.2052,14.7948,0.5,13.925,0.5z" fill="#FFFFFF" opacity="0.5"/>
    <path d="M13.925,0h-9.85C2.9556,0,2.0427,0.8917,2.0037,2.0018C2.0275,2.0013,2.0511,2,2.075,2h0.9288c0.0388,-0.5578,0.5037,-1,1.0712,-1h9.85c0.5928,0,1.075,0.4822,1.075,1.075v3v6.55v1.7714c0.5983,-0.3645,1,-1.0211,1,-1.7714v-9.55C16,0.9309,15.0691,0,13.925,0z" fill="#6D6E71"/>
    <path d="M11.925,16h-9.85C0.9309,16,0,15.0691,0,13.925v-8.85C0,3.9309,0.9309,3,2.075,3h9.85C13.0691,3,14,3.9309,14,5.075v8.85C14,15.0691,13.0691,16,11.925,16zM2.075,4C1.4822,4,1,4.4822,1,5.075v8.85c0,0.5928,0.4822,1.075,1.075,1.075h9.85c0.5928,0,1.075,-0.4822,1.075,-1.075v-8.85c0,-0.5928,-0.4822,-1.075,-1.075,-1.075H2.075z" fill="#6D6E71"/>
    <path d="M12,13H2V6h10V13zM3,12h8V7H3V12z" fill="#6485C3"/>
    <rect x="3" y="7" width="8" height="5" fill="#6485C3" opacity="0.3"/>
  </g>
</svg>
