<?xml version="1.0" encoding="UTF-8"?>
<!DOCTYPE svg PUBLIC "-//W3C//DTD SVG 1.1//EN" "http://www.w3.org/Graphics/SVG/1.1/DTD/svg11.dtd">
<svg version="1.1" id="Layer_1" xmlns="http://www.w3.org/2000/svg" xmlns:xlink="http://www.w3.org/1999/xlink" x="0px" y="0px" width="16px" height="16px" viewBox="0 0 16 16" enable-background="new 0 0 16 16" xml:space="preserve">
  <g id="icon">
    <path d="M4.5,10.5H0.5V5.5h4l4,-3.4v11.8L4.5,10.5z" fill="#FFFFFF" opacity="0.5"/>
    <path d="M8.7486,14.7675L4.3162,11H0V5h4.3162l4.4324,-3.7675C8.8477,1.1483,9,1.2187,9,1.3488v13.3024C9,14.7813,8.8477,14.8517,8.7486,14.7675zM1,10h3.6838L8,12.8188V3.1812L4.6838,6H1V10z" fill="#6485C3"/>
    <path d="M10.2101,10.7101l-0.4202,-0.4202c-0.0792,-0.0792,-0.0792,-0.2077,0,-0.2869l2.0138,-2.0138L9.8115,5.997c-0.0792,-0.0792,-0.0792,-0.2077,0,-0.2869l0.4202,-0.4202c0.0792,-0.0792,0.2077,-0.0792,0.2869,0l1.9922,1.9922l1.9706,-1.9706c0.0792,-0.0792,0.2077,-0.0792,0.2869,0l0.4202,0.4202c0.0792,0.0792,0.0792,0.2077,0,0.2869l-1.9706,1.9706l1.9922,1.9922c0.0792,0.0792,0.0792,0.2077,0,0.2869l-0.4202,0.4202c-0.0792,0.0792,-0.2077,0.0792,-0.2869,0l-1.9922,-1.9922l-2.0138,2.0138C10.4178,10.7893,10.2893,10.7893,10.2101,10.7101z" fill="#6D6E71"/>
  </g>
</svg>
