<?xml version="1.0" encoding="UTF-8"?>
<!DOCTYPE svg PUBLIC "-//W3C//DTD SVG 1.1//EN" "http://www.w3.org/Graphics/SVG/1.1/DTD/svg11.dtd">
<svg version="1.1" id="Layer_1" xmlns="http://www.w3.org/2000/svg" xmlns:xlink="http://www.w3.org/1999/xlink" x="0px" y="0px" width="16px" height="16px" viewBox="0 0 16 16" enable-background="new 0 0 16 16" xml:space="preserve">
  <g id="icon">
    <path d="M15.5,12.5H0.5V1.5h15V12.5z" fill="#FFFFFF" opacity="0.5"/>
    <path d="M16,13V1H0v12h7.5v1H4v1h8v-1H8.5v-1H16zM1,2h14v10H1V2z" fill="#6D6E71"/>
    <path d="M13.383,5.7713c-0.1362,-0.3728,-0.332,-0.6953,-0.5821,-0.9585c-0.2531,-0.2664,-0.5589,-0.4715,-0.9091,-0.6099C11.5511,4.0683,11.1733,4,10.7689,4H9v6h1.7689c0.4045,0,0.7823,-0.0683,1.1229,-0.2028c0.3501,-0.1382,0.656,-0.3435,0.9091,-0.61c0.2501,-0.2632,0.4459,-0.5857,0.5821,-0.9585c0.1327,-0.3633,0.2,-0.7767,0.2,-1.2287C13.583,6.548,13.5157,6.1347,13.383,5.7713zM12.4438,7.8855c-0.0889,0.2434,-0.2127,0.4496,-0.3678,0.6129c-0.1543,0.1624,-0.3347,0.283,-0.5515,0.3687c-0.2231,0.0881,-0.4773,0.1329,-0.7555,0.1329H10V5h0.7689c0.278,0,0.5322,0.0447,0.7555,0.1329c0.2168,0.0856,0.3973,0.2063,0.5515,0.3686c0.1551,0.1633,0.2789,0.3696,0.3678,0.6129c0.0924,0.2531,0.1393,0.551,0.1393,0.8856C12.583,7.3346,12.5361,7.6326,12.4438,7.8855zM7,4h1v2.5v0.5v3H7V7.5H4v2.5H3V7v-0.5V4h1v2.5h3V4z" fill="#9070B1"/>
  </g>
</svg>
