<?xml version="1.0" encoding="UTF-8"?>
<!DOCTYPE svg PUBLIC "-//W3C//DTD SVG 1.1//EN" "http://www.w3.org/Graphics/SVG/1.1/DTD/svg11.dtd">
<svg version="1.1" id="Layer_1" xmlns="http://www.w3.org/2000/svg" xmlns:xlink="http://www.w3.org/1999/xlink" x="0px" y="0px" width="16px" height="16px" viewBox="0 0 16 16" enable-background="new 0 0 16 16" xml:space="preserve">
  <g id="icon">
    <path d="M7.6083,5.3h4.8833C13.0486,5.3,13.5,5.7514,13.5,6.3083V8.5H6.6V6.3083C6.6,5.7514,7.0514,5.3,7.6083,5.3z" fill="#6485C3"/>
    <path d="M14,14v-2H2v2H0V4.0228c0,-0.7176,0.5031,-1.0931,1,-1.0931s1,0.3755,1,1.0931V9h12V5.7114c0,-0.7177,0.5031,-1.0931,1,-1.0931s1,0.3755,1,1.0931V14H14z" fill="#7B7B7B"/>
    <path d="M4.8067,4.5789c0.9997,0.2674,1.6488,1.0851,1.4498,1.8264c-0.199,0.7413,-1.1707,1.1255,-2.1704,0.8581C3.0864,6.996,2.4373,6.1783,2.6363,5.437C2.8353,4.6957,3.807,4.3115,4.8067,4.5789z" fill="#6485C3"/>
  </g>
</svg>
