<?xml version="1.0" encoding="UTF-8"?>
<!DOCTYPE svg PUBLIC "-//W3C//DTD SVG 1.1//EN" "http://www.w3.org/Graphics/SVG/1.1/DTD/svg11.dtd">
<svg version="1.1" id="Layer_1" xmlns="http://www.w3.org/2000/svg" xmlns:xlink="http://www.w3.org/1999/xlink" x="0px" y="0px" width="16px" height="16px" viewBox="0 0 16 16" enable-background="new 0 0 16 16" xml:space="preserve">
  <g id="icon">
    <path d="M13.0737,3.0433c-0.1134,-1.0896,-0.5973,-2.0397,-1.2943,-2.5415c-0.2794,-0.2011,-0.6159,-0.3031,-1.0003,-0.3031c-0.5742,0,-1.1747,0.2254,-1.7554,0.4433c-0.4081,0.1531,-0.8283,0.3109,-1.147,0.3481c-0.3205,-0.0324,-0.7417,-0.1605,-1.1513,-0.2853c-0.5936,-0.1809,-1.2075,-0.368,-1.7815,-0.368c-0.4241,0,-0.788,0.1051,-1.082,0.3123c-0.4931,0.3278,-0.8685,0.9806,-1.0311,1.7944c-0.255,1.2768,0.0432,2.698,0.7966,3.7996c0.0894,0.1436,0.2679,0.8606,0.1402,1.6246c-0.0986,0.5901,-0.2059,4.3698,0.5427,6.1025c0.4664,1.0796,0.7153,1.5985,1.2703,1.5985c0.1914,0,0.3771,-0.0805,0.5094,-0.221c0.2216,-0.2351,0.2486,-0.5564,0.2205,-1.0281c-0.0067,-0.2235,0.1393,-1.5785,0.4545,-2.931c0.486,-2.0852,0.9635,-2.4661,1.0486,-2.5187l0.0682,-0.0027l0.0495,0.0019c0.0897,0.0729,0.5203,0.5292,0.8381,2.7408c0.2023,1.4073,0.248,2.8021,0.2363,2.9988c-0.0265,0.4467,-0.0269,0.7575,0.1997,0.9976c0.1281,0.1358,0.3081,0.2137,0.4938,0.2137c0.0002,0,0.0005,0,0.0006,0c0.4598,-0.0004,0.6538,-0.4018,0.758,-0.6174c0.0831,-0.1719,0.1809,-0.4011,0.3048,-0.6914c0.051,-0.1195,0.1059,-0.2483,0.165,-0.3849c0.7191,-1.6643,1.0607,-5.7902,0.953,-6.4346c-0.099,-0.5923,0.137,-1.0321,0.3537,-1.349C12.8963,5.3748,13.1945,4.2029,13.0737,3.0433zM9.9913,12.3c-0.2519,-1.0076,-0.1228,-5.1141,-2.1774,-5.4571C5.7461,7.1859,5.6055,11.2924,5.3536,12.3c-0.3938,-2.2476,-0.6772,-2.2476,0.3901,-5.7239c-0.7014,-1.0023,-0.8132,-2.7792,-0.5123,-2.98c0.2785,-0.1859,1.7959,0.9465,2.5203,1.1158c0.7245,-0.1693,2.2418,-1.3016,2.5203,-1.1158c0.3009,0.2008,0.0642,1.9776,-0.6372,2.98C10.7022,10.0524,10.3851,10.0524,9.9913,12.3z" fill="#6485C3"/>
    <path d="M10.2721,3.5961c-0.2785,-0.1859,-1.7959,0.9465,-2.5203,1.1158c-0.7244,-0.1693,-2.2418,-1.3016,-2.5203,-1.1158c-0.3009,0.2008,-0.1891,1.9776,0.5123,2.98c-1.0673,3.4763,-0.7839,3.4763,-0.3901,5.7239c0.2519,-1.0076,0.3925,-5.114,2.4603,-5.4571C9.8685,7.186,9.7393,11.2924,9.9913,12.3c0.3938,-2.2476,0.7109,-2.2476,-0.3564,-5.7239C10.3363,5.5738,10.5729,3.7969,10.2721,3.5961z" fill="#FFFFFF" opacity="0.5"/>
    <path d="M10.2721,3.5961c-0.2785,-0.1859,-1.7959,0.9465,-2.5203,1.1158c-0.7244,-0.1693,-2.2418,-1.3016,-2.5203,-1.1158c-0.3009,0.2008,-0.1891,1.9776,0.5123,2.98c-1.0673,3.4763,-0.7839,3.4763,-0.3901,5.7239c0.2519,-1.0076,0.3925,-5.114,2.4603,-5.4571C9.8685,7.186,9.7393,11.2924,9.9913,12.3c0.3938,-2.2476,0.7109,-2.2476,-0.3564,-5.7239C10.3363,5.5738,10.5729,3.7969,10.2721,3.5961z" fill="#6485C3" opacity="0.15"/>
  </g>
</svg>
