<?xml version="1.0" encoding="UTF-8"?>
<!DOCTYPE svg PUBLIC "-//W3C//DTD SVG 1.1//EN" "http://www.w3.org/Graphics/SVG/1.1/DTD/svg11.dtd">
<svg version="1.1" id="Layer_1" xmlns="http://www.w3.org/2000/svg" xmlns:xlink="http://www.w3.org/1999/xlink" x="0px" y="0px" width="16px" height="16px" viewBox="0 0 16 16" enable-background="new 0 0 16 16" xml:space="preserve">
  <g id="icon">
    <path d="M12.9815,10.3004c-0.2372,0,-0.4468,-0.1511,-0.5216,-0.376l-0.5197,-1.5637l-1.5635,-0.5197c-0.225,-0.0747,-0.3761,-0.2842,-0.3762,-0.5213c0,-0.2372,0.1511,-0.4468,0.3761,-0.5216l1.5636,-0.5197l0.5197,-1.5635c0.0748,-0.225,0.2844,-0.3762,0.5215,-0.3762c0.2372,0.0001,0.4468,0.1513,0.5215,0.3764l0.5197,1.5633l1.5635,0.5197c0.225,0.0749,0.3762,0.2845,0.3762,0.5216c0,0.2371,-0.1512,0.4466,-0.3762,0.5213l-1.5634,0.5196l-0.5197,1.5635C13.4281,10.1492,13.2186,10.3004,12.9815,10.3004L12.9815,10.3004zM14.0774,6.4434l0.0001,0.0004l0.096,-0.028L14.0774,6.4434zM3.0356,7.1213c-0.2372,0,-0.4467,-0.1512,-0.5215,-0.3762l-0.5197,-1.5634L0.431,4.6619c-0.225,-0.0748,-0.3761,-0.2842,-0.3762,-0.5213c0,-0.2371,0.1511,-0.4467,0.376,-0.5216l1.5636,-0.5197l0.5197,-1.5635c0.0747,-0.225,0.2842,-0.3761,0.5213,-0.3762c0.2372,0,0.4468,0.1512,0.5216,0.3761l0.5197,1.5636l1.5635,0.5197c0.225,0.0749,0.3763,0.2845,0.3762,0.5216c-0.0001,0.2371,-0.1513,0.4466,-0.3764,0.5213l-1.5633,0.5197l-0.5197,1.5635C3.4823,6.9701,3.2727,7.1213,3.0356,7.1213L3.0356,7.1213zM3.9114,5.2366l0.0281,0.0959l-0.0278,-0.096L3.9114,5.2366zM2.1265,5.3308l0.002,0.0008l0.0347,-0.0938L2.1265,5.3308zM1.8435,5.0442l0.002,0.006l0.0941,-0.0335L1.8435,5.0442zM4.1315,5.017l0.0957,0.0292l-0.0956,-0.0296L4.1315,5.017z" fill="#EEAC55"/>
    <path d="M11.5111,10.24l-0.3618,-1.0884l-1.088,-0.3616c-0.6341,-0.2106,-1.0605,-0.8013,-1.0608,-1.4699c-0.0001,-0.6688,0.426,-1.2598,1.0604,-1.4709l1.0883,-0.3617l0.3616,-1.088c0.2109,-0.6345,0.8019,-1.0608,1.4705,-1.0608c0.0395,0,0.0786,0.0018,0.1175,0.0047c-0.0025,-0.1433,-0.0107,-0.2867,-0.0253,-0.43c-0.1139,-1.116,-0.5997,-2.0891,-1.2995,-2.6031C11.4937,0.1044,11.1558,0,10.7698,0c-0.5765,0,-1.1794,0.2308,-1.7624,0.4541c-0.4097,0.1569,-0.8316,0.3184,-1.1516,0.3565c-0.3218,-0.0332,-0.7447,-0.1644,-1.1559,-0.2923c-0.596,-0.1853,-1.2123,-0.3769,-1.7886,-0.3769c-0.3949,0,-0.737,0.0938,-1.0202,0.2765c0.2821,0.1868,0.5027,0.4646,0.615,0.8023l0.3617,1.0882l1.088,0.3616c0.6347,0.2111,1.0609,0.8021,1.0608,1.4708c-0.0003,0.6688,-0.4268,1.2596,-1.0613,1.4702l-1.0875,0.3615l-0.3616,1.088c-0.1347,0.4049,-0.4244,0.7242,-0.7898,0.9029c-0.0933,0.8576,-0.1574,4.4505,0.5588,6.1418c0.4683,1.1058,0.7181,1.6373,1.2753,1.6373c0.1922,0,0.3786,-0.0825,0.5114,-0.2263c0.2225,-0.2408,0.2496,-0.5699,0.2214,-1.053c-0.0067,-0.2289,0.1399,-1.6167,0.4563,-3.0021c0.488,-2.1357,0.9674,-2.5258,1.0528,-2.5797l0.0685,-0.0027l0.0497,0.002c0.0901,0.0747,0.5224,0.542,0.8415,2.8072c0.2031,1.4414,0.249,2.87,0.2373,3.0715c-0.0266,0.4575,-0.0271,0.7758,0.2005,1.0218c0.1286,0.1391,0.3093,0.2189,0.4958,0.2189c0.0002,0,0.0005,0,0.0006,0c0.4616,-0.0005,0.6564,-0.4115,0.761,-0.6323c0.0834,-0.1761,0.1816,-0.4109,0.306,-0.7081c0.0512,-0.1224,0.1064,-0.2543,0.1657,-0.3943c0.3569,-0.8426,0.6209,-2.301,0.7839,-3.6405C11.623,10.5079,11.5574,10.3794,11.5111,10.24z" fill="#6485C3"/>
  </g>
</svg>
