<?xml version="1.0" encoding="UTF-8"?>
<!DOCTYPE svg PUBLIC "-//W3C//DTD SVG 1.1//EN" "http://www.w3.org/Graphics/SVG/1.1/DTD/svg11.dtd">
<svg version="1.1" id="Layer_1" xmlns="http://www.w3.org/2000/svg" xmlns:xlink="http://www.w3.org/1999/xlink" x="0px" y="0px" width="16px" height="16px" viewBox="0 0 16 16" enable-background="new 0 0 16 16" xml:space="preserve">
  <g id="icon">
    <path d="M11.1676,7.0424c-3.5999,3.5934,-5.6629,5.194,-7.023,6.183c-0.8567,0.623,-1.5333,1.115,-2.4525,2.0325c-0.12,0.1198,-0.2622,0.1831,-0.4111,0.1831c-0.2382,0,-0.4663,-0.1639,-0.5676,-0.4078c-0.0961,-0.2316,-0.0507,-0.4724,0.1215,-0.6443c0.9518,-0.95,1.4534,-1.6643,2.0885,-2.5686c0.9735,-1.3861,2.5554,-3.4808,6.0309,-6.95" fill="#FFFFFF" opacity="0.5"/>
    <path d="M1.3252,16c-0.4809,0,-0.9345,-0.3145,-1.1288,-0.7827c-0.191,-0.4605,-0.0938,-0.9621,0.2537,-1.3089c0.9075,-0.9059,1.392,-1.5958,2.0056,-2.4694c1.0246,-1.4589,2.6391,-3.571,6.0576,-6.9833l0.0394,-0.0393l0.8643,0.868l-0.0394,0.0393C6.0261,8.669,4.453,10.7258,3.4569,12.144c-0.5698,0.8114,-1.0343,1.4728,-1.807,2.2882c0.7757,-0.7349,1.3974,-1.187,2.1587,-1.7406c1.3939,-1.0136,3.4381,-2.6205,6.9026,-6.0788l0.0394,-0.0393l0.8643,0.868l-0.0394,0.0393c-3.5247,3.5184,-5.6174,5.1626,-7.0469,6.2021c-0.8295,0.6032,-1.4844,1.0795,-2.363,1.9565C1.9327,15.8719,1.6342,16,1.3252,16z" fill="#6D6E71"/>
    <path d="M12.4302,7.851c-0.2818,0,-0.5467,-0.1095,-0.746,-0.3084L8.2563,4.121c-0.4113,-0.4106,-0.4113,-1.0787,0,-1.4893c0.1993,-0.1989,0.4642,-0.3084,0.746,-0.3084c0.2818,0,0.5467,0.1095,0.746,0.3084l0.2118,0.2114c0.041,-0.1465,0.1193,-0.2808,0.2301,-0.3914c0.0091,-0.0091,0.9354,-0.9319,0.9944,-0.9855c0.6486,-0.5905,1.3628,-0.9026,2.0655,-0.9026c0.8407,0,1.57,0.4596,1.9033,1.1994c0.4003,0.8888,0.1472,1.973,-0.6769,2.9001c-0.0683,0.0768,-1.0204,1.0303,-1.0297,1.0396c-0.1107,0.1105,-0.2452,0.1886,-0.392,0.2296l0.1214,0.1212c0.4113,0.4106,0.4113,1.0787,0,1.4893C12.9769,7.7415,12.712,7.851,12.4302,7.851z" fill="#FFFFFF" opacity="0.5"/>
    <path d="M12.3972,8.4626c-0.4429,0,-0.8595,-0.1723,-1.173,-0.4851L7.8202,4.5795c-0.3136,-0.313,-0.4863,-0.7298,-0.4863,-1.1735c0.0001,-0.4437,0.1727,-0.8604,0.4863,-1.1734c0.3135,-0.3128,0.73,-0.4851,1.173,-0.4851c0.294,0,0.5806,0.0768,0.8317,0.2225c0.5703,-0.5678,0.881,-0.8753,0.9234,-0.9141C11.5071,0.3651,12.3588,0,13.2115,0c1.0788,0,2.0168,0.5947,2.448,1.5519c0.4997,1.1097,0.2108,2.4328,-0.7729,3.5393c-0.0696,0.0781,-0.6939,0.7046,-0.9896,1.0008c0.1058,0.2223,0.1595,0.4616,0.1595,0.7119c0,0.4437,-0.1727,0.8604,-0.4863,1.1734C13.2568,8.2903,12.8402,8.4626,12.3972,8.4626zM8.9931,2.9731c-0.1185,0,-0.2252,0.0441,-0.3087,0.1275c-0.0816,0.0814,-0.1264,0.1898,-0.1264,0.3054c0,0.1157,0.0449,0.2242,0.1264,0.3056l3.4041,3.3979c0.0835,0.0834,0.1902,0.1275,0.3087,0.1275c0.1185,0,0.2252,-0.0441,0.3087,-0.1275c0.0816,-0.0814,0.1264,-0.1899,0.1264,-0.3055c0,-0.1156,-0.0449,-0.2241,-0.1264,-0.3055l-0.864,-0.8623l1.0112,-0.2823c0.0459,-0.0128,0.0868,-0.0369,0.1217,-0.0717c0.3682,-0.3688,0.941,-0.9447,1.0007,-1.0095c0.6508,-0.7321,0.8634,-1.5612,0.5681,-2.2169c-0.2307,-0.512,-0.7411,-0.8301,-1.3322,-0.8301c-0.543,0,-1.1099,0.2548,-1.6395,0.7369c-0.0415,0.0391,-0.456,0.4503,-0.9636,0.9558c-0.0375,0.0374,-0.062,0.0779,-0.0748,0.1236l-0.282,1.0068l-0.9499,-0.9482C9.2183,3.0172,9.1116,2.9731,8.9931,2.9731z" fill="#9070B1"/>
  </g>
</svg>
