<?xml version="1.0" encoding="UTF-8"?>
<!DOCTYPE svg PUBLIC "-//W3C//DTD SVG 1.1//EN" "http://www.w3.org/Graphics/SVG/1.1/DTD/svg11.dtd">
<svg version="1.1" id="Layer_1" xmlns="http://www.w3.org/2000/svg" xmlns:xlink="http://www.w3.org/1999/xlink" x="0px" y="0px" width="16px" height="16px" viewBox="0 0 16 16" enable-background="new 0 0 16 16" xml:space="preserve">
  <g id="icon">
    <g>
      <path d="M14.8914,2.8557l1.0292,-1.0292c0.1058,-0.1058,0.1058,-0.2773,0,-0.383L14.6699,0.1926c-0.1058,-0.1058,-0.2773,-0.1058,-0.383,0l-1.0292,1.0292L14.8914,2.8557z" fill="#7B7B7B"/>
      <polygon points="9.0628,5.4166 7.382,7.0974 5.4831,8.9963 7.117,10.6301 8.4984,9.2487 10.6967,7.0504" fill="#7B7B7B" stroke-linejoin="miter"/>
      <path d="M1.2833,13.186L0.1926,14.2203c-0.1058,0.1058,-0.1058,0.2773,0,0.383l1.2508,1.2508c0.1058,0.1058,0.2773,0.1058,0.383,0l1.0907,-1.0343L1.2833,13.186z" fill="#7B7B7B"/>
    </g>
    <path d="M14.6929,6.6672c0.336,0.4523,0.3002,1.0938,-0.1101,1.5042c-0.4512,0.4512,-1.1827,0.4512,-1.6338,0l-5.007,-5.007c-0.4512,-0.4512,-0.4512,-1.1827,0,-1.6338c0.4103,-0.4103,1.0519,-0.4462,1.5042,-0.1101c-0.0265,-0.3262,0.0843,-0.6615,0.3339,-0.911c0.4512,-0.4512,1.1827,-0.4512,1.6338,0l4.1901,4.1901c0.4512,0.4512,0.4512,1.1827,0,1.6338C15.3544,6.5828,15.0191,6.6937,14.6929,6.6672zM3.2309,7.8754c-0.4512,-0.4512,-1.1827,-0.4512,-1.6338,0c-0.4103,0.4103,-0.4462,1.0519,-0.1101,1.5042c-0.3262,-0.0265,-0.6615,0.0843,-0.911,0.3339c-0.4512,0.4512,-0.4512,1.1827,0,1.6338l4.1901,4.1901c0.4512,0.4512,1.1827,0.4512,1.6338,0c0.2495,-0.2495,0.3604,-0.5848,0.3339,-0.911c0.4523,0.336,1.0938,0.3002,1.5042,-0.1101c0.4512,-0.4512,0.4512,-1.1827,0,-1.6338L3.2309,7.8754z" fill="#6485C3"/>
  </g>
</svg>
