<?xml version="1.0" encoding="UTF-8"?>
<!DOCTYPE svg PUBLIC "-//W3C//DTD SVG 1.1//EN" "http://www.w3.org/Graphics/SVG/1.1/DTD/svg11.dtd">
<svg version="1.1" id="Layer_1" xmlns="http://www.w3.org/2000/svg" xmlns:xlink="http://www.w3.org/1999/xlink" x="0px" y="0px" width="16px" height="16px" viewBox="0 0 16 16" enable-background="new 0 0 16 16" xml:space="preserve">
  <g id="icon">
    <path d="M15.4994,4.9607c0,-4.3477,-4.9134,-6.2303,-7.4994,-2.2499C5.414,-1.2696,0.5006,0.613,0.5006,4.9607C0.5006,10.0261,8,15.1899,8,15.1899S15.4994,10.0261,15.4994,4.9607z" fill="#FFFFFF" opacity="0.5"/>
    <path d="M7.6667,15.7678C7.3537,15.5496,0,10.3642,0,5.042C0,2.6992,1.2803,0.7925,3.2617,0.1845c0.3988,-0.1223,0.807,-0.1844,1.2134,-0.1844c1.3095,0,2.5571,0.633,3.5249,1.7852C8.9679,0.633,10.2154,0,11.5247,0c0.4065,0,0.8148,0.0621,1.2136,0.1845C14.7197,0.7925,16,2.6992,16,5.042c0,5.3222,-7.3537,10.5077,-7.6667,10.7259L8,16L7.6667,15.7678zM4.4856,1.2128c-0.2941,0,-0.5915,0.0455,-0.8839,0.1352c-1.4679,0.4504,-2.4164,1.9004,-2.4164,3.694c0,4.1154,5.5448,8.5223,6.8147,9.4772c1.2699,-0.9549,6.8147,-5.3617,6.8147,-9.4772c0,-1.7936,-0.9485,-3.2436,-2.4164,-3.694c-0.2922,-0.0897,-0.5895,-0.1352,-0.8838,-0.1352c-1.1546,0,-2.2269,0.6798,-3.0194,1.9142L8,3.8981l-0.4951,-0.7711C6.7123,1.8926,5.6401,1.2128,4.4856,1.2128z" fill="#CB525D"/>
    <path d="M4.7408,8.9721c-0.2673,0,-0.5189,-0.0564,-0.7481,-0.1678c-0.2279,-0.1107,-0.4269,-0.2711,-0.5915,-0.4767c-0.1581,-0.1975,-0.2817,-0.436,-0.3672,-0.7089c-0.0826,-0.2636,-0.1245,-0.5606,-0.1245,-0.8827c0,-0.3122,0.042,-0.6038,0.1247,-0.8668c0.0855,-0.2719,0.2101,-0.5112,0.3704,-0.7112c0.1665,-0.2078,0.3697,-0.371,0.604,-0.4852c0.2357,-0.1148,0.4966,-0.173,0.7756,-0.173c0.1273,0,0.2501,0.0117,0.365,0.0348c0.1187,0.0239,0.2332,0.0604,0.3404,0.1087c0.1031,0.0464,0.2035,0.1041,0.2981,0.1714c0.0895,0.0638,0.1775,0.1377,0.262,0.2199l-0.5853,0.6019c-0.0541,-0.0526,-0.1092,-0.099,-0.1638,-0.138c-0.0498,-0.0354,-0.1021,-0.0656,-0.1554,-0.0896c-0.0501,-0.0225,-0.1044,-0.0398,-0.1614,-0.0512c-0.0606,-0.0122,-0.1277,-0.0184,-0.1995,-0.0184c-0.1526,0,-0.286,0.0289,-0.4078,0.0882c-0.1236,0.0602,-0.2272,0.1438,-0.3167,0.2555c-0.0949,0.1184,-0.1705,0.2658,-0.2246,0.438c-0.0571,0.1814,-0.086,0.3882,-0.086,0.6149c0,0.2369,0.029,0.4494,0.0861,0.6317c0.0542,0.173,0.1287,0.3195,0.2214,0.4352c0.0873,0.109,0.1865,0.1896,0.3031,0.2463c0.1155,0.0561,0.2401,0.0834,0.3812,0.0834c0.0929,0,0.1768,-0.0086,0.2493,-0.0256c0.0722,-0.017,0.1382,-0.0401,0.1959,-0.0688c0.0581,-0.0289,0.112,-0.0636,0.1602,-0.1031c0.0552,-0.0453,0.1076,-0.0962,0.156,-0.1515l0.6315,0.5532c-0.0786,0.0897,-0.1643,0.1729,-0.2547,0.247c-0.097,0.0797,-0.2046,0.1492,-0.3195,0.2062c-0.1154,0.0573,-0.2423,0.1024,-0.3773,0.1342C5.0467,8.9559,4.8983,8.9721,4.7408,8.9721zM9.4866,5.8484c0,0.2046,-0.0446,0.3976,-0.1326,0.5736c-0.0668,0.1335,-0.1842,0.3225,-0.3649,0.4652c-0.1461,0.1155,-0.3193,0.2062,-0.5148,0.2695c-0.1896,0.0614,-0.3985,0.0926,-0.6209,0.0926h-0.3892v1.7645h-0.8396V4.4781h1.2287c0.4827,0,0.8709,0.1088,1.1536,0.3234C9.3253,5.0432,9.4866,5.3953,9.4866,5.8484zM8.6471,5.8484c0,-0.2344,-0.0747,-0.3227,-0.1477,-0.3782c-0.1315,-0.0998,-0.3549,-0.1526,-0.646,-0.1526h-0.3892v1.092h0.3892c0.1345,0,0.2563,-0.0174,0.3622,-0.0517c0.1002,-0.0325,0.1854,-0.0761,0.2531,-0.1295c0.0457,-0.0361,0.0947,-0.1023,0.1344,-0.1819C8.6327,5.9874,8.6471,5.9225,8.6471,5.8484zM12.9,8.6318l-1.0225,-1.6551c0.1379,-0.0506,0.262,-0.1166,0.3702,-0.1971c0.1517,-0.1129,0.2706,-0.2537,0.3534,-0.4184c0.0805,-0.1602,0.1249,-0.3624,0.1249,-0.5693c0,-0.4559,-0.1738,-0.8472,-0.465,-1.0468c-0.2622,-0.1797,-0.6054,-0.267,-1.0489,-0.267H10.029v4.5357h0.8396V7.0927h0.0937l1.2234,1.9804L12.9,8.6318zM10.8686,5.3176h0.3435c0.3299,0,0.4945,0.0653,0.5743,0.12c0.0294,0.0211,0.1,0.153,0.1,0.3542c0,0.0841,-0.0178,0.1571,-0.0355,0.1923c-0.0239,0.0475,-0.058,0.0874,-0.1044,0.1219c-0.0578,0.043,-0.1328,0.0778,-0.223,0.1034c-0.1019,0.029,-0.2221,0.0436,-0.3572,0.0436h-0.2978V5.3176z" fill="#CB525D"/>
  </g>
</svg>
