<?xml version="1.0" encoding="UTF-8"?>
<!DOCTYPE svg PUBLIC "-//W3C//DTD SVG 1.1//EN" "http://www.w3.org/Graphics/SVG/1.1/DTD/svg11.dtd">
<svg version="1.1" id="Layer_1" xmlns="http://www.w3.org/2000/svg" xmlns:xlink="http://www.w3.org/1999/xlink" x="0px" y="0px" width="16px" height="16px" viewBox="0 0 16 16" enable-background="new 0 0 16 16" xml:space="preserve">
  <g id="icon">
    <path d="M13.9833,0H2.0167C0.9047,0,0,0.9047,0,2.0167v11.9667C0,15.0953,0.9047,16,2.0167,16h11.9667c1.112,0,2.0167,-0.9047,2.0167,-2.0167V2.0167C16,0.9047,15.0953,0,13.9833,0zM12,13h-2V9H6v4H4V3h2v4h4V3h2V13z" fill="#CB525D"/>
    <polygon points="10,3 10,7 6,7 6,3 4,3 4,13 6,13 6,9 10,9 10,13 12,13 12,3" fill="#FFFFFF" stroke-linejoin="miter"/>
  </g>
</svg>
