<?xml version="1.0" encoding="UTF-8"?>
<!DOCTYPE svg PUBLIC "-//W3C//DTD SVG 1.1//EN" "http://www.w3.org/Graphics/SVG/1.1/DTD/svg11.dtd">
<svg version="1.1" id="Layer_1" xmlns="http://www.w3.org/2000/svg" xmlns:xlink="http://www.w3.org/1999/xlink" x="0px" y="0px" width="16px" height="16px" viewBox="0 0 16 16" enable-background="new 0 0 16 16" xml:space="preserve">
  <g id="icon">
    <path d="M1.3382,14.1698l8.3892,-8.3994c0,0,1.5991,0.6215,1.5991,1.8277c-2.319,0.7344,-2.5651,4.4589,-5.6259,6.178C2.6398,15.4952,1.3382,14.1698,1.3382,14.1698z" fill-rule="evenodd" fill="#FFFFFF" opacity="0.5"/>
    <path d="M9.4858,5.0207c-0.1333,0.0315,-0.2558,0.099,-0.355,0.1989L0.2166,14.2011c-0.287,0.2891,-0.289,0.7617,-0.0046,1.0532C0.2864,15.3306,0.9791,16,2.3781,16c1.0134,0,2.1453,-0.3494,3.3644,-1.0384c1.8328,-1.0359,2.7755,-2.6364,3.6074,-4.0491c0.6945,-1.1792,1.2943,-2.1975,2.2308,-2.496c0.3106,-0.099,0.5193,-0.3858,0.5193,-0.7136c0,-0.0239,-0.0018,-0.0469,-0.0026,-0.0704L9.4858,5.0207zM8.5271,10.4221c-0.7704,1.3082,-1.6436,2.7908,-3.2528,3.7004c-1.0743,0.6072,-2.0487,0.9151,-2.8961,0.9151c-0.6716,0,-1.0976,-0.194,-1.3133,-0.3294l8.6397,-8.7049c0.3507,0.1662,1.3258,0.7013,1.4301,1.5508C9.9477,8.01,9.2567,9.1832,8.5271,10.4221z" fill="#6D6E71"/>
    <path d="M14.0555,0.5c-1.7192,1.6511,-3.2074,3.3103,-4.4242,4.9328c-0.0465,0.062,-0.0401,0.1489,0.0135,0.2048c0.1931,0.2018,0.3699,0.3899,0.5438,0.5751c0.5236,0.5576,0.9759,1.0392,1.656,1.6568c0.0253,0.023,0.0576,0.0356,0.091,0.0356c0.023,0,0.0459,-0.0061,0.0662,-0.0177c1.1736,-0.6715,2.35,-1.4515,3.4983,-2.3196V3.25V0.5H14.0555z" fill="#FFFFFF" opacity="0.5"/>
    <path d="M11.9149,8.4552c-0.1693,0,-0.3318,-0.0631,-0.4576,-0.1777c-0.691,-0.6284,-1.1469,-1.1144,-1.6747,-1.6771c-0.1764,-0.188,-0.3485,-0.3715,-0.5364,-0.5681c-0.2395,-0.2505,-0.263,-0.6331,-0.0559,-0.9097c1.2254,-1.6361,2.723,-3.3084,4.4513,-4.9703L13.8,0h2.2v5.8571l-0.2168,0.1641c-1.1583,0.8767,-2.3464,1.6654,-3.5314,2.3443C12.1495,8.4242,12.033,8.4552,11.9149,8.4552zM10.2629,5.516c0.1072,0.1134,0.2107,0.2237,0.3131,0.3329c0.4575,0.4877,0.8533,0.9099,1.3948,1.4157c0.9836,-0.5772,1.9714,-1.2341,2.937,-1.9531v-4.218h-0.6676C12.7144,2.5737,11.3765,4.0613,10.2629,5.516z" fill="#6485C3"/>
    <path d="M11.8091,4.4529l0.5988,-0.5798l0.4983,2.0046l-0.6121,0.5631L11.8091,4.4529zM13.0156,3.3096l0.5965,-0.5776l0.605,2.2044l-0.6098,0.561L13.0156,3.3096z" fill="#6485C3"/>
  </g>
</svg>
