<?xml version="1.0" encoding="UTF-8"?>
<!DOCTYPE svg PUBLIC "-//W3C//DTD SVG 1.1//EN" "http://www.w3.org/Graphics/SVG/1.1/DTD/svg11.dtd">
<svg version="1.1" id="Layer_1" xmlns="http://www.w3.org/2000/svg" xmlns:xlink="http://www.w3.org/1999/xlink" x="0px" y="0px" width="16px" height="16px" viewBox="0 0 16 16" enable-background="new 0 0 16 16" xml:space="preserve">
  <g id="icon">
    <path d="M14.8116,15.4494c-0.0748,-1.0201,-0.3902,-1.9388,-0.9376,-2.7307c-0.5066,-0.733,-1.3584,-1.4993,-2.3116,-2.0544c0.27,-0.5113,0.3304,-1.7898,0.2599,-4.488c-0.0741,-1.3193,-0.3627,-2.2603,-0.7943,-2.9212c-0.0437,0.2293,-0.0745,0.3927,-0.0754,0.3977c-0.0312,0.1659,-0.1765,0.2863,-0.3456,0.2863c-0.0116,0,-0.0233,-0.0006,-0.035,-0.0017c-0.0653,-0.0064,-1.593,-0.154,-2.5176,-0.154l-0.0205,-0.0004l-0.0207,0.0004c-0.9217,0,-2.452,0.1476,-2.5166,0.1539c-0.0129,0.0013,-0.0245,0.0019,-0.036,0.0019c-0.1691,0,-0.3144,-0.1204,-0.3456,-0.2863c-0.0221,-0.1174,-0.0545,-0.2887,-0.0913,-0.4812c-0.4672,0.6644,-0.7813,1.6288,-0.8586,3.0047c-0.0675,2.58,-0.0123,3.8621,0.2324,4.4165c-2.4041,1.3811,-3.1086,3.6669,-3.1991,4.8563l-0.01,0.131h13.633L14.8116,15.4494z" fill="#FFFFFF" opacity="0.5"/>
    <path d="M10.8069,4.1392c-0.0125,0,-0.0251,-0.0006,-0.0377,-0.0017c-0.0703,-0.0064,-1.7167,-0.154,-2.7132,-0.154l-0.0221,-0.0004l-0.0223,0.0004c-0.9933,0,-2.6425,0.1476,-2.7122,0.1539c-0.0139,0.0013,-0.0264,0.0019,-0.0388,0.0019c-0.1822,0,-0.3388,-0.1204,-0.3725,-0.2863c-0.0892,-0.4403,-0.3351,-1.6366,-0.4008,-1.8807c-0.0275,-0.1021,-0.0044,-0.2092,0.0633,-0.2938c0.2847,-0.3556,1.6331,-1.3347,3.457,-1.3444l0.023,-0.0004c0.0109,0,0.0354,0.0005,0.0354,0.0005c1.8196,0.0101,3.1663,0.9889,3.451,1.3443c0.0677,0.0845,0.0908,0.1916,0.0633,0.2937c-0.0788,0.2927,-0.3976,1.8649,-0.4008,1.8807C11.1457,4.0188,10.9891,4.1392,10.8069,4.1392z" fill="#FFFFFF" opacity="0.5"/>
    <path d="M10.8069,4.4728c-0.0242,0,-0.0486,-0.0011,-0.0732,-0.0034c-0.0166,-0.0015,-1.6831,-0.1524,-2.6778,-0.1524c-0.0073,0,-0.0147,-0.0001,-0.0221,-0.0003c-0.0074,0.0002,-0.0149,0.0003,-0.0223,0.0003c-0.9947,0,-2.6612,0.1509,-2.6779,0.1524c-0.0245,0.0022,-0.0489,0.0034,-0.0731,0.0034c-0.3556,0,-0.6613,-0.2348,-0.7269,-0.5584c-0.1233,-0.6087,-0.34,-1.6523,-0.3963,-1.8616c-0.0536,-0.1991,-0.0086,-0.4079,0.1235,-0.5729C4.6285,1.0207,6.082,0.0106,8.0054,0.0004C8.01,0.0002,8.0201,0,8.0305,0c0.0167,0,0.0268,0.0002,0.0375,0.0005c1.9177,0.0106,3.371,1.0203,3.7386,1.4793c0.1321,0.1649,0.1771,0.3737,0.1235,0.5729c-0.0632,0.2347,-0.3075,1.4234,-0.3963,1.8616C11.4682,4.2379,11.1625,4.4728,10.8069,4.4728zM5.0904,1.9396c0.0852,0.3587,0.2682,1.2478,0.3467,1.6321c0.4815,-0.0409,1.7289,-0.1394,2.5745,-0.1394l0.0222,-0.0011l0.0212,0.001c0.8464,0.0001,2.0941,0.0987,2.5755,0.1396c0.0785,-0.3843,0.2615,-1.2734,0.3467,-1.6321C10.6442,1.6102,9.5217,0.8917,8.0511,0.885l-0.02,-0.0004L8.0167,0.885C6.5458,0.8917,5.4232,1.6102,5.0904,1.9396z" fill="#9070B1"/>
    <polygon points="7.7604,3.2023 7.7604,2.4518 7.0076,2.4518 7.0076,1.818 7.7604,1.818 7.7604,1.0674 8.3962,1.0674 8.3962,1.818 9.149,1.818 9.149,2.4518 8.3962,2.4518 8.3962,3.2023" fill="#9070B1" stroke-linejoin="miter"/>
    <path d="M12.0571,6.0028c-0.0722,-1.2591,-0.335,-2.1886,-0.7305,-2.8669c-0.0794,0.3826,-0.1458,0.7097,-0.1472,0.7169c-0.0336,0.1659,-0.1903,0.2863,-0.3725,0.2863c-0.0125,0,-0.0251,-0.0006,-0.0378,-0.0017c-0.0703,-0.0064,-1.7167,-0.154,-2.7132,-0.154l-0.0221,-0.0004l-0.0223,0.0004c-0.9933,0,-2.6425,0.1476,-2.7122,0.1539c-0.0139,0.0013,-0.0264,0.0019,-0.0388,0.0019c-0.1822,0,-0.3388,-0.1204,-0.3725,-0.2863c-0.0387,-0.1912,-0.1071,-0.5251,-0.1773,-0.8616c-0.4492,0.6889,-0.7498,1.6603,-0.8273,3.0116c-0.1636,6.1286,0.3477,5.2572,2.3713,4.3629c0.503,0.4693,1.0857,0.764,1.7295,0.764c0.6431,0,1.2253,-0.2941,1.7279,-0.7625C11.7264,11.2614,12.2205,12.1279,12.0571,6.0028zM7.9597,10.1005c-1.3897,0,-2.6466,-1.6812,-2.6466,-4.6431c0,-1.278,2.76,0.2245,3.6504,0.2245c1.4684,0,1.7035,-1.3902,1.7035,-0.4491C10.6671,7.1563,9.7019,10.1005,7.9597,10.1005z" fill="#9070B1"/>
    <path d="M15.2685,15.3731c-0.1084,-1.3736,-0.7878,-3.8756,-4.1202,-5.1987l-0.6932,-0.2344l-0.0105,0.0701l-0.0075,-0.0056l-0.2895,0.5626c-0.1973,0.4594,-2.0937,4.6579,-2.1419,4.6776c-0.0557,-0.0219,-1.9762,-4.2433,-2.1631,-4.7108l-0.2683,-0.5939l-0.6932,0.2344C1.5489,11.4975,0.8694,13.9995,0.761,15.3731l-0.0308,0.391c-0.01,0.1273,0.095,0.236,0.2282,0.236h14.1127c0.1332,0,0.2383,-0.1086,0.2282,-0.236L15.2685,15.3731z" fill="#9070B1"/>
  </g>
</svg>
