<?xml version="1.0" encoding="UTF-8"?>
<!DOCTYPE svg PUBLIC "-//W3C//DTD SVG 1.1//EN" "http://www.w3.org/Graphics/SVG/1.1/DTD/svg11.dtd">
<svg version="1.1" id="Layer_1" xmlns="http://www.w3.org/2000/svg" xmlns:xlink="http://www.w3.org/1999/xlink" x="0px" y="0px" width="16px" height="16px" viewBox="0 0 16 16" enable-background="new 0 0 16 16" xml:space="preserve">
  <g id="icon">
    <path d="M13.7917,15.5H2.2083C1.2648,15.5,0.5,14.7352,0.5,13.7917V2.2083C0.5,1.2648,1.2648,0.5,2.2083,0.5h11.5833C14.7352,0.5,15.5,1.2648,15.5,2.2083v11.5833C15.5,14.7352,14.7352,15.5,13.7917,15.5z" fill="#FFFFFF" opacity="0.5"/>
    <path d="M13.7917,16H2.2083C0.9907,16,0,15.0093,0,13.7917V2.2083C0,0.9907,0.9907,0,2.2083,0h11.5833C15.0093,0,16,0.9907,16,2.2083v11.5833C16,15.0093,15.0093,16,13.7917,16zM2.2083,1C1.542,1,1,1.542,1,2.2083v11.5833C1,14.458,1.542,15,2.2083,15h11.5833c0.6663,0,1.2083,-0.542,1.2083,-1.2083V2.2083C15,1.542,14.458,1,13.7917,1H2.2083z" fill="#9070B1"/>
    <path d="M5.5966,13.5929c-0.3306,0,-0.6753,-0.1214,-1.0274,-0.4324c-1.1347,-1.0021,-0.402,-1.9796,0.0357,-2.5636c0.2809,-0.3748,0.5462,-0.7288,0.5257,-1.0731c-0.0187,-0.3128,-0.5772,-0.5893,-1.1173,-0.8567c-0.855,-0.4233,-1.9191,-0.9502,-1.791,-2.1372c0.0439,-0.4069,0.1996,-0.7151,0.4625,-0.9159c0.4575,-0.3494,1.069,-0.2516,1.6084,-0.1653c0.3355,0.0536,0.795,0.1271,0.8666,-0.0037c0.1363,-0.2493,0.0969,-0.6506,0.0588,-1.0388c-0.0674,-0.6863,-0.1801,-1.835,1.1896,-2.0566c1.1792,-0.19,1.6055,0.841,1.8876,1.5237c0.2538,0.6141,0.3959,0.8713,0.6181,0.8713c0.0004,0,0.0008,0,0.0012,0c0.1529,-0.0006,0.5203,-0.1339,0.8444,-0.2514c1.0209,-0.3704,2.5639,-0.9299,3.2294,0.3725c0.5088,0.9958,-0.2698,1.6419,-0.7851,2.0695c-0.5674,0.4709,-0.9102,0.7882,-0.8102,1.3538c0.1012,0.5725,0.4947,0.8958,0.9503,1.2702c0.6495,0.5337,1.4577,1.1979,0.9626,2.6148c-0.1764,0.5048,-0.4604,0.83,-0.8441,0.9666c-0.7043,0.2509,-1.4806,-0.2259,-2.2312,-0.6868c-0.5053,-0.3104,-1.0776,-0.6619,-1.4536,-0.6619c-0.0023,0,-0.0047,0,-0.007,0c-0.3893,0.0046,-0.8569,0.409,-1.309,0.8001C6.9478,13.0364,6.3043,13.5929,5.5966,13.5929zM3.5119,6.3658c-0.0993,0,-0.1793,0.0116,-0.2201,0.0427c-0.0267,0.0204,-0.0604,0.0911,-0.0752,0.2286c-0.0497,0.46,0.4355,0.7352,1.2404,1.1337c0.7586,0.3756,1.6186,0.8014,1.6718,1.6933c0.0424,0.7104,-0.3824,1.2771,-0.7237,1.7326c-0.5478,0.7308,-0.5673,0.8669,-0.174,1.2143c0.3917,0.3459,0.7044,0.1789,1.5764,-0.5753c0.5607,-0.485,1.1963,-1.0348,1.9514,-1.0437c0.6659,-0.006,1.3415,0.4077,1.9958,0.8096c0.4723,0.29,1.1192,0.6871,1.3725,0.5969c0.081,-0.0288,0.1667,-0.158,0.2354,-0.3543c0.2546,-0.7287,-0.0003,-0.9755,-0.6534,-1.5123c-0.5055,-0.4154,-1.1347,-0.9324,-1.3002,-1.8688c-0.2063,-1.1667,0.5813,-1.8203,1.1563,-2.2975c0.6152,-0.5105,0.6503,-0.6159,0.5333,-0.8449c-0.2232,-0.4367,-0.8479,-0.3046,-1.998,0.1125c-0.4585,0.1664,-0.8546,0.31,-1.1812,0.3114c-0.0021,0,-0.0042,0,-0.0062,0c-0.9261,0,-1.2816,-0.8606,-1.5415,-1.4894c-0.3339,-0.8081,-0.4764,-0.9714,-0.8037,-0.9184c-0.3651,0.059,-0.4395,0.1019,-0.3541,0.9717c0.0504,0.5139,0.1076,1.0963,-0.1766,1.6161c-0.41,0.75,-1.2723,0.6121,-1.9019,0.5114C3.947,6.4059,3.6963,6.3658,3.5119,6.3658z" fill="#9070B1"/>
  </g>
</svg>
