<?xml version="1.0" encoding="iso-8859-1"?>
<!-- Generator: Adobe Illustrator 26.3.0, SVG Export Plug-In . SVG Version: 6.00 Build 0)  -->
<svg version="1.1" id="Layer_1" xmlns="http://www.w3.org/2000/svg" xmlns:xlink="http://www.w3.org/1999/xlink" x="0px" y="0px"
	 viewBox="0 0 24 24" style="enable-background:new 0 0 24 24;" xml:space="preserve">
<g id="icon">
	<path style="opacity:0.5;fill:#FFFFFF;enable-background:new    ;" d="M5.25,2.25l-4.5,4.875V21.75h18.025l4.475-4.5v-15H5.25z
		 M12,15.75c-2.071,0-3.75-1.679-3.75-3.75S9.929,8.25,12,8.25s3.75,1.679,3.75,3.75S14.071,15.75,12,15.75z"/>
	<path style="fill:#6D6E71;" d="M19.087,22.5H0V6.832L4.922,1.5H24v16.059L19.087,22.5z M1.5,21h16.963l4.037-4.059V3H5.578
		L1.5,7.418V21z M12,16.5c-2.481,0-4.5-2.019-4.5-4.5S9.519,7.5,12,7.5s4.5,2.019,4.5,4.5S14.481,16.5,12,16.5z M12,9
		c-1.654,0-3,1.346-3,3s1.346,3,3,3s3-1.346,3-3S13.654,9,12,9z"/>
</g>
</svg>
