<?xml version="1.0" encoding="iso-8859-1"?>
<!-- Generator: Adobe Illustrator 26.3.0, SVG Export Plug-In . SVG Version: 6.00 Build 0)  -->
<svg version="1.1" id="Layer_1" xmlns="http://www.w3.org/2000/svg" xmlns:xlink="http://www.w3.org/1999/xlink" x="0px" y="0px"
	 viewBox="0 0 24 24" style="enable-background:new 0 0 24 24;" xml:space="preserve">
<g id="icon">
	<polygon style="opacity:0.6;fill:#FFFFFF;enable-background:new    ;" points="1.328,18.319 7.779,7.116 16.496,2.624 
		22.905,16.614 14.134,21.822 	"/>
	<polygon style="opacity:0.5;fill:#6D6E71;enable-background:new    ;" points="23.04,15.893 12.751,13.191 17.085,3.276 
		15.705,2.673 11.108,13.189 1.135,17.642 1.749,19.017 11.845,14.509 22.658,17.349 	"/>
	<path style="fill:#6D6E71;" d="M0.121,18.816L7.205,6.514l9.669-4.983l7.056,15.402l-9.68,5.747L0.121,18.816z M8.289,7.65
		l-5.89,10.228l11.632,3.182l7.966-4.73L16.161,3.593L8.289,7.65z"/>
	
		<rect x="10.17" y="6.87" transform="matrix(0.9116 -0.411 0.411 0.9116 -4.9752 5.7665)" style="fill:#6D6E71;" width="1.506" height="15.165"/>
</g>
</svg>
