<?xml version="1.0" encoding="iso-8859-1"?>
<!-- Generator: Adobe Illustrator 26.3.0, SVG Export Plug-In . SVG Version: 6.00 Build 0)  -->
<svg version="1.1" id="Layer_1" xmlns="http://www.w3.org/2000/svg" xmlns:xlink="http://www.w3.org/1999/xlink" x="0px" y="0px"
	 viewBox="0 0 24 24" style="enable-background:new 0 0 24 24;" xml:space="preserve">
<g id="icon">
	<polygon style="opacity:0.5;fill:#FFFFFF;enable-background:new    ;" points="23.23,23.25 6.73,23.25 6.73,0.75 17.28,0.75 
		23.23,6.836 	"/>
	<polygon style="fill:#7B7B7B;" points="17.615,0 6,0 6,13.5 8,13.5 8,2 17,2 17,7 22,7 22,22 20,22 20,24 24,24 24,6.53 	"/>
	<path style="fill:#6484C3;" d="M0,15.009h5.075V16.8H1.791v1.791h2.567v1.791H1.791v3.582H0v-4.239v-1.134V15.009z M11.98,20.129
		c0.171,0.347,0.255,0.709,0.255,1.107c0,0.425-0.073,0.79-0.23,1.146c-0.162,0.368-0.403,0.679-0.715,0.924
		c-0.29,0.228-0.638,0.4-1.036,0.509c-0.359,0.099-0.763,0.15-1.2,0.15H6.065v-3.582v-1.791v-3.582h2.708
		c0.969,0,1.729,0.225,2.261,0.669c0.571,0.477,0.873,1.171,0.873,2.007c0,0.306-0.059,0.618-0.174,0.927
		c-0.096,0.257-0.232,0.496-0.396,0.704C11.607,19.544,11.825,19.815,11.98,20.129z M7.856,18.591h0.97
		c0.282,0,0.511-0.034,0.681-0.102c0.163-0.065,0.29-0.142,0.377-0.229c0.069-0.069,0.131-0.169,0.171-0.276
		c0.04-0.107,0.06-0.208,0.06-0.299c0-0.44-0.173-0.585-0.23-0.632C9.691,16.89,9.295,16.8,8.773,16.8H7.856L7.856,18.591
		L7.856,18.591z M10.443,21.236c0-0.126-0.019-0.211-0.07-0.314c-0.049-0.098-0.117-0.181-0.208-0.253
		c-0.105-0.083-0.244-0.149-0.413-0.199c-0.199-0.058-0.431-0.087-0.688-0.087H8.826h-0.97v1.791h1.198
		c0.276,0,0.519-0.029,0.723-0.085c0.167-0.046,0.303-0.11,0.405-0.19c0.082-0.064,0.14-0.14,0.184-0.24
		C10.404,21.572,10.443,21.453,10.443,21.236z M19.2,15.855l-1.52-0.948l-1.808,2.896l-1.808-2.896l-1.519,0.948l2.271,3.639
		l-2.271,3.639l1.519,0.948l1.808-2.896l1.808,2.896l1.52-0.948l-2.271-3.639L19.2,15.855z"/>
</g>
</svg>
