<?xml version="1.0" encoding="iso-8859-1"?>
<!-- Generator: Adobe Illustrator 26.3.0, SVG Export Plug-In . SVG Version: 6.00 Build 0)  -->
<svg version="1.1" id="Layer_1" xmlns="http://www.w3.org/2000/svg" xmlns:xlink="http://www.w3.org/1999/xlink" x="0px" y="0px"
	 viewBox="0 0 24 24" style="enable-background:new 0 0 24 24;" xml:space="preserve">
<g id="icon">
	<polygon style="opacity:0.5;fill:#FFFFFF;enable-background:new    ;" points="17.3,0.75 6.75,0.75 6.75,12.75 0.75,12.75 
		0.75,20.854 3.172,23.25 6.75,23.25 15.75,23.25 23.25,23.25 23.25,6.836 	"/>
	<polygon style="fill:#7B7B7B;" points="17.615,0 6,0 6,10.5 8,10.5 8,2 17,2 17,7 22,7 22,22 18,22 18,24 24,24 24,6.53 	"/>
	<path style="fill:#6486C4;" d="M16.5,24H2.864L0,21.167V12h9v4.5h7.5V24z M3.48,22.5H15V18H7.5v-4.5h-6v7.041L3.48,22.5z"/>
	<rect x="1.5" y="16.5" style="fill:#6486C4;" width="6" height="1.5"/>
	<rect x="7.5" y="18" style="fill:#6486C4;" width="1.5" height="4.5"/>
</g>
</svg>
