<?xml version="1.0" encoding="iso-8859-1"?>
<!-- Generator: Adobe Illustrator 26.3.0, SVG Export Plug-In . SVG Version: 6.00 Build 0)  -->
<svg version="1.1" id="Layer_1" xmlns="http://www.w3.org/2000/svg" xmlns:xlink="http://www.w3.org/1999/xlink" x="0px" y="0px"
	 viewBox="0 0 24 24" style="enable-background:new 0 0 24 24;" xml:space="preserve">
<g id="icon">
	<path style="fill:#7B7B7B;" d="M20.5,22.95c-1.351,0-2.45-1.099-2.45-2.45s1.099-2.45,2.45-2.45s2.45,1.099,2.45,2.45
		S21.851,22.95,20.5,22.95z M11.5,22.95c-1.351,0-2.45-1.099-2.45-2.45s1.099-2.45,2.45-2.45s2.45,1.099,2.45,2.45
		S12.851,22.95,11.5,22.95z M2.5,22.95c-1.351,0-2.45-1.099-2.45-2.45s1.099-2.45,2.45-2.45s2.45,1.099,2.45,2.45
		S3.851,22.95,2.5,22.95z M20.5,13.95c-1.351,0-2.45-1.099-2.45-2.45s1.099-2.45,2.45-2.45s2.45,1.099,2.45,2.45
		S21.851,13.95,20.5,13.95z M11.5,13.95c-1.351,0-2.45-1.099-2.45-2.45s1.099-2.45,2.45-2.45s2.45,1.099,2.45,2.45
		S12.851,13.95,11.5,13.95z M2.5,13.95c-1.351,0-2.45-1.099-2.45-2.45S1.149,9.05,2.5,9.05s2.45,1.099,2.45,2.45
		S3.851,13.95,2.5,13.95z M20.5,4.95c-1.351,0-2.45-1.099-2.45-2.45s1.099-2.45,2.45-2.45s2.45,1.099,2.45,2.45
		S21.851,4.95,20.5,4.95z M11.5,4.95c-1.351,0-2.45-1.099-2.45-2.45s1.099-2.45,2.45-2.45s2.45,1.099,2.45,2.45
		S12.851,4.95,11.5,4.95z M2.5,4.95c-1.351,0-2.45-1.099-2.45-2.45S1.149,0.05,2.5,0.05S4.95,1.149,4.95,2.5S3.851,4.95,2.5,4.95z"
		/>
</g>
</svg>
