<?xml version="1.0" encoding="iso-8859-1"?>
<!-- Generator: Adobe Illustrator 26.3.0, SVG Export Plug-In . SVG Version: 6.00 Build 0)  -->
<svg version="1.1" id="Layer_1" xmlns="http://www.w3.org/2000/svg" xmlns:xlink="http://www.w3.org/1999/xlink" x="0px" y="0px"
	 viewBox="0 0 24 24" style="enable-background:new 0 0 24 24;" xml:space="preserve">
<g id="icon">
	<path style="fill:#7D7C7B;" d="M12.012,15.025c-4.142,0-7.512-3.37-7.512-7.512S7.87,0,12.012,0s7.512,3.37,7.512,7.512
		S16.155,15.025,12.012,15.025z M12.012,1.5C8.697,1.5,6,4.197,6,7.512s2.697,6.012,6.012,6.012s6.012-2.697,6.012-6.012
		S15.328,1.5,12.012,1.5z"/>
	<polygon style="fill:#6486C4;" points="14.088,6.173 11.453,8.808 10.392,7.747 13.027,5.112 11.993,4.077 15.778,3.422 
		15.123,7.207 	"/>
	<rect x="0.75" y="16.846" style="opacity:0.5;fill:#FFFFFF;enable-background:new    ;" width="21.5" height="6.5"/>
	<path style="fill:#EEAD56;" d="M23,24H0v-8h23V24z M21.5,17.5h-20v5h20V17.5z"/>
	<path style="fill:#7C7B7A;" d="M4,21H3v-3.5h1V21z M6,20H5v-2.5h1V20z M8,20H7v-2.5h1V20z M10,20H9v-2.5h1V20z M12,21h-1v-3.5h1V21
		z M14,20h-1v-2.5h1V20z M16,20h-1v-2.5h1V20z M18,20h-1v-2.5h1V20z M20,21h-1v-3.5h1V21z M12,21h1.5"/>
</g>
</svg>
