<?xml version="1.0" encoding="iso-8859-1"?>
<!-- Generator: Adobe Illustrator 26.3.0, SVG Export Plug-In . SVG Version: 6.00 Build 0)  -->
<svg version="1.1" id="Layer_1" xmlns="http://www.w3.org/2000/svg" xmlns:xlink="http://www.w3.org/1999/xlink" x="0px" y="0px"
	 viewBox="0 0 24 24" style="enable-background:new 0 0 24 24;" xml:space="preserve">
<g id="icon">
	<polygon style="opacity:0.5;fill:#FFFFFF;enable-background:new    ;" points="0.762,17.263 9.833,13.438 17.333,14.863 
		14.333,23.112 3.762,21.462 	"/>
	<path style="fill:#7D7C7B;" d="M14.333,23.863c-0.038,0-0.077-0.003-0.116-0.009l-10.571-1.65
		c-0.199-0.031-0.378-0.141-0.495-0.305l-3-4.2c-0.132-0.185-0.173-0.421-0.111-0.64s0.22-0.398,0.43-0.487l9.071-3.825
		c0.136-0.057,0.286-0.073,0.431-0.046l7.5,1.425c0.216,0.041,0.403,0.175,0.512,0.366s0.128,0.42,0.053,0.627l-3,8.25
		C14.929,23.669,14.644,23.863,14.333,23.863z M4.189,20.77l9.65,1.506l2.488-6.842l-6.411-1.218l-7.999,3.373L4.189,20.77z"/>
	<path style="opacity:0.5;fill:#7D7C7B;enable-background:new    ;" d="M1.012,17.263h-1V4.813h1V17.263z M4.012,9.312h-1v12h1
		V9.312z M10.012,1.062h-1v12.45h1V1.062z M15.012,10.812h-1v12.15h1V10.812z M18.012,2.562h-1v12.45h1V2.562z"/>
	<polygon style="opacity:0.5;fill:#6486C4;enable-background:new    ;" points="0.833,4.588 9.833,0.837 17.333,2.263 
		14.333,10.512 3.833,9.012 	"/>
	<path style="fill:#6486C4;" d="M14.333,11.263c-0.035,0-0.071-0.002-0.106-0.008l-10.5-1.5c-0.209-0.03-0.396-0.147-0.515-0.322
		l-3-4.425C0.086,4.822,0.05,4.589,0.114,4.373c0.064-0.216,0.222-0.391,0.43-0.478l9-3.75C9.68,0.089,9.829,0.073,9.973,0.101
		l7.5,1.425c0.216,0.041,0.403,0.175,0.512,0.366c0.109,0.191,0.128,0.421,0.053,0.627l-3,8.25
		C14.929,11.068,14.645,11.263,14.333,11.263z M4.268,8.317l9.569,1.367l2.491-6.849L9.914,1.616l-7.945,3.31L4.268,8.317z"/>
	<polygon style="fill:#6486C4;" points="20.012,20.013 22.012,20.013 22.012,9.012 23.541,9.012 20.962,4.062 18.482,9.012 
		20.012,9.012 	"/>
</g>
</svg>
