<?xml version="1.0" encoding="iso-8859-1"?>
<!-- Generator: Adobe Illustrator 26.3.0, SVG Export Plug-In . SVG Version: 6.00 Build 0)  -->
<svg version="1.1" id="Layer_1" xmlns="http://www.w3.org/2000/svg" xmlns:xlink="http://www.w3.org/1999/xlink" x="0px" y="0px"
	 viewBox="0 0 24 24" style="enable-background:new 0 0 24 24;" xml:space="preserve">
<g id="icon">
	<path style="fill:#6D6E71;" d="M12,24C5.383,24,0,18.617,0,12S5.383,0,12,0s12,5.383,12,12S18.617,24,12,24z M12,1.64
		C6.287,1.64,1.64,6.287,1.64,12S6.287,22.36,12,22.36S22.36,17.713,22.36,12S17.713,1.64,12,1.64z"/>
	<polygon style="fill:#6486C4;" points="13.159,17.464 14.784,15.838 8.162,9.216 6.536,10.841 5.21,5.21 10.792,6.586 9.216,8.162 
		15.838,14.784 17.414,13.208 18.79,18.79 	"/>
</g>
</svg>
