<?xml version="1.0" encoding="iso-8859-1"?>
<!-- Generator: Adobe Illustrator 26.3.0, SVG Export Plug-In . SVG Version: 6.00 Build 0)  -->
<svg version="1.1" id="Layer_1" xmlns="http://www.w3.org/2000/svg" xmlns:xlink="http://www.w3.org/1999/xlink" x="0px" y="0px"
	 viewBox="0 0 24 24" style="enable-background:new 0 0 24 24;" xml:space="preserve">
<g id="icon">
	<path style="fill:#7B7B7B;" d="M15.651,10.589L10.505,5.7c0,0-3.658,2.406-6.739,4.267l-0.838,0.506l0.183,0.965
		c0.073,0.385,0.11,0.828,0.11,1.316c0,3.159-1.359,7.14-2.052,7.838C0.371,21.393,0,22.058,0,22.683
		c0,0.138,0.018,0.27,0.053,0.405l0.004,0.016c0.032,0.119,0.067,0.22,0.108,0.307l6.231-7.027c-0.257-0.753-0.075-1.6,0.487-2.174
		c0.39-0.399,0.91-0.619,1.463-0.619c0.553,0,1.073,0.22,1.463,0.619c0.801,0.819,0.801,2.151,0,2.97
		c-0.39,0.398-0.908,0.618-1.461,0.618c-0.23,0-0.461-0.04-0.678-0.116L0.45,23.746c0.112,0.074,0.252,0.13,0.436,0.18
		C1.044,23.969,1.214,24,1.401,24c0.504,0,1.13-0.227,1.97-1.072c0.833-0.839,6.207-2.66,9.078-2.082l0.97,0.195l0.508-0.853
		c1.761-2.954,4.55-6.682,4.55-6.682L15.651,10.589z"/>
	<path style="opacity:0.5;fill:#FFFFFF;enable-background:new    ;" d="M0.074,23.513l6.323-7.13
		c-0.257-0.753-0.075-1.6,0.487-2.174c0.39-0.399,0.91-0.619,1.463-0.619c0.553,0,1.073,0.22,1.463,0.619
		c0.801,0.819,0.801,2.151,0,2.97c-0.39,0.398-0.908,0.618-1.461,0.618c-0.23,0-0.461-0.04-0.678-0.116l-7.299,6.131L0.074,23.513z"
		/>
	<path style="fill:#6485C3;" d="M23.999,8.485c-0.009,0.245-0.118,0.478-0.301,0.641c-0.679,0.604-2.743,2.265-4.327,3.375
		L11.462,4.78c1.205-1.565,3.005-3.772,3.635-4.48c0.165-0.185,0.401-0.294,0.648-0.3c0.251-0.006,0.489,0.094,0.662,0.272
		l7.337,7.551C23.915,7.999,24.008,8.24,23.999,8.485z"/>
</g>
</svg>
