<?xml version="1.0" encoding="UTF-8"?>
<!DOCTYPE svg PUBLIC "-//W3C//DTD SVG 1.1//EN" "http://www.w3.org/Graphics/SVG/1.1/DTD/svg11.dtd">
<svg version="1.1" id="Layer_1" xmlns="http://www.w3.org/2000/svg" xmlns:xlink="http://www.w3.org/1999/xlink" x="0px" y="0px" width="32px" height="32px" viewBox="0 0 32 32" enable-background="new 0 0 32 32" xml:space="preserve">
  <g id="icon">
    <path d="M20.994,10.5c1.379,0,2.506,1.158,2.506,2.573v11.854c0,1.415,-1.128,2.573,-2.506,2.573H3.006C1.628,27.5,0.5,26.342,0.5,24.927v-11.73C0.5,11.72,1.722,10.502,3.2,10.5C8.647,10.494,20.994,10.5,20.994,10.5z" fill="#FFFFFF" stroke="#383838" stroke-width="1" stroke-miterlimit="1"/>
    <path d="M6.5,9v-0.825C6.5,7.305,7.205,6.5,8.075,6.5h9.85c0.87,0,1.575,0.805,1.575,1.675V9" fill="#C8C6C4" stroke="#383838" stroke-width="1" stroke-miterlimit="1"/>
    <path d="M2.1,2.55h9.575c1.588,0,2.875,1.287,2.875,2.875V6.1" fill="none" stroke="#383838" stroke-width="1.1" stroke-miterlimit="1"/>
    <line x1="19" y1="23.5" x2="12" y2="23.5" fill="none" stroke="#787979" stroke-width="1" stroke-miterlimit="1"/>
    <path d="M30.835,11.386L25,15.179v7.598l5.835,3.793c0.274,0.21,0.665,0.01,0.665,-0.34V11.726C31.5,11.375,31.109,11.175,30.835,11.386z" fill="#C8C6C4"/>
    <path d="M31.485,10.894c-0.305,-0.15,-0.662,-0.119,-0.936,0.081L25,14.582v1.193l6,-3.9V26.08l-6,-3.9v1.193l5.549,3.607c0.159,0.116,0.346,0.175,0.534,0.175c0.136,0,0.274,-0.031,0.402,-0.094c0.317,-0.156,0.514,-0.475,0.514,-0.832V11.726C32,11.369,31.803,11.05,31.485,10.894z" fill="#383838"/>
  </g>
</svg>
