<?xml version="1.0" encoding="UTF-8"?>
<!DOCTYPE svg PUBLIC "-//W3C//DTD SVG 1.1//EN" "http://www.w3.org/Graphics/SVG/1.1/DTD/svg11.dtd">
<svg version="1.1" id="Layer_1" xmlns="http://www.w3.org/2000/svg" xmlns:xlink="http://www.w3.org/1999/xlink" x="0px" y="0px" width="32px" height="32px" viewBox="0 0 32 32" enable-background="new 0 0 32 32" xml:space="preserve">
  <g id="icon">
    <path d="M3.5,4.5v3M6.5,4.5v3M9.5,4.5v3M12.5,4.5v3M15.5,4.5v3M18.5,4.5v3M21.5,4.5v3M24.5,4.5v3M27.5,4.5v3M3.5,24.5v3M6.5,24.5v3M9.5,24.5v3M12.5,24.5v3M15.5,24.5v3M18.5,24.5v3M21.5,24.5v3M24.5,24.5v3M27.5,24.5v3" fill="#FFFFFF" stroke="#383838" stroke-width="1" stroke-miterlimit="1"/>
    <path d="M30.5,24.5H1.5V7.5h29V24.5z" fill="#C8C6C4" stroke="#383838" stroke-width="1" stroke-linecap="round" stroke-miterlimit="1"/>
    <circle cx="27" cy="11" r="1.5" fill="#92CBEE" stroke="#0964B0" stroke-width="1" stroke-linecap="round" stroke-miterlimit="1"/>
  </g>
</svg>
