<?xml version="1.0" encoding="UTF-8"?>
<!DOCTYPE svg PUBLIC "-//W3C//DTD SVG 1.1//EN" "http://www.w3.org/Graphics/SVG/1.1/DTD/svg11.dtd">
<svg version="1.1" id="Layer_1" xmlns="http://www.w3.org/2000/svg" xmlns:xlink="http://www.w3.org/1999/xlink" x="0px" y="0px" width="32px" height="32px" viewBox="0 0 32 32" enable-background="new 0 0 32 32" xml:space="preserve">
  <g id="icon">
    <path d="M11.5,17.5v10.017c0,1.095,-0.888,1.983,-1.983,1.983H4.483C3.388,29.5,2.5,28.612,2.5,27.517V2.5h9" fill="#FFFFFF" stroke="#383838" stroke-width="1" stroke-miterlimit="1"/>
    <line x1="11.5" y1="2.5" x2="20.5" y2="2.5" fill="#FFFFFF" stroke="#383838" stroke-width="1" stroke-miterlimit="1"/>
    <path d="M20.5,2.5h9v25.017c0,1.095,-0.888,1.983,-1.983,1.983h-5.033c-1.095,0,-1.983,-0.888,-1.983,-1.983V17.5" fill="#FFFFFF" stroke="#383838" stroke-width="1" stroke-miterlimit="1"/>
    <path d="M20.5,3v24.517c0,1.095,-0.888,1.983,-1.983,1.983h-5.033c-1.095,0,-1.983,-0.888,-1.983,-1.983V3" fill="#FFFFFF" stroke="#383838" stroke-width="1" stroke-miterlimit="1"/>
    <rect x="8.5" y="2.5" width="6" height="15" fill="#92CBEE" stroke="#0964B0" stroke-width="1" stroke-linecap="round" stroke-miterlimit="1"/>
    <rect x="17.5" y="2.5" width="6" height="15" fill="#92CBEE" stroke="#0964B0" stroke-width="1" stroke-linecap="round" stroke-miterlimit="1"/>
  </g>
</svg>
