<?xml version="1.0" encoding="UTF-8"?>
<!DOCTYPE svg PUBLIC "-//W3C//DTD SVG 1.1//EN" "http://www.w3.org/Graphics/SVG/1.1/DTD/svg11.dtd">
<svg version="1.1" id="Layer_1" xmlns="http://www.w3.org/2000/svg" xmlns:xlink="http://www.w3.org/1999/xlink" x="0px" y="0px" width="16px" height="16px" viewBox="0 0 16 16" enable-background="new 0 0 16 16" xml:space="preserve">
  <g id="icon">
    <path d="M14.9811,4.2423h-3.0214l-0.932,-3.0229l-0.932,3.0229H7.576c0.1167,0.1748,0.2155,0.3663,0.2964,0.5734l1.6473,1.25l-0.064,0.2049c0.4878,0.2404,0.9332,0.6151,1.2382,1.1909l0.3338,-0.2532l2.4433,1.8537l-0.9354,-2.9964L14.9811,4.2423z" fill="#FFFFFF" opacity="0.5"/>
    <path d="M15.9729,3.8601c-0.0493,-0.1157,-0.1651,-0.1905,-0.2951,-0.1905h-3.3172L11.3269,0.3223c-0.0422,-0.1349,-0.1595,-0.222,-0.2989,-0.222c-0.0091,0,-0.0184,0.0004,-0.0276,0.0012c-0.1243,0.0105,-0.2343,0.1024,-0.2737,0.2288L9.6952,3.6696h-2.632c0.5554,0.4646,0.903,1.1338,1.0255,1.9888l0.3883,0.2948c0.4913,0.0919,1.0035,0.2719,1.4444,0.602l0.2116,-0.6778L8.6585,4.7529l1.821,0.0352l0.5485,-1.7547l0.5485,1.7547l1.821,-0.0352l-1.4745,1.1245l0.5545,1.776l-1.4494,-1.0996l-0.6201,0.4705c0.2074,0.2585,0.3796,0.5734,0.5015,0.9541l0.1187,-0.09l2.699,2.0477c0.0553,0.0419,0.12,0.064,0.1872,0.064c0.1002,0,0.1956,-0.0496,0.2553,-0.1327c0.0586,-0.0817,0.0747,-0.1846,0.0443,-0.2823L13.1757,6.26l2.6983,-2.0178C15.9923,4.1521,16.032,3.9985,15.9729,3.8601z" fill="#EEAC55"/>
    <path d="M3.4425,15.9992c-0.0826,0,-0.1477,-0.0657,-0.1415,-0.1427l0.0191,-0.2364c0.0672,-0.8305,0.4885,-2.3433,2.5548,-3.1433c0.4749,-0.1899,0.7007,-0.6023,0.4749,-0.9023c-0.5647,-0.7125,-0.7895,-1.6277,-0.7895,-2.4626c0,-1.293,0.4083,-2.1121,2.2311,-2.1121h0.0354c1.8156,0,2.2224,0.819,2.2224,2.1121c0,0.8349,-0.224,1.7502,-0.7864,2.4626c-0.225,0.3,0,0.7125,0.473,0.9023c2.0582,0.8,2.4779,2.3128,2.5448,3.1433l0.019,0.2364c0.0062,0.077,-0.0587,0.1427,-0.141,0.1427H3.4425z" fill="#6485C3"/>
    <path d="M0.3203,12.6203c0.0672,-0.8305,0.4885,-2.3433,2.5548,-3.1433c0.4749,-0.1899,0.7007,-0.6023,0.4749,-0.9023c-0.5647,-0.7125,-0.7895,-1.6277,-0.7895,-2.4626C2.5605,4.819,2.9688,4,4.7916,4h0.0354c1.8156,0,2.2224,0.819,2.2224,2.1121c0,0.0369,-0.0009,0.0741,-0.0019,0.1112c-1.5538,0.217,-2.3122,1.1675,-2.3122,2.8886c0,0.9776,0.2568,1.8995,0.7296,2.6402c-0.8216,0.3357,-1.4162,0.7774,-1.8478,1.2473H0.4427c-0.0826,0,-0.1477,-0.0657,-0.1415,-0.1427L0.3203,12.6203z" fill="#6485C3"/>
  </g>
</svg>
