<?xml version="1.0" encoding="UTF-8"?>
<!DOCTYPE svg PUBLIC "-//W3C//DTD SVG 1.1//EN" "http://www.w3.org/Graphics/SVG/1.1/DTD/svg11.dtd">
<svg version="1.1" id="Layer_1" xmlns="http://www.w3.org/2000/svg" xmlns:xlink="http://www.w3.org/1999/xlink" x="0px" y="0px" width="16px" height="16px" viewBox="0 0 16 16" enable-background="new 0 0 16 16" xml:space="preserve">
  <g id="icon">
    <path d="M11.0108,1.7818C9.4344,-0.638,6.4393,0.5065,6.4393,3.1496c0,0.0418,0.0012,0.0836,0.0029,0.1254c0.9841,0.4662,1.5607,1.3579,1.6755,2.6247c1.3103,0.1446,2.9586,0.8384,2.9872,3.4019c0.6503,-0.4669,4.4775,-3.3343,4.4775,-6.1521C15.5823,0.5065,12.5872,-0.638,11.0108,1.7818z" fill="#FFFFFF" opacity="0.5"/>
    <path d="M8.1061,5.7944c0.0275,0.0383,0.0554,0.0763,0.0836,0.1143c-0.0241,-0.003,-0.0482,-0.0062,-0.0721,-0.0089C8.1144,5.8642,8.11,5.8295,8.1061,5.7944zM13.9127,0.1402c-0.2567,-0.0786,-0.5199,-0.1184,-0.782,-0.1184c-0.7745,0,-1.5251,0.3479,-2.1199,0.9811c-0.5948,-0.6332,-1.3455,-0.9811,-2.12,-0.9811c-0.262,0,-0.525,0.0398,-0.7818,0.1184C6.8732,0.5184,6.0659,1.6783,6.0255,3.1114c0.4365,0.1405,0.809,0.3501,1.1142,0.6256c-0.0313,-0.1718,-0.0498,-0.3433,-0.0498,-0.5138c0,-0.9962,0.5211,-1.7993,1.3277,-2.0461c0.1589,-0.0486,0.3203,-0.0733,0.4795,-0.0733c0.6318,0,1.2236,0.3788,1.6665,1.0667l0.4473,0.6946l0.4473,-0.6946c0.4428,-0.6879,1.0346,-1.0667,1.6665,-1.0667c0.1593,0,0.3206,0.0247,0.4795,0.0733c0.8065,0.2468,1.3277,1.0499,1.3277,2.0461c0,2.2335,-2.8636,4.6447,-3.873,5.4247c0.0306,0.2226,0.0474,0.4619,0.0474,0.7206c0,0.2021,-0.0119,0.4023,-0.0327,0.6l0.2393,-0.1663C11.5042,9.6692,16,6.5066,16,3.2233C16,1.7384,15.1807,0.5282,13.9127,0.1402z" fill="#CB525D"/>
    <path d="M3.5969,15.5302c-0.074,0,-0.1323,-0.0588,-0.1268,-0.1278l0.0171,-0.2117c0.0602,-0.7439,0.4375,-2.0988,2.2882,-2.8153c0.4253,-0.1701,0.6276,-0.5395,0.4253,-0.8082c-0.5057,-0.6381,-0.7071,-1.4578,-0.7071,-2.2057c0,-1.1581,0.3657,-1.8917,1.9983,-1.8917h0.0317c1.6262,0,1.9905,0.7336,1.9905,1.8917c0,0.7478,-0.2006,1.5675,-0.7044,2.2057c-0.2015,0.2687,0,0.6381,0.4237,0.8082c1.8435,0.7165,2.2193,2.0714,2.2793,2.8153l0.0171,0.2117c0.0056,0.069,-0.0526,0.1278,-0.1263,0.1278H3.5969zM4.7645,11.4921c-0.3012,-0.6355,-0.4625,-1.3664,-0.4625,-2.1235c0,-1.9853,1.0577,-2.7425,2.2117,-2.9777c0.0001,-0.0097,0.0005,-0.0196,0.0005,-0.0293c0,-1.1581,-0.3643,-1.8917,-1.9905,-1.8917H4.492c-1.6326,0,-1.9983,0.7336,-1.9983,1.8917c0,0.7478,0.2014,1.5675,0.7071,2.2057c0.2023,0.2687,0,0.6381,-0.4253,0.8082c-1.8507,0.7165,-2.228,2.0715,-2.2882,2.8153l-0.0171,0.2117c-0.0056,0.069,0.0528,0.1278,0.1268,0.1278h2.7896C3.7288,12.1509,4.1769,11.7925,4.7645,11.4921z" fill="#FFFFFF" opacity="0.5"/>
    <path d="M3.6233,16c-0.1843,0,-0.3612,-0.0771,-0.4853,-0.2116c-0.1218,-0.132,-0.1834,-0.3099,-0.169,-0.4881l0.0169,-0.2094c0.0695,-0.8592,0.4993,-2.4219,2.597,-3.2351c0.059,-0.0238,0.0997,-0.0507,0.1262,-0.0726c-0.478,-0.6509,-0.7406,-1.5057,-0.7406,-2.4146c0,-1.0309,0.2599,-2.4015,2.5069,-2.4015h0.0314c2.2402,0,2.4992,1.3706,2.4992,2.4015c0,0.9108,-0.2619,1.7659,-0.7384,2.4151c0.0258,0.0213,0.0662,0.0483,0.1253,0.0722c2.0904,0.8135,2.5188,2.3761,2.588,3.2351l0.0169,0.2094c0.0144,0.1783,-0.0473,0.3562,-0.1691,0.4882c-0.1239,0.1343,-0.3006,0.2114,-0.4847,0.2114H3.6233zM10.8928,14.9388c-0.1031,-0.5796,-0.4898,-1.5519,-1.887,-2.095c-0.4058,-0.1628,-0.7028,-0.4661,-0.8001,-0.8134c-0.0789,-0.2821,-0.0257,-0.5661,0.1496,-0.7999l0.0067,-0.0087c0.3761,-0.4764,0.583,-1.1344,0.583,-1.8532c0,-0.9452,-0.1998,-1.3403,-1.438,-1.3403h-0.0314c-1.2449,0,-1.4458,0.3951,-1.4458,1.3403c0,0.7185,0.2078,1.3765,0.5853,1.8527l0.0069,0.0089c0.176,0.2337,0.2292,0.5175,0.1503,0.7996c-0.0972,0.3478,-0.397,0.6522,-0.8021,0.8141c-1.4037,0.5434,-1.7922,1.5156,-1.8958,2.095H10.8928zM3.9969,11.9718H1.1074c0.1036,-0.5794,0.492,-1.5516,1.8958,-2.095c0.4051,-0.1619,0.7049,-0.4662,0.8021,-0.8141c0.0789,-0.2821,0.0257,-0.5658,-0.1503,-0.7996l-0.0069,-0.0089c-0.3774,-0.4763,-0.5853,-1.1342,-0.5853,-1.8527c0,-0.9452,0.2009,-1.3403,1.4458,-1.3403h0.0314c1.2382,0,1.438,0.3951,1.438,1.3403c0,0.0477,-0.0018,0.0959,-0.0038,0.1442c0.3404,-0.1299,0.7046,-0.1988,1.0643,-0.2279C7.0237,5.298,6.72,4,4.5399,4h-0.0314c-2.2471,0,-2.5069,1.3706,-2.5069,2.4015c0,0.9089,0.2626,1.7637,0.7406,2.4146c-0.0265,0.0219,-0.0672,0.0488,-0.1262,0.0726C0.5183,9.7019,0.0885,11.2646,0.019,12.1238l-0.0169,0.2094c-0.0145,0.1782,0.0471,0.3561,0.169,0.4881c0.124,0.1345,0.3009,0.2116,0.4853,0.2116h2.3415C3.2393,12.6643,3.5636,12.3005,3.9969,11.9718z" fill="#6485C3"/>
  </g>
</svg>
