<?xml version="1.0" encoding="UTF-8"?>
<!DOCTYPE svg PUBLIC "-//W3C//DTD SVG 1.1//EN" "http://www.w3.org/Graphics/SVG/1.1/DTD/svg11.dtd">
<svg version="1.1" id="Layer_1" xmlns="http://www.w3.org/2000/svg" xmlns:xlink="http://www.w3.org/1999/xlink" x="0px" y="0px" width="16px" height="16px" viewBox="0 0 16 16" enable-background="new 0 0 16 16" xml:space="preserve">
  <g id="icon">
    <path d="M15.4247,9.3731c0,0,-2.96,-2.903,-3.9763,-3.9139c0.2246,-0.5402,0.3206,-1.1467,0.2486,-1.7821C11.5125,2.0468,10.213,0.7411,8.5817,0.5375C6.4237,0.2682,4.5809,1.8959,4.5111,3.9701C4.8113,3.9243,5.1304,3.9,5.4708,3.9h0.0391c0.4049,0,0.7809,0.033,1.1289,0.0974c-0.2008,-0.1744,-0.3283,-0.4307,-0.3283,-0.7172c0,-0.5253,0.4267,-0.9512,0.9531,-0.9512c0.5264,0,0.9531,0.4259,0.9531,0.9512c0,0.4702,-0.3422,0.8597,-0.7914,0.9365c0.6138,0.2364,1.1078,0.6038,1.4746,1.1029c0.4904,0.6673,0.6435,1.4211,0.6877,2.0435c0.0029,-0.0013,0.0059,-0.0024,0.0089,-0.0037c0.2325,0.2181,0.4774,0.47,0.4774,0.47c0.0915,0.0866,0.2312,0.0844,0.3201,-0.0048l0.1695,-0.1797l0.4875,0.4987v0.9563h0.9163v1.1958h1.1982v1.1958h2.3259V9.535C15.4915,9.4744,15.4676,9.4163,15.4247,9.3731z" fill="#FFFFFF" opacity="0.5"/>
    <path d="M8.7252,3.2802c0,-0.8049,-0.6557,-1.4598,-1.4616,-1.4598c-0.8059,0,-1.4617,0.6549,-1.4617,1.4598c0,0.2276,0.0539,0.4424,0.1474,0.6346c0.8289,0.0519,1.5254,0.254,2.0841,0.6039C8.4479,4.2608,8.7252,3.8028,8.7252,3.2802zM7.2636,3.7229c-0.2452,0,-0.4446,-0.1986,-0.4446,-0.4427c0,-0.2441,0.1994,-0.4426,0.4446,-0.4426c0.2451,0,0.4445,0.1986,0.4445,0.4426C7.7081,3.5243,7.5088,3.7229,7.2636,3.7229zM16,9.535V12h-3.343v-1.1958h-1.1982V9.6085h-0.9163V8.3509l-0.0122,-0.0125c-0.0937,0.0418,-0.1959,0.0637,-0.2987,0.0637c-0.1886,0,-0.3691,-0.0726,-0.5083,-0.2042l-0.0137,-0.0136c-0.0128,-0.0131,-0.0534,-0.0547,-0.1104,-0.112c0.0022,-0.0697,0.0053,-0.1393,0.0053,-0.2093c0,-0.2947,-0.0139,-0.6502,-0.0808,-1.0282l0.1736,-0.0779l0.2471,0.2316c0.0854,0.0802,0.18,0.1717,0.2819,0.2728l0.3307,-0.3505l1.0026,1.0256v0.655h0.9163v1.1957h1.1982v1.1958h1.3089V9.6521c-0.54,-0.5298,-2.9981,-2.9421,-3.893,-3.8323l-0.242,-0.2407l0.131,-0.3151c0.2014,-0.4843,0.273,-0.9989,0.2128,-1.5296c-0.1569,-1.3863,-1.2811,-2.5186,-2.6731,-2.6922c-0.1328,-0.0166,-0.2673,-0.025,-0.3999,-0.025c-0.8145,0,-1.5832,0.3092,-2.1644,0.8707c-0.5601,0.5411,-0.8865,1.262,-0.931,2.0275c-0.3669,0.0235,-0.7077,0.0767,-1.022,0.1593c0.0052,-1.0996,0.4471,-2.1462,1.2464,-2.9183C6.0196,0.4107,7.0388,0,8.1176,0c0.1747,0,0.352,0.0111,0.527,0.0329C10.497,0.264,11.9933,1.7726,12.2024,3.62c0.0649,0.573,0.0079,1.1623,-0.1648,1.7075c1.0916,1.0812,3.4593,3.4041,3.728,3.6677l0.0194,0.019C15.9239,9.1541,16,9.3388,16,9.535z" fill="#EEAC55"/>
    <path d="M10.1982,15.3504c0.089,0,0.1593,-0.0708,0.1526,-0.1538l-0.0206,-0.2548c-0.0725,-0.8954,-0.5266,-2.5262,-2.7541,-3.3886c-0.5119,-0.2047,-0.7554,-0.6493,-0.5119,-0.9727c0.6087,-0.768,0.8511,-1.7547,0.8511,-2.6548c0,-1.3939,-0.4402,-2.2769,-2.4052,-2.2769h-0.0382c-1.9573,0,-2.3958,0.883,-2.3958,2.2769c0,0.9001,0.2415,1.8867,0.8478,2.6548c0.2425,0.3234,0,0.768,-0.5099,0.9727c-2.2188,0.8624,-2.6712,2.4933,-2.7434,3.3886L0.65,15.1966c-0.0067,0.083,0.0633,0.1538,0.152,0.1538H10.1982z" fill="#FFFFFF" opacity="0.5"/>
    <path d="M0.6866,15.993c-0.191,0,-0.3743,-0.0799,-0.5028,-0.2191c-0.1258,-0.1363,-0.1894,-0.32,-0.1747,-0.504l0.0211,-0.261c0.0837,-1.0389,0.603,-2.929,3.1401,-3.9164c0.1562,-0.0631,0.232,-0.144,0.2573,-0.1758l0.0271,-0.0341l-0.0263,-0.0346c-0.6032,-0.7922,-0.9354,-1.8523,-0.9354,-2.9849c0,-1.2261,0.3087,-2.856,2.9779,-2.856h0.0391c2.6779,0,2.9875,1.63,2.9875,2.856c0,1.1301,-0.3332,2.19,-0.9383,2.9845l-0.0267,0.0351l0.0279,0.0341c0.0326,0.0399,0.1095,0.1158,0.2586,0.1758c2.5457,0.9868,3.0668,2.8771,3.1508,3.9161l0.0211,0.2611c0.0149,0.1838,-0.0487,0.3675,-0.1745,0.5038c-0.1286,0.1394,-0.3122,0.2194,-0.5036,0.2194H0.6866zM5.4708,6.0539c-1.642,0,-1.931,0.5834,-1.931,1.8091c0,0.9272,0.2685,1.7779,0.756,2.3954l0.0072,0.0095c0.1918,0.2558,0.2501,0.5674,0.1637,0.8767c-0.1097,0.392,-0.4496,0.7361,-0.9092,0.9205c-1.8907,0.7349,-2.3525,2.0803,-2.4599,2.817l-0.0093,0.0639h8.8234l-0.0094,-0.064c-0.108,-0.7366,-0.5717,-2.0816,-2.4648,-2.8146c-0.4648,-0.1858,-0.8081,-0.5312,-0.9178,-0.9237c-0.0864,-0.3093,-0.0281,-0.6204,0.1642,-0.8758l0.0075,-0.0096c0.4894,-0.6176,0.7592,-1.4684,0.7592,-2.3952c0,-1.2258,-0.2904,-1.8091,-1.9406,-1.8091H5.4708z" fill="#6485C3"/>
  </g>
</svg>
