<?xml version="1.0" encoding="UTF-8"?>
<!DOCTYPE svg PUBLIC "-//W3C//DTD SVG 1.1//EN" "http://www.w3.org/Graphics/SVG/1.1/DTD/svg11.dtd">
<svg version="1.1" id="Layer_1" xmlns="http://www.w3.org/2000/svg" xmlns:xlink="http://www.w3.org/1999/xlink" x="0px" y="0px" width="16px" height="16px" viewBox="0 0 16 16" enable-background="new 0 0 16 16" xml:space="preserve">
  <g id="icon">
    <g>
      <path d="M14.7771,4.0779c0,-1.8261,-1.4883,-3.3065,-3.3243,-3.3065S8.1285,2.2518,8.1285,4.0779c0,0.724,0.2346,1.3931,0.6314,1.9377c0.9949,0.256,2.004,0.913,2.2753,2.4785l0.3015,-1.0681l-0.1935,-0.0564c0.102,0.0094,0.2052,0.0148,0.3097,0.0148c0.1035,0,0.2057,-0.0054,0.3068,-0.0146l1.2215,-0.3559C14.0478,6.4635,14.7771,5.3557,14.7771,4.0779z" fill="#FFFFFF" opacity="0.5"/>
      <path d="M13.2693,6.93l-0.2882,0.084c-0.3717,0.1918,-0.7843,0.316,-1.2215,0.3559l-0.1928,0.0562l0.9199,3.2593l0.9833,-1.0029l1.3734,-0.0158L13.2693,6.93z" fill="#FFFFFF" opacity="0.5"/>
    </g>
    <path d="M14.1256,6.9929l0.0716,-0.0625c0.8603,-0.7522,1.3538,-1.8314,1.3538,-2.961C15.5509,1.7806,13.7376,0,11.5087,0S7.4665,1.7806,7.4665,3.9693c0,0.0415,0.0021,0.0828,0.0034,0.1242c0.3622,0.4713,0.5816,1.0765,0.6477,1.8063c1.3218,0.1458,2.9886,0.8495,2.9886,3.4688c0,0.6781,-0.1193,1.3377,-0.345,1.9369c0.0327,0.0199,0.0638,0.0404,0.0956,0.0606l0.6508,-2.2778L12.2824,11.8l1.5522,-1.5637L16,10.2117L14.1256,6.9929zM8.7105,3.9693c0,-1.5169,1.2553,-2.751,2.7982,-2.751s2.7982,1.2341,2.7982,2.751c0,1.5169,-1.2553,2.751,-2.7982,2.751S8.7105,5.4862,8.7105,3.9693zM13.3814,9.1916l-0.5216,0.5245l-0.5847,-1.819l0.1124,-0.0345c0.2515,-0.0771,0.5713,-0.2142,0.79,-0.3107l0.0996,-0.0439l0.8715,1.6313L13.3814,9.1916z" fill="#CB525D"/>
    <path d="M3.4425,15.9992c-0.0826,0,-0.1477,-0.0657,-0.1415,-0.1427l0.0191,-0.2364c0.0672,-0.8305,0.4885,-2.3433,2.5548,-3.1433c0.4749,-0.1899,0.7007,-0.6023,0.4749,-0.9023c-0.5647,-0.7125,-0.7895,-1.6277,-0.7895,-2.4626c0,-1.293,0.4083,-2.1121,2.2311,-2.1121h0.0354c1.8156,0,2.2224,0.819,2.2224,2.1121c0,0.8349,-0.224,1.7502,-0.7864,2.4626c-0.225,0.3,0,0.7125,0.473,0.9023c2.0582,0.8,2.4779,2.3128,2.5448,3.1433l0.019,0.2364c0.0062,0.077,-0.0587,0.1427,-0.141,0.1427H3.4425z" fill="#6485C3"/>
    <path d="M0.3203,12.6203c0.0672,-0.8305,0.4885,-2.3433,2.5548,-3.1433c0.4749,-0.1899,0.7007,-0.6023,0.4749,-0.9023c-0.5647,-0.7125,-0.7895,-1.6277,-0.7895,-2.4626C2.5605,4.819,2.9688,4,4.7916,4h0.0354c1.8156,0,2.2224,0.819,2.2224,2.1121c0,0.0369,-0.0009,0.0741,-0.0019,0.1112c-1.5538,0.217,-2.3122,1.1675,-2.3122,2.8886c0,0.9776,0.2568,1.8995,0.7296,2.6402c-0.8216,0.3357,-1.4162,0.7774,-1.8478,1.2473H0.4427c-0.0826,0,-0.1477,-0.0657,-0.1415,-0.1427L0.3203,12.6203z" fill="#6485C3"/>
  </g>
</svg>
