<?xml version="1.0" encoding="UTF-8"?>
<!DOCTYPE svg PUBLIC "-//W3C//DTD SVG 1.1//EN" "http://www.w3.org/Graphics/SVG/1.1/DTD/svg11.dtd">
<svg version="1.1" id="Layer_1" xmlns="http://www.w3.org/2000/svg" xmlns:xlink="http://www.w3.org/1999/xlink" x="0px" y="0px" width="16px" height="16px" viewBox="0 0 16 16" enable-background="new 0 0 16 16" xml:space="preserve">
  <g id="icon">
    <path d="M11.5,0.519c-2.1123,0,-3.8395,1.6507,-3.9729,3.7367c0.5673,0.2372,1.0262,0.5923,1.3729,1.0639c0.6315,0.8593,0.7046,1.8631,0.7046,2.5434c0,0.2493,-0.0151,0.497,-0.0425,0.7418c0.9269,1.2348,1.938,2.5594,1.938,2.5594s2.5531,-3.332,3.2723,-4.3705c0.4476,-0.6463,0.71,-1.4315,0.71,-2.2782C15.4822,2.3083,13.6993,0.519,11.5,0.519zM11.5,6.1643c-0.8967,0,-1.6237,-0.732,-1.6237,-1.6351s0.727,-1.6351,1.6237,-1.6351s1.6237,0.732,1.6237,1.6351S12.3967,6.1643,11.5,6.1643z" fill="#FFFFFF" opacity="0.5"/>
    <path d="M11.5,0C9.1636,0,7.238,1.7961,7.021,4.0845c0.3773,0.1025,0.7157,0.248,1.0147,0.4357c0,-0.0016,-0.0002,-0.0031,-0.0002,-0.0046c0,-1.9175,1.5542,-3.4774,3.4645,-3.4774s3.4645,1.56,3.4645,3.4774c0,0.7134,-0.2135,1.3989,-0.6175,1.9822c-0.5346,0.7719,-2.1326,2.876,-2.8463,3.8119c-0.4452,-0.5856,-1.2364,-1.629,-1.8966,-2.5138c0.0002,0.0224,0.0005,0.0454,0.0005,0.0671c0,0.4924,-0.0558,0.9789,-0.1609,1.4467c0.806,1.0701,1.5875,2.0943,1.6452,2.17l0.4104,0.5376l0.4118,-0.5374c0.263,-0.3433,2.5895,-3.3836,3.2866,-4.3902c0.5249,-0.758,0.8024,-1.6481,0.8024,-2.5742C16,2.0257,13.9813,0,11.5,0z" fill="#CB525D"/>
    <path d="M11.5,2.6393c-1.0358,0,-1.8786,0.8478,-1.8786,1.8899S10.4642,6.4191,11.5,6.4191s1.8786,-0.8478,1.8786,-1.8899S12.5358,2.6393,11.5,2.6393zM11.5,5.6628c-0.6197,0,-1.1238,-0.5085,-1.1238,-1.1336S10.8803,3.3957,11.5,3.3957s1.1238,0.5085,1.1238,1.1335S12.1197,5.6628,11.5,5.6628z" fill="#CB525D"/>
    <path d="M10.1982,15.3504c0.089,0,0.1593,-0.0708,0.1526,-0.1538l-0.0206,-0.2548c-0.0725,-0.8954,-0.5266,-2.5262,-2.7541,-3.3886c-0.5119,-0.2047,-0.7554,-0.6493,-0.5119,-0.9727c0.6087,-0.768,0.8511,-1.7547,0.8511,-2.6548c0,-1.3939,-0.4402,-2.2769,-2.4052,-2.2769h-0.0382c-1.9573,0,-2.3958,0.883,-2.3958,2.2769c0,0.9001,0.2415,1.8867,0.8478,2.6548c0.2425,0.3234,0,0.768,-0.5099,0.9727c-2.2188,0.8624,-2.6712,2.4933,-2.7434,3.3886L0.65,15.1966c-0.0067,0.083,0.0633,0.1538,0.152,0.1538H10.1982z" fill="#FFFFFF" opacity="0.5"/>
    <path d="M0.6866,15.993c-0.191,0,-0.3743,-0.0799,-0.5028,-0.2191c-0.1258,-0.1363,-0.1894,-0.32,-0.1747,-0.504l0.0211,-0.261c0.0837,-1.0389,0.603,-2.929,3.1401,-3.9164c0.1562,-0.0631,0.232,-0.144,0.2573,-0.1758l0.0271,-0.0341l-0.0263,-0.0346c-0.6032,-0.7922,-0.9354,-1.8523,-0.9354,-2.9849c0,-1.2261,0.3087,-2.856,2.9779,-2.856h0.0391c2.6779,0,2.9875,1.63,2.9875,2.856c0,1.1301,-0.3332,2.19,-0.9383,2.9845l-0.0267,0.0351l0.0279,0.0341c0.0326,0.0399,0.1095,0.1158,0.2586,0.1758c2.5457,0.9868,3.0668,2.8771,3.1508,3.9161l0.0211,0.2611c0.0149,0.1838,-0.0487,0.3675,-0.1745,0.5038c-0.1286,0.1394,-0.3122,0.2194,-0.5036,0.2194H0.6866zM5.4708,6.0539c-1.642,0,-1.931,0.5834,-1.931,1.8091c0,0.9272,0.2685,1.7779,0.756,2.3954l0.0072,0.0095c0.1918,0.2558,0.2501,0.5674,0.1637,0.8767c-0.1097,0.392,-0.4496,0.7361,-0.9092,0.9205c-1.8907,0.7349,-2.3525,2.0803,-2.4599,2.817l-0.0093,0.0639h8.8234l-0.0094,-0.064c-0.108,-0.7366,-0.5717,-2.0816,-2.4648,-2.8146c-0.4648,-0.1858,-0.8081,-0.5312,-0.9178,-0.9237c-0.0864,-0.3093,-0.0281,-0.6204,0.1642,-0.8758l0.0075,-0.0096c0.4894,-0.6176,0.7592,-1.4684,0.7592,-2.3952c0,-1.2258,-0.2904,-1.8091,-1.9406,-1.8091H5.4708z" fill="#6485C3"/>
  </g>
</svg>
