<?xml version="1.0" encoding="UTF-8"?>
<!DOCTYPE svg PUBLIC "-//W3C//DTD SVG 1.1//EN" "http://www.w3.org/Graphics/SVG/1.1/DTD/svg11.dtd">
<svg version="1.1" id="Layer_1" xmlns="http://www.w3.org/2000/svg" xmlns:xlink="http://www.w3.org/1999/xlink" x="0px" y="0px" width="16px" height="16px" viewBox="0 0 16 16" enable-background="new 0 0 16 16" xml:space="preserve">
  <g id="icon">
    <path d="M15.4705,15.3228c-0.082,-1.1176,-0.428,-2.1241,-1.0284,-2.9917c-0.5557,-0.8031,-1.4899,-1.6426,-2.5354,-2.2508c-1.1355,-0.454,-2.7019,-0.8138,-0.5022,-1.6137c0.757,-0.2753,0.8214,-1.9964,0.7872,-3.3033c-0.2169,-3.857,-2.1086,-4.7626,-4.1862,-4.7626c-2.0776,0,-3.9954,0.9056,-4.2123,4.7626c-0.0323,1.2355,-0.2208,2.9143,0.4787,3.17c2.6257,0.9595,2.3998,0.7333,-0.2239,1.6687c-2.6367,1.5131,-3.4095,4.0174,-3.5087,5.3205l-0.0109,0.1435H15.481L15.4705,15.3228z" fill="#FFFFFF" opacity="0.5"/>
    <path d="M15.9696,15.3096c-0.1189,-1.511,-0.864,-4.2631,-4.5184,-5.7186l-0.7602,-0.2578l-0.0693,0.4666l-0.017,0.2l0.0697,0.7083c0,0,0.2478,1.4436,0.2771,1.7188c0.0046,0.0433,0.011,0.0924,0.018,0.1452c0.0195,0.1481,0.0596,0.4521,0.0153,0.5629c-0.0255,0.0042,-0.0657,0.0078,-0.0973,0.0106c-0.0366,0.0033,-0.075,0.0067,-0.1154,0.0117c-0.9093,0.113,-1.8407,0.172,-2.766,0.1754c-0.9277,-0.0034,-1.8591,-0.0624,-2.7684,-0.1754c-0.0403,-0.005,-0.0788,-0.0085,-0.1154,-0.0117c-0.0315,-0.0028,-0.0718,-0.0064,-0.0973,-0.0106c-0.0443,-0.1108,-0.0043,-0.4148,0.0153,-0.5629c0.007,-0.0529,0.0134,-0.1019,0.018,-0.1452c0.0292,-0.2746,0.276,-1.714,0.276,-1.714l0.1375,-0.7131l-0.064,-0.2l-0.0693,-0.4666l-0.7602,0.2578C0.9239,11.0464,0.1788,13.7986,0.06,15.3096l-0.0338,0.4301c-0.011,0.1401,0.1042,0.2596,0.2503,0.2596h15.4767c0.1461,0,0.2613,-0.1195,0.2503,-0.2596L15.9696,15.3096zM1.4783,14.7173c0.26,-1.2575,1.0326,-2.7078,3.0265,-3.6852c0.0294,-0.0157,0.0614,-0.0317,0.0944,-0.0477c-0.1159,0.6102,-0.1788,1.1382,-0.2037,1.3722c-0.0041,0.0383,-0.0098,0.0818,-0.016,0.1286c-0.0372,0.2821,-0.0881,0.6685,0.0508,0.9519c0.1621,0.3309,0.4569,0.3571,0.6331,0.3727c0.0292,0.0026,0.0599,0.0053,0.0921,0.0093c0.9356,0.1163,1.8939,0.177,2.8506,0.1805c0.9543,-0.0035,1.9125,-0.0642,2.8482,-0.1805c0.0322,-0.004,0.0629,-0.0067,0.0921,-0.0093c0.1762,-0.0157,0.471,-0.0419,0.633,-0.3727c0.139,-0.2835,0.088,-0.6699,0.0508,-0.952c-0.0062,-0.0468,-0.0119,-0.0902,-0.016,-0.1286c-0.025,-0.2353,-0.0885,-0.7681,-0.2057,-1.3827c0.0411,0.0195,0.0802,0.0391,0.1161,0.0583c1.9939,0.9774,2.7665,2.4278,3.0265,3.6852H1.4783z" fill="#6485C3"/>
    <path d="M5.3388,10.0385l-0.2672,-0.6107l1.0666,-0.4666l0.2672,0.6107L5.3388,10.0385zM10.6711,10.0385l0.2672,-0.6107l-1.0666,-0.4666l-0.2672,0.6107L10.6711,10.0385z" fill="#6485C3"/>
    <path d="M7.98,10.4664c-1.5534,0,-3.2254,-1.8332,-3.2254,-5.8581c0,-0.439,0.1986,-0.6687,0.3651,-0.784c0.1694,-0.1173,0.3843,-0.1744,0.6571,-0.1744c0.5761,0,1.3083,0.2599,2.0163,0.5112c0.4819,0.171,1.0267,0.3644,1.275,0.3644c0.7223,0,1.1049,-0.4084,1.3334,-0.6524c0.107,-0.1143,0.2534,-0.2706,0.4434,-0.2706c0.0471,0,0.096,0.0096,0.1453,0.0286c0.2811,0.1083,0.2811,0.4145,0.2811,0.7107c0,1.2622,-0.3016,2.7485,-0.7871,3.8788C9.8532,9.6899,8.9873,10.4664,7.98,10.4664zM5.7767,4.3465c-0.1588,0,-0.2244,0.0336,-0.2452,0.048c-0.0527,0.0365,-0.0637,0.1365,-0.0637,0.2139c0,2.0169,0.4487,3.236,0.8251,3.9036C6.7496,9.322,7.3488,9.7681,7.98,9.7681c1.46,0,2.4253,-2.8563,2.5607,-4.9182l0.0092,-0.1396l-0.112,0.0807c-0.3987,0.2872,-0.8595,0.4328,-1.3698,0.4328c-0.3737,0,-0.9038,-0.1882,-1.5177,-0.4061c-0.448,-0.159,-0.9092,-0.3227,-1.3062,-0.41C6.0595,4.3671,5.9022,4.3465,5.7767,4.3465z" fill="#6485C3"/>
    <path d="M5.7309,9.2665c-0.6882,-0.0055,-1.5424,-0.0916,-2.0824,-0.7142c-0.636,-0.7331,-0.6235,-1.9445,-0.4092,-3.5379c0.2695,-2.0038,0.7334,-3.2363,1.5042,-3.9962C5.653,0.1217,6.9043,0.0008,8.0085,0.0008h0.0316c1.1042,0,2.3555,0.1209,3.2649,1.0174c0.7708,0.7599,1.2347,1.9924,1.5042,3.9962c0.2129,1.5828,0.2244,2.7883,-0.4114,3.5264c-0.5368,0.6233,-1.3776,0.7149,-2.0501,0.725l-0.008,0.0001l-0.4445,0.0001l-0.0001,-1.0666l0.4404,-0.0001c0.6652,-0.0104,1.0521,-0.1198,1.2543,-0.3545c0.3092,-0.359,0.3609,-1.2133,0.1625,-2.6882c-0.2327,-1.7302,-0.6127,-2.8038,-1.196,-3.3788c-0.5118,-0.5046,-1.2408,-0.7104,-2.5162,-0.7104h-0.0316c-1.2754,0,-2.0043,0.2058,-2.5162,0.7104c-0.5832,0.575,-0.9633,1.6486,-1.196,3.3788c-0.2025,1.5058,-0.1539,2.3375,0.1578,2.6968c0.2032,0.2342,0.5982,0.3411,1.281,0.3466l0.2408,-0.0001l0.0001,1.0666L5.7309,9.2665z" fill="#6485C3"/>
  </g>
</svg>
