<?xml version="1.0" encoding="UTF-8"?>
<!DOCTYPE svg PUBLIC "-//W3C//DTD SVG 1.1//EN" "http://www.w3.org/Graphics/SVG/1.1/DTD/svg11.dtd">
<svg version="1.1" id="Layer_1" xmlns="http://www.w3.org/2000/svg" xmlns:xlink="http://www.w3.org/1999/xlink" x="0px" y="0px" width="16px" height="16px" viewBox="0 0 16 16" enable-background="new 0 0 16 16" xml:space="preserve">
  <g id="icon">
    <path d="M15.4705,15.323c-0.082,-1.1176,-0.428,-2.1241,-1.0284,-2.9917c-0.7233,-1.0453,-2.0871,-2.154,-3.5041,-2.7313c0,0,-0.5401,-0.5728,-0.787,-0.7157c-0.6378,0.6824,-1.3729,1.049,-2.1312,1.049c-0.7626,0,-1.5017,-0.3706,-2.142,-1.0605c-0.2407,0.1382,-0.8725,0.6605,-0.8725,0.6605c-3.4137,1.4048,-4.3555,4.3402,-4.4658,5.7893l-0.0109,0.1435H15.481L15.4705,15.323z" fill="#FFFFFF" opacity="0.5"/>
    <path d="M11.5175,4.273c0,2.4251,-1.566,5.1865,-3.4977,5.1865S4.522,6.6981,4.522,4.273S6.088,0.5422,8.0198,0.5422S11.5175,1.8479,11.5175,4.273z" fill="#FFFFFF" opacity="0.5"/>
    <path d="M15.9696,15.3098c-0.1189,-1.511,-0.864,-4.2631,-4.5184,-5.7186l-0.4883,-0.2085c-0.0775,0.101,-0.1564,0.2017,-0.238,0.302c-0.2257,0.2773,-0.4812,0.5165,-0.7604,0.7159c0.4063,0.1218,1.3339,0.5108,1.5603,0.6317c1.9939,0.9774,2.7665,2.4278,3.0265,3.6852H1.4783c0.26,-1.2575,1.0326,-2.7078,3.0265,-3.6852c0.2362,-0.1262,1.1589,-0.5324,1.5355,-0.6468c-0.2709,-0.1964,-0.5196,-0.4303,-0.7398,-0.7008c-0.0804,-0.0988,-0.1595,-0.1994,-0.2372,-0.3008l-0.4849,0.2074C0.9239,11.0466,0.1788,13.7988,0.06,15.3098l-0.0338,0.4301c-0.011,0.1401,0.1042,0.2596,0.2503,0.2596h15.4767c0.1461,0,0.2613,-0.1195,0.2503,-0.2596L15.9696,15.3098z" fill="#52B250"/>
    <path d="M10.3995,13.2423l-2.4123,-0.8488l-2.3761,0.8473c-0.126,0.0449,-0.2585,-0.0485,-0.2585,-0.1822v-1.9512c0,-0.1352,0.1351,-0.2287,0.2616,-0.1811l2.373,0.8931l2.4091,-0.8947c0.1264,-0.0469,0.2608,0.0465,0.2608,0.1814v1.9537C10.6572,13.1932,10.5254,13.2866,10.3995,13.2423z" fill="#52B250"/>
    <path d="M8.9271,3.7163c1.0038,0,1.6587,-0.2143,2.002,-0.6551c0.2483,-0.3188,0.3114,-0.7291,0.1876,-1.2195C9.4714,-0.599,4.8719,-0.1323,4.2872,3.4199l0.614,0.2596c0.009,-0.019,0.2833,-0.5848,1.2928,-0.5848c0.556,0,0.8522,0.1285,1.1951,0.2773C7.7611,3.5334,8.1828,3.7163,8.9271,3.7163z" fill="#52B250"/>
    <path d="M8,9.8c-1.0622,0,-2.0695,-0.6745,-2.8364,-1.8992C4.4976,6.8375,4.1,5.454,4.1,4.2c0,-1.2729,0.3964,-2.3467,1.1464,-3.1056C5.944,0.3887,6.9219,0,8,0c1.0782,0,2.0561,0.3887,2.7536,1.0944C11.5036,1.8532,11.9,2.9271,11.9,4.2c0,1.2541,-0.3976,2.6375,-1.0635,3.7008C10.0694,9.1255,9.0621,9.8,8,9.8zM8,1.2243c-1.6484,0,-2.7135,1.1681,-2.7135,2.9757c0,1.9288,1.2776,4.3758,2.7135,4.3758S10.7135,6.1288,10.7135,4.2C10.7135,2.3923,9.6484,1.2243,8,1.2243z" fill="#52B250"/>
  </g>
</svg>
