<?xml version="1.0" encoding="UTF-8"?>
<!DOCTYPE svg PUBLIC "-//W3C//DTD SVG 1.1//EN" "http://www.w3.org/Graphics/SVG/1.1/DTD/svg11.dtd">
<svg version="1.1" id="Layer_1" xmlns="http://www.w3.org/2000/svg" xmlns:xlink="http://www.w3.org/1999/xlink" x="0px" y="0px" width="16px" height="16px" viewBox="0 0 16 16" enable-background="new 0 0 16 16" xml:space="preserve">
  <g id="icon">
    <path d="M15.4705,15.323c-0.082,-1.1176,-0.428,-2.1241,-1.0284,-2.9917c-0.7233,-1.0453,-2.0871,-2.154,-3.5041,-2.7313c0,0,-0.5401,-0.5728,-0.787,-0.7157c-0.6378,0.6824,-1.3729,1.049,-2.1312,1.049c-0.7626,0,-1.5017,-0.3706,-2.142,-1.0605c-0.2407,0.1382,-0.8725,0.6605,-0.8725,0.6605c-3.4137,1.4048,-4.3555,4.3402,-4.4658,5.7893l-0.0109,0.1435H15.481L15.4705,15.323z" fill="#FFFFFF" opacity="0.5"/>
    <path d="M8.0198,10c-1.0904,0,-2.1279,-0.6858,-2.9213,-1.9311C4.4036,6.9782,3.9888,5.5591,3.9888,4.273c0,-1.2971,0.4095,-2.39,1.1842,-3.1605C5.8931,0.3962,6.9041,0.0017,8.0198,0.0017s2.1267,0.3944,2.8468,1.1107c0.7747,0.7706,1.1842,1.8634,1.1842,3.1605c0,1.2862,-0.4149,2.7052,-1.1098,3.7959C10.1476,9.3142,9.1102,10,8.0198,10z" fill="#6485C3"/>
    <path d="M15.9696,15.3098c-0.1184,-1.5052,-0.8586,-4.2418,-4.4767,-5.7015c0,0,-0.5003,-0.1975,-0.5634,-0.194l-0.2933,0.2884c-0.8673,0.8099,-1.7355,1.2244,-2.5871,1.2305c-0.0065,0.0001,-0.0129,0.0001,-0.0194,0.0001c-0.8567,0,-1.7411,-0.4121,-2.6352,-1.2236l-0.3055,-0.2916c-0.0597,0.014,-0.5793,0.2012,-0.5793,0.2012C0.915,11.0817,0.1781,13.8084,0.06,15.3098l-0.0338,0.4301c-0.011,0.1401,0.1042,0.2596,0.2503,0.2596h15.4767c0.1461,0,0.2613,-0.1195,0.2503,-0.2596L15.9696,15.3098z" fill="#6485C3"/>
  </g>
</svg>
