<?xml version="1.0" encoding="UTF-8"?>
<!DOCTYPE svg PUBLIC "-//W3C//DTD SVG 1.1//EN" "http://www.w3.org/Graphics/SVG/1.1/DTD/svg11.dtd">
<svg version="1.1" id="Layer_1" xmlns="http://www.w3.org/2000/svg" xmlns:xlink="http://www.w3.org/1999/xlink" x="0px" y="0px" width="16px" height="16px" viewBox="0 0 16 16" enable-background="new 0 0 16 16" xml:space="preserve">
  <g id="icon">
    <path d="M0.2,8.8727l0.6294,-0.9389l1.3446,0.8725c-0.5492,-1.9354,-0.2259,-4.0602,0.8844,-5.7361C4.0736,1.5379,5.6203,0.4956,7.4137,0.1353C7.8604,0.0455,8.3155,0,8.7664,0c1.3466,0,2.6561,0.402,3.787,1.1625c1.4464,0.9726,2.4628,2.4467,2.862,4.1509c0.3971,1.6953,0.1487,3.4614,-0.6993,4.9729l-0.0811,0.1447l-0.9803,-0.5584l0.0808,-0.1439c1.4638,-2.609,0.6698,-5.9576,-1.8076,-7.6235c-0.9415,-0.6331,-2.0363,-0.9677,-3.1661,-0.9677c-1.9217,0,-3.7034,0.9576,-4.7662,2.5616c-0.9825,1.4831,-1.2255,3.3544,-0.6626,5.0415l1.068,-1.4264l0.9146,0.6599l-2.1148,2.8905L0.2,8.8727z" fill="#6D6E71"/>
    <path d="M14.5171,16c0.1065,0,0.1904,-0.0847,0.1824,-0.1839l-0.0247,-0.3047c-0.0866,-1.0705,-0.6297,-3.0205,-3.293,-4.0517c-0.6121,-0.2447,-0.9032,-0.7764,-0.6121,-1.1631c0.7278,-0.9183,1.0177,-2.098,1.0177,-3.1743C11.7874,5.4557,11.261,4.4,8.9115,4.4h-0.0456c-2.3403,0,-2.8646,1.0557,-2.8646,2.7224c0,1.0762,0.2887,2.2559,1.0137,3.1743c0.29,0.3867,0,0.9183,-0.6097,1.1631c-2.653,1.0312,-3.1939,2.9811,-3.2802,4.0517l-0.0246,0.3047c-0.008,0.0992,0.0757,0.1839,0.1817,0.1839H14.5171z" fill="#6485C3"/>
  </g>
</svg>
