<?xml version="1.0" encoding="UTF-8"?>
<!DOCTYPE svg PUBLIC "-//W3C//DTD SVG 1.1//EN" "http://www.w3.org/Graphics/SVG/1.1/DTD/svg11.dtd">
<svg version="1.1" id="Layer_1" xmlns="http://www.w3.org/2000/svg" xmlns:xlink="http://www.w3.org/1999/xlink" x="0px" y="0px" width="16px" height="16px" viewBox="0 0 16 16" enable-background="new 0 0 16 16" xml:space="preserve">
  <g id="icon">
    <path d="M11.3599,14.9818c-0.0804,-0.8895,-0.8536,-2.5097,-3.3257,-3.3666c-0.2241,-0.0802,-0.377,-0.2218,-0.4837,-0.3637c-0.0342,-0.0455,-0.0062,-0.1107,0.0505,-0.1173c0.3164,-0.0367,1.1747,-0.1517,1.5996,-0.4523c0.1099,-0.0778,0.1108,-0.2435,-0.0002,-0.3199c-0.3569,-0.2458,-0.4814,-0.6358,-0.5489,-1.0412c-0.0719,-0.4318,-0.0941,-0.875,-0.1006,-1.3137c-0.0094,-0.6322,-0.0409,-1.2553,-0.246,-1.8627c-0.3782,-1.12,-1.4581,-1.5227,-2.3086,-1.46c-0.2964,0.0219,-0.566,0.1392,-0.8014,0.3296c-0.0586,0.0474,-0.1437,0.0921,-0.215,0.0898c-0.7138,-0.0225,-1.1404,0.3969,-1.3687,0.9518c-0.1516,0.3686,-0.2308,0.7572,-0.2389,1.1511c-0.0094,0.455,0.019,0.9112,0.0404,1.3664c0.0222,0.4716,-0.0114,0.9319,-0.2382,1.3584c-0.1058,0.1991,-0.2029,0.3155,-0.3745,0.4376c-0.1092,0.0776,-0.1116,0.2395,-0.0029,0.3177c0.3117,0.2245,0.8386,0.3731,1.6767,0.457c0.0214,0.0021,0.0343,0.0256,0.0233,0.0439c-0.1021,0.1702,-0.2693,0.3286,-0.5435,0.4272c-2.4624,0.8568,-3.2337,2.477,-3.3138,3.3666L0.617,15.235c-0.0074,0.0825,0.0702,0.1528,0.1687,0.1528h10.4279c0.0988,0,0.1768,-0.0703,0.1693,-0.1528L11.3599,14.9818z" fill="#FFFFFF" opacity="0.5"/>
    <path d="M0.7856,16c-0.2256,0,-0.4404,-0.0934,-0.5892,-0.2562c-0.1415,-0.1547,-0.212,-0.3617,-0.1935,-0.568l0.0227,-0.2544c0.0882,-0.986,0.7877,-2.3845,2.4861,-3.3527l0.2964,-0.169l-0.2869,-0.1847c-0.0294,-0.0189,-0.0581,-0.0386,-0.0862,-0.0589c-0.2104,-0.1524,-0.3356,-0.3986,-0.3348,-0.6587c0.0009,-0.2611,0.1282,-0.5077,0.3409,-0.6596c0.0892,-0.0638,0.1243,-0.1062,0.1881,-0.2267c0.1396,-0.2642,0.1897,-0.5782,0.1675,-1.0501l-0.0101,-0.2092c-0.0193,-0.3926,-0.0392,-0.7983,-0.0308,-1.206c0.0098,-0.4765,0.1055,-0.9401,0.2845,-1.3777c0.3358,-0.8208,0.9627,-1.2958,1.7652,-1.3377l0.0608,-0.0031l0.0494,-0.0356c0.3151,-0.227,0.6633,-0.356,1.0349,-0.3836C6.0237,4.0027,6.0979,4,6.171,4c0.9606,0,2.249,0.4961,2.7186,1.8943c0.2388,0.7111,0.2682,1.4074,0.2779,2.0596c0.0051,0.3432,0.0202,0.7931,0.0925,1.2297c0.0583,0.3524,0.1429,0.5383,0.292,0.6415c0.2163,0.1499,0.3464,0.3968,0.348,0.6607c0.0016,0.2651,-0.1261,0.5149,-0.3416,0.6681c-0.0278,0.0197,-0.0569,0.039,-0.0873,0.0579l-0.2954,0.1839l0.3026,0.1717c1.7049,0.9677,2.4072,2.3669,2.4959,3.3536l0.0229,0.2547c0.0186,0.2061,-0.0519,0.413,-0.1934,0.5677c-0.149,0.1631,-0.364,0.2565,-0.59,0.2565H0.7856zM4.9204,5.6584c-0.2342,0,-0.5299,0.0654,-0.7384,0.5752c-0.1216,0.2971,-0.1866,0.6125,-0.1932,0.9373c-0.0075,0.3663,0.0105,0.7318,0.0295,1.1188l0.0104,0.2139c0.021,0.4493,0.0087,1.0395,-0.2758,1.6172l-0.1198,0.2434l0.2664,0.0512c0.1847,0.0355,0.3987,0.0656,0.6362,0.0895c0.2214,0.0223,0.4132,0.1542,0.5132,0.3526c0.0995,0.1975,0.0914,0.4288,-0.0218,0.6187c-0.1926,0.3228,-0.4831,0.5562,-0.8636,0.6936c-1.8753,0.6562,-2.5394,1.7331,-2.7683,2.3166l-0.1108,0.2825h9.431l-0.1113,-0.2827c-0.2295,-0.5833,-0.895,-1.6596,-2.7729,-2.3139c-0.3327,-0.1197,-0.6088,-0.3354,-0.8189,-0.6403c-0.1307,-0.1901,-0.1526,-0.4384,-0.057,-0.648c0.0959,-0.2102,0.2982,-0.3568,0.528,-0.3827c0.2283,-0.0257,0.4378,-0.0581,0.6229,-0.0964l0.2547,-0.0527l-0.1088,-0.2363c-0.1215,-0.264,-0.1754,-0.5295,-0.2088,-0.7314c-0.0857,-0.5173,-0.1032,-1.0265,-0.1089,-1.4122c-0.0082,-0.5552,-0.0315,-1.1428,-0.214,-1.6864c-0.3369,-1.0032,-1.3618,-1.054,-1.5638,-1.054c-0.0393,0,-0.0779,0.0014,-0.1146,0.0041c-0.1592,0.0118,-0.3133,0.0774,-0.4578,0.1949c-0.105,0.0854,-0.3225,0.2286,-0.5987,0.2287C4.9853,5.6594,4.9318,5.6584,4.9204,5.6584z" fill="#9070B1"/>
    <path d="M15.3599,10.9818c-0.0804,-0.8895,-0.8536,-2.5097,-3.3257,-3.3666c-0.2241,-0.0802,-0.377,-0.2218,-0.4837,-0.3637c-0.0342,-0.0455,-0.0062,-0.1107,0.0505,-0.1173c0.3164,-0.0367,1.1747,-0.1517,1.5996,-0.4523c0.1099,-0.0778,0.1108,-0.2435,-0.0002,-0.3199c-0.3569,-0.2458,-0.4814,-0.6358,-0.5489,-1.0412c-0.0719,-0.4318,-0.0941,-0.875,-0.1006,-1.3137c-0.0094,-0.6322,-0.0409,-1.2553,-0.246,-1.8627c-0.3782,-1.12,-1.4581,-1.5227,-2.3086,-1.46c-0.2964,0.0219,-0.566,0.1392,-0.8014,0.3296c-0.0586,0.0474,-0.1437,0.0921,-0.215,0.0898c-0.7138,-0.0225,-1.1404,0.3969,-1.3687,0.9518c-0.1224,0.2974,-0.1967,0.6081,-0.2254,0.9239c1.0751,0.3191,2.1572,1.0908,2.6415,2.5325c0.2938,0.8748,0.3296,1.7099,0.3402,2.4239c0.0045,0.3015,0.0172,0.6934,0.0765,1.0512c0.0012,0.0072,0.0023,0.014,0.0035,0.0205c0.4094,0.3749,0.6492,0.9075,0.6526,1.4708c0.0014,0.2284,-0.0361,0.4523,-0.1082,0.6632c0.1018,0.0804,0.1986,0.1627,0.2924,0.2459h3.9292c0.0988,0,0.1768,-0.0703,0.1693,-0.1528L15.3599,10.9818z" fill="#FFFFFF" opacity="0.5"/>
    <path d="M15.9971,11.1758l-0.0229,-0.2547c-0.0887,-0.9867,-0.791,-2.3859,-2.4959,-3.3536l-0.3026,-0.1717l0.2954,-0.1839c0.0304,-0.0189,0.0595,-0.0382,0.0873,-0.0579c0.2155,-0.1533,0.3432,-0.403,0.3416,-0.6681c-0.0016,-0.2639,-0.1316,-0.5108,-0.348,-0.6607c-0.1491,-0.1032,-0.2337,-0.2891,-0.292,-0.6415c-0.0723,-0.4365,-0.0874,-0.8865,-0.0925,-1.2297c-0.0097,-0.6522,-0.0391,-1.3485,-0.2779,-2.0596C12.42,0.4961,11.1317,0,10.171,0c-0.0731,0,-0.1473,0.0027,-0.2203,0.0081c-0.3716,0.0276,-0.7198,0.1566,-1.0349,0.3836l-0.0494,0.0356l-0.0608,0.0031c-0.8026,0.0419,-1.4295,0.5169,-1.7652,1.3377c-0.1411,0.345,-0.2297,0.7063,-0.2659,1.0772c0.3982,0.0584,0.8137,0.1758,1.2141,0.3642c0.0002,-0.0129,-0.0001,-0.0258,0.0002,-0.0387c0.0066,-0.3248,0.0716,-0.6402,0.1932,-0.9373c0.2086,-0.5098,0.5042,-0.5752,0.7384,-0.5752c0.0114,0,0.0649,0.001,0.0652,0.0011c0.2763,-0.0001,0.4937,-0.1433,0.5987,-0.2287c0.1445,-0.1175,0.2986,-0.1831,0.4578,-0.1949c0.0367,-0.0027,0.0753,-0.0041,0.1146,-0.0041c0.2021,0,1.227,0.0508,1.5638,1.054c0.1826,0.5436,0.2058,1.1312,0.214,1.6864c0.0057,0.3857,0.0232,0.8948,0.1089,1.4122c0.0334,0.2018,0.0873,0.4674,0.2088,0.7314l0.1088,0.2363l-0.2547,0.0527c-0.185,0.0383,-0.3945,0.0708,-0.6229,0.0964c-0.2298,0.0259,-0.4321,0.1725,-0.528,0.3827c-0.0956,0.2096,-0.0737,0.4579,0.057,0.648c0.2101,0.3049,0.4862,0.5206,0.8189,0.6403c1.8779,0.6544,2.5434,1.7306,2.7729,2.3139l0.1113,0.2827h-3.6361c-0.0178,0.1275,-0.0463,0.2526,-0.0875,0.3731c0.3441,0.2719,0.6408,0.5611,0.8965,0.8581h3.3253c0.226,0,0.4411,-0.0935,0.59,-0.2565C15.9451,11.5888,16.0157,11.3819,15.9971,11.1758z" fill="#9070B1"/>
  </g>
</svg>
