<?xml version="1.0" standalone="no"?>
<!DOCTYPE svg PUBLIC "-//W3C//DTD SVG 1.1//EN" "http://www.w3.org/Graphics/SVG/1.1/DTD/svg11.dtd" >
<!--
2021-10-28: Created with FontForge (http://fontforge.org)
-->
<svg xmlns="http://www.w3.org/2000/svg" xmlns:xlink="http://www.w3.org/1999/xlink" version="1.1">
<metadata>
Created by FontForge 20201107 at Thu Oct 28 13:25:47 2021
 By Marc
Copyright (c) 2021, Marc
</metadata>
<defs>
<font id="Icons-Regular" horiz-adv-x="240" >
  <font-face 
    font-family="Icons"
    font-weight="400"
    font-stretch="normal"
    units-per-em="240"
    panose-1="2 0 5 9 0 0 0 0 0 0"
    ascent="180"
    descent="-60"
    bbox="-1.01367 -60.4951 241.218 180.506"
    underline-thickness="50"
    underline-position="-100"
    unicode-range="U+E000-E0CC"
  />
    <missing-glyph />
    <glyph glyph-name="uniE000" unicode="&#xe000;" 
d="M104.304 136.928v43.0723h16.3906v-43.0723h-16.3906zM26.5527 141.856l11.5908 11.5908l31.0586 -31.0596l-11.5898 -11.5898zM155.798 122.388l31.0586 31.0596l11.5908 -11.5908l-31.0596 -31.0586zM0 59.3057v16.3906h43.0723v-16.3906h-43.0723zM181.928 59.3057
v16.3906h43.0723v-16.3906h-43.0723zM112.5 111.69c-24.3662 0 -44.1904 -19.8242 -44.1904 -44.1904s19.8242 -44.1904 44.1904 -44.1904s44.1904 19.8242 44.1904 44.1904s-19.8242 44.1904 -44.1904 44.1904zM112.5 6.91992
c-33.4053 0 -60.5801 27.1748 -60.5801 60.5801s27.1748 60.5801 60.5801 60.5801s60.5801 -27.1748 60.5801 -60.5801s-27.1748 -60.5801 -60.5801 -60.5801zM26.5527 -6.85645l31.0596 31.0586l11.5898 -11.5898l-31.0586 -31.0596zM155.798 12.6123l11.5898 11.5898
l31.0596 -31.0586l-11.5908 -11.5908zM104.304 -45v43.0723h16.3906v-43.0723h-16.3906z" />
    <glyph glyph-name="uniE001" unicode="&#xe001;" 
d="M134.834 95.6279c15.4736 -12.9033 25.8564 -31.1719 29.0918 -51.1904c13.6982 12.0361 22.2588 29.4648 23.418 48.2637c-9.09766 4.52246 -19.3262 6.89746 -29.8438 6.89746c-7.75684 -0.00195312 -15.4307 -1.35645 -22.666 -3.9707zM91.2227 18.1377
c3.40039 -17.8516 13.7412 -33.8545 28.7773 -44.0908c15.0342 10.2363 25.376 26.2393 28.7773 44.0908c-9.16016 -3.44531 -18.9131 -5.23438 -28.7773 -5.23438s-19.6172 1.78809 -28.7773 5.23438zM52.6064 92.5244c1.04395 -18.6221 9.63867 -36.0332 23.4648 -48.1094
c3.23047 20.0283 13.6172 38.3057 29.0947 51.2129c-7.23535 2.61426 -14.9092 3.96875 -22.666 3.96875c-10.3984 0 -20.6475 -2.43457 -29.8936 -7.07227zM82.5 -52.5c-45.4902 0 -82.5 37.4785 -82.5 83.5488c0 28.2641 14.2867 54.7242 37.557 70.0703
c0 0.0445877 0.00163225 0.0891755 0.00163225 0.133763l0.083703 0.0490542c2.49759 43.7772 38.581 78.698 82.3577 78.698c43.7233 0 79.772 -34.8356 82.3484 -78.536l0.130108 -0.0763163v-0.292777c23.2493 -15.3488 37.5215 -41.7963 37.5215 -70.0461
c0 -46.0703 -37.0098 -83.5488 -82.5 -83.5488c-13.0209 0 -25.8525 3.11727 -37.3788 9.05154l-0.121179 -0.0710672l-0.121179 0.0710672c-11.5263 -5.93426 -24.3579 -9.05154 -37.3788 -9.05154zM164.863 26.3286c-1.31652 -23.3499 -12.368 -45.117 -30.0328 -59.8583
c7.23743 -2.61503 14.9119 -3.97036 22.6697 -3.97036c37.2197 0 67.5 30.75 67.5 68.5488c0 20.1664 -8.8345 39.2037 -23.6563 52.109c-3.80922 -23.2216 -17.0039 -43.9984 -36.4806 -56.8292zM149.893 34.9739c-1.19609 21.3599 -12.3287 41.1273 -29.8939 53.0778
c-17.5421 -11.938 -28.6683 -31.6764 -29.8872 -53.0797c9.24498 -4.63763 19.4915 -7.07158 29.8883 -7.07158c10.3985 0 20.6466 2.43397 29.8928 7.07353zM120.001 105.483c11.5573 5.97456 24.4328 9.11355 37.499 9.11355c9.94035 0 19.6889 -1.74671 28.7671 -5.11278
c-6.02805 31.5601 -33.5164 55.5161 -66.2671 55.5161c-32.7943 0 -60.3123 -24.0199 -66.2911 -55.6436c9.16462 3.45074 18.9232 5.24227 28.7911 5.24227c13.0669 0 25.9432 -3.14013 37.501 -9.1155zM75.1367 26.3283
c-19.5976 12.8914 -32.8391 33.6591 -36.5651 56.7568c-14.7708 -12.9051 -23.5716 -31.9083 -23.5716 -52.0363c0 -37.7988 30.2803 -68.5488 67.5 -68.5488c7.75789 0 15.4325 1.35536 22.67 3.97045c-17.6653 14.7417 -28.7179 36.5087 -30.0333 59.8579z" />
    <glyph glyph-name="uniE002" unicode="&#xe002;" 
d="M120 164.714v-194.429c50.271 3.84213 90 45.976 90 97.2144c0 51.2385 -39.729 93.3723 -90 97.2144zM105 -29.7144v194.429c-50.271 -3.84213 -90 -45.976 -90 -97.2144c0 -51.2385 39.729 -93.3723 90 -97.2144zM225 67.5c0 -62.0322 -50.4678 -112.5 -112.5 -112.5
h-7.5v0.247246c-58.5493 3.87217 -105 52.7405 -105 112.253c0 59.5123 46.4507 108.381 105 112.253v0.247246h7.5c62.0322 0 112.5 -50.4678 112.5 -112.5z" />
    <glyph glyph-name="uniE003" unicode="&#xe003;" 
d="M38.1416 -18.4463l-11.5898 11.5898l31.0586 31.0586l11.5898 -11.5898zM104.304 -45v43.0723h16.3906v-43.0723h-16.3906zM186.854 -18.4463l-31.0576 31.0576l11.5898 11.5898l31.0576 -31.0576zM112.5 128.08c33.4053 0 60.5801 -27.1748 60.5801 -60.5801
c0 -33.4033 -27.1748 -60.5801 -60.5801 -60.5801s-60.5801 27.1768 -60.5801 60.5801c0 33.4053 27.1748 60.5801 60.5801 60.5801zM181.928 59.3057v16.3906h43.0723v-16.3906h-43.0723zM0 59.3057v16.3906h43.0723v-16.3906h-43.0723zM167.386 110.797l-11.5898 11.5898
l31.0586 31.0576l11.5898 -11.5889zM104.304 136.928v43.0723h16.3906v-43.0723h-16.3906zM57.6104 110.799l-31.0576 31.0576l11.5898 11.5898l31.0576 -31.0576z" />
    <glyph glyph-name="uniE004" unicode="&#xe004;" 
d="M120 -40.0811c11.6201 -6.81641 25.1104 -10.7197 39.499 -10.7197c43.6309 0 79.001 35.8643 79.001 80.1045c0 29.6523 -15.8906 55.5391 -39.5059 69.3906zM41.0059 98.6943c0.265625 44.0107 35.5283 79.6064 78.9941 79.6064s78.7285 -35.5957 78.9941 -79.6055z
M120 -40.0811zM120 -40.0811zM41.0059 98.6943c-23.6152 -13.8496 -39.5059 -39.7373 -39.5059 -69.3887c0 -44.2412 35.3701 -80.1045 79.001 -80.1045c14.3887 0 27.8799 3.90234 39.499 10.7188zM198.978 98.8711c0 -29.6523 -15.8682 -56.2158 -39.4844 -70.0654
l0.00585938 0.5c0 29.6484 -15.8857 55.5342 -39.499 69.3857c11.6191 6.81543 25.1104 10.7188 39.499 10.7188s27.8604 -3.72461 39.4785 -10.5391zM120 98.6914c-23.6113 -13.8516 -39.499 -39.7373 -39.499 -69.3857l0.00585938 -0.500977
c-23.6152 13.8506 -39.5059 39.7383 -39.5059 69.3896l0.00585938 0.5c11.6191 6.81445 25.1055 10.7158 39.4941 10.7158s27.8789 -3.90332 39.499 -10.7188zM80.5068 28.8047c11.6191 -6.81445 25.1064 -10.7158 39.4932 -10.7158s27.874 3.90137 39.4932 10.7158
c-0.176758 -29.4404 -16.0137 -55.1133 -39.4932 -68.8857c-23.4795 13.7725 -39.3164 39.4463 -39.4932 68.8857z" />
    <glyph glyph-name="uniE005" unicode="&#xe005;" 
d="M105 -29.7144v194.429c-50.271 -3.84213 -90 -45.976 -90 -97.2144c0 -51.2385 39.729 -93.3723 90 -97.2144zM225 67.5c0 -62.0322 -50.4678 -112.5 -112.5 -112.5h-7.5v0.247246c-58.5493 3.87217 -105 52.7405 -105 112.253c0 59.5123 46.4507 108.381 105 112.253
v0.247246h7.5c62.0322 0 112.5 -50.4678 112.5 -112.5z" />
    <glyph glyph-name="uniE006" unicode="&#xe006;" 
d="M133.001 110.371c0 9.70312 7.86523 17.5684 17.5674 17.5684c9.70312 0 17.5684 -7.86523 17.5684 -17.5684c0 -9.70215 -7.86523 -17.5674 -17.5684 -17.5674c-9.70215 0 -17.5674 7.86523 -17.5674 17.5674zM45 150h150v-120h-150v120zM165 -15v-15h-90v15h90zM180 0
h-120v15h120v-15zM30 120h-30v15h30v-15zM30 90h-30v15h30v-15zM30 60h-30v15h30v-15zM30 30h-30v15h30v-15zM30 0h-30v15h30v-15zM225 -60h-210v44.501h15v-29.501h180v210h-180v-15h-15v30h210v-240zM60 77.1045c8.95508 13.2686 16.9844 20.1025 24.4443 20.832
c0.445312 0.0419922 0.899414 0.0644531 1.34863 0.0644531c9.82129 0 18.9756 -10.1729 29.5752 -21.9521c7.02148 -7.80371 14.9463 -16.6094 24.1104 -23.3447l2.75586 4.91406c-6.50098 4.83398 -12.1533 10.6006 -16.3975 15.1426l-0.850586 0.910156
l0.876953 0.880859c7.26367 7.29004 13.958 10.8779 20.4658 10.9678l0.250977 0.00195312c11.1357 0 21.5439 -10.2354 33.4199 -22.4629v71.9414h-120v-57.8955z" />
    <glyph glyph-name="uniE007" unicode="&#xe007;" 
d="M150 119.427c-3.83105 0 -6.94824 -3.10742 -6.94824 -6.92871c0 -3.82031 3.11719 -6.92773 6.94824 -6.92773s6.94824 3.10742 6.94824 6.92773c0.000976562 3.82227 -3.11719 6.92871 -6.94824 6.92871zM150 96c-9.09863 0 -16.5 7.40234 -16.5 16.5
c0 9.09863 7.40234 16.5 16.5 16.5s16.5 -7.40234 16.5 -16.5s-7.40234 -16.5 -16.5 -16.5zM45 150h150v-120h-150v120zM165 -15v-15h-90v15h90zM180 0h-120v15h120v-15zM30 120h-30v15h30v-15zM30 90h-30v15h30v-15zM30 60h-30v15h30v-15zM30 30h-30v15h30v-15zM30 0h-30
v15h30v-15zM225 -60h-210v44.501h15v-29.501h180v210h-180v-15h-15v30h210v-240zM145.689 45h34.3113v3.33113l-0.0224609 0.0243379c-11.9912 13.001 -22.3467 24.2295 -32.6113 24.2295h-0.231445c-5.22266 -0.0751953 -10.7402 -3.06152 -16.8223 -9.12012
c3.85938 -4.27832 8.85938 -9.50098 14.5771 -13.9727l2.25781 -1.75781zM180 66.011v68.989h-120v-54.4881c8.45285 11.0821 16.5149 16.7512 24.8369 17.6034c0.71582 0.0732422 1.44629 0.110352 2.16895 0.110352c13.3213 0 24.0244 -12.4004 35.3262 -25.6035
c8.33887 8.33398 16.4229 12.4473 24.6729 12.5674l0.339844 0.00195312c12.0435 0 22.0732 -8.23976 32.6553 -19.1804zM60 58.8297v-13.8297h71.4054c-6.40749 5.99369 -12.1328 12.6812 -17.3439 18.7676c-10.0381 11.7256 -18.7051 21.8496 -27.0898 21.8496
c-0.344727 0 -0.696289 -0.0185547 -1.04102 -0.0537109c-7.23438 -0.741211 -15.4141 -8.97656 -25.0068 -25.1768z" />
    <glyph glyph-name="uniE008" unicode="&#xe008;" 
d="M133.001 110.371c0 9.70312 7.86523 17.5684 17.5674 17.5684c9.70312 0 17.5684 -7.86523 17.5684 -17.5684c0 -9.70215 -7.86523 -17.5674 -17.5684 -17.5674c-9.70215 0 -17.5674 7.86523 -17.5674 17.5674zM45 150h150v-120h-150v120zM165 -15v-15h-90v15h90zM180 0
h-120v15h120v-15zM30 120h-30v15h30v-15zM30 90h-30v15h30v-15zM30 60h-30v15h30v-15zM30 30h-30v15h30v-15zM30 0h-30v15h30v-15zM225 -60h-210v44.501h15v-29.501h180v210h-180v-15h-15v30h210v-240zM145.567 45l-23.8496 25.7988l17.9971 19.3545l40.2852 -40.7207
v85.5674h-120v-56.3701l23.3564 25.1211l54.6289 -58.751h7.58203z" />
    <glyph glyph-name="uniE009" unicode="&#xe009;" 
d="M150 119.427c-3.83105 0 -6.94824 -3.10742 -6.94824 -6.92871c0 -3.82031 3.11719 -6.92773 6.94824 -6.92773s6.94824 3.10742 6.94824 6.92773c0.000976562 3.82227 -3.11719 6.92871 -6.94824 6.92871zM150 96c-9.09863 0 -16.5 7.40234 -16.5 16.5
c0 9.09863 7.40234 16.5 16.5 16.5s16.5 -7.40234 16.5 -16.5s-7.40234 -16.5 -16.5 -16.5zM45 150h150v-120h-150v120zM165 -15v-15h-90v15h90zM180 0h-120v15h120v-15zM30 120h-30v15h30v-15zM30 90h-30v15h30v-15zM30 60h-30v15h30v-15zM30 30h-30v15h30v-15zM30 0h-30
v15h30v-15zM225 -60h-210v44.501h15v-29.501h180v210h-180v-15h-15v30h210v-240zM174.249 45l-31.3066 31.2109l-15.5791 -15.5332l15.7139 -15.6777h31.1719zM125.921 45l-44.4219 44.3037l-21.499 -21.4346v-22.8691h65.9209zM60 84.9688l21.499 21.4355l37.2891 -37.1768
l24.1543 24.083l37.0576 -36.9453v78.6348h-120v-50.0312z" />
    <glyph glyph-name="uniE00A" unicode="&#xe00a;" 
d="M240 -45h-240v210h240v-210zM120 15v-45h60v45h45v45h-45v-45h-60zM120 15v45h60v45h45v45h-45v-45h-60v-45h-60v-45h60zM60 15h-45v-45h45v45zM60 60v45h60v45h-60v-45h-45v-45h45z" />
    <glyph glyph-name="uniE00B" unicode="&#xe00b;" 
d="M120 180h120v-240h-120v7.5v7.5v16.2305c0.301758 -0.0234375 0.595703 -0.0712891 0.90332 -0.0712891c3.44043 0 6.67578 1.34277 9.11328 3.78027l85.0605 85.0605l-85.0605 85.0586c-2.43555 2.4375 -5.67285 3.78027 -9.1123 3.78027
c-0.307617 0 -0.601562 -0.0498047 -0.904297 -0.0703125v16.2314v7.5v7.5zM105 -60h-105v240h105v-75h15v33.1064l78.1064 -78.1064l-78.1064 -78.1064v33.1064h-15v-75z" />
    <glyph glyph-name="uniE00C" unicode="&#xe00c;" 
d="M120 180h120v-240h-120v15h105v210h-105v15zM15 -45h75v75h45v-11.8936l41.8936 41.8936l-41.8936 41.8936v-11.8936h-45v75h-75v-210zM105 -60h-105v240h105v-75h15v33.1064l78.1064 -78.1064l-78.1064 -78.1064v33.1064h-15v-75z" />
    <glyph glyph-name="uniE00D" unicode="&#xe00d;" 
d="M15 -45h210v210h-210v-210zM240 -60h-240v240h240v-240zM150 -30h-60h-60v60v60v60h60h60h60v-60v-60v-60h-60z" />
    <glyph glyph-name="uniE00E" unicode="&#xe00e;" 
d="M90 -60h-90v240h90v-240zM53.25 -34.5c6.21289 0 11.25 5.03711 11.25 11.25s-5.03711 11.25 -11.25 11.25s-11.25 -5.03711 -11.25 -11.25s5.03711 -11.25 11.25 -11.25zM196.76 111.904l43.9902 -75.918l-137.604 -79.918l7.71039 13.1516l-0.00043406 -0.000252095
l75.2256 128.314l0.00257496 0.00140513l7.36461 12.5611zM102 140.818v14.3311l10.0264 16.3213l77.6562 -44.0713l-87.6826 -149.559v14.8301v14.8291v118.987v14.3311z" />
    <glyph glyph-name="uniE00F" unicode="&#xe00f;" 
d="M64.5 -23.25c0 -6.21289 -5.03711 -11.25 -11.25 -11.25s-11.25 5.03711 -11.25 11.25s5.03711 11.25 11.25 11.25s11.25 -5.03711 11.25 -11.25zM15 -45h60v210h-60v-210zM90 -60h-90v240h90v-240zM102 126.487v28.6621l10.0264 16.3213l77.6562 -44.0713
l-87.6826 -149.559v29.6592l67.0488 114.363l-51.8252 29.4121zM196.76 111.904l43.9902 -75.918l-137.604 -79.918l15.4199 26.3018l101.69 59.0615l-29.1445 50.3027l-12.3945 -6.76367l14.7314 25.126z" />
    <glyph glyph-name="uniE010" unicode="&#xe010;" 
d="M238.5 150h-238.5v15h238.5v-15zM45 105h-30v15h30v-15zM105 105h-30v15h30v-15zM165 105h-30v15h30v-15zM225 105h-30v15h30v-15zM60 60h-60v15h60v-15zM150 60h-60v15h60v-15zM240 60h-60v15h60v-15zM30 15h-30v15h30v-15zM105 15h-60v15h60v-15zM150 15h-30v15h30v-15
zM225 15h-60v15h60v-15zM75 -30h-75v15h75v-15zM165 -30h-75v15h75v-15zM240 -30h-60v15h60v-15z" />
    <glyph glyph-name="uniE011" unicode="&#xe011;" 
d="M100.99 -33.0674c-11.8184 -23.7314 -25.4785 -26.8848 -99.9824 -25.7939c-1.1084 0.0166016 -1.40039 1.50586 -0.375977 1.91992c26.0879 10.5566 21.7422 8.53809 41.7285 49.0322c21.2275 43.0088 75.4736 8.66406 58.6299 -25.1582zM170.474 82.1885
c6.21875 -5.56055 6.73828 -15.0947 1.16113 -21.293l-60.0244 -63.042c-0.646484 1.3291 -1.34961 2.64453 -2.14648 3.93164c-4.64941 7.51074 -11.4736 13.5283 -19.252 17.3613l58.9043 61.8848c5.57715 6.2002 15.1396 6.7168 21.3574 1.15723zM170.438 180
l69.5625 -69.75v-170.25h-105v15h90v150l-60 -0.1875v60.1875h-105v-120h-15v135h125.438z" />
    <glyph glyph-name="uniE012" unicode="&#xe012;" 
d="M15 -45h120v120h-120v-120zM150 -60h-150v150h150v-150zM170.438 180l69.5625 -69.75v-170.25h-72v15h57v150l-60 -0.1875v60.1875h-105v-57h-15v72h125.438zM75 -30h-45v45v45h45h45v-45v-45h-45z" />
    <glyph glyph-name="uniE013" unicode="&#xe013;" 
d="M150 -60h-150v150h150v-150zM45 180h125.438l69.5625 -69.75v-170.25h-72v15h57v150l-60 -0.1875v60.1875h-105v-57h-15v72z" />
    <glyph glyph-name="uniE014" unicode="&#xe014;" 
d="M101.785 33.1602c0 9.38867 7.58496 17 16.9414 17s16.9414 -7.61133 16.9414 -17s-7.58496 -16.999 -16.9414 -16.999s-16.9414 7.61035 -16.9414 16.999zM165 -60h-165v135h165v-135zM170.438 180l69.5625 -69.75v-170.25h-60v15h45v150l-60 -0.1875v60.1875h-105v-75
h-15v90h125.438zM15 -4.74902c10.0742 14.4463 19.1074 21.8867 27.501 22.6787c0.500977 0.0458984 1.01074 0.0703125 1.5166 0.0703125c11.0508 0 21.3477 -11.0762 33.2715 -23.8994c7.89941 -8.49609 16.8145 -18.083 27.124 -25.416l3.10059 5.35059
c-7.31348 5.26465 -13.6719 11.541 -18.4482 16.4863l-0.957031 0.991211l0.987305 0.958984c8.17188 7.9375 15.7031 11.8438 23.0244 11.9414l0.282227 0.000976562c12.5264 0 24.2383 -11.1426 37.5977 -24.4541v80.04h-135v-64.749z" />
    <glyph glyph-name="uniE015" unicode="&#xe015;" 
d="M101.785 33.1602c0 9.38867 7.58496 17 16.9414 17s16.9414 -7.61133 16.9414 -17s-7.58496 -16.999 -16.9414 -16.999s-16.9414 7.61035 -16.9414 16.999zM165 -60h-165v135h165v-135zM170.438 180l69.5625 -69.75v-170.25h-60v15h45v150l-60 -0.1875v60.1875h-105v-75
h-15v90h125.438zM15 -3.33789l26.2773 26.3672l67.7949 -68.0293h8.49512l-33.1338 33.4414l20.2471 20.3154l45.3193 -42.7422v93.9854h-135v-63.3379z" />
    <glyph glyph-name="uniE016" unicode="&#xe016;" 
d="M107.214 48.2236c7.80469 -14.3281 39.4727 9.83984 41.9473 -13.1416c2.47266 -22.9805 -41.2734 -23.6357 -42.4004 -42.5566c-1.12598 -18.9209 30.0283 -30.9375 10.6289 -48.1318s-36.2363 21.6045 -56.3047 21.8428
c-20.0674 0.238281 -49.4824 -38.6641 -59.2939 -10.4844c-9.80957 28.1787 23.707 27.8076 28.167 53.1201s-33.6152 28.9805 -23.9297 48.002s41.2266 -2.16406 52.8359 -2.21387c18.3838 -0.0751953 13.667 38.6396 35.3916 35.1123
c21.7256 -3.52734 5.15332 -27.2207 12.958 -41.5488zM170.438 180l69.5625 -69.75v-170.25h-91.5v15h76.5v150l-60 -0.1875v60.1875h-105v-75h-15v90h125.438z" />
    <glyph glyph-name="uniE017" unicode="&#xe017;" 
d="M16.5 36c-9.09766 0 -16.5 7.40234 -16.5 16.5s7.40234 16.5 16.5 16.5c6.3988 0 11.9589 -3.66191 14.6947 -9h28.8053v10.999c0 2.20996 1.79102 4.00098 4.00098 4.00098h37c2.20801 0 3.99902 -1.79102 3.99902 -4.00098v-10.999h28.8053
c2.73576 5.33809 8.29589 9 14.6947 9c9.09766 0 16.5 -7.40234 16.5 -16.5s-7.40234 -16.5 -16.5 -16.5c-6.3988 0 -11.9589 3.66191 -14.6947 9h-14.9811c4.00781 -4.29492 7.81055 -9.4082 11.3086 -15.2627c8.07973 -13.5199 13.6568 -29.4918 15.8366 -44.7354h15.0315
c2.20996 0 4.00098 -1.79102 4.00098 -4.00098v-37c0 -2.20996 -1.79102 -4.00098 -4.00098 -4.00098h-37c-2.20996 0 -4.00098 1.79102 -4.00098 4.00098v37c0 2.20996 1.79102 4.00098 4.00098 4.00098h6.80925c-3.43491 20.7757 -13.9454 41.5736 -25.8102 52.627
v-3.62988c0 -2.20996 -1.79102 -4.00098 -4.00098 -4.00098h-36.998c-2.20996 0.00195312 -4.00098 1.79297 -4.00098 4.00293v8.03516c-14.2002 -8.99121 -27.7783 -33.0273 -31.7959 -57.0361h12.7969c2.20996 0 4.00098 -1.79102 4.00098 -4.00098v-37
c0 -2.20996 -1.79102 -4.00098 -4.00098 -4.00098h-37c-2.20996 0.00195312 -4.00098 1.79297 -4.00098 4.00293v37c0 2.20801 1.79102 3.99902 4.00098 3.99902h9.03809c2.20215 15.2578 7.83496 31.2393 15.998 44.7656c3.52441 5.84277 7.35742 10.9463 11.3936 15.2344
h-9.23597c-2.73576 -5.33809 -8.29589 -9 -14.6947 -9zM170.438 180l69.5625 -69.75v-170.25h-60v15h45v150l-60 -0.1875v60.1875h-105v-75h-15v90h125.438z" />
    <glyph glyph-name="uniE018" unicode="&#xe018;" 
d="M138.627 -14.1289l-14.0898 12.9502l45.2344 49.2158l-27.4473 44.5039l16.2871 10.0459l24.6133 -39.9092l37.8604 41.1924l14.0898 -12.9492l-41.5117 -45.166l29.9453 -48.5537l-16.2871 -10.0459l-27.1123 43.959zM29.2607 -58.5
c-0.886719 0 -1.7793 0.0371094 -2.65527 0.111328c-8.31934 0.697266 -14.4854 4.375 -18.1934 7.33789l-1.15039 0.917969l11.9424 14.9521l1.15137 -0.917969c1.63477 -1.30566 4.32227 -2.92383 7.85352 -3.2207
c0.369141 -0.03125 0.729492 -0.0449219 1.08105 -0.0449219c3.19727 0 5.71387 1.18652 8.14844 2.33203c3.61035 1.70117 7.34082 4.82227 10.791 9.02832c5.98926 7.30078 8.37402 14.5771 9.15723 16.9688c11.1875 34.1475 13.7793 47.2598 13.8047 47.3887
c4.06934 21.5303 6.80664 36.0186 9.09863 50.3887h-20.0996v19.1367h22.9092c0.304688 1.74316 6.29785 35.4453 16.6064 51.2627c0.102539 0.15625 0.463867 0.75293 0.463867 0.75293c1.65918 2.73926 5.1123 8.44238 11.5801 13.291
c2.89941 2.17578 8.29395 6.2207 16.6367 7.13574c1.08984 0.120117 2.2002 0.180664 3.29785 0.180664c6.61816 0 11.4668 -2.13477 13.5381 -3.04688c4.56445 -2.00684 8.71484 -5.03711 12.001 -8.75977l0.975586 -1.10449l-14.3447 -12.667l-0.973633 1.10352
c-1.46582 1.65918 -3.31934 3.01172 -5.36426 3.91113c-1.13184 0.49707 -3.23926 1.4248 -5.84375 1.4248c-0.386719 0 -0.78418 -0.0195312 -1.19238 -0.0664062c-3.14062 -0.344727 -5.32227 -1.97949 -7.24512 -3.42285
c-3.50195 -2.62695 -5.5 -5.92676 -6.69629 -7.89941c-0.306641 -0.506836 -0.572266 -0.938477 -0.795898 -1.2832c-5.87109 -9.00781 -10.8809 -29.1035 -13.1758 -40.8135h22.0303v-19.1377h-24.9346c-2.43164 -15.6553 -5.18262 -30.2129 -9.66602 -53.9326
c-0.105469 -0.555664 -2.70605 -14.0303 -14.4229 -49.7998c-1.05859 -3.2334 -4.28223 -13.0742 -12.5488 -23.1504c-5.23926 -6.3877 -11.2646 -11.2988 -17.4268 -14.2012c-3.08691 -1.45215 -8.82617 -4.15625 -16.3379 -4.15625z" />
    <glyph glyph-name="uniE019" unicode="&#xe019;" 
d="M13.8643 -58.8643l-12.7275 12.7275l225 225l12.7275 -12.7275zM68.9531 42.8955c-1.9043 5.35938 -2.95312 11.1045 -2.95312 17.085c0 28.9385 24.2236 52.4805 54 52.4805c5.61621 0 11.0322 -0.839844 16.1279 -2.39258l-6.15625 -6.15625l-6.59961 -6.59961
l-48.4395 -48.4395l-0.000406328 0.0015468zM109.996 16.0547l55.0635 55.0645l0.000309027 -0.00117193l5.97625 5.97578c1.91113 -5.36719 2.96387 -11.1211 2.96387 -17.1133c0 -28.9375 -24.2236 -52.4805 -54 -52.4805c-5.62695 0 -11.0537 0.842773 -16.1562 2.40137
l6.15315 6.15315zM195.106 101.166c17.9043 -15.7529 31.5166 -32.918 38.4658 -41.6807l5.53223 -6.92871l-3.74805 -4.68457c-17.3955 -21.7461 -63.6201 -62.8721 -114.058 -62.8721c-12.1514 0 -24.127 2.12109 -35.9883 6.37012l11.9551 11.9551
c7.97852 -2.21191 15.9824 -3.3252 24.0332 -3.3252c42.4873 0 82.3047 34.6514 98.4932 52.7178c-7.18164 9.00391 -19.665 24.1787 -35.2939 37.8398zM4.68945 54.9619l-3.86914 4.74121l3.86914 4.74121c14.2373 17.4512 57.5664 70.5557 116.609 70.5557
c11.333 0 22.3203 -2.66699 32.7344 -7.02441l-11.6152 -11.6162c-6.88867 2.29492 -13.958 3.64062 -21.1191 3.64062c-47.5059 0 -84.9854 -40.9834 -101.068 -60.2734c11.0449 -13.0498 21.9941 -23.9092 32.9102 -32.6445l-10.665 -10.6641
c-12.6182 10.2822 -25.1885 23.1025 -37.7861 38.5439z" />
    <glyph glyph-name="uniE01A" unicode="&#xe01a;" 
d="M120 7.5c-29.7764 0 -54 23.543 -54 52.4805c0 28.9385 24.2236 52.4805 54 52.4805s54 -23.542 54 -52.4805c0 -28.9375 -24.2236 -52.4805 -54 -52.4805zM120 40.3633c10.8525 0 19.6484 8.79199 19.6484 19.6367s-8.79785 19.6367 -19.6484 19.6367
s-19.6484 -8.79199 -19.6484 -19.6367s8.7959 -19.6367 19.6484 -19.6367zM20.2305 59.7266c34.002 -40.1738 67.1104 -59.7266 101.068 -59.7266c42.4873 0 82.3047 34.6514 98.4932 52.7178c-15.4473 19.3662 -55.3936 67.2822 -98.4932 67.2822
c-47.5059 0 -84.9854 -40.9834 -101.068 -60.2734zM121.299 -15c-40.0557 0 -78.1992 22.8838 -116.609 69.9619l-3.86914 4.74121l3.86914 4.74121c14.2373 17.4512 57.5664 70.5557 116.609 70.5557c52.3896 0 97.4629 -56.8379 112.273 -75.5146l5.53223 -6.92871
l-3.74805 -4.68457c-17.3945 -21.7461 -63.6182 -62.8721 -114.058 -62.8721z" />
    <glyph glyph-name="uniE01B" unicode="&#xe01b;" 
d="M76.5791 51.3887l-61.5791 84.915v43.6963h195v-43.6963l-61.5791 -84.915v-84.4355l-71.8418 -26.9531v111.389z" />
    <glyph glyph-name="uniE01C" unicode="&#xe01c;" 
d="M30 145.844l60 -82.8242v-102.274l45 15.9707v86.3037l60 82.8242v19.1562h-165v-19.1562zM75 -60.4951v118.651l-60 82.8242v39.0195h195v-39.0195l-60 -82.8242v-92.0352z" />
    <glyph glyph-name="uniE01D" unicode="&#xe01d;" 
d="M236.174 -45h-101.174v220.226c0 3.61621 4.91113 4.71094 6.44727 1.43652l98.1074 -216.34c1.16211 -2.47852 -0.645508 -5.32227 -3.38086 -5.32227zM105 -45h-101.174c-2.73535 0 -4.54297 2.84375 -3.38184 5.32031l98.1084 216.342
c1.53613 3.27441 6.44727 2.17969 6.44727 -1.43652v-220.226z" />
    <glyph glyph-name="uniE01E" unicode="&#xe01e;" 
d="M150 -30h65.4492l-65.4492 153.089v-153.089zM236.174 -45h-101.174v220.226c0 3.61621 4.91113 4.71094 6.44727 1.43652l98.1074 -216.34c1.16211 -2.47852 -0.645508 -5.32227 -3.38086 -5.32227zM21.5508 -30h68.4492v153.089zM105 -45h-101.174
c-2.73535 0 -4.54297 2.84375 -3.38184 5.32031l98.1084 216.342c1.53613 3.27441 6.44727 2.17969 6.44727 -1.43652v-220.226z" />
    <glyph glyph-name="uniE01F" unicode="&#xe01f;" 
d="M15 -56.1738v101.174h220.226c3.61621 0 4.71094 -4.91113 1.43652 -6.44727l-216.342 -98.1074c-2.47656 -1.16211 -5.32031 0.645508 -5.32031 3.38086zM15 75.002v101.172c0 2.73535 2.84375 4.54297 5.32031 3.38184l216.341 -98.1074
c3.27441 -1.53613 2.18066 -6.44629 -1.4375 -6.44629h-220.224z" />
    <glyph glyph-name="uniE020" unicode="&#xe020;" 
d="M30 30v-65.4492l153.089 65.4492h-153.089zM15 -56.1738v101.174h220.226c3.61621 0 4.71094 -4.91113 1.43652 -6.44727l-216.342 -98.1074c-2.47656 -1.16211 -5.32031 0.645508 -5.32031 3.38086zM30 158.449v-68.4492h153.089zM15 75.002v101.172
c0 2.73535 2.84375 4.54297 5.32031 3.38184l216.341 -98.1074c3.27441 -1.53613 2.18066 -6.44629 -1.4375 -6.44629h-220.224z" />
    <glyph glyph-name="uniE021" unicode="&#xe021;" 
d="M144 180l95.5195 -232.905l-16.6494 -6.8252l-29.4297 73.2305h-63.1201l-7.42578 18h63.1504l-47.8496 116.61l-30.8105 -79.0205l-9.94434 24.0752l33.8545 86.7754zM42.3154 4.70898h54.0938l-27.4268 66.6387zM123.047 -60l-19.2471 46.7461h-68.6816
l-18.4844 -46.1777l-16.6338 6.69141l62.5156 156.15l12.5713 0.195312l64.5166 -156.75z" />
    <glyph glyph-name="uniE022" unicode="&#xe022;" 
d="M15 -45h210v210h-210v-210zM240 -60h-240v240h240v-240zM133.789 150h1.3252h32.166l-47.2803 -90h90v-35.7783v-0.132812v-46.8711v-0.112305v-7.10547h-42.7197h-0.37793h-31.7881h-1.3252h-27.8877h-0.414062h-32.5898h-0.575195h-42.3223v6.25195v1.27344v44.999
v1.13477v36.1758l90 0.165039l-90 0.165039v36.1758v1.13477v44.999v1.27344v6.25195h42.3223h0.575195h32.5898h0.414062h27.8877z" />
    <glyph glyph-name="uniE023" unicode="&#xe023;" 
d="M30 -30v180h13.8467h13.8467h13.8447h0.000976562h13.8457h13.8467h13.8457h13.8457h0.000976562h13.8447h13.8467h13.8467v-180h-13.8467h-13.8467h-13.8447h-0.000976562h-13.8457h-13.8457h-13.8467h-13.8457h-0.000976562h-13.8447h-13.8467h-13.8467zM15 -45h210
v210h-210v-210zM240 -60h-240v240h240v-240z" />
    <glyph glyph-name="uniE024" unicode="&#xe024;" 
d="M15 -45h210v210h-210v-210zM240 -60h-240v240h240v-240zM95.7617 -30h-20.9326h-2.32617h-20.9326h-2.3252h-19.2451v1.82812v2.52051v22.6768v2.51855v22.6768v2.52051v22.6768v2.52051v22.6768v2.51855v22.6768v2.51953v49.6699h45.8486h2.3252h20.9326h2.32617
h20.9326h2.3252h20.9326h2.32617h20.9326h2.3252h20.9326h2.32617h15.5342v-5.84863v-2.51953v-22.6758v-2.52051v-22.6768v-2.51855v-25.1963l-88.6543 -96.0439h-23.2588h-2.3252z" />
    <glyph glyph-name="uniE025" unicode="&#xe025;" 
d="M15 -45h210v210h-210v-210zM240 -60h-240v240h240v-240zM173.83 -30l-0.00322517 -0.00195312h-107.656l-0.00322447 0.00195312h-36.1677v36.708v16.8828v72.8184v16.8809v36.71h36.1709h16.4668h37.3623h37.3623h16.4668h36.1709v-36.71v-16.8809v-72.8184v-53.5908
h-36.1696z" />
    <glyph glyph-name="uniE026" unicode="&#xe026;" 
d="M210 39.2314v-6.92285h-180v6.92285h180zM210 -23.0771v-6.92285h-180v6.92285h180zM30 80.7686v6.92285h180v-6.92285h-180zM30 143.077v6.92285h180v-6.92285h-180zM15 -45h210v210h-210v-210zM240 -60h-240v240h240v-240zM30 25.3848v6.92188h180v-6.92188v-6.92285
v-6.92285h-180v6.92285v6.92285zM30 4.61523v6.92285h180v-6.92285v-6.92188v-6.92285h-180v6.92285v6.92188zM30 -16.1533v6.92188h180v-6.92188v-6.92285h-180v6.92285zM210 94.6152v-6.92188h-180v6.92188v6.92285v6.92285h180v-6.92285v-6.92285zM210 115.385v-6.92285
h-180v6.92285v6.92188v6.92285h180v-6.92285v-6.92188zM210 136.153v-6.92188h-180v6.92188v6.92285h180v-6.92285z" />
    <glyph glyph-name="uniE027" unicode="&#xe027;" 
d="M15 -45h210v210h-210v-210zM240 -60h-240v240h240v-240zM210 25.3848v-13.8467h-180v13.8467v13.8467v13.8457v13.8457v0.000976562v13.8447v13.8467v13.8467v13.8447v0.00195312v13.8447v13.8467h180v-13.8467v-13.8447v-0.00195312v-13.8447v-13.8467v-13.8467
v-13.8447v-0.000976562v-13.8457v-13.8457v-13.8467z" />
    <glyph glyph-name="uniE028" unicode="&#xe028;" 
d="M60 60v-45h45v45h-45zM60 120v-45h45v45h-45zM120 60v-45h45v45h-45zM120 120v-45h45v45h-45zM45 -45v45h-45v15h45v45h-45v15h45v45h-45v15h45v45h15v-45h45v45h15v-45h45v45h15v-45h45v-15h-45v-45h45v-15h-45v-45h45v-15h-45v-45h-15v45h-45v-45h-15v45h-45v-45h-15z
" />
    <glyph glyph-name="uniE029" unicode="&#xe029;" 
d="M12.584 120.916l-11.668 11.668l46.5 46.5l11.668 -11.668zM12.584 60.916l-11.668 11.668l106.5 106.5l11.668 -11.668zM12.584 0.916016l-11.668 11.668l166.5 166.5l11.668 -11.668zM12.584 -59.084l-11.668 11.668l226.5 226.5l11.668 -11.668zM72.584 -59.084
l-11.668 11.668l166.5 166.5l11.668 -11.668zM132.584 -59.084l-11.668 11.668l106.5 106.5l11.668 -11.668zM192.584 -59.084l-11.668 11.668l46.5 46.5l11.668 -11.668z" />
    <glyph glyph-name="uniE02A" unicode="&#xe02a;" 
d="M195 60v-90h-15v90h15zM165 90v-120h-15v120h15zM135 75v-105h-15v105h15zM105 105v-135h-15v135h15zM75 90v-120h-15v120h15zM45 -30h-15v75h15v-75zM15 -45h195v165h-195v-165zM225 -60h-225v180v15v30h225v-30v-15v-180z" />
    <glyph glyph-name="uniE02B" unicode="&#xe02b;" 
d="M150 107.807c0 14.5537 11.7979 26.3516 26.3516 26.3516c14.5547 0 26.3525 -11.7979 26.3525 -26.3516s-11.7979 -26.3525 -26.3525 -26.3525c-14.5537 0 -26.3516 11.7988 -26.3516 26.3525zM240 -45h-240v210h240v-210zM15 42.5957
c15.6709 23.4355 29.7227 35.5049 42.7803 36.7891c0.779297 0.0761719 1.57324 0.115234 2.35938 0.115234c17.1885 0 33.207 -17.9668 51.7559 -38.7725c12.2881 -13.7803 26.1553 -29.334 42.1934 -41.2285l4.82227 8.67871
c-11.376 8.54102 -21.2666 18.7236 -28.6963 26.7451l-1.48828 1.6084l1.53613 1.55566c12.71 12.876 24.4268 19.2119 35.8154 19.3701l0.438477 0.00390625c19.4854 0 37.7021 -18.0771 58.4834 -39.6709v132.21h-210v-107.404z" />
    <glyph glyph-name="uniE02C" unicode="&#xe02c;" 
d="M15 -30h210v31.297l-3.14844 3.26643c-20.8115 21.6074 -38.7842 40.2666 -57.3193 40.2666l-0.408203 -0.00292969c-10.0635 -0.138672 -20.5664 -5.78027 -32.0713 -17.2402c6.96875 -7.47949 16.2119 -16.9053 26.7734 -24.8145l2.13574 -1.59473l-7.55566 -13.5645
l-2.52246 1.87598c-15.7363 11.6406 -29.2725 26.7793 -41.2158 40.1387c-17.4932 19.5664 -32.5889 36.4541 -47.9785 36.4541c-0.669922 0 -1.34863 -0.0322266 -2.01758 -0.0986328c-13.1406 -1.28809 -27.6768 -15.0957 -44.4424 -42.21l-0.229492 -0.370662v-53.4028z
M240 -45h-240v210h240v-210zM180.702 120c-7.83203 0 -14.2021 -6.3418 -14.2021 -14.1377c0 -7.79492 6.37207 -14.1357 14.2021 -14.1357s14.2021 6.3418 14.2021 14.1357s-6.37109 14.1377 -14.2021 14.1377zM180.702 76.7266
c-16.1025 0 -29.2021 13.0713 -29.2021 29.1357c0 16.0664 13.0996 29.1377 29.2021 29.1377s29.2021 -13.0713 29.2021 -29.1377c0.000976562 -16.0645 -13.0996 -29.1357 -29.2021 -29.1357zM225 23.2317v126.768h-210l-3.55271e-15 -99.6766
c14.936 19.8074 28.9437 29.8495 43.2988 31.2567c1.14355 0.113281 2.30566 0.169922 3.4502 0.169922c21.7227 0 39.6797 -20.0869 58.6904 -41.3535l1.34668 -1.50488c14.3867 14.3408 28.1865 21.4072 42.1699 21.6006l0.55957 0.00292969
c22.0177 0 40.32 -16.5832 60.4844 -37.2634z" />
    <glyph glyph-name="uniE02D" unicode="&#xe02d;" 
d="M133.001 89.3711c0 9.70312 7.86523 17.5684 17.5674 17.5684c9.70312 0 17.5684 -7.86523 17.5684 -17.5684c0 -9.70215 -7.86523 -17.5674 -17.5684 -17.5674c-9.70215 0 -17.5674 7.86523 -17.5674 17.5674zM195 180h30v-15h15v-30h-15v-15h15v-30h-15v-15h15v-30h-15
v-15l15 7.10543e-15v-30h-15v-15l15 -5.32907e-15v-30h-15v-15h-30v15h-15v-15h-30v15h-15v-15h-30v15h-15v-15h-30v15h-15v-15h-30v15h-15v30h15v15l-15 1.249e-15v30h15v15h-15v30h15v15h-15v30h15v15h-15v30h15v15h30v-15h15v15h30v-15h15v15h30v-15h15v15h30v-15h15v15z
M60 47.1045c8.95508 13.2686 16.9844 20.1025 24.4443 20.832c0.445312 0.0419922 0.899414 0.0644531 1.34863 0.0644531c9.82129 0 18.9756 -10.1729 29.5752 -21.9521c7.02148 -7.80371 14.9463 -16.6094 24.1104 -23.3447l2.75586 4.91406
c-6.50098 4.83398 -12.1533 10.6006 -16.3975 15.1426l-0.850586 0.910156l0.876953 0.880859c7.26367 7.29004 13.958 10.8779 20.4658 10.9678l0.250977 0.00195312c11.1357 0 21.5439 -10.2354 33.4199 -22.4629v86.9414h-120v-72.8955z" />
    <glyph glyph-name="uniE02E" unicode="&#xe02e;" 
d="M60 0h120v22.8695c-12.5911 12.8236 -23.2129 22.3883 -33.5967 22.3883c-0.0800781 0 -0.158203 0 -0.237305 -0.000976562c-5.0957 -0.0722656 -10.2656 -2.52637 -15.708 -7.47461c8.08301 -8.17871 16.6797 -15.6016 26.6953 -19.4912l-4.88574 -12.584
c-16.3691 6.35938 -28.9014 19.7422 -39.96 31.5498c-10.8877 11.6279 -20.2891 21.6855 -29.0352 20.7812c-6.7341 -0.684126 -14.5547 -7.9043 -23.2725 -21.4736v-36.5644zM150 99c-4.96387 0 -9 -4.03613 -9 -9s4.03613 -9 9 -9s9 4.03613 9 9s-4.03613 9 -9 9zM150 69
c-11.5801 0 -21 9.41992 -21 21s9.41992 21 21 21s21 -9.41992 21 -21s-9.41992 -21 -21 -21zM195 180h30v-15h15v-30h-15v-15h15v-30h-15v-15h15v-30h-15v-15l15 7.10543e-15v-30h-15v-15l15 -5.32907e-15v-30h-15v-15h-30v15h-15v-15h-30v15h-15v-15h-30v15h-15v-15h-30
v15h-15v-15h-30v15h-15v30h15v15l-15 1.249e-15v30h15v15h-15v30h15v15h-15v30h15v15h-15v30h15v15h30v-15h15v15h30v-15h15v15h30v-15h15v15h30v-15h15v15zM180 41.8115v78.1885h-120v-61.1718c7.27885 7.78664 14.4466 11.8832 21.9062 12.6406
c14.9785 1.53613 26.8301 -10.6602 39.2441 -23.9053c8.05469 7.39941 16.2197 11.0703 24.8252 11.1914c12.6818 0.185675 23.8757 -7.57622 34.0244 -16.9434z" />
    <glyph glyph-name="uniE02F" unicode="&#xe02f;" 
d="M139.424 96.2246c0 11.4736 9.30078 20.7754 20.7744 20.7754s20.7754 -9.30176 20.7754 -20.7754s-9.30176 -20.7744 -20.7754 -20.7744s-20.7744 9.30078 -20.7744 20.7744zM240 150v-15h-30v-165h-165v-30h-15v30h-30v15h30v165h165v30h15v-30h30zM45 41.8271
c11.1934 18.3438 21.2314 27.791 30.5566 28.7969c0.557617 0.0605469 1.125 0.0908203 1.68555 0.0908203c12.2773 0 23.7197 -14.0645 36.9697 -30.3486c8.77637 -10.7881 18.6816 -22.9619 30.1377 -32.2734l3.44434 6.79297
c-8.12598 6.68555 -15.1914 14.6553 -20.498 20.9355l-1.06348 1.25879l1.09668 1.21777c9.07812 10.0801 17.4482 15.0391 25.582 15.1641l0.313477 0.000976562c13.9189 0 26.9316 -14.1514 41.7754 -31.0547v112.592h-150v-93.1729z" />
    <glyph glyph-name="uniE030" unicode="&#xe030;" 
d="M142.443 1.87793c-11.9648 8.34277 -22.0908 19.3965 -31.0244 29.1484c-12.1475 13.2598 -22.6338 24.708 -32.6914 24.708c-0.414062 0 -0.833008 -0.0195312 -1.24023 -0.0605469c-7.95605 -0.760742 -17.2744 -9.05859 -27.6982 -24.6611l-4.78906 -7.1748v-38.8379
h150v24.959l-4.48633 4.54297c-13.4277 13.5986 -26.1094 26.4424 -38.4424 26.4424l-0.235352 -0.00195312c-5.94629 -0.0810547 -12.1455 -3.05273 -18.9678 -9.08398l-1.1709 -1.03613l1.0918 -1.11621c4.02734 -4.11133 10.2227 -10.1729 17.5 -15.3281l1.8623 -1.31934
l-7.3291 -12.8398zM157.631 108.671c-5.04785 0 -9.15332 -4.08496 -9.15332 -9.10352c0 -5.01953 4.10547 -9.10352 9.15332 -9.10352c5.04688 0 9.15234 4.08398 9.15234 9.10352c0 5.01855 -4.10547 9.10352 -9.15234 9.10352zM157.631 76.5
c-12.7461 0 -23.1152 10.3467 -23.1152 23.0654s10.3691 23.0654 23.1152 23.0654c12.7451 0 23.1143 -10.3467 23.1143 -23.0654s-10.3691 -23.0654 -23.1143 -23.0654zM240 150v-15h-30v-165h-165v-30h-15v30h-30v15h30v165h165v30h15v-30h30zM45 49.3623
l0.55957 0.689453c10.293 12.6904 20.2842 19.3379 30.5488 20.3203c0.883789 0.0839844 1.78027 0.12793 2.66309 0.12793c16.3867 0 29.9287 -14.7705 41.877 -27.8027l1.03027 -1.125l1.13965 1.02051c9.71387 8.69238 19.1387 12.9805 28.8125 13.1123
l0.442383 0.00390625c16.3291 0 29.79 -11.9268 42.1768 -24.1416l0.75 -0.739258v104.172h-150v-85.6377z" />
    <glyph glyph-name="uniE031" unicode="&#xe031;" 
d="M150 107.807c0 14.5537 11.7979 26.3516 26.3516 26.3516c14.5547 0 26.3525 -11.7979 26.3525 -26.3516s-11.7979 -26.3525 -26.3525 -26.3525c-14.5537 0 -26.3516 11.7988 -26.3516 26.3525zM240 -45h-240v210h240v-210zM15 42.5957
c15.6709 23.4355 29.7227 35.5049 42.7803 36.7891c0.779297 0.0761719 1.57324 0.115234 2.35938 0.115234c17.1885 0 33.207 -17.9668 51.7559 -38.7725c12.2881 -13.7803 26.1553 -29.334 42.1934 -41.2285l4.82227 8.67871
c-11.376 8.54102 -21.2666 18.7236 -28.6963 26.7451l-1.48828 1.6084l1.53613 1.55566c12.71 12.876 24.4268 19.2119 35.8154 19.3701l0.438477 0.00390625c19.4854 0 37.7021 -18.0771 58.4834 -39.6709v132.21h-210v-107.404z" />
    <glyph glyph-name="uniE032" unicode="&#xe032;" 
d="M210 -45v-15h-15v15h15zM15 135h-15v15h15v-15zM30 165h-30v15h30v-15zM75 165h-30v15h30v-15zM120 165h-30v15h30v-15zM165 165h-30v15h30v-15zM240 75h-15v30h15v-30zM240 30h-15v30h15v-30zM240 -15h-15v30h15v-30zM240 -60h-15v30h15v-30zM150.84 80.2275
l-10.6064 10.6064l74.0596 74.0596l-34.0381 -0.0839844l-0.0478516 15l59.7568 0.166016l-0.167969 -59.7568l-15 0.0478516l0.0859375 34.001zM179.748 82.8154l0.251953 -0.00195312v-142.813h-180v180h142.803v-0.238281l5.16016 0.0166016l-14.7764 -14.7783h-118.187
v-93.1729c11.1934 18.3437 21.2314 27.791 30.5566 28.7969c0.557617 0.0605469 1.125 0.0908203 1.68555 0.0908203c12.2773 0 23.7197 -14.0645 36.9697 -30.3486c8.77637 -10.7881 18.6816 -22.9619 30.1377 -32.2734l3.44434 6.79297
c-8.12598 6.68555 -15.1914 14.6553 -20.498 20.9355l-1.06348 1.25879l1.09668 1.21777c9.07812 10.0801 17.4482 15.0391 25.582 15.1641l0.313477 0.000976562c13.9189 0 26.9316 -14.1514 41.7754 -31.0547v80.7666l14.7646 14.7627zM83.4121 63.5225
c0 13.2197 10.541 23.9365 23.5439 23.9365s23.5439 -10.7168 23.5439 -23.9365c0 -13.2207 -10.541 -23.9375 -23.5439 -23.9375s-23.5439 10.7168 -23.5439 23.9375z" />
    <glyph glyph-name="uniE033" unicode="&#xe033;" 
d="M112.443 -28.1221c-11.9648 8.34277 -22.0908 19.3965 -31.0244 29.1484c-12.1475 13.2598 -22.6338 24.708 -32.6914 24.708c-0.414062 0 -0.833008 -0.0195312 -1.24023 -0.0605469c-7.95605 -0.760742 -17.2744 -9.05859 -27.6982 -24.6611l-4.78906 -7.1748v-38.8379
h150v24.959l-4.48633 4.54297c-13.4277 13.5986 -26.1094 26.4424 -38.4424 26.4424l-0.235352 -0.00195312c-5.94629 -0.0810547 -12.1455 -3.05273 -18.9678 -9.08398l-1.1709 -1.03613l1.0918 -1.11621c4.02734 -4.11133 10.2227 -10.1729 17.5 -15.3281l1.8623 -1.31934
l-7.3291 -12.8398zM210 -45v-15h-15v15h15zM15 135h-15v15h15v-15zM30 165h-30v15h30v-15zM75 165h-30v15h30v-15zM120 165h-30v15h30v-15zM165 165h-30v15h30v-15zM240 75h-15v30h15v-30zM240 30h-15v30h15v-30zM240 -15h-15v30h15v-30zM240 -60h-15v30h15v-30z
M150.84 80.2275l-10.6064 10.6064l74.0596 74.0596l-34.0381 -0.0839844l-0.0478516 15l59.7568 0.166016l-0.167969 -59.7568l-15 0.0478516l0.0859375 34.001zM179.748 82.8154l0.251953 -0.00195312v-142.813h-180v180h142.803v-0.238281l5.16016 0.0166016
l-14.7764 -14.7783h-118.187v-85.6377l0.55957 0.689453c10.293 12.6904 20.2842 19.3379 30.5488 20.3203c0.883789 0.0839844 1.78027 0.12793 2.66309 0.12793c16.3867 0 29.9287 -14.7705 41.877 -27.8027l1.03027 -1.125l1.13965 1.02051
c9.71387 8.69238 19.1387 12.9805 28.8125 13.1123l0.442383 0.00390625c16.3291 0 29.79 -11.9268 42.1768 -24.1416l0.75 -0.739258v72.3467l14.7646 14.7627zM104.25 81c-4.5498 0 -8.25 -3.7002 -8.25 -8.25s3.7002 -8.25 8.25 -8.25s8.25 3.7002 8.25 8.25
s-3.7002 8.25 -8.25 8.25zM104.25 49.5c-12.8203 0 -23.25 10.4297 -23.25 23.25s10.4297 23.25 23.25 23.25s23.25 -10.4297 23.25 -23.25s-10.4297 -23.25 -23.25 -23.25z" />
    <glyph glyph-name="uniE034" unicode="&#xe034;" 
d="M240 -45h-240v210h240v-210zM166.078 57.457l0.438477 0.00390625c19.4854 0 37.7021 -18.0771 58.4834 -39.6709v132.21h-210v-107.404c15.6709 23.4355 29.7227 35.5049 42.7803 36.7891c0.779297 0.0761719 1.57324 0.115234 2.35938 0.115234
c17.1885 0 33.207 -17.9668 51.7559 -38.7725c12.2881 -13.7803 26.1553 -29.334 42.1934 -41.2285l4.82227 8.67871c-11.376 8.54102 -21.2666 18.7236 -28.6963 26.7451l-1.48828 1.6084l1.53613 1.55566c12.71 12.876 24.4268 19.2119 35.8154 19.3701zM15 42.5957
c15.6709 23.4355 29.7227 35.5049 42.7803 36.7891c0.779297 0.0761719 1.57324 0.115234 2.35938 0.115234c17.1885 0 33.207 -17.9668 51.7559 -38.7725c12.2881 -13.7803 26.1553 -29.334 42.1934 -41.2285l4.82227 8.67871
c-11.376 8.54102 -21.2666 18.7236 -28.6963 26.7451l-1.48828 1.6084l1.53613 1.55566c12.71 12.876 35.8154 19.3701 35.8154 19.3701l0.438477 0.00390625c19.4854 0 37.7021 -18.0771 58.4834 -39.6709v-47.79zM176.352 81.4541
c-14.5537 0 -26.3516 11.7988 -26.3516 26.3525s11.7979 26.3516 26.3516 26.3516c14.5547 0 26.3525 -11.7979 26.3525 -26.3516s-11.7979 -26.3525 -26.3525 -26.3525z" />
    <glyph glyph-name="uniE035" unicode="&#xe035;" 
d="M15 -30h210v31.297l-3.14844 3.26643c-20.8115 21.6074 -38.7842 40.2666 -57.3193 40.2666l-0.408203 -0.00292969c-10.0635 -0.138672 -20.5664 -5.78027 -32.0713 -17.2402c6.96875 -7.47949 16.2119 -16.9053 26.7734 -24.8145l2.13574 -1.59473l-7.55566 -13.5645
l-2.52246 1.87598c-15.7363 11.6406 -29.2725 26.7793 -41.2158 40.1387c-17.4932 19.5664 -32.5889 36.4541 -47.9785 36.4541c-0.669922 0 -1.34863 -0.0322266 -2.01758 -0.0986328c-13.1406 -1.28809 -27.6768 -15.0957 -44.4424 -42.21l-0.229492 -0.370662v-53.4028z
M240 -45h-240v210h240v-210zM225 23.2317v126.768h-210l-3.55271e-15 -99.6766c14.936 19.8074 28.9437 29.8495 43.2988 31.2567c1.14355 0.113281 2.30566 0.169922 3.4502 0.169922c21.7227 0 39.6797 -20.0869 58.6904 -41.3535l1.34668 -1.50488
c14.3867 14.3408 28.1865 21.4072 42.1699 21.6006l0.55957 0.00292969c22.0177 0 40.32 -16.5832 60.4844 -37.2634zM194.904 105.862c0 7.79395 -6.37109 14.1377 -14.2021 14.1377c-7.83203 0 -14.2021 -6.3418 -14.2021 -14.1377
c0 -7.79492 6.37207 -14.1357 14.2021 -14.1357s14.2021 6.3418 14.2021 14.1357zM209.904 105.861c0 -16.0636 -13.1002 -29.1339 -29.2021 -29.1339c-16.1025 0 -29.2021 13.0713 -29.2021 29.1357c0 16.0664 13.0996 29.1377 29.2021 29.1377
s29.2021 -13.0713 29.2021 -29.1377z" />
    <glyph glyph-name="uniE036" unicode="&#xe036;" 
d="M37.4727 -39.1729l-36.8604 37.332l10.6738 10.5391l18.7139 -18.9541v47.5049h15v-47.46l20.1641 20.4111l10.6719 -10.542zM45 82.5h-15v47.5049l-18.7139 -18.9541l-10.6738 10.5391l36.8604 37.334l38.3633 -38.832l-10.6719 -10.542l-20.1641 20.4121v-47.4619z
M75 165h-75v15h75v-15zM75 -60h-75v15h75v-15zM240 -60h-150v240h150v-240zM187.5 105c-12.4062 0 -22.5 10.0938 -22.5 22.5s10.0938 22.5 22.5 22.5s22.5 -10.0938 22.5 -22.5s-10.0938 -22.5 -22.5 -22.5zM105 70.0966c6.64474 8.72644 12.8417 13.3536 18.7256 14.0293
c0.505859 0.0566406 1.02051 0.0869141 1.53027 0.0869141c11.1406 0 21.5234 -13.6113 33.5459 -29.3701c7.96484 -10.4395 16.9531 -22.2207 27.3486 -31.2324l3.12598 6.57422c-7.37402 6.46973 -13.7842 14.1826 -18.6006 20.2607l-0.963867 1.21777l0.995117 1.17871
c8.23828 9.75488 15.833 14.5547 23.2148 14.6748l0.283203 0.000976562c10.361 0 20.1686 -9.21536 30.7949 -21.557v119.039h-120v-94.9034z" />
    <glyph glyph-name="uniE037" unicode="&#xe037;" 
d="M37.4727 -39.1729l-36.8604 37.332l10.6738 10.5391l18.7139 -18.9541v47.5049h15v-47.46l20.1641 20.4111l10.6719 -10.542zM45 82.5h-15v47.5049l-18.7139 -18.9541l-10.6738 10.5391l36.8604 37.334l38.3633 -38.832l-10.6719 -10.542l-20.1641 20.4121v-47.4619z
M75 165h-75v15h75v-15zM75 -60h-75v15h75v-15zM105 -45h120v60.3358c-10.5663 11.4408 -20.6516 21.1086 -30.4951 21.1086l-0.21582 -0.00195312c-5.46875 -0.0810547 -11.1748 -3.05273 -17.4492 -9.08398l-1.0791 -1.03613l1.00488 -1.11621
c3.70508 -4.11133 9.4043 -10.1729 16.1016 -15.3281l1.71094 -1.31934l-6.74219 -12.8398l-2.18848 1.65918c-11.0068 8.34277 -20.3232 19.3965 -28.542 29.1484c-11.1748 13.2598 -20.8232 24.708 -30.0752 24.708c-0.378906 0 -0.764648 -0.0195312 -1.13965 -0.0605469
c-6.1315 -0.637198 -13.1413 -6.56224 -20.8906 -17.6385v-78.5353zM240 -60h-150v240h150v-240zM187.5 135c-4.13574 0 -7.5 -3.36426 -7.5 -7.5s3.36426 -7.5 7.5 -7.5s7.5 3.36426 7.5 7.5s-3.36426 7.5 -7.5 7.5zM187.5 105c-12.4062 0 -22.5 10.0938 -22.5 22.5
s10.0938 22.5 22.5 22.5s22.5 -10.0938 22.5 -22.5s-10.0938 -22.5 -22.5 -22.5zM225 35.5667v129.433h-120v-109.626c6.53802 6.35479 13.0182 9.81104 19.6201 10.4979c0.8125 0.0839844 1.6377 0.12793 2.44922 0.12793c15.0771 0 27.5361 -14.7705 38.5273 -27.8027
l0.948242 -1.125l1.04883 1.02051c8.93652 8.69238 17.6064 12.9805 26.5078 13.1123l0.40625 0.00390625c11.4542 0 21.3744 -6.93382 30.4922 -15.6423z" />
    <glyph glyph-name="uniE038" unicode="&#xe038;" 
d="M59.2451 103.752l-38.832 38.3623l37.334 36.8613l10.5391 -10.6738l-18.5352 -18.3018h47.749v-15h-48.54l20.8271 -20.5771zM179.679 103.752l-10.542 10.6709l20.8291 20.5771h-47.4658v15h46.6738l-18.5352 18.3018l10.5391 10.6738l37.332 -36.8613zM15 105h-15v75
h15v-75zM240 105h-15v75h15v-75zM240 -60h-240v150h240v-150zM187.263 23.3506c-12.4062 0 -22.5 10.0938 -22.5 22.5s10.0938 22.5 22.5 22.5c12.4072 0 22.5 -10.0938 22.5 -22.5s-10.0928 -22.5 -22.5 -22.5zM15 2.4707c13.3691 23.1973 25.3574 35.1436 36.498 36.415
c0.664062 0.0751953 1.34277 0.114258 2.0127 0.114258c14.6641 0 28.3311 -17.7842 44.1543 -38.3789c10.4834 -13.6406 17.1963 -23.6162 30.8789 -35.3906l4.11426 8.58984c-9.70508 8.4541 -13.0244 13.1133 -19.3633 21.0537l-1.27051 1.5918l1.31152 1.54102
c10.8428 12.7451 20.8389 19.0166 30.5557 19.1738l0.374023 0.00292969c16.624 0 52.6406 -40.8086 70.3711 -62.1836h10.3633v120h-210v-72.5293z" />
    <glyph glyph-name="uniE039" unicode="&#xe039;" 
d="M59.2451 103.752l-38.832 38.3623l37.334 36.8613l10.5391 -10.6738l-18.5352 -18.3018h47.749v-15h-48.54l20.8271 -20.5771zM179.679 103.752l-10.542 10.6709l20.8291 20.5771h-47.4658v15h46.6738l-18.5352 18.3018l10.5391 10.6738l37.332 -36.8613zM15 105h-15v75
h15v-75zM240 105h-15v75h15v-75zM240 -60h-240v150h240v-150zM187.263 44.3506c-4.13477 0 -7.5 -3.36426 -7.5 -7.5s3.36523 -7.5 7.5 -7.5c4.13574 0 7.5 3.36426 7.5 7.5s-3.36426 7.5 -7.5 7.5zM187.263 14.3506c-12.4062 0 -22.5 10.0938 -22.5 22.5
s10.0938 22.5 22.5 22.5c12.4072 0 22.5 -10.0938 22.5 -22.5s-10.0928 -22.5 -22.5 -22.5zM213.85 -45h11.1503v120h-210v-64.251l0.732422 0.946289c11.4131 14.7959 22.5156 22.5479 33.9414 23.6953c0.979492 0.100586 1.98047 0.150391 2.97168 0.150391
c18.208 0 33.293 -17.2783 45.4111 -31.1611l1.83887 -2.10449l2.0625 1.87793c10.3916 9.45215 20.4971 14.1162 30.8955 14.2656l0.489258 0.00292969c18.1484 0 33.0459 -13.8711 46.75 -28.0771zM15 -20.6279v-24.3721h107.695l-0.198618 0.145508
c-13.208 9.67969 -24.3691 22.4863 -34.2168 33.7842c-13.3105 15.2744 -24.7988 28.458 -35.6807 28.458c-0.44043 0 -0.884766 -0.0224609 -1.31934 -0.0654297c-8.74414 -0.878906 -18.6094 -10.1445 -30.1611 -28.3252zM126.634 -45h63.611l-14.9595 14.8828
c-14.6865 15.6396 -28.5391 30.3906 -41.9395 30.3906l-0.246094 -0.00195312c-6.08691 -0.0869141 -12.4229 -3.12012 -19.3633 -9.26953l-2.15723 -1.91309l1.97949 -2.09961c6.43945 -6.83008 12.3545 -12.2227 18.0811 -16.4854l2.43066 -1.80859z" />
    <glyph glyph-name="uniE03A" unicode="&#xe03a;" 
d="M15 -30h210v31.297l-3.14844 3.26643c-20.8115 21.6074 -38.7842 40.2666 -57.3193 40.2666l-0.408203 -0.00292969c-10.0635 -0.138672 -20.5664 -5.78027 -32.0713 -17.2402c6.96875 -7.47949 16.2119 -16.9053 26.7734 -24.8145l2.13574 -1.59473l-7.55566 -13.5645
l-2.52246 1.87598c-15.7363 11.6406 -29.2725 26.7793 -41.2158 40.1387c-17.4932 19.5664 -32.5889 36.4541 -47.9785 36.4541c-0.669922 0 -1.34863 -0.0322266 -2.01758 -0.0986328c-13.1406 -1.28809 -27.6768 -15.0957 -44.4424 -42.21l-0.229492 -0.370662v-53.4028z
M240 -45h-240v210h240v-210zM180.702 120c-7.83203 0 -14.2021 -6.3418 -14.2021 -14.1377c0 -7.79492 6.37207 -14.1357 14.2021 -14.1357s14.2021 6.3418 14.2021 14.1357s-6.37109 14.1377 -14.2021 14.1377zM180.702 76.7266
c-16.1025 0 -29.2021 13.0713 -29.2021 29.1357c0 16.0664 13.0996 29.1377 29.2021 29.1377s29.2021 -13.0713 29.2021 -29.1377c0.000976562 -16.0645 -13.0996 -29.1357 -29.2021 -29.1357zM225 23.2317v126.768h-210l-3.55271e-15 -99.6766
c14.936 19.8074 28.9437 29.8495 43.2988 31.2567c1.14355 0.113281 2.30566 0.169922 3.4502 0.169922c21.7227 0 39.6797 -20.0869 58.6904 -41.3535l1.34668 -1.50488c14.3867 14.3408 28.1865 21.4072 42.1699 21.6006l0.55957 0.00292969
c22.0177 0 40.32 -16.5832 60.4844 -37.2634z" />
    <glyph glyph-name="uniE03B" unicode="&#xe03b;" 
d="M105.176 82.5c0 12.4268 10.0762 22.5 22.5059 22.5s22.5059 -10.0732 22.5059 -22.5s-10.0762 -22.5 -22.5059 -22.5s-22.5059 10.0732 -22.5059 22.5zM45 180h195v-195h-30v15h15v165h-165v-15h-15v30zM195 -60h-195v195h195v-195zM15 17.3447
c12.3115 17.5635 23.3516 26.6064 33.6123 27.5693c0.611328 0.0556641 1.23535 0.0859375 1.85352 0.0859375c13.5059 0 26.0928 -13.4639 40.6641 -29.0537c9.65527 -10.3271 20.5508 -21.9824 33.1523 -30.8965l3.78906 6.50391
c-8.93848 6.39844 -16.71 14.0293 -22.5479 20.041l-1.16992 1.20508l1.20703 1.16504c9.9873 9.64941 19.1934 14.3984 28.1416 14.5176l0.345703 0.000976562c15.3105 0 29.625 -13.5469 45.9521 -29.7285v121.245h-165v-102.655z" />
    <glyph glyph-name="uniE03C" unicode="&#xe03c;" 
d="M45 180h195v-195h-30v15h15v165h-165v-15h-15v30zM15 -45h165v33.5325c-16.5756 18.593 -32.2352 36.0573 -46.9951 36.0573l-0.279297 -0.00195312c-7.20996 -0.0986328 -14.6738 -4.28223 -22.7979 -12.7832c10.5488 -12.207 23.3545 -25.4102 38.625 -31.8867
l0.828125 -0.350586l-6.55957 -15.4668l-0.828125 0.352539c-22.9971 9.75098 -39.999 30.375 -55.001 48.5684c-13.1768 15.9795 -25.623 31.0742 -36.7422 31.0742c-0.349609 0 -0.699219 -0.015625 -1.04688 -0.046875
c-9.59972 -0.855874 -21.1022 -12.9221 -34.2031 -35.8754v-53.1735zM195 -60h-195l2.8753e-16 73.4094l-1.01367 0.569143l0.44043 0.78418c0.191271 0.340667 0.38235 0.679351 0.573242 1.01606l5.46275e-16 119.221h195v-195zM142.341 91.1787
c-4.90137 0 -8.88867 -3.96582 -8.88867 -8.83887c0 -4.87402 3.9873 -8.83984 8.88867 -8.83984c4.90234 0 8.88965 3.96582 8.88965 8.83984c0 4.87305 -3.9873 8.83887 -8.88965 8.83887zM142.341 58.5c-13.1729 0 -23.8887 10.6934 -23.8887 23.8398
c0 13.1455 10.7178 23.8389 23.8887 23.8389c13.1719 0 23.8896 -10.6934 23.8896 -23.8389c0 -13.1465 -10.7168 -23.8398 -23.8896 -23.8398zM180 13.4961v106.504h-165v-81.3644c11.0216 14.0108 21.6851 21.163 32.7119 22.1457
c0.884766 0.0800781 1.78223 0.120117 2.66211 0.120117c18.6572 0 33.3008 -17.4521 48.7207 -36.1514c10.9922 11.0322 21.9238 16.4775 33.3975 16.6367l0.508789 0.00292969c17.3684 0 32.2167 -12.2893 46.999 -27.8936z" />
    <glyph glyph-name="uniE03D" unicode="&#xe03d;" 
d="M0 122.961l119.617 57.0391l120.383 -57.0391l-120.383 -56.4551zM0 59.707l56.2061 26.8037l0.696444 -0.328742l0.82504 0.38343l61.915 -28.4805l62.3311 28.4893l0.805311 -0.371889l0.655626 0.307436l56.5654 -26.8027l-120.383 -56.4551zM0 -3.54492
l56.2061 26.8027l19.6914 -9.29395l-0.479105 -0.228468l44.2242 -20.3428l44.5037 20.341l-0.506599 0.240046l19.7949 9.28223l56.5654 -26.8008l-120.383 -56.4551z" />
    <glyph glyph-name="uniE03E" unicode="&#xe03e;" 
d="M119.636 83.6533l87.6279 40.373l-87.6279 40.791l-87.0723 -40.791zM0 123.962l119.617 56.0381l120.383 -56.0381l-120.383 -55.4629zM0 59.7119l54.0566 25.3242l16.2959 -7.55664l-37.7891 -17.7012l87.0723 -40.373l87.6279 40.373l-38.0547 17.7129
l16.3818 7.54785l54.4092 -25.3271l-120.383 -55.4639zM0 -4.53613l54.0566 25.3242l16.2959 -7.55664l-37.791 -17.7041l87.0723 -40.373l87.6289 40.373l-38.0557 17.7129l16.3818 7.54785l54.4111 -25.3242l-120.383 -55.4639z" />
    <glyph glyph-name="uniE03F" unicode="&#xe03f;" 
d="M240 0v-60h-240v60h240zM240 75v-45h-240v45h240zM240 135v-30h-240v30h240zM240 165h-240v15h240v-15z" />
    <glyph glyph-name="uniE040" unicode="&#xe040;" 
d="M90 165h-30v15h30v-15zM135 165h-30v15h30v-15zM180 165h-30v15h30v-15zM15 150h-15v30h45v-15h-30v-15zM225 150h-15v15h-15v15h30v-30zM15 105h-15v30h15v-30zM225 105h-15v30h15v-30zM15 60h-15v30h15v-30zM225 60h-15v30h15v-30zM112.001 54.1201l-41.667 41.667
l10.6064 10.6074l24.0596 -24.0605v67.666h15v-66.666l23.0605 23.0605l10.6074 -10.6074zM225 -60h-225v105h225v-105z" />
    <glyph glyph-name="uniE041" unicode="&#xe041;" 
d="M225 75v30h15v-30h-15zM225 30v30h15v-30h-15zM225 -15v30h15v-30h-15zM210 150v15h30v-45h-15v30h-15zM210 -60v15h15v15h15v-30h-30zM165 150v15h30v-15h-30zM165 -60v15h30v-15h-30zM120 150v15h30v-15h-30zM120 -60v15h30v-15h-30zM114.12 52.999l41.667 41.667
l10.6074 -10.6064l-24.0605 -24.0596h67.666v-15h-66.666l23.0605 -23.0605l-10.6074 -10.6074zM0 -60v225h105v-225h-105z" />
    <glyph glyph-name="uniE042" unicode="&#xe042;" 
d="M15 30v-30h-15v30h15zM15 75v-30h-15v30h15zM15 120v-30h-15v30h15zM30 -45v-15h-30v45h15v-30h15zM30 165v-15h-15v-15h-15v30h30zM75 -45v-15h-30v15h30zM75 165v-15h-30v15h30zM120 -45v-15h-30v15h30zM120 165v-15h-30v15h30zM125.88 52.001l-41.667 -41.667
l-10.6074 10.6064l24.0605 24.0596h-67.666v15h66.666l-23.0605 23.0605l10.6074 10.6074zM240 165v-225h-105v225h105z" />
    <glyph glyph-name="uniE043" unicode="&#xe043;" 
d="M90 -60h-30v15h30v-15zM135 -60h-30v15h30v-15zM180 -60h-30v15h30v-15zM15 -45h30v-15h-45v30h15v-15zM225 -60h-30v15h15v15h15v-30zM15 -15h-15v30h15v-30zM225 -15h-15v30h15v-30zM15 30h-15v30h15v-30zM225 30h-15v30h15v-30zM112.001 65.8799l41.667 -41.667
l-10.6074 -10.6074l-23.0605 23.0605v-66.666h-15v67.666l-24.0596 -24.0605l-10.6064 10.6074zM225 75h-225v105h225v-105z" />
    <glyph glyph-name="uniE044" unicode="&#xe044;" 
d="M163.825 14.6973l12.7275 12.7275l16.9473 -16.9473v124.522h18v-122.523l14.9463 14.9482l12.7285 -12.7275l-37.6758 -37.6758zM90 -30v210h60v-210h-60zM15 -30v150h60v-150h-60zM0 -60v15h240v-15h-240z" />
    <glyph glyph-name="uniE045" unicode="&#xe045;" 
d="M30 90v60h75v30h15v-30h75v-60h-75v-30h105v-90h-105v-30h-15v30h-105v90h105v30h-75z" />
    <glyph glyph-name="uniE046" unicode="&#xe046;" 
d="M0 60v15h30v75h60v-75h30v105h90v-105h30v-15h-30v-105h-90v105h-30v-75h-60v75h-30z" />
    <glyph glyph-name="uniE047" unicode="&#xe047;" 
d="M74.6973 103.825l-37.6758 37.6738l37.6758 37.6758l12.7275 -12.7285l-14.9482 -14.9463h122.523v-18h-124.522l16.9473 -16.9473zM30 30v60h210v-60h-210zM30 -45v60h150v-60h-150zM0 -60v240h15v-240h-15z" />
    <glyph glyph-name="uniE048" unicode="&#xe048;" 
d="M165.303 103.825l-12.7275 12.7275l16.9473 16.9473h-124.522v18h122.523l-14.9482 14.9463l12.7275 12.7285l37.6758 -37.6758zM0 30v60h210v-60h-210zM60 -45v60h150v-60h-150zM225 -60v240h15v-240h-15z" />
    <glyph glyph-name="uniE049" unicode="&#xe049;" 
d="M163.825 105.303l37.6738 37.6758l37.6758 -37.6758l-12.7285 -12.7275l-14.9463 14.9482v-122.523h-18v124.522l-16.9473 -16.9473zM90 -60v210h60v-210h-60zM15 0v150h60v-150h-60zM0 165v15h240v-15h-240z" />
    <glyph glyph-name="uniE04A" unicode="&#xe04a;" 
d="M45 -15v150h150v-150h-150zM210.499 45h29.501v-105h-105v29.501h7.5l0.499023 0.499023h67.001v67.001l0.499023 0.499023v7.5zM0 180h105v-29.501h-7.5l-0.499023 -0.499023h-67.001v-67.001l-0.499023 -0.499023v-7.5h-29.501v105z" />
    <glyph glyph-name="uniE04B" unicode="&#xe04b;" 
d="M105 150h105v-105h-7.5h-7.5h-60v-60v-7.5v-7.5h-105v105h7.5h7.5h60v60v7.5v7.5zM150 30h90v-90h-90v90zM0 180h90v-90h-90v90z" />
    <glyph glyph-name="uniE04C" unicode="&#xe04c;" 
d="M195 -60v45h45v-45h-45zM195 180h45v-45h-45v45zM0 135v45h45v-45h-45zM0 -15h45v-45h-45v45zM217.5 120h7.5v-120h-7.5h-7.5h-30v-30v-7.5v-7.5h-120v7.5v7.5v30h-30h-7.5h-7.5v120h7.5h7.5h30v30v7.5v7.5h120v-7.5v-7.5v-30h30h7.5z" />
    <glyph glyph-name="uniE04D" unicode="&#xe04d;" 
d="M60 165h90v-60h-7.5h-7.5h-60v-60v-7.5v-7.5h-60v90h7.5h7.5h30v30v7.5v7.5zM90 90h135v-90h-7.5h-7.5h-30v-30v-7.5v-7.5h-90v135zM195 180h45v-45h-45v45zM195 -60v45h45v-45h-45zM0 -60v45h45v-45h-45zM0 180h45v-45h-45v45z" />
    <glyph glyph-name="uniE04E" unicode="&#xe04e;" 
d="M157.5 127.5h7.5v-30h-7.5h-7.5h-22.5v15h-60v-60h15v-22.5v-7.5v-7.5h-30v7.5v7.5v22.5h-22.5h-7.5h-7.5v75h7.5h7.5h22.5v22.5v7.5v7.5h75v-7.5v-7.5v-22.5h22.5h7.5zM217.5 52.5h7.5v-60h-7.5h-7.5h-22.5v-22.5v-7.5v-7.5h-60v7.5v7.5v22.5h-22.5h-7.5h-7.5v60h7.5
h7.5h22.5v22.5v7.5v7.5h60v-7.5v-7.5v-22.5h22.5h7.5zM75 60v45h45v-45h-45zM135 135v45h45v-45h-45zM195 -60v45h45v-45h-45zM195 105h45v-45h-45v45zM0 0v45h45v-45h-45zM0 135v45h45v-45h-45zM75 -15h45v-45h-45v45z" />
    <glyph glyph-name="uniE04F" unicode="&#xe04f;" 
d="M123.006 31.5059l31.4941 31.4941l70.5 -66.2607v153.261h-210v-105.75l40.875 40.875l115.125 -115.125h13.1562zM150 107.807c0 14.5537 11.7979 26.3516 26.3516 26.3516c14.5547 0 26.3525 -11.7979 26.3525 -26.3516s-11.7979 -26.3525 -26.3525 -26.3525
c-14.5537 0 -26.3516 11.7988 -26.3516 26.3525zM240 -45h-240v210h240v-210z" />
    <glyph glyph-name="uniE050" unicode="&#xe050;" 
d="M240 -45h-240v210h240v-210zM180.702 120c-7.83203 0 -14.2021 -6.3418 -14.2021 -14.1377c0 -7.79492 6.37207 -14.1357 14.2021 -14.1357s14.2021 6.3418 14.2021 14.1357s-6.37109 14.1377 -14.2021 14.1377zM180.702 76.7266
c-16.1025 0 -29.2021 13.0713 -29.2021 29.1357c0 16.0664 13.0996 29.1377 29.2021 29.1377s29.2021 -13.0713 29.2021 -29.1377c0.000976562 -16.0645 -13.0996 -29.1357 -29.2021 -29.1357zM15 29.5945v-59.5945h137.035l-98.4098 98.1045zM15 50.7774l38.625 38.5087
l61.4014 -61.2148l39.7734 39.6533l70.2002 -69.9867v152.262h-210v-99.2226zM225 -23.4428l-70.2002 69.9867l-29.1504 -29.0645l47.6311 -47.4795h51.7195v6.55721z" />
    <glyph glyph-name="uniE051" unicode="&#xe051;" 
d="M133.001 89.3711c0 9.70312 7.86523 17.5684 17.5674 17.5684c9.70312 0 17.5684 -7.86523 17.5684 -17.5684c0 -9.70215 -7.86523 -17.5674 -17.5684 -17.5674c-9.70215 0 -17.5674 7.86523 -17.5674 17.5674zM125.426 40.0693l19.0771 20.5176l35.4971 -35.8818
v95.2949h-120v-71.6279l24.7607 26.6279l69.7373 -75h7.96875zM195 180h30v-15h15v-30h-15v-15h15v-30h-15v-15h15v-30h-15v-15l15 7.10543e-15v-30h-15v-15l15 -5.32907e-15v-30h-15v-15h-30v15h-15v-15h-30v15h-15v-15h-30v15h-15v-15h-30v15h-15v-15h-30v15h-15v30h15v15
l-15 1.249e-15v30h15v15h-15v30h15v15h-15v30h15v15h-15v30h15v15h30v-15h15v15h30v-15h15v15h30v-15h15v15h30v-15h15v15z" />
    <glyph glyph-name="uniE052" unicode="&#xe052;" 
d="M150 99c-4.96387 0 -9 -4.03613 -9 -9s4.03613 -9 9 -9s9 4.03613 9 9s-4.03613 9 -9 9zM150 69c-11.5801 0 -21 9.41992 -21 21s9.41992 21 21 21s21 -9.41992 21 -21s-9.41992 -21 -21 -21zM195 180h30v-15h15v-30h-15v-15h15v-30h-15v-15h15v-30h-15v-15
l15 7.10543e-15v-30h-15v-15l15 -5.32907e-15v-30h-15v-15h-30v15h-15v-15h-30v15h-15v-15h-30v15h-15v-15h-30v15h-15v-15h-30v15h-15v30h15v15l-15 1.249e-15v30h15v15h-15v30h15v15h-15v30h15v15h-15v30h15v15h30v-15h15v15h30v-15h15v15h30v-15h15v15h30v-15h15v15z
M60 33.1016v-33.1016h80.46l-56.8203 56.6719zM60 53.2412l23.6396 23.5693l36.5762 -36.4668l23.6943 23.624l36.0898 -35.9805v92.0127h-120v-66.7588zM180 7.84766l-36.0898 35.9805l-13.5947 -13.5537l30.3447 -30.2744h19.3398v7.84766z" />
    <glyph glyph-name="uniE053" unicode="&#xe053;" 
d="M139.424 96.2246c0 11.4736 9.30078 20.7754 20.7744 20.7754s20.7754 -9.30176 20.7754 -20.7754s-9.30176 -20.7744 -20.7754 -20.7744s-20.7744 9.30078 -20.7744 20.7744zM240 150v-15h-30v-165h-165v-30h-15v30h-30v15h30v165h165v30h15v-30h30zM122.645 31.5752
l24.8281 24.8281l47.5273 -44.6696v123.266h-150v-85.8779l24.7227 24.7227l88.8447 -88.8447h10.3831z" />
    <glyph glyph-name="uniE054" unicode="&#xe054;" 
d="M157.631 108.671c-5.04785 0 -9.15332 -4.08496 -9.15332 -9.10352c0 -5.01953 4.10547 -9.10352 9.15332 -9.10352c5.04688 0 9.15234 4.08398 9.15234 9.10352c0 5.01855 -4.10547 9.10352 -9.15234 9.10352zM157.631 76.5
c-12.7461 0 -23.1152 10.3467 -23.1152 23.0654s10.3691 23.0654 23.1152 23.0654c12.7451 0 23.1143 -10.3467 23.1143 -23.0654s-10.3691 -23.0654 -23.1143 -23.0654zM240 150v-15h-30v-165h-165v-30h-15v30h-30v15h30v165h165v30h15v-30h30zM148.853 -15
l-77.2847 77.0449l-26.5684 -26.4896v-50.5553zM168.572 -15l26.4279 1.77636e-15v11.8071l-49.668 49.5191l-19.1299 -19.0713zM195 16.4864v118.514h-150v-79.7589l26.5684 26.4816l44.7656 -44.6289l28.998 28.9111z" />
    <glyph glyph-name="uniE055" unicode="&#xe055;" 
d="M123.006 31.5059l31.4941 31.4941l70.5 -66.2607v153.261h-210v-105.75l40.875 40.875l115.125 -115.125h13.1562zM150 107.807c0 14.5537 11.7979 26.3516 26.3516 26.3516c14.5547 0 26.3525 -11.7979 26.3525 -26.3516s-11.7979 -26.3525 -26.3525 -26.3525
c-14.5537 0 -26.3516 11.7988 -26.3516 26.3525zM240 -45h-240v210h240v-210z" />
    <glyph glyph-name="uniE056" unicode="&#xe056;" 
d="M45 0h150v105h-150v-105zM192.365 150h47.6346v-195h-240v195h46.8675l73.6394 30.5059zM78.221 150h83.4354l-41.2062 17.4941z" />
    <glyph glyph-name="uniE057" unicode="&#xe057;" 
d="M225 -30v165h-210v-165h210zM195 0v105h-150v-105h150zM210 120v-135h-180v135h180zM192.365 150h47.6346v-195h-240v195h46.8675l73.6394 30.5059zM78.221 150h83.4354l-41.2062 17.4941z" />
    <glyph glyph-name="uniE058" unicode="&#xe058;" 
d="M210 -45v-15h-15v15h15zM15 135h-15v15h15v-15zM30 165h-30v15h30v-15zM75 165h-30v15h30v-15zM120 165h-30v15h30v-15zM165 165h-30v15h30v-15zM240 75h-15v30h15v-30zM240 30h-15v30h15v-30zM240 -15h-15v30h15v-30zM240 -60h-15v30h15v-30zM150.84 80.2275
l-10.6064 10.6064l74.0596 74.0596l-34.0381 -0.0839844l-0.0478516 15l59.7568 0.166016l-0.167969 -59.7568l-15 0.0478516l0.0859375 34.001zM179.748 82.8154l0.251953 -0.00195312v-142.813h-180v180h142.803v-0.238281l5.16016 0.0166016l-14.7764 -14.7783h-118.187
v-89.2275l26.7402 27.1874l86.513 -87.96h10.0632l-45.2696 46.2949l24.0713 24.4736l47.8818 -45.7566v93.1628l14.7646 14.7627zM83.4121 63.5225c0 13.2197 10.541 23.9365 23.5439 23.9365s23.5439 -10.7168 23.5439 -23.9365
c0 -13.2207 -10.541 -23.9375 -23.5439 -23.9375s-23.5439 10.7168 -23.5439 23.9375z" />
    <glyph glyph-name="uniE059" unicode="&#xe059;" 
d="M210 -45v-15h-15v15h15zM15 135h-15v15h15v-15zM30 165h-30v15h30v-15zM75 165h-30v15h30v-15zM120 165h-30v15h30v-15zM165 165h-30v15h30v-15zM240 75h-15v30h15v-30zM240 30h-15v30h15v-30zM240 -15h-15v30h15v-30zM240 -60h-15v30h15v-30zM150.84 80.2275
l-10.6064 10.6064l74.0596 74.0596l-34.0381 -0.0839844l-0.0478516 15l59.7568 0.166016l-0.167969 -59.7568l-15 0.0478516l0.0859375 34.001zM179.748 82.8154l0.251953 -0.00195312v-142.813h-180v180h142.803v-0.238281l5.16016 0.0166016l-14.7764 -14.7783h-118.187
l1.77636e-15 -71.7782l23.1221 23.4061l48.6562 -49.2559l31.5176 31.9082l46.7041 -47.2805v81.175l14.7646 14.7627zM104.25 81c-4.5498 0 -8.25 -3.7002 -8.25 -8.25s3.7002 -8.25 8.25 -8.25s8.25 3.7002 8.25 8.25s-3.7002 8.25 -8.25 8.25zM104.25 49.5
c-12.8203 0 -23.25 10.4297 -23.25 23.25s10.4297 23.25 23.25 23.25s23.25 -10.4297 23.25 -23.25s-10.4297 -23.25 -23.25 -23.25zM138.51 -45h26.49v15.6561l-46.7041 47.2804l-20.9775 -21.2363zM15 11.8778l1.77636e-15 -56.8778h102.427l-79.3047 80.2842z" />
    <glyph glyph-name="uniE05A" unicode="&#xe05a;" 
d="M240 -45h-240v210h240v-210zM225.021 -30v27.1738v-27.1738zM154.514 64.5146l70.4863 -67.3203v152.806h-210v-104.541l40.8799 41.541l115.137 -117h13.1562l-61.1562 62.5078zM184.173 -30l-61.1562 62.5078zM176.352 81.4541
c-14.5537 0 -26.3516 11.7988 -26.3516 26.3525s11.7979 26.3516 26.3516 26.3516c14.5547 0 26.3525 -11.7979 26.3525 -26.3516s-11.7979 -26.3525 -26.3525 -26.3525z" />
    <glyph glyph-name="uniE05B" unicode="&#xe05b;" 
d="M240 -45h-240v210h240v-210zM194.904 105.862c0 7.79395 -6.37109 14.1377 -14.2021 14.1377c-7.83203 0 -14.2021 -6.3418 -14.2021 -14.1377c0 -7.79492 6.37207 -14.1357 14.2021 -14.1357s14.2021 6.3418 14.2021 14.1357zM209.904 105.861
c0 -16.0636 -13.1002 -29.1339 -29.2021 -29.1339c-16.1025 0 -29.2021 13.0713 -29.2021 29.1357c0 16.0664 13.0996 29.1377 29.2021 29.1377s29.2021 -13.0713 29.2021 -29.1377zM176.291 -30h48.7094v9.55721l-70.2002 69.9867l-29.1504 -29.0645zM225 0.7379v149.262
h-210l-3.55271e-15 -96.2226l38.625 38.5087l61.4014 -61.2148l39.7734 39.6533zM15 32.5945v-62.5945h140.044l-101.419 101.104z" />
    <glyph glyph-name="uniE05C" unicode="&#xe05c;" 
d="M37.4727 -39.1729l-36.8604 37.332l10.6738 10.5391l18.7139 -18.9541v47.5049h15v-47.46l20.1641 20.4111l10.6719 -10.542zM45 82.5h-15v47.5049l-18.7139 -18.9541l-10.6738 10.5391l36.8604 37.334l38.3633 -38.832l-10.6719 -10.542l-20.1641 20.4121v-47.4619z
M75 165h-75v15h75v-15zM75 -60h-75v15h75v-15zM240 -60h-150v240h150v-240zM166.932 37.9141l20.2471 20.5859l37.8213 -36.1449v142.645h-120v-111.129l18.7773 19.0914l101.223 -102.43v8.5673zM187.5 105c-12.4062 0 -22.5 10.0938 -22.5 22.5s10.0938 22.5 22.5 22.5
s22.5 -10.0938 22.5 -22.5s-10.0938 -22.5 -22.5 -22.5z" />
    <glyph glyph-name="uniE05D" unicode="&#xe05d;" 
d="M37.4727 -39.1729l-36.8604 37.332l10.6738 10.5391l18.7139 -18.9541v47.5049h15v-47.46l20.1641 20.4111l10.6719 -10.542zM45 82.5h-15v47.5049l-18.7139 -18.9541l-10.6738 10.5391l36.8604 37.334l38.3633 -38.832l-10.6719 -10.542l-20.1641 20.4121v-47.4619z
M75 165h-75v15h75v-15zM75 -60h-75v15h75v-15zM105 -45h120v58.0315l-27.708 28.1794l-17.8496 -18.0703l25.6768 -26.0508l-10.6836 -10.5303l-69.252 70.2617l-20.1836 -20.4325v-81.3888zM240 -60h-150v240h150v-240zM187.5 135c-4.13574 0 -7.5 -3.36426 -7.5 -7.5
s3.36426 -7.5 7.5 -7.5s7.5 3.36426 7.5 7.5s-3.36426 7.5 -7.5 7.5zM187.5 105c-12.4062 0 -22.5 10.0938 -22.5 22.5s10.0938 22.5 22.5 22.5s22.5 -10.0938 22.5 -22.5s-10.0938 -22.5 -22.5 -22.5zM225 34.4267v130.573h-120v-107.267l20.1943 20.4453l43.7158 -44.3535
l28.4062 28.7549z" />
    <glyph glyph-name="uniE05E" unicode="&#xe05e;" 
d="M59.2451 103.752l-38.832 38.3623l37.334 36.8613l10.5391 -10.6738l-18.5352 -18.3018h47.749v-15h-48.54l20.8271 -20.5771zM179.679 103.752l-10.542 10.6709l20.8291 20.5771h-47.4658v15h46.6738l-18.5352 18.3018l10.5391 10.6738l37.332 -36.8613zM15 105h-15v75
h15v-75zM240 105h-15v75h15v-75zM240 -60h-240v150h240v-150zM124.547 1.29492l24.0713 24.4736l71.639 -70.7686h4.74286v120h-210v-90.7771l58.2402 58.7371l86.513 -87.96h10.0632zM187.263 23.3506c-12.4062 0 -22.5 10.0938 -22.5 22.5s10.0938 22.5 22.5 22.5
c12.4072 0 22.5 -10.0938 22.5 -22.5s-10.0928 -22.5 -22.5 -22.5z" />
    <glyph glyph-name="uniE05F" unicode="&#xe05f;" 
d="M59.2451 103.752l-38.832 38.3623l37.334 36.8613l10.5391 -10.6738l-18.5352 -18.3018h47.749v-15h-48.54l20.8271 -20.5771zM179.679 103.752l-10.542 10.6709l20.8291 20.5771h-47.4658v15h46.6738l-18.5352 18.3018l10.5391 10.6738l37.332 -36.8613zM15 105h-15v75
h15v-75zM240 105h-15v75h15v-75zM240 -60h-240v150h240v-150zM187.263 44.3506c-4.13477 0 -7.5 -3.36426 -7.5 -7.5s3.36523 -7.5 7.5 -7.5c4.13574 0 7.5 3.36426 7.5 7.5s-3.36426 7.5 -7.5 7.5zM187.263 14.3506c-12.4062 0 -22.5 10.0938 -22.5 22.5
s10.0938 22.5 22.5 22.5c12.4072 0 22.5 -10.0938 22.5 -22.5s-10.0928 -22.5 -22.5 -22.5zM163.851 -45h35.8696l-41.236 41.665l-17.8984 -18.1182zM220.825 -45h4.17533v120h-210l1.77636e-15 -83.09l56.3818 56.6808l58.6611 -59.373l28.4307 28.7822zM15 -29.3584
l-3.55271e-15 -15.6416h127.765l-71.4192 72.2832z" />
    <glyph glyph-name="uniE060" unicode="&#xe060;" 
d="M240 -45h-240v210h240v-210zM180.702 120c-7.83203 0 -14.2021 -6.3418 -14.2021 -14.1377c0 -7.79492 6.37207 -14.1357 14.2021 -14.1357s14.2021 6.3418 14.2021 14.1357s-6.37109 14.1377 -14.2021 14.1377zM180.702 76.7266
c-16.1025 0 -29.2021 13.0713 -29.2021 29.1357c0 16.0664 13.0996 29.1377 29.2021 29.1377s29.2021 -13.0713 29.2021 -29.1377c0.000976562 -16.0645 -13.0996 -29.1357 -29.2021 -29.1357zM177.795 -30h47.2046v11.0572l-70.2002 69.9867l-29.1504 -29.0645zM225 2.2379
v147.762h-210v-94.7226l38.625 38.5087l61.4014 -61.2148l39.7734 39.6533zM15 34.0945v-64.0945h141.549l-102.924 102.604z" />
    <glyph glyph-name="uniE061" unicode="&#xe061;" 
d="M105.176 82.5c0 12.4268 10.0762 22.5 22.5059 22.5s22.5059 -10.0732 22.5059 -22.5s-10.0762 -22.5 -22.5059 -22.5s-22.5059 10.0732 -22.5059 22.5zM45 180h195v-195h-30v15h15v165h-165v-15h-15v30zM195 -60h-195v195h195v-195zM104.49 11.6973l26.0957 29.0322
l49.4141 -51.6701v130.941h-165v-96.5547l33.8682 37.6797l95.3887 -106.125h10.9014z" />
    <glyph glyph-name="uniE062" unicode="&#xe062;" 
d="M45 180h195v-195h-30v15h15v165h-165v-15h-15v30zM195 -60h-195v195h195v-195zM142.341 91.1787c-4.90137 0 -8.88867 -3.96582 -8.88867 -8.83887c0 -4.87402 3.9873 -8.83984 8.88867 -8.83984c4.90234 0 8.88965 3.96582 8.88965 8.83984
c0 4.87305 -3.9873 8.83887 -8.88965 8.83887zM142.341 58.5c-13.1729 0 -23.8887 10.6934 -23.8887 23.8398c0 13.1455 10.7178 23.8389 23.8887 23.8389c13.1719 0 23.8896 -10.6934 23.8896 -23.8389c0 -13.1465 -10.7168 -23.8398 -23.8896 -23.8398zM15 14.9727
v-59.9727h118.596l-89.3564 89.124zM15 37.4668l29.2393 29.1514l48.4473 -48.3018l31.3848 31.29l55.9287 -55.7598v126.153h-165v-82.5332zM180 -28.6484l-55.9287 55.7598l-20.1035 -20.043l52.1895 -52.0684h23.8428v16.3516z" />
    <glyph glyph-name="uniE063" unicode="&#xe063;" 
d="M195 60h-15v30.251c0 8.14648 -6.60449 14.749 -14.749 14.749h-25.9463l18.0889 -17.9717l-10.5732 -10.6406l-37.0693 36.832l37.0693 36.834l10.5732 -10.6406l-19.5371 -19.4131h27.3945c16.4287 0 29.749 -13.3203 29.749 -29.749v-30.251zM108.309 59.1914
l129.466 -85.3096c1.73535 -1.1709 0.907227 -3.88184 -1.18652 -3.88184h-129.466c-1.17285 0 -2.12207 0.951172 -2.12207 2.12207v85.3096c0 1.70117 1.90039 2.71094 3.30859 1.75977zM1.5752 -26.8242l84.459 147.886c1.08008 1.89062 3.96582 1.125 3.96582 -1.05273
v-147.887c0 -1.17285 -0.951172 -2.12207 -2.12207 -2.12207h-84.459c-1.62988 0 -2.65137 1.76074 -1.84375 3.17578z" />
    <glyph glyph-name="uniE064" unicode="&#xe064;" 
d="M195 60h-15v30.251c0 8.13281 -6.61621 14.749 -14.749 14.749h-25.9463l18.0889 -17.9717l-10.5732 -10.6406l-37.0693 36.832l37.0693 36.834l10.5732 -10.6406l-19.5371 -19.4131h27.3945c16.4033 0 29.749 -13.3457 29.749 -29.749v-30.251zM120 -15h74.4707
l-74.4707 48.2119v-48.2119zM236.588 -30h-129.466c-1.17285 0 -2.12207 0.951172 -2.12207 2.12207v85.3096c0 1.70117 1.90039 2.71094 3.30859 1.75977l129.466 -85.3096c1.73633 -1.1709 0.907227 -3.88184 -1.18652 -3.88184zM25.6016 -15h49.3984v86.4941z
M87.8779 -30h-84.459c-1.62988 0 -2.65234 1.75977 -1.84375 3.17578l84.459 147.886c1.08008 1.89062 3.96582 1.125 3.96582 -1.05273v-147.887c0 -1.1709 -0.951172 -2.12207 -2.12207 -2.12207z" />
    <glyph glyph-name="uniE065" unicode="&#xe065;" 
d="M45 60v30.251c0 16.4287 13.3203 29.749 29.749 29.749h27.3945l-19.5371 19.4131l10.5732 10.6406l37.0693 -36.834l-37.0693 -36.832l-10.5732 10.6406l18.0889 17.9717h-25.9463c-8.14453 0 -14.749 -6.60449 -14.749 -14.749v-30.251h-15zM131.691 59.1914
c1.4082 0.951172 3.30859 -0.0585938 3.30859 -1.75977v-85.3096c0 -1.1709 -0.949219 -2.12207 -2.12207 -2.12207h-129.466c-2.09375 0 -2.92285 2.71094 -1.18652 3.88184zM238.425 -26.8242c0.808594 -1.41504 -0.213867 -3.17578 -1.84375 -3.17578h-84.459
c-1.1709 0 -2.12207 0.949219 -2.12207 2.12207v147.887c0 2.17773 2.88574 2.94336 3.96582 1.05273z" />
    <glyph glyph-name="uniE066" unicode="&#xe066;" 
d="M45 60v30.251c0 16.4287 13.3203 29.749 29.749 29.749h27.3945l-19.5371 19.4131l10.5732 10.6406l37.0693 -36.834l-37.0693 -36.832l-10.5732 10.6406l18.0889 17.9717h-25.9463c-8.14453 0 -14.749 -6.60449 -14.749 -14.749v-30.251h-15zM120 33.2119
l-74.4707 -48.2119h74.4707v48.2119zM2.22559 -26.1182l129.466 85.3096c1.4082 0.951172 3.30859 -0.0585938 3.30859 -1.75977v-85.3096c0 -1.17285 -0.951172 -2.12207 -2.12207 -2.12207h-129.466c-2.09375 0 -2.92285 2.71094 -1.18652 3.88184zM165 71.4941v-86.4941
h49.3984zM150 -27.8779v147.887c0 2.17676 2.88574 2.94336 3.96582 1.05273l84.459 -147.886c0.808594 -1.41504 -0.212891 -3.17578 -1.84375 -3.17578h-84.459c-1.1709 0 -2.12207 0.951172 -2.12207 2.12207z" />
    <glyph glyph-name="uniE067" unicode="&#xe067;" 
d="M120.99 -60c-26.4111 0 -51.4697 8.37793 -72.4648 24.2275c-20.8652 15.75 -35.6152 36.6113 -42.6562 60.3242l-2.14453 7.22168l29.4072 8.71191l2.14258 -7.21875c10.9482 -36.873 46.1953 -62.623 85.7158 -62.623c49.5342 0 88.3359 38.5781 88.3359 87.8281
c0 49.8213 -38.1787 88.8477 -86.917 88.8477c-25.1162 0 -50.4854 -13.6826 -69.6045 -32.3086l-4.80469 -5.01172h42v-30h-90v100.001h30v-42l4.97559 4.73242c23.4209 22.3906 55.2881 35.2324 87.4336 35.2324c32.0156 0 61.9346 -12.458 84.2441 -35.0791
c21.5039 -21.8047 33.3467 -51.7832 33.3467 -84.4141c0 -31.8633 -12.3184 -61.6738 -34.6826 -83.9385c-22.3682 -22.2695 -52.3154 -34.5332 -84.3271 -34.5332z" />
    <glyph glyph-name="uniE068" unicode="&#xe068;" 
d="M203.491 90l33.332 -75h-234.128l34.9355 75h165.86zM210 -30h-30v-15h30v15zM240 0v-45.3887c0 -8.05664 -6.71582 -14.6113 -14.9688 -14.6113h-210.062c-8.25293 0 -14.9688 6.55469 -14.9688 14.6113v45.3887h240zM2.69824 162.78
c-1.2627 4.01074 -0.554688 8.2666 1.94434 11.6758c2.54688 3.4707 6.6748 5.54395 11.0439 5.54395h208.74c4.33105 0 8.43945 -2.0459 10.9873 -5.47168c2.50195 -3.36328 3.25098 -7.58301 2.05273 -11.5771l-0.248047 -0.827148l-32.7451 -57.124h-167.794
l-33.7197 56.9551z" />
    <glyph glyph-name="uniE069" unicode="&#xe069;" 
d="M195.341 30h-148.653l19.1641 45h108.073zM174 -30v15h31.5v-15h-31.5zM15 -44.9775l210 -0.0224609v45l-210 -3.03577e-16v-44.9775zM225.031 -60h-210.062c-8.25293 0 -14.9688 6.55469 -14.9688 14.6113v54.6016l41.1221 88.2822l-38.1621 64.46l-0.261719 0.825195
c-1.2627 4.01074 -0.554688 8.2666 1.94434 11.6758c2.54688 3.4707 6.6748 5.54395 11.0439 5.54395h208.74c4.33105 0 8.43945 -2.0459 10.9873 -5.47168c2.50195 -3.36328 3.25098 -7.58301 2.05273 -11.5771l-0.248047 -0.827148l-37.0508 -64.6406l39.832 -89.6338
v-53.2383c0 -8.05664 -6.71582 -14.6113 -14.9688 -14.6113zM54.1776 90l-34.9345 -75h201.164l-33.3307 75h-132.899zM54.1108 105h133.074l34.3903 60h-202.987z" />
    <glyph glyph-name="uniE06A" unicode="&#xe06a;" 
d="M133.001 89.3711c0 9.70312 7.86523 17.5684 17.5674 17.5684c9.70312 0 17.5684 -7.86523 17.5684 -17.5684c0 -9.70215 -7.86523 -17.5674 -17.5684 -17.5674c-9.70215 0 -17.5674 7.86523 -17.5674 17.5674zM0 -60v45h45v150h150v-150h-150v-45h-45zM90 150h-30v15h30
v-15zM135 150h-30v15h30v-15zM180 150h-30v15h30v-15zM30 135h-15v15v15h30v-15h-15v-15zM225 135h-15v15h-15v15h30v-15v-15zM30 90h-15v30h15v-30zM225 90h-15v30h15v-30zM30 45h-15v30h15v-30zM225 45h-15v30h15v-30zM30 0h-15v30h15v-30zM225 0h-15v30h15v-30zM90 -45
h-30v15h30v-15zM135 -45h-30v15h30v-15zM180 -45h-30v15h30v-15zM225 -45h-30v15h15v15h15v-30zM60 47.1045c8.95508 13.2686 16.9844 20.1025 24.4443 20.832c0.445312 0.0419922 0.899414 0.0644531 1.34863 0.0644531c9.82129 0 18.9756 -10.1729 29.5752 -21.9521
c7.02148 -7.80371 14.9463 -16.6094 24.1104 -23.3447l2.75586 4.91406c-6.50098 4.83398 -12.1533 10.6006 -16.3975 15.1426l-0.850586 0.910156l0.876953 0.880859c7.26367 7.29004 13.958 10.8779 20.4658 10.9678l0.250977 0.00195312
c11.1357 0 21.5439 -10.2354 33.4199 -22.4629v86.9414h-120v-72.8955z" />
    <glyph glyph-name="uniE06B" unicode="&#xe06b;" 
d="M60 0h120v22.8695c-12.5911 12.8236 -23.2129 22.3883 -33.5967 22.3883c-0.0800781 0 -0.158203 0 -0.237305 -0.000976562c-5.0957 -0.0722656 -10.2656 -2.52637 -15.708 -7.47461c8.08301 -8.17871 16.6797 -15.6016 26.6953 -19.4912l-4.88574 -12.584
c-16.3691 6.35938 -28.9014 19.7422 -39.96 31.5498c-10.8877 11.6279 -20.2891 21.6855 -29.0352 20.7812c-6.7341 -0.684126 -14.5547 -7.9043 -23.2725 -21.4736v-36.5644zM150 99c-4.96387 0 -9 -4.03613 -9 -9s4.03613 -9 9 -9s9 4.03613 9 9s-4.03613 9 -9 9zM150 69
c-11.5801 0 -21 9.41992 -21 21s9.41992 21 21 21s21 -9.41992 21 -21s-9.41992 -21 -21 -21zM0 -60v45h45v150h150v-150h-150v-45h-45zM90 150h-30v15h30v-15zM135 150h-30v15h30v-15zM180 150h-30v15h30v-15zM30 135h-15v15v15h30v-15h-15v-15zM225 135h-15v15h-15v15h30
v-15v-15zM30 90h-15v30h15v-30zM225 90h-15v30h15v-30zM30 45h-15v30h15v-30zM225 45h-15v30h15v-30zM30 0h-15v30h15v-30zM225 0h-15v30h15v-30zM90 -45h-30v15h30v-15zM135 -45h-30v15h30v-15zM180 -45h-30v15h30v-15zM225 -45h-30v15h15v15h15v-30zM180 41.8115v78.1885
h-120v-61.1718c7.27885 7.78664 14.4466 11.8832 21.9062 12.6406c14.9785 1.53613 26.8301 -10.6602 39.2441 -23.9053c8.05469 7.39941 16.2197 11.0703 24.8252 11.1914c12.6818 0.185675 23.8757 -7.57622 34.0244 -16.9434z" />
    <glyph glyph-name="uniE06C" unicode="&#xe06c;" 
d="M120 120c-33.084 0 -60 -26.916 -60 -60c0 -13.8438 4.71484 -26.6104 12.6211 -36.7744l84.1533 84.1533c-10.1641 7.90625 -22.9307 12.6211 -36.7744 12.6211zM83.2256 12.6211c10.1641 -7.90625 22.9307 -12.6211 36.7744 -12.6211c33.084 0 60 26.916 60 60
c0 13.8438 -4.71484 26.6104 -12.6211 36.7744zM120 -15c-41.3555 0 -75 33.6445 -75 75s33.6445 75 75 75s75 -33.6445 75 -75s-33.6445 -75 -75 -75zM0 -60v45h45v-45h-45zM90 150h-30v15h30v-15zM135 150h-30v15h30v-15zM180 150h-30v15h30v-15zM30 135h-15v15v15h30v-15
h-15v-15zM225 135h-15v15h-15v15h30v-15v-15zM30 90h-15v30h15v-30zM225 90h-15v30h15v-30zM30 45h-15v30h15v-30zM225 45h-15v30h15v-30zM30 0h-15v30h15v-30zM225 0h-15v30h15v-30zM90 -45h-30v15h30v-15zM135 -45h-30v15h30v-15zM180 -45h-30v15h30v-15zM225 -45h-30v15
h15v15h15v-30z" />
    <glyph glyph-name="uniE06D" unicode="&#xe06d;" 
d="M133.001 89.3711c0 9.70312 7.86523 17.5684 17.5674 17.5684c9.70312 0 17.5684 -7.86523 17.5684 -17.5684c0 -9.70215 -7.86523 -17.5674 -17.5684 -17.5674c-9.70215 0 -17.5674 7.86523 -17.5674 17.5674zM125.426 40.0693l19.0771 20.5176l35.4971 -35.8818
v95.2949h-120v-71.6279l24.7607 26.6279l69.7373 -75h7.96875zM0 -60v45h45v150h150v-150h-150v-45h-45zM90 150h-30v15h30v-15zM135 150h-30v15h30v-15zM180 150h-30v15h30v-15zM30 135h-15v15v15h30v-15h-15v-15zM225 135h-15v15h-15v15h30v-15v-15zM30 90h-15v30h15v-30z
M225 90h-15v30h15v-30zM30 45h-15v30h15v-30zM225 45h-15v30h15v-30zM30 0h-15v30h15v-30zM225 0h-15v30h15v-30zM90 -45h-30v15h30v-15zM135 -45h-30v15h30v-15zM180 -45h-30v15h30v-15zM225 -45h-30v15h15v15h15v-30z" />
    <glyph glyph-name="uniE06E" unicode="&#xe06e;" 
d="M150 99c-4.96387 0 -9 -4.03613 -9 -9s4.03613 -9 9 -9s9 4.03613 9 9s-4.03613 9 -9 9zM150 69c-11.5801 0 -21 9.41992 -21 21s9.41992 21 21 21s21 -9.41992 21 -21s-9.41992 -21 -21 -21zM0 -60v45h45v150h150v-150h-150v-45h-45zM90 150h-30v15h30v-15zM135 150h-30
v15h30v-15zM180 150h-30v15h30v-15zM30 135h-15v15v15h30v-15h-15v-15zM225 135h-15v15h-15v15h30v-15v-15zM30 90h-15v30h15v-30zM225 90h-15v30h15v-30zM30 45h-15v30h15v-30zM225 45h-15v30h15v-30zM30 0h-15v30h15v-30zM225 0h-15v30h15v-30zM90 -45h-30v15h30v-15z
M135 -45h-30v15h30v-15zM180 -45h-30v15h30v-15zM225 -45h-30v15h15v15h15v-30zM60 33.1016v-33.1016h80.46l-56.8203 56.6719zM60 53.2412l23.6396 23.5693l36.5762 -36.4668l23.6943 23.624l36.0898 -35.9805v92.0127h-120v-66.7588zM180 7.84766l-36.0898 35.9805
l-13.5947 -13.5537l30.3447 -30.2744h19.3398v7.84766z" />
    <glyph glyph-name="uniE06F" unicode="&#xe06f;" 
d="M0 -60v45h45v-45h-45zM90 150h-30v15h30v-15zM135 150h-30v15h30v-15zM180 150h-30v15h30v-15zM30 135h-15v15v15h30v-15h-15v-15zM225 135h-15v15h-15v15h30v-15v-15zM30 90h-15v30h15v-30zM225 90h-15v30h15v-30zM30 45h-15v30h15v-30zM225 45h-15v30h15v-30zM30 0h-15
v30h15v-30zM225 0h-15v30h15v-30zM90 -45h-30v15h30v-15zM135 -45h-30v15h30v-15zM180 -45h-30v15h30v-15zM225 -45h-30v15h15v15h15v-30z" />
    <glyph glyph-name="uniE070" unicode="&#xe070;" 
d="M184.5 -60c-2.48535 0 -4.5 2.01465 -4.5 4.5v51c0 2.48535 2.01465 4.5 4.5 4.5h51c2.48535 0 4.5 -2.01465 4.5 -4.5v-51c0 -2.48535 -2.01465 -4.5 -4.5 -4.5h-51zM4.5 -60c-2.48535 0 -4.5 2.01465 -4.5 4.5v51c0 2.48535 2.01465 4.5 4.5 4.5h51
c2.48535 0 4.5 -2.01465 4.5 -4.5v-51c0 -2.48535 -2.01465 -4.5 -4.5 -4.5h-51zM4.5 180h51c2.48535 0 4.5 -2.01465 4.5 -4.5v-51c0 -2.48535 -2.01465 -4.5 -4.5 -4.5h-51c-2.48535 0 -4.5 2.01465 -4.5 4.5v51c0 2.48535 2.01465 4.5 4.5 4.5zM30 7.5h-15v105h15v-105z
M172.5 -45h-105v15h105v-15zM125.1 64.376l1.73242 -0.87207c2.12305 -1.06836 4.67871 -0.626953 6.35938 1.09473c2.28223 2.33887 2.28223 6.14453 0 8.48242c-2.11816 2.16992 -5.74805 2.1709 -7.86621 0c-1.76758 -1.80957 -2.20508 -4.58496 -1.09082 -6.90527z
M103.799 99.5312c0.551758 -3.15137 0.831055 -6.65723 0.831055 -10.4316c0 -12.113 -2.81619 -27.4622 -6.77146 -40.0472l14.1845 15.9291c-1.27051 5.85449 0.415039 12.0977 4.69336 16.4805c3.33594 3.41895 7.7832 5.30273 12.5215 5.30273
s9.18652 -1.88281 12.5225 -5.30078c6.79004 -6.95996 6.79004 -18.2852 0 -25.2451c-4.3291 -4.43555 -10.5059 -6.18945 -16.3184 -4.87695l-16.0233 -13.9329c15.8513 5.2647 36.154 8.89232 49.408 6.48853c9.80859 16.4336 22.6191 35.4883 28.3398 43.8887
l-39.3662 39.3633c-8.33398 -5.36426 -27.6016 -17.666 -44.0215 -27.6182zM81.4756 10.2568c-1.43066 0 -2.70898 0.238281 -3.8584 0.548828c-4.02148 1.08789 -5.62793 2.69922 -6.67578 6.64941c-0.306641 1.14941 -0.441406 2.17871 -0.441406 3.24805
c0 4.6875 2.67773 9.57031 8.42578 15.3691c4.51172 4.55176 13.7041 31.9707 13.7041 53.0273c0 3.27441 -0.246094 6.23926 -0.732422 8.81152l-1.43262 7.57617l6.57812 3.97949c19.2488 11.6516 42.5365 26.6283 47.3792 29.7698
c8.95013 12.2526 28.505 34.0622 29.3542 35.0075l4.28906 4.77832l61.0117 -62.7188l-4.63867 -4.17285c-0.941119 -0.846439 -22.5424 -20.2335 -35.2818 -28.099c-3.8745 -5.63969 -19.2101 -28.1327 -30.3422 -46.8483l-3.99902 -6.72266l-7.64355 1.54199
c-18.918 3.8125 -55.6748 -8.46973 -61.1084 -13.9531c-6.12012 -6.17578 -10.8652 -7.79297 -14.5879 -7.79297z" />
    <glyph glyph-name="uniE071" unicode="&#xe071;" 
d="M184.5 -60c-2.48535 0 -4.5 2.01465 -4.5 4.5v51c0 2.48535 2.01465 4.5 4.5 4.5h51c2.48535 0 4.5 -2.01465 4.5 -4.5v-51c0 -2.48535 -2.01465 -4.5 -4.5 -4.5h-51zM4.5 -60c-2.48535 0 -4.5 2.01465 -4.5 4.5v51c0 2.48535 2.01465 4.5 4.5 4.5h51
c2.48535 0 4.5 -2.01465 4.5 -4.5v-51c0 -2.48535 -2.01465 -4.5 -4.5 -4.5h-51zM180 175.5c0 2.48535 2.01465 4.5 4.5 4.5h51c2.48535 0 4.5 -2.01465 4.5 -4.5v-51c0 -2.48535 -2.01465 -4.5 -4.5 -4.5h-51c-2.48535 0 -4.5 2.01465 -4.5 4.5v51zM4.5 180h51
c2.48535 0 4.5 -2.01465 4.5 -4.5v-51c0 -2.48535 -2.01465 -4.5 -4.5 -4.5h-51c-2.48535 0 -4.5 2.01465 -4.5 4.5v51c0 2.48535 2.01465 4.5 4.5 4.5zM172.5 150h-105v15h105v-15zM30 7.5h-15v105h15v-105zM225 7.5h-15v105h15v-105zM172.5 -45h-105v15h105v-15z" />
    <glyph glyph-name="uniE072" unicode="&#xe072;" 
d="M211.572 29.0098c4.89551 -2.7793 7.83105 -7.71875 7.85059 -13.2129c0.0214844 -5.53711 -2.89355 -10.5332 -7.7998 -13.3682c-3.60742 -2.08691 -37.2588 -19.9531 -77.5557 -41.3311c-17.958 -9.52637 -33.4668 -17.7539 -36.0215 -19.1436
c-2.3877 -1.2998 -5.03418 -1.94922 -7.66895 -1.94922c-2.79688 0 -5.58203 0.730469 -8.03418 2.18652c-4.59766 2.73145 -7.34277 7.61426 -7.34277 13.0605v119.223c0 5.48633 2.92383 10.6055 7.63086 13.3613c4.78809 2.80176 10.6748 2.77637 15.751 -0.0722656
c1.9082 -1.06934 21.2822 -11.0684 41.7949 -21.6543c31.1338 -16.0664 66.4209 -34.2764 71.3955 -37.0996zM90.3281 104.919c-5.36523 0 -10.6465 -1.42969 -15.2773 -4.13867c-9.2832 -5.4375 -15.0508 -15.5156 -15.0508 -26.3057v-59.4746v-7.5v-7.5h-40.5
c-10.752 0 -19.5 8.74805 -19.5 19.5v96c0 10.752 8.74805 19.5 19.5 19.5h96c10.752 0 19.5 -8.74805 19.5 -19.5v-29.8379c-2.5459 1.31348 -5.06445 2.61426 -7.5 3.87305c-1.31543 0.680664 -2.60352 1.3457 -3.85938 1.99512
c-0.0527344 0.0263672 -0.106445 0.0537109 -0.157227 0.0810547c-9.30371 4.80859 -16.6309 8.6084 -17.7607 9.2334c-4.74902 2.66602 -10.0723 4.07422 -15.3945 4.07422zM106.101 150h-9.96875c14.8633 18.2881 37.5195 30 62.8682 30c44.6641 0 81 -36.3359 81 -81
c0 -21.7441 -8.62988 -41.501 -22.6211 -56.0645c-1.59668 0.864258 -3.99316 2.13477 -7.09082 3.75977c-0.478516 0.25 -0.985352 0.515625 -1.49707 0.78418c-0.231445 0.121094 -0.448242 0.235352 -0.6875 0.360352
c-0.740234 0.386719 -1.51172 0.790039 -2.31543 1.20996c-0.223633 0.117188 -0.466797 0.243164 -0.694336 0.361328c-12.2744 6.40234 -31.5498 16.3594 -55.0938 28.5098v37.5791c0 19.0234 -15.4766 34.5 -34.5 34.5h-9.39941z" />
    <glyph glyph-name="uniE073" unicode="&#xe073;" 
d="M90.0225 -44.9609c0.0341797 0 0.419922 -0.145508 0.851562 0.0898438c2.62695 1.42969 17.4277 9.28027 36.1621 19.2197c30.9814 16.4355 73.4131 38.9443 77.0791 41.0654c0.193359 0.112305 0.307617 0.232422 0.307617 0.325195
c0 0.0556641 -0.131836 0.15625 -0.254883 0.225586c-4.71484 2.67383 -41.3955 21.6045 -70.8701 36.8145c-24.873 12.835 -40.2197 20.7598 -42.2539 21.9014c-0.104492 0.0585938 -0.624023 0.335938 -0.834961 0.209961
c-0.0488281 -0.0273438 -0.208984 -0.142578 -0.208984 -0.416016v-119.223c0 -0.150391 0.0224609 -0.212891 0.0224609 -0.212891zM90.377 -59.9951c-2.79785 0 -5.58203 0.730469 -8.03418 2.18652c-4.59766 2.73145 -7.34277 7.61426 -7.34277 13.0605v119.223
c0 5.48633 2.92383 10.6055 7.63086 13.3613c4.78906 2.80176 10.6768 2.77637 15.751 -0.0722656c1.9082 -1.06934 21.2822 -11.0684 41.7949 -21.6543c31.1338 -16.0664 66.4209 -34.2783 71.3955 -37.0996c4.89551 -2.7793 7.83105 -7.71875 7.85059 -13.2129
c0.0214844 -5.53711 -2.89453 -10.5332 -7.7998 -13.3682c-3.60742 -2.08691 -37.2588 -19.9531 -77.5557 -41.3311c-17.958 -9.52637 -33.4668 -17.7539 -36.0215 -19.1436c-2.3877 -1.2998 -5.03418 -1.94922 -7.66895 -1.94922zM60 15v-15h-40.5
c-10.752 0 -19.5 8.74805 -19.5 19.5v96c0 10.752 8.74805 19.5 19.5 19.5h96c10.752 0 19.5 -8.74805 19.5 -19.5v-29.8379c-5.28711 2.72949 -10.4785 5.41211 -15 7.75v22.0879c0 2.48145 -2.01855 4.5 -4.5 4.5h-96c-2.48145 0 -4.5 -2.01855 -4.5 -4.5v-96
c0 -2.48145 2.01855 -4.5 4.5 -4.5h40.5zM117.105 149.96c-0.533203 0.0234375 -1.06738 0.0400391 -1.60547 0.0400391h-19.3691c14.8643 18.2881 37.5205 30 62.8691 30c44.6641 0 81 -36.3359 81 -81c0 -21.7441 -8.62988 -41.501 -22.6211 -56.0654
c-2.62207 1.4209 -7.38184 3.92285 -13.9219 7.3291c13.2285 12.0781 21.543 29.4541 21.543 48.7363c0 36.3926 -29.6074 66 -66 66c-15.8926 0 -30.4902 -5.64746 -41.8945 -15.04z" />
    <glyph glyph-name="uniE074" unicode="&#xe074;" 
d="M120 144.9c-46.8135 0 -84.9004 -38.0869 -84.9004 -84.9004s38.0869 -84.9004 84.9004 -84.9004s84.9004 38.0869 84.9004 84.9004s-38.0869 84.9004 -84.9004 84.9004zM120 -45c-57.8975 0 -105 47.1025 -105 105s47.1025 105 105 105s105 -47.1025 105 -105
s-47.1025 -105 -105 -105z" />
    <glyph glyph-name="uniE075" unicode="&#xe075;" 
d="M120 -45c-57.8975 0 -105 47.1025 -105 105s47.1025 105 105 105s105 -47.1025 105 -105s-47.1025 -105 -105 -105z" />
    <glyph glyph-name="uniE076" unicode="&#xe076;" 
d="M103.5 -46.5v195h-90v18h198v-18h-90v-195h-18z" />
    <glyph glyph-name="uniE077" unicode="&#xe077;" 
d="M185.798 21.0059c2.25879 18.7656 -14.2656 39.3584 -28.8467 57.5283c-6.92676 8.63184 -13.4697 16.7861 -16.833 23.2734l-13.3174 -6.9043c4.04883 -7.80859 11.0449 -16.5283 18.4521 -25.7578c12.0986 -15.0781 27.1572 -33.8428 25.6514 -46.3467z
M165.648 111.344c22.8086 -30.2646 44.3516 -58.8496 44.3516 -86.4287c0 -23.6523 -9.40039 -45.3389 -26.4688 -61.0684c-16.6895 -15.3779 -39.251 -23.8467 -63.5312 -23.8467c-24.2246 0 -46.7881 8.5332 -63.5352 24.0273
c-17.0654 15.7891 -26.4648 37.4131 -26.4648 60.8877c0 27.2295 21.4668 55.7686 44.1934 85.9814c16.3447 21.7305 33.2461 44.1992 41.5166 66.0811c0.694336 1.83594 2.38086 3.02246 4.2959 3.02246c1.91113 0 3.5957 -1.18164 4.29199 -3.01172
c8.28711 -21.7773 25.0957 -44.0781 41.3506 -65.6445z" />
    <glyph glyph-name="uniE078" unicode="&#xe078;" 
d="M185.798 21.0059l-14.8936 1.79297c1.50586 12.5039 -13.5527 31.2686 -25.6514 46.3467c-7.40723 9.22949 -14.4033 17.9492 -18.4521 25.7578l13.3174 6.9043c3.36328 -6.4873 9.90625 -14.6416 16.833 -23.2734c14.5811 -18.1699 31.1055 -38.7627 28.8467 -57.5283z
M120.014 160.337c-8.96973 -19.3125 -23.8896 -38.5488 -38.3672 -57.2148c-21.1602 -27.2832 -41.1465 -53.0537 -41.1465 -76.0137c0 -19.8496 8.2002 -38.1406 23.0908 -51.5c14.8115 -13.29 34.8438 -20.6084 56.4092 -20.6084c21.624 0 41.6592 7.26172 56.416 20.4482
c14.8867 13.3037 23.084 31.6494 23.084 51.6602c0 23.2812 -20.0576 49.0928 -41.2939 76.4199l5.91992 4.60547l-5.92383 -4.60059c-14.3896 18.5176 -29.2197 37.6016 -38.1885 56.8037zM120 -60c-25.2686 0 -48.8613 8.68066 -66.4258 24.4443
c-18.1035 16.2432 -28.0742 38.4971 -28.0742 62.6641c0 28.0947 21.5146 55.8359 44.2939 85.2041c15.4717 19.9502 31.4707 40.5762 39.0703 60.0762c1.80469 4.625 6.17676 7.61133 11.1416 7.61133c4.95605 0 9.32422 -2.97754 11.1318 -7.58691
c7.61523 -19.4053 23.5244 -39.8779 38.9102 -59.6758l-5.9209 -4.60352l5.9248 4.59863c22.8574 -29.415 44.4482 -57.1992 44.4482 -85.624c0 -24.3398 -9.97461 -46.6562 -28.0889 -62.8447c-17.5098 -15.6465 -41.0957 -24.2637 -66.4111 -24.2637z" />
    <glyph glyph-name="uniE079" unicode="&#xe079;" 
d="M138.996 -9.24414c-16.2656 -32.6631 -35.0684 -37.002 -137.61 -35.502c-1.52539 0.0224609 -1.92676 2.07227 -0.518555 2.64258c35.9053 14.5303 29.9268 11.7529 57.4336 67.4834c29.2168 59.1963 103.878 11.9238 80.6953 -34.624zM232.941 147.696
c8.55859 -7.65332 9.27246 -20.7734 1.59863 -29.3076l-80.9248 -85.0781c-0.891602 1.83008 -1.8584 3.63867 -2.95508 5.41016c-6.40039 10.3379 -15.792 18.6201 -26.499 23.8955l79.3848 83.4883c7.67676 8.53223 20.8379 9.24414 29.3955 1.5918z" />
    <glyph glyph-name="uniE07A" unicode="&#xe07a;" 
d="M92.3389 42.3896c-13.7363 0 -21.8359 -10.5674 -26.2109 -19.4336c-3.57227 -7.2373 -6.50879 -13.3545 -9.10059 -18.75c-7.00977 -14.5967 -14.3809 -23.6816 -19.7549 -30.3164c63.9746 0.663086 73.9717 7.89844 83.5107 27.0527
c4.26562 8.56641 3.8291 17.4414 -1.26367 25.668c-5.93457 9.58594 -16.6035 15.7793 -27.1807 15.7793zM26.9277 -44.2158c-5.01562 0 -10.4033 0.0302734 -16.4717 0.0898438c-4.66016 0.046875 -8.55371 3.27246 -9.46875 7.84375
c-0.915039 4.57031 1.43848 9.04492 5.7207 10.8809c16.4521 7.05762 20.2842 8.77246 34.043 37.4229c2.61133 5.4375 5.57031 11.6006 9.18555 18.9268c9.25391 18.7471 24.708 29.499 42.4023 29.499c16.6875 0 33.3818 -9.55078 42.5322 -24.3301
c8.31152 -13.4248 9.06738 -29.1777 2.07422 -43.2227c-15.373 -30.8682 -36.3838 -37.1104 -110.018 -37.1104zM239.961 137.765c0.37207 -6.83594 -1.94824 -13.4053 -6.53418 -18.501l-0.207031 -0.223633l-83.1279 -86.6309
c-1.3125 3.43164 -2.97363 6.79199 -4.98633 10.042c-1.34277 2.1709 -2.82324 4.24512 -4.41699 6.22363l79.4004 82.7578c1.31543 1.50781 1.95117 3.35547 1.84375 5.35352c-0.111328 2.04199 -0.979492 3.84473 -2.50977 5.21289
c-1.4043 1.25586 -3.21387 1.94727 -5.09863 1.94727c-2.1748 0 -4.27441 -0.948242 -5.7627 -2.59961l-0.204102 -0.220703l-78.5234 -81.8545c-4.96777 3.82422 -10.4629 6.9248 -16.248 9.15527l81.6689 85.1221c4.90039 5.37305 11.8408 8.45117 19.0693 8.45117
c6.33203 0 12.416 -2.32324 17.1348 -6.54297c5.11035 -4.57031 8.12988 -10.8545 8.50195 -17.6924z" />
    <glyph glyph-name="uniE07B" unicode="&#xe07b;" 
d="M124.683 61.9473c0 4.06348 -3.30273 7.36914 -7.36328 7.36914s-7.36328 -3.30566 -7.36328 -7.36914s3.30273 -7.37109 7.36328 -7.37109s7.36328 3.30762 7.36328 7.37109zM139.466 61.9473c0 -12.333 -9.93457 -22.3672 -22.1465 -22.3672
c-12.2109 0 -22.1455 10.0342 -22.1455 22.3672c0 7.96484 4.15625 14.9502 10.3799 18.9131l-13.3906 94.8213l14.5186 2.81836l13.3047 -94.3662c10.9561 -1.33496 19.4795 -10.7676 19.4795 -22.1865zM205.021 59.1865
c2.82715 -2.92285 4.32617 -6.7373 4.24316 -10.7637c-0.0820312 -4.02441 -1.73633 -7.77441 -4.65527 -10.5596l-96.1201 -91.6641c-2.83105 -2.69824 -6.54492 -4.18359 -10.46 -4.18359c-4.15039 0 -8.02148 1.6416 -10.8984 4.61914l-82.248 85.0977
c-2.80371 2.90137 -4.30371 6.7168 -4.21973 10.7432c0.0820312 4.02246 1.7373 7.77441 4.65723 10.5586l81.29 76.1475l6.12988 -43.4023c-6.08984 -6.32715 -9.56641 -14.7959 -9.56641 -23.832c0 -18.9502 15.3164 -34.3682 34.1455 -34.3682
c18.8301 0 34.1475 15.417 34.1475 34.3662c0 14.0176 -8.42383 26.2773 -20.6846 31.5723l-6.81055 48.2998zM239.76 34.4922c0.371094 -41.7227 0.318359 -57.6211 -0.198242 -60.7529l-0.152344 -0.962891c-1.03516 -6.6543 -4.16992 -26.7979 -19.3652 -26.7979
c-0.117188 0 -0.234375 0.00195312 -0.352539 0.00390625c-16.7852 0.341797 -17.9443 25.2578 -18.501 37.2324c-0.109375 2.33984 -0.104492 6.48438 -0.100586 12.2217c0.00585938 7.24121 0.0117188 16.8623 -0.235352 26.4121l9.96777 9.50586
c4.66504 4.45215 7.30762 10.4492 7.43945 16.8857c0.131836 6.44238 -2.27246 12.5537 -6.81738 17.251l-36.8145 37.5332c14.3818 2.16309 29.9189 2.59082 44.54 -9.19824c20.1504 -16.2461 20.625 -43.7383 20.5146 -49.084
c-0.00976562 -0.615234 0.0302734 -5.0791 0.0751953 -10.25z" />
    <glyph glyph-name="uniE07C" unicode="&#xe07c;" 
d="M127.683 63.4473c0 4.06348 -3.30273 7.36914 -7.36328 7.36914s-7.36328 -3.30566 -7.36328 -7.36914s3.30273 -7.37109 7.36328 -7.37109s7.36328 3.30762 7.36328 7.37109zM142.466 63.4473c0 -12.333 -9.93457 -22.3672 -22.1465 -22.3672
c-12.2109 0 -22.1455 10.0342 -22.1455 22.3672c0 7.96484 4.15625 14.9502 10.3799 18.9131l-17.8906 94.8213l14.5186 2.81836l17.8047 -94.3662c10.9561 -1.33496 19.4795 -10.7676 19.4795 -22.1865zM220.117 -52.5244
c-0.123047 0 -0.24707 0.00195312 -0.37207 0.00292969c-17.749 0.342773 -18.9746 25.2588 -19.5625 37.2334c-0.115234 2.33984 -0.111328 6.48438 -0.106445 12.2217c0.00867495 9.41913 0.0201021 22.8647 -0.565192 34.9449l-88.2454 -85.3687
c-3.3418 -3.23242 -7.72656 -5.00977 -12.3496 -5.00977c-4.90039 0 -9.46973 1.96484 -12.8682 5.53223l-81.0547 85.0752c-3.31641 3.47852 -5.08789 8.05469 -4.98828 12.8848c0.0957031 4.82422 2.05176 9.32422 5.50488 12.665l78.5684 74.6582l3.28613 -17.4229
l-71.7031 -68.1348c-0.541016 -0.524414 -0.862305 -1.25879 -0.878906 -2.07324c-0.0166016 -0.818359 0.273438 -1.5625 0.838867 -2.15527l81.0566 -85.0771c1.1582 -1.21582 3.17383 -1.25781 4.38477 -0.0878906l94.7246 91.6367
c0.589844 0.571289 0.911133 1.30469 0.927734 2.12012c0.0166016 0.816406 -0.273438 1.56055 -0.838867 2.1543l-64.2764 66.4775l-5.02051 26.6055l41.1015 -42.5078c16.4072 2.63689 34.5449 4.41571 51.5128 -8.52542
c21.3057 -16.2471 21.8086 -43.7383 21.6914 -49.085c-0.0107422 -0.613281 0.03125 -5.0791 0.0800781 -10.249c0.391602 -41.7227 0.333984 -57.623 -0.209961 -60.7578l-0.161133 -0.962891c-1.09473 -6.65137 -4.41016 -26.7949 -20.4766 -26.7949zM180.693 90.3926
l25.7744 -26.6563c2.59348 -2.71885 4.24077 -6.07259 4.80906 -9.68676l0.665548 0.181876c2.51855 -14.9229 3.99805 -41.0283 3.98242 -57.3105c-0.00390625 -5.1123 -0.00878906 -9.52734 0.0888672 -11.5117c0.814453 -16.5654 3.04297 -21.375 4.28711 -22.7666
c0.758789 0.641602 2.88867 3.33789 4.63281 13.9375l0.183594 1.09375c0.506836 4.13379 0.139648 43.4023 0.000976562 58.1855c-0.0644531 6.88867 -0.0908203 9.96582 -0.0761719 10.6885c0.0556641 2.52344 0.0761719 24.999 -15.7891 37.0947
c-8.59338 6.55188 -17.3456 7.75389 -28.5596 6.75003z" />
    <glyph glyph-name="uniE07D" unicode="&#xe07d;" 
d="M52.5 144.429c-9.33496 0 -16.9287 -7.59375 -16.9287 -16.9287s7.59375 -16.9287 16.9287 -16.9287s16.9287 7.59375 16.9287 16.9287s-7.59375 16.9287 -16.9287 16.9287zM60 75h-15v21.4619c-11.5938 2.80078 -20.7373 11.9443 -23.5381 23.5381h-21.4619v15h21.4619
c2.80078 11.5938 11.9443 20.7373 23.5381 23.5381v21.4619h15v-21.4619c11.5938 -2.80078 20.7373 -11.9443 23.5381 -23.5381h21.4619v-15h-21.4619c-2.80078 -11.5938 -11.9443 -20.7373 -23.5381 -23.5381v-21.4619zM193.553 44.4707
c-4.97168 0 -9.64648 1.93066 -13.1631 5.4375l-45.8848 45.7441c-3.51562 3.50488 -5.45215 8.17285 -5.45215 13.1426s1.93652 9.63574 5.45215 13.1416c3.5166 3.50586 8.19141 5.4375 13.1631 5.4375c4.31543 0 8.40723 -1.45508 11.7129 -4.13281
c0.318359 0.380859 0.655273 0.749023 1.00977 1.10156c4.75293 4.72949 15.7334 15.6562 16.459 16.3164c9.52734 8.66113 20.1338 13.2393 30.6787 13.2393c13.0469 0 24.3809 -7.15918 29.5801 -18.6836c6.10938 -13.5498 2.44434 -29.8535 -9.80273 -43.6133
c-0.962891 -1.0791 -14.7988 -14.9248 -16.9619 -17.0879c-0.411133 -0.40918 -0.841797 -0.795898 -1.29004 -1.15723c2.02637 -3.02441 3.11426 -6.5791 3.11426 -10.3057c0 -4.96973 -1.93652 -9.63574 -5.45312 -13.1416
c-3.51562 -3.50781 -8.18945 -5.43848 -13.1621 -5.43848zM132.591 78.4961l33.4668 -33.3613c-39.6797 -38.6064 -68.8213 -62.3516 -86.1543 -74.9395c-11.3672 -8.25586 -20.3379 -14.7725 -32.4736 -26.8701c-2.18066 -2.1748 -4.81641 -3.32324 -7.62305 -3.32324
c-4.38672 0 -8.55371 2.93359 -10.3672 7.2998c-1.74219 4.19531 -0.870117 8.75098 2.27832 11.8896c12.5566 12.5156 19.2041 21.9697 27.6221 33.9404c12.3994 17.6309 35.7764 46.9258 73.251 85.3643z" />
    <glyph glyph-name="uniE07E" unicode="&#xe07e;" 
d="M52.5 144.429c-9.33496 0 -16.9287 -7.59375 -16.9287 -16.9287s7.59375 -16.9287 16.9287 -16.9287s16.9287 7.59375 16.9287 16.9287s-7.59375 16.9287 -16.9287 16.9287zM60 75h-15v21.4619c-11.5938 2.80078 -20.7373 11.9443 -23.5381 23.5381h-21.4619v15h21.4619
c2.80078 11.5938 11.9443 20.7373 23.5381 23.5381v21.4619h15v-21.4619c11.5938 -2.80078 20.7373 -11.9443 23.5381 -23.5381h21.4619v-15h-21.4619c-2.80078 -11.5938 -11.9443 -20.7373 -23.5381 -23.5381v-21.4619zM147.545 114.185
c-1.58594 0 -3.01367 -0.589844 -4.13281 -1.7041c-1.0918 -1.08789 -1.69238 -2.53809 -1.69238 -4.08301c0 -1.54688 0.601562 -2.99707 1.69238 -4.08594l45.5664 -45.4258c1.11816 -1.11426 2.54785 -1.7041 4.13281 -1.7041c1.58594 0 3.01367 0.589844 4.13281 1.7041
c1.0918 1.08691 1.69141 2.53809 1.69141 4.08398c0 1.54492 -0.600586 2.99609 -1.69141 4.08496l-11.5654 11.5293l13.5361 3.77344c0.613281 0.170898 1.16309 0.493164 1.62891 0.958984c4.92969 4.92969 12.5977 12.6299 13.3955 13.4951
c8.71191 9.78711 11.5576 20.8711 7.60449 29.6387c-3.08789 6.84473 -9.9209 11.0986 -17.832 11.0986c-7.26855 0 -14.8574 -3.40723 -21.9463 -9.85254c-0.554688 -0.521484 -6.10352 -6.01953 -12.8984 -12.7783
c-0.50293 -0.500977 -0.829102 -1.04102 -1.00098 -1.65137l-3.77344 -13.4609l-12.7158 12.6768c-1.11914 1.1123 -2.54688 1.70215 -4.13184 1.70215zM193.111 40.7939c-5.92969 0 -11.5049 2.30371 -15.7021 6.48633l-0.993763 0.990717
c-43.7629 -43.1721 -70.2797 -63.9374 -88.6322 -77.2642c-11.1035 -8.06445 -19.8711 -14.4316 -31.6309 -26.1572c-3.12012 -3.10938 -7.11621 -4.82227 -11.251 -4.82227c-6.43652 0 -12.5107 4.2041 -15.1113 10.4639c-2.55566 6.15625 -1.25586 12.8604 3.39551 17.499
c12.1475 12.1104 18.6348 21.334 26.8477 33.0137c13.1591 18.7123 33.5868 45.4626 75.6344 87.8901l-3.8248 3.81307c-4.19727 4.18555 -6.50879 9.75781 -6.50879 15.6895c0 5.93066 2.31152 11.5029 6.50879 15.6865c4.19531 4.18164 9.77246 6.48633 15.7021 6.48633
c3.93555 0 7.77148 -1.02832 11.1328 -2.97461c7.63477 7.59082 11.793 11.7012 12.3594 12.2207c10.1582 9.23535 21.5596 14.1162 32.9736 14.1162c14.4404 0 26.9971 -7.9502 32.7686 -20.748c6.69043 -14.835 2.82129 -32.5244 -10.3457 -47.3174
c-0.930664 -1.04395 -9.28711 -9.41895 -13.2461 -13.3799c1.41797 -2.97168 2.13477 -6.1709 2.13477 -9.51758c0 -5.93164 -2.31152 -11.5039 -6.50879 -15.6875c-4.19531 -4.18359 -9.77246 -6.4873 -15.7021 -6.4873zM164.811 59.8403l-17.5382 17.4845
c-41.1635 -41.5385 -61.0506 -67.568 -73.8358 -85.7476c-7.62695 -10.8477 -13.8447 -19.6885 -24.1885 -30.5908c10.3828 9.8252 18.7051 15.8691 28.8975 23.2715c17.8759 12.9827 43.7441 33.2458 86.665 75.5825z" />
    <glyph glyph-name="uniE07F" unicode="&#xe07f;" 
d="M55.6064 135l139.394 -139.394v139.394h-139.394zM45 -15h139.394l-139.394 139.394v-139.394zM45 -60h-15v30h-30v15h30v154.394l-28.2627 28.2627l10.6064 10.6064l28.2627 -28.2627h154.394v30h15v-30h30v-15h-30v-165h-165v-30z" />
    <glyph glyph-name="uniE080" unicode="&#xe080;" 
d="M13.9189 -33.3535l168.127 168.129l-65.0771 -17.8398l-4.75781 17.3584l112.955 30.9658l-30.0996 -112.989l-17.3926 4.63477l17.4463 65.4854l-168.474 -168.472z" />
    <glyph glyph-name="uniE081" unicode="&#xe081;" 
d="M13.5303 -36.7832l0.75 0.0283203c35.6387 1.3291 59.1221 10.7939 73.9033 29.7871c14.002 17.9932 18.4287 42.3408 23.1162 68.1182c4.82129 26.5049 9.80566 53.9131 26.0098 75.2188c17.6689 23.2324 46.25 35.2939 87.374 36.873l0.75 0.0302734l0.632812 -16.4883
l-0.75 -0.0283203c-35.8857 -1.37988 -60.376 -11.3145 -74.8721 -30.375c-13.8125 -18.1592 -18.4365 -43.5898 -22.9102 -68.1826c-5.06055 -27.8281 -9.83984 -54.1104 -26.3291 -75.3008c-18.0029 -23.1348 -45.4287 -34.6191 -86.3115 -36.1426l-0.75 -0.0292969z" />
    <glyph glyph-name="uniE082" unicode="&#xe082;" 
d="M170.139 -58.498c-12.7949 0 -24.792 10.3643 -36.3926 20.3828c-11.2998 9.75879 -22.9844 19.8496 -34.7441 19.9873l-0.249023 0.00195312c-10.7871 0 -24.1328 -8.18262 -37.0371 -16.0967c-13.252 -8.12695 -25.7715 -15.8027 -36.666 -15.8027
c-9.54688 0 -16.4893 6.00195 -20.6309 17.8389c-9.27637 26.5049 5.18262 38.3682 19.1641 49.8398c10.5508 8.65625 21.4639 17.6104 24.2686 33.4531c3.19336 18.0342 -9.14746 28.2598 -21.0811 38.1484c-11.8623 9.82715 -24.124 19.9883 -15.6328 36.5791
c4.71289 9.20996 12.9492 13.8789 24.4795 13.8789c12.1143 0 25.9844 -5.02148 38.2236 -9.4541c8.69629 -3.15039 16.9121 -6.125 21.7783 -6.14551c11.3369 0.00292969 16.29 11.9697 21.5342 24.6387c5.76758 13.9385 12.3057 29.7334 29.0205 29.7334
c1.49219 0 3.05957 -0.130859 4.6582 -0.388672c23.2861 -3.76172 21.5283 -21.6465 19.9775 -37.4248c-0.979492 -9.95996 -1.99219 -20.2607 2.28613 -28.0732c2.23047 -4.07324 6.23242 -5.88965 12.9775 -5.88965c4.56445 0 9.87207 0.84668 15.0049 1.66797
c5.37402 0.857422 10.9316 1.74512 15.9932 1.74512c12.9268 0 19.8779 -6.18066 21.2529 -18.8955c2.27734 -21.0488 -17.9814 -31.0645 -35.8574 -39.9023c-14.9131 -7.37305 -28.998 -14.3369 -29.7012 -26.0938c-0.642578 -10.7295 6.52637 -20.2803 13.4609 -29.5156
c10.2432 -13.6475 21.8545 -29.1143 1.93457 -46.6787c-5.66797 -5 -11.7324 -7.53418 -18.0225 -7.53418z" />
    <glyph glyph-name="uniE083" unicode="&#xe083;" 
d="M99.417 -4.48535c0.124023 0 0.24707 0 0.37207 -0.000976562c15.4844 -0.183594 28.377 -11.3174 40.8447 -22.085c18.7354 -16.1787 27.417 -21.8428 37.9873 -12.5205c10.9775 9.67871 7.69238 15.293 -3.42285 30.0977
c-7.55957 10.0713 -16.1289 21.4863 -15.2627 35.9824c1.07031 17.877 19.0908 26.7871 34.9893 34.6465c18.623 9.20703 29.8379 15.6465 28.5645 27.4131c-0.373047 3.45898 -1.27734 5.75684 -2.68652 6.83398c-3.46289 2.64453 -12.5127 1.19922 -20.4941 -0.0742188
c-13.6602 -2.18164 -30.668 -4.89746 -38.7002 9.77246c-5.80371 10.5996 -4.59766 22.8545 -3.53418 33.666c1.76465 17.9453 1.05469 22.3203 -9.99414 24.1055c-9.82812 1.58887 -13.6064 -5.02539 -20.4873 -21.6523
c-5.67871 -13.7188 -12.7441 -30.7852 -31.1367 -30.7861h-0.123047c-6.65723 0.0283203 -15.0947 3.08398 -24.8652 6.62207c-22.7256 8.22754 -40.6113 13.5381 -46.958 1.14062c-3.64746 -7.12695 -0.826172 -10.8193 12.3213 -21.7109
c12.042 -9.97656 28.5332 -23.6416 24.3027 -47.5293c-3.43945 -19.4248 -16.7441 -30.3408 -27.4336 -39.1123c-13.4062 -11 -21.498 -17.6387 -15.0977 -35.9268c1.84668 -5.27734 4.12988 -8.42969 6.78516 -9.37695c6.75879 -2.40234 20.3281 5.91211 32.2979 13.252
c13.8271 8.47754 28.1221 17.2432 41.7314 17.2432zM168.618 -60c-4.00977 0 -8.13281 0.851562 -12.3604 2.55566c-9.31738 3.75977 -17.9727 11.2354 -26.3428 18.4639c-10.2393 8.84277 -20.8262 17.9863 -30.3193 18.0986h-0.1875
c-8.97363 0 -21.2627 -7.53613 -33.1504 -14.8252c-16.5703 -10.1611 -32.2188 -19.7598 -46.3711 -14.7197c-7.55859 2.69043 -13.1963 9.21875 -16.7627 19.4072c-10.1855 29.1055 6.64746 42.918 20.1738 54.0146c9.92871 8.14648 19.3047 15.8398 21.6875 29.2959
c2.39355 13.5186 -5.43652 21.125 -18.6201 32.0469c-11.2148 9.29492 -26.5771 22.0225 -16.4521 41.8047c13.4375 26.2559 45.7549 14.5527 67.1406 6.80664c7.6377 -2.76562 15.5371 -5.62598 19.3496 -5.64258h0.0419922c6.70996 0 10.1865 6.62402 15.9961 20.6592
c6.17969 14.9326 14.6465 35.3789 38.2559 31.5693c27.3809 -4.42383 25.1641 -26.9736 23.6973 -41.8936c-0.871094 -8.86523 -1.77344 -18.0303 1.60059 -24.1904c2.30664 -4.21387 10.1025 -3.31055 21.7285 -1.4541c11.7891 1.88477 23.9775 3.83008 33.0352 -3.08691
c5.11914 -3.91016 8.1582 -10 9.03613 -18.0986c2.59473 -24 -19.6924 -35.0176 -37.5996 -43.8721c-13.0557 -6.4541 -25.3877 -12.5508 -25.8887 -20.9297c-0.507812 -8.49023 5.57324 -16.5869 12.0078 -25.1611c10.1523 -13.5234 24.0557 -32.0439 1.15527 -52.2354
c-6.50586 -5.7373 -13.4854 -8.61328 -20.8516 -8.61328z" />
    <glyph glyph-name="uniE084" unicode="&#xe084;" 
d="M1.73145 59.3877c0 55.0146 53.002 99.6123 118.384 99.6123s118.385 -44.5977 118.385 -99.6123c0 -55.0137 -53.0029 -99.6113 -118.385 -99.6113s-118.384 44.5977 -118.384 99.6113z" />
    <glyph glyph-name="uniE085" unicode="&#xe085;" 
d="M120 148.617c-57.126 0 -103.602 -39.7529 -103.602 -88.6172s46.4756 -88.6172 103.602 -88.6172s103.602 39.7529 103.602 88.6172s-46.4756 88.6172 -103.602 88.6172zM120 -45c-66.168 0 -120 47.1025 -120 105s53.832 105 120 105s120 -47.1025 120 -105
s-53.832 -105 -120 -105z" />
    </font>
</defs>
</svg>
