<?xml version="1.0" encoding="UTF-8"?>
<!DOCTYPE svg PUBLIC "-//W3C//DTD SVG 1.1//EN" "http://www.w3.org/Graphics/SVG/1.1/DTD/svg11.dtd">
<svg version="1.1" id="Layer_1" xmlns="http://www.w3.org/2000/svg" xmlns:xlink="http://www.w3.org/1999/xlink" x="0px" y="0px" width="24px" height="24px" viewBox="0 0 24 24" enable-background="new 0 0 24 24" xml:space="preserve">
  <g id="icon">
    <path d="M23.6571,5.0286h-5.2286l-1.2023,-2.8061c-0.0502,-0.1338,-0.1781,-0.2225,-0.321,-0.2225H7.0947c-0.1429,0,-0.2708,0.0887,-0.321,0.2225L5.5714,5.0286H0.3429C0.1535,5.0286,0,5.1821,0,5.3714v16.2571c0,0.1894,0.1535,0.3429,0.3429,0.3429h23.3143c0.1894,0,0.3429,-0.1535,0.3429,-0.3429V5.3714C24,5.1821,23.8465,5.0286,23.6571,5.0286zM12,20c-3.5841,0,-6.5,-2.9159,-6.5,-6.5s2.9159,-6.5,6.5,-6.5s6.5,2.9159,6.5,6.5S15.5841,20,12,20zM22,9h-3V7h3V9z" fill="#7B7B7B"/>
    <path d="M12,8.625c-2.6881,0,-4.875,2.1869,-4.875,4.875s2.1869,4.875,4.875,4.875s4.875,-2.1869,4.875,-4.875S14.6881,8.625,12,8.625z" fill="#6485C3" opacity="0.5"/>
    <path d="M12,20c-3.5841,0,-6.5,-2.9159,-6.5,-6.5s2.9159,-6.5,6.5,-6.5s6.5,2.9159,6.5,6.5S15.5841,20,12,20zM12,8.625c-2.6881,0,-4.875,2.1869,-4.875,4.875s2.1869,4.875,4.875,4.875s4.875,-2.1869,4.875,-4.875S14.6881,8.625,12,8.625z" fill="#FFFFFF" opacity="0.5"/>
    <rect x="19" y="7" width="3" height="2" fill="#FFFFFF" opacity="0.5"/>
  </g>
</svg>
