<?xml version="1.0" encoding="UTF-8"?>
<!DOCTYPE svg PUBLIC "-//W3C//DTD SVG 1.1//EN" "http://www.w3.org/Graphics/SVG/1.1/DTD/svg11.dtd">
<svg version="1.1" id="Layer_1" xmlns="http://www.w3.org/2000/svg" xmlns:xlink="http://www.w3.org/1999/xlink" x="0px" y="0px" width="24px" height="24px" viewBox="0 0 24 24" enable-background="new 0 0 24 24" xml:space="preserve">
  <g id="icon">
    <rect x="0.8" y="11" width="8" height="12.3" fill="#FFFFFF" opacity="0.5"/>
    <path d="M10,24.1H0V10h10V24.1zM2,22h6V12H2V22z" fill="#7B7B7B"/>
    <rect x="4" y="20" width="2" height="1" fill="#6485C3"/>
    <polygon points="5.8,5 5.8,9 11,9 11,19.3 16.8,19.3 16.8,5" fill="#FFFFFF" stroke-linejoin="miter" opacity="0.5"/>
    <polygon points="5,4 5,9 7,9 7,6 16,6 16,18 11,18 11,20 18,20 18,4" fill="#7B7B7B" stroke-linejoin="miter"/>
    <rect x="11" y="16" width="2" height="1" fill="#6485C3"/>
    <polygon points="10.2,1.3 10.2,3 12,3 19,3 19,13.3 23.3,13.3 23.3,1.3" fill="#FFFFFF" stroke-linejoin="miter" opacity="0.5"/>
    <path d="M19,15h2v2h-2V15zM9,0v3h2V2h11v10h-3v2h5V0H9z" fill="#7B7B7B"/>
  </g>
</svg>
