<?xml version="1.0" encoding="UTF-8"?>
<!DOCTYPE svg PUBLIC "-//W3C//DTD SVG 1.1//EN" "http://www.w3.org/Graphics/SVG/1.1/DTD/svg11.dtd">
<svg version="1.1" id="Layer_1" xmlns="http://www.w3.org/2000/svg" xmlns:xlink="http://www.w3.org/1999/xlink" x="0px" y="0px" width="24px" height="24px" viewBox="0 0 24 24" enable-background="new 0 0 24 24" xml:space="preserve">
  <g id="icon">
    <polygon points="19.95,14.95 19.95,17.95 16.95,17.95 16.95,20.95 6.95,20.95 6.95,17.95 3.95,17.95 3.95,14.95 0.95,14.95 0.95,1.95 22.95,1.95 22.95,14.95" fill="#FFFFFF" stroke-linejoin="miter" opacity="0.5"/>
    <path d="M6,22v-3H3v-3H0V1h24v15h-3v3h-3v3H6zM16,20v-3h3v-3h3V3H2v11h3v3h3v3H16z" fill="#7B7B7B"/>
    <path d="M21,9h-1.5V5h1.5V9zM18,9h-1.5V5h1.5V9zM15,9h-1.5V5h1.5V9zM10.5,9H9V5h1.5V9zM7.5,9H6V5h1.5V9zM4.5,9H3V5h1.5V9z" fill="#EEAC55"/>
  </g>
</svg>
