<?xml version="1.0" encoding="UTF-8"?>
<!DOCTYPE svg PUBLIC "-//W3C//DTD SVG 1.1//EN" "http://www.w3.org/Graphics/SVG/1.1/DTD/svg11.dtd">
<svg version="1.1" id="Layer_1" xmlns="http://www.w3.org/2000/svg" xmlns:xlink="http://www.w3.org/1999/xlink" x="0px" y="0px" width="24px" height="24px" viewBox="0 0 24 24" enable-background="new 0 0 24 24" xml:space="preserve">
  <g id="icon">
    <path d="M8.8927,3.0893c1.0742,-1.4087,2.5238,-1.7122,3.4835,-1.3881c0.6482,0.2189,1.0892,0.6956,1.2698,1.3489C13.9264,3.0181,14.2111,3,14.5,3c0.2269,0,0.451,0.0119,0.6728,0.0317C14.9438,1.7241,14.101,0.7005,12.8562,0.28c-1.7641,-0.5955,-3.8358,0.1679,-5.1563,1.8998c-0.5459,0.7161,-1.3504,1.5408,-2.0893,1.3979C4.5369,3.3711,3.5838,1.3061,3.2353,0.053l-1.4457,0.4c0.1169,0.4232,1.2092,4.1476,3.5354,4.5973c0.1561,0.0302,0.3119,0.0452,0.4679,0.0452C6.8353,5.0954,7.876,4.4226,8.8927,3.0893z" fill="#6485C3"/>
    <path d="M13,11H7v-0.5c0,-3.9673,3.097,-7.2231,7,-7.4815V3.1v3.9875c-0.5816,0.2066,-1,0.7609,-1,1.4125V11zM16,12.5c0,0.8271,-0.6729,1.5,-1.5,1.5s-1.5,-0.6729,-1.5,-1.5v-0.5H7v4.5c0,4.1355,3.3645,7.5,7.5,7.5s7.5,-3.3645,7.5,-7.5v-4.5h-6V12.5zM15,3.0185V3.1v3.9875c0.5816,0.2066,1,0.7609,1,1.4125v2.5h6v-0.5C22,6.5327,18.903,3.2769,15,3.0185z" fill="#7B7B7B"/>
    <path d="M22,11h-6V8.5c0,-0.6516,-0.4184,-1.2059,-1,-1.4125V3.1h-1v3.9875c-0.5816,0.2066,-1,0.7609,-1,1.4125v2.5H7v1h6v0.5c0,0.8271,0.6729,1.5,1.5,1.5s1.5,-0.6729,1.5,-1.5v-0.5h6V11z" fill="#FFFFFF" opacity="0.5"/>
  </g>
</svg>
