<?xml version="1.0" encoding="UTF-8"?>
<!DOCTYPE svg PUBLIC "-//W3C//DTD SVG 1.1//EN" "http://www.w3.org/Graphics/SVG/1.1/DTD/svg11.dtd">
<svg version="1.1" id="Layer_1" xmlns="http://www.w3.org/2000/svg" xmlns:xlink="http://www.w3.org/1999/xlink" x="0px" y="0px" width="24px" height="24px" viewBox="0 0 24 24" enable-background="new 0 0 24 24" xml:space="preserve">
  <g id="icon">
    <path d="M18.3167,23H5.6833c-0.3774,0,-0.6833,-0.3059,-0.6833,-0.6833V1.6833C5,1.3059,5.3059,1,5.6833,1h12.6333c0.3774,0,0.6833,0.3059,0.6833,0.6833v20.6333C19,22.6941,18.6941,23,18.3167,23z" fill="#FFFFFF" opacity="0.5"/>
    <path d="M4,21.975V2.025C4,0.9066,4.9066,0,6.025,0h11.95C19.0934,0,20,0.9066,20,2.025v19.95c0,1.1184,-0.9066,2.025,-2.025,2.025H6.025C4.9066,24,4,23.0934,4,21.975zM6,2.025v19.95c0,0.0137,0.0112,0.025,0.025,0.025h11.95c0.0137,0,0.025,-0.0113,0.025,-0.025V2.025c0,-0.0138,-0.0113,-0.025,-0.025,-0.025H6.025C6.0112,2,6,2.0112,6,2.025z" fill="#7B7B7B"/>
    <rect x="11" y="19" width="2" height="2" fill="#6485C3"/>
    <path d="M15.3693,2l-0.1517,0.4971c-0.0727,0.2379,-0.1662,0.3653,-0.2154,0.4201L14.9277,3H9.0723l-0.0745,-0.0828c-0.0493,-0.0548,-0.1428,-0.1822,-0.2154,-0.4201L8.6307,2H7.5851l0.2409,0.7891C8.054,3.536,8.5478,4,9.1145,4h5.7711c0.5667,0,1.0604,-0.464,1.2885,-1.2109L16.4149,2H15.3693z" fill="#6485C3"/>
  </g>
</svg>
