<?xml version="1.0" encoding="UTF-8"?>
<!DOCTYPE svg PUBLIC "-//W3C//DTD SVG 1.1//EN" "http://www.w3.org/Graphics/SVG/1.1/DTD/svg11.dtd">
<svg version="1.1" id="Layer_1" xmlns="http://www.w3.org/2000/svg" xmlns:xlink="http://www.w3.org/1999/xlink" x="0px" y="0px" width="24px" height="24px" viewBox="0 0 24 24" enable-background="new 0 0 24 24" xml:space="preserve">
  <g id="icon">
    <path d="M24,23h-7v-2h7V23zM7,23H0v-2h7V23zM13,19h-2v-1.2h2V19z" fill="#7B7B7B"/>
    <path d="M16,24H8v-4h8V24z" fill="#52B250"/>
    <path d="M17.75,17.25h-12V0.75h12V17.25z" fill="#FFFFFF" opacity="0.5"/>
    <path d="M19,18H5V0h14V18zM7,16h10V7H7V16zM7,6h10V2H7V6z" fill="#7B7B7B"/>
    <path d="M16,5h-3V3h3V5z" fill="#6485C3"/>
    <circle cx="12" cy="12.5" r="1.8" fill="#6D6E71" opacity="0.5"/>
  </g>
</svg>
