<?xml version="1.0" encoding="UTF-8"?>
<!DOCTYPE svg PUBLIC "-//W3C//DTD SVG 1.1//EN" "http://www.w3.org/Graphics/SVG/1.1/DTD/svg11.dtd">
<svg version="1.1" id="Layer_1" xmlns="http://www.w3.org/2000/svg" xmlns:xlink="http://www.w3.org/1999/xlink" x="0px" y="0px" width="24px" height="24px" viewBox="0 0 24 24" enable-background="new 0 0 24 24" xml:space="preserve">
  <g id="icon">
    <path d="M18.2244,0.95H5.6756c-0.953,0,-1.7256,0.7726,-1.7256,1.7256v18.5487c0,0.953,0.7726,1.7256,1.7256,1.7256h12.5487c0.953,0,1.7256,-0.7726,1.7256,-1.7256V2.6756C19.95,1.7226,19.1774,0.95,18.2244,0.95z" fill="#FFFFFF" opacity="0.5"/>
    <path d="M3,21.2743V2.7257C3,1.2203,4.2203,0,5.7257,0h12.5486C19.7797,0,21,1.2203,21,2.7257v18.5486C21,22.7797,19.7797,24,18.2743,24H5.7257C4.2203,24,3,22.7797,3,21.2743zM5,2.7257v18.5486c0,0.4008,0.3249,0.7257,0.7257,0.7257h12.5486c0.4008,0,0.7257,-0.3249,0.7257,-0.7257V2.7257c0,-0.4008,-0.3249,-0.7257,-0.7257,-0.7257H5.7257C5.3249,2,5,2.3249,5,2.7257z" fill="#7B7B7B"/>
    <path d="M14.25,6c0,1.2427,-1.0073,2.25,-2.25,2.25S9.75,7.2427,9.75,6s1.0073,-2.25,2.25,-2.25S14.25,4.7573,14.25,6zM12,11.25c-2.4853,0,-4.5,2.0147,-4.5,4.5s2.0147,4.5,4.5,4.5s4.5,-2.0147,4.5,-4.5S14.4852,11.25,12,11.25z" fill="#6D6E71" opacity="0.15"/>
    <path d="M12,20.9c-2.8397,0,-5.15,-2.3103,-5.15,-5.15S9.1603,10.6,12,10.6s5.15,2.3103,5.15,5.15S14.8397,20.9,12,20.9zM12,11.9c-2.1229,0,-3.85,1.7271,-3.85,3.85S9.8771,19.6,12,19.6s3.85,-1.7271,3.85,-3.85S14.1229,11.9,12,11.9zM12,8.9c-1.5991,0,-2.9,-1.3009,-2.9,-2.9s1.3009,-2.9,2.9,-2.9s2.9,1.3009,2.9,2.9S13.5991,8.9,12,8.9zM12,4.4c-0.8822,0,-1.6,0.7178,-1.6,1.6s0.7178,1.6,1.6,1.6s1.6,-0.7178,1.6,-1.6S12.8822,4.4,12,4.4z" fill="#7B7B7B"/>
    <path d="M12,14.7c-0.579,0,-1.05,0.471,-1.05,1.05S11.421,16.8,12,16.8s1.05,-0.471,1.05,-1.05S12.579,14.7,12,14.7z" fill="#7B7B7B"/>
  </g>
</svg>
