<?xml version="1.0" encoding="UTF-8"?>
<!DOCTYPE svg PUBLIC "-//W3C//DTD SVG 1.1//EN" "http://www.w3.org/Graphics/SVG/1.1/DTD/svg11.dtd">
<svg version="1.1" id="Layer_1" xmlns="http://www.w3.org/2000/svg" xmlns:xlink="http://www.w3.org/1999/xlink" x="0px" y="0px" width="24px" height="24px" viewBox="0 0 24 24" enable-background="new 0 0 24 24" xml:space="preserve">
  <g id="icon">
    <path d="M20.7813,16.4289l0.0652,-0.0893c1.1206,-1.5354,1.6887,-3.1734,1.6887,-4.8685c0,-1.6969,-0.5693,-3.3475,-1.6922,-4.9059l-0.0646,-0.0896l1.1595,-0.8456l0.0649,0.0901c1.285,1.7834,1.9644,3.7717,1.9646,5.7499c0,1.9807,-0.68,3.9593,-1.9664,5.7218l-0.0655,0.0897L20.7813,16.4289zM17.9952,14.4979l0.0675,-0.0875c0.7226,-0.9361,1.0889,-1.9336,1.0889,-2.9647c0,-1.0502,-0.3794,-2.0722,-1.1276,-3.0375l-0.0677,-0.0874l1.1293,-0.8858l0.0681,0.0877c0.9356,1.2072,1.4301,2.564,1.4301,3.9235c0,1.3391,-0.4805,2.6695,-1.3895,3.8474l-0.0679,0.0879L17.9952,14.4979z" fill="#6485C3"/>
    <rect x="0.75" y="1.75" width="15" height="19.05" fill="#FFFFFF" opacity="0.5"/>
    <path d="M13,7h-3V5h3V7zM13,13h-3v-2h3V13zM13,19h-3v-2h3V19z" fill="#6485C3"/>
    <path d="M17,22V1H0v21H17zM2,3h13v5H2V3zM2,9h13v5H2V9zM2,15h13v5H2V15z" fill="#7B7B7B"/>
  </g>
</svg>
