<?xml version="1.0" encoding="UTF-8"?>
<!DOCTYPE svg PUBLIC "-//W3C//DTD SVG 1.1//EN" "http://www.w3.org/Graphics/SVG/1.1/DTD/svg11.dtd">
<svg version="1.1" id="Layer_1" xmlns="http://www.w3.org/2000/svg" xmlns:xlink="http://www.w3.org/1999/xlink" x="0px" y="0px" width="24px" height="24px" viewBox="0 0 24 24" enable-background="new 0 0 24 24" xml:space="preserve">
  <g id="icon">
    <path d="M24,23h-7v-2h7V23zM7,23H0v-2h7V23zM13,17h-2v-2.2h2V17z" fill="#7B7B7B"/>
    <path d="M18.75,14.25h-14V0.75h14V14.25zM4.75,5.25h14M4.75,9.75h14" fill="#FFFFFF" opacity="0.5"/>
    <path d="M20,15H4V0h16V15zM6,13h12v-3H6V13zM6,9h12V6H6V9zM6,5h12V2H6V5z" fill="#7B7B7B"/>
    <path d="M17,4.5h-3V2.5h3V4.5zM17,8.5h-3V6.5h3V8.5zM17,12.5h-3v-2h3V12.5z" fill="#6485C3"/>
    <polygon points="11.9684,21.5628 9.5679,23.9632 8.3368,22.7321 10.7372,20.3316 8.3368,17.9312 9.5679,16.7 11.9684,19.1005 14.3688,16.7 15.6,17.9312 13.1995,20.3316 15.6,22.7321 14.3688,23.9632" fill="#CB525D" stroke-linejoin="miter"/>
  </g>
</svg>
