<?xml version="1.0" encoding="UTF-8"?>
<!DOCTYPE svg PUBLIC "-//W3C//DTD SVG 1.1//EN" "http://www.w3.org/Graphics/SVG/1.1/DTD/svg11.dtd">
<svg version="1.1" id="Layer_1" xmlns="http://www.w3.org/2000/svg" xmlns:xlink="http://www.w3.org/1999/xlink" x="0px" y="0px" width="24px" height="24px" viewBox="0 0 24 24" enable-background="new 0 0 24 24" xml:space="preserve">
  <g id="icon">
    <path d="M11.9656,0C6.3513,0,1.8,4.5707,1.8,10.2089s4.5513,10.2089,10.1656,10.2089s10.1656,-4.5707,10.1656,-10.2089S17.5799,0,11.9656,0zM11.9723,0.9429c0.567,0,1.0267,0.4626,1.0267,1.0333c0,0.5707,-0.4597,1.0333,-1.0267,1.0333c-0.567,0,-1.0267,-0.4626,-1.0267,-1.0333C10.9457,1.4056,11.4053,0.9429,11.9723,0.9429zM11.9403,16.4731c-3.4355,0,-6.2305,-2.8128,-6.2305,-6.2703c0,-3.4574,2.795,-6.2702,6.2305,-6.2702s6.2305,2.8128,6.2305,6.2702C18.1708,13.6602,15.3758,16.4731,11.9403,16.4731z" fill="#7B7B7B"/>
    <path d="M18.5292,19.5149c-1.8552,1.324,-4.1196,2.1058,-6.5636,2.1058c-2.4302,0,-4.6827,-0.7729,-6.532,-2.0832c-1.4219,1.0801,-2.3629,2.406,-2.3629,3.4033c0,2.1523,3.7791,0.3583,8.9615,0.3583c5.1824,0,8.8283,1.7939,8.8283,-0.3584C20.8605,21.9367,19.9355,20.5985,18.5292,19.5149z" fill="#7B7B7B"/>
    <ellipse cx="11.9723" cy="1.9762" rx="1.0267" ry="1.0333" fill="#CB525D" opacity="0.3"/>
    <path d="M11.9403,5.5055c-2.5732,0,-4.6665,2.1071,-4.6665,4.6972c0,2.5901,2.0934,4.6973,4.6665,4.6973s4.6665,-2.1072,4.6665,-4.6973C16.6068,7.6127,14.5135,5.5055,11.9403,5.5055zM12.0269,8.6534c-0.8605,0,-1.5606,0.7049,-1.5606,1.5712c0,0.4343,-0.3501,0.7865,-0.782,0.7865s-0.782,-0.3522,-0.782,-0.7865c0,-1.7337,1.4017,-3.1442,3.1245,-3.1442c0.4318,0,0.782,0.3522,0.782,0.7865S12.4587,8.6534,12.0269,8.6534z" fill="#6485C3" opacity="0.5"/>
    <path d="M11.9403,16.4731c-3.4355,0,-6.2305,-2.8128,-6.2305,-6.2703c0,-3.4574,2.795,-6.2702,6.2305,-6.2702s6.2305,2.8128,6.2305,6.2702C18.1708,13.6602,15.3758,16.4731,11.9403,16.4731zM11.9403,5.5055c-2.5732,0,-4.6665,2.1071,-4.6665,4.6972s2.0934,4.6973,4.6665,4.6973s4.6665,-2.1072,4.6665,-4.6973S14.5135,5.5055,11.9403,5.5055z" fill="#FFFFFF" opacity="0.5"/>
    <path d="M9.6844,11.0111c-0.4318,0,-0.782,-0.3522,-0.782,-0.7865c0,-1.7337,1.4017,-3.1442,3.1245,-3.1442c0.4318,0,0.782,0.3522,0.782,0.7865c0,0.4343,-0.3501,0.7865,-0.782,0.7865c-0.8605,0,-1.5606,0.7049,-1.5606,1.5712C10.4663,10.6589,10.1162,11.0111,9.6844,11.0111z" fill="#FFFFFF" opacity="0.5"/>
  </g>
</svg>
