<?xml version="1.0" encoding="UTF-8"?>
<!DOCTYPE svg PUBLIC "-//W3C//DTD SVG 1.1//EN" "http://www.w3.org/Graphics/SVG/1.1/DTD/svg11.dtd">
<svg version="1.1" id="Layer_1" xmlns="http://www.w3.org/2000/svg" xmlns:xlink="http://www.w3.org/1999/xlink" x="0px" y="0px" width="16px" height="16px" viewBox="0 0 16 16" enable-background="new 0 0 16 16" xml:space="preserve">
  <g id="icon">
    <rect x="0.555" y="3.8" width="11.945" height="11.8" fill="#FFFFFF"/>
    <ellipse cx="9.489" cy="6.511" rx="1.093" ry="1.089" fill="#F7DA8E" stroke="#E57428" stroke-width="1" stroke-linecap="round" stroke-miterlimit="5"/>
    <path d="M0.509,11.564l2.456,-2.449L9.569,15.7H0.509C0.509,15.7,0.489,11.585,0.509,11.564z" fill="#92CBEE"/>
    <polygon points="6.336,12.328 8.358,10.311 12.445,14.262 12.445,15.62 9.555,15.62" fill="#92CBEE" stroke-linejoin="miter"/>
    <path d="M0.509,11.538l2.456,-2.449l6.604,6.584M12.5,14.357l-4.128,-4.115l-2.043,2.037" fill="none" stroke="#0964B0" stroke-width="1" stroke-miterlimit="5"/>
    <rect x="0.5" y="3.5" width="12" height="12" fill="none" stroke="#383838" stroke-width="1" stroke-miterlimit="5"/>
    <polygon points="3.555,0.8 3.555,2 14,2 14,12.6 15.5,12.6 15.5,0.8" fill="#FFFFFF" stroke-linejoin="miter"/>
    <polygon points="14,9.865 14,12.62 15.445,12.62 15.445,11.262" fill="#92CBEE" stroke-linejoin="miter"/>
    <polygon points="14,9.155 14,10.567 15.147,11.711 15.853,11.003" fill="#0964B0" stroke-linejoin="miter"/>
    <polygon points="3,0 3,2 4,2 4,1 15,1 15,12 14,12 14,13 16,13 16,0" fill="#383838" stroke-linejoin="miter"/>
  </g>
</svg>
