<?xml version="1.0" encoding="UTF-8"?>
<!DOCTYPE svg PUBLIC "-//W3C//DTD SVG 1.1//EN" "http://www.w3.org/Graphics/SVG/1.1/DTD/svg11.dtd">
<svg version="1.1" id="Layer_1" xmlns="http://www.w3.org/2000/svg" xmlns:xlink="http://www.w3.org/1999/xlink" x="0px" y="0px" width="16px" height="16px" viewBox="0 0 16 16" enable-background="new 0 0 16 16" xml:space="preserve">
  <g id="icon">
    <path d="M11.555,4.074c0,0,-3.007,0.145,-4.074,0.193c-0.66,0.03,-1.018,-0.532,-0.436,-1.113c0.447,-0.445,0.61,-0.571,0.533,-1.402C7.491,0.801,6.537,0.491,5.753,0.5c-0.82,0.01,-1.717,0.442,-1.981,1.227c-0.174,0.515,-0.169,1.034,0.281,1.364c0.245,0.181,0.788,0.447,0.179,0.934c-0.329,0.263,-3.637,-0.049,-3.637,-0.049S0.45,6.545,0.554,7.352c0.059,0.464,0.635,0.681,1.012,0.179c0.582,-0.773,2.36,-0.003,2.441,1.515c0.086,1.593,-1.787,2.08,-2.151,1.459c-0.339,-0.581,-1.309,-0.725,-1.351,0.015c-0.065,1.153,0.476,4.58,0.476,4.58s2.174,0.513,3.155,0.355c0.455,-0.074,0.664,-0.858,0.242,-1.226c-0.388,-0.338,-0.372,-2.315,1.605,-2.205c1.977,0.11,1.708,1.736,1.305,1.988c-0.388,0.242,-0.394,1.212,0.413,1.426c1.103,0.294,3.868,-0.575,3.868,-0.575s-0.272,-2.707,-0.124,-3.584c0.158,-0.939,1.238,-0.373,1.373,-0.193c0.873,1.161,2.684,0.526,2.684,-1.422c0,-2.837,-2.585,-2.355,-2.829,-1.673c-0.269,0.751,-1.159,0.558,-1.256,0.097C11.188,7.011,11.555,4.074,11.555,4.074z" fill="#FFFFFF" stroke="#383838" stroke-width="1" stroke-miterlimit="5"/>
  </g>
</svg>
