<?xml version="1.0" encoding="UTF-8"?>
<!DOCTYPE svg PUBLIC "-//W3C//DTD SVG 1.1//EN" "http://www.w3.org/Graphics/SVG/1.1/DTD/svg11.dtd">
<svg version="1.1" id="Layer_1" xmlns="http://www.w3.org/2000/svg" xmlns:xlink="http://www.w3.org/1999/xlink" x="0px" y="0px" width="16px" height="16px" viewBox="0 0 16 16" enable-background="new 0 0 16 16" xml:space="preserve">
  <g id="icon">
    <circle cx="8" cy="8" r="7.5" fill="#FFFFFF" stroke="#228BCB" stroke-width="1" stroke-miterlimit="5"/>
    <g>
      <g>
        <path d="M12.99,5.498c-0.292,0.123,-0.602,0.21,-0.926,0.257c-0.023,0.003,-0.035,-0.027,-0.015,-0.04c0.337,-0.226,0.598,-0.557,0.736,-0.946c0.007,-0.019,-0.014,-0.036,-0.032,-0.026c-0.355,0.203,-0.746,0.351,-1.16,0.433c-0.348,-0.371,-0.843,-0.602,-1.392,-0.602c-1.053,0,-1.907,0.854,-1.907,1.906c0,0.149,0.017,0.295,0.049,0.434c-1.584,-0.08,-2.989,-0.839,-3.93,-1.992c-0.164,0.282,-0.258,0.609,-0.258,0.958c0,0.662,0.337,1.245,0.848,1.587c-0.312,-0.01,-0.606,-0.096,-0.864,-0.239c0,0.008,0,0.016,0,0.024c0,0.924,0.658,1.694,1.529,1.87c-0.16,0.044,-0.328,0.067,-0.502,0.067c-0.123,0,-0.242,-0.012,-0.359,-0.034c0.243,0.757,0.947,1.309,1.781,1.324c-0.652,0.511,-1.475,0.816,-2.368,0.816c-0.113,0,-0.225,-0.005,-0.336,-0.015c-0.029,-0.003,-0.042,0.036,-0.017,0.052c0.822,0.502,1.787,0.793,2.821,0.793c3.507,0,5.425,-2.905,5.425,-5.425c0,-0.082,-0.002,-0.165,-0.006,-0.247c0.353,-0.253,0.661,-0.567,0.91,-0.923C13.029,5.512,13.01,5.489,12.99,5.498z" fill="#FFFFFF"/>
      </g>
      <g>
        <path d="M12.99,5.498c-0.292,0.123,-0.602,0.21,-0.926,0.257c-0.023,0.003,-0.035,-0.027,-0.015,-0.04c0.337,-0.226,0.598,-0.557,0.736,-0.946c0.007,-0.019,-0.014,-0.036,-0.032,-0.026c-0.355,0.203,-0.746,0.351,-1.16,0.433c-0.348,-0.371,-0.843,-0.602,-1.392,-0.602c-1.053,0,-1.907,0.854,-1.907,1.906c0,0.149,0.017,0.295,0.049,0.434c-1.584,-0.08,-2.989,-0.839,-3.93,-1.992c-0.164,0.282,-0.258,0.609,-0.258,0.958c0,0.662,0.337,1.245,0.848,1.587c-0.312,-0.01,-0.606,-0.096,-0.864,-0.239c0,0.008,0,0.016,0,0.024c0,0.924,0.658,1.694,1.529,1.87c-0.16,0.044,-0.328,0.067,-0.502,0.067c-0.123,0,-0.242,-0.012,-0.359,-0.034c0.243,0.757,0.947,1.309,1.781,1.324c-0.652,0.511,-1.475,0.816,-2.368,0.816c-0.113,0,-0.225,-0.005,-0.336,-0.015c-0.029,-0.003,-0.042,0.036,-0.017,0.052c0.822,0.502,1.787,0.793,2.821,0.793c3.507,0,5.425,-2.905,5.425,-5.425c0,-0.082,-0.002,-0.165,-0.006,-0.247c0.353,-0.253,0.661,-0.567,0.91,-0.923C13.029,5.512,13.01,5.489,12.99,5.498z" fill="none" stroke="#808184" stroke-width="0.1069" stroke-linecap="round" stroke-miterlimit="5" stroke-linejoin="round"/>
      </g>
      <g>
        <path d="M12.99,5.498c-0.292,0.123,-0.602,0.21,-0.926,0.257c-0.023,0.003,-0.035,-0.027,-0.015,-0.04c0.337,-0.226,0.598,-0.557,0.736,-0.946c0.007,-0.019,-0.014,-0.036,-0.032,-0.026c-0.355,0.203,-0.746,0.351,-1.16,0.433c-0.348,-0.371,-0.843,-0.602,-1.392,-0.602c-1.053,0,-1.907,0.854,-1.907,1.906c0,0.149,0.017,0.295,0.049,0.434c-1.584,-0.08,-2.989,-0.839,-3.93,-1.992c-0.164,0.282,-0.258,0.609,-0.258,0.958c0,0.662,0.337,1.245,0.848,1.587c-0.312,-0.01,-0.606,-0.096,-0.864,-0.239c0,0.008,0,0.016,0,0.024c0,0.924,0.658,1.694,1.529,1.87c-0.16,0.044,-0.328,0.067,-0.502,0.067c-0.123,0,-0.242,-0.012,-0.359,-0.034c0.243,0.757,0.947,1.309,1.781,1.324c-0.652,0.511,-1.475,0.816,-2.368,0.816c-0.113,0,-0.225,-0.005,-0.336,-0.015c-0.029,-0.003,-0.042,0.036,-0.017,0.052c0.822,0.502,1.787,0.793,2.821,0.793c3.507,0,5.425,-2.905,5.425,-5.425c0,-0.082,-0.002,-0.165,-0.006,-0.247c0.353,-0.253,0.661,-0.567,0.91,-0.923C13.029,5.512,13.01,5.489,12.99,5.498z" fill="none" stroke="#228BCB" stroke-width="1" stroke-miterlimit="5"/>
      </g>
    </g>
  </g>
</svg>
