<?xml version="1.0" standalone="no"?>
<!DOCTYPE svg PUBLIC "-//W3C//DTD SVG 1.1//EN" "http://www.w3.org/Graphics/SVG/1.1/DTD/svg11.dtd" >
<!--
2022-1-20: Created with FontForge (http://fontforge.org)
-->
<svg xmlns="http://www.w3.org/2000/svg" xmlns:xlink="http://www.w3.org/1999/xlink" version="1.1">
<metadata>
Created by FontForge 20201107 at Thu Jan 20 15:12:55 2022
 By Marc
Copyright (c) 2022, Marc
</metadata>
<defs>
<font id="Icons-Regular" horiz-adv-x="240" >
  <font-face 
    font-family="Icons"
    font-weight="400"
    font-stretch="normal"
    units-per-em="240"
    panose-1="2 0 5 9 0 0 0 0 0 0"
    ascent="180"
    descent="-60"
    bbox="-0.610352 -60.6074 240.61 181.55"
    underline-thickness="50"
    underline-position="-100"
    unicode-range="U+E000-E0FE"
  />
    <missing-glyph />
    <glyph glyph-name="uniE000" unicode="&#xe000;" 
d="M185.991 -11.7402c0.0654297 -0.833984 -0.214844 -1.63379 -0.791992 -2.25488c-0.59082 -0.637695 -1.43848 -1.00293 -2.32324 -1.00293h-61.7139h-14.2852h-61.7529c-0.884766 0 -1.73242 0.365234 -2.32324 1.00293
c-0.576172 0.621094 -0.856445 1.42188 -0.791992 2.25488l0.299805 3.81445c1.07617 13.6074 7.80078 38.3906 40.7754 51.4766l5.71582 1.74902l3.89746 -9.5957c2.60254 -10.0723 8.80371 -24.666 8.86621 -24.8115c6.9375 -16.2793 11.1777 -19.8291 12.4844 -20.625
c1.30664 0.825195 5.55762 4.49707 12.5371 21.0361c0.0566406 0.135742 5.82617 13.8828 8.60254 23.8955l4.0127 10.1006l5.6709 -1.7334c33.0186 -13.1025 39.7432 -37.8857 40.8184 -51.4922zM91.626 97.4941c-0.364258 -2.00098 -0.548828 -4.1084 -0.548828 -6.29395
c0 -16.541 11.1152 -37.8809 22.9209 -37.8809c11.8066 0 22.9238 21.3398 22.9238 37.8809c0 2.78809 -0.300781 5.45215 -0.891602 7.92871c-1.70215 0.739258 -3.84766 1.11328 -6.38574 1.11328c-5.31445 0 -8.24805 -1.27246 -11.3516 -2.61914
c-3.37207 -1.46289 -6.85645 -2.97461 -13.2451 -2.97461c-6.08398 0 -10.5117 0.93457 -13.4219 2.8457zM114 39.2998c-10.0947 0 -19.6123 6.31934 -26.7988 17.7959c-6.1377 9.7998 -9.80078 22.5479 -9.80078 34.1045c0 11.8584 3.71777 21.8877 10.75 29.0049
c6.5625 6.6377 15.7422 10.2949 25.8496 10.2949s19.2871 -3.65723 25.8496 -10.2949c7.03223 -7.11523 10.75 -17.1465 10.75 -29.0049c0 -11.5566 -3.66309 -24.3047 -9.79883 -34.1025c-7.18945 -11.4766 -16.707 -17.7979 -26.8008 -17.7979zM108.565 27.7559
c-2.1416 2.23828 -3.43457 2.9668 -3.43457 5.17383c0.28125 4.77148 1.04395 3.84766 8.85254 3.84766c7.80957 0 8.69531 0.923828 8.41406 -3.83887c0.0712891 -2.16016 -0.213867 -3.07031 -3.05273 -5.19141c-0.0644531 -3.52344 1.00293 -11.2695 2.14355 -18.4424
c-1.50977 -2.97754 -3.14258 -5.92773 -4.96973 -8.80859c-0.313477 -0.515625 -0.604492 -1 -0.875977 -1.45508c-0.676758 -1.12891 -1.41602 -2.36523 -1.99609 -3.11816c-0.581055 0.75293 -1.32031 1.9873 -1.99512 3.11719
c-0.271484 0.454102 -0.5625 0.94043 -0.897461 1.48926c-1.63965 2.58301 -3.0752 5.21582 -4.38184 7.86621c1.00684 7.37891 2.04199 15.6299 2.19336 19.3604zM30 -45h165v210h-165v-210zM210 -60h-195v240h195v-15h22.5v-45h-22.5v-15h22.5v-45h-22.5v-15h22.5v-45
h-22.5v-60z" />
    <glyph glyph-name="uniE001" unicode="&#xe001;" 
d="M112.386 54.7061c12.6123 0 22.8359 10.2061 22.8359 22.7959s-10.2236 22.7959 -22.8359 22.7959c-12.6113 0 -22.8359 -10.2061 -22.8359 -22.7959s10.2246 -22.7959 22.8359 -22.7959zM112.386 133.411c30.9316 0 56.0068 -24.9463 56.0068 -55.7188
c0 -11.8037 -3.68945 -22.75 -9.98535 -31.7607c-10.1143 -14.4785 -46.0215 -60.9316 -46.0215 -60.9316s-35.6699 46.3213 -45.8086 60.6289c-6.42383 9.06738 -10.1982 20.1279 -10.1982 32.0654c0 30.7725 25.0752 55.7168 56.0068 55.7168zM30 -45h165v210h-165v-210z
M210 -60h-195v240h195v-15h22.5v-45h-22.5v-15h22.5v-45h-22.5v-15h22.5v-45h-22.5v-60z" />
    <glyph glyph-name="uniE002" unicode="&#xe002;" 
d="M223.494 180.067c21.502 -27.6748 22.0244 -61.291 1.39648 -89.9268l-12.1953 8.75293c16.7744 23.2842 16.3848 49.5205 -1.07129 71.9863zM186.372 155.79l11.6143 9.50391c15.6426 -19.0469 15.875 -42.1592 0.623047 -61.8252l-11.876 9.17676
c10.8242 13.957 10.6924 29.6836 -0.361328 43.1445zM120.129 164.877c12.4219 0 22.5283 -10.0879 22.5283 -22.4883s-10.1055 -22.4873 -22.5283 -22.4873c-12.4219 0 -22.5283 10.0869 -22.5283 22.4873s10.1055 22.4883 22.5283 22.4883zM16.5049 180.067
l11.8691 -9.18555c-17.4551 -22.4658 -17.8457 -48.7041 -1.06934 -71.9854l-12.1953 -8.75391c-20.6289 28.6338 -20.1074 62.25 1.39551 89.9248zM42.0117 165.296l11.6162 -9.50488c-11.0547 -13.4609 -11.1855 -29.1846 -0.361328 -43.1436l-11.876 -9.17773
c-15.252 19.667 -15.0195 42.7783 0.621094 61.8262zM193.056 4.41016c0.0439453 4.15625 0.0859375 8.08203 -2.60547 10.6426c-1.74902 1.66504 -4.38086 2.47461 -8.04883 2.47461c-10.1641 0 -28.3574 -8.8125 -28.3574 -17.4824
c0 -7.46289 7.60059 -12.0977 19.835 -12.0977c10.5674 0 19.165 6.63477 19.165 14.79c0 0.567383 0.0117188 1.125 0.0117188 1.67285zM65.9238 -12.0508c12.2334 0 19.834 4.63672 19.8359 12.0977c0 8.6709 -18.1934 17.4824 -28.3574 17.4824
c-3.66797 0 -6.30176 -0.810547 -8.0498 -2.47559c-2.69043 -2.56348 -2.65039 -6.4873 -2.60645 -10.6436c0.00585938 -0.545898 0.0117188 -1.10449 0.0117188 -1.6709c0 -8.15527 8.59668 -14.79 19.166 -14.79zM224.496 45.0195
c1.23242 -3.56445 0.800781 -8.37305 -8.25195 -11.0488c-1.82031 -0.539062 -3.66895 -1.03809 -5.41602 -1.49707c0.453125 -0.875 4.30371 -6.94043 6.2334 -12.2832c3.53711 -9.79199 2.75488 -26.3564 -0.267578 -37.2949
c-2.38867 -8.63965 -4.3584 -10.9062 -13.1641 -11.5879c-4.56152 -0.352539 -37.3457 -3.30664 -82.7822 -3.30664h-1.64453c-45.4365 0 -78.2197 2.9541 -82.7812 3.30664c-8.80664 0.681641 -11.1338 2.87891 -13.1641 11.5879
c-1.9043 8.16406 -3.64648 20.876 -0.268555 37.2949c1.13379 5.51172 5.78027 11.4082 6.2334 12.2832c-1.74902 0.458984 -3.59473 0.958008 -5.41602 1.49707c-9.05762 2.67578 -9.4873 7.48438 -8.25488 11.0488c1.3291 3.8418 4.74023 10.4023 9.12305 10.4023
c1.58398 0 3.2998 -0.298828 5.10059 -0.884766c19.4736 -6.35156 40.3105 -6.87207 60.4619 -7.37695c6.68945 -0.167969 20.9473 -0.249023 29.2109 -0.249023h1.15137c8.26367 0 22.5215 0.0810547 29.2109 0.249023c20.1514 0.504883 40.9893 1.02734 60.4629 7.37695
c1.80078 0.587891 3.51562 0.884766 5.09961 0.884766c4.38184 0 7.79395 -6.56055 9.12305 -10.4023zM90.5254 59.9238c-15.8955 0.46582 -32.2344 0.955078 -47.4873 4.91504c9.6748 39.8848 7.91211 45.1641 76.8633 45.1641
c68.8857 0 67.7646 -5.26367 77.5195 -45.0518c-15.3721 -4.06055 -31.8604 -4.55664 -47.9014 -5.02734c-6.73438 -0.197266 -20.9668 -0.287109 -28.9199 -0.287109h-1.15332c-7.95312 0 -22.1836 0.0888672 -28.9209 0.287109zM39.9854 -38.4814
c9.33203 -0.787109 18.4502 -1.39746 27.1738 -1.86719v-10.4199c0 -5.09863 -4.58984 -9.23145 -10.252 -9.23145h-14.4463c-5.66309 0 -10.2529 4.13281 -10.2529 9.23145v13.4141c1.9248 -0.484375 4.07812 -0.826172 6.49805 -1.01953zM208.653 -37.3818v-13.3867
c0 -5.09863 -4.58984 -9.23145 -10.2529 -9.23145h-14.4463c-5.66309 0 -10.2529 4.13281 -10.2529 9.23145v10.4062c8.7998 0.47168 18 1.08496 27.4189 1.87988l1.2793 0.106445c2.33398 0.1875 4.39062 0.53125 6.25391 0.994141z" />
    <glyph glyph-name="uniE003" unicode="&#xe003;" 
d="M153.509 -3.22949l6.20801 -2.95801c0.322266 -0.22168 0.302734 -0.53418 -0.0537109 -0.741211c-9.76465 -5.66504 -23.9404 -9.23535 -39.7275 -9.23535c-15.7559 0 -29.9072 3.55664 -39.6709 9.20215c-0.356445 0.206055 -0.375977 0.519531 -0.0546875 0.741211
l6.19434 2.96387c0.445312 0.307617 1.33105 0.306641 1.77148 -0.00292969c6.47852 -4.54199 20.0449 -6.61035 31.7607 -6.61035c11.7393 0 25.3252 2.07715 31.8008 6.63574c0.44043 0.310547 1.32422 0.3125 1.77148 0.00488281zM172.2 -14.791l9.17578 -6.32324
c0.342773 -0.235352 0.294922 -0.571289 -0.117188 -0.775391c-15.9512 -7.90137 -37.5439 -13.6338 -61.3203 -13.6338c-23.7314 0 -45.2861 5.71289 -61.2285 13.5879c-0.412109 0.202148 -0.460938 0.538086 -0.118164 0.775391l9.15918 6.32812
c0.407227 0.282227 1.19629 0.305664 1.6748 0.0556641c12.8867 -6.75781 30.7578 -10.9443 50.5107 -10.9443c19.791 0 37.6943 4.20312 50.5869 10.9834c0.478516 0.251953 1.2666 0.227539 1.67676 -0.0537109zM209.772 -40.1475
c0.350586 -0.241211 0.291016 -0.586914 -0.142578 -0.789062c-21.8828 -10.2148 -57.9619 -19.0635 -89.6934 -19.0635c-31.6689 0 -67.6992 8.82422 -89.5664 19.0049c-0.433594 0.202148 -0.494141 0.545898 -0.143555 0.789062l16.002 10.5059
c0.394531 0.273438 1.14941 0.307617 1.63379 0.0771484c18.9834 -9.04883 44.2871 -14.5742 72.0762 -14.5742c27.8428 0 53.1904 5.54492 72.1875 14.626c0.483398 0.231445 1.2373 0.198242 1.63379 -0.0751953zM195.137 68.1992
c0.0449219 4.39941 0.0869141 8.55566 -2.68262 11.2695c-1.79785 1.76367 -4.50684 2.62012 -8.2793 2.62012c-10.457 0 -29.1738 -9.33008 -29.1738 -18.5098c0 -7.90039 7.81934 -12.8086 20.4062 -12.8086c10.8721 0 19.7168 7.02441 19.7168 15.6582
c0 0.600586 0.0126953 1.19141 0.0126953 1.77051zM64.3428 50.7686c12.5859 0 20.4053 4.9082 20.4053 12.8086c0 9.18066 -18.7148 18.5107 -29.1729 18.5107c-3.77246 0 -6.48145 -0.858398 -8.28027 -2.62109c-2.76855 -2.71289 -2.72656 -6.87012 -2.68164 -11.2695
c0.00585938 -0.579102 0.0117188 -1.16992 0.0117188 -1.76953c0 -8.63379 8.8457 -15.6592 19.7178 -15.6592zM227.481 111.195c1.26855 -3.77441 0.824219 -8.86523 -8.49219 -11.6992c-1.87305 -0.569336 -3.77344 -1.09863 -5.57227 -1.58496
c0.466797 -0.926758 4.42773 -7.35059 6.41406 -13.0068c3.63867 -10.3682 2.83301 -27.9062 -0.276367 -39.4873c-2.45703 -9.14746 -4.4834 -11.5469 -13.543 -12.2686c-4.69238 -0.373047 -38.4209 -3.50098 -85.166 -3.50098h-1.69043
c-46.7441 0 -80.4736 3.12793 -85.165 3.50098c-9.06152 0.72168 -11.4561 3.04785 -13.5439 12.2686c-1.95898 8.64453 -3.75098 22.1025 -0.275391 39.4873c1.16699 5.83789 5.94727 12.0801 6.41406 13.0068c-1.79883 0.487305 -3.69922 1.01562 -5.57324 1.58496
c-9.31738 2.83398 -9.76172 7.92676 -8.49316 11.6992c1.36816 4.06641 4.87695 11.0146 9.38574 11.0146c1.63086 0 3.39453 -0.317383 5.24707 -0.9375c20.0352 -6.72363 41.4717 -7.27734 62.2041 -7.81055c6.88184 -0.178711 21.5518 -0.264648 30.0518 -0.264648
h1.18555c8.5 0 23.1699 0.0869141 30.0518 0.264648c20.7324 0.535156 42.1699 1.08691 62.2041 7.81055c1.85254 0.62207 3.61816 0.9375 5.24707 0.9375c4.50684 0 8.01758 -6.94824 9.38574 -11.0146zM89.6533 126.977
c-16.3525 0.493164 -33.1621 1.01074 -48.8545 5.20312c9.9541 42.2314 8.13867 47.8203 79.0752 47.8203c70.8701 0 69.7168 -5.57422 79.752 -47.7002c-15.8145 -4.29883 -32.7764 -4.82422 -49.2793 -5.32324c-6.93066 -0.209961 -21.5703 -0.304688 -29.7529 -0.304688
h-1.18457c-8.18457 0 -22.8242 0.0947266 -29.7559 0.304688zM37.6572 22.7852c9.60059 -0.833984 18.9814 -1.48047 27.957 -1.97852v-11.0322c0 -5.39844 -4.72363 -9.77441 -10.5479 -9.77441h-14.8623c-5.8252 0 -10.5479 4.37598 -10.5479 9.77441v14.2031
c1.97852 -0.512695 4.19531 -0.875977 6.68457 -1.08008zM211.184 23.9492v-14.1748c0 -5.39844 -4.72168 -9.77441 -10.5479 -9.77441h-14.8623c-5.82617 0 -10.5479 4.37598 -10.5479 9.77441v11.0186c9.05273 0.5 18.5186 1.14941 28.209 1.99023l1.31543 0.113281
c2.40039 0.197266 4.51465 0.5625 6.43359 1.05273z" />
    <glyph glyph-name="uniE004" unicode="&#xe004;" 
d="M153.509 -3.22949l6.20801 -2.95801c0.322266 -0.22168 0.302734 -0.53418 -0.0537109 -0.741211c-9.76465 -5.66504 -23.9404 -9.23535 -39.7275 -9.23535c-15.7559 0 -29.9072 3.55664 -39.6709 9.20215c-0.356445 0.206055 -0.375977 0.519531 -0.0546875 0.741211
l6.19434 2.96387c0.445312 0.307617 1.33105 0.306641 1.77148 -0.00292969c6.47852 -4.54199 20.0449 -6.61035 31.7607 -6.61035c11.7393 0 25.3252 2.07715 31.8008 6.63574c0.44043 0.310547 1.32422 0.3125 1.77148 0.00488281zM172.2 -14.791l9.17578 -6.32324
c0.342773 -0.235352 0.294922 -0.571289 -0.117188 -0.775391c-15.9512 -7.90137 -37.5439 -13.6338 -61.3203 -13.6338c-23.7314 0 -45.2861 5.71289 -61.2285 13.5879c-0.412109 0.202148 -0.460938 0.538086 -0.118164 0.775391l9.15918 6.32812
c0.407227 0.282227 1.19629 0.305664 1.6748 0.0556641c12.8867 -6.75781 30.7578 -10.9443 50.5107 -10.9443c19.791 0 37.6943 4.20312 50.5869 10.9834c0.478516 0.251953 1.2666 0.227539 1.67676 -0.0537109zM209.772 -40.1475
c0.350586 -0.241211 0.291016 -0.586914 -0.142578 -0.789062c-21.8828 -10.2148 -57.9619 -19.0635 -89.6934 -19.0635c-31.6689 0 -67.6992 8.82422 -89.5664 19.0049c-0.433594 0.202148 -0.494141 0.545898 -0.143555 0.789062l16.002 10.5059
c0.394531 0.273438 1.14941 0.307617 1.63379 0.0771484c18.9834 -9.04883 44.2871 -14.5742 72.0762 -14.5742c27.8428 0 53.1904 5.54492 72.1875 14.626c0.483398 0.231445 1.2373 0.198242 1.63379 -0.0751953zM68.998 54.8281
c-10.6611 0 -19.3359 7.16211 -19.3359 15.9658c0 0.56543 -0.00585938 1.12207 -0.0107422 1.66797c-0.0429688 4.41113 -0.0839844 8.57812 2.80176 11.4824c1.88281 1.89453 4.64551 2.81543 8.44727 2.81543c10.3096 0 28.0693 -9.22461 28.0693 -18.667
c0 -8.18262 -7.65137 -13.2646 -19.9717 -13.2646zM171.576 54.8281c-12.3184 0 -19.9707 5.08203 -19.9707 13.2627c0 9.44238 17.7598 18.668 28.0693 18.668c3.80078 0 6.56348 -0.920898 8.44629 -2.81543c2.88574 -2.9043 2.8457 -7.07129 2.80176 -11.4824
c-0.00585938 -0.546875 -0.0107422 -1.10254 -0.0107422 -1.66797c0 -8.80273 -8.67383 -15.9648 -19.3359 -15.9648zM28.54 110.238c0.363281 -0.295898 1.23242 -0.828125 2.85645 -1.35156c1.64746 -0.53125 3.31934 -1.02344 4.90234 -1.47754l8.87402 -2.5459
l-3.95117 -8.31738c-0.276367 -0.583008 -0.589844 -1.08105 -1.06348 -1.83691c-0.996094 -1.58887 -3.64062 -5.80957 -4.24023 -8.98828c-2.33105 -12.3516 -2.25977 -23.9834 0.216797 -35.5684c0.889648 -4.1582 1.52832 -5.02441 1.64746 -5.15527
c0.0205078 -0.00488281 0.74707 -0.424805 3.8457 -0.685547l1.29785 -0.114258c30.4365 -2.71484 58.5088 -3.28516 76.6992 -3.28516h1.56348c18.1904 0 46.2607 0.570312 76.6992 3.28516l1.2959 0.114258c2.92773 0.246094 3.62988 0.641602 3.7002 0.685547
c0.161133 0.185547 0.780273 1.1875 1.8584 5.44238c2.8125 11.0967 2.99707 26.4717 0.411133 34.2744c-1.2793 3.8623 -3.77832 8.48535 -4.84473 10.46c-0.363281 0.669922 -0.612305 1.14746 -0.719727 1.37402l-3.95117 8.31738l8.87402 2.54492
c1.58203 0.453125 3.25488 0.945312 4.90137 1.47754c1.625 0.523438 2.49316 1.05664 2.85645 1.35156c-0.0166016 0.078125 -0.0419922 0.176758 -0.0791016 0.296875c-0.704102 2.21484 -1.71777 4.11914 -2.45312 5.1377
c-0.275391 -0.0673828 -0.585938 -0.160156 -0.935547 -0.283203c-19.6816 -6.99805 -40.1152 -7.55566 -59.874 -8.0957c-6.58496 -0.179688 -20.3223 -0.260742 -27.9736 -0.260742h-1.09473c-7.65234 0 -21.3887 0.0810547 -27.9707 0.260742
c-19.7627 0.540039 -40.1953 1.09766 -59.874 8.0957c-0.351562 0.124023 -0.663086 0.217773 -0.939453 0.285156c-0.736328 -1.02051 -1.75 -2.92383 -2.45215 -5.1377c-0.0410156 -0.123047 -0.0664062 -0.220703 -0.0830078 -0.299805zM121.185 25.2686h-1.5625
c-11.5648 0 -27.0589 0.226827 -44.6221 1.07158v-9.25322c0.00195312 -9.42188 -7.88965 -17.0869 -17.5908 -17.0869h-13.7266c-9.7002 0 -17.5898 7.66504 -17.5898 17.0869v17.4778c-2.73317 3.04224 -4.21486 7.1889 -5.31348 12.3279
c-2.87695 13.458 -2.97461 27.4941 -0.291992 41.7168c0.454102 2.40723 1.30176 4.77441 2.25586 6.91016c-9.73047 4.7168 -11.2168 13.0322 -9.08984 19.7314c1.20898 3.80957 5.94824 16.2402 16.1514 16.2402c2.4082 0 4.92676 -0.461914 7.48633 -1.37402
c0.322677 -0.114695 0.645993 -0.227436 0.96993 -0.338259c1.04144 3.51028 1.93853 6.7655 2.76445 9.76111c4.17285 15.1367 7.18652 26.0723 19.2373 32.7578c10.2432 5.68359 25.3906 7.60059 60.0254 7.60059c34.8975 0 50.167 -1.9502 60.5146 -7.72656
c12.126 -6.76953 15.2402 -17.874 19.5488 -33.2451c0.77876 -2.77841 1.62264 -5.7876 2.58396 -9.01354c0.19555 0.0679332 0.390871 0.136573 0.585959 0.205927c2.55762 0.910156 5.07617 1.37207 7.48242 1.37207c10.2041 0 14.9424 -12.4307 16.1533 -16.2402
c2.14746 -6.76758 0.608398 -15.1846 -9.3916 -19.875c0.836914 -1.8418 1.6543 -3.82227 2.2959 -5.75879c4.01855 -12.127 2.99316 -30.8154 -0.0966797 -43.0088c-1.31995 -5.20912 -2.86044 -9.24931 -5.48242 -12.1757v-17.3458
c0 -9.42188 -7.89062 -17.0869 -17.5908 -17.0869h-13.7266c-9.7002 0 -17.5908 7.66504 -17.5908 17.0869v9.24249c-17.4676 -0.836028 -32.8755 -1.06085 -44.3896 -1.06085zM53.4846 125.913c12.6922 -2.27112 25.914 -2.63312 38.8299 -2.98564
c6.43652 -0.174805 19.9805 -0.254883 27.543 -0.254883h1.09473c7.56152 0 21.1064 0.078125 27.542 0.254883c13.0531 0.356932 26.4181 0.722581 39.2342 3.05917c-0.92699 3.12863 -1.74213 6.03495 -2.49784 8.72989
c-4.03223 14.3789 -5.91406 20.3516 -12.1016 23.8066c-8.51855 4.75488 -27.2852 5.72949 -52.8428 5.72949c-25.3584 0 -43.9736 -0.957031 -52.3887 -5.625c-6.05273 -3.3584 -7.86426 -9.18848 -11.7344 -23.2314
c-0.80273 -2.91467 -1.67158 -6.06752 -2.67848 -9.48311zM59.3008 27.2367c-5.71023 0.378935 -11.5648 0.826735 -17.5098 1.35471v-11.5045c0 -0.698242 0.760742 -1.44336 1.8916 -1.44336h13.7266c1.13086 0 1.8916 0.745117 1.8916 1.44336v10.1498zM198.783 28.5724
c-5.94599 -0.526458 -11.8005 -0.972748 -17.5098 -1.35021v-10.1353c0 -0.698242 0.760742 -1.44336 1.8916 -1.44336h13.7266c1.13086 0 1.8916 0.745117 1.8916 1.44336v11.4855z" />
    <glyph glyph-name="uniE005" unicode="&#xe005;" 
d="M119.979 149.896c-4.13477 0 -7.5 -3.36426 -7.5 -7.5s3.36523 -7.5 7.5 -7.5c4.13574 0 7.5 3.36426 7.5 7.5s-3.36426 7.5 -7.5 7.5zM198.36 103.455l-11.8613 9.18164c10.8125 13.9658 10.6807 29.7002 -0.359375 43.168l11.5996 9.51074
c15.6211 -19.0576 15.8535 -42.1836 0.621094 -61.8604zM224.607 90.1211l-12.1787 8.75781c16.752 23.2959 16.3633 49.5479 -1.06934 72.0254l11.8525 9.19141c21.4756 -27.6895 21.998 -61.3242 1.39551 -89.9746zM41.3428 103.455
c-15.2324 19.6787 -15 42.8027 0.621094 61.8604l11.5996 -9.51074c-11.04 -13.4678 -11.1709 -29.2021 -0.360352 -43.168zM15.0957 90.1211c-20.6025 28.6484 -20.0801 62.2852 1.39355 89.9746l11.8535 -9.19141c-17.4316 -22.4775 -17.8213 -48.7295 -1.06836 -72.0254z
M70.9961 -7.53027c-10.1875 0 -18.4746 6.86914 -18.4746 15.3096c0 0.541016 -0.00488281 1.0752 -0.0107422 1.59863c-0.0419922 4.23047 -0.0810547 8.22461 2.67773 11.0098c1.79785 1.81641 4.43848 2.7002 8.06934 2.7002c9.85059 0 26.8203 -8.8457 26.8203 -17.9014
c0 -7.84277 -7.3125 -12.7168 -19.082 -12.7168zM169.004 -7.53027c-11.7705 0 -19.082 4.87402 -19.082 12.7188c0 9.05566 16.9697 17.9014 26.8203 17.9014c3.63086 0 6.27148 -0.883789 8.06934 -2.7002c2.75781 -2.78418 2.71973 -6.78027 2.67773 -11.0098
c-0.00390625 -0.523438 -0.0107422 -1.05762 -0.0107422 -1.59961c0 -8.44141 -8.28711 -15.3105 -18.4746 -15.3105zM32.3398 45.6016c0.34668 -0.283203 1.17773 -0.794922 2.72852 -1.2959c1.57324 -0.509766 3.17285 -0.981445 4.68457 -1.41602l8.47852 -2.44043
l-3.77637 -7.97559c-0.263672 -0.55957 -0.5625 -1.03711 -1.01465 -1.76074c-0.951172 -1.52441 -3.47852 -5.57031 -4.05176 -8.61914c-2.22656 -11.8428 -2.1582 -22.998 0.207031 -34.1055c0.848633 -3.9873 1.45898 -4.81836 1.57324 -4.94434
c0.0214844 -0.00292969 0.713867 -0.40625 3.6748 -0.657227l1.23926 -0.109375c29.082 -2.60254 55.9033 -3.14941 73.2822 -3.14941h1.49316c17.3789 0 44.2012 0.545898 73.2822 3.14941l1.23926 0.109375c2.79688 0.237305 3.46875 0.615234 3.53516 0.657227
c0.15332 0.178711 0.745117 1.13867 1.77637 5.21875c2.6875 10.6406 2.86328 25.3828 0.392578 32.8652c-1.22266 3.70312 -3.61035 8.13574 -4.62891 10.0283c-0.34668 0.642578 -0.584961 1.10156 -0.6875 1.31738l-3.77539 7.97559l8.47852 2.44043
c1.51172 0.43457 3.10938 0.90625 4.68262 1.41602c1.55273 0.500977 2.38184 1.0127 2.72852 1.2959c-0.0166016 0.0751953 -0.0400391 0.169922 -0.0761719 0.283203c-0.671875 2.12402 -1.6416 3.9502 -2.34473 4.92773
c-0.263672 -0.0644531 -0.560547 -0.154297 -0.893555 -0.273438c-18.8057 -6.70898 -38.3281 -7.24414 -57.207 -7.76172c-6.29297 -0.172852 -19.418 -0.250977 -26.7275 -0.250977h-1.04492c-7.31152 0 -20.4365 0.078125 -26.7246 0.250977
c-18.8818 0.517578 -38.4043 1.05273 -57.207 7.76172c-0.333984 0.120117 -0.632812 0.208984 -0.896484 0.273438c-0.704102 -0.977539 -1.67285 -2.80371 -2.34473 -4.92773c-0.0341797 -0.112305 -0.0585938 -0.207031 -0.0751953 -0.283203zM120.858 -35.874h-1.49316
c-11.0503 0 -25.8536 0.217289 -42.6338 1.02747v-8.87219c0 -9.03516 -7.54102 -16.3848 -16.8076 -16.3848h-13.1162c-9.26855 0 -16.8076 7.34961 -16.8076 16.3848v16.7603c-2.61076 2.91728 -4.02621 6.89342 -5.07617 11.8207
c-2.74902 12.9043 -2.84277 26.3623 -0.279297 40.002c0.435547 2.30859 1.24414 4.57812 2.15625 6.625c-9.29688 4.52246 -10.7178 12.4971 -8.68652 18.9199c1.15625 3.6543 5.68359 15.5732 15.4336 15.5732c2.30078 0 4.70703 -0.443359 7.15332 -1.31738
c0.308113 -0.109951 0.616834 -0.218029 0.926149 -0.324268c0.994847 3.36535 1.85189 6.48602 2.64026 9.35747c3.9873 14.5137 6.86719 25 18.3799 31.4102c9.01174 5.01751 21.996 6.97406 49.8311 7.25258v8.82075c-8.73022 3.09561 -15 11.437 -15 21.2148
c0 12.4062 10.0938 22.5 22.5 22.5c12.4072 0 22.5 -10.0938 22.5 -22.5c0 -9.77792 -6.26935 -18.1194 -15 -21.2149v-8.8202c28.1161 -0.27938 41.2265 -2.26681 50.3408 -7.37312c11.5859 -6.49121 14.5605 -17.1396 18.6777 -31.877
c0.743971 -2.66366 1.55001 -5.54932 2.46853 -8.64272c0.186816 0.0651238 0.373413 0.130925 0.559788 0.19741c2.44336 0.873047 4.84961 1.31641 7.14941 1.31641c9.75 0 14.2783 -11.9209 15.4336 -15.5732c2.05273 -6.48926 0.582031 -14.5605 -8.97363 -19.0576
c0.799805 -1.76562 1.58105 -3.66504 2.19434 -5.52344c3.84082 -11.6279 2.85938 -29.5498 -0.09375 -41.2402c-1.26073 -4.99257 -2.73197 -8.86571 -5.23535 -11.6717v-16.635c0 -9.03516 -7.53906 -16.3848 -16.8076 -16.3848h-13.1162
c-9.26855 0 -16.8076 7.34961 -16.8076 16.3848v8.8619c-16.6888 -0.801424 -31.41 -1.01717 -42.4102 -1.01717zM56.1722 60.6335c12.1273 -2.1779 24.7606 -2.52373 37.1012 -2.86197c6.14941 -0.168945 19.0898 -0.245117 26.3154 -0.245117h1.0459
c7.22559 0 20.166 0.0751953 26.3145 0.245117c12.4719 0.341818 25.2422 0.692355 37.488 2.93293c-0.885472 2.99956 -1.66415 5.78644 -2.38646 8.37078c-3.85254 13.7881 -5.65039 19.5146 -11.5625 22.8271c-8.13867 4.55957 -26.0693 5.49414 -50.4883 5.49414
c-24.2295 0 -42.0146 -0.916016 -50.0566 -5.39355c-5.78223 -3.21973 -7.51367 -8.8125 -11.2119 -22.2783c-0.767338 -2.79406 -1.59748 -5.81671 -2.5592 -9.09116zM61.7314 -33.9866c-5.45634 0.363525 -11.0506 0.793148 -16.7314 1.29974v-11.0319
c0 -0.668945 0.725586 -1.38477 1.80762 -1.38477h13.1162c1.08105 0 1.80762 0.71582 1.80762 1.38477v9.73218zM195 -32.7067c-5.68162 -0.504643 -11.2759 -0.932457 -16.7314 -1.2943v-9.71772c0 -0.668945 0.726562 -1.38477 1.80762 -1.38477h13.1162
c1.08203 0 1.80762 0.71582 1.80762 1.38477v11.012z" />
    <glyph glyph-name="uniE006" unicode="&#xe006;" 
d="M120 162.222c-56.3652 0 -102.222 -45.8564 -102.222 -102.222s45.8564 -102.222 102.222 -102.222s102.222 45.8564 102.222 102.222s-45.8564 102.222 -102.222 102.222zM120 -60c-66.168 0 -120 53.832 -120 120s53.832 120 120 120s120 -53.832 120 -120
s-53.832 -120 -120 -120zM103.5 76.5l85.668 52.668l-52.668 -85.668l-85.1816 -52.1807z" />
    <glyph glyph-name="uniE007" unicode="&#xe007;" 
d="M195 -7.5v120h-15v-120h15zM165 -7.5v120h-15v-120h15zM135 -7.5v120h-15v-120h15zM105 -7.5v120h-15v-120h15zM75 -7.5v120h-15v-120h15zM45 -7.5v120h-15v-120h15zM214.021 135c6.06348 0 10.9785 -4.91504 10.9766 -10.9785v-143.043
c0 -6.06348 -4.91504 -10.9785 -10.9785 -10.9785h-203.041c-6.06348 0 -10.9785 4.91504 -10.9785 10.9785v143.043c0 6.06348 4.91504 10.9785 10.9785 10.9785h203.043z" />
    <glyph glyph-name="uniE008" unicode="&#xe008;" 
d="M195 -37.5v105h-15v-105h15zM165 -37.5v105h-15v-105h15zM135 -37.5v105h-15v-105h15zM105 -37.5v105h-15v-105h15zM75 -37.5v105h-15v-105h15zM45 -37.5v105h-15v-105h15zM214.021 90c6.06348 0 10.9785 -4.91504 10.9766 -10.9785v-128.043
c0 -6.06348 -4.91504 -10.9785 -10.9785 -10.9785h-203.041c-6.06348 0 -10.9785 4.91504 -10.9785 10.9785v128.043c0 6.06348 4.91504 10.9785 10.9785 10.9785h203.043zM223.5 93.0986c-4.82812 3.82715 -10.7441 5.90137 -16.9785 5.90137h-7.80859l-78.7902 50.9793
c-2.02613 -0.949051 -4.28752 -1.4793 -6.67272 -1.4793c-2.72829 0 -5.2946 0.693771 -7.53212 1.91451l-79.7247 -51.4145h-7.5127c-6.2373 0 -12.1523 -2.07324 -16.9805 -5.89941v4.06641l96.6163 62.7056c-0.401301 1.38975 -0.616344 2.8585 -0.616344 4.37745
c0 8.69824 7.05176 15.75 15.75 15.75s15.75 -7.05176 15.75 -15.75c0 -1.82457 -0.310282 -3.5767 -0.880957 -5.20649l95.381 -62.1089v-3.83594z" />
    <glyph glyph-name="uniE009" unicode="&#xe009;" 
d="M223.5 93.0986c-4.82812 3.82715 -10.7441 5.90137 -16.9785 5.90137h-7.80859l-78.7902 50.9793c-2.02613 -0.949051 -4.28752 -1.4793 -6.67272 -1.4793c-2.72829 0 -5.2946 0.693771 -7.53212 1.91451l-79.7247 -51.4145h-7.5127
c-6.2373 0 -12.1523 -2.07324 -16.9805 -5.89941v4.06641l96.6163 62.7056c-0.401301 1.38975 -0.616344 2.8585 -0.616344 4.37745c0 8.69824 7.05176 15.75 15.75 15.75s15.75 -7.05176 15.75 -15.75c0 -1.82457 -0.310282 -3.5767 -0.880957 -5.20649l95.381 -62.1089
v-3.83594zM45 -30h-15v90h15v-90zM75 -30h-15v90h15v-90zM105 -30h-15v90h15v-90zM135 -30h-15v90h15v-90zM165 -30h-15v90h15v-90zM195 -30h-15v90h15v-90zM18.4785 75c-1.91699 0 -3.47852 -1.56152 -3.47852 -3.47852v-113.041
c0 -1.91895 1.56152 -3.47852 3.47852 -3.47852h188.041c1.91895 0 3.47852 1.56152 3.47852 3.47852v113.041c0 1.91895 -1.56152 3.47852 -3.47852 3.47852h-188.041zM206.521 -60h-188.043c-10.1895 0 -18.4785 8.28906 -18.4785 18.4785v113.043
c0 10.1895 8.28906 18.4785 18.4785 18.4785h188.041c10.1914 0 18.4805 -8.28906 18.4805 -18.4785v-113.041c0 -10.1914 -8.28906 -18.4805 -18.4785 -18.4805z" />
    <glyph glyph-name="uniE00A" unicode="&#xe00a;" 
d="M45 0h-15v105h15v-105zM75 0h-15v105h15v-105zM105 0h-15v105h15v-105zM135 0h-15v105h15v-105zM165 0h-15v105h15v-105zM195 0h-15v105h15v-105zM18.4785 120c-1.91699 0 -3.47852 -1.56152 -3.47852 -3.47852v-128.041c0 -1.91895 1.56152 -3.47852 3.47852 -3.47852
h188.041c1.91895 0 3.47852 1.56152 3.47852 3.47852v128.041c0 1.91895 -1.56152 3.47852 -3.47852 3.47852h-188.041zM206.521 -30h-188.043c-10.1895 0 -18.4785 8.28906 -18.4785 18.4785v128.043c0 10.1895 8.28906 18.4785 18.4785 18.4785h188.041
c10.1914 0 18.4805 -8.28906 18.4805 -18.4785v-128.041c0 -10.1914 -8.28906 -18.4805 -18.4785 -18.4805z" />
    <glyph glyph-name="uniE00B" unicode="&#xe00b;" 
d="M217.5 150c12.4062 0 22.5 -10.0938 22.5 -22.5v-22.5h-240v22.5c0 12.4062 10.0938 22.5 22.5 22.5h195zM120.525 30.0059c0 -16.5449 13.4609 -30.0059 30.0039 -30.0059l0.00100708 1.56388e-08c-16.5445 0 -30.0039 13.4613 -30.0039 30.0059
c-0.000976562 16.5391 13.46 29.9941 30.0049 29.9941c-16.5449 0 -30.0059 -13.4551 -30.0059 -29.9941zM0 75h240v-82.5c0 -12.4062 -10.0938 -22.5 -22.5 -22.5h-195c-12.4062 0 -22.5 10.0938 -22.5 22.5v82.5zM154.492 15.5251l-0.00531376 0.0096583
c-0.952078 -0.259611 -1.93063 -0.430511 -2.92922 -0.50063c1.00064 0.0668751 1.98213 0.23162 2.93454 0.490972zM154.445 44.4875c-1.2617 0.339092 -2.57407 0.512453 -3.91407 0.512453l-0.00100708 -3.17129e-08c1.33905 0 2.64798 -0.181775 3.90938 -0.522793
c0 0.00344679 0.0057016 0.00689321 0.0057016 0.0103393zM177.915 59.8677c0.934947 0.0867047 1.87882 0.130396 2.82956 0.131372c-0.951002 0 -1.89484 -0.0444268 -2.82956 -0.131372zM180.744 59.999c11.4177 0 21.3666 -6.40739 26.4365 -15.8153
c-5.06897 9.40785 -15.0183 15.8162 -26.4365 15.8153zM180.743 1.55135e-08c-0.0840429 0 -0.168032 0.00103288 -0.251966 0.00103288c0.083617 0 0.167291 -0.0010329 0.25102 -0.0010329zM172.446 42.4963c2.4594 1.64169 5.31005 2.50373 8.29814 2.50373
c-2.98899 0 -5.84046 -0.862556 -8.29814 -2.50373zM151.058 25.7474c-0.203386 1.40251 -0.307674 2.82512 -0.308651 4.25747c0 -1.43269 0.105088 -2.85523 0.308651 -4.25747zM150.749 30.0049c0 1.37903 0.0915975 2.74165 0.272368 4.08107
c-0.18096 -1.33917 -0.273344 -2.70173 -0.272368 -4.08107z" />
    <glyph glyph-name="uniE00C" unicode="&#xe00c;" 
d="M90 45v-15h-60v15h60zM105 0h-75v15h75v-15zM180.744 45c-3.27441 0 -6.38379 -1.03516 -8.99121 -2.99512c-3.81641 -2.86426 -6.00293 -7.23633 -6.00293 -11.999c0 -4.76953 2.18652 -9.14648 6 -12.0088c2.61035 -1.96191 5.71973 -2.99707 8.99414 -2.99707
c8.27344 0 15.0059 6.73242 15.0059 15.0059c0 8.26855 -6.73242 14.9941 -15.0059 14.9941zM150.531 0c-16.5449 0 -30.0049 13.4609 -30.0049 30.0059c-0.000976562 16.5391 13.46 29.9941 30.0049 29.9941c5.37902 0 10.5394 -1.40027 15.1067 -4.07533
c4.5674 2.67467 9.7268 4.07337 15.1062 4.07337c16.5449 0 30.0059 -13.4541 30.0059 -29.9932c0 -16.5439 -13.4609 -30.0049 -30.0059 -30.0049c-5.37992 0 -10.5398 1.40032 -15.1076 4.07547c-4.56803 -2.67534 -9.72733 -4.07547 -15.1053 -4.07547zM22.5 135
c-4.13574 0 -7.5 -3.36426 -7.5 -7.5v-22.5h210v22.5c0 4.13574 -3.36426 7.5 -7.5 7.5h-195zM217.5 -30h-195c-12.4062 0 -22.5 10.0938 -22.5 22.5v82.5v30v22.5c0 12.4062 10.0938 22.5 22.5 22.5h195c12.4062 0 22.5 -10.0938 22.5 -22.5v-22.5v-30v-82.5
c0 -12.4062 -10.0938 -22.5 -22.5 -22.5zM154.492 15.5251c-2.41618 4.38987 -3.74187 9.37291 -3.74187 14.4798c0 5.17884 1.29181 10.1262 3.69532 14.4827c-1.2617 0.339092 -2.57407 0.512453 -3.91407 0.512453c-8.27441 0 -15.0049 -6.72559 -15.0049 -14.9941
c0 -8.27344 6.73047 -15.0059 15.0049 -15.0059c1.35649 0 2.68466 0.177654 3.96062 0.525115zM225 75h-210v-82.5c0 -4.13574 3.36426 -7.5 7.5 -7.5h195c4.13574 0 7.5 3.36426 7.5 7.5v82.5z" />
    <glyph glyph-name="uniE00D" unicode="&#xe00d;" 
d="M35.5811 58.9141c0.524414 -3.45898 -1.82324 -6.15918 -5.35449 -6.15918h-30.0029l0.973633 38.3418c0.266602 3.39844 1.75586 6.25781 4.08301 8.25293c1.74902 2.25879 4.66211 3.18457 7.02539 3.18457h19.5479zM55.2344 1.75391
c-8.2666 0 -13.5752 -6.65918 -11.8359 -14.8428c1.73926 -8.18457 9.87891 -14.8428 18.1455 -14.8428c8.26562 0 13.5742 6.6582 11.8359 14.8428c-1.74023 8.18359 -9.88086 14.8428 -18.1455 14.8428zM65.0879 -44.6084c-17.5801 0 -34.8867 14.1406 -38.5811 31.5205
c-3.69531 17.3809 7.60156 31.5215 25.1816 31.5215s34.8867 -14.1406 38.5811 -31.5215c3.69531 -17.3818 -7.60156 -31.5205 -25.1816 -31.5205zM194.354 1.75391c-8.19434 0 -13.4443 -6.65918 -11.7041 -14.8428c1.73926 -8.18457 9.82031 -14.8428 18.0146 -14.8428
s13.4443 6.6582 11.7061 14.8428c-1.74121 8.18359 -9.82324 14.8428 -18.0166 14.8428zM204.209 -44.6084c-17.4619 0 -34.6729 14.1406 -38.3672 31.5205c-3.69434 17.3809 7.50586 31.5215 24.9668 31.5215c17.4619 0 34.6729 -14.1406 38.3672 -31.5215
c3.69434 -17.3818 -7.50586 -31.5205 -24.9668 -31.5205zM196.515 60h-79.4707v-15h79.4707v15zM109.547 75h64.4775v15h-64.4775v-15zM102.05 105h49.4814v15h-49.4814v-15zM236.614 -7.11621c-6.93164 19.9971 -27.459 35.4756 -48.2695 35.4756
c-20.7617 0 -34.6924 -15.4043 -33.2012 -35.3311l-53.2363 -0.144531l-29.8828 140.582c-1.05078 4.9375 2.14941 8.93945 7.14453 8.93945h119.146c5.70605 0 10.5967 -3.70215 11.8027 -9.37891l29.1045 -136.924c0.351562 -1.65723 -0.913086 -3.21875 -2.6084 -3.21875
zM68.5996 102.534l19.999 -94.0908c-9.76465 11.9209 -24.6504 19.917 -39.6924 19.917c-20.7861 0 -34.7842 -15.2686 -33.4521 -35.0664c-2.16602 0.750977 -4.16016 2.47461 -4.61035 4.58984c0 0 -5.23828 24.6406 -9.04785 42.5664
c-0.15625 0.738281 -0.255859 1.53906 -0.323242 2.33691h34.8877c6.94922 0 11.5225 5.37305 10.3721 12.1875l-4.46094 47.5596h26.3281z" />
    <glyph glyph-name="uniE00E" unicode="&#xe00e;" 
d="M154.531 105h-49.4814v15h49.4814v-15zM177.024 75h-64.4775v15h64.4775v-15zM199.515 45h-79.4707v15h79.4707v-15zM15.3799 45h24.4541c1.17871 0 2.05957 1.08594 1.81348 2.23926l-9.08594 42.7607h-10.6914c-3.54297 0 -6.21191 -2.33203 -6.55859 -5.69727z
M224.126 0l-23.7812 133.091c-0.206055 0.96582 -0.578125 1.90918 -2.63281 1.90918h-111.862c-1.38184 0 -2.46289 -1.90918 -2.46289 -1.90918l28.2793 -133.091h47.3584c2.49512 11.583 12.2168 19.7148 25.5205 19.7148s26.4814 -8.13184 33.8984 -19.7148h5.68262z
M195.188 -30.375c9.56055 0 15.666 7.87012 13.6113 17.5439c-2.05566 9.67383 -11.5049 17.5439 -21.0664 17.5439c-6.85449 0 -11.9141 -4.05762 -13.4814 -9.91504l0.581055 -9.79785h-0.103516c2.90039 -8.65234 11.625 -15.375 20.459 -15.375zM66.2324 -30.375
c9.56152 0 15.666 7.87012 13.6113 17.5439c-2.05566 9.67383 -11.5049 17.5439 -21.0664 17.5439c-9.56055 0 -15.666 -7.87012 -13.6113 -17.5439c2.05566 -9.67383 11.5059 -17.5439 21.0664 -17.5439zM215.34 133.091l24.5371 -142.979
c0.484375 -2.66309 -1.55957 -5.1123 -4.26465 -5.1123h-11.4375c2.48438 -16.9365 -8.69727 -30.375 -25.7998 -30.375s-33.9941 13.4385 -38.707 30.375h-64.4482c2.48438 -16.9365 -8.69629 -30.375 -25.7998 -30.375c-17.1025 0 -33.9941 13.4385 -38.707 30.375
h-7.27539c-6.54297 0 -14.6172 5.02832 -16.207 12.5127l-6.90332 32.4873h-0.246094l-0.0810547 58.2109c0.72168 9.88477 8.4043 16.7891 18.6826 16.7891h12.1914h13.4961h29.9893l-5.65039 26.5908c-2.04785 9.64062 3.76758 18.4092 13.9531 18.4092h111.864
c9.81738 0 18.7666 -7.26855 20.8135 -16.9092zM47.5574 90l10.8498 -51.0615c0.977539 -4.60352 -2.53223 -8.93848 -7.2373 -8.93848h-35.8477l6.375 -30h8.37207c2.49414 11.583 12.2158 19.7148 25.5195 19.7148c13.3027 0 26.4805 -8.13184 33.8984 -19.7148h7.18359
l-19.124 90h-29.9895z" />
    <glyph glyph-name="uniE00F" unicode="&#xe00f;" 
d="M31.0459 45.2549h-30.002l9.12305 38.3418c0.990234 3.39844 3.08691 6.25586 5.83691 8.25293c2.23047 2.25879 5.33984 3.18457 7.70215 3.18457h19.5479l-5.54395 -43.6201c-0.211914 -3.45898 -3.13184 -6.15918 -6.66406 -6.15918zM45.2129 -5.74609
c-8.2666 0 -14.9912 -6.65918 -14.9912 -14.8428c0 -8.18457 6.72461 -14.8428 14.9912 -14.8428s14.9912 6.6582 14.9912 14.8428c0 8.18359 -6.72461 14.8428 -14.9912 14.8428zM45.2129 -52.1084c-17.5801 0 -31.8828 14.1406 -31.8828 31.5205
c0 17.3809 14.3027 31.5215 31.8828 31.5215s31.8828 -14.1406 31.8828 -31.5215c-0.00195312 -17.3818 -14.3027 -31.5205 -31.8828 -31.5205zM196.332 -5.74609c-8.19434 0 -14.8594 -6.65918 -14.8594 -14.8428c0 -8.18457 6.66602 -14.8428 14.8594 -14.8428
c8.19434 0 14.8604 6.6582 14.8604 14.8428c0 8.18359 -6.66602 14.8428 -14.8604 14.8428zM196.332 -52.1084c-17.4619 0 -31.668 14.1406 -31.668 31.5205c0 17.3809 14.2061 31.5215 31.668 31.5215s31.668 -14.1406 31.668 -31.5215
c0 -17.3818 -14.2061 -31.5205 -31.668 -31.5205zM210 60v45h-90v-45h90zM230.19 134.905c5.70605 0 9.80957 -3.70215 9.80957 -9.37793v-140.144h-3.29297c-2.67969 19.9971 -19.917 35.4756 -40.7295 35.4756c-20.7607 0 -37.9658 -15.4043 -40.7109 -35.3311
l-65.2666 -0.144531v140.582c0 4.9375 4.04883 8.93945 9.04395 8.93945h131.146zM53.6729 95.0342h26.3262v-94.0908c-7.23145 11.9209 -20.418 19.917 -35.46 19.917c-20.7852 0 -38.0293 -15.2686 -40.9043 -35.0664
c-2.00586 0.750977 -3.63477 2.47461 -3.63477 4.58789v42.5674c0 0.737305 0.0722656 1.53906 0.173828 2.33691h34.8867c6.9502 0 12.666 5.37305 12.9639 12.1875z" />
    <glyph glyph-name="uniE010" unicode="&#xe010;" 
d="M37.71 60.4141c-0.211914 -3.45898 -3.13184 -6.15918 -6.66309 -6.15918h-30.0029l9.12305 38.3418c0.990234 3.39844 3.08691 6.25781 5.83691 8.25293c2.22852 2.25879 5.33789 3.18457 7.70215 3.18457h19.5479zM196.782 162.057
c0.926758 0.922852 1.26465 1.75195 1.36328 2.32422c-1.83105 -0.181641 -5.08984 -1.4541 -8.20996 -4.6875c-1.30176 -1.35156 -2.87402 -3.2207 -4.375 -5.3252c5.06836 2.52734 9.38867 5.8623 11.2217 7.68848zM145.059 164.381
c0.0976562 -0.572266 0.438477 -1.40137 1.36523 -2.32227c1.35449 -1.34961 6.13184 -4.77344 11.5068 -7.53418c-1.5918 2.00098 -3.2041 3.66406 -4.26172 4.75586l-0.400391 0.413086c-3.12012 3.2334 -6.37988 4.50586 -8.20996 4.6875zM212.736 168.562
c1.42578 -5.95605 -0.579102 -12.3604 -5.36426 -17.1299c-2.72754 -2.71777 -10.4355 -8.93262 -19.8721 -12.582v-93.8506h-30v93.293c-9.21289 3.55469 -18.3701 9.85352 -21.668 13.1396c-4.78418 4.76855 -6.79004 11.1719 -5.36328 17.1299
c1.16211 4.85352 4.47266 8.60059 8.85547 10.0234c7.65918 2.48535 17.3721 -0.841797 24.7402 -8.48145l0.375 -0.386719c1.80566 -1.86523 4.73926 -4.8916 7.41992 -8.80273c3.06738 4.68457 6.23828 8.1084 7.28125 9.18945
c7.36816 7.6377 17.0801 10.9678 24.7412 8.47949c4.38086 -1.42188 7.69141 -5.16895 8.85449 -10.0215zM197.058 135h42.9424v-30h-45v28.9502c0.700195 0.339844 1.38281 0.692383 2.05762 1.0498zM195 45v52.5h30v-52.5h-30zM150 97.5v-52.5h-30v52.5h30zM150 105h-45
v30h41.7363c1.07715 -0.567383 2.16699 -1.11621 3.26367 -1.63477v-28.3652zM48.0244 56.4736l5.64844 47.5605h29.3281v-103.092c-10.2334 11.9199 -23.418 19.917 -38.46 19.917c-20.7852 0 -38.0293 -15.2686 -40.9053 -35.0674
c-2.00684 0.75293 -3.63574 2.47656 -3.63574 4.58984v51.5674c0 0.737305 0.0722656 1.54004 0.173828 2.33691h34.8867c6.9502 0 12.666 5.37402 12.9639 12.1875zM240 30v-44.6162h-3.29297c-2.68164 19.9971 -19.918 35.4756 -40.7295 35.4756
c-20.7607 0 -37.9658 -15.4043 -40.7109 -35.3311l-65.2666 -0.144531v44.6162h150zM45.2129 -5.74609c-8.2666 0 -14.9912 -6.65918 -14.9912 -14.8428c0 -8.18457 6.72461 -14.8428 14.9912 -14.8428s14.9912 6.6582 14.9912 14.8428
c0 8.18359 -6.72461 14.8428 -14.9912 14.8428zM45.2129 -52.1084c-17.5801 0 -31.8828 14.1406 -31.8828 31.5205c0 17.3809 14.3027 31.5215 31.8828 31.5215s31.8828 -14.1406 31.8828 -31.5215c-0.00195312 -17.3818 -14.3027 -31.5205 -31.8828 -31.5205z
M196.332 -5.74609c-8.19434 0 -14.8594 -6.65918 -14.8594 -14.8428c0 -8.18457 6.66602 -14.8428 14.8594 -14.8428c8.19434 0 14.8604 6.6582 14.8604 14.8428c0 8.18359 -6.66602 14.8428 -14.8604 14.8428zM196.332 -52.1084
c-17.4619 0 -31.668 14.1406 -31.668 31.5205c0 17.3809 14.2061 31.5215 31.668 31.5215s31.668 -14.1406 31.668 -31.5215c0 -17.3818 -14.2061 -31.5205 -31.668 -31.5205z" />
    <glyph glyph-name="uniE011" unicode="&#xe011;" 
d="M145.059 164.381c0.0996094 -0.572266 0.438477 -1.40137 1.36426 -2.32422c1.35449 -1.34961 6.12988 -4.77246 11.5059 -7.53418c-1.59082 2 -3.2041 3.66406 -4.26074 4.75684l-0.401367 0.412109c-3.11914 3.23535 -6.37793 4.50781 -8.20801 4.68945z
M198.147 164.381c-1.83203 -0.181641 -5.08984 -1.4541 -8.20996 -4.6875c-1.30371 -1.35156 -2.87402 -3.2207 -4.37598 -5.3252c5.07031 2.52734 9.38867 5.8623 11.2217 7.68848c0.925781 0.922852 1.26367 1.75195 1.36426 2.32422zM18.2461 30h26.7539v45h-10.6963
c-3.54492 0 -6.70996 -2.33203 -7.77148 -5.69727zM225 -15v30h-120v-30h50.376c4.95801 11.583 16.4111 19.7148 29.7197 19.7148c13.3076 0 24.7617 -8.13184 29.7197 -19.7148h10.1846zM185.094 -45.375c9.56445 0 17.3447 7.87012 17.3447 17.5439
s-7.78027 17.5439 -17.3447 17.5439c-6.85742 0 -12.7812 -4.05762 -15.5938 -9.91504v-9.79785h-1.60352c1.0625 -8.65234 8.36133 -15.375 17.1973 -15.375zM53.0938 -45.375c9.56445 0 17.3447 7.87012 17.3447 17.5439s-7.78027 17.5439 -17.3447 17.5439
c-9.56348 0 -17.3447 -7.87012 -17.3447 -17.5439s7.78125 -17.5439 17.3447 -17.5439zM225 30h15v-15v-45h-22.6396c-1.11426 -16.9365 -15.1562 -30.375 -32.2646 -30.375c-17.1094 0 -31.1504 13.4385 -32.2656 30.375h-67.4707
c-1.11523 -16.9365 -15.1562 -30.375 -32.2656 -30.375c-17.1084 0 -31.1504 13.4385 -32.2646 30.375h-7.27637c-6.54492 0 -13.5527 5.02832 -13.5527 12.5127l-1.50921e-15 32.4873h-0.246094l12.293 58.2109c2.82227 9.88477 11.9756 16.7891 22.2568 16.7891h12.1963
h13.5h21h3h1.75098c10.6299 0 19.249 -8.61914 19.249 -19.249v-40.751h120zM157.5 135h-37.5v-15h37.5v15zM187.5 135v-15h37.5v15h-37.5zM157.5 105h-22.5v-45h22.5v45zM187.5 105v-45h22.5v45h-22.5zM137.412 150c-0.618344 0.519898 -1.14953 1.00108 -1.58058 1.43066
c-4.78516 4.76855 -6.79102 11.1719 -5.36426 17.1299c1.16309 4.85254 4.47363 8.59961 8.85645 10.0234c7.65723 2.48535 17.3711 -0.841797 24.7393 -8.48145l0.375 -0.386719c1.80566 -1.86426 4.74023 -4.8916 7.4209 -8.80176
c3.06738 4.68457 6.23828 8.10742 7.28027 9.18848c7.37012 7.63965 17.0811 10.9697 24.7412 8.47949c4.38184 -1.42188 7.69238 -5.16895 8.85449 -10.0215c1.42676 -5.95801 -0.579102 -12.3613 -5.36426 -17.1299
c-0.406863 -0.40554 -0.924752 -0.889165 -1.54285 -1.43066h34.1727v-45h-15v-60h-37.5h-30h-37.5v60h-15v45h32.4116zM60 75v-60h-45v-30h8.37402c4.95996 11.583 16.4131 19.7148 29.7217 19.7148c13.3076 0 24.7617 -8.13184 29.7197 -19.7148h7.18457v83.749
c0 3.45312 -2.79785 6.25098 -6.25098 6.25098h-23.749z" />
    <glyph glyph-name="uniE012" unicode="&#xe012;" 
d="M180 0v-15h-60v15h60zM180 45h-60v15h60v-15zM118.637 18.6748l-40.0518 -39.7275l-25.0498 24.752l10.542 10.6689l14.4873 -14.3145l29.5088 29.2715zM78.585 38.9463l-25.0498 24.751l10.542 10.6699l14.4873 -14.3145l29.5088 29.2725l10.5635 -10.6504zM180 105
h-120v30h-15v-180h150v180h-15v-30zM210 -60h-180v210h30h19.5h4.13867c3.49609 16.9307 18.5928 29.7002 36.6299 29.7002s33.1318 -12.7695 36.6289 -29.7002h23.1025h30v-210z" />
    <glyph glyph-name="uniE013" unicode="&#xe013;" 
d="M37.71 60.4141c-0.211914 -3.45898 -3.13184 -6.15918 -6.66309 -6.15918h-30.0029l9.12305 38.3418c0.990234 3.39844 3.08691 6.25781 5.83691 8.25293c2.22852 2.25879 5.33789 3.18457 7.70215 3.18457h19.5479zM164.34 105.173
c11.417 0 20.6729 9.21289 20.6729 20.5762c0 11.3643 -9.25488 20.5771 -20.6729 20.5771s-20.6729 -9.21289 -20.6729 -20.5771c0 -11.3633 9.25488 -20.5762 20.6729 -20.5762zM164.25 180c30.2373 0 54.75 -24.3164 54.75 -54.3105
c0 -11.5068 -3.60645 -22.1777 -9.76074 -30.96c-9.8877 -14.1123 -44.9893 -59.3936 -44.9893 -59.3936s-34.8691 45.1514 -44.7793 59.0967c-6.28223 8.83984 -9.9707 19.6201 -9.9707 31.2568c0 29.9941 24.5127 54.3105 54.75 54.3105zM48.0244 56.4736l5.64844 47.5605
h29.3281v-103.092c-10.2334 11.9199 -23.418 19.917 -38.46 19.917c-20.7852 0 -38.0293 -15.2686 -40.9053 -35.0674c-2.00684 0.75293 -3.63574 2.47656 -3.63574 4.58984v51.5674c0 0.737305 0.0722656 1.54004 0.173828 2.33691h34.8867
c6.9502 0 12.666 5.37402 12.9639 12.1875zM240 30v-44.6162h-3.29297c-2.68164 19.9971 -19.918 35.4756 -40.7295 35.4756c-20.7607 0 -37.9658 -15.4043 -40.7109 -35.3311l-65.2666 -0.144531v44.6162h150zM45.2129 -5.74609
c-8.2666 0 -14.9912 -6.65918 -14.9912 -14.8428c0 -8.18457 6.72461 -14.8428 14.9912 -14.8428s14.9912 6.6582 14.9912 14.8428c0 8.18359 -6.72461 14.8428 -14.9912 14.8428zM45.2129 -52.1084c-17.5801 0 -31.8828 14.1406 -31.8828 31.5205
c0 17.3809 14.3027 31.5215 31.8828 31.5215s31.8828 -14.1406 31.8828 -31.5215c-0.00195312 -17.3818 -14.3027 -31.5205 -31.8828 -31.5205zM196.332 -5.74609c-8.19434 0 -14.8594 -6.65918 -14.8594 -14.8428c0 -8.18457 6.66602 -14.8428 14.8594 -14.8428
c8.19434 0 14.8604 6.6582 14.8604 14.8428c0 8.18359 -6.66602 14.8428 -14.8604 14.8428zM196.332 -52.1084c-17.4619 0 -31.668 14.1406 -31.668 31.5205c0 17.3809 14.2061 31.5215 31.668 31.5215s31.668 -14.1406 31.668 -31.5215
c0 -17.3818 -14.2061 -31.5205 -31.668 -31.5205z" />
    <glyph glyph-name="uniE014" unicode="&#xe014;" 
d="M171.495 138.509c-7.71582 0 -13.9932 -6.27734 -13.9932 -13.9951s6.27734 -13.9951 13.9932 -13.9951c7.71777 0 13.9951 6.27734 13.9951 13.9951s-6.2793 13.9951 -13.9951 13.9951zM171.495 98.5195c-14.334 0 -25.9951 11.6611 -25.9951 25.9941
c0 14.332 11.6611 25.9951 25.9932 25.9951c14.334 0 25.9951 -11.6611 25.9951 -25.9951s-11.6611 -25.9941 -25.9932 -25.9941zM172.295 165c-22.4453 0 -40.7061 -18.1875 -40.7061 -40.54c0 -8.4082 2.55957 -16.4717 7.40137 -23.3184
c6.20703 -8.77344 23.9551 -32.0605 33.3135 -44.2891c9.40332 12.2539 27.2666 35.6445 33.4502 44.5117c4.73926 6.7959 7.24609 14.7822 7.24609 23.0957c0 22.3525 -18.2607 40.54 -40.7051 40.54zM172.282 32.2451l-5.93555 7.7207
c-1.25684 1.63477 -30.8906 40.1982 -39.6025 52.5137c-6.64355 9.39453 -10.1553 20.4521 -10.1553 31.9805c0 30.625 24.9902 55.54 55.7061 55.54c30.7148 0 55.7051 -24.915 55.7051 -55.54c0 -11.3955 -3.43848 -22.3486 -9.94238 -31.6777
c-8.70898 -12.4873 -38.5586 -51.1875 -39.8242 -52.8281zM18.2461 30h26.7539v45h-10.6963c-3.54492 0 -6.70996 -2.33203 -7.77148 -5.69727zM225 -15v30h-120v-30h50.376c4.95801 11.583 16.4111 19.7148 29.7197 19.7148c13.3076 0 24.7617 -8.13184 29.7197 -19.7148
h10.1846zM185.094 -45.375c9.56445 0 17.3447 7.87012 17.3447 17.5439s-7.78027 17.5439 -17.3447 17.5439c-6.85742 0 -12.7812 -4.05762 -15.5938 -9.91504l-1.5 -9.79785h-0.103516c1.0625 -8.65234 8.36133 -15.375 17.1973 -15.375zM53.0938 -45.375
c9.56445 0 17.3447 7.87012 17.3447 17.5439s-7.78027 17.5439 -17.3447 17.5439c-9.56348 0 -17.3447 -7.87012 -17.3447 -17.5439s7.78125 -17.5439 17.3447 -17.5439zM225 30h15v-15v-45h-22.6396c-1.11426 -16.9365 -15.1562 -30.375 -32.2646 -30.375
c-17.1094 0 -31.1504 13.4385 -32.2656 30.375h-67.4707c-1.11523 -16.9365 -15.1562 -30.375 -32.2656 -30.375c-17.1084 0 -31.1504 13.4385 -32.2646 30.375h-7.27637c-6.54492 0 -13.5527 5.02832 -13.5527 12.5127l-1.50921e-15 32.4873h-0.246094l12.293 58.2109
c2.82227 9.88477 11.9756 16.7891 22.2568 16.7891h12.1963h13.5h21h3h1.75098c10.6299 0 19.249 -8.61914 19.249 -19.249v-40.751h120zM60 75v-60h-45v-30h8.37402c4.95996 11.583 16.4131 19.7148 29.7217 19.7148c13.3076 0 24.7617 -8.13184 29.7197 -19.7148h7.18457
v83.749c0 3.45312 -2.79785 6.25098 -6.25098 6.25098h-23.749z" />
    <glyph glyph-name="uniE015" unicode="&#xe015;" 
d="M37.71 60.4141c-0.211914 -3.45898 -3.13184 -6.15918 -6.66309 -6.15918h-30.0029l9.12305 38.3418c0.990234 3.39844 3.08691 6.25781 5.83691 8.25293c2.22852 2.25879 5.33789 3.18457 7.70215 3.18457h19.5479zM210 105v15h-30v41.5498h-15v-56.5498h45zM172.5 180
c37.2793 0 67.5 -30.2207 67.5 -67.5s-30.2207 -67.5 -67.5 -67.5s-67.5 30.2207 -67.5 67.5s30.2207 67.5 67.5 67.5zM48.0244 56.4736l5.64844 47.5605h29.3281v-103.092c-10.2334 11.9199 -23.418 19.917 -38.46 19.917c-20.7852 0 -38.0293 -15.2686 -40.9053 -35.0674
c-2.00684 0.75293 -3.63574 2.47656 -3.63574 4.58984v51.5674c0 0.737305 0.0722656 1.54004 0.173828 2.33691h34.8867c6.9502 0 12.666 5.37402 12.9639 12.1875zM240 30v-44.6162h-3.29297c-2.68164 19.9971 -19.918 35.4756 -40.7295 35.4756
c-20.7607 0 -37.9658 -15.4043 -40.7109 -35.3311l-65.2666 -0.144531v44.6162h150zM45.2129 -5.74609c-8.2666 0 -14.9912 -6.65918 -14.9912 -14.8428c0 -8.18457 6.72461 -14.8428 14.9912 -14.8428s14.9912 6.6582 14.9912 14.8428
c0 8.18359 -6.72461 14.8428 -14.9912 14.8428zM45.2129 -52.1084c-17.5801 0 -31.8828 14.1406 -31.8828 31.5205c0 17.3809 14.3027 31.5215 31.8828 31.5215s31.8828 -14.1406 31.8828 -31.5215c-0.00195312 -17.3818 -14.3027 -31.5205 -31.8828 -31.5205z
M196.332 -5.74609c-8.19434 0 -14.8594 -6.65918 -14.8594 -14.8428c0 -8.18457 6.66602 -14.8428 14.8594 -14.8428c8.19434 0 14.8604 6.6582 14.8604 14.8428c0 8.18359 -6.66602 14.8428 -14.8604 14.8428zM196.332 -52.1084
c-17.4619 0 -31.668 14.1406 -31.668 31.5205c0 17.3809 14.2061 31.5215 31.668 31.5215s31.668 -14.1406 31.668 -31.5215c0 -17.3818 -14.2061 -31.5205 -31.668 -31.5205z" />
    <glyph glyph-name="uniE016" unicode="&#xe016;" 
d="M165.282 91.7803v49.3125h13.2646v-36.0459h29.5781v-13.2666h-42.8428zM176.25 153.582c-27.2012 0 -49.332 -22.1309 -49.332 -49.332s22.1309 -49.332 49.332 -49.332s49.332 22.1309 49.332 49.332s-22.1309 49.332 -49.332 49.332zM176.25 40.5
c-35.1523 0 -63.75 28.5977 -63.75 63.75s28.5977 63.75 63.75 63.75s63.75 -28.5977 63.75 -63.75s-28.5977 -63.75 -63.75 -63.75zM18.2461 30h26.7539v45h-10.6963c-3.54492 0 -6.70996 -2.33203 -7.77148 -5.69727zM225 -15v30h-120v-30h50.376
c4.95801 11.583 16.4111 19.7148 29.7197 19.7148c13.3076 0 24.7617 -8.13184 29.7197 -19.7148h10.1846zM185.094 -45.375c9.56445 0 17.3447 7.87012 17.3447 17.5439s-7.78027 17.5439 -17.3447 17.5439c-6.85742 0 -12.7812 -4.05762 -15.5938 -9.91504v-9.79785
h-1.60352c1.0625 -8.65234 8.36133 -15.375 17.1973 -15.375zM53.0938 -45.375c9.56445 0 17.3447 7.87012 17.3447 17.5439s-7.78027 17.5439 -17.3447 17.5439c-9.56348 0 -17.3447 -7.87012 -17.3447 -17.5439s7.78125 -17.5439 17.3447 -17.5439zM225 30h15v-15v-45
h-22.6396c-1.11426 -16.9365 -15.1562 -30.375 -32.2646 -30.375c-17.1094 0 -31.1504 13.4385 -32.2656 30.375h-67.4707c-1.11523 -16.9365 -15.1562 -30.375 -32.2656 -30.375c-17.1084 0 -31.1504 13.4385 -32.2646 30.375h-7.27637
c-6.54492 0 -13.5527 5.02832 -13.5527 12.5127l-1.50921e-15 32.4873h-0.246094l12.293 58.2109c2.82227 9.88477 11.9756 16.7891 22.2568 16.7891h12.1963h13.5h21h3h1.75098c10.6299 0 19.249 -8.61914 19.249 -19.249v-40.751h120zM60 75v-60h-45v-30h8.37402
c4.95996 11.583 16.4131 19.7148 29.7217 19.7148c13.3076 0 24.7617 -8.13184 29.7197 -19.7148h7.18457v83.749c0 3.45312 -2.79785 6.25098 -6.25098 6.25098h-23.749z" />
    <glyph glyph-name="uniE017" unicode="&#xe017;" 
d="M135 75h60v30h-60v-30zM210 60h-90v60h90v-60zM18.2461 45h26.7539v45h-10.6963c-3.54492 0 -6.70996 -2.33203 -7.77148 -5.69727zM225 0v133.091c0 0.96582 -0.170898 1.90918 -2.22754 1.90918h-114.901c-1.38281 0 -2.87109 -1.90918 -2.87109 -1.90918v-133.091
h50.376c4.95801 11.583 16.4111 19.7148 29.7197 19.7148c13.3076 0 24.7617 -8.13184 29.7197 -19.7148h10.1846zM185.094 -30.375c9.56445 0 17.3447 7.87012 17.3447 17.5439s-7.78027 17.5439 -17.3447 17.5439c-6.85742 0 -12.7812 -4.05762 -15.5938 -9.91504
l-1.5 -9.79785h-0.103516c1.0625 -8.65234 8.36133 -15.375 17.1973 -15.375zM53.0938 -30.375c9.56445 0 17.3447 7.87012 17.3447 17.5439s-7.78027 17.5439 -17.3447 17.5439c-9.56348 0 -17.3447 -7.87012 -17.3447 -17.5439s7.78125 -17.5439 17.3447 -17.5439z
M240 133.091v-148.091h-22.6396c-1.11426 -16.9365 -15.1562 -30.375 -32.2646 -30.375c-17.1094 0 -31.1504 13.4385 -32.2656 30.375h-67.4707c-1.11523 -16.9365 -15.1562 -30.375 -32.2656 -30.375c-17.1084 0 -31.1504 13.4385 -32.2646 30.375h-7.27637
c-6.54492 0 -13.5527 5.02832 -13.5527 12.5127l-1.50921e-15 32.4873h-0.246094l12.293 58.2109c2.82227 9.88477 11.9756 16.7891 22.2568 16.7891h12.1963h13.5h30v26.5908c0 9.64062 7.68262 18.4092 17.8711 18.4092h114.901
c9.82227 0 17.2275 -7.26855 17.2275 -16.9092zM60 90v-60h-45v-30h8.37402c4.95996 11.583 16.4131 19.7148 29.7217 19.7148c13.3076 0 24.7617 -8.13184 29.7197 -19.7148h7.18457v90h-30z" />
    <glyph glyph-name="uniE018" unicode="&#xe018;" 
d="M189.011 150l51.5996 -45l-51.5996 -45h-84.0107v-120h-15v120h-90v90h90v30h15v-30h84.0107z" />
    <glyph glyph-name="uniE019" unicode="&#xe019;" 
d="M15 75h168.389l34.3994 30l-34.3994 30h-168.389v-60zM105 150h84.0107l51.5996 -45l-51.5996 -45h-84.0107v-120h-15v120h-90v90h90v30h15v-30z" />
    <glyph glyph-name="uniE01A" unicode="&#xe01a;" 
d="M150 168.159l74.3086 -49.6738l-74.3086 -48.0449v40.7413c-16.8422 -1.80678 -30 -16.0581 -30 -33.3165v-122.49h-15v122.49c0 17.2566 -13.1578 31.5095 -30 33.3165v-40.7413l-74.3086 48.0459l74.3086 49.6729v-41.9175
c15.7773 -1.16524 29.4845 -9.87524 37.5 -22.5172c8.01552 12.642 21.7227 21.352 37.5 22.5172v41.9175z" />
    <glyph glyph-name="uniE01B" unicode="&#xe01b;" 
d="M165 140.091v-42.0879l32.0059 20.6924zM27.9941 118.695l32.0059 -20.6924v42.0879zM75 70.4414l-74.3086 48.0449l74.3086 49.6729v-41.9175c15.7773 -1.16524 29.4845 -9.87524 37.5 -22.5172c8.01552 12.642 21.7227 21.352 37.5 22.5172v41.9175l74.3086 -49.6738
l-74.3086 -48.0439v40.7403c-16.8422 -1.80678 -30 -16.0581 -30 -33.3165v-122.49h-15v122.49c0 17.2566 -13.1578 31.5095 -30 33.3165v-40.7403z" />
    <glyph glyph-name="uniE01C" unicode="&#xe01c;" 
d="M150 162.159l74.3086 -49.6729l-74.3086 -48.0449v40.5586h-41.7979c-18.6172 0 -33.2021 -14.4961 -33.2021 -33v-117h-15v117c0 26.916 21.1729 48 48.2021 48h41.7979v42.1592z" />
    <glyph glyph-name="uniE01D" unicode="&#xe01d;" 
d="M165 134.091v-42.0879l32.0059 20.6924zM75 -45h-15v117c0 26.916 21.1729 48 48.2021 48h41.7979v42.1592l74.3086 -49.6738l-74.3086 -48.0439v40.5586h-41.7979c-18.6172 0 -33.2021 -14.4961 -33.2021 -33v-117z" />
    <glyph glyph-name="uniE01E" unicode="&#xe01e;" 
d="M15.6914 112.486l74.3086 49.6729v-42.1592h41.7979c27.0293 0 48.2021 -21.084 48.2021 -48v-117h-15v117c0 18.5039 -14.585 33 -33.2021 33h-41.7979v-40.5586z" />
    <glyph glyph-name="uniE01F" unicode="&#xe01f;" 
d="M42.9941 112.695l32.0059 -20.6924v42.0879zM90 64.4414l-74.3086 48.0449l74.3086 49.6729v-42.1592h41.7979c27.0293 0 48.2021 -21.084 48.2021 -48v-117h-15v117c0 18.5039 -14.585 33 -33.2021 33h-41.7979v-40.5586z" />
    <glyph glyph-name="uniE020" unicode="&#xe020;" 
d="M32.1836 105l49.6729 74.3086l48.0449 -74.3086h-39.9014v-72.1031c8.45433 7.58649 19.9157 12.1031 32.8936 12.1031h27.1064v42.1143l74.3086 -49.6738l-74.3086 -48.0459v40.6055h-27.1064c-19.0605 0 -32.8936 -13.248 -32.8936 -31.5v-43.5h-15v43.5v106.5
h-42.8164z" />
    <glyph glyph-name="uniE021" unicode="&#xe021;" 
d="M60.252 120h42.0889l-20.6924 32.0059zM165 59.0449v-42.0889l32.0059 20.6943zM150 30h-27.1064c-19.0605 0 -32.8936 -13.248 -32.8936 -31.5v-43.5h-15v43.5v106.5h-42.8164l49.6729 74.3086l48.0449 -74.3086h-39.9014v-72.1031
c8.45433 7.58649 19.9157 12.1031 32.8936 12.1031h27.1064v42.1143l74.3086 -49.6738l-74.3086 -48.0459v40.6055z" />
    <glyph glyph-name="uniE022" unicode="&#xe022;" 
d="M157.019 179.309l49.6738 -74.3086h-41.6924v-100.375c0.247753 -1.99686 0.375 -4.04055 0.375 -6.12453l-0.375 1.33227e-15v-43.5h-15v48.612c-2.3297 15.562 -15.2882 26.388 -32.5186 26.388h-27.4814v-40.6055l-74.3086 48.0459l74.3086 49.6738v-42.1143h27.4814
c12.787 0 24.1017 -4.38471 32.5186 -11.7703v71.7703h-41.0264z" />
    <glyph glyph-name="uniE023" unicode="&#xe023;" 
d="M136.534 120h42.0889l-21.3945 32.0059zM42.9941 37.6504l32.0059 -20.6943v42.0889zM90 -10.6055l-74.3086 48.0459l74.3086 49.6738v-42.1143h27.4814c12.787 0 24.1017 -4.38471 32.5186 -11.7703v71.7703h-41.0264l48.0449 74.3086l49.6729 -74.3086h-41.6914
v-100.375c0.247753 -1.99686 0.375 -4.04055 0.375 -6.12453l-0.375 1.33227e-15v-43.5h-15v48.612c-2.3297 15.562 -15.2882 26.388 -32.5186 26.388h-27.4814v-40.6055z" />
    <glyph glyph-name="uniE024" unicode="&#xe024;" 
d="M150 147.159l74.3086 -49.6729l-74.3086 -48.0449v40.5586h-41.7979c-18.6172 0 -33.2021 -14.4961 -33.2021 -33v-102h-15v102v108h15v-72.9069c8.58365 8.04094 20.2171 12.9069 33.2021 12.9069h41.7979v42.1592z" />
    <glyph glyph-name="uniE025" unicode="&#xe025;" 
d="M165 119.091v-42.0879l32.0059 20.6924zM150 90h-41.7979c-18.6172 0 -33.2021 -14.4961 -33.2021 -33v-102h-15v102v108h15v-72.9069c8.58365 8.04094 20.2171 12.9069 33.2021 12.9069h41.7979v42.1592l74.3086 -49.6738l-74.3086 -48.0439v40.5586z" />
    <glyph glyph-name="uniE026" unicode="&#xe026;" 
d="M15.6914 97.4863l74.3086 49.6729v-42.1592h42.4541c12.8285 0 24.1638 -4.47742 32.5459 -12.0043v72.0043h15v-106.5v-103.5h-15v103.5c0 18.252 -13.6875 31.5 -32.5459 31.5h-42.4541v-40.5586z" />
    <glyph glyph-name="uniE027" unicode="&#xe027;" 
d="M42.9941 97.6953l32.0059 -20.6924v42.0879zM90 49.4414l-74.3086 48.0449l74.3086 49.6729v-42.1592h42.4541c12.8285 0 24.1638 -4.47742 32.5459 -12.0043v72.0043h15v-106.5v-103.5h-15v103.5c0 18.252 -13.6875 31.5 -32.5459 31.5h-42.4541v-40.5586z" />
    <glyph glyph-name="uniE028" unicode="&#xe028;" 
d="M75 -10.6055l-74.3086 48.0459l74.3086 49.6738v-42.1724c11.7805 -0.546006 22.1765 -4.91303 30 -11.9388v71.9969h-41.0264l48.0449 74.3086l49.6729 -74.3086h-41.6914v-71.9969c7.82353 7.02581 18.2195 11.3928 30 11.9388v42.1724l74.3086 -49.6738
l-74.3086 -48.0459v40.5253c-17.5306 -1.12568 -30 -13.9915 -30 -31.4198v-43.5h-15v43.5c0 17.4283 -12.4694 30.2941 -30 31.4198v-40.5253z" />
    <glyph glyph-name="uniE029" unicode="&#xe029;" 
d="M91.5342 120h42.0889l-21.3965 32.0059zM27.9941 37.6504l32.0059 -20.6943v42.0889zM75 -10.6055l-74.3086 48.0459l74.3086 49.6738v-42.1724c11.7805 -0.546006 22.1765 -4.91303 30 -11.9388v71.9969h-41.0264l48.0449 74.3086l49.6729 -74.3086h-41.6914v-71.9969
c7.82353 7.02581 18.2195 11.3928 30 11.9388v42.1724l74.3086 -49.6738l-74.3086 -48.0459v40.5253c-17.5306 -1.12568 -30 -13.9915 -30 -31.4198v-43.5h-15v43.5c0 17.4283 -12.4694 30.2941 -30 31.4198v-40.5253zM165 59.0449v-42.0889l32.0059 20.6943z" />
    <glyph glyph-name="uniE02A" unicode="&#xe02a;" 
d="M112.224 164.309l49.6748 -74.3086h-41.8984v-135h-15v135h-40.8213z" />
    <glyph glyph-name="uniE02B" unicode="&#xe02b;" 
d="M112.5 -45v141zM91.7402 105h42.0879l-21.3945 32.0059zM120 90v-135h-15v135h-40.8213l48.0449 74.3086l49.6748 -74.3086h-41.8984z" />
    <glyph glyph-name="uniE02C" unicode="&#xe02c;" 
d="M60.0146 165.432l80.9062 -37.1445l-33.5697 -22.3784l42.6488 -56.395v-94.5137h-15v89.4814l-40.1529 53.0917l-34.9458 -23.2958z" />
    <glyph glyph-name="uniE02D" unicode="&#xe02d;" 
d="M74.9854 142.053l-0.0498047 -39.7256l35.3086 23.5381zM59.9014 74.2773l0.113281 91.1543l80.9062 -37.1445l-33.5697 -22.3784l42.6488 -56.395v-94.5137h-15v89.4814l-40.1529 53.0917z" />
    <glyph glyph-name="uniE02E" unicode="&#xe02e;" 
d="M179.904 165.432l0.113281 -91.1543l-34.9458 23.2958l-40.1529 -53.0917v-89.4814h-15v94.5137l42.6488 56.395l-33.5697 22.3784z" />
    <glyph glyph-name="uniE02F" unicode="&#xe02f;" 
d="M129.674 125.866l35.3086 -23.5381l-0.0498047 39.7266zM104.919 -45h-15v94.5137l42.6488 56.395l-33.5697 22.3784l80.9062 37.1445l0.113281 -91.1543l-34.9458 23.2958l-40.1529 -53.0917v-89.4814z" />
    <glyph glyph-name="uniE030" unicode="&#xe030;" 
d="M172.224 164.309l49.6748 -74.3086h-41.8984v-135h-15v135h-40.8213zM52.2236 164.309l49.6748 -74.3086h-41.8984v-135h-15v135h-40.8213z" />
    <glyph glyph-name="uniE031" unicode="&#xe031;" 
d="M151.74 105h42.0879l-21.3945 32.0059zM31.7402 105h42.0879l-21.3945 32.0059zM180 90v-135h-15v135h-40.8213l48.0449 74.3086l49.6748 -74.3086h-41.8984zM60 90v-135h-15v135h-40.8213l48.0449 74.3086l49.6748 -74.3086h-41.8984z" />
    <glyph glyph-name="uniE032" unicode="&#xe032;" 
d="M224.904 165.432l0.113281 -91.1543l-34.9458 23.2958l-40.1529 -53.0917v-89.4814h-15v94.5137l42.6488 56.395l-33.5697 22.3784zM67.2236 164.309l49.6748 -74.3086h-41.8984v-135h-15v135h-40.8213z" />
    <glyph glyph-name="uniE033" unicode="&#xe033;" 
d="M174.674 125.866l35.3086 -23.5381l-0.0498047 39.7266zM149.919 -45h-15v94.5137l42.6488 56.395l-33.5697 22.3784l80.9062 37.1445l0.113281 -91.1543l-34.9458 23.2958l-40.1529 -53.0917v-89.4814zM46.7402 105h42.0879l-21.3945 32.0059zM75 90v-135h-15v135
h-40.8213l48.0449 74.3086l49.6748 -74.3086h-41.8984z" />
    <glyph glyph-name="uniE034" unicode="&#xe034;" 
d="M14.9414 74.2773l0.114258 91.1543l80.9053 -37.1445l-33.5697 -22.3784l42.6488 -56.395v-94.5137h-15v89.4814l-40.1517 53.0925zM179.96 90v-135h-15v135h-41.8965l49.6738 74.3086l48.043 -74.3086h-40.8203z" />
    <glyph glyph-name="uniE035" unicode="&#xe035;" 
d="M30.0273 142.053l-0.0498047 -39.7256l35.3086 23.5381zM14.9414 74.2773l0.114258 91.1543l80.9053 -37.1445l-33.5697 -22.3784l42.6488 -56.395v-94.5137h-15v89.4814l-40.1517 53.0925zM151.131 105h42.0889l-20.6924 32.0059zM179.96 90v-135h-15v135h-41.8965
l49.6738 74.3086l48.043 -74.3086h-40.8203z" />
    <glyph glyph-name="uniE036" unicode="&#xe036;" 
d="M180 -46.5h-15v150.75c0 24.8135 -20.1865 45 -45 45s-45 -20.1865 -45 -45v-29.25h39.9541l-48.0449 -74.3086l-49.6729 74.3086h42.7637v29.25c0 33.084 26.916 60 60 60s60 -26.916 60 -60v-150.75z" />
    <glyph glyph-name="uniE037" unicode="&#xe037;" 
d="M45.3057 60l21.3945 -32.0059l20.6924 32.0059h-42.0869zM66.9092 0.691406l-49.6729 74.3086h42.7637v29.25c0 33.084 26.916 60 60 60s60 -26.916 60 -60v-150.75h-15v150.75c0 24.8135 -20.1865 45 -45 45s-45 -20.1865 -45 -45v-29.25h39.9551z" />
    <glyph glyph-name="uniE038" unicode="&#xe038;" 
d="M75 -46.5h-15v150.75c0 33.084 26.916 60 60 60s60 -26.916 60 -60v-29.25h42.5342l-49.6729 -74.3086l-48.0449 74.3086h40.1836v29.25c0 24.8135 -20.1865 45 -45 45s-45 -20.1865 -45 -45v-150.75z" />
    <glyph glyph-name="uniE039" unicode="&#xe039;" 
d="M152.378 60l20.6924 -32.0059l21.3955 32.0059h-42.0879zM172.861 0.691406l-48.0449 74.3086h40.1836v29.25c0 24.8135 -20.1865 45 -45 45s-45 -20.1865 -45 -45v-150.75h-15v150.75c0 33.084 26.916 60 60 60s60 -26.916 60 -60v-29.25h42.5352z" />
    <glyph glyph-name="uniE03A" unicode="&#xe03a;" 
d="M74.9531 165v-120h-15v120h15zM74.9531 -45h-15v56.6357l105 52.5v25.8643h-40.2764l48.0449 74.3086l49.6748 -74.3086h-42.4434v-35.1357l-105 -52.5v-47.3643z" />
    <glyph glyph-name="uniE03B" unicode="&#xe03b;" 
d="M59.9531 45v120h15v-120h-15zM152.238 105h42.0879l-21.3945 32.0059zM74.9531 -45h-15v56.6357l105 52.5v25.8643h-40.2764l48.0449 74.3086l49.6748 -74.3086h-42.4434v-35.1357l-105 -52.5v-47.3643z" />
    <glyph glyph-name="uniE03C" unicode="&#xe03c;" 
d="M164.86 45v120h15v-120h-15zM67.0918 164.309l48.0449 -74.3086h-40.2764v-25.8643l105 -52.5v-56.6357h-15v47.3643l-105 52.5v35.1357h-42.4404z" />
    <glyph glyph-name="uniE03D" unicode="&#xe03d;" 
d="M164.86 45v120h15v-120h-15zM45.4893 105h42.0869l-20.6943 32.0059zM179.86 -45h-15v47.3643l-105 52.5v35.1357h-42.4404l49.6719 74.3086l48.0449 -74.3086h-40.2764v-25.8643l105 -52.5v-56.6357z" />
    <glyph glyph-name="uniE03E" unicode="&#xe03e;" 
d="M112.769 179.309l49.6729 -74.3086h-42.4414v-14.9219c0 -6.93457 5.79883 -10.6699 15.2607 -16.1885c9.9082 -5.77734 22.2393 -12.9697 22.2393 -28.3125c0 -21.252 -24.123 -26.1562 -43.5049 -30.0986c-19.0254 -3.86719 -31.4951 -7.0293 -31.4951 -15.4004
c0 -6.78027 5.75293 -10.5166 15.1377 -16.0547c9.96289 -5.87695 22.3623 -13.1924 22.3623 -28.6953v-15.3281h-15v15.3281c0 6.60059 -5.69434 10.2949 -14.9834 15.7754c-10.0322 5.91992 -22.5166 13.2861 -22.5166 28.9746c0 21.2529 24.123 26.1582 43.5059 30.1006
c19.0244 3.86816 31.4941 7.03027 31.4941 15.3984c0 6.40039 -5.62207 10.0049 -14.7959 15.3555c-10.1143 5.89941 -22.7041 13.2422 -22.7041 29.1455v14.9219h-40.2764z" />
    <glyph glyph-name="uniE03F" unicode="&#xe03f;" 
d="M92.2842 120h42.0889l-21.3965 32.0059zM120 -60h-15v15.3281c0 6.60059 -5.69434 10.2949 -14.9834 15.7754c-10.0322 5.91992 -22.5166 13.2861 -22.5166 28.9746c0 21.2529 24.123 26.1582 43.5059 30.1006c19.0244 3.86816 31.4941 7.03027 31.4941 15.3984
c0 6.40039 -5.62207 10.0049 -14.7959 15.3555c-10.1143 5.89941 -22.7041 13.2422 -22.7041 29.1455v14.9219h-40.2764l48.0449 74.3086l49.6729 -74.3086h-42.4414v-14.9219c0 -6.93457 5.79883 -10.6699 15.2607 -16.1885
c9.9082 -5.77734 22.2393 -12.9697 22.2393 -28.3125c0 -21.252 -24.123 -26.1562 -43.5049 -30.0986c-19.0254 -3.86719 -31.4951 -7.0293 -31.4951 -15.4004c0 -6.78027 5.75293 -10.5166 15.1377 -16.0547c9.96289 -5.87695 22.3623 -13.1924 22.3623 -28.6953v-15.3281z
" />
    <glyph glyph-name="uniE040" unicode="&#xe040;" 
d="M67.2236 164.309l49.6748 -74.3086h-41.8984v-135h-15v135h-40.8213zM165 30v135h15v-135l41.8984 -3.55271e-15l-49.6748 -74.3086l-48.0449 74.3086h40.8213z" />
    <glyph glyph-name="uniE041" unicode="&#xe041;" 
d="M151.74 15l20.6924 -32.0059l21.3955 32.0059h-42.0879zM172.224 -44.3086l-48.0449 74.3086h40.8213v135h15v-135l41.8984 -3.55271e-15zM46.7402 105h42.0879l-21.3945 32.0059zM75 90v-135h-15v135h-40.8213l48.0449 74.3086l49.6748 -74.3086h-41.8984z" />
    <glyph glyph-name="uniE042" unicode="&#xe042;" 
d="M174.011 165l51.5996 -37.5l-51.5996 -37.5h-54.0107v-15h75.6104v-75h-75.6104v-60h-15v60h-53.4004l-51.5996 37.5l51.5996 37.5h53.4004v15h-75v75h75v15h15v-15h54.0107z" />
    <glyph glyph-name="uniE043" unicode="&#xe043;" 
d="M180 60h-129.389l-28.3994 -22.5l28.3994 -22.5h129.389v45zM-0.610352 37.5l45.5996 37.5h60.0107v15h-75v75h75v15h15v-15h58.5107l45.5996 -37.5l-45.5996 -37.5h-58.5107v-15h75v-75h-75v-60h-15v60h-60.0107zM45 105h127.889l28.3994 22.5l-28.3994 22.5h-127.889
v-45z" />
    <glyph glyph-name="uniE044" unicode="&#xe044;" 
d="M179.991 62.5195c0.0263672 -0.0234375 0.0537109 -0.0478516 0.0810547 -0.0732422c-0.0224609 0.0214844 -0.0498047 0.046875 -0.0810547 0.0732422zM150 53.9785c-0.209961 -0.0732422 -0.414062 -0.151367 -0.613281 -0.233398
c-1.74512 -0.710938 -3.17871 -1.59863 -4.2666 -2.63965c-0.991211 -0.950195 -1.69336 -1.97559 -2.14746 -3.13867c-0.480469 -1.22949 -0.688477 -2.45801 -0.640625 -3.75586c0.0537109 -1.45801 0.335938 -2.63574 0.814453 -3.40625
c0.632812 -1.01855 1.44434 -1.85449 2.48438 -2.55664c1.24805 -0.84375 2.71582 -1.56738 4.36914 -2.15332v17.8838zM165 16.1299v-23.4619c2.05176 0.916992 3.77148 2.07129 5.11816 3.43848c1.37793 1.39746 2.37402 2.94727 3.0459 4.73828
c0.693359 1.84766 0.990234 3.80078 0.911133 5.9668c-0.046875 1.25391 -0.267578 2.98633 -1.05273 4.12012c-0.853516 1.22852 -1.94629 2.23242 -3.33691 3.06055c-1.3916 0.825195 -2.96387 1.54297 -4.68555 2.1377zM165 -32.25h-15v8.12207
c-1.25391 0.106445 -2.45703 0.262695 -3.60645 0.469727c-2.84082 0.513672 -5.50781 1.28223 -7.92871 2.29102c-2.48242 1.03125 -4.83008 2.35645 -6.96777 3.93555c-2.26172 1.66699 -7.24414 6.33887 -8.5166 7.59473l10.5371 10.6738
c1.57715 -1.55566 5.72754 -5.34766 6.88086 -6.19824c1.17188 -0.863281 2.4541 -1.58789 3.82324 -2.15625c1.43164 -0.595703 3.05469 -1.05957 4.83203 -1.37891c0.305664 -0.0556641 0.621094 -0.103516 0.944336 -0.148438v29.3965
c-1.50391 0.447266 -2.97852 0.914062 -4.41211 1.39648c-3.08594 1.03809 -5.89648 2.40918 -8.35742 4.07129c-2.7832 1.88281 -5.08008 4.25977 -6.82324 7.06641c-1.88086 3.02734 -2.91113 6.64941 -3.06445 10.7676c-0.124023 3.3418 0.433594 6.625 1.65625 9.76172
c1.24609 3.19629 3.18164 6.06445 5.74902 8.52344c2.45703 2.35156 5.47656 4.26855 8.97461 5.69531c1.93555 0.789062 4.03418 1.39355 6.27734 1.81055v8.55566h15v-8.58008c0.900391 -0.18457 1.75977 -0.405273 2.58691 -0.661133
c2.8125 -0.878906 5.13672 -1.86914 7.10938 -3.02441c0.422852 -0.249023 0.889648 -0.484375 1.33789 -0.71582c1.32812 -0.683594 2.7002 -1.38965 3.89746 -2.44629c0.75 -0.588867 3.95508 -2.8418 6.57324 -4.64648l-8.50977 -12.3525
c-5.4707 3.76953 -7.11426 5.01758 -7.73242 5.53027c-0.259766 0.150391 -0.75293 0.40332 -1.09668 0.580078c-0.691406 0.355469 -1.4043 0.727539 -2.05176 1.10742c-0.433594 0.253906 -1.11035 0.598633 -2.11426 0.991211v-21.999
c0.954102 -0.269531 1.90137 -0.542969 2.83887 -0.817383c3.47852 -1.02246 6.67871 -2.39844 9.51855 -4.08594c3.22461 -1.91992 5.91113 -4.4082 7.98926 -7.39648c2.29297 -3.30859 3.54297 -7.38281 3.71875 -12.1172
c0.152344 -4.12891 -0.47168 -8.09375 -1.85449 -11.7842c-1.40723 -3.75293 -3.56445 -7.12012 -6.41406 -10.0088c-2.79785 -2.83691 -6.24609 -5.14062 -10.249 -6.84961c-1.74512 -0.745117 -3.59766 -1.35449 -5.5459 -1.8252v-9.14844zM45 120v30h150v-30h-150z
M52.5 -15v15h52.5v-15h-52.5zM52.5 15v15h52.5v-15h-52.5zM52.5 45v15h52.5v-15h-52.5zM52.5 90v15h135v-15h-135zM30 -45h180v210h-180v-210zM225 -60h-210v240h210v-240z" />
    <glyph glyph-name="uniE045" unicode="&#xe045;" 
d="M169.886 -29.1377c-5.35645 0 -10.3711 0.928711 -14.9023 2.75977c-4.64551 1.87695 -8.74707 4.68066 -12.1895 8.33105c-3.36328 3.56934 -6.08398 7.99121 -8.08496 13.1445c-0.661133 1.70312 -1.2207 3.31641 -1.69531 4.9043h-14.5137v15h12.2158
c-0.0498047 1.55664 -0.0732422 3.19922 -0.0732422 4.44824c0 1.23926 0.0224609 2.45703 0.0693359 3.6543l0.0283203 0.814453c0.000976562 0.0283203 0.000976562 0.0556641 0.00292969 0.0839844h-9.24316v14.9971h11.3936
c0.576172 2.03516 1.27539 4.0293 2.10449 6.02148c2.07324 4.97363 4.82031 9.25879 8.16309 12.7344c3.44629 3.5791 7.53516 6.32129 12.1562 8.14941c4.49707 1.7793 9.4834 2.68066 14.8203 2.68066c3.19043 0 6.14844 -0.282227 8.79102 -0.841797
c2.58203 -0.545898 4.91992 -1.24805 6.9541 -2.08887c2.08691 -0.866211 3.93945 -1.8457 5.5127 -2.91602c1.40234 -0.957031 2.56836 -1.83887 3.56836 -2.7002c0.926758 -0.799805 1.65918 -1.4668 2.20801 -2.00293l-10.4863 -10.7246
c-0.375 0.367188 -0.880859 0.820312 -1.51172 1.36523c-0.558594 0.479492 -1.30957 1.04199 -2.22656 1.66895c-0.72168 0.491211 -1.66504 0.979492 -2.80176 1.45117c-1.18164 0.488281 -2.63672 0.917969 -4.31738 1.27344
c-1.62402 0.342773 -3.54004 0.517578 -5.69043 0.517578c-3.43945 0 -6.57031 -0.547852 -9.30176 -1.62891c-2.64746 -1.04785 -4.89258 -2.55371 -6.86523 -4.60254c-2.04785 -2.12695 -3.77246 -4.85352 -5.12598 -8.10254
c-0.0341797 -0.0839844 -0.0683594 -0.167969 -0.103516 -0.250977h29.7588v-15h-32.749c-0.0078125 -0.204102 -0.0136719 -0.40332 -0.0195312 -0.59082l-0.0322266 -0.875c-0.0390625 -1.0166 -0.0585938 -2.04297 -0.0585938 -3.08496
c0 -1.25977 0.0292969 -2.97949 0.0830078 -4.44922h31.2764v-15h-28.0977c1.26855 -3.11133 2.88379 -5.71777 4.80566 -7.75684c1.97559 -2.09473 4.23145 -3.63672 6.89355 -4.71387c2.73828 -1.10547 5.86133 -1.66699 9.28223 -1.66699
c2.30566 0 4.31836 0.200195 5.98828 0.595703c1.73535 0.40918 3.24902 0.913086 4.49805 1.5c1.20898 0.567383 2.21777 1.15918 2.99316 1.7627c1.03027 0.799805 1.90039 1.53027 2.58594 2.17383c0.730469 0.683594 1.30957 1.24707 1.7334 1.69629l10.8818 -10.3262
c-0.582031 -0.613281 -1.36816 -1.38867 -2.36133 -2.31934c-1.03711 -0.97168 -2.23047 -1.97949 -3.64648 -3.07812c-1.65039 -1.2793 -3.60742 -2.4541 -5.82031 -3.49121c-2.18652 -1.02539 -4.67969 -1.87109 -7.41309 -2.51562
c-2.79395 -0.665039 -5.97168 -1.00098 -9.4375 -1.00098zM45 120v30h150v-30h-150zM52.5 -15v15h52.5v-15h-52.5zM52.5 15v15h52.5v-15h-52.5zM52.5 45v15h52.5v-15h-52.5zM52.5 90v15h135v-15h-135zM30 -45h180v210h-180v-210zM225 -60h-210v240h210v-240z" />
    <glyph glyph-name="uniE046" unicode="&#xe046;" 
d="M117.555 31.6504zM66.0371 -31.2432c-2.9707 0 -5.79688 0.229492 -8.39941 0.664062c-2.48535 0.416016 -4.59668 2.05176 -5.61914 4.35449c-1.02148 2.30371 -0.819336 4.9668 0.540039 7.08887l1.60352 2.50391c4.12891 6.36621 10.3857 12.2998 16.8076 17.4775
c-0.772461 0.537109 -1.50293 1.17676 -2.17676 1.93262c-1.94238 2.17773 -4.01367 6.12598 -2.85449 12.5654c3.10645 17.2344 27.626 24.7559 38.0234 27.1904c11.2998 2.64453 19.3633 3.32129 24.6553 -1.48242c2.18164 -1.97656 4.60352 -5.65137 3.7666 -11.9199
c-0.875977 -6.56738 -5.1084 -10.3604 -8.50977 -13.4092c-1.57422 -1.41113 -3.0625 -2.74512 -4.11816 -4.23145c-2.39746 -3.37598 -7.0791 -4.17285 -10.457 -1.77441c-3.37793 2.39746 -4.17285 7.0791 -1.77441 10.457
c2.02637 2.85449 4.41797 4.99805 6.33789 6.71973c1.19531 1.07129 2.13672 1.93066 2.76855 2.65625c-1.78516 -0.128906 -4.66211 -0.546875 -9.25 -1.62109c-14.082 -3.29688 -25.082 -9.45215 -26.5771 -14.7959c1.4502 -0.0517578 3.40039 0.0742188 4.63281 0.154297
c1.87891 0.121094 3.82129 0.24707 5.62988 0.130859c3.18652 -0.203125 5.89355 -2.40039 6.75 -5.47559c0.855469 -3.0752 -0.330078 -6.35547 -2.95312 -8.17383c-5.74805 -3.9834 -13.4102 -9.29492 -19.7002 -15.0566c7.27539 1.46875 14.748 4.67578 20.3604 9.87012
c2.49902 2.31152 6.24121 2.65234 9.11523 0.826172c2.41016 -1.53125 3.70215 -4.2627 3.44824 -7.01855c2.06445 0.313477 5.70801 1.95898 8.31152 7.05469c1.55566 3.04199 4.97266 4.64453 8.30371 3.90918c3.33594 -0.741211 5.75 -3.64062 5.87109 -7.05469
c0.0419922 -1.18945 0.178711 -1.97363 0.304688 -2.46094c2.69434 0.513672 8.70117 4.26074 12.0303 8.56152c1.91699 2.47949 5.17676 3.50586 8.16699 2.56836c2.99316 -0.93457 5.08691 -3.62988 5.25293 -6.76074
c0.00976562 -0.179688 0.0214844 -0.347656 0.0351562 -0.503906c3.26855 1.29883 8.72656 5.10742 11.3174 6.91504c3.47266 2.42188 6.21387 4.33594 8.66211 5.23438c2.02051 0.741211 4.26367 0.579102 6.15625 -0.445312
c1.89258 -1.02539 3.25488 -2.81543 3.73828 -4.91406c2.19434 -9.54688 0.0371094 -13.5615 -3.96289 -19.833c-2.22949 -3.49023 -6.88086 -4.54199 -10.373 -2.3125c-1.79492 1.14551 -2.94238 2.92383 -3.33105 4.85352
c-6.50586 -3.92188 -13.4863 -6.67188 -19.6191 -3.67871c-0.832031 0.40625 -1.71094 0.953125 -2.56641 1.69141c-5.99512 -4.44629 -13.752 -7.98438 -20.7002 -5.74609c-1.34375 0.433594 -3.03516 1.21484 -4.65137 2.62207
c-6.54395 -4.8623 -14.2617 -5.92188 -20.0635 -3.53711c-1.53906 0.630859 -2.88574 1.48438 -4.02344 2.51074c-9.85742 -5.82715 -21.1543 -8.30664 -30.9092 -8.30664zM45 60h150v45h-150v-45zM195 120h-150v30h150v-30zM30 -45h180v210h-180v-210zM225 -60h-210v240
h210v-240zM135 90v-15h-75v15h75zM150 90h30v-15h-30v15z" />
    <glyph glyph-name="uniE047" unicode="&#xe047;" 
d="M195 0h-150v105h150v-105zM135 -30v15h60v-15h-60zM195 120h-150v30h150v-30zM30 -45h180v210h-180v-210zM225 -60h-210v240h210v-240zM60 30v-15h75v15h-75zM60 45h75v15h-75v-15zM60 75h75v15h-75v-15zM150 90v-15h30v15h-30zM180 60h-30v-15h30v15zM180 30h-30v-15h30
v15z" />
    <glyph glyph-name="uniE048" unicode="&#xe048;" 
d="M105 -15h75v15h-75v-15zM195 -30h-105v45h105v-45zM195 120h-150v30h150v-30zM195 90h-45v15h45v-15zM195 60h-45v15h45v-15zM195 30h-45v15h45v-15zM120 90h-75v15h75v-15zM105 60h-60v15h60v-15zM120 30h-75v15h75v-15zM30 -45h180v210h-180v-210zM225 -60h-210v240
h210v-240z" />
    <glyph glyph-name="uniE049" unicode="&#xe049;" 
d="M195 0h-150v105h150v-105zM135 -30v15h60v-15h-60zM195 120h-150v30h150v-30zM30 -45h180v210h-180v-210zM225 -60h-210v240h210v-240zM60 30v-15h75v15h-75zM60 45h75v15h-75v-15zM60 75h75v15h-75v-15zM150 90v-15h30v15h-30zM180 60h-30v-15h30v15zM180 30h-30v-15h30
v15z" />
    <glyph glyph-name="uniE04A" unicode="&#xe04a;" 
d="M175.999 140.502c0.0166016 -0.0146484 0.0322266 -0.0302734 0.0498047 -0.0449219c-0.0166016 0.0146484 -0.0332031 0.0302734 -0.0498047 0.0449219zM149.849 131.104c-1.22754 -0.532227 -2.24121 -1.17871 -3.01172 -1.91992
c-0.732422 -0.703125 -1.25 -1.45996 -1.58105 -2.31055c-0.355469 -0.916016 -0.511719 -1.83105 -0.475586 -2.79883c0.0390625 -1.05371 0.230469 -1.90723 0.538086 -2.40527c0.460938 -0.743164 1.05176 -1.35156 1.81055 -1.86621
c0.794922 -0.540039 1.70703 -1.01855 2.71973 -1.43164v12.7324zM164.849 98.082v-16.0498c0.671875 0.451172 1.27051 0.946289 1.80762 1.49219c1.07227 1.09082 1.84473 2.29688 2.36523 3.68848c0.542969 1.45312 0.775391 2.99414 0.712891 4.71191
c-0.0498047 1.32227 -0.301758 2.37695 -0.710938 2.96973c-0.642578 0.926758 -1.46582 1.68457 -2.51758 2.3125c-0.521484 0.310547 -1.07422 0.603516 -1.65723 0.875zM164.849 55.5h-15v8.89453c-0.998047 0.09375 -1.95898 0.222656 -2.87988 0.388672
c-2.50684 0.455078 -4.86328 1.1377 -7.00684 2.03125c-2.21289 0.922852 -4.29395 2.10352 -6.18848 3.50586c-1.69531 1.25195 -3.35742 2.68164 -4.92969 4.24023l10.5586 10.6543c1.0625 -1.05176 2.16895 -2.00488 3.29297 -2.83594
c0.927734 -0.6875 1.94824 -1.26465 3.04004 -1.71973c1.14648 -0.478516 2.45898 -0.853516 3.89844 -1.11426c0.0703125 -0.0117188 0.141602 -0.0253906 0.212891 -0.0361328v23.0703c-1.27344 0.380859 -2.51953 0.77832 -3.73145 1.1875
c-2.73145 0.922852 -5.22461 2.14258 -7.40918 3.62402c-2.50293 1.69727 -4.57129 3.84473 -6.1416 6.38281c-1.7041 2.75098 -2.63867 6.03125 -2.77734 9.74902c-0.112305 3.00879 0.388672 5.96777 1.4873 8.79102c1.12305 2.88867 2.86133 5.47461 5.16895 7.69043
c2.19824 2.1123 4.89551 3.83105 8.0127 5.10742c1.66992 0.682617 3.47266 1.21094 5.39062 1.57812v7.81055h15v-8.17188c0.258789 -0.0703125 0.511719 -0.145508 0.762695 -0.225586c2.48047 -0.776367 4.54297 -1.65723 6.30273 -2.69238
c1.64648 -0.966797 2.95605 -1.89258 3.99609 -2.8252c0.706055 -0.555664 3.56543 -2.59863 5.90723 -4.24219l-8.62109 -12.2764c-6.27148 4.4043 -6.96094 5.03906 -7.29297 5.34473c-0.0390625 0.0341797 -0.311523 0.280273 -1.05273 0.744141v-16.1729
c0.319336 -0.09375 0.638672 -0.1875 0.957031 -0.28125c3.06152 -0.904297 5.88086 -2.11914 8.3877 -3.61426c2.89551 -1.72852 5.30371 -3.96777 7.16602 -6.65918c2.07422 -3 3.20703 -6.68359 3.36426 -10.9482
c0.134766 -3.68066 -0.419922 -7.21777 -1.65039 -10.5137c-1.25391 -3.3584 -3.17871 -6.37207 -5.7207 -8.95605c-2.49023 -2.53418 -5.55566 -4.5918 -9.10938 -6.1123c-1.08594 -0.46582 -2.21875 -0.87207 -3.39453 -1.2168v-10.1807zM90 45h30v-23.1631
l37.624 23.1631h67.376v120h-135v-120zM105 -5.0127v35.0127h-30v150h165v-150h-78.1289zM141.753 0l23.2471 14.3115v-44.3115h-71.9746l24.3643 15h32.6104v15h-8.24707zM90 -30h-60v45h30h30v-15h-45v-15h45v-15zM60 90h-30v30h30v-30zM60 45v-15h-30v15h30zM60 60h-30
v15h30v-15zM180 15h15v-75h-195v210h60v-15h-45v-180h165v60z" />
    <glyph glyph-name="uniE04B" unicode="&#xe04b;" 
d="M168.896 59.2725c-5.04785 0 -9.77539 0.875977 -14.0508 2.60449c-4.39062 1.77441 -8.26465 4.42285 -11.5186 7.87305c-3.17188 3.36328 -5.7373 7.53125 -7.62305 12.3896c-0.568359 1.46289 -1.05664 2.85449 -1.47559 4.22168h-13.1025v15h10.8115
c-0.0341797 1.2832 -0.0517578 2.58691 -0.0517578 3.60742c0 1.1582 0.0205078 2.29785 0.0644531 3.41699l0.00878906 0.286133h-8.0459v15h10.1943c0.518555 1.7793 1.1377 3.52539 1.86523 5.27246c1.95508 4.6875 4.54395 8.72559 7.69824 12.0029
c3.25488 3.38086 7.11914 5.97168 11.4854 7.7002c4.24414 1.67773 8.94336 2.52832 13.9717 2.52832c3.00098 0 5.78613 -0.266602 8.2793 -0.791992c2.43652 -0.515625 4.6416 -1.17871 6.56152 -1.97266c1.96875 -0.81543 3.72266 -1.74414 5.21484 -2.75781
c1.3252 -0.905273 2.4209 -1.73535 3.36621 -2.54688c0.87207 -0.751953 1.56055 -1.37891 2.07422 -1.88281l-10.4766 -10.7344c-0.34375 0.335938 -0.807617 0.751953 -1.38477 1.25c-0.50293 0.433594 -1.18652 0.944336 -2.02539 1.5166
c-0.638672 0.43457 -1.48438 0.873047 -2.50586 1.2959c-1.06836 0.442383 -2.38965 0.831055 -3.92188 1.15625c-1.4707 0.310547 -3.2168 0.467773 -5.18066 0.467773c-3.13086 0 -5.97559 -0.498047 -8.4541 -1.47754
c-2.3877 -0.944336 -4.41406 -2.30371 -6.19531 -4.15332c-1.75195 -1.82129 -3.24707 -4.13086 -4.44531 -6.87305h26.8711v-15h-29.9355l-0.0302734 -0.859375c-0.0361328 -0.935547 -0.0537109 -1.88086 -0.0537109 -2.84375
c0 -1.02441 0.0195312 -2.375 0.0585938 -3.60742h28.5645v-15h-25.3232c1.10352 -2.5127 2.46484 -4.63574 4.05469 -6.32129c1.7832 -1.89258 3.81836 -3.2832 6.22363 -4.25586c2.48047 -1.00195 5.31738 -1.50977 8.43066 -1.50977
c2.10352 0 3.93457 0.180664 5.44531 0.538086c1.58008 0.373047 2.9502 0.831055 4.07715 1.35742c1.09082 0.511719 1.99316 1.04297 2.68457 1.57812c0.944336 0.732422 1.74023 1.39941 2.36426 1.98633c0.671875 0.62793 1.20117 1.14453 1.5918 1.55469
l10.8857 -10.3193c-0.545898 -0.578125 -1.28613 -1.30664 -2.2207 -2.18164c-0.973633 -0.913086 -2.09473 -1.86133 -3.42676 -2.89355c-1.56445 -1.21289 -3.4209 -2.32617 -5.5127 -3.30664c-2.05859 -0.964844 -4.40918 -1.7627 -6.98828 -2.37305
c-2.64062 -0.625977 -5.63477 -0.942383 -8.89844 -0.942383zM90 45h30v-23.1631l37.624 23.1631h67.376v120h-135v-120zM105 -5.0127v35.0127h-30v150h165v-150h-78.1289zM141.753 0l23.2471 14.3115v-44.3115h-71.9746l24.3643 15h32.6104v15h-8.24707zM90 -30h-60v45h30
h30v-15h-45v-15h45v-15zM60 90h-30v30h30v-30zM60 45v-15h-30v15h30zM60 60h-30v15h30v-15zM180 15h15v-75h-195v210h60v-15h-45v-180h165v60z" />
    <glyph glyph-name="uniE04C" unicode="&#xe04c;" 
d="M120 -60c-66.168 0 -120 53.832 -120 120s53.832 120 120 120s120 -53.832 120 -120s-53.832 -120 -120 -120zM120.406 71.8066c-9.99707 0 -16.2158 -7.77051 -16.9922 -15.0811c-0.542969 -5.11816 0.892578 -9.92578 4.04297 -13.5371
c3.13477 -3.5957 7.72461 -5.7334 12.5938 -5.86523l0.474609 -0.00585938c8.01855 0 16.7266 5.97266 17.0547 17.0439c0.271484 9.05273 -6.62402 16.6904 -15.6973 17.3867c-0.494141 0.0390625 -0.990234 0.0585938 -1.47656 0.0585938zM57.4771 -17.3325
c17.0936 -13.864 38.8561 -22.1792 62.5229 -22.1792c23.8454 0 45.7576 8.44098 62.909 22.4936c-16.408 12.7082 -37.3307 19.1402 -62.3329 19.1402c-25.2084 0 -46.8324 -6.69652 -63.0991 -19.4546zM201.847 3.52971c10.8586 15.7093 17.3214 34.682 17.5939 55.1227
c-1.30944 -0.0323389 -2.69466 -0.0654499 -4.12481 -0.0997051c-8.35254 -0.200195 -18.7441 -0.447266 -21.3398 -0.762695c-11.0635 -1.34375 -22.6123 -3.44336 -32.124 -9.64746c-3.60254 -2.35059 -5.71582 -5.0791 -6.28027 -8.11035
c-0.535156 -2.87012 0.34668 -5.92383 2.61816 -9.07812c4.67188 -6.48633 11.5869 -10.9697 17.7344 -14.499c1.65234 -0.948242 3.44824 -1.83594 5.18555 -2.69434l0.633789 -0.311523c5.89731 -2.90538 14.3668 -7.08101 20.1031 -9.91951zM215.208 88.7886
c-12.3687 40.8788 -50.371 70.7231 -95.2082 70.7231c-44.9057 0 -82.9555 -29.9362 -95.2647 -70.9109c0.465142 0.103881 0.930991 0.204884 1.3975 0.302522c15.3223 3.21777 30.8916 5.33594 46.2725 6.2959c2.92188 0.182617 5.84375 0.389648 8.76465 0.59668
l0.205078 0.0146484c7.49512 0.53418 15.2275 1.08496 22.8945 1.20215c5.95508 0.0908203 12.3809 0.176758 19.0078 0.176758c15.0635 0 27.2832 -0.478516 38.459 -1.50586c2.51172 -0.229492 5.02344 -0.455078 7.53613 -0.677734
c5.98633 -0.53418 12.1768 -1.08496 18.2969 -1.73145c9.72789 -1.03062 18.8585 -2.50977 27.6388 -4.48584zM20.5588 58.6507c0.271602 -20.3467 6.67692 -39.2391 17.446 -54.9061c7.60374 3.5472 20.5433 9.58674 21.4151 10.0161
c1.7334 0.856445 3.52734 1.74219 5.18555 2.69238c6.14648 3.53027 13.0596 8.01172 17.7344 14.499c2.27246 3.15527 3.15234 6.20898 2.61719 9.07812c-0.56543 3.03125 -2.67773 5.75977 -6.28027 8.11035c-9.51172 6.2041 -21.0605 8.30469 -32.123 9.64844
c-2.58984 0.314453 -13.2188 0.5625 -21.7588 0.761719c-1.46911 0.0342964 -2.89192 0.067498 -4.23612 0.0999662z" />
    <glyph glyph-name="uniE04D" unicode="&#xe04d;" 
d="M0 -60v15h240v-15h-240zM206.6 -11.5322c-6.7666 0 -12.7783 2.18555 -13.916 2.62402c-6.53809 2.51855 -80.4688 37.0615 -173.013 83.2256l-0.133789 0.0722656c-1.33789 0.761719 -2.46875 1.77246 -3.38672 3.01758
c-2.73926 3.71387 -2.7373 8.21387 -2.61035 9.97559l0.34668 4.6377c0.786133 10.4883 2.625 35.0459 3.59766 49.9082l0.0166016 0.170898c0.419922 3.60742 3.28027 5.62012 5.72461 6.9707c0.449219 0.24707 0.981445 0.475586 1.8457 0.475586
c1.01562 0 2.59961 -0.321289 5.65039 -1.14648c3.06543 -0.829102 4.22852 -1.17773 4.91797 -1.47754c3.14258 -0.99707 5.66895 -2.76758 7.50781 -5.26172c3.01758 -4.09082 3.71582 -9.29004 4.39062 -14.3174c0.182617 -1.3623 0.353516 -2.63867 0.571289 -3.88379
l0.206055 -1.18457c1.05078 -6.0498 2.13672 -12.3008 3.69727 -18.1953c0 0 0.0332031 -0.0898438 0.149414 -0.248047c0.385742 -0.523438 1.33984 -1.3125 2.60449 -1.89844c10.2266 -4.73828 21.0342 -9.55859 33.0371 -14.7334
c1.7998 -0.776367 3.78516 -1.3125 5.88672 -1.88184c0.616211 -0.166992 1.22461 -0.332031 1.83105 -0.500977c0.0527344 1.05566 0.0917969 2.625 0.140625 4.66309c0.132812 5.50195 0.351562 14.5859 1.2002 26.2842
c1.07617 14.8086 -3.54395 30.6562 -3.59082 30.8135l-0.0527344 0.176758l-0.0234375 0.53418c-0.102539 2.34473 -0.273438 6.26367 2.65137 8.7959c1.125 0.974609 2.58496 1.46875 4.33984 1.46875c2.24805 0 4.71875 -0.820312 6.62109 -1.53516l0.15625 -0.0576172
c2.91992 -1.09375 3.72754 -1.56543 6.73047 -3.32324l0.829102 -0.485352c2.24707 -1.3125 4.18848 -3.06348 5.76562 -5.2041c1.56836 -2.125 2.77441 -4.62988 3.58398 -7.44727c1.01562 -3.52832 2.00293 -7.06543 2.99121 -10.6035
c2.1377 -7.65625 4.34668 -15.5742 6.81445 -23.2441c3.58496 -11.1465 8.89062 -25.5918 11.3926 -32.0791c1.92676 -4.99805 3.95215 -8.90332 6.19043 -11.9385c1.97949 -2.68457 4.12891 -4.66309 6.38672 -5.88281c4.6377 -2.5 14.2939 -7.28418 24.5146 -12.3496
l0.244141 -0.121094c11.7666 -5.83105 23.9326 -11.8594 28.1768 -14.3057c4.14062 -2.38477 7.82812 -5.67773 10.6611 -9.51758c6.29004 -8.5293 6.99023 -17.7314 1.8291 -24.0176c-3.79785 -4.625 -9.3418 -6.97266 -16.4746 -6.97266z" />
    <glyph glyph-name="uniE04E" unicode="&#xe04e;" 
d="M0 -60v15h240v-15h-240zM31.0234 82.0752c85.5146 -42.6562 153.687 -74.5303 159.667 -76.834c0.12793 -0.0498047 12.9814 -4.90625 18.1504 1.38574c2.48926 3.0332 0.607422 7.86719 -1.9834 11.3809c-1.90625 2.58594 -4.39062 4.80273 -7.18359 6.41113
c-3.71191 2.13867 -15.4434 7.95117 -25.7939 13.0791c-9.63184 4.77344 -18.6797 9.25586 -23.1416 11.6611c-3.25977 1.75879 -6.24316 4.4541 -8.86719 8.01074c-2.55664 3.46582 -4.81055 7.77246 -6.88867 13.1641c-2.36035 6.11816 -7.3623 19.7451 -10.7461 30.2646
c-2.33594 7.25781 -4.41211 14.6963 -6.42188 21.8916c-0.916016 3.28613 -1.82812 6.54883 -2.76465 9.80078c-0.459961 1.59863 -1.11133 2.97754 -1.9375 4.09766c-0.744141 1.00879 -1.64551 1.82617 -2.68262 2.43164l-0.776367 0.455078
c-2.66309 1.55957 -2.87988 1.68555 -4.875 2.43066l-0.141602 0.0527344c-0.139648 0.0527344 -0.274414 0.102539 -0.401367 0.148438c1.22168 -4.75488 4.05078 -17.4248 3.14941 -29.8408c-0.773438 -10.6602 -0.97168 -18.9521 -1.0918 -23.9072
c-0.0625 -2.60938 -0.103516 -4.24023 -0.185547 -5.38281c-0.09375 -1.24805 -0.342773 -2.32227 -0.762695 -3.29883l-1.74121 -4.03613l-4.37402 -0.453125c-0.304688 -0.0322266 -0.742188 -0.0498047 -1.06836 -0.0517578l-1.36328 -0.101562l-1.28711 0.391602
c-0.742188 0.21875 -1.49414 0.421875 -2.24512 0.624023c-2.17773 0.589844 -4.42383 1.19727 -6.68457 2.17188c-11.2256 4.84082 -21.333 9.34668 -30.8965 13.7773c-1.4082 0.654297 -4.03613 2.1123 -5.83691 4.55566
c-0.742188 1.00684 -1.27344 2.09082 -1.57324 3.21777c-1.55273 5.86523 -2.59375 11.8613 -3.60156 17.6611l-0.19043 1.09766c-0.220703 1.26562 -0.397461 2.56543 -0.582031 3.94043c-0.478516 3.56445 -0.97168 7.24316 -2.41895 9.20703
c-0.37207 0.503906 -1.04297 1.23145 -2.54102 1.69824l-0.777344 0.288086c-0.592773 0.208008 -2.68652 0.775391 -3.38867 0.96582c-0.461914 0.124023 -0.861328 0.229492 -1.2041 0.316406c-0.942383 -14.1738 -2.61816 -36.5 -3.2627 -45.1016l-0.293945 -3.93652
c-0.078125 -1.07715 0.112305 -2.5293 0.710938 -3.34082c0.117188 -0.151367 0.21875 -0.239258 0.298828 -0.293945zM200.184 -11.5947c-5.26172 0 -10.4951 1.14844 -14.8857 2.83887c-6.14258 2.36719 -75.0986 34.5723 -161.187 77.5176l-0.450195 0.241211
c-1.96094 1.11914 -3.64551 2.62207 -5.00684 4.46875c-3.61523 4.90137 -3.80762 10.4531 -3.59863 13.3262l0.296875 3.97363c0.666992 8.9082 2.44238 32.5703 3.36328 46.6357l0.0419922 0.46875c0.805664 6.90234 6.5459 10.0703 8.43164 11.1113
c3.69434 2.03906 7.14062 1.10547 11.5029 -0.0732422c2.76465 -0.749023 4.09375 -1.13281 5.09668 -1.53613c3.99316 -1.32617 7.36426 -3.73828 9.76367 -6.99023c3.73047 -5.05957 4.51953 -10.9287 5.21582 -16.1084
c0.157227 -1.18066 0.305664 -2.28906 0.493164 -3.37207l0.192383 -1.10059c0.841797 -4.84668 1.70996 -9.83887 2.85254 -14.5381c9.02539 -4.17773 18.5566 -8.43164 29.0879 -12.9814c0.144531 5.18164 0.407227 12.2617 1.03125 20.8711
c0.913086 12.585 -3.06152 26.3076 -3.10254 26.4453l-0.257812 0.87793l-0.0556641 1.24902c-0.113281 2.62012 -0.37793 8.75977 4.56445 13.043c5.77344 5.00391 13.4375 2.125 16.3252 1.03711l0.129883 -0.0478516c3.20703 -1.19922 4.29199 -1.83398 7.18945 -3.53027
l0.785156 -0.460938c2.79883 -1.63379 5.21777 -3.81445 7.18164 -6.47559c1.88867 -2.56152 3.32812 -5.54102 4.28125 -8.85449c0.946289 -3.28809 1.86719 -6.58984 2.79004 -9.89062c1.97656 -7.0791 4.01367 -14.375 6.25879 -21.3555
c3.28809 -10.2256 8.16309 -23.498 10.4629 -29.4619c1.5918 -4.125 3.21582 -7.28223 4.9668 -9.65723c1.28027 -1.73633 2.63477 -3.02051 3.91504 -3.71094c4.23242 -2.2832 13.167 -6.70898 22.626 -11.3955c11.625 -5.76074 22.5566 -11.1758 26.6758 -13.5508
c4.57227 -2.63379 8.6416 -6.2666 11.7676 -10.5059c7.46484 -10.1221 8.05469 -21.8193 1.50293 -29.8008c-5.24121 -6.38867 -12.7725 -8.70703 -20.249 -8.70703z" />
    <glyph glyph-name="uniE04F" unicode="&#xe04f;" 
d="M0 -60v15h240v-15h-240zM53.4199 11.8516c-4.43457 0.123047 -7.83984 2.78516 -9.09668 3.92383l-3.01465 2.73926c-6.79102 6.17578 -24.8262 22.582 -35.6504 32.2412l-0.123047 0.113281c-2.50098 2.4707 -2.33398 5.83398 -1.9082 8.49023
c0.234375 1.4541 0.839844 2.23047 4.94434 5.30859c2.41895 1.81543 3.36719 2.48535 4.00586 2.83496c2.49609 1.70898 5.19922 2.57422 8.0332 2.57422l0.387695 -0.00585938c4.87402 -0.135742 9.20117 -2.66992 13.3867 -5.12109
c1.12891 -0.662109 2.18652 -1.28125 3.24902 -1.84961l1.01074 -0.540039c5.15723 -2.75879 10.4893 -5.61035 15.8311 -7.89941c0.00488281 0.00195312 0.0810547 -0.0175781 0.230469 -0.0224609c0.808594 0 1.92188 0.326172 2.9043 0.830078
c9.5791 4.90918 19.542 10.2002 30.459 16.1729c1.6416 0.896484 3.20898 2.07324 4.86719 3.31641c0.458008 0.34375 0.897461 0.673828 1.33105 0.993164c-0.75293 0.646484 -1.85742 1.55371 -3.27051 2.71484c-4.10254 3.36914 -10.8037 8.86816 -19.0898 16.3691
c-10.4795 9.48633 -25.0791 15.3105 -25.2256 15.3682l-0.175781 0.0683594l-0.425781 0.304688c-1.83789 1.30957 -4.90918 3.50293 -5.09863 7.23926c-0.1875 3.67969 3.19922 6.25781 6.53516 8.29492l0.132812 0.0810547
c2.54785 1.56152 3.37891 1.88965 6.47168 3.11816l0.84668 0.335938c2.15527 0.858398 4.44531 1.29297 6.80371 1.29297l0.53418 -0.00683594c2.53223 -0.0712891 5.13477 -0.639648 7.7373 -1.68945c3.21387 -1.29395 6.41992 -2.61621 9.62695 -3.9375
c7.1084 -2.92969 14.3594 -5.91895 21.5547 -8.56152c10.4883 -3.85254 24.4473 -8.34375 30.7832 -10.2695c4.87598 -1.48145 8.98926 -2.25098 12.5762 -2.35156c0.255859 -0.0078125 0.510742 -0.0107422 0.762695 -0.0107422c2.8418 0 5.31641 0.453125 7.35742 1.34863
c4.6084 2.01855 13.8906 6.47559 23.7188 11.1924l0.140625 0.0683594c11.3057 5.42676 22.9961 11.0381 27.333 12.7949c3.94629 1.59863 8.28906 2.44336 12.5566 2.44336c0.299805 0 0.599609 -0.00488281 0.898438 -0.0136719
c10.1504 -0.282227 17.5166 -5.19043 19.2227 -12.8096c3.21094 -14.3535 -12.7861 -24.4072 -14.6211 -25.5068c-5.73828 -3.4375 -75.1035 -38.7148 -164.097 -81.1377l-0.166016 -0.0751953c-1.25 -0.510742 -2.58203 -0.770508 -3.95898 -0.770508z" />
    <glyph glyph-name="uniE050" unicode="&#xe050;" 
d="M0 -60v15h240v-15h-240zM15.8877 56.9043c10.5811 -9.46094 27.1514 -24.5332 33.5332 -30.3379l2.91699 -2.65039c0.803711 -0.729492 2.0625 -1.47168 3.07227 -1.5c0.182617 -0.00585938 0.314453 0.0175781 0.40625 0.046875
c86.292 41.1367 153.363 75.2266 158.86 78.5186c0.119141 0.0703125 11.8594 7.21094 10.082 15.1562c-0.856445 3.8291 -5.8252 5.32324 -10.1885 5.44434c-3.20117 0.0966797 -6.48926 -0.501953 -9.47363 -1.71289
c-3.96191 -1.60449 -15.7266 -7.25098 -26.1064 -12.2334l-0.134766 -0.0644531c-9.64453 -4.63086 -18.752 -9.00195 -23.3818 -11.0312c-3.3916 -1.48633 -7.35059 -2.18848 -11.7725 -2.05664c-4.30664 0.120117 -9.08789 0.996094 -14.6152 2.67578
c-6.26465 1.90527 -20.0752 6.34863 -30.4658 10.1641c-7.17285 2.63379 -14.3174 5.5791 -21.2266 8.42773c-3.19434 1.31641 -6.29492 2.59277 -9.40332 3.8457c-1.54297 0.62207 -3.0293 0.957031 -4.42285 0.996094
c-1.24707 0.0253906 -2.45312 -0.173828 -3.57031 -0.618164l-0.825195 -0.328125c-2.87402 -1.14062 -3.10742 -1.2334 -4.92773 -2.34766l-0.120117 -0.0742188c-0.129883 -0.0791016 -0.254883 -0.155273 -0.373047 -0.230469
c4.49805 -1.96387 16.2236 -7.53418 25.4531 -15.8896c7.9082 -7.15918 14.3301 -12.4307 18.167 -15.5791c2.01172 -1.65332 3.27637 -2.68945 4.12598 -3.45996c0.90918 -0.822266 1.59766 -1.66992 2.10938 -2.59277l2.16016 -3.89355l-2.38477 -3.76074
c-0.161133 -0.251953 -0.416992 -0.607422 -0.607422 -0.853516l-0.759766 -1.13867l-1.09277 -0.759766c-0.615234 -0.441406 -1.22266 -0.897461 -1.83203 -1.35352c-1.84375 -1.38281 -3.70312 -2.77832 -5.86914 -3.96094
c-10.6963 -5.85352 -20.4707 -11.042 -29.8711 -15.8613c-1.37988 -0.708008 -4.14746 -1.88379 -7.18164 -1.7959c-1.25195 0.0322266 -2.43945 0.28418 -3.51758 0.746094c-5.5625 2.38184 -10.9326 5.25293 -16.124 8.03027l-0.980469 0.523438
c-1.13574 0.608398 -2.2666 1.26758 -3.46387 1.96875c-3.10547 1.81738 -6.30859 3.69434 -8.74805 3.76172c-0.625 0.0214844 -1.6123 -0.0634766 -2.9043 -0.955078l-0.702148 -0.432617c-0.351562 -0.224609 -1.31055 -0.923828 -2.84766 -2.07715
c-0.381836 -0.288086 -0.710938 -0.539062 -0.992188 -0.755859zM55.4688 7.41406c-0.15918 0 -0.318359 0.00195312 -0.478516 0.00683594c-6.0918 0.168945 -10.583 3.4375 -12.7168 5.37109l-2.94629 2.67578c-6.60645 6.01074 -24.1543 21.9736 -34.6768 31.3633
l-0.34375 0.321289c-4.94238 4.88379 -3.90625 11.3584 -3.56543 13.4854c0.669922 4.16992 3.52637 6.31055 7.13965 9.02051c2.29199 1.71973 3.4082 2.52637 4.34863 3.07031c3.50391 2.33105 7.47168 3.50293 11.5215 3.38867
c6.2832 -0.173828 11.3936 -3.16602 15.9033 -5.80762c1.02832 -0.603516 1.99316 -1.16992 2.96094 -1.6875l0.983398 -0.525391c4.3418 -2.32129 8.80957 -4.71094 13.2158 -6.70312c8.86914 4.5498 18.0898 9.44238 28.1377 14.9297
c-3.99219 3.30273 -9.41797 7.875 -15.8115 13.6602c-9.41797 8.52637 -22.6074 13.7822 -22.7412 13.835l-0.856445 0.336914l-1.01562 0.724609c-2.1377 1.52539 -7.14258 5.09668 -7.47266 11.6309c-0.386719 7.63086 6.59961 11.8965 9.23047 13.5029
l0.111328 0.0673828c2.93359 1.79785 4.10547 2.26074 7.23438 3.50488l0.819336 0.325195c3.02246 1.20312 6.23242 1.77246 9.53125 1.67383c3.18262 -0.0888672 6.41504 -0.787109 9.61426 -2.07715c3.14258 -1.2666 6.2793 -2.55957 9.41699 -3.85254
c6.87305 -2.83203 13.8799 -5.7207 20.7783 -8.25391c10.0967 -3.70801 23.5488 -8.03613 29.6562 -9.89258c4.23047 -1.28613 7.7207 -1.95215 10.6699 -2.0332c2.16113 -0.0546875 4.00195 0.217773 5.33398 0.801758c4.3916 1.92383 13.3857 6.24121 22.9062 10.8115
l0.139648 0.0664062c11.6055 5.57031 22.5674 10.833 26.9658 12.6133c4.8877 1.97949 10.248 2.95605 15.5215 2.80469c12.5742 -0.349609 22.1553 -7.08594 24.4111 -17.1631c3.07324 -13.7383 -7.24219 -25.4453 -17.0098 -31.2988
c-5.64941 -3.38379 -73.4834 -37.8955 -160.32 -79.291l-0.469727 -0.208984c-1.94238 -0.792969 -4.00195 -1.19727 -6.12695 -1.19727z" />
    <glyph glyph-name="uniE051" unicode="&#xe051;" 
d="M217.5 -21.3281c-6.76465 0 -22.5 2.92285 -22.5 30v22.6602c0 7.23687 -7.63348 11.0233 -15 12.7921v-104.124h-165v215.032c0 13.79 11.1777 24.9678 24.9678 24.9678h115.064c13.79 0 24.9678 -11.1777 24.9678 -24.9678v-95.8034
c15.1743 -3.01939 30 -12.4511 30 -27.8274v-22.7744c0 -15 5.25586 -15 7.5 -15c2.80469 0 7.5 0 7.5 15v50.1791l-28.5 28.3219v35.1241l-13.5537 13.0703l12.1064 10.6064l44.9473 -44.9473v-92.3096c0 -24.7949 -12.2354 -30 -22.5 -30zM150 75v60h-105v-60h105z
M211.5 107.787v-14.4843l13.5 -13.4156v14.8814z" />
    <glyph glyph-name="uniE052" unicode="&#xe052;" 
d="M217.5 -22.5c-6.76465 0 -22.5 2.92383 -22.5 30v22.5c0 8.61958 -7.76715 12.6317 -15 14.1818v-104.182h-165v217.376c0 12.4736 10.1504 22.624 22.624 22.624h119.75c12.4756 0 22.626 -10.1504 22.626 -22.624v-97.9352c15.877 -2.38882 30 -12.3998 30 -29.4408
v-22.5c0 -15 5.25586 -15 7.5 -15c2.80469 0 7.5 0 7.5 15v49.3926l-30 30.0009v37.5l-10.5537 10.5537l10.6064 10.6064l44.9473 -44.9473v-93.1064c0 -24.7949 -12.2354 -30 -22.5 -30zM60 90h75v45h-75v-45zM150 75h-105v75h105v-75zM30 -45h135v202.376
c0 4.2041 -3.41992 7.62402 -7.62402 7.62402h-119.752c-4.2041 0 -7.62402 -3.41992 -7.62402 -7.62402v-202.376zM210 109.394v-16.2871l15 -14.9995v16.2866z" />
    <glyph glyph-name="uniE053" unicode="&#xe053;" 
d="M15.042 33.9355l-0.0419922 0.00976562v85.5088h61.7038l12.2389 15.4092h-62.5071l46.5605 45.1367h51.7969h41.6475h47.8447l-43.6357 -43.6367l-3.19531 -1.5h-35.5457l-11.7889 -15.4092h44.3346v-82.6953c-3.17383 -0.21582 -6.36719 -0.613281 -9.54785 -1.23242
c-7.92285 -1.54199 -15.6328 -2.96875 -22.8203 -3.46973c-13.9023 -0.967773 -28.1738 -1.63379 -42.0781 -2.28125c-5.22461 -0.243164 -10.4492 -0.486328 -15.6709 -0.746094c-9.52148 -0.472656 -17.5713 -4.34277 -22.9277 -10.582
c-0.644531 0.40918 -1.29102 0.845703 -2.0293 1.34375c-2.94434 1.9873 -6.6084 4.46094 -12.6279 6.82031l-2.59863 1.0293c-5.6875 2.26074 -12.1338 4.82129 -19.1113 6.29492zM179.863 122.454l1.5 3.19531l43.6367 43.6357v-146.619l-4.8252 -4.47266
c-1.33789 0.956055 -2.66406 1.91113 -4.01562 2.86523c-11.8857 8.38184 -23.8457 13.3721 -36.2959 15.1455v86.25zM128.177 -60c-9.99219 0 -20.7051 2.64941 -32.751 8.09961c-3.17578 1.43555 -6.09375 2.73926 -8.81836 3.95898
c-14.0088 6.25781 -23.2627 10.3916 -36.5957 18.916c-7.70996 4.92969 -14.9609 10.2305 -21.9756 15.3555c-6.77637 4.95312 -13.7832 10.0762 -21.1748 14.8389l-0.161133 0.103516c-0.758789 0.485352 -1.7041 1.08887 -2.24707 2.05762
c-0.258789 0.463867 -0.808594 0.836914 -1.44434 1.27051c-1.62402 1.1084 -4.08008 2.78418 -2.49902 7.45898c1.08887 3.22266 3.34375 4.9248 6.51758 4.9248c1.32324 0 2.59082 -0.282227 3.60938 -0.508789l0.538086 -0.118164
c5.62793 -1.18945 11.0742 -3.35352 16.3408 -5.44629c0.891602 -0.354492 1.78223 -0.708008 2.67188 -1.05566c4.16504 -1.63281 6.57617 -3.25977 9.12598 -4.98242c1.90039 -1.2832 3.86719 -2.61133 6.75 -4.04492c3.19336 -1.58984 6.29102 -6.69043 7.37891 -9.63574
c1.90332 -5.15723 10.2324 -10.8438 16.5039 -11.2686l-0.0175781 -0.262695c5.05664 -0.893555 31.6006 -3.9043 57.8154 -3.9043c4.81641 0 9.43555 0.102539 13.7344 0.301758c2.72656 0.125977 5.90723 1.31836 8.10156 3.03906
c0.682617 0.535156 1.33008 3.48145 0.9375 4.25977c-1.54785 1.89355 -4.4248 3.99609 -6.8584 4.25586c-2.37012 0.251953 -5.00195 0.375 -8.04395 0.375c-1.98926 0 -3.83105 -0.0517578 -5.45605 -0.0966797c-1.22363 -0.0322266 -2.30371 -0.0625 -3.1875 -0.0644531
c-3.78906 -0.199219 -7.68848 -0.294922 -11.917 -0.294922c-4.59473 0 -8.95508 0.112305 -13.1699 0.22168c-4.00488 0.103516 -7.78809 0.201172 -11.5771 0.201172c-1.8291 0 -3.50098 -0.0224609 -5.11621 -0.0693359
c-0.505859 -0.0146484 -1.01465 -0.0224609 -1.52441 -0.0224609c-4.53906 0 -8.9209 0.604492 -12.6719 1.74805c-4.24707 1.29395 -9.73926 3.89648 -8.43945 11.5273c1.01465 5.95312 5.63574 9.57031 12.6787 9.91895
c5.20312 0.258789 10.4092 0.500977 15.6143 0.744141c13.9365 0.649414 28.3486 1.32031 42.4912 2.30566c8.20801 0.571289 16.5146 2.10449 25.0117 3.75879c3.7207 0.724609 7.45215 1.09277 11.0947 1.09277c12.4307 0 24.3193 -4.12207 36.3428 -12.6035
c10.3643 -7.30957 20.4502 -14.7822 29.8066 -21.7705c5.62988 -4.20508 5.45898 -6.20898 1.79102 -11.9463c-2.87988 -4.50488 -5.75098 -8.36523 -8.52734 -12.1006c-3.34668 -4.5 -6.50879 -8.75293 -9.68262 -14.0371
c-0.509766 -0.847656 -2.05957 -3.42871 -4.74023 -3.42871c-1.01172 0 -2.06348 0.375977 -3.12695 1.11914c-5.37305 3.74805 -11.1777 5.49414 -18.2705 5.49414c-5.25293 0 -10.623 -0.943359 -17.0713 -2.36133c-9.06836 -1.99219 -20.1221 -3.68555 -29.0039 -5.04395
c-3.6377 -0.556641 -6.77832 -1.03809 -9.31152 -1.46582c-3.22559 -0.550781 -6.32324 -0.814453 -9.47559 -0.814453z" />
    <glyph glyph-name="uniE054" unicode="&#xe054;" 
d="M70.4268 165l-32.5859 -30h131.553l30 30h-128.967zM22.3594 41.8438c-1.45801 0.326172 -4.07422 0.901367 -7.35938 0.996094v92.1602h0.694336l48.8789 45h160.429v-159.562c-3.81055 2.77539 -7.6748 5.56348 -11.6094 8.33887
c-1.12891 0.795898 -2.25879 1.55176 -3.39062 2.28906v58.1846v65.8721l-30 -30v-35.1436v-46.5322c-4.47949 0.831055 -9.01953 1.25781 -13.6494 1.25781c-0.448242 0 -0.901367 -0.0253906 -1.35059 -0.0322266v30.3281v45h-45.002v-45h-45v45h-44.998v-45v-35.166
c-2.31641 0.727539 -4.71973 1.38867 -7.21973 1.91699zM17.7207 12.0117c0.0332031 -0.0205078 0.0664062 -0.0419922 0.0976562 -0.0625l0.181641 -0.115234c7.11133 -4.58301 13.7695 -9.4502 20.21 -14.1572c6.47852 -4.73535 13.1787 -9.63281 20.2148 -14.1318
c12.0352 -7.69336 20.5049 -11.4766 33.3271 -17.2031l0.334961 -0.150391c2.46973 -1.10352 5.10742 -2.2832 7.96582 -3.57715c10.3008 -4.66113 19.332 -6.92773 27.6123 -6.92773c2.53516 0 5.03125 0.214844 7.62891 0.654297
c2.40625 0.40625 5.38965 0.864258 8.8457 1.39355c8.21875 1.25879 18.4473 2.82324 26.7178 4.6416c6.52051 1.43359 12.0117 2.3877 17.6133 2.3877c7.1416 0 13.4102 -1.63672 19.0742 -4.99023c2.81543 4.50977 5.57617 8.22363 8.4834 12.1328
c2.5293 3.40039 5.13965 6.91113 7.69824 10.9141c0.208008 0.327148 0.385742 0.612305 0.535156 0.859375c-0.117188 0.0917969 -0.244141 0.1875 -0.381836 0.291016c-8.73145 6.52051 -18.1416 13.4932 -27.7793 20.291
c-12.874 9.08105 -25.3799 12.1592 -38.7148 9.55957c-8.20801 -1.59766 -16.2461 -3.08008 -24.3623 -3.64355c-7.4541 -0.519531 -13.8408 -0.277344 -20.0176 -0.0449219c-5.36914 0.202148 -10.4404 0.394531 -16.2393 0.124023l-0.661133 -0.03125
c-4.65332 -0.217773 -9.30469 -0.435547 -13.9551 -0.665039c-2.92969 -0.145508 -4.51367 -3.26074 -4.86426 -5.31836c-0.529297 -3.10254 2.01562 -5.13574 2.71484 -5.37598c0.90918 -0.277344 1.63672 -0.526367 2.27148 -0.744141
c1.49316 -0.512695 1.64941 -0.56543 3.66211 -0.56543c0.405273 0 0.808594 0.00585938 1.20898 0.0175781c1.58594 0.0449219 3.22559 0.0673828 5.01758 0.0673828c3.66602 0 7.25293 -0.0927734 11.0498 -0.19043c3.89355 -0.100586 7.9209 -0.205078 12.1523 -0.205078
c3.83301 0 7.35938 0.0869141 10.7803 0.266602l0.387695 0.0107422c0.769531 0 1.70801 0.0283203 2.77441 0.0566406c1.59766 0.0439453 3.39453 0.09375 5.33594 0.09375c3.12109 0 5.84668 -0.128906 8.33496 -0.394531l-1.58789 -14.915
c-1.95605 0.208984 -4.16309 0.30957 -6.74902 0.30957c-1.78809 0 -3.44336 -0.046875 -4.90625 -0.0869141c-1.14453 -0.0322266 -2.14746 -0.0585938 -2.98926 -0.0634766c-3.62695 -0.1875 -7.35352 -0.279297 -11.3818 -0.279297
c-4.42676 0 -8.55176 0.106445 -12.542 0.209961c-3.69629 0.0966797 -7.18652 0.1875 -10.6592 0.1875c-1.63574 0 -3.13281 -0.0195312 -4.5791 -0.0625c-0.544922 -0.0166016 -1.09375 -0.0244141 -1.64746 -0.0244141c-3.68164 0 -5.53711 0.399414 -7.61621 1.07129
l-0.0078125 -0.133789c-12.1152 0.712891 -22.9395 8.92676 -28.7549 13.3398c-0.864258 0.657227 -1.93066 1.46582 -2.34766 1.73242c-3.07324 1.53906 -5.18359 2.96387 -7.04883 4.22363c-2.21387 1.49414 -3.96094 2.6748 -7.09277 3.90332l-2.54297 1.00488
c-4.24805 1.6875 -8.63086 3.43066 -12.9102 4.4668c0.0341797 -0.0488281 0.0712891 -0.0996094 0.107422 -0.151367zM127.665 -59.3135c-10.4561 0 -21.5117 2.70215 -33.7949 8.26074c-2.83691 1.2832 -5.45215 2.45312 -7.90332 3.54785l-0.333008 0.148438
c-13.4355 6.00098 -22.3125 9.96582 -35.2881 18.2607c-7.43066 4.75098 -14.3213 9.78906 -20.9863 14.6602c-6.26367 4.57715 -12.7422 9.31348 -19.4883 13.6602l-0.155273 0.100586c-0.828125 0.529297 -2.4375 1.55664 -3.7793 3.33398
c-6.88184 4.79883 -6.55762 11.0596 -5.0625 15.4814c2.05859 6.08398 6.99902 9.71582 13.2158 9.71582c2.0625 0 3.83398 -0.394531 5.00684 -0.655273l0.485352 -0.106445c5.84863 -1.23633 11.2549 -3.38574 16.4844 -5.46289l2.47461 -0.979492
c4.67383 -1.83203 7.51074 -3.74707 10.0127 -5.43652c1.65234 -1.11621 3.21289 -2.16992 5.47168 -3.29395c1.31543 -0.655273 2.62207 -1.64551 4.59766 -3.14551c1.06152 -0.805664 2.33594 -1.77246 3.76172 -2.78711
c0.0332031 0.254883 0.0722656 0.509766 0.117188 0.768555c1.39355 8.17871 7.90527 17.2314 18.9062 17.7793c4.66504 0.232422 9.33105 0.450195 13.999 0.666992l0.663086 0.0322266c6.43066 0.299805 12.0605 0.0878906 17.5039 -0.119141
c6.04492 -0.226562 11.7568 -0.443359 18.4092 0.0195312c7.26758 0.505859 14.8066 1.89941 22.5361 3.40332c3.95508 0.771484 7.9375 1.16309 11.833 1.16309c13.2549 0 25.8135 -4.3125 38.3955 -13.1885c9.78516 -6.90137 19.292 -13.9453 28.1094 -20.5283
c10.168 -7.59473 7.69629 -14.7002 3.50977 -21.248c-2.84375 -4.4502 -5.61621 -8.17676 -8.29688 -11.7812c-3.02637 -4.07031 -5.88086 -7.91016 -8.66699 -12.5469c-3.58301 -5.96289 -8.35059 -6.85254 -10.873 -6.85254
c-2.47852 0 -4.97559 0.830078 -7.22461 2.39844c-3.76758 2.62988 -7.72754 3.80273 -12.835 3.80273c-4.25 0 -8.82812 -0.814453 -14.3945 -2.03809c-8.74121 -1.91992 -19.2344 -3.52637 -27.666 -4.81641c-3.36523 -0.516602 -6.27148 -0.959961 -8.61426 -1.35645
c-3.43457 -0.579102 -6.74805 -0.861328 -10.1309 -0.861328zM90 120v-30h15v30h-15z" />
    </font>
</defs>
</svg>
