<?xml version="1.0" encoding="UTF-8"?>
<!DOCTYPE svg PUBLIC "-//W3C//DTD SVG 1.1//EN" "http://www.w3.org/Graphics/SVG/1.1/DTD/svg11.dtd">
<svg version="1.1" id="Layer_1" xmlns="http://www.w3.org/2000/svg" xmlns:xlink="http://www.w3.org/1999/xlink" x="0px" y="0px" width="16px" height="16px" viewBox="0 0 16 16" enable-background="new 0 0 16 16" xml:space="preserve">
  <g id="icon">
    <path d="M0,2h16v12H0V2z" fill="#79A1D5"/>
    <path d="M8,8h-0.894L4.8,5.921V8H3.2V5.921L0.894,8H0v-0.671L1.639,5.75H0v-1.5h1.772L0,2.671V2l0,0h0.894L3.2,3.979V2h1.6v2.079L7.106,2H8v0.671L6.281,4.25H8v1.5H6.361L8,7.279V8z" fill="#FFFFFF"/>
    <path d="M3.076,5.75L0.596,8H0l2.48,-2.25H3.076zM5.52,4.25L8,2h-0.596l-2.48,2.25H5.52zM2.07,4.25L0,2.447V2l2.667,2.25H2.07zM8,8v-0.497L6.063,5.75h-0.596L8,8zM4.534,5.5v2.5H3.467V5.5H0V4.5h3.467V2h1.066v2.5H8v1H4.534L4.534,5.5z" fill="#F3797F"/>
    <rect x="0.5" y="2.5" width="15" height="11" fill="none" stroke="#000000" stroke-width="1" stroke-miterlimit="1" opacity="0.3"/>
    <path d="M11.361,12.518c-0.017,-0.009,-0.034,-0.018,-0.052,-0.027c-0.195,-0.103,-0.49,-0.259,-1.147,-0.909c-0.739,-0.732,-0.953,-1.682,-0.953,-4.237v-0.226l0.215,0.069c0.051,0.016,0.098,0.032,0.143,0.047c0.264,0.088,0.423,0.141,0.753,0.141c0.047,0,0.099,-0.001,0.153,-0.003c0.415,-0.013,0.648,-0.127,0.821,-0.236l0.075,-0.047l0.08,0.036c0.399,0.179,0.699,0.27,0.894,0.27c0.017,0,0.033,-0.001,0.048,-0.002l0.008,-0.001l0.018,0c0.372,0,0.579,-0.061,1.009,-0.243l0.228,-0.097v0.248c0,2.804,-0.345,3.676,-0.98,4.304c-0.637,0.63,-0.917,0.782,-1.142,0.904l-0.094,0.051L11.361,12.518z" fill="#F7CE72"/>
    <path d="M9.497,7.504c0,0.782,-0.047,1.848,0.12,2.465c0.168,0.619,0.207,0.71,0.333,0.926l2.944,-0.022c0.182,-0.311,0.191,-0.504,0.326,-1.001c0.134,-0.496,0.168,-1.6,0.172,-2.423c-0.296,0.148,-0.684,0.253,-1.06,0.207c-0.302,-0.022,-0.58,-0.087,-0.905,-0.259c-0.282,0.159,-0.38,0.231,-0.845,0.25C10.221,7.665,9.928,7.693,9.497,7.504L9.497,7.504z" fill="#FFFFFF"/>
    <path d="M9.957,10.879c0.21,0.415,1.197,1.211,1.486,1.376c0.33,-0.188,1.201,-0.975,1.444,-1.376H9.957L9.957,10.879z" fill="#76B6C9"/>
    <path d="M10.686,9.219c-0.021,0.109,-0.01,0.405,0.067,0.319v0c0.15,-0.174,0.224,-0.529,0.291,-0.649c0.154,0.035,0.152,0.058,0.34,-0.05c-0.253,-0.068,-0.272,-0.062,-0.301,-0.172c0.106,-0.325,0.689,-0.392,0.893,-0.268c0.211,0.12,0.077,0.146,0.366,0.34c0.042,-0.176,-0.163,-0.253,-0.193,-0.384c0.043,-0.101,0.238,-0.081,0.345,-0.196c-0.067,-0.096,-0.277,0.024,-0.369,0.04c-0.33,0.07,-0.78,-0.275,-1.057,-0.166c-0.099,-0.071,-0.12,-0.18,-0.116,-0.328c-0.216,0.18,-0.108,0.367,-0.157,0.455c-0.127,0.217,-0.289,0.433,-0.203,0.718C10.658,9.092,10.707,9.049,10.686,9.219zM10.66,8.869c0.024,-0.012,0.053,-0.003,0.066,0.019c0.013,0.022,0.003,0.05,-0.02,0.062c-0.024,0.012,-0.053,0.003,-0.066,-0.019C10.628,8.909,10.637,8.881,10.66,8.869zM11.719,9.879c0.11,-0.04,0.373,-0.202,0.255,-0.219l0,0c-0.236,-0.031,-0.597,0.093,-0.74,0.101c-0.048,-0.142,-0.026,-0.152,-0.222,-0.248c0.069,0.239,0.085,0.251,0,0.331c-0.351,0.083,-0.712,-0.353,-0.706,-0.581c0,-0.232,0.093,-0.138,0.119,-0.471c-0.181,0.057,-0.146,0.262,-0.249,0.355c-0.115,0.017,-0.196,-0.15,-0.357,-0.177c-0.053,0.104,0.165,0.211,0.227,0.277c0.234,0.23,0.154,0.771,0.396,0.938c-0.013,0.117,-0.102,0.19,-0.238,0.263c0.275,0.081,0.389,-0.103,0.495,-0.109c0.263,-0.01,0.543,0.009,0.757,-0.207C11.618,9.967,11.554,9.95,11.719,9.879zM11.481,10.065c-0.014,0.022,-0.044,0.029,-0.067,0.016c-0.023,-0.013,-0.03,-0.041,-0.017,-0.063c0.014,-0.022,0.044,-0.029,0.067,-0.016C11.487,10.015,11.495,10.043,11.481,10.065zM12.774,9.342c-0.144,-0.207,-0.271,-0.443,-0.579,-0.505c-0.233,-0.047,-0.216,0.014,-0.365,-0.082c-0.093,-0.068,-0.376,-0.197,-0.331,-0.093l0,0c0.093,0.206,0.391,0.434,0.474,0.546c-0.104,0.112,-0.125,0.099,-0.112,0.307c0.182,-0.179,0.185,-0.198,0.302,-0.17c0.256,0.241,0.046,0.757,-0.166,0.869c-0.211,0.12,-0.173,-0.004,-0.49,0.146c0.145,0.117,0.314,-0.017,0.451,0.019c0.075,0.084,-0.036,0.236,0.023,0.379c0.122,-0.011,0.107,-0.242,0.135,-0.326c0.089,-0.307,0.623,-0.521,0.65,-0.803c0.113,-0.05,0.225,-0.016,0.362,0.057C13.06,9.422,12.835,9.424,12.774,9.342zM12.122,8.943c-0.027,0,-0.049,-0.021,-0.049,-0.046c0,-0.025,0.022,-0.046,0.049,-0.046c0.027,0,0.049,0.021,0.049,0.046C12.171,8.922,12.149,8.943,12.122,8.943z" fill="#F8991D"/>
  </g>
</svg>
