<?xml version="1.0" encoding="UTF-8"?>
<!DOCTYPE svg PUBLIC "-//W3C//DTD SVG 1.1//EN" "http://www.w3.org/Graphics/SVG/1.1/DTD/svg11.dtd">
<svg version="1.1" id="Layer_1" xmlns="http://www.w3.org/2000/svg" xmlns:xlink="http://www.w3.org/1999/xlink" x="0px" y="0px" width="16px" height="16px" viewBox="0 0 16 16" enable-background="new 0 0 16 16" xml:space="preserve">
  <g id="icon">
    <rect y="2" width="16" height="12" fill="#FFFFFF"/>
    <path d="M16,14H0v-1.35h16V14zM16,10H0v1.35h16V10zM16,7.35H7.093V8.7H16V7.35zM16,4.65H7.093V6H16V4.65zM16,2H7.093v1.35H16V2zM2.827,2H0v2.65h2.827V2zM7.093,4.65H4.267V2h2.827v2.65H7.093zM2.827,6H0v2.7h2.827V6zM7.093,8.7H4.267V6h2.827v2.7H7.093z" fill="#7BA3D6"/>
    <rect x="0.5" y="2.5" width="15" height="11" fill="none" stroke="#231F20" stroke-width="1" stroke-miterlimit="1" opacity="0.35"/>
  </g>
</svg>
