<?xml version="1.0" encoding="UTF-8"?>
<!DOCTYPE svg PUBLIC "-//W3C//DTD SVG 1.1//EN" "http://www.w3.org/Graphics/SVG/1.1/DTD/svg11.dtd">
<svg version="1.1" id="Layer_1" xmlns="http://www.w3.org/2000/svg" xmlns:xlink="http://www.w3.org/1999/xlink" x="0px" y="0px" width="16px" height="16px" viewBox="0 0 16 16" enable-background="new 0 0 16 16" xml:space="preserve">
  <g id="icon">
    <path d="M0,2h16v12H0V2z" fill="#FFFFFF"/>
    <path d="M6.052,10.95c0,0,-0.076,0.051,-0.151,0.034c-0.076,-0.017,-0.185,0.004,-0.185,0.004l-0.651,-1.122c0,0,-0.35,0.327,-0.67,0.041c0.168,0.05,0.37,-0.286,0.614,-0.143c-0.227,-0.21,-0.665,0.16,-0.884,-0.353c0.303,0.185,0.48,-0.11,0.757,0.076c-0.269,-0.303,-0.665,0.028,-0.825,-0.381c0.244,0.087,0.446,-0.179,0.665,0c-0.185,-0.376,-0.749,0.146,-0.858,-0.485c0.244,0.126,0.513,-0.034,0.665,0.093c-0.286,-0.547,-0.547,0.084,-0.791,-0.716c0.168,0.236,0.404,0.008,0.648,0.379c-0.177,-0.673,-0.656,-0.109,-0.808,-0.9c0.303,-0.101,0.429,0.345,0.673,0.438c-0.151,-0.522,-0.471,-0.37,-0.278,-0.984c0.438,0.219,0.244,0.589,0.387,1.018c0.109,-0.151,-0.034,-0.345,0.042,-0.48c0.076,-0.134,0.118,-0.202,0.093,-0.269c0.395,0.454,-0.084,0.841,-0.042,1.001c0.042,0.16,0.109,0.219,0.109,0.219s-0.042,-0.244,0.042,-0.387c0.084,-0.143,0.219,-0.193,0.21,-0.32c0.092,0.109,0.059,0.362,-0.05,0.488c-0.109,0.126,-0.126,0.438,-0.059,0.547c-0.026,-0.341,0.278,-0.32,0.227,-0.665c0.168,0.034,0.228,0.421,0.042,0.564s-0.042,0.538,-0.042,0.538s0.008,-0.252,0.109,-0.37c0.101,-0.118,0.16,-0.244,0.135,-0.362c0.134,0.109,0.151,0.421,0.059,0.572c-0.092,0.151,-0.235,0.235,-0.092,0.48c-0.017,-0.446,0.286,-0.362,0.278,-0.648c0.177,0.135,0.076,0.421,-0.025,0.514s-0.084,0.303,-0.084,0.303s0.11,-0.152,0.194,-0.211s0.143,-0.227,0.143,-0.227s0.104,0.525,-0.227,0.547C5.413,10.025,5.884,10.748,6.052,10.95z" fill="#63BF80"/>
    <polygon points="11.848,8.655 12.022,8.74 11.07,9.867 11.957,8.182 12.088,8.366 12.337,7.249 11.609,8.078 11.798,8.12 11.134,9.368 11.345,8.485 11.513,8.636 11.513,7.492 10.983,8.46 11.177,8.46 10.803,9.99 10.607,10.359 10.38,10.447 10.288,10.608 10.224,10.616 9.484,11.406 9.857,11.408 9.931,11.775 10.247,11.398 10.133,11.766 10.47,11.605 10.697,11.901 10.958,10.858 10.838,10.632 10.835,10.622 10.902,10.343 12.162,8.836 12.247,9.045 12.748,8.016" fill="#7AA2D6" stroke-linejoin="miter"/>
    <path d="M2.274,7.012H1.5c0,0,0.168,0.034,0.244,0.21s0.55,1.568,0.589,1.735c0.059,0.25,-0.126,0.301,-0.126,0.301h0.766c0,0,-0.219,-0.038,-0.151,-0.301c0.067,-0.263,0.513,-1.567,0.564,-1.727c0.05,-0.16,0.193,-0.219,0.193,-0.219h-0.766c0,0,0.261,0.058,0.185,0.269c-0.076,0.211,-0.412,1.338,-0.412,1.338s-0.379,-1.128,-0.446,-1.338C2.072,7.071,2.274,7.012,2.274,7.012z" fill="#7AA2D6"/>
    <path d="M14.471,7.012h-0.707c0,0,0.137,0.095,0.137,0.278c0,0.186,-0.005,1.588,-0.005,1.723c0,0.177,-0.162,0.246,-0.162,0.246H14.5c0,0,-0.206,-0.107,-0.206,-0.259s0,-1.436,0,-1.751C14.294,7.088,14.471,7.012,14.471,7.012z" fill="#7AA2D6"/>
    <path d="M14.129,4.353c-0.198,0.025,-0.837,0.37,-2.007,0.598c-0.067,-0.05,-0.194,-0.025,-0.396,0.067s-1.169,0.362,-1.439,0.463c-0.269,0.101,-0.411,0.309,-0.379,0.488c0.059,0.32,0.295,0.37,0.21,0.463c-0.084,0.092,-0.336,-0.126,-0.505,-0.025c-0.087,0.052,-0.572,-0.065,-0.584,-0.118c-0.042,-0.185,-0.227,-0.345,-0.227,-0.345s0.143,-0.025,0.177,-0.084c-0.236,-0.135,-0.387,-0.395,-0.387,-0.395s0.151,0.067,0.202,0c-0.194,-0.177,-0.177,-0.581,-0.269,-0.757c-0.093,-0.177,-0.202,-0.311,-0.427,-0.32c-0.225,-0.008,-0.313,0.008,-0.448,0.185c-0.101,-0.008,-0.121,0.109,-0.121,0.109s-0.089,0.008,-0.232,0.034c-0.143,0.025,-0.236,0.202,-0.177,0.362c0.034,-0.092,0.219,-0.109,0.37,-0.126s0.261,0.168,0.202,0.227c-0.059,0.059,-0.076,0.135,-0.109,0.278c-0.034,0.143,-0.282,0.21,-0.282,0.21s0.072,0.076,0.181,0.067c-0.059,0.092,-0.236,0.219,-0.362,0.236c0.076,0.093,0.193,0.076,0.193,0.076s-0.067,0.185,-0.193,0.294c0,0,-0.468,0.119,-0.555,0.067c-0.168,-0.101,-0.421,0.118,-0.505,0.025c-0.084,-0.092,0.151,-0.143,0.21,-0.463c0.033,-0.179,-0.109,-0.387,-0.379,-0.488s-1.237,-0.37,-1.439,-0.463c-0.202,-0.092,-0.328,-0.118,-0.396,-0.067c-1.17,-0.227,-1.809,-0.572,-2.007,-0.598s-0.257,0.303,0.038,0.438c-0.084,0.092,-0.034,0.345,0.219,0.362c-0.101,0.109,0.025,0.336,0.48,0.437c-0.059,0.118,0.067,0.396,0.614,0.488c-0.059,0.168,0.126,0.345,0.539,0.395c-0.076,0.118,0.067,0.303,0.463,0.345c-0.126,0.194,0.21,0.328,0.639,0.32c-0.143,0.084,-0.084,0.32,0.118,0.362c-0.067,0.135,0.118,0.362,0.336,0.328c0.017,0.109,0.168,0.193,0.311,0.092c0,0.143,0.311,0.303,0.404,0.118c0.071,0.071,0.273,0.116,0.41,-0.022c0.006,0.034,0.014,0.066,0.023,0.099c-0.056,0.167,-0.177,0.346,-0.374,0.496c-0.21,0.16,-0.319,0.42,-0.311,0.589c0.008,0.168,-0.059,0.294,-0.16,0.336l0.092,0.034c0,0,-0.151,0.202,-0.235,0.219c-0.084,0.017,-0.488,-0.034,-0.564,0.042c-0.076,0.076,-0.227,0.378,-0.126,0.437s0.143,0.16,0.202,0.219s0.378,-0.034,0.446,-0.093c0.067,-0.059,0.059,-0.353,0.118,-0.387c0.059,-0.034,0.614,-0.286,0.614,-0.286l0.008,0.126c0,0,0.092,-0.11,0.168,-0.143c0.076,-0.034,0.093,-0.194,0.135,-0.269c0.039,-0.07,0.314,-0.315,0.686,-0.394c0.047,0.027,-0.029,0.083,-0.029,0.083c-0.148,-0.033,-0.21,0.16,-0.202,0.235c-0.16,0.017,-0.53,0.53,-0.589,0.707s-0.008,0.253,0.067,0.244c-0.008,0.126,0.093,0.232,0.202,0.196c0.008,0.133,0.084,0.217,0.177,0.208c0.017,0.143,0.101,0.227,0.202,0.202c0.017,0.143,0.126,0.219,0.269,0.177c0.008,0.193,0.151,0.378,0.353,0.168c0.034,0.387,0.513,0.514,0.564,0.026c0.177,0.16,0.404,0.076,0.404,-0.194c0.101,0.076,0.244,-0.025,0.252,-0.177c0.101,0.042,0.185,-0.059,0.185,-0.227c0.109,0.059,0.185,-0.063,0.177,-0.191c0.118,0.04,0.227,-0.078,0.202,-0.213c0.109,0.042,0.185,-0.131,0.05,-0.345c-0.211,-0.336,-0.539,-0.581,-0.539,-0.581s0.051,-0.2,-0.219,-0.239c-0.036,-0.005,-0.076,-0.055,-0.036,-0.078c0.369,0.08,0.642,0.323,0.68,0.393c0.042,0.076,0.059,0.236,0.135,0.269c0.076,0.034,0.168,0.143,0.168,0.143l0.008,-0.126c0,0,0.555,0.252,0.615,0.286c0.058,0.034,0.05,0.328,0.118,0.387c0.068,0.059,0.387,0.151,0.446,0.093c0.059,-0.059,0.101,-0.16,0.202,-0.219c0.101,-0.059,-0.05,-0.362,-0.126,-0.437c-0.076,-0.076,-0.48,-0.025,-0.564,-0.042c-0.084,-0.017,-0.236,-0.219,-0.236,-0.219l0.093,-0.034c-0.101,-0.042,-0.168,-0.168,-0.16,-0.336c0.008,-0.168,-0.101,-0.429,-0.312,-0.589c-0.192,-0.147,-0.312,-0.321,-0.37,-0.486c0.009,-0.036,0.019,-0.072,0.026,-0.109c0.137,0.138,0.339,0.093,0.41,0.022c0.093,0.185,0.404,0.025,0.404,-0.118c0.143,0.101,0.295,0.017,0.312,-0.092c0.219,0.034,0.404,-0.193,0.336,-0.328c0.202,-0.042,0.261,-0.278,0.118,-0.362c0.429,0.008,0.766,-0.126,0.639,-0.32c0.396,-0.042,0.538,-0.227,0.463,-0.345c0.413,-0.05,0.598,-0.227,0.539,-0.395c0.547,-0.092,0.673,-0.37,0.614,-0.488c0.454,-0.101,0.581,-0.328,0.48,-0.437c0.252,-0.017,0.303,-0.269,0.219,-0.362C14.386,4.656,14.326,4.328,14.129,4.353z" fill="#F7CE72"/>
    <path d="M6.377,7.189c0.004,0.406,0.098,0.761,0.243,1.069c0.084,0.178,0.183,0.341,0.294,0.489l0.245,0.289c0.089,0.094,0.18,0.179,0.271,0.257l0.245,0.194c0.104,0.077,0.204,0.144,0.293,0.201c0.043,0.027,0.084,0.053,0.122,0.075c0.038,-0.023,0.079,-0.048,0.122,-0.075c0.083,-0.052,0.175,-0.114,0.271,-0.184l0.245,-0.191c0.099,-0.083,0.198,-0.176,0.295,-0.278l0.245,-0.29c0.11,-0.147,0.209,-0.31,0.293,-0.487c0.145,-0.308,0.239,-0.662,0.243,-1.069H6.377z" fill="#FFFFFF"/>
    <path d="M6.62,7.189v1.069c0.084,0.178,0.183,0.341,0.294,0.489V7.189h0.245v1.847c0.089,0.094,0.18,0.179,0.271,0.257V7.189h0.245v2.298c0.104,0.077,0.204,0.144,0.293,0.201V7.189h0.245v2.499c0.083,-0.052,0.175,-0.114,0.271,-0.184V7.189h0.245v2.124c0.099,-0.083,0.198,-0.176,0.295,-0.278V7.189h0.245v1.556c0.11,-0.147,0.209,-0.31,0.293,-0.487V7.189H6.62z" fill="#F3797F"/>
    <path d="M8.09,5.986c0,0,-0.421,0.22,-0.881,0.22c-0.46,0,-0.833,-0.211,-0.833,-0.211s0,0.749,0,1.169c0,0.04,0.004,0.078,0.006,0.118h3.417c0.002,-0.039,0.006,-0.077,0.006,-0.118c0,-0.421,0,-1.169,0,-1.169s-0.373,0.211,-0.833,0.211C8.512,6.205,8.09,5.986,8.09,5.986z" fill="#7AA2D6"/>
    <rect x="0.5" y="2.5" width="15" height="11" fill="none" stroke="#000000" stroke-width="1" stroke-miterlimit="1" opacity="0.3"/>
  </g>
</svg>
