<?xml version="1.0" encoding="UTF-8"?>
<!DOCTYPE svg PUBLIC "-//W3C//DTD SVG 1.1//EN" "http://www.w3.org/Graphics/SVG/1.1/DTD/svg11.dtd">
<svg version="1.1" id="Layer_1" xmlns="http://www.w3.org/2000/svg" xmlns:xlink="http://www.w3.org/1999/xlink" x="0px" y="0px" width="16px" height="16px" viewBox="0 0 16 16" enable-background="new 0 0 16 16" xml:space="preserve">
  <g id="icon">
    <path d="M0,2h16v12H0V2z" fill="#7AA2D6"/>
    <path d="M8,2.721L6.361,4.25H8v1.5H6.281L8,7.329V8h-0.894L4.8,5.921V8H3.2V6.021L0.894,8H0l0,0v-0.671L1.772,5.75H0v-1.5h1.639L0,2.671V2h0.894L3.2,4.079V2h1.6v2.079L7.106,2H8V2.721z" fill="#FFFFFF"/>
    <path d="M2.48,4.25L0,2h0.596l2.48,2.25H2.48zM4.924,5.75L7.404,8H8L5.52,5.75H4.924zM2.667,5.75L0,8v-0.447L2.07,5.75H2.667zM5.467,4.25h0.596L8,2.497V2L5.467,4.25zM4.533,4.5H8v1H4.533v2.5H3.467V5.5H0V4.5h3.467V2h1.067L4.533,4.5L4.533,4.5z" fill="#F3797F"/>
    <path d="M11.988,12.478c-0.954,0,-1.903,-0.186,-2.842,-0.557l0.375,-0.934c1.653,0.654,3.275,0.653,4.961,-0.001l0.369,0.936C13.897,12.293,12.94,12.478,11.988,12.478z" fill="#F7CE73"/>
    <path d="M10.133,6.163h3.733v3.04c0,0.488,-0.135,0.811,-0.412,0.988c-0.108,0.069,-0.224,0.14,-0.347,0.214c-0.332,0.203,-0.676,0.412,-0.892,0.6c-0.065,0.057,-0.145,0.128,-0.216,0.193c-0.071,-0.065,-0.15,-0.136,-0.216,-0.193c-0.217,-0.188,-0.561,-0.398,-0.893,-0.601c-0.118,-0.072,-0.235,-0.144,-0.344,-0.213c-0.366,-0.233,-0.413,-0.616,-0.413,-0.925V6.163z" fill="#77B7C9"/>
    <path d="M10.546,10.191c0.108,0.069,0.225,0.14,0.344,0.213c0.332,0.203,0.676,0.414,0.893,0.601c0.066,0.057,0.145,0.128,0.216,0.193c0.071,-0.065,0.15,-0.136,0.216,-0.193c0.217,-0.187,0.56,-0.397,0.892,-0.6c0.123,-0.075,0.239,-0.146,0.347,-0.214c0.277,-0.177,0.412,-0.5,0.412,-0.988V7.407c-0.152,0.093,-0.217,0.262,-0.452,0.262c-0.324,0,-0.412,-0.321,-0.736,-0.321c-0.324,0,-0.43,0.321,-0.755,0.321c-0.274,0,-0.501,-0.321,-0.751,-0.321c-0.249,0,-0.526,0.321,-0.75,0.321c-0.111,0,-0.2,-0.079,-0.289,-0.158v1.756C10.133,9.575,10.18,9.958,10.546,10.191z" fill="#FFFFFF"/>
    <path d="M10.133,8.94v-0.712c0.089,0.08,0.178,0.159,0.289,0.159c0.224,0,0.501,-0.322,0.75,-0.322c0.25,0,0.478,0.322,0.751,0.322c0.325,0,0.431,-0.322,0.755,-0.322c0.324,0,0.412,0.322,0.736,0.322c0.235,0,0.3,-0.169,0.452,-0.262v0.643c-0.156,0.072,-0.264,0.238,-0.479,0.238c-0.274,0,-0.548,-0.272,-0.723,-0.272c-0.175,0,-0.524,0.272,-0.799,0.272c-0.274,0,-0.448,-0.272,-0.648,-0.272s-0.574,0.272,-0.873,0.272C10.251,9.005,10.186,8.977,10.133,8.94zM13.867,9.187c-0.183,0.082,-0.218,0.288,-0.477,0.288c-0.325,0,-0.4,-0.322,-0.723,-0.322c-0.325,0,-0.425,0.322,-0.748,0.322c-0.275,0,-0.499,-0.322,-0.749,-0.322c-0.249,0,-0.523,0.322,-0.747,0.322c-0.092,0,-0.189,-0.054,-0.286,-0.118c0.009,0.247,0.061,0.525,0.281,0.733c0.286,-0.035,0.618,-0.267,0.803,-0.267c0.199,0,0.373,0.272,0.648,0.272s0.623,-0.272,0.799,-0.272c0.175,0,0.448,0.272,0.723,0.272c0.116,0,0.201,-0.049,0.28,-0.106c0.133,-0.186,0.199,-0.446,0.199,-0.786v-0.016H13.867zM12.215,11.005c0.172,-0.148,0.423,-0.311,0.685,-0.472c-0.065,-0.039,-0.139,-0.067,-0.234,-0.067c-0.325,0,-0.425,0.322,-0.748,0.322c-0.275,0,-0.499,-0.322,-0.749,-0.322c-0.044,0,-0.089,0.011,-0.134,0.027c0.284,0.175,0.563,0.352,0.748,0.512c0.066,0.057,0.145,0.128,0.216,0.193C12.07,11.133,12.149,11.062,12.215,11.005z" fill="#77B7C9"/>
    <path d="M11.999,11.66c0,0,-1.075,-0.614,-1.389,-0.806c-0.121,-0.074,-0.241,-0.147,-0.351,-0.218C9.6,10.218,9.6,9.502,9.6,9.266V5.633h4.8v3.57c0,0.673,-0.221,1.156,-0.658,1.434c-0.113,0.072,-0.236,0.147,-0.355,0.22C13.073,11.048,11.999,11.66,11.999,11.66zM10.133,6.163v3.104c0,0.308,0.047,0.692,0.413,0.925c0.108,0.069,0.225,0.14,0.344,0.213c0.332,0.203,1.11,0.68,1.11,0.68s0.775,-0.476,1.107,-0.678c0.123,-0.075,0.239,-0.146,0.347,-0.214c0.277,-0.177,0.412,-0.5,0.412,-0.988v-3.04h-3.733V6.163z" fill="#FFFFFF"/>
    <rect x="0.5" y="2.5" width="15" height="11" fill="none" stroke="#231F20" stroke-width="1" stroke-miterlimit="1" opacity="0.35"/>
  </g>
</svg>
