<?xml version="1.0" encoding="UTF-8"?>
<!DOCTYPE svg PUBLIC "-//W3C//DTD SVG 1.1//EN" "http://www.w3.org/Graphics/SVG/1.1/DTD/svg11.dtd">
<svg version="1.1" id="Layer_1" xmlns="http://www.w3.org/2000/svg" xmlns:xlink="http://www.w3.org/1999/xlink" x="0px" y="0px" width="16px" height="16px" viewBox="0 0 16 16" enable-background="new 0 0 16 16" xml:space="preserve">
  <g id="icon">
    <path d="M0,2h16v12H0V2z" fill="#7BA3D6"/>
    <path d="M8,2.721L6.361,4.25H8v1.5H6.281L8,7.329V8h-0.894L4.8,5.921V8H3.2V6.021L0.894,8H0l0,0v-0.671L1.772,5.75H0v-1.5h1.639L0,2.671V2h0.894L3.2,4.079V2h1.6v2.079L7.106,2H8V2.721z" fill="#FFFFFF"/>
    <path d="M2.48,4.25L0,2h0.596l2.48,2.25H2.48zM4.924,5.75L7.404,8H8L5.52,5.75H4.924zM2.667,5.75L0,8v-0.447L2.07,5.75H2.667zM5.467,4.25h0.596L8,2.497V2L5.467,4.25zM4.533,4.5H8v1H4.533v2.5H3.467V5.5H0V4.5h3.467V2h1.067L4.533,4.5L4.533,4.5z" fill="#F3797F"/>
    <path d="M11.046,6.348h0.474l0.155,-0.452l0.143,0.452h0.473l-0.385,0.276l0.143,0.44L11.675,6.8l-0.397,0.265l0.142,-0.44L11.046,6.348zM12.777,7.02l0.241,0.431l0.044,-0.486l0.452,-0.1l-0.42,-0.186l0.044,-0.475l-0.32,0.354l-0.439,-0.19l0.242,0.41l-0.309,0.328L12.777,7.02zM13.658,7.406l-0.44,0.188l0.463,0.099l0.044,0.474l0.241,-0.419l0.463,0.1l-0.307,-0.342l0.232,-0.419l-0.431,0.198l-0.321,-0.364L13.658,7.406zM14.342,8.388h-0.486l0.397,0.286l-0.155,0.452l0.387,-0.275l0.386,0.275l-0.154,-0.452l0.386,-0.286h-0.474l-0.143,-0.463L14.342,8.388zM14.519,10.053l0.221,0.397l0.055,-0.463l0.463,-0.112l-0.431,-0.185l0.055,-0.475l-0.319,0.352l-0.431,-0.186l0.232,0.419l-0.319,0.353L14.519,10.053zM14.473,10.956l0.243,-0.419l-0.43,0.209l-0.331,-0.352l0.066,0.464l-0.442,0.198l0.464,0.099l0.054,0.474l0.243,-0.407l0.452,0.099L14.473,10.956zM13.547,11.695l-0.143,-0.43l-0.143,0.43h-0.473l0.385,0.286l-0.131,0.453l0.363,-0.276l0.387,0.276l-0.132,-0.453l0.364,-0.286H13.547zM12.501,12.28l0.045,-0.475l-0.321,0.354l-0.42,-0.199l0.232,0.397l-0.319,0.386l0.464,-0.1l0.241,0.397l0.044,-0.463l0.475,-0.11L12.501,12.28zM11.298,12.357l0.244,-0.397l-0.431,0.199l-0.331,-0.354l0.054,0.475l-0.419,0.187l0.442,0.11l0.044,0.463l0.254,-0.397l0.474,0.1L11.298,12.357zM10.163,11.982l0.387,-0.286h-0.486l-0.143,-0.43l-0.142,0.43h-0.476l0.388,0.286l-0.144,0.453l0.375,-0.276l0.387,0.276L10.163,11.982zM9.291,11.155l0.463,-0.099l-0.43,-0.198l0.044,-0.464l-0.309,0.352l-0.451,-0.209l0.253,0.419l-0.32,0.365l0.464,-0.099l0.242,0.407L9.291,11.155zM8.587,10.45l0.23,-0.397l0.474,0.1L8.973,9.8l0.253,-0.419l-0.463,0.186l-0.298,-0.352l0.033,0.475l-0.418,0.185l0.462,0.112L8.587,10.45zM8.609,8.674l-0.132,0.452l0.364,-0.275l0.395,0.275l-0.142,-0.452l0.375,-0.286h-0.462l-0.166,-0.463l-0.144,0.463h-0.474L8.609,8.674zM9.358,7.748L9.6,8.167l0.045,-0.474l0.473,-0.099l-0.428,-0.188l0.042,-0.485l-0.318,0.364l-0.431,-0.198l0.242,0.419l-0.332,0.342L9.358,7.748zM10.273,6.965l0.066,0.486l0.232,-0.431l0.463,0.087l-0.319,-0.328l0.232,-0.41l-0.431,0.19l-0.32,-0.354l0.044,0.475l-0.419,0.186L10.273,6.965z" fill="#FFFFFF"/>
    <rect x="0.5" y="2.5" width="15" height="11" fill="none" stroke="#231F20" stroke-width="1" stroke-miterlimit="1" opacity="0.35"/>
  </g>
</svg>
