<?xml version="1.0" encoding="UTF-8"?>
<!DOCTYPE svg PUBLIC "-//W3C//DTD SVG 1.1//EN" "http://www.w3.org/Graphics/SVG/1.1/DTD/svg11.dtd">
<svg version="1.1" id="Layer_1" xmlns="http://www.w3.org/2000/svg" xmlns:xlink="http://www.w3.org/1999/xlink" x="0px" y="0px" width="16px" height="16px" viewBox="0 0 16 16" enable-background="new 0 0 16 16" xml:space="preserve">
  <g id="icon">
    <rect y="2" width="16" height="12" fill="#F3797F"/>
    <rect y="2" width="8" height="6" fill="#7BA3D6"/>
    <path d="M3.689,3.611L3.8,3.194l-0.333,-0.278h0.417L4.022,2.5l0.139,0.417h0.417l-0.333,0.278l0.111,0.417l-0.333,-0.25L3.689,3.611zM4.022,7.25l0.333,0.25l-0.111,-0.417l0.333,-0.278H4.16l-0.139,-0.417l-0.139,0.417h-0.417L3.8,7.083L3.689,7.5L4.022,7.25zM2.633,4.75l0.333,0.25l-0.111,-0.417l0.333,-0.278h-0.417l-0.139,-0.417l-0.139,0.417h-0.417l0.333,0.278L2.3,5L2.633,4.75zM5.411,4.75l0.333,0.25l-0.111,-0.417l0.333,-0.278H5.55l-0.139,-0.417l-0.139,0.417h-0.417l0.333,0.278L5.078,5L5.411,4.75zM4.856,5.972l0.167,0.139l-0.056,-0.222l0.167,-0.111h-0.222l-0.056,-0.222L4.8,5.778h-0.222l0.167,0.111l-0.056,0.222L4.856,5.972z" fill="#FFFFFF"/>
    <rect x="0.5" y="2.5" width="15" height="11" fill="none" stroke="#231F20" stroke-width="1" stroke-miterlimit="1" opacity="0.35"/>
  </g>
</svg>
