<?xml version="1.0" encoding="UTF-8"?>
<!DOCTYPE svg PUBLIC "-//W3C//DTD SVG 1.1//EN" "http://www.w3.org/Graphics/SVG/1.1/DTD/svg11.dtd">
<svg version="1.1" id="Layer_1" xmlns="http://www.w3.org/2000/svg" xmlns:xlink="http://www.w3.org/1999/xlink" x="0px" y="0px" width="16px" height="16px" viewBox="0 0 16 16" enable-background="new 0 0 16 16" xml:space="preserve">
  <g id="icon">
    <path d="M16,7H0V2h16V7z" fill="#797A7B"/>
    <path d="M13.333,9.5H2.667V7h10.667L13.333,9.5L13.333,9.5z" fill="#7BA3D6"/>
    <path d="M11.733,14H4.267V9.5h7.467L11.733,14L11.733,14z" fill="#FFFFFF"/>
    <path d="M8,14H0V2L8,14z" fill="#F3797F"/>
    <path d="M16,2v12H8L16,2z" fill="#F3797F"/>
    <path d="M11.947,6.978l-2.011,-0.391l1.711,-1.143l-2.005,0.421l1.15,-1.721L9.096,5.312l0.414,-2.037L8.385,5.012L8,2.97l-0.385,2.042L6.49,3.275l0.414,2.037L5.209,4.144l1.15,1.721l-2.005,-0.421l1.711,1.143l-2.011,0.391l0.053,0.01h7.787L11.947,6.978z" fill="#FAD11B"/>
    <rect x="0.5" y="2.5" width="15" height="11" fill="none" stroke="#000000" stroke-width="1" stroke-miterlimit="1" opacity="0.3"/>
  </g>
</svg>
