<?xml version="1.0" encoding="UTF-8"?>
<!DOCTYPE svg PUBLIC "-//W3C//DTD SVG 1.1//EN" "http://www.w3.org/Graphics/SVG/1.1/DTD/svg11.dtd">
<svg version="1.1" id="Layer_1" xmlns="http://www.w3.org/2000/svg" xmlns:xlink="http://www.w3.org/1999/xlink" x="0px" y="0px" width="16px" height="16px" viewBox="0 0 16 16" enable-background="new 0 0 16 16" xml:space="preserve">
  <g id="icon">
    <path d="M8,0.5C3.858,0.5,0.5,3.414,0.5,7.008c0,1.924,0.962,3.653,2.492,4.845C2.9,12.727,2.062,15.1,2.062,15.1S6.6,13.613,6.98,13.456c0.333,0.039,0.674,0.06,1.02,0.06c4.142,0,7.5,-2.914,7.5,-6.508S12.142,0.5,8,0.5z" fill="#FFFFFF"/>
    <path d="M1.252,15.891l0.338,-0.958c0.203,-0.574,0.705,-2.079,0.863,-2.874C0.89,10.742,0,8.916,0,7.008C0,3.144,3.589,0,8,0s8,3.144,8,7.008c0,3.864,-3.589,7.008,-8,7.008c-0.319,0,-0.64,-0.017,-0.956,-0.05c-0.797,0.288,-4.391,1.466,-4.826,1.609L1.252,15.891zM8,1c-3.86,0,-7,2.695,-7,6.008c0,1.69,0.838,3.312,2.299,4.45l0.219,0.171l-0.029,0.276c-0.059,0.562,-0.379,1.623,-0.634,2.408c1.712,-0.563,3.711,-1.227,3.935,-1.319l0.12,-0.049l0.129,0.015c0.316,0.037,0.64,0.056,0.961,0.056c3.86,0,7,-2.695,7,-6.008C15,3.695,11.86,1,8,1z" fill="#4DA4D4"/>
    <path d="M6.705,10V7.33H4.402V10H3.375V4.073h1.027v2.322h2.303V4.073H7.72v5.926L6.705,10L6.705,10zM10.675,10h-1.77V4.077c0.78,-0.038,1.326,-0.056,1.64,-0.056c0.601,0,1.07,0.131,1.408,0.394c0.339,0.263,0.508,0.639,0.508,1.127c0,0.469,-0.242,0.84,-0.727,1.112c0.719,0.256,1.078,0.785,1.078,1.586c0,0.539,-0.199,0.967,-0.596,1.285C11.818,9.841,11.305,10,10.675,10zM9.932,4.918v1.42c0.158,0.011,0.324,0.016,0.497,0.016c0.669,0,1.003,-0.258,1.003,-0.773c0,-0.456,-0.305,-0.683,-0.913,-0.683C10.361,4.899,10.164,4.906,9.932,4.918zM9.932,7.16v1.958c0.208,0.019,0.376,0.028,0.506,0.028c0.458,0,0.791,-0.079,0.997,-0.239c0.206,-0.16,0.31,-0.423,0.31,-0.792c0,-0.337,-0.096,-0.583,-0.288,-0.736c-0.192,-0.154,-0.528,-0.23,-1.007,-0.23C10.35,7.147,10.177,7.152,9.932,7.16z" fill="#4DA4D4"/>
  </g>
</svg>
