<?xml version="1.0" encoding="UTF-8"?>
<!DOCTYPE svg PUBLIC "-//W3C//DTD SVG 1.1//EN" "http://www.w3.org/Graphics/SVG/1.1/DTD/svg11.dtd">
<svg version="1.1" id="Layer_1" xmlns="http://www.w3.org/2000/svg" xmlns:xlink="http://www.w3.org/1999/xlink" x="0px" y="0px" width="16px" height="16px" viewBox="0 0 16 16" enable-background="new 0 0 16 16" xml:space="preserve">
  <g id="icon">
    <path d="M8,0.5C3.858,0.5,0.5,3.414,0.5,7.008c0,1.924,0.962,3.653,2.492,4.845C2.9,12.727,2.062,15.1,2.062,15.1S6.6,13.613,6.98,13.456c0.333,0.039,0.674,0.06,1.02,0.06c4.142,0,7.5,-2.914,7.5,-6.508S12.142,0.5,8,0.5z" fill="#FFFFFF"/>
    <path d="M1.252,15.891l0.338,-0.958c0.203,-0.574,0.705,-2.079,0.863,-2.874C0.89,10.742,0,8.916,0,7.008C0,3.144,3.589,0,8,0s8,3.144,8,7.008c0,3.864,-3.589,7.008,-8,7.008c-0.319,0,-0.64,-0.017,-0.956,-0.05c-0.797,0.288,-4.391,1.466,-4.826,1.609L1.252,15.891zM8,1c-3.86,0,-7,2.695,-7,6.008c0,1.69,0.838,3.312,2.299,4.45l0.219,0.171l-0.029,0.276c-0.059,0.562,-0.379,1.623,-0.634,2.408c1.712,-0.563,3.711,-1.227,3.935,-1.319l0.12,-0.049l0.129,0.015c0.316,0.037,0.64,0.056,0.961,0.056c3.86,0,7,-2.695,7,-6.008C15,3.695,11.86,1,8,1z" fill="#259991"/>
    <path d="M4.64,9.901H3.378V4.079c0.805,-0.029,1.312,-0.044,1.519,-0.044c0.829,0,1.485,0.248,1.971,0.746s0.728,1.156,0.728,1.978C7.595,8.854,6.611,9.901,4.64,9.901zM4.388,4.982v3.977c0.163,0.016,0.339,0.023,0.528,0.023c0.51,0,0.909,-0.19,1.198,-0.569c0.288,-0.379,0.433,-0.909,0.433,-1.591c0,-1.246,-0.566,-1.869,-1.697,-1.869C4.742,4.953,4.587,4.962,4.388,4.982zM8.489,4.074h1.01v3.949c0,0.313,0.093,0.568,0.279,0.763c0.186,0.196,0.443,0.294,0.769,0.294c0.365,0,0.649,-0.096,0.852,-0.288s0.305,-0.455,0.305,-0.789V4.074h1.01v4.009c0,0.6,-0.196,1.068,-0.589,1.408c-0.392,0.34,-0.916,0.509,-1.571,0.509c-0.66,0,-1.17,-0.166,-1.528,-0.497c-0.359,-0.331,-0.538,-0.806,-0.538,-1.424L8.489,4.074z" fill="#259991"/>
  </g>
</svg>
