<?xml version="1.0" encoding="UTF-8"?>
<!DOCTYPE svg PUBLIC "-//W3C//DTD SVG 1.1//EN" "http://www.w3.org/Graphics/SVG/1.1/DTD/svg11.dtd">
<svg version="1.1" id="Layer_1" xmlns="http://www.w3.org/2000/svg" xmlns:xlink="http://www.w3.org/1999/xlink" x="0px" y="0px" width="16px" height="16px" viewBox="0 0 16 16" enable-background="new 0 0 16 16" xml:space="preserve">
  <g id="icon">
    <path d="M8.004,0.5C3.86,0.5,0.5,3.416,0.5,7.012c0,1.925,0.963,3.655,2.493,4.847c-0.092,0.874,-0.931,3.249,-0.931,3.249s4.541,-1.488,4.921,-1.644c0.334,0.039,0.674,0.06,1.02,0.06c4.144,0,7.504,-2.915,7.504,-6.512C15.508,3.416,12.149,0.5,8.004,0.5zM7.394,8.157c0,0.609,-0.199,1.086,-0.598,1.431c-0.399,0.345,-0.931,0.517,-1.596,0.517c-0.671,0,-1.189,-0.169,-1.553,-0.505c-0.365,-0.337,-0.546,-0.819,-0.546,-1.447V4.084h1.026v4.013c0,0.318,0.095,0.577,0.284,0.775c0.189,0.199,0.45,0.299,0.781,0.299c0.371,0,0.66,-0.098,0.866,-0.293c0.206,-0.195,0.31,-0.463,0.31,-0.802V4.084h1.026V8.157zM11.857,10.004L11.857,10.004l-1.611,-2.521l-0.643,0.902v1.621H8.577V4.084h1.026v2.833l1.965,-2.833h1.168L10.925,6.67l2.158,3.334H11.857z" fill="#66B6D6"/>
    <path d="M1.253,15.9l0.338,-0.958c0.203,-0.574,0.706,-2.08,0.863,-2.875C0.891,10.748,0,8.921,0,7.012C0,3.145,3.591,0,8.004,0s8.004,3.145,8.004,7.012c0,3.866,-3.591,7.012,-8.004,7.012c-0.319,0,-0.64,-0.017,-0.957,-0.05c-0.797,0.288,-4.394,1.467,-4.829,1.609L1.253,15.9zM8.004,1.001c-3.862,0,-7.004,2.697,-7.004,6.011c0,1.691,0.839,3.314,2.301,4.453l0.219,0.171l-0.029,0.276c-0.059,0.562,-0.379,1.624,-0.634,2.409c1.712,-0.563,3.713,-1.228,3.937,-1.32l0.12,-0.049l0.129,0.015c0.317,0.037,0.64,0.056,0.962,0.056c3.862,0,7.004,-2.697,7.004,-6.011C15.008,3.697,11.866,1.001,8.004,1.001z" fill="#346A8A"/>
    <path d="M3.101,4.084h1.026v4.013c0,0.318,0.095,0.577,0.284,0.775c0.189,0.199,0.45,0.299,0.781,0.299c0.371,0,0.66,-0.098,0.866,-0.293c0.206,-0.195,0.31,-0.463,0.31,-0.802V4.084h1.026v4.073c0,0.609,-0.199,1.086,-0.598,1.431s-0.931,0.517,-1.596,0.517c-0.671,0,-1.189,-0.169,-1.553,-0.505c-0.365,-0.337,-0.546,-0.819,-0.546,-1.447V4.084zM11.857,10.005l-1.611,-2.522l-0.643,0.902v1.621H8.577V4.084h1.026v2.833l1.965,-2.833h1.168L10.925,6.67l2.158,3.334L11.857,10.005L11.857,10.005z" fill="#FFFFFF"/>
  </g>
</svg>
