<?xml version="1.0" encoding="UTF-8"?>
<!DOCTYPE svg PUBLIC "-//W3C//DTD SVG 1.1//EN" "http://www.w3.org/Graphics/SVG/1.1/DTD/svg11.dtd">
<svg version="1.1" id="Layer_1" xmlns="http://www.w3.org/2000/svg" xmlns:xlink="http://www.w3.org/1999/xlink" x="0px" y="0px" width="16px" height="16px" viewBox="0 0 16 16" enable-background="new 0 0 16 16" xml:space="preserve">
  <g id="icon">
    <path d="M12.01,6.932c0,0.699,-0.129,1.232,-0.388,1.598c-0.259,0.366,-0.634,0.55,-1.126,0.55c-0.419,0,-0.739,-0.187,-0.958,-0.562c-0.219,-0.374,-0.329,-0.903,-0.329,-1.586c0,-0.627,0.118,-1.126,0.352,-1.496c0.235,-0.371,0.571,-0.556,1.011,-0.556C11.53,4.88,12.01,5.564,12.01,6.932zM15.5,7.008c0,3.594,-3.358,6.508,-7.5,6.508c-0.346,0,-0.686,-0.02,-1.02,-0.06C6.6,13.613,2.062,15.1,2.062,15.1s0.838,-2.373,0.93,-3.247C1.462,10.661,0.5,8.932,0.5,7.008C0.5,3.414,3.858,0.5,8,0.5C12.142,0.5,15.5,3.414,15.5,7.008zM7.315,4.062h-0.946v3.523l-2.62,-3.523h-0.473v5.843h0.946V6.286l2.691,3.695h0.402V4.062zM13.032,6.932c0,-0.94,-0.211,-1.671,-0.632,-2.192c-0.422,-0.52,-1.031,-0.781,-1.829,-0.781c-0.724,0,-1.303,0.288,-1.735,0.863c-0.434,0.576,-0.65,1.278,-0.65,2.11c0,0.951,0.198,1.7,0.597,2.246c0.398,0.547,0.968,0.821,1.713,0.821c0.81,0,1.435,-0.276,1.876,-0.829C12.812,8.619,13.032,7.872,13.032,6.932z" fill="#DB8A7F"/>
    <path d="M1.252,15.891l0.338,-0.958c0.203,-0.574,0.705,-2.079,0.863,-2.874C0.89,10.742,0,8.916,0,7.008C0,3.144,3.589,0,8,0s8,3.144,8,7.008c0,3.864,-3.589,7.008,-8,7.008c-0.319,0,-0.64,-0.017,-0.956,-0.05c-0.797,0.288,-4.391,1.466,-4.826,1.609L1.252,15.891zM8,1c-3.86,0,-7,2.695,-7,6.008c0,1.69,0.838,3.312,2.299,4.45l0.219,0.171l-0.029,0.276c-0.059,0.562,-0.379,1.623,-0.634,2.408c1.712,-0.563,3.711,-1.227,3.935,-1.319l0.12,-0.049l0.129,0.015c0.316,0.037,0.64,0.056,0.961,0.056c3.86,0,7,-2.695,7,-6.008C15,3.695,11.86,1,8,1z" fill="#9E5147"/>
    <path d="M6.913,9.981L4.222,6.286v3.619h-0.946V4.062h0.473l2.62,3.523V4.062h0.946v5.918H6.913zM8.186,6.932c0,-0.832,0.216,-1.535,0.65,-2.11c0.433,-0.575,1.011,-0.863,1.735,-0.863c0.798,0,1.407,0.261,1.829,0.781c0.421,0.521,0.632,1.251,0.632,2.192s-0.22,1.688,-0.661,2.24c-0.44,0.553,-1.066,0.829,-1.876,0.829c-0.745,0,-1.315,-0.274,-1.713,-0.821C8.384,8.633,8.186,7.884,8.186,6.932zM9.208,6.932c0,0.683,0.11,1.212,0.329,1.586c0.219,0.375,0.539,0.562,0.958,0.562c0.492,0,0.867,-0.183,1.126,-0.55s0.388,-0.899,0.388,-1.598c0,-1.368,-0.48,-2.052,-1.439,-2.052c-0.44,0,-0.776,0.186,-1.011,0.556C9.325,5.806,9.208,6.305,9.208,6.932z" fill="#FFFFFF"/>
  </g>
</svg>
