<?xml version="1.0" encoding="UTF-8"?>
<!DOCTYPE svg PUBLIC "-//W3C//DTD SVG 1.1//EN" "http://www.w3.org/Graphics/SVG/1.1/DTD/svg11.dtd">
<svg version="1.1" id="Layer_1" xmlns="http://www.w3.org/2000/svg" xmlns:xlink="http://www.w3.org/1999/xlink" x="0px" y="0px" width="16px" height="16px" viewBox="0 0 16 16" enable-background="new 0 0 16 16" xml:space="preserve">
  <g id="icon">
    <path d="M8,0.5C3.858,0.5,0.5,3.414,0.5,7.008c0,1.924,0.962,3.653,2.492,4.845C2.9,12.727,2.062,15.1,2.062,15.1S6.6,13.613,6.98,13.456c0.333,0.039,0.674,0.06,1.02,0.06c4.142,0,7.5,-2.914,7.5,-6.508S12.142,0.5,8,0.5z" fill="#FFFFFF"/>
    <path d="M1.252,15.891l0.338,-0.958c0.203,-0.574,0.705,-2.079,0.863,-2.874C0.89,10.742,0,8.916,0,7.008C0,3.144,3.589,0,8,0s8,3.144,8,7.008c0,3.864,-3.589,7.008,-8,7.008c-0.319,0,-0.64,-0.017,-0.956,-0.05c-0.797,0.288,-4.391,1.466,-4.826,1.609L1.252,15.891zM8,1c-3.86,0,-7,2.695,-7,6.008c0,1.69,0.838,3.312,2.299,4.45l0.219,0.171l-0.029,0.276c-0.059,0.562,-0.379,1.623,-0.634,2.408c1.712,-0.563,3.711,-1.227,3.935,-1.319l0.12,-0.049l0.129,0.015c0.316,0.037,0.64,0.056,0.961,0.056c3.86,0,7,-2.695,7,-6.008C15,3.695,11.86,1,8,1z" fill="#DB7A33"/>
    <path d="M3.4,8.568h0.904c0.086,0.341,0.364,0.511,0.834,0.511c0.332,0,0.567,-0.11,0.703,-0.332c0.136,-0.22,0.204,-0.556,0.204,-1.006V4.075h1.013V7.71c0,0.777,-0.161,1.353,-0.483,1.727c-0.322,0.375,-0.839,0.563,-1.551,0.563c-0.473,0,-0.855,-0.126,-1.145,-0.379C3.588,9.369,3.429,9.017,3.4,8.568zM9.182,7.77v2.151H8.169V4.079c0.676,-0.029,1.07,-0.044,1.185,-0.044c0.901,0,1.561,0.141,1.977,0.425c0.417,0.284,0.625,0.725,0.625,1.327c0,1.34,-0.772,2.011,-2.315,2.011C9.527,7.798,9.374,7.789,9.182,7.77zM9.182,4.977v1.871c0.172,0.019,0.306,0.028,0.406,0.028c0.463,0,0.8,-0.079,1.013,-0.237c0.213,-0.158,0.32,-0.416,0.32,-0.772c0,-0.607,-0.477,-0.91,-1.43,-0.91C9.384,4.956,9.281,4.963,9.182,4.977z" fill="#DB7A33"/>
  </g>
</svg>
