<?xml version="1.0" encoding="UTF-8"?>
<!DOCTYPE svg PUBLIC "-//W3C//DTD SVG 1.1//EN" "http://www.w3.org/Graphics/SVG/1.1/DTD/svg11.dtd">
<svg version="1.1" id="Layer_1" xmlns="http://www.w3.org/2000/svg" xmlns:xlink="http://www.w3.org/1999/xlink" x="0px" y="0px" width="16px" height="16px" viewBox="0 0 16 16" enable-background="new 0 0 16 16" xml:space="preserve">
  <g id="icon">
    <path d="M11.296,5.742c0,0.36,-0.1,0.601,-0.299,0.725c-0.199,0.124,-0.513,0.186,-0.943,0.186c-0.1,0,-0.245,-0.008,-0.435,-0.024V4.98c0.121,-0.016,0.237,-0.024,0.348,-0.025c0.459,0,0.795,0.058,1.009,0.174C11.189,5.246,11.296,5.45,11.296,5.742zM15.5,7.008c0,3.594,-3.358,6.508,-7.5,6.508c-0.346,0,-0.686,-0.02,-1.02,-0.06C6.6,13.613,2.062,15.1,2.062,15.1s0.838,-2.373,0.93,-3.247C1.462,10.661,0.5,8.932,0.5,7.008C0.5,3.414,3.858,0.5,8,0.5C12.142,0.5,15.5,3.414,15.5,7.008zM7.719,9.416l-0.478,-0.851c-0.308,0.4,-0.736,0.6,-1.281,0.6c-0.478,0,-0.859,-0.186,-1.146,-0.559c-0.286,-0.372,-0.429,-0.876,-0.429,-1.511s0.155,-1.159,0.463,-1.574c0.308,-0.414,0.704,-0.622,1.187,-0.622c0.509,0,0.878,0.118,1.108,0.353l0.424,-0.871c-0.398,-0.278,-0.929,-0.417,-1.596,-0.418c-0.775,0,-1.411,0.295,-1.908,0.885c-0.497,0.589,-0.746,1.324,-0.746,2.201c0,0.942,0.224,1.686,0.672,2.232c0.448,0.546,1.077,0.818,1.887,0.818S7.299,9.872,7.719,9.416zM13.006,9.999l-1.713,-2.674c0.308,-0.119,0.564,-0.323,0.767,-0.612s0.305,-0.609,0.305,-0.96c0,-1.167,-0.736,-1.75,-2.207,-1.75c-0.237,0,-0.55,0.01,-0.938,0.031c-0.388,0.021,-0.611,0.031,-0.669,0.031V10h1.068V7.521c0.279,0.016,0.497,0.026,0.653,0.028L11.818,10v-0.001H13.006z" fill="#B887BC"/>
    <path d="M1.252,15.891l0.338,-0.958c0.203,-0.574,0.705,-2.079,0.863,-2.874C0.89,10.742,0,8.916,0,7.008C0,3.144,3.589,0,8,0s8,3.144,8,7.008c0,3.864,-3.589,7.008,-8,7.008c-0.319,0,-0.64,-0.017,-0.956,-0.05c-0.797,0.288,-4.391,1.466,-4.826,1.609L1.252,15.891zM8,1c-3.86,0,-7,2.695,-7,6.008c0,1.69,0.838,3.312,2.299,4.45l0.219,0.171l-0.029,0.276c-0.059,0.562,-0.379,1.623,-0.634,2.408c1.712,-0.563,3.711,-1.227,3.935,-1.319l0.12,-0.049l0.129,0.015c0.316,0.037,0.64,0.056,0.961,0.056c3.86,0,7,-2.695,7,-6.008C15,3.695,11.86,1,8,1z" fill="#845F89"/>
    <path d="M7.566,4.381l-0.424,0.871c-0.23,-0.235,-0.599,-0.353,-1.108,-0.353c-0.483,0,-0.878,0.208,-1.187,0.622c-0.308,0.414,-0.463,0.939,-0.463,1.574s0.143,1.139,0.429,1.511c0.286,0.372,0.668,0.559,1.146,0.559c0.546,0,0.973,-0.2,1.281,-0.6l0.478,0.851C7.299,9.872,6.685,10.1,5.875,10.1s-1.439,-0.273,-1.887,-0.818s-0.672,-1.29,-0.672,-2.232c0,-0.877,0.249,-1.612,0.746,-2.201c0.497,-0.59,1.134,-0.885,1.908,-0.885C6.637,3.964,7.168,4.103,7.566,4.381zM11.818,10l-1.547,-2.451c-0.155,-0.003,-0.373,-0.012,-0.653,-0.028V10H8.551V4.065c0.058,0,0.281,-0.01,0.669,-0.031c0.388,-0.021,0.7,-0.031,0.938,-0.031c1.472,0,2.207,0.583,2.207,1.75c0,0.351,-0.102,0.671,-0.305,0.96c-0.203,0.289,-0.459,0.493,-0.767,0.612l1.713,2.674L11.818,10L11.818,10zM9.619,4.98v1.649c0.19,0.016,0.335,0.024,0.435,0.024c0.43,0,0.744,-0.062,0.943,-0.186c0.199,-0.124,0.299,-0.366,0.299,-0.725c0,-0.291,-0.107,-0.495,-0.32,-0.612c-0.214,-0.116,-0.55,-0.174,-1.009,-0.174C9.856,4.957,9.74,4.964,9.619,4.98z" fill="#FFFFFF"/>
  </g>
</svg>
