<?xml version="1.0" encoding="UTF-8"?>
<!DOCTYPE svg PUBLIC "-//W3C//DTD SVG 1.1//EN" "http://www.w3.org/Graphics/SVG/1.1/DTD/svg11.dtd">
<svg version="1.1" id="Layer_1" xmlns="http://www.w3.org/2000/svg" xmlns:xlink="http://www.w3.org/1999/xlink" x="0px" y="0px" width="32px" height="32px" viewBox="0 0 32 32" enable-background="new 0 0 32 32" xml:space="preserve">
  <g id="icon">
    <polygon points="29,11.9 15.967,5.7 3,11.9 3,30 29,30" fill="#FFFFFF" stroke-linejoin="miter"/>
    <polygon points="29,11.9 15.967,5.7 3,11.9 3,30 29,30" fill="#C8C6C4" stroke-linejoin="miter" opacity="0.4"/>
    <path d="M1.3,10.878L16,3.8l14.7,7.078" fill="none" stroke="#0964B0" stroke-width="1.3" stroke-miterlimit="1"/>
    <path d="M7,23.5h18M7,20.5h18M7,17.5h18M7,14.5h18M7,26.5h18M7,29.5h18" fill="#FFFFFF" stroke="#383838" stroke-width="1" stroke-miterlimit="1"/>
    <path d="M29,12v18h-3v-1h2V11.5L29,12zM4,29V11.5l-1,0.5v18h3v-1H4z" fill="#020202"/>
  </g>
</svg>
