<?xml version="1.0" encoding="UTF-8"?>
<!DOCTYPE svg PUBLIC "-//W3C//DTD SVG 1.1//EN" "http://www.w3.org/Graphics/SVG/1.1/DTD/svg11.dtd">
<svg version="1.1" id="Layer_1" xmlns="http://www.w3.org/2000/svg" xmlns:xlink="http://www.w3.org/1999/xlink" x="0px" y="0px" width="32px" height="32px" viewBox="0 0 32 32" enable-background="new 0 0 32 32" xml:space="preserve">
  <g id="icon">
    <polygon points="1.6,16 15.8,30.4 22.7,9.467" fill="#FFFFFF" stroke-linejoin="miter"/>
    <circle cx="24.6" cy="7.5" r="2.7" fill="#FFFFFF"/>
    <path d="M2.805,30.083c-0.209,0,-0.406,-0.082,-0.556,-0.232c-0.147,-0.147,-0.23,-0.342,-0.232,-0.549c-0.002,-0.204,0.075,-0.394,0.217,-0.536l6.025,-6.025l-5.973,-5.973l0.339,-1.491l18.188,-5.753l-0.115,-0.381c-0.354,-1.17,-0.048,-2.424,0.799,-3.271c0.609,-0.609,1.424,-0.944,2.296,-0.944c0.447,0,1.05,0.17,1.613,0.456l0.261,0.132l3.617,-3.617l0.916,0.916l-3.617,3.617l0.132,0.261c0.678,1.336,0.477,2.944,-0.488,3.909c-0.609,0.609,-1.424,0.944,-2.296,0.944c-0.33,0,-0.658,-0.049,-0.975,-0.145l-0.381,-0.116l-5.753,18.189l-1.491,0.339L9.358,23.84l-6.025,6.025C3.193,30.006,3.005,30.083,2.805,30.083zM3.71,16.237l12.058,12.058l5.587,-17.548L3.71,16.237zM23.832,6.149c-0.552,0,-1.07,0.213,-1.457,0.6c-0.808,0.808,-0.798,2.133,0.022,2.953c0.401,0.401,0.933,0.622,1.497,0.622c0.552,0,1.069,-0.213,1.456,-0.6c0.392,-0.392,0.605,-0.916,0.6,-1.476c-0.005,-0.557,-0.226,-1.082,-0.622,-1.478C24.927,6.37,24.396,6.149,23.832,6.149z" fill="#383838"/>
  </g>
</svg>
