<?xml version="1.0" encoding="UTF-8"?>
<!DOCTYPE svg PUBLIC "-//W3C//DTD SVG 1.1//EN" "http://www.w3.org/Graphics/SVG/1.1/DTD/svg11.dtd">
<svg version="1.1" id="Layer_1" xmlns="http://www.w3.org/2000/svg" xmlns:xlink="http://www.w3.org/1999/xlink" x="0px" y="0px" width="32px" height="32px" viewBox="0 0 32 32" enable-background="new 0 0 32 32" xml:space="preserve">
  <g id="icon">
    <path d="M7.5,22.4v7.6M24.5,22.4v7.6" fill="#FFFFFF" stroke="#383838" stroke-width="1" stroke-miterlimit="1"/>
    <path d="M16,17.539c-1.262,-0.009,-2.306,0.12,-3.67,0.237c-0.708,0.061,-1.419,0.252,-2.077,0.479c-0.441,0.152,-0.834,0.412,-0.888,0.9c-0.071,0.648,0.023,1.417,-0.124,2.059c-0.193,0.842,-1.265,1.377,-2.277,1.096c-0.968,-0.268,-1.433,-0.792,-1.391,-1.645c0.033,-0.688,-0.135,-1.5,-0.078,-2.188c0.117,-1.423,-0.71,-2.793,-1.228,-4.167c-0.422,-1.119,-0.763,-2.288,-0.436,-3.494c0.284,-1.048,0.568,-2.085,1.186,-3.058c0.739,-1.163,1.735,-2.166,2.937,-3.013c1.504,-1.06,3.285,-1.677,5.268,-2.041c0.908,-0.167,1.9,-0.225,2.778,-0.197c0.879,-0.028,1.871,0.03,2.778,0.197c1.983,0.364,3.764,0.98,5.268,2.041c1.202,0.848,2.198,1.85,2.937,3.013c0.618,0.972,0.902,2.01,1.186,3.058c0.327,1.206,-0.014,2.375,-0.436,3.494c-0.518,1.374,-1.345,2.744,-1.228,4.167c0.056,0.687,-0.112,1.5,-0.078,2.188c0.041,0.853,-0.424,1.377,-1.391,1.645c-1.012,0.28,-2.084,-0.254,-2.277,-1.096c-0.147,-0.642,-0.053,-1.411,-0.124,-2.059c-0.054,-0.488,-0.447,-0.748,-0.888,-0.9c-0.658,-0.227,-1.369,-0.418,-2.077,-0.479C18.306,17.659,17.262,17.531,16,17.539z" fill="#92CBEE" stroke="#0964B0" stroke-width="1.1" stroke-miterlimit="1"/>
  </g>
</svg>
