<?xml version="1.0" encoding="UTF-8"?>
<!DOCTYPE svg PUBLIC "-//W3C//DTD SVG 1.1//EN" "http://www.w3.org/Graphics/SVG/1.1/DTD/svg11.dtd">
<svg version="1.1" id="Layer_1" xmlns="http://www.w3.org/2000/svg" xmlns:xlink="http://www.w3.org/1999/xlink" x="0px" y="0px" width="32px" height="32px" viewBox="0 0 32 32" enable-background="new 0 0 32 32" xml:space="preserve">
  <g id="icon">
    <circle cx="16.05" cy="16.05" r="14.4" fill="#FFFFFF" stroke="#383838" stroke-width="1.1" stroke-miterlimit="1"/>
    <path d="M15.916,19.379c-0.179,0,-0.36,-0.015,-0.538,-0.044c-0.882,-0.146,-1.654,-0.632,-2.172,-1.369c-0.413,-0.588,-0.627,-1.278,-0.619,-1.995c0.002,-0.175,0.018,-0.352,0.047,-0.527c0.272,-1.65,1.665,-2.847,3.31,-2.847c0.179,0,0.36,0.015,0.538,0.044c0.469,0.077,0.904,0.248,1.293,0.508l0.29,0.194l5.578,-5.529l0.743,0.749l-5.627,5.578l0.143,0.278c0.333,0.65,0.445,1.381,0.325,2.112C18.954,18.182,17.562,19.379,15.916,19.379zM15.946,13.653c-1.128,0,-2.083,0.826,-2.271,1.964c-0.102,0.617,0.038,1.237,0.394,1.743c0.354,0.504,0.88,0.836,1.481,0.935c0.121,0.02,0.244,0.03,0.365,0.03c1.128,0,2.083,-0.826,2.271,-1.964c0.02,-0.12,0.031,-0.243,0.032,-0.364c0.006,-0.497,-0.141,-0.974,-0.426,-1.379c-0.354,-0.504,-0.88,-0.836,-1.481,-0.935C16.19,13.663,16.067,13.653,15.946,13.653z" fill="#383838"/>
    <path d="M9.54,24.993c-2.925,-2.074,-4.671,-5.454,-4.671,-9.041c0,-6.111,4.972,-11.083,11.083,-11.083c2.011,0,3.982,0.546,5.698,1.58l0.165,0.099l-0.92,0.912l-0.099,-0.056c-1.472,-0.837,-3.147,-1.28,-4.844,-1.28c-5.419,0,-9.828,4.409,-9.828,9.828c0,3.164,1.536,6.153,4.109,7.994l0.116,0.083l-0.682,1.054L9.54,24.993zM25.443,13.399c-0.178,-0.663,-0.428,-1.309,-0.741,-1.92l-0.05,-0.098l0.927,-0.919l0.096,0.174c0.429,0.782,0.763,1.615,0.991,2.476l0.04,0.151l-1.226,0.275L25.443,13.399z" fill="#ED8730"/>
  </g>
</svg>
