<?xml version="1.0" encoding="UTF-8"?>
<!DOCTYPE svg PUBLIC "-//W3C//DTD SVG 1.1//EN" "http://www.w3.org/Graphics/SVG/1.1/DTD/svg11.dtd">
<svg version="1.1" id="Layer_1" xmlns="http://www.w3.org/2000/svg" xmlns:xlink="http://www.w3.org/1999/xlink" x="0px" y="0px" width="32px" height="32px" viewBox="0 0 32 32" enable-background="new 0 0 32 32" xml:space="preserve">
  <g id="icon">
    <circle cx="16.05" cy="16.05" r="14.4" fill="#FFFFFF" stroke="#383838" stroke-width="1.1" stroke-miterlimit="1"/>
    <path d="M18.706,17.935l-0.211,0.231c-0.493,0.54,-1.138,0.9,-1.865,1.043c-0.22,0.043,-0.443,0.065,-0.665,0.065c-1.61,0,-3.001,-1.131,-3.308,-2.689c-0.172,-0.877,0.013,-1.77,0.522,-2.513c0.406,-0.593,0.978,-1.035,1.653,-1.278c0.165,-0.059,0.336,-0.107,0.51,-0.141c0.219,-0.043,0.443,-0.065,0.665,-0.065c1.61,0,3.001,1.131,3.308,2.689c0.092,0.466,0.084,0.934,-0.024,1.39l-0.08,0.34l7.131,3.29l-0.442,0.958L18.706,17.935zM16.007,13.643c-0.154,0,-0.309,0.015,-0.461,0.045c-0.614,0.121,-1.145,0.468,-1.495,0.979c-0.348,0.508,-0.475,1.117,-0.358,1.714c0.209,1.065,1.165,1.838,2.273,1.838c0.154,0,0.309,-0.015,0.461,-0.045c0.119,-0.023,0.238,-0.056,0.352,-0.097c0.468,-0.168,0.863,-0.473,1.143,-0.882c0.348,-0.508,0.475,-1.117,0.358,-1.714C18.071,14.416,17.115,13.643,16.007,13.643z" fill="#383838"/>
    <path d="M9.54,24.993c-2.925,-2.074,-4.671,-5.454,-4.671,-9.041c0,-6.111,4.972,-11.083,11.083,-11.083s11.083,4.972,11.083,11.083c0,0.656,-0.059,1.318,-0.176,1.967l-0.034,0.191l-1.177,-0.543l0.017,-0.112c0.077,-0.497,0.115,-1.003,0.115,-1.503c0,-5.419,-4.409,-9.828,-9.828,-9.828s-9.828,4.409,-9.828,9.828c0,3.164,1.536,6.153,4.109,7.994l0.116,0.083l-0.682,1.054L9.54,24.993zM21.644,23.967l0.115,-0.085c0.535,-0.393,1.033,-0.841,1.479,-1.333l0.074,-0.082l1.185,0.547l-0.129,0.151c-0.562,0.656,-1.203,1.247,-1.904,1.756l-0.127,0.092L21.644,23.967z" fill="#EF3E3B"/>
  </g>
</svg>
