<?xml version="1.0" encoding="UTF-8"?>
<!DOCTYPE svg PUBLIC "-//W3C//DTD SVG 1.1//EN" "http://www.w3.org/Graphics/SVG/1.1/DTD/svg11.dtd">
<svg version="1.1" id="Layer_1" xmlns="http://www.w3.org/2000/svg" xmlns:xlink="http://www.w3.org/1999/xlink" x="0px" y="0px" width="32px" height="32px" viewBox="0 0 32 32" enable-background="new 0 0 32 32" xml:space="preserve">
  <g id="icon">
    <path d="M1.825,17.822c3.078,1.615,6.38,0.887,9.353,0.505c4.784,-0.614,9.56,-1.291,14.333,-1.984c0.819,-0.119,1.349,0.037,1.8,0.788c0.476,0.793,1.068,1.527,1.694,2.207c0.23,0.25,0.703,0.361,1.061,0.352c0.142,-0.004,0.417,-0.524,0.386,-0.777c-0.402,-3.208,-0.843,-6.411,-1.297,-9.611c-0.036,-0.252,-0.036,-1.137,-0.549,-1.058c-0.514,0.079,-0.968,1.108,-1.091,1.64c-0.532,2.315,-1.927,3.142,-4.224,3.373c-5.337,0.537,-10.952,1.282,-16.25,2.136C5.419,15.653,2.669,16.786,1.825,17.822z" fill="#FFFFFF" stroke="#383838" stroke-width="1" stroke-miterlimit="1"/>
    <path d="M14.82,1.957c0.16,-0.495,0.95,-0.097,1.192,-0.016c3.064,1.03,6.124,2.073,9.171,3.153c0.24,0.085,0.582,0.564,0.521,0.693c-0.152,0.324,-0.464,0.697,-0.791,0.79c-0.888,0.254,-1.81,0.454,-2.732,0.524c-0.874,0.066,-1.251,0.47,-1.512,1.255c-0.365,1.097,-0.73,2.193,-1.097,3.289c-1.268,0.145,-2.55,0.301,-3.839,0.467c0.39,-1.063,0.784,-2.118,1.182,-3.157c0.824,-2.156,0.711,-3.774,-1.119,-5.288C15.375,3.319,14.66,2.451,14.82,1.957zM12.935,20.116c-0.483,1.45,-0.952,2.895,-1.402,4.321c-0.494,1.566,-0.716,4.532,-0.168,5.751c2.824,-2.026,3.655,-5.304,4.648,-8.132c0.289,-0.822,0.575,-1.645,0.86,-2.468C15.574,19.766,14.257,19.943,12.935,20.116z" fill="#FFFFFF"/>
    <path d="M14.344,1.803c0.074,-0.23,0.224,-0.403,0.433,-0.502c0.439,-0.208,0.974,0.001,1.293,0.127c0.04,0.016,0.075,0.03,0.102,0.039c3.707,1.247,6.538,2.22,9.179,3.156c0.365,0.129,0.684,0.56,0.795,0.824c0.085,0.203,0.089,0.389,0.012,0.553c-0.186,0.396,-0.587,0.91,-1.106,1.059c-1.045,0.299,-1.972,0.477,-2.832,0.542c-0.614,0.047,-0.855,0.252,-1.075,0.915c-0.327,0.983,-0.669,2.01,-1.024,3.069c-0.364,0.041,-0.73,0.083,-1.097,0.126c0.407,-1.214,0.799,-2.391,1.171,-3.51c0.244,-0.735,0.667,-1.499,1.948,-1.596c0.792,-0.06,1.653,-0.226,2.632,-0.506c0.1,-0.029,0.262,-0.175,0.387,-0.365c-0.05,-0.069,-0.118,-0.144,-0.161,-0.172c-2.632,-0.933,-5.455,-1.903,-9.15,-3.145c-0.039,-0.013,-0.089,-0.033,-0.148,-0.056c-0.073,-0.029,-0.253,-0.099,-0.39,-0.131c0.086,0.257,0.432,0.75,0.8,1.054c1.866,1.544,2.245,3.294,1.267,5.852c-0.364,0.953,-0.728,1.924,-1.09,2.907c-0.372,0.047,-0.745,0.095,-1.118,0.144c0.422,-1.155,0.848,-2.294,1.273,-3.408c0.819,-2.144,0.547,-3.469,-0.971,-4.725C15.462,4.04,14.019,2.81,14.344,1.803zM16.317,19.664c-0.257,0.741,-0.516,1.484,-0.776,2.227c-0.115,0.327,-0.228,0.661,-0.342,0.998c-0.791,2.339,-1.607,4.751,-3.559,6.446c-0.221,-1.298,-0.027,-3.488,0.37,-4.747c0.476,-1.509,0.97,-3.028,1.476,-4.544c-0.367,0.048,-0.734,0.097,-1.102,0.145c-0.454,1.368,-0.898,2.737,-1.327,4.099c-0.486,1.542,-0.785,4.687,-0.147,6.107l0.251,0.558l0.497,-0.357c2.629,-1.887,3.618,-4.808,4.49,-7.386c0.113,-0.333,0.224,-0.663,0.338,-0.987c0.318,-0.904,0.633,-1.809,0.944,-2.71C17.059,19.562,16.689,19.613,16.317,19.664z" fill="#383838"/>
  </g>
</svg>
