<?xml version="1.0" encoding="UTF-8"?>
<!DOCTYPE svg PUBLIC "-//W3C//DTD SVG 1.1//EN" "http://www.w3.org/Graphics/SVG/1.1/DTD/svg11.dtd">
<svg version="1.1" id="Layer_1" xmlns="http://www.w3.org/2000/svg" xmlns:xlink="http://www.w3.org/1999/xlink" x="0px" y="0px" width="32px" height="32px" viewBox="0 0 32 32" enable-background="new 0 0 32 32" xml:space="preserve">
  <g id="icon">
    <path d="M23.894,31c0,-6.145,-4.961,-11.072,-11.08,-11.072S1.733,24.855,1.733,31" fill="#FFFFFF"/>
    <path d="M23.894,31c0,-6.145,-4.961,-11.072,-11.08,-11.072S1.733,24.855,1.733,31" fill="none" stroke="#383838" stroke-width="1.1" stroke-miterlimit="1"/>
    <polygon points="14.095,31 11.532,31 12.173,23.667 11.532,21.6 14.095,21.6 13.454,23.689" fill="#238BCB" stroke-linejoin="miter"/>
    <path d="M19.483,11.091c0,3.492,-3.015,8.688,-6.735,8.688s-6.735,-5.196,-6.735,-8.688S9.029,4.6,12.748,4.6S19.483,7.6,19.483,11.091z" fill="#FCD8BB"/>
    <path d="M19.483,11.091c0,3.492,-3.015,8.688,-6.735,8.688s-6.735,-5.196,-6.735,-8.688S9.029,4.6,12.748,4.6S19.483,7.6,19.483,11.091z" fill="none" stroke="#AF6E41" stroke-width="1.1" stroke-linecap="round" stroke-miterlimit="1"/>
    <path d="M6.29,9.269C7.118,6.618,9.694,4.6,12.744,4.6c3.333,0,6.099,2.41,6.638,5.423C11.033,6.138,11.477,12.022,6.29,9.269z" fill="#999999" stroke="#383838" stroke-width="1.1" stroke-linecap="round" stroke-miterlimit="1" stroke-linejoin="round"/>
    <path d="M30.366,9.87l-1.527,-0.935c-0.024,-0.014,-0.036,-0.041,-0.033,-0.068c0.047,-0.411,0.046,-0.834,-0.009,-1.262c-0.003,-0.027,0.009,-0.054,0.031,-0.068l1.529,-1.003c0.029,-0.019,0.04,-0.056,0.026,-0.088l-0.743,-1.719c-0.014,-0.032,-0.048,-0.049,-0.082,-0.041l-1.733,0.417c-0.027,0.007,-0.056,-0.004,-0.073,-0.026c-0.276,-0.357,-0.595,-0.674,-0.95,-0.947c-0.022,-0.017,-0.032,-0.044,-0.026,-0.071l0.372,-1.791c0.007,-0.034,-0.011,-0.068,-0.043,-0.081l-1.741,-0.69c-0.032,-0.013,-0.069,-0.001,-0.087,0.029l-0.934,1.525c-0.015,0.024,-0.042,0.037,-0.069,0.033c-0.414,-0.052,-0.841,-0.056,-1.273,-0.004c-0.027,0.003,-0.053,-0.009,-0.068,-0.031l-0.993,-1.514c-0.019,-0.029,-0.056,-0.04,-0.088,-0.026l-1.719,0.743c-0.032,0.014,-0.049,0.048,-0.041,0.082l0.405,1.686c0.007,0.027,-0.004,0.056,-0.026,0.073c-0.375,0.283,-0.709,0.615,-0.994,0.984c-0.017,0.022,-0.044,0.032,-0.07,0.026l-1.23,-0.256c0.182,0.147,0.36,0.301,0.53,0.464c1.61,1.537,2.497,3.557,2.497,5.687c0,1.039,-0.232,2.236,-0.666,3.436l1.395,0.553c0.032,0.013,0.069,0.001,0.087,-0.029l0.899,-1.469c0.015,-0.024,0.041,-0.037,0.069,-0.033c0.434,0.052,0.881,0.051,1.334,-0.011c0.027,-0.004,0.054,0.008,0.069,0.031l0.966,1.473c0.019,0.029,0.056,0.04,0.088,0.026l1.719,-0.743c0.032,-0.014,0.049,-0.048,0.041,-0.082l-0.406,-1.687c-0.007,-0.027,0.004,-0.055,0.025,-0.072c0.366,-0.286,0.692,-0.618,0.969,-0.988c0.017,-0.022,0.044,-0.033,0.071,-0.027l1.758,0.365c0.034,0.007,0.068,-0.011,0.081,-0.043l0.69,-1.741C30.408,9.925,30.395,9.889,30.366,9.87zM25.134,9.288c-0.603,0.861,-1.733,0.991,-2.522,0.441c-0.812,-0.579,-1.029,-1.689,-0.447,-2.52c0.613,-0.875,1.76,-0.99,2.537,-0.428C25.492,7.351,25.717,8.455,25.134,9.288z" fill="#92CBEE"/>
    <path d="M30.86,10.141l-0.69,1.742c-0.102,0.259,-0.375,0.406,-0.647,0.349l-1.498,-0.311c-0.205,0.247,-0.431,0.478,-0.675,0.688l0.343,1.426c0.065,0.272,-0.074,0.548,-0.329,0.658l-1.718,0.743c-0.256,0.11,-0.552,0.022,-0.704,-0.211l-0.821,-1.252c-0.303,0.027,-0.608,0.029,-0.912,0.008l-0.759,1.24c-0.107,0.174,-0.293,0.273,-0.487,0.273c-0.07,0,-0.142,-0.013,-0.211,-0.04l-1.39,-0.551c0.145,-0.359,0.273,-0.719,0.382,-1.076l-0.029,0.14l1.07,0.424l0.711,-1.161c0.116,-0.19,0.334,-0.295,0.555,-0.269c0.401,0.048,0.807,0.045,1.206,-0.01c0.217,-0.03,0.435,0.069,0.555,0.253l0.768,1.171l1.057,-0.457l-0.321,-1.337c-0.052,-0.217,0.028,-0.446,0.204,-0.584c0.331,-0.258,0.626,-0.559,0.876,-0.893c0.133,-0.177,0.357,-0.261,0.572,-0.217l1.406,0.292l0.424,-1.07l-1.219,-0.746c-0.189,-0.116,-0.295,-0.333,-0.269,-0.553c0.043,-0.377,0.041,-0.761,-0.008,-1.14c-0.028,-0.215,0.071,-0.431,0.253,-0.55l1.227,-0.805l-0.457,-1.057l-1.382,0.332c-0.218,0.052,-0.448,-0.028,-0.585,-0.206c-0.247,-0.32,-0.536,-0.609,-0.859,-0.857c-0.172,-0.132,-0.255,-0.355,-0.211,-0.567l0.299,-1.439l-1.07,-0.424l-0.746,1.218c-0.117,0.191,-0.336,0.296,-0.559,0.268c-0.38,-0.048,-0.767,-0.049,-1.151,-0.004c-0.217,0.026,-0.425,-0.072,-0.545,-0.254l-0.795,-1.212l-1.057,0.457l0.321,1.335c0.053,0.221,-0.03,0.452,-0.211,0.589c-0.338,0.255,-0.64,0.554,-0.9,0.89c-0.133,0.172,-0.356,0.254,-0.568,0.21l-0.4,-0.083c-0.065,-0.067,-0.13,-0.134,-0.198,-0.198c-0.4,-0.382,-0.832,-0.721,-1.289,-1.014c0.109,-0.051,0.233,-0.07,0.358,-0.043l1.476,0.307c0.212,-0.25,0.445,-0.48,0.695,-0.69l-0.341,-1.42c-0.065,-0.271,0.073,-0.548,0.329,-0.658l1.718,-0.743c0.255,-0.111,0.552,-0.022,0.704,0.211l0.851,1.298c0.283,-0.02,0.567,-0.02,0.848,0.002l0.793,-1.295c0.145,-0.237,0.439,-0.335,0.697,-0.233l1.741,0.69c0.259,0.103,0.405,0.375,0.349,0.647l-0.319,1.535c0.234,0.199,0.453,0.416,0.652,0.649l1.47,-0.353c0.271,-0.065,0.548,0.073,0.658,0.329l0.743,1.718c0.111,0.255,0.022,0.551,-0.211,0.704l-1.311,0.86c0.022,0.279,0.025,0.559,0.006,0.837l1.299,0.796C30.864,9.589,30.962,9.882,30.86,10.141zM21.755,6.922c0.359,-0.512,0.89,-0.851,1.496,-0.953c0.608,-0.103,1.244,0.045,1.743,0.406c1.038,0.75,1.279,2.155,0.549,3.199h0c-0.447,0.639,-1.164,0.981,-1.892,0.981c-0.458,0,-0.921,-0.135,-1.325,-0.417C21.269,9.384,21.02,7.973,21.755,6.922zM22.903,9.321c0.525,0.367,1.353,0.349,1.822,-0.32h0c0.414,-0.591,0.276,-1.389,-0.315,-1.815c-0.225,-0.162,-0.498,-0.249,-0.774,-0.249c-0.072,0,-0.145,0.006,-0.217,0.018c-0.241,0.041,-0.582,0.167,-0.844,0.541C22.158,8.091,22.302,8.893,22.903,9.321z" fill="#0964B0"/>
  </g>
</svg>
