<?xml version="1.0" encoding="UTF-8"?>
<!DOCTYPE svg PUBLIC "-//W3C//DTD SVG 1.1//EN" "http://www.w3.org/Graphics/SVG/1.1/DTD/svg11.dtd">
<svg version="1.1" id="Layer_1" xmlns="http://www.w3.org/2000/svg" xmlns:xlink="http://www.w3.org/1999/xlink" x="0px" y="0px" width="32px" height="32px" viewBox="0 0 32 32" enable-background="new 0 0 32 32" xml:space="preserve">
  <g id="icon">
    <rect x="5.4" y="5.4" width="21" height="21.1" fill="#FFFFFF"/>
    <path d="M26,5.5H6c-1.105,0,-2,-0.895,-2,-2v0c0,-1.105,0.895,-2,2,-2h20c1.105,0,2,0.895,2,2v0C28,4.605,27.105,5.5,26,5.5zM28,28.5L28,28.5c0,-1.105,-0.895,-2,-2,-2H6c-1.105,0,-2,0.895,-2,2v0c0,1.105,0.895,2,2,2h20C27.105,30.5,28,29.605,28,28.5zM5.5,5.5v21M26.5,5.5v21" fill="#FFFFFF"/>
    <path d="M26,5.5H6c-1.105,0,-2,-0.895,-2,-2v0c0,-1.105,0.895,-2,2,-2h20c1.105,0,2,0.895,2,2v0C28,4.605,27.105,5.5,26,5.5zM28,28.5L28,28.5c0,-1.105,-0.895,-2,-2,-2H6c-1.105,0,-2,0.895,-2,2v0c0,1.105,0.895,2,2,2h20C27.105,30.5,28,29.605,28,28.5zM5.5,5.5v21M26.5,5.5v21" fill="none" stroke="#383838" stroke-width="1" stroke-miterlimit="1"/>
    <path d="M13.202,15.538c-1.533,0.003,-3.278,0.002,-4.054,-0.017c-0.103,-0.003,-0.184,-0.089,-0.181,-0.193c0.069,-2.417,1.385,-4.722,3.625,-5.959c0.091,-0.05,0.206,-0.017,0.254,0.076c0.272,0.518,1.132,2.158,1.88,3.619c0.045,0.088,0.013,0.195,-0.072,0.246c-0.708,0.428,-1.2,1.181,-1.268,2.053C13.379,15.462,13.3,15.538,13.202,15.538zM16.003,18.209c-0.454,0,-0.881,-0.117,-1.253,-0.321c-0.088,-0.048,-0.197,-0.021,-0.25,0.064c-0.799,1.306,-1.702,2.792,-2.089,3.464c-0.052,0.09,-0.02,0.204,0.07,0.256c2.096,1.199,4.744,1.275,6.964,0.005c0.091,-0.052,0.122,-0.169,0.068,-0.259c-0.297,-0.496,-1.22,-2.044,-2.068,-3.434c-0.051,-0.083,-0.157,-0.11,-0.243,-0.066C16.842,18.103,16.435,18.209,16.003,18.209zM19.153,9.445c-0.272,0.519,-1.135,2.164,-1.879,3.616c-0.045,0.088,-0.012,0.196,0.073,0.247c0.711,0.427,1.205,1.182,1.273,2.056c0.008,0.098,0.087,0.174,0.184,0.174c1.531,0.003,3.273,0.002,4.047,-0.017c0.103,-0.003,0.184,-0.089,0.181,-0.193c-0.069,-2.417,-1.385,-4.722,-3.624,-5.959C19.316,9.318,19.202,9.352,19.153,9.445zM16.05,14.3c-0.69,0,-1.25,0.56,-1.25,1.25s0.56,1.25,1.25,1.25s1.25,-0.56,1.25,-1.25S16.74,14.3,16.05,14.3z" fill="#FFFFFF" stroke="#ED8730" stroke-width="1" stroke-miterlimit="1"/>
  </g>
</svg>
