<?xml version="1.0" encoding="UTF-8"?>
<!DOCTYPE svg PUBLIC "-//W3C//DTD SVG 1.1//EN" "http://www.w3.org/Graphics/SVG/1.1/DTD/svg11.dtd">
<svg version="1.1" id="Layer_1" xmlns="http://www.w3.org/2000/svg" xmlns:xlink="http://www.w3.org/1999/xlink" x="0px" y="0px" width="32px" height="32px" viewBox="0 0 32 32" enable-background="new 0 0 32 32" xml:space="preserve">
  <g id="icon">
    <path d="M29.038,15.975c-0.668,-2.313,-5.198,-4.632,-1.834,-5.02c1.214,-0.14,2.626,-0.079,2.626,-0.079c-1.555,-1.709,-3.099,-3.223,-4.605,-4.114l-0.007,-0.005c-2.113,-1.153,-6.948,0.425,-4.848,-2.224c0.759,-0.958,1.801,-1.913,1.801,-1.913c-2.309,-0.109,-4.471,-0.088,-6.165,0.347l-0.013,0.006c-2.311,0.675,-4.611,5.194,-4.999,1.834c-0.14,-1.214,-0.079,-2.626,-0.079,-2.626C9.206,3.735,7.692,5.279,6.801,6.785l-0.005,0.007c-1.153,2.113,0.425,6.948,-2.224,4.848c-0.958,-0.759,-1.913,-1.801,-1.913,-1.801c-0.109,2.309,-0.123,4.458,0.312,6.153c0,0,0,0.005,0,0.013c0.668,2.313,5.198,4.632,1.834,5.02c-1.214,0.14,-2.626,0.079,-2.626,0.079c1.555,1.709,3.099,3.223,4.605,4.114l0.007,0.005c2.113,1.153,6.948,-0.425,4.848,2.224c-0.759,0.958,-1.801,1.913,-1.801,1.913c2.309,0.109,4.468,0.081,6.163,-0.355l0.002,-0.001c2.311,-0.675,4.624,-5.191,5.013,-1.831c0.14,1.214,0.079,2.626,0.079,2.626c1.709,-1.555,3.223,-3.099,4.114,-4.605l0.005,-0.007c1.153,-2.113,-0.425,-6.948,2.224,-4.848c0.958,0.759,1.913,1.801,1.913,1.801c0.109,-2.309,0.123,-4.458,-0.312,-6.153C29.039,15.988,29.039,15.983,29.038,15.975zM16.023,19.653c-2.031,0,-3.677,-1.646,-3.677,-3.677s1.646,-3.677,3.677,-3.677s3.677,1.646,3.677,3.677S18.054,19.653,16.023,19.653z" fill="#FFFFFF" stroke="#383838" stroke-width="1.1" stroke-miterlimit="1"/>
  </g>
</svg>
