<?xml version="1.0" encoding="UTF-8"?>
<!DOCTYPE svg PUBLIC "-//W3C//DTD SVG 1.1//EN" "http://www.w3.org/Graphics/SVG/1.1/DTD/svg11.dtd">
<svg version="1.1" id="Layer_1" xmlns="http://www.w3.org/2000/svg" xmlns:xlink="http://www.w3.org/1999/xlink" x="0px" y="0px" width="16px" height="16px" viewBox="0 0 16 16" enable-background="new 0 0 16 16" xml:space="preserve">
  <g id="icon">
    <path d="M0.5,12.5V3.5h14v9H0.5z" fill="#FFFFFF" opacity="0.4"/>
    <path d="M0,13V3h15v3h1v4h-1v3H0zM1,4v8h13V4H1z" fill="#6D6E71"/>
    <path d="M13,10.9055V11H9.4217c-0.0034,-0.0365,-0.0084,-0.0729,-0.0162,-0.1088l-0.1862,-0.8603l3.5378,0.8506C12.8379,10.901,12.9194,10.908,13,10.9055zM13,8.8682V5H8.0539L13,8.8682zM2.3139,5.2075l3.6217,0.8371l-0.1992,-0.7928c-0.0183,-0.0729,-0.0276,-0.1479,-0.0276,-0.2228c0,-0.0098,0.0017,-0.0193,0.002,-0.029H2v0.1904C2.1032,5.1782,2.2091,5.1833,2.3139,5.2075zM2,7.1595V11h4.9314L2,7.1595z" fill="#52B250"/>
    <path d="M12.9444,10.1038L8.168,8.9553l0.4556,2.1051c0.0215,0.0993,-0.0928,0.1711,-0.173,0.1087L2.0424,6.1786c-0.0918,-0.0715,-0.0222,-0.2178,0.0912,-0.1916l4.8968,1.1317l-0.5181,-2.0619c-0.0252,-0.1004,0.0908,-0.1758,0.1723,-0.1121l6.3521,4.9678C13.1287,9.9845,13.058,10.1311,12.9444,10.1038z" fill="#EEAC55"/>
  </g>
</svg>
