<?xml version="1.0" encoding="UTF-8"?>
<!DOCTYPE svg PUBLIC "-//W3C//DTD SVG 1.1//EN" "http://www.w3.org/Graphics/SVG/1.1/DTD/svg11.dtd">
<svg version="1.1" id="Layer_1" xmlns="http://www.w3.org/2000/svg" xmlns:xlink="http://www.w3.org/1999/xlink" x="0px" y="0px" width="16px" height="16px" viewBox="0 0 16 16" enable-background="new 0 0 16 16" xml:space="preserve">
  <g id="icon">
    <path d="M8,0C3.5817,0,0,3.5817,0,8c0,4.4183,3.5817,8,8,8s8,-3.5817,8,-8C16,3.5817,12.4183,0,8,0zM7.1712,2h1.6577v4.7658H7.1712V2zM8,13.5c-3.0277,0,-5.491,-2.4633,-5.491,-5.491c0,-2.137,1.2786,-4.1059,3.2117,-4.9934v1.9141c-0.9752,0.7235,-1.5541,1.8664,-1.5541,3.0793c0,2.1137,1.7196,3.8333,3.8333,3.8333s3.8333,-1.7196,3.8333,-3.8333c0,-1.2128,-0.5789,-2.3558,-1.5541,-3.0793V3.0156c1.9332,0.8875,3.2117,2.8563,3.2117,4.9934C13.491,11.0367,11.0277,13.5,8,13.5z" fill="#9070B1"/>
    <path d="M8,13.5c-3.0277,0,-5.491,-2.4633,-5.491,-5.491c0,-2.137,1.2786,-4.1059,3.2117,-4.9934v1.9141c-0.9752,0.7235,-1.5541,1.8664,-1.5541,3.0793c0,2.1137,1.7196,3.8333,3.8333,3.8333s3.8333,-1.7196,3.8333,-3.8333c0,-1.2128,-0.5789,-2.3558,-1.5541,-3.0793V3.0156c1.9332,0.8875,3.2117,2.8563,3.2117,4.9934C13.491,11.0367,11.0277,13.5,8,13.5zM7.1712,6.7658V2h1.6577v4.7658H7.1712z" fill="#FFFFFF" opacity="0.5"/>
  </g>
</svg>
