<?xml version="1.0" encoding="UTF-8"?>
<!DOCTYPE svg PUBLIC "-//W3C//DTD SVG 1.1//EN" "http://www.w3.org/Graphics/SVG/1.1/DTD/svg11.dtd">
<svg version="1.1" id="Layer_1" xmlns="http://www.w3.org/2000/svg" xmlns:xlink="http://www.w3.org/1999/xlink" x="0px" y="0px" width="16px" height="16px" viewBox="0 0 16 16" enable-background="new 0 0 16 16" xml:space="preserve">
  <g id="icon">
    <path d="M11.5,6.7828v5.43c0,0.7079,-0.564,1.2871,-1.2532,1.2871H1.7532C1.064,13.5,0.5,12.9211,0.5,12.2136V3.8488C0.5,3.11,1.1112,2.5009,1.85,2.5c0.8037,-0.0009,3.3772,0.0008,3.6317,0.0001C5.4922,2.5,5.5,2.5085,5.5,2.519l0,2.2227c0,0.4191,0.34,0.7587,0.7591,0.7583l3.9876,-0.0043C10.936,5.4957,11.5,6.0749,11.5,6.7828zM12.8,3.5c0.5523,0,1,-0.4477,1,-1c0,-0.55,-0.45,-1,-1,-1H8.5v2H12.8zM15.1677,5.6428L12.5,7.3768v4.124l2.6677,1.734c0.1369,0.1052,0.3323,0.0051,0.3323,-0.1702V5.813C15.5,5.6377,15.3046,5.5376,15.1677,5.6428z" fill="#FFFFFF" opacity="0.5"/>
    <path d="M10.2468,4.9958L6.2586,5c-0.0001,0,-0.0001,0,-0.0002,0c-0.0689,0,-0.1338,-0.0268,-0.1826,-0.0755C6.027,4.8756,6,4.8107,6,4.7417l0,-2.2227c0,-0.1393,-0.0543,-0.2701,-0.1528,-0.3682C5.7494,2.0535,5.6198,2,5.4827,2c-0.0008,0,-0.0017,0,-0.0024,0c-0.1156,0.0004,-0.7099,0.0002,-1.3993,0c-0.828,-0.0002,-1.7932,-0.0005,-2.2316,0C0.8296,2.0012,0,2.8306,0,3.8488v8.3648C0,13.1986,0.7865,14,1.7532,14h8.4936c0.9667,0,1.7532,-0.8017,1.7532,-1.7871v-5.43C12,5.7975,11.2135,4.9958,10.2468,4.9958zM11,12.2129c0,0.434,-0.3379,0.7871,-0.7532,0.7871H1.7532c-0.4153,0,-0.7532,-0.3528,-0.7532,-0.7864V3.8488c0,-0.4595,0.3895,-0.8482,0.8506,-0.8488c0.18,-0.0002,0.4487,-0.0003,0.7604,-0.0003c0.447,0,0.9822,0.0001,1.4698,0.0003c0.3466,0.0001,0.6691,0.0002,0.9193,0.0002l0,1.7415c0,0.3364,0.1311,0.6525,0.369,0.8902C5.6067,5.8693,5.9225,6,6.2583,6c0.0004,0,0.0009,0,0.0014,0l3.9874,-0.0042c0.4152,0.0002,0.7529,0.3532,0.7529,0.7871V12.2129zM8,4h4.8c0.8271,0,1.5,-0.6729,1.5,-1.5s-0.6729,-1.5,-1.5,-1.5H8v1H6.7v1h1.3V4zM9,2h3.8c0.2757,0,0.5,0.2243,0.5,0.5s-0.2243,0.5,-0.5,0.5H9V2zM16,5.813v7.2515c0,0.2744,-0.152,0.5197,-0.3967,0.6403c-0.0995,0.049,-0.206,0.0732,-0.3118,0.0732c-0.1438,0,-0.2862,-0.0445,-0.4082,-0.1317L12.5,12.0971v-1.1927l2.5,1.625V6.3481l-2.5,1.625V6.7804l2.3833,-1.5492c0.2119,-0.1513,0.4853,-0.174,0.7199,-0.0585C15.848,5.2934,16,5.5387,16,5.813z" fill="#6D6E71"/>
    <path d="M8,12H2V7h6V12zM3,11h4V8H3V11z" fill="#6485C3"/>
    <path d="M10.2,12H8.7v-1h1.5V12zM10.2,10.5H8.7V9.5h1.5V10.5z" fill="#6D6E71"/>
    <rect x="3" y="8" width="4" height="3" fill="#6485C3" opacity="0.3"/>
  </g>
</svg>
