<?xml version="1.0" encoding="UTF-8"?>
<!DOCTYPE svg PUBLIC "-//W3C//DTD SVG 1.1//EN" "http://www.w3.org/Graphics/SVG/1.1/DTD/svg11.dtd">
<svg version="1.1" id="Layer_1" xmlns="http://www.w3.org/2000/svg" xmlns:xlink="http://www.w3.org/1999/xlink" x="0px" y="0px" width="16px" height="16px" viewBox="0 0 16 16" enable-background="new 0 0 16 16" xml:space="preserve">
  <g id="icon">
    <path d="M11.5,6.2864v5.9271c0,0.7075,-0.564,1.2864,-1.2532,1.2864H3.7532C3.064,13.5,2.5,12.9211,2.5,12.2136V7.2411C2.7911,7.4071,3.122,7.5,3.4634,7.5H7.935C9.0736,7.5,10,6.5644,10,5.4144V5h0.2468C10.936,5,11.5,5.5789,11.5,6.2864zM9,5.4144v-0.9322C9,3.942,8.5665,3.5,8.0366,3.5H3.4634C2.9335,3.5,2.5,3.942,2.5,4.4821v1.0358C2.5,6.058,2.9335,6.5,3.4634,6.5H7.935C8.5208,6.5,9,6.0115,9,5.4144zM0.7577,3.6195L2.5,4.2504v1.5277L0.7577,6.4091C0.6626,6.5065,0.5,6.4375,0.5,6.2997V3.7288C0.5,3.591,0.6626,3.522,0.7577,3.6195zM15.1677,5.4428L12.5,7.1768v4.124l2.6677,1.734c0.1369,0.1052,0.3323,0.0051,0.3323,-0.1702V5.613C15.5,5.4377,15.3046,5.3376,15.1677,5.4428z" fill="#FFFFFF" opacity="0.5"/>
    <path d="M12,6.2864v5.9271c0,0.9851,-0.7865,1.7864,-1.7532,1.7864H3.7532C2.7865,14,2,13.1986,2,12.2136V7.0228l0.1333,-0.0483c0.2451,0.2275,0.5445,0.387,0.8667,0.4667v4.7723c0,0.4336,0.3379,0.7864,0.7532,0.7864h6.4936c0.4153,0,0.7532,-0.3528,0.7532,-0.7864V6.2864c0,-0.4336,-0.3379,-0.7864,-0.7532,-0.7864h-0.2511c0.0012,-0.0286,0.0043,-0.0567,0.0043,-0.0856V4.5h0.2468C11.2135,4.5,12,5.3014,12,6.2864zM2.2804,6.3895L0.998,6.8539c-0.1747,0.111,-0.3937,0.1333,-0.5913,0.0527C0.1597,6.806,0,6.5678,0,6.2998V3.7289c0,-0.2681,0.1597,-0.5063,0.4068,-0.6069c0.1976,-0.0806,0.4166,-0.0584,0.5912,0.0527l1.2664,0.4586C2.5292,3.2506,2.968,3,3.4634,3h4.5731C8.8435,3,9.5,3.6649,9.5,4.4821v0.9322C9.5,6.2887,8.7979,7,7.935,7H3.4634C2.9779,7,2.5468,6.7593,2.2804,6.3895zM3,5.5179C3,5.7837,3.2079,6,3.4634,6H7.935c0.3115,0,0.565,-0.2627,0.565,-0.5856v-0.9322C8.5,4.2163,8.2921,4,8.0366,4H3.4634C3.2079,4,3,4.2163,3,4.4821V5.5179zM2,4.6011L1,4.239v1.5505l1,-0.3621V4.6011zM15.6033,4.9728c-0.2346,-0.1155,-0.5081,-0.0928,-0.7199,0.0585L12.5,6.5804v1.1927l2.5,-1.625v6.1813l-2.5,-1.625v1.1927l2.3833,1.5492c0.122,0.0872,0.2644,0.1317,0.4082,0.1317c0.1058,0,0.2123,-0.0242,0.3118,-0.0732c0.2447,-0.1206,0.3967,-0.3659,0.3967,-0.6403V5.613C16,5.3387,15.848,5.0934,15.6033,4.9728z" fill="#6D6E71"/>
    <rect x="7" y="11" width="3" height="1" fill="#6485C3"/>
  </g>
</svg>
