<?xml version="1.0" encoding="UTF-8"?>
<!DOCTYPE svg PUBLIC "-//W3C//DTD SVG 1.1//EN" "http://www.w3.org/Graphics/SVG/1.1/DTD/svg11.dtd">
<svg version="1.1" id="Layer_1" xmlns="http://www.w3.org/2000/svg" xmlns:xlink="http://www.w3.org/1999/xlink" x="0px" y="0px" width="16px" height="16px" viewBox="0 0 16 16" enable-background="new 0 0 16 16" xml:space="preserve">
  <g id="icon">
    <path d="M14.5,12.5H1.5V3.0667C1.5,2.7537,1.7537,2.5,2.0667,2.5h11.8667c0.313,0,0.5667,0.2537,0.5667,0.5667V12.5z" fill="#FFFFFF" opacity="0.5"/>
    <path d="M15,13H1V3.0667C1,2.4785,1.4785,2,2.0667,2h11.8667C14.5215,2,15,2.4785,15,3.0667V13zM2,12h12V3.0667c0,-0.0368,-0.0299,-0.0667,-0.0667,-0.0667H2.0667C2.0299,3,2,3.0299,2,3.0667V12z" fill="#6D6E71"/>
    <path d="M14.6083,14.5H1.3917C0.8992,14.5,0.5,14.1008,0.5,13.6083V12.5h15v1.1083C15.5,14.1008,15.1008,14.5,14.6083,14.5z" fill="#FFFFFF" opacity="0.5"/>
    <path d="M14.6083,15H1.3917C0.6243,15,0,14.3757,0,13.6083V12h16v1.6083C16,14.3757,15.3757,15,14.6083,15zM1,13v0.6083c0,0.216,0.1757,0.3917,0.3917,0.3917h13.2167c0.216,0,0.3917,-0.1757,0.3917,-0.3917V13H1z" fill="#6D6E71"/>
  </g>
</svg>
