<?xml version="1.0" encoding="UTF-8"?>
<!DOCTYPE svg PUBLIC "-//W3C//DTD SVG 1.1//EN" "http://www.w3.org/Graphics/SVG/1.1/DTD/svg11.dtd">
<svg version="1.1" id="Layer_1" xmlns="http://www.w3.org/2000/svg" xmlns:xlink="http://www.w3.org/1999/xlink" x="0px" y="0px" width="16px" height="16px" viewBox="0 0 16 16" enable-background="new 0 0 16 16" xml:space="preserve">
  <g id="icon">
    <path d="M16,15h-5v-1h5V15zM5,15H0v-1h5V15zM8.5,11.5H7.5V9h1V11.5z" fill="#6D6E71"/>
    <rect x="0.5" y="1.5" width="15" height="7" fill="#FFFFFF" opacity="0.5"/>
    <path d="M16,9H0V1h16V9zM1,8h14V2H1V8z" fill="#6D6E71"/>
    <rect x="3" y="6" width="2" height="1" fill="#6485C3"/>
    <polygon points="9.7464,15.9536 8,14.2071 6.2536,15.9536 5.5464,15.2464 7.2929,13.5 5.5464,11.7536 6.2536,11.0464 8,12.7929 9.7464,11.0464 10.4536,11.7536 8.7071,13.5 10.4536,15.2464" fill="#CB525D" stroke-linejoin="miter"/>
  </g>
</svg>
