<?xml version="1.0" encoding="UTF-8"?>
<!DOCTYPE svg PUBLIC "-//W3C//DTD SVG 1.1//EN" "http://www.w3.org/Graphics/SVG/1.1/DTD/svg11.dtd">
<svg version="1.1" id="Layer_1" xmlns="http://www.w3.org/2000/svg" xmlns:xlink="http://www.w3.org/1999/xlink" x="0px" y="0px" width="16px" height="16px" viewBox="0 0 16 16" enable-background="new 0 0 16 16" xml:space="preserve">
  <g id="icon">
    <path d="M14,14.5h-1v-2h1V14.5zM12,14.5h-1v-2h1V14.5zM10,14.5H9v-2h1V14.5zM8,14.5H7v-2h1V14.5zM6,14.5H5v-2h1V14.5zM4,14.5H3v-2h1V14.5zM2,14.5H1v-2h1V14.5z" fill="#6D6E71"/>
    <path d="M14,3.5h-1V1.5h1V3.5zM12,3.5h-1V1.5h1V3.5zM10,3.5H9V1.5h1V3.5zM8,3.5H7V1.5h1V3.5zM6,3.5H5V1.5h1V3.5zM4,3.5H3V1.5h1V3.5zM2,3.5H1V1.5h1V3.5z" fill="#6D6E71"/>
    <path d="M15.5,12.5H0.5V3.5h15V12.5z" fill="#FFFFFF" opacity="0.5"/>
    <path d="M16,13H0V3h16V13zM1,12h14V4H1V12z" fill="#6D6E71"/>
    <circle cx="13" cy="6" r="1" fill="#EEAC55"/>
  </g>
</svg>
