<?xml version="1.0" encoding="UTF-8"?>
<!DOCTYPE svg PUBLIC "-//W3C//DTD SVG 1.1//EN" "http://www.w3.org/Graphics/SVG/1.1/DTD/svg11.dtd">
<svg version="1.1" id="Layer_1" xmlns="http://www.w3.org/2000/svg" xmlns:xlink="http://www.w3.org/1999/xlink" x="0px" y="0px" width="16px" height="16px" viewBox="0 0 16 16" enable-background="new 0 0 16 16" xml:space="preserve">
  <g id="icon">
    <rect x="1.5" y="0.5" width="12" height="15" fill="#FFFFFF" opacity="0.5"/>
    <path d="M14,16H1V0h13V16zM2,15h11V1H2V15z" fill="#6D6E71"/>
    <path d="M12,4H3V0h9V4zM10,3h1V1h-1V3zM8,3h1V1H8V3zM6,3h1V1H6V3zM4,3h1V1H4V3z" fill="#EEAC55"/>
    <path d="M7.5538,13.8423c-0.0998,0,-0.2031,-0.0042,-0.3252,-0.0131l0.0657,-0.8976c0.0998,0.0073,0.1822,0.0107,0.2595,0.0107c1.9278,0,3.4962,-1.5684,3.4962,-3.4961S9.4816,5.95,7.5538,5.95S4.0577,7.5184,4.0577,9.4462c0,0.1379,0.0088,0.2772,0.0269,0.4258l-0.8935,0.1086c-0.0222,-0.1824,-0.0334,-0.3622,-0.0334,-0.5344c0,-2.4241,1.9721,-4.3962,4.3961,-4.3962c2.4241,0,4.3962,1.9721,4.3962,4.3962C11.95,11.8702,9.9779,13.8423,7.5538,13.8423z" fill="#6D6E71"/>
    <path d="M4.374,14.711c-0.2284,0,-0.4551,-0.0556,-0.6701,-0.1671c-0.8432,-0.4373,-1.0375,-1.5036,-0.4726,-2.5932c0.3463,-0.6678,2.0558,-2.5047,3.0439,-3.5403c0.1744,-0.1828,0.4424,-0.2273,0.6665,-0.1112c0.2243,0.1163,0.3421,0.3611,0.2931,0.609c-0.2779,1.4063,-0.7958,3.8651,-1.142,4.5328h0c-0.253,0.4879,-0.5917,0.8586,-0.9794,1.072C4.8739,14.6449,4.6229,14.711,4.374,14.711zM6.1152,9.893c-1.1398,1.2273,-1.9138,2.1423,-2.0849,2.4721c-0.2025,0.3906,-0.4119,1.1208,0.0878,1.3799c0.1817,0.0942,0.3653,0.0875,0.5615,-0.0205c0.2278,-0.1254,0.446,-0.3732,0.6143,-0.6978h0C5.465,12.6968,5.7677,11.535,6.1152,9.893z" fill="#6D6E71"/>
  </g>
</svg>
