<?xml version="1.0" encoding="UTF-8"?>
<!DOCTYPE svg PUBLIC "-//W3C//DTD SVG 1.1//EN" "http://www.w3.org/Graphics/SVG/1.1/DTD/svg11.dtd">
<svg version="1.1" id="Layer_1" xmlns="http://www.w3.org/2000/svg" xmlns:xlink="http://www.w3.org/1999/xlink" x="0px" y="0px" width="16px" height="16px" viewBox="0 0 16 16" enable-background="new 0 0 16 16" xml:space="preserve">
  <g id="icon">
    <path d="M4.7835,15.8928c-1.8997,-0.442,-2.7372,-2.0728,-2.5605,-4.9849l1.139,-8.5l-0.0038,-0.0231C3.2402,1.5871,5.1075,0.6087,7.4427,0.2478c0.6038,-0.0933,1.1953,-0.1407,1.7579,-0.1407c1.5798,0,2.7015,0.3813,2.7911,0.9488c0.0038,0.024,0.0053,0.0506,0.0048,0.0837l0.0004,0.0111l0.8116,8.924c0.3743,3.5295,-0.397,5.4193,-2.3575,5.7785L4.7835,15.8928z" fill="#FFFFFF" opacity="0.5"/>
    <path d="M12.0929,1.0395c0.1377,0.8734,-1.7284,1.8876,-4.168,2.2653s-4.529,-0.0241,-4.6667,-0.8975S4.9865,0.5197,7.4262,0.142S11.9552,0.1661,12.0929,1.0395z" fill="#7B7B7B"/>
    <path d="M2.3446,9.2425l0.7544,-5.6396c0.6403,0.4538,1.6856,0.7005,3.0537,0.7005c0.6128,0,1.2547,-0.0513,1.908,-0.1525c1.6492,-0.2553,3.2607,-0.8079,4.1665,-1.5986l0.6057,6.6705C10.5456,10.0325,4.4408,10.0403,2.3446,9.2425zM7.4782,10.6864c-2.05,0,-4.0744,-0.1918,-5.2499,-0.5746l-0.1056,0.7898c-0.1842,3.0399,0.7605,4.6637,2.6531,5.0984l5.6814,-0.0398c1.8718,-0.3382,2.8525,-2.0426,2.4555,-5.8601C11.6417,10.491,9.5473,10.6864,7.4782,10.6864z" fill="#7B7B7B"/>
  </g>
</svg>
