<?xml version="1.0" encoding="UTF-8"?>
<!DOCTYPE svg PUBLIC "-//W3C//DTD SVG 1.1//EN" "http://www.w3.org/Graphics/SVG/1.1/DTD/svg11.dtd">
<svg version="1.1" id="Layer_1" xmlns="http://www.w3.org/2000/svg" xmlns:xlink="http://www.w3.org/1999/xlink" x="0px" y="0px" width="16px" height="16px" viewBox="0 0 16 16" enable-background="new 0 0 16 16" xml:space="preserve">
  <g id="icon">
    <path d="M7,13.5H1.5v-2h5.5V13.5zM14.5,11.5H9v2h5.5V11.5z" fill="#FFFFFF" opacity="0.5"/>
    <path d="M15,14H8.5v-3h6.5V14zM9.5,13h4.5v-1H9.5V13zM7.5,14H1v-3h6.5V14zM2,13h4.5v-1H2V13z" fill="#EEAC55"/>
    <path d="M14.75,6.125c0,-0.4896,0.3133,-1.005,0.75,-1.1596L15.5,3.5H0.5v1.4654c0.4367,0.1546,0.75,0.67,0.75,1.1596c0,0.4896,-0.3133,1.005,-0.75,1.1596V11.5h15l0,-4.2154C15.0633,7.13,14.75,6.6146,14.75,6.125z" fill="#FFFFFF" opacity="0.5"/>
    <path d="M16,12H0V6.9312l0.3332,-0.1179C0.5552,6.7347,0.75,6.413,0.75,6.125s-0.1948,-0.6097,-0.4168,-0.6883L0,5.3188V3h16v2.3188l-0.3332,0.1179c-0.2221,0.0786,-0.4168,0.4002,-0.4168,0.6883s0.1948,0.6097,0.4168,0.6883L16,6.9312V12zM1,11h14V7.5848c-0.4494,-0.3097,-0.75,-0.8726,-0.75,-1.4598s0.3006,-1.1501,0.75,-1.4598V4H1v0.6652c0.4494,0.3097,0.75,0.8726,0.75,1.4598S1.4494,7.2751,1,7.5848V11z" fill="#6D6E71"/>
    <path d="M4.5,10H2.5V5h2V10zM7.5,5H5.5v5h2V5zM10.5,5H8.5v5h2V5zM13.5,5h-2v5h2V5z" fill="#B7B7B7"/>
  </g>
</svg>
