<?xml version="1.0" encoding="UTF-8"?>
<!DOCTYPE svg PUBLIC "-//W3C//DTD SVG 1.1//EN" "http://www.w3.org/Graphics/SVG/1.1/DTD/svg11.dtd">
<svg version="1.1" id="Layer_1" xmlns="http://www.w3.org/2000/svg" xmlns:xlink="http://www.w3.org/1999/xlink" x="0px" y="0px" width="16px" height="16px" viewBox="0 0 16 16" enable-background="new 0 0 16 16" xml:space="preserve">
  <g id="icon">
    <path d="M12.9833,5.5211c-0.0923,-1.354,-0.8965,-2.2679,-2.2065,-2.5073l0.1798,-0.9837c1.7698,0.3235,2.9004,1.6031,3.0244,3.423L12.9833,5.5211zM15.0026,5.1311c-0.2242,-2.1699,-1.5605,-3.669,-3.6662,-4.1128l0.2063,-0.9785c2.5215,0.5315,4.1868,2.3964,4.4547,4.9886L15.0026,5.1311z" fill="#6485C3"/>
    <path d="M1.6601,14.3415L1.6601,14.3415c-1.5484,-1.5545,-1.5466,-4.1,0.0041,-5.6567l3.4912,-3.5118C6.6979,3.6246,9.22,3.6227,10.7602,5.169l0.0149,0.015c1.5402,1.5462,1.5384,4.0783,-0.0041,5.6268l-3.5061,3.5267C5.7225,15.8859,3.2003,15.8878,1.6601,14.3415z" fill="#FFFFFF" opacity="0.5"/>
    <path d="M4.4588,16c-1.1945,0,-2.3143,-0.4637,-3.1529,-1.3056l0,0C-0.4403,12.9414,-0.4385,10.0872,1.31,8.332l3.4909,-3.5114c0.8416,-0.845,1.964,-1.3101,3.1607,-1.3101c1.1945,0,2.3143,0.4637,3.1529,1.3056l0.0143,0.0143c1.7386,1.7455,1.7368,4.5862,-0.0034,6.3332L7.6195,14.69C6.7779,15.5349,5.6555,16,4.4588,16zM2.0144,13.9887C2.664,14.6409,3.5321,15,4.4588,15c0.9289,0,1.7996,-0.3606,2.4519,-1.0154l2.4755,-2.49L4.4763,6.5654L2.0188,9.0374C0.6576,10.4038,0.6558,12.6248,2.0144,13.9887l-0.3542,0.3528L2.0144,13.9887zM7.9905,8.6764l2.1007,2.1089l0.3252,-0.3272c1.2344,-1.2392,1.3441,-3.1855,0.3282,-4.5466L7.9905,8.6764zM5.1813,5.8563l2.1035,2.1117l2.7549,-2.7657c-0.5941,-0.449,-1.3163,-0.6917,-2.0781,-0.6917c-0.9289,0,-1.7997,0.3606,-2.4519,1.0155L5.1813,5.8563z" fill="#6D6E71"/>
  </g>
</svg>
