<?xml version="1.0" encoding="UTF-8"?>
<!DOCTYPE svg PUBLIC "-//W3C//DTD SVG 1.1//EN" "http://www.w3.org/Graphics/SVG/1.1/DTD/svg11.dtd">
<svg version="1.1" id="Layer_1" xmlns="http://www.w3.org/2000/svg" xmlns:xlink="http://www.w3.org/1999/xlink" x="0px" y="0px" width="16px" height="16px" viewBox="0 0 16 16" enable-background="new 0 0 16 16" xml:space="preserve">
  <g id="icon">
    <path d="M11.8167,15.5H3.1833c-0.3774,0,-0.6833,-0.3059,-0.6833,-0.6833V1.1833C2.5,0.8059,2.8059,0.5,3.1833,0.5h8.6333C12.1941,0.5,12.5,0.8059,12.5,1.1833v13.6333C12.5,15.1941,12.1941,15.5,11.8167,15.5z" fill="#FFFFFF" opacity="0.5"/>
    <path d="M11.8167,16H3.1833C2.5309,16,2,15.4691,2,14.8167V1.1833C2,0.5309,2.5309,0,3.1833,0h8.6333C12.4691,0,13,0.5309,13,1.1833v13.6333C13,15.4691,12.4691,16,11.8167,16zM3.1833,1C3.0822,1,3,1.0822,3,1.1833v13.6333c0,0.1011,0.0822,0.1833,0.1833,0.1833h8.6333c0.1011,0,0.1833,-0.0822,0.1833,-0.1833V1.1833c0,-0.1011,-0.0822,-0.1833,-0.1833,-0.1833H3.1833z" fill="#6D6E71"/>
    <rect x="7" y="13.5" width="1" height="1" fill="#B7B7B7"/>
    <rect x="6" y="1.5" width="3" height="1" fill="#B7B7B7"/>
    <path d="M4,3v10h7V3H4zM10,12H5V4h5V12z" fill="#6485C3"/>
    <rect x="5" y="4" width="5" height="8" fill="#6485C3" opacity="0.1"/>
  </g>
</svg>
