<?xml version="1.0" encoding="UTF-8"?>
<!DOCTYPE svg PUBLIC "-//W3C//DTD SVG 1.1//EN" "http://www.w3.org/Graphics/SVG/1.1/DTD/svg11.dtd">
<svg version="1.1" id="Layer_1" xmlns="http://www.w3.org/2000/svg" xmlns:xlink="http://www.w3.org/1999/xlink" x="0px" y="0px" width="16px" height="16px" viewBox="0 0 16 16" enable-background="new 0 0 16 16" xml:space="preserve">
  <g id="icon">
    <path d="M16,15h-4.5v-1h4.5V15zM4.5,15H0v-1h4.5V15zM8.5,12.5H7.5v-1h1V12.5z" fill="#6D6E71"/>
    <path d="M11,16H5v-3h6V16z" fill="#CB525D"/>
    <polygon points="4.5,7 4.5,11.5 11.5,11.5 11.5,7 11.5,0.5 4.5,0.5" fill="#FFFFFF" stroke-linejoin="miter" opacity="0.5"/>
    <path d="M10,2H8v1h2V2z" fill="#6485C3"/>
    <path d="M4,0v5v3v1v3h8V9V8V5V0H4zM11,8v1v2H5V9V8V5h6V8zM11,4H5V1h6V4z" fill="#6D6E71"/>
    <circle cx="8" cy="9" r="1.1" fill="#B7B7B7"/>
  </g>
</svg>
