<?xml version="1.0" encoding="UTF-8"?>
<!DOCTYPE svg PUBLIC "-//W3C//DTD SVG 1.1//EN" "http://www.w3.org/Graphics/SVG/1.1/DTD/svg11.dtd">
<svg version="1.1" id="Layer_1" xmlns="http://www.w3.org/2000/svg" xmlns:xlink="http://www.w3.org/1999/xlink" x="0px" y="0px" width="16px" height="16px" viewBox="0 0 16 16" enable-background="new 0 0 16 16" xml:space="preserve">
  <g id="icon">
    <path d="M14.7482,11.739l-0.8262,-0.5634c1.4543,-2.1328,1.4346,-4.4707,-0.054,-6.4143l0.7939,-0.608C16.404,6.4277,16.4362,9.2635,14.7482,11.739zM12.7866,10.6023l-0.806,-0.5919c0.9398,-1.2798,0.9143,-2.7115,-0.0702,-3.928l0.7773,-0.6291C13.9615,7.0273,13.9985,8.9521,12.7866,10.6023z" fill="#6485C3"/>
    <path d="M10.5,15.5H2.5V0.5h8V15.5zM2.5,3.5h8M2.5,6.5h8" fill="#FFFFFF" opacity="0.5"/>
    <path d="M11,16H2V0h9V16zM3,15h7V7H3V15zM3,6h7V4H3V6zM3,3h7V1H3V3z" fill="#6D6E71"/>
    <path d="M9,5.5H7V4.5h2V5.5zM9,2.5H7V1.5h2V2.5z" fill="#6485C3"/>
    <circle cx="6.5" cy="12" r="1.4" fill="#6D6E71" opacity="0.5"/>
  </g>
</svg>
