<?xml version="1.0" encoding="UTF-8"?>
<!DOCTYPE svg PUBLIC "-//W3C//DTD SVG 1.1//EN" "http://www.w3.org/Graphics/SVG/1.1/DTD/svg11.dtd">
<svg version="1.1" id="Layer_1" xmlns="http://www.w3.org/2000/svg" xmlns:xlink="http://www.w3.org/1999/xlink" x="0px" y="0px" width="16px" height="16px" viewBox="0 0 16 16" enable-background="new 0 0 16 16" xml:space="preserve">
  <g id="icon">
    <path d="M7.5,5.5H0.5V2.5h7V5.5zM7.5,5.5H0.5v5h7V5.5z" fill="#FFFFFF" opacity="0.5"/>
    <polygon points="8.5,0.5 8.5,1 9,1 9,5 9,5 9,8.5 15.5,8.5 15.5,3.5 15.5,0.5" fill="#FFFFFF" stroke-linejoin="miter" opacity="0.5"/>
    <path d="M8,11H0V2h8V11zM1,10h6V6H1V10zM1,5h6V3H1V5zM8,0v1h1l0,0h6v2H9v1h6v4H9v1h7V0H8z" fill="#6D6E71"/>
    <path d="M6,4.5H4V3.5h2V4.5zM14,2.5h-2V1.5h2V2.5z" fill="#6485C3"/>
    <path d="M5,8c0,0.5523,-0.4477,1,-1,1s-1,-0.4477,-1,-1s0.4477,-1,1,-1S5,7.4477,5,8zM12,5c-0.5523,0,-1,0.4477,-1,1s0.4477,1,1,1s1,-0.4477,1,-1S12.5523,5,12,5z" fill="#B7B7B7"/>
    <polygon points="5.9464,15.9536 4.5,14.5071 3.0536,15.9536 2.3464,15.2464 3.7929,13.8 2.3464,12.3536 3.0536,11.6464 4.5,13.0929 5.9464,11.6464 6.6536,12.3536 5.2071,13.8 6.6536,15.2464" fill="#CB525D" stroke-linejoin="miter"/>
    <polygon points="12.9464,15.9536 11.5,14.5071 10.0536,15.9536 9.3464,15.2464 10.7929,13.8 9.3464,12.3536 10.0536,11.6464 11.5,13.0929 12.9464,11.6464 13.6536,12.3536 12.2071,13.8 13.6536,15.2464" fill="#CB525D" stroke-linejoin="miter"/>
    <path d="M16,15h-2v-1h2V15zM9,15H7v-1h2V15zM2,15H0v-1h2V15zM12,8.5h-1v3.1h1V8.5z" fill="#6D6E71"/>
    <rect x="4" y="10.7" width="1" height="1" fill="#6D6E71"/>
  </g>
</svg>
