<?xml version="1.0" encoding="UTF-8"?>
<!DOCTYPE svg PUBLIC "-//W3C//DTD SVG 1.1//EN" "http://www.w3.org/Graphics/SVG/1.1/DTD/svg11.dtd">
<svg version="1.1" id="Layer_1" xmlns="http://www.w3.org/2000/svg" xmlns:xlink="http://www.w3.org/1999/xlink" x="0px" y="0px" width="16px" height="16px" viewBox="0 0 16 16" enable-background="new 0 0 16 16" xml:space="preserve">
  <g id="icon">
    <polygon points="8.0642,3.8735 5.6659,1.6593 6.3442,0.9246 8.0272,2.4783 10.4742,-0.0339 11.1905,0.6639" fill="#787979" stroke-linejoin="miter"/>
    <path d="M14.0033,3.5H1.9967C1.1735,3.5,0.5,4.2009,0.5,5.0577v7.8847C0.5,13.7991,1.1735,14.5,1.9967,14.5h12.0066c0.8232,0,1.4967,-0.7009,1.4967,-1.5577V5.0577C15.5,4.2009,14.8265,3.5,14.0033,3.5z" fill="#FFFFFF" opacity="0.5"/>
    <path d="M14.0033,15H1.9967C0.8958,15,0,14.077,0,12.9423V5.0577C0,3.923,0.8958,3,1.9967,3h12.0065C15.1042,3,16,3.923,16,5.0577v7.8847C16,14.077,15.1042,15,14.0033,15zM1.9967,4C1.4471,4,1,4.4745,1,5.0577v7.8847C1,13.5255,1.4471,14,1.9967,14h12.0065c0.5496,0,0.9967,-0.4745,0.9967,-1.0577V5.0577C15,4.4745,14.5529,4,14.0033,4H1.9967z" fill="#6D6E71"/>
    <path d="M14.0029,13h-1.4846v-1h1.4846V13zM14.0029,8h-1.4846V7h1.4846V8zM14.0029,6h-1.4846V5h1.4846V6z" fill="#B7B7B7"/>
    <path d="M12.7968,16l-0.7286,-1.2479l0.8636,-0.5042L13.9547,16H12.7968zM3.2193,16l0.7149,-1.2521l-0.8684,-0.4958L2.0678,16H3.2193z" fill="#6D6E71"/>
    <path d="M7.881,12.5H6.119C3.4048,12.5,2.5,12.0498,2.5,9.2059v-0.4118C2.5,6.3647,3.45,5.5,6.119,5.5H7.881C10.55,5.5,11.5,6.2327,11.5,8.7941v0.4118C11.5,11.6765,10.5952,12.5,7.881,12.5z" fill="#6485C3" opacity="0.2"/>
    <path d="M7.881,13H6.119C3.2707,13,2,12.4522,2,9.2059v-0.4117C2,6.0992,3.1934,5,6.119,5H7.881c1.5563,0,2.4957,0.2427,3.141,0.8114c0.6764,0.5961,0.978,1.516,0.978,2.9827v0.4117C12,11.9717,10.8836,13,7.881,13zM6.119,6C3.7288,6,3,6.6528,3,8.7941v0.4117C3,11.7255,3.6313,12,6.119,12H7.881c2.4486,0,3.119,-0.6006,3.119,-2.7941v-0.4117C11,6.5745,10.3587,6,7.881,6H6.119z" fill="#6485C3"/>
  </g>
</svg>
