<?xml version="1.0" encoding="UTF-8"?>
<!DOCTYPE svg PUBLIC "-//W3C//DTD SVG 1.1//EN" "http://www.w3.org/Graphics/SVG/1.1/DTD/svg11.dtd">
<svg version="1.1" id="Layer_1" xmlns="http://www.w3.org/2000/svg" xmlns:xlink="http://www.w3.org/1999/xlink" x="0px" y="0px" width="16px" height="16px" viewBox="0 0 16 16" enable-background="new 0 0 16 16" xml:space="preserve">
  <g id="icon">
    <path d="M8.0032,0.4438c-2.361,0,-4.275,1.9028,-4.275,4.25s1.914,4.25,4.275,4.25s4.275,-1.9028,4.275,-4.25S10.3643,0.4438,8.0032,0.4438zM8.0032,6.9924c-1.2713,0,-2.3019,-1.0262,-2.3019,-2.292s1.0306,-2.292,2.3019,-2.292s2.3019,1.0262,2.3019,2.292S9.2746,6.9924,8.0032,6.9924z" fill="#FFFFFF" opacity="0.5"/>
    <path d="M4.8793,11c-0.3583,0,-0.601,-0.0718,-0.787,-0.2326c-0.1256,-0.1087,-0.2753,-0.3102,-0.2753,-0.6524c0,-0.6453,0.5908,-1.4308,1.5051,-2.0013l0.0992,-0.0616l0.4732,0.752l-0.099,0.0618c-0.6727,0.4197,-1.0778,0.9561,-1.0869,1.2395c0.0259,0.0045,0.0689,0.009,0.138,0.009c0.2567,0,0.6688,-0.0579,0.9998,-0.1044c0.6019,-0.0845,1.3499,-0.1895,2.1848,-0.1895c0.8409,0,1.581,0.1057,2.1756,0.1907c0.3208,0.0458,0.7185,0.1026,0.9656,0.1026c0.0615,0,0.101,-0.0036,0.1255,-0.0075c-0.008,-0.2838,-0.3992,-0.8196,-1.0494,-1.2362l-0.0983,-0.063l0.4825,-0.7463l0.0983,0.0629c0.886,0.5678,1.4586,1.3496,1.4586,1.9915c0,0.2775,-0.0929,0.4983,-0.276,0.6564c-0.1831,0.1581,-0.4202,0.2286,-0.7687,0.2286c-0.2932,0,-0.6503,-0.051,-1.0637,-0.11c-0.5691,-0.0812,-1.2748,-0.1819,-2.0501,-0.1819c-0.7725,0,-1.4849,0.1001,-2.0573,0.1805C5.5478,10.9484,5.1807,11,4.8793,11z" fill="#6D6E71"/>
    <path d="M8.0033,9.3877c-2.603,0,-4.7207,-2.1057,-4.7207,-4.6939C3.2825,2.1057,5.4003,0,8.0033,0s4.7207,2.1057,4.7207,4.6938C12.724,7.282,10.6063,9.3877,8.0033,9.3877zM8.0033,0.8876c-2.1114,0,-3.8292,1.7074,-3.8292,3.8062S5.8918,8.5,8.0033,8.5s3.8292,-1.7074,3.8292,-3.8062S10.1147,0.8876,8.0033,0.8876z" fill="#6D6E71"/>
    <ellipse cx="8.0061" cy="1.4543" rx="0.4317" ry="0.4302" fill="#CB525D"/>
    <ellipse cx="7.9926" cy="4.6913" rx="2.2913" ry="2.2829" fill="#6485C3" opacity="0.2"/>
    <path d="M7.9926,7.3443c-1.4683,0,-2.6629,-1.1901,-2.6629,-2.653c0,-1.4628,1.1946,-2.6529,2.6629,-2.6529s2.6629,1.1901,2.6629,2.6529C10.6555,6.1542,9.461,7.3443,7.9926,7.3443zM7.9926,2.7784c-1.0585,0,-1.9197,0.8581,-1.9197,1.9129s0.8612,1.9129,1.9197,1.9129s1.9197,-0.8581,1.9197,-1.9129S9.0512,2.7784,7.9926,2.7784z" fill="#6485C3"/>
    <path d="M7.0439,5.0278c-0.1816,0,-0.3288,-0.1466,-0.3288,-0.3274c0,-0.7217,0.5894,-1.3089,1.314,-1.3089c0.1816,0,0.3288,0.1466,0.3288,0.3274s-0.1472,0.3274,-0.3288,0.3274c-0.3619,0,-0.6563,0.2934,-0.6563,0.6541C7.3728,4.8812,7.2255,5.0278,7.0439,5.0278z" fill="#6485C3"/>
    <path d="M16,15h-4.5v-1h4.5V15zM4.5,15H0v-1h4.5V15z" fill="#6D6E71"/>
    <polygon points="9.7464,15.9536 8,14.2071 6.2536,15.9536 5.5464,15.2464 7.2929,13.5 5.5464,11.7536 6.2536,11.0464 8,12.7929 9.7464,11.0464 10.4536,11.7536 8.7071,13.5 10.4536,15.2464" fill="#CB525D" stroke-linejoin="miter"/>
    <rect x="7.5" y="10.4" width="1" height="0.8" fill="#6D6E71"/>
  </g>
</svg>
