<?xml version="1.0" encoding="UTF-8"?>
<!DOCTYPE svg PUBLIC "-//W3C//DTD SVG 1.1//EN" "http://www.w3.org/Graphics/SVG/1.1/DTD/svg11.dtd">
<svg version="1.1" id="Layer_1" xmlns="http://www.w3.org/2000/svg" xmlns:xlink="http://www.w3.org/1999/xlink" x="0px" y="0px" width="16px" height="16px" viewBox="0 0 16 16" enable-background="new 0 0 16 16" xml:space="preserve">
  <g id="icon">
    <polygon points="11.533,0.5 3.5,0.5 3.5,5 10,5 10,15.5 15.5,15.5 15.5,4.557" fill="#FFFFFF" stroke-linejoin="miter"/>
    <path d="M11.744,0H3v5h1V1h7v4h4v10h-5v1h6V4.353L11.744,0zM12,4V1.693L14.256,4H12z" fill="#383838"/>
    <polygon points="6,6.5 6,12 0.5,12 0.5,15.5 8.5,15.5 8.5,6.5" fill="#FFFFFF" stroke-linejoin="miter"/>
    <polygon points="6,6 6,7 8,7 8,15 1,15 1,12 0,12 0,16 9,16 9,6" fill="#228BCB" stroke-linejoin="miter"/>
    <path d="M6,12h2v1H5v2H4v-2H1v-1h3h1H6zM6,9v1h2V9H6z" fill="#228BCB" opacity="0.3"/>
    <rect y="8" width="2" height="3" fill="#0964B0"/>
    <rect x="3" y="6" width="2" height="5" fill="#0964B0"/>
  </g>
</svg>
