<?xml version="1.0" encoding="UTF-8"?>
<!DOCTYPE svg PUBLIC "-//W3C//DTD SVG 1.1//EN" "http://www.w3.org/Graphics/SVG/1.1/DTD/svg11.dtd">
<svg version="1.1" id="Layer_1" xmlns="http://www.w3.org/2000/svg" xmlns:xlink="http://www.w3.org/1999/xlink" x="0px" y="0px" width="16px" height="16px" viewBox="0 0 16 16" enable-background="new 0 0 16 16" xml:space="preserve">
  <g id="icon">
    <path d="M4.8,12.5H1.95C1.149,12.5,0.5,11.851,0.5,11.05V9M2.736,10.423M4.8,12.474M2.636,14.625M4.8,12.474M2.636,14.625L4.8,12.474l-2.064,-2.051" fill="none" stroke="#EE3D3B" stroke-width="1" stroke-miterlimit="1"/>
    <polygon points="6.533,0.5 0.5,0.5 0.5,8 2,8 2,9 5,9 5,5 9.5,5 9.5,3.557" fill="#FFFFFF" stroke-linejoin="miter"/>
    <path d="M10,3.353V5H9V4H6V1H1v7H0V0h6.744L10,3.353zM8.256,3L7,1.693V3H8.256z" fill="#383838"/>
    <rect x="6.5" y="6.5" width="9" height="9" fill="#FFFFFF" stroke="#ED8730" stroke-width="1" stroke-miterlimit="1"/>
    <path d="M8.525,12.723c0,0.429,1.114,0.777,2.488,0.777s2.488,-0.348,2.488,-0.777M8.5,12.729V9.245v0.006C8.5,8.836,9.614,8.5,10.988,8.5S13.5,8.885,13.5,9.3l0,0v3.4" fill="#FFFFFF" stroke="#ED8730" stroke-width="1" stroke-miterlimit="1"/>
    <path d="M13.5,9.251c0,0.415,-1.114,0.751,-2.488,0.751s-2.488,-0.336,-2.488,-0.751" fill="none" stroke="#ED8730" stroke-width="1" stroke-miterlimit="1"/>
    <path d="M2,4v4h1V7h1v1h1V7V6V5h1V4H2zM4,6H3V5h1V6z" fill="#228BCB" opacity="0.4"/>
  </g>
</svg>
