<?xml version="1.0" encoding="UTF-8"?>
<!DOCTYPE svg PUBLIC "-//W3C//DTD SVG 1.1//EN" "http://www.w3.org/Graphics/SVG/1.1/DTD/svg11.dtd">
<svg version="1.1" id="Layer_1" xmlns="http://www.w3.org/2000/svg" xmlns:xlink="http://www.w3.org/1999/xlink" x="0px" y="0px" width="16px" height="16px" viewBox="0 0 16 16" enable-background="new 0 0 16 16" xml:space="preserve">
  <g id="icon">
    <polygon points="15.5,15.5 4.5,15.5 4.5,0.5 11.533,0.5 15.5,4.557" fill="#FFFFFF" stroke-linejoin="miter"/>
    <path d="M11.744,0H4v9h1V1h6v4h4v10h-1v1h2V4.353L11.744,0zM12,4V1.693L14.256,4H12z" fill="#383838"/>
    <path d="M11.679,16c-0.192,0,-0.37,-0.019,-0.528,-0.056c-0.162,-0.038,-0.315,-0.094,-0.453,-0.167c-0.138,-0.073,-0.266,-0.162,-0.382,-0.267c-0.105,-0.094,-0.271,-0.272,-0.37,-0.395l0.701,-0.654c0.065,0.081,0.195,0.22,0.262,0.28c0.059,0.053,0.126,0.1,0.197,0.137c0.071,0.038,0.152,0.067,0.241,0.088c0.094,0.022,0.206,0.033,0.333,0.033c0.172,0,0.323,-0.027,0.45,-0.08c0.123,-0.051,0.221,-0.117,0.301,-0.201c0.078,-0.083,0.137,-0.177,0.179,-0.289c0.044,-0.117,0.065,-0.242,0.065,-0.382c0,-0.109,-0.016,-0.196,-0.045,-0.252c-0.039,-0.073,-0.088,-0.132,-0.152,-0.182c-0.08,-0.063,-0.175,-0.116,-0.283,-0.159c-0.143,-0.056,-0.289,-0.111,-0.436,-0.161c-0.159,-0.055,-0.317,-0.113,-0.47,-0.172c-0.187,-0.073,-0.357,-0.167,-0.506,-0.279c-0.168,-0.127,-0.306,-0.286,-0.41,-0.473c-0.115,-0.206,-0.173,-0.454,-0.173,-0.736c0,-0.215,0.039,-0.424,0.116,-0.622c0.078,-0.201,0.193,-0.379,0.341,-0.531c0.145,-0.148,0.324,-0.267,0.53,-0.353c0.203,-0.085,0.433,-0.127,0.684,-0.127c0.158,0,0.304,0.015,0.432,0.045c0.126,0.029,0.241,0.067,0.342,0.114c0.104,0.048,0.197,0.102,0.276,0.162c0.067,0.051,0.124,0.098,0.173,0.145c0.029,0.028,0.077,0.077,0.142,0.144c0.022,0.022,0.04,0.041,0.048,0.049l-0.627,0.736c-0.009,-0.009,-0.034,-0.034,-0.063,-0.064c-0.031,-0.032,-0.094,-0.098,-0.111,-0.113c-0.015,-0.015,-0.045,-0.041,-0.094,-0.078c-0.018,-0.014,-0.051,-0.035,-0.107,-0.061c-0.047,-0.021,-0.105,-0.04,-0.173,-0.056c-0.065,-0.015,-0.145,-0.023,-0.239,-0.023c-0.136,0,-0.254,0.02,-0.35,0.06c-0.093,0.039,-0.169,0.088,-0.226,0.146c-0.055,0.056,-0.095,0.118,-0.123,0.191c-0.029,0.076,-0.044,0.153,-0.044,0.235c0,0.097,0.014,0.173,0.04,0.22c0.038,0.068,0.087,0.124,0.149,0.171c0.081,0.061,0.177,0.114,0.287,0.156c0.143,0.055,0.29,0.109,0.439,0.161c0.159,0.055,0.318,0.114,0.472,0.175c0.189,0.075,0.361,0.173,0.51,0.291c0.167,0.132,0.304,0.297,0.408,0.491c0.112,0.21,0.169,0.462,0.169,0.751c0,0.266,-0.044,0.52,-0.132,0.755c-0.089,0.24,-0.221,0.452,-0.391,0.631c-0.169,0.178,-0.376,0.319,-0.614,0.419C12.23,15.951,11.966,16,11.679,16zM3.489,15.786c0.308,-0.144,0.576,-0.354,0.798,-0.623c0.217,-0.264,0.387,-0.585,0.505,-0.954c0.115,-0.359,0.173,-0.764,0.173,-1.205c0,-0.44,-0.058,-0.846,-0.173,-1.206c-0.118,-0.37,-0.287,-0.692,-0.504,-0.957c-0.222,-0.271,-0.49,-0.482,-0.799,-0.626c-0.304,-0.142,-0.641,-0.214,-1.002,-0.214c-0.359,0,-0.696,0.073,-0.999,0.217c-0.306,0.145,-0.574,0.356,-0.795,0.627c-0.217,0.265,-0.386,0.587,-0.504,0.957c-0.115,0.36,-0.173,0.765,-0.173,1.203c0,0.441,0.058,0.846,0.173,1.205c0.118,0.369,0.288,0.69,0.505,0.954c0.221,0.269,0.489,0.479,0.796,0.623c0.303,0.142,0.639,0.215,0.998,0.215C2.849,16,3.185,15.928,3.489,15.786zM3.121,11.132c0.185,0.087,0.34,0.208,0.472,0.37c0.136,0.166,0.245,0.375,0.323,0.62c0.081,0.255,0.122,0.552,0.122,0.881c0,0.329,-0.041,0.625,-0.122,0.879c-0.078,0.244,-0.186,0.451,-0.322,0.616c-0.133,0.162,-0.288,0.283,-0.473,0.37c-0.187,0.087,-0.4,0.132,-0.633,0.132c-0.231,0,-0.442,-0.044,-0.628,-0.131c-0.185,-0.087,-0.339,-0.208,-0.472,-0.37c-0.136,-0.165,-0.244,-0.373,-0.322,-0.616c-0.081,-0.254,-0.122,-0.549,-0.122,-0.879c0,-0.327,0.041,-0.623,0.122,-0.878c0.078,-0.245,0.187,-0.454,0.323,-0.62c0.133,-0.163,0.288,-0.285,0.473,-0.373c0.185,-0.088,0.396,-0.133,0.626,-0.133C2.721,11,2.934,11.044,3.121,11.132zM9.727,13c0,0.452,-0.062,0.865,-0.185,1.229c-0.126,0.373,-0.308,0.695,-0.539,0.958c-0.235,0.267,-0.518,0.472,-0.842,0.61c-0.315,0.135,-0.665,0.203,-1.04,0.203H5.559v-6H7.12c0.375,0,0.725,0.068,1.04,0.203c0.324,0.138,0.608,0.344,0.842,0.61c0.232,0.263,0.413,0.586,0.539,0.959C9.665,12.135,9.727,12.548,9.727,13zM8.801,13c0,-0.335,-0.043,-0.633,-0.129,-0.886c-0.082,-0.243,-0.197,-0.45,-0.341,-0.613c-0.143,-0.162,-0.31,-0.283,-0.511,-0.369c-0.207,-0.088,-0.442,-0.133,-0.7,-0.133h-0.635v4h0.635c0.258,0,0.493,-0.045,0.7,-0.133c0.201,-0.086,0.368,-0.206,0.511,-0.369c0.144,-0.163,0.258,-0.37,0.341,-0.613C8.757,13.633,8.801,13.335,8.801,13z" fill="#238BCB"/>
  </g>
</svg>
