<?xml version="1.0" encoding="UTF-8"?>
<!DOCTYPE svg PUBLIC "-//W3C//DTD SVG 1.1//EN" "http://www.w3.org/Graphics/SVG/1.1/DTD/svg11.dtd">
<svg version="1.1" id="Layer_1" xmlns="http://www.w3.org/2000/svg" xmlns:xlink="http://www.w3.org/1999/xlink" x="0px" y="0px" width="16px" height="16px" viewBox="0 0 16 16" enable-background="new 0 0 16 16" xml:space="preserve">
  <g id="icon">
    <rect x="0.5" y="8.6" width="8" height="6.9" fill="#FFFFFF"/>
    <path d="M9,16H0V8h2V7h1v1h3V7h1v1h2V16zM1,15h7v-4H1V15zM1,10h7V9H7v0.5H6v-0.5H3v0.5H2v-0.5H1V10z" fill="#383838"/>
    <path d="M3,13H2v-1h1V13zM4,13H3v1h1V13zM5,12H4v1h1V12zM6,13H5v1h1V13zM7,12H6v1h1V12z" fill="#238BCB"/>
    <polygon points="2.5,0.5 2.5,6 10,6 10,12.5 15.5,12.5 15.5,0.5" fill="#FFFFFF" stroke-linejoin="miter"/>
    <polygon points="2,0 2,6 3,6 3,1 15,1 15,12 10,12 10,13 16,13 16,0" fill="#383838" stroke-linejoin="miter"/>
    <path d="M12,9h1v3h-1V9zM6,1H5v3h1V1zM5,4H3v1h2V4zM13,4v1h2V4H13zM13,9h2V8h-2V9zM12,1v3h1V1H12z" fill="#787979" opacity="0.6"/>
    <polygon points="4,3 4,6 5,6 5,4 13,4 13,9 10,9 10,10 14,10 14,3" fill="#FFFFFF" stroke-linejoin="miter" opacity="0.6"/>
    <polygon points="5.5,4.5 5.5,6 10,6 10,8.5 12.5,8.5 12.5,4.5" fill="#F7DA8E" stroke-linejoin="miter"/>
    <polygon points="5,4 5,6 6,6 6,5 12,5 12,8 10,8 10,9 13,9 13,4" fill="#E57428" stroke-linejoin="miter"/>
  </g>
</svg>
