<?xml version="1.0" encoding="UTF-8"?>
<!DOCTYPE svg PUBLIC "-//W3C//DTD SVG 1.1//EN" "http://www.w3.org/Graphics/SVG/1.1/DTD/svg11.dtd">
<svg version="1.1" id="Layer_1" xmlns="http://www.w3.org/2000/svg" xmlns:xlink="http://www.w3.org/1999/xlink" x="0px" y="0px" width="16px" height="16px" viewBox="0 0 16 16" enable-background="new 0 0 16 16" xml:space="preserve">
  <g id="icon">
    <path d="M14.5,15.5H3.5V0.5h11V15.5z" fill="#FFFFFF" stroke="#383838" stroke-width="1" stroke-miterlimit="1"/>
    <rect x="1.5" y="0.5" width="2" height="15" fill="#C8C6C4" stroke="#383838" stroke-width="1" stroke-linecap="round" stroke-miterlimit="1"/>
    <path d="M5.472,11.938c-0.347,0,-0.629,-0.285,-0.629,-0.636s0.282,-0.636,0.629,-0.636c0.019,0,0.039,0.001,0.058,0.002l0.052,0.004L6.814,9.2l-0.013,-0.05c-0.014,-0.054,-0.022,-0.109,-0.022,-0.164c0,-0.351,0.282,-0.636,0.629,-0.636c0.019,0,0.038,0.001,0.057,0.003l0.053,0.005l0.346,-0.414l0.336,0.626l-0.19,0.227l0.011,0.048c0.01,0.046,0.015,0.093,0.015,0.14c0,0.351,-0.282,0.636,-0.629,0.636c-0.011,0,-0.022,0,-0.033,-0.001l-0.051,-0.003l-1.241,1.484l0.008,0.046c0.006,0.034,0.009,0.069,0.009,0.102C6.101,11.617,5.807,11.938,5.472,11.938zM9.966,11.035c-0.347,0,-0.629,-0.285,-0.629,-0.636c0,-0.123,0.035,-0.241,0.1,-0.344l0.032,-0.05L7.413,6.177L6.057,8.392l0.014,0.044c0.02,0.063,0.03,0.128,0.03,0.194c0,0.351,-0.282,0.636,-0.629,0.636s-0.629,-0.285,-0.629,-0.636c0,-0.351,0.282,-0.636,0.629,-0.636l0.08,0.002l1.301,-2.125l-0.021,-0.048c-0.035,-0.08,-0.054,-0.169,-0.054,-0.256c0,-0.34,0.263,-0.619,0.598,-0.635l0.053,-0.003l0.014,-0.023l0.014,0.025l0.049,0.008c0.302,0.049,0.53,0.319,0.53,0.628c0,0.088,-0.019,0.178,-0.054,0.259l-0.02,0.045l1.981,3.687l2.066,-4.688l-0.029,-0.045c-0.065,-0.102,-0.1,-0.221,-0.1,-0.343c0,-0.351,0.282,-0.636,0.629,-0.636s0.629,0.285,0.629,0.636c0,0.305,-0.214,0.568,-0.51,0.625l-0.051,0.01l-2.141,4.857l0.034,0.047c0.082,0.111,0.125,0.242,0.125,0.379C10.595,10.749,10.313,11.035,9.966,11.035zM12.571,10.241c-0.347,0,-0.629,-0.285,-0.629,-0.636c0,-0.076,0.013,-0.15,0.04,-0.221l0.018,-0.049l-0.498,-0.712l0.305,-0.692l0.726,1.037l0.051,0.001c0.34,0.007,0.616,0.292,0.616,0.636C13.2,9.956,12.918,10.241,12.571,10.241zM8.906,6.698l0.531,-0.635l-0.008,-0.046c-0.006,-0.036,-0.009,-0.072,-0.009,-0.107c0,-0.351,0.282,-0.636,0.629,-0.636s0.629,0.285,0.629,0.636c0,0.085,-0.018,0.172,-0.051,0.251l-0.022,0.051l0.21,0.299l-0.305,0.692l-0.459,-0.655l-0.047,-0.003c-0.014,-0.001,-0.028,-0.003,-0.043,-0.005l-0.055,-0.008l-0.663,0.793L8.906,6.698z" fill="#A0519F"/>
  </g>
</svg>
