<?xml version="1.0" encoding="UTF-8"?>
<!DOCTYPE svg PUBLIC "-//W3C//DTD SVG 1.1//EN" "http://www.w3.org/Graphics/SVG/1.1/DTD/svg11.dtd">
<svg version="1.1" id="Layer_1" xmlns="http://www.w3.org/2000/svg" xmlns:xlink="http://www.w3.org/1999/xlink" x="0px" y="0px" width="16px" height="16px" viewBox="0 0 16 16" enable-background="new 0 0 16 16" xml:space="preserve">
  <g id="icon">
    <path d="M0.5,0.5v12h7.036l-1.507,-1.546l-2.83,-0.033l1.565,-3.075C4.145,7.1,3.8,6.158,3.8,5.176C3.8,2.864,5.684,0.983,8,0.983s4.2,1.881,4.2,4.192c0,0.984,-0.345,1.925,-0.965,2.672l1.564,3.074l-2.83,0.033L8.462,12.5H15.5V0.5H0.5z" fill="#FFFFFF"/>
    <path d="M16,13H0V0h16V13zM1,12h14V1H1V12z" fill="#383838"/>
    <polygon points="8.5,12.5 0.5,12.5 0.5,15.5 5.533,15.5" fill="#92CBEE" stroke-linejoin="miter"/>
    <polygon points="9.414,13.6 7.039,16 12.733,16 15.108,13.6" fill="#78797A" stroke-linejoin="miter" opacity="0.2"/>
    <polygon points="13.708,13.6 12.325,15 8.031,15 7.039,16 12.742,16 15.117,13.6" fill="#78797A" stroke-linejoin="miter" opacity="0.3"/>
    <path d="M16,12H9.698H8.5H0v4h5.742l2.967,-3H16V12zM5.325,15H1v-2h6.302L5.325,15z" fill="#0964B0"/>
    <path d="M3.804,5H1V4h2.969C3.876,4.319,3.819,4.654,3.804,5zM6,1.49V1H5v1.246C5.293,1.947,5.629,1.691,6,1.49zM4.686,8H1v1h3.177L4.686,8zM11,2.246V1h-1v0.49C10.371,1.691,10.707,1.947,11,2.246zM12.031,4c0.094,0.319,0.15,0.654,0.165,1H15V4H12.031zM11.821,9H15V8h-3.688L11.821,9zM10,10.954V12h1v-1.058L10,10.954zM5,10.942V12h1v-1.046L5,10.942z" fill="#787979" opacity="0.6"/>
    <path d="M7.049,12H1V1h6.636c-0.903,0.078,-1.724,0.441,-2.373,1H2v9h4.074L7.049,12zM8.364,1c0.903,0.078,1.724,0.441,2.373,1H14v9H9.925l-0.975,1H15V1H8.364z" fill="#FFFFFF" opacity="0.5"/>
    <path d="M9.53,7.584l0.999,1.963l-1.157,0.013l-0.735,0.754l-0.541,-2.312M6.468,7.584l-0.999,1.963l1.157,0.013l0.735,0.754l0.541,-2.312M5.2,5.176c0,1.542,1.254,2.792,2.8,2.792s2.8,-1.25,2.8,-2.792S9.546,2.383,8,2.383S5.2,3.633,5.2,5.176z" fill="#F3B8B8" stroke="#E42D2C" stroke-width="1" stroke-linecap="round" stroke-miterlimit="1"/>
  </g>
</svg>
