<?xml version="1.0" encoding="UTF-8"?>
<!DOCTYPE svg PUBLIC "-//W3C//DTD SVG 1.1//EN" "http://www.w3.org/Graphics/SVG/1.1/DTD/svg11.dtd">
<svg version="1.1" id="Layer_1" xmlns="http://www.w3.org/2000/svg" xmlns:xlink="http://www.w3.org/1999/xlink" x="0px" y="0px" width="32px" height="32px" viewBox="0 0 32 32" enable-background="new 0 0 32 32" xml:space="preserve">
  <g id="icon">
    <path d="M19.891,2.838c-0.19,-0.215,-0.559,-0.576,-1.139,-0.831c-0.257,-0.113,-0.828,-0.358,-1.566,-0.277c-0.738,0.081,-1.233,0.443,-1.566,0.692c-0.763,0.572,-1.117,1.272,-1.281,1.523c-1.236,1.895,-1.993,6.251,-1.993,6.251c-0.404,2.993,-0.791,5.042,-1.566,9.139c0,0,-0.322,1.705,-1.85,6.37c-0.135,0.413,-0.507,1.514,-1.423,2.631c-0.829,1.01,-1.58,1.396,-1.85,1.523c-0.441,0.208,-1.044,0.483,-1.85,0.415c-0.86,-0.072,-1.459,-0.493,-1.708,-0.692M8.3,11.238h8.06" fill="none" stroke="#383838" stroke-width="1.3" stroke-miterlimit="1"/>
    <path d="M17.6,24.73l12.4,-13.492M20.047,11.238l8.321,13.492" fill="none" stroke="#383838" stroke-width="1.3" stroke-miterlimit="1"/>
  </g>
</svg>
