<?xml version="1.0" encoding="UTF-8"?>
<!DOCTYPE svg PUBLIC "-//W3C//DTD SVG 1.1//EN" "http://www.w3.org/Graphics/SVG/1.1/DTD/svg11.dtd">
<svg version="1.1" id="Layer_1" xmlns="http://www.w3.org/2000/svg" xmlns:xlink="http://www.w3.org/1999/xlink" x="0px" y="0px" width="32px" height="32px" viewBox="0 0 32 32" enable-background="new 0 0 32 32" xml:space="preserve">
  <g id="icon">
    <path d="M21.905,10.054c-1.41,-2.579,1.584,-6.844,-2.341,-7.479c-3.924,-0.635,-3.072,6.334,-6.393,6.32c-2.097,-0.009,-7.795,-3.822,-9.544,-0.398s5.128,4.084,4.323,8.64s-6.86,4.489,-5.088,9.561c1.772,5.072,7.086,-1.93,10.711,-1.887c3.625,0.043,6.667,7.026,10.171,3.932c3.504,-3.095,-2.124,-5.258,-1.92,-8.664c0.203,-3.406,8.106,-3.524,7.659,-7.66C29.035,8.283,23.314,12.633,21.905,10.054z" fill="#92CBEE" stroke="#0964B0" stroke-width="1.1" stroke-linecap="round" stroke-miterlimit="1"/>
  </g>
</svg>
