<?xml version="1.0" encoding="UTF-8"?>
<!DOCTYPE svg PUBLIC "-//W3C//DTD SVG 1.1//EN" "http://www.w3.org/Graphics/SVG/1.1/DTD/svg11.dtd">
<svg version="1.1" id="Layer_1" xmlns="http://www.w3.org/2000/svg" xmlns:xlink="http://www.w3.org/1999/xlink" x="0px" y="0px" width="32px" height="32px" viewBox="0 0 32 32" enable-background="new 0 0 32 32" xml:space="preserve">
  <g id="icon">
    <path d="M10.871,2.027c-2.505,1.494,-6.539,5.707,-7.557,8.158c-0.539,1.299,0.042,2.074,0.625,2.496c0.107,0.077,0.718,0.214,0.924,0.214l0.108,-0.182l0.023,0.053c-0.534,0.712,-0.613,1.52,-0.223,2.357c0.272,0.584,0.698,1.023,1.3,1.342l0.474,0.198c-0.45,0.803,-0.396,1.696,0.174,2.468c0.224,0.304,0.493,0.55,0.779,0.811c0.114,0.104,0.853,0.754,1.061,0.947l0.082,0.183c-1.463,1.853,-3.093,3.708,-5.103,5.482c-0.514,0.453,-0.569,1.051,-0.439,1.528c0.091,0.335,0.372,0.805,1.193,1.14c0.395,0.161,0.803,0.283,1.206,0.243c3.103,-0.309,6.25,-4.391,8.569,-7.65l0.146,-0.035l-0.06,0.076c0,0,1.288,0.333,1.656,0.432c0.935,0.252,2.842,0.271,4.459,-0.462c0.652,-0.296,2.408,-1.803,4.818,-6.4C26.533,12.67,29.28,5.047,29.7,2.027H10.871zM6.609,16.483l0.019,0.044c-0.012,0.019,-0.024,0.037,-0.035,0.056L6.609,16.483z" fill="#FFFFFF"/>
    <path d="M14.155,21.856c0,0,1.288,0.333,1.656,0.432c0.935,0.252,2.842,0.271,4.459,-0.462c0.652,-0.296,2.408,-1.803,4.818,-6.4C26.533,12.67,29.28,5.047,29.7,2.027M14.583,13.084c-0.82,1.057,-2.645,3.595,-3.438,4.67c-2.147,2.913,-4.388,5.96,-7.606,8.799c-0.514,0.453,-0.569,1.051,-0.439,1.528c0.091,0.335,0.372,0.805,1.193,1.14c0.395,0.161,0.803,0.283,1.206,0.243c4.241,-0.423,8.564,-7.89,10.742,-10.677c0.696,-0.891,1.933,-2.474,2.585,-3.37c0.322,-0.443,0.656,-0.901,0.987,-1.349M10.804,11.702c-0.934,1.107,-2.802,3.152,-3.734,4.26l-0.215,0.256c-0.761,0.906,-0.811,1.995,-0.133,2.913c0.224,0.304,0.493,0.55,0.779,0.811c0.123,0.112,0.98,0.865,1.102,0.985M7.716,9.781c-0.706,0.752,-1.789,1.97,-2.497,2.719c-0.731,0.773,-0.885,1.68,-0.446,2.623c0.272,0.584,0.698,1.023,1.3,1.342l0.504,0.211M11.152,2.401c-2.505,1.494,-6.82,5.332,-7.838,7.783c-0.539,1.299,0.042,2.074,0.625,2.496c0.107,0.077,0.718,0.214,0.924,0.214" fill="#FFFFFF" stroke="#383838" stroke-width="1.1" stroke-miterlimit="1"/>
  </g>
</svg>
