<?xml version="1.0" encoding="UTF-8"?>
<!DOCTYPE svg PUBLIC "-//W3C//DTD SVG 1.1//EN" "http://www.w3.org/Graphics/SVG/1.1/DTD/svg11.dtd">
<svg version="1.1" id="Layer_1" xmlns="http://www.w3.org/2000/svg" xmlns:xlink="http://www.w3.org/1999/xlink" x="0px" y="0px" width="32px" height="32px" viewBox="0 0 32 32" enable-background="new 0 0 32 32" xml:space="preserve">
  <g id="icon">
    <path d="M14.587,6.482C5,6.482,3.482,20.571,3.482,24.311M27.518,24.311c0,-6.407,-1.518,-17.83,-10.914,-17.83M14.7,6.5H5.6M16.5,6.5h9.3" fill="none" stroke="#383838" stroke-width="1" stroke-miterlimit="1"/>
    <path d="M25.5,28.5v-4h4v4H25.5zM1.5,28.5v-4h4v4H1.5zM13.5,8.5V4.5h4v4H13.5z" fill="#92CBEE" stroke="#0964B0" stroke-width="1" stroke-linecap="round" stroke-miterlimit="1"/>
    <path d="M27.684,8.463c-1.056,0,-1.916,-0.859,-1.916,-1.916s0.859,-1.916,1.916,-1.916c1.056,0,1.916,0.859,1.916,1.916S28.741,8.463,27.684,8.463zM3.416,8.463C2.359,8.463,1.5,7.604,1.5,6.548s0.859,-1.916,1.916,-1.916s1.916,0.859,1.916,1.916S4.472,8.463,3.416,8.463z" fill="#FFFFFF" stroke="#787979" stroke-width="1" stroke-miterlimit="1"/>
  </g>
</svg>
