<?xml version="1.0" encoding="UTF-8"?>
<!DOCTYPE svg PUBLIC "-//W3C//DTD SVG 1.1//EN" "http://www.w3.org/Graphics/SVG/1.1/DTD/svg11.dtd">
<svg version="1.1" id="Layer_1" xmlns="http://www.w3.org/2000/svg" xmlns:xlink="http://www.w3.org/1999/xlink" x="0px" y="0px" width="32px" height="32px" viewBox="0 0 32 32" enable-background="new 0 0 32 32" xml:space="preserve">
  <g id="icon">
    <path d="M0.5,9V3.5h24v5.5H0.5zM0.5,18v11.5h24V18H0.5z" fill="#FFFFFF"/>
    <path d="M0,9V3h25v6h-1V4H1v5H0zM24,18v11H1V18H0v12h25V18H24z" fill="#383838"/>
    <rect x="11.5" y="10.5" width="20" height="6" fill="#92CBEE"/>
    <path d="M32,17H11v-7h21V17zM12,16h19v-5H12V16z" fill="#0964B0"/>
    <path d="M18,9V4h1v5H18zM13,9V4h-1v5H13zM19,18h-1v5h-5v-5h-1v5H7v-5H6v5H1v1h5v5h1v-5h5v5h1v-5h5v5h1v-5h5v-1h-5V18zM7,9V4H6v5H7z" fill="#787979" opacity="0.6"/>
    <path d="M4.249,16.781L1,13.5l3.349,-3.281M10,13.5l-8.849,0" fill="none" stroke="#17AB4F" stroke-width="1" stroke-miterlimit="1"/>
  </g>
</svg>
