<?xml version="1.0" encoding="UTF-8"?>
<!DOCTYPE svg PUBLIC "-//W3C//DTD SVG 1.1//EN" "http://www.w3.org/Graphics/SVG/1.1/DTD/svg11.dtd">
<svg version="1.1" id="Layer_1" xmlns="http://www.w3.org/2000/svg" xmlns:xlink="http://www.w3.org/1999/xlink" x="0px" y="0px" width="32px" height="32px" viewBox="0 0 32 32" enable-background="new 0 0 32 32" xml:space="preserve">
  <g id="icon">
    <path d="M19.384,11.812c0.901,-0.825,2.348,-1.868,3.312,-2.303c0.963,-0.434,2.084,-0.652,3.36,-0.652c0.938,0,1.749,0.13,2.431,0.391c0.682,0.261,1.248,0.635,1.699,1.124c0.45,0.489,0.782,1.083,0.995,1.784c0.213,0.701,0.319,1.491,0.319,2.37v11.486l0,0M31.5,16.803c-3.942,0.109,-6.996,0.61,-8.917,1.354c-1.921,0.744,-2.881,1.795,-2.881,3.152c0,0.641,0.122,1.192,0.366,1.654c0.244,0.462,0.566,0.842,0.967,1.14c0.4,0.299,0.857,0.521,1.37,0.668c0.513,0.147,1.039,0.22,1.577,0.22c0.864,0,1.645,-0.087,2.346,-0.261c0.701,-0.174,1.348,-0.407,1.943,-0.7c0.594,-0.293,1.145,-0.633,1.652,-1.018c0.507,-0.385,1.114,-0.816,1.577,-1.24" fill="none" stroke="#383838" stroke-width="1.2" stroke-miterlimit="1"/>
    <path d="M0.6,25.55L8.713,5.774l8.367,19.84M3.572,18.527H13.85" fill="none" stroke="#383838" stroke-width="1.2" stroke-miterlimit="1"/>
  </g>
</svg>
