<?xml version="1.0" encoding="UTF-8"?>
<!DOCTYPE svg PUBLIC "-//W3C//DTD SVG 1.1//EN" "http://www.w3.org/Graphics/SVG/1.1/DTD/svg11.dtd">
<svg version="1.1" id="Layer_1" xmlns="http://www.w3.org/2000/svg" xmlns:xlink="http://www.w3.org/1999/xlink" x="0px" y="0px" width="32px" height="32px" viewBox="0 0 32 32" enable-background="new 0 0 32 32" xml:space="preserve">
  <g id="icon">
    <path d="M30,29.5H3.5V2.067M3.5,29.5l-2,2" fill="none" stroke="#383838" stroke-width="1" stroke-miterlimit="1"/>
    <path d="M23.099,6.418L30.1,12.836l-3.882,4.191l-7.001,-6.418l-8.296,-1.018L4.169,12.43l3.282,-4.191L15.103,5L23.099,6.418z" fill="#F7DA8E" stroke="#E57428" stroke-width="1" stroke-linecap="round" stroke-miterlimit="1"/>
    <path d="M19.462,21.809l8.201,-2.751l-3.882,4.191L15.58,26l-6.686,-7.597l-6.251,1.31l3.882,-4.191l6.251,-1.31L19.462,21.809z" fill="#92CBEE" stroke="#0964B0" stroke-width="1" stroke-linecap="round" stroke-miterlimit="1"/>
    <path d="M12.776,14.212l-3.882,4.191M15.58,26l3.882,-4.191" fill="#92CBEE" stroke="#0964B0" stroke-width="1" stroke-linecap="round" stroke-miterlimit="1"/>
    <path d="M15.103,5l-4.182,4.591M19.217,10.609l3.882,-4.191" fill="#F7DA8E" stroke="#E57428" stroke-width="1" stroke-linecap="round" stroke-miterlimit="1"/>
  </g>
</svg>
