<?xml version="1.0" encoding="UTF-8"?>
<!DOCTYPE svg PUBLIC "-//W3C//DTD SVG 1.1//EN" "http://www.w3.org/Graphics/SVG/1.1/DTD/svg11.dtd">
<svg version="1.1" id="Layer_1" xmlns="http://www.w3.org/2000/svg" xmlns:xlink="http://www.w3.org/1999/xlink" x="0px" y="0px" width="32px" height="32px" viewBox="0 0 32 32" enable-background="new 0 0 32 32" xml:space="preserve">
  <g id="icon">
    <path d="M18.531,1.414L10.286,12.8l8.639,12.022M1.5,24.822l8.671,-11.99L1.896,1.414" fill="none" stroke="#383838" stroke-width="1.2" stroke-miterlimit="1"/>
    <path d="M22.34,20.193c0.069,-0.542,0.211,-1.031,0.428,-1.467c0.216,-0.436,0.493,-0.805,0.832,-1.109c0.338,-0.303,0.728,-0.537,1.17,-0.702c0.442,-0.165,0.922,-0.247,1.442,-0.247c0.451,0,0.894,0.068,1.33,0.203c0.435,0.136,0.822,0.347,1.16,0.634c0.338,0.287,0.612,0.654,0.822,1.099c0.21,0.445,0.315,0.981,0.315,1.607c0,0.516,-0.08,0.997,-0.24,1.443c-0.16,0.445,-0.374,0.871,-0.644,1.278c-0.269,0.407,-0.581,0.805,-0.935,1.196c-0.354,0.391,-0.725,0.789,-1.113,1.196l-4.608,4.984V30.4H31" fill="none" stroke="#228BCB" stroke-width="1.2" stroke-miterlimit="1"/>
  </g>
</svg>
