<?xml version="1.0" encoding="UTF-8"?>
<!DOCTYPE svg PUBLIC "-//W3C//DTD SVG 1.1//EN" "http://www.w3.org/Graphics/SVG/1.1/DTD/svg11.dtd">
<svg version="1.1" id="Layer_1" xmlns="http://www.w3.org/2000/svg" xmlns:xlink="http://www.w3.org/1999/xlink" x="0px" y="0px" width="32px" height="32px" viewBox="0 0 32 32" enable-background="new 0 0 32 32" xml:space="preserve">
  <g id="icon">
    <polygon points="30.5,30.5 7.5,30.5 7.5,1.5 22.5,1.5 30.5,9.5" fill="#FFFFFF" stroke-linejoin="miter"/>
    <path d="M22.707,1H7v8h1V2h14v8h8v20H8v-2H7v3h24V9.293L22.707,1zM23,9V2.707L29.293,9H23z" fill="#383838"/>
    <path d="M20,13.5" fill="none" stroke="#0964B0" stroke-width="1" stroke-miterlimit="1"/>
    <path d="M10.5,13.5" fill="none" stroke="#0964B0" stroke-width="1" stroke-miterlimit="1"/>
    <path d="M4.5,25.5H1.5v-8h3V25.5zM14.5,14.5h-3v11h3V14.5zM9.5,11.5H6.5v14h3V11.5z" fill="#92CBEE" stroke="#0964B0" stroke-width="1" stroke-linecap="round" stroke-miterlimit="1"/>
  </g>
</svg>
