<?xml version="1.0" encoding="UTF-8"?>
<!DOCTYPE svg PUBLIC "-//W3C//DTD SVG 1.1//EN" "http://www.w3.org/Graphics/SVG/1.1/DTD/svg11.dtd">
<svg version="1.1" id="Layer_1" xmlns="http://www.w3.org/2000/svg" xmlns:xlink="http://www.w3.org/1999/xlink" x="0px" y="0px" width="32px" height="32px" viewBox="0 0 32 32" enable-background="new 0 0 32 32" xml:space="preserve">
  <g id="icon">
    <polygon points="9.5,1.5 9.5,9 24,9 24,17.5 30.5,17.5 30.5,1.5" fill="#FFFFFF" stroke-linejoin="miter"/>
    <polygon points="9,1 9,9 10,9 10,2 30,2 30,17 24,17 24,18 31,18 31,1" fill="#383838" stroke-linejoin="miter"/>
    <polygon points="24,18.6 24,22 24.733,22 28.108,18.6" fill="#78797A" stroke-linejoin="miter" opacity="0.2"/>
    <polygon points="26.708,18.6 24.325,21 24,21 24,22 24.742,22 28.117,18.6" fill="#78797A" stroke-linejoin="miter" opacity="0.3"/>
    <rect x="24" y="17" width="7" height="1" fill="#0964B0"/>
    <path d="M24,13h6v1h-6V13zM30,10V9h-6v1H30zM30,6V5h-6V2h-1v3h-6V2h-1v3h-6v1h6v3h1V6h6v3h1V6H30z" fill="#787979" opacity="0.6"/>
    <polygon points="10,2 10,9 11,9 11,3 29,3 29,16 24,16 24,17 30,17 30,2" fill="#FFFFFF" stroke-linejoin="miter" opacity="0.5"/>
    <rect x="1.5" y="10.5" width="21" height="16" fill="#FFFFFF"/>
    <path d="M23,27H1V10h22V27zM2,26h20V11H2V26z" fill="#383838"/>
    <polygon points="13.5,26.5 1.5,26.5 1.5,30.5 9.533,30.5" fill="#92CBEE" stroke-linejoin="miter"/>
    <path d="M20.108,27.6l-3.375,3.4h-5.694l3.375,-3.4H20.108z" fill="#78797A" opacity="0.2"/>
    <path d="M20.117,27.6l-3.375,3.4h-5.703l0.992,-1h4.294l2.383,-2.4H20.117z" fill="#78797A" opacity="0.3"/>
    <path d="M14.7,26h-2.2H1v5h8.742l3.967,-4H23v-1H14.7zM9.325,30H2v-3h10.3L9.325,30z" fill="#0964B0"/>
    <path d="M22,22h-6v-3h6v-1h-6v-3h6v-1h-6v-3h-1v3H9v-3H8v3H2v1h6v3H2v1h6v3H2v1h6v3h1v-3h6v3h1v-3h6V22zM15,22H9v-3h6V22zM15,18H9v-3h6V18z" fill="#787979" opacity="0.6"/>
    <path d="M22,26H2V11h20V26zM3,25h18V12H3V25z" fill="#FFFFFF" opacity="0.5"/>
  </g>
</svg>
