<?xml version="1.0" encoding="UTF-8"?>
<!DOCTYPE svg PUBLIC "-//W3C//DTD SVG 1.1//EN" "http://www.w3.org/Graphics/SVG/1.1/DTD/svg11.dtd">
<svg version="1.1" id="Layer_1" xmlns="http://www.w3.org/2000/svg" xmlns:xlink="http://www.w3.org/1999/xlink" x="0px" y="0px" width="16px" height="16px" viewBox="0 0 16 16" enable-background="new 0 0 16 16" xml:space="preserve">
  <g id="icon">
    <path d="M5.38,12.5c-0.519,1.013,-1.428,2.783,-1.507,2.893c-0.017,0.018,-0.047,0.044,-0.06,0.053c-0.081,0.049,-0.09,0.055,-0.779,0.055c-0.381,0,-0.619,-0.007,-0.68,-0.013c-0.089,-0.026,-0.165,-0.088,-0.2,-0.164c-0.015,-0.033,-0.029,-0.082,-0.008,-0.128c0.059,-0.099,0.887,-1.732,1.374,-2.694H5.38zM12.454,12.5h-1.843c0.519,1.014,1.429,2.785,1.506,2.893c0.017,0.018,0.047,0.044,0.061,0.053c0.08,0.049,0.089,0.054,0.778,0.054c0.381,0,0.62,-0.007,0.68,-0.013c0.123,-0.036,0.214,-0.134,0.216,-0.233c-0.001,-0.037,-0.005,-0.051,-0.006,-0.055C13.815,15.148,12.948,13.439,12.454,12.5z" fill="#92CBEE"/>
    <path d="M5.942,12.5c-0.751,1.469,-1.563,3.045,-1.661,3.183l-0.04,0.049c-0.035,0.038,-0.099,0.097,-0.161,0.136C3.864,16,3.77,16,3.035,16c-0.342,0,-0.626,-0.006,-0.726,-0.015l-0.049,-0.004l-0.047,-0.014c-0.227,-0.067,-0.419,-0.229,-0.513,-0.435c-0.083,-0.18,-0.086,-0.373,-0.009,-0.544l0.027,-0.051c0.062,-0.11,0.672,-1.31,1.242,-2.437h1.121c-0.37,0.732,-0.945,1.869,-1.269,2.499c0.067,0.001,0.141,0.001,0.223,0.001c0.16,0,0.363,0,0.489,-0.003c0.204,-0.377,0.777,-1.487,1.294,-2.497H5.942zM14.322,15.048l-0.017,-0.053l-0.024,-0.042c-0.023,-0.044,-0.143,-0.278,-0.281,-0.548c-0.243,-0.474,-0.594,-1.161,-0.888,-1.728c-0.031,-0.061,-0.062,-0.119,-0.092,-0.177h-1.129c0.308,0.579,0.921,1.777,1.22,2.361c0.026,0.05,0.049,0.096,0.071,0.138c-0.067,0.001,-0.142,0.001,-0.224,0.001c-0.16,0,-0.362,0,-0.489,-0.003c-0.219,-0.405,-0.848,-1.628,-1.294,-2.497H10.05c0.14,0.277,0.346,0.677,0.651,1.269c0.92,1.788,0.973,1.863,1.008,1.912l0.042,0.052c0.036,0.038,0.099,0.097,0.167,0.139c0.209,0.127,0.303,0.127,1.038,0.127c0.343,0,0.628,-0.006,0.726,-0.015l0.047,-0.004l0.046,-0.013c0.335,-0.097,0.572,-0.387,0.577,-0.706l0,-0.01l0,-0.01C14.349,15.166,14.34,15.104,14.322,15.048z" fill="#0964B0"/>
    <path d="M14.5,11.5H1.5V2.492c0,-0.548,0.444,-0.992,0.992,-0.992h11.017c0.548,0,0.992,0.444,0.992,0.992V11.5z" fill="#FFFFFF"/>
    <path d="M14.5,11.5H1.5V2.492c0,-0.548,0.444,-0.992,0.992,-0.992h11.017c0.548,0,0.992,0.444,0.992,0.992V11.5z" fill="#C8C6C4" opacity="0.4"/>
    <path d="M15,11V2.492c0,-0.823,-0.669,-1.492,-1.492,-1.492H2.492C1.669,1,1,1.669,1,2.492V11H0v1h1h14h1v-1H15zM2,11V2.492c0,-0.271,0.221,-0.492,0.492,-0.492h11.017c0.271,0,0.492,0.221,0.492,0.492V11H2z" fill="#383838"/>
    <path d="M10.034,9.041l-0.338,-0.872c-0.006,-0.016,-0.003,-0.034,0.009,-0.046c0.247,-0.261,0.435,-0.579,0.544,-0.931c0.005,-0.016,0.018,-0.028,0.035,-0.03l0.917,-0.155c0.02,-0.003,0.035,-0.019,0.037,-0.039c0.031,-0.305,0.032,-0.643,0,-0.949c-0.002,-0.02,-0.018,-0.036,-0.037,-0.039l-0.91,-0.141c-0.017,-0.003,-0.03,-0.015,-0.035,-0.031c-0.107,-0.358,-0.296,-0.68,-0.545,-0.946c-0.011,-0.012,-0.015,-0.03,-0.009,-0.045l0.321,-0.864c0.007,-0.019,0.001,-0.04,-0.015,-0.052c-0.249,-0.179,-0.541,-0.35,-0.821,-0.474c-0.018,-0.008,-0.04,-0.003,-0.053,0.013l-0.576,0.716c-0.011,0.013,-0.028,0.019,-0.044,0.015c-0.173,-0.04,-0.353,-0.061,-0.538,-0.061c-0.189,0,-0.373,0.022,-0.55,0.064c-0.016,0.004,-0.033,-0.002,-0.044,-0.015l-0.59,-0.714c-0.013,-0.015,-0.034,-0.021,-0.052,-0.012c-0.28,0.126,-0.573,0.293,-0.822,0.474c-0.016,0.012,-0.022,0.033,-0.015,0.052l0.336,0.868c0.006,0.016,0.003,0.033,-0.009,0.046c-0.243,0.263,-0.428,0.58,-0.533,0.932c-0.005,0.016,-0.018,0.028,-0.035,0.031l-0.927,0.156c-0.02,0.003,-0.035,0.019,-0.037,0.039c-0.031,0.305,-0.033,0.643,-0.001,0.949c0.002,0.02,0.018,0.036,0.037,0.039l0.933,0.145c0.017,0.003,0.03,0.014,0.035,0.031c0.107,0.346,0.291,0.658,0.531,0.916c0.011,0.012,0.015,0.03,0.009,0.045l-0.332,0.891c-0.007,0.019,-0.001,0.04,0.015,0.052c0.249,0.179,0.541,0.35,0.821,0.475c0.018,0.008,0.04,0.003,0.053,-0.013l0.593,-0.737c0.011,-0.013,0.028,-0.019,0.044,-0.015c0.173,0.04,0.353,0.061,0.539,0.061c0.18,0,0.354,-0.02,0.522,-0.058c0.016,-0.004,0.033,0.002,0.043,0.015l0.602,0.729c0.013,0.015,0.034,0.021,0.052,0.012c0.28,-0.126,0.573,-0.293,0.822,-0.474C10.035,9.081,10.041,9.06,10.034,9.041zM7.542,7.24c-0.408,-0.236,-0.549,-0.758,-0.313,-1.166c0.236,-0.408,0.758,-0.549,1.166,-0.313c0.408,0.236,0.549,0.758,0.313,1.166C8.473,7.336,7.95,7.476,7.542,7.24z" fill="#C8C6C4"/>
    <path d="M5.996,9.652c-0.109,-0.067,-0.215,-0.138,-0.316,-0.21c-0.17,-0.123,-0.238,-0.346,-0.165,-0.543l0.254,-0.682c-0.159,-0.204,-0.29,-0.43,-0.388,-0.669l-0.71,-0.11c-0.21,-0.032,-0.372,-0.203,-0.394,-0.414c-0.034,-0.325,-0.034,-0.693,0.001,-1.035c0.021,-0.209,0.181,-0.38,0.388,-0.414l0.705,-0.119c0.098,-0.245,0.23,-0.476,0.392,-0.685l-0.255,-0.658c-0.077,-0.198,-0.01,-0.423,0.161,-0.548c0.265,-0.193,0.584,-0.376,0.897,-0.517c0.192,-0.086,0.419,-0.033,0.553,0.129l0.446,0.54c0.135,-0.02,0.273,-0.03,0.41,-0.03c0.132,0,0.264,0.009,0.395,0.028l0.434,-0.539c0.133,-0.165,0.361,-0.221,0.555,-0.135c0.3,0.133,0.618,0.317,0.897,0.518c0.171,0.123,0.238,0.346,0.165,0.543l-0.243,0.653c0.168,0.213,0.304,0.45,0.404,0.7l0.684,0.106c0.21,0.033,0.372,0.202,0.394,0.413c0.035,0.326,0.035,0.694,0,1.036c-0.021,0.208,-0.18,0.379,-0.387,0.414l-0.699,0.118c-0.1,0.246,-0.235,0.478,-0.4,0.687l0.255,0.659c0.076,0.198,0.01,0.423,-0.161,0.547c-0.265,0.193,-0.584,0.377,-0.897,0.517c-0.192,0.086,-0.419,0.033,-0.553,-0.129l-0.46,-0.557c-0.126,0.017,-0.253,0.026,-0.38,0.026c-0.132,0,-0.264,-0.009,-0.395,-0.028l-0.451,0.56c-0.133,0.165,-0.361,0.221,-0.555,0.135C6.385,9.875,6.187,9.769,5.996,9.652zM6.471,9.294C6.471,9.294,6.471,9.294,6.471,9.294L6.471,9.294zM6.414,8.914c0.081,0.051,0.164,0.099,0.248,0.144l0.403,-0.5c0.112,-0.139,0.296,-0.202,0.47,-0.162c0.145,0.033,0.294,0.05,0.443,0.05c0.145,0,0.29,-0.016,0.43,-0.047c0.172,-0.039,0.349,0.021,0.462,0.158l0.412,0.499c0.085,-0.045,0.168,-0.093,0.248,-0.143l-0.228,-0.589c-0.065,-0.168,-0.027,-0.36,0.097,-0.49c0.205,-0.217,0.36,-0.481,0.447,-0.765c0.052,-0.17,0.194,-0.294,0.369,-0.323l0.622,-0.105c0.003,-0.096,0.003,-0.192,0.001,-0.286l-0.61,-0.094c-0.177,-0.027,-0.325,-0.156,-0.377,-0.328c-0.086,-0.288,-0.241,-0.557,-0.448,-0.777c-0.122,-0.13,-0.16,-0.315,-0.098,-0.483l0.217,-0.584c-0.082,-0.051,-0.165,-0.099,-0.248,-0.144l-0.386,0.48c-0.111,0.139,-0.296,0.203,-0.47,0.163c-0.145,-0.034,-0.294,-0.05,-0.443,-0.05c-0.153,0,-0.305,0.018,-0.452,0.053c-0.175,0.041,-0.354,-0.019,-0.468,-0.157l-0.399,-0.483c-0.085,0.045,-0.168,0.093,-0.248,0.143l0.227,0.585c0.064,0.165,0.028,0.356,-0.093,0.486c-0.202,0.218,-0.354,0.483,-0.439,0.766c-0.051,0.169,-0.196,0.298,-0.371,0.327l-0.631,0.106c-0.003,0.096,-0.004,0.192,-0.001,0.286l0.633,0.098c0.175,0.027,0.322,0.154,0.375,0.324c0.086,0.278,0.237,0.538,0.437,0.753c0.122,0.131,0.158,0.316,0.096,0.483L6.414,8.914zM5.847,8.008c0,0,0,0.001,0,0.001L5.847,8.008zM5.604,7.583l-0.001,0C5.603,7.582,5.604,7.583,5.604,7.583zM8.593,9.224c-0.001,0,-0.001,0,-0.002,0C8.592,9.225,8.593,9.225,8.593,9.224zM5.12,6.934C5.12,6.935,5.12,6.935,5.12,6.934C5.12,6.935,5.12,6.935,5.12,6.934zM9.471,9.284L9.471,9.284C9.472,9.284,9.471,9.284,9.471,9.284zM4.807,6.41L4.807,6.41C4.806,6.41,4.807,6.41,4.807,6.41zM5.292,5.683c0,0,0,0.001,0,0.001C5.291,5.684,5.291,5.683,5.292,5.683zM10.014,8.414C10.014,8.414,10.014,8.414,10.014,8.414C10.014,8.414,10.014,8.414,10.014,8.414zM5.592,5.418c-0.001,0,-0.001,0,-0.002,0L5.592,5.418zM10.817,6.924c0,0,0,0.001,0,0.001C10.817,6.925,10.817,6.925,10.817,6.924zM6.466,3.716C6.466,3.717,6.466,3.717,6.466,3.716L6.466,3.716zM9.626,3.806C9.626,3.806,9.626,3.806,9.626,3.806L9.626,3.806zM7.299,7.589c-0.279,-0.172,-0.479,-0.439,-0.564,-0.757c-0.088,-0.33,-0.043,-0.674,0.127,-0.97c0.171,-0.296,0.446,-0.507,0.776,-0.596c0.33,-0.088,0.674,-0.043,0.97,0.127c0.296,0.169,0.507,0.446,0.596,0.776c0.088,0.33,0.043,0.674,-0.127,0.97c-0.171,0.296,-0.446,0.507,-0.776,0.595c-0.33,0.088,-0.674,0.043,-0.97,-0.127C7.32,7.601,7.309,7.595,7.299,7.589zM8.194,6.134c-0.003,-0.002,-0.007,-0.004,-0.01,-0.006c-0.205,-0.118,-0.469,-0.048,-0.588,0.158s-0.048,0.466,0.158,0.588l0,0c0.099,0.057,0.215,0.073,0.326,0.043c0.111,-0.03,0.204,-0.101,0.261,-0.2c0.057,-0.1,0.073,-0.215,0.043,-0.326C8.355,6.282,8.288,6.192,8.194,6.134z" fill="#383838"/>
  </g>
</svg>
