<?xml version="1.0" encoding="UTF-8"?>
<!DOCTYPE svg PUBLIC "-//W3C//DTD SVG 1.1//EN" "http://www.w3.org/Graphics/SVG/1.1/DTD/svg11.dtd">
<svg version="1.1" id="Layer_1" xmlns="http://www.w3.org/2000/svg" xmlns:xlink="http://www.w3.org/1999/xlink" x="0px" y="0px" width="16px" height="16px" viewBox="0 0 16 16" enable-background="new 0 0 16 16" xml:space="preserve">
  <g id="icon">
    <path d="M12.5,6.717V15.5H0.5V1.5h10.794L5.83,6.973l-1.327,3.491c-0.253,0.665,0.401,1.314,1.064,1.058l3.471,-1.342L12.5,6.717z" fill="#FFFFFF"/>
    <path d="M12.5,6.717V15.5H0.5V1.5h10.794L5.83,6.973l-1.327,3.491c-0.253,0.665,0.401,1.314,1.064,1.058l3.471,-1.342L12.5,6.717z" fill="#C8C6C4" opacity="0.3"/>
    <path d="M13,6.217V16H0V1h11.794l-0.998,1H1v13h11V7.217L13,6.217z" fill="#383838"/>
    <path d="M5.5,7.5H2.5V4.5h3V7.5zM4.503,10.465L4.87,9.5H2.5v3h3v-0.957C4.861,11.732,4.26,11.106,4.503,10.465z" fill="#FFFFFF"/>
    <path d="M6,11.355V13H2V9h3.06l-0.38,1H3v2h2v-0.468c0.173,0.062,0.369,0.067,0.568,-0.009L6,11.355zM5.44,8H2V4h4v2.803l-0.17,0.17L5.44,8zM5,7V5H3v2H5z" fill="#383838"/>
    <rect x="7" y="11" width="4" height="1" fill="#78797A"/>
    <path d="M6.947,7.695l6.958,-6.97c0.3,-0.301,0.786,-0.301,1.086,0l0.285,0.286c0.3,0.301,0.3,0.789,-0.001,1.09L8.314,9.067L6.1,9.923L6.947,7.695zM12.591,2.046l1.316,1.357" fill="#92CBEE"/>
    <path d="M5.234,10.794l1.283,-3.376l7.034,-7.045c0.239,-0.24,0.558,-0.372,0.897,-0.372c0,0,0,0,0,0c0.339,0,0.657,0.132,0.897,0.373l0.285,0.286c0.494,0.495,0.493,1.301,-0.001,1.796l-7.036,7.04L5.234,10.794zM7.376,7.973l-0.41,1.079l1.069,-0.413l5.204,-5.207l-0.655,-0.675L7.376,7.973zM13.29,2.049l0.655,0.676l0.976,-0.976c0.106,-0.106,0.106,-0.278,0,-0.384l-0.285,-0.286c-0.05,-0.051,-0.118,-0.079,-0.189,-0.079c0,0,0,0,0,0c-0.071,0,-0.138,0.028,-0.189,0.079L13.29,2.049z" fill="#0964B0"/>
  </g>
</svg>
