<?xml version="1.0" encoding="UTF-8"?>
<!DOCTYPE svg PUBLIC "-//W3C//DTD SVG 1.1//EN" "http://www.w3.org/Graphics/SVG/1.1/DTD/svg11.dtd">
<svg version="1.1" id="Layer_1" xmlns="http://www.w3.org/2000/svg" xmlns:xlink="http://www.w3.org/1999/xlink" x="0px" y="0px" width="16px" height="16px" viewBox="0 0 16 16" enable-background="new 0 0 16 16" xml:space="preserve">
  <g id="icon">
    <path d="M12.433,15.5H3.567C1.873,15.5,0.5,14.127,0.5,12.433V3.567C0.5,1.873,1.873,0.5,3.567,0.5h8.867C14.127,0.5,15.5,1.873,15.5,3.567v8.867C15.5,14.127,14.127,15.5,12.433,15.5z" fill="#FFFFFF" stroke="#A0519F" stroke-width="1" stroke-miterlimit="1"/>
    <path d="M8.719,8c0,0.664,-0.095,1.256,-0.285,1.776c-0.19,0.52,-0.456,0.96,-0.798,1.32c-0.342,0.36,-0.751,0.634,-1.227,0.822c-0.476,0.188,-1.002,0.282,-1.578,0.282H3V3.8h1.832c0.576,0,1.102,0.094,1.578,0.282c0.476,0.188,0.885,0.462,1.227,0.822c0.342,0.36,0.608,0.8,0.798,1.32C8.624,6.744,8.719,7.336,8.719,8zM10,8h4" fill="#FFFFFF" stroke="#A0519F" stroke-width="1" stroke-miterlimit="1"/>
  </g>
</svg>
