<?xml version="1.0" encoding="UTF-8"?>
<!DOCTYPE svg PUBLIC "-//W3C//DTD SVG 1.1//EN" "http://www.w3.org/Graphics/SVG/1.1/DTD/svg11.dtd">
<svg version="1.1" id="Layer_1" xmlns="http://www.w3.org/2000/svg" xmlns:xlink="http://www.w3.org/1999/xlink" x="0px" y="0px" width="16px" height="16px" viewBox="0 0 16 16" enable-background="new 0 0 16 16" xml:space="preserve">
  <g id="icon">
    <path d="M11.95,4.539c0,2.203,-1.768,3.989,-3.95,3.989S4.05,6.742,4.05,4.539S5.818,0.55,8,0.55S11.95,2.336,11.95,4.539z" fill="#FFFFFF" stroke="#383838" stroke-width="1.1" stroke-miterlimit="1"/>
    <path d="M12.011,4.342c0,2.067,-1.803,5.142,-4.027,5.142S3.958,6.409,3.958,4.342S5.761,0.5,7.985,0.5S12.011,2.275,12.011,4.342zM14.503,16c0,-3.608,-2.922,-6.501,-6.526,-6.501S1.45,12.392,1.45,16" fill="#FFFFFF" stroke="#383838" stroke-width="1" stroke-miterlimit="1"/>
    <polygon points="8.764,16 7.264,16 7.639,11.681 7.264,10.464 8.764,10.464 8.389,11.694" fill="#238BCB" stroke-linejoin="miter"/>
    <path d="M7.01,16l-0.045,-0.134c-0.052,-0.157,-0.12,-0.369,-0.2,-0.619c-0.433,-1.356,-1.24,-3.881,-1.926,-4.921l-0.112,-0.17l0.81,-0.461l0.104,0.156c0.774,1.161,1.614,3.805,2.065,5.225c0.073,0.23,0.135,0.425,0.183,0.57l0.097,0.293l0.127,-0.396c0.384,-1.199,1.402,-4.386,2.273,-5.699l0.104,-0.156l0.811,0.459l-0.112,0.17c-0.783,1.192,-1.773,4.267,-2.146,5.425L8.961,16H7.01z" fill="#383838"/>
    <path d="M6.55,5.2h-0.678c-0.41,0,-0.746,-0.335,-0.746,-0.746v-0.109c0,-0.41,0.335,-0.746,0.746,-0.746h0.678c0.41,0,0.746,0.335,0.746,0.746v0.109C7.295,4.865,6.96,5.2,6.55,5.2zM10.974,4.454v-0.109c0,-0.41,-0.335,-0.746,-0.746,-0.746H9.55c-0.41,0,-0.746,0.335,-0.746,0.746v0.109c0,0.41,0.335,0.746,0.746,0.746h0.678C10.638,5.2,10.974,4.865,10.974,4.454zM7.39,4.2h1.415M5.126,4.2c-0.498,0.062,-0.786,0.136,-1.226,-0.3M10.974,4.2c0.498,0.062,0.786,0.136,1.226,-0.3" fill="#FFFFFF" stroke="#383838" stroke-width="0.8" stroke-miterlimit="1"/>
  </g>
</svg>
