<?xml version="1.0" encoding="UTF-8"?>
<!DOCTYPE svg PUBLIC "-//W3C//DTD SVG 1.1//EN" "http://www.w3.org/Graphics/SVG/1.1/DTD/svg11.dtd">
<svg version="1.1" id="Layer_1" xmlns="http://www.w3.org/2000/svg" xmlns:xlink="http://www.w3.org/1999/xlink" x="0px" y="0px" width="16px" height="16px" viewBox="0 0 16 16" enable-background="new 0 0 16 16" xml:space="preserve">
  <g id="icon">
    <path d="M8,0.5C3.858,0.5,0.5,3.414,0.5,7.008c0,1.924,0.962,3.653,2.492,4.845C2.9,12.727,2.062,15.1,2.062,15.1S6.6,13.613,6.98,13.456c0.333,0.039,0.674,0.06,1.02,0.06c4.142,0,7.5,-2.914,7.5,-6.508S12.142,0.5,8,0.5zM9.622,2.194l0.946,1.11l-0.74,0.631l-0.946,-1.11L9.622,2.194zM10.922,10.124c-0.341,0.381,-0.708,0.486,-0.956,0.507c-0.029,0.003,-0.059,0.004,-0.089,0.004c-0.303,0,-0.631,-0.123,-0.95,-0.355c-0.247,-0.18,-0.622,-0.519,-1.022,-1.383c-0.375,0.242,-0.689,0.417,-0.925,0.548c-0.684,0.381,-1.401,0.712,-2.133,0.984l-0.113,0.042l-0.334,-0.94l0.113,-0.042c0.686,-0.255,1.359,-0.566,2,-0.922c0.262,-0.146,0.614,-0.342,1.039,-0.626c-0.092,-0.308,-0.176,-0.643,-0.25,-0.998c-0.114,-0.548,-0.195,-1.106,-0.247,-1.706c-0.007,-0.079,-0.013,-0.158,-0.019,-0.238H4.4V4h2.592c-0.007,-0.566,0.013,-1.14,0.062,-1.71l0.01,-0.123l0.974,0.087l-0.01,0.123C7.982,2.918,7.963,3.463,7.97,4H11v1H8.016c0.004,0.05,0.008,0.099,0.012,0.149c0.049,0.56,0.124,1.079,0.23,1.587c0.042,0.201,0.088,0.397,0.137,0.585c0.037,-0.029,0.073,-0.06,0.111,-0.09c0.518,-0.427,1.006,-0.904,1.452,-1.417l0.08,-0.092l0.731,0.664l-0.08,0.092c-0.481,0.553,-1.009,1.068,-1.568,1.53c-0.129,0.107,-0.262,0.212,-0.396,0.314c0.018,0.043,0.036,0.085,0.055,0.125c0.307,0.67,0.555,0.902,0.715,1.018c0.216,0.157,0.35,0.169,0.386,0.169c0.113,-0.009,0.219,-0.072,0.321,-0.186c0.191,-0.213,0.194,-0.509,0.19,-0.594l-0.005,-0.123l0.977,-0.044l0.005,0.123C11.378,9.045,11.354,9.641,10.922,10.124z" fill="#B887BC"/>
    <path d="M1.252,15.891l0.338,-0.958c0.203,-0.574,0.705,-2.079,0.863,-2.874C0.89,10.742,0,8.916,0,7.008C0,3.144,3.589,0,8,0s8,3.144,8,7.008c0,3.864,-3.589,7.008,-8,7.008c-0.319,0,-0.64,-0.017,-0.956,-0.05c-0.797,0.288,-4.391,1.466,-4.826,1.609L1.252,15.891zM8,1c-3.86,0,-7,2.695,-7,6.008c0,1.69,0.838,3.312,2.299,4.45l0.219,0.171l-0.029,0.276c-0.059,0.562,-0.379,1.623,-0.634,2.408c1.712,-0.563,3.711,-1.227,3.935,-1.319l0.12,-0.049l0.129,0.015c0.316,0.037,0.64,0.056,0.961,0.056c3.86,0,7,-2.695,7,-6.008C15,3.695,11.86,1,8,1z" fill="#845F89"/>
    <path d="M9.877,10.635c-0.303,0,-0.631,-0.123,-0.95,-0.355c-0.247,-0.18,-0.622,-0.519,-1.022,-1.383c-0.375,0.242,-0.689,0.417,-0.925,0.548c-0.684,0.381,-1.401,0.712,-2.133,0.984l-0.113,0.042l-0.334,-0.94l0.113,-0.042c0.686,-0.255,1.359,-0.566,2,-0.922c0.262,-0.146,0.614,-0.342,1.039,-0.626c-0.092,-0.308,-0.176,-0.643,-0.25,-0.998c-0.114,-0.548,-0.195,-1.106,-0.247,-1.706c-0.007,-0.079,-0.013,-0.158,-0.019,-0.238H4.4V4h2.592c-0.007,-0.566,0.013,-1.14,0.062,-1.71l0.01,-0.123l0.974,0.087l-0.01,0.123C7.982,2.918,7.963,3.463,7.97,4H11v1H8.016c0.004,0.05,0.008,0.099,0.012,0.149c0.049,0.56,0.124,1.079,0.23,1.587c0.042,0.201,0.088,0.397,0.137,0.585c0.037,-0.029,0.073,-0.06,0.111,-0.09c0.518,-0.427,1.006,-0.904,1.452,-1.417l0.08,-0.092l0.731,0.664l-0.08,0.092c-0.481,0.553,-1.009,1.068,-1.568,1.53c-0.129,0.107,-0.262,0.212,-0.396,0.314c0.018,0.043,0.036,0.085,0.055,0.125c0.307,0.67,0.555,0.902,0.715,1.018c0.216,0.157,0.35,0.169,0.386,0.169c0.113,-0.009,0.219,-0.072,0.321,-0.186c0.191,-0.213,0.194,-0.509,0.19,-0.594l-0.005,-0.123l0.977,-0.044l0.005,0.123c0.01,0.234,-0.013,0.83,-0.446,1.313c-0.341,0.381,-0.708,0.486,-0.956,0.507C9.937,10.634,9.907,10.635,9.877,10.635zM8.882,2.824l0.74,-0.631l0.946,1.11l-0.74,0.631L8.882,2.824z" fill="#FFFFFF"/>
  </g>
</svg>
