<?xml version="1.0" encoding="UTF-8"?>
<!DOCTYPE svg PUBLIC "-//W3C//DTD SVG 1.1//EN" "http://www.w3.org/Graphics/SVG/1.1/DTD/svg11.dtd">
<svg version="1.1" id="Layer_1" xmlns="http://www.w3.org/2000/svg" xmlns:xlink="http://www.w3.org/1999/xlink" x="0px" y="0px" width="32px" height="32px" viewBox="0 0 32 32" enable-background="new 0 0 32 32" xml:space="preserve">
  <g id="icon">
    <path d="M16.097,13.881c6.889,0.805,13.59,-3.148,14.003,-3.854c-4.914,-0.215,-5.975,-1.751,-7.428,-3.293c-0.888,-0.978,-2.768,-0.69,-3.552,0.379c-0.7,0.955,-2.393,1.727,-2.969,1.694h-0.301c-0.576,0.033,-2.269,-0.739,-2.969,-1.694c-0.784,-1.07,-2.664,-1.358,-3.552,-0.379C7.875,8.276,6.814,9.812,1.9,10.027c0.413,0.706,7.114,4.659,14.003,3.854H16.097z" fill="#FFFFFF" stroke="#383838" stroke-width="1.1" stroke-miterlimit="1"/>
    <path d="M16,16.1c-2.574,0,-7.436,0.848,-7.436,2.368c0,2.215,12.155,2.873,12.155,5.42c0,2.674,-7.579,1.826,-7.579,4.48c0,0.463,0.193,0.957,0.479,1.226" fill="none" stroke="#383838" stroke-width="1.1" stroke-miterlimit="1"/>
    <path d="M16,16.1c2.574,0,7.436,0.848,7.436,2.368c0,2.215,-12.155,2.873,-12.155,5.42c0,2.674,7.579,1.826,7.579,4.48c0,0.463,-0.193,0.957,-0.479,1.226" fill="none" stroke="#383838" stroke-width="1.1" stroke-miterlimit="1"/>
    <ellipse cx="16" cy="3.606" rx="2" ry="2.006" fill="#FFFFFF" stroke="#383838" stroke-width="1.1" stroke-miterlimit="1"/>
    <line x1="16" y1="31" x2="16" y2="5.675" fill="#FFFFFF" stroke="#383838" stroke-width="1.1" stroke-miterlimit="1"/>
    <path d="M7.677,12.858L9.776,10.2M10.87,13.619l2.099,-2.658" fill="#FFFFFF" stroke="#383838" stroke-width="1.1" stroke-miterlimit="1"/>
    <path d="M22.252,10.2l2.171,2.731M19.071,10.988l2.171,2.731" fill="#FFFFFF" stroke="#383838" stroke-width="1.1" stroke-miterlimit="1"/>
  </g>
</svg>
