<?xml version="1.0" encoding="UTF-8"?>
<!DOCTYPE svg PUBLIC "-//W3C//DTD SVG 1.1//EN" "http://www.w3.org/Graphics/SVG/1.1/DTD/svg11.dtd">
<svg version="1.1" id="Layer_1" xmlns="http://www.w3.org/2000/svg" xmlns:xlink="http://www.w3.org/1999/xlink" x="0px" y="0px" width="32px" height="32px" viewBox="0 0 32 32" enable-background="new 0 0 32 32" xml:space="preserve">
  <g id="icon">
    <path d="M27.5,21.5v6.266c0,0.958,-0.776,1.734,-1.734,1.734H5.234C4.276,29.5,3.5,28.7,3.5,27.766V21.5" fill="#FFFFFF" stroke="#383838" stroke-width="1" stroke-miterlimit="1"/>
    <path d="M8.5,5.3V3.583C8.5,2.433,9.433,1.5,10.583,1.5h9.838C21.569,1.5,22.5,2.5,22.5,3.583V5.5" fill="none" stroke="#383838" stroke-width="1" stroke-miterlimit="1"/>
    <path d="M19.667,21.5c0,2.338,-1.865,4.233,-4.167,4.233s-4.167,-1.895,-4.167,-4.233H1.5V7.234C1.5,6.276,2.276,5.5,3.234,5.5h24.532c0.958,0,1.734,0.776,1.734,1.734V21.5H19.667z" fill="#FFFFFF" stroke="#228BCB" stroke-width="1" stroke-miterlimit="1"/>
    <path d="M15.5,8.505v10.057M19.9,11.023l-8.8,5.02M11.1,11.023l8.8,5.02" fill="#FFFFFF" stroke="#228BCB" stroke-width="1" stroke-miterlimit="1"/>
  </g>
</svg>
