<?xml version="1.0" encoding="UTF-8"?>
<!DOCTYPE svg PUBLIC "-//W3C//DTD SVG 1.1//EN" "http://www.w3.org/Graphics/SVG/1.1/DTD/svg11.dtd">
<svg version="1.1" id="Layer_1" xmlns="http://www.w3.org/2000/svg" xmlns:xlink="http://www.w3.org/1999/xlink" x="0px" y="0px" width="32px" height="32px" viewBox="0 0 32 32" enable-background="new 0 0 32 32" xml:space="preserve">
  <g id="icon">
    <path d="M8.265,13.45h16.035c1.161,-1.836,1.682,-4.133,1.464,-6.308c-0.21,-2.099,-1.108,-3.93,-2.401,-4.897c-0.518,-0.387,-1.142,-0.584,-1.855,-0.584c-1.065,0,-2.179,0.434,-3.256,0.854c-0.757,0.295,-1.536,0.599,-2.128,0.671c-0.595,-0.062,-1.376,-0.309,-2.135,-0.55c-1.101,-0.349,-2.24,-0.709,-3.304,-0.709c-0.787,0,-1.462,0.202,-2.007,0.602c-0.915,0.632,-1.611,1.889,-1.912,3.457c-0.473,2.46,0.08,5.298,1.477,7.421C8.25,13.418,8.258,13.435,8.265,13.45z" fill="#FFFFFF" stroke="#383838" stroke-width="1.1" stroke-miterlimit="1"/>
    <path d="M12.754,25.644L21.3,19.119M11.936,23.178L21.8,15.606M11.218,20.712L18,15.5M13.572,28.059L19.8,23.482M14.472,30.4l4.072,-3.002M10.4,18.033L13.9,15.5" fill="#FFFFFF" stroke="#228BCB" stroke-width="1.1" stroke-linecap="round" stroke-miterlimit="1"/>
  </g>
</svg>
