<?xml version="1.0" encoding="UTF-8"?>
<!DOCTYPE svg PUBLIC "-//W3C//DTD SVG 1.1//EN" "http://www.w3.org/Graphics/SVG/1.1/DTD/svg11.dtd">
<svg version="1.1" id="Layer_1" xmlns="http://www.w3.org/2000/svg" xmlns:xlink="http://www.w3.org/1999/xlink" x="0px" y="0px" width="32px" height="32px" viewBox="0 0 32 32" enable-background="new 0 0 32 32" xml:space="preserve">
  <g id="icon">
    <path d="M12.845,19.604c0,2.54,-2.059,4.599,-4.599,4.599s-4.599,-2.059,-4.599,-4.599s2.059,-4.599,4.599,-4.599S12.845,17.064,12.845,19.604zM23.753,15.005c-2.54,0,-4.599,2.059,-4.599,4.599s2.059,4.599,4.599,4.599s4.599,-2.059,4.599,-4.599S26.293,15.005,23.753,15.005z" fill="#92CBEE"/>
    <path d="M12.899,19.604c0,2.578,-2.083,4.668,-4.652,4.668s-4.652,-2.09,-4.652,-4.668s2.083,-4.668,4.652,-4.668S12.899,17.026,12.899,19.604zM28.406,19.604c0,2.578,-2.083,4.668,-4.652,4.668s-4.652,-2.09,-4.652,-4.668s2.083,-4.668,4.652,-4.668S28.406,17.026,28.406,19.604zM19.256,18.359c-1.948,-1.532,-4.634,-1.456,-6.513,0M9.952,4.043L0.927,17.564C0.714,17.879,0.6,18.251,0.6,18.632v0c0,0.536,0.433,0.971,0.968,0.971h1.561M28.871,19.604h1.561c0.535,0,0.968,-0.435,0.968,-0.971v0c0,-0.381,-0.114,-0.753,-0.327,-1.069l-9.025,-13.52" fill="none" stroke="#383838" stroke-width="1.1" stroke-miterlimit="1"/>
  </g>
</svg>
