<?xml version="1.0" encoding="UTF-8"?>
<!DOCTYPE svg PUBLIC "-//W3C//DTD SVG 1.1//EN" "http://www.w3.org/Graphics/SVG/1.1/DTD/svg11.dtd">
<svg version="1.1" id="Layer_1" xmlns="http://www.w3.org/2000/svg" xmlns:xlink="http://www.w3.org/1999/xlink" x="0px" y="0px" width="32px" height="32px" viewBox="0 0 32 32" enable-background="new 0 0 32 32" xml:space="preserve">
  <g id="icon">
    <path d="M23.053,14.296L8.096,29.253c-0.361,0.361,-0.946,0.361,-1.307,0l-5.296,-5.296L17.757,7.693l5.296,5.296C23.414,13.351,23.414,13.936,23.053,14.296z" fill="#FFFFFF"/>
    <path d="M7.443,30.023c-0.365,0,-0.729,-0.139,-1.007,-0.416L1.14,24.31c-0.195,-0.195,-0.195,-0.512,0,-0.707L17.403,7.34c0.195,-0.195,0.512,-0.195,0.707,0l5.296,5.296c0.555,0.555,0.555,1.459,0,2.014L8.45,29.607C8.172,29.884,7.808,30.023,7.443,30.023zM2.4,24.157L7.143,28.9c0.165,0.165,0.434,0.165,0.6,0L22.7,13.943c0.165,-0.165,0.165,-0.434,0,-0.599l-4.743,-4.743L2.4,24.157z" fill="#7A7A7A"/>
    <path d="M21.763,11.482c-0.035,0,-0.167,0.087,-0.194,0.063c-1.127,-1.023,-3.428,-3.367,-3.749,-3.703c-0.061,-0.064,-0.067,-0.16,-0.016,-0.229c1.324,-1.766,3.314,-3.942,5.385,-6.114H30.5c0,0,-0.009,1.515,-0.009,3.446c0,0.054,-0.025,0.109,-0.064,0.139c-0.462,0.36,-1.129,0.812,-1.73,1.291c-2.179,1.737,-5.264,4.215,-6.965,5.188C21.71,11.576,21.787,11.482,21.763,11.482z" fill="#C8C6C4" stroke="#383838" stroke-width="1" stroke-linecap="round" stroke-miterlimit="1"/>
  </g>
</svg>
