<?xml version="1.0" encoding="UTF-8"?>
<!DOCTYPE svg PUBLIC "-//W3C//DTD SVG 1.1//EN" "http://www.w3.org/Graphics/SVG/1.1/DTD/svg11.dtd">
<svg version="1.1" id="Layer_1" xmlns="http://www.w3.org/2000/svg" xmlns:xlink="http://www.w3.org/1999/xlink" x="0px" y="0px" width="32px" height="32px" viewBox="0 0 32 32" enable-background="new 0 0 32 32" xml:space="preserve">
  <g id="icon">
    <path d="M8.331,6.653C8.2,7.3,7.934,8.449,7.679,8.499C5.866,8.853,4.5,10.407,4.5,12.269v14.385C4.5,28.778,6.276,30.5,8.467,30.5h13.066c2.191,0,3.967,-1.722,3.967,-3.846V12.269c0,-1.859,-1.361,-3.411,-3.17,-3.768c-0.258,-0.051,-0.53,-1.101,-0.627,-1.848" fill="#FFFFFF" stroke="#383838" stroke-width="1" stroke-miterlimit="1"/>
    <path d="M6.292,1.5h17.416c0.437,0,0.792,0.348,0.792,0.777v3.447c0,0.429,-0.355,0.777,-0.792,0.777H6.292C5.855,6.5,5.5,6.152,5.5,5.723V2.277C5.5,1.848,5.855,1.5,6.292,1.5z" fill="#92CBEE" stroke="#0964B0" stroke-width="1" stroke-linecap="round" stroke-miterlimit="1"/>
    <polygon points="21.5,17.5 16.5,17.5 16.5,12.5 13.5,12.5 13.5,17.5 8.5,17.5 8.5,20.5 13.5,20.5 13.5,25.5 16.5,25.5 16.5,20.5 21.5,20.5" fill="#F3B8B8" stroke="#E42D2C" stroke-width="1" stroke-linecap="round" stroke-miterlimit="1" stroke-linejoin="miter"/>
  </g>
</svg>
