<?xml version="1.0" encoding="UTF-8"?>
<!DOCTYPE svg PUBLIC "-//W3C//DTD SVG 1.1//EN" "http://www.w3.org/Graphics/SVG/1.1/DTD/svg11.dtd">
<svg version="1.1" id="Layer_1" xmlns="http://www.w3.org/2000/svg" xmlns:xlink="http://www.w3.org/1999/xlink" x="0px" y="0px" width="16px" height="16px" viewBox="0 0 16 16" enable-background="new 0 0 16 16" xml:space="preserve">
  <g id="icon">
    <path d="M2.8,14.5c0,0.718,-0.582,1.3,-1.3,1.3s-1.3,-0.582,-1.3,-1.3s0.582,-1.3,1.3,-1.3S2.8,13.782,2.8,14.5zM4.8,3.5c0,0.718,-0.582,1.3,-1.3,1.3s-1.3,-0.582,-1.3,-1.3s0.582,-1.3,1.3,-1.3S4.8,2.782,4.8,3.5zM13.8,12.5c0,0.718,-0.582,1.3,-1.3,1.3s-1.3,-0.582,-1.3,-1.3s0.582,-1.3,1.3,-1.3S13.8,11.782,13.8,12.5zM14.5,0.2c-0.718,0,-1.3,0.582,-1.3,1.3s0.582,1.3,1.3,1.3s1.3,-0.582,1.3,-1.3S15.218,0.2,14.5,0.2z" fill="#EF3E3B"/>
    <path d="M11.933,9.212c1.231,-0.636,2.109,-2.409,2.716,-5.518C14.6,3.698,14.55,3.7,14.5,3.7c-0.297,0,-0.58,-0.059,-0.838,-0.166c-0.532,2.705,-1.265,4.313,-2.188,4.79c-0.895,0.463,-2.035,-0.135,-3.242,-0.767c-1.38,-0.723,-2.807,-1.471,-4.165,-0.769c-1.231,0.636,-2.109,2.409,-2.716,5.518C1.4,12.302,1.45,12.3,1.5,12.3c0.297,0,0.58,0.059,0.838,0.166c0.532,-2.705,1.265,-4.313,2.188,-4.79c0.895,-0.463,2.035,0.135,3.242,0.767C9.148,9.166,10.576,9.914,11.933,9.212z" fill="#383838"/>
  </g>
</svg>
