<?xml version="1.0" encoding="UTF-8"?>
<!DOCTYPE svg PUBLIC "-//W3C//DTD SVG 1.1//EN" "http://www.w3.org/Graphics/SVG/1.1/DTD/svg11.dtd">
<svg version="1.1" id="Layer_1" xmlns="http://www.w3.org/2000/svg" xmlns:xlink="http://www.w3.org/1999/xlink" x="0px" y="0px" width="16px" height="16px" viewBox="0 0 16 16" enable-background="new 0 0 16 16" xml:space="preserve">
  <g id="icon">
    <path d="M7.464,13.324L0.5,10.632l6.964,-2.333L14.5,10.668L7.464,13.324z" fill="#FFFFFF"/>
    <path d="M7.464,8.299L14.5,10.668" fill="none" stroke="#383838" stroke-width="1" stroke-miterlimit="1"/>
    <path d="M7.514,0.52L14.5,2.639v8.031" fill="none" stroke="#787979" stroke-width="1" stroke-miterlimit="1" stroke-linejoin="round" opacity="0.5"/>
    <path d="M7.464,13.287L14.5,10.668v2.137L7.464,15.46L0.5,12.769v-2.137L7.464,13.287z" fill="#FFFFFF"/>
    <path d="M7.464,13.287L14.5,10.668v2.137L7.464,15.46L0.5,12.769v-2.137L7.464,13.287z" fill="#C8C6C4" opacity="0.5"/>
    <path d="M7.464,13.287L14.5,10.668v2.137L7.464,15.46L0.5,12.769v-2.137L7.464,13.287z" fill="none" stroke="#383838" stroke-width="1" stroke-miterlimit="1" stroke-linejoin="round"/>
    <path d="M7.5,8.32L0.5,10.57V2.52l7,-2V8.32z" fill="#FFFFFF"/>
    <path d="M3,9.57V4.859l2.5,-0.749v4.71" fill="#FFFFFF" stroke="#228BCB" stroke-width="1" stroke-miterlimit="1"/>
    <path d="M7.5,8.32L0.5,10.57V2.52l7,-2V8.32z" fill="none" stroke="#383838" stroke-width="1" stroke-miterlimit="1" stroke-linejoin="round"/>
  </g>
</svg>
