<?xml version="1.0" encoding="UTF-8"?>
<!DOCTYPE svg PUBLIC "-//W3C//DTD SVG 1.1//EN" "http://www.w3.org/Graphics/SVG/1.1/DTD/svg11.dtd">
<svg version="1.1" id="Layer_1" xmlns="http://www.w3.org/2000/svg" xmlns:xlink="http://www.w3.org/1999/xlink" x="0px" y="0px" width="24px" height="24px" viewBox="0 0 24 24" enable-background="new 0 0 24 24" xml:space="preserve">
  <g id="icon">
    <path d="M11,15h1v1h-1V15zM11,8h1V7h-1V8zM11,14h1v-1h-1V14zM11,10h1V9h-1V10zM11,4h1V3h-1V4zM11,2h1V1h-1V2zM11,6h1V5h-1V6zM9,12h1v-1H9V12zM7,12h1v-1H7V12zM5,12h1v-1H5V12zM3,12h1v-1H3V12zM13,12h1v-1h-1V12zM20,12v-1h-1v1H20zM15,12h1v-1h-1V12zM17,12h1v-1h-1V12zM9,2h1V1H9V2zM7,2h1V1H7V2zM5,2h1V1H5V2zM3,2h1V1H3V2zM13,2h1V1h-1V2zM20,2V1h-1v1H20zM15,2h1V1h-1V2zM17,2h1V1h-1V2zM11,12h1v-1h-1V12zM1,15h1v1H1V15zM1,8h1V7H1V8zM1,14h1v-1H1V14zM1,10h1V9H1V10zM1,4h1V3H1V4zM1,2h1V1H1V2zM1,6h1V5H1V6zM1,12h1v-1H1V12zM21,15h1v1h-1V15zM21,8h1V7h-1V8zM21,14h1v-1h-1V14zM21,10h1V9h-1V10zM21,4h1V3h-1V4zM21,2h1V1h-1V2zM21,6h1V5h-1V6zM21,12h1v-1h-1V12z" fill="#6D6E71"/>
    <rect x="1" y="20" width="21" height="2" fill="#7B7B7B"/>
    <rect x="1" y="17" width="21" height="2" fill="#7B7B7B"/>
  </g>
</svg>
