<?xml version="1.0" encoding="UTF-8"?>
<!DOCTYPE svg PUBLIC "-//W3C//DTD SVG 1.1//EN" "http://www.w3.org/Graphics/SVG/1.1/DTD/svg11.dtd">
<svg version="1.1" id="Layer_1" xmlns="http://www.w3.org/2000/svg" xmlns:xlink="http://www.w3.org/1999/xlink" x="0px" y="0px" width="24px" height="24px" viewBox="0 0 24 24" enable-background="new 0 0 24 24" xml:space="preserve">
  <g id="icon">
    <path d="M11,7h1v1h-1V7zM11,16h1v-1h-1V16zM11,10h1V9h-1V10zM11,14h1v-1h-1V14zM11,20h1v-1h-1V20zM11,22h1v-1h-1V22zM11,18h1v-1h-1V18zM9,12h1v-1H9V12zM7,12h1v-1H7V12zM5,12h1v-1H5V12zM3,12h1v-1H3V12zM13,12h1v-1h-1V12zM19,11v1h1v-1H19zM15,12h1v-1h-1V12zM17,12h1v-1h-1V12zM9,22h1v-1H9V22zM7,22h1v-1H7V22zM5,22h1v-1H5V22zM3,22h1v-1H3V22zM13,22h1v-1h-1V22zM19,21v1h1v-1H19zM15,22h1v-1h-1V22zM17,22h1v-1h-1V22zM11,12h1v-1h-1V12zM1,7h1v1H1V7zM1,16h1v-1H1V16zM1,10h1V9H1V10zM1,14h1v-1H1V14zM1,20h1v-1H1V20zM1,22h1v-1H1V22zM1,18h1v-1H1V18zM1,12h1v-1H1V12zM21,7h1v1h-1V7zM21,16h1v-1h-1V16zM21,10h1V9h-1V10zM21,14h1v-1h-1V14zM21,20h1v-1h-1V20zM21,22h1v-1h-1V22zM21,18h1v-1h-1V18zM21,12h1v-1h-1V12z" fill="#6D6E71"/>
    <rect x="1" y="1" width="21" height="2" fill="#7B7B7B"/>
    <rect x="1" y="4" width="21" height="2" fill="#7B7B7B"/>
  </g>
</svg>
