<?xml version="1.0" encoding="UTF-8"?>
<!DOCTYPE svg PUBLIC "-//W3C//DTD SVG 1.1//EN" "http://www.w3.org/Graphics/SVG/1.1/DTD/svg11.dtd">
<svg version="1.1" id="Layer_1" xmlns="http://www.w3.org/2000/svg" xmlns:xlink="http://www.w3.org/1999/xlink" x="0px" y="0px" width="24px" height="24px" viewBox="0 0 24 24" enable-background="new 0 0 24 24" xml:space="preserve">
  <g id="icon">
    <polygon points="9.3521,13 2,13 2,2 8,2 8,5.025 11,5 11,9.0069 12.9611,8.5688 13,8.7381 13,4.5 8.525,0 0,0 0,15 9.8114,15" fill="#7B7B7B" stroke-linejoin="miter"/>
    <path d="M9.3521,13H2V2h6v3.025L11,5v4.0069l-2.4397,0.545L9.3521,13z" fill="#FFFFFF" opacity="0.5"/>
    <path d="M10,7H3V6h7V7zM7,4H3v1h4V4zM10,8H3v1h7V8zM8.6632,10H3v1h5.8928L8.6632,10z" fill="#B7B7B7"/>
    <path d="M5.039,23.0111l1.8186,-1.806H3.6977c-1.5577,0,-2.825,-1.2673,-2.825,-2.825v-2.375h1.3v2.375c0,0.8409,0.6841,1.525,1.525,1.525h3.2375L5.089,18.0716l0.9162,-0.9222l3.3896,3.3668l-3.4395,3.4169L5.039,23.0111z" fill="#CB525D"/>
    <polygon points="20.8649,24 19.1186,24 16.974,15.5226 14.8602,24 13.1094,24 10,10.4598 12.0585,10 14.0333,18.5989 16.0999,10.3111 17.8311,10.3111 19.9415,18.6532 21.9425,10.0392 24,10.5041" fill="#6485C3" stroke-linejoin="miter"/>
  </g>
</svg>
