<?xml version="1.0" encoding="UTF-8"?>
<!DOCTYPE svg PUBLIC "-//W3C//DTD SVG 1.1//EN" "http://www.w3.org/Graphics/SVG/1.1/DTD/svg11.dtd">
<svg version="1.1" id="Layer_1" xmlns="http://www.w3.org/2000/svg" xmlns:xlink="http://www.w3.org/1999/xlink" x="0px" y="0px" width="24px" height="24px" viewBox="0 0 24 24" enable-background="new 0 0 24 24" xml:space="preserve">
  <g id="icon">
    <path d="M23,11H7v12h16V11z" fill="#FFFFFF" opacity="0.5"/>
    <path d="M6,24V10h18v14H6zM22,22V12H8v10H22z" fill="#EEAC55"/>
    <path d="M21,17h-3v-3h3V17zM19,16h1v-1h-1V16z" fill="#CB525D"/>
    <path d="M16.5,15H9v-1h7.5V15zM17,17h-7v1h7V17zM16,19h-6v1h6V19z" fill="#6D6E71"/>
    <g>
      <path d="M10.2609,2.6601c0.7021,0.945,0.7833,2.0561,0.7833,2.8096c0,0.7491,-0.1905,1.9009,-0.6942,3.0313c0.4701,0.1659,0.8945,0.3237,1.2735,0.499h4.0122c-0.4538,-0.4674,-1.2992,-0.7037,-3.0747,-1.3325c-0.4047,-0.1524,-0.519,-0.3717,-0.4886,-0.6848c0.7818,-0.9372,1.2529,-2.4533,1.2529,-3.5131c0,-1.6413,-0.5585,-2.681,-2.8463,-2.681c-1.0143,0,-1.6791,0.2047,-2.1055,0.5753C9.174,1.6163,9.8065,2.0483,10.2609,2.6601z" fill="#FFFFFF" opacity="0.5"/>
      <path d="M5,9h3.0711c0.0005,-0.0058,0.0006,-0.0114,0.0012,-0.0172c0.7818,-0.9372,1.2529,-2.4533,1.2529,-3.5131c0,-1.6413,-0.5585,-2.681,-2.8463,-2.681s-2.8003,1.0397,-2.8003,2.681c0,1.0599,0.4692,2.573,1.251,3.5102c0.0303,0.313,-0.0849,0.5338,-0.4896,0.6862c-2.7717,0.9815,-3.279,1.0063,-3.5639,2.4485c-0.0857,0.5797,-0.0999,0.8227,0.1282,1.4651c0.193,0.5434,2.2909,0.625,3.9958,0.6319V9z" fill="#FFFFFF" opacity="0.5"/>
    </g>
    <path d="M9.2514,1.7528c-0.4998,-0.2985,-1.0969,-0.4954,-1.789,-0.5887C7.9632,0.4898,8.8654,0.0008,10.4752,0c1.4432,0.0006,2.4739,0.4033,3.0633,1.1967c0.5429,0.7308,0.6057,1.6473,0.6057,2.273c0,0.8979,-0.3204,2.3148,-1.0362,3.4564l-0.0486,0.0775l0.5583,0.1949C15.249,7.766,16.137,8.0754,16.613,9h-2.6529c-0.2465,-0.0906,-0.5416,-0.1938,-0.8988,-0.318l-0.0145,-0.005c-0.2348,-0.0817,-0.4903,-0.1707,-0.7686,-0.2692l-0.0132,-0.0048c-0.9675,-0.3645,-1.0471,-1.0921,-1.0083,-1.4933l0.0228,-0.236l0.1541,-0.1847c0.6713,-0.8048,1.0724,-2.1671,1.0724,-3.0193c0,-1.3085,-0.2927,-1.8922,-2.027,-1.8923C9.9382,1.5774,9.5415,1.6337,9.2514,1.7528zM5,13.4228c-0.5144,-0.0021,-1.1709,-0.0117,-1.7674,-0.0486c-0.8997,-0.0557,-1.3095,-0.1518,-1.4736,-0.2041l-0.0364,-0.0116l-0.0113,-0.0365c-0.1009,-0.3282,-0.0869,-0.4718,-0.0268,-0.8798c0.1624,-0.8191,0.2046,-0.8482,2.2653,-1.5652c0.2361,-0.0822,0.4929,-0.1716,0.7748,-0.2715l0.0137,-0.0049c0.0966,-0.0364,0.182,-0.0772,0.2617,-0.1202V9h0.7511c-0.0013,-0.0326,-0.0032,-0.0641,-0.006,-0.0934l-0.0228,-0.2359l-0.1541,-0.1848c-0.6701,-0.8032,-1.0705,-2.1644,-1.0705,-3.0163c0,-1.3344,0.2753,-1.8922,1.9815,-1.8923c1.7344,0.0001,2.027,0.5838,2.027,1.8923c0,0.8522,-0.4011,2.2145,-1.0724,3.0193l-0.1541,0.1847l-0.0228,0.236c-0.0027,0.0284,-0.0047,0.0589,-0.0059,0.0903h1.8108l0.0464,-0.0739c0.7158,-1.1416,1.0362,-2.5585,1.0362,-3.4564c0,-0.6257,-0.0628,-1.5421,-0.6057,-2.273C8.949,2.4033,7.9184,2.0006,6.4752,2c-3.2407,0.0016,-3.6155,1.981,-3.6155,3.4697c0,0.8977,0.32,2.314,1.0349,3.4543l0.0485,0.0775l-0.5576,0.1947c-2.101,0.731,-2.9706,1.0337,-3.3149,2.7764l-0.0053,0.0309c-0.0994,0.6723,-0.1139,1.0486,0.1641,1.8313c0.3382,0.9525,1.7574,1.1484,4.7707,1.164V13.4228z" fill="#6485C3"/>
  </g>
</svg>
