<?xml version="1.0" encoding="UTF-8"?>
<!DOCTYPE svg PUBLIC "-//W3C//DTD SVG 1.1//EN" "http://www.w3.org/Graphics/SVG/1.1/DTD/svg11.dtd">
<svg version="1.1" id="Layer_1" xmlns="http://www.w3.org/2000/svg" xmlns:xlink="http://www.w3.org/1999/xlink" x="0px" y="0px" width="24px" height="24px" viewBox="0 0 24 24" enable-background="new 0 0 24 24" xml:space="preserve">
  <g id="icon">
    <path d="M10,5h14v2H10V5z" fill="#7B7B7B"/>
    <path d="M10,13h14v2H10V13zM10,9h14v2H10V9z" fill="#7B7B7B"/>
    <path d="M10,17h11v2H10V17z" fill="#7B7B7B"/>
    <polygon points="6.5528,5.4298 5,3.8708 5,8.9 3,8.9 3,3.8876 1.4639,5.4298 0.0458,4.0195 4.0083,0.0378 7.9708,4.0195" fill="#6485C3" stroke-linejoin="miter"/>
    <polygon points="6.5528,18.508 5,20.0669 5,15.0378 3,15.0378 3,20.0502 1.4639,18.508 0.0458,19.9183 4.0083,23.9 7.9708,19.9183" fill="#6485C3" stroke-linejoin="miter"/>
  </g>
</svg>
