<?xml version="1.0" encoding="UTF-8"?>
<!DOCTYPE svg PUBLIC "-//W3C//DTD SVG 1.1//EN" "http://www.w3.org/Graphics/SVG/1.1/DTD/svg11.dtd">
<svg version="1.1" id="Layer_1" xmlns="http://www.w3.org/2000/svg" xmlns:xlink="http://www.w3.org/1999/xlink" x="0px" y="0px" width="24px" height="24px" viewBox="0 0 24 24" enable-background="new 0 0 24 24" xml:space="preserve">
  <g id="icon">
    <rect x="9.95" y="0.95" width="13" height="22" fill="#FFFFFF" opacity="0.5"/>
    <path d="M18.7631,11.2c-1.3021,0,-2.3615,-1.0572,-2.3615,-2.3566c0,-1.2994,1.0594,-2.3566,2.3615,-2.3566c1.3021,0,2.3615,1.0572,2.3615,2.3566C21.1246,10.1428,20.0652,11.2,18.7631,11.2zM18.7631,7.983c-0.4771,0,-0.8652,0.386,-0.8652,0.8604c0,0.4745,0.3881,0.8604,0.8652,0.8604s0.8653,-0.386,0.8653,-0.8604C19.6284,8.3689,19.2402,7.983,18.7631,7.983z" fill="#EEAC55"/>
    <path d="M17.9253,19.0747l-5.605,-5.652l-2.4917,2.5189l-0.7275,-1.388L12.3203,11.3l3.7002,3.7405l2.3969,-2.4231L23.8,18.0587l-1.0467,1.0646l-4.3358,-4.3831l-1.347,1.3617l1.9067,1.9209L17.9253,19.0747z" fill="#52B4C0"/>
    <path d="M22,0H9v22v2h2h13V2V0H22zM22,22H11V2h11V22z" fill="#7B7B7B"/>
    <rect width="8" height="1" fill="#7B7B7B"/>
    <rect y="23" width="7" height="1" fill="#7B7B7B"/>
    <polygon points="3.1,8.9 3.1,5.1455 1.4635,6.7885 0.1873,5.5191 4.0083,1.6795 7.8293,5.5191 6.5531,6.7885 4.9,5.1288 4.9,8.9" fill="#6485C3" stroke-linejoin="miter"/>
    <polygon points="3.1,14.9795 3.1,18.734 1.4635,17.0911 0.1873,18.3604 4.0083,22.2 7.8293,18.3604 6.5531,17.0911 4.9,18.7508 4.9,14.9795" fill="#6485C3" stroke-linejoin="miter"/>
  </g>
</svg>
