<?xml version="1.0" encoding="UTF-8"?>
<!DOCTYPE svg PUBLIC "-//W3C//DTD SVG 1.1//EN" "http://www.w3.org/Graphics/SVG/1.1/DTD/svg11.dtd">
<svg version="1.1" id="Layer_1" xmlns="http://www.w3.org/2000/svg" xmlns:xlink="http://www.w3.org/1999/xlink" x="0px" y="0px" width="24px" height="24px" viewBox="0 0 24 24" enable-background="new 0 0 24 24" xml:space="preserve">
  <g id="icon">
    <path d="M14.7987,22.9649v-3.0718l0.5462,-0.3318c1.7984,-1.0928,4.8154,-3.6498,4.8154,-8.4966c0,-3.8125,-3.0136,-7.7561,-8.0568,-7.7561c-5.3676,0,-8.2638,4.0588,-8.2638,7.8778c0,4.9231,3.3603,7.4969,4.8051,8.3749l0.5462,0.3318v3.0718H1.4925L1,20.5502l2.2218,-0.4591l0.1224,0.6003h2.9405c-2.9622,-2.298,-4.7134,-5.8082,-4.7134,-9.5049c0,-4.9212,3.6913,-10.1513,10.5322,-10.1513c2.9127,0,5.5729,1.0826,7.4906,3.0483c1.8279,1.8736,2.8345,4.353,2.8345,6.9813c0,5.0818,-2.7652,8.1165,-4.7211,9.6266h2.9484l0.1224,-0.6003L23,20.55l-0.4924,2.4149H14.7987z" fill="#7B7B7B"/>
  </g>
</svg>
