<?xml version="1.0" encoding="UTF-8"?>
<!DOCTYPE svg PUBLIC "-//W3C//DTD SVG 1.1//EN" "http://www.w3.org/Graphics/SVG/1.1/DTD/svg11.dtd">
<svg version="1.1" id="Layer_1" xmlns="http://www.w3.org/2000/svg" xmlns:xlink="http://www.w3.org/1999/xlink" x="0px" y="0px" width="24px" height="24px" viewBox="0 0 24 24" enable-background="new 0 0 24 24" xml:space="preserve">
  <g id="icon">
    <path d="M2,0v24h20V5.5L16.525,0H2zM20,22H4V2h12v4.025L20,6V22z" fill="#7B7B7B"/>
    <polygon points="20,22 4,22 4,2 16,2 16,6.025 20,6" fill="#FFFFFF" stroke-linejoin="miter" opacity="0.4"/>
    <path d="M18,10H6V9h12V10zM18,8H6V7h12V8zM13,6H6V5h7V6zM18,11H6v1h12V11zM18,13H6v1h12V13zM18,15H6v1h12V15zM18,17H6v1h12V17zM18,19H6v1h12V19z" fill="#B7B7B7"/>
    <path d="M14.4577,15.015H9.6062l-1.4217,3.4803l-1.309,-0.5348l4.6463,-11.3739h1.0256L17.2,17.9949l-1.3093,0.534L14.4577,15.015zM13.881,13.601L12.034,9.0719l-1.8501,4.5291H13.881z" fill="#CB525D" opacity="0.4"/>
  </g>
</svg>
