<?xml version="1.0" encoding="UTF-8"?>
<!DOCTYPE svg PUBLIC "-//W3C//DTD SVG 1.1//EN" "http://www.w3.org/Graphics/SVG/1.1/DTD/svg11.dtd">
<svg version="1.1" id="Layer_1" xmlns="http://www.w3.org/2000/svg" xmlns:xlink="http://www.w3.org/1999/xlink" x="0px" y="0px" width="32px" height="32px" viewBox="0 0 32 32" enable-background="new 0 0 32 32" xml:space="preserve">
  <g id="icon">
    <path d="M5.09,22.633c-0.213,-0.341,-0.484,-0.635,-0.806,-0.875l-0.019,-0.014l4.165,-4.165l0.013,0.007c0.365,0.193,0.943,0.183,1.325,0.366l0.026,0.012l-4.69,4.69L5.09,22.633zM11.903,14.106L21.973,4.037l0.013,0.022c0.209,0.342,0.477,0.639,0.798,0.883l0.019,0.014l-9.501,9.501L11.903,14.106z" fill="#383838"/>
    <path d="M2.288,26.5C1.026,26.5,0,25.474,0,24.212s1.026,-2.288,2.288,-2.288s2.288,1.026,2.288,2.288S3.549,26.5,2.288,26.5zM24.603,4.592c-1.262,0,-2.288,-1.026,-2.288,-2.288s1.026,-2.288,2.288,-2.288s2.288,1.026,2.288,2.288S25.864,4.592,24.603,4.592z" fill="#EF3E3B"/>
    <path d="M16.956,18.037L5.481,15.522l-1.737,-1.737l20.944,4.597l-0.12,1.338l-6.138,-1.357l1.393,6.211l-1.395,0.077L16.956,18.037zM16.576,15.84l-0.472,-2.035l1.069,-1.069l0.791,3.436L16.576,15.84zM13.495,3.338l1.734,1.734l0.85,2.908l-1.074,1.074L13.495,3.338z" fill="#78797A"/>
    <path d="M25.305,22.333c-1.39,-1.39,-1.379,-3.655,0.025,-5.058c1.404,-1.404,3.668,-1.415,5.058,-0.025c1.39,1.39,1.379,3.655,-0.025,5.058C28.96,23.712,26.695,23.724,25.305,22.333z" fill="none" stroke="#228BCB" stroke-width="1.2" stroke-miterlimit="1"/>
    <path d="M17.274,30.365c-1.39,-1.39,-1.379,-3.655,0.025,-5.058c1.404,-1.404,3.668,-1.415,5.058,-0.025s1.379,3.655,-0.025,5.058C20.929,31.744,18.664,31.755,17.274,30.365z" fill="none" stroke="#228BCB" stroke-width="1.2" stroke-miterlimit="1"/>
  </g>
</svg>
