<?xml version="1.0" encoding="UTF-8"?>
<!DOCTYPE svg PUBLIC "-//W3C//DTD SVG 1.1//EN" "http://www.w3.org/Graphics/SVG/1.1/DTD/svg11.dtd">
<svg version="1.1" id="Layer_1" xmlns="http://www.w3.org/2000/svg" xmlns:xlink="http://www.w3.org/1999/xlink" x="0px" y="0px" width="32px" height="32px" viewBox="0 0 32 32" enable-background="new 0 0 32 32" xml:space="preserve">
  <g id="icon">
    <polygon points="30.5,30.5 8.5,30.5 8.5,1.5 22.5,1.5 30.5,9.5" fill="#FFFFFF" stroke-linejoin="miter"/>
    <path d="M22.707,1H8v12h1V2h13v8h8v20H9v-2H8v3h23V9.293L22.707,1zM23,9V2.707L29.293,9H23z" fill="#383838"/>
    <rect x="1.5" y="15.5" width="22" height="10" fill="#FFFFFF" stroke="#228BCB" stroke-width="1" stroke-miterlimit="1"/>
    <path d="M7.4,20.5H4.5v3.5M8,17.5H4.5v3.2M12.218,17.5c0.634,0,1.105,0.129,1.413,0.386c0.308,0.257,0.462,0.639,0.462,1.105c0,0.167,-0.033,0.339,-0.098,0.513c-0.065,0.175,-0.171,0.355,-0.317,0.5c-0.146,0.145,-0.335,0.264,-0.567,0.357c-0.232,0.093,-0.515,0.139,-0.848,0.139H10.5v-3H12.218zM12.453,23.5c0.3,0,0.568,-0.033,0.805,-0.098c0.237,-0.066,0.438,-0.163,0.603,-0.293c0.165,-0.13,0.29,-0.292,0.376,-0.487c0.086,-0.195,0.129,-0.401,0.129,-0.657c0,-0.226,-0.045,-0.411,-0.136,-0.595c-0.091,-0.183,-0.218,-0.34,-0.383,-0.469c-0.165,-0.13,-0.365,-0.229,-0.601,-0.297c-0.236,-0.069,-0.498,-0.103,-0.785,-0.103H10.5v3H12.453zM16.4,17.211L20.6,23.8M20.6,17.211L16.4,23.8" fill="#FFFFFF" stroke="#228BCB" stroke-width="1" stroke-miterlimit="1"/>
  </g>
</svg>
