<?xml version="1.0" encoding="UTF-8"?>
<!DOCTYPE svg PUBLIC "-//W3C//DTD SVG 1.1//EN" "http://www.w3.org/Graphics/SVG/1.1/DTD/svg11.dtd">
<svg version="1.1" id="Layer_1" xmlns="http://www.w3.org/2000/svg" xmlns:xlink="http://www.w3.org/1999/xlink" x="0px" y="0px" width="32px" height="32px" viewBox="0 0 32 32" enable-background="new 0 0 32 32" xml:space="preserve">
  <g id="icon">
    <path d="M17.299,2.088L1.515,11.672l4.662,14.574l20.201,3.734l4.101,-21.034L17.299,2.088zM23.604,25.92L8.771,23.159l-2.956,-9.938l11.603,-7.153l9.12,4.807L23.604,25.92z" fill="#92CBEE"/>
    <path d="M26.321,30.4c-0.03,0,-0.06,-0.003,-0.089,-0.008l-20.09,-3.713c-0.173,-0.031,-0.317,-0.153,-0.378,-0.317L1.128,11.868c-0.084,-0.228,0.008,-0.479,0.216,-0.601l15.698,-9.531c0.075,-0.044,0.162,-0.067,0.25,-0.067c0.077,0,0.155,0.018,0.224,0.053l13.107,6.819c0.198,0.1,0.306,0.321,0.264,0.538l-4.079,20.919C26.763,30.231,26.558,30.4,26.321,30.4zM2.205,11.916l4.394,13.836l19.328,3.575L29.84,9.258L17.309,2.73L2.205,11.916z" fill="#0964B0"/>
    <polygon points="10.071,21.665 7.91,13.942 17.438,8.007 24.606,11.823 22.243,23.941" fill="#FFFFFF" stroke="#787979" stroke-width="1" stroke-miterlimit="1" stroke-linejoin="miter"/>
  </g>
</svg>
