<?xml version="1.0" encoding="UTF-8"?>
<!DOCTYPE svg PUBLIC "-//W3C//DTD SVG 1.1//EN" "http://www.w3.org/Graphics/SVG/1.1/DTD/svg11.dtd">
<svg version="1.1" id="Layer_1" xmlns="http://www.w3.org/2000/svg" xmlns:xlink="http://www.w3.org/1999/xlink" x="0px" y="0px" width="32px" height="32px" viewBox="0 0 32 32" enable-background="new 0 0 32 32" xml:space="preserve">
  <g id="icon">
    <path d="M4.5,24V8M24,27.5H8M27.5,8v16M8,4.5h16" fill="none" stroke="#383838" stroke-width="1" stroke-miterlimit="1"/>
    <path d="M4.5,6.75c-1.241,0,-2.25,-1.009,-2.25,-2.25S3.259,2.25,4.5,2.25S6.75,3.259,6.75,4.5S5.741,6.75,4.5,6.75z" fill="#EF3E3B"/>
    <path d="M27.5,6.75c-1.241,0,-2.25,-1.009,-2.25,-2.25s1.009,-2.25,2.25,-2.25s2.25,1.009,2.25,2.25S28.741,6.75,27.5,6.75z" fill="#EF3E3B"/>
    <path d="M27.5,29.75c-1.241,0,-2.25,-1.009,-2.25,-2.25s1.009,-2.25,2.25,-2.25s2.25,1.009,2.25,2.25S28.741,29.75,27.5,29.75z" fill="#EF3E3B"/>
    <path d="M4.5,29.75c-1.241,0,-2.25,-1.009,-2.25,-2.25s1.009,-2.25,2.25,-2.25s2.25,1.009,2.25,2.25S5.741,29.75,4.5,29.75z" fill="#EF3E3B"/>
  </g>
</svg>
