<?xml version="1.0" encoding="UTF-8"?>
<!DOCTYPE svg PUBLIC "-//W3C//DTD SVG 1.1//EN" "http://www.w3.org/Graphics/SVG/1.1/DTD/svg11.dtd">
<svg version="1.1" id="Layer_1" xmlns="http://www.w3.org/2000/svg" xmlns:xlink="http://www.w3.org/1999/xlink" x="0px" y="0px" width="32px" height="32px" viewBox="0 0 32 32" enable-background="new 0 0 32 32" xml:space="preserve">
  <g id="icon">
    <path d="M2.979,30.224c-0.323,0,-0.7,-0.213,-0.7,-0.813c0,-2.862,1.659,-5.596,2.207,-6.42l0.36,0.621l0.754,0.247c-0.499,0.733,-1.898,3.037,-1.898,5.597C3.702,29.984,3.327,30.224,2.979,30.224z" fill="#383838"/>
    <path d="M6.06,25.25c-2.049,0,-3.779,-1.4,-3.779,-3.057c0,-1.636,1.785,-3.019,3.898,-3.019c1.861,0,3.424,1.149,3.636,2.672l0.034,0.243l-1.597,-0.558l-0.022,-0.074c-0.203,-0.696,-0.954,-1.064,-2.17,-1.064c-1.385,0,-2.43,0.774,-2.43,1.8c0,1.055,1.09,1.914,2.43,1.914c0.145,0,0.29,-0.014,0.43,-0.042l0.044,-0.009l1.637,0.671l-0.318,0.143C7.302,25.119,6.683,25.25,6.06,25.25z" fill="#383838"/>
    <path d="M25.359,29.654c-0.198,0,-0.405,-0.028,-0.616,-0.083C20.24,28,7.122,23.364,5.64,22.841l-0.018,-0.006l-0.306,-1.578c0.23,-0.06,0.483,-0.092,0.746,-0.092c0.204,0,0.393,0.01,0.562,0.029l0.155,0.728l18.488,6.463l3.674,-25.161L17.145,7.685L2.91,3.743l3.231,14.572c-0.411,0.022,-0.817,0.082,-1.216,0.179C4.028,13.865,2.47,6.577,1.921,3.73c-0.094,-0.47,0.015,-0.727,0.124,-0.86c0.117,-0.143,0.306,-0.223,0.531,-0.223c0.116,0,0.244,0.02,0.379,0.059l14.067,3.764l11.698,-4.515c0.186,-0.079,0.382,-0.12,0.568,-0.12c0.285,0,0.54,0.1,0.697,0.275c0.122,0.135,0.18,0.31,0.164,0.494l-3.762,26.421C26.25,29.594,25.623,29.654,25.359,29.654z" fill="#383838"/>
  </g>
</svg>
