<?xml version="1.0" encoding="UTF-8"?>
<!DOCTYPE svg PUBLIC "-//W3C//DTD SVG 1.1//EN" "http://www.w3.org/Graphics/SVG/1.1/DTD/svg11.dtd">
<svg version="1.1" id="Layer_1" xmlns="http://www.w3.org/2000/svg" xmlns:xlink="http://www.w3.org/1999/xlink" x="0px" y="0px" width="24px" height="24px" viewBox="0 0 24 24" enable-background="new 0 0 24 24" xml:space="preserve">
  <g id="icon">
    <path d="M2,0v24h20V6.5L15.525,0H2zM20,22H4V2h11v5.025L20,7V22z" fill="#7B7B7B"/>
    <polygon points="20,22 4,22 4,2 15,2 15,7.025 20,7" fill="#FFFFFF" stroke-linejoin="miter" opacity="0.4"/>
    <path d="M12.3515,7.2133c0.2633,0.0492,0.5186,0.1167,0.7651,0.2012c-1.6696,4.9604,-1.6998,5.2853,-1.6998,5.2853s-0.2596,0.0122,-5.5168,-0.3545c0.0136,-0.2194,0.0401,-0.4404,0.0801,-0.662C6.526,8.6593,9.3786,6.658,12.3515,7.2133z" fill="#52B4C0"/>
    <path d="M16.789,17.999c0.9551,-1.2076,1.4123,-2.8123,1.1269,-4.4585c-0.3505,-2.0212,-1.7319,-3.594,-3.4971,-4.2576c-0.6547,2.3424,-1.7507,5.3807,-1.7507,5.3807s-2.215,-0.1466,-5.4714,-0.4299c-0.0346,1.4691,0.4992,2.9496,1.6014,4.0708c2.1373,2.1741,5.6026,2.1741,7.7399,0C16.6294,18.2116,16.7276,18.0987,16.789,17.999z" fill="#6485C3"/>
  </g>
</svg>
