<?xml version="1.0" encoding="UTF-8"?>
<!DOCTYPE svg PUBLIC "-//W3C//DTD SVG 1.1//EN" "http://www.w3.org/Graphics/SVG/1.1/DTD/svg11.dtd">
<svg version="1.1" id="Layer_1" xmlns="http://www.w3.org/2000/svg" xmlns:xlink="http://www.w3.org/1999/xlink" x="0px" y="0px" width="24px" height="24px" viewBox="0 0 24 24" enable-background="new 0 0 24 24" xml:space="preserve">
  <g id="icon">
    <path d="M5,22.8H3V10h2V22.8zM5,2.5H3V0h2V2.5z" fill="#7B7B7B"/>
    <path d="M4,9.25c-1.6542,0,-3,-1.3458,-3,-3s1.3458,-3,3,-3s3,1.3458,3,3S5.6542,9.25,4,9.25z" fill="#6485C3"/>
    <path d="M13,22.8h-2v-2.8h2V22.8zM13,12.5h-2V0h2V12.5z" fill="#7B7B7B"/>
    <path d="M12,19.25c-1.6542,0,-3,-1.3458,-3,-3s1.3458,-3,3,-3s3,1.3458,3,3S13.6542,19.25,12,19.25z" fill="#6485C3"/>
    <path d="M21,22.8h-2v-9.8h2V22.8zM21,5.5h-2V0h2V5.5z" fill="#7B7B7B"/>
    <path d="M20,12.25c-1.6542,0,-3,-1.3458,-3,-3s1.3458,-3,3,-3s3,1.3458,3,3S21.6542,12.25,20,12.25z" fill="#6485C3"/>
  </g>
</svg>
