<?xml version="1.0" encoding="UTF-8"?>
<!DOCTYPE svg PUBLIC "-//W3C//DTD SVG 1.1//EN" "http://www.w3.org/Graphics/SVG/1.1/DTD/svg11.dtd">
<svg version="1.1" id="Layer_1" xmlns="http://www.w3.org/2000/svg" xmlns:xlink="http://www.w3.org/1999/xlink" x="0px" y="0px" width="24px" height="24px" viewBox="0 0 24 24" enable-background="new 0 0 24 24" xml:space="preserve">
  <g id="icon">
    <path d="M22,22H2V7h20V22z" fill="#FFFFFF" opacity="0.4"/>
    <path d="M24,24H0V6h24V24zM2,22h20V7H2V22z" fill="#7B7B7B"/>
    <path d="M24,7H0V2h24V7z" fill="#6485C3"/>
    <path d="M20,10H4V9h16V10zM20,11H4v1h16V11zM20,13H4v1h16V13zM20,15H4v1h16V15zM20,17H4v1h16V17zM20,19H4v1h16V19z" fill="#6D6E71"/>
  </g>
</svg>
