<?xml version="1.0" encoding="UTF-8"?>
<!DOCTYPE svg PUBLIC "-//W3C//DTD SVG 1.1//EN" "http://www.w3.org/Graphics/SVG/1.1/DTD/svg11.dtd">
<svg version="1.1" id="Layer_1" xmlns="http://www.w3.org/2000/svg" xmlns:xlink="http://www.w3.org/1999/xlink" x="0px" y="0px" width="16px" height="16px" viewBox="0 0 16 16" enable-background="new 0 0 16 16" xml:space="preserve">
  <g id="icon">
    <path d="M8,14.9019c-0.3523,0,-0.639,-0.2867,-0.639,-0.639s0.2867,-0.639,0.639,-0.639s0.639,0.2866,0.639,0.639S8.3523,14.9019,8,14.9019zM4.8682,14.0629c-0.1117,0,-0.2221,-0.0296,-0.3191,-0.0857c-0.3052,-0.1762,-0.4101,-0.5678,-0.2339,-0.873c0.1138,-0.1971,0.326,-0.3196,0.5538,-0.3196c0.1117,0,0.2221,0.0296,0.3192,0.0857c0.3052,0.1762,0.4101,0.5678,0.2339,0.8729C5.3082,13.9405,5.0959,14.0629,4.8682,14.0629L4.8682,14.0629zM11.1318,14.0629c-0.2278,0,-0.4399,-0.1225,-0.5538,-0.3196c-0.1762,-0.3051,-0.0712,-0.6967,0.2339,-0.8729c0.0971,-0.0561,0.2074,-0.0857,0.3191,-0.0857c0.2277,0,0.4399,0.1225,0.5538,0.3196c0.1762,0.3051,0.0713,0.6967,-0.2339,0.8729C11.3539,14.0333,11.2436,14.0629,11.1318,14.0629L11.1318,14.0629zM2.5767,11.9261c-0.2833,0,-0.5472,-0.1523,-0.6886,-0.3975c-0.1061,-0.1837,-0.1343,-0.3979,-0.0794,-0.6029c0.0549,-0.205,0.1864,-0.3764,0.3702,-0.4825c0.1208,-0.0697,0.258,-0.1065,0.3968,-0.1065c0.2833,0,0.5471,0.1522,0.6886,0.3974c0.2191,0.3794,0.0886,0.8664,-0.2909,1.0854C2.8528,11.8893,2.7156,11.9261,2.5767,11.9261zM13.4234,11.7706c-0.1117,0,-0.2221,-0.0296,-0.3192,-0.0857c-0.1478,-0.0854,-0.2536,-0.2231,-0.2978,-0.388c-0.0441,-0.1648,-0.0215,-0.3371,0.0639,-0.4849c0.1138,-0.1971,0.326,-0.3196,0.5538,-0.3196c0.1117,0,0.2221,0.0296,0.3191,0.0857c0.3052,0.1762,0.4101,0.5679,0.2339,0.873C13.8635,11.6481,13.6513,11.7706,13.4234,11.7706zM1.7372,8.9308c-0.5132,0,-0.9308,-0.4175,-0.9308,-0.9308s0.4175,-0.9308,0.9308,-0.9308c0.5132,0,0.9307,0.4175,0.9307,0.9308S2.2503,8.9308,1.7372,8.9308zM14.2628,8.639c-0.3523,0,-0.639,-0.2867,-0.639,-0.639s0.2866,-0.639,0.639,-0.639s0.639,0.2867,0.639,0.639S14.6152,8.639,14.2628,8.639zM2.5754,5.9355c-0.1864,0,-0.3705,-0.0495,-0.5326,-0.1431c-0.5094,-0.2942,-0.6846,-0.9479,-0.3905,-1.4572c0.19,-0.3291,0.5443,-0.5335,0.9246,-0.5335c0.1864,0,0.3705,0.0495,0.5326,0.1431C3.619,4.2388,3.7941,4.8925,3.5,5.402C3.3101,5.731,2.9557,5.9355,2.5754,5.9355L2.5754,5.9355zM13.4242,5.5077c-0.2278,0,-0.4399,-0.1225,-0.5538,-0.3196c-0.1762,-0.3051,-0.0712,-0.6967,0.2339,-0.8729c0.0971,-0.0561,0.2074,-0.0857,0.3191,-0.0857c0.2277,0,0.4399,0.1225,0.5538,0.3196c0.1762,0.3051,0.0713,0.6967,-0.2339,0.8729C13.6462,5.478,13.5359,5.5077,13.4242,5.5077L13.4242,5.5077zM11.1303,4.0516c-0.2576,0,-0.5123,-0.0685,-0.7364,-0.1979c-0.7044,-0.4067,-0.9466,-1.3107,-0.5399,-2.0151c0.2627,-0.4551,0.7527,-0.7377,1.2787,-0.7377c0.2576,0,0.5123,0.0684,0.7364,0.1978c0.7044,0.4067,0.9466,1.3107,0.5399,2.0151C12.1462,3.7688,11.6563,4.0516,11.1303,4.0516L11.1303,4.0516zM4.8694,3.7792c-0.4289,0,-0.8284,-0.2306,-1.0426,-0.6016c-0.3316,-0.5744,-0.1341,-1.3115,0.4403,-1.6432c0.1828,-0.1055,0.3905,-0.1613,0.6005,-0.1613c0.4289,0,0.8284,0.2305,1.0426,0.6016c0.3316,0.5744,0.1341,1.3115,-0.4403,1.6432C5.2873,3.7234,5.0795,3.7792,4.8694,3.7792C4.8695,3.7792,4.8695,3.7792,4.8694,3.7792zM8,3.0763c-0.7384,0,-1.3392,-0.6007,-1.3392,-1.3392S7.2616,0.3979,8,0.3979s1.3392,0.6008,1.3392,1.3392S8.7384,3.0763,8,3.0763z" fill="#6486C4"/>
  </g>
</svg>
