<?xml version="1.0" encoding="UTF-8"?>
<!DOCTYPE svg PUBLIC "-//W3C//DTD SVG 1.1//EN" "http://www.w3.org/Graphics/SVG/1.1/DTD/svg11.dtd">
<svg version="1.1" id="Layer_1" xmlns="http://www.w3.org/2000/svg" xmlns:xlink="http://www.w3.org/1999/xlink" x="0px" y="0px" width="16px" height="16px" viewBox="0 0 16 16" enable-background="new 0 0 16 16" xml:space="preserve">
  <g id="icon">
    <path d="M14,11.75c-0.9649,0,-1.75,-0.7851,-1.75,-1.75s0.7851,-1.75,1.75,-1.75s1.75,0.7851,1.75,1.75S14.9649,11.75,14,11.75zM10,11.75c-0.9649,0,-1.75,-0.7851,-1.75,-1.75s0.7851,-1.75,1.75,-1.75s1.75,0.7851,1.75,1.75S10.9649,11.75,10,11.75zM6,11.75c-0.9649,0,-1.75,-0.7851,-1.75,-1.75S5.0351,8.25,6,8.25s1.75,0.7851,1.75,1.75S6.9649,11.75,6,11.75zM2,11.75c-0.9649,0,-1.75,-0.7851,-1.75,-1.75S1.0351,8.25,2,8.25s1.75,0.7851,1.75,1.75S2.9649,11.75,2,11.75z" fill="#6486C4"/>
  </g>
</svg>
