<?xml version="1.0" encoding="UTF-8"?>
<!DOCTYPE svg PUBLIC "-//W3C//DTD SVG 1.1//EN" "http://www.w3.org/Graphics/SVG/1.1/DTD/svg11.dtd">
<svg version="1.1" id="Layer_1" xmlns="http://www.w3.org/2000/svg" xmlns:xlink="http://www.w3.org/1999/xlink" x="0px" y="0px" width="16px" height="16px" viewBox="0 0 16 16" enable-background="new 0 0 16 16" xml:space="preserve">
  <g id="icon">
    <path d="M8,15.8323c-4.3064,0,-7.81,-3.5035,-7.81,-7.81s3.5036,-7.81,7.81,-7.81s7.81,3.5036,7.81,7.81S12.3064,15.8323,8,15.8323zM8,1.3604c-3.6734,0,-6.662,2.9886,-6.662,6.662s2.9886,6.662,6.662,6.662s6.662,-2.9885,6.662,-6.662S11.6734,1.3604,8,1.3604z" fill="#6E6F72" opacity="0.3"/>
    <path d="M7.9869,15.8848c-1.3719,0,-2.727,-0.3638,-3.9189,-1.0519c-1.4265,-0.8236,-2.5404,-2.0512,-3.2212,-3.5501l-0.1037,-0.2282l1.1446,-0.5161l0.1032,0.2269c0.572,1.258,1.5074,2.2884,2.7051,2.9798c1.0016,0.5782,2.14,0.8839,3.2923,0.8838c0.213,0,0.4286,-0.0104,0.6408,-0.0311l0.248,-0.0241l0.1254,1.2493l-0.2495,0.0244c-0.2538,0.0248,-0.5115,0.0373,-0.766,0.0373C7.987,15.8848,7.987,15.8848,7.9869,15.8848z" fill="#6486C4"/>
  </g>
</svg>
