<?xml version="1.0" encoding="UTF-8"?>
<!DOCTYPE svg PUBLIC "-//W3C//DTD SVG 1.1//EN" "http://www.w3.org/Graphics/SVG/1.1/DTD/svg11.dtd">
<svg version="1.1" id="Layer_1" xmlns="http://www.w3.org/2000/svg" xmlns:xlink="http://www.w3.org/1999/xlink" x="0px" y="0px" width="16px" height="16px" viewBox="0 0 16 16" enable-background="new 0 0 16 16" xml:space="preserve">
  <g id="icon">
    <path d="M8.0558,15.81c-4.3064,0,-7.81,-3.5036,-7.81,-7.81s3.5036,-7.81,7.81,-7.81c2.0829,0,4.0433,0.8133,5.52,2.29l0.1768,0.1768l-0.9642,0.9642l-0.1768,-0.1768C11.3927,2.2253,9.7748,1.554,8.0558,1.554c-3.5543,0,-6.446,2.8917,-6.446,6.446s2.8917,6.446,6.446,6.446c1.719,0,3.3369,-0.6713,4.5558,-1.8902l0.1768,-0.1768l0.9642,0.9642l-0.1768,0.1768C12.0991,14.9967,10.1387,15.81,8.0558,15.81z" fill="#6486C4"/>
  </g>
</svg>
