<?xml version="1.0" encoding="UTF-8"?>
<!DOCTYPE svg PUBLIC "-//W3C//DTD SVG 1.1//EN" "http://www.w3.org/Graphics/SVG/1.1/DTD/svg11.dtd">
<svg version="1.1" id="Layer_1" xmlns="http://www.w3.org/2000/svg" xmlns:xlink="http://www.w3.org/1999/xlink" x="0px" y="0px" width="16px" height="16px" viewBox="0 0 16 16" enable-background="new 0 0 16 16" xml:space="preserve">
  <g id="icon">
    <path d="M8.0223,15.81c-4.3064,0,-7.81,-3.5036,-7.81,-7.81s3.5036,-7.81,7.81,-7.81s7.81,3.5036,7.81,7.81S12.3288,15.81,8.0223,15.81zM8.0223,1.338c-3.6734,0,-6.662,2.9886,-6.662,6.662s2.9886,6.662,6.662,6.662s6.662,-2.9886,6.662,-6.662S11.6958,1.338,8.0223,1.338z" fill="#6E6F72" opacity="0.3"/>
    <path d="M10.5384,14.1124l0.2269,-0.1032c1.258,-0.5721,2.2884,-1.5075,2.9798,-2.7051c0.6914,-1.1976,0.9863,-2.5577,0.8527,-3.9332l-0.0241,-0.248l1.2493,-0.1254l0.0244,0.2495c0.1599,1.6385,-0.191,3.2585,-1.0146,4.6851c-0.8236,1.4266,-2.0512,2.5404,-3.5501,3.2212l-0.2282,0.1037L10.5384,14.1124z" fill="#6486C4"/>
  </g>
</svg>
