<?xml version="1.0" encoding="UTF-8"?>
<!DOCTYPE svg PUBLIC "-//W3C//DTD SVG 1.1//EN" "http://www.w3.org/Graphics/SVG/1.1/DTD/svg11.dtd">
<svg version="1.1" id="Layer_1" xmlns="http://www.w3.org/2000/svg" xmlns:xlink="http://www.w3.org/1999/xlink" x="0px" y="0px" width="16px" height="16px" viewBox="0 0 16 16" enable-background="new 0 0 16 16" xml:space="preserve">
  <g id="icon">
    <polygon points="14.5,13.6 1.5549,13.6 1.5549,0.8 12.9,0.8 14.5,2.3167" fill="#FFFFFF" stroke-linejoin="miter" opacity="0.5"/>
    <path d="M12,16H8.5v-1h3.5V16zM7.5,16H4v-1h3.5V16z" fill="#6D6E71"/>
    <path d="M15,14H1V0h11.6713L15,2.2905V14zM2,13h12V2.7095L12.262,1H2V13z" fill="#6D6E71"/>
    <path d="M10.5,5c-0.8271,0,-1.5,-0.6729,-1.5,-1.5s0.6729,-1.5,1.5,-1.5s1.5,0.6729,1.5,1.5S11.3271,5,10.5,5z" fill="#EEAC55"/>
    <path d="M2,13V8.7433L4.3357,6.4l6.5786,6.6H2zM8.1718,9.4739L11.6661,13H14v-1.5329L9.9714,7.6684L8.1718,9.4739z" fill="#52B4C0"/>
  </g>
</svg>
