<?xml version="1.0" encoding="UTF-8"?>
<!DOCTYPE svg PUBLIC "-//W3C//DTD SVG 1.1//EN" "http://www.w3.org/Graphics/SVG/1.1/DTD/svg11.dtd">
<svg version="1.1" id="Layer_1" xmlns="http://www.w3.org/2000/svg" xmlns:xlink="http://www.w3.org/1999/xlink" x="0px" y="0px" width="16px" height="16px" viewBox="0 0 16 16" enable-background="new 0 0 16 16" xml:space="preserve">
  <g id="icon">
    <rect x="0.5" y="7.5" width="11" height="8" fill="#FFFFFF" opacity="0.5"/>
    <path d="M12,16H0V7h12V16zM1,15h10V8H1V15z" fill="#6E6F72"/>
    <path d="M12,8H0V4h12V8z" fill="#6486C4"/>
    <polygon points="13,4 13,6 13,13 13,14 14,14 14,4" fill="#6E6F72" stroke-linejoin="miter"/>
    <polygon points="2,2 2,3 3,3 13,3 13,4 13,6 14,6 14,2" fill="#6486C4" stroke-linejoin="miter"/>
    <polygon points="15,2 15,4 15,11 15,12 16,12 16,2" fill="#6E6F72" stroke-linejoin="miter"/>
    <polygon points="4,0 4,1 5,1 15,1 15,2 15,4 16,4 16,0" fill="#6486C4" stroke-linejoin="miter"/>
  </g>
</svg>
