<?xml version="1.0" encoding="UTF-8"?>
<!DOCTYPE svg PUBLIC "-//W3C//DTD SVG 1.1//EN" "http://www.w3.org/Graphics/SVG/1.1/DTD/svg11.dtd">
<svg version="1.1" id="Layer_1" xmlns="http://www.w3.org/2000/svg" xmlns:xlink="http://www.w3.org/1999/xlink" x="0px" y="0px" width="24px" height="24px" viewBox="0 0 24 24" enable-background="new 0 0 24 24" xml:space="preserve">
  <g id="icon">
    <polygon points="4,7 4,1 7,1 7,6.1 6.8741,6.1 6.3,6.4445 6.3,7" fill="#CC525E" stroke-linejoin="miter"/>
    <polygon points="12,3.3763 1.6641,11.6594 0.057,9.6155 12,0.0689 23.943,9.5155 22.3359,11.5594" fill="#CC525E" stroke-linejoin="miter"/>
    <polygon points="14,24 14,17 10,17 10,24 3,24 3,12.0419 12.0902,4.7562 21,12.0446 21,24" fill="#7B7B7B" stroke-linejoin="miter"/>
    <rect x="8.5" y="18.5" width="7" height="4" fill="#FFFFFF" opacity="0.5" transform="matrix(-1.83697e-16 1 -1 -1.83697e-16 32.5 8.5)"/>
  </g>
</svg>
