<?xml version="1.0" encoding="UTF-8"?>
<!DOCTYPE svg PUBLIC "-//W3C//DTD SVG 1.1//EN" "http://www.w3.org/Graphics/SVG/1.1/DTD/svg11.dtd">
<svg version="1.1" id="Layer_1" xmlns="http://www.w3.org/2000/svg" xmlns:xlink="http://www.w3.org/1999/xlink" x="0px" y="0px" width="24px" height="24px" viewBox="0 0 24 24" enable-background="new 0 0 24 24" xml:space="preserve">
  <g id="icon">
    <polygon points="13.7,23.3 13.7,16.3 10.2,16.3 10.2,23.3 3.7,23.3 3.7,8.2727 12.0765,1.5325 20.2,8.2792 20.2,23.3" fill="#FFFFFF" stroke-linejoin="miter" opacity="0.5"/>
    <polygon points="13,24 13,17 11,17 11,24 3,24 3,8.1 5,8.1 5,22 9,22 9,15 15,15 15,22 19,22 19,8.1 21,8.1 21,24" fill="#7D7C7B" stroke-linejoin="miter"/>
    <polygon points="12,3.2154 1.568,11.385 0.0537,9.4589 12,0.0981 23.9463,9.4589 22.432,11.385" fill="#6484C3" stroke-linejoin="miter"/>
  </g>
</svg>
