<?xml version="1.0" encoding="UTF-8"?>
<!DOCTYPE svg PUBLIC "-//W3C//DTD SVG 1.1//EN" "http://www.w3.org/Graphics/SVG/1.1/DTD/svg11.dtd">
<svg version="1.1" id="Layer_1" xmlns="http://www.w3.org/2000/svg" xmlns:xlink="http://www.w3.org/1999/xlink" x="0px" y="0px" width="24px" height="24px" viewBox="0 0 24 24" enable-background="new 0 0 24 24" xml:space="preserve">
  <g id="icon">
    <path d="M18.45,19.45c-1.0752,0,-1.95,-0.8748,-1.95,-1.95s0.8748,-1.95,1.95,-1.95S20.4,16.4248,20.4,17.5S19.5252,19.45,18.45,19.45zM5.55,19.45c-1.0752,0,-1.95,-0.8748,-1.95,-1.95s0.8748,-1.95,1.95,-1.95S7.5,16.4248,7.5,17.5S6.6252,19.45,5.55,19.45zM18.45,8.45c-1.0752,0,-1.95,-0.8748,-1.95,-1.95s0.8748,-1.95,1.95,-1.95S20.4,5.4248,20.4,6.5S19.5252,8.45,18.45,8.45zM5.55,8.45C4.4748,8.45,3.6,7.5752,3.6,6.5s0.8748,-1.95,1.95,-1.95S7.5,5.4248,7.5,6.5S6.6252,8.45,5.55,8.45z" fill="#FFFFFF" opacity="0.5"/>
    <path d="M4.5634,22C2.0471,22,0,19.9889,0,17.517v-0.034C0,15.0111,2.0471,13,4.5634,13h14.8731C21.9529,13,24,15.0111,24,17.483v0.034c0,2.4719,-2.0471,4.483,-4.5634,4.483H4.5634zM18.45,15.55c-1.0752,0,-1.95,0.8748,-1.95,1.95s0.8748,1.95,1.95,1.95S20.4,18.5752,20.4,17.5S19.5252,15.55,18.45,15.55zM5.55,15.55c-1.0752,0,-1.95,0.8748,-1.95,1.95s0.8748,1.95,1.95,1.95S7.5,18.5752,7.5,17.5S6.6252,15.55,5.55,15.55zM4.5634,11C2.0471,11,0,8.9889,0,6.517v-0.034C0,4.0111,2.0471,2,4.5634,2h14.8731C21.9529,2,24,4.0111,24,6.483v0.034c0,2.4719,-2.0471,4.483,-4.5634,4.483H4.5634zM18.45,4.55c-1.0752,0,-1.95,0.8748,-1.95,1.95s0.8748,1.95,1.95,1.95S20.4,7.5752,20.4,6.5S19.5252,4.55,18.45,4.55zM5.55,4.55C4.4748,4.55,3.6,5.4248,3.6,6.5s0.8748,1.95,1.95,1.95S7.5,7.5752,7.5,6.5S6.6252,4.55,5.55,4.55z" fill="#6486C4"/>
  </g>
</svg>
