<?xml version="1.0" encoding="UTF-8"?>
<!DOCTYPE svg PUBLIC "-//W3C//DTD SVG 1.1//EN" "http://www.w3.org/Graphics/SVG/1.1/DTD/svg11.dtd">
<svg version="1.1" id="Layer_1" xmlns="http://www.w3.org/2000/svg" xmlns:xlink="http://www.w3.org/1999/xlink" x="0px" y="0px" width="24px" height="24px" viewBox="0 0 24 24" enable-background="new 0 0 24 24" xml:space="preserve">
  <g id="icon">
    <path d="M4.4841,23.2186c-2.0578,0,-3.7319,-1.7782,-3.7319,-3.964V4.7454c0,-2.1857,1.6741,-3.964,3.7319,-3.964h0.0318c2.0578,0,3.7319,1.7782,3.7319,3.964v14.5092c0,2.1857,-1.6741,3.964,-3.7319,3.964H4.4841z" fill="#FFFFFF" opacity="0.5"/>
    <path d="M4.4841,24C2.0115,24,0,21.8712,0,19.2546V4.7454C0,2.1288,2.0115,0,4.4841,0h0.0319C6.9885,0,9,2.1288,9,4.7454v14.5092C9,21.8712,6.9885,24,4.5159,24H4.4841zM4.4841,2.0506c-1.3847,0,-2.5113,1.2089,-2.5113,2.6948v14.5092c0,1.4859,1.1265,2.6948,2.5113,2.6948h0.0319c1.3847,0,2.5113,-1.2089,2.5113,-2.6948V4.7454c0,-1.4859,-1.1265,-2.6948,-2.5113,-2.6948H4.4841z" fill="#6486C4"/>
    <path d="M4.5,19.9c-1.084,0,-1.9659,-0.9182,-1.9659,-2.0468c0,-1.1286,0.8819,-2.0468,1.9659,-2.0468s1.9659,0.9182,1.9659,2.0468C6.4659,18.9818,5.584,19.9,4.5,19.9zM4.5,16.9759c-0.4646,0,-0.8425,0.3935,-0.8425,0.8772s0.378,0.8772,0.8425,0.8772s0.8425,-0.3935,0.8425,-0.8772S4.9646,16.9759,4.5,16.9759z" fill="#6486C4"/>
    <path d="M4.5,8.1c-1.084,0,-1.9659,-0.9182,-1.9659,-2.0468S3.416,4.0063,4.5,4.0063s1.9659,0.9182,1.9659,2.0468S5.584,8.1,4.5,8.1zM4.5,5.1759c-0.4646,0,-0.8425,0.3935,-0.8425,0.8772s0.378,0.8772,0.8425,0.8772s0.8425,-0.3935,0.8425,-0.8772S4.9646,5.1759,4.5,5.1759z" fill="#6486C4"/>
    <path d="M19.2546,1.7522H9.1949C9.7053,2.6245,10,3.6495,10,4.7454v4.5024h9.2546c2.1857,0,3.964,-1.6741,3.964,-3.7319v-0.0318C23.2186,3.4263,21.4403,1.7522,19.2546,1.7522z" fill="#FFFFFF" opacity="0.5"/>
    <path d="M19.2546,22.2478H9.1949c0.5103,-0.8723,0.8051,-1.8973,0.8051,-2.9932v-4.5024h9.2546c2.1857,0,3.964,1.6741,3.964,3.7319v0.0318C23.2186,20.5737,21.4403,22.2478,19.2546,22.2478z" fill="#FFFFFF" opacity="0.5"/>
    <path d="M19.9,5.5c0,1.084,-0.9182,1.9659,-2.0468,1.9659c-1.1286,0,-2.0468,-0.8819,-2.0468,-1.9659s0.9182,-1.9659,2.0468,-1.9659C18.9818,3.5341,19.9,4.416,19.9,5.5zM16.9759,5.5c0,0.4646,0.3935,0.8425,0.8772,0.8425s0.8772,-0.378,0.8772,-0.8425s-0.3935,-0.8425,-0.8772,-0.8425S16.9759,5.0354,16.9759,5.5z" fill="#6486C4"/>
    <path d="M19.2546,1H8.6693c0.47,0.5713,0.8348,1.2397,1.0624,1.9728h9.5229c1.4859,0,2.6948,1.1266,2.6948,2.5113v0.0319c0,1.3847,-1.2089,2.5113,-2.6948,2.5113H10V10h9.2546C21.8712,10,24,7.9885,24,5.5159v-0.0319C24,3.0115,21.8712,1,19.2546,1z" fill="#6486C4"/>
    <path d="M19.2546,14H10v1.9728h9.2546c1.4859,0,2.6948,1.1266,2.6948,2.5113v0.0319c0,1.3847,-1.2089,2.5113,-2.6948,2.5113H9.7317c-0.2276,0.7331,-0.5924,1.4015,-1.0624,1.9728h10.5853C21.8712,23,24,20.9885,24,18.5159v-0.0319C24,16.0115,21.8712,14,19.2546,14z" fill="#6486C4"/>
    <path d="M19.9,18.5c0,1.084,-0.9182,1.9659,-2.0468,1.9659c-1.1286,0,-2.0468,-0.8819,-2.0468,-1.9659s0.9182,-1.9659,2.0468,-1.9659C18.9818,16.5341,19.9,17.416,19.9,18.5zM16.9759,18.5c0,0.4646,0.3935,0.8425,0.8772,0.8425s0.8772,-0.378,0.8772,-0.8425s-0.3935,-0.8425,-0.8772,-0.8425S16.9759,18.0354,16.9759,18.5z" fill="#6486C4"/>
  </g>
</svg>
