<?xml version="1.0" encoding="UTF-8"?>
<!DOCTYPE svg PUBLIC "-//W3C//DTD SVG 1.1//EN" "http://www.w3.org/Graphics/SVG/1.1/DTD/svg11.dtd">
<svg version="1.1" id="Layer_1" xmlns="http://www.w3.org/2000/svg" xmlns:xlink="http://www.w3.org/1999/xlink" x="0px" y="0px" width="24px" height="24px" viewBox="0 0 24 24" enable-background="new 0 0 24 24" xml:space="preserve">
  <g id="icon">
    <rect x="11" width="2" height="6.3" fill="#7D7C7B"/>
    <path d="M5.9412,11h12.1431c0.1566,0.3679,0.1864,0.6649,0.0907,1H5.8501C5.7541,11.6652,5.7838,11.3688,5.9412,11zM15.5666,18l0.4372,-1h-7.982l0.4372,1H15.5666z" fill="#FFFFFF" opacity="0.5"/>
    <path d="M8.48,18.016h7.0655l-2.5082,5.3497c-0.1785,0.3855,-0.5806,0.6343,-1.0246,0.6343s-0.8458,-0.2482,-1.0237,-0.6323L8.48,18.016zM18.0352,11l-0.0098,-0.0221C17.6276,10.0825,16.3925,8,13.5225,8h-3c-2.8871,0,-4.1243,2.0825,-4.5223,2.9778L5.9903,11H18.0352zM8.0454,16.9716h7.9348l2.1732,-4.9219H5.8722L8.0454,16.9716z" fill="#9171B2"/>
    <path d="M9.5,7v-0.1984c0,-1.2756,1.0363,-2.449,2.3083,-2.5444C13.273,4.1474,14.5,5.3081,14.5,6.75V7H9.5z" fill="#7D7C7B"/>
  </g>
</svg>
