<?xml version="1.0" encoding="UTF-8"?>
<!DOCTYPE svg PUBLIC "-//W3C//DTD SVG 1.1//EN" "http://www.w3.org/Graphics/SVG/1.1/DTD/svg11.dtd">
<svg version="1.1" id="Layer_1" xmlns="http://www.w3.org/2000/svg" xmlns:xlink="http://www.w3.org/1999/xlink" x="0px" y="0px" width="24px" height="24px" viewBox="0 0 24 24" enable-background="new 0 0 24 24" xml:space="preserve">
  <g id="icon">
    <path d="M17.7,20.3v-5.8h-1.4v-0.717c0,-2.6266,-2.9204,-4.533,-7.2195,-4.533c-0.7159,0,-1.4189,0.0542,-2.0894,0.1612L6.7,9.4576V7.5973l8.235,-6.5462L23.2,7.5979V20.3H17.7z" fill="#FFFFFF" opacity="0.5"/>
    <path d="M17,21v-5.8h-0.8v-1.467c0,-0.082,-0.0038,-0.168,-0.0116,-0.2629L16.1663,13.2H19v5.8h3V8.1493l-7.0184,-5.5384L8,8.1517v1.1376l-0.2253,0.0223c-0.5073,0.0502,-1.0015,0.1301,-1.4688,0.2373L6,9.6191V7.1921l8.9869,-7.1494L24,7.1946V21H17z" fill="#7D7C7B"/>
    <path d="M14.4613,12.8037c-0.0867,-1.3801,-2.5048,-2.4504,-5.5787,-2.4504c-3.0429,0,-5.5272,1.0924,-5.6177,2.4504h-0.0058v2.5334c-1.5779,0.3431,-2.6877,1.1535,-2.7511,2.0033H0.5034v2.5562c0,1.0493,2.4485,2.269,5.6051,2.269c3.1545,0,5.6012,-1.2263,5.6012,-2.2811v-2.4674v-0.0699v-0.0068h-0.0279l-0.0035,-0.0009c1.6816,-0.4452,2.7871,-1.2409,2.7871,-1.9588v-2.577H14.4613z" fill="#FFFFFF" opacity="0.5"/>
    <path d="M6.1585,24c-1.5244,0,-3.06,-0.3096,-4.2129,-0.8495C0.6909,22.563,0,21.7729,0,20.9255v-2.908h0.0328c0.1872,-0.9962,1.2014,-1.9079,2.6542,-2.3772v-2.3321h0.0284c0.1357,-0.8298,0.779,-1.5756,1.831,-2.1151C5.6695,10.6172,7.2026,10.3,8.8633,10.3c1.6505,0,3.1742,0.3173,4.2904,0.8935c1.0452,0.5395,1.6844,1.2852,1.8194,2.1147h0.0211l0.0055,0.1893L15,16.2378c0,1.0191,-1.0015,1.9698,-2.6869,2.5587v2.1166c0,0.8502,-0.6903,1.6433,-1.9438,2.2334C9.217,23.6889,7.6822,24,6.1585,24zM1.5526,20.9096c0.0346,0.098,0.2835,0.4228,1.0318,0.7732c0.9593,0.4492,2.262,0.7069,3.5741,0.7069c1.3103,0,2.6112,-0.2586,3.5692,-0.7096c0.7515,-0.3537,0.9992,-0.6833,1.0329,-0.7822v-0.614c-0.1776,0.1027,-0.3709,0.1978,-0.5778,0.2841c-1.0457,0.4362,-2.4685,0.6764,-4.0063,0.6764c-1.9211,0,-3.5445,-0.343,-4.6238,-0.9712V20.9096zM1.5526,18.8068c0.2108,0.2485,0.5724,0.4817,1.0511,0.6772c0.9136,0.373,2.1825,0.5784,3.5728,0.5784c1.3794,0,2.6382,-0.2054,3.5444,-0.5783c0.3477,-0.1431,0.6331,-0.3067,0.843,-0.4819c-0.5629,0.0878,-1.1392,0.1322,-1.7185,0.1322c-2.489,0,-4.8115,-0.8237,-5.6305,-1.9775c-1.1283,0.3463,-1.6382,0.9397,-1.6603,1.1835l-0.002,0.0231V18.8068zM4.1786,16.5157c0.2087,0.2461,0.614,0.52,1.1021,0.7427c0.9809,0.4476,2.2468,0.694,3.5647,0.694c0.7403,0,1.5026,-0.0865,2.2055,-0.2503l0.6562,-0.2679l0.0057,-0.0019c1.3433,-0.4459,1.7212,-1.0983,1.7349,-1.1998l-0.0002,-0.6431c-1.0729,0.6315,-2.6822,0.9762,-4.5842,0.9762c-1.9324,0,-3.6119,-0.3689,-4.6847,-1.0204V16.5157zM4.1786,14.0268c0.1948,0.2791,0.587,0.5506,1.1126,0.7688c0.9134,0.3792,2.1821,0.5881,3.5721,0.5881c2.4378,0,4.0424,-0.6354,4.584,-1.2809v-0.4789l-0.0011,-0.0138c-0.0225,-0.2953,-0.4089,-0.6779,-0.9843,-0.9749c-0.9056,-0.4674,-2.1836,-0.7249,-3.5986,-0.7249c-1.4267,0,-2.7155,0.2579,-3.6289,0.7264c-0.6188,0.3173,-1.0322,0.6995,-1.0532,0.9737l-0.0026,0.0355V14.0268z" fill="#EEAC55"/>
  </g>
</svg>
