<?xml version="1.0" encoding="UTF-8"?>
<!DOCTYPE svg PUBLIC "-//W3C//DTD SVG 1.1//EN" "http://www.w3.org/Graphics/SVG/1.1/DTD/svg11.dtd">
<svg version="1.1" id="Layer_1" xmlns="http://www.w3.org/2000/svg" xmlns:xlink="http://www.w3.org/1999/xlink" x="0px" y="0px" width="24px" height="24px" viewBox="0 0 24 24" enable-background="new 0 0 24 24" xml:space="preserve">
  <g id="icon">
    <path d="M2.4777,23.2C1.4975,23.2,0.7,22.4025,0.7,21.4223V2.4777C0.7,1.4975,1.4975,0.7,2.4777,0.7h18.9446C22.4025,0.7,23.2,1.4975,23.2,2.4777v18.9446c0,0.9802,-0.7975,1.7777,-1.7777,1.7777H2.4777z" fill="#FFFFFF" opacity="0.5"/>
    <path d="M0,21.4723V2.5277C0,1.1317,1.1317,0,2.5277,0h18.9446C22.8683,0,24,1.1317,24,2.5277v18.9446c0,1.396,-1.1317,2.5277,-2.5277,2.5277H2.5277C1.1317,24,0,22.8683,0,21.4723zM2,2.5277v18.9446c0,0.2914,0.2363,0.5277,0.5277,0.5277h18.9446c0.2914,0,0.5277,-0.2363,0.5277,-0.5277V2.5277c0,-0.2914,-0.2363,-0.5277,-0.5277,-0.5277H2.5277C2.2363,2,2,2.2363,2,2.5277z" fill="#EEAD56"/>
    <path d="M4.1544,19.6c-0.5172,0,-0.9914,-0.271,-1.2375,-0.7073c-0.2353,-0.417,-0.2277,-0.9112,0.0204,-1.3219l7.829,-12.8824c0.2539,-0.4201,0.7083,-0.6706,1.2161,-0.6706c0.5075,0,0.9624,0.2512,1.2168,0.672l7.8271,12.8791c0.2486,0.4117,0.2567,0.9068,0.0213,1.324c-0.2462,0.4361,-0.7204,0.7071,-1.2375,0.7071H4.1544zM4.5487,18H19.416L11.9823,5.7682L4.5487,18z" fill="#EEAD56"/>
    <rect x="11" y="9" width="2" height="5" fill="#7B7B7B"/>
    <rect x="11" y="15" width="2" height="2" fill="#7B7B7B"/>
  </g>
</svg>
