<?xml version="1.0" encoding="UTF-8"?>
<!DOCTYPE svg PUBLIC "-//W3C//DTD SVG 1.1//EN" "http://www.w3.org/Graphics/SVG/1.1/DTD/svg11.dtd">
<svg version="1.1" id="Layer_1" xmlns="http://www.w3.org/2000/svg" xmlns:xlink="http://www.w3.org/1999/xlink" x="0px" y="0px" width="24px" height="24px" viewBox="0 0 24 24" enable-background="new 0 0 24 24" xml:space="preserve">
  <g id="icon">
    <path d="M2.1333,24c-0.5709,0,-1.1074,-0.2237,-1.5105,-0.6298c-0.8287,-0.8348,-0.8286,-2.1931,0,-3.0277l5.759,-5.6685l3.0132,3.0356l-5.7574,5.6667C3.2377,23.7792,2.7042,24,2.1333,24z" fill="#7D7C7B"/>
    <path d="M7.797,15.1921l1.7024,-1.7043c0.1892,-0.1894,0.1891,-0.4974,-0.0001,-0.6867l-6.739,-6.7438c-0.7734,-0.7739,-0.7735,-2.0333,0,-2.8073L5.0879,0.9204c0.3748,-0.375,0.8732,-0.5816,1.4035,-0.5816c0.5303,0,1.0288,0.2065,1.4035,0.5816l0.2111,0.2116L7.0448,2.1923l-0.2111,-0.2116c-0.0872,-0.0873,-0.2119,-0.1372,-0.3423,-0.1372s-0.2552,0.05,-0.3424,0.1373L3.8214,4.3102c-0.1892,0.1893,-0.1893,0.4974,-0.0001,0.6867l6.7392,6.7439c0.7734,0.774,0.7734,2.0334,0,2.8074L8.858,16.2523L7.797,15.1921z" fill="#7D7C7B"/>
    <path d="M19.1059,18.0224c-0.5303,0,-1.0287,-0.2066,-1.4035,-0.5817L6.5707,6.3007c-0.7733,-0.774,-0.7733,-2.0333,0,-2.8073L9.4804,0.5816C9.8551,0.2065,10.3535,0,10.8837,0c0.5303,0,1.0287,0.2065,1.4034,0.5816l11.1318,11.1401c0.7735,0.774,0.7735,2.0333,0,2.8074l-2.9096,2.9117C20.1346,17.8159,19.6362,18.0224,19.1059,18.0224z" fill="#6486C4"/>
  </g>
</svg>
