<?xml version="1.0" encoding="UTF-8"?>
<!DOCTYPE svg PUBLIC "-//W3C//DTD SVG 1.1//EN" "http://www.w3.org/Graphics/SVG/1.1/DTD/svg11.dtd">
<svg version="1.1" id="Layer_1" xmlns="http://www.w3.org/2000/svg" xmlns:xlink="http://www.w3.org/1999/xlink" x="0px" y="0px" width="24px" height="24px" viewBox="0 0 24 24" enable-background="new 0 0 24 24" xml:space="preserve">
  <g id="icon">
    <path d="M16.4952,12.9754c-0.0145,0.0032,-1.4832,0.3401,-2.5401,1.3959l-8.103,8.0953c-0.595,0.5944,-1.3765,0.8916,-2.1581,0.8916c-0.7815,0,-1.563,-0.2972,-2.158,-0.8916c-0.5765,-0.576,-0.894,-1.3417,-0.894,-2.1563c0,-0.8146,0.3175,-1.5804,0.894,-2.1563l8.0908,-8.083c1.0829,-1.0819,1.3828,-2.5522,1.3857,-2.5669C11.9916,10.2136,13.8626,11.992,16.4952,12.9754z" fill="#FFFFFF" opacity="0.5"/>
    <path d="M3.6937,24c-0.9875,0,-1.915,-0.3833,-2.6114,-1.0792C0.3844,22.2237,0,21.2966,0,20.3103c0,-0.9862,0.3844,-1.9134,1.0823,-2.6106l8.0906,-8.083c0.9283,-0.9274,1.2077,-2.2277,1.2104,-2.2407l0.0301,-0.1435l1.7419,0.3461l-0.0286,0.1452c-0.0146,0.074,-0.3719,1.8266,-1.6974,3.1507l-8.0906,8.083c-0.3617,0.3614,-0.561,0.8418,-0.561,1.3528s0.1992,0.9914,0.5609,1.3527c0.3615,0.3611,0.8428,0.5599,1.3553,0.5599c0.5126,0,0.9939,-0.1988,1.3553,-0.5599l8.103,-8.0953c1.2925,-1.2914,3.0248,-1.6854,3.0978,-1.7015l0.1447,-0.032l0.383,1.7344l-0.1427,0.0333c-0.0131,0.003,-1.3171,0.3151,-2.2263,1.2235l-8.103,8.0953C5.6094,23.6167,4.6818,24,3.6941,24H3.6937z" fill="#7D7C7B"/>
    <path d="M17.183,12.8824c-1.6445,-0.0001,-3.1846,-0.6461,-4.3368,-1.8188c-1.1501,-1.1707,-1.7676,-2.7196,-1.7387,-4.3613c0.055,-3.1284,2.5424,-5.7411,5.6627,-5.948c0.1377,-0.0091,0.2766,-0.0137,0.4129,-0.0137c0.9547,0,1.8697,0.2159,2.7194,0.6416c0.0708,0.0355,0.1208,0.1036,0.1334,0.1822c0.0128,0.079,-0.0134,0.1599,-0.0699,0.2164l-3.6202,3.6169c-0.3115,0.3113,-0.4788,0.7251,-0.471,1.1652c0.0078,0.4399,0.1901,0.8478,0.5133,1.1485c0.2911,0.2709,0.6745,0.4201,1.0795,0.4201c0.4401,0,0.8714,-0.1788,1.1834,-0.4905l3.5826,-3.5792c0.0472,-0.0471,0.1099,-0.0731,0.1765,-0.0731c0.0953,0,0.1807,0.0528,0.2228,0.1377c0.4754,0.9609,0.6869,2.039,0.6117,3.1176c-0.2169,3.1091,-2.8337,5.5855,-5.9576,5.6376c-0.0346,0.0006,-0.0687,0.0009,-0.1032,0.0009H17.183z" fill="#FFFFFF" opacity="0.5"/>
    <path d="M17.1813,13.6232c-1.8221,0,-3.535,-0.7101,-4.8232,-1.9995c-1.317,-1.3182,-2.0242,-3.0706,-1.9913,-4.9344c0.0617,-3.5103,2.8528,-6.442,6.3542,-6.6743c0.1513,-0.01,0.3046,-0.015,0.4557,-0.015c1.0602,0,2.1175,0.2489,3.0574,0.7199c0.2831,0.1419,0.4823,0.4133,0.5328,0.726c0.0507,0.3132,-0.053,0.6343,-0.2772,0.8587l-3.6206,3.6171c-0.1679,0.1677,-0.2581,0.3907,-0.2539,0.6278c0.0042,0.237,0.1027,0.457,0.2773,0.6195c0.1529,0.1422,0.3577,0.2205,0.5767,0.2205c0.2447,0,0.4847,-0.0994,0.6582,-0.2728l3.5827,-3.5793c0.1843,-0.184,0.4398,-0.2895,0.7009,-0.2895c0.0535,0,0.1073,0.0044,0.1599,0.0131c0.3135,0.0516,0.5847,0.2521,0.7255,0.5365c0.5338,1.0788,0.7714,2.2884,0.6869,3.498c-0.2434,3.4892,-3.1794,6.2683,-6.6842,6.3267C17.2596,13.6228,17.2204,13.6232,17.1813,13.6232zM17.1774,1.7779c-0.1129,0,-0.2269,0.0038,-0.3387,0.0113c-2.5867,0.1715,-4.6488,2.3376,-4.6945,4.9314c-0.0242,1.3775,0.4985,2.6725,1.4716,3.6465c0.9522,0.9531,2.2206,1.478,3.5714,1.478c0.0274,0,0.0547,-0.0002,0.0823,-0.0006c2.5907,-0.0432,4.7607,-2.0958,4.9404,-4.6728c0.031,-0.444,0.0039,-0.889,-0.0806,-1.3224l-0.0355,-0.1821l-2.7099,2.7074c-0.5161,0.5157,-1.1957,0.7997,-1.9135,0.7997c-0.666,0,-1.3013,-0.2498,-1.7888,-0.7034c-0.5313,-0.4943,-0.8309,-1.1654,-0.8438,-1.8896c-0.0129,-0.7244,0.2623,-1.4054,0.7749,-1.9174l2.7519,-2.7492l-0.1807,-0.0365C17.854,1.8116,17.5154,1.7779,17.1774,1.7779z" fill="#7D7C7B"/>
  </g>
</svg>
