<?xml version="1.0" encoding="UTF-8"?>
<!DOCTYPE svg PUBLIC "-//W3C//DTD SVG 1.1//EN" "http://www.w3.org/Graphics/SVG/1.1/DTD/svg11.dtd">
<svg version="1.1" id="Layer_1" xmlns="http://www.w3.org/2000/svg" xmlns:xlink="http://www.w3.org/1999/xlink" x="0px" y="0px" width="16px" height="16px" viewBox="0 0 16 16" enable-background="new 0 0 16 16" xml:space="preserve">
  <g id="icon">
    <path d="M9.008,5.5h3.983c0.557,0,1.008,0.451,1.008,1.008V8.5H8V6.508C8,5.951,8.451,5.5,9.008,5.5z" fill="#FFFFFF" stroke="#228BCB" stroke-width="1" stroke-miterlimit="1"/>
    <path d="M14,5.493c0,0.4,0,1.882,0,3.007H2c0,-1.974,0,-4.075,0,-4.6c0,-1.125,-1.5,-1.125,-1.5,0s0,9.6,0,9.6h1.5c0,0,0,-0.707,0,-2h12c0,1.253,0,2,0,2h1.5c0,0,0,-6.882,0,-8.007S14,4.368,14,5.493z" fill="#FFFFFF" stroke="#383838" stroke-width="1" stroke-miterlimit="1"/>
    <path d="M5.419,4.312c1.043,0.279,1.721,1.133,1.513,1.906c-0.208,0.774,-1.222,1.175,-2.265,0.896c-1.043,-0.279,-1.721,-1.133,-1.513,-1.906C3.362,4.434,4.376,4.033,5.419,4.312z" fill="#FFFFFF" stroke="#228BCB" stroke-width="1" stroke-miterlimit="1"/>
  </g>
</svg>
