<?xml version="1.0" encoding="UTF-8"?>
<!DOCTYPE svg PUBLIC "-//W3C//DTD SVG 1.1//EN" "http://www.w3.org/Graphics/SVG/1.1/DTD/svg11.dtd">
<svg version="1.1" id="Layer_1" xmlns="http://www.w3.org/2000/svg" xmlns:xlink="http://www.w3.org/1999/xlink" x="0px" y="0px" width="16px" height="16px" viewBox="0 0 16 16" enable-background="new 0 0 16 16" xml:space="preserve">
  <g id="icon">
    <path d="M10.543,4.791C9.46,3.443,8.339,2.049,7.787,0.688C7.74,0.574,7.628,0.5,7.5,0.5c-0.128,0,-0.24,0.074,-0.286,0.189c-0.551,1.368,-1.678,2.772,-2.768,4.13C2.931,6.707,1.5,8.491,1.5,10.193c0,1.467,0.627,2.819,1.764,3.806C4.381,14.967,5.885,15.5,7.5,15.5c1.619,0,3.123,-0.529,4.235,-1.49c1.138,-0.983,1.765,-2.339,1.765,-3.817C13.5,8.469,12.064,6.683,10.543,4.791z" fill="#FFFFFF" stroke="#EE3D3B" stroke-width="1" stroke-linecap="round" stroke-miterlimit="1"/>
    <path d="M8.428,5.443c0.747,1.393,3.293,3.512,3.096,5.097" fill="#FFFFFF" stroke="#EE3D3B" stroke-width="1" stroke-linecap="round" stroke-miterlimit="1"/>
  </g>
</svg>
