<?xml version="1.0" encoding="UTF-8"?>
<!DOCTYPE svg PUBLIC "-//W3C//DTD SVG 1.1//EN" "http://www.w3.org/Graphics/SVG/1.1/DTD/svg11.dtd">
<svg version="1.1" id="Layer_1" xmlns="http://www.w3.org/2000/svg" xmlns:xlink="http://www.w3.org/1999/xlink" x="0px" y="0px" width="16px" height="16px" viewBox="0 0 16 16" enable-background="new 0 0 16 16" xml:space="preserve">
  <g id="icon">
    <path d="M4.359,15.495c-0.282,-0.034,-0.499,-0.241,-0.73,-0.459c-0.11,-0.104,-0.223,-0.212,-0.346,-0.302c-0.243,-0.172,-0.388,-0.667,-0.447,-1.088c-0.295,0.04,-0.584,0.048,-0.809,0.021c-0.176,-0.021,-0.31,-0.064,-0.398,-0.126c-0.127,-0.086,-0.271,-0.159,-0.41,-0.23c-0.332,-0.168,-0.646,-0.327,-0.708,-0.66c-0.064,-0.344,0.168,-0.787,0.752,-1.438c0.475,-0.594,0.965,-0.851,1.497,-0.786c0.048,0.006,0.095,0.025,0.178,0.013c0.083,-0.013,0.201,-0.061,0.254,-0.061c0.51,-0.006,1.14,-0.387,2.37,-1.977l0.017,-0.022l0.024,-0.013c0.044,-0.023,0.099,-0.03,0.17,-0.022c0.218,0.027,0.592,0.209,0.633,0.229l0.071,0.035l-0.002,0.888l0.789,0.315l-0.1,0.132c-1.333,1.757,-1.39,2.125,-1.348,2.363c0.006,0.035,0.007,0.067,0.004,0.097c0.578,0.587,0.553,1.231,-0.076,2.02C5.193,15.215,4.766,15.545,4.359,15.495zM9.494,8.8c-0.319,-0.039,-0.534,-0.246,-0.543,-0.255l-0.056,-0.055l0.306,-0.927c-0.129,-0.147,-0.396,-0.407,-0.594,-0.431c-0.016,-0.002,-0.032,-0.002,-0.046,0l-0.329,-0.048l0.333,-0.276c0.943,-0.78,1.595,-1.362,2.077,-1.897c0.042,-0.047,0.088,-0.091,0.136,-0.131c0.067,-0.429,0.074,-0.979,-0.104,-1.29c0,0,0,-0.001,-0.001,-0.001c-0.084,-0.001,-0.167,-0.003,-0.237,-0.011c-0.086,-0.01,-0.146,-0.03,-0.189,-0.062C9.685,3,9.31,2.014,9.669,1.363c0.333,-0.603,1.012,-0.936,1.729,-0.849c0.212,0.026,0.417,0.089,0.609,0.186c0.785,0.401,1.14,1.291,0.824,2.071c-0.021,0.052,-0.061,0.083,-0.237,0.171c0.166,0.397,0.468,0.846,0.995,0.953c0.036,0.008,0.075,0.014,0.12,0.019c0.114,0.014,0.243,0.019,0.379,0.025c0.149,0.006,0.304,0.013,0.454,0.032c0.255,0.031,0.617,0.107,0.814,0.401c0.175,0.262,0.191,0.643,0.046,1.165c-0.358,1.294,-1.33,1.307,-2.04,1.316c-0.207,0.003,-0.403,0.005,-0.55,0.04c-0.1,0.085,-0.219,0.16,-0.354,0.224c-0.663,0.315,-1.582,0.832,-2.739,1.664l-0.029,0.021l-0.036,0.002C9.601,8.808,9.547,8.807,9.494,8.8L9.494,8.8z" fill="#C8C6C4" stroke="#383838" stroke-width="1" stroke-linecap="round" stroke-miterlimit="1"/>
    <path d="M1.779,5.136l2.323,1.73M4.083,3.24l1.29,2.522M6.996,2.651l0.055,2.742" fill="#FFFFFF" stroke="#EE3D3B" stroke-width="1" stroke-miterlimit="1"/>
  </g>
</svg>
