<?xml version="1.0" encoding="UTF-8"?>
<!DOCTYPE svg PUBLIC "-//W3C//DTD SVG 1.1//EN" "http://www.w3.org/Graphics/SVG/1.1/DTD/svg11.dtd">
<svg version="1.1" id="Layer_1" xmlns="http://www.w3.org/2000/svg" xmlns:xlink="http://www.w3.org/1999/xlink" x="0px" y="0px" width="16px" height="16px" viewBox="0 0 16 16" enable-background="new 0 0 16 16" xml:space="preserve">
  <g id="icon">
    <path d="M3.367,6.502h8.346c0.604,-0.941,0.875,-2.067,0.762,-3.182c-0.109,-1.076,-0.577,-2.014,-1.25,-2.51c-0.27,-0.199,-0.595,-0.299,-0.966,-0.299c-0.554,0,-1.134,0.223,-1.695,0.438c-0.394,0.151,-0.8,0.307,-1.107,0.344c-0.309,-0.032,-0.716,-0.158,-1.111,-0.282c-0.573,-0.179,-1.166,-0.363,-1.72,-0.363c-0.409,0,-0.761,0.104,-1.045,0.308c-0.476,0.324,-0.838,0.968,-0.995,1.772c-0.246,1.261,0.042,2.664,0.769,3.752C3.359,6.485,3.363,6.494,3.367,6.502z" fill="#C8C6C4" stroke="#383838" stroke-width="1" stroke-linecap="round" stroke-miterlimit="1"/>
    <path d="M6.119,13.95l3.33,-2.395M5.59,12.328l4.844,-3.477M5.06,10.705l3.739,-2.694M6.649,15.495l2.119,-1.468M4.53,9.083l1.589,-1.081" fill="#FFFFFF" stroke="#228BCB" stroke-width="1" stroke-linecap="round" stroke-miterlimit="1"/>
  </g>
</svg>
