<?xml version="1.0" encoding="UTF-8"?>
<!DOCTYPE svg PUBLIC "-//W3C//DTD SVG 1.1//EN" "http://www.w3.org/Graphics/SVG/1.1/DTD/svg11.dtd">
<svg version="1.1" id="Layer_1" xmlns="http://www.w3.org/2000/svg" xmlns:xlink="http://www.w3.org/1999/xlink" x="0px" y="0px" width="16px" height="16px" viewBox="0 0 16 16" enable-background="new 0 0 16 16" xml:space="preserve">
  <g id="icon">
    <path d="M15.5,5.703c0,-4.121,-4.914,-5.906,-7.5,-2.133C5.414,-0.203,0.5,1.582,0.5,5.703C0.5,10.505,8,15.4,8,15.4S15.5,10.505,15.5,5.703z" fill="#FFFFFF" stroke="#EE3D3B" stroke-width="1" stroke-miterlimit="1"/>
    <path d="M5.668,8.753c-0.068,0.078,-0.142,0.149,-0.22,0.213c-0.078,0.064,-0.164,0.12,-0.257,0.166c-0.093,0.046,-0.196,0.083,-0.307,0.109c-0.112,0.026,-0.235,0.039,-0.37,0.039c-0.219,0,-0.421,-0.045,-0.605,-0.135c-0.185,-0.09,-0.345,-0.219,-0.48,-0.388s-0.24,-0.373,-0.315,-0.613c-0.075,-0.24,-0.113,-0.511,-0.113,-0.812c0,-0.29,0.038,-0.555,0.113,-0.794c0.075,-0.239,0.182,-0.445,0.319,-0.616s0.302,-0.304,0.494,-0.397c0.192,-0.093,0.403,-0.14,0.634,-0.14c0.107,0,0.208,0.01,0.303,0.029c0.095,0.019,0.184,0.048,0.269,0.086c0.085,0.038,0.166,0.085,0.243,0.14c0.078,0.055,0.154,0.119,0.228,0.192" fill="none" stroke="#EE3D3B" stroke-width="0.9" stroke-miterlimit="1"/>
    <path d="M6.983,9.775V5.363h0.867c0.419,0,0.74,0.085,0.965,0.255c0.224,0.17,0.336,0.417,0.336,0.764c0,0.149,-0.032,0.287,-0.095,0.414c-0.063,0.126,-0.152,0.256,-0.268,0.347c-0.115,0.091,-0.252,0.162,-0.412,0.214c-0.159,0.052,-0.335,0.077,-0.527,0.077h-0.867" fill="none" stroke="#EE3D3B" stroke-width="0.9" stroke-miterlimit="1"/>
    <path d="M10.632,7.265h0.769c0.187,0,0.356,-0.021,0.506,-0.064c0.15,-0.043,0.278,-0.103,0.385,-0.183c0.106,-0.079,0.188,-0.176,0.245,-0.29c0.057,-0.114,0.086,-0.264,0.086,-0.408c0,-0.297,-0.101,-0.613,-0.303,-0.751c-0.202,-0.138,-0.492,-0.207,-0.87,-0.207h-0.818V7.265zM10.632,9.775V7.154M11.5,7.374l1.376,2.228" fill="none" stroke="#EE3D3B" stroke-width="0.9" stroke-miterlimit="1"/>
  </g>
</svg>
