<?xml version="1.0" encoding="UTF-8"?>
<!DOCTYPE svg PUBLIC "-//W3C//DTD SVG 1.1//EN" "http://www.w3.org/Graphics/SVG/1.1/DTD/svg11.dtd">
<svg version="1.1" id="Layer_1" xmlns="http://www.w3.org/2000/svg" xmlns:xlink="http://www.w3.org/1999/xlink" x="0px" y="0px" width="16px" height="16px" viewBox="0 0 16 16" enable-background="new 0 0 16 16" xml:space="preserve">
  <g id="icon">
    <path d="M1.338,14.17L9.727,5.77c0,0,1.599,0.621,1.599,1.828c-2.319,0.734,-2.565,4.459,-5.626,6.178C2.64,15.495,1.338,14.17,1.338,14.17z" fill-rule="evenodd" fill="#FFFFFF"/>
    <path d="M2.378,16c-1.399,0,-2.092,-0.669,-2.166,-0.746c-0.284,-0.291,-0.282,-0.764,0.005,-1.053L9.131,5.22c0.141,-0.142,0.327,-0.22,0.526,-0.22c0.093,0,0.183,0.017,0.269,0.051c0.089,0.035,2.173,0.87,2.173,2.652c0,0.328,-0.209,0.615,-0.519,0.714c-0.937,0.298,-1.536,1.317,-2.231,2.496c-0.832,1.413,-1.775,3.013,-3.607,4.049C4.523,15.651,3.392,16,2.378,16zM1.065,14.708c0.216,0.135,0.642,0.329,1.313,0.329c0.847,0,1.822,-0.308,2.896,-0.915c1.609,-0.91,2.482,-2.392,3.253,-3.7c0.73,-1.239,1.421,-2.412,2.608,-2.868c-0.104,-0.85,-1.079,-1.385,-1.43,-1.551L1.065,14.708z" fill="#7A7A7A"/>
    <path d="M14.056,0.5c-1.719,1.651,-3.207,3.31,-4.424,4.933c-0.047,0.062,-0.04,0.149,0.014,0.205c0.193,0.202,0.37,0.39,0.544,0.575c0.524,0.558,0.976,1.039,1.656,1.657c0.025,0.023,0.058,0.036,0.091,0.036c0.023,0,0.046,-0.006,0.066,-0.018c1.174,-0.671,2.35,-1.451,3.498,-2.32V3.25V0.5H14.056z" fill="#FFFFFF" stroke="#383838" stroke-width="1" stroke-miterlimit="1"/>
    <path d="M11.809,4.453l0.599,-0.58l0.498,2.005l-0.612,0.563L11.809,4.453zM13.016,3.31l0.596,-0.578l0.605,2.204l-0.61,0.561L13.016,3.31z" fill="#78797A"/>
  </g>
</svg>
