<?xml version="1.0" encoding="UTF-8"?>
<!DOCTYPE svg PUBLIC "-//W3C//DTD SVG 1.1//EN" "http://www.w3.org/Graphics/SVG/1.1/DTD/svg11.dtd">
<svg version="1.1" id="Layer_1" xmlns="http://www.w3.org/2000/svg" xmlns:xlink="http://www.w3.org/1999/xlink" x="0px" y="0px" width="16px" height="16px" viewBox="0 0 16 16" enable-background="new 0 0 16 16" xml:space="preserve">
  <g id="icon">
    <path d="M10.875,10.981c-0.166,-0.222,-0.479,-0.585,-0.597,-0.744c-0.735,-0.992,-1.437,-2.447,-0.821,-3.557c0.301,-0.541,0.991,-1.184,2.645,-1.176c0.002,-0.001,0.005,-0.002,0.007,-0.003c2.282,0.048,2.504,0.706,2.767,1.18c0.618,1.11,-0.086,2.566,-0.82,3.557c-0.163,0.22,-1.887,2.522,-1.887,2.522c-0.001,-0.001,-0.001,-0.002,-0.002,-0.003c-0.808,1.073,-1.616,2.141,-1.986,2.631c-0.093,0.123,-0.284,0.098,-0.343,-0.043c-0.168,-0.403,-0.522,-1.12,-0.78,-1.755c-0.026,-0.065,-0.016,-0.139,0.026,-0.195c0.352,-0.462,0.687,-0.803,1.423,-1.78l0.004,0.003l1.979,-2.662c0.324,-0.496,1.099,-1.882,0.49,-2.18c-0.543,-0.265,-1.223,-0.187,-1.469,-0.103c-0.139,0.079,-0.244,0.145,-0.279,0.189c-0.193,0.247,-0.475,0.639,0.889,2.48M12.215,12.937c0.756,1.003,1.636,2.049,1.964,2.483c0.087,0.115,0.262,0.103,0.333,-0.022c0.205,-0.363,0.641,-1.037,0.979,-1.635c0.039,-0.07,0.033,-0.156,-0.016,-0.219c-0.39,-0.494,-1.172,-1.18,-1.998,-2.277" fill="#F3B8B8" stroke="#E42D2C" stroke-width="0.9" stroke-linecap="round" stroke-miterlimit="1"/>
    <path d="M8.19,5.975c0.383,-0.69,1.358,-1.836,3.623,-1.918l0.034,-0.013l0.293,0.006c0.124,0.003,0.244,0.007,0.36,0.013v-1.43L7.736,0.57L0.5,5.029v3.727l4.805,2.463l2.797,-1.94C7.728,8.289,7.569,7.093,8.19,5.975z" fill="#92CBEE"/>
    <polygon points="7.731,2.665 2.373,6.058 5.283,7.134 10.664,3.906" fill="#C8C6C4" stroke-linejoin="miter"/>
    <path d="M10.319,4.303c0.065,-0.021,0.133,-0.041,0.201,-0.059l0.338,-0.798L7.685,2.103L2.106,5.636l0.535,0.845l5.136,-3.253L10.319,4.303z" fill="#383838"/>
    <path d="M7.94,8.783l-2.673,1.855L1,8.451V5.308l6.777,-4.176L12,2.962v1.086l0.14,0.003c0.311,0.007,0.597,0.024,0.86,0.051V2.305L7.696,0.008L0,4.75v4.312l5.344,2.739l2.957,-2.052C8.161,9.45,8.034,9.125,7.94,8.783z" fill="#0964B0"/>
    <path d="M8.19,5.975c0.344,-0.619,1.166,-1.607,2.97,-1.861l1.574,-1.049c0.23,-0.153,0.292,-0.463,0.139,-0.693c-0.153,-0.23,-0.464,-0.292,-0.693,-0.139L5.264,6.84L0.742,4.586c-0.247,-0.123,-0.547,-0.023,-0.671,0.224c-0.123,0.247,-0.023,0.547,0.224,0.671L4.8,7.726V11.2c0,0.276,0.224,0.5,0.5,0.5s0.5,-0.224,0.5,-0.5V7.685l2.298,-1.531C8.126,6.095,8.157,6.035,8.19,5.975z" fill="#0964B0"/>
  </g>
</svg>
