<?xml version="1.0" encoding="UTF-8"?>
<!DOCTYPE svg PUBLIC "-//W3C//DTD SVG 1.1//EN" "http://www.w3.org/Graphics/SVG/1.1/DTD/svg11.dtd">
<svg version="1.1" id="Layer_1" xmlns="http://www.w3.org/2000/svg" xmlns:xlink="http://www.w3.org/1999/xlink" x="0px" y="0px" width="16px" height="16px" viewBox="0 0 16 16" enable-background="new 0 0 16 16" xml:space="preserve">
  <g id="icon">
    <path d="M15.13,3.233L12.749,0.85c-0.466,-0.466,-1.221,-0.466,-1.686,0L0.849,11.071c-0.466,0.466,-0.466,1.222,0,1.688l2.381,2.383c0.466,0.466,1.221,0.466,1.686,0L15.13,4.921C15.596,4.454,15.596,3.699,15.13,3.233z" fill="#F7DA8E" stroke="#E57428" stroke-width="1" stroke-linecap="round" stroke-miterlimit="1"/>
    <path d="M4.409,9.292l0.625,-0.625l2.279,2.279l-0.625,0.625L4.409,9.292zM8.669,5.031l0.625,-0.625l2.279,2.279l-0.624,0.625L8.669,5.031z" fill="#383838"/>
    <path d="M8.085,9.83c-0.14,0,-0.28,-0.053,-0.387,-0.16l-0.117,-0.117c-0.214,-0.214,-0.214,-0.561,0,-0.775c0.214,-0.214,0.561,-0.214,0.775,0l0.117,0.117c0.214,0.214,0.214,0.561,0,0.775C8.365,9.776,8.225,9.83,8.085,9.83zM9.252,8.662c-0.14,0,-0.28,-0.053,-0.387,-0.16l-0.117,-0.117c-0.214,-0.214,-0.214,-0.561,0,-0.775c0.214,-0.214,0.561,-0.214,0.775,0l0.117,0.117c0.214,0.214,0.214,0.561,0,0.775C9.533,8.609,9.392,8.662,9.252,8.662zM6.918,8.662c-0.14,0,-0.28,-0.053,-0.387,-0.16l-0.117,-0.117c-0.214,-0.214,-0.214,-0.561,0,-0.775c0.214,-0.214,0.561,-0.214,0.775,0l0.117,0.117c0.214,0.214,0.214,0.561,0,0.775C7.198,8.609,7.058,8.662,6.918,8.662zM8.085,7.495c-0.14,0,-0.28,-0.053,-0.387,-0.16l-0.117,-0.117c-0.214,-0.214,-0.214,-0.561,0,-0.775c0.214,-0.214,0.561,-0.214,0.775,0l0.117,0.117c0.214,0.214,0.214,0.561,0,0.775C8.365,7.442,8.225,7.495,8.085,7.495z" fill="#383838"/>
  </g>
</svg>
