<?xml version="1.0" encoding="UTF-8"?>
<!DOCTYPE svg PUBLIC "-//W3C//DTD SVG 1.1//EN" "http://www.w3.org/Graphics/SVG/1.1/DTD/svg11.dtd">
<svg version="1.1" id="Layer_1" xmlns="http://www.w3.org/2000/svg" xmlns:xlink="http://www.w3.org/1999/xlink" x="0px" y="0px" width="16px" height="16px" viewBox="0 0 16 16" enable-background="new 0 0 16 16" xml:space="preserve">
  <g id="icon">
    <polygon points="13.5,15.5 1.5,15.5 1.5,0.5 9.533,0.5 13.5,4.557" fill="#FFFFFF" stroke="#383838" stroke-width="1" stroke-miterlimit="1" stroke-linejoin="miter"/>
    <polyline points="13.5,4.5 9.5,4.5 9.5,0.5" fill="none" stroke="#383838" stroke-width="1" stroke-miterlimit="1" stroke-linejoin="miter"/>
    <path d="M3.492,4.679h1.226c0.285,0,0.542,-0.026,0.77,-0.077c0.228,-0.052,0.423,-0.125,0.585,-0.221c0.162,-0.096,0.286,-0.212,0.374,-0.35c0.087,-0.138,0.131,-0.319,0.131,-0.493c0,-0.36,-0.154,-0.619,-0.461,-0.786C5.81,2.584,5.368,2.5,4.793,2.5H3.492V4.679zM3.492,7.129V4.624M4.853,4.679L8.049,8.6M5.111,8.6l2.938,-3.284" fill="#FFFFFF" stroke="#228BCB" stroke-width="1" stroke-miterlimit="1"/>
    <line x1="3" y1="10.5" x2="12" y2="10.5" fill="none" stroke="#787979" stroke-width="1" stroke-miterlimit="1"/>
    <line x1="9" y1="8.5" x2="12" y2="8.5" fill="none" stroke="#787979" stroke-width="1" stroke-miterlimit="1"/>
    <line x1="9" y1="6.5" x2="12" y2="6.5" fill="none" stroke="#787979" stroke-width="1" stroke-miterlimit="1"/>
    <line x1="3" y1="12.5" x2="12" y2="12.5" fill="none" stroke="#787979" stroke-width="1" stroke-miterlimit="1"/>
  </g>
</svg>
