<?xml version="1.0" encoding="UTF-8"?>
<!DOCTYPE svg PUBLIC "-//W3C//DTD SVG 1.1//EN" "http://www.w3.org/Graphics/SVG/1.1/DTD/svg11.dtd">
<svg version="1.1" id="Layer_1" xmlns="http://www.w3.org/2000/svg" xmlns:xlink="http://www.w3.org/1999/xlink" x="0px" y="0px" width="24px" height="24px" viewBox="0 0 24 24" enable-background="new 0 0 24 24" xml:space="preserve">
  <g id="icon">
    <rect x="2.75" y="3.25" width="18" height="22" fill="#FFFFFF" opacity="0.5" transform="matrix(-1.83697e-16 1 -1 -1.83697e-16 26 2.5)"/>
    <path d="M0,24V4.5h24v19.5H0zM2,22h20V6H2V22z" fill="#7D7C7B"/>
    <rect width="24" height="6" fill="#6486C4"/>
    <path d="M17,20V7.5h1v12.5H17zM11.5,20V7.5h1v12.5H11.5zM6,20V7.5h1v12.5H6z" fill="#B7B7B8"/>
    <path d="M10,19v-2h10v2H10zM4,15v-2h10v2H4z" fill="#6486C4"/>
    <polygon points="18.5,10.5 5.5,10.5 4,12.15 4,9 20,9 20,12.15" fill="#7B7B7B" stroke-linejoin="miter"/>
  </g>
</svg>
