<?xml version="1.0" encoding="UTF-8"?>
<!DOCTYPE svg PUBLIC "-//W3C//DTD SVG 1.1//EN" "http://www.w3.org/Graphics/SVG/1.1/DTD/svg11.dtd">
<svg version="1.1" id="Layer_1" xmlns="http://www.w3.org/2000/svg" xmlns:xlink="http://www.w3.org/1999/xlink" x="0px" y="0px" width="24px" height="24px" viewBox="0 0 24 24" enable-background="new 0 0 24 24" xml:space="preserve">
  <g id="icon">
    <polygon points="4.7,22.05 4.7,19.3607 3.0983,20.9624 2.0376,19.9017 3.6393,18.3 0.95,18.3 0.95,16.8 3.6393,16.8 2.0376,15.1983 3.0983,14.1376 4.7,15.7393 4.7,13.05 6.2,13.05 6.2,15.7393 7.8017,14.1376 8.8624,15.1983 7.2607,16.8 9.95,16.8 9.95,18.3 7.2607,18.3 8.8624,19.9017 7.8017,20.9624 6.2,19.3607 6.2,22.05" fill="#EEAD56" stroke-linejoin="miter"/>
    <path d="M13.1,22.2c-0.772,0,-1.4,-0.628,-1.4,-1.4v-5.7c0,-0.772,0.628,-1.4,1.4,-1.4h8.7c0.772,0,1.4,0.628,1.4,1.4v5.7c0,0.772,-0.628,1.4,-1.4,1.4H13.1zM2.1,10.2c-0.772,0,-1.4,-0.628,-1.4,-1.4V3.1c0,-0.772,0.628,-1.4,1.4,-1.4h9.7c0.772,0,1.4,0.628,1.4,1.4v5.7c0,0.772,-0.628,1.4,-1.4,1.4H2.1z" fill="#FFFFFF" opacity="0.5"/>
    <path d="M11,20.85V15.15c0,-1.1874,0.9626,-2.15,2.15,-2.15h8.7c1.1874,0,2.15,0.9626,2.15,2.15v5.7c0,1.1874,-0.9626,2.15,-2.15,2.15h-8.7C11.9626,23,11,22.0374,11,20.85zM13,15.15v5.7c0,0.0828,0.0672,0.15,0.15,0.15h8.7c0.0828,0,0.15,-0.0672,0.15,-0.15v-5.7c0,-0.0828,-0.0671,-0.15,-0.15,-0.15H13.15C13.0671,15,13,15.0671,13,15.15zM0,8.85V3.15C0,1.9626,0.9626,1,2.15,1h9.7c1.1874,0,2.15,0.9626,2.15,2.15v5.7c0,1.1874,-0.9626,2.15,-2.15,2.15h-9.7C0.9626,11,0,10.0374,0,8.85zM2,3.15V8.85c0,0.0828,0.0671,0.15,0.15,0.15h9.7c0.0828,0,0.15,-0.0672,0.15,-0.15v-5.7c0,-0.0828,-0.0671,-0.15,-0.15,-0.15H2.15C2.0671,3,2,3.0671,2,3.15z" fill="#6486C4"/>
  </g>
</svg>
