<?xml version="1.0" encoding="UTF-8"?>
<!DOCTYPE svg PUBLIC "-//W3C//DTD SVG 1.1//EN" "http://www.w3.org/Graphics/SVG/1.1/DTD/svg11.dtd">
<svg version="1.1" id="Layer_1" xmlns="http://www.w3.org/2000/svg" xmlns:xlink="http://www.w3.org/1999/xlink" x="0px" y="0px" width="24px" height="24px" viewBox="0 0 24 24" enable-background="new 0 0 24 24" xml:space="preserve">
  <g id="icon">
    <path d="M3.4249,22.9055L5.3423,21H2.925C1.3122,21,0,19.6878,0,18.075V15.95h1.5v2.125c0,0.7857,0.6393,1.425,1.425,1.425H5.42l-1.845,-1.8331l1.0572,-1.0641l3.6319,3.6083l-3.7819,3.7583L3.4249,22.9055z" fill="#54B14C"/>
    <polygon points="11,22 11,16 16,16 16,11.75 23.25,11.75 23.25,22" fill="#FFFFFF" stroke-linejoin="miter" opacity="0.5"/>
    <polygon points="9,24 9,16 11,16 11,22 22,22 22,13 16,13 16,11 24,11 24,24" fill="#7D7C7B" stroke-linejoin="miter"/>
    <polygon points="14,22 14,19 11,19 11,18 14,18 14,16 15,16 15,22" fill="#CC525E" stroke-linejoin="miter"/>
    <rect x="9.5" y="17.5" width="6" height="3" fill="#CC525E" opacity="0.3" transform="matrix(-1.83697e-16 1 -1 -1.83697e-16 31.5 6.5)"/>
    <path d="M16,13V8h8v5H16z" fill="#6484C3"/>
    <rect x="0.75" y="0.75" width="13.5" height="13.5" fill="#FFFFFF" opacity="0.5" transform="matrix(6.12323e-17 -1 1 6.12323e-17 0 15)"/>
    <path d="M0,15V0h15v15H0zM2,13h11V2H2V13z" fill="#EEAD56"/>
    <path d="M7.5187,12c-1.9172,0,-4.2363,-0.4454,-4.4621,-1.7006l-0.037,-0.2057H3V4.8669C3.0137,3.0901,6.7354,3,7.4813,3c1.5239,0,4.1837,0.3543,4.4869,1.6823l0.0308,0.1348L12,4.8809c0,0.0008,-0.0025,0.0304,-0.0025,0.0304S12,4.944,12,4.95v5.2262l-0.0128,0.0874C11.7985,11.5453,9.4621,12,7.5187,12zM4.5,9.9336l0.1307,0.0709c0.3389,0.184,1.3284,0.4955,2.888,0.4955c1.4121,0,2.4148,-0.2542,2.8444,-0.472l0.137,-0.0694v-3.594l-0.3136,0.0826c-1.0796,0.2842,-2.3148,0.3063,-2.6677,0.3063c-0.3594,0,-1.6167,-0.0228,-2.7036,-0.3158L4.5,6.3527V9.9336zM7.4813,4.5c-0.5866,0,-1.1419,0.0428,-1.6504,0.1271l-0.0013,0.4931c0.5165,0.0883,1.0847,0.1332,1.689,0.1332c0.5722,0,1.1131,-0.0401,1.6076,-0.1192l0.0057,-0.4928C8.6218,4.5476,8.0664,4.5,7.4813,4.5z" fill="#EEAD56"/>
  </g>
</svg>
