<?xml version="1.0" encoding="UTF-8"?>
<!DOCTYPE svg PUBLIC "-//W3C//DTD SVG 1.1//EN" "http://www.w3.org/Graphics/SVG/1.1/DTD/svg11.dtd">
<svg version="1.1" id="Layer_1" xmlns="http://www.w3.org/2000/svg" xmlns:xlink="http://www.w3.org/1999/xlink" x="0px" y="0px" width="24px" height="24px" viewBox="0 0 24 24" enable-background="new 0 0 24 24" xml:space="preserve">
  <g id="icon">
    <path d="M1.4771,23.1111c-0.1757,0,-0.3406,-0.0701,-0.4525,-0.1925c-0.0989,-0.1081,-0.1465,-0.2454,-0.1339,-0.3865l0.046,-0.5137c0.1981,-2.2118,2.1114,-5.383,6.8519,-7.0414c0.3225,-0.1165,0.5856,-0.2882,0.7846,-0.5119c-1.5307,-0.1778,-2.5466,-0.4781,-3.1818,-0.938c-0.1685,-0.122,-0.2647,-0.3117,-0.2641,-0.5204c0.0006,-0.2079,0.102,-0.4042,0.2712,-0.5251c0.3088,-0.2207,0.4807,-0.4232,0.6812,-0.8024c0.4657,-0.8808,0.49,-1.8233,0.4523,-2.6291c-0.0067,-0.1428,-0.0137,-0.2856,-0.0207,-0.4284c-0.0379,-0.7726,-0.0771,-1.5716,-0.061,-2.3605c0.0172,-0.839,0.1856,-1.6545,0.5004,-2.424c0.5585,-1.3648,1.5547,-2.0862,2.8809,-2.0862c0.0388,0,0.0781,0.0006,0.1176,0.0019h0c0.0581,0,0.1677,-0.0437,0.2703,-0.1271c0.5328,-0.4331,1.1232,-0.6765,1.7549,-0.7233c0.1198,-0.0089,0.2425,-0.0134,0.3646,-0.0134c1.6104,0,3.7674,0.8231,4.5467,3.1431c0.4365,1.2995,0.4909,2.6165,0.5092,3.8541c0.0108,0.7271,0.0433,1.6829,0.1998,2.6286c0.116,0.7004,0.3261,1.4797,1.0047,1.9497c0.1701,0.1177,0.2724,0.3128,0.2737,0.5218c0.0013,0.2112,-0.0999,0.4099,-0.2708,0.5314c-0.7528,0.5353,-2.1037,0.8056,-3.1672,0.9403c0.2133,0.2437,0.4612,0.4144,0.7539,0.5197c4.7547,1.6568,6.675,4.8283,6.8739,7.0406l0.0462,0.5136c0.0126,0.141,-0.0348,0.278,-0.1336,0.3861c-0.1121,0.1226,-0.2776,0.193,-0.454,0.193H1.4771z" fill="#FFFFFF" opacity="0.5"/>
    <path d="M1.4331,24c-0.4125,0,-0.8047,-0.1703,-1.0761,-0.4673c-0.2571,-0.2811,-0.3853,-0.6571,-0.3518,-1.0317l0.0461,-0.5156c0.1918,-2.1404,1.7769,-5.1136,5.6507,-7.0392l0.2898,-0.1442l-0.2977,-0.1271c-0.3122,-0.1332,-0.5819,-0.2833,-0.8244,-0.4589c-0.3856,-0.2793,-0.615,-0.7307,-0.6136,-1.2077c0.0015,-0.479,0.2352,-0.9314,0.625,-1.2101c0.2008,-0.1435,0.289,-0.2491,0.429,-0.514c0.2966,-0.561,0.4035,-1.2211,0.3574,-2.2071c-0.0065,-0.1402,-0.0134,-0.2804,-0.0203,-0.4207c-0.0389,-0.7941,-0.0792,-1.6152,-0.0624,-2.4364c0.0193,-0.9461,0.2095,-1.8666,0.5651,-2.7359C6.8241,1.8364,8.0888,0.907,9.7109,0.8671l0.0483,-0.0012l0.0385,-0.0293c0.6409,-0.4881,1.3522,-0.7642,2.1143,-0.8207c0.1431,-0.0106,0.2893,-0.016,0.4345,-0.016c1.8937,0,4.4333,0.977,5.3583,3.7306c0.4769,1.4199,0.5357,2.8169,0.5551,4.126c0.0104,0.7009,0.0414,1.6201,0.1895,2.5144c0.1259,0.7603,0.3164,1.1668,0.6574,1.403c0.3963,0.2743,0.6347,0.7272,0.6376,1.2114c0.003,0.4864,-0.2311,0.9444,-0.6262,1.2253c-0.2327,0.1655,-0.5182,0.3179,-0.8488,0.4532l-0.3067,0.1256l0.2972,0.1467c3.8998,1.9246,5.4955,4.903,5.6884,7.0487l0.0464,0.5158c0.0337,0.3744,-0.0944,0.7503,-0.3514,1.0314c-0.2717,0.2973,-0.6645,0.4678,-1.0777,0.4678H1.4331zM9.8123,3.0463c-0.5247,0,-1.1858,0.1436,-1.644,1.2636c-0.2536,0.6198,-0.3892,1.2774,-0.4031,1.9547c-0.0152,0.7451,0.0212,1.4877,0.0597,2.2739l0.0211,0.437c0.0436,0.9317,0.014,2.1519,-0.6079,3.3279c-0.0647,0.1223,-0.1282,0.232,-0.1941,0.3354l-0.1094,0.1717l0.1965,0.053c0.494,0.1332,1.1282,0.2393,1.8851,0.3155c0.3939,0.0397,0.7354,0.2744,0.9136,0.6281c0.1776,0.3527,0.1631,0.7655,-0.0388,1.1044c-0.3709,0.6218,-0.932,1.0719,-1.6676,1.3377l-0.0103,0.0036c-4.4664,1.5625,-5.606,4.2828,-5.8886,5.3799l-0.0481,0.1866h19.4467l-0.0483,-0.1868c-0.2837,-1.097,-1.4277,-3.8171,-5.9109,-5.3792l-0.0102,-0.0036c-0.6358,-0.2288,-1.1643,-0.644,-1.5708,-1.2341c-0.2341,-0.3402,-0.2732,-0.7848,-0.1019,-1.1604c0.1714,-0.3756,0.5327,-0.6377,0.9429,-0.6838c0.7172,-0.0807,1.3365,-0.1928,1.8405,-0.3331l0.1941,-0.0541l-0.1081,-0.17c-0.4076,-0.641,-0.5627,-1.3451,-0.6524,-1.8869c-0.1718,-1.037,-0.2071,-2.0616,-0.2185,-2.8383c-0.0168,-1.1372,-0.0648,-2.3414,-0.4419,-3.464c-0.717,-2.1349,-2.8915,-2.2431,-3.3202,-2.2431c-0.0835,0,-0.1656,0.003,-0.2441,0.0088c-0.3561,0.0264,-0.6982,0.1711,-1.0168,0.4302c-0.1965,0.1597,-0.6023,0.4276,-1.1126,0.4276c-0.0151,0,-0.0303,-0.0003,-0.0456,-0.0007C9.8702,3.0468,9.8415,3.0463,9.8123,3.0463z" fill="#916FB1"/>
  </g>
</svg>
