<?xml version="1.0" encoding="UTF-8"?>
<!DOCTYPE svg PUBLIC "-//W3C//DTD SVG 1.1//EN" "http://www.w3.org/Graphics/SVG/1.1/DTD/svg11.dtd">
<svg version="1.1" id="Layer_1" xmlns="http://www.w3.org/2000/svg" xmlns:xlink="http://www.w3.org/1999/xlink" x="0px" y="0px" width="24px" height="24px" viewBox="0 0 24 24" enable-background="new 0 0 24 24" xml:space="preserve">
  <g id="icon">
    <path d="M3.25,19.2C1.8439,19.2,0.7,18.0561,0.7,16.65v-9.4C0.7,5.8439,1.8439,4.7,3.25,4.7h17.4c1.4061,0,2.55,1.1439,2.55,2.55v9.4c0,1.4061,-1.1439,2.55,-2.55,2.55H3.25z" fill="#FFFFFF" opacity="0.5"/>
    <path d="M0.7,16.65v-9.4C0.7,5.8417,1.8417,4.7,3.25,4.7H12v14.5H3.25C1.8417,19.2,0.7,18.0583,0.7,16.65z" fill="#6486C4" opacity="0.5"/>
    <path d="M0,16.7V7.3c0,-1.8225,1.4775,-3.3,3.3,-3.3h17.4c1.8225,0,3.3,1.4775,3.3,3.3v9.4c0,1.8226,-1.4775,3.3,-3.3,3.3H3.3C1.4775,20,0,18.5225,0,16.7zM2,7.3v9.4c0,0.718,0.582,1.3,1.3,1.3h17.4c0.718,0,1.3,-0.5821,1.3,-1.3V7.3c0,-0.718,-0.582,-1.3,-1.3,-1.3H3.3C2.582,6,2,6.582,2,7.3z" fill="#6486C4"/>
  </g>
</svg>
