<?xml version="1.0" encoding="UTF-8"?>
<!DOCTYPE svg PUBLIC "-//W3C//DTD SVG 1.1//EN" "http://www.w3.org/Graphics/SVG/1.1/DTD/svg11.dtd">
<svg version="1.1" id="Layer_1" xmlns="http://www.w3.org/2000/svg" xmlns:xlink="http://www.w3.org/1999/xlink" x="0px" y="0px" width="24px" height="24px" viewBox="0 0 24 24" enable-background="new 0 0 24 24" xml:space="preserve">
  <g id="icon">
    <path d="M23.4719,14.9996L17.1442,8.672c-0.6032,-0.6031,-1.5849,-0.6031,-2.1885,0.0001l-6.3275,6.3275c-0.6032,0.6034,-0.6032,1.5851,0.0001,2.1885l6.3275,6.3275c0.3017,0.3016,0.6979,0.4523,1.0942,0.4523c0.3962,0,0.7926,-0.1508,1.0943,-0.4524l6.3275,-6.3275C24.0751,16.5848,24.0751,15.603,23.4719,14.9996zM16.0616,21.0064c-0.4807,0,-0.8718,-0.3911,-0.8718,-0.8718s0.3911,-0.8718,0.8718,-0.8718s0.8718,0.3911,0.8718,0.8718S16.5423,21.0064,16.0616,21.0064zM18.7898,15.6336c-0.1402,0.3121,-0.3212,0.5914,-0.5379,0.83c-0.1965,0.2164,-0.4136,0.4109,-0.6455,0.5785c-0.1801,0.1302,-0.3471,0.2533,-0.5004,0.3693c-0.0925,0.07,-0.1721,0.1388,-0.2375,0.2053v0.536h-1.6786l0.0003,-0.6661c0.0096,-0.3469,0.1421,-0.6727,0.3833,-0.9423c0.145,-0.1618,0.3197,-0.3202,0.5197,-0.4715c0.162,-0.1227,0.339,-0.2531,0.5301,-0.3912c0.1379,-0.0997,0.2677,-0.2161,0.3859,-0.3462c0.0978,-0.1077,0.1818,-0.2389,0.2497,-0.3899c0.0552,-0.1228,0.0832,-0.2832,0.0832,-0.4765c0,-0.1446,-0.0252,-0.263,-0.077,-0.362c-0.0618,-0.1181,-0.1407,-0.2148,-0.2413,-0.2959c-0.1737,-0.1398,-0.3923,-0.2298,-0.6678,-0.2748c-0.0375,-0.0061,-0.0783,-0.0101,-0.1204,-0.0119c-0.1972,-0.0081,-0.3729,0.0068,-0.5217,0.0444c-0.1283,0.0325,-0.2461,0.0759,-0.35,0.1289c-0.1105,0.0565,-0.2106,0.1198,-0.2973,0.1882c-0.0852,0.0672,-0.3374,0.3056,-0.4354,0.4058l-1.2001,-1.1737c0.0975,-0.0996,0.4177,-0.4094,0.5958,-0.55c0.1728,-0.1362,0.3657,-0.2591,0.5737,-0.3653c0.2156,-0.11,0.4511,-0.1978,0.7005,-0.2611c0.3065,-0.0777,0.6446,-0.1098,1.0049,-0.0944c0.1087,0.0046,0.2161,0.0154,0.3196,0.0322c0.5626,0.0919,1.0507,0.3019,1.4513,0.6245c0.2799,0.2257,0.5069,0.5028,0.6751,0.8242c0.1782,0.3401,0.2687,0.724,0.2687,1.1408C19.0205,14.9011,18.9429,15.2929,18.7898,15.6336z" fill="#EEAC55"/>
    <path d="M16.8684,18.1527h-1.6786l0.0003,-0.6661c0.0096,-0.3469,0.1421,-0.6727,0.3833,-0.9423c0.145,-0.1618,0.3197,-0.3202,0.5197,-0.4715c0.162,-0.1227,0.339,-0.2531,0.5301,-0.3912c0.1379,-0.0997,0.2677,-0.2161,0.3859,-0.3462c0.0978,-0.1077,0.1818,-0.2389,0.2497,-0.3899c0.0552,-0.1228,0.0832,-0.2832,0.0832,-0.4765c0,-0.1446,-0.0252,-0.263,-0.077,-0.362c-0.0618,-0.1181,-0.1407,-0.2148,-0.2413,-0.2959c-0.1737,-0.1398,-0.3923,-0.2298,-0.6678,-0.2748c-0.0375,-0.0061,-0.0783,-0.0101,-0.1204,-0.0119c-0.1972,-0.0081,-0.3729,0.0068,-0.5217,0.0444c-0.1283,0.0325,-0.2461,0.0759,-0.35,0.1289c-0.1105,0.0565,-0.2106,0.1198,-0.2973,0.1882c-0.0852,0.0672,-0.3374,0.3056,-0.4354,0.4058l-1.2001,-1.1737c0.0975,-0.0996,0.4177,-0.4094,0.5958,-0.55c0.1728,-0.1362,0.3657,-0.2591,0.5737,-0.3653c0.2156,-0.11,0.4511,-0.1978,0.7005,-0.2611c0.3065,-0.0777,0.6446,-0.1098,1.0049,-0.0944c0.1087,0.0046,0.2161,0.0154,0.3196,0.0322c0.5626,0.0919,1.0507,0.3019,1.4513,0.6245c0.2799,0.2257,0.5069,0.5028,0.6751,0.8242c0.1782,0.3401,0.2687,0.724,0.2687,1.1408c0,0.4322,-0.0776,0.8241,-0.2307,1.1647c-0.1402,0.3121,-0.3212,0.5914,-0.5379,0.83c-0.1965,0.2164,-0.4136,0.4109,-0.6455,0.5785c-0.1802,0.1302,-0.3471,0.2533,-0.5004,0.3692c-0.0925,0.07,-0.1721,0.1388,-0.2375,0.2053V18.1527zM16.9335,20.1345c0,-0.4807,-0.3911,-0.8718,-0.8718,-0.8718s-0.8718,0.3911,-0.8718,0.8718s0.3911,0.8718,0.8718,0.8718S16.9335,20.6153,16.9335,20.1345z" fill="#48484A"/>
    <path d="M20.95,0.0064h-17.9C1.3682,0.0064,0,1.3746,0,3.0564v8.9c0,1.6818,1.3682,3.05,3.05,3.05h3.8283c0.1018,-0.2675,0.2443,-0.5223,0.4233,-0.758c0.0307,-0.0404,0.0629,-0.08,0.0954,-0.1194c0.0545,-0.0646,0.1094,-0.1291,0.1703,-0.1899l6.3276,-6.3277c0.5758,-0.5752,1.341,-0.8917,2.1552,-0.8917c0.8144,0,1.5796,0.3167,2.1546,0.8917L22.5,11.9064l0,0l0.5063,0.5062l0.1582,0.1582l0,0l0.5877,0.5877c0.159,-0.3692,0.2479,-0.7754,0.2479,-1.2022v-8.9C24,1.3746,22.6318,0.0064,20.95,0.0064z" fill="#6486C4"/>
  </g>
</svg>
