<?xml version="1.0" encoding="UTF-8"?>
<!DOCTYPE svg PUBLIC "-//W3C//DTD SVG 1.1//EN" "http://www.w3.org/Graphics/SVG/1.1/DTD/svg11.dtd">
<svg version="1.1" id="Layer_1" xmlns="http://www.w3.org/2000/svg" xmlns:xlink="http://www.w3.org/1999/xlink" x="0px" y="0px" width="24px" height="24px" viewBox="0 0 24 24" enable-background="new 0 0 24 24" xml:space="preserve">
  <g id="icon">
    <polygon points="2,5 2,1 0,1 0,0 5,0 5,1 3,1 3,5" fill="#7D7C7B" stroke-linejoin="miter"/>
    <polygon points="11.5,5 11.5,1 9.5,1 9.5,0 14.5,0 14.5,1 12.5,1 12.5,5" fill="#7D7C7B" stroke-linejoin="miter"/>
    <polygon points="21,5 21,1 19,1 19,0 24,0 24,1 22,1 22,5" fill="#7D7C7B" stroke-linejoin="miter"/>
    <path d="M7.5832,15.5155l5.295,-5.295c0.4563,-0.4565,1.0634,-0.708,1.7093,-0.708s1.253,0.2515,1.7095,0.7082l5.295,5.2949c0.163,0.163,0.2994,0.3455,0.408,0.5418V8H2v9h4.8856C6.937,16.4391,7.18,15.9186,7.5832,15.5155z" fill="#FFFFFF" opacity="0.5"/>
    <path d="M0,6v12h6.9845c-0.0443,-0.1589,-0.0736,-0.3195,-0.091,-0.48c-0.0035,-0.029,-0.0066,-0.058,-0.0091,-0.0872c-0.0011,-0.0141,-0.0022,-0.0281,-0.0031,-0.0422c-0.0037,-0.0549,-0.0062,-0.11,-0.0062,-0.1656c0,-0.0025,0.0002,-0.0049,0.0002,-0.0074c0,-0.0017,-0.0002,-0.0034,-0.0002,-0.0051c0,-0.2321,0.0305,-0.4718,0.0907,-1.2125H2V8h20v7.9277c-0.0255,0,-0.0485,0.0045,-0.0705,0.0109c0.2409,0.3817,0.3705,0.8239,0.3705,1.2864c0,0.2677,-0.0439,0.5286,-0.127,0.775H24V6H0z" fill="#7D7C7B"/>
    <path d="M12.8782,10.2205c0.4563,-0.4565,1.0634,-0.708,1.7093,-0.708s1.253,0.2515,1.7095,0.7082L21,14.9236V9H3v6h5.0986L12.8782,10.2205z" fill="#B7B7B8" opacity="0.5"/>
    <path d="M20.8849,16.2228l-5.2951,-5.2951c-0.2676,-0.2677,-0.6236,-0.4152,-1.0023,-0.4152s-0.7346,0.1474,-1.0022,0.4151l-5.2951,5.295c-0.2677,0.2677,-0.4152,0.6237,-0.4152,1.0023c0,0.3787,0.1474,0.7346,0.4151,1.0022l5.295,5.295c0.2677,0.2678,0.6237,0.4152,1.0023,0.4152s0.7346,-0.1474,1.0022,-0.4151l5.295,-5.2951c0.2678,-0.2677,0.4152,-0.6236,0.4152,-1.0023C21.3,16.8464,21.1526,16.4904,20.8849,16.2228z" fill="#916FB1"/>
  </g>
</svg>
