<?xml version="1.0" encoding="UTF-8"?>
<!DOCTYPE svg PUBLIC "-//W3C//DTD SVG 1.1//EN" "http://www.w3.org/Graphics/SVG/1.1/DTD/svg11.dtd">
<svg version="1.1" id="Layer_1" xmlns="http://www.w3.org/2000/svg" xmlns:xlink="http://www.w3.org/1999/xlink" x="0px" y="0px" width="24px" height="24px" viewBox="0 0 24 24" enable-background="new 0 0 24 24" xml:space="preserve">
  <g id="icon">
    <path d="M12,23.2653C5.7883,23.2653,0.7347,18.2117,0.7347,12S5.7883,0.7347,12,0.7347S23.2653,5.7883,23.2653,12S18.2117,23.2653,12,23.2653z" fill="#FFFFFF" opacity="0.5"/>
    <path d="M19.616,20.3706c-1.3532,-1.3072,-2.7749,-2.7553,-4.1497,-4.1558c-1.2818,-1.3058,-2.4926,-2.5391,-3.6,-3.6121l-0.0745,-0.0722V0.8816h0.2449c6.1104,0,11.0816,5.1444,11.0816,11.4678c0,3.0127,-1.1202,5.8585,-3.1541,8.0131l-0.17,0.1801L19.616,20.3706z" fill="#CC525E" opacity="0.5"/>
    <path d="M12,24C5.3832,24,0,18.6168,0,12S5.3832,0,12,0s12,5.3832,12,12S18.6168,24,12,24zM12,1.9592C6.4635,1.9592,1.9592,6.4635,1.9592,12S6.4635,22.0408,12,22.0408S22.0408,17.5365,22.0408,12S17.5365,1.9592,12,1.9592z" fill="#7D7C7B"/>
    <path d="M11.3045,13.2171c-0.1832,-0.1846,-0.2841,-0.4296,-0.2841,-0.6899V2.9388h1.9592v9.1851l5.31,5.3537l-1.391,1.3797L11.3045,13.2171z" fill="#6486C4"/>
  </g>
</svg>
