<?xml version="1.0" encoding="UTF-8"?>
<!DOCTYPE svg PUBLIC "-//W3C//DTD SVG 1.1//EN" "http://www.w3.org/Graphics/SVG/1.1/DTD/svg11.dtd">
<svg version="1.1" id="Layer_1" xmlns="http://www.w3.org/2000/svg" xmlns:xlink="http://www.w3.org/1999/xlink" x="0px" y="0px" width="24px" height="24px" viewBox="0 0 24 24" enable-background="new 0 0 24 24" xml:space="preserve">
  <g id="icon">
    <rect x="4.7" y="2.8" width="14.5" height="22.5" fill="#FFFFFF" opacity="0.5" transform="matrix(-1.83697e-16 1 -1 -1.83697e-16 26 2.1)"/>
    <path d="M0,22V6h24v16H0zM22,20V8H2v12H22z" fill="#7D7C7B"/>
    <path d="M3,9v10h18V9H3zM16,16.525c0,0.8146,-0.6604,1.475,-1.475,1.475H5.475C4.6604,18,4,17.3396,4,16.525v-5.05c0,-0.8146,0.6604,-1.475,1.475,-1.475h9.05c0.8146,0,1.475,0.6604,1.475,1.475V16.525z" fill="#B7B7B8" opacity="0.5"/>
    <path d="M4,16.525v-5.05c0,-0.8146,0.6604,-1.475,1.475,-1.475h9.05c0.8146,0,1.475,0.6604,1.475,1.475v5.0499c0,0.8146,-0.6604,1.475,-1.475,1.475H5.475C4.6604,18,4,17.3396,4,16.525z" fill="#6485C3"/>
    <polygon points="2,5 2,1 0,1 0,0 5,0 5,1 3,1 3,5" fill="#7D7C7B" stroke-linejoin="miter"/>
    <polygon points="11.5,5 11.5,1 9.5,1 9.5,0 14.5,0 14.5,1 12.5,1 12.5,5" fill="#7D7C7B" stroke-linejoin="miter"/>
    <polygon points="21,5 21,1 19,1 19,0 24,0 24,1 22,1 22,5" fill="#7D7C7B" stroke-linejoin="miter"/>
  </g>
</svg>
