<?xml version="1.0" encoding="UTF-8"?>
<!DOCTYPE svg PUBLIC "-//W3C//DTD SVG 1.1//EN" "http://www.w3.org/Graphics/SVG/1.1/DTD/svg11.dtd">
<svg version="1.1" id="Layer_1" xmlns="http://www.w3.org/2000/svg" xmlns:xlink="http://www.w3.org/1999/xlink" x="0px" y="0px" width="16px" height="16px" viewBox="0 0 16 16" enable-background="new 0 0 16 16" xml:space="preserve">
  <g id="icon">
    <rect x="0.5" y="7.5" width="15" height="8" fill="#FFFFFF" stroke="#383838" stroke-width="1" stroke-miterlimit="1"/>
    <path d="M12,13h-2v-1h2V13zM9,13H7v-1h2V13zM6,13H4v-1h2V13zM13.5,11h-2v-1h2V11zM10.5,11H8.5v-1h2V11zM7.5,11H5.5v-1h2V11zM4.5,11H2.5v-1h2V11z" fill="#78797A"/>
    <path d="M3.5,5.7V0M0.448,2.739L3.5,5.8l2.963,-3.061" fill="none" stroke="#228BCB" stroke-width="1" stroke-miterlimit="1"/>
    <path d="M12.5,5.7V0M9.548,2.739L12.5,5.8l2.963,-3.061" fill="none" stroke="#228BCB" stroke-width="1" stroke-miterlimit="1"/>
  </g>
</svg>
