<?xml version="1.0" encoding="UTF-8"?>
<!DOCTYPE svg PUBLIC "-//W3C//DTD SVG 1.1//EN" "http://www.w3.org/Graphics/SVG/1.1/DTD/svg11.dtd">
<svg version="1.1" id="Layer_1" xmlns="http://www.w3.org/2000/svg" xmlns:xlink="http://www.w3.org/1999/xlink" x="0px" y="0px" width="16px" height="16px" viewBox="0 0 16 16" enable-background="new 0 0 16 16" xml:space="preserve">
  <g id="icon">
    <polygon points="15.5,13.5 15.5,4.557 11.533,0.5 4.5,0.5 4.5,13.5" fill="#FFFFFF" stroke-linejoin="miter"/>
    <path d="M10,4H6V3h4V4zM7,12h6v-1H7V12zM8,10h6V9H8V10zM8,8h6V7H8V8zM10,5H7v1h3V5z" fill="#78797A" opacity="0.8"/>
    <path d="M11.744,0H4v6v7v1h12v-1V6V4.353L11.744,0zM12,1.693L14.256,4H12V1.693zM15,13L15,13H5l0,0V6V1h6v4h4v1V13z" fill="#383838"/>
    <polygon points="3,15 3,2.5 0.5,2.5 0.5,15.5 11.5,15.5 11.5,15" fill="#FFFFFF" stroke-linejoin="miter"/>
    <polygon points="3,15 1,15 1,8 1,3 3,3 3,2 0,2 0,8 0,15 0,16 12,16 12,15 11,15" fill="#383838" stroke-linejoin="miter"/>
  </g>
</svg>
