<?xml version="1.0" encoding="UTF-8"?>
<!DOCTYPE svg PUBLIC "-//W3C//DTD SVG 1.1//EN" "http://www.w3.org/Graphics/SVG/1.1/DTD/svg11.dtd">
<svg version="1.1" id="Layer_1" xmlns="http://www.w3.org/2000/svg" xmlns:xlink="http://www.w3.org/1999/xlink" x="0px" y="0px" width="16px" height="16px" viewBox="0 0 16 16" enable-background="new 0 0 16 16" xml:space="preserve">
  <g id="icon">
    <polygon points="11.6,0.5 3.5,0.5 3.5,15.5 15.5,15.5 15.5,4.4" fill="#FFFFFF" stroke-linejoin="miter"/>
    <path d="M11.803,0H3v8.5h1V1h7v4h4v10h-4.5v1h5.5V4.189L11.803,0zM12,1.588L14.373,4H12V1.588z" fill="#383838"/>
    <path d="M4.558,14.837c-0.103,0.1,-0.213,0.192,-0.331,0.275c-0.118,0.083,-0.247,0.154,-0.387,0.213c-0.14,0.059,-0.294,0.106,-0.462,0.14c-0.168,0.034,-0.353,0.051,-0.556,0.051c-0.329,0,-0.632,-0.058,-0.91,-0.173c-0.278,-0.115,-0.518,-0.282,-0.721,-0.499s-0.361,-0.48,-0.474,-0.789c-0.113,-0.309,-0.17,-0.657,-0.17,-1.044c0,-0.373,0.057,-0.714,0.17,-1.022c0.113,-0.308,0.273,-0.572,0.479,-0.793c0.206,-0.22,0.454,-0.391,0.742,-0.511c0.288,-0.12,0.606,-0.18,0.953,-0.18c0.161,0,0.313,0.012,0.455,0.037c0.142,0.024,0.277,0.061,0.404,0.11c0.127,0.049,0.249,0.109,0.366,0.18c0.117,0.071,0.231,0.153,0.343,0.247" fill="none" stroke="#228BCB" stroke-width="1" stroke-miterlimit="1"/>
    <path d="M8.708,11.032c-0.024,-0.022,-0.156,-0.151,-0.195,-0.185c-0.039,-0.034,-0.087,-0.071,-0.145,-0.112c-0.057,-0.04,-0.126,-0.077,-0.207,-0.112c-0.08,-0.034,-0.173,-0.063,-0.278,-0.085c-0.105,-0.022,-0.226,-0.034,-0.362,-0.034c-0.21,0,-0.396,0.031,-0.558,0.094c-0.162,0.063,-0.298,0.146,-0.408,0.25c-0.11,0.104,-0.193,0.224,-0.251,0.361c-0.057,0.137,-0.086,0.28,-0.086,0.428c0,0.191,0.038,0.351,0.115,0.478c0.077,0.127,0.177,0.235,0.302,0.322c0.124,0.087,0.267,0.16,0.428,0.218c0.161,0.058,0.324,0.113,0.49,0.166c0.166,0.053,0.329,0.109,0.49,0.168c0.161,0.059,0.304,0.134,0.428,0.225c0.124,0.091,0.225,0.203,0.302,0.336c0.077,0.133,0.115,0.3,0.115,0.501c0,0.203,-0.035,0.393,-0.106,0.568c-0.071,0.176,-0.173,0.329,-0.307,0.46c-0.134,0.131,-0.299,0.234,-0.494,0.31c-0.195,0.076,-0.417,0.113,-0.666,0.113c-0.173,0,-0.328,-0.015,-0.465,-0.044c-0.137,-0.029,-0.262,-0.072,-0.375,-0.127c-0.113,-0.055,-0.218,-0.123,-0.313,-0.202c-0.095,-0.079,-0.253,-0.236,-0.341,-0.338" fill="none" stroke="#228BCB" stroke-width="1" stroke-miterlimit="1"/>
  </g>
</svg>
