<?xml version="1.0" encoding="UTF-8"?>
<!DOCTYPE svg PUBLIC "-//W3C//DTD SVG 1.1//EN" "http://www.w3.org/Graphics/SVG/1.1/DTD/svg11.dtd">
<svg version="1.1" id="Layer_1" xmlns="http://www.w3.org/2000/svg" xmlns:xlink="http://www.w3.org/1999/xlink" x="0px" y="0px" width="16px" height="16px" viewBox="0 0 16 16" enable-background="new 0 0 16 16" xml:space="preserve">
  <g id="icon">
    <g>
      <path d="M10.5,3.003l-8,1.05v1.493C3.261,5.196,4.107,5,5,5c3.314,0,6,2.686,6,6c0,1.258,-0.388,2.424,-1.049,3.389l0.519,0.152c0.015,0.003,0.03,-0.008,0.03,-0.024v0.034l3,-0.85l0.012,-9.286L10.5,3V3.003z" fill="#FFFFFF"/>
      <polygon points="15.2,2.475 12.6,0.975 10.5,3 13.409,4.279" fill="#FFFFFF" stroke-linejoin="miter"/>
      <polygon points="0.9,2 2.496,4.05 10.5,3 8.75,0.6" fill="#FFFFFF" stroke-linejoin="miter"/>
    </g>
    <path d="M12.524,0.354l-1.958,1.888L8.97,0.053l-8.973,1.6L2,4.228v1.577c0.316,-0.183,0.651,-0.338,1,-0.462v-0.851l7,-0.919v4.111c0.631,0.95,1,2.09,1,3.316V3.787l2.012,0.945l-0.011,8.59l-2,0.567V11c0,1.449,-0.514,2.779,-1.369,3.816l0.699,0.205l0.033,0.009c0.038,0.008,0.076,0.012,0.113,0.012c0.053,0,0.106,-0.008,0.156,-0.024l0.004,0.014l3.363,-0.953l0.013,-9.696l2,-2.016L12.524,0.354zM2.716,3.52l-0.913,-1.173l6.727,-1.2l1.071,1.469L2.716,3.52zM13.244,3.736l-1.874,-0.88l1.306,-1.26l1.712,0.987L13.244,3.736z" fill="#228BCB"/>
    <path d="M9.5,11c0,2.485,-2.015,4.5,-4.5,4.5S0.5,13.485,0.5,11s2.015,-4.5,4.5,-4.5S9.5,8.515,9.5,11zM5,10.1c-0.497,0,-0.9,0.403,-0.9,0.9s0.403,0.9,0.9,0.9s0.9,-0.403,0.9,-0.9S5.497,10.1,5,10.1z" fill="#FFFFFF" stroke="#787979" stroke-width="1" stroke-miterlimit="1"/>
    <path d="M2.57,12.147c0.266,0.562,0.721,1.017,1.283,1.283M7.43,9.853c-0.266,-0.562,-0.721,-1.016,-1.282,-1.282" fill="none" stroke="#787979" stroke-width="1" stroke-linecap="square" stroke-miterlimit="1"/>
  </g>
</svg>
