<?xml version="1.0" standalone="no"?>
<!DOCTYPE svg PUBLIC "-//W3C//DTD SVG 1.1//EN" "http://www.w3.org/Graphics/SVG/1.1/DTD/svg11.dtd" >
<!--
2022-1-20: Created with FontForge (http://fontforge.org)
-->
<svg xmlns="http://www.w3.org/2000/svg" xmlns:xlink="http://www.w3.org/1999/xlink" version="1.1">
<metadata>
Created by FontForge 20201107 at Thu Jan 20 15:12:52 2022
 By Marc
Copyright (c) 2022, Marc
</metadata>
<defs>
<font id="Icons-Regular" horiz-adv-x="240" >
  <font-face 
    font-family="Icons"
    font-weight="400"
    font-stretch="normal"
    units-per-em="240"
    panose-1="2 0 5 9 0 0 0 0 0 0"
    ascent="180"
    descent="-60"
    bbox="-0.248047 -60.2422 240.653 180.095"
    underline-thickness="50"
    underline-position="-100"
    unicode-range="U+E000-E0FE"
  />
    <missing-glyph />
    <glyph glyph-name="uniE000" unicode="&#xe000;" 
d="M135.091 96.9365c0 3.25781 -0.387695 6.28125 -1.11719 9.04199c-1.7666 0.915039 -4.24121 1.57324 -7.7207 1.57324c-11.4775 0 -12.6855 -5.63281 -24.7676 -5.63281c-7.00879 0 -11.9658 1.24316 -14.4375 4.14453
c-0.744141 -2.78418 -1.13867 -5.83691 -1.13867 -9.12695c0 -17.4795 11.5781 -39.6553 24.5908 -39.6553s24.5908 22.1768 24.5908 39.6553zM84.7949 63.3994c-6.03516 9.63574 -9.63867 22.1738 -9.63867 33.5371c0 11.5352 3.59277 21.2676 10.3896 28.1445
c6.32129 6.39648 15.1826 9.91895 24.9541 9.91895s18.6328 -3.52246 24.9541 -9.91797c6.79688 -6.87695 10.3896 -16.6094 10.3896 -28.1436c0 -11.3652 -3.60254 -23.9023 -9.6377 -33.5381c-6.95117 -11.0996 -16.0811 -17.2119 -25.7061 -17.2119
c-9.62598 -0.00195312 -18.7549 6.11133 -25.7051 17.2109zM182.991 -6.71777c0.0654297 -0.838867 -0.216797 -1.64551 -0.796875 -2.27148c-0.59668 -0.641602 -1.44824 -1.01074 -2.34082 -1.01074h-62.1406h-14.3848h-62.1816
c-0.891602 0 -1.74414 0.369141 -2.34082 1.01074c-0.580078 0.625 -0.862305 1.43262 -0.796875 2.27148l0.302734 3.83984c1.08203 13.7031 7.85547 38.6572 41.0586 51.834l5.75488 1.76172l3.92285 -9.66211c2.62012 -10.1416 8.86523 -24.8369 8.92773 -24.9834
c6.98535 -16.3926 11.2559 -19.9688 12.5713 -20.7695c1.31641 0.831055 5.5957 4.52832 12.625 21.1816c0.0566406 0.134766 5.86621 13.9775 8.66309 24.0605l4.04102 10.1729l5.71094 -1.74609c33.2471 -13.1934 40.0195 -38.1475 41.1016 -51.8496zM105.028 33.0527
c-2.15723 2.25391 -3.45898 2.98828 -3.45898 5.20996c0.282227 4.80566 1.05078 3.875 8.91406 3.875s8.75586 0.931641 8.47168 -3.86426c0.0732422 -2.17578 -0.213867 -3.0918 -3.07324 -5.22852c-0.0644531 -3.54785 1.00977 -11.3467 2.15918 -18.5703
c-1.51855 -2.99902 -3.16406 -5.96777 -5.00391 -8.86816c-0.316406 -0.520508 -0.608398 -1.00879 -0.881836 -1.4668c-0.680664 -1.13672 -1.4248 -2.38184 -2.01074 -3.13965c-0.584961 0.757812 -1.32812 2.00195 -2.00879 3.13867
c-0.273438 0.458008 -0.56543 0.947266 -0.902344 1.49902c-1.65137 2.60156 -3.09668 5.25098 -4.41113 7.91992c1.01172 7.43066 2.05273 15.7383 2.20605 19.4951zM30 -40h160v200h-160v-200zM210 -60h-200v240h200v-20h20v-50h-20v-10h20v-50h-20v-10h20v-50
l-20 3.55271e-15v-50z" />
    <glyph glyph-name="uniE001" unicode="&#xe001;" 
d="M109.905 55.2803c12.1729 0 22.041 9.85059 22.041 22.002c0 12.1504 -9.86816 22.002 -22.041 22.002s-22.041 -9.85156 -22.041 -22.002c0 -12.1514 9.86816 -22.002 22.041 -22.002zM109.905 131.243c29.8545 0 54.0566 -24.0771 54.0566 -53.7773
c0 -11.3936 -3.56055 -21.959 -9.63672 -30.6562c-9.76367 -13.9736 -44.4199 -58.8096 -44.4199 -58.8096s-34.4297 44.708 -44.2129 58.5156c-6.20215 8.75195 -9.84473 19.4287 -9.84473 30.9502c0 29.7002 24.2021 53.7773 54.0576 53.7773zM30 -40h160v200h-160v-200z
M210 -60h-200v240h200v-20h20v-50h-20v-10h20v-50h-20v-10h20v-50l-20 3.55271e-15v-50z" />
    <glyph glyph-name="uniE002" unicode="&#xe002;" 
d="M223.495 180.064c21.502 -27.6748 22.0234 -61.29 1.39551 -89.9248l-12.1934 8.75195c16.7734 23.2832 16.3838 49.5205 -1.07129 71.9854zM186.373 155.787l11.6152 9.50488c15.6416 -19.0469 15.874 -42.1592 0.62207 -61.8252l-11.876 9.17578
c10.8242 13.958 10.6924 29.6846 -0.361328 43.1445zM120.13 164.873c12.4219 0 22.5293 -10.0879 22.5293 -22.4873c0 -12.3984 -10.1074 -22.4863 -22.5293 -22.4863c-12.4229 0 -22.5293 10.0879 -22.5293 22.4863c0 12.3994 10.1074 22.4873 22.5293 22.4873z
M16.5088 180.064l11.8682 -9.1875c-17.4551 -22.4639 -17.8447 -48.7021 -1.07031 -71.9844l-12.1934 -8.75293c-20.6279 28.6338 -20.1064 62.25 1.39551 89.9248zM53.6299 155.787c-11.0537 -13.46 -11.1846 -29.1855 -0.361328 -43.1445l-11.876 -9.17578
c-15.252 19.667 -15.0186 42.7793 0.62207 61.8252zM193.057 4.41016c0.0439453 4.15527 0.0839844 8.08008 -2.60547 10.6426c-1.74805 1.66504 -4.38086 2.47559 -8.04785 2.47559c-10.165 0 -28.3574 -8.8125 -28.3574 -17.4824
c0 -7.46191 7.60059 -12.0967 19.834 -12.0967c10.5693 0 19.166 6.63379 19.166 14.7891c0 0.566406 0.0107422 1.125 0.0107422 1.67188zM65.9258 -12.0508c12.2344 0 19.834 4.63477 19.833 12.0967c0 8.66992 -18.1914 17.4824 -28.3555 17.4824
c-3.66699 0 -6.30078 -0.810547 -8.04785 -2.47559c-2.69043 -2.5625 -2.64941 -6.4873 -2.60645 -10.6436c0.00488281 -0.545898 0.0107422 -1.10547 0.0107422 -1.6709c0 -8.15527 8.59863 -14.7891 19.166 -14.7891zM224.496 45.0166
c1.23242 -3.5625 0.801758 -8.37207 -8.25098 -11.0488c-1.82129 -0.538086 -3.66797 -1.03711 -5.41602 -1.49707c0.453125 -0.875 4.30371 -6.94043 6.23438 -12.2842c3.53711 -9.79004 2.75488 -26.3545 -0.268555 -37.293
c-2.3877 -8.63867 -4.35645 -10.9053 -13.1641 -11.5869c-4.56055 -0.352539 -37.3438 -3.30664 -82.7803 -3.30664h-1.64355c-45.4346 0 -78.2188 2.9541 -82.7803 3.30664c-8.80664 0.681641 -11.1338 2.87891 -13.1641 11.5869
c-1.90234 8.16309 -3.64551 20.874 -0.267578 37.293c1.13379 5.51465 5.78125 11.4092 6.2334 12.2842c-1.74707 0.458984 -3.5957 0.958984 -5.41504 1.49707c-9.05762 2.67676 -9.48828 7.48633 -8.25586 11.0488c1.3291 3.8418 4.74023 10.4023 9.12305 10.4023
c1.58301 0 3.2998 -0.297852 5.09961 -0.884766c19.4736 -6.34961 40.3096 -6.87109 60.4609 -7.37598c6.68848 -0.167969 20.9473 -0.249023 29.21 -0.249023h1.15137c8.2627 0 22.5215 0.0810547 29.2109 0.249023c20.1504 0.504883 40.9873 1.02539 60.4609 7.37598
c1.7998 0.586914 3.51562 0.884766 5.09863 0.884766c4.38184 0 7.79297 -6.56055 9.12305 -10.4023zM90.5283 56.9219c-15.8955 0.466797 -32.2334 0.955078 -47.4873 4.91504c9.67578 39.8838 7.91211 48.1631 76.8623 48.1631
c68.8838 0 67.7627 -8.26367 77.5166 -48.0508c-15.3711 -4.06055 -31.8594 -4.55664 -47.8984 -5.02734c-6.73535 -0.198242 -20.9658 -0.287109 -28.9199 -0.287109h-1.15137c-7.9541 0 -22.1846 0.0888672 -28.9219 0.287109zM39.9893 -35.4814
c9.33105 -0.787109 18.4502 -1.39746 27.1729 -1.86621v-13.4199c0 -5.09863 -4.58984 -9.23145 -10.252 -9.23145h-14.4463c-5.66211 0 -10.252 4.13281 -10.252 9.23145v16.4141c1.92285 -0.484375 4.07812 -0.827148 6.49707 -1.02051zM208.654 -34.3818v-16.3867
c0 -5.09863 -4.58984 -9.23145 -10.252 -9.23145h-14.4463c-5.66211 0 -10.252 4.13281 -10.252 9.23145v13.4062c8.79785 0.472656 18 1.08496 27.418 1.87988l1.2793 0.107422c2.33301 0.186523 4.38867 0.530273 6.25293 0.993164z" />
    <glyph glyph-name="uniE003" unicode="&#xe003;" 
d="M148.347 -3.23047l6.18164 -2.95898c0.319336 -0.22168 0.300781 -0.53418 -0.0546875 -0.741211c-9.71875 -5.66602 -23.8242 -9.23633 -39.5352 -9.23633c-15.6826 0 -29.7646 3.55566 -39.4805 9.20312c-0.356445 0.207031 -0.375977 0.519531 -0.0556641 0.742188
l6.16504 2.96484c0.443359 0.307617 1.32324 0.306641 1.7627 -0.00292969c6.44727 -4.54297 19.9492 -6.61133 31.6084 -6.61133c11.6816 0 25.2012 2.0791 31.6455 6.63672c0.439453 0.310547 1.31836 0.3125 1.7627 0.00390625zM166.948 -14.791l9.13086 -6.32227
c0.34082 -0.235352 0.292969 -0.571289 -0.117188 -0.775391c-15.874 -7.90234 -37.3623 -13.6338 -61.0234 -13.6338c-23.6162 0 -45.0674 5.71289 -60.9326 13.5879c-0.411133 0.203125 -0.459961 0.538086 -0.119141 0.775391l9.11523 6.3291
c0.407227 0.283203 1.19238 0.306641 1.66797 0.0556641c12.8252 -6.75781 30.6104 -10.9434 50.2686 -10.9434c19.6943 0 37.5117 4.20117 50.3418 10.9814c0.475586 0.250977 1.25977 0.228516 1.66797 -0.0546875zM204.339 -40.1475
c0.349609 -0.241211 0.289062 -0.585938 -0.141602 -0.787109c-21.7773 -10.2168 -57.6826 -19.0654 -89.2588 -19.0654c-31.5166 0 -67.3721 8.82422 -89.1348 19.0049c-0.431641 0.202148 -0.493164 0.545898 -0.143555 0.788086l15.9238 10.5059
c0.392578 0.273438 1.14355 0.307617 1.625 0.0761719c18.8916 -9.04883 44.0732 -14.5742 71.7275 -14.5742c27.71 0 52.9346 5.5459 71.8389 14.626c0.480469 0.231445 1.23047 0.198242 1.625 -0.0751953zM190.137 68.1982
c0.0439453 4.40039 0.0859375 8.55566 -2.68066 11.2686c-1.79785 1.76367 -4.50684 2.62012 -8.28027 2.62012c-10.457 0 -29.1738 -9.33008 -29.1738 -18.5098c0 -7.90039 7.81934 -12.8086 20.4053 -12.8086c10.873 0 19.7178 7.02539 19.7178 15.6592
c0 0.600586 0.0117188 1.19141 0.0117188 1.77051zM59.3418 50.7686c12.5859 0 20.4053 4.9082 20.4043 12.8096c0 9.17969 -18.7158 18.5098 -29.1729 18.5098c-3.77344 0 -6.48242 -0.856445 -8.28027 -2.62012c-2.76758 -2.71387 -2.72559 -6.87012 -2.68066 -11.2695
c0.00585938 -0.579102 0.0117188 -1.16992 0.0117188 -1.77051c0 -8.63379 8.84473 -15.6592 19.7178 -15.6592zM222.481 111.195c1.26855 -3.77344 0.824219 -8.86523 -8.49121 -11.6992c-1.87305 -0.570312 -3.77441 -1.09766 -5.57227 -1.58496
c0.46582 -0.926758 4.42773 -7.35059 6.41406 -13.0068c3.63965 -10.3672 2.83398 -27.9062 -0.276367 -39.4873c-2.45605 -9.14746 -4.48145 -11.5469 -13.543 -12.2676c-4.69141 -0.374023 -38.4209 -3.50195 -85.166 -3.50195h-1.69043
c-46.7451 0 -80.4746 3.12793 -85.166 3.50195c-9.06055 0.720703 -11.4541 3.04688 -13.543 12.2676c-1.95801 8.64258 -3.75098 22.1025 -0.276367 39.4873c1.16699 5.83789 5.94727 12.0811 6.41406 13.0068c-1.79883 0.486328 -3.69922 1.01465 -5.57227 1.58496
c-9.31641 2.83398 -9.76074 7.92578 -8.49121 11.6992c1.36719 4.06641 4.87695 11.0137 9.38574 11.0137c1.62891 0 3.39355 -0.31543 5.24609 -0.936523c20.0332 -6.72363 41.4707 -7.27539 62.2031 -7.81055c6.88184 -0.176758 21.5508 -0.262695 30.0518 -0.262695
h1.18555c8.50098 0 23.1699 0.0859375 30.0527 0.262695c20.7314 0.53418 42.1689 1.08691 62.2021 7.81055c1.85254 0.621094 3.61719 0.936523 5.24609 0.936523c4.50879 0 8.01855 -6.94727 9.38672 -11.0137zM84.6533 124.976
c-16.3545 0.494141 -33.1631 1.01172 -48.8555 5.20508c9.9541 42.2305 8.13867 49.8193 79.0762 49.8193c70.8701 0 69.7158 -7.57422 79.752 -49.7012c-15.8145 -4.29883 -32.7773 -4.82422 -49.2803 -5.32324c-6.92969 -0.209961 -21.5693 -0.303711 -29.7529 -0.303711
h-1.18457c-8.18359 0 -22.8232 0.09375 -29.7549 0.303711zM33.7061 22.7842c9.59961 -0.833984 18.9805 -1.47949 27.958 -1.97754v-11.0322c0 -5.39844 -4.72266 -9.77441 -10.5479 -9.77441h-14.8633c-5.82617 0 -10.5479 4.37598 -10.5479 9.77441v14.2021
c1.97852 -0.512695 4.19531 -0.875977 6.68359 -1.0791zM204.086 23.9492v-14.1738c0 -5.39844 -4.72168 -9.77441 -10.5479 -9.77441h-14.8623c-5.8252 0 -10.5479 4.37598 -10.5479 9.77441v11.0186c9.05176 0.499023 18.5195 1.14941 28.209 1.99121l1.31641 0.113281
c2.39941 0.196289 4.51562 0.55957 6.43262 1.05078z" />
    <glyph glyph-name="uniE004" unicode="&#xe004;" 
d="M53.7285 120.525c11.8975 -1.87012 26.3711 -2.20215 38.3672 -2.52441c6.41113 -0.171875 19.9551 -0.249023 27.5244 -0.249023h1.0957c7.57031 0 21.1143 0.0771484 27.5234 0.249023c12.124 0.325195 26.7305 0.660156 38.7715 2.59082
c-0.665039 2.24805 -2.32031 10.5195 -2.89355 12.5234c-3.87012 13.5312 -6.70508 19.1406 -12.1709 22.1309c-8.61621 4.71387 -30.0332 5.36426 -51.8945 5.36426c-21.6924 0 -42.9395 -0.638672 -51.4453 -5.26367
c-5.10547 -2.77539 -7.85547 -7.54004 -11.7969 -21.5566c-0.609375 -2.16406 -2.32715 -10.6992 -3.08105 -13.2646zM38.876 45.2646c0.470703 -0.0996094 1.28223 -0.232422 2.58008 -0.339844l1.30762 -0.114258c30.4023 -2.65723 58.4492 -3.21582 76.623 -3.21582
h1.56543c18.1738 0 46.2197 0.558594 76.6211 3.21582l1.2998 0.112305c1.24023 0.103516 1.99805 0.227539 2.43164 0.319336c0.243164 0.580078 0.678711 1.79199 1.29004 4.15723c2.7334 10.5703 2.9375 27.1963 0.453125 34.5439
c-1.22266 3.61621 -3.66211 8.04199 -4.7041 9.93164c-0.390625 0.708984 -0.658203 1.21191 -0.772461 1.4502l-2.91895 5.21973l11.2559 3.16602c1.33691 0.375977 3.0957 0.87793 4.8418 1.42969c0.374023 0.119141 0.692383 0.233398 0.958984 0.34082
c-0.294922 0.727539 -2.70508 9.57324 -3.00488 10.1201c-5.09668 -1.73828 -10.3848 -3.125 -16.1377 -4.23047c0 0 -2.875 -0.527344 -3.97949 -0.707031c-13.334 -2.17969 -26.7793 -2.54102 -39.793 -2.88965c-6.6123 -0.177734 -20.3975 -0.257812 -28.0781 -0.257812
h-1.0957c-7.67969 0 -21.4658 0.0800781 -28.0674 0.257812c-13.4453 0.359375 -27.333 0.731445 -41.0967 3.10645c-0.695312 0.146484 -3.5293 0.655273 -3.5293 0.655273c-5.43555 1.08105 -10.4463 2.41211 -15.2939 4.06641
c-0.299805 -0.546875 -2.70996 -8.36914 -3.00488 -9.09766c0.266602 -0.106445 0.583984 -0.220703 0.957031 -0.338867c1.75098 -0.553711 3.50781 -1.05469 4.84375 -1.42969l11.2568 -3.16602l-2.91992 -6.24707
c-0.327148 -0.678711 -0.68457 -1.23535 -1.17773 -2.00586c-0.853516 -1.33496 -3.43945 -5.38086 -3.96777 -8.12109c-2.28125 -11.8496 -2.21289 -25.0537 0.208008 -36.1523c0.458984 -2.11035 0.829102 -3.22656 1.04785 -3.7793zM68.6904 54.7451
c-10.9697 0 -19.8936 7.25781 -19.8936 16.1797c0 0.553711 -0.00488281 1.10059 -0.0107422 1.63281c-0.0419922 4.24512 -0.0849609 8.62891 2.95605 11.6289c1.96289 1.93652 4.93652 2.91895 8.83789 2.91895c9.67773 0 28.6387 -8.52637 28.6387 -18.833
c0.000976562 -9.97363 -10.6035 -13.5273 -20.5283 -13.5273zM171.412 54.7451c-9.92383 0 -20.5293 3.55371 -20.5293 13.5283c0 10.3057 18.9609 18.833 28.6396 18.833c3.90039 0 6.875 -0.982422 8.83789 -2.91992c3.04297 -3.00098 2.99902 -7.38672 2.95605 -11.6289
c-0.00683594 -0.602539 -0.0117188 -1.11328 -0.0117188 -1.63184c0 -8.92188 -8.92383 -16.1807 -19.8926 -16.1807zM57.085 0.439453h-13.7461c-9.71387 0 -17.6162 7.52246 -17.6162 16.7705v13.2158c-4.02855 3.38336 -6.01056 8.3517 -7.36621 14.5654
c-2.93945 13.4756 -3.04102 29.5723 -0.302734 43.8018c0.333008 1.72949 0.886719 3.56445 1.64941 5.47363c-9.42285 5.37109 -10.6094 14.1934 -8.43164 20.9141c1.31934 4.0752 6.53027 17.3711 18.1709 17.3711c2.29102 0 4.66309 -0.369141 7.06641 -1.09668
c0.810547 2.73535 1.52539 5.26562 2.15039 7.48828c4.15039 14.7607 7.42969 26.4199 20.2656 33.3994c9.66406 5.25391 23.167 7.29492 51.1523 7.65723h19.9072c28.2764 -0.364258 41.9199 -2.43652 51.6885 -7.7832c12.9023 -7.05859 16.2861 -18.8877 20.5713 -33.8643
c0.608398 -2.13086 1.26172 -4.39941 1.97266 -6.78223c2.26855 0.651367 4.50781 0.981445 6.67676 0.981445c11.6406 0 16.8516 -13.2949 18.1729 -17.3711c2.20605 -6.80957 0.962891 -15.7119 -8.69531 -21.0625c0.625 -1.44629 1.15527 -2.81055 1.58203 -4.07227
c4.14941 -12.2764 3.11328 -33.1543 -0.0556641 -45.4102c-1.63631 -6.32369 -3.66909 -11.1195 -7.51758 -14.347v-13.0788c-0.000976562 -9.24707 -7.90332 -16.7705 -17.6162 -16.7705h-13.7461c-9.71387 0 -17.6152 7.52246 -17.6152 16.7705v5.9738
c-17.49 -0.818676 -32.9168 -1.03923 -44.4502 -1.03923h-1.56641c-11.5847 0 -27.0975 0.222515 -44.6846 1.05018v-5.98475c0 -9.24707 -7.90234 -16.7705 -17.6162 -16.7705zM154.969 -1.35645l6.50098 -3.03125
c0.336914 -0.227539 0.317383 -0.546875 -0.0556641 -0.759766c-10.2217 -5.80273 -25.0586 -9.45898 -41.585 -9.45898c-16.4941 0 -31.3057 3.64355 -41.5264 9.42676c-0.374023 0.211914 -0.394531 0.53125 -0.0576172 0.759766l6.4834 3.03613
c0.467773 0.31543 1.39258 0.313477 1.85449 -0.00292969c6.78125 -4.65332 20.9824 -6.77148 33.2461 -6.77148c12.2871 0 26.5078 2.12891 33.2861 6.79688c0.460938 0.318359 1.38574 0.320312 1.85352 0.00488281zM174.535 -13.1973l9.60254 -6.47559
c0.359375 -0.242188 0.308594 -0.585938 -0.123047 -0.794922c-16.6963 -8.09277 -39.2979 -13.9629 -64.1865 -13.9629c-24.8408 0 -47.4033 5.84961 -64.0908 13.916c-0.432617 0.208984 -0.484375 0.552734 -0.125 0.794922l9.58789 6.48145
c0.428711 0.289062 1.25391 0.314453 1.75488 0.0576172c13.4893 -6.9209 32.1963 -11.208 52.873 -11.208c20.7168 0 39.457 4.30273 52.9521 11.248c0.500977 0.257812 1.32617 0.232422 1.75488 -0.0566406zM213.863 -39.167
c0.367188 -0.248047 0.303711 -0.599609 -0.149414 -0.807617c-22.9053 -10.4639 -60.6719 -19.5264 -93.8857 -19.5264c-33.1494 0 -70.8652 9.03711 -93.7539 19.4639c-0.454102 0.207031 -0.518555 0.55957 -0.151367 0.808594l16.75 10.7598
c0.414062 0.279297 1.20312 0.313477 1.70898 0.078125c19.8721 -9.26855 46.3584 -14.9268 75.4463 -14.9268c29.1445 0 55.6777 5.68066 75.5615 14.9805c0.506836 0.237305 1.29492 0.202148 1.70996 -0.0771484zM58.9805 24.073
c-5.71832 0.371178 -11.5816 0.809778 -17.5361 1.32686v-8.18992c0 -0.683594 0.761719 -1.41699 1.89453 -1.41699h13.7461c1.13281 0 1.89551 0.732422 1.89551 1.41699v6.86306zM198.659 25.3799c-5.95528 -0.515392 -11.8186 -0.952341 -17.5361 -1.32193v-6.84801
c0 -0.683594 0.761719 -1.41699 1.89453 -1.41699h13.7461c1.13379 0 1.89551 0.732422 1.89551 1.41699v8.16994z" />
    <glyph glyph-name="uniE005" unicode="&#xe005;" 
d="M120.13 149.881c-4.14062 0 -7.50977 -3.36328 -7.50977 -7.49609s3.36914 -7.49609 7.50977 -7.49609c4.1416 0 7.50977 3.36328 7.50977 7.49609s-3.36816 7.49609 -7.50977 7.49609zM198.61 103.467l-11.876 9.17578
c10.8242 13.958 10.6924 29.6846 -0.361328 43.1445l11.6152 9.50391c15.6416 -19.0469 15.874 -42.1582 0.62207 -61.8242zM224.891 90.1406l-12.1934 8.75195c16.7734 23.2832 16.3838 49.5205 -1.07129 71.9854l11.8691 9.1875
c21.502 -27.6758 22.0234 -61.291 1.39551 -89.9248zM41.3936 103.467c-15.252 19.667 -15.0186 42.7793 0.62207 61.8252l11.6152 -9.50391c-11.0537 -13.46 -11.1846 -29.1855 -0.361328 -43.1445zM15.1133 90.1396c-20.6279 28.6338 -20.1064 62.25 1.39551 89.9248
l11.8691 -9.1875c-17.4551 -22.4648 -17.8447 -48.7021 -1.07031 -71.9844zM56.791 56.2725c11.3652 -1.82617 25.1934 -2.15039 36.6533 -2.46484c6.125 -0.166992 19.0625 -0.242188 26.2949 -0.242188h1.04688c7.23145 0 20.1699 0.0742188 26.293 0.242188
c11.583 0.317383 25.5371 0.645508 37.041 2.53027c-0.634766 2.19531 -2.2168 10.2715 -2.76465 12.2285c-3.69727 13.2109 -6.40625 18.6875 -11.6279 21.6074c-8.23047 4.60352 -28.6904 5.2373 -49.5752 5.2373c-20.7246 0 -41.0215 -0.623047 -49.1484 -5.13867
c-4.87695 -2.71094 -7.50391 -7.3623 -11.2695 -21.0479c-0.582031 -2.11328 -2.22461 -10.4463 -2.94336 -12.9521zM42.6006 -17.209c0.450195 -0.0966797 1.22559 -0.226562 2.46484 -0.332031l1.25 -0.111328c29.0439 -2.59473 55.8379 -3.13965 73.1992 -3.13965
h1.49512c17.3623 0 44.1553 0.543945 73.1982 3.13965l1.24219 0.109375c1.18457 0.0996094 1.90918 0.220703 2.32422 0.311523c0.231445 0.566406 0.647461 1.75 1.23145 4.05957c2.61133 10.3223 2.80566 26.5547 0.433594 33.7275
c-1.16797 3.53223 -3.49902 7.85254 -4.49414 9.69727c-0.374023 0.692383 -0.628906 1.18359 -0.739258 1.41602l-2.78906 5.09668l10.7529 3.0918c1.27734 0.366211 2.95801 0.856445 4.62598 1.39551c0.357422 0.116211 0.661133 0.228516 0.916016 0.332031
c-0.282227 0.710938 -2.58398 9.34766 -2.87109 9.88184c-4.86914 -1.69824 -9.9209 -3.05078 -15.417 -4.13086c0 0 -2.74707 -0.514648 -3.80078 -0.689453c-12.7393 -2.12988 -25.583 -2.48145 -38.0146 -2.82129c-6.31641 -0.172852 -19.4873 -0.25 -26.8242 -0.25
h-1.04688c-7.33691 0 -20.5068 0.078125 -26.8135 0.25c-12.8457 0.351562 -26.1123 0.713867 -39.2607 3.0332c-0.664062 0.141602 -3.37109 0.638672 -3.37109 0.638672c-5.19336 1.05469 -9.98047 2.35449 -14.6113 3.9707
c-0.287109 -0.53418 -2.58887 -8.17188 -2.87109 -8.88281c0.255859 -0.103516 0.558594 -0.21582 0.914062 -0.331055c1.67285 -0.541016 3.35254 -1.03027 4.62695 -1.39551l10.7549 -3.0918l-2.79004 -6.09863c-0.313477 -0.662109 -0.654297 -1.20605 -1.125 -1.95898
c-0.81543 -1.30371 -3.28711 -5.25293 -3.79102 -7.92871c-2.17969 -11.5693 -2.11426 -24.4609 0.197266 -35.2979c0.442383 -2.0625 0.794922 -3.15332 1.00391 -3.69141zM71.084 -7.95312c-10.4785 0 -19.0039 7.08691 -19.0039 15.7979
c0 0.541016 -0.00488281 1.07422 -0.0107422 1.5957c-0.0400391 4.14453 -0.0820312 8.4248 2.82324 11.3535c1.875 1.89062 4.7168 2.84863 8.44336 2.84863c9.24609 0 27.3604 -8.32422 27.3604 -18.3877c0 -9.73828 -10.1309 -13.208 -19.6123 -13.208zM169.217 -7.95312
c-9.48047 0 -19.6113 3.46973 -19.6113 13.208c0 10.0635 18.1133 18.3877 27.3594 18.3877c3.72754 0 6.56836 -0.958008 8.44336 -2.84961c2.90723 -2.92969 2.86523 -7.21289 2.82422 -11.3535c-0.00683594 -0.589844 -0.0117188 -1.08789 -0.0117188 -1.59473
c0.000976562 -8.71094 -8.52441 -15.7979 -19.0039 -15.7979zM59.9971 -60h-13.1318c-9.28027 0 -16.8291 7.3457 -16.8291 16.375v11.9256c-3.84952 3.30341 -5.74334 8.1548 -7.03906 14.2228c-2.80762 13.1562 -2.90527 28.874 -0.289062 42.7666
c0.318359 1.6875 0.84668 3.47949 1.57617 5.34375c-9.00293 5.24609 -10.1348 13.8594 -8.05664 20.4209c1.26172 3.97949 6.24023 16.96 17.3594 16.96c2.18848 0 4.45508 -0.359375 6.75098 -1.07031c0.773438 2.66992 1.45703 5.1416 2.05371 7.31055
c3.9668 14.4131 7.09863 25.7959 19.3604 32.6113c9.23242 5.12988 22.1318 7.12305 48.8672 7.47559v7.66011c-7.68263 3.58569 -13.0186 11.3744 -13.0186 20.3829c0 12.3994 10.1064 22.4873 22.5293 22.4873s22.5293 -10.0879 22.5293 -22.4873
c0 -9.00979 -5.33696 -16.7994 -13.0215 -20.3844v-7.65757c27.0146 -0.354492 40.0479 -2.37891 49.3799 -7.59863c12.3262 -6.89355 15.5596 -18.4424 19.6523 -33.0645c0.582031 -2.08105 1.20605 -4.2959 1.88477 -6.62305
c2.16699 0.637695 4.30762 0.958984 6.37793 0.958984c11.1201 0 16.0996 -12.9805 17.3604 -16.96c2.10742 -6.64844 0.919922 -15.3408 -8.30664 -20.5654c0.59668 -1.41211 1.10254 -2.74414 1.51074 -3.97656c3.96387 -11.9854 2.97363 -32.3711 -0.0537109 -44.3369
c-1.56222 -6.17307 -3.50382 -10.8546 -7.17871 -14.0056v-11.7961c0 -9.0293 -7.54883 -16.375 -16.8291 -16.375h-13.1318c-9.2793 0 -16.8291 7.3457 -16.8291 16.375v4.85623c-16.7101 -0.799132 -31.4491 -1.01444 -42.4678 -1.01444h-1.49219
c-11.0671 0 -25.8869 0.217201 -42.6885 1.02501v-4.8668c0 -9.0293 -7.54883 -16.375 -16.8291 -16.375zM61.8066 -37.9009c-5.4626 0.362251 -11.0637 0.790296 -16.752 1.29493v-7.01902c0 -0.667969 0.727539 -1.38281 1.81055 -1.38281h13.1318
c1.08203 0 1.80957 0.714844 1.80957 1.38281v5.72409zM195.246 -36.6253c-5.68893 -0.502997 -11.29 -0.929447 -16.752 -1.29017v-5.70956c0 -0.667969 0.726562 -1.38281 1.80957 -1.38281h13.1318c1.08203 0 1.81055 0.714844 1.81055 1.38281v6.99972z" />
    <glyph glyph-name="uniE006" unicode="&#xe006;" 
d="M50 70v-20h-20v20h20zM210 70v-20h-20v20h20zM130 -10v-20h-20v20h20zM130 130h-20v20h20v-20zM120 158.579c-54.3574 0 -98.5791 -44.2217 -98.5791 -98.5791s44.2217 -98.5791 98.5791 -98.5791s98.5791 44.2217 98.5791 98.5791s-44.2217 98.5791 -98.5791 98.5791z
M120 -60c-66.168 0 -120 53.832 -120 120s53.832 120 120 120s120 -53.832 120 -120s-53.832 -120 -120 -120zM102.44 77.3984l85.5596 52.6016l-52.6012 -85.559l0.000604766 -0.000604748l-85.0742 -52.1152z" />
    <glyph glyph-name="uniE007" unicode="&#xe007;" 
d="M210 -20v120h-10v-120h10zM180 -20v120h-10v-120h10zM150 -20v120h-10v-120h10zM120 -20v120h-10v-120h10zM90 -20v120h-10v-120h10zM60 -20v120h-10v-120h10zM30 -20v120h-10v-120h10zM222.681 120c4.04199 0 7.31934 -3.27734 7.31836 -7.31934v-145.361
c0 -4.04199 -3.27734 -7.31934 -7.31934 -7.31934h-215.36c-4.04199 0 -7.31934 3.27734 -7.31934 7.31934v145.361c0 4.04199 3.27734 7.31934 7.31934 7.31934h215.361z" />
    <glyph glyph-name="uniE008" unicode="&#xe008;" 
d="M230 102c-5.00293 3.37598 -11.1318 5.20508 -17.5908 5.20508h-8.08984l-79.3902 43.7358c-2.4862 -1.67476 -5.47231 -2.65087 -8.68402 -2.65087c-3.6923 0 -7.08643 1.29009 -9.76559 3.44868l-81.1035 -44.5336h-7.78516
c-6.46094 0 -12.5889 -1.8291 -17.5908 -5.20312v3.58789l100.816 55.7081c-0.165587 0.923476 -0.252058 1.8748 -0.252058 2.84654c0 8.75684 7.02051 15.8555 15.6816 15.8555s15.6816 -7.09863 15.6816 -15.8555c0 -1.416 -0.18361 -2.78865 -0.528074 -4.09495
l98.6013 -54.6668v-3.38281zM210 -30v110h-10v-110h10zM180 -30v110h-10v-110h10zM150 -30v110h-10v-110h10zM120 -30v110h-10v-110h10zM90 -30v110h-10v-110h10zM60 -30v110h-10v-110h10zM30 -30v110h-10v-110h10zM222.681 100
c4.04199 0 7.31934 -3.27734 7.31836 -7.31934v-135.361c0 -4.04199 -3.27734 -7.31934 -7.31934 -7.31934h-215.36c-4.04199 0 -7.31934 3.27734 -7.31934 7.31934v135.361c0 4.04199 3.27734 7.31934 7.31934 7.31934h215.361z" />
    <glyph glyph-name="uniE009" unicode="&#xe009;" 
d="M200 -20h-10v90h10v-90zM170 -20h-10v90h10v-90zM140 -20h-10v90h10v-90zM110 -20h-10v90h10v-90zM80 -20h-10v90h10v-90zM50 -20h-10v90h10v-90zM20.9785 80c-0.539062 0 -0.978516 -0.439453 -0.978516 -0.978516v-108.043
c0 -0.539062 0.439453 -0.978516 0.978516 -0.978516h198.043c0.539062 0 0.978516 0.439453 0.978516 0.978516v108.043c0 0.539062 -0.439453 0.978516 -0.978516 0.978516h-198.043zM20.9785 -50c-11.5674 0 -20.9785 9.41113 -20.9785 20.9785v108.043
c0 11.5674 9.41113 20.9785 20.9785 20.9785h198.043c11.5674 0 20.9785 -9.41113 20.9785 -20.9785v-108.043c0 -11.5674 -9.41113 -20.9785 -20.9785 -20.9785h-198.043zM235 102c-5.02539 3.35254 -11.1797 5.1709 -17.667 5.1709h-8.125l-79.7362 43.4467
c-2.49709 -1.66367 -5.49623 -2.63325 -8.72178 -2.63325c-3.70766 0 -7.11617 1.28107 -9.8069 3.42483l-81.4568 -44.2383h-7.81934c-6.48926 0 -12.6426 -1.81738 -17.667 -5.16895v3.56445l101.253 55.3389c-0.16644 0.917771 -0.253358 1.86325 -0.253358 2.82905
c0 8.69824 7.05176 15.75 15.75 15.75s15.75 -7.05176 15.75 -15.75c0 -1.40698 -0.184464 -2.77084 -0.530524 -4.06872l99.0305 -54.3053v-3.36035z" />
    <glyph glyph-name="uniE00A" unicode="&#xe00a;" 
d="M200 -10h-10v110h10v-110zM170 -10h-10v110h10v-110zM140 -10h-10v110h10v-110zM110 -10h-10v110h10v-110zM80 -10h-10v110h10v-110zM50 -10h-10v110h10v-110zM20.9785 110c-0.539062 0 -0.978516 -0.439453 -0.978516 -0.978516v-128.043
c0 -0.539062 0.439453 -0.978516 0.978516 -0.978516h198.043c0.539062 0 0.978516 0.439453 0.978516 0.978516v128.043c0 0.539062 -0.439453 0.978516 -0.978516 0.978516h-198.043zM20.9785 -40c-11.5674 0 -20.9785 9.41113 -20.9785 20.9785v128.043
c0 11.5674 9.41113 20.9785 20.9785 20.9785h198.043c11.5674 0 20.9785 -9.41113 20.9785 -20.9785v-128.043c0 -11.5674 -9.41113 -20.9785 -20.9785 -20.9785h-198.043z" />
    <glyph glyph-name="uniE00B" unicode="&#xe00b;" 
d="M215 150c13.8066 0 25 -11.1934 25 -25v-15h-240v15c0 13.8066 11.1934 25 25 25h190zM0 80h240v-85c0 -13.8066 -11.1934 -25 -25 -25h-190c-13.8066 0 -25 11.1934 -25 25v85zM151.492 15.5258l-0.00518503 0.00941865
c-1.26578 -0.344024 -2.57929 -0.532199 -3.92352 -0.535222c1.3453 0 2.66268 0.180825 3.9287 0.525803zM151.444 44.487c-1.25024 0.336218 -2.55019 0.509719 -3.87733 0.512951c1.32623 0 2.62275 -0.18564 3.87259 -0.52154zM177.744 60
c16.5449 0 30.0059 -13.4551 30.0059 -29.9941c0 16.5391 -13.46 29.9941 -30.0059 29.9941zM169.446 42.4963c2.4592 1.64096 5.30899 2.50373 8.29784 2.50373c-2.98975 0 -5.84036 -0.863295 -8.29784 -2.50373zM147.53 15c-8.2742 0 -15.0044 6.73258 -15.0049 15.0059
c-0.000488281 -8.27344 6.72998 -15.0059 15.0044 -15.0059zM147.53 45l-0.00050354 7.74709e-09c-8.27441 0 -15.0049 -6.72656 -15.0044 -14.9941c0 8.2684 6.73021 14.9939 15.0049 14.9941z" />
    <glyph glyph-name="uniE00C" unicode="&#xe00c;" 
d="M90 40v-10h-50v10h50zM105 10h-65v10h65v-10zM177.744 55c-3.27539 0 -6.38379 -1.03613 -8.99121 -2.99512c-3.81641 -2.86426 -6.00293 -7.2373 -6.00293 -11.999c0 -4.76953 2.18652 -9.14648 6 -12.0088c2.61035 -1.96094 5.71875 -2.99707 8.99414 -2.99707
c8.27344 0 15.0059 6.73242 15.0059 15.0059c0 8.26758 -6.73242 14.9941 -15.0059 14.9941zM147.53 10c-16.5449 0 -30.0049 13.46 -30.0049 30.0059c0 16.5391 13.46 29.9941 30.0049 29.9941c5.37912 0 10.5389 -1.40032 15.1066 -4.07547
c4.56789 2.67568 9.72788 4.07547 15.1072 4.07547c16.5449 0 30.0059 -13.4551 30.0059 -29.9941c0 -16.5459 -13.46 -30.0059 -30.0059 -30.0059c-5.37995 0 -10.5399 1.40034 -15.1071 4.07552c-4.56776 -2.67518 -9.72757 -4.07552 -15.1067 -4.07552zM0 -5v130
c0 13.8066 11.1934 25 25 25h190c13.8066 0 25 -11.1934 25 -25v-130c0 -13.8066 -11.1934 -25 -25 -25h-190c-13.8066 0 -25 11.1934 -25 25zM151.492 25.5258c-2.41623 4.39006 -3.74187 9.37328 -3.74187 14.48c0 5.17808 1.29143 10.125 3.69442 14.4811
c-1.26211 0.339409 -2.57487 0.512997 -3.91513 0.512997c-8.27441 0 -15.0049 -6.72656 -15.0049 -14.9941c0 -8.27344 6.73047 -15.0059 15.0049 -15.0059c1.35705 0 2.68593 0.177968 3.96257 0.52584zM220 80h-200v-85c0 -2.76074 2.23926 -5 5 -5h190
c2.76074 0 5 2.23926 5 5v85zM220 110v15c0 2.76074 -2.23926 5 -5 5h-190c-2.76074 0 -5 -2.23926 -5 -5v-15h200z" />
    <glyph glyph-name="uniE00D" unicode="&#xe00d;" 
d="M35.1758 56.1777c0.523438 -3.46973 -1.80469 -6.17773 -5.30957 -6.17773h-29.7783l0.941406 38.4629c0.261719 3.40918 1.73828 6.27734 4.0459 8.2793c1.73438 2.2666 4.625 3.19434 6.9707 3.19434h19.4014zM54.7949 -2.56055
c-8.2041 0 -13.4736 -6.6582 -11.7471 -14.8428c1.72656 -8.18359 9.80566 -14.8418 18.0098 -14.8418s13.4746 6.6582 11.7471 14.8418c-1.72656 8.18359 -9.80566 14.8428 -18.0098 14.8428zM64.5762 -48.9238c-17.4482 0 -34.626 14.1396 -38.293 31.5205
s7.54492 31.5215 24.9932 31.5215c17.4473 0 34.626 -14.1406 38.293 -31.5215s-7.54492 -31.5205 -24.9932 -31.5205zM194.857 -2.56055c-8.13281 0 -13.3447 -6.6582 -11.6172 -14.8428c1.72656 -8.18359 9.74707 -14.8418 17.8789 -14.8418
s13.3438 6.6582 11.6182 14.8418c-1.72754 8.18359 -9.74805 14.8428 -17.8799 14.8428zM204.638 -48.9238c-17.3311 0 -34.4131 14.1396 -38.0801 31.5205s7.4502 31.5215 24.7812 31.5215s34.4131 -14.1406 38.0801 -31.5215s-7.4502 -31.5205 -24.7812 -31.5205z
M200.011 60h-83.9805v-10h83.9805v10zM110.029 70h73.9805v10h-73.9805v-10zM105.031 90h59.9844v10h-59.9844v-10zM146.021 110v10h-45.9883v-10h45.9883zM240 -10.0635h-3.2666c-6.89355 20.0615 -27.2773 35.5898 -47.9336 35.5898
c-20.6055 0 -34.4219 -15.4531 -32.9287 -35.4443l-54.8223 -0.145508l-29.752 141.032c-1.04492 4.95312 2.12695 8.96973 7.08398 8.96973h120.238c5.66309 0 10.5195 -3.71484 11.7207 -9.40918zM67.918 99.9365l19.9131 -94.3916
c-9.7002 11.959 -24.4805 19.9805 -39.4092 19.9805c-20.6299 0 -34.5127 -15.3174 -33.1768 -35.1797c-2.15039 0.753906 -4.13184 2.4834 -4.5791 4.60449c0 0 -5.21484 24.7188 -9.00879 42.7041c-0.15625 0.739258 -0.254883 1.54395 -0.322266 2.34473h34.625
c6.89844 0 11.4336 5.39062 10.2871 12.2256l-4.45898 47.7119h26.1299z" />
    <glyph glyph-name="uniE00E" unicode="&#xe00e;" 
d="M144.021 100h-39.9883v10h39.9883v-10zM159.016 80h-49.9844v10h49.9844v-10zM186.011 40h-65.9805v10h65.9805v-10zM174.011 60h-59.9805v10h59.9805v-10zM15.0293 50h22.1465c3.47754 0 5.77637 2.70801 5.24707 6.17773l-6.83496 39.8223h-9.19629
c-4.67578 0 -8.18457 -3.10547 -8.58496 -7.57031zM63.3379 3.52637c-10.3906 0 -17.0293 -8.54297 -14.7969 -19.0439s12.502 -19.0439 22.8926 -19.0439c10.3916 0 17.0293 8.54297 14.7979 19.0439c-2.23242 10.501 -12.5029 19.0439 -22.8936 19.0439zM187.338 3.52637
c-10.3906 0 -17.0293 -8.54297 -14.7969 -19.0439s12.502 -19.0439 22.8926 -19.0439c10.3916 0 17.0293 8.54297 14.7979 19.0439c-2.23242 10.501 -12.5029 19.0439 -22.8936 19.0439zM29.5166 -20c-7.8584 0 -17.5547 6.0332 -19.4639 15.0137l-9.56152 44.9863h0.335938
l2.91797 55.0244c0.644531 8.81738 7.5 14.9756 16.6709 14.9756h18.1963h5h19l-4.05859 19.0908c-2.45117 11.5293 4.79883 20.9092 16.1602 20.9092h112.668c11.2471 0 21.502 -8.34375 23.8545 -19.4092l28.0391 -140.366
c1.02148 -5.30371 -3.04199 -10.2246 -8.44336 -10.2246h-7.96869c1.02394 -15.0024 -9.38191 -26.5635 -24.878 -26.5635c-15.497 0 -30.818 11.561 -36.1706 26.5635h-62.9515c1.02394 -15.0024 -9.38191 -26.5635 -24.878 -26.5635
c-15.497 0 -30.818 11.561 -36.1706 26.5635h-8.2982zM37.3809 -1.48753e-16c3.3693 9.27398 12.0122 15.5254 23.4072 15.5254c11.395 0 22.6952 -6.25141 30.007 -15.5254l5.19804 -1.00354e-15l-19.1299 90h-29.8572l6.40992 -37.7744
c1.16016 -6.83496 -3.32129 -12.2256 -10.1621 -12.2256h-22.7627l8.50195 -40zM161.381 -1.48753e-16c3.3693 9.27398 12.0118 15.5254 23.4068 15.5254c11.395 0 22.6952 -6.25141 30.007 -15.5254l3.19804 -1.00354e-15l-26.6318 130h-112.435
c-0.120117 -0.0810547 -0.275391 -0.238281 -0.678711 0.530273l27.7451 -130.53z" />
    <glyph glyph-name="uniE00F" unicode="&#xe00f;" 
d="M37.71 56.1777c-0.211914 -3.46973 -3.13184 -6.17773 -6.66406 -6.17773h-30.002l9.12207 38.4629c0.990234 3.40918 3.08691 6.27734 5.83691 8.2793c2.23047 2.2666 5.33984 3.19434 7.70312 3.19434h19.5479zM44.9912 -2.56055
c-8.2666 0 -14.9912 -6.6582 -14.9912 -14.8428c0 -8.18359 6.72461 -14.8418 14.9912 -14.8418c8.26562 0 14.9912 6.6582 14.9912 14.8418c0 8.18457 -6.72559 14.8428 -14.9912 14.8428zM44.9912 -48.9238c-17.5801 0 -31.8818 14.1396 -31.8818 31.5205
s14.3018 31.5215 31.8818 31.5215s31.8818 -14.1406 31.8818 -31.5215s-14.3018 -31.5205 -31.8818 -31.5205zM196.111 -2.56055c-8.19434 0 -14.8604 -6.6582 -14.8604 -14.8428c0 -8.18359 6.66602 -14.8418 14.8604 -14.8418c8.19336 0 14.8594 6.6582 14.8594 14.8418
c0 8.18457 -6.66699 14.8428 -14.8594 14.8428zM196.111 -48.9238c-17.4619 0 -31.668 14.1396 -31.668 31.5205s14.2061 31.5215 31.668 31.5215s31.668 -14.1406 31.668 -31.5215s-14.207 -31.5205 -31.668 -31.5205zM210 100h-90v-40h90v40zM240 130.528v-140.592
h-3.29199c-2.68164 20.0615 -19.918 35.5898 -40.7305 35.5898c-20.7617 0 -37.9658 -15.4531 -40.7109 -35.4443l-65.2666 -0.145508v141.032c0 4.95312 4.04883 8.96973 9.04395 8.96973h131.146c5.70605 -0.00195312 9.80957 -3.71582 9.80957 -9.41016zM53.6729 99.9365
h26.3271v-94.3916c-7.23242 11.959 -20.418 19.9805 -35.459 19.9805c-20.7861 0 -38.0293 -15.3174 -40.9053 -35.1797c-2.00684 0.755859 -3.63574 2.48535 -3.63574 4.60547v42.7041c0 0.739258 0.0722656 1.54395 0.173828 2.34473h34.8857
c6.9502 0 12.666 5.39062 12.9648 12.2256z" />
    <glyph glyph-name="uniE010" unicode="&#xe010;" 
d="M31.0459 50h-30.002l9.12305 38.4629c0.990234 3.40918 3.08691 6.27734 5.83691 8.2793c2.23047 2.2666 5.33984 3.19434 7.70312 3.19434h19.5479l-5.54395 -43.7588c-0.212891 -3.46973 -3.13281 -6.17773 -6.66504 -6.17773zM48.0244 52.2256l5.64844 47.7129
h15.9824c5.71289 0 10.3438 -4.63184 10.3438 -10.3447v-84.0479c-7.23145 11.958 -20.418 19.9805 -35.459 19.9805c-20.7852 0 -38.0293 -15.3174 -40.9053 -35.1797c-2.00586 0.753906 -3.63477 2.48438 -3.63477 4.60449v42.7041
c0 0.739258 0.0722656 1.54492 0.173828 2.34473h34.8867c6.9502 0 12.666 5.39062 12.9639 12.2256zM90 30h150v-40.0635h-3.29199c-2.68164 20.0615 -19.918 35.5898 -40.7305 35.5898c-20.7607 0 -37.9658 -15.4541 -40.7109 -35.4443l-65.2666 -0.145508v40.0635z
M44.9912 -2.56055c-8.2666 0 -14.9912 -6.6582 -14.9912 -14.8428c0 -8.18359 6.72461 -14.8418 14.9912 -14.8418c8.26562 0 14.9912 6.6582 14.9912 14.8418c0 8.18457 -6.72559 14.8428 -14.9912 14.8428zM44.9912 -48.9238
c-17.5801 0 -31.8818 14.1396 -31.8818 31.5205s14.3018 31.5215 31.8818 31.5215s31.8818 -14.1406 31.8818 -31.5215s-14.3018 -31.5205 -31.8818 -31.5205zM196.111 -2.56055c-8.19434 0 -14.8604 -6.6582 -14.8604 -14.8428
c0 -8.18359 6.66602 -14.8418 14.8604 -14.8418c8.19336 0 14.8594 6.6582 14.8594 14.8418c0 8.18457 -6.66699 14.8428 -14.8594 14.8428zM196.111 -48.9238c-17.4619 0 -31.668 14.1396 -31.668 31.5205s14.2061 31.5215 31.668 31.5215s31.668 -14.1406 31.668 -31.5215
s-14.207 -31.5205 -31.668 -31.5205zM189.283 157.657c0.924805 0.921875 1.26367 1.75195 1.36426 2.32422c-1.83105 -0.181641 -5.09082 -1.4541 -8.21094 -4.68848c-1.30273 -1.35156 -2.87305 -3.2207 -4.37598 -5.3252c5.07031 2.52734 9.38965 5.8623 11.2227 7.68945
zM137.558 159.981c0.0996094 -0.572266 0.438477 -1.40234 1.36426 -2.32324c1.35449 -1.34961 6.13086 -4.77344 11.5059 -7.53418c-1.59082 2 -3.20312 3.66406 -4.26074 4.75586l-0.400391 0.413086c-3.11914 3.23535 -6.37891 4.50684 -8.20898 4.68848z
M205.236 164.563c1.42578 -5.95703 -0.579102 -12.3613 -5.36426 -17.1309c-2.72754 -2.71777 -10.4355 -8.93262 -19.8721 -12.583v-93.8496h-30v93.2949c-9.21191 3.55371 -18.3701 9.85254 -21.667 13.1387c-4.78516 4.76953 -6.79004 11.1729 -5.36426 17.1309
c1.16211 4.85254 4.47266 8.59961 8.85645 10.0215c7.6582 2.48535 17.3721 -0.84082 24.7393 -8.48047l0.375 -0.387695c1.80566 -1.86426 4.73926 -4.8916 7.41992 -8.80176c3.06738 4.68359 6.23828 8.1084 7.28027 9.18945
c7.36914 7.63867 17.0811 10.9688 24.7412 8.47949c4.38184 -1.42188 7.69336 -5.16895 8.85547 -10.0215zM192.058 130h37.9424v-30h-40v29.9502c0.700195 0.34082 1.38281 0.692383 2.05762 0.0498047zM190 40v50h30v-50h-30zM140 90v-50h-30v50h30zM140 100h-40v30
h36.7363c1.07715 0.432617 2.16699 -0.116211 3.26367 -0.634766v-29.3652z" />
    <glyph glyph-name="uniE011" unicode="&#xe011;" 
d="M142.443 163.5c0.106445 -0.618164 0.472656 -1.5127 1.47168 -2.50781c1.46191 -1.45703 6.62012 -5.15332 12.4229 -8.13477c-1.71777 2.15918 -3.45898 3.95605 -4.60059 5.13477l-0.432617 0.446289c-3.36621 3.49219 -6.88477 4.86621 -8.86133 5.06152z
M199.761 163.5c-1.97656 -0.196289 -5.49512 -1.57031 -8.86328 -5.06152c-1.40723 -1.45996 -3.10352 -3.47754 -4.72559 -5.74902c5.47461 2.72754 10.1367 6.32812 12.1162 8.30176c1 0.996094 1.36621 1.8916 1.47266 2.50879zM16.6641 40h22.1465
c3.47754 0 6.35254 2.70801 6.56055 6.17773l1.62891 39.8223h-9.19629c-4.67578 0 -8.84473 -3.10547 -10.1934 -7.57031zM55.0947 -6.47363c-10.3906 0 -18.8447 -8.54297 -18.8447 -19.0439s8.4541 -19.0439 18.8447 -19.0439c10.3916 0 18.8457 8.54297 18.8457 19.0439
s-8.4541 19.0439 -18.8457 19.0439zM185.095 -6.47363c-10.3906 0 -18.8447 -8.54297 -18.8447 -19.0439s8.4541 -19.0439 18.8447 -19.0439c10.3916 0 18.8457 8.54297 18.8457 19.0439s-8.4541 19.0439 -18.8457 19.0439zM230 30h10v-60h-24.3801
c-2.16451 -15.0024 -15.0291 -26.5635 -30.5252 -26.5635s-28.3599 11.561 -30.5243 26.5635h-68.9505c-2.16451 -15.0024 -15.0291 -26.5635 -30.5252 -26.5635c-15.4961 0 -28.3599 11.561 -30.5243 26.5635h-8.29703c-7.85938 0 -16.2734 6.0332 -16.2734 15.0137
v44.9863h0.335938l14.6143 55.0244c2.51855 8.81738 10.6826 14.9756 19.8535 14.9756h18.1963h5h4h18h4.625c8.49121 0 15.375 -6.88379 15.375 -15.375v-54.625h120h10zM185 134.788v-24.7881h40v25h-39.3365
c-0.220483 -0.0721163 -0.441663 -0.142759 -0.663507 -0.211868zM155 135h-40v-25h40v25zM155 100h-25v-45h25v45zM185 100v-45h25v45h-25zM132.019 150c-4.82992 5.09372 -6.81917 11.7824 -5.32711 18.0176c1.25488 5.24023 4.82812 9.28516 9.56152 10.8213
c8.26855 2.68359 18.7559 -0.908203 26.71 -9.15625l0.405273 -0.417969c1.9502 -2.0127 5.11816 -5.28027 8.01074 -9.50293c3.31348 5.05762 6.73633 8.75391 7.86133 9.9209c7.95605 8.24805 18.4414 11.8438 26.7119 9.15625
c4.73047 -1.53516 8.30566 -5.58105 9.55957 -10.8203c1.4931 -6.23562 -0.497391 -12.9247 -5.32804 -18.0186h29.8163v-50h-15v-60h-40h-30h-40v60h-15v50h32.0185zM57.143 80l-1.6186 -37.7744c-0.292969 -6.83496 -5.9209 -12.2256 -12.7617 -12.2256h-22.7627v-40
h8.38761c5.34056 9.27398 15.3122 15.5254 26.7071 15.5254c10.2162 0 19.2887 -5.02496 24.9053 -12.748v87.2226h-22.857zM158.388 -10c5.34056 9.27398 15.3122 15.5254 26.7071 15.5254s21.367 -6.25141 26.7078 -15.5254h8.19743v30h-120v-30h58.3876z" />
    <glyph glyph-name="uniE012" unicode="&#xe012;" 
d="M190 10v-16h-50v16h50zM190 60h-50v15h50v-15zM82.1211 -17.7939l-28.75 28.4092l11.5654 11.7041l17.1621 -16.958l32.3135 32.0518l11.5879 -11.6816zM53.3711 73.5947l11.5654 11.7041l17.1621 -16.958l32.3135 32.0518l11.5879 -11.6826l-43.8789 -43.5254zM170 120
h-100v10h-30v-170h160v170h-30v-10zM70 150v10h25.2686c2.64355 10.126 10.9824 19.7402 24.9619 19.7402c13.9785 0 22.3174 -9.61426 24.96 -19.7402h24.8096v-10h50v-210h-200v210h50z" />
    <glyph glyph-name="uniE013" unicode="&#xe013;" 
d="M31.0459 50h-30.002l9.12305 38.4629c0.990234 3.40918 3.08691 6.27734 5.83691 8.2793c2.23047 2.2666 5.33984 3.19434 7.70312 3.19434h19.5479l-5.54395 -43.7588c-0.212891 -3.46973 -3.13281 -6.17773 -6.66504 -6.17773zM164.966 105
c11.4443 0 20.7207 9.23438 20.7207 20.625s-9.27637 20.625 -20.7207 20.625c-11.4434 0 -20.7207 -9.23438 -20.7207 -20.625s9.27734 -20.625 20.7207 -20.625zM164.877 180c30.3066 0 54.876 -24.3721 54.876 -54.4365c0 -11.5332 -3.61523 -22.2295 -9.7832 -31.0322
c-9.91113 -14.1455 -45.0928 -59.5312 -45.0928 -59.5312s-34.9512 45.2568 -44.8838 59.2344c-6.29492 8.8584 -9.99316 19.666 -9.99316 31.3291c0 30.0645 24.5693 54.4365 54.877 54.4365zM48.0244 52.2256l5.64844 47.7129h15.9824
c5.71289 0 10.3438 -4.63184 10.3438 -10.3447v-84.0479c-7.23145 11.958 -20.418 19.9805 -35.459 19.9805c-20.7852 0 -38.0293 -15.3174 -40.9053 -35.1797c-2.00586 0.753906 -3.63477 2.48438 -3.63477 4.60449v42.7041c0 0.739258 0.0722656 1.54492 0.173828 2.34473
h34.8867c6.9502 0 12.666 5.39062 12.9639 12.2256zM90 30h150v-40.0635h-3.29199c-2.68164 20.0615 -19.918 35.5898 -40.7305 35.5898c-20.7607 0 -37.9658 -15.4541 -40.7109 -35.4443l-65.2666 -0.145508v40.0635zM44.9912 -2.56055
c-8.2666 0 -14.9912 -6.6582 -14.9912 -14.8428c0 -8.18359 6.72461 -14.8418 14.9912 -14.8418c8.26562 0 14.9912 6.6582 14.9912 14.8418c0 8.18457 -6.72559 14.8428 -14.9912 14.8428zM44.9912 -48.9238c-17.5801 0 -31.8818 14.1396 -31.8818 31.5205
s14.3018 31.5215 31.8818 31.5215s31.8818 -14.1406 31.8818 -31.5215s-14.3018 -31.5205 -31.8818 -31.5205zM196.111 -2.56055c-8.19434 0 -14.8604 -6.6582 -14.8604 -14.8428c0 -8.18359 6.66602 -14.8418 14.8604 -14.8418c8.19336 0 14.8594 6.6582 14.8594 14.8418
c0 8.18457 -6.66699 14.8428 -14.8594 14.8428zM196.111 -48.9238c-17.4619 0 -31.668 14.1396 -31.668 31.5205s14.2061 31.5215 31.668 31.5215s31.668 -14.1406 31.668 -31.5215s-14.207 -31.5205 -31.668 -31.5205z" />
    <glyph glyph-name="uniE014" unicode="&#xe014;" 
d="M169.063 139.634c-8.54395 0 -15.4941 -6.95117 -15.4941 -15.4951c0 -8.54297 6.94922 -15.4941 15.4941 -15.4941c8.54395 0 15.4932 6.95117 15.4932 15.4941c0 8.54492 -6.9502 15.4951 -15.4932 15.4951zM169.063 99.6465
c-13.5068 0 -24.4941 10.9873 -24.4941 24.4932c0 13.5068 10.9873 24.4951 24.4941 24.4951c13.5059 0 24.4932 -10.9873 24.4932 -24.4951c0 -13.5068 -10.9873 -24.4932 -24.4932 -24.4932zM169.863 164.626c-22.4453 0 -40.7051 -18.1865 -40.7051 -40.541
c0 -8.4082 2.55859 -16.4707 7.40039 -23.3174c6.20703 -8.77246 23.9551 -32.0596 33.3135 -44.29c9.4043 12.2549 27.2666 35.6455 33.4502 44.5117c4.73926 6.79688 7.24609 14.7832 7.24609 23.0947c0 22.3555 -18.2607 40.542 -40.7051 40.542zM169.852 31.8711
l-5.93555 7.71973c-1.25684 1.63477 -30.8906 40.1992 -39.6045 52.5146c-6.64355 9.39355 -10.1543 20.4512 -10.1543 31.9795c0 30.625 24.9902 55.541 55.7051 55.541c30.7158 0 55.7061 -24.916 55.7061 -55.541c0 -11.3955 -3.43848 -22.3486 -9.94336 -31.6768
c-8.70801 -12.4873 -38.5586 -51.1875 -39.8252 -52.8281zM16.6641 40h22.1465c3.47754 0 6.35254 2.70801 6.56055 6.17773l1.62891 39.8223h-9.19629c-4.67578 0 -8.84473 -3.10547 -10.1934 -7.57031zM55.0947 -6.47363c-10.3906 0 -18.8447 -8.54297 -18.8447 -19.0439
s8.4541 -19.0439 18.8447 -19.0439c10.3916 0 18.8457 8.54297 18.8457 19.0439s-8.4541 19.0439 -18.8457 19.0439zM185.095 -6.47363c-10.3906 0 -18.8447 -8.54297 -18.8447 -19.0439s8.4541 -19.0439 18.8447 -19.0439c10.3916 0 18.8457 8.54297 18.8457 19.0439
s-8.4541 19.0439 -18.8457 19.0439zM230 30h10v-60h-24.3801c-2.16451 -15.0024 -15.0291 -26.5635 -30.5252 -26.5635s-28.3599 11.561 -30.5243 26.5635h-68.9505c-2.16451 -15.0024 -15.0291 -26.5635 -30.5252 -26.5635c-15.4961 0 -28.3599 11.561 -30.5243 26.5635
h-8.29703c-7.85938 0 -16.2734 6.0332 -16.2734 15.0137v44.9863h0.335938l14.6143 55.0244c2.51855 8.81738 10.6826 14.9756 19.8535 14.9756h18.1963h5h4h18h4.625c8.49121 0 15.375 -6.88379 15.375 -15.375v-54.625h120h10zM57.143 80l-1.6186 -37.7744
c-0.292969 -6.83496 -5.9209 -12.2256 -12.7617 -12.2256h-22.7627v-40h8.38761c5.34056 9.27398 15.3122 15.5254 26.7071 15.5254c10.2162 0 19.2887 -5.02496 24.9053 -12.748v87.2226h-22.857zM158.388 -10c5.34056 9.27398 15.3122 15.5254 26.7071 15.5254
s21.367 -6.25141 26.7078 -15.5254h8.19743v30h-120v-30h58.3876z" />
    <glyph glyph-name="uniE015" unicode="&#xe015;" 
d="M31.0459 50h-30.002l9.12305 38.4629c0.990234 3.40918 3.08691 6.27734 5.83691 8.2793c2.23047 2.2666 5.33984 3.19434 7.70312 3.19434h19.5479l-5.54395 -43.7588c-0.212891 -3.46973 -3.13281 -6.17773 -6.66504 -6.17773zM204 100.667v8.66602h-34.666v42.9004
h-8.66699v-51.5664h43.333zM165 170c35.8994 0 65 -29.1006 65 -65c0 -35.8984 -29.1006 -65 -65 -65s-65 29.1016 -65 65c0 35.8994 29.1006 65 65 65zM48.0244 52.2256l5.64844 47.7129h15.9824c5.71289 0 10.3438 -4.63184 10.3438 -10.3447v-84.0479
c-7.23145 11.958 -20.418 19.9805 -35.459 19.9805c-20.7852 0 -38.0293 -15.3174 -40.9053 -35.1797c-2.00586 0.753906 -3.63477 2.48438 -3.63477 4.60449v42.7041c0 0.739258 0.0722656 1.54492 0.173828 2.34473h34.8867c6.9502 0 12.666 5.39062 12.9639 12.2256z
M90 30h150v-40.0635h-3.29199c-2.68164 20.0615 -19.918 35.5898 -40.7305 35.5898c-20.7607 0 -37.9658 -15.4541 -40.7109 -35.4443l-65.2666 -0.145508v40.0635zM44.9912 -2.56055c-8.2666 0 -14.9912 -6.6582 -14.9912 -14.8428
c0 -8.18359 6.72461 -14.8418 14.9912 -14.8418c8.26562 0 14.9912 6.6582 14.9912 14.8418c0 8.18457 -6.72559 14.8428 -14.9912 14.8428zM44.9912 -48.9238c-17.5801 0 -31.8818 14.1396 -31.8818 31.5205s14.3018 31.5215 31.8818 31.5215
s31.8818 -14.1406 31.8818 -31.5215s-14.3018 -31.5205 -31.8818 -31.5205zM196.111 -2.56055c-8.19434 0 -14.8604 -6.6582 -14.8604 -14.8428c0 -8.18359 6.66602 -14.8418 14.8604 -14.8418c8.19336 0 14.8594 6.6582 14.8594 14.8418
c0 8.18457 -6.66699 14.8428 -14.8594 14.8428zM196.111 -48.9238c-17.4619 0 -31.668 14.1396 -31.668 31.5205s14.2061 31.5215 31.668 31.5215s31.668 -14.1406 31.668 -31.5215s-14.207 -31.5205 -31.668 -31.5205z" />
    <glyph glyph-name="uniE016" unicode="&#xe016;" 
d="M166.875 96.875v48.75h8.93848v-39.8135h31.6865v-8.93652h-40.625zM175 155.299c-27.7354 0 -50.2988 -22.5635 -50.2988 -50.2988s22.5635 -50.2988 50.2988 -50.2988s50.2988 22.5635 50.2988 50.2988s-22.5635 50.2988 -50.2988 50.2988zM175 40
c-35.8408 0 -65 29.1592 -65 65s29.1592 65 65 65s65 -29.1592 65 -65s-29.1592 -65 -65 -65zM16.6641 40h22.1465c3.47754 0 6.35254 2.70801 6.56055 6.17773l1.62891 39.8223h-9.19629c-4.67578 0 -8.84473 -3.10547 -10.1934 -7.57031zM55.0947 -6.47363
c-10.3906 0 -18.8447 -8.54297 -18.8447 -19.0439s8.4541 -19.0439 18.8447 -19.0439c10.3916 0 18.8457 8.54297 18.8457 19.0439s-8.4541 19.0439 -18.8457 19.0439zM185.095 -6.47363c-10.3906 0 -18.8447 -8.54297 -18.8447 -19.0439s8.4541 -19.0439 18.8447 -19.0439
c10.3916 0 18.8457 8.54297 18.8457 19.0439s-8.4541 19.0439 -18.8457 19.0439zM230 30h10v-60h-24.3801c-2.16451 -15.0024 -15.0291 -26.5635 -30.5252 -26.5635s-28.3599 11.561 -30.5243 26.5635h-68.9505c-2.16451 -15.0024 -15.0291 -26.5635 -30.5252 -26.5635
c-15.4961 0 -28.3599 11.561 -30.5243 26.5635h-8.29703c-7.85938 0 -16.2734 6.0332 -16.2734 15.0137v44.9863h0.335938l14.6143 55.0244c2.51855 8.81738 10.6826 14.9756 19.8535 14.9756h18.1963h5h4h18h4.625c8.49121 0 15.375 -6.88379 15.375 -15.375v-54.625h120
h10zM57.143 80l-1.6186 -37.7744c-0.292969 -6.83496 -5.9209 -12.2256 -12.7617 -12.2256h-22.7627v-40h8.38761c5.34056 9.27398 15.3122 15.5254 26.7071 15.5254c10.2162 0 19.2887 -5.02496 24.9053 -12.748v87.2226h-22.857zM158.388 -10
c5.34056 9.27398 15.3122 15.5254 26.7071 15.5254s21.367 -6.25141 26.7078 -15.5254h8.19743v30h-120v-30h58.3876z" />
    <glyph glyph-name="uniE017" unicode="&#xe017;" 
d="M130 70h60v30h-60v-30zM200 60h-80v50h80v-50zM16.6641 50h22.1465c3.47754 0 6.35254 2.70801 6.56055 6.17773l1.62891 39.8223h-9.19629c-4.67578 0 -8.84473 -3.10547 -10.1934 -7.57031zM55.0947 3.52637c-10.3906 0 -18.8447 -8.54297 -18.8447 -19.0439
s8.4541 -19.0439 18.8447 -19.0439c10.3916 0 18.8457 8.54297 18.8457 19.0439s-8.4541 19.0439 -18.8457 19.0439zM185.095 3.52637c-10.3906 0 -18.8447 -8.54297 -18.8447 -19.0439s8.4541 -19.0439 18.8447 -19.0439c10.3916 0 18.8457 8.54297 18.8457 19.0439
s-8.4541 19.0439 -18.8457 19.0439zM16.2734 -20c-7.85938 0 -16.2734 6.0332 -16.2734 15.0137v44.9863h0.335938l14.6143 55.0244c2.51855 8.81738 10.6826 14.9756 19.8535 14.9756h18.1963h5h22v19.0908c0 11.5293 9.24316 20.9092 20.6035 20.9092h119.669
c11.2461 0 19.7275 -8.34375 19.7275 -19.4092v-150.591h-24.3801c-2.16451 -15.0024 -15.0291 -26.5635 -30.5252 -26.5635s-28.3599 11.561 -30.5243 26.5635h-68.9505c-2.16451 -15.0024 -15.0291 -26.5635 -30.5252 -26.5635
c-15.4961 0 -28.3599 11.561 -30.5243 26.5635h-8.29703zM28.3876 -1.48753e-16c5.34056 9.27398 15.3122 15.5254 26.7071 15.5254c11.395 0 21.367 -6.25141 26.7078 -15.5254l8.19743 -1.00354e-15v90h-32.857l-1.6186 -37.7744
c-0.292969 -6.83496 -5.9209 -12.2256 -12.7617 -12.2256h-22.7627v-40zM158.388 -1.48753e-16c5.34056 9.27398 15.3122 15.5254 26.7071 15.5254s21.367 -6.25141 26.7078 -15.5254l8.19743 -1.00354e-15v130h-119.434
c-0.137695 -0.0810547 -0.326172 -0.238281 -0.566406 0.530273v-130.53z" />
    <glyph glyph-name="uniE018" unicode="&#xe018;" 
d="M186.76 150l53.8936 -45l-53.8936 -45h-76.7598v-120h-20v120h-90v90h90v30h20v-30h76.7598z" />
    <glyph glyph-name="uniE019" unicode="&#xe019;" 
d="M179.639 80l31.1064 25l-31.1064 25h-159.639v-50h159.639zM0 60v90h90v30h20v-30h76.7598l53.8936 -45l-53.8936 -45h-76.7598v-120h-20v120h-90z" />
    <glyph glyph-name="uniE01A" unicode="&#xe01a;" 
d="M160 172.249l79.3594 -54.3857l-79.3594 -52.6035v43.0064c-16.6436 -0.591543 -30 -14.266 -30 -30.9898v-126.99h-20v126.99c0 16.7238 -13.3564 30.3983 -30 30.9898v-43.0064l-79.3594 52.6025l79.3594 54.3867v-43.975
c15.9344 -0.343473 30.5776 -7.9788 40 -20.7398c9.42241 12.761 24.0656 20.3964 40 20.7398v43.975z" />
    <glyph glyph-name="uniE01B" unicode="&#xe01b;" 
d="M180 102.006l22.9551 16.1348l-22.9551 16.6826v-32.8174zM160 172.249l79.3594 -54.3857l-79.3594 -52.6045v43.0074c-16.6436 -0.591543 -30 -14.266 -30 -30.9898v-126.99h-20v126.99c0 16.7238 -13.3564 30.3983 -30 30.9898v-43.0064l-79.3594 52.6025
l79.3594 54.3867v-43.975c15.9344 -0.343473 30.5776 -7.9788 40 -20.7398c9.42241 12.761 24.0656 20.3964 40 20.7398v43.975zM60 102.006v32.8174l-24.9551 -16.6826z" />
    <glyph glyph-name="uniE01C" unicode="&#xe01c;" 
d="M140 174.311l81.3594 -54.3857l-81.3594 -52.6025v42.6777h-39.2979c-17.2158 0 -30.7021 -13.3975 -30.7021 -30.5v-129.5h-20v129.5c0 28.3184 22.3799 50.5 50.9492 50.5h39.0508v44.3105z" />
    <glyph glyph-name="uniE01D" unicode="&#xe01d;" 
d="M160 104.069l24.9551 16.1348l-24.9551 16.6807v-32.8154zM140 174.311l81.3594 -54.3857l-81.3594 -52.6025v42.6777h-39.2979c-17.2158 0 -30.7021 -13.3975 -30.7021 -30.5v-129.5h-20v129.5c0 28.3184 22.3799 50.5 50.9492 50.5h39.0508v44.3105z" />
    <glyph glyph-name="uniE01E" unicode="&#xe01e;" 
d="M18.6406 119.925l81.3594 54.3857v-44.3105h39.5449c28.293 0 50.4551 -22.1816 50.4551 -50.5v-129.5h-20v129.5c0 17.1025 -13.4863 30.5 -30.7021 30.5h-39.2979v-42.6777z" />
    <glyph glyph-name="uniE01F" unicode="&#xe01f;" 
d="M80 136.885l-24.9551 -16.6807l24.9551 -16.1348v32.8154zM100 67.3223l-81.3594 52.6025l81.3594 54.3857v-44.3105h39.5449c28.293 0 50.4551 -22.1816 50.4551 -50.5v-129.5h-20v129.5c0 17.1025 -13.4863 30.5 -30.7021 30.5h-39.2979v-42.6777z" />
    <glyph glyph-name="uniE020" unicode="&#xe020;" 
d="M150 84.4072l79.3594 -54.3857l-79.3594 -52.6045v42.583h-29.6074c-17.6104 0 -30.3926 -12.3896 -30.3926 -29.46v-2.54004v-38h-20v38v3v109h-45.2441l54.3867 79.3594l52.6035 -79.3594h-41.7461v-69.4566c8.40319 5.98823 18.9571 9.45656 30.6807 9.45656h29.3193
v44.4072z" />
    <glyph glyph-name="uniE021" unicode="&#xe021;" 
d="M94.999 120l-16.1348 22.9551l-16.6826 -22.9551h32.8174zM24.7559 100l54.3867 79.3594l52.6035 -79.3594h-41.7461v-69.4566c8.40319 5.98823 18.9571 9.45656 30.6807 9.45656h29.3193v44.4072l79.3594 -54.3857l-79.3594 -52.6045v42.583h-29.6074
c-17.6104 0 -30.3926 -12.3896 -30.3926 -29.46v-2.54004v-38h-20v38v3v109h-45.2441zM170 14.165l22.9551 16.1348l-22.9551 16.6816v-32.8164z" />
    <glyph glyph-name="uniE022" unicode="&#xe022;" 
d="M90 -22.583l-79.3594 52.6045l79.3594 54.3857v-44.4072h29.3193c11.7236 0 22.2775 -3.46832 30.6807 -9.45656v69.4566h-41.6299l52.6025 79.3594l54.3867 -79.3594h-45.3594v-109v-3v-38h-20v38v2.54004c0 17.0703 -12.7822 29.46 -30.3926 29.46h-29.6074v-42.583z
" />
    <glyph glyph-name="uniE023" unicode="&#xe023;" 
d="M177.934 120l-16.6816 22.9551l-16.1348 -22.9551h32.8164zM108.37 100l52.6025 79.3594l54.3867 -79.3594h-45.3594v-109v-3v-38h-20v38v2.54004c0 17.0703 -12.7822 29.46 -30.3926 29.46h-29.6074v-42.583l-79.3594 52.6025l79.3594 54.3877v-44.4072h29.3193
c11.7236 0 22.2775 -3.46832 30.6807 -9.45656v69.4566h-41.6299zM70 46.9814l-22.9551 -16.6826l22.9551 -16.1338v32.8164z" />
    <glyph glyph-name="uniE024" unicode="&#xe024;" 
d="M150 134.407l79.3594 -54.3857l-79.3594 -52.6045v42.583h-29.6074c-17.6104 0 -30.3926 -12.3896 -30.3926 -29.46v-2.54004v-88h-20v88v3v129h20v-89.4566c8.40319 5.98823 18.9571 9.45656 30.6807 9.45656h29.3193v44.4072z" />
    <glyph glyph-name="uniE025" unicode="&#xe025;" 
d="M170 64.165l22.9551 16.1348l-22.9551 16.6816v-32.8164zM150 134.407l79.3594 -54.3857l-79.3594 -52.6045v42.583h-29.6074c-17.6104 0 -30.3926 -12.3896 -30.3926 -29.46v-2.54004v-88h-20v88v3v129h20v-89.4566c8.40319 5.98823 18.9571 9.45656 30.6807 9.45656
h29.3193v44.4072z" />
    <glyph glyph-name="uniE026" unicode="&#xe026;" 
d="M10.6406 80.0215l79.3594 54.3857v-44.4072h29.3193c11.7236 0 22.2775 -3.46832 30.6807 -9.45656v89.4566h20v-129v-3v-88h-20v88v2.54004c0 17.0703 -12.7822 29.46 -30.3926 29.46h-29.6074v-42.583z" />
    <glyph glyph-name="uniE027" unicode="&#xe027;" 
d="M70 96.9814l-22.9551 -16.6826l22.9551 -16.1338v32.8164zM90 27.417l-79.3594 52.6045l79.3594 54.3857v-44.4072h29.3193c11.7236 0 22.2775 -3.46832 30.6807 -9.45656v89.4566h20v-129v-3v-88h-20v88v2.54004c0 17.0703 -12.7822 29.46 -30.3926 29.46h-29.6074
v-42.583z" />
    <glyph glyph-name="uniE028" unicode="&#xe028;" 
d="M160 79.4072l79.3594 -54.3857l-79.3594 -52.6045v42.6982c-17.3845 -0.00821427 -30 -12.2019 -30 -29v-2.5v-43.5h-20v43.5v2.5c0 16.798 -12.6165 28.9918 -30 29v-42.6982l-79.3594 52.6045l79.3594 54.3857v-44.292
c11.4419 -0.00347414 21.754 -3.39894 30 -9.26892v74.2689h-43.1201l52.6035 79.3594l54.3867 -79.3594h-43.8701v-74.2689c8.24597 5.86998 18.5581 9.26545 30 9.26892v44.292z" />
    <glyph glyph-name="uniE029" unicode="&#xe029;" 
d="M136.444 120.115l-16.6826 22.9551l-16.1348 -22.9551h32.8174zM66.8799 100.115l52.6035 79.3584l54.3857 -79.3584h-43.8691v-74.2689c8.24597 5.86998 18.5581 9.26545 30 9.26892v44.292l79.3594 -54.3857l-79.3594 -52.6045v42.6982
c-17.3845 -0.00821427 -30 -12.2019 -30 -29v-2.5v-43.5h-20v43.5v2.5c0 16.798 -12.6165 28.9918 -30 29v-42.6973l-79.3594 52.6035l79.3594 54.3857v-44.292c11.4419 -0.00347414 21.754 -3.39894 30 -9.26892v74.2689h-43.1201zM60 9.16504v32.8164l-22.9551 -16.6826z
M180 9.16504l22.9551 16.1348l-22.9551 16.6816v-32.8164z" />
    <glyph glyph-name="uniE02A" unicode="&#xe02a;" 
d="M119.51 171.359l54.3867 -81.3594h-43.8965v-140h-20v140h-43.0928z" />
    <glyph glyph-name="uniE02B" unicode="&#xe02b;" 
d="M136.47 110l-16.6816 24.9551l-16.1338 -24.9551h32.8154zM66.9072 90l52.6025 81.3594l54.3867 -81.3594h-43.8965v-140h-20v140h-43.0928z" />
    <glyph glyph-name="uniE02C" unicode="&#xe02c;" 
d="M70.125 169.257l88.5127 -40.6377l-34.6277 -23.084l45.99 -59.6826v-95.8525h-20v89.1416l-42.6636 55.2784l-37.3364 -24.8897z" />
    <glyph glyph-name="uniE02D" unicode="&#xe02d;" 
d="M89.9609 106.931l27.6904 18.459l-27.6514 12.6953zM70.125 169.257l88.5127 -40.6377l-34.6277 -23.084l45.99 -59.6826v-95.8525h-20v89.1416l-42.6636 55.2784l-37.3364 -24.8897z" />
    <glyph glyph-name="uniE02E" unicode="&#xe02e;" 
d="M169.875 169.257l0.125 -99.7266l-37.3364 24.8897l-42.6636 -55.2784v-89.1416h-20v95.8525l45.99 59.6826l-34.6277 23.084z" />
    <glyph glyph-name="uniE02F" unicode="&#xe02f;" 
d="M150 138.085l-27.6514 -12.6953l27.6904 -18.459zM90 -50h-20v95.8525l45.99 59.6826l-34.6277 23.084l88.5127 40.6377l0.125 -99.7266l-37.3364 24.8897l-42.6636 -55.2784v-89.1416z" />
    <glyph glyph-name="uniE030" unicode="&#xe030;" 
d="M179.51 171.359l54.3867 -81.3594h-43.8965v-140h-20v140h-43.0928zM59.5098 171.359l54.3867 -81.3594h-43.8965v-140h-20v140h-43.0928z" />
    <glyph glyph-name="uniE031" unicode="&#xe031;" 
d="M196.47 110l-16.6816 24.9551l-16.1338 -24.9551h32.8154zM126.907 90l52.6025 81.3594l54.3867 -81.3594h-43.8965v-140h-20v140h-43.0928zM76.4697 110l-16.6807 24.9551l-16.1348 -24.9551h32.8154zM6.90723 90l52.6025 81.3594l54.3867 -81.3594h-43.8965v-140h-20
v140h-43.0928z" />
    <glyph glyph-name="uniE032" unicode="&#xe032;" 
d="M230 169.257l0.124023 -99.7266l-36.7767 24.5166l-43.3473 -55.9053v-88.1416h-20v94.8525l46.6728 60.3101l-35.1865 23.4565zM59.4902 171.359l54.3857 -81.3594h-43.876v-140h-20v140h-43.1143z" />
    <glyph glyph-name="uniE033" unicode="&#xe033;" 
d="M210 106.931l-0.0390625 31.1543l-27.6514 -12.6953zM141.486 128.619l88.5137 40.6377l0.125 -99.7266l-36.7775 24.5169l-43.3475 -55.9055v-88.1416h-20v94.8525l46.6729 60.3103zM76.4512 110l-16.6826 24.9551l-16.1348 -24.9551h32.8174zM6.88574 90
l52.6045 81.3594l54.3857 -81.3594h-43.876v-140h-20v140h-43.1143z" />
    <glyph glyph-name="uniE034" unicode="&#xe034;" 
d="M10 69.5303l0.125 99.7266l88.5127 -40.6377l-35.2683 -23.511l46.6306 -60.2556v-94.8525h-20v88.1416l-43.305 55.8508zM190 90v-140h-20v140h-43.8652l54.3877 81.3594l52.6025 -81.3594h-43.125z" />
    <glyph glyph-name="uniE035" unicode="&#xe035;" 
d="M57.6514 125.39l-27.6514 12.6953l-0.0390625 -31.1543zM10 69.5303l0.125 99.7266l88.5137 -40.6377l-35.2691 -23.5113l46.6304 -60.2553v-94.8525h-20v88.1416l-43.3049 55.8506zM196.376 110l-16.1338 24.9551l-16.6826 -24.9551h32.8164zM126.134 90
l54.3877 81.3594l52.6035 -81.3594h-43.125v-140h-20v140h-43.8662z" />
    <glyph glyph-name="uniE036" unicode="&#xe036;" 
d="M170 -50v156.931c0 23.5391 -22.0654 42.6895 -45.5 42.6895s-44.5 -19.1504 -44.5 -42.6895v-26.9307h43.6748l-52.6025 -81.3594l-54.3877 81.3594h43.3154v26.9307c0 34.6162 30.0381 62.7783 64.5 62.7783s65.5 -28.1621 65.5 -62.7783v-156.931h-20z" />
    <glyph glyph-name="uniE037" unicode="&#xe037;" 
d="M70.793 35.0449l16.1338 24.9551h-32.8154zM170 -50v156.931c0 23.5391 -22.0654 42.6895 -45.5 42.6895s-44.5 -19.1504 -44.5 -42.6895v-26.9307h43.6748l-52.6025 -81.3594l-54.3877 81.3594h43.3154v26.9307c0 34.6162 30.0381 62.7783 64.5 62.7783
s65.5 -28.1621 65.5 -62.7783v-156.931h-20z" />
    <glyph glyph-name="uniE038" unicode="&#xe038;" 
d="M70 -50h-20v156.931c0 34.6162 31.0381 62.7783 65.5 62.7783s64.5 -28.1621 64.5 -62.7783v-26.9307h43l-54.3867 -81.3594l-52.6035 81.3594h43.9902v26.9307c0 23.5391 -21.0654 42.6895 -44.5 42.6895s-45.5 -19.1504 -45.5 -42.6895v-156.931z" />
    <glyph glyph-name="uniE039" unicode="&#xe039;" 
d="M185.574 60h-32.8164l16.1338 -24.9551zM168.613 -1.35938l-52.6035 81.3594h43.9902v26.9307c0 23.5391 -21.0654 42.6895 -44.5 42.6895s-45.5 -19.1504 -45.5 -42.6895v-156.931h-20v156.931c0 34.6162 31.0381 62.7783 65.5 62.7783s64.5 -28.1621 64.5 -62.7783
v-26.9307h43z" />
    <glyph glyph-name="uniE03A" unicode="&#xe03a;" 
d="M50 60v107h20v-107h-20zM170.629 171.359l54.3867 -81.3594h-45.0156v-37.1807l-110 -61.5v-39.3193h-20v51.6797l110 61.5v24.8203h-41.9736z" />
    <glyph glyph-name="uniE03B" unicode="&#xe03b;" 
d="M50 60v107h20v-107h-20zM187.59 110l-16.6816 24.9551l-16.1348 -24.9551h32.8164zM118.026 90l52.6025 81.3594l54.3867 -81.3594h-45.0156v-37.1807l-110 -61.5v-39.3193h-20v51.6797l110 61.5v24.8203h-41.9736z" />
    <glyph glyph-name="uniE03C" unicode="&#xe03c;" 
d="M170 60v107h20v-107h-20zM69.3867 171.359l52.6035 -81.3594h-41.9902v-24.8203l110 -61.5v-51.6797h-20v39.3193l-110 61.5v37.1807h-45z" />
    <glyph glyph-name="uniE03D" unicode="&#xe03d;" 
d="M170 60v107h20v-107h-20zM85.2422 110l-16.1338 24.9551l-16.6826 -24.9551h32.8164zM15 90l54.3867 81.3594l52.6035 -81.3594h-41.9902v-24.8203l110 -61.5v-51.6797h-20v39.3193l-110 61.5v37.1807h-45z" />
    <glyph glyph-name="uniE03E" unicode="&#xe03e;" 
d="M124.873 179.359l54.3857 -79.3594h-44.2588v-12.4229c0 -5.29688 4.27246 -8.3418 14.0215 -14.0283c9.90918 -5.78027 23.4785 -13.6963 23.4785 -30.4717c0 -23.2959 -26.3018 -28.6445 -45.5068 -32.5488c-17.2695 -3.51172 -29.4932 -6.49512 -29.4932 -12.9512
c0 -5.15625 4.23828 -8.19531 13.9092 -13.9014c9.95605 -5.87305 23.5908 -13.916 23.5908 -30.8467v-12.8291h-20v12.8291c0 4.9873 -4.19141 7.97949 -13.7529 13.6221c-10.0225 5.91309 -23.7471 14.0107 -23.7471 31.127c0 23.2969 26.3018 28.6445 45.5068 32.5498
c17.2695 3.51074 29.4932 6.49609 29.4932 12.9502c0 4.79004 -4.12988 7.69922 -13.5557 13.1953c-10.1064 5.89453 -23.9443 13.9658 -23.9443 31.3037v12.4229h-42.7314z" />
    <glyph glyph-name="uniE03F" unicode="&#xe03f;" 
d="M141.833 120l-16.6816 22.9551l-16.1348 -22.9551h32.8164zM72.2686 100l52.6045 79.3594l54.3857 -79.3594h-44.2588v-12.4229c0 -5.29688 4.27246 -8.3418 14.0215 -14.0283c9.90918 -5.78027 23.4785 -13.6963 23.4785 -30.4717
c0 -23.2959 -26.3018 -28.6445 -45.5068 -32.5488c-17.2695 -3.51172 -29.4932 -6.49512 -29.4932 -12.9512c0 -5.15625 4.23828 -8.19531 13.9092 -13.9014c9.95605 -5.87305 23.5908 -13.916 23.5908 -30.8467v-12.8291h-20v12.8291
c0 4.9873 -4.19141 7.97949 -13.7529 13.6221c-10.0225 5.91309 -23.7471 14.0107 -23.7471 31.127c0 23.2969 26.3018 28.6445 45.5068 32.5498c17.2695 3.51074 29.4932 6.49609 29.4932 12.9502c0 4.79004 -4.12988 7.69922 -13.5557 13.1953
c-10.1064 5.89453 -23.9443 13.9658 -23.9443 31.3037v12.4229h-42.7314z" />
    <glyph glyph-name="uniE040" unicode="&#xe040;" 
d="M180 30h44.3965l-54.3867 -81.3594l-52.6025 81.3594h42.5928v140h20v-140zM80 90v-140h-20v140h-42.5928l52.6025 81.3594l54.3867 -81.3594h-44.3965z" />
    <glyph glyph-name="uniE041" unicode="&#xe041;" 
d="M170.289 -14.9551l16.6807 24.9551h-32.8154zM86.9697 110l-16.6807 24.9551l-16.1348 -24.9551h32.8154zM17.4072 90l52.6025 81.3594l54.3867 -81.3594h-44.3965v-140h-20v140h-42.5928zM180 30h44.3965l-54.3867 -81.3594l-52.6025 81.3594h42.5928v140h20v-140z" />
    <glyph glyph-name="uniE042" unicode="&#xe042;" 
d="M47.8926 0l-42.8926 35l42.8926 35h62.1074v20h-70v70h70v20h20v-20h61.7598l42.8936 -35l-42.8936 -35h-61.7598v-20h69.6533v-70h-69.6533v-60h-20v60h-62.1074z" />
    <glyph glyph-name="uniE043" unicode="&#xe043;" 
d="M179.653 10v40h-124.64l-25.1055 -20l25.1055 -20h124.64zM47.8926 -10l-47.8926 40l47.8926 40h62.1074v20h-70v80h70v10h20v-10h61.7598l47.8936 -40l-47.8936 -40h-61.7598v-20h69.6533v-80h-69.6533v-50h-20v50h-62.1074zM184.639 110l25.1064 20l-25.1064 20
h-124.639v-40h124.639z" />
    <glyph glyph-name="uniE044" unicode="&#xe044;" 
d="M164.885 -29.1377c-5.35547 0 -10.3701 0.928711 -14.9014 2.75977c-4.64551 1.87598 -8.74707 4.67871 -12.1895 8.33105c-3.36328 3.56836 -6.08301 7.99023 -8.08398 13.1436c-0.662109 1.70312 -1.22168 3.31641 -1.69531 4.90332h-14.5146v15h12.2158
c-0.0498047 1.55566 -0.0732422 3.2002 -0.0732422 4.44922c0 1.23926 0.0234375 3.45703 0.0693359 4.65234l0.0283203 0.814453c0.000976562 0.0283203 0.00195312 0.0556641 0.00292969 0.0830078h-9.24316v15h11.3936c0.576172 2.03516 1.27441 3.02832 2.10547 5.02051
c2.07324 4.97559 4.82031 9.25977 8.16406 12.7354c3.44531 3.5791 7.53418 6.32129 12.1553 8.14941c4.49609 1.77832 9.48242 2.68066 14.8193 2.68066c3.19043 0 6.14844 -0.283203 8.79102 -0.84082c2.58105 -0.545898 4.91992 -1.24805 6.9541 -2.08984
c2.08691 -0.865234 3.94043 -1.8457 5.51172 -2.91602c1.40332 -0.957031 2.56836 -1.83789 3.56836 -2.7002c0.926758 -0.798828 1.66016 -1.4668 2.20801 -2.00293l-10.4873 -10.7266c-0.375977 0.368164 -0.880859 0.820312 -1.51172 1.36523
c-0.557617 0.480469 -1.30859 1.04297 -2.22559 1.66895c-0.72168 0.491211 -1.66602 0.980469 -2.80273 1.45117c-1.18164 0.489258 -2.63672 0.917969 -4.31641 1.27344c-1.62402 0.342773 -3.54004 0.516602 -5.69238 0.516602
c-3.43945 0 -6.56934 -0.547852 -9.30176 -1.62891c-2.64746 -1.04688 -4.89258 -2.55176 -6.86523 -4.60254c-2.04688 -2.12793 -3.77148 -3.85352 -5.12598 -7.10352c-0.0341797 -0.0830078 -0.0693359 -0.167969 -0.103516 -0.250977h29.7598v-15h-32.749
c-0.00683594 -0.204102 -0.0136719 -0.404297 -0.0205078 -0.59082l-0.0302734 -0.875c-0.0400391 -1.01758 -0.0585938 -3.04297 -0.0585938 -4.08594c0 -1.26074 0.0283203 -2.97949 0.0820312 -4.44922h31.2744v-15h-28.0967
c1.26855 -3.11133 2.88379 -5.71777 4.80566 -7.75684c1.97559 -2.0957 4.23047 -3.63867 6.89355 -4.71387c2.73828 -1.10645 5.86133 -1.66699 9.2832 -1.66699c2.30469 0 4.31934 0.199219 5.98828 0.594727c1.73633 0.40918 3.24805 0.914062 4.49902 1.49902
c1.20801 0.566406 2.21582 1.16016 2.99316 1.76172c1.0293 0.798828 1.89941 1.53027 2.58594 2.17285c0.729492 0.683594 1.30859 1.24805 1.7334 1.69727l10.8818 -10.3262c-0.582031 -0.612305 -1.36719 -1.38867 -2.36133 -2.31836
c-1.03711 -0.972656 -2.23145 -1.98047 -3.64746 -3.07812c-1.64844 -1.2793 -3.60742 -2.4541 -5.82031 -3.49121c-2.18652 -1.02441 -4.67969 -1.87012 -7.41309 -2.51465c-2.79199 -0.658203 -5.96973 -0.994141 -9.43652 -0.994141zM50 120v20h130v-20h-130zM100 0v-10
h-50v10h50zM100 20v-10h-50v10h50zM100 40v-10h-50v10h50zM100 50h-50v10h50v-10zM60 90v10h110v-10h-110zM30 -40h170v200h-170v-200zM220 -60h-210v240h210v-240z" />
    <glyph glyph-name="uniE045" unicode="&#xe045;" 
d="M147.99 56.3535c-0.209961 -0.0732422 -0.415039 -0.151367 -0.614258 -0.233398c-1.74414 -0.709961 -3.17773 -1.59863 -4.26562 -2.63965c-0.992188 -0.950195 -1.69434 -1.97656 -2.14746 -3.13867c-0.479492 -1.22949 -0.688477 -2.45898 -0.640625 -3.75586
c0.0537109 -1.45801 0.335938 -2.63477 0.814453 -3.40723c0.632812 -1.01758 1.44531 -1.85352 2.48438 -2.55566c1.24707 -0.84375 2.71582 -1.56738 4.36914 -2.15332v17.8838zM162.989 18.5049v-23.4619c2.05176 0.916992 3.77051 2.07227 5.11719 3.4375
c1.37793 1.39746 2.375 2.94727 3.0459 4.73828c0.692383 1.84961 0.989258 3.80078 0.90918 5.96582c-0.046875 1.25488 -0.266602 2.9873 -1.05176 4.12012c-0.852539 1.22949 -1.94531 2.23242 -3.33496 3.05957c-1.3916 0.829102 -2.96387 1.5459 -4.68555 2.14062z
M162.989 -29.875h-15v8.12305c-1.25391 0.105469 -2.45703 0.262695 -3.60645 0.46875c-2.84082 0.513672 -5.50879 1.2832 -7.92871 2.29004c-2.4834 1.03125 -4.83008 2.35645 -6.96777 3.93555c-2.2627 1.66602 -7.24414 6.33887 -8.51758 7.59473l10.5381 10.6738
c1.57617 -1.55566 5.72754 -5.34668 6.88086 -6.19824c1.1709 -0.863281 2.4541 -1.58789 3.82324 -2.15527c1.42969 -0.595703 3.05273 -1.05859 4.83105 -1.37988c0.305664 -0.0546875 0.621094 -0.103516 0.946289 -0.147461v29.3965
c-1.50391 0.448242 -2.97949 0.914062 -4.41309 1.39746c-3.08496 1.03906 -5.89746 2.40918 -8.35742 4.07227c-2.78516 1.88281 -5.08008 4.25977 -6.82324 7.06543c-1.88086 3.02637 -2.91113 6.64941 -3.06348 10.7676c-0.125 3.34082 0.432617 6.62598 1.65625 9.76172
c1.24707 3.19727 3.18066 6.06445 5.74902 8.52246c2.45703 2.35254 5.47656 4.26855 8.97461 5.69434c1.93359 0.790039 4.03418 1.39453 6.27832 1.81055v8.55469h15v-8.58008c0.898438 -0.183594 1.75977 -0.404297 2.58594 -0.662109
c2.8125 -0.879883 5.1377 -1.86816 7.10938 -3.02246c0.423828 -0.248047 0.889648 -0.484375 1.33887 -0.716797c1.32715 -0.683594 2.69922 -1.38965 3.89551 -2.44531c0.75 -0.589844 3.95508 -2.84375 6.57324 -4.64648l-8.50879 -12.3525
c-5.47168 3.76855 -7.11523 5.0166 -7.7334 5.53027c-0.258789 0.149414 -0.75293 0.404297 -1.0957 0.581055c-0.691406 0.356445 -1.40332 0.727539 -2.05273 1.10742c-0.433594 0.253906 -1.10938 0.598633 -2.11328 0.991211v-21.999
c0.954102 -0.270508 1.90039 -0.542969 2.83789 -0.818359c3.47754 -1.02246 6.67969 -2.39746 9.51855 -4.08594c3.22656 -1.91992 5.91211 -4.4082 7.98926 -7.39648c2.29297 -3.30859 3.54297 -7.38379 3.71875 -12.1162
c0.15332 -4.12891 -0.470703 -8.09375 -1.85352 -11.7852c-1.40625 -3.75293 -3.56445 -7.12109 -6.41406 -10.0098c-2.79785 -2.83691 -6.24609 -5.1416 -10.25 -6.85059c-1.74512 -0.745117 -3.59668 -1.35352 -5.5459 -1.82617v-9.14453zM50 120v20h130v-20h-130zM100 0
v-10h-50v10h50zM100 20v-10h-50v10h50zM100 40v-10h-50v10h50zM100 50h-50v10h50v-10zM60 90v10h110v-10h-110zM30 -40h170v200h-170v-200zM220 -60h-210v240h210v-240z" />
    <glyph glyph-name="uniE046" unicode="&#xe046;" 
d="M67.4258 -28c-2.60645 0 -5.11621 0.198242 -7.45508 0.588867c-1.9834 0.333008 -3.65527 1.62793 -4.47168 3.46582c-0.81543 1.83887 -0.655273 3.94824 0.430664 5.6416l1.44922 2.26172c3.19824 4.92871 8.10742 10.0293 15.0107 15.5977l0.836914 0.675781
l-0.882812 0.613281c-0.666016 0.462891 -1.2793 1.00879 -1.82617 1.62109c-1.63477 1.83301 -3.37695 5.17285 -2.38672 10.6729c2.72168 15.1006 24.5039 21.7607 33.7422 23.9219c5.4375 1.27246 9.25391 1.84082 12.375 1.84082
c4.01074 0 6.92578 -0.950195 9.17285 -2.99121c1.82715 -1.65723 3.85645 -4.74902 3.14648 -10.0654c-0.751953 -5.63574 -4.29785 -8.81348 -7.4248 -11.6182c-1.45996 -1.30859 -2.83594 -2.54199 -3.8418 -3.95801
c-1.11816 -1.57422 -2.93848 -2.51465 -4.87402 -2.51465c-1.24023 0 -2.43262 0.380859 -3.44824 1.10254c-1.2998 0.922852 -2.16211 2.2959 -2.43066 3.86719c-0.266602 1.57324 0.0947266 3.15527 1.01855 4.45508c1.78125 2.51074 3.90137 4.41016 5.60449 5.93652
c1.08789 0.974609 1.96777 1.77441 2.57324 2.47266l1.2793 1.47363l-1.94629 -0.140625c-2.05859 -0.147461 -4.91211 -0.647461 -8.4834 -1.48242c-10.6709 -2.49805 -22.9219 -7.9248 -24.6035 -13.9365l-0.276367 -0.988281l1.02539 -0.0361328
c0.217773 -0.00683594 0.446289 -0.0107422 0.68457 -0.0107422c1.21484 0 2.62207 0.0898438 3.55273 0.149414c1.24121 0.0800781 2.48242 0.160156 3.66211 0.160156c0.456055 0 0.90625 -0.0117188 1.34863 -0.0400391
c2.53223 -0.162109 4.69141 -1.91309 5.37305 -4.35742c0.679688 -2.44629 -0.265625 -5.05957 -2.35059 -6.50488c-5.13867 -3.5625 -12.1631 -8.43066 -17.8828 -13.6709l-2.13965 -1.95996l2.84473 0.574219c7.36816 1.4873 14.0381 4.72559 18.7822 9.11523
c1.10547 1.02441 2.54688 1.58887 4.05664 1.58887c1.13379 0 2.24023 -0.321289 3.19824 -0.930664c1.89844 -1.20605 2.95117 -3.34668 2.74414 -5.58594l-0.0947266 -1.02734l1.02051 0.15625c1.17773 0.179688 5.24219 1.19922 8.10449 6.80273
c1.02637 2.00684 3.06543 3.25293 5.32129 3.25293c0.43457 0 0.868164 -0.0478516 1.29004 -0.141602c2.65332 -0.589844 4.57324 -2.89746 4.6709 -5.61523c0.0332031 -0.945312 0.132812 -1.75195 0.299805 -2.39648l0.189453 -0.733398l0.743164 0.143555
c2.78906 0.532227 8.35449 4.15723 11.3535 8.03223c1.12207 1.45117 2.88672 2.31738 4.71973 2.31738c0.602539 0 1.20117 -0.0917969 1.78027 -0.272461c2.36914 -0.740234 4.0498 -2.90234 4.18262 -5.38086
c0.00878906 -0.170898 0.0195312 -0.331055 0.03125 -0.478516l0.0927734 -1.08496l1.00977 0.401367c3.04199 1.20898 8.00391 4.67188 10.3887 6.33594c3.08789 2.15332 5.52734 3.85547 7.64258 4.63379c0.660156 0.242188 1.35254 0.365234 2.05664 0.365234
c0.990234 0 1.97363 -0.249023 2.84375 -0.720703c1.50586 -0.816406 2.58984 -2.24219 2.97559 -3.91113c1.91113 -8.31055 0.0234375 -11.8174 -3.47559 -17.3018c-1.10742 -1.7373 -3.00293 -2.77344 -5.06738 -2.77441c-1.13184 0 -2.2334 0.321289 -3.18848 0.931641
c-1.38867 0.886719 -2.33105 2.25977 -2.65234 3.86523l-0.225586 1.125l-0.982422 -0.592773c-4.92285 -2.96875 -8.80859 -4.35156 -12.2285 -4.35254c-1.71387 0 -3.25879 0.347656 -4.72461 1.06348c-0.773438 0.376953 -1.49512 0.852539 -2.14648 1.41406
l-0.489258 0.422852l-0.518555 -0.385742c-3.48047 -2.58105 -8.75684 -5.65625 -14.1357 -5.65625c-1.34082 0 -2.63184 0.196289 -3.83691 0.584961c-1.45996 0.469727 -2.77832 1.21387 -3.9209 2.20898l-0.489258 0.426758l-0.521484 -0.386719
c-3.5957 -2.6709 -7.78906 -4.14258 -11.8066 -4.14258c-1.98438 0 -3.84668 0.352539 -5.5332 1.04492c-1.28027 0.525391 -2.42383 1.23926 -3.40039 2.12109l-0.439453 0.398438l-0.510742 -0.301758c-8.0625 -4.77051 -17.835 -7.39648 -27.5156 -7.39648zM180 50h-130
v50h130v-50zM180 120h-130v20h130v-20zM200 -40v200h-170v-200h170zM10 -60v240h210v-240h-210zM60 70v-10h70v10h-70zM60 80h70v10h-70v-10zM140 90v-10h30v10h-30zM170 70h-30v-10h30v10z" />
    <glyph glyph-name="uniE047" unicode="&#xe047;" 
d="M180 10h-130v90h130v-90zM180 -20h-70v10h70v-10zM180 120h-130v20h130v-20zM200 -40v200h-170v-200h170zM10 -60v240h210v-240h-210zM60 30v-10h70v10h-70zM60 40h70v10h-70v-10zM60 60h70v10h-70v-10zM60 80h70v10h-70v-10zM140 90v-10h30v10h-30zM170 60v10h-30v-10
h30zM170 50h-30v-10h30v10zM170 30h-30v-10h30v10z" />
    <glyph glyph-name="uniE048" unicode="&#xe048;" 
d="M100 -10h70v20h-70v-20zM180 -20h-90v40h90v-40zM180 120h-130v20h130v-20zM180 50h-30v10h30v-10zM180 90h-30v10h30v-10zM180 70h-30v10h30v-10zM120 50h-70v10h70v-10zM120 90h-70v10h70v-10zM130 70h-80v10h80v-10zM200 -40v200h-170v-200h170zM10 -60v240h210v-240
h-210z" />
    <glyph glyph-name="uniE049" unicode="&#xe049;" 
d="M180 10h-130v90h130v-90zM180 -20h-70v10h70v-10zM180 120h-130v20h130v-20zM200 -40v200h-170v-200h170zM10 -60v240h210v-240h-210zM60 30v-10h70v10h-70zM60 40h70v10h-70v-10zM60 60h70v10h-70v-10zM60 80h70v10h-70v-10zM140 90v-10h30v10h-30zM170 60v10h-30v-10
h30zM170 50h-30v-10h30v10zM170 30h-30v-10h30v10z" />
    <glyph glyph-name="uniE04A" unicode="&#xe04a;" 
d="M154.338 131.303c-0.956055 -0.415039 -1.74414 -0.916992 -2.34375 -1.49316c-0.570312 -0.546875 -0.97168 -1.13477 -1.22949 -1.79688c-0.276367 -0.712891 -0.397461 -1.4248 -0.370117 -2.17676c0.0302734 -0.820312 0.179688 -1.48438 0.419922 -1.87207
c0.357422 -0.577148 0.816406 -1.05176 1.40723 -1.45215c0.619141 -0.419922 1.32715 -0.791992 2.11621 -1.1123v9.90332zM166.004 105.618v-12.4834c0.522461 0.351562 0.988281 0.736328 1.40527 1.16016c0.833984 0.847656 1.43555 1.78711 1.83984 2.86914
c0.421875 1.13086 0.602539 2.3291 0.553711 3.66406c-0.0380859 1.0293 -0.234375 1.84961 -0.552734 2.30957c-0.499023 0.72168 -1.13867 1.31055 -1.95703 1.79785c-0.405273 0.243164 -0.834961 0.470703 -1.28906 0.682617zM166.004 72.4971h-11.667v6.91895
c-0.775391 0.0722656 -1.52246 0.172852 -2.24023 0.301758c-1.94922 0.353516 -3.78125 0.883789 -5.44922 1.58008c-1.72168 0.717773 -3.34082 1.63574 -4.81445 2.72754c-1.31934 0.974609 -2.61133 2.08594 -3.83398 3.29785l8.21289 8.28711
c0.825195 -0.818359 1.6875 -1.56055 2.56152 -2.20605c0.72168 -0.535156 1.51465 -0.983398 2.36426 -1.33789c0.892578 -0.37207 1.91211 -0.664062 3.03223 -0.866211c0.0546875 -0.00976562 0.110352 -0.0195312 0.166016 -0.0283203v17.9434
c-0.990234 0.295898 -1.95996 0.604492 -2.90332 0.922852c-2.12402 0.716797 -4.06348 1.66602 -5.76172 2.81934c-1.94824 1.31934 -3.55566 2.99023 -4.77832 4.96484c-1.32422 2.13965 -2.05176 4.69043 -2.1582 7.58203
c-0.0869141 2.34082 0.301758 4.6416 1.15527 6.83789c0.874023 2.24707 2.22656 4.25879 4.02051 5.98145c1.71094 1.64355 3.80762 2.97949 6.23242 3.97266c1.2998 0.530273 2.70117 0.94043 4.19336 1.22754v6.07617h11.667v-6.35742
c0.201172 -0.0546875 0.398438 -0.112305 0.592773 -0.174805c1.93066 -0.603516 3.53418 -1.29004 4.90332 -2.09375c1.28125 -0.75293 2.29883 -1.47266 3.1084 -2.19824c0.549805 -0.430664 2.77246 -2.02051 4.59375 -3.29883l-6.70508 -9.54785
c-4.87793 3.4248 -5.41504 3.91895 -5.67285 4.15625c-0.0302734 0.0263672 -0.243164 0.217773 -0.819336 0.579102v-12.5801c0.249023 -0.0722656 0.49707 -0.145508 0.745117 -0.21875c2.38086 -0.702148 4.5752 -1.64844 6.52441 -2.81055
c2.25098 -1.34375 4.125 -3.08594 5.57227 -5.17871c1.61426 -2.33301 2.49414 -5.19824 2.61719 -8.5166c0.105469 -2.8623 -0.326172 -5.61328 -1.2832 -8.17676c-0.974609 -2.6123 -2.47168 -4.95605 -4.44922 -6.9668
c-1.9375 -1.97168 -4.32227 -3.57129 -7.08691 -4.75391c-0.844727 -0.362305 -1.72559 -0.677734 -2.63965 -0.946289v-7.91895zM157.996 10h2.00391v-40h-66.9746l18.3633 10h38.6113v20h-8.24707zM60 10h30v-10h-50v-20h50v-10h-60v40h30zM100 60h30v-25.1641
l39.624 25.1641h50.376v100h-120v-100zM110 -0.0126953v40.0127h-30v140h160v-140h-68.1299zM60 90h-30v30h30v-30zM60 50v-10h-30v10h30zM60 60h-30v10h30v-10zM180 20h20v-80h-200v210h60v-20h-40v-170h160v60z" />
    <glyph glyph-name="uniE04B" unicode="&#xe04b;" 
d="M157.996 10h2.00391v-40h-66.9746l18.3633 10h38.6113v20h-8.24707zM60 10h30v-10h-50v-20h50v-10h-60v40h30zM166.191 70.0156c-4.24609 0 -8.22461 0.791992 -11.8213 2.35352c-3.69434 1.60254 -6.9541 3.99805 -9.69141 7.11621
c-2.66895 3.04004 -4.82715 6.80762 -6.41406 11.1973c-0.477539 1.32129 -0.888672 2.58008 -1.24121 3.81543h-11.0234v13.5566h8.77148c-0.0292969 1.04199 -0.0429688 2.09961 -0.0429688 2.92773c0 0.939453 0.0175781 1.86328 0.0527344 2.77148l0.0078125 0.232422
h-6.24707v12.71h8.63965c0.44043 1.50684 0.96582 2.98633 1.58203 4.4668c1.65625 3.97168 3.85156 7.39355 6.52441 10.1699c2.75781 2.86523 6.0332 5.05957 9.7334 6.52441c3.59473 1.42188 7.57812 2.14258 11.8398 2.14258
c2.54395 0 4.9043 -0.225586 7.0166 -0.670898c2.06445 -0.4375 3.93262 -0.999023 5.56055 -1.67188c1.66895 -0.691406 3.1543 -1.47852 4.41992 -2.33789c1.12207 -0.766602 2.05176 -1.4707 2.85156 -2.1582c0.739258 -0.636719 1.32129 -1.16895 1.75781 -1.59473
l-8.87988 -9.0957c-0.291992 0.285156 -0.682617 0.637695 -1.17383 1.05957c-0.425781 0.367188 -1.00586 0.800781 -1.71582 1.28516c-0.541016 0.367188 -1.25879 0.739258 -2.125 1.09766c-0.90625 0.375 -2.02539 0.704102 -3.32324 0.978516
c-1.24805 0.263672 -2.72559 0.397461 -4.39062 0.397461c-2.6543 0 -5.06445 -0.420898 -7.16504 -1.25195c-2.02441 -0.800781 -3.74121 -1.95215 -5.25 -3.51953c-1.48535 -1.54297 -2.75195 -3.5 -3.76855 -5.82324h22.7725v-12.71h-24.2832l-0.0244141 -0.698242
c-0.0292969 -0.758789 -0.0429688 -1.52637 -0.0429688 -2.30762c0 -0.830078 0.0166016 -1.92578 0.0488281 -2.92676h22.6074v-13.5566h-21.3047c0.928711 -2.27148 2.07422 -4.18945 3.41113 -5.71289c1.50098 -1.71094 3.21387 -2.96777 5.23633 -3.84766
c2.08789 -0.905273 4.47461 -1.36523 7.09375 -1.36523c1.76855 0 3.30957 0.164062 4.58203 0.486328c1.32812 0.337891 2.48242 0.750977 3.42969 1.22754c0.917969 0.461914 1.67676 0.941406 2.25781 1.42676c0.793945 0.661133 1.46387 1.26465 1.98926 1.79492
c0.564453 0.568359 1.01074 1.03516 1.33789 1.40527l9.1582 -9.32715c-0.459961 -0.522461 -1.08105 -1.17969 -1.86816 -1.9707c-0.819336 -0.825195 -1.76367 -1.68262 -2.88281 -2.61523c-1.31738 -1.09668 -2.87695 -2.10254 -4.63867 -2.98926
c-1.73047 -0.87207 -3.70996 -1.59277 -5.87988 -2.14453c-2.21973 -0.561523 -4.73926 -0.847656 -7.48438 -0.847656zM100 60h30v-25.1641l39.624 25.1641h50.376v100h-120v-100zM110 -0.0126953v40.0127h-30v140h160v-140h-68.1299zM60 90h-30v30h30v-30zM60 50v-10h-30
v10h30zM60 60h-30v10h30v-10zM180 20h20v-80h-200v210h60v-20h-40v-170h160v60z" />
    <glyph glyph-name="uniE04C" unicode="&#xe04c;" 
d="M120 -60c-66.168 0 -120 53.832 -120 120s53.832 120 120 120s120 -53.832 120 -120s-53.832 -120 -120 -120zM120.406 71.8057c-9.99805 0 -16.2168 -7.76953 -16.9922 -15.0811c-0.542969 -5.11621 0.892578 -9.9248 4.04297 -13.5361
c3.13477 -3.59668 7.72559 -5.73438 12.5947 -5.86621l0.474609 -0.00585938c8.01855 0 16.7266 5.97266 17.0547 17.0449c0.271484 9.05273 -6.62402 16.6895 -15.6982 17.3867c-0.494141 0.0390625 -0.990234 0.0576172 -1.47656 0.0576172zM57.4759 -17.3319
c17.0938 -13.8644 38.8567 -22.1798 62.5241 -22.1798c23.8454 0 45.7577 8.44102 62.9092 22.4937c-16.4083 12.7087 -37.3321 19.141 -62.334 19.141c-25.2085 0 -46.8326 -6.69732 -63.0993 -19.455zM201.847 3.52883c10.859 15.7095 17.3221 34.6826 17.5946 55.1238
c-1.31002 -0.0324223 -2.6959 -0.0656013 -4.12677 -0.0998735c-8.35156 -0.199219 -18.7441 -0.447266 -21.3398 -0.762695c-11.0635 -1.34375 -22.6123 -3.44434 -32.123 -9.64941c-3.60254 -2.34961 -5.71582 -5.0791 -6.28027 -8.10938
c-0.535156 -2.86914 0.345703 -5.92383 2.61816 -9.07812c4.67285 -6.48633 11.5869 -10.9688 17.7344 -14.499c1.65332 -0.948242 3.44922 -1.83594 5.18555 -2.69336l0.633789 -0.311523c5.89714 -2.90559 14.3672 -7.08164 20.1035 -9.92039zM215.208 88.7882
c-12.3688 40.879 -50.3717 70.7235 -95.2082 70.7235c-44.9051 0 -82.9546 -29.9348 -95.2642 -70.909c0.464306 0.103832 0.929344 0.20484 1.39507 0.302547c15.3232 3.21777 30.8916 5.33594 46.2715 6.29492c2.92188 0.181641 5.84375 0.389648 8.76465 0.59668
l0.205078 0.0146484c7.49512 0.533203 15.2275 1.08496 22.8945 1.20117c5.95508 0.0927734 12.3809 0.177734 19.0098 0.177734c15.0625 0 27.2832 -0.478516 38.459 -1.50684c2.51172 -0.229492 5.02246 -0.453125 7.53418 -0.676758
c5.9873 -0.533203 12.1777 -1.08496 18.2969 -1.73145c9.72887 -1.03072 18.8604 -2.51054 27.6418 -4.4872zM20.5588 58.6518c0.271393 -20.3473 6.67662 -39.2399 17.4457 -54.907c7.60364 3.5472 20.5434 9.58668 21.4144 10.016
c1.73438 0.856445 3.52832 1.74121 5.18652 2.69336c6.14648 3.53027 13.0605 8.01172 17.7334 14.499c2.27246 3.1543 3.15332 6.20801 2.61816 9.07812c-0.56543 3.03027 -2.67773 5.75977 -6.28125 8.10938c-9.51074 6.20508 -21.0596 8.30469 -32.123 9.64941
c-2.59082 0.31543 -13.2197 0.5625 -21.7598 0.761719c-1.46848 0.0342765 -2.89061 0.0675116 -4.23418 0.100018z" />
    <glyph glyph-name="uniE04D" unicode="&#xe04d;" 
d="M0 -60v19h240v-19h-240zM205.658 -7.5293c-6.62793 0 -12.5225 2.14258 -13.6357 2.57129c-6.46777 2.49219 -79.582 36.6543 -171.103 82.3096l-0.124023 0.0644531c-1.27148 0.725586 -2.33984 1.6748 -3.23047 2.88379
c-2.64062 3.57812 -2.6377 7.92676 -2.51367 9.63086l0.313477 4.21582c0.785156 10.4609 2.61621 34.8848 3.58691 49.7402l0.0117188 0.130859c0.397461 3.40527 2.99609 5.27246 5.48535 6.64746c0.390625 0.21582 0.841797 0.426758 1.65332 0.426758
c0.972656 0 2.51367 -0.313477 5.49707 -1.12109c2.96973 -0.803711 4.13281 -1.15137 4.79004 -1.43359c3.1123 -0.998047 5.54199 -2.70312 7.31152 -5.10254c2.92969 -3.97266 3.61328 -9.06641 4.27344 -13.9922c0.188477 -1.39258 0.359375 -2.66309 0.568359 -3.86133
l0.204102 -1.17188c1.04102 -5.98633 2.11621 -12.1758 3.66504 -18.0283l0.201172 -0.357422c0.500977 -0.680664 1.56445 -1.46191 2.71484 -1.99414c10.1211 -4.68945 20.8125 -9.45801 32.6875 -14.5771c1.80957 -0.780273 3.78711 -1.31445 5.88184 -1.87988
l2.2334 -0.609375l0.0458984 1.25977c0.0361328 0.987305 0.0673828 2.27539 0.105469 3.83887c0.130859 5.40918 0.347656 14.4033 1.18555 25.9434c1.07715 14.8447 -3.52051 30.4502 -3.56738 30.6055l-0.0380859 0.129883l-0.0214844 0.488281
c-0.103516 2.40137 -0.260742 6.02441 2.50098 8.41602c1.0459 0.907227 2.41211 1.36621 4.06152 1.36621c2.16504 0 4.56934 -0.798828 6.42383 -1.49609l0.151367 -0.0566406c2.86035 -1.07031 3.57812 -1.49023 6.5957 -3.25488l0.831055 -0.487305
c2.18359 -1.27539 4.06641 -2.97559 5.59863 -5.05273c1.52539 -2.06836 2.69922 -4.50879 3.48926 -7.25488c1.00391 -3.4873 1.98047 -6.9873 2.95801 -10.4863c2.12012 -7.5918 4.30957 -15.4365 6.74512 -23.0029c3.5498 -11.0352 8.7998 -25.3311 11.2744 -31.75
c1.91797 -4.97266 3.93652 -8.8623 6.16992 -11.8916c1.98926 -2.69824 4.1543 -4.68945 6.43457 -5.91895c4.61133 -2.4873 14.1816 -7.22949 24.3135 -12.249c11.708 -5.80176 23.8164 -11.7998 28.0371 -14.2314c4.05664 -2.33594 7.66504 -5.55859 10.4385 -9.31934
c6.12012 -8.29883 6.81738 -17.2344 1.81934 -23.3213c-3.68945 -4.48828 -9.08105 -6.7666 -16.0254 -6.7666z" />
    <glyph glyph-name="uniE04E" unicode="&#xe04e;" 
d="M0 -60v19h240v-19h-240zM32.2617 87.4219c85.3506 -42.5693 153.204 -74.2939 159.148 -76.585c0.0371094 -0.0136719 4.53809 -1.70117 9.03125 -1.70117c3.19043 0 5.49707 0.837891 6.85449 2.49121c1.64941 2.00977 0.161133 5.92969 -2.04688 8.92383
c-1.74512 2.36719 -4.01758 4.39551 -6.57129 5.86523c-3.65625 2.10742 -15.3506 7.90234 -25.6689 13.0137c-9.65527 4.78418 -18.7295 9.28027 -23.2168 11.7002c-3.52051 1.89941 -6.72656 4.78711 -9.52734 8.58301
c-2.66504 3.61426 -5.00293 8.07324 -7.14551 13.6309c-2.36523 6.13379 -7.38477 19.8057 -10.7842 30.373c-2.33887 7.26953 -4.41602 14.7031 -6.42383 21.8916c-0.936523 3.35449 -1.8457 6.61133 -2.78125 9.85938
c-0.394531 1.37109 -0.94043 2.53711 -1.62598 3.46387c-0.582031 0.789062 -1.28125 1.42578 -2.08105 1.8916l-0.779297 0.456055c-0.641602 0.375977 -1.13379 0.664062 -1.53613 0.893555c1.34766 -6.24023 3.00488 -16.4385 2.27246 -26.5205
c-0.770508 -10.625 -0.967773 -18.8779 -1.08594 -23.8096l-0.00292969 -0.125c-0.0644531 -2.60645 -0.102539 -4.18164 -0.1875 -5.35352c-0.109375 -1.47559 -0.410156 -2.76562 -0.920898 -3.94824l-2.20605 -5.11426l-5.53809 -0.573242
c-0.336914 -0.0341797 -0.814453 -0.0566406 -1.19043 -0.0615234l-1.66992 -0.125l-1.64648 0.5c-0.709961 0.208984 -1.44727 0.408203 -2.18262 0.606445c-2.24219 0.605469 -4.55762 1.23145 -6.95605 2.2666c-11.248 4.84863 -21.3701 9.36328 -30.9463 13.7988
c-1.58203 0.734375 -4.54199 2.38281 -6.60547 5.18457c-0.894531 1.21094 -1.53223 2.51953 -1.89648 3.88867c-1.57617 5.95508 -2.625 11.9932 -3.64062 17.833l-0.191406 1.09863c-0.21875 1.2627 -0.390625 2.51367 -0.592773 4.01758
c-0.422852 3.15625 -0.904297 6.73438 -2.04688 8.28613c-0.144531 0.194336 -0.479492 0.649414 -1.52637 0.976562l-0.87793 0.323242c-0.165039 0.0576172 -0.6875 0.216797 -2.0625 0.594727c-0.959961 -14.1455 -2.49414 -34.6055 -3.0918 -42.583l-0.301758 -4.04102
c-0.0576172 -0.758789 0.0908203 -1.52148 0.249023 -1.87109zM200.184 -9.86621c-5.08301 0 -10.625 1.05664 -15.6035 2.97461c-6.16406 2.375 -75.2197 34.623 -161.36 77.5938l-0.501953 0.267578c-2.25098 1.2832 -4.14355 2.97168 -5.67188 5.04395
c-3.99805 5.41992 -4.21191 11.5098 -3.98438 14.6572l0.297852 3.97852c0.666992 8.90137 2.43945 32.5479 3.36035 46.6172l0.046875 0.521484c0.619141 5.30859 3.7998 9.55859 9.45801 12.6797c1.76562 0.974609 3.6123 1.44727 5.64746 1.44727
c2.38184 0 4.78906 -0.650391 7.33594 -1.33887c2.79688 -0.756836 4.16504 -1.15137 5.27051 -1.59082c4.35938 -1.45996 8.05371 -4.11621 10.6855 -7.68164c4.03418 -5.4707 4.85938 -11.6074 5.58691 -17.0225l0.0175781 -0.130859
c0.148438 -1.10742 0.288086 -2.15137 0.46582 -3.16992l0.191406 -1.10059c0.777344 -4.47852 1.5791 -9.09766 2.60352 -13.4736c7.97949 -3.68555 16.3428 -7.42383 25.458 -11.3828c0.149414 4.5498 0.415039 10.6914 0.945312 18.0078
c0.884766 12.1719 -2.98633 25.6025 -3.02539 25.7363l-0.326172 1.11035l-0.0664062 1.49219c-0.114258 2.66211 -0.419922 9.72754 5.25391 14.6426c2.55762 2.21582 5.68945 3.33984 9.30957 3.33984c3.86719 0 7.35352 -1.31055 9.0293 -1.94043l0.121094 -0.0449219
c3.36816 -1.25977 4.57422 -1.96582 7.48926 -3.66992l0.801758 -0.470703c3.03711 -1.77344 5.65527 -4.13379 7.7793 -7.01465c2.03027 -2.75195 3.57617 -5.94434 4.59473 -9.48926c0.898438 -3.12012 1.77441 -6.25391 2.64941 -9.3877l0.145508 -0.517578
c1.97852 -7.08496 4.00879 -14.3555 6.2373 -21.2803c3.26953 -10.167 8.12891 -23.4014 10.4238 -29.3555c1.52637 -3.95605 3.06738 -6.96191 4.70898 -9.18945c1.09277 -1.48047 2.24902 -2.59375 3.25586 -3.13867c4.21484 -2.27246 13.1279 -6.68848 22.5645 -11.3633
l0.142578 -0.0703125c11.5635 -5.72949 22.4873 -11.1436 26.6445 -13.5391c4.81055 -2.77148 9.09082 -6.59375 12.3789 -11.0527c8.02539 -10.8828 8.59082 -23.5439 1.43945 -32.2568c-5.07227 -6.17383 -12.6094 -9.4375 -21.8008 -9.4375z" />
    <glyph glyph-name="uniE04F" unicode="&#xe04f;" 
d="M0 -60v20h240v-20h-240zM54.2686 13.3428c-4.89648 0.137695 -8.60742 3.03027 -9.97559 4.26855l-3.27637 2.97754c-7.2959 6.63574 -24.3838 22.1758 -34.874 31.5361l-0.121094 0.113281c-3.01172 2.97363 -2.85352 6.78125 -2.37695 9.76562
c0.339844 2.10742 1.47168 3.21973 5.47559 6.22168c2.39355 1.79785 3.33594 2.46484 4.03516 2.85938c2.76465 1.8623 5.69043 2.78613 8.76562 2.78613c0.142578 0 0.28418 -0.00195312 0.426758 -0.00585938c5.19727 -0.145508 9.64062 -2.74609 13.9365 -5.26172
c1.10254 -0.645508 2.14258 -1.25586 3.15723 -1.79785l1 -0.533203c4.89355 -2.61816 9.95312 -5.3252 15.002 -7.52148l0.276367 -0.121094l0.297852 0.0527344c0.3125 0.0566406 0.949219 0.208008 1.71875 0.603516c9.43359 4.83496 19.2539 10.0498 30.0205 15.9395
c1.18359 0.647461 2.35938 1.48145 3.35449 2.21289l1.03613 0.760742l-1.75684 1.44238c-3.99316 3.2793 -10.6807 8.76953 -18.8779 16.1885c-10.1064 9.14844 -24.2871 14.8213 -24.4287 14.877l-0.348633 0.137695l-0.576172 0.413086
c-2.03711 1.4541 -5.44336 3.88477 -5.66699 8.3125c-0.254883 5.03125 4.95703 8.21191 7.18262 9.57031l0.138672 0.0839844c2.61523 1.60352 3.46094 1.93848 6.60352 3.1875l0.84375 0.334961c2.30859 0.918945 4.75586 1.38379 7.28027 1.38379
c0.19043 0 0.380859 -0.00292969 0.573242 -0.0078125c2.67676 -0.0742188 5.42285 -0.670898 8.16309 -1.77637c3.2041 -1.29102 6.39941 -2.60742 9.59668 -3.92578c6.91699 -2.85156 14.0547 -5.79297 21.1309 -8.3916
c10.3115 -3.78711 24.0537 -8.20898 30.2949 -10.1064c4.68066 -1.42285 8.6084 -2.16113 12.0068 -2.25586c0.240234 -0.00683594 0.477539 -0.00976562 0.711914 -0.00976562c2.58984 0 4.8252 0.40332 6.64355 1.20215c4.5166 1.97852 13.6475 6.36133 23.3135 11.002
c11.2715 5.41113 22.9111 10.998 27.2451 12.7529c4.0752 1.65039 8.55859 2.52246 12.9639 2.52246c0.311523 0 0.62207 -0.00488281 0.933594 -0.0126953c10.752 -0.297852 18.5781 -5.59961 20.4219 -13.8379c3.4043 -15.2119 -13.2295 -25.6787 -15.1367 -26.8223
c-5.67871 -3.40039 -74.2002 -38.2529 -162.066 -80.1387l-0.157227 -0.0712891c-1.4834 -0.609375 -2.99023 -0.913086 -4.57422 -0.914062z" />
    <glyph glyph-name="uniE050" unicode="&#xe050;" 
d="M0 -60v20h240v-20h-240zM20.3271 59.3418c10.4551 -9.37598 25.4307 -23.0029 31.2695 -28.3164l2.875 -2.6123c0.579102 -0.525391 1.24805 -0.857422 1.6084 -0.944336c84.8232 40.457 150.64 73.917 156.031 77.1475c2.90723 1.7627 10.2109 7.51074 9.02344 12.8174
c-0.55957 2.50195 -4.50781 3.72559 -8.17188 3.82812c-0.204102 0.00585938 -0.405273 0.00976562 -0.605469 0.00976562c-2.68457 0 -5.42871 -0.538086 -7.93652 -1.55469c-3.8418 -1.55664 -15.3867 -7.09961 -25.5732 -11.9912l-0.172852 -0.0830078
c-9.5166 -4.56934 -18.5059 -8.88672 -23.1035 -10.9014c-3.34277 -1.46484 -7.16211 -2.20801 -11.3555 -2.20801c-0.362305 0 -0.726562 0.00585938 -1.09473 0.0166016c-4.41797 0.123047 -9.29883 1.01465 -14.918 2.72266
c-6.19141 1.88281 -19.8457 6.27734 -30.1279 10.0547c-7.13477 2.62109 -14.1777 5.52539 -20.9902 8.33496c-3.14355 1.2959 -6.19531 2.55371 -9.25195 3.78613c-1.30273 0.524414 -2.54004 0.806641 -3.67578 0.838867l-0.157227 0.00195312
c-0.924805 0 -1.79297 -0.15918 -2.5791 -0.47168l-0.811523 -0.323242c-0.6875 -0.273438 -1.21094 -0.481445 -1.63672 -0.655273c5.66406 -2.74023 14.5908 -7.64258 21.9736 -14.3291c7.75977 -7.02637 14.0635 -12.2031 17.8311 -15.2959
c2.0332 -1.67188 3.26172 -2.68066 4.1377 -3.47168c1.05859 -0.958984 1.87012 -1.95996 2.47949 -3.06055l2.69727 -4.8623l-2.97656 -4.69629c-0.172852 -0.273438 -0.444336 -0.652344 -0.65918 -0.933594l-0.918945 -1.37988l-1.38379 -0.962891
c-0.557617 -0.399414 -1.12988 -0.830078 -1.70312 -1.25977c-1.89258 -1.41992 -3.80371 -2.85449 -6.06445 -4.09082c-10.5547 -5.77637 -20.2012 -10.8994 -29.4883 -15.6621c-1.44922 -0.744141 -4.37109 -1.99219 -7.6543 -1.99219
c-0.126953 0 -0.253906 0.00195312 -0.381836 0.00585938c-1.47949 0.0380859 -2.88965 0.337891 -4.18359 0.892578c-5.57422 2.3877 -10.8955 5.23535 -16.043 7.99121l-0.964844 0.515625c-1.19141 0.636719 -2.40723 1.34863 -3.47949 1.97656
c-2.70996 1.58691 -5.78027 3.3877 -7.67969 3.43945l-0.0966797 0.000976562c-0.313477 0 -0.819336 -0.0625 -1.58691 -0.59375l-0.780273 -0.484375c-0.120117 -0.0751953 -0.524414 -0.355469 -1.71973 -1.24414zM55.7061 8.72363
c-6.63672 0.185547 -11.4951 3.7168 -13.8008 5.80469l-2.90527 2.63965c-5.8623 5.33398 -23.6963 21.5635 -34.1611 30.9043l-0.373047 0.348633c-5.62988 5.56348 -4.4873 12.6992 -4.1123 15.0439c0.788086 4.89844 4.03711 7.33496 7.79883 10.1582
c2.27441 1.70605 3.40918 2.53027 4.42773 3.125c3.60449 2.38477 7.70605 3.64355 11.8643 3.64355c0.194336 0 0.389648 -0.00195312 0.585938 -0.0078125c6.69531 -0.185547 11.9629 -3.27051 16.6104 -5.99316l0.110352 -0.0634766
c0.950195 -0.557617 1.84375 -1.08203 2.74121 -1.5625l0.967773 -0.515625c3.95508 -2.11621 8.0332 -4.29785 12.0459 -6.15625c7.69629 3.95898 15.6729 8.18555 24.2852 12.8672c-3.44922 2.88379 -8.0625 6.82129 -13.4111 11.6641
c-8.91406 8.07324 -21.2939 13.0586 -21.8164 13.2676l-1.06152 0.417969l-1.19824 0.855469c-2.13867 1.52832 -7.81348 5.58105 -8.1875 12.9707c-0.441406 8.69434 7.44727 13.5117 10.0391 15.0928l0.0966797 0.0615234
c3.04199 1.86328 4.32715 2.37305 7.42969 3.60645l0.816406 0.324219c3.00391 1.19531 6.16602 1.80176 9.40137 1.80176c0.259766 0 0.519531 -0.00488281 0.780273 -0.0126953c3.36621 -0.0927734 6.7832 -0.830078 10.1523 -2.18945
c3.10059 -1.25 6.19727 -2.52637 9.29395 -3.80371c6.7334 -2.77539 13.6543 -5.62988 20.4033 -8.1084c9.90039 -3.63867 23.1143 -7.8916 29.1182 -9.7168c3.99707 -1.2168 7.26758 -1.84473 9.99512 -1.91992
c0.157227 -0.00488281 0.317383 -0.00683594 0.475586 -0.00683594c2.06445 0 3.28027 0.34375 3.93457 0.629883c4.31055 1.89062 13.1523 6.13672 22.5127 10.6318l0.141602 0.0673828c11.459 5.50195 22.2861 10.7012 26.6816 12.4824
c4.7207 1.91309 9.90137 2.92383 14.9814 2.92383c0.371094 0 0.741211 -0.00488281 1.1123 -0.015625c13.3193 -0.370117 23.4951 -7.61523 25.9219 -18.458c3.25879 -14.5693 -7.48438 -26.8691 -17.6729 -32.9775c-5.58789 -3.34766 -72.5293 -37.4219 -158.153 -78.252
l-0.508789 -0.226562c-2.20605 -0.905273 -4.48926 -1.35352 -6.83887 -1.35352c-0.173828 -0.000976562 -0.349609 0.00683594 -0.524414 0.00683594z" />
    <glyph glyph-name="uniE051" unicode="&#xe051;" 
d="M217.5 -22.5c-6.76465 0 -22.5 2.92285 -22.5 30v22.5c0 7.76015 -7.57874 11.7859 -15 13.6426v-103.643h-160v214.875c0 13.876 11.249 25.125 25.125 25.125h109.75c13.876 0 25.125 -11.249 25.125 -25.125v-95.9242c15.4671 -3.07829 30 -12.8931 30 -28.9508v-22.5
c0 -15 5.25586 -15 7.5 -15c2.80469 0 7.5 0 7.5 15v49.3944l-30 29.9982v37.5007l-10.5527 10.553l10.6064 10.6064l44.9463 -44.9453v-93.1074c0 -24.7949 -12.2363 -30 -22.5 -30zM150 80v60h-100v-60h100zM210 109.393v-16.2855l15 -15.0011v16.2862z" />
    <glyph glyph-name="uniE052" unicode="&#xe052;" 
d="M217.5 -22.5c-6.76465 0 -22.5 2.92285 -22.5 30v22.5c0 7.76015 -7.57874 11.7859 -15 13.6426v-103.643h-170v214.875c0 13.876 11.249 25.125 25.125 25.125h119.75c13.876 0 25.125 -11.249 25.125 -25.125v-95.9242c15.4671 -3.07829 30 -12.8931 30 -28.9508v-22.5
c0 -15 5.25586 -15 7.5 -15c2.80469 0 7.5 0 7.5 15v49.3944l-30 29.9982v37.5007l-10.5527 10.553l10.6064 10.6064l44.9463 -44.9453v-93.1074c0 -24.7949 -12.2363 -30 -22.5 -30zM60 80h70v50h-70v-50zM140 70h-90v70h90v-70zM160 -40v194.875
c0 2.83008 -2.29492 5.125 -5.125 5.125h-119.75c-2.83008 0 -5.125 -2.29492 -5.125 -5.125v-194.875h130zM210 109.393v-16.2855l15 -15.0011v16.2862z" />
    <glyph glyph-name="uniE053" unicode="&#xe053;" 
d="M172.929 140h-2.92871h-41.3891l-8.48985 -10h49.877v-98.2178c-0.1875 0.000976562 -0.37207 0.0107422 -0.558594 0.0107422c-4.41016 0 -8.91504 -0.442383 -13.3877 -1.3125c-8.11621 -1.58008 -16.0244 -3.04199 -23.5518 -3.56641
c-13.9814 -0.973633 -28.2979 -1.64062 -42.2139 -2.28906c-5.21777 -0.243164 -10.4355 -0.486328 -15.6523 -0.745117c-9.64453 -0.478516 -17.4141 -5.18359 -21.3916 -12.5205c-0.59082 0.384766 -1.2041 0.737305 -1.83496 1.05176
c-2.16895 1.0791 -3.65527 2.08301 -5.38477 3.25c-2.83984 1.91699 -6.05957 4.08984 -11.4609 6.20605c-0.869141 0.341797 -1.74023 0.686523 -2.61523 1.03516c-3.6875 1.46582 -7.71191 3.05566 -11.9463 4.36426v102.733h60.3458l8.80935 10h-58.6718l42.6797 40
h51.2295h38.1777h50.3584zM180 130v2.92871l40 40v-134.65l-16.3096 -15.6406c-7.79004 4.28613 -15.6426 7.04785 -23.6904 8.32227v99.04zM128.176 -59.1592c-9.99219 0 -20.7051 2.64941 -32.751 8.10059c-3.1748 1.43555 -6.09277 2.73828 -8.81836 3.95801
c-14.0088 6.25781 -23.2637 10.3906 -36.5967 18.916c-7.70996 4.92871 -14.9619 10.2285 -21.9736 15.3555c-6.77734 4.95312 -13.7842 10.0752 -21.1748 14.8369l-0.161133 0.104492c-0.758789 0.484375 -1.7041 1.08984 -2.24707 2.05762
c-0.259766 0.462891 -0.80957 0.836914 -1.44434 1.27148c-1.625 1.1084 -4.08008 2.78418 -2.49902 7.45898c1.08887 3.22168 3.34277 4.9248 6.51758 4.9248c1.32227 0 2.58984 -0.282227 3.60742 -0.508789l0.538086 -0.118164
c5.62793 -1.18945 11.0742 -3.35449 16.3408 -5.44727c0.891602 -0.353516 1.78223 -0.708008 2.67188 -1.05664c4.16602 -1.63281 6.5752 -3.25977 9.12598 -4.98145c1.90137 -1.28418 3.86719 -2.61133 6.75 -4.0459c3.19434 -1.58887 6.29102 -6.69043 7.37988 -9.63574
c1.90332 -5.15723 10.2324 -10.8428 16.5039 -11.2676l-0.0175781 -0.261719c5.05762 -0.893555 31.6016 -3.90527 57.8164 -3.90527c4.81543 0 9.43359 0.101562 13.7324 0.301758c2.72754 0.125977 5.90723 1.31836 8.10254 3.03711
c0.682617 0.535156 1.33105 3.48145 0.936523 4.25977c-1.54785 1.89258 -4.42383 3.99707 -6.85742 4.25488c-2.37012 0.251953 -5.00195 0.375 -8.04492 0.375c-1.98926 0 -3.83008 -0.0507812 -5.45508 -0.0966797
c-1.22559 -0.0332031 -2.30469 -0.0625 -3.18848 -0.0634766c-3.79004 -0.199219 -7.68848 -0.295898 -11.918 -0.295898c-4.59473 0 -8.9541 0.113281 -13.1709 0.22168c-4.00488 0.104492 -7.78809 0.201172 -11.5771 0.201172
c-1.82812 0 -3.50195 -0.0234375 -5.11719 -0.0693359c-0.504883 -0.0146484 -1.01367 -0.0214844 -1.52441 -0.0214844c-4.53809 0 -8.91992 0.603516 -12.6719 1.74805c-4.24609 1.29492 -9.74023 3.89746 -8.43945 11.5273
c1.01562 5.9541 5.63574 9.56934 12.6777 9.91992c5.2041 0.258789 10.4102 0.500977 15.6152 0.742188c13.9375 0.649414 28.3486 1.32031 42.4902 2.30566c8.20703 0.570312 16.5146 2.10352 25.0117 3.75879c3.71973 0.723633 7.45215 1.0918 11.0938 1.0918
c12.4307 0 24.3184 -4.12305 36.3438 -12.6025c10.3633 -7.30957 20.4502 -14.7832 29.8066 -21.7705c5.62988 -4.20508 5.45801 -6.20898 1.79102 -11.9463c-2.87988 -4.50391 -5.75098 -8.36426 -8.52832 -12.0996c-3.34668 -4.50098 -6.50781 -8.75293 -9.68262 -14.0371
c-0.509766 -0.847656 -2.05957 -3.42871 -4.74023 -3.42871c-1.01172 0 -2.06348 0.375977 -3.12695 1.11914c-5.37305 3.74805 -11.1787 5.49512 -18.2695 5.49512c-5.25293 0 -10.623 -0.943359 -17.0713 -2.36133c-9.06934 -1.99219 -20.123 -3.68555 -29.0039 -5.04395
c-3.6377 -0.557617 -6.7793 -1.03809 -9.31152 -1.46582c-3.21875 -0.546875 -6.31641 -0.8125 -9.4707 -0.8125z" />
    </font>
</defs>
</svg>
