<?xml version="1.0" encoding="UTF-8"?>
<!DOCTYPE svg PUBLIC "-//W3C//DTD SVG 1.1//EN" "http://www.w3.org/Graphics/SVG/1.1/DTD/svg11.dtd">
<svg version="1.1" id="Layer_1" xmlns="http://www.w3.org/2000/svg" xmlns:xlink="http://www.w3.org/1999/xlink" x="0px" y="0px" width="16px" height="16px" viewBox="0 0 16 16" enable-background="new 0 0 16 16" xml:space="preserve">
  <g id="icon">
    <path d="M4.11,12.443l0.861,-6.983c0.006,-0.038,0.017,-0.123,0.017,-0.127l0.043,-0.34l0.713,-0.193l0.208,0.283c0.007,0.01,0.049,0.067,0.065,0.087l0.011,0.014l4.278,5.576l-0.812,0.621L8.108,9.573l-2.704,0.734l-0.279,2.261L4.11,12.443zM5.539,9.212l1.896,-0.515L5.857,6.639L5.539,9.212zM9.572,5.941l-1.394,0.378l-0.268,-0.986l1.394,-0.378l-0.379,-1.392l0.987,-0.268l0.379,1.392l1.394,-0.378l0.268,0.986l-1.394,0.378l0.379,1.392l-0.987,0.268L9.572,5.941z" fill="#EF3E3B"/>
    <path d="M7.043,15.3c-0.237,0,-0.446,-0.008,-0.573,-0.021c-1.537,-0.154,-2.896,-0.74,-4.039,-1.739C1.212,12.475,0.333,10.911,0.08,9.356c-0.104,-0.64,-0.107,-1.427,-0.008,-2.107c0.123,-0.857,0.373,-1.675,0.764,-2.501c0.782,-1.654,1.99,-3.008,3.491,-3.914c0.322,-0.195,0.757,-0.412,0.915,-0.475L5.387,0.3l0.052,0.147c0.03,0.084,0.084,0.25,0.149,0.463c0.049,0.158,0.104,0.335,0.127,0.434l0.025,0.11l-0.099,0.054c-0.032,0.018,-0.101,0.054,-0.196,0.097C4.757,1.92,4.165,2.303,3.58,2.81c-0.227,0.197,-0.754,0.745,-0.94,0.977c-0.897,1.128,-1.452,2.426,-1.604,3.755c-0.04,0.357,-0.04,1.033,0.002,1.365c0.129,1.069,0.579,2.159,1.268,3.071c0.213,0.282,0.691,0.785,0.965,1.015c0.941,0.787,2.031,1.248,3.239,1.37c0.132,0.013,0.331,0.021,0.559,0.021c0.326,0,0.643,-0.015,0.826,-0.038c1.013,-0.134,2.016,-0.485,3.066,-1.073c0.918,-0.514,1.674,-1.097,2.38,-1.835c0.648,-0.681,1.076,-1.292,1.431,-2.043c0.394,-0.839,0.558,-1.571,0.534,-2.375c-0.019,-0.666,-0.14,-1.171,-0.43,-1.801c-0.283,-0.616,-0.613,-1.081,-1.103,-1.556c-0.89,-0.863,-2.141,-1.432,-3.523,-1.6c-0.297,-0.036,-0.608,-0.054,-0.922,-0.054c-0.732,0,-1.493,0.099,-2.2,0.286c-0.02,0.005,-0.064,0.017,-0.102,0.025L6.9,2.347l-0.047,-0.117c-0.025,-0.063,-0.054,-0.154,-0.071,-0.209c-0.017,-0.055,-0.049,-0.157,-0.064,-0.224l-0.03,-0.134l0.131,-0.041c0.045,-0.014,0.12,-0.033,0.159,-0.043c0.89,-0.227,1.63,-0.328,2.403,-0.328c0.072,0,0.144,0.001,0.217,0.003c0.451,0.01,0.784,0.041,1.186,0.111c1.362,0.24,2.472,0.771,3.392,1.623c0.948,0.876,1.616,2.191,1.788,3.517c0.035,0.264,0.047,0.806,0.025,1.094c-0.176,2.186,-1.526,4.329,-3.702,5.879c-1.407,1.002,-3.004,1.639,-4.497,1.793C7.618,15.289,7.331,15.3,7.043,15.3z" fill="#EF3E3B"/>
  </g>
</svg>
