<?xml version="1.0" encoding="UTF-8"?>
<!DOCTYPE svg PUBLIC "-//W3C//DTD SVG 1.1//EN" "http://www.w3.org/Graphics/SVG/1.1/DTD/svg11.dtd">
<svg version="1.1" id="Layer_1" xmlns="http://www.w3.org/2000/svg" xmlns:xlink="http://www.w3.org/1999/xlink" x="0px" y="0px" width="16px" height="16px" viewBox="0 0 16 16" enable-background="new 0 0 16 16" xml:space="preserve">
  <g id="icon">
    <path d="M12.433,15.5H3.567C1.873,15.5,0.5,14.127,0.5,12.433V3.567C0.5,1.873,1.873,0.5,3.567,0.5h8.867C14.127,0.5,15.5,1.873,15.5,3.567v8.867C15.5,14.127,14.127,15.5,12.433,15.5z" fill="#92CBEE" stroke="#0964B0" stroke-width="1" stroke-miterlimit="1"/>
    <path d="M5.5,5.625c0.044,-0.829,0.49,-2.129,2.498,-2.129c2.131,0,2.502,1.462,2.502,2.274c0,1.156,-0.895,1.977,-2.483,2.231H7.61M5.5,10.371C5.544,11.2,5.99,12.5,7.998,12.5c2.131,0,2.502,-1.462,2.502,-2.274c0,-1.052,-0.889,-1.973,-2.483,-2.225H7.61" fill="none" stroke="#383838" stroke-width="1" stroke-miterlimit="1"/>
  </g>
</svg>
