<?xml version="1.0" encoding="UTF-8"?>
<!DOCTYPE svg PUBLIC "-//W3C//DTD SVG 1.1//EN" "http://www.w3.org/Graphics/SVG/1.1/DTD/svg11.dtd">
<svg version="1.1" id="Layer_1" xmlns="http://www.w3.org/2000/svg" xmlns:xlink="http://www.w3.org/1999/xlink" x="0px" y="0px" width="16px" height="16px" viewBox="0 0 16 16" enable-background="new 0 0 16 16" xml:space="preserve">
  <g id="icon">
    <path d="M7.999,4.815l1.073,2.688H6.927L7.999,4.815zM15.5,7.056c0,3.619,-3.358,6.553,-7.5,6.553c-0.346,0,-0.686,-0.02,-1.02,-0.06c-0.38,0.158,-4.919,1.655,-4.919,1.655s0.838,-2.39,0.93,-3.269C1.462,10.734,0.5,8.993,0.5,7.056C0.5,3.437,3.858,0.503,8,0.503C12.142,0.503,15.5,3.437,15.5,7.056zM11.249,10.258L8.542,3.476l-0.008,-0.019c-0.014,-0.032,-0.043,-0.109,-0.043,-0.111l-0.122,-0.326H7.64l-0.127,0.314c0,0.001,-0.036,0.09,-0.05,0.122l-2.712,6.801l0.928,0.375l0.846,-2.124h2.947l0.847,2.124L11.249,10.258z" fill="#B887BC"/>
    <path d="M1.252,16l0.338,-0.964c0.203,-0.578,0.705,-2.093,0.863,-2.893C0.89,10.815,0,8.977,0,7.056C0,3.165,3.589,0,8,0s8,3.165,8,7.056c0,3.891,-3.589,7.056,-8,7.056c-0.319,0,-0.64,-0.017,-0.956,-0.05c-0.797,0.289,-4.391,1.476,-4.826,1.62L1.252,16zM8,1.007c-3.86,0,-7,2.714,-7,6.049c0,1.702,0.838,3.335,2.299,4.481l0.219,0.172l-0.029,0.278c-0.059,0.565,-0.379,1.634,-0.634,2.424c1.712,-0.567,3.711,-1.235,3.935,-1.328l0.12,-0.05l0.129,0.015c0.316,0.038,0.64,0.057,0.961,0.057c3.86,0,7,-2.714,7,-6.049C15,3.72,11.86,1.007,8,1.007z" fill="#735477"/>
    <path d="M10.321,10.634L9.473,8.51H6.526l-0.846,2.124l-0.928,-0.375l2.712,-6.801c0.014,-0.032,0.05,-0.121,0.05,-0.122l0.127,-0.314h0.729l0.122,0.326c0.001,0.001,0.029,0.079,0.043,0.111l0.008,0.019l2.706,6.782L10.321,10.634zM6.927,7.503h2.144L7.999,4.815L6.927,7.503z" fill="#FFFFFF"/>
  </g>
</svg>
