<?xml version="1.0" encoding="UTF-8"?>
<!DOCTYPE svg PUBLIC "-//W3C//DTD SVG 1.1//EN" "http://www.w3.org/Graphics/SVG/1.1/DTD/svg11.dtd">
<svg version="1.1" id="Layer_1" xmlns="http://www.w3.org/2000/svg" xmlns:xlink="http://www.w3.org/1999/xlink" x="0px" y="0px" width="16px" height="16px" viewBox="0 0 16 16" enable-background="new 0 0 16 16" xml:space="preserve">
  <g id="icon">
    <path d="M3.963,11.716c0.373,0.48,1.076,0.612,1.597,0.201c0.504,-0.397,0.572,-1.109,0.202,-1.602c-0.364,-0.485,-1.075,-0.629,-1.604,-0.212C3.655,10.5,3.582,11.214,3.963,11.716zM8.201,14.261l-1.037,-0.575c-0.016,-0.009,-0.035,-0.007,-0.05,0.003c-0.246,0.181,-0.515,0.329,-0.801,0.439c-0.017,0.007,-0.029,0.023,-0.03,0.041l-0.07,1.152c-0.001,0.023,-0.019,0.042,-0.042,0.044l-1.226,0.138c-0.023,0.003,-0.044,-0.012,-0.05,-0.034l-0.324,-1.125c-0.005,-0.017,-0.02,-0.03,-0.037,-0.033c-0.297,-0.049,-0.579,-0.135,-0.842,-0.253c-0.017,-0.007,-0.036,-0.005,-0.05,0.008l-0.85,0.759c-0.017,0.015,-0.043,0.016,-0.06,0.002l-0.964,-0.778c-0.018,-0.014,-0.023,-0.04,-0.012,-0.06l0.55,-1.012c0.009,-0.016,0.007,-0.036,-0.003,-0.05c-0.186,-0.259,-0.338,-0.543,-0.448,-0.845c-0.006,-0.018,-0.022,-0.03,-0.041,-0.031l-1.109,-0.069c-0.023,-0.001,-0.041,-0.019,-0.044,-0.042l-0.137,-1.238c-0.003,-0.023,0.012,-0.044,0.034,-0.051l1.103,-0.324c0.017,-0.005,0.03,-0.02,0.033,-0.037c0.052,-0.302,0.14,-0.588,0.261,-0.854c0.008,-0.017,0.005,-0.037,-0.007,-0.051l-0.751,-0.857c-0.015,-0.017,-0.016,-0.043,-0.001,-0.061l0.77,-0.973c0.014,-0.018,0.039,-0.023,0.059,-0.012l1.022,0.566c0.016,0.009,0.035,0.007,0.049,-0.003c0.251,-0.179,0.525,-0.325,0.816,-0.432c0.017,-0.006,0.03,-0.023,0.031,-0.041l0.07,-1.151c0.001,-0.023,0.019,-0.042,0.042,-0.044l1.226,-0.138c0.023,-0.003,0.044,0.012,0.05,0.034l0.333,1.156c0.005,0.017,0.019,0.03,0.037,0.033c0.282,0.052,0.55,0.137,0.801,0.251c0.017,0.008,0.036,0.005,0.05,-0.008l0.883,-0.788c0.017,-0.015,0.043,-0.016,0.06,-0.002l0.964,0.778c0.018,0.014,0.023,0.04,0.012,0.06l-0.58,1.066c-0.009,0.016,-0.007,0.035,0.003,0.05c0.171,0.243,0.311,0.507,0.415,0.787c0.007,0.017,0.022,0.029,0.041,0.031l1.172,0.073c0.023,0.001,0.041,0.019,0.044,0.042l0.137,1.238c0.003,0.023,-0.012,0.044,-0.034,0.051l-1.157,0.34c-0.017,0.005,-0.03,0.02,-0.033,0.037c-0.048,0.283,-0.129,0.552,-0.238,0.804c-0.007,0.017,-0.004,0.036,0.008,0.05l0.781,0.892c0.015,0.017,0.016,0.043,0.001,0.061l-0.77,0.973C8.246,14.267,8.221,14.272,8.201,14.261z" fill="#FFFFFF" stroke="#A0519F" stroke-width="0.9" stroke-miterlimit="1"/>
    <path d="M15.365,8.378c-0.138,0.271,-0.323,0.551,-0.513,0.787c-0.012,0.015,-0.033,0.02,-0.051,0.012L13.949,8.8c-0.015,-0.007,-0.032,-0.004,-0.045,0.006c-0.131,0.109,-0.276,0.204,-0.434,0.284c-0.163,0.083,-0.331,0.144,-0.501,0.186c-0.016,0.004,-0.029,0.017,-0.032,0.033l-0.196,0.918c-0.004,0.02,-0.021,0.034,-0.04,0.035c-0.302,0.014,-0.634,-0.007,-0.932,-0.055c-0.019,-0.003,-0.034,-0.019,-0.036,-0.039l-0.102,-0.938c-0.002,-0.016,-0.013,-0.03,-0.028,-0.036c-0.326,-0.122,-0.625,-0.317,-0.872,-0.576c-0.011,-0.012,-0.029,-0.017,-0.044,-0.011l-0.884,0.288c-0.019,0.006,-0.039,-0.001,-0.05,-0.018c-0.163,-0.257,-0.311,-0.557,-0.419,-0.842c-0.007,-0.019,-0.001,-0.039,0.015,-0.051l0.746,-0.552c0.013,-0.01,0.02,-0.026,0.017,-0.043c-0.063,-0.359,-0.041,-0.723,0.057,-1.065c0.005,-0.016,0,-0.033,-0.012,-0.044l-0.679,-0.62c-0.015,-0.013,-0.019,-0.035,-0.01,-0.053c0.138,-0.271,0.323,-0.551,0.513,-0.787c0.012,-0.015,0.033,-0.02,0.051,-0.012l0.834,0.37c0.015,0.007,0.032,0.004,0.045,-0.007c0.137,-0.116,0.289,-0.218,0.455,-0.302c0.163,-0.083,0.331,-0.144,0.5,-0.186c0.016,-0.004,0.029,-0.017,0.032,-0.033l0.189,-0.892c0.004,-0.02,0.021,-0.034,0.04,-0.035c0.302,-0.015,0.634,0.006,0.932,0.054c0.019,0.003,0.034,0.019,0.036,0.039l0.1,0.91c0.002,0.016,0.013,0.03,0.028,0.036c0.336,0.124,0.645,0.326,0.897,0.596c0.011,0.012,0.029,0.017,0.045,0.012l0.862,-0.281c0.019,-0.006,0.039,0.001,0.05,0.018c0.163,0.256,0.311,0.557,0.419,0.842c0.007,0.019,0.001,0.039,-0.015,0.051l-0.738,0.547c-0.013,0.01,-0.02,0.026,-0.017,0.042c0.06,0.361,0.035,0.727,-0.067,1.069c-0.005,0.016,0,0.034,0.012,0.045l0.682,0.623C15.37,8.338,15.374,8.36,15.365,8.378zM12.464,6.146c-0.463,-0.027,-0.86,0.331,-0.887,0.798c-0.027,0.468,0.327,0.868,0.791,0.895c0.463,0.027,0.86,-0.331,0.887,-0.798C13.282,6.574,12.928,6.173,12.464,6.146z" fill="#FFFFFF" stroke="#383838" stroke-width="0.8" stroke-miterlimit="1"/>
    <path d="M9.778,3.132c-0.014,0.249,-0.059,0.52,-0.123,0.761c-0.004,0.016,-0.018,0.026,-0.034,0.027l-0.761,0.004c-0.013,0,-0.025,0.008,-0.031,0.02c-0.062,0.125,-0.139,0.246,-0.23,0.359c-0.094,0.117,-0.2,0.219,-0.313,0.308c-0.011,0.008,-0.016,0.022,-0.013,0.036l0.157,0.752c0.003,0.016,-0.004,0.032,-0.019,0.04c-0.221,0.112,-0.476,0.208,-0.714,0.273c-0.016,0.004,-0.032,-0.003,-0.04,-0.017l-0.386,-0.667c-0.007,-0.012,-0.019,-0.018,-0.033,-0.017c-0.284,0.019,-0.572,-0.026,-0.842,-0.137c-0.013,-0.005,-0.027,-0.003,-0.037,0.006l-0.566,0.513c-0.012,0.011,-0.03,0.012,-0.043,0.004c-0.207,-0.137,-0.417,-0.312,-0.591,-0.488c-0.011,-0.011,-0.014,-0.029,-0.006,-0.043l0.375,-0.664c0.007,-0.012,0.006,-0.026,-0.002,-0.038c-0.166,-0.247,-0.269,-0.527,-0.309,-0.815c-0.002,-0.014,-0.011,-0.025,-0.024,-0.029l-0.713,-0.235c-0.015,-0.005,-0.026,-0.02,-0.025,-0.036c0.014,-0.249,0.059,-0.52,0.123,-0.761c0.004,-0.016,0.018,-0.026,0.034,-0.027l0.745,-0.004c0.014,0,0.026,-0.008,0.032,-0.02c0.064,-0.133,0.144,-0.26,0.24,-0.379c0.094,-0.117,0.199,-0.219,0.313,-0.307c0.011,-0.008,0.016,-0.022,0.013,-0.036l-0.153,-0.731c-0.003,-0.016,0.004,-0.032,0.019,-0.04c0.221,-0.112,0.476,-0.209,0.714,-0.273c0.016,-0.004,0.032,0.003,0.04,0.017l0.375,0.646c0.007,0.012,0.02,0.018,0.033,0.017c0.292,-0.02,0.59,0.027,0.867,0.144c0.013,0.005,0.027,0.003,0.037,-0.006l0.551,-0.5c0.012,-0.011,0.03,-0.012,0.043,-0.004c0.207,0.137,0.417,0.312,0.591,0.488c0.011,0.011,0.014,0.029,0.006,0.043l-0.371,0.657c-0.007,0.012,-0.006,0.026,0.001,0.037c0.164,0.25,0.266,0.532,0.303,0.822c0.002,0.014,0.011,0.025,0.024,0.029l0.715,0.236C9.769,3.101,9.779,3.115,9.778,3.132zM6.905,2.525c-0.309,0.118,-0.464,0.467,-0.347,0.779s0.462,0.469,0.771,0.35s0.464,-0.467,0.347,-0.779S7.214,2.406,6.905,2.525z" fill="#FFFFFF" stroke="#383838" stroke-width="0.8" stroke-miterlimit="1"/>
  </g>
</svg>
