<?xml version="1.0" encoding="UTF-8"?>
<!DOCTYPE svg PUBLIC "-//W3C//DTD SVG 1.1//EN" "http://www.w3.org/Graphics/SVG/1.1/DTD/svg11.dtd">
<svg version="1.1" id="Layer_1" xmlns="http://www.w3.org/2000/svg" xmlns:xlink="http://www.w3.org/1999/xlink" x="0px" y="0px" width="16px" height="16px" viewBox="0 0 16 16" enable-background="new 0 0 16 16" xml:space="preserve">
  <g id="icon">
    <line x1="1.5" y1="0" x2="1.5" y2="16" fill="#FFFFFF" stroke="#383838" stroke-width="1" stroke-miterlimit="1"/>
    <line x1="14.5" y1="16" x2="14.5" y2="0" fill="#FFFFFF" stroke="#383838" stroke-width="1" stroke-miterlimit="1"/>
    <path d="M4,5h1V4H4V5zM6,5h1V4H6V5zM8,5h1V4H8V5zM3,4H2v1h1V4zM10,4v1h4V4H10z" fill="#383838"/>
    <path d="M9.5,7c-0.276,0,-0.5,-0.224,-0.5,-0.5V2.5c0,-0.276,0.224,-0.5,0.5,-0.5s0.5,0.224,0.5,0.5v4C10,6.776,9.776,7,9.5,7zM7.5,7c-0.276,0,-0.5,-0.224,-0.5,-0.5V2.5c0,-0.276,0.224,-0.5,0.5,-0.5s0.5,0.224,0.5,0.5v4C8,6.776,7.776,7,7.5,7zM5.5,7c-0.276,0,-0.5,-0.224,-0.5,-0.5V2.5c0,-0.276,0.224,-0.5,0.5,-0.5s0.5,0.224,0.5,0.5v4C6,6.776,5.776,7,5.5,7zM3.5,7c-0.276,0,-0.5,-0.224,-0.5,-0.5V2.5c0,-0.276,0.224,-0.5,0.5,-0.5s0.5,0.224,0.5,0.5v4C4,6.776,3.776,7,3.5,7z" fill="#0964B0"/>
    <path d="M12,11h-1v1h1V11zM10,11H9v1h1V11zM13,12h1v-1h-1V12zM2,11v1h6v-1H2z" fill="#383838"/>
    <path d="M12.5,14c-0.276,0,-0.5,-0.224,-0.5,-0.5V9.5c0,-0.276,0.224,-0.5,0.5,-0.5s0.5,0.224,0.5,0.5v4C13,13.776,12.776,14,12.5,14zM10.5,14c-0.276,0,-0.5,-0.224,-0.5,-0.5V9.5c0,-0.276,0.224,-0.5,0.5,-0.5s0.5,0.224,0.5,0.5v4C11,13.776,10.776,14,10.5,14zM8.5,14c-0.276,0,-0.5,-0.224,-0.5,-0.5V9.5c0,-0.276,0.224,-0.5,0.5,-0.5s0.5,0.224,0.5,0.5v4C9,13.776,8.776,14,8.5,14z" fill="#0964B0"/>
  </g>
</svg>
