<?xml version="1.0" encoding="UTF-8"?>
<!DOCTYPE svg PUBLIC "-//W3C//DTD SVG 1.1//EN" "http://www.w3.org/Graphics/SVG/1.1/DTD/svg11.dtd">
<svg version="1.1" id="Layer_1" xmlns="http://www.w3.org/2000/svg" xmlns:xlink="http://www.w3.org/1999/xlink" x="0px" y="0px" width="16px" height="16px" viewBox="0 0 16 16" enable-background="new 0 0 16 16" xml:space="preserve">
  <g id="icon">
    <path d="M6.826,15.495c-0.451,0,-0.814,0.031,-1.165,-0.059c-0.475,-0.122,-0.287,-0.61,-0.435,-0.978c-0.22,-0.545,-1.214,-0.228,-1.648,-0.185c-0.53,0.053,-1.257,0.138,-1.632,-0.321c-0.394,-0.483,-0.055,-0.979,0.045,-1.48c0.073,-0.367,-0.269,-0.389,-0.434,-0.631c-0.174,-0.255,0.51,-0.35,0.51,-0.459s-0.647,-0.255,-0.533,-0.831c0.104,-0.525,-0.781,-0.403,-0.996,-0.766c-0.236,-0.4,0.695,-1.406,0.909,-1.727c0.178,-0.267,0.483,-0.577,0.571,-0.885c0.043,-0.151,-0.144,-0.259,-0.187,-0.401c-0.063,-0.207,-0.014,-0.424,0.031,-0.629c0.312,-1.427,0.809,-2.745,1.87,-3.835C4.841,1.168,6.36,0.688,7.953,0.543c2.87,-0.261,6.044,0.796,7.121,3.527c0.5,1.268,0.582,2.708,0.123,3.997c-0.223,0.628,-0.567,1.212,-0.991,1.737c-0.485,0.602,-1.284,1.051,-1.284,1.83c0,0.409,-0.066,0.289,0.073,0.862C13.715,15.454,7.215,15.495,6.826,15.495z" fill="#FFFFFF" stroke="#383838" stroke-width="1" stroke-miterlimit="1"/>
    <path d="M5.519,7.105c0.117,0.306,0.282,0.627,0.458,0.902c0.012,0.018,0.034,0.026,0.054,0.019l0.963,-0.3c0.017,-0.005,0.035,-0.001,0.047,0.012c0.128,0.132,0.273,0.252,0.433,0.356c0.166,0.108,0.339,0.194,0.517,0.259c0.017,0.006,0.029,0.021,0.031,0.039l0.1,1.004c0.002,0.021,0.018,0.039,0.039,0.042c0.323,0.052,0.684,0.07,1.011,0.054c0.021,-0.001,0.039,-0.016,0.044,-0.037l0.223,-0.989c0.004,-0.017,0.017,-0.031,0.034,-0.035c0.366,-0.091,0.712,-0.263,1.009,-0.509c0.014,-0.011,0.033,-0.014,0.049,-0.007l0.918,0.414c0.02,0.009,0.043,0.004,0.056,-0.013c0.207,-0.254,0.402,-0.557,0.552,-0.848c0.01,-0.019,0.005,-0.042,-0.01,-0.056l-0.737,-0.68c-0.013,-0.012,-0.018,-0.031,-0.013,-0.048c0.111,-0.376,0.131,-0.767,0.067,-1.144c-0.003,-0.018,0.004,-0.036,0.019,-0.046l0.807,-0.58c0.017,-0.013,0.025,-0.035,0.017,-0.055c-0.117,-0.306,-0.282,-0.627,-0.458,-0.902c-0.012,-0.018,-0.034,-0.026,-0.054,-0.019l-0.943,0.294c-0.017,0.005,-0.036,0,-0.048,-0.013c-0.133,-0.14,-0.285,-0.267,-0.454,-0.378c-0.166,-0.108,-0.339,-0.194,-0.517,-0.259c-0.017,-0.006,-0.029,-0.021,-0.031,-0.039l-0.097,-0.976c-0.002,-0.021,-0.018,-0.039,-0.039,-0.042c-0.323,-0.052,-0.684,-0.07,-1.011,-0.055c-0.021,0.001,-0.039,0.016,-0.044,0.037l-0.217,0.959c-0.004,0.017,-0.017,0.031,-0.035,0.035c-0.377,0.092,-0.734,0.27,-1.038,0.528c-0.014,0.012,-0.033,0.015,-0.05,0.007l-0.895,-0.405c-0.02,-0.009,-0.043,-0.004,-0.056,0.013c-0.207,0.254,-0.403,0.557,-0.553,0.848c-0.01,0.019,-0.006,0.042,0.01,0.056l0.729,0.674c0.013,0.012,0.018,0.03,0.013,0.047c-0.108,0.378,-0.125,0.772,-0.057,1.15c0.003,0.018,-0.004,0.036,-0.019,0.046l-0.81,0.582C5.518,7.062,5.511,7.085,5.519,7.105z" fill="#FFFFFF" stroke="#228BCB" stroke-width="0.9" stroke-miterlimit="1"/>
    <path d="M8.003,5.936c0.026,-0.475,0.432,-0.839,0.907,-0.813c0.475,0.026,0.839,0.432,0.813,0.907c-0.026,0.475,-0.432,0.839,-0.907,0.813C8.341,6.817,7.977,6.411,8.003,5.936z" fill="#238BCB"/>
  </g>
</svg>
