<?xml version="1.0" encoding="UTF-8"?>
<!DOCTYPE svg PUBLIC "-//W3C//DTD SVG 1.1//EN" "http://www.w3.org/Graphics/SVG/1.1/DTD/svg11.dtd">
<svg version="1.1" id="Layer_1" xmlns="http://www.w3.org/2000/svg" xmlns:xlink="http://www.w3.org/1999/xlink" x="0px" y="0px" width="16px" height="16px" viewBox="0 0 16 16" enable-background="new 0 0 16 16" xml:space="preserve">
  <g id="icon">
    <path d="M2.194,11.484L6.685,0.649c0.229,-0.554,2.208,0.264,1.979,0.817L4.167,12.299c-0.118,0.287,-2.176,2.52,-2.176,2.52S2.075,11.771,2.194,11.484zM5.178,4.314l1.917,0.779M2.327,11.219l1.977,0.816" fill="#FFFFFF"/>
    <path d="M6.685,0.649L2.274,11.29l2.009,0.729L8.664,1.467C8.892,0.913,6.914,0.096,6.685,0.649z" fill="#C8C6C4"/>
    <path d="M2.194,11.484L6.685,0.649c0.229,-0.554,2.208,0.264,1.979,0.817L4.167,12.299c-0.118,0.287,-2.176,2.52,-2.176,2.52S2.075,11.771,2.194,11.484zM5.178,4.314l1.917,0.779M2.327,11.219l1.977,0.816" fill="none" stroke="#383838" stroke-width="0.9" stroke-miterlimit="1"/>
    <path d="M6.525,1.041l-1.619,0.808c-0.221,0.11,-0.4,0.31,-0.498,0.554L3.035,5.731c0.455,0.052,0.694,-0.605,0.48,-1.039" fill="none" stroke="#383838" stroke-width="0.9" stroke-miterlimit="1"/>
    <path d="M10.103,12.899l-0.022,0.052C9.952,13.258,8,15,8,15s-0.161,-2.628,-0.032,-2.936l0.022,-0.052L10.103,12.899z" fill="#FFFFFF" stroke="#383838" stroke-width="0.9" stroke-miterlimit="1"/>
    <polygon points="10.103,12.899 14.206,3.17 12.082,2.292 7.989,12.012" fill="#92CBEE" stroke="#0964B0" stroke-width="0.9" stroke-miterlimit="1" stroke-linejoin="miter"/>
    <path d="M14.206,3.17l0.674,-1.599c0.249,-0.593,-1.871,-1.483,-2.12,-0.889l-0.678,1.61L14.206,3.17z" fill="#F7BFBF" stroke="#DB2E2A" stroke-width="0.9" stroke-miterlimit="1"/>
    <line x1="14.55" y1="3.35" x2="11.65" y2="2.15" fill="#FFFFFF" stroke="#383838" stroke-width="1" stroke-miterlimit="1"/>
  </g>
</svg>
