<?xml version="1.0" encoding="UTF-8"?>
<!DOCTYPE svg PUBLIC "-//W3C//DTD SVG 1.1//EN" "http://www.w3.org/Graphics/SVG/1.1/DTD/svg11.dtd">
<svg version="1.1" id="Layer_1" xmlns="http://www.w3.org/2000/svg" xmlns:xlink="http://www.w3.org/1999/xlink" x="0px" y="0px" width="24px" height="24px" viewBox="0 0 24 24" enable-background="new 0 0 24 24" xml:space="preserve">
  <g id="icon">
    <g>
      <path d="M23.5498,6.3282l-4.2749,1.3359c0.1317,0.4219,0.2028,0.8706,0.2028,1.3359c0,0.4653,-0.0711,0.914,-0.2028,1.3359l4.2749,1.3359c0.2634,-0.8438,0.4055,-1.7412,0.4055,-2.6718S23.8132,7.172,23.5498,6.3282z" fill="#FFFFFF" opacity="0.6"/>
      <path d="M16.3359,13.2748c-0.0852,0.0266,-0.1717,0.05,-0.259,0.0716c0.0207,0.2237,0.0323,0.4583,0.0323,0.7064c0,1.1183,-0.2305,2.1983,-0.6616,3.1439c0.3731,0.1985,0.708,0.4132,1.0087,0.6393c0.4153,-0.068,0.8214,-0.1633,1.2155,-0.2863L16.3359,13.2748z" fill="#FFFFFF" opacity="0.6"/>
      <path d="M15,4.5224c0.4653,0,0.914,0.0711,1.3359,0.2028l1.3359,-4.2749C16.828,0.1868,15.9306,0.0448,15,0.0448s-1.828,0.142,-2.6718,0.4055l1.3359,4.2749C14.086,4.5935,14.5347,4.5224,15,4.5224z" fill="#FFFFFF" opacity="0.6"/>
    </g>
    <path d="M17.6847,17.591c-0.3872,0.1213,-0.782,0.2143,-1.1815,0.2818c-0.3129,-0.2394,-0.6625,-0.4669,-1.0555,-0.676c0.0288,-0.0632,0.0544,-0.1285,0.0814,-0.1929c0.6342,-0.0416,1.2592,-0.1567,1.864,-0.3461l0.0428,-0.0134l0.2917,0.9332L17.6847,17.591zM16.5939,3.8996c-0.5146,-0.1612,-1.0508,-0.2429,-1.5939,-0.2429s-1.0793,0.0817,-1.5939,0.2429l-0.0427,0.0134l0.2713,0.8683l0.0427,-0.0134c0.4268,-0.1332,0.8717,-0.2008,1.3226,-0.2008s0.8958,0.0676,1.3226,0.2008l0.0427,0.0134l0.2713,-0.8683L16.5939,3.8996zM16.5939,14.1004l0.0427,-0.0134l-0.2713,-0.8683l-0.0427,0.0134c-0.0828,0.0258,-0.1664,0.0484,-0.2505,0.0693c0.0236,0.2372,0.0372,0.4864,0.0372,0.7514c0,0.0584,-0.0032,0.1163,-0.0045,0.1745C16.2696,14.1925,16.4329,14.1508,16.5939,14.1004zM23.591,6.3153l-0.0134,-0.0427l-0.9332,0.2917l0.0134,0.0428c0.2419,0.7724,0.3645,1.5775,0.3645,2.393s-0.1227,1.6206,-0.3645,2.393l-0.0134,0.0428l0.9332,0.2917l0.0134,-0.0427C23.8624,10.8182,24,9.9148,24,9S23.8624,7.1818,23.591,6.3153zM20.087,7.3634l-0.8683,0.2713l0.0134,0.0427c0.1332,0.4268,0.2008,0.8717,0.2008,1.3226c0,0.4508,-0.0676,0.8958,-0.2008,1.3226l-0.0134,0.0427l0.8683,0.2713l0.0134,-0.0427c0.1612,-0.5146,0.2429,-1.0508,0.2429,-1.5939s-0.0817,-1.0793,-0.2429,-1.5939L20.087,7.3634zM12.607,1.3422c0.7724,-0.2419,1.5775,-0.3645,2.393,-0.3645s1.6206,0.1227,2.393,0.3645l0.0428,0.0134l0.2917,-0.9332l-0.0427,-0.0134C16.8182,0.1376,15.9148,0,15,0s-1.8182,0.1376,-2.6847,0.409l-0.0427,0.0134l0.2917,0.9332L12.607,1.3422z" fill="#48484A" opacity="0.4"/>
    <path d="M16.3359,4.7252l1.3359,-4.2749c2.797,0.8732,5.0048,3.0809,5.878,5.878l-4.2749,1.3359C18.8382,6.2656,17.7344,5.1618,16.3359,4.7252zM16.3359,13.2748l1.3359,4.2749c2.797,-0.8732,5.0048,-3.0809,5.878,-5.878l-4.2749,-1.3359C18.8382,11.7344,17.7344,12.8382,16.3359,13.2748zM11.0472,6.8959c0.5486,-1.0284,1.4862,-1.8177,2.6169,-2.1707L12.3282,0.4502c-2.302,0.7186,-4.2041,2.3418,-5.2923,4.4529C8.5329,4.9417,10.1805,5.3785,11.0472,6.8959z" fill="#CB525D"/>
    <path d="M5.0129,24c-0.1239,0,-0.2216,-0.0958,-0.2123,-0.2081l0.0287,-0.3448c0.1008,-1.2113,0.7328,-3.8176,3.8324,-4.9843c0.7124,-0.2769,1.0512,-0.8785,0.7124,-1.316c-0.8471,-1.0391,-1.1844,-2.3739,-1.1844,-3.5916c0,-1.8858,0.6125,-3.0803,3.3469,-3.0803h0.0531c2.7237,0,3.3338,1.1945,3.3338,3.0803c0,1.2177,-0.336,2.5525,-1.1797,3.5916c-0.3375,0.4375,0,1.0391,0.7096,1.316c3.0875,1.1668,3.717,3.773,3.8175,4.9843l0.0286,0.3448c0.0093,0.1123,-0.088,0.2081,-0.2115,0.2081H5.0129zM0.3006,19.0169c-0.0093,0.1123,0.0884,0.2081,0.2123,0.2081h4.9077c0.7268,-0.7424,1.6619,-1.3351,2.7954,-1.7672c-0.7452,-1.0808,-1.1513,-2.4484,-1.1513,-3.9025c0,-0.8446,0.0972,-2.0724,0.9371,-2.9792c0.5615,-0.6062,1.3573,-0.9773,2.415,-1.1233c0.0039,-0.0913,0.0067,-0.1823,0.0067,-0.2725C10.4235,7.2945,9.8134,6.1,7.0897,6.1h-0.0531c-2.7343,0,-3.3469,1.1945,-3.3469,3.0803c0,1.2177,0.3373,2.5525,1.1844,3.5916c0.3388,0.4375,0,1.0391,-0.7124,1.316c-3.0996,1.1668,-3.7316,3.373,-3.8324,4.5843L0.3006,19.0169z" fill="#6485C3"/>
  </g>
</svg>
