<?xml version="1.0" encoding="UTF-8"?>
<!DOCTYPE svg PUBLIC "-//W3C//DTD SVG 1.1//EN" "http://www.w3.org/Graphics/SVG/1.1/DTD/svg11.dtd">
<svg version="1.1" id="Layer_1" xmlns="http://www.w3.org/2000/svg" xmlns:xlink="http://www.w3.org/1999/xlink" x="0px" y="0px" width="24px" height="24px" viewBox="0 0 24 24" enable-background="new 0 0 24 24" xml:space="preserve">
  <g id="icon">
    <path d="M7,5v0.909C7.4525,5.8375,7.9367,5.8,8.4552,5.8h0.0599c2.2528,0,3.8897,0.6735,4.8653,2.002c0.8935,1.2166,0.9968,2.6708,0.9968,3.6587c0,1.4902,-0.3316,2.9197,-0.9495,4.1458c0.2566,0.1255,0.4983,0.2573,0.7282,0.3935H23V5H7z" fill="#FFFFFF" opacity="0.4"/>
    <path d="M12,3h-2V0h2V3zM18,0v3h2V0H18z" fill="#7B7B7B"/>
    <path d="M21,1v3h-4V1h-4v3H9V1H6v5h0.5172c0.5843,-0.133,1.2306,-0.2,1.938,-0.2h0.0599c0.7093,0,1.3573,0.067,1.943,0.2H24V1H21z" fill="#9070B1"/>
    <path d="M6,6.1422V6h0.5172C6.3384,6.0407,6.1671,6.0892,6,6.1422zM22,6v9h-8.2977c-0.0843,0.2068,-0.1753,0.4096,-0.2745,0.6065c0.8418,0.4118,1.5356,0.886,2.1085,1.3935H24V6H22z" fill="#7B7B7B"/>
    <path d="M16,7h-3v0.3524c0.1361,0.1406,0.2633,0.29,0.3804,0.4495c0.2748,0.3741,0.4743,0.7708,0.6196,1.1694V8h2v2h-1.7326c0.0594,0.3517,0.088,0.6898,0.1005,1H16v2h-1.7441c-0.054,0.3403,-0.1259,0.6742,-0.2151,1H20V7H16zM19,13h-2v-2h2V13zM19,10h-2V8h2V10z" fill="#6D6E71"/>
    <path d="M17.0319,24c0.156,0,0.2791,-0.1241,0.2673,-0.2695l-0.0361,-0.4466c-0.127,-1.5689,-0.9228,-4.4266,-4.826,-5.9378c-0.897,-0.3587,-1.3237,-1.1378,-0.897,-1.7045c1.0667,-1.3458,1.4914,-3.0747,1.4914,-4.6519c0,-2.4426,-0.7713,-3.9897,-4.2146,-3.9897H8.75c-3.4298,0,-4.1981,1.5472,-4.1981,3.9897c0,1.5772,0.4231,3.3061,1.4856,4.6519c0.425,0.5667,0,1.3458,-0.8936,1.7045c-3.888,1.5112,-4.6807,4.3689,-4.8072,5.9378l-0.036,0.4466C0.2891,23.8759,0.4117,24,0.5671,24H17.0319z" fill="#6485C3"/>
  </g>
</svg>
