<?xml version="1.0" encoding="UTF-8"?>
<!DOCTYPE svg PUBLIC "-//W3C//DTD SVG 1.1//EN" "http://www.w3.org/Graphics/SVG/1.1/DTD/svg11.dtd">
<svg version="1.1" id="Layer_1" xmlns="http://www.w3.org/2000/svg" xmlns:xlink="http://www.w3.org/1999/xlink" x="0px" y="0px" width="24px" height="24px" viewBox="0 0 24 24" enable-background="new 0 0 24 24" xml:space="preserve">
  <g id="icon">
    <path d="M16.4622,0.9703c-4.0622,0,-6.4972,0.9287,-6.4972,2.1113v2.6401c0.9497,0.6506,1.64,1.77,1.6904,3.6378c2.1187,0.0979,4.4538,1.036,4.4538,4.6933c0,1.1183,-0.2305,2.1983,-0.6616,3.1439c0.1961,0.1043,0.381,0.2133,0.5566,0.3259c0.1505,0.0041,0.3027,0.007,0.458,0.007c4.0622,0,6.5789,-1.438,6.5789,-3.2119V3.0816C23.0412,1.899,20.5245,0.9703,16.4622,0.9703z" fill="#FFFFFF" opacity="0.5"/>
    <path d="M16.4623,0c-1.4336,0,-3.4812,0.1151,-5.0951,0.6636c-1.5666,0.5323,-2.3609,1.3459,-2.3609,2.4181v2.1578c0.7508,0.2675,1.4333,0.7206,1.9177,1.4556V3.1566c0.1231,-0.1677,1.072,-1.216,5.5384,-1.216c4.4774,0,5.4853,1.0472,5.6201,1.2185v11.1586c0,0.4342,-0.6297,0.9888,-1.6042,1.4129c-1.2349,0.5374,-2.2406,0.8287,-4.0158,0.8287c-0.271,0,-0.5203,-0.0074,-0.7561,-0.0207c-0.0763,0.2251,-0.1616,0.4455,-0.2585,0.6581c0.7152,0.3805,1.289,0.8211,1.7513,1.2863c1.7283,-0.0806,2.892,-0.4503,4.1366,-1.0066c1.7182,-0.768,2.6645,-1.8898,2.6645,-3.1587V3.0816C24,0.2222,18.2305,0,16.4623,0z" fill="#EEAC55"/>
    <path d="M16.5031,6.0209c-3.4248,0,-6.3646,-0.8835,-6.7015,-2.8151h0.9476c0.5739,0.7379,2.2073,1.7275,5.7539,1.7275s5.2617,-0.9895,5.8356,-1.7275h0.9476C22.9494,5.1374,19.9279,6.0209,16.5031,6.0209z" fill="#EEAC55"/>
    <path d="M5.0129,24c-0.1239,0,-0.2216,-0.0958,-0.2123,-0.2081l0.0287,-0.3448c0.1008,-1.2113,0.7328,-3.8176,3.8324,-4.9843c0.7124,-0.2769,1.0512,-0.8785,0.7124,-1.316c-0.8471,-1.0391,-1.1844,-2.3739,-1.1844,-3.5916c0,-1.8858,0.6125,-3.0803,3.3469,-3.0803h0.0531c2.7237,0,3.3338,1.1945,3.3338,3.0803c0,1.2177,-0.336,2.5525,-1.1797,3.5916c-0.3375,0.4375,0,1.0391,0.7096,1.316c3.0875,1.1668,3.717,3.773,3.8175,4.9843l0.0286,0.3448c0.0093,0.1123,-0.088,0.2081,-0.2115,0.2081H5.0129zM0.3006,19.0169c-0.0093,0.1123,0.0884,0.2081,0.2123,0.2081h4.9077c0.7268,-0.7424,1.6619,-1.3351,2.7954,-1.7672c-0.7452,-1.0808,-1.1513,-2.4484,-1.1513,-3.9025c0,-0.8446,0.0972,-2.0724,0.9371,-2.9792c0.5615,-0.6062,1.3573,-0.9773,2.415,-1.1233c0.0039,-0.0913,0.0067,-0.1823,0.0067,-0.2725C10.4235,7.2945,9.8134,6.1,7.0897,6.1h-0.0531c-2.7343,0,-3.3469,1.1945,-3.3469,3.0803c0,1.2177,0.3373,2.5525,1.1844,3.5916c0.3388,0.4375,0,1.0391,-0.7124,1.316c-3.0996,1.1668,-3.7316,3.373,-3.8324,4.5843L0.3006,19.0169z" fill="#6485C3"/>
  </g>
</svg>
