<?xml version="1.0" encoding="UTF-8"?>
<!DOCTYPE svg PUBLIC "-//W3C//DTD SVG 1.1//EN" "http://www.w3.org/Graphics/SVG/1.1/DTD/svg11.dtd">
<svg version="1.1" id="Layer_1" xmlns="http://www.w3.org/2000/svg" xmlns:xlink="http://www.w3.org/1999/xlink" x="0px" y="0px" width="24px" height="24px" viewBox="0 0 24 24" enable-background="new 0 0 24 24" xml:space="preserve">
  <g id="icon">
    <path d="M22.1474,7.5311H16.654L14.9595,2.035L13.265,7.5311h-0.1021c0.0755,0.0873,0.1486,0.177,0.2175,0.2708c0.8935,1.2166,0.9968,2.6708,0.9968,3.6587c0,0.7102,-0.0762,1.4063,-0.2219,2.0735l0.8042,-0.6101l4.4424,3.3704l-1.7007,-5.4479L22.1474,7.5311z" fill="#FFFFFF" opacity="0.5"/>
    <path d="M23.9508,6.8362c-0.0896,-0.2104,-0.3002,-0.3463,-0.5365,-0.3463h-6.0311L15.5035,0.4039c-0.0766,-0.2452,-0.29,-0.4037,-0.5435,-0.4037c-0.0165,0,-0.0334,0.0007,-0.0503,0.0021c-0.226,0.0192,-0.426,0.1862,-0.4977,0.4159l-1.8752,6.0715h-0.7106c0.6292,0.3244,1.1495,0.761,1.5542,1.3121c0.1707,0.2325,0.3122,0.4736,0.43,0.7185l0.1523,0.0029l0.9972,-3.1903l0.9972,3.1903l3.3108,-0.0639l-2.6809,2.0445l1.0081,3.229l-2.6352,-1.9993l-0.6108,0.4634c-0.078,1.0509,-0.3221,2.0584,-0.7164,2.97l1.3272,-1.0069l4.9072,3.723c0.1005,0.0762,0.2182,0.1164,0.3404,0.1164c0.1822,0,0.3557,-0.0902,0.4641,-0.2414c0.1066,-0.1486,0.1359,-0.3357,0.0805,-0.5132l-1.8871,-6.0452l4.9059,-3.6686C23.986,7.3672,24.0582,7.088,23.9508,6.8362z" fill="#EEAC55"/>
    <path d="M17.0319,24c0.156,0,0.2791,-0.1241,0.2673,-0.2695l-0.0361,-0.4466c-0.127,-1.5689,-0.9228,-4.4266,-4.826,-5.9378c-0.897,-0.3587,-1.3237,-1.1378,-0.897,-1.7045c1.0667,-1.3458,1.4914,-3.0747,1.4914,-4.6519c0,-2.4426,-0.7713,-3.9897,-4.2146,-3.9897H8.75c-3.4298,0,-4.1981,1.5472,-4.1981,3.9897c0,1.5772,0.4231,3.3061,1.4856,4.6519c0.425,0.5667,0,1.3458,-0.8936,1.7045c-3.888,1.5112,-4.6807,4.3689,-4.8072,5.9378l-0.036,0.4466C0.2891,23.8759,0.4117,24,0.5671,24H17.0319z" fill="#6485C3"/>
  </g>
</svg>
