<?xml version="1.0" encoding="UTF-8"?>
<!DOCTYPE svg PUBLIC "-//W3C//DTD SVG 1.1//EN" "http://www.w3.org/Graphics/SVG/1.1/DTD/svg11.dtd">
<svg version="1.1" id="Layer_1" xmlns="http://www.w3.org/2000/svg" xmlns:xlink="http://www.w3.org/1999/xlink" x="0px" y="0px" width="24px" height="24px" viewBox="0 0 24 24" enable-background="new 0 0 24 24" xml:space="preserve">
  <g id="icon">
    <path d="M16.5,0.8651c-3.1142,0,-5.7263,2.153,-6.4419,5.0564c1.4714,0.2482,2.5857,0.8773,3.3224,1.8805c0.8935,1.2166,0.9968,2.6708,0.9968,3.6587c0,1.2299,-0.2264,2.4181,-0.6527,3.4852c0.3977,0.5282,0.793,1.0511,1.1552,1.5293c0.7833,0.5679,1.3852,1.1962,1.8447,1.8387c0.8925,-1.1676,4.1962,-5.4991,5.2294,-6.9909c0.746,-1.0771,1.1833,-2.3858,1.1833,-3.797C23.137,3.8472,20.1655,0.8651,16.5,0.8651zM16.5,10.2738c-1.4946,0,-2.7062,-1.2201,-2.7062,-2.7251c0,-1.5051,1.2116,-2.7251,2.7062,-2.7251s2.7062,1.2201,2.7062,2.7251C19.2062,9.0537,17.9946,10.2738,16.5,10.2738z" fill="#FFFFFF" opacity="0.5"/>
    <path d="M16.5,0c-3.552,0,-6.533,2.4914,-7.3041,5.8236c0.6212,0.0409,1.1893,0.1392,1.7032,0.2944c0.6284,-2.5175,2.9008,-4.3879,5.6009,-4.3879c3.1838,0,5.7741,2.6,5.7741,5.7958c0,1.189,-0.3559,2.3315,-1.0291,3.3036c-0.8911,1.2866,-3.5544,4.7933,-4.7439,6.3532c-0.586,-0.7709,-1.532,-2.0179,-2.446,-3.2346c-0.1556,0.582,-0.3655,1.1386,-0.6274,1.6584c1.9412,0.9496,3.099,2.2301,3.7861,3.4891c0.5551,-0.725,4.3089,-5.6334,5.4488,-7.2794C23.5376,10.5529,24,9.0694,24,7.5259C24,3.3761,20.6355,0,16.5,0z" fill="#CB525D"/>
    <path d="M16.5,4.4822c-1.6805,0,-3.0476,1.3756,-3.0476,3.0665c0,0.1344,0.0096,0.2665,0.0263,0.3964c0.3414,0.5056,0.5559,1.0458,0.6882,1.5736c0.5595,0.6697,1.3975,1.0964,2.3331,1.0964c1.6805,0,3.0476,-1.3756,3.0476,-3.0665S18.1805,4.4822,16.5,4.4822zM16.5,9.5213c-1.0788,0,-1.9564,-0.8849,-1.9564,-1.9726c0,-1.0877,0.8777,-1.9726,1.9564,-1.9726s1.9564,0.8849,1.9564,1.9726C18.4564,8.6364,17.5788,9.5213,16.5,9.5213z" fill="#CB525D"/>
    <path d="M15.7634,23c0.1377,0,0.2463,-0.1095,0.2359,-0.2378l-0.0319,-0.394c-0.112,-1.3843,-0.8142,-3.9058,-4.2582,-5.2392c-0.7915,-0.3165,-1.168,-1.004,-0.7915,-1.504c0.9412,-1.1875,1.316,-2.713,1.316,-4.1046C12.2336,9.3652,11.553,8,8.5149,8h-0.059c-3.0263,0,-3.7042,1.3652,-3.7042,3.5204c0,1.3917,0.3733,2.9171,1.3108,4.1046c0.375,0.5,0,1.1875,-0.7884,1.504c-3.4306,1.3334,-4.13,3.8549,-4.2416,5.2392l-0.0318,0.394c-0.0103,0.1283,0.0978,0.2378,0.235,0.2378H15.7634z" fill="#FFFFFF" opacity="0.5"/>
    <path d="M1.1266,24c-0.3165,0,-0.6201,-0.1324,-0.8331,-0.3633c-0.2089,-0.2263,-0.3145,-0.5314,-0.29,-0.8369L0.0357,22.4c0.1299,-1.6113,0.9346,-4.5428,4.8645,-6.0721c0.1938,-0.0783,0.3071,-0.1787,0.3582,-0.2429c-0.9344,-1.2272,-1.4504,-2.8671,-1.4504,-4.6243C3.8079,9.5458,4.2897,7,8.4552,7h0.0599c4.1788,0,4.6621,2.5458,4.6621,4.4607c0,1.7538,-0.5159,3.3909,-1.4548,4.6237c0.0516,0.0632,0.1624,0.1638,0.3618,0.244c3.9419,1.5281,4.7496,4.4598,4.88,6.0713l0.0323,0.4c0.0247,0.3053,-0.0809,0.6102,-0.2898,0.8367c-0.2132,0.2311,-0.5172,0.3637,-0.8342,0.3637H1.1266zM15.1589,22.2251c-0.176,-1.2011,-0.9126,-3.1564,-3.722,-4.2441c-0.7408,-0.2962,-1.2822,-0.845,-1.4574,-1.4718c-0.1398,-0.5002,-0.0455,-1.0032,0.2654,-1.4162l0.0121,-0.0157c0.7389,-0.9323,1.1451,-2.2162,1.1451,-3.6167c0,-1.8572,-0.4169,-2.6857,-2.8871,-2.6857h-0.0599c-2.4577,0,-2.8724,0.8285,-2.8724,2.6857c0,1.4012,0.4047,2.6854,1.1396,3.6164l0.0118,0.0153c0.3115,0.4152,0.4051,0.9181,0.2652,1.4182c-0.1752,0.6258,-0.7147,1.174,-1.4432,1.4665l-0.0091,0.0036c-2.7978,1.0874,-3.5311,3.0431,-3.7064,4.2445H15.1589z" fill="#6485C3"/>
  </g>
</svg>
