<?xml version="1.0" encoding="UTF-8"?>
<!DOCTYPE svg PUBLIC "-//W3C//DTD SVG 1.1//EN" "http://www.w3.org/Graphics/SVG/1.1/DTD/svg11.dtd">
<svg version="1.1" id="Layer_1" xmlns="http://www.w3.org/2000/svg" xmlns:xlink="http://www.w3.org/1999/xlink" x="0px" y="0px" width="24px" height="24px" viewBox="0 0 24 24" enable-background="new 0 0 24 24" xml:space="preserve">
  <g id="icon">
    <path d="M6.0141,0.8v5.3378C6.7239,5.9143,7.5374,5.8,8.4552,5.8h0.0599c2.2528,0,3.8897,0.6735,4.8653,2.002c0.8935,1.2166,0.9968,2.6708,0.9968,3.6587c0,1.4277,-0.3051,2.7991,-0.874,3.9899h9.8252V0.8H6.0141z" fill="#FFFFFF" opacity="0.5"/>
    <path d="M13.3804,7.802c0.2621,0.3568,0.4547,0.7342,0.5981,1.1141l0.6484,0.5464l8.9269,-7.523l-0.6826,-0.9309l-8.2443,7.0225L6.3826,1.0086L5.7,1.9395l4.844,4.0822C11.7763,6.3184,12.7273,6.9126,13.3804,7.802z" fill="#6D6E71"/>
    <path d="M5,0v6.5706c0.5704,-0.321,1.2386,-0.5412,2,-0.6615V2h15v12h-7.9592c-0.1541,0.5631,-0.3589,1.1022,-0.613,1.6065c0.2566,0.1255,0.4983,0.2573,0.7282,0.3935H24V0H5z" fill="#7B7B7B"/>
    <path d="M17.0319,24c0.156,0,0.2791,-0.1241,0.2673,-0.2695l-0.0361,-0.4466c-0.127,-1.5689,-0.9228,-4.4266,-4.826,-5.9378c-0.897,-0.3587,-1.3237,-1.1378,-0.897,-1.7045c1.0667,-1.3458,1.4914,-3.0747,1.4914,-4.6519c0,-2.4426,-0.7713,-3.9897,-4.2146,-3.9897H8.75c-3.4298,0,-4.1981,1.5472,-4.1981,3.9897c0,1.5772,0.4231,3.3061,1.4856,4.6519c0.425,0.5667,0,1.3458,-0.8936,1.7045c-3.888,1.5112,-4.6807,4.3689,-4.8072,5.9378l-0.036,0.4466C0.2891,23.8759,0.4117,24,0.5671,24H17.0319z" fill="#6485C3"/>
  </g>
</svg>
