<?xml version="1.0" encoding="UTF-8"?>
<!DOCTYPE svg PUBLIC "-//W3C//DTD SVG 1.1//EN" "http://www.w3.org/Graphics/SVG/1.1/DTD/svg11.dtd">
<svg version="1.1" id="Layer_1" xmlns="http://www.w3.org/2000/svg" xmlns:xlink="http://www.w3.org/1999/xlink" x="0px" y="0px" width="24px" height="24px" viewBox="0 0 24 24" enable-background="new 0 0 24 24" xml:space="preserve">
  <g id="icon">
    <path d="M23.1993,22.9901c-0.1231,-1.6769,-0.6422,-3.1871,-1.543,-4.4887c-0.8337,-1.2049,-0.2132,-1.6972,-3.9541,-3.5272c-2.3025,-1.1263,-5.4938,-1.9417,-1.4035,-3.3714c1.1408,-0.3988,1.2325,-1.8952,1.1811,-3.8561c-0.3254,-5.787,-3.4305,-7.1458,-5.4809,-7.1458c-3.1173,0,-5.0946,1.3588,-5.42,7.1458c-0.0485,1.8538,-0.4313,3.6726,0.6183,4.0561c3.9396,1.4397,2.9259,1.2652,-1.136,3.2038c-5.0235,2.3977,-5.1156,6.0278,-5.2645,7.9829l-0.0164,0.2153h22.4349L23.1993,22.9901z" fill="#FFFFFF" opacity="0.6"/>
    <path d="M18.1585,6.9548c-0.7302,-5.752,-2.4234,-6.954,-6.1157,-6.954h-0.0456c-3.6923,0,-5.3854,1.2019,-6.1157,6.954c-0.5563,4.3822,-0.0924,5.9502,2.631,5.9733c0.8338,1.2007,2.272,2.0492,3.5231,2.0492c1.2515,0,2.6898,-0.849,3.5236,-2.0501C18.2389,12.8843,18.71,11.2989,18.1585,6.9548zM12.0322,13.445c-2.0861,0,-3.9727,-2.4994,-3.9727,-7.3423c0,-2.0895,4.143,0.3671,5.4796,0.3671c2.2042,0,2.5571,-2.2731,2.5571,-0.7342C16.0963,8.8806,14.6474,13.445,12.0322,13.445z" fill="#52B250"/>
    <path d="M23.9482,22.9702c-0.1364,-1.7338,-0.8249,-4.5559,-3.5925,-6.7649c-1.0972,0.9426,-4.041,3.1127,-8.33,3.1245c-4.2984,0.0118,-7.2621,-2.152,-8.3789,-3.1062C0.8983,18.4299,0.2133,21.2412,0.0772,22.9702l-0.0507,0.6453c-0.0165,0.2102,0.1564,0.3894,0.3755,0.3894h23.2213c0.2192,0,0.3921,-0.1793,0.3755,-0.3894L23.9482,22.9702z" fill="#52B250"/>
  </g>
</svg>
