<?xml version="1.0" encoding="UTF-8"?>
<!DOCTYPE svg PUBLIC "-//W3C//DTD SVG 1.1//EN" "http://www.w3.org/Graphics/SVG/1.1/DTD/svg11.dtd">
<svg version="1.1" id="Layer_1" xmlns="http://www.w3.org/2000/svg" xmlns:xlink="http://www.w3.org/1999/xlink" x="0px" y="0px" width="24px" height="24px" viewBox="0 0 24 24" enable-background="new 0 0 24 24" xml:space="preserve">
  <g id="icon">
    <path d="M23.1995,22.9901c-0.123,-1.6395,-0.6421,-3.116,-1.5427,-4.3886c-0.8336,-1.1781,-2.235,-2.4096,-3.8034,-3.3019C16.1498,14.6335,14.6,14.1735,17.9,13c1.1356,-0.4038,0.4322,-2.9963,0.3809,-4.9135C17.9555,2.4285,15.1177,1.1,12.0009,1.1c-3.1167,0,-5.9937,1.3285,-6.3191,6.9865C5.6333,9.899,4.8506,12.725,5.9,13.1c3.9389,1.4076,4.1,0.7124,0.1642,2.0846C2.1087,17.4043,0.9494,21.078,0.8006,22.9895L0.7842,23.2h22.4311L23.1995,22.9901z" fill="#FFFFFF" opacity="0.5"/>
    <path d="M8.0004,15.0581l-0.4008,-0.9161l1.9,-0.9l0.4008,0.9161L8.0004,15.0581zM15.9996,15.0581l0.4008,-0.9161l-2.1,-1l-0.4008,0.9161L15.9996,15.0581z" fill="#6485C3"/>
    <path d="M11.9586,15.2203c-2.738,0,-4.4192,-4.3557,-4.4192,-7.4785c0,-0.3283,0.0225,-0.6546,0.0668,-0.9697l0.0149,-0.106l0.0518,-0.0917c0.2309,-0.4092,0.593,-0.8219,1.1397,-1.2988C9.0161,5.0978,9.2691,5,9.5251,5c0.1804,0,0.3528,0.0464,0.5124,0.1378c0.6421,0.3681,1.7705,0.4591,2.8618,0.5472c1.5158,0.1222,2.8248,0.2278,3.2367,1.0604l0.0433,0.0874l0.0112,0.0983c0.0304,0.2637,0.0458,0.5364,0.0458,0.8106C16.2363,10.7983,14.713,15.2203,11.9586,15.2203zM8.5806,7.0424c-0.0273,0.2281,-0.0412,0.4628,-0.0412,0.6994c0,2.5502,1.3637,6.4057,3.4192,6.4057c2.0009,0,3.2777,-3.7939,3.2777,-6.4057c0,-0.1805,-0.0079,-0.3599,-0.0235,-0.535c-0.068,-0.0558,-0.2435,-0.1585,-0.6735,-0.2498c-0.4854,-0.103,-1.1104,-0.1534,-1.7147,-0.2022c-1.1949,-0.0964,-2.4303,-0.196,-3.2581,-0.6707c-0.0374,-0.0213,-0.0832,-0.011,-0.1229,0.0237C9.0324,6.4664,8.7553,6.7662,8.5806,7.0424z" fill="#6485C3"/>
    <path d="M7.7898,14.5499c0.4372,-0.166,0.9066,-0.3074,1.4013,-0.4216v-1.121h-0.8058c-1.2686,-0.1215,-2.0943,-0.4316,-2.6508,-0.724c0.2449,-0.213,0.4404,-0.457,0.635,-0.7821c0.6359,-1.0625,0.6654,-2.182,0.6201,-3.0387c-0.0073,-0.1375,-0.015,-0.275,-0.0226,-0.4131c-0.0404,-0.7264,-0.0821,-1.4775,-0.0653,-2.2018c0.0158,-0.6833,0.1711,-1.3478,0.4616,-1.9749c0.4639,-1.0018,1.2215,-1.4719,2.3236,-1.4422l0.0238,0.0003c0.2957,0,0.6246,-0.1144,0.9024,-0.314c0.4228,-0.3037,0.886,-0.474,1.3764,-0.5062c0.1078,-0.007,0.2182,-0.0106,0.3281,-0.0106c1.4302,0,3.3393,0.6288,4.0132,2.401c0.4237,1.1144,0.4773,2.2926,0.4959,3.404c0.0123,0.7342,0.0499,1.7021,0.2327,2.6774c0.1313,0.701,0.3787,1.551,1.1092,2.1901c-0.5922,0.3313,-1.3477,0.6512,-2.2951,0.7344l-1.2002,0.0003l0.0004,1.0892c0.8504,0.1173,1.3611,0.2662,1.834,0.4444c1.3042,-0.204,2.2734,-0.7279,2.9901,-1.1803c0.3809,-0.2404,0.606,-0.6411,0.6023,-1.0718c-0.0037,-0.4281,-0.2339,-0.8226,-0.6156,-1.0553c-0.4888,-0.2979,-0.6695,-0.7893,-0.7906,-1.4353c-0.1615,-0.8617,-0.1951,-1.7454,-0.2064,-2.4189c-0.0209,-1.2482,-0.0842,-2.5797,-0.597,-3.9285C16.9218,0.9038,14.283,0,12.3175,0c-0.1473,0,-0.2956,0.0048,-0.4407,0.0143c-0.8117,0.0532,-1.5686,0.3273,-2.2498,0.8149c-0.0132,-0.0001,-0.0263,-0.0001,-0.0394,-0.0001c-1.6983,0,-3.0269,0.8494,-3.7412,2.3917c-0.3809,0.8224,-0.5845,1.6941,-0.6053,2.5911c-0.0182,0.785,0.0253,1.5669,0.0673,2.3236c0.0076,0.1362,0.0152,0.2724,0.0224,0.4085c0.0376,0.7107,0.0152,1.4641,-0.4002,2.158c-0.1636,0.2733,-0.2817,0.3971,-0.5265,0.5517c-0.3772,0.238,-0.603,0.634,-0.6041,1.0591c-0.0011,0.4245,0.2221,0.8206,0.5969,1.0597C5.3754,13.9968,6.4637,14.3751,7.7898,14.5499z" fill="#6485C3"/>
    <path d="M23.9432,22.9655c-0.1783,-2.2666,-1.296,-6.3951,-6.778,-8.5784l-1.1403,-0.3867l-0.3,2.0192c0.3296,0.0106,1.1,0.2885,1.5507,0.5293c2.9911,1.4662,4.15,3.6419,4.54,5.5282H2.2048c0.39,-1.8863,1.5489,-4.062,4.54,-5.5282c0.4508,-0.2408,1.2211,-0.5187,1.5507,-0.5293l-0.3,-2.0192l-1.1403,0.3867c-5.482,2.1833,-6.5997,6.3118,-6.778,8.5784l-0.0507,0.6451C0.01,23.8208,0.1828,24,0.402,24h23.2165c0.2191,0,0.392,-0.1792,0.3755,-0.3894L23.9432,22.9655z" fill="#6485C3"/>
    <path d="M11.8779,17.8291c-0.104,0,-0.2084,-0.0023,-0.3136,-0.007c-2.132,-0.0948,-3.8255,-1.1644,-4.4196,-2.7915l0.9863,-0.3601c0.5331,1.4599,2.1471,2.0433,3.4798,2.1026c1.5821,0.0703,3.5107,-0.5658,4.2523,-2.1456l0.9506,0.4462C16.0179,16.7687,14.1016,17.8291,11.8779,17.8291z" fill="#6485C3"/>
  </g>
</svg>
