<?xml version="1.0" encoding="UTF-8"?>
<!DOCTYPE svg PUBLIC "-//W3C//DTD SVG 1.1//EN" "http://www.w3.org/Graphics/SVG/1.1/DTD/svg11.dtd">
<svg version="1.1" id="Layer_1" xmlns="http://www.w3.org/2000/svg" xmlns:xlink="http://www.w3.org/1999/xlink" x="0px" y="0px" width="24px" height="24px" viewBox="0 0 24 24" enable-background="new 0 0 24 24" xml:space="preserve">
  <g id="icon">
    <path d="M23.1995,22.9854c-0.123,-1.6766,-0.6421,-3.1865,-1.5427,-4.4879c-0.8336,-1.2047,-2.235,-2.4641,-3.8034,-3.3766C16.1498,14.4397,13.8,13.9,17.1,12.7c1.1356,-0.4129,1.2322,-2.9949,1.1809,-4.9554C17.9555,1.9586,15.1177,0.6,12.0009,0.6C8.8842,0.6,6.0072,1.9586,5.6818,7.7446C5.6333,9.5981,5.3506,12.1165,6.4,12.5c3.9389,1.4394,3.6,1.1,-0.3358,2.5033C2.1087,17.2732,0.9494,21.03,0.8006,22.9848L0.7842,23.2h22.4311L23.1995,22.9854z" fill="#FFFFFF" opacity="0.5"/>
    <path d="M11.9626,15.7c-2.3304,0,-4.8385,-2.75,-4.8385,-8.788c0,-0.6585,0.2979,-1.0031,0.5477,-1.1762c0.2541,-0.176,0.5765,-0.2616,0.9857,-0.2616c0.8643,0,1.9626,0.3898,3.0248,0.7669c0.7229,0.2566,1.5403,0.5467,1.9126,0.5467c1.0835,0,1.6574,-0.6126,2.0003,-0.9787c0.1606,-0.1715,0.3802,-0.406,0.6652,-0.406c0.0707,0,0.144,0.0145,0.218,0.043C16.9,5.6086,16.9,6.068,16.9,6.5124c0,1.8936,-0.4524,4.1232,-1.1807,5.8188C14.7727,14.5351,13.4737,15.7,11.9626,15.7zM8.6574,6.5191c-0.2383,0,-0.3366,0.0503,-0.3678,0.072c-0.079,0.0548,-0.0956,0.2047,-0.0956,0.3208c0,3.0257,0.6731,4.8545,1.2377,5.856c0.6852,1.2152,1.584,1.8845,2.5309,1.8845c2.1902,0,3.6383,-4.2848,3.8415,-7.378l0.0138,-0.2094l-0.168,0.121c-0.5981,0.4308,-1.2894,0.6493,-2.0549,0.6493c-0.5606,0,-1.3559,-0.2823,-2.2767,-0.6092c-0.6721,-0.2385,-1.3639,-0.484,-1.9596,-0.6151C9.0815,6.55,8.8456,6.5191,8.6574,6.5191z" fill="#52B250"/>
    <path d="M8.5887,13.9c-1.0324,-0.0083,-2.3138,-0.1375,-3.1239,-1.0714c-0.9541,-1.0998,-0.9354,-2.9171,-0.6139,-5.3074c0.4043,-3.006,1.1002,-4.8549,2.2566,-5.9949C8.4717,0.1813,10.3489,0,12.0053,0h0.0475c1.6564,0,3.5336,0.1813,4.8979,1.5263c1.1563,1.14,1.8523,2.9889,2.2566,5.9949c0.3193,2.3745,0.3366,4.1828,-0.6172,5.2902c-0.8053,0.935,-2.0666,1.0724,-3.0755,1.0876l-0.012,0.0001l-0.6668,0.0001l-0.0002,-1.6l0.6606,-0.0001c0.9979,-0.0156,1.5783,-0.1797,1.8816,-0.5318c0.4639,-0.5386,0.5414,-1.8201,0.2438,-4.0328c-0.3491,-2.5956,-0.9192,-4.2062,-1.7941,-5.0688C15.0596,1.9087,13.966,1.6,12.0528,1.6h-0.0475c-1.9132,0,-3.0068,0.3087,-3.7746,1.0657c-0.875,0.8626,-1.4451,2.4732,-1.7941,5.0688c-0.3038,2.2589,-0.2308,3.5066,0.2368,4.0457c0.3048,0.3514,0.8975,0.5117,1.9216,0.5199L8.9562,12.3l0.0002,1.6L8.5887,13.9z" fill="#52B250"/>
    <path d="M23.9482,22.9655c-0.1383,-1.7576,-0.8416,-4.6345,-3.7062,-6.8561c-1.7125,-1.4093,-3.9591,-2.346,-5.4121,-2.6674l-0.4008,0.9161c1.6615,0.4981,3.1963,1.1445,4.5658,2.1208c-0.0004,0.0004,-0.001,0.0009,-0.0014,0.0013c-2.3429,1.4818,-4.6609,2.2236,-6.9788,2.2309c-2.3179,-0.0073,-4.6359,-0.749,-6.9788,-2.2309c-0.0004,-0.0004,-0.001,-0.0009,-0.0014,-0.0013c1.3696,-0.9762,2.9043,-1.6226,4.5658,-2.1208l-0.4008,-0.9161C7.7467,13.7633,5.5,14.7,3.7875,16.1093C0.923,18.3309,0.2196,21.2079,0.0814,22.9655l-0.0507,0.6452C0.0141,23.8208,0.187,24,0.4061,24h11.5234H12.1h11.5234c0.2192,0,0.392,-0.1792,0.3755,-0.3894L23.9482,22.9655zM12.1,22.0769h-0.1705H2.209c0.302,-1.4607,1.0656,-3.0948,2.7835,-4.4388c2.3052,1.3498,4.621,2.0348,6.937,2.0578v0.0013c0.0167,0.0001,0.0333,0.0009,0.05,0.0009c0.0117,0,0.0235,-0.0006,0.0352,-0.0006c0.0117,0,0.0235,0.0006,0.0352,0.0006c0.0167,0,0.0333,-0.0008,0.05,-0.0009v-0.0013c2.316,-0.023,4.6318,-0.708,6.937,-2.0578c1.7179,1.344,2.4815,2.9781,2.7835,4.4388H12.1z" fill="#52B250"/>
  </g>
</svg>
