<?xml version="1.0" encoding="UTF-8"?>
<!DOCTYPE svg PUBLIC "-//W3C//DTD SVG 1.1//EN" "http://www.w3.org/Graphics/SVG/1.1/DTD/svg11.dtd">
<svg version="1.1" id="Layer_1" xmlns="http://www.w3.org/2000/svg" xmlns:xlink="http://www.w3.org/1999/xlink" x="0px" y="0px" width="24px" height="24px" viewBox="0 0 24 24" enable-background="new 0 0 24 24" xml:space="preserve">
  <g id="icon">
    <path d="M23.2083,8.0507v2.542c0,0.1771,-0.1396,0.3207,-0.3117,0.3207h-2.0823c-0.2936,1.2683,-0.9367,2.3292,-1.866,3.2297l1.072,1.9228c0.0856,0.1535,0.0341,0.3494,-0.115,0.4377l-2.0828,1.2322c-0.1493,0.0883,-0.34,0.0353,-0.4257,-0.1185l-1.0707,-1.9206c-0.1368,0.0417,-0.275,0.0781,-0.414,0.1105c0.1286,-0.5641,0.1973,-1.1532,0.1973,-1.7543c0,-0.5765,-0.0582,-1.0851,-0.1643,-1.5338c1.1863,-0.5605,2.0119,-1.7877,2.0119,-3.2091c0,-1.9486,-1.5507,-3.5338,-3.4568,-3.5338c-1.3534,0,-2.527,0.7997,-3.0941,1.9608c-0.3991,-1.2907,-1.2323,-2.0267,-2.2054,-2.4232c0.2293,-0.318,0.487,-0.6168,0.7719,-0.8929L8.9569,2.5588c-0.0836,-0.1533,-0.0317,-0.3474,0.1165,-0.435l2.0828,-1.2321c0.1503,-0.0889,0.3423,-0.0345,0.4272,0.1211l1.0115,1.8544c0.6034,-0.184,1.2306,-0.2772,1.8656,-0.2772s1.2622,0.0932,1.8656,0.2772l1.0693,-1.864c0.0868,-0.1513,0.2758,-0.2026,0.4238,-0.115l2.0828,1.2321c0.1505,0.089,0.2013,0.2873,0.1131,0.4411l-1.0666,1.8593c0.9293,0.9005,1.5723,2.041,1.866,3.3093h2.0823C23.0688,7.73,23.2083,7.8736,23.2083,8.0507z" fill="#FFFFFF" opacity="0.5"/>
    <path d="M24,8.0507v2.542c0,0.6157,-0.495,1.1166,-1.1034,1.1166h-1.483c-0.3068,0.9345,-0.805,1.7919,-1.4874,2.5598l0.7847,1.4077c0.2944,0.5282,0.1131,1.2068,-0.4042,1.5127l-2.0827,1.2321c-0.1713,0.1013,-0.3618,0.1532,-0.5549,0.1532c-0.0961,0,-0.1927,-0.0128,-0.2881,-0.0387c-0.0735,-0.02,-0.1436,-0.0472,-0.2101,-0.0808c-0.1335,-0.1328,-0.2762,-0.2634,-0.4289,-0.3911c-0.0122,-0.0191,-0.0248,-0.0377,-0.0359,-0.0576l-0.774,-1.3884c-0.0902,0.0188,-0.1812,0.0341,-0.2721,0.0495c0.1962,-0.5443,0.3313,-1.1229,0.3982,-1.7217c0.0126,-0.0037,0.0254,-0.007,0.038,-0.0108l0.6091,-0.1857l1.1419,2.0482l1.2584,-0.7444l-1.1466,-2.0568l0.4399,-0.4263c0.8566,-0.8302,1.3945,-1.7582,1.6443,-2.8371l0.1425,-0.6154h2.2309V8.5259h-2.2309l-0.1425,-0.6154c-0.2584,-1.116,-0.827,-2.1246,-1.6443,-2.9167l-0.4455,-0.4318l1.144,-1.9942l-1.2586,-0.7446l-1.141,1.9889l-0.6015,-0.1834c-1.0576,-0.3225,-2.214,-0.3225,-3.2717,0l-0.615,0.1875l-1.0822,-1.9841l-1.258,0.7442l1.0882,1.9952l-0.4357,0.4222c-0.2223,0.2155,-0.4256,0.4475,-0.6099,0.6928c-0.4572,-0.3019,-0.9714,-0.4989,-1.5024,-0.6197c0.18,-0.2696,0.3757,-0.529,0.5902,-0.774l-0.7371,-1.3514c-0.2918,-0.5348,-0.1121,-1.1953,0.4091,-1.5036l2.0828,-1.2321c0.2544,-0.1505,0.5634,-0.1918,0.8479,-0.1131c0.2857,0.0791,0.5318,0.2749,0.675,0.5374l0.717,1.3145c0.9659,-0.201,1.9798,-0.2,2.9454,0.0028l0.7697,-1.3418c0.1486,-0.2591,0.3882,-0.4436,0.6745,-0.5195c0.2851,-0.0756,0.5821,-0.0343,0.8365,0.1162l2.0828,1.2321c0.5236,0.3098,0.7019,0.9937,0.3973,1.5246l-0.7709,1.344c0.6683,0.7661,1.1727,1.6595,1.4856,2.6312h1.4812C23.505,6.9341,24,7.435,24,8.0507z" fill="#7B7B7B"/>
    <path d="M11.2676,7.3473c0.6579,-1.1205,1.8604,-1.8726,3.2326,-1.8726c2.0757,0,3.7644,1.7205,3.7644,3.8353c0,1.5688,-0.9297,2.9199,-2.2569,3.5133c-0.0764,-0.4302,-0.1948,-0.8085,-0.3461,-1.1429c0.8421,-0.4379,1.4212,-1.3356,1.4212,-2.3703c0,-1.464,-1.1586,-2.6551,-2.5827,-2.6551S11.9175,7.846,11.9175,9.31c0,0.0224,0.0011,0.0445,0.0016,0.0667c-0.0881,-0.007,-0.1761,-0.0131,-0.2636,-0.0172C11.6338,8.5585,11.4944,7.8953,11.2676,7.3473z" fill="#6D6E71"/>
    <path d="M5.0129,24c-0.1239,0,-0.2216,-0.0958,-0.2123,-0.2081l0.0287,-0.3448c0.1008,-1.2113,0.7328,-3.8176,3.8324,-4.9843c0.7124,-0.2769,1.0512,-0.8785,0.7124,-1.316c-0.8471,-1.0391,-1.1844,-2.3739,-1.1844,-3.5916c0,-1.8858,0.6125,-3.0803,3.3469,-3.0803h0.0531c2.7237,0,3.3338,1.1945,3.3338,3.0803c0,1.2177,-0.336,2.5525,-1.1797,3.5916c-0.3375,0.4375,0,1.0391,0.7096,1.316c3.0875,1.1668,3.717,3.773,3.8175,4.9843l0.0286,0.3448c0.0093,0.1123,-0.088,0.2081,-0.2115,0.2081H5.0129zM0.3006,19.0169c-0.0093,0.1123,0.0884,0.2081,0.2123,0.2081h4.9077c0.7268,-0.7424,1.6619,-1.3351,2.7954,-1.7672c-0.7452,-1.0808,-1.1513,-2.4484,-1.1513,-3.9025c0,-0.8446,0.0972,-2.0724,0.9371,-2.9792c0.5615,-0.6062,1.3573,-0.9773,2.415,-1.1233c0.0039,-0.0913,0.0067,-0.1823,0.0067,-0.2725C10.4235,7.2945,9.8134,6.1,7.0897,6.1h-0.0531c-2.7343,0,-3.3469,1.1945,-3.3469,3.0803c0,1.2177,0.3373,2.5525,1.1844,3.5916c0.3388,0.4375,0,1.0391,-0.7124,1.316c-3.0996,1.1668,-3.7316,3.373,-3.8324,4.5843L0.3006,19.0169z" fill="#6485C3"/>
  </g>
</svg>
