<?xml version="1.0" encoding="UTF-8"?>
<!DOCTYPE svg PUBLIC "-//W3C//DTD SVG 1.1//EN" "http://www.w3.org/Graphics/SVG/1.1/DTD/svg11.dtd">
<svg version="1.1" id="Layer_1" xmlns="http://www.w3.org/2000/svg" xmlns:xlink="http://www.w3.org/1999/xlink" x="0px" y="0px" width="24px" height="24px" viewBox="0 0 24 24" enable-background="new 0 0 24 24" xml:space="preserve">
  <g id="icon">
    <path d="M6.75,0.75v4.1502c0.0043,0,0.0086,-0.0002,0.0128,-0.0002h0.047c2.1618,0,4.7461,0.7771,4.8456,4.4595c2.1187,0.0979,4.4538,1.036,4.4538,4.6933c0,0.9649,-0.1724,1.9009,-0.4965,2.7472H22.75V0.75H6.75z" fill="#FFFFFF" opacity="0.5"/>
    <path d="M17,8h3v2h-3V8zM17,15h3v-2h-3V15zM17,3v2h3V3H17z" fill="#9070B1"/>
    <path d="M6,0v4.9352C6.2567,4.9111,6.5125,4.9,6.7628,4.9h0.047c0.3887,0,0.791,0.0257,1.1901,0.0884V2h14v4H10.3221c0.3026,0.2687,0.5673,0.599,0.7803,1H22v4h-6.7319c0.209,0.2852,0.3864,0.6165,0.5237,1H22v4h-6.1341c-0.1064,0.4162,-0.2454,0.8176,-0.4182,1.1968c0.4622,0.2459,0.8655,0.5168,1.218,0.8032H24V0H6z" fill="#7B7B7B"/>
    <path d="M5.3954,23.2953c-0.111,0,-0.1985,-0.0882,-0.1901,-0.1917l0.0257,-0.3176c0.0903,-1.1158,0.6563,-3.1482,3.4323,-4.223c0.638,-0.2551,0.9414,-0.8092,0.638,-1.2122c-0.7586,-0.9572,-1.0607,-2.1867,-1.0607,-3.3085c0,-1.7372,0.5486,-2.8375,2.9974,-2.8375h0.0476c2.4393,0,2.9858,1.1004,2.9858,2.8375c0,1.1217,-0.3009,2.3513,-1.0566,3.3085c-0.3023,0.403,0,0.9572,0.6355,1.2122c2.7652,1.0748,3.329,3.1072,3.4189,4.223l0.0256,0.3176c0.0083,0.1034,-0.0789,0.1917,-0.1894,0.1917H5.3954zM7.1467,17.2381c-0.4518,-0.9532,-0.6938,-2.0497,-0.6938,-3.1853c0,-2.9779,1.5866,-4.1137,3.3176,-4.4666c0.0001,-0.0146,0.0007,-0.0294,0.0007,-0.044c0,-1.7372,-0.5464,-2.8375,-2.9858,-2.8375H6.738c-2.4489,0,-2.9974,1.1004,-2.9974,2.8375c0,1.1217,0.3021,2.3513,1.0607,3.3085c0.3034,0.403,0,0.9572,-0.638,1.2122c-2.776,1.0748,-3.342,3.1072,-3.4323,4.223l-0.0257,0.3176c-0.0084,0.1034,0.0792,0.1917,0.1901,0.1917h4.1844C5.5932,18.2263,6.2653,17.6888,7.1467,17.2381z" fill="#FFFFFF" opacity="0.5"/>
    <path d="M5.435,24c-0.2765,0,-0.5418,-0.1157,-0.7279,-0.3175c-0.1827,-0.198,-0.2751,-0.4649,-0.2534,-0.7321l0.0254,-0.3141c0.1042,-1.2888,0.7489,-3.6329,3.8955,-4.8526c0.0886,-0.0356,0.1495,-0.076,0.1893,-0.1089c-0.717,-0.9763,-1.1109,-2.2586,-1.1109,-3.6219c0,-1.5464,0.3898,-3.6023,3.7604,-3.6023h0.047c3.3602,0,3.7488,2.0559,3.7488,3.6023c0,1.3662,-0.3928,2.6488,-1.1076,3.6227c0.0387,0.032,0.0992,0.0724,0.188,0.1083c3.1356,1.2202,3.7782,3.5642,3.882,4.8527l0.0253,0.3141c0.0215,0.2674,-0.0709,0.5343,-0.2536,0.7323c-0.1859,0.2015,-0.4509,0.3171,-0.727,0.3171H5.435zM16.3392,22.4082c-0.1547,-0.8694,-0.7347,-2.3279,-2.8306,-3.1425c-0.6087,-0.2443,-1.0543,-0.6992,-1.2001,-1.2201c-0.1183,-0.4231,-0.0386,-0.8492,0.2245,-1.1999l0.01,-0.0131c0.5641,-0.7146,0.8745,-1.7016,0.8745,-2.7799c0,-1.4177,-0.2997,-2.0104,-2.157,-2.0104h-0.047c-1.8673,0,-2.1686,0.5927,-2.1686,2.0104c0,1.0777,0.3118,2.0647,0.8779,2.7791l0.0103,0.0133c0.264,0.3506,0.3437,0.7762,0.2254,1.1994c-0.1457,0.5217,-0.5955,0.9782,-1.2031,1.2212c-2.1056,0.8151,-2.6883,2.2733,-2.8437,3.1425H16.3392zM5.9954,17.9577H1.6611c0.1554,-0.8691,0.738,-2.3274,2.8437,-3.1425c0.6076,-0.2429,1.0573,-0.6994,1.2031,-1.2211c0.1183,-0.4232,0.0385,-0.8488,-0.2254,-1.1994l-0.0103,-0.0133c-0.5662,-0.7144,-0.8779,-1.7014,-0.8779,-2.7791c0,-1.4177,0.3013,-2.0104,2.1686,-2.0104h0.047c1.8573,0,2.157,0.5927,2.157,2.0104c0,0.0716,-0.0028,0.1439,-0.0057,0.2162c0.5106,-0.1948,1.0569,-0.2981,1.5964,-0.3418C10.5356,7.947,10.08,6,6.8099,6h-0.047c-3.3706,0,-3.7604,2.0559,-3.7604,3.6023c0,1.3633,0.3939,2.6456,1.1109,3.6219c-0.0398,0.0329,-0.1007,0.0733,-0.1893,0.1089C0.7775,14.5528,0.1327,16.8969,0.0285,18.1857l-0.0254,0.3141c-0.0217,0.2672,0.0707,0.5341,0.2534,0.7322c0.1861,0.2018,0.4514,0.3175,0.7279,0.3175h3.5122C4.8589,18.9965,5.3454,18.4507,5.9954,17.9577z" fill="#6485C3"/>
  </g>
</svg>
