<?xml version="1.0" encoding="UTF-8"?>
<!DOCTYPE svg PUBLIC "-//W3C//DTD SVG 1.1//EN" "http://www.w3.org/Graphics/SVG/1.1/DTD/svg11.dtd">
<svg version="1.1" id="Layer_1" xmlns="http://www.w3.org/2000/svg" xmlns:xlink="http://www.w3.org/1999/xlink" x="0px" y="0px" width="24px" height="24px" viewBox="0 0 24 24" enable-background="new 0 0 24 24" xml:space="preserve">
  <g id="icon">
    <path d="M0.1987,13.4491l0.7835,-1.1602l2.2449,1.4459c-0.9772,-2.9601,-0.5386,-6.2426,1.1949,-8.8397c1.5073,-2.2583,3.8038,-3.7944,6.4665,-4.3254c0.6635,-0.1323,1.3393,-0.1994,2.0087,-0.1994c1.9989,0,3.9431,0.5924,5.6224,1.7133c2.1477,1.4334,3.6569,3.6062,4.2496,6.118c0.5897,2.4989,0.2209,5.1021,-1.0383,7.3299l-0.0492,0.0871l-1.2188,-0.689l0.0492,-0.0871c2.2429,-3.968,1.0262,-9.0609,-2.7698,-11.5945c-1.4428,-0.963,-3.1207,-1.472,-4.8522,-1.472c-2.9448,0,-5.6751,1.4566,-7.3036,3.8963c-1.5593,2.3361,-1.9023,5.2957,-0.9224,7.9297l1.688,-2.2378l1.1382,0.8152L4.4767,16.268L0.1987,13.4491z" fill="#7B7B7B"/>
    <path d="M22.4588,23.2797c-0.1419,-1.5781,-1.5063,-4.4526,-5.8688,-5.9727c-0.4919,-0.177,-0.7892,-0.5224,-0.9775,-0.8278c-0.0038,-0.0115,2.11,-0.1665,3.039,-0.8303c0.1934,-0.1382,0.1949,-0.4283,-0.0007,-0.5633c-0.632,-0.436,-0.8522,-1.1288,-0.9714,-1.8491c-0.1268,-0.7661,-0.1661,-1.5523,-0.1776,-2.3306c-0.0166,-1.1215,-0.0722,-2.2271,-0.4341,-3.3047c-0.6674,-1.9871,-2.5731,-2.7014,-4.0739,-2.5902c-0.5231,0.0388,-0.9988,0.247,-1.4143,0.5847c-0.1035,0.0841,-0.2535,0.1634,-0.3795,0.1594c-1.2597,-0.0399,-2.0125,0.7042,-2.4153,1.6886c-0.2675,0.6539,-0.4072,1.3433,-0.4215,2.0423c-0.0165,0.8073,0.0334,1.6166,0.0712,2.4242c0.0391,0.8367,-0.0201,1.6532,-0.4203,2.41c-0.1869,0.3534,-0.3582,0.56,-0.6614,0.7767c-0.1944,0.1389,-0.1963,0.425,-0.0026,0.5649c0.5602,0.4046,1.5134,0.6701,3.0375,0.8172c-0.1754,0.3281,-0.4776,0.6396,-0.9987,0.8278c-4.3454,1.5201,-5.7064,4.3946,-5.8477,5.9727l-0.0402,0.4492c-0.0131,0.1463,0.1239,0.2711,0.2976,0.2711h18.4018c0.1744,0,0.3119,-0.1248,0.2988,-0.2711L22.4588,23.2797z" fill="#9070B1"/>
  </g>
</svg>
