<?xml version="1.0" encoding="UTF-8"?>
<!DOCTYPE svg PUBLIC "-//W3C//DTD SVG 1.1//EN" "http://www.w3.org/Graphics/SVG/1.1/DTD/svg11.dtd">
<svg version="1.1" id="Layer_1" xmlns="http://www.w3.org/2000/svg" xmlns:xlink="http://www.w3.org/1999/xlink" x="0px" y="0px" width="24px" height="24px" viewBox="0 0 24 24" enable-background="new 0 0 24 24" xml:space="preserve">
  <g id="icon">
    <path d="M24,6h-8V5h8V6zM24,9h-8V8h8V9zM24,12h-8v-1h8V12zM24,15h-8v-1h8V15zM24,18h-8v-1h8V18z" fill="#6D6E71"/>
    <path d="M14.7634,19c0.1377,0,0.2463,-0.1095,0.2359,-0.2378l-0.0319,-0.394c-0.112,-1.3843,-0.8142,-3.9058,-4.2582,-5.2392c-0.7915,-0.3165,-1.168,-1.004,-0.7915,-1.504c0.9412,-1.1875,1.316,-2.713,1.316,-4.1046C11.2336,5.3652,10.553,4,7.5149,4h-0.059c-3.0263,0,-3.7042,1.3652,-3.7042,3.5204c0,1.3917,0.3733,2.9171,1.3108,4.1046c0.375,0.5,0,1.1875,-0.7884,1.504c-3.4306,1.3334,-4.13,3.8549,-4.2416,5.2392l-0.0318,0.394C-0.0096,18.8905,0.0985,19,0.2357,19H14.7634z" fill="#6485C3"/>
  </g>
</svg>
