<?xml version="1.0" encoding="UTF-8"?>
<!DOCTYPE svg PUBLIC "-//W3C//DTD SVG 1.1//EN" "http://www.w3.org/Graphics/SVG/1.1/DTD/svg11.dtd">
<svg version="1.1" id="Layer_1" xmlns="http://www.w3.org/2000/svg" xmlns:xlink="http://www.w3.org/1999/xlink" x="0px" y="0px" width="24px" height="24px" viewBox="0 0 24 24" enable-background="new 0 0 24 24" xml:space="preserve">
  <g id="icon">
    <path d="M22.9522,22.166c-0.1643,-1.8273,-1.7442,-5.1556,-6.7954,-6.9158c-0.458,-0.1648,-0.7703,-0.4557,-0.9884,-0.7472c-0.0699,-0.0934,-0.0127,-0.2274,0.1031,-0.241c0.6464,-0.0754,2.4003,-0.3117,3.2686,-0.9291c0.2247,-0.1598,0.2263,-0.5002,-0.0003,-0.6571c-0.7293,-0.505,-0.9837,-1.306,-1.1216,-2.1388c-0.1469,-0.8871,-0.1923,-1.7974,-0.2056,-2.6986c-0.0193,-1.2986,-0.0836,-2.5787,-0.5026,-3.8265c-0.7728,-2.3008,-2.9794,-3.1279,-4.7172,-2.9991c-0.6057,0.0449,-1.1565,0.2859,-1.6376,0.6771c-0.1198,0.0974,-0.2936,0.1892,-0.4394,0.1845c-1.4586,-0.0462,-2.3303,0.8154,-2.7967,1.9552c-0.3098,0.7571,-0.4715,1.5554,-0.4881,2.3647c-0.0191,0.9348,0.0387,1.8718,0.0825,2.807c0.0453,0.9689,-0.0233,1.9143,-0.4867,2.7906c-0.2163,0.409,-0.4145,0.6482,-0.7653,0.899c-0.2231,0.1594,-0.228,0.4919,-0.0059,0.6527c0.6368,0.4611,1.7135,0.7665,3.426,0.9388c0.0437,0.0044,0.0701,0.0526,0.0476,0.0903c-0.2085,0.3496,-0.5503,0.6751,-1.1106,0.8775c-5.0315,1.7601,-6.6074,5.0885,-6.7711,6.9158l-0.0466,0.5201C0.9858,22.8555,1.1445,23,1.3456,23H22.653c0.2019,0,0.3612,-0.1445,0.346,-0.3139L22.9522,22.166z" fill="#FFFFFF" opacity="0.5"/>
    <path d="M22.653,24H1.3456c-0.3879,0,-0.7566,-0.16,-1.0116,-0.4388c-0.2404,-0.2629,-0.3604,-0.6144,-0.329,-0.9644l0.0465,-0.5199c0.2015,-2.2497,1.9562,-5.3767,6.1773,-7.27c-0.5512,-0.1743,-0.9956,-0.3896,-1.3598,-0.6532c-0.363,-0.2629,-0.5789,-0.6879,-0.5775,-1.1368c0.0014,-0.4512,0.2214,-0.8772,0.5885,-1.1395c0.215,-0.1537,0.3146,-0.2726,0.4627,-0.5527c0.308,-0.5825,0.4191,-1.2633,0.3717,-2.2765c-0.0067,-0.1439,-0.0138,-0.2878,-0.0208,-0.4317c-0.039,-0.7952,-0.0793,-1.6175,-0.0625,-2.4424c0.0193,-0.9419,0.2085,-1.858,0.5624,-2.7229C6.8719,1.7931,8.14,0.883,9.7756,0.8728c0.6471,-0.5112,1.368,-0.7997,2.1431,-0.8572c2.187,-0.1625,4.8102,0.9123,5.7391,3.678c0.4763,1.418,0.5352,2.8178,0.5546,4.1301c0.0105,0.7101,0.0419,1.6417,0.1923,2.5501c0.1318,0.7961,0.3358,1.2249,0.7043,1.48c0.3729,0.2583,0.5973,0.6845,0.6,1.1403c0.0028,0.4581,-0.2176,0.8894,-0.5896,1.1539c-0.3533,0.2512,-0.8202,0.4669,-1.3971,0.646c4.255,1.8914,6.0231,5.0274,6.2259,7.2824v0l0.0467,0.5201c0.0314,0.3497,-0.0884,0.7011,-0.3287,0.964C23.411,23.8398,23.0417,24,22.653,24zM2.0794,22h19.8408c-0.1748,-0.9645,-1.1172,-4.0718,-6.0924,-5.8054l-0.0096,-0.0034c-0.6209,-0.2235,-1.1375,-0.6296,-1.5353,-1.2071c-0.2165,-0.3146,-0.2525,-0.7253,-0.0942,-1.0724c0.1583,-0.3471,0.4922,-0.5892,0.8713,-0.6319c1.0579,-0.1191,1.7572,-0.2895,2.2075,-0.4421c-0.5269,-0.6707,-0.725,-1.4665,-0.836,-2.1373c-0.1721,-1.0391,-0.2074,-2.0673,-0.219,-2.8471c-0.0171,-1.1545,-0.066,-2.3775,-0.4507,-3.5229c-0.6711,-1.998,-2.6381,-2.3989,-3.6954,-2.3203c-0.3797,0.0282,-0.7433,0.1815,-1.0806,0.4558c-0.1959,0.1593,-0.5995,0.4238,-1.102,0.4081c-0.5481,-0.0174,-1.3352,0.1021,-1.8394,1.3344c-0.2604,0.6364,-0.3996,1.3115,-0.4138,2.0065c-0.0155,0.7555,0.0214,1.5074,0.0604,2.3035c0.0071,0.1455,0.0143,0.2909,0.0211,0.4363c0.0434,0.927,0.0142,2.1403,-0.6015,3.3047c-0.1232,0.2331,-0.2473,0.4297,-0.3846,0.6044c0.5437,0.1854,1.2981,0.3273,2.2555,0.4236c0.3632,0.0366,0.6781,0.2531,0.8423,0.5792c0.1637,0.3251,0.1503,0.7057,-0.0357,1.018c-0.362,0.6069,-0.9103,1.0462,-1.6299,1.3062l-0.0096,0.0034C3.1921,17.9281,2.2534,21.0358,2.0794,22z" fill="#7B7B7B"/>
    <path d="M11.8651,15.18c-0.5519,0,-1.0008,-0.4489,-1.0008,-1.0008s0.449,-1.0008,1.0008,-1.0008s1.0008,0.449,1.0008,1.0008S12.4169,15.18,11.8651,15.18zM11.168,12.449l0.0002,-1.325c0.0095,-0.3433,0.1354,-0.6515,0.3746,-0.9188c0.1599,-0.1785,0.3545,-0.3548,0.5784,-0.5242c0.1899,-0.1438,0.4036,-0.3014,0.635,-0.4686c0.1861,-0.1344,0.3612,-0.2915,0.5206,-0.4669c0.143,-0.1577,0.2648,-0.3471,0.3619,-0.5631c0.0871,-0.1938,0.1313,-0.4359,0.1313,-0.7195c0,-0.2327,-0.0436,-0.4289,-0.1331,-0.5999c-0.0974,-0.186,-0.2224,-0.339,-0.3819,-0.4676c-0.166,-0.1337,-0.3628,-0.2387,-0.5849,-0.312c-0.2305,-0.0761,-0.4704,-0.1147,-0.7129,-0.1147c-0.217,0,-0.416,0.0226,-0.5916,0.067c-0.1804,0.0458,-0.3473,0.1075,-0.496,0.1834c-0.1543,0.0789,-0.2947,0.1679,-0.417,0.2644c-0.1254,0.0989,-0.4471,0.4053,-0.5602,0.5209l-0.07,0.0715l-0.9504,-0.9305l0.07,-0.0715c0.1356,-0.1385,0.501,-0.4881,0.687,-0.6348c0.1904,-0.1502,0.4043,-0.2864,0.6358,-0.4046c0.2368,-0.1208,0.4971,-0.2177,0.7737,-0.288c0.2824,-0.0716,0.5915,-0.1079,0.9188,-0.1079c0.3843,0,0.7645,0.0611,1.1298,0.1817c0.3743,0.1236,0.7116,0.3051,1.0024,0.5394c0.3004,0.2421,0.5445,0.5403,0.7256,0.8861c0.1891,0.3608,0.285,0.7704,0.285,1.217c0,0.4729,-0.0835,0.8984,-0.2482,1.2649c-0.1545,0.3438,-0.3531,0.6505,-0.5902,0.9118c-0.2215,0.2438,-0.4659,0.4629,-0.7265,0.651c-0.2249,0.1626,-0.4306,0.3144,-0.6114,0.4512c-0.1557,0.1177,-0.2869,0.2356,-0.39,0.3506c-0.0346,0.0387,-0.0354,0.0545,-0.0357,0.0622l0.0001,1.2944H11.168z" fill="#6D6E71"/>
  </g>
</svg>
