<?xml version="1.0" encoding="UTF-8"?>
<!DOCTYPE svg PUBLIC "-//W3C//DTD SVG 1.1//EN" "http://www.w3.org/Graphics/SVG/1.1/DTD/svg11.dtd">
<svg version="1.1" id="Layer_1" xmlns="http://www.w3.org/2000/svg" xmlns:xlink="http://www.w3.org/1999/xlink" x="0px" y="0px" width="24px" height="24px" viewBox="0 0 24 24" enable-background="new 0 0 24 24" xml:space="preserve">
  <g id="icon">
    <path d="M22.5,20.5H1.5V5.5h21V20.5z" fill="#FFFFFF" opacity="0.5"/>
    <path d="M20,13h-5v-1h5V13zM20,11h-5v-1h5V11zM20,9h-5V8h5V9z" fill="#6D6E71"/>
    <polygon points="15,4 15,6 22,6 22,20 2,20 2,6 9,6 9,4 0,4 0,22 24,22 24,4" fill="#7B7B7B" stroke-linejoin="miter"/>
    <path d="M13.5,6.5h-3V2c0,-0.8284,0.6716,-1.5,1.5,-1.5h0c0.8284,0,1.5,0.6716,1.5,1.5V6.5z" fill="#FFFFFF" opacity="0.5"/>
    <path d="M14,7h-4V2c0,-1.1028,0.8972,-2,2,-2s2,0.8972,2,2V7zM11,6h2V2c0,-0.5514,-0.4486,-1,-1,-1s-1,0.4486,-1,1V6z" fill="#6D6E71"/>
    <path d="M3.7249,19c-0.236,0,-0.4609,-0.0979,-0.6171,-0.2688c-0.1497,-0.1636,-0.2243,-0.3829,-0.2047,-0.6015l0.0208,-0.233c0.0875,-0.9764,0.7811,-2.3181,2.4563,-3.2225c-0.0728,-0.0398,-0.1409,-0.0828,-0.2055,-0.1295c-0.2204,-0.1595,-0.3515,-0.4173,-0.3506,-0.6896c0.0008,-0.2733,0.1342,-0.5314,0.3567,-0.6904c0.064,-0.0458,0.0873,-0.0707,0.1403,-0.171c0.1183,-0.2236,0.1605,-0.4947,0.1412,-0.9064l-0.0092,-0.1916c-0.0177,-0.3609,-0.036,-0.7342,-0.0283,-1.1115c0.0092,-0.4495,0.0996,-0.8868,0.2687,-1.2998c0.3281,-0.8017,0.9431,-1.2593,1.734,-1.2914c0.31,-0.2285,0.6536,-0.3581,1.0217,-0.3854C8.5186,7.8026,8.5891,7.8,8.6587,7.8c0.9148,0,2.1421,0.4731,2.5902,1.8066c0.2238,0.6659,0.2512,1.3128,0.2602,1.9184c0.0046,0.3108,0.0183,0.7179,0.0832,1.11c0.0483,0.2911,0.113,0.441,0.2234,0.5175c0.2265,0.1568,0.3628,0.4154,0.3645,0.6918c0.0017,0.2774,-0.132,0.5388,-0.3576,0.6991c-0.0632,0.045,-0.1339,0.0878,-0.2113,0.1283c1.6833,0.9039,2.3807,2.2468,2.4688,3.2248l0.0209,0.2332c0.0196,0.2186,-0.0549,0.4378,-0.2046,0.6014c-0.1563,0.1709,-0.3815,0.269,-0.6178,0.269H3.7249zM12.6638,17.6605c-0.1752,-0.5237,-0.7383,-1.5512,-2.5185,-2.1712c-0.3274,-0.1178,-0.597,-0.3283,-0.8022,-0.626c-0.141,-0.2048,-0.1645,-0.4724,-0.0614,-0.6983c0.1032,-0.226,0.3207,-0.3836,0.5675,-0.4114c0.252,-0.0284,0.4755,-0.0653,0.6666,-0.11c-0.1466,-0.2782,-0.2081,-0.564,-0.2454,-0.7897c-0.0796,-0.4804,-0.0959,-0.9519,-0.1012,-1.309c-0.0074,-0.5001,-0.0283,-1.0288,-0.1905,-1.5117c-0.2856,-0.85,-1.1607,-0.893,-1.3332,-0.893c-0.0334,0,-0.0661,0.0012,-0.0973,0.0035c-0.1242,0.0092,-0.2457,0.0614,-0.3611,0.1552c-0.107,0.087,-0.3292,0.2329,-0.6147,0.2329c0,0,-0.0482,-0.0009,-0.0595,-0.0009c-0.1932,0,-0.4131,0.0548,-0.5794,0.4611c-0.1063,0.2597,-0.1632,0.5355,-0.169,0.8199c-0.0068,0.3312,0.0095,0.6643,0.0269,1.017l0.0095,0.1959c0.0208,0.4438,0.006,1.026,-0.2952,1.5953c-0.006,0.0114,-0.0121,0.0226,-0.0181,0.0336c0.1905,0.042,0.4195,0.0766,0.6833,0.1031c0.2386,0.024,0.4455,0.1662,0.5534,0.3803c0.1076,0.2137,0.0988,0.4639,-0.0236,0.6693c-0.1893,0.3172,-0.4739,0.5461,-0.8459,0.6804c-1.7786,0.622,-2.3403,1.65,-2.5149,2.1738H12.6638z" fill="#9070B1"/>
  </g>
</svg>
