<?xml version="1.0" encoding="UTF-8"?>
<!DOCTYPE svg PUBLIC "-//W3C//DTD SVG 1.1//EN" "http://www.w3.org/Graphics/SVG/1.1/DTD/svg11.dtd">
<svg version="1.1" id="Layer_1" xmlns="http://www.w3.org/2000/svg" xmlns:xlink="http://www.w3.org/1999/xlink" x="0px" y="0px" width="16px" height="16px" viewBox="0 0 16 16" enable-background="new 0 0 16 16" xml:space="preserve">
  <g id="icon">
    <path d="M11.45,5.959C9.235,1.47,1.019,1.044,0.95,6.5M4.5,6V2.8" fill="#92CBEE" stroke="#0964B0" stroke-width="1" stroke-miterlimit="1"/>
    <path d="M2.5,10.5H0.5V7.492C0.5,6.668,2.668,6,3.492,6h7.5C12.929,6,15.5,7.071,15.5,9.008V10.5h-1.983l-0.017,-0.495c0,-0.835,-0.672,-1.512,-1.5,-1.512c-0.828,0,-1.5,0.677,-1.5,1.512l0.017,0.495H5.483l0.017,-0.495c0,-0.835,-0.672,-1.512,-1.5,-1.512c-0.828,0,-1.5,0.677,-1.5,1.512L2.5,10.5z" fill="#C8C6C4" stroke="#383838" stroke-width="1" stroke-miterlimit="1"/>
    <path d="M15.8,3c-1.846,0.288,-3.031,1.635,-3.85,3" fill="none" stroke="#383838" stroke-width="1" stroke-miterlimit="1"/>
    <path d="M0,14.5h16M5.5,14.5l1.5,-2h2l1.5,2" fill="#C8C6C4" stroke="#383838" stroke-width="1" stroke-miterlimit="1"/>
  </g>
</svg>
