<?xml version="1.0" encoding="UTF-8"?>
<!DOCTYPE svg PUBLIC "-//W3C//DTD SVG 1.1//EN" "http://www.w3.org/Graphics/SVG/1.1/DTD/svg11.dtd">
<svg version="1.1" id="Layer_1" xmlns="http://www.w3.org/2000/svg" xmlns:xlink="http://www.w3.org/1999/xlink" x="0px" y="0px" width="16px" height="16px" viewBox="0 0 16 16" enable-background="new 0 0 16 16" xml:space="preserve">
  <g id="icon">
    <path d="M10.344,12.527c-0.281,0.072,-4.297,1.469,-6.773,1.367c-1.9,-0.077,-2.834,-0.745,-3.035,-1.639s0.427,-1.782,2.085,-2.427" fill="#F7DA8E" stroke="#E57428" stroke-width="1" stroke-linecap="round" stroke-miterlimit="1"/>
    <path d="M14.703,6.698c-0.984,-2.63,-3.155,-4.16,-5.955,-4.198l-0.004,0l-0.004,0c-0.048,0.006,-0.107,0.012,-0.174,0.019c-0.191,0.019,-0.453,0.046,-0.71,0.094c-0.261,0.048,-0.529,0.125,-0.798,0.229C5.641,3.385,4.535,4.363,3.77,5.749c-0.808,1.462,-1.02,2.986,-1.057,4.006c-0.011,0.322,0.216,0.716,0.415,0.928c0.971,1.034,2.272,1.291,2.531,1.362c0.435,0.119,1.184,0.29,2.291,0.433c0.527,0.02,0.971,0.034,1.422,0.034c0.331,0,0.632,-0.008,0.919,-0.023c1.592,-0.086,3.153,-0.622,4.91,-1.687c0.157,-0.095,0.302,-0.377,0.298,-0.58C15.473,8.92,15.082,7.71,14.703,6.698z" fill="#F7DA8E" stroke="#E57428" stroke-width="1" stroke-linecap="round" stroke-miterlimit="1"/>
    <path d="M4.6,9.236c0.474,-3.398,2.372,-4.531,3.368,-4.862" fill="none" stroke="#E57428" stroke-width="0.9" stroke-linecap="round" stroke-miterlimit="1"/>
    <path d="M10.874,10.603l2.643,-0.861" fill="#F7DA8E" stroke="#E57428" stroke-width="1" stroke-miterlimit="1"/>
  </g>
</svg>
