<?xml version="1.0" encoding="UTF-8"?>
<!DOCTYPE svg PUBLIC "-//W3C//DTD SVG 1.1//EN" "http://www.w3.org/Graphics/SVG/1.1/DTD/svg11.dtd">
<svg version="1.1" id="Layer_1" xmlns="http://www.w3.org/2000/svg" xmlns:xlink="http://www.w3.org/1999/xlink" x="0px" y="0px" width="16px" height="16px" viewBox="0 0 16 16" enable-background="new 0 0 16 16" xml:space="preserve">
  <g id="icon">
    <rect x="2.527" y="2.474" width="10.898" height="10.95" fill="#FFFFFF"/>
    <path d="M13.217,2.526H2.838C2.265,2.526,1.8,2.061,1.8,1.488v0C1.8,0.915,2.265,0.45,2.838,0.45h10.379c0.573,0,1.038,0.465,1.038,1.038v0C14.255,2.061,13.79,2.526,13.217,2.526zM14.255,14.462L14.255,14.462c0,-0.573,-0.465,-1.038,-1.038,-1.038H2.838c-0.573,0,-1.038,0.465,-1.038,1.038v0c0,0.573,0.465,1.038,1.038,1.038h10.379C13.79,15.5,14.255,15.035,14.255,14.462zM2.578,2.526v10.898M13.477,2.526v10.898" fill="#FFFFFF"/>
    <path d="M13.5,2.5H2.5c-0.552,0,-1,-0.448,-1,-1v0c0,-0.552,0.448,-1,1,-1h11c0.552,0,1,0.448,1,1v0C14.5,2.052,14.052,2.5,13.5,2.5zM14.5,14.5L14.5,14.5c0,-0.552,-0.448,-1,-1,-1H2.5c-0.552,0,-1,0.448,-1,1v0c0,0.552,0.448,1,1,1h11C14.052,15.5,14.5,15.052,14.5,14.5zM2.5,2.5v11M13.5,2.5v11" fill="none" stroke="#383838" stroke-width="1" stroke-miterlimit="1"/>
    <path d="M9.73,11.799c-0.047,0,-0.093,-0.007,-0.137,-0.02c-0.123,-0.037,-0.228,-0.124,-0.288,-0.238c-0.131,-0.251,-0.59,-1.13,-0.981,-1.896l-0.061,-0.12l0.062,-0.015c0.21,-0.05,0.408,-0.151,0.574,-0.293l0.048,-0.041l0.061,0.12c0.287,0.564,0.608,1.181,0.835,1.616c0.782,-0.533,1.308,-1.405,1.419,-2.351c-0.282,-0.003,-0.676,-0.005,-1.175,-0.005c-0.193,0,-0.755,0.001,-0.755,0.001l0.016,-0.062c0.028,-0.111,0.042,-0.225,0.042,-0.339c0,-0.102,-0.011,-0.204,-0.034,-0.305l-0.014,-0.061c0,0,0.526,-0.001,0.738,-0.001c0.733,0,1.238,0.003,1.502,0.01c0.128,0.003,0.248,0.056,0.336,0.149c0.089,0.094,0.136,0.217,0.132,0.346c-0.041,1.433,-0.84,2.752,-2.086,3.443C9.893,11.778,9.812,11.799,9.73,11.799zM6.275,11.799c-0.082,0,-0.163,-0.021,-0.234,-0.06c-1.246,-0.691,-2.045,-2.01,-2.086,-3.443c-0.004,-0.129,0.043,-0.252,0.132,-0.346c0.088,-0.093,0.208,-0.146,0.336,-0.149c0.264,-0.007,0.762,-0.01,1.48,-0.01c0.197,0,0.763,0.001,0.763,0.001l-0.014,0.061c-0.023,0.101,-0.034,0.203,-0.034,0.305c0,0.114,0.014,0.228,0.042,0.339l0.016,0.062c0,0,-0.563,-0.001,-0.755,-0.001c-0.497,0,-0.893,0.002,-1.178,0.005c0.111,0.946,0.637,1.818,1.419,2.351c0.19,-0.365,0.529,-1.017,0.835,-1.618l0.061,-0.12l0.048,0.041c0.165,0.142,0.363,0.243,0.573,0.294l0.062,0.015l-0.061,0.119c-0.399,0.783,-0.852,1.65,-0.981,1.898c-0.06,0.114,-0.165,0.201,-0.288,0.238C6.368,11.792,6.321,11.799,6.275,11.799zM8.004,9.278c-0.614,0,-1.114,-0.503,-1.114,-1.121c0,-0.618,0.5,-1.121,1.114,-1.121c0.614,0,1.114,0.503,1.114,1.121C9.118,8.775,8.619,9.278,8.004,9.278zM8.004,7.804c-0.191,0,-0.347,0.159,-0.347,0.353s0.156,0.353,0.347,0.353c0.191,0,0.347,-0.159,0.347,-0.353S8.196,7.804,8.004,7.804zM6.893,7.111C6.511,6.484,6.011,5.658,5.8,5.29c-0.132,-0.23,-0.052,-0.525,0.178,-0.657c0.608,-0.35,1.303,-0.535,2.009,-0.535c0.704,0,1.396,0.184,2.002,0.532c0.113,0.065,0.193,0.17,0.226,0.296c0.033,0.126,0.014,0.257,-0.052,0.369l-0.055,0.092c-0.186,0.313,-0.623,1.047,-1.025,1.709l-0.068,0.111l-0.045,-0.044c-0.156,-0.152,-0.346,-0.267,-0.552,-0.332l-0.061,-0.019l0.069,-0.114c0.361,-0.594,0.758,-1.261,0.921,-1.534c-0.423,-0.195,-0.893,-0.297,-1.362,-0.297c-0.472,0,-0.945,0.104,-1.371,0.301c0.199,0.337,0.52,0.869,0.933,1.546l0.066,0.109l-0.059,0.02c-0.204,0.07,-0.392,0.19,-0.543,0.346l-0.045,0.046L6.893,7.111z" fill="#ED8730"/>
  </g>
</svg>
