<?xml version="1.0" encoding="UTF-8"?>
<!DOCTYPE svg PUBLIC "-//W3C//DTD SVG 1.1//EN" "http://www.w3.org/Graphics/SVG/1.1/DTD/svg11.dtd">
<svg version="1.1" id="Layer_1" xmlns="http://www.w3.org/2000/svg" xmlns:xlink="http://www.w3.org/1999/xlink" x="0px" y="0px" width="16px" height="16px" viewBox="0 0 16 16" enable-background="new 0 0 16 16" xml:space="preserve">
  <g id="icon">
    <path d="M8,15.45c0,-0.7,-0.55,-0.95,-1.25,-0.95S0.5,14.5,0.5,14.5V1.5h6.25C7.4404,1.5,8,2.0596,8,2.75C8,2.75,8,16.35,8,15.45z" fill="#FFFFFF" opacity="0.5"/>
    <path d="M8.5,15.4928H7.5V15.45c0,-0.146,0,-0.45,-0.75,-0.45H0V1h6.75C7.7149,1,8.5,1.7851,8.5,2.75V15.4928zM1,14h5.75c0.28,0,0.5312,0.0354,0.75,0.1033V2.75c0,-0.4136,-0.3364,-0.75,-0.75,-0.75H1V14z" fill="#6E6F72"/>
    <path d="M8,15.45c0,-0.7,0.55,-0.95,1.25,-0.95s6.25,0,6.25,0V1.5H9.25C8.5596,1.5,8,2.0596,8,2.75C8,2.75,8,16.35,8,15.45z" fill="#FFFFFF" opacity="0.5"/>
    <path d="M8.5,15.4928H7.5V2.75C7.5,1.7851,8.2851,1,9.25,1H16v14H9.25c-0.75,0,-0.75,0.304,-0.75,0.45V15.4928zM9.25,2c-0.4136,0,-0.75,0.3364,-0.75,0.75v11.3533c0.2188,-0.0679,0.47,-0.1033,0.75,-0.1033H15V2H9.25z" fill="#6E6F72"/>
    <path d="M6.5,13H2v-1h4.5V13zM6.5,10H2v1h4.5V10zM14,12H9.5v1h4.5V12zM14,10H9.5v1h4.5V10z" fill="#6E6F72"/>
    <path d="M4.7912,3.4289c-0.0098,-0.0247,-0.0285,-0.0796,-0.0289,-0.081l-0.116,-0.3375l-0.7383,-0.0009l-0.1205,0.3273c0,0,-0.0248,0.0674,-0.0348,0.0919L1.8334,8.6783l0.9393,0.3434l0.55,-1.5046h1.8998l0.5506,1.5048l0.9392,-0.3437L4.7979,3.4461L4.7912,3.4289zM3.6882,6.517l0.5839,-1.5975l0.5845,1.5975H3.6882zM13.8351,6.4689c-0.0989,-0.2191,-0.2406,-0.409,-0.421,-0.5644c-0.0138,-0.0119,-0.0293,-0.0221,-0.0436,-0.0336c0.1281,-0.1533,0.2327,-0.3369,0.3018,-0.5387c0.0675,-0.1974,0.1018,-0.3958,0.1018,-0.5897c0,-0.5366,-0.1781,-0.9828,-0.515,-1.2905c-0.3287,-0.3,-0.8043,-0.4521,-1.4137,-0.4521H10v2.5v1v2.5h2.0247c0.2764,0,0.5316,-0.0348,0.7583,-0.1033c0.2834,-0.0855,0.4988,-0.271,0.6413,-0.3938c0.1859,-0.1602,0.3286,-0.3613,0.424,-0.598c0.0919,-0.2279,0.1347,-0.4613,0.1347,-0.7347C13.9828,6.915,13.9359,6.6922,13.8351,6.4689zM11,4h0.8452c0.3472,0,0.6029,0.066,0.7395,0.1906c0.1255,0.1146,0.1892,0.3003,0.1892,0.5519c0,0.0835,-0.0161,0.1731,-0.0479,0.266c-0.0322,0.0941,-0.0807,0.1794,-0.1365,0.2401c-0.0633,0.0688,-0.1521,0.1284,-0.2643,0.1773c-0.1124,0.0491,-0.2625,0.074,-0.446,0.074H11V4zM12.9207,7.5311c-0.0356,0.0884,-0.0843,0.1584,-0.1491,0.2142c-0.0879,0.0757,-0.1972,0.1699,-0.2779,0.1942c-0.1329,0.0402,-0.2907,0.0606,-0.469,0.0606H11V6.5h0.8792h0.1522c0.0516,0,0.1021,-0.0011,0.1518,-0.0021c0.1205,-0.0026,0.2341,-0.0051,0.2952,0.0143c0.1144,0.0364,0.2097,0.0869,0.2832,0.1502c0.0701,0.0603,0.1231,0.1316,0.1621,0.2179c0.042,0.0931,0.0592,0.1771,0.0592,0.2899C12.9828,7.3132,12.9637,7.4245,12.9207,7.5311z" fill="#6486C4"/>
  </g>
</svg>
