<?xml version="1.0" encoding="UTF-8"?>
<!DOCTYPE svg PUBLIC "-//W3C//DTD SVG 1.1//EN" "http://www.w3.org/Graphics/SVG/1.1/DTD/svg11.dtd">
<svg version="1.1" id="Layer_1" xmlns="http://www.w3.org/2000/svg" xmlns:xlink="http://www.w3.org/1999/xlink" x="0px" y="0px" width="16px" height="16px" viewBox="0 0 16 16" enable-background="new 0 0 16 16" xml:space="preserve">
  <g id="icon">
    <rect y="2" width="16" height="12" fill="#77A2D6"/>
    <rect y="2" width="16" height="6" fill="#F37980"/>
    <polyline points="0,2 8,8 0,14" fill="#7C7B7A" stroke-linejoin="miter"/>
    <polygon points="0,2 0,4.344 4.875,8 0,11.656 0,14 0,14 3.144,14 8.525,10 16,10 16,6 8.525,6 3.144,2" fill="#FFFFFF" stroke-linejoin="miter"/>
    <polygon points="0,13.108 6.81,8 0,2.892 0,4.334 4.887,8 0,11.666" fill="#F7CE73" stroke-linejoin="miter"/>
    <polygon points="0,2 0,3.442 6.077,8 0,12.558 0,14 0,14 1.935,14 8.323,9.25 16,9.25 16,6.75 8.323,6.75 1.935,2" fill="#63BF80" stroke-linejoin="miter"/>
    <path d="M16,14H0V2h16V14zM1,13h14V3H1V13z" fill="#211F20" opacity="0.20"/>
  </g>
</svg>
