<?xml version="1.0" encoding="UTF-8"?>
<!DOCTYPE svg PUBLIC "-//W3C//DTD SVG 1.1//EN" "http://www.w3.org/Graphics/SVG/1.1/DTD/svg11.dtd">
<svg version="1.1" id="Layer_1" xmlns="http://www.w3.org/2000/svg" xmlns:xlink="http://www.w3.org/1999/xlink" x="0px" y="0px" width="16px" height="16px" viewBox="0 0 16 16" enable-background="new 0 0 16 16" xml:space="preserve">
  <g id="icon">
    <rect y="2" width="16" height="3" fill="#F37980"/>
    <rect y="5" width="16" height="6" fill="#F7CE73"/>
    <rect y="11" width="16" height="3" fill="#F37980"/>
    <rect x="2.323" y="7.412" width="0.59" height="0.332" fill="#7C7B7A"/>
    <rect x="2.323" y="9.846" width="0.609" height="0.313" fill="#7C7B7A"/>
    <rect x="2.415" y="7.744" width="0.424" height="2.102" fill="#FFFFFF"/>
    <rect x="6.288" y="7.412" width="0.59" height="0.332" fill="#7C7B7A"/>
    <rect x="6.269" y="9.846" width="0.609" height="0.313" fill="#7C7B7A"/>
    <rect x="6.361" y="7.744" width="0.424" height="2.102" fill="#FFFFFF"/>
    <path d="M3.282,8.26v0.258c-0.092,-0.037,-0.258,-0.074,-0.443,-0.074c-0.055,0,-0.129,0,-0.203,0.018c-0.258,0.037,-0.461,0.148,-0.443,0.221l-0.092,-0.203c-0.018,-0.092,0.203,-0.203,0.479,-0.258c0.092,-0.018,0.184,-0.018,0.258,-0.018C3.023,8.205,3.189,8.223,3.282,8.26z" fill="#F37980"/>
    <path d="M2.212,8.702c0,0.055,0.092,0.092,0.203,0.092l0.018,-0.221c-0.037,0,-0.074,0,-0.111,0C2.249,8.61,2.212,8.666,2.212,8.702z" fill="#F37980"/>
    <path d="M2.839,8.629v0.203c0.111,-0.055,0.184,-0.129,0.166,-0.148C2.968,8.666,2.913,8.647,2.839,8.629z" fill="#F37980"/>
    <path d="M3.008,8.703l-0.003,-0.019C3.01,8.689,3.011,8.695,3.008,8.703z" fill="#F37980"/>
    <path d="M3.042,8.905l-0.034,-0.202c-0.016,0.051,-0.18,0.159,-0.372,0.239c-0.092,0.037,-0.148,0.074,-0.221,0.092c-0.166,0.055,-0.295,0.129,-0.277,0.166l0.037,0.203c0,-0.008,0.023,-0.028,0.059,-0.05c-0.036,0.028,-0.059,0.054,-0.059,0.069c0,0.018,0.018,0.037,0.055,0.055c0.037,0.018,0.074,0.055,0.055,0.092c0.037,-0.037,0.055,-0.074,0.055,-0.111c0,-0.053,-0.034,-0.106,-0.07,-0.126c0.04,-0.021,0.09,-0.043,0.143,-0.058c0.074,-0.018,0.203,-0.074,0.277,-0.111C2.913,9.053,3.06,8.942,3.042,8.905z" fill="#F37980"/>
    <path d="M7.099,8.463l-0.092,0.221c0.018,-0.074,-0.184,-0.184,-0.443,-0.221c-0.074,-0.018,-0.148,-0.018,-0.203,-0.018c-0.184,0,-0.35,0.037,-0.443,0.074V8.26c0.092,-0.037,0.258,-0.055,0.443,-0.055c0.074,0,0.166,0,0.258,0C6.896,8.26,7.117,8.371,7.099,8.463z" fill="#F37980"/>
    <path d="M6.988,8.702c0,-0.037,-0.037,-0.092,-0.111,-0.129c-0.037,0,-0.074,0,-0.111,0l0.018,0.221C6.896,8.795,6.988,8.758,6.988,8.702z" fill="#F37980"/>
    <path d="M6.361,8.832v-0.203c-0.074,0.018,-0.129,0.037,-0.166,0.055c-0.005,0.005,-0.006,0.011,-0.003,0.019l0.001,-0.008C6.199,8.724,6.267,8.784,6.361,8.832z" fill="#F37980"/>
    <path d="M6.785,9.034c-0.074,-0.018,-0.129,-0.055,-0.221,-0.092c-0.192,-0.08,-0.356,-0.188,-0.372,-0.239l-0.034,0.202c-0.018,0.037,0.129,0.148,0.35,0.258c0.074,0.037,0.203,0.092,0.277,0.111c0.051,0.015,0.099,0.038,0.137,0.062c-0.033,0.023,-0.064,0.074,-0.064,0.141c0,0.037,0.018,0.074,0.055,0.111c-0.018,-0.018,0.018,-0.074,0.055,-0.111c0.037,-0.018,0.055,-0.037,0.055,-0.055c0,-0.006,-0.005,-0.015,-0.012,-0.025L7.062,9.2C7.08,9.164,6.951,9.09,6.785,9.034z" fill="#F37980"/>
    <path d="M4.591,6.231c-0.369,0,-1.07,0.074,-1.328,0.332c0.277,0.664,0.738,0.387,1.328,0.387c0.609,0,1.051,0.277,1.328,-0.387C5.66,6.305,4.941,6.231,4.591,6.231z" fill="#F37980"/>
    <path d="M5.495,6.969c-0.221,-0.129,-0.553,-0.148,-0.904,-0.148c-0.35,0,-0.682,0.037,-0.904,0.148l0.074,0.313c0.203,0.055,0.498,0.092,0.83,0.111c0.332,0,0.609,-0.037,0.83,-0.111L5.495,6.969" fill="#7C7B7A"/>
    <path d="M5.896,6.649l-0.07,-0.104c0.111,-0.074,0.092,-0.406,-0.35,-0.406c-0.037,0,-0.092,0.018,-0.129,0.018c0.092,0.184,-0.111,0.35,-0.111,0.35l-0.055,-0.092c0.166,-0.092,0.166,-0.406,-0.221,-0.406c-0.092,0,-0.184,0.037,-0.24,0.074c0,0.018,0.018,0.258,0.037,0.313l-0.148,0.129l-0.148,-0.129c0.018,-0.037,0.037,-0.295,0.037,-0.313c-0.074,-0.055,-0.148,-0.074,-0.24,-0.074c-0.369,0,-0.35,0.314,-0.221,0.406l-0.055,0.092c0,0,-0.24,-0.166,-0.111,-0.35c-0.037,-0.018,-0.074,-0.018,-0.129,-0.018c-0.369,0,-0.553,0.148,-0.35,0.406L3.3,6.655c0,0,-0.424,-0.572,0.424,-0.572c0.055,0,0.111,0,0.166,0.018c0,0.018,0.111,-0.148,0.369,-0.148c0.092,0,0.166,0.018,0.24,0.055V5.99c0,-0.022,0.02,-0.05,0.043,-0.07c-0.023,-0.013,-0.043,-0.035,-0.054,-0.059H4.48v-0.037v-0.018h0.002c0.008,-0.036,0.037,-0.069,0.072,-0.084v-0.008v-0.092h-0.055v-0.055h0.055v-0.055h0.074v0.055h0.055v0.055h-0.055v0.092v0.008c0.035,0.015,0.064,0.048,0.072,0.084h0.002l0.018,0.018l-0.018,0.037h-0.008c-0.01,0.024,-0.029,0.045,-0.052,0.058c0.017,0.014,0.032,0.033,0.041,0.052v0.018c0.074,-0.037,0.148,-0.055,0.24,-0.055c0.258,0,0.369,0.148,0.369,0.148c0.055,-0.018,0.111,-0.018,0.166,-0.018c0.129,0,0.277,0.055,0.35,0.111C6.044,6.378,5.895,6.61,5.896,6.649z" fill="#7C7B7A"/>
    <path d="M5.9,6.655l-0.004,-0.006C5.896,6.653,5.897,6.655,5.9,6.655z" fill="#7C7B7A"/>
    <path d="M4.609,10.528c-0.35,0,-0.682,-0.092,-0.977,-0.221c-0.221,-0.111,-0.35,-0.314,-0.35,-0.553v-0.885h2.656v0.885c0,0.24,-0.148,0.461,-0.35,0.553C5.292,10.454,4.96,10.528,4.609,10.528" fill="#FFFFFF"/>
    <rect x="4.591" y="7.393" width="1.328" height="1.475" fill="#FFFFFF"/>
    <path d="M4.609,9.754c0,0.35,-0.295,0.627,-0.664,0.627s-0.664,-0.277,-0.664,-0.627v-0.885h1.328V9.754" fill="#F37980"/>
    <rect x="3.263" y="7.393" width="1.328" height="1.475" fill="#F37980"/>
    <path d="M5.937,8.868H4.609v0.885c0,0.35,0.295,0.627,0.664,0.627s0.664,-0.277,0.664,-0.627V8.868" fill="#F37980"/>
    <path d="M5.458,7.651c0.055,0.111,0.055,0.387,-0.111,0.332c0.037,0.018,0.055,0.148,0.111,0.221c0.092,0.111,0.203,0.018,0.184,-0.111c-0.037,-0.203,-0.018,-0.332,0.018,-0.535c0,0.018,0.092,0.018,0.129,-0.018c-0.018,0.055,-0.037,0.129,0,0.129c-0.037,0.055,-0.129,0.148,-0.148,0.203c-0.018,0.129,0.184,0.369,-0.037,0.424c-0.148,0.037,-0.055,0.148,0,0.203c0,0,-0.074,0.24,-0.037,0.221c-0.148,0.055,-0.111,-0.074,-0.111,-0.074c0.074,-0.221,-0.129,-0.24,-0.111,-0.277c-0.184,-0.018,0.018,0.166,-0.148,0.166c-0.037,0,-0.111,0.037,-0.111,0.037c-0.203,-0.018,-0.092,-0.203,-0.018,-0.184c0.055,0.018,0.111,0.111,0.111,-0.018c0,0,-0.092,-0.148,0.148,-0.148c-0.092,0,-0.148,-0.074,-0.184,-0.166c-0.037,0.018,-0.092,0.111,-0.295,0.129c0,0,-0.055,-0.203,0,-0.166c0.074,0.037,0.111,0.037,0.184,-0.037c-0.037,-0.055,-0.258,-0.129,-0.221,-0.258c0,-0.037,0.111,-0.092,0.111,-0.092c-0.018,0.092,0.037,0.184,0.148,0.184c0.148,0.018,0.092,-0.037,0.111,-0.074c0.018,-0.037,0.129,0.018,0.092,-0.074c0,-0.018,-0.129,-0.037,-0.092,-0.092C5.255,7.485,5.365,7.559,5.458,7.651" fill="#F37980"/>
    <path d="M3.558,10.27l0.018,-1.438h0.148v1.512C3.65,10.325,3.595,10.288,3.558,10.27" fill="#F7CE73"/>
    <path d="M3.263,9.735c0,0.184,0.074,0.332,0.148,0.406V8.832h-0.148V9.735" fill="#F7CE73"/>
    <path d="M3.853,10.381c0.055,0,0.111,0,0.148,0V8.832h-0.148V10.381" fill="#F7CE73"/>
    <path d="M4.148,10.344c0.055,-0.018,0.129,-0.055,0.166,-0.074V8.832h-0.148L4.148,10.344" fill="#F7CE73"/>
    <path d="M4.462,10.141c0.074,-0.055,0.129,-0.184,0.148,-0.332V8.85h-0.148V10.141" fill="#F7CE73"/>
    <polygon points="3.669,7.707 3.669,7.799 3.706,7.799 3.706,7.873 3.614,7.873 3.614,8.057 3.669,8.057 3.669,8.463 3.558,8.463 3.558,8.666 4.314,8.666 4.314,8.463 4.222,8.463 4.222,8.057 4.259,8.057 4.259,7.873 4.167,7.873 4.167,7.799 4.222,7.799 4.222,7.707 4.038,7.707 4.038,7.799 4.075,7.799 4.075,7.873 3.983,7.873 3.983,7.652 4.038,7.652 4.038,7.56 3.835,7.56 3.835,7.652 3.89,7.652 3.89,7.873 3.798,7.873 3.798,7.799 3.835,7.799 3.835,7.707" fill="#F7CE73" stroke-linejoin="miter"/>
    <polyline points="5.753,9.975 5.753,9.053 4.794,9.053 4.794,9.975 5.237,10.178 5.292,10.178 5.753,9.975" fill="#F7CE73" stroke-linejoin="miter"/>
    <polyline points="5.236,9.127 5.236,9.44 4.922,9.127 5.236,9.127" fill="#F7CE73" stroke-linejoin="miter"/>
    <polyline points="4.849,9.145 5.218,9.514 4.849,9.883 4.849,9.145" fill="#F7CE73" stroke-linejoin="miter"/>
    <polyline points="4.886,9.956 5.236,9.606 5.236,10.122 4.886,9.956" fill="#F7CE73" stroke-linejoin="miter"/>
    <polyline points="5.292,10.104 5.292,9.588 5.642,9.938 5.292,10.104" fill="#F7CE73" stroke-linejoin="miter"/>
    <polyline points="5.679,9.883 5.31,9.514 5.679,9.145 5.679,9.883" fill="#F7CE73" stroke-linejoin="miter"/>
    <polyline points="5.292,9.127 5.606,9.127 5.292,9.44 5.292,9.127" fill="#F7CE73" stroke-linejoin="miter"/>
    <path d="M4.167,8.85c0,-0.277,0.184,-0.479,0.424,-0.479c0.24,0,0.424,0.221,0.424,0.479s-0.184,0.479,-0.424,0.479S4.167,9.127,4.167,8.85" fill="#F37980"/>
    <path d="M4.296,8.85c0,-0.203,0.129,-0.35,0.295,-0.35s0.295,0.166,0.295,0.35c0,0.203,-0.129,0.35,-0.295,0.35S4.296,9.053,4.296,8.85" fill="#77A2D6"/>
    <polyline points="4.462,8.61 4.536,8.813 4.481,8.831 4.518,8.905 4.407,8.905 4.444,8.831 4.389,8.813 4.462,8.61" fill="#F7CE73" stroke-linejoin="miter"/>
    <polyline points="4.738,8.61 4.664,8.813 4.719,8.831 4.682,8.905 4.793,8.905 4.775,8.831 4.83,8.813 4.738,8.61" fill="#F7CE73" stroke-linejoin="miter"/>
    <polyline points="4.609,8.85 4.517,9.053 4.572,9.071 4.554,9.145 4.646,9.145 4.628,9.071 4.683,9.053 4.609,8.85" fill="#F7CE73" stroke-linejoin="miter"/>
    <path d="M16,14H0V2h16V14zM1,13h14V3H1V13z" fill="#211F20" opacity="0.20"/>
  </g>
</svg>
