<?xml version="1.0" encoding="UTF-8"?>
<!DOCTYPE svg PUBLIC "-//W3C//DTD SVG 1.1//EN" "http://www.w3.org/Graphics/SVG/1.1/DTD/svg11.dtd">
<svg version="1.1" id="Layer_1" xmlns="http://www.w3.org/2000/svg" xmlns:xlink="http://www.w3.org/1999/xlink" x="0px" y="0px" width="16px" height="16px" viewBox="0 0 16 16" enable-background="new 0 0 16 16" xml:space="preserve">
  <g id="icon">
    <rect y="2" width="16" height="12" fill="#F7CE73"/>
    <rect x="1.5" y="3.5" width="13" height="9" fill="#F37980"/>
    <polyline points="10.5174,7.8749 10.9798,7.6607 11.1831,7.3754 11.1646,7.3043 10.9055,7.4825 10.6836,7.5716 10.6464,7.5716 10.9612,7.3934 11.1646,7.019 11.1274,6.9479 10.9055,7.1792 10.665,7.3394 10.6464,7.3394 11.0355,6.8939 11.1098,6.5375 11.0726,6.5195 10.8136,6.929 10.7021,7.0361 10.6836,7.0181 10.9055,6.6617 10.9798,6.2873 10.9241,6.056 10.8869,6.038 10.7393,6.4655 10.5916,6.7148 10.5731,6.6968 10.7393,6.0551 10.6836,5.5736 10.6093,5.5025 10.5536,5.948 10.4236,6.3404 10.405,6.3224 10.4607,6.0371 10.4421,5.5025 10.2945,5.2352 10.1831,6.0551 10.1274,6.0731 9.9611,6.5186 9.7949,6.7499 9.7578,6.6788 9.7206,6.6788 9.4987,7.0172 9.2768,7.3736 9.4244,7.6049 9.5173,7.7471 9.3696,7.8362 9.1849,7.8542 9.1291,7.9433 9.0549,8 9.0363,8 9.1477,7.5545 8.7958,7.1621 8.7401,7.1801 8.7401,7.1441 8.6844,6.9659 8.7772,6.9659 8.7772,6.8948 8.7401,6.7526 8.7586,6.6995 8.8329,6.7526 8.8701,6.6815 8.9444,6.5393 9.0558,6.5753 9.2777,6.5042 9.352,6.4331 9.5739,6.4862 9.8144,6.3791 9.7959,6.1829 9.7587,6.1829 9.703,6.3251 9.5368,6.3431 9.3149,6.3251 9.222,6.3431 9.3696,6.254 9.5173,6.29 9.573,6.29 9.5544,6.1118 9.3882,6.0407 9.2954,6.0587 9.1654,5.9336 8.832,6.0047 8.6844,6.0047 8.5544,5.9336 8.5729,5.8445 8.6101,5.8265 8.6286,5.7905 8.5915,5.7374 8.6658,5.6483 8.7401,5.6123 8.7958,5.6123 8.8144,5.5943 8.8515,5.5583 8.8515,5.4872 8.8515,5.4512 8.8701,5.3981 8.8701,5.3801 8.8886,5.327 8.8515,5.2739 8.8329,5.2739 8.8144,5.2208 8.7772,5.1848 8.7772,5.1488 8.7401,5.0957 8.7029,5.0957 8.6101,5.0426 8.5729,5.0246 8.5544,4.9886 8.5172,4.9706 8.4986,4.9706 8.3686,4.9175 8.3315,4.8995 8.2015,4.8464 8.1644,4.8284 8.2015,4.7393 8.1272,4.6322 8.0715,4.6142 8.0715,4.5782 8.1458,4.5782 8.1458,4.4711 8.0715,4.4711 8.0929,4.4 7.9629,4.4 7.9814,4.4711 7.9071,4.4711 7.9071,4.5782 7.9814,4.5782 7.9814,4.6142 7.9257,4.6322 7.87,4.7393 7.9071,4.8284 7.87,4.8464 7.74,4.8995 7.7029,4.9175 7.5552,4.9535 7.5366,4.9535 7.4995,4.9715 7.4809,5.0075 7.4438,5.0255 7.3509,5.0786 7.3138,5.0786 7.2766,5.1317 7.2766,5.1677 7.2395,5.2037 7.2209,5.2568 7.2024,5.2568 7.1652,5.3099 7.1838,5.363 7.1838,5.381 7.2024,5.4341 7.2024,5.4701 7.2024,5.5412 7.2395,5.5772 7.2581,5.5952 7.3138,5.5952 7.3881,5.6312 7.4624,5.7203 7.4252,5.7734 7.4438,5.8094 7.4809,5.8274 7.4995,5.9165 7.3695,5.9876 7.2219,5.9876 6.8885,5.8985 6.7585,6.0236 6.6656,6.0056 6.4994,6.0767 6.4809,6.2549 6.5366,6.2549 6.6842,6.2189 6.8319,6.308 6.739,6.29 6.5171,6.308 6.3509,6.29 6.2951,6.1478 6.258,6.1478 6.2394,6.344 6.4799,6.4511 6.7019,6.398 6.7761,6.4691 6.9981,6.5402 7.1095,6.5042 7.1838,6.6464 7.2209,6.7175 7.2952,6.6644 7.3138,6.7175 7.2952,6.8777 7.2952,6.9488 7.3881,6.9488 7.3324,7.127 7.3138,7.145 7.2581,7.127 6.8876,7.5365 6.999,7.982 6.9804,7.982 6.9061,7.9289 6.8504,7.8398 6.6656,7.8218 6.518,7.7507 6.6109,7.6085 6.7585,7.3772 6.5366,7.0208 6.3146,6.6824 6.2775,6.6824 6.2404,6.7535 6.0741,6.5222 5.9079,6.0767 5.8522,6.0587 5.7408,5.2388 5.5931,5.5061 5.556,6.0047 5.6117,6.29 5.5931,6.308 5.4631,5.9156 5.426,5.5061 5.3517,5.6132 5.296,6.0947 5.4622,6.7364 5.4436,6.7544 5.2774,6.4691 5.1298,6.0416 5.0926,6.0596 5.0369,6.2909 5.1112,6.6653 5.3331,7.0217 5.3146,7.0397 5.2217,6.8975 4.9626,6.488 4.9255,6.506 4.9998,6.8624 5.3889,7.3079 5.3703,7.3079 5.1307,7.145 4.9088,6.9137 4.8716,6.9848 5.075,7.3592 5.3898,7.5374 5.3526,7.5374 5.1307,7.4483 4.8716,7.2701 4.8531,7.3772 5.0564,7.6625 5.5189,7.8767 5.5374,7.8947 5.3712,7.8587 4.9636,7.6985 4.9079,7.7165 5.1112,8.0198 5.5189,8.1269 5.5374,8.1449 5.3341,8.1269 5.075,8.0558 5.0574,8 5.0759,8 5.0388,8.018 5.0016,8 5.0016,7.9289 4.9831,7.9109 4.8716,7.964 4.8902,8.0171 4.9274,8.0702 4.8345,8.0882 4.8159,8.1242 4.8531,8.2313 4.8716,8.2313 4.9459,8.1953 4.9645,8.2844 4.9088,8.3204 4.9274,8.3915 5.0574,8.5166 5.1502,9.0152 5.3721,9.4076 5.3907,9.4436 5.3721,9.5327 5.4464,9.6218 5.465,9.6578 5.465,9.818 5.5764,10.0493 5.595,10.0853 5.5579,10.1033 5.4836,10.1924 5.4836,10.2995 5.5579,10.3886 5.5393,10.4246 5.595,10.5317 5.6879,10.5677 5.6879,10.6208 5.7621,10.6739 5.855,10.6739 5.9107,10.6919 5.9107,10.817 5.9107,10.9061 5.985,10.8881 6.0593,10.9061 6.1521,10.9421 6.1521,10.889 6.1707,10.7999 6.2636,10.7819 6.3007,10.7459 6.2264,10.7099 6.1336,10.6388 6.115,10.6028 6.1336,10.5668 6.1336,10.5308 6.1707,10.4948 6.2264,10.4417 6.3007,10.3346 6.3936,10.2635 6.5236,10.1564 6.6712,10.0853 6.6898,10.1744 6.8746,10.0673 7.0779,9.9602 7.1336,10.0313 7.337,9.8351 7.6518,9.4967 7.6889,9.5147 7.6889,9.5327 7.6332,9.6578 7.467,9.7829 7.4113,9.9791 7.4484,10.0682 7.3556,10.1933 7.3184,10.3535 7.2813,10.4066 7.1336,10.5317 6.9489,10.6568 6.9303,10.7279 7.0417,10.799 7.1531,10.817 7.1531,10.853 7.116,10.9952 7.2274,11.0312 7.3574,10.9952 7.3574,11.0132 7.3389,11.0843 7.3574,11.1734 7.4317,11.1554 7.5431,11.1194 7.6174,11.0834 7.5989,11.1365 7.5989,11.2616 7.6731,11.3687 7.7474,11.3507 7.8217,11.2616 7.8589,11.3867 8,11.6 8.1476,11.3858 8.1848,11.2607 8.2591,11.3498 8.3334,11.3678 8.4076,11.2607 8.4076,11.1356 8.3891,11.0825 8.4634,11.1185 8.5748,11.1545 8.6491,11.1725 8.6676,11.0834 8.6491,11.0123 8.6491,10.9943 8.7791,11.0303 8.8905,10.9943 8.8905,10.8521 8.8905,10.8161 9.0019,10.7981 9.1134,10.727 9.0948,10.6559 8.91,10.5308 8.7624,10.4057 8.7438,10.3526 8.7066,10.1924 8.6138,10.0673 8.6509,9.9782 8.5952,9.782 8.4652,9.6398 8.4095,9.5147 8.4095,9.4967 8.4466,9.4787 8.7614,9.8171 8.9648,10.0133 9.0205,9.9422 9.2239,10.0493 9.4086,10.1564 9.4272,10.1033 9.5749,10.1564 9.7049,10.2095 9.8896,10.3346 10.2044,10.3526 10.7226,10.1744 10.9259,10.0673 10.9445,9.9602 10.9074,9.9071 10.9074,9.8711 10.8888,9.8 10.8702,9.7109 10.6669,9.4076 10.6483,9.3896 10.6297,9.3716 10.6297,9.2825 10.6483,9.2825 10.6854,9.3005 10.7226,9.2645 10.7597,9.1754 10.7411,9.1394 10.6854,9.1394 10.6669,9.1214 10.6854,9.0683 10.6669,9.0323 10.5926,8.9963 10.574,9.0143 10.574,9.0674 10.5554,9.0674 10.4997,9.0674 10.4626,9.0674 10.4254,9.1745 10.4254,9.2105 10.4997,9.2105 10.5183,9.2285 10.4811,9.2816 10.444,9.2996 10.3883,9.2996 10.1664,9.3707 10.0364,9.5129 9.9992,9.5489 9.9435,9.62 9.9064,9.6911 9.8878,9.8873 9.9806,10.0295 9.9621,10.0655 9.8878,10.0295 9.6844,9.8873 9.6659,9.8513 9.703,9.8333 9.703,9.8 9.5916,9.7469 9.5916,9.6938 9.6473,9.6227 9.4811,9.5867 9.4254,9.5507 9.4625,9.4976 9.4625,9.4616 9.2777,9.4256 9.0001,9.1403 9.1849,9.3005 9.2963,9.2294 9.222,9.1403 9.2406,9.1403 9.5368,9.2654 9.7401,9.2123 9.6844,9.1412 9.703,9.1232 9.9806,9.1232 10.184,8.981 10.0364,8.945 10.0178,8.8919 10.314,8.8919 10.4616,8.7317 10.2954,8.6957 10.2397,8.6597 10.5731,8.6417 10.7393,8.4275 10.7393,8.3915 10.4988,8.4275 10.3511,8.4095 10.795,8.3204 10.9612,8.0531 10.6836,8.1242 10.4802,8.1422 10.4988,8.1242 10.9064,8.0171 11.1098,7.7138 11.0541,7.6958 10.6464,7.856 10.4802,7.892 10.5174,7.8749" fill="#F7CE73" stroke-linejoin="miter"/>
    <polyline points="5.1307,8.2142 5.075,8.2502 5.0379,8.1791 5.0379,8.1611 5.0936,8.1431 5.1307,8.2142" fill="#F7CE73" stroke-linejoin="miter"/>
    <polyline points="6.9637,9.2474 6.7604,9.4076 6.5756,9.4436 6.5756,9.4796 6.6127,9.5327 6.557,9.5687 6.3908,9.6047 6.4465,9.6758 6.4465,9.7289 6.3351,9.782 6.3351,9.818 6.4465,9.854 6.3908,9.89 6.1874,9.9611 5.9098,9.9611 5.7798,9.9611 5.7612,9.854 5.6869,9.6758 5.5941,9.5687 5.5941,9.5327 5.5755,9.4616 5.4826,9.3725 5.4826,9.3014 5.4269,9.0521 5.2421,8.7317 5.1493,8.4284 5.1493,8.2682 5.1679,8.2322 5.2421,8.3033 5.686,8.3924 5.5384,8.4104 5.2793,8.3744 5.2793,8.4104 5.4455,8.6246 5.7789,8.6426 5.7231,8.6786 5.5569,8.7146 5.7046,8.8748 6.0008,8.8748 5.9636,8.9108 5.816,8.9468 6.0194,9.089 6.297,9.089 6.3156,9.107 6.2599,9.1781 6.4632,9.2312 6.7594,9.1061 6.778,9.1061 6.7037,9.1952 6.8151,9.2663 6.9999,9.1061 6.9637,9.2474" fill="#F7CE73" stroke-linejoin="miter"/>
    <polyline points="8.5553,5.1488 8.5367,5.0957 8.6481,5.1848 8.7039,5.2739 8.7039,5.381 8.7039,5.4521 8.7224,5.4701 8.6481,5.5061 8.5553,5.5061 8.5367,5.4701 8.611,5.363 8.5553,5.1488" fill="#F7CE73" stroke-linejoin="miter"/>
    <polyline points="8.1476,5.3801 8.1662,5.2199 8.1291,5.0057 8.2591,5.0948 8.3519,5.273 8.3334,5.3801 8.3519,5.4512 8.2962,5.4872 8.2034,5.5052 8.1105,5.4692 8.0734,5.4512 8.1476,5.3801" fill="#F7CE73" stroke-linejoin="miter"/>
    <polyline points="7.7781,5.0948 7.9081,5.0057 7.8709,5.2199 7.8895,5.3801 7.9452,5.4512 7.9081,5.4692 7.8152,5.5052 7.7224,5.4872 7.6666,5.4512 7.6852,5.3801 7.6666,5.273 7.7781,5.0948" fill="#F7CE73" stroke-linejoin="miter"/>
    <polyline points="7.4819,5.5052 7.389,5.5052 7.3333,5.4872 7.3519,5.4692 7.3519,5.3981 7.3519,5.291 7.4076,5.2019 7.519,5.1128 7.4819,5.1488 7.4261,5.363 7.5004,5.4701 7.4819,5.5052" fill="#F7CE73" stroke-linejoin="miter"/>
    <polyline points="8.5367,6.236 8.4253,6.3071 8.4996,6.3602 8.3696,6.4673 8.2396,6.5204 8.221,6.5564 8.2767,6.6275 8.2953,6.6455 8.1476,6.7706 8.0548,6.8237 8.0362,6.9128 8.0919,6.9839 8.0919,7.037 7.9991,7.1621 7.9062,7.037 7.9062,6.9839 7.9619,6.9128 7.9434,6.8237 7.8505,6.7706 7.7029,6.6455 7.7214,6.6275 7.7771,6.5564 7.7586,6.5204 7.6471,6.4673 7.5171,6.3602 7.5914,6.3071 7.48,6.236 7.3686,6.1469 7.4986,6.0398 7.5171,5.9507 7.9796,6.0218 8.442,5.9507 8.4606,6.0398 8.5906,6.1469 8.5367,6.236" fill="#F7CE73" stroke-linejoin="miter"/>
    <rect x="7.0742" y="7.8218" width="1.8506" height="1.0692" fill="#77A2D6"/>
    <polygon points="8,9.9602 8.7401,9.2474 7.2599,9.2474" fill="#63BF80" stroke-linejoin="miter"/>
    <polygon points="7.6852,8.8019 7.5747,8.891 7.8338,8.891 7.8886,8.8199 8.0929,8.6597 8.2034,8.8199 8.2405,8.891 8.4253,8.891 8.3891,8.8019 8.5367,8.6597 8.611,8.6057 8.6481,8.0711 8.4996,8.1602 8.5367,8.4455 8.3334,8.2853 7.9257,8.2853 7.9629,8.1782 7.7966,8 7.6295,8.1782 7.6666,8.3033 7.5376,8.4455 7.389,8.3744 7.2971,8.5166 7.519,8.6237" fill="#F7CE73" stroke-linejoin="miter"/>
    <path d="M16,14H0V2h16V14zM1,13h14V3H1V13z" fill="#211F20" opacity="0.20"/>
  </g>
</svg>
