<?xml version="1.0" encoding="UTF-8"?>
<!DOCTYPE svg PUBLIC "-//W3C//DTD SVG 1.1//EN" "http://www.w3.org/Graphics/SVG/1.1/DTD/svg11.dtd">
<svg version="1.1" id="Layer_1" xmlns="http://www.w3.org/2000/svg" xmlns:xlink="http://www.w3.org/1999/xlink" x="0px" y="0px" width="16px" height="16px" viewBox="0 0 16 16" enable-background="new 0 0 16 16" xml:space="preserve">
  <g id="icon">
    <rect y="10" width="16" height="4" fill="#7C7B7A"/>
    <rect y="6" width="16" height="4" fill="#FFFFFF"/>
    <rect y="2" width="16" height="4" fill="#F37980"/>
    <path d="M10.278,7.003c-0.019,-0.017,0,-0.017,0.074,0c0.13,0.035,0.222,0.017,0.315,-0.052l0.074,-0.069l0.093,0.035c0.056,0.017,0.111,0.035,0.111,0.035c0.037,-0.017,0.13,-0.104,0.111,-0.139c0,-0.035,0.037,-0.035,0.056,0.017c0.037,0.087,-0.018,0.191,-0.111,0.208c-0.037,0.017,-0.093,0,-0.148,-0.017c-0.093,-0.035,-0.093,-0.035,-0.148,0c-0.093,0.087,-0.222,0.087,-0.352,0.035C10.315,7.038,10.278,7.02,10.278,7.003z" fill="#63BF80"/>
    <path d="M10.74,6.673c0.019,-0.121,0,-0.156,-0.056,-0.173c-0.037,0,-0.037,0,-0.056,0.035c-0.018,0.035,0.019,0.191,0.056,0.226C10.722,6.795,10.74,6.778,10.74,6.673z" fill="#63BF80"/>
    <path d="M7.428,7.714c-0.204,0.104,-0.5,0.121,-0.5,0.416c-0.426,0.017,-0.925,0.017,-1.388,0.017c0.167,-0.191,0.999,-0.954,1.24,-1.18c0.056,-0.017,0.111,-0.017,0.148,-0.035c-0.074,-0.017,-0.222,-0.208,-0.204,-0.278c-0.37,0.33,-0.796,0.694,-0.851,0.781c-0.611,0.572,-0.592,0.555,-0.685,0.642c0,0.104,0,0.26,0,0.33c0.703,0,1.98,0,2.091,0s-0.018,-0.347,0.111,-0.347c0.148,0,0.093,0.26,0.093,0.434c-0.907,0,-1.85,0,-2.72,0c0,-0.156,0,-0.364,0,-0.52c-0.222,0.173,-0.241,0.191,-0.389,0.243c0.111,0.017,0.13,0.173,0.111,0.312c-0.37,0,-0.851,0.052,-0.722,-0.347c-0.204,0.121,-0.241,0.139,-0.426,0.208c0.111,0.191,0.296,0.416,0.241,0.763c-0.074,0.156,-0.278,0.191,-0.389,0.312c0.389,0.087,0.648,-0.139,0.703,-0.416c1.295,0,2.627,0,3.923,0c0,-0.295,0,-0.694,0,-0.971C7.78,7.853,7.521,7.87,7.428,7.714z" fill="#63BF80"/>
    <path d="M12.628,8.391c-0.093,0.052,-0.13,0.156,-0.333,0.121c0,-0.486,0,-0.989,0,-1.474c0.019,-0.069,0.093,-0.104,0.111,-0.173c-0.185,-0.052,-0.296,-0.156,-0.444,-0.226c0,0.798,0,1.613,0,2.411c0.278,0,0.574,0,0.851,0C12.813,8.859,12.646,8.634,12.628,8.391z" fill="#63BF80"/>
    <path d="M11.666,6.726c0,0.885,0,1.631,0,2.324c-0.629,0,-1.813,0,-1.961,0c-0.037,-0.486,-0.037,-0.971,0.555,-0.867c0,-0.087,0,-0.139,0,-0.191c-0.019,-0.035,-0.056,0,-0.056,-0.035c0.093,-0.087,0.13,-0.104,0.389,-0.33c0,0.26,0,0.85,0,0.85c0.056,0,0.185,0,0.222,0c0,0,0,-1.006,0,-1.041c0,0,0.315,-0.243,0.315,-0.26c0,0.416,0,0.867,0,1.301h0.222c0,-0.486,0,-0.989,0,-1.457C11.443,6.934,11.629,6.812,11.666,6.726z" fill="#63BF80"/>
    <path d="M10.259,8.425c-0.019,-0.087,-0.204,-0.052,-0.185,0.035C10.111,8.512,10.259,8.512,10.259,8.425z" fill="#63BF80"/>
    <ellipse cx="4.394" cy="9.327" rx="0.111" ry="0.104" fill="#63BF80"/>
    <path d="M8.427,8.512c0,-0.486,0,-0.989,0,-1.474c0.018,-0.069,0.093,-0.104,0.111,-0.173c-0.185,-0.052,-0.296,-0.156,-0.444,-0.226c0,0.798,0,1.613,0,2.411c0.278,0,0.574,0,0.851,0c0,-0.191,-0.167,-0.416,-0.185,-0.659C8.668,8.443,8.631,8.547,8.427,8.512z" fill="#63BF80"/>
    <path d="M16,14H0V2h16V14zM1,13h14V3H1V13z" fill="#211F20" opacity="0.20"/>
  </g>
</svg>
