<?xml version="1.0" encoding="UTF-8"?>
<!DOCTYPE svg PUBLIC "-//W3C//DTD SVG 1.1//EN" "http://www.w3.org/Graphics/SVG/1.1/DTD/svg11.dtd">
<svg version="1.1" id="Layer_1" xmlns="http://www.w3.org/2000/svg" xmlns:xlink="http://www.w3.org/1999/xlink" x="0px" y="0px" width="16px" height="16px" viewBox="0 0 16 16" enable-background="new 0 0 16 16" xml:space="preserve">
  <g id="icon">
    <rect y="2" width="16" height="12" fill="#77A2D6"/>
    <rect y="2" width="16" height="12" opacity="0.1"/>
    <polygon points="16,7 9,7 9,2 7,2 7,7 0,7 0,9 7,9 7,14 9,14 9,9 16,9" fill="#FFFFFF" stroke-linejoin="miter"/>
    <path d="M13.1171,5.7786v-0.3144h-0.3109c0,-0.1609,0.0865,-0.3169,0.1784,-0.3656c0.0541,-0.0414,0.1757,-0.0609,0.2811,-0.0122c0.1379,0.0707,0.146,0.2754,0.0757,0.3681c0.6569,-0.1097,0.592,-0.6825,0.3676,-0.8897c-0.1811,-0.1682,-0.3785,-0.1926,-0.5298,-0.1414c-0.346,0.1121,-0.5785,0.4851,-0.5893,1.0408h-0.1811c0,-0.5046,0.0973,-0.6654,0.3514,-1.3016c0.1298,-0.2998,0.0514,-0.6703,-0.1757,-1.0116c-0.0838,-0.1219,-0.1865,-0.2316,-0.3028,-0.351c-0.1162,0.1194,-0.219,0.2291,-0.3028,0.351c-0.2271,0.3413,-0.3055,0.7117,-0.1757,1.0116c0.2541,0.6362,0.3514,0.7971,0.3514,1.3016h-0.1811c-0.0108,-0.5558,-0.2433,-0.9287,-0.5893,-1.0408c-0.1514,-0.0512,-0.3487,-0.0268,-0.5298,0.1414c-0.2244,0.2072,-0.2893,0.78,0.3676,0.8897c-0.0703,-0.0926,-0.0622,-0.2974,0.0757,-0.3681c0.1054,-0.0487,0.2271,-0.0292,0.2811,0.0122c0.0919,0.0487,0.1784,0.2048,0.1784,0.3656h-0.3109v0.3144h0.6461c-0.0081,0.1633,-0.1054,0.2901,-0.2865,0.3607c0.0216,0.0682,0.1325,0.2072,0.2838,0.1974c0.0297,0.1463,0.0568,0.2291,0.1919,0.3632c0.1352,-0.1341,0.1622,-0.2169,0.1919,-0.3632c0.1514,0.0097,0.2622,-0.1292,0.2838,-0.1974c-0.1811,-0.0707,-0.2784,-0.1974,-0.2865,-0.3607H13.1171z" fill="#FFFFFF"/>
    <path d="M4.6171,5.7786v-0.3144h-0.3109c0,-0.1609,0.0865,-0.3169,0.1784,-0.3656c0.0541,-0.0414,0.1757,-0.0609,0.2811,-0.0122c0.1379,0.0707,0.146,0.2754,0.0757,0.3681c0.6569,-0.1097,0.592,-0.6825,0.3676,-0.8897c-0.1811,-0.1682,-0.3785,-0.1926,-0.5298,-0.1414c-0.346,0.1121,-0.5785,0.4851,-0.5893,1.0408h-0.1811c0,-0.5046,0.0973,-0.6654,0.3514,-1.3016c0.1298,-0.2998,0.0514,-0.6703,-0.1757,-1.0116c-0.0838,-0.1219,-0.1865,-0.2316,-0.3028,-0.351c-0.1162,0.1194,-0.219,0.2291,-0.3028,0.351c-0.2271,0.3413,-0.3055,0.7117,-0.1757,1.0116c0.2541,0.6362,0.3514,0.7971,0.3514,1.3016h-0.1811c-0.0108,-0.5558,-0.2433,-0.9287,-0.5893,-1.0408c-0.1514,-0.0512,-0.3487,-0.0268,-0.5298,0.1414c-0.2244,0.2072,-0.2893,0.78,0.3676,0.8897c-0.0703,-0.0926,-0.0622,-0.2974,0.0757,-0.3681c0.1054,-0.0487,0.2271,-0.0292,0.2811,0.0122c0.0919,0.0487,0.1784,0.2048,0.1784,0.3656h-0.3109v0.3144h0.6461c-0.0081,0.1633,-0.1054,0.2901,-0.2865,0.3607c0.0216,0.0682,0.1325,0.2072,0.2838,0.1974c0.0297,0.1463,0.0568,0.2291,0.1919,0.3632c0.1352,-0.1341,0.1622,-0.2169,0.1919,-0.3632c0.1514,0.0097,0.2622,-0.1292,0.2838,-0.1974c-0.1811,-0.0707,-0.2784,-0.1974,-0.2865,-0.3607H4.6171z" fill="#FFFFFF"/>
    <path d="M4.6171,12.2786v-0.3144h-0.3109c0,-0.1609,0.0865,-0.3169,0.1784,-0.3656c0.0541,-0.0414,0.1757,-0.0609,0.2811,-0.0122c0.1379,0.0707,0.146,0.2754,0.0757,0.3681c0.6569,-0.1097,0.592,-0.6825,0.3676,-0.8897c-0.1811,-0.1682,-0.3785,-0.1926,-0.5298,-0.1414c-0.346,0.1121,-0.5785,0.4851,-0.5893,1.0408h-0.1811c0,-0.5046,0.0973,-0.6654,0.3514,-1.3016c0.1298,-0.2998,0.0514,-0.6703,-0.1757,-1.0116c-0.0838,-0.1219,-0.1865,-0.2316,-0.3028,-0.351c-0.1162,0.1194,-0.219,0.2291,-0.3028,0.351c-0.2271,0.3412,-0.3055,0.7118,-0.1757,1.0116c0.2541,0.6362,0.3514,0.7971,0.3514,1.3016h-0.1811c-0.0108,-0.5558,-0.2433,-0.9287,-0.5893,-1.0408c-0.1514,-0.0512,-0.3487,-0.0268,-0.5298,0.1414c-0.2244,0.2072,-0.2893,0.78,0.3676,0.8897c-0.0703,-0.0926,-0.0622,-0.2974,0.0757,-0.3681c0.1054,-0.0487,0.2271,-0.0292,0.2811,0.0122c0.0919,0.0487,0.1784,0.2048,0.1784,0.3656h-0.3109v0.3144h0.6461c-0.0081,0.1633,-0.1054,0.2901,-0.2865,0.3608c0.0216,0.0682,0.1325,0.2072,0.2838,0.1974c0.0297,0.1463,0.0568,0.2291,0.1919,0.3632c0.1352,-0.1341,0.1622,-0.2169,0.1919,-0.3632c0.1514,0.0098,0.2622,-0.1292,0.2838,-0.1974c-0.1811,-0.0707,-0.2784,-0.1974,-0.2865,-0.3608H4.6171z" fill="#FFFFFF"/>
    <path d="M13.1171,12.2786v-0.3144h-0.3109c0,-0.1609,0.0865,-0.3169,0.1784,-0.3656c0.0541,-0.0414,0.1757,-0.0609,0.2811,-0.0122c0.1379,0.0707,0.146,0.2754,0.0757,0.3681c0.6569,-0.1097,0.592,-0.6825,0.3676,-0.8897c-0.1811,-0.1682,-0.3785,-0.1926,-0.5298,-0.1414c-0.346,0.1121,-0.5785,0.4851,-0.5893,1.0408h-0.1811c0,-0.5046,0.0973,-0.6654,0.3514,-1.3016c0.1298,-0.2998,0.0514,-0.6703,-0.1757,-1.0116c-0.0838,-0.1219,-0.1865,-0.2316,-0.3028,-0.351c-0.1162,0.1194,-0.219,0.2291,-0.3028,0.351c-0.2271,0.3412,-0.3055,0.7118,-0.1757,1.0116c0.2541,0.6362,0.3514,0.7971,0.3514,1.3016h-0.1811c-0.0108,-0.5558,-0.2433,-0.9287,-0.5893,-1.0408c-0.1514,-0.0512,-0.3487,-0.0268,-0.5298,0.1414c-0.2244,0.2072,-0.2893,0.78,0.3676,0.8897c-0.0703,-0.0926,-0.0622,-0.2974,0.0757,-0.3681c0.1054,-0.0487,0.2271,-0.0292,0.2811,0.0122c0.0919,0.0487,0.1784,0.2048,0.1784,0.3656h-0.3109v0.3144h0.6461c-0.0081,0.1633,-0.1054,0.2901,-0.2865,0.3608c0.0216,0.0682,0.1325,0.2072,0.2838,0.1974c0.0297,0.1463,0.0568,0.2291,0.1919,0.3632c0.1352,-0.1341,0.1622,-0.2169,0.1919,-0.3632c0.1514,0.0098,0.2622,-0.1292,0.2838,-0.1974c-0.1811,-0.0707,-0.2784,-0.1974,-0.2865,-0.3608H13.1171z" fill="#FFFFFF"/>
    <path d="M16,14H0V2h16V14zM1,13h14V3H1V13z" fill="#211F20" opacity="0.20"/>
  </g>
</svg>
