<?xml version="1.0" encoding="UTF-8"?>
<!DOCTYPE svg PUBLIC "-//W3C//DTD SVG 1.1//EN" "http://www.w3.org/Graphics/SVG/1.1/DTD/svg11.dtd">
<svg version="1.1" id="Layer_1" xmlns="http://www.w3.org/2000/svg" xmlns:xlink="http://www.w3.org/1999/xlink" x="0px" y="0px" width="16px" height="16px" viewBox="0 0 16 16" enable-background="new 0 0 16 16" xml:space="preserve">
  <g id="icon">
    <path d="M8,0C3.5888,0,0,3.1438,0,7.0081c0,1.9084,0.8904,3.7339,2.4534,5.0517c-0.1579,0.7952,-0.6604,2.2999,-0.863,2.8738l-0.3382,0.9579l0.9653,-0.3163c0.4348,-0.1425,4.0293,-1.321,4.8263,-1.6085c0.3161,0.0329,0.6371,0.0496,0.9562,0.0496c4.4112,0,8,-3.1438,8,-7.0081C16,3.1438,12.4112,0,8,0zM6.1164,10.1c-0.8098,0,-1.4386,-0.2725,-1.8871,-0.8184c-0.4485,-0.5459,-0.6723,-1.2899,-0.6723,-2.2322c0,-0.8773,0.2486,-1.612,0.7458,-2.2014c0.4972,-0.5903,1.1336,-0.885,1.9084,-0.885c0.6655,0.0009,1.1968,0.1401,1.5958,0.4177l-0.4237,0.8713c-0.2298,-0.2349,-0.5988,-0.3528,-1.108,-0.3528c-0.4827,0,-0.8782,0.2076,-1.1866,0.6219c-0.3084,0.4143,-0.463,0.9388,-0.463,1.5735s0.1427,1.1387,0.4288,1.5112c0.2862,0.3725,0.668,0.5587,1.1456,0.5587c0.5459,0,0.973,-0.1999,1.2814,-0.5997l0.4784,0.8508C7.5404,9.8719,6.9262,10.1,6.1164,10.1zM12.4199,9.9992H8.5151v-0.3391l2.4167,-4.6591H8.5544v-0.9363h3.7775v0.34L9.9076,9.0638h2.5124V9.9992z" fill="#6E6DAF"/>
    <path d="M7.8069,4.3807l-0.4237,0.8713c-0.2298,-0.2349,-0.5988,-0.3528,-1.108,-0.3528c-0.4827,0,-0.8782,0.2076,-1.1866,0.6219c-0.3084,0.4143,-0.463,0.9388,-0.463,1.5735s0.1427,1.1387,0.4288,1.5112c0.2862,0.3725,0.668,0.5587,1.1456,0.5587c0.5459,0,0.973,-0.1999,1.2814,-0.5997l0.4784,0.8508C7.5404,9.8719,6.9262,10.1,6.1164,10.1s-1.4386,-0.2725,-1.8871,-0.8184S3.557,7.9917,3.557,7.0494c0,-0.8773,0.2486,-1.612,0.7458,-2.2014c0.4972,-0.5903,1.1336,-0.885,1.9084,-0.885C6.8767,3.9639,7.408,4.1031,7.8069,4.3807zM8.5151,9.9992h3.9048v-0.9354H9.9076l2.4244,-4.6591v-0.34H8.5544v0.9363h2.3774L8.5151,9.6601v0.34V9.9992z" fill="#FFFFFF" opacity="0.5"/>
  </g>
</svg>
