<?xml version="1.0" encoding="UTF-8"?>
<!DOCTYPE svg PUBLIC "-//W3C//DTD SVG 1.1//EN" "http://www.w3.org/Graphics/SVG/1.1/DTD/svg11.dtd">
<svg version="1.1" id="Layer_1" xmlns="http://www.w3.org/2000/svg" xmlns:xlink="http://www.w3.org/1999/xlink" x="0px" y="0px" width="16px" height="16px" viewBox="0 0 16 16" enable-background="new 0 0 16 16" xml:space="preserve">
  <g id="icon">
    <path d="M8,0C3.5888,0,0,3.1438,0,7.0081c0,1.9084,0.8904,3.7339,2.4534,5.0517c-0.1579,0.7952,-0.6604,2.2999,-0.863,2.8738l-0.3382,0.9579l0.9653,-0.3163c0.4348,-0.1425,4.0293,-1.321,4.8263,-1.6085c0.3161,0.0329,0.6371,0.0496,0.9562,0.0496c4.4112,0,8,-3.1438,8,-7.0081C16,3.1438,12.4112,0,8,0zM5.4033,7.8485c-0.1151,0,-0.2712,-0.0094,-0.4656,-0.0281V10H3.911V4.0793c0.6848,-0.0298,1.0847,-0.0443,1.2007,-0.0443c0.9133,0,1.5819,0.1433,2.004,0.4306c0.423,0.2874,0.6336,0.7351,0.6336,1.3448C7.7492,7.1689,6.9673,7.8485,5.4033,7.8485zM12.2987,9.9991H8.6574V4.0751h1.0267v4.9903h2.6145V9.9991zM6.6995,5.8906c0,0.3616,-0.1083,0.6225,-0.324,0.7828s-0.5577,0.2405,-1.0267,0.2405c-0.1006,0,-0.2371,-0.0094,-0.411,-0.0281V4.9892c0.0998,-0.0136,0.2038,-0.0205,0.3121,-0.0205C6.216,4.9688,6.6995,5.2758,6.6995,5.8906z" fill="#E2627A"/>
    <path d="M4.9377,7.8204V10H3.911V4.0793c0.6848,-0.0298,1.0847,-0.0443,1.2007,-0.0443c0.9133,0,1.5819,0.1433,2.004,0.4306c0.423,0.2874,0.6336,0.7351,0.6336,1.3448c0,1.3584,-0.782,2.0381,-2.3459,2.0381C5.2882,7.8485,5.1321,7.8391,4.9377,7.8204zM4.9377,4.9892v1.8965c0.174,0.0188,0.3104,0.0281,0.411,0.0281c0.469,0,0.811,-0.0802,1.0267,-0.2405c0.2157,-0.1603,0.324,-0.4213,0.324,-0.7828c0,-0.6148,-0.4835,-0.9218,-1.4497,-0.9218C5.1415,4.9688,5.0375,4.9756,4.9377,4.9892zM8.6574,9.9991h3.6413v-0.9338H9.6841V4.0751H8.6574V10V9.9991z" fill="#FFFFFF" opacity="0.5"/>
  </g>
</svg>
