<?xml version="1.0" encoding="UTF-8"?>
<!DOCTYPE svg PUBLIC "-//W3C//DTD SVG 1.1//EN" "http://www.w3.org/Graphics/SVG/1.1/DTD/svg11.dtd">
<svg version="1.1" id="Layer_1" xmlns="http://www.w3.org/2000/svg" xmlns:xlink="http://www.w3.org/1999/xlink" x="0px" y="0px" width="16px" height="16px" viewBox="0 0 16 16" enable-background="new 0 0 16 16" xml:space="preserve">
  <g id="icon">
    <path d="M11.5,9.417v0.961c-0.05,2.794,-2.327,5.067,-5.125,5.067c-2.939,0,-4.873,-1.991,-4.875,-5.071V3.5h3v6.725c-0.054,0.619,0.127,1.191,0.511,1.611c0.362,0.397,0.873,0.615,1.439,0.615c1.208,0,2.05,-1.431,2.05,-2.716v-0.27L11.5,9.417zM11.5,7.517v-0.598C11.45,6.189,12.911,5.6,12.911,5.6H13.5V2.5h-0.506C10.6,2.5,8.5,4.543,8.5,6.871v0.646L11.5,7.517z" fill="#FFFFFF"/>
    <path d="M6.375,15.445c-2.939,0,-4.873,-1.991,-4.875,-5.071V3.5h3v6.725c-0.054,0.619,0.127,1.191,0.511,1.611c0.362,0.397,0.873,0.615,1.439,0.615c1.208,0,2.05,-1.431,2.05,-2.716V6.871C8.5,4.543,10.6,2.5,12.994,2.5H13.5v3.1h-0.589c0,0,-1.461,0.589,-1.411,1.318v3.46C11.45,13.172,9.173,15.445,6.375,15.445z" fill="none" stroke="#228BCB" stroke-width="1" stroke-miterlimit="1"/>
    <path d="M0.6,1.498h4.8c0.055,0,0.1,0.045,0.1,0.1v1.8c0,0.055,-0.045,0.1,-0.1,0.1H0.6c-0.055,0,-0.1,-0.045,-0.1,-0.1v-1.8C0.5,1.543,0.545,1.498,0.6,1.498zM7.5,7.598v1.8c0,0.055,0.045,0.1,0.1,0.1h4.8c0.055,0,0.1,-0.045,0.1,-0.1v-1.8c0,-0.055,-0.045,-0.1,-0.1,-0.1H7.6C7.545,7.498,7.5,7.543,7.5,7.598zM15.4,1.498h-1.8c-0.055,0,-0.1,0.045,-0.1,0.1v4.8c0,0.055,0.045,0.1,0.1,0.1h1.8c0.055,0,0.1,-0.045,0.1,-0.1v-4.8C15.5,1.543,15.455,1.498,15.4,1.498z" fill="#FFFFFF" stroke="#228BCB" stroke-width="1" stroke-miterlimit="1"/>
  </g>
</svg>
