<?xml version="1.0" encoding="UTF-8"?>
<!DOCTYPE svg PUBLIC "-//W3C//DTD SVG 1.1//EN" "http://www.w3.org/Graphics/SVG/1.1/DTD/svg11.dtd">
<svg version="1.1" id="Layer_1" xmlns="http://www.w3.org/2000/svg" xmlns:xlink="http://www.w3.org/1999/xlink" x="0px" y="0px" width="16px" height="16px" viewBox="0 0 16 16" enable-background="new 0 0 16 16" xml:space="preserve">
  <g id="icon">
    <path d="M5,2c0,0.828,-0.672,1.5,-1.5,1.5s-1.5,-0.672,-1.5,-1.5S2.672,0.5,3.5,0.5S5,1.172,5,2zM12.5,0.5c-0.828,0,-1.5,0.672,-1.5,1.5s0.672,1.5,1.5,1.5s1.5,-0.672,1.5,-1.5S13.328,0.5,12.5,0.5z" fill="#FFFFFF" stroke="#ED8730" stroke-width="1" stroke-miterlimit="1"/>
    <path d="M15.06,8.5H0.94C0.697,8.5,0.5,8.303,0.5,8.06V4.94C0.5,4.697,0.697,4.5,0.94,4.5h14.12c0.243,0,0.44,0.197,0.44,0.44v3.12C15.5,8.303,15.303,8.5,15.06,8.5zM3.023,15.394l1.442,-6.732c0.018,-0.084,-0.046,-0.162,-0.131,-0.162H2.608c-0.063,0,-0.118,0.044,-0.131,0.106l-1.442,6.732c-0.018,0.084,0.046,0.162,0.131,0.162h1.726C2.955,15.5,3.009,15.456,3.023,15.394zM13.523,8.606l1.442,6.732c0.018,0.084,-0.046,0.162,-0.131,0.162h-1.726c-0.063,0,-0.118,-0.044,-0.131,-0.106l-1.442,-6.732c-0.018,-0.084,0.046,-0.162,0.131,-0.162h1.726C13.455,8.5,13.509,8.544,13.523,8.606zM3.9,11.5h8.2" fill="#FFFFFF" stroke="#383838" stroke-width="1" stroke-miterlimit="1"/>
    <path d="M4.55,5h1.2l-2,3h-1.2L4.55,5zM8.25,5h-1.2l-2,3h1.2L8.25,5zM10.75,5h-1.2l-2,3h1.2L10.75,5zM15,5h-0.45l-2,3h1.2L15,6.064V5zM13.25,5h-1.2l-2,3h1.2L13.25,5zM1,8h0.25l2,-3h-1.2L1,6.55V8z" fill="#ED8730"/>
  </g>
</svg>
