<?xml version="1.0" encoding="UTF-8"?>
<!DOCTYPE svg PUBLIC "-//W3C//DTD SVG 1.1//EN" "http://www.w3.org/Graphics/SVG/1.1/DTD/svg11.dtd">
<svg version="1.1" id="Layer_1" xmlns="http://www.w3.org/2000/svg" xmlns:xlink="http://www.w3.org/1999/xlink" x="0px" y="0px" width="16px" height="16px" viewBox="0 0 16 16" enable-background="new 0 0 16 16" xml:space="preserve">
  <g id="icon">
    <path d="M15.482,7.373c0.054,-0.045,0.054,-0.119,0,-0.164L8.023,1.006c-0.01,-0.008,-0.025,-0.008,-0.035,0L0.54,7.209c-0.054,0.045,-0.054,0.119,0,0.164l1.033,1.319c0.054,0.045,0.143,0.045,0.197,0l6.241,-5.248l6.241,5.248c0.054,0.045,0.143,0.045,0.197,0L15.482,7.373z" fill="#FFFFFF" stroke="#228BCB" stroke-width="1" stroke-miterlimit="1"/>
    <polygon points="4,15 3,15 3,9.2 4,8.35" fill="#383838" stroke-linejoin="miter"/>
    <polygon points="13,15 12,15 12,8.35 13,9.2" fill="#383838" stroke-linejoin="miter"/>
  </g>
</svg>
