<?xml version="1.0" encoding="UTF-8"?>
<!DOCTYPE svg PUBLIC "-//W3C//DTD SVG 1.1//EN" "http://www.w3.org/Graphics/SVG/1.1/DTD/svg11.dtd">
<svg version="1.1" id="Layer_1" xmlns="http://www.w3.org/2000/svg" xmlns:xlink="http://www.w3.org/1999/xlink" x="0px" y="0px" width="16px" height="16px" viewBox="0 0 16 16" enable-background="new 0 0 16 16" xml:space="preserve">
  <g id="icon">
    <path d="M5.639,4.153L9.131,0.661c0.214,-0.215,0.562,-0.215,0.776,0l5.432,5.432c0.214,0.214,0.214,0.562,0,0.776l-3.492,3.492" fill="#92CBEE" stroke="#0964B0" stroke-width="1" stroke-miterlimit="1"/>
    <path d="M11.517,8.02l2.129,-3.329l0.853,0.853L11.517,8.02zM11.181,4.668l0.621,-1.821l0.853,0.853L11.181,4.668zM8.5,4.668l1.962,-3.162l0.853,0.853L8.5,4.668z" fill="#0964B0"/>
    <path d="M5.639,4.153L4.087,5.705c-0.214,0.214,-0.214,0.561,0,0.776l1.358,1.358c0.429,0.429,0.429,1.124,0,1.552C4.087,10.75,1.952,11.72,0.982,12.69c-0.643,0.643,-0.643,1.686,0,2.328c0.643,0.643,1.685,0.643,2.328,0c0.97,-0.97,1.94,-3.104,3.299,-4.462c0.428,-0.429,1.123,-0.429,1.552,0l1.358,1.358c0.214,0.214,0.562,0.214,0.776,0l1.552,-1.553L5.639,4.153z" fill="#C8C6C4" stroke="#383838" stroke-width="1" stroke-miterlimit="1"/>
  </g>
</svg>
