<?xml version="1.0" encoding="UTF-8"?>
<!DOCTYPE svg PUBLIC "-//W3C//DTD SVG 1.1//EN" "http://www.w3.org/Graphics/SVG/1.1/DTD/svg11.dtd">
<svg version="1.1" id="Layer_1" xmlns="http://www.w3.org/2000/svg" xmlns:xlink="http://www.w3.org/1999/xlink" x="0px" y="0px" width="16px" height="16px" viewBox="0 0 16 16" enable-background="new 0 0 16 16" xml:space="preserve">
  <g id="icon">
    <path d="M2.537,3.905c-0.153,3.752,0.49,5.916,-1.986,9.66c-0.131,0.19,0.006,0.441,0.246,0.441c1.205,0.043,3.803,-1.59,5.253,-1.924l-0.064,0.1c-0.342,0.845,-0.873,1.632,-1.719,2.826c-0.131,0.19,0.006,0.441,0.246,0.441c1.205,0.043,2.683,-1.59,4.133,-1.924h0.153c1.449,0.334,2.418,1.486,3.624,1.443c0.24,0,0.377,-0.251,0.246,-0.441c-0.688,-0.971,-1.167,-1.673,-1.507,-2.355l0.03,-0.09c1.449,0.334,2.806,0.524,4.011,0.481c0.24,0,0.377,-0.251,0.246,-0.441c-2.476,-3.744,-1.967,-4.465,-2.119,-8.217" fill="#FFFFFF"/>
    <path d="M13.33,3.905c0.153,3.752,-0.356,4.473,2.119,8.217c0.131,0.19,-0.006,0.441,-0.246,0.441c-1.205,0.043,-2.562,-0.147,-4.011,-0.481M2.537,3.905c-0.153,3.752,0.49,5.916,-1.986,9.66c-0.131,0.19,0.006,0.441,0.246,0.441c1.205,0.043,3.803,-1.59,5.253,-1.924M6.61,8.234c-0.153,3.511,-0.509,4.185,-2.342,6.774c-0.131,0.19,0.006,0.441,0.246,0.441c1.205,0.043,2.683,-1.59,4.133,-1.924h0.153c1.449,0.334,2.418,1.486,3.624,1.443c0.24,0,0.377,-0.251,0.246,-0.441c-1.833,-2.589,-2.19,-3.263,-2.342,-6.774" fill="none" stroke="#228BCB" stroke-width="1" stroke-miterlimit="1"/>
    <ellipse cx="7.933" cy="3.905" rx="5.397" ry="2.405" fill="#FFFFFF" stroke="#228BCB" stroke-width="1" stroke-miterlimit="1"/>
    <ellipse cx="7.882" cy="3.905" rx="2.317" ry="0.845" fill="none" stroke="#228BCB" stroke-width="0.9" stroke-miterlimit="1" opacity="0.6"/>
  </g>
</svg>
