<?xml version="1.0" encoding="UTF-8"?>
<!DOCTYPE svg PUBLIC "-//W3C//DTD SVG 1.1//EN" "http://www.w3.org/Graphics/SVG/1.1/DTD/svg11.dtd">
<svg version="1.1" id="Layer_1" xmlns="http://www.w3.org/2000/svg" xmlns:xlink="http://www.w3.org/1999/xlink" x="0px" y="0px" width="16px" height="16px" viewBox="0 0 16 16" enable-background="new 0 0 16 16" xml:space="preserve">
  <g id="icon">
    <path d="M15.5,15.5V3.5H0.5v12H15.5z" fill="#FFFFFF" stroke="#383838" stroke-width="1" stroke-miterlimit="1"/>
    <path d="M15.483,8L15.483,8c0,0.828,-0.672,1.5,-1.5,1.5H2c-0.828,0,-1.5,-0.672,-1.5,-1.5v0" fill="#FFFFFF" stroke="#383838" stroke-width="1" stroke-miterlimit="1"/>
    <path d="M5.5,3.6V2.542C5.5,1.966,5.909,1.5,6.414,1.5h3.172c0.505,0,0.914,0.466,0.914,1.042V3.6" fill="none" stroke="#383838" stroke-width="1" stroke-miterlimit="1"/>
    <path d="M8.983,11.5H7.017c-0.285,0,-0.517,-0.231,-0.517,-0.517V8.017c0,-0.285,0.231,-0.517,0.517,-0.517h1.967c0.285,0,0.517,0.231,0.517,0.517v2.967C9.5,11.269,9.269,11.5,8.983,11.5z" fill="#F7DA8E" stroke="#E57428" stroke-width="1" stroke-linecap="round" stroke-miterlimit="1"/>
  </g>
</svg>
