<?xml version="1.0" encoding="UTF-8"?>
<!DOCTYPE svg PUBLIC "-//W3C//DTD SVG 1.1//EN" "http://www.w3.org/Graphics/SVG/1.1/DTD/svg11.dtd">
<svg version="1.1" id="Layer_1" xmlns="http://www.w3.org/2000/svg" xmlns:xlink="http://www.w3.org/1999/xlink" x="0px" y="0px" width="16px" height="16px" viewBox="0 0 16 16" enable-background="new 0 0 16 16" xml:space="preserve">
  <g id="icon">
    <path d="M15.5,13.5H0.5V2.5h15V13.5z" fill="#FFFFFF" stroke="#383838" stroke-width="1" stroke-miterlimit="1"/>
    <path d="M5.362,4.5c-1.083,0,-1.961,0.872,-1.961,1.948s0.878,1.948,1.961,1.948s1.961,-0.872,1.961,-1.948S6.445,4.5,5.362,4.5zM8.5,11.989c0,-1.855,-1.423,-3.631,-3.174,-3.631S2.1,10.134,2.1,11.989" fill="#FFFFFF" stroke="#228BCB" stroke-width="1" stroke-miterlimit="1"/>
    <path d="M10,7.5h4M10,10.5h4" fill="none" stroke="#787979" stroke-width="1" stroke-miterlimit="1"/>
    <polygon points="5.82,12 4.872,12 5.109,9.796 4.872,9.175 5.82,9.175 5.583,9.803" fill="#78797A" stroke-linejoin="miter"/>
    <line x1="9" y1="5.5" x2="14" y2="5.5" fill="#FFFFFF" stroke="#383838" stroke-width="1" stroke-miterlimit="1"/>
  </g>
</svg>
