<?xml version="1.0" encoding="UTF-8"?>
<!DOCTYPE svg PUBLIC "-//W3C//DTD SVG 1.1//EN" "http://www.w3.org/Graphics/SVG/1.1/DTD/svg11.dtd">
<svg version="1.1" id="Layer_1" xmlns="http://www.w3.org/2000/svg" xmlns:xlink="http://www.w3.org/1999/xlink" x="0px" y="0px" width="16px" height="16px" viewBox="0 0 16 16" enable-background="new 0 0 16 16" xml:space="preserve">
  <g id="icon">
    <path d="M2.5,2.5v2.305C3.195,4.299,4.05,4,4.975,4c2.314,0,4.197,1.87,4.197,4.168c0,0.889,-0.286,1.741,-0.799,2.444c0.636,0.517,1.181,1.164,1.604,1.888H15.5V2.5H2.5z" fill="#FFFFFF"/>
    <rect x="2.5" y="0.5" width="13" height="2" fill="#C8C6C4"/>
    <path d="M2,0v2v1v2.232c0.293,-0.293,0.63,-0.543,1,-0.74V3h12v9H9.658c0.221,0.316,0.417,0.651,0.586,1H16V3V2V0H2zM15,2H3V1h12V2z" fill="#383838"/>
    <path d="M13.985,3.885l-3.14,0.58l0.182,0.983l1.468,-0.271l-1.627,2.781L8.951,6.836c0.138,0.405,0.215,0.838,0.22,1.288l2.055,1.203l1.969,-3.366l0.161,1.553l0.995,-0.103L13.985,3.885z" fill="#228BCB"/>
    <path d="M7.672,8.168c0,1.474,-1.207,2.668,-2.697,2.668S2.279,9.642,2.279,8.168S3.486,5.5,4.975,5.5S7.672,6.695,7.672,8.168zM9.451,16c0,-2.584,-2.055,-5.156,-4.458,-5.156S0.5,13.416,0.5,16" fill="#FFFFFF" stroke="#228BCB" stroke-width="1" stroke-miterlimit="1"/>
  </g>
</svg>
