<?xml version="1.0" encoding="UTF-8"?>
<!DOCTYPE svg PUBLIC "-//W3C//DTD SVG 1.1//EN" "http://www.w3.org/Graphics/SVG/1.1/DTD/svg11.dtd">
<svg version="1.1" id="Layer_1" xmlns="http://www.w3.org/2000/svg" xmlns:xlink="http://www.w3.org/1999/xlink" x="0px" y="0px" width="16px" height="16px" viewBox="0 0 16 16" enable-background="new 0 0 16 16" xml:space="preserve">
  <g id="icon">
    <path d="M8,1.666L1.765,6.52M14.235,6.52L8,1.666" fill="#FFFFFF" stroke="#383838" stroke-width="1.1" stroke-miterlimit="1"/>
    <ellipse cx="7.998" cy="1.541" rx="1.002" ry="0.98" fill="#FFFFFF" stroke="#383838" stroke-width="1" stroke-miterlimit="1"/>
    <rect x="0.5" y="6.5" width="15" height="8" fill="#FFFFFF" stroke="#17AB4F" stroke-width="1" stroke-miterlimit="1"/>
    <path d="M4.31,11.97c-0.42,0,-0.748,-0.132,-0.975,-0.392c-0.226,-0.259,-0.341,-0.633,-0.341,-1.113c0,-0.48,0.115,-0.852,0.342,-1.108c0.228,-0.257,0.557,-0.387,0.978,-0.387c0.421,0,0.749,0.131,0.974,0.39c0.224,0.258,0.338,0.631,0.338,1.109c0,0.477,-0.115,0.85,-0.341,1.109C5.058,11.839,4.73,11.97,4.31,11.97zM4.314,9.576c-0.209,0,-0.361,0.071,-0.465,0.217c-0.106,0.149,-0.16,0.377,-0.16,0.677c0,0.3,0.053,0.528,0.159,0.676c0.103,0.146,0.255,0.216,0.463,0.216c0.419,0,0.622,-0.292,0.622,-0.892C4.932,9.868,4.73,9.576,4.314,9.576zM12.182,11.9l-1.106,-1.971c0.016,0.271,0.023,0.473,0.023,0.603V11.9h-0.6V9h0.771l1.046,1.948c-0.012,-0.26,-0.017,-0.452,-0.017,-0.573V9h0.7v2.9H12.182zM8.4,11.9V9h1.6v0.6h-0.9v0.5h0.9v0.6h-0.9v0.6h0.9v0.6H8.4zM6.1,11.9V9h0.891c0.33,0,0.585,0.077,0.76,0.23c0.178,0.155,0.268,0.388,0.268,0.691c0,0.314,-0.095,0.559,-0.283,0.728c-0.185,0.166,-0.45,0.251,-0.788,0.251H6.8v1H6.1zM6.829,10.3c0.155,0,0.271,-0.031,0.345,-0.093c0.071,-0.06,0.106,-0.146,0.106,-0.264c0,-0.118,-0.029,-0.205,-0.087,-0.259c-0.06,-0.055,-0.159,-0.083,-0.295,-0.083H6.7v0.7H6.829z" fill="#78797A"/>
  </g>
</svg>
