<?xml version="1.0" encoding="UTF-8"?>
<!DOCTYPE svg PUBLIC "-//W3C//DTD SVG 1.1//EN" "http://www.w3.org/Graphics/SVG/1.1/DTD/svg11.dtd">
<svg version="1.1" id="Layer_1" xmlns="http://www.w3.org/2000/svg" xmlns:xlink="http://www.w3.org/1999/xlink" x="0px" y="0px" width="16px" height="16px" viewBox="0 0 16 16" enable-background="new 0 0 16 16" xml:space="preserve">
  <g id="icon">
    <path d="M15.5,3.5v8h-4.5V5.5c0,-0.276,-0.224,-0.5,-0.5,-0.5H3.5V3.5H15.5z" fill="#FFFFFF"/>
    <path d="M16,3v9h-5v-1h4V4H4v1H3V3H16z" fill="#383838"/>
    <path d="M15.5,0.5v3H3.5V0.5H15.5z" fill="#92CBEE"/>
    <path d="M3,0v4h13V0H3zM15,3H4V1h11V3z" fill="#0964B0"/>
    <path d="M7,5V4h1v1H7zM12,7V4h-1v1.5v1.5v1v3h1V8h3V7H12z" fill="#787979" opacity="0.6"/>
    <path d="M9.5,15.5V6.5H0.5v9H9.5z" fill="#FFFFFF" stroke="#ED8730" stroke-width="1" stroke-miterlimit="1"/>
    <rect x="3.5" y="6.5" width="3" height="3" fill="none" stroke="#787979" stroke-width="1" stroke-miterlimit="1"/>
    <path d="M2.5,14.3v-2.3M4.5,13.5v-1.5M6.5,14.3v-2.3" fill="none" stroke="#787979" stroke-width="1" stroke-miterlimit="1"/>
  </g>
</svg>
