<?xml version="1.0" encoding="UTF-8"?>
<!DOCTYPE svg PUBLIC "-//W3C//DTD SVG 1.1//EN" "http://www.w3.org/Graphics/SVG/1.1/DTD/svg11.dtd">
<svg version="1.1" id="Layer_1" xmlns="http://www.w3.org/2000/svg" xmlns:xlink="http://www.w3.org/1999/xlink" x="0px" y="0px" width="32px" height="32px" viewBox="0 0 32 32" enable-background="new 0 0 32 32" xml:space="preserve">
  <g id="icon">
    <path d="M21.455,25.5h-8.6L9.549,6.755C9.415,5.995,9.956,5.5,10.711,5.5h15.32c0.754,0,1.384,0.495,1.518,1.255L30.855,25.5h-2.7M4.455,25.5H2.619c-0.375,0,-0.815,-0.287,-0.882,-0.669c0,0,-0.699,-3.962,-1.122,-6.36c-0.055,-0.31,-0.037,-0.706,-0.028,-0.899c0.11,-2.416,0.599,-5.974,0.801,-6.435c0.202,-0.46,0.692,-0.637,1.067,-0.637h7.156c0.375,0,0.635,0.202,0.702,0.584l2.424,13.748c0.05,0.285,-0.049,0.669,-0.382,0.669h-1.233" fill="#FFFFFF"/>
    <path d="M24.162,21.688c-1.83,0,-3.049,1.495,-2.724,3.339c0.325,1.844,2.072,3.339,3.901,3.339c1.829,0,3.049,-1.495,2.724,-3.339C27.738,23.183,25.991,21.688,24.162,21.688zM11.063,25.027c0.325,1.844,-0.894,3.339,-2.724,3.339c-1.83,0,-3.576,-1.495,-3.901,-3.339c-0.325,-1.844,0.894,-3.339,2.724,-3.339C8.991,21.688,10.738,23.183,11.063,25.027z" fill="#FFFFFF" stroke="#383838" stroke-width="1" stroke-miterlimit="1"/>
    <path d="M16,9.5h14M19,12.5h12M22,15.5h10" fill="#FFFFFF" stroke="#228BCB" stroke-width="1" stroke-miterlimit="1"/>
    <path d="M21.366,25l0.176,1H11.209l-0.176,-1h1.19c0.015,-0.036,0.025,-0.104,0.014,-0.169L9.813,11.084c-0.006,-0.036,-0.015,-0.06,-0.021,-0.073c-0.015,-0.005,-0.046,-0.011,-0.093,-0.011H4.798l-0.176,-1h4.901c0.034,0,0.067,0.001,0.1,0.003l-0.573,-3.249C8.858,5.671,9.621,5,10.623,5h15.32c1.041,0,1.927,0.738,2.106,1.755l0.22,1.245h-1l-0.22,-1.245c-0.082,-0.465,-0.439,-0.755,-0.93,-0.755h-15.32c-0.511,0,-0.826,0.323,-0.75,0.755L13.266,25H21.366zM2.53,25c-0.136,0,-0.283,-0.105,-0.294,-0.169L1.032,18h-1l1.205,6.831c0.123,0.699,0.86,1.169,1.47,1.169h1.836l-0.176,-1H2.53zM28.856,17l1.411,8h-2.2l0.176,1h3.2l-1.587,-9H28.856z" fill="#383838"/>
    <path d="M6.444,17.5h-5.8l0.4,-5.487c0.098,-0.896,0.808,-1.513,1.739,-1.513H5.21L6.444,17.5z" fill="#FFFFFF" stroke="#228BCB" stroke-width="1" stroke-miterlimit="1"/>
  </g>
</svg>
