<?xml version="1.0" encoding="UTF-8"?>
<!DOCTYPE svg PUBLIC "-//W3C//DTD SVG 1.1//EN" "http://www.w3.org/Graphics/SVG/1.1/DTD/svg11.dtd">
<svg version="1.1" id="Layer_1" xmlns="http://www.w3.org/2000/svg" xmlns:xlink="http://www.w3.org/1999/xlink" x="0px" y="0px" width="32px" height="32px" viewBox="0 0 32 32" enable-background="new 0 0 32 32" xml:space="preserve">
  <g id="icon">
    <path d="M26.5,12.049c0,2.235,-0.692,4.308,-1.872,6.014C22.732,20.804,16,29.6,16,29.6s-6.687,-8.77,-8.588,-11.479C6.207,16.404,5.5,14.31,5.5,12.049C5.5,6.223,10.201,1.5,16,1.5S26.5,6.223,26.5,12.049z" fill="#B2DBB4" stroke="#009949" stroke-width="1" stroke-miterlimit="1"/>
    <path d="M16.461,7.047L17.586,10.5h3.659c0.445,0,0.631,0.569,0.272,0.832l-2.964,2.167l1.13,3.469c0.138,0.424,-0.348,0.778,-0.709,0.515l-2.95,-2.146l-2.95,2.146c-0.361,0.263,-0.847,-0.091,-0.709,-0.515l1.13,-3.469l-2.964,-2.167c-0.36,-0.263,-0.174,-0.832,0.272,-0.832h3.659l1.126,-3.453C15.723,6.624,16.322,6.624,16.461,7.047z" fill="#FFFFFF" stroke="#009949" stroke-width="1" stroke-miterlimit="1"/>
  </g>
</svg>
