<?xml version="1.0" encoding="UTF-8"?>
<!DOCTYPE svg PUBLIC "-//W3C//DTD SVG 1.1//EN" "http://www.w3.org/Graphics/SVG/1.1/DTD/svg11.dtd">
<svg version="1.1" id="Layer_1" xmlns="http://www.w3.org/2000/svg" xmlns:xlink="http://www.w3.org/1999/xlink" x="0px" y="0px" width="32px" height="32px" viewBox="0 0 32 32" enable-background="new 0 0 32 32" xml:space="preserve">
  <g id="icon">
    <path d="M14.776,30.343c-0.992,-0.303,-1.858,-0.771,-2.66,-1.361c-1.325,-0.975,-2.455,-2.151,-3.486,-3.425c-1.454,-1.797,-2.72,-3.721,-3.861,-5.73c-1.023,-1.801,-1.928,-3.656,-2.552,-5.635c-0.414,-1.311,-0.691,-2.652,-0.601,-4.038c0.027,-0.414,0.095,-0.855,0.273,-1.221c0.149,-0.306,0.463,-0.552,0.747,-0.769c0.904,-0.691,1.913,-1.205,2.962,-1.636c0.522,-0.215,1.046,-0.161,1.506,0.174c0.162,0.118,0.314,0.301,0.384,0.487c0.595,1.577,1.163,3.164,1.756,4.743c0.226,0.603,0.022,1.099,-0.346,1.542c-0.451,0.543,-0.93,1.064,-1.421,1.571c-0.175,0.181,-0.191,0.327,-0.08,0.53c0.65,1.194,1.255,2.415,1.956,3.578c0.601,0.996,1.303,1.932,1.977,2.883c0.472,0.667,0.486,0.66,1.27,0.444c0.477,-0.132,0.948,-0.283,1.427,-0.405c0.478,-0.122,0.961,-0.171,1.415,0.097c0.097,0.058,0.189,0.131,0.267,0.213c1.118,1.179,2.214,2.38,3.355,3.536c0.713,0.722,0.528,1.614,-0.125,2.177c-0.911,0.784,-1.869,1.512,-2.973,2.016C15.579,30.29,15.179,30.429,14.776,30.343z" fill="#C8C6C4" stroke="#383838" stroke-width="1" stroke-miterlimit="1"/>
    <polyline points="31,11.45 22.55,11.45 22.55,11.328 28.468,2.05 28.55,2.05 28.55,14.5" fill="none" stroke="#228BCB" stroke-width="1.1" stroke-miterlimit="1" stroke-linejoin="miter"/>
    <path d="M13.086,4.976c0.06,-0.45,0.185,-0.856,0.375,-1.218c0.189,-0.362,0.432,-0.668,0.729,-0.92c0.296,-0.252,0.638,-0.446,1.025,-0.583c0.387,-0.137,0.808,-0.205,1.264,-0.205c0.395,0,0.784,0.056,1.165,0.169c0.381,0.113,0.72,0.288,1.017,0.527c0.296,0.239,0.537,0.543,0.721,0.912c0.184,0.37,0.276,0.815,0.276,1.334c0,0.429,-0.07,0.828,-0.21,1.198c-0.14,0.37,-0.328,0.723,-0.564,1.061c-0.236,0.338,-0.509,0.669,-0.819,0.993c-0.31,0.324,-0.635,0.655,-0.976,0.993l-4.038,4.138v0.075H20.6" fill="none" stroke="#228BCB" stroke-width="1.1" stroke-miterlimit="1"/>
  </g>
</svg>
