<?xml version="1.0" encoding="UTF-8"?>
<!DOCTYPE svg PUBLIC "-//W3C//DTD SVG 1.1//EN" "http://www.w3.org/Graphics/SVG/1.1/DTD/svg11.dtd">
<svg version="1.1" id="Layer_1" xmlns="http://www.w3.org/2000/svg" xmlns:xlink="http://www.w3.org/1999/xlink" x="0px" y="0px" width="32px" height="32px" viewBox="0 0 32 32" enable-background="new 0 0 32 32" xml:space="preserve">
  <g id="icon">
    <path d="M29.735,16.563c-0.945,-2.16,-2.654,-3.824,-4.814,-4.688c-0.163,-0.066,-0.258,-0.235,-0.232,-0.41c0.007,-0.047,0.013,-0.093,0.019,-0.14c0.308,-2.336,-0.284,-4.661,-1.668,-6.549c-1.201,-1.638,-2.881,-2.788,-4.792,-3.299c2.422,0.905,4.118,3.203,4.244,5.897c0.159,3.397,-2.277,6.361,-5.524,6.859l-1.946,-0.001c-2.693,-0.42,-4.874,-2.523,-5.399,-5.282c-0.614,-3.222,1.194,-6.368,4.125,-7.47c-1.953,0.525,-3.655,1.709,-4.856,3.394c-1.363,1.914,-1.924,4.254,-1.578,6.59c0.026,0.176,-0.069,0.345,-0.233,0.411c-0.043,0.017,-0.086,0.035,-0.128,0.052c-2.14,0.896,-3.821,2.581,-4.733,4.746c-0.795,1.885,-0.931,3.937,-0.406,5.883c-0.44,-2.588,0.673,-5.247,2.89,-6.698c1.05,-0.688,2.263,-1.051,3.506,-1.051c1.904,0,3.72,0.859,4.946,2.32l1.092,1.84c1.02,2.599,0.33,5.6,-1.77,7.458c-1.182,1.046,-2.694,1.622,-4.258,1.622c-1.526,0,-2.998,-0.549,-4.157,-1.53c1.643,1.687,3.873,2.64,6.236,2.64c2.008,0,3.9,-0.675,5.47,-1.951c0.066,-0.055,0.15,-0.085,0.235,-0.085c0.084,0,0.167,0.03,0.233,0.083c0.036,0.029,0.072,0.058,0.109,0.087c1.552,1.22,3.406,1.865,5.361,1.865c2.371,0,4.601,-0.954,6.243,-2.645c-1.16,0.984,-2.635,1.536,-4.163,1.536c-1.029,0,-2.058,-0.255,-2.975,-0.736c-2.978,-1.564,-4.278,-5.217,-3.055,-8.338l1.088,-1.84c1.226,-1.464,3.042,-2.326,4.946,-2.326c0.72,0,1.432,0.122,2.116,0.362c3.027,1.063,4.812,4.251,4.285,7.385C30.723,20.566,30.568,18.468,29.735,16.563zM16,19.4c-1.341,0,-2.429,-1.099,-2.429,-2.454s1.087,-2.454,2.429,-2.454s2.429,1.099,2.429,2.454S17.341,19.4,16,19.4z" fill="#FFFFFF" stroke="#383838" stroke-width="1" stroke-miterlimit="1"/>
    <path d="M10.985,11.654c1.302,-1.261,3.069,-2.035,5.015,-2.035c1.894,0,3.618,0.734,4.909,1.935M8.994,15.054c-0.159,0.604,-0.244,1.238,-0.244,1.892c0,3.324,2.191,6.132,5.193,7.028M18.117,23.955c2.971,-0.915,5.133,-3.707,5.133,-7.01c0,-0.667,-0.088,-1.312,-0.253,-1.926" fill="none" stroke="#383838" stroke-width="1.2" stroke-miterlimit="1"/>
  </g>
</svg>
