<?xml version="1.0" encoding="UTF-8"?>
<!DOCTYPE svg PUBLIC "-//W3C//DTD SVG 1.1//EN" "http://www.w3.org/Graphics/SVG/1.1/DTD/svg11.dtd">
<svg version="1.1" id="Layer_1" xmlns="http://www.w3.org/2000/svg" xmlns:xlink="http://www.w3.org/1999/xlink" x="0px" y="0px" width="32px" height="32px" viewBox="0 0 32 32" enable-background="new 0 0 32 32" xml:space="preserve">
  <g id="icon">
    <path d="M9.696,1.55L1.55,9.696v12.613l8.029,8.141h12.623l8.247,-8.034V9.58l-8.141,-8.03H9.696z" fill="#FFFFFF" stroke="#EE3D3B" stroke-width="1.1" stroke-miterlimit="1"/>
    <path d="M6.832,21.364L25.2,10.759M10.005,22.969l1.09,-4.066l-4.066,-1.09M21.962,9.191l-1.09,4.066l4.066,1.09" fill="none" stroke="#EE3D3B" stroke-width="1.1" stroke-miterlimit="1"/>
    <path d="M25.184,21.336L6.816,10.731M24.988,17.785l-4.066,1.09l1.09,4.066M7.077,14.319l4.066,-1.09l-1.09,-4.066" fill="none" stroke="#EE3D3B" stroke-width="1.1" stroke-miterlimit="1"/>
    <path d="M16,5.429v21.209M13.023,7.374L16,10.35l2.977,-2.977M18.976,24.618L16,21.641l-2.977,2.977" fill="none" stroke="#EE3D3B" stroke-width="1.1" stroke-miterlimit="1"/>
  </g>
</svg>
