<?xml version="1.0" encoding="UTF-8"?>
<!DOCTYPE svg PUBLIC "-//W3C//DTD SVG 1.1//EN" "http://www.w3.org/Graphics/SVG/1.1/DTD/svg11.dtd">
<svg version="1.1" id="Layer_1" xmlns="http://www.w3.org/2000/svg" xmlns:xlink="http://www.w3.org/1999/xlink" x="0px" y="0px" width="32px" height="32px" viewBox="0 0 32 32" enable-background="new 0 0 32 32" xml:space="preserve">
  <g id="icon">
    <polygon points="5.518,14.883 17.017,26.382 22.41,9.592" fill="#FFFFFF" stroke-linejoin="miter"/>
    <path d="M2.139,29.002l8.36,-8.372l-5.914,-5.923l16.7,-5.469l-0.539,-0.457c-3.521,-2.985,-5.227,-4.731,-4.78,-5.99c0.229,-0.643,0.952,-0.969,2.15,-0.969l0.709,0.005l0.008,1.197l-0.638,-0.004c-0.272,0,-0.504,0.016,-0.69,0.048l-0.533,0.092l0.25,0.48c0.521,1.002,2.8,2.993,4.961,4.809l0.278,0.233l6.603,-6.612l0.855,0.856L23.392,9.46l0.329,0.277c3.524,2.967,5.796,5.017,5.296,6.426c-0.059,0.167,-0.151,0.312,-0.271,0.433c-0.535,0.536,-1.546,0.536,-1.878,0.536l-0.71,-0.005l-0.008,-1.197l0.637,0.004c0.273,0,0.505,-0.016,0.691,-0.049l0.532,-0.093l-0.249,-0.479c-0.505,-0.97,-2.681,-2.881,-4.521,-4.438l-0.449,-0.379l-5.522,16.911l-5.914,-5.922l-8.36,8.372L2.139,29.002zM6.797,15.251l9.929,9.943l4.825,-14.775L6.797,15.251z" fill="#383838"/>
  </g>
</svg>
