<?xml version="1.0" encoding="UTF-8"?>
<!DOCTYPE svg PUBLIC "-//W3C//DTD SVG 1.1//EN" "http://www.w3.org/Graphics/SVG/1.1/DTD/svg11.dtd">
<svg version="1.1" id="Layer_1" xmlns="http://www.w3.org/2000/svg" xmlns:xlink="http://www.w3.org/1999/xlink" x="0px" y="0px" width="32px" height="32px" viewBox="0 0 32 32" enable-background="new 0 0 32 32" xml:space="preserve">
  <g id="icon">
    <path d="M23.5,9.075c0,4.128,-3.358,7.475,-7.5,7.475s-7.5,-3.346,-7.5,-7.475S11.858,1.6,16,1.6S23.5,4.946,23.5,9.075zM28.998,31c0,-7.216,-6.239,-14.4,-12.949,-14.4S3,23.784,3,31" fill="#FFFFFF" stroke="#383838" stroke-width="1.1" stroke-miterlimit="1"/>
    <polygon points="17.5,31 14.5,31 15.25,21.138 14.5,18.5 17.5,18.5 16.75,21.167" fill="#EF3E3B" stroke-linejoin="miter"/>
    <path d="M17.089,31c0.207,-0.98,2.081,-9.699,3.989,-12.7l0.844,0.537c-1.698,2.67,-3.466,10.57,-3.81,12.163H17.089zM14.904,31c-0.195,-0.927,-2.07,-9.689,-3.983,-12.681l-0.843,0.538c1.698,2.657,3.465,10.577,3.803,12.143H14.904z" fill="#383838"/>
  </g>
</svg>
