<?xml version="1.0" encoding="UTF-8"?>
<!DOCTYPE svg PUBLIC "-//W3C//DTD SVG 1.1//EN" "http://www.w3.org/Graphics/SVG/1.1/DTD/svg11.dtd">
<svg version="1.1" id="Layer_1" xmlns="http://www.w3.org/2000/svg" xmlns:xlink="http://www.w3.org/1999/xlink" x="0px" y="0px" width="32px" height="32px" viewBox="0 0 32 32" enable-background="new 0 0 32 32" xml:space="preserve">
  <g id="icon">
    <path d="M26.26,22.504c2.894,0,5.24,-2.281,5.24,-5.096c0,-2.358,-1.647,-4.341,-3.884,-4.922c-0.518,-3.759,-3.827,-6.659,-7.835,-6.659c-3.243,0,-6.029,1.9,-7.249,4.616" fill="#C8C6C4" stroke="#383838" stroke-width="1" stroke-miterlimit="1"/>
    <path d="M17.703,14.921c0.825,-0.444,1.762,-0.696,2.758,-0.696c3.293,0,5.962,2.748,5.962,6.138c0,3.39,-2.669,6.138,-5.962,6.138H5.253C2.628,26.5,0.5,24.31,0.5,21.608c0,-2.264,1.494,-4.168,3.522,-4.726c0.47,-3.609,3.471,-6.393,7.106,-6.393C14.07,10.489,16.597,12.312,17.703,14.921c0.383,0.904,0.597,1.901,0.597,2.951" fill="#C8C6C4" stroke="#383838" stroke-width="1" stroke-miterlimit="1"/>
  </g>
</svg>
