<?xml version="1.0" encoding="UTF-8"?>
<!DOCTYPE svg PUBLIC "-//W3C//DTD SVG 1.1//EN" "http://www.w3.org/Graphics/SVG/1.1/DTD/svg11.dtd">
<svg version="1.1" id="Layer_1" xmlns="http://www.w3.org/2000/svg" xmlns:xlink="http://www.w3.org/1999/xlink" x="0px" y="0px" width="32px" height="32px" viewBox="0 0 32 32" enable-background="new 0 0 32 32" xml:space="preserve">
  <g id="icon">
    <polygon points="5.967,7.533 9.779,3.5 11.574,4.7 16.394,1.7 17.717,4.4 23.01,2.7 24.9,7.4" fill="#92CBEE" stroke-linejoin="miter"/>
    <path d="M5.998,7.565l3.78,-4.189l5.671,4.189M19.229,7.6l-2.835,-5.9l-4.536,2.933M24.9,7.46l-1.89,-4.818l-5.103,1.78" fill="none" stroke="#0964B0" stroke-width="1" stroke-miterlimit="1"/>
    <path d="M22.769,30.5H8.231C6.729,30.5,5.5,29.271,5.5,27.769V7.5h20v20.269C25.5,29.271,24.271,30.5,22.769,30.5zM27,7.5H4M15.5,26V12M19.5,26V12M11.5,26V12" fill="#FFFFFF"/>
    <path d="M22.769,30.5H8.231C6.729,30.5,5.5,29.271,5.5,27.769V7.5h20v20.269C25.5,29.271,24.271,30.5,22.769,30.5zM27,7.5H4M15.5,26V12M19.5,26V12M11.5,26V12" fill="#C8C6C4" opacity="0.5"/>
    <path d="M22.769,30.5H8.231C6.729,30.5,5.5,29.271,5.5,27.769V7.5h20v20.269C25.5,29.271,24.271,30.5,22.769,30.5zM27,7.5H4M15.5,26V12M19.5,26V12M11.5,26V12" fill="none" stroke="#383838" stroke-width="1" stroke-miterlimit="1"/>
  </g>
</svg>
