<?xml version="1.0" encoding="UTF-8"?>
<!DOCTYPE svg PUBLIC "-//W3C//DTD SVG 1.1//EN" "http://www.w3.org/Graphics/SVG/1.1/DTD/svg11.dtd">
<svg version="1.1" id="Layer_1" xmlns="http://www.w3.org/2000/svg" xmlns:xlink="http://www.w3.org/1999/xlink" x="0px" y="0px" width="24px" height="24px" viewBox="0 0 24 24" enable-background="new 0 0 24 24" xml:space="preserve">
  <g id="icon">
    <path d="M0.9572,9.7h7.9174l-3.8927,6.0208L0.9572,9.7zM15.0254,14.2l3.8927,-6.0208L22.9428,14.2H15.0254z" fill="#FFFFFF" opacity="0.5"/>
    <path d="M6,22v-2h8.899c1.7099,0,3.101,-1.3962,3.101,-3.1124V15l-3.4461,0c-0.1119,0,-0.2238,-0.0337,-0.3084,-0.1069c-0.1834,-0.1587,-0.2113,-0.4141,-0.0899,-0.6019l4.4227,-6.8403c0.085,-0.1314,0.2292,-0.21,0.3858,-0.21c0.1537,0,0.2965,0.0763,0.3819,0.2041l4.5726,6.8404c0.1247,0.1865,0.1003,0.442,-0.0815,0.604c-0.0846,0.0755,-0.198,0.1106,-0.3114,0.1106L20,15v1.8876c0,2.819,-2.2883,5.1124,-5.101,5.1124H6zM20.6037,13l-1.6682,-2.4955L17.3221,13H20.6037zM5.0359,16.7591c-0.1537,0,-0.2965,-0.0763,-0.3819,-0.2041L0.0814,9.7146c-0.1246,-0.1863,-0.1003,-0.4417,0.0811,-0.6038C0.2471,9.0352,0.3605,9,0.4739,9L4,9V7.1124C4,4.2934,6.2883,2,9.101,2H18v2H9.101C7.3911,4,6,5.3962,6,7.1124V9l3.4461,0c0.1119,0,0.2238,0.0337,0.3084,0.1069c0.1834,0.1587,0.2113,0.4141,0.0899,0.6019l-4.4227,6.8403C5.3368,16.6806,5.1925,16.7591,5.0359,16.7591L5.0359,16.7591zM4.9645,13.4955L6.5779,11H3.2963L4.9645,13.4955z" fill="#6485C3"/>
  </g>
</svg>
