<?xml version="1.0" encoding="UTF-8"?>
<!DOCTYPE svg PUBLIC "-//W3C//DTD SVG 1.1//EN" "http://www.w3.org/Graphics/SVG/1.1/DTD/svg11.dtd">
<svg version="1.1" id="Layer_1" xmlns="http://www.w3.org/2000/svg" xmlns:xlink="http://www.w3.org/1999/xlink" x="0px" y="0px" width="24px" height="24px" viewBox="0 0 24 24" enable-background="new 0 0 24 24" xml:space="preserve">
  <g id="icon">
    <path d="M22.6744,1.6204c-0.1911,-0.0707,-0.383,-0.0389,-0.5301,0.0795L13,8.2552V2.1329c0,-0.2099,-0.1214,-0.4073,-0.3167,-0.4843c-0.1891,-0.0745,-0.3821,-0.0459,-0.5309,0.0692L0.6533,11.3837c-0.1297,0.1003,-0.2042,0.252,-0.2042,0.4159c0,0.1641,0.0744,0.3157,0.2042,0.4161l11.4992,9.666c0.1488,0.1151,0.3418,0.1437,0.5309,0.0692c0.1953,-0.077,0.3167,-0.2744,0.3167,-0.4843v-6.1369l9.1438,6.571c0.095,0.0766,0.2087,0.1171,0.3289,0.1171h0.0236c0.277,0,0.5037,-0.2267,0.5037,-0.5037V2.1079C23,1.8946,22.8745,1.6945,22.6744,1.6204z" fill="#6485C3"/>
  </g>
</svg>
