<?xml version="1.0" encoding="UTF-8"?>
<!DOCTYPE svg PUBLIC "-//W3C//DTD SVG 1.1//EN" "http://www.w3.org/Graphics/SVG/1.1/DTD/svg11.dtd">
<svg version="1.1" id="Layer_1" xmlns="http://www.w3.org/2000/svg" xmlns:xlink="http://www.w3.org/1999/xlink" x="0px" y="0px" width="24px" height="24px" viewBox="0 0 24 24" enable-background="new 0 0 24 24" xml:space="preserve">
  <g id="icon">
    <polygon points="1.7,2.5776 10.7,9.8217 10.7,2.5904 22.6086,11.7998 10.7,21.0091 10.7,13.7609 1.7,21.0227" fill="#FFFFFF" stroke-linejoin="miter" opacity="0.5"/>
    <path d="M1,21.4906l0,-19.3598c0,-0.2623,0.1825,-0.5002,0.4417,-0.5409c0.1511,-0.0237,0.2968,0.0156,0.414,0.11L10,8.2552l0,-6.0998c0,-0.2591,0.1777,-0.4952,0.4329,-0.5398c0.1501,-0.0262,0.2963,0.0106,0.4147,0.1021l12.4991,9.666c0.1297,0.1003,0.2042,0.252,0.2042,0.4159c0,0.1641,-0.0744,0.3157,-0.2042,0.4161l-12.4992,9.666c-0.1184,0.0915,-0.2647,0.1284,-0.4147,0.1021c-0.2552,-0.0446,-0.4329,-0.2807,-0.4329,-0.5398l0,-6.1143l-8.1438,6.571c-0.095,0.0766,-0.2087,0.1171,-0.3289,0.1171h0C1.2373,22.0179,1,21.7806,1,21.4906zM12,18.4623l8.6153,-6.6625L12,5.1373V18.4623zM3,18.408l7,-5.648v-1.9374L3,5.1883V18.408z" fill="#6485C3"/>
  </g>
</svg>
