<?xml version="1.0" encoding="UTF-8"?>
<!DOCTYPE svg PUBLIC "-//W3C//DTD SVG 1.1//EN" "http://www.w3.org/Graphics/SVG/1.1/DTD/svg11.dtd">
<svg version="1.1" id="Layer_1" xmlns="http://www.w3.org/2000/svg" xmlns:xlink="http://www.w3.org/1999/xlink" x="0px" y="0px" width="24px" height="24px" viewBox="0 0 24 24" enable-background="new 0 0 24 24" xml:space="preserve">
  <g id="icon">
    <path d="M19,0H5C2.2386,0,0,2.2386,0,5v14c0,2.7614,2.2386,5,5,5h14c2.7614,0,5,-2.2386,5,-5V5C24,2.2386,21.7614,0,19,0zM16.3868,9.3054l1.3181,-0.716c0.5629,1.0361,0.8604,2.2107,0.8604,3.3968c0,1.1739,-0.2917,2.3377,-0.8437,3.3658L16.4,14.6424c0.4352,-0.8106,0.6653,-1.7291,0.6653,-2.6562C17.0653,11.0494,16.8307,10.1224,16.3868,9.3054zM15,4.6352v14.7296L10.0659,15H5V9h5.0659L15,4.6352z" fill="#6485C3"/>
    <path d="M15,19.3648L10.0659,15H5V9h5.0659L15,4.6352V19.3648zM17.7216,15.3519L16.4,14.6424c0.4352,-0.8106,0.6653,-1.7291,0.6653,-2.6562c0,-0.9368,-0.2346,-1.8637,-0.6784,-2.6807l1.3181,-0.716c0.5629,1.0361,0.8604,2.2107,0.8604,3.3968C18.5653,13.16,18.2735,14.3238,17.7216,15.3519z" fill="#FFFFFF"/>
  </g>
</svg>
