<?xml version="1.0" encoding="UTF-8"?>
<!DOCTYPE svg PUBLIC "-//W3C//DTD SVG 1.1//EN" "http://www.w3.org/Graphics/SVG/1.1/DTD/svg11.dtd">
<svg version="1.1" id="Layer_1" xmlns="http://www.w3.org/2000/svg" xmlns:xlink="http://www.w3.org/1999/xlink" x="0px" y="0px" width="24px" height="24px" viewBox="0 0 24 24" enable-background="new 0 0 24 24" xml:space="preserve">
  <g id="icon">
    <path d="M19,0H5C2.2386,0,0,2.2386,0,5v14c0,2.7614,2.2386,5,5,5h14c2.7614,0,5,-2.2386,5,-5V5C24,2.2386,21.7614,0,19,0zM15,18.9988L8.9994,19L9,13H4.9981l7.002,-8.5213L19.0022,13h-4.0014L15,18.9988z" fill="#6485C3"/>
    <path d="M19.0022,13h-4.0014L15,18.9988L8.9994,19L9,13H4.9981l7.002,-8.5213L19.0022,13z" fill="#FFFFFF"/>
  </g>
</svg>
