<?xml version="1.0" encoding="UTF-8"?>
<!DOCTYPE svg PUBLIC "-//W3C//DTD SVG 1.1//EN" "http://www.w3.org/Graphics/SVG/1.1/DTD/svg11.dtd">
<svg version="1.1" id="Layer_1" xmlns="http://www.w3.org/2000/svg" xmlns:xlink="http://www.w3.org/1999/xlink" x="0px" y="0px" width="24px" height="24px" viewBox="0 0 24 24" enable-background="new 0 0 24 24" xml:space="preserve">
  <g id="icon">
    <path d="M12,0C5.3832,0,0,5.3832,0,12s5.3832,12,12,12s12,-5.3832,12,-12S18.6168,0,12,0zM3.3237,11H6.5V8.7408C6.5,6.6781,8.1744,5,10.2325,5H15.5v1.5h-5.2675C9.0015,6.5,8,7.5052,8,8.7408V11h3.1892l-3.8671,5.9811L3.3237,11zM17.5,13v2.2592C17.5,17.3219,15.8256,19,13.7675,19H8.5v-1.5h5.2675c1.231,0,2.2325,-1.0052,2.2325,-2.2408V13h-3.1892l3.8671,-5.9811L20.6763,13H17.5z" fill="#6485C3"/>
    <path d="M8,11V8.7408C8,7.5052,9.0015,6.5,10.2325,6.5H15.5V5h-5.2675C8.1744,5,6.5,6.6781,6.5,8.7408V11H3.3237l3.9984,5.9811L11.1892,11H8zM20.6763,13l-3.9984,-5.9811L12.8108,13H16v2.2592C16,16.4948,14.9985,17.5,13.7675,17.5H8.5v1.5h5.2675C15.8256,19,17.5,17.3219,17.5,15.2592V13H20.6763z" fill="#FFFFFF"/>
  </g>
</svg>
