<?xml version="1.0" encoding="UTF-8"?>
<!DOCTYPE svg PUBLIC "-//W3C//DTD SVG 1.1//EN" "http://www.w3.org/Graphics/SVG/1.1/DTD/svg11.dtd">
<svg version="1.1" id="Layer_1" xmlns="http://www.w3.org/2000/svg" xmlns:xlink="http://www.w3.org/1999/xlink" x="0px" y="0px" width="24px" height="24px" viewBox="0 0 24 24" enable-background="new 0 0 24 24" xml:space="preserve">
  <g id="icon">
    <path d="M12.05,23.3C5.8368,23.3,0.8,18.2632,0.8,12.05S5.8368,0.8,12.05,0.8S23.3,5.8368,23.3,12.05S18.2632,23.3,12.05,23.3z" fill="#FFFFFF" opacity="0.5"/>
    <path d="M12,0c6.6168,0,12,5.3832,12,12s-5.3832,12,-12,12S0,18.6168,0,12S5.3832,0,12,0zM12,2.0609c-5.4804,0,-9.9391,4.4587,-9.9391,9.9391S6.5196,21.9391,12,21.9391s9.9391,-4.4587,9.9391,-9.9391S17.4804,2.0609,12,2.0609z" fill="#6485C3"/>
    <path d="M15.5,6v5.1471L7,5.6987v12.6025l8.5,-5.4484V18h1.5V6H15.5zM8.5,15.4854V8.5146L14.3084,12L8.5,15.4854z" fill="#6485C3"/>
  </g>
</svg>
