<?xml version="1.0" encoding="UTF-8"?>
<!DOCTYPE svg PUBLIC "-//W3C//DTD SVG 1.1//EN" "http://www.w3.org/Graphics/SVG/1.1/DTD/svg11.dtd">
<svg version="1.1" id="Layer_1" xmlns="http://www.w3.org/2000/svg" xmlns:xlink="http://www.w3.org/1999/xlink" x="0px" y="0px" width="24px" height="24px" viewBox="0 0 24 24" enable-background="new 0 0 24 24" xml:space="preserve">
  <g id="icon">
    <path d="M0.75,12C0.75,5.7868,5.7868,0.75,12,0.75S23.25,5.7868,23.25,12S18.2132,23.25,12,23.25S0.75,18.2132,0.75,12z" fill="#FFFFFF" opacity="0.5"/>
    <path d="M24,12c0,6.6168,-5.3832,12,-12,12S0,18.6168,0,12C0,5.3832,5.3832,0,12,0C18.6168,0,24,5.3832,24,12zM2.0609,12c0,5.4804,4.4587,9.9391,9.9391,9.9391s9.9391,-4.4587,9.9391,-9.9391S17.4804,2.0609,12,2.0609S2.0609,6.5196,2.0609,12z" fill="#6485C3"/>
    <path d="M12,18c-3.3084,0,-6,-2.6916,-6,-6s2.6916,-6,6,-6s6,2.6916,6,6S15.3084,18,12,18zM12,7.6721c-2.3864,0,-4.3279,1.9415,-4.3279,4.3279S9.6136,16.3279,12,16.3279s4.3279,-1.9415,4.3279,-4.3279S14.3864,7.6721,12,7.6721z" fill="#CB525D"/>
  </g>
</svg>
