<?xml version="1.0" encoding="UTF-8"?>
<!DOCTYPE svg PUBLIC "-//W3C//DTD SVG 1.1//EN" "http://www.w3.org/Graphics/SVG/1.1/DTD/svg11.dtd">
<svg version="1.1" id="Layer_1" xmlns="http://www.w3.org/2000/svg" xmlns:xlink="http://www.w3.org/1999/xlink" x="0px" y="0px" width="24px" height="24px" viewBox="0 0 24 24" enable-background="new 0 0 24 24" xml:space="preserve">
  <g id="icon">
    <polygon points="17.525,0 5,0 5,6.7 7,6.7 7,2 17,2 17,7.025 22,7 22,21 16,21 16,23 24,23 24,6.5" fill="#7B7B7B" stroke-linejoin="miter"/>
    <path d="M17,7.025V2H7v4.8545C7.3286,6.8189,7.6621,6.8,8,6.8c5.0729,0,9.2,4.1271,9.2,9.2c0,1.8423,-0.5447,3.5596,-1.481,5H16h6V7L17,7.025z" fill="#FFFFFF" opacity="0.4"/>
    <circle cx="7.6" cy="16.5" r="6.75" fill="#FFFFFF" opacity="0.5"/>
    <path d="M8,24c-4.4112,0,-8,-3.5888,-8,-8s3.5888,-8,8,-8s8,3.5888,8,8S12.4112,24,8,24zM8,9.9693c-3.3253,0,-6.0307,2.7053,-6.0307,6.0307S4.6747,22.0307,8,22.0307s6.0307,-2.7053,6.0307,-6.0307S11.3253,9.9693,8,9.9693z" fill="#6485C3"/>
    <path d="M5.0633,20.3368v-8.6735L12.9601,16L5.0633,20.3368zM6.5823,14.2304v3.5392L9.8045,16L6.5823,14.2304z" fill="#6485C3"/>
  </g>
</svg>
