<?xml version="1.0" encoding="UTF-8"?>
<!DOCTYPE svg PUBLIC "-//W3C//DTD SVG 1.1//EN" "http://www.w3.org/Graphics/SVG/1.1/DTD/svg11.dtd">
<svg version="1.1" id="Layer_1" xmlns="http://www.w3.org/2000/svg" xmlns:xlink="http://www.w3.org/1999/xlink" x="0px" y="0px" width="24px" height="24px" viewBox="0 0 24 24" enable-background="new 0 0 24 24" xml:space="preserve">
  <g id="icon">
    <polygon points="17.525,0 5,0 5,8 7,8 7,2 17,2 17,7.025 22,7 22,21 18,21 18,23 24,23 24,6.5" fill="#7B7B7B" stroke-linejoin="miter"/>
    <path d="M22,7v14h-4.0996C18.6297,19.3857,19,17.6745,19,15.9036c0,-2.0613,-0.4986,-4.0378,-1.4819,-5.8747l-0.5664,-1.058l-2.6346,1.4104l-0.0695,-0.128L12.2,11.3657V8.1884c0,-0.7893,-0.6425,-1.4314,-1.4321,-1.4314c-0.3114,0,-0.6177,0.1039,-0.8662,0.2932L7,9.19V9V2h10v5.025L22,7z" fill="#FFFFFF" opacity="0.4"/>
    <polygon points="5.55,19.0682 0.85,19.0682 0.85,12.8682 5.55,12.8682 10.35,9.3682 10.35,22.5182" fill="#FFFFFF" stroke-linejoin="miter" opacity="0.6"/>
    <path d="M10.8678,23.9577c-0.0773,0,-0.1501,-0.0267,-0.2107,-0.0772l-5.4113,-3.9623H0v-7.9h5.254l5.4113,-3.9907c0.0566,-0.0454,0.1277,-0.0706,0.2026,-0.0706c0.1832,0,0.3321,0.1487,0.3321,0.3314v15.3378C11.2,23.809,11.051,23.9577,10.8678,23.9577zM5.8525,18.2182L9.5,20.7268v-9.6044l-3.655,2.5958H1.7v4.5H5.8525zM15.1863,20.2884l0.0457,-0.089C15.9406,18.8173,16.3,17.3383,16.3,15.8036c0,-1.5954,-0.3871,-3.1272,-1.1505,-4.5531l-0.0472,-0.0882l1.4988,-0.8023l0.0472,0.0881C17.5452,12.1235,18,13.9254,18,15.8036c0,1.8072,-0.4224,3.5471,-1.2554,5.1715l-0.0456,0.089L15.1863,20.2884zM12.4287,19.072l0.0473,-0.0881c0.5251,-0.9782,0.8027,-2.0865,0.8027,-3.2049c0,-1.1301,-0.2831,-2.2486,-0.8187,-3.2345l-0.0477,-0.0879l1.4938,-0.8115l0.0478,0.0878c0.6705,1.2341,1.0249,2.6333,1.0249,4.046c0,1.3982,-0.3475,2.7846,-1.005,4.0091l-0.0473,0.0881L12.4287,19.072z" fill="#6485C3"/>
  </g>
</svg>
