<?xml version="1.0" encoding="UTF-8"?>
<!DOCTYPE svg PUBLIC "-//W3C//DTD SVG 1.1//EN" "http://www.w3.org/Graphics/SVG/1.1/DTD/svg11.dtd">
<svg version="1.1" id="Layer_1" xmlns="http://www.w3.org/2000/svg" xmlns:xlink="http://www.w3.org/1999/xlink" x="0px" y="0px" width="24px" height="24px" viewBox="0 0 24 24" enable-background="new 0 0 24 24" xml:space="preserve">
  <g id="icon">
    <path d="M17.5,24c-1.3785,0,-2.5,-1.1805,-2.5,-2.6316v-6.7368c0,-1.451,1.1215,-2.6316,2.5,-2.6316s2.5,1.1805,2.5,2.6316v6.7368C20,22.8195,18.8785,24,17.5,24z" fill="#6485C3"/>
    <path d="M6.5,24c-1.3785,0,-2.5,-1.1805,-2.5,-2.6316v-6.7368C4,13.1805,5.1215,12,6.5,12s2.5,1.1805,2.5,2.6316v6.7368C9,22.8195,7.8785,24,6.5,24z" fill="#6485C3"/>
    <path d="M21.6974,21.6203c-0.3846,0,-0.6974,-0.3106,-0.6974,-0.6923v-6.7735l0.1017,0.0246c0.689,-2.3264,0.856,-5.5946,0.0451,-7.5038c-0.9047,-2.1301,-2.9047,-3.6724,-5.4501,-4.3427c-1.1348,-0.2988,-2.3364,-0.4503,-3.5714,-0.4503c-1.694,0,-3.346,0.2898,-4.7775,0.8381c-2.3995,0.9191,-4.1026,2.5763,-4.7359,4.7924c-0.5416,1.8951,-0.243,4.9582,0.1808,6.691L3,14.1531v6.7748c0,0.3818,-0.3129,0.6923,-0.6975,0.6923c-0.1406,0,-0.2769,-0.0434,-0.3939,-0.1254C0.9327,20.8108,0.35,19.4973,0.35,17.9812c0,-1.0226,0.2772,-1.9592,0.7826,-2.6513C0.5051,13.3064,0.109,9.3602,0.7838,6.9987C1.5865,4.1903,3.685,2.1029,6.6635,0.9621C8.3067,0.3327,10.1975,0,12.1314,0c1.402,0,2.7655,0.1719,4.0527,0.5109c3.1266,0.8233,5.5754,2.7525,6.7137,5.4325c1.067,2.5124,0.7949,6.5325,-0.1285,9.2588c0.5688,0.704,0.8807,1.6855,0.8807,2.7789c0,1.5161,-0.5827,2.8297,-1.5586,3.5137C21.9743,21.5769,21.8381,21.6203,21.6974,21.6203C21.6975,21.6203,21.6975,21.6203,21.6974,21.6203z" fill="#7B7B7B"/>
  </g>
</svg>
