<?xml version="1.0" encoding="UTF-8"?>
<!DOCTYPE svg PUBLIC "-//W3C//DTD SVG 1.1//EN" "http://www.w3.org/Graphics/SVG/1.1/DTD/svg11.dtd">
<svg version="1.1" id="Layer_1" xmlns="http://www.w3.org/2000/svg" xmlns:xlink="http://www.w3.org/1999/xlink" x="0px" y="0px" width="24px" height="24px" viewBox="0 0 24 24" enable-background="new 0 0 24 24" xml:space="preserve">
  <g id="icon">
    <path d="M11.4918,0.0716c-2.4859,0,-4.5082,2.0223,-4.5082,4.5082v7.9403c0,2.4859,2.0223,4.5082,4.5082,4.5082S16,15.006,16,12.5201V4.5799C16,2.094,13.9777,0.0716,11.4918,0.0716zM14,12.5c0,1.3807,-1.1193,2.5,-2.5,2.5s-2.5,-1.1193,-2.5,-2.5V4.5c0,-1.3807,1.1193,-2.5,2.5,-2.5s2.5,1.1193,2.5,2.5V12.5z" fill="#9070B1"/>
    <path d="M6,24v-2h4.6v-0.9975c-2.0228,-0.244,-3.89,-1.2113,-5.2745,-2.7368C3.8904,16.6844,3.1,14.6371,3.1,12.501V12.3h1.9v0.2c0,3.6498,2.9564,6.6191,6.5904,6.6191C15.1798,19.1191,18.1,16.1498,18.1,12.5v-0.2h1.8v0.201c0,2.2884,-0.8637,4.436,-2.432,6.0472c-1.3569,1.3943,-3.1505,2.2667,-5.068,2.4692V22h4.6v2H6z" fill="#9070B1"/>
    <path d="M11.5,15L11.5,15c-1.3807,0,-2.5,-1.1193,-2.5,-2.5V4.5c0,-1.3807,1.1193,-2.5,2.5,-2.5h0c1.3807,0,2.5,1.1193,2.5,2.5v8C14,13.8807,12.8807,15,11.5,15z" fill="#FFFFFF" opacity="0.5"/>
  </g>
</svg>
