<?xml version="1.0" encoding="UTF-8"?>
<!DOCTYPE svg PUBLIC "-//W3C//DTD SVG 1.1//EN" "http://www.w3.org/Graphics/SVG/1.1/DTD/svg11.dtd">
<svg version="1.1" id="Layer_1" xmlns="http://www.w3.org/2000/svg" xmlns:xlink="http://www.w3.org/1999/xlink" x="0px" y="0px" width="24px" height="24px" viewBox="0 0 24 24" enable-background="new 0 0 24 24" xml:space="preserve">
  <g id="icon">
    <rect x="6.5" y="1.5" width="11" height="20" fill="#FFFFFF" opacity="0.5"/>
    <path d="M22,23H2V0h20V23zM18,15h2v-1h-2V15zM7,21h10v-9H7V21zM4,15h2v-1H4V15zM18,17h2v-1h-2V17zM4,17h2v-1H4V17zM18,19h2v-1h-2V19zM4,19h2v-1H4V19zM18,21h2v-1h-2V21zM4,21h2v-1H4V21zM18,13h2v-1h-2V13zM4,13h2v-1H4V13zM18,11h2v-1h-2V11zM4,11h2v-1H4V11zM18,9h2V8h-2V9zM4,9h2V8H4V9zM7,11h10V2H7V11zM18,7h2V6h-2V7zM4,7h2V6H4V7zM18,5h2V4h-2V5zM4,5h2V4H4V5zM18,3h2V2h-2V3zM4,3h2V2H4V3z" fill="#7B7B7B"/>
  </g>
</svg>
