<?xml version="1.0" encoding="UTF-8"?>
<!DOCTYPE svg PUBLIC "-//W3C//DTD SVG 1.1//EN" "http://www.w3.org/Graphics/SVG/1.1/DTD/svg11.dtd">
<svg version="1.1" id="Layer_1" xmlns="http://www.w3.org/2000/svg" xmlns:xlink="http://www.w3.org/1999/xlink" x="0px" y="0px" width="24px" height="24px" viewBox="0 0 24 24" enable-background="new 0 0 24 24" xml:space="preserve">
  <g id="icon">
    <path d="M12,0C5.3832,0,0,5.3832,0,11.9999C0,18.6168,5.3832,24,12,24c6.6168,0,12,-5.3832,12,-12.0001C24,5.3832,18.6168,0,12,0zM8.9955,3.9772c0.1468,-0.311,0.4501,-0.5323,0.9542,-0.696c0.9357,-0.2296,1.5695,-0.3233,2.1862,-0.3233c0.5929,0,1.1927,0.0917,1.887,0.2884c0.5068,0.1932,0.8745,0.3933,1.0235,0.738c0.1543,0.3573,0.0814,0.8881,-0.2205,1.6181c-0.7461,1.688,-1.3126,1.8703,-1.5215,1.8703c-0.061,0,-0.118,-0.0148,-0.1693,-0.0441c-0.2805,-0.1598,-0.7945,-0.1836,-1.0758,-0.1836c-0.4646,0,-0.9357,0.0593,-1.2603,0.1586c-0.0903,0.0276,-0.17,0.0411,-0.2439,0.0411c-0.2997,0,-0.7317,-0.2102,-1.4164,-1.8452C8.8637,4.9044,8.8155,4.3586,8.9955,3.9772zM3.0965,11.2844c0.1015,-1.5648,0.3068,-2.5493,1.1915,-3.8952c0.3711,-0.4685,0.6853,-0.7585,1.1001,-0.7585c0.3714,0,0.8268,0.2305,1.3883,0.7013c1.1635,1.0237,1.3429,1.6087,1.3462,1.8662c0.0017,0.1252,-0.0363,0.2246,-0.1129,0.2955c-0.3773,0.3498,-0.7205,1.5331,-0.7263,2.2204c-0.0036,0.4244,-0.1783,0.8543,-2.2199,1.0411c-0.1159,0.0083,-0.2283,0.0125,-0.334,0.0125C3.3041,12.7675,3.1027,12.0191,3.0965,11.2844zM10.639,18.7897c-0.3304,1.385,-0.931,1.5451,-1.354,1.5451c-0.1857,0,-0.3951,-0.0364,-0.6401,-0.1114c-1.4619,-0.5674,-2.339,-1.0591,-3.3566,-2.3078c-0.3042,-0.449,-0.4908,-0.8239,-0.415,-1.1916c0.0786,-0.3812,0.4427,-0.7741,1.1087,-1.1988c1.0311,-0.6235,1.6257,-0.7543,1.943,-0.7543c0.1741,0,0.4003,0.0396,0.4895,0.2279c0.22,0.465,1.2453,1.1481,1.8993,1.3604C10.7173,16.4904,11.0748,16.7864,10.639,18.7897zM10.4,11.9999c0,-0.8823,0.7177,-1.6,1.6,-1.6c0.8823,0,1.6001,0.7177,1.6001,1.6c0,0.8823,-0.7177,1.6001,-1.6001,1.6001C11.1178,13.5999,10.4,12.8822,10.4,11.9999zM18.5491,17.8513c-1.0332,1.1798,-1.7953,1.8358,-3.3168,2.3649c-0.215,0.0542,-0.4909,0.1152,-0.7365,0.1152c-0.478,0,-0.9631,-0.1925,-1.2724,-1.5845c-0.2998,-1.5204,-0.086,-2.0938,0.068,-2.3001c0.075,-0.1003,0.1656,-0.1561,0.2696,-0.1658c0.5121,-0.0478,1.5047,-0.7777,1.9278,-1.3194c0.1542,-0.1974,0.309,-0.2779,0.5344,-0.2779c0.3959,0,1.0058,0.2635,1.8606,0.8033c0.6239,0.4117,0.9764,0.8312,1.0477,1.2467C18.9897,17.0727,18.8681,17.428,18.5491,17.8513zM19.3453,12.7915c-0.1458,0,-0.306,-0.0075,-0.4708,-0.0217c-1.5403,-0.1713,-2.0227,-0.5476,-2.1731,-0.7567c-0.0731,-0.1016,-0.0991,-0.2048,-0.0771,-0.3068c0.1084,-0.5029,-0.2892,-1.669,-0.6786,-2.2355c-0.2405,-0.3497,-0.344,-0.8021,1.2213,-2.1261c0.5176,-0.4204,0.977,-0.6335,1.3653,-0.6335c0.4032,0,0.7395,0.2191,1.0895,0.7101c0.8145,1.34,1.211,2.2642,1.2582,3.8743C20.8287,12.1721,20.685,12.7915,19.3453,12.7915z" fill="#9070B1"/>
  </g>
</svg>
