<?xml version="1.0" encoding="UTF-8"?>
<!DOCTYPE svg PUBLIC "-//W3C//DTD SVG 1.1//EN" "http://www.w3.org/Graphics/SVG/1.1/DTD/svg11.dtd">
<svg version="1.1" id="Layer_1" xmlns="http://www.w3.org/2000/svg" xmlns:xlink="http://www.w3.org/1999/xlink" x="0px" y="0px" width="24px" height="24px" viewBox="0 0 24 24" enable-background="new 0 0 24 24" xml:space="preserve">
  <g id="icon">
    <path d="M19.764,23.9996c-1.1515,-0.0601,-2.2128,-0.3364,-3.2377,-0.7644c-1.6935,-0.7072,-3.2321,-1.6885,-4.6891,-2.8044c-2.0556,-1.5743,-3.9446,-3.3403,-5.7205,-5.2335c-1.5921,-1.6972,-3.0724,-3.4865,-4.2834,-5.4894C1.0311,8.3811,0.367,6.9841,0.0884,5.4375C0.005,4.9749,-0.042,4.4717,0.0512,4.0209c0.078,-0.3773,0.3494,-0.7338,0.5963,-1.0499c0.7872,-1.0079,1.7353,-1.85,2.7493,-2.6119c0.5048,-0.3794,1.084,-0.4648,1.6713,-0.2228c0.2068,0.0852,0.4199,0.2442,0.546,0.429c1.0704,1.569,2.1143,3.1567,3.1819,4.7277c0.4076,0.5998,0.3229,1.2011,0.0458,1.7895c-0.3392,0.7201,-0.7139,1.4243,-1.1052,2.1165c-0.1397,0.2471,-0.1171,0.4114,0.0576,0.6044c1.0254,1.133,2.0094,2.3082,3.0819,3.3927c0.9189,0.9291,1.93,1.7648,2.9151,2.6242c0.6906,0.6024,0.7031,0.5916,1.4901,0.1381c0.4784,-0.2756,0.9454,-0.5721,1.4289,-0.8378c0.4826,-0.2653,0.9899,-0.4524,1.552,-0.2824c0.1205,0.0365,0.2399,0.092,0.346,0.1607c1.5259,0.9884,3.0341,2.0063,4.5791,2.9626c0.9655,0.5976,1.0084,1.6279,0.4563,2.4257c-0.7691,1.1115,-1.6041,2.175,-2.6581,3.0317C20.6146,23.7203,20.2219,23.9827,19.764,23.9996z" fill="#7B7B7B"/>
  </g>
</svg>
