<?xml version="1.0" encoding="UTF-8"?>
<!DOCTYPE svg PUBLIC "-//W3C//DTD SVG 1.1//EN" "http://www.w3.org/Graphics/SVG/1.1/DTD/svg11.dtd">
<svg version="1.1" id="Layer_1" xmlns="http://www.w3.org/2000/svg" xmlns:xlink="http://www.w3.org/1999/xlink" x="0px" y="0px" width="24px" height="24px" viewBox="0 0 24 24" enable-background="new 0 0 24 24" xml:space="preserve">
  <g id="icon">
    <path d="M13.6295,1.0729c-0.1648,-0.0373,-0.3285,0.0119,-0.4447,0.1281L6.5857,7H0v10h6.5857l6.5991,5.899c0.1162,0.1162,0.2799,0.1654,0.4447,0.1281c0.2213,-0.0501,0.3705,-0.2583,0.3705,-0.4852c0,-2.1935,0,-18.7904,0,-20.9839C14,1.3312,13.8508,1.1229,13.6295,1.0729z" fill="#6485C3"/>
    <path d="M20.6198,20.017c-0.0741,0,-0.1438,-0.0288,-0.1962,-0.081l-0.526,-0.524c-0.1067,-0.1063,-0.1107,-0.2753,-0.009,-0.3849c3.6449,-3.9265,3.6449,-10.0779,0,-14.0044c-0.1017,-0.1095,-0.0977,-0.2786,0.009,-0.3849l0.526,-0.524c0.0524,-0.0522,0.1221,-0.081,0.1962,-0.081c0.0796,0,0.1535,0.0323,0.2082,0.0909c4.127,4.4305,4.127,11.3717,0,15.8022C20.7741,19.9839,20.6982,20.017,20.6198,20.017zM18.5187,17.9117c-0.0737,0,-0.1433,-0.0284,-0.1958,-0.0799l-0.5299,-0.5203c-0.1058,-0.1039,-0.1113,-0.2725,-0.0125,-0.3837c2.4836,-2.795,2.4836,-7.0104,0,-9.8055c-0.0988,-0.1113,-0.0934,-0.2798,0.0125,-0.3837l0.5299,-0.5203c0.0525,-0.0515,0.122,-0.0799,0.1958,-0.0799c0.08,0,0.1565,0.0342,0.2098,0.0937c1.4181,1.5827,2.199,3.64,2.199,5.793s-0.781,4.2103,-2.199,5.7929C18.6752,17.8775,18.5987,17.9117,18.5187,17.9117zM16.3428,15.7426c-0.0767,0,-0.1483,-0.0301,-0.2018,-0.0849l-0.52,-0.5327c-0.1018,-0.1043,-0.1052,-0.2677,-0.0078,-0.38c0.6574,-0.7577,1.0194,-1.7237,1.0194,-2.72s-0.3621,-1.9623,-1.0194,-2.72c-0.0974,-0.1123,-0.094,-0.2757,0.0078,-0.38l0.52,-0.5327c0.0535,-0.0548,0.1251,-0.0849,0.2018,-0.0849c0.0795,0,0.152,0.0322,0.2042,0.0907c0.8936,1.0023,1.3857,2.2903,1.3857,3.6269s-0.4921,2.6246,-1.3857,3.6269C16.4948,15.7104,16.4223,15.7426,16.3428,15.7426z" fill="#6D6E71"/>
  </g>
</svg>
