<?xml version="1.0" encoding="UTF-8"?>
<!DOCTYPE svg PUBLIC "-//W3C//DTD SVG 1.1//EN" "http://www.w3.org/Graphics/SVG/1.1/DTD/svg11.dtd">
<svg version="1.1" id="Layer_1" xmlns="http://www.w3.org/2000/svg" xmlns:xlink="http://www.w3.org/1999/xlink" x="0px" y="0px" width="24px" height="24px" viewBox="0 0 24 24" enable-background="new 0 0 24 24" xml:space="preserve">
  <g id="icon">
    <path d="M20.8048,5.3H3.1952C1.9878,5.3,1,6.3514,1,7.6364v10.8271C1,19.7486,1.9878,20.8,3.1952,20.8h17.6096C22.0122,20.8,23,19.7486,23,18.4636V7.6364C23,6.3514,22.0122,5.3,20.8048,5.3z" fill="#FFFFFF" opacity="0.5"/>
    <polygon points="12.0786,5.8132 8.6319,2.5716 9.6275,1.4684 12.0232,3.7216 15.6147,-0.0424 16.6672,1.0043" fill="#7B7B7B" stroke-linejoin="miter"/>
    <path d="M19.9642,24l-1.7848,-2.7919l1.2675,-0.7589L21.6487,24H19.9642zM3.895,24l1.9125,-2.7657l-1.2358,-0.8114L2.1479,24H3.895z" fill="#7B7B7B"/>
    <path d="M3.1789,22C1.4261,22,0,20.5033,0,18.6636V7.3364C0,5.4967,1.4261,4,3.1789,4h17.6422C22.5739,4,24,5.4967,24,7.3364v11.3271C24,20.5033,22.5739,22,20.8211,22H3.1789zM3.2208,6C2.5476,6,2,6.5995,2,7.3364v11.3271C2,19.4005,2.5476,20,3.2208,20h17.6584c0.6732,0,1.2208,-0.5995,1.2208,-1.3364V7.3364C22.1,6.5995,21.5524,6,20.8792,6H3.2208z" fill="#7B7B7B"/>
    <path d="M12.0978,19H8.9022C4.6548,19,3,17.4043,3,13.3088v-0.6176C3,8.6488,4.71,7,8.9022,7h3.1955C16.4003,7,18,8.5425,18,12.6912v0.6176C18,17.4043,16.3452,19,12.0978,19zM8.9098,8.5c-3.2974,0,-4.3027,0.9792,-4.3027,4.1912v0.6176c0,3.2903,0.9249,4.1912,4.3027,4.1912h3.1803c3.3778,0,4.3027,-0.9009,4.3027,-4.1912v-0.6176c0,-3.3294,-0.8847,-4.1912,-4.3027,-4.1912H8.9098z" fill="#9070B1"/>
    <path d="M21,9h-2V8h2V9zM21,11h-2v-1h2V11zM21,13h-2v-1h2V13zM21,15h-2v-1h2V15zM21,18h-2v-1h2V18z" fill="#787979"/>
  </g>
</svg>
