<?xml version="1.0" encoding="UTF-8"?>
<!DOCTYPE svg PUBLIC "-//W3C//DTD SVG 1.1//EN" "http://www.w3.org/Graphics/SVG/1.1/DTD/svg11.dtd">
<svg version="1.1" id="Layer_1" xmlns="http://www.w3.org/2000/svg" xmlns:xlink="http://www.w3.org/1999/xlink" x="0px" y="0px" width="16px" height="16px" viewBox="0 0 16 16" enable-background="new 0 0 16 16" xml:space="preserve">
  <g id="icon">
    <path d="M10.3339,13.6657c0,1.4166,-1.1754,2.34,-2.5364,2.34c-1.361,0,-2.5004,-0.9234,-2.5004,-2.34" fill="#6D6E71"/>
    <path d="M6.581,2.4248c-0.0088,-0.0678,-0.0149,-0.1364,-0.0149,-0.2066c0,-0.848,0.6604,-1.5354,1.4751,-1.5354c0.8147,0,1.4751,0.6874,1.4751,1.5354c0,0.0904,-0.009,0.1785,-0.0234,0.2646c1.6826,0.5978,2.8814,2.144,2.8814,3.9578c0,1.9193,1.7837,4.4081,2.8405,5.5565c0.2585,0.2809,0.0779,0.5173,-0.3708,0.7142L5.2376,3.1048C5.6366,2.8092,6.0899,2.577,6.581,2.4248zM3.5882,5.721c-0.0421,0.2339,-0.0646,0.4741,-0.0646,0.7195c0,2.687,-1.76,4.3248,-2.7477,5.6046c-0.9965,1.0436,5.212,1.5059,7.2191,1.5059c0.7166,0,1.9767,-0.0518,3.2526,-0.1705L3.5882,5.721z" fill="#FFFFFF" opacity="0.4"/>
    <path d="M11.663,13.7958C10.2768,13.9355,8.8404,14,7.9951,14c-0.9729,0,-2.7677,-0.1005,-4.3155,-0.2925c-3.2396,-0.402,-3.4773,-0.9513,-3.605,-1.2464c-0.1306,-0.3016,-0.0664,-0.6284,0.1759,-0.8968c0.16,-0.2034,0.3272,-0.4028,0.5042,-0.6138c0.9547,-1.1387,2.143,-2.5558,2.143,-4.6267c0,-0.3923,0.051,-0.7765,0.1469,-1.1463l1.0028,1.0028c-0.002,0.0476,-0.0031,0.0955,-0.0031,0.1435c0,2.4793,-1.391,4.1383,-2.4067,5.3496c-0.0824,0.0982,-0.1625,0.1938,-0.2394,0.2868l-0.091,0.1101l0.1357,0.0475c0.3752,0.1312,1.1411,0.3243,2.6588,0.4988c1.4964,0.172,3.0672,0.2504,3.8934,0.2504c0.6112,0,1.5883,-0.0373,2.6224,-0.1165L11.663,13.7958zM5.5623,3.4295c0.3454,-0.2491,0.7393,-0.4474,1.1717,-0.5798l0.4607,-0.1411l-0.0619,-0.4727c-0.0071,-0.0539,-0.0103,-0.0964,-0.0103,-0.134c0,-0.5341,0.4123,-0.9686,0.9191,-0.9686s0.9191,0.4345,0.9191,0.9686c0,0.0524,-0.0052,0.1084,-0.0158,0.171l-0.0794,0.4685l0.4529,0.159c1.5156,0.5322,2.5339,1.908,2.5339,3.4234c0,1.8237,1.4249,4.1106,2.7584,5.6426l0.0947,0.1088l-0.1361,0.0501c-0.065,0.0239,-0.143,0.0498,-0.2343,0.0771l0.879,0.879c0.4457,-0.2045,0.619,-0.4169,0.708,-0.6173c0.1417,-0.3192,0.0667,-0.6811,-0.2005,-0.9682c-1.0944,-1.1753,-2.7225,-3.5227,-2.7225,-5.1722c0,-1.8174,-1.1148,-3.5076,-2.8401,-4.306l-0.0535,-0.0248l-0.0045,-0.0581C10.0168,0.8499,9.1123,0,8.0417,0C6.9951,0,6.1132,0.7967,5.9903,1.8532l-0.0068,0.0583l-0.0548,0.0226c-0.4314,0.1777,-0.8265,0.4089,-1.1794,0.6824L5.5623,3.4295z" fill="#EEAC55"/>
    <rect x="7.5374" y="-2.0005" width="1.371" height="20.4468" fill="#CB525D" transform="matrix(0.7071 -0.7071 0.7071 0.7071 -3.40604 8.2229)"/>
  </g>
</svg>
