<?xml version="1.0" encoding="UTF-8"?>
<!DOCTYPE svg PUBLIC "-//W3C//DTD SVG 1.1//EN" "http://www.w3.org/Graphics/SVG/1.1/DTD/svg11.dtd">
<svg version="1.1" id="Layer_1" xmlns="http://www.w3.org/2000/svg" xmlns:xlink="http://www.w3.org/1999/xlink" x="0px" y="0px" width="16px" height="16px" viewBox="0 0 16 16" enable-background="new 0 0 16 16" xml:space="preserve">
  <g id="icon">
    <path d="M4.3806,12.5H0.5V1.5h14v10.9372l-1.2634,-1.2634c0.4447,-0.8148,0.6766,-1.7233,0.6766,-2.6696C13.9132,5.414,11.3981,2.9,8.3066,2.9S2.7,5.414,2.7,8.5042C2.7,10.0674,3.3443,11.4825,4.3806,12.5z" fill="#FFFFFF" opacity="0.5"/>
    <path d="M4.9632,13H0V1h15v11.9372l-1,-1V2H1v10h2.9292C4.23,12.3755,4.5771,12.7123,4.9632,13z" fill="#6D6E71"/>
    <path d="M12.5373,15H2v-1h5.2098c0.3549,0.0707,0.7215,0.1084,1.0969,0.1084c0.3733,0,0.7404,-0.0375,1.0986,-0.1084h2.132L12.5373,15z" fill="#6D6E71"/>
    <path d="M4.3,8.5042C4.3,6.2927,6.0938,4.5,8.3066,4.5s4.0066,1.7927,4.0066,4.0042s-1.7938,4.0042,-4.0066,4.0042S4.3,10.7156,4.3,8.5042z" fill="#FFFFFF" opacity="0.5"/>
    <path d="M14.8757,15.9243l-3.7675,-3.7675c-0.7768,0.5966,-1.7484,0.9517,-2.8016,0.9517C5.7666,13.1084,3.7,11.043,3.7,8.5042S5.7666,3.9,8.3066,3.9s4.6066,2.0654,4.6066,4.6042c0,1.0546,-0.3567,2.0276,-0.9557,2.8048l3.7667,3.7667L14.8757,15.9243zM8.3066,5.1C6.4282,5.1,4.9,6.6271,4.9,8.5042s1.5282,3.4042,3.4066,3.4042s3.4066,-1.5271,3.4066,-3.4042S10.1851,5.1,8.3066,5.1z" fill="#6485C3"/>
  </g>
</svg>
