<?xml version="1.0" encoding="UTF-8"?>
<!DOCTYPE svg PUBLIC "-//W3C//DTD SVG 1.1//EN" "http://www.w3.org/Graphics/SVG/1.1/DTD/svg11.dtd">
<svg version="1.1" id="Layer_1" xmlns="http://www.w3.org/2000/svg" xmlns:xlink="http://www.w3.org/1999/xlink" x="0px" y="0px" width="16px" height="16px" viewBox="0 0 16 16" enable-background="new 0 0 16 16" xml:space="preserve">
  <g id="icon">
    <polygon points="14,15 3,15 3,1 10,1 10,5.0125 14,5" fill="#FFFFFF" stroke-linejoin="miter" opacity="0.4"/>
    <polygon points="10.3625,0 2,0 2,6 3,6 3,1 10,1 10,5.0125 14,5 14,15 9,15 9,16 15,16 15,4.65" fill="#6D6E71" stroke-linejoin="miter"/>
    <path d="M8,10H4V9h4V10zM8,8H4V7h4V8zM8,11H0v1h8V11zM8,13H0v1h8V13zM6,15H0v1h6V15z" fill="#6485C3"/>
    <rect y="7" width="3" height="3" fill="#6485C3" opacity="0.5"/>
  </g>
</svg>
