<?xml version="1.0" encoding="UTF-8"?>
<!DOCTYPE svg PUBLIC "-//W3C//DTD SVG 1.1//EN" "http://www.w3.org/Graphics/SVG/1.1/DTD/svg11.dtd">
<svg version="1.1" id="Layer_1" xmlns="http://www.w3.org/2000/svg" xmlns:xlink="http://www.w3.org/1999/xlink" x="0px" y="0px" width="16px" height="16px" viewBox="0 0 16 16" enable-background="new 0 0 16 16" xml:space="preserve">
  <g id="icon">
    <polygon points="14,15 3,15 3,1 10,1 10,5.0125 14,5" fill="#FFFFFF" stroke-linejoin="miter" opacity="0.4"/>
    <polygon points="10.3625,0 2,0 2,6 3,6 3,1 10,1 10,5.0125 14,5 14,15 9,15 9,16 15,16 15,4.65" fill="#6D6E71" stroke-linejoin="miter"/>
    <path d="M4.5321,7.065c0.1849,0.0345,0.3643,0.082,0.5374,0.1413c-1.1729,3.4839,-1.1941,3.7121,-1.1941,3.7121S3.6931,10.927,0,10.6694c0.0096,-0.1541,0.0282,-0.3093,0.0563,-0.4649C0.4398,8.0806,2.4437,6.675,4.5321,7.065z" fill="#52B4C0"/>
    <path d="M7.6493,14.6402c0.6709,-0.8481,0.9921,-1.9752,0.7916,-3.1314c-0.2462,-1.4196,-1.2166,-2.5242,-2.4567,-2.9903c-0.4599,1.6452,-1.2298,3.7791,-1.2298,3.7791s-1.556,-0.103,-3.8435,-0.3019c-0.0243,1.0318,0.3507,2.0716,1.125,2.8591c1.5014,1.5269,3.9357,1.5269,5.4371,0C7.5372,14.7895,7.6062,14.7103,7.6493,14.6402z" fill="#6485C3"/>
  </g>
</svg>
