<?xml version="1.0" encoding="UTF-8"?>
<!DOCTYPE svg PUBLIC "-//W3C//DTD SVG 1.1//EN" "http://www.w3.org/Graphics/SVG/1.1/DTD/svg11.dtd">
<svg version="1.1" id="Layer_1" xmlns="http://www.w3.org/2000/svg" xmlns:xlink="http://www.w3.org/1999/xlink" x="0px" y="0px" width="16px" height="16px" viewBox="0 0 16 16" enable-background="new 0 0 16 16" xml:space="preserve">
  <g id="icon">
    <path d="M7.9694,0.585C5.0543,0.585,2.69,2.9406,2.69,5.9896c0,1.7459,1.1791,3.0885,1.1791,3.0885c0.4439,0.5746,0.8702,1.901,0.8702,2.6411v0.4277c0,0.7394,0.7624,1.3081,1.4694,1.3081h3.4817c0.7064,0,1.5321,-0.5687,1.5321,-1.3081v-0.3495c0,-0.7379,0.3713,-2.0572,0.8261,-2.6239c0,0,1.2613,-1.39,1.2613,-3.1838C13.31,2.9406,10.8852,0.585,7.9694,0.585z" fill="#FFFFFF" opacity="0.5"/>
    <path d="M9.6905,14H6.2087c-0.9741,0,-2.0594,-0.7753,-2.0594,-1.8877v-0.4265c0,-0.6208,-0.3857,-1.7998,-0.7403,-2.2679C3.2552,9.2372,2.1,7.8198,2.1,5.9726C2.1,2.6235,4.6781,0,7.9694,0C11.2395,0,13.9,2.6793,13.9,5.9726c0,1.9021,-1.2384,3.3676,-1.3978,3.5483c-0.3367,0.4294,-0.6897,1.5745,-0.6897,2.2429v0.3486C11.8125,13.1927,10.6922,14,9.6905,14zM7.9694,1.1667c-2.6296,0,-4.6894,2.111,-4.6894,4.8059c0,1.491,1.0248,2.686,1.0352,2.6979l0.0223,0.0271c0.5098,0.658,0.9918,2.1103,0.9918,2.9883v0.4265c0,0.3883,0.4835,0.721,0.8794,0.721h3.4817c0.4113,0,0.942,-0.3497,0.942,-0.721v-0.3486c0,-0.8469,0.4082,-2.3011,0.9545,-2.9796l0.023,-0.0269c0.01,-0.0112,1.1099,-1.2513,1.1099,-2.7846C12.72,3.3226,10.5889,1.1667,7.9694,1.1667z" fill="#EEAC55"/>
    <path d="M10.5,15.5L10.5,15.5c0,-0.2761,-0.2239,-0.5,-0.5,-0.5H6c-0.2761,0,-0.5,0.2239,-0.5,0.5l0,0c0,0.2761,0.2239,0.5,0.5,0.5h4C10.2761,16,10.5,15.7761,10.5,15.5z" fill="#EEAC55"/>
  </g>
</svg>
