<?xml version="1.0" encoding="UTF-8"?>
<!DOCTYPE svg PUBLIC "-//W3C//DTD SVG 1.1//EN" "http://www.w3.org/Graphics/SVG/1.1/DTD/svg11.dtd">
<svg version="1.1" id="Layer_1" xmlns="http://www.w3.org/2000/svg" xmlns:xlink="http://www.w3.org/1999/xlink" x="0px" y="0px" width="16px" height="16px" viewBox="0 0 16 16" enable-background="new 0 0 16 16" xml:space="preserve">
  <g id="icon">
    <path d="M4.4388,1.8058C5.0365,0.7299,6.1844,0,7.5,0c1.9299,0,3.5,1.5701,3.5,3.5v5c0,0.1092,-0.0057,0.2171,-0.0155,0.3238L4.4388,1.8058zM4,7.1562V8.5c0,1.9299,1.5701,3.5,3.5,3.5c0.3134,0,0.617,-0.042,0.9062,-0.1196L4,7.1562z" fill="#6D6E71"/>
    <path d="M8,15h3v1H4v-1h3v-0.9808C4.2155,13.7438,2.0328,11.3736,2.0328,8.5h1c0,2.5067,2.0233,4.546,4.5104,4.546c0.5822,0,1.138,-0.1156,1.6483,-0.3236l0.7263,0.7787c-0.5961,0.2908,-1.2435,0.4705,-1.9178,0.5262V15zM12.6119,10.5686C12.866,9.9202,13,9.2211,13,8.5h-1c0,0.4272,-0.0593,0.8404,-0.1679,1.2327L12.6119,10.5686z" fill="#6D6E71"/>
    <polygon points="13.9672,15.9367 0.1091,1.0786 1.0786,0.1091 14.9367,14.9672" fill="#CB525D" stroke-linejoin="miter"/>
  </g>
</svg>
