<?xml version="1.0" encoding="UTF-8"?>
<!DOCTYPE svg PUBLIC "-//W3C//DTD SVG 1.1//EN" "http://www.w3.org/Graphics/SVG/1.1/DTD/svg11.dtd">
<svg version="1.1" id="Layer_1" xmlns="http://www.w3.org/2000/svg" xmlns:xlink="http://www.w3.org/1999/xlink" x="0px" y="0px" width="16px" height="16px" viewBox="0 0 16 16" enable-background="new 0 0 16 16" xml:space="preserve">
  <g id="icon">
    <path d="M14.9291,12.6131c-0.3514,-1.841,-0.9764,-1.8717,-4.3943,-3.1247c-0.499,-0.1946,-0.64,-0.4745,-0.6026,-0.8741c0.9641,-1.1963,1.545,-3.1317,1.545,-4.4846c0,-2.0952,-0.6887,-3.4224,-3.5099,-3.4224c-0.0116,0,0.0038,0,0,0c-2.8212,0,-3.4532,1.3272,-3.4532,3.4224c0,1.3529,0.5786,3.2845,1.5427,4.4809c0.0374,0.3996,-0.1047,0.6814,-0.6037,0.876c-3.4179,1.253,-4.0435,1.2846,-4.3949,3.1256c-0.1057,0.74,-0.1232,1.0502,0.1581,1.8702c0.3166,0.923,4.792,0.8022,6.751,0.8022c0.0079,0,-0.0134,0,0,0c1.959,0,6.4869,0.1212,6.8035,-0.8018C15.052,13.6629,15.0347,13.3531,14.9291,12.6131z" fill="#FFFFFF" opacity="0.5"/>
    <path d="M9.2632,15.9888c-0.2186,0,-0.4435,-0.0006,-0.6751,-0.0019c-0.2259,-0.0012,-0.4345,-0.0023,-0.62,-0.0023c-0.1871,0,-0.395,0.0011,-0.6197,0.0022c-4.3883,0.0234,-6.4097,-0.156,-6.7943,-1.2773c-0.3228,-0.9408,-0.3068,-1.3706,-0.1889,-2.1963l0.0054,-0.0323c0.3906,-2.0462,1.2719,-2.3637,3.8881,-3.306c0.2888,-0.104,0.6033,-0.2173,0.946,-0.3429c0.0461,-0.0182,0.0803,-0.0348,0.1053,-0.0486c-0.983,-1.3798,-1.4959,-3.3426,-1.4959,-4.6537c0,-1.9185,0.472,-4.1205,4.1487,-4.1224l0,0c0.0015,0,0.0031,0,0.0044,0c3.7741,0.0017,4.2099,2.3534,4.2099,4.1224c0,1.3114,-0.5135,3.2751,-1.4976,4.6566c0.0249,0.0136,0.0585,0.0298,0.1036,0.0476c0.3438,0.126,0.6593,0.2396,0.9489,0.3439c2.6137,0.9413,3.4941,1.2584,3.8846,3.304l0.0054,0.0323c0.1178,0.825,0.1337,1.2546,-0.1892,2.1958C15.0684,15.7725,13.2192,15.9888,9.2632,15.9888zM7.9672,14.5846c0.1912,0,0.4011,0.0011,0.6282,0.0023c0.9629,0.0049,2.2815,0.012,3.4237,-0.0605c1.5175,-0.0963,1.9917,-0.2887,2.1199,-0.3609c0.2022,-0.6111,0.1868,-0.8233,0.0993,-1.4372c-0.2297,-1.199,-0.3518,-1.2864,-2.9807,-2.2332c-0.294,-0.1059,-0.6144,-0.2213,-0.9639,-0.3494l-0.0134,-0.0051c-0.9521,-0.3713,-1.0939,-1.0704,-1.0452,-1.5914l0.0196,-0.2099l0.1323,-0.1642c0.9029,-1.1204,1.3901,-2.9205,1.3901,-4.0454c0,-1.7655,-0.4479,-2.7223,-2.8096,-2.7224c-2.3276,0.0001,-2.7535,0.9169,-2.7535,2.7224c0,1.1245,0.4864,2.9231,1.3878,4.0417l0.1323,0.1642l0.0196,0.2099c0.0488,0.5217,-0.0932,1.2216,-1.0464,1.5933l-0.0134,0.005c-0.3483,0.1277,-0.6677,0.2427,-0.9608,0.3483c-2.6322,0.9481,-2.7545,1.0356,-2.9843,2.2353c-0.0876,0.615,-0.103,0.8273,0.0996,1.4392c0.1262,0.0718,0.5947,0.2635,2.0957,0.3597c1.131,0.0725,2.4408,0.0657,3.397,0.0606c0.226,-0.0012,0.4351,-0.0023,0.6216,-0.0023l0,0l0,0l0,0C7.9641,14.5847,7.9658,14.5847,7.9672,14.5846L7.9672,14.5846z" fill="#6485C3"/>
  </g>
</svg>
