<?xml version="1.0" encoding="UTF-8"?>
<!DOCTYPE svg PUBLIC "-//W3C//DTD SVG 1.1//EN" "http://www.w3.org/Graphics/SVG/1.1/DTD/svg11.dtd">
<svg version="1.1" id="Layer_1" xmlns="http://www.w3.org/2000/svg" xmlns:xlink="http://www.w3.org/1999/xlink" x="0px" y="0px" width="16px" height="16px" viewBox="0 0 16 16" enable-background="new 0 0 16 16" xml:space="preserve">
  <g id="icon">
    <rect x="0.5" y="4" width="15" height="11.5" fill="#FFFFFF" opacity="0.5"/>
    <polygon points="15,4 15,15 1,15 1,4 0,4 0,16 16,16 16,4" fill="#6D6E71" stroke-linejoin="miter"/>
    <rect y="1" width="16" height="3" fill="#52B250"/>
    <path d="M7,13H5v-1h2V13zM4,13H2v-2h2V13zM14,10h-2V9h2V10zM11,10H9V8h2V10zM7,10H5V9h2V10zM4,10H2V8h2V10zM14,7h-2V6h2V7zM11,7H9V5h2V7zM7,7H5V6h2V7zM4,7H2V5h2V7z" fill="#6D6E71"/>
  </g>
</svg>
