<?xml version="1.0" encoding="UTF-8"?>
<!DOCTYPE svg PUBLIC "-//W3C//DTD SVG 1.1//EN" "http://www.w3.org/Graphics/SVG/1.1/DTD/svg11.dtd">
<svg version="1.1" id="Layer_1" xmlns="http://www.w3.org/2000/svg" xmlns:xlink="http://www.w3.org/1999/xlink" x="0px" y="0px" width="16px" height="16px" viewBox="0 0 16 16" enable-background="new 0 0 16 16" xml:space="preserve">
  <g id="icon">
    <path d="M14,15V0H1v15H0v1h1h5v-3h3v3h0.5h4.5h1v-1H14zM4,13H3v-1h1V13zM4,11H3v-1h1V11zM4,9H3V8h1V9zM4,7H3V6h1V7zM4,5H3V4h1V5zM4,3H3V2h1V3zM6,11H5v-1h1V11zM6,9H5V8h1V9zM6,7H5V6h1V7zM6,5H5V4h1V5zM6,3H5V2h1V3zM8,11H7v-1h1V11zM8,9H7V8h1V9zM8,7H7V6h1V7zM8,5H7V4h1V5zM8,3H7V2h1V3zM10,11H9v-1h1V11zM10,9H9V8h1V9zM10,7H9V6h1V7zM10,5H9V4h1V5zM10,3H9V2h1V3zM12,13h-1v-1h1V13zM12,11h-1v-1h1V11zM12,9h-1V8h1V9zM12,7h-1V6h1V7zM12,5h-1V4h1V5zM12,3h-1V2h1V3z" fill="#6485C3"/>
    <path d="M9,16H6v-3h3V16z" fill="#FFFFFF" opacity="0.5"/>
    <path d="M3,2h1v1H3V2zM3,5h1V4H3V5zM3,7h1V6H3V7zM3,9h1V8H3V9zM3,11h1v-1H3V11zM3,13h1v-1H3V13zM5,3h1V2H5V3zM5,5h1V4H5V5zM5,7h1V6H5V7zM5,9h1V8H5V9zM5,11h1v-1H5V11zM7,3h1V2H7V3zM7,5h1V4H7V5zM7,7h1V6H7V7zM7,9h1V8H7V9zM7,11h1v-1H7V11zM9,3h1V2H9V3zM9,5h1V4H9V5zM9,7h1V6H9V7zM9,9h1V8H9V9zM9,11h1v-1H9V11zM11,2v1h1V2H11zM11,5h1V4h-1V5zM11,7h1V6h-1V7zM11,9h1V8h-1V9zM11,11h1v-1h-1V11zM11,13h1v-1h-1V13z" fill="#FFFFFF" opacity="0.5"/>
  </g>
</svg>
