<?xml version="1.0" encoding="UTF-8"?>
<!DOCTYPE svg PUBLIC "-//W3C//DTD SVG 1.1//EN" "http://www.w3.org/Graphics/SVG/1.1/DTD/svg11.dtd">
<svg version="1.1" id="Layer_1" xmlns="http://www.w3.org/2000/svg" xmlns:xlink="http://www.w3.org/1999/xlink" x="0px" y="0px" width="16px" height="16px" viewBox="0 0 16 16" enable-background="new 0 0 16 16" xml:space="preserve">
  <g id="icon">
    <path d="M15,15V7h-0.5h-0.5h-4v1H8v1H6v1H3h-0.5h-0.5v5H1v1h7v-3h1v3h7v-1H15zM5,14H4v-1h1V14zM5,12H4v-1h1V12zM7,12H6v-1h1V12zM9,12H8v-1h1V12zM11,12h-1v-1h1V12zM11,10h-1V9h1V10zM13,14h-1v-1h1V14zM13,12h-1v-1h1V12zM13,10h-1V9h1V10z" fill="#6D6E71"/>
    <path d="M11,9v1h-1V9H11zM12,9v1h1V9H12zM6,11v1h1v-1H6zM4,11v1h1v-1H4zM8,11v1h1v-1H8zM10,11v1h1v-1H10zM12,11v1h1v-1H12zM4,13v1h1v-1H4zM12,13v1h1v-1H12z" fill="#FFFFFF" opacity="0.5"/>
    <rect x="2" y="2" width="1" height="7" fill="#6E6F72"/>
    <rect x="6" width="1" height="8" fill="#6E6F72"/>
    <rect x="14" width="1" height="6" fill="#6E6F72"/>
    <rect x="10" width="1" height="6" fill="#6E6F72"/>
    <rect x="2.5" y="3" width="12" height="1" fill="#6E6F72"/>
    <rect x="2.5" y="6" width="6.5" height="1" fill="#6E6F72"/>
  </g>
</svg>
