<?xml version="1.0" encoding="UTF-8"?>
<!DOCTYPE svg PUBLIC "-//W3C//DTD SVG 1.1//EN" "http://www.w3.org/Graphics/SVG/1.1/DTD/svg11.dtd">
<svg version="1.1" id="Layer_1" xmlns="http://www.w3.org/2000/svg" xmlns:xlink="http://www.w3.org/1999/xlink" x="0px" y="0px" width="16px" height="16px" viewBox="0 0 16 16" enable-background="new 0 0 16 16" xml:space="preserve">
  <g id="icon">
    <line x1="7.6554" y1="1.5927" x2="6.8081" y2="3.018" fill="#FFFFFF"/>
    <path d="M6.8076,3.5181c-0.0869,0,-0.1749,-0.0227,-0.255,-0.0703c-0.2374,-0.1411,-0.3154,-0.4479,-0.1743,-0.6853l0.8473,-1.4252c0.1411,-0.2373,0.4479,-0.3155,0.6853,-0.1743c0.2374,0.1411,0.3154,0.4479,0.1743,0.6853l-0.8473,1.4252C7.1444,3.4307,6.9782,3.5181,6.8076,3.5181z" fill="#6D6E71"/>
    <line x1="8.1331" y1="4.2357" x2="9.4817" y2="3.2693" fill="#FFFFFF"/>
    <path d="M8.1335,4.7358c-0.1558,0,-0.3092,-0.0726,-0.4068,-0.2088c-0.1609,-0.2245,-0.1093,-0.5368,0.1151,-0.6977l1.3486,-0.9665c0.2244,-0.1609,0.5369,-0.1092,0.6977,0.1151c0.1609,0.2245,0.1093,0.5368,-0.1151,0.6977l-1.3486,0.9665C8.3362,4.7054,8.2343,4.7358,8.1335,4.7358z" fill="#6D6E71"/>
    <line x1="5.299" y1="2.4622" x2="5.5677" y2="0.8343" fill="#FFFFFF"/>
    <path d="M5.2996,2.9623c-0.0271,0,-0.0544,-0.0022,-0.082,-0.0068c-0.2725,-0.045,-0.4568,-0.3023,-0.4119,-0.5748l0.2688,-1.6279c0.045,-0.2724,0.3021,-0.457,0.5748,-0.4119c0.2725,0.045,0.4568,0.3023,0.4119,0.5748l-0.2688,1.6279C5.7519,2.7885,5.5399,2.9623,5.2996,2.9623z" fill="#6D6E71"/>
    <g>
      <path d="M0.4698,5.3162l3.5094,-1.8951l-0.1691,-0.3097c-0.2623,-0.4809,-0.8689,-0.6604,-1.3521,-0.4003L0.7036,3.6552c-0.2355,0.1268,-0.4071,0.3375,-0.4831,0.5933c-0.0758,0.2551,-0.0473,0.5243,0.0803,0.7581L0.4698,5.3162z" fill="#9171B2"/>
      <path d="M7.2907,5.747c-0.6085,-1.1147,-1.7035,-1.8301,-2.957,-1.9491L0.5454,5.8436c-0.5546,1.0906,-0.5299,2.3813,0.0783,3.4956c0.664,1.2165,1.9425,1.9722,3.3366,1.9722c0.6259,0,1.2494,-0.1575,1.8031,-0.4555c0.8931,-0.4807,1.5433,-1.2785,1.8309,-2.2464C7.8804,7.6463,7.7726,6.6298,7.2907,5.747z" fill="#9171B2"/>
    </g>
    <line x1="0.45" y1="1.1614" x2="1.8178" y2="3.6234" fill="#9171B2"/>
    <rect x="0.6339" y="0.9842" width="1" height="2.8164" fill="#9171B2" transform="matrix(0.8741 -0.4857 0.4857 0.8741 -1.01919 0.85179)"/>
    <path d="M13,13H8v-2h5V13zM2,16h2v-2H2V16zM5,16h5v-2H5V16zM7,11.2274c-0.235,0.1913,-0.4896,0.3622,-0.7626,0.5091c-0.6988,0.3761,-1.4862,0.575,-2.277,0.575c-0.6886,0,-1.354,-0.148,-1.9604,-0.4181V13h5V11.2274zM8.7199,7H13V5H9.6417l-0.6349,0.455c-0.1876,0.1345,-0.4,0.2221,-0.6239,0.2596C8.5568,6.129,8.6692,6.561,8.7199,7zM8.5529,8.8942c-0.1167,0.393,-0.2812,0.7634,-0.4872,1.1058H10V8H8.728C8.6984,8.2998,8.6406,8.599,8.5529,8.8942zM11,2v2h5V2H11zM14,7h2V5h-2V7zM14,13h2v-2h-2V13zM11,10h5V8h-5V10zM11,16h5v-2h-5V16z" fill="#6D6E71"/>
  </g>
</svg>
