<?xml version="1.0" encoding="UTF-8"?>
<!DOCTYPE svg PUBLIC "-//W3C//DTD SVG 1.1//EN" "http://www.w3.org/Graphics/SVG/1.1/DTD/svg11.dtd">
<svg version="1.1" id="Layer_1" xmlns="http://www.w3.org/2000/svg" xmlns:xlink="http://www.w3.org/1999/xlink" x="0px" y="0px" width="16px" height="16px" viewBox="0 0 16 16" enable-background="new 0 0 16 16" xml:space="preserve">
  <g id="icon">
    <polygon points="6.0505,9.6 2.4323,9.6 12.1236,1.1497 9.9569,6.4 13.5808,6.4 3.7608,14.8558" fill="#FFFFFF" stroke-linejoin="miter" opacity="0.5"/>
    <path d="M14.3597,6h-3.796l2.4088,-5.8148c0.0467,-0.1088,-0.0852,-0.2063,-0.1755,-0.1298L1.5852,9.7931C1.5017,9.8637,1.5517,10,1.661,10h3.771l-2.5404,5.8129c-0.0511,0.1136,0.0867,0.2181,0.1823,0.1382L14.435,6.2074C14.5192,6.1371,14.4694,6,14.3597,6zM5.379,12.7214L6.9784,9H4.0697l6.4993,-5.7481L9.0466,7h2.8805L5.379,12.7214z" fill="#EEAD56"/>
  </g>
</svg>
