<?xml version="1.0" encoding="UTF-8"?>
<!DOCTYPE svg PUBLIC "-//W3C//DTD SVG 1.1//EN" "http://www.w3.org/Graphics/SVG/1.1/DTD/svg11.dtd">
<svg version="1.1" id="Layer_1" xmlns="http://www.w3.org/2000/svg" xmlns:xlink="http://www.w3.org/1999/xlink" x="0px" y="0px" width="16px" height="16px" viewBox="0 0 16 16" enable-background="new 0 0 16 16" xml:space="preserve">
  <g id="icon">
    <polygon points="0,6.8175 0.7168,6.4396 6.4485,9.7051 15.4783,4.1349 16,4.3874 16,5.1049 7,10.6569 7,15.4774 6.1461,16 6,15.8569 6,10.6588 0,7.2969" fill="#FFFFFF" stroke-linejoin="miter" opacity="0.5"/>
    <g>
      <polygon points="0,12.4268 6,15.8569 6,10.6588 0,7.2969" fill="#6485C3" stroke-linejoin="miter"/>
      <polygon points="7,10.6569 7,15.4774 16,9.8577 16,5.1049" fill="#6485C3" stroke-linejoin="miter"/>
      <path d="M10.0347,1.5L0.7168,6.4396l5.7318,3.2655l9.0298,-5.5702L10.0347,1.5zM6.1325,7.4968c-0.8919,0,-1.6149,-0.3987,-1.6149,-0.8905c0,-0.4918,0.723,-0.8905,1.6149,-0.8905s1.6149,0.3987,1.6149,0.8905C7.7474,7.0981,7.0244,7.4968,6.1325,7.4968zM10.1629,5.2234c-0.8919,0,-1.6149,-0.3987,-1.6149,-0.8905s0.723,-0.8905,1.6149,-0.8905s1.6149,0.3987,1.6149,0.8905S11.0548,5.2234,10.1629,5.2234z" fill="#6485C3"/>
    </g>
    <path d="M6.1325,5.7158c0.8919,0,1.6149,0.3987,1.6149,0.8905c0,0.4918,-0.723,0.8905,-1.6149,0.8905s-1.6149,-0.3987,-1.6149,-0.8905C4.5176,6.1145,5.2406,5.7158,6.1325,5.7158zM8.548,4.333c0,0.4918,0.723,0.8905,1.6149,0.8905s1.6149,-0.3987,1.6149,-0.8905s-0.723,-0.8905,-1.6149,-0.8905S8.548,3.8412,8.548,4.333z" fill="#FFFFFF" opacity="0.5"/>
  </g>
</svg>
