<?xml version="1.0" encoding="UTF-8"?>
<!DOCTYPE svg PUBLIC "-//W3C//DTD SVG 1.1//EN" "http://www.w3.org/Graphics/SVG/1.1/DTD/svg11.dtd">
<svg version="1.1" id="Layer_1" xmlns="http://www.w3.org/2000/svg" xmlns:xlink="http://www.w3.org/1999/xlink" x="0px" y="0px" width="16px" height="16px" viewBox="0 0 16 16" enable-background="new 0 0 16 16" xml:space="preserve">
  <g id="icon">
    <path d="M0.0579,6.5828l3.3706,-5.4531C3.4783,1.0491,3.5663,1,3.6611,1h12.0336c0.2173,0,0.3477,0.2411,0.2289,0.423l-3.5632,5.4531c-0.0505,0.0773,-0.1366,0.1239,-0.2289,0.1239H0.2905C0.0763,7,-0.0547,6.765,0.0579,6.5828z" fill="#6486C4"/>
    <path d="M15.6947,5h-0.9138l-1.5833,2.4231c-0.2359,0.3611,-0.6344,0.5769,-1.066,0.5769H1.6543L0.0579,10.5828C-0.0547,10.765,0.0763,11,0.2905,11h11.841c0.0923,0,0.1784,-0.0466,0.2289,-0.1239l3.5632,-5.4531C16.0424,5.2411,15.9119,5,15.6947,5z" fill="#6486C4"/>
    <path d="M15.6947,9h-0.9138l-1.5833,2.4231c-0.2359,0.3611,-0.6344,0.5769,-1.066,0.5769H1.6543L0.0579,14.5828C-0.0547,14.765,0.0763,15,0.2905,15h11.841c0.0923,0,0.1784,-0.0466,0.2289,-0.1239l3.5632,-5.4531C16.0424,9.2411,15.9119,9,15.6947,9z" fill="#6486C4"/>
  </g>
</svg>
