<?xml version="1.0" encoding="UTF-8"?>
<!DOCTYPE svg PUBLIC "-//W3C//DTD SVG 1.1//EN" "http://www.w3.org/Graphics/SVG/1.1/DTD/svg11.dtd">
<svg version="1.1" id="Layer_1" xmlns="http://www.w3.org/2000/svg" xmlns:xlink="http://www.w3.org/1999/xlink" x="0px" y="0px" width="16px" height="16px" viewBox="0 0 16 16" enable-background="new 0 0 16 16" xml:space="preserve">
  <g id="icon">
    <path d="M1.6721,16H0v-1.6721C0.922,14.3279,1.6721,15.078,1.6721,16zM0,11.9441v1.4536c1.4349,0,2.6023,1.1674,2.6023,2.6023h1.4536C4.0559,13.7636,2.2364,11.9441,0,11.9441zM15.2929,0H12.816L8.3866,4.3855l-0.7035,-0.7106L11.3947,0H7.2929l-7.3,7h8.3L15.2929,0zM13.1073,5.9858l-0.7029,-0.7112L16,1.7208V0.7071l-7,7v3.5695l3.1813,-3.1813l0.7071,0.7071L9,12.6909v3.3163l7,-7.3V3.1268L13.1073,5.9858zM0,9c3.8598,0,7,3.1402,7,7h1V8H0V9zM0,9.9302v1.0838c2.7493,0,4.9861,2.2367,4.9861,4.9861h1.0838C6.0698,12.6531,3.3469,9.9302,0,9.9302z" fill="#6486C4"/>
    <path d="M8.3866,4.3855l-0.7035,-0.7106L11.3947,0h1.4213L8.3866,4.3855zM12.8884,8.8024l-0.7071,-0.7071L9,11.2766v1.4143L12.8884,8.8024zM16,1.7208l-3.5957,3.5538l0.7029,0.7112L16,3.1268V1.7208z" fill="#FFFFFF" opacity="0.5"/>
    <polygon points="9,7 9,7.7071 16,0.7071 16,0 15.2929,0 8.2929,7" fill="#FFFFFF" stroke-linejoin="miter" opacity="0.5"/>
    <polygon points="9,16 8,16 8,8 0,8 0,7 9,7" fill="#FFFFFF" stroke-linejoin="miter" opacity="0.5"/>
    <path d="M2.6023,16h-0.9302c0,-0.922,-0.7501,-1.6721,-1.6721,-1.6721v-0.9302C1.4349,13.3977,2.6023,14.5651,2.6023,16zM0,11.0139v0.9302c2.2364,0,4.0559,1.8195,4.0559,4.0559h0.9302C4.9861,13.2507,2.7493,11.0139,0,11.0139zM0,9v0.9302c3.3469,0,6.0698,2.7229,6.0698,6.0698H7C7,12.1402,3.8598,9,0,9z" fill="#FFFFFF" opacity="0.5"/>
  </g>
</svg>
