<?xml version="1.0" encoding="UTF-8"?>
<!DOCTYPE svg PUBLIC "-//W3C//DTD SVG 1.1//EN" "http://www.w3.org/Graphics/SVG/1.1/DTD/svg11.dtd">
<svg version="1.1" id="Layer_1" xmlns="http://www.w3.org/2000/svg" xmlns:xlink="http://www.w3.org/1999/xlink" x="0px" y="0px" width="16px" height="16px" viewBox="0 0 16 16" enable-background="new 0 0 16 16" xml:space="preserve">
  <g id="icon">
    <path d="M3.5103,14.8785l-0.6269,-1.1753C2.8678,13.671,2.5,13.1177,2.5,12.0375V3.1107c0,-0.6309,-0.1286,-0.7669,-1.0296,-1.0322c-0.1061,-0.0312,-0.9373,-0.3222,-0.9539,-0.9082c-0.0051,-0.1786,0.0795,-0.3448,0.238,-0.4678c0.2855,-0.2215,0.5776,-0.2093,0.7661,-0.2033C1.5314,0.4995,1.541,0.4999,1.549,0.5l0.003,0l3.9044,0c0.0027,-0.0001,0.0123,-0.0005,0.023,-0.0008c0.1882,-0.006,0.4806,-0.0181,0.766,0.2033c0.1585,0.123,0.2431,0.2891,0.238,0.4678c-0.0165,0.5861,-0.8478,0.877,-0.9539,0.9083C4.6286,2.3438,4.5,2.4799,4.5,3.1107v8.9268c0,1.0783,-0.3593,1.63,-0.3745,1.6623L3.5103,14.8785z" fill="#FFFFFF" opacity="0.5"/>
    <path d="M3.515,15.95l-1.0705,-2.0072C2.2757,13.6521,2,13.028,2,12.0375V3.1107c0,-0.2559,-0.0267,-0.2958,-0.032,-0.3012c-0.0886,-0.0894,-0.5027,-0.2113,-0.6388,-0.2514c-0.0525,-0.0154,-1.2847,-0.3896,-1.3125,-1.3738c-0.0096,-0.3372,0.1477,-0.6568,0.4313,-0.877c0.4243,-0.3293,0.868,-0.3153,1.0816,-0.3082L1.5522,0l3.8957,0l0.0156,-0.0005c0.2201,-0.0066,0.6641,-0.0213,1.0884,0.3081c0.2837,0.2201,0.4409,0.5397,0.4313,0.877c-0.0278,0.9841,-1.26,1.3583,-1.3124,1.3737c-0.1361,0.0401,-0.5502,0.162,-0.6388,0.2514C5.0267,2.815,5,2.8548,5,3.1107v8.9268c0,0.9906,-0.2712,1.6135,-0.4328,1.8966c0.0019,-0.0034,0.0038,-0.0072,0.0056,-0.0108L3.515,15.95zM4.5776,13.9132l-0.0021,0.0044C4.5763,13.9161,4.577,13.9145,4.5776,13.9132zM3.3246,13.468l0.1809,0.3391l0.1767,-0.3386l0,0c0.0042,-0.0081,0.0097,-0.0181,0.0165,-0.0301c0.0906,-0.1587,0.3013,-0.6127,0.3013,-1.4008V3.1107c0,-0.9943,0.4446,-1.234,1.3884,-1.5118c0.207,-0.0621,0.5906,-0.2774,0.5953,-0.4427c0.0005,-0.0173,-0.0228,-0.0416,-0.0447,-0.0586c-0.1397,-0.1084,-0.284,-0.1037,-0.4367,-0.0989L5.4564,1L1.51,0.9991l0.0038,-0.5001l-0.016,0.4998c-0.1528,-0.0047,-0.297,-0.0095,-0.4366,0.0988c-0.022,0.017,-0.0453,0.0414,-0.0448,0.0585c0.0047,0.1654,0.3882,0.3807,0.5955,0.4429C2.5554,1.8768,3,2.1165,3,3.1107v8.9268c0,0.7879,0.2152,1.2418,0.3077,1.4003C3.3147,13.4499,3.3203,13.46,3.3246,13.468L3.3246,13.468z" fill="#6E6F72"/>
    <polygon points="15.3,0.6 13.5,0.6 13.5,1.4 11.6,1.4 11.6,0.6 9.8,0.6 9.8,2.9 11,2.9 11,12.8 12.5,15.7 14,12.8 14,2.8 15.3,2.8" fill="#FFFFFF" stroke-linejoin="miter" opacity="0.5"/>
    <polygon points="14,7.9766 11,5.9766 11,4.9266 14,6.9266" fill="#6E6F72" stroke-linejoin="miter"/>
    <polygon points="14,9.0266 11,7.0266 11,8.0766 14,10.0766" fill="#6E6F72" stroke-linejoin="miter"/>
    <path d="M12.9975,12.4092c-0.0249,0.5618,-0.2433,0.9481,-0.3131,1.0846c-0.0015,0.003,-0.0029,0.0057,-0.0042,0.0082l-0.1748,0.3349l-0.1789,-0.3353c-0.0012,-0.0024,-0.0026,-0.0051,-0.0042,-0.0081c-0.0756,-0.1448,-0.3225,-0.5829,-0.3225,-1.4262v-0.3232l-1,-0.6667v0.9899c0,1.037,0.3022,1.6318,0.4359,1.8889l1.0791,2.0236l1.0537,-2.0189l0.0061,-0.012c0.0929,-0.1817,0.2747,-0.4984,0.3675,-0.9099L12.9975,12.4092z" fill="#6E6F72"/>
    <path d="M16,0v2.0921c0,0.4387,-0.2465,0.8401,-0.6378,1.0384L14,3.8211v2.2047l-1,-0.6667V3.2069l1.91,-0.9683c0.0552,-0.028,0.09,-0.0846,0.09,-0.1465V1h-1v0.1875c0,0.4487,-0.3638,0.8125,-0.8125,0.8125h-1.375c-0.4487,0,-0.8125,-0.3638,-0.8125,-0.8125V1h-1v1.092c0,0.0619,0.0348,0.1186,0.09,0.1466l1.91,0.9683v1.4855l-1,-0.6667v-0.2046l-1.3622,-0.6906C9.2466,2.9321,9,2.5307,9,2.092V0h3v1h1V0H16z" fill="#6E6F72"/>
    <polygon points="14,11.1266 11,9.1266 11,10.1766 14,12.1766" fill="#6E6F72" stroke-linejoin="miter"/>
  </g>
</svg>
