<?xml version="1.0" encoding="UTF-8"?>
<!DOCTYPE svg PUBLIC "-//W3C//DTD SVG 1.1//EN" "http://www.w3.org/Graphics/SVG/1.1/DTD/svg11.dtd">
<svg version="1.1" id="Layer_1" xmlns="http://www.w3.org/2000/svg" xmlns:xlink="http://www.w3.org/1999/xlink" x="0px" y="0px" width="16px" height="16px" viewBox="0 0 16 16" enable-background="new 0 0 16 16" xml:space="preserve">
  <g id="icon">
    <line x1="7.5" y1="0" x2="7.5" y2="4" fill="#FFFFFF"/>
    <rect x="7" width="1" height="4" fill="#6E6F72"/>
    <path d="M3.658,7h7.7094c0.003,0.0072,0.0063,0.0148,0.0092,0.0217c0.1244,0.3021,0.1204,0.6475,-0.0111,0.9479L11.3523,8H3.6731l-0.0144,-0.0331c-0.1305,-0.2982,-0.1346,-0.6425,-0.0107,-0.9434C3.6512,7.016,3.6547,7.0078,3.658,7zM10.0484,11H4.977l0.4346,1h4.202L10.0484,11z" fill="#FFFFFF" opacity="0.5"/>
    <path d="M3.658,7c0.2604,-0.6203,1.0443,-2,2.8612,-2h2c1.8061,0,2.5886,1.3811,2.8483,2H3.658zM11.3523,8H3.6731l1.3039,3h5.0713L11.3523,8zM5.4117,12l1.5713,3.6151c0.092,0.2105,0.3,0.3465,0.5297,0.3465s0.4377,-0.136,0.5302,-0.3476L9.6137,12H5.4117z" fill="#9171B2"/>
    <path d="M7.5,3c-0.8271,0,-1.5,0.6729,-1.5,1.5h3C9,3.6729,8.3271,3,7.5,3z" fill="#6E6F72"/>
  </g>
</svg>
