<?xml version="1.0" encoding="UTF-8"?>
<!DOCTYPE svg PUBLIC "-//W3C//DTD SVG 1.1//EN" "http://www.w3.org/Graphics/SVG/1.1/DTD/svg11.dtd">
<svg version="1.1" id="Layer_1" xmlns="http://www.w3.org/2000/svg" xmlns:xlink="http://www.w3.org/1999/xlink" x="0px" y="0px" width="16px" height="16px" viewBox="0 0 16 16" enable-background="new 0 0 16 16" xml:space="preserve">
  <g id="icon">
    <path d="M3.5,4.7766V0.5h6.1v6.5749l-0.4433,0.1864L7.0644,3.2646L3.5,4.7766zM7.7777,11.0957L5.6895,7.1066L3.5,8.0353V15.5h6.1v-5.1706L7.7777,11.0957z" fill="#FFFFFF" opacity="0.5"/>
    <path d="M3.0219,4.0376V0h7v6.8975l-0.8652,0.3638l-0.1348,-0.2574V1h-5v3.5552l-0.567,0.2405L3.0219,4.0376zM9.0219,10.5725V15h-5V7.8139l-1,0.4242V16h7v-5.848L9.0219,10.5725z" fill="#6E6F72"/>
    <polygon points="0.9493,2.4253 0.0809,2.9213 2.5998,7.3308 6.1478,5.826 8.2374,9.8176 11.7478,8.3414 13.5941,12.1879 12.0053,11.5465 11.6309,12.4738 14.9097,13.7975 16.0068,10.4947 15.0578,10.1795 14.5185,11.8029 12.2374,7.0507 8.697,8.5395 6.6061,4.5453 3.0274,6.0633" fill="#CC525E" stroke-linejoin="miter"/>
    <path d="M5.0219,4h0.3089l-0.3089,0.131V4zM6.0219,12h-1v1h1V12zM6.0219,10h-1v1h1V10zM5.0219,3h1V2h-1V3zM8.0219,2h-1v1h1V2zM8.0219,12h-1v1h1V12zM8.0219,4h-0.5725l0.5235,1h0.049V4zM6.0219,8h-1v1h1V8zM8.0219,10.993L8.0053,11h0.0167V10.993zM7.7276,11l-0.5235,-1h-0.1822v1H7.7276z" fill="#6486C4"/>
  </g>
</svg>
