<?xml version="1.0" encoding="UTF-8"?>
<!DOCTYPE svg PUBLIC "-//W3C//DTD SVG 1.1//EN" "http://www.w3.org/Graphics/SVG/1.1/DTD/svg11.dtd">
<svg version="1.1" id="Layer_1" xmlns="http://www.w3.org/2000/svg" xmlns:xlink="http://www.w3.org/1999/xlink" x="0px" y="0px" width="16px" height="16px" viewBox="0 0 16 16" enable-background="new 0 0 16 16" xml:space="preserve">
  <g id="icon">
    <path d="M4.2501,10.327h-1.25c-0.5767,0.0575,-0.9718,0.2615,-1.0747,0.4557L0.5677,14.2973C0.3149,14.7743,0.7699,15.5,1.9301,15.5h12.1841c1.1602,0,1.5861,-0.7257,1.2996,-1.2027L13.804,10.731c-0.0949,-0.158,-0.3667,-0.3283,-0.8038,-0.404h-1.25" fill="#FFFFFF"/>
    <path d="M14.1142,16H1.9301c-0.8032,0,-1.4427,-0.2973,-1.7546,-0.8156c-0.2081,-0.3458,-0.2316,-0.7509,-0.0651,-1.0907l1.3593,-3.5189l0.0139,-0.0263c0.2007,-0.3787,0.7491,-0.6476,1.4669,-0.7191L3,9.827h1.25v1H3.026c-0.3902,0.0424,-0.597,0.1542,-0.6599,0.2023l-1.3427,3.4759l-0.0139,0.0262c-0.0244,0.046,0.0038,0.1058,0.0228,0.1374c0.0963,0.1601,0.3828,0.3312,0.8978,0.3312h12.184c0.5049,0,0.7793,-0.1683,0.8609,-0.3124c0.0436,-0.0771,0.0184,-0.119,0.0101,-0.1328l-0.0271,-0.0518l-1.5862,-3.5141c-0.0425,-0.0365,-0.1729,-0.1141,-0.4171,-0.1619h-1.2044v-1h1.293l0.0423,0.0073c0.5413,0.0938,0.9594,0.3268,1.1471,0.6393l0.0271,0.0517l1.5995,3.5435c0.192,0.3425,0.1875,0.7554,-0.0139,1.1113C15.5505,15.7012,14.9195,16,14.1142,16zM2.3495,11.0438L2.3495,11.0438L2.3495,11.0438z" fill="#EEAD56"/>
    <path d="M4.4155,10.1552" fill="#FFFFFF" stroke="#ED8730" stroke-width="1" stroke-miterlimit="10"/>
    <path d="M11.5946,10.1649" fill="#FFFFFF" stroke="#ED8730" stroke-width="1" stroke-miterlimit="10"/>
    <path d="M6.5798,1.644c0.0769,-0.3471,0.1352,-0.6418,0.2713,-0.884c0.8205,-0.341,1.477,-0.341,2.2816,-0.0278c0.1433,0.2473,0.2608,0.5512,0.3407,0.9117c0.5091,1.8375,2.5989,9.6478,2.5989,10.2603c0,0.6125,-2.0505,1.5312,-4.0938,1.5312c-2.0292,0,-4.0514,-0.9187,-4.0514,-1.6078C3.9272,11.1388,6.3393,2.8279,6.5798,1.644z" fill="#FFFFFF"/>
    <polygon points="6.5,2.2591 7.8966,2.6383 9.6724,2.3625 10.3448,4.7932 8,5.1724 5.7759,4.707" fill="#FFFFFF" stroke-linejoin="miter"/>
    <path d="M5.1034,7.2755c0,0,1.6034,0.6206,2.8966,0.6206c1.7586,0,2.8966,-0.7757,2.8966,-0.7757l0.8276,2.9995c0,0,-1.7586,0.7413,-3.7241,0.7413S4.431,9.8096,4.431,9.8096L5.1034,7.2755z" fill="#FFFFFF"/>
    <path d="M8.001,11.2966c-0.7688,0,-3.3174,-0.1,-3.9504,-1.3815l0.8966,-0.4429c0.1975,0.3997,1.3348,0.8244,3.0534,0.8244c0.0007,0,0.0012,0,0.0019,0c1.6996,-0.0003,2.9286,-0.433,3.135,-0.8511l0.8968,0.4426c-0.5123,1.0381,-2.4185,1.4083,-4.0315,1.4085C8.0021,11.2966,8.0015,11.2966,8.001,11.2966z" fill="#EEAD56"/>
    <path d="M8.0616,5.6852c-0.1246,0,-0.2372,-0.0022,-0.333,-0.0053c-1.3118,-0.0415,-2.0871,-0.3043,-2.3043,-0.7813l0.9101,-0.4146c-0.0198,-0.0434,-0.0423,-0.0626,-0.0425,-0.0628c0.099,0.0831,0.6732,0.2634,1.7384,0.2634c0.0085,0,0.0171,0,0.0256,0c1.0817,-0.0029,1.6616,-0.1894,1.7601,-0.2741c-0.0001,0.0001,-0.0162,0.0141,-0.0328,0.0451l0.882,0.4713C10.3153,5.5818,8.9118,5.6852,8.0616,5.6852z" fill="#EEAD56"/>
    <path d="M8.0641,3.0373c-0.1009,0,-0.2004,-0.0018,-0.2972,-0.0048c-1.514,-0.0479,-1.7026,-0.4619,-1.7736,-0.6178l0.9101,-0.4146c-0.0316,-0.0694,-0.0762,-0.1076,-0.0907,-0.1164c0.342,0.2083,2.0892,0.2042,2.4279,-0.0056c-0.0004,0.0002,-0.0422,0.0267,-0.078,0.0937l0.882,0.4713C9.7888,2.9215,8.8813,3.0373,8.0641,3.0373z" fill="#EEAD56"/>
    <path d="M7.8783,8.3704c-0.1072,0,-0.1939,-0.0016,-0.2543,-0.0032c-1.2168,-0.0321,-2.7123,-0.2638,-2.9263,-1.1854l0.9741,-0.2262c-0.0032,-0.0138,-0.0079,-0.0211,-0.0079,-0.0212c0.076,0.1184,0.6691,0.3915,1.937,0.4317c1.5469,0.0493,2.6157,-0.2775,2.7546,-0.4665c0,0.0001,-0.0075,0.0103,-0.0133,0.0304l0.9608,0.2772C10.9979,8.2652,8.7554,8.3704,7.8783,8.3704z" fill="#EEAD56"/>
    <path d="M7.9786,13.9356c-2.0615,0,-4.5514,-0.9402,-4.5514,-2.1078c0,-0.4133,0.48,-2.2257,1.6281,-6.4016c0.4841,-1.7604,0.9413,-3.4233,1.0344,-3.8817l0.0185,-0.0843c0.0743,-0.3374,0.1445,-0.6561,0.307,-0.9452l0.0846,-0.1504l0.1594,-0.0663c0.9279,-0.3855,1.7217,-0.3953,2.6549,-0.032l0.1633,0.0636l0.0879,0.1516c0.1729,0.2985,0.3053,0.649,0.3936,1.0419c0.1101,0.4024,2.6135,9.592,2.6135,10.3809c0,0.6807,-0.8676,1.1695,-1.5955,1.4598C10.0661,13.7273,8.9733,13.9356,7.9786,13.9356zM4.4289,11.8105c0.154,0.3366,1.6825,1.1251,3.5498,1.1251c1.7962,0,3.3668,-0.7405,3.5902,-1.0708c-0.0949,-0.8136,-1.8616,-7.5042,-2.5772,-10.0872l-0.0063,-0.0253c-0.0508,-0.2296,-0.1196,-0.436,-0.2049,-0.6161c-0.5553,-0.1865,-1.0074,-0.1818,-1.5599,0.0167c-0.0517,0.1413,-0.0902,0.3162,-0.1356,0.5225l-0.016,0.0726c-0.1016,0.4968,-0.5408,2.0944,-1.0492,3.9435C5.4039,7.9308,4.4784,11.2965,4.4289,11.8105zM11.5836,11.8396L11.5836,11.8396L11.5836,11.8396zM4.4233,11.797" fill="#EEAD56"/>
  </g>
</svg>
