<?xml version="1.0" encoding="UTF-8"?>
<!DOCTYPE svg PUBLIC "-//W3C//DTD SVG 1.1//EN" "http://www.w3.org/Graphics/SVG/1.1/DTD/svg11.dtd">
<svg version="1.1" id="Layer_1" xmlns="http://www.w3.org/2000/svg" xmlns:xlink="http://www.w3.org/1999/xlink" x="0px" y="0px" width="16px" height="16px" viewBox="0 0 16 16" enable-background="new 0 0 16 16" xml:space="preserve">
  <g id="icon">
    <rect x="5.9" y="12" width="5.5" height="1" fill="#6E6F72"/>
    <polyline points="5.4,10.9 5.4,9.05 5.05,8 0.8,8 0.5,8.5 0.5,11.05 1.4,12" fill="#FFFFFF" stroke-linejoin="miter" opacity="0.5"/>
    <polygon points="1.037,12.3439 0,11.2492 0,8.3615 0.5169,7.5 5.4104,7.5 5.9,8.9688 5.9,10.9 4.9,10.9 4.9,9.1312 4.6896,8.5 1.0831,8.5 1,8.6385 1,10.8508 1.763,11.6561" fill="#6E6F72" stroke-linejoin="miter"/>
    <polyline points="15.5,5.4 15.5,6.7909 9.0762,10.5 7.7062,10.5 6.0016,5.4464 6.1218,5.5 16,5.5" fill="#FFFFFF" stroke-linejoin="miter" opacity="0.5"/>
    <rect x="5.5" y="5" width="10.5" height="1" fill="#6486C4"/>
    <polygon points="9.1682,11 7.2984,11 4.8931,4 1,4 1,3 5.6069,3 8.0122,10 8.9002,10 15,6.478 15,5.5 16,5.5 16,7.0553" fill="#6486C4" stroke-linejoin="miter"/>
    <rect x="8.2829" y="6.3062" width="1" height="3.9075" fill="#6486C4" transform="matrix(0.9315 -0.3637 0.3637 0.9315 -2.40251 3.75962)"/>
    <rect x="10.2466" y="6.3428" width="1" height="2.8396" fill="#6486C4" transform="matrix(0.9315 -0.3637 0.3637 0.9315 -2.08715 4.43961)"/>
    <rect x="12.2039" y="6.3805" width="1" height="1.7367" fill="#6486C4" transform="matrix(0.9315 -0.3637 0.3637 0.9315 -1.76633 5.11632)"/>
    <circle cx="13.25" cy="12.25" r="2.25" fill="#FFFFFF" opacity="0.5"/>
    <path d="M13.25,15c-1.5164,0,-2.75,-1.2336,-2.75,-2.75S11.7336,9.5,13.25,9.5s2.75,1.2336,2.75,2.75S14.7664,15,13.25,15zM13.25,10.5c-0.9649,0,-1.75,0.7851,-1.75,1.75s0.7851,1.75,1.75,1.75s1.75,-0.7851,1.75,-1.75S14.2149,10.5,13.25,10.5z" fill="#6E6F72"/>
    <circle cx="3.65" cy="12.25" r="2.25" fill="#FFFFFF" opacity="0.5"/>
    <path d="M3.65,15C2.1336,15,0.9,13.7664,0.9,12.25S2.1336,9.5,3.65,9.5S6.4,10.7336,6.4,12.25S5.1664,15,3.65,15zM3.65,10.5c-0.9649,0,-1.75,0.7851,-1.75,1.75S2.6851,14,3.65,14S5.4,13.2149,5.4,12.25S4.6149,10.5,3.65,10.5z" fill="#6E6F72"/>
    <polygon points="5.025,8 0.775,8 2.325,5.5 4.025,5.5" fill="#FFFFFF" stroke-linejoin="miter" opacity="0.5"/>
    <path d="M5.025,8.5H0.775c-0.1814,0,-0.3486,-0.0983,-0.4369,-0.2568c-0.0883,-0.1585,-0.0837,-0.3524,0.0119,-0.5066l1.55,-2.5C1.9912,5.0895,2.152,5,2.325,5h1.7c0.2044,0,0.3883,0.1245,0.4643,0.3143l1,2.5c0.0616,0.1541,0.0428,0.3286,-0.0502,0.466C5.346,8.4177,5.1909,8.5,5.025,8.5zM1.6733,7.5h2.6132l-0.6,-1.5H2.6033L1.6733,7.5z" fill="#6486C4"/>
  </g>
</svg>
