<?xml version="1.0" encoding="UTF-8"?>
<!DOCTYPE svg PUBLIC "-//W3C//DTD SVG 1.1//EN" "http://www.w3.org/Graphics/SVG/1.1/DTD/svg11.dtd">
<svg version="1.1" id="Layer_1" xmlns="http://www.w3.org/2000/svg" xmlns:xlink="http://www.w3.org/1999/xlink" x="0px" y="0px" width="16px" height="16px" viewBox="0 0 16 16" enable-background="new 0 0 16 16" xml:space="preserve">
  <g id="icon">
    <path d="M15.5,14.5H0.5V2.5h15V14.5z" fill="#FFFFFF" opacity="0.5"/>
    <path d="M16,15H0V2h16V15zM10,14h5v-2h-5V14zM4,14h5v-2H4V14zM1,14h2v-2H1V14zM13,11h2V9h-2V11zM7,11h5V9H7V11zM1,11h5V9H1V11zM10,8h5V6h-5V8zM4,8h5V6H4V8zM1,8h2V6H1V8zM13,5h2V3h-2V5zM7,5h5V3H7V5zM1,5h5V3H1V5z" fill="#6485C3"/>
  </g>
</svg>
