<?xml version="1.0" encoding="UTF-8"?>
<!DOCTYPE svg PUBLIC "-//W3C//DTD SVG 1.1//EN" "http://www.w3.org/Graphics/SVG/1.1/DTD/svg11.dtd">
<svg version="1.1" id="Layer_1" xmlns="http://www.w3.org/2000/svg" xmlns:xlink="http://www.w3.org/1999/xlink" x="0px" y="0px" width="24px" height="24px" viewBox="0 0 24 24" enable-background="new 0 0 24 24" xml:space="preserve">
  <g id="icon">
    <path d="M18.525,0H8v5.8103C8.149,5.8039,8.3003,5.8,8.4552,5.8h0.0599c0.5296,0,1.0239,0.0386,1.4849,0.1129V2h8v4.025L22,6v10h-7.844c1.0036,0.5947,1.7605,1.2837,2.3304,2H24V5.5L18.525,0z" fill="#7B7B7B"/>
    <path d="M18,6.025V2h-8v3.9129c1.4998,0.2415,2.6342,0.873,3.3804,1.8891c0.8935,1.2166,0.9968,2.6708,0.9968,3.6587c0,1.4902,-0.3316,2.9197,-0.9495,4.1458c0.2566,0.1255,0.4983,0.2573,0.7282,0.3935H22V6L18,6.025z" fill="#FFFFFF" opacity="0.4"/>
    <path d="M17.0319,24c0.156,0,0.2791,-0.1241,0.2673,-0.2695l-0.0361,-0.4466c-0.127,-1.5689,-0.9228,-4.4266,-4.826,-5.9378c-0.897,-0.3587,-1.3237,-1.1378,-0.897,-1.7045c1.0667,-1.3458,1.4914,-3.0747,1.4914,-4.6519c0,-2.4426,-0.7713,-3.9897,-4.2146,-3.9897H8.75c-3.4298,0,-4.1981,1.5472,-4.1981,3.9897c0,1.5772,0.4231,3.3061,1.4856,4.6519c0.425,0.5667,0,1.3458,-0.8936,1.7045c-3.888,1.5112,-4.6807,4.3689,-4.8072,5.9378l-0.036,0.4466C0.2891,23.8759,0.4117,24,0.5671,24H17.0319z" fill="#6485C3"/>
  </g>
</svg>
