<?xml version="1.0" encoding="UTF-8"?>
<!DOCTYPE svg PUBLIC "-//W3C//DTD SVG 1.1//EN" "http://www.w3.org/Graphics/SVG/1.1/DTD/svg11.dtd">
<svg version="1.1" id="Layer_1" xmlns="http://www.w3.org/2000/svg" xmlns:xlink="http://www.w3.org/1999/xlink" x="0px" y="0px" width="24px" height="24px" viewBox="0 0 24 24" enable-background="new 0 0 24 24" xml:space="preserve">
  <g id="icon">
    <path d="M15,3.1891c-2.8368,-4.3546,-8.2268,-2.295,-8.2268,2.4615c0,0.0987,0.0033,0.1974,0.0084,0.2962C7.2952,5.8501,7.8524,5.8,8.4552,5.8h0.0599c2.2528,0,3.8897,0.6735,4.8653,2.002c0.8935,1.2166,0.9968,2.6708,0.9968,3.6587c0,1.4902,-0.3316,2.9197,-0.9495,4.1458c0.6782,0.3318,1.2595,0.7044,1.76,1.1019c1.2233,-0.8806,8.039,-6.0134,8.039,-11.0578C23.2268,0.8941,17.8368,-1.1655,15,3.1891z" fill="#FFFFFF" opacity="0.5"/>
    <path d="M20.2222,0.2349c-0.462,-0.1414,-0.9355,-0.2131,-1.4073,-0.2131c-1.3937,0,-2.7445,0.6261,-3.8149,1.7656C13.9295,0.6479,12.5786,0.0219,11.1848,0.0219c-0.4714,0,-0.9448,0.0717,-1.407,0.213C7.496,0.9332,6.0216,3.111,6.0216,5.7831c0,0.1165,0.0042,0.2328,0.0104,0.3491c0.5704,-0.1777,1.2081,-0.2844,1.9126,-0.3186c-0.0001,-0.0102,-0.0006,-0.0203,-0.0006,-0.0305c0,-1.7927,0.9378,-3.238,2.3893,-3.6821c0.286,-0.0875,0.5764,-0.1319,0.863,-0.1319c1.1369,0,2.202,0.6817,2.9989,1.9196l0.8049,1.25l0.8049,-1.2501c0.7968,-1.2379,1.8619,-1.9196,2.999,-1.9196c0.2867,0,0.577,0.0444,0.8629,0.1319c1.4514,0.4441,2.3893,1.8894,2.3893,3.6821c0,4.083,-5.3204,8.4983,-7.056,9.8288c-0.2988,-0.229,-0.7038,-0.5495,-1.1696,-0.9439c-0.1166,0.3237,-0.2509,0.6373,-0.4026,0.9385c1.0357,0.5066,1.8476,1.1077,2.4851,1.7492c1.6456,-1.2184,8.0656,-6.3094,8.0656,-11.5726C23.9784,3.111,22.504,0.9332,20.2222,0.2349z" fill="#CB525D"/>
    <path d="M17.0319,24c0.156,0,0.2791,-0.1241,0.2673,-0.2695l-0.0361,-0.4466c-0.127,-1.5689,-0.9228,-4.4266,-4.826,-5.9378c-0.897,-0.3587,-1.3237,-1.1378,-0.897,-1.7045c1.0667,-1.3458,1.4914,-3.0747,1.4914,-4.6519c0,-2.4426,-0.7713,-3.9897,-4.2146,-3.9897H8.75c-3.4298,0,-4.1981,1.5472,-4.1981,3.9897c0,1.5772,0.4231,3.3061,1.4856,4.6519c0.425,0.5667,0,1.3458,-0.8936,1.7045c-3.888,1.5112,-4.6807,4.3689,-4.8072,5.9378l-0.036,0.4466C0.2891,23.8759,0.4117,24,0.5671,24H17.0319z" fill="#6485C3"/>
  </g>
</svg>
