<?xml version="1.0" encoding="UTF-8"?>
<!DOCTYPE svg PUBLIC "-//W3C//DTD SVG 1.1//EN" "http://www.w3.org/Graphics/SVG/1.1/DTD/svg11.dtd">
<svg version="1.1" id="Layer_1" xmlns="http://www.w3.org/2000/svg" xmlns:xlink="http://www.w3.org/1999/xlink" x="0px" y="0px" width="24px" height="24px" viewBox="0 0 24 24" enable-background="new 0 0 24 24" xml:space="preserve">
  <g id="icon">
    <path d="M11.6555,9.3595c2.1187,0.0979,4.4538,1.036,4.4538,4.6933c0,0.7629,-0.1097,1.5068,-0.3148,2.2035c2.0627,-1.5816,7.4323,-6.1285,7.4323,-10.6058c0,-4.7565,-5.39,-6.8161,-8.2268,-2.4615C12.3173,-0.9288,7.3524,0.6897,6.8206,4.9001C8.9802,4.9027,11.5562,5.6832,11.6555,9.3595z" fill="#FFFFFF" opacity="0.5"/>
    <path d="M20.2222,0.2349c-0.462,-0.1414,-0.9355,-0.2131,-1.4073,-0.2131c-1.3937,0,-2.7445,0.6261,-3.8149,1.7656C13.9295,0.6479,12.5786,0.0219,11.1848,0.0219c-0.4714,0,-0.9448,0.0717,-1.407,0.213c-2.033,0.6222,-3.4241,2.4193,-3.7035,4.6935C6.3061,4.9091,6.5367,4.9,6.7628,4.9h0.047c0.3914,0,0.7965,0.026,1.1983,0.0896c0.2341,-1.4166,1.095,-2.5122,2.325,-2.8886c0.286,-0.0875,0.5764,-0.1319,0.863,-0.1319c1.1369,0,2.202,0.6817,2.9989,1.9196l0.8049,1.25l0.8049,-1.2501c0.7968,-1.2379,1.8619,-1.9196,2.999,-1.9196c0.2867,0,0.577,0.0444,0.8629,0.1319c1.4514,0.4441,2.3893,1.8894,2.3893,3.6821c0,3.4272,-3.7483,7.0882,-5.9789,8.9627c-0.075,0.8692,-0.2882,1.7024,-0.6295,2.4509c0.1332,0.0708,0.2598,0.1444,0.3834,0.2192c1.5013,-1.1009,8.1473,-6.2777,8.1473,-11.6328C23.9784,3.111,22.504,0.9332,20.2222,0.2349z" fill="#CB525D"/>
    <path d="M5.0129,24c-0.1239,0,-0.2216,-0.0958,-0.2123,-0.2081l0.0287,-0.3448c0.1008,-1.2113,0.7328,-3.8176,3.8324,-4.9843c0.7124,-0.2769,1.0512,-0.8785,0.7124,-1.316c-0.8471,-1.0391,-1.1844,-2.3739,-1.1844,-3.5916c0,-1.8858,0.6125,-3.0803,3.3469,-3.0803h0.0531c2.7237,0,3.3338,1.1945,3.3338,3.0803c0,1.2177,-0.336,2.5525,-1.1797,3.5916c-0.3375,0.4375,0,1.0391,0.7096,1.316c3.0875,1.1668,3.717,3.773,3.8175,4.9843l0.0286,0.3448c0.0093,0.1123,-0.088,0.2081,-0.2115,0.2081H5.0129zM0.3006,19.0169c-0.0093,0.1123,0.0884,0.2081,0.2123,0.2081h4.9077c0.7268,-0.7424,1.6619,-1.3351,2.7954,-1.7672c-0.7452,-1.0808,-1.1513,-2.4484,-1.1513,-3.9025c0,-0.8446,0.0972,-2.0724,0.9371,-2.9792c0.5615,-0.6062,1.3573,-0.9773,2.415,-1.1233c0.0039,-0.0913,0.0067,-0.1823,0.0067,-0.2725C10.4235,7.2945,9.8134,6.1,7.0897,6.1h-0.0531c-2.7343,0,-3.3469,1.1945,-3.3469,3.0803c0,1.2177,0.3373,2.5525,1.1844,3.5916c0.3388,0.4375,0,1.0391,-0.7124,1.316c-3.0996,1.1668,-3.7316,3.373,-3.8324,4.5843L0.3006,19.0169z" fill="#6485C3"/>
  </g>
</svg>
