<?xml version="1.0" encoding="UTF-8"?>
<!DOCTYPE svg PUBLIC "-//W3C//DTD SVG 1.1//EN" "http://www.w3.org/Graphics/SVG/1.1/DTD/svg11.dtd">
<svg version="1.1" id="Layer_1" xmlns="http://www.w3.org/2000/svg" xmlns:xlink="http://www.w3.org/1999/xlink" x="0px" y="0px" width="24px" height="24px" viewBox="0 0 24 24" enable-background="new 0 0 24 24" xml:space="preserve">
  <g id="icon">
    <path d="M15,3.1891c-2.8368,-4.3546,-8.2268,-2.295,-8.2268,2.4615c0,0.0987,0.0033,0.1974,0.0084,0.2962C7.2952,5.8501,7.8524,5.8,8.4552,5.8h0.0599c2.2528,0,3.8897,0.6735,4.8653,2.002c0.8935,1.2166,0.9968,2.6708,0.9968,3.6587c0,1.4902,-0.3316,2.9197,-0.9495,4.1458c0.6782,0.3318,1.2595,0.7044,1.76,1.1019c1.2233,-0.8806,8.039,-6.0134,8.039,-11.0578C23.2268,0.8941,17.8368,-1.1655,15,3.1891z" fill="#FFFFFF" opacity="0.5"/>
    <path d="M20.2222,0.2349c-0.462,-0.1414,-0.9355,-0.2131,-1.4073,-0.2131c-1.3937,0,-2.7445,0.6261,-3.8149,1.7656C13.9295,0.6479,12.5786,0.0219,11.1848,0.0219c-0.4714,0,-0.9448,0.0717,-1.407,0.213C7.496,0.9332,6.0216,3.111,6.0216,5.7831c0,0.1165,0.0042,0.2328,0.0104,0.3491c0.5704,-0.1777,1.2081,-0.2844,1.9126,-0.3186c-0.0001,-0.0102,-0.0006,-0.0203,-0.0006,-0.0305c0,-1.7927,0.9378,-3.238,2.3893,-3.6821c0.286,-0.0875,0.5764,-0.1319,0.863,-0.1319c1.1369,0,2.202,0.6817,2.9989,1.9196l0.8049,1.25l0.8049,-1.2501c0.7968,-1.2379,1.8619,-1.9196,2.999,-1.9196c0.2867,0,0.577,0.0444,0.8629,0.1319c1.4514,0.4441,2.3893,1.8894,2.3893,3.6821c0,4.083,-5.3204,8.4983,-7.056,9.8288c-0.2988,-0.229,-0.7038,-0.5495,-1.1696,-0.9439c-0.1166,0.3237,-0.2509,0.6373,-0.4026,0.9385c1.0357,0.5066,1.8476,1.1077,2.4851,1.7492c1.6456,-1.2184,8.0656,-6.3094,8.0656,-11.5726C23.9784,3.111,22.504,0.9332,20.2222,0.2349z" fill="#CB525D"/>
    <path d="M15.7634,23c0.1377,0,0.2463,-0.1095,0.2359,-0.2378l-0.0319,-0.394c-0.112,-1.3843,-0.8142,-3.9058,-4.2582,-5.2392c-0.7915,-0.3165,-1.168,-1.004,-0.7915,-1.504c0.9412,-1.1875,1.316,-2.713,1.316,-4.1046C12.2336,9.3652,11.553,8,8.5149,8h-0.059c-3.0263,0,-3.7042,1.3652,-3.7042,3.5204c0,1.3917,0.3733,2.9171,1.3108,4.1046c0.375,0.5,0,1.1875,-0.7884,1.504c-3.4306,1.3334,-4.13,3.8549,-4.2416,5.2392l-0.0318,0.394c-0.0103,0.1283,0.0978,0.2378,0.235,0.2378H15.7634z" fill="#FFFFFF" opacity="0.5"/>
    <path d="M1.1266,24c-0.3165,0,-0.6201,-0.1324,-0.8331,-0.3633c-0.2089,-0.2263,-0.3145,-0.5314,-0.29,-0.8369L0.0357,22.4c0.1299,-1.6113,0.9346,-4.5428,4.8645,-6.0721c0.1938,-0.0783,0.3071,-0.1787,0.3582,-0.2429c-0.9344,-1.2272,-1.4504,-2.8671,-1.4504,-4.6243C3.8079,9.5458,4.2897,7,8.4552,7h0.0599c4.1788,0,4.6621,2.5458,4.6621,4.4607c0,1.7538,-0.5159,3.3909,-1.4548,4.6237c0.0516,0.0632,0.1624,0.1638,0.3618,0.244c3.9419,1.5281,4.7496,4.4598,4.88,6.0713l0.0323,0.4c0.0247,0.3053,-0.0809,0.6102,-0.2898,0.8367c-0.2132,0.2311,-0.5172,0.3637,-0.8342,0.3637H1.1266zM15.1589,22.2251c-0.176,-1.2011,-0.9126,-3.1564,-3.722,-4.2441c-0.7408,-0.2962,-1.2822,-0.845,-1.4574,-1.4718c-0.1398,-0.5002,-0.0455,-1.0032,0.2654,-1.4162l0.0121,-0.0157c0.7389,-0.9323,1.1451,-2.2162,1.1451,-3.6167c0,-1.8572,-0.4169,-2.6857,-2.8871,-2.6857h-0.0599c-2.4577,0,-2.8724,0.8285,-2.8724,2.6857c0,1.4012,0.4047,2.6854,1.1396,3.6164l0.0118,0.0153c0.3115,0.4152,0.4051,0.9181,0.2652,1.4182c-0.1752,0.6258,-0.7147,1.174,-1.4432,1.4665l-0.0091,0.0036c-2.7978,1.0874,-3.5311,3.0431,-3.7064,4.2445H15.1589z" fill="#6485C3"/>
  </g>
</svg>
