<?xml version="1.0" encoding="UTF-8"?>
<!DOCTYPE svg PUBLIC "-//W3C//DTD SVG 1.1//EN" "http://www.w3.org/Graphics/SVG/1.1/DTD/svg11.dtd">
<svg version="1.1" id="Layer_1" xmlns="http://www.w3.org/2000/svg" xmlns:xlink="http://www.w3.org/1999/xlink" x="0px" y="0px" width="24px" height="24px" viewBox="0 0 24 24" enable-background="new 0 0 24 24" xml:space="preserve">
  <g id="icon">
    <path d="M9,4v1.812c2.0036,0.0915,3.4765,0.759,4.3804,1.99c0.8935,1.2166,0.9968,2.6708,0.9968,3.6587c0,1.2508,-0.2345,2.4584,-0.6749,3.5394H22V4H9z" fill="#FFFFFF" opacity="0.4"/>
    <path d="M7,5.909V3h2v1v1.812C8.8414,5.8048,8.6804,5.8,8.5151,5.8h-0.0599C7.9367,5.8,7.4525,5.8375,7,5.909zM22,3v1v11h-7h-1h-0.2977c-0.0843,0.2068,-0.1753,0.4096,-0.2745,0.6065c0.8418,0.4118,1.5356,0.886,2.1085,1.3935H24V3H22z" fill="#7B7B7B"/>
    <path d="M7,0v4h17V0H7z" fill="#CB525D"/>
    <path d="M14.0505,9.1198C14.2191,8.4758,14.8032,8,15.5,8c0.8284,0,1.5,0.6716,1.5,1.5c0,0.8284,-0.6716,1.5,-1.5,1.5c-0.4751,0,-0.8978,-0.2215,-1.1727,-0.5662C14.2827,10.0159,14.199,9.5682,14.0505,9.1198zM19.5,8c-0.8284,0,-1.5,0.6716,-1.5,1.5c0,0.8284,0.6716,1.5,1.5,1.5s1.5,-0.6716,1.5,-1.5C21,8.6716,20.3284,8,19.5,8z" fill="#CB525D"/>
    <path d="M15.7634,23c0.1377,0,0.2463,-0.1095,0.2359,-0.2378l-0.0319,-0.394c-0.112,-1.3843,-0.8142,-3.9058,-4.2582,-5.2392c-0.7915,-0.3165,-1.168,-1.004,-0.7915,-1.504c0.9412,-1.1875,1.316,-2.713,1.316,-4.1046C12.2336,9.3652,11.553,8,8.5149,8h-0.059c-3.0263,0,-3.7042,1.3652,-3.7042,3.5204c0,1.3917,0.3733,2.9171,1.3108,4.1046c0.375,0.5,0,1.1875,-0.7884,1.504c-3.4306,1.3334,-4.13,3.8549,-4.2416,5.2392l-0.0318,0.394c-0.0103,0.1283,0.0978,0.2378,0.235,0.2378H15.7634z" fill="#FFFFFF" opacity="0.5"/>
    <path d="M1.1266,24c-0.3165,0,-0.6201,-0.1324,-0.8331,-0.3633c-0.2089,-0.2263,-0.3145,-0.5314,-0.29,-0.8369L0.0357,22.4c0.1299,-1.6113,0.9346,-4.5428,4.8645,-6.0721c0.1938,-0.0783,0.3071,-0.1787,0.3582,-0.2429c-0.9344,-1.2272,-1.4504,-2.8671,-1.4504,-4.6243C3.8079,9.5458,4.2897,7,8.4552,7h0.0599c4.1788,0,4.6621,2.5458,4.6621,4.4607c0,1.7538,-0.5159,3.3909,-1.4548,4.6237c0.0516,0.0632,0.1624,0.1638,0.3618,0.244c3.9419,1.5281,4.7496,4.4598,4.88,6.0713l0.0323,0.4c0.0247,0.3053,-0.0809,0.6102,-0.2898,0.8367c-0.2132,0.2311,-0.5172,0.3637,-0.8342,0.3637H1.1266zM15.1589,22.2251c-0.176,-1.2011,-0.9126,-3.1564,-3.722,-4.2441c-0.7408,-0.2962,-1.2822,-0.845,-1.4574,-1.4718c-0.1398,-0.5002,-0.0455,-1.0032,0.2654,-1.4162l0.0121,-0.0157c0.7389,-0.9323,1.1451,-2.2162,1.1451,-3.6167c0,-1.8572,-0.4169,-2.6857,-2.8871,-2.6857h-0.0599c-2.4577,0,-2.8724,0.8285,-2.8724,2.6857c0,1.4012,0.4047,2.6854,1.1396,3.6164l0.0118,0.0153c0.3115,0.4152,0.4051,0.9181,0.2652,1.4182c-0.1752,0.6258,-0.7147,1.174,-1.4432,1.4665l-0.0091,0.0036c-2.7978,1.0874,-3.5311,3.0431,-3.7064,4.2445H15.1589z" fill="#6485C3"/>
  </g>
</svg>
