<?xml version="1.0" encoding="UTF-8"?>
<!DOCTYPE svg PUBLIC "-//W3C//DTD SVG 1.1//EN" "http://www.w3.org/Graphics/SVG/1.1/DTD/svg11.dtd">
<svg version="1.1" id="Layer_1" xmlns="http://www.w3.org/2000/svg" xmlns:xlink="http://www.w3.org/1999/xlink" x="0px" y="0px" width="24px" height="24px" viewBox="0 0 24 24" enable-background="new 0 0 24 24" xml:space="preserve">
  <g id="icon">
    <path d="M23.1995,22.9854c-0.123,-1.6766,-0.6421,-3.1865,-1.5427,-4.4879C20.5717,16.9293,18.5258,15.2661,16.4,14.4c0,0,-0.9295,-0.6855,-1.3,-0.9c-0.9568,1.0238,-1.9402,1.4,-3.0777,1.4c-1.144,0,-2.0617,-0.365,-3.0223,-1.4c-0.3612,0.2074,-1.5,0.8,-1.5,0.8c-5.121,2.1075,-6.5339,6.511,-6.6994,8.6848L0.7842,23.2h22.4311L23.1995,22.9854z" fill="#FFFFFF" opacity="0.5"/>
    <path d="M23.9482,22.9655c-0.1783,-2.2667,-1.2961,-6.3954,-6.7783,-8.5787L16.0295,14l-0.0172,0.1158L16,14.1065l-0.4762,1.2283C15.0608,16.4163,12.5,22.3,12,22.4537c-0.6,-0.1537,-3.125,-6.0857,-3.5587,-7.1736L8,14l-1.1404,0.3867c-5.4822,2.1834,-6.5999,6.312,-6.7783,8.5787l-0.0507,0.6452C0.0141,23.8207,0.187,24,0.4061,24h23.2173c0.2192,0,0.392,-0.1793,0.3755,-0.3894L23.9482,22.9655z" fill="#9070B1"/>
    <path d="M17.2694,6.4087c0,3.638,-2.3492,7.7805,-5.2471,7.7805s-5.2471,-4.1425,-5.2471,-7.7805S9.1244,0.812,12.0223,0.812S17.2694,2.7706,17.2694,6.4087z" fill="#FFFFFF" opacity="0.5"/>
    <path d="M12.0223,15c-1.6358,0,-3.1921,-1.0289,-4.3823,-2.897c-1.0424,-1.6362,-1.6648,-3.7649,-1.6648,-5.6944c0,-1.9459,0.6143,-3.5854,1.7765,-4.7413c1.0803,-1.0745,2.597,-1.6662,4.2706,-1.6662s3.1903,0.5917,4.2706,1.6662c1.1622,1.1559,1.7765,2.7954,1.7765,4.7413c0,1.9294,-0.6224,4.0582,-1.6648,5.6944C15.2144,13.9711,13.6581,15,12.0223,15zM12.0223,1.6227c-2.7015,0,-4.4471,1.8786,-4.4471,4.7859c0,3.1374,2.0521,6.9697,4.4471,6.9697s4.4471,-3.8324,4.4471,-6.9697C16.4694,3.5013,14.7238,1.6227,12.0223,1.6227z" fill="#9070B1"/>
  </g>
</svg>
