<?xml version="1.0" encoding="UTF-8"?>
<!DOCTYPE svg PUBLIC "-//W3C//DTD SVG 1.1//EN" "http://www.w3.org/Graphics/SVG/1.1/DTD/svg11.dtd">
<svg version="1.1" id="Layer_1" xmlns="http://www.w3.org/2000/svg" xmlns:xlink="http://www.w3.org/1999/xlink" x="0px" y="0px" width="24px" height="24px" viewBox="0 0 24 24" enable-background="new 0 0 24 24" xml:space="preserve">
  <g id="icon">
    <path d="M23.1995,22.9854c-0.123,-1.6766,-0.6421,-3.1865,-1.5427,-4.4879c-0.8336,-1.2047,-2.235,-2.4641,-3.8034,-3.3766C16.1498,14.4397,13.8,13.9,17.1,12.7c1.1356,-0.4129,1.2322,-2.9949,1.1809,-4.9554C17.9555,1.9586,15.1177,0.6,12.0009,0.6C8.8842,0.6,6.0072,1.9586,5.6818,7.7446C5.6333,9.5981,5.3506,12.1165,6.4,12.5c3.9389,1.4394,3.6,1.1,-0.3358,2.5033C2.1087,17.2732,0.9494,21.03,0.8006,22.9848L0.7842,23.2h22.4311L23.1995,22.9854z" fill="#FFFFFF" opacity="0.5"/>
    <path d="M8.0004,15.0581l-0.4008,-0.9161l1.6,-0.7l0.4008,0.9161L8.0004,15.0581zM15.9996,15.0581l0.4008,-0.9161l-1.6,-0.7l-0.4008,0.9161L15.9996,15.0581z" fill="#52B4C0"/>
    <path d="M8.3368,12.3311c-0.7283,-1.6956,-1.1807,-3.9252,-1.1807,-5.8188c0,-0.4443,0,-0.9038,0.4216,-1.0662c0.0739,-0.0285,0.1473,-0.043,0.218,-0.043c0.285,0,0.5046,0.2345,0.6652,0.406c0.3428,0.366,0.9167,0.9787,2.0003,0.9787c0.3724,0,1.1898,-0.2901,1.9126,-0.5467c1.0622,-0.3771,2.1605,-0.7669,3.0248,-0.7669c0.4092,0,0.7316,0.0856,0.9857,0.2616c0.2499,0.1731,0.5477,0.5177,0.5477,1.1762c0,6.038,-2.5082,8.788,-4.8385,8.788C10.5824,15.7,9.2833,14.5351,8.3368,12.3311zM14.6974,6.611c-0.5956,0.1311,-1.2874,0.3766,-1.9596,0.6151c-0.9208,0.3269,-1.7161,0.6092,-2.2767,0.6092c-0.7654,0,-1.4568,-0.2185,-2.0549,-0.6493l-0.168,-0.121l0.0138,0.2094c0.2032,3.0932,1.6512,7.378,3.8415,7.378c0.9468,0,1.8457,-0.6692,2.5309,-1.8845c0.5646,-1.0015,1.2377,-2.8303,1.2377,-5.856c0,-0.1161,-0.0166,-0.2661,-0.0956,-0.3208c-0.0312,-0.0216,-0.1295,-0.072,-0.3678,-0.072C15.2105,6.5191,14.9745,6.55,14.6974,6.611z" fill="#52B4C0"/>
    <path d="M15.4674,13.9c1.0324,-0.0083,2.3138,-0.1375,3.1239,-1.0714c0.9541,-1.0998,0.9354,-2.9171,0.6139,-5.3074c-0.4043,-3.006,-1.1002,-4.8549,-2.2566,-5.9949C15.5843,0.1813,13.7071,0,12.0507,0l-0.0475,0c-1.6564,0,-3.5336,0.1813,-4.8979,1.5263c-1.1563,1.14,-1.8523,2.9889,-2.2566,5.9949c-0.3193,2.3745,-0.3366,4.1828,0.6172,5.2902c0.8053,0.935,2.0666,1.0724,3.0755,1.0876l0.012,0.0001l0.6668,0.0001l0.0002,-1.6l-0.6606,-0.0001c-0.9979,-0.0156,-1.5783,-0.1797,-1.8816,-0.5318c-0.4639,-0.5386,-0.5414,-1.8201,-0.2438,-4.0328c0.3491,-2.5956,0.9192,-4.2062,1.7941,-5.0688C8.9965,1.9087,10.0901,1.6,12.0033,1.6h0.0475c1.9132,0,3.0068,0.3087,3.7746,1.0657c0.875,0.8626,1.4451,2.4732,1.7941,5.0688c0.3038,2.2589,0.2308,3.5066,-0.2368,4.0457c-0.3048,0.3514,-0.8975,0.5117,-1.9216,0.5199L15.0999,12.3l-0.0002,1.6L15.4674,13.9z" fill="#52B4C0"/>
    <path d="M23.9482,22.9655c-0.1783,-2.2667,-1.2961,-6.3954,-6.7783,-8.5787L16.0295,14l-0.3,2.0192c0.3297,0.0106,1.1,0.2885,1.5508,0.5293c2.9912,1.4663,4.1501,3.6421,4.5402,5.5284H2.209c0.3901,-1.8864,1.549,-4.0622,4.5402,-5.5284C7.2,16.3077,7.9703,16.0298,8.3,16.0192L8,14l-1.1404,0.3867c-5.4822,2.1834,-6.5999,6.312,-6.7783,8.5787l-0.0507,0.6452C0.0141,23.8208,0.187,24,0.4061,24h23.2173c0.2192,0,0.392,-0.1792,0.3755,-0.3894L23.9482,22.9655z" fill="#52B4C0"/>
    <path d="M12.0017,23.45c-0.6492,0,-3.9187,-6.6599,-4.4964,-8.109l-0.2767,-0.7302l0.7508,-0.5348l0.4163,0.9245c0.2092,0.5248,3.4439,7.0436,3.5859,7.0996l0.0187,0.0074l0.0186,-0.0076c0.0227,-0.0093,0.0757,-0.031,1.6957,-3.2612c0.7733,-1.542,1.6837,-3.3839,1.8551,-3.7843l0.4477,-0.8724l0.7215,0.5428l-0.2887,0.694C15.7386,17.0811,12.6325,23.45,12.0017,23.45z" fill="#52B4C0"/>
  </g>
</svg>
