<?xml version="1.0" encoding="UTF-8"?>
<!DOCTYPE svg PUBLIC "-//W3C//DTD SVG 1.1//EN" "http://www.w3.org/Graphics/SVG/1.1/DTD/svg11.dtd">
<svg version="1.1" id="Layer_1" xmlns="http://www.w3.org/2000/svg" xmlns:xlink="http://www.w3.org/1999/xlink" x="0px" y="0px" width="24px" height="24px" viewBox="0 0 24 24" enable-background="new 0 0 24 24" xml:space="preserve">
  <g id="icon">
    <path d="M23.1995,22.9854c-0.123,-1.6766,-0.6421,-3.1865,-1.5427,-4.4879C20.5717,16.9293,18.6258,15.1661,16.5,14.3c0,0,-1.0295,-0.5855,-1.4,-0.8c-0.9568,1.0238,-1.9402,1.4,-3.0777,1.4c-1.144,0,-2.0617,-0.365,-3.0223,-1.4c-0.3612,0.2074,-1.4,0.7,-1.4,0.7c-5.121,2.1075,-6.6339,6.611,-6.7994,8.7848L0.7842,23.2h22.4311L23.1995,22.9854z" fill="#FFFFFF" opacity="0.5"/>
    <path d="M16.7,7.4486c0,3.1518,-2.0943,6.7406,-4.6777,6.7406s-4.6777,-3.5888,-4.6777,-6.7406S9.4388,2.6,12.0223,2.6S16.7,4.2969,16.7,7.4486z" fill="#FFFFFF" opacity="0.5"/>
    <path d="M11.9564,15.3c-1.2045,0,-2.5436,-0.7612,-3.4254,-1.9435h-0.2289c-1.7396,-0.1605,-2.8062,-0.639,-3.5767,-1.1314c-0.147,-0.0939,-0.231,-0.2402,-0.2306,-0.4012c0.0004,-0.1619,0.0859,-0.3085,0.2344,-0.4025c0.3641,-0.2303,0.5763,-0.451,0.8106,-0.8433c0.5375,-0.8996,0.5659,-1.8536,0.5229,-2.6681c-0.0074,-0.1405,-0.0152,-0.281,-0.023,-0.4215c-0.0422,-0.7614,-0.0859,-1.5487,-0.068,-2.3238c0.0188,-0.8113,0.2027,-1.6001,0.5468,-2.3443C7.114,1.5322,8.1713,0.8513,9.5759,0.8513c0.0414,0,0.0834,0.0006,0.1257,0.0018c0.0001,0,0.0002,0,0.0003,0c0.1215,0,0.2815,-0.0626,0.4161,-0.1595c0.5668,-0.4079,1.1933,-0.6369,1.8621,-0.6808C12.1095,0.0043,12.242,0,12.374,0c1.7403,0,4.0712,0.7869,4.9128,3.0044c0.48,1.2646,0.5399,2.5531,0.5602,3.7646c0.0121,0.723,0.0487,1.6738,0.2251,2.6166c0.1351,0.7222,0.3824,1.5271,1.1929,2.022c0.148,0.0903,0.2336,0.2348,0.235,0.3963c0.0014,0.1616,-0.0856,0.3136,-0.2327,0.4066c-0.8464,0.5352,-1.8667,1.0356,-3.2109,1.1455l-0.5226,0.0003C14.6983,14.4854,13.2029,15.3,11.9564,15.3zM7.8511,6.5197c-0.0432,0.2694,-0.0651,0.5483,-0.0651,0.8294c0,2.6385,1.6245,6.4711,4.1702,6.4711c2.4903,0,4.0195,-3.769,4.0195,-6.4711c0,-0.2355,-0.015,-0.469,-0.0446,-0.6943c-0.3008,-0.5326,-1.6798,-0.63,-3.0138,-0.7243c-1.2162,-0.0859,-2.4739,-0.1748,-3.2558,-0.5676c-0.0919,-0.0461,-0.191,-0.0695,-0.2947,-0.0695c-0.1503,0,-0.3003,0.0514,-0.4225,0.1447C8.4121,5.8448,8.0641,6.1891,7.8511,6.5197z" fill="#6485C3"/>
    <path d="M23.9432,22.9655c-0.1783,-2.2666,-1.296,-6.3951,-6.778,-8.5784l-1.1403,-0.3867l-0.0172,0.1158l-0.0123,-0.0093l-0.4762,0.9283c-1.0154,2.1982,-5.9312,2.2156,-7.0822,-0.0547l-0.4413,-0.98l-1.1403,0.3867c-5.482,2.1833,-6.5997,6.3118,-6.778,8.5784l-0.0507,0.6452C0.01,23.8208,0.1828,24,0.402,24h23.2165c0.2191,0,0.392,-0.1792,0.3755,-0.3894L23.9432,22.9655z" fill="#6485C3"/>
  </g>
</svg>
