<?xml version="1.0" encoding="UTF-8"?>
<!DOCTYPE svg PUBLIC "-//W3C//DTD SVG 1.1//EN" "http://www.w3.org/Graphics/SVG/1.1/DTD/svg11.dtd">
<svg version="1.1" id="Layer_1" xmlns="http://www.w3.org/2000/svg" xmlns:xlink="http://www.w3.org/1999/xlink" x="0px" y="0px" width="24px" height="24px" viewBox="0 0 24 24" enable-background="new 0 0 24 24" xml:space="preserve">
  <g id="icon">
    <path d="M9.75,0.75v4.8352c1.059,0.6257,1.8513,1.7683,1.9055,3.7743c2.1187,0.0979,4.4538,1.036,4.4538,4.6933c0,1.1183,-0.2305,2.1983,-0.6616,3.1439c0.5945,0.3163,1.0908,0.6743,1.5074,1.0532H22.75V0.75H9.75z" fill="#FFFFFF" opacity="0.5"/>
    <path d="M9,0v5.2373c0.8516,0.3021,1.6145,0.8442,2.1025,1.7627H22v4h-6.7319c0.209,0.2852,0.3864,0.6165,0.5237,1H22v5h-6.4693c-0.0275,0.0657,-0.0536,0.1323,-0.083,0.1968c0.9759,0.5192,1.6896,1.15,2.2132,1.8032H24V0H9zM22,6H11V2h11V6z" fill="#7B7B7B"/>
    <path d="M21,5h-3V3h3V5zM21,10h-3V8h3V10z" fill="#6485C3"/>
    <path d="M16.1093,14.0528c0,0.6245,-0.0744,1.2359,-0.2129,1.8198C16.0812,15.954,16.2851,16,16.5,16c0.8284,0,1.5,-0.6716,1.5,-1.5c0,-0.8284,-0.6716,-1.5,-1.5,-1.5c-0.1583,0,-0.3107,0.0249,-0.4539,0.0703C16.0871,13.3739,16.1093,13.7005,16.1093,14.0528z" fill="#6D6E71" opacity="0.5"/>
    <path d="M5.0129,24c-0.1239,0,-0.2216,-0.0958,-0.2123,-0.2081l0.0287,-0.3448c0.1008,-1.2113,0.7328,-3.8176,3.8324,-4.9843c0.7124,-0.2769,1.0512,-0.8785,0.7124,-1.316c-0.8471,-1.0391,-1.1844,-2.3739,-1.1844,-3.5916c0,-1.8858,0.6125,-3.0803,3.3469,-3.0803h0.0531c2.7237,0,3.3338,1.1945,3.3338,3.0803c0,1.2177,-0.336,2.5525,-1.1797,3.5916c-0.3375,0.4375,0,1.0391,0.7096,1.316c3.0875,1.1668,3.717,3.773,3.8175,4.9843l0.0286,0.3448c0.0093,0.1123,-0.088,0.2081,-0.2115,0.2081H5.0129zM0.3006,19.0169c-0.0093,0.1123,0.0884,0.2081,0.2123,0.2081h4.9077c0.7268,-0.7424,1.6619,-1.3351,2.7954,-1.7672c-0.7452,-1.0808,-1.1513,-2.4484,-1.1513,-3.9025c0,-0.8446,0.0972,-2.0724,0.9371,-2.9792c0.5615,-0.6062,1.3573,-0.9773,2.415,-1.1233c0.0039,-0.0913,0.0067,-0.1823,0.0067,-0.2725C10.4235,7.2945,9.8134,6.1,7.0897,6.1h-0.0531c-2.7343,0,-3.3469,1.1945,-3.3469,3.0803c0,1.2177,0.3373,2.5525,1.1844,3.5916c0.3388,0.4375,0,1.0391,-0.7124,1.316c-3.0996,1.1668,-3.7316,3.373,-3.8324,4.5843L0.3006,19.0169z" fill="#6485C3"/>
  </g>
</svg>
