<?xml version="1.0" encoding="UTF-8"?>
<!DOCTYPE svg PUBLIC "-//W3C//DTD SVG 1.1//EN" "http://www.w3.org/Graphics/SVG/1.1/DTD/svg11.dtd">
<svg version="1.1" id="Layer_1" xmlns="http://www.w3.org/2000/svg" xmlns:xlink="http://www.w3.org/1999/xlink" x="0px" y="0px" width="24px" height="24px" viewBox="0 0 24 24" enable-background="new 0 0 24 24" xml:space="preserve">
  <g id="icon">
    <path d="M0.1987,13.4491l0.7835,-1.1602l2.2449,1.4459c-0.9772,-2.9601,-0.5386,-6.2426,1.1949,-8.8397c1.5073,-2.2583,3.8038,-3.7944,6.4665,-4.3254c0.6635,-0.1323,1.3393,-0.1994,2.0087,-0.1994c1.9989,0,3.9431,0.5924,5.6224,1.7133c2.1477,1.4334,3.6569,3.6062,4.2496,6.118c0.5897,2.4989,0.2209,5.1021,-1.0383,7.3299l-0.0492,0.0871l-1.2188,-0.689l0.0492,-0.0871c2.2429,-3.968,1.0262,-9.0609,-2.7698,-11.5945c-1.4428,-0.963,-3.1207,-1.472,-4.8522,-1.472c-2.9448,0,-5.6751,1.4566,-7.3036,3.8963c-1.5593,2.3361,-1.9023,5.2957,-0.9224,7.9297l1.688,-2.2378l1.1382,0.8152L4.4767,16.268L0.1987,13.4491z" fill="#7B7B7B"/>
    <path d="M22.2003,24c0.1744,0,0.3119,-0.1387,0.2988,-0.3012l-0.0404,-0.4991c-0.1419,-1.7535,-1.0313,-4.9473,-5.3938,-6.6363c-1.0026,-0.4008,-1.4794,-1.2717,-1.0026,-1.905c1.1921,-1.5042,1.6669,-3.4364,1.6669,-5.1992c0,-2.7299,-0.8621,-4.4591,-4.7104,-4.4591h-0.0748c-3.8333,0,-4.692,1.7292,-4.692,4.4591c0,1.7628,0.4729,3.695,1.6604,5.1992c0.475,0.6333,0,1.5042,-0.9987,1.905c-4.3454,1.689,-5.2314,4.8829,-5.3727,6.6363l-0.0402,0.4991c-0.0131,0.1626,0.1239,0.3012,0.2976,0.3012H22.2003z" fill="#6485C3"/>
  </g>
</svg>
