<?xml version="1.0" encoding="UTF-8"?>
<!DOCTYPE svg PUBLIC "-//W3C//DTD SVG 1.1//EN" "http://www.w3.org/Graphics/SVG/1.1/DTD/svg11.dtd">
<svg version="1.1" id="Layer_1" xmlns="http://www.w3.org/2000/svg" xmlns:xlink="http://www.w3.org/1999/xlink" x="0px" y="0px" width="16px" height="16px" viewBox="0 0 16 16" enable-background="new 0 0 16 16" xml:space="preserve">
  <g id="icon">
    <path d="M12.5,15.5H3.5V2.5h9V15.5zM9.5,2.5V0.5H6.5v2" fill="#FFFFFF" stroke="#383838" stroke-width="1" stroke-miterlimit="1"/>
    <path d="M5.5,8.946V8.5h0.184L5.5,8.946zM8.597,13.5H10.5V8.804L8.597,13.5zM6.185,13.415c-0.017,-0.007,-0.025,-0.026,-0.018,-0.043L7.493,10.1H5.5v3.4h0.894L6.185,13.415z" fill="#ACD8B1"/>
    <path d="M7.628,14H5V8h0.89l-0.848,2.055c-0.004,0.011,-0.003,0.021,0.003,0.031s0.016,0.015,0.027,0.015H6v2.9h0.318l-0.151,0.373c-0.007,0.017,0.001,0.036,0.018,0.043L7.628,14zM10.826,8L10,10.038V13H8.799l-0.405,1H11V8H10.826z" fill="#0BA04A"/>
    <polygon points="7.955,13.485 6.936,13.072 8.384,9.5 5.92,9.5 8.019,4.412 9.036,4.831 7.564,8.4 10.016,8.4" fill="#ED8730" stroke-linejoin="miter"/>
  </g>
</svg>
