<?xml version="1.0" encoding="UTF-8"?>
<!DOCTYPE svg PUBLIC "-//W3C//DTD SVG 1.1//EN" "http://www.w3.org/Graphics/SVG/1.1/DTD/svg11.dtd">
<svg version="1.1" id="Layer_1" xmlns="http://www.w3.org/2000/svg" xmlns:xlink="http://www.w3.org/1999/xlink" x="0px" y="0px" width="16px" height="16px" viewBox="0 0 16 16" enable-background="new 0 0 16 16" xml:space="preserve">
  <g id="icon">
    <polygon points="3.5,3.5 3.5,6 3.5,6 8,6 8,13.5 11.5,13.5 11.5,3.5" fill="#FFFFFF" stroke-linejoin="miter"/>
    <polygon points="12,14 8,14 8,13 11,13 11,4 4,4 4,6 3,6 3,3 12,3" fill="#383838" stroke-linejoin="miter"/>
    <rect x="8" y="11" width="1.5" height="1" fill="#238BCB"/>
    <rect x="0.5" y="7.5" width="6" height="8" fill="#FFFFFF"/>
    <path d="M7,16H0V7h7V16zM1,15h5V8H1V15z" fill="#383838"/>
    <rect x="3" y="13" width="1" height="1" fill="#238BCB"/>
    <polygon points="5.5,0.5 5.5,2 5.5,2 13,2 13,9.5 15.5,9.5 15.5,0.5" fill="#FFFFFF" stroke-linejoin="miter"/>
    <polygon points="16,10 13,10 13,9 15,9 15,1 6,1 6,2 5,2 5,0 16,0" fill="#383838" stroke-linejoin="miter"/>
    <rect x="13" y="11" width="2" height="1" fill="#383838"/>
  </g>
</svg>
