<?xml version="1.0" encoding="UTF-8"?>
<!DOCTYPE svg PUBLIC "-//W3C//DTD SVG 1.1//EN" "http://www.w3.org/Graphics/SVG/1.1/DTD/svg11.dtd">
<svg version="1.1" id="Layer_1" xmlns="http://www.w3.org/2000/svg" xmlns:xlink="http://www.w3.org/1999/xlink" x="0px" y="0px" width="16px" height="16px" viewBox="0 0 16 16" enable-background="new 0 0 16 16" xml:space="preserve">
  <g id="icon">
    <rect x="1.5" y="0.5" width="12" height="15" fill="#FFFFFF" stroke="#383838" stroke-width="1" stroke-miterlimit="1"/>
    <path d="M11.5,3.5H3.5V0.5h8V3.5zM5.5,0.5v3M7.5,0.5v3M9.5,0.5v3" fill="#F7DA8E" stroke="#E57428" stroke-width="1" stroke-linecap="round" stroke-miterlimit="1"/>
    <path d="M7.554,5.5c-2.179,0,-3.946,1.767,-3.946,3.946c0,0.163,0.011,0.323,0.03,0.48l0.084,0.08c0.51,-0.587,1.168,-1.303,1.974,-2.149c0.256,-0.269,0.615,-0.423,0.985,-0.423c0.217,0,0.434,0.053,0.629,0.154c0.543,0.282,0.828,0.874,0.71,1.474c-0.38,1.924,-0.705,3.302,-0.97,4.116l0.211,0.201c0.097,0.007,0.194,0.012,0.292,0.012c2.179,0,3.946,-1.767,3.946,-3.946C11.5,7.267,9.733,5.5,7.554,5.5z" fill="#C8C6C4"/>
    <path d="M7.554,5.05c-2.424,0,-4.396,1.972,-4.396,4.396c0,0.172,0.011,0.352,0.033,0.534c0.019,0.158,0.119,0.287,0.253,0.351c0.182,-0.216,0.388,-0.453,0.619,-0.712c-0.003,-0.058,-0.006,-0.116,-0.006,-0.174c0,-1.928,1.568,-3.496,3.496,-3.496s3.496,1.568,3.496,3.496s-1.568,3.496,-3.496,3.496c-0.077,0,-0.16,-0.003,-0.259,-0.011c-0.061,-0.004,-0.119,0.004,-0.174,0.022c-0.083,0.276,-0.161,0.501,-0.233,0.673c0.074,0.112,0.197,0.192,0.341,0.202c0.122,0.009,0.225,0.013,0.325,0.013c2.424,0,4.396,-1.972,4.396,-4.396C11.95,7.022,9.978,5.05,7.554,5.05z" fill="#383838"/>
    <path d="M5.693,13.234c-0.415,0.8,-1.116,1.256,-1.782,0.911c-0.666,-0.346,-0.695,-1.187,-0.28,-1.987c0.337,-0.649,2.257,-2.69,2.97,-3.437c0.078,-0.082,0.215,-0.011,0.193,0.1C6.593,9.835,6.03,12.585,5.693,13.234z" fill="#FFFFFF" stroke="#383838" stroke-width="0.9" stroke-miterlimit="1"/>
  </g>
</svg>
