<?xml version="1.0" encoding="UTF-8"?>
<!DOCTYPE svg PUBLIC "-//W3C//DTD SVG 1.1//EN" "http://www.w3.org/Graphics/SVG/1.1/DTD/svg11.dtd">
<svg version="1.1" id="Layer_1" xmlns="http://www.w3.org/2000/svg" xmlns:xlink="http://www.w3.org/1999/xlink" x="0px" y="0px" width="16px" height="16px" viewBox="0 0 16 16" enable-background="new 0 0 16 16" xml:space="preserve">
  <g id="icon">
    <path d="M3.5,14.5H1.5v-2h2V14.5zM5.5,12.5H3.5v2h2V12.5zM7.5,12.5H5.5v2h2V12.5zM9.5,12.5H7.5v2h2V12.5z" fill="#FFFFFF" stroke="#ED8730" stroke-width="1" stroke-miterlimit="1"/>
    <rect x="0.5" y="1.5" width="15" height="11" fill="#FFFFFF" stroke="#383838" stroke-width="1" stroke-miterlimit="1"/>
    <line x1="1.25" y1="12.5" x2="9.5" y2="12.5" fill="#FFFFFF" stroke="#383838" stroke-width="1" stroke-miterlimit="1"/>
    <path d="M4,8H2v3h2V8zM7,8H5v3h2V8zM10.5,3H8v2h2.5V3zM14,3h-2.5v2h2.5V3zM10.5,6H8v2h2.5V6zM14,6h-2.5v2h2.5V6zM10.5,9H8v2h2.5V9zM14,9h-2.5v2h2.5V9z" fill="#78797A"/>
    <rect x="2.5" y="3.5" width="4" height="3" fill="none" stroke="#787979" stroke-width="1" stroke-miterlimit="1"/>
  </g>
</svg>
