<?xml version="1.0" encoding="UTF-8"?>
<!DOCTYPE svg PUBLIC "-//W3C//DTD SVG 1.1//EN" "http://www.w3.org/Graphics/SVG/1.1/DTD/svg11.dtd">
<svg version="1.1" id="Layer_1" xmlns="http://www.w3.org/2000/svg" xmlns:xlink="http://www.w3.org/1999/xlink" x="0px" y="0px" width="16px" height="16px" viewBox="0 0 16 16" enable-background="new 0 0 16 16" xml:space="preserve">
  <g id="icon">
    <path d="M7,13.5H1.5v-2h5.5V13.5zM14.5,11.5H9v2h5.5V11.5z" fill="#F7DA8E" stroke="#E57428" stroke-width="1" stroke-linecap="round" stroke-miterlimit="1"/>
    <path d="M14.75,6.125c0,-0.49,0.313,-1.005,0.75,-1.16L15.5,3.5H0.5v1.465c0.437,0.155,0.75,0.67,0.75,1.16c0,0.49,-0.313,1.005,-0.75,1.16V11.5h15l0,-4.215C15.063,7.13,14.75,6.615,14.75,6.125z" fill="#FFFFFF" stroke="#383838" stroke-width="1" stroke-miterlimit="1"/>
    <path d="M4.5,10H2.5V5h2V10zM7.5,5H5.5v5h2V5zM10.5,5H8.5v5h2V5zM13.5,5h-2v5h2V5z" fill="#78797A"/>
  </g>
</svg>
