<?xml version="1.0" encoding="UTF-8"?>
<!DOCTYPE svg PUBLIC "-//W3C//DTD SVG 1.1//EN" "http://www.w3.org/Graphics/SVG/1.1/DTD/svg11.dtd">
<svg version="1.1" id="Layer_1" xmlns="http://www.w3.org/2000/svg" xmlns:xlink="http://www.w3.org/1999/xlink" x="0px" y="0px" width="16px" height="16px" viewBox="0 0 16 16" enable-background="new 0 0 16 16" xml:space="preserve">
  <g id="icon">
    <rect y="2" width="16" height="12" fill="#F7CE73"/>
    <polygon points="1,8 2.5,3 4,3 4,13 2.5,13" fill="#F7A57F" stroke-linejoin="miter"/>
    <rect x="1" y="3" width="1.5" height="10" fill="#64C080"/>
    <rect x="5" y="3" width="10" height="10" fill="#F3797F"/>
    <path d="M12.323,11.275c-0.051,0,-0.11,-0.021,-0.174,-0.062l-0.06,-0.039l-0.022,0.032c-0.033,0.048,-0.063,0.064,-0.122,0.064c-0.012,0,-0.025,-0.001,-0.041,-0.002c-0.053,-0.004,-0.117,-0.015,-0.147,-0.067c-0.006,-0.01,-0.011,-0.02,-0.016,-0.028c-0.008,0.007,-0.019,0.017,-0.032,0.03c-0.043,0.044,-0.092,0.067,-0.143,0.067c-0.049,0,-0.097,-0.021,-0.139,-0.062l-0.041,-0.039l-0.066,0.043c-0.047,0.03,-0.112,0.06,-0.147,0.06c-0.019,0,-0.041,-0.002,-0.055,-0.02c-0.016,-0.021,-0.011,-0.049,-0.003,-0.079c0.024,-0.093,0.048,-0.133,0.124,-0.2c0.063,-0.056,0.115,-0.065,0.293,-0.075c0.19,-0.011,0.208,-0.018,0.259,-0.067l0.056,-0.053l-0.007,-0.307c-0.009,-0.372,-0.023,-0.411,-0.246,-0.695c-0.204,-0.26,-0.28,-0.417,-0.28,-0.58v-0.105c-0.004,0,-0.007,0,-0.011,0c-0.321,0,-0.539,0.063,-1.111,0.322c-0.206,0.093,-0.445,0.196,-0.489,0.206l-0.094,0.022c-0.045,0.079,-0.093,0.159,-0.146,0.239c-0.089,0.137,-0.119,0.239,-0.089,0.303c0.025,0.053,0.095,0.086,0.208,0.099c0.151,0.017,0.151,0.042,0.151,0.06c0,0.054,-0.163,0.23,-0.211,0.256c-0.031,0.017,-0.116,0.051,-0.189,0.077c-0.109,0.038,-0.109,0.038,-0.106,0.105c0.003,0.049,0.011,0.129,0.02,0.179c0.014,0.085,0.004,0.124,-0.053,0.21c-0.046,0.07,-0.068,0.102,-0.13,0.102c-0.02,0,-0.044,-0.003,-0.072,-0.007c-0.057,-0.007,-0.135,-0.03,-0.167,-0.057c-0.015,-0.013,-0.021,-0.016,-0.022,-0.016c-0.007,0,-0.034,0.02,-0.046,0.029c-0.046,0.034,-0.105,0.053,-0.166,0.053c-0.062,0,-0.119,-0.019,-0.158,-0.055l-0.035,-0.031l-0.044,0.033c-0.045,0.034,-0.104,0.053,-0.161,0.053c-0.059,0,-0.109,-0.021,-0.136,-0.058l-0.018,-0.025l-0.057,0.033c-0.058,0.033,-0.098,0.049,-0.127,0.049c-0.022,0,-0.035,-0.009,-0.042,-0.016c-0.01,-0.01,-0.015,-0.025,-0.015,-0.042c0,-0.087,0.087,-0.264,0.158,-0.32c0.066,-0.053,0.1,-0.061,0.24,-0.061c0.021,0,0.113,0.001,0.13,0.001c0.14,0,0.177,-0.009,0.233,-0.042c0.205,-0.12,0.223,-0.301,0.073,-0.742c-0.034,-0.1,-0.063,-0.189,-0.086,-0.269c-0.006,0.004,-0.014,0.007,-0.026,0.007c-0.071,0,-0.322,-0.138,-0.473,-0.25c0.001,0.003,0.001,0.006,0.001,0.008c0,0.066,-0.227,0.241,-0.309,0.274c-0.032,0.013,-0.092,0.034,-0.116,0.034h-0.002l-0.004,-0.001c-0.01,-0.002,-0.045,-0.008,-0.076,-0.013c-0.053,-0.009,-0.198,-0.14,-0.267,-0.208c-0.104,-0.102,-0.185,-0.169,-0.207,-0.18c-0.042,0.002,-0.086,0.038,-0.086,0.054c0,0.015,0,0.056,-0.036,0.056c-0.018,0,-0.031,-0.012,-0.056,-0.036c-0.044,-0.042,-0.051,-0.102,-0.051,-0.288c0,-0.211,0,-0.211,-0.056,-0.254c-0.032,-0.024,-0.05,-0.044,-0.057,-0.062c-0.045,0.04,-0.068,0.053,-0.089,0.053c-0.016,0,-0.034,-0.007,-0.043,-0.035c-0.007,0.007,-0.016,0.013,-0.028,0.018c-0.023,0.01,-0.054,0.015,-0.09,0.015c0,0,-0.007,0,-0.01,0c0.012,0.01,0.021,0.022,0.024,0.034c0.001,0.005,0.002,0.008,0.02,0.008c0.008,0,0.018,-0.001,0.029,-0.002c0.014,-0.002,0.028,-0.003,0.041,-0.003c0.078,0,0.142,0.033,0.159,0.082c0.012,0.036,-0.002,0.073,-0.039,0.102c-0.019,0.015,-0.039,0.022,-0.062,0.022c-0.021,0,-0.046,-0.005,-0.084,-0.019c-0.029,-0.01,-0.055,-0.015,-0.069,-0.016c0,0.023,0.028,0.095,0.071,0.136c0.06,0.057,0.069,0.078,0.014,0.142c-0.077,0.091,-0.076,0.246,0.002,0.321c0.028,0.027,0.041,0.032,0.045,0.034c0,-0.002,0.003,-0.007,0.007,-0.02c0.011,-0.04,0.048,-0.066,0.094,-0.066c0.035,0,0.069,0.015,0.092,0.042c0.023,0.027,0.031,0.073,0.019,0.11c-0.023,0.07,-0.16,0.155,-0.248,0.155c-0.015,0,-0.022,0.003,-0.023,0.004c0.002,0.001,0.012,0.025,0.06,0.063l0.126,0.101l-0.176,0.025c-0.081,0.012,-0.081,0.018,-0.081,0.034c0,0.033,-0.018,0.084,-0.043,0.117c-0.005,0.006,-0.047,0.062,-0.085,0.062c-0.048,0,-0.11,-0.136,-0.121,-0.193c-0.012,-0.005,-0.039,-0.014,-0.077,-0.02l-0.171,-0.027l0.122,-0.093c0.05,-0.038,0.054,-0.064,0.053,-0.067c-0.001,-0.001,-0.008,-0.006,-0.028,-0.006c-0.046,0,-0.113,-0.036,-0.154,-0.071c-0.063,-0.054,-0.087,-0.087,-0.069,-0.154c0.013,-0.05,0.049,-0.082,0.094,-0.082c0.037,0,0.076,0.023,0.105,0.062l0.016,0.022l0.034,-0.037c0.064,-0.07,0.069,-0.217,0.009,-0.303l-0.059,-0.085l0.074,-0.083c0.05,-0.056,0.053,-0.086,0.05,-0.092c-0.001,-0.002,-0.009,-0.006,-0.025,-0.006h-0.008c-0.011,0.001,-0.022,0.001,-0.032,0.001c-0.155,0,-0.172,-0.081,-0.172,-0.116c0,-0.06,0.041,-0.104,0.098,-0.104c0.023,0,0.046,0.007,0.069,0.02c0.032,0.019,0.049,0.022,0.057,0.022c0.004,0,0.014,0,0.014,-0.034c0,-0.028,0,-0.061,0.021,-0.076c-0.065,-0.031,-0.092,-0.059,-0.092,-0.12c0,-0.028,0,-0.062,0.03,-0.076c-0.039,-0.017,-0.066,-0.044,-0.075,-0.075c-0.01,-0.037,0.005,-0.075,0.042,-0.104c0.002,-0.002,0.004,-0.003,0.007,-0.005c-0.039,-0.013,-0.068,-0.033,-0.087,-0.07c-0.026,-0.048,-0.03,-0.088,-0.012,-0.117c0.015,-0.025,0.044,-0.039,0.084,-0.04c-0.018,-0.015,-0.029,-0.031,-0.032,-0.051c-0.004,-0.027,0.001,-0.049,0.015,-0.066c0.012,-0.014,0.029,-0.023,0.052,-0.028c-0.077,-0.012,-0.145,-0.032,-0.194,-0.056c-0.123,-0.06,-0.195,-0.17,-0.184,-0.281c0.009,-0.093,0.076,-0.165,0.18,-0.192c0.028,-0.007,0.054,-0.011,0.077,-0.011c0.026,0,0.05,0.005,0.07,0.013c-0.019,-0.081,-0.021,-0.247,-0.021,-0.749c0,-1.141,0.075,-1.687,0.288,-2.087c0.113,-0.213,0.245,-0.366,0.414,-0.481c0.086,-0.058,0.107,-0.07,0.126,-0.07h0.017l0.013,0.017c0.013,0.022,0.001,0.045,-0.027,0.097c-0.122,0.225,-0.217,1.189,-0.24,2.455c-0.01,0.529,-0.015,0.721,-0.033,0.808c0.015,-0.005,0.032,-0.007,0.05,-0.007c0.026,0,0.054,0.005,0.086,0.015c0.102,0.032,0.167,0.107,0.172,0.202c0.006,0.105,-0.06,0.207,-0.172,0.268l0.375,0.364c0.172,0.167,0.276,0.273,0.337,0.347c-0.043,-0.148,-0.054,-0.3,-0.031,-0.45c0.072,-0.459,0.329,-0.825,0.762,-1.088c0.246,-0.149,0.26,-0.217,0.242,-0.264c-0.022,-0.056,-0.048,-0.056,-0.056,-0.056c-0.016,0,-0.037,0.008,-0.06,0.025c-0.034,0.024,-0.059,0.06,-0.061,0.074c-0.009,0.057,-0.043,0.063,-0.057,0.063c-0.054,0,-0.105,-0.085,-0.138,-0.156c-0.023,-0.048,-0.038,-0.073,-0.047,-0.086c-0.001,0.007,-0.003,0.016,-0.004,0.028c-0.009,0.087,-0.044,0.105,-0.072,0.105c-0.033,0,-0.065,-0.027,-0.1,-0.082c-0.012,-0.019,-0.031,-0.05,-0.038,-0.053c-0.006,0,-0.025,0.009,-0.036,0.014c-0.037,0.018,-0.102,0.039,-0.146,0.048l-0.139,0.028l0.076,-0.141c0.009,-0.016,0.016,-0.03,0.021,-0.042c-0.008,0.002,-0.016,0.004,-0.025,0.007c-0.04,0.012,-0.128,0.027,-0.196,0.033l-0.166,0.016L7.3,6.693c0.018,-0.058,0.045,-0.144,0.06,-0.192c0.018,-0.057,0.039,-0.109,0.093,-0.117c-0.078,-0.05,-0.135,-0.117,-0.144,-0.174c-0.005,-0.031,0.003,-0.058,0.024,-0.078c0.011,-0.011,0.026,-0.016,0.045,-0.016c0.039,0,0.104,0.023,0.248,0.087c0.301,0.134,0.599,0.217,0.778,0.217c0.013,0,0.024,0.001,0.034,0.002c-0.02,-0.028,-0.043,-0.058,-0.07,-0.088c-0.074,-0.086,-0.156,-0.196,-0.181,-0.245l-0.014,-0.028l-0.001,0.002c-0.014,0.036,-0.023,0.075,-0.023,0.087c0,0.047,-0.028,0.052,-0.04,0.052c-0.017,0,-0.035,-0.009,-0.071,-0.032c-0.039,-0.024,-0.085,-0.063,-0.105,-0.089c-0.002,-0.002,-0.003,-0.004,-0.005,-0.006c0,0.007,0.001,0.015,0.002,0.025l0.017,0.14l-0.128,-0.071c-0.041,-0.023,-0.094,-0.064,-0.113,-0.098c-0.011,-0.019,-0.088,-0.106,-0.182,-0.2c-0.084,-0.084,-0.173,-0.191,-0.184,-0.241c-0.007,-0.035,-0.024,-0.093,-0.036,-0.13c-0.039,-0.117,-0.031,-0.226,0.021,-0.299c0.041,-0.057,0.107,-0.088,0.187,-0.088c0.074,0,0.138,0.026,0.18,0.074c0.038,0.044,0.054,0.103,0.045,0.166c-0.002,0.017,-0.004,0.03,-0.005,0.04c0.034,-0.01,0.11,-0.021,0.169,-0.026c0.075,-0.007,0.156,-0.027,0.185,-0.04c0.039,-0.019,0.127,-0.034,0.198,-0.034c0.135,0,0.221,-0.038,0.287,-0.126c0.042,-0.055,0.04,-0.066,0.025,-0.104l-0.04,-0.099l0.178,-0.02c0.046,-0.005,0.084,-0.008,0.117,-0.008c0.108,0,0.178,0.026,0.258,0.095c0.056,0.049,0.087,0.056,0.1,0.056c0.039,0,0.043,-0.082,0.043,-0.117c0,-0.058,0,-0.124,0.073,-0.124c0.025,0,0.057,0.007,0.115,0.023c0.061,0.016,0.141,0.067,0.208,0.134l0.075,0.074l0.03,-0.056c0.03,-0.055,0.045,-0.103,0.046,-0.113c0,-0.052,0.04,-0.057,0.052,-0.057c0.011,0,0.023,0.002,0.04,0.007c0.114,0.033,0.231,0.101,0.299,0.173c0.048,0.051,0.07,0.06,0.141,0.06c0.072,0,0.097,-0.011,0.16,-0.071l0.149,-0.142l-0.031,0.182c-0.02,0.12,-0.068,0.21,-0.169,0.319l-0.057,0.061l0.032,0.04c0.097,0.125,0.113,0.222,0.1,0.611c-0.012,0.375,-0.02,0.382,-0.03,0.392l-0.009,0.008h-0.013c-0.005,0,-0.013,0,-0.042,-0.02c0.005,0.016,0.007,0.034,0.007,0.055c0,0.038,0.011,0.097,0.024,0.128c0.065,0.156,0.061,0.182,0.048,0.201l-0.009,0.013l-0.021,0.003c-0.008,0,-0.015,-0.002,-0.023,-0.007c-0.033,-0.018,-0.068,-0.04,-0.103,-0.063c0.009,0.024,0.014,0.052,0.018,0.09c0.006,0.058,0.031,0.129,0.058,0.165l0.089,0.119h-0.067c0.013,0.008,0.024,0.017,0.032,0.028l0.59,0.015c0.18,0.005,0.288,0.006,0.372,0.006c0.187,0,0.265,-0.01,0.369,-0.031c0.134,-0.028,0.252,-0.037,0.505,-0.037c0.047,0,0.1,0,0.157,0.001c0.081,0.001,0.148,0.001,0.205,0.001c0.245,0,0.302,-0.009,0.457,-0.052c0.244,-0.067,0.316,-0.101,0.389,-0.183c0.08,-0.09,0.113,-0.199,0.09,-0.3c-0.022,-0.098,-0.094,-0.177,-0.2,-0.222c-0.063,-0.026,-0.174,-0.042,-0.305,-0.042c-0.122,0,-0.253,0.013,-0.369,0.036c-0.241,0.049,-0.483,0.074,-0.701,0.074c-0.251,0,-0.469,-0.034,-0.63,-0.098c-0.205,-0.082,-0.281,-0.109,-0.325,-0.109c-0.013,0,-0.024,0.002,-0.039,0.008c-0.058,0.021,-0.09,0.073,-0.096,0.155c-0.007,0.095,-0.039,0.095,-0.05,0.095l0,0c-0.01,0,-0.03,0,-0.101,-0.098c-0.086,-0.117,-0.092,-0.275,-0.016,-0.394l0.036,-0.055l-0.056,-0.066c-0.258,-0.306,-0.253,-0.639,0.013,-0.893c0.146,-0.139,0.415,-0.269,0.641,-0.311c0.067,-0.012,0.159,-0.019,0.266,-0.019c0.218,0,0.453,0.026,0.583,0.064c0.317,0.093,0.755,0.348,1.116,0.649c0.081,0.068,0.329,0.274,0.414,0.274c0.009,0,0.015,0,0.019,-0.001c-0.001,-0.005,-0.002,-0.013,-0.005,-0.026c-0.013,-0.055,0,-0.099,0.042,-0.15c0.039,-0.047,0.092,-0.073,0.149,-0.073c0.071,0,0.136,0.041,0.174,0.109c0.052,0.095,0.052,0.199,0.001,0.285c-0.056,0.094,-0.164,0.15,-0.289,0.15c-0.187,0,-0.319,-0.061,-0.52,-0.242c-0.17,-0.153,-0.3,-0.254,-0.357,-0.29c0.012,0.07,0.068,0.226,0.099,0.249c0.024,0.019,0.049,0.041,0.04,0.068c-0.003,0.007,-0.011,0.025,-0.039,0.025c-0.033,0,-0.1,-0.026,-0.151,-0.048c-0.131,-0.056,-0.238,-0.146,-0.294,-0.247l-0.005,-0.009l-0.01,0.026c-0.019,0.053,-0.054,0.116,-0.08,0.143c-0.05,0.054,-0.186,0.115,-0.254,0.115c-0.011,0,-0.038,0,-0.049,-0.023c-0.013,-0.026,0.007,-0.052,0.035,-0.089c0.024,-0.032,0.056,-0.104,0.07,-0.157c0.023,-0.085,0.021,-0.101,-0.021,-0.183c-0.047,-0.093,-0.11,-0.146,-0.23,-0.196c-0.004,-0.002,-0.008,-0.003,-0.011,-0.004c0.004,0.009,0.01,0.021,0.019,0.037c0.058,0.105,0.051,0.29,-0.014,0.39c-0.06,0.092,-0.176,0.166,-0.297,0.191l-0.144,0.029l0.094,-0.156c0.069,-0.115,0.074,-0.268,0.012,-0.364c-0.052,-0.082,-0.233,-0.194,-0.311,-0.194c-0.008,0,-0.022,0,-0.029,0.001c-0.001,0.012,0.003,0.041,0.005,0.061c0.012,0.089,-0.021,0.181,-0.057,0.222c-0.021,0.024,-0.041,0.029,-0.054,0.029c-0.017,0,-0.048,-0.008,-0.063,-0.064c-0.011,-0.039,-0.053,-0.062,-0.112,-0.062c-0.028,0,-0.057,0.005,-0.088,0.015c-0.093,0.031,-0.158,0.096,-0.177,0.178c-0.019,0.081,0.01,0.166,0.078,0.234c0.03,0.029,0.053,0.049,0.068,0.061c0.008,-0.009,0.018,-0.024,0.03,-0.044c0.055,-0.092,0.176,-0.154,0.301,-0.154c0.058,0,0.112,0.014,0.155,0.041l0.107,0.067l-0.152,0.073c-0.119,0.057,-0.157,0.126,-0.125,0.224c0.014,0.041,0.041,0.094,0.059,0.116c0.002,0.003,0.004,0.005,0.006,0.007c0.036,-0.066,0.167,-0.181,0.219,-0.181h0.005l0.008,0.002c0.031,0.01,0.053,0.046,0.058,0.077c0.017,0.106,0.027,0.122,0.113,0.167c0.077,0.041,0.11,0.049,0.309,0.049h0.04c0.145,-0.001,0.357,-0.019,0.483,-0.041s0.347,-0.042,0.492,-0.043h0.06c0.195,0,0.237,0.011,0.363,0.066c0.225,0.098,0.371,0.275,0.401,0.488c0.03,0.209,-0.059,0.416,-0.242,0.568l-0.1,0.082l0.077,0.103c0.054,0.071,0.126,0.2,0.162,0.287c0.06,0.143,0.066,0.189,0.066,0.447c-0.001,0.316,-0.02,0.407,-0.189,0.877c-0.163,0.453,-0.185,0.723,-0.078,0.962c0.049,0.11,0.124,0.178,0.196,0.178s0.095,0.038,0.102,0.061c0.024,0.075,-0.051,0.194,-0.183,0.288c-0.14,0.1,-0.174,0.154,-0.172,0.274c0.001,0.087,0.036,0.164,0.147,0.331c0.028,0.042,0.051,0.103,0.037,0.138c-0.008,0.021,-0.034,0.046,-0.104,0.046c-0.072,0,-0.18,-0.027,-0.238,-0.077c-0.012,-0.011,-0.021,-0.017,-0.026,-0.021c-0.029,0.062,-0.092,0.099,-0.166,0.099c-0.055,0,-0.112,-0.021,-0.159,-0.058l-0.049,-0.039l-0.047,0.039c-0.048,0.039,-0.102,0.06,-0.154,0.06c-0.055,0,-0.102,-0.024,-0.132,-0.067l-0.021,-0.031l-0.06,0.039c-0.063,0.041,-0.105,0.059,-0.135,0.059c-0.023,0,-0.037,-0.011,-0.044,-0.02c-0.006,-0.007,-0.009,-0.016,-0.011,-0.025C12.407,11.259,12.369,11.275,12.323,11.275L12.323,11.275zM12.614,10.141c0.063,0,0.111,0.006,0.111,0.076c0,0.058,-0.132,0.215,-0.138,0.222c-0.164,0.194,-0.19,0.273,-0.141,0.421c0.026,0.079,0.039,0.15,0.039,0.211c0.07,-0.107,0.202,-0.184,0.389,-0.225c0.251,-0.056,0.256,-0.057,0.234,-0.403c-0.022,-0.34,-0.036,-0.358,-0.505,-0.651c-0.026,-0.016,-0.05,-0.032,-0.073,-0.047l-0.073,0.091c-0.078,0.097,-0.083,0.181,-0.015,0.255c0.037,0.041,0.054,0.051,0.125,0.051L12.614,10.141z" fill="#F7CE73"/>
    <rect x="0.5" y="2.5" width="15" height="11" fill="none" stroke="#231F20" stroke-width="1" stroke-miterlimit="1" opacity="0.35"/>
  </g>
</svg>
