<?xml version="1.0" encoding="UTF-8"?>
<!DOCTYPE svg PUBLIC "-//W3C//DTD SVG 1.1//EN" "http://www.w3.org/Graphics/SVG/1.1/DTD/svg11.dtd">
<svg version="1.1" id="Layer_1" xmlns="http://www.w3.org/2000/svg" xmlns:xlink="http://www.w3.org/1999/xlink" x="0px" y="0px" width="16px" height="16px" viewBox="0 0 16 16" enable-background="new 0 0 16 16" xml:space="preserve">
  <g id="icon">
    <rect y="2" width="16" height="12" fill="#FFFFFF"/>
    <rect x="6" y="2" width="4" height="12" fill="#F3797F"/>
    <rect y="6" width="16" height="4" fill="#7BA3D6"/>
    <path d="M8,6.978L8.301,7.2l-0.111,-0.364l0.285,-0.222h-0.364L8,6.25l-0.111,0.364h-0.364l0.285,0.222L7.699,7.2L8,6.978zM7,9.328l0.301,0.222l-0.111,-0.364l0.285,-0.222h-0.364L7,8.6l-0.111,0.364h-0.364l0.285,0.222l-0.111,0.364L7,9.328zM9,9.328l0.301,0.222l-0.111,-0.364l0.285,-0.222h-0.364L9,8.6l-0.111,0.364h-0.364l0.285,0.222l-0.111,0.364L9,9.328zM9.6,7.828l0.301,0.222l-0.111,-0.364l0.285,-0.222h-0.364L9.6,7.1l-0.111,0.364h-0.364l0.285,0.222l-0.111,0.364L9.6,7.828zM6.4,7.828l0.301,0.222l-0.111,-0.364l0.285,-0.222h-0.364L6.4,7.1l-0.111,0.364h-0.364l0.285,0.222l-0.111,0.364L6.4,7.828z" fill="#FFFFFF"/>
    <rect x="0.5" y="2.5" width="15" height="11" fill="none" stroke="#231F20" stroke-width="1" stroke-miterlimit="1" opacity="0.35"/>
  </g>
</svg>
