<?xml version="1.0" encoding="UTF-8"?>
<!DOCTYPE svg PUBLIC "-//W3C//DTD SVG 1.1//EN" "http://www.w3.org/Graphics/SVG/1.1/DTD/svg11.dtd">
<svg version="1.1" id="Layer_1" xmlns="http://www.w3.org/2000/svg" xmlns:xlink="http://www.w3.org/1999/xlink" x="0px" y="0px" width="16px" height="16px" viewBox="0 0 16 16" enable-background="new 0 0 16 16" xml:space="preserve">
  <g id="icon">
    <path d="M0,2h16v12H0V2z" fill="#F3797F"/>
    <path d="M0,2h8v6H0V2z" fill="#7AA2D6"/>
    <path d="M8,2.721L6.361,4.25H8v1.5H6.281L8,7.329V8h-0.894L4.8,5.921V8H3.2V6.021L0.894,8H0l0,0v-0.671L1.772,5.75H0v-1.5h1.639L0,2.671V2h0.894L3.2,4.079V2h1.6v2.079L7.106,2H8V2.721z" fill="#FFFFFF"/>
    <path d="M2.48,4.25L0,2h0.596l2.48,2.25H2.48zM4.924,5.75L7.404,8H8L5.52,5.75H4.924zM2.667,5.75L0,8v-0.447L2.07,5.75H2.667zM5.467,4.25h0.596L8,2.497V2L5.467,4.25zM4.533,4.5H8v1H4.533v2.5H3.467V5.5H0V4.5h3.467V2h1.067L4.533,4.5L4.533,4.5z" fill="#F3797F"/>
    <path d="M12,12.111l-1.55,-0.566c-0.325,-0.118,-0.95,-0.354,-0.95,-0.967V6h5v4.577c0,0.613,-0.625,0.849,-0.95,0.967L12,12.111z" fill="#797A7B"/>
    <path d="M9.85,6.33v4.247c0,0.354,0.35,0.519,0.725,0.661l1.425,0.519l1.425,-0.519c0.375,-0.142,0.725,-0.283,0.725,-0.661V6.33H9.85" fill="#FFFFFF"/>
    <path d="M10.2,10.058v0.33c0,0.307,0.3,0.448,0.6,0.566l1.2,0.448l1.2,-0.448c0.3,-0.118,0.6,-0.26,0.6,-0.566v-0.33H10.2" fill="#64C080"/>
    <path d="M10.7,10.507c-0.1,-0.047,-0.075,-0.354,0.025,-0.425c0.075,-0.047,0.35,-0.024,0.35,-0.024l0.125,-0.26l0.35,0.165l-0.25,0.283c0,0,-0.05,0.212,-0.125,0.236c-0.025,0,-0.075,-0.094,-0.1,-0.071c-0.05,0,-0.075,0.189,-0.15,0.189s-0.05,-0.212,-0.1,-0.212C10.8,10.365,10.75,10.53,10.7,10.507M13.225,10.554c0.1,-0.047,0.075,-0.354,-0.025,-0.425c-0.075,-0.047,-0.35,-0.024,-0.35,-0.024l-0.1,-0.283l-0.35,0.165l0.25,0.283c0,0,0.05,0.212,0.125,0.236c0.025,0,0.075,-0.094,0.1,-0.071c0.05,0,0.075,0.189,0.15,0.189s0.05,-0.212,0.1,-0.212C13.15,10.389,13.175,10.554,13.225,10.554M12.85,8.619l-0.125,0.33l0.475,0.378v0.165c0,0,0.375,0.165,0.45,0.094c0.15,-0.118,0.075,-0.637,-0.075,-0.779C13.45,8.69,12.85,8.619,12.85,8.619M11.025,8.501c0,0,-0.425,0.118,-0.525,0.212c-0.15,0.142,-0.35,0.731,-0.15,0.849c0.1,0.047,0.375,-0.212,0.375,-0.212l0.425,-0.26L11.025,8.501M10.825,8.029l0.225,0.189l0.525,-0.212l0.8,-0.024l0.7,0.212l0.175,-0.189c0,0,0.15,-0.071,0.125,-0.118c0,-0.024,-0.075,-0.071,-0.125,-0.071c-0.1,0,-0.425,0.118,-0.425,0.118l-0.2,-0.118l-0.1,-0.165c0,0,0.15,-0.024,0.15,-0.071s-0.15,-0.142,-0.15,-0.142s0.175,-0.047,0.175,-0.094s-0.125,-0.142,-0.125,-0.142s0.125,-0.094,0.1,-0.142c-0.025,-0.024,-0.2,-0.024,-0.2,-0.024s0.075,-0.094,0.075,-0.142c-0.025,-0.024,-0.125,-0.071,-0.125,-0.071s0,-0.212,-0.025,-0.212l-0.15,0.047c0,0,-0.025,-0.118,-0.075,-0.118c-0.025,0,-0.15,0.118,-0.15,0.118s-0.175,-0.047,-0.2,-0.047c-0.05,0.024,-0.05,0.189,-0.05,0.189s-0.1,0.071,-0.125,0.118s0.05,0.189,0.05,0.189s-0.125,-0.071,-0.15,-0.047c-0.05,0.047,0.075,0.165,0.075,0.165s-0.175,0.047,-0.175,0.094c0,0.071,0.225,0.094,0.225,0.094s-0.225,0.071,-0.225,0.142c-0.025,0.047,0.125,0.142,0.125,0.142l-0.025,0.189l-0.3,0.071c0,0,-0.075,-0.118,-0.125,-0.142C11,7.77,10.7,7.77,10.65,7.864C10.6,7.911,10.825,8.029,10.825,8.029" fill="#F3797F"/>
    <path d="M11.1,8.808l-0.45,-0.354c0,0,-0.125,-0.378,0.2,-0.425c0.3,-0.047,1.2,-0.094,1.2,-0.094s1.125,0.024,1.2,0.071c0.275,0.165,0,0.519,0,0.519l-0.375,0.33l0.275,0.637l-2.1,-0.047L11.1,8.808" fill="#77B7C9"/>
    <polygon points="10.95,9.233 11.075,8.501 11.65,8.312 12.075,8.902 12.05,9.846" fill="#FFD035" stroke-linejoin="miter"/>
    <polygon points="11.55,9.468 11.65,8.926 12.425,8.737 12.85,9.492 12.175,9.94" fill="#797A7B" stroke-linejoin="miter"/>
    <path d="M10.775,9.35l0.2,-0.165c0,0,0.325,0.236,0.45,0.26c0.075,0.024,0.275,-0.071,0.35,-0.024c0.05,0.047,0.025,0.236,0.1,0.26c0.15,0.047,0.35,-0.283,0.5,-0.307c0.075,-0.024,0.25,0.118,0.325,0.094c0.1,-0.047,0.2,-0.401,0.2,-0.401l0.3,0.26l-0.15,0.543l-0.425,0.094l-0.675,0.472l-0.625,-0.495l-0.4,-0.094L10.775,9.35" fill="#FFFFFF"/>
    <ellipse cx="11.925" cy="6.991" rx="0.075" ry="0.047" fill="#797A7B"/>
    <ellipse cx="12.2" cy="6.991" rx="0.075" ry="0.047" fill="#797A7B"/>
    <path d="M10.825,8.029c0,0,0.175,0.118,0.25,0.118c0.15,-0.024,0.4,-0.236,0.55,-0.236c0.05,0,0.2,0.071,0.2,0.071h0.2c0,0,0.125,-0.094,0.175,-0.094c0.2,-0.024,0.55,0.189,0.75,0.212c0.1,0.024,0.25,-0.071,0.25,-0.071s-0.1,0.212,-0.175,0.212c-0.175,0.024,-0.725,-0.189,-0.725,-0.189s0.05,0.118,0.025,0.142c-0.1,0.142,-0.6,0.118,-0.725,0c0,-0.024,0,-0.094,0,-0.094s-0.375,0.189,-0.5,0.189S10.825,8.029,10.825,8.029M13.375,8.454h-0.225l-0.375,0.425l0.225,0.378l0.175,0.118l-0.15,0.425L12.8,9.917l-0.125,-0.071L12.5,9.87l0.075,0.118l-0.3,0.165l-0.225,0.118l-0.05,0.142l0.125,0.094l0.1,-0.118l-0.025,-0.094l0.325,-0.094l0.15,-0.189l0.25,0.024l0.175,-0.118l0.15,-0.519l0.05,-0.094l-0.2,-0.118l-0.2,-0.307l0.275,-0.26l0.125,0.07l0.075,-0.047V8.454zM10.575,8.643l0.1,0.047l0.125,-0.071l0.275,0.26l-0.2,0.307l-0.2,0.118l0.05,0.094l0.15,0.519l0.175,0.118l0.25,-0.024l0.15,0.189l0.325,0.094l-0.025,0.094l0.1,0.118l0.125,-0.094l-0.05,-0.142l-0.225,-0.118l-0.3,-0.165l0.075,-0.118L11.3,9.846l-0.125,0.071l-0.225,-0.118l-0.15,-0.425l0.175,-0.118l0.225,-0.378l-0.375,-0.425H10.6L10.575,8.643z" fill="#F7CE73"/>
    <rect x="0.5" y="2.5" width="15" height="11" fill="none" stroke="#231F20" stroke-width="1" stroke-miterlimit="1" opacity="0.35"/>
  </g>
</svg>
