<?xml version="1.0" encoding="UTF-8"?>
<!DOCTYPE svg PUBLIC "-//W3C//DTD SVG 1.1//EN" "http://www.w3.org/Graphics/SVG/1.1/DTD/svg11.dtd">
<svg version="1.1" id="Layer_1" xmlns="http://www.w3.org/2000/svg" xmlns:xlink="http://www.w3.org/1999/xlink" x="0px" y="0px" width="16px" height="16px" viewBox="0 0 16 16" enable-background="new 0 0 16 16" xml:space="preserve">
  <g id="icon">
    <path d="M16,14H0V2h16V14z" fill="#FFFFFF"/>
    <path d="M5.864,8.428c-0.65,-0.453,-0.875,-1.31,-0.525,-2.041c0.025,-0.025,0.05,-0.076,0.075,-0.126c0.95,-1.436,2.875,-1.814,4.3,-0.857c1.4,0.932,1.775,2.771,0.95,4.182c0.375,-0.68,0.175,-1.562,-0.5,-2.015c-0.725,-0.479,-1.675,-0.277,-2.15,0.428C7.539,8.705,6.564,8.907,5.864,8.428" fill="#F3797F"/>
    <path d="M10.164,7.572c0.65,0.453,0.875,1.31,0.525,2.041c-0.025,0.025,-0.05,0.076,-0.075,0.126c-0.95,1.436,-2.875,1.814,-4.3,0.857c-1.4,-0.932,-1.8,-2.771,-0.95,-4.182c-0.375,0.68,-0.175,1.562,0.5,2.015c0.725,0.479,1.675,0.277,2.15,-0.428C8.489,7.295,9.464,7.093,10.164,7.572" fill="#7BA3D6"/>
    <path d="M1.789,5.682l-0.175,-0.101l1.725,-2.595l0.175,0.101l0.175,0.126L1.964,5.808L1.789,5.682zM2.439,6.136l0.175,0.101l1.7,-2.595l-0.15,-0.101l-0.175,-0.126L2.264,6.01L2.439,6.136zM4.614,3.843l-1.7,2.595l0.175,0.126l0.175,0.101l1.7,-2.595l-0.175,-0.101L4.614,3.843zM12.139,10.645l0.175,0.126l0.8,-1.209l-0.175,-0.126l-0.175,-0.101l-0.8,1.209L12.139,10.645zM14.064,10.192l-0.8,1.209l0.175,0.126l0.175,0.101l0.8,-1.209l-0.175,-0.101L14.064,10.192zM12.964,11.199l0.8,-1.209l-0.175,-0.126l-0.175,-0.101l-0.8,1.209l0.175,0.101L12.964,11.199zM12.039,10.822l-0.175,-0.101l-0.8,1.209l0.175,0.101l0.175,0.126l0.8,-1.209L12.039,10.822zM12.664,11.25l-0.15,-0.101l-0.8,1.209l0.15,0.101l0.175,0.126l0.8,-1.209L12.664,11.25zM13.139,11.577l-0.8,1.209l0.175,0.126l0.175,0.101l0.8,-1.209l-0.175,-0.126L13.139,11.577zM1.789,10.318l-0.175,0.101l1.725,2.595l0.175,-0.101l0.175,-0.126l-1.725,-2.595L1.789,10.318zM3.364,11.25l-0.175,0.126l0.8,1.209l0.175,-0.126l0.15,-0.101l-0.8,-1.209L3.364,11.25zM3.089,9.436l-0.175,0.126l1.7,2.595l0.175,-0.126l0.175,-0.101l-1.7,-2.595L3.089,9.436zM2.264,9.99l0.8,1.209l0.175,-0.126l0.175,-0.101l-0.8,-1.209l-0.175,0.101L2.264,9.99zM13.314,4.322l0.175,-0.126l-0.8,-1.209l-0.175,0.101l-0.175,0.126l0.8,1.209L13.314,4.322zM12.039,5.178l0.175,-0.126l-0.8,-1.209l-0.175,0.126l-0.175,0.101l0.8,1.209L12.039,5.178zM13.264,4.599l0.8,1.209l0.175,-0.126l0.175,-0.101l-0.8,-1.209l-0.175,0.101L13.264,4.599zM13.589,6.136l0.175,-0.126l-1.725,-2.595l-0.175,0.126l-0.15,0.101l1.7,2.595L13.589,6.136zM12.939,6.564l0.175,-0.126l-0.8,-1.209l-0.175,0.126l-0.175,0.101l0.8,1.209L12.939,6.564z" fill="#797A7B"/>
    <rect x="0.5" y="2.5" width="15" height="11" fill="none" stroke="#231F20" stroke-width="1" stroke-miterlimit="1" opacity="0.35"/>
  </g>
</svg>
