<?xml version="1.0" encoding="UTF-8"?>
<!DOCTYPE svg PUBLIC "-//W3C//DTD SVG 1.1//EN" "http://www.w3.org/Graphics/SVG/1.1/DTD/svg11.dtd">
<svg version="1.1" id="Layer_1" xmlns="http://www.w3.org/2000/svg" xmlns:xlink="http://www.w3.org/1999/xlink" x="0px" y="0px" width="16px" height="16px" viewBox="0 0 16 16" enable-background="new 0 0 16 16" xml:space="preserve">
  <g id="icon">
    <rect y="10" width="16" height="4" fill="#64C080"/>
    <rect y="6" width="16" height="4" fill="#F3797F"/>
    <rect y="2" width="16" height="4" fill="#77B7C9"/>
    <path d="M8.2,9.677c-0.973,0,-1.762,-0.74,-1.762,-1.652S7.226,6.373,8.2,6.373c0.385,0,0.74,0.117,1.03,0.313C8.834,6.267,8.257,6,7.612,6c-1.193,0,-2.16,0.906,-2.16,2.025s0.967,2.025,2.16,2.025c0.645,0,1.222,-0.266,1.617,-0.686C8.94,9.56,8.585,9.677,8.2,9.677M11.216,8.088L10.5,8.243l-0.065,0.686l-0.378,-0.591l-0.717,0.154l0.483,-0.52l-0.378,-0.591l0.676,0.27l0.483,-0.52l-0.065,0.687L11.216,8.088z" fill="#FFFFFF"/>
    <rect x="0.5" y="2.5" width="15" height="11" fill="none" stroke="#000000" stroke-width="1" stroke-miterlimit="1" opacity="0.3"/>
  </g>
</svg>
