<?xml version="1.0" encoding="UTF-8"?>
<!DOCTYPE svg PUBLIC "-//W3C//DTD SVG 1.1//EN" "http://www.w3.org/Graphics/SVG/1.1/DTD/svg11.dtd">
<svg version="1.1" id="Layer_1" xmlns="http://www.w3.org/2000/svg" xmlns:xlink="http://www.w3.org/1999/xlink" x="0px" y="0px" width="16px" height="16px" viewBox="0 0 16 16" enable-background="new 0 0 16 16" xml:space="preserve">
  <g id="icon">
    <rect y="2" width="16" height="12" fill="#F3797F"/>
    <path d="M5.514,11.429L6.457,8.6L4,6.829h3.057L8,4l0.943,2.829H12L9.514,8.571l0.943,2.829L8,9.686L5.514,11.429M8.514,9.314l0.771,0.543L9,8.971L8.514,9.314M7,8.971l-0.286,0.886l0.771,-0.543L7,8.971M7.2,8.371l0.8,0.571l0.8,-0.571l-0.314,-0.914h-1L7.2,8.371M5.914,7.457L6.686,8l0.171,-0.543H5.914M9.314,8l0.771,-0.543h-0.943L9.314,8M7.714,6.829h0.571L8,5.943L7.714,6.829" fill="#64C080"/>
    <path d="M5.514,11.429L6.457,8.6L4,6.829h3.057L8,4l0.943,2.829H12L9.514,8.571l0.943,2.829L8,9.686L5.514,11.429M8.514,9.314l0.771,0.543L9,8.971L8.514,9.314M7,8.971l-0.286,0.886l0.771,-0.543L7,8.971M7.2,8.371l0.8,0.571l0.8,-0.571l-0.314,-0.914h-1L7.2,8.371M5.914,7.457L6.686,8l0.171,-0.543H5.914M9.314,8l0.771,-0.543h-0.943L9.314,8M7.714,6.829h0.571L8,5.943L7.714,6.829" fill="#FFFFFF" opacity="0.1"/>
    <rect x="0.5" y="2.5" width="15" height="11" fill="none" stroke="#231F20" stroke-width="1" stroke-miterlimit="1" opacity="0.35"/>
  </g>
</svg>
