<?xml version="1.0" encoding="UTF-8"?>
<!DOCTYPE svg PUBLIC "-//W3C//DTD SVG 1.1//EN" "http://www.w3.org/Graphics/SVG/1.1/DTD/svg11.dtd">
<svg version="1.1" id="Layer_1" xmlns="http://www.w3.org/2000/svg" xmlns:xlink="http://www.w3.org/1999/xlink" x="0px" y="0px" width="16px" height="16px" viewBox="0 0 16 16" enable-background="new 0 0 16 16" xml:space="preserve">
  <g id="icon">
    <rect y="2" width="16" height="4" fill="#F3797F"/>
    <rect y="6" width="16" height="4" fill="#7BA3D6"/>
    <rect y="10" width="16" height="4" fill="#FFFFFF"/>
    <path d="M3,5.985v3.489c0,1.206,1.009,2.175,2.254,2.175s2.254,-0.969,2.254,-2.175V5.985H3" fill="#F3797F"/>
    <path d="M6.07,11.284l-0.043,-0.194l-0.172,-0.302l0.064,-0.043l-0.043,-0.194l-0.15,-0.237l0.043,-0.022l-0.043,-0.194l-0.107,-0.215l0.172,-0.323l0.107,0.345l0.086,-0.129l0.129,0.194l0.043,-0.129l0.129,0.065l-0.021,-0.258l0.301,0.086l-0.215,-0.28h0.021l-0.172,-0.345l0.043,-0.129l0.107,0.215l0.043,-0.086l0.172,0.474v-0.022l0.086,0.172l0.043,-0.086l0.172,0.345l0.064,-0.194l0.258,0.194c0,0,-0.021,-0.646,-0.021,-0.84c0.043,-0.56,0.236,-1.702,0.086,-2.218c-0.064,-0.258,-0.58,-0.883,-0.58,-0.883s-0.021,0.754,-0.15,0.991c-0.043,0.086,-0.429,0.323,-0.429,0.323l-0.15,-0.022l0.064,-0.022l-0.279,-0.28l0.107,-0.56l0.279,-0.409l-0.429,0.022l-0.322,0.086l0.086,0.129l-0.193,0.689l-0.193,-0.668l0.086,-0.129l-0.322,-0.108l-0.429,-0.022l0.279,0.409l0.107,0.56l-0.279,0.28l0.064,0.022l-0.172,0.043c0,0,-0.386,-0.237,-0.429,-0.323c-0.129,-0.215,-0.15,-0.991,-0.15,-0.991s-0.515,0.625,-0.58,0.883c-0.15,0.538,0.064,1.68,0.086,2.218c0.021,0.215,-0.021,0.84,-0.021,0.84l0.258,-0.194l0.064,0.194l0.172,-0.345l0.043,0.086l0.086,-0.172v0.022l0.172,-0.474l0.043,0.086L4.248,9l0.043,0.129l-0.172,0.345h0.021l-0.215,0.28l0.301,-0.086v0.258l0.129,-0.065l0.043,0.129l0.129,-0.194l0.086,0.129l0.107,-0.345l0.172,0.323l-0.107,0.215l-0.043,0.194l0.043,0.022l-0.15,0.237l-0.043,0.194l0.064,0.043l-0.15,0.323l-0.043,0.194L6.07,11.284" fill="#FFFFFF"/>
    <path d="M3.923,10.508l-0.086,0.086v0.108l-0.043,0.022l-0.064,-0.151l0.021,-0.108l0.15,-0.237L3.708,10.4h-0.107l-0.021,0.065h-0.021v-0.129l0.043,-0.086l0.215,-0.065l-0.193,0.022l-0.086,-0.043h-0.086l-0.021,-0.022l0.129,-0.065l0.107,0.022h0.215l0.086,-0.043l0.215,-0.388l0.236,-0.151l-0.15,0.345l-0.172,0.215l0.086,-0.065l0.107,-0.043l0.021,0.022l0.129,0.065l-0.021,0.022h-0.086l-0.129,0.043l-0.193,0.086l-0.043,0.086L3.923,10.508zM6.585,10.508l0.086,0.086v0.108l0.043,0.022l0.064,-0.151l-0.021,-0.108l-0.15,-0.237L6.8,10.4h0.107l0.021,0.065h0.021v-0.129l-0.043,-0.086l-0.215,-0.065l0.193,0.022l0.086,-0.043h0.086l0.021,-0.022l-0.129,-0.065l-0.107,0.022h-0.215l-0.086,-0.043l-0.215,-0.388l-0.236,-0.151l0.15,0.345l0.172,0.215l-0.086,-0.065L6.22,9.97l-0.021,0.022l-0.129,0.065l0.021,0.022h0.086l0.129,0.043l0.193,0.086l0.021,0.086L6.585,10.508zM4.266,6.093c-0.215,0.022,-0.193,0.172,0,0.366c0.043,0.043,0.043,0.043,0.064,0c0.021,-0.065,0.086,-0.108,0.129,-0.065c0.021,0.043,0.021,0.065,0.107,0.043c0.021,0.022,0.064,0.043,0.086,0.065c-0.021,0,-0.107,0.022,-0.236,0.043c-0.107,0.022,-0.172,-0.022,-0.258,-0.108c0.021,0.108,0.279,0.172,0.258,0.172c0.021,0.043,0.021,0.065,0.043,0.065c0.086,0.022,0.172,-0.043,0.258,-0.022c0.193,0.043,-0.129,-0.495,-0.107,-0.517C4.631,6.093,4.331,6.007,4.266,6.093M6.027,6.696c0.021,0,0.021,0,0.043,-0.065c-0.021,0,0.236,-0.065,0.258,-0.172c-0.064,0.086,-0.15,0.129,-0.258,0.108c-0.129,-0.022,-0.215,-0.065,-0.236,-0.043c0.021,-0.022,0.043,-0.043,0.086,-0.065c0.086,0.022,0.086,0,0.107,-0.043c0.043,-0.043,0.107,-0.022,0.129,0.065c0,0.043,0.021,0.043,0.064,0c0.193,-0.194,0.215,-0.345,0,-0.366c-0.043,-0.086,-0.343,0,-0.322,0.065c0,0.022,-0.301,0.56,-0.107,0.517C5.855,6.653,5.941,6.696,6.027,6.696" fill="#FFD035"/>
    <path d="M4.309,7.472v1.572c0,0.474,0.429,0.862,0.945,0.862s0.945,-0.388,0.945,-0.862V7.472H4.309" fill="#F3797F"/>
    <path d="M4.996,7.192h0.537v3.231h-0.537V7.192zM3.773,8.807h2.962v-0.538H3.773V8.807zM4.61,7.665l0.064,0.194l-0.064,0.215l0.215,-0.215L4.61,7.665zM4.61,9.001l0.064,0.215l-0.064,0.215l0.215,-0.215L4.61,9.001zM5.683,7.859l0.215,0.215l-0.043,-0.215l0.043,-0.194L5.683,7.859zM5.683,9.216l0.215,0.215l-0.043,-0.215l0.043,-0.215L5.683,9.216z" fill="#FFFFFF"/>
    <rect x="5.039" y="3.832" width="0.429" height="0.431" fill="#7BA3D6"/>
    <path d="M5.061,3.552l-0.043,-0.043l0.043,-0.043l0.043,-0.043l0.043,0.043h0.064V3.38l-0.043,-0.043l0.043,-0.043l0.043,-0.043l0.043,0.043l0.043,0.043l-0.043,0.043v0.086h0.064l0.043,-0.043l0.043,0.043l0.043,0.043l-0.043,0.043l-0.043,0.022l-0.043,-0.022h-0.064v0.258h0.172v0.065v0.022h-0.215h-0.215v-0.022V3.81h0.172v-0.258h-0.064l-0.043,0.022L5.061,3.552zM7.1,4.865c-0.021,0.151,-0.107,0.28,-0.258,0.431v0.431H3.665v-0.422c-0.007,-0.003,-0.015,-0.006,-0.021,-0.009c-0.15,-0.151,-0.236,-0.28,-0.258,-0.431c-0.064,-0.086,0.193,-0.302,0.472,-0.452c0.279,-0.172,0.451,-0.194,0.515,-0.086c0.021,0,0.021,0,0.021,0.022c0.365,-0.172,0.601,-0.194,0.859,-0.086c0.258,-0.108,0.515,-0.086,0.859,0.086c0.021,0,0.021,-0.022,0.021,-0.022c0.064,-0.108,0.236,-0.065,0.515,0.086C6.907,4.585,7.186,4.801,7.1,4.865zM6.134,5.102c0.064,0,0.129,-0.022,0.172,-0.043c0.172,-0.086,0.279,-0.194,0.365,-0.28c0.021,-0.022,0.021,-0.043,0,-0.065s-0.064,-0.065,-0.129,-0.086c-0.064,-0.022,-0.129,-0.043,-0.172,-0.043C6.349,4.758,6.284,4.93,6.134,5.102zM5.49,4.521c0.021,0.172,0.043,0.345,0.064,0.495c0.172,-0.151,0.279,-0.302,0.365,-0.452C5.769,4.521,5.619,4.499,5.49,4.521zM4.61,4.542c0.043,0.172,0.172,0.323,0.343,0.474c0.021,-0.172,0.043,-0.345,0.086,-0.517C4.91,4.478,4.76,4.499,4.61,4.542zM3.837,4.758c0.086,0.086,0.193,0.172,0.365,0.28c0.043,0.022,0.107,0.022,0.172,0.043c-0.15,-0.172,-0.215,-0.323,-0.236,-0.517c-0.043,0,-0.107,0.022,-0.172,0.043C3.859,4.65,3.794,4.736,3.837,4.758z" fill="#F7CE73"/>
    <rect x="0.5" y="2.5" width="15" height="11" fill="none" stroke="#231F20" stroke-width="1" stroke-miterlimit="1" opacity="0.35"/>
  </g>
</svg>
