<?xml version="1.0" encoding="UTF-8"?>
<!DOCTYPE svg PUBLIC "-//W3C//DTD SVG 1.1//EN" "http://www.w3.org/Graphics/SVG/1.1/DTD/svg11.dtd">
<svg version="1.1" id="Layer_1" xmlns="http://www.w3.org/2000/svg" xmlns:xlink="http://www.w3.org/1999/xlink" x="0px" y="0px" width="16px" height="16px" viewBox="0 0 16 16" enable-background="new 0 0 16 16" xml:space="preserve">
  <g id="icon">
    <path d="M12,14H4V2h8V14z" fill="#FFFFFF"/>
    <path d="M16,14h-4V2h4V14zM4,2H0v12h4V2z" fill="#F3797F"/>
    <path d="M8.2,10.327c0.581,0.067,1.102,0.128,1.683,0.195l-0.148,-0.486c-0.024,-0.085,0.011,-0.179,0.077,-0.23L11.5,8.43l-0.349,-0.164c-0.154,-0.055,-0.111,-0.142,-0.056,-0.35l0.258,-0.939l-0.981,0.207c-0.096,0.014,-0.16,-0.047,-0.174,-0.105l-0.126,-0.442l-0.775,0.87c-0.11,0.139,-0.333,0.139,-0.264,-0.182l0.331,-1.764l-0.444,0.23c-0.125,0.07,-0.249,0.082,-0.319,-0.043L7.987,4.6v0.029V4.6l-0.614,1.148c-0.07,0.125,-0.194,0.113,-0.319,0.043l-0.444,-0.23l0.331,1.764c0.07,0.322,-0.154,0.322,-0.264,0.182l-0.775,-0.87l-0.126,0.442c-0.015,0.058,-0.079,0.119,-0.174,0.105l-0.98,-0.207l0.258,0.939c0.055,0.209,0.098,0.295,-0.056,0.35l-0.349,0.164l1.688,1.375c0.067,0.052,0.1,0.146,0.077,0.23l-0.148,0.486c0.582,-0.066,1.103,-0.127,1.684,-0.195c0.051,0,0.085,0.029,0.085,0.088l-0.104,1.797h0.464l-0.104,-1.797C8.115,10.355,8.149,10.327,8.2,10.327z" fill="#F3797F"/>
    <rect x="0.5" y="2.5" width="15" height="11" fill="none" stroke="#231F20" stroke-width="1" stroke-miterlimit="1" opacity="0.35"/>
  </g>
</svg>
