<?xml version="1.0" encoding="UTF-8"?>
<!DOCTYPE svg PUBLIC "-//W3C//DTD SVG 1.1//EN" "http://www.w3.org/Graphics/SVG/1.1/DTD/svg11.dtd">
<svg version="1.1" id="Layer_1" xmlns="http://www.w3.org/2000/svg" xmlns:xlink="http://www.w3.org/1999/xlink" x="0px" y="0px" width="16px" height="16px" viewBox="0 0 16 16" enable-background="new 0 0 16 16" xml:space="preserve">
  <g id="icon">
    <rect y="10.5" width="16" height="3.5" fill="#64C080"/>
    <rect y="5.5" width="16" height="5" fill="#F7CE73"/>
    <rect y="2" width="16" height="3.5" fill="#64C080"/>
    <polygon points="0,2 0,14 5.333,8.013" fill="#F3797F" stroke-linejoin="miter"/>
    <polygon points="8.576,8.261 9.574,7.547 8.347,7.547 8.014,6.397 7.634,7.547 6.417,7.547 7.385,8.252 7.019,9.4 7.986,8.677 8.967,9.4" fill="#797A7B" stroke-linejoin="miter"/>
    <polygon points="12.576,8.261 13.574,7.547 12.347,7.547 12.014,6.397 11.634,7.547 10.417,7.547 11.385,8.252 11.019,9.4 11.986,8.677 12.967,9.4" fill="#797A7B" stroke-linejoin="miter"/>
    <rect x="0.5" y="2.5" width="15" height="11" fill="none" stroke="#231F20" stroke-width="1" stroke-miterlimit="1" opacity="0.35"/>
  </g>
</svg>
