<?xml version="1.0" encoding="UTF-8"?>
<!DOCTYPE svg PUBLIC "-//W3C//DTD SVG 1.1//EN" "http://www.w3.org/Graphics/SVG/1.1/DTD/svg11.dtd">
<svg version="1.1" id="Layer_1" xmlns="http://www.w3.org/2000/svg" xmlns:xlink="http://www.w3.org/1999/xlink" x="0px" y="0px" width="16px" height="16px" viewBox="0 0 16 16" enable-background="new 0 0 16 16" xml:space="preserve">
  <g id="icon">
    <rect y="11.5" width="16" height="2.5" fill="#64C080"/>
    <rect y="4.5" width="16" height="7" fill="#FFFFFF"/>
    <rect y="2" width="16" height="2.5" fill="#F3797F"/>
    <path d="M9.452,8.891c-0.139,0.116,-0.301,0.185,-0.486,0.208c-0.44,0.046,-0.833,-0.278,-0.879,-0.694v-0.602c0,-0.139,0.116,-0.255,0.278,-0.255c0.093,0,0.185,0.046,0.231,0.116c0.116,-0.324,-0.069,-0.648,-0.393,-0.764c-0.324,-0.116,-0.671,0.069,-0.787,0.393c-0.046,0.116,-0.046,0.255,0,0.37c0.069,-0.116,0.231,-0.162,0.37,-0.093c0.069,0.046,0.139,0.116,0.139,0.208v0.602c-0.046,0.417,-0.44,0.74,-0.879,0.694c-0.185,-0.023,-0.347,-0.093,-0.486,-0.208c-0.162,0.417,-0.648,0.625,-1.088,0.44c-0.069,-0.023,-0.116,-0.046,-0.185,-0.093c0.069,0.74,1.226,0.602,1.319,-0.139c0.37,0.625,1.157,0.44,1.388,-0.324c0.231,0.764,1.041,0.926,1.388,0.324c0.093,0.717,1.249,0.879,1.319,0.139c-0.046,0.046,-0.116,0.069,-0.185,0.093C10.1,9.516,9.614,9.308,9.452,8.891zM7.971,7.573c-0.069,-0.139,-0.255,-0.208,-0.44,-0.185c0.023,-0.185,0.185,-0.347,0.393,-0.37c0.255,-0.023,0.486,0.139,0.509,0.37C8.249,7.341,8.064,7.434,7.971,7.573zM6.352,9.863c0,0,0.116,-0.069,0.231,-0.093c-0.023,-0.093,0.023,-0.231,0.093,-0.301c0.069,0.023,0.162,0.116,0.185,0.231c0.162,-0.023,0.255,0.023,0.255,0.023C6.953,10.048,6.629,10.118,6.352,9.863zM7.601,9.678c0,0,0.139,-0.069,0.255,-0.069c0,-0.093,0.069,-0.208,0.139,-0.278c0.046,0.069,0.139,0.162,0.139,0.278c0.185,0,0.255,0.069,0.255,0.069C8.18,9.979,7.832,10.002,7.601,9.678zM9.406,9.748c0.162,0.023,0.231,0.093,0.231,0.093c-0.255,0.278,-0.578,0.231,-0.764,-0.116c0,0,0.139,-0.046,0.255,-0.023c0.023,-0.093,0.093,-0.208,0.185,-0.255C9.36,9.516,9.429,9.632,9.406,9.748zM10.123,10.28l-0.116,0.37c-1.319,-0.37,-2.684,-0.37,-4.003,0l-0.116,-0.37C7.254,9.886,8.735,9.886,10.123,10.28zM7.809,5.675l-0.324,-0.231h0.393l0.116,-0.347l0.116,0.347h0.393l-0.324,0.231l0.116,0.347l-0.301,-0.231l-0.301,0.231L7.809,5.675zM6.328,6.045l-0.324,-0.208h0.393l0.116,-0.347l0.116,0.347h0.393l-0.324,0.208l0.116,0.347l-0.301,-0.208l-0.324,0.208L6.328,6.045zM5.241,7.087l-0.324,-0.208h0.393l0.116,-0.347l0.116,0.347h0.393l-0.324,0.208l0.116,0.37l-0.301,-0.231l-0.324,0.231L5.241,7.087zM5.333,8.868l-0.301,-0.208l-0.324,0.208l0.116,-0.347l-0.301,-0.208h0.393l0.116,-0.347l0.116,0.347h0.393l-0.324,0.208L5.333,8.868zM9.29,6.045l-0.324,-0.208h0.393l0.116,-0.347l0.116,0.347h0.393l-0.324,0.208l0.139,0.347l-0.324,-0.208l-0.301,0.208L9.29,6.045zM10.378,7.087l-0.324,-0.208h0.393l0.116,-0.347l0.116,0.347h0.393l-0.324,0.208l0.139,0.37l-0.324,-0.231l-0.301,0.231L10.378,7.087zM11.164,8.521l0.116,0.347l-0.324,-0.208l-0.301,0.208l0.116,-0.347l-0.324,-0.208h0.393l0.116,-0.347l0.116,0.347h0.393L11.164,8.521z" fill="#F7CE73"/>
    <rect x="0.5" y="2.5" width="15" height="11" fill="none" stroke="#231F20" stroke-width="1" stroke-miterlimit="1" opacity="0.35"/>
  </g>
</svg>
