<?xml version="1.0" encoding="UTF-8"?>
<!DOCTYPE svg PUBLIC "-//W3C//DTD SVG 1.1//EN" "http://www.w3.org/Graphics/SVG/1.1/DTD/svg11.dtd">
<svg version="1.1" id="Layer_1" xmlns="http://www.w3.org/2000/svg" xmlns:xlink="http://www.w3.org/1999/xlink" x="0px" y="0px" width="16px" height="16px" viewBox="0 0 16 16" enable-background="new 0 0 16 16" xml:space="preserve">
  <g id="icon">
    <path d="M0,2h16v12H0V2z" fill="#F3797F"/>
    <path d="M1.835,7.743L2.3,6.242l-1.241,-0.943l1.55,-0.016l0.484,-1.48l0.484,1.48l1.55,0.016l-1.243,0.943l0.467,1.501l-1.259,-0.93L1.835,7.743zM6.482,9.028l-0.353,0.421l0.549,-0.129l0.29,0.49l0.065,-0.587l0.515,-0.113l-0.515,-0.231l0.031,-0.552l-0.355,0.423l-0.532,-0.196L6.482,9.028zM8.632,5.25l0.259,-0.488l-0.517,0.227l-0.37,-0.405l0.08,0.568l-0.516,0.245l0.547,0.097l0.08,0.556l0.276,-0.506l0.582,0.115L8.632,5.25zM8.291,7.873l0.484,0.358l-0.192,-0.553l0.484,-0.342h-0.596l-0.18,-0.523l-0.161,0.523h-0.582l0.47,0.342l-0.178,0.553L8.291,7.873zM6.482,3.752l-0.385,0.407l0.547,-0.097l0.276,0.505l0.08,-0.571l0.547,-0.113l-0.515,-0.245l0.096,-0.555l-0.404,0.409l-0.5,-0.245L6.482,3.752z" fill="#F7CE73"/>
    <rect x="0.5" y="2.5" width="15" height="11" fill="none" stroke="#231F20" stroke-width="1" stroke-miterlimit="1" opacity="0.35"/>
  </g>
</svg>
