<?xml version="1.0" encoding="UTF-8"?>
<!DOCTYPE svg PUBLIC "-//W3C//DTD SVG 1.1//EN" "http://www.w3.org/Graphics/SVG/1.1/DTD/svg11.dtd">
<svg version="1.1" id="Layer_1" xmlns="http://www.w3.org/2000/svg" xmlns:xlink="http://www.w3.org/1999/xlink" x="0px" y="0px" width="16px" height="16px" viewBox="0 0 16 16" enable-background="new 0 0 16 16" xml:space="preserve">
  <g id="icon">
    <rect y="2" width="16" height="4" fill="#77B7C9"/>
    <rect y="10" width="16" height="4" fill="#77B7C9"/>
    <rect y="6" width="16" height="0.5" fill="#F3797F"/>
    <rect y="9.5" width="16" height="0.5" fill="#F3797F"/>
    <rect y="6.5" width="16" height="3" fill="#FFFFFF"/>
    <path d="M3.627,5.327c0.15,0,0.275,-0.025,0.4,-0.075c-0.2,0.15,-0.475,0.25,-0.751,0.25c-0.701,0,-1.251,-0.551,-1.251,-1.251C2.025,3.55,2.576,3,3.276,3c0.275,0,0.551,0.1,0.751,0.25c-0.125,-0.05,-0.25,-0.075,-0.4,-0.075c-0.601,0,-1.076,0.475,-1.076,1.076S3.026,5.327,3.627,5.327M4.627,5.077h-0.275l0.225,0.15l-0.1,0.275l0.225,-0.175l0.225,0.175l-0.075,-0.275l0.225,-0.15h-0.275l-0.1,-0.275L4.627,5.077zM5.678,5.077h-0.275l0.225,0.15l-0.075,0.275l0.225,-0.175l0.225,0.175l-0.075,-0.275l0.225,-0.15h-0.3l-0.075,-0.275L5.678,5.077zM6.755,5.077H6.48l0.225,0.15l-0.1,0.275l0.25,-0.175l0.225,0.175l-0.1,-0.275l0.225,-0.15H6.93l-0.075,-0.275L6.755,5.077zM7.831,5.077h-0.3l0.225,0.15l-0.075,0.275l0.225,-0.175l0.225,0.175l-0.075,-0.275l0.225,-0.15h-0.275l-0.1,-0.275L7.831,5.077zM8.882,5.077h-0.275l0.225,0.15l-0.075,0.275l0.225,-0.175l0.225,0.175l-0.1,-0.275l0.25,-0.15h-0.3l-0.075,-0.275L8.882,5.077zM5.678,4.176h-0.275l0.225,0.15l-0.075,0.275l0.225,-0.175l0.225,0.175l-0.075,-0.275l0.225,-0.15h-0.3l-0.075,-0.275L5.678,4.176zM6.755,4.176H6.48l0.225,0.15l-0.1,0.275l0.25,-0.175l0.225,0.175l-0.1,-0.275l0.225,-0.15H6.93l-0.075,-0.275L6.755,4.176zM7.831,4.176h-0.3l0.225,0.15l-0.075,0.275l0.225,-0.175l0.225,0.175l-0.075,-0.275l0.225,-0.15h-0.275l-0.1,-0.275L7.831,4.176zM8.882,4.176h-0.275l0.225,0.15l-0.075,0.275l0.225,-0.175l0.225,0.175l-0.1,-0.275l0.25,-0.15h-0.3l-0.075,-0.275L8.882,4.176zM6.755,3.275H6.48l0.225,0.15l-0.1,0.275l0.25,-0.175L7.08,3.7l-0.1,-0.275l0.225,-0.15H6.93L6.855,3L6.755,3.275zM7.831,3.275h-0.3l0.225,0.15L7.681,3.7l0.225,-0.175L8.131,3.7l-0.075,-0.275l0.225,-0.15h-0.275l-0.1,-0.275L7.831,3.275zM8.882,3.275h-0.275l0.225,0.15L8.757,3.7l0.225,-0.175L9.207,3.7l-0.1,-0.275l0.25,-0.15h-0.3L8.982,3L8.882,3.275z" fill="#FFFFFF"/>
    <rect x="0.5" y="2.5" width="15" height="11" fill="none" stroke="#231F20" stroke-width="1" stroke-miterlimit="1" opacity="0.35"/>
  </g>
</svg>
