<?xml version="1.0" encoding="UTF-8"?>
<!DOCTYPE svg PUBLIC "-//W3C//DTD SVG 1.1//EN" "http://www.w3.org/Graphics/SVG/1.1/DTD/svg11.dtd">
<svg version="1.1" id="Layer_1" xmlns="http://www.w3.org/2000/svg" xmlns:xlink="http://www.w3.org/1999/xlink" x="0px" y="0px" width="16px" height="16px" viewBox="0 0 16 16" enable-background="new 0 0 16 16" xml:space="preserve">
  <g id="icon">
    <path d="M8,0.5C3.858,0.5,0.5,3.414,0.5,7.008c0,1.924,0.962,3.653,2.492,4.845C2.9,12.727,2.062,15.1,2.062,15.1S6.6,13.613,6.98,13.456c0.333,0.039,0.674,0.06,1.02,0.06c4.142,0,7.5,-2.914,7.5,-6.508S12.142,0.5,8,0.5z" fill="#FFFFFF"/>
    <path d="M1.252,15.891l0.338,-0.958c0.203,-0.574,0.705,-2.079,0.863,-2.874C0.89,10.742,0,8.916,0,7.008C0,3.144,3.589,0,8,0s8,3.144,8,7.008c0,3.864,-3.589,7.008,-8,7.008c-0.319,0,-0.64,-0.017,-0.956,-0.05c-0.797,0.288,-4.391,1.466,-4.826,1.609L1.252,15.891zM8,1c-3.86,0,-7,2.695,-7,6.008c0,1.69,0.838,3.312,2.299,4.45l0.219,0.171l-0.029,0.276c-0.059,0.562,-0.379,1.623,-0.634,2.408c1.712,-0.563,3.711,-1.227,3.935,-1.319l0.12,-0.049l0.129,0.015c0.316,0.037,0.64,0.056,0.961,0.056c3.86,0,7,-2.695,7,-6.008C15,3.695,11.86,1,8,1z" fill="#60A3C4"/>
    <path d="M7.591,4.547l-0.431,0.846c-0.121,-0.111,-0.308,-0.22,-0.562,-0.33C6.345,4.955,6.127,4.9,5.945,4.9c-0.57,0,-1.019,0.198,-1.348,0.594c-0.33,0.395,-0.494,0.926,-0.494,1.589c0,0.632,0.161,1.137,0.484,1.515c0.323,0.378,0.763,0.567,1.319,0.567c0.366,0,0.669,-0.102,0.905,-0.307V7.69h-0.803v-0.899h1.831v2.657c-0.245,0.205,-0.561,0.366,-0.947,0.48c-0.386,0.114,-0.77,0.173,-1.153,0.173c-0.83,0,-1.489,-0.278,-1.975,-0.836c-0.487,-0.558,-0.729,-1.294,-0.729,-2.209s0.265,-1.659,0.795,-2.231s1.243,-0.858,2.139,-0.858C6.604,3.964,7.145,4.158,7.591,4.547zM12.015,9.998l-1.547,-2.45c-0.155,-0.003,-0.373,-0.012,-0.652,-0.028v2.478H8.749V4.065c0.058,0,0.281,-0.01,0.669,-0.031c0.388,-0.02,0.7,-0.031,0.938,-0.031c1.471,0,2.207,0.583,2.207,1.75c0,0.351,-0.102,0.671,-0.305,0.96c-0.203,0.289,-0.459,0.493,-0.767,0.611l1.712,2.673L12.015,9.998L12.015,9.998zM9.817,4.98v1.648c0.19,0.016,0.335,0.024,0.435,0.024c0.43,0,0.744,-0.062,0.943,-0.186c0.199,-0.124,0.299,-0.366,0.299,-0.725c0,-0.291,-0.107,-0.495,-0.32,-0.611c-0.213,-0.116,-0.55,-0.174,-1.009,-0.174C10.055,4.956,9.938,4.964,9.817,4.98z" fill="#60A3C4"/>
  </g>
</svg>
