<?xml version="1.0" encoding="utf-8"?>
<!-- Generator: Adobe Illustrator 26.3.0, SVG Export Plug-In . SVG Version: 6.00 Build 0)  -->
<svg version="1.1" id="Layer_1" xmlns="http://www.w3.org/2000/svg" xmlns:xlink="http://www.w3.org/1999/xlink" x="0px" y="0px"
	 viewBox="0 0 24 24" style="enable-background:new 0 0 24 24;" xml:space="preserve">
<style type="text/css">
	.st0{fill:#7B7B7B;}
	.st1{opacity:0.5;fill:#FFFFFF;enable-background:new    ;}
	.st2{fill:#6485C3;}
</style>
<g id="icon">
	<path class="st0" d="M4,0v5.7c0.7-0.5,1.7-0.8,3-0.8h0.1c0.5,0,0.9,0,1.3,0.1H14v1h-3.5c0.3,0.3,0.5,0.6,0.7,1H14v1h-2.5
		c0.1,0.3,0.1,0.6,0.1,1H14v0.7c1.3,0.5,2,1.6,2.1,3.3H20v1h-3.9c-0.1,1.3-0.4,2.4-1.1,3.4c0.3,0.1,0.7,0.3,1,0.5V17h4v1h-3.8
		c1.4,0.8,2.2,2,2.6,3H23V0H4z M14,4H7V3h7V4z M20,16h-4v-1h4V16z M20,12h-4v-1h4V12z M20,10h-4V9h4V10z M20,8h-4V7h4V8z M20,6h-4V5
		h4V6z M20,4h-4V3h4V4z M4,20.4h0.5c-0.1,0.2-0.2,0.4-0.3,0.6H4V20.4z"/>
	<path class="st1" d="M16,17h4v1h-3.8c-0.1,0-0.1-0.1-0.2-0.1V17z M14,3H7v1h7V3z M11.6,9c0,0.1,0,0.1,0,0.2c0,0,0,0.1,0,0.1
		c0.9,0,1.7,0.1,2.4,0.4V9H11.6z M16,16h4v-1h-4V16z M14,7h-2.8c0.1,0.3,0.2,0.6,0.3,1H14V7z M10.5,6H14V5H8.4
		C9.3,5.2,10,5.5,10.5,6z M16.1,13.6c0,0.1,0,0.3,0,0.4H20v-1h-3.9C16.1,13.2,16.1,13.4,16.1,13.6z M16,3v1h4V3H16z M16,8h4V7h-4V8z
		 M16,6h4V5h-4V6z M16,10h4V9h-4V10z M16,12h4v-1h-4V12z"/>
	<path class="st2" d="M5,24c-0.1,0-0.2-0.1-0.2-0.2l0-0.3c0.1-1.2,0.7-3.8,3.8-5c0.7-0.3,1.1-0.9,0.7-1.3c-0.8-1-1.2-2.4-1.2-3.6
		c0-1.9,0.6-3.1,3.3-3.1h0.1c2.7,0,3.3,1.2,3.3,3.1c0,1.2-0.3,2.6-1.2,3.6c-0.3,0.4,0,1,0.7,1.3c3.1,1.2,3.7,3.8,3.8,5l0,0.3
		c0,0.1-0.1,0.2-0.2,0.2H5z M0.3,19c0,0.1,0.1,0.2,0.2,0.2h4.9c0.7-0.7,1.7-1.3,2.8-1.8c-0.7-1.1-1.2-2.4-1.2-3.9
		c0-0.8,0.1-2.1,0.9-3c0.6-0.6,1.4-1,2.4-1.1c0-0.1,0-0.2,0-0.3c0-1.9-0.6-3.1-3.3-3.1H7c-2.7,0-3.3,1.2-3.3,3.1
		c0,1.2,0.3,2.6,1.2,3.6c0.3,0.4,0,1-0.7,1.3c-3.1,1.2-3.7,3.4-3.8,4.6L0.3,19z"/>
</g>
</svg>
