<?xml version="1.0" encoding="utf-8"?>
<!-- Generator: Adobe Illustrator 26.3.0, SVG Export Plug-In . SVG Version: 6.00 Build 0)  -->
<svg version="1.1" id="Layer_1" xmlns="http://www.w3.org/2000/svg" xmlns:xlink="http://www.w3.org/1999/xlink" x="0px" y="0px"
	 viewBox="0 0 24 24" style="enable-background:new 0 0 24 24;" xml:space="preserve">
<style type="text/css">
	.st0{opacity:0.5;fill:#FFFFFF;enable-background:new    ;}
	.st1{fill:#EEAC55;}
	.st2{fill:#7B7B7B;}
	.st3{fill:#FFFFFF;}
	.st4{fill:#6485C3;}
</style>
<g id="icon">
	<path class="st0" d="M20.6,14.4V6.7l3.1,0.1L23.5,6l-7.9-4.4L7.7,6v0.7l2.7,0.1v3.1c0.6,0.2,1.3,0.4,2,0.4l1.6,0.1l0,1.6
		c0,0.8-0.1,2.1-0.3,3.1c0,0.1,0,0.1,0,0.2h7.7l-0.2-0.8L20.6,14.4z"/>
	<polygon class="st1" points="14,9 14,14 14.5,14 16.5,14 17,14 17,9 	"/>
	<path class="st2" d="M24,8V5.8L15.5,0L7,5.8V8h2v1.3c0.6,0.3,1.3,0.5,2,0.7V8h1v2.3c0.1,0,0.3,0,0.4,0l0.6,0V8h5v6h-4.1
		c0,0.4-0.1,0.8-0.1,1.1c-0.1,0.6-0.2,1.3-0.3,1.9h8.5H24v-2h-1l0-1h-1V8H24z M15.5,6c-0.8,0-1.4-0.6-1.4-1.4s0.6-1.4,1.4-1.4
		c0.8,0,1.4,0.6,1.4,1.4S16.3,6,15.5,6z M20,14h-1V8h1V14z"/>
	<path class="st3" d="M16.9,4.6c0,0.8-0.6,1.4-1.4,1.4s-1.4-0.6-1.4-1.4s0.6-1.4,1.4-1.4C16.3,3.2,16.9,3.8,16.9,4.6z"/>
	<path class="st4" d="M13,11.3l-0.7,0c-2.3-0.1-4.5-1.3-5.4-2L6.5,9L6.1,9.3c-1.2,0.9-3.4,1.9-5.4,2l-0.7,0L0,12c0,0.7,0.1,2,0.2,3
		c0.3,2.3,1,4.2,1.9,5.5c1.3,1.9,2.6,2.9,4.1,3.4L6.5,24l0.2-0.1c1.5-0.5,2.8-1.5,4.1-3.4c0.9-1.3,1.6-3.3,1.9-5.5
		c0.1-0.9,0.3-2.3,0.2-3L13,11.3z"/>
</g>
</svg>
