<?xml version="1.0" encoding="utf-8"?>
<!-- Generator: Adobe Illustrator 26.3.0, SVG Export Plug-In . SVG Version: 6.00 Build 0)  -->
<svg version="1.1" id="Layer_1" xmlns="http://www.w3.org/2000/svg" xmlns:xlink="http://www.w3.org/1999/xlink" x="0px" y="0px"
	 viewBox="0 0 24 24" style="enable-background:new 0 0 24 24;" xml:space="preserve">
<style type="text/css">
	.st0{opacity:0.5;fill:#FFFFFF;enable-background:new    ;}
	.st1{fill:#EEAC55;}
	.st2{fill:#7B7B7B;}
	.st3{fill:#FFFFFF;}
</style>
<g id="icon">
	<path class="st0" d="M18.3,17.5l0.2,0.8H5.8v-0.7h0.6V9.8L3.7,9.6V9L12,4.5L20.5,9l0.2,0.8l-3.1-0.1v7.8L18.3,17.5z"/>
	<path class="st1" d="M10,17v-5h4v5h-1h-2H10z"/>
	<path class="st2" d="M21,11V8.8L12,3L3,8.8V11h2v6H4v1H3v2h2.2h13.6H21v-2h-1l0-1h-1v-6H21z M16,11h1v6h-1V11z M12,6.2
		c0.8,0,1.4,0.6,1.4,1.4S12.8,9,12,9s-1.4-0.6-1.4-1.4S11.2,6.2,12,6.2z M9,11h6v6H9V11z M7,11h1v6H7V11z"/>
	<path class="st3" d="M13.4,7.6C13.4,8.4,12.8,9,12,9s-1.4-0.6-1.4-1.4s0.6-1.4,1.4-1.4S13.4,6.8,13.4,7.6z"/>
</g>
</svg>
