<?xml version="1.0" encoding="utf-8"?>
<!-- Generator: Adobe Illustrator 26.3.0, SVG Export Plug-In . SVG Version: 6.00 Build 0)  -->
<svg version="1.1" id="Layer_1" xmlns="http://www.w3.org/2000/svg" xmlns:xlink="http://www.w3.org/1999/xlink" x="0px" y="0px"
	 viewBox="0 0 24 24" style="enable-background:new 0 0 24 24;" xml:space="preserve">
<style type="text/css">
	.st0{opacity:0.5;fill:#FFFFFF;enable-background:new    ;}
	.st1{fill:#6485C3;}
	.st2{fill:#EEAC55;}
	.st3{fill:#7B7B7B;}
</style>
<g id="icon">
	<path class="st0" d="M12.7,11.9c-2.4-0.1-4.8-1.3-6-2.2c-1.2,0.8-3.6,2-6,2.2c0,0.6,0.1,1.9,0.3,2.9c0.3,2.2,1,4.1,1.9,5.3
		c1.2,1.7,2.5,2.7,3.9,3.2c1.4-0.4,2.6-1.5,3.9-3.2c0.9-1.2,1.5-3.1,1.9-5.3C12.6,13.8,12.8,12.5,12.7,11.9z"/>
	<path class="st1" d="M6.5,23.9c-1.5-0.5-2.9-1.5-4.3-3.4c-1-1.3-1.7-3.3-2-5.5C0.1,14,0,12.7,0,12l0-0.9l0.9-0.1
		C2.8,11,5,10,6.2,9.2l0.5-0.4l0.5,0.4c0.9,0.7,3.1,1.8,5.3,1.9l0.9,0.1l0,0.9c0,0.7-0.1,2-0.3,3c-0.3,2.3-1,4.2-2,5.5
		c-1.4,1.9-2.7,3-4.3,3.4L6.8,24L6.5,23.9z M1.9,12.8c0,0.6,0.1,1.2,0.2,1.9c0.3,2,0.9,3.6,1.6,4.7c1,1.4,2,2.3,3,2.6
		c1-0.4,2-1.2,3-2.6c0.8-1.1,1.4-2.7,1.6-4.7c0.1-0.6,0.2-1.3,0.2-1.9c-2.3-0.4-4.2-1.4-4.9-1.8C6.1,11.4,4.1,12.5,1.9,12.8z"/>
	<path class="st0" d="M20.6,13.4V6.7l3.1,0.1L23.5,6l-7.9-4.4L7.7,6v0.7l2.7,0.1v2.8c0.8,0.3,1.6,0.5,2.5,0.5l1.6,0.1l0,1.6
		c0,0.8-0.1,2.2-0.3,3.2c0,0.1,0,0.2,0,0.3h7.3l-0.2-1.8L20.6,13.4z"/>
	<path class="st2" d="M14,9v1.2l0.5,0l0,1.6c0,0.3,0,0.7,0,1.1H15v-3h1v3h1V9H14z"/>
	<path class="st3" d="M24,8V5.8L15.5,0L7,5.8v2L7.3,8H9v1c0.6,0.3,1.3,0.6,2,0.8V8h1v2c0.3,0,0.6,0.1,0.9,0.1l0.1,0V8h5v5h-3.5
		c0,0.3-0.1,0.7-0.1,1H21l0,1h-6.8c0,0,0,0,0,0c-0.1,0.7-0.2,1.3-0.4,2h8H24v-2h-1l0-2h-1V8H24z M20,13h-1V8h1V13z M9.9,6l5.6-3.8
		L21.1,6H9.9z M15.5,3.4c0.6,0,1.1,0.5,1.1,1.1s-0.5,1.1-1.1,1.1s-1.1-0.5-1.1-1.1S14.9,3.4,15.5,3.4z"/>
</g>
</svg>
