<?xml version="1.0" encoding="utf-8"?>
<!-- Generator: Adobe Illustrator 26.3.0, SVG Export Plug-In . SVG Version: 6.00 Build 0)  -->
<svg version="1.1" id="Layer_1" xmlns="http://www.w3.org/2000/svg" xmlns:xlink="http://www.w3.org/1999/xlink" x="0px" y="0px"
	 viewBox="0 0 24 24" style="enable-background:new 0 0 24 24;" xml:space="preserve">
<style type="text/css">
	.st0{fill:#CB535D;}
	.st1{opacity:0.5;fill:#FFFFFF;enable-background:new    ;}
	.st2{fill:#EEAD56;}
	.st3{fill:#EEAC55;}
	.st4{fill:#7B7B7B;}
</style>
<g id="icon">
	<path class="st0" d="M5.6,2.5h4.2V1H5.6C4.1,1,3,2.1,3,3.6v2.6L1.5,4.6L0.4,5.7L3.8,9l3.3-3.3L6,4.6L4.5,6.1V3.6
		C4.5,3,5,2.5,5.6,2.5z"/>
	<path class="st1" d="M12.8,14.4c0-1.3-2.1-2.4-4.8-2.4s-4.8,1.1-4.8,2.4c0,0,0,0,0,0h0c0,0,0,2.2,0,2.4c0,0,0,0,0,0l0,0
		c-1.5,0.3-2.4,1.2-2.4,1.9c0,0,0,0,0,0h0c0,0,0,2.2,0,2.4c0,1,2.1,2.1,4.8,2.1s4.8-1.1,4.8-2.1c0-0.3,0-2.4,0-2.4h0c0,0,0,0,0,0
		l-0.3-0.1c1.6-0.4,2.7-1.2,2.7-1.9C12.8,16.5,12.8,14.4,12.8,14.4L12.8,14.4C12.7,14.4,12.8,14.4,12.8,14.4z"/>
	<path class="st2" d="M13.5,14.4c0-1.8-2.4-3.1-5.5-3.1c-3.2,0-5.6,1.3-5.6,3.1c0,0,0,0,0,0h0v1.9C0.9,16.7,0,17.7,0,18.7
		c0,0,0,0,0,0h0v2.4C0,22.7,2.5,24,5.6,24c3,0,5.5-1.3,5.5-2.9v-2c1.4-0.5,2.4-1.4,2.4-2.4V14.4L13.5,14.4
		C13.5,14.4,13.5,14.4,13.5,14.4z M8,12.8c2.5,0,4,1,4,1.6c0,0.6-1.4,1.4-4,1.4c-2.6,0-4.1-0.8-4.1-1.4C3.9,13.7,5.5,12.8,8,12.8z
		 M2.7,17.7c0.8,1.1,2.9,2,5.2,2c0.2,0,0.4,0,0.6,0c-0.7,0.3-1.7,0.5-3,0.5c-2.5,0-4.1-0.8-4.1-1.4C1.5,18.5,1.9,18,2.7,17.7z
		 M5.6,22.5c-2.5,0-4-1-4.1-1.4v-0.3c1,0.5,2.4,0.8,4.1,0.8c1.7,0,3.1-0.3,4-0.8l0,0.3C9.5,21.5,8,22.5,5.6,22.5z M8,18.2
		c-2.5,0-4-1-4.1-1.4v-0.4c1,0.5,2.4,0.8,4.1,0.8c1.7,0,3.1-0.3,4-0.8v0.3C12,17.1,10.4,18.2,8,18.2z"/>
	<path class="st1" d="M20.6,13.4V6.7l3.1,0.1L23.5,6l-7.9-4.4L7.7,6v0.7l2.7,0.1v3.8c2,0.5,3.5,1.5,3.9,2.9l0.2,0.5l0,0.5v0.9h7
		l-0.2-1.8L20.6,13.4z"/>
	<path class="st3" d="M14,9v3.7c0.1,0.1,0.1,0.2,0.2,0.3H15v-3h1v3h1V9H14z"/>
	<path class="st4" d="M24,8V5.8L15.5,0L7.8,5.2l0.4,0.5L7,6.9V8h2v2.3c0.7,0.1,1.4,0.2,2,0.4V8h1v3.1c0.4,0.2,0.7,0.4,1,0.6V8h5v5
		h-3.8c0.1,0.1,0.1,0.2,0.2,0.4l0.2,0.5l0,0.1H21l0,1h-6.5v1.8c0,0.1,0,0.1,0,0.2h7.4H24v-2h-1l0-2h-1V8H24z M20,13h-1V8h1V13z
		 M9.9,6l5.6-3.8L21.1,6H9.9z M15.5,3.4c0.6,0,1.1,0.5,1.1,1.1s-0.5,1.1-1.1,1.1s-1.1-0.5-1.1-1.1S14.9,3.4,15.5,3.4z"/>
</g>
</svg>
