<?xml version="1.0" encoding="utf-8"?>
<!-- Generator: Adobe Illustrator 26.3.0, SVG Export Plug-In . SVG Version: 6.00 Build 0)  -->
<svg version="1.1" id="Layer_1" xmlns="http://www.w3.org/2000/svg" xmlns:xlink="http://www.w3.org/1999/xlink" x="0px" y="0px"
	 viewBox="0 0 24 24" style="enable-background:new 0 0 24 24;" xml:space="preserve">
<style type="text/css">
	.st0{opacity:0.5;fill:#FFFFFF;enable-background:new    ;}
	.st1{fill:#EEAD56;}
</style>
<g id="icon">
	<path class="st0" d="M11.5,23.1c-2,0-4-0.4-5.5-1.1C4.7,21.3,4,20.5,4,19.9v-3.2h0l0-0.8V5.2h0l0-0.8c0,0,0,0,0-0.1
		c0-1.9,3.4-3.4,7.5-3.4l0.1,0c4.1,0,7.5,1.5,7.5,3.4c0,0,0,0,0,0.1l0,0.8h0v10.7l0,0.1l0-0.6v3.8c0,1.3-1.1,2.3-2.1,2.8
		C15.5,22.7,13.5,23.1,11.5,23.1C11.5,23.1,11.5,23.1,11.5,23.1z"/>
	<path class="st1" d="M11.5,24c-2.1,0-4.3-0.4-5.9-1.2C3.9,22,3,20.9,3,19.9V4.3h0C3.1,1.8,6.7,0,11.5,0l0,0l0,0
		C16.4,0,20,1.9,20,4.3c0,0,0,0.1,0,0.1l0,0.1v11.4c0,0,0,0.1,0,0.1l0,0l0,3.9c0,1.1-0.9,2.1-2.6,2.9C15.8,23.6,13.6,24,11.5,24
		L11.5,24z M5,19.9c0,0.3,0.4,0.9,1.6,1.4c1.4,0.6,3.1,0.9,4.9,0.9c1.8,0,3.6-0.3,4.9-0.9c1.2-0.5,1.6-1.1,1.6-1.4v-2
		c-1.3,0.8-3.2,1.4-5.2,1.5l-0.4,0l-0.1,0c-0.3,0-0.5,0-0.7,0c-0.2,0-0.5,0-0.7,0l-0.6,0c-2.1-0.2-3.9-0.7-5.2-1.5L5,19.9L5,19.9z
		 M11.5,18.3c1.8,0,3.6-0.4,4.9-1l0.1,0l0,0c1-0.5,1.5-1,1.5-1.3v-2.1c-1.7,1-4,1.6-6.5,1.6c-2.5,0-4.9-0.6-6.5-1.6V16
		c0,0.3,0.5,0.8,1.5,1.3l0,0l0.1,0C7.9,18,9.7,18.3,11.5,18.3L11.5,18.3L11.5,18.3z M11.5,14.4c1.8,0,3.6-0.4,5-1
		c0.8-0.4,1.3-0.8,1.5-1.2V10c-1.6,1-4,1.6-6.5,1.6C9,11.6,6.6,11,5,10v2.2c0.2,0.4,0.7,0.9,1.5,1.2C7.9,14,9.7,14.4,11.5,14.4
		C11.4,14.4,11.5,14.4,11.5,14.4z M11.5,10.5c1.8,0,3.6-0.4,5-1C17.7,8.9,18,8.3,18,8.1V6.3c-0.3,0.2-0.5,0.3-0.8,0.4
		c-1.5,0.6-3.5,0.9-5.7,0.9h-0.1c-2.2,0-4.1-0.3-5.6-0.9C5.6,6.6,5.3,6.5,5,6.3v1.8c0,0.2,0.4,0.8,1.6,1.4
		C7.9,10.1,9.7,10.5,11.5,10.5C11.5,10.5,11.5,10.5,11.5,10.5z M11.5,6.6c1.9,0,3.6-0.3,4.9-0.8c1.1-0.4,1.7-1,1.7-1.5
		c0-0.6-0.7-1.2-1.8-1.7c-1.3-0.6-3-0.9-4.8-0.9h-0.1c-1.8,0-3.5,0.3-4.8,0.9C5.5,3.1,4.9,3.8,4.9,4.3c0,0.5,0.6,1.1,1.7,1.5
		C7.8,6.3,9.6,6.6,11.5,6.6L11.5,6.6L11.5,6.6z"/>
</g>
</svg>
