<?xml version="1.0" encoding="utf-8"?>
<!-- Generator: Adobe Illustrator 26.3.0, SVG Export Plug-In . SVG Version: 6.00 Build 0)  -->
<svg version="1.1" id="Layer_1" xmlns="http://www.w3.org/2000/svg" xmlns:xlink="http://www.w3.org/1999/xlink" x="0px" y="0px"
	 viewBox="0 0 24 24" style="enable-background:new 0 0 24 24;" xml:space="preserve">
<style type="text/css">
	.st0{fill:#FFFFFF;}
	.st1{fill:#EEAD56;}
	.st2{opacity:0.5;fill:#FFFFFF;enable-background:new    ;}
</style>
<g id="icon">
	<circle class="st0" cx="7.5" cy="16.5" r="6.8"/>
	<path class="st1" d="M7.5,24C3.4,24,0,20.6,0,16.5S3.4,9,7.5,9s7.5,3.4,7.5,7.5S11.6,24,7.5,24z M7.5,10.5c-3.3,0-6,2.7-6,6
		s2.7,6,6,6s6-2.7,6-6S10.8,10.5,7.5,10.5z"/>
	<path class="st1" d="M7.2,20.5c-0.2,0-0.5,0-0.7-0.1c-0.2,0-0.5-0.1-0.7-0.2c-0.2-0.1-0.4-0.2-0.6-0.3c-0.2-0.1-0.3-0.3-0.5-0.4
		l0.8-0.9c0.1,0.1,0.2,0.2,0.4,0.3c0.1,0.1,0.2,0.1,0.4,0.2c0.1,0.1,0.3,0.1,0.4,0.1c0.2,0,0.4,0,0.6,0l0.1,0c0.3,0,0.5-0.1,0.7-0.2
		c0.2-0.1,0.4-0.2,0.5-0.3c0.1-0.1,0.2-0.3,0.3-0.4C9,18.2,9,18,9,17.9c0-0.2,0-0.3-0.1-0.4c-0.1-0.1-0.2-0.2-0.3-0.3
		C8.5,17.1,8.3,17,8.1,17c-0.2-0.1-0.5-0.1-0.8-0.2l-0.1,0c-0.2-0.1-0.5-0.1-0.7-0.2c-0.3-0.1-0.5-0.2-0.7-0.3
		c-0.2-0.2-0.4-0.4-0.6-0.6C5,15.3,4.9,15,4.9,14.7c0-0.3,0-0.6,0.1-0.8c0.1-0.3,0.3-0.5,0.5-0.7c0.2-0.2,0.5-0.4,0.8-0.5
		c0.3-0.1,0.6-0.2,1-0.2l0.1,0c0.4,0,0.7,0,0.9,0.1c0.2,0.1,0.4,0.2,0.6,0.3c0.2,0.1,0.3,0.2,0.4,0.3l0.4,0.3l-0.8,0.9L8.6,14
		c0,0-0.1-0.1-0.2-0.1c-0.1,0-0.2-0.1-0.4-0.1c-0.1,0-0.3-0.1-0.6-0.1l-0.1,0c-0.2,0-0.4,0.1-0.6,0.1c-0.2,0.1-0.3,0.1-0.4,0.2
		c-0.1,0.1-0.2,0.2-0.2,0.3c0,0.1-0.1,0.2-0.1,0.3c0,0.1,0,0.2,0.1,0.3c0.1,0.1,0.1,0.2,0.2,0.2c0.1,0.1,0.3,0.2,0.4,0.2
		c0.2,0.1,0.4,0.1,0.6,0.2l0.1,0c0.3,0.1,0.5,0.1,0.8,0.2C8.7,15.9,9,16,9.2,16.2c0.3,0.2,0.5,0.4,0.7,0.6c0.2,0.3,0.3,0.6,0.3,1
		c0,0.4,0,0.7-0.2,1c-0.1,0.3-0.3,0.6-0.6,0.8c-0.2,0.2-0.5,0.4-0.9,0.6c-0.3,0.1-0.7,0.2-1.1,0.2l-0.1,0
		C7.3,20.5,7.2,20.5,7.2,20.5z"/>
	<rect x="6.9" y="11.7" class="st1" width="1.2" height="9.6"/>
	<path class="st2" d="M23.2,4C23.2,4,23.2,4,23.2,4c0-1.8-3-3.2-6.6-3.2l-0.1,0c-3.7,0-6.6,1.4-6.6,3.1c0,0,0,0,0,0.1l0,0.7h0v3.3
		c3.7,1,6.4,4.4,6.4,8.4c0,1.7-0.5,3.2-1.3,4.6c0.5,0.1,1.1,0.1,1.6,0.1h0c1.8,0,3.5-0.4,4.8-1c0.9-0.4,1.8-1.4,1.8-2.6v-3v-0.5V4.8
		h0L23.2,4z"/>
	<path class="st1" d="M24,4c0-2.3-3.2-4-7.5-4l0,0l0,0C12.3,0,9.1,1.7,9,3.9h0v4c1.8,0.3,3.4,1.2,4.6,2.4c0.9,0.2,1.9,0.3,2.9,0.3
		c2.2,0,4.3-0.6,5.8-1.5v2c-0.2,0.4-0.6,0.8-1.3,1.1c-1.2,0.6-2.8,0.9-4.4,0.9h0c-0.3,0-0.6,0-0.9,0c0.1,0.3,0.3,0.7,0.4,1
		c0.2,0,0.4,0,0.6,0c2.2,0,4.3-0.5,5.8-1.5v1.9c0,0.3-0.4,0.8-1.3,1.2l0,0l-0.1,0c-1.2,0.6-2.8,0.9-4.3,0.9h0c-0.1,0-0.2,0-0.3,0
		c0,0.3,0,0.7-0.1,1c0.1,0,0.3,0,0.4,0c0.2,0,0.4,0,0.6,0l0.1,0l0.4,0c1.8-0.2,3.4-0.7,4.6-1.4v1.9c0,0.2-0.4,0.8-1.4,1.3
		c-1.2,0.6-2.7,0.9-4.3,0.9c-0.4,0-0.8,0-1.2-0.1c-0.3,0.5-0.6,1.1-1,1.5c0.7,0.1,1.4,0.2,2.1,0.2h0c1.9,0,3.8-0.4,5.2-1.1
		c1.5-0.7,2.3-1.7,2.3-2.7l0-3.5l0,0c0,0,0-0.1,0-0.1V4.1L24,4C24,4,24,4,24,4z M22.3,7.4c0,0.2-0.3,0.8-1.4,1.3
		c-1.2,0.6-2.8,0.9-4.4,0.9h0c-1.6,0-3.1-0.3-4.3-0.9c-1.1-0.5-1.4-1.1-1.4-1.3V5.8C11,6,11.3,6.1,11.5,6.2c1.3,0.6,3,0.9,4.9,0.9h0
		c1.9,0,3.7-0.3,5-0.9C21.8,6.1,22,6,22.3,5.8L22.3,7.4L22.3,7.4z M20.8,5.4c-1.1,0.5-2.6,0.7-4.3,0.7l0,0l0,0
		c-1.7,0-3.2-0.2-4.3-0.7C11.2,5,10.6,4.5,10.6,4c0-0.5,0.6-1.1,1.6-1.5c1.1-0.5,2.6-0.8,4.3-0.8h0c1.6,0,3.1,0.3,4.3,0.8
		c1,0.4,1.6,1,1.6,1.5C22.4,4.5,21.8,5,20.8,5.4z"/>
</g>
</svg>
