<?xml version="1.0" encoding="utf-8"?>
<!-- Generator: Adobe Illustrator 26.3.0, SVG Export Plug-In . SVG Version: 6.00 Build 0)  -->
<svg version="1.1" id="Layer_1" xmlns="http://www.w3.org/2000/svg" xmlns:xlink="http://www.w3.org/1999/xlink" x="0px" y="0px"
	 viewBox="0 0 24 24" style="enable-background:new 0 0 24 24;" xml:space="preserve">
<style type="text/css">
	.st0{fill:#52B250;}
	.st1{fill:#7B7B7B;}
</style>
<g id="icon">
	<path class="st0" d="M23,6.9L17.6,10l0-2.2L21,5.9L23,6.9z M17.6,13.2l5.5-3.1l-2-1L17.6,11L17.6,13.2z M16.7,4.9
		c0.8,0.5,0.9,1.4,0.9,1.8l5.5-3.1L15,0L11.1,2L16.7,4.9L16.7,4.9z M4.9,13.6L3,12.4l-2,1l2,1.1C3.6,14.1,4.2,13.8,4.9,13.6z
		 M12.1,9.8V8.8L5.2,4.9L0.9,7l8,4.5L12.1,9.8z M7.1,13.2c0.6,0,1.3,0.1,2.1,0.3c0.4,0.1,0.9,0.2,1.7,0.2l1.2-0.7v-2.2l-3.1,1.7
		L3,9.2l-2,1l5.3,3C6.5,13.2,6.8,13.2,7.1,13.2z"/>
	<path class="st1" d="M13,8.6v5.3c0.7,0,1.5,0.1,2.4,0.2c0.3,0,0.5,0,0.7,0.1l0.6-0.3l0-6.9c0-0.2,0-0.9-0.5-1.2l-6.1-3.2l-4,2
		l6.7,3.8C12.9,8.3,13,8.5,13,8.6z"/>
	<path class="st1" d="M8.8,15.2c1,0.2,2.4,0.4,6.4,0.6c1,0.1,1.8,0.2,1.9,0.3c0.6,0.3,0.8,1.4,0.3,1.9c-0.5,0.5-1.2,0.6-4.7,0.6H9.5
		C9.1,18.7,9,19,9.2,19.5c0.2,0.3,0.3,0.3,2.6,0.3c2.3,0,4.5-0.5,5.3-0.7c0.5-0.2,0.8-0.5,1.3-1.1c1.2-1.2,1.5-1.6,3-2.2
		c1.6-0.7,2.2-0.7,2.5-0.1c0.3,0.7,0.2,0.9-1.5,2.2c-0.5,0.4-3.3,3.2-4,3.6c-0.8,0.5-6.1,2.6-7.1,2.6c-0.4,0-1.8-0.2-3-0.4
		c-1.2-0.2-2.5-0.5-2.8-0.6c-0.8-0.2-1.4-0.1-2.1,0.3c-0.3,0.2-0.7,0.3-0.8,0.3c-0.3,0-2.5-3.5-2.5-4c0-0.3,0.3-0.6,2.1-2.1
		c1.9-1.6,2.5-2,3.6-2.3C6.7,14.9,7.4,14.9,8.8,15.2z"/>
</g>
</svg>
