<?xml version="1.0" encoding="utf-8"?>
<!-- Generator: Adobe Illustrator 26.3.0, SVG Export Plug-In . SVG Version: 6.00 Build 0)  -->
<svg version="1.1" id="Layer_1" xmlns="http://www.w3.org/2000/svg" xmlns:xlink="http://www.w3.org/1999/xlink" x="0px" y="0px"
	 viewBox="0 0 24 24" style="enable-background:new 0 0 24 24;" xml:space="preserve">
<style type="text/css">
	.st0{fill:#54B14C;}
	.st1{fill:#54B14E;}
	.st2{fill:#7D7C7B;}
	.st3{opacity:0.5;fill:#FFFFFF;enable-background:new    ;}
	.st4{fill:#6486C4;}
</style>
<g id="icon">
	<path class="st0" d="M3.1,17.6c-0.4,0-0.8-0.1-1.2-0.2c-0.4-0.2-0.7-0.4-1-0.7c-0.3-0.3-0.5-0.7-0.6-1.1C0.1,15.1,0,14.6,0,14.1
		c0-0.6,0.1-1.1,0.2-1.5c0.2-0.4,0.4-0.8,0.6-1.1c0.3-0.3,0.6-0.6,1-0.7c0.4-0.1,0.8-0.2,1.2-0.2c0.4,0,0.8,0.1,1.2,0.2
		c0.4,0.2,0.7,0.4,1,0.7c0.3,0.3,0.5,0.7,0.6,1.1C6,13,6.1,13.5,6.1,14.1c0,0.6-0.1,1.1-0.2,1.5c-0.2,0.4-0.4,0.8-0.6,1.1
		c-0.3,0.3-0.6,0.5-1,0.7C3.9,17.5,3.5,17.6,3.1,17.6z M3.1,12c-0.2,0-0.4,0-0.6,0.1c-0.2,0.1-0.3,0.2-0.4,0.3
		c-0.1,0.2-0.3,0.4-0.3,0.6c-0.1,0.3-0.1,0.6-0.1,1c0,0.4,0,0.7,0.1,1c0.1,0.2,0.2,0.5,0.3,0.6c0.1,0.1,0.3,0.2,0.5,0.3
		c0.2,0.1,0.4,0.1,0.6,0.1c0.2,0,0.4,0,0.6-0.1c0.2-0.1,0.3-0.2,0.5-0.3c0.1-0.2,0.3-0.4,0.3-0.6c0.1-0.3,0.1-0.6,0.1-1
		c0-0.4,0-0.7-0.1-1c-0.1-0.3-0.2-0.5-0.3-0.6c-0.1-0.1-0.3-0.2-0.4-0.3C3.5,12.1,3.3,12,3.1,12z"/>
	<path class="st0" d="M10.9,24.1c-0.4,0-0.8-0.1-1.2-0.2c-0.4-0.2-0.7-0.4-1-0.7c-0.3-0.3-0.5-0.7-0.7-1.1c-0.2-0.4-0.2-0.9-0.2-1.5
		c0-0.6,0.1-1.1,0.2-1.5c0.2-0.4,0.4-0.8,0.7-1.1c0.3-0.3,0.6-0.5,1-0.7c0.4-0.1,0.8-0.2,1.2-0.2c0.4,0,0.8,0.1,1.2,0.2
		c0.4,0.2,0.7,0.4,1,0.7c0.3,0.3,0.5,0.7,0.7,1.1c0.2,0.4,0.2,0.9,0.2,1.5c0,0.6-0.1,1.1-0.2,1.5c-0.2,0.4-0.4,0.8-0.7,1.1
		c-0.3,0.3-0.6,0.5-1,0.7C11.7,24,11.3,24.1,10.9,24.1z M10.9,18.5c-0.2,0-0.4,0-0.6,0.1c-0.2,0.1-0.3,0.2-0.5,0.3
		c-0.1,0.2-0.3,0.4-0.3,0.6c-0.1,0.3-0.1,0.6-0.1,1c0,0.4,0,0.7,0.1,1c0.1,0.2,0.2,0.5,0.3,0.6c0.1,0.1,0.3,0.3,0.5,0.3
		c0.2,0.1,0.4,0.1,0.6,0.1c0.2,0,0.4,0,0.6-0.1c0.2-0.1,0.3-0.2,0.5-0.3c0.1-0.2,0.3-0.4,0.3-0.6c0.1-0.3,0.1-0.6,0.1-1
		c0-0.4,0-0.7-0.1-1c-0.1-0.3-0.2-0.5-0.4-0.6c-0.1-0.1-0.3-0.3-0.5-0.3C11.3,18.6,11.1,18.5,10.9,18.5z"/>
	<rect x="-0.7" y="16.6" transform="matrix(0.589 -0.8081 0.8081 0.589 -11.1108 12.7654)" class="st1" width="15.4" height="1.5"/>
	<path class="st2" d="M6,7.1V9h3h3h1.5H15h1.5v2H15v1h1.5v2H15v1h1.5v2H15v1h1.5v2H15v2h9V7.1H6z M21,20h-3v-5h3V20z M21,14h-3v-2h3
		V14z M21,11h-3V9h3V11z"/>
	<path class="st3" d="M15,15h1.5v2H15V15z M15,20h1.5v-2H15V20z M15,14h1.5v-2H15V14z M15,11h1.5V9H15V11z M18,14h3v-2h-3V14z
		 M18,20h3v-5h-3V20z M18,9v2h3V9H18z"/>
	<rect x="6" class="st4" width="18" height="6"/>
</g>
</svg>
