<?xml version="1.0" encoding="utf-8"?>
<!-- Generator: Adobe Illustrator 26.3.0, SVG Export Plug-In . SVG Version: 6.00 Build 0)  -->
<svg version="1.1" id="Layer_1" xmlns="http://www.w3.org/2000/svg" xmlns:xlink="http://www.w3.org/1999/xlink" x="0px" y="0px"
	 viewBox="0 0 24 24" style="enable-background:new 0 0 24 24;" xml:space="preserve">
<style type="text/css">
	.st0{fill:#7B7B7B;}
	.st1{fill:#EEAD56;}
	.st2{opacity:0.5;fill:#FFFFFF;enable-background:new    ;}
</style>
<g id="icon">
	<g>
		<path class="st0" d="M6.7,4.6c0.2,0.2,0.4,0.7,0.6,0.9h8.3c0.7-0.7,1.4-1.5,2-2.2c0.4-0.4,0.6-1,0.8-1.6c0.2-0.7-0.4-1.4-1.2-1.3
			c-0.3,0-0.6,0.1-0.9,0.2c-0.9,0.4-1.7,0.8-2.5,1.2C13.4,1.4,13,1,12.6,0.6c-0.8-0.8-1.4-0.8-2.2,0C10,1,9.6,1.4,9.3,1.8
			C8.8,1.5,8.3,1.2,7.8,1c-0.6-0.3-1.3-0.5-2-0.6C5.2,0.3,4.6,0.8,4.6,1.4c0,0.4,0.1,0.8,0.3,1.1C5.5,3.3,6.1,3.8,6.7,4.6z"/>
		<path class="st0" d="M21.4,16.2c-0.1-1-0.7-1.9-1.2-2.8c-1.2-1.8-2.6-4.2-4.1-5.8H6.9C6.3,8.3,5.9,9,5.4,9.7
			c-1.2,1.5-2.4,3.4-3.3,5.1c-0.4,0.8-0.6,1.6-0.4,2.5C2,19.4,3.2,21,5,22.2c2.1,1.4,4.6,1.9,7.2,1.8c3-0.2,5.7-1.2,7.6-3.4
			C20.9,19.3,21.5,17.9,21.4,16.2z M14.1,15v1.4h-1.8v0.8h1.8v1.4h-1.8v1.9h-1.5v-2H9.1v-1.3h1.6v-0.8H9.1V15h1.1l-2.3-3.4L9,10.9
			l2.5,3.6l2.6-3.6l1.1,0.8L12.9,15H14.1z"/>
	</g>
	<rect x="5.5" y="6" class="st1" width="12" height="1"/>
	<polygon class="st2" points="15.2,11.6 14.1,10.9 11.5,14.4 9,10.9 7.9,11.6 10.2,15 9.1,15 9.1,16.4 10.8,16.4 10.8,17.1 
		9.1,17.1 9.1,18.5 10.8,18.5 10.8,20.4 12.2,20.4 12.2,18.5 14.1,18.5 14.1,17.1 12.2,17.1 12.2,16.4 14.1,16.4 14.1,15 12.9,15 	
		"/>
</g>
</svg>
