<?xml version="1.0" encoding="utf-8"?>
<!-- Generator: Adobe Illustrator 26.3.0, SVG Export Plug-In . SVG Version: 6.00 Build 0)  -->
<svg version="1.1" id="Layer_1" xmlns="http://www.w3.org/2000/svg" xmlns:xlink="http://www.w3.org/1999/xlink" x="0px" y="0px"
	 viewBox="0 0 24 24" style="enable-background:new 0 0 24 24;" xml:space="preserve">
<style type="text/css">
	.st0{fill:#EEAD56;}
	.st1{opacity:0.5;fill:#FFFFFF;enable-background:new    ;}
	.st2{fill:#7B7B7B;}
	.st3{fill:#6485C3;}
</style>
<g id="icon">
	<path class="st0" d="M7.5,9C3.4,9,0,12.4,0,16.5S3.4,24,7.5,24s7.5-3.4,7.5-7.5S11.6,9,7.5,9z M9.9,15.8v1.4H8.2v0.8h1.7v1.4H8.2
		v2.3H6.8v-2.3H5.1v-1.4h1.7v-0.8H5.1v-1.4h1.1L4,12.4l1.2-0.7l2.4,3.7l2.4-3.7l1.2,0.7l-2.2,3.4H9.9z"/>
	<polygon class="st1" points="11,12.4 9.9,11.7 7.5,15.4 5.2,11.7 4,12.4 6.2,15.8 5.1,15.8 5.1,17.2 6.8,17.2 6.8,17.9 5.1,17.9 
		5.1,19.3 6.8,19.3 6.8,21.6 8.2,21.6 8.2,19.3 9.9,19.3 9.9,17.9 8.2,17.9 8.2,17.2 9.9,17.2 9.9,15.8 8.9,15.8 	"/>
	<path class="st1" d="M8.8,0.8v7.1c4.2,0.6,7.5,4.2,7.5,8.6c0,1.8-0.5,3.4-1.4,4.8h8.5V0.8H8.8z"/>
	<path class="st2" d="M8,0v7.8c0.7,0,1.4,0.2,2,0.4V2h12v18h-6.5c-0.3,0.7-0.7,1.4-1.2,2H18h6V0H8z"/>
	<path class="st3" d="M18,17v2h-2v-0.6c0.1-0.4,0.2-0.9,0.2-1.4H18z M18,3h-4v1h4V3z"/>
</g>
</svg>
