<?xml version="1.0" encoding="utf-8"?>
<!-- Generator: Adobe Illustrator 26.3.0, SVG Export Plug-In . SVG Version: 6.00 Build 0)  -->
<svg version="1.1" id="Layer_1" xmlns="http://www.w3.org/2000/svg" xmlns:xlink="http://www.w3.org/1999/xlink" x="0px" y="0px"
	 viewBox="0 0 24 24" style="enable-background:new 0 0 24 24;" xml:space="preserve">
<style type="text/css">
	.st0{opacity:0.5;fill:#FFFFFF;enable-background:new    ;}
	.st1{fill:#7B7B7B;}
	.st2{fill:#6485C3;}
	.st3{fill:#EEAC55;}
</style>
<g id="icon">
	<polygon class="st0" points="8.8,0.8 8.8,5.7 9,5.6 19.2,12.1 19.2,16.2 17.2,16.2 17.2,18.8 18.2,18.8 18.2,20.8 19.2,20.8 
		19.2,21.2 23.2,21.2 23.2,0.8 	"/>
	<polygon class="st1" points="8,0 8,6.2 9,5.6 10,6.2 10,2 22,2 22,20 18.2,20 18.2,20.8 19.2,20.8 19.2,22 24,22 24,0 	"/>
	<path class="st2" d="M17.2,17H18v1.8h-0.8V17z M18,3h-4v1h4V3z"/>
	<path class="st0" d="M15.3,20.5l0.2,1.8H2.8v-1.7h0.6v-6.8l-2.7-0.1V13L9,8.5l8.4,4.4l0.2,0.8l-3.1-0.1v6.8L15.3,20.5z"/>
	<path class="st3" d="M7,20v-4h4v4h-1v-3H8v3H7z"/>
	<path class="st1" d="M18,15v-2.2L9,7l-9,5.8V15h2v5H1v2H0v2h2.2h13.6H18v-2h-1l0-2h-1v-5H18z M9,9.2l6.1,3.8H2.9L9,9.2z M6,20v-5h6
		v5H6z M4,15h1v5H4V15z M3,22v-1h12l0,1H3z M14,20h-1v-5h1V20z M10.1,11.5c0,0.6-0.5,1.1-1.1,1.1s-1.1-0.5-1.1-1.1s0.5-1.1,1.1-1.1
		S10.1,10.9,10.1,11.5z"/>
</g>
</svg>
