<?xml version="1.0" encoding="utf-8"?>
<!-- Generator: Adobe Illustrator 26.3.0, SVG Export Plug-In . SVG Version: 6.00 Build 0)  -->
<svg version="1.1" id="Layer_1" xmlns="http://www.w3.org/2000/svg" xmlns:xlink="http://www.w3.org/1999/xlink" x="0px" y="0px"
	 viewBox="0 0 24 24" style="enable-background:new 0 0 24 24;" xml:space="preserve">
<style type="text/css">
	.st0{opacity:0.5;fill:#FFFFFF;enable-background:new    ;}
	.st1{fill:#6484C3;}
	.st2{fill:#EEAD56;}
</style>
<g id="icon">
	<path class="st0" d="M7.9,11.3c0,0.6-0.5,1.1-1.1,1.1s-1.1-0.5-1.1-1.1s0.5-1.1,1.1-1.1S7.9,10.7,7.9,11.3z M9.6,8.9
		c2-1,5.3-0.8,6.8,0c0.4,0.2,0.8,0,1-0.3s0-0.8-0.3-1C15,6.4,11.3,6.4,9,7.5c-0.4,0.2-0.5,0.6-0.4,1C8.8,8.8,9,8.9,9.3,8.9
		C9.4,8.9,9.5,8.9,9.6,8.9z"/>
	<path class="st1" d="M24,14.8c-0.1-1.7-0.6-3.4-1.4-4.7c-1.2-1.9-2.9-3.4-5-4.3c-0.2,0.6-0.5,1.1-0.9,1.6c0.1,0.1,0.2,0.1,0.3,0.2
		c0.4,0.2,0.5,0.6,0.3,1c-0.2,0.4-0.6,0.5-1,0.3c-1.5-0.8-4.8-0.9-6.8,0c-0.1,0-0.2,0.1-0.3,0.1C9,8.9,8.8,8.8,8.7,8.5
		c-0.2-0.4,0-0.8,0.4-1c0,0,0.1,0,0.1-0.1c-0.5-0.6-0.8-1.2-1-1.9c-0.1,0-0.2,0-0.3,0c-0.4,0-0.7-0.2-1.1-0.5l-0.1,0
		c-0.7-0.5-1.5-0.8-2.3-1c-0.1,0-0.2,0-0.3,0c-0.3,0-0.5,0.1-0.6,0.4c-0.2,0.4,0,1.2,0.2,1.5C3.8,6,3.9,6.2,4,6.3
		c0.3,0.3,0.6,0.7,0.6,1c0.1,0.3-0.3,0.5-0.6,0.8C4,8.2,3.8,8.3,3.7,8.4c-0.4,0.5-0.7,1-1,1.5c-0.3,0.6-0.6,0.9-1.1,0.9
		C1,10.9,0.4,11,0.1,12C0,12.6,0,13.4,0,14.1c0,0.2,0,0.4,0,0.6c0,0.1,0,0.1,0,0.2c0,0.5,0,1.1,0.2,1.6c0.3,0.7,1,0.8,1.7,0.9
		c0.4,0.1,0.8,0.2,1,0.3c0.5,0.3,0.9,0.8,1.3,1.2c0.1,0.1,0.3,0.3,0.4,0.4c0.2,0.2,0.4,0.3,0.6,0.5c0.3,0.2,0.5,0.4,0.7,0.6
		C6.1,20.6,6,21.3,6,21.8c-0.1,0.8-0.1,1.8,0.6,2c0.3,0.1,0.6,0.1,1,0.1c0.3,0,0.6,0,0.9,0c0.2,0,0.5,0,0.7,0c0.6,0,1.2-0.1,1.5-0.8
		c0-0.1,0.1-0.2,0.1-0.3c0.1-0.4,0.2-0.6,0.4-0.6c0.1,0,0.2,0,0.3,0c0.2,0,0.5,0,0.8,0.1c0.3,0,0.5,0.1,0.8,0.1l0,0
		c0.7,0,1.5-0.1,2.2-0.2c0,0,0.1,0,0.1,0c0.1,0,0.1,0,0.1,0c0.1,0.1,0.1,0.5,0.1,0.7l0,0.1c0,0.3,0.1,0.6,0.3,0.8
		c0.3,0.3,0.7,0.4,1.4,0.4c0,0,0,0,0,0c0.3,0,0.7,0,1-0.1c0.2,0,0.5,0,0.6,0c1,0,1.5-0.3,2.2-1.1c0.4-0.5,0.8-1,1.2-1.6
		c0.8-1.3,1.4-2.4,1.7-3.5C23.9,16.8,24,15.7,24,14.8z M6.8,12.4c-0.6,0-1.1-0.5-1.1-1.1c0-0.6,0.5-1.1,1.1-1.1s1.1,0.5,1.1,1.1
		C7.9,11.9,7.4,12.4,6.8,12.4z"/>
	<path class="st2" d="M9.9,7.3c-1.7-1.7-1.7-4.4,0-6.1s4.4-1.7,6,0s1.7,4.4,0,6.1c-0.1,0.1-0.3,0.2-0.4,0.4
		c-0.8-0.2-1.6-0.3-2.4-0.3c-1,0-1.9,0.1-2.7,0.3C10.2,7.7,10.1,7.5,9.9,7.3z"/>
</g>
</svg>
