<?xml version="1.0" encoding="utf-8"?>
<!-- Generator: Adobe Illustrator 26.3.0, SVG Export Plug-In . SVG Version: 6.00 Build 0)  -->
<svg version="1.1" id="Layer_1" xmlns="http://www.w3.org/2000/svg" xmlns:xlink="http://www.w3.org/1999/xlink" x="0px" y="0px"
	 viewBox="0 0 24 24" style="enable-background:new 0 0 24 24;" xml:space="preserve">
<style type="text/css">
	.st0{opacity:0.5;fill:#FFFFFF;enable-background:new    ;}
	.st1{fill:#7B7B7B;}
	.st2{fill:#6486C4;}
	.st3{fill:#B7B7B7;}
	.st4{fill:#54B14C;}
</style>
<g id="icon">
	<polygon class="st0" points="5.2,0.7 5.2,6.2 5.2,9 15,9 15,19.3 23.2,19.3 23.2,6.2 23.2,0.7 	"/>
	<polygon class="st1" points="4,5 4,9 6,9 6,7 22,7 22,18 15,18 15,20 24,20 24,5 	"/>
	<path class="st2" d="M4,0v7h20V0H4z M22,5H6V2h16V5z"/>
	<path class="st3" d="M11,9V7h1v2H11z M22,11v-1h-4V7h-1v3h-2v1h2v3h-2v1h2v3h1v-3h4v-1h-4v-3H22z"/>
	<path class="st4" d="M10.9,24.1c-0.4,0-0.8-0.1-1.2-0.2c-0.4-0.2-0.7-0.4-1-0.7c-0.3-0.3-0.5-0.7-0.7-1.1c-0.2-0.4-0.2-0.9-0.2-1.5
		c0-0.6,0.1-1.1,0.2-1.5c0.2-0.4,0.4-0.8,0.7-1.1c0.3-0.3,0.6-0.5,1-0.7c0.4-0.1,0.8-0.2,1.2-0.2c0.4,0,0.8,0.1,1.2,0.2
		c0.4,0.2,0.7,0.4,1,0.7c0.3,0.3,0.5,0.7,0.7,1.1c0.2,0.4,0.2,0.9,0.2,1.5c0,0.6-0.1,1.1-0.2,1.5c-0.2,0.4-0.4,0.8-0.7,1.1
		c-0.3,0.3-0.6,0.5-1,0.7C11.7,24,11.3,24.1,10.9,24.1z M10.9,18.5c-0.2,0-0.4,0-0.6,0.1c-0.2,0.1-0.3,0.2-0.5,0.3
		c-0.1,0.2-0.3,0.4-0.3,0.6c-0.1,0.3-0.1,0.6-0.1,1c0,0.4,0,0.7,0.1,1c0.1,0.2,0.2,0.5,0.3,0.6c0.1,0.1,0.3,0.3,0.5,0.3
		c0.2,0.1,0.4,0.1,0.6,0.1c0.2,0,0.4,0,0.6-0.1c0.2-0.1,0.3-0.2,0.5-0.3c0.1-0.2,0.3-0.4,0.3-0.6c0.1-0.3,0.1-0.6,0.1-1
		c0-0.4,0-0.7-0.1-1c-0.1-0.3-0.2-0.5-0.4-0.6c-0.1-0.1-0.3-0.3-0.5-0.3C11.3,18.6,11.1,18.5,10.9,18.5z M3.1,17.6
		c-0.4,0-0.8-0.1-1.2-0.2c-0.4-0.2-0.7-0.4-1-0.7c-0.3-0.3-0.5-0.7-0.6-1.1C0.1,15.1,0,14.6,0,14.1c0-0.6,0.1-1.1,0.2-1.5
		c0.2-0.4,0.4-0.8,0.6-1.1c0.3-0.3,0.6-0.6,1-0.7c0.4-0.1,0.8-0.2,1.2-0.2c0.4,0,0.8,0.1,1.2,0.2c0.4,0.2,0.7,0.4,1,0.7
		c0.3,0.3,0.5,0.7,0.6,1.1C6,13,6.1,13.5,6.1,14.1c0,0.6-0.1,1.1-0.2,1.5c-0.2,0.4-0.4,0.8-0.6,1.1c-0.3,0.3-0.6,0.5-1,0.7
		C3.9,17.5,3.5,17.6,3.1,17.6z M3.1,12c-0.2,0-0.4,0-0.6,0.1c-0.2,0.1-0.3,0.2-0.4,0.3c-0.1,0.2-0.3,0.4-0.3,0.6
		c-0.1,0.3-0.1,0.6-0.1,1c0,0.4,0,0.7,0.1,1c0.1,0.2,0.2,0.5,0.3,0.6c0.1,0.1,0.3,0.2,0.5,0.3c0.2,0.1,0.4,0.1,0.6,0.1
		c0.2,0,0.4,0,0.6-0.1c0.2-0.1,0.3-0.2,0.5-0.3c0.1-0.2,0.3-0.4,0.3-0.6c0.1-0.3,0.1-0.6,0.1-1c0-0.4,0-0.7-0.1-1
		c-0.1-0.3-0.2-0.5-0.3-0.6c-0.1-0.1-0.3-0.2-0.4-0.3C3.5,12.1,3.3,12,3.1,12z M12.1,11.5l-1.2-0.9L1.9,23.1L3.1,24L12.1,11.5z"/>
</g>
</svg>
