<?xml version="1.0" encoding="utf-8"?>
<!-- Generator: Adobe Illustrator 26.3.0, SVG Export Plug-In . SVG Version: 6.00 Build 0)  -->
<svg version="1.1" id="Layer_1" xmlns="http://www.w3.org/2000/svg" xmlns:xlink="http://www.w3.org/1999/xlink" x="0px" y="0px"
	 viewBox="0 0 24 24" style="enable-background:new 0 0 24 24;" xml:space="preserve">
<style type="text/css">
	.st0{opacity:0.5;fill:#FFFFFF;enable-background:new    ;}
	.st1{fill:#CC525E;}
	.st2{fill:#7B7B7B;}
</style>
<g id="icon">
	<polygon class="st0" points="13.9,10 13.9,18 9.9,18 9.9,10 6.8,10 12,1.8 17.2,10 	"/>
	<path class="st1" d="M9,19v-8H4.9l7.1-11l7.1,11H15v8H9z M13,17V9h2.4l-3.4-5.4L8.7,9H11v8H13z"/>
	<path class="st2" d="M5.8,24C3.1,24,1,21.9,1,19.2V15h2v4.2C3,20.8,4.2,22,5.8,22h12.5c1.5,0,2.8-1.2,2.8-2.8V15h2v4.2
		c0,2.6-2.1,4.8-4.8,4.8H5.8z"/>
</g>
</svg>
