<?xml version="1.0" encoding="utf-8"?>
<!-- Generator: Adobe Illustrator 26.1.0, SVG Export Plug-In . SVG Version: 6.00 Build 0)  -->
<svg version="1.1" id="Layer_1" xmlns="http://www.w3.org/2000/svg" xmlns:xlink="http://www.w3.org/1999/xlink" x="0px" y="0px"
	 viewBox="0 0 24 24" style="enable-background:new 0 0 24 24;" xml:space="preserve">
<style type="text/css">
	.st0{opacity:0.5;fill:#FFFFFF;enable-background:new    ;}
	.st1{fill:#7D7C7B;}
	.st2{fill:#6E6F72;}
</style>
<g id="icon">
	<path class="st0" d="M23.2,12c0,6.2-5,11.2-11.2,11.2S0.8,18.2,0.8,12S5.8,0.8,12,0.8S23.2,5.8,23.2,12z"/>
	<path class="st1" d="M12,24C5.4,24,0,18.6,0,12S5.4,0,12,0s12,5.4,12,12S18.6,24,12,24z M12,1.5C6.2,1.5,1.5,6.2,1.5,12
		S6.2,22.5,12,22.5S22.5,17.8,22.5,12S17.8,1.5,12,1.5z"/>
	<path class="st2" d="M19.5,6.9c-0.1-0.4-0.4-0.8-0.7-1c-0.2-0.2-0.5-0.3-0.7-0.4c-0.2,0-0.5,0-0.7,0c-0.8,0.2-1.4,0.8-1.6,1.7
		C15.4,8.5,16,9.8,17,10.2c0.9,0.3,1.8-0.2,2.3-1.1C19.6,8.4,19.7,7.6,19.5,6.9z M19.2,8.2C19.2,8.6,19,9,18.8,9.3
		c-0.1,0.2-0.3,0.3-0.4,0.4c-0.1,0.1-0.2,0.1-0.3,0.1c-0.2,0-0.2,0-0.3-0.1c-0.3-0.2-0.5-0.6-0.6-1.1C17,7.9,17.2,7,17.6,6.6
		c0.3-0.3,0.4-0.4,0.7-0.4c0.2,0,0.2,0,0.3,0.1c0.2,0.1,0.5,0.4,0.6,0.8C19.3,7.4,19.3,7.9,19.2,8.2z M15.8,12.1
		c-0.2-0.6-0.6-1-1.1-1.2c-0.3-0.1-0.6-0.2-0.9-0.1c-0.4,0.1-0.8,0.3-1.2,0.6c-0.8,0.8-1,2-0.5,3c0.3,0.6,0.8,1,1.5,1
		c0.4,0,0.7-0.1,1.1-0.3c0.3-0.2,0.6-0.5,0.8-0.8C15.9,13.6,16,12.8,15.8,12.1z M15.2,14.3c-0.4,0.6-0.9,0.9-1.3,0.7
		c-0.4-0.2-0.7-0.9-0.5-1.6c0.1-0.6,0.3-1.1,0.7-1.4c0.2-0.2,0.4-0.3,0.6-0.4c0.1,0,0.3,0,0.4,0C15.7,11.8,15.8,13.3,15.2,14.3z
		 M20.5,11.8c-0.1-0.2-0.4-0.5-0.7-0.7c-0.3-0.2-0.7-0.3-1.1-0.2c-0.3,0-0.6,0.2-0.9,0.4c-0.9,0.6-1.3,1.8-1,2.9
		c0.1,0.2,0.2,0.6,0.4,0.8c1,1.2,2.8,0.6,3.4-1.1C20.9,13.2,20.9,12.4,20.5,11.8z M19.8,14.8c-0.6,0.7-1.4,0.5-1.6-0.4
		c0-0.1,0-0.2,0-0.5c0-0.3,0-0.4,0.1-0.6c0.2-0.6,0.5-1.1,0.9-1.4c0.3-0.2,0.5-0.2,0.8-0.1c0.2,0.1,0.3,0.2,0.4,0.4
		c0.1,0.2,0.2,0.4,0.2,0.8C20.6,13.6,20.3,14.3,19.8,14.8z M11,16c-0.2,0-0.6,0-0.8,0c-0.8,0.2-1.6,0.9-1.9,1.8
		c-0.2,0.6-0.2,1.2,0.1,1.7c0.2,0.5,0.6,0.8,1.1,0.9c0.2,0.1,0.7,0.1,1,0c0.4-0.1,0.8-0.3,1.1-0.7c0.4-0.5,0.7-1,0.8-1.7
		C12.4,17,11.9,16.2,11,16z M10.3,20.1c-0.2,0-0.2,0-0.3,0c-0.4-0.2-0.6-0.6-0.5-1.3c0.1-0.8,0.7-1.6,1.3-1.9
		c0.2-0.1,0.3-0.1,0.5-0.1c0.2,0,0.2,0,0.3,0.1c0.3,0.2,0.4,0.5,0.4,0.9C12,18.9,11.1,20.1,10.3,20.1z M17.6,17.6
		c-0.1-0.7-0.6-1.2-1.2-1.4c-0.3-0.1-0.7-0.1-1,0c-0.9,0.2-1.7,1-1.9,2.1c-0.1,0.3-0.1,0.7,0,1c0.1,0.7,0.6,1.2,1.2,1.4
		c0.2,0.1,0.2,0.1,0.5,0.1c0.3,0,0.4,0,0.5,0c0.9-0.2,1.5-1,1.8-1.9C17.6,18.3,17.6,17.9,17.6,17.6z M17.2,18.5
		c-0.1,0.3-0.3,0.7-0.4,0.9c-0.4,0.5-0.8,0.8-1.3,0.8c-0.3,0-0.4,0-0.6-0.2c-0.2-0.2-0.3-0.5-0.3-0.9c0-0.6,0.3-1.2,0.7-1.7
		c0.5-0.5,0.9-0.7,1.4-0.5c0.2,0.1,0.4,0.3,0.5,0.6C17.3,17.8,17.3,18.3,17.2,18.5z"/>
</g>
</svg>
