<?xml version="1.0" encoding="utf-8"?>
<!-- Generator: Adobe Illustrator 26.1.0, SVG Export Plug-In . SVG Version: 6.00 Build 0)  -->
<svg version="1.1" id="Layer_1" xmlns="http://www.w3.org/2000/svg" xmlns:xlink="http://www.w3.org/1999/xlink" x="0px" y="0px"
	 viewBox="0 0 24 24" style="enable-background:new 0 0 24 24;" xml:space="preserve">
<style type="text/css">
	.st0{opacity:0.5;fill:#FFFFFF;enable-background:new    ;}
	.st1{fill:#6486C4;}
	.st2{fill:#6E6F72;}
	.st3{fill:#EEAD56;}
</style>
<g id="icon">
	<path class="st0" d="M15.5,18.8l-3.7-3.6c-3.4-3.3-3.7-3.6-3.8-3.7L8,11.5c-0.2-0.2-0.5-0.3-0.8-0.3c-0.2,0-0.3,0-0.5,0.1
		c0,0.3,0,0.5,0,0.8l0,0h0.8l7.4,7.2l0,0.7c0.3,0,0.7,0,1-0.1C16,19.6,15.9,19.1,15.5,18.8z"/>
	<path class="st1" d="M23.9,9.2L23.9,9.2c-0.6-3.2-3.3-5.9-6.6-6.6c-0.6-0.1-1.6-0.2-2.1-0.1c-1.8,0.2-3.4,0.9-5,2.2
		c-1.5,1.2-2.5,2.6-3,4.2c-0.3,0.7-0.4,1.5-0.4,2.3c0.1-0.1,0.3-0.1,0.5-0.1c0.3,0,0.6,0.1,0.8,0.3L8,11.6c0.1,0.1,0.4,0.4,3.8,3.7
		l3.7,3.6c0.3,0.3,0.4,0.8,0.3,1.2c2.6-0.3,4.3-1.6,5.1-2.5c1-1,1.8-2.2,2.4-3.7c0.2-0.6,0.3-0.8,0.5-1.8l0,0
		C24,11.3,24,10.1,23.9,9.2z"/>
	<path class="st2" d="M15,19.4l-3.7-3.6c-3.4-3.3-3.7-3.6-3.8-3.7l-0.1-0.1c-0.1-0.1-0.2-0.1-0.3-0.1c-0.1,0-0.1,0-0.2,0
		c-0.2,0.1-0.3,0.3-0.2,0.5l0,0.1l0.1,0.4c0.1,0.7,0.2,1,0.4,1.6c0.2,0.6,0.3,1.1,0.3,1.7c0,0.4,0,0.5-0.1,0.6
		c-0.1,0.2-0.2,0.3-0.8,0.8C4.9,19,3.9,20,3.7,20.2c-0.7,0.9-0.3,1.6,0.1,2.3c0.5,0.6,1.1,1.1,1.7,1.4C5.8,24,5.9,24,6.2,24
		c0,0,0,0,0,0c0.3,0,0.5-0.1,0.7-0.3c0,0,0,0,0,0c0.1-0.1,0.3-0.3,0.4-0.4c0.3-0.3,1.4-1.7,2-2.6c0.4-0.5,0.5-0.7,0.7-0.8
		c0.2-0.1,0.4-0.2,0.6-0.2c0.2,0,0.2,0,0.5,0c0.4,0,0.5,0,1.1,0.2c0.8,0.2,1.5,0.3,2,0.3c0,0,0.1,0,0.1,0l0.3,0
		c0.2,0,0.3-0.1,0.4-0.3S15.1,19.5,15,19.4z"/>
	<path class="st3" d="M7.5,3.1c-0.3-1.5-1.5-2.7-3-3C4.1,0,3.6,0,3.3,0C2.5,0.1,1.7,0.5,1.1,1.1C0.6,1.7,0.2,2.3,0.1,3
		C0,3.3,0,4,0,4.3c0.1,0.8,0.5,1.5,1,2c0.5,0.5,1.2,0.9,1.9,1.1c0.3,0.1,0.6,0.1,0.9,0.1c0.2,0,0.4,0,0.6,0c0.5-0.1,1-0.3,1.5-0.6
		c0.3-0.2,0.8-0.7,1-1C7.1,5.5,7.3,5,7.4,4.5C7.5,4.1,7.5,3.5,7.5,3.1z"/>
</g>
</svg>
