<?xml version="1.0" encoding="utf-8"?>
<!-- Generator: Adobe Illustrator 26.1.0, SVG Export Plug-In . SVG Version: 6.00 Build 0)  -->
<svg version="1.1" id="Layer_1" xmlns="http://www.w3.org/2000/svg" xmlns:xlink="http://www.w3.org/1999/xlink" x="0px" y="0px"
	 viewBox="0 0 24 24" style="enable-background:new 0 0 24 24;" xml:space="preserve">
<style type="text/css">
	.st0{fill:#7D7C7B;}
	.st1{opacity:0.5;fill:#FFFFFF;enable-background:new    ;}
	.st2{fill:#7B7B7B;}
</style>
<g id="icon">
	<path class="st0" d="M15.6,14.9c0.2,0.2,0.3,0.5,0.3,0.7v0.8c0,0.3-0.1,0.6-0.3,0.9c-0.2,0.2-0.5,0.3-0.8,0.3
		c-0.3,0-0.6-0.1-0.8-0.4c-0.2-0.3-0.3-0.6-0.3-1.1c0-0.5,0.1-0.9,0.4-1.2c0.2-0.3,0.5-0.4,0.9-0.4C15.2,14.6,15.4,14.7,15.6,14.9z
		 M22.6,17.1c-0.2,1.9-0.9,3.5-2.1,4.9c-0.4,0.4-1,1.1-1.3,1.3c-0.4,0.3-1,0.5-1.7,0.6c-0.3,0-0.6,0-5,0.1c-0.9,0-1.6,0-2.2,0
		c-2.9,0-3.3,0-3.8-0.1c-0.8-0.1-1.4-0.4-1.9-0.7C4.2,22.8,3.4,22,3,21.4c-0.9-1.3-1.4-2.6-1.6-4.2c-0.1-0.5-0.1-1.5,0-2
		c0.3-2.2,1.2-4.1,2.8-5.7C6,7.7,8.5,6.6,11.2,6.4c0.7-0.1,1.6,0,2.3,0.1c2.4,0.3,4.7,1.4,6.3,3.1c1.6,1.6,2.5,3.5,2.8,5.7
		C22.6,15.7,22.6,16.7,22.6,17.1z M12.8,18.7l-3.2-3.5l3-3.4h-1.5L9,14.2v-2.4H7.9v6.9H9v-2.6l2.3,2.6
		C11.3,18.7,12.8,18.7,12.8,18.7z M16.9,13.7h-1v0.2c-0.3-0.2-0.6-0.3-1-0.3c-0.7,0-1.2,0.3-1.6,0.8c-0.4,0.5-0.6,1.1-0.6,1.8
		c0,0.7,0.2,1.3,0.6,1.8c0.4,0.4,0.9,0.7,1.5,0.7c0.5,0,0.9-0.1,1.2-0.3c-0.1,0.8-0.5,1.2-1.4,1.2c-0.3,0-0.7-0.1-1.1-0.3l-0.5-0.3
		v1.1l0.2,0.1c0.5,0.2,0.9,0.4,1.4,0.4c0.8,0,1.4-0.2,1.8-0.7c0.4-0.4,0.6-1.1,0.6-2V13.7z"/>
	<path class="st1" d="M11.3,18.7L9,16.1v2.6H7.9v-6.9H9v2.4l2.2-2.4h1.5l-3,3.4l3.2,3.5C12.8,18.7,11.3,18.7,11.3,18.7z M16.9,13.7
		v4.2c0,0.9-0.2,1.5-0.6,2c-0.4,0.4-1,0.7-1.8,0.7c-0.5,0-0.9-0.1-1.4-0.4l-0.2-0.1v-1.1l0.5,0.3c0.4,0.2,0.8,0.3,1.1,0.3
		c0.9,0,1.3-0.4,1.4-1.2c-0.3,0.2-0.7,0.3-1.2,0.3c-0.6,0-1.1-0.2-1.5-0.7c-0.4-0.4-0.6-1-0.6-1.8c0-0.7,0.2-1.4,0.6-1.8
		c0.4-0.5,1-0.8,1.6-0.8c0.4,0,0.7,0.1,1,0.3v-0.2L16.9,13.7L16.9,13.7z M15.9,15.6c0-0.3-0.1-0.5-0.3-0.7c-0.2-0.2-0.4-0.3-0.7-0.3
		c-0.4,0-0.6,0.1-0.9,0.4c-0.2,0.3-0.4,0.7-0.4,1.2c0,0.5,0.1,0.9,0.3,1.1c0.2,0.2,0.4,0.4,0.8,0.4c0.4,0,0.6-0.1,0.8-0.3
		c0.2-0.2,0.3-0.5,0.3-0.9V15.6z"/>
	<path class="st2" d="M5.4,6.9C6.1,6.4,7,6,7.8,5.7C7.3,4.6,7.4,4.4,7.4,4.3C7.4,4,7.6,3.8,7.8,3.6C8.4,3.1,9.5,2.8,11,2.7
		c0.2,0,0.5,0,0.9,0c0.7,0,1.4,0,1.7,0.1c1.5,0.1,2.5,0.5,2.9,1c0.1,0.1,0.2,0.3,0.2,0.4l0,0c0.1,0.3,0,0.5-0.1,0.9
		c0,0.1-0.2,0.4-0.2,0.7c0,0,0.1,0,0.1,0l0-0.1l0.5,0.3c0.1,0.1,0.2,0.1,0.3,0.2C18,6.5,18.4,6.7,18.9,7c0.1-0.2,0.2-0.5,0.3-0.7
		c0-0.1,0.1-0.2,0.1-0.3c0.5-1.2,0.6-2.2,0.4-3.1c-0.3-0.9-1-1.6-2-2.1c-0.9-0.4-2.1-0.7-3.7-0.8C13.6,0.1,12.4,0,12,0
		C12,0,12,0,12,0c0,0-0.3,0-0.7,0c-1.2,0-2.2,0.1-3.1,0.3c-1.4,0.3-2.4,0.8-3,1.5C4.6,2.5,4.1,3.7,4.7,5.6C4.8,5.8,5.2,6.4,5.4,6.9z
		"/>
</g>
</svg>
