<?xml version="1.0" encoding="utf-8"?>
<!-- Generator: Adobe Illustrator 26.1.0, SVG Export Plug-In . SVG Version: 6.00 Build 0)  -->
<svg version="1.1" id="Layer_1" xmlns="http://www.w3.org/2000/svg" xmlns:xlink="http://www.w3.org/1999/xlink" x="0px" y="0px"
	 viewBox="0 0 24 24" style="enable-background:new 0 0 24 24;" xml:space="preserve">
<style type="text/css">
	.st0{opacity:0.5;fill:#FFFFFF;enable-background:new    ;}
	.st1{fill:#6485C3;}
	.st2{fill:#6D6E71;}
</style>
<g id="icon">
	<path class="st0" d="M16.5,0.3v3.5c0,0.4-0.3,0.8-0.8,0.8S15,4.2,15,3.8V0C15.5,0.1,16,0.2,16.5,0.3z M10.5,0c-0.5,0-1,0.1-1.5,0.2
		v3.5c0,0.4,0.3,0.8,0.8,0.8s0.8-0.3,0.8-0.8V0z M12,0v3.8c0,0.4,0.3,0.8,0.8,0.8s0.8-0.3,0.8-0.8V0H12z"/>
	<path class="st1" d="M21.1,2.8c-1.3-1.2-2.9-2.1-4.6-2.5v3.5c0,0.4-0.3,0.8-0.8,0.8S15,4.2,15,3.8V0c-0.3,0-0.7,0-1,0h-0.5v3.8
		c0,0.4-0.3,0.8-0.8,0.8S12,4.2,12,3.8V0h-0.8c-0.2,0-0.5,0-0.7,0v3.7c0,0.4-0.3,0.8-0.8,0.8S9,4.2,9,3.8V0.2C3.8,1.2,0,5.6,0,11
		c0,0.6,0.5,1,1.1,1h4c0.2,0,0.5,0.1,0.7,0.2l2.1,1.5c0.7,0.6,1.7,0.7,2.5,0.3l2.5-1c0.4-0.1,0.8-0.1,1.1,0.2l3.5,2.8
		c0.5,0.4,1,0.6,1.6,0.6c0.6,0,1.1-0.2,1.6-0.6l2.6-2.1c0.6-0.5,0.9-1.2,0.9-1.9V9.7C24,7,23,4.6,21.1,2.8z"/>
	<path class="st2" d="M16.6,17l-1.3-1l-4.7,3.2l0.5-4l-0.3,0.1c-0.5,0.2-0.9,0.3-1.4,0.3c0,0-0.1,0-0.1,0l-0.8,7.3l8.4-5.7
		C16.7,17.1,16.6,17,16.6,17z"/>
	<path class="st2" d="M7.9,24c-0.2,0-0.4-0.1-0.5-0.2c-0.4-0.3-0.5-0.9-0.2-1.3l1.6-2.1C9.1,20,9.6,20,10,20.3
		c0.4,0.3,0.5,0.9,0.2,1.3l-1.6,2.1C8.4,23.9,8.1,24,7.9,24z"/>
</g>
</svg>
