<?xml version="1.0" encoding="utf-8"?>
<!-- Generator: Adobe Illustrator 26.1.0, SVG Export Plug-In . SVG Version: 6.00 Build 0)  -->
<svg version="1.1" id="Layer_1" xmlns="http://www.w3.org/2000/svg" xmlns:xlink="http://www.w3.org/1999/xlink" x="0px" y="0px"
	 viewBox="0 0 24 24" style="enable-background:new 0 0 24 24;" xml:space="preserve">
<style type="text/css">
	.st0{fill:#7B7B7B;}
	.st1{fill:#EEAD56;}
</style>
<g id="icon">
	<path class="st0" d="M5.8,23.9c-0.5,0-1.2-0.2-2-0.6c-1-0.5-1.8-1.2-2.2-1.9c-0.2-0.3-0.2-0.5-0.2-0.8c0-0.5,0-0.6,0.5-1.2
		c0.3-0.4,0.6-0.8,0.6-1c0-0.1,0.1-0.2,0.1-0.4c0.1-0.3,0-1.3,0-2.5c-0.1-1.2-0.1-2.6,0-3.2c0.1-1.2,0.4-1.9,0.8-2.7
		c0.7-1.1,1.6-2.1,2.7-2.8c0.5-0.3,1-0.6,1.4-0.7c0.1,0,0.2,0,0.4,0c0.1,0,0.2,0,0.3,0.1c0.2,0.1,0.3,0.3,0.2,0.5
		C8.5,7.3,8.1,8,7.1,9.5c-0.7,1.1-0.8,1.2-0.8,1.5c-0.1,0.6,0.1,1.6,0.6,2.6c0.2,0.3,0.4,0.7,0.6,0.9l0.3,0.3l0.2-0.4
		c0.1-0.2,0.3-0.5,0.5-0.8c0.3-0.5,0.8-1.2,1-1.6c0.5-0.8,0.6-1,0.8-1.2c0.3-0.3,0.7-0.4,1-0.4c0.1,0,0.2,0,0.3,0
		c0.5,0.1,0.8,0.5,0.9,1c0.1,0.2,0.1,0.6,0,0.8c-0.1,0.3-0.2,0.5-0.4,0.8c-0.3,0.5-0.5,0.9-0.8,1.6c-0.2,0.3-0.4,0.8-0.5,1
		c-0.2,0.4-0.4,0.7-0.5,1.1c-0.1,0.3-0.2,0.8-0.3,1.2c-0.3,1.4-1.4,3.5-3.2,5.6c-0.2,0.3-0.3,0.3-0.4,0.4
		C6.2,23.9,6.2,23.9,5.8,23.9C5.9,23.9,5.9,23.9,5.8,23.9z"/>
	<path class="st1" d="M21.9,3.7c-0.2-0.2-0.3-0.3-3.2-1.9c-1.1-0.6-2.9-1.6-3.1-1.7C15.3,0,14.7,0,14.4,0.1c-0.4,0.1-0.7,0.3-1,0.6
		l-0.2,0.2l-2.8,4.9c-2.8,4.9-2.8,5-2.8,5.1c-0.2,0.6-0.1,1.3,0.3,1.8c0.3-0.4,0.6-0.9,0.7-1.2c0.5-0.8,0.7-1.1,1-1.4
		c0.5-0.4,1-0.6,1.6-0.6c0.2,0,0.4,0,0.6,0.1c0.8,0.2,1.4,0.8,1.6,1.6c0.1,0.4,0.1,0.9,0,1.2c-0.1,0.4-0.2,0.7-0.5,1
		c-0.2,0.4-0.4,0.7-0.6,1.2L12,15.2c0,0,0.9,0.6,1.3,0.8c0.9,0.5,1.1,0.6,1.7,0.6c0,0,0,0,0,0c0.4,0,0.6-0.1,0.9-0.2
		c0.3-0.1,0.6-0.4,0.7-0.6c0.2-0.2,5.5-9.8,5.6-9.8c0.1-0.3,0.2-0.6,0.2-0.9C22.5,4.6,22.3,4.1,21.9,3.7z"/>
</g>
</svg>
