<?xml version="1.0" encoding="utf-8"?>
<!-- Generator: Adobe Illustrator 26.1.0, SVG Export Plug-In . SVG Version: 6.00 Build 0)  -->
<svg version="1.1" id="Layer_1" xmlns="http://www.w3.org/2000/svg" xmlns:xlink="http://www.w3.org/1999/xlink" x="0px" y="0px"
	 viewBox="0 0 24 24" style="enable-background:new 0 0 24 24;" xml:space="preserve">
<style type="text/css">
	.st0{opacity:0.5;fill:#FFFFFF;enable-background:new    ;}
	.st1{fill:#52B250;}
</style>
<g id="icon">
	<path class="st0" d="M23,7.5c0-6.3-7.2-9.1-11-3.3C8.2-1.6,1,1.2,1,7.5c0,7.4,11,14.9,11,14.9S23,14.9,23,7.5z"/>
	<path class="st1" d="M11.3,23.5C10.9,23.2,0,15.6,0,7.7c0-3.6,2-6.4,5-7.4C5.6,0.1,6.2,0,6.8,0c1.9,0,3.7,0.9,5.2,2.4
		C13.4,0.9,15.3,0,17.2,0c0.6,0,1.3,0.1,1.9,0.3c3,0.9,5,3.8,5,7.4c0,7.9-10.9,15.6-11.3,15.9L12,24L11.3,23.5z M6.9,2.4
		c-0.4,0-0.8,0.1-1.2,0.2c-2,0.6-3.3,2.6-3.3,5.1c0,5.7,7.7,11.9,9.7,13.5c2-1.5,9.7-7.7,9.7-13.5c0-2.5-1.3-4.5-3.3-5.1
		c-0.4-0.1-0.8-0.2-1.2-0.2c-1.6,0-3.1,0.7-4.2,2.5l-1,1.3l-1-1.3C9.9,3.1,8.4,2.4,6.9,2.4z"/>
	<path class="st1" d="M10.7,15.4C10.7,15.4,10.7,15.4,10.7,15.4c-0.4,0-0.6-0.2-0.7-0.6L8.8,9.7l-0.4,0.7c-0.1,0.2-0.4,0.4-0.6,0.4
		H4.7c-0.4,0-0.7-0.3-0.7-0.7s0.3-0.7,0.7-0.7h2.7l1.1-1.9C8.6,7.2,8.9,7,9.2,7.1c0.3,0,0.5,0.3,0.6,0.5l1,4.5l2-5.7
		c0.1-0.3,0.4-0.5,0.7-0.5c0.3,0,0.6,0.2,0.7,0.5l1.3,4l0.3-0.6c0.1-0.2,0.4-0.4,0.6-0.4h2.9c0.4,0,0.7,0.3,0.7,0.7
		s-0.3,0.7-0.7,0.7h-2.5l-0.9,1.8c-0.1,0.3-0.4,0.4-0.7,0.4c-0.3,0-0.5-0.2-0.6-0.5l-1.2-3.7l-2.1,6.1C11.3,15.2,11,15.4,10.7,15.4z
		"/>
</g>
</svg>
