<?xml version="1.0" encoding="utf-8"?>
<!-- Generator: Adobe Illustrator 26.1.0, SVG Export Plug-In . SVG Version: 6.00 Build 0)  -->
<svg version="1.1" id="Layer_1" xmlns="http://www.w3.org/2000/svg" xmlns:xlink="http://www.w3.org/1999/xlink" x="0px" y="0px"
	 viewBox="0 0 24 24" style="enable-background:new 0 0 24 24;" xml:space="preserve">
<style type="text/css">
	.st0{opacity:0.5;fill:#FFFFFF;enable-background:new    ;}
	.st1{fill:#6486C4;}
	.st2{fill:#EEAD56;}
</style>
<g id="icon">
	<path class="st0" d="M14.2,8c-0.2-0.5-0.7-1.7-1.2-3c0.1-0.3,0.3-0.7,0.5-1.2l1.1-2.9h2.8c1.5,0,2.8,0,2.8,0c0,0-0.9,2.1-1.9,4.7
		c-0.9,2.3-1.4,3.5-1.7,4.1c-0.1-0.1-0.2-0.1-0.3-0.2c-0.6-0.4-1.2-0.7-1.8-0.9L14.2,8z M11.4,8.4c0.2,0,0.4,0,0.6,0
		c0.1,0,0.3,0,0.4,0c-0.3-0.7-0.8-2-1.4-3.5L9.4,0.9H6.6c-1.5,0-2.8,0-2.8,0c0,0,2.7,6.8,3.5,8.8C8.6,9,10,8.5,11.4,8.4z"/>
	<path class="st1" d="M17,10.4c-0.3-0.2-0.5-0.4-0.8-0.6c-0.1-0.1-0.2-0.1-0.3-0.2l-0.1-0.1l0.1-0.2c0.3-0.7,0.8-2.1,1.6-4.1
		c0.6-1.4,1.1-2.7,1.4-3.6c-0.4,0-0.9,0-1.5,0h-2.2L14.2,4c-0.3,0.7-0.5,1.3-0.7,1.8l-0.2,0.5L12.4,4L14,0h3.3c0.7,0,1.4,0,2,0
		c0.3,0,0.5,0,0.6,0c0.1,0,0.1,0,0.2,0C20.7,0,21,0.5,21,0.9C21,1,21,1,20.4,2.6c-0.3,0.9-0.8,2-1.3,3.3c-1.1,2.6-1.5,3.8-1.8,4.3
		l-0.1,0.2L17,10.4z M6.7,10.2C6.4,9.6,5.8,8.1,4.9,5.9C4.5,4.7,4,3.5,3.6,2.7C3,1,3,1,3,0.9C3,0.5,3.3,0,3.9,0c0,0,0.1,0,0.2,0
		c0.1,0,0.3,0,0.6,0c0.5,0,1.2,0,2,0H10l1.8,4.5c0.6,1.6,1.3,3.3,1.5,3.8l0.1,0.4l-0.3,0c-0.4-0.1-0.8-0.1-1.1-0.1
		c-0.1,0-0.2,0-0.3,0l-0.1,0l-0.1-0.1c-0.3-0.7-0.8-1.9-1.3-3.3L8.8,1.7H6.6c-0.6,0-1.1,0-1.5,0c0.8,2.1,2.4,6.1,3.1,7.6l0.1,0.2
		L8.1,9.6C7.7,9.8,7.3,10,7,10.3l-0.2,0.2L6.7,10.2z"/>
	<path class="st0" d="M11.6,10.4c-1.3,0.1-2.5,0.6-3.5,1.4c-0.2,0.2-0.8,0.8-1,1c-0.4,0.5-0.8,1.2-1,1.7c-0.2,0.5-0.3,1-0.4,1.6
		c0,0.4,0,1.2,0,1.6c0.2,1.1,0.6,2.1,1.3,3c0.2,0.3,0.7,0.8,1,1c2,1.6,4.7,1.8,6.9,0.6c0.5-0.3,1-0.6,1.4-1.1c0.5-0.5,0.9-1,1.2-1.7
		c0.2-0.4,0.3-0.8,0.5-1.3c0.1-0.6,0.2-0.9,0.2-1.6c0-0.6,0-0.9-0.1-1.3c-0.4-1.7-1.4-3.1-2.8-4.1C14.2,10.6,12.9,10.3,11.6,10.4z"
		/>
	<path class="st2" d="M12,24c-1.6,0-3.2-0.6-4.5-1.6c-0.3-0.3-0.9-0.8-1.1-1.1c-0.8-1-1.3-2.2-1.5-3.5c-0.1-0.5-0.1-1.4,0-1.9
		c0.1-0.6,0.2-1.2,0.4-1.8c0.2-0.6,0.7-1.4,1.1-2c0.2-0.3,0.8-0.9,1.1-1.1c1.1-0.9,2.6-1.5,4-1.6c0.2,0,0.3,0,0.5,0
		c1.4,0,2.7,0.4,3.8,1.1c1.6,1,2.8,2.7,3.2,4.6c0.1,0.5,0.1,0.8,0.1,1.5c0,0.7,0,1.1-0.2,1.8c-0.1,0.5-0.3,0.9-0.5,1.4
		c-0.4,0.7-0.8,1.3-1.3,1.9c-0.5,0.5-1,0.9-1.6,1.2C14.4,23.7,13.2,24,12,24L12,24L12,24z M11.6,11.3c-1.1,0.1-2.1,0.5-3,1.2
		c-0.2,0.1-0.7,0.7-0.8,0.8c-0.3,0.4-0.7,1-0.8,1.5c-0.2,0.4-0.3,0.9-0.3,1.4c0,0.3,0,1.1,0,1.4c0.1,1,0.5,1.8,1.1,2.6
		c0.2,0.2,0.6,0.7,0.8,0.8c0.9,0.8,2.1,1.2,3.4,1.2c0,0,0,0,0,0c0.9,0,1.8-0.2,2.5-0.7c0.5-0.3,0.8-0.5,1.2-0.9
		c0.4-0.4,0.7-0.9,1-1.4c0.2-0.4,0.3-0.7,0.4-1.1c0.1-0.5,0.2-0.7,0.2-1.3c0-0.6,0-0.7-0.1-1.1c-0.3-1.4-1.2-2.7-2.4-3.5
		C14,11.6,13,11.3,12,11.3C11.9,11.3,11.7,11.3,11.6,11.3L11.6,11.3z"/>
</g>
</svg>
