<?xml version="1.0" encoding="utf-8"?>
<!-- Generator: Adobe Illustrator 26.1.0, SVG Export Plug-In . SVG Version: 6.00 Build 0)  -->
<svg version="1.1" id="Layer_1" xmlns="http://www.w3.org/2000/svg" xmlns:xlink="http://www.w3.org/1999/xlink" x="0px" y="0px"
	 viewBox="0 0 24 24" style="enable-background:new 0 0 24 24;" xml:space="preserve">
<style type="text/css">
	.st0{fill:#6485C3;}
</style>
<g id="icon">
	<path class="st0" d="M4.9,23.9c-1.3,0-2.5-0.5-3.4-1.4c-0.9-0.9-1.4-2.1-1.4-3.4c0-1.3,0.5-2.5,1.4-3.4c0.9-0.9,2.1-1.4,3.4-1.4
		c1.3,0,2.5,0.5,3.4,1.4c1.3,1.3,1.8,3.3,1.1,5.1l0,0.1l-0.1-0.1c0,0-0.1-0.1-0.1-0.1c-0.4-0.4-0.6-0.8-0.8-1.3l0,0l0,0
		c0.1-1-0.3-2-1-2.7c-0.7-0.7-1.5-1-2.4-1c-0.9,0-1.8,0.4-2.4,1c-1.3,1.3-1.3,3.5,0,4.9c0.7,0.7,1.5,1,2.4,1c0.9,0,1.8-0.4,2.4-1
		l0.1-0.1l0.1,0.1c0.1,0.2,0.3,0.3,0.4,0.4c0.1,0.1,0.3,0.3,0.4,0.4l0.1,0.1l-0.1,0.1C7.3,23.4,6.1,23.9,4.9,23.9z"/>
	<path class="st0" d="M11.4,23.2c-1.3,0-2.5-0.5-3.4-1.4c-1.3-1.3-1.7-3.3-1.1-5.1l0-0.1L7,16.8c0,0,0.1,0.1,0.1,0.1
		c0.4,0.4,0.6,0.8,0.8,1.3l0,0l0,0c-0.1,1,0.3,1.9,1,2.6c0.7,0.7,1.5,1,2.4,1s1.8-0.4,2.4-1c1.1-1.1,1.3-2.9,0.5-4.3l0-0.1l0.1,0
		c0.4-0.2,0.7-0.4,1-0.7l0.1-0.1l0,0.1c1.2,1.9,1,4.4-0.6,6C13.8,22.8,12.6,23.2,11.4,23.2z"/>
	<path class="st0" d="M8.8,16c-0.1-0.2-0.3-0.3-0.4-0.4c-0.1-0.1-0.3-0.3-0.4-0.4l-0.1-0.1L8,15.1c0.9-0.9,2.1-1.4,3.4-1.4
		c0.9,0,1.8,0.3,2.6,0.8l0.1,0.1l-0.1,0.1c-0.5,0.3-1,0.6-1.5,0.6l0,0l0,0c-0.3-0.1-0.7-0.2-1-0.2c-0.9,0-1.8,0.4-2.4,1L8.8,16
		L8.8,16z"/>
	<path class="st0" d="M12,16.8c-0.9,0-1.8-0.3-2.6-0.8L9.3,16l0.1-0.1c0.5-0.3,1-0.6,1.5-0.6l0,0l0,0c0.3,0.1,0.7,0.2,1,0.2
		c0.9,0,1.8-0.4,2.4-1l0.1-0.1l0.1,0.1c0.1,0.2,0.3,0.3,0.4,0.4c0.1,0.1,0.3,0.3,0.4,0.4l0.1,0.1l-0.1,0.1
		C14.5,16.3,13.3,16.8,12,16.8z"/>
	<path class="st0" d="M8,14.6c-1.2-1.9-1-4.4,0.6-6c0.9-0.9,2.1-1.4,3.4-1.4c1.3,0,2.5,0.5,3.4,1.4c1.3,1.3,1.7,3.3,1.1,5.1l0,0.1
		l-0.1-0.1c0,0-0.1-0.1-0.1-0.1c-0.4-0.4-0.6-0.8-0.8-1.3l0,0l0,0c0.1-1-0.3-1.9-1-2.6c-0.7-0.7-1.5-1-2.4-1s-1.8,0.4-2.4,1
		c-1.1,1.1-1.3,2.9-0.5,4.3l0,0.1l-0.1,0c-0.4,0.2-0.7,0.4-1,0.7L8,14.6L8,14.6z"/>
	<path class="st0" d="M19.1,9.7c-0.9,0-1.8-0.3-2.6-0.8l-0.1-0.1l0.1-0.1c0.4-0.3,1-0.6,1.5-0.6l0,0l0,0c0.3,0.1,0.7,0.2,1,0.2
		c0.7,0,1.3-0.2,1.9-0.6c0.8-0.5,1.3-1.3,1.5-2.2c0.2-0.9,0-1.8-0.5-2.6c-0.6-1-1.7-1.6-2.9-1.6c-0.7,0-1.3,0.2-1.9,0.6
		c-0.8,0.5-1.3,1.3-1.5,2.2c-0.2,0.9,0,1.8,0.5,2.6l0,0.1l-0.1,0c-0.4,0.2-0.7,0.4-1,0.7l-0.1,0.1l0,0l0.1-0.1l-0.1-0.1l-0.1,0
		c-1.4-2.2-0.7-5.1,1.5-6.6c0.8-0.5,1.7-0.8,2.6-0.8c1.6,0,3.2,0.8,4,2.2c0.7,1.1,0.9,2.4,0.7,3.6c-0.3,1.3-1,2.3-2.1,3
		C21,9.4,20.1,9.7,19.1,9.7L19.1,9.7L19.1,9.7z"/>
	<path class="st0" d="M18.5,16.1c-1.3,0-2.5-0.5-3.4-1.4c-1.3-1.3-1.7-3.3-1.1-5.1l0-0.1l0.1,0.1c0,0,0.1,0.1,0.1,0.1
		c0.4,0.4,0.6,0.8,0.8,1.3l0,0l0,0c-0.1,1,0.3,1.9,1,2.6c0.7,0.7,1.5,1,2.4,1c0.9,0,1.8-0.4,2.4-1c1.1-1.1,1.3-2.9,0.5-4.3l0-0.1
		l0.1,0c0.2-0.1,0.3-0.2,0.5-0.3C22,9,22.2,8.8,22.4,8.7l0.1-0.1l0,0.1c1.2,1.9,1,4.4-0.6,6C21,15.6,19.8,16.1,18.5,16.1z"/>
	<path class="st0" d="M16,8.9c-0.1-0.2-0.3-0.3-0.4-0.4c-0.1-0.1-0.3-0.3-0.4-0.4L15,8l0.1-0.1C16,7,17.2,6.5,18.5,6.5
		c0.9,0,1.8,0.3,2.6,0.7l0.1,0.1l-0.1,0.1c-0.1,0.1-0.1,0.1-0.2,0.1C20.5,7.8,20,8,19.5,8l0,0l0,0c-0.3-0.1-0.7-0.2-1-0.2
		c-0.9,0-1.8,0.4-2.4,1L16,8.9L16,8.9z"/>
</g>
</svg>
