<?xml version="1.0" encoding="utf-8"?>
<!-- Generator: Adobe Illustrator 26.1.0, SVG Export Plug-In . SVG Version: 6.00 Build 0)  -->
<svg version="1.1" id="Layer_1" xmlns="http://www.w3.org/2000/svg" xmlns:xlink="http://www.w3.org/1999/xlink" x="0px" y="0px"
	 viewBox="0 0 24 24" style="enable-background:new 0 0 24 24;" xml:space="preserve">
<style type="text/css">
	.st0{opacity:0.5;fill:#FFFFFF;enable-background:new    ;}
	.st1{fill:#6484C3;}
	.st2{fill:#6486C4;}
	.st3{fill:#6485C3;}
</style>
<g id="icon">
	<path class="st0" d="M22.6,23c-0.1-1.6-0.6-3-1.5-4.2c-1-1.5-2.6-2.6-4.6-3.4l-0.5-0.2c0.1-0.1,0.1-0.3,0.1-0.3
		c0,0-0.8-0.7-1.1-0.9c-0.9,1-2,1.5-3,1.5C10.9,15.5,9.9,15,9,14c-0.3,0.2-1.1,0.9-1.1,0.9c0,0.1,0,0.1,0,0.2l-0.5,0.2
		c-4.9,2-5.9,5.7-6,7.7l0,0.2h21.3L22.6,23z"/>
	<path class="st1" d="M23.4,23c-0.2-2.1-1.2-5.9-6.4-8c0,0-0.7-0.3-0.8-0.3l-0.4,0.4c-1.2,1.1-2.5,1.7-3.7,1.7c0,0,0,0,0,0
		c-1.2,0-2.5-0.6-3.8-1.7l-0.4-0.4c-0.1,0-0.8,0.3-0.8,0.3c-5.1,2-6.2,5.9-6.3,8l0,0.6C0.6,23.8,0.7,24,1,24H23
		c0.2,0,0.4-0.2,0.4-0.4L23.4,23z M2.7,22.1C3,20.4,4.1,18.4,7,17c0.4-0.2,1.1-0.5,1.5-0.5c1.2,0.9,2.4,1.3,3.6,1.3c0,0,0,0,0,0
		c1.2,0,2.3-0.4,3.5-1.3c0.3,0,1,0.3,1.5,0.5c2.8,1.4,3.9,3.4,4.3,5.1H2.7z"/>
	<path class="st0" d="M12.1,0.8H12c-3.9,0-5.7,2-5.6,5.8l0.1,0.1c0,0.2,0,0.4,0,0.6c0,0.1,0.1,0.3,0.3,0.3c0.1,0,0.1,0,0.2,0.1
		c0,3.4,2.3,7.2,5,7.2c2.3,0,4.2-2.7,4.8-5.6c0,0,0,0,0.1,0c0,0,0.1,0,0.1,0c0.2,0,0.3-0.2,0.4-0.3c0.2-0.8,0.3-1.6,0.3-2.3l0,0
		C17.8,2.7,16,0.8,12.1,0.8z"/>
	<path class="st1" d="M17.8,7.6c0,1.8-0.6,3.8-1.6,5.3c-1.1,1.7-2.6,2.7-4.2,2.7s-3-1-4.2-2.7c-1-1.5-1.6-3.5-1.6-5.3
		c0-1,0.2-1.9,0.5-2.6C6.6,5.5,6.5,6.1,6.5,6.6c0,0.2,0,0.4,0,0.7c0,0.1,0.1,0.3,0.3,0.3c0.1,0,0.2,0.1,0.3,0.1c0.1,0,0.1,0,0.2,0
		c0.2-0.1,0.3-0.1,0.5-0.2c0,0,0,0.1,0,0.1c0,2.9,2,6.5,4.2,6.5c2,0,3.7-2.7,4.1-5.3c0.1-1.5,1.6-1.8,1.5-2.6
		C17.7,6.7,17.8,7.1,17.8,7.6z"/>
	<path class="st2" d="M6.4,7.3C6,7.3,5.7,7,5.7,6.6c-0.1-2.2,0.5-3.9,1.6-5C8.3,0.6,9.9,0.1,12,0.1c0,0,0,0,0,0h0.1c0,0,0,0,0,0
		c2,0,3.6,0.5,4.7,1.6c1.1,1.1,1.6,2.8,1.6,5c0,0.4-0.4,0.7-0.8,0.7c-0.4,0-0.7-0.3-0.7-0.7c0.1-1.8-0.3-3.1-1.2-3.9
		c-0.8-0.8-2-1.2-3.7-1.2H12c0,0,0,0,0,0c-1.6,0-2.9,0.4-3.6,1.2C7.5,3.5,7.1,4.8,7.2,6.6C7.2,7,6.9,7.3,6.4,7.3
		C6.5,7.3,6.5,7.3,6.4,7.3z"/>
	<path class="st2" d="M15.7,8.8c-0.1,0-0.1,0-0.2,0c-1-0.3-2.1-0.4-3.2-0.4c0,0,0,0,0,0h-0.4c-1.2,0-2.2,0.1-3.2,0.4
		C8.4,8.9,8.2,8.8,8,8.7L6,7.2C5.8,7,5.7,6.8,5.7,6.6C5.7,6.3,5.8,6.1,6,6c1.7-1,3.7-1.5,6-1.4h0.1c2.3-0.1,4.3,0.4,6,1.4
		c0.2,0.1,0.3,0.3,0.3,0.6c0,0.2-0.1,0.5-0.3,0.6l-2,1.5C16,8.8,15.8,8.8,15.7,8.8z M7.8,6.7l0.8,0.6c1-0.3,2.1-0.4,3.3-0.4h0.4
		c1.2,0,2.2,0.1,3.3,0.4l0.8-0.6C15.1,6.2,13.8,6,12.2,6c0,0,0,0,0,0H12c0,0,0,0,0,0C10.4,6,9,6.2,7.8,6.7z"/>
	<rect x="10.5" y="19.5" class="st3" width="3" height="1.5"/>
</g>
</svg>
