<?xml version="1.0" encoding="utf-8"?>
<!-- Generator: Adobe Illustrator 26.1.0, SVG Export Plug-In . SVG Version: 6.00 Build 0)  -->
<svg version="1.1" id="Layer_1" xmlns="http://www.w3.org/2000/svg" xmlns:xlink="http://www.w3.org/1999/xlink" x="0px" y="0px"
	 viewBox="0 0 24 24" style="enable-background:new 0 0 24 24;" xml:space="preserve">
<style type="text/css">
	.st0{opacity:0.5;fill:#FFFFFF;enable-background:new    ;}
	.st1{fill:#7B7B7B;}
	.st2{fill:#CB535D;}
</style>
<g id="icon">
	<path class="st0" d="M23.2,23c-0.1-1.7-0.6-3.2-1.5-4.5c-1.1-1.6-3.1-3.2-5.3-4.1c0,0-0.8-0.9-1.2-1.1c-1,1-2.1,1.6-3.2,1.6
		c-1.1,0-2.3-0.6-3.2-1.6c-0.4,0.2-1.3,1-1.3,1C2.4,16.4,1,20.8,0.8,23l0,0.2h22.4L23.2,23z"/>
	<path class="st0" d="M17.3,6.4c0,3.6-2.3,7.8-5.2,7.8S6.8,10,6.8,6.4S9.1,0.8,12,0.8S17.3,2.8,17.3,6.4z"/>
	<path class="st1" d="M12,15.1c-1.7,0-3.2-1-4.5-2.9c-1-1.6-1.7-3.8-1.7-5.7c0-2,0.6-3.6,1.8-4.8C8.8,0.6,10.3,0,12,0
		s3.2,0.6,4.3,1.7c1.2,1.2,1.8,2.8,1.8,4.8c0,1.9-0.6,4.1-1.7,5.7C15.3,14,13.7,15.1,12,15.1z M12,1.9c-2.6,0-4.2,1.8-4.2,4.6
		c0,3,2,6.7,4.2,6.7c2.3,0,4.2-3.7,4.2-6.7C16.3,3.7,14.6,1.9,12,1.9z"/>
	<path class="st2" d="M12,16c-1.1,0-1.2-0.2-1.2,0.8c0,0.5,0.2,0.6,0.5,1.1c0,0.7-0.3,4-0.5,5.7c0.4,0,0.8,0,1.2,0
		c0.4,0,0.8,0,1.2,0c-0.2-1.5-0.4-5-0.4-5.7c0.4-0.4,0.4-0.6,0.4-1.1C13.3,15.8,13.1,16,12,16z"/>
	<path class="st1" d="M23.9,23c-0.2-2.3-1.3-6.4-6.8-8.6l-0.7-0.3c-0.1,0.2-0.2,0.3-0.4,0.5c-0.3,0.4-0.7,0.8-1.1,1.1l0,0l-1.6,6.5
		h-2.6l-1.6-6.5c0,0,0,0,0,0c-0.4-0.3-0.8-0.6-1.1-1.1c-0.1-0.1-0.2-0.3-0.4-0.5l-0.7,0.3c-5.5,2.2-6.6,6.3-6.8,8.6L0,23.6
		C0,23.8,0.2,24,0.4,24h23.2c0.2,0,0.4-0.2,0.4-0.4L23.9,23z"/>
	<path class="st1" d="M16.8,5.9C15,4.3,14.2,4.6,13.3,5c-0.4,0.2-0.9,0.4-1.4,0.4c-0.5,0-0.9-0.2-1.4-0.4C9.7,4.6,8.9,4.3,7.2,5.9
		L6.4,5.1c2.4-5.7,9-5.6,11.1,0L16.8,5.9z"/>
</g>
</svg>
