<?xml version="1.0" encoding="utf-8"?>
<!-- Generator: Adobe Illustrator 26.1.0, SVG Export Plug-In . SVG Version: 6.00 Build 0)  -->
<svg version="1.1" id="Layer_1" xmlns="http://www.w3.org/2000/svg" xmlns:xlink="http://www.w3.org/1999/xlink" x="0px" y="0px"
	 viewBox="0 0 24 24" style="enable-background:new 0 0 24 24;" xml:space="preserve">
<style type="text/css">
	.st0{fill:#6E6F72;}
	.st1{opacity:0.5;fill:#FFFFFF;enable-background:new    ;}
	.st2{fill:#6486C4;}
</style>
<g id="icon">
	<path class="st0" d="M12.5,10.2c-0.2,0-0.4-0.1-0.6-0.2c-0.2-0.2-0.2-0.3-0.3-0.8c-0.1-0.4-0.1-0.5,0-0.7c0-0.2,0.1-0.3,0.3-0.4
		C12,8,12.2,7.9,12.4,7.9c0.2,0,0.4,0.1,0.6,0.2l0,0L13.7,8c0.7-0.1,0.8-0.1,0.9-0.1h0l0,0c0.2,0,1.3-0.3,3.9-1
		c1.6-0.5,3.2-0.9,3.6-0.9c0,0,0.2,0,0.3,0l0,0c0.2,0,0.6,0,0.8,0.2c0.3,0.2,0.5,0.6,0.6,1c0,0.2,0,0.5-0.2,0.7l0,0
		c-0.1,0.2-0.5,0.5-1,0.6l0,0l0,0c-0.1,0-0.4,0-0.7,0.1c-0.7,0.1-1.7,0.2-3.1,0.4C18,9,17.4,9.1,16.9,9.2c-1.1,0.1-1.8,0.2-2,0.2
		l0,0c-0.1,0-0.5,0.1-0.8,0.2c-0.3,0.1-0.6,0.1-0.7,0.1l0,0c0,0,0,0,0,0c0,0.1-0.1,0.2-0.2,0.3C13,10.1,12.7,10.2,12.5,10.2z"/>
	<path class="st1" d="M5.1,3.4c0-0.1,0-0.2,0-0.5c0-0.3,0-0.4,0.1-0.5c0.1-0.5,0.4-0.9,0.8-1.2c0.3-0.2,0.6-0.3,1-0.4
		c0.1,0,0.2,0,0.3,0c0.2,0,0.4,0,0.6,0.1C8.5,1,9.1,1.6,9.3,2.4c0.1,0.2,0.1,0.5,0.1,0.7C9.2,4,8.6,4.7,7.8,5C7.6,5,7.4,5,7.1,5l0,0
		C7,5,6.9,5,6.9,5C6,4.9,5.3,4.3,5.1,3.4z"/>
	<path class="st1" d="M10.3,16.7c0,0-0.1-0.1-0.2-0.2c-0.2-0.1-2.1-2.1-2.2-2.3c-0.3-0.5-0.5-1.2-0.6-2.3c-0.1-0.7-0.2-2-0.2-2.6V9
		l1.8,0.5c0.9,0.2,1.6,0.4,1.9,0.5c-0.1-0.2-0.1-0.4-0.2-0.6c-0.1-0.4-0.1-0.7,0-1.1c0-0.1,0.1-0.3,0.1-0.4
		c-0.6-0.2-1.4-0.5-2.2-0.7C6.5,6.6,6.2,6.5,6.1,6.4C5.9,6.3,5.8,6.2,5.5,6.2c-0.4-0.1-0.8-0.1-1-0.1c-0.1,0-0.1,0-0.2,0
		C3.9,6.1,3.7,6.3,3.5,6.6C3.3,6.9,3.1,7.3,3,8.2c-0.1,1-0.1,1.8,0.1,2.9c0.1,0.6,0.4,1.9,0.5,2.4c0.1,0.4,0.3,0.7,0.4,0.9
		c0,0.1,0.1,0.1,0.2,0.2c0.1,0.1,0.9,0.8,2.2,1.9l2.1,1.8l1.6,2.3c1.4,2,1.7,2.3,1.7,2.4c0.2,0.2,0.5,0.3,0.8,0.3
		c0.3,0,0.5-0.1,0.7-0.3c0.3-0.3,0.4-0.8,0.2-1.2C13.4,21.6,10.4,16.9,10.3,16.7z"/>
	<path class="st2" d="M9.9,2.2c-0.3-1-1-1.7-2-2C7.7,0.2,7.4,0.1,7.1,0.1c-0.1,0-0.3,0-0.4,0C6.3,0.2,5.9,0.4,5.5,0.7
		C5,1.1,4.7,1.6,4.5,2.2C4.4,2.4,4.4,2.5,4.4,2.9c0,0.3,0,0.5,0.1,0.7c0.3,1.1,1.2,1.9,2.3,2.1c0.1,0,0.2,0,0.4,0
		c0.3,0,0.6,0,0.8-0.1C9.1,5.3,9.9,4.3,10,3.1C10,2.9,10,2.5,9.9,2.2z M8.7,3C8.6,3.7,8.2,4.2,7.6,4.3c-0.1,0-0.3,0-0.4,0
		C7,4.4,7,4.4,7,4.4C6.3,4.3,5.9,3.8,5.7,3.2c0-0.1,0-0.1,0-0.4c0-0.2,0-0.2,0-0.4C5.8,2.2,6,1.9,6.3,1.7C6.5,1.6,6.7,1.5,7,1.4
		c0,0,0.1,0,0.2,0c0.2,0,0.3,0,0.4,0c0.5,0.1,1,0.6,1.1,1.1C8.7,2.7,8.7,2.9,8.7,3z"/>
	<path class="st2" d="M14.1,21.5c0.3,0.7,0.2,1.4-0.3,1.9c-0.3,0.3-0.7,0.5-1.2,0.5c-0.5,0-0.9-0.2-1.2-0.5
		c-0.1-0.1-0.2-0.2-1.8-2.4L8,18.8L6,17c-0.5-0.4-2.1-1.8-2.2-1.9l0,0c0-0.1-0.1-0.1-0.2-0.2c-0.2-0.3-0.4-0.6-0.6-1.2
		c-0.1-0.5-0.4-1.8-0.5-2.5c-0.2-1.1-0.2-2-0.1-3.1c0.1-1,0.3-1.5,0.6-2c0.3-0.4,0.7-0.7,1.3-0.8c0.1,0,0.2,0,0.3,0
		c0.3,0,0.7,0.1,1.2,0.1C6,5.6,6.2,5.7,6.4,5.8c0.1,0.1,1.2,0.4,2.4,0.8c0.8,0.3,1.8,0.6,2.4,0.8c0,0,0,0-0.1,0
		c-0.3,0.2-0.4,0.5-0.5,0.9c0,0.1,0,0.2,0,0.2c-0.6-0.2-1.4-0.5-2.2-0.7C6,7.1,5.9,7,5.7,6.9c-0.1,0-0.1-0.1-0.3-0.1
		C5.1,6.7,4.7,6.7,4.5,6.7c0,0-0.1,0-0.1,0C4.1,6.7,4.1,6.8,4,6.9C3.9,7.2,3.8,7.5,3.7,8.3C3.5,9.2,3.6,10.1,3.7,11
		c0.1,0.6,0.4,1.8,0.5,2.3C4.4,13.9,4.5,14,4.5,14c0,0,0.1,0.1,0.2,0.2c0.1,0.1,0.8,0.7,2.1,1.8L9,17.9l1.7,2.3
		c1.3,1.8,1.6,2.2,1.6,2.3c0.1,0.1,0.2,0.1,0.3,0.1c0.1,0,0.2,0,0.3-0.1c0.1-0.1,0.1-0.3,0.1-0.5c-0.2-0.4-3-4.7-3.2-4.9
		c0,0,0,0,0,0c-0.2-0.2-2.2-2.2-2.3-2.5C7,14.1,6.8,13.3,6.6,12c-0.1-0.7-0.2-2-0.2-2.6V8.2l2.6,0.7C9.4,9,9.7,9.1,10,9.1
		c0.2,0.1,0.5,0.1,0.7,0.2c0,0,0,0.1,0,0.1c0.1,0.5,0.2,0.9,0.6,1.3c0,0,0,0,0,0c-0.1,0-0.1,0-0.2,0c-0.2,0-0.6-0.1-1.6-0.4
		c-0.2-0.1-0.5-0.1-0.8-0.2l-1-0.3c0,0.6,0.1,1.5,0.1,2c0.1,1.1,0.3,1.7,0.5,2.1c0.1,0.2,1.9,2,2.1,2.2c0.1,0.1,0.2,0.2,0.3,0.3
		C10.9,16.5,14,21.2,14.1,21.5L14.1,21.5z"/>
	<path class="st1" d="M5.4,17.7c-0.6-0.5-1.1-0.9-1.4-1.2c0,0.2,0,0.4,0,0.5l0.2,1.1l-1.5,1.7c-0.8,0.9-1.5,1.7-1.5,1.8
		c-0.2,0.3-0.3,0.6-0.3,0.9c0,0.3,0.2,0.5,0.5,0.6c0.1,0.1,0.3,0.1,0.4,0.1c0.2,0,0.5-0.1,0.7-0.2c0.2-0.2,3.6-3.6,3.7-3.8
		c0.1-0.1,0.1-0.3,0.2-0.4c0-0.1,0-0.1,0.1-0.2c0,0,0,0,0,0L5.4,17.7z"/>
	<path class="st2" d="M5.9,18.1c0,0.1,0,0.2-0.1,0.3c0,0.1-0.1,0.2-0.1,0.3c0,0,0,0.1-0.1,0.1c-0.3,0.4-3.3,3.4-3.6,3.7
		c-0.1,0.1-0.2,0.1-0.3,0.1c0,0-0.1,0-0.1,0c-0.1-0.1-0.2-0.2-0.2-0.2c0-0.1,0-0.3,0.1-0.4c0-0.1,0.6-0.7,1.5-1.8l1.6-2l-0.2-1.2
		c-0.8-0.6-1.1-1-1.3-1.2c0,0.5,0,0.9,0,1.2l0.1,0.8l-1.3,1.5c-0.6,0.7-1.5,1.7-1.5,1.8c-0.3,0.4-0.5,0.9-0.4,1.4
		c0.1,0.4,0.3,0.8,0.8,1.1c0.2,0.1,0.5,0.2,0.8,0.2c0.4,0,0.7-0.1,1.1-0.4c0.2-0.2,3.7-3.7,3.9-3.9l0,0C6.9,19.4,7,19.2,7,19.1
		L5.9,18.1z"/>
</g>
</svg>
