<?xml version="1.0" encoding="utf-8"?>
<!-- Generator: Adobe Illustrator 26.1.0, SVG Export Plug-In . SVG Version: 6.00 Build 0)  -->
<svg version="1.1" id="Layer_1" xmlns="http://www.w3.org/2000/svg" xmlns:xlink="http://www.w3.org/1999/xlink" x="0px" y="0px"
	 viewBox="0 0 24 24" style="enable-background:new 0 0 24 24;" xml:space="preserve">
<style type="text/css">
	.st0{opacity:0.5;fill:#FFFFFF;enable-background:new    ;}
	.st1{fill:#7D7C7B;}
	.st2{fill:#6486C4;}
</style>
<g id="icon">
	<path class="st0" d="M18.7,10.6c-0.3,0-0.7,0.2-1,0.3c-0.4,0.3-0.8,0.8-1,1.4c0,0.2,0,0.2,0,0.4c0,0.2,0,0.3,0,0.4
		c0.1,0.3,0.3,0.5,0.6,0.6c0.1,0,0.2,0,0.5,0c0.3,0,0.4,0,0.5,0c0.7-0.2,1.2-0.5,1.5-1.2c0.4-0.8,0.3-1.5-0.2-1.8
		C19.4,10.6,19,10.6,18.7,10.6z"/>
	<path class="st1" d="M18,14.4C17.9,14.4,17.9,14.4,18,14.4c-0.4,0-0.5,0-0.8-0.1c-0.5-0.2-0.8-0.5-1-0.9c-0.1-0.2-0.1-0.3-0.1-0.6
		c0-0.2,0-0.4,0.1-0.6c0.2-0.7,0.7-1.4,1.2-1.7c0.3-0.2,0.8-0.4,1.2-0.4c0.4-0.1,0.9,0,1.3,0.2c0.8,0.4,1,1.5,0.5,2.6
		c-0.4,0.8-1,1.3-1.9,1.5C18.3,14.3,18.2,14.4,18,14.4z M18.9,11.2c0,0-0.1,0-0.1,0l0,0c-0.2,0-0.5,0.1-0.7,0.2
		c-0.3,0.2-0.6,0.6-0.7,1c0,0.1,0,0.1,0,0.3c0,0.1,0,0.1,0,0.2l0,0c0,0.1,0.1,0.2,0.2,0.2c0,0,0,0,0,0c0,0,0.2,0,0.3,0
		c0.3,0,0.3,0,0.4,0c0.6-0.1,0.8-0.4,1.1-0.9c0.2-0.4,0.2-0.9,0-1C19.3,11.3,19.1,11.2,18.9,11.2z"/>
	<path class="st0" d="M15.9,23.3c-0.2,0-0.5-0.1-0.7-0.2c-0.2-0.1-0.3-0.4-0.4-0.6c-0.1-0.3-0.1-0.4,0.4-2.7
		c0.4-2.2,0.4-2.2,0.4-2.3l0,0l0,0c0,0,0,0-0.8-0.3l-1.2-0.5c-1.3-0.5-2-0.8-2.1-0.9c-0.4-0.2-0.9-0.6-1.1-0.9
		C10.1,14.5,10,14,10,13.6c0-0.2,0.4-1.1,1.4-3.7c0.5-1.3,0.5-1.3,0.5-1.4c0-0.1,0-0.1-0.9-0.4C10.3,8,10.3,8,10.3,8h-0.1l0,0.1l0,0
		c0,0-0.2,0.2-0.9,1.3c-1,1.4-1,1.4-1.2,1.6c-0.1,0.1-0.3,0.1-0.4,0.1c-0.1,0-0.1,0-0.2,0c-0.5-0.1-0.8-0.6-0.7-1.1
		c0-0.1,0.1-0.2,0.1-0.2c0-0.1,0.5-0.8,1.1-1.8C8.7,6.5,8.9,6.1,9,6c0.1-0.1,0.3-0.2,0.5-0.3c0.1,0,0.1,0,0.2,0c0,0,0,0,0,0
		c0.1,0,1.2,0.1,1.9,0.2c0.9,0.1,1.9,0.2,2,0.2c0.3,0,0.8,0.1,1,0.2c0.1,0,0.3,0.1,0.5,0.2c0.7,0.3,1.1,0.7,1.3,1.1
		c0,0.1,0.1,0.2,0.1,0.3c0,0.2,0,0.2,0,0.4c0,0.1-0.1,0.3-0.1,0.4c0,0.1-0.5,1.2-1.1,2.5c-0.3,0.7-0.6,1.3-0.8,1.7
		c-0.1,0.2-0.2,0.4-0.2,0.5c-0.1,0.3-0.1,0.3-0.1,0.4c0,0,0,0,1.6,0.9c1.5,0.8,1.7,0.9,1.7,0.9c0.1,0.1,0.3,0.2,0.4,0.3
		c0.1,0.1,0.2,0.4,0.3,0.6l0,0c0.1,0.3,0.1,0.3-0.5,2.9l-0.1,0.2c-0.4,1.6-0.6,2.7-0.7,2.8C16.8,23,16.4,23.3,15.9,23.3L15.9,23.3z"
		/>
	<path class="st2" d="M18.9,16.5L18.9,16.5c-0.1-0.3-0.2-0.6-0.4-0.8c-0.1-0.2-0.4-0.4-0.6-0.5c-0.1-0.1-0.7-0.4-1.7-0.9
		c-0.6-0.3-0.9-0.5-1.2-0.6c0-0.1,0.1-0.2,0.1-0.3c0.2-0.4,0.5-1,0.8-1.7c0.4-1,1.1-2.5,1.1-2.6l0,0c0-0.1,0.1-0.3,0.1-0.5
		c0-0.3,0-0.3,0-0.6c0-0.1-0.1-0.3-0.1-0.5c-0.2-0.6-0.8-1.1-1.6-1.5c-0.2-0.1-0.4-0.2-0.6-0.2c-0.3-0.1-0.9-0.2-1.2-0.2
		c-0.1,0-0.9-0.1-2-0.2c-1.5-0.2-1.8-0.2-1.9-0.2c0,0,0,0-0.1,0c-0.1,0-0.3,0-0.4,0C9.1,5.2,8.8,5.4,8.6,5.6C8.4,5.7,8.3,6,7.3,7.6
		c0,0.1-1,1.7-1.1,1.9c0,0.1-0.1,0.2-0.1,0.4c-0.2,0.9,0.3,1.7,1.1,1.9c0.1,0,0.2,0,0.4,0c0.2,0,0.5-0.1,0.7-0.2
		c0.4-0.2,0.5-0.3,1.4-1.8c0,0,0.6-0.9,0.7-1.1c0.1,0,0.3,0.1,0.5,0.1c0.1,0,0.2,0,0.2,0.1c-0.1,0.2-0.2,0.5-0.3,0.8
		c-1.2,2.9-1.4,3.5-1.4,3.8c-0.1,0.6,0.1,1.2,0.5,1.7c0.3,0.4,0.8,0.8,1.3,1.1c0.2,0.1,0.6,0.3,2.2,0.9l1.6,0.6
		c-0.1,0.3-0.2,0.9-0.3,1.8c-0.4,2.4-0.5,2.5-0.4,2.9c0.1,0.4,0.3,0.8,0.6,1c0.3,0.2,0.7,0.3,1,0.3c0.8,0,1.4-0.5,1.7-1.3l0,0
		c0-0.1,0.4-1.8,0.7-2.8l0.1-0.2C19,16.9,19,16.9,18.9,16.5z M17.1,19.4L17,19.6c-0.4,1.7-0.6,2.6-0.6,2.7c-0.1,0.2-0.3,0.4-0.5,0.4
		c-0.1,0-0.2,0-0.3-0.1c-0.1,0-0.1-0.1-0.1-0.2c0-0.1,0-0.4,0.4-2.4c0.2-1.1,0.3-1.7,0.4-2c0-0.3,0.1-0.5,0-0.7L16.1,17l-0.2-0.1
		c0,0,0,0-0.8-0.3l-1.2-0.5c-1.2-0.5-1.9-0.8-2-0.8c-0.3-0.2-0.7-0.5-0.9-0.8c-0.2-0.2-0.3-0.6-0.2-0.7c0-0.3,0.9-2.4,1.4-3.5
		c0.6-1.4,0.6-1.4,0.6-1.6c0-0.3-0.2-0.6-0.5-0.7c-0.1-0.1-0.4-0.1-0.8-0.3c-0.9-0.2-0.9-0.2-1-0.2H9.9L9.5,7.9l0,0
		C9.4,8.1,8.7,9.1,8.7,9.1c-0.8,1.1-0.9,1.3-1,1.4c-0.1,0-0.1,0-0.1,0c0,0,0,0,0,0c-0.2,0-0.3-0.2-0.2-0.3c0,0,0-0.1,0-0.1
		c0.1-0.1,0.5-0.8,1.1-1.8c0.5-0.9,1-1.6,1.1-1.7c0,0,0.1-0.1,0.2-0.1c0,0,0,0,0.1,0c0.1,0,1.3,0.1,1.8,0.2l0,0
		c0.7,0.1,1.8,0.2,2,0.2c0.2,0,0.7,0.1,0.9,0.2c0.1,0,0.3,0.1,0.4,0.2c0.6,0.3,0.9,0.5,1,0.8c0,0,0,0.1,0,0.2c0,0.1,0,0.1,0,0.2
		c0,0.1,0,0.2-0.1,0.3c-0.1,0.2-0.5,1.2-1.1,2.5c-0.3,0.7-0.6,1.3-0.8,1.7c-0.1,0.2-0.2,0.4-0.2,0.5c-0.1,0.3-0.3,0.7,0.1,1.1
		c0.1,0.1,0.1,0.1,1.8,1c1.5,0.8,1.6,0.9,1.6,0.9l0,0c0,0,0.1,0.1,0.2,0.2c0,0.1,0.1,0.3,0.2,0.4l0,0C17.7,16.9,17.6,17.1,17.1,19.4
		z"/>
	<path class="st0" d="M22.6,11.2c0,0.3-0.1,0.7-0.3,0.8c-0.3,0.3-1.2,1.1-1.4,1.3c-0.2,0.2-0.2,0.2-0.3,0.3c-0.1,0-0.1,0.1-0.2,0.1
		c0.1-0.2,0.3-0.4,0.4-0.6c0.7-1.4,0.4-2.9-0.8-3.5c-0.4-0.2-0.8-0.3-1.3-0.3c-0.1,0-0.3,0-0.4,0c-0.1,0-0.2,0-0.3,0.1
		c0,0,0-0.1,0-0.1l0,0c0.1-0.2,0.1-0.4,0.2-0.6c0-0.2,0.1-0.4,0-0.6c1.4,0.8,3.8,2.1,4,2.3C22.4,10.5,22.6,10.9,22.6,11.2z"/>
	<path class="st0" d="M9.1,15.8C9,15.7,9,15.6,8.9,15.5c-0.2,0.2-0.3,0.5-0.5,0.7c-1,1.4-1,1.4-1,1.4c-0.1,0.1-0.1,0.1-2.5,0.1
		c-2.5,0.1-2.6,0.1-2.8,0.2c-0.5,0.2-0.8,0.7-0.6,1.3c0.1,0.4,0.4,0.7,0.9,0.8C2.4,20,3.3,20,5,20.1c1.5,0,2.2,0.1,2.7,0.1
		c0.4,0,0.6,0,0.7,0C8.6,20,8.9,19.8,9,19.5c0-0.1,0.1-0.2,0.2-0.2c0,0,0.1-0.1,0.1-0.1c0.1-0.1,0.3-0.3,0.4-0.4
		c0.5-0.5,1-1,1.3-1.4c-0.2-0.1-0.3-0.1-0.4-0.2C10.1,16.8,9.5,16.3,9.1,15.8z"/>
	<path class="st2" d="M22.5,9.9C22.3,9.7,21,9,19.1,7.9c-0.4-0.2-0.8-0.4-1.1-0.6c0.1,0.2,0.1,0.4,0.1,0.5c0.1,0.4,0.1,0.5,0,0.9
		c0,0,0,0.1,0,0.1L18.5,9c0.2,0.1,0.5,0.3,0.7,0.4c0.2,0,0.5,0.1,0.7,0.2c0.3,0.1,0.5,0.3,0.7,0.5c0.6,0.4,1.2,0.7,1.2,0.7
		c0.1,0,0.1,0.2,0.1,0.3c0,0.1-0.1,0.3-0.1,0.4c-0.2,0.2-0.6,0.5-0.9,0.8c-0.1,0.2-0.1,0.5-0.3,0.7c-0.3,0.5-0.6,0.9-1,1.2l0.1,0
		c0.1,0,0.1,0,0.2,0h0l0,0c0.2,0,0.6-0.1,0.8-0.2c0.2-0.1,0.3-0.2,0.5-0.4c0.2-0.2,1.1-1,1.4-1.3c0.3-0.3,0.6-0.8,0.6-1.3
		C23.2,10.7,22.9,10.1,22.5,9.9z"/>
	<path class="st2" d="M10.5,17.1c-0.3,0.3-0.7,0.8-1.2,1.2c-0.1,0.1-0.4,0.3-0.5,0.5c0,0,0,0,0,0c-0.2,0.1-0.3,0.3-0.4,0.4
		c-0.1,0.1-0.2,0.2-0.3,0.3c0,0-0.1,0-0.5,0c-0.5,0-1.2,0-2.7-0.1c-0.9,0-2.4-0.1-2.6-0.1C2.1,19.3,2.1,19.1,2,19
		c-0.1-0.2,0-0.4,0.3-0.5c0.1-0.1,0.3-0.1,2.6-0.1c2.7-0.1,2.7-0.1,2.9-0.3C7.9,18,7.9,18,8.9,16.5C9,16.4,9.1,16.2,9.3,16
		c-0.1-0.1-0.1-0.1-0.2-0.2c-0.2-0.3-0.4-0.7-0.5-1L8.5,15c-0.2,0.3-0.4,0.6-0.6,0.8c-0.5,0.6-0.7,1-0.8,1.2c-0.3,0-1.1,0-2.2,0.1
		c-2.6,0.1-2.7,0.1-3,0.2c-0.8,0.3-1.2,1.2-1,2C1,20,1.5,20.4,2.2,20.6c0.2,0,0.4,0.1,2.8,0.1c1.5,0,2.3,0.1,2.7,0.1
		c0.5,0,0.7,0,0.9-0.1c0.4-0.1,0.8-0.5,1-0.8c0,0,0,0,0-0.1c0.1-0.1,0.2-0.2,0.2-0.2c0,0,0.2-0.2,0.3-0.3c0.5-0.5,1.1-1.1,1.5-1.6
		c-0.7-0.3-0.9-0.4-1-0.4C10.7,17.2,10.6,17.1,10.5,17.1z"/>
	<circle class="st0" cx="17.3" cy="3" r="2.4"/>
	<path class="st2" d="M17.3,0c-1.6,0-3,1.3-3,3s1.3,3,3,3s3-1.3,3-3S18.9,0,17.3,0z M17.3,4.7c-1,0-1.8-0.8-1.8-1.8s0.8-1.8,1.8-1.8
		S19.1,2,19.1,3S18.3,4.7,17.3,4.7z"/>
</g>
</svg>
