<?xml version="1.0" encoding="utf-8"?>
<!-- Generator: Adobe Illustrator 26.1.0, SVG Export Plug-In . SVG Version: 6.00 Build 0)  -->
<svg version="1.1" id="Layer_1" xmlns="http://www.w3.org/2000/svg" xmlns:xlink="http://www.w3.org/1999/xlink" x="0px" y="0px"
	 viewBox="0 0 24 24" style="enable-background:new 0 0 24 24;" xml:space="preserve">
<style type="text/css">
	.st0{opacity:0.5;fill:#FFFFFF;enable-background:new    ;}
	.st1{fill:#6486C4;}
	.st2{fill:#7D7C7B;}
</style>
<g id="icon">
	<path class="st0" d="M14.2,23.5c-0.3,0-0.5-0.1-0.6-0.3c-0.1-0.1-0.3-0.9-0.4-1.1c-0.3-0.9-0.4-1.1-0.5-1.3
		c-0.1-0.1-0.2-0.4-0.3-0.5c-0.2-0.3-0.2-0.4-0.3-0.4c-0.1,0-0.2,0-0.3,0.4c-0.1,0.2-0.2,0.4-0.3,0.5c-0.1,0.2-0.2,0.4-0.5,1.3
		c-0.1,0.3-0.3,1-0.4,1.1c-0.1,0.2-0.3,0.3-0.6,0.3c0,0,0,0-0.1,0c-0.4,0-0.6-0.2-0.6-0.5c0-0.1,0.3-2.2,0.3-2.3c0,0,0-0.1,0-0.1
		l0,0c0-0.1,0.1-0.3,0.1-0.4c0.1-0.4,0.3-0.8,0.5-1.2l0.2-0.3l0-0.3c0-0.1-0.1-0.4-0.1-0.7l0-0.3c-0.1-0.3-0.1-0.7-0.1-0.9l0-0.3
		l-0.2-0.2c-0.3-0.2-1.3-1.2-1.5-1.5c-0.1-0.1-1.1-1.9-1.2-2.1c0,0,0,0,0,0c0.1,0,0.3,0,0.7,0c0.3,0,0.6,0,0.6,0l0.6,0.8
		c0,0,0.6,0.8,0.6,0.9l0,0c0.1,0.1,1.4,1,1.4,1.1l0.3,0.2l0.4,0c0.1,0,0.1,0,0.2,0c0.2,0,0.3,0,0.4,0c0.2,0,0.3,0,0.4-0.1
		c0.3-0.2,1.4-1,1.5-1.1c0,0,0.2-0.4,0.6-0.9c0.2-0.2,0.5-0.7,0.6-0.8c0.1,0,0.3,0,0.6,0c0.3,0,0.6,0,0.6,0c0,0,0,0,0,0
		c-0.1,0.3-1.1,2-1.2,2.1c-0.2,0.3-1.2,1.3-1.5,1.5L14,16.3l0,0.3c0,0.1-0.1,0.6-0.2,1l0,0.3c-0.1,0.7-0.1,0.8,0,1.1
		c0,0,0,0.1,0,0.1c0.3,0.5,0.4,0.9,0.5,1.2c0.1,0.3,0.1,0.4,0.1,0.4c0,0,0,0,0,0.1c0,0.1,0.4,2.2,0.4,2.3
		C14.9,23.3,14.6,23.5,14.2,23.5C14.3,23.5,14.2,23.5,14.2,23.5z"/>
	<path class="st0" d="M12.2,14c-0.2,0-0.5,0-0.7-0.1c-0.6-0.2-0.9-0.8-0.8-1.3c0.1-0.2,0.2-0.4,0.4-0.5c0.2-0.2,0.4-0.3,0.7-0.3
		c0.1,0,0.3,0,0.4,0c0.3,0,0.6,0.1,0.9,0.2c0.2,0.1,0.3,0.2,0.4,0.3c0.4,0.4,0.3,1-0.2,1.4C13,13.8,12.6,14,12.2,14L12.2,14z"/>
	<path class="st1" d="M17.3,12.2c0,0,0-0.1-0.1-0.1C17.2,12.1,17.1,12,17,12c-0.1,0-0.4,0-0.7,0c-0.3,0-0.6,0-0.7,0
		c-0.1,0-0.2,0.1-0.3,0.1c-0.1,0.1-0.3,0.4-0.6,0.9c-0.1,0.2-0.5,0.7-0.6,0.9c-0.2,0.2-1.1,0.8-1.4,1C12.7,15,12.6,15,12.5,15
		c0,0-0.2,0-0.3,0c-0.1,0-0.1,0-0.2,0l-0.3,0l-0.2-0.1c-0.1-0.1-1.1-0.8-1.3-1c-0.1-0.1-0.2-0.3-0.6-0.9L9,12.2
		C9,12.1,8.8,12,8.7,12c0,0-0.3,0-0.6,0c-0.3,0-0.6,0-0.7,0c-0.1,0-0.2,0.1-0.3,0.1c0,0,0,0.1-0.1,0.1c-0.1,0.1-0.1,0.3,0,0.4
		c0.1,0.2,1.1,2.1,1.2,2.2c0.2,0.3,1.3,1.4,1.6,1.6l0.1,0.1l0,0.1c0,0.1,0.1,0.6,0.1,0.9l0,0.3c0,0.3,0.1,0.5,0.1,0.6l0,0.2
		l-0.1,0.2c-0.2,0.4-0.4,0.9-0.5,1.3c0,0.1-0.1,0.3-0.1,0.3c0,0-0.1,0.1-0.1,0.1c0,0,0,0,0,0.1C9.3,20.8,9,22.9,9,23c0,0,0,0,0,0
		c0,0.5,0.4,0.9,1,0.9c0.5,0,0.8-0.1,1.1-0.5c0-0.1,0.1-0.1,0.4-1.3c0.3-0.8,0.3-1.1,0.4-1.3c0.1-0.1,0.1-0.2,0.2-0.4
		c0.1,0.1,0.1,0.3,0.2,0.4c0.1,0.2,0.2,0.4,0.4,1.3c0.3,1,0.4,1.2,0.4,1.3c0.2,0.3,0.6,0.5,1,0.5c0,0,0.1,0,0.1,0c0.6,0,1-0.4,1-0.9
		c0-0.2-0.3-2.3-0.4-2.5c0,0,0-0.1,0-0.1c0-0.1,0-0.1-0.1-0.1c0,0,0,0,0,0c0,0,0-0.1-0.1-0.3c-0.1-0.4-0.3-0.7-0.6-1.3l-0.1-0.1
		c-0.1-0.2-0.1-0.2,0-0.8l0-0.3c0.1-0.4,0.1-0.8,0.2-1l0-0.1l0.1-0.1c0.3-0.3,1.4-1.3,1.6-1.6c0.1-0.2,1.1-2,1.2-2.2
		C17.4,12.5,17.4,12.4,17.3,12.2z M15.4,14.3c-0.2,0.3-1.2,1.2-1.4,1.4L13.7,16c-0.1,0.1-0.2,0.2-0.2,0.3l0,0.3
		c0,0.1-0.1,0.5-0.1,0.9l0,0.3c-0.1,0.8-0.2,0.9,0.1,1.4l0,0.1c0.3,0.5,0.4,0.8,0.5,1.2c0.1,0.3,0.1,0.4,0.2,0.5
		c0.1,0.3,0.3,1.8,0.3,2.2c0,0-0.1,0-0.2,0c0,0,0,0,0,0c-0.1,0-0.2,0-0.2-0.1c0-0.1-0.1-0.3-0.3-1c-0.3-0.9-0.4-1.2-0.5-1.4
		c-0.1-0.1-0.2-0.3-0.3-0.5c-0.2-0.4-0.3-0.6-0.7-0.6c-0.4,0-0.5,0.3-0.7,0.6c-0.1,0.1-0.2,0.4-0.3,0.5C11,20.8,11,21.1,10.7,22
		c-0.2,0.7-0.3,1-0.3,1c0,0-0.1,0.1-0.2,0.1c0,0,0,0,0,0c-0.1,0-0.1,0-0.2,0c0-0.3,0.3-1.8,0.3-2.1c0,0,0,0,0,0c0,0,0,0,0,0
		c0.1-0.1,0.2-0.4,0.2-0.5c0.1-0.4,0.3-0.8,0.5-1.1l0.2-0.3c0-0.1,0.1-0.2,0-0.3l0-0.3c0-0.1-0.1-0.4-0.1-0.6l0-0.3
		c0-0.3-0.1-0.7-0.1-0.9l0-0.3c0-0.1-0.1-0.2-0.2-0.3l-0.2-0.2c-0.2-0.2-1.2-1.2-1.4-1.4c-0.1-0.1-0.5-0.9-0.8-1.5
		c0.1,0,0.2,0,0.3,0l0.5,0.6c0.3,0.4,0.5,0.8,0.6,0.8c0,0.1,0.1,0.1,0.1,0.1c0.4,0.4,1.5,1.1,1.5,1.1l0.3,0.2c0.1,0,0.1,0.1,0.2,0.1
		l0.4,0c0.1,0,0.1,0,0.2,0c0.2,0,0.3,0,0.4,0c0.3,0,0.4-0.1,0.6-0.2c0,0,1.4-0.9,1.7-1.3l0,0c0,0,0.2-0.3,0.6-0.9
		c0.2-0.3,0.3-0.5,0.4-0.6c0.1,0,0.2,0,0.3,0C15.9,13.5,15.5,14.2,15.4,14.3z"/>
	<path class="st1" d="M13.8,11.9c-0.2-0.2-0.3-0.3-0.5-0.4c-0.5-0.3-1.1-0.3-1.6-0.2c-0.3,0.1-0.6,0.2-0.9,0.4
		c-0.3,0.2-0.4,0.4-0.5,0.7c-0.2,0.7,0.2,1.5,1,1.8c0.3,0.1,0.6,0.2,0.9,0.2h0c0.5,0,1-0.2,1.4-0.4c0.3-0.3,0.5-0.6,0.6-1
		C14.2,12.6,14.1,12.2,13.8,11.9z M13.2,12.9c0,0.1-0.1,0.3-0.2,0.4c-0.4,0.3-0.9,0.3-1.4,0.2c-0.4-0.1-0.6-0.4-0.5-0.7
		c0-0.1,0.1-0.2,0.2-0.3c0.1-0.1,0.3-0.2,0.5-0.2c0.1,0,0.2,0,0.3,0c0.2,0,0.5,0.1,0.7,0.2c0.1,0.1,0.2,0.1,0.3,0.2
		C13.2,12.6,13.3,12.7,13.2,12.9z"/>
	<path class="st0" d="M19.8,6.5c-0.1-0.6-0.3-1.1-0.6-1.6c-1.2-2.3-3.8-3.9-6.6-4.2c-0.2,0-0.4,0-0.7,0h0c0,0,0,0,0,0v0
		c-0.3,0-0.5,0-0.7,0C8.5,1,6,2.6,4.7,4.9c-0.3,0.5-0.4,1-0.6,1.6C4.1,6.9,4,7.4,4.1,7.5l0.1-0.1c0,0,0.1-0.2,0.2-0.4
		c0.3-0.7,0.8-1.3,1.6-1.5c0.4-0.1,0.9-0.1,1.3,0C7.7,5.8,8,6.2,8.1,6.9l0.1,0c0-0.3,0.3-0.7,0.6-1.1c0.3-0.3,0.5-0.4,0.8-0.5
		c0.2-0.1,0.2-0.1,0.6-0.1c0.3,0,0.5,0,0.6,0.1c0.4,0.1,0.7,0.4,0.9,0.7C11.8,6.1,12,6.5,12,6.6h0c0-0.1,0.2-0.5,0.3-0.6
		c0.2-0.4,0.5-0.6,0.9-0.7c0.1,0,0.2-0.1,0.6-0.1c0.4,0,0.4,0,0.6,0.1c0.3,0.1,0.5,0.3,0.8,0.5c0.3,0.3,0.6,0.8,0.6,1.1l0.1,0
		c0.1-0.7,0.4-1.2,0.9-1.4c0.4-0.1,0.9-0.1,1.3,0c0.7,0.2,1.2,0.8,1.6,1.5c0.1,0.2,0.2,0.3,0.2,0.4l0.1,0.1
		C20,7.4,19.9,6.9,19.8,6.5z"/>
	<path class="st2" d="M20.4,6.4c-0.1-0.6-0.3-1.2-0.6-1.7c-1.3-2.5-4.1-4.2-7.1-4.5c-0.2,0-0.5,0-0.7,0c0,0,0,0,0,0
		c-0.1,0-0.5,0-0.7,0c-3,0.3-5.8,2-7.1,4.5C3.9,5.2,3.7,5.8,3.6,6.4c0,0-0.2,0.9-0.1,1.3C3.6,7.9,3.7,8,3.9,8.1
		c0.2,0.1,0.4,0,0.6-0.1l0.1-0.1c0.1-0.1,0.1-0.2,0.2-0.3c0,0,0.1-0.2,0.1-0.3c0.2-0.3,0.5-1,1.2-1.2C6.4,6,6.7,6,7,6.1
		C7.2,6.2,7.4,6.3,7.5,7c0,0.3,0.3,0.6,0.7,0.5l0.1,0c0.3,0,0.5-0.2,0.5-0.5c0-0.1,0.2-0.5,0.5-0.7C9.5,6.1,9.6,6,9.9,5.9
		c0.1,0,0.1,0,0.4,0c0.3,0,0.4,0,0.4,0c0.3,0.1,0.4,0.2,0.5,0.4c0.1,0.1,0.2,0.5,0.2,0.5c0.1,0.3,0.3,0.4,0.6,0.4
		c0.3,0,0.5-0.2,0.6-0.4c0,0,0.1-0.1,0.2-0.5l0,0c0.1-0.2,0.3-0.3,0.5-0.4c0,0,0.1,0,0.4,0c0.3,0,0.3,0,0.4,0
		c0.2,0.1,0.4,0.2,0.6,0.4C15,6.5,15.2,6.9,15.2,7c0,0.3,0.3,0.5,0.5,0.5l0.1,0c0.3,0,0.6-0.2,0.7-0.5c0.1-0.7,0.3-0.8,0.5-0.9
		c0.2-0.1,0.6-0.1,0.9,0c0.7,0.2,1,0.8,1.2,1.2c0.1,0.1,0.1,0.3,0.1,0.3c0,0.1,0.1,0.2,0.2,0.3L19.6,8c0.1,0.1,0.2,0.1,0.4,0.1
		c0.1,0,0.1,0,0.2,0c0.2-0.1,0.3-0.2,0.4-0.4C20.6,7.3,20.4,6.4,20.4,6.4z M18.3,5c-0.5-0.2-1.2-0.2-1.7,0c-0.3,0.1-0.6,0.3-0.8,0.6
		c-0.1-0.1-0.1-0.1-0.2-0.2c-0.3-0.3-0.6-0.5-1-0.7c-0.3-0.1-0.4-0.1-0.9-0.1c-0.4,0-0.6,0-0.8,0.1c-0.4,0.1-0.7,0.4-1,0.6
		c-0.2-0.3-0.6-0.5-1-0.6c-0.2-0.1-0.4-0.1-0.8-0.1c-0.4,0-0.6,0-0.8,0.1C9,4.9,8.7,5.1,8.4,5.4C8.4,5.5,8.3,5.5,8.2,5.6
		C8,5.3,7.8,5.1,7.4,5C7.1,4.9,6.8,4.8,6.5,4.8C6.3,4.8,6,4.9,5.7,5C5.6,5,5.4,5.1,5.3,5.1C6.4,3,8.8,1.5,11.4,1.3
		c0.1,0,0.3,0,0.6,0c0,0,0,0,0,0c0.3,0,0.5,0,0.6,0c2.6,0.2,5,1.7,6.1,3.8C18.6,5.1,18.4,5,18.3,5z"/>
	<path class="st2" d="M7.5,11.7c-0.2,0-0.3-0.1-0.4-0.2L3.6,7.9c-0.2-0.2-0.2-0.6,0-0.8c0.2-0.2,0.6-0.2,0.8,0l3.4,3.6
		c0.2,0.2,0.2,0.6,0,0.8C7.8,11.7,7.6,11.7,7.5,11.7z M9.8,11.4c0.3-0.1,0.5-0.5,0.4-0.8L8.7,6.7C8.6,6.3,8.2,6.2,7.9,6.3
		C7.6,6.4,7.5,6.8,7.6,7.1L9,11c0.1,0.2,0.3,0.4,0.6,0.4C9.7,11.4,9.7,11.4,9.8,11.4z M17,11.5l3.4-3.6c0.2-0.2,0.2-0.6,0-0.8
		c-0.2-0.2-0.6-0.2-0.8,0l-3.4,3.6c-0.2,0.2-0.2,0.6,0,0.8c0.1,0.1,0.3,0.2,0.4,0.2C16.7,11.7,16.9,11.7,17,11.5z M14.9,11l1.6-4.1
		c0.1-0.3,0-0.7-0.3-0.8c-0.3-0.1-0.7,0-0.8,0.3l-1.6,4.1c-0.1,0.3,0,0.7,0.3,0.8c0.1,0,0.1,0,0.2,0C14.6,11.4,14.8,11.3,14.9,11z
		 M12.6,9.8V6.5c0-0.3-0.3-0.6-0.6-0.6s-0.6,0.3-0.6,0.6v3.4c0,0.3,0.3,0.6,0.6,0.6S12.6,10.2,12.6,9.8z"/>
</g>
</svg>
