<?xml version="1.0" encoding="utf-8"?>
<!-- Generator: Adobe Illustrator 26.1.0, SVG Export Plug-In . SVG Version: 6.00 Build 0)  -->
<svg version="1.1" id="Layer_1" xmlns="http://www.w3.org/2000/svg" xmlns:xlink="http://www.w3.org/1999/xlink" x="0px" y="0px"
	 viewBox="0 0 24 24" style="enable-background:new 0 0 24 24;" xml:space="preserve">
<style type="text/css">
	.st0{fill:#7B7B7B;}
	.st1{fill:#6484C3;}
</style>
<g id="icon">
	<path class="st0" d="M0.4,20.5c-0.1-0.3-0.3-0.9-0.4-1.1l0-0.1l5.2-2.9c2.6-1.5,4.7-2.6,5.1-2.8l0.1,0l0.1,0.1
		c0.2,0.1,0.7,0.5,1,0.7l0.2,0.1l-0.2,0.1c-1.4,0.8-9.6,5.3-10.9,6l-0.2,0.1L0.4,20.5z"/>
	<path class="st0" d="M20.4,9.6c-0.1,0-0.3-0.1-0.8-0.3c-0.2-0.1-0.4-0.2-0.5-0.3l-0.3-0.1l0.3-0.1c0.5-0.3,1.7-1,2.4-1.3l0,0
		c1.2-0.7,1.7-1,2-1.2l0.2-0.1L24,7.6l-1.5,0.9c-1,0.6-1.9,1-2,1.1L20.4,9.6L20.4,9.6z"/>
	<path class="st1" d="M12.8,23.8c-0.5,0-1-0.3-1.3-0.7c-0.3-0.4-0.4-1-0.2-1.5c0-0.1,0.7-1.6,1.3-2.9c0.8-1.7,1.1-2.5,1.2-2.7
		c-0.1-0.2-0.3-0.9-0.5-1.4l-0.1-0.3c-0.4-1.2-0.4-1.2-0.6-1.3l-0.1,0c-0.6-0.5-1.3-0.8-2-1c-0.4-0.1-0.7-0.1-1.2-0.2l-0.4,0
		l-0.7,0.8c-0.8,0.8-0.9,0.9-1.1,1c-0.2,0.1-0.6,0.2-0.8,0.2c-0.1,0-1.4-0.1-2.6-0.1l-0.3,0c-2.5-0.1-2.5-0.1-2.8-0.4l0,0
		c-0.2-0.1-0.4-0.4-0.4-0.6c-0.1-0.4-0.1-0.8,0.1-1.1c0.2-0.4,0.5-0.6,0.9-0.7c0.2,0,0.4,0,2.5-0.1l2.2,0l1.2-1.4
		c1.4-1.6,1.5-1.7,1.6-1.8c0,0,0.1-0.1,0.2-0.1C9.2,7.1,9.5,7,9.9,6.9c0.1,0,0.5-0.1,0.8-0.1c0.5-0.1,0.7-0.1,0.7-0.1
		c0.1,0,0.2,0,0.2,0c0.5,0,1.2,0.2,2.2,0.8c1,0.5,2.3,1.3,3.4,2c0.2,0.1,0.9,0.5,2.8,1.5c2.5,1.3,2.7,1.4,3,1.6
		c0.3,0.2,0.5,0.5,0.6,0.9c0.1,0.4,0.1,0.8-0.1,1.2c-0.1,0.1-0.6,1.5-1.1,2.9c-0.9,2.4-1,2.8-1.1,2.9c-0.1,0.1-0.2,0.2-0.3,0.3
		c-0.3,0.3-0.7,0.5-1.1,0.5c0,0-0.1,0-0.1,0c-0.3,0-0.5-0.1-0.7-0.2c-0.7-0.4-0.9-1.3-0.6-2.1c0-0.1,0.2-0.7,0.7-2.2
		c0.2-0.5,0.3-1,0.5-1.4c0.1-0.2,0.1-0.4,0.2-0.5c-0.1,0-1.4-0.6-1.4-0.6c-0.7-0.3-1.1-0.5-1.4-0.6c0,0,0,0.1,0,0.1
		c0.1,0.4,0.1,0.9,0.1,1.4c0,0.4,0,0.5,0,0.6c0.1,0.3,0.1,0.8,0,1c-0.1,0.3-3.1,6.2-3.3,6.5c-0.1,0.2-0.4,0.4-0.5,0.5
		C13.3,23.8,13,23.8,12.8,23.8z M4.9,8.1c-0.5,0-1-0.1-1.4-0.4C2.6,7.2,2.1,6.2,2.1,5.1c0-1,0.5-1.9,1.3-2.4c0.3-0.2,0.6-0.3,1-0.4
		c0.2,0,0.4,0,0.5,0c0.3,0,0.5,0,0.7,0.1c0.6,0.2,1.2,0.5,1.5,1c0.4,0.5,0.6,1.1,0.6,1.8c0,1.5-1.1,2.7-2.6,2.9
		C5.1,8.1,5,8.1,4.9,8.1z M14,6.4c-1.1-0.5-1.9-0.8-2.5-0.8c0,0-0.1,0-0.1,0l-0.6,0l0.6-0.8l-0.1-0.1c-0.5-0.5-2-1.9-2.1-2
		c-0.5-0.4-0.7-1-0.5-1.5c0.1-0.5,0.5-0.9,0.9-1c0.1,0,0.2-0.1,0.3-0.1c0,0,0.1,0,0.1,0c0.1,0,0.3,0,0.4,0.1
		c0.4,0.1,0.5,0.2,2.3,1.7c0.9,0.7,1.9,1.5,2,1.6c0.3,0.3,0.4,0.6,0.4,1c0,0.4-0.1,0.8-0.4,1.2c0,0-0.1,0.2-0.2,0.3
		c-0.1,0.1-0.1,0.2-0.1,0.2l-0.1,0.2L14,6.4z"/>
</g>
</svg>
