<?xml version="1.0" encoding="utf-8"?>
<!-- Generator: Adobe Illustrator 26.1.0, SVG Export Plug-In . SVG Version: 6.00 Build 0)  -->
<svg version="1.1" id="Layer_1" xmlns="http://www.w3.org/2000/svg" xmlns:xlink="http://www.w3.org/1999/xlink" x="0px" y="0px"
	 viewBox="0 0 24 24" style="enable-background:new 0 0 24 24;" xml:space="preserve">
<style type="text/css">
	.st0{fill:#6484C3;}
	.st1{fill:#7B7B7B;}
</style>
<g id="icon">
	<path class="st0" d="M6.2,17.4c-0.2,0-0.5-0.1-0.6-0.1c-0.3-0.2-0.6-0.5-0.7-0.9c0-0.2-0.1-1.5-0.2-2.7l-0.2-2.2l-0.7-0.8
		c-1.3-1.6-2.2-2.6-2.4-3C1.2,7.5,1.1,7.5,1.1,7.3c0,0,0,0,0,0l0,0l0,0c0,0-0.1-0.1-0.1-0.2C1,6.8,0.9,6.8,0.9,6.4
		c0-0.3,0-0.4,0.1-0.6c0.2-0.6,0.8-1.1,1.7-1.3C2.9,4.6,3,4.6,5,4.5l1.7,0L6.6,4.4l-2.2-1C3,2.7,2.1,2.3,2,2.3C1.5,2,1.2,1.5,1.3,1
		c0-0.2,0.1-0.5,0.3-0.6C1.7,0.2,1.9,0.1,2.1,0c0.1,0,0.2,0,0.3,0c0.2,0,0.4,0,0.5,0.1C3,0.1,4.6,0.7,5.3,1c0.9,0.3,2.1,0.9,2.3,0.9
		c0.1,0,0.2,0,0.2,0.1C7.9,2,8.9,2.7,9.8,3.3c1.7,1.1,2,1.3,2.1,1.4l0,0C12,4.8,12,4.8,12.1,4.9l0,0c0.3,0.2,0.4,0.7,0.4,1.1
		c0,0.3-0.2,1-0.4,1.4c-0.3,0.6-0.8,1-1.5,1.2C10.1,8.6,10,8.6,7.9,8.7c-0.6,0-1.1,0-1.4,0c-0.1,0-0.2,0-0.3,0
		C6.3,8.8,6.5,9,6.7,9.3c0.2,0.3,0.6,0.9,0.7,1.1c0.1,0.1,0.1,0.3,0.1,0.6c0,0.1,0,1.1,0.1,2.4l0,0.3c0,2.5,0,2.5-0.1,2.9l0,0
		c-0.1,0.2-0.3,0.5-0.5,0.6C6.7,17.4,6.4,17.4,6.2,17.4z M16.3,7.5c-0.2,0-0.4,0-0.6-0.1c-0.9-0.2-1.6-0.8-2-1.6
		c-0.2-0.4-0.2-0.5-0.2-1c0-0.4,0-0.5,0.1-0.7c0.3-1.1,1.2-1.9,2.3-2c0.1,0,0.2,0,0.3,0c0.2,0,0.5,0,0.6,0c0.5,0.1,1,0.4,1.4,0.8
		c0.5,0.5,0.7,1,0.8,1.7c0.1,0.8-0.2,1.6-0.8,2.1c-0.4,0.4-0.8,0.6-1.4,0.8C16.7,7.5,16.5,7.5,16.3,7.5z"/>
	<rect x="0" y="18" class="st1" width="9" height="6"/>
	<path class="st1" d="M11.7,23.2c-0.6,0-1.2-0.3-1.8-0.9l-0.1-0.1v-2l0.5,0.5c0.1,0.1,0.2,0.2,0.3,0.3c0.6,0.7,0.8,0.7,1,0.7
		c0.2,0,0.4-0.1,0.9-0.7c0.6-0.7,1.1-1.1,1.9-1.1c0.4,0,0.6,0,0.9,0.2c0.3,0.2,0.7,0.5,1.1,1c0.2,0.3,0.5,0.5,0.7,0.6
		c0,0,0.1,0,0.3,0c0.2,0,0.3,0,0.3,0c0.2-0.1,0.4-0.3,0.7-0.7c0.6-0.7,1-1.1,1.9-1.1l0,0c0.4,0,0.6,0.1,0.9,0.2
		c0.3,0.2,0.6,0.5,1,0.8c0.2,0.3,0.3,0.4,0.6,0.5c0.2,0.1,0.6,0.2,0.7,0.3l0.3,0l-0.1,1.3l-0.3,0c-0.3,0-0.9-0.2-1.2-0.4
		c-0.4-0.2-0.6-0.4-1-0.8c-0.2-0.3-0.4-0.4-0.6-0.5c0,0,0,0,0,0c0,0,0,0-0.2,0l0,0c-0.2,0-0.3,0-0.8,0.6c-0.4,0.5-0.8,0.8-1.1,1
		c-0.3,0.2-0.7,0.2-0.9,0.2c-0.3,0-0.7,0-1-0.2c-0.4-0.2-0.7-0.5-1.1-0.9c-0.3-0.3-0.5-0.5-0.7-0.6c0,0,0,0,0,0c0,0,0,0-0.2,0
		c-0.2,0-0.4,0-0.9,0.6C13.2,22.7,12.6,23.2,11.7,23.2L11.7,23.2L11.7,23.2z"/>
</g>
</svg>
