<?xml version="1.0" encoding="utf-8"?>
<!-- Generator: Adobe Illustrator 26.1.0, SVG Export Plug-In . SVG Version: 6.00 Build 0)  -->
<svg version="1.1" id="Layer_1" xmlns="http://www.w3.org/2000/svg" xmlns:xlink="http://www.w3.org/1999/xlink" x="0px" y="0px"
	 viewBox="0 0 24 24" style="enable-background:new 0 0 24 24;" xml:space="preserve">
<style type="text/css">
	.st0{fill:#6484C3;}
	.st1{fill:#6E6F72;}
</style>
<g id="icon">
	<path class="st0" d="M11.1,19.3c-0.3,0-0.5,0-0.6,0l-0.2,0L10.3,19l0,0c0-0.1,0-0.6-0.1-1.1c0-0.5,0-1-0.1-1.1c0-0.1,0-0.8-0.1-1.7
		L10,13.4l-0.1-0.2c-0.2-0.4-0.3-0.8-0.3-1.3c0-0.6,0.2-1,0.7-1.3c0.6-0.4,0.8-0.8,1-1.6c0.1-0.4,0.1-0.6,0.1-0.7
		c-0.1,0-1.1-0.8-1.1-0.8C9.7,7,9.2,6.6,9.1,6.6C8.9,6.4,8.7,6.2,8.6,6.1C8.5,6,8.1,5.6,7.5,5C6.2,3.7,6.1,3.6,6.1,3.2
		c0-0.5,0.3-1,0.8-1.1C7,2,7,2,7.2,2c0.1,0,0.3,0,0.4,0.1c0.1,0,0.2,0.1,0.3,0.1c0.1,0.1,0.8,0.7,1.4,1.2l0,0
		c1.3,1.1,1.3,1.1,1.8,1.5c0.7,0.5,1.3,0.8,1.7,1c0.1,0,0.2,0.1,0.2,0.1c0,0,0,0,0.1,0c0.1,0,0.3,0,0.4,0c0.2,0,0.4,0,0.6,0
		c0.1,0,0.2,0,0.3,0c0.1,0,0.2,0,0.4-0.1c0.7-0.2,2.1-0.7,2.2-0.8c0.2-0.1,2.9-1.8,3-1.9C20.1,3.1,20.4,3,20.5,3
		c0.3,0,0.7,0.2,0.8,0.4c0.2,0.2,0.3,0.5,0.2,0.7c0,0.3-0.2,0.6-0.6,0.8c-0.2,0.1-2.3,1.8-2.4,1.9h0c-0.1,0.1-0.3,0.2-0.5,0.3
		c-0.1,0-0.5,0.2-1.3,0.6l-1.1,0.5l0,0.1c-0.1,1.2-0.8,2.7-1.7,3.9c-0.3,0.4-0.6,0.7-0.9,0.9c0,0.3-0.1,1.4-0.2,4.3
		c0,0.7-0.1,1.4-0.1,1.5l0,0.2l-0.2,0c-0.1,0-0.3,0-0.9,0l-0.2,0C11.3,19.3,11.2,19.3,11.1,19.3z M8.3,12.8
		c-0.1-0.1-0.3-0.1-0.4-0.2c-0.5-0.2-0.7-0.3-0.9-0.5c0,0-0.1-0.1-1.3-1.4C5,10,4.4,9.4,4.4,9.3c-0.4-0.5-0.4-1.1,0-1.6
		c0.1-0.2,0.4-0.3,0.6-0.3c0.1,0,0.2,0,0.3,0c0.1,0,0.1,0,0.3,0c0.2,0,0.5,0.2,0.6,0.3c0.1,0.1,0.7,0.6,1.2,1.1
		c0.3,0.3,1,0.9,1.2,1.1c0,0,0.2,0.1,0.5,0.2l0.4,0.1l-0.2,0.3c-0.3,0.4-0.5,0.9-0.5,1.5c0,0.2,0,0.4,0,0.5L8.7,13L8.3,12.8z
		 M13.8,4.8c-0.5,0-0.9-0.2-1.3-0.4c-0.6-0.4-0.9-1-1-1.7c-0.1-0.8,0.3-1.7,1.1-2.2c0.2-0.1,0.5-0.2,0.8-0.3c0.1,0,0.3,0,0.4,0
		c0.3,0,0.6,0.1,0.8,0.1c0.5,0.2,1,0.7,1.3,1.2c0.1,0.2,0.2,0.6,0.2,0.8c0,0.4-0.1,0.8-0.2,1.1c-0.4,0.7-1,1.2-1.8,1.3
		C13.9,4.8,13.8,4.8,13.8,4.8z"/>
	<polygon class="st1" points="24,20.4 0,20.4 0,22.5 3,22.5 3,24 4.5,24 4.5,22.5 19.5,22.5 19.5,24 21,24 21,22.5 24,22.5 	"/>
</g>
</svg>
