<?xml version="1.0" encoding="utf-8"?>
<!-- Generator: Adobe Illustrator 26.1.0, SVG Export Plug-In . SVG Version: 6.00 Build 0)  -->
<svg version="1.1" id="Layer_1" xmlns="http://www.w3.org/2000/svg" xmlns:xlink="http://www.w3.org/1999/xlink" x="0px" y="0px"
	 viewBox="0 0 24 24" style="enable-background:new 0 0 24 24;" xml:space="preserve">
<style type="text/css">
	.st0{opacity:0.5;fill:#FFFFFF;enable-background:new    ;}
	.st1{fill:#6486C4;}
</style>
<g id="icon">
	<path class="st0" d="M17.9,12.1c0-0.2-0.2-0.4-0.3-0.5c-0.1,0-0.4-0.3-0.7-0.6c-1.2-1-2.4-2-2.7-2.1c-0.1-0.1-0.3-0.2-0.5-0.2
		c-0.2-0.1-0.4-0.1-0.5-0.2c-0.5-0.4-1.1-0.7-1.7-0.8l-0.3,0l-0.1-0.2c-0.1-0.3-0.2-0.6-0.2-1c-0.1-0.4-0.2-1.2-0.2-1.3
		c0-0.1,0-0.1,0.8-1.6c1-1.8,1-1.8,1-2c0.1-0.3-0.1-0.5-0.4-0.7l-0.1-0.1c0,0-0.1,0-0.2,0c-0.2,0-0.4,0-0.5,0.1
		c-0.1,0.1-0.2,0.2-0.3,0.3c0,0.1-0.4,0.7-1,1.6c-0.4,0.6-1,1.6-1,1.7C9.1,4.5,9,4.7,8.9,4.9c0,0.2,0,0.3,0,0.7
		C9.2,7.6,9.3,9.4,9.1,10c0,0.1-0.1,0.2-0.1,0.3c0,0.1-0.1,0.3-0.1,0.5c-0.3,1-0.4,1.7-0.4,2.5c0,0.4,0,0.5,0,0.6
		c0,0.1-0.1,0.7-0.4,2.3c-0.2,1.1-0.4,2.4-0.4,2.5c-0.1,0.3-0.4,3.3-0.4,3.6c0,0.5,0.3,0.9,0.8,1c0.1,0,0.2,0,0.2,0
		c0.3,0,0.5-0.1,0.7-0.4c0.1-0.1,0.2-0.5,0.4-1.7c0.1-0.6,0.2-1.3,0.3-1.5c0-0.1,0.1-0.6,0.3-1.3c0.1-0.4,0.2-0.8,0.2-1.2l0.2-0.9
		l0.3,0l0.3,1.3c0.1,0.6,0.3,1.5,0.3,1.7c0,0.2,0.1,0.4,0.1,0.4c0,0.1,0.2,1.1,0.3,1.5c0.1,0.8,0.3,1.4,0.3,1.5
		c0.1,0.4,0.4,0.6,0.8,0.6c0.1,0,0.2,0,0.2,0c0.5-0.1,0.8-0.5,0.8-1c0-0.2-0.4-3.4-0.4-3.5c0-0.1-0.2-1.1-0.3-1.8l-0.1-0.8
		c-0.1-0.6-0.1-0.9-0.1-0.9l-0.1-0.4l0.4,0.2c0.1,0.1,0.3,0.1,0.5,0.1c0.1,0,0.2,0,0.3,0c0,0,0.3-0.1,1.8-0.8c1-0.4,1.8-0.8,1.9-0.9
		C17.8,13.1,18.1,12.6,17.9,12.1z M14,13L14,13c-1.2,0.7-1.2,0.7-1.3,0.8l-0.3,0.3l-0.1-0.4c0-0.2,0-0.7,0-0.9
		c0-0.1,0.1-0.3,0.1-0.4c0.1-0.2,0.3-0.6,0.4-0.8c0.3-0.6,0.4-0.6,0.5-0.6l0,0l0,0c0,0,0.1,0,0.9,0.6c0.9,0.6,0.9,0.6,0.9,0.7
		C15,12.4,15,12.4,14,13z"/>
	<path class="st1" d="M12.6,23.9c-0.6,0-1.2-0.4-1.4-1c-0.1-0.2-0.3-1.3-0.3-1.6c-0.1-0.8-0.2-1.3-0.3-1.4l0,0
		c0-0.1-0.1-0.4-0.1-0.5c0-0.1,0-0.2-0.1-0.4c-0.1,0.3-0.1,0.7-0.2,0.8c0,0.1-0.1,0.7-0.3,1.4c-0.2,1.4-0.3,1.7-0.4,1.9
		c-0.3,0.6-1,0.8-1.6,0.7c-0.8-0.2-1.3-0.9-1.3-1.7c0-0.3,0.4-3.4,0.5-3.7c0-0.1,0.2-1.2,0.4-2.5c0.1-0.8,0.3-2.1,0.4-2.3
		c0,0,0-0.1,0-0.4c0-0.9,0.1-1.6,0.4-2.7c0-0.2,0.1-0.4,0.1-0.5c0-0.1,0.1-0.3,0.1-0.3c0.1-0.3,0.1-1.9-0.2-4.2
		C8.2,5.2,8.2,5,8.3,4.7C8.3,4.4,8.5,4.2,8.6,4c0.1-0.1,0.5-0.8,1-1.6c0.3-0.4,0.9-1.6,1.1-1.7l0,0c0.1-0.2,0.3-0.3,0.5-0.4l0,0
		c0.3-0.1,0.6-0.2,0.8-0.2c0.2,0,0.4,0,0.5,0.1l0.2,0.1c0.6,0.3,0.8,0.8,0.7,1.4c0,0.3,0,0.3-1.1,2.2c-0.4,0.7-0.7,1.2-0.7,1.4
		c0,0.2,0.1,0.7,0.2,1.1c0.1,0.3,0.1,0.5,0.2,0.7c0.6,0.1,1.3,0.4,1.9,0.9c0.1,0,0.2,0.1,0.3,0.1c0.2,0.1,0.5,0.2,0.7,0.3
		c0.3,0.2,1.6,1.3,2.7,2.2c0.3,0.3,0.6,0.5,0.7,0.5c0.3,0.2,0.5,0.6,0.5,0.8c0.2,0.8-0.2,1.6-1,2c-0.1,0.1-1,0.5-1.9,0.9
		c-1.7,0.8-1.9,0.8-1.9,0.9c-0.1,0-0.3,0.1-0.4,0.1c0,0.1,0,0.1,0,0.2l0.1,0.8c0.1,0.8,0.3,1.6,0.3,1.7l0,0c0.1,0.2,0.5,3.4,0.5,3.7
		c0,0.8-0.5,1.5-1.3,1.7C12.8,23.9,12.7,23.9,12.6,23.9z M12.5,22.5c0,0.1,0.1,0.1,0.1,0.1c0,0,0,0,0.1,0c0.1,0,0.2-0.2,0.2-0.4
		c0-0.3-0.4-3.1-0.4-3.4l0,0c0-0.2-0.2-1.1-0.3-1.8L12,16.2c-0.1-0.7-0.1-0.8-0.1-0.9l-0.3-1.8l1.6,0.9c0,0,0.1,0,0.2,0
		c0.1,0,0.4-0.2,1.7-0.8c1-0.5,1.8-0.8,1.9-0.9c0.2-0.1,0.3-0.2,0.3-0.5c0,0-0.1-0.1-0.1-0.1c-0.1-0.1-0.7-0.5-0.7-0.6
		c-1.4-1.2-2.4-2-2.6-2.1c-0.1,0-0.3-0.1-0.4-0.1C13.3,9.3,13,9.2,12.9,9c-0.4-0.3-0.9-0.6-1.2-0.6l-0.8-0.1l-0.2-0.7
		c-0.1-0.3-0.2-0.6-0.3-1.1c0-0.2-0.2-1.2-0.2-1.4c0-0.3,0-0.3,0.9-2c0.5-1,0.8-1.5,0.9-1.7c0,0,0,0,0,0l0,0c-0.1,0-0.1,0-0.1,0
		c0,0,0,0-0.1,0.1c-0.1,0.1-0.4,0.7-1,1.6c-1,1.6-1.1,1.7-1.1,1.8c0,0-0.1,0.1-0.1,0.2c0,0.1,0,0.1,0,0.4c0.2,1.7,0.4,3.9,0.2,4.7
		c0,0.1,0,0.2-0.1,0.3c0,0.1-0.1,0.3-0.1,0.5c-0.3,1-0.4,1.6-0.3,2.4c0,0.5,0,0.6,0,0.7c0,0.1-0.1,0.7-0.4,2.2
		c0,0.1-0.4,2.3-0.4,2.6C8.4,19.1,8,21.9,8,22.2c0,0.2,0.1,0.3,0.3,0.4c0,0,0.1,0,0.1,0c0,0,0,0,0.1,0c0.1-0.2,0.2-1,0.3-1.5
		c0-0.1,0.2-1.3,0.3-1.5c0-0.1,0.1-0.5,0.3-1.3c0.1-0.4,0.2-0.8,0.2-1.2l0.3-1.5l1.4,0l0.4,1.9c0,0.2,0.3,1.4,0.3,1.7
		c0,0.2,0.1,0.3,0.1,0.3c0,0.1,0.1,0.3,0.3,1.5C12.3,21.9,12.4,22.4,12.5,22.5z M8.4,22.5C8.4,22.5,8.4,22.5,8.4,22.5
		C8.4,22.5,8.4,22.5,8.4,22.5z M10.6,20C10.6,20,10.6,20,10.6,20L10.6,20z M7.9,13.7C7.9,13.7,7.9,13.7,7.9,13.7
		C7.9,13.7,7.9,13.7,7.9,13.7L7.9,13.7z M7.9,13.7C7.9,13.7,7.9,13.7,7.9,13.7L7.9,13.7z M13.8,8C13.8,8,13.8,8,13.8,8
		C13.8,8,13.8,8,13.8,8z"/>
	<path class="st1" d="M11.9,15.6l-0.3-1.7c-0.1-0.3,0-0.8,0-1.1c0-0.1,0.1-0.4,0.1-0.5c0.1-0.4,0.4-0.8,0.4-1
		c0.3-0.5,0.5-0.9,1.1-0.9l0.2,0l0.1,0c0.1,0,0.1,0.1,1,0.7c1,0.7,1.1,0.8,1.1,1.3c0,0.5-0.2,0.6-1.3,1.3l0,0
		c-0.7,0.4-1.1,0.6-1.1,0.7c0,0,0,0,0,0L11.9,15.6z M13.4,11.9C13.4,11.9,13.4,11.9,13.4,11.9c-0.2,0.3-0.3,0.6-0.4,0.8
		c0,0.1,0,0.1-0.1,0.2c0.2-0.1,0.4-0.2,0.7-0.4l0,0c0.1-0.1,0.2-0.1,0.2-0.1c0,0-0.1-0.1-0.2-0.1C13.6,12,13.5,11.9,13.4,11.9z"/>
	<path class="st0" d="M15.1,7c-0.1,0-0.3,0-0.4,0c-0.5-0.1-1-0.4-1.3-0.8c-0.2-0.3-0.3-0.6-0.3-1c0-0.8,0.4-1.5,1.1-1.9
		c0.2-0.1,0.3-0.1,0.5-0.2c0.1,0,0.2,0,0.4,0c0.3,0,0.6,0.1,0.9,0.2c0.3,0.1,0.6,0.4,0.8,0.7c0.1,0.2,0.3,0.5,0.3,0.7
		c0,0.1,0,0.2,0,0.5c0,0.3,0,0.4-0.1,0.6c-0.2,0.6-0.8,1.1-1.4,1.3C15.5,7,15.3,7,15.1,7z"/>
	<path class="st1" d="M15.1,7.7c-0.2,0-0.4,0-0.5,0c-0.7-0.2-1.3-0.5-1.7-1.1c-0.3-0.4-0.4-0.8-0.5-1.3C12.4,4.1,13,3.1,14,2.7
		c0.2-0.1,0.4-0.2,0.7-0.2c0.2,0,0.3-0.1,0.5-0.1c0.4,0,0.8,0.1,1.1,0.2c0.4,0.2,0.8,0.5,1.1,0.9c0.2,0.2,0.4,0.6,0.4,0.9
		c0.1,0.2,0.1,0.3,0.1,0.6c0,0.4,0,0.5-0.1,0.8c-0.3,0.8-1,1.5-1.9,1.8C15.6,7.7,15.4,7.7,15.1,7.7z M15.1,3.7c-0.1,0-0.2,0-0.2,0
		c-0.2,0-0.2,0.1-0.3,0.1c-0.5,0.2-0.8,0.7-0.7,1.2c0,0.3,0.1,0.5,0.2,0.7c0.2,0.3,0.5,0.5,0.9,0.6c0,0,0.1,0,0.2,0
		c0.2,0,0.3,0,0.3,0c0.4-0.1,0.8-0.5,0.9-0.9c0.1-0.2,0.1-0.2,0.1-0.4c0-0.2,0-0.2,0-0.3c0-0.1-0.2-0.4-0.2-0.5
		c-0.1-0.2-0.4-0.4-0.5-0.4C15.6,3.8,15.3,3.7,15.1,3.7z"/>
</g>
</svg>
