<?xml version="1.0" encoding="utf-8"?>
<!-- Generator: Adobe Illustrator 26.1.0, SVG Export Plug-In . SVG Version: 6.00 Build 0)  -->
<svg version="1.1" id="Layer_1" xmlns="http://www.w3.org/2000/svg" xmlns:xlink="http://www.w3.org/1999/xlink" x="0px" y="0px"
	 viewBox="0 0 24 24" style="enable-background:new 0 0 24 24;" xml:space="preserve">
<style type="text/css">
	.st0{fill:#6484C3;}
	.st1{fill:#7B7B7B;}
</style>
<g id="icon">
	<path class="st0" d="M12,20.1c-0.6,0-1.2-0.4-1.3-1.1c0-0.2,0-0.3,0-2.4l0-2.1l-1.9-1.4C7,11.9,7,11.9,6.8,11.6l0,0
		c0-0.1-0.1-0.2-0.1-0.3c-0.2-0.7,0-1.3,0.5-2.1c0.2-0.4,0.7-0.9,1.1-1.3c0.2-0.2,1.5-1.2,1.9-1.5c1-0.7,1.7-1.1,2.5-1.2
		c0,0,0.1,0,0.2,0c0.2,0,0.6,0,0.8,0.1c0.3,0.1,0.5,0.2,0.8,0.5C14.8,6,15,6.3,15.3,6.7c0.2,0.4,0.8,1.2,0.9,1.5l0,0.1l1.4,0.8
		c0.7,0.4,1.5,0.9,1.6,1c0.4,0.3,0.6,0.8,0.5,1.3c-0.1,0.4-0.3,0.7-0.6,0.9c-0.2,0.1-0.3,0.1-0.5,0.1c-0.2,0-0.4-0.1-0.8-0.2
		c-0.4-0.2-2.7-1.2-2.9-1.2c-0.2-0.1-0.6-0.3-0.7-0.5c-0.1-0.1-0.3-0.4-0.5-0.7c-0.1-0.1-0.2-0.3-0.3-0.4l0,0
		C13.6,9.1,13.5,9,13.4,9l-0.1-0.1l-0.1,0.1c-0.5,0.5-1.2,1-2.1,1.6c-0.1,0.1-0.2,0.1-0.3,0.2c0.2,0.2,0.5,0.4,1,0.9
		c1.5,1.3,1.5,1.3,1.6,1.6c0.1,0.3,0.2,0.5,0.2,0.8c-0.3,5-0.3,5-0.5,5.3c-0.2,0.4-0.5,0.7-0.8,0.8C12.3,20.1,12.1,20.1,12,20.1z
		 M17.2,6.1c-0.9,0-1.7-0.6-2.1-1.4c-0.3-0.7-0.2-1.6,0.3-2.2c0.3-0.4,0.8-0.7,1.3-0.8c0.1,0,0.3,0,0.4,0c0.1,0,0.2,0,0.3,0
		c0.5,0.1,0.9,0.3,1.2,0.6c0.5,0.5,0.7,1,0.6,1.7c0,1-0.7,1.8-1.7,2.1C17.6,6,17.4,6.1,17.2,6.1L17.2,6.1z"/>
	<path class="st1" d="M9,18.1c0,2.2-1.8,4-4.1,4s-4.1-1.8-4.1-4S2.7,14,4.9,14S9,15.8,9,18.1z M19.1,14c-2.2,0-4.1,1.8-4.1,4.1
		s1.8,4,4.1,4s4.1-1.8,4.1-4S21.3,14,19.1,14z"/>
</g>
</svg>
