<?xml version="1.0" encoding="utf-8"?>
<!-- Generator: Adobe Illustrator 26.1.0, SVG Export Plug-In . SVG Version: 6.00 Build 0)  -->
<svg version="1.1" id="Layer_1" xmlns="http://www.w3.org/2000/svg" xmlns:xlink="http://www.w3.org/1999/xlink" x="0px" y="0px"
	 viewBox="0 0 24 24" style="enable-background:new 0 0 24 24;" xml:space="preserve">
<style type="text/css">
	.st0{opacity:0.5;fill:#FFFFFF;enable-background:new    ;}
	.st1{fill:#6486C4;}
</style>
<g id="icon">
	<path class="st0" d="M13.5,23.4c-0.1,0-0.1,0-0.2,0c-0.5-0.1-0.8-0.6-0.7-1.2c0-0.1,0.3-0.9,0.8-2.2c0.9-2.1,0.9-2.1,0.7-2.2
		c-0.1-0.1-3.1-2.1-3.3-2.2c-0.7-0.4-1.1-0.8-1.3-1.2c-0.1-0.2-0.1-0.4,0-0.7c0.1-0.7,0.6-2.7,0.9-4.3c0.2-0.8,0.2-0.8,0.1-0.9
		c-0.1-0.1-0.1-0.1-1-0.1l-0.9,0L8.1,10c-0.4,0.8-0.7,1.5-0.7,1.5C7.2,11.8,6.9,12,6.6,12c-0.1,0-0.3,0-0.4-0.1
		c-0.3-0.2-0.5-0.6-0.4-1c0-0.2,1.4-3.6,1.5-3.9C7.5,7,7.7,6.8,7.8,6.8C7.9,6.7,8,6.7,9.8,6.6c0.7,0,1.8-0.1,1.9-0.1
		c0.1,0,0.2,0,0.4,0c0.2,0,0.4,0,0.5,0c0.2,0,0.6,0.1,0.9,0.2c0.9,0.3,1.3,0.8,1.3,1.5l0,0.1c0,0.2,0,0.2-0.7,2.8L14,11.7
		c-0.3,1.2-0.5,1.8-0.6,2.1c-0.1,0.4-0.1,0.5,0,0.5c0,0,0,0,1.5,1.1c0.9,0.6,1.5,1,1.5,1.1c0.2,0.2,0.3,0.4,0.3,0.8
		c0,0.2,0,0.3,0,0.5c-0.1,0.2-2.2,4.9-2.3,5.1C14.2,23.2,13.8,23.4,13.5,23.4L13.5,23.4z"/>
	<path class="st1" d="M17.3,17.2c-0.1-0.5-0.2-0.8-0.5-1.1l0,0c-0.1-0.1-1.1-0.8-1.6-1.1c-0.6-0.4-1-0.7-1.2-0.9c0,0,0,0,0-0.1
		c0.1-0.3,0.2-0.9,0.6-2.1l0.2-0.6c0.7-2.7,0.7-2.7,0.7-3l0,0c0.1-1-0.5-1.7-1.7-2.2c-0.3-0.1-0.7-0.2-1-0.3c-0.2,0-0.4,0-0.6,0
		c-0.1,0-0.4,0-0.5,0c-0.1,0-0.8,0.1-1.9,0.1C7.9,6,7.8,6,7.5,6.2C7.2,6.3,7,6.5,6.9,6.7l0,0l0,0.1l0,0c-0.1,0.3-1.5,3.8-1.6,4
		c-0.2,0.7,0.1,1.4,0.7,1.7c0.2,0.1,0.4,0.2,0.7,0.2c0.5,0,1-0.3,1.3-0.8c0.1-0.1,0.7-1.5,0.7-1.6l0.5-1.1c0,0,0.7,0,0.8,0
		c0,0,0,0.1,0,0.2c-0.3,1.5-0.8,3.6-0.9,4.3c-0.1,0.4-0.1,0.7,0,1c0.2,0.6,0.7,1.1,1.6,1.6c0.1,0.1,2.1,1.4,2.9,1.9
		c-0.1,0.3-0.3,0.9-0.7,1.7C12.5,20.5,12,21.8,12,22l0,0c-0.2,0.9,0.3,1.7,1.2,1.9c0.1,0,0.2,0,0.4,0c0.5,0,1.1-0.3,1.4-0.8l0,0
		c0.2-0.2,2.3-4.9,2.4-5.2l0,0C17.4,17.7,17.4,17.5,17.3,17.2z M16.1,17.6c-0.2,0.4-2.1,4.6-2.2,4.9c-0.1,0.1-0.2,0.2-0.3,0.2
		c0,0,0,0-0.1,0c-0.2-0.1-0.3-0.2-0.3-0.4c0-0.1,0.3-0.8,0.8-2.1c0.4-1.1,0.6-1.6,0.7-1.9c0.1-0.2,0.2-0.7-0.2-1l0,0
		c-0.3-0.2-3.4-2.2-3.4-2.2c-0.6-0.3-0.9-0.6-1-0.8c0,0,0-0.1,0-0.4c0.1-0.7,0.6-2.7,0.9-4.2c0.1-0.4,0.1-0.6,0.2-0.8
		c0-0.3,0-0.5-0.2-0.7c-0.2-0.2-0.3-0.2-1.4-0.2l-1.3,0L7.5,9.7c-0.4,0.8-0.7,1.4-0.7,1.5c0,0.1-0.1,0.1-0.2,0.1c0,0-0.1,0-0.1,0
		c-0.1,0-0.1-0.1-0.1-0.2C6.6,10.8,7.7,7.9,8,7.4C8,7.4,8,7.3,8,7.3c0.1,0,0.7-0.1,1.8-0.1c0.8,0,1.9-0.1,2-0.1c0,0,0.1,0,0.3,0
		c0.2,0,0.4,0,0.5,0c0.2,0,0.5,0.1,0.7,0.2c0.9,0.3,0.9,0.7,0.9,0.9l0,0.1c0,0.1-0.1,0.4-0.7,2.7l-0.2,0.6c-0.3,1.2-0.5,1.8-0.6,2.1
		c-0.1,0.4-0.2,0.8,0.1,1.1c0.1,0.1,0.1,0.1,1.5,1.1c0.8,0.6,1.3,1,1.4,1c0,0,0.1,0.1,0.1,0.4C16.1,17.5,16.1,17.5,16.1,17.6z"/>
	<path class="st0" d="M13.9,4.9c-0.1,0-0.2,0-0.3,0c-0.9-0.2-1.6-0.9-1.7-1.9c0-0.2,0-0.5,0.1-0.8c0.2-0.8,0.8-1.4,1.7-1.5
		c0.1,0,0.2,0,0.3,0c0.2,0,0.4,0,0.6,0.1c0.4,0.1,0.7,0.3,1,0.6c0.3,0.3,0.4,0.6,0.6,1c0,0.2,0,0.2,0,0.5c0,0.3,0,0.4-0.1,0.5
		c-0.1,0.5-0.4,0.9-0.8,1.2c-0.2,0.1-0.5,0.3-0.7,0.3C14.3,4.8,14.1,4.9,13.9,4.9z"/>
	<path class="st1" d="M16.5,2.1c-0.1-0.5-0.4-0.9-0.7-1.3c-0.4-0.4-0.7-0.6-1.3-0.7C14.4,0,14.1,0,13.8,0c-0.2,0-0.3,0-0.4,0
		c-1.1,0.2-1.9,1-2.2,2c-0.1,0.3-0.1,0.7-0.1,1c0.1,1.3,1,2.2,2.3,2.5c0.1,0,0.3,0,0.4,0c0.3,0,0.5,0,0.7-0.1
		c0.3-0.1,0.7-0.3,0.9-0.4c0.5-0.4,0.9-0.9,1.1-1.6c0.1-0.2,0.1-0.3,0.1-0.7C16.6,2.4,16.6,2.3,16.5,2.1z M15.3,3.1
		C15.2,3.5,15,3.8,14.7,4c-0.1,0.1-0.3,0.2-0.5,0.2c-0.1,0-0.2,0-0.4,0c-0.1,0-0.2,0-0.2,0c-0.7-0.1-1.1-0.6-1.2-1.3
		c0-0.1,0-0.3,0.1-0.5c0.1-0.5,0.6-1,1.2-1.1c0,0,0.1,0,0.2,0c0.2,0,0.3,0,0.4,0c0.3,0.1,0.5,0.2,0.7,0.4c0.2,0.2,0.3,0.4,0.4,0.7
		c0,0.1,0,0.1,0,0.3C15.3,3,15.3,3,15.3,3.1z"/>
	<path class="st0" d="M11,17.5c-0.4,1-1,2.3-1.1,2.4c0,0.1-0.1,0.1-0.1,0.2c0,0.1-0.1,0.1-0.4,0.2c-0.1,0-1.3,0.3-2.9,0.6
		c-1.7,0.3-2.7,0.5-2.8,0.5c-0.6,0-1-0.4-1-1c0-0.4,0.3-0.7,0.6-0.9c0.1,0,1-0.3,2.3-0.6c0,0,2.2-0.6,2.3-0.6l0.1,0l0.6-1.4
		c0.1-0.2,0.2-0.5,0.3-0.8c0.3,0.3,0.7,0.6,1.2,0.9C10.2,17,10.5,17.2,11,17.5z"/>
	<path class="st0" d="M20.4,9.5c-0.1-0.1-0.2-0.3-0.3-0.4c-0.1-0.1-0.3-0.1-0.4-0.1c-0.1,0-0.2,0-0.2,0c-0.1,0-0.8,0.1-1.5,0.2
		c-0.8,0.1-1.3,0.2-1.4,0.2l0,0l0,0h0c-0.1,0-0.2-0.1-0.3-0.2c-0.1,0.4-0.3,1.1-0.6,2.2c0.2,0.1,0.4,0.2,0.5,0.2
		c0.1,0,0.2,0,0.4-0.1c0.1,0,0.3-0.1,1.8-0.4c1.8-0.4,1.8-0.4,2-0.6C20.6,10.2,20.6,9.9,20.4,9.5z"/>
	<path class="st1" d="M11.6,17.9c-0.4,0.9-0.9,2.2-1.2,2.5c0,0-0.1,0.1-0.1,0.1c-0.2,0.3-0.5,0.4-0.7,0.4c-0.1,0-1.7,0.4-2.9,0.6
		C4,22,3.8,22,3.7,22h0h0c-1,0-1.7-0.7-1.7-1.6c0-0.7,0.4-1.2,1-1.5l0,0c0.2-0.1,2.3-0.6,2.4-0.6l2.1-0.5L8,16.6
		c0.1-0.3,0.3-0.7,0.4-1.1c0.2,0.4,0.5,0.7,1,1c-0.1,0.2-0.2,0.5-0.2,0.6l-0.7,1.7l-0.5,0.1c0,0-2.3,0.6-2.3,0.6
		c-1.2,0.3-2.1,0.5-2.2,0.6c-0.1,0.1-0.2,0.2-0.2,0.3c0,0.3,0.2,0.3,0.4,0.4c0.3,0,2-0.4,2.7-0.5c1.8-0.4,2.8-0.6,2.9-0.6
		c0,0,0,0,0.1,0c0-0.1,0.1-0.1,0.1-0.1c0.1-0.2,0.6-1.3,1-2.3C10.7,17.4,11.1,17.6,11.6,17.9z"/>
	<path class="st1" d="M21,9.2c-0.1-0.3-0.4-0.5-0.6-0.7c-0.2-0.1-0.4-0.2-0.7-0.2c-0.1,0-0.3,0-0.4,0c-0.1,0-0.6,0.1-1.4,0.2
		c-0.5,0.1-0.9,0.1-1.2,0.2c0,0,0,0-0.1-0.1c-0.1-0.1-0.2-0.1-0.2-0.2c0,0.2-0.1,0.5-0.3,1.4c0.2,0.1,0.3,0.2,0.5,0.2h0.1l0.1,0
		c0.1,0,0.6-0.1,1.4-0.2c0.6-0.1,1.4-0.2,1.6-0.2c0,0,0,0,0.1,0c0,0,0.1,0,0.1,0c0,0,0.1,0.1,0.1,0.1c0.1,0.1,0.1,0.2-0.1,0.3
		c-0.1,0.1-0.1,0.1-1.7,0.5c-1.7,0.4-1.8,0.4-1.9,0.5c-0.1,0-0.1,0-0.1,0l0,0c0,0-0.2-0.1-0.3-0.2c-0.1,0.2-0.1,0.4-0.2,0.6
		l-0.2,0.6c0,0,0,0,0,0c0.2,0.1,0.5,0.2,0.7,0.2c0.2,0,0.4,0,0.6-0.1c0,0,0.3-0.1,1.7-0.4c1.9-0.4,2-0.4,2.3-0.8
		C21.2,10.5,21.3,9.9,21,9.2z"/>
</g>
</svg>
