<?xml version="1.0" encoding="utf-8"?>
<!-- Generator: Adobe Illustrator 26.1.0, SVG Export Plug-In . SVG Version: 6.00 Build 0)  -->
<svg version="1.1" id="Layer_1" xmlns="http://www.w3.org/2000/svg" xmlns:xlink="http://www.w3.org/1999/xlink" x="0px" y="0px"
	 viewBox="0 0 24 24" style="enable-background:new 0 0 24 24;" xml:space="preserve">
<style type="text/css">
	.st0{fill:#6484C3;}
	.st1{fill:#7B7B7B;}
	.st2{fill:#6486C4;}
</style>
<g id="icon">
	<path class="st0" d="M12.5,13.9l0.1-0.6c0.1-0.6,0.3-2.2,0.6-2.9c0-0.1,0.1-0.2,0.1-0.3l0-0.1c0.2-0.4,0.3-0.7,0.5-0.9
		c0.3-0.3,0.7-0.5,1.2-0.6c0,0,0.1,0,0.2,0c0.2,0,0.5,0,0.7,0c0.2,0,4.9,1.1,5.3,1.1c0.7,0.2,1.1,0.7,1.1,1.3c0,0.3-0.1,0.7-0.4,0.9
		c-0.2,0.2-0.6,0.4-0.9,0.4c0,0-0.1,0-0.1,0c-0.2,0-0.7-0.1-1.8-0.3c-0.7-0.2-1.1-0.2-1.3-0.3c0,0.1-0.1,0.2-0.2,0.4
		c-0.1,0.2-0.1,0.3-0.1,0.4c0,0.1-0.1,0.4-0.1,0.6c0,0.1,0,0.3-0.1,0.5l-0.1,0.4L12.5,13.9L12.5,13.9z M1.6,13.9l0.1-0.6
		c0.1-0.6,0.3-2.2,0.6-2.9c0-0.1,0.1-0.2,0.1-0.3l0-0.1C2.7,9.5,2.8,9.2,3,9c0.3-0.3,0.7-0.5,1.2-0.6c0,0,0.1,0,0.2,0
		c0.2,0,0.5,0,0.7,0c0.2,0,4.9,1.1,5.3,1.1c0.7,0.2,1.1,0.7,1.1,1.3c0,0.3-0.1,0.7-0.4,0.9c-0.2,0.2-0.6,0.4-0.9,0.4
		c0,0-0.1,0-0.1,0c-0.2,0-0.7-0.1-1.8-0.3c-0.7-0.2-1.1-0.2-1.3-0.3c0,0.1-0.1,0.2-0.2,0.4c-0.1,0.2-0.1,0.3-0.1,0.4
		c0,0.1-0.1,0.4-0.1,0.6c0,0.1,0,0.3-0.1,0.5l-0.1,0.4L1.6,13.9L1.6,13.9z M16.6,7.9c-1.2,0-2.2-1-2.2-2.2c0-1.2,1-2.2,2.2-2.2
		c1.2,0,2.2,1,2.2,2.2C18.8,6.9,17.8,7.9,16.6,7.9z M5.7,7.9c-1.2,0-2.2-1-2.2-2.2c0-1.2,1-2.2,2.2-2.2c1.2,0,2.2,1,2.2,2.2
		C7.9,6.9,6.9,7.9,5.7,7.9z"/>
	<path class="st1" d="M23.8,15.2l-0.1-0.6H0.1l0.1,0.7c0,0.2,0.1,0.6,0.2,0.8c0.1,0.5,0.4,1.1,0.7,1.6c0.1,0.1,0.2,0.3,0.2,0.4
		l0.1,0.2l0.2-0.1c0.1,0,0.1-0.1,0.2-0.1c0,0,0,0,0,0C2,18.1,2.1,18,2.2,18c0.1,0,0.3-0.1,0.5-0.1c0.2,0,0.8,0,1.1,0.2
		c0.4,0.2,0.8,0.5,1.2,1.1c0.4,0.5,0.5,0.5,0.6,0.5c0.1,0,0.1,0,0.1,0c0.1,0,0.2-0.1,0.5-0.5c0.4-0.4,0.4-0.5,0.5-0.6l0,0l0.1,0
		c0,0,0,0,0.1-0.1c0.5-0.4,0.9-0.5,1.4-0.5l0.1,0c0.4,0,0.7,0,1.1,0.3c0.4,0.2,0.8,0.6,1.1,1c0.4,0.5,0.6,0.6,0.7,0.6
		c0.1,0,0.2,0,0.6-0.5c0.5-0.6,1.1-1.3,2.2-1.3c0.4,0,0.7,0,1.1,0.3c0.4,0.2,0.7,0.6,1.1,1c0.2,0.3,0.4,0.4,0.5,0.5c0,0,0.1,0,0.1,0
		c0.1,0,0.1,0,0.1,0c0.1-0.1,0.3-0.2,0.5-0.5c0.5-0.6,1.1-1.2,2.2-1.2l0,0c0.4,0,0.7,0,1.1,0.3c0.3,0.2,0.6,0.4,0.9,0.7l0,0l0.1,0.1
		c0.1,0.1,0.1,0.1,0.2,0.2c0.1,0.1,0.2,0.1,0.3,0.2c0.1,0,0.1,0.1,0.2,0.1c0,0,0,0,0-0.1c0,0,0,0,0,0l0.2,0.1l0.1-0.2
		c0.1-0.2,0.2-0.4,0.2-0.5c0.1-0.2,0.1-0.4,0.2-0.6c0.2-0.6,0.4-1.2,0.5-1.7C23.7,16.1,23.8,15.5,23.8,15.2z"/>
	<path class="st1" d="M9.2,15.5c-0.1,0-0.2,0-0.4-0.1c-0.4-0.2-0.5-0.6-0.3-1l0.7-1.2c0.2-0.4,0.6-0.5,1-0.3c0.4,0.2,0.5,0.6,0.3,1
		l-0.7,1.2C9.7,15.4,9.4,15.5,9.2,15.5z"/>
	<path class="st1" d="M20.1,15.5c-0.1,0-0.2,0-0.4-0.1c-0.4-0.2-0.5-0.6-0.3-1l0.7-1.2c0.2-0.4,0.6-0.5,1-0.3c0.4,0.2,0.5,0.6,0.3,1
		l-0.7,1.2C20.7,15.4,20.4,15.5,20.1,15.5z"/>
	<path class="st2" d="M11.3,22.3c-0.7,0-1.3-0.4-2-1.2c-0.2-0.2-0.5-0.5-0.6-0.6c-0.1,0-0.1,0-0.2,0l-0.1,0c-0.2,0-0.2,0-0.4,0.1
		c-0.1,0.1-0.1,0.1-0.2,0.1c-0.1,0.1-0.2,0.2-0.3,0.4c-0.6,0.8-1.1,1.1-2,1.1c-0.8,0-1.3-0.4-1.9-1.1c-0.4-0.5-0.6-0.6-0.7-0.7
		c0,0-0.2-0.1-0.4-0.1C2.2,20.5,2,20.7,1.7,21c-0.1,0.1-0.3,0.3-0.4,0.4l-0.2,0.2l-0.8-0.9l0.2-0.2c0,0,0.1-0.1,0.3-0.3
		c0.4-0.5,0.9-0.8,1.3-1c0.1,0,0.2,0,0.3,0c0.3,0,0.7,0.1,0.9,0.2c0.3,0.2,0.7,0.5,1.1,1c0.5,0.6,0.7,0.7,1,0.7c0.3,0,0.5,0,1-0.7
		c0.3-0.4,0.4-0.5,0.5-0.6l0,0c0,0,0.1,0,0.2-0.1c0.4-0.3,0.7-0.4,1.1-0.4l0.1,0c0.3,0,0.5,0,0.8,0.2c0.3,0.2,0.7,0.5,1,0.9
		c0.6,0.7,0.9,0.8,1.1,0.8c0.2,0,0.5-0.1,1-0.7c0.6-0.7,1.1-1.1,1.9-1.1c0.3,0,0.6,0,0.9,0.2c0.3,0.2,0.7,0.5,1,0.9
		c0.2,0.3,0.5,0.5,0.7,0.6c0,0,0.1,0,0.3,0c0.2,0,0.3,0,0.3,0c0.2-0.1,0.4-0.3,0.7-0.7c0.5-0.7,1-1.1,1.8-1.1l0,0
		c0.4,0,0.6,0,0.8,0.2c0.3,0.2,0.6,0.5,0.9,0.8c0.2,0.3,0.3,0.4,0.6,0.5c0.2,0.1,0.6,0.3,0.8,0.3l0.2,0l-0.1,1.2l-0.2,0
		c-0.3,0-0.9-0.2-1.2-0.4c-0.4-0.2-0.6-0.4-1-0.8c-0.2-0.3-0.4-0.4-0.6-0.6c0,0-0.1,0-0.2,0l0,0c-0.2,0-0.4,0-0.9,0.6
		c-0.4,0.5-0.7,0.8-1.1,1c-0.3,0.2-0.7,0.2-0.9,0.2c-0.3,0-0.6,0-0.9-0.2c-0.3-0.2-0.7-0.5-1-0.9c-0.3-0.3-0.5-0.5-0.7-0.7
		c-0.1,0-0.1,0-0.2,0c-0.2,0-0.4,0-0.9,0.7C12.7,21.8,12.1,22.3,11.3,22.3L11.3,22.3C11.3,22.3,11.3,22.3,11.3,22.3z"/>
</g>
</svg>
