<?xml version="1.0" encoding="utf-8"?>
<!-- Generator: Adobe Illustrator 26.1.0, SVG Export Plug-In . SVG Version: 6.00 Build 0)  -->
<svg version="1.1" id="Layer_1" xmlns="http://www.w3.org/2000/svg" xmlns:xlink="http://www.w3.org/1999/xlink" x="0px" y="0px"
	 viewBox="0 0 24 24" style="enable-background:new 0 0 24 24;" xml:space="preserve">
<style type="text/css">
	.st0{fill:#7B7B7B;}
	.st1{fill:#6484C3;}
</style>
<g id="icon">
	<path class="st0" d="M17.9,9.6L17.9,9.6c-0.3,0-0.3-0.2-0.4-0.3c0-0.1-0.1-0.4-0.2-0.5c-0.2-0.5-0.6-0.8-1.1-1
		c-0.2-0.1-0.4-0.2-0.4-0.4c0-0.3,0.5-0.5,0.5-0.6c0.2-0.1,0.4-0.2,0.7-0.2l0,0c0.2,0,0.3,0,0.5,0.1c0,0,0.1,0,0.1,0
		c0.1-0.1,0.2-0.2,0.4-0.3c0.3-0.2,0.9-0.7,1.3-1.1c2.2-1.8,3.3-2.7,3.8-2.9c0.1-0.1,0.3-0.1,0.4-0.1c0.1,0,0.3,0.1,0.3,0.2
		c0.2,0.3-0.1,0.7-0.8,1.4c-0.8,0.8-2.2,2.1-3.9,3.6c-0.2,0.2-0.3,0.3-0.4,0.4c0.1,0.3,0,0.8-0.1,1.1C18.6,9,18.3,9.6,17.9,9.6
		L17.9,9.6L17.9,9.6z"/>
	<path class="st1" d="M14,23.9c-0.6,0-1.1-0.4-1.3-1c0-0.1-0.1-0.7-0.4-2.5L12,18.3l-2-0.8c-1.1-0.5-2.1-0.8-2.2-0.9l0,0l0,0
		c0,0-0.1-0.1-0.2-0.1c0,0-0.1-0.1-0.2-0.2c-0.3-0.2-0.6-0.4-0.8-0.6c-0.4-0.4-0.6-0.9-0.5-1.5c0.1-0.5,0.5-2.6,1-4.7l0.1-0.2
		c-0.1,0-0.6,0-1.2-0.1C4.8,9.1,4.6,9.1,4.3,9C4.1,8.9,3.9,8.7,3.8,8.5C3.7,8.3,2.3,4.7,2.2,4.5c0-0.1,0-0.3,0-0.4
		c0-0.6,0.4-1,0.9-1.2c0.1,0,0.2,0,0.3,0c0.4,0,0.8,0.2,1,0.5c0.1,0.1,0.3,0.6,0.8,1.6l0.6,1.4l0.6,0l0.1,0c0.6,0,2,0,2.5-0.1
		c0,0,0.1,0,0.1,0c0.8,0,1.7,0.3,2.3,0.7c0.4,0.3,0.7,0.6,0.8,1c0.1,0.2,0.1,0.6,0,0.9c0,0.1-0.4,1.5-0.8,2.8
		c-0.4,1.5-0.6,2.3-0.7,2.6c0.2,0.1,0.6,0.3,1.3,0.6c0.7,0.3,1.5,0.7,1.8,0.8c0.5,0.2,0.9,0.6,1,1.1c0.1,0.3,0.5,5.4,0.5,5.7
		C15.3,23.3,14.7,23.9,14,23.9z M1.4,23.2c-0.3,0-0.5-0.1-0.8-0.2l-0.2-0.1l0,0c-0.6-0.6-0.6-1.3,0-2l0,0l0.1-0.1
		c0.1-0.1,0.9-0.6,2.3-1.4c1.3-0.8,1.9-1.1,2.1-1.2C4.9,18,5,17.7,5.3,17c0-0.1,0.1-0.3,0.2-0.5l0.2-0.5l0.3,0.3
		c0.2,0.2,0.6,0.5,0.9,0.7c0,0,0.1,0,0.1,0.1l0,0l0,0c0.1,0,0.1,0.1,0.2,0.2l0.1,0.1l0.1,0.1c0.1,0,0.2,0.1,0.7,0.3l0.3,0.1
		l-0.1,0.3c-0.1,0.3-0.3,0.7-0.4,1c-0.1,0.2-0.2,0.5-0.3,0.5c-0.1,0.2-0.3,0.5-0.4,0.6c-0.1,0.1-0.2,0.1-0.3,0.2
		c-0.4,0.2-4.7,2.5-4.9,2.6l0,0C1.7,23.1,1.5,23.2,1.4,23.2z M13.8,12.3c-0.1,0-0.2,0-0.3,0c-0.2-0.1-0.4-0.2-0.8-0.4l-0.2-0.1
		l0.1-0.2c0.4-1.4,0.6-2.2,0.6-2.3l0.1-0.6l0.4,0.3c0,0,0.1,0.1,0.1,0.1c0.1-0.1,0.3-0.2,0.8-0.6c0.1-0.1,0.5-0.4,0.5-0.4l0.2,0.1
		c0,0,0.1,0,0.1,0.1c0.5,0.2,0.9,0.6,1.2,1.1l0,0l0,0c0,0.1,0.1,0.2,0.1,0.3c0,0.1,0,0.1,0.1,0.2l0.1,0.2l-0.2,0.2
		c-0.2,0.2-0.5,0.4-0.8,0.7c-0.6,0.5-1.2,1-1.3,1C14.4,12.1,14.1,12.3,13.8,12.3z M11.4,5.6c-1,0-1.9-0.6-2.4-1.4
		C8.6,3.5,8.5,2.7,8.7,2C9,1.3,9.5,0.7,10.1,0.4c0.3-0.1,0.5-0.2,0.7-0.2c0.2,0,0.3,0,0.5,0c0.4,0,0.9,0.1,1.2,0.3
		C13.2,0.7,13.7,1.3,14,2c0.4,1.3-0.2,2.7-1.4,3.3C12.2,5.5,11.8,5.6,11.4,5.6z"/>
</g>
</svg>
