<?xml version="1.0" encoding="utf-8"?>
<!-- Generator: Adobe Illustrator 26.1.0, SVG Export Plug-In . SVG Version: 6.00 Build 0)  -->
<svg version="1.1" id="Layer_1" xmlns="http://www.w3.org/2000/svg" xmlns:xlink="http://www.w3.org/1999/xlink" x="0px" y="0px"
	 viewBox="0 0 24 24" style="enable-background:new 0 0 24 24;" xml:space="preserve">
<style type="text/css">
	.st0{fill:#6484C3;}
</style>
<g id="icon">
	<path class="st0" d="M16.1,24c-0.2,0-0.4-0.1-0.6-0.2c-0.3-0.2-0.4-0.3-1.9-2.5c-0.8-1.1-1.5-2.1-1.5-2.2c0-0.1-0.1-0.2-0.2-0.3
		c0-0.1-0.6-0.9-1.4-2C9.8,16,9.1,15,9,14.9l0,0c-0.1-0.2-0.2-0.6-0.2-0.8c0-0.2,0-0.4,0.2-1.4c0.1-0.6,0.5-2.5,0.7-3.4
		c0,0,0-0.1,0-0.1c-0.1,0-0.3,0.1-0.5,0.2c0,0-0.8,0.2-0.8,0.3l0,0.2l-0.1,0.5C8,13,8,13,7.8,13.3l0,0c-0.2,0.3-0.5,0.5-0.8,0.5
		c0,0-0.1,0-0.1,0c-0.3,0-0.6-0.1-0.8-0.3c-0.2-0.2-0.3-0.4-0.3-0.7c0-0.2,0-0.2,0.1-2.2c0-0.5,0.1-2,0.2-2.1c0-0.3,0.2-0.6,0.4-0.8
		c0.1-0.1,0.3-0.2,0.5-0.3c0.5-0.2,3.6-1.3,3.8-1.4c0.2-0.1,0.4-0.2,0.7-0.2c0.1,0,0.2,0,0.3,0c0.1,0,0.2,0,0.4,0
		c0.7,0.1,1.1,0.2,1.4,0.6c0.3,0.2,0.4,0.5,0.6,0.8c0.2,0.4,0.4,1.1,0.4,1.5c0,0.2-0.3,1.2-0.9,3.3c-0.6,2.3-0.7,2.6-0.8,2.8l0,0.1
		l0.7,1.1c0.3,0.5,0.7,1.2,0.8,1.3c0.1,0.2,2.9,4.6,3,4.8c0.2,0.3,0.2,0.7,0.2,1c-0.1,0.5-0.5,0.9-1,1C16.3,24,16.2,24,16.1,24z
		 M5.4,24c-0.3,0-0.6-0.1-0.8-0.4c-0.3-0.3-0.5-0.7-0.3-1.2c0-0.2,0.2-0.5,0.3-0.7c0.1-0.1,1.2-1.5,1.6-1.9c1.1-1.4,1.4-1.7,1.5-1.8
		c0-0.1,0.2-0.5,0.4-1.2c0.1-0.2,0.1-0.4,0.2-0.6l0.2-0.6l0.3,0.5c0.3,0.4,0.6,0.9,0.9,1.3l0.9,1.2l-0.1,0.2
		c-0.3,0.7-0.3,0.7-0.3,0.8C10,19.8,9.8,20,8.6,21.2c-2.4,2.4-2.5,2.5-2.7,2.6C5.7,23.9,5.6,24,5.4,24z M18.7,13.6
		c-0.2,0-0.3,0-1.7-0.4c-0.8-0.2-1.6-0.4-1.6-0.5c-0.3-0.1-0.5-0.2-0.7-0.3c0,0-0.1,0-0.1-0.1l-0.2-0.1l0.1-0.2
		c0.3-1.1,0.5-1.9,0.6-2.3l0.2-0.6l0.4,0.4c0.1,0.1,0.1,0.1,0.1,0.1c0.3,0.3,0.5,0.6,0.5,0.6c0.3,0.2,2.5,0.8,2.7,0.9
		c0.3,0.1,0.5,0.1,0.7,0.3c0.3,0.2,0.4,0.5,0.3,0.9c0,0.3-0.1,0.5-0.3,0.7C19.6,13.5,19.2,13.6,18.7,13.6z M13.9,4.8
		c-0.1,0-0.3,0-0.5-0.1c-0.5-0.1-0.8-0.3-1.2-0.6c-0.3-0.3-0.5-0.7-0.6-1.2c0-0.2-0.1-0.3-0.1-0.5c0-0.3,0-0.4,0.1-0.6
		c0.2-0.9,0.9-1.6,1.9-1.8c0.1,0,0.3,0,0.4,0c0.2,0,0.5,0,0.6,0.1c0.5,0.1,1,0.5,1.3,0.9c0.2,0.2,0.3,0.6,0.4,0.9
		c0,0.2,0.1,0.3,0.1,0.6c0,0.3,0,0.4-0.1,0.6c-0.1,0.5-0.4,0.9-0.7,1.2c-0.3,0.3-0.6,0.5-1.1,0.6C14.3,4.8,14.1,4.8,13.9,4.8z"/>
</g>
</svg>
