<?xml version="1.0" encoding="utf-8"?>
<!-- Generator: Adobe Illustrator 26.1.0, SVG Export Plug-In . SVG Version: 6.00 Build 0)  -->
<svg version="1.1" id="Layer_1" xmlns="http://www.w3.org/2000/svg" xmlns:xlink="http://www.w3.org/1999/xlink" x="0px" y="0px"
	 viewBox="0 0 24 24" style="enable-background:new 0 0 24 24;" xml:space="preserve">
<style type="text/css">
	.st0{fill:#6484C3;}
	.st1{fill:#7B7B7B;}
	.st2{fill:#6486C4;}
</style>
<g id="icon">
	<path class="st0" d="M12.2,13.3l0.2-0.6c0.5-1.4,1.1-3.3,1.6-4c0.4-0.6,0.8-0.8,1.4-1c0.1,0,0.4-0.1,0.7-0.1c0.1,0,0.3,0,0.4,0
		c0.2,0,2.6,0.6,3.2,0.7c0.1-0.2,0.4-0.5,0.6-0.9c0.3-0.5,0.6-1,0.7-1.1C21,6.2,21.2,6.1,21.4,6c0.1,0,0.2,0,0.3,0c0,0,0,0,0.1,0
		c0.2,0,0.3,0,0.4,0.1c0.5,0.3,0.7,0.8,0.5,1.4c0,0.1-0.5,0.9-0.7,1.4c-0.4,0.7-0.7,1.3-0.7,1.3c-0.1,0.2-0.3,0.4-0.4,0.5
		c0,0-0.1,0-0.1,0.1l-0.1,0.1l-0.1,0c-0.2,0.1-0.4,0.1-0.6,0.1c-0.2,0-0.4,0-1.3-0.3l-1-0.2l-0.2,0.5c-0.2,0.4-0.4,1.2-0.6,1.9
		l-0.1,0.4H12.2z M5.7,13.3c-1.5,0-1.7,0-2.5-0.3c-0.5-0.1-0.8-0.2-1.1-0.3l-0.3-0.1l0.1-0.3c0.1-0.3,0.2-0.6,0.3-1
		c0.3-0.9,0.5-1.8,0.8-2.2c0.3-0.5,0.4-0.6,0.6-0.8c0.3-0.3,0.6-0.5,1-0.6c0.2,0,0.3-0.1,0.6-0.1c0,0,0.1,0,0.2,0
		c0.3,0,0.4,0,1.7,0.3l0.4,0.1c0.8,0.2,1.2,0.3,1.4,0.3c0.1-0.2,0.3-0.5,0.6-0.9c0.3-0.5,0.7-1,0.8-1.1c0.1-0.1,0.3-0.2,0.5-0.3
		C10.7,6,10.8,6,10.9,6c0.4,0,0.8,0.3,1,0.6C12,6.7,12,6.8,12,7c0,0.2,0,0.3-0.1,0.4l0,0c0,0.1-0.4,0.7-0.7,1.3
		c-0.4,0.7-0.7,1.3-0.7,1.3C10.2,10.7,9.8,11,9.3,11c0,0,0,0,0,0c-0.2,0-0.4,0-1.3-0.2c-0.5-0.1-0.8-0.2-1-0.2
		c-0.1,0.2-0.3,0.5-0.4,0.7c-0.1,0.3-0.3,1.1-0.4,1.7l-0.1,0.4L5.7,13.3L5.7,13.3z M5.7,6.7c-0.2,0-0.3,0-0.5-0.1
		c-1-0.2-1.6-1-1.6-2c0-0.9,0.7-1.8,1.6-2c0.1,0,0.2,0,0.2,0l0,0l0,0c0,0,0.1,0,0.2,0c0.1,0,0.4,0,0.5,0c0.9,0.2,1.5,0.8,1.6,1.7
		C7.8,5.1,7.5,5.8,7,6.3C6.6,6.6,6.1,6.7,5.7,6.7z M16.5,6.7c-0.9,0-1.7-0.6-2-1.5c-0.1-0.3-0.1-0.7,0-1c0.2-0.8,0.8-1.3,1.6-1.5
		c0.1,0,0.3,0,0.4,0l0,0c0.8,0,1.6,0.5,1.9,1.2c0.1,0.3,0.2,0.6,0.1,0.9c0,0.3-0.1,0.6-0.2,0.8C18,6.3,17.3,6.7,16.5,6.7L16.5,6.7
		L16.5,6.7L16.5,6.7z"/>
	<path class="st1" d="M23.5,16.9c0-1.1-0.5-2.1-1.3-2.4c-0.3-0.2-0.5-0.2-0.9-0.2c-0.1,0-0.1,0-0.2,0c-0.5,0-0.8,0.1-1.4,0.2
		c-0.2,0.1-0.6,0.2-0.8,0.2l0,0c-0.1,0-0.7,0.1-1.1,0.2H7.1c-1.5,0-1.6,0-2.5-0.3c-0.9-0.3-1.3-0.3-1.8-0.3c-0.6,0-1,0.1-1.3,0.4
		c-0.6,0.5-0.9,1.3-0.9,2.2c0,0.3,0,0.4,0,0.6c0.1,0.4,0.2,0.7,0.4,1l0.1,0.2l1-0.7c0.1,0,0.2,0,0.3,0c0.2,0,0.8,0.1,1.2,0.2
		c0.4,0.2,0.8,0.5,1.2,1.1C4.9,19.3,5,19.4,5,19.4c0.2,0,0.3,0.1,0.6,0.2c0,0,0,0,0.1,0c0.1-0.1,0.2-0.2,0.4-0.5
		c0.4-0.4,0.4-0.5,0.6-0.6l0,0l0.1-0.1c0,0,0,0,0.1-0.1c0.5-0.4,0.9-0.5,1.5-0.5l0.1,0c0.4,0,0.7,0,1.1,0.3c0.4,0.2,0.8,0.6,1.1,1
		c0.1,0.2,0.2,0.3,0.3,0.4c0.2,0.1,0.4,0.1,0.5,0.1c0.1-0.1,0.2-0.2,0.4-0.5c0.5-0.7,1.2-1.3,2.3-1.3c0.4,0,0.7,0,1.1,0.3
		c0.4,0.2,0.8,0.6,1.2,1.1c0.2,0.3,0.4,0.4,0.5,0.5c0,0,0.1,0,0.1,0c0.1,0,0.1,0,0.1,0c0.1-0.1,0.3-0.3,0.5-0.5
		c0.5-0.6,1.1-1.3,2.2-1.3l0,0c0.4,0,0.7,0,1.1,0.3c0.1,0,0.2,0.1,0.2,0.1c0,0,0.4,0.6,0.6,0.8l0.1,0.1l0.2-0.1
		c0.5-0.3,0.9-0.7,1.1-1.2C23.4,17.6,23.5,17.3,23.5,16.9z"/>
	<path class="st2" d="M11.3,22.2c-0.7,0-1.3-0.4-2-1.2c-0.2-0.2-0.5-0.5-0.6-0.6c-0.1,0-0.1,0-0.2,0l-0.1,0c-0.2,0-0.2,0-0.4,0.1
		c-0.1,0.1-0.1,0.1-0.2,0.1c-0.1,0.1-0.2,0.2-0.3,0.4c-0.6,0.8-1.1,1.1-2,1.1c-0.8,0-1.3-0.4-1.9-1.1c-0.4-0.5-0.6-0.6-0.7-0.7
		c0,0-0.2-0.1-0.4-0.1C2.2,20.4,2,20.6,1.7,21c-0.1,0.1-0.3,0.3-0.4,0.4l-0.2,0.2l-0.8-0.9l0.2-0.2c0,0,0.1-0.1,0.3-0.3
		c0.4-0.5,0.9-0.8,1.3-1c0.1,0,0.2,0,0.3,0c0.3,0,0.7,0.1,0.9,0.2c0.3,0.2,0.7,0.5,1.1,1C5,20.9,5.2,21,5.5,21c0.3,0,0.5,0,1-0.7
		c0.3-0.4,0.4-0.5,0.5-0.6l0,0c0,0,0.1,0,0.2-0.1c0.4-0.3,0.7-0.4,1.1-0.4l0.1,0c0.3,0,0.5,0,0.8,0.2c0.3,0.2,0.7,0.5,1,0.9
		c0.6,0.7,0.9,0.8,1.1,0.8c0.2,0,0.5-0.1,1-0.7c0.6-0.7,1.1-1.1,1.9-1.1c0.3,0,0.6,0,0.9,0.2c0.3,0.2,0.7,0.5,1,0.9
		c0.2,0.3,0.5,0.5,0.7,0.6c0,0,0.1,0,0.3,0c0.2,0,0.3,0,0.3,0c0.2-0.1,0.4-0.3,0.7-0.7c0.5-0.7,1-1.1,1.8-1.1l0,0
		c0.4,0,0.6,0,0.8,0.2c0.3,0.2,0.6,0.5,0.9,0.8c0.2,0.3,0.3,0.4,0.6,0.5c0.2,0.1,0.6,0.3,0.8,0.3l0.2,0l-0.1,1.2l-0.2,0
		c-0.3,0-0.9-0.2-1.2-0.4c-0.4-0.2-0.6-0.4-1-0.8c-0.2-0.3-0.4-0.4-0.6-0.6c0,0-0.1,0-0.2,0l0,0c-0.2,0-0.4,0-0.9,0.6
		c-0.4,0.5-0.7,0.8-1.1,1c-0.3,0.2-0.7,0.2-0.9,0.2c-0.3,0-0.6,0-0.9-0.2c-0.3-0.2-0.7-0.5-1-0.9c-0.3-0.3-0.5-0.5-0.7-0.7
		c-0.1,0-0.1,0-0.2,0c-0.2,0-0.4,0-0.9,0.7C12.7,21.7,12.1,22.2,11.3,22.2L11.3,22.2C11.3,22.2,11.3,22.2,11.3,22.2z"/>
	<path class="st1" d="M7.9,15.8c-0.1,0-0.2,0-0.3-0.1c-0.3-0.1-0.5-0.5-0.4-0.9l0.9-2.1c0.1-0.3,0.5-0.5,0.9-0.4
		c0.3,0.1,0.5,0.5,0.4,0.9l-0.9,2.1C8.4,15.6,8.1,15.8,7.9,15.8z"/>
	<path class="st1" d="M18.2,15.8c-0.1,0-0.2,0-0.3-0.1c-0.3-0.1-0.5-0.5-0.4-0.9l0.9-2.1c0.1-0.3,0.5-0.5,0.9-0.4
		c0.3,0.1,0.5,0.5,0.4,0.9l-0.9,2.1C18.7,15.6,18.5,15.8,18.2,15.8z"/>
</g>
</svg>
