<?xml version="1.0" encoding="utf-8"?>
<!-- Generator: Adobe Illustrator 26.1.0, SVG Export Plug-In . SVG Version: 6.00 Build 0)  -->
<svg version="1.1" id="Layer_1" xmlns="http://www.w3.org/2000/svg" xmlns:xlink="http://www.w3.org/1999/xlink" x="0px" y="0px"
	 viewBox="0 0 24 24" style="enable-background:new 0 0 24 24;" xml:space="preserve">
<style type="text/css">
	.st0{fill:#6484C3;}
	.st1{fill:#6E6F72;}
</style>
<g id="icon">
	<path class="st0" d="M15.7,19.8c-0.4,0-0.7-0.2-1-0.4c-0.3-0.3-0.5-0.7-0.5-1.1c0-0.1,0.1-1.3,0.1-2.2c0.1-1.1,0.1-1.7,0.1-1.9
		c-0.1,0-2.2-1.9-2.2-1.9c0,0.1,0,0.4,0,0.6c0,0.6,0,0.8,0,0.9c-0.1,0.3-0.3,0.7-0.5,0.8c-0.1,0.1-1.2,0.7-2.2,1.2
		C7.4,16.9,7.2,17,6.9,17c0,0-0.1,0-0.1,0C6,17,5.4,16.3,5.4,15.5c0-0.5,0.3-1,0.6-1.2c0.1-0.1,1-0.5,1.7-0.9
		c0.9-0.5,1.4-0.7,1.5-0.8c0-0.2,0-0.7-0.1-1.6C9.1,9.2,9.1,9.2,9.1,9c0.1-0.6,0.5-1.1,0.9-1.4c0.1-0.1,0.8-0.5,1.7-1
		c0.6-0.4,1.1-0.6,1.3-0.8c-0.1-0.1-0.3-0.1-0.6-0.2c-1-0.4-1.1-0.4-1.2-0.6l0,0l0,0C11,4.8,9.1,2.1,9,1.9C8.8,1.6,8.8,1.3,8.9,1
		C9,0.5,9.3,0.2,9.7,0C9.8,0,9.9,0,10,0c0.3,0,0.6,0.1,0.9,0.3C11,0.5,11.5,1.2,12,1.8l0.9,1.3l1.9,0.6l1,0.3c0.7,0.2,0.9,0.3,1,0.3
		l0,0.1l0-0.1c0.5,0.2,1,0.6,1,0.6l0,0l0.1,0c0,0,0.1,0.1,0.2,0.2c0.1,0.1,0.3,0.3,0.6,0.5c0.5,0.4,1.2,1,1.9,1.7
		c2.3,2,2.7,2.5,2.8,2.6c0.2,0.2,0.2,0.4,0.2,0.7c0,0.3-0.1,0.5-0.2,0.7c-0.2,0.3-0.6,0.5-1,0.5c-0.2,0-0.5-0.1-0.7-0.2
		c-0.1-0.1-1.1-0.9-2-1.8l-1.8-1.6l0,0c0,0-0.3,0.2-0.6,0.4l-1.1,0.6c-0.4,0.2-0.8,0.5-1.1,0.7c-0.1,0.1-0.2,0.1-0.3,0.2
		c0.2,0.2,0.5,0.5,1.1,1c0.2,0.2,1.2,1.1,1.3,1.2c0.2,0.3,0.4,0.7,0.4,1.1c0,0.1-0.1,1.3-0.2,2.6c-0.2,2.6-0.2,2.6-0.3,3
		c-0.1,0.2-0.4,0.5-0.6,0.6C16.1,19.8,15.9,19.8,15.7,19.8z M20.5,5c-1.3,0-2.4-1.1-2.4-2.4s1.1-2.4,2.4-2.4c1.3,0,2.4,1.1,2.4,2.4
		S21.8,5,20.5,5z"/>
	<path class="st1" d="M21.8,23.9c0,0-0.1,0-0.1,0c-7.4-1.3-14.6-2.7-21-5.7C0.2,18,0,17.5,0.2,17.1c0.2-0.4,0.7-0.6,1.1-0.4
		C7.5,19.6,14.6,21,22,22.3c0.4,0.1,0.7,0.5,0.7,1C22.6,23.7,22.2,23.9,21.8,23.9z"/>
	<path class="st1" d="M1.2,21.5c-0.3,0-0.6-0.1-0.7-0.4c-0.2-0.4-0.1-0.9,0.3-1.1L4,18.2c0.4-0.2,0.9-0.1,1.1,0.3
		c0.2,0.4,0.1,0.9-0.3,1.1l-3.2,1.9C1.5,21.5,1.4,21.5,1.2,21.5z"/>
</g>
</svg>
