<?xml version="1.0" encoding="utf-8"?>
<!-- Generator: Adobe Illustrator 26.1.0, SVG Export Plug-In . SVG Version: 6.00 Build 0)  -->
<svg version="1.1" id="Layer_1" xmlns="http://www.w3.org/2000/svg" xmlns:xlink="http://www.w3.org/1999/xlink" x="0px" y="0px"
	 viewBox="0 0 24 24" style="enable-background:new 0 0 24 24;" xml:space="preserve">
<style type="text/css">
	.st0{fill:#6484C3;}
	.st1{fill:#7B7B7B;}
</style>
<g id="icon">
	<path class="st0" d="M17.9,24c-0.2,0-0.4-0.1-0.6-0.1c-0.4-0.2-0.7-0.8-0.7-1.3c0-0.1,0.3-2,0.4-2c0.1-0.7,0.2-1.3,0.3-1.6
		c-0.3-0.1-0.8-0.3-1.5-0.6c-1.6-0.6-1.7-0.7-1.8-0.8c-0.1-0.1-0.2-0.2-0.5-0.3c-0.7-0.4-1-0.9-1-1.5c0-0.2,0.2-1,0.9-4.5
		c-0.1,0-0.2,0-0.4,0l-0.5,0l-0.4,0.9c-0.8,1.6-0.8,1.6-0.9,1.8l0,0c-0.2,0.2-0.5,0.4-0.8,0.4c-0.1,0-0.1,0-0.2,0
		c-0.3-0.1-0.8-0.2-1-0.6c-0.1-0.2-0.2-0.6-0.1-0.9c0-0.2,1.3-3.3,1.4-3.5c0.1-0.2,0.3-0.4,0.5-0.5c0.2-0.1,0.4-0.2,2-0.2l0.1,0
		c0.9,0,1.6-0.1,1.6-0.1c0.1,0,0.3,0,0.5,0c0.1,0,0.3,0,0.5,0c0.6,0.1,1.3,0.3,1.7,0.6c0.5,0.4,0.7,0.9,0.6,1.5
		c0,0.2-0.5,1.9-0.7,2.6c-0.3,1-0.5,1.8-0.6,2.2c0.2,0.1,0.6,0.3,1.1,0.5l0.3,0.1c1.5,0.7,1.5,0.7,1.7,0.8l0,0
		c0.2,0.2,0.3,0.4,0.4,0.7c0.1,0.2,0.1,0.3,0.1,0.5v0.3l-0.5,2.2l-0.3,1.4c-0.1,0.5-0.2,0.9-0.2,0.9C19.1,23.5,18.6,24,17.9,24
		C17.9,24,17.9,24,17.9,24z M10.5,21.6c-0.4,0-0.9,0-1.9,0l-0.2,0c-2.2-0.1-2.5-0.1-2.6-0.1c-0.5-0.1-0.9-0.5-1-1
		c-0.1-0.4,0-0.7,0.2-1c0.2-0.3,0.5-0.5,1-0.6c0.1,0,0.5,0,2.1-0.1c1.1,0,1.9,0,2-0.1l0,0l0.6-0.9c0.2-0.3,0.4-0.5,0.5-0.7l0.3-0.4
		l0.2,0.4c0.2,0.3,0.5,0.6,0.9,0.9c0.3,0.2,0.3,0.2,0.4,0.3c0.1,0.1,0.2,0.1,0.4,0.2l0.3,0.1L13.6,19c-0.2,0.3-0.6,0.8-1.5,1.7
		c0,0-0.1,0.1-0.1,0.2c-0.1,0.2-0.4,0.4-0.6,0.5l0,0C11.1,21.5,11,21.6,10.5,21.6L10.5,21.6z M19.7,14.1c-0.3,0-0.6-0.1-0.9-0.4
		l-0.2-0.2l0-0.2c0.3-1.2,0.5-1.9,0.6-2.3l0.1-0.5l0.5,0.5c0.2,0.2,0.2,0.3,0.3,0.3c0.5-0.1,2.2-0.3,2.4-0.3c0.1,0,0.2,0,0.3,0
		c0,0,0.1,0,0.1,0c0.6,0,1,0.4,1.1,0.9c0.1,0.6-0.2,1.2-0.7,1.4c0,0-0.1,0.1-1.6,0.4c-0.8,0.2-1.3,0.3-1.4,0.3
		C20,14,19.8,14.1,19.7,14.1L19.7,14.1L19.7,14.1z M17.7,7.8c-0.4,0-0.7-0.1-1-0.3c-0.8-0.4-1.2-1.1-1.3-2c0-0.3,0-0.5,0.1-0.8
		c0.3-0.8,0.9-1.4,1.8-1.6c0.1,0,0.3,0,0.4,0c0.6,0,1.3,0.3,1.7,0.7c0.2,0.2,0.3,0.3,0.4,0.6c0.2,0.4,0.2,0.6,0.2,1
		c0,0.4,0,0.7-0.2,1c-0.3,0.7-1,1.2-1.8,1.3C17.8,7.8,17.8,7.8,17.7,7.8z"/>
	<polygon class="st1" points="3,8.9 1.5,8.9 1.5,2.5 1,3 -0.1,2 1.9,0 3,0 	"/>
	<path class="st1" d="M7.3,9.1c-2.9,0-2.9-3.2-2.9-4.5S4.5,0,7.3,0s2.9,3.2,2.9,4.5C10.2,5.9,10.2,9.1,7.3,9.1z M7.3,1.5
		C6.6,1.5,6,1.7,6,4.5s0.7,3,1.4,3s1.4-0.2,1.4-3C8.7,1.7,8,1.5,7.3,1.5z"/>
</g>
</svg>
