<?xml version="1.0" encoding="utf-8"?>
<!-- Generator: Adobe Illustrator 26.1.0, SVG Export Plug-In . SVG Version: 6.00 Build 0)  -->
<svg version="1.1" id="Layer_1" xmlns="http://www.w3.org/2000/svg" xmlns:xlink="http://www.w3.org/1999/xlink" x="0px" y="0px"
	 viewBox="0 0 24 24" style="enable-background:new 0 0 24 24;" xml:space="preserve">
<style type="text/css">
	.st0{fill:#6E6F72;}
	.st1{opacity:0.5;fill:#FFFFFF;enable-background:new    ;}
	.st2{fill:#6486C4;}
</style>
<g id="icon">
	<path class="st0" d="M15.6,13.6l-1.1-1c0.8-0.8,1.5-1.9,1.9-2.9c0.4-0.9,0.6-1.7,0.6-2.6c0.1-1.5-0.6-3.2-1.8-4.8
		c-0.3-0.4-0.8-1-0.9-1.1l0.9-1.2c0.3,0.2,0.9,1,1.2,1.3c1.4,1.9,2.2,3.9,2.1,5.8c0,1-0.3,2-0.8,3.1C17.4,11.4,16.5,12.7,15.6,13.6z
		"/>
	<path class="st1" d="M8.7,4.6c-0.3,0-0.6-0.1-0.9-0.2C7.3,4.2,6.9,3.7,6.7,3.1c0-0.1,0-0.2,0-0.5c0-0.3,0-0.4,0-0.5
		c0.1-0.4,0.3-0.7,0.5-1c0.3-0.3,0.7-0.5,1.1-0.6c0.1,0,0.2,0,0.3,0c0.2,0,0.4,0,0.5,0c0.7,0.2,1.2,0.6,1.5,1.3
		c0.1,0.3,0.2,0.8,0.1,1.1c-0.1,0.7-0.5,1.1-1.1,1.4C9.4,4.6,9,4.6,8.7,4.6L8.7,4.6z"/>
	<path class="st2" d="M8.7,5.2L8.7,5.2C8.3,5.2,7.9,5.1,7.6,5C6.9,4.6,6.4,4.1,6.2,3.3C6.1,3.1,6.1,3,6.1,2.6c0-0.3,0-0.4,0.1-0.6
		c0.1-0.5,0.4-0.9,0.7-1.2C7.2,0.4,7.7,0.2,8.3,0c0.1,0,0.3,0,0.4,0c0.2,0,0.5,0,0.6,0.1c0.9,0.2,1.6,0.8,1.9,1.6
		c0.2,0.4,0.2,1,0.1,1.4C11.2,4,10.7,4.6,9.9,5C9.5,5.1,9.1,5.2,8.7,5.2z M8.7,1.2c-0.1,0-0.2,0-0.2,0C8.2,1.3,7.9,1.4,7.7,1.6
		C7.5,1.8,7.4,2,7.3,2.3c0,0.1,0,0.1,0,0.3c0,0.2,0,0.2,0,0.3c0.1,0.4,0.4,0.7,0.8,0.9c0.4,0.2,0.9,0.2,1.3,0c0.4-0.2,0.7-0.6,0.8-1
		c0-0.2,0-0.5-0.1-0.7C9.9,1.7,9.5,1.4,9,1.2C9,1.2,8.8,1.2,8.7,1.2z"/>
	<path class="st1" d="M6.6,23.3c-0.1,0-0.2,0-0.3-0.1c-0.2-0.1-0.3-0.4-0.4-0.8c0-0.3,0.2-4.4,0.2-4.7c0-0.2,0.1-0.6,0.1-0.7
		c0.1-1.1,0.2-2,0.3-2.8c0-0.2,0-0.5-0.1-3.1l0-0.5c0-1.2-0.1-1.8-0.1-1.9v0c0-0.2-0.2-0.3-0.4-0.4c-0.2-0.1-4-2.7-4-2.7
		C1.7,5.3,1.5,5,1.5,4.7c0-0.3,0.2-0.7,0.6-0.8c0.4-0.1,0.5,0,0.6,0.1c0.7,0.3,4.4,2.1,4.6,2.2c0,0,7.5,0,7.6,0
		c0.2,0,0.4,0.1,0.5,0.2c0.2,0.2,0.2,0.4,0.2,0.6c0,0.3-0.2,0.5-0.5,0.7c-0.2,0.1-0.4,0.1-2.2,0.2c-1.4,0.1-1.7,0.2-1.7,0.2l0,0
		c-0.3,0-0.3,0.3-0.3,0.4c0,0.1,0,1-0.1,1.8c0,0.9-0.1,2.1-0.1,2.6c0,0.8,0,1,0,1.2c0.1,0.7,0.2,1.7,0.3,2.8c0,0.2,0,0.6,0.1,0.7
		c0,0.3,0.2,4.4,0.2,4.7c0,0.2-0.1,0.4-0.1,0.5c-0.1,0.2-0.3,0.4-0.4,0.4c-0.1,0-0.1,0-0.2,0c-0.1,0-0.2,0-0.3-0.1
		c-0.1,0-0.2-0.2-0.3-0.3c-0.1-0.2-0.2-0.4-0.2-0.7c0-0.4-0.4-4.4-0.4-4.6c0-0.1,0-0.3-0.1-0.3c0-0.1-0.1-0.6-0.3-1.3
		c-0.2-1.2-0.2-1.2-0.2-1.2c0-0.2-0.2-0.3-0.4-0.3c-0.2,0-0.3,0.1-0.4,0.3c0,0,0,0-0.2,1.2c-0.1,0.7-0.2,1.2-0.3,1.3
		c0,0-0.1,0.2-0.1,0.3c0,0.2-0.3,4.1-0.4,4.6c-0.1,0.6-0.3,1-0.6,1.1C6.7,23.3,6.6,23.3,6.6,23.3z"/>
	<path class="st2" d="M6.6,23.9c-0.2,0-0.4-0.1-0.6-0.2c-0.4-0.2-0.6-0.7-0.7-1.3l0,0c0-0.3,0.2-4.5,0.2-4.9l0,0
		c0-0.1,0-0.4,0.1-0.7c0.1-1.1,0.2-2,0.3-2.9c0-0.2,0-0.7-0.1-3l0-0.5c0-0.8-0.1-1.3-0.1-1.6c0-0.1,0-0.1,0-0.2c0,0-0.1,0-0.1,0
		c-0.2-0.1-3.3-2.3-4-2.7C1.2,5.6,0.9,5.2,0.9,4.7C0.9,4,1.3,3.5,2,3.3c0.5-0.1,0.7,0,0.9,0.1l0,0c0.6,0.3,3.8,1.8,4.6,2.2
		c7.4,0,7.6,0,7.6,0C15.5,5.7,15.8,5.8,16,6c0.3,0.3,0.4,0.6,0.4,1c0,0.5-0.3,0.9-0.8,1.2c-0.4,0.2-0.6,0.2-2.4,0.3
		c-0.7,0-1.2,0.1-1.5,0.1c0,0.2,0,0.6-0.1,1.7c0,0.9-0.1,2.1-0.1,2.6c0,0.7,0,0.9,0,1.1c0.1,0.7,0.2,1.8,0.3,2.9
		c0,0.3,0,0.6,0.1,0.7l0,0c0,0.3,0.2,4.5,0.2,4.9l0,0c0,0.2-0.1,0.5-0.2,0.7c-0.2,0.3-0.5,0.6-0.8,0.7c-0.3,0.1-0.7,0-1-0.1
		c-0.2-0.1-0.4-0.4-0.5-0.6c-0.1-0.2-0.2-0.6-0.2-0.9c0-0.5-0.4-4.5-0.4-4.7l0,0c0,0,0-0.1,0-0.2c0-0.1-0.2-0.8-0.3-1.3
		c0,0,0-0.1,0-0.1c0,0,0,0.1,0,0.1c-0.1,0.6-0.2,1.2-0.3,1.3c0,0.1,0,0.2,0,0.2l0,0c0,0.2-0.3,4.1-0.4,4.7c-0.1,0.9-0.5,1.4-1.1,1.6
		C6.8,23.9,6.7,23.9,6.6,23.9z M10.8,22.7L10.8,22.7L10.8,22.7z M6.6,22.7L6.6,22.7L6.6,22.7z M6.5,22.3c0,0.2,0.1,0.3,0.1,0.4
		c0,0,0,0,0,0c0,0,0.1-0.2,0.2-0.5c0.1-0.6,0.4-4.3,0.4-4.6c0-0.2,0.1-0.4,0.1-0.5c0-0.1,0.1-0.5,0.2-1.3c0.2-1.2,0.2-1.2,0.3-1.3
		c0.1-0.4,0.5-0.7,0.9-0.7c0.4,0,0.8,0.3,0.9,0.7c0,0.1,0,0.1,0.3,1.3c0.1,0.7,0.2,1.2,0.2,1.3c0,0.1,0.1,0.3,0.1,0.5
		c0,0.3,0.4,4.2,0.4,4.6c0,0.2,0.1,0.4,0.1,0.5c0,0,0,0,0.1,0.1c0,0,0,0,0,0c0,0,0,0,0-0.1c0,0,0.1-0.2,0.1-0.3
		c0-0.4-0.2-4.2-0.2-4.6c0-0.2-0.1-0.7-0.1-0.8c-0.1-1.1-0.2-2.1-0.3-2.8c0-0.3,0-0.5,0-1.3c0-0.5,0.1-1.6,0.1-2.6
		c0.1-1.7,0.1-1.8,0.1-1.8c0.1-0.7,0.6-0.9,0.8-0.9c0.2-0.1,0.6-0.1,1.8-0.2c1.5-0.1,1.8-0.1,2-0.2C15.2,7.1,15.2,7,15.2,7
		c0-0.1,0-0.2,0-0.2c0,0-0.1,0-0.2-0.1c-0.5,0-4.7,0-7.5,0l-0.1,0L7.1,6.7c-0.3-0.2-4-1.9-4.6-2.2l-0.1,0c-0.1,0-0.1,0-0.2,0
		c-0.1,0-0.1,0.1-0.1,0.2c0,0,0.1,0.1,0.1,0.2l0,0c1.5,1,3.8,2.6,3.9,2.7c0.2,0.1,0.7,0.4,0.7,1c0,0,0,0.1,0,0.2
		c0,0.3,0,0.8,0.1,1.6l0,0.5C7,13.6,7.1,13.9,7,14.1c-0.1,0.8-0.2,1.7-0.3,2.8c0,0.1,0,0.6-0.1,0.8C6.6,18.1,6.5,21.9,6.5,22.3z"/>
	<path class="st0" d="M23.1,7.5H18c-0.4,0-0.8-0.3-0.8-0.8S17.6,6,18,6h5.1c0.4,0,0.8,0.3,0.8,0.8S23.5,7.5,23.1,7.5z"/>
</g>
</svg>
