<?xml version="1.0" encoding="utf-8"?>
<!-- Generator: Adobe Illustrator 26.1.0, SVG Export Plug-In . SVG Version: 6.00 Build 0)  -->
<svg version="1.1" id="Layer_1" xmlns="http://www.w3.org/2000/svg" xmlns:xlink="http://www.w3.org/1999/xlink" x="0px" y="0px"
	 viewBox="0 0 24 24" style="enable-background:new 0 0 24 24;" xml:space="preserve">
<style type="text/css">
	.st0{fill:#6484C3;}
	.st1{opacity:0.5;fill:#FFFFFF;enable-background:new    ;}
</style>
<g id="icon">
	<path class="st0" d="M23.5,9.8L24,9.6V4H0v5.6l0.5,0.2c1.3,0.4,2.1,1.5,2.1,2.9s-0.8,2.5-2.1,2.9L0,15.7V21h24v-5.3l-0.5-0.2
		c-1.3-0.4-2.1-1.5-2.1-2.9S22.2,10.2,23.5,9.8z M5,9h5v1H5V9z M5,11h5v1H5V11z M13,18H5v-1h8V18z M13,8H5V7h8V8z M18,18h-2v-1h2V18
		z M18,16h-2v-1h2V16z M18,14h-2v-1h2V14z M18,12h-2v-1h2V12z M18,10h-2V9h2V10z M18,8h-2V7h2V8z"/>
	<path class="st1" d="M5,18v-1h8v1H5z M16,14v-1h2v1H16z M16,12v-1h2v1H16z M16,16v-1h2v1H16z M16,18v-1h2v1H16z M16,10V9h2v1H16z
		 M5,10V9h5v1H5z M5,12v-1h5v1H5z M16,8V7h2v1H16z M5,8V7h8v1H5z"/>
</g>
</svg>
