<?xml version="1.0" encoding="utf-8"?>
<!-- Generator: Adobe Illustrator 26.1.0, SVG Export Plug-In . SVG Version: 6.00 Build 0)  -->
<svg version="1.1" id="Layer_1" xmlns="http://www.w3.org/2000/svg" xmlns:xlink="http://www.w3.org/1999/xlink" x="0px" y="0px"
	 viewBox="0 0 24 24" style="enable-background:new 0 0 24 24;" xml:space="preserve">
<style type="text/css">
	.st0{fill:#EEAC55;}
</style>
<g id="icon">
	<path class="st0" d="M5.6,1.3C5.3,1.4,5.2,1.7,5.1,2.1c0,0.2,0,0.3,0,1.1c0,1.5,0.2,3.5,0.5,4.9c0.3,1.5,0.8,2.8,1.5,4.2
		C7.8,13.7,8.7,15,9.7,16l0.3,0.3v0.2c0,0.2,0,0.2,0.1,0.4c0,0.1,0.1,0.2,0.2,0.3c0.1,0.1,0.2,0.2,0.2,0.3l0.1,0.1l-0.1,0.1
		c-0.5,0.4-0.6,1.2-0.3,1.8l0.1,0.2l-0.1,0.2c-0.1,0.2-0.2,0.5-0.4,0.7c-0.2,0.2-0.5,0.6-0.8,0.7c-0.6,0.4-0.8,0.6-1,1
		c-0.1,0.3-0.2,0.6-0.2,0.8c0,0.3,0.1,0.5,0.4,0.6l0.2,0.1l3.4,0c3.4,0,3.4,0,3.6,0c0.1,0,0.2-0.1,0.3-0.2c0.2-0.2,0.2-0.4,0.2-0.8
		c-0.1-0.6-0.4-0.9-1-1.3c-0.4-0.3-0.7-0.6-0.9-0.9c-0.1-0.2-0.3-0.6-0.4-0.7l0-0.1l0.1-0.2c0.2-0.3,0.2-0.6,0.2-0.9
		c0-0.3-0.2-0.5-0.3-0.7c-0.1-0.1-0.1-0.1-0.1-0.2c0,0,0.1-0.1,0.2-0.4c0.3-0.5,0.4-0.6,0.3-0.8l0-0.1l0.2-0.3
		c0.9-0.9,1.3-1.5,1.9-2.3c0.4-0.6,0.9-1.5,1.2-2.2c0.8-1.8,1.4-4,1.6-5.8c0.1-0.8,0.1-3.4,0.1-3.7c0-0.3-0.2-0.7-0.5-0.8l-0.1-0.1
		l-6.3,0C6,1.2,5.7,1.3,5.6,1.3z"/>
	<path class="st0" d="M6.5,14.2c-3.3-2-5.6-4.6-6.3-7.2C0.1,6.5,0,6.2,0,5.6l0-0.6l0.1-0.4c0.1-0.4,0.2-0.7,0.4-0.9
		c0.3-0.5,0.8-0.8,1.4-0.9c0.6-0.1,1.1,0,1.6,0.2C3.5,3,3.5,3,3.6,3.1c0,0,0,0.1,0,0.1c0,0.6,0,1.7,0.2,3C3.5,5.9,3.2,5.6,3,5.4
		C2.8,5.3,2.7,5.2,2.6,5.2c-0.1,0-0.2,0-0.3,0.2C2.2,5.5,2.2,6,2.2,6.4c0.1,0.8,0.5,1.6,1,2.4C3.6,9.3,4,9.7,4.7,10.4
		C5,11.3,5.3,12.1,5.8,13C6,13.4,6.2,13.8,6.5,14.2z"/>
	<path class="st0" d="M23.9,4.6c-0.1-0.2-0.1-0.4-0.2-0.5c-0.2-0.4-0.4-0.8-0.8-1c-0.5-0.3-1.2-0.5-1.8-0.3
		c-0.3,0.1-0.6,0.2-0.8,0.4c0,1-0.1,2.4-0.1,2.9c0,0,0,0.1,0,0.1c0.1-0.1,0.2-0.2,0.2-0.3c0.5-0.5,0.6-0.6,0.7-0.6
		c0.1-0.1,0.3-0.1,0.4,0c0.3,0.2,0.3,1.1-0.1,2c-0.4,1-1,1.9-2.2,3.2c-0.2,0.6-0.5,1.3-0.7,1.8c-0.3,0.6-0.7,1.3-1,1.9
		c0.1-0.1,0.2-0.1,0.2-0.1c2.3-1.4,4.3-3.3,5.3-5.2c0.4-0.8,0.7-1.7,0.8-2.3c0-0.1,0-0.3,0.1-0.3c0-0.1,0-0.4,0-0.7V4.9L23.9,4.6z"
		/>
</g>
</svg>
