<?xml version="1.0" encoding="utf-8"?>
<!-- Generator: Adobe Illustrator 26.3.0, SVG Export Plug-In . SVG Version: 6.00 Build 0)  -->
<svg version="1.1" id="Layer_1" xmlns="http://www.w3.org/2000/svg" xmlns:xlink="http://www.w3.org/1999/xlink" x="0px" y="0px"
	 viewBox="0 0 16 16" style="enable-background:new 0 0 16 16;" xml:space="preserve">
<style type="text/css">
	.st0{fill:#6E6F72;}
	.st1{opacity:0.5;fill:#FFFFFF;enable-background:new    ;}
	.st2{fill:#6486C4;}
</style>
<g id="icon">
	<path class="st0" d="M15,11V2.5C15,1.7,14.3,1,13.5,1h-11C1.7,1,1,1.7,1,2.5V11H0v1h1h14h1v-1H15z M7.3,9.6H3.5l0-1
		c0-0.4,0.2-0.8,0.5-1.1l2.2-1.9c0.1-0.1,0.1-0.2,0.1-0.4c0-0.4-0.4-0.8-0.9-0.8c-0.5,0-0.9,0.3-0.9,0.7l0,0.2l-1,0l0-0.2
		c0-0.9,0.9-1.7,1.9-1.7c1,0,1.9,0.8,1.9,1.8c0,0.5-0.2,0.8-0.4,1l0,0l-2.2,2C4.5,8.3,4.5,8.4,4.5,8.6l0,0h2.9L7.3,9.6L7.3,9.6z
		 M12.6,7.8c0,0.8-0.5,1.8-1.9,1.8c-1.4,0-1.9-0.9-1.9-1.7l0-0.2l1-0.1l0,0.2c0,0.5,0.3,0.8,1,0.8c0.7,0,1-0.3,1-0.8
		c0-0.4-0.4-0.7-1-0.8h-0.4V6h0.4c0.5-0.1,1-0.3,1-0.8c0-0.6-0.3-0.8-1-0.8c-0.6,0-0.9,0.3-1,0.8l0,0.2l-1-0.1l0-0.2
		c0-0.8,0.6-1.7,1.9-1.7c1.4,0,1.9,1,1.9,1.8c0,0.5-0.2,1-0.7,1.3C12.4,6.8,12.6,7.3,12.6,7.8z"/>
	<path class="st1" d="M3.5,9.6l0-1c0-0.4,0.2-0.8,0.5-1.1l2.2-1.9c0.1-0.1,0.1-0.2,0.1-0.4c0-0.4-0.4-0.8-0.9-0.8
		c-0.5,0-0.9,0.3-0.9,0.7l0,0.2l-1,0l0-0.2c0-0.9,0.9-1.7,1.9-1.7c1,0,1.9,0.8,1.9,1.8c0,0.5-0.2,0.8-0.4,1l0,0l-2.2,2
		C4.5,8.3,4.5,8.4,4.5,8.6l0,0h2.9v1L3.5,9.6L3.5,9.6z M12.6,7.8c0-0.5-0.2-1-0.7-1.3c0.4-0.3,0.7-0.8,0.7-1.3
		c0-0.8-0.5-1.8-1.9-1.8c-1.4,0-1.9,0.9-1.9,1.7l0,0.2l1,0.1l0-0.2c0-0.5,0.3-0.8,1-0.8c0.7,0,1,0.3,1,0.8c0,0.5-0.5,0.7-1,0.8h-0.4
		v1h0.4c0.6,0.1,1,0.4,1,0.8c0,0.6-0.3,0.8-1,0.8c-0.6,0-0.9-0.3-1-0.8l0-0.2l-1,0.1l0,0.2c0,0.8,0.6,1.7,1.9,1.7
		C12.1,9.6,12.6,8.7,12.6,7.8z"/>
	<path class="st2" d="M13.6,16c-0.8,0-0.9,0-1.1-0.1c0,0-0.1-0.1-0.1-0.1l0,0c0,0-0.1-0.2-1.1-2.1c-0.2-0.5-0.4-0.8-0.6-1.1h2.9
		l0,0.1c0.3,0.6,0.7,1.4,1,1.9l0,0.1c0.2,0.3,0.3,0.5,0.3,0.6l0,0l0,0c0,0,0,0.1,0,0.2l0,0c0,0.3-0.2,0.5-0.5,0.6l0,0l0,0
		C14.4,16,14.1,16,13.6,16z M2.4,16c-0.4,0-0.7,0-0.8,0l0,0l0,0c-0.2-0.1-0.4-0.2-0.4-0.4C1,15.5,1,15.3,1,15.2l0-0.1
		C1.1,15,2,13.4,2.4,12.6h2.9c-1.4,2.6-1.7,3.1-1.7,3.2l0,0c0,0-0.1,0.1-0.1,0.1C3.2,16,3.2,16,2.4,16z"/>
</g>
</svg>
