<?xml version="1.0" encoding="utf-8"?>
<!-- Generator: Adobe Illustrator 26.3.0, SVG Export Plug-In . SVG Version: 6.00 Build 0)  -->
<svg version="1.1" id="Layer_1" xmlns="http://www.w3.org/2000/svg" xmlns:xlink="http://www.w3.org/1999/xlink" x="0px" y="0px"
	 viewBox="0 0 16 16" style="enable-background:new 0 0 16 16;" xml:space="preserve">
<style type="text/css">
	.st0{fill:#6E6F72;}
	.st1{opacity:0.5;fill:#FFFFFF;enable-background:new    ;}
</style>
<g id="icon">
	<path class="st0" d="M0,1v14h16V1H0z M3,3h10v1H3V3z M12,5v1H4V5H12z M2.5,10h3v1h-3V10z M6.5,13h-4v-1h4V13z M6.5,9h-4V8h4V9z
		 M13.2,12.2c0.1,0.1,0,0.2,0,0.3c-0.1,0.1-0.2,0.2-0.3,0.2l-0.5,0L12,13.1c-0.1,0.1-0.1,0.1-0.2,0.1c0,0-0.1,0-0.1,0
		c-0.1,0-0.2-0.1-0.2-0.2l-0.3-1.2h-0.1l-0.4,1.2c0,0.1-0.1,0.2-0.2,0.2c0,0-0.1,0-0.1,0c-0.1,0-0.2,0-0.2-0.1l-0.4-0.4l-0.5,0
		c-0.1,0-0.2-0.1-0.3-0.2C9,12.4,9,12.3,9,12.2l0.7-1.5l-0.1-0.1c-0.4-0.4-0.7-1-0.7-1.6c0-1.2,1-2.2,2.2-2.2s2.2,1,2.2,2.2
		c0,0.6-0.2,1.2-0.7,1.6l-0.1,0.1L13.2,12.2z"/>
	<path class="st1" d="M13,4H3V3h10V4z M6.5,12h-4v1h4V12z M5.5,11h-3v-1h3V11z M6.5,9h-4V8h4V9z M12,6H4V5h8V6z M10.5,13.1
		c0.1,0,0.2-0.1,0.2-0.2l0.4-1.2h0.1l0.3,1.2c0,0.1,0.1,0.2,0.2,0.2c0,0,0.1,0,0.1,0l0,0c0.1,0,0.2,0,0.2-0.1l0.4-0.4l0.5,0
		c0.1,0,0.2-0.1,0.3-0.2c0.1-0.1,0.1-0.2,0-0.3l-0.7-1.5l0.1-0.1c0.4-0.4,0.7-1,0.7-1.6c0-1.2-1-2.2-2.2-2.2s-2.2,1-2.2,2.2
		c0,0.6,0.2,1.2,0.7,1.6l0.1,0.1L9,12.2c0,0.1,0,0.2,0,0.3c0.1,0.1,0.2,0.2,0.3,0.2l0.5,0l0.4,0.4C10.3,13.1,10.4,13.2,10.5,13.1
		C10.5,13.2,10.5,13.2,10.5,13.1z"/>
</g>
</svg>
