<?xml version="1.0" encoding="utf-8"?>
<!-- Generator: Adobe Illustrator 26.3.0, SVG Export Plug-In . SVG Version: 6.00 Build 0)  -->
<svg version="1.1" id="Layer_1" xmlns="http://www.w3.org/2000/svg" xmlns:xlink="http://www.w3.org/1999/xlink" x="0px" y="0px"
	 viewBox="0 0 16 16" style="enable-background:new 0 0 16 16;" xml:space="preserve">
<style type="text/css">
	.st0{fill:#CB535D;}
	.st1{fill:#6D6E71;}
</style>
<g id="icon">
	<path class="st0" d="M6.2,1.8L6.3,2c0.1,0.3,0.2,0.4,0.3,0.5c0.1,0.1,0.2,0.1,0.3,0.1c0.1,0,0.4-0.1,0.6-0.1c0.1,0,0.1,0,0.1,0
		c0,0,0,0.1-0.1,0.1C7.4,2.8,7.1,3.1,7,3.4C6.5,4.2,6.2,5.1,6.3,5.8c0,0.1,0,0.1,0,0.1c0,0,0.2-0.1,0.4-0.2C7,5.6,7.2,5.5,7.2,5.5
		c0,0,0,0,0,0c0,0.1,0,0.4,0,0.6c0,0.1,0,0.2,0,0.2c0,0.2,0.2,0.8,0.4,1.2c0.2,0.3,0.4,0.7,0.7,1c0.7,0.8,1.1,1,1.9,1.2
		c0.1,0,0.3,0,0.3,0.1l0,0l-0.1,0.1c-0.8,0.9-1.5,1.5-2.2,2C8,11.9,7.9,12,7.9,12c-0.1,0-0.8-0.3-1.1-0.5c-0.4-0.2-0.6-0.4-1.1-0.9
		c-0.8-0.9-1-1.3-1.1-2.1c0-0.3,0-0.4,0-0.5c0,0,0.1-0.1,0.1-0.2C4.9,7.7,5,7.5,5,7.5c0,0-0.1,0-0.1,0C4.6,7.5,4,7.4,3.7,7.2
		C2.9,6.9,2.3,6.3,1.9,5.4C1.8,5.2,1.6,4.7,1.6,4.7c0,0,0.1,0,0.1,0.1C2.2,5.1,2.6,5,3,4.3c0.1-0.1,0.1-0.2,0.1-0.2
		c0,0,0,0.1,0.1,0.3c0.2,0.6,0.3,1,0.6,1.4c0.3,0.3,0.6,0.5,1,0.6C5,6.4,5.4,6.5,5.5,6.5c0,0,0-0.1-0.1-0.2c-0.2-0.6-0.3-1-0.3-1.5
		c0-0.6,0.2-1.3,0.6-2.1C5.8,2.5,6.1,2,6.2,1.8L6.2,1.8z"/>
	<path class="st1" d="M12.5,1.1c0.8,0.2,1.6,0.7,2.2,1.4c0.2,0.3,0.4,0.4,0.5,0.7C15.8,4,16,4.9,16,5.4c0,0.2-0.1,0.3-0.2,0.3
		c-0.1,0.1-0.3,0.1-0.5,0.1c-0.2,0-0.6,0-0.8-0.1c-0.8-0.2-1.5-0.6-2.1-1.3c-0.5-0.6-0.8-1.1-0.7-1.5c0-0.2,0.1-0.3,0.3-0.3
		c0.1,0,0.3,0,0.4,0.1c0.4,0.2,1,0.6,1.5,1.2c0.2,0.2,0.3,0.3,0.5,0.3c0.4,0,0.4-0.3,0.1-0.7C14.5,3.4,14.2,3,14,2.8
		c-0.5-0.4-1.1-0.8-1.5-0.9c-0.2,0-0.4,0-0.6,0c-0.5,0.1-0.8,0.5-0.9,1c-0.1,0.5,0.1,1,0.6,1.6c0.2,0.3,0.6,0.7,0.8,0.9
		c0.6,0.6,1.3,0.9,2,1c0.2,0,0.6,0.1,0.8,0c0,0,0.1,0,0.1,0c0,0-0.8,0.4-2,1.2c-2.1,1.4-1.8,1-1.9,1.1c-0.6,0.2-1.2,0-1.8-0.3
		C9.3,8.2,8.9,7.7,8.6,7.2C8.5,7.1,8.4,6.9,8.3,6.6C7.9,5.8,7.9,5.6,7.9,5.3c0-0.3-0.4,0.1,1.7-2.2c1-1.1,1.5-1.7,1.5-1.8
		c0.2-0.2,0.4-0.3,0.7-0.3C12,1,12.3,1,12.5,1.1z M3.8,8.7c0,0,0,0.1,0,0.2c0.2,1,0.4,1.5,1,2.2c0.6,0.7,1,1.1,1.9,1.5
		C6.9,12.7,7,12.7,7,12.7c0,0-0.4,0.5-0.8,1c-2,2.6-1.5,2-1.8,2.2C4.2,16,4.1,16,3.8,16c-0.3,0-0.4,0-0.7-0.1
		c-1.3-0.5-2.6-1.9-3-3.3C0,12.2,0,11.9,0,11.6c0-0.3,0.1-0.5,0.2-0.7c0.1-0.2-0.4,0.2,2.3-1.5C3.2,9,3.8,8.7,3.8,8.7z"/>
</g>
</svg>
