<?xml version="1.0" encoding="utf-8"?>
<!-- Generator: Adobe Illustrator 26.3.0, SVG Export Plug-In . SVG Version: 6.00 Build 0)  -->
<svg version="1.1" id="Layer_1" xmlns="http://www.w3.org/2000/svg" xmlns:xlink="http://www.w3.org/1999/xlink" x="0px" y="0px"
	 viewBox="0 0 16 16" style="enable-background:new 0 0 16 16;" xml:space="preserve">
<style type="text/css">
	.st0{fill:#9171B2;}
	.st1{opacity:0.5;fill:#FFFFFF;enable-background:new    ;}
</style>
<g id="icon">
	<path class="st0" d="M11.1,6.3c0.2,0.5,0.3,1.1,0.3,1.7s-0.1,1.2-0.3,1.7c-0.2,0.5-0.4,0.9-0.7,1.2c-0.3,0.3-0.7,0.6-1.1,0.8
		C8.8,11.9,8.3,12,7.8,12H5.3V4h2.5c0.5,0,1,0.1,1.5,0.3c0.4,0.2,0.8,0.4,1.1,0.8C10.7,5.4,11,5.8,11.1,6.3z M16,3.6v8.9
		c0,2-1.6,3.6-3.6,3.6H3.6c-2,0-3.6-1.6-3.6-3.6V3.6C0,1.6,1.6,0,3.6,0h8.9C14.4,0,16,1.6,16,3.6z M12.5,8c0-0.8-0.1-1.5-0.3-2.1
		c-0.2-0.6-0.6-1.2-1-1.6c-0.4-0.4-0.9-0.8-1.5-1C9.1,3.1,8.5,3,7.8,3H4.2V13h3.6c0.7,0,1.3-0.1,1.9-0.3c0.6-0.2,1.1-0.6,1.5-1
		c0.4-0.4,0.7-1,1-1.6C12.4,9.5,12.5,8.8,12.5,8z"/>
	<path class="st1" d="M7.8,13H4.2V3h3.6c0.7,0,1.3,0.1,1.9,0.3c0.6,0.2,1.1,0.6,1.5,1c0.4,0.4,0.7,1,1,1.6c0.2,0.6,0.3,1.3,0.3,2.1
		s-0.1,1.5-0.3,2.1c-0.2,0.6-0.6,1.2-1,1.6c-0.4,0.4-0.9,0.8-1.5,1C9.1,12.9,8.5,13,7.8,13z M5.3,12h2.5c0.5,0,1-0.1,1.5-0.3
		c0.4-0.2,0.8-0.4,1.1-0.8c0.3-0.3,0.6-0.7,0.7-1.2c0.2-0.5,0.3-1.1,0.3-1.7c0-0.6-0.1-1.2-0.3-1.7c-0.2-0.5-0.4-0.9-0.7-1.2
		c-0.3-0.3-0.7-0.6-1.1-0.8C8.8,4.1,8.3,4,7.8,4H5.3L5.3,12L5.3,12z"/>
</g>
</svg>
