<?xml version="1.0" encoding="utf-8"?>
<!-- Generator: Adobe Illustrator 26.3.0, SVG Export Plug-In . SVG Version: 6.00 Build 0)  -->
<svg version="1.1" id="Layer_1" xmlns="http://www.w3.org/2000/svg" xmlns:xlink="http://www.w3.org/1999/xlink" x="0px" y="0px"
	 viewBox="0 0 16 16" style="enable-background:new 0 0 16 16;" xml:space="preserve">
<style type="text/css">
	.st0{opacity:0.5;fill:#FFFFFF;enable-background:new    ;}
	.st1{fill:#6486C4;}
</style>
<g id="icon">
	<path class="st0" d="M12.3,15.4H3.6c-1.7,0-3.1-1.4-3.1-3.1V3.6c0-1.7,1.4-3.1,3.1-3.1h8.8c1.7,0,3.1,1.4,3.1,3.1v8.8
		C15.4,14,14,15.4,12.3,15.4z"/>
	<path class="st1" d="M0,12.4V3.6C0,1.6,1.6,0,3.6,0h8.8c2,0,3.6,1.6,3.6,3.6v8.8c0,2-1.6,3.6-3.6,3.6H3.6C1.6,16,0,14.4,0,12.4z
		 M1.1,3.6v8.8c0,1.4,1.1,2.5,2.5,2.5h8.8c1.4,0,2.5-1.1,2.5-2.5V3.6c0-1.4-1.1-2.5-2.5-2.5H3.6C2.2,1.1,1.1,2.2,1.1,3.6z"/>
	<path class="st1" d="M11,12.5H5l0-1.4c0-0.6,0.3-1.2,0.8-1.6l3.7-3.2c0.2-0.2,0.3-0.5,0.3-0.8C9.9,4.7,9,4,8,4C6.9,4,6.1,4.7,6,5.5
		l-1,0C5.1,4.1,6.4,3,8,3c1.6,0,2.9,1.1,2.9,2.5c0,0.7-0.3,1.2-0.6,1.5l0,0l-3.8,3.2C6.2,10.5,6,10.8,6,11.1l0,0.4h5V12.5z"/>
</g>
</svg>
