<?xml version="1.0" encoding="utf-8"?>
<!-- Generator: Adobe Illustrator 26.3.0, SVG Export Plug-In . SVG Version: 6.00 Build 0)  -->
<svg version="1.1" id="Layer_1" xmlns="http://www.w3.org/2000/svg" xmlns:xlink="http://www.w3.org/1999/xlink" x="0px" y="0px"
	 viewBox="0 0 16 16" style="enable-background:new 0 0 16 16;" xml:space="preserve">
<style type="text/css">
	.st0{opacity:0.5;fill:#FFFFFF;enable-background:new    ;}
	.st1{fill:#6486C4;}
</style>
<g id="icon">
	<path class="st0" d="M12.3,15.4H3.6c-1.7,0-3.1-1.4-3.1-3.1V3.6c0-1.7,1.4-3.1,3.1-3.1h8.8c1.7,0,3.1,1.4,3.1,3.1v8.8
		C15.4,14,14,15.4,12.3,15.4z"/>
	<path class="st1" d="M0,12.4V3.6C0,1.6,1.6,0,3.6,0h8.8c2,0,3.6,1.6,3.6,3.6v8.8c0,2-1.6,3.6-3.6,3.6H3.6C1.6,16,0,14.4,0,12.4z
		 M1.1,3.6v8.8c0,1.4,1.1,2.5,2.5,2.5h8.8c1.4,0,2.5-1.1,2.5-2.5V3.6c0-1.4-1.1-2.5-2.5-2.5H3.6C2.2,1.1,1.1,2.2,1.1,3.6z"/>
	<path class="st1" d="M8,6.8C7.1,6.8,6.5,7,6,7.4c0-1,0.1-2.1,0.8-2.8C7.4,4.1,8.3,3.9,9.7,4L10,4.1l0.2-1L9.9,3.1l0,0
		C8.1,2.9,6.9,3.2,6.1,3.9C5,4.9,5,6.5,5,7.7l0,1.8c0,0.1,0,0.3,0,0.4C5,11.4,5.8,13,8,13s3-1.6,3-3.1S10.2,6.8,8,6.8z M8,12
		c-1.7,0-2-1.3-2-2.1c0,0,0,0,0,0h0V9.5c0.1-0.8,0.5-1.8,2-1.8c1.7,0,2,1.3,2,2.1S9.7,12,8,12z"/>
</g>
</svg>
