<?xml version="1.0" encoding="utf-8"?>
<!-- Generator: Adobe Illustrator 26.3.0, SVG Export Plug-In . SVG Version: 6.00 Build 0)  -->
<svg version="1.1" id="Layer_1" xmlns="http://www.w3.org/2000/svg" xmlns:xlink="http://www.w3.org/1999/xlink" x="0px" y="0px"
	 viewBox="0 0 16 16" style="enable-background:new 0 0 16 16;" xml:space="preserve">
<style type="text/css">
	.st0{opacity:0.5;fill:#FFFFFF;enable-background:new    ;}
	.st1{fill:#9070B1;}
</style>
<g id="icon">
	<path class="st0" d="M12.3,15.4H3.6c-1.7,0-3.1-1.4-3.1-3.1V3.6c0-1.7,1.4-3.1,3.1-3.1h8.8c1.7,0,3.1,1.4,3.1,3.1v8.8
		C15.4,14,14,15.4,12.3,15.4z"/>
	<path class="st1" d="M0,12.4V3.6C0,1.6,1.6,0,3.6,0h8.8c2,0,3.6,1.6,3.6,3.6v8.8c0,2-1.6,3.6-3.6,3.6H3.6C1.6,16,0,14.4,0,12.4z
		 M1.1,3.6v8.8c0,1.4,1.1,2.5,2.5,2.5h8.8c1.4,0,2.5-1.1,2.5-2.5V3.6c0-1.4-1.1-2.5-2.5-2.5H3.6C2.2,1.1,1.1,2.2,1.1,3.6z"/>
	<path class="st1" d="M7.8,12.7H4.5V3.3h3.3c0.6,0,1.2,0.1,1.8,0.3c0.5,0.2,1,0.5,1.4,0.9c0.4,0.4,0.7,0.9,0.9,1.5
		c0.2,0.6,0.3,1.2,0.3,1.9c0,0.7-0.1,1.4-0.3,1.9c-0.2,0.6-0.5,1.1-0.9,1.5c-0.4,0.4-0.9,0.7-1.4,0.9C9.1,12.6,8.5,12.7,7.8,12.7z
		 M5.5,11.7h2.3c0.5,0,1-0.1,1.4-0.2c0.4-0.2,0.8-0.4,1-0.7c0.3-0.3,0.5-0.7,0.7-1.1c0.2-0.5,0.3-1,0.3-1.6S11.1,6.9,11,6.4
		c-0.2-0.5-0.4-0.8-0.7-1.1c-0.3-0.3-0.6-0.5-1-0.7C8.8,4.4,8.3,4.3,7.8,4.3H5.5V11.7z"/>
</g>
</svg>
