<?xml version="1.0" encoding="utf-8"?>
<!-- Generator: Adobe Illustrator 26.3.0, SVG Export Plug-In . SVG Version: 6.00 Build 0)  -->
<svg version="1.1" id="Layer_1" xmlns="http://www.w3.org/2000/svg" xmlns:xlink="http://www.w3.org/1999/xlink" x="0px" y="0px"
	 viewBox="0 0 16 16" style="enable-background:new 0 0 16 16;" xml:space="preserve">
<style type="text/css">
	.st0{fill:#9171B2;}
	.st1{opacity:0.5;fill:#FFFFFF;enable-background:new    ;}
</style>
<g id="icon">
	<path class="st0" d="M12.4,0H3.6C1.6,0,0,1.6,0,3.6v8.9c0,2,1.6,3.6,3.6,3.6h8.9c2,0,3.6-1.6,3.6-3.6V3.6C16,1.6,14.4,0,12.4,0z
		 M8.9,10.1c-0.2,0.6-0.6,1.2-1,1.6c-0.4,0.4-0.9,0.8-1.5,1C5.9,12.9,5.3,13,4.6,13H2.1V3h2.5c0.7,0,1.3,0.1,1.9,0.3
		c0.6,0.2,1.1,0.6,1.5,1c0.4,0.4,0.7,1,1,1.6C9.2,6.5,9.3,7.2,9.3,8C9.3,8.8,9.2,9.5,8.9,10.1z M14.4,8.5h-1.6v1.6h-1.1V8.5h-1.6
		V7.5h1.6V5.9h1.1v1.6h1.6V8.5z M7.9,6.3C8.1,6.8,8.2,7.4,8.2,8S8.1,9.2,7.9,9.7c-0.2,0.5-0.4,0.9-0.7,1.2c-0.3,0.3-0.7,0.6-1.1,0.8
		C5.6,11.9,5.1,12,4.6,12H3.2V4h1.4c0.5,0,1,0.1,1.5,0.3c0.4,0.2,0.8,0.4,1.1,0.8C7.5,5.4,7.8,5.8,7.9,6.3z"/>
	<path class="st1" d="M8,4.3c-0.4-0.4-0.9-0.8-1.5-1C5.9,3.1,5.3,3,4.6,3H2.1V13h2.5c0.7,0,1.3-0.1,1.9-0.3c0.6-0.2,1.1-0.6,1.5-1
		c0.4-0.4,0.7-1,1-1.6C9.2,9.5,9.3,8.8,9.3,8c0-0.8-0.1-1.5-0.3-2.1C8.7,5.3,8.4,4.8,8,4.3z M7.9,9.7c-0.2,0.5-0.4,0.9-0.7,1.2
		c-0.3,0.3-0.7,0.6-1.1,0.8C5.6,11.9,5.1,12,4.6,12H3.2V4h1.4c0.5,0,1,0.1,1.5,0.3c0.4,0.2,0.8,0.4,1.1,0.8c0.3,0.3,0.6,0.7,0.7,1.2
		C8.1,6.8,8.2,7.4,8.2,8C8.2,8.6,8.1,9.2,7.9,9.7z M14.4,8.5h-1.6v1.6h-1.1V8.5h-1.6V7.5h1.6V5.9h1.1v1.6h1.6V8.5z"/>
</g>
</svg>
