<?xml version="1.0" encoding="utf-8"?>
<!-- Generator: Adobe Illustrator 26.3.0, SVG Export Plug-In . SVG Version: 6.00 Build 0)  -->
<svg version="1.1" id="Layer_1" xmlns="http://www.w3.org/2000/svg" xmlns:xlink="http://www.w3.org/1999/xlink" x="0px" y="0px"
	 viewBox="0 0 16 16" style="enable-background:new 0 0 16 16;" xml:space="preserve">
<style type="text/css">
	.st0{opacity:0.5;fill:#FFFFFF;enable-background:new    ;}
	.st1{fill:#9070B1;}
</style>
<g id="icon">
	<path class="st0" d="M15.5,15.3c-0.1-1.1-0.4-2.1-1-3c-0.6-0.8-1.5-1.6-2.5-2.3c-0.1,0-0.2-0.1-0.2-0.1c0.1-0.1,0.1-0.1,0.1-0.2
		c-0.1-0.1-0.2-0.1-0.4-0.2l-0.2-0.1c0,0.1-0.1,0.1-0.1,0.2c-0.3-0.1-0.5-0.2-0.7-0.4c0,0,0,0,0-0.1c0,0,0,0,0,0l-0.1,0h-0.1
		c-0.8-0.5-1.1-0.9,0.6-1.5c0.8-0.3,0.8-1.3,0.8-2.6C11.4,1.3,9.4,0.4,8,0.4c-2.1,0-3.4,0.9-3.6,4.8c0,1.2-0.3,2.4,0.4,2.7
		c1.9,0.7,2,0.9,0.9,1.4H5.6l-0.1,0c0,0,0,0,0,0C5.3,9.4,5,9.6,4.7,9.7c0,0-0.1-0.1-0.1-0.1l-0.1,0C4.4,9.7,4.3,9.7,4.1,9.8
		c0,0,0.1,0.1,0.1,0.1C4.2,9.9,4.1,10,4,10c-2.6,1.5-3.4,4-3.5,5.3l0,0.1h15L15.5,15.3z"/>
	<path class="st1" d="M12.1,4.6C11.6,0.8,10.5,0,8,0h0C5.5,0,4.4,0.8,3.9,4.6c-0.4,2.9-0.1,4,1.8,4C6.2,9.4,7.2,10,8,10
		c0.8,0,1.8-0.6,2.3-1.4C12.2,8.6,12.5,7.5,12.1,4.6z M8,9C6.6,9,5.4,7.3,5.4,4.1c0-1.4,2.8,0.2,3.7,0.2c1.5,0,1.7-1.5,1.7-0.5
		C10.7,5.9,9.8,9,8,9z"/>
	<path class="st1" d="M4.7,9.6l0.7-0.2l0.1,0C5.6,9.5,5.8,9.7,6.2,10c0.4,0.2,0.8,0.4,1.1,0.5c0.2,0.1,0.5,0.2,0.5,0.2c0,0,0,0,0,0
		c0,0,0,0,0,0c0,0.1-0.1,0.2-0.2,0.3c-0.3,0.5-0.6,0.8-0.8,1c-0.2,0.3-0.3,0.3-0.3,0.3c0,0-0.1,0-0.4-0.4c-0.2-0.3-0.5-0.8-0.9-1.4
		l-0.1-0.1C5,10.1,4.8,9.8,4.7,9.6z M16,15.3c-0.1-1.5-0.8-4.1-4.2-5.6c-0.2,0.2-0.4,0.5-0.6,1c-0.1,0.2-0.2,0.4-0.3,0.6
		c-0.7,1.2-0.9,1.6-1.4,1.6c0,0,0,0,0,0c-0.4,0-0.7-0.4-1.3-1.3L8,11.4c-0.7,1-1,1.5-1.5,1.5c0,0,0,0,0,0c-0.5,0-0.9-0.6-1.7-2.1
		l-0.1-0.1C4.5,10.3,4.3,10,4.1,9.8c-3.3,1.5-4,4.1-4.1,5.5l0,0.4C0,15.9,0.1,16,0.3,16h15.5c0.1,0,0.3-0.1,0.3-0.3L16,15.3z
		 M8.5,11.1l0.2,0.2c0.4,0.5,0.7,1,0.8,1.1c0.2-0.1,0.5-0.7,0.9-1.3c0.1-0.2,0.2-0.4,0.3-0.6c0.2-0.4,0.4-0.7,0.6-0.9l-0.6-0.2
		l-0.2-0.1c0,0,0,0,0,0c-0.2,0.2-0.4,0.4-0.8,0.7c-0.4,0.2-0.7,0.4-0.9,0.5c-0.2,0.1-0.4,0.2-0.4,0.2c0,0,0,0,0,0c0,0,0,0,0,0
		C8.3,10.8,8.4,10.9,8.5,11.1z"/>
</g>
</svg>
