<?xml version="1.0" encoding="utf-8"?>
<!-- Generator: Adobe Illustrator 26.3.0, SVG Export Plug-In . SVG Version: 6.00 Build 0)  -->
<svg version="1.1" id="Layer_1" xmlns="http://www.w3.org/2000/svg" xmlns:xlink="http://www.w3.org/1999/xlink" x="0px" y="0px"
	 viewBox="0 0 16 16" style="enable-background:new 0 0 16 16;" xml:space="preserve">
<style type="text/css">
	.st0{fill:#52B4C0;}
	.st1{opacity:0.5;fill:#FFFFFF;enable-background:new    ;}
</style>
<g id="icon">
	<path class="st0" d="M8,0C3.6,0,0,3.2,0,7.1c0,1.9,0.9,3.8,2.5,5.1c-0.2,0.8-0.7,2.3-0.9,2.9l-0.3,1l1-0.3c0.4-0.1,4-1.3,4.8-1.6
		c0.3,0,0.6,0,1,0c4.4,0,8-3.2,8-7.1C16,3.2,12.4,0,8,0z M8,11.3c-0.4,0-0.7-0.3-0.7-0.7S7.6,9.8,8,9.8c0.4,0,0.7,0.3,0.7,0.7
		S8.4,11.3,8,11.3z M10.6,6.2c-0.1,0.3-0.3,0.6-0.5,0.8C9.9,7.2,9.7,7.4,9.4,7.5C9.3,7.7,9.1,7.8,8.9,7.9C8.8,8,8.7,8.1,8.6,8.2
		c0,0,0,0,0,0l0,0.9H7.4l0-0.9c0-0.3,0.1-0.6,0.3-0.8C7.9,7.3,8,7.1,8.2,7c0.2-0.1,0.3-0.3,0.5-0.4c0.2-0.1,0.3-0.2,0.4-0.4
		c0.1-0.1,0.2-0.3,0.3-0.5c0.1-0.2,0.1-0.4,0.1-0.6c0-0.2,0-0.4-0.1-0.5C9.4,4.5,9.3,4.3,9.2,4.2C9,4.1,8.9,4,8.7,4
		C8.5,3.9,8.3,3.9,8.1,3.9c-0.2,0-0.4,0-0.5,0.1C7.4,4,7.3,4,7.2,4.1C7,4.1,6.9,4.2,6.8,4.3C6.7,4.4,6.4,4.6,6.3,4.7l0,0L5.5,4l0,0
		c0.1-0.1,0.4-0.4,0.6-0.5C6.3,3.3,6.4,3.1,6.6,3c0.2-0.1,0.4-0.2,0.7-0.2c0.2-0.1,0.5-0.1,0.8-0.1c0.3,0,0.7,0.1,1,0.2
		C9.4,3,9.7,3.1,9.9,3.3c0.3,0.2,0.5,0.5,0.6,0.8c0.2,0.3,0.2,0.7,0.2,1C10.8,5.5,10.7,5.9,10.6,6.2z"/>
	<path class="st1" d="M8,11.3c-0.4,0-0.7-0.3-0.7-0.7S7.6,9.8,8,9.8c0.4,0,0.7,0.3,0.7,0.7S8.4,11.3,8,11.3z M7.4,9.2l0-0.9
		c0-0.3,0.1-0.6,0.3-0.8C7.9,7.3,8,7.1,8.2,7c0.2-0.1,0.3-0.3,0.5-0.4c0.2-0.1,0.3-0.2,0.4-0.4c0.1-0.1,0.2-0.3,0.3-0.5
		c0.1-0.2,0.1-0.4,0.1-0.6c0-0.2,0-0.4-0.1-0.5C9.4,4.5,9.3,4.3,9.2,4.2C9,4.1,8.9,4,8.7,4C8.5,3.9,8.3,3.9,8.1,3.9
		c-0.2,0-0.4,0-0.5,0.1C7.4,4,7.3,4,7.2,4.1C7,4.1,6.9,4.2,6.8,4.3C6.7,4.4,6.4,4.6,6.3,4.7l0,0L5.5,4l0,0c0.1-0.1,0.4-0.4,0.6-0.5
		C6.3,3.3,6.4,3.1,6.6,3c0.2-0.1,0.4-0.2,0.7-0.2c0.2-0.1,0.5-0.1,0.8-0.1c0.3,0,0.7,0.1,1,0.2C9.4,3,9.7,3.1,9.9,3.3
		c0.3,0.2,0.5,0.5,0.6,0.8c0.2,0.3,0.2,0.7,0.2,1c0,0.4-0.1,0.8-0.2,1.1c-0.1,0.3-0.3,0.6-0.5,0.8C9.9,7.2,9.7,7.4,9.4,7.5
		C9.3,7.7,9.1,7.8,8.9,7.9C8.8,8,8.7,8.1,8.6,8.2c0,0,0,0,0,0l0,0.9L7.4,9.2L7.4,9.2z"/>
</g>
</svg>
