<?xml version="1.0" encoding="utf-8"?>
<!-- Generator: Adobe Illustrator 26.3.0, SVG Export Plug-In . SVG Version: 6.00 Build 0)  -->
<svg version="1.1" id="Layer_1" xmlns="http://www.w3.org/2000/svg" xmlns:xlink="http://www.w3.org/1999/xlink" x="0px" y="0px"
	 viewBox="0 0 16 16" style="enable-background:new 0 0 16 16;" xml:space="preserve">
<style type="text/css">
	.st0{opacity:0.5;fill:#FFFFFF;enable-background:new    ;}
	.st1{fill:#6D6E71;}
</style>
<g id="icon">
	<path class="st0" d="M11.5,2C11.8,2,12,2.2,12,2.5S11.8,3,11.5,3S11,2.8,11,2.5S11.2,2,11.5,2z M6,2.3v0.4C6,2.9,6.1,3,6.3,3h3.4
		C9.9,3,10,2.9,10,2.7V2.3C10,2.1,9.9,2,9.7,2H6.3C6.1,2,6,2.1,6,2.3z M4,2.5C4,2.8,4.2,3,4.5,3S5,2.8,5,2.5S4.8,2,4.5,2
		S4,2.2,4,2.5z M2.5,6.6V4.4c0-0.5,0.4-0.9,0.9-0.9h9.3c0.5,0,0.9,0.4,0.9,0.9v2.3c0,0.5-0.4,0.9-0.9,0.9H3.4
		C2.9,7.5,2.5,7.1,2.5,6.6z M8.5,6.5h4v-2h-4V6.5z M3.5,6.5h4v-2h-4V6.5z M11,8.6C10.9,8.3,10.6,8,10.2,8H5.8C5.4,8,5.1,8.2,5,8.6
		L4.8,9H1v1h3.9c0.4,0,0.7-0.2,0.8-0.6L5.9,9h4.2l0.1,0.4C10.3,9.7,10.6,10,11,10h4V9h-3.9L11,8.6z M3.8,10.4
		c-0.4,0-0.8,0.4-0.8,0.8S3.4,12,3.8,12s0.8-0.4,0.8-0.8S4.2,10.4,3.8,10.4z M12.2,10.4c-0.4,0-0.8,0.4-0.8,0.8s0.4,0.8,0.8,0.8
		s0.8-0.4,0.8-0.8S12.6,10.4,12.2,10.4z M6.8,11h2.4c0.3,0,0.5-0.2,0.5-0.5S9.5,10,9.2,10H6.8c-0.3,0-0.5,0.2-0.5,0.5S6.5,11,6.8,11
		z M6.8,12.5h2.4c0.3,0,0.5-0.2,0.5-0.5s-0.2-0.5-0.5-0.5H6.8c-0.3,0-0.5,0.2-0.5,0.5S6.5,12.5,6.8,12.5z"/>
	<path class="st1" d="M14,14.5V15c0,0.6-0.5,1-1,1h-1c-0.6,0-1-0.5-1-1v-0.5H14z M2,14.5V15c0,0.6,0.5,1,1,1h1c0.6,0,1-0.5,1-1v-0.5
		H2z M3.5,6.5h4v-2h-4V6.5z M11,10h4v2.8c0,0.6-0.4,1.1-1,1.2v0h-3H5H2v0c-0.6,0-1-0.5-1-1.2V10h3.9c0.4,0,0.7-0.2,0.8-0.6L5.9,9
		h4.2l0.1,0.4C10.3,9.7,10.6,10,11,10z M4.6,11.2c0-0.4-0.4-0.8-0.8-0.8S3,10.8,3,11.2S3.4,12,3.8,12S4.6,11.6,4.6,11.2z M9.7,12
		c0-0.3-0.2-0.5-0.5-0.5H6.8c-0.3,0-0.5,0.2-0.5,0.5s0.2,0.5,0.5,0.5h2.4C9.5,12.5,9.7,12.3,9.7,12z M9.7,10.5
		c0-0.3-0.2-0.5-0.5-0.5H6.8c-0.3,0-0.5,0.2-0.5,0.5S6.5,11,6.8,11h2.4C9.5,11,9.7,10.8,9.7,10.5z M11.4,11.2c0,0.4,0.4,0.8,0.8,0.8
		s0.8-0.4,0.8-0.8s-0.4-0.8-0.8-0.8S11.4,10.8,11.4,11.2z M8.5,6.5h4v-2h-4V6.5z M15,5.4V9h-3.9L11,8.6C10.9,8.3,10.6,8,10.2,8H5.8
		C5.4,8,5.1,8.2,5,8.6L4.8,9H1V5.3c0-1,0-1.6,0-1.9c0-0.6,0-0.6,0-0.7c0.1-0.4,0.4-0.8,0.8-1.1c0.6-0.5,1.3-0.8,2.4-1.1
		C5.2,0.2,6,0.1,7.1,0c0.3,0,1.4,0,1.7,0c1.8,0.1,2.9,0.4,4.1,0.9c0.8,0.3,1.2,0.6,1.5,0.9c0.2,0.2,0.3,0.4,0.4,0.6
		C15,2.6,15,2.7,15,5.4L15,5.4z M11,2.5C11,2.8,11.2,3,11.5,3S12,2.8,12,2.5S11.8,2,11.5,2S11,2.2,11,2.5z M6,2.7C6,2.9,6.1,3,6.3,3
		h3.4C9.9,3,10,2.9,10,2.7V2.3C10,2.1,9.9,2,9.7,2H6.3C6.1,2,6,2.1,6,2.3V2.7z M4,2.5C4,2.8,4.2,3,4.5,3S5,2.8,5,2.5S4.8,2,4.5,2
		S4,2.2,4,2.5z M13.5,4.4c0-0.5-0.4-0.9-0.9-0.9H3.4c-0.5,0-0.9,0.4-0.9,0.9v2.3c0,0.5,0.4,0.9,0.9,0.9h9.3c0.5,0,0.9-0.4,0.9-0.9
		L13.5,4.4L13.5,4.4z"/>
</g>
</svg>
