<?xml version="1.0" encoding="utf-8"?>
<!-- Generator: Adobe Illustrator 26.3.0, SVG Export Plug-In . SVG Version: 6.00 Build 0)  -->
<svg version="1.1" id="Layer_1" xmlns="http://www.w3.org/2000/svg" xmlns:xlink="http://www.w3.org/1999/xlink" x="0px" y="0px"
	 viewBox="0 0 16 16" style="enable-background:new 0 0 16 16;" xml:space="preserve">
<style type="text/css">
	.st0{opacity:0.5;fill:#FFFFFF;enable-background:new    ;}
	.st1{fill:#6E6F72;}
	.st2{fill:#CC525E;}
	.st3{fill:#15AB4D;}
	.st4{fill:#EEAD56;}
	.st5{fill:#6486C4;}
</style>
<g id="icon">
	<path class="st0" d="M9.2,12.2c-0.2-0.2-0.4-0.5-0.4-0.6c-0.4-0.5-0.5-1.1-0.5-1.6C8.4,9.5,8.6,9.1,9,8.9c0.2-0.1,0.2-0.1,1.2-0.5
		c0.4-0.1,0.7-0.2,1-0.3c0-0.1,0-0.2,0.1-0.3c0-0.2,0.1-0.6,0.2-0.9c0-0.2,0.1-0.5,0.1-0.6c0-0.2,0.1-0.3,0.3-0.5l0.1-0.1
		c0,0,0,0,0,0c-0.2-0.6-0.2-1.3,0-1.9c0.1-0.2,0.2-0.3,0.3-0.5c-0.3-0.7-0.6-1.1-1-1.6c-0.7-0.7-1.6-1.1-2.8-1.3c-0.2,0-1,0-1.2,0
		C6.2,0.6,5.3,0.8,4.4,1.3C3.6,1.7,2.6,2.5,2,3.1C1.7,3.5,1.4,3.9,1.2,4.3c-0.3,0.6-0.5,1.2-0.6,2c0,0.2,0,0.3,0,0.8
		c0,0.5,0,0.6,0,0.8c0.2,1.7,1,3.2,2.2,4.4c1.3,1.3,2.8,2.1,4.4,2.2c0.3,0,1,0,1.2,0c0.6-0.1,1.1-0.3,1.4-0.6
		C10,13.6,10,13.3,9.8,13C9.7,12.9,9.7,12.8,9.2,12.2z"/>
	<path class="st1" d="M7.6,15c-0.3,0-0.5,0-0.6,0c-1.7-0.2-3.3-1-4.6-2.4c-1.3-1.3-2-2.9-2.3-4.6c0-0.2,0-0.4,0-0.9s0-0.6,0-0.8
		c0.1-0.8,0.3-1.5,0.6-2.1c0.2-0.5,0.5-0.9,0.9-1.3c0.6-0.7,1.6-1.5,2.5-1.9C5,0.4,6,0.1,6.9,0c0.2,0,0.4,0,0.5,0c0.3,0,0.6,0,0.8,0
		c1.3,0.2,2.3,0.7,3,1.4c0.4,0.5,0.7,0.9,1,1.6l0.1,0.1l-0.1,0.1C12.1,3.4,12,3.6,12,3.7L11.8,4l-0.2-0.5c-0.3-0.7-0.5-1.1-0.9-1.5
		c-0.6-0.6-1.5-1-2.5-1.2c-0.1,0-0.4,0-0.7,0c-0.2,0-0.4,0-0.4,0C6.2,1,5.3,1.3,4.5,1.7C3.7,2.1,2.8,2.8,2.2,3.4
		C1.9,3.8,1.7,4.2,1.5,4.5C1.2,5.1,1,5.7,0.9,6.4c0,0.2,0,0.2,0,0.7s0,0.5,0,0.7c0.2,1.6,0.9,3,2,4.1c1.2,1.2,2.6,1.9,4.1,2.1
		c0.1,0,0.3,0,0.5,0c0.3,0,0.5,0,0.6,0c0.5-0.1,0.9-0.2,1.1-0.5c0.1-0.1,0.1-0.2,0-0.3c0-0.1-0.1-0.2-0.5-0.7
		c-0.2-0.2-0.4-0.5-0.4-0.6c-0.4-0.6-0.6-1.3-0.5-1.9c0.1-0.7,0.3-1.2,0.8-1.5C8.8,8.3,8.9,8.3,9.9,8c0.4-0.2,0.8-0.3,1.1-0.3
		l0.3-0.1l-0.1,0.3c0,0.1,0,0.3-0.1,0.5l0,0.1l-0.1,0c-0.2,0.1-0.5,0.2-0.8,0.3c-0.9,0.3-0.9,0.3-1,0.4c-0.2,0.2-0.4,0.4-0.4,0.8
		c0,0.5,0.1,0.9,0.4,1.3c0.1,0.1,0.2,0.3,0.4,0.6c0.4,0.6,0.5,0.7,0.6,0.8c0.3,0.5,0.2,1-0.2,1.4c-0.4,0.4-0.9,0.6-1.6,0.7
		C8.2,15,7.8,15,7.6,15z"/>
	<path class="st2" d="M4.5,11.6c-0.6,0-1.2-0.4-1.5-0.9C2.7,10,2.8,9.3,3.2,8.7c0.3-0.4,0.9-0.7,1.4-0.7c0.1,0,0.2,0,0.3,0
		C5.7,8.3,6.3,9,6.3,9.8c0,0.9-0.7,1.7-1.6,1.8C4.6,11.6,4.6,11.6,4.5,11.6z"/>
	<path class="st3" d="M4.1,7.1c-0.6,0-1.2-0.4-1.5-0.9C2.3,5.5,2.4,4.8,2.8,4.2c0.3-0.4,0.9-0.7,1.4-0.7c0.1,0,0.2,0,0.3,0
		c0.8,0.2,1.4,0.9,1.4,1.7c0,0.9-0.7,1.7-1.6,1.8C4.2,7.1,4.2,7.1,4.1,7.1z"/>
	<path class="st4" d="M8.7,5.8c-0.6,0-1.2-0.4-1.5-0.9C6.9,4.2,7,3.5,7.4,2.9c0.3-0.4,0.9-0.7,1.4-0.7c0.1,0,0.2,0,0.3,0
		c0.8,0.2,1.4,0.9,1.4,1.7c0,0.9-0.7,1.7-1.6,1.8C8.8,5.8,8.8,5.8,8.7,5.8z"/>
	<path class="st0" d="M14.5,7.1c-0.2,0,0.1-0.7-0.1-0.7L14,6.5c-0.8-0.3-0.9-0.7-1.5,0.1c0,0-0.1,0.1-0.1,0.2c0,0-0.1,0.3-0.1,0.6
		c0,0.3-0.1,0.7-0.2,0.9c-0.1,0.4-0.2,1.4-0.9,5.5C11,15.3,11,15.3,11,15.4c0.1,0.1,0.2,0.2,0.4,0.2c0.2,0,0.3-0.1,0.4-0.2
		c0-0.1,0.2-0.5,0.4-1.1c0.4-1.2,0.6-1.7,1.1-3.3c0.6-1.7,0.8-2.4,1.1-3.2C14.5,7.3,14.5,7.3,14.5,7.1C14.5,7.1,14.5,7.1,14.5,7.1z"
		/>
	<path class="st1" d="M11.4,16C11.4,16,11.4,16,11.4,16c-0.4,0-0.6-0.2-0.8-0.5c-0.1-0.2-0.1-0.2,0.2-1.8l0,0
		c0.7-4.2,0.9-5.1,0.9-5.5c0-0.2,0.1-0.6,0.2-0.9c0,0,0.1-0.5,0.1-0.6c0-0.1,0.5-0.8,0.6-0.9l0.1-0.1l0.1,0.1
		c0.1,0.1,0.2,0.2,0.4,0.3l0.1,0.1l-0.1,0.1c0,0.1-0.3,0.5-0.4,0.6c0,0-0.1,0.3-0.1,0.5c-0.1,0.3-0.1,0.7-0.2,0.9
		c-0.1,0.3-0.2,1.2-0.9,5.5l0,0c-0.1,0.8-0.2,1.3-0.2,1.4c0,0,0,0,0,0c0,0,0,0,0,0c0,0,0,0,0,0c0-0.1,0.1-0.4,0.3-1
		c0.4-1.2,0.6-1.7,1.1-3.3c0.6-1.7,0.8-2.4,1.1-3.2c0.1-0.4,0.1-0.4,0.1-0.5c0,0,0-0.4,0-0.6c0-0.1,0-0.1,0-0.1l0-0.1l0.1,0
		c0.2,0,0.3-0.1,0.5-0.1l0.1-0.1l0,0.1c0,0.1,0.1,0.8,0.1,0.9c0,0.2,0,0.2-0.2,0.7c-0.3,0.9-0.5,1.5-1.1,3.3
		c-0.5,1.6-0.7,2.1-1.1,3.3c-0.3,0.9-0.4,1.1-0.4,1.2C12,15.9,11.7,16,11.4,16z"/>
	<path class="st5" d="M14,6.8c-0.7,0-1.3-0.4-1.5-0.9c-0.2-0.5-0.2-1.2,0-1.6c0.2-0.3,0.3-0.5,0.8-0.9c0.5-0.5,0.6-0.6,0.8-1
		c0.2-0.3,0.3-0.7,0.4-1.1c0-0.2,0.1-0.4,0.3-0.5c0.1-0.1,0.2-0.1,0.3-0.1c0,0,0,0,0,0l0.4,0l0.1,0.6C15.9,2.2,16,2.6,16,3.3
		c0,1-0.1,1.9-0.5,2.5C15.1,6.4,14.6,6.8,14,6.8L14,6.8L14,6.8z"/>
</g>
</svg>
