<?xml version="1.0" encoding="utf-8"?>
<!-- Generator: Adobe Illustrator 26.3.0, SVG Export Plug-In . SVG Version: 6.00 Build 0)  -->
<svg version="1.1" id="Layer_1" xmlns="http://www.w3.org/2000/svg" xmlns:xlink="http://www.w3.org/1999/xlink" x="0px" y="0px"
	 viewBox="0 0 16 16" style="enable-background:new 0 0 16 16;" xml:space="preserve">
<style type="text/css">
	.st0{opacity:0.5;fill:#FFFFFF;enable-background:new    ;}
	.st1{fill:#6E6F72;}
	.st2{fill:#9070B1;}
</style>
<g id="icon">
	<polygon class="st0" points="14.5,3.5 12.5,1.5 1.5,1.5 1.5,14.5 14.5,14.5 	"/>
	<path class="st1" d="M15,4V3.3L12.7,1H12V0h-1v1h-1V0H9v1H8V0H7v1H6V0H5v1H4V0H3v1H1v3H0v1h1v1H0v1h1v1H0v1h1v1H0v1h1v1H0v1h1v2h2
		v1h1v-1h1v1h1v-1h1v1h1v-1h1v1h1v-1h1v1h1v-1h3v-2h1v-1h-1v-1h1v-1h-1V9h1V8h-1V7h1V6h-1V5h1V4H15z M14,14H2V2h10.3L14,3.7V14z"/>
	<circle class="st2" cx="11.5" cy="4.6" r="1.1"/>
</g>
</svg>
