<?xml version="1.0" encoding="utf-8"?>
<!-- Generator: Adobe Illustrator 26.3.0, SVG Export Plug-In . SVG Version: 6.00 Build 0)  -->
<svg version="1.1" id="Layer_1" xmlns="http://www.w3.org/2000/svg" xmlns:xlink="http://www.w3.org/1999/xlink" x="0px" y="0px"
	 viewBox="0 0 16 16" style="enable-background:new 0 0 16 16;" xml:space="preserve">
<style type="text/css">
	.st0{opacity:0.5;fill:#FFFFFF;enable-background:new    ;}
	.st1{fill:#6D6E71;}
	.st2{fill:#6485C3;}
</style>
<g id="icon">
	<path class="st0" d="M15.5,4.5v11h-13v-5.2c0.1,0,0.2,0,0.3,0c0.3,0,0.6-0.1,0.9-0.3l0,0l0,0.1C3.9,10.6,4.4,11,4.9,11
		c0,0,0.1,0,0.1,0l1.2-0.1c0.6-0.1,1.1-0.6,1.2-1.2l0-0.1l0.1,0.1C7.8,9.7,8,9.7,8.2,9.7l0,0c0.4,0,0.8-0.2,1-0.5l0.8-1
		c0.4-0.5,0.4-1.2,0-1.7L9.9,6.5l0.1,0c0.6-0.2,1-0.7,0.9-1.3l0.9-0.7V7L15.5,4.5z"/>
	<path class="st1" d="M12.4,6V3.6l-1.5,1.1l0,0.4c0,0.3,0,0.6-0.2,0.8l0.6-0.5V8L15,5.5V15H3v-4.7c-0.1,0-0.2,0-0.2,0
		c-0.3,0-0.5-0.1-0.8-0.2v6h14V3.5L12.4,6z"/>
	<path class="st1" d="M6.5,10.8V11H4v-0.5C4.2,10.8,4.6,11,4.9,11c0,0,0.1,0,0.1,0l1.2-0.1C6.4,10.8,6.4,10.8,6.5,10.8z"/>
	<path class="st1" d="M4,12h2.5v1H4V12z M7.5,13H10v-1H7.5V13z M7.5,11H10v-1H7.5V11z M11,10v1h2.5v-1H11z M11,13h2.5v-1H11V13z"/>
	<path class="st0" d="M9.6,4C9.6,4,9.5,4,9.6,4L8.3,3.9c0,0,0,0,0,0C8.2,3.6,8.1,3.3,7.9,3.1c0,0,0,0,0,0L8.5,2c0,0,0,0,0-0.1
		l-1-0.8c0,0,0,0-0.1,0L6.6,1.9c0,0,0,0-0.1,0C6.3,1.8,6,1.7,5.7,1.7c0,0,0,0,0,0L5.3,0.5c0,0,0,0-0.1,0L4.1,0.6c0,0,0,0,0,0
		L3.9,1.8c0,0,0,0,0,0C3.6,1.9,3.3,2.1,3.1,2.2c0,0,0,0,0,0L2,1.7c0,0,0,0-0.1,0l-0.8,1c0,0,0,0,0,0.1l0.8,0.9c0,0,0,0,0,0.1
		C1.8,3.9,1.7,4.2,1.7,4.5c0,0,0,0,0,0L0.6,4.9c0,0,0,0,0,0.1l0.1,1.2c0,0,0,0,0,0l1.1,0.1c0,0,0,0,0,0C2,6.6,2.1,6.9,2.3,7.1
		c0,0,0,0,0,0.1l-0.6,1c0,0,0,0,0,0.1l1,0.8c0,0,0,0,0.1,0l0.8-0.8c0,0,0,0,0,0C4,8.4,4.2,8.5,4.5,8.5c0,0,0,0,0,0l0.3,1.1
		c0,0,0,0,0.1,0l1.2-0.1c0,0,0,0,0,0l0.1-1.2c0,0,0,0,0,0c0.3-0.1,0.6-0.3,0.8-0.4c0,0,0,0,0.1,0l1,0.6c0,0,0,0,0.1,0l0.8-1
		c0,0,0,0,0-0.1L8.2,6.5c0,0,0,0,0-0.1C8.3,6.2,8.4,6,8.5,5.7c0,0,0,0,0,0l1.2-0.3c0,0,0,0,0-0.1L9.6,4z M5.8,6.1
		C5.2,6.5,4.5,6.4,4.2,5.9C3.8,5.4,3.9,4.7,4.4,4.3C4.9,3.9,5.6,4,6,4.5C6.3,5,6.3,5.7,5.8,6.1z"/>
	<path class="st2" d="M5.1,6.8c-0.1,0-0.1,0-0.2,0C4.5,6.7,4.1,6.5,3.8,6.2l0,0C3.3,5.5,3.4,4.5,4.1,4c0.3-0.3,0.8-0.4,1.2-0.3
		c0.4,0.1,0.8,0.3,1.1,0.6C6.9,5,6.7,5.9,6,6.5C5.8,6.7,5.4,6.8,5.1,6.8z M4.5,5.6C4.6,5.8,4.8,5.9,5,5.9c0.1,0,0.3,0,0.5-0.1
		c0.3-0.2,0.4-0.7,0.1-1C5.5,4.6,5.3,4.5,5.1,4.5c-0.1,0-0.3,0-0.5,0.1C4.3,4.9,4.3,5.3,4.5,5.6z M4.9,10.2c-0.2,0-0.4-0.1-0.5-0.4
		L4.2,8.9c-0.2,0-0.3-0.1-0.5-0.1L3.1,9.4c-0.2,0.2-0.5,0.2-0.6,0l-1-0.8C1.3,8.4,1.2,8.2,1.4,8l0.4-0.8C1.7,7,1.6,6.9,1.5,6.7
		L0.7,6.6c-0.2,0-0.4-0.2-0.5-0.4L0.1,5c0-0.2,0.1-0.5,0.4-0.5l0.9-0.3c0-0.2,0.1-0.3,0.1-0.5L0.9,3c-0.2-0.2-0.2-0.4,0-0.6l0.8-1
		C1.8,1.2,2,1.2,2.2,1.3l0.8,0.4c0.1-0.1,0.3-0.2,0.5-0.2l0.1-0.9c0-0.2,0.2-0.4,0.4-0.5L5.2,0c0.2,0,0.5,0.1,0.5,0.4L6,1.3
		c0.1,0,0.3,0.1,0.4,0.1l0.7-0.6c0.2-0.2,0.5-0.2,0.6,0l1,0.8C8.9,1.7,9,2,8.9,2.2L8.4,3c0.1,0.1,0.2,0.3,0.2,0.4l0.9,0.1
		C9.8,3.5,10,3.7,10,4l0.1,1.2c0,0.2-0.1,0.5-0.4,0.5L8.9,6c0,0.1-0.1,0.3-0.1,0.4l0.6,0.7c0.2,0.2,0.2,0.4,0,0.6l-0.8,1
		C8.5,8.9,8.2,9,8,8.9L7.2,8.4C7,8.5,6.9,8.6,6.7,8.6L6.7,9.5c0,0.2-0.2,0.4-0.4,0.5L4.9,10.2C5,10.2,5,10.2,4.9,10.2z M5.3,9.5
		L5.3,9.5C5.3,9.5,5.3,9.5,5.3,9.5z M3.7,7.8c0.1,0,0.1,0,0.2,0C4.1,8,4.4,8,4.6,8.1C4.8,8.1,5,8.2,5,8.4l0.2,0.8l0.6-0.1l0-0.8
		C5.8,8.1,6,8,6.2,7.9c0.2-0.1,0.5-0.2,0.7-0.4c0.2-0.1,0.4-0.1,0.5,0l0.7,0.4l0.3-0.4L7.9,6.8C7.8,6.7,7.8,6.5,7.8,6.3
		C7.9,6.1,8,5.8,8,5.6c0-0.2,0.2-0.3,0.3-0.4L9.2,5L9.2,4.4L8.3,4.3C8.1,4.3,8,4.2,7.9,4C7.8,3.8,7.7,3.5,7.5,3.3
		C7.4,3.2,7.4,3,7.5,2.8L7.9,2L7.5,1.7L6.9,2.2C6.7,2.4,6.5,2.4,6.3,2.3C6.1,2.2,5.9,2.1,5.6,2.1c-0.2,0-0.3-0.2-0.4-0.4L5,0.9
		L4.4,1l0,0.8c0,0.2-0.1,0.4-0.3,0.4C3.8,2.3,3.6,2.5,3.4,2.6C3.2,2.7,3,2.7,2.8,2.6L2.1,2.2L1.8,2.7l0.5,0.6
		c0.1,0.1,0.2,0.4,0.1,0.5C2.3,4.1,2.2,4.3,2.1,4.6C2.1,4.8,2,4.9,1.8,5L1,5.2l0.1,0.6l0.8,0c0.2,0,0.4,0.1,0.4,0.3
		c0.1,0.3,0.2,0.5,0.4,0.7c0.1,0.2,0.1,0.4,0,0.5L2.3,8.1l0.4,0.4l0.6-0.5C3.4,7.8,3.6,7.8,3.7,7.8z M3,8.7L3,8.7C3,8.7,3,8.7,3,8.7
		z M6.9,8.3C6.9,8.3,6.9,8.3,6.9,8.3L6.9,8.3z M7.4,8.3C7.4,8.3,7.4,8.3,7.4,8.3C7.4,8.3,7.4,8.3,7.4,8.3z M8.4,8.1L8.4,8.1
		C8.4,8.1,8.4,8.1,8.4,8.1z M2,7.9L2,7.9C2.1,7.9,2.1,7.9,2,7.9z M1.9,7.4C1.9,7.4,1.9,7.4,1.9,7.4C1.9,7.4,1.9,7.4,1.9,7.4z
		 M1.1,6.1L1.1,6.1C1.1,6.1,1.1,6.1,1.1,6.1z M9.5,4.9C9.5,4.9,9.5,4.9,9.5,4.9L9.5,4.9z M1.5,2.9L1.5,2.9C1.5,2.9,1.5,2.9,1.5,2.9z
		 M1.5,2.4L1.5,2.4C1.5,2.4,1.5,2.4,1.5,2.4z M6.1,1.5L6.1,1.5C6.1,1.5,6.1,1.5,6.1,1.5z M5.8,1.2C5.8,1.2,5.8,1.2,5.8,1.2
		C5.8,1.2,5.8,1.2,5.8,1.2z M4.5,0.6L4.5,0.6C4.5,0.6,4.5,0.6,4.5,0.6z"/>
</g>
</svg>
