<?xml version="1.0" encoding="utf-8"?>
<!-- Generator: Adobe Illustrator 26.3.0, SVG Export Plug-In . SVG Version: 6.00 Build 0)  -->
<svg version="1.1" id="Layer_1" xmlns="http://www.w3.org/2000/svg" xmlns:xlink="http://www.w3.org/1999/xlink" x="0px" y="0px"
	 viewBox="0 0 16 16" style="enable-background:new 0 0 16 16;" xml:space="preserve">
<style type="text/css">
	.st0{opacity:0.5;fill:#FFFFFF;enable-background:new    ;}
	.st1{fill:#6486C4;}
	.st2{fill:#6D6E71;}
	.st3{fill:#6E6F72;}
</style>
<g id="icon">
	<rect x="2.5" y="5.5" class="st0" width="11" height="9"/>
	<path class="st1" d="M3,5.5v9H2v-9H3z M4,5.5v9h1v-9H4z M6,5.5v9h1v-9H6z M9,5.5v9h1v-9H9z M11,5.5v9h1v-9H11z M13,5.5v9h1v-9H13z"
		/>
	<path class="st2" d="M8,0L0,4.7V6h16V4.7L8,0z M8,4.6c-0.7,0-1.2-0.5-1.2-1.2S7.3,2.2,8,2.2s1.2,0.5,1.2,1.2S8.7,4.6,8,4.6z"/>
	<polygon class="st3" points="15,15 15,14 1,14 1,15 0,15 0,16 1,16 15,16 16,16 16,15 	"/>
	<circle class="st0" cx="8" cy="3.4" r="1.2"/>
</g>
</svg>
