<?xml version="1.0" encoding="utf-8"?>
<!-- Generator: Adobe Illustrator 26.3.0, SVG Export Plug-In . SVG Version: 6.00 Build 0)  -->
<svg version="1.1" id="Layer_1" xmlns="http://www.w3.org/2000/svg" xmlns:xlink="http://www.w3.org/1999/xlink" x="0px" y="0px"
	 viewBox="0 0 16 16" style="enable-background:new 0 0 16 16;" xml:space="preserve">
<style type="text/css">
	.st0{fill:#6D6E71;}
	.st1{opacity:0.5;fill:#FFFFFF;enable-background:new    ;}
</style>
<g id="icon">
	<path class="st0" d="M15.7,6.6l-0.4-0.1c-0.1-0.4-0.2-0.7-0.2-1l-5.3,6.6c-0.2,0.3-0.6,0.5-1,0.5c0,0,0,0,0,0c-0.1,0-0.3,0-0.4-0.1
		c-0.3-0.1-6.2-2-7-2.2c-0.2-0.1-0.4-0.1-0.6-0.1c-0.2,0-0.3,0-0.3,0c-0.1,0-0.1,0-0.2,0c-0.1,0-0.2,0-0.3-0.1
		c-0.3,1.1,0.2,2.7,0.8,2.9c0.8,0.3,7.8,2.5,7.8,2.5c0.2,0.1,0.5,0,0.6-0.2l6.5-8.2C16.1,7,15.9,6.7,15.7,6.6z"/>
	<path class="st1" d="M6.6,5.3C6.5,5.3,6.5,5.2,6.5,5.1c0-0.2,0.1-0.3,0.4-0.6c0.1-0.1,0.3-0.4,0.4-0.5c0.3-0.4,0.4-0.4,0.6-0.5
		c0.1,0,0.1,0,0.2,0c0,0,0,0,0.1,0c0.1,0,0.2,0,0.6,0.1C8.9,3.7,9.5,3.9,9.9,4c1.9,0.5,2.2,0.6,2.3,0.6c0.2,0.1,0.3,0.2,0.3,0.3
		c0,0.1-0.1,0.2-0.2,0.4c-0.2,0.2-0.7,0.9-0.8,0.9c-0.1,0.1-0.3,0.2-0.5,0.2l-0.1,0l-0.3-0.1c-0.1,0-0.4-0.1-0.7-0.2l-0.2,0
		C9.4,6.1,8.8,6,8.4,5.9C7.1,5.6,6.8,5.5,6.7,5.5l0,0C6.7,5.4,6.6,5.4,6.6,5.3z M8.7,11.9c0,0-6.2-2-7-2.2c-0.5-0.2-1-0.1-1.3-0.1
		c0,0-0.1,0-0.1,0L0.2,9.8l-0.1,0.3c0.1,0.1,0.2,0.1,0.3,0.1c0.1,0,0.1,0,0.2,0c0,0,0.2,0,0.3,0c0.2,0,0.4,0,0.6,0.1
		c0.8,0.3,6.7,2.2,7,2.2c0.1,0,0.3,0.1,0.4,0.1c0,0,0,0,0,0c0.4,0,0.7-0.2,1-0.5l5.3-6.6c0-0.4,0.1-0.9,0.2-1.2l-6,7.4
		C9.2,11.9,8.9,12,8.7,11.9z"/>
	<path class="st0" d="M15.6,2.9L8.3,1.2c-0.3-0.1-0.5,0-0.7,0.2c0,0-6.1,6.8-7.2,8.1c0,0,0,0.1,0.1,0.1c0.3-0.1,0.7-0.1,1.3,0.1
		c0.8,0.3,7,2.2,7,2.2c0.2,0.1,0.5,0,0.6-0.2l6.5-8.1C16,3.4,15.9,3,15.6,2.9z M12.3,5.3c-0.2,0.2-0.7,0.9-0.8,0.9
		c-0.1,0.1-0.3,0.2-0.5,0.2l-0.1,0l-0.3-0.1c-0.1,0-0.4-0.1-0.7-0.2l-0.2,0C9.4,6.1,8.8,6,8.4,5.9C7.1,5.6,6.8,5.5,6.7,5.5l0,0
		c0,0-0.1-0.1-0.2-0.1C6.5,5.3,6.5,5.2,6.5,5.1c0-0.2,0.1-0.3,0.4-0.6c0.1-0.1,0.3-0.4,0.4-0.5c0.3-0.4,0.4-0.4,0.6-0.5
		c0.1,0,0.1,0,0.2,0c0,0,0,0,0.1,0c0.1,0,0.2,0,0.6,0.1C8.9,3.7,9.5,3.9,9.9,4c1.9,0.5,2.2,0.6,2.3,0.6c0.2,0.1,0.3,0.2,0.3,0.3
		C12.5,5.1,12.4,5.2,12.3,5.3z"/>
	<path class="st1" d="M10.5,6.4c-0.1,0-0.4-0.1-0.7-0.2l-0.2,0C9.4,6.1,8.8,6,8.4,5.9C7.1,5.6,6.8,5.5,6.7,5.5l0,0
		c0,0-0.1-0.1-0.2-0.1C6.5,5.3,6.5,5.2,6.5,5.1c0-0.2,0.1-0.3,0.4-0.6c0.1-0.1,0.3-0.4,0.4-0.5c0.3-0.4,0.4-0.4,0.6-0.5
		c0.1,0,0.1,0,0.2,0c0,0,0,0,0.1,0c0.1,0,0.2,0,0.6,0.1C8.9,3.7,9.5,3.9,9.9,4c1.9,0.5,2.2,0.6,2.3,0.6c0.2,0.1,0.3,0.2,0.3,0.3
		c0,0.1-0.1,0.2-0.2,0.4c-0.2,0.2-0.7,0.9-0.8,0.9c-0.1,0.1-0.3,0.2-0.5,0.2l-0.1,0L10.5,6.4z"/>
</g>
</svg>
