<?xml version="1.0" encoding="utf-8"?>
<!-- Generator: Adobe Illustrator 26.3.0, SVG Export Plug-In . SVG Version: 6.00 Build 0)  -->
<svg version="1.1" id="Layer_1" xmlns="http://www.w3.org/2000/svg" xmlns:xlink="http://www.w3.org/1999/xlink" x="0px" y="0px"
	 viewBox="0 0 16 16" style="enable-background:new 0 0 16 16;" xml:space="preserve">
<style type="text/css">
	.st0{fill:#6D6E71;}
	.st1{opacity:0.5;fill:#FFFFFF;enable-background:new    ;}
	.st2{fill:#6485C3;}
</style>
<g id="icon">
	<path class="st0" d="M12.4,6.8V4.4l-1.5,1.1c0,0,0,0,0,0.2c0,0,0,0,0,0.1c0,0,0,0,0,0c0,0.1-0.1,0.1-0.1,0.2h0
		c-0.2,0.3-0.4,0.5-0.8,0.6l-0.1,0L10,6.6c0.4,0.5,0.4,1.2,0,1.7l-0.8,1C9,9.5,8.6,9.7,8.2,9.7l0,0C8,9.7,7.8,9.7,7.6,9.6L7.5,9.5
		l0,0.1c0,0.6-0.5,1.1-1.2,1.2l-1.2,0.1c0,0-0.1,0-0.1,0c-0.6,0-1.1-0.4-1.2-0.9l0-0.1l0,0c-0.2,0.2-0.4,0.3-0.6,0.3
		c0,0-0.1,0-0.1,0c0,0,0,0,0,0c0,0-0.1,0-0.1,0c0,0-0.1,0-0.1,0c0,0,0,0,0,0c0,0-0.1,0-0.1,0c-0.2,0-0.4-0.1-0.5-0.2v6h14V4.3
		L12.4,6.8z M6.5,14H4v-1h2.5V14z M6.5,12H4v-1h2.5V12z M10,14H7.5v-1H10V14z M10,12H7.5v-1H10V12z M13.5,14H11v-1h2.5V14z M13.5,12
		H11v-1h2.5V12z"/>
	<path class="st1" d="M4,13h2.5v1H4V13z M7.5,14H10v-1H7.5V14z M7.5,12H10v-1H7.5V12z M4,12h2.5v-1H4V12z M11,11v1h2.5v-1H11z
		 M11,14h2.5v-1H11V14z"/>
	<path class="st2" d="M9.9,3.9C9.9,3.9,9.9,3.9,9.9,3.9L8.6,3.8c0,0,0,0,0,0C8.5,3.5,8.3,3.2,8.1,2.9c0,0,0,0,0-0.1l0.6-1.2
		c0,0,0,0,0-0.1l-1-0.8c0,0,0,0-0.1,0l-1,0.9c0,0,0,0-0.1,0C6.3,1.5,6.1,1.4,5.8,1.4c0,0,0,0,0,0L5.3,0.1c0,0,0,0-0.1,0L4,0.2
		c0,0,0,0,0,0L3.8,1.5c0,0,0,0,0,0C3.5,1.7,3.2,1.8,2.9,2c0,0,0,0-0.1,0L1.8,1.4c0,0,0,0-0.1,0L0.9,2.5c0,0,0,0,0,0.1l0.8,0.9
		c0,0,0,0,0,0.1C1.6,3.8,1.5,4.1,1.4,4.4c0,0,0,0,0,0L0.2,4.8c0,0,0,0,0,0.1l0.1,1.3c0,0,0,0,0,0l1.2,0.1c0,0,0,0,0,0
		C1.7,6.7,1.9,7,2.1,7.3c0,0,0,0,0,0.1L1.5,8.5c0,0,0,0,0,0.1l1,0.8c0,0,0,0,0.1,0l0.9-0.8c0,0,0,0,0.1,0c0.3,0.1,0.6,0.2,0.9,0.3
		c0,0,0,0,0,0l0.4,1.2c0,0,0,0,0.1,0L6.3,10c0,0,0,0,0,0l0.1-1.3c0,0,0,0,0,0C6.7,8.5,7,8.3,7.3,8.1c0,0,0,0,0.1,0l1.1,0.6
		c0,0,0,0,0.1,0l0.8-1.1c0,0,0,0,0-0.1l-0.8-1c0,0,0,0,0-0.1C8.6,6.3,8.7,6,8.8,5.7c0,0,0,0,0,0l1.3-0.4c0,0,0,0,0-0.1L9.9,3.9z
		 M5.8,6.2C5.3,6.7,4.5,6.5,4.1,6C3.7,5.4,3.7,4.7,4.3,4.2C4.9,3.8,5.6,3.9,6,4.5C6.4,5,6.4,5.8,5.8,6.2z"/>
</g>
</svg>
