<?xml version="1.0" encoding="utf-8"?>
<!-- Generator: Adobe Illustrator 26.3.0, SVG Export Plug-In . SVG Version: 6.00 Build 0)  -->
<svg version="1.1" id="Layer_1" xmlns="http://www.w3.org/2000/svg" xmlns:xlink="http://www.w3.org/1999/xlink" x="0px" y="0px"
	 viewBox="0 0 16 16" style="enable-background:new 0 0 16 16;" xml:space="preserve">
<style type="text/css">
	.st0{fill:#6D6E71;}
	.st1{fill:#6E6F72;}
	.st2{opacity:0.5;fill:#FFFFFF;enable-background:new    ;}
</style>
<g id="icon">
	<path class="st0" d="M9.2,6.8L8.4,6.9L7.7,7.3L7,7.9V5L9.2,6.8z M16,1v12H0V1H16z M8.9,7.9l2.6-0.5L6,3v7l2-1.7l1.2,2.4l1-0.5
		L8.9,7.9z"/>
	<rect x="2" y="14" class="st1" width="12" height="1"/>
	<path class="st2" d="M11.5,7.3L6,3v7l2-1.7l1.2,2.4l1-0.5L8.9,7.9L11.5,7.3z M7,7.9V5l2.2,1.7L8.4,6.9L7.7,7.3L7,7.9z"/>
</g>
</svg>
