<?xml version="1.0" encoding="utf-8"?>
<!-- Generator: Adobe Illustrator 26.3.0, SVG Export Plug-In . SVG Version: 6.00 Build 0)  -->
<svg version="1.1" id="Layer_1" xmlns="http://www.w3.org/2000/svg" xmlns:xlink="http://www.w3.org/1999/xlink" x="0px" y="0px"
	 viewBox="0 0 16 16" style="enable-background:new 0 0 16 16;" xml:space="preserve">
<style type="text/css">
	.st0{opacity:0.5;fill:#FFFFFF;enable-background:new    ;}
	.st1{fill:#7B7B7B;}
	.st2{fill:#6485C3;}
</style>
<g id="icon">
	<path class="st0" d="M15.4,2.8c0-0.3-0.1-0.6-0.4-0.8c-0.2-0.2-0.5-0.3-0.7-0.3c-0.3,0-0.6,0.1-0.8,0.4L8.1,7.7
		c0.6,0.3,1.1,0.9,1.5,1.5c0,0,0,0.1,0.1,0.1l5.4-5.6C15.3,3.4,15.4,3.1,15.4,2.8z"/>
	<path class="st0" d="M1.8,14.3c-0.4,0-0.8,0-1.3,0c1.5-0.6,1.8-0.8,2.8-2.9c0.2-0.4,0.4-0.8,0.6-1.3c0.5-1.1,1.3-1.6,2.3-1.6
		c0.9,0,1.8,0.5,2.3,1.3c0.4,0.7,0.5,1.5,0.1,2.3C7.7,13.9,6.7,14.3,1.8,14.3z"/>
	<path class="st1" d="M16,2.8c0-0.5-0.2-0.9-0.6-1.2c-0.3-0.3-0.7-0.4-1.1-0.4c-0.5,0-0.9,0.2-1.3,0.6L7.6,7.4C8,7.6,8.3,7.8,8.7,8
		l5.2-5.5l0,0c0.1-0.1,0.2-0.2,0.4-0.2c0.1,0,0.2,0,0.3,0.1c0.1,0.1,0.2,0.2,0.2,0.3c0,0.1,0,0.3-0.1,0.4L9.4,8.8
		C9.5,8.9,9.6,9,9.7,9.2C9.8,9.4,9.9,9.6,10,9.8l5.5-5.8l0,0C15.9,3.7,16,3.3,16,2.8z"/>
	<path class="st2" d="M1.8,14.9c-0.3,0-0.7,0-1.1,0c-0.3,0-0.6-0.2-0.6-0.5c-0.1-0.3,0.1-0.6,0.4-0.7c1.1-0.5,1.4-0.6,2.3-2.5
		c0.2-0.4,0.4-0.8,0.6-1.3C3.9,8.7,5,8,6.2,8C7.3,8,8.4,8.6,9,9.6c0.6,0.9,0.6,1.9,0.1,2.9C8.1,14.5,6.7,14.9,1.8,14.9z M6.2,9.2
		c-0.9,0-1.5,0.7-1.7,1.3C4.2,11,4,11.4,3.8,11.7c-0.5,1-1,1.6-1.3,2c4.3,0,4.9-0.5,5.6-1.8c0.3-0.6,0.3-1.2-0.1-1.7
		C7.6,9.6,6.9,9.2,6.2,9.2z"/>
</g>
</svg>
