<?xml version="1.0" encoding="utf-8"?>
<!-- Generator: Adobe Illustrator 26.3.0, SVG Export Plug-In . SVG Version: 6.00 Build 0)  -->
<svg version="1.1" id="Layer_1" xmlns="http://www.w3.org/2000/svg" xmlns:xlink="http://www.w3.org/1999/xlink" x="0px" y="0px"
	 viewBox="0 0 16 16" style="enable-background:new 0 0 16 16;" xml:space="preserve">
<style type="text/css">
	.st0{fill:#6E6F72;}
	.st1{fill:#6486C4;}
	.st2{fill:#EEAD56;}
</style>
<g id="icon">
	<path class="st0" d="M7.5,13.1l4-3.8l0.1,0.1c0.2,0.3,0.4,0.5,0.7,0.6l0.1,0.1l-3.1,3L7.5,13.1L7.5,13.1z M7.9,4.3L7.9,4.3
		C7.9,4.1,7.8,4,7.7,3.8l0-0.1l0.7-0.7l3.9,3.4l-0.1,0.1c-0.3,0.2-0.5,0.4-0.7,0.7l-0.1,0.1L7.9,4.3z"/>
	<path class="st1" d="M3.8,16v-0.2c0-1.2,1-2.2,2.2-2.2h4.1c1.2,0,2.2,1,2.2,2.2V16l-0.2,0H3.8z"/>
	<path class="st1" d="M13.2,9.7c-0.8,0-1.5-0.7-1.5-1.5s0.7-1.5,1.5-1.5s1.5,0.7,1.5,1.5C14.7,9.1,14,9.7,13.2,9.7z"/>
	<path class="st2" d="M1.4,4.1C1.2,4.5,1.1,4.9,1.1,5.3C1.1,6.8,2.3,8,3.7,8C4.1,8,4.6,7.9,5,7.6L1.4,4.1z"/>
	<path class="st1" d="M0.2,2l0.1-0.1C1,1.2,1.9,0.8,2.9,0.8c0.7,0,1.4,0.2,2,0.6l0.9-0.9C6.1,0.2,6.5,0,6.9,0C7.3,0,7.7,0.2,8,0.5
		c0.6,0.6,0.6,1.6,0,2.3l-1,1C8,5.1,7.8,6.9,6.6,8.1L6.4,8.3L0.2,2z"/>
</g>
</svg>
