<?xml version="1.0" encoding="utf-8"?>
<!-- Generator: Adobe Illustrator 26.3.0, SVG Export Plug-In . SVG Version: 6.00 Build 0)  -->
<svg version="1.1" id="Layer_1" xmlns="http://www.w3.org/2000/svg" xmlns:xlink="http://www.w3.org/1999/xlink" x="0px" y="0px"
	 viewBox="0 0 16 16" style="enable-background:new 0 0 16 16;" xml:space="preserve">
<style type="text/css">
	.st0{fill:#6D6E71;}
	.st1{opacity:0.5;fill:#FFFFFF;enable-background:new    ;}
	.st2{fill:#6485C3;}
</style>
<g id="icon">
	<path class="st0" d="M3.3,6.1C3.2,6.2,3,6.2,2.9,6.2l-0.5,0l1.4-3.9C4,1.9,4.2,1.7,4.5,1.5l1.6-0.9l0.4,0.7L4.9,2.2
		C4.7,2.3,4.6,2.4,4.6,2.6L3.8,4.7C3.9,5,3.9,5.5,3.7,5.8C3.6,5.9,3.4,6.1,3.3,6.1z"/>
	<path class="st1" d="M10.1,12.9L10.1,12.9c-0.1,0.4-2,2.1-2,2.1S7.9,12.5,8,12.1l0-0.1L10.1,12.9z"/>
	<polygon class="st1" points="10.1,12.9 13.8,3.1 11.7,2.3 8,12.1 	"/>
	<path class="st1" d="M13.8,3.1l0.6-1.6c0.2-0.6-1.9-1.4-2.1-0.8l-0.6,1.6L13.8,3.1z"/>
	<path class="st2" d="M7.7,15.1c-0.2-1.8-0.2-2.8-0.1-3.1l3.5-9.3l0.3-0.9l0.5-1.2c0.1-0.2,0.2-0.3,0.4-0.4c0.3-0.2,0.8-0.1,1.4,0.1
		c0.3,0.1,0.6,0.3,0.8,0.5c0.5,0.4,0.4,0.8,0.3,1l-0.5,1.2L14,3.8l-3.5,9.3c-0.1,0.3-0.8,1-2.1,2.3L7.8,16L7.7,15.1z M8.4,12.7
		c0,0.3,0,0.8,0.1,1.4c0.4-0.4,0.7-0.7,0.9-1L8.4,12.7z M9.9,12.3l3.3-8.8L11.9,3l-3.3,8.8L9.9,12.3z M13.6,2.6L14,1.5
		c-0.1-0.1-0.3-0.2-0.6-0.4C13,1,12.8,1,12.7,1l-0.4,1.1L13.6,2.6z"/>
	<path class="st1" d="M4.3,12.9L4.3,12.9c-0.1,0.4-2,2.1-2,2.1s-0.3-2.6-0.1-2.9l0-0.1L4.3,12.9z"/>
	<polygon class="st1" points="4.3,12.9 6.9,6 4.8,5.2 2.2,12.1 	"/>
	<path class="st1" d="M6.9,6l1.7-4.5c0.2-0.6-1.9-1.4-2.1-0.8L4.8,5.2L6.9,6z"/>
	<path class="st0" d="M1.9,15.1c-0.2-1.8-0.2-2.8-0.1-3.1l2.4-6.4l0.3-0.9l1.6-4.1c0.1-0.2,0.2-0.3,0.4-0.4C6.8,0,7.3,0.1,7.9,0.3
		c0.3,0.1,0.6,0.3,0.8,0.5c0.5,0.4,0.4,0.8,0.3,1L7.5,5.8L7.1,6.7l-2.4,6.4c-0.1,0.3-0.8,1-2.1,2.3L2,16L1.9,15.1z M2.6,12.7
		c0,0.3,0,0.8,0.1,1.4c0.4-0.4,0.7-0.7,0.9-1L2.6,12.7z M4.1,12.3l2.2-5.9L5,5.9l-2.2,5.9L4.1,12.3z M6.7,5.5l1.5-4
		C8.1,1.4,7.9,1.2,7.6,1.1C7.2,1,7,1,6.9,1L5.4,5L6.7,5.5z"/>
</g>
</svg>
