<?xml version="1.0" encoding="utf-8"?>
<!-- Generator: Adobe Illustrator 26.3.0, SVG Export Plug-In . SVG Version: 6.00 Build 0)  -->
<svg version="1.1" id="Layer_1" xmlns="http://www.w3.org/2000/svg" xmlns:xlink="http://www.w3.org/1999/xlink" x="0px" y="0px"
	 viewBox="0 0 16 16" style="enable-background:new 0 0 16 16;" xml:space="preserve">
<style type="text/css">
	.st0{fill:#6D6E71;}
	.st1{opacity:0.5;fill:#FFFFFF;enable-background:new    ;}
	.st2{fill:#6485C3;}
</style>
<g id="icon">
	<path class="st0" d="M0,3.8l4.1,4.1l0.3-0.3l3.1-3.1l0.3-0.3L3.8,0L0,3.8z M6,4L5,5L4.4,4.4l1-1L6,4z M4.7,2.6L3.2,4.1L2.5,3.5L4,2
		L4.7,2.6z M12,8.2l-0.6,0.6l-2.8,2.8L8.2,12l4,4l3.8-3.8L12,8.2z M10.9,10.9l1-1l0.7,0.7l-1,1L10.9,10.9z M11.7,12.6l1.5-1.5
		l0.7,0.7l-1.5,1.5L11.7,12.6z"/>
	<path class="st1" d="M11.7,12.6l1.5-1.5l0.7,0.7l-1.5,1.5L11.7,12.6z M10.9,10.9l1-1l0.7,0.7l-1,1L10.9,10.9z M4.4,4.4l1-1L6,4L5,5
		L4.4,4.4z M2.5,3.5L4,2l0.7,0.7L3.2,4.1L2.5,3.5z"/>
	<path class="st2" d="M0.4,16c-0.1,0-0.1,0-0.2-0.1l-0.2-0.2C0,15.7,0,15.6,0,15.5l2.3-4.2c0-0.1,0.1-0.1,0.2-0.1c0,0,0,0,0,0l0,0
		l2.3,2.3l0,0.1c0,0.1,0,0.2-0.1,0.2L0.5,16C0.5,16,0.5,16,0.4,16z M3.2,10.3l8.1-8.1l2.5,2.5l-8.1,8.1L3.2,10.3z M12.1,1.4l1-1
		c0.2-0.2,0.4-0.3,0.7-0.3s0.5,0.1,0.7,0.3l1.1,1.1c0.2,0.2,0.3,0.5,0.3,0.8S15.8,2.8,15.6,3l-0.9,0.9L12.1,1.4z"/>
</g>
</svg>
