<?xml version="1.0" encoding="UTF-8"?>
<!DOCTYPE svg PUBLIC "-//W3C//DTD SVG 1.1//EN" "http://www.w3.org/Graphics/SVG/1.1/DTD/svg11.dtd">
<svg version="1.1" id="Layer_1" xmlns="http://www.w3.org/2000/svg" xmlns:xlink="http://www.w3.org/1999/xlink" x="0px" y="0px" width="16px" height="16px" viewBox="0 0 16 16" enable-background="new 0 0 16 16" xml:space="preserve">
  <g id="icon">
    <path d="M6.1,13.4v0.2755c0,0.2736,0.1432,0.5017,0.4,0.5541V15.5h2v-1.2703c0.2567,-0.0524,0.4,-0.2806,0.4,-0.5541V13.4" fill="#FFFFFF" opacity="0.5"/>
    <path d="M11.8449,5.5H3.1551c-0.1997,-0.8978,-0.2893,-1.6342,0.2548,-2.312c0.3149,-0.3923,0.8018,-0.6678,1.4885,-0.8422C5.5495,2.1804,6.4005,2.1,7.5,2.1c1.0995,0,1.9505,0.0804,2.6016,0.2458c0.6866,0.1744,1.1735,0.4499,1.4885,0.8422C12.1342,3.8657,12.0446,4.6022,11.8449,5.5z" fill="#FFFFFF" opacity="0.5"/>
    <path d="M8.4,13.4h1v0.2755c0,0.361,-0.151,0.6717,-0.4,0.8629V16H6v-1.4616c-0.249,-0.1912,-0.4,-0.5019,-0.4,-0.8629V13.4h1v0.2755c0,0.0327,0.0057,0.0547,0.0102,0.0663l0.3887,0.0793L7,15h1v-1.1786l0.3898,-0.0795c0.0045,-0.0116,0.0102,-0.0337,0.0102,-0.0664V13.4zM12.333,5.6086L12.2458,6H2.7542l-0.0871,-0.3914c-0.2106,-0.9465,-0.3421,-1.8679,0.353,-2.7336c0.3854,-0.48,0.9595,-0.8116,1.7553,-1.0138c0.2313,-0.0587,0.4855,-0.1072,0.7632,-0.1459C5.7185,0.8826,6.5119,0.05,7.5,0.05s1.7815,0.8326,1.9615,1.6653c0.2778,0.0388,0.5319,0.0872,0.7632,0.1459c0.7958,0.2021,1.3699,0.5337,1.7553,1.0138C12.675,3.7407,12.5436,4.662,12.333,5.6086zM6.6446,1.6183C6.913,1.6062,7.1974,1.6,7.5,1.6s0.587,0.0062,0.8554,0.0183C8.1785,1.3215,7.8582,1.05,7.5,1.05S6.8215,1.3215,6.6446,1.6183zM11.2002,3.501c-0.2445,-0.3045,-0.6441,-0.5239,-1.2217,-0.6706C9.3681,2.6754,8.5574,2.6,7.5,2.6s-1.8681,0.0754,-2.4785,0.2304c-0.5776,0.1467,-0.9772,0.3661,-1.2217,0.6706c-0.3248,0.4045,-0.3554,0.8331,-0.2363,1.499h7.8729C11.5556,4.3341,11.525,3.9056,11.2002,3.501z" fill="#6D6E71"/>
    <path d="M11.8449,5.5H3.1551c0.0381,0.1615,0.0801,0.3251,0.1226,0.4901c0.1635,0.6355,0.3325,1.1567,0.3325,1.8406s-0.169,1.341,-0.3325,1.9765c-0.2652,1.0309,-0.5156,1.9046,0.1323,2.6661c0.3149,0.3702,0.8018,0.6301,1.4885,0.7947C5.5495,13.4241,6.4005,13.5,7.5,13.5c1.0995,0,1.9505,-0.0759,2.6016,-0.2319c0.6866,-0.1646,1.1735,-0.4245,1.4885,-0.7947c0.6479,-0.7615,0.3974,-1.6352,0.1323,-2.6661c-0.1635,-0.6355,-0.3325,-1.2926,-0.3325,-1.9765s0.169,-1.2051,0.3325,-1.8406C11.7648,5.8251,11.8068,5.6615,11.8449,5.5z" fill="#FFFFFF" opacity="0.5"/>
    <path d="M12.2293,9.7711l-0.0229,-0.089c-0.1556,-0.6052,-0.3166,-1.231,-0.3166,-1.8515c0,-0.5197,0.1135,-0.9474,0.2449,-1.4427c0.0237,-0.0893,0.0478,-0.1801,0.0718,-0.2733c0.0434,-0.1685,0.0862,-0.3354,0.125,-0.5001L12.4763,5H2.5235l0.145,0.6148c0.0389,0.1647,0.0817,0.3316,0.125,0.4998c0.024,0.0933,0.0481,0.1842,0.0718,0.2735c0.1314,0.4953,0.2449,0.923,0.2449,1.4426c0,0.6205,-0.1609,1.2463,-0.3167,1.852l-0.0228,0.0884c-0.2649,1.0271,-0.5389,2.0891,0.2584,3.0263c0.386,0.4537,0.9593,0.7667,1.7527,0.9569C5.4716,13.9196,6.3607,14,7.5,14s2.0284,-0.0804,2.7182,-0.2457c0.7934,-0.1902,1.3667,-0.5032,1.7527,-0.9569C12.7682,11.8602,12.4943,10.7982,12.2293,9.7711zM6,11.5H5V8h1V11.5zM8,11.5H7V8h1V11.5zM10,11.5H9V8h1V11.5z" fill="#CB525D"/>
    <path d="M6,11.5H5V8h1V11.5zM8,11.5H7V8h1V11.5zM10,11.5H9V8h1V11.5z" fill="#FFFFFF" opacity="0.5"/>
  </g>
</svg>
