<?xml version="1.0" encoding="UTF-8"?>
<!DOCTYPE svg PUBLIC "-//W3C//DTD SVG 1.1//EN" "http://www.w3.org/Graphics/SVG/1.1/DTD/svg11.dtd">
<svg version="1.1" id="Layer_1" xmlns="http://www.w3.org/2000/svg" xmlns:xlink="http://www.w3.org/1999/xlink" x="0px" y="0px" width="16px" height="16px" viewBox="0 0 16 16" enable-background="new 0 0 16 16" xml:space="preserve">
  <g id="icon">
    <path d="M3.3668,6.5016h8.3462c0.6043,-0.941,0.8752,-2.0668,0.7617,-3.1817c-0.1095,-1.0759,-0.5766,-2.014,-1.2495,-2.5095c-0.2697,-0.1986,-0.5946,-0.2993,-0.9657,-0.2993c-0.5543,0,-1.134,0.2225,-1.6946,0.4378c-0.394,0.1512,-0.7996,0.307,-1.1073,0.3437c-0.3094,-0.032,-0.7161,-0.1585,-1.1115,-0.2818C5.773,0.8321,5.1804,0.6474,4.6262,0.6474c-0.4094,0,-0.7608,0.1038,-1.0445,0.3084c-0.4761,0.3237,-0.8384,0.9683,-0.9954,1.7718c-0.2462,1.2607,0.0418,2.664,0.769,3.7518C3.3589,6.4853,3.3629,6.4937,3.3668,6.5016z" fill="#FFFFFF" opacity="0.5"/>
    <path d="M3.3668,6.5016h8.3462c0.6043,-0.941,0.8752,-2.0668,0.7617,-3.1817c-0.1095,-1.0759,-0.5766,-2.014,-1.2495,-2.5095c-0.2697,-0.1986,-0.5946,-0.2993,-0.9657,-0.2993c-0.5543,0,-1.134,0.2225,-1.6946,0.4378c-0.394,0.1512,-0.7996,0.307,-1.1073,0.3437c-0.3094,-0.032,-0.7161,-0.1585,-1.1115,-0.2818C5.773,0.8321,5.1804,0.6474,4.6262,0.6474c-0.4094,0,-0.7608,0.1038,-1.0445,0.3084c-0.4761,0.3237,-0.8384,0.9683,-0.9954,1.7718c-0.2462,1.2607,0.0418,2.664,0.769,3.7518C3.3589,6.4853,3.3629,6.4937,3.3668,6.5016z" fill="#6D6E71" opacity="0.15"/>
    <path d="M3.0259,7l-0.1474,-0.2928c-0.7911,-1.1819,-1.1032,-2.7091,-0.832,-4.0801c0.1835,-0.9281,0.6283,-1.69,1.2201,-2.0902c0.3774,-0.2668,0.8352,-0.4023,1.3596,-0.4023c0.6376,0,1.2706,0.1947,1.8828,0.3831c0.3221,0.0992,0.6862,0.2112,0.9424,0.2488c0.2421,-0.0428,0.5999,-0.1784,0.916,-0.2981C8.975,0.238,9.6031,0,10.2595,0c0.4909,0,0.9255,0.1349,1.2917,0.4011c0.796,0.5787,1.3458,1.6478,1.4707,2.8598c0.1256,1.2184,-0.1749,2.4577,-0.8461,3.4895L12.0134,7H3.0259zM11.4007,5.914c0.4295,-0.77,0.6166,-1.672,0.5268,-2.5432c-0.094,-0.9122,-0.4785,-1.6955,-1.0285,-2.0952c-0.1756,-0.1276,-0.3849,-0.1897,-0.6396,-0.1897c-0.4524,0,-0.9835,0.2013,-1.4971,0.396c-0.4249,0.161,-0.8639,0.3274,-1.2396,0.3717l-0.0609,0.0071l-0.0609,-0.0062c-0.3658,-0.0374,-0.7993,-0.1709,-1.2186,-0.2999c-0.5338,-0.1643,-1.0857,-0.3341,-1.5561,-0.3341c-0.2915,0,-0.5347,0.0679,-0.7229,0.2019l-0.012,0.0082c-0.3521,0.2364,-0.6381,0.7614,-0.7653,1.4046c-0.2031,1.0269,-0.0036,2.1474,0.5475,3.0788H11.4007z" fill="#6D6E71"/>
    <path d="M6.6497,15.9953c-0.1585,0,-0.3144,-0.0752,-0.4115,-0.2153c-0.1572,-0.227,-0.1007,-0.5385,0.1263,-0.6958l2.1193,-1.4679c0.2271,-0.1573,0.5384,-0.1007,0.6958,0.1263c0.1572,0.227,0.1007,0.5385,-0.1263,0.6958l-2.1193,1.4679C6.8471,15.9665,6.7479,15.9953,6.6497,15.9953zM6.1198,14.4501c-0.1555,0,-0.3087,-0.0723,-0.4063,-0.2081c-0.1612,-0.2242,-0.1102,-0.5366,0.114,-0.6979l3.3303,-2.3951c0.2243,-0.1611,0.5367,-0.1102,0.6979,0.114c0.1612,0.2242,0.1102,0.5366,-0.114,0.6979L6.4113,14.356C6.323,14.4195,6.2209,14.4501,6.1198,14.4501zM5.59,12.8277c-0.1557,0,-0.309,-0.0724,-0.4066,-0.2085c-0.161,-0.2244,-0.1097,-0.5368,0.1146,-0.6978l4.8441,-3.4767c0.2245,-0.161,0.5368,-0.1097,0.6978,0.1146c0.161,0.2244,0.1097,0.5368,-0.1146,0.6978l-4.8441,3.4767C5.7928,12.7972,5.6909,12.8277,5.59,12.8277zM5.0602,11.2052c-0.1553,0,-0.3084,-0.0721,-0.4061,-0.2078c-0.1614,-0.224,-0.1107,-0.5365,0.1134,-0.6979l3.7386,-2.6938c0.2241,-0.1615,0.5366,-0.1107,0.6979,0.1134c0.1614,0.224,0.1107,0.5365,-0.1134,0.6979L5.352,11.1108C5.2636,11.1746,5.1614,11.2052,5.0602,11.2052zM4.5304,9.5828c-0.1599,0,-0.317,-0.0766,-0.4138,-0.2188c-0.1553,-0.2283,-0.0962,-0.5393,0.1321,-0.6947l1.5888,-1.0812c0.2283,-0.1552,0.5394,-0.0961,0.6947,0.1321c0.1553,0.2283,0.0962,0.5393,-0.1321,0.6947L4.8112,9.4961C4.7251,9.5547,4.6272,9.5828,4.5304,9.5828z" fill="#6485C3"/>
  </g>
</svg>
