<?xml version="1.0" encoding="UTF-8"?>
<!DOCTYPE svg PUBLIC "-//W3C//DTD SVG 1.1//EN" "http://www.w3.org/Graphics/SVG/1.1/DTD/svg11.dtd">
<svg version="1.1" id="Layer_1" xmlns="http://www.w3.org/2000/svg" xmlns:xlink="http://www.w3.org/1999/xlink" x="0px" y="0px" width="16px" height="16px" viewBox="0 0 16 16" enable-background="new 0 0 16 16" xml:space="preserve">
  <g id="icon">
    <path d="M0.8667,8C0.8667,4.0604,4.0604,0.8667,8,0.8667S15.1333,4.0604,15.1333,8S11.9396,15.1333,8,15.1333S0.8667,11.9396,0.8667,8zM3.6484,13.6521M12.387,13.6249" fill="#FFFFFF" opacity="0.5"/>
    <path d="M8,0.8667C4.0604,0.8667,0.8667,4.0604,0.8667,8S4.0604,15.1333,8,15.1333S15.1333,11.9396,15.1333,8S11.9396,0.8667,8,0.8667zM10.1943,3.9967c0.6571,0,1.1898,0.5327,1.1898,1.1898c0,0.6571,-0.5327,1.1898,-1.1898,1.1898c-0.6571,0,-1.1898,-0.5327,-1.1898,-1.1898C9.0045,4.5294,9.5372,3.9967,10.1943,3.9967zM5.6954,3.9967c0.6571,0,1.1898,0.5327,1.1898,1.1898c0,0.6571,-0.5327,1.1898,-1.1898,1.1898c-0.6571,0,-1.1898,-0.5327,-1.1898,-1.1898C4.5056,4.5294,5.0383,3.9967,5.6954,3.9967zM11.8316,12.6224c-0.0616,0.0259,-0.1263,0.0391,-0.1924,0.0391c-0.2005,0,-0.3804,-0.1196,-0.4582,-0.3046c-0.6389,-1.5199,-1.8271,-2.4275,-3.1782,-2.4277c-1.3578,0,-2.5531,0.9148,-3.1979,2.4471c-0.0778,0.1848,-0.2576,0.3043,-0.4582,0.3043c-0.0661,0,-0.1309,-0.0131,-0.1924,-0.039c-0.2525,-0.1063,-0.3715,-0.3982,-0.2653,-0.6507c0.793,-1.8847,2.3691,-3.0555,4.1133,-3.0555c1.7388,0.0003,3.3076,1.1638,4.0948,3.0364C12.2033,12.2244,12.0842,12.5162,11.8316,12.6224z" fill="#CB525D" opacity="0.3"/>
    <path d="M8,16c-4.4112,0,-8,-3.5888,-8,-8S3.5888,0,8,0s8,3.5888,8,8S12.4112,16,8,16zM8,1.2436c-3.7255,0,-6.7564,3.0309,-6.7564,6.7564S4.2745,14.7564,8,14.7564S14.7564,11.7255,14.7564,8S11.7255,1.2436,8,1.2436z" fill="#CB525D"/>
    <path d="M4.5056,5.1865c0,0.6571,0.5327,1.1898,1.1898,1.1898s1.1898,-0.5327,1.1898,-1.1898s-0.5327,-1.1898,-1.1898,-1.1898S4.5056,4.5294,4.5056,5.1865zM9.0045,5.1865c0,0.6571,0.5327,1.1898,1.1898,1.1898s1.1898,-0.5327,1.1898,-1.1898s-0.5327,-1.1898,-1.1898,-1.1898S9.0045,4.5294,9.0045,5.1865z" fill="#48484A" opacity="0.9"/>
    <path d="M4.3468,12.6806c-0.0661,0,-0.1309,-0.0131,-0.1924,-0.039c-0.2525,-0.1063,-0.3715,-0.3982,-0.2653,-0.6507c0.793,-1.8847,2.3691,-3.0555,4.1133,-3.0555c1.7388,0.0003,3.3076,1.1638,4.0948,3.0364c0.1062,0.2526,-0.013,0.5444,-0.2655,0.6506c-0.0616,0.0259,-0.1263,0.0391,-0.1924,0.0391c-0.2005,0,-0.3804,-0.1196,-0.4582,-0.3046c-0.6389,-1.5199,-1.8271,-2.4275,-3.1782,-2.4277c-1.3578,0,-2.5531,0.9148,-3.1979,2.4471C4.7272,12.5611,4.5474,12.6806,4.3468,12.6806L4.3468,12.6806z" fill="#48484A" opacity="0.9"/>
  </g>
</svg>
