<?xml version="1.0" encoding="UTF-8"?>
<!DOCTYPE svg PUBLIC "-//W3C//DTD SVG 1.1//EN" "http://www.w3.org/Graphics/SVG/1.1/DTD/svg11.dtd">
<svg version="1.1" id="Layer_1" xmlns="http://www.w3.org/2000/svg" xmlns:xlink="http://www.w3.org/1999/xlink" x="0px" y="0px" width="16px" height="16px" viewBox="0 0 16 16" enable-background="new 0 0 16 16" xml:space="preserve">
  <g id="icon">
    <path d="M7.9783,15.9807l-0.0124,-0.0003c-3.4189,-0.0075,-5.5793,-0.9761,-7.0044,-3.1406c-0.5844,-0.8876,-0.6363,-2.0163,-0.1354,-2.9457c0.4364,-0.8098,1.2227,-1.2932,2.1035,-1.2932c0.389,0,0.7934,0.0907,1.2021,0.2694c0.9742,0.4262,1.5443,0.7432,1.9605,0.9746c0.6917,0.3846,0.9247,0.5141,1.8999,0.5154c0.9749,-0.0013,1.2079,-0.1308,1.8996,-0.5154c0.4162,-0.2314,0.9862,-0.5483,1.9605,-0.9746c0.4087,-0.1788,0.8131,-0.2694,1.2021,-0.2694c0.8808,0,1.6673,0.4834,2.1036,1.2931c0.5008,0.9294,0.4489,2.0582,-0.1355,2.9458c-1.4251,2.1645,-3.5855,3.1331,-7.0051,3.1406l-0.0117,0.0004H7.9783zM12.2269,10.8599c-0.4867,0,-0.8827,0.3969,-0.8827,0.8848s0.396,0.8848,0.8827,0.8848s0.8827,-0.3969,0.8827,-0.8848S12.7136,10.8599,12.2269,10.8599zM3.7157,10.8167c-0.5105,0,-0.9258,0.4163,-0.9258,0.928c0,0.5117,0.4153,0.928,0.9258,0.928s0.9258,-0.4163,0.9258,-0.928C4.6415,11.233,4.2262,10.8167,3.7157,10.8167zM7.9943,8.1455c-1.3864,0,-1.4404,-0.2055,-1.4607,-0.2829c-0.0139,-0.053,-0.0149,-0.1546,0.1348,-0.2391c0.2446,-0.138,0.4026,-0.5098,0.4026,-0.947c0,-0.4373,-0.158,-0.809,-0.4026,-0.9471c-0.1497,-0.0845,-0.1487,-0.1861,-0.1348,-0.2391c0.0203,-0.0774,0.0743,-0.2829,1.4607,-0.2829s1.4404,0.2055,1.4607,0.2829c0.0139,0.053,0.0149,0.1546,-0.1348,0.2391c-0.2446,0.1381,-0.4026,0.5098,-0.4026,0.9471s0.1581,0.809,0.4026,0.947c0.1497,0.0845,0.1487,0.1861,0.1348,0.2391C9.4347,7.94,9.3807,8.1455,7.9943,8.1455zM7.9943,3.7038c-1.3864,0,-1.4404,-0.2055,-1.4607,-0.2829c-0.0139,-0.053,-0.0149,-0.1546,0.1348,-0.2391c0.2446,-0.1381,0.4026,-0.5098,0.4026,-0.947c0,-0.4373,-0.158,-0.809,-0.4026,-0.9471c-0.1497,-0.0845,-0.1487,-0.1861,-0.1348,-0.2391c0.0203,-0.0774,0.0743,-0.2829,1.4607,-0.2829s1.4404,0.2055,1.4607,0.2829c0.0139,0.053,0.0149,0.1546,-0.1348,0.2391c-0.2446,0.1381,-0.4026,0.5098,-0.4026,0.9471s0.1581,0.809,0.4026,0.947c0.1497,0.0845,0.1487,0.1861,0.1348,0.2391C9.4347,3.4983,9.3807,3.7038,7.9943,3.7038z" fill="#6D6E71"/>
    <path d="M9.9513,6.3318l0.102,-0.0087c2.4349,-0.2086,3.0065,-0.373,4.0908,-1.7906l0.0617,-0.0807l0.8995,0.6695l-0.0617,0.0807c-1.4092,1.8424,-2.3576,2.0113,-4.8927,2.2284l-0.1021,0.0087L9.9513,6.3318zM5.8377,7.4303c-2.5351,-0.2171,-3.4836,-0.386,-4.8928,-2.2284l-0.0617,-0.0807l0.8995,-0.6695l0.0617,0.0807c1.0842,1.4176,1.6559,1.5819,4.0908,1.7906l0.102,0.0087l-0.0975,1.1073L5.8377,7.4303zM9.9513,1.8901l0.102,-0.0087c2.4349,-0.2087,3.0065,-0.373,4.0908,-1.7906l0.0617,-0.0807l0.8995,0.6695l-0.0617,0.0807c-1.4092,1.8424,-2.3576,2.0113,-4.8927,2.2284l-0.1021,0.0087L9.9513,1.8901zM5.8377,2.9887C3.3026,2.7715,2.3541,2.6026,0.9449,0.7603L0.8832,0.6796l0.8995,-0.6695l0.0617,0.0807c1.0842,1.4176,1.6559,1.5819,4.0908,1.7906l0.102,0.0087l-0.0975,1.1073L5.8377,2.9887z" fill="#6D6E71"/>
  </g>
</svg>
