<?xml version="1.0" encoding="UTF-8"?>
<!DOCTYPE svg PUBLIC "-//W3C//DTD SVG 1.1//EN" "http://www.w3.org/Graphics/SVG/1.1/DTD/svg11.dtd">
<svg version="1.1" id="Layer_1" xmlns="http://www.w3.org/2000/svg" xmlns:xlink="http://www.w3.org/1999/xlink" x="0px" y="0px" width="24px" height="24px" viewBox="0 0 24 24" enable-background="new 0 0 24 24" xml:space="preserve">
  <g id="icon">
    <path d="M21.95,19.95h-20c-0.55,0,-1,-0.45,-1,-1v-14c0,-0.55,0.45,-1,1,-1h20c0.55,0,1,0.45,1,1v14C22.95,19.5,22.5,19.95,21.95,19.95z" fill="#FFFFFF" opacity="0.5"/>
    <path d="M0,18.5V5.5c0,-1.3807,1.1193,-2.5,2.5,-2.5h19c1.3807,0,2.5,1.1193,2.5,2.5v13c0,1.3807,-1.1193,2.5,-2.5,2.5H2.5C1.1193,21,0,19.8807,0,18.5zM2,5.5v13c0,0.2761,0.2239,0.5,0.5,0.5h19c0.2761,0,0.5,-0.2239,0.5,-0.5V5.5c0,-0.2761,-0.2239,-0.5,-0.5,-0.5H2.5C2.2239,5,2,5.2239,2,5.5z" fill="#7B7B7B"/>
    <path d="M23.7,10H0.2V7h23.5V10z" fill="#7B7B7B"/>
    <path d="M14.753,17c-1.6545,0,-3.0005,-1.346,-3.0005,-3.0006c0,-1.6539,1.346,-2.9994,3.0005,-2.9994c0.655,0,1.2775,0.2076,1.8001,0.6002l-0.9009,1.1993c-0.2608,-0.1959,-0.5718,-0.2995,-0.8993,-0.2995c-0.8274,0,-1.5005,0.6727,-1.5005,1.4994c0,0.8274,0.6731,1.5006,1.5005,1.5006c0.3275,0,0.6385,-0.1036,0.8993,-0.2995l0.9009,1.1993C16.0305,16.7924,15.408,17,14.753,17z" fill="#CB525D"/>
    <path d="M17.7744,17c-0.6551,0,-1.2775,-0.2076,-1.8001,-0.6002c-0.7508,-0.5635,-1.1993,-1.461,-1.1993,-2.4004c0,-0.9526,0.4371,-1.827,1.1993,-2.3992l0,0c0.5227,-0.3927,1.1451,-0.6002,1.8001,-0.6002c1.6545,0,3.0006,1.3455,3.0006,2.9994C20.775,15.654,19.429,17,17.7744,17zM17.7744,12.5c-0.3275,0,-0.6384,0.1036,-0.8991,0.2995l-0.0003,0.0002c-0.3813,0.2862,-0.6,0.7235,-0.6,1.1997c0,0.477,0.2187,0.9147,0.6,1.2009c0.261,0.1961,0.5719,0.2997,0.8994,0.2997c0.8274,0,1.5006,-0.6732,1.5006,-1.5006C19.275,13.1727,18.6018,12.5,17.7744,12.5z" fill="#EEAC55"/>
    <path d="M10.5,17H4v-1h6.5V17zM9,14H4v1h5V14z" fill="#6D6E71"/>
  </g>
</svg>
