<?xml version="1.0" encoding="UTF-8"?>
<!DOCTYPE svg PUBLIC "-//W3C//DTD SVG 1.1//EN" "http://www.w3.org/Graphics/SVG/1.1/DTD/svg11.dtd">
<svg version="1.1" id="Layer_1" xmlns="http://www.w3.org/2000/svg" xmlns:xlink="http://www.w3.org/1999/xlink" x="0px" y="0px" width="24px" height="24px" viewBox="0 0 24 24" enable-background="new 0 0 24 24" xml:space="preserve">
  <g id="icon">
    <g>
      <path d="M17.0009,7.1372l0.0411,0.0295c0.8186,0.5872,0.9486,1.6418,0.9619,2.139L24,5.6566l-8.7272,-4.2177l-4.2354,2.2743L17.0009,7.1372z" fill="#52B250"/>
      <polygon points="12.0512,11.8075 4.634,7.1517 0.028,9.625 8.6628,14.9904 12.0512,12.9283" fill="#52B250" stroke-linejoin="miter"/>
    </g>
    <path d="M12.0512,16.7628l-3.3883,2.062L0.0246,13.4573l2.2142,-1.1813l6.4186,3.9883l3.3938,-2.0654V16.7628zM18.0016,13.1415l5.9246,-3.6055l-2.207,-1.2207l-3.715,2.2608L18.0016,13.1415z" fill="#52B250"/>
    <path d="M12.0512,20.5628l-3.3883,2.062L0.0246,17.2573l2.2142,-1.1813l6.4186,3.9883l3.3938,-2.0654V20.5628zM17.9979,16.9438l5.9283,-3.6078l-2.207,-1.2207l-3.7187,2.2631L17.9979,16.9438z" fill="#52B250"/>
    <path d="M13.0512,19.9825v-8.4754c0,-0.1412,-0.0679,-0.2774,-0.1824,-0.367L5.6353,6.5995l4.2747,-2.3806l6.5492,3.7603c0.501,0.3594,0.5447,1.1672,0.5462,1.4063l-0.008,8.2061L13.0512,19.9825z" fill="#7B7B7B"/>
  </g>
</svg>
