<?xml version="1.0" encoding="UTF-8"?>
<!DOCTYPE svg PUBLIC "-//W3C//DTD SVG 1.1//EN" "http://www.w3.org/Graphics/SVG/1.1/DTD/svg11.dtd">
<svg version="1.1" id="Layer_1" xmlns="http://www.w3.org/2000/svg" xmlns:xlink="http://www.w3.org/1999/xlink" x="0px" y="0px" width="24px" height="24px" viewBox="0 0 24 24" enable-background="new 0 0 24 24" xml:space="preserve">
  <g id="icon">
    <path d="M12,0C5.3832,0,0,5.3832,0,12s5.3832,12,12,12s12,-5.3832,12,-12S18.6168,0,12,0zM15.8816,2.7799c0.6481,0.2732,1.2686,0.6161,1.8471,1.0209l-0.6111,0.8426c-0.5089,-0.3547,-1.0543,-0.6561,-1.6239,-0.8976L15.8816,2.7799zM3.0409,11.8308H2C2.0911,6.4,6.5557,1.9986,12,1.9986c0.7834,0,1.5637,0.091,2.3209,0.2707l-0.2579,1.0086c-0.6721,-0.1584,-1.3656,-0.2386,-2.0629,-0.2386C7.1296,3.0393,3.1316,6.9738,3.0409,11.8308zM8.0611,21.1958c-0.6312,-0.2708,-1.2359,-0.608,-1.8002,-1.0039l0.6123,-0.8419c0.4962,0.3468,1.0275,0.643,1.5819,0.8822L8.0611,21.1958zM9.0306,12.7458v-1.2576h1.8547L7.8812,6.7968l1.0591,-0.6782l3.0575,4.775l3.0425,-4.7589L16.1,6.8121l-2.9896,4.6761h1.831v1.2576h-2.2637v1.2576h2.2637v1.2576h-2.2637v2.8925H11.42V15.261H9.0306v-1.2576H11.42v-1.2576H9.0306zM12,22.0014c-0.8117,0,-1.6185,-0.0975,-2.3998,-0.2899l0.2662,-1.0063c0.6945,0.1696,1.4117,0.2555,2.1336,0.2555c4.8704,0,8.8684,-3.9345,8.9591,-8.7915H22C21.9089,17.6,17.4443,22.0014,12,22.0014z" fill="#EEAC55"/>
    <path d="M12,22.0014c-0.8117,0,-1.6185,-0.0975,-2.3998,-0.2899l0.2662,-1.0063c0.6945,0.1696,1.4117,0.2555,2.1336,0.2555c4.8704,0,8.8684,-3.9345,8.9591,-8.7915H22C21.9089,17.6,17.4443,22.0014,12,22.0014zM8.0611,21.1958c-0.6312,-0.2708,-1.2359,-0.608,-1.8002,-1.0039l0.6123,-0.8419c0.4962,0.3468,1.0275,0.643,1.5819,0.8822L8.0611,21.1958zM2,11.8308C2.0911,6.4,6.5557,1.9986,12,1.9986c0.7834,0,1.5637,0.091,2.3209,0.2707l-0.2579,1.0086c-0.6721,-0.1584,-1.3656,-0.2386,-2.0629,-0.2386c-4.8704,0,-8.8684,3.9345,-8.9591,8.7915H2zM17.1176,4.6434c-0.5089,-0.3547,-1.0543,-0.6561,-1.6239,-0.8976l0.3879,-0.9659c0.6481,0.2732,1.2686,0.6161,1.8471,1.0209L17.1176,4.6434z" fill="#FFFFFF" opacity="0.5"/>
    <polygon points="12.6777,18.1536 11.42,18.1536 11.42,15.261 9.0306,15.261 9.0306,14.0034 11.42,14.0034 11.42,12.7458 9.0306,12.7458 9.0306,11.4882 10.8853,11.4882 7.8812,6.7968 8.9404,6.1186 11.9979,10.8936 15.0404,6.1347 16.1,6.8121 13.1104,11.4882 14.9414,11.4882 14.9414,12.7458 12.6777,12.7458 12.6777,14.0034 14.9414,14.0034 14.9414,15.261 12.6777,15.261" fill="#FFFFFF" stroke-linejoin="miter" opacity="0.5"/>
  </g>
</svg>
