<?xml version="1.0" encoding="UTF-8"?>
<!DOCTYPE svg PUBLIC "-//W3C//DTD SVG 1.1//EN" "http://www.w3.org/Graphics/SVG/1.1/DTD/svg11.dtd">
<svg version="1.1" id="Layer_1" xmlns="http://www.w3.org/2000/svg" xmlns:xlink="http://www.w3.org/1999/xlink" x="0px" y="0px" width="24px" height="24px" viewBox="0 0 24 24" enable-background="new 0 0 24 24" xml:space="preserve">
  <g id="icon">
    <g>
      <path d="M10.7317,9.1236c-0.1061,0.1049,-0.1815,0.2194,-0.2309,0.35c-0.0516,0.1368,-0.0742,0.2736,-0.0689,0.4183c0.006,0.1669,0.0381,0.3,0.0954,0.3953c0.0683,0.1136,0.1556,0.2067,0.267,0.2847c0.1342,0.0938,0.2931,0.1729,0.4721,0.2352c0.0438,0.0152,0.0881,0.0303,0.1328,0.0452V8.7676c-0.0832,0.0207,-0.1609,0.0461,-0.2319,0.076C10.9908,8.9182,10.8442,9.0124,10.7317,9.1236z" fill="#52B250"/>
      <path d="M0,4v16h24V4H0zM5.4925,6c-0.014,1.9323,-1.5644,3.5,-3.4687,3.5l-0.0143,-0.0003l-0.0084,-0.0002L2,6H5.4925zM2,18l0.0011,-3.5071l0.0084,-0.0002l0.0144,-0.0003c1.9084,0,3.4621,1.5711,3.4762,3.5076H2zM14.6696,14.5779c-0.1266,0.349,-0.3209,0.6624,-0.5778,0.9314c-0.2533,0.2655,-0.5667,0.4817,-0.9314,0.6427c-0.1754,0.0774,-0.3651,0.14,-0.565,0.1864v0.8816h-1.196v-0.7894c-0.1618,-0.0089,-0.3155,-0.0269,-0.4581,-0.0534c-0.2604,-0.0486,-0.5047,-0.1215,-0.7262,-0.2167c-0.2265,-0.0972,-0.44,-0.2218,-0.6345,-0.3702c-0.1783,-0.1357,-0.3527,-0.2903,-0.5185,-0.4595l-0.0973,-0.0996l0.8427,-0.8627l0.1018,0.1038c0.1251,0.1277,0.2559,0.2437,0.3886,0.3447c0.1169,0.0892,0.2456,0.1642,0.3826,0.2229c0.1415,0.0609,0.3017,0.1082,0.4762,0.1407c0.0751,0.014,0.1564,0.0244,0.2427,0.0312v-3.0864c-0.1794,-0.0535,-0.354,-0.1098,-0.5201,-0.1676c-0.2817,-0.0979,-0.5382,-0.227,-0.7623,-0.3836c-0.2491,-0.1741,-0.4543,-0.3937,-0.61,-0.6525c-0.1658,-0.2757,-0.2567,-0.6073,-0.2702,-0.9854c-0.0111,-0.3077,0.0386,-0.61,0.1475,-0.8984c0.111,-0.2942,0.2837,-0.5586,0.5133,-0.7859c0.2213,-0.219,0.4945,-0.398,0.8119,-0.5319c0.2089,-0.088,0.4406,-0.152,0.6898,-0.1906V6.78h1.196v0.7596c0.1038,0.0193,0.2029,0.0441,0.2958,0.0741c0.2572,0.0831,0.4693,0.1762,0.6484,0.2846c0.176,0.1065,0.3125,0.2066,0.4175,0.3061c0.0726,0.0688,0.489,0.4607,0.489,0.4607l-0.8079,0.897l-0.106,-0.0997c0,0,-0.3175,-0.2988,-0.3906,-0.3682c-0.0187,-0.0177,-0.077,-0.0679,-0.2139,-0.1508c-0.0843,-0.0511,-0.1958,-0.1008,-0.3324,-0.1482V11.2c0.1078,0.0313,0.2151,0.0631,0.3212,0.0954c0.3197,0.0972,0.6135,0.2275,0.8732,0.3873c0.2902,0.1785,0.5318,0.4096,0.7181,0.6868c0.2024,0.3015,0.3129,0.6754,0.3285,1.1114C14.8501,13.8656,14.794,14.2347,14.6696,14.5779zM18.4989,18c0.014,-1.9323,1.5644,-3.5,3.4687,-3.5l0.0143,0.0003l0.0084,0.0002L21.9914,18H18.4989zM21.9989,9.4996l-0.0084,0.0002L21.9762,9.5C20.0678,9.5,18.5141,7.9323,18.5,6h3.5L21.9989,9.4996z" fill="#52B250"/>
      <path d="M13.1708,12.7234c-0.1678,-0.1031,-0.3613,-0.1892,-0.5755,-0.2561v2.6052c0.0304,-0.0115,0.0602,-0.0236,0.0891,-0.0364c0.2204,-0.0972,0.4052,-0.223,0.549,-0.3739c0.1419,-0.1487,0.2446,-0.3139,0.314,-0.5052c0.0702,-0.1938,0.1018,-0.4064,0.0937,-0.632c-0.0072,-0.2028,-0.0479,-0.3609,-0.1209,-0.4697C13.43,12.9212,13.3157,12.8126,13.1708,12.7234z" fill="#52B250"/>
    </g>
    <path d="M2.0094,9.4997L2.0238,9.5c1.9043,0,3.4547,-1.5677,3.4687,-3.5H2l0.0011,3.4996L2.0094,9.4997zM21.9989,9.4996L22,6h-3.5c0.0141,1.9323,1.5678,3.5,3.4762,3.5l0.0144,-0.0003L21.9989,9.4996zM2.0011,14.4929L2,18h3.5c-0.0141,-1.9365,-1.5678,-3.5075,-3.4762,-3.5075l-0.0144,0.0003L2.0011,14.4929zM21.9819,14.5003L21.9676,14.5c-1.9043,0,-3.4547,1.5677,-3.4687,3.5h3.4925l-0.0011,-3.4996L21.9819,14.5003z" fill="#FFFFFF" opacity="0.5"/>
    <path d="M11.3993,17.22v-0.7894c-0.1618,-0.0089,-0.3155,-0.0269,-0.4581,-0.0534c-0.2604,-0.0486,-0.5047,-0.1215,-0.7262,-0.2167c-0.2265,-0.0972,-0.44,-0.2218,-0.6345,-0.3702c-0.1783,-0.1357,-0.3527,-0.2903,-0.5185,-0.4595l-0.0973,-0.0996l0.8427,-0.8627l0.1018,0.1038c0.1251,0.1277,0.2559,0.2437,0.3886,0.3447c0.1169,0.0892,0.2456,0.1642,0.3826,0.2229c0.1415,0.0609,0.3017,0.1082,0.4762,0.1407c0.0751,0.014,0.1564,0.0244,0.2427,0.0312v-3.0864c-0.1794,-0.0535,-0.354,-0.1098,-0.5201,-0.1676c-0.2817,-0.0979,-0.5382,-0.227,-0.7623,-0.3836c-0.2491,-0.1741,-0.4543,-0.3937,-0.61,-0.6525c-0.1658,-0.2757,-0.2567,-0.6073,-0.2702,-0.9854c-0.0111,-0.3077,0.0386,-0.61,0.1475,-0.8984c0.111,-0.2942,0.2837,-0.5586,0.5133,-0.7859c0.2213,-0.219,0.4945,-0.398,0.8119,-0.5319c0.2089,-0.088,0.4406,-0.152,0.6898,-0.1906V6.78h1.196v0.7596c0.1038,0.0193,0.2029,0.0441,0.2958,0.0741c0.2572,0.0831,0.4693,0.1762,0.6484,0.2846c0.176,0.1065,0.3125,0.2066,0.4175,0.3061c0.0726,0.0688,0.489,0.4607,0.489,0.4607l-0.8079,0.897l-0.106,-0.0997c0,0,-0.3175,-0.2988,-0.3906,-0.3682c-0.0187,-0.0177,-0.077,-0.0679,-0.2139,-0.1508c-0.0843,-0.0511,-0.1958,-0.1008,-0.3324,-0.1482V11.2c0.1078,0.0313,0.2151,0.0631,0.3212,0.0954c0.3197,0.0972,0.6135,0.2275,0.8732,0.3873c0.2902,0.1785,0.5318,0.4096,0.7181,0.6868c0.2024,0.3015,0.3129,0.6754,0.3285,1.1114c0.0138,0.3847,-0.0423,0.7538,-0.1667,1.097c-0.1266,0.349,-0.3209,0.6624,-0.5778,0.9314c-0.2533,0.2655,-0.5667,0.4817,-0.9314,0.6427c-0.1754,0.0774,-0.3651,0.14,-0.565,0.1864v0.8816H11.3993zM12.5954,15.0726c0.0304,-0.0115,0.0602,-0.0236,0.0891,-0.0364c0.2204,-0.0972,0.4052,-0.223,0.549,-0.3739c0.1419,-0.1487,0.2446,-0.3139,0.314,-0.5052c0.0702,-0.1938,0.1018,-0.4064,0.0937,-0.632c-0.0072,-0.2028,-0.0479,-0.3609,-0.1209,-0.4697c-0.0901,-0.1342,-0.2044,-0.2428,-0.3493,-0.332c-0.1678,-0.1031,-0.3613,-0.1892,-0.5755,-0.2561V15.0726zM11.3993,8.7676c-0.0832,0.0207,-0.1609,0.0461,-0.2319,0.076c-0.1766,0.0745,-0.3232,0.1687,-0.4356,0.28c-0.1061,0.1049,-0.1815,0.2194,-0.2309,0.35c-0.0516,0.1368,-0.0742,0.2736,-0.0689,0.4183c0.006,0.1669,0.0381,0.3,0.0954,0.3953c0.0683,0.1136,0.1556,0.2067,0.267,0.2847c0.1342,0.0938,0.2931,0.1729,0.4721,0.2352c0.0438,0.0152,0.0881,0.0303,0.1328,0.0452V8.7676z" fill="#FFFFFF" opacity="0.5"/>
  </g>
</svg>
