<?xml version="1.0" encoding="UTF-8"?>
<!DOCTYPE svg PUBLIC "-//W3C//DTD SVG 1.1//EN" "http://www.w3.org/Graphics/SVG/1.1/DTD/svg11.dtd">
<svg version="1.1" id="Layer_1" xmlns="http://www.w3.org/2000/svg" xmlns:xlink="http://www.w3.org/1999/xlink" x="0px" y="0px" width="24px" height="24px" viewBox="0 0 24 24" enable-background="new 0 0 24 24" xml:space="preserve">
  <g id="icon">
    <path d="M21.95,19.95h-20c-0.55,0,-1,-0.45,-1,-1v-14c0,-0.55,0.45,-1,1,-1h20c0.55,0,1,0.45,1,1v14C22.95,19.5,22.5,19.95,21.95,19.95z" fill="#FFFFFF" opacity="0.5"/>
    <path d="M0,18.5V5.5c0,-1.3807,1.1193,-2.5,2.5,-2.5h19c1.3807,0,2.5,1.1193,2.5,2.5v13c0,1.3807,-1.1193,2.5,-2.5,2.5H2.5C1.1193,21,0,19.8807,0,18.5zM2,5.5v13c0,0.2761,0.2239,0.5,0.5,0.5h19c0.2761,0,0.5,-0.2239,0.5,-0.5V5.5c0,-0.2761,-0.2239,-0.5,-0.5,-0.5H2.5C2.2239,5,2,5.2239,2,5.5z" fill="#7B7B7B"/>
    <path d="M3.4235,9.4953h0.9027c0.5421,0,1.3373,0.4947,1.3373,1.3744l-0.0003,0.0103l0.0003,0.0106c0,0.8797,-0.7952,1.3745,-1.3373,1.3745h-0.9027V9.4953L3.4235,9.4953zM3.9431,11.8033c0,0,1.1592,0.1313,1.1592,-0.8994v-0.0164c0,-1.0307,-1.1592,-0.8994,-1.1592,-0.8994V11.8033zM5.9005,12.2697h0.5515V9.4953h-0.5515V12.2697zM8.4409,9.7762c0,0,-0.3617,-0.327,-0.7781,-0.327c-0.466,0,-0.8811,0.2768,-0.8811,0.8353c0,0.6219,0.6419,0.7088,0.8764,0.7958c0.2347,0.0865,0.3165,0.2265,0.3165,0.3681c0,0.0959,-0.021,0.3863,-0.4012,0.3863c-0.3799,0,-0.5981,-0.3681,-0.5981,-0.3681l-0.3438,0.3452c0,0,0.3077,0.5265,0.9903,0.5265c0.4332,0,0.9149,-0.3135,0.9149,-0.9311c0,-0.6179,-0.5121,-0.7227,-0.8601,-0.8687c-0.3483,-0.1464,-0.3438,-0.2132,-0.3438,-0.332c0,-0.1188,0.1409,-0.2813,0.3844,-0.2813c0.2437,0,0.4256,0.2102,0.4256,0.2102L8.4409,9.7762zM10.8281,9.5939c-0.2012,-0.1058,-0.4278,-0.1656,-0.6704,-0.1656c-0.8021,0,-1.4522,0.6534,-1.4522,1.4593c0,0.8062,0.65,1.4593,1.4522,1.4593c0.2421,0,0.4694,-0.0589,0.6704,-0.1642l0.0003,-0.6537c-0.1704,0.1745,-0.4084,0.3019,-0.6706,0.3019c-0.5185,0,-0.9388,-0.4224,-0.9388,-0.9434c0,-0.521,0.4203,-0.9431,0.9388,-0.9431c0.2643,0,0.4998,0.1286,0.6704,0.3056V9.5939zM14.9952,12.3402h0.3418l1.1608,-2.8449h-0.5938l-0.7162,1.8176l-0.7599,-1.8176h-0.5938L14.9952,12.3402zM18.5896,9.4953h0.8998c0.2874,0,0.8589,0.1572,0.8589,0.8174c0,0.6602,-0.5912,0.797,-0.5912,0.797l0.8429,1.16h-0.6701l-0.7447,-1.1071h-0.057v1.1071h-0.5386V9.4953L18.5896,9.4953zM19.1276,9.9579v0.8095h0.2967c0.2283,0,0.3725,-0.2068,0.3725,-0.3873v-0.0349c0,-0.1806,-0.1442,-0.3873,-0.3725,-0.3873H19.1276zM17.2513,10.5889v-0.6044h0.9812v-0.4892h-1.529v2.7744h1.529v-0.4892h-0.9812v-0.7023h0.9376v-0.4893H17.2513zM6.658,14.5172h0.1965v-0.9246c0.0383,0.0545,0.0809,0.1041,0.1278,0.1489l0.8589,0.8273V13.187h-0.1965v0.9227c-0.0332,-0.0408,-0.0583,-0.0707,-0.0735,-0.0888c-0.0156,-0.0181,-0.0396,-0.0429,-0.0719,-0.0735l-0.8412,-0.8119V14.5172zM8.5079,14.5172h0.7386v-0.1934h-0.5238v-0.4301h0.5238v-0.1897h-0.5238v-0.333h0.5238v-0.184h-0.7386V14.5172zM10.2182,13.3634h0.2897v-0.184h-0.7955v0.184h0.291v1.1602h0.2149V13.3634zM10.9661,13.187l0.5111,1.3818l0.296,-0.7546c0.0227,-0.0563,0.0433,-0.1195,0.063,-0.1902c0.0163,0.0573,0.0376,0.1192,0.065,0.1862l0.3017,0.7586l0.5128,-1.3818l-0.2151,-0.0002l-0.249,0.6766c-0.0113,0.0321,-0.0234,0.0689,-0.037,0.1101c-0.0133,0.0405,-0.0223,0.073,-0.0273,0.0967c-0.0207,-0.0722,-0.0439,-0.1426,-0.0693,-0.2114l-0.2797,-0.7225l-0.2661,0.7094l-0.0269,0.0806c-0.0154,0.0462,-0.0303,0.0937,-0.0453,0.1423c-0.0113,-0.0375,-0.022,-0.0726,-0.0332,-0.1061c-0.011,-0.0334,-0.0234,-0.0679,-0.037,-0.104l-0.2505,-0.6716L10.9661,13.187zM14.121,13.5016c-0.0926,-0.097,-0.2058,-0.1452,-0.3403,-0.1452c-0.1349,0,-0.2372,0.0358,-0.3074,0.1077c-0.0706,0.0724,-0.1175,0.1386,-0.1409,0.1988c-0.0233,0.0602,-0.0352,0.1245,-0.0352,0.1928c0,0.1379,0.0469,0.2553,0.1409,0.352c0.0935,0.0974,0.2078,0.1459,0.3427,0.1459c0.1329,0,0.2467,-0.0492,0.3413,-0.1466c0.0942,-0.0976,0.1419,-0.2145,0.1419,-0.3513C14.2639,13.7178,14.2162,13.5997,14.121,13.5016L14.121,13.5016zM14.2802,14.3492c-0.1392,0.1366,-0.306,0.2052,-0.4995,0.2052c-0.0966,0,-0.1871,-0.0175,-0.2724,-0.0522c-0.0849,-0.0352,-0.1615,-0.0857,-0.2298,-0.1519c-0.0675,-0.0663,-0.1189,-0.1415,-0.1535,-0.2252c-0.0343,-0.0841,-0.0519,-0.1737,-0.0519,-0.2694c0,-0.1951,0.0693,-0.3601,0.2064,-0.4952c0.1379,-0.1355,0.3047,-0.2032,0.5013,-0.2032c0.1948,0,0.3612,0.068,0.4995,0.2038c0.1382,0.1362,0.2075,0.3009,0.2075,0.4946C14.4876,14.0494,14.4183,14.2141,14.2802,14.3492zM15.2445,13.7546c0.1049,0,0.1784,-0.0113,0.2204,-0.0338c0.0419,-0.0221,0.063,-0.072,0.063,-0.149c0,-0.0779,-0.0216,-0.1308,-0.0653,-0.158c-0.0429,-0.0274,-0.1155,-0.0408,-0.218,-0.0408h-0.0386v0.3815H15.2445L15.2445,13.7546zM15.1929,14.5172h-0.2017V13.187h0.2997c0.0802,0,0.1454,0.0051,0.1961,0.0148c0.0506,0.01,0.096,0.0305,0.1352,0.0616c0.0397,0.0307,0.0702,0.0709,0.0926,0.1208c0.0223,0.0496,0.0334,0.1061,0.0334,0.1693c0,0.2145,-0.1013,0.3343,-0.3034,0.3591l0.4552,0.6047l-0.2418,-0.0007l-0.4412,-0.595l-0.024,0.0004V14.5172zM16.3567,14.5172h0.2149v-0.678l0.5228,0.6787l0.2788,-0.0007l-0.5868,-0.7385l0.5238,-0.5917h-0.2628l-0.4758,0.5515v-0.5515h-0.2149V14.5172z" fill="#6D6E71"/>
    <ellipse cx="12.4991" cy="10.8962" rx="1.4318" ry="1.4387" fill="#F1876B"/>
  </g>
</svg>
