<?xml version="1.0" encoding="UTF-8"?>
<!DOCTYPE svg PUBLIC "-//W3C//DTD SVG 1.1//EN" "http://www.w3.org/Graphics/SVG/1.1/DTD/svg11.dtd">
<svg version="1.1" id="Layer_1" xmlns="http://www.w3.org/2000/svg" xmlns:xlink="http://www.w3.org/1999/xlink" x="0px" y="0px" width="24px" height="24px" viewBox="0 0 24 24" enable-background="new 0 0 24 24" xml:space="preserve">
  <g id="icon">
    <path d="M16.4,13.4899c-0.2629,0.0749,-0.3874,0.3517,-0.6939,1.1825c-0.3461,0.9381,-0.653,1.9241,-0.9498,2.8776c-0.4877,1.5669,-0.992,3.1872,-1.7015,4.7185c-0.0438,0.0985,-0.0842,0.1911,-0.1221,0.2779c-0.309,0.7075,-0.4792,1.0973,-0.9361,1.0973c-0.45,0,-0.6203,-0.3898,-0.9293,-1.0975c-0.0379,-0.0867,-0.0783,-0.1793,-0.1209,-0.2752c-0.6521,-1.4076,-1.0793,-2.867,-1.4924,-4.2784c-0.3123,-1.0668,-0.6351,-2.1698,-1.0502,-3.2269c-0.3969,-1.0108,-0.5427,-1.2909,-0.9038,-1.3296v-0.1076c0.7924,-0.1482,1.6402,-0.2555,2.5282,-0.3193c0.6384,-0.0458,1.2975,0.6518,1.9718,0.6518c0.6366,0,1.2598,-0.7003,1.8647,-0.6594c0.8896,0.0601,1.7398,0.1636,2.5353,0.3081V13.4899zM20,20h-4v1h4V20z" fill="#FFFFFF" opacity="0.5"/>
    <path d="M11.2837,16.7696c-0.302,-0.4324,-0.4842,-0.573,-0.4842,-0.9993c0.0397,-0.9217,0.1471,-0.7432,1.248,-0.7432c1.1009,0,1.2258,-0.1785,1.1861,0.7414c0.0102,0.4172,-0.03,0.5929,-0.4302,1.0027c-0.0091,0.6805,0.1414,2.1764,0.3022,3.5618c-0.2126,0.5752,-0.4429,1.1448,-0.7006,1.701c-0.0442,0.0996,-0.0852,0.1933,-0.1235,0.2811c-0.0953,0.2182,-0.1996,0.4569,-0.2814,0.6023c-0.0818,-0.1453,-0.186,-0.384,-0.2813,-0.602c-0.0383,-0.0878,-0.0793,-0.1816,-0.1264,-0.2876c-0.2311,-0.4989,-0.4334,-1.0072,-0.6176,-1.5191C11.1164,19.0837,11.2623,17.4902,11.2837,16.7696z" fill="#CB525D"/>
    <path d="M18.1156,13.5631c-2.0217,-0.4843,-2.0446,-0.4511,-2.5993,1.0524c-0.9112,2.4698,-1.5059,5.1226,-2.6472,7.5861c-0.3777,0.8506,-0.5113,1.2645,-0.8691,1.2619c-0.3578,0.0026,-0.4914,-0.4113,-0.8691,-1.2619c-1.1414,-2.4635,-1.5742,-5.0401,-2.5386,-7.496c-0.6519,-1.66,-0.7091,-1.6789,-2.7079,-1.1425C2.5001,14.4713,0,17.9634,0,20.7788c0,4.0978,6,3.2254,12,3.2254s12,0.5692,12,-3.2254C24,17.9329,21.533,14.3816,18.1156,13.5631zM20,21h-4v-1h4V21z" fill="#7B7B7B"/>
    <path d="M11.9826,13.2042h0.0227c0.8071,-0.008,1.544,-0.3715,2.0675,-1.0235c1.7603,-2.1923,2.6159,-4.3744,2.6159,-6.6709c0,-0.3188,-0.0605,-0.6689,-0.1132,-0.9382c-0.4262,-2.1791,-1.9068,-3.2403,-4.5261,-3.2443h-0.111c-2.619,0.004,-4.0999,1.0652,-4.5262,3.2443c-0.0527,0.2693,-0.1132,0.6194,-0.1132,0.9382c0,2.2965,0.8557,4.4786,2.616,6.671C10.4386,12.8327,11.1727,13.1961,11.9826,13.2042z" fill-rule="evenodd" fill="#FFFFFF" opacity="0.5"/>
    <path d="M11.9715,14.5c-1.2896,-0.0113,-2.4474,-0.5665,-3.2604,-1.5632C6.7442,10.5256,5.788,8.1001,5.788,5.5217c0,-0.4279,0.074,-0.8548,0.1384,-1.1788C6.49,1.5068,8.5686,0.0051,11.9373,0h0.1134c3.3688,0.0051,5.4473,1.5068,6.0109,4.3429c0.0644,0.3239,0.1383,0.7506,0.1383,1.1788c0,2.5784,-0.9561,5.0039,-2.923,7.415c-0.8123,0.9956,-1.9712,1.5508,-3.2633,1.5632l-0.0346,0L11.9715,14.5zM11.9387,1.5033c-2.5641,0.0038,-4.0125,1.0224,-4.4282,3.1138c-0.0519,0.2606,-0.1113,0.5989,-0.1113,0.9046c0,2.2371,0.8485,4.3648,2.594,6.5045c0.5042,0.6181,1.2111,0.9628,1.9904,0.9705h0.0217c0.7783,-0.0076,1.4852,-0.3523,1.9896,-0.9705c1.7454,-2.1397,2.5939,-4.2674,2.5939,-6.5045c0,-0.3055,-0.0595,-0.6439,-0.1113,-0.9046c-0.4156,-2.0914,-1.8641,-3.11,-4.4281,-3.1138H11.9387z" fill="#7B7B7B"/>
    <path d="M6.1984,6.9845c-0.072,-0.4881,-0.1085,-0.9832,-0.1085,-1.4746c0,-0.4108,0.0711,-0.8272,0.1331,-1.1441c0.5335,-2.727,2.5096,-4.171,5.7148,-4.1759h0.1129c3.2047,0.0049,5.1809,1.4489,5.7143,4.1759c0.062,0.3169,0.1331,0.7334,0.1331,1.1441c0,0.3605,-0.02,0.7261,-0.0596,1.0896h-0.9588c-0.0937,-0.2212,-0.2749,-0.4281,-0.4424,-0.545c-0.4152,-0.2895,-0.9245,-0.5617,-1.4171,-0.8249c-0.3763,-0.2011,-0.7655,-0.4091,-1.0949,-0.6164l-0.1291,-0.0812l-0.1351,0.072c-0.2954,0.1573,-0.5947,0.3284,-0.8842,0.4938c-0.6663,0.3808,-1.3553,0.7746,-2.0831,1.0536c-0.71,0.2721,-1.5829,0.4605,-2.4272,0.6427c-0.299,0.0646,-0.582,0.1256,-0.859,0.1904H6.1984z" fill="#7B7B7B"/>
  </g>
</svg>
