<?xml version="1.0" encoding="UTF-8"?>
<!DOCTYPE svg PUBLIC "-//W3C//DTD SVG 1.1//EN" "http://www.w3.org/Graphics/SVG/1.1/DTD/svg11.dtd">
<svg version="1.1" id="Layer_1" xmlns="http://www.w3.org/2000/svg" xmlns:xlink="http://www.w3.org/1999/xlink" x="0px" y="0px" width="24px" height="24px" viewBox="0 0 24 24" enable-background="new 0 0 24 24" xml:space="preserve">
  <g id="icon">
    <path d="M21.4583,21.95H2.4417c-0.8238,0,-1.4917,-0.6678,-1.4917,-1.4917V2.4417C0.95,1.6178,1.6178,0.95,2.4417,0.95h19.0167c0.8238,0,1.4917,0.4678,1.4917,1.2917v18.0167C22.95,21.0822,22.2822,21.95,21.4583,21.95z" fill="#FFFFFF" opacity="0.5"/>
    <path d="M0,19.7625V3.2375C0,1.4495,1.4495,0,3.2375,0h17.525C22.5505,0,24,1.4495,24,3.2375v16.525c0,1.788,-1.4495,3.2375,-3.2375,3.2375H3.2375C1.4495,23,0,21.5505,0,19.7625zM2,3.2375v16.525C2,20.446,2.554,21,3.2375,21h17.525c0.6835,0,1.2375,-0.554,1.2375,-1.2375V3.2375C22,2.554,21.446,2,20.7625,2H3.2375C2.554,2,2,2.554,2,3.2375z" fill="#7B7B7B"/>
    <path d="M5,4v2H3v4h2v3H3v4h2v2h15V4H5zM19,18H6V5h13V18zM4,22.7h4v1.3H4V22.7zM16,22.7h4v1.3h-4V22.7z" fill="#7B7B7B"/>
    <path d="M13.2897,16.6537h-1.5v-1.4766c-0.4353,-0.0908,-0.8567,-0.2617,-1.2411,-0.5126l-1.173,1.1731l-1.0607,-1.0607l1.1731,-1.173c-0.2617,-0.4009,-0.4363,-0.8423,-0.5239,-1.2974H7.4457v-1.5h1.542c0.0935,-0.4151,0.2604,-0.8171,0.5004,-1.1848L8.2586,8.3923l1.0607,-1.0607l1.2288,1.2289c0.3786,-0.2481,0.7985,-0.4221,1.2417,-0.5144V6.4463h1.5v1.5998c0.4432,0.0923,0.8631,0.2662,1.2417,0.5144l1.1854,-1.1855l1.0607,1.0607l-1.186,1.186c0.24,0.3677,0.4069,0.7696,0.5004,1.1848H17.65v1.5h-1.5346c-0.0876,0.4551,-0.2622,0.8966,-0.5239,1.2974l1.186,1.186l-1.0607,1.0607l-1.186,-1.1861c-0.3842,0.2508,-0.8061,0.4217,-1.2411,0.5125V16.6537zM12.5397,9.4693c-0.5725,0,-1.1107,0.223,-1.5156,0.6279c-0.8358,0.8357,-0.8358,2.1955,0,3.0312c0.8356,0.8358,2.1955,0.8356,3.0313,0c0.8357,-0.8357,0.8357,-2.1955,0,-3.0312C13.6505,9.6923,13.1123,9.4693,12.5397,9.4693z" fill="#6485C3"/>
  </g>
</svg>
