<?xml version="1.0" encoding="UTF-8"?>
<!DOCTYPE svg PUBLIC "-//W3C//DTD SVG 1.1//EN" "http://www.w3.org/Graphics/SVG/1.1/DTD/svg11.dtd">
<svg version="1.1" id="Layer_1" xmlns="http://www.w3.org/2000/svg" xmlns:xlink="http://www.w3.org/1999/xlink" x="0px" y="0px" width="24px" height="24px" viewBox="0 0 24 24" enable-background="new 0 0 24 24" xml:space="preserve">
  <g id="icon">
    <path d="M21.6998,2h-7.2415L2.8409,13.6986l7.4956,7.4987L22,9.5464V2.3002C22,2.1347,21.8653,2,21.6998,2zM18.5,7.35c-1.0217,0,-1.85,-0.8507,-1.85,-1.9s0.8283,-1.9,1.85,-1.9s1.85,0.8507,1.85,1.9S19.5217,7.35,18.5,7.35z" fill="#FFFFFF" opacity="0.5"/>
    <path d="M10.3411,24.0309L0.0117,13.6972L13.6308,0h8.069C22.9681,0,24,1.0319,24,2.3002v8.0707L10.3411,24.0309zM2.8409,13.6986l7.4956,7.4987L22,9.5464V2.3002c0,-0.1655,-0.1347,-0.3002,-0.3002,-0.3002h-7.2415L2.8409,13.6986z" fill="#EEAC55"/>
    <path d="M18.5,8c-1.3785,0,-2.5,-1.1215,-2.5,-2.5s1.1215,-2.5,2.5,-2.5s2.5,1.1215,2.5,2.5S19.8785,8,18.5,8zM18.5,4.1c-0.772,0,-1.4,0.628,-1.4,1.4s0.628,1.4,1.4,1.4s1.4,-0.628,1.4,-1.4S19.272,4.1,18.5,4.1z" fill="#EEAC55"/>
    <polygon points="8.5945,16.6916 7.8119,15.909 9.6118,14.1092 8.1249,12.6223 8.9075,11.8397 10.3943,13.3266 11.1769,12.544 9.69,11.0572 10.4726,10.2746 11.6267,11.4287 12.6766,6.6402 13.7577,6.8773 12.689,11.751 17.5435,10.683 17.7813,11.7639 13.0113,12.8133 14.1506,13.9526 13.3681,14.7352 11.9595,13.3266 11.1769,14.1092 12.5855,15.5178 11.8029,16.3003 10.3943,14.8917" fill="#EEAC55" stroke-linejoin="miter"/>
  </g>
</svg>
