<?xml version="1.0" encoding="UTF-8"?>
<!DOCTYPE svg PUBLIC "-//W3C//DTD SVG 1.1//EN" "http://www.w3.org/Graphics/SVG/1.1/DTD/svg11.dtd">
<svg version="1.1" id="Layer_1" xmlns="http://www.w3.org/2000/svg" xmlns:xlink="http://www.w3.org/1999/xlink" x="0px" y="0px" width="32px" height="32px" viewBox="0 0 32 32" enable-background="new 0 0 32 32" xml:space="preserve">
  <g id="icon">
    <path d="M11.5,1.5v7.381c3.418,0.514,6.044,3.415,6.044,6.906c0,1.9,-0.797,3.729,-2.192,5.04c0.94,0.579,1.8,1.315,2.558,2.189c0.404,0.465,0.77,0.962,1.098,1.484H30.5V1.5H11.5z" fill="#FFFFFF"/>
    <path d="M11.5,1.5v7.381c3.418,0.514,6.044,3.415,6.044,6.906c0,1.9,-0.797,3.729,-2.192,5.04c0.94,0.579,1.8,1.315,2.558,2.189c0.404,0.465,0.77,0.962,1.098,1.484H30.5V1.5H11.5z" fill="#C8C6C4" opacity="0.4"/>
    <path d="M31,1v24H19.307c-0.194,-0.343,-0.404,-0.677,-0.63,-1H30V2H12v6.976c-0.326,-0.073,-0.659,-0.124,-1,-0.151V1H31z" fill="#383838"/>
    <path d="M17.433,17H22v1h-4.826C17.285,17.674,17.372,17.34,17.433,17zM17.498,15H22v-1h-4.693C17.395,14.325,17.459,14.659,17.498,15zM15.352,20.827c0.091,0.056,0.18,0.115,0.269,0.173H22v-1h-5.899C15.875,20.293,15.626,20.57,15.352,20.827zM14,5v1h8V5H14zM14,9h8V8h-8V9zM16.401,12H22v-1h-6.399C15.897,11.308,16.165,11.643,16.401,12z" fill="#787979"/>
    <path d="M24,5h4v1h-4V5zM24,8h4v1h-4V8zM24,11h4v1h-4V11zM24,14h4v1h-4V14zM24,17h4v1h-4V17zM24,20h4v1h-4V20z" fill="#EF3E3B"/>
    <path d="M15.844,15.787c0,2.92,-2.431,5.287,-5.431,5.287s-5.431,-2.367,-5.431,-5.287S7.414,10.5,10.414,10.5S15.844,12.867,15.844,15.787zM19.205,30.987c0,-5.098,-3.941,-9.891,-8.802,-9.891S1.6,25.889,1.6,30.987" fill="#92CBEE" stroke="#0964B0" stroke-width="1.1" stroke-miterlimit="1"/>
  </g>
</svg>
