<?xml version="1.0" encoding="UTF-8"?>
<!DOCTYPE svg PUBLIC "-//W3C//DTD SVG 1.1//EN" "http://www.w3.org/Graphics/SVG/1.1/DTD/svg11.dtd">
<svg version="1.1" id="Layer_1" xmlns="http://www.w3.org/2000/svg" xmlns:xlink="http://www.w3.org/1999/xlink" x="0px" y="0px" width="32px" height="32px" viewBox="0 0 32 32" enable-background="new 0 0 32 32" xml:space="preserve">
  <g id="icon">
    <path d="M4.5,6.5v7.596l7,-4.139l11.5,6.8V20h-2.001c-0.017,0.727,-0.412,1.362,-0.999,1.712v3.576c0.588,0.35,0.982,0.985,0.999,1.712H23v0.5h7.5V6.5H4.5z" fill="#FFFFFF"/>
    <polygon points="4,6 4,14.392 5,13.801 5,7 30,7 30,27 23,27 23,28 31,28 31,6" fill="#383838" stroke-linejoin="miter"/>
    <polygon points="11.5,9.957 12,10.253 12,6.5 11,6.5 11,10.253" fill="#383838" stroke-linejoin="miter"/>
    <rect x="4.5" y="1.5" width="26" height="5" fill="#92CBEE"/>
    <path d="M4,1v6h27V1H4zM30,6H5V2h25V6z" fill="#0964B0"/>
    <path d="M22,3h2v2h-2V3zM20,3h-2v2h2V3zM26,3v2h2V3H26z" fill="#383838"/>
    <path d="M20,23h1v2h-1V23zM23,25h4v-2h-4V25zM23,20h5v-1h-5V20zM23,16.757V17h5v-1h-6.28L23,16.757zM13,10v0.844l0.263,0.156H28v-1H13zM18.337,14H28v-1H16.646L18.337,14z" fill="#787979"/>
    <polygon points="21.5,18.5 21.5,17.613 11.5,11.7 1.5,17.613 1.5,18.5 6.5,18.5 6.5,28.5 1.5,28.5 1.5,30.5 21.5,30.5 21.5,28.5 16.6,28.5 16.6,18.5" fill="#FFFFFF" stroke-linejoin="miter"/>
    <polygon points="21.5,18.5 21.5,17.613 11.5,11.7 1.5,17.613 1.5,18.5 6.5,18.5 6.5,28.5 1.5,28.5 1.5,30.5 21.5,30.5 21.5,28.5 16.6,28.5 16.6,18.5" fill="#C8C6C4" stroke-linejoin="miter" opacity="0.4"/>
    <rect x="9.5" y="22.5" width="4" height="6.1" fill="#F7DA8E" stroke="#E57428" stroke-width="1" stroke-miterlimit="1"/>
    <path d="M6.95,20.5h-2.9c-0.304,0,-0.55,-0.246,-0.55,-0.55V18.5h4v1.45C7.5,20.254,7.254,20.5,6.95,20.5zM6.95,26.5h-2.9c-0.304,0,-0.55,0.246,-0.55,0.55V28.5h4v-1.45C7.5,26.746,7.254,26.5,6.95,26.5zM6.5,20.5H4.5v6h2V20.5zM18.95,20.5h-2.9c-0.304,0,-0.55,-0.246,-0.55,-0.55V18.5h4v1.45C19.5,20.254,19.254,20.5,18.95,20.5zM18.95,26.5h-2.9c-0.304,0,-0.55,0.246,-0.55,0.55V28.5h4v-1.45C19.5,26.746,19.254,26.5,18.95,26.5zM18.5,20.5h-2v6h2V20.5z" fill="#C8C6C4"/>
    <path d="M22,31H1v-3h21V31zM2,30h19v-1H2V30z" fill="#383838"/>
    <path d="M22,19H1v-1.673l10.5,-6.208l10.5,6.208V19zM2,18h19v-0.102l-9.5,-5.617l-9.5,5.617V18z" fill="#383838"/>
    <path d="M20,29h-5v-1.95c0,-0.562,0.444,-1.023,1,-1.049v-5.002c-0.556,-0.026,-1,-0.487,-1,-1.049V18h5v1.95c0,0.562,-0.444,1.023,-1,1.049v5.002c0.556,0.026,1,0.487,1,1.049V29zM16,28h3v-0.95c0,-0.028,-0.022,-0.05,-0.05,-0.05h-2.9c-0.028,0,-0.05,0.022,-0.05,0.05V28zM17,26h1v-5h-1V26zM16.05,20h2.9c0.028,0,0.05,-0.022,0.05,-0.05V19h-3v0.95C16,19.978,16.022,20,16.05,20zM8,29H3v-1.95c0,-0.562,0.444,-1.023,1,-1.049v-5.002c-0.556,-0.026,-1,-0.487,-1,-1.049V18h5v1.95c0,0.562,-0.444,1.023,-1,1.049v5.002c0.556,0.026,1,0.487,1,1.049V29zM4,28h3v-0.95c0,-0.028,-0.022,-0.05,-0.05,-0.05h-2.9c-0.028,0,-0.05,0.022,-0.05,0.05V28zM5,26h1v-5H5V26zM4.05,20h2.9c0.028,0,0.05,-0.022,0.05,-0.05V19H4v0.95C4,19.978,4.022,20,4.05,20z" fill="#383838"/>
    <circle cx="11.5" cy="15.5" r="1.2" fill="#C8C6C4" stroke="#383838" stroke-width="1" stroke-miterlimit="1"/>
  </g>
</svg>
