<?xml version="1.0" encoding="UTF-8"?>
<!DOCTYPE svg PUBLIC "-//W3C//DTD SVG 1.1//EN" "http://www.w3.org/Graphics/SVG/1.1/DTD/svg11.dtd">
<svg version="1.1" id="Layer_1" xmlns="http://www.w3.org/2000/svg" xmlns:xlink="http://www.w3.org/1999/xlink" x="0px" y="0px" width="32px" height="32px" viewBox="0 0 32 32" enable-background="new 0 0 32 32" xml:space="preserve">
  <g id="icon">
    <path d="M16,1.5v4.9M20.978,7.668l1.601,-4.641M28.8,6.462L25.608,10.3M11.146,7.668L9.545,3.027M3.324,6.462L6.516,10.3" fill="#FFFFFF" stroke="#ED8730" stroke-width="1" stroke-linecap="round" stroke-miterlimit="1"/>
    <polygon points="5.8,16.2 15.9,29.9 26.2,16.4 22.2,11.5 9.6,11.6" fill="#FFFFFF" stroke-linejoin="miter"/>
    <polygon points="5.8,16.2 15.9,29.9 26.2,16.4 22.2,11.5 9.6,11.6" fill="#C8C6C4" stroke-linejoin="miter" opacity="0.5"/>
    <path d="M5.017,16.318L9.447,11h13.202l4.429,5.318l-11.03,14.688L5.017,16.318zM16.048,28.667L19.69,17h-7.286L16.048,28.667zM14.7,27.6l-3.326,-10.6H6.802L14.7,27.6zM17.4,27.6l7.893,-10.6h-4.472L17.4,27.6zM21.032,16h4.281l-2.642,-3.311L21.032,16zM12.623,16h6.85l-3.425,-3.557L12.623,16zM6.782,16h4.281l-1.739,-3.311L6.782,16zM11.9,15.331L15.001,12H10.25L11.9,15.331zM20.196,15.331l1.65,-3.331h-4.751L20.196,15.331z" fill="#383838"/>
  </g>
</svg>
