<?xml version="1.0" encoding="UTF-8"?>
<!DOCTYPE svg PUBLIC "-//W3C//DTD SVG 1.1//EN" "http://www.w3.org/Graphics/SVG/1.1/DTD/svg11.dtd">
<svg version="1.1" id="Layer_1" xmlns="http://www.w3.org/2000/svg" xmlns:xlink="http://www.w3.org/1999/xlink" x="0px" y="0px" width="32px" height="32px" viewBox="0 0 32 32" enable-background="new 0 0 32 32" xml:space="preserve">
  <g id="icon">
    <path d="M21.148,30.4H0.952v-1.667h20.195V30.4zM11.05,10.8L0.7,16.477v1.118h3.131v11.071h14.516V17.594H21.4v-1.118L11.05,10.8z" fill="#FFFFFF"/>
    <path d="M21.148,30.4H0.952v-1.667h20.195V30.4zM11.05,10.8L0.7,16.477v1.118h3.131v11.071h14.516V17.594H21.4v-1.118L11.05,10.8z" fill="#C8C6C4" opacity="0.4"/>
    <rect x="8.5" y="21.5" width="5" height="7" fill="#F7DA8E" stroke="#E57428" stroke-width="1" stroke-linecap="round" stroke-miterlimit="1"/>
    <rect x="0.5" y="28.5" width="21" height="2" fill="none" stroke="#383838" stroke-width="1" stroke-miterlimit="1"/>
    <path d="M11,10.7l10.5,5.913V17.5H0.5v-0.887L11,10.7z" fill="none" stroke="#383838" stroke-width="1" stroke-miterlimit="1"/>
    <circle cx="11" cy="14.5" r="1.2" fill="#C8C6C4" stroke="#383838" stroke-width="1" stroke-linecap="round" stroke-miterlimit="1"/>
    <path d="M5.95,19.5h-2.9c-0.304,0,-0.55,-0.246,-0.55,-0.55V17.5h4v1.45C6.5,19.254,6.254,19.5,5.95,19.5zM5.95,26.5h-2.9c-0.304,0,-0.55,0.246,-0.55,0.55V28.5h4v-1.45C6.5,26.746,6.254,26.5,5.95,26.5zM5.5,19.5H3.5v7h2V19.5zM18.95,19.5h-2.9c-0.304,0,-0.55,-0.246,-0.55,-0.55V17.5h4v1.45C19.5,19.254,19.254,19.5,18.95,19.5zM18.95,26.5h-2.9c-0.304,0,-0.55,0.246,-0.55,0.55V28.5h4v-1.45C19.5,26.746,19.254,26.5,18.95,26.5zM18.5,19.5h-2v7h2V19.5z" fill="#C8C6C4" stroke="#383838" stroke-width="1" stroke-linecap="round" stroke-miterlimit="1"/>
    <path d="M20.845,19.733h10.303V21.4H20v-0.688C20.378,20.487,20.676,20.143,20.845,19.733zM21.05,1.8L10.7,7.477v1.118h3.131v1.978L23,15.736V19h-2.001c-0.006,0.234,-0.051,0.458,-0.128,0.666h7.476V8.594H31.4V7.477L21.05,1.8z" fill="#FFFFFF"/>
    <path d="M20.845,19.733h10.303V21.4H20v-0.688C20.378,20.487,20.676,20.143,20.845,19.733zM21.05,1.8L10.7,7.477v1.118h3.131v1.978L23,15.736V19h-2.001c-0.006,0.234,-0.051,0.458,-0.128,0.666h7.476V8.594H31.4V7.477L21.05,1.8z" fill="#C8C6C4" opacity="0.4"/>
    <path d="M23.5,12.5v7.1h-2.606c0.063,-0.189,0.1,-0.391,0.105,-0.6H23v-3.264l-4.5,-2.534V12.5H23.5z" fill="#FFFFFF"/>
    <path d="M24,12v8h-3.352c0.196,-0.289,0.319,-0.631,0.346,-1H23v-0.1v-3.164V13h-4v0.483l-1,-0.563V12H24z" fill="#E57428"/>
    <path d="M32,19v3H20v-1h11v-1H20.712c0.175,-0.294,0.279,-0.635,0.287,-1H23H32z" fill="#383838"/>
    <path d="M21,1.7l10.5,5.913V8.5H10.5v-0.887L21,1.7z" fill="none" stroke="#383838" stroke-width="1" stroke-miterlimit="1"/>
    <circle cx="21" cy="5.5" r="1.2" fill="#C8C6C4" stroke="#383838" stroke-width="1" stroke-linecap="round" stroke-miterlimit="1"/>
    <path d="M12.5,9.823V8.5h4v1.45c0,0.304,-0.246,0.55,-0.55,0.55H15.5v1.013L12.5,9.823zM28.95,10.5c0.304,0,0.55,-0.246,0.55,-0.55V8.5h-4v1.45c0,0.304,0.246,0.55,0.55,0.55h0.45v7h-0.45c-0.304,0,-0.55,0.246,-0.55,0.55V19.5h4v-1.45c0,-0.304,-0.246,-0.55,-0.55,-0.55H28.5v-7H28.95z" fill="#C8C6C4"/>
    <path d="M14.59,11h0.41v0.231l1,0.563v-0.795c0.556,-0.026,1,-0.487,1,-1.049V8h-5v1.542L14.59,11zM13,9h3v0.95c0,0.028,-0.022,0.05,-0.05,0.05h-2.9c-0.028,0,-0.05,-0.022,-0.05,-0.05V9zM30,9.95V8h-5v1.95c0,0.562,0.444,1.023,1,1.049v6.002c-0.556,0.026,-1,0.487,-1,1.049V20h5v-1.95c0,-0.562,-0.444,-1.023,-1,-1.049v-6.002C29.556,10.973,30,10.512,30,9.95zM29,19h-3v-0.95c0,-0.028,0.022,-0.05,0.05,-0.05h2.9c0.028,0,0.05,0.022,0.05,0.05V19zM27,17v-6h1v6H27zM28.95,10h-2.9c-0.028,0,-0.05,-0.022,-0.05,-0.05V9h3v0.95C29,9.978,28.978,10,28.95,10z" fill="#383838"/>
    <polygon points="23,15.8 19,13.5 19,13 23,13" fill="#F7DA8E" stroke-linejoin="miter"/>
  </g>
</svg>
