<?xml version="1.0" encoding="UTF-8"?>
<!DOCTYPE svg PUBLIC "-//W3C//DTD SVG 1.1//EN" "http://www.w3.org/Graphics/SVG/1.1/DTD/svg11.dtd">
<svg version="1.1" id="Layer_1" xmlns="http://www.w3.org/2000/svg" xmlns:xlink="http://www.w3.org/1999/xlink" x="0px" y="0px" width="32px" height="32px" viewBox="0 0 32 32" enable-background="new 0 0 32 32" xml:space="preserve">
  <g id="icon">
    <path d="M30.5,5.576h-0.025c0,-0.004,0.001,-0.008,0.001,-0.012c0,-2.241,-3.53,-4.058,-7.955,-4.058c-4.425,0,-8.012,1.817,-8.012,4.058c0,0.004,0.001,0.008,0.001,0.012H14.5c0,0,0,2.527,0,3.192c2.271,0.779,3.866,2.094,4.334,3.69l0.166,0.5v3.696c0,0.019,0,0.039,-0.001,0.059l0.001,0.097v3.196c0,0.019,0,0.039,-0.001,0.059l0.001,0.097v3.196c0,0.019,0,0.039,-0.001,0.059l0.001,0.097v2.536c1.058,0.279,2.246,0.447,3.503,0.447c4.42,0,7.997,-2.066,7.997,-3.845c0,-0.46,0,-3.287,0,-3.287h-0.01c0.006,-0.054,0.01,-0.108,0.01,-0.161c0,-0.46,0,-3.287,0,-3.287h-0.01c0.006,-0.054,0.01,-0.108,0.01,-0.161c0,-0.46,0,-3.287,0,-3.287h-0.01c0.006,-0.054,0.01,-0.108,0.01,-0.161c0,-0.46,0,-3.287,0,-3.287h-0.01c0.006,-0.054,0.01,-0.108,0.01,-0.161C30.5,8.403,30.5,5.576,30.5,5.576z" fill="#F7DA8E"/>
    <path d="M31,5.576h-0.025c0,-0.004,0.001,-0.008,0.001,-0.012c0,-2.556,-3.714,-4.558,-8.455,-4.558c-4.773,0,-8.512,2.002,-8.512,4.558c0,0.004,0.001,0.008,0.001,0.012H14v3.032c0.35,0.103,0.685,0.219,1.005,0.346c-0.002,-0.023,-0.005,-0.047,-0.005,-0.07V7.662c0.424,0.403,0.976,0.764,1.65,1.069c1.533,0.693,3.619,1.075,5.871,1.075c2.249,0,4.325,-0.382,5.844,-1.075c0.668,-0.305,1.215,-0.667,1.635,-1.071v1.204c0,1.347,-3.148,3.345,-7.497,3.345c-1.522,0,-2.908,-0.255,-4.065,-0.642c0.172,0.286,0.306,0.584,0.396,0.893l0.101,0.304c1.125,0.291,2.338,0.445,3.568,0.445c3.11,0,6.025,-1.013,7.497,-2.399v1.503c0,1.347,-3.148,3.345,-7.497,3.345c-1.282,0,-2.469,-0.182,-3.503,-0.47v1.042c1.107,0.28,2.297,0.428,3.503,0.428c3.11,0,6.025,-1.013,7.497,-2.399v1.503c0,1.347,-3.148,3.345,-7.497,3.345c-1.282,0,-2.469,-0.182,-3.503,-0.47v1.043c1.107,0.28,2.297,0.428,3.503,0.428c3.11,0,6.025,-1.013,7.497,-2.399v1.503c0,1.347,-3.148,3.345,-7.497,3.345c-1.282,0,-2.469,-0.182,-3.503,-0.47v1.042c1.107,0.28,2.297,0.428,3.503,0.428c3.11,0,6.025,-1.013,7.497,-2.399v1.503c0,1.347,-3.148,3.345,-7.497,3.345c-1.282,0,-2.469,-0.182,-3.503,-0.47v1.042c1.107,0.28,2.297,0.428,3.503,0.428c4.447,0,8.497,-2.071,8.497,-4.345v-3.287h-0.007c0.004,-0.054,0.007,-0.107,0.007,-0.161V15.92h-0.007c0.004,-0.054,0.007,-0.107,0.007,-0.161v-3.287h-0.007c0.004,-0.054,0.007,-0.107,0.007,-0.161V9.024h-0.007c0.004,-0.054,0.007,-0.107,0.007,-0.161V5.576zM22.521,8.805c-4.212,0,-7.512,-1.424,-7.512,-3.241c0,-1.929,3.44,-3.558,7.512,-3.558c4.041,0,7.455,1.63,7.455,3.558C29.976,7.412,26.771,8.805,22.521,8.805z" fill="#E57428"/>
    <path d="M17.5,23.517c0,0,0,2.749,0,3.196c0,1.73,-3.577,3.738,-7.997,3.738c-4.42,0,-8.003,-2.009,-8.003,-3.718c0,-0.383,0,-3.217,0,-3.217" fill="#F7DA8E" stroke="#E57428" stroke-width="1" stroke-miterlimit="1"/>
    <path d="M17.5,20.164c0,0,0,2.749,0,3.196c0,1.73,-3.577,3.738,-7.997,3.738c-4.42,0,-8.003,-2.009,-8.003,-3.718c0,-0.383,0,-3.217,0,-3.217" fill="#F7DA8E" stroke="#E57428" stroke-width="1" stroke-miterlimit="1"/>
    <path d="M17.5,16.811c0,0,0,2.749,0,3.196c0,1.73,-3.577,3.738,-7.997,3.738c-4.42,0,-8.003,-2.009,-8.003,-3.718c0,-0.383,0,-3.217,0,-3.217" fill="#F7DA8E" stroke="#E57428" stroke-width="1" stroke-miterlimit="1"/>
    <path d="M17.5,13.458c0,0,0,2.749,0,3.196c0,1.73,-3.577,3.738,-7.997,3.738c-4.42,0,-8.003,-2.009,-8.003,-3.718c0,-0.383,0,-3.217,0,-3.217" fill="#F7DA8E" stroke="#E57428" stroke-width="1" stroke-miterlimit="1"/>
    <path d="M9.521,9.5c4.425,0,7.955,1.767,7.955,3.946s-3.53,3.638,-7.955,3.638c-4.425,0,-8.012,-1.459,-8.012,-3.638S5.096,9.5,9.521,9.5z" fill="#F7DA8E" stroke="#E57428" stroke-width="1" stroke-miterlimit="1"/>
  </g>
</svg>
