<?xml version="1.0" encoding="UTF-8"?>
<!DOCTYPE svg PUBLIC "-//W3C//DTD SVG 1.1//EN" "http://www.w3.org/Graphics/SVG/1.1/DTD/svg11.dtd">
<svg version="1.1" id="Layer_1" xmlns="http://www.w3.org/2000/svg" xmlns:xlink="http://www.w3.org/1999/xlink" x="0px" y="0px" width="32px" height="32px" viewBox="0 0 32 32" enable-background="new 0 0 32 32" xml:space="preserve">
  <g id="icon">
    <path d="M29.5,18.658c0,0,0,3.473,0,4.047c0,2.219,-5.366,4.796,-11.996,4.796C10.875,27.5,5.5,24.923,5.5,22.731c0,-0.491,0,-4.073,0,-4.073" fill="#FFFFFF" stroke="#ED8730" stroke-width="1" stroke-miterlimit="1"/>
    <path d="M26.059,14.898c2.123,0.949,3.425,2.252,3.425,3.691c0,2.901,-5.295,4.842,-11.933,4.842c-6.637,0,-12.018,-1.941,-12.018,-4.842c0,-0.453,0.131,-0.893,0.378,-1.313" fill="#FFFFFF" stroke="#ED8730" stroke-width="1" stroke-miterlimit="1"/>
    <path d="M26.5,9.768c0,0,0,3.526,0,4.1c0,2.219,-5.366,4.796,-11.996,4.796C7.875,18.664,2.5,16.087,2.5,13.895c0,-0.491,0,-4.127,0,-4.127" fill="#FFFFFF" stroke="#ED8730" stroke-width="1" stroke-miterlimit="1"/>
    <path d="M14.531,4.5c6.637,0,11.933,2.352,11.933,5.253s-5.295,4.842,-11.933,4.842c-6.637,0,-12.018,-1.941,-12.018,-4.842S7.894,4.5,14.531,4.5z" fill="#FFFFFF" stroke="#ED8730" stroke-width="1" stroke-miterlimit="1"/>
  </g>
</svg>
