<?xml version="1.0" encoding="UTF-8"?>
<!DOCTYPE svg PUBLIC "-//W3C//DTD SVG 1.1//EN" "http://www.w3.org/Graphics/SVG/1.1/DTD/svg11.dtd">
<svg version="1.1" id="Layer_1" xmlns="http://www.w3.org/2000/svg" xmlns:xlink="http://www.w3.org/1999/xlink" x="0px" y="0px" width="32px" height="32px" viewBox="0 0 32 32" enable-background="new 0 0 32 32" xml:space="preserve">
  <g id="icon">
    <path d="M30.5,5.738h-0.027c0,-0.004,0,-0.008,0,-0.012c0,-2.331,-3.972,-4.221,-8.95,-4.221c-4.978,0,-9.013,1.89,-9.013,4.221c0,0.004,0,0.008,0,0.012H12.5c0,0,0,3.031,0,3.441c0,0.048,0.003,0.097,0.009,0.145H12.5c0,0,0,0.881,0,1.757c4.889,0.917,8.6,5.217,8.6,10.369c0,2.187,-0.669,4.22,-1.812,5.906c0.709,0.093,1.451,0.144,2.216,0.144c4.972,0,8.997,-2.148,8.997,-3.998c0,-0.478,0,-3.419,0,-3.419h-0.011c0.007,-0.056,0.011,-0.112,0.011,-0.168c0,-0.478,0,-3.419,0,-3.419h-0.011c0.007,-0.056,0.011,-0.112,0.011,-0.168c0,-0.478,0,-3.419,0,-3.419h-0.011c0.007,-0.056,0.011,-0.112,0.011,-0.168c0,-0.478,0,-3.419,0,-3.419h-0.011c0.007,-0.056,0.011,-0.112,0.011,-0.168C30.5,8.679,30.5,5.738,30.5,5.738z" fill="#FFFFFF"/>
    <path d="M31,5.738h-0.027c0,-0.004,0,-0.008,0,-0.012c0,-2.647,-4.151,-4.721,-9.45,-4.721c-5.335,0,-9.513,2.074,-9.513,4.721c0,0.004,0,0.008,0,0.012H12v3.441c0,0.049,0.003,0.097,0.007,0.145H12V11c0.339,0.047,0.672,0.109,1,0.188v-0.11c0.056,0.051,0.114,0.102,0.173,0.152c1.372,0.352,2.637,0.975,3.736,1.807c1.389,0.389,2.968,0.618,4.595,0.618c3.56,0,6.892,-1.1,8.497,-2.59v1.677c0,0.688,-0.921,1.568,-2.347,2.241c-1.693,0.799,-3.935,1.258,-6.15,1.258c-0.636,0,-1.252,-0.037,-1.841,-0.103c0.199,0.34,0.379,0.692,0.54,1.055c0.428,0.032,0.863,0.049,1.301,0.049c3.56,0,6.892,-1.1,8.497,-2.59v1.677c0,0.688,-0.921,1.568,-2.347,2.241c-1.693,0.799,-3.935,1.258,-6.15,1.258c-0.178,0,-0.355,-0.004,-0.53,-0.009c0.051,0.33,0.087,0.665,0.107,1.004c0.14,0.003,0.281,0.006,0.422,0.006c3.56,0,6.892,-1.1,8.497,-2.59v1.677c0,0.688,-0.921,1.568,-2.347,2.241c-1.693,0.799,-3.935,1.258,-6.15,1.258c-0.197,0,-0.392,-0.005,-0.585,-0.011c-0.063,0.336,-0.142,0.667,-0.237,0.991c0.272,0.013,0.546,0.02,0.822,0.02c3.56,0,6.892,-1.1,8.497,-2.59v1.677c0,0.688,-0.921,1.568,-2.347,2.241c-1.693,0.799,-3.935,1.258,-6.15,1.258c-0.664,0,-1.304,-0.041,-1.916,-0.112c-0.194,0.32,-0.404,0.63,-0.629,0.927c0.82,0.12,1.676,0.185,2.545,0.185c4.97,0,9.497,-2.144,9.497,-4.498v-3.419h-0.008c0.005,-0.056,0.008,-0.112,0.008,-0.168v-3.419h-0.008c0.005,-0.056,0.008,-0.112,0.008,-0.168v-3.419h-0.008c0.005,-0.056,0.008,-0.112,0.008,-0.168V9.325h-0.008c0.005,-0.056,0.008,-0.112,0.008,-0.168V5.738zM21.523,2.005c5.054,0,8.45,1.924,8.45,3.721c0,1.902,-3.712,3.391,-8.45,3.391c-4.774,0,-8.513,-1.49,-8.513,-3.391C13.01,3.929,16.431,2.005,21.523,2.005zM30,9.157c0,0.688,-0.921,1.568,-2.347,2.241c-1.693,0.799,-3.935,1.258,-6.15,1.258c-4.852,0,-8.503,-2.109,-8.503,-3.476V7.799c0.486,0.46,1.143,0.868,1.957,1.209c1.714,0.716,4.045,1.11,6.566,1.11c3.909,0,6.99,-0.891,8.477,-2.318V9.157z" fill="#ED8730"/>
    <circle cx="10.55" cy="21.45" r="8.95" fill="#FFFFFF" stroke="#ED8730" stroke-width="1" stroke-miterlimit="1"/>
    <path d="M13.103,15.086c0.524,0.211,1.017,0.484,1.468,0.811M12.254,14.808c-0.545,-0.139,-1.116,-0.213,-1.704,-0.213c-3.786,0,-6.855,3.069,-6.855,6.855M6.522,26.998c0.441,0.321,0.923,0.591,1.435,0.8M8.793,28.078c0.561,0.148,1.15,0.227,1.757,0.227c3.786,0,6.855,-3.069,6.855,-6.855" fill="#FFFFFF" stroke="#ED8730" stroke-width="0.8" stroke-miterlimit="1"/>
    <path d="M12.967,24.5H7.892v-0.109c0.121,-0.053,0.238,-0.115,0.35,-0.188c0.112,-0.073,0.212,-0.162,0.298,-0.267c0.086,-0.106,0.156,-0.229,0.207,-0.371c0.052,-0.142,0.078,-0.309,0.078,-0.5v-1.772v-0.099v-1.594c0,-0.304,0.043,-0.584,0.13,-0.842c0.086,-0.257,0.214,-0.479,0.384,-0.666c0.169,-0.186,0.38,-0.332,0.633,-0.436c0.252,-0.104,0.544,-0.156,0.876,-0.156c0.256,0,0.48,0.03,0.674,0.089c0.194,0.059,0.361,0.139,0.503,0.238c0.142,0.099,0.261,0.215,0.358,0.349c0.097,0.134,0.18,0.275,0.249,0.423M7.6,21h3.908" fill="#FFFFFF" stroke="#ED8730" stroke-width="1" stroke-miterlimit="1"/>
  </g>
</svg>
