<?xml version="1.0" encoding="UTF-8"?>
<!DOCTYPE svg PUBLIC "-//W3C//DTD SVG 1.1//EN" "http://www.w3.org/Graphics/SVG/1.1/DTD/svg11.dtd">
<svg version="1.1" id="Layer_1" xmlns="http://www.w3.org/2000/svg" xmlns:xlink="http://www.w3.org/1999/xlink" x="0px" y="0px" width="32px" height="32px" viewBox="0 0 32 32" enable-background="new 0 0 32 32" xml:space="preserve">
  <g id="icon">
    <path d="M7.348,20.592c0,0.508,-0.065,0.948,-0.194,1.32c-0.129,0.372,-0.303,0.68,-0.521,0.922c-0.218,0.243,-0.474,0.423,-0.767,0.542c-0.293,0.118,-0.603,0.178,-0.931,0.178c-0.333,0,-0.646,-0.059,-0.939,-0.178c-0.293,-0.118,-0.549,-0.299,-0.767,-0.542c-0.218,-0.243,-0.391,-0.55,-0.517,-0.922c-0.126,-0.372,-0.19,-0.812,-0.19,-1.32c0,-0.513,0.063,-0.956,0.19,-1.329c0.126,-0.372,0.299,-0.681,0.517,-0.927c0.218,-0.245,0.474,-0.427,0.767,-0.546c0.293,-0.118,0.606,-0.178,0.939,-0.178c0.327,0,0.638,0.059,0.931,0.178c0.293,0.118,0.549,0.3,0.767,0.546c0.218,0.245,0.392,0.554,0.521,0.927C7.284,19.636,7.348,20.079,7.348,20.592zM14.433,27.532c0,0.509,-0.066,0.95,-0.199,1.323c-0.133,0.373,-0.311,0.682,-0.535,0.925c-0.224,0.243,-0.487,0.424,-0.787,0.543c-0.301,0.119,-0.619,0.178,-0.956,0.178c-0.342,0,-0.664,-0.059,-0.964,-0.178c-0.301,-0.119,-0.563,-0.3,-0.787,-0.543c-0.224,-0.243,-0.401,-0.551,-0.531,-0.925c-0.13,-0.373,-0.195,-0.814,-0.195,-1.323c0,-0.515,0.065,-0.959,0.195,-1.332c0.13,-0.373,0.307,-0.683,0.531,-0.929c0.224,-0.246,0.487,-0.428,0.787,-0.547c0.301,-0.119,0.622,-0.178,0.964,-0.178c0.336,0,0.655,0.059,0.956,0.178c0.301,0.119,0.563,0.301,0.787,0.547c0.224,0.246,0.403,0.556,0.535,0.929C14.366,26.574,14.433,27.018,14.433,27.532zM13.241,17.4L3.663,30.7" fill="none" stroke="#17AB4F" stroke-width="1.1" stroke-miterlimit="1"/>
    <path d="M24.669,20.243v2.056c0,0.651,0.559,1.178,1.248,1.178h1.655c0.689,0,1.248,-0.528,1.248,-1.178v-2.755L24.669,20.243z" fill="#FFFFFF"/>
    <path d="M28.321,19.544v2.755c0,0.374,-0.336,0.678,-0.748,0.678h-1.655c-0.413,0,-0.748,-0.304,-0.748,-0.678v-2.056h-1v2.056c0,0.925,0.784,1.678,1.748,1.678h1.655c0.964,0,1.748,-0.753,1.748,-1.678v-2.755H28.321z" fill="#787979"/>
    <path d="M18.494,2.587c-8.716,0,-7.554,1.052,-9.097,6.476c6.006,1.156,12.166,1.132,18.471,0C26.128,3.64,27.21,2.587,18.494,2.587z" fill="#FFFFFF"/>
    <path d="M27.707,7.037c-0.505,-1.977,-0.838,-3.283,-2.128,-4.074c-1.16,-0.711,-3.014,-0.963,-7.085,-0.963c-4.04,0,-5.879,0.248,-7.027,0.947c-1.279,0.779,-1.601,2.063,-2.089,4.006c-0.154,0.616,-0.33,1.313,-0.559,2.096l0.96,0.281c0.235,-0.801,0.413,-1.509,0.569,-2.134c0.458,-1.825,0.71,-2.83,1.64,-3.396c0.959,-0.584,2.722,-0.801,6.506,-0.801c3.814,0,5.592,0.221,6.562,0.816c0.944,0.579,1.206,1.605,1.682,3.469c0.153,0.601,0.327,1.282,0.552,2.046l0.96,-0.281C28.03,8.302,27.859,7.63,27.707,7.037z" fill="#383838"/>
    <path d="M30.459,10.347c-0.152,-0.526,-0.542,-1.425,-1.044,-1.425c-0.181,0,-0.377,0.041,-0.583,0.121c-2.228,0.87,-4.611,0.941,-6.916,1.01c-0.765,0.023,-2.396,0.034,-3.341,0.034h-0.132c-0.945,0,-2.576,-0.011,-3.341,-0.034c-2.305,-0.069,-4.689,-0.141,-6.916,-1.01c-0.206,-0.08,-0.402,-0.121,-0.583,-0.121c-0.501,0,-0.892,0.899,-1.044,1.425c-0.141,0.488,-0.092,1.147,0.944,1.514c0.208,0.074,0.42,0.142,0.62,0.205c-0.052,0.12,-0.583,0.927,-0.713,1.683c-0.141,0.82,-0.203,1.572,-0.216,2.252h7.891c0.506,0,0.917,0.41,0.917,0.917v3.951c0.762,0.018,1.568,0.029,2.414,0.029h0.188c5.197,0,8.948,-0.405,9.469,-0.453c1.007,-0.093,1.233,-0.404,1.506,-1.587c0.346,-1.498,0.435,-3.767,0.031,-5.109c-0.221,-0.732,-0.661,-1.563,-0.713,-1.683c0.2,-0.063,0.411,-0.131,0.62,-0.205C30.551,11.494,30.6,10.835,30.459,10.347z" fill="#FFFFFF"/>
    <path d="M30.939,10.208c-0.121,-0.419,-0.589,-1.786,-1.524,-1.786c-0.244,0,-0.501,0.052,-0.765,0.155c-2.147,0.838,-4.486,0.908,-6.749,0.976c-0.779,0.023,-2.414,0.034,-3.326,0.034h-0.132c-0.912,0,-2.548,-0.01,-3.327,-0.034c-2.262,-0.068,-4.602,-0.138,-6.748,-0.976c-0.264,-0.103,-0.522,-0.155,-0.765,-0.155c-0.935,0,-1.403,1.367,-1.524,1.786c-0.276,0.953,0.195,1.747,1.258,2.124c0.019,0.007,0.039,0.014,0.059,0.021c-0.183,0.353,-0.397,0.834,-0.479,1.311c-0.135,0.785,-0.209,1.565,-0.222,2.336h0.997c0.014,-0.709,0.084,-1.429,0.211,-2.167c0.09,-0.525,0.433,-1.125,0.579,-1.382c0.051,-0.09,0.079,-0.139,0.1,-0.187l0.22,-0.509l-0.529,-0.167c-0.245,-0.077,-0.431,-0.139,-0.603,-0.199c-0.713,-0.252,-0.719,-0.598,-0.631,-0.903c0.169,-0.585,0.445,-1.008,0.575,-1.064c0.116,0.002,0.247,0.031,0.39,0.087c2.308,0.901,4.735,0.974,7.083,1.044c0.789,0.024,2.438,0.034,3.356,0.034h0.132c0.919,0,2.567,-0.011,3.357,-0.034c2.347,-0.07,4.774,-0.143,7.082,-1.044c0.143,-0.056,0.274,-0.085,0.39,-0.087c0.13,0.056,0.406,0.479,0.575,1.064c0.088,0.305,0.082,0.651,-0.631,0.903c-0.172,0.061,-0.358,0.122,-0.603,0.199l-0.529,0.167l0.22,0.509c0.011,0.026,0.037,0.08,0.075,0.156c0.135,0.274,0.45,0.915,0.618,1.472c0.383,1.27,0.281,3.464,-0.039,4.852c-0.253,1.096,-0.375,1.138,-1.065,1.202l-0.155,0.015c-3.679,0.36,-7.071,0.436,-9.269,0.436h-0.188c-0.695,0,-1.509,-0.008,-2.414,-0.029v1c0.904,0.022,1.719,0.029,2.414,0.029h0.188c2.22,0,5.647,-0.076,9.366,-0.441l0.149,-0.014c1.312,-0.121,1.649,-0.681,1.947,-1.973c0.345,-1.494,0.47,-3.882,0.022,-5.365c-0.131,-0.436,-0.333,-0.898,-0.494,-1.241c0.03,-0.01,0.059,-0.021,0.088,-0.031C30.745,11.956,31.215,11.162,30.939,10.208z" fill="#383838"/>
    <path d="M9.996,15.89c0,-0.937,-0.107,-1.697,1.02,-1.697c1.029,0,2.796,0.932,3.094,1.807h-4.107C10,15.963,9.996,15.927,9.996,15.89zM25.97,14.193c-1.126,0,-3.139,1.117,-3.139,2.054c0,0.937,0.993,1.34,2.119,1.34c1.126,0,2.039,-0.76,2.039,-1.697S27.096,14.193,25.97,14.193z" fill="#FFFFFF"/>
    <path d="M9.495,15.67c-0.005,-0.581,-0.011,-1.182,0.393,-1.59c0.258,-0.261,0.627,-0.388,1.128,-0.388c1.251,0,3.348,1.106,3.611,2.307H13.56c-0.36,-0.54,-1.68,-1.307,-2.544,-1.307c-0.208,0,-0.36,0.033,-0.417,0.091c-0.111,0.112,-0.107,0.518,-0.104,0.877c0.001,0.075,0.001,0.151,0.001,0.229c0,0.037,0.003,0.074,0.007,0.11H9.499c-0.002,-0.037,-0.003,-0.073,-0.003,-0.11C9.496,15.815,9.496,15.742,9.495,15.67zM27.491,15.67c-0.001,0.072,-0.001,0.145,-0.001,0.22c0,1.211,-1.139,2.197,-2.539,2.197c-1.591,0,-2.619,-0.722,-2.619,-1.84c0,-1.292,2.302,-2.554,3.639,-2.554c0.501,0,0.87,0.127,1.128,0.388C27.502,14.488,27.496,15.089,27.491,15.67zM26.387,14.784c-0.057,-0.058,-0.21,-0.091,-0.417,-0.091c-1.009,0,-2.639,1.046,-2.639,1.554c0,0.799,1.349,0.84,1.619,0.84c0.849,0,1.539,-0.537,1.539,-1.197c0,-0.078,0.001,-0.154,0.001,-0.229C26.494,15.302,26.498,14.896,26.387,14.784z" fill="#ED8730"/>
  </g>
</svg>
