<?xml version="1.0" encoding="UTF-8"?>
<!DOCTYPE svg PUBLIC "-//W3C//DTD SVG 1.1//EN" "http://www.w3.org/Graphics/SVG/1.1/DTD/svg11.dtd">
<svg version="1.1" id="Layer_1" xmlns="http://www.w3.org/2000/svg" xmlns:xlink="http://www.w3.org/1999/xlink" x="0px" y="0px" width="32px" height="32px" viewBox="0 0 32 32" enable-background="new 0 0 32 32" xml:space="preserve">
  <g id="icon">
    <path d="M17.6,15.104c-3.192,-0.191,-6.415,-1.789,-7.991,-2.896C8.033,13.315,4.793,14.913,1.6,15.104c-0.01,0.844,0.143,2.498,0.335,3.888c0.405,2.927,1.282,5.437,2.471,7.067c1.661,2.279,3.296,3.67,5.202,4.241c1.907,-0.571,3.524,-1.962,5.185,-4.241c1.189,-1.63,2.066,-4.14,2.471,-7.067C17.457,17.602,17.61,15.947,17.6,15.104z" fill="#F7BFBF" stroke="#DB2E2A" stroke-width="1.1" stroke-miterlimit="1"/>
    <path d="M30.487,13.239c0,-0.019,0.001,-0.038,0.001,-0.057c0,-1.181,-0.942,-2.252,-2.479,-3.037c0.183,-0.294,0.28,-0.589,0.28,-0.877c0,-0.476,0,-3.4,0,-3.4h-0.027c0,-0.004,0,-0.008,0,-0.013c0,-2.405,-3.903,-4.355,-8.795,-4.355c-4.892,0,-8.858,1.95,-8.858,4.355c0,0.004,0,0.008,0,0.013H10.6c0,0,0,3.015,0,3.422c0,0.951,1.085,1.989,2.819,2.763l-0.304,0.04c-0.04,0.077,-0.075,0.154,-0.107,0.232c1.355,0.602,3.011,1.131,4.684,1.231l1.44,0.086l0.017,1.443c0.012,1.011,-0.167,2.797,-0.35,4.119c-0.051,0.369,-0.11,0.731,-0.175,1.087c0.946,0.178,1.968,0.28,3.034,0.28c4.886,0,8.841,-2.137,8.841,-3.976c0,-0.476,0,-3.355,0,-3.355H30.487z" fill="#F7DA8E"/>
    <path d="M30.987,13.239c0,-0.019,0.001,-0.038,0.001,-0.057c0,-1.229,-0.819,-2.368,-2.32,-3.247c0.079,-0.219,0.12,-0.443,0.12,-0.668v-3.4h-0.027c0,-0.004,0,-0.008,0,-0.013c0,-2.723,-4.083,-4.855,-9.295,-4.855c-5.247,0,-9.358,2.133,-9.358,4.855c0,0.004,0,0.008,0,0.013H10.1V9.29c0,0.843,0.61,1.701,1.707,2.446c1.497,0.809,3.676,1.688,5.885,1.82l1.44,0.086l0.001,0.098c0.105,0.002,0.209,0.004,0.314,0.004c3.788,0,7.314,-1.281,8.71,-2.948c1.184,0.69,1.831,1.527,1.831,2.386c0,2.004,-3.566,3.515,-8.295,3.515c-0.914,0,-1.788,-0.059,-2.605,-0.168c-0.024,0.323,-0.055,0.661,-0.089,1c0.857,0.111,1.762,0.168,2.694,0.168c2.478,0,4.763,-0.408,6.434,-1.148c0.775,-0.343,1.403,-0.754,1.872,-1.215v1.26c0,0.684,-0.904,1.558,-2.304,2.227c-1.662,0.794,-3.863,1.249,-6.037,1.249c-1.048,0,-2.039,-0.102,-2.948,-0.275c-0.054,0.335,-0.116,0.663,-0.182,0.986c1.006,0.189,2.062,0.288,3.13,0.288c4.889,0,9.341,-2.134,9.341,-4.476v-3.355H30.987zM19.468,2c4.496,0,8.295,1.766,8.295,3.855c0,2.004,-3.566,3.515,-8.295,3.515c-4.687,0,-8.358,-1.544,-8.358,-3.515C11.11,3.766,14.937,2,19.468,2zM27.789,9.268c0,0.684,-0.904,1.558,-2.304,2.227c-1.662,0.794,-3.863,1.249,-6.037,1.249c-4.763,0,-8.348,-2.096,-8.348,-3.454V7.998c0.475,0.465,1.114,0.879,1.903,1.225c1.687,0.74,3.983,1.148,6.464,1.148c2.478,0,4.763,-0.408,6.434,-1.148c0.783,-0.347,1.417,-0.763,1.887,-1.229V9.268z" fill="#E57428"/>
  </g>
</svg>
