<?xml version="1.0" encoding="UTF-8"?>
<!DOCTYPE svg PUBLIC "-//W3C//DTD SVG 1.1//EN" "http://www.w3.org/Graphics/SVG/1.1/DTD/svg11.dtd">
<svg version="1.1" id="Layer_1" xmlns="http://www.w3.org/2000/svg" xmlns:xlink="http://www.w3.org/1999/xlink" x="0px" y="0px" width="32px" height="32px" viewBox="0 0 32 32" enable-background="new 0 0 32 32" xml:space="preserve">
  <g id="icon">
    <path d="M13.5,1.5v9.64l9.5,5.617V20h-2.001c-0.017,0.727,-0.412,1.362,-0.999,1.712v3.576c0.588,0.35,0.982,0.985,0.999,1.712H23v0.5h7.5V1.5H13.5z" fill="#FFFFFF"/>
    <polygon points="13,1 13,10.844 14,11.436 14,2 30,2 30,27 23,27 23,28 31,28 31,1" fill="#383838" stroke-linejoin="miter"/>
    <path d="M23,26h-2v-2h2V26zM20,3.5h4M24,3h-4v1h4V3z" fill="#78797A"/>
    <rect x="6.5" y="18.5" width="10.1" height="10" fill="#FFFFFF"/>
    <rect x="9.5" y="22.5" width="4" height="6.1" fill="#FFFFFF" stroke="#ED8730" stroke-width="1" stroke-miterlimit="1"/>
    <rect x="1.5" y="28.5" width="20" height="2" fill="#FFFFFF" stroke="#383838" stroke-width="1" stroke-miterlimit="1"/>
    <path d="M11.5,11.7l10,5.913V18.5H1.5v-0.887L11.5,11.7z" fill="#FFFFFF" stroke="#383838" stroke-width="1" stroke-miterlimit="1"/>
    <circle cx="11.5" cy="15.5" r="1.2" fill="none" stroke="#787979" stroke-width="1" stroke-miterlimit="1"/>
    <path d="M6.95,20.5h-2.9c-0.304,0,-0.55,-0.246,-0.55,-0.55V18.5h4v1.45C7.5,20.254,7.254,20.5,6.95,20.5zM6.95,26.5h-2.9c-0.304,0,-0.55,0.246,-0.55,0.55V28.5h4v-1.45C7.5,26.746,7.254,26.5,6.95,26.5zM6.5,20.5H4.5v6h2V20.5zM18.95,20.5h-2.9c-0.304,0,-0.55,-0.246,-0.55,-0.55V18.5h4v1.45C19.5,20.254,19.254,20.5,18.95,20.5zM18.95,26.5h-2.9c-0.304,0,-0.55,0.246,-0.55,0.55V28.5h4v-1.45C19.5,26.746,19.254,26.5,18.95,26.5zM18.5,20.5h-2v6h2V20.5z" fill="#FFFFFF" stroke="#383838" stroke-width="1" stroke-miterlimit="1"/>
  </g>
</svg>
