<?xml version="1.0" encoding="UTF-8"?>
<!DOCTYPE svg PUBLIC "-//W3C//DTD SVG 1.1//EN" "http://www.w3.org/Graphics/SVG/1.1/DTD/svg11.dtd">
<svg version="1.1" id="Layer_1" xmlns="http://www.w3.org/2000/svg" xmlns:xlink="http://www.w3.org/1999/xlink" x="0px" y="0px" width="32px" height="32px" viewBox="0 0 32 32" enable-background="new 0 0 32 32" xml:space="preserve">
  <g id="icon">
    <path d="M10.8,8.9l-1.105,-0.661c-0.167,-0.092,-0.336,-0.195,-0.511,-0.299c-0.867,-0.518,-1.821,-0.928,-2.804,-1.178c-1.002,-0.255,-0.782,1.132,-0.392,1.669c0.359,0.494,1.123,1.21,1.245,1.809c0.146,0.713,-0.795,1.227,-1.209,1.68c-0.5,0.548,-0.815,1.146,-1.156,1.791c-0.362,0.685,-0.83,1.22,-1.657,1.312c-0.852,0.094,-1.338,0.282,-1.568,1.185c-0.247,0.969,-0.121,2.22,-0.11,3.21c0.008,0.695,-0.031,1.476,0.252,2.131c0.487,1.126,2.294,0.754,3.242,1.425c0.783,0.554,1.433,1.272,2.118,1.933c0.471,0.455,1.191,0.814,1.583,1.327c0.69,0.901,-0.401,3.676,0.715,4.1c0.802,0.305,2.161,0.053,3.019,0.049c0.716,-0.003,1.194,-0.071,1.472,-0.783c0.207,-0.53,0.229,-1.244,0.948,-1.336c0.743,-0.095,1.604,0.095,2.36,0.1c0.884,0.006,1.798,-0.141,2.666,-0.294c0.833,-0.147,0.713,0.844,0.679,1.326c-0.111,1.604,2.599,0.988,3.698,0.985c1.168,-0.003,1.668,-0.272,2.383,-1.179c0.5,-0.634,0.995,-1.273,1.428,-1.954c0.852,-1.339,1.586,-2.703,2.027,-4.226c0.302,-1.124,0.39,-2.458,0.394,-3.426c0.007,-1.975,-0.299,-4.131,-1.332,-5.801c-1.214,-1.963,-2.655,-3.431,-4.707,-4.551L23.5,8.8" fill="#92CBEE" stroke="#0964B0" stroke-width="1" stroke-linecap="round" stroke-miterlimit="1"/>
    <ellipse cx="9.568" cy="15.222" rx="1.502" ry="1.469" fill="#FFFFFF" stroke="#383838" stroke-width="1" stroke-miterlimit="1"/>
    <path d="M14.234,10.919c-1.358,-0.929,-2.25,-2.491,-2.25,-4.261c0,-2.849,2.31,-5.159,5.159,-5.159s5.159,2.31,5.159,5.159c0,1.658,-0.782,3.134,-1.998,4.078" fill="#F7DA8E" stroke="#E57428" stroke-width="1" stroke-linecap="round" stroke-miterlimit="1"/>
    <path d="M11.248,11.789c3.088,-1.431,9.735,-1.283,12.292,0" fill="#92CBEE" stroke="#0964B0" stroke-width="1" stroke-linecap="round" stroke-miterlimit="1"/>
  </g>
</svg>
