<?xml version="1.0" encoding="UTF-8"?>
<!DOCTYPE svg PUBLIC "-//W3C//DTD SVG 1.1//EN" "http://www.w3.org/Graphics/SVG/1.1/DTD/svg11.dtd">
<svg version="1.1" id="Layer_1" xmlns="http://www.w3.org/2000/svg" xmlns:xlink="http://www.w3.org/1999/xlink" x="0px" y="0px" width="24px" height="24px" viewBox="0 0 24 24" enable-background="new 0 0 24 24" xml:space="preserve">
  <g id="icon">
    <path d="M7.325,9.4C3.3071,9.4,0.05,12.6571,0.05,16.675s3.2571,7.275,7.275,7.275S14.6,20.6929,14.6,16.675S11.3429,9.4,7.325,9.4zM5.6083,21.8336l-0.5879,-0.2781c-1.1278,-0.5334,-2.0425,-1.4482,-2.5758,-2.5758l-0.278,-0.588l1.1759,-0.556l0.2779,0.5879c0.405,0.8565,1.0996,1.5511,1.9561,1.9561l0.5878,0.2781L5.6083,21.8336zM7.325,19.3866c-1.4952,0,-2.7116,-1.2164,-2.7116,-2.7116s1.2164,-2.7116,2.7116,-2.7116s2.7116,1.2164,2.7116,2.7116S8.8202,19.3866,7.325,19.3866zM11.3074,15.5146l-0.2781,-0.5879c-0.405,-0.8559,-1.0995,-1.5503,-1.9556,-1.9551l-0.5879,-0.2781l0.5561,-1.1758l0.5879,0.2781c1.1274,0.5332,2.042,1.4476,2.5753,2.5748l0.2781,0.5879L11.3074,15.5146zM7.325,14.6248c-1.1305,0,-2.0502,0.9197,-2.0502,2.0502s0.9197,2.0502,2.0502,2.0502s2.0502,-0.9197,2.0502,-2.0502S8.4555,14.6248,7.325,14.6248zM7.325,17.8655c-0.6575,0,-1.1905,-0.533,-1.1905,-1.1905c0,-0.6575,0.533,-1.1905,1.1905,-1.1905s1.1905,0.533,1.1905,1.1905C8.5155,17.3325,7.9825,17.8655,7.325,17.8655z" fill="#6485C3"/>
    <path d="M5.0204,21.5556c-1.1278,-0.5334,-2.0425,-1.4482,-2.5758,-2.5758l-0.278,-0.588l1.1759,-0.556l0.2779,0.5879c0.405,0.8565,1.0996,1.5511,1.956,1.956l0.5879,0.2781l-0.5561,1.1758L5.0204,21.5556zM11.0293,14.9266c-0.405,-0.8559,-1.0995,-1.5503,-1.9556,-1.9551l-0.5879,-0.2781l0.5561,-1.1758l0.5879,0.2781c1.1274,0.5332,2.042,1.4476,2.5753,2.5748l0.2781,0.5879l-1.1758,0.5563L11.0293,14.9266zM7.325,19.3866c-1.4952,0,-2.7116,-1.2164,-2.7116,-2.7116s1.2164,-2.7116,2.7116,-2.7116s2.7116,1.2164,2.7116,2.7116S8.8202,19.3866,7.325,19.3866zM7.325,14.6248c-1.1305,0,-2.0502,0.9197,-2.0502,2.0502s0.9197,2.0502,2.0502,2.0502s2.0502,-0.9197,2.0502,-2.0502S8.4555,14.6248,7.325,14.6248z" fill="#FFFFFF" opacity="0.5"/>
    <path d="M7.325,16.7655c-0.0499,0,-0.0905,-0.0406,-0.0905,-0.0905s0.0406,-0.0905,0.0905,-0.0905s0.0905,0.0406,0.0905,0.0905S7.3749,16.7655,7.325,16.7655zM7.325,8.3c0.5735,0,1.1336,0.0582,1.675,0.1685V7H5H3v2.5059C4.2632,8.7409,5.7435,8.3,7.325,8.3zM22,7H10v1.7407c0.7141,0.2414,1.3863,0.5745,2,0.9889V9h10v1h-9.624c0.3961,0.3004,0.7645,0.6353,1.1012,1H22v1h-7.7295c0.215,0.3184,0.4078,0.6527,0.5781,1H22v1h-6.7407c0.11,0.3252,0.2025,0.6584,0.2721,1H22v1h-6.3296c0.0179,0.2229,0.0296,0.4476,0.0296,0.675c0,0.109,-0.0041,0.217,-0.0082,0.325H22v1h-6.4059c-0.1116,0.6992,-0.3103,1.3694,-0.5842,2H24V7H22z" fill="#7B7B7B"/>
    <path d="M3,0v6h21V0H3zM14,4h-2V2h2V4zM18,4h-2V2h2V4zM22,4h-2V2h2V4z" fill="#6485C3"/>
    <path d="M14,4h-2V2h2V4zM15.5941,18H22v-1h-6.3082C15.6787,17.3388,15.6464,17.6726,15.5941,18zM18,2h-2v2h2V2zM22,2h-2v2h2V2zM14.2705,12H22v-1h-8.5229C13.7657,11.3126,14.0316,11.6463,14.2705,12zM15.6704,16H22v-1h-6.4685C15.598,15.3267,15.6432,15.6608,15.6704,16zM3,6v1h6v1.4685c0.3416,0.0696,0.6748,0.1622,1,0.2721V7h14V6H3zM12,9.7295c0.1281,0.0865,0.253,0.1772,0.376,0.2705H22V9H12V9.7295zM15.2593,14H22v-1h-7.1514C15.0066,13.3222,15.1432,13.6564,15.2593,14z" fill="#FFFFFF" opacity="0.5"/>
  </g>
</svg>
