<?xml version="1.0" encoding="UTF-8"?>
<!DOCTYPE svg PUBLIC "-//W3C//DTD SVG 1.1//EN" "http://www.w3.org/Graphics/SVG/1.1/DTD/svg11.dtd">
<svg version="1.1" id="Layer_1" xmlns="http://www.w3.org/2000/svg" xmlns:xlink="http://www.w3.org/1999/xlink" x="0px" y="0px" width="24px" height="24px" viewBox="0 0 24 24" enable-background="new 0 0 24 24" xml:space="preserve">
  <g id="icon">
    <path d="M19.6854,3.825H4.3146C2.3873,3.825,0.825,5.3873,0.825,7.3146v9.3708c0,1.9272,1.5623,3.4896,3.4896,3.4896h15.3708c1.9272,0,3.4896,-1.5623,3.4896,-3.4896V7.3146C23.175,5.3873,21.6127,3.825,19.6854,3.825z" fill="#FFFFFF" opacity="0.5"/>
    <path d="M4.4405,21C1.992,21,0,19.0188,0,16.5836V7.4164C0,4.9812,1.992,3,4.4405,3h15.1189C22.008,3,24,4.9812,24,7.4164v9.1672C24,19.0188,22.008,21,19.5595,21H4.4405zM4.4405,5.0054c-1.3367,0,-2.4241,1.0816,-2.4241,2.411v9.1672c0,1.3294,1.0875,2.411,2.4241,2.411h15.1189c1.3367,0,2.4241,-1.0816,2.4241,-2.411V7.4164c0,-1.3294,-1.0875,-2.411,-2.4241,-2.411H4.4405z" fill="#6485C3"/>
  </g>
</svg>
