<?xml version="1.0" encoding="UTF-8"?>
<!DOCTYPE svg PUBLIC "-//W3C//DTD SVG 1.1//EN" "http://www.w3.org/Graphics/SVG/1.1/DTD/svg11.dtd">
<svg version="1.1" id="Layer_1" xmlns="http://www.w3.org/2000/svg" xmlns:xlink="http://www.w3.org/1999/xlink" x="0px" y="0px" width="24px" height="24px" viewBox="0 0 24 24" enable-background="new 0 0 24 24" xml:space="preserve">
  <g id="icon">
    <path d="M20.4625,1H3.5375C2.1361,1,1,2.1361,1,3.5375v16.925C1,21.8639,2.1361,23,3.5375,23h16.925C21.8639,23,23,21.8639,23,20.4625V3.5375C23,2.1361,21.8639,1,20.4625,1zM17.7,7.2h-4.6v9.6h4.5v2.2H6.3v-2.2h4.6V7.2H6.4V5h11.3V7.2z" fill="#6485C3"/>
    <polygon points="6.3,19 6.3,16.8 10.9,16.8 10.9,7.2 6.4,7.2 6.4,5 17.7,5 17.7,7.2 13.1,7.2 13.1,16.8 17.6,16.8 17.6,19" fill="#FFFFFF" stroke-linejoin="miter"/>
  </g>
</svg>
