<?xml version="1.0" encoding="UTF-8"?>
<!DOCTYPE svg PUBLIC "-//W3C//DTD SVG 1.1//EN" "http://www.w3.org/Graphics/SVG/1.1/DTD/svg11.dtd">
<svg version="1.1" id="Layer_1" xmlns="http://www.w3.org/2000/svg" xmlns:xlink="http://www.w3.org/1999/xlink" x="0px" y="0px" width="24px" height="24px" viewBox="0 0 24 24" enable-background="new 0 0 24 24" xml:space="preserve">
  <g id="icon">
    <path d="M7,14V6.825H4.3146c-1.9272,0,-3.4896,1.5623,-3.4896,3.4896v9.3708c0,1.9272,1.5623,3.4896,3.4896,3.4896h12.3708c1.9272,0,3.4896,-1.5623,3.4896,-3.4896V14H7z" fill="#FFFFFF" opacity="0.5"/>
    <path d="M4.4302,24C1.9873,24,0,22.0188,0,19.5836v-9.1672C0,7.9812,1.9873,6,4.4302,6h2.5222v2.0054H4.4302c-1.3335,0,-2.4185,1.0816,-2.4185,2.411v9.1672c0,1.3294,1.0849,2.411,2.4185,2.411h12.1397c1.3335,0,2.4185,-1.0816,2.4185,-2.411V14.037H21v5.5466C21,22.0188,19.0127,24,16.5698,24H4.4302z" fill="#6485C3"/>
    <path d="M22.75,11.75h-13.5v-10.5h13.5V11.75z" fill="#FFFFFF" opacity="0.5"/>
    <path d="M19.1159,5.75c-0.9512,0,-1.725,-0.7738,-1.725,-1.725S18.1647,2.3,19.1159,2.3s1.725,0.7738,1.725,1.725S20.0671,5.75,19.1159,5.75zM19.1159,3.5c-0.2895,0,-0.525,0.2355,-0.525,0.525s0.2355,0.525,0.525,0.525s0.525,-0.2355,0.525,-0.525S19.4054,3.5,19.1159,3.5z" fill="#EEAC55"/>
    <path d="M19.3198,10.7543c-1.62,-0.5342,-2.8718,-1.6691,-3.9762,-2.6705c-1.1211,-1.0166,-2.0873,-1.8947,-3.0499,-1.7938c-0.7633,0.08,-1.5998,0.7634,-2.5573,2.0892l-0.9728,-0.7025c1.185,-1.641,2.267,-2.4609,3.405,-2.5802c1.4884,-0.1552,2.6921,0.9297,3.9652,2.084c2.7905,-2.2654,5.1128,-0.24,6.9927,1.3993l-0.7887,0.9044c-2.0577,-1.7944,-3.4653,-2.861,-5.2923,-1.4937c0.7993,0.6808,1.6523,1.2952,2.65,1.6242L19.3198,10.7543z" fill="#52B250"/>
    <path d="M24,13H8V0h16V13zM10,11h12V2H10V11z" fill="#7B7B7B"/>
  </g>
</svg>
