<?xml version="1.0" encoding="UTF-8"?>
<!DOCTYPE svg PUBLIC "-//W3C//DTD SVG 1.1//EN" "http://www.w3.org/Graphics/SVG/1.1/DTD/svg11.dtd">
<svg version="1.1" id="Layer_1" xmlns="http://www.w3.org/2000/svg" xmlns:xlink="http://www.w3.org/1999/xlink" x="0px" y="0px" width="24px" height="24px" viewBox="0 0 24 24" enable-background="new 0 0 24 24" xml:space="preserve">
  <g id="icon">
    <path d="M7.0183,14.9H3.1469l-1.2866,3.2282L0,17.4425l4.0451,-10.593c0.0198,-0.0485,0.0582,-0.1525,0.0706,-0.1864l0.2434,-0.6632l1.4648,0.0013l0.2302,0.6715c0.0056,0.0165,0.0425,0.1251,0.0604,0.1695l0.0118,0.0307l4.0401,10.5693l-1.86,0.6863L7.0183,14.9zM6.296,12.9L5.0816,9.572L3.8685,12.9H6.296zM10.5,18V6h3.5145c1.2961,0,2.3062,0.3111,3.0021,0.9248c0.743,0.6553,1.1042,1.4007,1.1042,2.4845c0,0.4051,-0.074,0.8196,-0.22,1.2322c-0.1621,0.4569,-0.4103,0.8727,-0.719,1.2047c0.0599,0.0436,0.118,0.0887,0.1737,0.1351c0.3853,0.3206,0.6882,0.713,0.9004,1.1667c0.2177,0.4659,0.319,0.9312,0.319,1.4644c0,0.5378,-0.0788,0.7268,-0.2909,1.2352c-0.2049,0.4909,-0.51,0.907,-0.9065,1.2368c-0.3777,0.3142,-0.8347,0.5509,-1.3583,0.7036c-0.4826,0.1408,-1.0257,0.2121,-1.6145,0.2121H10.5zM14.4336,16c0.4051,0,0.765,-0.0451,1.0699,-0.134c0.2628,-0.0767,0.4813,-0.1864,0.6492,-0.3262c0.1506,-0.1252,0.2634,-0.0812,0.345,-0.2766c0.0943,-0.2261,0.1388,-0.3666,0.1388,-0.6768c0,-0.24,-0.0397,-0.4275,-0.133,-0.6271c-0.0891,-0.1905,-0.2112,-0.3486,-0.3731,-0.4833c-0.1717,-0.1428,-0.3936,-0.2566,-0.6594,-0.3383c-0.298,-0.0915,-0.642,-0.1378,-1.0223,-0.1378H12.5v3H14.4336zM14.1129,11.1c0.4216,0,0.7687,-0.0563,1.0316,-0.1672c0.2592,-0.1092,0.4654,-0.2431,0.6129,-0.3981c0.1279,-0.1344,0.2386,-0.3218,0.3117,-0.5276c0.0708,-0.2003,0.1067,-0.3932,0.1067,-0.573c0,-0.5115,-0.1256,-0.731,-0.4337,-1.0026c-0.3246,-0.2862,-0.898,-0.4314,-1.7043,-0.4314H12.5v3.1H14.1129zM19,13v-2h5v2H19z" fill="#CB525D"/>
  </g>
</svg>
