<?xml version="1.0" encoding="UTF-8"?>
<!DOCTYPE svg PUBLIC "-//W3C//DTD SVG 1.1//EN" "http://www.w3.org/Graphics/SVG/1.1/DTD/svg11.dtd">
<svg version="1.1" id="Layer_1" xmlns="http://www.w3.org/2000/svg" xmlns:xlink="http://www.w3.org/1999/xlink" x="0px" y="0px" width="24px" height="24px" viewBox="0 0 24 24" enable-background="new 0 0 24 24" xml:space="preserve">
  <g id="icon">
    <path d="M7.0169,20.5c-0.9377,0,-1.8115,-0.2151,-2.597,-0.6393c-0.7732,-0.4175,-1.444,-1.019,-1.9938,-1.7878c-0.5285,-0.7389,-0.942,-1.6367,-1.2291,-2.6684c-0.28,-1.0061,-0.422,-2.148,-0.422,-3.394c0,-1.2384,0.1419,-2.3782,0.4217,-3.3878c0.2867,-1.0342,0.6999,-1.9352,1.228,-2.6777c0.5488,-0.7718,1.2188,-1.3768,1.9914,-1.7983C5.2028,3.7176,6.0779,3.5,7.0169,3.5c0.9422,0,1.8195,0.2148,2.6077,0.6384c0.7773,0.418,1.4504,1.0222,2.0007,1.796c0.5278,0.7421,0.941,1.6431,1.2279,2.6778c0.2799,1.0096,0.4218,2.1529,0.4218,3.3982c0,1.2457,-0.142,2.3876,-0.4221,3.3941c-0.2873,1.0319,-0.7008,1.9297,-1.2292,2.6684c-0.5499,0.7691,-1.2225,1.3709,-1.9991,1.7886C8.8364,20.2852,7.9591,20.5,7.0169,20.5zM7.0169,5.5c-0.6091,0,-1.1466,0.1316,-1.6431,0.4024c-0.5037,0.2748,-0.9475,0.6791,-1.3192,1.2017c-0.3929,0.5523,-0.706,1.2431,-0.9305,2.0529c-0.2316,0.8354,-0.3491,1.7955,-0.3491,2.8534c0,1.0648,0.1173,2.0263,0.3487,2.8578c0.2243,0.8059,0.5369,1.4927,0.9293,2.0414c0.3708,0.5188,0.814,0.9196,1.317,1.1914C5.8676,18.3694,6.4063,18.5,7.0169,18.5c0.6167,0,1.1599,-0.1309,1.6605,-0.4c0.5049,-0.2715,0.9489,-0.672,1.3195,-1.1903c0.3922,-0.5485,0.7049,-1.2354,0.9292,-2.0415c0.2315,-0.8318,0.3489,-1.7933,0.3489,-2.8578c0,-1.0649,-0.1174,-2.0284,-0.3491,-2.8639c-0.2247,-0.81,-0.5377,-1.5007,-0.9305,-2.053C9.625,6.5727,9.1815,6.171,8.6774,5.9C8.1768,5.6309,7.6336,5.5,7.0169,5.5z" fill="#CB525D"/>
    <rect x="15" y="11" width="8" height="2" fill="#CB525D"/>
    <rect x="18" y="8" width="2" height="8" fill="#CB525D"/>
  </g>
</svg>
