<?xml version="1.0" encoding="UTF-8"?>
<!DOCTYPE svg PUBLIC "-//W3C//DTD SVG 1.1//EN" "http://www.w3.org/Graphics/SVG/1.1/DTD/svg11.dtd">
<svg version="1.1" id="Layer_1" xmlns="http://www.w3.org/2000/svg" xmlns:xlink="http://www.w3.org/1999/xlink" x="0px" y="0px" width="24px" height="24px" viewBox="0 0 24 24" enable-background="new 0 0 24 24" xml:space="preserve">
  <g id="icon">
    <polygon points="3,24 3,22 11,22 11,2 10.0573,2 8.4973,5.0826 6.7223,4.1611 8.842,0 15.049,0 17.3747,4.124 15.611,5.0669 13.8504,2 13,2 13,22 21,22 21,24" fill="#7B7B7B" stroke-linejoin="miter"/>
    <polygon points="8.0015,9.0248 8.3149,8.3692 4.4087,6.3109 4.0907,6.9643" fill="#FFFFFF" stroke-linejoin="miter" opacity="0.5"/>
    <path d="M8.0015,9.0248l-1.4026,2.9337c-0.0821,0.1653,-0.3317,0.6683,-0.599,1.0752c-3.1366,4.7277,-4.0009,4.7465,-4.3263,4.7536c-0.1586,0.0035,-0.2885,-0.0423,-0.3884,-0.1093c-0.1221,-0.0454,-0.2318,-0.1315,-0.3159,-0.2513c-0.1901,-0.2705,-0.6948,-0.989,1.1959,-6.3949c0.1626,-0.4582,0.4124,-0.9614,0.4946,-1.1272l1.4307,-2.9402L8.0015,9.0248zM9.501,6.3346L5.358,4.1744c-0.1468,-0.0766,-0.3114,-0.1152,-0.476,-0.1116C4.2752,4.076,3.6279,4.8697,3.7717,5.6c0.0513,0.2608,0.2242,0.4795,0.4556,0.6001l0.1877,0.0979l4.051,2.1458c0.1088,0.0568,0.264,0.0694,0.3861,0.0668l0.1232,-0.0027c0.2146,-0.0047,0.4234,-0.086,0.5789,-0.2377C10.1193,7.7189,10.0994,6.6465,9.501,6.3346z" fill="#6485C3"/>
    <polygon points="16.0765,9.0248 15.7631,8.3692 19.6693,6.3109 19.9873,6.9643" fill="#FFFFFF" stroke-linejoin="miter" opacity="0.5"/>
    <path d="M19.9873,6.9643l1.4307,2.9402c0.0823,0.1658,0.3321,0.669,0.4946,1.1272c1.8908,5.4059,1.386,6.1245,1.1959,6.3949c-0.0841,0.1198,-0.1938,0.2059,-0.3159,0.2513c-0.0998,0.0671,-0.2297,0.1128,-0.3884,0.1093c-0.3254,-0.0071,-1.1897,-0.0259,-4.3263,-4.7536c-0.2673,-0.4069,-0.517,-0.9099,-0.599,-1.0752l-1.4026,-2.9337L19.9873,6.9643zM14.5238,8.2701c0.1555,0.1517,0.3643,0.233,0.5789,0.2377l0.1232,0.0027c0.1221,0.0027,0.2772,-0.01,0.3861,-0.0668l4.051,-2.1458l0.1877,-0.0979c0.2313,-0.1206,0.4043,-0.3393,0.4556,-0.6001c0.1438,-0.7303,-0.5036,-1.5241,-1.1104,-1.5373c-0.1646,-0.0036,-0.3292,0.035,-0.476,0.1116l-4.143,2.1603C13.9786,6.6465,13.9586,7.7189,14.5238,8.2701z" fill="#6485C3"/>
  </g>
</svg>
