<?xml version="1.0" encoding="UTF-8"?>
<!DOCTYPE svg PUBLIC "-//W3C//DTD SVG 1.1//EN" "http://www.w3.org/Graphics/SVG/1.1/DTD/svg11.dtd">
<svg version="1.1" id="Layer_1" xmlns="http://www.w3.org/2000/svg" xmlns:xlink="http://www.w3.org/1999/xlink" x="0px" y="0px" width="24px" height="24px" viewBox="0 0 24 24" enable-background="new 0 0 24 24" xml:space="preserve">
  <g id="icon">
    <path d="M21.9494,4.75H2.2505C1.5322,4.75,0.95,5.3322,0.95,6.0505V15.75h1.5v5.8995c0,0.7005,0.5822,1.3005,1.3005,1.3005h16.699c0.7183,0,1.3006,-0.5823,1.3006,-1.3006V15.75h1.5V6.0506C23.25,5.3323,22.6677,4.75,21.9494,4.75z" fill="#FFFFFF" opacity="0.5"/>
    <path d="M4.3005,24C3.03,24,2,22.97,2,21.6995V16.5h2v5.1995c0,0.1653,0.1352,0.3005,0.3005,0.3005h15.3989c0.166,0,0.3006,-0.1346,0.3006,-0.3006V16.5h2v5.1994C22,22.97,20.97,24,19.6994,24H4.3005z" fill="#7B7B7B"/>
    <path d="M16,5V2.5625c0,-0.2601,-0.2441,-0.5625,-0.5587,-0.5625H8.5625C8.2518,2,8,2.2518,8,2.5625V5H6V2.5625C6,1.1473,7.1473,0,8.5625,0h6.8788C16.8282,0,18,1.1873,18,2.5926V5H16z" fill="#7B7B7B"/>
    <path d="M12.1,20.175c-1.6954,0,-3.1626,-1.1643,-3.5682,-2.8314L8.4481,17H1.5v-1.1h8v0.55c0,1.4474,1.1664,2.625,2.6,2.625s2.6,-1.1776,2.6,-2.625V15.9h7.9v1.1h-6.8481l-0.0836,0.3436C15.2626,19.0107,13.7954,20.175,12.1,20.175z" fill="#6485C3"/>
    <path d="M21.3994,4H2.0005C1.0754,4,0,5.0049,0,6.3005V17h2v-1v-2.3V6.3005c0,-0.1139,0.0641,-0.2287,0.1154,-0.3005h19.284c0.2243,0,0.6006,0.0391,0.6006,0.3006V13.7v2.3v1h2V6.3006C24,4.9675,22.9063,4,21.3994,4z" fill="#6485C3"/>
    <polygon points="15.6092,10.3378 14.8659,9.0349 12.75,10.2418 12.75,7.8333 11.25,7.8333 11.25,10.2418 9.1341,9.0349 8.3908,10.3378 10.4863,11.5331 8.3908,12.7283 9.1341,14.0313 11.25,12.8243 11.25,15.2333 12.75,15.2333 12.75,12.8243 14.8659,14.0313 15.6092,12.7283 13.5137,11.5331" fill="#6485C3" stroke-linejoin="miter"/>
  </g>
</svg>
