<?xml version="1.0" encoding="UTF-8"?>
<!DOCTYPE svg PUBLIC "-//W3C//DTD SVG 1.1//EN" "http://www.w3.org/Graphics/SVG/1.1/DTD/svg11.dtd">
<svg version="1.1" id="Layer_1" xmlns="http://www.w3.org/2000/svg" xmlns:xlink="http://www.w3.org/1999/xlink" x="0px" y="0px" width="24px" height="24px" viewBox="0 0 24 24" enable-background="new 0 0 24 24" xml:space="preserve">
  <g id="icon">
    <path d="M9.8148,15.0177c0,1.7811,-1.4261,3.225,-3.1852,3.225s-3.1852,-1.4439,-3.1852,-3.225s1.4261,-3.225,3.1852,-3.225S9.8148,13.2366,9.8148,15.0177zM17.3704,11.7927c-1.7591,0,-3.1852,1.4439,-3.1852,3.225s1.4261,3.225,3.1852,3.225s3.1852,-1.4439,3.1852,-3.225S19.1295,11.7927,17.3704,11.7927z" fill="#FFFFFF" opacity="0.5"/>
    <path d="M17.3704,19.1915c-2.2669,0,-4.1111,-1.8723,-4.1111,-4.1737c0,-0.148,0.0077,-0.2967,0.0231,-0.4434c-0.3915,-0.2073,-0.8303,-0.3165,-1.2752,-0.3165c-0.4474,0,-0.891,0.1103,-1.2891,0.3198c0.0151,0.1459,0.0227,0.2935,0.0227,0.4401c0,2.3014,-1.8442,4.1737,-4.1111,4.1737c-1.9328,0,-3.6019,-1.3693,-4.0149,-3.2737H1.5594C0.6996,15.9178,0,15.2084,0,14.3365c0,-0.4424,0.1277,-0.8708,0.3692,-1.2388l5.8757,-9.5942l1.5109,0.9485L1.855,14.0859c-0.007,0.0105,-0.0135,0.0211,-0.0195,0.0318h0.7792c0.413,-1.9044,2.0821,-3.2738,4.0149,-3.2738c1.4375,0,2.7728,0.7684,3.5174,2.0147c0.5831,-0.2629,1.2233,-0.4015,1.8602,-0.4015c0.6345,0,1.2703,0.1375,1.8477,0.3984c0.7449,-1.2444,2.0794,-2.0117,3.5155,-2.0117c1.9328,0,3.6019,1.3693,4.0149,3.2738h0.7795c-0.0052,-0.0092,-0.0108,-0.0182,-0.0166,-0.027l-0.0172,-0.0267l-5.8867,-9.6121l1.5109,-0.9485l5.8782,9.5982c0.239,0.3641,0.3667,0.7924,0.3667,1.2348c0,0.8719,-0.6996,1.5813,-1.5594,1.5813h-1.0553C20.9723,17.8222,19.3032,19.1915,17.3704,19.1915zM17.3704,12.644c-1.2866,0,-2.3333,1.0649,-2.3333,2.3738c0,1.3088,1.0467,2.3737,2.3333,2.3737s2.3333,-1.0648,2.3333,-2.3737C19.7037,13.7089,18.657,12.644,17.3704,12.644zM6.6296,12.644c-1.2866,0,-2.3333,1.0649,-2.3333,2.3738c0,1.3088,1.0467,2.3737,2.3333,2.3737s2.3333,-1.0648,2.3333,-2.3737C8.963,13.7089,7.9162,12.644,6.6296,12.644z" fill="#7B7B7B"/>
  </g>
</svg>
