<?xml version="1.0" encoding="UTF-8"?>
<!DOCTYPE svg PUBLIC "-//W3C//DTD SVG 1.1//EN" "http://www.w3.org/Graphics/SVG/1.1/DTD/svg11.dtd">
<svg version="1.1" id="Layer_1" xmlns="http://www.w3.org/2000/svg" xmlns:xlink="http://www.w3.org/1999/xlink" x="0px" y="0px" width="24px" height="24px" viewBox="0 0 24 24" enable-background="new 0 0 24 24" xml:space="preserve">
  <g id="icon">
    <path d="M9.4,20.1v0.3633c0,0.4104,0.2149,0.7526,0.6,0.8312V23.2h3v-1.9055c0.3851,-0.0786,0.6,-0.4209,0.6,-0.8312V20.1" fill="#FFFFFF" opacity="0.5"/>
    <path d="M18.0173,8.2H4.9827c-0.2996,-1.3466,-0.434,-2.2514,0.3822,-3.268c0.4724,-0.5884,1.2027,-1.0016,2.2327,-1.2633C8.5742,3.4206,9.8507,3.3,11.5,3.3c1.6493,0,2.9258,0.1206,3.9024,0.3687c1.03,0.2616,1.7603,0.6749,2.2327,1.2633C18.4513,5.9486,18.3169,6.8534,18.0173,8.2z" fill="#FFFFFF" opacity="0.5"/>
    <path d="M9.1,24v-2.0977c-0.3826,-0.3331,-0.6,-0.8334,-0.6,-1.389V19.9h1.8v0.5463l0.3,0.1221L10.6016,22.6H12.4v-2.0312l0.3,-0.1224V19.9h1.9v0.6133c0,0.5556,-0.2174,1.056,-0.6,1.389V24H9.1zM4.2208,9l-0.1655,-0.5437c-0.3269,-1.4692,-0.5294,-2.7013,0.5687,-4.0691c0.6063,-0.7551,1.5024,-1.275,2.7396,-1.5893c0.3127,-0.0794,0.6592,-0.1478,1.0315,-0.2036C8.7318,1.333,9.951,0.075,11.5,0.075s2.7682,1.258,3.1048,2.5193c0.3724,0.0558,0.7188,0.1242,1.0315,0.2036c1.2373,0.3143,2.1334,0.8341,2.7396,1.5893c1.0981,1.3677,0.8956,2.5998,0.5688,4.0691L18.7792,9H4.2208zM17.2357,8c0.1455,-1.6201,0.0507,-1.935,-0.3414,-2.4232c-0.3385,-0.4217,-0.903,-0.7283,-1.7258,-0.9373C14.2691,4.411,13.0691,4.3,11.5,4.3c-1.5691,0,-2.7691,0.111,-3.6686,0.3395c-0.8228,0.209,-1.3873,0.5156,-1.7258,0.9373c-0.392,0.4882,-0.4868,0.8031,-0.3413,2.4232H17.2357zM11.5,2.2849c0.4456,0,0.8807,0.0076,1.3,0.0225C12.4657,1.8668,12.0093,1.5,11.5,1.5s-0.9657,0.3668,-1.3,0.8073C10.6193,2.2924,11.0544,2.2849,11.5,2.2849z" fill="#7B7B7B"/>
    <path d="M18.0173,8.2H4.9827c0.0571,0.2422,0.1201,0.4876,0.1838,0.7352c0.2452,0.9532,0.4987,1.7351,0.4987,2.7609s-0.2535,2.0116,-0.4987,2.9648c-0.3977,1.5464,-0.7734,2.857,0.1984,3.9992c0.4724,0.5552,1.2027,0.9452,2.2327,1.192C8.5742,20.0862,9.8507,20.2,11.5,20.2c1.6493,0,2.9258,-0.1138,3.9024,-0.3479c1.03,-0.2469,1.7603,-0.6368,2.2327,-1.192c0.9718,-1.1422,0.5961,-2.4528,0.1984,-3.9992c-0.2452,-0.9532,-0.4987,-1.9389,-0.4987,-2.9648s0.2535,-1.8077,0.4987,-2.7609C17.8972,8.6876,17.9602,8.4422,18.0173,8.2z" fill="#FFFFFF" opacity="0.5"/>
    <path d="M11.5,21.2c-1.7248,0,-3.0737,-0.1224,-4.1239,-0.3741c-1.2327,-0.2955,-2.1273,-0.7862,-2.7348,-1.5002c-1.2632,-1.4849,-0.8391,-3.129,-0.429,-4.7189l0.0341,-0.1326c0.2305,-0.896,0.4688,-1.8227,0.4688,-2.7281c0,-0.7537,-0.1671,-1.3834,-0.3607,-2.1126l-0.0065,-0.0248c-0.0335,-0.1265,-0.0676,-0.2551,-0.1015,-0.387c-0.0599,-0.2325,-0.1277,-0.496,-0.1885,-0.7536L3.9826,8h15.0345l-0.0751,0.4678c-0.0606,0.2573,-0.1286,0.5213,-0.1885,0.7542c-0.0357,0.1391,-0.0718,0.2746,-0.1071,0.4079c-0.1946,0.7336,-0.3616,1.3632,-0.3616,2.1162c0,0.9055,0.2382,1.8316,0.4686,2.7273l0.0344,0.1333c0.4102,1.5899,0.8343,3.234,-0.429,4.7188c-0.6075,0.7141,-1.5021,1.2048,-2.7348,1.5003C14.5737,21.0776,13.2248,21.2,11.5,21.2zM6.2053,9c0.2128,1.0023,0.4099,1.7667,0.4099,2.7461c0,1.1458,-0.2687,2.1904,-0.5284,3.2006l-0.0347,0.1346c-0.3863,1.4978,-0.5602,2.3121,0.0363,3.0132c0.3373,0.3964,0.9034,0.6855,1.7306,0.8837C8.7222,19.1948,9.9263,19.3,11.5,19.3c1.5738,0,2.7778,-0.1052,3.681,-0.3217c0.8273,-0.1983,1.3934,-0.4874,1.7306,-0.8838c0.5965,-0.7011,0.4227,-1.5153,0.0363,-3.0131l-0.0344,-0.1336c-0.26,-1.0107,-0.5287,-2.0557,-0.5287,-3.2016c0,-0.9795,0.1972,-1.7438,0.41,-2.7461H6.2053z" fill="#6485C3"/>
    <rect x="8" y="6" width="4" height="1" fill="#7B7B7B"/>
    <path d="M12,11H8v-1h4V11zM12,12H8v1h4V12zM12,14H8v1h4V14zM12,16H8v1h4V16z" fill="#7B7B7B"/>
  </g>
</svg>
