<?xml version="1.0" encoding="utf-8"?>
<!-- Generator: Adobe Illustrator 26.3.0, SVG Export Plug-In . SVG Version: 6.00 Build 0)  -->
<svg version="1.1" id="Layer_1" xmlns="http://www.w3.org/2000/svg" xmlns:xlink="http://www.w3.org/1999/xlink" x="0px" y="0px"
	 viewBox="0 0 16 16" style="enable-background:new 0 0 16 16;" xml:space="preserve">
<style type="text/css">
	.st0{opacity:0.5;fill:#FFFFFF;enable-background:new    ;}
	.st1{fill:#EEAC55;}
	.st2{fill:#6485C3;}
</style>
<g id="icon">
	<path class="st0" d="M15.6,6.5c-0.1-0.7-0.9-1.3-2.2-1.6v-2h0c-0.1-1.1-2.1-2-4.5-2c-2.5,0-4.4,0.9-4.5,2h0v1.3C4.8,4,5.1,4,5.5,4
		h0C7,4,8.1,4.5,8.8,5.4c0.6,0.8,0.7,1.8,0.7,2.5c0,0.8-0.1,1.5-0.4,2.2c0.6,0.1,1.3,0.2,2,0.2c2.5,0,4.5-1,4.5-1.8L15.6,6.5
		L15.6,6.5z"/>
	<path class="st1" d="M16,6.2c-0.1-0.8-1-1.5-2.1-1.9V2.5h0c-0.1-0.7-0.6-1.3-1.5-1.7c-0.9-0.5-2.1-0.7-3.5-0.7
		c-1.3,0-2.5,0.3-3.4,0.7C4.6,1.2,4.1,1.8,4,2.5h0l0,0.2l0,1.6C4.4,4.1,4.9,4,5.5,4h0c1.3,0,2.3,0.4,3,1c0.1,0,0.3,0,0.4,0
		c1.5,0,2.9-0.3,3.7-0.8V5c-0.2,0.2-0.5,0.4-0.9,0.6c-0.7,0.3-1.6,0.5-2.5,0.5c0.1,0.3,0.2,0.6,0.2,0.9c1.8-0.1,3.4-0.7,4-1.6
		c0.9,0.3,1.3,0.8,1.3,0.9l0,0v0.4c-0.2,0.2-0.5,0.4-0.8,0.5c-0.7,0.3-1.7,0.5-2.9,0.5c-0.6,0-1.1,0-1.6-0.1c0,0,0,0.1,0,0.1
		c0,0.3,0,0.5-0.1,0.8c0.5,0.1,1.1,0.1,1.6,0.1c1.5,0,2.8-0.3,3.7-0.8v0.5c0,0.1-0.2,0.3-0.8,0.6c-0.8,0.4-1.8,0.6-2.9,0.6
		c-0.6,0-1.2-0.1-1.8-0.2c-0.1,0.3-0.2,0.7-0.4,1c0.2,0.1,0.4,0.2,0.6,0.4c0.5,0.1,1,0.1,1.5,0.1c1.2,0,2.4-0.2,3.4-0.7
		c1-0.5,1.6-1.1,1.6-1.8L16,6.2L16,6.2z M12.7,3c-0.2,0.2-0.5,0.4-0.9,0.6C11,4,10,4.1,8.9,4.1c-1.9,0-3.2-0.5-3.7-1V2.7l0,0
		c0-0.2,0.3-0.5,0.8-0.8c0.7-0.4,1.7-0.6,2.9-0.6c1.1,0,2.2,0.2,2.9,0.6c0.5,0.3,0.8,0.6,0.8,0.8l0,0V3z"/>
	<path class="st0" d="M10.2,15.4c0.1,0,0.2-0.1,0.2-0.2l0-0.3c-0.1-0.9-0.5-2.5-2.8-3.4c-0.5-0.2-0.8-0.6-0.5-1
		c0.6-0.8,0.9-1.8,0.9-2.7c0-1.4-0.4-2.3-2.4-2.3h0c-2,0-2.4,0.9-2.4,2.3c0,0.9,0.2,1.9,0.8,2.7c0.2,0.3,0,0.8-0.5,1
		c-2.2,0.9-2.7,2.5-2.7,3.4l0,0.3c0,0.1,0.1,0.2,0.2,0.2H10.2z"/>
	<path class="st2" d="M0.7,16c-0.2,0-0.4-0.1-0.5-0.2C0.1,15.6,0,15.5,0,15.3L0,15c0.1-1,0.6-2.9,3.1-3.9c0.2-0.1,0.2-0.1,0.3-0.2
		l0,0l0,0c-0.6-0.8-0.9-1.9-0.9-3c0-1.2,0.3-2.9,3-2.9h0c2.7,0,3,1.6,3,2.9c0,1.1-0.3,2.2-0.9,3l0,0l0,0c0,0,0.1,0.1,0.3,0.2
		c2.5,1,3.1,2.9,3.2,3.9l0,0.3c0,0.2,0,0.4-0.2,0.5c-0.1,0.1-0.3,0.2-0.5,0.2C10.3,16,0.7,16,0.7,16z M5.5,6.1
		c-1.6,0-1.9,0.6-1.9,1.8c0,0.9,0.3,1.8,0.8,2.4l0,0c0.2,0.3,0.3,0.6,0.2,0.9c-0.1,0.4-0.4,0.7-0.9,0.9c-1.9,0.7-2.4,2.1-2.5,2.8
		l0,0.1h8.8l0-0.1c-0.1-0.7-0.6-2.1-2.5-2.8c-0.5-0.2-0.8-0.5-0.9-0.9c-0.1-0.3,0-0.6,0.2-0.9l0,0c0.5-0.6,0.8-1.5,0.8-2.4
		C7.5,6.6,7.2,6.1,5.5,6.1L5.5,6.1L5.5,6.1z"/>
</g>
</svg>
