<?xml version="1.0" encoding="utf-8"?>
<!-- Generator: Adobe Illustrator 26.3.0, SVG Export Plug-In . SVG Version: 6.00 Build 0)  -->
<svg version="1.1" id="Layer_1" xmlns="http://www.w3.org/2000/svg" xmlns:xlink="http://www.w3.org/1999/xlink" x="0px" y="0px"
	 viewBox="0 0 16 16" style="enable-background:new 0 0 16 16;" xml:space="preserve">
<style type="text/css">
	.st0{fill:#6D6E71;}
	.st1{opacity:0.5;fill:#FFFFFF;enable-background:new    ;}
</style>
<g id="icon">
	<path class="st0" d="M1,0v16h14V0H1z M9,4v1H3V4H9z M3,3V2h6v1H3z M9,6v1H3V6H9z M9,8v1H3V8H9z M9,10v1H3v-1H9z M9,12v1H3v-1H9z
		 M13,4v1h-3V4H13z M10,3V2h3v1H10z M13,6v1h-3V6H13z M13,8v1h-3V8H13z M13,10v1h-3v-1H13z M13,12v1h-3v-1H13z"/>
	<path class="st1" d="M9,13H3v-1h6V13z M9,11H3v-1h6V11z M9,9H3V8h6V9z M9,7H3V6h6V7z M9,5H3V4h6V5z M9,3H3V2h6V3z M13,9h-3V8h3V9z
		 M13,7h-3V6h3V7z M13,3h-3V2h3V3z M13,12h-3v1h3V12z M13,10h-3v1h3V10z M13,4h-3v1h3V4z"/>
</g>
</svg>
