<?xml version="1.0" encoding="utf-8"?>
<!-- Generator: Adobe Illustrator 26.3.0, SVG Export Plug-In . SVG Version: 6.00 Build 0)  -->
<svg version="1.1" id="Layer_1" xmlns="http://www.w3.org/2000/svg" xmlns:xlink="http://www.w3.org/1999/xlink" x="0px" y="0px"
	 viewBox="0 0 16 16" style="enable-background:new 0 0 16 16;" xml:space="preserve">
<style type="text/css">
	.st0{fill:#EEAD56;}
	.st1{opacity:0.5;fill:#FFFFFF;enable-background:new    ;}
	.st2{fill:#6485C3;}
	.st3{fill:#6D6E71;}
	.st4{fill:#FFFFFF;}
</style>
<g id="icon">
	<path class="st0" d="M7.1,11.8c0,0.4-0.3,0.8-0.7,0.8H4.6V11h1.7c0,0,0,0,0.1,0l0,0c0,0,0.1,0,0.1,0C6.8,11.1,7.1,11.4,7.1,11.8z
		 M6.4,10c0.3-0.1,0.5-0.4,0.5-0.7c0-0.4-0.3-0.7-0.8-0.7H4.6V10h1.7C6.4,10,6.4,10,6.4,10z M11,10.5c0,3-2.5,5.5-5.5,5.5
		S0,13.5,0,10.5S2.5,5,5.5,5S11,7.5,11,10.5z M8,11.8c0-0.5-0.2-1-0.6-1.3c0.3-0.3,0.4-0.7,0.4-1.1c0-0.9-0.8-1.7-1.7-1.7H5.9V6.9H5
		v0.7H3.7v5.9H5v0.6h1v-0.6h0.4C7.3,13.5,8,12.7,8,11.8z"/>
	<path class="st1" d="M7.4,10.4c0.3-0.3,0.4-0.7,0.4-1.1c0-0.9-0.8-1.7-1.7-1.7H5.9V6.9H5v0.7H3.7v5.9H5v0.6h1v-0.6h0.4
		c0.9,0,1.7-0.8,1.7-1.7C8,11.2,7.8,10.8,7.4,10.4z M4.6,8.6h1.5c0.4,0,0.8,0.3,0.8,0.7c0,0.3-0.2,0.6-0.5,0.7c0,0-0.1,0-0.1,0H4.6
		V8.6z M6.3,12.5H4.6V11h1.7c0,0,0,0,0.1,0l0,0c0,0,0.1,0,0.1,0c0.3,0.1,0.6,0.4,0.6,0.8C7.1,12.2,6.7,12.5,6.3,12.5z"/>
	<path class="st2" d="M2,0v3h14V0H2z M11,2h-1V1h1V2z M13,2h-1V1h1V2z M15,2h-1V1h1V2z"/>
	<path class="st1" d="M11,2h-1V1h1V2z M12,2h1V1h-1V2z M14,1v1h1V1H14z"/>
	<path class="st3" d="M6,4C5.8,4,5.7,4,5.5,4L6,4L6,4z M5.5,4H3H2v1C3,4.4,4.2,4,5.5,4z M15,4H7v0.2c2.9,0.7,5,3.3,5,6.3
		c0,1.3-0.4,2.5-1,3.5h5V4H15z"/>
	<path class="st1" d="M16,3v1H7v0.2C6.7,4.1,6.3,4,6,4v0H2V3H16z"/>
	<path class="st4" d="M12,10h2v1h-2c0-0.2,0-0.3,0-0.5S12,10.2,12,10z M11.8,9H14V8h-2.5C11.6,8.3,11.7,8.7,11.8,9z M10.2,6
		c0.3,0.3,0.6,0.6,0.8,1h3V6H10.2z"/>
</g>
</svg>
