<?xml version="1.0" encoding="utf-8"?>
<!-- Generator: Adobe Illustrator 26.3.0, SVG Export Plug-In . SVG Version: 6.00 Build 0)  -->
<svg version="1.1" id="Layer_1" xmlns="http://www.w3.org/2000/svg" xmlns:xlink="http://www.w3.org/1999/xlink" x="0px" y="0px"
	 viewBox="0 0 16 16" style="enable-background:new 0 0 16 16;" xml:space="preserve">
<style type="text/css">
	.st0{fill:#EEAD56;}
	.st1{fill:#CB535D;}
</style>
<g id="icon">
	<path class="st0" d="M8,3.4c-0.3,0-0.5-0.2-0.5-0.5V0.5C7.5,0.2,7.8,0,8,0s0.5,0.2,0.5,0.5v2.4C8.5,3.2,8.3,3.4,8,3.4z"/>
	<path class="st0" d="M10.5,4.1c-0.1,0-0.1,0-0.2,0C10.1,4,10,3.7,10,3.4l0.8-2.3c0.1-0.3,0.4-0.4,0.6-0.3c0.3,0.1,0.4,0.4,0.3,0.6
		L11,3.7C10.9,4,10.7,4.1,10.5,4.1z"/>
	<path class="st0" d="M12.8,5.4c-0.1,0-0.2,0-0.3-0.1c-0.2-0.2-0.2-0.5-0.1-0.7L14,2.7c0.2-0.2,0.5-0.2,0.7-0.1
		C15,2.8,15,3.1,14.8,3.3l-1.6,1.9C13.1,5.3,13,5.4,12.8,5.4z"/>
	<path class="st0" d="M5.6,4.1C5.4,4.1,5.2,4,5.1,3.7L4.3,1.4c-0.1-0.3,0-0.5,0.3-0.6c0.3-0.1,0.5,0,0.6,0.3l0.8,2.3
		C6.2,3.7,6,4,5.8,4.1C5.7,4.1,5.7,4.1,5.6,4.1z"/>
	<path class="st0" d="M3.3,5.4C3.1,5.4,3,5.3,2.9,5.2L1.3,3.3C1.1,3.1,1.2,2.8,1.4,2.6c0.2-0.2,0.5-0.1,0.7,0.1l1.6,1.9
		c0.2,0.2,0.1,0.5-0.1,0.7C3.5,5.4,3.4,5.4,3.3,5.4z"/>
	<path class="st1" d="M8,12.5c-0.9,0-1.8-0.3-2.5-0.8L4,14.6l1.8,0l1.3,1.3L8,12.5l1,3.4l1.3-1.3l1.8,0l-1.6-3
		C9.8,12.2,9,12.5,8,12.5z"/>
	<ellipse class="st1" cx="8" cy="8.4" rx="3.4" ry="3.4"/>
</g>
</svg>
