<?xml version="1.0" encoding="utf-8"?>
<!-- Generator: Adobe Illustrator 26.3.0, SVG Export Plug-In . SVG Version: 6.00 Build 0)  -->
<svg version="1.1" id="Layer_1" xmlns="http://www.w3.org/2000/svg" xmlns:xlink="http://www.w3.org/1999/xlink" x="0px" y="0px"
	 viewBox="0 0 16 16" style="enable-background:new 0 0 16 16;" xml:space="preserve">
<style type="text/css">
	.st0{fill:#6E6F72;}
	.st1{opacity:0.5;fill:#FFFFFF;enable-background:new    ;}
	.st2{fill:#EEAD56;}
</style>
<g id="icon">
	<path class="st0" d="M10.3,8.1L9.9,8.4L10.3,8.1C9.7,7.2,9,6.3,8.6,5.4C8.5,5.2,8.3,5,8,5C7.7,5,7.5,5.2,7.4,5.4
		C7,6.3,6.3,7.2,5.7,8.1c-1,1.3-2,2.6-2,3.9c0,1.1,0.5,2.2,1.3,2.9C5.8,15.6,6.9,16,8,16c1.1,0,2.2-0.4,3-1.1
		c0.8-0.8,1.3-1.8,1.3-2.9C12.3,10.6,11.3,9.4,10.3,8.1z M10.8,12.4c0,0.2-0.2,0.4-0.4,0.4c0,0,0,0-0.1,0c-0.2,0-0.4-0.3-0.4-0.5
		c0.1-0.7-0.7-1.5-1-1.9c-0.1-0.1-0.1-0.1-0.1-0.2c-0.1-0.1-0.4-0.5-0.6-0.9c-0.1-0.2,0-0.5,0.2-0.6C8.7,8.6,8.9,8.7,9,9
		c0.1,0.3,0.4,0.6,0.5,0.7l0,0c0,0,0.1,0.1,0.1,0.1C10,10.3,10.9,11.4,10.8,12.4z"/>
	<path class="st1" d="M10.3,12.8C10.3,12.8,10.3,12.8,10.3,12.8c-0.3,0-0.5-0.3-0.4-0.5c0.1-0.7-0.7-1.5-1-1.9
		c-0.1-0.1-0.1-0.1-0.1-0.2c-0.1-0.1-0.4-0.5-0.6-0.9c-0.1-0.2,0-0.5,0.2-0.6C8.7,8.6,8.9,8.7,9,9c0.1,0.3,0.4,0.6,0.5,0.7l0,0
		c0,0,0.1,0.1,0.1,0.1c0.4,0.5,1.3,1.6,1.2,2.6C10.8,12.6,10.6,12.8,10.3,12.8z"/>
	<path class="st2" d="M8,3.4c-0.3,0-0.5-0.2-0.5-0.5V0.5C7.5,0.2,7.8,0,8,0s0.5,0.2,0.5,0.5v2.4C8.5,3.2,8.3,3.4,8,3.4z M11,3.7
		l0.8-2.3c0.1-0.3,0-0.5-0.3-0.6c-0.3-0.1-0.5,0-0.6,0.3L10,3.4c-0.1,0.3,0,0.5,0.3,0.6c0.1,0,0.1,0,0.2,0C10.7,4.1,10.9,4,11,3.7z
		 M13.2,5.2l1.6-1.9C15,3.1,15,2.8,14.8,2.6c-0.2-0.2-0.5-0.1-0.7,0.1l-1.6,1.9c-0.2,0.2-0.1,0.5,0.1,0.7c0.1,0.1,0.2,0.1,0.3,0.1
		C13,5.4,13.1,5.3,13.2,5.2z M5.8,4.1C6,4,6.2,3.7,6.1,3.4L5.3,1.1C5.2,0.8,4.9,0.7,4.6,0.8C4.4,0.9,4.2,1.2,4.3,1.4l0.8,2.3
		C5.2,4,5.4,4.1,5.6,4.1C5.7,4.1,5.7,4.1,5.8,4.1z M3.6,5.3c0.2-0.2,0.2-0.5,0.1-0.7L2.1,2.7C1.9,2.4,1.6,2.4,1.4,2.6
		C1.2,2.8,1.1,3.1,1.3,3.3l1.6,1.9C3,5.3,3.1,5.4,3.3,5.4C3.4,5.4,3.5,5.4,3.6,5.3z"/>
</g>
</svg>
