<?xml version="1.0" encoding="utf-8"?>
<!-- Generator: Adobe Illustrator 26.3.0, SVG Export Plug-In . SVG Version: 6.00 Build 0)  -->
<svg version="1.1" id="Layer_1" xmlns="http://www.w3.org/2000/svg" xmlns:xlink="http://www.w3.org/1999/xlink" x="0px" y="0px"
	 viewBox="0 0 16 16" style="enable-background:new 0 0 16 16;" xml:space="preserve">
<style type="text/css">
	.st0{fill:#52B250;}
	.st1{opacity:0.5;fill:#FFFFFF;enable-background:new    ;}
</style>
<g id="icon">
	<g>
		<path class="st0" d="M0,3v11h16V3H0z M4,4l0,0.2c0,1.6-1.3,2.9-2.8,2.9L1,7.1L1,4H4z M1,13l0-3.1l0.2,0c1.5,0,2.8,1.3,2.8,2.9
			L4,13H1z M8,12c-1.4,0-2.6-1.6-2.6-3.5S6.6,5,8,5s2.6,1.6,2.6,3.5S9.4,12,8,12z M15,4l0,3.1l-0.2,0c-1.5,0-2.8-1.3-2.8-2.9L12,4
			H15z M12,13l0-0.2c0-1.6,1.3-2.9,2.8-2.9l0.2,0l0,3.1H12z"/>
		<ellipse class="st0" cx="8" cy="8.5" rx="1.7" ry="2.5"/>
	</g>
	<path class="st1" d="M8,12c-1.4,0-2.6-1.6-2.6-3.5S6.6,5,8,5s2.6,1.6,2.6,3.5S9.4,12,8,12z M8,6c-1,0-1.7,1.1-1.7,2.5S7.1,11,8,11
		s1.7-1.1,1.7-2.5S9,6,8,6z M1,7.1L1,4h3l0,0.2c0,1.6-1.3,2.9-2.8,2.9L1,7.1z M14.8,7.1c-1.5,0-2.8-1.3-2.8-2.9L12,4h3l0,3.1
		L14.8,7.1z M1.2,9.9c1.5,0,2.8,1.3,2.8,2.9L4,13H1l0-3.1L1.2,9.9z M15,9.9l0,3.1h-3l0-0.2c0-1.6,1.3-2.9,2.8-2.9L15,9.9z"/>
</g>
</svg>
