<?xml version="1.0" encoding="utf-8"?>
<!-- Generator: Adobe Illustrator 26.3.0, SVG Export Plug-In . SVG Version: 6.00 Build 0)  -->
<svg version="1.1" id="Layer_1" xmlns="http://www.w3.org/2000/svg" xmlns:xlink="http://www.w3.org/1999/xlink" x="0px" y="0px"
	 viewBox="0 0 16 16" style="enable-background:new 0 0 16 16;" xml:space="preserve">
<style type="text/css">
	.st0{opacity:0.5;fill:#FFFFFF;enable-background:new    ;}
	.st1{fill:#EEAD56;}
	.st2{fill:#6E6F72;}
	.st3{fill:#6485C3;}
</style>
<g id="icon">
	<path class="st0" d="M10.5,0.6l-5,2.3v0.6h1v2.4c0.6,0.3,1.4,0.5,2.1,0.6L10,6.5l0,1.4C10,8.4,9.9,9,9.9,9.5h4.6v-6h1V2.9L10.5,0.6
		z"/>
	<path class="st1" d="M9,5v1.5l1,0.1l0,1.4c0,0.6-0.1,1.5-0.2,2.1H12V5H9z M11,9h-1V6h1V9z"/>
	<path class="st2" d="M16,4V2.7l-5.5-2.6L5,2.7V4h1v1.7C6.3,5.8,6.6,6,7,6.1V4h7v5H9.9c0,0.4-0.1,0.7-0.1,1H16V9h-1V4H16z M6.4,3
		l4.1-1.8L14.6,3H6.4z"/>
	<path class="st0" d="M8.5,7.9c-1.6-0.1-3.2-0.9-4-1.4c-0.8,0.6-2.4,1.3-4,1.4c0,0.4,0.1,1.2,0.2,1.9c0.2,1.5,0.6,2.7,1.2,3.5
		c0.8,1.1,1.6,1.8,2.6,2.1c1-0.3,1.8-1,2.6-2.1c0.6-0.8,1-2.1,1.2-3.5C8.4,9.2,8.5,8.4,8.5,7.9z"/>
	<path class="st3" d="M4.5,16l-0.1,0c-1-0.3-1.9-1-2.9-2.3c-0.6-0.9-1.1-2.2-1.3-3.7C0.1,9.3,0,8.4,0,7.9l0-0.5l0.5,0
		c1.4-0.1,2.9-0.8,3.7-1.4l0.3-0.2l0.3,0.2C5.4,6.5,7,7.3,8.5,7.4l0.5,0l0,0.5c0,0.5-0.1,1.4-0.2,2c-0.2,1.5-0.7,2.9-1.3,3.7
		c-0.9,1.3-1.8,2-2.9,2.3L4.5,16z M1,8.4c0,0.4,0.1,0.9,0.1,1.4c0.2,1.4,0.6,2.5,1.1,3.3c0.7,1,1.4,1.6,2.2,1.9
		c0.8-0.3,1.4-0.9,2.2-1.9c0.5-0.7,1-1.9,1.1-3.3C7.9,9.3,8,8.8,8,8.4C6.6,8.2,5.3,7.6,4.5,7.1C3.7,7.6,2.4,8.2,1,8.4z"/>
</g>
</svg>
