<?xml version="1.0" encoding="utf-8"?>
<!-- Generator: Adobe Illustrator 26.3.0, SVG Export Plug-In . SVG Version: 6.00 Build 0)  -->
<svg version="1.1" id="Layer_1" xmlns="http://www.w3.org/2000/svg" xmlns:xlink="http://www.w3.org/1999/xlink" x="0px" y="0px"
	 viewBox="0 0 16 16" style="enable-background:new 0 0 16 16;" xml:space="preserve">
<style type="text/css">
	.st0{fill:#52B250;}
	.st1{opacity:0.5;fill:#FFFFFF;enable-background:new    ;}
</style>
<g id="icon">
	<path class="st0" d="M9.3,8H7V6h2.1c0.6,0,1,0.4,1,1C10.1,7.5,9.7,7.9,9.3,8L9.3,8z M9.3,9H7v2h2.3c0.5,0,1-0.4,1-1S9.8,9,9.3,9z
		 M16,3v11H0V3H16z M1,4l0,3.1l0.2,0C2.7,7.1,4,5.8,4,4.2L4,4H1z M4,13l0-0.2c0-1.6-1.3-2.9-2.8-2.9L1,9.9L1,13H4z M11.3,10
		c0-0.7-0.3-1.2-0.8-1.6C10.9,8,11.1,7.5,11.1,7c0-1-0.7-1.7-1.6-1.9V4.4h-1V5H8V4.4H7V5H6v7h1v0.6h1V12h0.5v0.6h1V12
		C10.5,11.9,11.3,11,11.3,10z M12,4l0,0.2c0,1.6,1.3,2.9,2.8,2.9l0.2,0L15,4H12z M15,13l0-3.1l-0.2,0c-1.6,0-2.8,1.3-2.8,2.9l0,0.2
		H15z"/>
	<path class="st1" d="M1,7.1L1,4h3l0,0.2c0,1.6-1.3,2.9-2.8,2.9L1,7.1z M14.8,7.1c-1.5,0-2.8-1.3-2.8-2.9L12,4h3l0,3.1L14.8,7.1z
		 M1.2,9.9c1.5,0,2.8,1.3,2.8,2.9L4,13H1l0-3.1L1.2,9.9z M15,9.9l0,3.1h-3l0-0.2c0-1.6,1.3-2.9,2.8-2.9L15,9.9z"/>
	<path class="st1" d="M9.5,12.6h-1V12H8v0.6H7V12H6V5h1V4.4h1V5h0.5V4.4h1V5c0.9,0.2,1.6,1,1.6,1.9c0,0.6-0.2,1.1-0.6,1.4
		c0.5,0.4,0.8,0.9,0.8,1.6c0,1-0.8,1.9-1.8,2L9.5,12.6L9.5,12.6z M7,11h2.3c0.5,0,1-0.4,1-1s-0.4-1-1-1H7V11z M7,8h2.3l0,0
		c0.5-0.1,0.8-0.5,0.8-1c0-0.5-0.4-1-1-1H7V8z"/>
</g>
</svg>
