<?xml version="1.0" encoding="utf-8"?>
<!-- Generator: Adobe Illustrator 26.3.0, SVG Export Plug-In . SVG Version: 6.00 Build 0)  -->
<svg version="1.1" id="Layer_1" xmlns="http://www.w3.org/2000/svg" xmlns:xlink="http://www.w3.org/1999/xlink" x="0px" y="0px"
	 viewBox="0 0 16 16" style="enable-background:new 0 0 16 16;" xml:space="preserve">
<style type="text/css">
	.st0{opacity:0.5;fill:#FFFFFF;enable-background:new    ;}
	.st1{fill:#EEAC55;}
</style>
<g id="icon">
	<polygon class="st0" points="13,3.3 12.7,2.7 2.3,2.7 2,3.3 2,12.9 4,14.4 10.8,14.4 13,12.9 	"/>
	<path class="st1" d="M13,2.9L13,2.9c-0.1-0.8-0.6-1.5-1.6-2.1C10.4,0.3,9,0,7.5,0C6,0,4.6,0.3,3.6,0.8C2.6,1.4,2.1,2.1,2,2.9h0V3
		c0,0,0,0,0,0h0v1.8c0,0.7,0.6,1.4,1.7,2c1,0.5,2.4,0.7,3.8,0.7c1.4,0,2.8-0.2,3.8-0.7c1-0.5,1.6-1.1,1.7-1.8c0-0.1,0-0.1,0-0.2V3
		L13,2.9z M12.6,3.9c-1,0.9-2.8,1.5-5.1,1.5c-2.3,0-4.1-0.6-5.1-1.5V3C3,3.5,3.1,3.7,3.8,4c1,0.4,2.3,0.7,3.8,0.7
		c2.8,0,4.4-0.8,5.1-1.7V3.9z"/>
	<path class="st1" d="M11.5,7.5c-1,0.5-2.5,0.8-4,0.8c-1.6,0-3-0.3-4-0.8C2.8,7.2,2.3,6.8,2,6.4v1.2c0,0.7,0.6,1.4,1.7,2
		c1,0.5,2.4,0.7,3.8,0.7c1.4,0,2.8-0.2,3.8-0.7c1-0.5,1.6-1.1,1.7-1.8c0-0.1,0-0.1,0-0.2V6.4C12.7,6.8,12.2,7.2,11.5,7.5z"/>
	<path class="st1" d="M11.5,10.3c-1,0.5-2.5,0.8-4,0.8c-1.6,0-3-0.3-4-0.8C2.8,10,2.3,9.6,2,9.2v1.2c0,0.7,0.6,1.4,1.7,2
		c1,0.5,2.4,0.7,3.8,0.7c1.4,0,2.8-0.2,3.8-0.7c1-0.5,1.6-1.1,1.7-1.8c0-0.1,0-0.1,0-0.2V9.2C12.7,9.6,12.2,10,11.5,10.3z"/>
	<path class="st1" d="M11.5,13.1c-1,0.5-2.5,0.8-4,0.8c-1.6,0-3-0.3-4-0.8C2.8,12.8,2.3,12.4,2,12v1.3c0,0.7,0.6,1.4,1.7,2
		c1,0.5,2.4,0.7,3.8,0.7c1.4,0,2.8-0.2,3.8-0.7c1-0.5,1.6-1.1,1.7-1.8c0-0.1,0-0.1,0-0.2V12C12.7,12.4,12.2,12.8,11.5,13.1z"/>
</g>
</svg>
