<?xml version="1.0" encoding="utf-8"?>
<!-- Generator: Adobe Illustrator 26.3.0, SVG Export Plug-In . SVG Version: 6.00 Build 0)  -->
<svg version="1.1" id="Layer_1" xmlns="http://www.w3.org/2000/svg" xmlns:xlink="http://www.w3.org/1999/xlink" x="0px" y="0px"
	 viewBox="0 0 16 16" style="enable-background:new 0 0 16 16;" xml:space="preserve">
<style type="text/css">
	.st0{opacity:0.5;fill:#FFFFFF;enable-background:new    ;}
	.st1{fill:#EEAC55;}
</style>
<g id="icon">
	<path class="st0" d="M15.5,8c0,4.1-3.4,7.5-7.5,7.5S0.5,12.1,0.5,8S3.9,0.5,8,0.5S15.5,3.9,15.5,8z"/>
	<path class="st1" d="M8,16c-4.4,0-8-3.6-8-8s3.6-8,8-8s8,3.6,8,8S12.4,16,8,16z M8,1C4.1,1,1,4.1,1,8s3.1,7,7,7s7-3.1,7-7
		S11.9,1,8,1z"/>
	<path class="st1" d="M9,13H8v-1H7.2v1h-1v-1H5V4h1.2V3h1v1H8V3h1v1c1,0.2,1.8,1.1,1.8,2.2c0,0.7-0.3,1.3-0.8,1.7
		C10.6,8.3,11,9,11,9.8c0,1.2-0.9,2.1-2,2.2L9,13L9,13z M6,11h2.8c0.7,0,1.2-0.6,1.2-1.2S9.5,8.5,8.8,8.5H6V11z M6,7.5h2.8l0,0
		c0.6-0.1,1.1-0.6,1.1-1.3C9.8,5.5,9.3,5,8.6,5H6V7.5z"/>
</g>
</svg>
