<?xml version="1.0" encoding="utf-8"?>
<!-- Generator: Adobe Illustrator 26.3.0, SVG Export Plug-In . SVG Version: 6.00 Build 0)  -->
<svg version="1.1" id="Layer_1" xmlns="http://www.w3.org/2000/svg" xmlns:xlink="http://www.w3.org/1999/xlink" x="0px" y="0px"
	 viewBox="0 0 16 16" style="enable-background:new 0 0 16 16;" xml:space="preserve">
<style type="text/css">
	.st0{fill:#EEAC55;}
	.st1{opacity:0.5;fill:#FFFFFF;enable-background:new    ;}
</style>
<g id="icon">
	<path class="st0" d="M2,2.6v1.9c0,0.1,0,0.1,0,0.2c0.1,0.6,0.7,1.2,1.7,1.6C4.7,6.7,6.1,7,7.5,7c1.4,0,2.8-0.3,3.8-0.7
		C12.4,5.9,13,5.2,13,4.6v-2h0c0,0,0,0,0,0V2.5h0c-0.1-0.7-0.6-1.3-1.6-1.8C10.4,0.3,9,0,7.5,0C6,0,4.6,0.3,3.6,0.7
		C2.6,1.2,2.1,1.8,2,2.5h0L2,2.6z M2.6,2.6C3.3,3.3,4.7,4,7.5,4c1.4,0,2.7-0.2,3.7-0.6C11.9,3.2,12,3,12.5,2.6v0.8
		c-1,0.8-2.7,1.3-5,1.3c-2.2,0-4-0.5-4.9-1.3C2.6,3.4,2.6,2.6,2.6,2.6z"/>
	<path class="st1" d="M2.6,3.4V2.6C3.3,3.3,4.7,4,7.5,4c1.4,0,2.7-0.2,3.7-0.6C11.9,3.2,12,3,12.5,2.6v0.8c-1,0.8-2.7,1.3-5,1.3
		C5.3,4.7,3.5,4.2,2.6,3.4z"/>
	<path class="st0" d="M16,7.1C16,7.1,16,7.1,16,7.1L16,7.1L16,7.1c-0.1-0.8-0.6-1.4-1.6-1.9C14.2,5.1,14,5.1,13.8,5
		c-0.1,0.6-0.6,1.4-2.1,2.1C10.5,7.5,9,7.8,7.5,7.8c-0.3,0-0.7,0-1,0c0.8,0.4,2.1,0.8,4,0.8c1.4,0,2.7-0.2,3.7-0.6
		c0.7-0.3,0.8-0.4,1.3-0.9v0.8c-1,0.8-2.7,1.3-5,1.3c-2.2,0-4-0.5-4.9-1.3V7.6C5.4,7.6,5.2,7.6,5,7.5V9c0,0.1,0,0.1,0,0.2
		c0.1,0.6,0.7,1.2,1.7,1.6c1,0.4,2.4,0.7,3.8,0.7c1.4,0,2.8-0.3,3.8-0.7c1.1-0.5,1.7-1.1,1.7-1.7L16,7.1L16,7.1z"/>
	<path class="st1" d="M14.2,7.9c-0.9,0.4-2.2,0.6-3.7,0.6c-1.9,0-3.2-0.3-4-0.8c-0.3,0-0.6-0.1-0.9-0.1v0.3c1,0.8,2.7,1.3,4.9,1.3
		c2.2,0,4-0.5,5-1.3V7.1C15,7.5,14.9,7.7,14.2,7.9z"/>
	<path class="st0" d="M10.5,12.3C10.5,12.3,10.5,12.3,10.5,12.3L10.5,12.3c-1,0.9-2.8,1.4-5,1.4c-2.2,0-4-0.5-4.9-1.3v-0.8
		C1.3,12.3,2.7,13,5.5,13c1.4,0,2.7-0.2,3.7-0.6c0.2-0.1,0.3-0.1,0.4-0.2c-1.2-0.1-2.3-0.3-3.2-0.7C4.8,10.9,4.3,10,4.2,9.3
		c0-0.1,0-0.2,0-0.3c-1,0.1-1.9,0.3-2.6,0.7c-1,0.5-1.5,1.1-1.6,1.8h0l0,0.1v1.9c0,0.1,0,0.1,0,0.2c0.1,0.6,0.7,1.2,1.7,1.6
		c1,0.4,2.4,0.7,3.8,0.7c1.4,0,2.8-0.3,3.8-0.7c1.1-0.5,1.7-1.1,1.7-1.7v-1.3C10.8,12.3,10.7,12.3,10.5,12.3z"/>
	<path class="st1" d="M9.6,12.3c-0.1,0.1-0.2,0.1-0.4,0.2C8.2,12.8,6.9,13,5.5,13c-2.8,0-4.3-0.7-4.9-1.4v0.8c1,0.8,2.7,1.3,4.9,1.3
		c2.2,0,4-0.5,5-1.3v-0.1C10.2,12.3,9.9,12.3,9.6,12.3z"/>
</g>
</svg>
