<?xml version="1.0" encoding="utf-8"?>
<!-- Generator: Adobe Illustrator 26.3.0, SVG Export Plug-In . SVG Version: 6.00 Build 0)  -->
<svg version="1.1" id="Layer_1" xmlns="http://www.w3.org/2000/svg" xmlns:xlink="http://www.w3.org/1999/xlink" x="0px" y="0px"
	 viewBox="0 0 16 16" style="enable-background:new 0 0 16 16;" xml:space="preserve">
<style type="text/css">
	.st0{fill:#FFFFFF;}
	.st1{fill:#EEAD56;}
	.st2{fill:#EEAC55;}
	.st3{opacity:0.5;fill:#FFFFFF;enable-background:new    ;}
</style>
<g id="icon">
	<circle class="st0" cx="5.5" cy="10.5" r="4.9"/>
	<path class="st1" d="M5.5,16c-3,0-5.5-2.5-5.5-5.5S2.5,5,5.5,5S11,7.5,11,10.5S8.5,16,5.5,16z M5.5,6.1c-2.4,0-4.4,2-4.4,4.4
		s2,4.4,4.4,4.4s4.4-2,4.4-4.4S7.9,6.1,5.5,6.1z"/>
	<path class="st2" d="M7.5,13.2H3.1v-0.8l0.3-0.1c0.1,0,0.1-0.1,0.2-0.1c0,0,0.1-0.1,0.1-0.1c0,0,0.1-0.1,0.1-0.1c0-0.1,0-0.1,0-0.2
		V9.2c0-0.3,0-0.5,0.1-0.8C4,8.2,4.2,8,4.3,7.8C4.5,7.6,4.7,7.4,5,7.3c0.2-0.1,0.5-0.1,0.8-0.1c0.2,0,0.5,0,0.7,0.1
		C6.7,7.3,6.9,7.4,7,7.5c0.2,0.1,0.3,0.2,0.4,0.4C7.5,8,7.6,8.1,7.6,8.3L6.9,8.6c0-0.1-0.1-0.2-0.1-0.2c0-0.1-0.1-0.1-0.2-0.2
		c-0.1,0-0.2-0.1-0.3-0.1c-0.1,0-0.2,0-0.4,0c-0.2,0-0.4,0-0.5,0.1C5.2,8.2,5.1,8.3,5,8.4C4.9,8.5,4.8,8.6,4.8,8.7
		C4.7,8.9,4.7,9,4.7,9.2v2.6c0,0.2,0,0.4-0.1,0.5c0,0,0,0.1,0,0.1h2.9L7.5,13.2L7.5,13.2z"/>
	<rect x="3.3" y="9.8" class="st1" width="3.1" height="0.9"/>
	<path class="st3" d="M15.5,2.6C15.5,2.6,15.5,2.6,15.5,2.6c0-1.2-2-2.1-4.5-2.1h0c-2.5,0-4.5,0.9-4.5,2.1c0,0,0,0,0,0l0,0.5h0v1
		C9.6,4.5,12,7.2,12,10.5c0,1.3-0.4,2.6-1.1,3.6c0,0,0.1,0,0.1,0h0c1.2,0,2.4-0.3,3.3-0.7c0.8-0.4,1.2-0.9,1.2-1.3V9.8l0,0l0-0.1
		V3.1h0L15.5,2.6z"/>
	<path class="st1" d="M16,2.6C16,1.1,13.9,0,11,0h0C8.1,0,6,1.1,6,2.6c0,0,0,0,0,0h0V4c0.3,0,0.7,0.1,1,0.2V4.1
		c0.1,0.1,0.2,0.1,0.2,0.1C7.6,4.3,8,4.5,8.4,4.7C9.1,4.9,10,5,11,5h0c1.3,0,2.5-0.2,3.4-0.6c0.2-0.1,0.4-0.2,0.6-0.3v0.8
		c0,0.1-0.2,0.5-1,0.9c-0.8,0.4-1.9,0.6-3,0.6h0c-0.2,0-0.3,0-0.5,0c0.2,0.3,0.5,0.6,0.7,1c1.5,0,2.9-0.4,3.8-1v1.1
		c-0.1,0.3-0.5,0.6-1,0.8c-0.6,0.3-1.4,0.5-2.3,0.6c0.1,0.3,0.2,0.6,0.2,0.9c1.2-0.1,2.3-0.5,3.1-1v1c0,0.2-0.3,0.6-1,0.9l0,0l0,0
		c-0.6,0.3-1.3,0.4-2,0.5c0,0.3-0.1,0.7-0.2,1c1.3-0.1,2.4-0.5,3.2-1V12c0,0.2-0.4,0.6-1.1,0.9c-0.8,0.3-1.7,0.5-2.7,0.6
		c-0.2,0.3-0.4,0.7-0.6,1c0.1,0,0.2,0,0.4,0h0c1.3,0,2.5-0.3,3.5-0.7c1-0.5,1.5-1.1,1.5-1.7V9.7l0,0c0,0,0-0.1,0-0.1V2.6L16,2.6
		C16,2.6,16,2.6,16,2.6z M14,3.6C13.2,3.9,12.2,4,11,4l0,0l0,0C9.8,4,8.8,3.9,8,3.6C7.4,3.3,7,2.9,7,2.6c0-0.4,0.4-0.8,1.1-1.1
		C8.9,1.1,9.9,1,11,1h0c1.1,0,2.1,0.2,2.9,0.5C14.6,1.8,15,2.2,15,2.6C15,2.9,14.6,3.3,14,3.6z"/>
</g>
</svg>
