<?xml version="1.0" encoding="utf-8"?>
<!-- Generator: Adobe Illustrator 26.3.0, SVG Export Plug-In . SVG Version: 6.00 Build 0)  -->
<svg version="1.1" id="Layer_1" xmlns="http://www.w3.org/2000/svg" xmlns:xlink="http://www.w3.org/1999/xlink" x="0px" y="0px"
	 viewBox="0 0 16 16" style="enable-background:new 0 0 16 16;" xml:space="preserve">
<style type="text/css">
	.st0{opacity:0.5;fill:#FFFFFF;enable-background:new    ;}
	.st1{fill:#EEAC55;}
</style>
<g id="icon">
	<polygon class="st0" points="9.5,7.7 9.3,7.2 0.3,7.2 0,7.7 0,13.4 1.7,14.6 7.6,14.6 9.5,13.4 	"/>
	<path class="st1" d="M9.5,7.3L9.5,7.3C9.4,6.7,9,6.1,8.1,5.6C7.2,5.1,6.1,4.9,4.8,4.9c-1.3,0-2.5,0.3-3.4,0.7
		C0.6,6.1,0.1,6.7,0,7.3h0v0.1c0,0,0,0,0,0h0v1.5c0,0.6,0.5,1.2,1.5,1.7c0.9,0.4,2.1,0.6,3.3,0.6c1.2,0,2.4-0.2,3.3-0.6
		c0.9-0.4,1.4-1,1.5-1.6c0-0.1,0-0.1,0-0.2V7.5L9.5,7.3z M9.1,8.2C8.3,8.9,6.7,9.4,4.8,9.4c-2,0-3.5-0.5-4.4-1.3V7.4
		C0.8,7.9,0.9,8,1.5,8.3c0.8,0.4,2,0.6,3.2,0.6c2.4,0,3.8-0.7,4.4-1.4V8.2z M9.5,10.3v1c0,0.1,0,0.1,0,0.2C9.4,12,8.9,12.6,8,13
		c-0.9,0.4-2.1,0.6-3.3,0.6c-1.2,0-2.4-0.2-3.3-0.6C0.5,12.5,0,12,0,11.3v-1c0.3,0.3,0.7,0.7,1.3,1c0.9,0.4,2.1,0.7,3.5,0.7
		c1.4,0,2.6-0.2,3.5-0.7C8.8,11,9.2,10.6,9.5,10.3z M9.5,12.7v1c0,0.1,0,0.1,0,0.2C9.4,14.4,8.9,15,8,15.4C7.1,15.8,5.9,16,4.7,16
		c-1.2,0-2.4-0.2-3.3-0.6c-0.9-0.5-1.5-1-1.5-1.7v-1c0.3,0.3,0.7,0.7,1.3,1c0.9,0.4,2.1,0.7,3.5,0.7c1.4,0,2.6-0.2,3.5-0.7
		C8.8,13.4,9.2,13,9.5,12.7z"/>
	<path class="st0" d="M15.8,2.3h-9L6.5,2.7v1.3C7.3,4.2,8,4.4,8.6,4.7c0.8,0.4,1.4,1,1.7,1.6l0.2,0.5l0,0.5l0,4.9h3.6l1.9-1.3V2.7
		L15.8,2.3z"/>
	<path class="st1" d="M16,7.8v1c0,0.1,0,0.1,0,0.2c-0.1,0.6-0.6,1.1-1.5,1.6c-0.9,0.4-2.1,0.6-3.3,0.6c-0.3,0-0.5,0-0.7,0l0-1.7
		c0.2,0,0.5,0,0.7,0c1.4,0,2.6-0.2,3.5-0.7C15.3,8.5,15.7,8.1,16,7.8z M14.7,11.1c-0.9,0.4-2.1,0.7-3.5,0.7c-0.3,0-0.5,0-0.7,0v1.8
		c0.2,0,0.5,0,0.7,0c1.2,0,2.4-0.2,3.3-0.6c0.9-0.4,1.4-1,1.5-1.6c0-0.1,0-0.1,0-0.2v-1.1C15.7,10.5,15.3,10.8,14.7,11.1z M14.7,6.3
		C13.8,6.8,12.6,7,11.2,7c-0.3,0-0.5,0-0.8,0l0,0.4l0,1.3c0.2,0,0.5,0,0.7,0c1.2,0,2.4-0.2,3.3-0.6c0.9-0.4,1.4-1,1.5-1.6
		c0-0.1,0-0.1,0-0.2v-1C15.7,5.7,15.3,6.1,14.7,6.3z M16,2.6V4c0,0.1,0,0.1,0,0.2c-0.1,0.6-0.6,1.1-1.5,1.6
		c-0.9,0.4-2.1,0.6-3.3,0.6c-0.3,0-0.7,0-1-0.1C9.9,5.7,9.3,5.1,8.6,4.7C8,4.4,7.3,4.2,6.5,4.1c0,0,0,0,0,0V2.5h0c0,0,0,0,0,0V2.4h0
		c0.1-0.7,0.5-1.3,1.4-1.7C8.8,0.2,10,0,11.3,0c1.3,0,2.5,0.3,3.3,0.7c0.8,0.4,1.3,1.1,1.4,1.7h0L16,2.6z M15.6,2.5
		C15,3.3,13.7,4,11.3,4C10,4,8.9,3.8,8,3.4C7.4,3.1,7.3,3,6.9,2.5v0.7C7.8,4,9.3,4.5,11.3,4.5c1.9,0,3.5-0.5,4.4-1.3V2.5z"/>
</g>
</svg>
