<?xml version="1.0" encoding="utf-8"?>
<!-- Generator: Adobe Illustrator 26.3.0, SVG Export Plug-In . SVG Version: 6.00 Build 0)  -->
<svg version="1.1" id="Layer_1" xmlns="http://www.w3.org/2000/svg" xmlns:xlink="http://www.w3.org/1999/xlink" x="0px" y="0px"
	 viewBox="0 0 16 16" style="enable-background:new 0 0 16 16;" xml:space="preserve">
<style type="text/css">
	.st0{opacity:0.5;fill:#FFFFFF;enable-background:new    ;}
	.st1{fill:#6D6E71;}
	.st2{fill:#CB535D;}
	.st3{fill:#EEAC55;}
	.st4{fill:#787979;}
</style>
<g id="icon">
	<path class="st0" d="M14.5,13.5h-13c-0.6,0-1-0.4-1-1v-9c0-0.5,0.4-1,1-1h13c0.6,0,1,0.5,1,1v9C15.5,13.1,15.1,13.5,14.5,13.5z"/>
	<path class="st1" d="M14.5,14h-13C0.7,14,0,13.3,0,12.5v-9C0,2.7,0.7,2,1.5,2h13C15.3,2,16,2.7,16,3.5v9C16,13.3,15.3,14,14.5,14z
		 M1.5,3C1.2,3,1,3.2,1,3.5v9C1,12.8,1.2,13,1.5,13h13c0.3,0,0.5-0.2,0.5-0.5v-9C15,3.2,14.8,3,14.5,3H1.5z"/>
	<path class="st2" d="M10,8C8.9,8,8,7.1,8,6c0-1.1,0.9-2,2-2c0.4,0,0.9,0.1,1.2,0.4l-0.6,0.8C10.5,5.1,10.3,5,10,5C9.5,5,9,5.4,9,6
		c0,0.6,0.4,1,1,1c0.2,0,0.4-0.1,0.6-0.2l0.6,0.8C10.9,7.9,10.5,8,10,8z"/>
	<path class="st3" d="M12,8c-0.4,0-0.9-0.1-1.2-0.4C10.3,7.2,10,6.6,10,6c0-0.6,0.3-1.2,0.8-1.6l0,0C11.2,4.1,11.6,4,12,4
		c1.1,0,2,0.9,2,2C14.1,7.1,13.2,8,12,8z M12,5c-0.2,0-0.4,0.1-0.6,0.2l0,0c-0.3,0.2-0.4,0.5-0.4,0.8c0,0.3,0.1,0.6,0.4,0.8
		C11.6,6.9,11.8,7,12,7c0.6,0,1-0.4,1-1C13.1,5.4,12.6,5,12,5z"/>
	<path class="st4" d="M4,10H2v1h2V10z"/>
	<path class="st4" d="M7,10H5v1h2V10z"/>
	<path class="st4" d="M10,10H8v1h2V10z"/>
	<path class="st4" d="M13,10h-2v1h2V10z"/>
	<path class="st3" d="M4.1,7H2.9C2.4,7,2,6.6,2,6.1V4.9C2,4.4,2.4,4,2.9,4h1.2C4.6,4,5,4.4,5,4.9v1.2C5,6.6,4.6,7,4.1,7z"/>
</g>
</svg>
