<?xml version="1.0" encoding="utf-8"?>
<!-- Generator: Adobe Illustrator 26.3.0, SVG Export Plug-In . SVG Version: 6.00 Build 0)  -->
<svg version="1.1" id="Layer_1" xmlns="http://www.w3.org/2000/svg" xmlns:xlink="http://www.w3.org/1999/xlink" x="0px" y="0px"
	 viewBox="0 0 16 16" style="enable-background:new 0 0 16 16;" xml:space="preserve">
<style type="text/css">
	.st0{fill:#6485C3;}
	.st1{fill:#6D6E71;}
</style>
<g id="icon">
	<path class="st0" d="M12.2,8.1c-0.4,0-0.8-0.1-1.2-0.2c-0.4-0.2-0.7-0.4-1-0.7C9.8,6.9,9.6,6.6,9.4,6.1C9.3,5.9,9.3,5.7,9.2,5.5
		H8.1v-1h1.1c0-0.1,0-0.3,0-0.4c0-0.1,0-0.2,0-0.3l0-0.1H8.4v-1h0.9C9.3,2.4,9.4,2.2,9.5,2c0.2-0.4,0.4-0.8,0.6-1
		c0.3-0.3,0.6-0.5,1-0.7c0.4-0.1,0.8-0.2,1.2-0.2c0.3,0,0.5,0,0.7,0.1c0.2,0,0.4,0.1,0.6,0.2c0.2,0.1,0.3,0.1,0.4,0.2
		c0.1,0.1,0.2,0.1,0.3,0.2c0.1,0.1,0.1,0.1,0.2,0.2l0.4,0.4L14,2l-0.4-0.4c0,0-0.1-0.1-0.1-0.1c0,0-0.1-0.1-0.2-0.1
		c-0.1,0-0.2-0.1-0.3-0.1c-0.1,0-0.2-0.1-0.4-0.1c-0.1,0-0.3,0-0.5,0c-0.3,0-0.6,0-0.8,0.1c-0.2,0.1-0.4,0.2-0.6,0.4
		c-0.2,0.2-0.3,0.4-0.4,0.7c0,0.1-0.1,0.2-0.1,0.4h3v1.1h-3c0,0,0,0,0,0l0,0.1c0,0.1,0,0.2,0,0.3c0,0.1,0,0.2,0,0.3h2.8v1h-2.9
		c0,0.1,0.1,0.2,0.1,0.3c0.1,0.3,0.3,0.6,0.4,0.7C11,6.7,11.2,6.9,11.4,7c0.2,0.1,0.5,0.1,0.8,0.1c0.2,0,0.4,0,0.5-0.1
		C12.9,7,13,7,13.1,6.9c0.1-0.1,0.2-0.1,0.3-0.2c0.1-0.1,0.2-0.1,0.2-0.2c0.1-0.1,0.1-0.1,0.1-0.1l0.3-0.4l0.7,0.7l-0.3,0.4
		c0,0.1-0.1,0.1-0.2,0.2c-0.1,0.1-0.2,0.2-0.3,0.3c-0.1,0.1-0.3,0.2-0.5,0.3C13.4,7.9,13.2,8,13,8C12.7,8.1,12.5,8.1,12.2,8.1z"/>
	<path class="st0" d="M7.1,12.8c0-0.4-0.1-0.7-0.3-1c-0.2-0.2-0.4-0.4-0.6-0.6c-0.2-0.1-0.5-0.3-0.8-0.3c-0.1,0-0.2-0.1-0.4-0.1V8.5
		c0,0,0,0,0,0c0.2,0.1,0.3,0.1,0.4,0.2c0.1,0.1,0.2,0.1,0.2,0.1C5.7,8.9,5.8,9,5.8,9l0.7-0.7c0,0-0.1-0.1-0.2-0.2
		C6.2,8,6.1,7.9,5.9,7.9C5.8,7.8,5.6,7.7,5.3,7.6C5.2,7.6,5.1,7.5,5,7.5V7H4v0.5c-0.2,0-0.4,0.1-0.6,0.2C3.1,7.8,2.8,8,2.6,8.2
		C2.4,8.4,2.3,8.6,2.2,8.9C2.1,9.1,2,9.4,2,9.6c0,0.3,0.1,0.6,0.2,0.9c0.1,0.2,0.3,0.4,0.6,0.6c0.2,0.1,0.4,0.3,0.7,0.3
		c0.2,0.1,0.3,0.1,0.5,0.1v2.9c-0.1,0-0.2,0-0.3,0c-0.2,0-0.3-0.1-0.5-0.1c-0.1-0.1-0.3-0.1-0.4-0.2c-0.1-0.1-0.2-0.2-0.4-0.3
		l-0.4-0.4l-0.7,0.7l0.4,0.4c0.2,0.1,0.3,0.3,0.5,0.4c0.2,0.1,0.4,0.2,0.6,0.3c0.2,0.1,0.4,0.1,0.7,0.2c0.1,0,0.3,0,0.4,0V16h1v-0.6
		c0.2,0,0.4-0.1,0.6-0.2c0.3-0.1,0.6-0.3,0.8-0.6c0.2-0.2,0.4-0.5,0.5-0.8C7.1,13.5,7.1,13.2,7.1,12.8z M4,10.5
		c-0.1,0-0.1,0-0.2-0.1c-0.2-0.1-0.3-0.1-0.4-0.2c-0.1-0.1-0.2-0.2-0.3-0.3C3.1,9.9,3,9.8,3,9.6c0-0.1,0-0.3,0.1-0.4
		c0-0.1,0.1-0.2,0.2-0.3c0.1-0.1,0.2-0.2,0.4-0.3c0.1,0,0.2-0.1,0.3-0.1V10.5z M6,13.4c-0.1,0.2-0.2,0.3-0.3,0.5
		c-0.1,0.1-0.3,0.3-0.5,0.3c-0.1,0-0.1,0.1-0.2,0.1v-2.5c0,0,0.1,0,0.1,0c0.2,0.1,0.4,0.1,0.6,0.2c0.1,0.1,0.2,0.2,0.3,0.3
		c0.1,0.1,0.1,0.3,0.1,0.4C6.1,13.1,6.1,13.3,6,13.4z"/>
	<path class="st1" d="M3,5.2H2V2.7C2,1.8,2.8,1,3.7,1H6v1H3.7C3.3,2,3,2.3,3,2.7V5.2z"/>
	<polygon class="st1" points="2.5,6.4 0.3,4.2 1,3.5 2.5,5 4,3.5 4.7,4.2 	"/>
	<path class="st1" d="M12.3,15H10v-1h2.3c0.4,0,0.7-0.3,0.7-0.7v-2.5h1v2.5C14,14.2,13.2,15,12.3,15z"/>
	<polygon class="st1" points="12,12.5 11.3,11.8 13.5,9.6 15.8,11.8 15,12.5 13.5,11 	"/>
</g>
</svg>
