<?xml version="1.0" encoding="utf-8"?>
<!-- Generator: Adobe Illustrator 26.3.0, SVG Export Plug-In . SVG Version: 6.00 Build 0)  -->
<svg version="1.1" id="Layer_1" xmlns="http://www.w3.org/2000/svg" xmlns:xlink="http://www.w3.org/1999/xlink" x="0px" y="0px"
	 viewBox="0 0 16 16" style="enable-background:new 0 0 16 16;" xml:space="preserve">
<style type="text/css">
	.st0{fill:#6485C3;}
</style>
<g id="icon">
	<path class="st0" d="M12.1,13.5c-0.3,0-0.6,0-0.9-0.1c-0.3-0.1-0.6-0.1-0.9-0.3C10,13,9.8,12.9,9.5,12.7c-0.2-0.2-0.4-0.4-0.6-0.6
		l0.7-0.7c0.2,0.2,0.4,0.3,0.5,0.5c0.2,0.1,0.4,0.2,0.6,0.3c0.2,0.1,0.4,0.2,0.7,0.2c0.2,0,0.5,0.1,0.9,0.1l0.2,0
		c0.4,0,0.8-0.1,1.1-0.3c0.3-0.1,0.6-0.3,0.8-0.5c0.2-0.2,0.4-0.5,0.5-0.8c0.1-0.3,0.2-0.6,0.1-0.9c0-0.3-0.1-0.6-0.2-0.8
		c-0.1-0.2-0.3-0.4-0.5-0.5c-0.2-0.1-0.5-0.3-0.8-0.4C13,8.2,12.6,8.1,12.3,8l-0.2,0c-0.3-0.1-0.7-0.2-1-0.3
		c-0.3-0.1-0.7-0.3-0.9-0.5C9.9,7,9.7,6.8,9.5,6.5C9.3,6.2,9.2,5.8,9.2,5.4c0-0.4,0-0.7,0.2-1C9.5,4,9.7,3.7,10,3.4
		c0.3-0.3,0.6-0.5,1-0.6c0.4-0.2,0.8-0.2,1.3-0.3l0.2,0c0.5,0,0.8,0,1.2,0.2c0.3,0.1,0.6,0.2,0.8,0.3c0.2,0.1,0.4,0.2,0.5,0.4
		c0.1,0.1,0.2,0.2,0.2,0.2l-0.7,0.7c0,0-0.1-0.1-0.2-0.2c0,0-0.1-0.1-0.3-0.2c-0.1-0.1-0.3-0.2-0.6-0.2c-0.2-0.1-0.5-0.1-0.9-0.1
		l-0.1,0c-0.4,0-0.7,0.1-1,0.2c-0.3,0.1-0.5,0.3-0.7,0.4c-0.2,0.2-0.3,0.3-0.4,0.6c-0.1,0.2-0.1,0.4-0.1,0.7c0,0.3,0.1,0.5,0.2,0.6
		c0.1,0.2,0.2,0.3,0.4,0.5c0.2,0.1,0.4,0.2,0.7,0.3c0.3,0.1,0.6,0.2,0.9,0.3l0.2,0c0.4,0.1,0.7,0.2,1.1,0.3c0.4,0.1,0.8,0.3,1.1,0.5
		c0.3,0.2,0.6,0.5,0.8,0.8c0.2,0.3,0.4,0.8,0.4,1.3c0,0.5-0.1,0.9-0.2,1.3c-0.2,0.4-0.4,0.8-0.7,1.1c-0.3,0.3-0.7,0.6-1.1,0.8
		c-0.4,0.2-0.9,0.3-1.5,0.3l-0.2,0C12.2,13.5,12.1,13.5,12.1,13.5z"/>
	<rect x="12" y="1.8" class="st0" width="1" height="12.5"/>
	<path class="st0" d="M3.8,14c-0.4,0-0.8,0-1.2-0.1c-0.4-0.1-0.7-0.2-1-0.3c-0.3-0.1-0.6-0.3-0.8-0.5c-0.2-0.2-0.6-0.6-0.8-0.8
		l0.7-0.7c0.2,0.2,0.5,0.5,0.7,0.7c0.2,0.1,0.4,0.3,0.6,0.4c0.2,0.1,0.5,0.2,0.8,0.2c0.3,0.1,0.6,0.1,1,0.1c0.5,0,1-0.1,1.4-0.2
		c0.4-0.1,0.7-0.3,1-0.6c0.3-0.2,0.5-0.5,0.6-0.8C6.9,11,7,10.6,7,10.3c0-0.3-0.1-0.6-0.2-0.8C6.6,9.2,6.4,9,6.2,8.8
		C6,8.7,5.7,8.5,5.3,8.4C5,8.3,4.6,8.2,4.2,8C3.8,7.9,3.4,7.8,3.1,7.7C2.7,7.5,2.3,7.3,2,7.1C1.6,6.9,1.3,6.6,1.1,6.3
		C0.9,5.9,0.8,5.5,0.8,5c0-0.4,0.1-0.8,0.2-1.1c0.2-0.4,0.4-0.7,0.7-1C2,2.6,2.4,2.4,2.8,2.2C3.3,2,3.7,2,4.3,2C4.6,2,5,2,5.2,2
		C5.5,2.1,5.7,2.2,6,2.3c0.2,0.1,0.4,0.2,0.6,0.3c0.1,0.1,0.3,0.2,0.4,0.3C7,2.9,7.1,3,7.2,3.1c0.1,0.1,0.1,0.1,0.1,0.1L6.7,4
		c0,0-0.1-0.1-0.1-0.1C6.5,3.8,6.3,3.6,6.3,3.6C6.2,3.5,6.1,3.5,6,3.4C5.9,3.3,5.7,3.2,5.6,3.2C5.4,3.1,5.2,3.1,5,3
		C4.8,3,4.6,3,4.3,3C3.9,3,3.5,3,3.2,3.1C2.9,3.3,2.6,3.4,2.4,3.6C2.2,3.8,2,4,1.9,4.2C1.8,4.5,1.8,4.7,1.8,5c0,0.3,0.1,0.6,0.2,0.8
		C2.1,6,2.3,6.1,2.5,6.3c0.3,0.2,0.5,0.3,0.9,0.4C3.8,6.8,4.1,7,4.5,7.1c0.4,0.1,0.8,0.2,1.2,0.4C6.1,7.6,6.4,7.8,6.8,8
		c0.3,0.2,0.6,0.5,0.8,0.9C7.8,9.3,8,9.7,8,10.3c0,0.5-0.1,1-0.3,1.4c-0.2,0.5-0.5,0.8-0.8,1.2c-0.4,0.3-0.8,0.6-1.3,0.8
		C5,13.9,4.4,14,3.8,14z"/>
</g>
</svg>
