<?xml version="1.0" encoding="utf-8"?>
<!-- Generator: Adobe Illustrator 26.3.0, SVG Export Plug-In . SVG Version: 6.00 Build 0)  -->
<svg version="1.1" id="Layer_1" xmlns="http://www.w3.org/2000/svg" xmlns:xlink="http://www.w3.org/1999/xlink" x="0px" y="0px"
	 viewBox="0 0 16 16" style="enable-background:new 0 0 16 16;" xml:space="preserve">
<style type="text/css">
	.st0{fill:#52B250;}
	.st1{fill:#6D6E71;}
	.st2{opacity:0.5;fill:#FFFFFF;enable-background:new    ;}
	.st3{fill:#EEAC55;}
</style>
<g id="icon">
	<path class="st0" d="M11.2,9.6L10,8.9l0-1.4l1.2,0.8L14.8,6L16,6.7L11.2,9.6z M6.1,4.1c0-0.3,0.2-0.7,0.5-0.9l0,0l3.3-1.9L7.6,0
		L2.8,2.4l2.8,1.7C5.8,4.1,6,4.1,6.1,4.1z M9.4,5.8C9.5,6,9.7,6.2,9.8,6.4l0.2,0.3l1.3,0.8l4.8-3l-2.5-1.4L9.4,5.8L9.4,5.8z
		 M11.2,10.3L10,9.5l0,1.4l1.2,0.8l4.8-3l-1.2-0.7L11.2,10.3z M3.7,4c0.2,0,0.4,0,0.7,0L4.1,3.8L3.7,4z"/>
	<path class="st1" d="M8.2,4.8C8.5,5,8.7,5.2,8.9,5.4l4-2.5l-2.4-1.3L7,3.6C6.8,3.8,6.7,4.1,6.7,4.3C7.2,4.4,7.7,4.6,8.2,4.8z"/>
	<polygon class="st2" points="9,7.7 8.8,7.2 0.2,7.2 0,7.7 0,13.4 1.6,14.6 7.2,14.6 9,13.4 	"/>
	<path class="st3" d="M9,7.4L9,7.4C8.9,6.8,8.5,6.1,7.7,5.7C6.9,5.3,5.7,5,4.5,5C3.3,5,2.2,5.3,1.3,5.7C0.5,6.1,0.1,6.8,0,7.4h0v0.1
		c0,0,0,0,0,0h0V9c0,0.6,0.5,1.2,1.4,1.7c0.9,0.4,2,0.6,3.1,0.6c1.1,0,2.3-0.2,3.1-0.6c0.8-0.4,1.3-1,1.4-1.5C9,9.1,9,9,9,9V7.6
		L9,7.4z M8.7,8.3C7.8,9,6.4,9.5,4.5,9.5C2.7,9.5,1.2,9,0.4,8.2V7.5C0.8,8,0.9,8.1,1.5,8.4c0.8,0.4,1.9,0.6,3.1,0.6
		c2.3,0,3.6-0.7,4.1-1.4V8.3z M9,10.4v1c0,0.1,0,0.1,0,0.2c-0.1,0.6-0.5,1.1-1.4,1.5c-0.9,0.4-2,0.6-3.1,0.6c-1.1,0-2.3-0.2-3.1-0.6
		C0.5,12.6,0,12,0,11.4v-1c0.3,0.3,0.7,0.7,1.2,0.9C2,11.7,3.2,12,4.5,12c1.3,0,2.4-0.2,3.3-0.7C8.3,11,8.7,10.7,9,10.4z M9,12.7v1
		c0,0.1,0,0.1,0,0.2c-0.1,0.6-0.5,1.1-1.4,1.5c-0.9,0.4-2,0.6-3.1,0.6c-1.1,0-2.3-0.2-3.1-0.6c-0.9-0.4-1.4-1-1.4-1.7v-1
		c0.3,0.3,0.7,0.7,1.2,0.9c0.8,0.4,2,0.7,3.3,0.7c1.3,0,2.4-0.2,3.3-0.7C8.3,13.4,8.7,13,9,12.7z"/>
</g>
</svg>
