<?xml version="1.0" encoding="utf-8"?>
<!-- Generator: Adobe Illustrator 26.3.0, SVG Export Plug-In . SVG Version: 6.00 Build 0)  -->
<svg version="1.1" id="Layer_1" xmlns="http://www.w3.org/2000/svg" xmlns:xlink="http://www.w3.org/1999/xlink" x="0px" y="0px"
	 viewBox="0 0 16 16" style="enable-background:new 0 0 16 16;" xml:space="preserve">
<style type="text/css">
	.st0{fill:#6D6E71;}
	.st1{fill:#EEAD56;}
	.st2{opacity:0.5;fill:#FFFFFF;enable-background:new    ;}
</style>
<g id="icon">
	<path class="st0" d="M3.1,1.7C3,1.5,2.9,1.2,2.9,0.9c0-0.4,0.3-0.8,0.8-0.7C4.2,0.3,4.6,0.5,5,0.7C5.4,0.8,5.7,1,6,1.2
		c0.2-0.3,0.5-0.5,0.7-0.8c0.6-0.5,0.9-0.5,1.5,0C8.5,0.6,8.7,0.9,9,1.2c0.6-0.3,1.1-0.5,1.7-0.8c0.2-0.1,0.4-0.1,0.6-0.1
		c0.5,0,0.9,0.4,0.8,0.9c-0.1,0.4-0.3,0.8-0.5,1.1c-0.4,0.5-0.9,0.9-1.3,1.3H4.7C4.6,3.4,4.4,3.2,4.3,3C3.9,2.6,3.5,2.2,3.1,1.7z
		 M13.1,13.7C11.8,15.2,10,15.9,8,16c-1.7,0.1-3.4-0.3-4.8-1.2c-1.2-0.8-2-1.8-2.3-3.3c-0.1-0.6,0-1.1,0.3-1.6
		c0.6-1.1,1.4-2.1,2.2-3.1c0.3-0.4,0.7-0.8,1-1.2h6.1c1,1.1,1.9,2.3,2.7,3.5c0.4,0.6,0.8,1.2,0.8,1.9C14.2,11.9,13.8,12.9,13.1,13.7
		z M8.4,10L10,7.8L9.2,7.3L7.5,9.6L5.9,7.2L5.1,7.8L6.7,10H5.9v0.9H7v0.5H5.9v0.9H7v1.3h1v-1.3h1.2v-0.9H8v-0.5h1.2V10H8.4z"/>
	<rect x="3.5" y="4" class="st1" width="8" height="1"/>
	<polygon class="st2" points="10,7.8 9.2,7.3 7.5,9.6 5.9,7.2 5.1,7.8 6.7,10 5.9,10 5.9,10.9 7,10.9 7,11.4 5.9,11.4 5.9,12.3 
		7,12.3 7,13.6 8,13.6 8,12.3 9.2,12.3 9.2,11.4 8,11.4 8,10.9 9.2,10.9 9.2,10 8.4,10 	"/>
</g>
</svg>
