<?xml version="1.0" encoding="utf-8"?>
<!-- Generator: Adobe Illustrator 26.3.0, SVG Export Plug-In . SVG Version: 6.00 Build 0)  -->
<svg version="1.1" id="Layer_1" xmlns="http://www.w3.org/2000/svg" xmlns:xlink="http://www.w3.org/1999/xlink" x="0px" y="0px"
	 viewBox="0 0 16 16" style="enable-background:new 0 0 16 16;" xml:space="preserve">
<style type="text/css">
	.st0{opacity:0.5;fill:#FFFFFF;enable-background:new    ;}
	.st1{fill:#6D6E71;}
	.st2{fill:#F1876B;}
</style>
<g id="icon">
	<path class="st0" d="M14.5,13.5h-13c-0.6,0-1-0.4-1-1v-9c0-0.5,0.4-1,1-1h13c0.6,0,1,0.5,1,1v9C15.5,13.1,15.1,13.5,14.5,13.5z"/>
	<path class="st1" d="M14.5,14h-13C0.7,14,0,13.3,0,12.5v-9C0,2.7,0.7,2,1.5,2h13C15.3,2,16,2.7,16,3.5v9C16,13.3,15.3,14,14.5,14z
		 M1.5,3C1.2,3,1,3.2,1,3.5v9C1,12.8,1.2,13,1.5,13h13c0.3,0,0.5-0.2,0.5-0.5v-9C15,3.2,14.8,3,14.5,3H1.5z"/>
	<path class="st2" d="M11.3,5.8v2.5c0,0.7,0.4,1.1,0.9,1.1C12.7,9.4,13,9,13,8.3V5.8h1.2v2.5c0,1.4-0.7,2.1-2.1,2.1
		c-1.3,0-2.1-0.7-2.1-2.1V5.8H11.3z M9.6,8.2V5.8H9.3L9,7.4C8.9,8,8.8,8.5,8.7,9h0C8.7,8.5,8.6,8,8.5,7.5L8.2,5.8H6.8L6.5,7.4
		C6.4,8,6.3,8.5,6.2,9h0C6.1,8.5,6,7.9,6,7.4L5.7,5.8H4.3l1.1,4.5h1.4l0.4-1.7c0.1-0.4,0.2-0.8,0.2-1.3h0c0.1,0.5,0.1,0.9,0.2,1.3
		L8,10.2h1.4L9.7,9C9.6,8.8,9.6,8.5,9.6,8.2z M3.4,5.8H3L4,10.2h0.5L3.4,5.8z M2.2,5.8H1.7l1.1,4.5h0.5L2.2,5.8z"/>
</g>
</svg>
