<?xml version="1.0" encoding="utf-8"?>
<!-- Generator: Adobe Illustrator 26.3.0, SVG Export Plug-In . SVG Version: 6.00 Build 0)  -->
<svg version="1.1" id="Layer_1" xmlns="http://www.w3.org/2000/svg" xmlns:xlink="http://www.w3.org/1999/xlink" x="0px" y="0px"
	 viewBox="0 0 16 16" style="enable-background:new 0 0 16 16;" xml:space="preserve">
<style type="text/css">
	.st0{opacity:0.5;fill:#FFFFFF;enable-background:new    ;}
	.st1{fill:#6E6F72;}
	.st2{fill:#6485C3;}
	.st3{fill:#EEAD56;}
</style>
<g id="icon">
	<path class="st0" d="M15.5,0.5v13h-4.2c0.5-0.9,0.7-1.9,0.7-3c0-3.2-2.4-5.9-5.5-6.4V0.5H15.5z"/>
	<path class="st1" d="M16,0v14h-5c0.2-0.3,0.4-0.6,0.5-1H15V1H7v3.2C6.7,4.1,6.3,4,6,4V0H16z"/>
	<path class="st2" d="M12,11h0.5v1h-0.7C11.9,11.7,12,11.3,12,11z M10,2v1h2V2H10z"/>
	<circle class="st0" cx="5.5" cy="10.5" r="4.9"/>
	<path class="st3" d="M5.5,5C2.5,5,0,7.5,0,10.5S2.5,16,5.5,16s5.5-2.5,5.5-5.5S8.5,5,5.5,5z M5.5,14.9c-2.4,0-4.4-2-4.4-4.4
		s2-4.4,4.4-4.4s4.4,2,4.4,4.4S7.9,14.9,5.5,14.9z M7.2,10.4c0.2-0.3,0.4-0.7,0.4-1c0-0.9-0.7-1.5-1.6-1.5H5.8V7.2H4.9v0.7H3.7v5.4
		h1.2v0.6h0.9v-0.6h0.3c0.9,0,1.6-0.7,1.6-1.6C7.7,11.2,7.5,10.7,7.2,10.4z M4.6,8.7H6c0.4,0,0.7,0.3,0.7,0.7c0,0.3-0.2,0.6-0.4,0.7
		c0,0-0.1,0-0.1,0H4.6V8.7z M6.2,12.4H4.6v-1.4h1.6c0,0,0,0,0.1,0l0,0c0,0,0.1,0,0.1,0c0.3,0.1,0.5,0.4,0.5,0.7
		C6.9,12,6.6,12.4,6.2,12.4z"/>
</g>
</svg>
