<?xml version="1.0" encoding="UTF-8"?>
<!DOCTYPE svg PUBLIC "-//W3C//DTD SVG 1.1//EN" "http://www.w3.org/Graphics/SVG/1.1/DTD/svg11.dtd">
<svg version="1.1" id="Layer_1" xmlns="http://www.w3.org/2000/svg" xmlns:xlink="http://www.w3.org/1999/xlink" x="0px" y="0px" width="32px" height="32px" viewBox="0 0 32 32" enable-background="new 0 0 32 32" xml:space="preserve">
  <g id="icon">
    <polygon points="24,9.5 24,23 8.5,23 8.5,29.5 30.5,29.5 30.5,9.5" fill="#FFFFFF" stroke-linejoin="miter"/>
    <polygon points="24,9 24,10 30,10 30,29 9,29 9,23 8,23 8,30 31,30 31,9" fill="#383838" stroke-linejoin="miter"/>
    <path d="M22.5,21.5H1.5V2.5h21V21.5z" fill="#FFFFFF" stroke="#383838" stroke-width="1" stroke-miterlimit="1"/>
    <polygon points="2,3.016 2,21 22,21 22,3" fill="#92CBEE" stroke-linejoin="miter"/>
    <polygon points="9,10 21,10 21,9 8,9 8,20 9,20" fill="#383838" stroke-linejoin="miter" opacity="0.5"/>
    <rect x="9" y="10" width="13" height="11" fill="#FFFFFF" opacity="0.5"/>
  </g>
</svg>
