<?xml version="1.0" encoding="UTF-8"?>
<!DOCTYPE svg PUBLIC "-//W3C//DTD SVG 1.1//EN" "http://www.w3.org/Graphics/SVG/1.1/DTD/svg11.dtd">
<svg version="1.1" id="Layer_1" xmlns="http://www.w3.org/2000/svg" xmlns:xlink="http://www.w3.org/1999/xlink" x="0px" y="0px" width="16px" height="16px" viewBox="0 0 16 16" enable-background="new 0 0 16 16" xml:space="preserve">
  <g id="icon">
    <polygon points="6,11 10.7,11 10.7,9.2833 12,8 13.5,8 13.5,4.5 0.5,4.5 0.5,14.5 6,14.5" fill="#FFFFFF" stroke-linejoin="miter" opacity="0.5"/>
    <polygon points="6,11 10.7,11 10.7,9.2833 11.5,8.4936 11.5,6.5 8.5,6.5 5.5,6.5 5.5,8.5 2.5,8.5 2.5,10.5 2.5,12.5 5.5,12.5 6,12.5" fill="#CC525E" stroke-linejoin="miter" opacity="0.3"/>
    <path d="M5,6v2H2v5h4v-1v-1h2h1h1.7v-1H9V9h1.987L12,8V6H5zM5,12H3v-1h2V12zM5,10H3V9h2V10zM8,10H6V9h2V10zM8,8H6V7h2V8zM11,8H9V7h2V8z" fill="#CC525E"/>
    <polygon points="12.5695,15.9143 11.8594,15.2102 14.0506,13 7,13 7,12 14.1498,12 11.8594,9.6898 12.5695,8.9857 16.0041,12.45" fill="#9171B2" stroke-linejoin="miter"/>
    <polygon points="12,1 12,3 9,3 9,1 5,1 5,3 2,3 2,1 0,1 0,4 0,5 0,15 6,15 6,14 1,14 1,5 13,5 13,8 14,8 14,5 14,4 14,1" fill="#6E6F72" stroke-linejoin="miter"/>
    <rect x="3" width="1" height="3" fill="#6E6F72"/>
    <rect x="10" width="1" height="3" fill="#6E6F72"/>
  </g>
</svg>
