<?xml version="1.0" encoding="UTF-8"?>
<!DOCTYPE svg PUBLIC "-//W3C//DTD SVG 1.1//EN" "http://www.w3.org/Graphics/SVG/1.1/DTD/svg11.dtd">
<svg version="1.1" id="Layer_1" xmlns="http://www.w3.org/2000/svg" xmlns:xlink="http://www.w3.org/1999/xlink" x="0px" y="0px" width="16px" height="16px" viewBox="0 0 16 16" enable-background="new 0 0 16 16" xml:space="preserve">
  <g id="icon">
    <path d="M14.9164,12.8575L14,11.9345v1.6062c0,0.8047,-0.6547,1.4594,-1.4594,1.4594H10v-1h2.5406c0.2533,0,0.4594,-0.2061,0.4594,-0.4594V11.77l-1.0797,1.0876l-0.7097,-0.7046l2.2078,-2.2237l2.2077,2.2238L14.9164,12.8575zM3,2.4594v1.5918l-0.9782,-0.9853l-0.7097,0.7045l2.2078,2.2238l2.2078,-2.2238l-0.7097,-0.7045L4,4.0913v-1.632C4,2.2061,4.2061,2,4.4594,2H7V1H4.4594C3.6547,1,3,1.6547,3,2.4594z" fill="#6E6F72"/>
    <path d="M8.5628,16c0.0799,0,0.1428,-0.0657,0.1368,-0.1427l-0.0185,-0.2364c-0.065,-0.8306,-0.4722,-2.3435,-2.4698,-3.1435c-0.4591,-0.1899,-0.6774,-0.6024,-0.4591,-0.9024c0.5459,-0.7125,0.7633,-1.6278,0.7633,-2.4628C6.5155,7.8191,6.1208,7,4.3587,7h-0.0342C2.5692,7,2.176,7.8191,2.176,9.1122c0,0.835,0.2165,1.7503,0.7603,2.4628c0.2175,0.3,0,0.7125,-0.4573,0.9024c-1.9897,0.8001,-2.3954,2.3129,-2.4602,3.1435l-0.0184,0.2364c-0.006,0.077,0.0567,0.1427,0.1363,0.1427H8.5628z" fill="#9070B1"/>
    <path d="M15.9815,8.6588c-0.0635,-0.7475,-0.6739,-2.1091,-2.6255,-2.8292c-0.177,-0.0674,-0.2976,-0.1864,-0.3819,-0.3057c-0.027,-0.0382,-0.0049,-0.093,0.0398,-0.0986c0.2498,-0.0309,0.9274,-0.1275,1.2628,-0.3801c0.0868,-0.0654,0.0874,-0.2046,-0.0001,-0.2688c-0.2818,-0.2066,-0.3801,-0.5343,-0.4333,-0.875c-0.0567,-0.3629,-0.0743,-0.7353,-0.0795,-1.104c-0.0074,-0.5313,-0.0323,-1.0549,-0.1942,-1.5654c-0.2986,-0.9412,-1.1511,-1.2796,-1.8225,-1.2269c-0.234,0.0184,-0.4468,0.117,-0.6327,0.277c-0.0463,0.0399,-0.1134,0.0774,-0.1698,0.0755c-0.5636,-0.0189,-0.9003,0.3336,-1.0805,0.7999c-0.1197,0.3097,-0.1822,0.6363,-0.1886,0.9674c-0.0074,0.3824,0.015,0.7657,0.0319,1.1483c0.0175,0.3964,-0.009,0.7831,-0.188,1.1416c-0.0836,0.1673,-0.1602,0.2652,-0.2957,0.3678c-0.0862,0.0652,-0.0881,0.2012,-0.0023,0.267c0.246,0.1886,0.6621,0.3136,1.3237,0.384c0.0169,0.0018,0.0271,0.0215,0.0184,0.0369c-0.0806,0.143,-0.2126,0.2762,-0.4291,0.359c-1.944,0.7201,-2.5529,2.0816,-2.6161,2.8292l-0.018,0.2128C7.4945,8.9409,7.5558,9,7.6335,9h8.2324c0.078,0,0.1395,-0.0591,0.1337,-0.1284L15.9815,8.6588z" fill="#9070B1"/>
  </g>
</svg>
