<?xml version="1.0" encoding="UTF-8"?>
<!DOCTYPE svg PUBLIC "-//W3C//DTD SVG 1.1//EN" "http://www.w3.org/Graphics/SVG/1.1/DTD/svg11.dtd">
<svg version="1.1" id="Layer_1" xmlns="http://www.w3.org/2000/svg" xmlns:xlink="http://www.w3.org/1999/xlink" x="0px" y="0px" width="16px" height="16px" viewBox="0 0 16 16" enable-background="new 0 0 16 16" xml:space="preserve">
  <g id="icon">
    <path d="M6.5,16H0v-0.5545c0,-0.2021,0,-0.2021,0.6996,-0.9637c0.341,-0.3711,0.7956,-0.8641,1.2501,-1.3563c0.5796,-0.6276,1.1592,-1.2541,1.503,-1.6255c-0.3438,-0.3715,-0.9233,-0.9979,-1.503,-1.6255c-0.4545,-0.4922,-0.9091,-0.9851,-1.2501,-1.3563C0,7.7566,0,7.7566,0,7.5545V7h6.5v1H1.5815c0.7634,0.8299,2.0006,2.1682,2.9193,3.1603L4.8154,11.5l-0.3146,0.3397c-0.9187,0.992,-2.156,2.3304,-2.9193,3.1603H6.5V16z" fill="#6E6F72"/>
    <path d="M16,6c0,3.3084,-2.6916,6,-6,6c-1.3847,0,-2.6602,-0.4727,-3.6767,-1.2636l0.9829,-1.3111V9.5h5.1262V8.4639H8.9202L9,8.1918c0.0483,-0.1649,0.0727,-0.3489,0.0727,-0.5471V6.5784h1.7529v-1.036H9.0727V4.4171c0,-0.225,0.0317,-0.4329,0.0942,-0.6177c0.0583,-0.1722,0.1407,-0.315,0.2519,-0.4365c0.1075,-0.1175,0.2409,-0.2077,0.4077,-0.276c0.1735,-0.0708,0.3845,-0.1068,0.6271,-0.1068c0.1879,0,0.3502,0.0204,0.4822,0.0606c0.1293,0.0393,0.2396,0.0903,0.328,0.1515c0.0862,0.0597,0.1556,0.1266,0.2125,0.2045c0.0288,0.0394,0.0563,0.0803,0.0821,0.1222L12.5,3.0765c-0.0563,-0.1001,-0.1189,-0.1975,-0.1868,-0.2905c-0.1245,-0.1706,-0.2791,-0.3205,-0.4594,-0.4454c-0.177,-0.1226,-0.3844,-0.2206,-0.6164,-0.2911c-0.2299,-0.0699,-0.4936,-0.1055,-0.7838,-0.1055c-0.3775,0,-0.7204,0.0619,-1.0189,0.1838c-0.3072,0.1255,-0.5697,0.3056,-0.7801,0.5354c-0.2072,0.2262,-0.365,0.4967,-0.469,0.804c-0.0989,0.2925,-0.1491,0.6121,-0.1491,0.9499v1.1253h-0.7304V5.8H4.0051C4.1112,2.584,6.7587,0,10,0C13.3084,0,16,2.6916,16,6zM7.7606,8.3375l0.032,-0.0649c0.0254,-0.0516,0.0572,-0.1007,0.0946,-0.1461c0.0437,-0.0529,0.0801,-0.1185,0.1082,-0.1948c0.0188,-0.0512,0.0412,-0.1426,0.0412,-0.287V6.5784H7.7v1.7889L7.7606,8.3375z" fill="#EEAD56"/>
    <path d="M9,8.1918c0.0483,-0.1649,0.0727,-0.3489,0.0727,-0.5471V6.5784h1.7529v-1.036H9.0727V4.4171c0,-0.225,0.0317,-0.4329,0.0942,-0.6177c0.0583,-0.1722,0.1407,-0.315,0.2519,-0.4365c0.1075,-0.1175,0.2409,-0.2077,0.4077,-0.276c0.1735,-0.0708,0.3845,-0.1068,0.6271,-0.1068c0.1879,0,0.3502,0.0204,0.4822,0.0606c0.1293,0.0393,0.2396,0.0903,0.328,0.1515c0.0862,0.0597,0.1556,0.1266,0.2125,0.2045c0.0288,0.0394,0.0563,0.0803,0.0821,0.1222L12.5,3.0765c-0.0563,-0.1001,-0.1189,-0.1975,-0.1868,-0.2905c-0.1245,-0.1706,-0.2791,-0.3205,-0.4594,-0.4454c-0.177,-0.1226,-0.3844,-0.2206,-0.6164,-0.2911c-0.2299,-0.0699,-0.4936,-0.1055,-0.7838,-0.1055c-0.3775,0,-0.7204,0.0619,-1.0189,0.1838c-0.3072,0.1255,-0.5697,0.3056,-0.7801,0.5354c-0.2072,0.2262,-0.365,0.4967,-0.469,0.804c-0.0989,0.2925,-0.1491,0.6121,-0.1491,0.9499v1.1253h-0.7304V5.8H7.7v0.7784h0.3366v1.0663c0,0.1444,-0.0224,0.2358,-0.0412,0.287c-0.0281,0.0763,-0.0645,0.1419,-0.1082,0.1948c-0.0373,0.0453,-0.0692,0.0945,-0.0946,0.1461l-0.032,0.0649L7.7,8.3673V8.9l-0.3938,0.5253V9.5h5.1262V8.4639H8.9202L9,8.1918z" fill="#FFFFFF" opacity="0.5"/>
  </g>
</svg>
