<?xml version="1.0" encoding="UTF-8"?>
<!DOCTYPE svg PUBLIC "-//W3C//DTD SVG 1.1//EN" "http://www.w3.org/Graphics/SVG/1.1/DTD/svg11.dtd">
<svg version="1.1" id="Layer_1" xmlns="http://www.w3.org/2000/svg" xmlns:xlink="http://www.w3.org/1999/xlink" x="0px" y="0px" width="16px" height="16px" viewBox="0 0 16 16" enable-background="new 0 0 16 16" xml:space="preserve">
  <g id="icon">
    <path d="M10,0.5C6.9624,0.5,4.5,2.9624,4.5,6h2.8v4l-0.3384,0.5317l0.0452,0.0833C7.8682,11.1748,8.8961,11.5,10,11.5c3.0376,0,5.5,-2.4624,5.5,-5.5S13.0376,0.5,10,0.5z" fill="#FFFFFF" opacity="0.5"/>
    <path d="M10,12c-1.1643,0,-2.2935,-0.3339,-3.2656,-0.9658l0.5449,-0.8385C8.0889,10.7219,9.0297,11,10,11c2.757,0,5,-2.243,5,-5s-2.243,-5,-5,-5S5,3.243,5,6H4c0,-3.3084,2.6916,-6,6,-6s6,2.6916,6,6S13.3084,12,10,12z" fill="#EEAD56"/>
    <path d="M6.5,16H0v-0.5545c0,-0.2021,0,-0.2021,0.6996,-0.9637c0.341,-0.3711,0.7956,-0.8641,1.2501,-1.3563c0.5796,-0.6276,1.1592,-1.2541,1.503,-1.6255c-0.3438,-0.3715,-0.9233,-0.9979,-1.503,-1.6255c-0.4545,-0.4922,-0.9091,-0.9851,-1.2501,-1.3563C0,7.7566,0,7.7566,0,7.5545V7h6.5v1H1.5815c0.7634,0.8299,2.0006,2.1682,2.9193,3.1603L4.8154,11.5l-0.3146,0.3397c-0.9187,0.992,-2.156,2.3304,-2.9193,3.1603H6.5V16z" fill="#6E6F72"/>
    <path d="M11.9255,6.1854c-0.1421,-0.1846,-0.325,-0.3377,-0.5437,-0.4552c-0.1932,-0.1037,-0.4113,-0.1881,-0.6481,-0.2509c-0.0853,-0.0226,-0.172,-0.0447,-0.2589,-0.0666V3.9392c0.1247,0.0354,0.2255,0.0731,0.2978,0.1112c0.0444,0.025,0.1959,0.1399,0.3242,0.246c0.0641,0.053,0.1476,0.114,0.1476,0.114l0.5298,-0.7275c-0.0025,-0.0018,-0.0597,-0.0435,-0.1038,-0.0799c-0.12,-0.0993,-0.3415,-0.2764,-0.4759,-0.3475c-0.1326,-0.0701,-0.2897,-0.1303,-0.4804,-0.184c-0.0744,-0.021,-0.1552,-0.0364,-0.2393,-0.0491V2.4h-0.9v0.6255c-0.1668,0.0252,-0.3235,0.0624,-0.4654,0.1146c-0.2361,0.0869,-0.4401,0.2037,-0.6062,0.3472c-0.1769,0.1527,-0.3107,0.3322,-0.3977,0.5334c-0.087,0.2011,-0.1265,0.4123,-0.1176,0.6275c0.0108,0.2644,0.0835,0.4959,0.216,0.6883c0.1196,0.1737,0.276,0.3201,0.4648,0.4353c0.1666,0.1016,0.357,0.1853,0.566,0.2487c0.1101,0.0334,0.2243,0.0651,0.3401,0.0958v1.9224c-0.0541,-0.0045,-0.1066,-0.01,-0.1551,-0.0179c-0.1338,-0.0218,-0.2564,-0.0534,-0.3623,-0.0931c-0.0683,-0.0286,-0.278,-0.1735,-0.3569,-0.2281c-0.0383,-0.0264,-0.0718,-0.0496,-0.098,-0.067c-0.0992,-0.0659,-0.1966,-0.1414,-0.2896,-0.2242l-0.5987,0.672c0.1246,0.111,0.2559,0.2125,0.3897,0.3015c0.0225,0.0149,0.0517,0.0352,0.085,0.0582c0.2132,0.1473,0.4018,0.2738,0.5501,0.3294c0.1635,0.0614,0.3438,0.1083,0.5364,0.1397c0.0941,0.0153,0.1946,0.0255,0.2995,0.0317V9.6h0.9v-0.7122c0.1549,-0.0302,0.3015,-0.0712,0.4378,-0.1237c0.2717,-0.1046,0.5062,-0.246,0.6966,-0.4203c0.1975,-0.1806,0.3475,-0.3922,0.4459,-0.6292c0.0982,-0.2366,0.1425,-0.4911,0.1316,-0.7564C12.1743,6.6548,12.0865,6.3948,11.9255,6.1854zM9.4962,5.1594c-0.1363,-0.0414,-0.2571,-0.0938,-0.3588,-0.1559c-0.0813,-0.0496,-0.1442,-0.1077,-0.1923,-0.1775c-0.0347,-0.0503,-0.0542,-0.1225,-0.058,-0.2147c-0.0033,-0.0802,0.0112,-0.1565,0.0445,-0.2333c0.0332,-0.0767,0.0854,-0.1452,0.1599,-0.2095c0.084,-0.0726,0.1945,-0.1343,0.3286,-0.1836c0.0478,-0.0176,0.1002,-0.0318,0.1547,-0.0446V5.182C9.5488,5.1744,9.5218,5.1672,9.4962,5.1594zM11.224,7.3695c-0.0483,0.1162,-0.1209,0.2177,-0.2221,0.3103c-0.1073,0.0981,-0.2461,0.1804,-0.4126,0.2445c-0.0365,0.0141,-0.0752,0.0262,-0.1144,0.0379V6.3419c0.0093,0.0025,0.0189,0.0048,0.0282,0.0073c0.1692,0.0449,0.3218,0.1035,0.4532,0.174c0.1073,0.0576,0.1911,0.1267,0.256,0.211c0.0454,0.059,0.0707,0.1468,0.0754,0.2611C11.2931,7.1307,11.2723,7.2531,11.224,7.3695z" fill="#EEAD56"/>
  </g>
</svg>
