<?xml version="1.0" encoding="UTF-8"?>
<!DOCTYPE svg PUBLIC "-//W3C//DTD SVG 1.1//EN" "http://www.w3.org/Graphics/SVG/1.1/DTD/svg11.dtd">
<svg version="1.1" id="Layer_1" xmlns="http://www.w3.org/2000/svg" xmlns:xlink="http://www.w3.org/1999/xlink" x="0px" y="0px" width="16px" height="16px" viewBox="0 0 16 16" enable-background="new 0 0 16 16" xml:space="preserve">
  <g id="icon">
    <path d="M10,0.5C6.9624,0.5,4.5,2.9624,4.5,6h2.8v4l-0.3384,0.5317l0.0452,0.0833C7.8682,11.1748,8.8961,11.5,10,11.5c3.0376,0,5.5,-2.4624,5.5,-5.5S13.0376,0.5,10,0.5z" fill="#FFFFFF" opacity="0.5"/>
    <path d="M10,12c-1.1643,0,-2.2935,-0.3339,-3.2656,-0.9658l0.5449,-0.8385C8.0889,10.7219,9.0297,11,10,11c2.757,0,5,-2.243,5,-5s-2.243,-5,-5,-5S5,3.243,5,6H4c0,-3.3084,2.6916,-6,6,-6s6,2.6916,6,6S13.3084,12,10,12z" fill="#EEAD56"/>
    <path d="M6.5,16H0v-0.5545c0,-0.2021,0,-0.2021,0.6996,-0.9637c0.341,-0.3711,0.7956,-0.8641,1.2501,-1.3563c0.5796,-0.6276,1.1592,-1.2541,1.503,-1.6255c-0.3438,-0.3715,-0.9233,-0.9979,-1.503,-1.6255c-0.4545,-0.4922,-0.9091,-0.9851,-1.2501,-1.3563C0,7.7566,0,7.7566,0,7.5545V7h6.5v1H1.5815c0.7634,0.8299,2.0006,2.1682,2.9193,3.1603L4.8154,11.5l-0.3146,0.3397c-0.9187,0.992,-2.156,2.3304,-2.9193,3.1603H6.5V16z" fill="#6E6F72"/>
    <path d="M10.4546,9.5c-0.4152,0,-0.8035,-0.0608,-1.154,-0.1807c-0.3862,-0.132,-0.6996,-0.3845,-0.9553,-0.6141c-0.2413,-0.2167,-0.4627,-0.5422,-0.6579,-0.9677c-0.0342,-0.0746,-0.0683,-0.1524,-0.1008,-0.2358h-0.3281v-1h0.106c-0.01,-0.1428,-0.0146,-0.3416,-0.0146,-0.4755c0,-0.0871,0.0019,-0.1726,0.0057,-0.2567l0.0023,-0.0565c0.0032,-0.0787,0.0062,-0.1505,0.0099,-0.2091h-0.4111v-1h0.6338c0.0358,-0.0921,0.0761,-0.1833,0.1209,-0.2745c0.207,-0.4207,0.4241,-0.7276,0.6636,-0.9383c0.2568,-0.2258,0.5706,-0.4738,0.9518,-0.6015c0.3479,-0.1165,0.7344,-0.1755,1.1485,-0.1755c0.2486,0,0.4781,0.0185,0.6823,0.055c0.2009,0.0359,0.3825,0.0821,0.5397,0.1371c0.1613,0.0565,0.3044,0.1206,0.4256,0.1904l-0.4992,0.8664c-0.0677,-0.039,-0.1542,-0.0771,-0.2569,-0.1131c-0.1069,-0.0374,-0.2366,-0.0699,-0.3852,-0.0965c-0.1461,-0.0261,-0.3165,-0.0394,-0.5063,-0.0394c-0.3061,0,-0.5856,0.0417,-0.831,0.1238c-0.2126,0.0712,-0.4271,0.2443,-0.6089,0.4042c-0.0788,0.0693,-0.1969,0.204,-0.3397,0.4619h2.3077v1H8.3722l-0.0044,0.0352c-0.0045,0.0529,-0.0078,0.1447,-0.0106,0.2139l-0.0025,0.0614c-0.0032,0.07,-0.0047,0.1402,-0.0047,0.2118c0,0.1227,0.0046,0.3082,0.013,0.4188l0.0071,0.0566h2.3777v1H8.6854c0.134,0.254,0.2494,0.3889,0.328,0.4594c0.1807,0.1623,0.3945,0.3381,0.6107,0.412c0.2462,0.0842,0.5256,0.1269,0.8305,0.1269c0.2039,0,0.3839,-0.0153,0.5349,-0.0456c0.1541,-0.0309,0.2895,-0.0692,0.4023,-0.1139c0.1088,-0.0432,0.2002,-0.0888,0.2718,-0.1357l0.5486,0.836c-0.1281,0.0841,-0.2801,0.1612,-0.4519,0.2293c-0.1684,0.0668,-0.3617,0.1223,-0.5745,0.1649C10.9703,9.4781,10.7243,9.5,10.4546,9.5z" fill="#EEAD56"/>
  </g>
</svg>
