<?xml version="1.0" encoding="UTF-8"?>
<!DOCTYPE svg PUBLIC "-//W3C//DTD SVG 1.1//EN" "http://www.w3.org/Graphics/SVG/1.1/DTD/svg11.dtd">
<svg version="1.1" id="Layer_1" xmlns="http://www.w3.org/2000/svg" xmlns:xlink="http://www.w3.org/1999/xlink" x="0px" y="0px" width="16px" height="16px" viewBox="0 0 16 16" enable-background="new 0 0 16 16" xml:space="preserve">
  <g id="icon">
    <path d="M1.5583,7.5h10.8833C13.0262,7.5,13.5,7.0262,13.5,6.4417V1.5583C13.5,0.9738,13.0262,0.5,12.4417,0.5H1.5583C0.9738,0.5,0.5,0.9738,0.5,1.5583v4.8833C0.5,7.0262,0.9738,7.5,1.5583,7.5z" fill="#FFFFFF" opacity="0.5"/>
    <path d="M12.4417,8H1.5583C0.6991,8,0,7.3009,0,6.4417V1.5583C0,0.6991,0.6991,0,1.5583,0h10.8833C13.3009,0,14,0.6991,14,1.5583v4.8833C14,7.3009,13.3009,8,12.4417,8zM1.5583,1C1.2505,1,1,1.2505,1,1.5583v4.8833C1,6.7495,1.2505,7,1.5583,7h10.8833c0.3079,0,0.5583,-0.2505,0.5583,-0.5583V1.5583c0,-0.3079,-0.2505,-0.5583,-0.5583,-0.5583H1.5583z" fill="#6486C4"/>
    <polygon points="12.4086,9.0464 11.7015,9.7536 13.9479,12 5,12 5,13 13.9479,13 11.7015,15.2464 12.4086,15.9536 15.8622,12.5" fill="#54B14E" stroke-linejoin="miter"/>
  </g>
</svg>
