<?xml version="1.0" encoding="UTF-8"?>
<!DOCTYPE svg PUBLIC "-//W3C//DTD SVG 1.1//EN" "http://www.w3.org/Graphics/SVG/1.1/DTD/svg11.dtd">
<svg version="1.1" id="Layer_1" xmlns="http://www.w3.org/2000/svg" xmlns:xlink="http://www.w3.org/1999/xlink" x="0px" y="0px" width="16px" height="16px" viewBox="0 0 16 16" enable-background="new 0 0 16 16" xml:space="preserve">
  <g id="icon">
    <path d="M15.5,5.5H0.5V1.5h15V5.5zM15.5,5.5H0.5v4h15V5.5zM15.5,9.5H0.5v4h15V9.5z" fill="#FFFFFF" opacity="0.5"/>
    <path d="M0,1v4v1v3v1v4h16v-4V9V6V5V1H0zM15,13H1v-3h14V13zM15,9H1V6h14V9zM1,5V2h14v3H1z" fill="#6D6E71"/>
    <path d="M14,4h-2V3h2V4zM14,7h-2v1h2V7zM14,11h-2v1h2V11z" fill="#6485C3"/>
  </g>
</svg>
