<?xml version="1.0" encoding="UTF-8"?>
<!DOCTYPE svg PUBLIC "-//W3C//DTD SVG 1.1//EN" "http://www.w3.org/Graphics/SVG/1.1/DTD/svg11.dtd">
<svg version="1.1" id="Layer_1" xmlns="http://www.w3.org/2000/svg" xmlns:xlink="http://www.w3.org/1999/xlink" x="0px" y="0px" width="16px" height="16px" viewBox="0 0 16 16" enable-background="new 0 0 16 16" xml:space="preserve">
  <g id="icon">
    <path d="M16,15h-5.5v-1h5.5V15zM5.5,15H0v-1h5.5V15zM8.5,13.5H7.5v-1.5h1V13.5z" fill="#6D6E71"/>
    <path d="M10,16H6v-2h4V16z" fill="#EEAC55"/>
    <path d="M8.05,0.4359C5.4945,0.4359,3.5,0.9982,3.5,1.7141v7.9054c0,1.074,1.9945,1.9446,4.55,1.9446s4.55,-0.8706,4.55,-1.9446V1.7141C12.6,0.9982,10.6055,0.4359,8.05,0.4359z" fill="#FFFFFF" opacity="0.5"/>
    <path d="M8,12c-1.2908,0,-2.5024,-0.2154,-3.4114,-0.6064C3.5642,10.9529,3,10.3196,3,9.6103V1.725C3,0.4518,5.6935,0,8,0s5,0.4518,5,1.725v7.8853c0,0.7093,-0.5642,1.3426,-1.5886,1.7833C10.5024,11.7846,9.2908,12,8,12zM4,1.7097v7.821c-0.1,0.6256,1.4598,1.4981,4,1.4981s4.1,-0.8725,4,-1.4981v-7.821c-0.0055,-0.2509,-1.3153,-0.8386,-4,-0.8386S4.0055,1.4588,4,1.7097z" fill="#EEAC55"/>
    <path d="M8,3.4431c-1.8571,0,-4.9231,-0.3671,-4.9231,-1.7431h0.8462c0,-0.0067,-0.0012,-0.0116,-0.0017,-0.0129c0.0862,0.2436,1.4262,0.8561,4.0786,0.8561s3.9924,-0.6124,4.0786,-0.8561c-0.0005,0.0013,-0.0017,0.0063,-0.0017,0.0129h0.8462C12.9231,3.076,9.8571,3.4431,8,3.4431z" fill="#EEAC55"/>
  </g>
</svg>
