<?xml version="1.0" encoding="UTF-8"?>
<!DOCTYPE svg PUBLIC "-//W3C//DTD SVG 1.1//EN" "http://www.w3.org/Graphics/SVG/1.1/DTD/svg11.dtd">
<svg version="1.1" id="Layer_1" xmlns="http://www.w3.org/2000/svg" xmlns:xlink="http://www.w3.org/1999/xlink" x="0px" y="0px" width="16px" height="16px" viewBox="0 0 16 16" enable-background="new 0 0 16 16" xml:space="preserve">
  <g id="icon">
    <path d="M8,0.5C3.8579,0.5,0.5,3.8579,0.5,8c0,4.1421,3.3579,7.5,7.5,7.5s7.5,-3.3579,7.5,-7.5C15.5,3.8579,12.1421,0.5,8,0.5z" fill="#FFFFFF" opacity="0.5"/>
    <path d="M8,16c-4.4112,0,-8,-3.5888,-8,-8S3.5888,0,8,0s8,3.5888,8,8S12.4112,16,8,16zM8,1.1852c-3.7577,0,-6.8148,3.0571,-6.8148,6.8148S4.2423,14.8148,8,14.8148S14.8148,11.7577,14.8148,8S11.7577,1.1852,8,1.1852z" fill="#6D6E71"/>
    <path d="M8.4563,9.1068H7.1V12.1H5.9V3.9h2.1411c2.0736,0,3.125,0.8353,3.125,2.4827c0,0.5008,-0.1547,0.9877,-0.4355,1.3711c-0.1597,0.218,-0.5767,0.6911,-1.0638,1.0027l1.8383,2.7359l-0.996,0.6692L8.4563,9.1068zM8.5922,7.9068l0.2178,-0.0534c0.305,-0.0958,0.7833,-0.5777,0.9526,-0.8087c0.1293,-0.1766,0.2036,-0.4179,0.2036,-0.662c0,-0.5108,0,-1.2827,-1.925,-1.2827H7.1v2.8068H8.5922z" fill="#6485C3"/>
  </g>
</svg>
