<?xml version="1.0" encoding="UTF-8"?>
<!DOCTYPE svg PUBLIC "-//W3C//DTD SVG 1.1//EN" "http://www.w3.org/Graphics/SVG/1.1/DTD/svg11.dtd">
<svg version="1.1" id="Layer_1" xmlns="http://www.w3.org/2000/svg" xmlns:xlink="http://www.w3.org/1999/xlink" x="0px" y="0px" width="16px" height="16px" viewBox="0 0 16 16" enable-background="new 0 0 16 16" xml:space="preserve">
  <g id="icon">
    <path d="M15.5,13.5H0.5V2.5h15V13.5z" fill="#FFFFFF" opacity="0.5"/>
    <path d="M16,14H0V2h16V14zM1,13h14V3H1V13z" fill="#6D6E71"/>
    <path d="M14,10h-4V9h4V10zM14,8h-4V7h4V8zM14,6h-4V5h4V6z" fill="#6D6E71"/>
    <path d="M8.9645,10.5315c-0.1759,-1.01,-0.4887,-1.0268,-2.1992,-1.7142c-0.2497,-0.1068,-0.3203,-0.2603,-0.3016,-0.4795c0.4825,-0.6563,0.7732,-1.718,0.7732,-2.4603C7.2369,4.7281,6.8923,4,5.4804,4c-0.0058,0,0.0019,0,0,0c-1.4119,0,-1.7282,0.7281,-1.7282,1.8775c0,0.7422,0.2896,1.8019,0.7721,2.4582c0.0187,0.2192,-0.0524,0.3738,-0.3021,0.4806c-1.7105,0.6874,-2.0236,0.7047,-2.1995,1.7147c-0.0529,0.406,-0.0617,0.5762,0.0791,1.026c0.1585,0.5063,2.3982,0.4401,3.3786,0.4401c0.004,0,-0.0067,0,0,0c0.9804,0,3.2464,0.0665,3.4049,-0.4399C9.026,11.1074,9.0174,10.9375,8.9645,10.5315z" fill="#6485C3"/>
  </g>
</svg>
