<?xml version="1.0" encoding="UTF-8"?>
<!DOCTYPE svg PUBLIC "-//W3C//DTD SVG 1.1//EN" "http://www.w3.org/Graphics/SVG/1.1/DTD/svg11.dtd">
<svg version="1.1" id="Layer_1" xmlns="http://www.w3.org/2000/svg" xmlns:xlink="http://www.w3.org/1999/xlink" x="0px" y="0px" width="24px" height="24px" viewBox="0 0 24 24" enable-background="new 0 0 24 24" xml:space="preserve">
  <g id="icon">
    <path d="M14.9169,5.8916c-1.1082,-0.6624,-2.286,-1.0087,-3.5006,-1.0293c-1.1909,-0.0211,-2.3539,0.2747,-3.455,0.8763l-0.7192,-1.3163c1.3321,-0.7277,2.7469,-1.0817,4.1996,-1.0598c1.4804,0.0251,2.9085,0.4428,4.2448,1.2415L14.9169,5.8916zM16.3652,2.9319c-1.5526,-0.9281,-3.2042,-1.4133,-4.9088,-1.4421c-1.6746,-0.0294,-3.3033,0.385,-4.8468,1.2283l-0.7192,-1.3163C7.6648,0.4323,9.5463,-0.0411,11.4818,-0.01c1.9704,0.0334,3.8723,0.59,5.6531,1.6543L16.3652,2.9319z" fill="#7B7B7B"/>
    <path d="M18.9976,15.2124c0,-0.5655,0.0006,-1.1168,0.0012,-1.6632c0.0012,-1.1218,0.0024,-2.223,-0.0017,-3.384c-0.0025,-0.6856,-0.0059,-1.6246,-1.101,-1.9587c-1.6734,-0.5106,-4.197,-0.6532,-5.5083,-0.6929v-0.0157l-0.8479,0.0002l-0.101,-0.0002l-0.75,0.0009v0.0145c-1.3308,0.0393,-3.9071,0.1813,-5.5852,0.6932c-1.0951,0.3342,-1.0985,1.2732,-1.1009,1.9587c-0.0041,1.161,-0.0029,2.2622,-0.0017,3.384c0.0007,0.5464,0.0012,1.0977,0.0012,1.6632l0.0024,0.5947l-0.0005,0.4845c-0.0021,1.6438,-0.0058,4.7037,-0.0015,5.6183c0.0052,1.0876,0.6136,1.4166,0.976,1.5159c0.4586,0.1256,3.4649,0.4669,5.7258,0.5498v0.0185l0.8298,-0.0002l0.0876,0.0002l0.75,-0.0008v-0.0177c2.3,-0.085,5.2481,-0.4399,5.6493,-0.5498c0.3622,-0.0993,0.9706,-0.4283,0.9758,-1.5159c0.0043,-0.9146,0.0006,-3.9744,-0.0015,-5.6183L18.9976,15.2124zM8.575,20.3228c-0.9925,0,-1.8,-0.8075,-1.8,-1.8s0.8075,-1.8,1.8,-1.8s1.8,0.8075,1.8,1.8S9.5675,20.3228,8.575,20.3228zM8.575,14.7728c-0.9925,0,-1.8,-0.8075,-1.8,-1.8s0.8075,-1.8,1.8,-1.8s1.8,0.8075,1.8,1.8S9.5675,14.7728,8.575,14.7728zM14.4197,20.3228c-0.9896,0,-1.7947,-0.8075,-1.7947,-1.8s0.8051,-1.8,1.7947,-1.8s1.7947,0.8075,1.7947,1.8S15.4092,20.3228,14.4197,20.3228zM14.4197,14.7728c-0.9896,0,-1.7947,-0.8075,-1.7947,-1.8s0.8051,-1.8,1.7947,-1.8s1.7947,0.8075,1.7947,1.8S15.4092,14.7728,14.4197,14.7728z" fill="#7B7B7B"/>
    <path d="M14.4197,20.3228c-0.9896,0,-1.7947,-0.8075,-1.7947,-1.8s0.8051,-1.8,1.7947,-1.8s1.7947,0.8075,1.7947,1.8S15.4092,20.3228,14.4197,20.3228zM8.575,20.3228c-0.9925,0,-1.8,-0.8075,-1.8,-1.8s0.8075,-1.8,1.8,-1.8s1.8,0.8075,1.8,1.8S9.5675,20.3228,8.575,20.3228zM14.4197,14.7728c-0.9896,0,-1.7947,-0.8075,-1.7947,-1.8s0.8051,-1.8,1.7947,-1.8s1.7947,0.8075,1.7947,1.8S15.4092,14.7728,14.4197,14.7728zM8.575,14.7728c-0.9925,0,-1.8,-0.8075,-1.8,-1.8s0.8075,-1.8,1.8,-1.8s1.8,0.8075,1.8,1.8S9.5675,14.7728,8.575,14.7728z" fill="#FFFFFF" opacity="0.5"/>
  </g>
</svg>
