<?xml version="1.0" encoding="UTF-8"?>
<!DOCTYPE svg PUBLIC "-//W3C//DTD SVG 1.1//EN" "http://www.w3.org/Graphics/SVG/1.1/DTD/svg11.dtd">
<svg version="1.1" id="Layer_1" xmlns="http://www.w3.org/2000/svg" xmlns:xlink="http://www.w3.org/1999/xlink" x="0px" y="0px" width="24px" height="24px" viewBox="0 0 24 24" enable-background="new 0 0 24 24" xml:space="preserve">
  <g id="icon">
    <path d="M1,0v24h22V0H1zM11.2936,19.459L10.0526,20.7l-2.0339,-2.0339L5.9849,20.7l-1.241,-1.241l2.0339,-2.0339l-2.0339,-2.0339l1.241,-1.241l2.0339,2.0339l2.0339,-2.0339l1.241,1.241l-2.0339,2.0339L11.2936,19.459zM11.2936,8.7463l-1.241,1.241L8.0188,7.9534L5.9849,9.9872l-1.241,-1.241l2.0339,-2.0339L4.7439,4.6785l1.241,-1.241l2.0339,2.0339l2.0339,-2.0339l1.241,1.241L9.2597,6.7124L11.2936,8.7463zM19.5,18h-7.5v-1.5h7.5V18zM19.5,7.5h-7.5V6h7.5V7.5z" fill="#7B7B7B"/>
    <path d="M10.0526,9.9872L8.0188,7.9534L5.9849,9.9872l-1.241,-1.241l2.0339,-2.0339L4.7439,4.6785l1.241,-1.241l2.0339,2.0339l2.0339,-2.0339l1.241,1.241L9.2597,6.7124l2.0339,2.0339L10.0526,9.9872zM11.2936,19.459l-2.0339,-2.0339l2.0339,-2.0339l-1.241,-1.241l-2.0339,2.0339l-2.0339,-2.0339l-1.241,1.241l2.0339,2.0339L4.7439,19.459L5.9849,20.7l2.0339,-2.0339L10.0526,20.7L11.2936,19.459zM19.5,6h-7.5v1.5h7.5V6zM19.5,16.5h-7.5v1.5h7.5V16.5z" fill="#FFFFFF" opacity="0.5"/>
  </g>
</svg>
