<?xml version="1.0" encoding="UTF-8"?>
<!DOCTYPE svg PUBLIC "-//W3C//DTD SVG 1.1//EN" "http://www.w3.org/Graphics/SVG/1.1/DTD/svg11.dtd">
<svg version="1.1" id="Layer_1" xmlns="http://www.w3.org/2000/svg" xmlns:xlink="http://www.w3.org/1999/xlink" x="0px" y="0px" width="24px" height="24px" viewBox="0 0 24 24" enable-background="new 0 0 24 24" xml:space="preserve">
  <g id="icon">
    <path d="M11.8556,0.8134c2.3345,0.2137,4.8077,3.7139,4.588,7.7321c-0.1336,2.4432,-0.3338,4.0062,-0.7486,4.9769c-0.1444,0.338,-0.4924,0.5044,-0.8191,0.3867c-0.7864,-0.2832,-1.6693,-0.474,-2.3996,-0.5409c-0.7863,-0.072,-1.8068,0.002,-2.7117,0.208c-0.2971,0.0677,-0.6038,-0.09,-0.7469,-0.3885c-0.9292,-1.9381,-1.2904,-4.6061,-1.2027,-6.21C8.0347,2.9594,9.521,0.5997,11.8556,0.8134zM11.8267,16.4623c-2.4873,-0.2277,-3.1024,-1.2911,-3.3325,2.9175c-0.1397,2.5552,0.9367,3.7111,2.8547,3.8867c2.3679,0.2168,3.605,-2.0988,3.7139,-4.091C15.2655,15.468,14.2428,16.6835,11.8267,16.4623z" fill="#7B7B7B"/>
    <path d="M0.8535,17.2252c-0.5962,-1.7689,-0.8832,-3.6399,-0.853,-5.561c0.0297,-1.8866,0.3641,-3.7128,0.9938,-5.4277l1.4068,0.5166c-0.5716,1.5565,-0.8751,3.2167,-0.9021,4.9346c-0.0276,1.75,0.2331,3.452,0.7747,5.0587L0.8535,17.2252zM3.6333,15.883c-0.4446,-1.3187,-0.6586,-2.7133,-0.6361,-4.145c0.0222,-1.4064,0.2715,-2.7676,0.7411,-4.0461l1.4068,0.5168c-0.4113,1.1199,-0.6299,2.3153,-0.6493,3.5529c-0.0198,1.2606,0.1678,2.4862,0.5576,3.6427L3.6333,15.883zM23.1447,17.2252l-1.4201,-0.4787c0.5416,-1.6066,0.8023,-3.3086,0.7747,-5.0587c-0.0271,-1.7181,-0.3306,-3.3783,-0.9021,-4.9346l1.4068,-0.5166c0.6297,1.7147,0.9641,3.5409,0.9938,5.4277C24.0281,13.5855,23.7411,15.4565,23.1447,17.2252zM20.3649,15.883l-1.4201,-0.4787c0.3898,-1.1565,0.5775,-2.3821,0.5576,-3.6427c-0.0195,-1.2375,-0.2379,-2.4329,-0.6492,-3.5529L20.26,7.692c0.4695,1.2784,0.7188,2.6397,0.741,4.046C21.0235,13.1698,20.8095,14.5644,20.3649,15.883z" fill="#6485C3"/>
  </g>
</svg>
