<?xml version="1.0" encoding="UTF-8"?>
<!DOCTYPE svg PUBLIC "-//W3C//DTD SVG 1.1//EN" "http://www.w3.org/Graphics/SVG/1.1/DTD/svg11.dtd">
<svg version="1.1" id="Layer_1" xmlns="http://www.w3.org/2000/svg" xmlns:xlink="http://www.w3.org/1999/xlink" x="0px" y="0px" width="24px" height="24px" viewBox="0 0 24 24" enable-background="new 0 0 24 24" xml:space="preserve">
  <g id="icon">
    <path d="M19.9,24c-1.861,0,-3.375,-1.514,-3.375,-3.375v-0.75c0,-1.861,1.514,-3.375,3.375,-3.375s3.375,1.514,3.375,3.375v0.75C23.275,22.486,21.761,24,19.9,24zM19.9,18c-1.0339,0,-1.875,0.8411,-1.875,1.875v0.75c0,1.0339,0.8411,1.875,1.875,1.875s1.875,-0.8411,1.875,-1.875v-0.75C21.775,18.8411,20.9339,18,19.9,18zM15.025,24h-1.5v-6h-1.5v-1.5h3V24zM7.9,24c-1.861,0,-3.375,-1.514,-3.375,-3.375v-0.75C4.525,18.014,6.039,16.5,7.9,16.5s3.375,1.514,3.375,3.375v0.75C11.275,22.486,9.761,24,7.9,24zM7.9,18c-1.0339,0,-1.875,0.8411,-1.875,1.875v0.75C6.025,21.6589,6.8661,22.5,7.9,22.5s1.875,-0.8411,1.875,-1.875v-0.75C9.775,18.8411,8.9339,18,7.9,18zM3.025,24h-1.5v-6h-1.5v-1.5h3V24z" fill="#7B7B7B"/>
    <path d="M16.5,6.8092h-1.5V4.5309C15,2.8597,13.6542,1.5,12,1.5S9,2.8597,9,4.5309v2.2783H7.5V4.5309C7.5,2.0325,9.5187,0,12,0s4.5,2.0325,4.5,4.5309V6.8092z" fill="#7B7B7B"/>
    <path d="M6.875,6.75h10.5v7.5h-10.5V6.75zM12.025,9.75V12" fill="#FFFFFF" opacity="0.5"/>
    <path d="M18,15H6V6h12V15zM8,13h8V8H8V13zM12.8,12h-1.5V9.7h1.5V12z" fill="#EEAC55"/>
  </g>
</svg>
