<?xml version="1.0" encoding="UTF-8"?>
<!DOCTYPE svg PUBLIC "-//W3C//DTD SVG 1.1//EN" "http://www.w3.org/Graphics/SVG/1.1/DTD/svg11.dtd">
<svg version="1.1" id="Layer_1" xmlns="http://www.w3.org/2000/svg" xmlns:xlink="http://www.w3.org/1999/xlink" x="0px" y="0px" width="24px" height="24px" viewBox="0 0 24 24" enable-background="new 0 0 24 24" xml:space="preserve">
  <g id="icon">
    <path d="M11.493,9.493L9.769,7.9843l0.4564,2.2183c0.0551,0.2676,0.1069,0.6386,0.1299,1.0474C8.9116,8.9026,6.7606,7.1637,6.6605,7.0835l-1.1491,-0.9206l-0.1061,1.4496c-0.0015,0.0201,-0.1546,2.0239,-0.7742,3.4995c-0.0357,0.085,-0.0809,0.2088,-0.138,0.3656c-0.1007,0.2767,-0.2616,0.7184,-0.4646,1.177c-0.1914,-0.8377,-0.5289,-1.7705,-1.1229,-2.3801L1.8264,9.167l-0.2384,1.5121c-0.1304,0.827,-0.3762,1.7443,-0.6368,2.7165c-0.3482,1.2986,-0.7082,2.6414,-0.8077,3.8673c-0.2364,2.9086,1.8015,4.5755,4.039,5.9435l0.1903,0.1163l0.0053,-0.0082c-0.2274,-0.4379,-0.7732,-1.9283,-0.2722,-3.0921c0.5205,-1.2091,1.4014,-2.1752,1.8183,-3.4477c0.4751,0.672,1.2177,1.829,1.6479,2.2953c0.643,-0.7646,0.4043,-3.1258,0.0927,-4.1836c2.803,1.8604,3.7458,5.5712,2.3031,8.4449l0.1112,-0.0522c2.5325,-1.1881,4.1358,-3.2744,4.5145,-5.8747C15.0079,14.5606,13.8197,11.5291,11.493,9.493z" fill="#F1876B"/>
    <path d="M21,15h-4v-2h4V15zM19,16h-3.3303c0.0158,0.5177,-0.0118,1.0357,-0.0865,1.5485c-0.0222,0.1522,-0.0489,0.3025,-0.0784,0.4515H19V16zM16,1h-4v2h4V1zM21,7h-4v2h4V7zM15,6h4V4h-4V6zM11,7.7327V7h-0.8373L11,7.7327zM21,1h-4v2h4V1zM16,13h-0.9174c0.2381,0.6515,0.4067,1.3223,0.5014,2H16V13zM8.0803,7c0.1748,0.1626,0.3703,0.3499,0.5806,0.561l-0.035,-0.17c-0.0292,-0.142,-0.0156,-0.2738,0.0261,-0.391H8.0803zM14,10.8568V10h-0.632C13.5939,10.2762,13.8052,10.562,14,10.8568zM9,6h5V4H9V6zM16,7h-4v1.6079l0.1516,0.1326c0.0969,0.0848,0.1914,0.1716,0.2846,0.2595H16V7zM15,12h4v-2h-4V12zM20,12h4v-2h-4V12zM22,15h2v-2h-2V15zM22,21h2v-2h-2V21zM20,18h4v-2h-4V18zM11,1H6v2h5V1zM20,6h4V4h-4V6zM22,9h2V7h-2V9zM22,1v2h2V1H22zM4.5519,5.5723c0.0428,-0.5839,0.7228,-0.8803,1.1797,-0.5143L6.9074,6H8V4H3v2h1.5206L4.5519,5.5723zM5,1H3v2h2V1zM17,21h4v-2h-4V21zM3.06,9h1.1407c0.1551,-0.8009,0.2065,-1.4513,0.2073,-1.4623L4.4474,7H3v1.9384L3.06,9zM14.2836,21H16v-2h-0.7553C15.0125,19.7144,14.6904,20.3838,14.2836,21z" fill="#7B7B7B"/>
    <path d="M9.9061,23.455c1.5329,-2.8899,0.6018,-6.6815,-2.2413,-8.5686c0.3116,1.0579,0.5503,3.419,-0.0927,4.1836c-0.4302,-0.4663,-1.1729,-1.6233,-1.6479,-2.2953c-0.4168,1.2725,-1.2978,2.2386,-1.8183,3.4477c-0.5344,1.2414,0.1222,2.8542,0.313,3.1652C6.1945,24.1229,8.0266,24.1056,9.9061,23.455z" fill="#FFFFFF" opacity="0.5"/>
  </g>
</svg>
