<?xml version="1.0" encoding="UTF-8"?>
<!DOCTYPE svg PUBLIC "-//W3C//DTD SVG 1.1//EN" "http://www.w3.org/Graphics/SVG/1.1/DTD/svg11.dtd">
<svg version="1.1" id="Layer_1" xmlns="http://www.w3.org/2000/svg" xmlns:xlink="http://www.w3.org/1999/xlink" x="0px" y="0px" width="24px" height="24px" viewBox="0 0 24 24" enable-background="new 0 0 24 24" xml:space="preserve">
  <g id="icon">
    <path d="M21.95,21.95h-20c-0.55,0,-1,-0.45,-1,-1v-16c0,-0.55,0.45,-1,1,-1h20c0.55,0,1,0.45,1,1v16C22.95,21.5,22.5,21.95,21.95,21.95z" fill="#FFFFFF" opacity="0.5"/>
    <path d="M0,20.5V5.5c0,-1.3807,1.1193,-2.5,2.5,-2.5h19c1.3807,0,2.5,1.1193,2.5,2.5v15c0,1.3807,-1.1193,2.5,-2.5,2.5H2.5C1.1193,23,0,21.8807,0,20.5zM2,5.5v15c0,0.2761,0.2239,0.5,0.5,0.5h19c0.2761,0,0.5,-0.2239,0.5,-0.5V5.5c0,-0.2761,-0.2239,-0.5,-0.5,-0.5H2.5C2.2239,5,2,5.2239,2,5.5z" fill="#7B7B7B"/>
    <path d="M23.7,10H0.2V7h23.5V10z" fill="#7B7B7B"/>
    <path d="M18.2582,12.3576c-1.4598,-1.1359,-3.5325,-1.131,-4.9764,0.0192c-0.5627,0.4482,-0.9689,1.0071,-1.22,1.6156c-1.6128,-0.0043,-6.2773,-0.0497,-6.2773,-0.0497c-0.0684,0.0003,-0.1337,0.0275,-0.1819,0.0757L4.0462,15.575l1.8505,1.8505l0.9513,-0.9513l0.9533,0.9533l0.9513,-0.9513l0.729,0.729l0.7608,-0.7608l0.7846,-0.0089l-0.0081,0.2778c-0.0003,0.1417,0.1092,0.2546,0.2509,0.2585c0,0,0.3953,-0.0055,0.7537,0.0059c0.2275,0.5975,0.6009,1.1528,1.1202,1.6107c1.4867,1.3109,3.7353,1.3558,5.2536,0.0878C20.3768,17.0231,20.3274,13.9676,18.2582,12.3576zM16.0818,16.6313c-0.5772,-0.5772,-0.5782,-1.5121,-0.0021,-2.0881c0.576,-0.576,1.5109,-0.5751,2.0881,0.0021c0.5772,0.5772,0.5782,1.5121,0.0021,2.0881C17.5939,17.2094,16.659,17.2085,16.0818,16.6313z" fill="#EEAC55"/>
  </g>
</svg>
