<?xml version="1.0" encoding="UTF-8"?>
<!DOCTYPE svg PUBLIC "-//W3C//DTD SVG 1.1//EN" "http://www.w3.org/Graphics/SVG/1.1/DTD/svg11.dtd">
<svg version="1.1" id="Layer_1" xmlns="http://www.w3.org/2000/svg" xmlns:xlink="http://www.w3.org/1999/xlink" x="0px" y="0px" width="24px" height="24px" viewBox="0 0 24 24" enable-background="new 0 0 24 24" xml:space="preserve">
  <g id="icon">
    <path d="M11.5,14.6092H9.8333v-2.5459c0,-1.8676,-1.4954,-3.387,-3.3333,-3.387s-3.3333,1.5194,-3.3333,3.387v2.5459H1.5v-2.5459C1.5,9.2713,3.743,7,6.5,7s5,2.2713,5,5.0632V14.6092z" fill="#7B7B7B"/>
    <path d="M0,14v10h13V14H0zM7.4,21H5.6v-3h1.8V21z" fill="#EEAC55"/>
    <rect x="5.6" y="18" width="1.8" height="3" fill="#FFFFFF"/>
    <path d="M9.3,0.8v5.903c1.9013,1.0183,3.2,3.0384,3.2,5.3602v0.5951c0.0251,0.113,0.0475,0.2269,0.0674,0.3416H14v7.3h8.8V0.8H9.3z" fill="#FFFFFF" opacity="0.5"/>
    <path d="M8,0v6.1919c0.7297,0.1905,1.4051,0.5178,2,0.9513V2h12v17h-8v2h10V0H8z" fill="#7B7B7B"/>
    <path d="M15,16h2v2h-2V16zM14.5,3v1h3V3H14.5z" fill="#6485C3"/>
  </g>
</svg>
